<?xml version="1.0" encoding="utf-8" standalone="no"?>
<!DOCTYPE svg PUBLIC "-//W3C//DTD SVG 1.1//EN"
  "http://www.w3.org/Graphics/SVG/1.1/DTD/svg11.dtd">
<svg xmlns:xlink="http://www.w3.org/1999/xlink" width="460.8pt" height="345.6pt" viewBox="0 0 460.8 345.6" xmlns="http://www.w3.org/2000/svg" version="1.1">
 <metadata>
  <rdf:RDF xmlns:dc="http://purl.org/dc/elements/1.1/" xmlns:cc="http://creativecommons.org/ns#" xmlns:rdf="http://www.w3.org/1999/02/22-rdf-syntax-ns#">
   <cc:Work>
    <dc:type rdf:resource="http://purl.org/dc/dcmitype/StillImage"/>
    <dc:date>2024-03-08T12:13:42.787543</dc:date>
    <dc:format>image/svg+xml</dc:format>
    <dc:creator>
     <cc:Agent>
      <dc:title>Matplotlib v3.8.2, https://matplotlib.org/</dc:title>
     </cc:Agent>
    </dc:creator>
   </cc:Work>
  </rdf:RDF>
 </metadata>
 <defs>
  <style type="text/css">*{stroke-linejoin: round; stroke-linecap: butt}</style>
 </defs>
 <g id="figure_1">
  <g id="patch_1">
   <path d="M 0 345.6 
L 460.8 345.6 
L 460.8 0 
L 0 0 
z
" style="fill: #ffffff"/>
  </g>
  <g id="axes_1">
   <g id="patch_2">
    <path d="M 57.6 307.584 
L 414.72 307.584 
L 414.72 41.472 
L 57.6 41.472 
z
" style="fill: #ffffff"/>
   </g>
   <g id="matplotlib.axis_1">
    <g id="xtick_1">
     <g id="line2d_1">
      <defs>
       <path id="mef6409e0d1" d="M 0 0 
L 0 3.5 
" style="stroke: #000000; stroke-width: 0.8"/>
      </defs>
      <g>
       <use xlink:href="#mef6409e0d1" x="73.832727" y="307.584" style="stroke: #000000; stroke-width: 0.8"/>
      </g>
     </g>
     <g id="text_1">
      <!-- 0 -->
      <g transform="translate(70.651477 322.182437) scale(0.1 -0.1)">
       <defs>
        <path id="DejaVuSans-30" d="M 2034 4250 
Q 1547 4250 1301 3770 
Q 1056 3291 1056 2328 
Q 1056 1369 1301 889 
Q 1547 409 2034 409 
Q 2525 409 2770 889 
Q 3016 1369 3016 2328 
Q 3016 3291 2770 3770 
Q 2525 4250 2034 4250 
z
M 2034 4750 
Q 2819 4750 3233 4129 
Q 3647 3509 3647 2328 
Q 3647 1150 3233 529 
Q 2819 -91 2034 -91 
Q 1250 -91 836 529 
Q 422 1150 422 2328 
Q 422 3509 836 4129 
Q 1250 4750 2034 4750 
z
" transform="scale(0.015625)"/>
       </defs>
       <use xlink:href="#DejaVuSans-30"/>
      </g>
     </g>
    </g>
    <g id="xtick_2">
     <g id="line2d_2">
      <g>
       <use xlink:href="#mef6409e0d1" x="121.388617" y="307.584" style="stroke: #000000; stroke-width: 0.8"/>
      </g>
     </g>
     <g id="text_2">
      <!-- 50000 -->
      <g transform="translate(105.482367 322.182437) scale(0.1 -0.1)">
       <defs>
        <path id="DejaVuSans-35" d="M 691 4666 
L 3169 4666 
L 3169 4134 
L 1269 4134 
L 1269 2991 
Q 1406 3038 1543 3061 
Q 1681 3084 1819 3084 
Q 2600 3084 3056 2656 
Q 3513 2228 3513 1497 
Q 3513 744 3044 326 
Q 2575 -91 1722 -91 
Q 1428 -91 1123 -41 
Q 819 9 494 109 
L 494 744 
Q 775 591 1075 516 
Q 1375 441 1709 441 
Q 2250 441 2565 725 
Q 2881 1009 2881 1497 
Q 2881 1984 2565 2268 
Q 2250 2553 1709 2553 
Q 1456 2553 1204 2497 
Q 953 2441 691 2322 
L 691 4666 
z
" transform="scale(0.015625)"/>
       </defs>
       <use xlink:href="#DejaVuSans-35"/>
       <use xlink:href="#DejaVuSans-30" x="63.623047"/>
       <use xlink:href="#DejaVuSans-30" x="127.246094"/>
       <use xlink:href="#DejaVuSans-30" x="190.869141"/>
       <use xlink:href="#DejaVuSans-30" x="254.492188"/>
      </g>
     </g>
    </g>
    <g id="xtick_3">
     <g id="line2d_3">
      <g>
       <use xlink:href="#mef6409e0d1" x="168.944506" y="307.584" style="stroke: #000000; stroke-width: 0.8"/>
      </g>
     </g>
     <g id="text_3">
      <!-- 100000 -->
      <g transform="translate(149.857006 322.182437) scale(0.1 -0.1)">
       <defs>
        <path id="DejaVuSans-31" d="M 794 531 
L 1825 531 
L 1825 4091 
L 703 3866 
L 703 4441 
L 1819 4666 
L 2450 4666 
L 2450 531 
L 3481 531 
L 3481 0 
L 794 0 
L 794 531 
z
" transform="scale(0.015625)"/>
       </defs>
       <use xlink:href="#DejaVuSans-31"/>
       <use xlink:href="#DejaVuSans-30" x="63.623047"/>
       <use xlink:href="#DejaVuSans-30" x="127.246094"/>
       <use xlink:href="#DejaVuSans-30" x="190.869141"/>
       <use xlink:href="#DejaVuSans-30" x="254.492188"/>
       <use xlink:href="#DejaVuSans-30" x="318.115234"/>
      </g>
     </g>
    </g>
    <g id="xtick_4">
     <g id="line2d_4">
      <g>
       <use xlink:href="#mef6409e0d1" x="216.500395" y="307.584" style="stroke: #000000; stroke-width: 0.8"/>
      </g>
     </g>
     <g id="text_4">
      <!-- 150000 -->
      <g transform="translate(197.412895 322.182437) scale(0.1 -0.1)">
       <use xlink:href="#DejaVuSans-31"/>
       <use xlink:href="#DejaVuSans-35" x="63.623047"/>
       <use xlink:href="#DejaVuSans-30" x="127.246094"/>
       <use xlink:href="#DejaVuSans-30" x="190.869141"/>
       <use xlink:href="#DejaVuSans-30" x="254.492188"/>
       <use xlink:href="#DejaVuSans-30" x="318.115234"/>
      </g>
     </g>
    </g>
    <g id="xtick_5">
     <g id="line2d_5">
      <g>
       <use xlink:href="#mef6409e0d1" x="264.056285" y="307.584" style="stroke: #000000; stroke-width: 0.8"/>
      </g>
     </g>
     <g id="text_5">
      <!-- 200000 -->
      <g transform="translate(244.968785 322.182437) scale(0.1 -0.1)">
       <defs>
        <path id="DejaVuSans-32" d="M 1228 531 
L 3431 531 
L 3431 0 
L 469 0 
L 469 531 
Q 828 903 1448 1529 
Q 2069 2156 2228 2338 
Q 2531 2678 2651 2914 
Q 2772 3150 2772 3378 
Q 2772 3750 2511 3984 
Q 2250 4219 1831 4219 
Q 1534 4219 1204 4116 
Q 875 4013 500 3803 
L 500 4441 
Q 881 4594 1212 4672 
Q 1544 4750 1819 4750 
Q 2544 4750 2975 4387 
Q 3406 4025 3406 3419 
Q 3406 3131 3298 2873 
Q 3191 2616 2906 2266 
Q 2828 2175 2409 1742 
Q 1991 1309 1228 531 
z
" transform="scale(0.015625)"/>
       </defs>
       <use xlink:href="#DejaVuSans-32"/>
       <use xlink:href="#DejaVuSans-30" x="63.623047"/>
       <use xlink:href="#DejaVuSans-30" x="127.246094"/>
       <use xlink:href="#DejaVuSans-30" x="190.869141"/>
       <use xlink:href="#DejaVuSans-30" x="254.492188"/>
       <use xlink:href="#DejaVuSans-30" x="318.115234"/>
      </g>
     </g>
    </g>
    <g id="xtick_6">
     <g id="line2d_6">
      <g>
       <use xlink:href="#mef6409e0d1" x="311.612174" y="307.584" style="stroke: #000000; stroke-width: 0.8"/>
      </g>
     </g>
     <g id="text_6">
      <!-- 250000 -->
      <g transform="translate(292.524674 322.182437) scale(0.1 -0.1)">
       <use xlink:href="#DejaVuSans-32"/>
       <use xlink:href="#DejaVuSans-35" x="63.623047"/>
       <use xlink:href="#DejaVuSans-30" x="127.246094"/>
       <use xlink:href="#DejaVuSans-30" x="190.869141"/>
       <use xlink:href="#DejaVuSans-30" x="254.492188"/>
       <use xlink:href="#DejaVuSans-30" x="318.115234"/>
      </g>
     </g>
    </g>
    <g id="xtick_7">
     <g id="line2d_7">
      <g>
       <use xlink:href="#mef6409e0d1" x="359.168063" y="307.584" style="stroke: #000000; stroke-width: 0.8"/>
      </g>
     </g>
     <g id="text_7">
      <!-- 300000 -->
      <g transform="translate(340.080563 322.182437) scale(0.1 -0.1)">
       <defs>
        <path id="DejaVuSans-33" d="M 2597 2516 
Q 3050 2419 3304 2112 
Q 3559 1806 3559 1356 
Q 3559 666 3084 287 
Q 2609 -91 1734 -91 
Q 1441 -91 1130 -33 
Q 819 25 488 141 
L 488 750 
Q 750 597 1062 519 
Q 1375 441 1716 441 
Q 2309 441 2620 675 
Q 2931 909 2931 1356 
Q 2931 1769 2642 2001 
Q 2353 2234 1838 2234 
L 1294 2234 
L 1294 2753 
L 1863 2753 
Q 2328 2753 2575 2939 
Q 2822 3125 2822 3475 
Q 2822 3834 2567 4026 
Q 2313 4219 1838 4219 
Q 1578 4219 1281 4162 
Q 984 4106 628 3988 
L 628 4550 
Q 988 4650 1302 4700 
Q 1616 4750 1894 4750 
Q 2613 4750 3031 4423 
Q 3450 4097 3450 3541 
Q 3450 3153 3228 2886 
Q 3006 2619 2597 2516 
z
" transform="scale(0.015625)"/>
       </defs>
       <use xlink:href="#DejaVuSans-33"/>
       <use xlink:href="#DejaVuSans-30" x="63.623047"/>
       <use xlink:href="#DejaVuSans-30" x="127.246094"/>
       <use xlink:href="#DejaVuSans-30" x="190.869141"/>
       <use xlink:href="#DejaVuSans-30" x="254.492188"/>
       <use xlink:href="#DejaVuSans-30" x="318.115234"/>
      </g>
     </g>
    </g>
    <g id="xtick_8">
     <g id="line2d_8">
      <g>
       <use xlink:href="#mef6409e0d1" x="406.723953" y="307.584" style="stroke: #000000; stroke-width: 0.8"/>
      </g>
     </g>
     <g id="text_8">
      <!-- 350000 -->
      <g transform="translate(387.636453 322.182437) scale(0.1 -0.1)">
       <use xlink:href="#DejaVuSans-33"/>
       <use xlink:href="#DejaVuSans-35" x="63.623047"/>
       <use xlink:href="#DejaVuSans-30" x="127.246094"/>
       <use xlink:href="#DejaVuSans-30" x="190.869141"/>
       <use xlink:href="#DejaVuSans-30" x="254.492188"/>
       <use xlink:href="#DejaVuSans-30" x="318.115234"/>
      </g>
     </g>
    </g>
   </g>
   <g id="matplotlib.axis_2">
    <g id="ytick_1">
     <g id="line2d_9">
      <defs>
       <path id="ma393037255" d="M 0 0 
L -3.5 0 
" style="stroke: #000000; stroke-width: 0.8"/>
      </defs>
      <g>
       <use xlink:href="#ma393037255" x="57.6" y="295.488" style="stroke: #000000; stroke-width: 0.8"/>
      </g>
     </g>
     <g id="text_9">
      <!-- 0.0 -->
      <g transform="translate(34.696875 299.287219) scale(0.1 -0.1)">
       <defs>
        <path id="DejaVuSans-2e" d="M 684 794 
L 1344 794 
L 1344 0 
L 684 0 
L 684 794 
z
" transform="scale(0.015625)"/>
       </defs>
       <use xlink:href="#DejaVuSans-30"/>
       <use xlink:href="#DejaVuSans-2e" x="63.623047"/>
       <use xlink:href="#DejaVuSans-30" x="95.410156"/>
      </g>
     </g>
    </g>
    <g id="ytick_2">
     <g id="line2d_10">
      <g>
       <use xlink:href="#ma393037255" x="57.6" y="247.104" style="stroke: #000000; stroke-width: 0.8"/>
      </g>
     </g>
     <g id="text_10">
      <!-- 0.2 -->
      <g transform="translate(34.696875 250.903219) scale(0.1 -0.1)">
       <use xlink:href="#DejaVuSans-30"/>
       <use xlink:href="#DejaVuSans-2e" x="63.623047"/>
       <use xlink:href="#DejaVuSans-32" x="95.410156"/>
      </g>
     </g>
    </g>
    <g id="ytick_3">
     <g id="line2d_11">
      <g>
       <use xlink:href="#ma393037255" x="57.6" y="198.72" style="stroke: #000000; stroke-width: 0.8"/>
      </g>
     </g>
     <g id="text_11">
      <!-- 0.4 -->
      <g transform="translate(34.696875 202.519219) scale(0.1 -0.1)">
       <defs>
        <path id="DejaVuSans-34" d="M 2419 4116 
L 825 1625 
L 2419 1625 
L 2419 4116 
z
M 2253 4666 
L 3047 4666 
L 3047 1625 
L 3713 1625 
L 3713 1100 
L 3047 1100 
L 3047 0 
L 2419 0 
L 2419 1100 
L 313 1100 
L 313 1709 
L 2253 4666 
z
" transform="scale(0.015625)"/>
       </defs>
       <use xlink:href="#DejaVuSans-30"/>
       <use xlink:href="#DejaVuSans-2e" x="63.623047"/>
       <use xlink:href="#DejaVuSans-34" x="95.410156"/>
      </g>
     </g>
    </g>
    <g id="ytick_4">
     <g id="line2d_12">
      <g>
       <use xlink:href="#ma393037255" x="57.6" y="150.336" style="stroke: #000000; stroke-width: 0.8"/>
      </g>
     </g>
     <g id="text_12">
      <!-- 0.6 -->
      <g transform="translate(34.696875 154.135219) scale(0.1 -0.1)">
       <defs>
        <path id="DejaVuSans-36" d="M 2113 2584 
Q 1688 2584 1439 2293 
Q 1191 2003 1191 1497 
Q 1191 994 1439 701 
Q 1688 409 2113 409 
Q 2538 409 2786 701 
Q 3034 994 3034 1497 
Q 3034 2003 2786 2293 
Q 2538 2584 2113 2584 
z
M 3366 4563 
L 3366 3988 
Q 3128 4100 2886 4159 
Q 2644 4219 2406 4219 
Q 1781 4219 1451 3797 
Q 1122 3375 1075 2522 
Q 1259 2794 1537 2939 
Q 1816 3084 2150 3084 
Q 2853 3084 3261 2657 
Q 3669 2231 3669 1497 
Q 3669 778 3244 343 
Q 2819 -91 2113 -91 
Q 1303 -91 875 529 
Q 447 1150 447 2328 
Q 447 3434 972 4092 
Q 1497 4750 2381 4750 
Q 2619 4750 2861 4703 
Q 3103 4656 3366 4563 
z
" transform="scale(0.015625)"/>
       </defs>
       <use xlink:href="#DejaVuSans-30"/>
       <use xlink:href="#DejaVuSans-2e" x="63.623047"/>
       <use xlink:href="#DejaVuSans-36" x="95.410156"/>
      </g>
     </g>
    </g>
    <g id="ytick_5">
     <g id="line2d_13">
      <g>
       <use xlink:href="#ma393037255" x="57.6" y="101.952" style="stroke: #000000; stroke-width: 0.8"/>
      </g>
     </g>
     <g id="text_13">
      <!-- 0.8 -->
      <g transform="translate(34.696875 105.751219) scale(0.1 -0.1)">
       <defs>
        <path id="DejaVuSans-38" d="M 2034 2216 
Q 1584 2216 1326 1975 
Q 1069 1734 1069 1313 
Q 1069 891 1326 650 
Q 1584 409 2034 409 
Q 2484 409 2743 651 
Q 3003 894 3003 1313 
Q 3003 1734 2745 1975 
Q 2488 2216 2034 2216 
z
M 1403 2484 
Q 997 2584 770 2862 
Q 544 3141 544 3541 
Q 544 4100 942 4425 
Q 1341 4750 2034 4750 
Q 2731 4750 3128 4425 
Q 3525 4100 3525 3541 
Q 3525 3141 3298 2862 
Q 3072 2584 2669 2484 
Q 3125 2378 3379 2068 
Q 3634 1759 3634 1313 
Q 3634 634 3220 271 
Q 2806 -91 2034 -91 
Q 1263 -91 848 271 
Q 434 634 434 1313 
Q 434 1759 690 2068 
Q 947 2378 1403 2484 
z
M 1172 3481 
Q 1172 3119 1398 2916 
Q 1625 2713 2034 2713 
Q 2441 2713 2670 2916 
Q 2900 3119 2900 3481 
Q 2900 3844 2670 4047 
Q 2441 4250 2034 4250 
Q 1625 4250 1398 4047 
Q 1172 3844 1172 3481 
z
" transform="scale(0.015625)"/>
       </defs>
       <use xlink:href="#DejaVuSans-30"/>
       <use xlink:href="#DejaVuSans-2e" x="63.623047"/>
       <use xlink:href="#DejaVuSans-38" x="95.410156"/>
      </g>
     </g>
    </g>
    <g id="ytick_6">
     <g id="line2d_14">
      <g>
       <use xlink:href="#ma393037255" x="57.6" y="53.568" style="stroke: #000000; stroke-width: 0.8"/>
      </g>
     </g>
     <g id="text_14">
      <!-- 1.0 -->
      <g transform="translate(34.696875 57.367219) scale(0.1 -0.1)">
       <use xlink:href="#DejaVuSans-31"/>
       <use xlink:href="#DejaVuSans-2e" x="63.623047"/>
       <use xlink:href="#DejaVuSans-30" x="95.410156"/>
      </g>
     </g>
    </g>
   </g>
   <g id="line2d_15">
    <path d="M 73.832727 295.488 
L 141.447691 295.488 
L 141.447691 294.814128 
L 141.68547 294.814128 
L 141.68547 294.140256 
L 142.8173 294.140256 
L 142.8173 293.466384 
L 143.530639 293.466384 
L 143.606728 292.118641 
L 143.796952 292.118641 
L 143.796952 291.444769 
L 144.67198 291.444769 
L 144.748069 289.423153 
L 144.843181 289.423153 
L 144.890737 288.075409 
L 145.119005 288.075409 
L 145.119005 287.401538 
L 145.48043 287.401538 
L 145.508964 286.053794 
L 145.604075 286.053794 
L 145.699187 284.032178 
L 145.699187 284.032178 
L 146.536171 284.032178 
L 146.621772 282.684435 
L 146.735906 282.684435 
L 146.840529 279.988947 
L 147.021241 279.988947 
L 147.021241 279.315075 
L 147.363643 279.315075 
L 147.392177 277.967331 
L 147.506311 277.967331 
L 147.601423 276.619588 
L 147.620445 276.619588 
L 147.620445 275.945716 
L 148.048448 275.945716 
L 148.048448 275.271844 
L 148.428895 275.271844 
L 148.514496 273.9241 
L 148.657164 273.9241 
L 148.742764 271.902485 
L 148.904454 271.902485 
L 148.904454 271.228613 
L 149.256368 271.228613 
L 149.313435 269.880869 
L 149.427569 269.880869 
L 149.532192 267.859253 
L 149.532192 267.859253 
L 150.216997 267.859253 
L 150.216997 267.185382 
L 150.359664 267.185382 
L 150.40722 265.837638 
L 150.521354 265.837638 
L 150.625977 263.816022 
L 150.825712 263.816022 
L 150.825712 263.14215 
L 151.111047 263.14215 
L 151.21567 261.794407 
L 151.282249 261.794407 
L 151.386872 259.772791 
L 151.443939 259.772791 
L 151.443939 259.098919 
L 152.2619 259.098919 
L 152.366523 257.077304 
L 152.42359 257.077304 
L 152.471146 255.72956 
L 152.547235 255.72956 
L 152.547235 255.055688 
L 152.74697 255.055688 
L 152.74697 254.381816 
L 153.003772 254.381816 
L 153.003772 253.707944 
L 153.117906 253.707944 
L 153.165462 252.360201 
L 153.241551 252.360201 
L 153.241551 251.686329 
L 153.39373 251.686329 
L 153.39373 251.012457 
L 153.593465 251.012457 
L 153.593465 250.338585 
L 154.20218 250.338585 
L 154.297292 248.990841 
L 154.316314 248.990841 
L 154.420937 247.643097 
L 154.497027 247.643097 
L 154.592139 246.295354 
L 154.696762 246.295354 
L 154.696762 245.621482 
L 154.906007 245.621482 
L 155.01063 244.273738 
L 155.067697 244.273738 
L 155.067697 243.599866 
L 155.191343 243.599866 
L 155.191343 242.925994 
L 155.324499 242.925994 
L 155.324499 242.252123 
L 155.524234 242.252123 
L 155.524234 241.578251 
L 156.094905 241.578251 
L 156.180505 240.230507 
L 156.209039 240.230507 
L 156.209039 239.556635 
L 156.332684 239.556635 
L 156.408774 238.208891 
L 156.503885 238.208891 
L 156.503885 237.535019 
L 156.817754 237.535019 
L 156.922377 236.187276 
L 156.960422 236.187276 
L 157.065045 234.16566 
L 157.217224 234.16566 
L 157.217224 233.491788 
L 157.987629 233.491788 
L 158.082741 232.144045 
L 158.111274 232.144045 
L 158.111274 231.470173 
L 158.253942 231.470173 
L 158.291987 230.122429 
L 158.444166 230.122429 
L 158.444166 229.448557 
L 158.729501 229.448557 
L 158.729501 228.774685 
L 158.853146 228.774685 
L 158.938747 225.405326 
L 159.119459 225.405326 
L 159.119459 224.731454 
L 159.338216 224.731454 
L 159.338216 224.057582 
L 159.461862 224.057582 
L 159.461862 223.38371 
L 159.918398 223.38371 
L 160.023021 221.362095 
L 160.194222 221.362095 
L 160.194222 220.014351 
L 160.194222 220.014351 
L 160.308356 220.014351 
L 160.374935 218.666607 
L 160.631737 218.666607 
L 160.631737 217.992735 
L 160.755382 217.992735 
L 160.850494 215.97112 
L 161.021695 215.97112 
L 161.021695 215.297248 
L 161.240452 215.297248 
L 161.240452 214.623376 
L 161.364097 214.623376 
L 161.364097 213.949504 
L 161.849167 213.949504 
L 161.915746 212.60176 
L 161.963301 212.60176 
L 162.067924 211.254017 
L 162.096458 211.254017 
L 162.19157 209.906273 
L 162.27717 209.906273 
L 162.296193 208.558529 
L 162.524461 208.558529 
L 162.524461 207.884657 
L 162.714684 207.884657 
L 162.771752 205.18917 
L 162.771752 205.18917 
L 162.904908 205.18917 
L 162.904908 204.515298 
L 163.095132 204.515298 
L 163.095132 203.841426 
L 163.304378 203.841426 
L 163.361445 202.493682 
L 163.675313 202.493682 
L 163.760914 201.145939 
L 163.865537 201.145939 
L 163.951138 199.124323 
L 164.008205 199.124323 
L 164.008205 198.450451 
L 164.245984 198.450451 
L 164.245984 197.776579 
L 164.398163 197.776579 
L 164.398163 197.102708 
L 164.626431 197.102708 
L 164.721543 195.754964 
L 164.807144 195.754964 
L 164.807144 195.081092 
L 164.997367 195.081092 
L 165.073457 193.733348 
L 165.244658 193.733348 
L 165.244658 193.059476 
L 165.520482 193.059476 
L 165.577549 191.711733 
L 165.66315 191.711733 
L 165.74875 190.363989 
L 165.872396 190.363989 
L 165.948485 189.016245 
L 166.138709 189.016245 
L 166.138709 188.342373 
L 166.538178 188.342373 
L 166.538178 187.668501 
L 166.652312 187.668501 
L 166.652312 186.99463 
L 166.937647 186.99463 
L 167.023248 185.646886 
L 167.165916 185.646886 
L 167.165916 184.973014 
L 167.498807 184.973014 
L 167.498807 184.299142 
L 167.660497 184.299142 
L 167.660497 183.62527 
L 168.830372 183.62527 
L 168.877928 182.277526 
L 168.954017 182.277526 
L 169.05864 180.929783 
L 169.857579 180.929783 
L 169.857579 180.255911 
L 170.437761 180.255911 
L 170.437761 179.582039 
L 170.685052 179.582039 
L 170.685052 178.908167 
L 170.941853 178.908167 
L 170.941853 178.234295 
L 172.102217 178.234295 
L 172.178306 176.886552 
L 172.216351 176.886552 
L 172.254396 175.538808 
L 172.615821 175.538808 
L 172.615821 174.864936 
L 172.8536 174.864936 
L 172.8536 174.191064 
L 173.728628 174.191064 
L 173.728628 173.517192 
L 174.527567 173.517192 
L 174.527567 172.169448 
L 174.527567 172.169448 
L 174.746324 172.169448 
L 174.746324 171.495577 
L 175.126772 171.495577 
L 175.126772 170.821705 
L 175.497708 170.821705 
L 175.497708 170.147833 
L 175.621353 170.147833 
L 175.621353 169.473961 
L 176.429803 169.473961 
L 176.429803 168.800089 
L 176.620027 168.800089 
L 176.620027 168.126217 
L 176.943407 168.126217 
L 176.943407 167.452345 
L 178.303505 167.452345 
L 178.313016 166.104602 
L 178.493729 166.104602 
L 178.50324 164.756858 
L 180.205741 164.756858 
L 180.205741 163.409114 
L 180.205741 163.409114 
L 180.424498 163.409114 
L 180.424498 162.735242 
L 181.832152 162.735242 
L 181.832152 162.06137 
L 182.146021 162.06137 
L 182.146021 161.387499 
L 182.260155 161.387499 
L 182.260155 160.713627 
L 184.057768 160.713627 
L 184.057768 160.039755 
L 184.23848 160.039755 
L 184.23848 159.365883 
L 185.161064 159.365883 
L 185.161064 158.692011 
L 185.541511 158.692011 
L 185.541511 158.018139 
L 185.988537 158.018139 
L 185.988537 157.344267 
L 186.112182 157.344267 
L 186.112182 156.670396 
L 187.881261 156.670396 
L 187.928817 155.322652 
L 188.442421 155.322652 
L 188.442421 154.64878 
L 188.91798 154.64878 
L 188.91798 153.974908 
L 189.783497 153.974908 
L 189.783497 153.301036 
L 191.26724 153.301036 
L 191.276752 151.953292 
L 191.685732 151.953292 
L 191.685732 151.279421 
L 193.159965 151.279421 
L 193.159965 150.605549 
L 193.578457 150.605549 
L 193.578457 149.931677 
L 194.605664 149.931677 
L 194.605664 149.257805 
L 195.043178 149.257805 
L 195.043178 148.583933 
L 195.509226 148.583933 
L 195.509226 147.910061 
L 196.99297 147.910061 
L 196.99297 147.236189 
L 197.420973 147.236189 
L 197.430484 145.888446 
L 197.867998 145.888446 
L 197.867998 145.214574 
L 198.885694 145.214574 
L 198.885694 144.540702 
L 199.294675 144.540702 
L 199.370764 143.192958 
L 199.865345 143.192958 
L 199.865345 142.519086 
L 200.787929 142.519086 
L 200.787929 141.845214 
L 201.19691 141.845214 
L 201.225444 140.497471 
L 201.767581 140.497471 
L 201.767581 139.823599 
L 202.72821 139.823599 
L 202.72821 139.149727 
L 203.127679 139.149727 
L 203.127679 138.475855 
L 203.717372 138.475855 
L 203.717372 137.801983 
L 204.078797 137.801983 
L 204.078797 137.128111 
L 204.525822 137.128111 
L 204.525822 136.45424 
L 205.039426 136.45424 
L 205.039426 135.780368 
L 205.63863 135.780368 
L 205.63863 135.106496 
L 206.970195 135.106496 
L 206.970195 134.432624 
L 207.407709 134.432624 
L 207.407709 133.758752 
L 207.569399 133.758752 
L 207.569399 133.08488 
L 208.891453 133.08488 
L 208.891453 132.411008 
L 209.481146 132.411008 
L 209.481146 131.737136 
L 210.812711 131.737136 
L 210.850756 130.389393 
L 211.364359 130.389393 
L 211.364359 129.715521 
L 212.74348 129.715521 
L 212.74348 129.041649 
L 213.30464 129.041649 
L 213.30464 128.367777 
L 214.065534 128.367777 
L 214.151134 127.020033 
L 214.617182 127.020033 
L 214.617182 126.346162 
L 215.159319 126.346162 
L 215.159319 125.67229 
L 216.490884 125.67229 
L 216.53844 123.650674 
L 217.052044 123.650674 
L 217.052044 122.976802 
L 217.432491 122.976802 
L 217.461024 121.629058 
L 218.107784 121.629058 
L 218.107784 120.955187 
L 218.402631 120.955187 
L 218.402631 119.607443 
L 218.402631 119.607443 
L 218.611877 119.607443 
L 218.611877 118.933571 
L 218.868679 118.933571 
L 218.868679 118.259699 
L 219.001835 118.259699 
L 219.001835 117.585827 
L 219.353749 117.585827 
L 219.353749 116.911955 
L 220.228777 116.911955 
L 220.276333 115.564212 
L 220.428512 115.564212 
L 220.428512 114.89034 
L 220.761403 114.89034 
L 220.761403 114.216468 
L 220.923093 114.216468 
L 220.923093 113.542596 
L 221.21794 113.542596 
L 221.30354 112.194852 
L 221.902744 112.194852 
L 221.902744 111.520981 
L 222.806306 111.520981 
L 222.806306 110.847109 
L 223.215287 110.847109 
L 223.215287 110.173237 
L 223.557689 110.173237 
L 223.605245 108.825493 
L 225.0985 108.825493 
L 225.0985 108.151621 
L 225.212634 108.151621 
L 225.212634 106.803877 
L 225.212634 106.803877 
L 225.90695 106.803877 
L 225.90695 106.130006 
L 226.924646 106.130006 
L 227.010247 104.782262 
L 227.609451 104.782262 
L 227.609451 104.10839 
L 228.341812 104.10839 
L 228.341812 103.434518 
L 228.503502 103.434518 
L 228.503502 102.760646 
L 228.902971 102.760646 
L 228.902971 102.086774 
L 229.996757 102.086774 
L 229.996757 101.412903 
L 230.244047 101.412903 
L 230.244047 100.739031 
L 230.767162 100.739031 
L 230.767162 99.391287 
L 230.767162 99.391287 
L 231.832414 99.391287 
L 231.832414 98.717415 
L 232.336506 98.717415 
L 232.336506 98.043543 
L 233.106912 98.043543 
L 233.106912 97.369671 
L 233.601493 97.369671 
L 233.601493 96.695799 
L 234.590656 96.695799 
L 234.590656 96.021928 
L 234.714301 96.021928 
L 234.714301 95.348056 
L 235.170838 95.348056 
L 235.170838 94.674184 
L 235.503729 94.674184 
L 235.503729 94.000312 
L 236.454847 94.000312 
L 236.454847 93.32644 
L 236.88285 93.32644 
L 236.88285 92.652568 
L 237.082584 92.652568 
L 237.082584 91.978696 
L 237.929079 91.978696 
L 237.929079 91.304825 
L 239.479401 91.304825 
L 239.479401 90.630953 
L 240.325896 90.630953 
L 240.325896 89.957081 
L 241.866707 89.957081 
L 241.866707 89.283209 
L 242.713202 89.283209 
L 242.713202 88.609337 
L 244.215968 88.609337 
L 244.215968 87.935465 
L 245.052951 87.935465 
L 245.052951 87.261593 
L 245.176597 87.261593 
L 245.176597 86.587721 
L 246.612784 86.587721 
L 246.612784 85.91385 
L 247.107366 85.91385 
L 247.107366 85.239978 
L 247.421235 85.239978 
L 247.421235 84.566106 
L 248.971557 84.566106 
L 248.990579 83.218362 
L 249.780007 83.218362 
L 249.780007 82.54449 
L 250.921348 82.54449 
L 250.921348 81.870618 
L 251.396907 81.870618 
L 251.396907 81.196747 
L 252.814072 81.196747 
L 252.814072 80.522875 
L 253.812746 80.522875 
L 253.812746 79.849003 
L 256.181029 79.849003 
L 256.181029 79.175131 
L 258.596869 79.175131 
L 258.596869 78.501259 
L 287.425249 78.501259 
L 287.425249 77.827387 
L 289.298951 77.827387 
L 289.298951 77.153515 
L 291.172653 77.153515 
L 291.172653 76.479643 
L 293.074888 76.479643 
L 293.074888 75.805772 
L 294.986635 75.805772 
L 294.986635 75.1319 
L 296.860337 75.1319 
L 296.860337 74.458028 
L 298.762573 74.458028 
L 298.762573 73.784156 
L 300.626764 73.784156 
L 300.626764 73.110284 
L 302.557533 73.110284 
L 302.557533 72.436412 
L 304.478791 72.436412 
L 304.478791 71.76254 
L 304.906794 71.76254 
L 304.906794 71.088669 
L 306.390537 71.088669 
L 306.390537 70.414797 
L 307.294099 70.414797 
L 307.294099 69.740925 
L 308.273751 69.740925 
L 308.273751 69.067053 
L 309.662383 69.067053 
L 309.662383 68.393181 
L 310.156964 68.393181 
L 310.156964 67.719309 
L 312.059199 67.719309 
L 312.106755 66.371565 
L 313.970946 66.371565 
L 313.970946 65.697694 
L 314.417972 65.697694 
L 314.417972 65.023822 
L 315.816115 65.023822 
L 315.816115 64.34995 
L 316.795766 64.34995 
L 316.795766 63.676078 
L 317.71835 63.676078 
L 317.71835 63.002206 
L 319.145027 63.002206 
L 319.145027 62.328334 
L 319.677653 62.328334 
L 319.677653 61.654462 
L 321.522821 61.654462 
L 321.522821 60.980591 
L 323.444079 60.980591 
L 323.444079 60.306719 
L 326.325966 60.306719 
L 326.325966 59.632847 
L 328.713272 59.632847 
L 328.713272 58.958975 
L 331.062533 58.958975 
L 331.062533 58.285103 
L 335.808611 58.285103 
L 335.808611 57.611231 
L 338.176894 57.611231 
L 338.176894 56.937359 
L 340.564199 56.937359 
L 340.564199 56.263487 
L 342.922972 56.263487 
L 342.922972 55.589616 
L 345.310277 55.589616 
L 345.310277 54.915744 
L 347.688072 54.915744 
L 347.688072 54.241872 
L 398.487273 54.241872 
L 398.487273 53.568 
L 398.487273 53.568 
" clip-path="url(#p0a3ce37985)" style="fill: none; stroke: #1f77b4; stroke-width: 1.5; stroke-linecap: square"/>
   </g>
   <g id="patch_3">
    <path d="M 57.6 307.584 
L 57.6 41.472 
" style="fill: none; stroke: #000000; stroke-width: 0.8; stroke-linejoin: miter; stroke-linecap: square"/>
   </g>
   <g id="patch_4">
    <path d="M 414.72 307.584 
L 414.72 41.472 
" style="fill: none; stroke: #000000; stroke-width: 0.8; stroke-linejoin: miter; stroke-linecap: square"/>
   </g>
   <g id="patch_5">
    <path d="M 57.6 307.584 
L 414.72 307.584 
" style="fill: none; stroke: #000000; stroke-width: 0.8; stroke-linejoin: miter; stroke-linecap: square"/>
   </g>
   <g id="patch_6">
    <path d="M 57.6 41.472 
L 414.72 41.472 
" style="fill: none; stroke: #000000; stroke-width: 0.8; stroke-linejoin: miter; stroke-linecap: square"/>
   </g>
   <g id="text_15">
    <!-- Execution time between S1 S103 -->
    <g transform="translate(136.701562 35.472) scale(0.12 -0.12)">
     <defs>
      <path id="DejaVuSans-45" d="M 628 4666 
L 3578 4666 
L 3578 4134 
L 1259 4134 
L 1259 2753 
L 3481 2753 
L 3481 2222 
L 1259 2222 
L 1259 531 
L 3634 531 
L 3634 0 
L 628 0 
L 628 4666 
z
" transform="scale(0.015625)"/>
      <path id="DejaVuSans-78" d="M 3513 3500 
L 2247 1797 
L 3578 0 
L 2900 0 
L 1881 1375 
L 863 0 
L 184 0 
L 1544 1831 
L 300 3500 
L 978 3500 
L 1906 2253 
L 2834 3500 
L 3513 3500 
z
" transform="scale(0.015625)"/>
      <path id="DejaVuSans-65" d="M 3597 1894 
L 3597 1613 
L 953 1613 
Q 991 1019 1311 708 
Q 1631 397 2203 397 
Q 2534 397 2845 478 
Q 3156 559 3463 722 
L 3463 178 
Q 3153 47 2828 -22 
Q 2503 -91 2169 -91 
Q 1331 -91 842 396 
Q 353 884 353 1716 
Q 353 2575 817 3079 
Q 1281 3584 2069 3584 
Q 2775 3584 3186 3129 
Q 3597 2675 3597 1894 
z
M 3022 2063 
Q 3016 2534 2758 2815 
Q 2500 3097 2075 3097 
Q 1594 3097 1305 2825 
Q 1016 2553 972 2059 
L 3022 2063 
z
" transform="scale(0.015625)"/>
      <path id="DejaVuSans-63" d="M 3122 3366 
L 3122 2828 
Q 2878 2963 2633 3030 
Q 2388 3097 2138 3097 
Q 1578 3097 1268 2742 
Q 959 2388 959 1747 
Q 959 1106 1268 751 
Q 1578 397 2138 397 
Q 2388 397 2633 464 
Q 2878 531 3122 666 
L 3122 134 
Q 2881 22 2623 -34 
Q 2366 -91 2075 -91 
Q 1284 -91 818 406 
Q 353 903 353 1747 
Q 353 2603 823 3093 
Q 1294 3584 2113 3584 
Q 2378 3584 2631 3529 
Q 2884 3475 3122 3366 
z
" transform="scale(0.015625)"/>
      <path id="DejaVuSans-75" d="M 544 1381 
L 544 3500 
L 1119 3500 
L 1119 1403 
Q 1119 906 1312 657 
Q 1506 409 1894 409 
Q 2359 409 2629 706 
Q 2900 1003 2900 1516 
L 2900 3500 
L 3475 3500 
L 3475 0 
L 2900 0 
L 2900 538 
Q 2691 219 2414 64 
Q 2138 -91 1772 -91 
Q 1169 -91 856 284 
Q 544 659 544 1381 
z
M 1991 3584 
L 1991 3584 
z
" transform="scale(0.015625)"/>
      <path id="DejaVuSans-74" d="M 1172 4494 
L 1172 3500 
L 2356 3500 
L 2356 3053 
L 1172 3053 
L 1172 1153 
Q 1172 725 1289 603 
Q 1406 481 1766 481 
L 2356 481 
L 2356 0 
L 1766 0 
Q 1100 0 847 248 
Q 594 497 594 1153 
L 594 3053 
L 172 3053 
L 172 3500 
L 594 3500 
L 594 4494 
L 1172 4494 
z
" transform="scale(0.015625)"/>
      <path id="DejaVuSans-69" d="M 603 3500 
L 1178 3500 
L 1178 0 
L 603 0 
L 603 3500 
z
M 603 4863 
L 1178 4863 
L 1178 4134 
L 603 4134 
L 603 4863 
z
" transform="scale(0.015625)"/>
      <path id="DejaVuSans-6f" d="M 1959 3097 
Q 1497 3097 1228 2736 
Q 959 2375 959 1747 
Q 959 1119 1226 758 
Q 1494 397 1959 397 
Q 2419 397 2687 759 
Q 2956 1122 2956 1747 
Q 2956 2369 2687 2733 
Q 2419 3097 1959 3097 
z
M 1959 3584 
Q 2709 3584 3137 3096 
Q 3566 2609 3566 1747 
Q 3566 888 3137 398 
Q 2709 -91 1959 -91 
Q 1206 -91 779 398 
Q 353 888 353 1747 
Q 353 2609 779 3096 
Q 1206 3584 1959 3584 
z
" transform="scale(0.015625)"/>
      <path id="DejaVuSans-6e" d="M 3513 2113 
L 3513 0 
L 2938 0 
L 2938 2094 
Q 2938 2591 2744 2837 
Q 2550 3084 2163 3084 
Q 1697 3084 1428 2787 
Q 1159 2491 1159 1978 
L 1159 0 
L 581 0 
L 581 3500 
L 1159 3500 
L 1159 2956 
Q 1366 3272 1645 3428 
Q 1925 3584 2291 3584 
Q 2894 3584 3203 3211 
Q 3513 2838 3513 2113 
z
" transform="scale(0.015625)"/>
      <path id="DejaVuSans-20" transform="scale(0.015625)"/>
      <path id="DejaVuSans-6d" d="M 3328 2828 
Q 3544 3216 3844 3400 
Q 4144 3584 4550 3584 
Q 5097 3584 5394 3201 
Q 5691 2819 5691 2113 
L 5691 0 
L 5113 0 
L 5113 2094 
Q 5113 2597 4934 2840 
Q 4756 3084 4391 3084 
Q 3944 3084 3684 2787 
Q 3425 2491 3425 1978 
L 3425 0 
L 2847 0 
L 2847 2094 
Q 2847 2600 2669 2842 
Q 2491 3084 2119 3084 
Q 1678 3084 1418 2786 
Q 1159 2488 1159 1978 
L 1159 0 
L 581 0 
L 581 3500 
L 1159 3500 
L 1159 2956 
Q 1356 3278 1631 3431 
Q 1906 3584 2284 3584 
Q 2666 3584 2933 3390 
Q 3200 3197 3328 2828 
z
" transform="scale(0.015625)"/>
      <path id="DejaVuSans-62" d="M 3116 1747 
Q 3116 2381 2855 2742 
Q 2594 3103 2138 3103 
Q 1681 3103 1420 2742 
Q 1159 2381 1159 1747 
Q 1159 1113 1420 752 
Q 1681 391 2138 391 
Q 2594 391 2855 752 
Q 3116 1113 3116 1747 
z
M 1159 2969 
Q 1341 3281 1617 3432 
Q 1894 3584 2278 3584 
Q 2916 3584 3314 3078 
Q 3713 2572 3713 1747 
Q 3713 922 3314 415 
Q 2916 -91 2278 -91 
Q 1894 -91 1617 61 
Q 1341 213 1159 525 
L 1159 0 
L 581 0 
L 581 4863 
L 1159 4863 
L 1159 2969 
z
" transform="scale(0.015625)"/>
      <path id="DejaVuSans-77" d="M 269 3500 
L 844 3500 
L 1563 769 
L 2278 3500 
L 2956 3500 
L 3675 769 
L 4391 3500 
L 4966 3500 
L 4050 0 
L 3372 0 
L 2619 2869 
L 1863 0 
L 1184 0 
L 269 3500 
z
" transform="scale(0.015625)"/>
      <path id="DejaVuSans-53" d="M 3425 4513 
L 3425 3897 
Q 3066 4069 2747 4153 
Q 2428 4238 2131 4238 
Q 1616 4238 1336 4038 
Q 1056 3838 1056 3469 
Q 1056 3159 1242 3001 
Q 1428 2844 1947 2747 
L 2328 2669 
Q 3034 2534 3370 2195 
Q 3706 1856 3706 1288 
Q 3706 609 3251 259 
Q 2797 -91 1919 -91 
Q 1588 -91 1214 -16 
Q 841 59 441 206 
L 441 856 
Q 825 641 1194 531 
Q 1563 422 1919 422 
Q 2459 422 2753 634 
Q 3047 847 3047 1241 
Q 3047 1584 2836 1778 
Q 2625 1972 2144 2069 
L 1759 2144 
Q 1053 2284 737 2584 
Q 422 2884 422 3419 
Q 422 4038 858 4394 
Q 1294 4750 2059 4750 
Q 2388 4750 2728 4690 
Q 3069 4631 3425 4513 
z
" transform="scale(0.015625)"/>
     </defs>
     <use xlink:href="#DejaVuSans-45"/>
     <use xlink:href="#DejaVuSans-78" x="63.183594"/>
     <use xlink:href="#DejaVuSans-65" x="119.238281"/>
     <use xlink:href="#DejaVuSans-63" x="180.761719"/>
     <use xlink:href="#DejaVuSans-75" x="235.742188"/>
     <use xlink:href="#DejaVuSans-74" x="299.121094"/>
     <use xlink:href="#DejaVuSans-69" x="338.330078"/>
     <use xlink:href="#DejaVuSans-6f" x="366.113281"/>
     <use xlink:href="#DejaVuSans-6e" x="427.294922"/>
     <use xlink:href="#DejaVuSans-20" x="490.673828"/>
     <use xlink:href="#DejaVuSans-74" x="522.460938"/>
     <use xlink:href="#DejaVuSans-69" x="561.669922"/>
     <use xlink:href="#DejaVuSans-6d" x="589.453125"/>
     <use xlink:href="#DejaVuSans-65" x="686.865234"/>
     <use xlink:href="#DejaVuSans-20" x="748.388672"/>
     <use xlink:href="#DejaVuSans-62" x="780.175781"/>
     <use xlink:href="#DejaVuSans-65" x="843.652344"/>
     <use xlink:href="#DejaVuSans-74" x="905.175781"/>
     <use xlink:href="#DejaVuSans-77" x="944.384766"/>
     <use xlink:href="#DejaVuSans-65" x="1026.171875"/>
     <use xlink:href="#DejaVuSans-65" x="1087.695312"/>
     <use xlink:href="#DejaVuSans-6e" x="1149.21875"/>
     <use xlink:href="#DejaVuSans-20" x="1212.597656"/>
     <use xlink:href="#DejaVuSans-53" x="1244.384766"/>
     <use xlink:href="#DejaVuSans-31" x="1307.861328"/>
     <use xlink:href="#DejaVuSans-20" x="1371.484375"/>
     <use xlink:href="#DejaVuSans-53" x="1403.271484"/>
     <use xlink:href="#DejaVuSans-31" x="1466.748047"/>
     <use xlink:href="#DejaVuSans-30" x="1530.371094"/>
     <use xlink:href="#DejaVuSans-33" x="1593.994141"/>
    </g>
   </g>
   <g id="legend_1">
    <g id="patch_7">
     <path d="M 291.861562 304.584 
L 410.52 304.584 
Q 411.72 304.584 411.72 303.384 
L 411.72 295.177125 
Q 411.72 293.977125 410.52 293.977125 
L 291.861562 293.977125 
Q 290.661563 293.977125 290.661563 295.177125 
L 290.661563 303.384 
Q 290.661563 304.584 291.861562 304.584 
z
" style="fill: #ffffff; opacity: 0.8; stroke: #cccccc; stroke-linejoin: miter"/>
    </g>
    <g id="line2d_16">
     <path d="M 293.061562 298.836187 
L 299.061562 298.836187 
L 305.061562 298.836187 
" style="fill: none; stroke: #1f77b4; stroke-width: 1.5; stroke-linecap: square"/>
    </g>
    <g id="text_16">
     <!-- Execution time between S1 S103 -->
     <g transform="translate(309.861562 300.936187) scale(0.06 -0.06)">
      <use xlink:href="#DejaVuSans-45"/>
      <use xlink:href="#DejaVuSans-78" x="63.183594"/>
      <use xlink:href="#DejaVuSans-65" x="119.238281"/>
      <use xlink:href="#DejaVuSans-63" x="180.761719"/>
      <use xlink:href="#DejaVuSans-75" x="235.742188"/>
      <use xlink:href="#DejaVuSans-74" x="299.121094"/>
      <use xlink:href="#DejaVuSans-69" x="338.330078"/>
      <use xlink:href="#DejaVuSans-6f" x="366.113281"/>
      <use xlink:href="#DejaVuSans-6e" x="427.294922"/>
      <use xlink:href="#DejaVuSans-20" x="490.673828"/>
      <use xlink:href="#DejaVuSans-74" x="522.460938"/>
      <use xlink:href="#DejaVuSans-69" x="561.669922"/>
      <use xlink:href="#DejaVuSans-6d" x="589.453125"/>
      <use xlink:href="#DejaVuSans-65" x="686.865234"/>
      <use xlink:href="#DejaVuSans-20" x="748.388672"/>
      <use xlink:href="#DejaVuSans-62" x="780.175781"/>
      <use xlink:href="#DejaVuSans-65" x="843.652344"/>
      <use xlink:href="#DejaVuSans-74" x="905.175781"/>
      <use xlink:href="#DejaVuSans-77" x="944.384766"/>
      <use xlink:href="#DejaVuSans-65" x="1026.171875"/>
      <use xlink:href="#DejaVuSans-65" x="1087.695312"/>
      <use xlink:href="#DejaVuSans-6e" x="1149.21875"/>
      <use xlink:href="#DejaVuSans-20" x="1212.597656"/>
      <use xlink:href="#DejaVuSans-53" x="1244.384766"/>
      <use xlink:href="#DejaVuSans-31" x="1307.861328"/>
      <use xlink:href="#DejaVuSans-20" x="1371.484375"/>
      <use xlink:href="#DejaVuSans-53" x="1403.271484"/>
      <use xlink:href="#DejaVuSans-31" x="1466.748047"/>
      <use xlink:href="#DejaVuSans-30" x="1530.371094"/>
      <use xlink:href="#DejaVuSans-33" x="1593.994141"/>
     </g>
    </g>
   </g>
  </g>
 </g>
 <defs>
  <clipPath id="p0a3ce37985">
   <rect x="57.6" y="41.472" width="357.12" height="266.112"/>
  </clipPath>
 </defs>
</svg>
