<?xml version="1.0" encoding="utf-8" standalone="no"?>
<!DOCTYPE svg PUBLIC "-//W3C//DTD SVG 1.1//EN"
  "http://www.w3.org/Graphics/SVG/1.1/DTD/svg11.dtd">
<svg xmlns:xlink="http://www.w3.org/1999/xlink" width="460.8pt" height="345.6pt" viewBox="0 0 460.8 345.6" xmlns="http://www.w3.org/2000/svg" version="1.1">
 <metadata>
  <rdf:RDF xmlns:dc="http://purl.org/dc/elements/1.1/" xmlns:cc="http://creativecommons.org/ns#" xmlns:rdf="http://www.w3.org/1999/02/22-rdf-syntax-ns#">
   <cc:Work>
    <dc:type rdf:resource="http://purl.org/dc/dcmitype/StillImage"/>
    <dc:date>2024-03-08T12:13:47.870113</dc:date>
    <dc:format>image/svg+xml</dc:format>
    <dc:creator>
     <cc:Agent>
      <dc:title>Matplotlib v3.8.2, https://matplotlib.org/</dc:title>
     </cc:Agent>
    </dc:creator>
   </cc:Work>
  </rdf:RDF>
 </metadata>
 <defs>
  <style type="text/css">*{stroke-linejoin: round; stroke-linecap: butt}</style>
 </defs>
 <g id="figure_1">
  <g id="patch_1">
   <path d="M 0 345.6 
L 460.8 345.6 
L 460.8 0 
L 0 0 
z
" style="fill: #ffffff"/>
  </g>
  <g id="axes_1">
   <g id="patch_2">
    <path d="M 57.6 307.584 
L 414.72 307.584 
L 414.72 41.472 
L 57.6 41.472 
z
" style="fill: #ffffff"/>
   </g>
   <g id="matplotlib.axis_1">
    <g id="xtick_1">
     <g id="line2d_1">
      <defs>
       <path id="mbcc5a3c38c" d="M 0 0 
L 0 3.5 
" style="stroke: #000000; stroke-width: 0.8"/>
      </defs>
      <g>
       <use xlink:href="#mbcc5a3c38c" x="71.583439" y="307.584" style="stroke: #000000; stroke-width: 0.8"/>
      </g>
     </g>
     <g id="text_1">
      <!-- 0.0 -->
      <g transform="translate(63.631876 322.182437) scale(0.1 -0.1)">
       <defs>
        <path id="DejaVuSans-30" d="M 2034 4250 
Q 1547 4250 1301 3770 
Q 1056 3291 1056 2328 
Q 1056 1369 1301 889 
Q 1547 409 2034 409 
Q 2525 409 2770 889 
Q 3016 1369 3016 2328 
Q 3016 3291 2770 3770 
Q 2525 4250 2034 4250 
z
M 2034 4750 
Q 2819 4750 3233 4129 
Q 3647 3509 3647 2328 
Q 3647 1150 3233 529 
Q 2819 -91 2034 -91 
Q 1250 -91 836 529 
Q 422 1150 422 2328 
Q 422 3509 836 4129 
Q 1250 4750 2034 4750 
z
" transform="scale(0.015625)"/>
        <path id="DejaVuSans-2e" d="M 684 794 
L 1344 794 
L 1344 0 
L 684 0 
L 684 794 
z
" transform="scale(0.015625)"/>
       </defs>
       <use xlink:href="#DejaVuSans-30"/>
       <use xlink:href="#DejaVuSans-2e" x="63.623047"/>
       <use xlink:href="#DejaVuSans-30" x="95.410156"/>
      </g>
     </g>
    </g>
    <g id="xtick_2">
     <g id="line2d_2">
      <g>
       <use xlink:href="#mbcc5a3c38c" x="118.54145" y="307.584" style="stroke: #000000; stroke-width: 0.8"/>
      </g>
     </g>
     <g id="text_2">
      <!-- 0.5 -->
      <g transform="translate(110.589888 322.182437) scale(0.1 -0.1)">
       <defs>
        <path id="DejaVuSans-35" d="M 691 4666 
L 3169 4666 
L 3169 4134 
L 1269 4134 
L 1269 2991 
Q 1406 3038 1543 3061 
Q 1681 3084 1819 3084 
Q 2600 3084 3056 2656 
Q 3513 2228 3513 1497 
Q 3513 744 3044 326 
Q 2575 -91 1722 -91 
Q 1428 -91 1123 -41 
Q 819 9 494 109 
L 494 744 
Q 775 591 1075 516 
Q 1375 441 1709 441 
Q 2250 441 2565 725 
Q 2881 1009 2881 1497 
Q 2881 1984 2565 2268 
Q 2250 2553 1709 2553 
Q 1456 2553 1204 2497 
Q 953 2441 691 2322 
L 691 4666 
z
" transform="scale(0.015625)"/>
       </defs>
       <use xlink:href="#DejaVuSans-30"/>
       <use xlink:href="#DejaVuSans-2e" x="63.623047"/>
       <use xlink:href="#DejaVuSans-35" x="95.410156"/>
      </g>
     </g>
    </g>
    <g id="xtick_3">
     <g id="line2d_3">
      <g>
       <use xlink:href="#mbcc5a3c38c" x="165.499462" y="307.584" style="stroke: #000000; stroke-width: 0.8"/>
      </g>
     </g>
     <g id="text_3">
      <!-- 1.0 -->
      <g transform="translate(157.5479 322.182437) scale(0.1 -0.1)">
       <defs>
        <path id="DejaVuSans-31" d="M 794 531 
L 1825 531 
L 1825 4091 
L 703 3866 
L 703 4441 
L 1819 4666 
L 2450 4666 
L 2450 531 
L 3481 531 
L 3481 0 
L 794 0 
L 794 531 
z
" transform="scale(0.015625)"/>
       </defs>
       <use xlink:href="#DejaVuSans-31"/>
       <use xlink:href="#DejaVuSans-2e" x="63.623047"/>
       <use xlink:href="#DejaVuSans-30" x="95.410156"/>
      </g>
     </g>
    </g>
    <g id="xtick_4">
     <g id="line2d_4">
      <g>
       <use xlink:href="#mbcc5a3c38c" x="212.457474" y="307.584" style="stroke: #000000; stroke-width: 0.8"/>
      </g>
     </g>
     <g id="text_4">
      <!-- 1.5 -->
      <g transform="translate(204.505911 322.182437) scale(0.1 -0.1)">
       <use xlink:href="#DejaVuSans-31"/>
       <use xlink:href="#DejaVuSans-2e" x="63.623047"/>
       <use xlink:href="#DejaVuSans-35" x="95.410156"/>
      </g>
     </g>
    </g>
    <g id="xtick_5">
     <g id="line2d_5">
      <g>
       <use xlink:href="#mbcc5a3c38c" x="259.415486" y="307.584" style="stroke: #000000; stroke-width: 0.8"/>
      </g>
     </g>
     <g id="text_5">
      <!-- 2.0 -->
      <g transform="translate(251.463923 322.182437) scale(0.1 -0.1)">
       <defs>
        <path id="DejaVuSans-32" d="M 1228 531 
L 3431 531 
L 3431 0 
L 469 0 
L 469 531 
Q 828 903 1448 1529 
Q 2069 2156 2228 2338 
Q 2531 2678 2651 2914 
Q 2772 3150 2772 3378 
Q 2772 3750 2511 3984 
Q 2250 4219 1831 4219 
Q 1534 4219 1204 4116 
Q 875 4013 500 3803 
L 500 4441 
Q 881 4594 1212 4672 
Q 1544 4750 1819 4750 
Q 2544 4750 2975 4387 
Q 3406 4025 3406 3419 
Q 3406 3131 3298 2873 
Q 3191 2616 2906 2266 
Q 2828 2175 2409 1742 
Q 1991 1309 1228 531 
z
" transform="scale(0.015625)"/>
       </defs>
       <use xlink:href="#DejaVuSans-32"/>
       <use xlink:href="#DejaVuSans-2e" x="63.623047"/>
       <use xlink:href="#DejaVuSans-30" x="95.410156"/>
      </g>
     </g>
    </g>
    <g id="xtick_6">
     <g id="line2d_6">
      <g>
       <use xlink:href="#mbcc5a3c38c" x="306.373498" y="307.584" style="stroke: #000000; stroke-width: 0.8"/>
      </g>
     </g>
     <g id="text_6">
      <!-- 2.5 -->
      <g transform="translate(298.421935 322.182437) scale(0.1 -0.1)">
       <use xlink:href="#DejaVuSans-32"/>
       <use xlink:href="#DejaVuSans-2e" x="63.623047"/>
       <use xlink:href="#DejaVuSans-35" x="95.410156"/>
      </g>
     </g>
    </g>
    <g id="xtick_7">
     <g id="line2d_7">
      <g>
       <use xlink:href="#mbcc5a3c38c" x="353.331509" y="307.584" style="stroke: #000000; stroke-width: 0.8"/>
      </g>
     </g>
     <g id="text_7">
      <!-- 3.0 -->
      <g transform="translate(345.379947 322.182437) scale(0.1 -0.1)">
       <defs>
        <path id="DejaVuSans-33" d="M 2597 2516 
Q 3050 2419 3304 2112 
Q 3559 1806 3559 1356 
Q 3559 666 3084 287 
Q 2609 -91 1734 -91 
Q 1441 -91 1130 -33 
Q 819 25 488 141 
L 488 750 
Q 750 597 1062 519 
Q 1375 441 1716 441 
Q 2309 441 2620 675 
Q 2931 909 2931 1356 
Q 2931 1769 2642 2001 
Q 2353 2234 1838 2234 
L 1294 2234 
L 1294 2753 
L 1863 2753 
Q 2328 2753 2575 2939 
Q 2822 3125 2822 3475 
Q 2822 3834 2567 4026 
Q 2313 4219 1838 4219 
Q 1578 4219 1281 4162 
Q 984 4106 628 3988 
L 628 4550 
Q 988 4650 1302 4700 
Q 1616 4750 1894 4750 
Q 2613 4750 3031 4423 
Q 3450 4097 3450 3541 
Q 3450 3153 3228 2886 
Q 3006 2619 2597 2516 
z
" transform="scale(0.015625)"/>
       </defs>
       <use xlink:href="#DejaVuSans-33"/>
       <use xlink:href="#DejaVuSans-2e" x="63.623047"/>
       <use xlink:href="#DejaVuSans-30" x="95.410156"/>
      </g>
     </g>
    </g>
    <g id="xtick_8">
     <g id="line2d_8">
      <g>
       <use xlink:href="#mbcc5a3c38c" x="400.289521" y="307.584" style="stroke: #000000; stroke-width: 0.8"/>
      </g>
     </g>
     <g id="text_8">
      <!-- 3.5 -->
      <g transform="translate(392.337959 322.182437) scale(0.1 -0.1)">
       <use xlink:href="#DejaVuSans-33"/>
       <use xlink:href="#DejaVuSans-2e" x="63.623047"/>
       <use xlink:href="#DejaVuSans-35" x="95.410156"/>
      </g>
     </g>
    </g>
    <g id="text_9">
     <!-- 1e6 -->
     <g transform="translate(395.841875 334.860562) scale(0.1 -0.1)">
      <defs>
       <path id="DejaVuSans-65" d="M 3597 1894 
L 3597 1613 
L 953 1613 
Q 991 1019 1311 708 
Q 1631 397 2203 397 
Q 2534 397 2845 478 
Q 3156 559 3463 722 
L 3463 178 
Q 3153 47 2828 -22 
Q 2503 -91 2169 -91 
Q 1331 -91 842 396 
Q 353 884 353 1716 
Q 353 2575 817 3079 
Q 1281 3584 2069 3584 
Q 2775 3584 3186 3129 
Q 3597 2675 3597 1894 
z
M 3022 2063 
Q 3016 2534 2758 2815 
Q 2500 3097 2075 3097 
Q 1594 3097 1305 2825 
Q 1016 2553 972 2059 
L 3022 2063 
z
" transform="scale(0.015625)"/>
       <path id="DejaVuSans-36" d="M 2113 2584 
Q 1688 2584 1439 2293 
Q 1191 2003 1191 1497 
Q 1191 994 1439 701 
Q 1688 409 2113 409 
Q 2538 409 2786 701 
Q 3034 994 3034 1497 
Q 3034 2003 2786 2293 
Q 2538 2584 2113 2584 
z
M 3366 4563 
L 3366 3988 
Q 3128 4100 2886 4159 
Q 2644 4219 2406 4219 
Q 1781 4219 1451 3797 
Q 1122 3375 1075 2522 
Q 1259 2794 1537 2939 
Q 1816 3084 2150 3084 
Q 2853 3084 3261 2657 
Q 3669 2231 3669 1497 
Q 3669 778 3244 343 
Q 2819 -91 2113 -91 
Q 1303 -91 875 529 
Q 447 1150 447 2328 
Q 447 3434 972 4092 
Q 1497 4750 2381 4750 
Q 2619 4750 2861 4703 
Q 3103 4656 3366 4563 
z
" transform="scale(0.015625)"/>
      </defs>
      <use xlink:href="#DejaVuSans-31"/>
      <use xlink:href="#DejaVuSans-65" x="63.623047"/>
      <use xlink:href="#DejaVuSans-36" x="125.146484"/>
     </g>
    </g>
   </g>
   <g id="matplotlib.axis_2">
    <g id="ytick_1">
     <g id="line2d_9">
      <defs>
       <path id="md47a5e9c0e" d="M 0 0 
L -3.5 0 
" style="stroke: #000000; stroke-width: 0.8"/>
      </defs>
      <g>
       <use xlink:href="#md47a5e9c0e" x="57.6" y="295.488" style="stroke: #000000; stroke-width: 0.8"/>
      </g>
     </g>
     <g id="text_10">
      <!-- 0.0 -->
      <g transform="translate(34.696875 299.287219) scale(0.1 -0.1)">
       <use xlink:href="#DejaVuSans-30"/>
       <use xlink:href="#DejaVuSans-2e" x="63.623047"/>
       <use xlink:href="#DejaVuSans-30" x="95.410156"/>
      </g>
     </g>
    </g>
    <g id="ytick_2">
     <g id="line2d_10">
      <g>
       <use xlink:href="#md47a5e9c0e" x="57.6" y="265.248" style="stroke: #000000; stroke-width: 0.8"/>
      </g>
     </g>
     <g id="text_11">
      <!-- 2.5 -->
      <g transform="translate(34.696875 269.047219) scale(0.1 -0.1)">
       <use xlink:href="#DejaVuSans-32"/>
       <use xlink:href="#DejaVuSans-2e" x="63.623047"/>
       <use xlink:href="#DejaVuSans-35" x="95.410156"/>
      </g>
     </g>
    </g>
    <g id="ytick_3">
     <g id="line2d_11">
      <g>
       <use xlink:href="#md47a5e9c0e" x="57.6" y="235.008" style="stroke: #000000; stroke-width: 0.8"/>
      </g>
     </g>
     <g id="text_12">
      <!-- 5.0 -->
      <g transform="translate(34.696875 238.807219) scale(0.1 -0.1)">
       <use xlink:href="#DejaVuSans-35"/>
       <use xlink:href="#DejaVuSans-2e" x="63.623047"/>
       <use xlink:href="#DejaVuSans-30" x="95.410156"/>
      </g>
     </g>
    </g>
    <g id="ytick_4">
     <g id="line2d_12">
      <g>
       <use xlink:href="#md47a5e9c0e" x="57.6" y="204.768" style="stroke: #000000; stroke-width: 0.8"/>
      </g>
     </g>
     <g id="text_13">
      <!-- 7.5 -->
      <g transform="translate(34.696875 208.567219) scale(0.1 -0.1)">
       <defs>
        <path id="DejaVuSans-37" d="M 525 4666 
L 3525 4666 
L 3525 4397 
L 1831 0 
L 1172 0 
L 2766 4134 
L 525 4134 
L 525 4666 
z
" transform="scale(0.015625)"/>
       </defs>
       <use xlink:href="#DejaVuSans-37"/>
       <use xlink:href="#DejaVuSans-2e" x="63.623047"/>
       <use xlink:href="#DejaVuSans-35" x="95.410156"/>
      </g>
     </g>
    </g>
    <g id="ytick_5">
     <g id="line2d_13">
      <g>
       <use xlink:href="#md47a5e9c0e" x="57.6" y="174.528" style="stroke: #000000; stroke-width: 0.8"/>
      </g>
     </g>
     <g id="text_14">
      <!-- 10.0 -->
      <g transform="translate(28.334375 178.327219) scale(0.1 -0.1)">
       <use xlink:href="#DejaVuSans-31"/>
       <use xlink:href="#DejaVuSans-30" x="63.623047"/>
       <use xlink:href="#DejaVuSans-2e" x="127.246094"/>
       <use xlink:href="#DejaVuSans-30" x="159.033203"/>
      </g>
     </g>
    </g>
    <g id="ytick_6">
     <g id="line2d_14">
      <g>
       <use xlink:href="#md47a5e9c0e" x="57.6" y="144.288" style="stroke: #000000; stroke-width: 0.8"/>
      </g>
     </g>
     <g id="text_15">
      <!-- 12.5 -->
      <g transform="translate(28.334375 148.087219) scale(0.1 -0.1)">
       <use xlink:href="#DejaVuSans-31"/>
       <use xlink:href="#DejaVuSans-32" x="63.623047"/>
       <use xlink:href="#DejaVuSans-2e" x="127.246094"/>
       <use xlink:href="#DejaVuSans-35" x="159.033203"/>
      </g>
     </g>
    </g>
    <g id="ytick_7">
     <g id="line2d_15">
      <g>
       <use xlink:href="#md47a5e9c0e" x="57.6" y="114.048" style="stroke: #000000; stroke-width: 0.8"/>
      </g>
     </g>
     <g id="text_16">
      <!-- 15.0 -->
      <g transform="translate(28.334375 117.847219) scale(0.1 -0.1)">
       <use xlink:href="#DejaVuSans-31"/>
       <use xlink:href="#DejaVuSans-35" x="63.623047"/>
       <use xlink:href="#DejaVuSans-2e" x="127.246094"/>
       <use xlink:href="#DejaVuSans-30" x="159.033203"/>
      </g>
     </g>
    </g>
    <g id="ytick_8">
     <g id="line2d_16">
      <g>
       <use xlink:href="#md47a5e9c0e" x="57.6" y="83.808" style="stroke: #000000; stroke-width: 0.8"/>
      </g>
     </g>
     <g id="text_17">
      <!-- 17.5 -->
      <g transform="translate(28.334375 87.607219) scale(0.1 -0.1)">
       <use xlink:href="#DejaVuSans-31"/>
       <use xlink:href="#DejaVuSans-37" x="63.623047"/>
       <use xlink:href="#DejaVuSans-2e" x="127.246094"/>
       <use xlink:href="#DejaVuSans-35" x="159.033203"/>
      </g>
     </g>
    </g>
    <g id="ytick_9">
     <g id="line2d_17">
      <g>
       <use xlink:href="#md47a5e9c0e" x="57.6" y="53.568" style="stroke: #000000; stroke-width: 0.8"/>
      </g>
     </g>
     <g id="text_18">
      <!-- 20.0 -->
      <g transform="translate(28.334375 57.367219) scale(0.1 -0.1)">
       <use xlink:href="#DejaVuSans-32"/>
       <use xlink:href="#DejaVuSans-30" x="63.623047"/>
       <use xlink:href="#DejaVuSans-2e" x="127.246094"/>
       <use xlink:href="#DejaVuSans-30" x="159.033203"/>
      </g>
     </g>
    </g>
   </g>
   <g id="line2d_18">
    <path d="M 73.832727 283.392 
L 74.044038 295.488 
L 74.160494 283.392 
L 74.371805 295.488 
L 74.487322 283.392 
L 74.698633 295.488 
L 74.815089 283.392 
L 75.0264 295.488 
L 75.14943 283.392 
L 75.360741 295.488 
L 75.477197 283.392 
L 75.688508 295.488 
L 75.803085 283.392 
L 76.014397 295.488 
L 76.129913 283.392 
L 76.341224 295.488 
L 76.463315 283.392 
L 76.674626 295.488 
L 76.794839 283.392 
L 77.00615 295.488 
L 77.123545 283.392 
L 77.334856 295.488 
L 77.45319 283.392 
L 77.664501 295.488 
L 77.784714 283.392 
L 77.996025 295.488 
L 78.117176 283.392 
L 78.328487 295.488 
L 78.450578 283.392 
L 78.661889 295.488 
L 78.773649 283.392 
L 78.98496 295.488 
L 84.809632 283.392 
L 85.06884 198.72 
L 85.079171 210.816 
L 85.107346 222.912 
L 85.356223 210.816 
L 85.579744 222.912 
L 85.607918 235.008 
L 85.677416 222.912 
L 86.006122 210.816 
L 86.181745 222.912 
L 86.208981 235.008 
L 86.330133 222.912 
L 86.661656 210.816 
L 86.754633 235.008 
L 86.988484 222.912 
L 87.210126 235.008 
L 87.2383 247.104 
L 87.31719 235.008 
L 87.650592 222.912 
L 87.78677 247.104 
L 87.973663 235.008 
L 88.302369 235.008 
L 88.330544 247.104 
L 88.626379 235.008 
L 88.902492 247.104 
L 88.930667 259.2 
L 88.955085 247.104 
L 89.292244 235.008 
L 89.422787 259.2 
L 89.620011 247.104 
L 89.888611 259.2 
L 89.915846 271.296 
L 89.951534 259.2 
L 90.28118 247.104 
L 90.427689 271.296 
L 90.608947 259.2 
L 90.931079 247.104 
L 91.035325 271.296 
L 91.260724 259.2 
L 91.482366 271.296 
L 91.51054 283.392 
L 91.591308 271.296 
L 91.916258 259.2 
L 92.056192 283.392 
L 92.240268 271.296 
L 92.568974 259.2 
L 92.621567 283.392 
L 92.89768 271.296 
L 93.106174 283.392 
L 93.231082 271.296 
L 93.409522 283.392 
L 93.55791 271.296 
L 93.679061 283.392 
L 93.889433 271.296 
L 94.068813 283.392 
L 94.215322 271.296 
L 94.223774 283.392 
L 94.426633 295.488 
L 94.548724 283.392 
L 94.760035 295.488 
L 94.872734 283.392 
L 95.084045 295.488 
L 95.206136 283.392 
L 95.417447 295.488 
L 95.541416 283.392 
L 95.798746 295.488 
L 95.864487 283.392 
L 96.075798 295.488 
L 96.192254 283.392 
L 96.403565 295.488 
L 96.525656 283.392 
L 96.736967 295.488 
L 96.862815 283.392 
L 97.074126 295.488 
L 97.191521 283.392 
L 97.402832 295.488 
L 97.522105 283.392 
L 97.733416 295.488 
L 97.846115 283.392 
L 98.057426 295.488 
L 98.174821 283.392 
L 98.386132 295.488 
L 98.497893 283.392 
L 98.709204 295.488 
L 98.828477 283.392 
L 99.039788 295.488 
L 99.160001 283.392 
L 99.371312 295.488 
L 99.488707 283.392 
L 99.700018 295.488 
L 99.817413 283.392 
L 100.028724 295.488 
L 100.471068 283.392 
L 100.682379 295.488 
L 100.80447 283.392 
L 101.015781 295.488 
L 101.13975 283.392 
L 101.351061 295.488 
L 101.463761 283.392 
L 101.675072 295.488 
L 101.796223 283.392 
L 102.007534 295.488 
L 102.127747 283.392 
L 102.339058 295.488 
L 102.46021 283.392 
L 102.671521 295.488 
L 102.789855 283.392 
L 103.001166 295.488 
L 103.118561 283.392 
L 103.329872 295.488 
L 103.448206 283.392 
L 103.659517 295.488 
L 103.776912 283.392 
L 103.988223 295.488 
L 104.104679 283.392 
L 104.31599 295.488 
L 104.430568 283.392 
L 104.641879 295.488 
L 104.762091 283.392 
L 104.973402 295.488 
L 105.095493 283.392 
L 105.306804 295.488 
L 105.421382 283.392 
L 105.632693 295.488 
L 105.743514 283.392 
L 105.954825 295.488 
L 106.076916 283.392 
L 106.288227 295.488 
L 106.405622 283.392 
L 106.616933 295.488 
L 106.728693 283.392 
L 106.940004 295.488 
L 107.055521 283.392 
L 107.266832 295.488 
L 107.382348 283.392 
L 107.593659 295.488 
L 107.70542 283.392 
L 107.916731 295.488 
L 108.035065 283.392 
L 108.246376 295.488 
L 108.359075 283.392 
L 108.570386 295.488 
L 108.682146 283.392 
L 108.893457 295.488 
L 109.007096 283.392 
L 109.218407 295.488 
L 109.33768 283.392 
L 109.548991 295.488 
L 109.665447 283.392 
L 109.876758 295.488 
L 109.991336 283.392 
L 110.202647 295.488 
L 110.318163 283.392 
L 110.529474 295.488 
L 110.643113 283.392 
L 110.854424 295.488 
L 110.973697 283.392 
L 111.185008 295.488 
L 111.631109 283.392 
L 111.84242 295.488 
L 113.484072 283.392 
L 113.695384 295.488 
L 113.717923 283.392 
L 113.929234 295.488 
L 113.952713 283.392 
L 114.164024 295.488 
L 114.189382 283.392 
L 114.400693 295.488 
L 114.427928 283.392 
L 114.63924 295.488 
L 114.659901 283.392 
L 114.871212 295.488 
L 114.892813 283.392 
L 115.104124 295.488 
L 115.132299 283.392 
L 115.34361 295.488 
L 115.370845 283.392 
L 115.582156 295.488 
L 115.6 283.392 
L 115.811312 295.488 
L 115.832912 283.392 
L 116.044223 295.488 
L 116.064885 283.392 
L 116.276196 295.488 
L 116.304371 283.392 
L 116.515682 295.488 
L 116.532587 283.392 
L 116.743898 295.488 
L 128.034482 283.392 
L 128.245793 295.488 
L 128.273029 283.392 
L 128.48434 295.488 
L 128.50688 283.392 
L 128.718191 295.488 
L 128.745426 283.392 
L 128.956737 295.488 
L 128.983034 283.392 
L 129.194345 295.488 
L 129.217824 283.392 
L 129.429135 295.488 
L 129.596305 162.432 
L 129.672377 114.048 
L 129.709944 150.336 
L 129.883688 138.24 
L 129.911863 114.048 
L 130.255596 101.952 
L 130.302554 114.048 
L 131.040734 101.952 
L 131.086753 114.048 
L 131.731956 101.952 
L 131.778914 114.048 
L 132.493615 114.048 
L 132.534938 101.952 
L 132.536816 114.048 
L 133.274996 101.952 
L 133.319137 114.048 
L 134.035716 101.952 
L 134.079856 114.048 
L 134.756052 101.952 
L 134.799253 114.048 
L 135.575 101.952 
L 135.61914 114.048 
L 136.366712 101.952 
L 136.410852 114.048 
L 137.147154 101.952 
L 137.191294 114.048 
L 137.881577 101.952 
L 137.924778 114.048 
L 138.637601 101.952 
L 138.681742 114.048 
L 139.379538 101.952 
L 139.423678 114.048 
L 140.064185 101.952 
L 140.107387 114.048 
L 140.826784 101.952 
L 140.869985 126.144 
L 140.873742 114.048 
L 141.573416 101.952 
L 141.615678 126.144 
L 141.702081 114.048 
L 142.293752 101.952 
L 142.336953 138.24 
L 142.401755 126.144 
L 142.638424 114.048 
L 143.119274 101.952 
L 143.163414 138.24 
L 143.587915 114.048 
L 143.890324 126.144 
L 143.893142 114.048 
L 143.932586 150.336 
L 144.055616 138.24 
L 144.527075 114.048 
L 144.698002 126.144 
L 144.740264 162.432 
L 144.763743 150.336 
L 145.230506 126.144 
L 145.425851 138.24 
L 145.467174 162.432 
L 146.174362 126.144 
L 146.264521 162.432 
L 146.278609 174.528 
L 146.404456 162.432 
L 146.882489 138.24 
L 147.007397 150.336 
L 147.049659 186.624 
L 147.115401 174.528 
L 147.583102 150.336 
L 147.751212 162.432 
L 147.793474 198.72 
L 147.818832 186.624 
L 148.282777 162.432 
L 148.474365 174.528 
L 148.517567 210.816 
L 148.519445 198.72 
L 148.993721 174.528 
L 149.228511 174.528 
L 149.269834 210.816 
L 149.931003 174.528 
L 150.023041 210.816 
L 150.037128 222.912 
L 150.40434 198.72 
L 150.638191 186.624 
L 150.770612 198.72 
L 150.811935 235.008 
L 150.870163 222.912 
L 151.346317 198.72 
L 151.453382 222.912 
L 151.481556 247.104 
L 151.579229 235.008 
L 152.054444 210.816 
L 152.173718 235.008 
L 152.201892 259.2 
L 152.894993 271.296 
L 152.927863 295.488 
L 163.693457 283.392 
L 163.932004 101.952 
L 163.951726 114.048 
L 164.66361 101.952 
L 164.706811 126.144 
L 164.753769 114.048 
L 165.458139 101.952 
L 165.500401 126.144 
L 165.704199 114.048 
L 166.210406 101.952 
L 166.253608 138.24 
L 166.405752 126.144 
L 166.853731 114.048 
L 167.01151 126.144 
L 167.015267 114.048 
L 167.053772 150.336 
L 167.102609 138.24 
L 167.565615 114.048 
L 167.852059 126.144 
L 167.855815 114.048 
L 167.894321 150.336 
L 168.279376 126.144 
L 168.515106 114.048 
L 168.608083 138.24 
L 168.635318 162.432 
L 168.750835 150.336 
L 169.218537 126.144 
L 169.384768 138.24 
L 169.426091 174.528 
L 169.453327 162.432 
L 169.921029 138.24 
L 170.134218 150.336 
L 170.17648 174.528 
L 170.850797 138.24 
L 170.944713 162.432 
L 170.971949 186.624 
L 171.089344 174.528 
L 171.553289 150.336 
L 171.713885 162.432 
L 171.756148 198.72 
L 171.792775 186.624 
L 172.262355 162.432 
L 172.486814 174.528 
L 172.495267 162.432 
L 172.530016 198.72 
L 173.200576 162.432 
L 173.28604 198.72 
L 173.300127 210.816 
L 173.663582 186.624 
L 173.899311 174.528 
L 173.996984 210.816 
L 174.011071 222.912 
L 174.37077 198.72 
L 174.607438 186.624 
L 174.769913 198.72 
L 174.810297 235.008 
L 174.835654 222.912 
L 175.534389 186.624 
L 175.590739 235.008 
L 175.993639 210.816 
L 176.221855 198.72 
L 176.355215 222.912 
L 176.38339 247.104 
L 176.459462 235.008 
L 176.927164 210.816 
L 177.117813 222.912 
L 177.160076 259.2 
L 177.162893 247.104 
L 177.869142 210.816 
L 177.963997 235.008 
L 177.992172 259.2 
L 178.104871 247.104 
L 178.568816 222.912 
L 178.714386 235.008 
L 178.756648 271.296 
L 178.801728 259.2 
L 179.26943 235.008 
L 179.407486 247.104 
L 179.453505 283.392 
L 179.500463 271.296 
L 179.969104 247.104 
L 180.100586 271.296 
L 180.11937 283.392 
L 180.202955 271.296 
L 180.395483 283.392 
L 180.438684 271.296 
L 180.668778 259.2 
L 180.857549 271.296 
L 180.891359 295.488 
L 180.898873 283.392 
L 181.133663 271.296 
L 181.32619 283.392 
L 181.375027 271.296 
L 181.598547 283.392 
L 181.60606 271.296 
L 181.61733 283.392 
L 181.817371 295.488 
L 181.841789 283.392 
L 182.0531 295.488 
L 182.072823 283.392 
L 182.307613 271.296 
L 182.518924 295.488 
L 182.540525 283.392 
L 182.751836 295.488 
L 182.779071 283.392 
L 183.016679 271.296 
L 183.20545 283.392 
L 183.22799 295.488 
L 183.25053 283.392 
L 183.461841 295.488 
L 183.486259 283.392 
L 183.69757 295.488 
L 183.719171 283.392 
L 183.930482 295.488 
L 183.953961 283.392 
L 184.165272 295.488 
L 184.188751 283.392 
L 184.400062 295.488 
L 184.426358 283.392 
L 184.637669 295.488 
L 184.665844 283.392 
L 184.877155 295.488 
L 184.900634 283.392 
L 185.111945 295.488 
L 185.136364 283.392 
L 185.347675 295.488 
L 185.369275 283.392 
L 185.580586 295.488 
L 185.605004 283.392 
L 185.816316 295.488 
L 185.838855 283.392 
L 186.050166 295.488 
L 202.729652 283.392 
L 202.880857 271.296 
L 203.068689 138.24 
L 203.107195 162.432 
L 203.163544 210.816 
L 203.310992 186.624 
L 203.339167 174.528 
L 203.893272 162.432 
L 203.943047 198.72 
L 204.639904 186.624 
L 204.68968 210.816 
L 205.361179 198.72 
L 205.40532 210.816 
L 205.563099 198.72 
L 205.580004 210.816 
L 206.057097 198.72 
L 206.101237 210.816 
L 206.607445 198.72 
L 206.651585 210.816 
L 207.121165 198.72 
L 207.165306 210.816 
L 207.604833 198.72 
L 207.649913 210.816 
L 208.076291 198.72 
L 208.12231 210.816 
L 208.617248 198.72 
L 208.663267 210.816 
L 209.181683 198.72 
L 209.227702 210.816 
L 209.730153 198.72 
L 209.775232 210.816 
L 210.301162 198.72 
L 210.346242 210.816 
L 210.839301 198.72 
L 210.883441 210.816 
L 211.386831 198.72 
L 211.430972 210.816 
L 211.911822 198.72 
L 211.955962 210.816 
L 212.456535 198.72 
L 212.501614 210.816 
L 213.003126 198.72 
L 213.039753 222.912 
L 213.081076 210.816 
L 213.520603 198.72 
L 213.55817 222.912 
L 213.737549 210.816 
L 214.090674 198.72 
L 214.12824 222.912 
L 214.395901 210.816 
L 214.685162 222.912 
L 214.713337 235.008 
L 214.721789 222.912 
L 215.055191 210.816 
L 215.250536 222.912 
L 215.278711 235.008 
L 215.391411 222.912 
L 215.719177 210.816 
L 215.85066 235.008 
L 216.05164 222.912 
L 216.327753 235.008 
L 216.355928 247.104 
L 216.374711 235.008 
L 216.695904 222.912 
L 216.852744 235.008 
L 216.880919 247.104 
L 217.02461 235.008 
L 217.356134 222.912 
L 217.470711 247.104 
L 217.678266 235.008 
L 217.958135 247.104 
L 217.98631 259.2 
L 218.006972 247.104 
L 218.342252 235.008 
L 218.521632 247.104 
L 218.549806 259.2 
L 218.670019 247.104 
L 218.979942 259.2 
L 219.002482 247.104 
L 219.008117 259.2 
L 219.330249 247.104 
L 219.492723 271.296 
L 219.654259 259.2 
L 219.975452 247.104 
L 220.051524 271.296 
L 220.294766 259.2 
L 220.573697 271.296 
L 220.601872 283.392 
L 220.625351 271.296 
L 220.949361 259.2 
L 221.098687 271.296 
L 221.127801 283.392 
L 221.273371 271.296 
L 221.600199 259.2 
L 221.778639 283.392 
L 221.933601 271.296 
L 222.245402 283.392 
L 222.264185 271.296 
L 222.442626 283.392 
L 222.588195 271.296 
L 222.80702 283.392 
L 222.916902 271.296 
L 223.095342 283.392 
L 223.248425 271.296 
L 223.371455 283.392 
L 223.577131 271.296 
L 223.90302 295.488 
L 223.903959 283.392 
L 224.232665 271.296 
L 224.443976 295.488 
L 224.559493 283.392 
L 224.770804 295.488 
L 224.888199 283.392 
L 225.09951 295.488 
L 225.220662 283.392 
L 225.431973 295.488 
L 232.115976 283.392 
L 232.327287 295.488 
L 259.504706 283.392 
L 259.716017 295.488 
L 259.983678 198.72 
L 259.993069 210.816 
L 260.281392 198.72 
L 260.318958 222.912 
L 260.457014 210.816 
L 260.814835 198.72 
L 260.852401 222.912 
L 261.11067 210.816 
L 261.35673 222.912 
L 261.384905 235.008 
L 261.443133 222.912 
L 261.780291 210.816 
L 261.877025 235.008 
L 262.435825 210.816 
L 262.470574 235.008 
L 262.76547 222.912 
L 262.945789 235.008 
L 262.973964 247.104 
L 263.089481 235.008 
L 263.446362 247.104 
L 263.474536 259.2 
L 263.960082 271.296 
L 263.988257 283.392 
L 264.515126 295.488 
L 269.050331 283.392 
L 269.261642 295.488 
L 269.382793 283.392 
L 269.594104 295.488 
L 270.347311 283.392 
L 270.501333 271.296 
L 270.684469 89.856 
L 270.735184 126.144 
L 270.790595 186.624 
L 270.84037 162.432 
L 271.392596 126.144 
L 271.579489 138.24 
L 271.582307 126.144 
L 271.613299 162.432 
L 272.146742 126.144 
L 272.313912 138.24 
L 272.347722 162.432 
L 273.086841 114.048 
L 273.128164 162.432 
L 273.654094 126.144 
L 273.783698 150.336 
L 273.806238 174.528 
L 273.844744 162.432 
L 274.410118 126.144 
L 274.54254 138.24 
L 274.576349 174.528 
L 274.59795 162.432 
L 275.164264 126.144 
L 275.281659 150.336 
L 275.304199 174.528 
L 275.355852 162.432 
L 275.91747 126.144 
L 276.079945 138.24 
L 276.113755 162.432 
L 276.670677 126.144 
L 276.813429 138.24 
L 276.848178 174.528 
L 276.853813 162.432 
L 277.604202 114.048 
L 277.638951 162.432 
L 278.167698 126.144 
L 278.324538 138.24 
L 278.358348 162.432 
L 279.092771 114.048 
L 279.174478 150.336 
L 279.185748 162.432 
L 279.281542 150.336 
L 279.846917 114.048 
L 279.939894 138.24 
L 279.961494 162.432 
L 280.03381 150.336 
L 280.594488 114.048 
L 280.653655 162.432 
L 280.972031 138.24 
L 281.163619 126.144 
L 281.332668 138.24 
L 281.366478 162.432 
L 281.925278 126.144 
L 282.04643 150.336 
L 282.06897 174.528 
L 282.115928 162.432 
L 282.674728 126.144 
L 282.827811 138.24 
L 282.861621 174.528 
L 282.863499 162.432 
L 283.4223 126.144 
L 283.561295 138.24 
L 283.595105 174.528 
L 283.610132 162.432 
L 284.179263 126.144 
L 284.29384 150.336 
L 284.31638 174.528 
L 284.370852 162.432 
L 284.932469 126.144 
L 285.02169 150.336 
L 285.044229 174.528 
L 285.121241 162.432 
L 285.680041 126.144 
L 285.773957 150.336 
L 285.796497 174.528 
L 285.87069 162.432 
L 286.250111 138.24 
L 286.55346 150.336 
L 286.58727 186.624 
L 286.628593 174.528 
L 287.193028 138.24 
L 287.303849 162.432 
L 287.326389 186.624 
L 287.378982 174.528 
L 288.043907 186.624 
L 288.078656 222.912 
L 288.853463 235.008 
L 288.887273 271.296 
L 289.576617 283.392 
L 289.592582 295.488 
L 293.29663 283.392 
L 293.548325 65.664 
L 293.564291 89.856 
L 293.769028 77.76 
L 294.133422 65.664 
L 294.386056 77.76 
L 294.4039 65.664 
L 294.419866 89.856 
L 294.523174 77.76 
L 294.880055 65.664 
L 295.147715 77.76 
L 295.165559 65.664 
L 295.181525 89.856 
L 295.273563 77.76 
L 295.631383 65.664 
L 295.86993 77.76 
L 295.887774 65.664 
L 295.903739 89.856 
L 296.023952 77.76 
L 296.385528 65.664 
L 296.568665 77.76 
L 296.575239 65.664 
L 296.590265 89.856 
L 296.601535 89.856 
L 296.779976 77.76 
L 297.137796 65.664 
L 297.366012 77.76 
L 297.384795 65.664 
L 297.399822 89.856 
L 297.527547 77.76 
L 297.877854 65.664 
L 298.167115 77.76 
L 298.185899 65.664 
L 298.200925 89.856 
L 298.273241 77.76 
L 298.638574 65.664 
L 298.894965 77.76 
L 298.913748 65.664 
L 298.928774 89.856 
L 299.037717 77.76 
L 299.39178 65.664 
L 299.698886 77.76 
L 299.71673 65.664 
L 299.732696 89.856 
L 299.788106 77.76 
L 300.144987 65.664 
L 300.450214 77.76 
L 300.467119 65.664 
L 300.484024 89.856 
L 300.53286 77.76 
L 300.889741 65.664 
L 301.160219 77.76 
L 301.177124 65.664 
L 301.19309 89.856 
L 301.28231 77.76 
L 301.642947 65.664 
L 301.873981 77.76 
L 301.890886 65.664 
L 301.907791 89.856 
L 302.040212 77.76 
L 302.402728 65.664 
L 302.608404 65.664 
L 302.642214 89.856 
L 302.798115 77.76 
L 303.153117 65.664 
L 303.307139 77.76 
L 303.312774 65.664 
L 303.340949 101.952 
L 303.356915 89.856 
L 303.542869 77.76 
L 303.908202 65.664 
L 304.120452 77.76 
L 304.137357 65.664 
L 304.154262 89.856 
L 304.490481 65.664 
L 304.844545 77.76 
L 304.849241 65.664 
L 304.866145 89.856 
L 304.877415 89.856 
L 305.055856 77.76 
L 305.418372 65.664 
L 305.584603 77.76 
L 305.590238 65.664 
L 305.617474 101.952 
L 305.623109 89.856 
L 305.812819 77.76 
L 306.171578 65.664 
L 306.288034 89.856 
L 306.299304 101.952 
L 306.373498 89.856 
L 306.557573 77.76 
L 306.918211 65.664 
L 307.051571 77.76 
L 307.057206 65.664 
L 307.085381 101.952 
L 307.119191 89.856 
L 307.31078 77.76 
L 307.670478 65.664 
L 307.785995 77.76 
L 307.79163 65.664 
L 307.818865 101.952 
L 307.878971 89.856 
L 308.067743 77.76 
L 308.433076 65.664 
L 308.571133 77.76 
L 308.577707 65.664 
L 308.604942 101.952 
L 308.64063 89.856 
L 308.826584 77.76 
L 309.185343 65.664 
L 309.319643 77.76 
L 309.327157 65.664 
L 309.353453 101.952 
L 309.391019 89.856 
L 309.579791 77.76 
L 309.943246 65.664 
L 310.092572 77.76 
L 310.099146 65.664 
L 310.125443 101.952 
L 310.149861 89.856 
L 310.335815 77.76 
L 310.696452 65.664 
L 310.849535 77.76 
L 310.857049 65.664 
L 310.883345 101.952 
L 310.903067 89.856 
L 311.093717 77.76 
L 311.44778 65.664 
L 311.565175 77.76 
L 311.571749 65.664 
L 311.598985 101.952 
L 311.653456 89.856 
L 311.845984 77.76 
L 312.207561 65.664 
L 312.325895 77.76 
L 312.333408 65.664 
L 312.360644 101.952 
L 312.408541 89.856 
L 312.594495 77.76 
L 312.953254 65.664 
L 313.068771 89.856 
L 313.080041 101.952 
L 313.153295 89.856 
L 313.343945 77.76 
L 313.702704 65.664 
L 313.827612 89.856 
L 313.838882 101.952 
L 313.906502 89.856 
L 314.091516 77.76 
L 314.449336 65.664 
L 314.5348 101.952 
L 314.655013 89.856 
L 314.842845 77.76 
L 315.192212 65.664 
L 315.229779 101.952 
L 315.588538 77.76 
L 315.951054 65.664 
L 315.994255 101.952 
L 316.343623 77.76 
L 316.708017 65.664 
L 316.790663 101.952 
L 316.912754 89.856 
L 317.099647 77.76 
L 317.463102 65.664 
L 317.501607 101.952 
L 317.858488 77.76 
L 318.186255 65.664 
L 318.224761 114.048 
L 318.234152 101.952 
L 318.9188 65.664 
L 318.956366 114.048 
L 318.99675 101.952 
L 319.615657 65.664 
L 319.653223 114.048 
L 319.938728 89.856 
L 320.36135 65.664 
L 320.398917 114.048 
L 320.689117 89.856 
L 321.125827 65.664 
L 321.163393 114.048 
L 321.865885 126.144 
L 321.899695 162.432 
L 322.537384 174.528 
L 322.570255 210.816 
L 323.312192 222.912 
L 323.346001 259.2 
L 324.09733 271.296 
L 324.124565 295.488 
L 332.331887 283.392 
L 332.481213 271.296 
L 332.676558 77.76 
L 332.727273 126.144 
L 332.771414 174.528 
L 332.8982 150.336 
L 332.978968 65.664 
L 333.515228 53.568 
L 333.549977 65.664 
L 334.215842 53.568 
L 334.25153 65.664 
L 334.991588 53.568 
L 335.02352 77.76 
L 335.025398 65.664 
L 335.714742 77.76 
L 335.749491 65.664 
L 336.528054 77.76 
L 336.563743 65.664 
L 337.247451 77.76 
L 337.258721 65.664 
L 337.280322 89.856 
L 338.041042 77.76 
L 338.079547 114.048 
L 338.873138 126.144 
L 338.878773 114.048 
L 338.895677 138.24 
L 338.906947 138.24 
L 339.621648 150.336 
L 339.655458 174.528 
L 340.292209 162.432 
L 340.326958 198.72 
L 341.07359 210.816 
L 341.08486 198.72 
L 341.101765 210.816 
L 341.816466 198.72 
L 341.861545 210.816 
L 342.040925 198.72 
L 342.056891 210.816 
L 342.496418 198.72 
L 342.540558 210.816 
L 342.910587 198.72 
L 342.954728 210.816 
L 343.089028 198.72 
L 343.133168 210.816 
L 343.57927 198.72 
L 343.62341 210.816 
L 344.069511 198.72 
L 344.113652 210.816 
L 344.535335 198.72 
L 344.580414 210.816 
L 345.065021 198.72 
L 345.102587 222.912 
L 345.106344 210.816 
L 345.507365 198.72 
L 345.543993 222.912 
L 345.750608 210.816 
L 346.058653 222.912 
L 346.074618 210.816 
L 346.086827 222.912 
L 346.401446 210.816 
L 346.62027 222.912 
L 346.648445 235.008 
L 346.726395 222.912 
L 347.056041 210.816 
L 347.139626 235.008 
L 347.379112 222.912 
L 347.653347 235.008 
L 347.681521 247.104 
L 347.711575 235.008 
L 348.031828 222.912 
L 348.195242 247.104 
L 348.359595 235.008 
L 348.679849 222.912 
L 348.708963 247.104 
L 349.009494 235.008 
L 349.232075 247.104 
L 349.26025 259.2 
L 349.339139 247.104 
L 349.668784 235.008 
L 349.788058 259.2 
L 349.995612 247.104 
L 350.260455 259.2 
L 350.28863 271.296 
L 350.320562 259.2 
L 350.654903 247.104 
L 350.788263 271.296 
L 351.281323 283.392 
L 351.315132 271.296 
L 351.493573 283.392 
L 351.649473 271.296 
L 351.824157 283.392 
L 351.980997 271.296 
L 352.265563 295.488 
L 352.305946 283.392 
L 352.6262 271.296 
L 352.800884 283.392 
L 352.837511 295.488 
L 352.948332 283.392 
L 353.278916 271.296 
L 353.298639 283.392 
L 353.490227 295.488 
L 353.604805 283.392 
L 353.832082 295.488 
L 353.93445 283.392 
L 354.145761 295.488 
L 354.256582 283.392 
L 354.467893 295.488 
L 354.585288 283.392 
L 354.796599 295.488 
L 354.917751 283.392 
L 355.129062 295.488 
L 355.250214 283.392 
L 355.461525 295.488 
L 355.577981 283.392 
L 355.789292 295.488 
L 356.233515 283.392 
L 356.444826 295.488 
L 356.56316 283.392 
L 356.774471 295.488 
L 356.891866 283.392 
L 357.103177 295.488 
L 357.213059 283.392 
L 357.42437 295.488 
L 357.541765 283.392 
L 357.753076 295.488 
L 357.862018 283.392 
L 358.073329 295.488 
L 358.18509 283.392 
L 358.396401 295.488 
L 358.508161 283.392 
L 358.719472 295.488 
L 358.843441 283.392 
L 359.054752 295.488 
L 359.50367 283.392 
L 359.714982 295.488 
L 359.831437 283.392 
L 360.042748 295.488 
L 360.162022 283.392 
L 360.373333 295.488 
L 360.495424 283.392 
L 360.706735 295.488 
L 360.827886 283.392 
L 361.039197 295.488 
L 361.152836 283.392 
L 361.364147 295.488 
L 361.48342 283.392 
L 361.694731 295.488 
L 361.806491 283.392 
L 362.017802 295.488 
L 362.133319 283.392 
L 362.34463 295.488 
L 362.458269 283.392 
L 362.66958 295.488 
L 362.790731 283.392 
L 363.002042 295.488 
L 363.118498 283.392 
L 363.329809 295.488 
L 363.4519 283.392 
L 363.663211 295.488 
L 363.780606 283.392 
L 363.991917 295.488 
L 364.105556 283.392 
L 364.316867 295.488 
L 364.435201 283.392 
L 364.646512 295.488 
L 364.762968 283.392 
L 364.974279 295.488 
L 365.090735 283.392 
L 365.302046 295.488 
L 365.413806 283.392 
L 365.625117 295.488 
L 365.743451 283.392 
L 365.954762 295.488 
L 366.078731 283.392 
L 366.290042 295.488 
L 366.410255 283.392 
L 366.621566 295.488 
L 366.737083 283.392 
L 366.948394 295.488 
L 367.065789 283.392 
L 367.2771 295.488 
L 367.396373 283.392 
L 367.607684 295.488 
L 367.723201 283.392 
L 367.934512 295.488 
L 368.388126 283.392 
L 368.599437 295.488 
L 368.724346 283.392 
L 368.935657 295.488 
L 369.053052 283.392 
L 369.264363 295.488 
L 369.384575 283.392 
L 369.595886 295.488 
L 369.707646 283.392 
L 369.918957 295.488 
L 370.033535 283.392 
L 370.244846 295.488 
L 370.364119 283.392 
L 370.575431 295.488 
L 370.690008 283.392 
L 370.901319 295.488 
L 371.011201 283.392 
L 371.222512 295.488 
L 371.342724 283.392 
L 371.554035 295.488 
L 371.670491 283.392 
L 371.881802 295.488 
L 371.998258 283.392 
L 372.209569 295.488 
L 372.326025 283.392 
L 372.537336 295.488 
L 373.445504 283.392 
L 373.656815 295.488 
L 373.682173 283.392 
L 373.893484 295.488 
L 373.916963 283.392 
L 374.128274 295.488 
L 374.148935 283.392 
L 374.360246 295.488 
L 374.384664 283.392 
L 374.595975 295.488 
L 374.623211 283.392 
L 374.834522 295.488 
L 374.861758 283.392 
L 375.073069 295.488 
L 375.095609 283.392 
L 375.30692 295.488 
L 375.332277 283.392 
L 375.543588 295.488 
L 375.568006 283.392 
L 375.779317 295.488 
L 375.804675 283.392 
L 376.015986 295.488 
L 376.03383 283.392 
L 376.245141 295.488 
L 376.269559 283.392 
L 376.48087 295.488 
L 376.502471 283.392 
L 376.713782 295.488 
L 376.733504 283.392 
L 376.944815 295.488 
L 376.968294 283.392 
L 377.179605 295.488 
L 377.200267 283.392 
L 377.411578 295.488 
L 377.435057 283.392 
L 377.646368 295.488 
L 377.669847 283.392 
L 377.881158 295.488 
L 377.898063 283.392 
L 378.109374 295.488 
L 378.13567 283.392 
L 378.346981 295.488 
L 378.374217 283.392 
L 378.585528 295.488 
L 378.611825 283.392 
L 378.823136 295.488 
L 378.848493 283.392 
L 379.059804 295.488 
L 379.085161 283.392 
L 379.296472 295.488 
L 379.313377 283.392 
L 379.524688 295.488 
L 379.549107 283.392 
L 379.760418 295.488 
L 379.782957 283.392 
L 379.994269 295.488 
L 380.019626 283.392 
L 380.230937 295.488 
L 380.253477 283.392 
L 380.464788 295.488 
L 380.488267 283.392 
L 380.699578 295.488 
L 380.725874 283.392 
L 380.937185 295.488 
L 380.958786 283.392 
L 381.170097 295.488 
L 381.195454 283.392 
L 381.406766 295.488 
L 381.432123 283.392 
L 381.643434 295.488 
L 381.662217 283.392 
L 381.873528 295.488 
L 381.899825 283.392 
L 382.111136 295.488 
L 382.135554 283.392 
L 382.346865 295.488 
L 382.368466 283.392 
L 382.579777 295.488 
L 382.599499 283.392 
L 382.81081 295.488 
L 382.838985 283.392 
L 383.050296 295.488 
L 383.070957 283.392 
L 383.282269 295.488 
L 383.30293 283.392 
L 383.514241 295.488 
L 383.53772 283.392 
L 383.749031 295.488 
L 384.001665 283.392 
L 384.212976 295.488 
L 384.236455 283.392 
L 384.447766 295.488 
L 384.472185 283.392 
L 384.683496 295.488 
L 384.704157 283.392 
L 384.915468 295.488 
L 384.938947 283.392 
L 385.150258 295.488 
L 385.176555 283.392 
L 385.387866 295.488 
L 385.412284 283.392 
L 385.623595 295.488 
L 385.649891 283.392 
L 385.861203 295.488 
L 385.888438 283.392 
L 386.099749 295.488 
L 386.126046 283.392 
L 386.337357 295.488 
L 386.35614 283.392 
L 386.567451 295.488 
L 386.589052 283.392 
L 386.800363 295.488 
L 386.821963 283.392 
L 387.033274 295.488 
L 387.055814 283.392 
L 387.267125 295.488 
L 387.290604 283.392 
L 387.501915 295.488 
L 387.523516 283.392 
L 387.734827 295.488 
L 387.75455 283.392 
L 387.965861 295.488 
L 387.985583 283.392 
L 388.196894 295.488 
L 388.225069 283.392 
L 388.43638 295.488 
L 388.455163 283.392 
L 388.666474 295.488 
L 388.686197 283.392 
L 388.897508 295.488 
L 388.924743 283.392 
L 389.136054 295.488 
L 389.153898 283.392 
L 389.365209 295.488 
L 389.391506 283.392 
L 389.602817 295.488 
L 389.622539 283.392 
L 389.83385 295.488 
L 389.852634 283.392 
L 390.063945 295.488 
L 390.09118 283.392 
L 390.302491 295.488 
L 390.32597 283.392 
L 390.537281 295.488 
L 390.564517 283.392 
L 390.775828 295.488 
L 390.793672 283.392 
L 391.004983 295.488 
L 391.026584 283.392 
L 391.237895 295.488 
L 391.257617 283.392 
L 391.468928 295.488 
L 391.492407 283.392 
L 391.703718 295.488 
L 391.730954 283.392 
L 391.942265 295.488 
L 391.966683 283.392 
L 392.177994 295.488 
L 392.196777 283.392 
L 392.408089 295.488 
L 392.433446 283.392 
L 392.644757 295.488 
L 392.662601 283.392 
L 392.873912 295.488 
L 392.893634 283.392 
L 393.104945 295.488 
L 393.13312 283.392 
L 393.344431 295.488 
L 393.365093 283.392 
L 393.576404 295.488 
L 393.596126 283.392 
L 393.807437 295.488 
L 393.829977 283.392 
L 394.041288 295.488 
L 394.060071 283.392 
L 394.271382 295.488 
L 394.292044 283.392 
L 394.503355 295.488 
L 394.524017 283.392 
L 394.735328 295.488 
L 394.751293 283.392 
L 394.962604 295.488 
L 394.986083 283.392 
L 395.197394 295.488 
L 395.218056 283.392 
L 395.429367 295.488 
L 395.455663 283.392 
L 395.666975 295.488 
L 395.691393 283.392 
L 395.902704 295.488 
L 395.924304 283.392 
L 396.135615 295.488 
L 396.154399 283.392 
L 396.36571 295.488 
L 396.393885 283.392 
L 396.605196 295.488 
L 396.628675 283.392 
L 396.839986 295.488 
L 396.864404 283.392 
L 397.075715 295.488 
L 397.10389 283.392 
L 397.315201 295.488 
L 397.339619 283.392 
L 397.55093 295.488 
L 397.575348 283.392 
L 397.786659 295.488 
L 397.811077 283.392 
L 398.022388 295.488 
L 398.047746 283.392 
L 398.259057 295.488 
L 398.275962 283.392 
L 398.487273 295.488 
L 398.487273 295.488 
" clip-path="url(#pd2c34f3ff0)" style="fill: none; stroke: #1f77b4; stroke-width: 1.5; stroke-linecap: square"/>
   </g>
   <g id="patch_3">
    <path d="M 57.6 307.584 
L 57.6 41.472 
" style="fill: none; stroke: #000000; stroke-width: 0.8; stroke-linejoin: miter; stroke-linecap: square"/>
   </g>
   <g id="patch_4">
    <path d="M 414.72 307.584 
L 414.72 41.472 
" style="fill: none; stroke: #000000; stroke-width: 0.8; stroke-linejoin: miter; stroke-linecap: square"/>
   </g>
   <g id="patch_5">
    <path d="M 57.6 307.584 
L 414.72 307.584 
" style="fill: none; stroke: #000000; stroke-width: 0.8; stroke-linejoin: miter; stroke-linecap: square"/>
   </g>
   <g id="patch_6">
    <path d="M 57.6 41.472 
L 414.72 41.472 
" style="fill: none; stroke: #000000; stroke-width: 0.8; stroke-linejoin: miter; stroke-linecap: square"/>
   </g>
   <g id="text_19">
    <!-- Queue size (y-axis) between S5 and sensors that follow at a time (x-axis). -->
    <g transform="translate(14.282813 35.472) scale(0.12 -0.12)">
     <defs>
      <path id="DejaVuSans-51" d="M 2522 4238 
Q 1834 4238 1429 3725 
Q 1025 3213 1025 2328 
Q 1025 1447 1429 934 
Q 1834 422 2522 422 
Q 3209 422 3611 934 
Q 4013 1447 4013 2328 
Q 4013 3213 3611 3725 
Q 3209 4238 2522 4238 
z
M 3406 84 
L 4238 -825 
L 3475 -825 
L 2784 -78 
Q 2681 -84 2626 -87 
Q 2572 -91 2522 -91 
Q 1538 -91 948 567 
Q 359 1225 359 2328 
Q 359 3434 948 4092 
Q 1538 4750 2522 4750 
Q 3503 4750 4090 4092 
Q 4678 3434 4678 2328 
Q 4678 1516 4351 937 
Q 4025 359 3406 84 
z
" transform="scale(0.015625)"/>
      <path id="DejaVuSans-75" d="M 544 1381 
L 544 3500 
L 1119 3500 
L 1119 1403 
Q 1119 906 1312 657 
Q 1506 409 1894 409 
Q 2359 409 2629 706 
Q 2900 1003 2900 1516 
L 2900 3500 
L 3475 3500 
L 3475 0 
L 2900 0 
L 2900 538 
Q 2691 219 2414 64 
Q 2138 -91 1772 -91 
Q 1169 -91 856 284 
Q 544 659 544 1381 
z
M 1991 3584 
L 1991 3584 
z
" transform="scale(0.015625)"/>
      <path id="DejaVuSans-20" transform="scale(0.015625)"/>
      <path id="DejaVuSans-73" d="M 2834 3397 
L 2834 2853 
Q 2591 2978 2328 3040 
Q 2066 3103 1784 3103 
Q 1356 3103 1142 2972 
Q 928 2841 928 2578 
Q 928 2378 1081 2264 
Q 1234 2150 1697 2047 
L 1894 2003 
Q 2506 1872 2764 1633 
Q 3022 1394 3022 966 
Q 3022 478 2636 193 
Q 2250 -91 1575 -91 
Q 1294 -91 989 -36 
Q 684 19 347 128 
L 347 722 
Q 666 556 975 473 
Q 1284 391 1588 391 
Q 1994 391 2212 530 
Q 2431 669 2431 922 
Q 2431 1156 2273 1281 
Q 2116 1406 1581 1522 
L 1381 1569 
Q 847 1681 609 1914 
Q 372 2147 372 2553 
Q 372 3047 722 3315 
Q 1072 3584 1716 3584 
Q 2034 3584 2315 3537 
Q 2597 3491 2834 3397 
z
" transform="scale(0.015625)"/>
      <path id="DejaVuSans-69" d="M 603 3500 
L 1178 3500 
L 1178 0 
L 603 0 
L 603 3500 
z
M 603 4863 
L 1178 4863 
L 1178 4134 
L 603 4134 
L 603 4863 
z
" transform="scale(0.015625)"/>
      <path id="DejaVuSans-7a" d="M 353 3500 
L 3084 3500 
L 3084 2975 
L 922 459 
L 3084 459 
L 3084 0 
L 275 0 
L 275 525 
L 2438 3041 
L 353 3041 
L 353 3500 
z
" transform="scale(0.015625)"/>
      <path id="DejaVuSans-28" d="M 1984 4856 
Q 1566 4138 1362 3434 
Q 1159 2731 1159 2009 
Q 1159 1288 1364 580 
Q 1569 -128 1984 -844 
L 1484 -844 
Q 1016 -109 783 600 
Q 550 1309 550 2009 
Q 550 2706 781 3412 
Q 1013 4119 1484 4856 
L 1984 4856 
z
" transform="scale(0.015625)"/>
      <path id="DejaVuSans-79" d="M 2059 -325 
Q 1816 -950 1584 -1140 
Q 1353 -1331 966 -1331 
L 506 -1331 
L 506 -850 
L 844 -850 
Q 1081 -850 1212 -737 
Q 1344 -625 1503 -206 
L 1606 56 
L 191 3500 
L 800 3500 
L 1894 763 
L 2988 3500 
L 3597 3500 
L 2059 -325 
z
" transform="scale(0.015625)"/>
      <path id="DejaVuSans-2d" d="M 313 2009 
L 1997 2009 
L 1997 1497 
L 313 1497 
L 313 2009 
z
" transform="scale(0.015625)"/>
      <path id="DejaVuSans-61" d="M 2194 1759 
Q 1497 1759 1228 1600 
Q 959 1441 959 1056 
Q 959 750 1161 570 
Q 1363 391 1709 391 
Q 2188 391 2477 730 
Q 2766 1069 2766 1631 
L 2766 1759 
L 2194 1759 
z
M 3341 1997 
L 3341 0 
L 2766 0 
L 2766 531 
Q 2569 213 2275 61 
Q 1981 -91 1556 -91 
Q 1019 -91 701 211 
Q 384 513 384 1019 
Q 384 1609 779 1909 
Q 1175 2209 1959 2209 
L 2766 2209 
L 2766 2266 
Q 2766 2663 2505 2880 
Q 2244 3097 1772 3097 
Q 1472 3097 1187 3025 
Q 903 2953 641 2809 
L 641 3341 
Q 956 3463 1253 3523 
Q 1550 3584 1831 3584 
Q 2591 3584 2966 3190 
Q 3341 2797 3341 1997 
z
" transform="scale(0.015625)"/>
      <path id="DejaVuSans-78" d="M 3513 3500 
L 2247 1797 
L 3578 0 
L 2900 0 
L 1881 1375 
L 863 0 
L 184 0 
L 1544 1831 
L 300 3500 
L 978 3500 
L 1906 2253 
L 2834 3500 
L 3513 3500 
z
" transform="scale(0.015625)"/>
      <path id="DejaVuSans-29" d="M 513 4856 
L 1013 4856 
Q 1481 4119 1714 3412 
Q 1947 2706 1947 2009 
Q 1947 1309 1714 600 
Q 1481 -109 1013 -844 
L 513 -844 
Q 928 -128 1133 580 
Q 1338 1288 1338 2009 
Q 1338 2731 1133 3434 
Q 928 4138 513 4856 
z
" transform="scale(0.015625)"/>
      <path id="DejaVuSans-62" d="M 3116 1747 
Q 3116 2381 2855 2742 
Q 2594 3103 2138 3103 
Q 1681 3103 1420 2742 
Q 1159 2381 1159 1747 
Q 1159 1113 1420 752 
Q 1681 391 2138 391 
Q 2594 391 2855 752 
Q 3116 1113 3116 1747 
z
M 1159 2969 
Q 1341 3281 1617 3432 
Q 1894 3584 2278 3584 
Q 2916 3584 3314 3078 
Q 3713 2572 3713 1747 
Q 3713 922 3314 415 
Q 2916 -91 2278 -91 
Q 1894 -91 1617 61 
Q 1341 213 1159 525 
L 1159 0 
L 581 0 
L 581 4863 
L 1159 4863 
L 1159 2969 
z
" transform="scale(0.015625)"/>
      <path id="DejaVuSans-74" d="M 1172 4494 
L 1172 3500 
L 2356 3500 
L 2356 3053 
L 1172 3053 
L 1172 1153 
Q 1172 725 1289 603 
Q 1406 481 1766 481 
L 2356 481 
L 2356 0 
L 1766 0 
Q 1100 0 847 248 
Q 594 497 594 1153 
L 594 3053 
L 172 3053 
L 172 3500 
L 594 3500 
L 594 4494 
L 1172 4494 
z
" transform="scale(0.015625)"/>
      <path id="DejaVuSans-77" d="M 269 3500 
L 844 3500 
L 1563 769 
L 2278 3500 
L 2956 3500 
L 3675 769 
L 4391 3500 
L 4966 3500 
L 4050 0 
L 3372 0 
L 2619 2869 
L 1863 0 
L 1184 0 
L 269 3500 
z
" transform="scale(0.015625)"/>
      <path id="DejaVuSans-6e" d="M 3513 2113 
L 3513 0 
L 2938 0 
L 2938 2094 
Q 2938 2591 2744 2837 
Q 2550 3084 2163 3084 
Q 1697 3084 1428 2787 
Q 1159 2491 1159 1978 
L 1159 0 
L 581 0 
L 581 3500 
L 1159 3500 
L 1159 2956 
Q 1366 3272 1645 3428 
Q 1925 3584 2291 3584 
Q 2894 3584 3203 3211 
Q 3513 2838 3513 2113 
z
" transform="scale(0.015625)"/>
      <path id="DejaVuSans-53" d="M 3425 4513 
L 3425 3897 
Q 3066 4069 2747 4153 
Q 2428 4238 2131 4238 
Q 1616 4238 1336 4038 
Q 1056 3838 1056 3469 
Q 1056 3159 1242 3001 
Q 1428 2844 1947 2747 
L 2328 2669 
Q 3034 2534 3370 2195 
Q 3706 1856 3706 1288 
Q 3706 609 3251 259 
Q 2797 -91 1919 -91 
Q 1588 -91 1214 -16 
Q 841 59 441 206 
L 441 856 
Q 825 641 1194 531 
Q 1563 422 1919 422 
Q 2459 422 2753 634 
Q 3047 847 3047 1241 
Q 3047 1584 2836 1778 
Q 2625 1972 2144 2069 
L 1759 2144 
Q 1053 2284 737 2584 
Q 422 2884 422 3419 
Q 422 4038 858 4394 
Q 1294 4750 2059 4750 
Q 2388 4750 2728 4690 
Q 3069 4631 3425 4513 
z
" transform="scale(0.015625)"/>
      <path id="DejaVuSans-64" d="M 2906 2969 
L 2906 4863 
L 3481 4863 
L 3481 0 
L 2906 0 
L 2906 525 
Q 2725 213 2448 61 
Q 2172 -91 1784 -91 
Q 1150 -91 751 415 
Q 353 922 353 1747 
Q 353 2572 751 3078 
Q 1150 3584 1784 3584 
Q 2172 3584 2448 3432 
Q 2725 3281 2906 2969 
z
M 947 1747 
Q 947 1113 1208 752 
Q 1469 391 1925 391 
Q 2381 391 2643 752 
Q 2906 1113 2906 1747 
Q 2906 2381 2643 2742 
Q 2381 3103 1925 3103 
Q 1469 3103 1208 2742 
Q 947 2381 947 1747 
z
" transform="scale(0.015625)"/>
      <path id="DejaVuSans-6f" d="M 1959 3097 
Q 1497 3097 1228 2736 
Q 959 2375 959 1747 
Q 959 1119 1226 758 
Q 1494 397 1959 397 
Q 2419 397 2687 759 
Q 2956 1122 2956 1747 
Q 2956 2369 2687 2733 
Q 2419 3097 1959 3097 
z
M 1959 3584 
Q 2709 3584 3137 3096 
Q 3566 2609 3566 1747 
Q 3566 888 3137 398 
Q 2709 -91 1959 -91 
Q 1206 -91 779 398 
Q 353 888 353 1747 
Q 353 2609 779 3096 
Q 1206 3584 1959 3584 
z
" transform="scale(0.015625)"/>
      <path id="DejaVuSans-72" d="M 2631 2963 
Q 2534 3019 2420 3045 
Q 2306 3072 2169 3072 
Q 1681 3072 1420 2755 
Q 1159 2438 1159 1844 
L 1159 0 
L 581 0 
L 581 3500 
L 1159 3500 
L 1159 2956 
Q 1341 3275 1631 3429 
Q 1922 3584 2338 3584 
Q 2397 3584 2469 3576 
Q 2541 3569 2628 3553 
L 2631 2963 
z
" transform="scale(0.015625)"/>
      <path id="DejaVuSans-68" d="M 3513 2113 
L 3513 0 
L 2938 0 
L 2938 2094 
Q 2938 2591 2744 2837 
Q 2550 3084 2163 3084 
Q 1697 3084 1428 2787 
Q 1159 2491 1159 1978 
L 1159 0 
L 581 0 
L 581 4863 
L 1159 4863 
L 1159 2956 
Q 1366 3272 1645 3428 
Q 1925 3584 2291 3584 
Q 2894 3584 3203 3211 
Q 3513 2838 3513 2113 
z
" transform="scale(0.015625)"/>
      <path id="DejaVuSans-66" d="M 2375 4863 
L 2375 4384 
L 1825 4384 
Q 1516 4384 1395 4259 
Q 1275 4134 1275 3809 
L 1275 3500 
L 2222 3500 
L 2222 3053 
L 1275 3053 
L 1275 0 
L 697 0 
L 697 3053 
L 147 3053 
L 147 3500 
L 697 3500 
L 697 3744 
Q 697 4328 969 4595 
Q 1241 4863 1831 4863 
L 2375 4863 
z
" transform="scale(0.015625)"/>
      <path id="DejaVuSans-6c" d="M 603 4863 
L 1178 4863 
L 1178 0 
L 603 0 
L 603 4863 
z
" transform="scale(0.015625)"/>
      <path id="DejaVuSans-6d" d="M 3328 2828 
Q 3544 3216 3844 3400 
Q 4144 3584 4550 3584 
Q 5097 3584 5394 3201 
Q 5691 2819 5691 2113 
L 5691 0 
L 5113 0 
L 5113 2094 
Q 5113 2597 4934 2840 
Q 4756 3084 4391 3084 
Q 3944 3084 3684 2787 
Q 3425 2491 3425 1978 
L 3425 0 
L 2847 0 
L 2847 2094 
Q 2847 2600 2669 2842 
Q 2491 3084 2119 3084 
Q 1678 3084 1418 2786 
Q 1159 2488 1159 1978 
L 1159 0 
L 581 0 
L 581 3500 
L 1159 3500 
L 1159 2956 
Q 1356 3278 1631 3431 
Q 1906 3584 2284 3584 
Q 2666 3584 2933 3390 
Q 3200 3197 3328 2828 
z
" transform="scale(0.015625)"/>
     </defs>
     <use xlink:href="#DejaVuSans-51"/>
     <use xlink:href="#DejaVuSans-75" x="78.710938"/>
     <use xlink:href="#DejaVuSans-65" x="142.089844"/>
     <use xlink:href="#DejaVuSans-75" x="203.613281"/>
     <use xlink:href="#DejaVuSans-65" x="266.992188"/>
     <use xlink:href="#DejaVuSans-20" x="328.515625"/>
     <use xlink:href="#DejaVuSans-73" x="360.302734"/>
     <use xlink:href="#DejaVuSans-69" x="412.402344"/>
     <use xlink:href="#DejaVuSans-7a" x="440.185547"/>
     <use xlink:href="#DejaVuSans-65" x="492.675781"/>
     <use xlink:href="#DejaVuSans-20" x="554.199219"/>
     <use xlink:href="#DejaVuSans-28" x="585.986328"/>
     <use xlink:href="#DejaVuSans-79" x="625"/>
     <use xlink:href="#DejaVuSans-2d" x="682.429688"/>
     <use xlink:href="#DejaVuSans-61" x="718.513672"/>
     <use xlink:href="#DejaVuSans-78" x="779.792969"/>
     <use xlink:href="#DejaVuSans-69" x="838.972656"/>
     <use xlink:href="#DejaVuSans-73" x="866.755859"/>
     <use xlink:href="#DejaVuSans-29" x="918.855469"/>
     <use xlink:href="#DejaVuSans-20" x="957.869141"/>
     <use xlink:href="#DejaVuSans-62" x="989.65625"/>
     <use xlink:href="#DejaVuSans-65" x="1053.132812"/>
     <use xlink:href="#DejaVuSans-74" x="1114.65625"/>
     <use xlink:href="#DejaVuSans-77" x="1153.865234"/>
     <use xlink:href="#DejaVuSans-65" x="1235.652344"/>
     <use xlink:href="#DejaVuSans-65" x="1297.175781"/>
     <use xlink:href="#DejaVuSans-6e" x="1358.699219"/>
     <use xlink:href="#DejaVuSans-20" x="1422.078125"/>
     <use xlink:href="#DejaVuSans-53" x="1453.865234"/>
     <use xlink:href="#DejaVuSans-35" x="1517.341797"/>
     <use xlink:href="#DejaVuSans-20" x="1580.964844"/>
     <use xlink:href="#DejaVuSans-61" x="1612.751953"/>
     <use xlink:href="#DejaVuSans-6e" x="1674.03125"/>
     <use xlink:href="#DejaVuSans-64" x="1737.410156"/>
     <use xlink:href="#DejaVuSans-20" x="1800.886719"/>
     <use xlink:href="#DejaVuSans-73" x="1832.673828"/>
     <use xlink:href="#DejaVuSans-65" x="1884.773438"/>
     <use xlink:href="#DejaVuSans-6e" x="1946.296875"/>
     <use xlink:href="#DejaVuSans-73" x="2009.675781"/>
     <use xlink:href="#DejaVuSans-6f" x="2061.775391"/>
     <use xlink:href="#DejaVuSans-72" x="2122.957031"/>
     <use xlink:href="#DejaVuSans-73" x="2164.070312"/>
     <use xlink:href="#DejaVuSans-20" x="2216.169922"/>
     <use xlink:href="#DejaVuSans-74" x="2247.957031"/>
     <use xlink:href="#DejaVuSans-68" x="2287.166016"/>
     <use xlink:href="#DejaVuSans-61" x="2350.544922"/>
     <use xlink:href="#DejaVuSans-74" x="2411.824219"/>
     <use xlink:href="#DejaVuSans-20" x="2451.033203"/>
     <use xlink:href="#DejaVuSans-66" x="2482.820312"/>
     <use xlink:href="#DejaVuSans-6f" x="2518.025391"/>
     <use xlink:href="#DejaVuSans-6c" x="2579.207031"/>
     <use xlink:href="#DejaVuSans-6c" x="2606.990234"/>
     <use xlink:href="#DejaVuSans-6f" x="2634.773438"/>
     <use xlink:href="#DejaVuSans-77" x="2695.955078"/>
     <use xlink:href="#DejaVuSans-20" x="2777.742188"/>
     <use xlink:href="#DejaVuSans-61" x="2809.529297"/>
     <use xlink:href="#DejaVuSans-74" x="2870.808594"/>
     <use xlink:href="#DejaVuSans-20" x="2910.017578"/>
     <use xlink:href="#DejaVuSans-61" x="2941.804688"/>
     <use xlink:href="#DejaVuSans-20" x="3003.083984"/>
     <use xlink:href="#DejaVuSans-74" x="3034.871094"/>
     <use xlink:href="#DejaVuSans-69" x="3074.080078"/>
     <use xlink:href="#DejaVuSans-6d" x="3101.863281"/>
     <use xlink:href="#DejaVuSans-65" x="3199.275391"/>
     <use xlink:href="#DejaVuSans-20" x="3260.798828"/>
     <use xlink:href="#DejaVuSans-28" x="3292.585938"/>
     <use xlink:href="#DejaVuSans-78" x="3331.599609"/>
     <use xlink:href="#DejaVuSans-2d" x="3390.779297"/>
     <use xlink:href="#DejaVuSans-61" x="3426.863281"/>
     <use xlink:href="#DejaVuSans-78" x="3488.142578"/>
     <use xlink:href="#DejaVuSans-69" x="3547.322266"/>
     <use xlink:href="#DejaVuSans-73" x="3575.105469"/>
     <use xlink:href="#DejaVuSans-29" x="3627.205078"/>
     <use xlink:href="#DejaVuSans-2e" x="3666.21875"/>
    </g>
   </g>
  </g>
 </g>
 <defs>
  <clipPath id="pd2c34f3ff0">
   <rect x="57.6" y="41.472" width="357.12" height="266.112"/>
  </clipPath>
 </defs>
</svg>
