<?xml version="1.0" encoding="utf-8" standalone="no"?>
<!DOCTYPE svg PUBLIC "-//W3C//DTD SVG 1.1//EN"
  "http://www.w3.org/Graphics/SVG/1.1/DTD/svg11.dtd">
<svg xmlns:xlink="http://www.w3.org/1999/xlink" width="460.8pt" height="345.6pt" viewBox="0 0 460.8 345.6" xmlns="http://www.w3.org/2000/svg" version="1.1">
 <metadata>
  <rdf:RDF xmlns:dc="http://purl.org/dc/elements/1.1/" xmlns:cc="http://creativecommons.org/ns#" xmlns:rdf="http://www.w3.org/1999/02/22-rdf-syntax-ns#">
   <cc:Work>
    <dc:type rdf:resource="http://purl.org/dc/dcmitype/StillImage"/>
    <dc:date>2024-03-08T13:40:02.159952</dc:date>
    <dc:format>image/svg+xml</dc:format>
    <dc:creator>
     <cc:Agent>
      <dc:title>Matplotlib v3.8.2, https://matplotlib.org/</dc:title>
     </cc:Agent>
    </dc:creator>
   </cc:Work>
  </rdf:RDF>
 </metadata>
 <defs>
  <style type="text/css">*{stroke-linejoin: round; stroke-linecap: butt}</style>
 </defs>
 <g id="figure_1">
  <g id="patch_1">
   <path d="M 0 345.6 
L 460.8 345.6 
L 460.8 0 
L 0 0 
z
" style="fill: #ffffff"/>
  </g>
  <g id="axes_1">
   <g id="patch_2">
    <path d="M 57.6 307.584 
L 414.72 307.584 
L 414.72 41.472 
L 57.6 41.472 
z
" style="fill: #ffffff"/>
   </g>
   <g id="matplotlib.axis_1">
    <g id="xtick_1">
     <g id="line2d_1">
      <defs>
       <path id="meef9751c38" d="M 0 0 
L 0 3.5 
" style="stroke: #000000; stroke-width: 0.8"/>
      </defs>
      <g>
       <use xlink:href="#meef9751c38" x="73.832727" y="307.584" style="stroke: #000000; stroke-width: 0.8"/>
      </g>
     </g>
     <g id="text_1">
      <!-- 0.0 -->
      <g transform="translate(65.881165 322.182437) scale(0.1 -0.1)">
       <defs>
        <path id="DejaVuSans-30" d="M 2034 4250 
Q 1547 4250 1301 3770 
Q 1056 3291 1056 2328 
Q 1056 1369 1301 889 
Q 1547 409 2034 409 
Q 2525 409 2770 889 
Q 3016 1369 3016 2328 
Q 3016 3291 2770 3770 
Q 2525 4250 2034 4250 
z
M 2034 4750 
Q 2819 4750 3233 4129 
Q 3647 3509 3647 2328 
Q 3647 1150 3233 529 
Q 2819 -91 2034 -91 
Q 1250 -91 836 529 
Q 422 1150 422 2328 
Q 422 3509 836 4129 
Q 1250 4750 2034 4750 
z
" transform="scale(0.015625)"/>
        <path id="DejaVuSans-2e" d="M 684 794 
L 1344 794 
L 1344 0 
L 684 0 
L 684 794 
z
" transform="scale(0.015625)"/>
       </defs>
       <use xlink:href="#DejaVuSans-30"/>
       <use xlink:href="#DejaVuSans-2e" x="63.623047"/>
       <use xlink:href="#DejaVuSans-30" x="95.410156"/>
      </g>
     </g>
    </g>
    <g id="xtick_2">
     <g id="line2d_2">
      <g>
       <use xlink:href="#meef9751c38" x="127.698524" y="307.584" style="stroke: #000000; stroke-width: 0.8"/>
      </g>
     </g>
     <g id="text_2">
      <!-- 0.2 -->
      <g transform="translate(119.746962 322.182437) scale(0.1 -0.1)">
       <defs>
        <path id="DejaVuSans-32" d="M 1228 531 
L 3431 531 
L 3431 0 
L 469 0 
L 469 531 
Q 828 903 1448 1529 
Q 2069 2156 2228 2338 
Q 2531 2678 2651 2914 
Q 2772 3150 2772 3378 
Q 2772 3750 2511 3984 
Q 2250 4219 1831 4219 
Q 1534 4219 1204 4116 
Q 875 4013 500 3803 
L 500 4441 
Q 881 4594 1212 4672 
Q 1544 4750 1819 4750 
Q 2544 4750 2975 4387 
Q 3406 4025 3406 3419 
Q 3406 3131 3298 2873 
Q 3191 2616 2906 2266 
Q 2828 2175 2409 1742 
Q 1991 1309 1228 531 
z
" transform="scale(0.015625)"/>
       </defs>
       <use xlink:href="#DejaVuSans-30"/>
       <use xlink:href="#DejaVuSans-2e" x="63.623047"/>
       <use xlink:href="#DejaVuSans-32" x="95.410156"/>
      </g>
     </g>
    </g>
    <g id="xtick_3">
     <g id="line2d_3">
      <g>
       <use xlink:href="#meef9751c38" x="181.564321" y="307.584" style="stroke: #000000; stroke-width: 0.8"/>
      </g>
     </g>
     <g id="text_3">
      <!-- 0.4 -->
      <g transform="translate(173.612759 322.182437) scale(0.1 -0.1)">
       <defs>
        <path id="DejaVuSans-34" d="M 2419 4116 
L 825 1625 
L 2419 1625 
L 2419 4116 
z
M 2253 4666 
L 3047 4666 
L 3047 1625 
L 3713 1625 
L 3713 1100 
L 3047 1100 
L 3047 0 
L 2419 0 
L 2419 1100 
L 313 1100 
L 313 1709 
L 2253 4666 
z
" transform="scale(0.015625)"/>
       </defs>
       <use xlink:href="#DejaVuSans-30"/>
       <use xlink:href="#DejaVuSans-2e" x="63.623047"/>
       <use xlink:href="#DejaVuSans-34" x="95.410156"/>
      </g>
     </g>
    </g>
    <g id="xtick_4">
     <g id="line2d_4">
      <g>
       <use xlink:href="#meef9751c38" x="235.430118" y="307.584" style="stroke: #000000; stroke-width: 0.8"/>
      </g>
     </g>
     <g id="text_4">
      <!-- 0.6 -->
      <g transform="translate(227.478556 322.182437) scale(0.1 -0.1)">
       <defs>
        <path id="DejaVuSans-36" d="M 2113 2584 
Q 1688 2584 1439 2293 
Q 1191 2003 1191 1497 
Q 1191 994 1439 701 
Q 1688 409 2113 409 
Q 2538 409 2786 701 
Q 3034 994 3034 1497 
Q 3034 2003 2786 2293 
Q 2538 2584 2113 2584 
z
M 3366 4563 
L 3366 3988 
Q 3128 4100 2886 4159 
Q 2644 4219 2406 4219 
Q 1781 4219 1451 3797 
Q 1122 3375 1075 2522 
Q 1259 2794 1537 2939 
Q 1816 3084 2150 3084 
Q 2853 3084 3261 2657 
Q 3669 2231 3669 1497 
Q 3669 778 3244 343 
Q 2819 -91 2113 -91 
Q 1303 -91 875 529 
Q 447 1150 447 2328 
Q 447 3434 972 4092 
Q 1497 4750 2381 4750 
Q 2619 4750 2861 4703 
Q 3103 4656 3366 4563 
z
" transform="scale(0.015625)"/>
       </defs>
       <use xlink:href="#DejaVuSans-30"/>
       <use xlink:href="#DejaVuSans-2e" x="63.623047"/>
       <use xlink:href="#DejaVuSans-36" x="95.410156"/>
      </g>
     </g>
    </g>
    <g id="xtick_5">
     <g id="line2d_5">
      <g>
       <use xlink:href="#meef9751c38" x="289.295916" y="307.584" style="stroke: #000000; stroke-width: 0.8"/>
      </g>
     </g>
     <g id="text_5">
      <!-- 0.8 -->
      <g transform="translate(281.344353 322.182437) scale(0.1 -0.1)">
       <defs>
        <path id="DejaVuSans-38" d="M 2034 2216 
Q 1584 2216 1326 1975 
Q 1069 1734 1069 1313 
Q 1069 891 1326 650 
Q 1584 409 2034 409 
Q 2484 409 2743 651 
Q 3003 894 3003 1313 
Q 3003 1734 2745 1975 
Q 2488 2216 2034 2216 
z
M 1403 2484 
Q 997 2584 770 2862 
Q 544 3141 544 3541 
Q 544 4100 942 4425 
Q 1341 4750 2034 4750 
Q 2731 4750 3128 4425 
Q 3525 4100 3525 3541 
Q 3525 3141 3298 2862 
Q 3072 2584 2669 2484 
Q 3125 2378 3379 2068 
Q 3634 1759 3634 1313 
Q 3634 634 3220 271 
Q 2806 -91 2034 -91 
Q 1263 -91 848 271 
Q 434 634 434 1313 
Q 434 1759 690 2068 
Q 947 2378 1403 2484 
z
M 1172 3481 
Q 1172 3119 1398 2916 
Q 1625 2713 2034 2713 
Q 2441 2713 2670 2916 
Q 2900 3119 2900 3481 
Q 2900 3844 2670 4047 
Q 2441 4250 2034 4250 
Q 1625 4250 1398 4047 
Q 1172 3844 1172 3481 
z
" transform="scale(0.015625)"/>
       </defs>
       <use xlink:href="#DejaVuSans-30"/>
       <use xlink:href="#DejaVuSans-2e" x="63.623047"/>
       <use xlink:href="#DejaVuSans-38" x="95.410156"/>
      </g>
     </g>
    </g>
    <g id="xtick_6">
     <g id="line2d_6">
      <g>
       <use xlink:href="#meef9751c38" x="343.161713" y="307.584" style="stroke: #000000; stroke-width: 0.8"/>
      </g>
     </g>
     <g id="text_6">
      <!-- 1.0 -->
      <g transform="translate(335.21015 322.182437) scale(0.1 -0.1)">
       <defs>
        <path id="DejaVuSans-31" d="M 794 531 
L 1825 531 
L 1825 4091 
L 703 3866 
L 703 4441 
L 1819 4666 
L 2450 4666 
L 2450 531 
L 3481 531 
L 3481 0 
L 794 0 
L 794 531 
z
" transform="scale(0.015625)"/>
       </defs>
       <use xlink:href="#DejaVuSans-31"/>
       <use xlink:href="#DejaVuSans-2e" x="63.623047"/>
       <use xlink:href="#DejaVuSans-30" x="95.410156"/>
      </g>
     </g>
    </g>
    <g id="xtick_7">
     <g id="line2d_7">
      <g>
       <use xlink:href="#meef9751c38" x="397.02751" y="307.584" style="stroke: #000000; stroke-width: 0.8"/>
      </g>
     </g>
     <g id="text_7">
      <!-- 1.2 -->
      <g transform="translate(389.075947 322.182437) scale(0.1 -0.1)">
       <use xlink:href="#DejaVuSans-31"/>
       <use xlink:href="#DejaVuSans-2e" x="63.623047"/>
       <use xlink:href="#DejaVuSans-32" x="95.410156"/>
      </g>
     </g>
    </g>
    <g id="text_8">
     <!-- 1e6 -->
     <g transform="translate(395.841875 334.860562) scale(0.1 -0.1)">
      <defs>
       <path id="DejaVuSans-65" d="M 3597 1894 
L 3597 1613 
L 953 1613 
Q 991 1019 1311 708 
Q 1631 397 2203 397 
Q 2534 397 2845 478 
Q 3156 559 3463 722 
L 3463 178 
Q 3153 47 2828 -22 
Q 2503 -91 2169 -91 
Q 1331 -91 842 396 
Q 353 884 353 1716 
Q 353 2575 817 3079 
Q 1281 3584 2069 3584 
Q 2775 3584 3186 3129 
Q 3597 2675 3597 1894 
z
M 3022 2063 
Q 3016 2534 2758 2815 
Q 2500 3097 2075 3097 
Q 1594 3097 1305 2825 
Q 1016 2553 972 2059 
L 3022 2063 
z
" transform="scale(0.015625)"/>
      </defs>
      <use xlink:href="#DejaVuSans-31"/>
      <use xlink:href="#DejaVuSans-65" x="63.623047"/>
      <use xlink:href="#DejaVuSans-36" x="125.146484"/>
     </g>
    </g>
   </g>
   <g id="matplotlib.axis_2">
    <g id="ytick_1">
     <g id="line2d_8">
      <defs>
       <path id="m4f92517c93" d="M 0 0 
L -3.5 0 
" style="stroke: #000000; stroke-width: 0.8"/>
      </defs>
      <g>
       <use xlink:href="#m4f92517c93" x="57.6" y="295.488" style="stroke: #000000; stroke-width: 0.8"/>
      </g>
     </g>
     <g id="text_9">
      <!-- 0.0 -->
      <g transform="translate(34.696875 299.287219) scale(0.1 -0.1)">
       <use xlink:href="#DejaVuSans-30"/>
       <use xlink:href="#DejaVuSans-2e" x="63.623047"/>
       <use xlink:href="#DejaVuSans-30" x="95.410156"/>
      </g>
     </g>
    </g>
    <g id="ytick_2">
     <g id="line2d_9">
      <g>
       <use xlink:href="#m4f92517c93" x="57.6" y="247.104" style="stroke: #000000; stroke-width: 0.8"/>
      </g>
     </g>
     <g id="text_10">
      <!-- 0.2 -->
      <g transform="translate(34.696875 250.903219) scale(0.1 -0.1)">
       <use xlink:href="#DejaVuSans-30"/>
       <use xlink:href="#DejaVuSans-2e" x="63.623047"/>
       <use xlink:href="#DejaVuSans-32" x="95.410156"/>
      </g>
     </g>
    </g>
    <g id="ytick_3">
     <g id="line2d_10">
      <g>
       <use xlink:href="#m4f92517c93" x="57.6" y="198.72" style="stroke: #000000; stroke-width: 0.8"/>
      </g>
     </g>
     <g id="text_11">
      <!-- 0.4 -->
      <g transform="translate(34.696875 202.519219) scale(0.1 -0.1)">
       <use xlink:href="#DejaVuSans-30"/>
       <use xlink:href="#DejaVuSans-2e" x="63.623047"/>
       <use xlink:href="#DejaVuSans-34" x="95.410156"/>
      </g>
     </g>
    </g>
    <g id="ytick_4">
     <g id="line2d_11">
      <g>
       <use xlink:href="#m4f92517c93" x="57.6" y="150.336" style="stroke: #000000; stroke-width: 0.8"/>
      </g>
     </g>
     <g id="text_12">
      <!-- 0.6 -->
      <g transform="translate(34.696875 154.135219) scale(0.1 -0.1)">
       <use xlink:href="#DejaVuSans-30"/>
       <use xlink:href="#DejaVuSans-2e" x="63.623047"/>
       <use xlink:href="#DejaVuSans-36" x="95.410156"/>
      </g>
     </g>
    </g>
    <g id="ytick_5">
     <g id="line2d_12">
      <g>
       <use xlink:href="#m4f92517c93" x="57.6" y="101.952" style="stroke: #000000; stroke-width: 0.8"/>
      </g>
     </g>
     <g id="text_13">
      <!-- 0.8 -->
      <g transform="translate(34.696875 105.751219) scale(0.1 -0.1)">
       <use xlink:href="#DejaVuSans-30"/>
       <use xlink:href="#DejaVuSans-2e" x="63.623047"/>
       <use xlink:href="#DejaVuSans-38" x="95.410156"/>
      </g>
     </g>
    </g>
    <g id="ytick_6">
     <g id="line2d_13">
      <g>
       <use xlink:href="#m4f92517c93" x="57.6" y="53.568" style="stroke: #000000; stroke-width: 0.8"/>
      </g>
     </g>
     <g id="text_14">
      <!-- 1.0 -->
      <g transform="translate(34.696875 57.367219) scale(0.1 -0.1)">
       <use xlink:href="#DejaVuSans-31"/>
       <use xlink:href="#DejaVuSans-2e" x="63.623047"/>
       <use xlink:href="#DejaVuSans-30" x="95.410156"/>
      </g>
     </g>
    </g>
   </g>
   <g id="line2d_14">
    <path d="M 73.832727 295.488 
L 112.866577 295.488 
L 112.866577 295.036657 
L 113.07396 295.036657 
L 113.07396 294.585313 
L 113.604539 294.585313 
L 113.604539 294.13397 
L 113.806535 294.13397 
L 113.806535 293.682627 
L 114.15397 293.682627 
L 114.15397 293.231284 
L 114.695321 293.231284 
L 114.73572 292.328597 
L 115.228592 292.328597 
L 115.228592 291.877254 
L 115.664905 291.877254 
L 115.751091 290.974567 
L 116.278975 290.974567 
L 116.278975 290.523224 
L 116.596784 290.523224 
L 116.596784 290.071881 
L 116.80686 290.071881 
L 116.80686 289.620537 
L 117.356291 289.620537 
L 117.356291 289.169194 
L 117.547515 289.169194 
L 117.547515 288.717851 
L 117.892256 288.717851 
L 117.892256 288.266507 
L 118.425527 288.266507 
L 118.487473 287.363821 
L 118.961492 287.363821 
L 118.961492 286.912478 
L 119.438204 286.912478 
L 119.502843 286.009791 
L 120.049581 286.009791 
L 120.049581 285.558448 
L 120.378163 285.558448 
L 120.378163 285.107104 
L 120.590932 285.107104 
L 120.590932 284.655761 
L 121.12959 284.655761 
L 121.12959 284.204418 
L 121.310041 284.204418 
L 121.310041 283.753075 
L 121.668248 283.753075 
L 121.668248 283.301731 
L 122.2096 283.301731 
L 122.260772 282.399045 
L 122.750951 282.399045 
L 122.750951 281.947701 
L 123.179184 281.947701 
L 123.179184 281.496358 
L 123.303075 281.496358 
L 123.303075 281.045015 
L 124.116449 281.045015 
L 124.116449 280.593672 
L 125.061794 280.593672 
L 125.061794 280.142328 
L 126.012525 280.142328 
L 126.012525 279.690985 
L 126.936323 279.690985 
L 126.936323 279.239642 
L 127.876281 279.239642 
L 127.876281 278.788299 
L 128.829706 278.788299 
L 128.829706 278.336955 
L 129.772358 278.336955 
L 129.772358 277.885612 
L 130.720396 277.885612 
L 130.720396 277.434269 
L 131.660354 277.434269 
L 131.660354 276.982925 
L 132.605698 276.982925 
L 132.605698 276.531582 
L 133.542963 276.531582 
L 133.542963 276.080239 
L 134.507161 276.080239 
L 134.507161 275.628896 
L 135.455199 275.628896 
L 135.455199 275.177552 
L 136.389771 275.177552 
L 136.389771 274.726209 
L 137.327036 274.726209 
L 137.327036 274.274866 
L 138.275074 274.274866 
L 138.275074 273.823522 
L 139.231191 273.823522 
L 139.231191 273.372179 
L 140.173843 273.372179 
L 140.173843 272.920836 
L 141.111108 272.920836 
L 141.111108 272.469493 
L 142.069919 272.469493 
L 142.069919 272.018149 
L 143.026037 272.018149 
L 143.026037 271.566806 
L 143.990235 271.566806 
L 143.990235 271.115463 
L 144.951739 271.115463 
L 144.951739 270.664119 
L 145.872844 270.664119 
L 145.891697 269.761433 
L 146.812802 269.761433 
L 146.812802 269.31009 
L 147.755454 269.31009 
L 147.763534 268.407403 
L 148.695412 268.407403 
L 148.695412 267.504716 
L 148.695412 267.504716 
L 149.21791 267.504716 
L 149.21791 267.053373 
L 149.616517 267.053373 
L 149.616517 266.60203 
L 150.149789 266.60203 
L 150.149789 266.150687 
L 151.073587 266.150687 
L 151.073587 265.699343 
L 152.021625 265.699343 
L 152.021625 265.248 
L 152.929264 265.248 
L 152.929264 264.796657 
L 153.893461 264.796657 
L 153.893461 264.345313 
L 154.846886 264.345313 
L 154.846886 263.89397 
L 155.784151 263.89397 
L 155.784151 263.442627 
L 156.726802 263.442627 
L 156.726802 262.991284 
L 157.669454 262.991284 
L 157.669454 262.53994 
L 158.612105 262.53994 
L 158.612105 262.088597 
L 159.562837 262.088597 
L 159.562837 261.637254 
L 160.508181 261.637254 
L 160.508181 261.18591 
L 161.03068 261.18591 
L 161.03068 260.734567 
L 161.458913 260.734567 
L 161.458913 260.283224 
L 161.582804 260.283224 
L 161.582804 259.831881 
L 162.126849 259.831881 
L 162.126849 259.380537 
L 162.428497 259.380537 
L 162.428497 258.929194 
L 162.66012 258.929194 
L 162.66012 258.477851 
L 163.196085 258.477851 
L 163.196085 258.026507 
L 163.363069 258.026507 
L 163.363069 257.575164 
L 163.734743 257.575164 
L 163.734743 257.123821 
L 164.270707 257.123821 
L 164.300333 256.221134 
L 164.798592 256.221134 
L 164.798592 255.769791 
L 165.232212 255.769791 
L 165.331863 254.867104 
L 165.72239 254.867104 
L 165.72239 254.415761 
L 165.870521 254.415761 
L 165.870521 253.964418 
L 166.166783 253.964418 
L 166.258355 253.061731 
L 166.411873 253.061731 
L 166.411873 252.610388 
L 166.791627 252.610388 
L 166.791627 252.159045 
L 166.942451 252.159045 
L 166.942451 251.707701 
L 167.122901 251.707701 
L 167.122901 251.256358 
L 167.330285 251.256358 
L 167.330285 250.805015 
L 167.475722 250.805015 
L 167.475722 250.353672 
L 167.882409 250.353672 
L 167.882409 249.902328 
L 168.0063 249.902328 
L 168.03862 248.999642 
L 168.426453 248.999642 
L 168.536878 248.096955 
L 168.962418 248.096955 
L 169.07015 246.742925 
L 169.501076 246.742925 
L 169.501076 246.291582 
L 169.614194 246.291582 
L 169.614194 245.840239 
L 169.891603 245.840239 
L 169.891603 245.388896 
L 170.042427 245.388896 
L 170.042427 244.937552 
L 170.160932 244.937552 
L 170.160932 244.486209 
L 170.589165 244.486209 
L 170.68343 243.583522 
L 170.850414 243.583522 
L 170.850414 243.132179 
L 171.127823 243.132179 
L 171.211315 242.229493 
L 171.677254 242.229493 
L 171.760746 241.326806 
L 171.798452 241.326806 
L 171.798452 240.875463 
L 172.221299 240.875463 
L 172.304791 239.972776 
L 172.757264 239.972776 
L 172.854222 239.07009 
L 173.304001 239.07009 
L 173.398267 238.167403 
L 173.842659 238.167403 
L 173.926151 237.264716 
L 174.370544 237.264716 
L 174.451343 236.36203 
L 174.909202 236.36203 
L 174.995387 235.459343 
L 175.442474 235.459343 
L 175.531352 234.556657 
L 175.981132 234.556657 
L 176.075397 233.65397 
L 176.514403 233.65397 
L 176.616748 232.751284 
L 177.053061 232.751284 
L 177.163486 231.848597 
L 177.583639 231.848597 
L 177.583639 231.397254 
L 177.696757 231.397254 
L 177.696757 230.94591 
L 178.122297 230.94591 
L 178.122297 230.494567 
L 178.235415 230.494567 
L 178.235415 230.043224 
L 178.655568 230.043224 
L 178.760607 229.140537 
L 178.790233 229.140537 
L 178.790233 228.689194 
L 179.191533 228.689194 
L 179.253479 227.786507 
L 179.307344 227.786507 
L 179.307344 227.335164 
L 179.732884 227.335164 
L 179.840616 225.981134 
L 180.182664 225.981134 
L 180.274236 225.078448 
L 180.387354 225.078448 
L 180.387354 224.627104 
L 180.689002 224.627104 
L 180.689002 224.175761 
L 180.804814 224.175761 
L 180.804814 223.724418 
L 180.942171 223.724418 
L 180.942171 223.273075 
L 181.141475 223.273075 
L 181.141475 222.821731 
L 181.351551 222.821731 
L 181.351551 222.370388 
L 181.470056 222.370388 
L 181.470056 221.919045 
L 181.626267 221.919045 
L 181.626267 221.467701 
L 181.892903 221.467701 
L 181.892903 221.016358 
L 182.022181 221.016358 
L 182.08682 220.113672 
L 182.428867 220.113672 
L 182.428867 219.662328 
L 182.555452 219.662328 
L 182.576998 218.759642 
L 182.962139 218.759642 
L 183.053711 217.856955 
L 183.096803 217.856955 
L 183.096803 217.405612 
L 183.50349 217.405612 
L 183.506183 216.502925 
L 183.638155 216.502925 
L 183.638155 216.051582 
L 183.988282 216.051582 
L 184.042148 215.148896 
L 184.187586 215.148896 
L 184.187586 214.697552 
L 184.448835 214.697552 
L 184.448835 214.246209 
L 184.56734 214.246209 
L 184.56734 213.794866 
L 184.734324 213.794866 
L 184.734324 213.343522 
L 184.93632 213.343522 
L 184.93632 212.892179 
L 185.108691 212.892179 
L 185.108691 212.440836 
L 185.270288 212.440836 
L 185.36994 211.538149 
L 185.652735 211.538149 
L 185.652735 211.086806 
L 185.808946 211.086806 
L 185.870892 210.184119 
L 186.20486 210.184119 
L 186.20486 209.732776 
L 186.352991 209.732776 
L 186.352991 209.281433 
L 186.740824 209.281433 
L 186.83509 208.378746 
L 186.891649 208.378746 
L 186.891649 207.927403 
L 187.266016 207.927403 
L 187.266016 207.47606 
L 187.438387 207.47606 
L 187.438387 207.024716 
L 187.793901 207.024716 
L 187.796594 206.12203 
L 187.963578 206.12203 
L 187.963578 205.670687 
L 188.321786 205.670687 
L 188.321786 205.219343 
L 188.504929 205.219343 
L 188.504929 204.768 
L 188.723086 204.768 
L 188.723086 204.316657 
L 188.863137 204.316657 
L 188.863137 203.865313 
L 189.048974 203.865313 
L 189.048974 203.41397 
L 189.366782 203.41397 
L 189.412568 202.511284 
L 189.582245 202.511284 
L 189.657657 201.608597 
L 189.948533 201.608597 
L 189.948533 201.157254 
L 190.115517 201.157254 
L 190.115517 200.70591 
L 190.325593 200.70591 
L 190.325593 200.254567 
L 190.481804 200.254567 
L 190.589536 199.351881 
L 190.664948 199.351881 
L 190.664948 198.900537 
L 191.017769 198.900537 
L 191.017769 198.449194 
L 191.200912 198.449194 
L 191.268245 197.546507 
L 191.53488 197.546507 
L 191.545654 196.643821 
L 191.734184 196.643821 
L 191.734184 196.192478 
L 192.084312 196.192478 
L 192.084312 195.741134 
L 192.210896 195.741134 
L 192.264762 194.838448 
L 192.493692 194.838448 
L 192.493692 194.387104 
L 192.62297 194.387104 
L 192.62297 193.935761 
L 192.8115 193.935761 
L 192.8115 193.484418 
L 193.150854 193.484418 
L 193.161627 192.581731 
L 193.355544 192.581731 
L 193.44173 191.679045 
L 193.697592 191.679045 
L 193.697592 191.227701 
L 193.813404 191.227701 
L 193.896896 190.325015 
L 194.106972 190.325015 
L 194.106972 189.873672 
L 194.392461 189.873672 
L 194.435554 188.970985 
L 194.753362 188.970985 
L 194.769522 188.068299 
L 194.976905 188.068299 
L 195.028077 187.165612 
L 195.310873 187.165612 
L 195.351272 186.262925 
L 195.502096 186.262925 
L 195.502096 185.811582 
L 195.844144 185.811582 
L 195.844144 185.360239 
L 195.976115 185.360239 
L 196.051528 184.457552 
L 196.30739 184.457552 
L 196.388189 183.554866 
L 196.603652 183.554866 
L 196.603652 183.103522 
L 196.907994 183.103522 
L 196.916074 182.200836 
L 197.131537 182.200836 
L 197.241962 181.298149 
L 197.449345 181.298149 
L 197.449345 180.846806 
L 197.680968 180.846806 
L 197.680968 180.395463 
L 198.004163 180.395463 
L 198.004163 179.944119 
L 198.19808 179.944119 
L 198.208853 179.041433 
L 198.542821 179.041433 
L 198.542821 178.59009 
L 198.801376 178.59009 
L 198.801376 178.138746 
L 199.070705 178.138746 
L 199.138038 177.23606 
L 199.259236 177.23606 
L 199.259236 176.784716 
L 199.609363 176.784716 
L 199.609363 176.333373 
L 199.746721 176.333373 
L 199.797894 175.430687 
L 200.059143 175.430687 
L 200.139942 174.528 
L 200.339245 174.528 
L 200.339245 174.076657 
L 200.675906 174.076657 
L 200.694759 173.17397 
L 200.872516 173.17397 
L 200.982941 172.271284 
L 201.209178 172.271284 
L 201.209178 171.81994 
L 201.400401 171.81994 
L 201.400401 171.368597 
L 201.648184 171.368597 
L 201.742449 170.46591 
L 201.936366 170.46591 
L 201.947139 169.563224 
L 202.294573 169.563224 
L 202.294573 169.111881 
L 202.477717 169.111881 
L 202.477717 168.660537 
L 202.598915 168.660537 
L 202.598915 168.209194 
L 202.846698 168.209194 
L 202.881711 167.306507 
L 203.016375 167.306507 
L 203.016375 166.855164 
L 203.385356 166.855164 
L 203.385356 166.403821 
L 203.557726 166.403821 
L 203.56042 165.501134 
L 203.827055 165.501134 
L 203.924014 164.598448 
L 204.093691 164.598448 
L 204.093691 164.147104 
L 204.449205 164.147104 
L 204.508458 163.244418 
L 204.753547 163.244418 
L 204.753547 162.793075 
L 204.987863 162.793075 
L 204.987863 162.341731 
L 205.469962 162.341731 
L 205.513055 161.439045 
L 205.677345 161.439045 
L 205.677345 160.987701 
L 206.051713 160.987701 
L 206.051713 160.536358 
L 206.393761 160.536358 
L 206.393761 160.085015 
L 206.60653 160.085015 
L 206.641543 159.182328 
L 206.803141 159.182328 
L 206.803141 158.730985 
L 207.075163 158.730985 
L 207.131722 157.828299 
L 207.336412 157.828299 
L 207.336412 157.376955 
L 207.586888 157.376955 
L 207.667687 156.474269 
L 207.86699 156.474269 
L 207.86699 156.022925 
L 208.028587 156.022925 
L 208.028587 155.571582 
L 208.211731 155.571582 
L 208.211731 155.120239 
L 208.402955 155.120239 
L 208.510686 154.217552 
L 208.750389 154.217552 
L 208.750389 153.766209 
L 208.946999 153.766209 
L 208.973932 152.863522 
L 209.302514 152.863522 
L 209.302514 152.412179 
L 209.461418 152.412179 
L 209.474884 151.509493 
L 209.846558 151.509493 
L 209.916584 150.606806 
L 210.016235 150.606806 
L 210.016235 150.155463 
L 210.374443 150.155463 
L 210.404069 149.252776 
L 210.562973 149.252776 
L 210.562973 148.801433 
L 210.867315 148.801433 
L 210.915794 147.898746 
L 211.115098 147.898746 
L 211.115098 147.447403 
L 211.338641 147.447403 
L 211.338641 146.99606 
L 211.454452 146.99606 
L 211.454452 146.544716 
L 211.642982 146.544716 
L 211.642982 146.093373 
L 211.823433 146.093373 
L 211.823433 145.64203 
L 211.995803 145.64203 
L 211.995803 145.190687 
L 212.176254 145.190687 
L 212.281292 144.288 
L 212.518302 144.288 
L 212.518302 143.836657 
L 212.687979 143.836657 
L 212.758004 142.482627 
L 213.062346 142.482627 
L 213.062346 142.031284 
L 213.240103 142.031284 
L 213.256263 141.128597 
L 213.355915 141.128597 
L 213.355915 140.677254 
L 213.598311 140.677254 
L 213.695269 139.774567 
L 213.803001 139.774567 
L 213.803001 139.323224 
L 214.015771 139.323224 
L 214.015771 138.871881 
L 214.131582 138.871881 
L 214.177368 137.969194 
L 214.333579 137.969194 
L 214.333579 137.517851 
L 214.635227 137.517851 
L 214.697173 136.163821 
L 214.86685 136.163821 
L 214.86685 135.712478 
L 215.133486 135.712478 
L 215.187352 134.809791 
L 215.367802 134.809791 
L 215.402815 133.907104 
L 215.591345 133.907104 
L 215.591345 133.455761 
L 215.723317 133.455761 
L 215.723317 133.004418 
L 215.94686 133.004418 
L 216.027658 132.101731 
L 216.059978 132.101731 
L 216.059978 131.650388 
L 216.264668 131.650388 
L 216.264668 131.199045 
L 216.488211 131.199045 
L 216.531304 130.296358 
L 216.687514 130.296358 
L 216.792553 129.393672 
L 217.021482 129.393672 
L 217.021482 128.942328 
L 217.358144 128.942328 
L 217.468568 128.039642 
L 217.562834 128.039642 
L 217.562834 127.588299 
L 217.867175 127.588299 
L 217.867175 127.136955 
L 218.023386 127.136955 
L 218.104185 126.234269 
L 218.41122 126.234269 
L 218.416606 125.331582 
L 218.648229 125.331582 
L 218.712868 124.428896 
L 218.957958 124.428896 
L 218.957958 123.977552 
L 219.388884 123.977552 
L 219.488536 123.074866 
L 220.03258 123.074866 
L 220.05682 122.172179 
L 220.565852 122.172179 
L 220.565852 121.720836 
L 220.743609 121.720836 
L 220.743609 121.269493 
L 221.117976 121.269493 
L 221.117976 120.818149 
L 221.406158 120.818149 
L 221.406158 120.366806 
L 221.656634 120.366806 
L 221.656634 119.915463 
L 222.082174 119.915463 
L 222.184519 119.012776 
L 222.71779 119.012776 
L 222.747417 118.11009 
L 223.264528 118.11009 
L 223.264528 117.658746 
L 223.415352 117.658746 
L 223.415352 117.207403 
L 223.800493 117.207403 
L 223.800493 116.75606 
L 224.083288 116.75606 
L 224.083288 116.304716 
L 224.344537 116.304716 
L 224.344537 115.853373 
L 224.753917 115.853373 
L 224.753917 115.40203 
L 224.885889 115.40203 
L 224.885889 114.950687 
L 225.413773 114.950687 
L 225.416467 114.048 
L 225.949738 114.048 
L 225.949738 113.596657 
L 226.084403 113.596657 
L 226.084403 113.145313 
L 226.493783 113.145313 
L 226.493783 112.69397 
L 226.749645 112.69397 
L 226.749645 112.242627 
L 227.032441 112.242627 
L 227.032441 111.791284 
L 227.428354 111.791284 
L 227.428354 111.33994 
L 227.571099 111.33994 
L 227.571099 110.888597 
L 228.093597 110.888597 
L 228.10437 109.98591 
L 228.764226 109.98591 
L 228.764226 109.534567 
L 229.345977 109.534567 
L 229.445628 108.631881 
L 229.887328 108.631881 
L 229.898101 107.729194 
L 230.108178 107.729194 
L 230.108178 107.277851 
L 230.431372 107.277851 
L 230.431372 106.826507 
L 230.786887 106.826507 
L 230.859606 105.923821 
L 230.98619 105.923821 
L 230.98619 105.472478 
L 231.457516 105.472478 
L 231.527541 104.569791 
L 231.80495 104.569791 
L 231.80495 104.118448 
L 232.05004 104.118448 
L 232.122759 103.215761 
L 232.752988 103.215761 
L 232.812241 102.313075 
L 233.47479 102.313075 
L 233.47479 101.861731 
L 233.68756 101.861731 
L 233.68756 101.410388 
L 234.148112 101.410388 
L 234.148112 100.959045 
L 234.646371 100.959045 
L 234.646371 100.507701 
L 234.829515 100.507701 
L 234.829515 100.056358 
L 234.956099 100.056358 
L 234.956099 99.605015 
L 235.497451 99.605015 
L 235.586329 98.702328 
L 235.885284 98.702328 
L 235.885284 98.250985 
L 236.16808 98.250985 
L 236.16808 97.799642 
L 236.518208 97.799642 
L 236.518208 97.348299 
L 236.846789 97.348299 
L 236.846789 96.896955 
L 237.444699 96.896955 
L 237.506645 95.994269 
L 238.179967 95.994269 
L 238.179967 95.542925 
L 238.41159 95.542925 
L 238.41159 95.091582 
L 238.85329 95.091582 
L 238.85329 94.640239 
L 239.367708 94.640239 
L 239.367708 94.188896 
L 239.521226 94.188896 
L 239.521226 93.737552 
L 240.205321 93.737552 
L 240.31036 92.834866 
L 241.266478 92.834866 
L 241.266478 92.383522 
L 242.219902 92.383522 
L 242.219902 91.932179 
L 243.17602 91.932179 
L 243.17602 91.480836 
L 244.140218 91.480836 
L 244.140218 91.029493 
L 245.085563 91.029493 
L 245.085563 90.578149 
L 246.028214 90.578149 
L 246.028214 90.126806 
L 246.927773 90.126806 
L 246.973559 89.224119 
L 247.593015 89.224119 
L 247.593015 88.772776 
L 247.918903 88.772776 
L 247.918903 88.321433 
L 248.266338 88.321433 
L 248.266338 87.87009 
L 248.883101 87.87009 
L 248.936967 86.967403 
L 249.599516 86.967403 
L 249.599516 86.51606 
L 250.291692 86.51606 
L 250.291692 86.064716 
L 250.967708 86.064716 
L 250.967708 85.613373 
L 251.627564 85.613373 
L 251.627564 85.16203 
L 252.306273 85.16203 
L 252.306273 84.710687 
L 252.966129 84.710687 
L 252.966129 84.259343 
L 253.636758 84.259343 
L 253.636758 83.808 
L 254.312774 83.808 
L 254.312774 83.356657 
L 254.557863 83.356657 
L 254.557863 82.905313 
L 254.991483 82.905313 
L 254.991483 82.45397 
L 255.503208 82.45397 
L 255.503208 82.002627 
L 255.662112 82.002627 
L 255.662112 81.551284 
L 256.338128 81.551284 
L 256.432393 80.648597 
L 257.01953 80.648597 
L 257.01953 80.197254 
L 257.358884 80.197254 
L 257.358884 79.74591 
L 257.692852 79.74591 
L 257.692852 79.294567 
L 258.366175 79.294567 
L 258.366175 78.843224 
L 265.115559 78.843224 
L 265.115559 78.391881 
L 265.791575 78.391881 
L 265.791575 77.940537 
L 266.459511 77.940537 
L 266.459511 77.489194 
L 267.119367 77.489194 
L 267.119367 77.037851 
L 267.806156 77.037851 
L 267.806156 76.586507 
L 268.482172 76.586507 
L 268.482172 76.135164 
L 269.166267 76.135164 
L 269.166267 75.683821 
L 269.828816 75.683821 
L 269.828816 75.232478 
L 270.502139 75.232478 
L 270.502139 74.781134 
L 271.191621 74.781134 
L 271.191621 74.329791 
L 271.856864 74.329791 
L 271.856864 73.878448 
L 272.546346 73.878448 
L 272.546346 73.427104 
L 273.222362 73.427104 
L 273.222362 72.975761 
L 273.884911 72.975761 
L 273.884911 72.524418 
L 274.558233 72.524418 
L 274.558233 72.073075 
L 275.236942 72.073075 
L 275.236942 71.621731 
L 281.962087 71.621731 
L 281.962087 71.170388 
L 282.613863 71.170388 
L 282.613863 70.719045 
L 311.51017 70.719045 
L 311.51017 70.267701 
L 312.178106 70.267701 
L 312.178106 69.816358 
L 312.856815 69.816358 
L 312.856815 69.365015 
L 313.540911 69.365015 
L 313.540911 68.913672 
L 314.206153 68.913672 
L 314.206153 68.462328 
L 314.876783 68.462328 
L 314.876783 68.010985 
L 315.544718 68.010985 
L 315.544718 67.559642 
L 316.218041 67.559642 
L 316.218041 67.108299 
L 316.883283 67.108299 
L 316.883283 66.656955 
L 317.553913 66.656955 
L 317.553913 66.205612 
L 318.227235 66.205612 
L 318.227235 65.754269 
L 318.895171 65.754269 
L 318.895171 65.302925 
L 319.57388 65.302925 
L 319.57388 64.851582 
L 320.241816 64.851582 
L 320.241816 64.400239 
L 330.33896 64.400239 
L 330.33896 63.948896 
L 331.017669 63.948896 
L 331.017669 63.497552 
L 331.685605 63.497552 
L 331.685605 63.046209 
L 332.36162 63.046209 
L 332.36162 62.594866 
L 333.032249 62.594866 
L 333.032249 62.143522 
L 333.719038 62.143522 
L 333.719038 61.692179 
L 334.381588 61.692179 
L 334.381588 61.240836 
L 335.06299 61.240836 
L 335.06299 60.789493 
L 335.739006 60.789493 
L 335.739006 60.338149 
L 336.428488 60.338149 
L 336.428488 59.886806 
L 337.091037 59.886806 
L 337.091037 59.435463 
L 337.7482 59.435463 
L 337.7482 58.984119 
L 338.429602 58.984119 
L 338.429602 58.532776 
L 339.116391 58.532776 
L 339.116391 58.081433 
L 339.800487 58.081433 
L 339.800487 57.63009 
L 340.476503 57.63009 
L 340.476503 57.178746 
L 393.760549 57.178746 
L 393.760549 56.727403 
L 394.450031 56.727403 
L 394.450031 56.27606 
L 395.123354 56.27606 
L 395.123354 55.824716 
L 395.802063 55.824716 
L 395.802063 55.373373 
L 396.472692 55.373373 
L 396.472692 54.92203 
L 397.140628 54.92203 
L 397.140628 54.470687 
L 397.819337 54.470687 
L 397.819337 54.019343 
L 398.487273 54.019343 
L 398.487273 53.568 
L 398.487273 53.568 
" clip-path="url(#p3614b8286f)" style="fill: none; stroke: #1f77b4; stroke-width: 1.5; stroke-linecap: square"/>
   </g>
   <g id="patch_3">
    <path d="M 57.6 307.584 
L 57.6 41.472 
" style="fill: none; stroke: #000000; stroke-width: 0.8; stroke-linejoin: miter; stroke-linecap: square"/>
   </g>
   <g id="patch_4">
    <path d="M 414.72 307.584 
L 414.72 41.472 
" style="fill: none; stroke: #000000; stroke-width: 0.8; stroke-linejoin: miter; stroke-linecap: square"/>
   </g>
   <g id="patch_5">
    <path d="M 57.6 307.584 
L 414.72 307.584 
" style="fill: none; stroke: #000000; stroke-width: 0.8; stroke-linejoin: miter; stroke-linecap: square"/>
   </g>
   <g id="patch_6">
    <path d="M 57.6 41.472 
L 414.72 41.472 
" style="fill: none; stroke: #000000; stroke-width: 0.8; stroke-linejoin: miter; stroke-linecap: square"/>
   </g>
   <g id="text_15">
    <!-- Execution time between S1 S15 (xx1xx2xx0yyy45xx0yyy45xx0yyy3xx1xx0yyy45xx0yyy45xx0yyy45) -->
    <g transform="translate(-70.264688 35.472) scale(0.12 -0.12)">
     <defs>
      <path id="DejaVuSans-45" d="M 628 4666 
L 3578 4666 
L 3578 4134 
L 1259 4134 
L 1259 2753 
L 3481 2753 
L 3481 2222 
L 1259 2222 
L 1259 531 
L 3634 531 
L 3634 0 
L 628 0 
L 628 4666 
z
" transform="scale(0.015625)"/>
      <path id="DejaVuSans-78" d="M 3513 3500 
L 2247 1797 
L 3578 0 
L 2900 0 
L 1881 1375 
L 863 0 
L 184 0 
L 1544 1831 
L 300 3500 
L 978 3500 
L 1906 2253 
L 2834 3500 
L 3513 3500 
z
" transform="scale(0.015625)"/>
      <path id="DejaVuSans-63" d="M 3122 3366 
L 3122 2828 
Q 2878 2963 2633 3030 
Q 2388 3097 2138 3097 
Q 1578 3097 1268 2742 
Q 959 2388 959 1747 
Q 959 1106 1268 751 
Q 1578 397 2138 397 
Q 2388 397 2633 464 
Q 2878 531 3122 666 
L 3122 134 
Q 2881 22 2623 -34 
Q 2366 -91 2075 -91 
Q 1284 -91 818 406 
Q 353 903 353 1747 
Q 353 2603 823 3093 
Q 1294 3584 2113 3584 
Q 2378 3584 2631 3529 
Q 2884 3475 3122 3366 
z
" transform="scale(0.015625)"/>
      <path id="DejaVuSans-75" d="M 544 1381 
L 544 3500 
L 1119 3500 
L 1119 1403 
Q 1119 906 1312 657 
Q 1506 409 1894 409 
Q 2359 409 2629 706 
Q 2900 1003 2900 1516 
L 2900 3500 
L 3475 3500 
L 3475 0 
L 2900 0 
L 2900 538 
Q 2691 219 2414 64 
Q 2138 -91 1772 -91 
Q 1169 -91 856 284 
Q 544 659 544 1381 
z
M 1991 3584 
L 1991 3584 
z
" transform="scale(0.015625)"/>
      <path id="DejaVuSans-74" d="M 1172 4494 
L 1172 3500 
L 2356 3500 
L 2356 3053 
L 1172 3053 
L 1172 1153 
Q 1172 725 1289 603 
Q 1406 481 1766 481 
L 2356 481 
L 2356 0 
L 1766 0 
Q 1100 0 847 248 
Q 594 497 594 1153 
L 594 3053 
L 172 3053 
L 172 3500 
L 594 3500 
L 594 4494 
L 1172 4494 
z
" transform="scale(0.015625)"/>
      <path id="DejaVuSans-69" d="M 603 3500 
L 1178 3500 
L 1178 0 
L 603 0 
L 603 3500 
z
M 603 4863 
L 1178 4863 
L 1178 4134 
L 603 4134 
L 603 4863 
z
" transform="scale(0.015625)"/>
      <path id="DejaVuSans-6f" d="M 1959 3097 
Q 1497 3097 1228 2736 
Q 959 2375 959 1747 
Q 959 1119 1226 758 
Q 1494 397 1959 397 
Q 2419 397 2687 759 
Q 2956 1122 2956 1747 
Q 2956 2369 2687 2733 
Q 2419 3097 1959 3097 
z
M 1959 3584 
Q 2709 3584 3137 3096 
Q 3566 2609 3566 1747 
Q 3566 888 3137 398 
Q 2709 -91 1959 -91 
Q 1206 -91 779 398 
Q 353 888 353 1747 
Q 353 2609 779 3096 
Q 1206 3584 1959 3584 
z
" transform="scale(0.015625)"/>
      <path id="DejaVuSans-6e" d="M 3513 2113 
L 3513 0 
L 2938 0 
L 2938 2094 
Q 2938 2591 2744 2837 
Q 2550 3084 2163 3084 
Q 1697 3084 1428 2787 
Q 1159 2491 1159 1978 
L 1159 0 
L 581 0 
L 581 3500 
L 1159 3500 
L 1159 2956 
Q 1366 3272 1645 3428 
Q 1925 3584 2291 3584 
Q 2894 3584 3203 3211 
Q 3513 2838 3513 2113 
z
" transform="scale(0.015625)"/>
      <path id="DejaVuSans-20" transform="scale(0.015625)"/>
      <path id="DejaVuSans-6d" d="M 3328 2828 
Q 3544 3216 3844 3400 
Q 4144 3584 4550 3584 
Q 5097 3584 5394 3201 
Q 5691 2819 5691 2113 
L 5691 0 
L 5113 0 
L 5113 2094 
Q 5113 2597 4934 2840 
Q 4756 3084 4391 3084 
Q 3944 3084 3684 2787 
Q 3425 2491 3425 1978 
L 3425 0 
L 2847 0 
L 2847 2094 
Q 2847 2600 2669 2842 
Q 2491 3084 2119 3084 
Q 1678 3084 1418 2786 
Q 1159 2488 1159 1978 
L 1159 0 
L 581 0 
L 581 3500 
L 1159 3500 
L 1159 2956 
Q 1356 3278 1631 3431 
Q 1906 3584 2284 3584 
Q 2666 3584 2933 3390 
Q 3200 3197 3328 2828 
z
" transform="scale(0.015625)"/>
      <path id="DejaVuSans-62" d="M 3116 1747 
Q 3116 2381 2855 2742 
Q 2594 3103 2138 3103 
Q 1681 3103 1420 2742 
Q 1159 2381 1159 1747 
Q 1159 1113 1420 752 
Q 1681 391 2138 391 
Q 2594 391 2855 752 
Q 3116 1113 3116 1747 
z
M 1159 2969 
Q 1341 3281 1617 3432 
Q 1894 3584 2278 3584 
Q 2916 3584 3314 3078 
Q 3713 2572 3713 1747 
Q 3713 922 3314 415 
Q 2916 -91 2278 -91 
Q 1894 -91 1617 61 
Q 1341 213 1159 525 
L 1159 0 
L 581 0 
L 581 4863 
L 1159 4863 
L 1159 2969 
z
" transform="scale(0.015625)"/>
      <path id="DejaVuSans-77" d="M 269 3500 
L 844 3500 
L 1563 769 
L 2278 3500 
L 2956 3500 
L 3675 769 
L 4391 3500 
L 4966 3500 
L 4050 0 
L 3372 0 
L 2619 2869 
L 1863 0 
L 1184 0 
L 269 3500 
z
" transform="scale(0.015625)"/>
      <path id="DejaVuSans-53" d="M 3425 4513 
L 3425 3897 
Q 3066 4069 2747 4153 
Q 2428 4238 2131 4238 
Q 1616 4238 1336 4038 
Q 1056 3838 1056 3469 
Q 1056 3159 1242 3001 
Q 1428 2844 1947 2747 
L 2328 2669 
Q 3034 2534 3370 2195 
Q 3706 1856 3706 1288 
Q 3706 609 3251 259 
Q 2797 -91 1919 -91 
Q 1588 -91 1214 -16 
Q 841 59 441 206 
L 441 856 
Q 825 641 1194 531 
Q 1563 422 1919 422 
Q 2459 422 2753 634 
Q 3047 847 3047 1241 
Q 3047 1584 2836 1778 
Q 2625 1972 2144 2069 
L 1759 2144 
Q 1053 2284 737 2584 
Q 422 2884 422 3419 
Q 422 4038 858 4394 
Q 1294 4750 2059 4750 
Q 2388 4750 2728 4690 
Q 3069 4631 3425 4513 
z
" transform="scale(0.015625)"/>
      <path id="DejaVuSans-35" d="M 691 4666 
L 3169 4666 
L 3169 4134 
L 1269 4134 
L 1269 2991 
Q 1406 3038 1543 3061 
Q 1681 3084 1819 3084 
Q 2600 3084 3056 2656 
Q 3513 2228 3513 1497 
Q 3513 744 3044 326 
Q 2575 -91 1722 -91 
Q 1428 -91 1123 -41 
Q 819 9 494 109 
L 494 744 
Q 775 591 1075 516 
Q 1375 441 1709 441 
Q 2250 441 2565 725 
Q 2881 1009 2881 1497 
Q 2881 1984 2565 2268 
Q 2250 2553 1709 2553 
Q 1456 2553 1204 2497 
Q 953 2441 691 2322 
L 691 4666 
z
" transform="scale(0.015625)"/>
      <path id="DejaVuSans-28" d="M 1984 4856 
Q 1566 4138 1362 3434 
Q 1159 2731 1159 2009 
Q 1159 1288 1364 580 
Q 1569 -128 1984 -844 
L 1484 -844 
Q 1016 -109 783 600 
Q 550 1309 550 2009 
Q 550 2706 781 3412 
Q 1013 4119 1484 4856 
L 1984 4856 
z
" transform="scale(0.015625)"/>
      <path id="DejaVuSans-79" d="M 2059 -325 
Q 1816 -950 1584 -1140 
Q 1353 -1331 966 -1331 
L 506 -1331 
L 506 -850 
L 844 -850 
Q 1081 -850 1212 -737 
Q 1344 -625 1503 -206 
L 1606 56 
L 191 3500 
L 800 3500 
L 1894 763 
L 2988 3500 
L 3597 3500 
L 2059 -325 
z
" transform="scale(0.015625)"/>
      <path id="DejaVuSans-33" d="M 2597 2516 
Q 3050 2419 3304 2112 
Q 3559 1806 3559 1356 
Q 3559 666 3084 287 
Q 2609 -91 1734 -91 
Q 1441 -91 1130 -33 
Q 819 25 488 141 
L 488 750 
Q 750 597 1062 519 
Q 1375 441 1716 441 
Q 2309 441 2620 675 
Q 2931 909 2931 1356 
Q 2931 1769 2642 2001 
Q 2353 2234 1838 2234 
L 1294 2234 
L 1294 2753 
L 1863 2753 
Q 2328 2753 2575 2939 
Q 2822 3125 2822 3475 
Q 2822 3834 2567 4026 
Q 2313 4219 1838 4219 
Q 1578 4219 1281 4162 
Q 984 4106 628 3988 
L 628 4550 
Q 988 4650 1302 4700 
Q 1616 4750 1894 4750 
Q 2613 4750 3031 4423 
Q 3450 4097 3450 3541 
Q 3450 3153 3228 2886 
Q 3006 2619 2597 2516 
z
" transform="scale(0.015625)"/>
      <path id="DejaVuSans-29" d="M 513 4856 
L 1013 4856 
Q 1481 4119 1714 3412 
Q 1947 2706 1947 2009 
Q 1947 1309 1714 600 
Q 1481 -109 1013 -844 
L 513 -844 
Q 928 -128 1133 580 
Q 1338 1288 1338 2009 
Q 1338 2731 1133 3434 
Q 928 4138 513 4856 
z
" transform="scale(0.015625)"/>
     </defs>
     <use xlink:href="#DejaVuSans-45"/>
     <use xlink:href="#DejaVuSans-78" x="63.183594"/>
     <use xlink:href="#DejaVuSans-65" x="119.238281"/>
     <use xlink:href="#DejaVuSans-63" x="180.761719"/>
     <use xlink:href="#DejaVuSans-75" x="235.742188"/>
     <use xlink:href="#DejaVuSans-74" x="299.121094"/>
     <use xlink:href="#DejaVuSans-69" x="338.330078"/>
     <use xlink:href="#DejaVuSans-6f" x="366.113281"/>
     <use xlink:href="#DejaVuSans-6e" x="427.294922"/>
     <use xlink:href="#DejaVuSans-20" x="490.673828"/>
     <use xlink:href="#DejaVuSans-74" x="522.460938"/>
     <use xlink:href="#DejaVuSans-69" x="561.669922"/>
     <use xlink:href="#DejaVuSans-6d" x="589.453125"/>
     <use xlink:href="#DejaVuSans-65" x="686.865234"/>
     <use xlink:href="#DejaVuSans-20" x="748.388672"/>
     <use xlink:href="#DejaVuSans-62" x="780.175781"/>
     <use xlink:href="#DejaVuSans-65" x="843.652344"/>
     <use xlink:href="#DejaVuSans-74" x="905.175781"/>
     <use xlink:href="#DejaVuSans-77" x="944.384766"/>
     <use xlink:href="#DejaVuSans-65" x="1026.171875"/>
     <use xlink:href="#DejaVuSans-65" x="1087.695312"/>
     <use xlink:href="#DejaVuSans-6e" x="1149.21875"/>
     <use xlink:href="#DejaVuSans-20" x="1212.597656"/>
     <use xlink:href="#DejaVuSans-53" x="1244.384766"/>
     <use xlink:href="#DejaVuSans-31" x="1307.861328"/>
     <use xlink:href="#DejaVuSans-20" x="1371.484375"/>
     <use xlink:href="#DejaVuSans-53" x="1403.271484"/>
     <use xlink:href="#DejaVuSans-31" x="1466.748047"/>
     <use xlink:href="#DejaVuSans-35" x="1530.371094"/>
     <use xlink:href="#DejaVuSans-20" x="1593.994141"/>
     <use xlink:href="#DejaVuSans-28" x="1625.78125"/>
     <use xlink:href="#DejaVuSans-78" x="1664.794922"/>
     <use xlink:href="#DejaVuSans-78" x="1723.974609"/>
     <use xlink:href="#DejaVuSans-31" x="1783.154297"/>
     <use xlink:href="#DejaVuSans-78" x="1846.777344"/>
     <use xlink:href="#DejaVuSans-78" x="1905.957031"/>
     <use xlink:href="#DejaVuSans-32" x="1965.136719"/>
     <use xlink:href="#DejaVuSans-78" x="2028.759766"/>
     <use xlink:href="#DejaVuSans-78" x="2087.939453"/>
     <use xlink:href="#DejaVuSans-30" x="2147.119141"/>
     <use xlink:href="#DejaVuSans-79" x="2210.742188"/>
     <use xlink:href="#DejaVuSans-79" x="2269.921875"/>
     <use xlink:href="#DejaVuSans-79" x="2329.101562"/>
     <use xlink:href="#DejaVuSans-34" x="2388.28125"/>
     <use xlink:href="#DejaVuSans-35" x="2451.904297"/>
     <use xlink:href="#DejaVuSans-78" x="2515.527344"/>
     <use xlink:href="#DejaVuSans-78" x="2574.707031"/>
     <use xlink:href="#DejaVuSans-30" x="2633.886719"/>
     <use xlink:href="#DejaVuSans-79" x="2697.509766"/>
     <use xlink:href="#DejaVuSans-79" x="2756.689453"/>
     <use xlink:href="#DejaVuSans-79" x="2815.869141"/>
     <use xlink:href="#DejaVuSans-34" x="2875.048828"/>
     <use xlink:href="#DejaVuSans-35" x="2938.671875"/>
     <use xlink:href="#DejaVuSans-78" x="3002.294922"/>
     <use xlink:href="#DejaVuSans-78" x="3061.474609"/>
     <use xlink:href="#DejaVuSans-30" x="3120.654297"/>
     <use xlink:href="#DejaVuSans-79" x="3184.277344"/>
     <use xlink:href="#DejaVuSans-79" x="3243.457031"/>
     <use xlink:href="#DejaVuSans-79" x="3302.636719"/>
     <use xlink:href="#DejaVuSans-33" x="3361.816406"/>
     <use xlink:href="#DejaVuSans-78" x="3425.439453"/>
     <use xlink:href="#DejaVuSans-78" x="3484.619141"/>
     <use xlink:href="#DejaVuSans-31" x="3543.798828"/>
     <use xlink:href="#DejaVuSans-78" x="3607.421875"/>
     <use xlink:href="#DejaVuSans-78" x="3666.601562"/>
     <use xlink:href="#DejaVuSans-30" x="3725.78125"/>
     <use xlink:href="#DejaVuSans-79" x="3789.404297"/>
     <use xlink:href="#DejaVuSans-79" x="3848.583984"/>
     <use xlink:href="#DejaVuSans-79" x="3907.763672"/>
     <use xlink:href="#DejaVuSans-34" x="3966.943359"/>
     <use xlink:href="#DejaVuSans-35" x="4030.566406"/>
     <use xlink:href="#DejaVuSans-78" x="4094.189453"/>
     <use xlink:href="#DejaVuSans-78" x="4153.369141"/>
     <use xlink:href="#DejaVuSans-30" x="4212.548828"/>
     <use xlink:href="#DejaVuSans-79" x="4276.171875"/>
     <use xlink:href="#DejaVuSans-79" x="4335.351562"/>
     <use xlink:href="#DejaVuSans-79" x="4394.53125"/>
     <use xlink:href="#DejaVuSans-34" x="4453.710938"/>
     <use xlink:href="#DejaVuSans-35" x="4517.333984"/>
     <use xlink:href="#DejaVuSans-78" x="4580.957031"/>
     <use xlink:href="#DejaVuSans-78" x="4640.136719"/>
     <use xlink:href="#DejaVuSans-30" x="4699.316406"/>
     <use xlink:href="#DejaVuSans-79" x="4762.939453"/>
     <use xlink:href="#DejaVuSans-79" x="4822.119141"/>
     <use xlink:href="#DejaVuSans-79" x="4881.298828"/>
     <use xlink:href="#DejaVuSans-34" x="4940.478516"/>
     <use xlink:href="#DejaVuSans-35" x="5004.101562"/>
     <use xlink:href="#DejaVuSans-29" x="5067.724609"/>
    </g>
   </g>
   <g id="legend_1">
    <g id="patch_7">
     <path d="M 84.895313 304.584 
L 410.52 304.584 
Q 411.72 304.584 411.72 303.384 
L 411.72 295.177125 
Q 411.72 293.977125 410.52 293.977125 
L 84.895313 293.977125 
Q 83.695313 293.977125 83.695313 295.177125 
L 83.695313 303.384 
Q 83.695313 304.584 84.895313 304.584 
z
" style="fill: #ffffff; opacity: 0.8; stroke: #cccccc; stroke-linejoin: miter"/>
    </g>
    <g id="line2d_15">
     <path d="M 86.095313 298.836187 
L 92.095313 298.836187 
L 98.095313 298.836187 
" style="fill: none; stroke: #1f77b4; stroke-width: 1.5; stroke-linecap: square"/>
    </g>
    <g id="text_16">
     <!-- Execution time between S1 S15 (xx1xx2xx0yyy45xx0yyy45xx0yyy3xx1xx0yyy45xx0yyy45xx0yyy45) -->
     <g transform="translate(102.895313 300.936187) scale(0.06 -0.06)">
      <use xlink:href="#DejaVuSans-45"/>
      <use xlink:href="#DejaVuSans-78" x="63.183594"/>
      <use xlink:href="#DejaVuSans-65" x="119.238281"/>
      <use xlink:href="#DejaVuSans-63" x="180.761719"/>
      <use xlink:href="#DejaVuSans-75" x="235.742188"/>
      <use xlink:href="#DejaVuSans-74" x="299.121094"/>
      <use xlink:href="#DejaVuSans-69" x="338.330078"/>
      <use xlink:href="#DejaVuSans-6f" x="366.113281"/>
      <use xlink:href="#DejaVuSans-6e" x="427.294922"/>
      <use xlink:href="#DejaVuSans-20" x="490.673828"/>
      <use xlink:href="#DejaVuSans-74" x="522.460938"/>
      <use xlink:href="#DejaVuSans-69" x="561.669922"/>
      <use xlink:href="#DejaVuSans-6d" x="589.453125"/>
      <use xlink:href="#DejaVuSans-65" x="686.865234"/>
      <use xlink:href="#DejaVuSans-20" x="748.388672"/>
      <use xlink:href="#DejaVuSans-62" x="780.175781"/>
      <use xlink:href="#DejaVuSans-65" x="843.652344"/>
      <use xlink:href="#DejaVuSans-74" x="905.175781"/>
      <use xlink:href="#DejaVuSans-77" x="944.384766"/>
      <use xlink:href="#DejaVuSans-65" x="1026.171875"/>
      <use xlink:href="#DejaVuSans-65" x="1087.695312"/>
      <use xlink:href="#DejaVuSans-6e" x="1149.21875"/>
      <use xlink:href="#DejaVuSans-20" x="1212.597656"/>
      <use xlink:href="#DejaVuSans-53" x="1244.384766"/>
      <use xlink:href="#DejaVuSans-31" x="1307.861328"/>
      <use xlink:href="#DejaVuSans-20" x="1371.484375"/>
      <use xlink:href="#DejaVuSans-53" x="1403.271484"/>
      <use xlink:href="#DejaVuSans-31" x="1466.748047"/>
      <use xlink:href="#DejaVuSans-35" x="1530.371094"/>
      <use xlink:href="#DejaVuSans-20" x="1593.994141"/>
      <use xlink:href="#DejaVuSans-28" x="1625.78125"/>
      <use xlink:href="#DejaVuSans-78" x="1664.794922"/>
      <use xlink:href="#DejaVuSans-78" x="1723.974609"/>
      <use xlink:href="#DejaVuSans-31" x="1783.154297"/>
      <use xlink:href="#DejaVuSans-78" x="1846.777344"/>
      <use xlink:href="#DejaVuSans-78" x="1905.957031"/>
      <use xlink:href="#DejaVuSans-32" x="1965.136719"/>
      <use xlink:href="#DejaVuSans-78" x="2028.759766"/>
      <use xlink:href="#DejaVuSans-78" x="2087.939453"/>
      <use xlink:href="#DejaVuSans-30" x="2147.119141"/>
      <use xlink:href="#DejaVuSans-79" x="2210.742188"/>
      <use xlink:href="#DejaVuSans-79" x="2269.921875"/>
      <use xlink:href="#DejaVuSans-79" x="2329.101562"/>
      <use xlink:href="#DejaVuSans-34" x="2388.28125"/>
      <use xlink:href="#DejaVuSans-35" x="2451.904297"/>
      <use xlink:href="#DejaVuSans-78" x="2515.527344"/>
      <use xlink:href="#DejaVuSans-78" x="2574.707031"/>
      <use xlink:href="#DejaVuSans-30" x="2633.886719"/>
      <use xlink:href="#DejaVuSans-79" x="2697.509766"/>
      <use xlink:href="#DejaVuSans-79" x="2756.689453"/>
      <use xlink:href="#DejaVuSans-79" x="2815.869141"/>
      <use xlink:href="#DejaVuSans-34" x="2875.048828"/>
      <use xlink:href="#DejaVuSans-35" x="2938.671875"/>
      <use xlink:href="#DejaVuSans-78" x="3002.294922"/>
      <use xlink:href="#DejaVuSans-78" x="3061.474609"/>
      <use xlink:href="#DejaVuSans-30" x="3120.654297"/>
      <use xlink:href="#DejaVuSans-79" x="3184.277344"/>
      <use xlink:href="#DejaVuSans-79" x="3243.457031"/>
      <use xlink:href="#DejaVuSans-79" x="3302.636719"/>
      <use xlink:href="#DejaVuSans-33" x="3361.816406"/>
      <use xlink:href="#DejaVuSans-78" x="3425.439453"/>
      <use xlink:href="#DejaVuSans-78" x="3484.619141"/>
      <use xlink:href="#DejaVuSans-31" x="3543.798828"/>
      <use xlink:href="#DejaVuSans-78" x="3607.421875"/>
      <use xlink:href="#DejaVuSans-78" x="3666.601562"/>
      <use xlink:href="#DejaVuSans-30" x="3725.78125"/>
      <use xlink:href="#DejaVuSans-79" x="3789.404297"/>
      <use xlink:href="#DejaVuSans-79" x="3848.583984"/>
      <use xlink:href="#DejaVuSans-79" x="3907.763672"/>
      <use xlink:href="#DejaVuSans-34" x="3966.943359"/>
      <use xlink:href="#DejaVuSans-35" x="4030.566406"/>
      <use xlink:href="#DejaVuSans-78" x="4094.189453"/>
      <use xlink:href="#DejaVuSans-78" x="4153.369141"/>
      <use xlink:href="#DejaVuSans-30" x="4212.548828"/>
      <use xlink:href="#DejaVuSans-79" x="4276.171875"/>
      <use xlink:href="#DejaVuSans-79" x="4335.351562"/>
      <use xlink:href="#DejaVuSans-79" x="4394.53125"/>
      <use xlink:href="#DejaVuSans-34" x="4453.710938"/>
      <use xlink:href="#DejaVuSans-35" x="4517.333984"/>
      <use xlink:href="#DejaVuSans-78" x="4580.957031"/>
      <use xlink:href="#DejaVuSans-78" x="4640.136719"/>
      <use xlink:href="#DejaVuSans-30" x="4699.316406"/>
      <use xlink:href="#DejaVuSans-79" x="4762.939453"/>
      <use xlink:href="#DejaVuSans-79" x="4822.119141"/>
      <use xlink:href="#DejaVuSans-79" x="4881.298828"/>
      <use xlink:href="#DejaVuSans-34" x="4940.478516"/>
      <use xlink:href="#DejaVuSans-35" x="5004.101562"/>
      <use xlink:href="#DejaVuSans-29" x="5067.724609"/>
     </g>
    </g>
   </g>
  </g>
 </g>
 <defs>
  <clipPath id="p3614b8286f">
   <rect x="57.6" y="41.472" width="357.12" height="266.112"/>
  </clipPath>
 </defs>
</svg>
