<?xml version="1.0" encoding="utf-8" standalone="no"?>
<!DOCTYPE svg PUBLIC "-//W3C//DTD SVG 1.1//EN"
  "http://www.w3.org/Graphics/SVG/1.1/DTD/svg11.dtd">
<svg xmlns:xlink="http://www.w3.org/1999/xlink" width="460.8pt" height="345.6pt" viewBox="0 0 460.8 345.6" xmlns="http://www.w3.org/2000/svg" version="1.1">
 <metadata>
  <rdf:RDF xmlns:dc="http://purl.org/dc/elements/1.1/" xmlns:cc="http://creativecommons.org/ns#" xmlns:rdf="http://www.w3.org/1999/02/22-rdf-syntax-ns#">
   <cc:Work>
    <dc:type rdf:resource="http://purl.org/dc/dcmitype/StillImage"/>
    <dc:date>2024-03-08T12:15:00.052000</dc:date>
    <dc:format>image/svg+xml</dc:format>
    <dc:creator>
     <cc:Agent>
      <dc:title>Matplotlib v3.8.2, https://matplotlib.org/</dc:title>
     </cc:Agent>
    </dc:creator>
   </cc:Work>
  </rdf:RDF>
 </metadata>
 <defs>
  <style type="text/css">*{stroke-linejoin: round; stroke-linecap: butt}</style>
 </defs>
 <g id="figure_1">
  <g id="patch_1">
   <path d="M 0 345.6 
L 460.8 345.6 
L 460.8 0 
L 0 0 
z
" style="fill: #ffffff"/>
  </g>
  <g id="axes_1">
   <g id="patch_2">
    <path d="M 57.6 307.584 
L 414.72 307.584 
L 414.72 41.472 
L 57.6 41.472 
z
" style="fill: #ffffff"/>
   </g>
   <g id="matplotlib.axis_1">
    <g id="xtick_1">
     <g id="line2d_1">
      <defs>
       <path id="mc60ef438ce" d="M 0 0 
L 0 3.5 
" style="stroke: #000000; stroke-width: 0.8"/>
      </defs>
      <g>
       <use xlink:href="#mc60ef438ce" x="93.628736" y="307.584" style="stroke: #000000; stroke-width: 0.8"/>
      </g>
     </g>
     <g id="text_1">
      <!-- −1000 -->
      <g transform="translate(76.713892 322.182437) scale(0.1 -0.1)">
       <defs>
        <path id="DejaVuSans-2212" d="M 678 2272 
L 4684 2272 
L 4684 1741 
L 678 1741 
L 678 2272 
z
" transform="scale(0.015625)"/>
        <path id="DejaVuSans-31" d="M 794 531 
L 1825 531 
L 1825 4091 
L 703 3866 
L 703 4441 
L 1819 4666 
L 2450 4666 
L 2450 531 
L 3481 531 
L 3481 0 
L 794 0 
L 794 531 
z
" transform="scale(0.015625)"/>
        <path id="DejaVuSans-30" d="M 2034 4250 
Q 1547 4250 1301 3770 
Q 1056 3291 1056 2328 
Q 1056 1369 1301 889 
Q 1547 409 2034 409 
Q 2525 409 2770 889 
Q 3016 1369 3016 2328 
Q 3016 3291 2770 3770 
Q 2525 4250 2034 4250 
z
M 2034 4750 
Q 2819 4750 3233 4129 
Q 3647 3509 3647 2328 
Q 3647 1150 3233 529 
Q 2819 -91 2034 -91 
Q 1250 -91 836 529 
Q 422 1150 422 2328 
Q 422 3509 836 4129 
Q 1250 4750 2034 4750 
z
" transform="scale(0.015625)"/>
       </defs>
       <use xlink:href="#DejaVuSans-2212"/>
       <use xlink:href="#DejaVuSans-31" x="83.789062"/>
       <use xlink:href="#DejaVuSans-30" x="147.412109"/>
       <use xlink:href="#DejaVuSans-30" x="211.035156"/>
       <use xlink:href="#DejaVuSans-30" x="274.658203"/>
      </g>
     </g>
    </g>
    <g id="xtick_2">
     <g id="line2d_2">
      <g>
       <use xlink:href="#mc60ef438ce" x="154.539533" y="307.584" style="stroke: #000000; stroke-width: 0.8"/>
      </g>
     </g>
     <g id="text_2">
      <!-- −800 -->
      <g transform="translate(140.805939 322.182437) scale(0.1 -0.1)">
       <defs>
        <path id="DejaVuSans-38" d="M 2034 2216 
Q 1584 2216 1326 1975 
Q 1069 1734 1069 1313 
Q 1069 891 1326 650 
Q 1584 409 2034 409 
Q 2484 409 2743 651 
Q 3003 894 3003 1313 
Q 3003 1734 2745 1975 
Q 2488 2216 2034 2216 
z
M 1403 2484 
Q 997 2584 770 2862 
Q 544 3141 544 3541 
Q 544 4100 942 4425 
Q 1341 4750 2034 4750 
Q 2731 4750 3128 4425 
Q 3525 4100 3525 3541 
Q 3525 3141 3298 2862 
Q 3072 2584 2669 2484 
Q 3125 2378 3379 2068 
Q 3634 1759 3634 1313 
Q 3634 634 3220 271 
Q 2806 -91 2034 -91 
Q 1263 -91 848 271 
Q 434 634 434 1313 
Q 434 1759 690 2068 
Q 947 2378 1403 2484 
z
M 1172 3481 
Q 1172 3119 1398 2916 
Q 1625 2713 2034 2713 
Q 2441 2713 2670 2916 
Q 2900 3119 2900 3481 
Q 2900 3844 2670 4047 
Q 2441 4250 2034 4250 
Q 1625 4250 1398 4047 
Q 1172 3844 1172 3481 
z
" transform="scale(0.015625)"/>
       </defs>
       <use xlink:href="#DejaVuSans-2212"/>
       <use xlink:href="#DejaVuSans-38" x="83.789062"/>
       <use xlink:href="#DejaVuSans-30" x="147.412109"/>
       <use xlink:href="#DejaVuSans-30" x="211.035156"/>
      </g>
     </g>
    </g>
    <g id="xtick_3">
     <g id="line2d_3">
      <g>
       <use xlink:href="#mc60ef438ce" x="215.450329" y="307.584" style="stroke: #000000; stroke-width: 0.8"/>
      </g>
     </g>
     <g id="text_3">
      <!-- −600 -->
      <g transform="translate(201.716735 322.182437) scale(0.1 -0.1)">
       <defs>
        <path id="DejaVuSans-36" d="M 2113 2584 
Q 1688 2584 1439 2293 
Q 1191 2003 1191 1497 
Q 1191 994 1439 701 
Q 1688 409 2113 409 
Q 2538 409 2786 701 
Q 3034 994 3034 1497 
Q 3034 2003 2786 2293 
Q 2538 2584 2113 2584 
z
M 3366 4563 
L 3366 3988 
Q 3128 4100 2886 4159 
Q 2644 4219 2406 4219 
Q 1781 4219 1451 3797 
Q 1122 3375 1075 2522 
Q 1259 2794 1537 2939 
Q 1816 3084 2150 3084 
Q 2853 3084 3261 2657 
Q 3669 2231 3669 1497 
Q 3669 778 3244 343 
Q 2819 -91 2113 -91 
Q 1303 -91 875 529 
Q 447 1150 447 2328 
Q 447 3434 972 4092 
Q 1497 4750 2381 4750 
Q 2619 4750 2861 4703 
Q 3103 4656 3366 4563 
z
" transform="scale(0.015625)"/>
       </defs>
       <use xlink:href="#DejaVuSans-2212"/>
       <use xlink:href="#DejaVuSans-36" x="83.789062"/>
       <use xlink:href="#DejaVuSans-30" x="147.412109"/>
       <use xlink:href="#DejaVuSans-30" x="211.035156"/>
      </g>
     </g>
    </g>
    <g id="xtick_4">
     <g id="line2d_4">
      <g>
       <use xlink:href="#mc60ef438ce" x="276.361126" y="307.584" style="stroke: #000000; stroke-width: 0.8"/>
      </g>
     </g>
     <g id="text_4">
      <!-- −400 -->
      <g transform="translate(262.627532 322.182437) scale(0.1 -0.1)">
       <defs>
        <path id="DejaVuSans-34" d="M 2419 4116 
L 825 1625 
L 2419 1625 
L 2419 4116 
z
M 2253 4666 
L 3047 4666 
L 3047 1625 
L 3713 1625 
L 3713 1100 
L 3047 1100 
L 3047 0 
L 2419 0 
L 2419 1100 
L 313 1100 
L 313 1709 
L 2253 4666 
z
" transform="scale(0.015625)"/>
       </defs>
       <use xlink:href="#DejaVuSans-2212"/>
       <use xlink:href="#DejaVuSans-34" x="83.789062"/>
       <use xlink:href="#DejaVuSans-30" x="147.412109"/>
       <use xlink:href="#DejaVuSans-30" x="211.035156"/>
      </g>
     </g>
    </g>
    <g id="xtick_5">
     <g id="line2d_5">
      <g>
       <use xlink:href="#mc60ef438ce" x="337.271922" y="307.584" style="stroke: #000000; stroke-width: 0.8"/>
      </g>
     </g>
     <g id="text_5">
      <!-- −200 -->
      <g transform="translate(323.538328 322.182437) scale(0.1 -0.1)">
       <defs>
        <path id="DejaVuSans-32" d="M 1228 531 
L 3431 531 
L 3431 0 
L 469 0 
L 469 531 
Q 828 903 1448 1529 
Q 2069 2156 2228 2338 
Q 2531 2678 2651 2914 
Q 2772 3150 2772 3378 
Q 2772 3750 2511 3984 
Q 2250 4219 1831 4219 
Q 1534 4219 1204 4116 
Q 875 4013 500 3803 
L 500 4441 
Q 881 4594 1212 4672 
Q 1544 4750 1819 4750 
Q 2544 4750 2975 4387 
Q 3406 4025 3406 3419 
Q 3406 3131 3298 2873 
Q 3191 2616 2906 2266 
Q 2828 2175 2409 1742 
Q 1991 1309 1228 531 
z
" transform="scale(0.015625)"/>
       </defs>
       <use xlink:href="#DejaVuSans-2212"/>
       <use xlink:href="#DejaVuSans-32" x="83.789062"/>
       <use xlink:href="#DejaVuSans-30" x="147.412109"/>
       <use xlink:href="#DejaVuSans-30" x="211.035156"/>
      </g>
     </g>
    </g>
    <g id="xtick_6">
     <g id="line2d_6">
      <g>
       <use xlink:href="#mc60ef438ce" x="398.182719" y="307.584" style="stroke: #000000; stroke-width: 0.8"/>
      </g>
     </g>
     <g id="text_6">
      <!-- 0 -->
      <g transform="translate(395.001469 322.182437) scale(0.1 -0.1)">
       <use xlink:href="#DejaVuSans-30"/>
      </g>
     </g>
    </g>
   </g>
   <g id="matplotlib.axis_2">
    <g id="ytick_1">
     <g id="line2d_7">
      <defs>
       <path id="me1e8824163" d="M 0 0 
L -3.5 0 
" style="stroke: #000000; stroke-width: 0.8"/>
      </defs>
      <g>
       <use xlink:href="#me1e8824163" x="57.6" y="295.632301" style="stroke: #000000; stroke-width: 0.8"/>
      </g>
     </g>
     <g id="text_7">
      <!-- 0.0 -->
      <g transform="translate(34.696875 299.431519) scale(0.1 -0.1)">
       <defs>
        <path id="DejaVuSans-2e" d="M 684 794 
L 1344 794 
L 1344 0 
L 684 0 
L 684 794 
z
" transform="scale(0.015625)"/>
       </defs>
       <use xlink:href="#DejaVuSans-30"/>
       <use xlink:href="#DejaVuSans-2e" x="63.623047"/>
       <use xlink:href="#DejaVuSans-30" x="95.410156"/>
      </g>
     </g>
    </g>
    <g id="ytick_2">
     <g id="line2d_8">
      <g>
       <use xlink:href="#me1e8824163" x="57.6" y="247.219441" style="stroke: #000000; stroke-width: 0.8"/>
      </g>
     </g>
     <g id="text_8">
      <!-- 0.2 -->
      <g transform="translate(34.696875 251.018659) scale(0.1 -0.1)">
       <use xlink:href="#DejaVuSans-30"/>
       <use xlink:href="#DejaVuSans-2e" x="63.623047"/>
       <use xlink:href="#DejaVuSans-32" x="95.410156"/>
      </g>
     </g>
    </g>
    <g id="ytick_3">
     <g id="line2d_9">
      <g>
       <use xlink:href="#me1e8824163" x="57.6" y="198.80658" style="stroke: #000000; stroke-width: 0.8"/>
      </g>
     </g>
     <g id="text_9">
      <!-- 0.4 -->
      <g transform="translate(34.696875 202.605799) scale(0.1 -0.1)">
       <use xlink:href="#DejaVuSans-30"/>
       <use xlink:href="#DejaVuSans-2e" x="63.623047"/>
       <use xlink:href="#DejaVuSans-34" x="95.410156"/>
      </g>
     </g>
    </g>
    <g id="ytick_4">
     <g id="line2d_10">
      <g>
       <use xlink:href="#me1e8824163" x="57.6" y="150.39372" style="stroke: #000000; stroke-width: 0.8"/>
      </g>
     </g>
     <g id="text_10">
      <!-- 0.6 -->
      <g transform="translate(34.696875 154.192939) scale(0.1 -0.1)">
       <use xlink:href="#DejaVuSans-30"/>
       <use xlink:href="#DejaVuSans-2e" x="63.623047"/>
       <use xlink:href="#DejaVuSans-36" x="95.410156"/>
      </g>
     </g>
    </g>
    <g id="ytick_5">
     <g id="line2d_11">
      <g>
       <use xlink:href="#me1e8824163" x="57.6" y="101.98086" style="stroke: #000000; stroke-width: 0.8"/>
      </g>
     </g>
     <g id="text_11">
      <!-- 0.8 -->
      <g transform="translate(34.696875 105.780079) scale(0.1 -0.1)">
       <use xlink:href="#DejaVuSans-30"/>
       <use xlink:href="#DejaVuSans-2e" x="63.623047"/>
       <use xlink:href="#DejaVuSans-38" x="95.410156"/>
      </g>
     </g>
    </g>
    <g id="ytick_6">
     <g id="line2d_12">
      <g>
       <use xlink:href="#me1e8824163" x="57.6" y="53.568" style="stroke: #000000; stroke-width: 0.8"/>
      </g>
     </g>
     <g id="text_12">
      <!-- 1.0 -->
      <g transform="translate(34.696875 57.367219) scale(0.1 -0.1)">
       <use xlink:href="#DejaVuSans-31"/>
       <use xlink:href="#DejaVuSans-2e" x="63.623047"/>
       <use xlink:href="#DejaVuSans-30" x="95.410156"/>
      </g>
     </g>
    </g>
   </g>
   <g id="line2d_13">
    <path d="M 398.182719 54.000902 
L 73.832727 54.000902 
L 73.832727 295.488 
L 73.832727 295.488 
L 74.137281 295.488 
L 74.137281 295.271549 
L 74.137281 295.271549 
L 74.441835 295.271549 
L 74.441835 295.055098 
L 74.441835 295.055098 
L 74.746389 295.055098 
L 74.746389 294.838647 
L 74.746389 294.838647 
L 75.050943 294.838647 
L 75.050943 294.622196 
L 75.050943 294.622196 
L 75.355497 294.622196 
L 75.355497 294.405745 
L 75.355497 294.405745 
L 75.660051 294.405745 
L 75.660051 294.189294 
L 75.660051 294.189294 
L 75.964605 294.189294 
L 75.964605 293.972843 
L 75.964605 293.972843 
L 76.269159 293.972843 
L 76.269159 293.756392 
L 76.269159 293.756392 
L 76.573713 293.756392 
L 76.573713 293.539942 
L 76.573713 293.539942 
L 76.878267 293.539942 
L 76.878267 293.323491 
L 76.878267 293.323491 
L 77.182821 293.323491 
L 77.182821 293.10704 
L 77.182821 293.10704 
L 77.487375 293.10704 
L 77.487375 292.890589 
L 77.487375 292.890589 
L 77.791929 292.890589 
L 77.791929 292.674138 
L 77.791929 292.674138 
L 78.096483 292.674138 
L 78.096483 292.529837 
L 78.096483 292.529837 
L 78.705591 292.457687 
L 78.705591 292.313386 
L 78.705591 292.313386 
L 79.010145 292.313386 
L 79.010145 292.169086 
L 79.010145 292.169086 
L 79.619253 292.096935 
L 79.619253 292.024785 
L 80.228361 291.952635 
L 80.228361 291.880484 
L 80.837469 291.808334 
L 80.837469 291.736184 
L 81.446577 291.664033 
L 81.446577 291.591883 
L 82.055685 291.519733 
L 82.055685 291.447582 
L 82.664793 291.375432 
L 82.664793 291.303282 
L 83.273901 291.231132 
L 83.273901 291.158981 
L 83.883009 291.086831 
L 83.883009 291.014681 
L 84.187563 291.014681 
L 84.187563 290.87038 
L 84.187563 290.87038 
L 84.492117 290.87038 
L 84.492117 290.365328 
L 84.492117 290.365328 
L 84.796671 290.365328 
L 84.796671 289.788125 
L 84.796671 289.788125 
L 85.101225 289.788125 
L 85.101225 289.571674 
L 85.101225 289.571674 
L 85.405779 289.571674 
L 85.405779 289.355223 
L 85.405779 289.355223 
L 85.710333 289.355223 
L 85.710333 289.138772 
L 85.710333 289.138772 
L 86.014887 289.138772 
L 86.014887 288.922322 
L 86.014887 288.922322 
L 86.319441 288.922322 
L 86.319441 288.705871 
L 86.319441 288.705871 
L 86.623995 288.705871 
L 86.623995 288.48942 
L 86.623995 288.48942 
L 86.928549 288.48942 
L 86.928549 288.272969 
L 86.928549 288.272969 
L 87.233103 288.272969 
L 87.233103 288.056518 
L 87.233103 288.056518 
L 87.537656 288.056518 
L 87.537656 287.840067 
L 87.537656 287.840067 
L 87.84221 287.840067 
L 87.84221 287.623616 
L 87.84221 287.623616 
L 88.146764 287.623616 
L 88.146764 287.335015 
L 88.146764 287.335015 
L 88.451318 287.335015 
L 88.451318 287.046413 
L 88.451318 287.046413 
L 88.755872 287.046413 
L 88.755872 286.829962 
L 88.755872 286.829962 
L 89.060426 286.829962 
L 89.060426 286.541361 
L 89.060426 286.541361 
L 89.36498 286.541361 
L 89.36498 286.32491 
L 89.36498 286.32491 
L 89.669534 286.32491 
L 89.669534 286.036309 
L 89.669534 286.036309 
L 89.974088 286.036309 
L 89.974088 285.819858 
L 89.974088 285.819858 
L 90.278642 285.819858 
L 90.278642 285.603407 
L 90.278642 285.603407 
L 90.583196 285.603407 
L 90.583196 285.386956 
L 90.583196 285.386956 
L 90.88775 285.386956 
L 90.88775 285.026205 
L 90.88775 285.026205 
L 91.192304 285.026205 
L 91.192304 284.088251 
L 91.192304 284.088251 
L 91.496858 284.088251 
L 91.496858 283.222447 
L 91.496858 283.222447 
L 91.801412 283.222447 
L 91.801412 282.861695 
L 91.801412 282.861695 
L 92.105966 282.861695 
L 92.105966 282.500944 
L 92.105966 282.500944 
L 92.41052 282.500944 
L 92.41052 282.140192 
L 92.41052 282.140192 
L 92.715074 282.140192 
L 92.715074 281.274388 
L 92.715074 281.274388 
L 93.019628 281.274388 
L 93.019628 280.480735 
L 93.019628 280.480735 
L 93.324182 280.480735 
L 93.324182 280.264284 
L 93.324182 280.264284 
L 93.628736 280.264284 
L 93.628736 280.047833 
L 93.628736 280.047833 
L 93.93329 280.047833 
L 93.93329 279.831382 
L 93.93329 279.831382 
L 94.237844 279.831382 
L 94.237844 279.614931 
L 94.237844 279.614931 
L 94.542398 279.614931 
L 94.542398 279.39848 
L 94.542398 279.39848 
L 94.846952 279.39848 
L 94.846952 279.25418 
L 94.846952 279.25418 
L 95.151506 279.25418 
L 95.151506 279.109879 
L 95.151506 279.109879 
L 95.45606 279.109879 
L 95.45606 278.893428 
L 95.45606 278.893428 
L 95.760614 278.893428 
L 95.760614 278.676977 
L 95.760614 278.676977 
L 96.065168 278.676977 
L 96.065168 278.460526 
L 96.065168 278.460526 
L 96.369722 278.460526 
L 96.369722 278.244075 
L 96.369722 278.244075 
L 96.674276 278.244075 
L 96.674276 278.027624 
L 96.674276 278.027624 
L 96.97883 278.027624 
L 96.97883 277.811173 
L 96.97883 277.811173 
L 97.283384 277.811173 
L 97.283384 277.594722 
L 97.283384 277.594722 
L 97.587938 277.594722 
L 97.587938 277.378271 
L 97.587938 277.378271 
L 97.892492 277.378271 
L 97.892492 277.16182 
L 97.892492 277.16182 
L 98.197046 277.16182 
L 98.197046 276.94537 
L 98.197046 276.94537 
L 98.5016 276.94537 
L 98.5016 276.728919 
L 98.5016 276.728919 
L 98.806154 276.728919 
L 98.806154 276.512468 
L 98.806154 276.512468 
L 99.110708 276.512468 
L 99.110708 276.296017 
L 99.110708 276.296017 
L 99.415262 276.296017 
L 99.415262 276.079566 
L 99.415262 276.079566 
L 99.719816 276.079566 
L 99.719816 275.863115 
L 99.719816 275.863115 
L 100.02437 275.863115 
L 100.02437 275.646664 
L 100.02437 275.646664 
L 100.328924 275.646664 
L 100.328924 275.430213 
L 100.328924 275.430213 
L 100.633478 275.430213 
L 100.633478 275.213762 
L 100.633478 275.213762 
L 100.938032 275.213762 
L 100.938032 274.997311 
L 100.938032 274.997311 
L 101.242586 274.997311 
L 101.242586 274.78086 
L 101.242586 274.78086 
L 101.54714 274.78086 
L 101.54714 274.564409 
L 101.54714 274.564409 
L 101.851694 274.564409 
L 101.851694 274.347958 
L 101.851694 274.347958 
L 102.156248 274.347958 
L 102.156248 274.131507 
L 102.156248 274.131507 
L 102.460802 274.131507 
L 102.460802 273.915056 
L 102.460802 273.915056 
L 102.765356 273.915056 
L 102.765356 273.698605 
L 102.765356 273.698605 
L 103.06991 273.698605 
L 103.06991 273.482154 
L 103.06991 273.482154 
L 103.374464 273.482154 
L 103.374464 273.265704 
L 103.374464 273.265704 
L 103.679018 273.265704 
L 103.679018 273.049253 
L 103.679018 273.049253 
L 103.983572 273.049253 
L 103.983572 272.832802 
L 103.983572 272.832802 
L 104.288126 272.832802 
L 104.288126 272.616351 
L 104.288126 272.616351 
L 104.59268 272.616351 
L 104.59268 272.3999 
L 104.59268 272.3999 
L 104.897233 272.3999 
L 104.897233 272.183449 
L 104.897233 272.183449 
L 105.201787 272.183449 
L 105.201787 271.966998 
L 105.201787 271.966998 
L 105.506341 271.966998 
L 105.506341 271.750547 
L 105.506341 271.750547 
L 105.810895 271.750547 
L 105.810895 271.534096 
L 105.810895 271.534096 
L 106.115449 271.534096 
L 106.115449 271.317645 
L 106.115449 271.317645 
L 106.420003 271.317645 
L 106.420003 271.173344 
L 106.420003 271.173344 
L 106.724557 271.173344 
L 106.724557 270.956894 
L 106.724557 270.956894 
L 107.029111 270.956894 
L 107.029111 270.740443 
L 107.029111 270.740443 
L 107.638219 270.668292 
L 107.638219 270.596142 
L 107.942773 270.596142 
L 107.942773 270.379691 
L 107.942773 270.379691 
L 108.247327 270.379691 
L 108.247327 270.16324 
L 108.247327 270.16324 
L 108.856435 270.09109 
L 108.856435 270.018939 
L 109.160989 270.018939 
L 109.160989 269.802489 
L 109.160989 269.802489 
L 109.465543 269.802489 
L 109.465543 269.513887 
L 109.465543 269.513887 
L 109.770097 269.513887 
L 109.770097 269.369587 
L 109.770097 269.369587 
L 110.379205 269.297436 
L 110.379205 269.080985 
L 110.379205 269.080985 
L 110.683759 269.080985 
L 110.683759 268.864534 
L 110.683759 268.864534 
L 111.292867 268.792384 
L 111.292867 268.720234 
L 111.597421 268.720234 
L 111.597421 268.503783 
L 111.597421 268.503783 
L 111.901975 268.503783 
L 111.901975 268.287332 
L 111.901975 268.287332 
L 112.511083 268.215182 
L 112.511083 268.143031 
L 113.120191 268.070881 
L 113.120191 267.998731 
L 113.424745 267.998731 
L 113.424745 267.85443 
L 113.424745 267.85443 
L 113.729299 267.85443 
L 113.729299 267.710129 
L 113.729299 267.710129 
L 114.338407 267.637979 
L 114.338407 267.565829 
L 114.947515 267.493678 
L 114.947515 267.421528 
L 115.252069 267.421528 
L 115.252069 267.277228 
L 115.252069 267.277228 
L 115.556623 267.277228 
L 115.556623 267.132927 
L 115.556623 267.132927 
L 116.165731 267.060777 
L 116.165731 266.988626 
L 116.774839 266.916476 
L 116.774839 266.844326 
L 117.383947 266.772175 
L 117.383947 266.700025 
L 117.993055 266.627875 
L 117.993055 266.555724 
L 118.602163 266.483574 
L 118.602163 266.411424 
L 118.906717 266.411424 
L 118.906717 266.267123 
L 118.906717 266.267123 
L 119.211271 266.267123 
L 119.211271 266.050672 
L 119.211271 266.050672 
L 119.515825 266.050672 
L 119.515825 265.834221 
L 119.515825 265.834221 
L 119.820379 265.834221 
L 119.820379 265.61777 
L 119.820379 265.61777 
L 120.124933 265.61777 
L 120.124933 265.47347 
L 120.124933 265.47347 
L 120.734041 265.401319 
L 120.734041 265.257019 
L 120.734041 265.257019 
L 121.038595 265.257019 
L 121.038595 264.968418 
L 121.038595 264.968418 
L 121.343149 264.968418 
L 121.343149 264.607666 
L 121.343149 264.607666 
L 121.647703 264.607666 
L 121.647703 264.174764 
L 121.647703 264.174764 
L 121.952257 264.174764 
L 121.952257 263.741862 
L 121.952257 263.741862 
L 122.256811 263.741862 
L 122.256811 263.381111 
L 122.256811 263.381111 
L 122.561364 263.381111 
L 122.561364 263.020359 
L 122.561364 263.020359 
L 122.865918 263.020359 
L 122.865918 262.659608 
L 122.865918 262.659608 
L 123.170472 262.659608 
L 123.170472 262.298856 
L 123.170472 262.298856 
L 123.475026 262.298856 
L 123.475026 261.938104 
L 123.475026 261.938104 
L 123.77958 261.938104 
L 123.77958 261.505203 
L 123.77958 261.505203 
L 124.084134 261.505203 
L 124.084134 261.00015 
L 124.084134 261.00015 
L 124.388688 261.00015 
L 124.388688 259.773595 
L 124.388688 259.773595 
L 124.693242 259.773595 
L 124.693242 258.54704 
L 124.693242 258.54704 
L 124.997796 258.54704 
L 124.997796 258.114138 
L 124.997796 258.114138 
L 125.30235 258.114138 
L 125.30235 257.609086 
L 125.30235 257.609086 
L 125.606904 257.609086 
L 125.606904 257.031883 
L 125.606904 257.031883 
L 125.911458 257.031883 
L 125.911458 256.526831 
L 125.911458 256.526831 
L 126.216012 256.526831 
L 126.216012 256.021779 
L 126.216012 256.021779 
L 126.520566 256.021779 
L 126.520566 255.516727 
L 126.520566 255.516727 
L 126.82512 255.516727 
L 126.82512 254.650923 
L 126.82512 254.650923 
L 127.129674 254.650923 
L 127.129674 253.92942 
L 127.129674 253.92942 
L 127.434228 253.92942 
L 127.434228 253.712969 
L 127.434228 253.712969 
L 127.738782 253.712969 
L 127.738782 253.496518 
L 127.738782 253.496518 
L 128.043336 253.496518 
L 128.043336 253.280067 
L 128.043336 253.280067 
L 128.34789 253.280067 
L 128.34789 253.063616 
L 128.34789 253.063616 
L 128.652444 253.063616 
L 128.652444 252.847165 
L 128.652444 252.847165 
L 128.956998 252.847165 
L 128.956998 252.630714 
L 128.956998 252.630714 
L 129.261552 252.630714 
L 129.261552 252.414263 
L 129.261552 252.414263 
L 129.566106 252.414263 
L 129.566106 252.197812 
L 129.566106 252.197812 
L 129.87066 252.197812 
L 129.87066 251.981361 
L 129.87066 251.981361 
L 130.175214 251.981361 
L 130.175214 251.76491 
L 130.175214 251.76491 
L 130.479768 251.76491 
L 130.479768 251.548459 
L 130.479768 251.548459 
L 130.784322 251.548459 
L 130.784322 251.332008 
L 130.784322 251.332008 
L 131.088876 251.332008 
L 131.088876 251.115557 
L 131.088876 251.115557 
L 131.39343 251.115557 
L 131.39343 250.899106 
L 131.39343 250.899106 
L 131.697984 250.899106 
L 131.697984 250.682656 
L 131.697984 250.682656 
L 132.002538 250.682656 
L 132.002538 250.466205 
L 132.002538 250.466205 
L 132.307092 250.466205 
L 132.307092 250.249754 
L 132.307092 250.249754 
L 132.611646 250.249754 
L 132.611646 250.033303 
L 132.611646 250.033303 
L 132.9162 250.033303 
L 132.9162 249.816852 
L 132.9162 249.816852 
L 133.220754 249.816852 
L 133.220754 249.600401 
L 133.220754 249.600401 
L 133.525308 249.600401 
L 133.525308 249.38395 
L 133.525308 249.38395 
L 133.829862 249.38395 
L 133.829862 249.167499 
L 133.829862 249.167499 
L 134.134416 249.167499 
L 134.134416 248.951048 
L 134.134416 248.951048 
L 134.43897 248.951048 
L 134.43897 248.734597 
L 134.43897 248.734597 
L 134.743524 248.734597 
L 134.743524 248.518146 
L 134.743524 248.518146 
L 135.048078 248.518146 
L 135.048078 248.301695 
L 135.048078 248.301695 
L 135.352632 248.301695 
L 135.352632 248.085244 
L 135.352632 248.085244 
L 135.657186 248.085244 
L 135.657186 247.868793 
L 135.657186 247.868793 
L 135.96174 247.868793 
L 135.96174 247.652342 
L 135.96174 247.652342 
L 136.266294 247.652342 
L 136.266294 247.435891 
L 136.266294 247.435891 
L 136.570848 247.435891 
L 136.570848 247.219441 
L 136.570848 247.219441 
L 136.875402 247.219441 
L 136.875402 247.00299 
L 136.875402 247.00299 
L 137.179956 247.00299 
L 137.179956 246.786539 
L 137.179956 246.786539 
L 137.48451 246.786539 
L 137.48451 246.570088 
L 137.48451 246.570088 
L 137.789064 246.570088 
L 137.789064 246.353637 
L 137.789064 246.353637 
L 138.093618 246.353637 
L 138.093618 246.137186 
L 138.093618 246.137186 
L 138.398172 246.137186 
L 138.398172 245.920735 
L 138.398172 245.920735 
L 138.702726 245.920735 
L 138.702726 245.704284 
L 138.702726 245.704284 
L 139.00728 245.704284 
L 139.00728 245.487833 
L 139.00728 245.487833 
L 139.311834 245.487833 
L 139.311834 245.271382 
L 139.311834 245.271382 
L 139.616388 245.271382 
L 139.616388 245.054931 
L 139.616388 245.054931 
L 139.920941 245.054931 
L 139.920941 244.83848 
L 139.920941 244.83848 
L 140.225495 244.83848 
L 140.225495 244.622029 
L 140.225495 244.622029 
L 140.530049 244.622029 
L 140.530049 244.405578 
L 140.530049 244.405578 
L 140.834603 244.405578 
L 140.834603 244.189127 
L 140.834603 244.189127 
L 141.139157 244.189127 
L 141.139157 243.972676 
L 141.139157 243.972676 
L 141.443711 243.972676 
L 141.443711 243.756225 
L 141.443711 243.756225 
L 141.748265 243.756225 
L 141.748265 243.539775 
L 141.748265 243.539775 
L 142.052819 243.539775 
L 142.052819 243.323324 
L 142.052819 243.323324 
L 142.357373 243.323324 
L 142.357373 243.106873 
L 142.357373 243.106873 
L 142.661927 243.106873 
L 142.661927 242.890422 
L 142.661927 242.890422 
L 142.966481 242.890422 
L 142.966481 242.60182 
L 142.966481 242.60182 
L 143.271035 242.60182 
L 143.271035 242.313219 
L 143.271035 242.313219 
L 143.575589 242.313219 
L 143.575589 242.096768 
L 143.575589 242.096768 
L 143.880143 242.096768 
L 143.880143 241.880317 
L 143.880143 241.880317 
L 144.184697 241.880317 
L 144.184697 241.736017 
L 144.184697 241.736017 
L 144.489251 241.736017 
L 144.489251 241.519566 
L 144.489251 241.519566 
L 144.793805 241.519566 
L 144.793805 241.230965 
L 144.793805 241.230965 
L 145.098359 241.230965 
L 145.098359 241.014514 
L 145.098359 241.014514 
L 145.402913 241.014514 
L 145.402913 240.798063 
L 145.402913 240.798063 
L 145.707467 240.798063 
L 145.707467 240.581612 
L 145.707467 240.581612 
L 146.012021 240.581612 
L 146.012021 240.365161 
L 146.012021 240.365161 
L 146.316575 240.365161 
L 146.316575 240.14871 
L 146.316575 240.14871 
L 146.621129 240.14871 
L 146.621129 239.932259 
L 146.621129 239.932259 
L 146.925683 239.932259 
L 146.925683 239.715808 
L 146.925683 239.715808 
L 147.230237 239.715808 
L 147.230237 239.499357 
L 147.230237 239.499357 
L 147.534791 239.499357 
L 147.534791 239.282906 
L 147.534791 239.282906 
L 147.839345 239.282906 
L 147.839345 239.066455 
L 147.839345 239.066455 
L 148.143899 239.066455 
L 148.143899 238.850004 
L 148.143899 238.850004 
L 148.448453 238.850004 
L 148.448453 238.633553 
L 148.448453 238.633553 
L 148.753007 238.633553 
L 148.753007 238.417102 
L 148.753007 238.417102 
L 149.057561 238.417102 
L 149.057561 238.200651 
L 149.057561 238.200651 
L 149.362115 238.200651 
L 149.362115 237.9842 
L 149.362115 237.9842 
L 149.666669 237.9842 
L 149.666669 237.767749 
L 149.666669 237.767749 
L 149.971223 237.767749 
L 149.971223 237.551299 
L 149.971223 237.551299 
L 150.275777 237.551299 
L 150.275777 237.334848 
L 150.275777 237.334848 
L 150.580331 237.334848 
L 150.580331 237.118397 
L 150.580331 237.118397 
L 150.884885 237.118397 
L 150.884885 236.901946 
L 150.884885 236.901946 
L 151.189439 236.901946 
L 151.189439 236.541194 
L 151.189439 236.541194 
L 151.493993 236.541194 
L 151.493993 236.180443 
L 151.493993 236.180443 
L 151.798547 236.180443 
L 151.798547 236.036142 
L 151.798547 236.036142 
L 152.103101 236.036142 
L 152.103101 235.891841 
L 152.103101 235.891841 
L 152.407655 235.891841 
L 152.407655 235.67539 
L 152.407655 235.67539 
L 152.712209 235.67539 
L 152.712209 235.53109 
L 152.712209 235.53109 
L 153.321317 235.458939 
L 153.321317 235.386789 
L 153.930425 235.314639 
L 153.930425 235.242489 
L 154.539533 235.170338 
L 154.539533 235.026038 
L 154.539533 235.026038 
L 154.844087 235.026038 
L 154.844087 234.809587 
L 154.844087 234.809587 
L 155.148641 234.809587 
L 155.148641 234.593136 
L 155.148641 234.593136 
L 155.453195 234.593136 
L 155.453195 234.376685 
L 155.453195 234.376685 
L 155.757749 234.376685 
L 155.757749 234.160234 
L 155.757749 234.160234 
L 156.062303 234.160234 
L 156.062303 233.943783 
L 156.062303 233.943783 
L 156.366857 233.943783 
L 156.366857 233.727332 
L 156.366857 233.727332 
L 156.671411 233.727332 
L 156.671411 233.510881 
L 156.671411 233.510881 
L 156.975965 233.510881 
L 156.975965 233.29443 
L 156.975965 233.29443 
L 157.280519 233.29443 
L 157.280519 233.077979 
L 157.280519 233.077979 
L 157.585072 233.077979 
L 157.585072 232.861528 
L 157.585072 232.861528 
L 157.889626 232.861528 
L 157.889626 232.572927 
L 157.889626 232.572927 
L 158.19418 232.572927 
L 158.19418 232.284326 
L 158.19418 232.284326 
L 158.498734 232.284326 
L 158.498734 232.067875 
L 158.498734 232.067875 
L 158.803288 232.067875 
L 158.803288 231.851424 
L 158.803288 231.851424 
L 159.107842 231.851424 
L 159.107842 231.634973 
L 159.107842 231.634973 
L 159.412396 231.634973 
L 159.412396 231.418522 
L 159.412396 231.418522 
L 159.71695 231.418522 
L 159.71695 231.202071 
L 159.71695 231.202071 
L 160.021504 231.202071 
L 160.021504 231.05777 
L 160.021504 231.05777 
L 160.326058 231.05777 
L 160.326058 230.841319 
L 160.326058 230.841319 
L 160.630612 230.841319 
L 160.630612 230.552718 
L 160.630612 230.552718 
L 160.935166 230.552718 
L 160.935166 230.336267 
L 160.935166 230.336267 
L 161.23972 230.336267 
L 161.23972 230.119816 
L 161.23972 230.119816 
L 161.544274 230.119816 
L 161.544274 229.903365 
L 161.544274 229.903365 
L 161.848828 229.903365 
L 161.848828 229.686914 
L 161.848828 229.686914 
L 162.153382 229.686914 
L 162.153382 229.470463 
L 162.153382 229.470463 
L 162.457936 229.470463 
L 162.457936 229.254013 
L 162.457936 229.254013 
L 162.76249 229.254013 
L 162.76249 229.037562 
L 162.76249 229.037562 
L 163.067044 229.037562 
L 163.067044 228.821111 
L 163.067044 228.821111 
L 163.371598 228.821111 
L 163.371598 228.60466 
L 163.371598 228.60466 
L 163.676152 228.60466 
L 163.676152 228.388209 
L 163.676152 228.388209 
L 163.980706 228.388209 
L 163.980706 228.171758 
L 163.980706 228.171758 
L 164.28526 228.171758 
L 164.28526 227.883157 
L 164.28526 227.883157 
L 164.589814 227.883157 
L 164.589814 227.594555 
L 164.589814 227.594555 
L 164.894368 227.594555 
L 164.894368 227.378104 
L 164.894368 227.378104 
L 165.198922 227.378104 
L 165.198922 227.161653 
L 165.198922 227.161653 
L 165.503476 227.161653 
L 165.503476 226.945203 
L 165.503476 226.945203 
L 165.80803 226.945203 
L 165.80803 226.728752 
L 165.80803 226.728752 
L 166.112584 226.728752 
L 166.112584 226.512301 
L 166.112584 226.512301 
L 166.417138 226.512301 
L 166.417138 226.368 
L 166.417138 226.368 
L 166.721692 226.368 
L 166.721692 226.151549 
L 166.721692 226.151549 
L 167.026246 226.151549 
L 167.026246 225.862948 
L 167.026246 225.862948 
L 167.3308 225.862948 
L 167.3308 225.646497 
L 167.3308 225.646497 
L 167.635354 225.646497 
L 167.635354 225.430046 
L 167.635354 225.430046 
L 167.939908 225.430046 
L 167.939908 225.213595 
L 167.939908 225.213595 
L 168.244462 225.213595 
L 168.244462 224.997144 
L 168.244462 224.997144 
L 168.549016 224.997144 
L 168.549016 224.780693 
L 168.549016 224.780693 
L 168.85357 224.780693 
L 168.85357 224.564242 
L 168.85357 224.564242 
L 169.158124 224.564242 
L 169.158124 224.347791 
L 169.158124 224.347791 
L 169.462678 224.347791 
L 169.462678 224.13134 
L 169.462678 224.13134 
L 169.767232 224.13134 
L 169.767232 223.914889 
L 169.767232 223.914889 
L 170.071786 223.914889 
L 170.071786 223.698438 
L 170.071786 223.698438 
L 170.37634 223.698438 
L 170.37634 223.481987 
L 170.37634 223.481987 
L 170.680894 223.481987 
L 170.680894 223.265537 
L 170.680894 223.265537 
L 170.985448 223.265537 
L 170.985448 223.049086 
L 170.985448 223.049086 
L 171.290002 223.049086 
L 171.290002 222.832635 
L 171.290002 222.832635 
L 171.594556 222.832635 
L 171.594556 222.616184 
L 171.594556 222.616184 
L 171.89911 222.616184 
L 171.89911 222.399733 
L 171.89911 222.399733 
L 172.203664 222.399733 
L 172.203664 222.183282 
L 172.203664 222.183282 
L 172.508218 222.183282 
L 172.508218 221.966831 
L 172.508218 221.966831 
L 172.812772 221.966831 
L 172.812772 221.75038 
L 172.812772 221.75038 
L 173.117326 221.75038 
L 173.117326 221.533929 
L 173.117326 221.533929 
L 173.42188 221.533929 
L 173.42188 221.317478 
L 173.42188 221.317478 
L 173.726434 221.317478 
L 173.726434 221.101027 
L 173.726434 221.101027 
L 174.030988 221.101027 
L 174.030988 220.884576 
L 174.030988 220.884576 
L 174.335542 220.884576 
L 174.335542 220.740276 
L 174.335542 220.740276 
L 174.944649 220.668125 
L 174.944649 220.595975 
L 175.553757 220.523825 
L 175.553757 220.451674 
L 176.162865 220.379524 
L 176.162865 220.307374 
L 176.771973 220.235223 
L 176.771973 220.163073 
L 177.381081 220.090923 
L 177.381081 219.946622 
L 177.381081 219.946622 
L 177.990189 219.874472 
L 177.990189 219.802322 
L 178.599297 219.730171 
L 178.599297 219.658021 
L 179.208405 219.585871 
L 179.208405 219.51372 
L 179.817513 219.44157 
L 179.817513 219.36942 
L 180.426621 219.297269 
L 180.426621 219.225119 
L 180.731175 219.225119 
L 180.731175 218.936518 
L 180.731175 218.936518 
L 181.035729 218.936518 
L 181.035729 218.142864 
L 181.035729 218.142864 
L 181.340283 218.142864 
L 181.340283 217.493511 
L 181.340283 217.493511 
L 181.644837 217.493511 
L 181.644837 217.277061 
L 181.644837 217.277061 
L 181.949391 217.277061 
L 181.949391 217.06061 
L 181.949391 217.06061 
L 182.253945 217.06061 
L 182.253945 216.844159 
L 182.253945 216.844159 
L 182.558499 216.844159 
L 182.558499 216.627708 
L 182.558499 216.627708 
L 182.863053 216.627708 
L 182.863053 216.411257 
L 182.863053 216.411257 
L 183.167607 216.411257 
L 183.167607 216.122656 
L 183.167607 216.122656 
L 183.472161 216.122656 
L 183.472161 215.906205 
L 183.472161 215.906205 
L 183.776715 215.906205 
L 183.776715 215.689754 
L 183.776715 215.689754 
L 184.081269 215.689754 
L 184.081269 215.401152 
L 184.081269 215.401152 
L 184.385823 215.401152 
L 184.385823 215.040401 
L 184.385823 215.040401 
L 184.690377 215.040401 
L 184.690377 214.679649 
L 184.690377 214.679649 
L 184.994931 214.679649 
L 184.994931 214.318898 
L 184.994931 214.318898 
L 185.299485 214.318898 
L 185.299485 213.958146 
L 185.299485 213.958146 
L 185.604039 213.958146 
L 185.604039 213.525244 
L 185.604039 213.525244 
L 185.908593 213.525244 
L 185.908593 212.875891 
L 185.908593 212.875891 
L 186.213147 212.875891 
L 186.213147 212.370839 
L 186.213147 212.370839 
L 186.517701 212.370839 
L 186.517701 212.154388 
L 186.517701 212.154388 
L 186.822255 212.154388 
L 186.822255 211.937937 
L 186.822255 211.937937 
L 187.126809 211.937937 
L 187.126809 211.721486 
L 187.126809 211.721486 
L 187.431363 211.721486 
L 187.431363 211.505035 
L 187.431363 211.505035 
L 187.735917 211.505035 
L 187.735917 211.288585 
L 187.735917 211.288585 
L 188.040471 211.288585 
L 188.040471 211.072134 
L 188.040471 211.072134 
L 188.345025 211.072134 
L 188.345025 210.855683 
L 188.345025 210.855683 
L 188.649579 210.855683 
L 188.649579 210.639232 
L 188.649579 210.639232 
L 188.954133 210.639232 
L 188.954133 210.422781 
L 188.954133 210.422781 
L 189.258687 210.422781 
L 189.258687 210.20633 
L 189.258687 210.20633 
L 189.563241 210.20633 
L 189.563241 209.989879 
L 189.563241 209.989879 
L 189.867795 209.989879 
L 189.867795 209.701278 
L 189.867795 209.701278 
L 190.172349 209.701278 
L 190.172349 209.412676 
L 190.172349 209.412676 
L 190.476903 209.412676 
L 190.476903 209.196225 
L 190.476903 209.196225 
L 190.781457 209.196225 
L 190.781457 208.979775 
L 190.781457 208.979775 
L 191.086011 208.979775 
L 191.086011 208.763324 
L 191.086011 208.763324 
L 191.390565 208.763324 
L 191.390565 208.546873 
L 191.390565 208.546873 
L 191.695119 208.546873 
L 191.695119 208.330422 
L 191.695119 208.330422 
L 191.999673 208.330422 
L 191.999673 208.186121 
L 191.999673 208.186121 
L 192.304227 208.186121 
L 192.304227 207.96967 
L 192.304227 207.96967 
L 192.60878 207.96967 
L 192.60878 207.681069 
L 192.60878 207.681069 
L 192.913334 207.681069 
L 192.913334 207.464618 
L 192.913334 207.464618 
L 193.217888 207.464618 
L 193.217888 207.248167 
L 193.217888 207.248167 
L 193.522442 207.248167 
L 193.522442 207.031716 
L 193.522442 207.031716 
L 193.826996 207.031716 
L 193.826996 206.815265 
L 193.826996 206.815265 
L 194.13155 206.815265 
L 194.13155 206.598814 
L 194.13155 206.598814 
L 194.436104 206.598814 
L 194.436104 206.382363 
L 194.436104 206.382363 
L 194.740658 206.382363 
L 194.740658 206.165912 
L 194.740658 206.165912 
L 195.045212 206.165912 
L 195.045212 205.949461 
L 195.045212 205.949461 
L 195.349766 205.949461 
L 195.349766 205.73301 
L 195.349766 205.73301 
L 195.65432 205.73301 
L 195.65432 205.516559 
L 195.65432 205.516559 
L 195.958874 205.516559 
L 195.958874 205.300109 
L 195.958874 205.300109 
L 196.263428 205.300109 
L 196.263428 205.083658 
L 196.263428 205.083658 
L 196.567982 205.083658 
L 196.567982 204.867207 
L 196.567982 204.867207 
L 196.872536 204.867207 
L 196.872536 204.650756 
L 196.872536 204.650756 
L 197.17709 204.650756 
L 197.17709 204.434305 
L 197.17709 204.434305 
L 197.481644 204.434305 
L 197.481644 204.217854 
L 197.481644 204.217854 
L 197.786198 204.217854 
L 197.786198 204.001403 
L 197.786198 204.001403 
L 198.090752 204.001403 
L 198.090752 203.784952 
L 198.090752 203.784952 
L 198.395306 203.784952 
L 198.395306 203.568501 
L 198.395306 203.568501 
L 198.69986 203.568501 
L 198.69986 203.35205 
L 198.69986 203.35205 
L 199.004414 203.35205 
L 199.004414 203.135599 
L 199.004414 203.135599 
L 199.308968 203.135599 
L 199.308968 202.919148 
L 199.308968 202.919148 
L 199.613522 202.919148 
L 199.613522 202.702697 
L 199.613522 202.702697 
L 199.918076 202.702697 
L 199.918076 202.486246 
L 199.918076 202.486246 
L 200.22263 202.486246 
L 200.22263 202.269795 
L 200.22263 202.269795 
L 200.527184 202.269795 
L 200.527184 202.053344 
L 200.527184 202.053344 
L 200.831738 202.053344 
L 200.831738 201.836894 
L 200.831738 201.836894 
L 201.136292 201.836894 
L 201.136292 201.620443 
L 201.136292 201.620443 
L 201.440846 201.620443 
L 201.440846 201.403992 
L 201.440846 201.403992 
L 201.7454 201.403992 
L 201.7454 201.187541 
L 201.7454 201.187541 
L 202.049954 201.187541 
L 202.049954 200.97109 
L 202.049954 200.97109 
L 202.354508 200.97109 
L 202.354508 200.754639 
L 202.354508 200.754639 
L 202.659062 200.754639 
L 202.659062 200.538188 
L 202.659062 200.538188 
L 202.963616 200.538188 
L 202.963616 200.321737 
L 202.963616 200.321737 
L 203.26817 200.321737 
L 203.26817 200.105286 
L 203.26817 200.105286 
L 203.572724 200.105286 
L 203.572724 199.888835 
L 203.572724 199.888835 
L 203.877278 199.888835 
L 203.877278 199.672384 
L 203.877278 199.672384 
L 204.181832 199.672384 
L 204.181832 199.455933 
L 204.181832 199.455933 
L 204.486386 199.455933 
L 204.486386 199.311633 
L 204.486386 199.311633 
L 204.79094 199.311633 
L 204.79094 199.167332 
L 204.79094 199.167332 
L 205.095494 199.167332 
L 205.095494 199.023031 
L 205.095494 199.023031 
L 205.704602 198.950881 
L 205.704602 198.878731 
L 206.31371 198.80658 
L 206.31371 198.73443 
L 206.922818 198.66228 
L 206.922818 198.590129 
L 207.531926 198.517979 
L 207.531926 198.445829 
L 208.141034 198.373678 
L 208.141034 198.301528 
L 208.750142 198.229378 
L 208.750142 198.157228 
L 209.35925 198.085077 
L 209.35925 198.012927 
L 209.968357 197.940777 
L 209.968357 197.796476 
L 209.968357 197.796476 
L 210.272911 197.796476 
L 210.272911 197.652175 
L 210.272911 197.652175 
L 210.882019 197.580025 
L 210.882019 197.435724 
L 210.882019 197.435724 
L 211.186573 197.435724 
L 211.186573 197.147123 
L 211.186573 197.147123 
L 211.491127 197.147123 
L 211.491127 196.42562 
L 211.491127 196.42562 
L 211.795681 196.42562 
L 211.795681 195.776267 
L 211.795681 195.776267 
L 212.100235 195.776267 
L 212.100235 195.559816 
L 212.100235 195.559816 
L 212.404789 195.559816 
L 212.404789 195.343365 
L 212.404789 195.343365 
L 212.709343 195.343365 
L 212.709343 195.126914 
L 212.709343 195.126914 
L 213.013897 195.126914 
L 213.013897 194.910463 
L 213.013897 194.910463 
L 213.318451 194.910463 
L 213.318451 194.694013 
L 213.318451 194.694013 
L 213.623005 194.694013 
L 213.623005 194.477562 
L 213.623005 194.477562 
L 213.927559 194.477562 
L 213.927559 194.261111 
L 213.927559 194.261111 
L 214.232113 194.261111 
L 214.232113 193.972509 
L 214.232113 193.972509 
L 214.536667 193.972509 
L 214.536667 193.611758 
L 214.536667 193.611758 
L 214.841221 193.611758 
L 214.841221 193.251006 
L 214.841221 193.251006 
L 215.145775 193.251006 
L 215.145775 192.890255 
L 215.145775 192.890255 
L 215.450329 192.890255 
L 215.450329 192.529503 
L 215.450329 192.529503 
L 215.754883 192.529503 
L 215.754883 192.168752 
L 215.754883 192.168752 
L 216.059437 192.168752 
L 216.059437 191.808 
L 216.059437 191.808 
L 216.363991 191.808 
L 216.363991 191.447248 
L 216.363991 191.447248 
L 216.668545 191.447248 
L 216.668545 190.725745 
L 216.668545 190.725745 
L 216.973099 190.725745 
L 216.973099 190.148543 
L 216.973099 190.148543 
L 217.277653 190.148543 
L 217.277653 189.932092 
L 217.277653 189.932092 
L 217.582207 189.932092 
L 217.582207 189.715641 
L 217.582207 189.715641 
L 217.886761 189.715641 
L 217.886761 189.49919 
L 217.886761 189.49919 
L 218.191315 189.49919 
L 218.191315 189.282739 
L 218.191315 189.282739 
L 218.495869 189.282739 
L 218.495869 189.066288 
L 218.495869 189.066288 
L 218.800423 189.066288 
L 218.800423 188.849837 
L 218.800423 188.849837 
L 219.104977 188.849837 
L 219.104977 188.633386 
L 219.104977 188.633386 
L 219.409531 188.633386 
L 219.409531 188.416935 
L 219.409531 188.416935 
L 219.714085 188.416935 
L 219.714085 188.200484 
L 219.714085 188.200484 
L 220.018639 188.200484 
L 220.018639 187.984033 
L 220.018639 187.984033 
L 220.323193 187.984033 
L 220.323193 187.767582 
L 220.323193 187.767582 
L 220.627747 187.767582 
L 220.627747 187.551132 
L 220.627747 187.551132 
L 220.932301 187.551132 
L 220.932301 187.334681 
L 220.932301 187.334681 
L 221.236855 187.334681 
L 221.236855 187.11823 
L 221.236855 187.11823 
L 221.541409 187.11823 
L 221.541409 186.901779 
L 221.541409 186.901779 
L 221.845963 186.901779 
L 221.845963 186.685328 
L 221.845963 186.685328 
L 222.150517 186.685328 
L 222.150517 186.468877 
L 222.150517 186.468877 
L 222.455071 186.468877 
L 222.455071 186.252426 
L 222.455071 186.252426 
L 222.759625 186.252426 
L 222.759625 186.035975 
L 222.759625 186.035975 
L 223.064179 186.035975 
L 223.064179 185.819524 
L 223.064179 185.819524 
L 223.368733 185.819524 
L 223.368733 185.603073 
L 223.368733 185.603073 
L 223.673287 185.603073 
L 223.673287 185.386622 
L 223.673287 185.386622 
L 223.977841 185.386622 
L 223.977841 185.170171 
L 223.977841 185.170171 
L 224.282395 185.170171 
L 224.282395 184.95372 
L 224.282395 184.95372 
L 224.586949 184.95372 
L 224.586949 184.737269 
L 224.586949 184.737269 
L 224.891503 184.737269 
L 224.891503 184.520818 
L 224.891503 184.520818 
L 225.196057 184.520818 
L 225.196057 184.304367 
L 225.196057 184.304367 
L 225.500611 184.304367 
L 225.500611 184.087916 
L 225.500611 184.087916 
L 225.805165 184.087916 
L 225.805165 183.871466 
L 225.805165 183.871466 
L 226.109719 183.871466 
L 226.109719 183.655015 
L 226.109719 183.655015 
L 226.414273 183.655015 
L 226.414273 183.438564 
L 226.414273 183.438564 
L 226.718827 183.438564 
L 226.718827 183.222113 
L 226.718827 183.222113 
L 227.023381 183.222113 
L 227.023381 183.005662 
L 227.023381 183.005662 
L 227.327935 183.005662 
L 227.327935 182.789211 
L 227.327935 182.789211 
L 227.632488 182.789211 
L 227.632488 182.57276 
L 227.632488 182.57276 
L 227.937042 182.57276 
L 227.937042 182.356309 
L 227.937042 182.356309 
L 228.241596 182.356309 
L 228.241596 182.139858 
L 228.241596 182.139858 
L 228.54615 182.139858 
L 228.54615 181.923407 
L 228.54615 181.923407 
L 228.850704 181.923407 
L 228.850704 181.706956 
L 228.850704 181.706956 
L 229.155258 181.706956 
L 229.155258 181.490505 
L 229.155258 181.490505 
L 229.459812 181.490505 
L 229.459812 181.274054 
L 229.459812 181.274054 
L 229.764366 181.274054 
L 229.764366 181.057603 
L 229.764366 181.057603 
L 230.06892 181.057603 
L 230.06892 180.841152 
L 230.06892 180.841152 
L 230.373474 180.841152 
L 230.373474 180.624701 
L 230.373474 180.624701 
L 230.678028 180.624701 
L 230.678028 180.408251 
L 230.678028 180.408251 
L 230.982582 180.408251 
L 230.982582 180.1918 
L 230.982582 180.1918 
L 231.287136 180.1918 
L 231.287136 179.975349 
L 231.287136 179.975349 
L 231.59169 179.975349 
L 231.59169 179.758898 
L 231.59169 179.758898 
L 231.896244 179.758898 
L 231.896244 179.542447 
L 231.896244 179.542447 
L 232.200798 179.542447 
L 232.200798 179.325996 
L 232.200798 179.325996 
L 232.505352 179.325996 
L 232.505352 179.109545 
L 232.505352 179.109545 
L 232.809906 179.109545 
L 232.809906 178.893094 
L 232.809906 178.893094 
L 233.11446 178.893094 
L 233.11446 178.676643 
L 233.11446 178.676643 
L 233.419014 178.676643 
L 233.419014 178.460192 
L 233.419014 178.460192 
L 233.723568 178.460192 
L 233.723568 178.243741 
L 233.723568 178.243741 
L 234.028122 178.243741 
L 234.028122 178.02729 
L 234.028122 178.02729 
L 234.332676 178.02729 
L 234.332676 177.810839 
L 234.332676 177.810839 
L 234.63723 177.810839 
L 234.63723 177.594388 
L 234.63723 177.594388 
L 234.941784 177.594388 
L 234.941784 177.377937 
L 234.941784 177.377937 
L 235.246338 177.377937 
L 235.246338 177.161486 
L 235.246338 177.161486 
L 235.550892 177.161486 
L 235.550892 176.945035 
L 235.550892 176.945035 
L 235.855446 176.945035 
L 235.855446 176.728585 
L 235.855446 176.728585 
L 236.16 176.728585 
L 236.16 176.512134 
L 236.16 176.512134 
L 236.464554 176.512134 
L 236.464554 176.223532 
L 236.464554 176.223532 
L 236.769108 176.223532 
L 236.769108 175.934931 
L 236.769108 175.934931 
L 237.073662 175.934931 
L 237.073662 175.71848 
L 237.073662 175.71848 
L 237.378216 175.71848 
L 237.378216 175.502029 
L 237.378216 175.502029 
L 237.68277 175.502029 
L 237.68277 175.285578 
L 237.68277 175.285578 
L 237.987324 175.285578 
L 237.987324 175.069127 
L 237.987324 175.069127 
L 238.291878 175.069127 
L 238.291878 174.852676 
L 238.291878 174.852676 
L 238.596432 174.852676 
L 238.596432 174.708376 
L 238.596432 174.708376 
L 238.900986 174.708376 
L 238.900986 174.491925 
L 238.900986 174.491925 
L 239.20554 174.491925 
L 239.20554 174.203324 
L 239.20554 174.203324 
L 239.510094 174.203324 
L 239.510094 173.986873 
L 239.510094 173.986873 
L 239.814648 173.986873 
L 239.814648 173.770422 
L 239.814648 173.770422 
L 240.119202 173.770422 
L 240.119202 173.553971 
L 240.119202 173.553971 
L 240.423756 173.553971 
L 240.423756 173.33752 
L 240.423756 173.33752 
L 240.72831 173.33752 
L 240.72831 173.121069 
L 240.72831 173.121069 
L 241.032864 173.121069 
L 241.032864 172.904618 
L 241.032864 172.904618 
L 241.337418 172.904618 
L 241.337418 172.688167 
L 241.337418 172.688167 
L 241.641972 172.688167 
L 241.641972 172.471716 
L 241.641972 172.471716 
L 241.946526 172.471716 
L 241.946526 172.255265 
L 241.946526 172.255265 
L 242.25108 172.255265 
L 242.25108 172.038814 
L 242.25108 172.038814 
L 242.555634 172.038814 
L 242.555634 171.822363 
L 242.555634 171.822363 
L 242.860188 171.822363 
L 242.860188 171.605912 
L 242.860188 171.605912 
L 243.164742 171.605912 
L 243.164742 171.389461 
L 243.164742 171.389461 
L 243.469296 171.389461 
L 243.469296 171.17301 
L 243.469296 171.17301 
L 243.77385 171.17301 
L 243.77385 170.956559 
L 243.77385 170.956559 
L 244.078404 170.956559 
L 244.078404 170.740109 
L 244.078404 170.740109 
L 244.382958 170.740109 
L 244.382958 170.523658 
L 244.382958 170.523658 
L 244.687512 170.523658 
L 244.687512 170.307207 
L 244.687512 170.307207 
L 244.992065 170.307207 
L 244.992065 170.090756 
L 244.992065 170.090756 
L 245.296619 170.090756 
L 245.296619 169.874305 
L 245.296619 169.874305 
L 245.601173 169.874305 
L 245.601173 169.657854 
L 245.601173 169.657854 
L 245.905727 169.657854 
L 245.905727 169.441403 
L 245.905727 169.441403 
L 246.210281 169.441403 
L 246.210281 169.224952 
L 246.210281 169.224952 
L 246.514835 169.224952 
L 246.514835 169.008501 
L 246.514835 169.008501 
L 246.819389 169.008501 
L 246.819389 168.79205 
L 246.819389 168.79205 
L 247.123943 168.79205 
L 247.123943 168.575599 
L 247.123943 168.575599 
L 247.428497 168.575599 
L 247.428497 168.359148 
L 247.428497 168.359148 
L 247.733051 168.359148 
L 247.733051 168.142697 
L 247.733051 168.142697 
L 248.037605 168.142697 
L 248.037605 167.926246 
L 248.037605 167.926246 
L 248.342159 167.926246 
L 248.342159 167.709795 
L 248.342159 167.709795 
L 248.646713 167.709795 
L 248.646713 167.493344 
L 248.646713 167.493344 
L 248.951267 167.493344 
L 248.951267 167.276894 
L 248.951267 167.276894 
L 249.255821 167.276894 
L 249.255821 167.060443 
L 249.255821 167.060443 
L 249.560375 167.060443 
L 249.560375 166.843992 
L 249.560375 166.843992 
L 249.864929 166.843992 
L 249.864929 166.627541 
L 249.864929 166.627541 
L 250.169483 166.627541 
L 250.169483 166.41109 
L 250.169483 166.41109 
L 250.474037 166.41109 
L 250.474037 166.194639 
L 250.474037 166.194639 
L 250.778591 166.194639 
L 250.778591 165.978188 
L 250.778591 165.978188 
L 251.083145 165.978188 
L 251.083145 165.761737 
L 251.083145 165.761737 
L 251.387699 165.761737 
L 251.387699 165.545286 
L 251.387699 165.545286 
L 251.692253 165.545286 
L 251.692253 165.328835 
L 251.692253 165.328835 
L 251.996807 165.328835 
L 251.996807 165.112384 
L 251.996807 165.112384 
L 252.301361 165.112384 
L 252.301361 164.895933 
L 252.301361 164.895933 
L 252.605915 164.895933 
L 252.605915 164.679482 
L 252.605915 164.679482 
L 252.910469 164.679482 
L 252.910469 164.463031 
L 252.910469 164.463031 
L 253.215023 164.463031 
L 253.215023 164.24658 
L 253.215023 164.24658 
L 253.519577 164.24658 
L 253.519577 164.030129 
L 253.519577 164.030129 
L 253.824131 164.030129 
L 253.824131 163.813678 
L 253.824131 163.813678 
L 254.128685 163.813678 
L 254.128685 163.597228 
L 254.128685 163.597228 
L 254.433239 163.597228 
L 254.433239 163.380777 
L 254.433239 163.380777 
L 254.737793 163.380777 
L 254.737793 163.164326 
L 254.737793 163.164326 
L 255.042347 163.164326 
L 255.042347 162.947875 
L 255.042347 162.947875 
L 255.346901 162.947875 
L 255.346901 162.731424 
L 255.346901 162.731424 
L 255.651455 162.731424 
L 255.651455 162.514973 
L 255.651455 162.514973 
L 255.956009 162.514973 
L 255.956009 162.298522 
L 255.956009 162.298522 
L 256.260563 162.298522 
L 256.260563 162.082071 
L 256.260563 162.082071 
L 256.565117 162.082071 
L 256.565117 161.86562 
L 256.565117 161.86562 
L 256.869671 161.86562 
L 256.869671 161.649169 
L 256.869671 161.649169 
L 257.174225 161.649169 
L 257.174225 161.432718 
L 257.174225 161.432718 
L 257.478779 161.432718 
L 257.478779 161.216267 
L 257.478779 161.216267 
L 257.783333 161.216267 
L 257.783333 160.999816 
L 257.783333 160.999816 
L 258.087887 160.999816 
L 258.087887 160.783365 
L 258.087887 160.783365 
L 258.392441 160.783365 
L 258.392441 160.566914 
L 258.392441 160.566914 
L 258.696995 160.566914 
L 258.696995 160.350463 
L 258.696995 160.350463 
L 259.001549 160.350463 
L 259.001549 160.134013 
L 259.001549 160.134013 
L 259.306103 160.134013 
L 259.306103 159.340359 
L 259.306103 159.340359 
L 259.610657 159.340359 
L 259.610657 158.546706 
L 259.610657 158.546706 
L 259.915211 158.546706 
L 259.915211 158.402405 
L 259.915211 158.402405 
L 260.524319 158.330255 
L 260.524319 158.258104 
L 261.133427 158.185954 
L 261.133427 158.113804 
L 261.742535 158.041653 
L 261.742535 157.969503 
L 262.351643 157.897353 
L 262.351643 157.753052 
L 262.351643 157.753052 
L 262.656196 157.753052 
L 262.656196 157.608752 
L 262.656196 157.608752 
L 263.265304 157.536601 
L 263.265304 157.392301 
L 263.265304 157.392301 
L 263.569858 157.392301 
L 263.569858 157.248 
L 263.569858 157.248 
L 264.178966 157.17585 
L 264.178966 157.103699 
L 264.48352 157.103699 
L 264.48352 156.959399 
L 264.48352 156.959399 
L 264.788074 156.959399 
L 264.788074 156.815098 
L 264.788074 156.815098 
L 265.397182 156.742948 
L 265.397182 156.670797 
L 266.00629 156.598647 
L 266.00629 156.526497 
L 266.310844 156.526497 
L 266.310844 156.382196 
L 266.310844 156.382196 
L 266.615398 156.382196 
L 266.615398 156.165745 
L 266.615398 156.165745 
L 266.919952 156.165745 
L 266.919952 156.021445 
L 266.919952 156.021445 
L 267.224506 156.021445 
L 267.224506 155.877144 
L 267.224506 155.877144 
L 267.52906 155.877144 
L 267.52906 155.660693 
L 267.52906 155.660693 
L 267.833614 155.660693 
L 267.833614 155.372092 
L 267.833614 155.372092 
L 268.138168 155.372092 
L 268.138168 155.01134 
L 268.138168 155.01134 
L 268.442722 155.01134 
L 268.442722 154.650589 
L 268.442722 154.650589 
L 268.747276 154.650589 
L 268.747276 154.289837 
L 268.747276 154.289837 
L 269.05183 154.289837 
L 269.05183 153.929086 
L 269.05183 153.929086 
L 269.356384 153.929086 
L 269.356384 153.207582 
L 269.356384 153.207582 
L 269.660938 153.207582 
L 269.660938 152.197478 
L 269.660938 152.197478 
L 269.965492 152.197478 
L 269.965492 151.475975 
L 269.965492 151.475975 
L 270.270046 151.475975 
L 270.270046 150.970923 
L 270.270046 150.970923 
L 270.5746 150.970923 
L 270.5746 150.32157 
L 270.5746 150.32157 
L 270.879154 150.32157 
L 270.879154 149.816518 
L 270.879154 149.816518 
L 271.183708 149.816518 
L 271.183708 149.600067 
L 271.183708 149.600067 
L 271.488262 149.600067 
L 271.488262 149.383616 
L 271.488262 149.383616 
L 271.792816 149.383616 
L 271.792816 149.167165 
L 271.792816 149.167165 
L 272.09737 149.167165 
L 272.09737 148.950714 
L 272.09737 148.950714 
L 272.401924 148.950714 
L 272.401924 148.734263 
L 272.401924 148.734263 
L 272.706478 148.734263 
L 272.706478 148.517812 
L 272.706478 148.517812 
L 273.011032 148.517812 
L 273.011032 148.301361 
L 273.011032 148.301361 
L 273.315586 148.301361 
L 273.315586 148.08491 
L 273.315586 148.08491 
L 273.62014 148.08491 
L 273.62014 147.868459 
L 273.62014 147.868459 
L 273.924694 147.868459 
L 273.924694 147.652008 
L 273.924694 147.652008 
L 274.229248 147.652008 
L 274.229248 147.435557 
L 274.229248 147.435557 
L 274.533802 147.435557 
L 274.533802 147.219106 
L 274.533802 147.219106 
L 274.838356 147.219106 
L 274.838356 147.002656 
L 274.838356 147.002656 
L 275.14291 147.002656 
L 275.14291 146.786205 
L 275.14291 146.786205 
L 275.447464 146.786205 
L 275.447464 146.569754 
L 275.447464 146.569754 
L 275.752018 146.569754 
L 275.752018 146.353303 
L 275.752018 146.353303 
L 276.056572 146.353303 
L 276.056572 146.209002 
L 276.056572 146.209002 
L 276.361126 146.209002 
L 276.361126 146.064701 
L 276.361126 146.064701 
L 276.66568 146.064701 
L 276.66568 145.920401 
L 276.66568 145.920401 
L 277.274788 145.848251 
L 277.274788 145.7761 
L 277.579342 145.7761 
L 277.579342 145.6318 
L 277.579342 145.6318 
L 277.883896 145.6318 
L 277.883896 145.487499 
L 277.883896 145.487499 
L 278.493004 145.415349 
L 278.493004 145.343198 
L 279.102112 145.271048 
L 279.102112 145.198898 
L 279.71122 145.126747 
L 279.71122 144.982447 
L 279.71122 144.982447 
L 280.015773 144.982447 
L 280.015773 144.765996 
L 280.015773 144.765996 
L 280.320327 144.765996 
L 280.320327 144.549545 
L 280.320327 144.549545 
L 280.624881 144.549545 
L 280.624881 144.405244 
L 280.624881 144.405244 
L 281.233989 144.333094 
L 281.233989 144.188793 
L 281.233989 144.188793 
L 281.538543 144.188793 
L 281.538543 143.900192 
L 281.538543 143.900192 
L 281.843097 143.900192 
L 281.843097 143.539441 
L 281.843097 143.539441 
L 282.147651 143.539441 
L 282.147651 143.178689 
L 282.147651 143.178689 
L 282.452205 143.178689 
L 282.452205 142.817937 
L 282.452205 142.817937 
L 282.756759 142.817937 
L 282.756759 141.879983 
L 282.756759 141.879983 
L 283.061313 141.879983 
L 283.061313 140.797729 
L 283.061313 140.797729 
L 283.365867 140.797729 
L 283.365867 140.220526 
L 283.365867 140.220526 
L 283.670421 140.220526 
L 283.670421 139.787624 
L 283.670421 139.787624 
L 283.974975 139.787624 
L 283.974975 139.499023 
L 283.974975 139.499023 
L 284.279529 139.499023 
L 284.279529 139.282572 
L 284.279529 139.282572 
L 284.584083 139.282572 
L 284.584083 139.066121 
L 284.584083 139.066121 
L 284.888637 139.066121 
L 284.888637 138.84967 
L 284.888637 138.84967 
L 285.193191 138.84967 
L 285.193191 138.561069 
L 285.193191 138.561069 
L 285.497745 138.561069 
L 285.497745 138.272468 
L 285.497745 138.272468 
L 285.802299 138.272468 
L 285.802299 138.056017 
L 285.802299 138.056017 
L 286.106853 138.056017 
L 286.106853 137.839566 
L 286.106853 137.839566 
L 286.411407 137.839566 
L 286.411407 137.695265 
L 286.411407 137.695265 
L 286.715961 137.695265 
L 286.715961 137.478814 
L 286.715961 137.478814 
L 287.020515 137.478814 
L 287.020515 137.118063 
L 287.020515 137.118063 
L 287.325069 137.118063 
L 287.325069 136.901612 
L 287.325069 136.901612 
L 287.934177 136.829461 
L 287.934177 136.757311 
L 288.238731 136.757311 
L 288.238731 136.54086 
L 288.238731 136.54086 
L 288.543285 136.54086 
L 288.543285 136.324409 
L 288.543285 136.324409 
L 289.152393 136.252259 
L 289.152393 136.180109 
L 289.456947 136.180109 
L 289.456947 135.963658 
L 289.456947 135.963658 
L 289.761501 135.963658 
L 289.761501 135.747207 
L 289.761501 135.747207 
L 290.370609 135.675056 
L 290.370609 135.602906 
L 290.979717 135.530756 
L 290.979717 135.458605 
L 291.588825 135.386455 
L 291.588825 135.314305 
L 292.197933 135.242154 
L 292.197933 135.170004 
L 292.807041 135.097854 
L 292.807041 135.025704 
L 293.111595 135.025704 
L 293.111595 134.809253 
L 293.111595 134.809253 
L 293.416149 134.809253 
L 293.416149 134.592802 
L 293.416149 134.592802 
L 294.329811 134.520651 
L 294.329811 134.3042 
L 294.329811 134.3042 
L 294.634365 134.3042 
L 294.634365 134.087749 
L 294.634365 134.087749 
L 295.243473 134.015599 
L 295.243473 133.943449 
L 295.548027 133.943449 
L 295.548027 133.726998 
L 295.548027 133.726998 
L 295.852581 133.726998 
L 295.852581 133.510547 
L 295.852581 133.510547 
L 296.157135 133.510547 
L 296.157135 132.283992 
L 296.157135 132.283992 
L 296.461689 132.283992 
L 296.461689 130.913136 
L 296.461689 130.913136 
L 296.766243 130.913136 
L 296.766243 130.624534 
L 296.766243 130.624534 
L 297.070797 130.624534 
L 297.070797 130.408084 
L 297.070797 130.408084 
L 297.375351 130.408084 
L 297.375351 130.191633 
L 297.375351 130.191633 
L 297.679904 130.191633 
L 297.679904 129.975182 
L 297.679904 129.975182 
L 297.984458 129.975182 
L 297.984458 129.758731 
L 297.984458 129.758731 
L 298.289012 129.758731 
L 298.289012 129.54228 
L 298.289012 129.54228 
L 298.593566 129.54228 
L 298.593566 129.325829 
L 298.593566 129.325829 
L 298.89812 129.325829 
L 298.89812 129.109378 
L 298.89812 129.109378 
L 299.202674 129.109378 
L 299.202674 128.892927 
L 299.202674 128.892927 
L 299.507228 128.892927 
L 299.507228 128.676476 
L 299.507228 128.676476 
L 299.811782 128.676476 
L 299.811782 128.460025 
L 299.811782 128.460025 
L 300.116336 128.460025 
L 300.116336 128.243574 
L 300.116336 128.243574 
L 300.42089 128.243574 
L 300.42089 128.027123 
L 300.42089 128.027123 
L 300.725444 128.027123 
L 300.725444 127.810672 
L 300.725444 127.810672 
L 301.029998 127.810672 
L 301.029998 127.594221 
L 301.029998 127.594221 
L 301.334552 127.594221 
L 301.334552 127.37777 
L 301.334552 127.37777 
L 301.639106 127.37777 
L 301.639106 127.161319 
L 301.639106 127.161319 
L 301.94366 127.161319 
L 301.94366 126.944868 
L 301.94366 126.944868 
L 302.248214 126.944868 
L 302.248214 126.728418 
L 302.248214 126.728418 
L 302.552768 126.728418 
L 302.552768 126.511967 
L 302.552768 126.511967 
L 302.857322 126.511967 
L 302.857322 126.295516 
L 302.857322 126.295516 
L 303.161876 126.295516 
L 303.161876 126.079065 
L 303.161876 126.079065 
L 303.46643 126.079065 
L 303.46643 125.862614 
L 303.46643 125.862614 
L 303.770984 125.862614 
L 303.770984 125.646163 
L 303.770984 125.646163 
L 304.075538 125.646163 
L 304.075538 125.429712 
L 304.075538 125.429712 
L 304.380092 125.429712 
L 304.380092 125.213261 
L 304.380092 125.213261 
L 304.684646 125.213261 
L 304.684646 124.99681 
L 304.684646 124.99681 
L 304.9892 124.99681 
L 304.9892 124.780359 
L 304.9892 124.780359 
L 305.293754 124.780359 
L 305.293754 124.563908 
L 305.293754 124.563908 
L 305.598308 124.563908 
L 305.598308 124.347457 
L 305.598308 124.347457 
L 305.902862 124.347457 
L 305.902862 124.131006 
L 305.902862 124.131006 
L 306.207416 124.131006 
L 306.207416 123.914555 
L 306.207416 123.914555 
L 306.51197 123.914555 
L 306.51197 123.698104 
L 306.51197 123.698104 
L 306.816524 123.698104 
L 306.816524 123.481653 
L 306.816524 123.481653 
L 307.121078 123.481653 
L 307.121078 123.265203 
L 307.121078 123.265203 
L 307.425632 123.265203 
L 307.425632 123.048752 
L 307.425632 123.048752 
L 307.730186 123.048752 
L 307.730186 122.832301 
L 307.730186 122.832301 
L 308.03474 122.832301 
L 308.03474 122.61585 
L 308.03474 122.61585 
L 308.339294 122.61585 
L 308.339294 122.399399 
L 308.339294 122.399399 
L 308.643848 122.399399 
L 308.643848 122.182948 
L 308.643848 122.182948 
L 308.948402 122.182948 
L 308.948402 121.966497 
L 308.948402 121.966497 
L 309.252956 121.966497 
L 309.252956 121.750046 
L 309.252956 121.750046 
L 309.55751 121.750046 
L 309.55751 121.533595 
L 309.55751 121.533595 
L 309.862064 121.533595 
L 309.862064 121.317144 
L 309.862064 121.317144 
L 310.166618 121.317144 
L 310.166618 121.100693 
L 310.166618 121.100693 
L 310.471172 121.100693 
L 310.471172 120.884242 
L 310.471172 120.884242 
L 310.775726 120.884242 
L 310.775726 120.667791 
L 310.775726 120.667791 
L 311.08028 120.667791 
L 311.08028 120.523491 
L 311.08028 120.523491 
L 311.689388 120.45134 
L 311.689388 120.37919 
L 312.298496 120.30704 
L 312.298496 120.234889 
L 312.907604 120.162739 
L 312.907604 120.090589 
L 313.516712 120.018438 
L 313.516712 119.946288 
L 314.12582 119.874138 
L 314.12582 119.801987 
L 314.734928 119.729837 
L 314.734928 119.657687 
L 315.344035 119.585537 
L 315.344035 119.441236 
L 315.344035 119.441236 
L 315.648589 119.441236 
L 315.648589 119.296935 
L 315.648589 119.296935 
L 316.257697 119.224785 
L 316.257697 119.152635 
L 316.562251 119.152635 
L 316.562251 119.008334 
L 316.562251 119.008334 
L 316.866805 119.008334 
L 316.866805 118.503282 
L 316.866805 118.503282 
L 317.171359 118.503282 
L 317.171359 117.99823 
L 317.171359 117.99823 
L 317.475913 117.99823 
L 317.475913 117.781779 
L 317.475913 117.781779 
L 317.780467 117.781779 
L 317.780467 117.565328 
L 317.780467 117.565328 
L 318.085021 117.565328 
L 318.085021 117.348877 
L 318.085021 117.348877 
L 318.389575 117.348877 
L 318.389575 117.132426 
L 318.389575 117.132426 
L 318.694129 117.132426 
L 318.694129 116.915975 
L 318.694129 116.915975 
L 318.998683 116.915975 
L 318.998683 116.627374 
L 318.998683 116.627374 
L 319.303237 116.627374 
L 319.303237 116.338772 
L 319.303237 116.338772 
L 319.607791 116.338772 
L 319.607791 116.122322 
L 319.607791 116.122322 
L 319.912345 116.122322 
L 319.912345 115.905871 
L 319.912345 115.905871 
L 320.216899 115.905871 
L 320.216899 115.617269 
L 320.216899 115.617269 
L 320.521453 115.617269 
L 320.521453 115.328668 
L 320.521453 115.328668 
L 320.826007 115.328668 
L 320.826007 115.112217 
L 320.826007 115.112217 
L 321.130561 115.112217 
L 321.130561 114.823616 
L 321.130561 114.823616 
L 321.435115 114.823616 
L 321.435115 114.390714 
L 321.435115 114.390714 
L 321.739669 114.390714 
L 321.739669 114.102113 
L 321.739669 114.102113 
L 322.044223 114.102113 
L 322.044223 113.813511 
L 322.044223 113.813511 
L 322.348777 113.813511 
L 322.348777 113.164159 
L 322.348777 113.164159 
L 322.653331 113.164159 
L 322.653331 112.586956 
L 322.653331 112.586956 
L 322.957885 112.586956 
L 322.957885 112.370505 
L 322.957885 112.370505 
L 323.262439 112.370505 
L 323.262439 112.009754 
L 323.262439 112.009754 
L 323.566993 112.009754 
L 323.566993 111.649002 
L 323.566993 111.649002 
L 323.871547 111.649002 
L 323.871547 111.288251 
L 323.871547 111.288251 
L 324.176101 111.288251 
L 324.176101 110.927499 
L 324.176101 110.927499 
L 324.480655 110.927499 
L 324.480655 110.566747 
L 324.480655 110.566747 
L 324.785209 110.566747 
L 324.785209 110.205996 
L 324.785209 110.205996 
L 325.089763 110.205996 
L 325.089763 109.845244 
L 325.089763 109.845244 
L 325.394317 109.845244 
L 325.394317 109.484493 
L 325.394317 109.484493 
L 325.698871 109.484493 
L 325.698871 109.123741 
L 325.698871 109.123741 
L 326.003425 109.123741 
L 326.003425 108.76299 
L 326.003425 108.76299 
L 326.307979 108.76299 
L 326.307979 108.402238 
L 326.307979 108.402238 
L 326.612533 108.402238 
L 326.612533 108.041486 
L 326.612533 108.041486 
L 326.917087 108.041486 
L 326.917087 107.752885 
L 326.917087 107.752885 
L 327.221641 107.752885 
L 327.221641 107.536434 
L 327.221641 107.536434 
L 327.526195 107.536434 
L 327.526195 107.319983 
L 327.526195 107.319983 
L 327.830749 107.319983 
L 327.830749 107.103532 
L 327.830749 107.103532 
L 328.135303 107.103532 
L 328.135303 106.887081 
L 328.135303 106.887081 
L 328.439857 106.887081 
L 328.439857 106.67063 
L 328.439857 106.67063 
L 328.744411 106.67063 
L 328.744411 106.45418 
L 328.744411 106.45418 
L 329.048965 106.45418 
L 329.048965 106.237729 
L 329.048965 106.237729 
L 329.353519 106.237729 
L 329.353519 106.021278 
L 329.353519 106.021278 
L 329.658073 106.021278 
L 329.658073 105.804827 
L 329.658073 105.804827 
L 329.962627 105.804827 
L 329.962627 105.588376 
L 329.962627 105.588376 
L 330.267181 105.588376 
L 330.267181 105.371925 
L 330.267181 105.371925 
L 330.571735 105.371925 
L 330.571735 105.155474 
L 330.571735 105.155474 
L 330.876289 105.155474 
L 330.876289 104.939023 
L 330.876289 104.939023 
L 331.180843 104.939023 
L 331.180843 104.722572 
L 331.180843 104.722572 
L 331.485397 104.722572 
L 331.485397 104.506121 
L 331.485397 104.506121 
L 331.789951 104.506121 
L 331.789951 104.28967 
L 331.789951 104.28967 
L 332.094505 104.28967 
L 332.094505 104.073219 
L 332.094505 104.073219 
L 332.399059 104.073219 
L 332.399059 103.856768 
L 332.399059 103.856768 
L 332.703612 103.856768 
L 332.703612 103.640317 
L 332.703612 103.640317 
L 333.008166 103.640317 
L 333.008166 103.423866 
L 333.008166 103.423866 
L 333.31272 103.423866 
L 333.31272 103.207415 
L 333.31272 103.207415 
L 333.617274 103.207415 
L 333.617274 102.990965 
L 333.617274 102.990965 
L 333.921828 102.990965 
L 333.921828 102.774514 
L 333.921828 102.774514 
L 334.226382 102.774514 
L 334.226382 102.558063 
L 334.226382 102.558063 
L 334.530936 102.558063 
L 334.530936 102.341612 
L 334.530936 102.341612 
L 334.83549 102.341612 
L 334.83549 102.125161 
L 334.83549 102.125161 
L 335.140044 102.125161 
L 335.140044 101.836559 
L 335.140044 101.836559 
L 335.444598 101.836559 
L 335.444598 101.547958 
L 335.444598 101.547958 
L 335.749152 101.547958 
L 335.749152 101.331507 
L 335.749152 101.331507 
L 336.053706 101.331507 
L 336.053706 101.115056 
L 336.053706 101.115056 
L 336.35826 101.115056 
L 336.35826 100.898605 
L 336.35826 100.898605 
L 336.662814 100.898605 
L 336.662814 100.682154 
L 336.662814 100.682154 
L 336.967368 100.682154 
L 336.967368 100.537854 
L 336.967368 100.537854 
L 337.271922 100.537854 
L 337.271922 100.321403 
L 337.271922 100.321403 
L 337.576476 100.321403 
L 337.576476 100.032802 
L 337.576476 100.032802 
L 337.88103 100.032802 
L 337.88103 99.816351 
L 337.88103 99.816351 
L 338.185584 99.816351 
L 338.185584 99.5999 
L 338.185584 99.5999 
L 338.490138 99.5999 
L 338.490138 99.383449 
L 338.490138 99.383449 
L 338.794692 99.383449 
L 338.794692 99.166998 
L 338.794692 99.166998 
L 339.099246 99.166998 
L 339.099246 98.950547 
L 339.099246 98.950547 
L 339.4038 98.950547 
L 339.4038 98.734096 
L 339.4038 98.734096 
L 339.708354 98.734096 
L 339.708354 98.517645 
L 339.708354 98.517645 
L 340.012908 98.517645 
L 340.012908 98.301194 
L 340.012908 98.301194 
L 340.317462 98.301194 
L 340.317462 98.084743 
L 340.317462 98.084743 
L 340.622016 98.084743 
L 340.622016 97.868292 
L 340.622016 97.868292 
L 340.92657 97.868292 
L 340.92657 97.651841 
L 340.92657 97.651841 
L 341.231124 97.651841 
L 341.231124 97.43539 
L 341.231124 97.43539 
L 341.535678 97.43539 
L 341.535678 97.218939 
L 341.535678 97.218939 
L 341.840232 97.218939 
L 341.840232 97.002489 
L 341.840232 97.002489 
L 342.144786 97.002489 
L 342.144786 96.786038 
L 342.144786 96.786038 
L 342.44934 96.786038 
L 342.44934 96.569587 
L 342.44934 96.569587 
L 342.753894 96.569587 
L 342.753894 96.353136 
L 342.753894 96.353136 
L 343.058448 96.353136 
L 343.058448 96.136685 
L 343.058448 96.136685 
L 343.363002 96.136685 
L 343.363002 95.920234 
L 343.363002 95.920234 
L 343.667556 95.920234 
L 343.667556 95.631633 
L 343.667556 95.631633 
L 343.97211 95.631633 
L 343.97211 95.343031 
L 343.97211 95.343031 
L 344.276664 95.343031 
L 344.276664 95.12658 
L 344.276664 95.12658 
L 344.581218 95.12658 
L 344.581218 94.910129 
L 344.581218 94.910129 
L 344.885772 94.910129 
L 344.885772 94.693678 
L 344.885772 94.693678 
L 345.190326 94.693678 
L 345.190326 94.477228 
L 345.190326 94.477228 
L 345.49488 94.477228 
L 345.49488 94.332927 
L 345.49488 94.332927 
L 345.799434 94.332927 
L 345.799434 94.116476 
L 345.799434 94.116476 
L 346.103988 94.116476 
L 346.103988 93.827875 
L 346.103988 93.827875 
L 346.408542 93.827875 
L 346.408542 93.611424 
L 346.408542 93.611424 
L 346.713096 93.611424 
L 346.713096 93.394973 
L 346.713096 93.394973 
L 347.01765 93.394973 
L 347.01765 93.178522 
L 347.01765 93.178522 
L 347.322204 93.178522 
L 347.322204 92.962071 
L 347.322204 92.962071 
L 347.626758 92.962071 
L 347.626758 92.74562 
L 347.626758 92.74562 
L 347.931312 92.74562 
L 347.931312 92.601319 
L 347.931312 92.601319 
L 348.235866 92.601319 
L 348.235866 92.384868 
L 348.235866 92.384868 
L 348.54042 92.384868 
L 348.54042 92.168418 
L 348.54042 92.168418 
L 348.844974 92.168418 
L 348.844974 92.024117 
L 348.844974 92.024117 
L 349.149528 92.024117 
L 349.149528 91.879816 
L 349.149528 91.879816 
L 349.758636 91.807666 
L 349.758636 91.735516 
L 350.367743 91.663365 
L 350.367743 91.591215 
L 350.976851 91.519065 
L 350.976851 91.446914 
L 351.585959 91.374764 
L 351.585959 91.302614 
L 352.195067 91.230463 
L 352.195067 91.158313 
L 352.804175 91.086163 
L 352.804175 91.014013 
L 353.413283 90.941862 
L 353.413283 90.869712 
L 353.717837 90.869712 
L 353.717837 90.725411 
L 353.717837 90.725411 
L 354.022391 90.725411 
L 354.022391 90.581111 
L 354.022391 90.581111 
L 354.326945 90.581111 
L 354.326945 90.076058 
L 354.326945 90.076058 
L 354.631499 90.076058 
L 354.631499 89.498856 
L 354.631499 89.498856 
L 354.936053 89.498856 
L 354.936053 89.282405 
L 354.936053 89.282405 
L 355.240607 89.282405 
L 355.240607 89.065954 
L 355.240607 89.065954 
L 355.545161 89.065954 
L 355.545161 88.849503 
L 355.545161 88.849503 
L 355.849715 88.849503 
L 355.849715 88.633052 
L 355.849715 88.633052 
L 356.154269 88.633052 
L 356.154269 88.416601 
L 356.154269 88.416601 
L 356.458823 88.416601 
L 356.458823 88.20015 
L 356.458823 88.20015 
L 356.763377 88.20015 
L 356.763377 87.983699 
L 356.763377 87.983699 
L 357.067931 87.983699 
L 357.067931 87.767248 
L 357.067931 87.767248 
L 357.372485 87.767248 
L 357.372485 87.550797 
L 357.372485 87.550797 
L 357.677039 87.550797 
L 357.677039 87.334347 
L 357.677039 87.334347 
L 357.981593 87.334347 
L 357.981593 87.117896 
L 357.981593 87.117896 
L 358.286147 87.117896 
L 358.286147 86.901445 
L 358.286147 86.901445 
L 358.590701 86.901445 
L 358.590701 86.612843 
L 358.590701 86.612843 
L 358.895255 86.612843 
L 358.895255 86.324242 
L 358.895255 86.324242 
L 359.199809 86.324242 
L 359.199809 86.107791 
L 359.199809 86.107791 
L 359.504363 86.107791 
L 359.504363 85.81919 
L 359.504363 85.81919 
L 359.808917 85.81919 
L 359.808917 85.458438 
L 359.808917 85.458438 
L 360.113471 85.458438 
L 360.113471 85.169837 
L 360.113471 85.169837 
L 360.418025 85.169837 
L 360.418025 84.881236 
L 360.418025 84.881236 
L 360.722579 84.881236 
L 360.722579 84.520484 
L 360.722579 84.520484 
L 361.027133 84.520484 
L 361.027133 83.58253 
L 361.027133 83.58253 
L 361.331687 83.58253 
L 361.331687 82.716727 
L 361.331687 82.716727 
L 361.636241 82.716727 
L 361.636241 82.355975 
L 361.636241 82.355975 
L 361.940795 82.355975 
L 361.940795 81.995223 
L 361.940795 81.995223 
L 362.245349 81.995223 
L 362.245349 81.634472 
L 362.245349 81.634472 
L 362.549903 81.634472 
L 362.549903 81.27372 
L 362.549903 81.27372 
L 362.854457 81.27372 
L 362.854457 80.912969 
L 362.854457 80.912969 
L 363.159011 80.912969 
L 363.159011 80.552217 
L 363.159011 80.552217 
L 363.463565 80.552217 
L 363.463565 80.191466 
L 363.463565 80.191466 
L 363.768119 80.191466 
L 363.768119 79.830714 
L 363.768119 79.830714 
L 364.072673 79.830714 
L 364.072673 79.469962 
L 364.072673 79.469962 
L 364.377227 79.469962 
L 364.377227 79.109211 
L 364.377227 79.109211 
L 364.681781 79.109211 
L 364.681781 78.748459 
L 364.681781 78.748459 
L 364.986335 78.748459 
L 364.986335 78.459858 
L 364.986335 78.459858 
L 365.290889 78.459858 
L 365.290889 78.243407 
L 365.290889 78.243407 
L 365.595443 78.243407 
L 365.595443 78.026956 
L 365.595443 78.026956 
L 365.899997 78.026956 
L 365.899997 77.521904 
L 365.899997 77.521904 
L 366.204551 77.521904 
L 366.204551 76.944701 
L 366.204551 76.944701 
L 366.509105 76.944701 
L 366.509105 76.6561 
L 366.509105 76.6561 
L 366.813659 76.6561 
L 366.813659 76.5118 
L 366.813659 76.5118 
L 367.422767 76.439649 
L 367.422767 76.367499 
L 367.72732 76.367499 
L 367.72732 76.223198 
L 367.72732 76.223198 
L 368.031874 76.223198 
L 368.031874 76.006747 
L 368.031874 76.006747 
L 368.336428 76.006747 
L 368.336428 75.790296 
L 368.336428 75.790296 
L 368.640982 75.790296 
L 368.640982 75.573846 
L 368.640982 75.573846 
L 368.945536 75.573846 
L 368.945536 75.357395 
L 368.945536 75.357395 
L 369.25009 75.357395 
L 369.25009 75.140944 
L 369.25009 75.140944 
L 369.554644 75.140944 
L 369.554644 74.924493 
L 369.554644 74.924493 
L 369.859198 74.924493 
L 369.859198 74.708042 
L 369.859198 74.708042 
L 370.163752 74.708042 
L 370.163752 74.491591 
L 370.163752 74.491591 
L 370.468306 74.491591 
L 370.468306 74.27514 
L 370.468306 74.27514 
L 370.77286 74.27514 
L 370.77286 74.058689 
L 370.77286 74.058689 
L 371.077414 74.058689 
L 371.077414 73.842238 
L 371.077414 73.842238 
L 371.381968 73.842238 
L 371.381968 73.625787 
L 371.381968 73.625787 
L 371.686522 73.625787 
L 371.686522 73.409336 
L 371.686522 73.409336 
L 371.991076 73.409336 
L 371.991076 73.192885 
L 371.991076 73.192885 
L 372.29563 73.192885 
L 372.29563 72.976434 
L 372.29563 72.976434 
L 372.600184 72.976434 
L 372.600184 72.759983 
L 372.600184 72.759983 
L 372.904738 72.759983 
L 372.904738 72.543532 
L 372.904738 72.543532 
L 373.209292 72.543532 
L 373.209292 72.327081 
L 373.209292 72.327081 
L 373.513846 72.327081 
L 373.513846 72.11063 
L 373.513846 72.11063 
L 373.8184 72.11063 
L 373.8184 71.89418 
L 373.8184 71.89418 
L 374.122954 71.89418 
L 374.122954 71.677729 
L 374.122954 71.677729 
L 374.427508 71.677729 
L 374.427508 71.461278 
L 374.427508 71.461278 
L 374.732062 71.461278 
L 374.732062 71.244827 
L 374.732062 71.244827 
L 375.036616 71.244827 
L 375.036616 71.028376 
L 375.036616 71.028376 
L 375.34117 71.028376 
L 375.34117 70.811925 
L 375.34117 70.811925 
L 375.645724 70.811925 
L 375.645724 70.595474 
L 375.645724 70.595474 
L 375.950278 70.595474 
L 375.950278 70.379023 
L 375.950278 70.379023 
L 376.254832 70.379023 
L 376.254832 70.162572 
L 376.254832 70.162572 
L 376.559386 70.162572 
L 376.559386 69.946121 
L 376.559386 69.946121 
L 376.86394 69.946121 
L 376.86394 69.72967 
L 376.86394 69.72967 
L 377.168494 69.72967 
L 377.168494 69.513219 
L 377.168494 69.513219 
L 377.473048 69.513219 
L 377.473048 69.296768 
L 377.473048 69.296768 
L 377.777602 69.296768 
L 377.777602 69.008167 
L 377.777602 69.008167 
L 378.082156 69.008167 
L 378.082156 68.719566 
L 378.082156 68.719566 
L 378.38671 68.719566 
L 378.38671 68.503115 
L 378.38671 68.503115 
L 378.691264 68.503115 
L 378.691264 68.286664 
L 378.691264 68.286664 
L 378.995818 68.286664 
L 378.995818 68.142363 
L 378.995818 68.142363 
L 379.300372 68.142363 
L 379.300372 67.925912 
L 379.300372 67.925912 
L 379.604926 67.925912 
L 379.604926 67.637311 
L 379.604926 67.637311 
L 379.90948 67.637311 
L 379.90948 67.42086 
L 379.90948 67.42086 
L 380.214034 67.42086 
L 380.214034 67.204409 
L 380.214034 67.204409 
L 380.518588 67.204409 
L 380.518588 66.987958 
L 380.518588 66.987958 
L 380.823142 66.987958 
L 380.823142 66.771507 
L 380.823142 66.771507 
L 381.127696 66.771507 
L 381.127696 66.555056 
L 381.127696 66.555056 
L 381.43225 66.555056 
L 381.43225 66.338605 
L 381.43225 66.338605 
L 381.736804 66.338605 
L 381.736804 66.122154 
L 381.736804 66.122154 
L 382.041358 66.122154 
L 382.041358 65.905704 
L 382.041358 65.905704 
L 382.345912 65.905704 
L 382.345912 65.689253 
L 382.345912 65.689253 
L 382.650466 65.689253 
L 382.650466 65.472802 
L 382.650466 65.472802 
L 382.95502 65.472802 
L 382.95502 65.256351 
L 382.95502 65.256351 
L 383.259574 65.256351 
L 383.259574 65.0399 
L 383.259574 65.0399 
L 383.564128 65.0399 
L 383.564128 64.823449 
L 383.564128 64.823449 
L 383.868682 64.823449 
L 383.868682 64.606998 
L 383.868682 64.606998 
L 384.173236 64.606998 
L 384.173236 64.390547 
L 384.173236 64.390547 
L 384.47779 64.390547 
L 384.47779 64.174096 
L 384.47779 64.174096 
L 384.782344 64.174096 
L 384.782344 63.957645 
L 384.782344 63.957645 
L 385.086897 63.957645 
L 385.086897 63.741194 
L 385.086897 63.741194 
L 385.391451 63.741194 
L 385.391451 63.524743 
L 385.391451 63.524743 
L 385.696005 63.524743 
L 385.696005 63.308292 
L 385.696005 63.308292 
L 386.000559 63.308292 
L 386.000559 63.091841 
L 386.000559 63.091841 
L 386.305113 63.091841 
L 386.305113 62.87539 
L 386.305113 62.87539 
L 386.609667 62.87539 
L 386.609667 62.658939 
L 386.609667 62.658939 
L 386.914221 62.658939 
L 386.914221 62.442489 
L 386.914221 62.442489 
L 387.218775 62.442489 
L 387.218775 62.226038 
L 387.218775 62.226038 
L 387.523329 62.226038 
L 387.523329 62.009587 
L 387.523329 62.009587 
L 387.827883 62.009587 
L 387.827883 61.793136 
L 387.827883 61.793136 
L 388.132437 61.793136 
L 388.132437 61.576685 
L 388.132437 61.576685 
L 388.436991 61.576685 
L 388.436991 61.360234 
L 388.436991 61.360234 
L 388.741545 61.360234 
L 388.741545 61.143783 
L 388.741545 61.143783 
L 389.046099 61.143783 
L 389.046099 60.927332 
L 389.046099 60.927332 
L 389.350653 60.927332 
L 389.350653 60.710881 
L 389.350653 60.710881 
L 389.655207 60.710881 
L 389.655207 60.49443 
L 389.655207 60.49443 
L 389.959761 60.49443 
L 389.959761 60.277979 
L 389.959761 60.277979 
L 390.264315 60.277979 
L 390.264315 60.061528 
L 390.264315 60.061528 
L 390.568869 60.061528 
L 390.568869 59.917228 
L 390.568869 59.917228 
L 391.177977 59.845077 
L 391.177977 59.772927 
L 391.787085 59.700777 
L 391.787085 59.556476 
L 391.787085 59.556476 
L 392.091639 59.556476 
L 392.091639 59.412175 
L 392.091639 59.412175 
L 392.700747 59.340025 
L 392.700747 59.267875 
L 393.309855 59.195724 
L 393.309855 58.762823 
L 393.309855 58.762823 
L 393.614409 58.762823 
L 393.614409 58.25777 
L 393.614409 58.25777 
L 393.918963 58.25777 
L 393.918963 58.041319 
L 393.918963 58.041319 
L 394.223517 58.041319 
L 394.223517 57.824868 
L 394.223517 57.824868 
L 394.528071 57.824868 
L 394.528071 57.608418 
L 394.528071 57.608418 
L 394.832625 57.608418 
L 394.832625 57.391967 
L 394.832625 57.391967 
L 395.137179 57.391967 
L 395.137179 57.103365 
L 395.137179 57.103365 
L 395.441733 57.103365 
L 395.441733 56.526163 
L 395.441733 56.526163 
L 395.746287 56.526163 
L 395.746287 56.021111 
L 395.746287 56.021111 
L 396.050841 56.021111 
L 396.050841 55.80466 
L 396.050841 55.80466 
L 396.355395 55.80466 
L 396.355395 55.588209 
L 396.355395 55.588209 
L 396.659949 55.588209 
L 396.659949 55.371758 
L 396.659949 55.371758 
L 396.964503 55.371758 
L 396.964503 55.155307 
L 396.964503 55.155307 
L 397.269057 55.155307 
L 397.269057 54.938856 
L 397.269057 54.938856 
L 397.573611 54.938856 
L 397.573611 54.722405 
L 397.573611 54.722405 
L 397.878165 54.722405 
L 397.878165 54.505954 
L 397.878165 54.505954 
L 398.182719 54.505954 
L 398.182719 54.000902 
L 398.182719 54.000902 
L 398.487273 54.000902 
L 398.487273 53.568 
L 398.487273 53.568 
" clip-path="url(#p950eb85f4d)" style="fill: none; stroke: #1f77b4; stroke-width: 1.5; stroke-linecap: square"/>
   </g>
   <g id="patch_3">
    <path d="M 57.6 307.584 
L 57.6 41.472 
" style="fill: none; stroke: #000000; stroke-width: 0.8; stroke-linejoin: miter; stroke-linecap: square"/>
   </g>
   <g id="patch_4">
    <path d="M 414.72 307.584 
L 414.72 41.472 
" style="fill: none; stroke: #000000; stroke-width: 0.8; stroke-linejoin: miter; stroke-linecap: square"/>
   </g>
   <g id="patch_5">
    <path d="M 57.6 307.584 
L 414.72 307.584 
" style="fill: none; stroke: #000000; stroke-width: 0.8; stroke-linejoin: miter; stroke-linecap: square"/>
   </g>
   <g id="patch_6">
    <path d="M 57.6 41.472 
L 414.72 41.472 
" style="fill: none; stroke: #000000; stroke-width: 0.8; stroke-linejoin: miter; stroke-linecap: square"/>
   </g>
   <g id="text_13">
    <!-- Ecdf of the queue size of S3 -->
    <g transform="translate(152.235938 35.472) scale(0.12 -0.12)">
     <defs>
      <path id="DejaVuSans-45" d="M 628 4666 
L 3578 4666 
L 3578 4134 
L 1259 4134 
L 1259 2753 
L 3481 2753 
L 3481 2222 
L 1259 2222 
L 1259 531 
L 3634 531 
L 3634 0 
L 628 0 
L 628 4666 
z
" transform="scale(0.015625)"/>
      <path id="DejaVuSans-63" d="M 3122 3366 
L 3122 2828 
Q 2878 2963 2633 3030 
Q 2388 3097 2138 3097 
Q 1578 3097 1268 2742 
Q 959 2388 959 1747 
Q 959 1106 1268 751 
Q 1578 397 2138 397 
Q 2388 397 2633 464 
Q 2878 531 3122 666 
L 3122 134 
Q 2881 22 2623 -34 
Q 2366 -91 2075 -91 
Q 1284 -91 818 406 
Q 353 903 353 1747 
Q 353 2603 823 3093 
Q 1294 3584 2113 3584 
Q 2378 3584 2631 3529 
Q 2884 3475 3122 3366 
z
" transform="scale(0.015625)"/>
      <path id="DejaVuSans-64" d="M 2906 2969 
L 2906 4863 
L 3481 4863 
L 3481 0 
L 2906 0 
L 2906 525 
Q 2725 213 2448 61 
Q 2172 -91 1784 -91 
Q 1150 -91 751 415 
Q 353 922 353 1747 
Q 353 2572 751 3078 
Q 1150 3584 1784 3584 
Q 2172 3584 2448 3432 
Q 2725 3281 2906 2969 
z
M 947 1747 
Q 947 1113 1208 752 
Q 1469 391 1925 391 
Q 2381 391 2643 752 
Q 2906 1113 2906 1747 
Q 2906 2381 2643 2742 
Q 2381 3103 1925 3103 
Q 1469 3103 1208 2742 
Q 947 2381 947 1747 
z
" transform="scale(0.015625)"/>
      <path id="DejaVuSans-66" d="M 2375 4863 
L 2375 4384 
L 1825 4384 
Q 1516 4384 1395 4259 
Q 1275 4134 1275 3809 
L 1275 3500 
L 2222 3500 
L 2222 3053 
L 1275 3053 
L 1275 0 
L 697 0 
L 697 3053 
L 147 3053 
L 147 3500 
L 697 3500 
L 697 3744 
Q 697 4328 969 4595 
Q 1241 4863 1831 4863 
L 2375 4863 
z
" transform="scale(0.015625)"/>
      <path id="DejaVuSans-20" transform="scale(0.015625)"/>
      <path id="DejaVuSans-6f" d="M 1959 3097 
Q 1497 3097 1228 2736 
Q 959 2375 959 1747 
Q 959 1119 1226 758 
Q 1494 397 1959 397 
Q 2419 397 2687 759 
Q 2956 1122 2956 1747 
Q 2956 2369 2687 2733 
Q 2419 3097 1959 3097 
z
M 1959 3584 
Q 2709 3584 3137 3096 
Q 3566 2609 3566 1747 
Q 3566 888 3137 398 
Q 2709 -91 1959 -91 
Q 1206 -91 779 398 
Q 353 888 353 1747 
Q 353 2609 779 3096 
Q 1206 3584 1959 3584 
z
" transform="scale(0.015625)"/>
      <path id="DejaVuSans-74" d="M 1172 4494 
L 1172 3500 
L 2356 3500 
L 2356 3053 
L 1172 3053 
L 1172 1153 
Q 1172 725 1289 603 
Q 1406 481 1766 481 
L 2356 481 
L 2356 0 
L 1766 0 
Q 1100 0 847 248 
Q 594 497 594 1153 
L 594 3053 
L 172 3053 
L 172 3500 
L 594 3500 
L 594 4494 
L 1172 4494 
z
" transform="scale(0.015625)"/>
      <path id="DejaVuSans-68" d="M 3513 2113 
L 3513 0 
L 2938 0 
L 2938 2094 
Q 2938 2591 2744 2837 
Q 2550 3084 2163 3084 
Q 1697 3084 1428 2787 
Q 1159 2491 1159 1978 
L 1159 0 
L 581 0 
L 581 4863 
L 1159 4863 
L 1159 2956 
Q 1366 3272 1645 3428 
Q 1925 3584 2291 3584 
Q 2894 3584 3203 3211 
Q 3513 2838 3513 2113 
z
" transform="scale(0.015625)"/>
      <path id="DejaVuSans-65" d="M 3597 1894 
L 3597 1613 
L 953 1613 
Q 991 1019 1311 708 
Q 1631 397 2203 397 
Q 2534 397 2845 478 
Q 3156 559 3463 722 
L 3463 178 
Q 3153 47 2828 -22 
Q 2503 -91 2169 -91 
Q 1331 -91 842 396 
Q 353 884 353 1716 
Q 353 2575 817 3079 
Q 1281 3584 2069 3584 
Q 2775 3584 3186 3129 
Q 3597 2675 3597 1894 
z
M 3022 2063 
Q 3016 2534 2758 2815 
Q 2500 3097 2075 3097 
Q 1594 3097 1305 2825 
Q 1016 2553 972 2059 
L 3022 2063 
z
" transform="scale(0.015625)"/>
      <path id="DejaVuSans-71" d="M 947 1747 
Q 947 1113 1208 752 
Q 1469 391 1925 391 
Q 2381 391 2643 752 
Q 2906 1113 2906 1747 
Q 2906 2381 2643 2742 
Q 2381 3103 1925 3103 
Q 1469 3103 1208 2742 
Q 947 2381 947 1747 
z
M 2906 525 
Q 2725 213 2448 61 
Q 2172 -91 1784 -91 
Q 1150 -91 751 415 
Q 353 922 353 1747 
Q 353 2572 751 3078 
Q 1150 3584 1784 3584 
Q 2172 3584 2448 3432 
Q 2725 3281 2906 2969 
L 2906 3500 
L 3481 3500 
L 3481 -1331 
L 2906 -1331 
L 2906 525 
z
" transform="scale(0.015625)"/>
      <path id="DejaVuSans-75" d="M 544 1381 
L 544 3500 
L 1119 3500 
L 1119 1403 
Q 1119 906 1312 657 
Q 1506 409 1894 409 
Q 2359 409 2629 706 
Q 2900 1003 2900 1516 
L 2900 3500 
L 3475 3500 
L 3475 0 
L 2900 0 
L 2900 538 
Q 2691 219 2414 64 
Q 2138 -91 1772 -91 
Q 1169 -91 856 284 
Q 544 659 544 1381 
z
M 1991 3584 
L 1991 3584 
z
" transform="scale(0.015625)"/>
      <path id="DejaVuSans-73" d="M 2834 3397 
L 2834 2853 
Q 2591 2978 2328 3040 
Q 2066 3103 1784 3103 
Q 1356 3103 1142 2972 
Q 928 2841 928 2578 
Q 928 2378 1081 2264 
Q 1234 2150 1697 2047 
L 1894 2003 
Q 2506 1872 2764 1633 
Q 3022 1394 3022 966 
Q 3022 478 2636 193 
Q 2250 -91 1575 -91 
Q 1294 -91 989 -36 
Q 684 19 347 128 
L 347 722 
Q 666 556 975 473 
Q 1284 391 1588 391 
Q 1994 391 2212 530 
Q 2431 669 2431 922 
Q 2431 1156 2273 1281 
Q 2116 1406 1581 1522 
L 1381 1569 
Q 847 1681 609 1914 
Q 372 2147 372 2553 
Q 372 3047 722 3315 
Q 1072 3584 1716 3584 
Q 2034 3584 2315 3537 
Q 2597 3491 2834 3397 
z
" transform="scale(0.015625)"/>
      <path id="DejaVuSans-69" d="M 603 3500 
L 1178 3500 
L 1178 0 
L 603 0 
L 603 3500 
z
M 603 4863 
L 1178 4863 
L 1178 4134 
L 603 4134 
L 603 4863 
z
" transform="scale(0.015625)"/>
      <path id="DejaVuSans-7a" d="M 353 3500 
L 3084 3500 
L 3084 2975 
L 922 459 
L 3084 459 
L 3084 0 
L 275 0 
L 275 525 
L 2438 3041 
L 353 3041 
L 353 3500 
z
" transform="scale(0.015625)"/>
      <path id="DejaVuSans-53" d="M 3425 4513 
L 3425 3897 
Q 3066 4069 2747 4153 
Q 2428 4238 2131 4238 
Q 1616 4238 1336 4038 
Q 1056 3838 1056 3469 
Q 1056 3159 1242 3001 
Q 1428 2844 1947 2747 
L 2328 2669 
Q 3034 2534 3370 2195 
Q 3706 1856 3706 1288 
Q 3706 609 3251 259 
Q 2797 -91 1919 -91 
Q 1588 -91 1214 -16 
Q 841 59 441 206 
L 441 856 
Q 825 641 1194 531 
Q 1563 422 1919 422 
Q 2459 422 2753 634 
Q 3047 847 3047 1241 
Q 3047 1584 2836 1778 
Q 2625 1972 2144 2069 
L 1759 2144 
Q 1053 2284 737 2584 
Q 422 2884 422 3419 
Q 422 4038 858 4394 
Q 1294 4750 2059 4750 
Q 2388 4750 2728 4690 
Q 3069 4631 3425 4513 
z
" transform="scale(0.015625)"/>
      <path id="DejaVuSans-33" d="M 2597 2516 
Q 3050 2419 3304 2112 
Q 3559 1806 3559 1356 
Q 3559 666 3084 287 
Q 2609 -91 1734 -91 
Q 1441 -91 1130 -33 
Q 819 25 488 141 
L 488 750 
Q 750 597 1062 519 
Q 1375 441 1716 441 
Q 2309 441 2620 675 
Q 2931 909 2931 1356 
Q 2931 1769 2642 2001 
Q 2353 2234 1838 2234 
L 1294 2234 
L 1294 2753 
L 1863 2753 
Q 2328 2753 2575 2939 
Q 2822 3125 2822 3475 
Q 2822 3834 2567 4026 
Q 2313 4219 1838 4219 
Q 1578 4219 1281 4162 
Q 984 4106 628 3988 
L 628 4550 
Q 988 4650 1302 4700 
Q 1616 4750 1894 4750 
Q 2613 4750 3031 4423 
Q 3450 4097 3450 3541 
Q 3450 3153 3228 2886 
Q 3006 2619 2597 2516 
z
" transform="scale(0.015625)"/>
     </defs>
     <use xlink:href="#DejaVuSans-45"/>
     <use xlink:href="#DejaVuSans-63" x="63.183594"/>
     <use xlink:href="#DejaVuSans-64" x="118.164062"/>
     <use xlink:href="#DejaVuSans-66" x="181.640625"/>
     <use xlink:href="#DejaVuSans-20" x="216.845703"/>
     <use xlink:href="#DejaVuSans-6f" x="248.632812"/>
     <use xlink:href="#DejaVuSans-66" x="309.814453"/>
     <use xlink:href="#DejaVuSans-20" x="345.019531"/>
     <use xlink:href="#DejaVuSans-74" x="376.806641"/>
     <use xlink:href="#DejaVuSans-68" x="416.015625"/>
     <use xlink:href="#DejaVuSans-65" x="479.394531"/>
     <use xlink:href="#DejaVuSans-20" x="540.917969"/>
     <use xlink:href="#DejaVuSans-71" x="572.705078"/>
     <use xlink:href="#DejaVuSans-75" x="636.181641"/>
     <use xlink:href="#DejaVuSans-65" x="699.560547"/>
     <use xlink:href="#DejaVuSans-75" x="761.083984"/>
     <use xlink:href="#DejaVuSans-65" x="824.462891"/>
     <use xlink:href="#DejaVuSans-20" x="885.986328"/>
     <use xlink:href="#DejaVuSans-73" x="917.773438"/>
     <use xlink:href="#DejaVuSans-69" x="969.873047"/>
     <use xlink:href="#DejaVuSans-7a" x="997.65625"/>
     <use xlink:href="#DejaVuSans-65" x="1050.146484"/>
     <use xlink:href="#DejaVuSans-20" x="1111.669922"/>
     <use xlink:href="#DejaVuSans-6f" x="1143.457031"/>
     <use xlink:href="#DejaVuSans-66" x="1204.638672"/>
     <use xlink:href="#DejaVuSans-20" x="1239.84375"/>
     <use xlink:href="#DejaVuSans-53" x="1271.630859"/>
     <use xlink:href="#DejaVuSans-33" x="1335.107422"/>
    </g>
   </g>
   <g id="legend_1">
    <g id="patch_7">
     <path d="M 307.395938 304.584 
L 410.52 304.584 
Q 411.72 304.584 411.72 303.384 
L 411.72 295.177125 
Q 411.72 293.977125 410.52 293.977125 
L 307.395938 293.977125 
Q 306.195938 293.977125 306.195938 295.177125 
L 306.195938 303.384 
Q 306.195938 304.584 307.395938 304.584 
z
" style="fill: #ffffff; opacity: 0.8; stroke: #cccccc; stroke-linejoin: miter"/>
    </g>
    <g id="line2d_14">
     <path d="M 308.595937 298.836187 
L 314.595937 298.836187 
L 320.595937 298.836187 
" style="fill: none; stroke: #1f77b4; stroke-width: 1.5; stroke-linecap: square"/>
    </g>
    <g id="text_14">
     <!-- Ecdf of the queue size of S3 -->
     <g transform="translate(325.395938 300.936187) scale(0.06 -0.06)">
      <use xlink:href="#DejaVuSans-45"/>
      <use xlink:href="#DejaVuSans-63" x="63.183594"/>
      <use xlink:href="#DejaVuSans-64" x="118.164062"/>
      <use xlink:href="#DejaVuSans-66" x="181.640625"/>
      <use xlink:href="#DejaVuSans-20" x="216.845703"/>
      <use xlink:href="#DejaVuSans-6f" x="248.632812"/>
      <use xlink:href="#DejaVuSans-66" x="309.814453"/>
      <use xlink:href="#DejaVuSans-20" x="345.019531"/>
      <use xlink:href="#DejaVuSans-74" x="376.806641"/>
      <use xlink:href="#DejaVuSans-68" x="416.015625"/>
      <use xlink:href="#DejaVuSans-65" x="479.394531"/>
      <use xlink:href="#DejaVuSans-20" x="540.917969"/>
      <use xlink:href="#DejaVuSans-71" x="572.705078"/>
      <use xlink:href="#DejaVuSans-75" x="636.181641"/>
      <use xlink:href="#DejaVuSans-65" x="699.560547"/>
      <use xlink:href="#DejaVuSans-75" x="761.083984"/>
      <use xlink:href="#DejaVuSans-65" x="824.462891"/>
      <use xlink:href="#DejaVuSans-20" x="885.986328"/>
      <use xlink:href="#DejaVuSans-73" x="917.773438"/>
      <use xlink:href="#DejaVuSans-69" x="969.873047"/>
      <use xlink:href="#DejaVuSans-7a" x="997.65625"/>
      <use xlink:href="#DejaVuSans-65" x="1050.146484"/>
      <use xlink:href="#DejaVuSans-20" x="1111.669922"/>
      <use xlink:href="#DejaVuSans-6f" x="1143.457031"/>
      <use xlink:href="#DejaVuSans-66" x="1204.638672"/>
      <use xlink:href="#DejaVuSans-20" x="1239.84375"/>
      <use xlink:href="#DejaVuSans-53" x="1271.630859"/>
      <use xlink:href="#DejaVuSans-33" x="1335.107422"/>
     </g>
    </g>
   </g>
  </g>
 </g>
 <defs>
  <clipPath id="p950eb85f4d">
   <rect x="57.6" y="41.472" width="357.12" height="266.112"/>
  </clipPath>
 </defs>
</svg>
