<?xml version="1.0" encoding="UTF-8" standalone="no"?>
<!DOCTYPE svg PUBLIC "-//W3C//DTD SVG 1.1//EN"
 "http://www.w3.org/Graphics/SVG/1.1/DTD/svg11.dtd">
<!-- Generated by graphviz version 9.0.0 (20230911.1827)
 -->
<!-- Title: G Pages: 1 -->
<svg width="1084pt" height="5319pt"
 viewBox="0.00 0.00 1084.00 5318.75" xmlns="http://www.w3.org/2000/svg" xmlns:xlink="http://www.w3.org/1999/xlink">
<g id="graph0" class="graph" transform="scale(1 1) rotate(0) translate(4 5314.75)">
<title>G</title>
<polygon fill="white" stroke="none" points="-4,4 -4,-5314.75 1080,-5314.75 1080,4 -4,4"/>
<!-- d0 -->
<g id="node1" class="node">
<title>d0</title>
<polygon fill="none" stroke="black" points="711.5,-5310.75 657.5,-5310.75 657.5,-5274.75 711.5,-5274.75 711.5,-5310.75"/>
<text text-anchor="middle" x="684.5" y="-5287.32" font-family="Times New Roman,serif" font-size="14.00">S1</text>
</g>
<!-- S1_S2 -->
<g id="node2" class="node">
<title>S1_S2</title>
<polygon fill="none" stroke="black" points="858,-5237.75 511,-5237.75 511,-4976.75 858,-4976.75 858,-5237.75"/>
<image xlink:href="R:/git/1d experiment/11/1,1,1,0.8,0.8,1,0.3,1.2,1/S1 S2.svg" width="347px" height="261px" preserveAspectRatio="xMinYMin meet" x="511" y="-5237.75"/>
</g>
<!-- d0&#45;&gt;S1_S2 -->
<g id="edge1" class="edge">
<title>d0&#45;&gt;S1_S2</title>
<path fill="none" stroke="black" d="M684.5,-5274.49C684.5,-5267.62 684.5,-5259.05 684.5,-5249.46"/>
<polygon fill="black" stroke="black" points="688,-5249.73 684.5,-5239.73 681,-5249.74 688,-5249.73"/>
</g>
<!-- d1 -->
<g id="node3" class="node">
<title>d1</title>
<polygon fill="none" stroke="black" points="711.5,-4925 657.5,-4925 657.5,-4889 711.5,-4889 711.5,-4925"/>
<text text-anchor="middle" x="684.5" y="-4901.57" font-family="Times New Roman,serif" font-size="14.00">S2</text>
</g>
<!-- S1_S2&#45;&gt;d1 -->
<g id="edge2" class="edge">
<title>S1_S2&#45;&gt;d1</title>
<path fill="none" stroke="black" d="M684.5,-4976.5C684.5,-4961.66 684.5,-4947.84 684.5,-4936.55"/>
<polygon fill="black" stroke="black" points="688,-4936.88 684.5,-4926.88 681,-4936.88 688,-4936.88"/>
<text text-anchor="middle" x="698" y="-4945.45" font-family="Times New Roman,serif" font-size="14.00">1157</text>
</g>
<!-- S2_S3 -->
<g id="node4" class="node">
<title>S2_S3</title>
<polygon fill="none" stroke="black" points="858,-4852 511,-4852 511,-4591 858,-4591 858,-4852"/>
<image xlink:href="R:/git/1d experiment/11/1,1,1,0.8,0.8,1,0.3,1.2,1/S2 S3.svg" width="347px" height="261px" preserveAspectRatio="xMinYMin meet" x="511" y="-4852"/>
</g>
<!-- d1&#45;&gt;S2_S3 -->
<g id="edge3" class="edge">
<title>d1&#45;&gt;S2_S3</title>
<path fill="none" stroke="black" d="M684.5,-4888.74C684.5,-4881.87 684.5,-4873.3 684.5,-4863.71"/>
<polygon fill="black" stroke="black" points="688,-4863.98 684.5,-4853.98 681,-4863.99 688,-4863.98"/>
</g>
<!-- d2 -->
<g id="node5" class="node">
<title>d2</title>
<polygon fill="none" stroke="black" points="711.5,-4539.25 657.5,-4539.25 657.5,-4503.25 711.5,-4503.25 711.5,-4539.25"/>
<text text-anchor="middle" x="684.5" y="-4515.82" font-family="Times New Roman,serif" font-size="14.00">S3</text>
</g>
<!-- S2_S3&#45;&gt;d2 -->
<g id="edge4" class="edge">
<title>S2_S3&#45;&gt;d2</title>
<path fill="none" stroke="black" d="M684.5,-4590.75C684.5,-4575.91 684.5,-4562.09 684.5,-4550.8"/>
<polygon fill="black" stroke="black" points="688,-4551.13 684.5,-4541.13 681,-4551.13 688,-4551.13"/>
<text text-anchor="middle" x="698" y="-4559.7" font-family="Times New Roman,serif" font-size="14.00">1156</text>
</g>
<!-- S3_S4 -->
<g id="node6" class="node">
<title>S3_S4</title>
<polygon fill="none" stroke="black" points="493,-4466.25 146,-4466.25 146,-4205.25 493,-4205.25 493,-4466.25"/>
<image xlink:href="R:/git/1d experiment/11/1,1,1,0.8,0.8,1,0.3,1.2,1/S3 S4.svg" width="347px" height="261px" preserveAspectRatio="xMinYMin meet" x="146" y="-4466.25"/>
</g>
<!-- d2&#45;&gt;S3_S4 -->
<g id="edge5" class="edge">
<title>d2&#45;&gt;S3_S4</title>
<path fill="none" stroke="black" d="M657.1,-4515.13C622.46,-4508.05 561.23,-4493.46 503.7,-4467.07"/>
<polygon fill="black" stroke="black" points="505.29,-4463.95 494.75,-4462.84 502.3,-4470.28 505.29,-4463.95"/>
</g>
<!-- S3_S100 -->
<g id="node30" class="node">
<title>S3_S100</title>
<polygon fill="none" stroke="black" points="858,-4466.25 511,-4466.25 511,-4205.25 858,-4205.25 858,-4466.25"/>
<image xlink:href="R:/git/1d experiment/11/1,1,1,0.8,0.8,1,0.3,1.2,1/S3 S100.svg" width="347px" height="261px" preserveAspectRatio="xMinYMin meet" x="511" y="-4466.25"/>
</g>
<!-- d2&#45;&gt;S3_S100 -->
<g id="edge29" class="edge">
<title>d2&#45;&gt;S3_S100</title>
<path fill="none" stroke="black" d="M684.5,-4502.99C684.5,-4496.12 684.5,-4487.55 684.5,-4477.96"/>
<polygon fill="black" stroke="black" points="688,-4478.23 684.5,-4468.23 681,-4478.24 688,-4478.23"/>
</g>
<!-- S3_S5 -->
<g id="node40" class="node">
<title>S3_S5</title>
<polygon fill="none" stroke="black" points="1055,-4187.25 708,-4187.25 708,-3926.25 1055,-3926.25 1055,-4187.25"/>
<image xlink:href="R:/git/1d experiment/11/1,1,1,0.8,0.8,1,0.3,1.2,1/S3 S5.svg" width="347px" height="261px" preserveAspectRatio="xMinYMin meet" x="708" y="-4187.25"/>
</g>
<!-- d2&#45;&gt;S3_S5 -->
<g id="edge39" class="edge">
<title>d2&#45;&gt;S3_S5</title>
<path fill="none" stroke="black" d="M711.97,-4516.11C758.2,-4508.54 848.38,-4490.93 867.5,-4466.25 925.26,-4391.68 926.81,-4284.42 914.96,-4198.51"/>
<polygon fill="black" stroke="black" points="918.45,-4198.23 913.54,-4188.84 911.53,-4199.24 918.45,-4198.23"/>
</g>
<!-- d3 -->
<g id="node7" class="node">
<title>d3</title>
<polygon fill="none" stroke="black" points="579.5,-3908.25 525.5,-3908.25 525.5,-3872.25 579.5,-3872.25 579.5,-3908.25"/>
<text text-anchor="middle" x="552.5" y="-3884.82" font-family="Times New Roman,serif" font-size="14.00">S4</text>
</g>
<!-- S3_S4&#45;&gt;d3 -->
<g id="edge6" class="edge">
<title>S3_S4&#45;&gt;d3</title>
<path fill="none" stroke="black" d="M387.68,-4204.98C440.18,-4105.04 508.6,-3974.81 538.02,-3918.81"/>
<polygon fill="black" stroke="black" points="541.11,-3920.46 542.66,-3909.97 534.91,-3917.2 541.11,-3920.46"/>
<text text-anchor="middle" x="547" y="-4051.32" font-family="Times New Roman,serif" font-size="14.00">1072</text>
</g>
<!-- S4_S5 -->
<g id="node8" class="node">
<title>S4_S5</title>
<polygon fill="none" stroke="black" points="772,-3820.5 425,-3820.5 425,-3559.5 772,-3559.5 772,-3820.5"/>
<image xlink:href="R:/git/1d experiment/11/1,1,1,0.8,0.8,1,0.3,1.2,1/S4 S5.svg" width="347px" height="261px" preserveAspectRatio="xMinYMin meet" x="425" y="-3820.5"/>
</g>
<!-- d3&#45;&gt;S4_S5 -->
<g id="edge7" class="edge">
<title>d3&#45;&gt;S4_S5</title>
<path fill="none" stroke="black" d="M556.5,-3872C558.88,-3861.75 562.15,-3847.67 565.82,-3831.86"/>
<polygon fill="black" stroke="black" points="569.22,-3832.66 568.07,-3822.13 562.4,-3831.08 569.22,-3832.66"/>
</g>
<!-- d4 -->
<g id="node9" class="node">
<title>d4</title>
<polygon fill="none" stroke="black" points="746.5,-3507.75 692.5,-3507.75 692.5,-3471.75 746.5,-3471.75 746.5,-3507.75"/>
<text text-anchor="middle" x="719.5" y="-3484.32" font-family="Times New Roman,serif" font-size="14.00">S5</text>
</g>
<!-- S4_S5&#45;&gt;d4 -->
<g id="edge8" class="edge">
<title>S4_S5&#45;&gt;d4</title>
<path fill="none" stroke="black" d="M677.69,-3559.25C687.13,-3543.78 695.9,-3529.41 702.95,-3517.87"/>
<polygon fill="black" stroke="black" points="705.89,-3519.77 708.11,-3509.41 699.92,-3516.12 705.89,-3519.77"/>
<text text-anchor="middle" x="709" y="-3528.2" font-family="Times New Roman,serif" font-size="14.00">1066</text>
</g>
<!-- S5_S6 -->
<g id="node10" class="node">
<title>S5_S6</title>
<polygon fill="none" stroke="black" points="893,-3434.75 546,-3434.75 546,-3173.75 893,-3173.75 893,-3434.75"/>
<image xlink:href="R:/git/1d experiment/11/1,1,1,0.8,0.8,1,0.3,1.2,1/S5 S6.svg" width="347px" height="261px" preserveAspectRatio="xMinYMin meet" x="546" y="-3434.75"/>
</g>
<!-- d4&#45;&gt;S5_S6 -->
<g id="edge9" class="edge">
<title>d4&#45;&gt;S5_S6</title>
<path fill="none" stroke="black" d="M719.5,-3471.49C719.5,-3464.62 719.5,-3456.05 719.5,-3446.46"/>
<polygon fill="black" stroke="black" points="723,-3446.73 719.5,-3436.73 716,-3446.74 723,-3446.73"/>
</g>
<!-- d5 -->
<g id="node11" class="node">
<title>d5</title>
<polygon fill="none" stroke="black" points="746.5,-3122 692.5,-3122 692.5,-3086 746.5,-3086 746.5,-3122"/>
<text text-anchor="middle" x="719.5" y="-3098.57" font-family="Times New Roman,serif" font-size="14.00">S6</text>
</g>
<!-- S5_S6&#45;&gt;d5 -->
<g id="edge10" class="edge">
<title>S5_S6&#45;&gt;d5</title>
<path fill="none" stroke="black" d="M719.5,-3173.5C719.5,-3158.66 719.5,-3144.84 719.5,-3133.55"/>
<polygon fill="black" stroke="black" points="723,-3133.88 719.5,-3123.88 716,-3133.88 723,-3133.88"/>
<text text-anchor="middle" x="733" y="-3142.45" font-family="Times New Roman,serif" font-size="14.00">1062</text>
</g>
<!-- S6_S7 -->
<g id="node12" class="node">
<title>S6_S7</title>
<polygon fill="none" stroke="black" points="711,-3049 364,-3049 364,-2788 711,-2788 711,-3049"/>
<image xlink:href="R:/git/1d experiment/11/1,1,1,0.8,0.8,1,0.3,1.2,1/S6 S7.svg" width="347px" height="261px" preserveAspectRatio="xMinYMin meet" x="364" y="-3049"/>
</g>
<!-- d5&#45;&gt;S6_S7 -->
<g id="edge11" class="edge">
<title>d5&#45;&gt;S6_S7</title>
<path fill="none" stroke="black" d="M702.38,-3085.74C694.83,-3078.13 685.22,-3068.44 674.45,-3057.58"/>
<polygon fill="black" stroke="black" points="677,-3055.18 667.47,-3050.55 672.03,-3060.11 677,-3055.18"/>
</g>
<!-- S6_S105 -->
<g id="node36" class="node">
<title>S6_S105</title>
<polygon fill="none" stroke="black" points="1076,-3049 729,-3049 729,-2788 1076,-2788 1076,-3049"/>
<image xlink:href="R:/git/1d experiment/11/1,1,1,0.8,0.8,1,0.3,1.2,1/S6 S105.svg" width="347px" height="261px" preserveAspectRatio="xMinYMin meet" x="729" y="-3049"/>
</g>
<!-- d5&#45;&gt;S6_S105 -->
<g id="edge35" class="edge">
<title>d5&#45;&gt;S6_S105</title>
<path fill="none" stroke="black" d="M736.72,-3085.74C744.31,-3078.13 753.97,-3068.44 764.8,-3057.58"/>
<polygon fill="black" stroke="black" points="767.23,-3060.1 771.81,-3050.54 762.27,-3055.15 767.23,-3060.1"/>
</g>
<!-- d6 -->
<g id="node13" class="node">
<title>d6</title>
<polygon fill="none" stroke="black" points="564.5,-2736.25 510.5,-2736.25 510.5,-2700.25 564.5,-2700.25 564.5,-2736.25"/>
<text text-anchor="middle" x="537.5" y="-2712.82" font-family="Times New Roman,serif" font-size="14.00">S7</text>
</g>
<!-- S6_S7&#45;&gt;d6 -->
<g id="edge12" class="edge">
<title>S6_S7&#45;&gt;d6</title>
<path fill="none" stroke="black" d="M537.5,-2787.75C537.5,-2772.91 537.5,-2759.09 537.5,-2747.8"/>
<polygon fill="black" stroke="black" points="541,-2748.13 537.5,-2738.13 534,-2748.13 541,-2748.13"/>
<text text-anchor="middle" x="551" y="-2756.7" font-family="Times New Roman,serif" font-size="14.00">1052</text>
</g>
<!-- S7_S8 -->
<g id="node14" class="node">
<title>S7_S8</title>
<polygon fill="none" stroke="black" points="711,-2663.25 364,-2663.25 364,-2402.25 711,-2402.25 711,-2663.25"/>
<image xlink:href="R:/git/1d experiment/11/1,1,1,0.8,0.8,1,0.3,1.2,1/S7 S8.svg" width="347px" height="261px" preserveAspectRatio="xMinYMin meet" x="364" y="-2663.25"/>
</g>
<!-- d6&#45;&gt;S7_S8 -->
<g id="edge13" class="edge">
<title>d6&#45;&gt;S7_S8</title>
<path fill="none" stroke="black" d="M537.5,-2699.99C537.5,-2693.12 537.5,-2684.55 537.5,-2674.96"/>
<polygon fill="black" stroke="black" points="541,-2675.23 537.5,-2665.23 534,-2675.24 541,-2675.23"/>
</g>
<!-- d7 -->
<g id="node15" class="node">
<title>d7</title>
<polygon fill="none" stroke="black" points="564.5,-2350.5 510.5,-2350.5 510.5,-2314.5 564.5,-2314.5 564.5,-2350.5"/>
<text text-anchor="middle" x="537.5" y="-2327.07" font-family="Times New Roman,serif" font-size="14.00">S8</text>
</g>
<!-- S7_S8&#45;&gt;d7 -->
<g id="edge14" class="edge">
<title>S7_S8&#45;&gt;d7</title>
<path fill="none" stroke="black" d="M537.5,-2402C537.5,-2387.16 537.5,-2373.34 537.5,-2362.05"/>
<polygon fill="black" stroke="black" points="541,-2362.38 537.5,-2352.38 534,-2362.38 541,-2362.38"/>
<text text-anchor="middle" x="551" y="-2370.95" font-family="Times New Roman,serif" font-size="14.00">1020</text>
</g>
<!-- S8_S9 -->
<g id="node16" class="node">
<title>S8_S9</title>
<polygon fill="none" stroke="black" points="529,-2277.5 182,-2277.5 182,-2016.5 529,-2016.5 529,-2277.5"/>
<image xlink:href="R:/git/1d experiment/11/1,1,1,0.8,0.8,1,0.3,1.2,1/S8 S9.svg" width="347px" height="261px" preserveAspectRatio="xMinYMin meet" x="182" y="-2277.5"/>
</g>
<!-- d7&#45;&gt;S8_S9 -->
<g id="edge15" class="edge">
<title>d7&#45;&gt;S8_S9</title>
<path fill="none" stroke="black" d="M520.38,-2314.24C512.83,-2306.63 503.22,-2296.94 492.45,-2286.08"/>
<polygon fill="black" stroke="black" points="495,-2283.68 485.47,-2279.05 490.03,-2288.61 495,-2283.68"/>
</g>
<!-- S8_S104 -->
<g id="node32" class="node">
<title>S8_S104</title>
<polygon fill="none" stroke="black" points="894,-2277.5 547,-2277.5 547,-2016.5 894,-2016.5 894,-2277.5"/>
<image xlink:href="R:/git/1d experiment/11/1,1,1,0.8,0.8,1,0.3,1.2,1/S8 S104.svg" width="347px" height="261px" preserveAspectRatio="xMinYMin meet" x="547" y="-2277.5"/>
</g>
<!-- d7&#45;&gt;S8_S104 -->
<g id="edge31" class="edge">
<title>d7&#45;&gt;S8_S104</title>
<path fill="none" stroke="black" d="M554.72,-2314.24C562.31,-2306.63 571.97,-2296.94 582.8,-2286.08"/>
<polygon fill="black" stroke="black" points="585.23,-2288.6 589.81,-2279.04 580.27,-2283.65 585.23,-2288.6"/>
</g>
<!-- d8 -->
<g id="node17" class="node">
<title>d8</title>
<polygon fill="none" stroke="black" points="382.5,-1964.75 328.5,-1964.75 328.5,-1928.75 382.5,-1928.75 382.5,-1964.75"/>
<text text-anchor="middle" x="355.5" y="-1941.33" font-family="Times New Roman,serif" font-size="14.00">S9</text>
</g>
<!-- S8_S9&#45;&gt;d8 -->
<g id="edge16" class="edge">
<title>S8_S9&#45;&gt;d8</title>
<path fill="none" stroke="black" d="M355.5,-2016.25C355.5,-2001.41 355.5,-1987.59 355.5,-1976.3"/>
<polygon fill="black" stroke="black" points="359,-1976.63 355.5,-1966.63 352,-1976.63 359,-1976.63"/>
<text text-anchor="middle" x="365.62" y="-1985.2" font-family="Times New Roman,serif" font-size="14.00">956</text>
</g>
<!-- S9_S10 -->
<g id="node18" class="node">
<title>S9_S10</title>
<polygon fill="none" stroke="black" points="529,-1891.75 182,-1891.75 182,-1630.75 529,-1630.75 529,-1891.75"/>
<image xlink:href="R:/git/1d experiment/11/1,1,1,0.8,0.8,1,0.3,1.2,1/S9 S10.svg" width="347px" height="261px" preserveAspectRatio="xMinYMin meet" x="182" y="-1891.75"/>
</g>
<!-- d8&#45;&gt;S9_S10 -->
<g id="edge17" class="edge">
<title>d8&#45;&gt;S9_S10</title>
<path fill="none" stroke="black" d="M355.5,-1928.49C355.5,-1921.62 355.5,-1913.05 355.5,-1903.46"/>
<polygon fill="black" stroke="black" points="359,-1903.73 355.5,-1893.73 352,-1903.74 359,-1903.73"/>
</g>
<!-- d9 -->
<g id="node19" class="node">
<title>d9</title>
<polygon fill="none" stroke="black" points="382.5,-1579 328.5,-1579 328.5,-1543 382.5,-1543 382.5,-1579"/>
<text text-anchor="middle" x="355.5" y="-1555.58" font-family="Times New Roman,serif" font-size="14.00">S10</text>
</g>
<!-- S9_S10&#45;&gt;d9 -->
<g id="edge18" class="edge">
<title>S9_S10&#45;&gt;d9</title>
<path fill="none" stroke="black" d="M355.5,-1630.5C355.5,-1615.66 355.5,-1601.84 355.5,-1590.55"/>
<polygon fill="black" stroke="black" points="359,-1590.88 355.5,-1580.88 352,-1590.88 359,-1590.88"/>
<text text-anchor="middle" x="365.62" y="-1599.45" font-family="Times New Roman,serif" font-size="14.00">956</text>
</g>
<!-- S10_S12 -->
<g id="node20" class="node">
<title>S10_S12</title>
<polygon fill="none" stroke="black" points="347,-1506 0,-1506 0,-1245 347,-1245 347,-1506"/>
<image xlink:href="R:/git/1d experiment/11/1,1,1,0.8,0.8,1,0.3,1.2,1/S10 S12.svg" width="347px" height="261px" preserveAspectRatio="xMinYMin meet" x="0" y="-1506"/>
</g>
<!-- d9&#45;&gt;S10_S12 -->
<g id="edge19" class="edge">
<title>d9&#45;&gt;S10_S12</title>
<path fill="none" stroke="black" d="M338.38,-1542.74C330.83,-1535.13 321.22,-1525.44 310.45,-1514.58"/>
<polygon fill="black" stroke="black" points="313,-1512.18 303.47,-1507.55 308.03,-1517.11 313,-1512.18"/>
</g>
<!-- S10_S103 -->
<g id="node28" class="node">
<title>S10_S103</title>
<polygon fill="none" stroke="black" points="712,-1506 365,-1506 365,-1245 712,-1245 712,-1506"/>
<image xlink:href="R:/git/1d experiment/11/1,1,1,0.8,0.8,1,0.3,1.2,1/S10 S103.svg" width="347px" height="261px" preserveAspectRatio="xMinYMin meet" x="365" y="-1506"/>
</g>
<!-- d9&#45;&gt;S10_S103 -->
<g id="edge27" class="edge">
<title>d9&#45;&gt;S10_S103</title>
<path fill="none" stroke="black" d="M372.72,-1542.74C380.31,-1535.13 389.97,-1525.44 400.8,-1514.58"/>
<polygon fill="black" stroke="black" points="403.23,-1517.1 407.81,-1507.54 398.27,-1512.15 403.23,-1517.1"/>
</g>
<!-- d10 -->
<g id="node21" class="node">
<title>d10</title>
<polygon fill="none" stroke="black" points="200.5,-1193.25 146.5,-1193.25 146.5,-1157.25 200.5,-1157.25 200.5,-1193.25"/>
<text text-anchor="middle" x="173.5" y="-1169.83" font-family="Times New Roman,serif" font-size="14.00">S12</text>
</g>
<!-- S10_S12&#45;&gt;d10 -->
<g id="edge20" class="edge">
<title>S10_S12&#45;&gt;d10</title>
<path fill="none" stroke="black" d="M173.5,-1244.75C173.5,-1229.91 173.5,-1216.09 173.5,-1204.8"/>
<polygon fill="black" stroke="black" points="177,-1205.13 173.5,-1195.13 170,-1205.13 177,-1205.13"/>
<text text-anchor="middle" x="183.62" y="-1213.7" font-family="Times New Roman,serif" font-size="14.00">505</text>
</g>
<!-- S12_S13 -->
<g id="node22" class="node">
<title>S12_S13</title>
<polygon fill="none" stroke="black" points="347,-1120.25 0,-1120.25 0,-859.25 347,-859.25 347,-1120.25"/>
<image xlink:href="R:/git/1d experiment/11/1,1,1,0.8,0.8,1,0.3,1.2,1/S12 S13.svg" width="347px" height="261px" preserveAspectRatio="xMinYMin meet" x="0" y="-1120.25"/>
</g>
<!-- d10&#45;&gt;S12_S13 -->
<g id="edge21" class="edge">
<title>d10&#45;&gt;S12_S13</title>
<path fill="none" stroke="black" d="M173.5,-1156.99C173.5,-1150.12 173.5,-1141.55 173.5,-1131.96"/>
<polygon fill="black" stroke="black" points="177,-1132.23 173.5,-1122.23 170,-1132.24 177,-1132.23"/>
</g>
<!-- d11 -->
<g id="node23" class="node">
<title>d11</title>
<polygon fill="none" stroke="black" points="200.5,-807.5 146.5,-807.5 146.5,-771.5 200.5,-771.5 200.5,-807.5"/>
<text text-anchor="middle" x="173.5" y="-784.08" font-family="Times New Roman,serif" font-size="14.00">S13</text>
</g>
<!-- S12_S13&#45;&gt;d11 -->
<g id="edge22" class="edge">
<title>S12_S13&#45;&gt;d11</title>
<path fill="none" stroke="black" d="M173.5,-859C173.5,-844.16 173.5,-830.34 173.5,-819.05"/>
<polygon fill="black" stroke="black" points="177,-819.38 173.5,-809.38 170,-819.38 177,-819.38"/>
<text text-anchor="middle" x="183.62" y="-827.95" font-family="Times New Roman,serif" font-size="14.00">505</text>
</g>
<!-- S13_S14 -->
<g id="node24" class="node">
<title>S13_S14</title>
<polygon fill="none" stroke="black" points="347,-734.5 0,-734.5 0,-473.5 347,-473.5 347,-734.5"/>
<image xlink:href="R:/git/1d experiment/11/1,1,1,0.8,0.8,1,0.3,1.2,1/S13 S14.svg" width="347px" height="261px" preserveAspectRatio="xMinYMin meet" x="0" y="-734.5"/>
</g>
<!-- d11&#45;&gt;S13_S14 -->
<g id="edge23" class="edge">
<title>d11&#45;&gt;S13_S14</title>
<path fill="none" stroke="black" d="M173.5,-771.24C173.5,-764.37 173.5,-755.8 173.5,-746.21"/>
<polygon fill="black" stroke="black" points="177,-746.48 173.5,-736.48 170,-746.49 177,-746.48"/>
</g>
<!-- d12 -->
<g id="node25" class="node">
<title>d12</title>
<polygon fill="none" stroke="black" points="200.5,-421.75 146.5,-421.75 146.5,-385.75 200.5,-385.75 200.5,-421.75"/>
<text text-anchor="middle" x="173.5" y="-398.32" font-family="Times New Roman,serif" font-size="14.00">S14</text>
</g>
<!-- S13_S14&#45;&gt;d12 -->
<g id="edge24" class="edge">
<title>S13_S14&#45;&gt;d12</title>
<path fill="none" stroke="black" d="M173.5,-473.25C173.5,-458.41 173.5,-444.59 173.5,-433.3"/>
<polygon fill="black" stroke="black" points="177,-433.63 173.5,-423.63 170,-433.63 177,-433.63"/>
<text text-anchor="middle" x="183.62" y="-442.2" font-family="Times New Roman,serif" font-size="14.00">505</text>
</g>
<!-- S14_S15 -->
<g id="node26" class="node">
<title>S14_S15</title>
<polygon fill="none" stroke="black" points="347,-348.75 0,-348.75 0,-87.75 347,-87.75 347,-348.75"/>
<image xlink:href="R:/git/1d experiment/11/1,1,1,0.8,0.8,1,0.3,1.2,1/S14 S15.svg" width="347px" height="261px" preserveAspectRatio="xMinYMin meet" x="0" y="-348.75"/>
</g>
<!-- d12&#45;&gt;S14_S15 -->
<g id="edge25" class="edge">
<title>d12&#45;&gt;S14_S15</title>
<path fill="none" stroke="black" d="M173.5,-385.49C173.5,-378.62 173.5,-370.05 173.5,-360.46"/>
<polygon fill="black" stroke="black" points="177,-360.73 173.5,-350.73 170,-360.74 177,-360.73"/>
</g>
<!-- d13 -->
<g id="node27" class="node">
<title>d13</title>
<polygon fill="none" stroke="black" points="200.5,-36 146.5,-36 146.5,0 200.5,0 200.5,-36"/>
<text text-anchor="middle" x="173.5" y="-12.57" font-family="Times New Roman,serif" font-size="14.00">S15</text>
</g>
<!-- S14_S15&#45;&gt;d13 -->
<g id="edge26" class="edge">
<title>S14_S15&#45;&gt;d13</title>
<path fill="none" stroke="black" d="M173.5,-87.5C173.5,-72.66 173.5,-58.84 173.5,-47.55"/>
<polygon fill="black" stroke="black" points="177,-47.88 173.5,-37.88 170,-47.88 177,-47.88"/>
<text text-anchor="middle" x="183.62" y="-56.45" font-family="Times New Roman,serif" font-size="14.00">505</text>
</g>
<!-- d14 -->
<g id="node29" class="node">
<title>d14</title>
<polygon fill="none" stroke="black" points="565.5,-1193.25 511.5,-1193.25 511.5,-1157.25 565.5,-1157.25 565.5,-1193.25"/>
<text text-anchor="middle" x="538.5" y="-1169.83" font-family="Times New Roman,serif" font-size="14.00">S103</text>
</g>
<!-- S10_S103&#45;&gt;d14 -->
<g id="edge28" class="edge">
<title>S10_S103&#45;&gt;d14</title>
<path fill="none" stroke="black" d="M538.5,-1244.75C538.5,-1229.91 538.5,-1216.09 538.5,-1204.8"/>
<polygon fill="black" stroke="black" points="542,-1205.13 538.5,-1195.13 535,-1205.13 542,-1205.13"/>
<text text-anchor="middle" x="548.62" y="-1213.7" font-family="Times New Roman,serif" font-size="14.00">416</text>
</g>
<!-- d15 -->
<g id="node31" class="node">
<title>d15</title>
<polygon fill="none" stroke="black" points="711.5,-3908.25 657.5,-3908.25 657.5,-3872.25 711.5,-3872.25 711.5,-3908.25"/>
<text text-anchor="middle" x="684.5" y="-3884.82" font-family="Times New Roman,serif" font-size="14.00">S100</text>
</g>
<!-- S3_S100&#45;&gt;d15 -->
<g id="edge30" class="edge">
<title>S3_S100&#45;&gt;d15</title>
<path fill="none" stroke="black" d="M684.5,-4204.98C684.5,-4105.67 684.5,-3976.44 684.5,-3919.87"/>
<polygon fill="black" stroke="black" points="688,-3920.15 684.5,-3910.15 681,-3920.15 688,-3920.15"/>
<text text-anchor="middle" x="691.25" y="-4051.32" font-family="Times New Roman,serif" font-size="14.00">82</text>
</g>
<!-- d16 -->
<g id="node33" class="node">
<title>d16</title>
<polygon fill="none" stroke="black" points="747.5,-1964.75 693.5,-1964.75 693.5,-1928.75 747.5,-1928.75 747.5,-1964.75"/>
<text text-anchor="middle" x="720.5" y="-1941.33" font-family="Times New Roman,serif" font-size="14.00">S104</text>
</g>
<!-- S8_S104&#45;&gt;d16 -->
<g id="edge32" class="edge">
<title>S8_S104&#45;&gt;d16</title>
<path fill="none" stroke="black" d="M720.5,-2016.25C720.5,-2001.41 720.5,-1987.59 720.5,-1976.3"/>
<polygon fill="black" stroke="black" points="724,-1976.63 720.5,-1966.63 717,-1976.63 724,-1976.63"/>
<text text-anchor="middle" x="727.25" y="-1985.2" font-family="Times New Roman,serif" font-size="14.00">37</text>
</g>
<!-- S104_S102 -->
<g id="node34" class="node">
<title>S104_S102</title>
<polygon fill="none" stroke="black" points="894,-1891.75 547,-1891.75 547,-1630.75 894,-1630.75 894,-1891.75"/>
<image xlink:href="R:/git/1d experiment/11/1,1,1,0.8,0.8,1,0.3,1.2,1/S104 S102.svg" width="347px" height="261px" preserveAspectRatio="xMinYMin meet" x="547" y="-1891.75"/>
</g>
<!-- d16&#45;&gt;S104_S102 -->
<g id="edge33" class="edge">
<title>d16&#45;&gt;S104_S102</title>
<path fill="none" stroke="black" d="M720.5,-1928.49C720.5,-1921.62 720.5,-1913.05 720.5,-1903.46"/>
<polygon fill="black" stroke="black" points="724,-1903.73 720.5,-1893.73 717,-1903.74 724,-1903.73"/>
</g>
<!-- d17 -->
<g id="node35" class="node">
<title>d17</title>
<polygon fill="none" stroke="black" points="747.5,-1579 693.5,-1579 693.5,-1543 747.5,-1543 747.5,-1579"/>
<text text-anchor="middle" x="720.5" y="-1555.58" font-family="Times New Roman,serif" font-size="14.00">S102</text>
</g>
<!-- S104_S102&#45;&gt;d17 -->
<g id="edge34" class="edge">
<title>S104_S102&#45;&gt;d17</title>
<path fill="none" stroke="black" d="M720.5,-1630.5C720.5,-1615.66 720.5,-1601.84 720.5,-1590.55"/>
<polygon fill="black" stroke="black" points="724,-1590.88 720.5,-1580.88 717,-1590.88 724,-1590.88"/>
<text text-anchor="middle" x="727.25" y="-1599.45" font-family="Times New Roman,serif" font-size="14.00">37</text>
</g>
<!-- d18 -->
<g id="node37" class="node">
<title>d18</title>
<polygon fill="none" stroke="black" points="929.5,-2736.25 875.5,-2736.25 875.5,-2700.25 929.5,-2700.25 929.5,-2736.25"/>
<text text-anchor="middle" x="902.5" y="-2712.82" font-family="Times New Roman,serif" font-size="14.00">S105</text>
</g>
<!-- S6_S105&#45;&gt;d18 -->
<g id="edge36" class="edge">
<title>S6_S105&#45;&gt;d18</title>
<path fill="none" stroke="black" d="M902.5,-2787.75C902.5,-2772.91 902.5,-2759.09 902.5,-2747.8"/>
<polygon fill="black" stroke="black" points="906,-2748.13 902.5,-2738.13 899,-2748.13 906,-2748.13"/>
<text text-anchor="middle" x="909.25" y="-2756.7" font-family="Times New Roman,serif" font-size="14.00">10</text>
</g>
<!-- S105_S101 -->
<g id="node38" class="node">
<title>S105_S101</title>
<polygon fill="none" stroke="black" points="1076,-2663.25 729,-2663.25 729,-2402.25 1076,-2402.25 1076,-2663.25"/>
<image xlink:href="R:/git/1d experiment/11/1,1,1,0.8,0.8,1,0.3,1.2,1/S105 S101.svg" width="347px" height="261px" preserveAspectRatio="xMinYMin meet" x="729" y="-2663.25"/>
</g>
<!-- d18&#45;&gt;S105_S101 -->
<g id="edge37" class="edge">
<title>d18&#45;&gt;S105_S101</title>
<path fill="none" stroke="black" d="M902.5,-2699.99C902.5,-2693.12 902.5,-2684.55 902.5,-2674.96"/>
<polygon fill="black" stroke="black" points="906,-2675.23 902.5,-2665.23 899,-2675.24 906,-2675.23"/>
</g>
<!-- d19 -->
<g id="node39" class="node">
<title>d19</title>
<polygon fill="none" stroke="black" points="929.5,-2350.5 875.5,-2350.5 875.5,-2314.5 929.5,-2314.5 929.5,-2350.5"/>
<text text-anchor="middle" x="902.5" y="-2327.07" font-family="Times New Roman,serif" font-size="14.00">S101</text>
</g>
<!-- S105_S101&#45;&gt;d19 -->
<g id="edge38" class="edge">
<title>S105_S101&#45;&gt;d19</title>
<path fill="none" stroke="black" d="M902.5,-2402C902.5,-2387.16 902.5,-2373.34 902.5,-2362.05"/>
<polygon fill="black" stroke="black" points="906,-2362.38 902.5,-2352.38 899,-2362.38 906,-2362.38"/>
<text text-anchor="middle" x="909.25" y="-2370.95" font-family="Times New Roman,serif" font-size="14.00">10</text>
</g>
<!-- S3_S5&#45;&gt;d4 -->
<g id="edge40" class="edge">
<title>S3_S5&#45;&gt;d4</title>
<path fill="none" stroke="black" d="M874.19,-3925.76C864.02,-3821.89 839.69,-3675.09 781.5,-3559.5 773.34,-3543.29 760.31,-3528 748.3,-3515.97"/>
<polygon fill="black" stroke="black" points="750.94,-3513.66 741.31,-3509.25 746.09,-3518.7 750.94,-3513.66"/>
<text text-anchor="middle" x="867.88" y="-3840.95" font-family="Times New Roman,serif" font-size="14.00">1</text>
</g>
</g>
</svg>
