<?xml version="1.0" encoding="utf-8" standalone="no"?>
<!DOCTYPE svg PUBLIC "-//W3C//DTD SVG 1.1//EN"
  "http://www.w3.org/Graphics/SVG/1.1/DTD/svg11.dtd">
<svg xmlns:xlink="http://www.w3.org/1999/xlink" width="460.8pt" height="345.6pt" viewBox="0 0 460.8 345.6" xmlns="http://www.w3.org/2000/svg" version="1.1">
 <metadata>
  <rdf:RDF xmlns:dc="http://purl.org/dc/elements/1.1/" xmlns:cc="http://creativecommons.org/ns#" xmlns:rdf="http://www.w3.org/1999/02/22-rdf-syntax-ns#">
   <cc:Work>
    <dc:type rdf:resource="http://purl.org/dc/dcmitype/StillImage"/>
    <dc:date>2024-03-08T12:15:03.283544</dc:date>
    <dc:format>image/svg+xml</dc:format>
    <dc:creator>
     <cc:Agent>
      <dc:title>Matplotlib v3.8.2, https://matplotlib.org/</dc:title>
     </cc:Agent>
    </dc:creator>
   </cc:Work>
  </rdf:RDF>
 </metadata>
 <defs>
  <style type="text/css">*{stroke-linejoin: round; stroke-linecap: butt}</style>
 </defs>
 <g id="figure_1">
  <g id="patch_1">
   <path d="M 0 345.6 
L 460.8 345.6 
L 460.8 0 
L 0 0 
z
" style="fill: #ffffff"/>
  </g>
  <g id="axes_1">
   <g id="patch_2">
    <path d="M 57.6 307.584 
L 414.72 307.584 
L 414.72 41.472 
L 57.6 41.472 
z
" style="fill: #ffffff"/>
   </g>
   <g id="matplotlib.axis_1">
    <g id="xtick_1">
     <g id="line2d_1">
      <defs>
       <path id="m9c7faebc1d" d="M 0 0 
L 0 3.5 
" style="stroke: #000000; stroke-width: 0.8"/>
      </defs>
      <g>
       <use xlink:href="#m9c7faebc1d" x="71.657903" y="307.584" style="stroke: #000000; stroke-width: 0.8"/>
      </g>
     </g>
     <g id="text_1">
      <!-- 0.0 -->
      <g transform="translate(63.70634 322.182437) scale(0.1 -0.1)">
       <defs>
        <path id="DejaVuSans-30" d="M 2034 4250 
Q 1547 4250 1301 3770 
Q 1056 3291 1056 2328 
Q 1056 1369 1301 889 
Q 1547 409 2034 409 
Q 2525 409 2770 889 
Q 3016 1369 3016 2328 
Q 3016 3291 2770 3770 
Q 2525 4250 2034 4250 
z
M 2034 4750 
Q 2819 4750 3233 4129 
Q 3647 3509 3647 2328 
Q 3647 1150 3233 529 
Q 2819 -91 2034 -91 
Q 1250 -91 836 529 
Q 422 1150 422 2328 
Q 422 3509 836 4129 
Q 1250 4750 2034 4750 
z
" transform="scale(0.015625)"/>
        <path id="DejaVuSans-2e" d="M 684 794 
L 1344 794 
L 1344 0 
L 684 0 
L 684 794 
z
" transform="scale(0.015625)"/>
       </defs>
       <use xlink:href="#DejaVuSans-30"/>
       <use xlink:href="#DejaVuSans-2e" x="63.623047"/>
       <use xlink:href="#DejaVuSans-30" x="95.410156"/>
      </g>
     </g>
    </g>
    <g id="xtick_2">
     <g id="line2d_2">
      <g>
       <use xlink:href="#m9c7faebc1d" x="117.061339" y="307.584" style="stroke: #000000; stroke-width: 0.8"/>
      </g>
     </g>
     <g id="text_2">
      <!-- 0.5 -->
      <g transform="translate(109.109776 322.182437) scale(0.1 -0.1)">
       <defs>
        <path id="DejaVuSans-35" d="M 691 4666 
L 3169 4666 
L 3169 4134 
L 1269 4134 
L 1269 2991 
Q 1406 3038 1543 3061 
Q 1681 3084 1819 3084 
Q 2600 3084 3056 2656 
Q 3513 2228 3513 1497 
Q 3513 744 3044 326 
Q 2575 -91 1722 -91 
Q 1428 -91 1123 -41 
Q 819 9 494 109 
L 494 744 
Q 775 591 1075 516 
Q 1375 441 1709 441 
Q 2250 441 2565 725 
Q 2881 1009 2881 1497 
Q 2881 1984 2565 2268 
Q 2250 2553 1709 2553 
Q 1456 2553 1204 2497 
Q 953 2441 691 2322 
L 691 4666 
z
" transform="scale(0.015625)"/>
       </defs>
       <use xlink:href="#DejaVuSans-30"/>
       <use xlink:href="#DejaVuSans-2e" x="63.623047"/>
       <use xlink:href="#DejaVuSans-35" x="95.410156"/>
      </g>
     </g>
    </g>
    <g id="xtick_3">
     <g id="line2d_3">
      <g>
       <use xlink:href="#m9c7faebc1d" x="162.464775" y="307.584" style="stroke: #000000; stroke-width: 0.8"/>
      </g>
     </g>
     <g id="text_3">
      <!-- 1.0 -->
      <g transform="translate(154.513212 322.182437) scale(0.1 -0.1)">
       <defs>
        <path id="DejaVuSans-31" d="M 794 531 
L 1825 531 
L 1825 4091 
L 703 3866 
L 703 4441 
L 1819 4666 
L 2450 4666 
L 2450 531 
L 3481 531 
L 3481 0 
L 794 0 
L 794 531 
z
" transform="scale(0.015625)"/>
       </defs>
       <use xlink:href="#DejaVuSans-31"/>
       <use xlink:href="#DejaVuSans-2e" x="63.623047"/>
       <use xlink:href="#DejaVuSans-30" x="95.410156"/>
      </g>
     </g>
    </g>
    <g id="xtick_4">
     <g id="line2d_4">
      <g>
       <use xlink:href="#m9c7faebc1d" x="207.868211" y="307.584" style="stroke: #000000; stroke-width: 0.8"/>
      </g>
     </g>
     <g id="text_4">
      <!-- 1.5 -->
      <g transform="translate(199.916648 322.182437) scale(0.1 -0.1)">
       <use xlink:href="#DejaVuSans-31"/>
       <use xlink:href="#DejaVuSans-2e" x="63.623047"/>
       <use xlink:href="#DejaVuSans-35" x="95.410156"/>
      </g>
     </g>
    </g>
    <g id="xtick_5">
     <g id="line2d_5">
      <g>
       <use xlink:href="#m9c7faebc1d" x="253.271647" y="307.584" style="stroke: #000000; stroke-width: 0.8"/>
      </g>
     </g>
     <g id="text_5">
      <!-- 2.0 -->
      <g transform="translate(245.320084 322.182437) scale(0.1 -0.1)">
       <defs>
        <path id="DejaVuSans-32" d="M 1228 531 
L 3431 531 
L 3431 0 
L 469 0 
L 469 531 
Q 828 903 1448 1529 
Q 2069 2156 2228 2338 
Q 2531 2678 2651 2914 
Q 2772 3150 2772 3378 
Q 2772 3750 2511 3984 
Q 2250 4219 1831 4219 
Q 1534 4219 1204 4116 
Q 875 4013 500 3803 
L 500 4441 
Q 881 4594 1212 4672 
Q 1544 4750 1819 4750 
Q 2544 4750 2975 4387 
Q 3406 4025 3406 3419 
Q 3406 3131 3298 2873 
Q 3191 2616 2906 2266 
Q 2828 2175 2409 1742 
Q 1991 1309 1228 531 
z
" transform="scale(0.015625)"/>
       </defs>
       <use xlink:href="#DejaVuSans-32"/>
       <use xlink:href="#DejaVuSans-2e" x="63.623047"/>
       <use xlink:href="#DejaVuSans-30" x="95.410156"/>
      </g>
     </g>
    </g>
    <g id="xtick_6">
     <g id="line2d_6">
      <g>
       <use xlink:href="#m9c7faebc1d" x="298.675083" y="307.584" style="stroke: #000000; stroke-width: 0.8"/>
      </g>
     </g>
     <g id="text_6">
      <!-- 2.5 -->
      <g transform="translate(290.723521 322.182437) scale(0.1 -0.1)">
       <use xlink:href="#DejaVuSans-32"/>
       <use xlink:href="#DejaVuSans-2e" x="63.623047"/>
       <use xlink:href="#DejaVuSans-35" x="95.410156"/>
      </g>
     </g>
    </g>
    <g id="xtick_7">
     <g id="line2d_7">
      <g>
       <use xlink:href="#m9c7faebc1d" x="344.078519" y="307.584" style="stroke: #000000; stroke-width: 0.8"/>
      </g>
     </g>
     <g id="text_7">
      <!-- 3.0 -->
      <g transform="translate(336.126957 322.182437) scale(0.1 -0.1)">
       <defs>
        <path id="DejaVuSans-33" d="M 2597 2516 
Q 3050 2419 3304 2112 
Q 3559 1806 3559 1356 
Q 3559 666 3084 287 
Q 2609 -91 1734 -91 
Q 1441 -91 1130 -33 
Q 819 25 488 141 
L 488 750 
Q 750 597 1062 519 
Q 1375 441 1716 441 
Q 2309 441 2620 675 
Q 2931 909 2931 1356 
Q 2931 1769 2642 2001 
Q 2353 2234 1838 2234 
L 1294 2234 
L 1294 2753 
L 1863 2753 
Q 2328 2753 2575 2939 
Q 2822 3125 2822 3475 
Q 2822 3834 2567 4026 
Q 2313 4219 1838 4219 
Q 1578 4219 1281 4162 
Q 984 4106 628 3988 
L 628 4550 
Q 988 4650 1302 4700 
Q 1616 4750 1894 4750 
Q 2613 4750 3031 4423 
Q 3450 4097 3450 3541 
Q 3450 3153 3228 2886 
Q 3006 2619 2597 2516 
z
" transform="scale(0.015625)"/>
       </defs>
       <use xlink:href="#DejaVuSans-33"/>
       <use xlink:href="#DejaVuSans-2e" x="63.623047"/>
       <use xlink:href="#DejaVuSans-30" x="95.410156"/>
      </g>
     </g>
    </g>
    <g id="xtick_8">
     <g id="line2d_8">
      <g>
       <use xlink:href="#m9c7faebc1d" x="389.481955" y="307.584" style="stroke: #000000; stroke-width: 0.8"/>
      </g>
     </g>
     <g id="text_8">
      <!-- 3.5 -->
      <g transform="translate(381.530393 322.182437) scale(0.1 -0.1)">
       <use xlink:href="#DejaVuSans-33"/>
       <use xlink:href="#DejaVuSans-2e" x="63.623047"/>
       <use xlink:href="#DejaVuSans-35" x="95.410156"/>
      </g>
     </g>
    </g>
    <g id="text_9">
     <!-- 1e6 -->
     <g transform="translate(395.841875 334.860562) scale(0.1 -0.1)">
      <defs>
       <path id="DejaVuSans-65" d="M 3597 1894 
L 3597 1613 
L 953 1613 
Q 991 1019 1311 708 
Q 1631 397 2203 397 
Q 2534 397 2845 478 
Q 3156 559 3463 722 
L 3463 178 
Q 3153 47 2828 -22 
Q 2503 -91 2169 -91 
Q 1331 -91 842 396 
Q 353 884 353 1716 
Q 353 2575 817 3079 
Q 1281 3584 2069 3584 
Q 2775 3584 3186 3129 
Q 3597 2675 3597 1894 
z
M 3022 2063 
Q 3016 2534 2758 2815 
Q 2500 3097 2075 3097 
Q 1594 3097 1305 2825 
Q 1016 2553 972 2059 
L 3022 2063 
z
" transform="scale(0.015625)"/>
       <path id="DejaVuSans-36" d="M 2113 2584 
Q 1688 2584 1439 2293 
Q 1191 2003 1191 1497 
Q 1191 994 1439 701 
Q 1688 409 2113 409 
Q 2538 409 2786 701 
Q 3034 994 3034 1497 
Q 3034 2003 2786 2293 
Q 2538 2584 2113 2584 
z
M 3366 4563 
L 3366 3988 
Q 3128 4100 2886 4159 
Q 2644 4219 2406 4219 
Q 1781 4219 1451 3797 
Q 1122 3375 1075 2522 
Q 1259 2794 1537 2939 
Q 1816 3084 2150 3084 
Q 2853 3084 3261 2657 
Q 3669 2231 3669 1497 
Q 3669 778 3244 343 
Q 2819 -91 2113 -91 
Q 1303 -91 875 529 
Q 447 1150 447 2328 
Q 447 3434 972 4092 
Q 1497 4750 2381 4750 
Q 2619 4750 2861 4703 
Q 3103 4656 3366 4563 
z
" transform="scale(0.015625)"/>
      </defs>
      <use xlink:href="#DejaVuSans-31"/>
      <use xlink:href="#DejaVuSans-65" x="63.623047"/>
      <use xlink:href="#DejaVuSans-36" x="125.146484"/>
     </g>
    </g>
   </g>
   <g id="matplotlib.axis_2">
    <g id="ytick_1">
     <g id="line2d_9">
      <defs>
       <path id="m3c23938771" d="M 0 0 
L -3.5 0 
" style="stroke: #000000; stroke-width: 0.8"/>
      </defs>
      <g>
       <use xlink:href="#m3c23938771" x="57.6" y="295.488" style="stroke: #000000; stroke-width: 0.8"/>
      </g>
     </g>
     <g id="text_10">
      <!-- 0.0 -->
      <g transform="translate(34.696875 299.287219) scale(0.1 -0.1)">
       <use xlink:href="#DejaVuSans-30"/>
       <use xlink:href="#DejaVuSans-2e" x="63.623047"/>
       <use xlink:href="#DejaVuSans-30" x="95.410156"/>
      </g>
     </g>
    </g>
    <g id="ytick_2">
     <g id="line2d_10">
      <g>
       <use xlink:href="#m3c23938771" x="57.6" y="265.248" style="stroke: #000000; stroke-width: 0.8"/>
      </g>
     </g>
     <g id="text_11">
      <!-- 2.5 -->
      <g transform="translate(34.696875 269.047219) scale(0.1 -0.1)">
       <use xlink:href="#DejaVuSans-32"/>
       <use xlink:href="#DejaVuSans-2e" x="63.623047"/>
       <use xlink:href="#DejaVuSans-35" x="95.410156"/>
      </g>
     </g>
    </g>
    <g id="ytick_3">
     <g id="line2d_11">
      <g>
       <use xlink:href="#m3c23938771" x="57.6" y="235.008" style="stroke: #000000; stroke-width: 0.8"/>
      </g>
     </g>
     <g id="text_12">
      <!-- 5.0 -->
      <g transform="translate(34.696875 238.807219) scale(0.1 -0.1)">
       <use xlink:href="#DejaVuSans-35"/>
       <use xlink:href="#DejaVuSans-2e" x="63.623047"/>
       <use xlink:href="#DejaVuSans-30" x="95.410156"/>
      </g>
     </g>
    </g>
    <g id="ytick_4">
     <g id="line2d_12">
      <g>
       <use xlink:href="#m3c23938771" x="57.6" y="204.768" style="stroke: #000000; stroke-width: 0.8"/>
      </g>
     </g>
     <g id="text_13">
      <!-- 7.5 -->
      <g transform="translate(34.696875 208.567219) scale(0.1 -0.1)">
       <defs>
        <path id="DejaVuSans-37" d="M 525 4666 
L 3525 4666 
L 3525 4397 
L 1831 0 
L 1172 0 
L 2766 4134 
L 525 4134 
L 525 4666 
z
" transform="scale(0.015625)"/>
       </defs>
       <use xlink:href="#DejaVuSans-37"/>
       <use xlink:href="#DejaVuSans-2e" x="63.623047"/>
       <use xlink:href="#DejaVuSans-35" x="95.410156"/>
      </g>
     </g>
    </g>
    <g id="ytick_5">
     <g id="line2d_13">
      <g>
       <use xlink:href="#m3c23938771" x="57.6" y="174.528" style="stroke: #000000; stroke-width: 0.8"/>
      </g>
     </g>
     <g id="text_14">
      <!-- 10.0 -->
      <g transform="translate(28.334375 178.327219) scale(0.1 -0.1)">
       <use xlink:href="#DejaVuSans-31"/>
       <use xlink:href="#DejaVuSans-30" x="63.623047"/>
       <use xlink:href="#DejaVuSans-2e" x="127.246094"/>
       <use xlink:href="#DejaVuSans-30" x="159.033203"/>
      </g>
     </g>
    </g>
    <g id="ytick_6">
     <g id="line2d_14">
      <g>
       <use xlink:href="#m3c23938771" x="57.6" y="144.288" style="stroke: #000000; stroke-width: 0.8"/>
      </g>
     </g>
     <g id="text_15">
      <!-- 12.5 -->
      <g transform="translate(28.334375 148.087219) scale(0.1 -0.1)">
       <use xlink:href="#DejaVuSans-31"/>
       <use xlink:href="#DejaVuSans-32" x="63.623047"/>
       <use xlink:href="#DejaVuSans-2e" x="127.246094"/>
       <use xlink:href="#DejaVuSans-35" x="159.033203"/>
      </g>
     </g>
    </g>
    <g id="ytick_7">
     <g id="line2d_15">
      <g>
       <use xlink:href="#m3c23938771" x="57.6" y="114.048" style="stroke: #000000; stroke-width: 0.8"/>
      </g>
     </g>
     <g id="text_16">
      <!-- 15.0 -->
      <g transform="translate(28.334375 117.847219) scale(0.1 -0.1)">
       <use xlink:href="#DejaVuSans-31"/>
       <use xlink:href="#DejaVuSans-35" x="63.623047"/>
       <use xlink:href="#DejaVuSans-2e" x="127.246094"/>
       <use xlink:href="#DejaVuSans-30" x="159.033203"/>
      </g>
     </g>
    </g>
    <g id="ytick_8">
     <g id="line2d_16">
      <g>
       <use xlink:href="#m3c23938771" x="57.6" y="83.808" style="stroke: #000000; stroke-width: 0.8"/>
      </g>
     </g>
     <g id="text_17">
      <!-- 17.5 -->
      <g transform="translate(28.334375 87.607219) scale(0.1 -0.1)">
       <use xlink:href="#DejaVuSans-31"/>
       <use xlink:href="#DejaVuSans-37" x="63.623047"/>
       <use xlink:href="#DejaVuSans-2e" x="127.246094"/>
       <use xlink:href="#DejaVuSans-35" x="159.033203"/>
      </g>
     </g>
    </g>
    <g id="ytick_9">
     <g id="line2d_17">
      <g>
       <use xlink:href="#m3c23938771" x="57.6" y="53.568" style="stroke: #000000; stroke-width: 0.8"/>
      </g>
     </g>
     <g id="text_18">
      <!-- 20.0 -->
      <g transform="translate(28.334375 57.367219) scale(0.1 -0.1)">
       <use xlink:href="#DejaVuSans-32"/>
       <use xlink:href="#DejaVuSans-30" x="63.623047"/>
       <use xlink:href="#DejaVuSans-2e" x="127.246094"/>
       <use xlink:href="#DejaVuSans-30" x="159.033203"/>
      </g>
     </g>
    </g>
   </g>
   <g id="line2d_18">
    <path d="M 73.832727 283.392 
L 74.037043 295.488 
L 74.149643 283.392 
L 74.353959 295.488 
L 74.465651 283.392 
L 74.669967 295.488 
L 74.782567 283.392 
L 74.986883 295.488 
L 75.10584 283.392 
L 75.310155 295.488 
L 75.422756 283.392 
L 75.627071 295.488 
L 75.737855 283.392 
L 75.942171 295.488 
L 76.053863 283.392 
L 76.258179 295.488 
L 76.376228 283.392 
L 76.580543 295.488 
L 76.696776 283.392 
L 76.901091 295.488 
L 77.0146 283.392 
L 77.218916 295.488 
L 77.333332 283.392 
L 77.537648 295.488 
L 77.65388 283.392 
L 77.858196 295.488 
L 77.975337 283.392 
L 78.179652 295.488 
L 78.297701 283.392 
L 78.502017 295.488 
L 78.610077 283.392 
L 78.814392 295.488 
L 84.446234 283.392 
L 84.696861 198.72 
L 84.70685 210.816 
L 84.734092 222.912 
L 84.972914 210.816 
L 85.066445 235.008 
L 85.282566 222.912 
L 85.435121 235.008 
L 85.462363 247.104 
L 85.60039 235.008 
L 85.774739 247.104 
L 85.801073 259.2 
L 85.913674 247.104 
L 86.140691 259.2 
L 86.167933 271.296 
L 86.234222 259.2 
L 86.497562 271.296 
L 86.524804 283.392 
L 86.551138 271.296 
L 86.858973 283.392 
L 86.868962 271.296 
L 87.041495 283.392 
L 87.190418 271.296 
L 87.234914 283.392 
L 87.503702 271.296 
L 87.708017 295.488 
L 87.820618 283.392 
L 88.024933 295.488 
L 88.132085 283.392 
L 88.336401 295.488 
L 88.448093 283.392 
L 88.652409 295.488 
L 88.770458 283.392 
L 88.974773 295.488 
L 89.082833 283.392 
L 89.287149 295.488 
L 89.396117 283.392 
L 89.600433 295.488 
L 89.718481 283.392 
L 89.922797 295.488 
L 90.039938 283.392 
L 90.244253 295.488 
L 90.362302 283.392 
L 90.566618 295.488 
L 90.671954 283.392 
L 90.876269 295.488 
L 90.987962 283.392 
L 91.192277 295.488 
L 91.304878 283.392 
L 91.509193 295.488 
L 91.629966 283.392 
L 91.834282 295.488 
L 91.945974 283.392 
L 92.15029 295.488 
L 92.259258 283.392 
L 92.463573 295.488 
L 92.572541 283.392 
L 92.776857 295.488 
L 92.888549 283.392 
L 93.092865 295.488 
L 93.205465 283.392 
L 93.409781 295.488 
L 93.517841 283.392 
L 93.722156 295.488 
L 93.834757 283.392 
L 94.039072 295.488 
L 94.155305 283.392 
L 94.359621 295.488 
L 94.475854 283.392 
L 94.680169 295.488 
L 94.790953 283.392 
L 94.995269 295.488 
L 95.106961 283.392 
L 95.311277 295.488 
L 95.423877 283.392 
L 95.628193 295.488 
L 95.744426 283.392 
L 95.948741 295.488 
L 96.059525 283.392 
L 96.263841 295.488 
L 96.380074 283.392 
L 96.584389 295.488 
L 96.70153 283.392 
L 96.905845 295.488 
L 97.013906 283.392 
L 97.218221 295.488 
L 97.332638 283.392 
L 97.536953 295.488 
L 97.654094 283.392 
L 97.85841 295.488 
L 98.283386 283.392 
L 98.487701 295.488 
L 98.60121 283.392 
L 98.805525 295.488 
L 98.917218 283.392 
L 99.121533 295.488 
L 99.229593 283.392 
L 99.462059 295.488 
L 99.548325 283.392 
L 99.791688 295.488 
L 99.864333 283.392 
L 100.068649 295.488 
L 100.18579 283.392 
L 100.390105 295.488 
L 100.508154 283.392 
L 100.712469 295.488 
L 100.822346 283.392 
L 101.026661 295.488 
L 101.145618 283.392 
L 101.349934 295.488 
L 101.461626 283.392 
L 101.665942 295.488 
L 101.778542 283.392 
L 101.982858 295.488 
L 102.093642 283.392 
L 102.297957 295.488 
L 102.406018 283.392 
L 102.610333 295.488 
L 102.719301 283.392 
L 102.923617 295.488 
L 103.036217 283.392 
L 103.240533 295.488 
L 103.344961 283.392 
L 103.549276 295.488 
L 103.666417 283.392 
L 103.870733 295.488 
L 103.991506 283.392 
L 104.195821 295.488 
L 104.312054 283.392 
L 104.516369 295.488 
L 104.628062 283.392 
L 104.832377 295.488 
L 104.941346 283.392 
L 105.145661 295.488 
L 105.262802 283.392 
L 105.467117 295.488 
L 105.57881 283.392 
L 105.783125 295.488 
L 105.889369 283.392 
L 106.093685 295.488 
L 106.208101 283.392 
L 106.412417 295.488 
L 106.518661 283.392 
L 106.722976 295.488 
L 106.839209 283.392 
L 107.043525 295.488 
L 107.154309 283.392 
L 107.358624 295.488 
L 107.471225 283.392 
L 107.67554 295.488 
L 107.784509 283.392 
L 107.988824 295.488 
L 108.099609 283.392 
L 108.303924 295.488 
L 108.420157 283.392 
L 108.624472 295.488 
L 108.735257 283.392 
L 108.939572 295.488 
L 109.047632 283.392 
L 109.251948 295.488 
L 109.372721 283.392 
L 109.577036 295.488 
L 109.690545 283.392 
L 109.89486 295.488 
L 110.014725 283.392 
L 110.219041 295.488 
L 110.331641 283.392 
L 110.535957 295.488 
L 111.482165 283.392 
L 111.68648 295.488 
L 111.709182 283.392 
L 111.913497 295.488 
L 111.938923 283.392 
L 112.143239 295.488 
L 112.171389 283.392 
L 112.375704 295.488 
L 112.39659 283.392 
L 112.600905 295.488 
L 112.624515 283.392 
L 112.82883 295.488 
L 112.849716 283.392 
L 113.054031 295.488 
L 113.074009 283.392 
L 113.278324 295.488 
L 113.302842 283.392 
L 113.507158 295.488 
L 113.528043 283.392 
L 113.732359 295.488 
L 113.755061 283.392 
L 113.959376 295.488 
L 113.983894 283.392 
L 114.188209 295.488 
L 114.210003 283.392 
L 114.414318 295.488 
L 114.443377 283.392 
L 114.647692 295.488 
L 114.670394 283.392 
L 114.874709 295.488 
L 114.897411 283.392 
L 115.101726 295.488 
L 115.124428 283.392 
L 115.328744 295.488 
L 131.691234 283.392 
L 131.895549 295.488 
L 131.921883 283.392 
L 132.126199 295.488 
L 132.145268 283.392 
L 132.349584 295.488 
L 132.37955 283.392 
L 132.583865 295.488 
L 132.605659 283.392 
L 132.809975 295.488 
L 132.832676 283.392 
L 133.036992 295.488 
L 133.194088 162.432 
L 133.25402 114.048 
L 133.303964 162.432 
L 133.317585 174.528 
L 133.7807 186.624 
L 133.821563 222.912 
L 134.311012 235.008 
L 134.351875 271.296 
L 134.771403 283.392 
L 134.789564 295.488 
L 138.716054 283.392 
L 138.920369 283.392 
L 139.170996 114.048 
L 139.180077 126.144 
L 139.643192 114.048 
L 139.694044 150.336 
L 139.894727 138.24 
L 140.127192 138.24 
L 140.168055 174.528 
L 140.588491 150.336 
L 140.682022 186.624 
L 140.696551 198.72 
L 141.037985 174.528 
L 141.187817 186.624 
L 141.22868 222.912 
L 141.270451 210.816 
L 141.49656 198.72 
L 141.67999 210.816 
L 141.720853 247.104 
L 141.724485 235.008 
L 141.949686 222.912 
L 142.168531 235.008 
L 142.180336 222.912 
L 142.208486 259.2 
L 142.62983 235.008 
L 142.725177 259.2 
L 142.756959 283.392 
L 143.083864 271.296 
L 143.255489 283.392 
L 143.28818 295.488 
L 143.311789 283.392 
L 143.516105 295.488 
L 143.539715 283.392 
L 143.749478 295.488 
L 143.765824 283.392 
L 143.970139 295.488 
L 143.994657 283.392 
L 144.198973 295.488 
L 144.222582 283.392 
L 144.426898 295.488 
L 144.448691 283.392 
L 144.653007 295.488 
L 144.678433 283.392 
L 144.882748 295.488 
L 144.906358 283.392 
L 145.110673 295.488 
L 145.133375 283.392 
L 145.337691 295.488 
L 145.3613 283.392 
L 145.565616 295.488 
L 145.584685 283.392 
L 145.789001 295.488 
L 145.809886 283.392 
L 146.014202 295.488 
L 146.035996 283.392 
L 146.240311 295.488 
L 146.265737 283.392 
L 146.470052 295.488 
L 146.492754 283.392 
L 146.69707 295.488 
L 146.717955 283.392 
L 146.922271 295.488 
L 146.94134 283.392 
L 147.145656 295.488 
L 147.167449 283.392 
L 147.371765 295.488 
L 147.389926 283.392 
L 147.594241 295.488 
L 147.615127 283.392 
L 147.819442 295.488 
L 147.846685 283.392 
L 148.051 295.488 
L 148.073702 283.392 
L 148.278017 295.488 
L 148.297087 283.392 
L 148.501402 295.488 
L 148.525012 283.392 
L 148.729327 295.488 
L 148.749305 283.392 
L 148.95362 295.488 
L 148.975414 283.392 
L 149.179729 295.488 
L 149.200615 283.392 
L 149.40493 295.488 
L 149.654649 283.392 
L 149.858965 295.488 
L 149.882575 283.392 
L 150.08689 295.488 
L 150.112316 283.392 
L 150.316631 295.488 
L 150.342057 283.392 
L 150.546373 295.488 
L 150.570891 283.392 
L 150.775206 295.488 
L 150.802448 283.392 
L 151.006764 295.488 
L 151.024925 283.392 
L 151.229241 295.488 
L 151.251034 283.392 
L 151.45535 295.488 
L 151.474419 283.392 
L 151.678735 295.488 
L 151.708701 283.392 
L 151.913016 295.488 
L 151.942074 283.392 
L 152.14639 295.488 
L 152.17 283.392 
L 152.374315 295.488 
L 152.397017 283.392 
L 152.601332 295.488 
L 152.624942 283.392 
L 152.829258 295.488 
L 152.846511 283.392 
L 153.050826 295.488 
L 153.075344 283.392 
L 153.27966 295.488 
L 153.30327 283.392 
L 153.507585 295.488 
L 153.528471 283.392 
L 153.732786 295.488 
L 153.755488 283.392 
L 153.959803 295.488 
L 153.988861 283.392 
L 154.193177 295.488 
L 154.214971 283.392 
L 154.419286 295.488 
L 154.443804 283.392 
L 154.648119 295.488 
L 154.677177 283.392 
L 154.881493 295.488 
L 154.903287 283.392 
L 155.107602 295.488 
L 155.123947 283.392 
L 155.328263 295.488 
L 155.349148 283.392 
L 155.553464 295.488 
L 155.574349 283.392 
L 155.778665 295.488 
L 155.801367 283.392 
L 156.005682 295.488 
L 156.027476 283.392 
L 156.231791 295.488 
L 156.251769 283.392 
L 156.456084 295.488 
L 156.478786 283.392 
L 156.683101 295.488 
L 156.706711 283.392 
L 156.911027 295.488 
L 156.938269 283.392 
L 157.142584 295.488 
L 157.165286 283.392 
L 157.369601 295.488 
L 157.392303 283.392 
L 157.596618 295.488 
L 157.621136 283.392 
L 157.825452 295.488 
L 157.844521 283.392 
L 158.048837 295.488 
L 158.076079 283.392 
L 158.280394 295.488 
L 158.304004 283.392 
L 158.508319 295.488 
L 158.531021 283.392 
L 158.735337 295.488 
L 158.761671 283.392 
L 158.965986 295.488 
L 164.438008 283.392 
L 164.642324 295.488 
L 164.659577 283.392 
L 164.863892 295.488 
L 164.887502 283.392 
L 165.091818 295.488 
L 165.112703 283.392 
L 165.317019 295.488 
L 165.345169 283.392 
L 165.549484 295.488 
L 165.57037 283.392 
L 165.771961 271.296 
L 165.774685 283.392 
L 165.922701 271.296 
L 166.07798 150.336 
L 166.141545 174.528 
L 166.155166 186.624 
L 166.293193 198.72 
L 166.334056 235.008 
L 166.775377 247.104 
L 166.815332 283.392 
L 167.31023 295.488 
L 171.41016 283.392 
L 171.614475 295.488 
L 171.724352 186.624 
L 171.832412 101.952 
L 171.874183 126.144 
L 171.887804 138.24 
L 171.956817 126.144 
L 172.190191 114.048 
L 172.318229 126.144 
L 172.359092 162.432 
L 172.417208 150.336 
L 172.643317 138.24 
L 172.849449 150.336 
L 172.890312 174.528 
L 173.328001 150.336 
L 173.382485 198.72 
L 173.786576 174.528 
L 173.891912 198.72 
L 173.919154 222.912 
L 174.014501 210.816 
L 174.241518 198.72 
L 174.37228 210.816 
L 174.413143 247.104 
L 174.471259 235.008 
L 174.694644 222.912 
L 174.852648 235.008 
L 174.894419 271.296 
L 174.925294 259.2 
L 175.156851 247.104 
L 175.366615 259.2 
L 175.412019 283.392 
L 175.832454 259.2 
L 176.03677 295.488 
L 176.061288 283.392 
L 176.287397 271.296 
L 176.491712 295.488 
L 176.513506 283.392 
L 176.717821 295.488 
L 176.736891 283.392 
L 176.941206 295.488 
L 176.961184 283.392 
L 177.165499 295.488 
L 177.187293 283.392 
L 177.391608 295.488 
L 177.413402 283.392 
L 177.617718 295.488 
L 177.637695 283.392 
L 177.842011 295.488 
L 177.86562 283.392 
L 178.069936 295.488 
L 178.090821 283.392 
L 178.295137 295.488 
L 178.318747 283.392 
L 178.523062 295.488 
L 178.546672 283.392 
L 178.750987 295.488 
L 178.772781 283.392 
L 178.977096 295.488 
L 178.997074 283.392 
L 179.201389 295.488 
L 179.224091 283.392 
L 179.453833 271.296 
L 179.639987 283.392 
L 179.681758 271.296 
L 182.390527 126.144 
L 182.8264 114.048 
L 186.549482 101.952 
L 186.563103 114.048 
L 187.005332 101.952 
L 187.047103 114.048 
L 187.488425 101.952 
L 187.530196 114.048 
L 188.473679 114.048 
L 188.486392 101.952 
L 188.4873 114.048 
L 188.984922 114.048 
L 189.461658 101.952 
L 189.503429 114.048 
L 189.982889 101.952 
L 190.025569 126.144 
L 190.028293 114.048 
L 190.451453 126.144 
L 190.492316 162.432 
L 190.687551 150.336 
L 190.980857 162.432 
L 191.02172 186.624 
L 191.312302 174.528 
L 191.52479 186.624 
L 191.565653 222.912 
L 191.630126 210.816 
L 191.942502 198.72 
L 192.038757 222.912 
L 192.05147 235.008 
L 192.26305 222.912 
L 192.545459 235.008 
L 192.572701 247.104 
L 192.756131 259.2 
L 192.782465 271.296 
L 192.896882 259.2 
L 193.088484 271.296 
L 193.115726 283.392 
L 193.219246 271.296 
L 193.465333 283.392 
L 193.497115 295.488 
L 193.529806 283.392 
L 193.825836 295.488 
L 193.845814 283.392 
L 194.050129 295.488 
L 194.163638 283.392 
L 194.367953 295.488 
L 194.47783 283.392 
L 194.682145 295.488 
L 194.792021 283.392 
L 194.996337 295.488 
L 195.114386 283.392 
L 195.318701 295.488 
L 195.428577 283.392 
L 195.632893 295.488 
L 195.737321 283.392 
L 195.941636 295.488 
L 196.058777 283.392 
L 196.263093 295.488 
L 196.38659 283.392 
L 196.590905 295.488 
L 196.707138 283.392 
L 196.911454 295.488 
L 202.47065 283.392 
L 202.674966 295.488 
L 202.784842 283.392 
L 202.989158 295.488 
L 203.099034 283.392 
L 203.303349 295.488 
L 203.425939 283.392 
L 203.630254 295.488 
L 203.918112 271.296 
L 203.954435 283.392 
L 204.136048 259.2 
L 204.251373 210.816 
L 204.287696 222.912 
L 204.3894 247.104 
L 204.453873 235.008 
L 204.508357 210.816 
L 204.673625 198.72 
L 204.720845 210.816 
L 205.012335 198.72 
L 205.05229 222.912 
L 205.266594 210.816 
L 205.399172 235.008 
L 205.58351 222.912 
L 205.727893 235.008 
L 205.755135 247.104 
L 205.905874 235.008 
L 206.084764 247.104 
L 206.112006 259.2 
L 206.21825 247.104 
L 206.446175 259.2 
L 206.473417 271.296 
L 206.526085 259.2 
L 206.834829 271.296 
L 206.847542 259.2 
L 206.862071 271.296 
L 207.170814 259.2 
L 207.205321 283.392 
L 207.48773 271.296 
L 207.500443 283.392 
L 207.799198 271.296 
L 207.801922 283.392 
L 208.003513 295.488 
L 208.11793 283.392 
L 208.322245 295.488 
L 208.434846 283.392 
L 208.639161 295.488 
L 208.749038 283.392 
L 208.953353 295.488 
L 209.065954 283.392 
L 209.270269 295.488 
L 209.381961 283.392 
L 209.586277 295.488 
L 209.701602 283.392 
L 209.905917 295.488 
L 210.019426 283.392 
L 210.223741 295.488 
L 210.336342 283.392 
L 210.540657 295.488 
L 210.655074 283.392 
L 210.859389 295.488 
L 210.970174 283.392 
L 211.174489 295.488 
L 211.292538 283.392 
L 211.496854 295.488 
L 211.615811 283.392 
L 211.820126 295.488 
L 211.937267 283.392 
L 212.141582 295.488 
L 212.24601 283.392 
L 212.450326 295.488 
L 212.56111 283.392 
L 212.765426 295.488 
L 212.878934 283.392 
L 213.08325 295.488 
L 213.194942 283.392 
L 213.399257 295.488 
L 224.40505 283.392 
L 224.609366 295.488 
L 224.723783 283.392 
L 224.928098 295.488 
L 225.037974 283.392 
L 225.24229 295.488 
L 225.356706 283.392 
L 225.561022 295.488 
L 225.704497 271.296 
L 225.901548 210.816 
L 225.910628 222.912 
L 225.965112 247.104 
L 226.132197 222.912 
L 226.263867 198.72 
L 226.311087 210.816 
L 226.608933 198.72 
L 226.656153 210.816 
L 226.972161 198.72 
L 227.01484 210.816 
L 227.299065 198.72 
L 227.342653 210.816 
L 227.662293 198.72 
L 227.70588 210.816 
L 228.019164 198.72 
L 228.062751 210.816 
L 228.366046 198.72 
L 228.402369 222.912 
L 228.717469 235.008 
L 228.744711 247.104 
L 229.07434 259.2 
L 229.101582 271.296 
L 229.81714 295.488 
L 229.837117 283.392 
L 230.014191 271.296 
L 230.041433 283.392 
L 230.194897 271.296 
L 230.218506 283.392 
L 230.374694 271.296 
L 230.399212 283.392 
L 230.557216 271.296 
L 230.57901 283.392 
L 230.73883 271.296 
L 230.761531 283.392 
L 230.918627 271.296 
L 230.943145 283.392 
L 231.105689 271.296 
L 231.122943 283.392 
L 231.284579 271.296 
L 231.310005 283.392 
L 231.466193 271.296 
L 231.488894 283.392 
L 231.649623 271.296 
L 231.670508 283.392 
L 231.82942 271.296 
L 231.853938 283.392 
L 232.00831 271.296 
L 232.033736 283.392 
L 232.19174 271.296 
L 232.212625 283.392 
L 232.372445 271.296 
L 232.396055 283.392 
L 232.554967 271.296 
L 232.576761 283.392 
L 232.731133 271.296 
L 232.759283 283.392 
L 232.91093 271.296 
L 232.935448 283.392 
L 233.092544 271.296 
L 233.115246 283.392 
L 233.274158 271.296 
L 233.296859 283.392 
L 233.455771 271.296 
L 233.478473 283.392 
L 233.641017 271.296 
L 233.660087 283.392 
L 233.820815 271.296 
L 233.845333 283.392 
L 234.006969 271.296 
L 234.02513 283.392 
L 234.182226 271.296 
L 234.211285 283.392 
L 234.36384 271.296 
L 234.386542 283.392 
L 234.548178 271.296 
L 234.568156 283.392 
L 234.731608 271.296 
L 234.752493 283.392 
L 234.912314 271.296 
L 234.935923 283.392 
L 235.093019 271.296 
L 235.116629 283.392 
L 235.280081 271.296 
L 235.297335 283.392 
L 235.461695 271.296 
L 235.484397 283.392 
L 235.646941 271.296 
L 235.666011 283.392 
L 235.825831 271.296 
L 235.851257 283.392 
L 236.005628 271.296 
L 236.030146 283.392 
L 236.182702 271.296 
L 236.209944 283.392 
L 236.361591 271.296 
L 236.387017 283.392 
L 236.542297 271.296 
L 236.565907 283.392 
L 236.726635 271.296 
L 236.746612 283.392 
L 236.903708 271.296 
L 236.93095 283.392 
L 237.082598 271.296 
L 237.108024 283.392 
L 237.262395 271.296 
L 237.286913 283.392 
L 237.442193 271.296 
L 237.466711 283.392 
L 237.627439 271.296 
L 237.646508 283.392 
L 237.811777 271.296 
L 237.831755 283.392 
L 237.993391 271.296 
L 238.016092 283.392 
L 238.17228 271.296 
L 238.197706 283.392 
L 238.354802 271.296 
L 238.376596 283.392 
L 238.532784 271.296 
L 238.559118 283.392 
L 238.714397 271.296 
L 238.737099 283.392 
L 238.892379 271.296 
L 238.918713 283.392 
L 239.073993 271.296 
L 239.096694 283.392 
L 239.25379 271.296 
L 239.278308 283.392 
L 239.434496 271.296 
L 239.458106 283.392 
L 239.617926 271.296 
L 239.638811 283.392 
L 239.803172 271.296 
L 239.822241 283.392 
L 239.979337 271.296 
L 240.007487 283.392 
L 240.160043 271.296 
L 240.183653 283.392 
L 240.347105 271.296 
L 240.364358 283.392 
L 240.532351 271.296 
L 240.55142 283.392 
L 240.709424 271.296 
L 240.736666 283.392 
L 240.891946 271.296 
L 240.91374 283.392 
L 241.07356 271.296 
L 241.096262 283.392 
L 241.256082 271.296 
L 241.277875 283.392 
L 241.439512 271.296 
L 241.460397 283.392 
L 241.619309 271.296 
L 241.643827 283.392 
L 241.805463 271.296 
L 241.823625 283.392 
L 241.985261 271.296 
L 242.009779 283.392 
L 242.168691 271.296 
L 242.189576 283.392 
L 242.348488 271.296 
L 242.373006 283.392 
L 242.528286 271.296 
L 242.552804 283.392 
L 242.711716 271.296 
L 242.732601 283.392 
L 242.895146 271.296 
L 242.916031 283.392 
L 243.080392 271.296 
L 243.099461 283.392 
L 243.260189 271.296 
L 243.284707 283.392 
L 243.464505 295.488 
L 243.797766 271.296 
L 243.8241 283.392 
L 243.976656 271.296 
L 244.002081 283.392 
L 244.158269 271.296 
L 244.180971 283.392 
L 244.340791 271.296 
L 244.362585 283.392 
L 244.523313 271.296 
L 244.545107 283.392 
L 244.708559 271.296 
L 244.727628 283.392 
L 244.889265 271.296 
L 244.912874 283.392 
L 245.066338 271.296 
L 245.09358 283.392 
L 245.247952 271.296 
L 245.270653 283.392 
L 245.431382 271.296 
L 245.452267 283.392 
L 245.610271 271.296 
L 245.635697 283.392 
L 245.793701 271.296 
L 245.814587 283.392 
L 245.971683 271.296 
L 245.998017 283.392 
L 246.15148 271.296 
L 246.175998 283.392 
L 246.33037 271.296 
L 246.355796 283.392 
L 246.5138 271.296 
L 246.534685 283.392 
L 246.695413 271.296 
L 246.718115 283.392 
L 246.876119 271.296 
L 246.899729 283.392 
L 247.060457 271.296 
L 247.080434 283.392 
L 247.242979 271.296 
L 247.264772 283.392 
L 247.422776 271.296 
L 247.447294 283.392 
L 247.601666 271.296 
L 247.627092 283.392 
L 247.784188 271.296 
L 247.805981 283.392 
L 247.965801 271.296 
L 247.988503 283.392 
L 248.149231 271.296 
L 248.170117 283.392 
L 248.334477 271.296 
L 248.353547 283.392 
L 248.518815 271.296 
L 248.538793 283.392 
L 248.700429 271.296 
L 248.723131 283.392 
L 248.882951 271.296 
L 248.904745 283.392 
L 249.064565 271.296 
L 249.087266 283.392 
L 249.24527 271.296 
L 249.26888 283.392 
L 249.42416 271.296 
L 249.449586 283.392 
L 249.608498 271.296 
L 249.628475 283.392 
L 249.794652 271.296 
L 249.812813 283.392 
L 249.975358 271.296 
L 249.998967 283.392 
L 250.158787 271.296 
L 250.179673 283.392 
L 250.338585 271.296 
L 250.363103 283.392 
L 250.519291 271.296 
L 250.5429 283.392 
L 250.697272 271.296 
L 250.723606 283.392 
L 250.877978 271.296 
L 250.901588 283.392 
L 251.063224 271.296 
L 251.082293 283.392 
L 251.246654 271.296 
L 251.267539 283.392 
L 251.4319 271.296 
L 251.450969 283.392 
L 251.610789 271.296 
L 251.636215 283.392 
L 251.794219 271.296 
L 251.815105 283.392 
L 251.976741 271.296 
L 251.998535 283.392 
L 252.156539 271.296 
L 252.181056 283.392 
L 252.335428 271.296 
L 252.360854 283.392 
L 252.520674 271.296 
L 252.539744 283.392 
L 252.703196 271.296 
L 252.72499 283.392 
L 252.887534 271.296 
L 252.907511 283.392 
L 253.067332 271.296 
L 253.091849 283.392 
L 253.249853 271.296 
L 253.271647 283.392 
L 253.431467 271.296 
L 253.454169 283.392 
L 253.60854 271.296 
L 253.635783 283.392 
L 253.79197 271.296 
L 253.812856 283.392 
L 253.976308 271.296 
L 253.996286 283.392 
L 254.152474 271.296 
L 254.180624 283.392 
L 254.33772 271.296 
L 254.356789 283.392 
L 254.520241 271.296 
L 254.542035 283.392 
L 254.703671 271.296 
L 254.724557 283.392 
L 254.881653 271.296 
L 254.907987 283.392 
L 255.060542 271.296 
L 255.085968 283.392 
L 255.243064 271.296 
L 255.264858 283.392 
L 255.42377 271.296 
L 255.44738 283.392 
L 255.606292 271.296 
L 255.628085 283.392 
L 255.785181 271.296 
L 255.810607 283.392 
L 255.965887 271.296 
L 255.989497 283.392 
L 256.147501 271.296 
L 256.170202 283.392 
L 256.32639 271.296 
L 256.351816 283.392 
L 256.504372 271.296 
L 256.530706 283.392 
L 256.685077 271.296 
L 256.708687 283.392 
L 256.869415 271.296 
L 256.889393 283.392 
L 257.052845 271.296 
L 257.073731 283.392 
L 257.233551 271.296 
L 257.257161 283.392 
L 257.414256 271.296 
L 257.437866 283.392 
L 257.59587 271.296 
L 257.618572 283.392 
L 257.773852 271.296 
L 257.800186 283.392 
L 257.953649 271.296 
L 257.978167 283.392 
L 258.135263 271.296 
L 258.157965 283.392 
L 258.313245 271.296 
L 258.339579 283.392 
L 258.492134 271.296 
L 258.51756 283.392 
L 258.69645 295.488 
L 269.679541 283.392 
L 269.902018 53.568 
L 269.944697 77.76 
L 270.382386 53.568 
L 270.420525 101.952 
L 270.492262 89.856 
L 270.853674 65.664 
L 270.903617 114.048 
L 271.212361 89.856 
L 271.3631 101.952 
L 271.395791 126.144 
L 271.75357 101.952 
L 271.880699 114.048 
L 271.91339 150.336 
L 271.933367 138.24 
L 272.297503 114.048 
L 272.382861 150.336 
L 272.393758 162.432 
L 272.475484 150.336 
L 272.654374 138.24 
L 272.828723 150.336 
L 272.83508 138.24 
L 272.860505 174.528 
L 273.194675 150.336 
L 273.343598 162.432 
L 273.376288 186.624 
L 273.7377 162.432 
L 273.860289 174.528 
L 273.89298 210.816 
L 273.918406 198.72 
L 274.279817 174.528 
L 274.356095 210.816 
L 274.366991 222.912 
L 274.461431 210.816 
L 274.821026 186.624 
L 274.897304 235.008 
L 274.999007 222.912 
L 275.364051 198.72 
L 275.401282 247.104 
L 275.72637 222.912 
L 275.816269 247.104 
L 275.915249 259.2 
L 276.084149 247.104 
L 276.257591 259.2 
L 276.263947 247.104 
L 276.288465 271.296 
L 276.628083 247.104 
L 276.635347 259.2 
L 276.764293 271.296 
L 276.812421 259.2 
L 276.832398 271.296 
L 276.992218 259.2 
L 277.016736 271.296 
L 277.172924 259.2 
L 277.280984 271.296 
L 277.353629 259.2 
L 277.377239 271.296 
L 277.536151 259.2 
L 277.557945 271.296 
L 277.718673 259.2 
L 277.740467 271.296 
L 277.900287 259.2 
L 277.922989 271.296 
L 278.079176 259.2 
L 278.104602 271.296 
L 278.262606 259.2 
L 278.283492 271.296 
L 278.442404 259.2 
L 278.466922 271.296 
L 278.646719 283.392 
L 278.989969 259.2 
L 279.011763 271.296 
L 279.174307 259.2 
L 279.194285 271.296 
L 279.350473 259.2 
L 279.378623 271.296 
L 279.532994 259.2 
L 279.554788 271.296 
L 279.714608 259.2 
L 279.73731 271.296 
L 279.89713 259.2 
L 279.918924 271.296 
L 280.078744 259.2 
L 280.101445 271.296 
L 280.26399 259.2 
L 280.283059 271.296 
L 280.442879 259.2 
L 280.468305 271.296 
L 280.622677 259.2 
L 280.647195 271.296 
L 280.804291 259.2 
L 280.826992 271.296 
L 281.699646 210.816 
L 283.881736 65.664 
L 290.082029 77.76 
L 290.525166 89.856 
L 290.556949 126.144 
L 290.981017 138.24 
L 291.012799 174.528 
L 291.47773 186.624 
L 291.510421 222.912 
L 291.99987 235.008 
L 292.031652 271.296 
L 292.491135 283.392 
L 296.93704 271.296 
L 297.141355 283.392 
L 297.291186 126.144 
L 297.393798 53.568 
L 297.420132 89.856 
L 297.683472 65.664 
L 297.888696 53.568 
L 297.925018 101.952 
L 298.221957 77.76 
L 298.380869 89.856 
L 298.413559 114.048 
L 298.769522 89.856 
L 298.889387 114.048 
L 298.911181 138.24 
L 298.951136 126.144 
L 299.314363 101.952 
L 299.404262 126.144 
L 299.426056 150.336 
L 299.495977 138.24 
L 299.854664 114.048 
L 299.942747 150.336 
L 299.953644 162.432 
L 300.037186 150.336 
L 300.396781 126.144 
L 300.464887 174.528 
L 300.579303 162.432 
L 300.939806 138.24 
L 300.995199 186.624 
L 301.303034 162.432 
L 301.467394 174.528 
L 301.499177 198.72 
L 301.850599 174.528 
L 301.982269 186.624 
L 302.01496 222.912 
L 302.033121 210.816 
L 302.387268 186.624 
L 302.474443 222.912 
L 302.484431 235.008 
L 302.570698 222.912 
L 302.929385 198.72 
L 302.962984 247.104 
L 303.112815 235.008 
L 303.476042 222.912 
L 303.530527 271.296 
L 303.836546 247.104 
L 303.969124 259.2 
L 304.040861 271.296 
L 304.381387 247.104 
L 304.477642 271.296 
L 304.565725 259.2 
L 304.585702 271.296 
L 304.746431 259.2 
L 304.77004 271.296 
L 304.930768 259.2 
L 304.950746 271.296 
L 305.110566 259.2 
L 305.135084 271.296 
L 305.290364 259.2 
L 305.314882 271.296 
L 305.468345 259.2 
L 305.494679 271.296 
L 305.648143 259.2 
L 305.672661 271.296 
L 305.829757 259.2 
L 305.852458 271.296 
L 306.013186 259.2 
L 306.034072 271.296 
L 306.195708 259.2 
L 306.217502 271.296 
L 306.380954 259.2 
L 306.400024 271.296 
L 306.558936 259.2 
L 306.58527 271.296 
L 306.743274 259.2 
L 306.763251 271.296 
L 306.921255 259.2 
L 306.947589 271.296 
L 307.101053 259.2 
L 307.125571 271.296 
L 307.305368 283.392 
L 307.641354 259.2 
L 307.665871 271.296 
L 307.820243 259.2 
L 307.845669 271.296 
L 308.004581 259.2 
L 308.024559 271.296 
L 308.184379 259.2 
L 308.208897 271.296 
L 308.364176 259.2 
L 308.388694 271.296 
L 308.548514 259.2 
L 308.568492 271.296 
L 308.72922 259.2 
L 308.75283 271.296 
L 308.910834 259.2 
L 308.933535 271.296 
L 309.094264 259.2 
L 309.115149 271.296 
L 309.278602 259.2 
L 309.298579 271.296 
L 309.460215 259.2 
L 309.482917 271.296 
L 309.639105 259.2 
L 309.664531 271.296 
L 309.817994 259.2 
L 309.84342 271.296 
L 309.999608 259.2 
L 310.02231 271.296 
L 310.181222 259.2 
L 310.203924 271.296 
L 310.366468 259.2 
L 310.385537 271.296 
L 310.543541 259.2 
L 310.570783 271.296 
L 310.726063 259.2 
L 310.747857 271.296 
L 310.907677 259.2 
L 310.930379 271.296 
L 311.091107 259.2 
L 311.111992 271.296 
L 311.295422 283.392 
L 312.050935 271.296 
L 312.255251 283.392 
L 312.368759 271.296 
L 312.573075 283.392 
L 312.6884 271.296 
L 312.892715 283.392 
L 313.010764 271.296 
L 313.215079 283.392 
L 313.329496 271.296 
L 313.533812 283.392 
L 313.649136 271.296 
L 313.853452 283.392 
L 313.970593 271.296 
L 314.174908 283.392 
L 314.295681 271.296 
L 314.499997 283.392 
L 314.612597 271.296 
L 314.816913 283.392 
L 314.929513 271.296 
L 315.133829 283.392 
L 315.244613 271.296 
L 315.448928 283.392 
L 315.566069 271.296 
L 315.770385 283.392 
L 315.877537 271.296 
L 316.081852 283.392 
L 316.198085 271.296 
L 316.402401 283.392 
L 316.518633 271.296 
L 316.722949 283.392 
L 316.839182 271.296 
L 317.043497 283.392 
L 317.154282 271.296 
L 317.358597 283.392 
L 317.473922 271.296 
L 317.678237 283.392 
L 317.790838 271.296 
L 317.995153 283.392 
L 318.110478 271.296 
L 318.314793 283.392 
L 318.431934 271.296 
L 318.63625 283.392 
L 318.741586 271.296 
L 318.945901 283.392 
L 319.057594 271.296 
L 319.261909 283.392 
L 319.376326 271.296 
L 319.580641 283.392 
L 319.690517 271.296 
L 319.894833 283.392 
L 320.007433 271.296 
L 320.211749 283.392 
L 320.322533 271.296 
L 320.526849 283.392 
L 320.964538 271.296 
L 321.168853 283.392 
L 321.285994 271.296 
L 321.49031 283.392 
L 321.595646 271.296 
L 321.799961 283.392 
L 321.917102 271.296 
L 322.121417 283.392 
L 322.232202 271.296 
L 322.436517 283.392 
L 322.556382 271.296 
L 322.760698 283.392 
L 322.870574 271.296 
L 323.07489 283.392 
L 323.189306 271.296 
L 323.393622 283.392 
L 323.508946 271.296 
L 323.713262 283.392 
L 323.827679 271.296 
L 324.031994 283.392 
L 324.143686 271.296 
L 324.348002 283.392 
L 324.455154 271.296 
L 324.65947 283.392 
L 324.771162 271.296 
L 324.975477 283.392 
L 325.09171 271.296 
L 325.296026 283.392 
L 325.401362 271.296 
L 325.605677 283.392 
L 325.718278 271.296 
L 325.922593 283.392 
L 326.037918 271.296 
L 326.242233 283.392 
L 326.35665 271.296 
L 326.560965 283.392 
L 326.680831 271.296 
L 326.885146 283.392 
L 326.99593 271.296 
L 327.200246 283.392 
L 327.308306 271.296 
L 327.512621 283.392 
L 327.62613 271.296 
L 327.830446 283.392 
L 327.944862 271.296 
L 328.149178 283.392 
L 328.267227 271.296 
L 328.471542 283.392 
L 328.579602 271.296 
L 328.783918 283.392 
L 328.901059 271.296 
L 329.105374 283.392 
L 329.213434 271.296 
L 329.41775 283.392 
L 329.536707 271.296 
L 329.741022 283.392 
L 329.84999 271.296 
L 330.054306 283.392 
L 330.175987 271.296 
L 330.380302 283.392 
L 330.491995 271.296 
L 330.69631 283.392 
L 330.803463 271.296 
L 331.007778 283.392 
L 331.120378 271.296 
L 331.324694 283.392 
L 331.438203 271.296 
L 331.642518 283.392 
L 331.75421 271.296 
L 331.958526 283.392 
L 332.063862 271.296 
L 332.268177 283.392 
L 332.383502 271.296 
L 332.587818 283.392 
L 332.694062 271.296 
L 332.898377 283.392 
L 333.010978 271.296 
L 333.215293 283.392 
L 333.332434 271.296 
L 333.536749 283.392 
L 333.652074 271.296 
L 333.85639 283.392 
L 333.96899 271.296 
L 334.173306 283.392 
L 334.289538 271.296 
L 334.493854 283.392 
L 334.611903 271.296 
L 334.816218 283.392 
L 334.929727 271.296 
L 335.134042 283.392 
L 335.243919 271.296 
L 335.448234 283.392 
L 335.556294 271.296 
L 335.76061 283.392 
L 335.867762 271.296 
L 336.072077 283.392 
L 336.18377 271.296 
L 336.388085 283.392 
L 336.49887 271.296 
L 336.703185 283.392 
L 336.815786 271.296 
L 337.020101 283.392 
L 337.13361 271.296 
L 337.337925 283.392 
L 337.456882 271.296 
L 337.661197 283.392 
L 337.773798 271.296 
L 337.978113 283.392 
L 338.088898 271.296 
L 338.293213 283.392 
L 338.408538 271.296 
L 338.612854 283.392 
L 338.72727 271.296 
L 338.931586 283.392 
L 339.047818 271.296 
L 339.252134 283.392 
L 339.360194 271.296 
L 339.56451 283.392 
L 339.678926 271.296 
L 339.883242 283.392 
L 340.003107 271.296 
L 340.207422 283.392 
L 340.320931 271.296 
L 340.525246 283.392 
L 340.633306 271.296 
L 340.837622 283.392 
L 340.947498 271.296 
L 341.151814 283.392 
L 341.267138 271.296 
L 341.471454 283.392 
L 341.584054 271.296 
L 341.78837 283.392 
L 341.908235 271.296 
L 342.11255 283.392 
L 342.226967 271.296 
L 342.431282 283.392 
L 342.551148 271.296 
L 342.755463 283.392 
L 342.868972 271.296 
L 343.073287 283.392 
L 343.18952 271.296 
L 343.393835 283.392 
L 343.501896 271.296 
L 343.706211 283.392 
L 343.816995 271.296 
L 344.021311 283.392 
L 355.036184 271.296 
L 355.2405 283.392 
L 355.356733 271.296 
L 355.561048 283.392 
L 355.673649 271.296 
L 355.877964 283.392 
L 355.994197 271.296 
L 356.198512 283.392 
L 356.472749 259.2 
L 356.510888 271.296 
L 356.638018 259.2 
L 356.792389 138.24 
L 356.856862 162.432 
L 356.870483 174.528 
L 357.000337 162.432 
L 357.181951 89.856 
L 357.200112 101.952 
L 357.70409 89.856 
L 357.744953 101.952 
L 358.194447 89.856 
L 358.236219 101.952 
L 358.7293 89.856 
L 358.771071 101.952 
L 359.275049 89.856 
L 359.31682 114.048 
L 359.321361 101.952 
L 359.756326 89.856 
L 359.798097 126.144 
L 359.889812 114.048 
L 360.112289 101.952 
L 360.322052 114.048 
L 360.362916 138.24 
L 360.790616 114.048 
L 360.84964 162.432 
L 361.013093 150.336 
L 361.23557 162.432 
L 361.236478 150.336 
L 361.275525 186.624 
L 361.684156 162.432 
L 361.765882 198.72 
L 361.779503 210.816 
L 362.140006 186.624 
L 362.235353 222.912 
L 362.248974 235.008 
L 362.366115 222.912 
L 362.594948 210.816 
L 362.691204 235.008 
L 362.718446 259.2 
L 362.818333 247.104 
L 363.045351 235.008 
L 363.170664 259.2 
L 363.188825 271.296 
L 363.269644 259.2 
L 363.455798 271.296 
L 363.496661 259.2 
L 363.700976 283.392 
L 363.720046 271.296 
L 363.924361 283.392 
L 363.952511 271.296 
L 364.156827 283.392 
L 364.176804 271.296 
L 364.38112 283.392 
L 364.402005 271.296 
L 364.606321 283.392 
L 364.630839 271.296 
L 364.835154 283.392 
L 364.86058 271.296 
L 365.064895 283.392 
L 365.087597 271.296 
L 365.291913 283.392 
L 365.318247 271.296 
L 365.522562 283.392 
L 365.544356 271.296 
L 365.748671 283.392 
L 365.775005 271.296 
L 365.979321 283.392 
L 366.000206 271.296 
L 366.204522 283.392 
L 366.228131 271.296 
L 366.432447 283.392 
L 366.457873 271.296 
L 366.662188 283.392 
L 366.687614 271.296 
L 366.89193 283.392 
L 366.910091 271.296 
L 367.114406 283.392 
L 367.14074 271.296 
L 367.345056 283.392 
L 367.36685 271.296 
L 367.571165 283.392 
L 367.588418 271.296 
L 367.792734 283.392 
L 367.817252 271.296 
L 368.021567 283.392 
L 368.047901 271.296 
L 368.252217 283.392 
L 368.268562 271.296 
L 368.472877 283.392 
L 368.491039 271.296 
L 368.695354 283.392 
L 368.715332 271.296 
L 368.919647 283.392 
L 368.945073 271.296 
L 369.149388 283.392 
L 369.170274 271.296 
L 369.37459 283.392 
L 369.394567 271.296 
L 369.598882 283.392 
L 369.624308 271.296 
L 369.828624 283.392 
L 375.315175 271.296 
L 375.519491 283.392 
L 375.547641 271.296 
L 375.751956 283.392 
L 375.775566 271.296 
L 375.979881 283.392 
L 375.996227 271.296 
L 376.200542 283.392 
L 376.222336 271.296 
L 376.426651 283.392 
L 376.449353 271.296 
L 376.653668 283.392 
L 376.678186 271.296 
L 376.882502 283.392 
L 387.803844 271.296 
L 388.00816 283.392 
L 388.037218 271.296 
L 388.241533 283.392 
L 388.262419 271.296 
L 388.466734 283.392 
L 388.49216 271.296 
L 388.696476 283.392 
L 388.720994 271.296 
L 388.925309 283.392 
L 388.950735 271.296 
L 389.15505 283.392 
L 389.156867 271.296 
L 389.308514 259.2 
L 389.475599 126.144 
L 389.526451 150.336 
L 389.567314 186.624 
L 390.066751 198.72 
L 390.107615 235.008 
L 390.588891 247.104 
L 390.634294 283.392 
L 394.795065 271.296 
L 394.991208 259.2 
L 394.999381 271.296 
L 395.053865 210.816 
L 395.23003 89.856 
L 395.259088 114.048 
L 395.272709 126.144 
L 395.296319 114.048 
L 395.525153 101.952 
L 395.718571 114.048 
L 395.759434 138.24 
L 396.196215 114.048 
L 396.275217 150.336 
L 396.28793 162.432 
L 396.658422 138.24 
L 396.793725 150.336 
L 396.834588 186.624 
L 396.886348 174.528 
L 397.112457 162.432 
L 397.28499 174.528 
L 397.325853 210.816 
L 397.34583 198.72 
L 397.574664 186.624 
L 397.76445 198.72 
L 397.804405 235.008 
L 397.805313 222.912 
L 398.03233 210.816 
L 398.257531 210.816 
L 398.298394 247.104 
L 398.487273 235.008 
L 398.487273 235.008 
" clip-path="url(#pe50689d6ba)" style="fill: none; stroke: #1f77b4; stroke-width: 1.5; stroke-linecap: square"/>
   </g>
   <g id="patch_3">
    <path d="M 57.6 307.584 
L 57.6 41.472 
" style="fill: none; stroke: #000000; stroke-width: 0.8; stroke-linejoin: miter; stroke-linecap: square"/>
   </g>
   <g id="patch_4">
    <path d="M 414.72 307.584 
L 414.72 41.472 
" style="fill: none; stroke: #000000; stroke-width: 0.8; stroke-linejoin: miter; stroke-linecap: square"/>
   </g>
   <g id="patch_5">
    <path d="M 57.6 307.584 
L 414.72 307.584 
" style="fill: none; stroke: #000000; stroke-width: 0.8; stroke-linejoin: miter; stroke-linecap: square"/>
   </g>
   <g id="patch_6">
    <path d="M 57.6 41.472 
L 414.72 41.472 
" style="fill: none; stroke: #000000; stroke-width: 0.8; stroke-linejoin: miter; stroke-linecap: square"/>
   </g>
   <g id="text_19">
    <!-- Queue size (y-axis) between S5 and sensors that follow at a time (x-axis). -->
    <g transform="translate(14.282813 35.472) scale(0.12 -0.12)">
     <defs>
      <path id="DejaVuSans-51" d="M 2522 4238 
Q 1834 4238 1429 3725 
Q 1025 3213 1025 2328 
Q 1025 1447 1429 934 
Q 1834 422 2522 422 
Q 3209 422 3611 934 
Q 4013 1447 4013 2328 
Q 4013 3213 3611 3725 
Q 3209 4238 2522 4238 
z
M 3406 84 
L 4238 -825 
L 3475 -825 
L 2784 -78 
Q 2681 -84 2626 -87 
Q 2572 -91 2522 -91 
Q 1538 -91 948 567 
Q 359 1225 359 2328 
Q 359 3434 948 4092 
Q 1538 4750 2522 4750 
Q 3503 4750 4090 4092 
Q 4678 3434 4678 2328 
Q 4678 1516 4351 937 
Q 4025 359 3406 84 
z
" transform="scale(0.015625)"/>
      <path id="DejaVuSans-75" d="M 544 1381 
L 544 3500 
L 1119 3500 
L 1119 1403 
Q 1119 906 1312 657 
Q 1506 409 1894 409 
Q 2359 409 2629 706 
Q 2900 1003 2900 1516 
L 2900 3500 
L 3475 3500 
L 3475 0 
L 2900 0 
L 2900 538 
Q 2691 219 2414 64 
Q 2138 -91 1772 -91 
Q 1169 -91 856 284 
Q 544 659 544 1381 
z
M 1991 3584 
L 1991 3584 
z
" transform="scale(0.015625)"/>
      <path id="DejaVuSans-20" transform="scale(0.015625)"/>
      <path id="DejaVuSans-73" d="M 2834 3397 
L 2834 2853 
Q 2591 2978 2328 3040 
Q 2066 3103 1784 3103 
Q 1356 3103 1142 2972 
Q 928 2841 928 2578 
Q 928 2378 1081 2264 
Q 1234 2150 1697 2047 
L 1894 2003 
Q 2506 1872 2764 1633 
Q 3022 1394 3022 966 
Q 3022 478 2636 193 
Q 2250 -91 1575 -91 
Q 1294 -91 989 -36 
Q 684 19 347 128 
L 347 722 
Q 666 556 975 473 
Q 1284 391 1588 391 
Q 1994 391 2212 530 
Q 2431 669 2431 922 
Q 2431 1156 2273 1281 
Q 2116 1406 1581 1522 
L 1381 1569 
Q 847 1681 609 1914 
Q 372 2147 372 2553 
Q 372 3047 722 3315 
Q 1072 3584 1716 3584 
Q 2034 3584 2315 3537 
Q 2597 3491 2834 3397 
z
" transform="scale(0.015625)"/>
      <path id="DejaVuSans-69" d="M 603 3500 
L 1178 3500 
L 1178 0 
L 603 0 
L 603 3500 
z
M 603 4863 
L 1178 4863 
L 1178 4134 
L 603 4134 
L 603 4863 
z
" transform="scale(0.015625)"/>
      <path id="DejaVuSans-7a" d="M 353 3500 
L 3084 3500 
L 3084 2975 
L 922 459 
L 3084 459 
L 3084 0 
L 275 0 
L 275 525 
L 2438 3041 
L 353 3041 
L 353 3500 
z
" transform="scale(0.015625)"/>
      <path id="DejaVuSans-28" d="M 1984 4856 
Q 1566 4138 1362 3434 
Q 1159 2731 1159 2009 
Q 1159 1288 1364 580 
Q 1569 -128 1984 -844 
L 1484 -844 
Q 1016 -109 783 600 
Q 550 1309 550 2009 
Q 550 2706 781 3412 
Q 1013 4119 1484 4856 
L 1984 4856 
z
" transform="scale(0.015625)"/>
      <path id="DejaVuSans-79" d="M 2059 -325 
Q 1816 -950 1584 -1140 
Q 1353 -1331 966 -1331 
L 506 -1331 
L 506 -850 
L 844 -850 
Q 1081 -850 1212 -737 
Q 1344 -625 1503 -206 
L 1606 56 
L 191 3500 
L 800 3500 
L 1894 763 
L 2988 3500 
L 3597 3500 
L 2059 -325 
z
" transform="scale(0.015625)"/>
      <path id="DejaVuSans-2d" d="M 313 2009 
L 1997 2009 
L 1997 1497 
L 313 1497 
L 313 2009 
z
" transform="scale(0.015625)"/>
      <path id="DejaVuSans-61" d="M 2194 1759 
Q 1497 1759 1228 1600 
Q 959 1441 959 1056 
Q 959 750 1161 570 
Q 1363 391 1709 391 
Q 2188 391 2477 730 
Q 2766 1069 2766 1631 
L 2766 1759 
L 2194 1759 
z
M 3341 1997 
L 3341 0 
L 2766 0 
L 2766 531 
Q 2569 213 2275 61 
Q 1981 -91 1556 -91 
Q 1019 -91 701 211 
Q 384 513 384 1019 
Q 384 1609 779 1909 
Q 1175 2209 1959 2209 
L 2766 2209 
L 2766 2266 
Q 2766 2663 2505 2880 
Q 2244 3097 1772 3097 
Q 1472 3097 1187 3025 
Q 903 2953 641 2809 
L 641 3341 
Q 956 3463 1253 3523 
Q 1550 3584 1831 3584 
Q 2591 3584 2966 3190 
Q 3341 2797 3341 1997 
z
" transform="scale(0.015625)"/>
      <path id="DejaVuSans-78" d="M 3513 3500 
L 2247 1797 
L 3578 0 
L 2900 0 
L 1881 1375 
L 863 0 
L 184 0 
L 1544 1831 
L 300 3500 
L 978 3500 
L 1906 2253 
L 2834 3500 
L 3513 3500 
z
" transform="scale(0.015625)"/>
      <path id="DejaVuSans-29" d="M 513 4856 
L 1013 4856 
Q 1481 4119 1714 3412 
Q 1947 2706 1947 2009 
Q 1947 1309 1714 600 
Q 1481 -109 1013 -844 
L 513 -844 
Q 928 -128 1133 580 
Q 1338 1288 1338 2009 
Q 1338 2731 1133 3434 
Q 928 4138 513 4856 
z
" transform="scale(0.015625)"/>
      <path id="DejaVuSans-62" d="M 3116 1747 
Q 3116 2381 2855 2742 
Q 2594 3103 2138 3103 
Q 1681 3103 1420 2742 
Q 1159 2381 1159 1747 
Q 1159 1113 1420 752 
Q 1681 391 2138 391 
Q 2594 391 2855 752 
Q 3116 1113 3116 1747 
z
M 1159 2969 
Q 1341 3281 1617 3432 
Q 1894 3584 2278 3584 
Q 2916 3584 3314 3078 
Q 3713 2572 3713 1747 
Q 3713 922 3314 415 
Q 2916 -91 2278 -91 
Q 1894 -91 1617 61 
Q 1341 213 1159 525 
L 1159 0 
L 581 0 
L 581 4863 
L 1159 4863 
L 1159 2969 
z
" transform="scale(0.015625)"/>
      <path id="DejaVuSans-74" d="M 1172 4494 
L 1172 3500 
L 2356 3500 
L 2356 3053 
L 1172 3053 
L 1172 1153 
Q 1172 725 1289 603 
Q 1406 481 1766 481 
L 2356 481 
L 2356 0 
L 1766 0 
Q 1100 0 847 248 
Q 594 497 594 1153 
L 594 3053 
L 172 3053 
L 172 3500 
L 594 3500 
L 594 4494 
L 1172 4494 
z
" transform="scale(0.015625)"/>
      <path id="DejaVuSans-77" d="M 269 3500 
L 844 3500 
L 1563 769 
L 2278 3500 
L 2956 3500 
L 3675 769 
L 4391 3500 
L 4966 3500 
L 4050 0 
L 3372 0 
L 2619 2869 
L 1863 0 
L 1184 0 
L 269 3500 
z
" transform="scale(0.015625)"/>
      <path id="DejaVuSans-6e" d="M 3513 2113 
L 3513 0 
L 2938 0 
L 2938 2094 
Q 2938 2591 2744 2837 
Q 2550 3084 2163 3084 
Q 1697 3084 1428 2787 
Q 1159 2491 1159 1978 
L 1159 0 
L 581 0 
L 581 3500 
L 1159 3500 
L 1159 2956 
Q 1366 3272 1645 3428 
Q 1925 3584 2291 3584 
Q 2894 3584 3203 3211 
Q 3513 2838 3513 2113 
z
" transform="scale(0.015625)"/>
      <path id="DejaVuSans-53" d="M 3425 4513 
L 3425 3897 
Q 3066 4069 2747 4153 
Q 2428 4238 2131 4238 
Q 1616 4238 1336 4038 
Q 1056 3838 1056 3469 
Q 1056 3159 1242 3001 
Q 1428 2844 1947 2747 
L 2328 2669 
Q 3034 2534 3370 2195 
Q 3706 1856 3706 1288 
Q 3706 609 3251 259 
Q 2797 -91 1919 -91 
Q 1588 -91 1214 -16 
Q 841 59 441 206 
L 441 856 
Q 825 641 1194 531 
Q 1563 422 1919 422 
Q 2459 422 2753 634 
Q 3047 847 3047 1241 
Q 3047 1584 2836 1778 
Q 2625 1972 2144 2069 
L 1759 2144 
Q 1053 2284 737 2584 
Q 422 2884 422 3419 
Q 422 4038 858 4394 
Q 1294 4750 2059 4750 
Q 2388 4750 2728 4690 
Q 3069 4631 3425 4513 
z
" transform="scale(0.015625)"/>
      <path id="DejaVuSans-64" d="M 2906 2969 
L 2906 4863 
L 3481 4863 
L 3481 0 
L 2906 0 
L 2906 525 
Q 2725 213 2448 61 
Q 2172 -91 1784 -91 
Q 1150 -91 751 415 
Q 353 922 353 1747 
Q 353 2572 751 3078 
Q 1150 3584 1784 3584 
Q 2172 3584 2448 3432 
Q 2725 3281 2906 2969 
z
M 947 1747 
Q 947 1113 1208 752 
Q 1469 391 1925 391 
Q 2381 391 2643 752 
Q 2906 1113 2906 1747 
Q 2906 2381 2643 2742 
Q 2381 3103 1925 3103 
Q 1469 3103 1208 2742 
Q 947 2381 947 1747 
z
" transform="scale(0.015625)"/>
      <path id="DejaVuSans-6f" d="M 1959 3097 
Q 1497 3097 1228 2736 
Q 959 2375 959 1747 
Q 959 1119 1226 758 
Q 1494 397 1959 397 
Q 2419 397 2687 759 
Q 2956 1122 2956 1747 
Q 2956 2369 2687 2733 
Q 2419 3097 1959 3097 
z
M 1959 3584 
Q 2709 3584 3137 3096 
Q 3566 2609 3566 1747 
Q 3566 888 3137 398 
Q 2709 -91 1959 -91 
Q 1206 -91 779 398 
Q 353 888 353 1747 
Q 353 2609 779 3096 
Q 1206 3584 1959 3584 
z
" transform="scale(0.015625)"/>
      <path id="DejaVuSans-72" d="M 2631 2963 
Q 2534 3019 2420 3045 
Q 2306 3072 2169 3072 
Q 1681 3072 1420 2755 
Q 1159 2438 1159 1844 
L 1159 0 
L 581 0 
L 581 3500 
L 1159 3500 
L 1159 2956 
Q 1341 3275 1631 3429 
Q 1922 3584 2338 3584 
Q 2397 3584 2469 3576 
Q 2541 3569 2628 3553 
L 2631 2963 
z
" transform="scale(0.015625)"/>
      <path id="DejaVuSans-68" d="M 3513 2113 
L 3513 0 
L 2938 0 
L 2938 2094 
Q 2938 2591 2744 2837 
Q 2550 3084 2163 3084 
Q 1697 3084 1428 2787 
Q 1159 2491 1159 1978 
L 1159 0 
L 581 0 
L 581 4863 
L 1159 4863 
L 1159 2956 
Q 1366 3272 1645 3428 
Q 1925 3584 2291 3584 
Q 2894 3584 3203 3211 
Q 3513 2838 3513 2113 
z
" transform="scale(0.015625)"/>
      <path id="DejaVuSans-66" d="M 2375 4863 
L 2375 4384 
L 1825 4384 
Q 1516 4384 1395 4259 
Q 1275 4134 1275 3809 
L 1275 3500 
L 2222 3500 
L 2222 3053 
L 1275 3053 
L 1275 0 
L 697 0 
L 697 3053 
L 147 3053 
L 147 3500 
L 697 3500 
L 697 3744 
Q 697 4328 969 4595 
Q 1241 4863 1831 4863 
L 2375 4863 
z
" transform="scale(0.015625)"/>
      <path id="DejaVuSans-6c" d="M 603 4863 
L 1178 4863 
L 1178 0 
L 603 0 
L 603 4863 
z
" transform="scale(0.015625)"/>
      <path id="DejaVuSans-6d" d="M 3328 2828 
Q 3544 3216 3844 3400 
Q 4144 3584 4550 3584 
Q 5097 3584 5394 3201 
Q 5691 2819 5691 2113 
L 5691 0 
L 5113 0 
L 5113 2094 
Q 5113 2597 4934 2840 
Q 4756 3084 4391 3084 
Q 3944 3084 3684 2787 
Q 3425 2491 3425 1978 
L 3425 0 
L 2847 0 
L 2847 2094 
Q 2847 2600 2669 2842 
Q 2491 3084 2119 3084 
Q 1678 3084 1418 2786 
Q 1159 2488 1159 1978 
L 1159 0 
L 581 0 
L 581 3500 
L 1159 3500 
L 1159 2956 
Q 1356 3278 1631 3431 
Q 1906 3584 2284 3584 
Q 2666 3584 2933 3390 
Q 3200 3197 3328 2828 
z
" transform="scale(0.015625)"/>
     </defs>
     <use xlink:href="#DejaVuSans-51"/>
     <use xlink:href="#DejaVuSans-75" x="78.710938"/>
     <use xlink:href="#DejaVuSans-65" x="142.089844"/>
     <use xlink:href="#DejaVuSans-75" x="203.613281"/>
     <use xlink:href="#DejaVuSans-65" x="266.992188"/>
     <use xlink:href="#DejaVuSans-20" x="328.515625"/>
     <use xlink:href="#DejaVuSans-73" x="360.302734"/>
     <use xlink:href="#DejaVuSans-69" x="412.402344"/>
     <use xlink:href="#DejaVuSans-7a" x="440.185547"/>
     <use xlink:href="#DejaVuSans-65" x="492.675781"/>
     <use xlink:href="#DejaVuSans-20" x="554.199219"/>
     <use xlink:href="#DejaVuSans-28" x="585.986328"/>
     <use xlink:href="#DejaVuSans-79" x="625"/>
     <use xlink:href="#DejaVuSans-2d" x="682.429688"/>
     <use xlink:href="#DejaVuSans-61" x="718.513672"/>
     <use xlink:href="#DejaVuSans-78" x="779.792969"/>
     <use xlink:href="#DejaVuSans-69" x="838.972656"/>
     <use xlink:href="#DejaVuSans-73" x="866.755859"/>
     <use xlink:href="#DejaVuSans-29" x="918.855469"/>
     <use xlink:href="#DejaVuSans-20" x="957.869141"/>
     <use xlink:href="#DejaVuSans-62" x="989.65625"/>
     <use xlink:href="#DejaVuSans-65" x="1053.132812"/>
     <use xlink:href="#DejaVuSans-74" x="1114.65625"/>
     <use xlink:href="#DejaVuSans-77" x="1153.865234"/>
     <use xlink:href="#DejaVuSans-65" x="1235.652344"/>
     <use xlink:href="#DejaVuSans-65" x="1297.175781"/>
     <use xlink:href="#DejaVuSans-6e" x="1358.699219"/>
     <use xlink:href="#DejaVuSans-20" x="1422.078125"/>
     <use xlink:href="#DejaVuSans-53" x="1453.865234"/>
     <use xlink:href="#DejaVuSans-35" x="1517.341797"/>
     <use xlink:href="#DejaVuSans-20" x="1580.964844"/>
     <use xlink:href="#DejaVuSans-61" x="1612.751953"/>
     <use xlink:href="#DejaVuSans-6e" x="1674.03125"/>
     <use xlink:href="#DejaVuSans-64" x="1737.410156"/>
     <use xlink:href="#DejaVuSans-20" x="1800.886719"/>
     <use xlink:href="#DejaVuSans-73" x="1832.673828"/>
     <use xlink:href="#DejaVuSans-65" x="1884.773438"/>
     <use xlink:href="#DejaVuSans-6e" x="1946.296875"/>
     <use xlink:href="#DejaVuSans-73" x="2009.675781"/>
     <use xlink:href="#DejaVuSans-6f" x="2061.775391"/>
     <use xlink:href="#DejaVuSans-72" x="2122.957031"/>
     <use xlink:href="#DejaVuSans-73" x="2164.070312"/>
     <use xlink:href="#DejaVuSans-20" x="2216.169922"/>
     <use xlink:href="#DejaVuSans-74" x="2247.957031"/>
     <use xlink:href="#DejaVuSans-68" x="2287.166016"/>
     <use xlink:href="#DejaVuSans-61" x="2350.544922"/>
     <use xlink:href="#DejaVuSans-74" x="2411.824219"/>
     <use xlink:href="#DejaVuSans-20" x="2451.033203"/>
     <use xlink:href="#DejaVuSans-66" x="2482.820312"/>
     <use xlink:href="#DejaVuSans-6f" x="2518.025391"/>
     <use xlink:href="#DejaVuSans-6c" x="2579.207031"/>
     <use xlink:href="#DejaVuSans-6c" x="2606.990234"/>
     <use xlink:href="#DejaVuSans-6f" x="2634.773438"/>
     <use xlink:href="#DejaVuSans-77" x="2695.955078"/>
     <use xlink:href="#DejaVuSans-20" x="2777.742188"/>
     <use xlink:href="#DejaVuSans-61" x="2809.529297"/>
     <use xlink:href="#DejaVuSans-74" x="2870.808594"/>
     <use xlink:href="#DejaVuSans-20" x="2910.017578"/>
     <use xlink:href="#DejaVuSans-61" x="2941.804688"/>
     <use xlink:href="#DejaVuSans-20" x="3003.083984"/>
     <use xlink:href="#DejaVuSans-74" x="3034.871094"/>
     <use xlink:href="#DejaVuSans-69" x="3074.080078"/>
     <use xlink:href="#DejaVuSans-6d" x="3101.863281"/>
     <use xlink:href="#DejaVuSans-65" x="3199.275391"/>
     <use xlink:href="#DejaVuSans-20" x="3260.798828"/>
     <use xlink:href="#DejaVuSans-28" x="3292.585938"/>
     <use xlink:href="#DejaVuSans-78" x="3331.599609"/>
     <use xlink:href="#DejaVuSans-2d" x="3390.779297"/>
     <use xlink:href="#DejaVuSans-61" x="3426.863281"/>
     <use xlink:href="#DejaVuSans-78" x="3488.142578"/>
     <use xlink:href="#DejaVuSans-69" x="3547.322266"/>
     <use xlink:href="#DejaVuSans-73" x="3575.105469"/>
     <use xlink:href="#DejaVuSans-29" x="3627.205078"/>
     <use xlink:href="#DejaVuSans-2e" x="3666.21875"/>
    </g>
   </g>
  </g>
 </g>
 <defs>
  <clipPath id="pe50689d6ba">
   <rect x="57.6" y="41.472" width="357.12" height="266.112"/>
  </clipPath>
 </defs>
</svg>
