<?xml version="1.0" encoding="utf-8" standalone="no"?>
<!DOCTYPE svg PUBLIC "-//W3C//DTD SVG 1.1//EN"
  "http://www.w3.org/Graphics/SVG/1.1/DTD/svg11.dtd">
<svg xmlns:xlink="http://www.w3.org/1999/xlink" width="460.8pt" height="345.6pt" viewBox="0 0 460.8 345.6" xmlns="http://www.w3.org/2000/svg" version="1.1">
 <metadata>
  <rdf:RDF xmlns:dc="http://purl.org/dc/elements/1.1/" xmlns:cc="http://creativecommons.org/ns#" xmlns:rdf="http://www.w3.org/1999/02/22-rdf-syntax-ns#">
   <cc:Work>
    <dc:type rdf:resource="http://purl.org/dc/dcmitype/StillImage"/>
    <dc:date>2024-03-08T12:45:59.278177</dc:date>
    <dc:format>image/svg+xml</dc:format>
    <dc:creator>
     <cc:Agent>
      <dc:title>Matplotlib v3.8.2, https://matplotlib.org/</dc:title>
     </cc:Agent>
    </dc:creator>
   </cc:Work>
  </rdf:RDF>
 </metadata>
 <defs>
  <style type="text/css">*{stroke-linejoin: round; stroke-linecap: butt}</style>
 </defs>
 <g id="figure_1">
  <g id="patch_1">
   <path d="M 0 345.6 
L 460.8 345.6 
L 460.8 0 
L 0 0 
z
" style="fill: #ffffff"/>
  </g>
  <g id="axes_1">
   <g id="patch_2">
    <path d="M 57.6 307.584 
L 414.72 307.584 
L 414.72 41.472 
L 57.6 41.472 
z
" style="fill: #ffffff"/>
   </g>
   <g id="matplotlib.axis_1">
    <g id="xtick_1">
     <g id="line2d_1">
      <defs>
       <path id="ma4511a1c71" d="M 0 0 
L 0 3.5 
" style="stroke: #000000; stroke-width: 0.8"/>
      </defs>
      <g>
       <use xlink:href="#ma4511a1c71" x="73.832727" y="307.584" style="stroke: #000000; stroke-width: 0.8"/>
      </g>
     </g>
     <g id="text_1">
      <!-- 0 -->
      <g transform="translate(70.651477 322.182437) scale(0.1 -0.1)">
       <defs>
        <path id="DejaVuSans-30" d="M 2034 4250 
Q 1547 4250 1301 3770 
Q 1056 3291 1056 2328 
Q 1056 1369 1301 889 
Q 1547 409 2034 409 
Q 2525 409 2770 889 
Q 3016 1369 3016 2328 
Q 3016 3291 2770 3770 
Q 2525 4250 2034 4250 
z
M 2034 4750 
Q 2819 4750 3233 4129 
Q 3647 3509 3647 2328 
Q 3647 1150 3233 529 
Q 2819 -91 2034 -91 
Q 1250 -91 836 529 
Q 422 1150 422 2328 
Q 422 3509 836 4129 
Q 1250 4750 2034 4750 
z
" transform="scale(0.015625)"/>
       </defs>
       <use xlink:href="#DejaVuSans-30"/>
      </g>
     </g>
    </g>
    <g id="xtick_2">
     <g id="line2d_2">
      <g>
       <use xlink:href="#ma4511a1c71" x="126.033027" y="307.584" style="stroke: #000000; stroke-width: 0.8"/>
      </g>
     </g>
     <g id="text_2">
      <!-- 50000 -->
      <g transform="translate(110.126777 322.182437) scale(0.1 -0.1)">
       <defs>
        <path id="DejaVuSans-35" d="M 691 4666 
L 3169 4666 
L 3169 4134 
L 1269 4134 
L 1269 2991 
Q 1406 3038 1543 3061 
Q 1681 3084 1819 3084 
Q 2600 3084 3056 2656 
Q 3513 2228 3513 1497 
Q 3513 744 3044 326 
Q 2575 -91 1722 -91 
Q 1428 -91 1123 -41 
Q 819 9 494 109 
L 494 744 
Q 775 591 1075 516 
Q 1375 441 1709 441 
Q 2250 441 2565 725 
Q 2881 1009 2881 1497 
Q 2881 1984 2565 2268 
Q 2250 2553 1709 2553 
Q 1456 2553 1204 2497 
Q 953 2441 691 2322 
L 691 4666 
z
" transform="scale(0.015625)"/>
       </defs>
       <use xlink:href="#DejaVuSans-35"/>
       <use xlink:href="#DejaVuSans-30" x="63.623047"/>
       <use xlink:href="#DejaVuSans-30" x="127.246094"/>
       <use xlink:href="#DejaVuSans-30" x="190.869141"/>
       <use xlink:href="#DejaVuSans-30" x="254.492188"/>
      </g>
     </g>
    </g>
    <g id="xtick_3">
     <g id="line2d_3">
      <g>
       <use xlink:href="#ma4511a1c71" x="178.233327" y="307.584" style="stroke: #000000; stroke-width: 0.8"/>
      </g>
     </g>
     <g id="text_3">
      <!-- 100000 -->
      <g transform="translate(159.145827 322.182437) scale(0.1 -0.1)">
       <defs>
        <path id="DejaVuSans-31" d="M 794 531 
L 1825 531 
L 1825 4091 
L 703 3866 
L 703 4441 
L 1819 4666 
L 2450 4666 
L 2450 531 
L 3481 531 
L 3481 0 
L 794 0 
L 794 531 
z
" transform="scale(0.015625)"/>
       </defs>
       <use xlink:href="#DejaVuSans-31"/>
       <use xlink:href="#DejaVuSans-30" x="63.623047"/>
       <use xlink:href="#DejaVuSans-30" x="127.246094"/>
       <use xlink:href="#DejaVuSans-30" x="190.869141"/>
       <use xlink:href="#DejaVuSans-30" x="254.492188"/>
       <use xlink:href="#DejaVuSans-30" x="318.115234"/>
      </g>
     </g>
    </g>
    <g id="xtick_4">
     <g id="line2d_4">
      <g>
       <use xlink:href="#ma4511a1c71" x="230.433627" y="307.584" style="stroke: #000000; stroke-width: 0.8"/>
      </g>
     </g>
     <g id="text_4">
      <!-- 150000 -->
      <g transform="translate(211.346127 322.182437) scale(0.1 -0.1)">
       <use xlink:href="#DejaVuSans-31"/>
       <use xlink:href="#DejaVuSans-35" x="63.623047"/>
       <use xlink:href="#DejaVuSans-30" x="127.246094"/>
       <use xlink:href="#DejaVuSans-30" x="190.869141"/>
       <use xlink:href="#DejaVuSans-30" x="254.492188"/>
       <use xlink:href="#DejaVuSans-30" x="318.115234"/>
      </g>
     </g>
    </g>
    <g id="xtick_5">
     <g id="line2d_5">
      <g>
       <use xlink:href="#ma4511a1c71" x="282.633927" y="307.584" style="stroke: #000000; stroke-width: 0.8"/>
      </g>
     </g>
     <g id="text_5">
      <!-- 200000 -->
      <g transform="translate(263.546427 322.182437) scale(0.1 -0.1)">
       <defs>
        <path id="DejaVuSans-32" d="M 1228 531 
L 3431 531 
L 3431 0 
L 469 0 
L 469 531 
Q 828 903 1448 1529 
Q 2069 2156 2228 2338 
Q 2531 2678 2651 2914 
Q 2772 3150 2772 3378 
Q 2772 3750 2511 3984 
Q 2250 4219 1831 4219 
Q 1534 4219 1204 4116 
Q 875 4013 500 3803 
L 500 4441 
Q 881 4594 1212 4672 
Q 1544 4750 1819 4750 
Q 2544 4750 2975 4387 
Q 3406 4025 3406 3419 
Q 3406 3131 3298 2873 
Q 3191 2616 2906 2266 
Q 2828 2175 2409 1742 
Q 1991 1309 1228 531 
z
" transform="scale(0.015625)"/>
       </defs>
       <use xlink:href="#DejaVuSans-32"/>
       <use xlink:href="#DejaVuSans-30" x="63.623047"/>
       <use xlink:href="#DejaVuSans-30" x="127.246094"/>
       <use xlink:href="#DejaVuSans-30" x="190.869141"/>
       <use xlink:href="#DejaVuSans-30" x="254.492188"/>
       <use xlink:href="#DejaVuSans-30" x="318.115234"/>
      </g>
     </g>
    </g>
    <g id="xtick_6">
     <g id="line2d_6">
      <g>
       <use xlink:href="#ma4511a1c71" x="334.834227" y="307.584" style="stroke: #000000; stroke-width: 0.8"/>
      </g>
     </g>
     <g id="text_6">
      <!-- 250000 -->
      <g transform="translate(315.746727 322.182437) scale(0.1 -0.1)">
       <use xlink:href="#DejaVuSans-32"/>
       <use xlink:href="#DejaVuSans-35" x="63.623047"/>
       <use xlink:href="#DejaVuSans-30" x="127.246094"/>
       <use xlink:href="#DejaVuSans-30" x="190.869141"/>
       <use xlink:href="#DejaVuSans-30" x="254.492188"/>
       <use xlink:href="#DejaVuSans-30" x="318.115234"/>
      </g>
     </g>
    </g>
    <g id="xtick_7">
     <g id="line2d_7">
      <g>
       <use xlink:href="#ma4511a1c71" x="387.034527" y="307.584" style="stroke: #000000; stroke-width: 0.8"/>
      </g>
     </g>
     <g id="text_7">
      <!-- 300000 -->
      <g transform="translate(367.947027 322.182437) scale(0.1 -0.1)">
       <defs>
        <path id="DejaVuSans-33" d="M 2597 2516 
Q 3050 2419 3304 2112 
Q 3559 1806 3559 1356 
Q 3559 666 3084 287 
Q 2609 -91 1734 -91 
Q 1441 -91 1130 -33 
Q 819 25 488 141 
L 488 750 
Q 750 597 1062 519 
Q 1375 441 1716 441 
Q 2309 441 2620 675 
Q 2931 909 2931 1356 
Q 2931 1769 2642 2001 
Q 2353 2234 1838 2234 
L 1294 2234 
L 1294 2753 
L 1863 2753 
Q 2328 2753 2575 2939 
Q 2822 3125 2822 3475 
Q 2822 3834 2567 4026 
Q 2313 4219 1838 4219 
Q 1578 4219 1281 4162 
Q 984 4106 628 3988 
L 628 4550 
Q 988 4650 1302 4700 
Q 1616 4750 1894 4750 
Q 2613 4750 3031 4423 
Q 3450 4097 3450 3541 
Q 3450 3153 3228 2886 
Q 3006 2619 2597 2516 
z
" transform="scale(0.015625)"/>
       </defs>
       <use xlink:href="#DejaVuSans-33"/>
       <use xlink:href="#DejaVuSans-30" x="63.623047"/>
       <use xlink:href="#DejaVuSans-30" x="127.246094"/>
       <use xlink:href="#DejaVuSans-30" x="190.869141"/>
       <use xlink:href="#DejaVuSans-30" x="254.492188"/>
       <use xlink:href="#DejaVuSans-30" x="318.115234"/>
      </g>
     </g>
    </g>
   </g>
   <g id="matplotlib.axis_2">
    <g id="ytick_1">
     <g id="line2d_8">
      <defs>
       <path id="m467a297d4f" d="M 0 0 
L -3.5 0 
" style="stroke: #000000; stroke-width: 0.8"/>
      </defs>
      <g>
       <use xlink:href="#m467a297d4f" x="57.6" y="295.488" style="stroke: #000000; stroke-width: 0.8"/>
      </g>
     </g>
     <g id="text_8">
      <!-- 0.0 -->
      <g transform="translate(34.696875 299.287219) scale(0.1 -0.1)">
       <defs>
        <path id="DejaVuSans-2e" d="M 684 794 
L 1344 794 
L 1344 0 
L 684 0 
L 684 794 
z
" transform="scale(0.015625)"/>
       </defs>
       <use xlink:href="#DejaVuSans-30"/>
       <use xlink:href="#DejaVuSans-2e" x="63.623047"/>
       <use xlink:href="#DejaVuSans-30" x="95.410156"/>
      </g>
     </g>
    </g>
    <g id="ytick_2">
     <g id="line2d_9">
      <g>
       <use xlink:href="#m467a297d4f" x="57.6" y="247.104" style="stroke: #000000; stroke-width: 0.8"/>
      </g>
     </g>
     <g id="text_9">
      <!-- 0.2 -->
      <g transform="translate(34.696875 250.903219) scale(0.1 -0.1)">
       <use xlink:href="#DejaVuSans-30"/>
       <use xlink:href="#DejaVuSans-2e" x="63.623047"/>
       <use xlink:href="#DejaVuSans-32" x="95.410156"/>
      </g>
     </g>
    </g>
    <g id="ytick_3">
     <g id="line2d_10">
      <g>
       <use xlink:href="#m467a297d4f" x="57.6" y="198.72" style="stroke: #000000; stroke-width: 0.8"/>
      </g>
     </g>
     <g id="text_10">
      <!-- 0.4 -->
      <g transform="translate(34.696875 202.519219) scale(0.1 -0.1)">
       <defs>
        <path id="DejaVuSans-34" d="M 2419 4116 
L 825 1625 
L 2419 1625 
L 2419 4116 
z
M 2253 4666 
L 3047 4666 
L 3047 1625 
L 3713 1625 
L 3713 1100 
L 3047 1100 
L 3047 0 
L 2419 0 
L 2419 1100 
L 313 1100 
L 313 1709 
L 2253 4666 
z
" transform="scale(0.015625)"/>
       </defs>
       <use xlink:href="#DejaVuSans-30"/>
       <use xlink:href="#DejaVuSans-2e" x="63.623047"/>
       <use xlink:href="#DejaVuSans-34" x="95.410156"/>
      </g>
     </g>
    </g>
    <g id="ytick_4">
     <g id="line2d_11">
      <g>
       <use xlink:href="#m467a297d4f" x="57.6" y="150.336" style="stroke: #000000; stroke-width: 0.8"/>
      </g>
     </g>
     <g id="text_11">
      <!-- 0.6 -->
      <g transform="translate(34.696875 154.135219) scale(0.1 -0.1)">
       <defs>
        <path id="DejaVuSans-36" d="M 2113 2584 
Q 1688 2584 1439 2293 
Q 1191 2003 1191 1497 
Q 1191 994 1439 701 
Q 1688 409 2113 409 
Q 2538 409 2786 701 
Q 3034 994 3034 1497 
Q 3034 2003 2786 2293 
Q 2538 2584 2113 2584 
z
M 3366 4563 
L 3366 3988 
Q 3128 4100 2886 4159 
Q 2644 4219 2406 4219 
Q 1781 4219 1451 3797 
Q 1122 3375 1075 2522 
Q 1259 2794 1537 2939 
Q 1816 3084 2150 3084 
Q 2853 3084 3261 2657 
Q 3669 2231 3669 1497 
Q 3669 778 3244 343 
Q 2819 -91 2113 -91 
Q 1303 -91 875 529 
Q 447 1150 447 2328 
Q 447 3434 972 4092 
Q 1497 4750 2381 4750 
Q 2619 4750 2861 4703 
Q 3103 4656 3366 4563 
z
" transform="scale(0.015625)"/>
       </defs>
       <use xlink:href="#DejaVuSans-30"/>
       <use xlink:href="#DejaVuSans-2e" x="63.623047"/>
       <use xlink:href="#DejaVuSans-36" x="95.410156"/>
      </g>
     </g>
    </g>
    <g id="ytick_5">
     <g id="line2d_12">
      <g>
       <use xlink:href="#m467a297d4f" x="57.6" y="101.952" style="stroke: #000000; stroke-width: 0.8"/>
      </g>
     </g>
     <g id="text_12">
      <!-- 0.8 -->
      <g transform="translate(34.696875 105.751219) scale(0.1 -0.1)">
       <defs>
        <path id="DejaVuSans-38" d="M 2034 2216 
Q 1584 2216 1326 1975 
Q 1069 1734 1069 1313 
Q 1069 891 1326 650 
Q 1584 409 2034 409 
Q 2484 409 2743 651 
Q 3003 894 3003 1313 
Q 3003 1734 2745 1975 
Q 2488 2216 2034 2216 
z
M 1403 2484 
Q 997 2584 770 2862 
Q 544 3141 544 3541 
Q 544 4100 942 4425 
Q 1341 4750 2034 4750 
Q 2731 4750 3128 4425 
Q 3525 4100 3525 3541 
Q 3525 3141 3298 2862 
Q 3072 2584 2669 2484 
Q 3125 2378 3379 2068 
Q 3634 1759 3634 1313 
Q 3634 634 3220 271 
Q 2806 -91 2034 -91 
Q 1263 -91 848 271 
Q 434 634 434 1313 
Q 434 1759 690 2068 
Q 947 2378 1403 2484 
z
M 1172 3481 
Q 1172 3119 1398 2916 
Q 1625 2713 2034 2713 
Q 2441 2713 2670 2916 
Q 2900 3119 2900 3481 
Q 2900 3844 2670 4047 
Q 2441 4250 2034 4250 
Q 1625 4250 1398 4047 
Q 1172 3844 1172 3481 
z
" transform="scale(0.015625)"/>
       </defs>
       <use xlink:href="#DejaVuSans-30"/>
       <use xlink:href="#DejaVuSans-2e" x="63.623047"/>
       <use xlink:href="#DejaVuSans-38" x="95.410156"/>
      </g>
     </g>
    </g>
    <g id="ytick_6">
     <g id="line2d_13">
      <g>
       <use xlink:href="#m467a297d4f" x="57.6" y="53.568" style="stroke: #000000; stroke-width: 0.8"/>
      </g>
     </g>
     <g id="text_13">
      <!-- 1.0 -->
      <g transform="translate(34.696875 57.367219) scale(0.1 -0.1)">
       <use xlink:href="#DejaVuSans-31"/>
       <use xlink:href="#DejaVuSans-2e" x="63.623047"/>
       <use xlink:href="#DejaVuSans-30" x="95.410156"/>
      </g>
     </g>
    </g>
   </g>
   <g id="line2d_14">
    <path d="M 73.832727 295.488 
L 157.426288 295.488 
L 157.426288 294.774372 
L 159.472539 294.774372 
L 159.472539 294.060743 
L 161.424831 294.060743 
L 161.424831 293.347115 
L 161.550111 293.347115 
L 161.550111 292.633487 
L 161.717152 292.633487 
L 161.717152 291.919858 
L 163.606803 291.919858 
L 163.711204 290.492602 
L 164.076606 290.492602 
L 164.097486 289.065345 
L 165.392053 289.065345 
L 165.392053 288.351717 
L 165.663495 288.351717 
L 165.767896 286.92446 
L 167.720187 286.92446 
L 167.730627 285.497204 
L 167.876788 285.497204 
L 167.876788 284.783575 
L 169.004314 284.783575 
L 169.004314 284.069947 
L 169.797759 284.069947 
L 169.797759 283.356319 
L 169.95436 283.356319 
L 169.95436 282.64269 
L 171.374208 282.64269 
L 171.374208 281.929062 
L 171.927531 281.929062 
L 171.927531 281.215434 
L 172.042372 281.215434 
L 172.042372 280.501805 
L 172.627015 280.501805 
L 172.627015 279.788177 
L 174.036423 279.788177 
L 174.036423 279.074549 
L 174.172144 279.074549 
L 174.172144 278.36092 
L 175.069989 278.36092 
L 175.069989 277.647292 
L 176.082675 277.647292 
L 176.082675 276.933664 
L 176.249716 276.933664 
L 176.249716 276.220035 
L 178.337728 276.220035 
L 178.369048 274.792779 
L 178.69269 274.792779 
L 178.69269 274.07915 
L 179.924617 274.07915 
L 179.924617 273.365522 
L 180.206498 273.365522 
L 180.206498 272.651894 
L 180.42574 272.651894 
L 180.42574 271.938265 
L 182.012629 271.938265 
L 182.012629 271.224637 
L 182.29451 271.224637 
L 182.336271 269.797381 
L 182.513752 269.797381 
L 182.513752 269.083752 
L 183.557758 269.083752 
L 183.557758 268.370124 
L 184.361642 268.370124 
L 184.361642 267.656496 
L 184.560004 267.656496 
L 184.560004 266.942867 
L 185.60401 266.942867 
L 185.60401 266.229239 
L 186.449654 266.229239 
L 186.449654 265.515611 
L 186.679336 265.515611 
L 186.679336 264.801982 
L 187.128258 264.801982 
L 187.222219 263.374726 
L 188.548106 263.374726 
L 188.548106 262.661097 
L 188.767348 262.661097 
L 188.767348 261.947469 
L 189.24759 261.947469 
L 189.24759 261.233841 
L 189.717393 261.233841 
L 189.717393 260.520212 
L 190.615238 260.520212 
L 190.615238 259.806584 
L 190.83448 259.806584 
L 190.83448 257.665699 
L 190.83448 257.665699 
L 192.67193 257.665699 
L 192.67193 256.952071 
L 192.880731 256.952071 
L 192.922492 255.524814 
L 193.319214 255.524814 
L 193.319214 254.811186 
L 193.966498 254.811186 
L 193.966498 254.097558 
L 194.488501 254.097558 
L 194.498941 252.670301 
L 195.908349 252.670301 
L 195.908349 251.956673 
L 196.472112 251.956673 
L 196.472112 251.243044 
L 196.837514 251.243044 
L 196.837514 250.529416 
L 197.025435 250.529416 
L 197.025435 249.815788 
L 197.641399 249.815788 
L 197.641399 249.102159 
L 198.184282 249.102159 
L 198.184282 248.388531 
L 199.54149 248.388531 
L 199.54149 247.674903 
L 201.253659 247.674903 
L 201.253659 246.961274 
L 201.775662 246.961274 
L 201.775662 246.247646 
L 203.279031 246.247646 
L 203.279031 245.534018 
L 204.260397 245.534018 
L 204.260397 244.820389 
L 204.8868 244.820389 
L 204.8868 244.106761 
L 205.387923 244.106761 
L 205.440123 242.679504 
L 205.899486 242.679504 
L 205.899486 241.965876 
L 206.912172 241.965876 
L 206.912172 241.252248 
L 207.914418 241.252248 
L 207.914418 240.538619 
L 208.039698 240.538619 
L 208.050138 239.111363 
L 208.488621 239.111363 
L 208.488621 238.397735 
L 209.167225 238.397735 
L 209.167225 237.684106 
L 210.649713 237.684106 
L 210.649713 236.25685 
L 210.649713 236.25685 
L 211.161276 236.25685 
L 211.161276 235.543221 
L 211.537119 235.543221 
L 211.537119 234.829593 
L 211.74592 234.829593 
L 211.82944 233.402336 
L 213.291049 233.402336 
L 213.291049 232.688708 
L 213.750411 232.688708 
L 213.760851 231.261451 
L 214.220214 231.261451 
L 214.220214 230.547823 
L 214.460335 230.547823 
L 214.460335 229.834195 
L 215.35818 229.834195 
L 215.35818 229.120566 
L 215.911504 229.120566 
L 215.911504 228.406938 
L 216.308226 228.406938 
L 216.308226 227.69331 
L 217.08079 227.69331 
L 217.08079 226.979681 
L 217.446192 226.979681 
L 217.446192 226.266053 
L 218.511079 226.266053 
L 218.511079 225.552425 
L 218.928681 225.552425 
L 218.928681 224.838796 
L 219.106162 224.838796 
L 219.106162 224.125168 
L 219.680365 224.125168 
L 219.680365 223.41154 
L 221.152414 223.41154 
L 221.173294 221.984283 
L 221.507376 221.984283 
L 221.507376 221.270655 
L 222.123339 221.270655 
L 222.123339 220.557027 
L 222.31126 220.557027 
L 222.31126 219.843398 
L 222.697543 219.843398 
L 222.697543 219.12977 
L 223.313506 219.12977 
L 223.313506 218.416142 
L 223.804189 218.416142 
L 223.845949 216.988885 
L 224.086071 216.988885 
L 224.086071 216.275257 
L 224.743794 216.275257 
L 224.743794 215.561628 
L 224.869075 215.561628 
L 224.869075 214.848 
L 225.76692 214.848 
L 225.76692 214.134372 
L 225.933961 214.134372 
L 225.933961 213.420743 
L 226.393324 213.420743 
L 226.435084 211.993487 
L 226.737846 211.993487 
L 226.737846 211.279858 
L 228.345615 211.279858 
L 228.345615 210.56623 
L 228.554416 210.56623 
L 228.554416 209.852602 
L 228.731897 209.852602 
L 228.731897 209.138973 
L 228.982459 209.138973 
L 228.992899 207.711717 
L 229.326981 207.711717 
L 229.389621 206.28446 
L 231.195751 206.28446 
L 231.195751 205.570832 
L 231.331472 205.570832 
L 231.331472 204.857204 
L 231.498513 204.857204 
L 231.561154 203.429947 
L 231.644674 203.429947 
L 231.644674 202.716319 
L 232.051836 202.716319 
L 232.072717 201.289062 
L 233.001882 201.289062 
L 233.001882 200.575434 
L 233.116723 200.575434 
L 233.116723 199.861805 
L 233.816207 199.861805 
L 233.910167 198.434549 
L 234.171169 198.434549 
L 234.171169 197.72092 
L 234.306889 197.72092 
L 234.306889 197.007292 
L 234.682732 197.007292 
L 234.682732 196.293664 
L 235.079454 196.293664 
L 235.079454 195.580035 
L 235.653657 195.580035 
L 235.653657 194.866407 
L 236.478422 194.866407 
L 236.582822 192.725522 
L 236.854264 192.725522 
L 236.875144 191.298265 
L 238.576874 191.298265 
L 238.576874 190.584637 
L 238.733475 190.584637 
L 238.733475 189.871009 
L 239.046677 189.871009 
L 239.130197 188.443752 
L 239.474719 188.443752 
L 239.485159 187.016496 
L 239.69396 187.016496 
L 239.69396 186.302867 
L 240.299484 186.302867 
L 240.299484 185.589239 
L 240.664886 185.589239 
L 240.664886 184.875611 
L 241.656692 184.875611 
L 241.698452 183.448354 
L 242.074294 183.448354 
L 242.084734 182.021097 
L 242.324855 182.021097 
L 242.324855 181.307469 
L 242.794658 181.307469 
L 242.794658 180.593841 
L 243.368861 180.593841 
L 243.368861 179.880212 
L 243.556783 179.880212 
L 243.556783 179.166584 
L 244.277147 179.166584 
L 244.277147 178.452956 
L 244.632109 178.452956 
L 244.673869 177.025699 
L 244.88267 177.025699 
L 244.88267 176.312071 
L 245.696995 176.312071 
L 245.696995 175.598442 
L 246.020637 175.598442 
L 246.020637 174.884814 
L 246.156357 174.884814 
L 246.156357 174.171186 
L 246.824521 174.171186 
L 246.824521 173.457558 
L 246.970682 173.457558 
L 247.064643 172.030301 
L 247.221244 172.030301 
L 247.273444 170.603044 
L 248.27569 170.603044 
L 248.27569 169.889416 
L 248.588891 169.889416 
L 248.588891 169.175788 
L 248.787253 169.175788 
L 248.787253 168.462159 
L 249.037814 168.462159 
L 249.037814 167.748531 
L 249.403216 167.748531 
L 249.403216 167.034903 
L 249.862579 167.034903 
L 249.862579 166.321274 
L 250.770864 166.321274 
L 250.770864 165.607646 
L 250.885705 165.607646 
L 250.885705 164.894018 
L 251.125826 164.894018 
L 251.125826 164.180389 
L 251.251107 164.180389 
L 251.251107 163.466761 
L 251.386827 163.466761 
L 251.386827 162.753133 
L 252.034111 162.753133 
L 252.034111 162.039504 
L 252.514354 162.039504 
L 252.514354 161.325876 
L 253.203398 161.325876 
L 253.203398 160.612248 
L 253.50616 160.612248 
L 253.50616 159.898619 
L 254.007283 159.898619 
L 254.007283 159.184991 
L 254.435325 159.184991 
L 254.435325 158.471363 
L 254.612806 158.471363 
L 254.612806 157.757735 
L 255.124369 157.757735 
L 255.124369 157.044106 
L 255.33317 157.044106 
L 255.33317 156.330478 
L 256.063974 156.330478 
L 256.063974 155.61685 
L 256.408496 155.61685 
L 256.408496 154.903221 
L 256.617298 154.903221 
L 256.617298 154.189593 
L 257.201941 154.189593 
L 257.201941 153.475965 
L 257.421182 153.475965 
L 257.421182 152.762336 
L 257.713504 152.762336 
L 257.713504 152.048708 
L 258.068466 152.048708 
L 258.068466 151.33508 
L 258.611349 151.33508 
L 258.611349 150.621451 
L 258.987191 150.621451 
L 258.987191 149.907823 
L 259.550954 149.907823 
L 259.550954 149.194195 
L 259.686675 149.194195 
L 259.686675 148.480566 
L 259.801516 148.480566 
L 259.853716 147.05331 
L 260.323519 147.05331 
L 260.323519 146.339681 
L 261.210924 146.339681 
L 261.210924 145.626053 
L 261.607646 145.626053 
L 261.618086 144.198796 
L 262.28625 144.198796 
L 262.380211 142.77154 
L 262.442851 142.77154 
L 262.442851 142.057912 
L 262.923094 142.057912 
L 262.923094 141.344283 
L 263.706098 141.344283 
L 263.706098 140.630655 
L 264.259421 140.630655 
L 264.259421 139.917027 
L 264.844065 139.917027 
L 264.844065 139.203398 
L 265.084186 139.203398 
L 265.084186 138.48977 
L 265.512229 138.48977 
L 265.512229 137.776142 
L 265.75235 137.776142 
L 265.75235 137.062513 
L 266.107312 137.062513 
L 266.107312 136.348885 
L 266.911197 136.348885 
L 266.911197 135.635257 
L 267.44364 135.635257 
L 267.44364 134.921628 
L 267.683761 134.921628 
L 267.683761 134.208 
L 268.769527 134.208 
L 268.769527 133.494372 
L 269.500332 133.494372 
L 269.500332 132.780743 
L 269.907494 132.780743 
L 269.907494 132.067115 
L 270.053655 132.067115 
L 270.053655 131.353487 
L 270.565218 131.353487 
L 270.565218 130.639858 
L 271.369102 130.639858 
L 271.369102 129.92623 
L 272.110347 129.92623 
L 272.110347 129.212602 
L 272.62191 129.212602 
L 272.62191 128.498973 
L 273.185673 128.498973 
L 273.185673 127.785345 
L 273.603275 127.785345 
L 273.603275 127.071717 
L 273.916477 127.071717 
L 273.916477 126.358088 
L 275.806128 126.358088 
L 275.806128 125.64446 
L 276.495172 125.64446 
L 276.495172 124.930832 
L 276.641333 124.930832 
L 276.641333 124.217204 
L 277.194656 124.217204 
L 277.194656 123.503575 
L 278.447463 123.503575 
L 278.447463 122.789947 
L 279.063427 122.789947 
L 279.063427 122.076319 
L 279.220027 122.076319 
L 279.220027 121.36269 
L 280.608555 121.36269 
L 280.608555 120.649062 
L 280.838237 120.649062 
L 280.838237 119.935434 
L 281.099238 119.935434 
L 281.099238 119.221805 
L 281.652561 119.221805 
L 281.652561 118.508177 
L 281.840482 118.508177 
L 281.840482 117.794549 
L 283.21857 117.794549 
L 283.21857 117.08092 
L 283.771894 117.08092 
L 283.771894 116.367292 
L 284.220816 116.367292 
L 284.220816 115.653664 
L 284.471378 115.653664 
L 284.565338 114.226407 
L 285.891226 114.226407 
L 285.891226 113.512779 
L 286.381909 113.512779 
L 286.381909 112.79915 
L 286.872591 112.79915 
L 286.872591 112.085522 
L 287.091833 112.085522 
L 287.091833 111.371894 
L 288.229799 111.371894 
L 288.229799 110.658265 
L 288.480361 110.658265 
L 288.480361 109.944637 
L 289.044124 109.944637 
L 289.044124 109.231009 
L 289.451286 109.231009 
L 289.451286 108.517381 
L 289.628767 108.517381 
L 289.628767 107.803752 
L 291.059055 107.803752 
L 291.069496 106.376496 
L 291.340937 106.376496 
L 291.340937 105.662867 
L 292.009101 105.662867 
L 292.009101 104.949239 
L 292.228342 104.949239 
L 292.228342 104.235611 
L 293.689951 104.235611 
L 293.700391 102.808354 
L 294.639996 102.808354 
L 294.639996 102.094726 
L 294.880117 102.094726 
L 294.984518 100.667469 
L 296.310406 100.667469 
L 296.310406 99.953841 
L 297.291771 99.953841 
L 297.291771 99.240212 
L 297.448372 99.240212 
L 297.448372 98.526584 
L 298.575899 98.526584 
L 298.575899 97.812956 
L 298.920421 97.812956 
L 298.920421 97.099327 
L 299.870466 97.099327 
L 299.870466 96.385699 
L 300.089707 96.385699 
L 300.089707 95.672071 
L 301.530436 95.672071 
L 301.530436 94.958442 
L 302.522241 94.958442 
L 302.626642 93.531186 
L 304.130011 93.531186 
L 304.130011 92.817558 
L 305.247097 92.817558 
L 305.247097 92.103929 
L 306.771346 92.103929 
L 306.771346 91.390301 
L 307.710951 91.390301 
L 307.710951 90.676673 
L 307.836232 90.676673 
L 307.836232 89.963044 
L 309.402241 89.963044 
L 309.402241 89.249416 
L 310.289646 89.249416 
L 310.289646 88.535788 
L 310.446247 88.535788 
L 310.446247 87.822159 
L 312.012256 87.822159 
L 312.012256 87.108531 
L 312.941421 87.108531 
L 312.941421 86.394903 
L 314.632711 86.394903 
L 314.632711 85.681274 
L 317.253166 85.681274 
L 317.253166 84.967646 
L 319.831861 84.967646 
L 319.831861 84.254018 
L 322.473196 84.254018 
L 322.473196 83.540389 
L 325.051891 83.540389 
L 325.051891 82.826761 
L 328.34051 82.826761 
L 328.34051 82.113133 
L 331.002725 82.113133 
L 331.002725 81.399504 
L 333.61274 81.399504 
L 333.61274 80.685876 
L 334.677626 80.685876 
L 334.677626 79.972248 
L 336.212315 79.972248 
L 336.212315 79.258619 
L 337.298081 79.258619 
L 337.298081 78.544991 
L 339.866336 78.544991 
L 339.866336 77.831363 
L 342.445031 77.831363 
L 342.445031 77.117735 
L 345.034166 77.117735 
L 345.034166 76.404106 
L 347.654621 76.404106 
L 347.654621 75.690478 
L 349.596472 75.690478 
L 349.596472 74.97685 
L 350.295956 74.97685 
L 350.295956 74.263221 
L 352.926851 74.263221 
L 352.926851 73.549593 
L 355.505546 73.549593 
L 355.505546 72.835965 
L 358.126001 72.835965 
L 358.126001 72.122336 
L 360.746456 72.122336 
L 360.746456 71.408708 
L 363.346031 71.408708 
L 363.346031 70.69508 
L 365.329642 70.69508 
L 365.329642 69.981451 
L 366.029126 69.981451 
L 366.029126 69.267823 
L 367.417654 69.267823 
L 367.428094 67.840566 
L 368.597381 67.840566 
L 368.597381 67.126938 
L 369.516106 67.126938 
L 369.536986 65.699681 
L 371.249156 65.699681 
L 371.249156 64.986053 
L 371.583238 64.986053 
L 371.583238 64.272425 
L 373.67125 64.272425 
L 373.67125 63.558796 
L 373.796531 63.558796 
L 373.796531 62.845168 
L 375.769702 62.845168 
L 375.769702 62.13154 
L 376.406546 62.13154 
L 376.406546 61.417912 
L 377.868154 61.417912 
L 377.868154 60.704283 
L 379.016561 60.704283 
L 379.016561 59.990655 
L 379.914406 59.990655 
L 379.914406 59.277027 
L 382.012858 59.277027 
L 382.012858 58.563398 
L 384.11131 58.563398 
L 384.11131 57.84977 
L 386.199322 57.84977 
L 386.199322 57.136142 
L 388.287334 57.136142 
L 388.287334 56.422513 
L 390.344026 56.422513 
L 390.344026 55.708885 
L 392.442478 55.708885 
L 392.442478 54.995257 
L 394.50961 54.995257 
L 394.50961 54.281628 
L 396.576742 54.281628 
L 396.576742 53.568 
L 396.576742 53.568 
" clip-path="url(#pc1a301a140)" style="fill: none; stroke: #1f77b4; stroke-width: 1.5; stroke-linecap: square"/>
   </g>
   <g id="line2d_15">
    <path d="M 73.832727 295.488 
L 139.939187 295.488 
L 139.939187 294.7968 
L 142.549202 294.7968 
L 142.549202 294.1056 
L 145.169657 294.1056 
L 145.169657 293.4144 
L 147.769232 293.4144 
L 147.769232 292.7232 
L 150.358367 292.7232 
L 150.358367 292.032 
L 151.318853 292.032 
L 151.318853 291.3408 
L 152.905742 291.3408 
L 152.905742 290.6496 
L 153.991508 290.6496 
L 153.991508 289.9584 
L 154.37779 289.9584 
L 154.37779 289.2672 
L 155.567957 289.2672 
L 155.567957 288.576 
L 156.611963 288.576 
L 156.611963 287.8848 
L 156.946045 287.8848 
L 156.946045 287.1936 
L 158.188412 287.1936 
L 158.188412 286.5024 
L 159.190658 286.5024 
L 159.190658 285.8112 
L 159.399459 285.8112 
L 159.399459 285.12 
L 159.58738 285.12 
L 159.58738 284.4288 
L 160.861067 284.4288 
L 160.861067 283.7376 
L 161.821553 283.7376 
L 161.821553 283.0464 
L 161.957274 283.0464 
L 161.957274 282.3552 
L 162.406196 282.3552 
L 162.406196 281.664 
L 163.450202 281.664 
L 163.450202 280.9728 
L 163.627683 280.9728 
L 163.627683 280.2816 
L 164.076606 280.2816 
L 164.076606 279.5904 
L 164.368927 279.5904 
L 164.368927 278.8992 
L 164.546409 278.8992 
L 164.546409 278.208 
L 164.703009 278.208 
L 164.703009 277.5168 
L 164.953571 277.5168 
L 164.953571 276.8256 
L 165.694815 276.8256 
L 165.694815 276.1344 
L 166.049777 276.1344 
L 166.049777 275.4432 
L 167.020703 275.4432 
L 167.020703 274.752 
L 167.177304 274.752 
L 167.271264 273.3696 
L 167.521826 273.3696 
L 167.521826 272.6784 
L 167.730627 272.6784 
L 167.772387 271.296 
L 168.701552 271.296 
L 168.701552 270.6048 
L 169.014754 270.6048 
L 169.014754 269.9136 
L 169.599398 269.9136 
L 169.599398 269.2224 
L 169.776879 269.2224 
L 169.870839 267.84 
L 169.902159 267.84 
L 169.902159 267.1488 
L 170.152721 267.1488 
L 170.152721 266.4576 
L 171.301127 266.4576 
L 171.374208 265.0752 
L 172.031932 265.0752 
L 172.031932 264.384 
L 172.240733 264.384 
L 172.313813 263.0016 
L 172.522614 263.0016 
L 172.522614 262.3104 
L 172.679215 262.3104 
L 172.752296 260.928 
L 173.827622 260.928 
L 173.827622 260.2368 
L 174.119944 260.2368 
L 174.119944 259.5456 
L 174.840308 259.5456 
L 174.840308 258.8544 
L 174.986468 258.8544 
L 175.069989 257.472 
L 175.143069 257.472 
L 175.143069 256.7808 
L 175.32055 256.7808 
L 175.32055 256.0896 
L 176.218396 256.0896 
L 176.218396 255.3984 
L 176.333236 255.3984 
L 176.333236 254.7072 
L 177.481643 254.7072 
L 177.554723 253.3248 
L 177.763524 253.3248 
L 177.763524 252.6336 
L 177.993206 252.6336 
L 177.993206 251.9424 
L 178.264647 251.9424 
L 178.369048 250.56 
L 178.69269 250.56 
L 178.69269 249.8688 
L 179.935057 249.8688 
L 179.935057 249.1776 
L 180.070778 249.1776 
L 180.102098 247.7952 
L 180.39442 247.7952 
L 180.39442 246.4128 
L 180.39442 246.4128 
L 180.592781 246.4128 
L 180.592781 245.7216 
L 182.012629 245.7216 
L 182.012629 245.0304 
L 182.336271 245.0304 
L 182.336271 244.3392 
L 182.471992 244.3392 
L 182.471992 243.648 
L 182.743433 243.648 
L 182.753873 242.2656 
L 183.067075 242.2656 
L 183.161035 240.8832 
L 183.526438 240.8832 
L 183.526438 240.192 
L 184.539123 240.192 
L 184.539123 238.8096 
L 184.539123 238.8096 
L 185.322128 238.8096 
L 185.374328 237.4272 
L 185.60401 237.4272 
L 185.60401 236.736 
L 185.76061 236.736 
L 185.76061 236.0448 
L 186.627135 236.0448 
L 186.658456 234.6624 
L 187.201339 234.6624 
L 187.201339 233.9712 
L 187.921703 233.9712 
L 188.015663 232.5888 
L 188.318425 232.5888 
L 188.318425 231.8976 
L 188.662947 231.8976 
L 188.662947 231.2064 
L 189.24759 231.2064 
L 189.24759 230.5152 
L 189.717393 230.5152 
L 189.717393 229.824 
L 190.594358 229.824 
L 190.594358 228.4416 
L 190.594358 228.4416 
L 190.761399 228.4416 
L 190.761399 227.7504 
L 190.89712 227.7504 
L 190.95976 225.6768 
L 192.870291 225.6768 
L 192.880731 224.2944 
L 193.214813 224.2944 
L 193.319214 222.2208 
L 193.559335 222.2208 
L 193.590655 220.8384 
L 194.519821 220.8384 
L 194.519821 220.1472 
L 194.958303 220.1472 
L 194.958303 219.456 
L 195.783068 219.456 
L 195.824828 218.0736 
L 195.908349 218.0736 
L 195.908349 217.3824 
L 196.20067 217.3824 
L 196.221551 216 
L 196.472112 216 
L 196.472112 215.3088 
L 197.025435 215.3088 
L 197.077635 213.9264 
L 197.140276 213.9264 
L 197.140276 213.2352 
L 198.132081 213.2352 
L 198.132081 212.544 
L 198.445283 212.544 
L 198.445283 211.8528 
L 199.54149 211.8528 
L 199.54149 211.1616 
L 199.750291 211.1616 
L 199.750291 210.4704 
L 201.065738 210.4704 
L 201.065738 209.7792 
L 201.34762 209.7792 
L 201.4207 208.3968 
L 201.775662 208.3968 
L 201.775662 207.7056 
L 202.349866 207.7056 
L 202.349866 207.0144 
L 203.279031 207.0144 
L 203.279031 206.3232 
L 204.020275 206.3232 
L 204.020275 205.632 
L 204.959881 205.632 
L 204.970321 204.2496 
L 206.59897 204.2496 
L 206.59897 203.5584 
L 206.912172 203.5584 
L 206.912172 202.8672 
L 207.590776 202.8672 
L 207.590776 202.176 
L 208.718302 202.176 
L 208.718302 201.4848 
L 209.271626 201.4848 
L 209.271626 200.7936 
L 210.232111 200.7936 
L 210.232111 200.1024 
L 210.649713 200.1024 
L 210.649713 199.4112 
L 211.8712 199.4112 
L 211.8712 198.72 
L 212.278363 198.72 
L 212.278363 198.0288 
L 212.821246 198.0288 
L 212.821246 197.3376 
L 213.364129 197.3376 
L 213.364129 196.6464 
L 213.750411 196.6464 
L 213.750411 195.9552 
L 214.220214 195.9552 
L 214.220214 195.264 
L 215.441701 195.264 
L 215.441701 194.5728 
L 215.942824 194.5728 
L 215.995024 193.1904 
L 217.446192 193.1904 
L 217.446192 192.4992 
L 218.062156 192.4992 
L 218.062156 191.808 
L 218.437998 191.808 
L 218.437998 191.1168 
L 218.646799 191.1168 
L 218.646799 190.4256 
L 219.095722 190.4256 
L 219.095722 189.7344 
L 219.575965 189.7344 
L 219.575965 189.0432 
L 220.661731 189.0432 
L 220.661731 188.352 
L 220.954053 188.352 
L 220.954053 187.6608 
L 221.152414 187.6608 
L 221.235934 186.2784 
L 222.707983 186.2784 
L 222.707983 185.5872 
L 223.219546 185.5872 
L 223.219546 184.896 
L 223.804189 184.896 
L 223.804189 184.2048 
L 224.357512 184.2048 
L 224.357512 183.5136 
L 224.597634 183.5136 
L 224.597634 182.8224 
L 224.743794 182.8224 
L 224.743794 182.1312 
L 225.871321 182.1312 
L 225.871321 181.44 
L 226.309803 181.44 
L 226.309803 180.7488 
L 226.445524 180.7488 
L 226.445524 180.0576 
L 226.936207 180.0576 
L 226.936207 179.3664 
L 228.241214 179.3664 
L 228.345615 177.984 
L 229.045099 177.984 
L 229.045099 177.2928 
L 229.911624 177.2928 
L 229.911624 176.6016 
L 230.91387 176.6016 
L 230.91387 175.9104 
L 231.498513 175.9104 
L 231.498513 175.2192 
L 231.717754 175.2192 
L 231.811715 173.8368 
L 232.051836 173.8368 
L 232.051836 173.1456 
L 232.991442 173.1456 
L 232.991442 172.4544 
L 233.544765 172.4544 
L 233.544765 171.7632 
L 234.296449 171.7632 
L 234.296449 171.072 
L 234.985493 171.072 
L 235.079454 169.6896 
L 235.121214 169.6896 
L 235.121214 168.9984 
L 235.486616 168.9984 
L 235.486616 168.3072 
L 236.509742 168.3072 
L 236.509742 167.616 
L 236.969105 167.616 
L 236.969105 166.9248 
L 237.136146 166.9248 
L 237.240546 165.5424 
L 238.660394 165.5424 
L 238.733475 164.16 
L 239.380759 164.16 
L 239.380759 163.4688 
L 239.516479 163.4688 
L 239.516479 162.7776 
L 239.64176 162.7776 
L 239.64176 162.0864 
L 239.954962 162.0864 
L 239.954962 161.3952 
L 240.184643 161.3952 
L 240.184643 160.704 
L 241.489651 160.704 
L 241.489651 160.0128 
L 241.719332 160.0128 
L 241.719332 159.3216 
L 242.074294 159.3216 
L 242.074294 158.6304 
L 242.324855 158.6304 
L 242.377056 157.248 
L 242.544097 157.248 
L 242.544097 156.5568 
L 243.588103 156.5568 
L 243.588103 155.8656 
L 243.817784 155.8656 
L 243.901304 154.4832 
L 244.621669 154.4832 
L 244.621669 153.792 
L 245.112351 153.792 
L 245.112351 153.1008 
L 245.634354 153.1008 
L 245.634354 152.4096 
L 245.937116 152.4096 
L 246.031077 151.0272 
L 247.189923 151.0272 
L 247.189923 150.336 
L 247.534445 150.336 
L 247.534445 149.6448 
L 247.722366 149.6448 
L 247.753687 148.2624 
L 247.983368 148.2624 
L 247.983368 147.5712 
L 249.705978 147.5712 
L 249.705978 146.88 
L 249.820818 146.88 
L 249.841699 145.4976 
L 250.07138 145.4976 
L 250.07138 144.8064 
L 250.363702 144.8064 
L 250.363702 144.1152 
L 251.094506 144.1152 
L 251.094506 143.424 
L 251.950591 143.424 
L 251.950591 142.7328 
L 252.148952 142.7328 
L 252.148952 142.0416 
L 252.409953 142.0416 
L 252.409953 141.3504 
L 252.921516 141.3504 
L 252.931956 139.968 
L 253.412199 139.968 
L 253.412199 139.2768 
L 254.007283 139.2768 
L 254.007283 138.5856 
L 254.330924 138.5856 
L 254.330924 137.8944 
L 254.800727 137.8944 
L 254.800727 137.2032 
L 255.009528 137.2032 
L 255.009528 136.512 
L 255.552411 136.512 
L 255.552411 135.8208 
L 256.116175 135.8208 
L 256.116175 135.1296 
L 256.523337 135.1296 
L 256.523337 134.4384 
L 257.650863 134.4384 
L 257.650863 133.7472 
L 258.037146 133.7472 
L 258.099786 132.3648 
L 258.183307 132.3648 
L 258.183307 131.6736 
L 260.156478 131.6736 
L 260.156478 130.9824 
L 260.292199 130.9824 
L 260.292199 129.6 
L 260.292199 129.6 
L 260.668041 129.6 
L 260.668041 128.9088 
L 261.649406 128.9088 
L 261.659847 127.5264 
L 262.390651 127.5264 
L 262.390651 126.8352 
L 262.923094 126.8352 
L 262.923094 126.144 
L 263.288496 126.144 
L 263.288496 125.4528 
L 263.726978 125.4528 
L 263.726978 124.7616 
L 264.259421 124.7616 
L 264.259421 124.0704 
L 264.478663 124.0704 
L 264.478663 123.3792 
L 265.303427 123.3792 
L 265.303427 122.688 
L 265.470468 122.688 
L 265.470468 121.9968 
L 266.524914 121.9968 
L 266.524914 121.3056 
L 266.932077 121.3056 
L 266.932077 120.6144 
L 267.45408 120.6144 
L 267.45408 119.9232 
L 268.216204 119.9232 
L 268.216204 119.232 
L 268.957448 119.232 
L 268.957448 118.5408 
L 269.510772 118.5408 
L 269.510772 117.8496 
L 270.272896 117.8496 
L 270.325096 116.4672 
L 271.02458 116.4672 
L 271.02458 115.776 
L 272.131227 115.776 
L 272.131227 115.0848 
L 272.433988 115.0848 
L 272.433988 114.3936 
L 272.601029 114.3936 
L 272.601029 113.7024 
L 273.290073 113.7024 
L 273.290073 113.0112 
L 274.53244 113.0112 
L 274.53244 112.32 
L 274.741242 112.32 
L 274.741242 111.6288 
L 275.941849 111.6288 
L 275.941849 110.9376 
L 276.568252 110.9376 
L 276.568252 110.2464 
L 277.319937 110.2464 
L 277.319937 109.5552 
L 278.583184 109.5552 
L 278.687584 108.1728 
L 279.950832 108.1728 
L 279.950832 107.4816 
L 280.806917 107.4816 
L 280.806917 106.7904 
L 281.308039 106.7904 
L 281.308039 106.0992 
L 282.905369 106.0992 
L 282.905369 105.408 
L 283.583972 105.408 
L 283.583972 104.7168 
L 284.993381 104.7168 
L 284.993381 104.0256 
L 287.112713 104.0256 
L 287.112713 103.3344 
L 289.190285 103.3344 
L 289.242485 101.952 
L 291.278297 101.952 
L 291.330497 100.5696 
L 293.355869 100.5696 
L 293.355869 99.8784 
L 295.485641 99.8784 
L 295.485641 99.1872 
L 297.615413 99.1872 
L 297.615413 98.496 
L 299.755625 98.496 
L 299.755625 97.8048 
L 301.843637 97.8048 
L 301.843637 97.1136 
L 303.127765 97.1136 
L 303.127765 96.4224 
L 303.95253 96.4224 
L 303.95253 95.7312 
L 305.194897 95.7312 
L 305.194897 95.04 
L 306.050982 95.04 
L 306.050982 94.3488 
L 307.282909 94.3488 
L 307.282909 93.6576 
L 308.097233 93.6576 
L 308.097233 92.9664 
L 309.423121 92.9664 
L 309.423121 92.2752 
L 311.532013 92.2752 
L 311.532013 91.584 
L 313.640905 91.584 
L 313.640905 90.8928 
L 315.760237 90.8928 
L 315.760237 90.2016 
L 317.837809 90.2016 
L 317.837809 89.5104 
L 319.195017 89.5104 
L 319.195017 88.8192 
L 319.915381 88.8192 
L 319.915381 88.128 
L 321.857232 88.128 
L 321.951193 86.7456 
L 324.049645 86.7456 
L 324.049645 86.0544 
L 324.467247 86.0544 
L 324.467247 85.3632 
L 325.532134 85.3632 
L 325.532134 84.672 
L 326.137657 84.672 
L 326.137657 83.9808 
L 327.066822 83.9808 
L 327.066822 83.2896 
L 328.152589 83.2896 
L 328.152589 82.5984 
L 330.720843 82.5984 
L 330.720843 81.9072 
L 333.299538 81.9072 
L 333.299538 81.216 
L 335.888673 81.216 
L 335.888673 80.5248 
L 338.509128 80.5248 
L 338.509128 79.8336 
L 341.150463 79.8336 
L 341.150463 79.1424 
L 343.781358 79.1424 
L 343.781358 78.4512 
L 346.360053 78.4512 
L 346.360053 77.76 
L 348.980508 77.76 
L 348.980508 77.0688 
L 350.170675 77.0688 
L 350.191555 75.6864 
L 351.600963 75.6864 
L 351.600963 74.9952 
L 352.279567 74.9952 
L 352.321327 73.6128 
L 354.200538 73.6128 
L 354.200538 72.9216 
L 354.409339 72.9216 
L 354.409339 72.2304 
L 356.466031 72.2304 
L 356.466031 71.5392 
L 356.883634 71.5392 
L 356.883634 70.848 
L 358.522723 70.848 
L 358.522723 70.1568 
L 359.451888 70.1568 
L 359.451888 69.4656 
L 360.631615 69.4656 
L 360.631615 68.7744 
L 362.103664 68.7744 
L 362.103664 68.0832 
L 362.709187 68.0832 
L 362.709187 67.392 
L 364.651038 67.392 
L 364.651038 66.7008 
L 364.849399 66.7008 
L 364.849399 66.0096 
L 367.000052 66.0096 
L 367.000052 65.3184 
L 367.261053 65.3184 
L 367.261053 64.6272 
L 369.129824 64.6272 
L 369.129824 63.936 
L 369.871068 63.936 
L 369.871068 63.2448 
L 371.228276 63.2448 
L 371.228276 62.5536 
L 373.337168 62.5536 
L 373.337168 61.8624 
L 375.38342 61.8624 
L 375.38342 61.1712 
L 377.481872 61.1712 
L 377.481872 60.48 
L 379.559444 60.48 
L 379.559444 59.7888 
L 381.689216 59.7888 
L 381.689216 59.0976 
L 383.787668 59.0976 
L 383.787668 58.4064 
L 385.917441 58.4064 
L 385.917441 57.7152 
L 388.036773 57.7152 
L 388.036773 57.024 
L 390.176985 57.024 
L 390.176985 56.3328 
L 392.275437 56.3328 
L 392.275437 55.6416 
L 394.311249 55.6416 
L 394.311249 54.9504 
L 396.409701 54.9504 
L 396.409701 54.2592 
L 398.487273 54.2592 
L 398.487273 53.568 
L 398.487273 53.568 
" clip-path="url(#pc1a301a140)" style="fill: none; stroke: #ff7f0e; stroke-width: 1.5; stroke-linecap: square"/>
   </g>
   <g id="patch_3">
    <path d="M 57.6 307.584 
L 57.6 41.472 
" style="fill: none; stroke: #000000; stroke-width: 0.8; stroke-linejoin: miter; stroke-linecap: square"/>
   </g>
   <g id="patch_4">
    <path d="M 414.72 307.584 
L 414.72 41.472 
" style="fill: none; stroke: #000000; stroke-width: 0.8; stroke-linejoin: miter; stroke-linecap: square"/>
   </g>
   <g id="patch_5">
    <path d="M 57.6 307.584 
L 414.72 307.584 
" style="fill: none; stroke: #000000; stroke-width: 0.8; stroke-linejoin: miter; stroke-linecap: square"/>
   </g>
   <g id="patch_6">
    <path d="M 57.6 41.472 
L 414.72 41.472 
" style="fill: none; stroke: #000000; stroke-width: 0.8; stroke-linejoin: miter; stroke-linecap: square"/>
   </g>
   <g id="text_14">
    <!-- S1 S103 -->
    <g transform="translate(211.365 35.472) scale(0.12 -0.12)">
     <defs>
      <path id="DejaVuSans-53" d="M 3425 4513 
L 3425 3897 
Q 3066 4069 2747 4153 
Q 2428 4238 2131 4238 
Q 1616 4238 1336 4038 
Q 1056 3838 1056 3469 
Q 1056 3159 1242 3001 
Q 1428 2844 1947 2747 
L 2328 2669 
Q 3034 2534 3370 2195 
Q 3706 1856 3706 1288 
Q 3706 609 3251 259 
Q 2797 -91 1919 -91 
Q 1588 -91 1214 -16 
Q 841 59 441 206 
L 441 856 
Q 825 641 1194 531 
Q 1563 422 1919 422 
Q 2459 422 2753 634 
Q 3047 847 3047 1241 
Q 3047 1584 2836 1778 
Q 2625 1972 2144 2069 
L 1759 2144 
Q 1053 2284 737 2584 
Q 422 2884 422 3419 
Q 422 4038 858 4394 
Q 1294 4750 2059 4750 
Q 2388 4750 2728 4690 
Q 3069 4631 3425 4513 
z
" transform="scale(0.015625)"/>
      <path id="DejaVuSans-20" transform="scale(0.015625)"/>
     </defs>
     <use xlink:href="#DejaVuSans-53"/>
     <use xlink:href="#DejaVuSans-31" x="63.476562"/>
     <use xlink:href="#DejaVuSans-20" x="127.099609"/>
     <use xlink:href="#DejaVuSans-53" x="158.886719"/>
     <use xlink:href="#DejaVuSans-31" x="222.363281"/>
     <use xlink:href="#DejaVuSans-30" x="285.986328"/>
     <use xlink:href="#DejaVuSans-33" x="349.609375"/>
    </g>
   </g>
   <g id="legend_1">
    <g id="patch_7">
     <path d="M 81.077813 304.584 
L 410.52 304.584 
Q 411.72 304.584 411.72 303.384 
L 411.72 286.37025 
Q 411.72 285.17025 410.52 285.17025 
L 81.077813 285.17025 
Q 79.877813 285.17025 79.877813 286.37025 
L 79.877813 303.384 
Q 79.877813 304.584 81.077813 304.584 
z
" style="fill: #ffffff; opacity: 0.8; stroke: #cccccc; stroke-linejoin: miter"/>
    </g>
    <g id="line2d_16">
     <path d="M 82.277813 290.029312 
L 88.277813 290.029312 
L 94.277813 290.029312 
" style="fill: none; stroke: #1f77b4; stroke-width: 1.5; stroke-linecap: square"/>
    </g>
    <g id="text_15">
     <!-- Execution time between S1 S103 (xx1xx1xx1xx0yyy45xx0yyy45xx1xx0yyy45xx1xx1) -->
     <g transform="translate(99.077813 292.129312) scale(0.06 -0.06)">
      <defs>
       <path id="DejaVuSans-45" d="M 628 4666 
L 3578 4666 
L 3578 4134 
L 1259 4134 
L 1259 2753 
L 3481 2753 
L 3481 2222 
L 1259 2222 
L 1259 531 
L 3634 531 
L 3634 0 
L 628 0 
L 628 4666 
z
" transform="scale(0.015625)"/>
       <path id="DejaVuSans-78" d="M 3513 3500 
L 2247 1797 
L 3578 0 
L 2900 0 
L 1881 1375 
L 863 0 
L 184 0 
L 1544 1831 
L 300 3500 
L 978 3500 
L 1906 2253 
L 2834 3500 
L 3513 3500 
z
" transform="scale(0.015625)"/>
       <path id="DejaVuSans-65" d="M 3597 1894 
L 3597 1613 
L 953 1613 
Q 991 1019 1311 708 
Q 1631 397 2203 397 
Q 2534 397 2845 478 
Q 3156 559 3463 722 
L 3463 178 
Q 3153 47 2828 -22 
Q 2503 -91 2169 -91 
Q 1331 -91 842 396 
Q 353 884 353 1716 
Q 353 2575 817 3079 
Q 1281 3584 2069 3584 
Q 2775 3584 3186 3129 
Q 3597 2675 3597 1894 
z
M 3022 2063 
Q 3016 2534 2758 2815 
Q 2500 3097 2075 3097 
Q 1594 3097 1305 2825 
Q 1016 2553 972 2059 
L 3022 2063 
z
" transform="scale(0.015625)"/>
       <path id="DejaVuSans-63" d="M 3122 3366 
L 3122 2828 
Q 2878 2963 2633 3030 
Q 2388 3097 2138 3097 
Q 1578 3097 1268 2742 
Q 959 2388 959 1747 
Q 959 1106 1268 751 
Q 1578 397 2138 397 
Q 2388 397 2633 464 
Q 2878 531 3122 666 
L 3122 134 
Q 2881 22 2623 -34 
Q 2366 -91 2075 -91 
Q 1284 -91 818 406 
Q 353 903 353 1747 
Q 353 2603 823 3093 
Q 1294 3584 2113 3584 
Q 2378 3584 2631 3529 
Q 2884 3475 3122 3366 
z
" transform="scale(0.015625)"/>
       <path id="DejaVuSans-75" d="M 544 1381 
L 544 3500 
L 1119 3500 
L 1119 1403 
Q 1119 906 1312 657 
Q 1506 409 1894 409 
Q 2359 409 2629 706 
Q 2900 1003 2900 1516 
L 2900 3500 
L 3475 3500 
L 3475 0 
L 2900 0 
L 2900 538 
Q 2691 219 2414 64 
Q 2138 -91 1772 -91 
Q 1169 -91 856 284 
Q 544 659 544 1381 
z
M 1991 3584 
L 1991 3584 
z
" transform="scale(0.015625)"/>
       <path id="DejaVuSans-74" d="M 1172 4494 
L 1172 3500 
L 2356 3500 
L 2356 3053 
L 1172 3053 
L 1172 1153 
Q 1172 725 1289 603 
Q 1406 481 1766 481 
L 2356 481 
L 2356 0 
L 1766 0 
Q 1100 0 847 248 
Q 594 497 594 1153 
L 594 3053 
L 172 3053 
L 172 3500 
L 594 3500 
L 594 4494 
L 1172 4494 
z
" transform="scale(0.015625)"/>
       <path id="DejaVuSans-69" d="M 603 3500 
L 1178 3500 
L 1178 0 
L 603 0 
L 603 3500 
z
M 603 4863 
L 1178 4863 
L 1178 4134 
L 603 4134 
L 603 4863 
z
" transform="scale(0.015625)"/>
       <path id="DejaVuSans-6f" d="M 1959 3097 
Q 1497 3097 1228 2736 
Q 959 2375 959 1747 
Q 959 1119 1226 758 
Q 1494 397 1959 397 
Q 2419 397 2687 759 
Q 2956 1122 2956 1747 
Q 2956 2369 2687 2733 
Q 2419 3097 1959 3097 
z
M 1959 3584 
Q 2709 3584 3137 3096 
Q 3566 2609 3566 1747 
Q 3566 888 3137 398 
Q 2709 -91 1959 -91 
Q 1206 -91 779 398 
Q 353 888 353 1747 
Q 353 2609 779 3096 
Q 1206 3584 1959 3584 
z
" transform="scale(0.015625)"/>
       <path id="DejaVuSans-6e" d="M 3513 2113 
L 3513 0 
L 2938 0 
L 2938 2094 
Q 2938 2591 2744 2837 
Q 2550 3084 2163 3084 
Q 1697 3084 1428 2787 
Q 1159 2491 1159 1978 
L 1159 0 
L 581 0 
L 581 3500 
L 1159 3500 
L 1159 2956 
Q 1366 3272 1645 3428 
Q 1925 3584 2291 3584 
Q 2894 3584 3203 3211 
Q 3513 2838 3513 2113 
z
" transform="scale(0.015625)"/>
       <path id="DejaVuSans-6d" d="M 3328 2828 
Q 3544 3216 3844 3400 
Q 4144 3584 4550 3584 
Q 5097 3584 5394 3201 
Q 5691 2819 5691 2113 
L 5691 0 
L 5113 0 
L 5113 2094 
Q 5113 2597 4934 2840 
Q 4756 3084 4391 3084 
Q 3944 3084 3684 2787 
Q 3425 2491 3425 1978 
L 3425 0 
L 2847 0 
L 2847 2094 
Q 2847 2600 2669 2842 
Q 2491 3084 2119 3084 
Q 1678 3084 1418 2786 
Q 1159 2488 1159 1978 
L 1159 0 
L 581 0 
L 581 3500 
L 1159 3500 
L 1159 2956 
Q 1356 3278 1631 3431 
Q 1906 3584 2284 3584 
Q 2666 3584 2933 3390 
Q 3200 3197 3328 2828 
z
" transform="scale(0.015625)"/>
       <path id="DejaVuSans-62" d="M 3116 1747 
Q 3116 2381 2855 2742 
Q 2594 3103 2138 3103 
Q 1681 3103 1420 2742 
Q 1159 2381 1159 1747 
Q 1159 1113 1420 752 
Q 1681 391 2138 391 
Q 2594 391 2855 752 
Q 3116 1113 3116 1747 
z
M 1159 2969 
Q 1341 3281 1617 3432 
Q 1894 3584 2278 3584 
Q 2916 3584 3314 3078 
Q 3713 2572 3713 1747 
Q 3713 922 3314 415 
Q 2916 -91 2278 -91 
Q 1894 -91 1617 61 
Q 1341 213 1159 525 
L 1159 0 
L 581 0 
L 581 4863 
L 1159 4863 
L 1159 2969 
z
" transform="scale(0.015625)"/>
       <path id="DejaVuSans-77" d="M 269 3500 
L 844 3500 
L 1563 769 
L 2278 3500 
L 2956 3500 
L 3675 769 
L 4391 3500 
L 4966 3500 
L 4050 0 
L 3372 0 
L 2619 2869 
L 1863 0 
L 1184 0 
L 269 3500 
z
" transform="scale(0.015625)"/>
       <path id="DejaVuSans-28" d="M 1984 4856 
Q 1566 4138 1362 3434 
Q 1159 2731 1159 2009 
Q 1159 1288 1364 580 
Q 1569 -128 1984 -844 
L 1484 -844 
Q 1016 -109 783 600 
Q 550 1309 550 2009 
Q 550 2706 781 3412 
Q 1013 4119 1484 4856 
L 1984 4856 
z
" transform="scale(0.015625)"/>
       <path id="DejaVuSans-79" d="M 2059 -325 
Q 1816 -950 1584 -1140 
Q 1353 -1331 966 -1331 
L 506 -1331 
L 506 -850 
L 844 -850 
Q 1081 -850 1212 -737 
Q 1344 -625 1503 -206 
L 1606 56 
L 191 3500 
L 800 3500 
L 1894 763 
L 2988 3500 
L 3597 3500 
L 2059 -325 
z
" transform="scale(0.015625)"/>
       <path id="DejaVuSans-29" d="M 513 4856 
L 1013 4856 
Q 1481 4119 1714 3412 
Q 1947 2706 1947 2009 
Q 1947 1309 1714 600 
Q 1481 -109 1013 -844 
L 513 -844 
Q 928 -128 1133 580 
Q 1338 1288 1338 2009 
Q 1338 2731 1133 3434 
Q 928 4138 513 4856 
z
" transform="scale(0.015625)"/>
      </defs>
      <use xlink:href="#DejaVuSans-45"/>
      <use xlink:href="#DejaVuSans-78" x="63.183594"/>
      <use xlink:href="#DejaVuSans-65" x="119.238281"/>
      <use xlink:href="#DejaVuSans-63" x="180.761719"/>
      <use xlink:href="#DejaVuSans-75" x="235.742188"/>
      <use xlink:href="#DejaVuSans-74" x="299.121094"/>
      <use xlink:href="#DejaVuSans-69" x="338.330078"/>
      <use xlink:href="#DejaVuSans-6f" x="366.113281"/>
      <use xlink:href="#DejaVuSans-6e" x="427.294922"/>
      <use xlink:href="#DejaVuSans-20" x="490.673828"/>
      <use xlink:href="#DejaVuSans-74" x="522.460938"/>
      <use xlink:href="#DejaVuSans-69" x="561.669922"/>
      <use xlink:href="#DejaVuSans-6d" x="589.453125"/>
      <use xlink:href="#DejaVuSans-65" x="686.865234"/>
      <use xlink:href="#DejaVuSans-20" x="748.388672"/>
      <use xlink:href="#DejaVuSans-62" x="780.175781"/>
      <use xlink:href="#DejaVuSans-65" x="843.652344"/>
      <use xlink:href="#DejaVuSans-74" x="905.175781"/>
      <use xlink:href="#DejaVuSans-77" x="944.384766"/>
      <use xlink:href="#DejaVuSans-65" x="1026.171875"/>
      <use xlink:href="#DejaVuSans-65" x="1087.695312"/>
      <use xlink:href="#DejaVuSans-6e" x="1149.21875"/>
      <use xlink:href="#DejaVuSans-20" x="1212.597656"/>
      <use xlink:href="#DejaVuSans-53" x="1244.384766"/>
      <use xlink:href="#DejaVuSans-31" x="1307.861328"/>
      <use xlink:href="#DejaVuSans-20" x="1371.484375"/>
      <use xlink:href="#DejaVuSans-53" x="1403.271484"/>
      <use xlink:href="#DejaVuSans-31" x="1466.748047"/>
      <use xlink:href="#DejaVuSans-30" x="1530.371094"/>
      <use xlink:href="#DejaVuSans-33" x="1593.994141"/>
      <use xlink:href="#DejaVuSans-20" x="1657.617188"/>
      <use xlink:href="#DejaVuSans-28" x="1689.404297"/>
      <use xlink:href="#DejaVuSans-78" x="1728.417969"/>
      <use xlink:href="#DejaVuSans-78" x="1787.597656"/>
      <use xlink:href="#DejaVuSans-31" x="1846.777344"/>
      <use xlink:href="#DejaVuSans-78" x="1910.400391"/>
      <use xlink:href="#DejaVuSans-78" x="1969.580078"/>
      <use xlink:href="#DejaVuSans-31" x="2028.759766"/>
      <use xlink:href="#DejaVuSans-78" x="2092.382812"/>
      <use xlink:href="#DejaVuSans-78" x="2151.5625"/>
      <use xlink:href="#DejaVuSans-31" x="2210.742188"/>
      <use xlink:href="#DejaVuSans-78" x="2274.365234"/>
      <use xlink:href="#DejaVuSans-78" x="2333.544922"/>
      <use xlink:href="#DejaVuSans-30" x="2392.724609"/>
      <use xlink:href="#DejaVuSans-79" x="2456.347656"/>
      <use xlink:href="#DejaVuSans-79" x="2515.527344"/>
      <use xlink:href="#DejaVuSans-79" x="2574.707031"/>
      <use xlink:href="#DejaVuSans-34" x="2633.886719"/>
      <use xlink:href="#DejaVuSans-35" x="2697.509766"/>
      <use xlink:href="#DejaVuSans-78" x="2761.132812"/>
      <use xlink:href="#DejaVuSans-78" x="2820.3125"/>
      <use xlink:href="#DejaVuSans-30" x="2879.492188"/>
      <use xlink:href="#DejaVuSans-79" x="2943.115234"/>
      <use xlink:href="#DejaVuSans-79" x="3002.294922"/>
      <use xlink:href="#DejaVuSans-79" x="3061.474609"/>
      <use xlink:href="#DejaVuSans-34" x="3120.654297"/>
      <use xlink:href="#DejaVuSans-35" x="3184.277344"/>
      <use xlink:href="#DejaVuSans-78" x="3247.900391"/>
      <use xlink:href="#DejaVuSans-78" x="3307.080078"/>
      <use xlink:href="#DejaVuSans-31" x="3366.259766"/>
      <use xlink:href="#DejaVuSans-78" x="3429.882812"/>
      <use xlink:href="#DejaVuSans-78" x="3489.0625"/>
      <use xlink:href="#DejaVuSans-30" x="3548.242188"/>
      <use xlink:href="#DejaVuSans-79" x="3611.865234"/>
      <use xlink:href="#DejaVuSans-79" x="3671.044922"/>
      <use xlink:href="#DejaVuSans-79" x="3730.224609"/>
      <use xlink:href="#DejaVuSans-34" x="3789.404297"/>
      <use xlink:href="#DejaVuSans-35" x="3853.027344"/>
      <use xlink:href="#DejaVuSans-78" x="3916.650391"/>
      <use xlink:href="#DejaVuSans-78" x="3975.830078"/>
      <use xlink:href="#DejaVuSans-31" x="4035.009766"/>
      <use xlink:href="#DejaVuSans-78" x="4098.632812"/>
      <use xlink:href="#DejaVuSans-78" x="4157.8125"/>
      <use xlink:href="#DejaVuSans-31" x="4216.992188"/>
      <use xlink:href="#DejaVuSans-29" x="4280.615234"/>
     </g>
    </g>
    <g id="line2d_17">
     <path d="M 82.277813 298.836187 
L 88.277813 298.836187 
L 94.277813 298.836187 
" style="fill: none; stroke: #ff7f0e; stroke-width: 1.5; stroke-linecap: square"/>
    </g>
    <g id="text_16">
     <!-- Execution time between S1 S103 (xx1xx2xx0yyy45xx0yyy45xx0yyy3xx1xx0yyy45xx0yyy45xx0yyy45) -->
     <g transform="translate(99.077813 300.936187) scale(0.06 -0.06)">
      <use xlink:href="#DejaVuSans-45"/>
      <use xlink:href="#DejaVuSans-78" x="63.183594"/>
      <use xlink:href="#DejaVuSans-65" x="119.238281"/>
      <use xlink:href="#DejaVuSans-63" x="180.761719"/>
      <use xlink:href="#DejaVuSans-75" x="235.742188"/>
      <use xlink:href="#DejaVuSans-74" x="299.121094"/>
      <use xlink:href="#DejaVuSans-69" x="338.330078"/>
      <use xlink:href="#DejaVuSans-6f" x="366.113281"/>
      <use xlink:href="#DejaVuSans-6e" x="427.294922"/>
      <use xlink:href="#DejaVuSans-20" x="490.673828"/>
      <use xlink:href="#DejaVuSans-74" x="522.460938"/>
      <use xlink:href="#DejaVuSans-69" x="561.669922"/>
      <use xlink:href="#DejaVuSans-6d" x="589.453125"/>
      <use xlink:href="#DejaVuSans-65" x="686.865234"/>
      <use xlink:href="#DejaVuSans-20" x="748.388672"/>
      <use xlink:href="#DejaVuSans-62" x="780.175781"/>
      <use xlink:href="#DejaVuSans-65" x="843.652344"/>
      <use xlink:href="#DejaVuSans-74" x="905.175781"/>
      <use xlink:href="#DejaVuSans-77" x="944.384766"/>
      <use xlink:href="#DejaVuSans-65" x="1026.171875"/>
      <use xlink:href="#DejaVuSans-65" x="1087.695312"/>
      <use xlink:href="#DejaVuSans-6e" x="1149.21875"/>
      <use xlink:href="#DejaVuSans-20" x="1212.597656"/>
      <use xlink:href="#DejaVuSans-53" x="1244.384766"/>
      <use xlink:href="#DejaVuSans-31" x="1307.861328"/>
      <use xlink:href="#DejaVuSans-20" x="1371.484375"/>
      <use xlink:href="#DejaVuSans-53" x="1403.271484"/>
      <use xlink:href="#DejaVuSans-31" x="1466.748047"/>
      <use xlink:href="#DejaVuSans-30" x="1530.371094"/>
      <use xlink:href="#DejaVuSans-33" x="1593.994141"/>
      <use xlink:href="#DejaVuSans-20" x="1657.617188"/>
      <use xlink:href="#DejaVuSans-28" x="1689.404297"/>
      <use xlink:href="#DejaVuSans-78" x="1728.417969"/>
      <use xlink:href="#DejaVuSans-78" x="1787.597656"/>
      <use xlink:href="#DejaVuSans-31" x="1846.777344"/>
      <use xlink:href="#DejaVuSans-78" x="1910.400391"/>
      <use xlink:href="#DejaVuSans-78" x="1969.580078"/>
      <use xlink:href="#DejaVuSans-32" x="2028.759766"/>
      <use xlink:href="#DejaVuSans-78" x="2092.382812"/>
      <use xlink:href="#DejaVuSans-78" x="2151.5625"/>
      <use xlink:href="#DejaVuSans-30" x="2210.742188"/>
      <use xlink:href="#DejaVuSans-79" x="2274.365234"/>
      <use xlink:href="#DejaVuSans-79" x="2333.544922"/>
      <use xlink:href="#DejaVuSans-79" x="2392.724609"/>
      <use xlink:href="#DejaVuSans-34" x="2451.904297"/>
      <use xlink:href="#DejaVuSans-35" x="2515.527344"/>
      <use xlink:href="#DejaVuSans-78" x="2579.150391"/>
      <use xlink:href="#DejaVuSans-78" x="2638.330078"/>
      <use xlink:href="#DejaVuSans-30" x="2697.509766"/>
      <use xlink:href="#DejaVuSans-79" x="2761.132812"/>
      <use xlink:href="#DejaVuSans-79" x="2820.3125"/>
      <use xlink:href="#DejaVuSans-79" x="2879.492188"/>
      <use xlink:href="#DejaVuSans-34" x="2938.671875"/>
      <use xlink:href="#DejaVuSans-35" x="3002.294922"/>
      <use xlink:href="#DejaVuSans-78" x="3065.917969"/>
      <use xlink:href="#DejaVuSans-78" x="3125.097656"/>
      <use xlink:href="#DejaVuSans-30" x="3184.277344"/>
      <use xlink:href="#DejaVuSans-79" x="3247.900391"/>
      <use xlink:href="#DejaVuSans-79" x="3307.080078"/>
      <use xlink:href="#DejaVuSans-79" x="3366.259766"/>
      <use xlink:href="#DejaVuSans-33" x="3425.439453"/>
      <use xlink:href="#DejaVuSans-78" x="3489.0625"/>
      <use xlink:href="#DejaVuSans-78" x="3548.242188"/>
      <use xlink:href="#DejaVuSans-31" x="3607.421875"/>
      <use xlink:href="#DejaVuSans-78" x="3671.044922"/>
      <use xlink:href="#DejaVuSans-78" x="3730.224609"/>
      <use xlink:href="#DejaVuSans-30" x="3789.404297"/>
      <use xlink:href="#DejaVuSans-79" x="3853.027344"/>
      <use xlink:href="#DejaVuSans-79" x="3912.207031"/>
      <use xlink:href="#DejaVuSans-79" x="3971.386719"/>
      <use xlink:href="#DejaVuSans-34" x="4030.566406"/>
      <use xlink:href="#DejaVuSans-35" x="4094.189453"/>
      <use xlink:href="#DejaVuSans-78" x="4157.8125"/>
      <use xlink:href="#DejaVuSans-78" x="4216.992188"/>
      <use xlink:href="#DejaVuSans-30" x="4276.171875"/>
      <use xlink:href="#DejaVuSans-79" x="4339.794922"/>
      <use xlink:href="#DejaVuSans-79" x="4398.974609"/>
      <use xlink:href="#DejaVuSans-79" x="4458.154297"/>
      <use xlink:href="#DejaVuSans-34" x="4517.333984"/>
      <use xlink:href="#DejaVuSans-35" x="4580.957031"/>
      <use xlink:href="#DejaVuSans-78" x="4644.580078"/>
      <use xlink:href="#DejaVuSans-78" x="4703.759766"/>
      <use xlink:href="#DejaVuSans-30" x="4762.939453"/>
      <use xlink:href="#DejaVuSans-79" x="4826.5625"/>
      <use xlink:href="#DejaVuSans-79" x="4885.742188"/>
      <use xlink:href="#DejaVuSans-79" x="4944.921875"/>
      <use xlink:href="#DejaVuSans-34" x="5004.101562"/>
      <use xlink:href="#DejaVuSans-35" x="5067.724609"/>
      <use xlink:href="#DejaVuSans-29" x="5131.347656"/>
     </g>
    </g>
   </g>
  </g>
 </g>
 <defs>
  <clipPath id="pc1a301a140">
   <rect x="57.6" y="41.472" width="357.12" height="266.112"/>
  </clipPath>
 </defs>
</svg>
