<?xml version="1.0" encoding="utf-8" standalone="no"?>
<!DOCTYPE svg PUBLIC "-//W3C//DTD SVG 1.1//EN"
  "http://www.w3.org/Graphics/SVG/1.1/DTD/svg11.dtd">
<svg xmlns:xlink="http://www.w3.org/1999/xlink" width="460.8pt" height="345.6pt" viewBox="0 0 460.8 345.6" xmlns="http://www.w3.org/2000/svg" version="1.1">
 <metadata>
  <rdf:RDF xmlns:dc="http://purl.org/dc/elements/1.1/" xmlns:cc="http://creativecommons.org/ns#" xmlns:rdf="http://www.w3.org/1999/02/22-rdf-syntax-ns#">
   <cc:Work>
    <dc:type rdf:resource="http://purl.org/dc/dcmitype/StillImage"/>
    <dc:date>2024-03-08T12:45:54.777864</dc:date>
    <dc:format>image/svg+xml</dc:format>
    <dc:creator>
     <cc:Agent>
      <dc:title>Matplotlib v3.8.2, https://matplotlib.org/</dc:title>
     </cc:Agent>
    </dc:creator>
   </cc:Work>
  </rdf:RDF>
 </metadata>
 <defs>
  <style type="text/css">*{stroke-linejoin: round; stroke-linecap: butt}</style>
 </defs>
 <g id="figure_1">
  <g id="patch_1">
   <path d="M 0 345.6 
L 460.8 345.6 
L 460.8 0 
L 0 0 
z
" style="fill: #ffffff"/>
  </g>
  <g id="axes_1">
   <g id="patch_2">
    <path d="M 57.6 307.584 
L 414.72 307.584 
L 414.72 41.472 
L 57.6 41.472 
z
" style="fill: #ffffff"/>
   </g>
   <g id="matplotlib.axis_1">
    <g id="xtick_1">
     <g id="line2d_1">
      <defs>
       <path id="m4087a255c9" d="M 0 0 
L 0 3.5 
" style="stroke: #000000; stroke-width: 0.8"/>
      </defs>
      <g>
       <use xlink:href="#m4087a255c9" x="73.832727" y="307.584" style="stroke: #000000; stroke-width: 0.8"/>
      </g>
     </g>
     <g id="text_1">
      <!-- 0 -->
      <g transform="translate(70.651477 322.182437) scale(0.1 -0.1)">
       <defs>
        <path id="DejaVuSans-30" d="M 2034 4250 
Q 1547 4250 1301 3770 
Q 1056 3291 1056 2328 
Q 1056 1369 1301 889 
Q 1547 409 2034 409 
Q 2525 409 2770 889 
Q 3016 1369 3016 2328 
Q 3016 3291 2770 3770 
Q 2525 4250 2034 4250 
z
M 2034 4750 
Q 2819 4750 3233 4129 
Q 3647 3509 3647 2328 
Q 3647 1150 3233 529 
Q 2819 -91 2034 -91 
Q 1250 -91 836 529 
Q 422 1150 422 2328 
Q 422 3509 836 4129 
Q 1250 4750 2034 4750 
z
" transform="scale(0.015625)"/>
       </defs>
       <use xlink:href="#DejaVuSans-30"/>
      </g>
     </g>
    </g>
    <g id="xtick_2">
     <g id="line2d_2">
      <g>
       <use xlink:href="#m4087a255c9" x="142.3397" y="307.584" style="stroke: #000000; stroke-width: 0.8"/>
      </g>
     </g>
     <g id="text_2">
      <!-- 10000 -->
      <g transform="translate(126.43345 322.182437) scale(0.1 -0.1)">
       <defs>
        <path id="DejaVuSans-31" d="M 794 531 
L 1825 531 
L 1825 4091 
L 703 3866 
L 703 4441 
L 1819 4666 
L 2450 4666 
L 2450 531 
L 3481 531 
L 3481 0 
L 794 0 
L 794 531 
z
" transform="scale(0.015625)"/>
       </defs>
       <use xlink:href="#DejaVuSans-31"/>
       <use xlink:href="#DejaVuSans-30" x="63.623047"/>
       <use xlink:href="#DejaVuSans-30" x="127.246094"/>
       <use xlink:href="#DejaVuSans-30" x="190.869141"/>
       <use xlink:href="#DejaVuSans-30" x="254.492188"/>
      </g>
     </g>
    </g>
    <g id="xtick_3">
     <g id="line2d_3">
      <g>
       <use xlink:href="#m4087a255c9" x="210.846673" y="307.584" style="stroke: #000000; stroke-width: 0.8"/>
      </g>
     </g>
     <g id="text_3">
      <!-- 20000 -->
      <g transform="translate(194.940423 322.182437) scale(0.1 -0.1)">
       <defs>
        <path id="DejaVuSans-32" d="M 1228 531 
L 3431 531 
L 3431 0 
L 469 0 
L 469 531 
Q 828 903 1448 1529 
Q 2069 2156 2228 2338 
Q 2531 2678 2651 2914 
Q 2772 3150 2772 3378 
Q 2772 3750 2511 3984 
Q 2250 4219 1831 4219 
Q 1534 4219 1204 4116 
Q 875 4013 500 3803 
L 500 4441 
Q 881 4594 1212 4672 
Q 1544 4750 1819 4750 
Q 2544 4750 2975 4387 
Q 3406 4025 3406 3419 
Q 3406 3131 3298 2873 
Q 3191 2616 2906 2266 
Q 2828 2175 2409 1742 
Q 1991 1309 1228 531 
z
" transform="scale(0.015625)"/>
       </defs>
       <use xlink:href="#DejaVuSans-32"/>
       <use xlink:href="#DejaVuSans-30" x="63.623047"/>
       <use xlink:href="#DejaVuSans-30" x="127.246094"/>
       <use xlink:href="#DejaVuSans-30" x="190.869141"/>
       <use xlink:href="#DejaVuSans-30" x="254.492188"/>
      </g>
     </g>
    </g>
    <g id="xtick_4">
     <g id="line2d_4">
      <g>
       <use xlink:href="#m4087a255c9" x="279.353647" y="307.584" style="stroke: #000000; stroke-width: 0.8"/>
      </g>
     </g>
     <g id="text_4">
      <!-- 30000 -->
      <g transform="translate(263.447397 322.182437) scale(0.1 -0.1)">
       <defs>
        <path id="DejaVuSans-33" d="M 2597 2516 
Q 3050 2419 3304 2112 
Q 3559 1806 3559 1356 
Q 3559 666 3084 287 
Q 2609 -91 1734 -91 
Q 1441 -91 1130 -33 
Q 819 25 488 141 
L 488 750 
Q 750 597 1062 519 
Q 1375 441 1716 441 
Q 2309 441 2620 675 
Q 2931 909 2931 1356 
Q 2931 1769 2642 2001 
Q 2353 2234 1838 2234 
L 1294 2234 
L 1294 2753 
L 1863 2753 
Q 2328 2753 2575 2939 
Q 2822 3125 2822 3475 
Q 2822 3834 2567 4026 
Q 2313 4219 1838 4219 
Q 1578 4219 1281 4162 
Q 984 4106 628 3988 
L 628 4550 
Q 988 4650 1302 4700 
Q 1616 4750 1894 4750 
Q 2613 4750 3031 4423 
Q 3450 4097 3450 3541 
Q 3450 3153 3228 2886 
Q 3006 2619 2597 2516 
z
" transform="scale(0.015625)"/>
       </defs>
       <use xlink:href="#DejaVuSans-33"/>
       <use xlink:href="#DejaVuSans-30" x="63.623047"/>
       <use xlink:href="#DejaVuSans-30" x="127.246094"/>
       <use xlink:href="#DejaVuSans-30" x="190.869141"/>
       <use xlink:href="#DejaVuSans-30" x="254.492188"/>
      </g>
     </g>
    </g>
    <g id="xtick_5">
     <g id="line2d_5">
      <g>
       <use xlink:href="#m4087a255c9" x="347.86062" y="307.584" style="stroke: #000000; stroke-width: 0.8"/>
      </g>
     </g>
     <g id="text_5">
      <!-- 40000 -->
      <g transform="translate(331.95437 322.182437) scale(0.1 -0.1)">
       <defs>
        <path id="DejaVuSans-34" d="M 2419 4116 
L 825 1625 
L 2419 1625 
L 2419 4116 
z
M 2253 4666 
L 3047 4666 
L 3047 1625 
L 3713 1625 
L 3713 1100 
L 3047 1100 
L 3047 0 
L 2419 0 
L 2419 1100 
L 313 1100 
L 313 1709 
L 2253 4666 
z
" transform="scale(0.015625)"/>
       </defs>
       <use xlink:href="#DejaVuSans-34"/>
       <use xlink:href="#DejaVuSans-30" x="63.623047"/>
       <use xlink:href="#DejaVuSans-30" x="127.246094"/>
       <use xlink:href="#DejaVuSans-30" x="190.869141"/>
       <use xlink:href="#DejaVuSans-30" x="254.492188"/>
      </g>
     </g>
    </g>
   </g>
   <g id="matplotlib.axis_2">
    <g id="ytick_1">
     <g id="line2d_6">
      <defs>
       <path id="m27c8b8982a" d="M 0 0 
L -3.5 0 
" style="stroke: #000000; stroke-width: 0.8"/>
      </defs>
      <g>
       <use xlink:href="#m27c8b8982a" x="57.6" y="295.488" style="stroke: #000000; stroke-width: 0.8"/>
      </g>
     </g>
     <g id="text_6">
      <!-- 0.0 -->
      <g transform="translate(34.696875 299.287219) scale(0.1 -0.1)">
       <defs>
        <path id="DejaVuSans-2e" d="M 684 794 
L 1344 794 
L 1344 0 
L 684 0 
L 684 794 
z
" transform="scale(0.015625)"/>
       </defs>
       <use xlink:href="#DejaVuSans-30"/>
       <use xlink:href="#DejaVuSans-2e" x="63.623047"/>
       <use xlink:href="#DejaVuSans-30" x="95.410156"/>
      </g>
     </g>
    </g>
    <g id="ytick_2">
     <g id="line2d_7">
      <g>
       <use xlink:href="#m27c8b8982a" x="57.6" y="247.104" style="stroke: #000000; stroke-width: 0.8"/>
      </g>
     </g>
     <g id="text_7">
      <!-- 0.2 -->
      <g transform="translate(34.696875 250.903219) scale(0.1 -0.1)">
       <use xlink:href="#DejaVuSans-30"/>
       <use xlink:href="#DejaVuSans-2e" x="63.623047"/>
       <use xlink:href="#DejaVuSans-32" x="95.410156"/>
      </g>
     </g>
    </g>
    <g id="ytick_3">
     <g id="line2d_8">
      <g>
       <use xlink:href="#m27c8b8982a" x="57.6" y="198.72" style="stroke: #000000; stroke-width: 0.8"/>
      </g>
     </g>
     <g id="text_8">
      <!-- 0.4 -->
      <g transform="translate(34.696875 202.519219) scale(0.1 -0.1)">
       <use xlink:href="#DejaVuSans-30"/>
       <use xlink:href="#DejaVuSans-2e" x="63.623047"/>
       <use xlink:href="#DejaVuSans-34" x="95.410156"/>
      </g>
     </g>
    </g>
    <g id="ytick_4">
     <g id="line2d_9">
      <g>
       <use xlink:href="#m27c8b8982a" x="57.6" y="150.336" style="stroke: #000000; stroke-width: 0.8"/>
      </g>
     </g>
     <g id="text_9">
      <!-- 0.6 -->
      <g transform="translate(34.696875 154.135219) scale(0.1 -0.1)">
       <defs>
        <path id="DejaVuSans-36" d="M 2113 2584 
Q 1688 2584 1439 2293 
Q 1191 2003 1191 1497 
Q 1191 994 1439 701 
Q 1688 409 2113 409 
Q 2538 409 2786 701 
Q 3034 994 3034 1497 
Q 3034 2003 2786 2293 
Q 2538 2584 2113 2584 
z
M 3366 4563 
L 3366 3988 
Q 3128 4100 2886 4159 
Q 2644 4219 2406 4219 
Q 1781 4219 1451 3797 
Q 1122 3375 1075 2522 
Q 1259 2794 1537 2939 
Q 1816 3084 2150 3084 
Q 2853 3084 3261 2657 
Q 3669 2231 3669 1497 
Q 3669 778 3244 343 
Q 2819 -91 2113 -91 
Q 1303 -91 875 529 
Q 447 1150 447 2328 
Q 447 3434 972 4092 
Q 1497 4750 2381 4750 
Q 2619 4750 2861 4703 
Q 3103 4656 3366 4563 
z
" transform="scale(0.015625)"/>
       </defs>
       <use xlink:href="#DejaVuSans-30"/>
       <use xlink:href="#DejaVuSans-2e" x="63.623047"/>
       <use xlink:href="#DejaVuSans-36" x="95.410156"/>
      </g>
     </g>
    </g>
    <g id="ytick_5">
     <g id="line2d_10">
      <g>
       <use xlink:href="#m27c8b8982a" x="57.6" y="101.952" style="stroke: #000000; stroke-width: 0.8"/>
      </g>
     </g>
     <g id="text_10">
      <!-- 0.8 -->
      <g transform="translate(34.696875 105.751219) scale(0.1 -0.1)">
       <defs>
        <path id="DejaVuSans-38" d="M 2034 2216 
Q 1584 2216 1326 1975 
Q 1069 1734 1069 1313 
Q 1069 891 1326 650 
Q 1584 409 2034 409 
Q 2484 409 2743 651 
Q 3003 894 3003 1313 
Q 3003 1734 2745 1975 
Q 2488 2216 2034 2216 
z
M 1403 2484 
Q 997 2584 770 2862 
Q 544 3141 544 3541 
Q 544 4100 942 4425 
Q 1341 4750 2034 4750 
Q 2731 4750 3128 4425 
Q 3525 4100 3525 3541 
Q 3525 3141 3298 2862 
Q 3072 2584 2669 2484 
Q 3125 2378 3379 2068 
Q 3634 1759 3634 1313 
Q 3634 634 3220 271 
Q 2806 -91 2034 -91 
Q 1263 -91 848 271 
Q 434 634 434 1313 
Q 434 1759 690 2068 
Q 947 2378 1403 2484 
z
M 1172 3481 
Q 1172 3119 1398 2916 
Q 1625 2713 2034 2713 
Q 2441 2713 2670 2916 
Q 2900 3119 2900 3481 
Q 2900 3844 2670 4047 
Q 2441 4250 2034 4250 
Q 1625 4250 1398 4047 
Q 1172 3844 1172 3481 
z
" transform="scale(0.015625)"/>
       </defs>
       <use xlink:href="#DejaVuSans-30"/>
       <use xlink:href="#DejaVuSans-2e" x="63.623047"/>
       <use xlink:href="#DejaVuSans-38" x="95.410156"/>
      </g>
     </g>
    </g>
    <g id="ytick_6">
     <g id="line2d_11">
      <g>
       <use xlink:href="#m27c8b8982a" x="57.6" y="53.568" style="stroke: #000000; stroke-width: 0.8"/>
      </g>
     </g>
     <g id="text_11">
      <!-- 1.0 -->
      <g transform="translate(34.696875 57.367219) scale(0.1 -0.1)">
       <use xlink:href="#DejaVuSans-31"/>
       <use xlink:href="#DejaVuSans-2e" x="63.623047"/>
       <use xlink:href="#DejaVuSans-30" x="95.410156"/>
      </g>
     </g>
    </g>
   </g>
   <g id="line2d_12">
    <path d="M 73.832727 295.488 
L 89.246796 295.488 
L 89.315303 168.017405 
L 89.315303 168.017405 
L 89.38381 168.017405 
L 89.452317 166.418312 
L 89.452317 166.418312 
L 92.32961 166.418312 
L 92.32961 166.18987 
L 94.658847 166.18987 
L 94.658847 165.961428 
L 96.508535 165.961428 
L 96.508535 165.732986 
L 97.193605 165.732986 
L 97.193605 165.504544 
L 98.015689 165.504544 
L 98.015689 165.276102 
L 98.769265 165.276102 
L 98.837772 164.362334 
L 98.837772 164.362334 
L 99.454335 164.362334 
L 99.454335 163.448567 
L 99.454335 163.448567 
L 101.098503 163.448567 
L 101.098503 163.220125 
L 101.304023 163.220125 
L 101.304023 162.763241 
L 101.304023 162.763241 
L 101.441037 162.763241 
L 101.441037 162.534799 
L 101.715065 162.534799 
L 101.783572 162.077915 
L 103.085205 162.077915 
L 103.085205 161.849473 
L 103.633261 161.849473 
L 103.633261 161.621031 
L 104.866386 161.621031 
L 104.866386 161.392589 
L 105.071907 161.392589 
L 105.140414 160.478822 
L 105.140414 160.478822 
L 106.236526 160.478822 
L 106.236526 160.25038 
L 107.812186 160.25038 
L 107.812186 160.021938 
L 108.223228 160.021938 
L 108.223228 159.793496 
L 109.250832 159.793496 
L 109.250832 159.565054 
L 109.661874 159.565054 
L 109.661874 159.336612 
L 109.798888 159.336612 
L 109.798888 159.10817 
L 110.346944 159.10817 
L 110.346944 158.651286 
L 110.346944 158.651286 
L 110.552465 158.651286 
L 110.552465 158.422844 
L 110.689479 158.422844 
L 110.757986 157.737518 
L 110.757986 157.737518 
L 110.826493 157.737518 
L 110.826493 157.509076 
L 111.717083 157.509076 
L 111.717083 157.280635 
L 113.018716 157.280635 
L 113.018716 157.052193 
L 113.15573 157.052193 
L 113.15573 156.138425 
L 113.15573 156.138425 
L 113.635279 156.138425 
L 113.635279 155.909983 
L 113.772293 155.909983 
L 113.772293 155.681541 
L 114.457362 155.681541 
L 114.457362 155.224657 
L 114.457362 155.224657 
L 115.690488 155.224657 
L 115.690488 154.996215 
L 117.129134 154.996215 
L 117.129134 154.767773 
L 117.814204 154.767773 
L 117.814204 154.539331 
L 119.93792 154.539331 
L 119.93792 154.31089 
L 120.965525 154.31089 
L 120.965525 154.082448 
L 121.582088 154.082448 
L 121.650594 153.16868 
L 121.993129 153.16868 
L 121.993129 152.254912 
L 121.993129 152.254912 
L 122.19865 152.254912 
L 122.267157 151.341144 
L 122.335664 151.341144 
L 122.335664 151.112703 
L 122.678199 151.112703 
L 122.678199 150.198935 
L 122.678199 150.198935 
L 123.363269 150.198935 
L 123.363269 149.285167 
L 123.363269 149.285167 
L 123.56879 149.285167 
L 123.56879 148.371399 
L 123.56879 148.371399 
L 123.774311 148.371399 
L 123.774311 148.142958 
L 124.253859 148.142958 
L 124.253859 147.914516 
L 124.527887 147.914516 
L 124.527887 147.686074 
L 125.007436 147.686074 
L 125.007436 146.772306 
L 125.007436 146.772306 
L 126.377576 146.772306 
L 126.377576 146.543864 
L 126.651604 146.543864 
L 126.651604 146.315422 
L 126.994138 146.315422 
L 126.994138 146.08698 
L 128.77532 146.08698 
L 128.77532 145.630096 
L 128.77532 145.630096 
L 128.980841 145.630096 
L 128.980841 145.401654 
L 129.802924 145.401654 
L 129.802924 144.944771 
L 129.802924 144.944771 
L 130.213966 144.944771 
L 130.213966 144.716329 
L 130.693515 144.716329 
L 130.762022 143.802561 
L 130.762022 143.802561 
L 130.830529 143.802561 
L 130.830529 143.574119 
L 131.584106 143.574119 
L 131.584106 143.345677 
L 132.337682 143.345677 
L 132.337682 142.431909 
L 132.337682 142.431909 
L 133.365287 142.431909 
L 133.365287 142.203467 
L 136.105566 142.203467 
L 136.105566 141.746584 
L 136.105566 141.746584 
L 136.585115 141.746584 
L 136.585115 141.518142 
L 137.201677 141.518142 
L 137.201677 141.2897 
L 138.229282 141.2897 
L 138.229282 140.832816 
L 138.229282 140.832816 
L 140.421505 140.832816 
L 140.421505 140.375932 
L 140.421505 140.375932 
L 140.627026 140.375932 
L 140.627026 140.14749 
L 141.517617 140.14749 
L 141.586124 139.690606 
L 141.654631 139.690606 
L 141.654631 139.00528 
L 141.654631 139.00528 
L 142.134179 139.00528 
L 142.134179 138.776839 
L 142.819249 138.776839 
L 142.819249 138.548397 
L 143.161784 138.548397 
L 143.161784 138.319955 
L 144.531923 138.319955 
L 144.531923 138.091513 
L 145.833556 138.091513 
L 145.902063 137.634629 
L 145.97057 137.634629 
L 145.97057 137.406187 
L 146.244598 137.406187 
L 146.313105 136.492419 
L 146.313105 136.492419 
L 146.792654 136.492419 
L 146.792654 136.263977 
L 147.066682 136.263977 
L 147.066682 136.035535 
L 147.614737 136.035535 
L 147.614737 135.807093 
L 148.505328 135.807093 
L 148.505328 135.578652 
L 150.012481 135.578652 
L 150.012481 135.35021 
L 150.286509 135.35021 
L 150.286509 135.121768 
L 150.423523 135.121768 
L 150.423523 134.893326 
L 154.807969 134.893326 
L 154.876476 134.208 
L 154.876476 134.208 
L 155.01349 134.208 
L 155.081997 133.294232 
L 155.219011 133.294232 
L 155.219011 132.608907 
L 155.219011 132.608907 
L 155.356025 132.608907 
L 155.424532 131.695139 
L 155.424532 131.695139 
L 155.493039 131.695139 
L 155.493039 131.466697 
L 156.109602 131.466697 
L 156.178109 131.009813 
L 156.246616 131.009813 
L 156.315123 130.552929 
L 156.38363 130.552929 
L 156.38363 129.867603 
L 156.38363 129.867603 
L 156.589151 129.867603 
L 156.589151 129.639161 
L 157.137207 129.639161 
L 157.205714 129.182278 
L 157.685262 129.182278 
L 157.685262 128.953836 
L 157.890783 128.953836 
L 157.95929 128.040068 
L 158.781374 128.040068 
L 158.849881 127.583184 
L 159.260923 127.583184 
L 159.260923 127.354742 
L 159.603458 127.354742 
L 159.671965 126.897858 
L 159.877485 126.897858 
L 159.945992 125.070323 
L 159.945992 125.070323 
L 160.151513 125.070323 
L 160.151513 124.841881 
L 160.90509 124.841881 
L 160.90509 124.613439 
L 161.110611 124.613439 
L 161.110611 124.384997 
L 161.932695 124.384997 
L 161.932695 123.928113 
L 161.932695 123.928113 
L 162.206723 123.928113 
L 162.206723 123.699671 
L 162.960299 123.699671 
L 163.028806 123.242788 
L 163.097313 123.242788 
L 163.097313 123.014346 
L 163.919397 123.014346 
L 163.919397 122.785904 
L 164.124918 122.785904 
L 164.124918 122.557462 
L 164.330439 122.557462 
L 164.398946 121.872136 
L 167.68728 121.872136 
L 167.68728 121.643694 
L 168.098322 121.643694 
L 168.098322 121.415252 
L 168.235336 121.415252 
L 168.303843 120.501484 
L 168.303843 120.501484 
L 168.440857 120.501484 
L 168.440857 120.044601 
L 168.440857 120.044601 
L 168.851899 120.044601 
L 168.851899 119.816159 
L 169.05742 119.816159 
L 169.05742 119.587717 
L 171.044122 119.587717 
L 171.112629 119.130833 
L 171.31815 119.130833 
L 171.386657 118.445507 
L 171.386657 118.445507 
L 171.455164 118.445507 
L 171.455164 118.217065 
L 172.00322 118.217065 
L 172.00322 117.988623 
L 172.208741 117.988623 
L 172.208741 117.760181 
L 172.756796 117.760181 
L 172.825303 116.617972 
L 172.825303 116.617972 
L 174.880513 116.617972 
L 174.880513 116.38953 
L 175.017527 116.38953 
L 175.017527 116.161088 
L 175.291554 116.161088 
L 175.291554 115.932646 
L 177.004229 115.932646 
L 177.004229 115.704204 
L 177.141243 115.704204 
L 177.20975 115.24732 
L 178.168847 115.24732 
L 178.168847 115.018878 
L 179.059438 115.018878 
L 179.127945 114.561994 
L 179.744508 114.561994 
L 179.744508 114.333552 
L 180.15555 114.333552 
L 180.224056 113.876669 
L 180.292563 113.876669 
L 180.292563 113.648227 
L 180.909126 113.648227 
L 180.909126 113.419785 
L 181.936731 113.419785 
L 182.005238 112.962901 
L 183.512391 112.962901 
L 183.512391 112.734459 
L 183.854926 112.734459 
L 183.854926 112.506017 
L 184.128954 112.506017 
L 184.128954 112.277575 
L 184.471489 112.277575 
L 184.471489 112.049133 
L 184.882531 112.049133 
L 184.951038 110.906924 
L 184.951038 110.906924 
L 185.019545 110.906924 
L 185.088052 110.45004 
L 185.225066 110.45004 
L 185.225066 110.221598 
L 185.910135 110.221598 
L 185.910135 109.764714 
L 185.910135 109.764714 
L 186.321177 109.764714 
L 186.321177 109.536272 
L 187.143261 109.536272 
L 187.143261 109.30783 
L 187.965344 109.30783 
L 187.965344 109.079388 
L 189.061456 109.079388 
L 189.129963 108.622504 
L 189.266977 108.622504 
L 189.266977 108.394062 
L 189.403991 108.394062 
L 189.472498 107.480295 
L 189.678019 107.480295 
L 189.746526 105.881201 
L 189.746526 105.881201 
L 190.226075 105.881201 
L 190.226075 105.652759 
L 190.363088 105.652759 
L 190.363088 105.424317 
L 190.568609 105.424317 
L 190.568609 104.51055 
L 190.568609 104.51055 
L 190.77413 104.51055 
L 190.77413 103.825224 
L 190.77413 103.825224 
L 190.911144 103.825224 
L 190.979651 102.911456 
L 190.979651 102.911456 
L 191.048158 102.911456 
L 191.048158 102.683014 
L 191.185172 102.683014 
L 191.185172 102.454572 
L 191.390693 102.454572 
L 191.390693 102.22613 
L 191.596214 102.22613 
L 191.664721 101.540805 
L 191.733228 101.540805 
L 191.733228 101.312363 
L 192.007256 101.312363 
L 192.075763 100.627037 
L 192.349791 100.627037 
L 192.349791 100.398595 
L 192.623819 100.398595 
L 192.623819 100.170153 
L 192.760833 100.170153 
L 192.82934 99.484827 
L 192.966353 99.484827 
L 193.03486 99.027943 
L 193.240381 99.027943 
L 193.240381 98.799501 
L 193.445902 98.799501 
L 193.445902 98.342618 
L 193.445902 98.342618 
L 193.71993 98.342618 
L 193.71993 98.114176 
L 193.856944 98.114176 
L 193.925451 97.657292 
L 194.199479 97.657292 
L 194.199479 97.42885 
L 194.405 97.42885 
L 194.405 97.200408 
L 194.542014 97.200408 
L 194.542014 96.971966 
L 194.884549 96.971966 
L 194.884549 96.515082 
L 194.884549 96.515082 
L 195.158577 96.515082 
L 195.158577 96.28664 
L 195.706632 96.28664 
L 195.706632 96.058198 
L 197.624828 96.058198 
L 197.624828 95.829756 
L 198.24139 95.829756 
L 198.24139 95.601314 
L 198.378404 95.601314 
L 198.378404 95.372873 
L 199.131981 95.372873 
L 199.131981 95.144431 
L 199.268995 95.144431 
L 199.337502 94.230663 
L 199.337502 94.230663 
L 200.2966 94.230663 
L 200.2966 94.002221 
L 200.433614 94.002221 
L 200.433614 93.773779 
L 200.707641 93.773779 
L 200.707641 93.545337 
L 202.488823 93.545337 
L 202.488823 93.316895 
L 205.366116 93.316895 
L 205.366116 93.088453 
L 205.50313 93.088453 
L 205.50313 92.403127 
L 205.50313 92.403127 
L 206.256706 92.403127 
L 206.256706 91.946244 
L 206.256706 91.946244 
L 207.07879 91.946244 
L 207.147297 91.48936 
L 208.517436 91.48936 
L 208.517436 91.260918 
L 210.572646 91.260918 
L 210.572646 91.032476 
L 211.120701 91.032476 
L 211.120701 90.804034 
L 211.326222 90.804034 
L 211.326222 89.890266 
L 211.326222 89.890266 
L 211.668757 89.890266 
L 211.668757 89.661824 
L 213.244418 89.661824 
L 213.244418 89.433382 
L 213.929487 89.433382 
L 213.929487 88.748057 
L 213.929487 88.748057 
L 215.436641 88.748057 
L 215.436641 88.519615 
L 216.395738 88.519615 
L 216.464245 88.062731 
L 216.532752 88.062731 
L 216.532752 87.377405 
L 216.532752 87.377405 
L 219.06751 87.377405 
L 219.06751 86.692079 
L 219.06751 86.692079 
L 219.684073 86.692079 
L 219.684073 86.463637 
L 220.917198 86.463637 
L 220.917198 85.778312 
L 220.917198 85.778312 
L 221.259733 85.778312 
L 221.32824 84.864544 
L 221.396747 84.864544 
L 221.465254 83.722334 
L 221.533761 83.722334 
L 221.533761 83.26545 
L 221.533761 83.26545 
L 222.424352 83.26545 
L 222.424352 83.037008 
L 222.629873 83.037008 
L 222.69838 81.894799 
L 222.69838 81.894799 
L 222.835394 81.894799 
L 222.903901 81.209473 
L 222.903901 81.209473 
L 223.38345 81.209473 
L 223.451956 80.295705 
L 223.58897 80.295705 
L 223.657477 79.61038 
L 223.657477 79.61038 
L 223.725984 79.61038 
L 223.794491 79.153496 
L 224.205533 79.153496 
L 224.205533 78.925054 
L 224.342547 78.925054 
L 224.342547 78.011286 
L 224.342547 78.011286 
L 224.616575 78.011286 
L 224.616575 77.782844 
L 224.753589 77.782844 
L 224.753589 76.412193 
L 224.753589 76.412193 
L 224.890603 76.412193 
L 224.95911 75.269983 
L 224.95911 75.269983 
L 225.233138 75.269983 
L 225.301645 74.356215 
L 225.301645 74.356215 
L 225.438659 74.356215 
L 225.438659 74.127773 
L 225.781194 74.127773 
L 225.849701 73.214006 
L 225.849701 73.214006 
L 225.918208 73.214006 
L 225.986714 72.52868 
L 226.055221 72.52868 
L 226.123728 71.38647 
L 226.192235 71.38647 
L 226.192235 70.701144 
L 226.192235 70.701144 
L 226.397756 70.701144 
L 226.466263 70.015819 
L 226.466263 70.015819 
L 226.671784 70.015819 
L 226.740291 69.558935 
L 226.945812 69.558935 
L 226.945812 68.645167 
L 226.945812 68.645167 
L 227.151333 68.645167 
L 227.151333 67.731399 
L 227.151333 67.731399 
L 227.288347 67.731399 
L 227.288347 67.274516 
L 227.288347 67.274516 
L 227.425361 67.274516 
L 227.493868 66.132306 
L 227.493868 66.132306 
L 227.630882 66.132306 
L 227.630882 65.675422 
L 227.630882 65.675422 
L 227.836403 65.675422 
L 227.836403 65.44698 
L 228.110431 65.44698 
L 228.178938 64.761654 
L 228.7955 64.761654 
L 228.7955 64.076329 
L 228.7955 64.076329 
L 230.987724 64.076329 
L 230.987724 63.619445 
L 230.987724 63.619445 
L 231.398765 63.619445 
L 231.398765 63.391003 
L 237.084844 63.391003 
L 237.084844 63.162561 
L 238.866025 63.162561 
L 238.866025 62.934119 
L 239.482588 62.934119 
L 239.482588 62.705677 
L 244.072555 62.705677 
L 244.072555 62.020351 
L 244.072555 62.020351 
L 245.78523 62.020351 
L 245.78523 61.791909 
L 255.787248 61.791909 
L 255.787248 61.563467 
L 257.020373 61.563467 
L 257.08888 60.878142 
L 257.499922 60.878142 
L 257.499922 60.192816 
L 257.499922 60.192816 
L 257.705443 60.192816 
L 257.705443 59.735932 
L 257.705443 59.735932 
L 257.842457 59.735932 
L 257.910964 59.050606 
L 258.801555 59.050606 
L 258.801555 58.822164 
L 259.281103 58.822164 
L 259.34961 57.451513 
L 259.34961 57.451513 
L 259.829159 57.451513 
L 259.897666 56.766187 
L 260.171694 56.766187 
L 260.171694 56.537745 
L 260.514229 56.537745 
L 260.514229 56.309303 
L 261.062285 56.309303 
L 261.062285 55.623977 
L 261.062285 55.623977 
L 261.336313 55.623977 
L 261.336313 54.938652 
L 261.336313 54.938652 
L 261.952875 54.938652 
L 262.021382 54.253326 
L 262.158396 54.253326 
L 262.158396 53.568 
L 262.158396 53.568 
" clip-path="url(#p83e8920cdd)" style="fill: none; stroke: #1f77b4; stroke-width: 1.5; stroke-linecap: square"/>
   </g>
   <g id="line2d_13">
    <path d="M 73.832727 295.488 
L 89.246796 295.488 
L 89.315303 177.803513 
L 89.315303 177.803513 
L 89.38381 177.803513 
L 89.452317 176.399721 
L 89.726345 176.399721 
L 89.726345 176.165756 
L 89.863359 176.165756 
L 89.863359 175.931791 
L 90.479922 175.931791 
L 90.479922 175.463861 
L 90.479922 175.463861 
L 92.261103 175.463861 
L 92.261103 175.229896 
L 92.398117 175.229896 
L 92.398117 174.294035 
L 92.398117 174.294035 
L 96.303014 174.294035 
L 96.371521 173.826104 
L 96.508535 173.826104 
L 96.508535 173.592139 
L 96.714056 173.592139 
L 96.714056 173.358174 
L 97.467633 173.358174 
L 97.53614 172.890244 
L 98.632252 172.890244 
L 98.632252 172.656279 
L 100.139405 172.656279 
L 100.139405 172.422313 
L 100.276419 172.422313 
L 100.276419 172.188348 
L 100.892982 172.188348 
L 100.892982 171.954383 
L 101.441037 171.954383 
L 101.509544 171.486453 
L 101.989093 171.486453 
L 101.989093 171.252487 
L 102.263121 171.252487 
L 102.263121 171.018522 
L 102.537149 171.018522 
L 102.605656 169.848696 
L 102.605656 169.848696 
L 103.085205 169.848696 
L 103.085205 169.614731 
L 104.660865 169.614731 
L 104.729372 168.67887 
L 104.729372 168.67887 
L 104.797879 168.67887 
L 104.866386 168.21094 
L 105.619963 168.21094 
L 105.68847 167.041114 
L 105.68847 167.041114 
L 105.756977 167.041114 
L 105.756977 166.573184 
L 105.756977 166.573184 
L 106.168019 166.573184 
L 106.168019 166.339219 
L 106.373539 166.339219 
L 106.373539 166.105253 
L 106.647567 166.105253 
L 106.647567 165.871288 
L 107.743679 165.871288 
L 107.743679 165.637323 
L 108.428749 165.637323 
L 108.428749 164.701462 
L 108.428749 164.701462 
L 108.771284 164.701462 
L 108.771284 164.467497 
L 110.346944 164.467497 
L 110.346944 163.999567 
L 110.346944 163.999567 
L 110.552465 163.999567 
L 110.620972 163.531636 
L 110.689479 163.531636 
L 110.689479 163.297671 
L 110.826493 163.297671 
L 110.826493 163.063706 
L 111.100521 163.063706 
L 111.100521 162.829741 
L 111.854097 162.829741 
L 111.854097 162.595776 
L 112.196632 162.595776 
L 112.196632 162.36181 
L 112.539167 162.36181 
L 112.539167 162.127845 
L 113.087223 162.127845 
L 113.087223 161.89388 
L 113.977814 161.89388 
L 113.977814 161.659915 
L 114.388855 161.659915 
L 114.388855 160.958019 
L 114.388855 160.958019 
L 115.347953 160.958019 
L 115.347953 160.724054 
L 116.238544 160.724054 
L 116.238544 160.490089 
L 116.444065 160.490089 
L 116.444065 160.256124 
L 116.581078 160.256124 
L 116.581078 160.022159 
L 117.129134 160.022159 
L 117.129134 159.788193 
L 118.704795 159.788193 
L 118.704795 158.852333 
L 118.704795 158.852333 
L 119.184343 158.852333 
L 119.184343 158.384402 
L 119.184343 158.384402 
L 119.458371 158.384402 
L 119.458371 157.448542 
L 119.458371 157.448542 
L 119.93792 157.448542 
L 119.93792 157.214576 
L 120.965525 157.214576 
L 120.965525 156.980611 
L 121.239553 156.980611 
L 121.30806 155.10889 
L 121.30806 155.10889 
L 121.650594 155.10889 
L 121.650594 154.173029 
L 121.650594 154.173029 
L 121.787608 154.173029 
L 121.787608 153.705099 
L 121.787608 153.705099 
L 122.335664 153.705099 
L 122.335664 153.471133 
L 123.226255 153.471133 
L 123.226255 152.535273 
L 123.226255 152.535273 
L 123.842818 152.535273 
L 123.911325 152.067342 
L 124.185352 152.067342 
L 124.185352 150.897516 
L 124.185352 150.897516 
L 124.870422 150.897516 
L 124.870422 150.663551 
L 126.035041 150.663551 
L 126.035041 150.429586 
L 126.583097 150.429586 
L 126.583097 150.195621 
L 126.857124 150.195621 
L 126.857124 149.961656 
L 127.131152 149.961656 
L 127.131152 149.727691 
L 127.542194 149.727691 
L 127.542194 149.493725 
L 127.816222 149.493725 
L 127.816222 149.25976 
L 128.09025 149.25976 
L 128.09025 149.025795 
L 128.569799 149.025795 
L 128.569799 148.79183 
L 129.254868 148.79183 
L 129.254868 148.557865 
L 131.995147 148.557865 
L 131.995147 148.089934 
L 131.995147 148.089934 
L 132.406189 148.089934 
L 132.406189 147.855969 
L 133.091259 147.855969 
L 133.091259 147.622004 
L 134.050357 147.622004 
L 134.050357 147.388039 
L 135.351989 147.388039 
L 135.351989 147.154074 
L 135.763031 147.154074 
L 135.763031 146.920108 
L 136.105566 146.920108 
L 136.105566 146.452178 
L 136.105566 146.452178 
L 136.585115 146.452178 
L 136.585115 146.218213 
L 137.681226 146.218213 
L 137.749733 145.282352 
L 137.749733 145.282352 
L 138.571817 145.282352 
L 138.571817 145.048387 
L 138.914352 145.048387 
L 138.982859 144.580456 
L 139.530914 144.580456 
L 139.599421 143.410631 
L 139.599421 143.410631 
L 140.010463 143.410631 
L 140.010463 143.176665 
L 140.215984 143.176665 
L 140.284491 142.708735 
L 140.490012 142.708735 
L 140.558519 142.006839 
L 140.558519 142.006839 
L 140.627026 142.006839 
L 140.627026 141.304944 
L 140.627026 141.304944 
L 141.517617 141.304944 
L 141.517617 141.070979 
L 141.723138 141.070979 
L 141.723138 140.837014 
L 141.860152 140.837014 
L 141.860152 140.603048 
L 142.613728 140.603048 
L 142.682235 139.433222 
L 143.298798 139.433222 
L 143.298798 139.199257 
L 143.435812 139.199257 
L 143.435812 138.965292 
L 143.778347 138.965292 
L 143.778347 138.731327 
L 144.531923 138.731327 
L 144.531923 138.497362 
L 144.942965 138.497362 
L 144.942965 138.263397 
L 145.148486 138.263397 
L 145.148486 138.029431 
L 146.518626 138.029431 
L 146.518626 137.795466 
L 146.998175 137.795466 
L 146.998175 137.561501 
L 148.505328 137.561501 
L 148.505328 137.327536 
L 149.395919 137.327536 
L 149.395919 136.62564 
L 149.395919 136.62564 
L 149.669946 136.62564 
L 149.738453 135.689779 
L 151.86217 135.689779 
L 151.86217 135.455814 
L 152.75276 135.455814 
L 152.75276 135.221849 
L 153.026788 135.221849 
L 153.026788 134.987884 
L 153.163802 134.987884 
L 153.163802 134.753919 
L 153.369323 134.753919 
L 153.369323 134.519954 
L 154.1229 134.519954 
L 154.191407 133.584093 
L 154.533942 133.584093 
L 154.533942 133.350128 
L 155.01349 133.350128 
L 155.01349 133.116162 
L 155.150504 133.116162 
L 155.150504 132.882197 
L 155.287518 132.882197 
L 155.287518 131.946337 
L 155.287518 131.946337 
L 155.424532 131.946337 
L 155.424532 131.478406 
L 155.424532 131.478406 
L 155.561546 131.478406 
L 155.630053 130.074615 
L 155.630053 130.074615 
L 155.904081 130.074615 
L 155.972588 129.37272 
L 156.041095 129.37272 
L 156.109602 128.436859 
L 156.315123 128.436859 
L 156.38363 127.968928 
L 156.452137 127.968928 
L 156.452137 127.500998 
L 156.452137 127.500998 
L 156.589151 127.500998 
L 156.589151 127.267033 
L 157.0687 127.267033 
L 157.137207 126.565137 
L 157.685262 126.565137 
L 157.753769 126.097207 
L 157.95929 126.097207 
L 157.95929 125.863242 
L 158.301825 125.863242 
L 158.370332 125.395311 
L 158.575853 125.395311 
L 158.575853 125.161346 
L 158.781374 125.161346 
L 158.781374 124.927381 
L 159.260923 124.927381 
L 159.260923 124.693416 
L 159.466444 124.693416 
L 159.466444 124.459451 
L 160.288527 124.459451 
L 160.357034 123.52359 
L 160.357034 123.52359 
L 161.042104 123.52359 
L 161.042104 123.289625 
L 161.932695 123.289625 
L 162.001202 122.821694 
L 163.028806 122.821694 
L 163.097313 122.353764 
L 163.16582 122.353764 
L 163.16582 122.119799 
L 165.084015 122.119799 
L 165.084015 121.885834 
L 165.358043 121.885834 
L 165.358043 121.651868 
L 165.632071 121.651868 
L 165.632071 121.417903 
L 166.11162 121.417903 
L 166.11162 121.183938 
L 166.933704 121.183938 
L 166.933704 120.949973 
L 168.303843 120.949973 
L 168.303843 120.716008 
L 168.988913 120.716008 
L 168.988913 120.482043 
L 169.331448 120.482043 
L 169.331448 120.248077 
L 169.605476 120.248077 
L 169.605476 120.014112 
L 169.74249 120.014112 
L 169.74249 119.780147 
L 171.455164 119.780147 
L 171.455164 119.546182 
L 171.729192 119.546182 
L 171.729192 119.312217 
L 172.277248 119.312217 
L 172.345755 118.142391 
L 172.345755 118.142391 
L 172.482769 118.142391 
L 172.482769 117.908426 
L 172.756796 117.908426 
L 172.825303 117.440495 
L 173.373359 117.440495 
L 173.373359 117.20653 
L 173.715894 117.20653 
L 173.784401 116.270669 
L 173.784401 116.270669 
L 173.989922 116.270669 
L 173.989922 115.802739 
L 173.989922 115.802739 
L 174.469471 115.802739 
L 174.469471 115.568774 
L 175.428568 115.568774 
L 175.497075 115.100843 
L 175.634089 115.100843 
L 175.634089 114.866878 
L 175.976624 114.866878 
L 175.976624 114.164983 
L 175.976624 114.164983 
L 176.182145 114.164983 
L 176.250652 113.697052 
L 176.730201 113.697052 
L 176.730201 113.463087 
L 177.141243 113.463087 
L 177.141243 113.229122 
L 177.346764 113.229122 
L 177.415271 112.059296 
L 178.10034 112.059296 
L 178.10034 111.825331 
L 178.374368 111.825331 
L 178.374368 111.591366 
L 178.648396 111.591366 
L 178.716903 111.123435 
L 179.059438 111.123435 
L 179.059438 110.88947 
L 180.15555 110.88947 
L 180.15555 110.655505 
L 180.703605 110.655505 
L 180.703605 110.42154 
L 180.840619 110.42154 
L 180.840619 110.187574 
L 181.525689 110.187574 
L 181.594196 109.719644 
L 182.347773 109.719644 
L 182.347773 109.485679 
L 182.553294 109.485679 
L 182.553294 109.251714 
L 183.169856 109.251714 
L 183.169856 109.017749 
L 184.265968 109.017749 
L 184.265968 108.783783 
L 184.67701 108.783783 
L 184.67701 108.315853 
L 184.67701 108.315853 
L 185.362079 108.315853 
L 185.362079 107.847923 
L 185.362079 107.847923 
L 185.5676 107.847923 
L 185.5676 107.613957 
L 185.978642 107.613957 
L 185.978642 107.379992 
L 186.800726 107.379992 
L 186.800726 106.912062 
L 186.800726 106.912062 
L 187.211768 106.912062 
L 187.211768 106.678097 
L 187.348782 106.678097 
L 187.417289 106.210166 
L 187.896837 106.210166 
L 187.965344 105.742236 
L 188.307879 105.742236 
L 188.376386 105.274306 
L 188.5134 105.274306 
L 188.5134 105.04034 
L 189.19847 105.04034 
L 189.19847 104.806375 
L 189.403991 104.806375 
L 189.403991 104.57241 
L 189.678019 104.57241 
L 189.678019 104.338445 
L 190.431595 104.338445 
L 190.500102 103.870515 
L 190.842637 103.870515 
L 190.911144 102.466723 
L 190.911144 102.466723 
L 191.938749 102.466723 
L 191.938749 102.232758 
L 192.349791 102.232758 
L 192.418298 101.764828 
L 192.555312 101.764828 
L 192.555312 101.530863 
L 192.760833 101.530863 
L 192.760833 100.828967 
L 192.760833 100.828967 
L 193.582916 100.828967 
L 193.582916 100.595002 
L 193.993958 100.595002 
L 193.993958 100.361037 
L 194.267986 100.361037 
L 194.267986 100.127072 
L 194.473507 100.127072 
L 194.473507 99.893106 
L 194.747535 99.893106 
L 194.747535 98.957246 
L 194.747535 98.957246 
L 195.364098 98.957246 
L 195.364098 98.72328 
L 196.254688 98.72328 
L 196.323195 97.78742 
L 196.871251 97.78742 
L 196.871251 97.319489 
L 196.871251 97.319489 
L 198.720939 97.319489 
L 198.720939 97.085524 
L 199.268995 97.085524 
L 199.268995 96.851559 
L 199.748544 96.851559 
L 199.748544 96.617594 
L 200.159586 96.617594 
L 200.159586 96.383629 
L 200.502121 96.383629 
L 200.502121 96.149663 
L 201.666739 96.149663 
L 201.666739 95.915698 
L 202.214795 95.915698 
L 202.214795 95.681733 
L 203.790455 95.681733 
L 203.790455 95.447768 
L 205.160595 95.447768 
L 205.160595 95.213803 
L 206.667748 95.213803 
L 206.667748 94.979838 
L 206.873269 94.979838 
L 206.873269 93.810012 
L 206.873269 93.810012 
L 207.421325 93.810012 
L 207.421325 93.576046 
L 207.900874 93.576046 
L 207.900874 93.342081 
L 208.243408 93.342081 
L 208.243408 93.108116 
L 209.408027 93.108116 
L 209.408027 92.874151 
L 209.819069 92.874151 
L 209.887576 92.406221 
L 210.093097 92.406221 
L 210.093097 92.172255 
L 211.942785 92.172255 
L 211.942785 91.93829 
L 212.28532 91.93829 
L 212.28532 91.704325 
L 212.833376 91.704325 
L 212.833376 91.47036 
L 213.449938 91.47036 
L 213.449938 91.236395 
L 215.162613 91.236395 
L 215.162613 91.002429 
L 216.943794 91.002429 
L 216.943794 90.300534 
L 216.943794 90.300534 
L 217.834385 90.300534 
L 217.834385 90.066569 
L 218.108413 90.066569 
L 218.108413 89.832603 
L 219.478552 89.832603 
L 219.547059 89.364673 
L 219.684073 89.364673 
L 219.75258 88.896743 
L 220.163622 88.896743 
L 220.163622 88.194847 
L 220.163622 88.194847 
L 220.643171 88.194847 
L 220.643171 87.960882 
L 220.985705 87.960882 
L 220.985705 87.258986 
L 220.985705 87.258986 
L 221.191226 87.258986 
L 221.259733 86.557091 
L 221.807789 86.557091 
L 221.807789 86.323126 
L 222.081817 86.323126 
L 222.150324 85.855195 
L 222.766887 85.855195 
L 222.835394 85.387265 
L 223.725984 85.387265 
L 223.725984 85.1533 
L 223.862998 85.1533 
L 223.931505 84.685369 
L 224.000012 84.685369 
L 224.068519 84.217439 
L 224.205533 84.217439 
L 224.27404 83.515544 
L 224.342547 83.515544 
L 224.342547 83.281578 
L 224.479561 83.281578 
L 224.479561 83.047613 
L 224.616575 83.047613 
L 224.616575 82.345718 
L 224.616575 82.345718 
L 225.370152 82.345718 
L 225.438659 81.409857 
L 225.64418 81.409857 
L 225.64418 81.175892 
L 225.781194 81.175892 
L 225.781194 80.941926 
L 225.986714 80.941926 
L 226.055221 80.240031 
L 226.055221 80.240031 
L 226.329249 80.240031 
L 226.329249 80.006066 
L 226.53477 80.006066 
L 226.603277 79.538135 
L 226.945812 79.538135 
L 226.945812 79.30417 
L 227.082826 79.30417 
L 227.151333 78.83624 
L 227.288347 78.83624 
L 227.288347 78.602275 
L 227.90491 78.602275 
L 227.973417 78.134344 
L 228.932514 78.134344 
L 228.932514 77.900379 
L 229.686091 77.900379 
L 229.754598 77.198484 
L 229.754598 77.198484 
L 231.124737 77.198484 
L 231.124737 76.964518 
L 232.357863 76.964518 
L 232.357863 76.730553 
L 232.494877 76.730553 
L 232.494877 76.496588 
L 233.522482 76.496588 
L 233.522482 76.262623 
L 239.071546 76.262623 
L 239.071546 75.560727 
L 239.071546 75.560727 
L 239.619602 75.560727 
L 239.619602 75.326762 
L 241.126756 75.326762 
L 241.126756 75.092797 
L 243.867034 75.092797 
L 243.867034 74.858832 
L 245.511202 74.858832 
L 245.511202 74.624867 
L 246.470299 74.624867 
L 246.470299 74.390901 
L 251.88235 74.390901 
L 251.88235 74.156936 
L 254.691136 74.156936 
L 254.691136 73.455041 
L 254.691136 73.455041 
L 255.787248 73.455041 
L 255.787248 72.753145 
L 255.787248 72.753145 
L 256.266797 72.753145 
L 256.335304 72.05125 
L 256.951866 72.05125 
L 256.951866 71.349354 
L 256.951866 71.349354 
L 257.157387 71.349354 
L 257.157387 70.647458 
L 257.157387 70.647458 
L 257.431415 70.647458 
L 257.499922 69.243667 
L 257.499922 69.243667 
L 257.636936 69.243667 
L 257.636936 68.541772 
L 257.636936 68.541772 
L 257.842457 68.541772 
L 257.910964 67.839876 
L 257.910964 67.839876 
L 257.979471 67.839876 
L 258.047978 66.904015 
L 258.047978 66.904015 
L 258.322006 66.904015 
L 258.322006 66.20212 
L 258.322006 66.20212 
L 258.801555 66.20212 
L 258.870062 65.73419 
L 259.281103 65.73419 
L 259.281103 65.500224 
L 259.418117 65.500224 
L 259.486624 63.394538 
L 259.486624 63.394538 
L 259.966173 63.394538 
L 259.966173 63.160573 
L 260.308708 63.160573 
L 260.377215 61.990747 
L 260.377215 61.990747 
L 260.514229 61.990747 
L 260.514229 61.756781 
L 260.788257 61.756781 
L 260.856764 61.054886 
L 260.993778 61.054886 
L 260.993778 60.35299 
L 260.993778 60.35299 
L 261.678847 60.35299 
L 261.747354 59.651095 
L 262.089889 59.651095 
L 262.089889 58.949199 
L 262.089889 58.949199 
L 262.432424 58.949199 
L 262.500931 58.481269 
L 262.706452 58.481269 
L 262.774959 58.013338 
L 360.465903 58.013338 
L 360.465903 57.779373 
L 361.150972 57.779373 
L 361.150972 57.545408 
L 362.932154 57.545408 
L 362.932154 57.311443 
L 366.288995 57.311443 
L 366.288995 57.077478 
L 379.716362 57.077478 
L 379.716362 56.843513 
L 395.198938 56.843513 
L 395.267445 55.907652 
L 395.815501 55.907652 
L 395.815501 55.673687 
L 396.226543 55.673687 
L 396.226543 55.439721 
L 396.843105 55.439721 
L 396.843105 54.737826 
L 396.843105 54.737826 
L 397.18564 54.737826 
L 397.18564 54.269896 
L 397.18564 54.269896 
L 398.487273 54.269896 
L 398.487273 53.568 
L 398.487273 53.568 
" clip-path="url(#p83e8920cdd)" style="fill: none; stroke: #ff7f0e; stroke-width: 1.5; stroke-linecap: square"/>
   </g>
   <g id="patch_3">
    <path d="M 57.6 307.584 
L 57.6 41.472 
" style="fill: none; stroke: #000000; stroke-width: 0.8; stroke-linejoin: miter; stroke-linecap: square"/>
   </g>
   <g id="patch_4">
    <path d="M 414.72 307.584 
L 414.72 41.472 
" style="fill: none; stroke: #000000; stroke-width: 0.8; stroke-linejoin: miter; stroke-linecap: square"/>
   </g>
   <g id="patch_5">
    <path d="M 57.6 307.584 
L 414.72 307.584 
" style="fill: none; stroke: #000000; stroke-width: 0.8; stroke-linejoin: miter; stroke-linecap: square"/>
   </g>
   <g id="patch_6">
    <path d="M 57.6 41.472 
L 414.72 41.472 
" style="fill: none; stroke: #000000; stroke-width: 0.8; stroke-linejoin: miter; stroke-linecap: square"/>
   </g>
   <g id="text_12">
    <!-- S5 S6 -->
    <g transform="translate(219 35.472) scale(0.12 -0.12)">
     <defs>
      <path id="DejaVuSans-53" d="M 3425 4513 
L 3425 3897 
Q 3066 4069 2747 4153 
Q 2428 4238 2131 4238 
Q 1616 4238 1336 4038 
Q 1056 3838 1056 3469 
Q 1056 3159 1242 3001 
Q 1428 2844 1947 2747 
L 2328 2669 
Q 3034 2534 3370 2195 
Q 3706 1856 3706 1288 
Q 3706 609 3251 259 
Q 2797 -91 1919 -91 
Q 1588 -91 1214 -16 
Q 841 59 441 206 
L 441 856 
Q 825 641 1194 531 
Q 1563 422 1919 422 
Q 2459 422 2753 634 
Q 3047 847 3047 1241 
Q 3047 1584 2836 1778 
Q 2625 1972 2144 2069 
L 1759 2144 
Q 1053 2284 737 2584 
Q 422 2884 422 3419 
Q 422 4038 858 4394 
Q 1294 4750 2059 4750 
Q 2388 4750 2728 4690 
Q 3069 4631 3425 4513 
z
" transform="scale(0.015625)"/>
      <path id="DejaVuSans-35" d="M 691 4666 
L 3169 4666 
L 3169 4134 
L 1269 4134 
L 1269 2991 
Q 1406 3038 1543 3061 
Q 1681 3084 1819 3084 
Q 2600 3084 3056 2656 
Q 3513 2228 3513 1497 
Q 3513 744 3044 326 
Q 2575 -91 1722 -91 
Q 1428 -91 1123 -41 
Q 819 9 494 109 
L 494 744 
Q 775 591 1075 516 
Q 1375 441 1709 441 
Q 2250 441 2565 725 
Q 2881 1009 2881 1497 
Q 2881 1984 2565 2268 
Q 2250 2553 1709 2553 
Q 1456 2553 1204 2497 
Q 953 2441 691 2322 
L 691 4666 
z
" transform="scale(0.015625)"/>
      <path id="DejaVuSans-20" transform="scale(0.015625)"/>
     </defs>
     <use xlink:href="#DejaVuSans-53"/>
     <use xlink:href="#DejaVuSans-35" x="63.476562"/>
     <use xlink:href="#DejaVuSans-20" x="127.099609"/>
     <use xlink:href="#DejaVuSans-53" x="158.886719"/>
     <use xlink:href="#DejaVuSans-36" x="222.363281"/>
    </g>
   </g>
   <g id="legend_1">
    <g id="patch_7">
     <path d="M 88.712813 304.584 
L 410.52 304.584 
Q 411.72 304.584 411.72 303.384 
L 411.72 286.37025 
Q 411.72 285.17025 410.52 285.17025 
L 88.712813 285.17025 
Q 87.512813 285.17025 87.512813 286.37025 
L 87.512813 303.384 
Q 87.512813 304.584 88.712813 304.584 
z
" style="fill: #ffffff; opacity: 0.8; stroke: #cccccc; stroke-linejoin: miter"/>
    </g>
    <g id="line2d_14">
     <path d="M 89.912813 290.029312 
L 95.912813 290.029312 
L 101.912813 290.029312 
" style="fill: none; stroke: #1f77b4; stroke-width: 1.5; stroke-linecap: square"/>
    </g>
    <g id="text_13">
     <!-- Execution time between S5 S6 (xx1xx1xx1xx0yyy45xx0yyy45xx1xx0yyy45xx1xx1) -->
     <g transform="translate(106.712813 292.129312) scale(0.06 -0.06)">
      <defs>
       <path id="DejaVuSans-45" d="M 628 4666 
L 3578 4666 
L 3578 4134 
L 1259 4134 
L 1259 2753 
L 3481 2753 
L 3481 2222 
L 1259 2222 
L 1259 531 
L 3634 531 
L 3634 0 
L 628 0 
L 628 4666 
z
" transform="scale(0.015625)"/>
       <path id="DejaVuSans-78" d="M 3513 3500 
L 2247 1797 
L 3578 0 
L 2900 0 
L 1881 1375 
L 863 0 
L 184 0 
L 1544 1831 
L 300 3500 
L 978 3500 
L 1906 2253 
L 2834 3500 
L 3513 3500 
z
" transform="scale(0.015625)"/>
       <path id="DejaVuSans-65" d="M 3597 1894 
L 3597 1613 
L 953 1613 
Q 991 1019 1311 708 
Q 1631 397 2203 397 
Q 2534 397 2845 478 
Q 3156 559 3463 722 
L 3463 178 
Q 3153 47 2828 -22 
Q 2503 -91 2169 -91 
Q 1331 -91 842 396 
Q 353 884 353 1716 
Q 353 2575 817 3079 
Q 1281 3584 2069 3584 
Q 2775 3584 3186 3129 
Q 3597 2675 3597 1894 
z
M 3022 2063 
Q 3016 2534 2758 2815 
Q 2500 3097 2075 3097 
Q 1594 3097 1305 2825 
Q 1016 2553 972 2059 
L 3022 2063 
z
" transform="scale(0.015625)"/>
       <path id="DejaVuSans-63" d="M 3122 3366 
L 3122 2828 
Q 2878 2963 2633 3030 
Q 2388 3097 2138 3097 
Q 1578 3097 1268 2742 
Q 959 2388 959 1747 
Q 959 1106 1268 751 
Q 1578 397 2138 397 
Q 2388 397 2633 464 
Q 2878 531 3122 666 
L 3122 134 
Q 2881 22 2623 -34 
Q 2366 -91 2075 -91 
Q 1284 -91 818 406 
Q 353 903 353 1747 
Q 353 2603 823 3093 
Q 1294 3584 2113 3584 
Q 2378 3584 2631 3529 
Q 2884 3475 3122 3366 
z
" transform="scale(0.015625)"/>
       <path id="DejaVuSans-75" d="M 544 1381 
L 544 3500 
L 1119 3500 
L 1119 1403 
Q 1119 906 1312 657 
Q 1506 409 1894 409 
Q 2359 409 2629 706 
Q 2900 1003 2900 1516 
L 2900 3500 
L 3475 3500 
L 3475 0 
L 2900 0 
L 2900 538 
Q 2691 219 2414 64 
Q 2138 -91 1772 -91 
Q 1169 -91 856 284 
Q 544 659 544 1381 
z
M 1991 3584 
L 1991 3584 
z
" transform="scale(0.015625)"/>
       <path id="DejaVuSans-74" d="M 1172 4494 
L 1172 3500 
L 2356 3500 
L 2356 3053 
L 1172 3053 
L 1172 1153 
Q 1172 725 1289 603 
Q 1406 481 1766 481 
L 2356 481 
L 2356 0 
L 1766 0 
Q 1100 0 847 248 
Q 594 497 594 1153 
L 594 3053 
L 172 3053 
L 172 3500 
L 594 3500 
L 594 4494 
L 1172 4494 
z
" transform="scale(0.015625)"/>
       <path id="DejaVuSans-69" d="M 603 3500 
L 1178 3500 
L 1178 0 
L 603 0 
L 603 3500 
z
M 603 4863 
L 1178 4863 
L 1178 4134 
L 603 4134 
L 603 4863 
z
" transform="scale(0.015625)"/>
       <path id="DejaVuSans-6f" d="M 1959 3097 
Q 1497 3097 1228 2736 
Q 959 2375 959 1747 
Q 959 1119 1226 758 
Q 1494 397 1959 397 
Q 2419 397 2687 759 
Q 2956 1122 2956 1747 
Q 2956 2369 2687 2733 
Q 2419 3097 1959 3097 
z
M 1959 3584 
Q 2709 3584 3137 3096 
Q 3566 2609 3566 1747 
Q 3566 888 3137 398 
Q 2709 -91 1959 -91 
Q 1206 -91 779 398 
Q 353 888 353 1747 
Q 353 2609 779 3096 
Q 1206 3584 1959 3584 
z
" transform="scale(0.015625)"/>
       <path id="DejaVuSans-6e" d="M 3513 2113 
L 3513 0 
L 2938 0 
L 2938 2094 
Q 2938 2591 2744 2837 
Q 2550 3084 2163 3084 
Q 1697 3084 1428 2787 
Q 1159 2491 1159 1978 
L 1159 0 
L 581 0 
L 581 3500 
L 1159 3500 
L 1159 2956 
Q 1366 3272 1645 3428 
Q 1925 3584 2291 3584 
Q 2894 3584 3203 3211 
Q 3513 2838 3513 2113 
z
" transform="scale(0.015625)"/>
       <path id="DejaVuSans-6d" d="M 3328 2828 
Q 3544 3216 3844 3400 
Q 4144 3584 4550 3584 
Q 5097 3584 5394 3201 
Q 5691 2819 5691 2113 
L 5691 0 
L 5113 0 
L 5113 2094 
Q 5113 2597 4934 2840 
Q 4756 3084 4391 3084 
Q 3944 3084 3684 2787 
Q 3425 2491 3425 1978 
L 3425 0 
L 2847 0 
L 2847 2094 
Q 2847 2600 2669 2842 
Q 2491 3084 2119 3084 
Q 1678 3084 1418 2786 
Q 1159 2488 1159 1978 
L 1159 0 
L 581 0 
L 581 3500 
L 1159 3500 
L 1159 2956 
Q 1356 3278 1631 3431 
Q 1906 3584 2284 3584 
Q 2666 3584 2933 3390 
Q 3200 3197 3328 2828 
z
" transform="scale(0.015625)"/>
       <path id="DejaVuSans-62" d="M 3116 1747 
Q 3116 2381 2855 2742 
Q 2594 3103 2138 3103 
Q 1681 3103 1420 2742 
Q 1159 2381 1159 1747 
Q 1159 1113 1420 752 
Q 1681 391 2138 391 
Q 2594 391 2855 752 
Q 3116 1113 3116 1747 
z
M 1159 2969 
Q 1341 3281 1617 3432 
Q 1894 3584 2278 3584 
Q 2916 3584 3314 3078 
Q 3713 2572 3713 1747 
Q 3713 922 3314 415 
Q 2916 -91 2278 -91 
Q 1894 -91 1617 61 
Q 1341 213 1159 525 
L 1159 0 
L 581 0 
L 581 4863 
L 1159 4863 
L 1159 2969 
z
" transform="scale(0.015625)"/>
       <path id="DejaVuSans-77" d="M 269 3500 
L 844 3500 
L 1563 769 
L 2278 3500 
L 2956 3500 
L 3675 769 
L 4391 3500 
L 4966 3500 
L 4050 0 
L 3372 0 
L 2619 2869 
L 1863 0 
L 1184 0 
L 269 3500 
z
" transform="scale(0.015625)"/>
       <path id="DejaVuSans-28" d="M 1984 4856 
Q 1566 4138 1362 3434 
Q 1159 2731 1159 2009 
Q 1159 1288 1364 580 
Q 1569 -128 1984 -844 
L 1484 -844 
Q 1016 -109 783 600 
Q 550 1309 550 2009 
Q 550 2706 781 3412 
Q 1013 4119 1484 4856 
L 1984 4856 
z
" transform="scale(0.015625)"/>
       <path id="DejaVuSans-79" d="M 2059 -325 
Q 1816 -950 1584 -1140 
Q 1353 -1331 966 -1331 
L 506 -1331 
L 506 -850 
L 844 -850 
Q 1081 -850 1212 -737 
Q 1344 -625 1503 -206 
L 1606 56 
L 191 3500 
L 800 3500 
L 1894 763 
L 2988 3500 
L 3597 3500 
L 2059 -325 
z
" transform="scale(0.015625)"/>
       <path id="DejaVuSans-29" d="M 513 4856 
L 1013 4856 
Q 1481 4119 1714 3412 
Q 1947 2706 1947 2009 
Q 1947 1309 1714 600 
Q 1481 -109 1013 -844 
L 513 -844 
Q 928 -128 1133 580 
Q 1338 1288 1338 2009 
Q 1338 2731 1133 3434 
Q 928 4138 513 4856 
z
" transform="scale(0.015625)"/>
      </defs>
      <use xlink:href="#DejaVuSans-45"/>
      <use xlink:href="#DejaVuSans-78" x="63.183594"/>
      <use xlink:href="#DejaVuSans-65" x="119.238281"/>
      <use xlink:href="#DejaVuSans-63" x="180.761719"/>
      <use xlink:href="#DejaVuSans-75" x="235.742188"/>
      <use xlink:href="#DejaVuSans-74" x="299.121094"/>
      <use xlink:href="#DejaVuSans-69" x="338.330078"/>
      <use xlink:href="#DejaVuSans-6f" x="366.113281"/>
      <use xlink:href="#DejaVuSans-6e" x="427.294922"/>
      <use xlink:href="#DejaVuSans-20" x="490.673828"/>
      <use xlink:href="#DejaVuSans-74" x="522.460938"/>
      <use xlink:href="#DejaVuSans-69" x="561.669922"/>
      <use xlink:href="#DejaVuSans-6d" x="589.453125"/>
      <use xlink:href="#DejaVuSans-65" x="686.865234"/>
      <use xlink:href="#DejaVuSans-20" x="748.388672"/>
      <use xlink:href="#DejaVuSans-62" x="780.175781"/>
      <use xlink:href="#DejaVuSans-65" x="843.652344"/>
      <use xlink:href="#DejaVuSans-74" x="905.175781"/>
      <use xlink:href="#DejaVuSans-77" x="944.384766"/>
      <use xlink:href="#DejaVuSans-65" x="1026.171875"/>
      <use xlink:href="#DejaVuSans-65" x="1087.695312"/>
      <use xlink:href="#DejaVuSans-6e" x="1149.21875"/>
      <use xlink:href="#DejaVuSans-20" x="1212.597656"/>
      <use xlink:href="#DejaVuSans-53" x="1244.384766"/>
      <use xlink:href="#DejaVuSans-35" x="1307.861328"/>
      <use xlink:href="#DejaVuSans-20" x="1371.484375"/>
      <use xlink:href="#DejaVuSans-53" x="1403.271484"/>
      <use xlink:href="#DejaVuSans-36" x="1466.748047"/>
      <use xlink:href="#DejaVuSans-20" x="1530.371094"/>
      <use xlink:href="#DejaVuSans-28" x="1562.158203"/>
      <use xlink:href="#DejaVuSans-78" x="1601.171875"/>
      <use xlink:href="#DejaVuSans-78" x="1660.351562"/>
      <use xlink:href="#DejaVuSans-31" x="1719.53125"/>
      <use xlink:href="#DejaVuSans-78" x="1783.154297"/>
      <use xlink:href="#DejaVuSans-78" x="1842.333984"/>
      <use xlink:href="#DejaVuSans-31" x="1901.513672"/>
      <use xlink:href="#DejaVuSans-78" x="1965.136719"/>
      <use xlink:href="#DejaVuSans-78" x="2024.316406"/>
      <use xlink:href="#DejaVuSans-31" x="2083.496094"/>
      <use xlink:href="#DejaVuSans-78" x="2147.119141"/>
      <use xlink:href="#DejaVuSans-78" x="2206.298828"/>
      <use xlink:href="#DejaVuSans-30" x="2265.478516"/>
      <use xlink:href="#DejaVuSans-79" x="2329.101562"/>
      <use xlink:href="#DejaVuSans-79" x="2388.28125"/>
      <use xlink:href="#DejaVuSans-79" x="2447.460938"/>
      <use xlink:href="#DejaVuSans-34" x="2506.640625"/>
      <use xlink:href="#DejaVuSans-35" x="2570.263672"/>
      <use xlink:href="#DejaVuSans-78" x="2633.886719"/>
      <use xlink:href="#DejaVuSans-78" x="2693.066406"/>
      <use xlink:href="#DejaVuSans-30" x="2752.246094"/>
      <use xlink:href="#DejaVuSans-79" x="2815.869141"/>
      <use xlink:href="#DejaVuSans-79" x="2875.048828"/>
      <use xlink:href="#DejaVuSans-79" x="2934.228516"/>
      <use xlink:href="#DejaVuSans-34" x="2993.408203"/>
      <use xlink:href="#DejaVuSans-35" x="3057.03125"/>
      <use xlink:href="#DejaVuSans-78" x="3120.654297"/>
      <use xlink:href="#DejaVuSans-78" x="3179.833984"/>
      <use xlink:href="#DejaVuSans-31" x="3239.013672"/>
      <use xlink:href="#DejaVuSans-78" x="3302.636719"/>
      <use xlink:href="#DejaVuSans-78" x="3361.816406"/>
      <use xlink:href="#DejaVuSans-30" x="3420.996094"/>
      <use xlink:href="#DejaVuSans-79" x="3484.619141"/>
      <use xlink:href="#DejaVuSans-79" x="3543.798828"/>
      <use xlink:href="#DejaVuSans-79" x="3602.978516"/>
      <use xlink:href="#DejaVuSans-34" x="3662.158203"/>
      <use xlink:href="#DejaVuSans-35" x="3725.78125"/>
      <use xlink:href="#DejaVuSans-78" x="3789.404297"/>
      <use xlink:href="#DejaVuSans-78" x="3848.583984"/>
      <use xlink:href="#DejaVuSans-31" x="3907.763672"/>
      <use xlink:href="#DejaVuSans-78" x="3971.386719"/>
      <use xlink:href="#DejaVuSans-78" x="4030.566406"/>
      <use xlink:href="#DejaVuSans-31" x="4089.746094"/>
      <use xlink:href="#DejaVuSans-29" x="4153.369141"/>
     </g>
    </g>
    <g id="line2d_15">
     <path d="M 89.912813 298.836187 
L 95.912813 298.836187 
L 101.912813 298.836187 
" style="fill: none; stroke: #ff7f0e; stroke-width: 1.5; stroke-linecap: square"/>
    </g>
    <g id="text_14">
     <!-- Execution time between S5 S6 (xx1xx2xx0yyy45xx0yyy45xx0yyy3xx1xx0yyy45xx0yyy45xx0yyy45) -->
     <g transform="translate(106.712813 300.936187) scale(0.06 -0.06)">
      <use xlink:href="#DejaVuSans-45"/>
      <use xlink:href="#DejaVuSans-78" x="63.183594"/>
      <use xlink:href="#DejaVuSans-65" x="119.238281"/>
      <use xlink:href="#DejaVuSans-63" x="180.761719"/>
      <use xlink:href="#DejaVuSans-75" x="235.742188"/>
      <use xlink:href="#DejaVuSans-74" x="299.121094"/>
      <use xlink:href="#DejaVuSans-69" x="338.330078"/>
      <use xlink:href="#DejaVuSans-6f" x="366.113281"/>
      <use xlink:href="#DejaVuSans-6e" x="427.294922"/>
      <use xlink:href="#DejaVuSans-20" x="490.673828"/>
      <use xlink:href="#DejaVuSans-74" x="522.460938"/>
      <use xlink:href="#DejaVuSans-69" x="561.669922"/>
      <use xlink:href="#DejaVuSans-6d" x="589.453125"/>
      <use xlink:href="#DejaVuSans-65" x="686.865234"/>
      <use xlink:href="#DejaVuSans-20" x="748.388672"/>
      <use xlink:href="#DejaVuSans-62" x="780.175781"/>
      <use xlink:href="#DejaVuSans-65" x="843.652344"/>
      <use xlink:href="#DejaVuSans-74" x="905.175781"/>
      <use xlink:href="#DejaVuSans-77" x="944.384766"/>
      <use xlink:href="#DejaVuSans-65" x="1026.171875"/>
      <use xlink:href="#DejaVuSans-65" x="1087.695312"/>
      <use xlink:href="#DejaVuSans-6e" x="1149.21875"/>
      <use xlink:href="#DejaVuSans-20" x="1212.597656"/>
      <use xlink:href="#DejaVuSans-53" x="1244.384766"/>
      <use xlink:href="#DejaVuSans-35" x="1307.861328"/>
      <use xlink:href="#DejaVuSans-20" x="1371.484375"/>
      <use xlink:href="#DejaVuSans-53" x="1403.271484"/>
      <use xlink:href="#DejaVuSans-36" x="1466.748047"/>
      <use xlink:href="#DejaVuSans-20" x="1530.371094"/>
      <use xlink:href="#DejaVuSans-28" x="1562.158203"/>
      <use xlink:href="#DejaVuSans-78" x="1601.171875"/>
      <use xlink:href="#DejaVuSans-78" x="1660.351562"/>
      <use xlink:href="#DejaVuSans-31" x="1719.53125"/>
      <use xlink:href="#DejaVuSans-78" x="1783.154297"/>
      <use xlink:href="#DejaVuSans-78" x="1842.333984"/>
      <use xlink:href="#DejaVuSans-32" x="1901.513672"/>
      <use xlink:href="#DejaVuSans-78" x="1965.136719"/>
      <use xlink:href="#DejaVuSans-78" x="2024.316406"/>
      <use xlink:href="#DejaVuSans-30" x="2083.496094"/>
      <use xlink:href="#DejaVuSans-79" x="2147.119141"/>
      <use xlink:href="#DejaVuSans-79" x="2206.298828"/>
      <use xlink:href="#DejaVuSans-79" x="2265.478516"/>
      <use xlink:href="#DejaVuSans-34" x="2324.658203"/>
      <use xlink:href="#DejaVuSans-35" x="2388.28125"/>
      <use xlink:href="#DejaVuSans-78" x="2451.904297"/>
      <use xlink:href="#DejaVuSans-78" x="2511.083984"/>
      <use xlink:href="#DejaVuSans-30" x="2570.263672"/>
      <use xlink:href="#DejaVuSans-79" x="2633.886719"/>
      <use xlink:href="#DejaVuSans-79" x="2693.066406"/>
      <use xlink:href="#DejaVuSans-79" x="2752.246094"/>
      <use xlink:href="#DejaVuSans-34" x="2811.425781"/>
      <use xlink:href="#DejaVuSans-35" x="2875.048828"/>
      <use xlink:href="#DejaVuSans-78" x="2938.671875"/>
      <use xlink:href="#DejaVuSans-78" x="2997.851562"/>
      <use xlink:href="#DejaVuSans-30" x="3057.03125"/>
      <use xlink:href="#DejaVuSans-79" x="3120.654297"/>
      <use xlink:href="#DejaVuSans-79" x="3179.833984"/>
      <use xlink:href="#DejaVuSans-79" x="3239.013672"/>
      <use xlink:href="#DejaVuSans-33" x="3298.193359"/>
      <use xlink:href="#DejaVuSans-78" x="3361.816406"/>
      <use xlink:href="#DejaVuSans-78" x="3420.996094"/>
      <use xlink:href="#DejaVuSans-31" x="3480.175781"/>
      <use xlink:href="#DejaVuSans-78" x="3543.798828"/>
      <use xlink:href="#DejaVuSans-78" x="3602.978516"/>
      <use xlink:href="#DejaVuSans-30" x="3662.158203"/>
      <use xlink:href="#DejaVuSans-79" x="3725.78125"/>
      <use xlink:href="#DejaVuSans-79" x="3784.960938"/>
      <use xlink:href="#DejaVuSans-79" x="3844.140625"/>
      <use xlink:href="#DejaVuSans-34" x="3903.320312"/>
      <use xlink:href="#DejaVuSans-35" x="3966.943359"/>
      <use xlink:href="#DejaVuSans-78" x="4030.566406"/>
      <use xlink:href="#DejaVuSans-78" x="4089.746094"/>
      <use xlink:href="#DejaVuSans-30" x="4148.925781"/>
      <use xlink:href="#DejaVuSans-79" x="4212.548828"/>
      <use xlink:href="#DejaVuSans-79" x="4271.728516"/>
      <use xlink:href="#DejaVuSans-79" x="4330.908203"/>
      <use xlink:href="#DejaVuSans-34" x="4390.087891"/>
      <use xlink:href="#DejaVuSans-35" x="4453.710938"/>
      <use xlink:href="#DejaVuSans-78" x="4517.333984"/>
      <use xlink:href="#DejaVuSans-78" x="4576.513672"/>
      <use xlink:href="#DejaVuSans-30" x="4635.693359"/>
      <use xlink:href="#DejaVuSans-79" x="4699.316406"/>
      <use xlink:href="#DejaVuSans-79" x="4758.496094"/>
      <use xlink:href="#DejaVuSans-79" x="4817.675781"/>
      <use xlink:href="#DejaVuSans-34" x="4876.855469"/>
      <use xlink:href="#DejaVuSans-35" x="4940.478516"/>
      <use xlink:href="#DejaVuSans-29" x="5004.101562"/>
     </g>
    </g>
   </g>
  </g>
 </g>
 <defs>
  <clipPath id="p83e8920cdd">
   <rect x="57.6" y="41.472" width="357.12" height="266.112"/>
  </clipPath>
 </defs>
</svg>
