<?xml version="1.0" encoding="utf-8" standalone="no"?>
<!DOCTYPE svg PUBLIC "-//W3C//DTD SVG 1.1//EN"
  "http://www.w3.org/Graphics/SVG/1.1/DTD/svg11.dtd">
<svg xmlns:xlink="http://www.w3.org/1999/xlink" width="460.8pt" height="345.6pt" viewBox="0 0 460.8 345.6" xmlns="http://www.w3.org/2000/svg" version="1.1">
 <metadata>
  <rdf:RDF xmlns:dc="http://purl.org/dc/elements/1.1/" xmlns:cc="http://creativecommons.org/ns#" xmlns:rdf="http://www.w3.org/1999/02/22-rdf-syntax-ns#">
   <cc:Work>
    <dc:type rdf:resource="http://purl.org/dc/dcmitype/StillImage"/>
    <dc:date>2024-03-08T14:34:56.108424</dc:date>
    <dc:format>image/svg+xml</dc:format>
    <dc:creator>
     <cc:Agent>
      <dc:title>Matplotlib v3.8.2, https://matplotlib.org/</dc:title>
     </cc:Agent>
    </dc:creator>
   </cc:Work>
  </rdf:RDF>
 </metadata>
 <defs>
  <style type="text/css">*{stroke-linejoin: round; stroke-linecap: butt}</style>
 </defs>
 <g id="figure_1">
  <g id="patch_1">
   <path d="M 0 345.6 
L 460.8 345.6 
L 460.8 0 
L 0 0 
z
" style="fill: #ffffff"/>
  </g>
  <g id="axes_1">
   <g id="patch_2">
    <path d="M 57.6 307.584 
L 414.72 307.584 
L 414.72 41.472 
L 57.6 41.472 
z
" style="fill: #ffffff"/>
   </g>
   <g id="matplotlib.axis_1">
    <g id="xtick_1">
     <g id="line2d_1">
      <defs>
       <path id="m84324d5397" d="M 0 0 
L 0 3.5 
" style="stroke: #000000; stroke-width: 0.8"/>
      </defs>
      <g>
       <use xlink:href="#m84324d5397" x="73.832727" y="307.584" style="stroke: #000000; stroke-width: 0.8"/>
      </g>
     </g>
     <g id="text_1">
      <!-- 0 -->
      <g transform="translate(70.651477 322.182437) scale(0.1 -0.1)">
       <defs>
        <path id="DejaVuSans-30" d="M 2034 4250 
Q 1547 4250 1301 3770 
Q 1056 3291 1056 2328 
Q 1056 1369 1301 889 
Q 1547 409 2034 409 
Q 2525 409 2770 889 
Q 3016 1369 3016 2328 
Q 3016 3291 2770 3770 
Q 2525 4250 2034 4250 
z
M 2034 4750 
Q 2819 4750 3233 4129 
Q 3647 3509 3647 2328 
Q 3647 1150 3233 529 
Q 2819 -91 2034 -91 
Q 1250 -91 836 529 
Q 422 1150 422 2328 
Q 422 3509 836 4129 
Q 1250 4750 2034 4750 
z
" transform="scale(0.015625)"/>
       </defs>
       <use xlink:href="#DejaVuSans-30"/>
      </g>
     </g>
    </g>
    <g id="xtick_2">
     <g id="line2d_2">
      <g>
       <use xlink:href="#m84324d5397" x="132.882299" y="307.584" style="stroke: #000000; stroke-width: 0.8"/>
      </g>
     </g>
     <g id="text_2">
      <!-- 5000 -->
      <g transform="translate(120.157299 322.182437) scale(0.1 -0.1)">
       <defs>
        <path id="DejaVuSans-35" d="M 691 4666 
L 3169 4666 
L 3169 4134 
L 1269 4134 
L 1269 2991 
Q 1406 3038 1543 3061 
Q 1681 3084 1819 3084 
Q 2600 3084 3056 2656 
Q 3513 2228 3513 1497 
Q 3513 744 3044 326 
Q 2575 -91 1722 -91 
Q 1428 -91 1123 -41 
Q 819 9 494 109 
L 494 744 
Q 775 591 1075 516 
Q 1375 441 1709 441 
Q 2250 441 2565 725 
Q 2881 1009 2881 1497 
Q 2881 1984 2565 2268 
Q 2250 2553 1709 2553 
Q 1456 2553 1204 2497 
Q 953 2441 691 2322 
L 691 4666 
z
" transform="scale(0.015625)"/>
       </defs>
       <use xlink:href="#DejaVuSans-35"/>
       <use xlink:href="#DejaVuSans-30" x="63.623047"/>
       <use xlink:href="#DejaVuSans-30" x="127.246094"/>
       <use xlink:href="#DejaVuSans-30" x="190.869141"/>
      </g>
     </g>
    </g>
    <g id="xtick_3">
     <g id="line2d_3">
      <g>
       <use xlink:href="#m84324d5397" x="191.931871" y="307.584" style="stroke: #000000; stroke-width: 0.8"/>
      </g>
     </g>
     <g id="text_3">
      <!-- 10000 -->
      <g transform="translate(176.025621 322.182437) scale(0.1 -0.1)">
       <defs>
        <path id="DejaVuSans-31" d="M 794 531 
L 1825 531 
L 1825 4091 
L 703 3866 
L 703 4441 
L 1819 4666 
L 2450 4666 
L 2450 531 
L 3481 531 
L 3481 0 
L 794 0 
L 794 531 
z
" transform="scale(0.015625)"/>
       </defs>
       <use xlink:href="#DejaVuSans-31"/>
       <use xlink:href="#DejaVuSans-30" x="63.623047"/>
       <use xlink:href="#DejaVuSans-30" x="127.246094"/>
       <use xlink:href="#DejaVuSans-30" x="190.869141"/>
       <use xlink:href="#DejaVuSans-30" x="254.492188"/>
      </g>
     </g>
    </g>
    <g id="xtick_4">
     <g id="line2d_4">
      <g>
       <use xlink:href="#m84324d5397" x="250.981443" y="307.584" style="stroke: #000000; stroke-width: 0.8"/>
      </g>
     </g>
     <g id="text_4">
      <!-- 15000 -->
      <g transform="translate(235.075193 322.182437) scale(0.1 -0.1)">
       <use xlink:href="#DejaVuSans-31"/>
       <use xlink:href="#DejaVuSans-35" x="63.623047"/>
       <use xlink:href="#DejaVuSans-30" x="127.246094"/>
       <use xlink:href="#DejaVuSans-30" x="190.869141"/>
       <use xlink:href="#DejaVuSans-30" x="254.492188"/>
      </g>
     </g>
    </g>
    <g id="xtick_5">
     <g id="line2d_5">
      <g>
       <use xlink:href="#m84324d5397" x="310.031014" y="307.584" style="stroke: #000000; stroke-width: 0.8"/>
      </g>
     </g>
     <g id="text_5">
      <!-- 20000 -->
      <g transform="translate(294.124764 322.182437) scale(0.1 -0.1)">
       <defs>
        <path id="DejaVuSans-32" d="M 1228 531 
L 3431 531 
L 3431 0 
L 469 0 
L 469 531 
Q 828 903 1448 1529 
Q 2069 2156 2228 2338 
Q 2531 2678 2651 2914 
Q 2772 3150 2772 3378 
Q 2772 3750 2511 3984 
Q 2250 4219 1831 4219 
Q 1534 4219 1204 4116 
Q 875 4013 500 3803 
L 500 4441 
Q 881 4594 1212 4672 
Q 1544 4750 1819 4750 
Q 2544 4750 2975 4387 
Q 3406 4025 3406 3419 
Q 3406 3131 3298 2873 
Q 3191 2616 2906 2266 
Q 2828 2175 2409 1742 
Q 1991 1309 1228 531 
z
" transform="scale(0.015625)"/>
       </defs>
       <use xlink:href="#DejaVuSans-32"/>
       <use xlink:href="#DejaVuSans-30" x="63.623047"/>
       <use xlink:href="#DejaVuSans-30" x="127.246094"/>
       <use xlink:href="#DejaVuSans-30" x="190.869141"/>
       <use xlink:href="#DejaVuSans-30" x="254.492188"/>
      </g>
     </g>
    </g>
    <g id="xtick_6">
     <g id="line2d_6">
      <g>
       <use xlink:href="#m84324d5397" x="369.080586" y="307.584" style="stroke: #000000; stroke-width: 0.8"/>
      </g>
     </g>
     <g id="text_6">
      <!-- 25000 -->
      <g transform="translate(353.174336 322.182437) scale(0.1 -0.1)">
       <use xlink:href="#DejaVuSans-32"/>
       <use xlink:href="#DejaVuSans-35" x="63.623047"/>
       <use xlink:href="#DejaVuSans-30" x="127.246094"/>
       <use xlink:href="#DejaVuSans-30" x="190.869141"/>
       <use xlink:href="#DejaVuSans-30" x="254.492188"/>
      </g>
     </g>
    </g>
   </g>
   <g id="matplotlib.axis_2">
    <g id="ytick_1">
     <g id="line2d_7">
      <defs>
       <path id="m675244a204" d="M 0 0 
L -3.5 0 
" style="stroke: #000000; stroke-width: 0.8"/>
      </defs>
      <g>
       <use xlink:href="#m675244a204" x="57.6" y="295.488" style="stroke: #000000; stroke-width: 0.8"/>
      </g>
     </g>
     <g id="text_7">
      <!-- 0.0 -->
      <g transform="translate(34.696875 299.287219) scale(0.1 -0.1)">
       <defs>
        <path id="DejaVuSans-2e" d="M 684 794 
L 1344 794 
L 1344 0 
L 684 0 
L 684 794 
z
" transform="scale(0.015625)"/>
       </defs>
       <use xlink:href="#DejaVuSans-30"/>
       <use xlink:href="#DejaVuSans-2e" x="63.623047"/>
       <use xlink:href="#DejaVuSans-30" x="95.410156"/>
      </g>
     </g>
    </g>
    <g id="ytick_2">
     <g id="line2d_8">
      <g>
       <use xlink:href="#m675244a204" x="57.6" y="247.104" style="stroke: #000000; stroke-width: 0.8"/>
      </g>
     </g>
     <g id="text_8">
      <!-- 0.2 -->
      <g transform="translate(34.696875 250.903219) scale(0.1 -0.1)">
       <use xlink:href="#DejaVuSans-30"/>
       <use xlink:href="#DejaVuSans-2e" x="63.623047"/>
       <use xlink:href="#DejaVuSans-32" x="95.410156"/>
      </g>
     </g>
    </g>
    <g id="ytick_3">
     <g id="line2d_9">
      <g>
       <use xlink:href="#m675244a204" x="57.6" y="198.72" style="stroke: #000000; stroke-width: 0.8"/>
      </g>
     </g>
     <g id="text_9">
      <!-- 0.4 -->
      <g transform="translate(34.696875 202.519219) scale(0.1 -0.1)">
       <defs>
        <path id="DejaVuSans-34" d="M 2419 4116 
L 825 1625 
L 2419 1625 
L 2419 4116 
z
M 2253 4666 
L 3047 4666 
L 3047 1625 
L 3713 1625 
L 3713 1100 
L 3047 1100 
L 3047 0 
L 2419 0 
L 2419 1100 
L 313 1100 
L 313 1709 
L 2253 4666 
z
" transform="scale(0.015625)"/>
       </defs>
       <use xlink:href="#DejaVuSans-30"/>
       <use xlink:href="#DejaVuSans-2e" x="63.623047"/>
       <use xlink:href="#DejaVuSans-34" x="95.410156"/>
      </g>
     </g>
    </g>
    <g id="ytick_4">
     <g id="line2d_10">
      <g>
       <use xlink:href="#m675244a204" x="57.6" y="150.336" style="stroke: #000000; stroke-width: 0.8"/>
      </g>
     </g>
     <g id="text_10">
      <!-- 0.6 -->
      <g transform="translate(34.696875 154.135219) scale(0.1 -0.1)">
       <defs>
        <path id="DejaVuSans-36" d="M 2113 2584 
Q 1688 2584 1439 2293 
Q 1191 2003 1191 1497 
Q 1191 994 1439 701 
Q 1688 409 2113 409 
Q 2538 409 2786 701 
Q 3034 994 3034 1497 
Q 3034 2003 2786 2293 
Q 2538 2584 2113 2584 
z
M 3366 4563 
L 3366 3988 
Q 3128 4100 2886 4159 
Q 2644 4219 2406 4219 
Q 1781 4219 1451 3797 
Q 1122 3375 1075 2522 
Q 1259 2794 1537 2939 
Q 1816 3084 2150 3084 
Q 2853 3084 3261 2657 
Q 3669 2231 3669 1497 
Q 3669 778 3244 343 
Q 2819 -91 2113 -91 
Q 1303 -91 875 529 
Q 447 1150 447 2328 
Q 447 3434 972 4092 
Q 1497 4750 2381 4750 
Q 2619 4750 2861 4703 
Q 3103 4656 3366 4563 
z
" transform="scale(0.015625)"/>
       </defs>
       <use xlink:href="#DejaVuSans-30"/>
       <use xlink:href="#DejaVuSans-2e" x="63.623047"/>
       <use xlink:href="#DejaVuSans-36" x="95.410156"/>
      </g>
     </g>
    </g>
    <g id="ytick_5">
     <g id="line2d_11">
      <g>
       <use xlink:href="#m675244a204" x="57.6" y="101.952" style="stroke: #000000; stroke-width: 0.8"/>
      </g>
     </g>
     <g id="text_11">
      <!-- 0.8 -->
      <g transform="translate(34.696875 105.751219) scale(0.1 -0.1)">
       <defs>
        <path id="DejaVuSans-38" d="M 2034 2216 
Q 1584 2216 1326 1975 
Q 1069 1734 1069 1313 
Q 1069 891 1326 650 
Q 1584 409 2034 409 
Q 2484 409 2743 651 
Q 3003 894 3003 1313 
Q 3003 1734 2745 1975 
Q 2488 2216 2034 2216 
z
M 1403 2484 
Q 997 2584 770 2862 
Q 544 3141 544 3541 
Q 544 4100 942 4425 
Q 1341 4750 2034 4750 
Q 2731 4750 3128 4425 
Q 3525 4100 3525 3541 
Q 3525 3141 3298 2862 
Q 3072 2584 2669 2484 
Q 3125 2378 3379 2068 
Q 3634 1759 3634 1313 
Q 3634 634 3220 271 
Q 2806 -91 2034 -91 
Q 1263 -91 848 271 
Q 434 634 434 1313 
Q 434 1759 690 2068 
Q 947 2378 1403 2484 
z
M 1172 3481 
Q 1172 3119 1398 2916 
Q 1625 2713 2034 2713 
Q 2441 2713 2670 2916 
Q 2900 3119 2900 3481 
Q 2900 3844 2670 4047 
Q 2441 4250 2034 4250 
Q 1625 4250 1398 4047 
Q 1172 3844 1172 3481 
z
" transform="scale(0.015625)"/>
       </defs>
       <use xlink:href="#DejaVuSans-30"/>
       <use xlink:href="#DejaVuSans-2e" x="63.623047"/>
       <use xlink:href="#DejaVuSans-38" x="95.410156"/>
      </g>
     </g>
    </g>
    <g id="ytick_6">
     <g id="line2d_12">
      <g>
       <use xlink:href="#m675244a204" x="57.6" y="53.568" style="stroke: #000000; stroke-width: 0.8"/>
      </g>
     </g>
     <g id="text_12">
      <!-- 1.0 -->
      <g transform="translate(34.696875 57.367219) scale(0.1 -0.1)">
       <use xlink:href="#DejaVuSans-31"/>
       <use xlink:href="#DejaVuSans-2e" x="63.623047"/>
       <use xlink:href="#DejaVuSans-30" x="95.410156"/>
      </g>
     </g>
    </g>
   </g>
   <g id="line2d_13">
    <path d="M 73.832727 295.488 
L 100.405035 295.488 
L 100.405035 175.555989 
L 100.405035 175.555989 
L 100.523134 175.555989 
L 100.523134 168.017405 
L 100.523134 168.017405 
L 100.641233 168.017405 
L 100.641233 166.875195 
L 100.641233 166.875195 
L 100.759332 166.875195 
L 100.759332 166.418312 
L 100.759332 166.418312 
L 105.719496 166.418312 
L 105.719496 166.18987 
L 109.734867 166.18987 
L 109.734867 165.961428 
L 112.923544 165.961428 
L 112.923544 165.732986 
L 114.104535 165.732986 
L 114.104535 165.504544 
L 115.521725 165.504544 
L 115.521725 165.276102 
L 116.820816 165.276102 
L 116.820816 165.04766 
L 116.938915 165.04766 
L 116.938915 164.362334 
L 116.938915 164.362334 
L 118.001807 164.362334 
L 118.001807 163.448567 
L 118.001807 163.448567 
L 120.836186 163.448567 
L 120.836186 163.220125 
L 121.190484 163.220125 
L 121.190484 162.763241 
L 121.190484 162.763241 
L 121.426682 162.763241 
L 121.426682 162.534799 
L 121.899079 162.534799 
L 121.899079 162.306357 
L 122.017178 162.306357 
L 122.017178 162.077915 
L 124.261062 162.077915 
L 124.261062 161.849473 
L 125.205855 161.849473 
L 125.205855 161.621031 
L 127.331639 161.621031 
L 127.331639 161.392589 
L 127.685937 161.392589 
L 127.685937 161.164147 
L 127.804036 161.164147 
L 127.804036 160.478822 
L 127.804036 160.478822 
L 129.693622 160.478822 
L 129.693622 160.25038 
L 132.409902 160.25038 
L 132.409902 160.021938 
L 133.118497 160.021938 
L 133.118497 159.793496 
L 134.889984 159.793496 
L 134.889984 159.565054 
L 135.598579 159.565054 
L 135.598579 159.336612 
L 135.834778 159.336612 
L 135.834778 159.10817 
L 136.779571 159.10817 
L 136.779571 158.651286 
L 136.779571 158.651286 
L 137.133868 158.651286 
L 137.133868 158.422844 
L 137.370066 158.422844 
L 137.370066 158.194402 
L 137.488166 158.194402 
L 137.488166 157.737518 
L 137.488166 157.737518 
L 137.606265 157.737518 
L 137.606265 157.509076 
L 139.141554 157.509076 
L 139.141554 157.280635 
L 141.385437 157.280635 
L 141.385437 157.052193 
L 141.621636 157.052193 
L 141.621636 156.138425 
L 141.621636 156.138425 
L 142.44833 156.138425 
L 142.44833 155.909983 
L 142.684528 155.909983 
L 142.684528 155.681541 
L 143.865519 155.681541 
L 143.865519 155.224657 
L 143.865519 155.224657 
L 145.991304 155.224657 
L 145.991304 154.996215 
L 148.471386 154.996215 
L 148.471386 154.767773 
L 149.652377 154.767773 
L 149.652377 154.539331 
L 153.313451 154.539331 
L 153.313451 154.31089 
L 155.084938 154.31089 
L 155.084938 154.082448 
L 156.14783 154.082448 
L 156.14783 153.397122 
L 156.14783 153.397122 
L 156.265929 153.397122 
L 156.265929 153.16868 
L 156.856425 153.16868 
L 156.856425 152.254912 
L 156.856425 152.254912 
L 157.210723 152.254912 
L 157.210723 151.569586 
L 157.210723 151.569586 
L 157.328822 151.569586 
L 157.328822 151.341144 
L 157.446921 151.341144 
L 157.446921 151.112703 
L 158.037417 151.112703 
L 158.037417 150.198935 
L 158.037417 150.198935 
L 159.218408 150.198935 
L 159.218408 149.285167 
L 159.218408 149.285167 
L 159.572705 149.285167 
L 159.572705 148.371399 
L 159.572705 148.371399 
L 159.927003 148.371399 
L 159.927003 148.142958 
L 160.753697 148.142958 
L 160.753697 147.914516 
L 161.226093 147.914516 
L 161.226093 147.686074 
L 162.052787 147.686074 
L 162.052787 146.772306 
L 162.052787 146.772306 
L 164.41477 146.772306 
L 164.41477 146.543864 
L 164.887167 146.543864 
L 164.887167 146.315422 
L 165.477663 146.315422 
L 165.477663 146.08698 
L 168.54824 146.08698 
L 168.54824 145.630096 
L 168.54824 145.630096 
L 168.902538 145.630096 
L 168.902538 145.401654 
L 170.319728 145.401654 
L 170.319728 144.944771 
L 170.319728 144.944771 
L 171.028322 144.944771 
L 171.028322 144.716329 
L 171.855016 144.716329 
L 171.855016 144.487887 
L 171.973116 144.487887 
L 171.973116 143.802561 
L 171.973116 143.802561 
L 172.091215 143.802561 
L 172.091215 143.574119 
L 173.390305 143.574119 
L 173.390305 143.345677 
L 174.689396 143.345677 
L 174.689396 142.431909 
L 174.689396 142.431909 
L 176.460883 142.431909 
L 176.460883 142.203467 
L 181.184849 142.203467 
L 181.184849 141.746584 
L 181.184849 141.746584 
L 182.011543 141.746584 
L 182.011543 141.518142 
L 183.074435 141.518142 
L 183.074435 141.2897 
L 184.845922 141.2897 
L 184.845922 140.832816 
L 184.845922 140.832816 
L 188.625095 140.832816 
L 188.625095 140.375932 
L 188.625095 140.375932 
L 188.979392 140.375932 
L 188.979392 140.14749 
L 190.514681 140.14749 
L 190.514681 139.919048 
L 190.63278 139.919048 
L 190.63278 139.690606 
L 190.750879 139.690606 
L 190.750879 139.00528 
L 190.750879 139.00528 
L 191.577573 139.00528 
L 191.577573 138.776839 
L 192.758565 138.776839 
L 192.758565 138.548397 
L 193.34906 138.548397 
L 193.34906 138.319955 
L 195.711043 138.319955 
L 195.711043 138.091513 
L 197.954927 138.091513 
L 197.954927 137.863071 
L 198.073026 137.863071 
L 198.073026 137.634629 
L 198.191125 137.634629 
L 198.191125 137.406187 
L 198.663522 137.406187 
L 198.663522 137.177745 
L 198.781621 137.177745 
L 198.781621 136.492419 
L 198.781621 136.492419 
L 199.608315 136.492419 
L 199.608315 136.263977 
L 200.080712 136.263977 
L 200.080712 136.035535 
L 201.025505 136.035535 
L 201.025505 135.807093 
L 202.560794 135.807093 
L 202.560794 135.578652 
L 205.158975 135.578652 
L 205.158975 135.35021 
L 205.631371 135.35021 
L 205.631371 135.121768 
L 205.86757 135.121768 
L 205.86757 134.893326 
L 213.425915 134.893326 
L 213.425915 134.664884 
L 213.544014 134.664884 
L 213.544014 134.208 
L 213.544014 134.208 
L 213.780212 134.208 
L 213.780212 133.522674 
L 213.780212 133.522674 
L 213.898311 133.522674 
L 213.898311 133.294232 
L 214.13451 133.294232 
L 214.13451 132.608907 
L 214.13451 132.608907 
L 214.370708 132.608907 
L 214.370708 132.152023 
L 214.370708 132.152023 
L 214.488807 132.152023 
L 214.488807 131.695139 
L 214.488807 131.695139 
L 214.606906 131.695139 
L 214.606906 131.466697 
L 215.669799 131.466697 
L 215.669799 131.238255 
L 215.787898 131.238255 
L 215.787898 131.009813 
L 215.905997 131.009813 
L 215.905997 130.781371 
L 216.024096 130.781371 
L 216.024096 130.552929 
L 216.142195 130.552929 
L 216.142195 129.867603 
L 216.142195 129.867603 
L 216.496493 129.867603 
L 216.496493 129.639161 
L 217.441286 129.639161 
L 217.441286 129.41072 
L 217.559385 129.41072 
L 217.559385 129.182278 
L 218.386079 129.182278 
L 218.386079 128.953836 
L 218.740376 128.953836 
L 218.740376 128.26851 
L 218.740376 128.26851 
L 218.858475 128.26851 
L 218.858475 128.040068 
L 220.275665 128.040068 
L 220.275665 127.811626 
L 220.393764 127.811626 
L 220.393764 127.583184 
L 221.102359 127.583184 
L 221.102359 127.354742 
L 221.692855 127.354742 
L 221.692855 127.1263 
L 221.810954 127.1263 
L 221.810954 126.897858 
L 222.165251 126.897858 
L 222.165251 125.984091 
L 222.165251 125.984091 
L 222.283351 125.984091 
L 222.283351 125.070323 
L 222.283351 125.070323 
L 222.637648 125.070323 
L 222.637648 124.841881 
L 223.936739 124.841881 
L 223.936739 124.613439 
L 224.291036 124.613439 
L 224.291036 124.384997 
L 225.708226 124.384997 
L 225.708226 123.928113 
L 225.708226 123.928113 
L 226.180622 123.928113 
L 226.180622 123.699671 
L 227.479713 123.699671 
L 227.479713 123.471229 
L 227.597812 123.471229 
L 227.597812 123.242788 
L 227.715911 123.242788 
L 227.715911 123.014346 
L 229.133101 123.014346 
L 229.133101 122.785904 
L 229.487398 122.785904 
L 229.487398 122.557462 
L 229.841696 122.557462 
L 229.841696 122.100578 
L 229.841696 122.100578 
L 229.959795 122.100578 
L 229.959795 121.872136 
L 235.628554 121.872136 
L 235.628554 121.643694 
L 236.337149 121.643694 
L 236.337149 121.415252 
L 236.573347 121.415252 
L 236.573347 121.18681 
L 236.691446 121.18681 
L 236.691446 120.501484 
L 236.691446 120.501484 
L 236.927644 120.501484 
L 236.927644 120.044601 
L 236.927644 120.044601 
L 237.636239 120.044601 
L 237.636239 119.816159 
L 237.990537 119.816159 
L 237.990537 119.587717 
L 241.415412 119.587717 
L 241.415412 119.359275 
L 241.533511 119.359275 
L 241.533511 119.130833 
L 241.887808 119.130833 
L 241.887808 118.902391 
L 242.005908 118.902391 
L 242.005908 118.445507 
L 242.005908 118.445507 
L 242.124007 118.445507 
L 242.124007 118.217065 
L 243.0688 118.217065 
L 243.0688 117.988623 
L 243.423097 117.988623 
L 243.423097 117.760181 
L 244.36789 117.760181 
L 244.36789 117.531739 
L 244.48599 117.531739 
L 244.48599 116.617972 
L 244.48599 116.617972 
L 248.028964 116.617972 
L 248.028964 116.38953 
L 248.265162 116.38953 
L 248.265162 116.161088 
L 248.737559 116.161088 
L 248.737559 115.932646 
L 251.690037 115.932646 
L 251.690037 115.704204 
L 251.926236 115.704204 
L 251.926236 115.475762 
L 252.044335 115.475762 
L 252.044335 115.24732 
L 253.697723 115.24732 
L 253.697723 115.018878 
L 255.233012 115.018878 
L 255.233012 114.790436 
L 255.351111 114.790436 
L 255.351111 114.561994 
L 256.414003 114.561994 
L 256.414003 114.333552 
L 257.122598 114.333552 
L 257.122598 114.10511 
L 257.240697 114.10511 
L 257.240697 113.876669 
L 257.358796 113.876669 
L 257.358796 113.648227 
L 258.421689 113.648227 
L 258.421689 113.419785 
L 260.193176 113.419785 
L 260.193176 113.191343 
L 260.311275 113.191343 
L 260.311275 112.962901 
L 262.909456 112.962901 
L 262.909456 112.734459 
L 263.499952 112.734459 
L 263.499952 112.506017 
L 263.972348 112.506017 
L 263.972348 112.277575 
L 264.562844 112.277575 
L 264.562844 112.049133 
L 265.271439 112.049133 
L 265.271439 111.592249 
L 265.271439 111.592249 
L 265.389538 111.592249 
L 265.389538 110.906924 
L 265.389538 110.906924 
L 265.507637 110.906924 
L 265.507637 110.678482 
L 265.625736 110.678482 
L 265.625736 110.45004 
L 265.861935 110.45004 
L 265.861935 110.221598 
L 267.042926 110.221598 
L 267.042926 109.764714 
L 267.042926 109.764714 
L 267.751521 109.764714 
L 267.751521 109.536272 
L 269.168711 109.536272 
L 269.168711 109.30783 
L 270.5859 109.30783 
L 270.5859 109.079388 
L 272.475487 109.079388 
L 272.475487 108.850946 
L 272.593586 108.850946 
L 272.593586 108.622504 
L 272.829784 108.622504 
L 272.829784 108.394062 
L 273.065982 108.394062 
L 273.065982 107.708737 
L 273.065982 107.708737 
L 273.184081 107.708737 
L 273.184081 107.480295 
L 273.538379 107.480295 
L 273.538379 107.251853 
L 273.656478 107.251853 
L 273.656478 105.881201 
L 273.656478 105.881201 
L 274.483172 105.881201 
L 274.483172 105.652759 
L 274.71937 105.652759 
L 274.71937 105.424317 
L 275.073668 105.424317 
L 275.073668 104.51055 
L 275.073668 104.51055 
L 275.427965 104.51055 
L 275.427965 103.825224 
L 275.427965 103.825224 
L 275.664163 103.825224 
L 275.664163 103.596782 
L 275.782263 103.596782 
L 275.782263 102.911456 
L 275.782263 102.911456 
L 275.900362 102.911456 
L 275.900362 102.683014 
L 276.13656 102.683014 
L 276.13656 102.454572 
L 276.490858 102.454572 
L 276.490858 102.22613 
L 276.845155 102.22613 
L 276.845155 101.769246 
L 276.845155 101.769246 
L 276.963254 101.769246 
L 276.963254 101.540805 
L 277.081353 101.540805 
L 277.081353 101.312363 
L 277.55375 101.312363 
L 277.55375 100.855479 
L 277.55375 100.855479 
L 277.671849 100.855479 
L 277.671849 100.627037 
L 278.144246 100.627037 
L 278.144246 100.398595 
L 278.616642 100.398595 
L 278.616642 100.170153 
L 278.85284 100.170153 
L 278.85284 99.713269 
L 278.85284 99.713269 
L 278.97094 99.713269 
L 278.97094 99.484827 
L 279.207138 99.484827 
L 279.207138 99.256385 
L 279.325237 99.256385 
L 279.325237 99.027943 
L 279.679534 99.027943 
L 279.679534 98.799501 
L 280.033832 98.799501 
L 280.033832 98.342618 
L 280.033832 98.342618 
L 280.506228 98.342618 
L 280.506228 98.114176 
L 280.742427 98.114176 
L 280.742427 97.885734 
L 280.860526 97.885734 
L 280.860526 97.657292 
L 281.332922 97.657292 
L 281.332922 97.42885 
L 281.68722 97.42885 
L 281.68722 97.200408 
L 281.923418 97.200408 
L 281.923418 96.971966 
L 282.513914 96.971966 
L 282.513914 96.515082 
L 282.513914 96.515082 
L 282.98631 96.515082 
L 282.98631 96.28664 
L 283.931104 96.28664 
L 283.931104 96.058198 
L 287.23788 96.058198 
L 287.23788 95.829756 
L 288.300772 95.829756 
L 288.300772 95.601314 
L 288.53697 95.601314 
L 288.53697 95.372873 
L 289.836061 95.372873 
L 289.836061 95.144431 
L 290.072259 95.144431 
L 290.072259 94.687547 
L 290.072259 94.687547 
L 290.190358 94.687547 
L 290.190358 94.230663 
L 290.190358 94.230663 
L 291.843746 94.230663 
L 291.843746 94.002221 
L 292.079944 94.002221 
L 292.079944 93.773779 
L 292.552341 93.773779 
L 292.552341 93.545337 
L 295.622919 93.545337 
L 295.622919 93.316895 
L 300.583083 93.316895 
L 300.583083 93.088453 
L 300.819281 93.088453 
L 300.819281 92.403127 
L 300.819281 92.403127 
L 302.118372 92.403127 
L 302.118372 91.946244 
L 302.118372 91.946244 
L 303.535561 91.946244 
L 303.535561 91.717802 
L 303.653661 91.717802 
L 303.653661 91.48936 
L 306.015643 91.48936 
L 306.015643 91.260918 
L 309.558618 91.260918 
L 309.558618 91.032476 
L 310.503411 91.032476 
L 310.503411 90.804034 
L 310.857708 90.804034 
L 310.857708 89.890266 
L 310.857708 89.890266 
L 311.448204 89.890266 
L 311.448204 89.661824 
L 314.164484 89.661824 
L 314.164484 89.433382 
L 315.345476 89.433382 
L 315.345476 88.748057 
L 315.345476 88.748057 
L 317.943657 88.748057 
L 317.943657 88.519615 
L 319.597045 88.519615 
L 319.597045 88.291173 
L 319.715144 88.291173 
L 319.715144 88.062731 
L 319.833243 88.062731 
L 319.833243 87.377405 
L 319.833243 87.377405 
L 324.202911 87.377405 
L 324.202911 86.692079 
L 324.202911 86.692079 
L 325.265804 86.692079 
L 325.265804 86.463637 
L 327.391588 86.463637 
L 327.391588 85.778312 
L 327.391588 85.778312 
L 327.982084 85.778312 
L 327.982084 85.092986 
L 327.982084 85.092986 
L 328.100183 85.092986 
L 328.100183 84.864544 
L 328.218282 84.864544 
L 328.218282 83.950776 
L 328.218282 83.950776 
L 328.336381 83.950776 
L 328.336381 83.722334 
L 328.454481 83.722334 
L 328.454481 83.26545 
L 328.454481 83.26545 
L 329.98977 83.26545 
L 329.98977 83.037008 
L 330.344067 83.037008 
L 330.344067 82.351683 
L 330.344067 82.351683 
L 330.462166 82.351683 
L 330.462166 81.894799 
L 330.462166 81.894799 
L 330.698364 81.894799 
L 330.698364 81.666357 
L 330.816464 81.666357 
L 330.816464 81.209473 
L 330.816464 81.209473 
L 331.643158 81.209473 
L 331.643158 80.524147 
L 331.643158 80.524147 
L 331.761257 80.524147 
L 331.761257 80.295705 
L 331.997455 80.295705 
L 331.997455 80.067263 
L 332.115554 80.067263 
L 332.115554 79.61038 
L 332.115554 79.61038 
L 332.233653 79.61038 
L 332.233653 79.381938 
L 332.351752 79.381938 
L 332.351752 79.153496 
L 333.060347 79.153496 
L 333.060347 78.925054 
L 333.296546 78.925054 
L 333.296546 78.011286 
L 333.296546 78.011286 
L 333.768942 78.011286 
L 333.768942 77.782844 
L 334.00514 77.782844 
L 334.00514 76.412193 
L 334.00514 76.412193 
L 334.241339 76.412193 
L 334.241339 75.726867 
L 334.241339 75.726867 
L 334.359438 75.726867 
L 334.359438 75.269983 
L 334.359438 75.269983 
L 334.831834 75.269983 
L 334.831834 75.041541 
L 334.949934 75.041541 
L 334.949934 74.356215 
L 334.949934 74.356215 
L 335.186132 74.356215 
L 335.186132 74.127773 
L 335.776628 74.127773 
L 335.776628 73.899331 
L 335.894727 73.899331 
L 335.894727 73.214006 
L 335.894727 73.214006 
L 336.012826 73.214006 
L 336.012826 72.757122 
L 336.012826 72.757122 
L 336.130925 72.757122 
L 336.130925 72.52868 
L 336.249024 72.52868 
L 336.249024 71.614912 
L 336.249024 71.614912 
L 336.367123 71.614912 
L 336.367123 71.38647 
L 336.485222 71.38647 
L 336.485222 70.701144 
L 336.485222 70.701144 
L 336.83952 70.701144 
L 336.83952 70.472703 
L 336.957619 70.472703 
L 336.957619 70.015819 
L 336.957619 70.015819 
L 337.311916 70.015819 
L 337.311916 69.787377 
L 337.430016 69.787377 
L 337.430016 69.558935 
L 337.784313 69.558935 
L 337.784313 68.645167 
L 337.784313 68.645167 
L 338.13861 68.645167 
L 338.13861 67.731399 
L 338.13861 67.731399 
L 338.374809 67.731399 
L 338.374809 67.274516 
L 338.374809 67.274516 
L 338.611007 67.274516 
L 338.611007 66.58919 
L 338.611007 66.58919 
L 338.729106 66.58919 
L 338.729106 66.132306 
L 338.729106 66.132306 
L 338.965304 66.132306 
L 338.965304 65.675422 
L 338.965304 65.675422 
L 339.319602 65.675422 
L 339.319602 65.44698 
L 339.791998 65.44698 
L 339.791998 64.990096 
L 339.791998 64.990096 
L 339.910098 64.990096 
L 339.910098 64.761654 
L 340.97299 64.761654 
L 340.97299 64.076329 
L 340.97299 64.076329 
L 344.752162 64.076329 
L 344.752162 63.619445 
L 344.752162 63.619445 
L 345.460757 63.619445 
L 345.460757 63.391003 
L 355.262986 63.391003 
L 355.262986 63.162561 
L 358.333564 63.162561 
L 358.333564 62.934119 
L 359.396456 62.934119 
L 359.396456 62.705677 
L 367.309099 62.705677 
L 367.309099 62.020351 
L 367.309099 62.020351 
L 370.261577 62.020351 
L 370.261577 61.791909 
L 387.504052 61.791909 
L 387.504052 61.563467 
L 389.629837 61.563467 
L 389.629837 61.106584 
L 389.629837 61.106584 
L 389.747936 61.106584 
L 389.747936 60.878142 
L 390.456531 60.878142 
L 390.456531 60.192816 
L 390.456531 60.192816 
L 390.810828 60.192816 
L 390.810828 59.735932 
L 390.810828 59.735932 
L 391.047027 59.735932 
L 391.047027 59.279048 
L 391.047027 59.279048 
L 391.165126 59.279048 
L 391.165126 59.050606 
L 392.700415 59.050606 
L 392.700415 58.822164 
L 393.527109 58.822164 
L 393.527109 58.593722 
L 393.645208 58.593722 
L 393.645208 57.451513 
L 393.645208 57.451513 
L 394.471902 57.451513 
L 394.471902 56.994629 
L 394.471902 56.994629 
L 394.590001 56.994629 
L 394.590001 56.766187 
L 395.062398 56.766187 
L 395.062398 56.537745 
L 395.652893 56.537745 
L 395.652893 56.309303 
L 396.597686 56.309303 
L 396.597686 55.623977 
L 396.597686 55.623977 
L 397.070083 55.623977 
L 397.070083 54.938652 
L 397.070083 54.938652 
L 398.132975 54.938652 
L 398.132975 54.481768 
L 398.132975 54.481768 
L 398.251074 54.481768 
L 398.251074 54.253326 
L 398.487273 54.253326 
L 398.487273 53.568 
L 398.487273 53.568 
" clip-path="url(#p32d25073e2)" style="fill: none; stroke: #1f77b4; stroke-width: 1.5; stroke-linecap: square"/>
   </g>
   <g id="patch_3">
    <path d="M 57.6 307.584 
L 57.6 41.472 
" style="fill: none; stroke: #000000; stroke-width: 0.8; stroke-linejoin: miter; stroke-linecap: square"/>
   </g>
   <g id="patch_4">
    <path d="M 414.72 307.584 
L 414.72 41.472 
" style="fill: none; stroke: #000000; stroke-width: 0.8; stroke-linejoin: miter; stroke-linecap: square"/>
   </g>
   <g id="patch_5">
    <path d="M 57.6 307.584 
L 414.72 307.584 
" style="fill: none; stroke: #000000; stroke-width: 0.8; stroke-linejoin: miter; stroke-linecap: square"/>
   </g>
   <g id="patch_6">
    <path d="M 57.6 41.472 
L 414.72 41.472 
" style="fill: none; stroke: #000000; stroke-width: 0.8; stroke-linejoin: miter; stroke-linecap: square"/>
   </g>
   <g id="text_13">
    <!-- Execution time between S5 S6 (xx1xx1xx1xx0yyy55xx0yyy55xx1xx0yyy6xx0yyy45xx1) -->
    <g transform="translate(-29.869687 35.472) scale(0.12 -0.12)">
     <defs>
      <path id="DejaVuSans-45" d="M 628 4666 
L 3578 4666 
L 3578 4134 
L 1259 4134 
L 1259 2753 
L 3481 2753 
L 3481 2222 
L 1259 2222 
L 1259 531 
L 3634 531 
L 3634 0 
L 628 0 
L 628 4666 
z
" transform="scale(0.015625)"/>
      <path id="DejaVuSans-78" d="M 3513 3500 
L 2247 1797 
L 3578 0 
L 2900 0 
L 1881 1375 
L 863 0 
L 184 0 
L 1544 1831 
L 300 3500 
L 978 3500 
L 1906 2253 
L 2834 3500 
L 3513 3500 
z
" transform="scale(0.015625)"/>
      <path id="DejaVuSans-65" d="M 3597 1894 
L 3597 1613 
L 953 1613 
Q 991 1019 1311 708 
Q 1631 397 2203 397 
Q 2534 397 2845 478 
Q 3156 559 3463 722 
L 3463 178 
Q 3153 47 2828 -22 
Q 2503 -91 2169 -91 
Q 1331 -91 842 396 
Q 353 884 353 1716 
Q 353 2575 817 3079 
Q 1281 3584 2069 3584 
Q 2775 3584 3186 3129 
Q 3597 2675 3597 1894 
z
M 3022 2063 
Q 3016 2534 2758 2815 
Q 2500 3097 2075 3097 
Q 1594 3097 1305 2825 
Q 1016 2553 972 2059 
L 3022 2063 
z
" transform="scale(0.015625)"/>
      <path id="DejaVuSans-63" d="M 3122 3366 
L 3122 2828 
Q 2878 2963 2633 3030 
Q 2388 3097 2138 3097 
Q 1578 3097 1268 2742 
Q 959 2388 959 1747 
Q 959 1106 1268 751 
Q 1578 397 2138 397 
Q 2388 397 2633 464 
Q 2878 531 3122 666 
L 3122 134 
Q 2881 22 2623 -34 
Q 2366 -91 2075 -91 
Q 1284 -91 818 406 
Q 353 903 353 1747 
Q 353 2603 823 3093 
Q 1294 3584 2113 3584 
Q 2378 3584 2631 3529 
Q 2884 3475 3122 3366 
z
" transform="scale(0.015625)"/>
      <path id="DejaVuSans-75" d="M 544 1381 
L 544 3500 
L 1119 3500 
L 1119 1403 
Q 1119 906 1312 657 
Q 1506 409 1894 409 
Q 2359 409 2629 706 
Q 2900 1003 2900 1516 
L 2900 3500 
L 3475 3500 
L 3475 0 
L 2900 0 
L 2900 538 
Q 2691 219 2414 64 
Q 2138 -91 1772 -91 
Q 1169 -91 856 284 
Q 544 659 544 1381 
z
M 1991 3584 
L 1991 3584 
z
" transform="scale(0.015625)"/>
      <path id="DejaVuSans-74" d="M 1172 4494 
L 1172 3500 
L 2356 3500 
L 2356 3053 
L 1172 3053 
L 1172 1153 
Q 1172 725 1289 603 
Q 1406 481 1766 481 
L 2356 481 
L 2356 0 
L 1766 0 
Q 1100 0 847 248 
Q 594 497 594 1153 
L 594 3053 
L 172 3053 
L 172 3500 
L 594 3500 
L 594 4494 
L 1172 4494 
z
" transform="scale(0.015625)"/>
      <path id="DejaVuSans-69" d="M 603 3500 
L 1178 3500 
L 1178 0 
L 603 0 
L 603 3500 
z
M 603 4863 
L 1178 4863 
L 1178 4134 
L 603 4134 
L 603 4863 
z
" transform="scale(0.015625)"/>
      <path id="DejaVuSans-6f" d="M 1959 3097 
Q 1497 3097 1228 2736 
Q 959 2375 959 1747 
Q 959 1119 1226 758 
Q 1494 397 1959 397 
Q 2419 397 2687 759 
Q 2956 1122 2956 1747 
Q 2956 2369 2687 2733 
Q 2419 3097 1959 3097 
z
M 1959 3584 
Q 2709 3584 3137 3096 
Q 3566 2609 3566 1747 
Q 3566 888 3137 398 
Q 2709 -91 1959 -91 
Q 1206 -91 779 398 
Q 353 888 353 1747 
Q 353 2609 779 3096 
Q 1206 3584 1959 3584 
z
" transform="scale(0.015625)"/>
      <path id="DejaVuSans-6e" d="M 3513 2113 
L 3513 0 
L 2938 0 
L 2938 2094 
Q 2938 2591 2744 2837 
Q 2550 3084 2163 3084 
Q 1697 3084 1428 2787 
Q 1159 2491 1159 1978 
L 1159 0 
L 581 0 
L 581 3500 
L 1159 3500 
L 1159 2956 
Q 1366 3272 1645 3428 
Q 1925 3584 2291 3584 
Q 2894 3584 3203 3211 
Q 3513 2838 3513 2113 
z
" transform="scale(0.015625)"/>
      <path id="DejaVuSans-20" transform="scale(0.015625)"/>
      <path id="DejaVuSans-6d" d="M 3328 2828 
Q 3544 3216 3844 3400 
Q 4144 3584 4550 3584 
Q 5097 3584 5394 3201 
Q 5691 2819 5691 2113 
L 5691 0 
L 5113 0 
L 5113 2094 
Q 5113 2597 4934 2840 
Q 4756 3084 4391 3084 
Q 3944 3084 3684 2787 
Q 3425 2491 3425 1978 
L 3425 0 
L 2847 0 
L 2847 2094 
Q 2847 2600 2669 2842 
Q 2491 3084 2119 3084 
Q 1678 3084 1418 2786 
Q 1159 2488 1159 1978 
L 1159 0 
L 581 0 
L 581 3500 
L 1159 3500 
L 1159 2956 
Q 1356 3278 1631 3431 
Q 1906 3584 2284 3584 
Q 2666 3584 2933 3390 
Q 3200 3197 3328 2828 
z
" transform="scale(0.015625)"/>
      <path id="DejaVuSans-62" d="M 3116 1747 
Q 3116 2381 2855 2742 
Q 2594 3103 2138 3103 
Q 1681 3103 1420 2742 
Q 1159 2381 1159 1747 
Q 1159 1113 1420 752 
Q 1681 391 2138 391 
Q 2594 391 2855 752 
Q 3116 1113 3116 1747 
z
M 1159 2969 
Q 1341 3281 1617 3432 
Q 1894 3584 2278 3584 
Q 2916 3584 3314 3078 
Q 3713 2572 3713 1747 
Q 3713 922 3314 415 
Q 2916 -91 2278 -91 
Q 1894 -91 1617 61 
Q 1341 213 1159 525 
L 1159 0 
L 581 0 
L 581 4863 
L 1159 4863 
L 1159 2969 
z
" transform="scale(0.015625)"/>
      <path id="DejaVuSans-77" d="M 269 3500 
L 844 3500 
L 1563 769 
L 2278 3500 
L 2956 3500 
L 3675 769 
L 4391 3500 
L 4966 3500 
L 4050 0 
L 3372 0 
L 2619 2869 
L 1863 0 
L 1184 0 
L 269 3500 
z
" transform="scale(0.015625)"/>
      <path id="DejaVuSans-53" d="M 3425 4513 
L 3425 3897 
Q 3066 4069 2747 4153 
Q 2428 4238 2131 4238 
Q 1616 4238 1336 4038 
Q 1056 3838 1056 3469 
Q 1056 3159 1242 3001 
Q 1428 2844 1947 2747 
L 2328 2669 
Q 3034 2534 3370 2195 
Q 3706 1856 3706 1288 
Q 3706 609 3251 259 
Q 2797 -91 1919 -91 
Q 1588 -91 1214 -16 
Q 841 59 441 206 
L 441 856 
Q 825 641 1194 531 
Q 1563 422 1919 422 
Q 2459 422 2753 634 
Q 3047 847 3047 1241 
Q 3047 1584 2836 1778 
Q 2625 1972 2144 2069 
L 1759 2144 
Q 1053 2284 737 2584 
Q 422 2884 422 3419 
Q 422 4038 858 4394 
Q 1294 4750 2059 4750 
Q 2388 4750 2728 4690 
Q 3069 4631 3425 4513 
z
" transform="scale(0.015625)"/>
      <path id="DejaVuSans-28" d="M 1984 4856 
Q 1566 4138 1362 3434 
Q 1159 2731 1159 2009 
Q 1159 1288 1364 580 
Q 1569 -128 1984 -844 
L 1484 -844 
Q 1016 -109 783 600 
Q 550 1309 550 2009 
Q 550 2706 781 3412 
Q 1013 4119 1484 4856 
L 1984 4856 
z
" transform="scale(0.015625)"/>
      <path id="DejaVuSans-79" d="M 2059 -325 
Q 1816 -950 1584 -1140 
Q 1353 -1331 966 -1331 
L 506 -1331 
L 506 -850 
L 844 -850 
Q 1081 -850 1212 -737 
Q 1344 -625 1503 -206 
L 1606 56 
L 191 3500 
L 800 3500 
L 1894 763 
L 2988 3500 
L 3597 3500 
L 2059 -325 
z
" transform="scale(0.015625)"/>
      <path id="DejaVuSans-29" d="M 513 4856 
L 1013 4856 
Q 1481 4119 1714 3412 
Q 1947 2706 1947 2009 
Q 1947 1309 1714 600 
Q 1481 -109 1013 -844 
L 513 -844 
Q 928 -128 1133 580 
Q 1338 1288 1338 2009 
Q 1338 2731 1133 3434 
Q 928 4138 513 4856 
z
" transform="scale(0.015625)"/>
     </defs>
     <use xlink:href="#DejaVuSans-45"/>
     <use xlink:href="#DejaVuSans-78" x="63.183594"/>
     <use xlink:href="#DejaVuSans-65" x="119.238281"/>
     <use xlink:href="#DejaVuSans-63" x="180.761719"/>
     <use xlink:href="#DejaVuSans-75" x="235.742188"/>
     <use xlink:href="#DejaVuSans-74" x="299.121094"/>
     <use xlink:href="#DejaVuSans-69" x="338.330078"/>
     <use xlink:href="#DejaVuSans-6f" x="366.113281"/>
     <use xlink:href="#DejaVuSans-6e" x="427.294922"/>
     <use xlink:href="#DejaVuSans-20" x="490.673828"/>
     <use xlink:href="#DejaVuSans-74" x="522.460938"/>
     <use xlink:href="#DejaVuSans-69" x="561.669922"/>
     <use xlink:href="#DejaVuSans-6d" x="589.453125"/>
     <use xlink:href="#DejaVuSans-65" x="686.865234"/>
     <use xlink:href="#DejaVuSans-20" x="748.388672"/>
     <use xlink:href="#DejaVuSans-62" x="780.175781"/>
     <use xlink:href="#DejaVuSans-65" x="843.652344"/>
     <use xlink:href="#DejaVuSans-74" x="905.175781"/>
     <use xlink:href="#DejaVuSans-77" x="944.384766"/>
     <use xlink:href="#DejaVuSans-65" x="1026.171875"/>
     <use xlink:href="#DejaVuSans-65" x="1087.695312"/>
     <use xlink:href="#DejaVuSans-6e" x="1149.21875"/>
     <use xlink:href="#DejaVuSans-20" x="1212.597656"/>
     <use xlink:href="#DejaVuSans-53" x="1244.384766"/>
     <use xlink:href="#DejaVuSans-35" x="1307.861328"/>
     <use xlink:href="#DejaVuSans-20" x="1371.484375"/>
     <use xlink:href="#DejaVuSans-53" x="1403.271484"/>
     <use xlink:href="#DejaVuSans-36" x="1466.748047"/>
     <use xlink:href="#DejaVuSans-20" x="1530.371094"/>
     <use xlink:href="#DejaVuSans-28" x="1562.158203"/>
     <use xlink:href="#DejaVuSans-78" x="1601.171875"/>
     <use xlink:href="#DejaVuSans-78" x="1660.351562"/>
     <use xlink:href="#DejaVuSans-31" x="1719.53125"/>
     <use xlink:href="#DejaVuSans-78" x="1783.154297"/>
     <use xlink:href="#DejaVuSans-78" x="1842.333984"/>
     <use xlink:href="#DejaVuSans-31" x="1901.513672"/>
     <use xlink:href="#DejaVuSans-78" x="1965.136719"/>
     <use xlink:href="#DejaVuSans-78" x="2024.316406"/>
     <use xlink:href="#DejaVuSans-31" x="2083.496094"/>
     <use xlink:href="#DejaVuSans-78" x="2147.119141"/>
     <use xlink:href="#DejaVuSans-78" x="2206.298828"/>
     <use xlink:href="#DejaVuSans-30" x="2265.478516"/>
     <use xlink:href="#DejaVuSans-79" x="2329.101562"/>
     <use xlink:href="#DejaVuSans-79" x="2388.28125"/>
     <use xlink:href="#DejaVuSans-79" x="2447.460938"/>
     <use xlink:href="#DejaVuSans-35" x="2506.640625"/>
     <use xlink:href="#DejaVuSans-35" x="2570.263672"/>
     <use xlink:href="#DejaVuSans-78" x="2633.886719"/>
     <use xlink:href="#DejaVuSans-78" x="2693.066406"/>
     <use xlink:href="#DejaVuSans-30" x="2752.246094"/>
     <use xlink:href="#DejaVuSans-79" x="2815.869141"/>
     <use xlink:href="#DejaVuSans-79" x="2875.048828"/>
     <use xlink:href="#DejaVuSans-79" x="2934.228516"/>
     <use xlink:href="#DejaVuSans-35" x="2993.408203"/>
     <use xlink:href="#DejaVuSans-35" x="3057.03125"/>
     <use xlink:href="#DejaVuSans-78" x="3120.654297"/>
     <use xlink:href="#DejaVuSans-78" x="3179.833984"/>
     <use xlink:href="#DejaVuSans-31" x="3239.013672"/>
     <use xlink:href="#DejaVuSans-78" x="3302.636719"/>
     <use xlink:href="#DejaVuSans-78" x="3361.816406"/>
     <use xlink:href="#DejaVuSans-30" x="3420.996094"/>
     <use xlink:href="#DejaVuSans-79" x="3484.619141"/>
     <use xlink:href="#DejaVuSans-79" x="3543.798828"/>
     <use xlink:href="#DejaVuSans-79" x="3602.978516"/>
     <use xlink:href="#DejaVuSans-36" x="3662.158203"/>
     <use xlink:href="#DejaVuSans-78" x="3725.78125"/>
     <use xlink:href="#DejaVuSans-78" x="3784.960938"/>
     <use xlink:href="#DejaVuSans-30" x="3844.140625"/>
     <use xlink:href="#DejaVuSans-79" x="3907.763672"/>
     <use xlink:href="#DejaVuSans-79" x="3966.943359"/>
     <use xlink:href="#DejaVuSans-79" x="4026.123047"/>
     <use xlink:href="#DejaVuSans-34" x="4085.302734"/>
     <use xlink:href="#DejaVuSans-35" x="4148.925781"/>
     <use xlink:href="#DejaVuSans-78" x="4212.548828"/>
     <use xlink:href="#DejaVuSans-78" x="4271.728516"/>
     <use xlink:href="#DejaVuSans-31" x="4330.908203"/>
     <use xlink:href="#DejaVuSans-29" x="4394.53125"/>
    </g>
   </g>
   <g id="legend_1">
    <g id="patch_7">
     <path d="M 125.290313 304.584 
L 410.52 304.584 
Q 411.72 304.584 411.72 303.384 
L 411.72 295.177125 
Q 411.72 293.977125 410.52 293.977125 
L 125.290313 293.977125 
Q 124.090313 293.977125 124.090313 295.177125 
L 124.090313 303.384 
Q 124.090313 304.584 125.290313 304.584 
z
" style="fill: #ffffff; opacity: 0.8; stroke: #cccccc; stroke-linejoin: miter"/>
    </g>
    <g id="line2d_14">
     <path d="M 126.490313 298.836187 
L 132.490313 298.836187 
L 138.490313 298.836187 
" style="fill: none; stroke: #1f77b4; stroke-width: 1.5; stroke-linecap: square"/>
    </g>
    <g id="text_14">
     <!-- Execution time between S5 S6 (xx1xx1xx1xx0yyy55xx0yyy55xx1xx0yyy6xx0yyy45xx1) -->
     <g transform="translate(143.290313 300.936187) scale(0.06 -0.06)">
      <use xlink:href="#DejaVuSans-45"/>
      <use xlink:href="#DejaVuSans-78" x="63.183594"/>
      <use xlink:href="#DejaVuSans-65" x="119.238281"/>
      <use xlink:href="#DejaVuSans-63" x="180.761719"/>
      <use xlink:href="#DejaVuSans-75" x="235.742188"/>
      <use xlink:href="#DejaVuSans-74" x="299.121094"/>
      <use xlink:href="#DejaVuSans-69" x="338.330078"/>
      <use xlink:href="#DejaVuSans-6f" x="366.113281"/>
      <use xlink:href="#DejaVuSans-6e" x="427.294922"/>
      <use xlink:href="#DejaVuSans-20" x="490.673828"/>
      <use xlink:href="#DejaVuSans-74" x="522.460938"/>
      <use xlink:href="#DejaVuSans-69" x="561.669922"/>
      <use xlink:href="#DejaVuSans-6d" x="589.453125"/>
      <use xlink:href="#DejaVuSans-65" x="686.865234"/>
      <use xlink:href="#DejaVuSans-20" x="748.388672"/>
      <use xlink:href="#DejaVuSans-62" x="780.175781"/>
      <use xlink:href="#DejaVuSans-65" x="843.652344"/>
      <use xlink:href="#DejaVuSans-74" x="905.175781"/>
      <use xlink:href="#DejaVuSans-77" x="944.384766"/>
      <use xlink:href="#DejaVuSans-65" x="1026.171875"/>
      <use xlink:href="#DejaVuSans-65" x="1087.695312"/>
      <use xlink:href="#DejaVuSans-6e" x="1149.21875"/>
      <use xlink:href="#DejaVuSans-20" x="1212.597656"/>
      <use xlink:href="#DejaVuSans-53" x="1244.384766"/>
      <use xlink:href="#DejaVuSans-35" x="1307.861328"/>
      <use xlink:href="#DejaVuSans-20" x="1371.484375"/>
      <use xlink:href="#DejaVuSans-53" x="1403.271484"/>
      <use xlink:href="#DejaVuSans-36" x="1466.748047"/>
      <use xlink:href="#DejaVuSans-20" x="1530.371094"/>
      <use xlink:href="#DejaVuSans-28" x="1562.158203"/>
      <use xlink:href="#DejaVuSans-78" x="1601.171875"/>
      <use xlink:href="#DejaVuSans-78" x="1660.351562"/>
      <use xlink:href="#DejaVuSans-31" x="1719.53125"/>
      <use xlink:href="#DejaVuSans-78" x="1783.154297"/>
      <use xlink:href="#DejaVuSans-78" x="1842.333984"/>
      <use xlink:href="#DejaVuSans-31" x="1901.513672"/>
      <use xlink:href="#DejaVuSans-78" x="1965.136719"/>
      <use xlink:href="#DejaVuSans-78" x="2024.316406"/>
      <use xlink:href="#DejaVuSans-31" x="2083.496094"/>
      <use xlink:href="#DejaVuSans-78" x="2147.119141"/>
      <use xlink:href="#DejaVuSans-78" x="2206.298828"/>
      <use xlink:href="#DejaVuSans-30" x="2265.478516"/>
      <use xlink:href="#DejaVuSans-79" x="2329.101562"/>
      <use xlink:href="#DejaVuSans-79" x="2388.28125"/>
      <use xlink:href="#DejaVuSans-79" x="2447.460938"/>
      <use xlink:href="#DejaVuSans-35" x="2506.640625"/>
      <use xlink:href="#DejaVuSans-35" x="2570.263672"/>
      <use xlink:href="#DejaVuSans-78" x="2633.886719"/>
      <use xlink:href="#DejaVuSans-78" x="2693.066406"/>
      <use xlink:href="#DejaVuSans-30" x="2752.246094"/>
      <use xlink:href="#DejaVuSans-79" x="2815.869141"/>
      <use xlink:href="#DejaVuSans-79" x="2875.048828"/>
      <use xlink:href="#DejaVuSans-79" x="2934.228516"/>
      <use xlink:href="#DejaVuSans-35" x="2993.408203"/>
      <use xlink:href="#DejaVuSans-35" x="3057.03125"/>
      <use xlink:href="#DejaVuSans-78" x="3120.654297"/>
      <use xlink:href="#DejaVuSans-78" x="3179.833984"/>
      <use xlink:href="#DejaVuSans-31" x="3239.013672"/>
      <use xlink:href="#DejaVuSans-78" x="3302.636719"/>
      <use xlink:href="#DejaVuSans-78" x="3361.816406"/>
      <use xlink:href="#DejaVuSans-30" x="3420.996094"/>
      <use xlink:href="#DejaVuSans-79" x="3484.619141"/>
      <use xlink:href="#DejaVuSans-79" x="3543.798828"/>
      <use xlink:href="#DejaVuSans-79" x="3602.978516"/>
      <use xlink:href="#DejaVuSans-36" x="3662.158203"/>
      <use xlink:href="#DejaVuSans-78" x="3725.78125"/>
      <use xlink:href="#DejaVuSans-78" x="3784.960938"/>
      <use xlink:href="#DejaVuSans-30" x="3844.140625"/>
      <use xlink:href="#DejaVuSans-79" x="3907.763672"/>
      <use xlink:href="#DejaVuSans-79" x="3966.943359"/>
      <use xlink:href="#DejaVuSans-79" x="4026.123047"/>
      <use xlink:href="#DejaVuSans-34" x="4085.302734"/>
      <use xlink:href="#DejaVuSans-35" x="4148.925781"/>
      <use xlink:href="#DejaVuSans-78" x="4212.548828"/>
      <use xlink:href="#DejaVuSans-78" x="4271.728516"/>
      <use xlink:href="#DejaVuSans-31" x="4330.908203"/>
      <use xlink:href="#DejaVuSans-29" x="4394.53125"/>
     </g>
    </g>
   </g>
  </g>
 </g>
 <defs>
  <clipPath id="p32d25073e2">
   <rect x="57.6" y="41.472" width="357.12" height="266.112"/>
  </clipPath>
 </defs>
</svg>
