<?xml version="1.0" encoding="utf-8" standalone="no"?>
<!DOCTYPE svg PUBLIC "-//W3C//DTD SVG 1.1//EN"
  "http://www.w3.org/Graphics/SVG/1.1/DTD/svg11.dtd">
<svg xmlns:xlink="http://www.w3.org/1999/xlink" width="460.8pt" height="345.6pt" viewBox="0 0 460.8 345.6" xmlns="http://www.w3.org/2000/svg" version="1.1">
 <metadata>
  <rdf:RDF xmlns:dc="http://purl.org/dc/elements/1.1/" xmlns:cc="http://creativecommons.org/ns#" xmlns:rdf="http://www.w3.org/1999/02/22-rdf-syntax-ns#">
   <cc:Work>
    <dc:type rdf:resource="http://purl.org/dc/dcmitype/StillImage"/>
    <dc:date>2024-03-08T12:15:27.570651</dc:date>
    <dc:format>image/svg+xml</dc:format>
    <dc:creator>
     <cc:Agent>
      <dc:title>Matplotlib v3.8.2, https://matplotlib.org/</dc:title>
     </cc:Agent>
    </dc:creator>
   </cc:Work>
  </rdf:RDF>
 </metadata>
 <defs>
  <style type="text/css">*{stroke-linejoin: round; stroke-linecap: butt}</style>
 </defs>
 <g id="figure_1">
  <g id="patch_1">
   <path d="M 0 345.6 
L 460.8 345.6 
L 460.8 0 
L 0 0 
z
" style="fill: #ffffff"/>
  </g>
  <g id="axes_1">
   <g id="patch_2">
    <path d="M 57.6 307.584 
L 414.72 307.584 
L 414.72 41.472 
L 57.6 41.472 
z
" style="fill: #ffffff"/>
   </g>
   <g id="matplotlib.axis_1">
    <g id="xtick_1">
     <g id="line2d_1">
      <defs>
       <path id="m20e3041546" d="M 0 0 
L 0 3.5 
" style="stroke: #000000; stroke-width: 0.8"/>
      </defs>
      <g>
       <use xlink:href="#m20e3041546" x="73.832727" y="307.584" style="stroke: #000000; stroke-width: 0.8"/>
      </g>
     </g>
     <g id="text_1">
      <!-- 0 -->
      <g transform="translate(70.651477 322.182437) scale(0.1 -0.1)">
       <defs>
        <path id="DejaVuSans-30" d="M 2034 4250 
Q 1547 4250 1301 3770 
Q 1056 3291 1056 2328 
Q 1056 1369 1301 889 
Q 1547 409 2034 409 
Q 2525 409 2770 889 
Q 3016 1369 3016 2328 
Q 3016 3291 2770 3770 
Q 2525 4250 2034 4250 
z
M 2034 4750 
Q 2819 4750 3233 4129 
Q 3647 3509 3647 2328 
Q 3647 1150 3233 529 
Q 2819 -91 2034 -91 
Q 1250 -91 836 529 
Q 422 1150 422 2328 
Q 422 3509 836 4129 
Q 1250 4750 2034 4750 
z
" transform="scale(0.015625)"/>
       </defs>
       <use xlink:href="#DejaVuSans-30"/>
      </g>
     </g>
    </g>
    <g id="xtick_2">
     <g id="line2d_2">
      <g>
       <use xlink:href="#m20e3041546" x="130.745732" y="307.584" style="stroke: #000000; stroke-width: 0.8"/>
      </g>
     </g>
     <g id="text_2">
      <!-- 50000 -->
      <g transform="translate(114.839482 322.182437) scale(0.1 -0.1)">
       <defs>
        <path id="DejaVuSans-35" d="M 691 4666 
L 3169 4666 
L 3169 4134 
L 1269 4134 
L 1269 2991 
Q 1406 3038 1543 3061 
Q 1681 3084 1819 3084 
Q 2600 3084 3056 2656 
Q 3513 2228 3513 1497 
Q 3513 744 3044 326 
Q 2575 -91 1722 -91 
Q 1428 -91 1123 -41 
Q 819 9 494 109 
L 494 744 
Q 775 591 1075 516 
Q 1375 441 1709 441 
Q 2250 441 2565 725 
Q 2881 1009 2881 1497 
Q 2881 1984 2565 2268 
Q 2250 2553 1709 2553 
Q 1456 2553 1204 2497 
Q 953 2441 691 2322 
L 691 4666 
z
" transform="scale(0.015625)"/>
       </defs>
       <use xlink:href="#DejaVuSans-35"/>
       <use xlink:href="#DejaVuSans-30" x="63.623047"/>
       <use xlink:href="#DejaVuSans-30" x="127.246094"/>
       <use xlink:href="#DejaVuSans-30" x="190.869141"/>
       <use xlink:href="#DejaVuSans-30" x="254.492188"/>
      </g>
     </g>
    </g>
    <g id="xtick_3">
     <g id="line2d_3">
      <g>
       <use xlink:href="#m20e3041546" x="187.658737" y="307.584" style="stroke: #000000; stroke-width: 0.8"/>
      </g>
     </g>
     <g id="text_3">
      <!-- 100000 -->
      <g transform="translate(168.571237 322.182437) scale(0.1 -0.1)">
       <defs>
        <path id="DejaVuSans-31" d="M 794 531 
L 1825 531 
L 1825 4091 
L 703 3866 
L 703 4441 
L 1819 4666 
L 2450 4666 
L 2450 531 
L 3481 531 
L 3481 0 
L 794 0 
L 794 531 
z
" transform="scale(0.015625)"/>
       </defs>
       <use xlink:href="#DejaVuSans-31"/>
       <use xlink:href="#DejaVuSans-30" x="63.623047"/>
       <use xlink:href="#DejaVuSans-30" x="127.246094"/>
       <use xlink:href="#DejaVuSans-30" x="190.869141"/>
       <use xlink:href="#DejaVuSans-30" x="254.492188"/>
       <use xlink:href="#DejaVuSans-30" x="318.115234"/>
      </g>
     </g>
    </g>
    <g id="xtick_4">
     <g id="line2d_4">
      <g>
       <use xlink:href="#m20e3041546" x="244.571742" y="307.584" style="stroke: #000000; stroke-width: 0.8"/>
      </g>
     </g>
     <g id="text_4">
      <!-- 150000 -->
      <g transform="translate(225.484242 322.182437) scale(0.1 -0.1)">
       <use xlink:href="#DejaVuSans-31"/>
       <use xlink:href="#DejaVuSans-35" x="63.623047"/>
       <use xlink:href="#DejaVuSans-30" x="127.246094"/>
       <use xlink:href="#DejaVuSans-30" x="190.869141"/>
       <use xlink:href="#DejaVuSans-30" x="254.492188"/>
       <use xlink:href="#DejaVuSans-30" x="318.115234"/>
      </g>
     </g>
    </g>
    <g id="xtick_5">
     <g id="line2d_5">
      <g>
       <use xlink:href="#m20e3041546" x="301.484747" y="307.584" style="stroke: #000000; stroke-width: 0.8"/>
      </g>
     </g>
     <g id="text_5">
      <!-- 200000 -->
      <g transform="translate(282.397247 322.182437) scale(0.1 -0.1)">
       <defs>
        <path id="DejaVuSans-32" d="M 1228 531 
L 3431 531 
L 3431 0 
L 469 0 
L 469 531 
Q 828 903 1448 1529 
Q 2069 2156 2228 2338 
Q 2531 2678 2651 2914 
Q 2772 3150 2772 3378 
Q 2772 3750 2511 3984 
Q 2250 4219 1831 4219 
Q 1534 4219 1204 4116 
Q 875 4013 500 3803 
L 500 4441 
Q 881 4594 1212 4672 
Q 1544 4750 1819 4750 
Q 2544 4750 2975 4387 
Q 3406 4025 3406 3419 
Q 3406 3131 3298 2873 
Q 3191 2616 2906 2266 
Q 2828 2175 2409 1742 
Q 1991 1309 1228 531 
z
" transform="scale(0.015625)"/>
       </defs>
       <use xlink:href="#DejaVuSans-32"/>
       <use xlink:href="#DejaVuSans-30" x="63.623047"/>
       <use xlink:href="#DejaVuSans-30" x="127.246094"/>
       <use xlink:href="#DejaVuSans-30" x="190.869141"/>
       <use xlink:href="#DejaVuSans-30" x="254.492188"/>
       <use xlink:href="#DejaVuSans-30" x="318.115234"/>
      </g>
     </g>
    </g>
    <g id="xtick_6">
     <g id="line2d_6">
      <g>
       <use xlink:href="#m20e3041546" x="358.397752" y="307.584" style="stroke: #000000; stroke-width: 0.8"/>
      </g>
     </g>
     <g id="text_6">
      <!-- 250000 -->
      <g transform="translate(339.310252 322.182437) scale(0.1 -0.1)">
       <use xlink:href="#DejaVuSans-32"/>
       <use xlink:href="#DejaVuSans-35" x="63.623047"/>
       <use xlink:href="#DejaVuSans-30" x="127.246094"/>
       <use xlink:href="#DejaVuSans-30" x="190.869141"/>
       <use xlink:href="#DejaVuSans-30" x="254.492188"/>
       <use xlink:href="#DejaVuSans-30" x="318.115234"/>
      </g>
     </g>
    </g>
   </g>
   <g id="matplotlib.axis_2">
    <g id="ytick_1">
     <g id="line2d_7">
      <defs>
       <path id="m4acc674433" d="M 0 0 
L -3.5 0 
" style="stroke: #000000; stroke-width: 0.8"/>
      </defs>
      <g>
       <use xlink:href="#m4acc674433" x="57.6" y="295.488" style="stroke: #000000; stroke-width: 0.8"/>
      </g>
     </g>
     <g id="text_7">
      <!-- 0.0 -->
      <g transform="translate(34.696875 299.287219) scale(0.1 -0.1)">
       <defs>
        <path id="DejaVuSans-2e" d="M 684 794 
L 1344 794 
L 1344 0 
L 684 0 
L 684 794 
z
" transform="scale(0.015625)"/>
       </defs>
       <use xlink:href="#DejaVuSans-30"/>
       <use xlink:href="#DejaVuSans-2e" x="63.623047"/>
       <use xlink:href="#DejaVuSans-30" x="95.410156"/>
      </g>
     </g>
    </g>
    <g id="ytick_2">
     <g id="line2d_8">
      <g>
       <use xlink:href="#m4acc674433" x="57.6" y="247.104" style="stroke: #000000; stroke-width: 0.8"/>
      </g>
     </g>
     <g id="text_8">
      <!-- 0.2 -->
      <g transform="translate(34.696875 250.903219) scale(0.1 -0.1)">
       <use xlink:href="#DejaVuSans-30"/>
       <use xlink:href="#DejaVuSans-2e" x="63.623047"/>
       <use xlink:href="#DejaVuSans-32" x="95.410156"/>
      </g>
     </g>
    </g>
    <g id="ytick_3">
     <g id="line2d_9">
      <g>
       <use xlink:href="#m4acc674433" x="57.6" y="198.72" style="stroke: #000000; stroke-width: 0.8"/>
      </g>
     </g>
     <g id="text_9">
      <!-- 0.4 -->
      <g transform="translate(34.696875 202.519219) scale(0.1 -0.1)">
       <defs>
        <path id="DejaVuSans-34" d="M 2419 4116 
L 825 1625 
L 2419 1625 
L 2419 4116 
z
M 2253 4666 
L 3047 4666 
L 3047 1625 
L 3713 1625 
L 3713 1100 
L 3047 1100 
L 3047 0 
L 2419 0 
L 2419 1100 
L 313 1100 
L 313 1709 
L 2253 4666 
z
" transform="scale(0.015625)"/>
       </defs>
       <use xlink:href="#DejaVuSans-30"/>
       <use xlink:href="#DejaVuSans-2e" x="63.623047"/>
       <use xlink:href="#DejaVuSans-34" x="95.410156"/>
      </g>
     </g>
    </g>
    <g id="ytick_4">
     <g id="line2d_10">
      <g>
       <use xlink:href="#m4acc674433" x="57.6" y="150.336" style="stroke: #000000; stroke-width: 0.8"/>
      </g>
     </g>
     <g id="text_10">
      <!-- 0.6 -->
      <g transform="translate(34.696875 154.135219) scale(0.1 -0.1)">
       <defs>
        <path id="DejaVuSans-36" d="M 2113 2584 
Q 1688 2584 1439 2293 
Q 1191 2003 1191 1497 
Q 1191 994 1439 701 
Q 1688 409 2113 409 
Q 2538 409 2786 701 
Q 3034 994 3034 1497 
Q 3034 2003 2786 2293 
Q 2538 2584 2113 2584 
z
M 3366 4563 
L 3366 3988 
Q 3128 4100 2886 4159 
Q 2644 4219 2406 4219 
Q 1781 4219 1451 3797 
Q 1122 3375 1075 2522 
Q 1259 2794 1537 2939 
Q 1816 3084 2150 3084 
Q 2853 3084 3261 2657 
Q 3669 2231 3669 1497 
Q 3669 778 3244 343 
Q 2819 -91 2113 -91 
Q 1303 -91 875 529 
Q 447 1150 447 2328 
Q 447 3434 972 4092 
Q 1497 4750 2381 4750 
Q 2619 4750 2861 4703 
Q 3103 4656 3366 4563 
z
" transform="scale(0.015625)"/>
       </defs>
       <use xlink:href="#DejaVuSans-30"/>
       <use xlink:href="#DejaVuSans-2e" x="63.623047"/>
       <use xlink:href="#DejaVuSans-36" x="95.410156"/>
      </g>
     </g>
    </g>
    <g id="ytick_5">
     <g id="line2d_11">
      <g>
       <use xlink:href="#m4acc674433" x="57.6" y="101.952" style="stroke: #000000; stroke-width: 0.8"/>
      </g>
     </g>
     <g id="text_11">
      <!-- 0.8 -->
      <g transform="translate(34.696875 105.751219) scale(0.1 -0.1)">
       <defs>
        <path id="DejaVuSans-38" d="M 2034 2216 
Q 1584 2216 1326 1975 
Q 1069 1734 1069 1313 
Q 1069 891 1326 650 
Q 1584 409 2034 409 
Q 2484 409 2743 651 
Q 3003 894 3003 1313 
Q 3003 1734 2745 1975 
Q 2488 2216 2034 2216 
z
M 1403 2484 
Q 997 2584 770 2862 
Q 544 3141 544 3541 
Q 544 4100 942 4425 
Q 1341 4750 2034 4750 
Q 2731 4750 3128 4425 
Q 3525 4100 3525 3541 
Q 3525 3141 3298 2862 
Q 3072 2584 2669 2484 
Q 3125 2378 3379 2068 
Q 3634 1759 3634 1313 
Q 3634 634 3220 271 
Q 2806 -91 2034 -91 
Q 1263 -91 848 271 
Q 434 634 434 1313 
Q 434 1759 690 2068 
Q 947 2378 1403 2484 
z
M 1172 3481 
Q 1172 3119 1398 2916 
Q 1625 2713 2034 2713 
Q 2441 2713 2670 2916 
Q 2900 3119 2900 3481 
Q 2900 3844 2670 4047 
Q 2441 4250 2034 4250 
Q 1625 4250 1398 4047 
Q 1172 3844 1172 3481 
z
" transform="scale(0.015625)"/>
       </defs>
       <use xlink:href="#DejaVuSans-30"/>
       <use xlink:href="#DejaVuSans-2e" x="63.623047"/>
       <use xlink:href="#DejaVuSans-38" x="95.410156"/>
      </g>
     </g>
    </g>
    <g id="ytick_6">
     <g id="line2d_12">
      <g>
       <use xlink:href="#m4acc674433" x="57.6" y="53.568" style="stroke: #000000; stroke-width: 0.8"/>
      </g>
     </g>
     <g id="text_12">
      <!-- 1.0 -->
      <g transform="translate(34.696875 57.367219) scale(0.1 -0.1)">
       <use xlink:href="#DejaVuSans-31"/>
       <use xlink:href="#DejaVuSans-2e" x="63.623047"/>
       <use xlink:href="#DejaVuSans-30" x="95.410156"/>
      </g>
     </g>
    </g>
   </g>
   <g id="line2d_13">
    <path d="M 73.832727 295.488 
L 134.570286 295.488 
L 134.570286 294.906462 
L 137.438702 294.906462 
L 137.438702 294.324923 
L 149.492876 294.324923 
L 149.492876 293.743385 
L 151.803544 293.743385 
L 151.803544 293.161846 
L 154.114212 293.161846 
L 154.114212 292.580308 
L 156.42488 292.580308 
L 156.42488 291.998769 
L 158.678635 291.998769 
L 158.678635 291.417231 
L 160.10146 291.417231 
L 160.10146 290.835692 
L 160.955155 290.835692 
L 160.955155 290.254154 
L 163.231675 290.254154 
L 163.231675 289.672615 
L 164.017075 289.672615 
L 164.017075 289.091077 
L 165.48543 289.091077 
L 165.48543 288.509538 
L 167.181438 288.509538 
L 167.181438 287.928 
L 167.71642 287.928 
L 167.71642 287.346462 
L 168.046516 287.346462 
L 168.046516 286.764923 
L 168.205872 286.764923 
L 168.205872 286.183385 
L 170.049853 286.183385 
L 170.049853 285.601846 
L 170.505157 285.601846 
L 170.505157 285.020308 
L 171.245027 285.020308 
L 171.245027 284.438769 
L 172.053191 284.438769 
L 172.053191 283.857231 
L 172.246695 283.857231 
L 172.326374 282.694154 
L 173.123156 282.694154 
L 173.123156 282.112615 
L 173.384956 282.112615 
L 173.384956 281.531077 
L 174.614276 281.531077 
L 174.614276 280.949538 
L 175.319998 280.949538 
L 175.319998 280.368 
L 175.980189 280.368 
L 176.002954 279.204923 
L 176.150928 279.204923 
L 176.150928 278.623385 
L 176.298901 278.623385 
L 176.298901 278.041846 
L 176.902179 278.041846 
L 176.902179 277.460308 
L 178.768926 277.460308 
L 178.768926 276.878769 
L 178.939665 276.878769 
L 178.939665 276.297231 
L 179.155934 276.297231 
L 179.155934 275.715692 
L 179.303908 275.715692 
L 179.303908 275.134154 
L 179.440499 275.134154 
L 179.440499 274.552615 
L 180.021012 274.552615 
L 180.021012 273.971077 
L 180.237281 273.971077 
L 180.237281 273.389538 
L 181.295863 273.389538 
L 181.295863 272.808 
L 181.432454 272.808 
L 181.432454 272.226462 
L 181.614576 272.226462 
L 181.614576 271.644923 
L 181.80808 271.644923 
L 181.80808 271.063385 
L 183.276436 271.063385 
L 183.276436 270.481846 
L 183.413027 270.481846 
L 183.413027 269.900308 
L 183.765888 269.900308 
L 183.765888 269.318769 
L 184.130131 269.318769 
L 184.130131 268.737231 
L 184.243957 268.737231 
L 184.243957 268.155692 
L 184.528522 268.155692 
L 184.528522 267.574154 
L 184.733409 267.574154 
L 184.733409 266.992615 
L 186.05379 266.992615 
L 186.05379 266.411077 
L 186.941633 266.411077 
L 186.941633 265.829538 
L 187.305877 265.829538 
L 187.36279 264.084923 
L 187.601824 264.084923 
L 187.647355 262.921846 
L 188.216485 262.921846 
L 188.307545 261.758769 
L 189.718988 261.758769 
L 189.718988 261.177231 
L 190.037701 261.177231 
L 190.140144 260.014154 
L 190.401944 260.014154 
L 190.401944 259.432615 
L 190.538535 259.432615 
L 190.538535 258.851077 
L 191.255639 258.851077 
L 191.255639 258.269538 
L 191.380848 258.269538 
L 191.380848 257.688 
L 191.65403 257.688 
L 191.65403 257.106462 
L 192.632934 257.106462 
L 192.632934 256.524923 
L 192.928881 256.524923 
L 192.974412 255.361846 
L 193.62322 255.361846 
L 193.62322 254.780308 
L 195.228167 254.780308 
L 195.228167 254.198769 
L 195.398906 254.198769 
L 195.467201 253.035692 
L 195.615175 253.035692 
L 195.717619 251.872615 
L 195.774532 251.872615 
L 195.774532 251.291077 
L 196.457488 251.291077 
L 196.457488 250.709538 
L 198.335617 250.709538 
L 198.335617 250.128 
L 198.586034 250.128 
L 198.597417 248.964923 
L 199.303138 248.964923 
L 199.371434 247.801846 
L 199.57632 247.801846 
L 199.57632 247.220308 
L 201.112972 247.220308 
L 201.112972 246.638769 
L 201.431684 246.638769 
L 201.477215 245.475692 
L 202.091875 245.475692 
L 202.091875 244.894154 
L 202.604092 244.894154 
L 202.604092 244.312615 
L 203.275666 244.312615 
L 203.287048 243.149538 
L 203.5147 243.149538 
L 203.5147 242.568 
L 204.0383 242.568 
L 204.0383 241.986462 
L 204.311482 241.986462 
L 204.334248 240.823385 
L 204.948908 240.823385 
L 204.948908 240.241846 
L 205.426977 240.241846 
L 205.426977 239.660308 
L 206.827037 239.660308 
L 206.827037 239.078769 
L 207.157133 239.078769 
L 207.259576 237.334154 
L 207.498611 237.334154 
L 207.498611 236.752615 
L 207.840089 236.752615 
L 207.942532 235.589538 
L 208.227097 235.589538 
L 208.227097 235.008 
L 209.63854 235.008 
L 209.63854 234.426462 
L 210.048313 234.426462 
L 210.048313 233.844923 
L 210.674356 233.844923 
L 210.674356 233.263385 
L 210.799565 233.263385 
L 210.833713 232.100308 
L 211.072747 232.100308 
L 211.072747 231.518769 
L 211.220721 231.518769 
L 211.243486 230.355692 
L 211.482521 230.355692 
L 211.482521 229.774154 
L 212.495573 229.774154 
L 212.495573 229.192615 
L 212.871198 229.192615 
L 212.871198 228.611077 
L 213.542772 228.611077 
L 213.542772 228.029538 
L 213.679363 228.029538 
L 213.679363 227.448 
L 213.918398 227.448 
L 213.918398 226.866462 
L 214.521676 226.866462 
L 214.521676 226.284923 
L 214.817623 226.284923 
L 214.817623 225.703385 
L 215.136336 225.703385 
L 215.136336 225.121846 
L 215.773762 225.121846 
L 215.773762 224.540308 
L 216.433952 224.540308 
L 216.479483 223.377231 
L 216.786813 223.377231 
L 216.786813 222.795692 
L 218.482821 222.795692 
L 218.482821 222.214154 
L 218.619412 222.214154 
L 218.619412 221.632615 
L 218.869829 221.632615 
L 218.869829 221.051077 
L 219.234072 221.051077 
L 219.256838 219.888 
L 219.666611 219.888 
L 219.666611 219.306462 
L 219.803202 219.306462 
L 219.803202 218.724923 
L 220.09915 218.724923 
L 220.09915 218.143385 
L 220.804871 218.143385 
L 220.804871 217.561846 
L 221.487827 217.561846 
L 221.487827 216.980308 
L 222.102488 216.980308 
L 222.204931 215.235692 
L 222.341522 215.235692 
L 222.341522 214.654154 
L 222.500879 214.654154 
L 222.557792 213.491077 
L 222.626087 213.491077 
L 222.626087 212.909538 
L 222.887887 212.909538 
L 222.887887 212.328 
L 223.673287 212.328 
L 223.673287 211.746462 
L 224.640808 211.746462 
L 224.640808 211.164923 
L 224.959521 211.164923 
L 225.005051 210.001846 
L 225.448972 210.001846 
L 225.448972 209.420308 
L 226.109163 209.420308 
L 226.109163 208.838769 
L 226.496172 208.838769 
L 226.518937 207.675692 
L 226.962858 207.675692 
L 226.962858 207.094154 
L 227.839319 207.094154 
L 227.839319 206.512615 
L 228.351536 206.512615 
L 228.351536 205.931077 
L 229.250761 205.931077 
L 229.250761 205.349538 
L 229.364587 205.349538 
L 229.455648 204.186462 
L 229.72883 204.186462 
L 229.72883 203.604923 
L 230.161369 203.604923 
L 230.161369 203.023385 
L 230.389021 203.023385 
L 230.480082 201.860308 
L 230.662204 201.860308 
L 230.662204 201.278769 
L 231.163038 201.278769 
L 231.163038 200.697231 
L 231.515899 200.697231 
L 231.515899 200.115692 
L 232.039498 200.115692 
L 232.039498 199.534154 
L 232.210237 199.534154 
L 232.26715 198.371077 
L 233.496471 198.371077 
L 233.496471 197.789538 
L 233.792419 197.789538 
L 233.860715 196.626462 
L 234.133897 196.626462 
L 234.133897 196.044923 
L 234.350166 196.044923 
L 234.372932 194.881846 
L 235.112801 194.881846 
L 235.112801 194.300308 
L 236.080322 194.300308 
L 236.182765 193.137231 
L 236.353504 193.137231 
L 236.353504 192.555692 
L 236.615304 192.555692 
L 236.615304 191.974154 
L 237.890155 191.974154 
L 237.912921 190.229538 
L 238.106425 190.229538 
L 238.106425 189.648 
L 238.402372 189.648 
L 238.402372 189.066462 
L 238.869059 189.066462 
L 238.869059 188.484923 
L 238.994268 188.484923 
L 238.994268 187.903385 
L 239.210537 187.903385 
L 239.210537 187.321846 
L 239.939024 187.321846 
L 239.939024 186.740308 
L 240.644745 186.740308 
L 240.644745 186.158769 
L 240.781336 186.158769 
L 240.781336 185.577231 
L 241.168344 185.577231 
L 241.168344 184.995692 
L 241.532588 184.995692 
L 241.532588 184.414154 
L 241.885448 184.414154 
L 241.930979 183.251077 
L 242.02204 183.251077 
L 242.02204 182.669538 
L 242.135866 182.669538 
L 242.181396 181.506462 
L 242.909882 181.506462 
L 242.909882 180.924923 
L 243.46763 180.924923 
L 243.46763 180.343385 
L 243.615604 180.343385 
L 243.615604 179.761846 
L 244.446534 179.761846 
L 244.446534 179.180308 
L 244.708333 179.180308 
L 244.708333 178.598769 
L 244.890455 178.598769 
L 244.890455 178.017231 
L 245.197785 178.017231 
L 245.197785 177.435692 
L 245.539263 177.435692 
L 245.539263 176.854154 
L 245.755533 176.854154 
L 245.846593 175.691077 
L 246.449871 175.691077 
L 246.449871 175.109538 
L 246.609228 175.109538 
L 246.700289 173.946462 
L 247.553984 173.946462 
L 247.553984 173.364923 
L 247.701957 173.364923 
L 247.701957 172.783385 
L 248.009288 172.783385 
L 248.009288 172.201846 
L 248.646713 172.201846 
L 248.646713 171.620308 
L 248.908513 171.620308 
L 248.908513 171.038769 
L 249.329669 171.038769 
L 249.329669 170.457231 
L 249.454878 170.457231 
L 249.454878 169.875692 
L 249.773591 169.875692 
L 249.773591 169.294154 
L 250.285808 169.294154 
L 250.388251 167.549538 
L 250.388251 167.549538 
L 250.536225 167.549538 
L 250.604521 166.386462 
L 251.185033 166.386462 
L 251.185033 165.804923 
L 251.435451 165.804923 
L 251.435451 165.223385 
L 252.141172 165.223385 
L 252.141172 164.641846 
L 252.596476 164.641846 
L 252.596476 164.060308 
L 253.188371 164.060308 
L 253.211136 162.897231 
L 253.31358 162.897231 
L 253.370493 161.734154 
L 253.427406 161.734154 
L 253.427406 160.571077 
L 253.427406 160.571077 
L 253.814414 160.571077 
L 253.814414 159.989538 
L 254.269718 159.989538 
L 254.269718 159.408 
L 254.633961 159.408 
L 254.633961 158.826462 
L 254.941292 158.826462 
L 254.941292 158.244923 
L 255.681161 158.244923 
L 255.681161 157.663385 
L 255.965726 157.663385 
L 255.965726 157.081846 
L 256.1137 157.081846 
L 256.1137 156.500308 
L 257.103986 156.500308 
L 257.115368 155.337231 
L 257.263342 155.337231 
L 257.263342 154.755692 
L 257.991829 154.755692 
L 257.991829 154.174154 
L 258.629254 154.174154 
L 258.629254 153.592615 
L 258.834141 153.592615 
L 258.936585 152.429538 
L 259.539862 152.429538 
L 259.539862 151.848 
L 259.983784 151.848 
L 259.983784 151.266462 
L 260.279731 151.266462 
L 260.279731 150.684923 
L 260.461853 150.684923 
L 260.461853 149.521846 
L 260.461853 149.521846 
L 261.099279 149.521846 
L 261.099279 148.940308 
L 261.645644 148.940308 
L 261.645644 148.358769 
L 261.793617 148.358769 
L 261.85053 147.195692 
L 262.465191 147.195692 
L 262.556252 146.032615 
L 262.63593 146.032615 
L 262.63593 145.451077 
L 262.795286 145.451077 
L 262.795286 144.869538 
L 263.364416 144.869538 
L 263.364416 144.288 
L 264.03599 144.288 
L 264.03599 143.706462 
L 264.468529 143.706462 
L 264.502676 142.543385 
L 264.718946 142.543385 
L 264.718946 141.961846 
L 264.844154 141.961846 
L 264.844154 141.380308 
L 265.595406 141.380308 
L 265.595406 140.798769 
L 266.244214 140.798769 
L 266.31251 139.635692 
L 266.437719 139.635692 
L 266.437719 139.054154 
L 266.562927 139.054154 
L 266.562927 138.472615 
L 267.120675 138.472615 
L 267.120675 137.891077 
L 267.257266 137.891077 
L 267.257266 137.309538 
L 267.632892 137.309538 
L 267.632892 136.728 
L 268.486587 136.728 
L 268.486587 136.146462 
L 268.600413 136.146462 
L 268.600413 135.564923 
L 269.055717 135.564923 
L 269.055717 134.983385 
L 269.340282 134.983385 
L 269.340282 134.401846 
L 270.137064 134.401846 
L 270.137064 133.820308 
L 270.467159 133.820308 
L 270.55822 132.657231 
L 270.854168 132.657231 
L 270.854168 132.075692 
L 271.639567 132.075692 
L 271.639567 131.494154 
L 271.935515 131.494154 
L 271.935515 130.912615 
L 272.447732 130.912615 
L 272.447732 130.331077 
L 272.994097 130.331077 
L 273.073775 129.168 
L 273.938853 129.168 
L 273.938853 128.586462 
L 274.291713 128.586462 
L 274.291713 128.004923 
L 274.507983 128.004923 
L 274.507983 127.423385 
L 274.769783 127.423385 
L 274.769783 126.841846 
L 274.997435 126.841846 
L 274.997435 126.260308 
L 275.37306 126.260308 
L 275.37306 125.678769 
L 275.828364 125.678769 
L 275.828364 125.097231 
L 277.239807 125.097231 
L 277.239807 124.515692 
L 277.638198 124.515692 
L 277.649581 123.352615 
L 278.457745 123.352615 
L 278.503276 122.189538 
L 278.719545 122.189538 
L 278.719545 121.608 
L 279.516327 121.608 
L 279.516327 121.026462 
L 280.506613 121.026462 
L 280.506613 120.444923 
L 280.768413 120.444923 
L 280.768413 119.863385 
L 281.587961 119.863385 
L 281.587961 119.281846 
L 281.80423 119.281846 
L 281.80423 118.700308 
L 282.37336 118.700308 
L 282.37336 118.118769 
L 283.386412 118.118769 
L 283.386412 117.537231 
L 284.08075 117.537231 
L 284.08075 116.955692 
L 285.253158 116.955692 
L 285.253158 116.374154 
L 285.719845 116.374154 
L 285.719845 115.792615 
L 286.209297 115.792615 
L 286.209297 115.211077 
L 286.345888 115.211077 
L 286.345888 114.629538 
L 287.210965 114.629538 
L 287.210965 114.048 
L 288.463052 114.048 
L 288.485817 112.884923 
L 288.576878 112.884923 
L 288.611025 111.721846 
L 289.054947 111.721846 
L 289.11186 110.558769 
L 290.045233 110.558769 
L 290.045233 109.977231 
L 290.785102 109.977231 
L 290.876163 108.814154 
L 291.490823 108.814154 
L 291.490823 108.232615 
L 291.95751 108.232615 
L 291.95751 107.651077 
L 292.48111 107.651077 
L 292.48111 107.069538 
L 292.981944 107.069538 
L 293.027475 105.906462 
L 293.175448 105.906462 
L 293.175448 105.324923 
L 294.382004 105.324923 
L 294.382004 104.743385 
L 295.28123 104.743385 
L 295.28123 104.161846 
L 296.533316 104.161846 
L 296.533316 103.580308 
L 297.159359 103.580308 
L 297.159359 102.998769 
L 297.523602 102.998769 
L 297.523602 102.417231 
L 299.800122 102.417231 
L 299.800122 101.835692 
L 299.959479 101.835692 
L 299.959479 101.254154 
L 300.494461 101.254154 
L 300.494461 100.672615 
L 301.382304 100.672615 
L 301.382304 100.091077 
L 301.80346 100.091077 
L 301.80346 99.509538 
L 302.053877 99.509538 
L 302.053877 98.928 
L 302.759598 98.928 
L 302.759598 98.346462 
L 303.636059 98.346462 
L 303.636059 97.764923 
L 304.34178 97.764923 
L 304.34178 97.183385 
L 304.478371 97.183385 
L 304.478371 96.601846 
L 304.671875 96.601846 
L 304.671875 96.020308 
L 305.673544 96.020308 
L 305.673544 95.438769 
L 305.889814 95.438769 
L 305.889814 94.857231 
L 306.629683 94.857231 
L 306.629683 94.275692 
L 307.574439 94.275692 
L 307.574439 93.694154 
L 308.166334 93.694154 
L 308.166334 93.112615 
L 308.439516 93.112615 
L 308.507812 91.949538 
L 310.385941 91.949538 
L 310.420089 90.786462 
L 311.296549 90.786462 
L 311.296549 90.204923 
L 312.320983 90.204923 
L 312.320983 89.623385 
L 312.707992 89.623385 
L 312.707992 89.041846 
L 312.981174 89.041846 
L 312.981174 88.460308 
L 313.277122 88.460308 
L 313.277122 87.878769 
L 314.096669 87.878769 
L 314.096669 87.297231 
L 314.973129 87.297231 
L 314.973129 86.715692 
L 315.815442 86.715692 
L 315.815442 86.134154 
L 316.134155 86.134154 
L 316.134155 85.552615 
L 316.384572 85.552615 
L 316.384572 84.971077 
L 316.930937 84.971077 
L 316.930937 84.389538 
L 317.249649 84.389538 
L 317.249649 83.808 
L 318.649709 83.808 
L 318.649709 83.226462 
L 318.968422 83.226462 
L 318.968422 82.644923 
L 319.514787 82.644923 
L 319.514787 82.063385 
L 319.844882 82.063385 
L 319.844882 81.481846 
L 320.493691 81.481846 
L 320.493691 80.900308 
L 321.563655 80.900308 
L 321.563655 80.318769 
L 321.779925 80.318769 
L 321.779925 79.155692 
L 321.779925 79.155692 
L 322.690533 79.155692 
L 322.690533 78.574154 
L 323.976767 78.574154 
L 323.976767 77.992615 
L 324.432071 77.992615 
L 324.454836 76.829538 
L 324.591427 76.829538 
L 324.591427 76.248 
L 325.558948 76.248 
L 325.558948 75.666462 
L 326.287435 75.666462 
L 326.287435 75.084923 
L 327.277721 75.084923 
L 327.277721 74.503385 
L 327.49399 74.503385 
L 327.49399 73.921846 
L 328.359068 73.921846 
L 328.359068 72.758769 
L 328.359068 72.758769 
L 328.552572 72.758769 
L 328.552572 72.177231 
L 330.146136 72.177231 
L 330.146136 71.595692 
L 330.373788 71.595692 
L 330.373788 71.014154 
L 330.783562 71.014154 
L 330.783562 70.432615 
L 331.238866 70.432615 
L 331.238866 69.851077 
L 332.934874 69.851077 
L 333.025934 68.688 
L 333.242204 68.688 
L 333.242204 68.106462 
L 334.016221 68.106462 
L 334.016221 67.524923 
L 335.279689 67.524923 
L 335.279689 66.943385 
L 335.803289 66.943385 
L 335.803289 66.361846 
L 336.053706 66.361846 
L 336.053706 65.780308 
L 338.671705 65.780308 
L 338.671705 65.198769 
L 338.910739 65.198769 
L 338.910739 64.617231 
L 341.517355 64.617231 
L 341.517355 64.035692 
L 341.756389 64.035692 
L 341.756389 63.454154 
L 344.397153 63.454154 
L 344.397153 62.872615 
L 344.590657 62.872615 
L 344.590657 62.291077 
L 347.299716 62.291077 
L 347.299716 61.709538 
L 347.527368 61.709538 
L 347.527368 61.128 
L 350.202279 61.128 
L 350.202279 60.546462 
L 350.327488 60.546462 
L 350.327488 59.964923 
L 353.036547 59.964923 
L 353.036547 59.383385 
L 353.207286 59.383385 
L 353.207286 58.801846 
L 355.848049 58.801846 
L 355.848049 58.220308 
L 355.996023 58.220308 
L 355.996023 57.638769 
L 358.6937 57.638769 
L 358.6937 57.057231 
L 358.830291 57.057231 
L 358.830291 56.475692 
L 361.53935 56.475692 
L 361.53935 55.894154 
L 361.687324 55.894154 
L 361.687324 55.312615 
L 364.385 55.312615 
L 364.385 54.731077 
L 379.592155 54.731077 
L 379.592155 54.149538 
L 398.487273 54.149538 
L 398.487273 53.568 
L 398.487273 53.568 
" clip-path="url(#pcf1052c309)" style="fill: none; stroke: #1f77b4; stroke-width: 1.5; stroke-linecap: square"/>
   </g>
   <g id="patch_3">
    <path d="M 57.6 307.584 
L 57.6 41.472 
" style="fill: none; stroke: #000000; stroke-width: 0.8; stroke-linejoin: miter; stroke-linecap: square"/>
   </g>
   <g id="patch_4">
    <path d="M 414.72 307.584 
L 414.72 41.472 
" style="fill: none; stroke: #000000; stroke-width: 0.8; stroke-linejoin: miter; stroke-linecap: square"/>
   </g>
   <g id="patch_5">
    <path d="M 57.6 307.584 
L 414.72 307.584 
" style="fill: none; stroke: #000000; stroke-width: 0.8; stroke-linejoin: miter; stroke-linecap: square"/>
   </g>
   <g id="patch_6">
    <path d="M 57.6 41.472 
L 414.72 41.472 
" style="fill: none; stroke: #000000; stroke-width: 0.8; stroke-linejoin: miter; stroke-linecap: square"/>
   </g>
   <g id="text_13">
    <!-- Execution time between S1 S103 (xx1xx1xx2xx0yyy66xx0yyy66xx1yyy5xx0yyy3xx1xx1yyy5) -->
    <g transform="translate(-48.158438 35.472) scale(0.12 -0.12)">
     <defs>
      <path id="DejaVuSans-45" d="M 628 4666 
L 3578 4666 
L 3578 4134 
L 1259 4134 
L 1259 2753 
L 3481 2753 
L 3481 2222 
L 1259 2222 
L 1259 531 
L 3634 531 
L 3634 0 
L 628 0 
L 628 4666 
z
" transform="scale(0.015625)"/>
      <path id="DejaVuSans-78" d="M 3513 3500 
L 2247 1797 
L 3578 0 
L 2900 0 
L 1881 1375 
L 863 0 
L 184 0 
L 1544 1831 
L 300 3500 
L 978 3500 
L 1906 2253 
L 2834 3500 
L 3513 3500 
z
" transform="scale(0.015625)"/>
      <path id="DejaVuSans-65" d="M 3597 1894 
L 3597 1613 
L 953 1613 
Q 991 1019 1311 708 
Q 1631 397 2203 397 
Q 2534 397 2845 478 
Q 3156 559 3463 722 
L 3463 178 
Q 3153 47 2828 -22 
Q 2503 -91 2169 -91 
Q 1331 -91 842 396 
Q 353 884 353 1716 
Q 353 2575 817 3079 
Q 1281 3584 2069 3584 
Q 2775 3584 3186 3129 
Q 3597 2675 3597 1894 
z
M 3022 2063 
Q 3016 2534 2758 2815 
Q 2500 3097 2075 3097 
Q 1594 3097 1305 2825 
Q 1016 2553 972 2059 
L 3022 2063 
z
" transform="scale(0.015625)"/>
      <path id="DejaVuSans-63" d="M 3122 3366 
L 3122 2828 
Q 2878 2963 2633 3030 
Q 2388 3097 2138 3097 
Q 1578 3097 1268 2742 
Q 959 2388 959 1747 
Q 959 1106 1268 751 
Q 1578 397 2138 397 
Q 2388 397 2633 464 
Q 2878 531 3122 666 
L 3122 134 
Q 2881 22 2623 -34 
Q 2366 -91 2075 -91 
Q 1284 -91 818 406 
Q 353 903 353 1747 
Q 353 2603 823 3093 
Q 1294 3584 2113 3584 
Q 2378 3584 2631 3529 
Q 2884 3475 3122 3366 
z
" transform="scale(0.015625)"/>
      <path id="DejaVuSans-75" d="M 544 1381 
L 544 3500 
L 1119 3500 
L 1119 1403 
Q 1119 906 1312 657 
Q 1506 409 1894 409 
Q 2359 409 2629 706 
Q 2900 1003 2900 1516 
L 2900 3500 
L 3475 3500 
L 3475 0 
L 2900 0 
L 2900 538 
Q 2691 219 2414 64 
Q 2138 -91 1772 -91 
Q 1169 -91 856 284 
Q 544 659 544 1381 
z
M 1991 3584 
L 1991 3584 
z
" transform="scale(0.015625)"/>
      <path id="DejaVuSans-74" d="M 1172 4494 
L 1172 3500 
L 2356 3500 
L 2356 3053 
L 1172 3053 
L 1172 1153 
Q 1172 725 1289 603 
Q 1406 481 1766 481 
L 2356 481 
L 2356 0 
L 1766 0 
Q 1100 0 847 248 
Q 594 497 594 1153 
L 594 3053 
L 172 3053 
L 172 3500 
L 594 3500 
L 594 4494 
L 1172 4494 
z
" transform="scale(0.015625)"/>
      <path id="DejaVuSans-69" d="M 603 3500 
L 1178 3500 
L 1178 0 
L 603 0 
L 603 3500 
z
M 603 4863 
L 1178 4863 
L 1178 4134 
L 603 4134 
L 603 4863 
z
" transform="scale(0.015625)"/>
      <path id="DejaVuSans-6f" d="M 1959 3097 
Q 1497 3097 1228 2736 
Q 959 2375 959 1747 
Q 959 1119 1226 758 
Q 1494 397 1959 397 
Q 2419 397 2687 759 
Q 2956 1122 2956 1747 
Q 2956 2369 2687 2733 
Q 2419 3097 1959 3097 
z
M 1959 3584 
Q 2709 3584 3137 3096 
Q 3566 2609 3566 1747 
Q 3566 888 3137 398 
Q 2709 -91 1959 -91 
Q 1206 -91 779 398 
Q 353 888 353 1747 
Q 353 2609 779 3096 
Q 1206 3584 1959 3584 
z
" transform="scale(0.015625)"/>
      <path id="DejaVuSans-6e" d="M 3513 2113 
L 3513 0 
L 2938 0 
L 2938 2094 
Q 2938 2591 2744 2837 
Q 2550 3084 2163 3084 
Q 1697 3084 1428 2787 
Q 1159 2491 1159 1978 
L 1159 0 
L 581 0 
L 581 3500 
L 1159 3500 
L 1159 2956 
Q 1366 3272 1645 3428 
Q 1925 3584 2291 3584 
Q 2894 3584 3203 3211 
Q 3513 2838 3513 2113 
z
" transform="scale(0.015625)"/>
      <path id="DejaVuSans-20" transform="scale(0.015625)"/>
      <path id="DejaVuSans-6d" d="M 3328 2828 
Q 3544 3216 3844 3400 
Q 4144 3584 4550 3584 
Q 5097 3584 5394 3201 
Q 5691 2819 5691 2113 
L 5691 0 
L 5113 0 
L 5113 2094 
Q 5113 2597 4934 2840 
Q 4756 3084 4391 3084 
Q 3944 3084 3684 2787 
Q 3425 2491 3425 1978 
L 3425 0 
L 2847 0 
L 2847 2094 
Q 2847 2600 2669 2842 
Q 2491 3084 2119 3084 
Q 1678 3084 1418 2786 
Q 1159 2488 1159 1978 
L 1159 0 
L 581 0 
L 581 3500 
L 1159 3500 
L 1159 2956 
Q 1356 3278 1631 3431 
Q 1906 3584 2284 3584 
Q 2666 3584 2933 3390 
Q 3200 3197 3328 2828 
z
" transform="scale(0.015625)"/>
      <path id="DejaVuSans-62" d="M 3116 1747 
Q 3116 2381 2855 2742 
Q 2594 3103 2138 3103 
Q 1681 3103 1420 2742 
Q 1159 2381 1159 1747 
Q 1159 1113 1420 752 
Q 1681 391 2138 391 
Q 2594 391 2855 752 
Q 3116 1113 3116 1747 
z
M 1159 2969 
Q 1341 3281 1617 3432 
Q 1894 3584 2278 3584 
Q 2916 3584 3314 3078 
Q 3713 2572 3713 1747 
Q 3713 922 3314 415 
Q 2916 -91 2278 -91 
Q 1894 -91 1617 61 
Q 1341 213 1159 525 
L 1159 0 
L 581 0 
L 581 4863 
L 1159 4863 
L 1159 2969 
z
" transform="scale(0.015625)"/>
      <path id="DejaVuSans-77" d="M 269 3500 
L 844 3500 
L 1563 769 
L 2278 3500 
L 2956 3500 
L 3675 769 
L 4391 3500 
L 4966 3500 
L 4050 0 
L 3372 0 
L 2619 2869 
L 1863 0 
L 1184 0 
L 269 3500 
z
" transform="scale(0.015625)"/>
      <path id="DejaVuSans-53" d="M 3425 4513 
L 3425 3897 
Q 3066 4069 2747 4153 
Q 2428 4238 2131 4238 
Q 1616 4238 1336 4038 
Q 1056 3838 1056 3469 
Q 1056 3159 1242 3001 
Q 1428 2844 1947 2747 
L 2328 2669 
Q 3034 2534 3370 2195 
Q 3706 1856 3706 1288 
Q 3706 609 3251 259 
Q 2797 -91 1919 -91 
Q 1588 -91 1214 -16 
Q 841 59 441 206 
L 441 856 
Q 825 641 1194 531 
Q 1563 422 1919 422 
Q 2459 422 2753 634 
Q 3047 847 3047 1241 
Q 3047 1584 2836 1778 
Q 2625 1972 2144 2069 
L 1759 2144 
Q 1053 2284 737 2584 
Q 422 2884 422 3419 
Q 422 4038 858 4394 
Q 1294 4750 2059 4750 
Q 2388 4750 2728 4690 
Q 3069 4631 3425 4513 
z
" transform="scale(0.015625)"/>
      <path id="DejaVuSans-33" d="M 2597 2516 
Q 3050 2419 3304 2112 
Q 3559 1806 3559 1356 
Q 3559 666 3084 287 
Q 2609 -91 1734 -91 
Q 1441 -91 1130 -33 
Q 819 25 488 141 
L 488 750 
Q 750 597 1062 519 
Q 1375 441 1716 441 
Q 2309 441 2620 675 
Q 2931 909 2931 1356 
Q 2931 1769 2642 2001 
Q 2353 2234 1838 2234 
L 1294 2234 
L 1294 2753 
L 1863 2753 
Q 2328 2753 2575 2939 
Q 2822 3125 2822 3475 
Q 2822 3834 2567 4026 
Q 2313 4219 1838 4219 
Q 1578 4219 1281 4162 
Q 984 4106 628 3988 
L 628 4550 
Q 988 4650 1302 4700 
Q 1616 4750 1894 4750 
Q 2613 4750 3031 4423 
Q 3450 4097 3450 3541 
Q 3450 3153 3228 2886 
Q 3006 2619 2597 2516 
z
" transform="scale(0.015625)"/>
      <path id="DejaVuSans-28" d="M 1984 4856 
Q 1566 4138 1362 3434 
Q 1159 2731 1159 2009 
Q 1159 1288 1364 580 
Q 1569 -128 1984 -844 
L 1484 -844 
Q 1016 -109 783 600 
Q 550 1309 550 2009 
Q 550 2706 781 3412 
Q 1013 4119 1484 4856 
L 1984 4856 
z
" transform="scale(0.015625)"/>
      <path id="DejaVuSans-79" d="M 2059 -325 
Q 1816 -950 1584 -1140 
Q 1353 -1331 966 -1331 
L 506 -1331 
L 506 -850 
L 844 -850 
Q 1081 -850 1212 -737 
Q 1344 -625 1503 -206 
L 1606 56 
L 191 3500 
L 800 3500 
L 1894 763 
L 2988 3500 
L 3597 3500 
L 2059 -325 
z
" transform="scale(0.015625)"/>
      <path id="DejaVuSans-29" d="M 513 4856 
L 1013 4856 
Q 1481 4119 1714 3412 
Q 1947 2706 1947 2009 
Q 1947 1309 1714 600 
Q 1481 -109 1013 -844 
L 513 -844 
Q 928 -128 1133 580 
Q 1338 1288 1338 2009 
Q 1338 2731 1133 3434 
Q 928 4138 513 4856 
z
" transform="scale(0.015625)"/>
     </defs>
     <use xlink:href="#DejaVuSans-45"/>
     <use xlink:href="#DejaVuSans-78" x="63.183594"/>
     <use xlink:href="#DejaVuSans-65" x="119.238281"/>
     <use xlink:href="#DejaVuSans-63" x="180.761719"/>
     <use xlink:href="#DejaVuSans-75" x="235.742188"/>
     <use xlink:href="#DejaVuSans-74" x="299.121094"/>
     <use xlink:href="#DejaVuSans-69" x="338.330078"/>
     <use xlink:href="#DejaVuSans-6f" x="366.113281"/>
     <use xlink:href="#DejaVuSans-6e" x="427.294922"/>
     <use xlink:href="#DejaVuSans-20" x="490.673828"/>
     <use xlink:href="#DejaVuSans-74" x="522.460938"/>
     <use xlink:href="#DejaVuSans-69" x="561.669922"/>
     <use xlink:href="#DejaVuSans-6d" x="589.453125"/>
     <use xlink:href="#DejaVuSans-65" x="686.865234"/>
     <use xlink:href="#DejaVuSans-20" x="748.388672"/>
     <use xlink:href="#DejaVuSans-62" x="780.175781"/>
     <use xlink:href="#DejaVuSans-65" x="843.652344"/>
     <use xlink:href="#DejaVuSans-74" x="905.175781"/>
     <use xlink:href="#DejaVuSans-77" x="944.384766"/>
     <use xlink:href="#DejaVuSans-65" x="1026.171875"/>
     <use xlink:href="#DejaVuSans-65" x="1087.695312"/>
     <use xlink:href="#DejaVuSans-6e" x="1149.21875"/>
     <use xlink:href="#DejaVuSans-20" x="1212.597656"/>
     <use xlink:href="#DejaVuSans-53" x="1244.384766"/>
     <use xlink:href="#DejaVuSans-31" x="1307.861328"/>
     <use xlink:href="#DejaVuSans-20" x="1371.484375"/>
     <use xlink:href="#DejaVuSans-53" x="1403.271484"/>
     <use xlink:href="#DejaVuSans-31" x="1466.748047"/>
     <use xlink:href="#DejaVuSans-30" x="1530.371094"/>
     <use xlink:href="#DejaVuSans-33" x="1593.994141"/>
     <use xlink:href="#DejaVuSans-20" x="1657.617188"/>
     <use xlink:href="#DejaVuSans-28" x="1689.404297"/>
     <use xlink:href="#DejaVuSans-78" x="1728.417969"/>
     <use xlink:href="#DejaVuSans-78" x="1787.597656"/>
     <use xlink:href="#DejaVuSans-31" x="1846.777344"/>
     <use xlink:href="#DejaVuSans-78" x="1910.400391"/>
     <use xlink:href="#DejaVuSans-78" x="1969.580078"/>
     <use xlink:href="#DejaVuSans-31" x="2028.759766"/>
     <use xlink:href="#DejaVuSans-78" x="2092.382812"/>
     <use xlink:href="#DejaVuSans-78" x="2151.5625"/>
     <use xlink:href="#DejaVuSans-32" x="2210.742188"/>
     <use xlink:href="#DejaVuSans-78" x="2274.365234"/>
     <use xlink:href="#DejaVuSans-78" x="2333.544922"/>
     <use xlink:href="#DejaVuSans-30" x="2392.724609"/>
     <use xlink:href="#DejaVuSans-79" x="2456.347656"/>
     <use xlink:href="#DejaVuSans-79" x="2515.527344"/>
     <use xlink:href="#DejaVuSans-79" x="2574.707031"/>
     <use xlink:href="#DejaVuSans-36" x="2633.886719"/>
     <use xlink:href="#DejaVuSans-36" x="2697.509766"/>
     <use xlink:href="#DejaVuSans-78" x="2761.132812"/>
     <use xlink:href="#DejaVuSans-78" x="2820.3125"/>
     <use xlink:href="#DejaVuSans-30" x="2879.492188"/>
     <use xlink:href="#DejaVuSans-79" x="2943.115234"/>
     <use xlink:href="#DejaVuSans-79" x="3002.294922"/>
     <use xlink:href="#DejaVuSans-79" x="3061.474609"/>
     <use xlink:href="#DejaVuSans-36" x="3120.654297"/>
     <use xlink:href="#DejaVuSans-36" x="3184.277344"/>
     <use xlink:href="#DejaVuSans-78" x="3247.900391"/>
     <use xlink:href="#DejaVuSans-78" x="3307.080078"/>
     <use xlink:href="#DejaVuSans-31" x="3366.259766"/>
     <use xlink:href="#DejaVuSans-79" x="3429.882812"/>
     <use xlink:href="#DejaVuSans-79" x="3489.0625"/>
     <use xlink:href="#DejaVuSans-79" x="3548.242188"/>
     <use xlink:href="#DejaVuSans-35" x="3607.421875"/>
     <use xlink:href="#DejaVuSans-78" x="3671.044922"/>
     <use xlink:href="#DejaVuSans-78" x="3730.224609"/>
     <use xlink:href="#DejaVuSans-30" x="3789.404297"/>
     <use xlink:href="#DejaVuSans-79" x="3853.027344"/>
     <use xlink:href="#DejaVuSans-79" x="3912.207031"/>
     <use xlink:href="#DejaVuSans-79" x="3971.386719"/>
     <use xlink:href="#DejaVuSans-33" x="4030.566406"/>
     <use xlink:href="#DejaVuSans-78" x="4094.189453"/>
     <use xlink:href="#DejaVuSans-78" x="4153.369141"/>
     <use xlink:href="#DejaVuSans-31" x="4212.548828"/>
     <use xlink:href="#DejaVuSans-78" x="4276.171875"/>
     <use xlink:href="#DejaVuSans-78" x="4335.351562"/>
     <use xlink:href="#DejaVuSans-31" x="4394.53125"/>
     <use xlink:href="#DejaVuSans-79" x="4458.154297"/>
     <use xlink:href="#DejaVuSans-79" x="4517.333984"/>
     <use xlink:href="#DejaVuSans-79" x="4576.513672"/>
     <use xlink:href="#DejaVuSans-35" x="4635.693359"/>
     <use xlink:href="#DejaVuSans-29" x="4699.316406"/>
    </g>
   </g>
   <g id="legend_1">
    <g id="patch_7">
     <path d="M 107.001563 304.584 
L 410.52 304.584 
Q 411.72 304.584 411.72 303.384 
L 411.72 295.177125 
Q 411.72 293.977125 410.52 293.977125 
L 107.001563 293.977125 
Q 105.801563 293.977125 105.801563 295.177125 
L 105.801563 303.384 
Q 105.801563 304.584 107.001563 304.584 
z
" style="fill: #ffffff; opacity: 0.8; stroke: #cccccc; stroke-linejoin: miter"/>
    </g>
    <g id="line2d_14">
     <path d="M 108.201563 298.836187 
L 114.201563 298.836187 
L 120.201563 298.836187 
" style="fill: none; stroke: #1f77b4; stroke-width: 1.5; stroke-linecap: square"/>
    </g>
    <g id="text_14">
     <!-- Execution time between S1 S103 (xx1xx1xx2xx0yyy66xx0yyy66xx1yyy5xx0yyy3xx1xx1yyy5) -->
     <g transform="translate(125.001563 300.936187) scale(0.06 -0.06)">
      <use xlink:href="#DejaVuSans-45"/>
      <use xlink:href="#DejaVuSans-78" x="63.183594"/>
      <use xlink:href="#DejaVuSans-65" x="119.238281"/>
      <use xlink:href="#DejaVuSans-63" x="180.761719"/>
      <use xlink:href="#DejaVuSans-75" x="235.742188"/>
      <use xlink:href="#DejaVuSans-74" x="299.121094"/>
      <use xlink:href="#DejaVuSans-69" x="338.330078"/>
      <use xlink:href="#DejaVuSans-6f" x="366.113281"/>
      <use xlink:href="#DejaVuSans-6e" x="427.294922"/>
      <use xlink:href="#DejaVuSans-20" x="490.673828"/>
      <use xlink:href="#DejaVuSans-74" x="522.460938"/>
      <use xlink:href="#DejaVuSans-69" x="561.669922"/>
      <use xlink:href="#DejaVuSans-6d" x="589.453125"/>
      <use xlink:href="#DejaVuSans-65" x="686.865234"/>
      <use xlink:href="#DejaVuSans-20" x="748.388672"/>
      <use xlink:href="#DejaVuSans-62" x="780.175781"/>
      <use xlink:href="#DejaVuSans-65" x="843.652344"/>
      <use xlink:href="#DejaVuSans-74" x="905.175781"/>
      <use xlink:href="#DejaVuSans-77" x="944.384766"/>
      <use xlink:href="#DejaVuSans-65" x="1026.171875"/>
      <use xlink:href="#DejaVuSans-65" x="1087.695312"/>
      <use xlink:href="#DejaVuSans-6e" x="1149.21875"/>
      <use xlink:href="#DejaVuSans-20" x="1212.597656"/>
      <use xlink:href="#DejaVuSans-53" x="1244.384766"/>
      <use xlink:href="#DejaVuSans-31" x="1307.861328"/>
      <use xlink:href="#DejaVuSans-20" x="1371.484375"/>
      <use xlink:href="#DejaVuSans-53" x="1403.271484"/>
      <use xlink:href="#DejaVuSans-31" x="1466.748047"/>
      <use xlink:href="#DejaVuSans-30" x="1530.371094"/>
      <use xlink:href="#DejaVuSans-33" x="1593.994141"/>
      <use xlink:href="#DejaVuSans-20" x="1657.617188"/>
      <use xlink:href="#DejaVuSans-28" x="1689.404297"/>
      <use xlink:href="#DejaVuSans-78" x="1728.417969"/>
      <use xlink:href="#DejaVuSans-78" x="1787.597656"/>
      <use xlink:href="#DejaVuSans-31" x="1846.777344"/>
      <use xlink:href="#DejaVuSans-78" x="1910.400391"/>
      <use xlink:href="#DejaVuSans-78" x="1969.580078"/>
      <use xlink:href="#DejaVuSans-31" x="2028.759766"/>
      <use xlink:href="#DejaVuSans-78" x="2092.382812"/>
      <use xlink:href="#DejaVuSans-78" x="2151.5625"/>
      <use xlink:href="#DejaVuSans-32" x="2210.742188"/>
      <use xlink:href="#DejaVuSans-78" x="2274.365234"/>
      <use xlink:href="#DejaVuSans-78" x="2333.544922"/>
      <use xlink:href="#DejaVuSans-30" x="2392.724609"/>
      <use xlink:href="#DejaVuSans-79" x="2456.347656"/>
      <use xlink:href="#DejaVuSans-79" x="2515.527344"/>
      <use xlink:href="#DejaVuSans-79" x="2574.707031"/>
      <use xlink:href="#DejaVuSans-36" x="2633.886719"/>
      <use xlink:href="#DejaVuSans-36" x="2697.509766"/>
      <use xlink:href="#DejaVuSans-78" x="2761.132812"/>
      <use xlink:href="#DejaVuSans-78" x="2820.3125"/>
      <use xlink:href="#DejaVuSans-30" x="2879.492188"/>
      <use xlink:href="#DejaVuSans-79" x="2943.115234"/>
      <use xlink:href="#DejaVuSans-79" x="3002.294922"/>
      <use xlink:href="#DejaVuSans-79" x="3061.474609"/>
      <use xlink:href="#DejaVuSans-36" x="3120.654297"/>
      <use xlink:href="#DejaVuSans-36" x="3184.277344"/>
      <use xlink:href="#DejaVuSans-78" x="3247.900391"/>
      <use xlink:href="#DejaVuSans-78" x="3307.080078"/>
      <use xlink:href="#DejaVuSans-31" x="3366.259766"/>
      <use xlink:href="#DejaVuSans-79" x="3429.882812"/>
      <use xlink:href="#DejaVuSans-79" x="3489.0625"/>
      <use xlink:href="#DejaVuSans-79" x="3548.242188"/>
      <use xlink:href="#DejaVuSans-35" x="3607.421875"/>
      <use xlink:href="#DejaVuSans-78" x="3671.044922"/>
      <use xlink:href="#DejaVuSans-78" x="3730.224609"/>
      <use xlink:href="#DejaVuSans-30" x="3789.404297"/>
      <use xlink:href="#DejaVuSans-79" x="3853.027344"/>
      <use xlink:href="#DejaVuSans-79" x="3912.207031"/>
      <use xlink:href="#DejaVuSans-79" x="3971.386719"/>
      <use xlink:href="#DejaVuSans-33" x="4030.566406"/>
      <use xlink:href="#DejaVuSans-78" x="4094.189453"/>
      <use xlink:href="#DejaVuSans-78" x="4153.369141"/>
      <use xlink:href="#DejaVuSans-31" x="4212.548828"/>
      <use xlink:href="#DejaVuSans-78" x="4276.171875"/>
      <use xlink:href="#DejaVuSans-78" x="4335.351562"/>
      <use xlink:href="#DejaVuSans-31" x="4394.53125"/>
      <use xlink:href="#DejaVuSans-79" x="4458.154297"/>
      <use xlink:href="#DejaVuSans-79" x="4517.333984"/>
      <use xlink:href="#DejaVuSans-79" x="4576.513672"/>
      <use xlink:href="#DejaVuSans-35" x="4635.693359"/>
      <use xlink:href="#DejaVuSans-29" x="4699.316406"/>
     </g>
    </g>
   </g>
  </g>
 </g>
 <defs>
  <clipPath id="pcf1052c309">
   <rect x="57.6" y="41.472" width="357.12" height="266.112"/>
  </clipPath>
 </defs>
</svg>
