<?xml version="1.0" encoding="utf-8" standalone="no"?>
<!DOCTYPE svg PUBLIC "-//W3C//DTD SVG 1.1//EN"
  "http://www.w3.org/Graphics/SVG/1.1/DTD/svg11.dtd">
<svg xmlns:xlink="http://www.w3.org/1999/xlink" width="460.8pt" height="345.6pt" viewBox="0 0 460.8 345.6" xmlns="http://www.w3.org/2000/svg" version="1.1">
 <metadata>
  <rdf:RDF xmlns:dc="http://purl.org/dc/elements/1.1/" xmlns:cc="http://creativecommons.org/ns#" xmlns:rdf="http://www.w3.org/1999/02/22-rdf-syntax-ns#">
   <cc:Work>
    <dc:type rdf:resource="http://purl.org/dc/dcmitype/StillImage"/>
    <dc:date>2024-03-08T12:06:33.260880</dc:date>
    <dc:format>image/svg+xml</dc:format>
    <dc:creator>
     <cc:Agent>
      <dc:title>Matplotlib v3.8.2, https://matplotlib.org/</dc:title>
     </cc:Agent>
    </dc:creator>
   </cc:Work>
  </rdf:RDF>
 </metadata>
 <defs>
  <style type="text/css">*{stroke-linejoin: round; stroke-linecap: butt}</style>
 </defs>
 <g id="figure_1">
  <g id="patch_1">
   <path d="M 0 345.6 
L 460.8 345.6 
L 460.8 0 
L 0 0 
z
" style="fill: #ffffff"/>
  </g>
  <g id="axes_1">
   <g id="patch_2">
    <path d="M 57.6 307.584 
L 414.72 307.584 
L 414.72 41.472 
L 57.6 41.472 
z
" style="fill: #ffffff"/>
   </g>
   <g id="matplotlib.axis_1">
    <g id="xtick_1">
     <g id="line2d_1">
      <defs>
       <path id="m089f008f45" d="M 0 0 
L 0 3.5 
" style="stroke: #000000; stroke-width: 0.8"/>
      </defs>
      <g>
       <use xlink:href="#m089f008f45" x="70.090149" y="307.584" style="stroke: #000000; stroke-width: 0.8"/>
      </g>
     </g>
     <g id="text_1">
      <!-- 0.0 -->
      <g transform="translate(62.138587 322.182437) scale(0.1 -0.1)">
       <defs>
        <path id="DejaVuSans-30" d="M 2034 4250 
Q 1547 4250 1301 3770 
Q 1056 3291 1056 2328 
Q 1056 1369 1301 889 
Q 1547 409 2034 409 
Q 2525 409 2770 889 
Q 3016 1369 3016 2328 
Q 3016 3291 2770 3770 
Q 2525 4250 2034 4250 
z
M 2034 4750 
Q 2819 4750 3233 4129 
Q 3647 3509 3647 2328 
Q 3647 1150 3233 529 
Q 2819 -91 2034 -91 
Q 1250 -91 836 529 
Q 422 1150 422 2328 
Q 422 3509 836 4129 
Q 1250 4750 2034 4750 
z
" transform="scale(0.015625)"/>
        <path id="DejaVuSans-2e" d="M 684 794 
L 1344 794 
L 1344 0 
L 684 0 
L 684 794 
z
" transform="scale(0.015625)"/>
       </defs>
       <use xlink:href="#DejaVuSans-30"/>
       <use xlink:href="#DejaVuSans-2e" x="63.623047"/>
       <use xlink:href="#DejaVuSans-30" x="95.410156"/>
      </g>
     </g>
    </g>
    <g id="xtick_2">
     <g id="line2d_2">
      <g>
       <use xlink:href="#m089f008f45" x="117.154765" y="307.584" style="stroke: #000000; stroke-width: 0.8"/>
      </g>
     </g>
     <g id="text_2">
      <!-- 0.5 -->
      <g transform="translate(109.203203 322.182437) scale(0.1 -0.1)">
       <defs>
        <path id="DejaVuSans-35" d="M 691 4666 
L 3169 4666 
L 3169 4134 
L 1269 4134 
L 1269 2991 
Q 1406 3038 1543 3061 
Q 1681 3084 1819 3084 
Q 2600 3084 3056 2656 
Q 3513 2228 3513 1497 
Q 3513 744 3044 326 
Q 2575 -91 1722 -91 
Q 1428 -91 1123 -41 
Q 819 9 494 109 
L 494 744 
Q 775 591 1075 516 
Q 1375 441 1709 441 
Q 2250 441 2565 725 
Q 2881 1009 2881 1497 
Q 2881 1984 2565 2268 
Q 2250 2553 1709 2553 
Q 1456 2553 1204 2497 
Q 953 2441 691 2322 
L 691 4666 
z
" transform="scale(0.015625)"/>
       </defs>
       <use xlink:href="#DejaVuSans-30"/>
       <use xlink:href="#DejaVuSans-2e" x="63.623047"/>
       <use xlink:href="#DejaVuSans-35" x="95.410156"/>
      </g>
     </g>
    </g>
    <g id="xtick_3">
     <g id="line2d_3">
      <g>
       <use xlink:href="#m089f008f45" x="164.219381" y="307.584" style="stroke: #000000; stroke-width: 0.8"/>
      </g>
     </g>
     <g id="text_3">
      <!-- 1.0 -->
      <g transform="translate(156.267819 322.182437) scale(0.1 -0.1)">
       <defs>
        <path id="DejaVuSans-31" d="M 794 531 
L 1825 531 
L 1825 4091 
L 703 3866 
L 703 4441 
L 1819 4666 
L 2450 4666 
L 2450 531 
L 3481 531 
L 3481 0 
L 794 0 
L 794 531 
z
" transform="scale(0.015625)"/>
       </defs>
       <use xlink:href="#DejaVuSans-31"/>
       <use xlink:href="#DejaVuSans-2e" x="63.623047"/>
       <use xlink:href="#DejaVuSans-30" x="95.410156"/>
      </g>
     </g>
    </g>
    <g id="xtick_4">
     <g id="line2d_4">
      <g>
       <use xlink:href="#m089f008f45" x="211.283997" y="307.584" style="stroke: #000000; stroke-width: 0.8"/>
      </g>
     </g>
     <g id="text_4">
      <!-- 1.5 -->
      <g transform="translate(203.332435 322.182437) scale(0.1 -0.1)">
       <use xlink:href="#DejaVuSans-31"/>
       <use xlink:href="#DejaVuSans-2e" x="63.623047"/>
       <use xlink:href="#DejaVuSans-35" x="95.410156"/>
      </g>
     </g>
    </g>
    <g id="xtick_5">
     <g id="line2d_5">
      <g>
       <use xlink:href="#m089f008f45" x="258.348613" y="307.584" style="stroke: #000000; stroke-width: 0.8"/>
      </g>
     </g>
     <g id="text_5">
      <!-- 2.0 -->
      <g transform="translate(250.397051 322.182437) scale(0.1 -0.1)">
       <defs>
        <path id="DejaVuSans-32" d="M 1228 531 
L 3431 531 
L 3431 0 
L 469 0 
L 469 531 
Q 828 903 1448 1529 
Q 2069 2156 2228 2338 
Q 2531 2678 2651 2914 
Q 2772 3150 2772 3378 
Q 2772 3750 2511 3984 
Q 2250 4219 1831 4219 
Q 1534 4219 1204 4116 
Q 875 4013 500 3803 
L 500 4441 
Q 881 4594 1212 4672 
Q 1544 4750 1819 4750 
Q 2544 4750 2975 4387 
Q 3406 4025 3406 3419 
Q 3406 3131 3298 2873 
Q 3191 2616 2906 2266 
Q 2828 2175 2409 1742 
Q 1991 1309 1228 531 
z
" transform="scale(0.015625)"/>
       </defs>
       <use xlink:href="#DejaVuSans-32"/>
       <use xlink:href="#DejaVuSans-2e" x="63.623047"/>
       <use xlink:href="#DejaVuSans-30" x="95.410156"/>
      </g>
     </g>
    </g>
    <g id="xtick_6">
     <g id="line2d_6">
      <g>
       <use xlink:href="#m089f008f45" x="305.413229" y="307.584" style="stroke: #000000; stroke-width: 0.8"/>
      </g>
     </g>
     <g id="text_6">
      <!-- 2.5 -->
      <g transform="translate(297.461667 322.182437) scale(0.1 -0.1)">
       <use xlink:href="#DejaVuSans-32"/>
       <use xlink:href="#DejaVuSans-2e" x="63.623047"/>
       <use xlink:href="#DejaVuSans-35" x="95.410156"/>
      </g>
     </g>
    </g>
    <g id="xtick_7">
     <g id="line2d_7">
      <g>
       <use xlink:href="#m089f008f45" x="352.477845" y="307.584" style="stroke: #000000; stroke-width: 0.8"/>
      </g>
     </g>
     <g id="text_7">
      <!-- 3.0 -->
      <g transform="translate(344.526283 322.182437) scale(0.1 -0.1)">
       <defs>
        <path id="DejaVuSans-33" d="M 2597 2516 
Q 3050 2419 3304 2112 
Q 3559 1806 3559 1356 
Q 3559 666 3084 287 
Q 2609 -91 1734 -91 
Q 1441 -91 1130 -33 
Q 819 25 488 141 
L 488 750 
Q 750 597 1062 519 
Q 1375 441 1716 441 
Q 2309 441 2620 675 
Q 2931 909 2931 1356 
Q 2931 1769 2642 2001 
Q 2353 2234 1838 2234 
L 1294 2234 
L 1294 2753 
L 1863 2753 
Q 2328 2753 2575 2939 
Q 2822 3125 2822 3475 
Q 2822 3834 2567 4026 
Q 2313 4219 1838 4219 
Q 1578 4219 1281 4162 
Q 984 4106 628 3988 
L 628 4550 
Q 988 4650 1302 4700 
Q 1616 4750 1894 4750 
Q 2613 4750 3031 4423 
Q 3450 4097 3450 3541 
Q 3450 3153 3228 2886 
Q 3006 2619 2597 2516 
z
" transform="scale(0.015625)"/>
       </defs>
       <use xlink:href="#DejaVuSans-33"/>
       <use xlink:href="#DejaVuSans-2e" x="63.623047"/>
       <use xlink:href="#DejaVuSans-30" x="95.410156"/>
      </g>
     </g>
    </g>
    <g id="xtick_8">
     <g id="line2d_8">
      <g>
       <use xlink:href="#m089f008f45" x="399.542461" y="307.584" style="stroke: #000000; stroke-width: 0.8"/>
      </g>
     </g>
     <g id="text_8">
      <!-- 3.5 -->
      <g transform="translate(391.590899 322.182437) scale(0.1 -0.1)">
       <use xlink:href="#DejaVuSans-33"/>
       <use xlink:href="#DejaVuSans-2e" x="63.623047"/>
       <use xlink:href="#DejaVuSans-35" x="95.410156"/>
      </g>
     </g>
    </g>
    <g id="text_9">
     <!-- 1e6 -->
     <g transform="translate(395.841875 334.860562) scale(0.1 -0.1)">
      <defs>
       <path id="DejaVuSans-65" d="M 3597 1894 
L 3597 1613 
L 953 1613 
Q 991 1019 1311 708 
Q 1631 397 2203 397 
Q 2534 397 2845 478 
Q 3156 559 3463 722 
L 3463 178 
Q 3153 47 2828 -22 
Q 2503 -91 2169 -91 
Q 1331 -91 842 396 
Q 353 884 353 1716 
Q 353 2575 817 3079 
Q 1281 3584 2069 3584 
Q 2775 3584 3186 3129 
Q 3597 2675 3597 1894 
z
M 3022 2063 
Q 3016 2534 2758 2815 
Q 2500 3097 2075 3097 
Q 1594 3097 1305 2825 
Q 1016 2553 972 2059 
L 3022 2063 
z
" transform="scale(0.015625)"/>
       <path id="DejaVuSans-36" d="M 2113 2584 
Q 1688 2584 1439 2293 
Q 1191 2003 1191 1497 
Q 1191 994 1439 701 
Q 1688 409 2113 409 
Q 2538 409 2786 701 
Q 3034 994 3034 1497 
Q 3034 2003 2786 2293 
Q 2538 2584 2113 2584 
z
M 3366 4563 
L 3366 3988 
Q 3128 4100 2886 4159 
Q 2644 4219 2406 4219 
Q 1781 4219 1451 3797 
Q 1122 3375 1075 2522 
Q 1259 2794 1537 2939 
Q 1816 3084 2150 3084 
Q 2853 3084 3261 2657 
Q 3669 2231 3669 1497 
Q 3669 778 3244 343 
Q 2819 -91 2113 -91 
Q 1303 -91 875 529 
Q 447 1150 447 2328 
Q 447 3434 972 4092 
Q 1497 4750 2381 4750 
Q 2619 4750 2861 4703 
Q 3103 4656 3366 4563 
z
" transform="scale(0.015625)"/>
      </defs>
      <use xlink:href="#DejaVuSans-31"/>
      <use xlink:href="#DejaVuSans-65" x="63.623047"/>
      <use xlink:href="#DejaVuSans-36" x="125.146484"/>
     </g>
    </g>
   </g>
   <g id="matplotlib.axis_2">
    <g id="ytick_1">
     <g id="line2d_9">
      <defs>
       <path id="m7df7c19121" d="M 0 0 
L -3.5 0 
" style="stroke: #000000; stroke-width: 0.8"/>
      </defs>
      <g>
       <use xlink:href="#m7df7c19121" x="57.6" y="295.488" style="stroke: #000000; stroke-width: 0.8"/>
      </g>
     </g>
     <g id="text_10">
      <!-- 0 -->
      <g transform="translate(44.2375 299.287219) scale(0.1 -0.1)">
       <use xlink:href="#DejaVuSans-30"/>
      </g>
     </g>
    </g>
    <g id="ytick_2">
     <g id="line2d_10">
      <g>
       <use xlink:href="#m7df7c19121" x="57.6" y="253.777655" style="stroke: #000000; stroke-width: 0.8"/>
      </g>
     </g>
     <g id="text_11">
      <!-- 5 -->
      <g transform="translate(44.2375 257.576874) scale(0.1 -0.1)">
       <use xlink:href="#DejaVuSans-35"/>
      </g>
     </g>
    </g>
    <g id="ytick_3">
     <g id="line2d_11">
      <g>
       <use xlink:href="#m7df7c19121" x="57.6" y="212.06731" style="stroke: #000000; stroke-width: 0.8"/>
      </g>
     </g>
     <g id="text_12">
      <!-- 10 -->
      <g transform="translate(37.875 215.866529) scale(0.1 -0.1)">
       <use xlink:href="#DejaVuSans-31"/>
       <use xlink:href="#DejaVuSans-30" x="63.623047"/>
      </g>
     </g>
    </g>
    <g id="ytick_4">
     <g id="line2d_12">
      <g>
       <use xlink:href="#m7df7c19121" x="57.6" y="170.356966" style="stroke: #000000; stroke-width: 0.8"/>
      </g>
     </g>
     <g id="text_13">
      <!-- 15 -->
      <g transform="translate(37.875 174.156184) scale(0.1 -0.1)">
       <use xlink:href="#DejaVuSans-31"/>
       <use xlink:href="#DejaVuSans-35" x="63.623047"/>
      </g>
     </g>
    </g>
    <g id="ytick_5">
     <g id="line2d_13">
      <g>
       <use xlink:href="#m7df7c19121" x="57.6" y="128.646621" style="stroke: #000000; stroke-width: 0.8"/>
      </g>
     </g>
     <g id="text_14">
      <!-- 20 -->
      <g transform="translate(37.875 132.445839) scale(0.1 -0.1)">
       <use xlink:href="#DejaVuSans-32"/>
       <use xlink:href="#DejaVuSans-30" x="63.623047"/>
      </g>
     </g>
    </g>
    <g id="ytick_6">
     <g id="line2d_14">
      <g>
       <use xlink:href="#m7df7c19121" x="57.6" y="86.936276" style="stroke: #000000; stroke-width: 0.8"/>
      </g>
     </g>
     <g id="text_15">
      <!-- 25 -->
      <g transform="translate(37.875 90.735495) scale(0.1 -0.1)">
       <use xlink:href="#DejaVuSans-32"/>
       <use xlink:href="#DejaVuSans-35" x="63.623047"/>
      </g>
     </g>
    </g>
    <g id="ytick_7">
     <g id="line2d_15">
      <g>
       <use xlink:href="#m7df7c19121" x="57.6" y="45.225931" style="stroke: #000000; stroke-width: 0.8"/>
      </g>
     </g>
     <g id="text_16">
      <!-- 30 -->
      <g transform="translate(37.875 49.02515) scale(0.1 -0.1)">
       <use xlink:href="#DejaVuSans-33"/>
       <use xlink:href="#DejaVuSans-30" x="63.623047"/>
      </g>
     </g>
    </g>
   </g>
   <g id="line2d_16">
    <path d="M 73.832727 270.461793 
L 74.540579 253.777655 
L 75.115709 237.093517 
L 75.596709 295.488 
L 75.822619 278.803862 
L 77.172432 245.435586 
L 77.676024 295.488 
L 77.805922 278.803862 
L 78.464827 270.461793 
L 84.529573 220.409379 
L 85.034106 295.488 
L 85.132942 278.803862 
L 86.164598 245.435586 
L 86.634303 295.488 
L 86.713371 278.803862 
L 87.860807 245.435586 
L 88.338042 295.488 
L 88.353103 278.803862 
L 89.361227 245.435586 
L 89.853523 295.488 
L 89.969302 278.803862 
L 90.98778 245.435586 
L 91.51208 295.488 
L 91.554438 278.803862 
L 92.074031 270.461793 
L 92.642572 253.777655 
L 93.179108 295.488 
L 93.189463 278.803862 
L 94.253123 262.119724 
L 97.98064 253.777655 
L 98.037118 228.751448 
L 98.50494 295.488 
L 98.562359 245.435586 
L 99.035829 295.488 
L 99.069716 262.119724 
L 99.540362 245.435586 
L 99.562953 295.488 
L 100.184206 278.803862 
L 100.715095 295.488 
L 100.947594 278.803862 
L 102.165626 245.435586 
L 102.682396 295.488 
L 102.85277 278.803862 
L 104.16399 245.435586 
L 104.689231 295.488 
L 104.888785 278.803862 
L 106.128467 245.435586 
L 106.649943 295.488 
L 106.845732 278.803862 
L 108.122124 245.435586 
L 108.620068 295.488 
L 108.765968 278.803862 
L 110.086601 245.435586 
L 110.589251 295.488 
L 110.737975 287.145931 
L 114.194401 237.093517 
L 114.321475 295.488 
L 115.22794 262.119724 
L 116.069455 237.093517 
L 116.600344 295.488 
L 128.285547 253.777655 
L 129.325675 178.699034 
L 130.112595 145.330759 
L 130.665134 295.488 
L 130.805386 262.119724 
L 132.352871 195.383172 
L 132.86211 295.488 
L 133.111552 262.119724 
L 134.655272 195.383172 
L 135.12027 295.488 
L 135.448781 262.119724 
L 136.966145 195.383172 
L 137.520566 295.488 
L 137.723885 262.119724 
L 139.153708 195.383172 
L 139.667654 295.488 
L 139.918037 262.119724 
L 141.387395 195.383172 
L 141.966289 295.488 
L 142.215732 262.119724 
L 143.796162 195.383172 
L 144.314814 295.488 
L 144.526604 262.119724 
L 146.110799 195.383172 
L 146.680281 295.488 
L 146.855362 262.119724 
L 148.336014 195.383172 
L 148.840547 295.488 
L 149.10505 262.119724 
L 150.552758 195.383172 
L 151.085529 295.488 
L 151.274729 262.119724 
L 152.011761 237.093517 
L 153.296625 295.488 
L 163.812743 228.751448 
L 165.359286 162.014897 
L 165.874173 295.488 
L 166.160326 262.119724 
L 167.746403 195.383172 
L 168.250936 295.488 
L 168.538972 262.119724 
L 170.088339 195.383172 
L 170.623934 295.488 
L 170.874318 262.119724 
L 172.418979 195.383172 
L 172.903744 295.488 
L 173.133419 262.119724 
L 174.717614 195.383172 
L 175.265447 295.488 
L 175.511124 262.119724 
L 177.124499 195.383172 
L 177.589497 295.488 
L 177.88977 262.119724 
L 178.584443 228.751448 
L 179.265939 203.725241 
L 179.815654 295.488 
L 180.037799 262.119724 
L 181.599403 212.06731 
L 182.111466 295.488 
L 182.400442 262.119724 
L 183.955457 212.06731 
L 184.507996 295.488 
L 184.902397 262.119724 
L 185.757091 245.435586 
L 203.133347 153.672828 
L 203.881674 145.330759 
L 205.264433 128.646621 
L 207.537654 245.435586 
L 207.565893 228.751448 
L 207.721206 295.488 
L 207.72403 278.803862 
L 207.830396 245.435586 
L 208.271862 295.488 
L 208.27751 278.803862 
L 208.429999 262.119724 
L 208.754745 295.488 
L 208.978772 278.803862 
L 209.551078 262.119724 
L 210.054669 295.488 
L 210.090439 278.803862 
L 211.710403 228.751448 
L 211.712285 295.488 
L 212.770298 262.119724 
L 213.276713 295.488 
L 213.341662 278.803862 
L 214.494745 245.435586 
L 214.995513 295.488 
L 215.068934 278.803862 
L 216.10059 245.435586 
L 216.608888 295.488 
L 216.691722 278.803862 
L 218.232617 228.751448 
L 218.247678 295.488 
L 219.278393 262.119724 
L 219.82999 245.435586 
L 219.850699 295.488 
L 220.356173 278.803862 
L 220.908711 270.461793 
L 221.457485 295.488 
L 221.50549 278.803862 
L 223.162165 228.751448 
L 223.203582 295.488 
L 223.673287 278.803862 
L 224.180643 270.461793 
L 224.664468 253.777655 
L 224.704943 295.488 
L 259.637242 245.435586 
L 260.123891 295.488 
L 260.171896 278.803862 
L 261.198846 245.435586 
L 261.763622 295.488 
L 261.793743 278.803862 
L 262.799985 245.435586 
L 263.304517 295.488 
L 263.31393 278.803862 
L 263.866469 270.461793 
L 264.897184 295.488 
L 269.213009 287.145931 
L 270.969461 187.041103 
L 271.079592 295.488 
L 271.705551 262.119724 
L 272.487765 228.751448 
L 273.0083 295.488 
L 273.16832 262.119724 
L 274.669681 195.383172 
L 275.245752 295.488 
L 275.480133 262.119724 
L 277.007851 195.383172 
L 277.518973 295.488 
L 277.729822 262.119724 
L 279.335667 195.383172 
L 279.849612 295.488 
L 280.029399 262.119724 
L 281.373565 228.751448 
L 281.447927 195.383172 
L 281.924221 295.488 
L 282.243319 262.119724 
L 283.700439 195.383172 
L 284.236035 295.488 
L 284.429941 262.119724 
L 285.977425 195.383172 
L 286.538436 295.488 
L 286.717281 262.119724 
L 288.281709 195.383172 
L 288.774005 295.488 
L 289.006504 278.803862 
L 293.826862 195.383172 
L 294.306921 295.488 
L 294.591191 262.119724 
L 296.014425 195.383172 
L 296.559434 295.488 
L 296.814524 262.119724 
L 298.346007 195.383172 
L 298.893839 295.488 
L 299.150811 262.119724 
L 300.616404 195.383172 
L 301.142586 295.488 
L 301.332727 262.119724 
L 302.768198 195.383172 
L 303.247316 295.488 
L 303.584298 262.119724 
L 305.051773 195.383172 
L 305.567601 295.488 
L 305.73421 262.119724 
L 307.257221 195.383172 
L 307.754223 295.488 
L 308.045083 262.119724 
L 309.569035 195.383172 
L 310.084863 295.488 
L 310.328658 262.119724 
L 311.807428 195.383172 
L 312.281839 295.488 
L 312.529399 262.119724 
L 313.988402 195.383172 
L 314.531528 295.488 
L 314.684959 262.119724 
L 316.249387 195.383172 
L 316.704972 295.488 
L 316.961003 262.119724 
L 318.420007 195.383172 
L 318.93207 295.488 
L 319.118445 262.119724 
L 320.632044 195.383172 
L 321.134694 295.488 
L 321.369075 262.119724 
L 322.819607 195.383172 
L 323.29496 295.488 
L 323.605586 270.461793 
L 325.622775 295.488 
L 333.047689 187.041103 
L 335.252196 86.936276 
L 336.752616 53.568 
L 342.03609 295.488 
L 342.093508 195.383172 
L 342.563213 295.488 
L 342.620632 228.751448 
L 343.035742 278.803862 
L 343.097867 220.409379 
L 343.531803 295.488 
L 343.537451 278.803862 
L 343.622167 262.119724 
L 344.062692 295.488 
L 344.089048 278.803862 
L 345.056697 245.435586 
L 345.113174 295.488 
L 346.65407 245.435586 
L 346.663483 295.488 
L 347.713965 262.119724 
L 348.217556 295.488 
L 348.227911 278.803862 
L 349.812106 228.751448 
L 349.861994 295.488 
L 350.311932 278.803862 
L 350.83529 270.461793 
L 351.339823 295.488 
L 351.373709 278.803862 
L 351.816117 262.119724 
L 352.380892 245.435586 
L 352.879777 237.093517 
L 352.883542 295.488 
L 353.414431 278.803862 
L 353.980148 270.461793 
L 354.47715 295.488 
L 354.479033 278.803862 
L 354.992978 262.119724 
L 355.465507 253.777655 
L 355.959686 295.488 
L 355.993572 287.145931 
L 356.891565 270.461793 
L 357.520348 253.777655 
L 358.022998 295.488 
L 358.258322 270.461793 
L 358.900283 262.119724 
L 359.835927 245.435586 
L 360.329165 295.488 
L 360.507069 278.803862 
L 361.856882 245.435586 
L 362.382123 295.488 
L 362.448955 278.803862 
L 363.773353 245.435586 
L 364.312714 295.488 
L 364.485912 278.803862 
L 365.798073 245.435586 
L 366.287545 295.488 
L 366.423091 278.803862 
L 367.769139 245.435586 
L 368.310382 295.488 
L 368.727375 278.803862 
L 370.060245 245.435586 
L 370.584544 295.488 
L 370.725738 278.803862 
L 372.078375 245.435586 
L 372.589497 295.488 
L 372.693039 287.145931 
L 374.773295 228.751448 
L 374.876837 295.488 
L 376.588107 228.751448 
L 377.075696 295.488 
L 377.630117 262.119724 
L 378.513991 228.751448 
L 379.513643 195.383172 
L 380.027589 295.488 
L 380.409754 262.119724 
L 382.333755 195.383172 
L 382.853349 295.488 
L 383.182801 262.119724 
L 384.142919 237.093517 
L 385.273411 195.383172 
L 385.774179 295.488 
L 386.293772 262.119724 
L 388.145294 195.383172 
L 388.696891 295.488 
L 389.016931 262.119724 
L 390.061765 228.751448 
L 390.932461 195.383172 
L 391.424756 295.488 
L 391.902933 262.119724 
L 393.873058 195.383172 
L 394.387945 295.488 
L 394.669391 262.119724 
L 396.598099 195.383172 
L 397.128988 295.488 
L 397.526213 262.119724 
L 398.487273 237.093517 
L 398.487273 237.093517 
" clip-path="url(#pd2d0542630)" style="fill: none; stroke: #1f77b4; stroke-width: 1.5; stroke-linecap: square"/>
   </g>
   <g id="patch_3">
    <path d="M 57.6 307.584 
L 57.6 41.472 
" style="fill: none; stroke: #000000; stroke-width: 0.8; stroke-linejoin: miter; stroke-linecap: square"/>
   </g>
   <g id="patch_4">
    <path d="M 414.72 307.584 
L 414.72 41.472 
" style="fill: none; stroke: #000000; stroke-width: 0.8; stroke-linejoin: miter; stroke-linecap: square"/>
   </g>
   <g id="patch_5">
    <path d="M 57.6 307.584 
L 414.72 307.584 
" style="fill: none; stroke: #000000; stroke-width: 0.8; stroke-linejoin: miter; stroke-linecap: square"/>
   </g>
   <g id="patch_6">
    <path d="M 57.6 41.472 
L 414.72 41.472 
" style="fill: none; stroke: #000000; stroke-width: 0.8; stroke-linejoin: miter; stroke-linecap: square"/>
   </g>
   <g id="text_17">
    <!-- Queue size (y-axis) between S8 and sensors that follow at a time (x-axis). -->
    <g transform="translate(14.282813 35.472) scale(0.12 -0.12)">
     <defs>
      <path id="DejaVuSans-51" d="M 2522 4238 
Q 1834 4238 1429 3725 
Q 1025 3213 1025 2328 
Q 1025 1447 1429 934 
Q 1834 422 2522 422 
Q 3209 422 3611 934 
Q 4013 1447 4013 2328 
Q 4013 3213 3611 3725 
Q 3209 4238 2522 4238 
z
M 3406 84 
L 4238 -825 
L 3475 -825 
L 2784 -78 
Q 2681 -84 2626 -87 
Q 2572 -91 2522 -91 
Q 1538 -91 948 567 
Q 359 1225 359 2328 
Q 359 3434 948 4092 
Q 1538 4750 2522 4750 
Q 3503 4750 4090 4092 
Q 4678 3434 4678 2328 
Q 4678 1516 4351 937 
Q 4025 359 3406 84 
z
" transform="scale(0.015625)"/>
      <path id="DejaVuSans-75" d="M 544 1381 
L 544 3500 
L 1119 3500 
L 1119 1403 
Q 1119 906 1312 657 
Q 1506 409 1894 409 
Q 2359 409 2629 706 
Q 2900 1003 2900 1516 
L 2900 3500 
L 3475 3500 
L 3475 0 
L 2900 0 
L 2900 538 
Q 2691 219 2414 64 
Q 2138 -91 1772 -91 
Q 1169 -91 856 284 
Q 544 659 544 1381 
z
M 1991 3584 
L 1991 3584 
z
" transform="scale(0.015625)"/>
      <path id="DejaVuSans-20" transform="scale(0.015625)"/>
      <path id="DejaVuSans-73" d="M 2834 3397 
L 2834 2853 
Q 2591 2978 2328 3040 
Q 2066 3103 1784 3103 
Q 1356 3103 1142 2972 
Q 928 2841 928 2578 
Q 928 2378 1081 2264 
Q 1234 2150 1697 2047 
L 1894 2003 
Q 2506 1872 2764 1633 
Q 3022 1394 3022 966 
Q 3022 478 2636 193 
Q 2250 -91 1575 -91 
Q 1294 -91 989 -36 
Q 684 19 347 128 
L 347 722 
Q 666 556 975 473 
Q 1284 391 1588 391 
Q 1994 391 2212 530 
Q 2431 669 2431 922 
Q 2431 1156 2273 1281 
Q 2116 1406 1581 1522 
L 1381 1569 
Q 847 1681 609 1914 
Q 372 2147 372 2553 
Q 372 3047 722 3315 
Q 1072 3584 1716 3584 
Q 2034 3584 2315 3537 
Q 2597 3491 2834 3397 
z
" transform="scale(0.015625)"/>
      <path id="DejaVuSans-69" d="M 603 3500 
L 1178 3500 
L 1178 0 
L 603 0 
L 603 3500 
z
M 603 4863 
L 1178 4863 
L 1178 4134 
L 603 4134 
L 603 4863 
z
" transform="scale(0.015625)"/>
      <path id="DejaVuSans-7a" d="M 353 3500 
L 3084 3500 
L 3084 2975 
L 922 459 
L 3084 459 
L 3084 0 
L 275 0 
L 275 525 
L 2438 3041 
L 353 3041 
L 353 3500 
z
" transform="scale(0.015625)"/>
      <path id="DejaVuSans-28" d="M 1984 4856 
Q 1566 4138 1362 3434 
Q 1159 2731 1159 2009 
Q 1159 1288 1364 580 
Q 1569 -128 1984 -844 
L 1484 -844 
Q 1016 -109 783 600 
Q 550 1309 550 2009 
Q 550 2706 781 3412 
Q 1013 4119 1484 4856 
L 1984 4856 
z
" transform="scale(0.015625)"/>
      <path id="DejaVuSans-79" d="M 2059 -325 
Q 1816 -950 1584 -1140 
Q 1353 -1331 966 -1331 
L 506 -1331 
L 506 -850 
L 844 -850 
Q 1081 -850 1212 -737 
Q 1344 -625 1503 -206 
L 1606 56 
L 191 3500 
L 800 3500 
L 1894 763 
L 2988 3500 
L 3597 3500 
L 2059 -325 
z
" transform="scale(0.015625)"/>
      <path id="DejaVuSans-2d" d="M 313 2009 
L 1997 2009 
L 1997 1497 
L 313 1497 
L 313 2009 
z
" transform="scale(0.015625)"/>
      <path id="DejaVuSans-61" d="M 2194 1759 
Q 1497 1759 1228 1600 
Q 959 1441 959 1056 
Q 959 750 1161 570 
Q 1363 391 1709 391 
Q 2188 391 2477 730 
Q 2766 1069 2766 1631 
L 2766 1759 
L 2194 1759 
z
M 3341 1997 
L 3341 0 
L 2766 0 
L 2766 531 
Q 2569 213 2275 61 
Q 1981 -91 1556 -91 
Q 1019 -91 701 211 
Q 384 513 384 1019 
Q 384 1609 779 1909 
Q 1175 2209 1959 2209 
L 2766 2209 
L 2766 2266 
Q 2766 2663 2505 2880 
Q 2244 3097 1772 3097 
Q 1472 3097 1187 3025 
Q 903 2953 641 2809 
L 641 3341 
Q 956 3463 1253 3523 
Q 1550 3584 1831 3584 
Q 2591 3584 2966 3190 
Q 3341 2797 3341 1997 
z
" transform="scale(0.015625)"/>
      <path id="DejaVuSans-78" d="M 3513 3500 
L 2247 1797 
L 3578 0 
L 2900 0 
L 1881 1375 
L 863 0 
L 184 0 
L 1544 1831 
L 300 3500 
L 978 3500 
L 1906 2253 
L 2834 3500 
L 3513 3500 
z
" transform="scale(0.015625)"/>
      <path id="DejaVuSans-29" d="M 513 4856 
L 1013 4856 
Q 1481 4119 1714 3412 
Q 1947 2706 1947 2009 
Q 1947 1309 1714 600 
Q 1481 -109 1013 -844 
L 513 -844 
Q 928 -128 1133 580 
Q 1338 1288 1338 2009 
Q 1338 2731 1133 3434 
Q 928 4138 513 4856 
z
" transform="scale(0.015625)"/>
      <path id="DejaVuSans-62" d="M 3116 1747 
Q 3116 2381 2855 2742 
Q 2594 3103 2138 3103 
Q 1681 3103 1420 2742 
Q 1159 2381 1159 1747 
Q 1159 1113 1420 752 
Q 1681 391 2138 391 
Q 2594 391 2855 752 
Q 3116 1113 3116 1747 
z
M 1159 2969 
Q 1341 3281 1617 3432 
Q 1894 3584 2278 3584 
Q 2916 3584 3314 3078 
Q 3713 2572 3713 1747 
Q 3713 922 3314 415 
Q 2916 -91 2278 -91 
Q 1894 -91 1617 61 
Q 1341 213 1159 525 
L 1159 0 
L 581 0 
L 581 4863 
L 1159 4863 
L 1159 2969 
z
" transform="scale(0.015625)"/>
      <path id="DejaVuSans-74" d="M 1172 4494 
L 1172 3500 
L 2356 3500 
L 2356 3053 
L 1172 3053 
L 1172 1153 
Q 1172 725 1289 603 
Q 1406 481 1766 481 
L 2356 481 
L 2356 0 
L 1766 0 
Q 1100 0 847 248 
Q 594 497 594 1153 
L 594 3053 
L 172 3053 
L 172 3500 
L 594 3500 
L 594 4494 
L 1172 4494 
z
" transform="scale(0.015625)"/>
      <path id="DejaVuSans-77" d="M 269 3500 
L 844 3500 
L 1563 769 
L 2278 3500 
L 2956 3500 
L 3675 769 
L 4391 3500 
L 4966 3500 
L 4050 0 
L 3372 0 
L 2619 2869 
L 1863 0 
L 1184 0 
L 269 3500 
z
" transform="scale(0.015625)"/>
      <path id="DejaVuSans-6e" d="M 3513 2113 
L 3513 0 
L 2938 0 
L 2938 2094 
Q 2938 2591 2744 2837 
Q 2550 3084 2163 3084 
Q 1697 3084 1428 2787 
Q 1159 2491 1159 1978 
L 1159 0 
L 581 0 
L 581 3500 
L 1159 3500 
L 1159 2956 
Q 1366 3272 1645 3428 
Q 1925 3584 2291 3584 
Q 2894 3584 3203 3211 
Q 3513 2838 3513 2113 
z
" transform="scale(0.015625)"/>
      <path id="DejaVuSans-53" d="M 3425 4513 
L 3425 3897 
Q 3066 4069 2747 4153 
Q 2428 4238 2131 4238 
Q 1616 4238 1336 4038 
Q 1056 3838 1056 3469 
Q 1056 3159 1242 3001 
Q 1428 2844 1947 2747 
L 2328 2669 
Q 3034 2534 3370 2195 
Q 3706 1856 3706 1288 
Q 3706 609 3251 259 
Q 2797 -91 1919 -91 
Q 1588 -91 1214 -16 
Q 841 59 441 206 
L 441 856 
Q 825 641 1194 531 
Q 1563 422 1919 422 
Q 2459 422 2753 634 
Q 3047 847 3047 1241 
Q 3047 1584 2836 1778 
Q 2625 1972 2144 2069 
L 1759 2144 
Q 1053 2284 737 2584 
Q 422 2884 422 3419 
Q 422 4038 858 4394 
Q 1294 4750 2059 4750 
Q 2388 4750 2728 4690 
Q 3069 4631 3425 4513 
z
" transform="scale(0.015625)"/>
      <path id="DejaVuSans-38" d="M 2034 2216 
Q 1584 2216 1326 1975 
Q 1069 1734 1069 1313 
Q 1069 891 1326 650 
Q 1584 409 2034 409 
Q 2484 409 2743 651 
Q 3003 894 3003 1313 
Q 3003 1734 2745 1975 
Q 2488 2216 2034 2216 
z
M 1403 2484 
Q 997 2584 770 2862 
Q 544 3141 544 3541 
Q 544 4100 942 4425 
Q 1341 4750 2034 4750 
Q 2731 4750 3128 4425 
Q 3525 4100 3525 3541 
Q 3525 3141 3298 2862 
Q 3072 2584 2669 2484 
Q 3125 2378 3379 2068 
Q 3634 1759 3634 1313 
Q 3634 634 3220 271 
Q 2806 -91 2034 -91 
Q 1263 -91 848 271 
Q 434 634 434 1313 
Q 434 1759 690 2068 
Q 947 2378 1403 2484 
z
M 1172 3481 
Q 1172 3119 1398 2916 
Q 1625 2713 2034 2713 
Q 2441 2713 2670 2916 
Q 2900 3119 2900 3481 
Q 2900 3844 2670 4047 
Q 2441 4250 2034 4250 
Q 1625 4250 1398 4047 
Q 1172 3844 1172 3481 
z
" transform="scale(0.015625)"/>
      <path id="DejaVuSans-64" d="M 2906 2969 
L 2906 4863 
L 3481 4863 
L 3481 0 
L 2906 0 
L 2906 525 
Q 2725 213 2448 61 
Q 2172 -91 1784 -91 
Q 1150 -91 751 415 
Q 353 922 353 1747 
Q 353 2572 751 3078 
Q 1150 3584 1784 3584 
Q 2172 3584 2448 3432 
Q 2725 3281 2906 2969 
z
M 947 1747 
Q 947 1113 1208 752 
Q 1469 391 1925 391 
Q 2381 391 2643 752 
Q 2906 1113 2906 1747 
Q 2906 2381 2643 2742 
Q 2381 3103 1925 3103 
Q 1469 3103 1208 2742 
Q 947 2381 947 1747 
z
" transform="scale(0.015625)"/>
      <path id="DejaVuSans-6f" d="M 1959 3097 
Q 1497 3097 1228 2736 
Q 959 2375 959 1747 
Q 959 1119 1226 758 
Q 1494 397 1959 397 
Q 2419 397 2687 759 
Q 2956 1122 2956 1747 
Q 2956 2369 2687 2733 
Q 2419 3097 1959 3097 
z
M 1959 3584 
Q 2709 3584 3137 3096 
Q 3566 2609 3566 1747 
Q 3566 888 3137 398 
Q 2709 -91 1959 -91 
Q 1206 -91 779 398 
Q 353 888 353 1747 
Q 353 2609 779 3096 
Q 1206 3584 1959 3584 
z
" transform="scale(0.015625)"/>
      <path id="DejaVuSans-72" d="M 2631 2963 
Q 2534 3019 2420 3045 
Q 2306 3072 2169 3072 
Q 1681 3072 1420 2755 
Q 1159 2438 1159 1844 
L 1159 0 
L 581 0 
L 581 3500 
L 1159 3500 
L 1159 2956 
Q 1341 3275 1631 3429 
Q 1922 3584 2338 3584 
Q 2397 3584 2469 3576 
Q 2541 3569 2628 3553 
L 2631 2963 
z
" transform="scale(0.015625)"/>
      <path id="DejaVuSans-68" d="M 3513 2113 
L 3513 0 
L 2938 0 
L 2938 2094 
Q 2938 2591 2744 2837 
Q 2550 3084 2163 3084 
Q 1697 3084 1428 2787 
Q 1159 2491 1159 1978 
L 1159 0 
L 581 0 
L 581 4863 
L 1159 4863 
L 1159 2956 
Q 1366 3272 1645 3428 
Q 1925 3584 2291 3584 
Q 2894 3584 3203 3211 
Q 3513 2838 3513 2113 
z
" transform="scale(0.015625)"/>
      <path id="DejaVuSans-66" d="M 2375 4863 
L 2375 4384 
L 1825 4384 
Q 1516 4384 1395 4259 
Q 1275 4134 1275 3809 
L 1275 3500 
L 2222 3500 
L 2222 3053 
L 1275 3053 
L 1275 0 
L 697 0 
L 697 3053 
L 147 3053 
L 147 3500 
L 697 3500 
L 697 3744 
Q 697 4328 969 4595 
Q 1241 4863 1831 4863 
L 2375 4863 
z
" transform="scale(0.015625)"/>
      <path id="DejaVuSans-6c" d="M 603 4863 
L 1178 4863 
L 1178 0 
L 603 0 
L 603 4863 
z
" transform="scale(0.015625)"/>
      <path id="DejaVuSans-6d" d="M 3328 2828 
Q 3544 3216 3844 3400 
Q 4144 3584 4550 3584 
Q 5097 3584 5394 3201 
Q 5691 2819 5691 2113 
L 5691 0 
L 5113 0 
L 5113 2094 
Q 5113 2597 4934 2840 
Q 4756 3084 4391 3084 
Q 3944 3084 3684 2787 
Q 3425 2491 3425 1978 
L 3425 0 
L 2847 0 
L 2847 2094 
Q 2847 2600 2669 2842 
Q 2491 3084 2119 3084 
Q 1678 3084 1418 2786 
Q 1159 2488 1159 1978 
L 1159 0 
L 581 0 
L 581 3500 
L 1159 3500 
L 1159 2956 
Q 1356 3278 1631 3431 
Q 1906 3584 2284 3584 
Q 2666 3584 2933 3390 
Q 3200 3197 3328 2828 
z
" transform="scale(0.015625)"/>
     </defs>
     <use xlink:href="#DejaVuSans-51"/>
     <use xlink:href="#DejaVuSans-75" x="78.710938"/>
     <use xlink:href="#DejaVuSans-65" x="142.089844"/>
     <use xlink:href="#DejaVuSans-75" x="203.613281"/>
     <use xlink:href="#DejaVuSans-65" x="266.992188"/>
     <use xlink:href="#DejaVuSans-20" x="328.515625"/>
     <use xlink:href="#DejaVuSans-73" x="360.302734"/>
     <use xlink:href="#DejaVuSans-69" x="412.402344"/>
     <use xlink:href="#DejaVuSans-7a" x="440.185547"/>
     <use xlink:href="#DejaVuSans-65" x="492.675781"/>
     <use xlink:href="#DejaVuSans-20" x="554.199219"/>
     <use xlink:href="#DejaVuSans-28" x="585.986328"/>
     <use xlink:href="#DejaVuSans-79" x="625"/>
     <use xlink:href="#DejaVuSans-2d" x="682.429688"/>
     <use xlink:href="#DejaVuSans-61" x="718.513672"/>
     <use xlink:href="#DejaVuSans-78" x="779.792969"/>
     <use xlink:href="#DejaVuSans-69" x="838.972656"/>
     <use xlink:href="#DejaVuSans-73" x="866.755859"/>
     <use xlink:href="#DejaVuSans-29" x="918.855469"/>
     <use xlink:href="#DejaVuSans-20" x="957.869141"/>
     <use xlink:href="#DejaVuSans-62" x="989.65625"/>
     <use xlink:href="#DejaVuSans-65" x="1053.132812"/>
     <use xlink:href="#DejaVuSans-74" x="1114.65625"/>
     <use xlink:href="#DejaVuSans-77" x="1153.865234"/>
     <use xlink:href="#DejaVuSans-65" x="1235.652344"/>
     <use xlink:href="#DejaVuSans-65" x="1297.175781"/>
     <use xlink:href="#DejaVuSans-6e" x="1358.699219"/>
     <use xlink:href="#DejaVuSans-20" x="1422.078125"/>
     <use xlink:href="#DejaVuSans-53" x="1453.865234"/>
     <use xlink:href="#DejaVuSans-38" x="1517.341797"/>
     <use xlink:href="#DejaVuSans-20" x="1580.964844"/>
     <use xlink:href="#DejaVuSans-61" x="1612.751953"/>
     <use xlink:href="#DejaVuSans-6e" x="1674.03125"/>
     <use xlink:href="#DejaVuSans-64" x="1737.410156"/>
     <use xlink:href="#DejaVuSans-20" x="1800.886719"/>
     <use xlink:href="#DejaVuSans-73" x="1832.673828"/>
     <use xlink:href="#DejaVuSans-65" x="1884.773438"/>
     <use xlink:href="#DejaVuSans-6e" x="1946.296875"/>
     <use xlink:href="#DejaVuSans-73" x="2009.675781"/>
     <use xlink:href="#DejaVuSans-6f" x="2061.775391"/>
     <use xlink:href="#DejaVuSans-72" x="2122.957031"/>
     <use xlink:href="#DejaVuSans-73" x="2164.070312"/>
     <use xlink:href="#DejaVuSans-20" x="2216.169922"/>
     <use xlink:href="#DejaVuSans-74" x="2247.957031"/>
     <use xlink:href="#DejaVuSans-68" x="2287.166016"/>
     <use xlink:href="#DejaVuSans-61" x="2350.544922"/>
     <use xlink:href="#DejaVuSans-74" x="2411.824219"/>
     <use xlink:href="#DejaVuSans-20" x="2451.033203"/>
     <use xlink:href="#DejaVuSans-66" x="2482.820312"/>
     <use xlink:href="#DejaVuSans-6f" x="2518.025391"/>
     <use xlink:href="#DejaVuSans-6c" x="2579.207031"/>
     <use xlink:href="#DejaVuSans-6c" x="2606.990234"/>
     <use xlink:href="#DejaVuSans-6f" x="2634.773438"/>
     <use xlink:href="#DejaVuSans-77" x="2695.955078"/>
     <use xlink:href="#DejaVuSans-20" x="2777.742188"/>
     <use xlink:href="#DejaVuSans-61" x="2809.529297"/>
     <use xlink:href="#DejaVuSans-74" x="2870.808594"/>
     <use xlink:href="#DejaVuSans-20" x="2910.017578"/>
     <use xlink:href="#DejaVuSans-61" x="2941.804688"/>
     <use xlink:href="#DejaVuSans-20" x="3003.083984"/>
     <use xlink:href="#DejaVuSans-74" x="3034.871094"/>
     <use xlink:href="#DejaVuSans-69" x="3074.080078"/>
     <use xlink:href="#DejaVuSans-6d" x="3101.863281"/>
     <use xlink:href="#DejaVuSans-65" x="3199.275391"/>
     <use xlink:href="#DejaVuSans-20" x="3260.798828"/>
     <use xlink:href="#DejaVuSans-28" x="3292.585938"/>
     <use xlink:href="#DejaVuSans-78" x="3331.599609"/>
     <use xlink:href="#DejaVuSans-2d" x="3390.779297"/>
     <use xlink:href="#DejaVuSans-61" x="3426.863281"/>
     <use xlink:href="#DejaVuSans-78" x="3488.142578"/>
     <use xlink:href="#DejaVuSans-69" x="3547.322266"/>
     <use xlink:href="#DejaVuSans-73" x="3575.105469"/>
     <use xlink:href="#DejaVuSans-29" x="3627.205078"/>
     <use xlink:href="#DejaVuSans-2e" x="3666.21875"/>
    </g>
   </g>
  </g>
 </g>
 <defs>
  <clipPath id="pd2d0542630">
   <rect x="57.6" y="41.472" width="357.12" height="266.112"/>
  </clipPath>
 </defs>
</svg>
