<?xml version="1.0" encoding="utf-8" standalone="no"?>
<!DOCTYPE svg PUBLIC "-//W3C//DTD SVG 1.1//EN"
  "http://www.w3.org/Graphics/SVG/1.1/DTD/svg11.dtd">
<svg xmlns:xlink="http://www.w3.org/1999/xlink" width="460.8pt" height="345.6pt" viewBox="0 0 460.8 345.6" xmlns="http://www.w3.org/2000/svg" version="1.1">
 <metadata>
  <rdf:RDF xmlns:dc="http://purl.org/dc/elements/1.1/" xmlns:cc="http://creativecommons.org/ns#" xmlns:rdf="http://www.w3.org/1999/02/22-rdf-syntax-ns#">
   <cc:Work>
    <dc:type rdf:resource="http://purl.org/dc/dcmitype/StillImage"/>
    <dc:date>2024-03-08T13:52:54.690853</dc:date>
    <dc:format>image/svg+xml</dc:format>
    <dc:creator>
     <cc:Agent>
      <dc:title>Matplotlib v3.8.2, https://matplotlib.org/</dc:title>
     </cc:Agent>
    </dc:creator>
   </cc:Work>
  </rdf:RDF>
 </metadata>
 <defs>
  <style type="text/css">*{stroke-linejoin: round; stroke-linecap: butt}</style>
 </defs>
 <g id="figure_1">
  <g id="patch_1">
   <path d="M 0 345.6 
L 460.8 345.6 
L 460.8 0 
L 0 0 
z
" style="fill: #ffffff"/>
  </g>
  <g id="axes_1">
   <g id="patch_2">
    <path d="M 57.6 307.584 
L 414.72 307.584 
L 414.72 41.472 
L 57.6 41.472 
z
" style="fill: #ffffff"/>
   </g>
   <g id="matplotlib.axis_1">
    <g id="xtick_1">
     <g id="line2d_1">
      <defs>
       <path id="md1ad84383b" d="M 0 0 
L 0 3.5 
" style="stroke: #000000; stroke-width: 0.8"/>
      </defs>
      <g>
       <use xlink:href="#md1ad84383b" x="73.832727" y="307.584" style="stroke: #000000; stroke-width: 0.8"/>
      </g>
     </g>
     <g id="text_1">
      <!-- 0 -->
      <g transform="translate(70.651477 322.182437) scale(0.1 -0.1)">
       <defs>
        <path id="DejaVuSans-30" d="M 2034 4250 
Q 1547 4250 1301 3770 
Q 1056 3291 1056 2328 
Q 1056 1369 1301 889 
Q 1547 409 2034 409 
Q 2525 409 2770 889 
Q 3016 1369 3016 2328 
Q 3016 3291 2770 3770 
Q 2525 4250 2034 4250 
z
M 2034 4750 
Q 2819 4750 3233 4129 
Q 3647 3509 3647 2328 
Q 3647 1150 3233 529 
Q 2819 -91 2034 -91 
Q 1250 -91 836 529 
Q 422 1150 422 2328 
Q 422 3509 836 4129 
Q 1250 4750 2034 4750 
z
" transform="scale(0.015625)"/>
       </defs>
       <use xlink:href="#DejaVuSans-30"/>
      </g>
     </g>
    </g>
    <g id="xtick_2">
     <g id="line2d_2">
      <g>
       <use xlink:href="#md1ad84383b" x="145.890112" y="307.584" style="stroke: #000000; stroke-width: 0.8"/>
      </g>
     </g>
     <g id="text_2">
      <!-- 20000 -->
      <g transform="translate(129.983862 322.182437) scale(0.1 -0.1)">
       <defs>
        <path id="DejaVuSans-32" d="M 1228 531 
L 3431 531 
L 3431 0 
L 469 0 
L 469 531 
Q 828 903 1448 1529 
Q 2069 2156 2228 2338 
Q 2531 2678 2651 2914 
Q 2772 3150 2772 3378 
Q 2772 3750 2511 3984 
Q 2250 4219 1831 4219 
Q 1534 4219 1204 4116 
Q 875 4013 500 3803 
L 500 4441 
Q 881 4594 1212 4672 
Q 1544 4750 1819 4750 
Q 2544 4750 2975 4387 
Q 3406 4025 3406 3419 
Q 3406 3131 3298 2873 
Q 3191 2616 2906 2266 
Q 2828 2175 2409 1742 
Q 1991 1309 1228 531 
z
" transform="scale(0.015625)"/>
       </defs>
       <use xlink:href="#DejaVuSans-32"/>
       <use xlink:href="#DejaVuSans-30" x="63.623047"/>
       <use xlink:href="#DejaVuSans-30" x="127.246094"/>
       <use xlink:href="#DejaVuSans-30" x="190.869141"/>
       <use xlink:href="#DejaVuSans-30" x="254.492188"/>
      </g>
     </g>
    </g>
    <g id="xtick_3">
     <g id="line2d_3">
      <g>
       <use xlink:href="#md1ad84383b" x="217.947496" y="307.584" style="stroke: #000000; stroke-width: 0.8"/>
      </g>
     </g>
     <g id="text_3">
      <!-- 40000 -->
      <g transform="translate(202.041246 322.182437) scale(0.1 -0.1)">
       <defs>
        <path id="DejaVuSans-34" d="M 2419 4116 
L 825 1625 
L 2419 1625 
L 2419 4116 
z
M 2253 4666 
L 3047 4666 
L 3047 1625 
L 3713 1625 
L 3713 1100 
L 3047 1100 
L 3047 0 
L 2419 0 
L 2419 1100 
L 313 1100 
L 313 1709 
L 2253 4666 
z
" transform="scale(0.015625)"/>
       </defs>
       <use xlink:href="#DejaVuSans-34"/>
       <use xlink:href="#DejaVuSans-30" x="63.623047"/>
       <use xlink:href="#DejaVuSans-30" x="127.246094"/>
       <use xlink:href="#DejaVuSans-30" x="190.869141"/>
       <use xlink:href="#DejaVuSans-30" x="254.492188"/>
      </g>
     </g>
    </g>
    <g id="xtick_4">
     <g id="line2d_4">
      <g>
       <use xlink:href="#md1ad84383b" x="290.00488" y="307.584" style="stroke: #000000; stroke-width: 0.8"/>
      </g>
     </g>
     <g id="text_4">
      <!-- 60000 -->
      <g transform="translate(274.09863 322.182437) scale(0.1 -0.1)">
       <defs>
        <path id="DejaVuSans-36" d="M 2113 2584 
Q 1688 2584 1439 2293 
Q 1191 2003 1191 1497 
Q 1191 994 1439 701 
Q 1688 409 2113 409 
Q 2538 409 2786 701 
Q 3034 994 3034 1497 
Q 3034 2003 2786 2293 
Q 2538 2584 2113 2584 
z
M 3366 4563 
L 3366 3988 
Q 3128 4100 2886 4159 
Q 2644 4219 2406 4219 
Q 1781 4219 1451 3797 
Q 1122 3375 1075 2522 
Q 1259 2794 1537 2939 
Q 1816 3084 2150 3084 
Q 2853 3084 3261 2657 
Q 3669 2231 3669 1497 
Q 3669 778 3244 343 
Q 2819 -91 2113 -91 
Q 1303 -91 875 529 
Q 447 1150 447 2328 
Q 447 3434 972 4092 
Q 1497 4750 2381 4750 
Q 2619 4750 2861 4703 
Q 3103 4656 3366 4563 
z
" transform="scale(0.015625)"/>
       </defs>
       <use xlink:href="#DejaVuSans-36"/>
       <use xlink:href="#DejaVuSans-30" x="63.623047"/>
       <use xlink:href="#DejaVuSans-30" x="127.246094"/>
       <use xlink:href="#DejaVuSans-30" x="190.869141"/>
       <use xlink:href="#DejaVuSans-30" x="254.492188"/>
      </g>
     </g>
    </g>
    <g id="xtick_5">
     <g id="line2d_5">
      <g>
       <use xlink:href="#md1ad84383b" x="362.062265" y="307.584" style="stroke: #000000; stroke-width: 0.8"/>
      </g>
     </g>
     <g id="text_5">
      <!-- 80000 -->
      <g transform="translate(346.156015 322.182437) scale(0.1 -0.1)">
       <defs>
        <path id="DejaVuSans-38" d="M 2034 2216 
Q 1584 2216 1326 1975 
Q 1069 1734 1069 1313 
Q 1069 891 1326 650 
Q 1584 409 2034 409 
Q 2484 409 2743 651 
Q 3003 894 3003 1313 
Q 3003 1734 2745 1975 
Q 2488 2216 2034 2216 
z
M 1403 2484 
Q 997 2584 770 2862 
Q 544 3141 544 3541 
Q 544 4100 942 4425 
Q 1341 4750 2034 4750 
Q 2731 4750 3128 4425 
Q 3525 4100 3525 3541 
Q 3525 3141 3298 2862 
Q 3072 2584 2669 2484 
Q 3125 2378 3379 2068 
Q 3634 1759 3634 1313 
Q 3634 634 3220 271 
Q 2806 -91 2034 -91 
Q 1263 -91 848 271 
Q 434 634 434 1313 
Q 434 1759 690 2068 
Q 947 2378 1403 2484 
z
M 1172 3481 
Q 1172 3119 1398 2916 
Q 1625 2713 2034 2713 
Q 2441 2713 2670 2916 
Q 2900 3119 2900 3481 
Q 2900 3844 2670 4047 
Q 2441 4250 2034 4250 
Q 1625 4250 1398 4047 
Q 1172 3844 1172 3481 
z
" transform="scale(0.015625)"/>
       </defs>
       <use xlink:href="#DejaVuSans-38"/>
       <use xlink:href="#DejaVuSans-30" x="63.623047"/>
       <use xlink:href="#DejaVuSans-30" x="127.246094"/>
       <use xlink:href="#DejaVuSans-30" x="190.869141"/>
       <use xlink:href="#DejaVuSans-30" x="254.492188"/>
      </g>
     </g>
    </g>
   </g>
   <g id="matplotlib.axis_2">
    <g id="ytick_1">
     <g id="line2d_6">
      <defs>
       <path id="m0f8a71dbb7" d="M 0 0 
L -3.5 0 
" style="stroke: #000000; stroke-width: 0.8"/>
      </defs>
      <g>
       <use xlink:href="#m0f8a71dbb7" x="57.6" y="295.488" style="stroke: #000000; stroke-width: 0.8"/>
      </g>
     </g>
     <g id="text_6">
      <!-- 0.0 -->
      <g transform="translate(34.696875 299.287219) scale(0.1 -0.1)">
       <defs>
        <path id="DejaVuSans-2e" d="M 684 794 
L 1344 794 
L 1344 0 
L 684 0 
L 684 794 
z
" transform="scale(0.015625)"/>
       </defs>
       <use xlink:href="#DejaVuSans-30"/>
       <use xlink:href="#DejaVuSans-2e" x="63.623047"/>
       <use xlink:href="#DejaVuSans-30" x="95.410156"/>
      </g>
     </g>
    </g>
    <g id="ytick_2">
     <g id="line2d_7">
      <g>
       <use xlink:href="#m0f8a71dbb7" x="57.6" y="247.104" style="stroke: #000000; stroke-width: 0.8"/>
      </g>
     </g>
     <g id="text_7">
      <!-- 0.2 -->
      <g transform="translate(34.696875 250.903219) scale(0.1 -0.1)">
       <use xlink:href="#DejaVuSans-30"/>
       <use xlink:href="#DejaVuSans-2e" x="63.623047"/>
       <use xlink:href="#DejaVuSans-32" x="95.410156"/>
      </g>
     </g>
    </g>
    <g id="ytick_3">
     <g id="line2d_8">
      <g>
       <use xlink:href="#m0f8a71dbb7" x="57.6" y="198.72" style="stroke: #000000; stroke-width: 0.8"/>
      </g>
     </g>
     <g id="text_8">
      <!-- 0.4 -->
      <g transform="translate(34.696875 202.519219) scale(0.1 -0.1)">
       <use xlink:href="#DejaVuSans-30"/>
       <use xlink:href="#DejaVuSans-2e" x="63.623047"/>
       <use xlink:href="#DejaVuSans-34" x="95.410156"/>
      </g>
     </g>
    </g>
    <g id="ytick_4">
     <g id="line2d_9">
      <g>
       <use xlink:href="#m0f8a71dbb7" x="57.6" y="150.336" style="stroke: #000000; stroke-width: 0.8"/>
      </g>
     </g>
     <g id="text_9">
      <!-- 0.6 -->
      <g transform="translate(34.696875 154.135219) scale(0.1 -0.1)">
       <use xlink:href="#DejaVuSans-30"/>
       <use xlink:href="#DejaVuSans-2e" x="63.623047"/>
       <use xlink:href="#DejaVuSans-36" x="95.410156"/>
      </g>
     </g>
    </g>
    <g id="ytick_5">
     <g id="line2d_10">
      <g>
       <use xlink:href="#m0f8a71dbb7" x="57.6" y="101.952" style="stroke: #000000; stroke-width: 0.8"/>
      </g>
     </g>
     <g id="text_10">
      <!-- 0.8 -->
      <g transform="translate(34.696875 105.751219) scale(0.1 -0.1)">
       <use xlink:href="#DejaVuSans-30"/>
       <use xlink:href="#DejaVuSans-2e" x="63.623047"/>
       <use xlink:href="#DejaVuSans-38" x="95.410156"/>
      </g>
     </g>
    </g>
    <g id="ytick_6">
     <g id="line2d_11">
      <g>
       <use xlink:href="#m0f8a71dbb7" x="57.6" y="53.568" style="stroke: #000000; stroke-width: 0.8"/>
      </g>
     </g>
     <g id="text_11">
      <!-- 1.0 -->
      <g transform="translate(34.696875 57.367219) scale(0.1 -0.1)">
       <defs>
        <path id="DejaVuSans-31" d="M 794 531 
L 1825 531 
L 1825 4091 
L 703 3866 
L 703 4441 
L 1819 4666 
L 2450 4666 
L 2450 531 
L 3481 531 
L 3481 0 
L 794 0 
L 794 531 
z
" transform="scale(0.015625)"/>
       </defs>
       <use xlink:href="#DejaVuSans-31"/>
       <use xlink:href="#DejaVuSans-2e" x="63.623047"/>
       <use xlink:href="#DejaVuSans-30" x="95.410156"/>
      </g>
     </g>
    </g>
   </g>
   <g id="line2d_12">
    <path d="M 73.832727 295.488 
L 81.939183 295.488 
L 82.047269 147.410456 
L 82.047269 147.410456 
L 82.263441 147.410456 
L 82.263441 147.185414 
L 83.164159 147.185414 
L 83.200187 146.060205 
L 83.200187 146.060205 
L 83.740618 146.060205 
L 83.740618 145.835163 
L 84.028847 145.835163 
L 84.028847 145.610121 
L 84.208991 145.610121 
L 84.208991 145.385079 
L 84.78545 145.385079 
L 84.78545 145.160037 
L 85.758224 145.160037 
L 85.758224 144.934995 
L 86.226597 144.934995 
L 86.226597 144.709953 
L 86.803056 144.709953 
L 86.839085 143.809786 
L 86.839085 143.809786 
L 87.235401 143.809786 
L 87.235401 143.584744 
L 88.100089 143.584744 
L 88.100089 143.359702 
L 88.35229 143.359702 
L 88.424348 142.909619 
L 89.18095 142.909619 
L 89.216979 142.234493 
L 89.901524 142.234493 
L 90.00961 141.784409 
L 90.153725 141.784409 
L 90.225782 141.109284 
L 90.29784 141.109284 
L 90.333868 140.6592 
L 90.441954 140.6592 
L 90.477983 139.759033 
L 90.694155 139.759033 
L 90.730184 139.083907 
L 90.83827 139.083907 
L 90.83827 138.858865 
L 92.49559 138.858865 
L 92.603676 138.408781 
L 92.855877 138.408781 
L 92.891905 137.958698 
L 93.03602 137.958698 
L 93.072049 137.283572 
L 93.180135 137.283572 
L 93.288221 136.833488 
L 93.504393 136.833488 
L 93.576451 136.383405 
L 93.936738 136.383405 
L 93.936738 136.158363 
L 94.441139 136.158363 
L 94.441139 135.708279 
L 94.441139 135.708279 
L 95.702143 135.708279 
L 95.702143 135.483237 
L 96.494775 135.483237 
L 96.602861 135.033153 
L 96.674918 135.033153 
L 96.746976 134.58307 
L 96.999176 134.58307 
L 96.999176 133.682902 
L 96.999176 133.682902 
L 97.215349 133.682902 
L 97.215349 133.45786 
L 97.539607 133.45786 
L 97.539607 133.232819 
L 98.080037 133.232819 
L 98.080037 133.007777 
L 98.440324 133.007777 
L 98.440324 132.782735 
L 98.620468 132.782735 
L 98.620468 132.557693 
L 98.872668 132.557693 
L 98.872668 132.332651 
L 99.052812 132.332651 
L 99.088841 131.432484 
L 99.232955 131.432484 
L 99.232955 131.207442 
L 99.449127 131.207442 
L 99.485156 130.757358 
L 99.6653 130.757358 
L 99.737357 130.307274 
L 99.881472 130.307274 
L 99.989558 129.857191 
L 100.638074 129.857191 
L 100.674103 128.957023 
L 100.674103 128.957023 
L 100.890275 128.957023 
L 100.962333 127.606772 
L 100.962333 127.606772 
L 101.430706 127.606772 
L 101.430706 127.38173 
L 101.754964 127.38173 
L 101.86305 126.706605 
L 102.475538 126.706605 
L 102.475538 125.806437 
L 102.475538 125.806437 
L 104.096829 125.806437 
L 104.096829 125.581395 
L 104.240943 125.581395 
L 104.240943 125.356353 
L 104.529173 125.356353 
L 104.529173 125.131312 
L 104.853431 125.131312 
L 104.961517 124.681228 
L 105.141661 124.681228 
L 105.177689 124.231144 
L 105.357833 124.231144 
L 105.357833 124.006102 
L 105.682091 124.006102 
L 105.682091 123.78106 
L 106.474722 123.78106 
L 106.582808 123.105935 
L 106.582808 123.105935 
L 106.726923 123.105935 
L 106.726923 122.655851 
L 106.726923 122.655851 
L 106.979124 122.655851 
L 106.979124 121.755684 
L 106.979124 121.755684 
L 107.591612 121.755684 
L 107.591612 121.530642 
L 108.059985 121.530642 
L 108.059985 121.3056 
L 108.2041 121.3056 
L 108.2041 121.080558 
L 108.384243 121.080558 
L 108.4563 120.630474 
L 108.564387 120.630474 
L 108.564387 120.405433 
L 108.960702 120.405433 
L 108.960702 120.180391 
L 109.429075 120.180391 
L 109.429075 119.955349 
L 112.05917 119.955349 
L 112.05917 119.730307 
L 112.347399 119.730307 
L 112.455485 119.055181 
L 112.455485 119.055181 
L 113.14003 119.055181 
L 113.212088 118.605098 
L 113.788547 118.605098 
L 113.860604 118.155014 
L 114.040748 118.155014 
L 114.040748 117.929972 
L 114.220891 117.929972 
L 114.328977 116.579721 
L 115.013522 116.579721 
L 115.08558 115.679553 
L 115.08558 115.679553 
L 115.517924 115.679553 
L 115.517924 115.454512 
L 115.662039 115.454512 
L 115.698068 114.779386 
L 115.698068 114.779386 
L 115.842182 114.779386 
L 115.842182 114.554344 
L 116.022326 114.554344 
L 116.094383 114.10426 
L 116.166441 114.10426 
L 116.202469 113.429135 
L 116.202469 113.429135 
L 116.310555 113.429135 
L 116.382613 112.754009 
L 116.45467 112.754009 
L 116.45467 112.528967 
L 116.7429 112.528967 
L 116.7429 112.303926 
L 116.887014 112.303926 
L 116.959072 110.953674 
L 116.959072 110.953674 
L 117.067158 110.953674 
L 117.175244 110.053507 
L 117.175244 110.053507 
L 117.28333 110.053507 
L 117.391416 109.603423 
L 117.499502 109.603423 
L 117.499502 109.15334 
L 117.499502 109.15334 
L 117.643617 109.15334 
L 117.751703 107.803088 
L 117.82376 107.803088 
L 117.931847 106.902921 
L 118.220076 106.902921 
L 118.328162 106.002753 
L 118.364191 106.002753 
L 118.364191 105.777712 
L 118.508306 105.777712 
L 118.616392 105.327628 
L 118.724478 105.327628 
L 118.796535 103.752335 
L 118.796535 103.752335 
L 118.94065 103.752335 
L 118.976679 103.077209 
L 119.372994 103.077209 
L 119.372994 102.402084 
L 119.372994 102.402084 
L 119.805339 102.402084 
L 119.805339 102.177042 
L 119.949453 102.177042 
L 119.949453 101.726958 
L 119.949453 101.726958 
L 120.165625 101.726958 
L 120.273712 101.051833 
L 120.381798 101.051833 
L 120.417826 100.376707 
L 120.417826 100.376707 
L 120.633998 100.376707 
L 120.633998 100.151665 
L 120.886199 100.151665 
L 120.922228 99.701581 
L 121.858974 99.701581 
L 121.858974 99.47654 
L 122.471462 99.47654 
L 122.471462 99.026456 
L 122.471462 99.026456 
L 122.867777 99.026456 
L 122.867777 98.801414 
L 123.228064 98.801414 
L 123.33615 98.35133 
L 123.444236 98.35133 
L 123.444236 97.676205 
L 123.444236 97.676205 
L 123.768495 97.676205 
L 123.768495 97.451163 
L 124.092753 97.451163 
L 124.092753 97.226121 
L 124.597155 97.226121 
L 124.597155 97.001079 
L 124.777298 97.001079 
L 124.777298 96.776037 
L 125.605958 96.776037 
L 125.714044 96.325953 
L 126.686819 96.325953 
L 126.686819 96.100912 
L 126.93902 96.100912 
L 126.93902 95.87587 
L 127.299307 95.87587 
L 127.299307 95.650828 
L 127.47945 95.650828 
L 127.47945 95.200744 
L 127.47945 95.200744 
L 127.623565 95.200744 
L 127.623565 94.975702 
L 127.839737 94.975702 
L 127.947823 94.525619 
L 127.983852 94.525619 
L 128.055909 94.075535 
L 128.127966 94.075535 
L 128.236053 93.625451 
L 128.560311 93.625451 
L 128.560311 93.400409 
L 128.84854 93.400409 
L 128.84854 93.175367 
L 129.13677 93.175367 
L 129.244856 92.725284 
L 129.280885 92.725284 
L 129.352942 91.600074 
L 129.424999 91.600074 
L 129.533085 91.149991 
L 129.605143 91.149991 
L 129.713229 90.249823 
L 129.713229 90.249823 
L 129.749258 90.249823 
L 129.749258 90.024781 
L 129.96543 90.024781 
L 130.001458 89.574698 
L 130.217631 89.574698 
L 130.325717 89.124614 
L 130.397774 89.124614 
L 130.397774 88.899572 
L 130.541889 88.899572 
L 130.649975 88.449488 
L 130.79409 88.449488 
L 130.902176 87.549321 
L 130.902176 87.549321 
L 130.938204 87.549321 
L 131.04629 86.424112 
L 131.04629 86.424112 
L 131.33452 86.424112 
L 131.442606 85.523944 
L 131.658778 85.523944 
L 131.658778 85.298902 
L 132.631553 85.298902 
L 132.631553 85.07386 
L 132.775668 85.07386 
L 132.775668 84.623777 
L 132.775668 84.623777 
L 133.099926 84.623777 
L 133.208012 84.173693 
L 133.280069 84.173693 
L 133.352127 83.273526 
L 133.352127 83.273526 
L 133.856528 83.273526 
L 133.964615 82.823442 
L 134.036672 82.823442 
L 134.072701 81.923274 
L 134.072701 81.923274 
L 134.180787 81.923274 
L 134.180787 81.023107 
L 134.180787 81.023107 
L 134.324901 81.023107 
L 134.396959 80.347981 
L 134.64916 80.347981 
L 134.64916 80.12294 
L 135.009447 80.12294 
L 135.009447 79.897898 
L 135.261647 79.897898 
L 135.261647 78.99773 
L 135.261647 78.99773 
L 135.441791 78.99773 
L 135.441791 78.772688 
L 135.657963 78.772688 
L 135.657963 78.547647 
L 136.01825 78.547647 
L 136.126336 78.097563 
L 136.198393 78.097563 
L 136.270451 77.647479 
L 136.522652 77.647479 
L 136.522652 77.422437 
L 136.774853 77.422437 
L 136.882939 76.972353 
L 137.171168 76.972353 
L 137.171168 76.747312 
L 137.531455 76.747312 
L 137.531455 76.52227 
L 137.711599 76.52227 
L 137.819685 76.072186 
L 137.855713 76.072186 
L 137.855713 75.622102 
L 137.855713 75.622102 
L 138.035857 75.622102 
L 138.035857 75.39706 
L 138.216 75.39706 
L 138.252029 74.721935 
L 138.252029 74.721935 
L 138.468201 74.721935 
L 138.468201 74.496893 
L 139.296861 74.496893 
L 139.33289 74.046809 
L 139.549062 74.046809 
L 139.549062 73.821767 
L 139.765234 73.821767 
L 139.765234 73.596726 
L 140.269636 73.596726 
L 140.269636 73.371684 
L 143.007816 73.371684 
L 143.007816 73.146642 
L 144.088677 73.146642 
L 144.160734 72.696558 
L 145.998198 72.696558 
L 146.070255 72.246474 
L 146.286427 72.246474 
L 146.394513 71.796391 
L 146.538628 71.796391 
L 146.538628 71.571349 
L 147.151116 71.571349 
L 147.151116 71.346307 
L 147.835661 71.346307 
L 147.835661 71.121265 
L 149.601067 71.121265 
L 149.637096 70.221098 
L 149.853268 70.221098 
L 149.853268 69.32093 
L 149.853268 69.32093 
L 150.537813 69.32093 
L 150.573842 68.645805 
L 150.573842 68.645805 
L 150.826043 68.645805 
L 150.826043 67.970679 
L 150.826043 67.970679 
L 151.006186 67.970679 
L 151.006186 67.745637 
L 151.186329 67.745637 
L 151.186329 67.520595 
L 151.402502 67.520595 
L 151.474559 66.620428 
L 151.474559 66.620428 
L 151.690731 66.620428 
L 151.798817 65.270177 
L 151.798817 65.270177 
L 151.870875 65.270177 
L 151.978961 64.820093 
L 152.014989 64.820093 
L 152.014989 64.144967 
L 152.014989 64.144967 
L 152.303219 64.144967 
L 152.411305 63.019758 
L 152.591448 63.019758 
L 152.663506 61.894549 
L 152.663506 61.894549 
L 153.239965 61.894549 
L 153.348051 60.76934 
L 153.348051 60.76934 
L 153.420108 60.76934 
L 153.420108 60.544298 
L 153.708338 60.544298 
L 153.744367 59.869172 
L 153.744367 59.869172 
L 154.140682 59.869172 
L 154.140682 59.194047 
L 154.140682 59.194047 
L 154.428912 59.194047 
L 154.428912 58.969005 
L 154.573027 58.969005 
L 154.609055 58.518921 
L 154.789199 58.518921 
L 154.789199 58.068837 
L 154.789199 58.068837 
L 155.005371 58.068837 
L 155.005371 57.393712 
L 155.005371 57.393712 
L 155.221543 57.393712 
L 155.221543 56.718586 
L 155.221543 56.718586 
L 342.606771 56.718586 
L 342.606771 56.493544 
L 343.615574 56.493544 
L 343.615574 56.268502 
L 353.775666 56.268502 
L 353.775666 56.04346 
L 354.099924 56.04346 
L 354.099924 55.818419 
L 364.187958 55.818419 
L 364.187958 55.593377 
L 364.908532 55.593377 
L 364.908532 55.368335 
L 365.160732 55.368335 
L 365.196761 54.918251 
L 376.437713 54.918251 
L 376.437713 54.693209 
L 376.617857 54.693209 
L 376.617857 54.468167 
L 376.942115 54.468167 
L 376.942115 54.243126 
L 386.958091 54.243126 
L 386.958091 54.018084 
L 388.399239 54.018084 
L 388.399239 53.793042 
L 398.487273 53.793042 
L 398.487273 53.568 
L 398.487273 53.568 
" clip-path="url(#pcb4117a565)" style="fill: none; stroke: #1f77b4; stroke-width: 1.5; stroke-linecap: square"/>
   </g>
   <g id="patch_3">
    <path d="M 57.6 307.584 
L 57.6 41.472 
" style="fill: none; stroke: #000000; stroke-width: 0.8; stroke-linejoin: miter; stroke-linecap: square"/>
   </g>
   <g id="patch_4">
    <path d="M 414.72 307.584 
L 414.72 41.472 
" style="fill: none; stroke: #000000; stroke-width: 0.8; stroke-linejoin: miter; stroke-linecap: square"/>
   </g>
   <g id="patch_5">
    <path d="M 57.6 307.584 
L 414.72 307.584 
" style="fill: none; stroke: #000000; stroke-width: 0.8; stroke-linejoin: miter; stroke-linecap: square"/>
   </g>
   <g id="patch_6">
    <path d="M 57.6 41.472 
L 414.72 41.472 
" style="fill: none; stroke: #000000; stroke-width: 0.8; stroke-linejoin: miter; stroke-linecap: square"/>
   </g>
   <g id="text_12">
    <!-- Execution time between S5 S6 -->
    <g transform="translate(144.336563 35.472) scale(0.12 -0.12)">
     <defs>
      <path id="DejaVuSans-45" d="M 628 4666 
L 3578 4666 
L 3578 4134 
L 1259 4134 
L 1259 2753 
L 3481 2753 
L 3481 2222 
L 1259 2222 
L 1259 531 
L 3634 531 
L 3634 0 
L 628 0 
L 628 4666 
z
" transform="scale(0.015625)"/>
      <path id="DejaVuSans-78" d="M 3513 3500 
L 2247 1797 
L 3578 0 
L 2900 0 
L 1881 1375 
L 863 0 
L 184 0 
L 1544 1831 
L 300 3500 
L 978 3500 
L 1906 2253 
L 2834 3500 
L 3513 3500 
z
" transform="scale(0.015625)"/>
      <path id="DejaVuSans-65" d="M 3597 1894 
L 3597 1613 
L 953 1613 
Q 991 1019 1311 708 
Q 1631 397 2203 397 
Q 2534 397 2845 478 
Q 3156 559 3463 722 
L 3463 178 
Q 3153 47 2828 -22 
Q 2503 -91 2169 -91 
Q 1331 -91 842 396 
Q 353 884 353 1716 
Q 353 2575 817 3079 
Q 1281 3584 2069 3584 
Q 2775 3584 3186 3129 
Q 3597 2675 3597 1894 
z
M 3022 2063 
Q 3016 2534 2758 2815 
Q 2500 3097 2075 3097 
Q 1594 3097 1305 2825 
Q 1016 2553 972 2059 
L 3022 2063 
z
" transform="scale(0.015625)"/>
      <path id="DejaVuSans-63" d="M 3122 3366 
L 3122 2828 
Q 2878 2963 2633 3030 
Q 2388 3097 2138 3097 
Q 1578 3097 1268 2742 
Q 959 2388 959 1747 
Q 959 1106 1268 751 
Q 1578 397 2138 397 
Q 2388 397 2633 464 
Q 2878 531 3122 666 
L 3122 134 
Q 2881 22 2623 -34 
Q 2366 -91 2075 -91 
Q 1284 -91 818 406 
Q 353 903 353 1747 
Q 353 2603 823 3093 
Q 1294 3584 2113 3584 
Q 2378 3584 2631 3529 
Q 2884 3475 3122 3366 
z
" transform="scale(0.015625)"/>
      <path id="DejaVuSans-75" d="M 544 1381 
L 544 3500 
L 1119 3500 
L 1119 1403 
Q 1119 906 1312 657 
Q 1506 409 1894 409 
Q 2359 409 2629 706 
Q 2900 1003 2900 1516 
L 2900 3500 
L 3475 3500 
L 3475 0 
L 2900 0 
L 2900 538 
Q 2691 219 2414 64 
Q 2138 -91 1772 -91 
Q 1169 -91 856 284 
Q 544 659 544 1381 
z
M 1991 3584 
L 1991 3584 
z
" transform="scale(0.015625)"/>
      <path id="DejaVuSans-74" d="M 1172 4494 
L 1172 3500 
L 2356 3500 
L 2356 3053 
L 1172 3053 
L 1172 1153 
Q 1172 725 1289 603 
Q 1406 481 1766 481 
L 2356 481 
L 2356 0 
L 1766 0 
Q 1100 0 847 248 
Q 594 497 594 1153 
L 594 3053 
L 172 3053 
L 172 3500 
L 594 3500 
L 594 4494 
L 1172 4494 
z
" transform="scale(0.015625)"/>
      <path id="DejaVuSans-69" d="M 603 3500 
L 1178 3500 
L 1178 0 
L 603 0 
L 603 3500 
z
M 603 4863 
L 1178 4863 
L 1178 4134 
L 603 4134 
L 603 4863 
z
" transform="scale(0.015625)"/>
      <path id="DejaVuSans-6f" d="M 1959 3097 
Q 1497 3097 1228 2736 
Q 959 2375 959 1747 
Q 959 1119 1226 758 
Q 1494 397 1959 397 
Q 2419 397 2687 759 
Q 2956 1122 2956 1747 
Q 2956 2369 2687 2733 
Q 2419 3097 1959 3097 
z
M 1959 3584 
Q 2709 3584 3137 3096 
Q 3566 2609 3566 1747 
Q 3566 888 3137 398 
Q 2709 -91 1959 -91 
Q 1206 -91 779 398 
Q 353 888 353 1747 
Q 353 2609 779 3096 
Q 1206 3584 1959 3584 
z
" transform="scale(0.015625)"/>
      <path id="DejaVuSans-6e" d="M 3513 2113 
L 3513 0 
L 2938 0 
L 2938 2094 
Q 2938 2591 2744 2837 
Q 2550 3084 2163 3084 
Q 1697 3084 1428 2787 
Q 1159 2491 1159 1978 
L 1159 0 
L 581 0 
L 581 3500 
L 1159 3500 
L 1159 2956 
Q 1366 3272 1645 3428 
Q 1925 3584 2291 3584 
Q 2894 3584 3203 3211 
Q 3513 2838 3513 2113 
z
" transform="scale(0.015625)"/>
      <path id="DejaVuSans-20" transform="scale(0.015625)"/>
      <path id="DejaVuSans-6d" d="M 3328 2828 
Q 3544 3216 3844 3400 
Q 4144 3584 4550 3584 
Q 5097 3584 5394 3201 
Q 5691 2819 5691 2113 
L 5691 0 
L 5113 0 
L 5113 2094 
Q 5113 2597 4934 2840 
Q 4756 3084 4391 3084 
Q 3944 3084 3684 2787 
Q 3425 2491 3425 1978 
L 3425 0 
L 2847 0 
L 2847 2094 
Q 2847 2600 2669 2842 
Q 2491 3084 2119 3084 
Q 1678 3084 1418 2786 
Q 1159 2488 1159 1978 
L 1159 0 
L 581 0 
L 581 3500 
L 1159 3500 
L 1159 2956 
Q 1356 3278 1631 3431 
Q 1906 3584 2284 3584 
Q 2666 3584 2933 3390 
Q 3200 3197 3328 2828 
z
" transform="scale(0.015625)"/>
      <path id="DejaVuSans-62" d="M 3116 1747 
Q 3116 2381 2855 2742 
Q 2594 3103 2138 3103 
Q 1681 3103 1420 2742 
Q 1159 2381 1159 1747 
Q 1159 1113 1420 752 
Q 1681 391 2138 391 
Q 2594 391 2855 752 
Q 3116 1113 3116 1747 
z
M 1159 2969 
Q 1341 3281 1617 3432 
Q 1894 3584 2278 3584 
Q 2916 3584 3314 3078 
Q 3713 2572 3713 1747 
Q 3713 922 3314 415 
Q 2916 -91 2278 -91 
Q 1894 -91 1617 61 
Q 1341 213 1159 525 
L 1159 0 
L 581 0 
L 581 4863 
L 1159 4863 
L 1159 2969 
z
" transform="scale(0.015625)"/>
      <path id="DejaVuSans-77" d="M 269 3500 
L 844 3500 
L 1563 769 
L 2278 3500 
L 2956 3500 
L 3675 769 
L 4391 3500 
L 4966 3500 
L 4050 0 
L 3372 0 
L 2619 2869 
L 1863 0 
L 1184 0 
L 269 3500 
z
" transform="scale(0.015625)"/>
      <path id="DejaVuSans-53" d="M 3425 4513 
L 3425 3897 
Q 3066 4069 2747 4153 
Q 2428 4238 2131 4238 
Q 1616 4238 1336 4038 
Q 1056 3838 1056 3469 
Q 1056 3159 1242 3001 
Q 1428 2844 1947 2747 
L 2328 2669 
Q 3034 2534 3370 2195 
Q 3706 1856 3706 1288 
Q 3706 609 3251 259 
Q 2797 -91 1919 -91 
Q 1588 -91 1214 -16 
Q 841 59 441 206 
L 441 856 
Q 825 641 1194 531 
Q 1563 422 1919 422 
Q 2459 422 2753 634 
Q 3047 847 3047 1241 
Q 3047 1584 2836 1778 
Q 2625 1972 2144 2069 
L 1759 2144 
Q 1053 2284 737 2584 
Q 422 2884 422 3419 
Q 422 4038 858 4394 
Q 1294 4750 2059 4750 
Q 2388 4750 2728 4690 
Q 3069 4631 3425 4513 
z
" transform="scale(0.015625)"/>
      <path id="DejaVuSans-35" d="M 691 4666 
L 3169 4666 
L 3169 4134 
L 1269 4134 
L 1269 2991 
Q 1406 3038 1543 3061 
Q 1681 3084 1819 3084 
Q 2600 3084 3056 2656 
Q 3513 2228 3513 1497 
Q 3513 744 3044 326 
Q 2575 -91 1722 -91 
Q 1428 -91 1123 -41 
Q 819 9 494 109 
L 494 744 
Q 775 591 1075 516 
Q 1375 441 1709 441 
Q 2250 441 2565 725 
Q 2881 1009 2881 1497 
Q 2881 1984 2565 2268 
Q 2250 2553 1709 2553 
Q 1456 2553 1204 2497 
Q 953 2441 691 2322 
L 691 4666 
z
" transform="scale(0.015625)"/>
     </defs>
     <use xlink:href="#DejaVuSans-45"/>
     <use xlink:href="#DejaVuSans-78" x="63.183594"/>
     <use xlink:href="#DejaVuSans-65" x="119.238281"/>
     <use xlink:href="#DejaVuSans-63" x="180.761719"/>
     <use xlink:href="#DejaVuSans-75" x="235.742188"/>
     <use xlink:href="#DejaVuSans-74" x="299.121094"/>
     <use xlink:href="#DejaVuSans-69" x="338.330078"/>
     <use xlink:href="#DejaVuSans-6f" x="366.113281"/>
     <use xlink:href="#DejaVuSans-6e" x="427.294922"/>
     <use xlink:href="#DejaVuSans-20" x="490.673828"/>
     <use xlink:href="#DejaVuSans-74" x="522.460938"/>
     <use xlink:href="#DejaVuSans-69" x="561.669922"/>
     <use xlink:href="#DejaVuSans-6d" x="589.453125"/>
     <use xlink:href="#DejaVuSans-65" x="686.865234"/>
     <use xlink:href="#DejaVuSans-20" x="748.388672"/>
     <use xlink:href="#DejaVuSans-62" x="780.175781"/>
     <use xlink:href="#DejaVuSans-65" x="843.652344"/>
     <use xlink:href="#DejaVuSans-74" x="905.175781"/>
     <use xlink:href="#DejaVuSans-77" x="944.384766"/>
     <use xlink:href="#DejaVuSans-65" x="1026.171875"/>
     <use xlink:href="#DejaVuSans-65" x="1087.695312"/>
     <use xlink:href="#DejaVuSans-6e" x="1149.21875"/>
     <use xlink:href="#DejaVuSans-20" x="1212.597656"/>
     <use xlink:href="#DejaVuSans-53" x="1244.384766"/>
     <use xlink:href="#DejaVuSans-35" x="1307.861328"/>
     <use xlink:href="#DejaVuSans-20" x="1371.484375"/>
     <use xlink:href="#DejaVuSans-53" x="1403.271484"/>
     <use xlink:href="#DejaVuSans-36" x="1466.748047"/>
    </g>
   </g>
   <g id="legend_1">
    <g id="patch_7">
     <path d="M 299.496562 304.584 
L 410.52 304.584 
Q 411.72 304.584 411.72 303.384 
L 411.72 295.177125 
Q 411.72 293.977125 410.52 293.977125 
L 299.496562 293.977125 
Q 298.296562 293.977125 298.296562 295.177125 
L 298.296562 303.384 
Q 298.296562 304.584 299.496562 304.584 
z
" style="fill: #ffffff; opacity: 0.8; stroke: #cccccc; stroke-linejoin: miter"/>
    </g>
    <g id="line2d_13">
     <path d="M 300.696562 298.836187 
L 306.696562 298.836187 
L 312.696562 298.836187 
" style="fill: none; stroke: #1f77b4; stroke-width: 1.5; stroke-linecap: square"/>
    </g>
    <g id="text_13">
     <!-- Execution time between S5 S6 -->
     <g transform="translate(317.496562 300.936187) scale(0.06 -0.06)">
      <use xlink:href="#DejaVuSans-45"/>
      <use xlink:href="#DejaVuSans-78" x="63.183594"/>
      <use xlink:href="#DejaVuSans-65" x="119.238281"/>
      <use xlink:href="#DejaVuSans-63" x="180.761719"/>
      <use xlink:href="#DejaVuSans-75" x="235.742188"/>
      <use xlink:href="#DejaVuSans-74" x="299.121094"/>
      <use xlink:href="#DejaVuSans-69" x="338.330078"/>
      <use xlink:href="#DejaVuSans-6f" x="366.113281"/>
      <use xlink:href="#DejaVuSans-6e" x="427.294922"/>
      <use xlink:href="#DejaVuSans-20" x="490.673828"/>
      <use xlink:href="#DejaVuSans-74" x="522.460938"/>
      <use xlink:href="#DejaVuSans-69" x="561.669922"/>
      <use xlink:href="#DejaVuSans-6d" x="589.453125"/>
      <use xlink:href="#DejaVuSans-65" x="686.865234"/>
      <use xlink:href="#DejaVuSans-20" x="748.388672"/>
      <use xlink:href="#DejaVuSans-62" x="780.175781"/>
      <use xlink:href="#DejaVuSans-65" x="843.652344"/>
      <use xlink:href="#DejaVuSans-74" x="905.175781"/>
      <use xlink:href="#DejaVuSans-77" x="944.384766"/>
      <use xlink:href="#DejaVuSans-65" x="1026.171875"/>
      <use xlink:href="#DejaVuSans-65" x="1087.695312"/>
      <use xlink:href="#DejaVuSans-6e" x="1149.21875"/>
      <use xlink:href="#DejaVuSans-20" x="1212.597656"/>
      <use xlink:href="#DejaVuSans-53" x="1244.384766"/>
      <use xlink:href="#DejaVuSans-35" x="1307.861328"/>
      <use xlink:href="#DejaVuSans-20" x="1371.484375"/>
      <use xlink:href="#DejaVuSans-53" x="1403.271484"/>
      <use xlink:href="#DejaVuSans-36" x="1466.748047"/>
     </g>
    </g>
   </g>
  </g>
 </g>
 <defs>
  <clipPath id="pcb4117a565">
   <rect x="57.6" y="41.472" width="357.12" height="266.112"/>
  </clipPath>
 </defs>
</svg>
