<?xml version="1.0" encoding="utf-8" standalone="no"?>
<!DOCTYPE svg PUBLIC "-//W3C//DTD SVG 1.1//EN"
  "http://www.w3.org/Graphics/SVG/1.1/DTD/svg11.dtd">
<svg xmlns:xlink="http://www.w3.org/1999/xlink" width="460.8pt" height="345.6pt" viewBox="0 0 460.8 345.6" xmlns="http://www.w3.org/2000/svg" version="1.1">
 <metadata>
  <rdf:RDF xmlns:dc="http://purl.org/dc/elements/1.1/" xmlns:cc="http://creativecommons.org/ns#" xmlns:rdf="http://www.w3.org/1999/02/22-rdf-syntax-ns#">
   <cc:Work>
    <dc:type rdf:resource="http://purl.org/dc/dcmitype/StillImage"/>
    <dc:date>2024-03-08T13:53:01.839945</dc:date>
    <dc:format>image/svg+xml</dc:format>
    <dc:creator>
     <cc:Agent>
      <dc:title>Matplotlib v3.8.2, https://matplotlib.org/</dc:title>
     </cc:Agent>
    </dc:creator>
   </cc:Work>
  </rdf:RDF>
 </metadata>
 <defs>
  <style type="text/css">*{stroke-linejoin: round; stroke-linecap: butt}</style>
 </defs>
 <g id="figure_1">
  <g id="patch_1">
   <path d="M 0 345.6 
L 460.8 345.6 
L 460.8 0 
L 0 0 
z
" style="fill: #ffffff"/>
  </g>
  <g id="axes_1">
   <g id="patch_2">
    <path d="M 57.6 307.584 
L 414.72 307.584 
L 414.72 41.472 
L 57.6 41.472 
z
" style="fill: #ffffff"/>
   </g>
   <g id="matplotlib.axis_1">
    <g id="xtick_1">
     <g id="line2d_1">
      <defs>
       <path id="m080acbe4be" d="M 0 0 
L 0 3.5 
" style="stroke: #000000; stroke-width: 0.8"/>
      </defs>
      <g>
       <use xlink:href="#m080acbe4be" x="73.311376" y="307.584" style="stroke: #000000; stroke-width: 0.8"/>
      </g>
     </g>
     <g id="text_1">
      <!-- 0.0 -->
      <g transform="translate(65.359813 322.182437) scale(0.1 -0.1)">
       <defs>
        <path id="DejaVuSans-30" d="M 2034 4250 
Q 1547 4250 1301 3770 
Q 1056 3291 1056 2328 
Q 1056 1369 1301 889 
Q 1547 409 2034 409 
Q 2525 409 2770 889 
Q 3016 1369 3016 2328 
Q 3016 3291 2770 3770 
Q 2525 4250 2034 4250 
z
M 2034 4750 
Q 2819 4750 3233 4129 
Q 3647 3509 3647 2328 
Q 3647 1150 3233 529 
Q 2819 -91 2034 -91 
Q 1250 -91 836 529 
Q 422 1150 422 2328 
Q 422 3509 836 4129 
Q 1250 4750 2034 4750 
z
" transform="scale(0.015625)"/>
        <path id="DejaVuSans-2e" d="M 684 794 
L 1344 794 
L 1344 0 
L 684 0 
L 684 794 
z
" transform="scale(0.015625)"/>
       </defs>
       <use xlink:href="#DejaVuSans-30"/>
       <use xlink:href="#DejaVuSans-2e" x="63.623047"/>
       <use xlink:href="#DejaVuSans-30" x="95.410156"/>
      </g>
     </g>
    </g>
    <g id="xtick_2">
     <g id="line2d_2">
      <g>
       <use xlink:href="#m080acbe4be" x="119.943878" y="307.584" style="stroke: #000000; stroke-width: 0.8"/>
      </g>
     </g>
     <g id="text_2">
      <!-- 0.5 -->
      <g transform="translate(111.992315 322.182437) scale(0.1 -0.1)">
       <defs>
        <path id="DejaVuSans-35" d="M 691 4666 
L 3169 4666 
L 3169 4134 
L 1269 4134 
L 1269 2991 
Q 1406 3038 1543 3061 
Q 1681 3084 1819 3084 
Q 2600 3084 3056 2656 
Q 3513 2228 3513 1497 
Q 3513 744 3044 326 
Q 2575 -91 1722 -91 
Q 1428 -91 1123 -41 
Q 819 9 494 109 
L 494 744 
Q 775 591 1075 516 
Q 1375 441 1709 441 
Q 2250 441 2565 725 
Q 2881 1009 2881 1497 
Q 2881 1984 2565 2268 
Q 2250 2553 1709 2553 
Q 1456 2553 1204 2497 
Q 953 2441 691 2322 
L 691 4666 
z
" transform="scale(0.015625)"/>
       </defs>
       <use xlink:href="#DejaVuSans-30"/>
       <use xlink:href="#DejaVuSans-2e" x="63.623047"/>
       <use xlink:href="#DejaVuSans-35" x="95.410156"/>
      </g>
     </g>
    </g>
    <g id="xtick_3">
     <g id="line2d_3">
      <g>
       <use xlink:href="#m080acbe4be" x="166.57638" y="307.584" style="stroke: #000000; stroke-width: 0.8"/>
      </g>
     </g>
     <g id="text_3">
      <!-- 1.0 -->
      <g transform="translate(158.624817 322.182437) scale(0.1 -0.1)">
       <defs>
        <path id="DejaVuSans-31" d="M 794 531 
L 1825 531 
L 1825 4091 
L 703 3866 
L 703 4441 
L 1819 4666 
L 2450 4666 
L 2450 531 
L 3481 531 
L 3481 0 
L 794 0 
L 794 531 
z
" transform="scale(0.015625)"/>
       </defs>
       <use xlink:href="#DejaVuSans-31"/>
       <use xlink:href="#DejaVuSans-2e" x="63.623047"/>
       <use xlink:href="#DejaVuSans-30" x="95.410156"/>
      </g>
     </g>
    </g>
    <g id="xtick_4">
     <g id="line2d_4">
      <g>
       <use xlink:href="#m080acbe4be" x="213.208882" y="307.584" style="stroke: #000000; stroke-width: 0.8"/>
      </g>
     </g>
     <g id="text_4">
      <!-- 1.5 -->
      <g transform="translate(205.257319 322.182437) scale(0.1 -0.1)">
       <use xlink:href="#DejaVuSans-31"/>
       <use xlink:href="#DejaVuSans-2e" x="63.623047"/>
       <use xlink:href="#DejaVuSans-35" x="95.410156"/>
      </g>
     </g>
    </g>
    <g id="xtick_5">
     <g id="line2d_5">
      <g>
       <use xlink:href="#m080acbe4be" x="259.841383" y="307.584" style="stroke: #000000; stroke-width: 0.8"/>
      </g>
     </g>
     <g id="text_5">
      <!-- 2.0 -->
      <g transform="translate(251.889821 322.182437) scale(0.1 -0.1)">
       <defs>
        <path id="DejaVuSans-32" d="M 1228 531 
L 3431 531 
L 3431 0 
L 469 0 
L 469 531 
Q 828 903 1448 1529 
Q 2069 2156 2228 2338 
Q 2531 2678 2651 2914 
Q 2772 3150 2772 3378 
Q 2772 3750 2511 3984 
Q 2250 4219 1831 4219 
Q 1534 4219 1204 4116 
Q 875 4013 500 3803 
L 500 4441 
Q 881 4594 1212 4672 
Q 1544 4750 1819 4750 
Q 2544 4750 2975 4387 
Q 3406 4025 3406 3419 
Q 3406 3131 3298 2873 
Q 3191 2616 2906 2266 
Q 2828 2175 2409 1742 
Q 1991 1309 1228 531 
z
" transform="scale(0.015625)"/>
       </defs>
       <use xlink:href="#DejaVuSans-32"/>
       <use xlink:href="#DejaVuSans-2e" x="63.623047"/>
       <use xlink:href="#DejaVuSans-30" x="95.410156"/>
      </g>
     </g>
    </g>
    <g id="xtick_6">
     <g id="line2d_6">
      <g>
       <use xlink:href="#m080acbe4be" x="306.473885" y="307.584" style="stroke: #000000; stroke-width: 0.8"/>
      </g>
     </g>
     <g id="text_6">
      <!-- 2.5 -->
      <g transform="translate(298.522323 322.182437) scale(0.1 -0.1)">
       <use xlink:href="#DejaVuSans-32"/>
       <use xlink:href="#DejaVuSans-2e" x="63.623047"/>
       <use xlink:href="#DejaVuSans-35" x="95.410156"/>
      </g>
     </g>
    </g>
    <g id="xtick_7">
     <g id="line2d_7">
      <g>
       <use xlink:href="#m080acbe4be" x="353.106387" y="307.584" style="stroke: #000000; stroke-width: 0.8"/>
      </g>
     </g>
     <g id="text_7">
      <!-- 3.0 -->
      <g transform="translate(345.154825 322.182437) scale(0.1 -0.1)">
       <defs>
        <path id="DejaVuSans-33" d="M 2597 2516 
Q 3050 2419 3304 2112 
Q 3559 1806 3559 1356 
Q 3559 666 3084 287 
Q 2609 -91 1734 -91 
Q 1441 -91 1130 -33 
Q 819 25 488 141 
L 488 750 
Q 750 597 1062 519 
Q 1375 441 1716 441 
Q 2309 441 2620 675 
Q 2931 909 2931 1356 
Q 2931 1769 2642 2001 
Q 2353 2234 1838 2234 
L 1294 2234 
L 1294 2753 
L 1863 2753 
Q 2328 2753 2575 2939 
Q 2822 3125 2822 3475 
Q 2822 3834 2567 4026 
Q 2313 4219 1838 4219 
Q 1578 4219 1281 4162 
Q 984 4106 628 3988 
L 628 4550 
Q 988 4650 1302 4700 
Q 1616 4750 1894 4750 
Q 2613 4750 3031 4423 
Q 3450 4097 3450 3541 
Q 3450 3153 3228 2886 
Q 3006 2619 2597 2516 
z
" transform="scale(0.015625)"/>
       </defs>
       <use xlink:href="#DejaVuSans-33"/>
       <use xlink:href="#DejaVuSans-2e" x="63.623047"/>
       <use xlink:href="#DejaVuSans-30" x="95.410156"/>
      </g>
     </g>
    </g>
    <g id="xtick_8">
     <g id="line2d_8">
      <g>
       <use xlink:href="#m080acbe4be" x="399.738889" y="307.584" style="stroke: #000000; stroke-width: 0.8"/>
      </g>
     </g>
     <g id="text_8">
      <!-- 3.5 -->
      <g transform="translate(391.787327 322.182437) scale(0.1 -0.1)">
       <use xlink:href="#DejaVuSans-33"/>
       <use xlink:href="#DejaVuSans-2e" x="63.623047"/>
       <use xlink:href="#DejaVuSans-35" x="95.410156"/>
      </g>
     </g>
    </g>
    <g id="text_9">
     <!-- 1e6 -->
     <g transform="translate(395.841875 334.860562) scale(0.1 -0.1)">
      <defs>
       <path id="DejaVuSans-65" d="M 3597 1894 
L 3597 1613 
L 953 1613 
Q 991 1019 1311 708 
Q 1631 397 2203 397 
Q 2534 397 2845 478 
Q 3156 559 3463 722 
L 3463 178 
Q 3153 47 2828 -22 
Q 2503 -91 2169 -91 
Q 1331 -91 842 396 
Q 353 884 353 1716 
Q 353 2575 817 3079 
Q 1281 3584 2069 3584 
Q 2775 3584 3186 3129 
Q 3597 2675 3597 1894 
z
M 3022 2063 
Q 3016 2534 2758 2815 
Q 2500 3097 2075 3097 
Q 1594 3097 1305 2825 
Q 1016 2553 972 2059 
L 3022 2063 
z
" transform="scale(0.015625)"/>
       <path id="DejaVuSans-36" d="M 2113 2584 
Q 1688 2584 1439 2293 
Q 1191 2003 1191 1497 
Q 1191 994 1439 701 
Q 1688 409 2113 409 
Q 2538 409 2786 701 
Q 3034 994 3034 1497 
Q 3034 2003 2786 2293 
Q 2538 2584 2113 2584 
z
M 3366 4563 
L 3366 3988 
Q 3128 4100 2886 4159 
Q 2644 4219 2406 4219 
Q 1781 4219 1451 3797 
Q 1122 3375 1075 2522 
Q 1259 2794 1537 2939 
Q 1816 3084 2150 3084 
Q 2853 3084 3261 2657 
Q 3669 2231 3669 1497 
Q 3669 778 3244 343 
Q 2819 -91 2113 -91 
Q 1303 -91 875 529 
Q 447 1150 447 2328 
Q 447 3434 972 4092 
Q 1497 4750 2381 4750 
Q 2619 4750 2861 4703 
Q 3103 4656 3366 4563 
z
" transform="scale(0.015625)"/>
      </defs>
      <use xlink:href="#DejaVuSans-31"/>
      <use xlink:href="#DejaVuSans-65" x="63.623047"/>
      <use xlink:href="#DejaVuSans-36" x="125.146484"/>
     </g>
    </g>
   </g>
   <g id="matplotlib.axis_2">
    <g id="ytick_1">
     <g id="line2d_9">
      <defs>
       <path id="mebb74fc141" d="M 0 0 
L -3.5 0 
" style="stroke: #000000; stroke-width: 0.8"/>
      </defs>
      <g>
       <use xlink:href="#mebb74fc141" x="57.6" y="295.488" style="stroke: #000000; stroke-width: 0.8"/>
      </g>
     </g>
     <g id="text_10">
      <!-- 0 -->
      <g transform="translate(44.2375 299.287219) scale(0.1 -0.1)">
       <use xlink:href="#DejaVuSans-30"/>
      </g>
     </g>
    </g>
    <g id="ytick_2">
     <g id="line2d_10">
      <g>
       <use xlink:href="#mebb74fc141" x="57.6" y="247.104" style="stroke: #000000; stroke-width: 0.8"/>
      </g>
     </g>
     <g id="text_11">
      <!-- 5 -->
      <g transform="translate(44.2375 250.903219) scale(0.1 -0.1)">
       <use xlink:href="#DejaVuSans-35"/>
      </g>
     </g>
    </g>
    <g id="ytick_3">
     <g id="line2d_11">
      <g>
       <use xlink:href="#mebb74fc141" x="57.6" y="198.72" style="stroke: #000000; stroke-width: 0.8"/>
      </g>
     </g>
     <g id="text_12">
      <!-- 10 -->
      <g transform="translate(37.875 202.519219) scale(0.1 -0.1)">
       <use xlink:href="#DejaVuSans-31"/>
       <use xlink:href="#DejaVuSans-30" x="63.623047"/>
      </g>
     </g>
    </g>
    <g id="ytick_4">
     <g id="line2d_12">
      <g>
       <use xlink:href="#mebb74fc141" x="57.6" y="150.336" style="stroke: #000000; stroke-width: 0.8"/>
      </g>
     </g>
     <g id="text_13">
      <!-- 15 -->
      <g transform="translate(37.875 154.135219) scale(0.1 -0.1)">
       <use xlink:href="#DejaVuSans-31"/>
       <use xlink:href="#DejaVuSans-35" x="63.623047"/>
      </g>
     </g>
    </g>
    <g id="ytick_5">
     <g id="line2d_13">
      <g>
       <use xlink:href="#mebb74fc141" x="57.6" y="101.952" style="stroke: #000000; stroke-width: 0.8"/>
      </g>
     </g>
     <g id="text_14">
      <!-- 20 -->
      <g transform="translate(37.875 105.751219) scale(0.1 -0.1)">
       <use xlink:href="#DejaVuSans-32"/>
       <use xlink:href="#DejaVuSans-30" x="63.623047"/>
      </g>
     </g>
    </g>
    <g id="ytick_6">
     <g id="line2d_14">
      <g>
       <use xlink:href="#mebb74fc141" x="57.6" y="53.568" style="stroke: #000000; stroke-width: 0.8"/>
      </g>
     </g>
     <g id="text_15">
      <!-- 25 -->
      <g transform="translate(37.875 57.367219) scale(0.1 -0.1)">
       <use xlink:href="#DejaVuSans-32"/>
       <use xlink:href="#DejaVuSans-35" x="63.623047"/>
      </g>
     </g>
    </g>
   </g>
   <g id="line2d_15">
    <path d="M 73.832727 285.8112 
L 74.028584 295.488 
L 74.158222 285.8112 
L 74.355011 295.488 
L 74.482784 285.8112 
L 74.679574 295.488 
L 74.808279 285.8112 
L 75.005068 295.488 
L 75.140303 285.8112 
L 75.337092 295.488 
L 75.465797 285.8112 
L 75.661654 295.488 
L 75.789427 285.8112 
L 75.986216 295.488 
L 76.113989 285.8112 
L 76.309846 295.488 
L 76.44508 285.8112 
L 76.641869 295.488 
L 76.774305 285.8112 
L 76.970162 295.488 
L 77.100733 285.8112 
L 77.297522 295.488 
L 77.428093 285.8112 
L 77.624882 295.488 
L 77.757319 285.8112 
L 77.954108 295.488 
L 78.087477 285.8112 
L 78.284266 295.488 
L 78.417635 285.8112 
L 78.614424 295.488 
L 78.739399 285.8112 
L 78.936188 295.488 
L 84.665457 285.8112 
L 84.791365 256.7808 
L 84.990952 218.0736 
L 85.187741 295.488 
L 85.274478 285.8112 
L 85.470334 295.488 
L 85.592512 285.8112 
L 85.789301 295.488 
L 85.918939 285.8112 
L 86.115728 295.488 
L 86.240703 285.8112 
L 86.437493 295.488 
L 86.569929 285.8112 
L 86.766718 295.488 
L 86.895424 285.8112 
L 87.092213 295.488 
L 87.220919 285.8112 
L 87.417708 295.488 
L 87.552009 285.8112 
L 87.748798 295.488 
L 87.873774 285.8112 
L 88.06963 295.488 
L 88.199268 285.8112 
L 88.396058 295.488 
L 88.519167 285.8112 
L 88.715957 295.488 
L 88.84373 285.8112 
L 89.040519 295.488 
L 89.17482 285.8112 
L 89.37161 295.488 
L 89.495652 285.8112 
L 89.692441 295.488 
L 89.817416 285.8112 
L 90.014205 295.488 
L 90.148507 285.8112 
L 90.345296 295.488 
L 90.478665 285.8112 
L 90.675454 295.488 
L 90.809756 285.8112 
L 91.006545 295.488 
L 91.12779 285.8112 
L 91.324579 295.488 
L 91.461678 285.8112 
L 91.658467 295.488 
L 91.78624 285.8112 
L 91.98303 295.488 
L 92.120129 285.8112 
L 92.316918 295.488 
L 92.444691 285.8112 
L 92.641481 295.488 
L 92.767388 285.8112 
L 92.964177 295.488 
L 93.08822 285.8112 
L 93.285009 295.488 
L 93.413715 285.8112 
L 93.609571 295.488 
L 93.73921 285.8112 
L 93.935066 295.488 
L 94.060041 285.8112 
L 94.25683 295.488 
L 94.384604 285.8112 
L 94.581393 295.488 
L 94.714762 285.8112 
L 94.911551 295.488 
L 95.043987 285.8112 
L 95.240776 295.488 
L 95.367617 285.8112 
L 95.564406 295.488 
L 95.692179 285.8112 
L 95.888968 295.488 
L 96.017674 285.8112 
L 96.214463 295.488 
L 96.346899 285.8112 
L 96.543688 295.488 
L 96.670529 285.8112 
L 96.867318 295.488 
L 96.998822 285.8112 
L 97.195611 295.488 
L 97.329912 285.8112 
L 97.526701 295.488 
L 97.650744 285.8112 
L 97.847533 295.488 
L 97.974373 285.8112 
L 98.17023 295.488 
L 98.299868 285.8112 
L 98.496658 295.488 
L 98.618835 285.8112 
L 98.950858 276.1344 
L 99.147647 295.488 
L 99.269824 285.8112 
L 99.466614 295.488 
L 99.603713 285.8112 
L 99.800502 295.488 
L 99.936669 285.8112 
L 100.133458 295.488 
L 100.268693 285.8112 
L 100.465482 295.488 
L 100.600716 285.8112 
L 100.797505 295.488 
L 100.924346 285.8112 
L 101.121135 295.488 
L 101.251706 285.8112 
L 101.447562 295.488 
L 101.582796 285.8112 
L 101.910157 276.1344 
L 102.106946 295.488 
L 102.235652 285.8112 
L 102.431508 295.488 
L 102.558348 285.8112 
L 102.754205 295.488 
L 102.882911 285.8112 
L 103.0797 295.488 
L 103.209338 285.8112 
L 103.406127 295.488 
L 103.534833 285.8112 
L 103.731622 295.488 
L 103.861261 285.8112 
L 104.05805 295.488 
L 104.187688 285.8112 
L 104.384477 295.488 
L 104.515981 285.8112 
L 104.71277 295.488 
L 104.842408 285.8112 
L 105.039198 295.488 
L 105.172566 285.8112 
L 105.369356 295.488 
L 105.498994 285.8112 
L 105.695783 295.488 
L 105.820758 285.8112 
L 106.017547 295.488 
L 106.138792 285.8112 
L 106.335581 295.488 
L 106.468017 285.8112 
L 106.664807 295.488 
L 106.79258 285.8112 
L 106.989369 295.488 
L 107.12367 285.8112 
L 107.32046 295.488 
L 107.451963 285.8112 
L 107.648752 295.488 
L 107.782121 285.8112 
L 107.97891 295.488 
L 108.108549 285.8112 
L 108.305338 295.488 
L 108.430313 285.8112 
L 108.627102 295.488 
L 108.755808 285.8112 
L 108.952597 295.488 
L 109.085033 285.8112 
L 109.281823 295.488 
L 109.40773 285.8112 
L 109.604519 295.488 
L 109.73136 285.8112 
L 109.928149 295.488 
L 110.052191 285.8112 
L 110.248981 295.488 
L 110.380484 285.8112 
L 110.577273 295.488 
L 110.704114 285.8112 
L 110.900903 295.488 
L 111.034272 285.8112 
L 111.231061 295.488 
L 111.362565 285.8112 
L 111.559354 295.488 
L 112.286821 285.8112 
L 112.480812 295.488 
L 112.516253 285.8112 
L 112.710244 295.488 
L 112.751281 285.8112 
L 112.946205 295.488 
L 112.981645 285.8112 
L 113.176569 295.488 
L 113.216673 285.8112 
L 113.410664 295.488 
L 113.44797 285.8112 
L 113.641961 295.488 
L 113.675537 285.8112 
L 113.870461 295.488 
L 113.905901 285.8112 
L 114.100825 295.488 
L 114.136266 285.8112 
L 114.330257 295.488 
L 114.366631 285.8112 
L 114.561554 295.488 
L 114.604456 285.8112 
L 114.79938 295.488 
L 114.839484 285.8112 
L 115.033475 295.488 
L 115.07731 285.8112 
L 115.271301 295.488 
L 115.310472 285.8112 
L 115.504464 295.488 
L 115.547366 285.8112 
L 115.742289 295.488 
L 115.784259 285.8112 
L 115.97825 295.488 
L 116.016488 285.8112 
L 116.211412 295.488 
L 116.250584 285.8112 
L 116.444575 295.488 
L 116.482813 285.8112 
L 116.677737 295.488 
L 116.718774 285.8112 
L 116.912765 295.488 
L 116.952869 285.8112 
L 117.14686 295.488 
L 117.184166 285.8112 
L 117.378158 295.488 
L 117.416396 285.8112 
L 117.61132 295.488 
L 117.654222 285.8112 
L 117.849146 295.488 
L 117.885519 285.8112 
L 118.116816 276.1344 
L 118.292155 285.8112 
L 118.350912 276.1344 
L 121.152592 160.0128 
L 129.414006 169.6896 
L 129.525924 160.0128 
L 129.552971 169.6896 
L 129.56323 150.336 
L 129.619189 150.336 
L 129.755356 72.9216 
L 129.782403 92.2752 
L 130.005306 285.8112 
L 130.188106 295.488 
L 130.226344 285.8112 
L 130.421268 295.488 
L 130.46044 285.8112 
L 130.654431 295.488 
L 130.693602 285.8112 
L 130.888526 295.488 
L 130.926765 285.8112 
L 131.120756 295.488 
L 131.158994 285.8112 
L 131.352986 295.488 
L 131.389359 285.8112 
L 131.58335 295.488 
L 131.627185 285.8112 
L 131.821176 295.488 
L 131.863145 285.8112 
L 132.058069 295.488 
L 132.094442 285.8112 
L 132.288434 295.488 
L 132.324807 285.8112 
L 132.519731 295.488 
L 132.559835 285.8112 
L 132.753826 295.488 
L 132.788334 285.8112 
L 132.983258 295.488 
L 133.017766 285.8112 
L 133.211757 295.488 
L 133.250929 285.8112 
L 133.44492 295.488 
L 133.483158 285.8112 
L 133.678082 295.488 
L 133.713523 285.8112 
L 133.907514 295.488 
L 133.949483 285.8112 
L 134.182646 276.1344 
L 134.34586 285.8112 
L 134.37757 295.488 
L 134.416741 285.8112 
L 134.611665 295.488 
L 134.643375 285.8112 
L 134.837366 295.488 
L 134.878403 285.8112 
L 135.072394 295.488 
L 135.108767 285.8112 
L 135.303691 295.488 
L 135.342863 285.8112 
L 135.537786 295.488 
L 135.576025 285.8112 
L 135.770016 295.488 
L 135.811053 285.8112 
L 136.005977 295.488 
L 136.038619 285.8112 
L 136.233543 295.488 
L 136.268051 285.8112 
L 136.462043 295.488 
L 136.503079 285.8112 
L 136.698003 295.488 
L 136.731578 285.8112 
L 136.926502 295.488 
L 136.964741 285.8112 
L 137.159665 295.488 
L 137.196038 285.8112 
L 137.390962 295.488 
L 137.432931 285.8112 
L 137.626922 295.488 
L 137.667026 285.8112 
L 137.861018 295.488 
L 137.899256 285.8112 
L 138.09418 295.488 
L 138.128688 285.8112 
L 138.323612 295.488 
L 138.363716 285.8112 
L 138.557707 295.488 
L 138.596879 285.8112 
L 138.791802 295.488 
L 138.833772 285.8112 
L 139.028696 295.488 
L 139.065069 285.8112 
L 139.259993 295.488 
L 139.299164 285.8112 
L 139.494088 295.488 
L 139.535124 285.8112 
L 139.730048 295.488 
L 139.768287 285.8112 
L 139.963211 295.488 
L 139.999584 285.8112 
L 140.193575 295.488 
L 140.23741 285.8112 
L 140.432334 295.488 
L 140.46964 285.8112 
L 143.502618 160.0128 
L 151.66144 169.6896 
L 151.760301 160.0128 
L 151.772426 169.6896 
L 151.878748 140.6592 
L 152.059682 72.9216 
L 152.071806 82.5984 
L 152.183724 189.0432 
L 152.314295 285.8112 
L 152.367456 276.1344 
L 152.529737 285.8112 
L 152.561448 295.488 
L 152.601552 285.8112 
L 152.796475 295.488 
L 152.834714 285.8112 
L 153.028705 295.488 
L 153.068809 285.8112 
L 153.2628 295.488 
L 153.302904 285.8112 
L 153.496896 295.488 
L 153.54073 285.8112 
L 153.735654 295.488 
L 153.77296 285.8112 
L 153.966951 295.488 
L 154.000527 285.8112 
L 154.19545 295.488 
L 154.233689 285.8112 
L 154.428613 295.488 
L 154.464054 285.8112 
L 154.658045 295.488 
L 154.700014 285.8112 
L 154.894938 295.488 
L 154.926648 285.8112 
L 155.121572 295.488 
L 155.160743 285.8112 
L 155.354734 295.488 
L 155.39204 285.8112 
L 155.586964 295.488 
L 155.627068 285.8112 
L 155.821992 295.488 
L 155.860231 285.8112 
L 156.055155 295.488 
L 156.08873 285.8112 
L 156.282721 295.488 
L 156.326556 285.8112 
L 156.52148 295.488 
L 156.558786 285.8112 
L 156.753709 295.488 
L 156.786352 285.8112 
L 156.981276 295.488 
L 157.02138 285.8112 
L 157.216304 295.488 
L 157.258273 285.8112 
L 157.453197 295.488 
L 157.490503 285.8112 
L 157.685427 295.488 
L 157.728329 285.8112 
L 157.923253 295.488 
L 157.963357 285.8112 
L 158.15828 295.488 
L 158.197452 285.8112 
L 158.392376 295.488 
L 158.430614 285.8112 
L 158.624605 295.488 
L 158.669373 285.8112 
L 158.864297 295.488 
L 158.90067 285.8112 
L 159.095594 295.488 
L 159.128236 285.8112 
L 159.32316 295.488 
L 159.357668 285.8112 
L 159.552592 295.488 
L 159.591764 285.8112 
L 159.786687 295.488 
L 159.825859 285.8112 
L 160.01985 295.488 
L 160.054358 285.8112 
L 160.248349 295.488 
L 160.288453 285.8112 
L 160.482444 295.488 
L 160.522548 285.8112 
L 160.717472 295.488 
L 160.753845 285.8112 
L 160.947837 295.488 
L 160.992604 285.8112 
L 161.186595 295.488 
L 161.222036 285.8112 
L 161.41696 295.488 
L 161.450535 285.8112 
L 161.644526 295.488 
L 161.68463 285.8112 
L 161.879554 295.488 
L 161.914062 285.8112 
L 162.108986 295.488 
L 162.150955 285.8112 
L 162.344946 295.488 
L 162.386916 285.8112 
L 162.580907 295.488 
L 162.61728 285.8112 
L 162.812204 295.488 
L 162.84951 285.8112 
L 163.044434 295.488 
L 163.084538 285.8112 
L 163.278529 295.488 
L 163.314902 285.8112 
L 163.509826 295.488 
L 163.5462 285.8112 
L 163.740191 295.488 
L 163.774699 285.8112 
L 163.969623 295.488 
L 164.005996 285.8112 
L 164.20092 295.488 
L 164.243822 285.8112 
L 164.437813 295.488 
L 164.474186 285.8112 
L 164.66911 295.488 
L 164.707349 285.8112 
L 164.90134 295.488 
L 164.940512 285.8112 
L 165.135435 295.488 
L 165.171809 285.8112 
L 165.3658 295.488 
L 165.398443 285.8112 
L 165.593367 295.488 
L 165.631605 285.8112 
L 165.825596 295.488 
L 165.869431 285.8112 
L 166.064355 295.488 
L 166.102593 285.8112 
L 166.296585 295.488 
L 166.333891 285.8112 
L 166.568918 276.1344 
L 166.729334 285.8112 
L 166.76291 295.488 
L 166.801148 285.8112 
L 166.996072 295.488 
L 167.033378 285.8112 
L 167.228302 295.488 
L 167.266541 285.8112 
L 167.461465 295.488 
L 167.500636 285.8112 
L 167.694627 295.488 
L 167.733798 285.8112 
L 167.92779 295.488 
L 167.966961 285.8112 
L 168.160952 295.488 
L 168.192662 285.8112 
L 168.387586 295.488 
L 168.425825 285.8112 
L 168.620749 295.488 
L 168.658055 285.8112 
L 168.852978 295.488 
L 168.889352 285.8112 
L 169.083343 295.488 
L 169.119716 285.8112 
L 169.31464 295.488 
L 169.351014 285.8112 
L 169.545937 295.488 
L 169.583243 285.8112 
L 169.777235 295.488 
L 169.818271 285.8112 
L 170.012262 295.488 
L 170.051434 285.8112 
L 170.245425 295.488 
L 170.279933 285.8112 
L 170.473924 295.488 
L 170.514028 285.8112 
L 170.708952 295.488 
L 170.74346 285.8112 
L 170.937451 295.488 
L 170.977555 285.8112 
L 171.171546 295.488 
L 171.20792 285.8112 
L 171.401911 295.488 
L 171.435486 285.8112 
L 171.629478 295.488 
L 171.664918 285.8112 
L 171.859842 295.488 
L 171.903677 285.8112 
L 172.097668 295.488 
L 172.136839 285.8112 
L 172.33083 295.488 
L 172.366271 285.8112 
L 172.561195 295.488 
L 172.598501 285.8112 
L 172.792492 295.488 
L 172.832596 285.8112 
L 173.02752 295.488 
L 173.065759 285.8112 
L 173.260682 295.488 
L 173.297988 285.8112 
L 173.492912 295.488 
L 173.531151 285.8112 
L 173.726075 295.488 
L 173.768044 285.8112 
L 173.962968 295.488 
L 174.001207 285.8112 
L 174.195198 295.488 
L 174.235302 285.8112 
L 174.430226 295.488 
L 174.471262 285.8112 
L 174.666186 295.488 
L 174.710953 285.8112 
L 174.905877 295.488 
L 174.949712 285.8112 
L 175.144636 295.488 
L 175.18474 285.8112 
L 175.378731 295.488 
L 175.417902 285.8112 
L 175.612826 295.488 
L 175.653862 285.8112 
L 175.847854 295.488 
L 175.886092 285.8112 
L 176.080084 295.488 
L 176.120188 285.8112 
L 176.315111 295.488 
L 176.357081 285.8112 
L 176.551072 295.488 
L 176.58931 285.8112 
L 176.784234 295.488 
L 176.820608 285.8112 
L 177.015532 295.488 
L 177.05377 285.8112 
L 177.247761 295.488 
L 177.284135 285.8112 
L 177.479059 295.488 
L 177.521028 285.8112 
L 177.715952 295.488 
L 177.751392 285.8112 
L 177.945384 295.488 
L 177.980824 285.8112 
L 178.175748 295.488 
L 178.216785 285.8112 
L 178.411709 295.488 
L 178.454611 285.8112 
L 178.649534 295.488 
L 178.685908 285.8112 
L 178.879899 295.488 
L 178.917205 285.8112 
L 179.112129 295.488 
L 179.149435 285.8112 
L 179.343426 295.488 
L 179.38353 285.8112 
L 179.577521 295.488 
L 179.612962 285.8112 
L 179.807886 295.488 
L 179.844259 285.8112 
L 180.039183 295.488 
L 180.076489 285.8112 
L 180.271413 295.488 
L 180.310584 285.8112 
L 180.505508 295.488 
L 180.543747 285.8112 
L 180.73867 295.488 
L 180.78064 285.8112 
L 180.974631 295.488 
L 181.010072 285.8112 
L 181.204996 295.488 
L 181.246032 285.8112 
L 181.440956 295.488 
L 181.481993 285.8112 
L 181.676916 295.488 
L 182.746666 285.8112 
L 182.943455 295.488 
L 183.069363 285.8112 
L 183.266152 295.488 
L 183.394858 285.8112 
L 183.591647 295.488 
L 183.726881 285.8112 
L 183.92367 295.488 
L 184.06077 285.8112 
L 184.257559 295.488 
L 184.389063 285.8112 
L 184.585852 295.488 
L 184.71549 285.8112 
L 184.912279 295.488 
L 185.046581 285.8112 
L 186.020268 256.7808 
L 186.083688 266.4576 
L 187.007944 237.4272 
L 187.334372 227.7504 
L 196.435171 237.4272 
L 196.566674 227.7504 
L 196.675794 237.4272 
L 196.67766 227.7504 
L 196.731753 237.4272 
L 196.761598 218.0736 
L 196.768127 227.7504 
L 196.953724 179.3664 
L 197.090824 237.4272 
L 197.210203 276.1344 
L 197.410723 285.8112 
L 197.452692 276.1344 
L 197.519843 285.8112 
L 197.649481 295.488 
L 197.780985 285.8112 
L 197.977774 295.488 
L 198.112075 285.8112 
L 198.307932 295.488 
L 198.440368 285.8112 
L 198.637157 295.488 
L 198.763065 285.8112 
L 198.959854 295.488 
L 199.084829 285.8112 
L 199.281619 295.488 
L 199.404728 285.8112 
L 199.601517 295.488 
L 199.731156 285.8112 
L 199.927945 295.488 
L 200.065045 285.8112 
L 200.261834 295.488 
L 200.398001 285.8112 
L 200.59479 295.488 
L 200.72163 285.8112 
L 200.918419 295.488 
L 201.04899 285.8112 
L 201.24578 295.488 
L 201.370755 285.8112 
L 201.567544 295.488 
L 201.702778 285.8112 
L 201.899567 295.488 
L 202.02361 285.8112 
L 202.220399 295.488 
L 202.35097 285.8112 
L 202.547759 295.488 
L 202.667138 285.8112 
L 202.863927 295.488 
L 202.9917 285.8112 
L 203.18849 295.488 
L 203.318128 285.8112 
L 203.514917 295.488 
L 203.652949 285.8112 
L 203.849738 295.488 
L 203.980309 285.8112 
L 204.177099 295.488 
L 204.30767 285.8112 
L 204.504459 295.488 
L 204.63503 285.8112 
L 204.831819 295.488 
L 204.956794 285.8112 
L 205.153583 295.488 
L 205.283222 285.8112 
L 205.480011 295.488 
L 205.618043 285.8112 
L 205.814832 295.488 
L 205.941672 285.8112 
L 206.138462 295.488 
L 206.259706 285.8112 
L 206.456495 295.488 
L 206.589864 285.8112 
L 206.786653 295.488 
L 206.920022 285.8112 
L 207.116812 295.488 
L 207.24645 285.8112 
L 207.443239 295.488 
L 207.564484 285.8112 
L 207.761273 295.488 
L 207.893709 285.8112 
L 208.090498 295.488 
L 208.222002 285.8112 
L 208.418791 295.488 
L 208.555891 285.8112 
L 208.75268 295.488 
L 208.877655 285.8112 
L 209.074444 295.488 
L 209.207813 285.8112 
L 209.404602 295.488 
L 209.535173 285.8112 
L 209.73103 295.488 
L 209.864399 285.8112 
L 210.060255 295.488 
L 210.187095 285.8112 
L 210.383885 295.488 
L 210.511658 285.8112 
L 210.708447 295.488 
L 210.842748 285.8112 
L 211.039538 295.488 
L 211.171041 285.8112 
L 211.36783 295.488 
L 211.489075 285.8112 
L 211.685864 295.488 
L 211.810839 285.8112 
L 212.007628 295.488 
L 212.138199 285.8112 
L 212.334988 295.488 
L 212.460896 285.8112 
L 212.657685 295.488 
L 212.793852 285.8112 
L 212.990641 295.488 
L 213.126808 285.8112 
L 213.323598 295.488 
L 213.46163 285.8112 
L 213.658419 295.488 
L 213.791788 285.8112 
L 213.988577 295.488 
L 214.126609 285.8112 
L 214.323398 295.488 
L 214.444643 285.8112 
L 214.640499 295.488 
L 214.772936 285.8112 
L 214.968792 295.488 
L 215.104959 285.8112 
L 215.301748 295.488 
L 215.437915 285.8112 
L 215.634704 295.488 
L 215.765275 285.8112 
L 215.962064 295.488 
L 216.088905 285.8112 
L 216.285694 295.488 
L 216.413467 285.8112 
L 216.610256 295.488 
L 216.743625 285.8112 
L 216.940414 295.488 
L 217.06912 285.8112 
L 217.265909 295.488 
L 217.397413 285.8112 
L 217.594202 295.488 
L 217.72384 285.8112 
L 217.92063 295.488 
L 218.04747 285.8112 
L 218.244259 295.488 
L 218.369234 285.8112 
L 218.566023 295.488 
L 218.694729 285.8112 
L 218.891518 295.488 
L 219.028618 285.8112 
L 219.225407 295.488 
L 219.357843 285.8112 
L 219.554632 295.488 
L 219.684271 285.8112 
L 219.880127 295.488 
L 220.017227 285.8112 
L 220.214016 295.488 
L 220.348318 285.8112 
L 220.545107 295.488 
L 220.679408 285.8112 
L 220.876198 295.488 
L 220.998375 285.8112 
L 221.195164 295.488 
L 221.325735 285.8112 
L 221.521591 295.488 
L 222.830099 285.8112 
L 223.012899 276.1344 
L 223.024091 285.8112 
L 223.202227 276.1344 
L 223.207823 285.8112 
L 223.384093 276.1344 
L 223.397151 285.8112 
L 223.573421 276.1344 
L 223.579017 285.8112 
L 223.761817 276.1344 
L 223.767413 285.8112 
L 223.951145 276.1344 
L 223.956741 285.8112 
L 224.133011 276.1344 
L 224.145136 285.8112 
L 224.316743 276.1344 
L 224.327003 285.8112 
L 224.502341 276.1344 
L 224.511667 285.8112 
L 224.688871 276.1344 
L 224.696332 285.8112 
L 224.873536 276.1344 
L 224.882862 285.8112 
L 225.0582 276.1344 
L 225.067527 285.8112 
L 225.249394 276.1344 
L 225.252191 285.8112 
L 225.433126 276.1344 
L 225.443385 285.8112 
L 225.624319 276.1344 
L 225.628049 285.8112 
L 225.806186 276.1344 
L 225.81831 285.8112 
L 225.993648 276.1344 
L 226.000177 285.8112 
L 226.175515 276.1344 
L 226.187639 285.8112 
L 226.364843 276.1344 
L 226.370439 285.8112 
L 226.552306 276.1344 
L 226.558834 285.8112 
L 226.738836 276.1344 
L 226.747229 285.8112 
L 226.920702 276.1344 
L 226.932827 285.8112 
L 227.1063 276.1344 
L 227.114694 285.8112 
L 227.294695 276.1344 
L 227.300291 285.8112 
L 227.481225 276.1344 
L 227.488686 285.8112 
L 227.663092 276.1344 
L 227.675216 285.8112 
L 227.848689 276.1344 
L 227.857083 285.8112 
L 228.037084 276.1344 
L 228.04268 285.8112 
L 228.226412 276.1344 
L 228.231076 285.8112 
L 228.41574 276.1344 
L 228.420404 285.8112 
L 228.603203 276.1344 
L 228.609732 285.8112 
L 228.794396 276.1344 
L 228.797194 285.8112 
L 228.981859 276.1344 
L 228.988388 285.8112 
L 229.170254 276.1344 
L 229.176783 285.8112 
L 229.353986 276.1344 
L 229.364246 285.8112 
L 229.538651 276.1344 
L 229.54891 285.8112 
L 229.723316 276.1344 
L 229.732642 285.8112 
L 229.912644 276.1344 
L 229.917307 285.8112 
L 230.099174 276.1344 
L 230.106635 285.8112 
L 230.289434 276.1344 
L 230.294098 285.8112 
L 230.473166 276.1344 
L 230.483426 285.8112 
L 230.658764 276.1344 
L 230.66809 285.8112 
L 230.846226 276.1344 
L 230.852755 285.8112 
L 231.029958 276.1344 
L 231.040218 285.8112 
L 231.218354 276.1344 
L 231.22395 285.8112 
L 231.404884 276.1344 
L 231.413278 285.8112 
L 231.591414 276.1344 
L 231.598875 285.8112 
L 231.774213 276.1344 
L 231.785405 285.8112 
L 231.963541 276.1344 
L 231.968204 285.8112 
L 232.150071 276.1344 
L 232.157532 285.8112 
L 232.340332 276.1344 
L 232.344062 285.8112 
L 232.530592 276.1344 
L 232.535256 285.8112 
L 232.71619 276.1344 
L 232.724584 285.8112 
L 232.899922 276.1344 
L 232.911114 285.8112 
L 233.088317 276.1344 
L 233.093913 285.8112 
L 233.27578 276.1344 
L 233.282308 285.8112 
L 233.459512 276.1344 
L 233.469771 285.8112 
L 233.647907 276.1344 
L 233.654436 285.8112 
L 233.83537 276.1344 
L 233.842831 285.8112 
L 234.022832 276.1344 
L 234.029361 285.8112 
L 234.209362 276.1344 
L 234.216824 285.8112 
L 234.39496 276.1344 
L 234.404286 285.8112 
L 234.58522 276.1344 
L 234.588951 285.8112 
L 234.766155 276.1344 
L 234.779212 285.8112 
L 234.951752 276.1344 
L 234.960146 285.8112 
L 235.143878 276.1344 
L 235.145743 285.8112 
L 235.326677 276.1344 
L 235.337869 285.8112 
L 235.509477 276.1344 
L 235.520668 285.8112 
L 235.698805 276.1344 
L 235.703468 285.8112 
L 235.884402 276.1344 
L 235.892796 285.8112 
L 236.069067 276.1344 
L 236.079326 285.8112 
L 236.254664 276.1344 
L 236.26399 285.8112 
L 236.440261 276.1344 
L 236.448655 285.8112 
L 236.623993 276.1344 
L 236.634253 285.8112 
L 236.810523 276.1344 
L 236.818917 285.8112 
L 236.998919 276.1344 
L 237.005447 285.8112 
L 237.183583 276.1344 
L 237.19291 285.8112 
L 237.368248 276.1344 
L 237.377575 285.8112 
L 237.556643 276.1344 
L 237.562239 285.8112 
L 237.744106 276.1344 
L 237.751567 285.8112 
L 237.930636 276.1344 
L 237.938097 285.8112 
L 238.119031 276.1344 
L 238.124627 285.8112 
L 238.305561 276.1344 
L 238.313955 285.8112 
L 238.673958 266.4576 
L 238.70287 285.8112 
L 238.860488 276.1344 
L 238.868882 285.8112 
L 239.047951 276.1344 
L 239.054479 285.8112 
L 239.235413 276.1344 
L 239.241942 285.8112 
L 239.422876 276.1344 
L 239.429405 285.8112 
L 239.613137 276.1344 
L 239.6178 285.8112 
L 239.799667 276.1344 
L 239.807128 285.8112 
L 239.987129 276.1344 
L 239.993658 285.8112 
L 240.174592 276.1344 
L 240.181121 285.8112 
L 240.362987 276.1344 
L 240.368583 285.8112 
L 240.547652 276.1344 
L 240.556979 285.8112 
L 240.732317 276.1344 
L 240.742576 285.8112 
L 240.916049 276.1344 
L 240.926308 285.8112 
L 241.101646 276.1344 
L 241.11004 285.8112 
L 241.285378 276.1344 
L 241.295637 285.8112 
L 241.473774 276.1344 
L 241.480302 285.8112 
L 241.661236 276.1344 
L 241.668697 285.8112 
L 241.845901 276.1344 
L 241.855227 285.8112 
L 242.036162 276.1344 
L 242.039892 285.8112 
L 242.222692 276.1344 
L 242.230153 285.8112 
L 242.41202 276.1344 
L 242.416683 285.8112 
L 242.600415 276.1344 
L 242.606011 285.8112 
L 242.791608 276.1344 
L 242.794406 285.8112 
L 242.97534 276.1344 
L 242.985599 285.8112 
L 243.162803 276.1344 
L 243.169331 285.8112 
L 243.352131 276.1344 
L 243.356794 285.8112 
L 243.542391 276.1344 
L 243.546122 285.8112 
L 243.728921 276.1344 
L 243.736383 285.8112 
L 243.916384 276.1344 
L 243.922913 285.8112 
L 244.102914 276.1344 
L 244.110375 285.8112 
L 244.288511 276.1344 
L 244.296905 285.8112 
L 244.472243 276.1344 
L 244.482503 285.8112 
L 244.659706 276.1344 
L 244.667167 285.8112 
L 244.842506 276.1344 
L 244.853697 285.8112 
L 245.030901 276.1344 
L 245.036497 285.8112 
L 245.217431 276.1344 
L 245.224892 285.8112 
L 245.404893 276.1344 
L 245.411422 285.8112 
L 245.595154 276.1344 
L 245.598885 285.8112 
L 245.782617 276.1344 
L 245.789145 285.8112 
L 245.966349 276.1344 
L 245.976608 285.8112 
L 246.152879 276.1344 
L 246.16034 285.8112 
L 246.343139 276.1344 
L 246.34687 285.8112 
L 246.529669 276.1344 
L 246.537131 285.8112 
L 246.712469 276.1344 
L 246.723661 285.8112 
L 246.895268 276.1344 
L 246.907393 285.8112 
L 247.086462 276.1344 
L 247.089259 285.8112 
L 247.272059 276.1344 
L 247.281385 285.8112 
L 247.456724 276.1344 
L 247.46605 285.8112 
L 247.645119 276.1344 
L 247.650715 285.8112 
L 247.835379 276.1344 
L 247.83911 285.8112 
L 248.022842 276.1344 
L 248.029371 285.8112 
L 248.20844 276.1344 
L 248.216833 285.8112 
L 248.395902 276.1344 
L 248.402431 285.8112 
L 248.579634 276.1344 
L 248.590826 285.8112 
L 248.76803 276.1344 
L 248.773625 285.8112 
L 248.95456 276.1344 
L 248.962021 285.8112 
L 249.14109 276.1344 
L 249.148551 285.8112 
L 249.32762 276.1344 
L 249.336013 285.8112 
L 249.515082 276.1344 
L 249.521611 285.8112 
L 249.703478 276.1344 
L 249.709073 285.8112 
L 249.893738 276.1344 
L 249.897469 285.8112 
L 250.083066 276.1344 
L 250.087729 285.8112 
L 250.273327 276.1344 
L 250.277057 285.8112 
L 250.462655 276.1344 
L 250.467318 285.8112 
L 250.645454 276.1344 
L 250.656646 285.8112 
L 250.834782 276.1344 
L 250.840378 285.8112 
L 251.023177 276.1344 
L 251.029706 285.8112 
L 251.209707 276.1344 
L 251.217169 285.8112 
L 251.398103 276.1344 
L 251.404631 285.8112 
L 251.585565 276.1344 
L 251.592094 285.8112 
L 251.775826 276.1344 
L 251.779557 285.8112 
L 251.962356 276.1344 
L 251.969817 285.8112 
L 252.152617 276.1344 
L 252.156347 285.8112 
L 252.338214 276.1344 
L 252.346608 285.8112 
L 252.522879 276.1344 
L 252.532205 285.8112 
L 252.709409 276.1344 
L 252.71687 285.8112 
L 252.895939 276.1344 
L 252.9034 285.8112 
L 253.082469 276.1344 
L 253.08993 285.8112 
L 253.270864 276.1344 
L 253.27646 285.8112 
L 253.455529 276.1344 
L 253.464855 285.8112 
L 253.640193 276.1344 
L 253.650452 285.8112 
L 253.825791 276.1344 
L 253.834185 285.8112 
L 254.015119 276.1344 
L 254.019782 285.8112 
L 254.200716 276.1344 
L 254.20911 285.8112 
L 254.38165 276.1344 
L 254.394707 285.8112 
L 254.563517 276.1344 
L 254.575641 285.8112 
L 254.75098 276.1344 
L 254.758441 285.8112 
L 254.939375 276.1344 
L 254.944971 285.8112 
L 255.129635 276.1344 
L 255.133366 285.8112 
L 255.311502 276.1344 
L 255.324559 285.8112 
L 255.496167 276.1344 
L 255.505493 285.8112 
L 255.682697 276.1344 
L 255.690158 285.8112 
L 255.869227 276.1344 
L 255.876688 285.8112 
L 256.054824 276.1344 
L 256.063218 285.8112 
L 256.244152 276.1344 
L 256.248815 285.8112 
L 256.42975 276.1344 
L 256.438143 285.8112 
L 256.614414 276.1344 
L 256.624673 285.8112 
L 256.801877 276.1344 
L 256.809338 285.8112 
L 256.98934 276.1344 
L 256.995868 285.8112 
L 257.174937 276.1344 
L 257.184263 285.8112 
L 257.357736 276.1344 
L 257.368928 285.8112 
L 257.541468 276.1344 
L 257.551728 285.8112 
L 257.726133 276.1344 
L 257.73546 285.8112 
L 257.914528 276.1344 
L 257.921057 285.8112 
L 258.104789 276.1344 
L 258.10852 285.8112 
L 258.290386 276.1344 
L 258.29878 285.8112 
L 258.478782 276.1344 
L 258.484378 285.8112 
L 258.660648 276.1344 
L 258.672773 285.8112 
L 258.848111 276.1344 
L 258.855572 285.8112 
L 259.035574 276.1344 
L 259.042102 285.8112 
L 259.221171 276.1344 
L 259.229565 285.8112 
L 259.405836 276.1344 
L 259.415162 285.8112 
L 259.593299 276.1344 
L 259.599827 285.8112 
L 259.776098 276.1344 
L 259.78729 285.8112 
L 259.960763 276.1344 
L 259.970089 285.8112 
L 260.149158 276.1344 
L 260.155686 285.8112 
L 260.331957 276.1344 
L 260.344082 285.8112 
L 260.518487 276.1344 
L 260.525949 285.8112 
L 260.707815 276.1344 
L 260.713411 285.8112 
L 260.890615 276.1344 
L 260.901807 285.8112 
L 261.080875 276.1344 
L 261.084606 285.8112 
L 261.268338 276.1344 
L 261.274867 285.8112 
L 261.460464 276.1344 
L 261.463262 285.8112 
L 261.644196 276.1344 
L 261.654455 285.8112 
L 261.828861 276.1344 
L 261.838187 285.8112 
L 262.015391 276.1344 
L 262.023785 285.8112 
L 262.202853 276.1344 
L 262.209382 285.8112 
L 262.394047 276.1344 
L 262.396845 285.8112 
L 262.582442 276.1344 
L 262.588038 285.8112 
L 262.768039 276.1344 
L 262.776433 285.8112 
L 262.956435 276.1344 
L 262.962963 285.8112 
L 263.139234 276.1344 
L 263.150426 285.8112 
L 263.326697 276.1344 
L 263.334158 285.8112 
L 263.511361 276.1344 
L 263.520688 285.8112 
L 263.695093 276.1344 
L 263.705353 285.8112 
L 263.878825 276.1344 
L 263.889085 285.8112 
L 264.06349 276.1344 
L 264.072817 285.8112 
L 264.251885 276.1344 
L 264.258414 285.8112 
L 264.440281 276.1344 
L 264.445877 285.8112 
L 264.628676 276.1344 
L 264.634272 285.8112 
L 264.816139 276.1344 
L 264.822667 285.8112 
L 265.003601 276.1344 
L 265.01013 285.8112 
L 265.186401 276.1344 
L 265.197593 285.8112 
L 265.376661 276.1344 
L 265.380392 285.8112 
L 265.564124 276.1344 
L 265.571585 285.8112 
L 265.750654 276.1344 
L 265.758115 285.8112 
L 265.936251 276.1344 
L 265.945578 285.8112 
L 266.122781 276.1344 
L 266.131175 285.8112 
L 266.308379 276.1344 
L 266.316773 285.8112 
L 266.496774 276.1344 
L 266.50237 285.8112 
L 266.678641 276.1344 
L 266.690765 285.8112 
L 266.864238 276.1344 
L 266.873565 285.8112 
L 267.052634 276.1344 
L 267.058229 285.8112 
L 267.237298 276.1344 
L 267.246625 285.8112 
L 267.421963 276.1344 
L 267.432222 285.8112 
L 267.602897 276.1344 
L 267.615954 285.8112 
L 267.793158 276.1344 
L 267.796888 285.8112 
L 267.982486 276.1344 
L 267.987149 285.8112 
L 268.164352 276.1344 
L 268.176477 285.8112 
L 268.354613 276.1344 
L 268.358344 285.8112 
L 268.542076 276.1344 
L 268.549537 285.8112 
L 268.727673 276.1344 
L 268.736067 285.8112 
L 268.914203 276.1344 
L 268.922597 285.8112 
L 269.0998 276.1344 
L 269.109127 285.8112 
L 269.294724 295.488 
L 274.879433 285.8112 
L 274.998812 266.4576 
L 275.222648 111.6288 
L 275.247829 130.9824 
L 275.432494 295.488 
L 275.43809 285.8112 
L 275.627418 276.1344 
L 275.632081 285.8112 
L 275.812083 276.1344 
L 275.821409 285.8112 
L 275.99768 276.1344 
L 276.007007 285.8112 
L 276.188873 276.1344 
L 276.191671 285.8112 
L 276.375403 276.1344 
L 276.383797 285.8112 
L 276.566597 276.1344 
L 276.569395 285.8112 
L 276.756857 276.1344 
L 276.760588 285.8112 
L 276.943387 276.1344 
L 276.950848 285.8112 
L 277.126187 276.1344 
L 277.137378 285.8112 
L 277.315515 276.1344 
L 277.320178 285.8112 
L 277.499247 276.1344 
L 277.509506 285.8112 
L 277.684844 276.1344 
L 277.693238 285.8112 
L 277.871374 276.1344 
L 277.879768 285.8112 
L 278.058837 276.1344 
L 278.066298 285.8112 
L 278.25003 276.1344 
L 278.252828 285.8112 
L 278.441223 276.1344 
L 278.444021 285.8112 
L 278.624955 276.1344 
L 278.635214 285.8112 
L 278.812418 276.1344 
L 278.818946 285.8112 
L 278.998015 276.1344 
L 279.006409 285.8112 
L 279.183613 276.1344 
L 279.192939 285.8112 
L 279.372941 276.1344 
L 279.378536 285.8112 
L 279.559471 276.1344 
L 279.566932 285.8112 
L 279.744135 276.1344 
L 279.753462 285.8112 
L 279.9288 276.1344 
L 279.938126 285.8112 
L 280.120926 276.1344 
L 280.122791 285.8112 
L 280.311186 276.1344 
L 280.314917 285.8112 
L 280.494919 276.1344 
L 280.505178 285.8112 
L 280.687044 276.1344 
L 280.689842 285.8112 
L 280.874507 276.1344 
L 280.881036 285.8112 
L 281.059172 276.1344 
L 281.068498 285.8112 
L 281.2485 276.1344 
L 281.253163 285.8112 
L 281.433164 276.1344 
L 281.442491 285.8112 
L 281.618762 276.1344 
L 281.627156 285.8112 
L 281.806224 276.1344 
L 281.812753 285.8112 
L 281.993687 276.1344 
L 282.000216 285.8112 
L 282.18115 276.1344 
L 282.187678 285.8112 
L 282.366747 276.1344 
L 282.375141 285.8112 
L 282.55421 276.1344 
L 282.560738 285.8112 
L 282.743538 276.1344 
L 282.749134 285.8112 
L 282.931933 276.1344 
L 282.937529 285.8112 
L 283.123126 276.1344 
L 283.125924 285.8112 
L 283.304993 276.1344 
L 283.317118 285.8112 
L 283.493388 276.1344 
L 283.499917 285.8112 
L 283.681784 276.1344 
L 283.688312 285.8112 
L 283.867381 276.1344 
L 283.875775 285.8112 
L 284.052046 276.1344 
L 284.062305 285.8112 
L 284.241374 276.1344 
L 284.24697 285.8112 
L 284.430702 276.1344 
L 284.436298 285.8112 
L 284.619097 276.1344 
L 284.624693 285.8112 
L 284.805627 276.1344 
L 284.813088 285.8112 
L 284.991224 276.1344 
L 285.000551 285.8112 
L 285.178687 276.1344 
L 285.185216 285.8112 
L 285.364284 276.1344 
L 285.373611 285.8112 
L 285.549882 276.1344 
L 285.558276 285.8112 
L 285.735479 276.1344 
L 285.744806 285.8112 
L 285.92574 276.1344 
L 285.92947 285.8112 
L 286.119731 295.488 
L 291.704439 285.8112 
L 291.786513 266.4576 
L 292.009416 111.6288 
L 292.03553 130.9824 
L 292.29947 285.8112 
L 292.465482 276.1344 
L 292.476674 285.8112 
L 292.652012 276.1344 
L 292.659473 285.8112 
L 292.839474 276.1344 
L 292.846003 285.8112 
L 293.025072 276.1344 
L 293.034398 285.8112 
L 293.219063 295.488 
L 294.479073 285.8112 
L 294.675862 295.488 
L 294.812029 285.8112 
L 295.008818 295.488 
L 295.133794 285.8112 
L 295.330583 295.488 
L 295.454625 285.8112 
L 295.650482 295.488 
L 295.778255 285.8112 
L 295.975044 295.488 
L 296.096288 285.8112 
L 296.293078 295.488 
L 296.422716 285.8112 
L 296.618572 295.488 
L 296.748211 285.8112 
L 296.945 295.488 
L 297.073706 285.8112 
L 297.270495 295.488 
L 297.403864 285.8112 
L 297.600653 295.488 
L 297.723763 285.8112 
L 297.920552 295.488 
L 298.056719 285.8112 
L 298.253508 295.488 
L 298.386877 285.8112 
L 298.583666 295.488 
L 298.712372 285.8112 
L 298.909161 295.488 
L 299.040665 285.8112 
L 299.237454 295.488 
L 299.365227 285.8112 
L 299.562016 295.488 
L 299.69725 285.8112 
L 299.894039 295.488 
L 300.027408 285.8112 
L 300.224197 295.488 
L 300.357566 285.8112 
L 300.554356 295.488 
L 300.679331 285.8112 
L 300.87612 295.488 
L 301.004825 285.8112 
L 301.200682 295.488 
L 301.335916 285.8112 
L 301.532705 295.488 
L 301.66794 285.8112 
L 301.863796 295.488 
L 301.999963 285.8112 
L 302.196752 295.488 
L 302.324525 285.8112 
L 302.521314 295.488 
L 302.649088 285.8112 
L 302.845877 295.488 
L 302.983909 285.8112 
L 303.180698 295.488 
L 303.307538 285.8112 
L 303.504328 295.488 
L 303.635831 285.8112 
L 303.83262 295.488 
L 303.959461 285.8112 
L 304.15625 295.488 
L 304.289619 285.8112 
L 304.486408 295.488 
L 304.618844 285.8112 
L 304.814701 295.488 
L 304.947137 285.8112 
L 305.143926 295.488 
L 305.277295 285.8112 
L 305.474084 295.488 
L 305.598127 285.8112 
L 305.794916 295.488 
L 305.923622 285.8112 
L 306.120411 295.488 
L 306.252847 285.8112 
L 306.449636 295.488 
L 306.584871 285.8112 
L 306.78166 295.488 
L 306.913163 285.8112 
L 307.109953 295.488 
L 307.23213 285.8112 
L 307.428919 295.488 
L 307.552961 285.8112 
L 307.749751 295.488 
L 307.878456 285.8112 
L 308.074313 295.488 
L 308.197423 285.8112 
L 308.394212 295.488 
L 314.116952 285.8112 
L 314.279233 237.4272 
L 314.424727 218.0736 
L 314.620583 295.488 
L 314.712916 285.8112 
L 314.909705 295.488 
L 315.038411 285.8112 
L 315.2352 295.488 
L 315.369501 285.8112 
L 315.566291 295.488 
L 315.697794 285.8112 
L 315.894583 295.488 
L 316.028885 285.8112 
L 316.225674 295.488 
L 316.35811 285.8112 
L 316.5549 295.488 
L 316.682673 285.8112 
L 316.879462 295.488 
L 317.014696 285.8112 
L 317.210553 295.488 
L 317.347652 285.8112 
L 317.544441 295.488 
L 317.668484 285.8112 
L 317.865273 295.488 
L 317.997709 285.8112 
L 318.194498 295.488 
L 318.323204 285.8112 
L 318.519993 295.488 
L 318.647766 285.8112 
L 318.844555 295.488 
L 318.971396 285.8112 
L 319.168185 295.488 
L 319.295958 285.8112 
L 319.492747 295.488 
L 319.61679 285.8112 
L 319.813579 295.488 
L 319.943217 285.8112 
L 320.267779 276.1344 
L 320.464569 295.488 
L 320.59887 285.8112 
L 320.794727 295.488 
L 320.9225 285.8112 
L 321.119289 295.488 
L 321.256388 285.8112 
L 321.453178 295.488 
L 321.589344 285.8112 
L 321.786134 295.488 
L 321.916705 285.8112 
L 322.113494 295.488 
L 322.240334 285.8112 
L 322.436191 295.488 
L 322.564896 285.8112 
L 322.761686 295.488 
L 322.889459 285.8112 
L 323.086248 295.488 
L 323.213088 285.8112 
L 323.409877 295.488 
L 323.532055 285.8112 
L 323.728844 295.488 
L 323.863145 285.8112 
L 324.059934 295.488 
L 324.191438 285.8112 
L 324.387295 295.488 
L 324.513202 285.8112 
L 324.709991 295.488 
L 324.846158 285.8112 
L 325.042948 295.488 
L 325.180047 285.8112 
L 327.135814 227.7504 
L 336.333609 237.4272 
L 336.420345 227.7504 
L 336.501486 237.4272 
L 336.503351 227.7504 
L 336.723457 179.3664 
L 336.860556 218.0736 
L 336.991127 295.488 
L 337.024703 285.8112 
L 337.218694 295.488 
L 337.258798 285.8112 
L 337.452789 295.488 
L 337.487297 285.8112 
L 337.682221 295.488 
L 337.715796 285.8112 
L 337.91072 295.488 
L 337.949891 285.8112 
L 338.143883 295.488 
L 338.183054 285.8112 
L 338.377978 295.488 
L 338.419014 285.8112 
L 338.613006 295.488 
L 338.654975 285.8112 
L 338.849899 295.488 
L 338.885339 285.8112 
L 339.080263 295.488 
L 339.12503 285.8112 
L 339.319954 295.488 
L 339.362856 285.8112 
L 339.556847 295.488 
L 339.595086 285.8112 
L 339.79001 295.488 
L 339.832912 285.8112 
L 340.027836 295.488 
L 340.069805 285.8112 
L 340.263796 295.488 
L 340.298304 285.8112 
L 340.493228 295.488 
L 340.534265 285.8112 
L 340.728256 295.488 
L 340.765562 285.8112 
L 340.959553 295.488 
L 340.996859 285.8112 
L 341.191783 295.488 
L 341.230022 285.8112 
L 341.424945 295.488 
L 341.465982 285.8112 
L 341.660906 295.488 
L 341.699145 285.8112 
L 341.893136 295.488 
L 341.935105 285.8112 
L 344.742382 169.6896 
L 345.197515 160.0128 
L 347.517948 169.6896 
L 347.618674 160.0128 
L 347.719401 198.72 
L 347.768831 189.0432 
L 347.846241 208.3968 
L 347.962822 285.8112 
L 348.002926 276.1344 
L 348.033704 285.8112 
L 348.19785 295.488 
L 348.237021 285.8112 
L 348.431945 295.488 
L 348.468319 285.8112 
L 348.66231 295.488 
L 348.704279 285.8112 
L 348.899203 295.488 
L 348.934644 285.8112 
L 349.129567 295.488 
L 349.166873 285.8112 
L 349.361797 295.488 
L 349.396305 285.8112 
L 349.591229 295.488 
L 349.631333 285.8112 
L 349.825324 295.488 
L 349.865428 285.8112 
L 350.060352 295.488 
L 350.092995 285.8112 
L 350.286986 295.488 
L 350.32709 285.8112 
L 350.521081 295.488 
L 350.562118 285.8112 
L 350.757042 295.488 
L 350.793415 285.8112 
L 350.988339 295.488 
L 351.026578 285.8112 
L 351.220569 295.488 
L 351.25601 285.8112 
L 351.450933 295.488 
L 351.49197 285.8112 
L 351.685961 295.488 
L 351.726065 285.8112 
L 351.920989 295.488 
L 351.962958 285.8112 
L 352.156949 295.488 
L 352.197986 285.8112 
L 352.39291 295.488 
L 352.430216 285.8112 
L 352.624207 295.488 
L 352.658715 285.8112 
L 352.853639 295.488 
L 352.891878 285.8112 
L 353.085869 295.488 
L 353.124108 285.8112 
L 356.157085 160.0128 
L 358.709749 169.6896 
L 358.897211 295.488 
L 364.307514 285.8112 
L 364.634874 121.3056 
L 364.938918 276.1344 
L 364.972494 295.488 
L 364.99581 285.8112 
L 365.190734 295.488 
L 365.230838 285.8112 
L 365.424829 295.488 
L 365.464 285.8112 
L 365.658924 295.488 
L 365.704624 285.8112 
L 365.898615 295.488 
L 365.933123 285.8112 
L 366.16442 276.1344 
L 366.328567 285.8112 
L 366.358412 295.488 
L 366.397583 285.8112 
L 366.592507 295.488 
L 366.627015 285.8112 
L 366.821939 295.488 
L 366.858312 285.8112 
L 367.052303 295.488 
L 367.091475 285.8112 
L 367.285466 295.488 
L 367.321839 285.8112 
L 367.516763 295.488 
L 367.5578 285.8112 
L 367.751791 295.488 
L 367.791895 285.8112 
L 367.986819 295.488 
L 368.024125 285.8112 
L 368.219048 295.488 
L 368.256354 285.8112 
L 368.450346 295.488 
L 368.486719 285.8112 
L 368.681643 295.488 
L 368.718016 285.8112 
L 368.91294 295.488 
L 368.950246 285.8112 
L 369.144237 295.488 
L 369.185274 285.8112 
L 369.379265 295.488 
L 369.411908 285.8112 
L 369.606832 295.488 
L 369.642272 285.8112 
L 369.836264 295.488 
L 369.875435 285.8112 
L 370.069426 295.488 
L 370.106732 285.8112 
L 370.301656 295.488 
L 370.337097 285.8112 
L 370.53202 295.488 
L 370.567461 285.8112 
L 370.761452 295.488 
L 370.800624 285.8112 
L 370.994615 295.488 
L 371.029123 285.8112 
L 371.224047 295.488 
L 371.261353 285.8112 
L 371.456277 295.488 
L 371.494515 285.8112 
L 371.688507 295.488 
L 371.731408 285.8112 
L 371.926332 295.488 
L 371.964571 285.8112 
L 372.159495 295.488 
L 372.196801 285.8112 
L 372.391725 295.488 
L 372.430896 285.8112 
L 372.624887 295.488 
L 372.661261 285.8112 
L 372.856184 295.488 
L 372.890692 285.8112 
L 373.084684 295.488 
L 373.127586 285.8112 
L 373.321577 295.488 
L 373.360748 285.8112 
L 373.555672 295.488 
L 373.594843 285.8112 
L 373.789767 295.488 
L 373.825208 285.8112 
L 374.020132 295.488 
L 374.053707 285.8112 
L 374.248631 295.488 
L 374.284072 285.8112 
L 374.478995 295.488 
L 374.516301 285.8112 
L 374.710293 295.488 
L 374.751329 285.8112 
L 374.946253 295.488 
L 374.978896 285.8112 
L 375.17382 295.488 
L 375.208328 285.8112 
L 375.403252 295.488 
L 375.443356 285.8112 
L 378.463276 160.0128 
L 392.281419 169.6896 
L 392.467017 295.488 
L 397.87732 285.8112 
L 398.264369 53.568 
L 398.287686 72.9216 
L 398.487273 150.336 
L 398.487273 150.336 
" clip-path="url(#p7995572a0b)" style="fill: none; stroke: #1f77b4; stroke-width: 1.5; stroke-linecap: square"/>
   </g>
   <g id="patch_3">
    <path d="M 57.6 307.584 
L 57.6 41.472 
" style="fill: none; stroke: #000000; stroke-width: 0.8; stroke-linejoin: miter; stroke-linecap: square"/>
   </g>
   <g id="patch_4">
    <path d="M 414.72 307.584 
L 414.72 41.472 
" style="fill: none; stroke: #000000; stroke-width: 0.8; stroke-linejoin: miter; stroke-linecap: square"/>
   </g>
   <g id="patch_5">
    <path d="M 57.6 307.584 
L 414.72 307.584 
" style="fill: none; stroke: #000000; stroke-width: 0.8; stroke-linejoin: miter; stroke-linecap: square"/>
   </g>
   <g id="patch_6">
    <path d="M 57.6 41.472 
L 414.72 41.472 
" style="fill: none; stroke: #000000; stroke-width: 0.8; stroke-linejoin: miter; stroke-linecap: square"/>
   </g>
   <g id="text_16">
    <!-- Queue size (y-axis) between S3 and sensors that follow at a time (x-axis). -->
    <g transform="translate(14.282813 35.472) scale(0.12 -0.12)">
     <defs>
      <path id="DejaVuSans-51" d="M 2522 4238 
Q 1834 4238 1429 3725 
Q 1025 3213 1025 2328 
Q 1025 1447 1429 934 
Q 1834 422 2522 422 
Q 3209 422 3611 934 
Q 4013 1447 4013 2328 
Q 4013 3213 3611 3725 
Q 3209 4238 2522 4238 
z
M 3406 84 
L 4238 -825 
L 3475 -825 
L 2784 -78 
Q 2681 -84 2626 -87 
Q 2572 -91 2522 -91 
Q 1538 -91 948 567 
Q 359 1225 359 2328 
Q 359 3434 948 4092 
Q 1538 4750 2522 4750 
Q 3503 4750 4090 4092 
Q 4678 3434 4678 2328 
Q 4678 1516 4351 937 
Q 4025 359 3406 84 
z
" transform="scale(0.015625)"/>
      <path id="DejaVuSans-75" d="M 544 1381 
L 544 3500 
L 1119 3500 
L 1119 1403 
Q 1119 906 1312 657 
Q 1506 409 1894 409 
Q 2359 409 2629 706 
Q 2900 1003 2900 1516 
L 2900 3500 
L 3475 3500 
L 3475 0 
L 2900 0 
L 2900 538 
Q 2691 219 2414 64 
Q 2138 -91 1772 -91 
Q 1169 -91 856 284 
Q 544 659 544 1381 
z
M 1991 3584 
L 1991 3584 
z
" transform="scale(0.015625)"/>
      <path id="DejaVuSans-20" transform="scale(0.015625)"/>
      <path id="DejaVuSans-73" d="M 2834 3397 
L 2834 2853 
Q 2591 2978 2328 3040 
Q 2066 3103 1784 3103 
Q 1356 3103 1142 2972 
Q 928 2841 928 2578 
Q 928 2378 1081 2264 
Q 1234 2150 1697 2047 
L 1894 2003 
Q 2506 1872 2764 1633 
Q 3022 1394 3022 966 
Q 3022 478 2636 193 
Q 2250 -91 1575 -91 
Q 1294 -91 989 -36 
Q 684 19 347 128 
L 347 722 
Q 666 556 975 473 
Q 1284 391 1588 391 
Q 1994 391 2212 530 
Q 2431 669 2431 922 
Q 2431 1156 2273 1281 
Q 2116 1406 1581 1522 
L 1381 1569 
Q 847 1681 609 1914 
Q 372 2147 372 2553 
Q 372 3047 722 3315 
Q 1072 3584 1716 3584 
Q 2034 3584 2315 3537 
Q 2597 3491 2834 3397 
z
" transform="scale(0.015625)"/>
      <path id="DejaVuSans-69" d="M 603 3500 
L 1178 3500 
L 1178 0 
L 603 0 
L 603 3500 
z
M 603 4863 
L 1178 4863 
L 1178 4134 
L 603 4134 
L 603 4863 
z
" transform="scale(0.015625)"/>
      <path id="DejaVuSans-7a" d="M 353 3500 
L 3084 3500 
L 3084 2975 
L 922 459 
L 3084 459 
L 3084 0 
L 275 0 
L 275 525 
L 2438 3041 
L 353 3041 
L 353 3500 
z
" transform="scale(0.015625)"/>
      <path id="DejaVuSans-28" d="M 1984 4856 
Q 1566 4138 1362 3434 
Q 1159 2731 1159 2009 
Q 1159 1288 1364 580 
Q 1569 -128 1984 -844 
L 1484 -844 
Q 1016 -109 783 600 
Q 550 1309 550 2009 
Q 550 2706 781 3412 
Q 1013 4119 1484 4856 
L 1984 4856 
z
" transform="scale(0.015625)"/>
      <path id="DejaVuSans-79" d="M 2059 -325 
Q 1816 -950 1584 -1140 
Q 1353 -1331 966 -1331 
L 506 -1331 
L 506 -850 
L 844 -850 
Q 1081 -850 1212 -737 
Q 1344 -625 1503 -206 
L 1606 56 
L 191 3500 
L 800 3500 
L 1894 763 
L 2988 3500 
L 3597 3500 
L 2059 -325 
z
" transform="scale(0.015625)"/>
      <path id="DejaVuSans-2d" d="M 313 2009 
L 1997 2009 
L 1997 1497 
L 313 1497 
L 313 2009 
z
" transform="scale(0.015625)"/>
      <path id="DejaVuSans-61" d="M 2194 1759 
Q 1497 1759 1228 1600 
Q 959 1441 959 1056 
Q 959 750 1161 570 
Q 1363 391 1709 391 
Q 2188 391 2477 730 
Q 2766 1069 2766 1631 
L 2766 1759 
L 2194 1759 
z
M 3341 1997 
L 3341 0 
L 2766 0 
L 2766 531 
Q 2569 213 2275 61 
Q 1981 -91 1556 -91 
Q 1019 -91 701 211 
Q 384 513 384 1019 
Q 384 1609 779 1909 
Q 1175 2209 1959 2209 
L 2766 2209 
L 2766 2266 
Q 2766 2663 2505 2880 
Q 2244 3097 1772 3097 
Q 1472 3097 1187 3025 
Q 903 2953 641 2809 
L 641 3341 
Q 956 3463 1253 3523 
Q 1550 3584 1831 3584 
Q 2591 3584 2966 3190 
Q 3341 2797 3341 1997 
z
" transform="scale(0.015625)"/>
      <path id="DejaVuSans-78" d="M 3513 3500 
L 2247 1797 
L 3578 0 
L 2900 0 
L 1881 1375 
L 863 0 
L 184 0 
L 1544 1831 
L 300 3500 
L 978 3500 
L 1906 2253 
L 2834 3500 
L 3513 3500 
z
" transform="scale(0.015625)"/>
      <path id="DejaVuSans-29" d="M 513 4856 
L 1013 4856 
Q 1481 4119 1714 3412 
Q 1947 2706 1947 2009 
Q 1947 1309 1714 600 
Q 1481 -109 1013 -844 
L 513 -844 
Q 928 -128 1133 580 
Q 1338 1288 1338 2009 
Q 1338 2731 1133 3434 
Q 928 4138 513 4856 
z
" transform="scale(0.015625)"/>
      <path id="DejaVuSans-62" d="M 3116 1747 
Q 3116 2381 2855 2742 
Q 2594 3103 2138 3103 
Q 1681 3103 1420 2742 
Q 1159 2381 1159 1747 
Q 1159 1113 1420 752 
Q 1681 391 2138 391 
Q 2594 391 2855 752 
Q 3116 1113 3116 1747 
z
M 1159 2969 
Q 1341 3281 1617 3432 
Q 1894 3584 2278 3584 
Q 2916 3584 3314 3078 
Q 3713 2572 3713 1747 
Q 3713 922 3314 415 
Q 2916 -91 2278 -91 
Q 1894 -91 1617 61 
Q 1341 213 1159 525 
L 1159 0 
L 581 0 
L 581 4863 
L 1159 4863 
L 1159 2969 
z
" transform="scale(0.015625)"/>
      <path id="DejaVuSans-74" d="M 1172 4494 
L 1172 3500 
L 2356 3500 
L 2356 3053 
L 1172 3053 
L 1172 1153 
Q 1172 725 1289 603 
Q 1406 481 1766 481 
L 2356 481 
L 2356 0 
L 1766 0 
Q 1100 0 847 248 
Q 594 497 594 1153 
L 594 3053 
L 172 3053 
L 172 3500 
L 594 3500 
L 594 4494 
L 1172 4494 
z
" transform="scale(0.015625)"/>
      <path id="DejaVuSans-77" d="M 269 3500 
L 844 3500 
L 1563 769 
L 2278 3500 
L 2956 3500 
L 3675 769 
L 4391 3500 
L 4966 3500 
L 4050 0 
L 3372 0 
L 2619 2869 
L 1863 0 
L 1184 0 
L 269 3500 
z
" transform="scale(0.015625)"/>
      <path id="DejaVuSans-6e" d="M 3513 2113 
L 3513 0 
L 2938 0 
L 2938 2094 
Q 2938 2591 2744 2837 
Q 2550 3084 2163 3084 
Q 1697 3084 1428 2787 
Q 1159 2491 1159 1978 
L 1159 0 
L 581 0 
L 581 3500 
L 1159 3500 
L 1159 2956 
Q 1366 3272 1645 3428 
Q 1925 3584 2291 3584 
Q 2894 3584 3203 3211 
Q 3513 2838 3513 2113 
z
" transform="scale(0.015625)"/>
      <path id="DejaVuSans-53" d="M 3425 4513 
L 3425 3897 
Q 3066 4069 2747 4153 
Q 2428 4238 2131 4238 
Q 1616 4238 1336 4038 
Q 1056 3838 1056 3469 
Q 1056 3159 1242 3001 
Q 1428 2844 1947 2747 
L 2328 2669 
Q 3034 2534 3370 2195 
Q 3706 1856 3706 1288 
Q 3706 609 3251 259 
Q 2797 -91 1919 -91 
Q 1588 -91 1214 -16 
Q 841 59 441 206 
L 441 856 
Q 825 641 1194 531 
Q 1563 422 1919 422 
Q 2459 422 2753 634 
Q 3047 847 3047 1241 
Q 3047 1584 2836 1778 
Q 2625 1972 2144 2069 
L 1759 2144 
Q 1053 2284 737 2584 
Q 422 2884 422 3419 
Q 422 4038 858 4394 
Q 1294 4750 2059 4750 
Q 2388 4750 2728 4690 
Q 3069 4631 3425 4513 
z
" transform="scale(0.015625)"/>
      <path id="DejaVuSans-64" d="M 2906 2969 
L 2906 4863 
L 3481 4863 
L 3481 0 
L 2906 0 
L 2906 525 
Q 2725 213 2448 61 
Q 2172 -91 1784 -91 
Q 1150 -91 751 415 
Q 353 922 353 1747 
Q 353 2572 751 3078 
Q 1150 3584 1784 3584 
Q 2172 3584 2448 3432 
Q 2725 3281 2906 2969 
z
M 947 1747 
Q 947 1113 1208 752 
Q 1469 391 1925 391 
Q 2381 391 2643 752 
Q 2906 1113 2906 1747 
Q 2906 2381 2643 2742 
Q 2381 3103 1925 3103 
Q 1469 3103 1208 2742 
Q 947 2381 947 1747 
z
" transform="scale(0.015625)"/>
      <path id="DejaVuSans-6f" d="M 1959 3097 
Q 1497 3097 1228 2736 
Q 959 2375 959 1747 
Q 959 1119 1226 758 
Q 1494 397 1959 397 
Q 2419 397 2687 759 
Q 2956 1122 2956 1747 
Q 2956 2369 2687 2733 
Q 2419 3097 1959 3097 
z
M 1959 3584 
Q 2709 3584 3137 3096 
Q 3566 2609 3566 1747 
Q 3566 888 3137 398 
Q 2709 -91 1959 -91 
Q 1206 -91 779 398 
Q 353 888 353 1747 
Q 353 2609 779 3096 
Q 1206 3584 1959 3584 
z
" transform="scale(0.015625)"/>
      <path id="DejaVuSans-72" d="M 2631 2963 
Q 2534 3019 2420 3045 
Q 2306 3072 2169 3072 
Q 1681 3072 1420 2755 
Q 1159 2438 1159 1844 
L 1159 0 
L 581 0 
L 581 3500 
L 1159 3500 
L 1159 2956 
Q 1341 3275 1631 3429 
Q 1922 3584 2338 3584 
Q 2397 3584 2469 3576 
Q 2541 3569 2628 3553 
L 2631 2963 
z
" transform="scale(0.015625)"/>
      <path id="DejaVuSans-68" d="M 3513 2113 
L 3513 0 
L 2938 0 
L 2938 2094 
Q 2938 2591 2744 2837 
Q 2550 3084 2163 3084 
Q 1697 3084 1428 2787 
Q 1159 2491 1159 1978 
L 1159 0 
L 581 0 
L 581 4863 
L 1159 4863 
L 1159 2956 
Q 1366 3272 1645 3428 
Q 1925 3584 2291 3584 
Q 2894 3584 3203 3211 
Q 3513 2838 3513 2113 
z
" transform="scale(0.015625)"/>
      <path id="DejaVuSans-66" d="M 2375 4863 
L 2375 4384 
L 1825 4384 
Q 1516 4384 1395 4259 
Q 1275 4134 1275 3809 
L 1275 3500 
L 2222 3500 
L 2222 3053 
L 1275 3053 
L 1275 0 
L 697 0 
L 697 3053 
L 147 3053 
L 147 3500 
L 697 3500 
L 697 3744 
Q 697 4328 969 4595 
Q 1241 4863 1831 4863 
L 2375 4863 
z
" transform="scale(0.015625)"/>
      <path id="DejaVuSans-6c" d="M 603 4863 
L 1178 4863 
L 1178 0 
L 603 0 
L 603 4863 
z
" transform="scale(0.015625)"/>
      <path id="DejaVuSans-6d" d="M 3328 2828 
Q 3544 3216 3844 3400 
Q 4144 3584 4550 3584 
Q 5097 3584 5394 3201 
Q 5691 2819 5691 2113 
L 5691 0 
L 5113 0 
L 5113 2094 
Q 5113 2597 4934 2840 
Q 4756 3084 4391 3084 
Q 3944 3084 3684 2787 
Q 3425 2491 3425 1978 
L 3425 0 
L 2847 0 
L 2847 2094 
Q 2847 2600 2669 2842 
Q 2491 3084 2119 3084 
Q 1678 3084 1418 2786 
Q 1159 2488 1159 1978 
L 1159 0 
L 581 0 
L 581 3500 
L 1159 3500 
L 1159 2956 
Q 1356 3278 1631 3431 
Q 1906 3584 2284 3584 
Q 2666 3584 2933 3390 
Q 3200 3197 3328 2828 
z
" transform="scale(0.015625)"/>
     </defs>
     <use xlink:href="#DejaVuSans-51"/>
     <use xlink:href="#DejaVuSans-75" x="78.710938"/>
     <use xlink:href="#DejaVuSans-65" x="142.089844"/>
     <use xlink:href="#DejaVuSans-75" x="203.613281"/>
     <use xlink:href="#DejaVuSans-65" x="266.992188"/>
     <use xlink:href="#DejaVuSans-20" x="328.515625"/>
     <use xlink:href="#DejaVuSans-73" x="360.302734"/>
     <use xlink:href="#DejaVuSans-69" x="412.402344"/>
     <use xlink:href="#DejaVuSans-7a" x="440.185547"/>
     <use xlink:href="#DejaVuSans-65" x="492.675781"/>
     <use xlink:href="#DejaVuSans-20" x="554.199219"/>
     <use xlink:href="#DejaVuSans-28" x="585.986328"/>
     <use xlink:href="#DejaVuSans-79" x="625"/>
     <use xlink:href="#DejaVuSans-2d" x="682.429688"/>
     <use xlink:href="#DejaVuSans-61" x="718.513672"/>
     <use xlink:href="#DejaVuSans-78" x="779.792969"/>
     <use xlink:href="#DejaVuSans-69" x="838.972656"/>
     <use xlink:href="#DejaVuSans-73" x="866.755859"/>
     <use xlink:href="#DejaVuSans-29" x="918.855469"/>
     <use xlink:href="#DejaVuSans-20" x="957.869141"/>
     <use xlink:href="#DejaVuSans-62" x="989.65625"/>
     <use xlink:href="#DejaVuSans-65" x="1053.132812"/>
     <use xlink:href="#DejaVuSans-74" x="1114.65625"/>
     <use xlink:href="#DejaVuSans-77" x="1153.865234"/>
     <use xlink:href="#DejaVuSans-65" x="1235.652344"/>
     <use xlink:href="#DejaVuSans-65" x="1297.175781"/>
     <use xlink:href="#DejaVuSans-6e" x="1358.699219"/>
     <use xlink:href="#DejaVuSans-20" x="1422.078125"/>
     <use xlink:href="#DejaVuSans-53" x="1453.865234"/>
     <use xlink:href="#DejaVuSans-33" x="1517.341797"/>
     <use xlink:href="#DejaVuSans-20" x="1580.964844"/>
     <use xlink:href="#DejaVuSans-61" x="1612.751953"/>
     <use xlink:href="#DejaVuSans-6e" x="1674.03125"/>
     <use xlink:href="#DejaVuSans-64" x="1737.410156"/>
     <use xlink:href="#DejaVuSans-20" x="1800.886719"/>
     <use xlink:href="#DejaVuSans-73" x="1832.673828"/>
     <use xlink:href="#DejaVuSans-65" x="1884.773438"/>
     <use xlink:href="#DejaVuSans-6e" x="1946.296875"/>
     <use xlink:href="#DejaVuSans-73" x="2009.675781"/>
     <use xlink:href="#DejaVuSans-6f" x="2061.775391"/>
     <use xlink:href="#DejaVuSans-72" x="2122.957031"/>
     <use xlink:href="#DejaVuSans-73" x="2164.070312"/>
     <use xlink:href="#DejaVuSans-20" x="2216.169922"/>
     <use xlink:href="#DejaVuSans-74" x="2247.957031"/>
     <use xlink:href="#DejaVuSans-68" x="2287.166016"/>
     <use xlink:href="#DejaVuSans-61" x="2350.544922"/>
     <use xlink:href="#DejaVuSans-74" x="2411.824219"/>
     <use xlink:href="#DejaVuSans-20" x="2451.033203"/>
     <use xlink:href="#DejaVuSans-66" x="2482.820312"/>
     <use xlink:href="#DejaVuSans-6f" x="2518.025391"/>
     <use xlink:href="#DejaVuSans-6c" x="2579.207031"/>
     <use xlink:href="#DejaVuSans-6c" x="2606.990234"/>
     <use xlink:href="#DejaVuSans-6f" x="2634.773438"/>
     <use xlink:href="#DejaVuSans-77" x="2695.955078"/>
     <use xlink:href="#DejaVuSans-20" x="2777.742188"/>
     <use xlink:href="#DejaVuSans-61" x="2809.529297"/>
     <use xlink:href="#DejaVuSans-74" x="2870.808594"/>
     <use xlink:href="#DejaVuSans-20" x="2910.017578"/>
     <use xlink:href="#DejaVuSans-61" x="2941.804688"/>
     <use xlink:href="#DejaVuSans-20" x="3003.083984"/>
     <use xlink:href="#DejaVuSans-74" x="3034.871094"/>
     <use xlink:href="#DejaVuSans-69" x="3074.080078"/>
     <use xlink:href="#DejaVuSans-6d" x="3101.863281"/>
     <use xlink:href="#DejaVuSans-65" x="3199.275391"/>
     <use xlink:href="#DejaVuSans-20" x="3260.798828"/>
     <use xlink:href="#DejaVuSans-28" x="3292.585938"/>
     <use xlink:href="#DejaVuSans-78" x="3331.599609"/>
     <use xlink:href="#DejaVuSans-2d" x="3390.779297"/>
     <use xlink:href="#DejaVuSans-61" x="3426.863281"/>
     <use xlink:href="#DejaVuSans-78" x="3488.142578"/>
     <use xlink:href="#DejaVuSans-69" x="3547.322266"/>
     <use xlink:href="#DejaVuSans-73" x="3575.105469"/>
     <use xlink:href="#DejaVuSans-29" x="3627.205078"/>
     <use xlink:href="#DejaVuSans-2e" x="3666.21875"/>
    </g>
   </g>
  </g>
 </g>
 <defs>
  <clipPath id="p7995572a0b">
   <rect x="57.6" y="41.472" width="357.12" height="266.112"/>
  </clipPath>
 </defs>
</svg>
