<?xml version="1.0" encoding="utf-8" standalone="no"?>
<!DOCTYPE svg PUBLIC "-//W3C//DTD SVG 1.1//EN"
  "http://www.w3.org/Graphics/SVG/1.1/DTD/svg11.dtd">
<svg xmlns:xlink="http://www.w3.org/1999/xlink" width="460.8pt" height="345.6pt" viewBox="0 0 460.8 345.6" xmlns="http://www.w3.org/2000/svg" version="1.1">
 <metadata>
  <rdf:RDF xmlns:dc="http://purl.org/dc/elements/1.1/" xmlns:cc="http://creativecommons.org/ns#" xmlns:rdf="http://www.w3.org/1999/02/22-rdf-syntax-ns#">
   <cc:Work>
    <dc:type rdf:resource="http://purl.org/dc/dcmitype/StillImage"/>
    <dc:date>2024-03-08T13:53:01.897552</dc:date>
    <dc:format>image/svg+xml</dc:format>
    <dc:creator>
     <cc:Agent>
      <dc:title>Matplotlib v3.8.2, https://matplotlib.org/</dc:title>
     </cc:Agent>
    </dc:creator>
   </cc:Work>
  </rdf:RDF>
 </metadata>
 <defs>
  <style type="text/css">*{stroke-linejoin: round; stroke-linecap: butt}</style>
 </defs>
 <g id="figure_1">
  <g id="patch_1">
   <path d="M 0 345.6 
L 460.8 345.6 
L 460.8 0 
L 0 0 
z
" style="fill: #ffffff"/>
  </g>
  <g id="axes_1">
   <g id="patch_2">
    <path d="M 57.6 307.584 
L 414.72 307.584 
L 414.72 41.472 
L 57.6 41.472 
z
" style="fill: #ffffff"/>
   </g>
   <g id="matplotlib.axis_1">
    <g id="xtick_1">
     <g id="line2d_1">
      <defs>
       <path id="m7770a296a7" d="M 0 0 
L 0 3.5 
" style="stroke: #000000; stroke-width: 0.8"/>
      </defs>
      <g>
       <use xlink:href="#m7770a296a7" x="73.104989" y="307.584" style="stroke: #000000; stroke-width: 0.8"/>
      </g>
     </g>
     <g id="text_1">
      <!-- 0.0 -->
      <g transform="translate(65.153427 322.182437) scale(0.1 -0.1)">
       <defs>
        <path id="DejaVuSans-30" d="M 2034 4250 
Q 1547 4250 1301 3770 
Q 1056 3291 1056 2328 
Q 1056 1369 1301 889 
Q 1547 409 2034 409 
Q 2525 409 2770 889 
Q 3016 1369 3016 2328 
Q 3016 3291 2770 3770 
Q 2525 4250 2034 4250 
z
M 2034 4750 
Q 2819 4750 3233 4129 
Q 3647 3509 3647 2328 
Q 3647 1150 3233 529 
Q 2819 -91 2034 -91 
Q 1250 -91 836 529 
Q 422 1150 422 2328 
Q 422 3509 836 4129 
Q 1250 4750 2034 4750 
z
" transform="scale(0.015625)"/>
        <path id="DejaVuSans-2e" d="M 684 794 
L 1344 794 
L 1344 0 
L 684 0 
L 684 794 
z
" transform="scale(0.015625)"/>
       </defs>
       <use xlink:href="#DejaVuSans-30"/>
       <use xlink:href="#DejaVuSans-2e" x="63.623047"/>
       <use xlink:href="#DejaVuSans-30" x="95.410156"/>
      </g>
     </g>
    </g>
    <g id="xtick_2">
     <g id="line2d_2">
      <g>
       <use xlink:href="#m7770a296a7" x="120.422172" y="307.584" style="stroke: #000000; stroke-width: 0.8"/>
      </g>
     </g>
     <g id="text_2">
      <!-- 0.5 -->
      <g transform="translate(112.470609 322.182437) scale(0.1 -0.1)">
       <defs>
        <path id="DejaVuSans-35" d="M 691 4666 
L 3169 4666 
L 3169 4134 
L 1269 4134 
L 1269 2991 
Q 1406 3038 1543 3061 
Q 1681 3084 1819 3084 
Q 2600 3084 3056 2656 
Q 3513 2228 3513 1497 
Q 3513 744 3044 326 
Q 2575 -91 1722 -91 
Q 1428 -91 1123 -41 
Q 819 9 494 109 
L 494 744 
Q 775 591 1075 516 
Q 1375 441 1709 441 
Q 2250 441 2565 725 
Q 2881 1009 2881 1497 
Q 2881 1984 2565 2268 
Q 2250 2553 1709 2553 
Q 1456 2553 1204 2497 
Q 953 2441 691 2322 
L 691 4666 
z
" transform="scale(0.015625)"/>
       </defs>
       <use xlink:href="#DejaVuSans-30"/>
       <use xlink:href="#DejaVuSans-2e" x="63.623047"/>
       <use xlink:href="#DejaVuSans-35" x="95.410156"/>
      </g>
     </g>
    </g>
    <g id="xtick_3">
     <g id="line2d_3">
      <g>
       <use xlink:href="#m7770a296a7" x="167.739354" y="307.584" style="stroke: #000000; stroke-width: 0.8"/>
      </g>
     </g>
     <g id="text_3">
      <!-- 1.0 -->
      <g transform="translate(159.787792 322.182437) scale(0.1 -0.1)">
       <defs>
        <path id="DejaVuSans-31" d="M 794 531 
L 1825 531 
L 1825 4091 
L 703 3866 
L 703 4441 
L 1819 4666 
L 2450 4666 
L 2450 531 
L 3481 531 
L 3481 0 
L 794 0 
L 794 531 
z
" transform="scale(0.015625)"/>
       </defs>
       <use xlink:href="#DejaVuSans-31"/>
       <use xlink:href="#DejaVuSans-2e" x="63.623047"/>
       <use xlink:href="#DejaVuSans-30" x="95.410156"/>
      </g>
     </g>
    </g>
    <g id="xtick_4">
     <g id="line2d_4">
      <g>
       <use xlink:href="#m7770a296a7" x="215.056537" y="307.584" style="stroke: #000000; stroke-width: 0.8"/>
      </g>
     </g>
     <g id="text_4">
      <!-- 1.5 -->
      <g transform="translate(207.104974 322.182437) scale(0.1 -0.1)">
       <use xlink:href="#DejaVuSans-31"/>
       <use xlink:href="#DejaVuSans-2e" x="63.623047"/>
       <use xlink:href="#DejaVuSans-35" x="95.410156"/>
      </g>
     </g>
    </g>
    <g id="xtick_5">
     <g id="line2d_5">
      <g>
       <use xlink:href="#m7770a296a7" x="262.373719" y="307.584" style="stroke: #000000; stroke-width: 0.8"/>
      </g>
     </g>
     <g id="text_5">
      <!-- 2.0 -->
      <g transform="translate(254.422157 322.182437) scale(0.1 -0.1)">
       <defs>
        <path id="DejaVuSans-32" d="M 1228 531 
L 3431 531 
L 3431 0 
L 469 0 
L 469 531 
Q 828 903 1448 1529 
Q 2069 2156 2228 2338 
Q 2531 2678 2651 2914 
Q 2772 3150 2772 3378 
Q 2772 3750 2511 3984 
Q 2250 4219 1831 4219 
Q 1534 4219 1204 4116 
Q 875 4013 500 3803 
L 500 4441 
Q 881 4594 1212 4672 
Q 1544 4750 1819 4750 
Q 2544 4750 2975 4387 
Q 3406 4025 3406 3419 
Q 3406 3131 3298 2873 
Q 3191 2616 2906 2266 
Q 2828 2175 2409 1742 
Q 1991 1309 1228 531 
z
" transform="scale(0.015625)"/>
       </defs>
       <use xlink:href="#DejaVuSans-32"/>
       <use xlink:href="#DejaVuSans-2e" x="63.623047"/>
       <use xlink:href="#DejaVuSans-30" x="95.410156"/>
      </g>
     </g>
    </g>
    <g id="xtick_6">
     <g id="line2d_6">
      <g>
       <use xlink:href="#m7770a296a7" x="309.690902" y="307.584" style="stroke: #000000; stroke-width: 0.8"/>
      </g>
     </g>
     <g id="text_6">
      <!-- 2.5 -->
      <g transform="translate(301.739339 322.182437) scale(0.1 -0.1)">
       <use xlink:href="#DejaVuSans-32"/>
       <use xlink:href="#DejaVuSans-2e" x="63.623047"/>
       <use xlink:href="#DejaVuSans-35" x="95.410156"/>
      </g>
     </g>
    </g>
    <g id="xtick_7">
     <g id="line2d_7">
      <g>
       <use xlink:href="#m7770a296a7" x="357.008084" y="307.584" style="stroke: #000000; stroke-width: 0.8"/>
      </g>
     </g>
     <g id="text_7">
      <!-- 3.0 -->
      <g transform="translate(349.056522 322.182437) scale(0.1 -0.1)">
       <defs>
        <path id="DejaVuSans-33" d="M 2597 2516 
Q 3050 2419 3304 2112 
Q 3559 1806 3559 1356 
Q 3559 666 3084 287 
Q 2609 -91 1734 -91 
Q 1441 -91 1130 -33 
Q 819 25 488 141 
L 488 750 
Q 750 597 1062 519 
Q 1375 441 1716 441 
Q 2309 441 2620 675 
Q 2931 909 2931 1356 
Q 2931 1769 2642 2001 
Q 2353 2234 1838 2234 
L 1294 2234 
L 1294 2753 
L 1863 2753 
Q 2328 2753 2575 2939 
Q 2822 3125 2822 3475 
Q 2822 3834 2567 4026 
Q 2313 4219 1838 4219 
Q 1578 4219 1281 4162 
Q 984 4106 628 3988 
L 628 4550 
Q 988 4650 1302 4700 
Q 1616 4750 1894 4750 
Q 2613 4750 3031 4423 
Q 3450 4097 3450 3541 
Q 3450 3153 3228 2886 
Q 3006 2619 2597 2516 
z
" transform="scale(0.015625)"/>
       </defs>
       <use xlink:href="#DejaVuSans-33"/>
       <use xlink:href="#DejaVuSans-2e" x="63.623047"/>
       <use xlink:href="#DejaVuSans-30" x="95.410156"/>
      </g>
     </g>
    </g>
    <g id="xtick_8">
     <g id="line2d_8">
      <g>
       <use xlink:href="#m7770a296a7" x="404.325267" y="307.584" style="stroke: #000000; stroke-width: 0.8"/>
      </g>
     </g>
     <g id="text_8">
      <!-- 3.5 -->
      <g transform="translate(396.373704 322.182437) scale(0.1 -0.1)">
       <use xlink:href="#DejaVuSans-33"/>
       <use xlink:href="#DejaVuSans-2e" x="63.623047"/>
       <use xlink:href="#DejaVuSans-35" x="95.410156"/>
      </g>
     </g>
    </g>
    <g id="text_9">
     <!-- 1e6 -->
     <g transform="translate(395.841875 334.860562) scale(0.1 -0.1)">
      <defs>
       <path id="DejaVuSans-65" d="M 3597 1894 
L 3597 1613 
L 953 1613 
Q 991 1019 1311 708 
Q 1631 397 2203 397 
Q 2534 397 2845 478 
Q 3156 559 3463 722 
L 3463 178 
Q 3153 47 2828 -22 
Q 2503 -91 2169 -91 
Q 1331 -91 842 396 
Q 353 884 353 1716 
Q 353 2575 817 3079 
Q 1281 3584 2069 3584 
Q 2775 3584 3186 3129 
Q 3597 2675 3597 1894 
z
M 3022 2063 
Q 3016 2534 2758 2815 
Q 2500 3097 2075 3097 
Q 1594 3097 1305 2825 
Q 1016 2553 972 2059 
L 3022 2063 
z
" transform="scale(0.015625)"/>
       <path id="DejaVuSans-36" d="M 2113 2584 
Q 1688 2584 1439 2293 
Q 1191 2003 1191 1497 
Q 1191 994 1439 701 
Q 1688 409 2113 409 
Q 2538 409 2786 701 
Q 3034 994 3034 1497 
Q 3034 2003 2786 2293 
Q 2538 2584 2113 2584 
z
M 3366 4563 
L 3366 3988 
Q 3128 4100 2886 4159 
Q 2644 4219 2406 4219 
Q 1781 4219 1451 3797 
Q 1122 3375 1075 2522 
Q 1259 2794 1537 2939 
Q 1816 3084 2150 3084 
Q 2853 3084 3261 2657 
Q 3669 2231 3669 1497 
Q 3669 778 3244 343 
Q 2819 -91 2113 -91 
Q 1303 -91 875 529 
Q 447 1150 447 2328 
Q 447 3434 972 4092 
Q 1497 4750 2381 4750 
Q 2619 4750 2861 4703 
Q 3103 4656 3366 4563 
z
" transform="scale(0.015625)"/>
      </defs>
      <use xlink:href="#DejaVuSans-31"/>
      <use xlink:href="#DejaVuSans-65" x="63.623047"/>
      <use xlink:href="#DejaVuSans-36" x="125.146484"/>
     </g>
    </g>
   </g>
   <g id="matplotlib.axis_2">
    <g id="ytick_1">
     <g id="line2d_9">
      <defs>
       <path id="m015129a42c" d="M 0 0 
L -3.5 0 
" style="stroke: #000000; stroke-width: 0.8"/>
      </defs>
      <g>
       <use xlink:href="#m015129a42c" x="57.6" y="295.488" style="stroke: #000000; stroke-width: 0.8"/>
      </g>
     </g>
     <g id="text_10">
      <!-- 0 -->
      <g transform="translate(44.2375 299.287219) scale(0.1 -0.1)">
       <use xlink:href="#DejaVuSans-30"/>
      </g>
     </g>
    </g>
    <g id="ytick_2">
     <g id="line2d_10">
      <g>
       <use xlink:href="#m015129a42c" x="57.6" y="262.796108" style="stroke: #000000; stroke-width: 0.8"/>
      </g>
     </g>
     <g id="text_11">
      <!-- 5 -->
      <g transform="translate(44.2375 266.595327) scale(0.1 -0.1)">
       <use xlink:href="#DejaVuSans-35"/>
      </g>
     </g>
    </g>
    <g id="ytick_3">
     <g id="line2d_11">
      <g>
       <use xlink:href="#m015129a42c" x="57.6" y="230.104216" style="stroke: #000000; stroke-width: 0.8"/>
      </g>
     </g>
     <g id="text_12">
      <!-- 10 -->
      <g transform="translate(37.875 233.903435) scale(0.1 -0.1)">
       <use xlink:href="#DejaVuSans-31"/>
       <use xlink:href="#DejaVuSans-30" x="63.623047"/>
      </g>
     </g>
    </g>
    <g id="ytick_4">
     <g id="line2d_12">
      <g>
       <use xlink:href="#m015129a42c" x="57.6" y="197.412324" style="stroke: #000000; stroke-width: 0.8"/>
      </g>
     </g>
     <g id="text_13">
      <!-- 15 -->
      <g transform="translate(37.875 201.211543) scale(0.1 -0.1)">
       <use xlink:href="#DejaVuSans-31"/>
       <use xlink:href="#DejaVuSans-35" x="63.623047"/>
      </g>
     </g>
    </g>
    <g id="ytick_5">
     <g id="line2d_13">
      <g>
       <use xlink:href="#m015129a42c" x="57.6" y="164.720432" style="stroke: #000000; stroke-width: 0.8"/>
      </g>
     </g>
     <g id="text_14">
      <!-- 20 -->
      <g transform="translate(37.875 168.519651) scale(0.1 -0.1)">
       <use xlink:href="#DejaVuSans-32"/>
       <use xlink:href="#DejaVuSans-30" x="63.623047"/>
      </g>
     </g>
    </g>
    <g id="ytick_6">
     <g id="line2d_14">
      <g>
       <use xlink:href="#m015129a42c" x="57.6" y="132.028541" style="stroke: #000000; stroke-width: 0.8"/>
      </g>
     </g>
     <g id="text_15">
      <!-- 25 -->
      <g transform="translate(37.875 135.827759) scale(0.1 -0.1)">
       <use xlink:href="#DejaVuSans-32"/>
       <use xlink:href="#DejaVuSans-35" x="63.623047"/>
      </g>
     </g>
    </g>
    <g id="ytick_7">
     <g id="line2d_15">
      <g>
       <use xlink:href="#m015129a42c" x="57.6" y="99.336649" style="stroke: #000000; stroke-width: 0.8"/>
      </g>
     </g>
     <g id="text_16">
      <!-- 30 -->
      <g transform="translate(37.875 103.135867) scale(0.1 -0.1)">
       <use xlink:href="#DejaVuSans-33"/>
       <use xlink:href="#DejaVuSans-30" x="63.623047"/>
      </g>
     </g>
    </g>
    <g id="ytick_8">
     <g id="line2d_16">
      <g>
       <use xlink:href="#m015129a42c" x="57.6" y="66.644757" style="stroke: #000000; stroke-width: 0.8"/>
      </g>
     </g>
     <g id="text_17">
      <!-- 35 -->
      <g transform="translate(37.875 70.443976) scale(0.1 -0.1)">
       <use xlink:href="#DejaVuSans-33"/>
       <use xlink:href="#DejaVuSans-35" x="63.623047"/>
      </g>
     </g>
    </g>
   </g>
   <g id="line2d_17">
    <path d="M 73.832727 288.949622 
L 75.160447 262.796108 
L 75.371482 269.334486 
L 75.489775 262.796108 
L 75.701756 269.334486 
L 75.819103 262.796108 
L 76.031084 269.334486 
L 76.147484 262.796108 
L 76.361358 269.334486 
L 76.484382 262.796108 
L 76.698256 269.334486 
L 76.817495 262.796108 
L 77.02853 269.334486 
L 77.149662 262.796108 
L 77.356911 269.334486 
L 77.481828 262.796108 
L 77.686239 269.334486 
L 77.815888 262.796108 
L 78.022191 269.334486 
L 78.150893 262.796108 
L 78.35625 269.334486 
L 78.485899 262.796108 
L 78.68747 269.334486 
L 78.812388 262.796108 
L 79.019637 269.334486 
L 80.350196 295.488 
L 84.893592 288.949622 
L 85.155729 230.104216 
L 86.097341 210.489081 
L 86.42383 203.950703 
L 86.574298 243.180973 
L 86.693537 269.334486 
L 86.757889 262.796108 
L 86.981226 269.334486 
L 87.088163 262.796108 
L 87.303929 269.334486 
L 87.418437 262.796108 
L 87.635149 269.334486 
L 87.754389 262.796108 
L 87.961638 269.334486 
L 88.079931 262.796108 
L 88.295697 269.334486 
L 88.411151 262.796108 
L 88.625971 269.334486 
L 88.735747 262.796108 
L 88.957191 269.334486 
L 89.065075 262.796108 
L 89.292197 269.334486 
L 89.401027 262.796108 
L 89.618686 269.334486 
L 89.726569 262.796108 
L 89.94896 269.334486 
L 90.053057 262.796108 
L 90.273556 269.334486 
L 90.389009 262.796108 
L 90.602883 269.334486 
L 90.724015 262.796108 
L 90.938835 269.334486 
L 91.059967 262.796108 
L 91.264377 269.334486 
L 91.38267 262.796108 
L 91.590866 269.334486 
L 91.721461 262.796108 
L 91.926818 269.334486 
L 92.050789 262.796108 
L 92.261824 269.334486 
L 92.38958 262.796108 
L 92.597776 269.334486 
L 92.718908 262.796108 
L 92.920479 269.334486 
L 93.046342 262.796108 
L 93.25927 269.334486 
L 93.371885 262.796108 
L 93.588597 269.334486 
L 93.701212 262.796108 
L 93.927388 269.334486 
L 94.031486 262.796108 
L 94.256716 269.334486 
L 94.357975 262.796108 
L 94.584151 269.334486 
L 94.687302 262.796108 
L 94.910639 269.334486 
L 95.022308 262.796108 
L 95.239967 269.334486 
L 95.356367 262.796108 
L 95.570241 269.334486 
L 95.684749 262.796108 
L 95.895783 269.334486 
L 96.014076 262.796108 
L 96.226057 269.334486 
L 96.34435 262.796108 
L 96.560116 269.334486 
L 96.678409 262.796108 
L 96.894176 269.334486 
L 97.006791 262.796108 
L 97.222557 269.334486 
L 97.339904 262.796108 
L 97.551885 269.334486 
L 97.675856 262.796108 
L 97.882158 269.334486 
L 98.001398 262.796108 
L 98.216218 269.334486 
L 98.328833 262.796108 
L 98.544599 269.334486 
L 98.660053 262.796108 
L 98.877712 269.334486 
L 99.213664 275.872865 
L 99.320601 269.334486 
L 99.539206 275.872865 
L 99.64425 269.334486 
L 99.867587 275.872865 
L 99.983041 269.334486 
L 100.197861 275.872865 
L 100.320886 269.334486 
L 100.657784 262.796108 
L 100.858409 269.334486 
L 100.994683 262.796108 
L 101.182059 269.334486 
L 101.323064 262.796108 
L 101.52085 269.334486 
L 101.654284 262.796108 
L 101.858694 269.334486 
L 102.195593 275.872865 
L 102.323349 269.334486 
L 102.532491 275.872865 
L 102.652677 269.334486 
L 102.860872 275.872865 
L 102.980112 269.334486 
L 103.193039 275.872865 
L 103.310386 269.334486 
L 103.641606 262.796108 
L 103.862104 269.334486 
L 103.97188 262.796108 
L 104.191432 269.334486 
L 104.3031 262.796108 
L 104.518866 269.334486 
L 104.63432 262.796108 
L 104.848194 269.334486 
L 104.967433 262.796108 
L 105.179414 269.334486 
L 105.298654 262.796108 
L 105.509688 269.334486 
L 105.633659 262.796108 
L 105.840909 269.334486 
L 105.96488 262.796108 
L 106.172129 269.334486 
L 106.291368 262.796108 
L 106.505242 269.334486 
L 106.614071 262.796108 
L 106.836462 269.334486 
L 106.948131 262.796108 
L 107.172414 269.334486 
L 107.277458 262.796108 
L 107.502688 269.334486 
L 107.61341 262.796108 
L 107.829177 269.334486 
L 107.946523 262.796108 
L 108.152826 269.334486 
L 108.281529 262.796108 
L 108.486885 269.334486 
L 108.612749 262.796108 
L 108.815267 269.334486 
L 108.939238 262.796108 
L 109.151219 269.334486 
L 109.269512 262.796108 
L 109.484332 269.334486 
L 109.603571 262.796108 
L 109.819337 269.334486 
L 109.931006 262.796108 
L 110.150558 269.334486 
L 110.259387 262.796108 
L 110.477046 269.334486 
L 110.584929 262.796108 
L 110.80732 269.334486 
L 110.918042 262.796108 
L 111.141379 269.334486 
L 111.246423 262.796108 
L 111.468814 269.334486 
L 111.581429 262.796108 
L 111.797196 269.334486 
L 111.914542 262.796108 
L 112.122738 269.334486 
L 112.784232 282.411243 
L 112.84953 275.872865 
L 113.08233 269.334486 
L 113.119238 275.872865 
L 113.321755 269.334486 
L 113.452351 275.872865 
L 113.555502 269.334486 
L 114.259582 249.719351 
L 114.390177 256.25773 
L 114.493329 249.719351 
L 114.622978 256.25773 
L 114.726129 249.719351 
L 114.861456 256.25773 
L 114.960822 249.719351 
L 115.095203 256.25773 
L 115.20214 249.719351 
L 115.333682 256.25773 
L 115.439672 249.719351 
L 115.568375 256.25773 
L 115.68099 249.719351 
L 115.799283 256.25773 
L 115.917576 249.719351 
L 116.033976 256.25773 
L 116.158893 249.719351 
L 116.266777 256.25773 
L 116.398318 249.719351 
L 116.500523 256.25773 
L 116.634904 249.719351 
L 116.741841 256.25773 
L 116.87149 249.719351 
L 116.98032 256.25773 
L 117.108076 249.719351 
L 117.221637 256.25773 
L 117.346555 249.719351 
L 117.458223 256.25773 
L 117.584087 249.719351 
L 117.698595 256.25773 
L 117.81878 249.719351 
L 117.938966 256.25773 
L 118.055366 249.719351 
L 118.174605 256.25773 
L 118.296684 249.719351 
L 118.412138 256.25773 
L 118.746197 249.719351 
L 130.003901 256.25773 
L 130.14396 197.412324 
L 130.233863 158.182054 
L 130.243326 164.720432 
L 130.378653 158.182054 
L 130.621863 60.106378 
L 130.715551 66.644757 
L 130.81681 60.106378 
L 130.952137 66.644757 
L 131.053396 60.106378 
L 131.193455 66.644757 
L 131.289982 60.106378 
L 131.427202 66.644757 
L 131.527514 60.106378 
L 131.614578 86.259892 
L 131.77451 151.643676 
L 131.920247 158.182054 
L 132.029076 197.412324 
L 132.23254 190.873946 
L 132.427487 197.412324 
L 132.470073 217.027459 
L 132.473858 210.489081 
L 132.947976 197.412324 
L 132.997186 223.565838 
L 133.420202 210.489081 
L 133.505373 223.565838 
L 133.519568 230.104216 
L 133.884856 217.027459 
L 133.9899 230.104216 
L 134.018291 243.180973 
L 134.121442 236.642595 
L 134.358028 230.104216 
L 134.487677 236.642595 
L 134.534994 256.25773 
L 134.590829 249.719351 
L 135.006274 256.25773 
L 135.026147 262.796108 
L 135.067786 256.25773 
L 135.192703 262.796108 
L 135.305318 256.25773 
L 135.425504 262.796108 
L 135.534333 256.25773 
L 135.66209 262.796108 
L 135.772812 256.25773 
L 135.898676 262.796108 
L 136.007505 256.25773 
L 136.131476 262.796108 
L 136.245037 256.25773 
L 136.480677 249.719351 
L 136.607487 256.25773 
L 136.720102 249.719351 
L 136.845019 256.25773 
L 136.95101 249.719351 
L 137.074981 256.25773 
L 137.182864 249.719351 
L 137.313459 256.25773 
L 137.422289 249.719351 
L 137.548153 256.25773 
L 137.654143 249.719351 
L 137.784738 256.25773 
L 137.890729 249.719351 
L 138.021324 256.25773 
L 138.125422 249.719351 
L 138.259803 256.25773 
L 138.364847 249.719351 
L 138.491657 256.25773 
L 138.602379 249.719351 
L 138.723511 256.25773 
L 138.838965 249.719351 
L 138.96199 256.25773 
L 139.071766 249.719351 
L 139.194791 256.25773 
L 139.309298 249.719351 
L 139.431376 256.25773 
L 139.54683 249.719351 
L 139.665123 256.25773 
L 139.787202 249.719351 
L 139.905495 256.25773 
L 140.021895 249.719351 
L 140.143027 256.25773 
L 140.259427 249.719351 
L 140.379613 256.25773 
L 140.498852 249.719351 
L 140.612413 256.25773 
L 140.735438 249.719351 
L 140.849946 256.25773 
L 140.969185 249.719351 
L 141.086531 256.25773 
L 141.211449 249.719351 
L 152.605426 243.180973 
L 152.80889 158.182054 
L 152.91772 164.720432 
L 153.036959 151.643676 
L 153.267867 53.568 
L 153.394677 60.106378 
L 153.518648 53.568 
L 153.631263 60.106378 
L 153.757127 53.568 
L 153.865956 60.106378 
L 153.992766 53.568 
L 154.146074 66.644757 
L 154.349538 151.643676 
L 154.467831 145.105297 
L 154.577607 158.182054 
L 154.660885 190.873946 
L 154.710095 184.335568 
L 154.944788 177.797189 
L 155.108505 184.335568 
L 155.151091 203.950703 
L 155.176642 197.412324 
L 155.413228 190.873946 
L 155.598711 197.412324 
L 155.64035 217.027459 
L 155.646029 210.489081 
L 155.8864 203.950703 
L 156.071883 210.489081 
L 156.113522 230.104216 
L 156.116361 223.565838 
L 156.588587 210.489081 
L 156.669972 236.642595 
L 157.063651 223.565838 
L 157.157339 236.642595 
L 157.184783 249.719351 
L 157.294559 243.180973 
L 157.536823 236.642595 
L 157.710004 243.180973 
L 157.743126 256.25773 
L 157.772463 249.719351 
L 157.893595 256.25773 
L 158.003371 249.719351 
L 158.226708 256.25773 
L 158.241849 249.719351 
L 158.366767 256.25773 
L 158.48222 249.719351 
L 158.603352 256.25773 
L 158.71786 249.719351 
L 158.835207 256.25773 
L 158.959178 249.719351 
L 159.076524 256.25773 
L 159.197656 249.719351 
L 159.31311 256.25773 
L 159.435189 249.719351 
L 159.543072 256.25773 
L 159.670828 249.719351 
L 159.782497 256.25773 
L 159.914038 249.719351 
L 160.022868 256.25773 
L 160.148732 249.719351 
L 160.257561 256.25773 
L 160.379639 249.719351 
L 160.498879 256.25773 
L 160.61244 249.719351 
L 160.737357 256.25773 
L 160.849972 249.719351 
L 160.97489 256.25773 
L 161.086558 249.719351 
L 161.211476 256.25773 
L 161.318412 249.719351 
L 161.454686 256.25773 
L 161.555945 249.719351 
L 161.688433 256.25773 
L 161.794423 249.719351 
L 161.919341 256.25773 
L 162.02817 249.719351 
L 162.152141 256.25773 
L 162.270434 249.719351 
L 162.389673 256.25773 
L 162.504181 249.719351 
L 162.627206 256.25773 
L 162.735089 249.719351 
L 162.85906 256.25773 
L 162.973567 249.719351 
L 163.096592 256.25773 
L 163.206368 249.719351 
L 163.335071 256.25773 
L 163.445793 249.719351 
L 163.568818 256.25773 
L 163.685218 249.719351 
L 163.811082 256.25773 
L 163.919911 249.719351 
L 164.044828 256.25773 
L 164.155551 249.719351 
L 164.275736 256.25773 
L 164.393083 249.719351 
L 164.513269 256.25773 
L 164.627776 249.719351 
L 164.747015 256.25773 
L 164.861523 249.719351 
L 164.98644 256.25773 
L 165.094324 249.719351 
L 165.225865 256.25773 
L 165.329017 249.719351 
L 165.459612 256.25773 
L 165.569388 249.719351 
L 165.695252 256.25773 
L 165.804081 249.719351 
L 165.93373 256.25773 
L 166.039721 249.719351 
L 166.167477 256.25773 
L 166.277253 249.719351 
L 166.40217 256.25773 
L 166.511 249.719351 
L 166.634025 256.25773 
L 166.741908 249.719351 
L 166.868718 256.25773 
L 166.977547 249.719351 
L 167.110036 256.25773 
L 167.219811 249.719351 
L 167.343782 256.25773 
L 167.455451 249.719351 
L 167.580368 256.25773 
L 167.817901 262.796108 
L 167.928623 256.25773 
L 168.051647 262.796108 
L 168.165209 256.25773 
L 168.281609 262.796108 
L 168.400848 256.25773 
L 168.518195 262.796108 
L 168.637434 256.25773 
L 168.759513 262.796108 
L 168.87402 256.25773 
L 168.996098 262.796108 
L 169.110606 256.25773 
L 169.347192 249.719351 
L 169.46927 256.25773 
L 169.577153 249.719351 
L 169.70491 256.25773 
L 169.813739 249.719351 
L 169.941496 256.25773 
L 170.049379 249.719351 
L 170.177135 256.25773 
L 170.283126 249.719351 
L 170.414668 256.25773 
L 170.517819 249.719351 
L 170.651253 256.25773 
L 170.752512 249.719351 
L 170.887839 256.25773 
L 170.987205 249.719351 
L 171.117801 256.25773 
L 171.225684 249.719351 
L 171.354387 256.25773 
L 171.46227 249.719351 
L 171.590026 256.25773 
L 171.694124 249.719351 
L 171.823773 256.25773 
L 171.932603 249.719351 
L 172.058466 256.25773 
L 172.164457 249.719351 
L 172.292213 256.25773 
L 172.401989 249.719351 
L 172.527853 256.25773 
L 172.635736 249.719351 
L 172.766332 256.25773 
L 172.866644 249.719351 
L 173.002917 256.25773 
L 173.100391 249.719351 
L 173.234772 256.25773 
L 173.341708 249.719351 
L 173.472304 256.25773 
L 173.578294 249.719351 
L 173.705104 256.25773 
L 173.812041 249.719351 
L 173.942637 256.25773 
L 174.046734 249.719351 
L 174.176384 256.25773 
L 174.285213 249.719351 
L 174.407291 256.25773 
L 174.521799 249.719351 
L 174.640092 256.25773 
L 174.757439 249.719351 
L 174.882356 256.25773 
L 174.994024 249.719351 
L 175.118942 256.25773 
L 175.234396 249.719351 
L 175.351742 256.25773 
L 175.470035 249.719351 
L 175.587382 256.25773 
L 175.708514 249.719351 
L 175.825861 256.25773 
L 175.947939 249.719351 
L 176.0615 256.25773 
L 176.191149 249.719351 
L 176.298086 256.25773 
L 176.433413 249.719351 
L 176.533726 256.25773 
L 176.670945 249.719351 
L 176.775043 256.25773 
L 176.908478 249.719351 
L 177.010683 256.25773 
L 177.146956 249.719351 
L 177.248215 256.25773 
L 177.382596 249.719351 
L 177.48764 256.25773 
L 177.621074 249.719351 
L 177.73085 256.25773 
L 177.860499 249.719351 
L 177.973114 256.25773 
L 178.097085 249.719351 
L 178.211593 256.25773 
L 178.331779 249.719351 
L 178.448179 256.25773 
L 178.567418 249.719351 
L 178.687604 256.25773 
L 178.802111 249.719351 
L 178.923243 256.25773 
L 179.042483 249.719351 
L 179.160776 256.25773 
L 179.275283 249.719351 
L 179.401147 256.25773 
L 179.50903 249.719351 
L 179.637733 256.25773 
L 179.748455 249.719351 
L 179.87148 256.25773 
L 179.989773 249.719351 
L 180.108066 256.25773 
L 180.22352 249.719351 
L 180.341812 256.25773 
L 180.459159 249.719351 
L 180.582184 256.25773 
L 180.693852 249.719351 
L 180.815931 256.25773 
L 180.931385 249.719351 
L 181.048731 256.25773 
L 181.165131 249.719351 
L 181.288156 256.25773 
L 181.399825 249.719351 
L 181.529474 256.25773 
L 181.635464 249.719351 
L 181.764167 256.25773 
L 181.872996 249.719351 
L 181.999807 256.25773 
L 182.109582 249.719351 
L 182.2345 256.25773 
L 182.349007 249.719351 
L 182.472032 256.25773 
L 182.582754 249.719351 
L 182.705779 256.25773 
L 182.822179 249.719351 
L 182.939526 256.25773 
L 183.061604 249.719351 
L 183.175165 256.25773 
L 184.122455 282.411243 
L 184.346739 275.872865 
L 184.362827 282.411243 
L 184.601305 288.949622 
L 184.674174 282.411243 
L 185.680137 262.796108 
L 185.884547 269.334486 
L 186.01325 262.796108 
L 186.211982 269.334486 
L 186.34447 262.796108 
L 186.542256 269.334486 
L 198.036546 262.796108 
L 198.195532 256.25773 
L 198.374391 223.565838 
L 198.574069 230.104216 
L 198.786997 177.797189 
L 198.822958 171.258811 
L 198.907182 177.797189 
L 199.239349 184.335568 
L 199.268685 177.797189 
L 199.574354 184.335568 
L 199.601798 177.797189 
L 199.762677 190.873946 
L 199.912199 223.565838 
L 199.936804 217.027459 
L 200.127019 223.565838 
L 200.21219 243.180973 
L 200.270863 236.642595 
L 200.539625 243.180973 
L 200.568015 249.719351 
L 200.598298 243.180973 
L 200.906806 249.719351 
L 200.924787 243.180973 
L 200.93425 249.719351 
L 201.249383 243.180973 
L 201.31468 256.25773 
L 201.580603 249.719351 
L 201.699842 262.796108 
L 201.919394 256.25773 
L 202.136107 269.334486 
L 202.257239 262.796108 
L 202.462595 269.334486 
L 202.58562 262.796108 
L 202.787191 269.334486 
L 202.917787 262.796108 
L 203.118411 269.334486 
L 203.244275 262.796108 
L 203.457202 269.334486 
L 203.581173 262.796108 
L 203.795047 269.334486 
L 203.906716 262.796108 
L 204.123428 269.334486 
L 204.238882 262.796108 
L 204.455595 269.334486 
L 204.559693 262.796108 
L 204.782084 269.334486 
L 204.88902 262.796108 
L 211.196401 138.566919 
L 211.325104 151.643676 
L 211.527621 145.105297 
L 211.702695 151.643676 
L 211.730139 158.182054 
L 211.86168 151.643676 
L 212.054735 158.182054 
L 212.083125 164.720432 
L 212.190062 158.182054 
L 212.390687 164.720432 
L 212.420023 171.258811 
L 212.519389 164.720432 
L 212.773009 171.258811 
L 212.802346 177.797189 
L 212.855341 171.258811 
L 213.123157 177.797189 
L 213.151547 184.335568 
L 213.188454 177.797189 
L 213.48466 184.335568 
L 213.511157 177.797189 
L 213.51305 184.335568 
L 213.837646 177.797189 
L 213.869822 190.873946 
L 214.169813 184.335568 
L 214.259715 197.412324 
L 214.497247 190.873946 
L 214.623111 203.950703 
L 214.835092 197.412324 
L 215.015844 203.950703 
L 215.044234 210.489081 
L 215.172937 203.950703 
L 215.39722 210.489081 
L 215.425611 217.027459 
L 215.512674 210.489081 
L 215.735065 217.027459 
L 215.762509 223.565838 
L 215.84768 217.027459 
L 216.08048 223.565838 
L 216.107924 230.104216 
L 216.187417 223.565838 
L 216.451447 230.104216 
L 216.478891 236.642595 
L 216.509174 230.104216 
L 216.830931 236.642595 
L 216.842287 230.104216 
L 216.858375 236.642595 
L 217.180132 230.104216 
L 217.229342 243.180973 
L 217.517976 236.642595 
L 217.619235 249.719351 
L 217.850143 243.180973 
L 217.990202 256.25773 
L 218.178524 249.719351 
L 218.341295 256.25773 
L 218.369686 262.796108 
L 218.507852 256.25773 
L 218.702799 262.796108 
L 218.737813 269.334486 
L 218.842858 262.796108 
L 219.062409 269.334486 
L 219.173131 262.796108 
L 219.387951 269.334486 
L 219.506244 262.796108 
L 219.716333 269.334486 
L 219.837465 262.796108 
L 220.046607 269.334486 
L 220.165846 262.796108 
L 220.380666 269.334486 
L 220.492335 262.796108 
L 220.71094 269.334486 
L 220.822608 262.796108 
L 221.044999 269.334486 
L 221.161399 262.796108 
L 221.375273 269.334486 
L 221.495459 262.796108 
L 221.704601 269.334486 
L 221.825733 262.796108 
L 222.031089 269.334486 
L 222.164524 262.796108 
L 222.360417 269.334486 
L 222.500476 262.796108 
L 222.700154 269.334486 
L 222.836428 262.796108 
L 223.033267 269.334486 
L 223.160077 262.796108 
L 223.364488 269.334486 
L 223.491298 262.796108 
L 223.702332 269.334486 
L 224.698832 288.949622 
L 225.015857 282.411243 
L 225.030052 288.949622 
L 226.337899 243.180973 
L 226.525275 236.642595 
L 226.556505 243.180973 
L 226.712651 236.642595 
L 226.742934 243.180973 
L 226.90192 236.642595 
L 226.934096 243.180973 
L 227.089296 236.642595 
L 227.119579 243.180973 
L 227.276672 236.642595 
L 227.310741 243.180973 
L 227.470673 236.642595 
L 227.501902 243.180973 
L 227.658049 236.642595 
L 227.69401 243.180973 
L 227.851103 236.642595 
L 227.878547 243.180973 
L 228.03564 236.642595 
L 228.065923 243.180973 
L 228.225855 236.642595 
L 228.253299 243.180973 
L 228.411338 236.642595 
L 228.442568 243.180973 
L 228.6025 236.642595 
L 228.629944 243.180973 
L 228.793661 236.642595 
L 228.81732 243.180973 
L 228.981983 236.642595 
L 229.01132 243.180973 
L 229.16652 236.642595 
L 229.198696 243.180973 
L 229.354843 236.642595 
L 229.39175 243.180973 
L 229.546004 236.642595 
L 229.576287 243.180973 
L 229.735273 236.642595 
L 229.766502 243.180973 
L 229.91981 236.642595 
L 229.951039 243.180973 
L 230.108132 236.642595 
L 230.143147 243.180973 
L 230.299294 236.642595 
L 230.333362 243.180973 
L 230.491402 236.642595 
L 230.522631 243.180973 
L 230.683509 236.642595 
L 230.707168 243.180973 
L 230.873724 236.642595 
L 230.89549 243.180973 
L 231.067725 236.642595 
L 231.086652 243.180973 
L 231.258886 236.642595 
L 231.27592 243.180973 
L 231.449101 236.642595 
L 231.460457 243.180973 
L 231.636477 236.642595 
L 231.64878 243.180973 
L 231.822907 236.642595 
L 231.839941 243.180973 
L 232.010283 236.642595 
L 232.032049 243.180973 
L 232.202391 236.642595 
L 232.224157 243.180973 
L 232.392606 236.642595 
L 232.414372 243.180973 
L 232.584714 236.642595 
L 232.608372 243.180973 
L 232.77209 236.642595 
L 232.799534 243.180973 
L 232.959466 236.642595 
L 232.989749 243.180973 
L 233.149681 236.642595 
L 233.177125 243.180973 
L 233.336111 236.642595 
L 233.363555 243.180973 
L 233.528218 236.642595 
L 233.550931 243.180973 
L 233.716541 236.642595 
L 233.743038 243.180973 
L 233.905809 236.642595 
L 233.933253 243.180973 
L 234.091293 236.642595 
L 234.125361 243.180973 
L 234.283401 236.642595 
L 234.312737 243.180973 
L 234.472669 236.642595 
L 234.500113 243.180973 
L 234.66667 236.642595 
L 234.690328 243.180973 
L 234.858777 236.642595 
L 234.876758 243.180973 
L 235.048046 236.642595 
L 235.068866 243.180973 
L 235.23353 236.642595 
L 235.257188 243.180973 
L 235.424691 236.642595 
L 235.446457 243.180973 
L 235.614906 236.642595 
L 235.63194 243.180973 
L 235.802282 236.642595 
L 235.824048 243.180973 
L 235.993444 236.642595 
L 236.013317 243.180973 
L 236.182712 236.642595 
L 236.207317 243.180973 
L 236.372927 236.642595 
L 236.399425 243.180973 
L 236.563142 236.642595 
L 236.587747 243.180973 
L 236.750518 236.642595 
L 236.774177 243.180973 
L 236.943573 236.642595 
L 236.965338 243.180973 
L 237.127163 236.642595 
L 237.155554 243.180973 
L 237.315486 236.642595 
L 237.341983 243.180973 
L 237.510432 236.642595 
L 237.534091 243.180973 
L 237.695916 236.642595 
L 237.72336 243.180973 
L 237.881399 236.642595 
L 237.913575 243.180973 
L 238.073507 236.642595 
L 238.102844 243.180973 
L 238.262776 236.642595 
L 238.291166 243.180973 
L 238.450152 236.642595 
L 238.48422 243.180973 
L 238.637528 236.642595 
L 238.667811 243.180973 
L 238.82585 236.642595 
L 238.856133 243.180973 
L 239.013226 236.642595 
L 239.05108 243.180973 
L 239.202495 236.642595 
L 239.236563 243.180973 
L 239.39271 236.642595 
L 239.422047 243.180973 
L 239.580086 236.642595 
L 239.614154 243.180973 
L 239.767462 236.642595 
L 239.802477 243.180973 
L 239.95957 236.642595 
L 239.990799 243.180973 
L 240.148838 236.642595 
L 240.178175 243.180973 
L 240.338107 236.642595 
L 240.366498 243.180973 
L 240.530215 236.642595 
L 240.552927 243.180973 
L 240.743142 249.719351 
L 240.904967 243.180973 
L 240.933357 249.719351 
L 241.093289 243.180973 
L 241.120733 249.719351 
L 241.281612 243.180973 
L 241.308109 249.719351 
L 241.471827 243.180973 
L 241.499271 249.719351 
L 241.662042 243.180973 
L 241.689486 249.719351 
L 241.853203 243.180973 
L 241.878755 249.719351 
L 242.045311 243.180973 
L 242.069916 249.719351 
L 242.424795 236.642595 
L 242.445615 243.180973 
L 242.61501 236.642595 
L 242.632991 243.180973 
L 242.806171 236.642595 
L 242.822259 243.180973 
L 242.994494 236.642595 
L 243.012474 243.180973 
L 243.180924 236.642595 
L 243.202689 243.180973 
L 243.367353 236.642595 
L 243.392905 243.180973 
L 243.555676 236.642595 
L 243.585959 243.180973 
L 243.743052 236.642595 
L 243.775227 243.180973 
L 243.934213 236.642595 
L 243.965442 243.180973 
L 244.123482 236.642595 
L 244.155658 243.180973 
L 244.310858 236.642595 
L 244.346819 243.180973 
L 244.503912 236.642595 
L 244.535141 243.180973 
L 244.693181 236.642595 
L 244.721571 243.180973 
L 244.885288 236.642595 
L 244.908001 243.180973 
L 245.07645 236.642595 
L 245.096323 243.180973 
L 245.27045 236.642595 
L 245.283699 243.180973 
L 245.45688 236.642595 
L 245.473914 243.180973 
L 245.647095 236.642595 
L 245.664129 243.180973 
L 245.839203 236.642595 
L 245.851505 243.180973 
L 246.032257 236.642595 
L 246.044559 243.180973 
L 246.221526 236.642595 
L 246.233828 243.180973 
L 246.411741 236.642595 
L 246.425936 243.180973 
L 246.601009 236.642595 
L 246.617097 243.180973 
L 246.789332 236.642595 
L 246.811098 243.180973 
L 246.976708 236.642595 
L 246.997527 243.180973 
L 247.165977 236.642595 
L 247.187743 243.180973 
L 247.35146 236.642595 
L 247.37985 243.180973 
L 247.542621 236.642595 
L 247.572904 243.180973 
L 247.73189 236.642595 
L 247.762173 243.180973 
L 247.922105 236.642595 
L 247.952388 243.180973 
L 248.115159 236.642595 
L 248.141657 243.180973 
L 248.305374 236.642595 
L 248.329979 243.180973 
L 248.491804 236.642595 
L 248.516409 243.180973 
L 248.681073 236.642595 
L 248.706624 243.180973 
L 248.874127 236.642595 
L 248.892107 243.180973 
L 249.063396 236.642595 
L 249.083269 243.180973 
L 249.249825 236.642595 
L 249.272538 243.180973 
L 249.434362 236.642595 
L 249.462753 243.180973 
L 249.629309 236.642595 
L 249.655807 243.180973 
L 249.816685 236.642595 
L 249.846022 243.180973 
L 250.004061 236.642595 
L 250.032452 243.180973 
L 250.195223 236.642595 
L 250.22172 243.180973 
L 250.388277 236.642595 
L 250.414774 243.180973 
L 250.578492 236.642595 
L 250.604043 243.180973 
L 250.766814 236.642595 
L 250.789526 243.180973 
L 250.957976 236.642595 
L 250.97501 243.180973 
L 251.143459 236.642595 
L 251.169957 243.180973 
L 251.33462 236.642595 
L 251.357333 243.180973 
L 251.523889 236.642595 
L 251.544709 243.180973 
L 251.714104 236.642595 
L 251.73587 243.180973 
L 251.902427 236.642595 
L 251.928924 243.180973 
L 252.092642 236.642595 
L 252.119139 243.180973 
L 252.283803 236.642595 
L 252.307462 243.180973 
L 252.476857 236.642595 
L 252.498623 243.180973 
L 252.668965 236.642595 
L 252.684106 243.180973 
L 252.862019 236.642595 
L 252.875268 243.180973 
L 253.054127 236.642595 
L 253.064537 243.180973 
L 253.240557 236.642595 
L 253.254752 243.180973 
L 253.432664 236.642595 
L 253.443074 243.180973 
L 253.622879 236.642595 
L 253.633289 243.180973 
L 253.813094 236.642595 
L 253.824451 243.180973 
L 254.00331 236.642595 
L 254.017505 243.180973 
L 254.193525 236.642595 
L 254.209612 243.180973 
L 254.386579 236.642595 
L 254.402667 243.180973 
L 254.575847 236.642595 
L 254.594774 243.180973 
L 254.768902 236.642595 
L 254.780258 243.180973 
L 254.957224 236.642595 
L 254.973312 243.180973 
L 255.1446 236.642595 
L 255.163527 243.180973 
L 255.333869 236.642595 
L 255.353742 243.180973 
L 255.523137 236.642595 
L 255.543957 243.180973 
L 255.712406 236.642595 
L 255.734172 243.180973 
L 255.903568 236.642595 
L 255.927226 243.180973 
L 256.09189 236.642595 
L 256.116495 243.180973 
L 256.27832 236.642595 
L 256.309549 243.180973 
L 256.466642 236.642595 
L 256.497871 243.180973 
L 256.65875 236.642595 
L 256.685247 243.180973 
L 256.847072 236.642595 
L 256.874516 243.180973 
L 257.030663 236.642595 
L 257.063785 243.180973 
L 257.216146 236.642595 
L 257.253054 243.180973 
L 257.405415 236.642595 
L 257.444215 243.180973 
L 257.596576 236.642595 
L 257.631591 243.180973 
L 257.790577 236.642595 
L 257.818967 243.180973 
L 257.974167 236.642595 
L 258.00729 243.180973 
L 258.161544 236.642595 
L 258.199397 243.180973 
L 258.350812 236.642595 
L 258.38772 243.180973 
L 258.540081 236.642595 
L 258.57131 243.180973 
L 258.728403 236.642595 
L 258.756794 243.180973 
L 258.920511 236.642595 
L 258.946062 243.180973 
L 259.10978 236.642595 
L 259.137224 243.180973 
L 259.297156 236.642595 
L 259.331224 243.180973 
L 259.486425 236.642595 
L 259.514815 243.180973 
L 259.677586 236.642595 
L 259.702191 243.180973 
L 259.864962 236.642595 
L 259.89146 243.180973 
L 260.050445 236.642595 
L 260.080728 243.180973 
L 260.236875 236.642595 
L 260.269051 243.180973 
L 260.425198 236.642595 
L 260.461159 243.180973 
L 260.615413 236.642595 
L 260.650427 243.180973 
L 260.808467 236.642595 
L 260.837803 243.180973 
L 260.996789 236.642595 
L 261.027072 243.180973 
L 261.187951 236.642595 
L 261.217287 243.180973 
L 261.373434 236.642595 
L 261.40561 243.180973 
L 261.562703 236.642595 
L 261.591093 243.180973 
L 261.752918 236.642595 
L 261.777523 243.180973 
L 261.94124 236.642595 
L 261.965845 243.180973 
L 262.128616 236.642595 
L 262.15606 243.180973 
L 262.318831 236.642595 
L 262.349114 243.180973 
L 262.504315 236.642595 
L 262.537437 243.180973 
L 262.692637 236.642595 
L 262.728598 243.180973 
L 262.883798 236.642595 
L 262.913135 243.180973 
L 263.068335 236.642595 
L 263.10335 243.180973 
L 263.25855 236.642595 
L 263.293565 243.180973 
L 263.449712 236.642595 
L 263.481888 243.180973 
L 263.635195 236.642595 
L 263.669264 243.180973 
L 263.828249 236.642595 
L 263.859479 243.180973 
L 264.019411 236.642595 
L 264.044962 243.180973 
L 264.213411 236.642595 
L 264.232338 243.180973 
L 264.399841 236.642595 
L 264.424446 243.180973 
L 264.588163 236.642595 
L 264.608983 243.180973 
L 264.776486 236.642595 
L 264.799198 243.180973 
L 264.966701 236.642595 
L 264.990359 243.180973 
L 265.160701 236.642595 
L 265.175843 243.180973 
L 265.351863 236.642595 
L 265.368897 243.180973 
L 265.541131 236.642595 
L 265.560058 243.180973 
L 265.731346 236.642595 
L 265.754059 243.180973 
L 265.917776 236.642595 
L 265.940488 243.180973 
L 266.107045 236.642595 
L 266.128811 243.180973 
L 266.294421 236.642595 
L 266.317133 243.180973 
L 266.480851 236.642595 
L 266.507348 243.180973 
L 266.66728 236.642595 
L 266.701349 243.180973 
L 266.855603 236.642595 
L 266.89251 243.180973 
L 267.045818 236.642595 
L 267.081779 243.180973 
L 267.236979 236.642595 
L 267.271994 243.180973 
L 267.428141 236.642595 
L 267.458424 243.180973 
L 267.618356 236.642595 
L 267.647692 243.180973 
L 267.808571 236.642595 
L 267.835068 243.180973 
L 267.994054 236.642595 
L 268.021498 243.180973 
L 268.188055 236.642595 
L 268.207928 243.180973 
L 268.377323 236.642595 
L 268.395304 243.180973 
L 268.567538 236.642595 
L 268.586465 243.180973 
L 268.755861 236.642595 
L 268.777627 243.180973 
L 268.944183 236.642595 
L 268.968788 243.180973 
L 269.132505 236.642595 
L 269.159003 243.180973 
L 269.323667 236.642595 
L 269.349218 243.180973 
L 269.50915 236.642595 
L 269.534702 243.180973 
L 269.696526 236.642595 
L 269.727756 243.180973 
L 269.887688 236.642595 
L 269.917971 243.180973 
L 270.07601 236.642595 
L 270.107239 243.180973 
L 270.26244 236.642595 
L 270.296508 243.180973 
L 270.44603 236.642595 
L 270.484831 243.180973 
L 270.639085 236.642595 
L 270.673153 243.180973 
L 270.831192 236.642595 
L 270.864314 243.180973 
L 271.015729 236.642595 
L 271.049798 243.180973 
L 271.20973 236.642595 
L 271.237174 243.180973 
L 271.398999 236.642595 
L 271.428335 243.180973 
L 271.588267 236.642595 
L 271.616658 243.180973 
L 271.777536 236.642595 
L 271.803087 243.180973 
L 271.965858 236.642595 
L 271.986678 243.180973 
L 273.505559 295.488 
L 277.938233 288.949622 
L 278.193746 145.105297 
L 279.347339 105.875027 
L 279.479827 112.413405 
L 279.734393 243.180973 
L 279.923662 236.642595 
L 279.936911 243.180973 
L 280.109145 236.642595 
L 280.129019 243.180973 
L 280.301253 236.642595 
L 280.316395 243.180973 
L 280.487683 236.642595 
L 280.504717 243.180973 
L 280.676952 236.642595 
L 280.698718 243.180973 
L 280.86622 236.642595 
L 280.887986 243.180973 
L 281.055489 236.642595 
L 281.081987 243.180973 
L 281.24949 236.642595 
L 281.275041 243.180973 
L 281.44349 236.642595 
L 281.46431 243.180973 
L 281.62992 236.642595 
L 281.649793 243.180973 
L 281.820135 236.642595 
L 281.841901 243.180973 
L 282.009404 236.642595 
L 282.02833 243.180973 
L 282.197726 236.642595 
L 282.216653 243.180973 
L 282.388887 236.642595 
L 282.406868 243.180973 
L 282.578156 236.642595 
L 282.596137 243.180973 
L 282.765532 236.642595 
L 282.790137 243.180973 
L 282.952908 236.642595 
L 282.984137 243.180973 
L 283.147855 236.642595 
L 283.170567 243.180973 
L 283.340909 236.642595 
L 283.360782 243.180973 
L 283.528285 236.642595 
L 283.549105 243.180973 
L 283.722286 236.642595 
L 283.737427 243.180973 
L 283.912501 236.642595 
L 283.929535 243.180973 
L 284.099877 236.642595 
L 284.118804 243.180973 
L 284.291984 236.642595 
L 284.30618 243.180973 
L 284.47936 236.642595 
L 284.493556 243.180973 
L 284.667683 236.642595 
L 284.688502 243.180973 
L 284.857898 236.642595 
L 284.881557 243.180973 
L 285.048113 236.642595 
L 285.067986 243.180973 
L 285.238328 236.642595 
L 285.262933 243.180973 
L 285.42665 236.642595 
L 285.453148 243.180973 
L 285.617812 236.642595 
L 285.640524 243.180973 
L 285.808973 236.642595 
L 285.832632 243.180973 
L 286.000135 236.642595 
L 286.020008 243.180973 
L 286.194135 236.642595 
L 286.20833 243.180973 
L 286.379619 236.642595 
L 286.398545 243.180973 
L 286.57078 236.642595 
L 286.58876 243.180973 
L 286.760995 236.642595 
L 286.778976 243.180973 
L 286.950264 236.642595 
L 286.967298 243.180973 
L 287.13764 236.642595 
L 287.158459 243.180973 
L 287.329748 236.642595 
L 287.349621 243.180973 
L 287.520909 236.642595 
L 287.540782 243.180973 
L 287.71207 236.642595 
L 287.734783 243.180973 
L 287.902285 236.642595 
L 287.91932 243.180973 
L 288.089661 236.642595 
L 288.110481 243.180973 
L 288.280823 236.642595 
L 288.301642 243.180973 
L 288.468199 236.642595 
L 288.489965 243.180973 
L 288.657468 236.642595 
L 288.678287 243.180973 
L 288.844844 236.642595 
L 288.869449 243.180973 
L 289.037898 236.642595 
L 289.061556 243.180973 
L 290.578545 295.488 
L 294.973365 288.949622 
L 295.297015 145.105297 
L 296.241466 112.413405 
L 296.514013 118.951784 
L 296.837662 262.796108 
L 297.594737 288.949622 
L 297.719654 282.411243 
L 297.782113 288.949622 
L 298.708584 269.334486 
L 299.037911 262.796108 
L 299.257463 269.334486 
L 299.360614 262.796108 
L 299.595308 269.334486 
L 299.690888 262.796108 
L 299.921796 269.334486 
L 300.022109 262.796108 
L 300.247338 269.334486 
L 300.352383 262.796108 
L 300.57572 269.334486 
L 300.687388 262.796108 
L 300.898423 269.334486 
L 301.011984 262.796108 
L 301.229643 269.334486 
L 301.349829 262.796108 
L 301.560863 269.334486 
L 301.684834 262.796108 
L 301.890191 269.334486 
L 302.015108 262.796108 
L 302.225197 269.334486 
L 302.348221 262.796108 
L 302.549792 269.334486 
L 302.677549 262.796108 
L 302.888583 269.334486 
L 303.014447 262.796108 
L 303.222643 269.334486 
L 303.349453 262.796108 
L 303.552917 269.334486 
L 303.684458 262.796108 
L 303.88603 269.334486 
L 304.010947 262.796108 
L 304.215357 269.334486 
L 304.340275 262.796108 
L 304.552256 269.334486 
L 304.677173 262.796108 
L 304.887261 269.334486 
L 305.013125 262.796108 
L 305.223213 269.334486 
L 305.35097 262.796108 
L 305.548755 269.334486 
L 305.680297 262.796108 
L 305.879029 269.334486 
L 306.009625 262.796108 
L 306.215928 269.334486 
L 306.349362 262.796108 
L 306.55188 269.334486 
L 306.677743 262.796108 
L 306.888778 269.334486 
L 307.010856 262.796108 
L 307.218106 269.334486 
L 307.339238 262.796108 
L 307.54838 269.334486 
L 307.674243 262.796108 
L 307.887171 269.334486 
L 308.007356 262.796108 
L 308.216498 269.334486 
L 308.341416 262.796108 
L 308.548665 269.334486 
L 308.676421 262.796108 
L 308.877046 269.334486 
L 309.001963 262.796108 
L 309.212052 269.334486 
L 309.332237 262.796108 
L 309.546111 269.334486 
L 309.666297 262.796108 
L 309.879224 269.334486 
L 310.003195 262.796108 
L 310.21423 269.334486 
L 310.336308 262.796108 
L 310.539772 269.334486 
L 310.659958 262.796108 
L 310.870992 269.334486 
L 310.9855 262.796108 
L 311.204105 269.334486 
L 311.314827 262.796108 
L 311.541003 269.334486 
L 311.639423 262.796108 
L 312.198712 275.872865 
L 313.177232 295.488 
L 317.693184 288.949622 
L 317.957213 230.104216 
L 318.916806 210.489081 
L 319.232885 217.027459 
L 319.249919 210.489081 
L 319.289665 223.565838 
L 319.495968 269.334486 
L 319.585871 262.796108 
L 319.849901 269.334486 
L 319.91993 262.796108 
L 320.118662 269.334486 
L 320.249258 262.796108 
L 320.454614 269.334486 
L 320.58521 262.796108 
L 320.787727 269.334486 
L 320.924001 262.796108 
L 321.123679 269.334486 
L 321.249543 262.796108 
L 321.457739 269.334486 
L 321.583602 262.796108 
L 321.787066 269.334486 
L 321.913876 262.796108 
L 322.123965 269.334486 
L 322.243204 262.796108 
L 322.461809 269.334486 
L 322.571585 262.796108 
L 322.788298 269.334486 
L 322.900913 262.796108 
L 323.121411 269.334486 
L 323.226455 262.796108 
L 323.781012 275.872865 
L 323.887003 269.334486 
L 324.109394 275.872865 
L 324.222008 269.334486 
L 324.438721 275.872865 
L 324.551336 269.334486 
L 324.764263 275.872865 
L 324.890127 269.334486 
L 325.227972 262.796108 
L 325.424811 269.334486 
L 325.560138 262.796108 
L 325.760763 269.334486 
L 325.887573 262.796108 
L 326.089144 269.334486 
L 326.217847 262.796108 
L 326.427935 269.334486 
L 326.547175 262.796108 
L 326.76578 269.334486 
L 326.875556 262.796108 
L 327.097947 269.334486 
L 327.199206 262.796108 
L 327.426328 269.334486 
L 327.535158 262.796108 
L 327.755656 269.334486 
L 327.867324 262.796108 
L 328.084983 269.334486 
L 328.194759 262.796108 
L 328.413364 269.334486 
L 328.532604 262.796108 
L 339.98904 256.25773 
L 340.196289 217.027459 
L 340.410163 210.489081 
L 340.42909 217.027459 
L 340.46789 203.950703 
L 340.656212 145.105297 
L 340.762203 151.643676 
L 340.88712 145.105297 
L 341.088691 151.643676 
L 341.124652 145.105297 
L 341.357453 138.566919 
L 341.669746 177.797189 
L 341.734098 190.873946 
L 341.825893 184.335568 
L 342.012323 197.412324 
L 342.040713 203.950703 
L 342.063425 197.412324 
L 342.301904 190.873946 
L 342.387075 203.950703 
L 342.542275 197.412324 
L 342.692744 203.950703 
L 342.737222 217.027459 
L 342.776022 210.489081 
L 343.019232 203.950703 
L 343.091154 230.104216 
L 343.259604 223.565838 
L 343.433731 230.104216 
L 343.476316 249.719351 
L 343.49619 243.180973 
L 343.737507 236.642595 
L 343.842551 256.25773 
L 343.976932 249.719351 
L 344.081976 256.25773 
L 344.209733 249.719351 
L 344.315723 256.25773 
L 344.448211 249.719351 
L 344.558933 256.25773 
L 344.682904 249.719351 
L 344.800251 256.25773 
L 344.918544 249.719351 
L 345.035891 256.25773 
L 345.15513 249.719351 
L 345.278155 256.25773 
L 345.394555 249.719351 
L 345.51758 256.25773 
L 345.630194 249.719351 
L 351.337593 243.180973 
L 351.542003 158.182054 
L 351.665028 151.643676 
L 351.666921 158.182054 
L 351.684901 151.643676 
L 351.788999 145.105297 
L 351.901614 151.643676 
L 352.027478 145.105297 
L 352.137253 151.643676 
L 352.26501 145.105297 
L 352.372893 151.643676 
L 352.498757 145.105297 
L 352.613264 151.643676 
L 352.739128 145.105297 
L 352.87824 158.182054 
L 352.991802 203.950703 
L 353.208514 197.412324 
L 353.385481 203.950703 
L 353.428066 223.565838 
L 353.441315 217.027459 
L 353.917326 203.950703 
L 353.975053 230.104216 
L 354.38482 217.027459 
L 354.502166 230.104216 
L 354.530557 243.180973 
L 354.624245 236.642595 
L 354.858938 230.104216 
L 354.991426 243.180973 
L 355.025494 256.25773 
L 355.094577 249.719351 
L 355.328324 243.180973 
L 355.507183 249.719351 
L 355.527056 256.25773 
L 355.566803 249.719351 
L 355.687935 256.25773 
L 355.805281 249.719351 
L 355.925467 256.25773 
L 356.044706 249.719351 
L 356.163946 256.25773 
L 356.284131 249.719351 
L 356.398639 256.25773 
L 356.518825 249.719351 
L 356.635225 256.25773 
L 356.751625 249.719351 
L 356.868025 256.25773 
L 356.987265 249.719351 
L 362.693717 243.180973 
L 362.883932 164.720432 
L 363.263416 177.797189 
L 364.205974 203.950703 
L 364.332784 256.25773 
L 364.423633 295.488 
L 368.576189 288.949622 
L 368.789116 282.411243 
L 369.048414 164.720432 
L 369.988134 138.566919 
L 370.343959 158.182054 
L 370.589062 262.796108 
L 370.692213 256.25773 
L 370.80956 262.796108 
L 370.925014 256.25773 
L 371.048039 262.796108 
L 371.158761 256.25773 
L 371.285571 262.796108 
L 371.395347 256.25773 
L 371.528781 262.796108 
L 371.63004 256.25773 
L 371.868519 249.719351 
L 371.995329 256.25773 
L 372.106997 249.719351 
L 372.231914 256.25773 
L 372.342637 249.719351 
L 372.464715 256.25773 
L 372.57733 249.719351 
L 372.699408 256.25773 
L 372.812023 249.719351 
L 372.935994 256.25773 
L 373.046716 249.719351 
L 373.169741 256.25773 
L 373.28141 249.719351 
L 373.409166 256.25773 
L 373.519888 249.719351 
L 373.647645 256.25773 
L 373.750796 249.719351 
L 373.882338 256.25773 
L 373.983597 249.719351 
L 374.117977 256.25773 
L 374.220182 249.719351 
L 374.351724 256.25773 
L 374.455822 249.719351 
L 374.586417 256.25773 
L 374.689569 249.719351 
L 374.822057 256.25773 
L 374.922369 249.719351 
L 375.060536 256.25773 
L 375.158955 249.719351 
L 375.290497 256.25773 
L 375.391756 249.719351 
L 375.524244 256.25773 
L 375.627396 249.719351 
L 375.76083 256.25773 
L 375.863035 249.719351 
L 375.995523 256.25773 
L 376.104353 249.719351 
L 376.22927 256.25773 
L 376.340939 249.719351 
L 376.463017 256.25773 
L 376.576578 249.719351 
L 376.699603 256.25773 
L 376.813164 249.719351 
L 376.931457 256.25773 
L 377.047857 249.719351 
L 377.167097 256.25773 
L 377.279712 249.719351 
L 377.403683 256.25773 
L 377.520083 249.719351 
L 377.644054 256.25773 
L 377.757615 249.719351 
L 377.88064 256.25773 
L 377.995147 249.719351 
L 378.116279 256.25773 
L 378.228894 249.719351 
L 378.353812 256.25773 
L 378.460748 249.719351 
L 378.587558 256.25773 
L 378.694495 249.719351 
L 378.820359 256.25773 
L 378.929189 249.719351 
L 379.06073 256.25773 
L 379.168613 249.719351 
L 379.297316 256.25773 
L 379.399521 249.719351 
L 379.534848 256.25773 
L 379.632322 249.719351 
L 396.758303 243.180973 
L 396.946625 164.720432 
L 397.034635 171.258811 
L 398.206209 203.950703 
L 398.313145 217.027459 
L 398.487273 295.488 
L 398.487273 295.488 
" clip-path="url(#p963cbef031)" style="fill: none; stroke: #1f77b4; stroke-width: 1.5; stroke-linecap: square"/>
   </g>
   <g id="patch_3">
    <path d="M 57.6 307.584 
L 57.6 41.472 
" style="fill: none; stroke: #000000; stroke-width: 0.8; stroke-linejoin: miter; stroke-linecap: square"/>
   </g>
   <g id="patch_4">
    <path d="M 414.72 307.584 
L 414.72 41.472 
" style="fill: none; stroke: #000000; stroke-width: 0.8; stroke-linejoin: miter; stroke-linecap: square"/>
   </g>
   <g id="patch_5">
    <path d="M 57.6 307.584 
L 414.72 307.584 
" style="fill: none; stroke: #000000; stroke-width: 0.8; stroke-linejoin: miter; stroke-linecap: square"/>
   </g>
   <g id="patch_6">
    <path d="M 57.6 41.472 
L 414.72 41.472 
" style="fill: none; stroke: #000000; stroke-width: 0.8; stroke-linejoin: miter; stroke-linecap: square"/>
   </g>
   <g id="text_18">
    <!-- Queue size (y-axis) between S4 and sensors that follow at a time (x-axis). -->
    <g transform="translate(14.282813 35.472) scale(0.12 -0.12)">
     <defs>
      <path id="DejaVuSans-51" d="M 2522 4238 
Q 1834 4238 1429 3725 
Q 1025 3213 1025 2328 
Q 1025 1447 1429 934 
Q 1834 422 2522 422 
Q 3209 422 3611 934 
Q 4013 1447 4013 2328 
Q 4013 3213 3611 3725 
Q 3209 4238 2522 4238 
z
M 3406 84 
L 4238 -825 
L 3475 -825 
L 2784 -78 
Q 2681 -84 2626 -87 
Q 2572 -91 2522 -91 
Q 1538 -91 948 567 
Q 359 1225 359 2328 
Q 359 3434 948 4092 
Q 1538 4750 2522 4750 
Q 3503 4750 4090 4092 
Q 4678 3434 4678 2328 
Q 4678 1516 4351 937 
Q 4025 359 3406 84 
z
" transform="scale(0.015625)"/>
      <path id="DejaVuSans-75" d="M 544 1381 
L 544 3500 
L 1119 3500 
L 1119 1403 
Q 1119 906 1312 657 
Q 1506 409 1894 409 
Q 2359 409 2629 706 
Q 2900 1003 2900 1516 
L 2900 3500 
L 3475 3500 
L 3475 0 
L 2900 0 
L 2900 538 
Q 2691 219 2414 64 
Q 2138 -91 1772 -91 
Q 1169 -91 856 284 
Q 544 659 544 1381 
z
M 1991 3584 
L 1991 3584 
z
" transform="scale(0.015625)"/>
      <path id="DejaVuSans-20" transform="scale(0.015625)"/>
      <path id="DejaVuSans-73" d="M 2834 3397 
L 2834 2853 
Q 2591 2978 2328 3040 
Q 2066 3103 1784 3103 
Q 1356 3103 1142 2972 
Q 928 2841 928 2578 
Q 928 2378 1081 2264 
Q 1234 2150 1697 2047 
L 1894 2003 
Q 2506 1872 2764 1633 
Q 3022 1394 3022 966 
Q 3022 478 2636 193 
Q 2250 -91 1575 -91 
Q 1294 -91 989 -36 
Q 684 19 347 128 
L 347 722 
Q 666 556 975 473 
Q 1284 391 1588 391 
Q 1994 391 2212 530 
Q 2431 669 2431 922 
Q 2431 1156 2273 1281 
Q 2116 1406 1581 1522 
L 1381 1569 
Q 847 1681 609 1914 
Q 372 2147 372 2553 
Q 372 3047 722 3315 
Q 1072 3584 1716 3584 
Q 2034 3584 2315 3537 
Q 2597 3491 2834 3397 
z
" transform="scale(0.015625)"/>
      <path id="DejaVuSans-69" d="M 603 3500 
L 1178 3500 
L 1178 0 
L 603 0 
L 603 3500 
z
M 603 4863 
L 1178 4863 
L 1178 4134 
L 603 4134 
L 603 4863 
z
" transform="scale(0.015625)"/>
      <path id="DejaVuSans-7a" d="M 353 3500 
L 3084 3500 
L 3084 2975 
L 922 459 
L 3084 459 
L 3084 0 
L 275 0 
L 275 525 
L 2438 3041 
L 353 3041 
L 353 3500 
z
" transform="scale(0.015625)"/>
      <path id="DejaVuSans-28" d="M 1984 4856 
Q 1566 4138 1362 3434 
Q 1159 2731 1159 2009 
Q 1159 1288 1364 580 
Q 1569 -128 1984 -844 
L 1484 -844 
Q 1016 -109 783 600 
Q 550 1309 550 2009 
Q 550 2706 781 3412 
Q 1013 4119 1484 4856 
L 1984 4856 
z
" transform="scale(0.015625)"/>
      <path id="DejaVuSans-79" d="M 2059 -325 
Q 1816 -950 1584 -1140 
Q 1353 -1331 966 -1331 
L 506 -1331 
L 506 -850 
L 844 -850 
Q 1081 -850 1212 -737 
Q 1344 -625 1503 -206 
L 1606 56 
L 191 3500 
L 800 3500 
L 1894 763 
L 2988 3500 
L 3597 3500 
L 2059 -325 
z
" transform="scale(0.015625)"/>
      <path id="DejaVuSans-2d" d="M 313 2009 
L 1997 2009 
L 1997 1497 
L 313 1497 
L 313 2009 
z
" transform="scale(0.015625)"/>
      <path id="DejaVuSans-61" d="M 2194 1759 
Q 1497 1759 1228 1600 
Q 959 1441 959 1056 
Q 959 750 1161 570 
Q 1363 391 1709 391 
Q 2188 391 2477 730 
Q 2766 1069 2766 1631 
L 2766 1759 
L 2194 1759 
z
M 3341 1997 
L 3341 0 
L 2766 0 
L 2766 531 
Q 2569 213 2275 61 
Q 1981 -91 1556 -91 
Q 1019 -91 701 211 
Q 384 513 384 1019 
Q 384 1609 779 1909 
Q 1175 2209 1959 2209 
L 2766 2209 
L 2766 2266 
Q 2766 2663 2505 2880 
Q 2244 3097 1772 3097 
Q 1472 3097 1187 3025 
Q 903 2953 641 2809 
L 641 3341 
Q 956 3463 1253 3523 
Q 1550 3584 1831 3584 
Q 2591 3584 2966 3190 
Q 3341 2797 3341 1997 
z
" transform="scale(0.015625)"/>
      <path id="DejaVuSans-78" d="M 3513 3500 
L 2247 1797 
L 3578 0 
L 2900 0 
L 1881 1375 
L 863 0 
L 184 0 
L 1544 1831 
L 300 3500 
L 978 3500 
L 1906 2253 
L 2834 3500 
L 3513 3500 
z
" transform="scale(0.015625)"/>
      <path id="DejaVuSans-29" d="M 513 4856 
L 1013 4856 
Q 1481 4119 1714 3412 
Q 1947 2706 1947 2009 
Q 1947 1309 1714 600 
Q 1481 -109 1013 -844 
L 513 -844 
Q 928 -128 1133 580 
Q 1338 1288 1338 2009 
Q 1338 2731 1133 3434 
Q 928 4138 513 4856 
z
" transform="scale(0.015625)"/>
      <path id="DejaVuSans-62" d="M 3116 1747 
Q 3116 2381 2855 2742 
Q 2594 3103 2138 3103 
Q 1681 3103 1420 2742 
Q 1159 2381 1159 1747 
Q 1159 1113 1420 752 
Q 1681 391 2138 391 
Q 2594 391 2855 752 
Q 3116 1113 3116 1747 
z
M 1159 2969 
Q 1341 3281 1617 3432 
Q 1894 3584 2278 3584 
Q 2916 3584 3314 3078 
Q 3713 2572 3713 1747 
Q 3713 922 3314 415 
Q 2916 -91 2278 -91 
Q 1894 -91 1617 61 
Q 1341 213 1159 525 
L 1159 0 
L 581 0 
L 581 4863 
L 1159 4863 
L 1159 2969 
z
" transform="scale(0.015625)"/>
      <path id="DejaVuSans-74" d="M 1172 4494 
L 1172 3500 
L 2356 3500 
L 2356 3053 
L 1172 3053 
L 1172 1153 
Q 1172 725 1289 603 
Q 1406 481 1766 481 
L 2356 481 
L 2356 0 
L 1766 0 
Q 1100 0 847 248 
Q 594 497 594 1153 
L 594 3053 
L 172 3053 
L 172 3500 
L 594 3500 
L 594 4494 
L 1172 4494 
z
" transform="scale(0.015625)"/>
      <path id="DejaVuSans-77" d="M 269 3500 
L 844 3500 
L 1563 769 
L 2278 3500 
L 2956 3500 
L 3675 769 
L 4391 3500 
L 4966 3500 
L 4050 0 
L 3372 0 
L 2619 2869 
L 1863 0 
L 1184 0 
L 269 3500 
z
" transform="scale(0.015625)"/>
      <path id="DejaVuSans-6e" d="M 3513 2113 
L 3513 0 
L 2938 0 
L 2938 2094 
Q 2938 2591 2744 2837 
Q 2550 3084 2163 3084 
Q 1697 3084 1428 2787 
Q 1159 2491 1159 1978 
L 1159 0 
L 581 0 
L 581 3500 
L 1159 3500 
L 1159 2956 
Q 1366 3272 1645 3428 
Q 1925 3584 2291 3584 
Q 2894 3584 3203 3211 
Q 3513 2838 3513 2113 
z
" transform="scale(0.015625)"/>
      <path id="DejaVuSans-53" d="M 3425 4513 
L 3425 3897 
Q 3066 4069 2747 4153 
Q 2428 4238 2131 4238 
Q 1616 4238 1336 4038 
Q 1056 3838 1056 3469 
Q 1056 3159 1242 3001 
Q 1428 2844 1947 2747 
L 2328 2669 
Q 3034 2534 3370 2195 
Q 3706 1856 3706 1288 
Q 3706 609 3251 259 
Q 2797 -91 1919 -91 
Q 1588 -91 1214 -16 
Q 841 59 441 206 
L 441 856 
Q 825 641 1194 531 
Q 1563 422 1919 422 
Q 2459 422 2753 634 
Q 3047 847 3047 1241 
Q 3047 1584 2836 1778 
Q 2625 1972 2144 2069 
L 1759 2144 
Q 1053 2284 737 2584 
Q 422 2884 422 3419 
Q 422 4038 858 4394 
Q 1294 4750 2059 4750 
Q 2388 4750 2728 4690 
Q 3069 4631 3425 4513 
z
" transform="scale(0.015625)"/>
      <path id="DejaVuSans-34" d="M 2419 4116 
L 825 1625 
L 2419 1625 
L 2419 4116 
z
M 2253 4666 
L 3047 4666 
L 3047 1625 
L 3713 1625 
L 3713 1100 
L 3047 1100 
L 3047 0 
L 2419 0 
L 2419 1100 
L 313 1100 
L 313 1709 
L 2253 4666 
z
" transform="scale(0.015625)"/>
      <path id="DejaVuSans-64" d="M 2906 2969 
L 2906 4863 
L 3481 4863 
L 3481 0 
L 2906 0 
L 2906 525 
Q 2725 213 2448 61 
Q 2172 -91 1784 -91 
Q 1150 -91 751 415 
Q 353 922 353 1747 
Q 353 2572 751 3078 
Q 1150 3584 1784 3584 
Q 2172 3584 2448 3432 
Q 2725 3281 2906 2969 
z
M 947 1747 
Q 947 1113 1208 752 
Q 1469 391 1925 391 
Q 2381 391 2643 752 
Q 2906 1113 2906 1747 
Q 2906 2381 2643 2742 
Q 2381 3103 1925 3103 
Q 1469 3103 1208 2742 
Q 947 2381 947 1747 
z
" transform="scale(0.015625)"/>
      <path id="DejaVuSans-6f" d="M 1959 3097 
Q 1497 3097 1228 2736 
Q 959 2375 959 1747 
Q 959 1119 1226 758 
Q 1494 397 1959 397 
Q 2419 397 2687 759 
Q 2956 1122 2956 1747 
Q 2956 2369 2687 2733 
Q 2419 3097 1959 3097 
z
M 1959 3584 
Q 2709 3584 3137 3096 
Q 3566 2609 3566 1747 
Q 3566 888 3137 398 
Q 2709 -91 1959 -91 
Q 1206 -91 779 398 
Q 353 888 353 1747 
Q 353 2609 779 3096 
Q 1206 3584 1959 3584 
z
" transform="scale(0.015625)"/>
      <path id="DejaVuSans-72" d="M 2631 2963 
Q 2534 3019 2420 3045 
Q 2306 3072 2169 3072 
Q 1681 3072 1420 2755 
Q 1159 2438 1159 1844 
L 1159 0 
L 581 0 
L 581 3500 
L 1159 3500 
L 1159 2956 
Q 1341 3275 1631 3429 
Q 1922 3584 2338 3584 
Q 2397 3584 2469 3576 
Q 2541 3569 2628 3553 
L 2631 2963 
z
" transform="scale(0.015625)"/>
      <path id="DejaVuSans-68" d="M 3513 2113 
L 3513 0 
L 2938 0 
L 2938 2094 
Q 2938 2591 2744 2837 
Q 2550 3084 2163 3084 
Q 1697 3084 1428 2787 
Q 1159 2491 1159 1978 
L 1159 0 
L 581 0 
L 581 4863 
L 1159 4863 
L 1159 2956 
Q 1366 3272 1645 3428 
Q 1925 3584 2291 3584 
Q 2894 3584 3203 3211 
Q 3513 2838 3513 2113 
z
" transform="scale(0.015625)"/>
      <path id="DejaVuSans-66" d="M 2375 4863 
L 2375 4384 
L 1825 4384 
Q 1516 4384 1395 4259 
Q 1275 4134 1275 3809 
L 1275 3500 
L 2222 3500 
L 2222 3053 
L 1275 3053 
L 1275 0 
L 697 0 
L 697 3053 
L 147 3053 
L 147 3500 
L 697 3500 
L 697 3744 
Q 697 4328 969 4595 
Q 1241 4863 1831 4863 
L 2375 4863 
z
" transform="scale(0.015625)"/>
      <path id="DejaVuSans-6c" d="M 603 4863 
L 1178 4863 
L 1178 0 
L 603 0 
L 603 4863 
z
" transform="scale(0.015625)"/>
      <path id="DejaVuSans-6d" d="M 3328 2828 
Q 3544 3216 3844 3400 
Q 4144 3584 4550 3584 
Q 5097 3584 5394 3201 
Q 5691 2819 5691 2113 
L 5691 0 
L 5113 0 
L 5113 2094 
Q 5113 2597 4934 2840 
Q 4756 3084 4391 3084 
Q 3944 3084 3684 2787 
Q 3425 2491 3425 1978 
L 3425 0 
L 2847 0 
L 2847 2094 
Q 2847 2600 2669 2842 
Q 2491 3084 2119 3084 
Q 1678 3084 1418 2786 
Q 1159 2488 1159 1978 
L 1159 0 
L 581 0 
L 581 3500 
L 1159 3500 
L 1159 2956 
Q 1356 3278 1631 3431 
Q 1906 3584 2284 3584 
Q 2666 3584 2933 3390 
Q 3200 3197 3328 2828 
z
" transform="scale(0.015625)"/>
     </defs>
     <use xlink:href="#DejaVuSans-51"/>
     <use xlink:href="#DejaVuSans-75" x="78.710938"/>
     <use xlink:href="#DejaVuSans-65" x="142.089844"/>
     <use xlink:href="#DejaVuSans-75" x="203.613281"/>
     <use xlink:href="#DejaVuSans-65" x="266.992188"/>
     <use xlink:href="#DejaVuSans-20" x="328.515625"/>
     <use xlink:href="#DejaVuSans-73" x="360.302734"/>
     <use xlink:href="#DejaVuSans-69" x="412.402344"/>
     <use xlink:href="#DejaVuSans-7a" x="440.185547"/>
     <use xlink:href="#DejaVuSans-65" x="492.675781"/>
     <use xlink:href="#DejaVuSans-20" x="554.199219"/>
     <use xlink:href="#DejaVuSans-28" x="585.986328"/>
     <use xlink:href="#DejaVuSans-79" x="625"/>
     <use xlink:href="#DejaVuSans-2d" x="682.429688"/>
     <use xlink:href="#DejaVuSans-61" x="718.513672"/>
     <use xlink:href="#DejaVuSans-78" x="779.792969"/>
     <use xlink:href="#DejaVuSans-69" x="838.972656"/>
     <use xlink:href="#DejaVuSans-73" x="866.755859"/>
     <use xlink:href="#DejaVuSans-29" x="918.855469"/>
     <use xlink:href="#DejaVuSans-20" x="957.869141"/>
     <use xlink:href="#DejaVuSans-62" x="989.65625"/>
     <use xlink:href="#DejaVuSans-65" x="1053.132812"/>
     <use xlink:href="#DejaVuSans-74" x="1114.65625"/>
     <use xlink:href="#DejaVuSans-77" x="1153.865234"/>
     <use xlink:href="#DejaVuSans-65" x="1235.652344"/>
     <use xlink:href="#DejaVuSans-65" x="1297.175781"/>
     <use xlink:href="#DejaVuSans-6e" x="1358.699219"/>
     <use xlink:href="#DejaVuSans-20" x="1422.078125"/>
     <use xlink:href="#DejaVuSans-53" x="1453.865234"/>
     <use xlink:href="#DejaVuSans-34" x="1517.341797"/>
     <use xlink:href="#DejaVuSans-20" x="1580.964844"/>
     <use xlink:href="#DejaVuSans-61" x="1612.751953"/>
     <use xlink:href="#DejaVuSans-6e" x="1674.03125"/>
     <use xlink:href="#DejaVuSans-64" x="1737.410156"/>
     <use xlink:href="#DejaVuSans-20" x="1800.886719"/>
     <use xlink:href="#DejaVuSans-73" x="1832.673828"/>
     <use xlink:href="#DejaVuSans-65" x="1884.773438"/>
     <use xlink:href="#DejaVuSans-6e" x="1946.296875"/>
     <use xlink:href="#DejaVuSans-73" x="2009.675781"/>
     <use xlink:href="#DejaVuSans-6f" x="2061.775391"/>
     <use xlink:href="#DejaVuSans-72" x="2122.957031"/>
     <use xlink:href="#DejaVuSans-73" x="2164.070312"/>
     <use xlink:href="#DejaVuSans-20" x="2216.169922"/>
     <use xlink:href="#DejaVuSans-74" x="2247.957031"/>
     <use xlink:href="#DejaVuSans-68" x="2287.166016"/>
     <use xlink:href="#DejaVuSans-61" x="2350.544922"/>
     <use xlink:href="#DejaVuSans-74" x="2411.824219"/>
     <use xlink:href="#DejaVuSans-20" x="2451.033203"/>
     <use xlink:href="#DejaVuSans-66" x="2482.820312"/>
     <use xlink:href="#DejaVuSans-6f" x="2518.025391"/>
     <use xlink:href="#DejaVuSans-6c" x="2579.207031"/>
     <use xlink:href="#DejaVuSans-6c" x="2606.990234"/>
     <use xlink:href="#DejaVuSans-6f" x="2634.773438"/>
     <use xlink:href="#DejaVuSans-77" x="2695.955078"/>
     <use xlink:href="#DejaVuSans-20" x="2777.742188"/>
     <use xlink:href="#DejaVuSans-61" x="2809.529297"/>
     <use xlink:href="#DejaVuSans-74" x="2870.808594"/>
     <use xlink:href="#DejaVuSans-20" x="2910.017578"/>
     <use xlink:href="#DejaVuSans-61" x="2941.804688"/>
     <use xlink:href="#DejaVuSans-20" x="3003.083984"/>
     <use xlink:href="#DejaVuSans-74" x="3034.871094"/>
     <use xlink:href="#DejaVuSans-69" x="3074.080078"/>
     <use xlink:href="#DejaVuSans-6d" x="3101.863281"/>
     <use xlink:href="#DejaVuSans-65" x="3199.275391"/>
     <use xlink:href="#DejaVuSans-20" x="3260.798828"/>
     <use xlink:href="#DejaVuSans-28" x="3292.585938"/>
     <use xlink:href="#DejaVuSans-78" x="3331.599609"/>
     <use xlink:href="#DejaVuSans-2d" x="3390.779297"/>
     <use xlink:href="#DejaVuSans-61" x="3426.863281"/>
     <use xlink:href="#DejaVuSans-78" x="3488.142578"/>
     <use xlink:href="#DejaVuSans-69" x="3547.322266"/>
     <use xlink:href="#DejaVuSans-73" x="3575.105469"/>
     <use xlink:href="#DejaVuSans-29" x="3627.205078"/>
     <use xlink:href="#DejaVuSans-2e" x="3666.21875"/>
    </g>
   </g>
  </g>
 </g>
 <defs>
  <clipPath id="p963cbef031">
   <rect x="57.6" y="41.472" width="357.12" height="266.112"/>
  </clipPath>
 </defs>
</svg>
