<?xml version="1.0" encoding="utf-8" standalone="no"?>
<!DOCTYPE svg PUBLIC "-//W3C//DTD SVG 1.1//EN"
  "http://www.w3.org/Graphics/SVG/1.1/DTD/svg11.dtd">
<svg xmlns:xlink="http://www.w3.org/1999/xlink" width="460.8pt" height="345.6pt" viewBox="0 0 460.8 345.6" xmlns="http://www.w3.org/2000/svg" version="1.1">
 <metadata>
  <rdf:RDF xmlns:dc="http://purl.org/dc/elements/1.1/" xmlns:cc="http://creativecommons.org/ns#" xmlns:rdf="http://www.w3.org/1999/02/22-rdf-syntax-ns#">
   <cc:Work>
    <dc:type rdf:resource="http://purl.org/dc/dcmitype/StillImage"/>
    <dc:date>2024-03-08T13:52:57.100179</dc:date>
    <dc:format>image/svg+xml</dc:format>
    <dc:creator>
     <cc:Agent>
      <dc:title>Matplotlib v3.8.2, https://matplotlib.org/</dc:title>
     </cc:Agent>
    </dc:creator>
   </cc:Work>
  </rdf:RDF>
 </metadata>
 <defs>
  <style type="text/css">*{stroke-linejoin: round; stroke-linecap: butt}</style>
 </defs>
 <g id="figure_1">
  <g id="patch_1">
   <path d="M 0 345.6 
L 460.8 345.6 
L 460.8 0 
L 0 0 
z
" style="fill: #ffffff"/>
  </g>
  <g id="axes_1">
   <g id="patch_2">
    <path d="M 57.6 307.584 
L 414.72 307.584 
L 414.72 41.472 
L 57.6 41.472 
z
" style="fill: #ffffff"/>
   </g>
   <g id="matplotlib.axis_1">
    <g id="xtick_1">
     <g id="line2d_1">
      <defs>
       <path id="m6ea0eb22a5" d="M 0 0 
L 0 3.5 
" style="stroke: #000000; stroke-width: 0.8"/>
      </defs>
      <g>
       <use xlink:href="#m6ea0eb22a5" x="73.832727" y="307.584" style="stroke: #000000; stroke-width: 0.8"/>
      </g>
     </g>
     <g id="text_1">
      <!-- 0.0 -->
      <g transform="translate(65.881165 322.182437) scale(0.1 -0.1)">
       <defs>
        <path id="DejaVuSans-30" d="M 2034 4250 
Q 1547 4250 1301 3770 
Q 1056 3291 1056 2328 
Q 1056 1369 1301 889 
Q 1547 409 2034 409 
Q 2525 409 2770 889 
Q 3016 1369 3016 2328 
Q 3016 3291 2770 3770 
Q 2525 4250 2034 4250 
z
M 2034 4750 
Q 2819 4750 3233 4129 
Q 3647 3509 3647 2328 
Q 3647 1150 3233 529 
Q 2819 -91 2034 -91 
Q 1250 -91 836 529 
Q 422 1150 422 2328 
Q 422 3509 836 4129 
Q 1250 4750 2034 4750 
z
" transform="scale(0.015625)"/>
        <path id="DejaVuSans-2e" d="M 684 794 
L 1344 794 
L 1344 0 
L 684 0 
L 684 794 
z
" transform="scale(0.015625)"/>
       </defs>
       <use xlink:href="#DejaVuSans-30"/>
       <use xlink:href="#DejaVuSans-2e" x="63.623047"/>
       <use xlink:href="#DejaVuSans-30" x="95.410156"/>
      </g>
     </g>
    </g>
    <g id="xtick_2">
     <g id="line2d_2">
      <g>
       <use xlink:href="#m6ea0eb22a5" x="132.86834" y="307.584" style="stroke: #000000; stroke-width: 0.8"/>
      </g>
     </g>
     <g id="text_2">
      <!-- 0.2 -->
      <g transform="translate(124.916778 322.182437) scale(0.1 -0.1)">
       <defs>
        <path id="DejaVuSans-32" d="M 1228 531 
L 3431 531 
L 3431 0 
L 469 0 
L 469 531 
Q 828 903 1448 1529 
Q 2069 2156 2228 2338 
Q 2531 2678 2651 2914 
Q 2772 3150 2772 3378 
Q 2772 3750 2511 3984 
Q 2250 4219 1831 4219 
Q 1534 4219 1204 4116 
Q 875 4013 500 3803 
L 500 4441 
Q 881 4594 1212 4672 
Q 1544 4750 1819 4750 
Q 2544 4750 2975 4387 
Q 3406 4025 3406 3419 
Q 3406 3131 3298 2873 
Q 3191 2616 2906 2266 
Q 2828 2175 2409 1742 
Q 1991 1309 1228 531 
z
" transform="scale(0.015625)"/>
       </defs>
       <use xlink:href="#DejaVuSans-30"/>
       <use xlink:href="#DejaVuSans-2e" x="63.623047"/>
       <use xlink:href="#DejaVuSans-32" x="95.410156"/>
      </g>
     </g>
    </g>
    <g id="xtick_3">
     <g id="line2d_3">
      <g>
       <use xlink:href="#m6ea0eb22a5" x="191.903953" y="307.584" style="stroke: #000000; stroke-width: 0.8"/>
      </g>
     </g>
     <g id="text_3">
      <!-- 0.4 -->
      <g transform="translate(183.95239 322.182437) scale(0.1 -0.1)">
       <defs>
        <path id="DejaVuSans-34" d="M 2419 4116 
L 825 1625 
L 2419 1625 
L 2419 4116 
z
M 2253 4666 
L 3047 4666 
L 3047 1625 
L 3713 1625 
L 3713 1100 
L 3047 1100 
L 3047 0 
L 2419 0 
L 2419 1100 
L 313 1100 
L 313 1709 
L 2253 4666 
z
" transform="scale(0.015625)"/>
       </defs>
       <use xlink:href="#DejaVuSans-30"/>
       <use xlink:href="#DejaVuSans-2e" x="63.623047"/>
       <use xlink:href="#DejaVuSans-34" x="95.410156"/>
      </g>
     </g>
    </g>
    <g id="xtick_4">
     <g id="line2d_4">
      <g>
       <use xlink:href="#m6ea0eb22a5" x="250.939566" y="307.584" style="stroke: #000000; stroke-width: 0.8"/>
      </g>
     </g>
     <g id="text_4">
      <!-- 0.6 -->
      <g transform="translate(242.988003 322.182437) scale(0.1 -0.1)">
       <defs>
        <path id="DejaVuSans-36" d="M 2113 2584 
Q 1688 2584 1439 2293 
Q 1191 2003 1191 1497 
Q 1191 994 1439 701 
Q 1688 409 2113 409 
Q 2538 409 2786 701 
Q 3034 994 3034 1497 
Q 3034 2003 2786 2293 
Q 2538 2584 2113 2584 
z
M 3366 4563 
L 3366 3988 
Q 3128 4100 2886 4159 
Q 2644 4219 2406 4219 
Q 1781 4219 1451 3797 
Q 1122 3375 1075 2522 
Q 1259 2794 1537 2939 
Q 1816 3084 2150 3084 
Q 2853 3084 3261 2657 
Q 3669 2231 3669 1497 
Q 3669 778 3244 343 
Q 2819 -91 2113 -91 
Q 1303 -91 875 529 
Q 447 1150 447 2328 
Q 447 3434 972 4092 
Q 1497 4750 2381 4750 
Q 2619 4750 2861 4703 
Q 3103 4656 3366 4563 
z
" transform="scale(0.015625)"/>
       </defs>
       <use xlink:href="#DejaVuSans-30"/>
       <use xlink:href="#DejaVuSans-2e" x="63.623047"/>
       <use xlink:href="#DejaVuSans-36" x="95.410156"/>
      </g>
     </g>
    </g>
    <g id="xtick_5">
     <g id="line2d_5">
      <g>
       <use xlink:href="#m6ea0eb22a5" x="309.975178" y="307.584" style="stroke: #000000; stroke-width: 0.8"/>
      </g>
     </g>
     <g id="text_5">
      <!-- 0.8 -->
      <g transform="translate(302.023616 322.182437) scale(0.1 -0.1)">
       <defs>
        <path id="DejaVuSans-38" d="M 2034 2216 
Q 1584 2216 1326 1975 
Q 1069 1734 1069 1313 
Q 1069 891 1326 650 
Q 1584 409 2034 409 
Q 2484 409 2743 651 
Q 3003 894 3003 1313 
Q 3003 1734 2745 1975 
Q 2488 2216 2034 2216 
z
M 1403 2484 
Q 997 2584 770 2862 
Q 544 3141 544 3541 
Q 544 4100 942 4425 
Q 1341 4750 2034 4750 
Q 2731 4750 3128 4425 
Q 3525 4100 3525 3541 
Q 3525 3141 3298 2862 
Q 3072 2584 2669 2484 
Q 3125 2378 3379 2068 
Q 3634 1759 3634 1313 
Q 3634 634 3220 271 
Q 2806 -91 2034 -91 
Q 1263 -91 848 271 
Q 434 634 434 1313 
Q 434 1759 690 2068 
Q 947 2378 1403 2484 
z
M 1172 3481 
Q 1172 3119 1398 2916 
Q 1625 2713 2034 2713 
Q 2441 2713 2670 2916 
Q 2900 3119 2900 3481 
Q 2900 3844 2670 4047 
Q 2441 4250 2034 4250 
Q 1625 4250 1398 4047 
Q 1172 3844 1172 3481 
z
" transform="scale(0.015625)"/>
       </defs>
       <use xlink:href="#DejaVuSans-30"/>
       <use xlink:href="#DejaVuSans-2e" x="63.623047"/>
       <use xlink:href="#DejaVuSans-38" x="95.410156"/>
      </g>
     </g>
    </g>
    <g id="xtick_6">
     <g id="line2d_6">
      <g>
       <use xlink:href="#m6ea0eb22a5" x="369.010791" y="307.584" style="stroke: #000000; stroke-width: 0.8"/>
      </g>
     </g>
     <g id="text_6">
      <!-- 1.0 -->
      <g transform="translate(361.059229 322.182437) scale(0.1 -0.1)">
       <defs>
        <path id="DejaVuSans-31" d="M 794 531 
L 1825 531 
L 1825 4091 
L 703 3866 
L 703 4441 
L 1819 4666 
L 2450 4666 
L 2450 531 
L 3481 531 
L 3481 0 
L 794 0 
L 794 531 
z
" transform="scale(0.015625)"/>
       </defs>
       <use xlink:href="#DejaVuSans-31"/>
       <use xlink:href="#DejaVuSans-2e" x="63.623047"/>
       <use xlink:href="#DejaVuSans-30" x="95.410156"/>
      </g>
     </g>
    </g>
    <g id="text_7">
     <!-- 1e6 -->
     <g transform="translate(395.841875 334.860562) scale(0.1 -0.1)">
      <defs>
       <path id="DejaVuSans-65" d="M 3597 1894 
L 3597 1613 
L 953 1613 
Q 991 1019 1311 708 
Q 1631 397 2203 397 
Q 2534 397 2845 478 
Q 3156 559 3463 722 
L 3463 178 
Q 3153 47 2828 -22 
Q 2503 -91 2169 -91 
Q 1331 -91 842 396 
Q 353 884 353 1716 
Q 353 2575 817 3079 
Q 1281 3584 2069 3584 
Q 2775 3584 3186 3129 
Q 3597 2675 3597 1894 
z
M 3022 2063 
Q 3016 2534 2758 2815 
Q 2500 3097 2075 3097 
Q 1594 3097 1305 2825 
Q 1016 2553 972 2059 
L 3022 2063 
z
" transform="scale(0.015625)"/>
      </defs>
      <use xlink:href="#DejaVuSans-31"/>
      <use xlink:href="#DejaVuSans-65" x="63.623047"/>
      <use xlink:href="#DejaVuSans-36" x="125.146484"/>
     </g>
    </g>
   </g>
   <g id="matplotlib.axis_2">
    <g id="ytick_1">
     <g id="line2d_7">
      <defs>
       <path id="m6217b7924f" d="M 0 0 
L -3.5 0 
" style="stroke: #000000; stroke-width: 0.8"/>
      </defs>
      <g>
       <use xlink:href="#m6217b7924f" x="57.6" y="295.488" style="stroke: #000000; stroke-width: 0.8"/>
      </g>
     </g>
     <g id="text_8">
      <!-- 0.0 -->
      <g transform="translate(34.696875 299.287219) scale(0.1 -0.1)">
       <use xlink:href="#DejaVuSans-30"/>
       <use xlink:href="#DejaVuSans-2e" x="63.623047"/>
       <use xlink:href="#DejaVuSans-30" x="95.410156"/>
      </g>
     </g>
    </g>
    <g id="ytick_2">
     <g id="line2d_8">
      <g>
       <use xlink:href="#m6217b7924f" x="57.6" y="247.104" style="stroke: #000000; stroke-width: 0.8"/>
      </g>
     </g>
     <g id="text_9">
      <!-- 0.2 -->
      <g transform="translate(34.696875 250.903219) scale(0.1 -0.1)">
       <use xlink:href="#DejaVuSans-30"/>
       <use xlink:href="#DejaVuSans-2e" x="63.623047"/>
       <use xlink:href="#DejaVuSans-32" x="95.410156"/>
      </g>
     </g>
    </g>
    <g id="ytick_3">
     <g id="line2d_9">
      <g>
       <use xlink:href="#m6217b7924f" x="57.6" y="198.72" style="stroke: #000000; stroke-width: 0.8"/>
      </g>
     </g>
     <g id="text_10">
      <!-- 0.4 -->
      <g transform="translate(34.696875 202.519219) scale(0.1 -0.1)">
       <use xlink:href="#DejaVuSans-30"/>
       <use xlink:href="#DejaVuSans-2e" x="63.623047"/>
       <use xlink:href="#DejaVuSans-34" x="95.410156"/>
      </g>
     </g>
    </g>
    <g id="ytick_4">
     <g id="line2d_10">
      <g>
       <use xlink:href="#m6217b7924f" x="57.6" y="150.336" style="stroke: #000000; stroke-width: 0.8"/>
      </g>
     </g>
     <g id="text_11">
      <!-- 0.6 -->
      <g transform="translate(34.696875 154.135219) scale(0.1 -0.1)">
       <use xlink:href="#DejaVuSans-30"/>
       <use xlink:href="#DejaVuSans-2e" x="63.623047"/>
       <use xlink:href="#DejaVuSans-36" x="95.410156"/>
      </g>
     </g>
    </g>
    <g id="ytick_5">
     <g id="line2d_11">
      <g>
       <use xlink:href="#m6217b7924f" x="57.6" y="101.952" style="stroke: #000000; stroke-width: 0.8"/>
      </g>
     </g>
     <g id="text_12">
      <!-- 0.8 -->
      <g transform="translate(34.696875 105.751219) scale(0.1 -0.1)">
       <use xlink:href="#DejaVuSans-30"/>
       <use xlink:href="#DejaVuSans-2e" x="63.623047"/>
       <use xlink:href="#DejaVuSans-38" x="95.410156"/>
      </g>
     </g>
    </g>
    <g id="ytick_6">
     <g id="line2d_12">
      <g>
       <use xlink:href="#m6217b7924f" x="57.6" y="53.568" style="stroke: #000000; stroke-width: 0.8"/>
      </g>
     </g>
     <g id="text_13">
      <!-- 1.0 -->
      <g transform="translate(34.696875 57.367219) scale(0.1 -0.1)">
       <use xlink:href="#DejaVuSans-31"/>
       <use xlink:href="#DejaVuSans-2e" x="63.623047"/>
       <use xlink:href="#DejaVuSans-30" x="95.410156"/>
      </g>
     </g>
    </g>
   </g>
   <g id="line2d_13">
    <path d="M 73.832727 295.488 
L 118.044498 295.488 
L 118.044498 295.052108 
L 118.62895 295.052108 
L 118.62895 294.616216 
L 119.22521 294.616216 
L 119.22521 294.180324 
L 119.812614 294.180324 
L 119.812614 293.744432 
L 120.391163 293.744432 
L 120.391163 293.308541 
L 120.987423 293.308541 
L 120.987423 292.872649 
L 126.324242 292.872649 
L 126.324242 292.436757 
L 126.905743 292.436757 
L 126.905743 292.000865 
L 127.502003 292.000865 
L 127.502003 291.564973 
L 128.089407 291.564973 
L 128.089407 291.129081 
L 128.69157 291.129081 
L 128.69157 290.693189 
L 133.018881 290.693189 
L 133.018881 290.257297 
L 134.043149 290.257297 
L 134.043149 289.821405 
L 135.082176 289.821405 
L 135.082176 289.385514 
L 136.10054 289.385514 
L 136.10054 288.949622 
L 137.121856 288.949622 
L 137.121856 288.51373 
L 138.146124 288.51373 
L 138.146124 288.077838 
L 139.188102 288.077838 
L 139.188102 287.641946 
L 140.215322 287.641946 
L 140.215322 287.206054 
L 141.115615 287.206054 
L 141.115615 286.770162 
L 141.236638 286.770162 
L 141.236638 286.33427 
L 141.700068 286.33427 
L 141.700068 285.898378 
L 142.26681 285.898378 
L 142.287472 285.026595 
L 142.874876 285.026595 
L 142.874876 284.590703 
L 143.31174 284.590703 
L 143.31174 284.154811 
L 143.471136 284.154811 
L 143.471136 283.718919 
L 144.055589 283.718919 
L 144.055589 283.283027 
L 144.353719 283.283027 
L 144.353719 282.847135 
L 144.648897 282.847135 
L 144.648897 282.411243 
L 145.245156 282.411243 
L 145.245156 281.975351 
L 145.398649 281.975351 
L 145.398649 281.539459 
L 145.841416 281.539459 
L 145.841416 281.103568 
L 146.425869 281.103568 
L 146.440627 280.231784 
L 147.02508 280.231784 
L 147.02508 279.795892 
L 147.467847 279.795892 
L 147.467847 279.36 
L 147.615436 279.36 
L 147.615436 278.924108 
L 148.208744 278.924108 
L 148.208744 278.488216 
L 148.474404 278.488216 
L 148.474404 278.052324 
L 148.805004 278.052324 
L 148.805004 277.616432 
L 149.383553 277.616432 
L 149.383553 277.180541 
L 149.49572 277.180541 
L 149.49572 276.744649 
L 149.988668 276.744649 
L 149.988668 276.308757 
L 150.525892 276.308757 
L 150.584927 275.436973 
L 151.181187 275.436973 
L 151.181187 275.001081 
L 151.573774 275.001081 
L 151.573774 274.565189 
L 151.774495 274.565189 
L 151.774495 274.129297 
L 152.361899 274.129297 
L 152.361899 273.693405 
L 152.603945 273.693405 
L 152.603945 273.257514 
L 152.958159 273.257514 
L 152.958159 272.821622 
L 153.548515 272.821622 
L 153.645924 271.949838 
L 154.141823 271.949838 
L 154.141823 271.513946 
L 154.676095 271.513946 
L 154.732179 270.642162 
L 155.31368 270.642162 
L 155.31368 270.20627 
L 155.71217 270.20627 
L 155.71217 269.770378 
L 155.915843 269.770378 
L 155.915843 269.334486 
L 156.497344 269.334486 
L 156.497344 268.898595 
L 156.73939 268.898595 
L 156.73939 268.462703 
L 157.090652 268.462703 
L 157.090652 268.026811 
L 157.698719 268.026811 
L 157.775465 267.155027 
L 158.283171 267.155027 
L 158.283171 266.719135 
L 158.802685 266.719135 
L 158.885335 265.847351 
L 159.49045 265.847351 
L 159.49045 265.411459 
L 159.824001 265.411459 
L 159.824001 264.975568 
L 160.077854 264.975568 
L 160.077854 264.539676 
L 160.659355 264.539676 
L 160.659355 264.103784 
L 160.851221 264.103784 
L 160.851221 263.667892 
L 161.252663 263.667892 
L 161.252663 263.232 
L 161.848922 263.232 
L 161.848922 262.796108 
L 162.436327 262.796108 
L 162.436327 262.360216 
L 162.938129 262.360216 
L 163.026683 261.488432 
L 163.619991 261.488432 
L 163.619991 261.052541 
L 163.971253 261.052541 
L 163.971253 260.616649 
L 164.201492 260.616649 
L 164.201492 260.180757 
L 164.806607 260.180757 
L 164.806607 259.744865 
L 164.998472 259.744865 
L 164.998472 259.308973 
L 165.411722 259.308973 
L 165.411722 258.873081 
L 166.002078 258.873081 
L 166.049306 258.001297 
L 166.592434 258.001297 
L 166.592434 257.565405 
L 167.097188 257.565405 
L 167.18279 256.693622 
L 167.764291 256.693622 
L 167.764291 256.25773 
L 168.153926 256.25773 
L 168.153926 255.821838 
L 168.36055 255.821838 
L 168.36055 255.385946 
L 168.942051 255.385946 
L 168.942051 254.950054 
L 169.207712 254.950054 
L 169.207712 254.514162 
L 169.529456 254.514162 
L 169.529456 254.07827 
L 170.131619 254.07827 
L 170.217221 253.206486 
L 170.739686 253.206486 
L 170.739686 252.770595 
L 171.32709 252.770595 
L 171.32709 252.334703 
L 171.935157 252.334703 
L 171.935157 251.898811 
L 172.280515 251.898811 
L 172.280515 251.462919 
L 172.519609 251.462919 
L 172.519609 251.027027 
L 173.104062 251.027027 
L 173.104062 250.591135 
L 173.310687 250.591135 
L 173.310687 250.155243 
L 173.703273 250.155243 
L 173.703273 249.719351 
L 174.334954 249.719351 
L 174.334954 249.283459 
L 175.350367 249.283459 
L 175.350367 248.847568 
L 176.395297 248.847568 
L 176.395297 248.411676 
L 177.434324 248.411676 
L 177.434324 247.975784 
L 178.458592 247.975784 
L 178.458592 247.539892 
L 179.500571 247.539892 
L 179.571413 246.668108 
L 180.161769 246.668108 
L 180.161769 246.232216 
L 180.530742 246.232216 
L 180.530742 245.796324 
L 180.749174 245.796324 
L 180.749174 245.360432 
L 181.357241 245.360432 
L 181.357241 244.924541 
L 181.560914 244.924541 
L 181.560914 244.488649 
L 181.950549 244.488649 
L 181.950549 244.052757 
L 182.532049 244.052757 
L 182.585181 243.180973 
L 183.131261 243.180973 
L 183.131261 242.745081 
L 183.62716 242.745081 
L 183.721617 241.873297 
L 184.311973 241.873297 
L 184.311973 241.437405 
L 184.92004 241.437405 
L 184.92004 241.001514 
L 186.437255 241.001514 
L 186.437255 240.565622 
L 187.461523 240.565622 
L 187.461523 240.12973 
L 188.488743 240.12973 
L 188.488743 239.693838 
L 189.067292 239.693838 
L 189.067292 239.257946 
L 189.518914 239.257946 
L 189.518914 238.822054 
L 189.808189 238.822054 
L 189.808189 238.386162 
L 190.543182 238.386162 
L 190.557941 237.514378 
L 191.121731 237.514378 
L 191.121731 237.078486 
L 191.275224 237.078486 
L 191.275224 236.642595 
L 191.576305 236.642595 
L 191.576305 236.206703 
L 192.004313 236.206703 
L 192.004313 235.770811 
L 192.134192 235.770811 
L 192.134192 235.334919 
L 192.287684 235.334919 
L 192.287684 234.899027 
L 192.630091 234.899027 
L 192.630091 234.463135 
L 192.74521 234.463135 
L 192.74521 234.027243 
L 192.875089 234.027243 
L 192.875089 233.591351 
L 193.179122 233.591351 
L 193.179122 233.155459 
L 193.465445 233.155459 
L 193.477252 232.283676 
L 193.677973 232.283676 
L 193.677973 231.847784 
L 194.055801 231.847784 
L 194.055801 231.411892 
L 194.212245 231.411892 
L 194.227004 230.540108 
L 194.646157 230.540108 
L 194.708144 229.668324 
L 194.941335 229.668324 
L 194.941335 229.232432 
L 195.251272 229.232432 
L 195.283742 228.360649 
L 195.694039 228.360649 
L 195.747171 227.488865 
L 195.826869 227.488865 
L 195.826869 227.052973 
L 196.316865 227.052973 
L 196.426081 226.181189 
L 196.44084 226.181189 
L 196.44084 225.745297 
L 196.798005 225.745297 
L 196.798005 225.309405 
L 197.025292 225.309405 
L 197.025292 224.873514 
L 197.16993 224.873514 
L 197.16993 224.437622 
L 197.355892 224.437622 
L 197.355892 224.00173 
L 197.597938 224.00173 
L 197.597938 223.565838 
L 197.837032 223.565838 
L 197.896068 222.694054 
L 198.18239 222.694054 
L 198.18239 222.258162 
L 198.412629 222.258162 
L 198.412629 221.82227 
L 198.64582 221.82227 
L 198.64582 221.386378 
L 198.766843 221.386378 
L 198.766843 220.950486 
L 198.884914 220.950486 
L 198.884914 220.514595 
L 199.366054 220.514595 
L 199.442801 219.206919 
L 199.950507 219.206919 
L 199.950507 218.771027 
L 200.112855 218.771027 
L 200.112855 218.335135 
L 200.461165 218.335135 
L 200.529056 217.463351 
L 200.844896 217.463351 
L 200.844896 217.027459 
L 201.122364 217.027459 
L 201.122364 216.591568 
L 201.485433 216.591568 
L 201.582842 215.719784 
L 201.71272 215.719784 
L 201.71272 215.283892 
L 202.329642 215.283892 
L 202.329642 214.848 
L 202.518556 214.848 
L 202.518556 214.412108 
L 203.073491 214.412108 
L 203.073491 213.976216 
L 203.560535 213.976216 
L 203.560535 213.540324 
L 203.808484 213.540324 
L 203.808484 213.104432 
L 204.552333 213.104432 
L 204.587754 212.232649 
L 205.29323 212.232649 
L 205.313892 211.360865 
L 205.632685 211.360865 
L 205.632685 210.924973 
L 206.034127 210.924973 
L 206.0725 210.053189 
L 206.293883 210.053189 
L 206.293883 209.617297 
L 206.662856 209.617297 
L 206.662856 209.181405 
L 206.8193 209.181405 
L 206.8193 208.745514 
L 207.341766 208.745514 
L 207.341766 208.309622 
L 207.563149 208.309622 
L 207.563149 207.87373 
L 207.687124 207.87373 
L 207.687124 207.437838 
L 208.298143 207.437838 
L 208.374889 206.566054 
L 208.720247 206.566054 
L 208.720247 206.130162 
L 209.047895 206.130162 
L 209.047895 205.69427 
L 209.402108 205.69427 
L 209.402108 205.258378 
L 209.776985 205.258378 
L 209.78584 204.386595 
L 210.444087 204.386595 
L 210.520833 203.514811 
L 210.827819 203.514811 
L 210.827819 203.078919 
L 211.258779 203.078919 
L 211.258779 202.643027 
L 211.462451 202.643027 
L 211.462451 202.207135 
L 211.866845 202.207135 
L 211.866845 201.771243 
L 212.002627 201.771243 
L 212.002627 201.335351 
L 212.495575 201.335351 
L 212.495575 200.899459 
L 212.734669 200.899459 
L 212.734669 200.463568 
L 212.873403 200.463568 
L 212.873403 200.027676 
L 213.463759 200.027676 
L 213.505084 199.155892 
L 213.933092 199.155892 
L 213.933092 198.72 
L 214.201704 198.72 
L 214.201704 198.284108 
L 214.954408 198.284108 
L 214.978022 197.412324 
L 215.683498 197.412324 
L 215.683498 196.976432 
L 216.03476 196.976432 
L 216.03476 196.540541 
L 216.403732 196.540541 
L 216.403732 196.104649 
L 217.088545 196.104649 
L 217.132822 195.232865 
L 217.873719 195.232865 
L 217.873719 194.796973 
L 218.142331 194.796973 
L 218.142331 194.361081 
L 218.596905 194.361081 
L 218.596905 193.925189 
L 219.163647 193.925189 
L 219.163647 193.489297 
L 219.340754 193.489297 
L 219.340754 193.053405 
L 220.06394 193.053405 
L 220.06394 192.617514 
L 220.202674 192.617514 
L 220.202674 192.181622 
L 220.533273 192.181622 
L 220.533273 191.74573 
L 220.801885 191.74573 
L 220.801885 191.309838 
L 221.218086 191.309838 
L 221.218086 190.873946 
L 221.545734 190.873946 
L 221.545734 190.002162 
L 221.545734 190.002162 
L 222.224644 190.002162 
L 222.277776 189.130378 
L 222.575905 189.130378 
L 222.575905 188.694486 
L 222.758916 188.694486 
L 222.758916 188.258595 
L 223.009817 188.258595 
L 223.009817 187.822703 
L 223.26367 187.822703 
L 223.26367 187.386811 
L 223.588366 187.386811 
L 223.588366 186.950919 
L 223.741859 186.950919 
L 223.789087 186.079135 
L 224.311553 186.079135 
L 224.311553 185.643243 
L 224.470949 185.643243 
L 224.470949 185.207351 
L 224.600827 185.207351 
L 224.600827 184.771459 
L 225.205942 184.771459 
L 225.205942 184.335568 
L 225.341724 184.335568 
L 225.341724 183.899676 
L 225.636902 183.899676 
L 225.636902 183.463784 
L 225.943887 183.463784 
L 225.943887 183.027892 
L 226.36304 183.027892 
L 226.36304 182.592 
L 226.66117 182.592 
L 226.690688 181.720216 
L 227.399115 181.720216 
L 227.405019 180.848432 
L 227.729714 180.848432 
L 227.729714 180.412541 
L 228.13706 180.412541 
L 228.13706 179.976649 
L 228.438142 179.976649 
L 228.438142 179.540757 
L 228.759886 179.540757 
L 228.759886 179.104865 
L 228.875005 179.104865 
L 228.875005 178.668973 
L 229.483072 178.668973 
L 229.483072 178.233081 
L 229.612951 178.233081 
L 229.612951 177.797189 
L 229.77825 177.797189 
L 229.77825 177.361297 
L 230.347944 177.361297 
L 230.347944 176.925405 
L 230.501437 176.925405 
L 230.501437 176.489514 
L 230.616556 176.489514 
L 230.616556 176.053622 
L 230.820229 176.053622 
L 230.820229 175.61773 
L 231.085889 175.61773 
L 231.085889 175.181838 
L 231.212816 175.181838 
L 231.212816 174.745946 
L 231.558174 174.745946 
L 231.558174 174.310054 
L 231.803172 174.310054 
L 231.862207 173.43827 
L 232.387624 173.43827 
L 232.387624 173.002378 
L 232.561779 173.002378 
L 232.597201 172.130595 
L 232.901234 172.130595 
L 232.97798 171.258811 
L 233.296773 171.258811 
L 233.296773 170.822919 
L 233.577192 170.822919 
L 233.639179 169.951135 
L 233.946165 169.951135 
L 234.052429 169.079351 
L 234.164596 169.079351 
L 234.164596 168.643459 
L 234.645737 168.643459 
L 234.752001 167.771676 
L 234.787422 167.771676 
L 234.787422 167.335784 
L 234.973384 167.335784 
L 234.973384 166.899892 
L 235.345309 166.899892 
L 235.345309 166.464 
L 235.507656 166.464 
L 235.507656 166.028108 
L 235.67886 166.028108 
L 235.67886 165.592216 
L 235.929761 165.592216 
L 236.009459 164.720432 
L 236.236746 164.720432 
L 236.236746 164.284541 
L 236.502407 164.284541 
L 236.502407 163.848649 
L 236.72379 163.848649 
L 236.72379 163.412757 
L 236.977643 163.412757 
L 237.033727 162.540973 
L 237.10457 162.540973 
L 237.10457 162.105081 
L 237.293484 162.105081 
L 237.293484 161.669189 
L 237.703781 161.669189 
L 237.76872 160.361514 
L 238.093416 160.361514 
L 238.093416 159.925622 
L 238.294137 159.925622 
L 238.338414 159.053838 
L 238.444678 159.053838 
L 238.444678 158.617946 
L 238.778229 158.617946 
L 238.869735 157.746162 
L 239.120636 157.746162 
L 239.19443 156.874378 
L 239.374489 156.874378 
L 239.44238 156.002595 
L 239.926472 156.002595 
L 240.032736 155.130811 
L 240.150807 155.130811 
L 240.150807 154.694919 
L 240.407612 154.694919 
L 240.407612 154.259027 
L 240.628996 154.259027 
L 240.65261 153.387243 
L 241.201641 153.387243 
L 241.219352 152.515459 
L 241.3817 152.515459 
L 241.449591 151.643676 
L 241.800853 151.643676 
L 241.800853 151.207784 
L 242.113742 151.207784 
L 242.113742 150.771892 
L 242.249523 150.771892 
L 242.249523 150.336 
L 242.385305 150.336 
L 242.385305 149.900108 
L 242.497473 149.900108 
L 242.497473 149.464216 
L 242.854638 149.464216 
L 242.854638 149.028324 
L 242.981565 149.028324 
L 242.981565 148.592432 
L 243.300357 148.592432 
L 243.300357 148.156541 
L 243.521741 148.156541 
L 243.589632 146.848865 
L 244.165229 146.848865 
L 244.165229 146.412973 
L 244.321673 146.412973 
L 244.327577 145.541189 
L 244.548961 145.541189 
L 244.548961 145.105297 
L 244.755585 145.105297 
L 244.755585 144.669405 
L 245.068474 144.669405 
L 245.068474 144.233514 
L 245.340038 144.233514 
L 245.345941 143.36173 
L 245.579132 143.36173 
L 245.579132 142.925838 
L 245.815274 142.925838 
L 245.92449 142.054054 
L 246.390872 142.054054 
L 246.390872 141.618162 
L 246.529605 141.618162 
L 246.627014 140.310486 
L 247.119962 140.310486 
L 247.119962 139.874595 
L 247.285261 139.874595 
L 247.285261 139.438703 
L 247.435802 139.438703 
L 247.435802 139.002811 
L 247.657186 139.002811 
L 247.722125 138.131027 
L 248.005496 138.131027 
L 248.005496 137.695135 
L 248.312481 137.695135 
L 248.312481 137.259243 
L 248.489588 137.259243 
L 248.489588 136.823351 
L 248.684405 136.823351 
L 248.734586 135.951568 
L 248.908741 135.951568 
L 248.908741 135.515676 
L 249.490241 135.515676 
L 249.513856 134.208 
L 249.717528 134.208 
L 249.717528 133.772108 
L 250.095356 133.772108 
L 250.095356 133.336216 
L 250.219331 133.336216 
L 250.219331 132.900324 
L 250.552882 132.900324 
L 250.552882 132.464432 
L 250.694568 132.464432 
L 250.694568 132.028541 
L 250.96318 132.028541 
L 250.96318 131.592649 
L 251.273117 131.592649 
L 251.273117 131.156757 
L 251.583054 131.156757 
L 251.583054 130.720865 
L 251.704077 130.720865 
L 251.704077 130.284973 
L 252.427263 130.284973 
L 252.427263 129.849081 
L 252.627984 129.849081 
L 252.627984 129.413189 
L 253.165208 129.413189 
L 253.165208 128.977297 
L 253.68177 128.977297 
L 253.68177 128.541405 
L 253.906105 128.541405 
L 253.906105 128.105514 
L 254.632243 128.105514 
L 254.697182 127.23373 
L 255.352478 127.23373 
L 255.352478 126.797838 
L 255.742113 126.797838 
L 255.742113 126.361946 
L 256.084519 126.361946 
L 256.084519 125.926054 
L 256.769332 125.926054 
L 256.843127 125.05427 
L 257.57812 125.05427 
L 257.57812 124.618378 
L 257.802456 124.618378 
L 257.802456 124.182486 
L 258.321969 124.182486 
L 258.321969 123.746595 
L 258.835579 123.746595 
L 258.835579 123.310703 
L 259.062866 123.310703 
L 259.062866 122.874811 
L 259.81557 122.874811 
L 259.81557 122.438919 
L 260.550563 122.438919 
L 260.550563 122.003027 
L 261.300316 122.003027 
L 261.300316 121.567135 
L 262.044164 121.567135 
L 262.044164 121.131243 
L 262.764399 121.131243 
L 262.764399 120.695351 
L 263.499392 120.695351 
L 263.499392 120.259459 
L 264.255048 120.259459 
L 264.255048 119.823568 
L 264.975283 119.823568 
L 264.975283 119.387676 
L 265.713228 119.387676 
L 265.713228 118.951784 
L 266.457076 118.951784 
L 266.457076 118.515892 
L 267.19207 118.515892 
L 267.19207 118.08 
L 267.930015 118.08 
L 267.930015 117.644108 
L 268.647298 117.644108 
L 268.647298 117.208216 
L 269.39705 117.208216 
L 269.39705 116.772324 
L 270.123188 116.772324 
L 270.123188 116.336432 
L 270.861133 116.336432 
L 270.861133 115.900541 
L 271.584319 115.900541 
L 271.584319 115.464649 
L 272.316361 115.464649 
L 272.316361 115.028757 
L 273.072017 115.028757 
L 273.072017 114.592865 
L 273.812914 114.592865 
L 273.812914 114.156973 
L 274.553811 114.156973 
L 274.553811 113.721081 
L 275.288804 113.721081 
L 275.288804 113.285189 
L 276.032653 113.285189 
L 276.032653 112.849297 
L 278.97853 112.849297 
L 278.97853 112.413405 
L 279.728282 112.413405 
L 279.728282 111.977514 
L 280.318638 111.977514 
L 280.318638 111.541622 
L 280.463276 111.541622 
L 280.463276 111.10573 
L 280.903091 111.10573 
L 280.903091 110.669838 
L 281.21598 110.669838 
L 281.21598 110.233946 
L 281.487544 110.233946 
L 281.487544 109.798054 
L 281.942118 109.798054 
L 281.942118 109.362162 
L 282.071996 109.362162 
L 282.071996 108.92627 
L 282.653497 108.92627 
L 282.69187 108.054486 
L 283.240901 108.054486 
L 283.240901 107.618595 
L 283.450478 107.618595 
L 283.450478 107.182703 
L 283.837161 107.182703 
L 283.837161 106.746811 
L 284.191375 106.746811 
L 284.191375 106.310919 
L 284.427517 106.310919 
L 284.427517 105.875027 
L 284.914561 105.875027 
L 285.023777 105.003243 
L 285.611181 105.003243 
L 285.643651 104.131459 
L 286.213344 104.131459 
L 286.213344 103.695568 
L 286.402258 103.695568 
L 286.402258 103.259676 
L 286.806652 103.259676 
L 286.806652 102.823784 
L 287.160866 102.823784 
L 287.160866 102.387892 
L 287.402912 102.387892 
L 287.402912 101.952 
L 287.895859 101.952 
L 287.993268 101.080216 
L 288.583624 101.080216 
L 288.633804 100.208432 
L 289.171029 100.208432 
L 289.171029 99.772541 
L 289.377653 99.772541 
L 289.377653 99.336649 
L 290.103791 99.336649 
L 290.103791 98.900757 
L 290.339934 98.900757 
L 290.339934 98.464865 
L 290.844688 98.464865 
L 290.936193 97.593081 
L 291.529501 97.593081 
L 291.59444 96.721297 
L 292.119857 96.721297 
L 292.119857 96.285405 
L 292.719069 96.285405 
L 292.719069 95.849514 
L 293.303521 95.849514 
L 293.303521 95.413622 
L 293.885022 95.413622 
L 293.885022 94.97773 
L 294.481282 94.97773 
L 294.481282 94.541838 
L 295.071638 94.541838 
L 295.071638 94.105946 
L 295.653139 94.105946 
L 295.653139 93.670054 
L 296.243495 93.670054 
L 296.243495 93.234162 
L 296.827947 93.234162 
L 296.827947 92.79827 
L 297.4124 92.79827 
L 297.4124 92.362378 
L 297.999804 92.362378 
L 297.999804 91.926486 
L 298.599016 91.926486 
L 298.599016 91.490595 
L 299.180517 91.490595 
L 299.180517 91.054703 
L 299.759066 91.054703 
L 299.759066 90.618811 
L 300.364181 90.618811 
L 300.364181 90.182919 
L 300.954537 90.182919 
L 300.954537 89.747027 
L 301.527182 89.747027 
L 301.527182 89.311135 
L 302.126394 89.311135 
L 302.126394 88.875243 
L 302.713798 88.875243 
L 302.713798 88.439351 
L 303.307106 88.439351 
L 303.345479 87.567568 
L 303.900414 87.567568 
L 303.900414 87.131676 
L 304.086376 87.131676 
L 304.086376 86.695784 
L 304.49077 86.695784 
L 304.49077 86.259892 
L 304.830225 86.259892 
L 304.830225 85.824 
L 305.08703 85.824 
L 305.08703 85.388108 
L 305.579977 85.388108 
L 305.668531 84.516324 
L 306.261838 84.516324 
L 306.309067 83.644541 
L 306.86105 83.644541 
L 306.86105 83.208649 
L 307.047012 83.208649 
L 307.047012 82.772757 
L 307.439599 82.772757 
L 307.439599 82.336865 
L 307.80562 82.336865 
L 307.80562 81.900973 
L 308.029955 81.900973 
L 308.029955 81.465081 
L 308.528806 81.465081 
L 308.629166 80.593297 
L 309.234282 80.593297 
L 309.278558 79.721514 
L 309.821686 79.721514 
L 309.821686 79.285622 
L 310.0106 79.285622 
L 310.0106 78.84973 
L 310.423849 78.84973 
L 310.423849 78.413838 
L 310.73969 78.413838 
L 310.73969 77.977946 
L 311.002398 77.977946 
L 311.002398 77.542054 
L 311.477635 77.542054 
L 311.477635 77.106162 
L 311.592754 77.106162 
L 311.592754 76.67027 
L 312.180159 76.67027 
L 312.221484 75.798486 
L 312.776418 75.798486 
L 312.776418 75.362595 
L 312.959429 75.362595 
L 312.959429 74.926703 
L 313.360871 74.926703 
L 313.360871 74.490811 
L 313.685567 74.490811 
L 313.685567 74.054919 
L 313.954179 74.054919 
L 313.954179 73.619027 
L 314.42056 73.619027 
L 314.42056 73.183135 
L 314.538631 73.183135 
L 314.538631 72.747243 
L 315.120132 72.747243 
L 315.173264 71.875459 
L 315.722295 71.875459 
L 315.722295 71.439568 
L 315.905306 71.439568 
L 315.905306 71.003676 
L 316.312651 71.003676 
L 316.312651 70.567784 
L 316.911863 70.567784 
L 316.911863 70.131892 
L 317.496316 70.131892 
L 317.496316 69.696 
L 318.080768 69.696 
L 318.080768 69.260108 
L 318.662269 69.260108 
L 318.662269 68.824216 
L 319.258529 68.824216 
L 319.258529 68.388324 
L 319.854788 68.388324 
L 319.854788 67.952432 
L 320.456952 67.952432 
L 320.456952 67.516541 
L 321.053211 67.516541 
L 321.053211 67.080649 
L 321.652423 67.080649 
L 321.652423 66.644757 
L 322.248682 66.644757 
L 322.248682 66.208865 
L 322.844942 66.208865 
L 322.844942 65.772973 
L 323.435298 65.772973 
L 323.435298 65.337081 
L 324.007944 65.337081 
L 324.007944 64.901189 
L 324.601252 64.901189 
L 324.601252 64.465297 
L 325.194559 64.465297 
L 325.194559 64.029405 
L 325.784916 64.029405 
L 325.784916 63.593514 
L 326.360513 63.593514 
L 326.360513 63.157622 
L 326.947917 63.157622 
L 326.947917 62.72173 
L 327.544177 62.72173 
L 327.544177 62.285838 
L 328.140437 62.285838 
L 328.140437 61.849946 
L 328.718986 61.849946 
L 328.718986 61.414054 
L 329.312293 61.414054 
L 329.312293 60.978162 
L 329.884939 60.978162 
L 329.884939 60.54227 
L 330.490054 60.54227 
L 330.490054 60.106378 
L 331.071555 60.106378 
L 331.071555 59.670486 
L 331.67667 59.670486 
L 331.67667 59.234595 
L 332.261122 59.234595 
L 332.261122 58.798703 
L 332.848527 58.798703 
L 332.848527 58.362811 
L 333.435931 58.362811 
L 333.435931 57.926919 
L 334.023335 57.926919 
L 334.023335 57.491027 
L 334.607788 57.491027 
L 334.607788 57.055135 
L 393.315753 57.055135 
L 393.315753 56.619243 
L 394.053698 56.619243 
L 394.053698 56.183351 
L 394.806402 56.183351 
L 394.806402 55.747459 
L 395.547299 55.747459 
L 395.547299 55.311568 
L 396.300003 55.311568 
L 396.300003 54.875676 
L 397.032045 54.875676 
L 397.032045 54.439784 
L 397.758183 54.439784 
L 397.758183 54.003892 
L 398.487273 54.003892 
L 398.487273 53.568 
L 398.487273 53.568 
" clip-path="url(#peec27883c7)" style="fill: none; stroke: #1f77b4; stroke-width: 1.5; stroke-linecap: square"/>
   </g>
   <g id="patch_3">
    <path d="M 57.6 307.584 
L 57.6 41.472 
" style="fill: none; stroke: #000000; stroke-width: 0.8; stroke-linejoin: miter; stroke-linecap: square"/>
   </g>
   <g id="patch_4">
    <path d="M 414.72 307.584 
L 414.72 41.472 
" style="fill: none; stroke: #000000; stroke-width: 0.8; stroke-linejoin: miter; stroke-linecap: square"/>
   </g>
   <g id="patch_5">
    <path d="M 57.6 307.584 
L 414.72 307.584 
" style="fill: none; stroke: #000000; stroke-width: 0.8; stroke-linejoin: miter; stroke-linecap: square"/>
   </g>
   <g id="patch_6">
    <path d="M 57.6 41.472 
L 414.72 41.472 
" style="fill: none; stroke: #000000; stroke-width: 0.8; stroke-linejoin: miter; stroke-linecap: square"/>
   </g>
   <g id="text_14">
    <!-- S1 S15 -->
    <g transform="translate(215.1825 35.472) scale(0.12 -0.12)">
     <defs>
      <path id="DejaVuSans-53" d="M 3425 4513 
L 3425 3897 
Q 3066 4069 2747 4153 
Q 2428 4238 2131 4238 
Q 1616 4238 1336 4038 
Q 1056 3838 1056 3469 
Q 1056 3159 1242 3001 
Q 1428 2844 1947 2747 
L 2328 2669 
Q 3034 2534 3370 2195 
Q 3706 1856 3706 1288 
Q 3706 609 3251 259 
Q 2797 -91 1919 -91 
Q 1588 -91 1214 -16 
Q 841 59 441 206 
L 441 856 
Q 825 641 1194 531 
Q 1563 422 1919 422 
Q 2459 422 2753 634 
Q 3047 847 3047 1241 
Q 3047 1584 2836 1778 
Q 2625 1972 2144 2069 
L 1759 2144 
Q 1053 2284 737 2584 
Q 422 2884 422 3419 
Q 422 4038 858 4394 
Q 1294 4750 2059 4750 
Q 2388 4750 2728 4690 
Q 3069 4631 3425 4513 
z
" transform="scale(0.015625)"/>
      <path id="DejaVuSans-20" transform="scale(0.015625)"/>
      <path id="DejaVuSans-35" d="M 691 4666 
L 3169 4666 
L 3169 4134 
L 1269 4134 
L 1269 2991 
Q 1406 3038 1543 3061 
Q 1681 3084 1819 3084 
Q 2600 3084 3056 2656 
Q 3513 2228 3513 1497 
Q 3513 744 3044 326 
Q 2575 -91 1722 -91 
Q 1428 -91 1123 -41 
Q 819 9 494 109 
L 494 744 
Q 775 591 1075 516 
Q 1375 441 1709 441 
Q 2250 441 2565 725 
Q 2881 1009 2881 1497 
Q 2881 1984 2565 2268 
Q 2250 2553 1709 2553 
Q 1456 2553 1204 2497 
Q 953 2441 691 2322 
L 691 4666 
z
" transform="scale(0.015625)"/>
     </defs>
     <use xlink:href="#DejaVuSans-53"/>
     <use xlink:href="#DejaVuSans-31" x="63.476562"/>
     <use xlink:href="#DejaVuSans-20" x="127.099609"/>
     <use xlink:href="#DejaVuSans-53" x="158.886719"/>
     <use xlink:href="#DejaVuSans-31" x="222.363281"/>
     <use xlink:href="#DejaVuSans-35" x="285.986328"/>
    </g>
   </g>
   <g id="legend_1">
    <g id="patch_7">
     <path d="M 295.679062 304.584 
L 410.52 304.584 
Q 411.72 304.584 411.72 303.384 
L 411.72 295.177125 
Q 411.72 293.977125 410.52 293.977125 
L 295.679062 293.977125 
Q 294.479062 293.977125 294.479062 295.177125 
L 294.479062 303.384 
Q 294.479062 304.584 295.679062 304.584 
z
" style="fill: #ffffff; opacity: 0.8; stroke: #cccccc; stroke-linejoin: miter"/>
    </g>
    <g id="line2d_14">
     <path d="M 296.879062 298.836187 
L 302.879062 298.836187 
L 308.879062 298.836187 
" style="fill: none; stroke: #1f77b4; stroke-width: 1.5; stroke-linecap: square"/>
    </g>
    <g id="text_15">
     <!-- Execution time between S1 S15 -->
     <g transform="translate(313.679062 300.936187) scale(0.06 -0.06)">
      <defs>
       <path id="DejaVuSans-45" d="M 628 4666 
L 3578 4666 
L 3578 4134 
L 1259 4134 
L 1259 2753 
L 3481 2753 
L 3481 2222 
L 1259 2222 
L 1259 531 
L 3634 531 
L 3634 0 
L 628 0 
L 628 4666 
z
" transform="scale(0.015625)"/>
       <path id="DejaVuSans-78" d="M 3513 3500 
L 2247 1797 
L 3578 0 
L 2900 0 
L 1881 1375 
L 863 0 
L 184 0 
L 1544 1831 
L 300 3500 
L 978 3500 
L 1906 2253 
L 2834 3500 
L 3513 3500 
z
" transform="scale(0.015625)"/>
       <path id="DejaVuSans-63" d="M 3122 3366 
L 3122 2828 
Q 2878 2963 2633 3030 
Q 2388 3097 2138 3097 
Q 1578 3097 1268 2742 
Q 959 2388 959 1747 
Q 959 1106 1268 751 
Q 1578 397 2138 397 
Q 2388 397 2633 464 
Q 2878 531 3122 666 
L 3122 134 
Q 2881 22 2623 -34 
Q 2366 -91 2075 -91 
Q 1284 -91 818 406 
Q 353 903 353 1747 
Q 353 2603 823 3093 
Q 1294 3584 2113 3584 
Q 2378 3584 2631 3529 
Q 2884 3475 3122 3366 
z
" transform="scale(0.015625)"/>
       <path id="DejaVuSans-75" d="M 544 1381 
L 544 3500 
L 1119 3500 
L 1119 1403 
Q 1119 906 1312 657 
Q 1506 409 1894 409 
Q 2359 409 2629 706 
Q 2900 1003 2900 1516 
L 2900 3500 
L 3475 3500 
L 3475 0 
L 2900 0 
L 2900 538 
Q 2691 219 2414 64 
Q 2138 -91 1772 -91 
Q 1169 -91 856 284 
Q 544 659 544 1381 
z
M 1991 3584 
L 1991 3584 
z
" transform="scale(0.015625)"/>
       <path id="DejaVuSans-74" d="M 1172 4494 
L 1172 3500 
L 2356 3500 
L 2356 3053 
L 1172 3053 
L 1172 1153 
Q 1172 725 1289 603 
Q 1406 481 1766 481 
L 2356 481 
L 2356 0 
L 1766 0 
Q 1100 0 847 248 
Q 594 497 594 1153 
L 594 3053 
L 172 3053 
L 172 3500 
L 594 3500 
L 594 4494 
L 1172 4494 
z
" transform="scale(0.015625)"/>
       <path id="DejaVuSans-69" d="M 603 3500 
L 1178 3500 
L 1178 0 
L 603 0 
L 603 3500 
z
M 603 4863 
L 1178 4863 
L 1178 4134 
L 603 4134 
L 603 4863 
z
" transform="scale(0.015625)"/>
       <path id="DejaVuSans-6f" d="M 1959 3097 
Q 1497 3097 1228 2736 
Q 959 2375 959 1747 
Q 959 1119 1226 758 
Q 1494 397 1959 397 
Q 2419 397 2687 759 
Q 2956 1122 2956 1747 
Q 2956 2369 2687 2733 
Q 2419 3097 1959 3097 
z
M 1959 3584 
Q 2709 3584 3137 3096 
Q 3566 2609 3566 1747 
Q 3566 888 3137 398 
Q 2709 -91 1959 -91 
Q 1206 -91 779 398 
Q 353 888 353 1747 
Q 353 2609 779 3096 
Q 1206 3584 1959 3584 
z
" transform="scale(0.015625)"/>
       <path id="DejaVuSans-6e" d="M 3513 2113 
L 3513 0 
L 2938 0 
L 2938 2094 
Q 2938 2591 2744 2837 
Q 2550 3084 2163 3084 
Q 1697 3084 1428 2787 
Q 1159 2491 1159 1978 
L 1159 0 
L 581 0 
L 581 3500 
L 1159 3500 
L 1159 2956 
Q 1366 3272 1645 3428 
Q 1925 3584 2291 3584 
Q 2894 3584 3203 3211 
Q 3513 2838 3513 2113 
z
" transform="scale(0.015625)"/>
       <path id="DejaVuSans-6d" d="M 3328 2828 
Q 3544 3216 3844 3400 
Q 4144 3584 4550 3584 
Q 5097 3584 5394 3201 
Q 5691 2819 5691 2113 
L 5691 0 
L 5113 0 
L 5113 2094 
Q 5113 2597 4934 2840 
Q 4756 3084 4391 3084 
Q 3944 3084 3684 2787 
Q 3425 2491 3425 1978 
L 3425 0 
L 2847 0 
L 2847 2094 
Q 2847 2600 2669 2842 
Q 2491 3084 2119 3084 
Q 1678 3084 1418 2786 
Q 1159 2488 1159 1978 
L 1159 0 
L 581 0 
L 581 3500 
L 1159 3500 
L 1159 2956 
Q 1356 3278 1631 3431 
Q 1906 3584 2284 3584 
Q 2666 3584 2933 3390 
Q 3200 3197 3328 2828 
z
" transform="scale(0.015625)"/>
       <path id="DejaVuSans-62" d="M 3116 1747 
Q 3116 2381 2855 2742 
Q 2594 3103 2138 3103 
Q 1681 3103 1420 2742 
Q 1159 2381 1159 1747 
Q 1159 1113 1420 752 
Q 1681 391 2138 391 
Q 2594 391 2855 752 
Q 3116 1113 3116 1747 
z
M 1159 2969 
Q 1341 3281 1617 3432 
Q 1894 3584 2278 3584 
Q 2916 3584 3314 3078 
Q 3713 2572 3713 1747 
Q 3713 922 3314 415 
Q 2916 -91 2278 -91 
Q 1894 -91 1617 61 
Q 1341 213 1159 525 
L 1159 0 
L 581 0 
L 581 4863 
L 1159 4863 
L 1159 2969 
z
" transform="scale(0.015625)"/>
       <path id="DejaVuSans-77" d="M 269 3500 
L 844 3500 
L 1563 769 
L 2278 3500 
L 2956 3500 
L 3675 769 
L 4391 3500 
L 4966 3500 
L 4050 0 
L 3372 0 
L 2619 2869 
L 1863 0 
L 1184 0 
L 269 3500 
z
" transform="scale(0.015625)"/>
      </defs>
      <use xlink:href="#DejaVuSans-45"/>
      <use xlink:href="#DejaVuSans-78" x="63.183594"/>
      <use xlink:href="#DejaVuSans-65" x="119.238281"/>
      <use xlink:href="#DejaVuSans-63" x="180.761719"/>
      <use xlink:href="#DejaVuSans-75" x="235.742188"/>
      <use xlink:href="#DejaVuSans-74" x="299.121094"/>
      <use xlink:href="#DejaVuSans-69" x="338.330078"/>
      <use xlink:href="#DejaVuSans-6f" x="366.113281"/>
      <use xlink:href="#DejaVuSans-6e" x="427.294922"/>
      <use xlink:href="#DejaVuSans-20" x="490.673828"/>
      <use xlink:href="#DejaVuSans-74" x="522.460938"/>
      <use xlink:href="#DejaVuSans-69" x="561.669922"/>
      <use xlink:href="#DejaVuSans-6d" x="589.453125"/>
      <use xlink:href="#DejaVuSans-65" x="686.865234"/>
      <use xlink:href="#DejaVuSans-20" x="748.388672"/>
      <use xlink:href="#DejaVuSans-62" x="780.175781"/>
      <use xlink:href="#DejaVuSans-65" x="843.652344"/>
      <use xlink:href="#DejaVuSans-74" x="905.175781"/>
      <use xlink:href="#DejaVuSans-77" x="944.384766"/>
      <use xlink:href="#DejaVuSans-65" x="1026.171875"/>
      <use xlink:href="#DejaVuSans-65" x="1087.695312"/>
      <use xlink:href="#DejaVuSans-6e" x="1149.21875"/>
      <use xlink:href="#DejaVuSans-20" x="1212.597656"/>
      <use xlink:href="#DejaVuSans-53" x="1244.384766"/>
      <use xlink:href="#DejaVuSans-31" x="1307.861328"/>
      <use xlink:href="#DejaVuSans-20" x="1371.484375"/>
      <use xlink:href="#DejaVuSans-53" x="1403.271484"/>
      <use xlink:href="#DejaVuSans-31" x="1466.748047"/>
      <use xlink:href="#DejaVuSans-35" x="1530.371094"/>
     </g>
    </g>
   </g>
  </g>
 </g>
 <defs>
  <clipPath id="peec27883c7">
   <rect x="57.6" y="41.472" width="357.12" height="266.112"/>
  </clipPath>
 </defs>
</svg>
