<?xml version="1.0" encoding="utf-8" standalone="no"?>
<!DOCTYPE svg PUBLIC "-//W3C//DTD SVG 1.1//EN"
  "http://www.w3.org/Graphics/SVG/1.1/DTD/svg11.dtd">
<svg xmlns:xlink="http://www.w3.org/1999/xlink" width="460.8pt" height="345.6pt" viewBox="0 0 460.8 345.6" xmlns="http://www.w3.org/2000/svg" version="1.1">
 <metadata>
  <rdf:RDF xmlns:dc="http://purl.org/dc/elements/1.1/" xmlns:cc="http://creativecommons.org/ns#" xmlns:rdf="http://www.w3.org/1999/02/22-rdf-syntax-ns#">
   <cc:Work>
    <dc:type rdf:resource="http://purl.org/dc/dcmitype/StillImage"/>
    <dc:date>2024-03-08T12:45:40.035869</dc:date>
    <dc:format>image/svg+xml</dc:format>
    <dc:creator>
     <cc:Agent>
      <dc:title>Matplotlib v3.8.2, https://matplotlib.org/</dc:title>
     </cc:Agent>
    </dc:creator>
   </cc:Work>
  </rdf:RDF>
 </metadata>
 <defs>
  <style type="text/css">*{stroke-linejoin: round; stroke-linecap: butt}</style>
 </defs>
 <g id="figure_1">
  <g id="patch_1">
   <path d="M 0 345.6 
L 460.8 345.6 
L 460.8 0 
L 0 0 
z
" style="fill: #ffffff"/>
  </g>
  <g id="axes_1">
   <g id="patch_2">
    <path d="M 57.6 307.584 
L 414.72 307.584 
L 414.72 41.472 
L 57.6 41.472 
z
" style="fill: #ffffff"/>
   </g>
   <g id="matplotlib.axis_1">
    <g id="xtick_1">
     <g id="line2d_1">
      <defs>
       <path id="me9724f00d9" d="M 0 0 
L 0 3.5 
" style="stroke: #000000; stroke-width: 0.8"/>
      </defs>
      <g>
       <use xlink:href="#me9724f00d9" x="73.817154" y="307.584" style="stroke: #000000; stroke-width: 0.8"/>
      </g>
     </g>
     <g id="text_1">
      <!-- 0.0 -->
      <g transform="translate(65.865592 322.182437) scale(0.1 -0.1)">
       <defs>
        <path id="DejaVuSans-30" d="M 2034 4250 
Q 1547 4250 1301 3770 
Q 1056 3291 1056 2328 
Q 1056 1369 1301 889 
Q 1547 409 2034 409 
Q 2525 409 2770 889 
Q 3016 1369 3016 2328 
Q 3016 3291 2770 3770 
Q 2525 4250 2034 4250 
z
M 2034 4750 
Q 2819 4750 3233 4129 
Q 3647 3509 3647 2328 
Q 3647 1150 3233 529 
Q 2819 -91 2034 -91 
Q 1250 -91 836 529 
Q 422 1150 422 2328 
Q 422 3509 836 4129 
Q 1250 4750 2034 4750 
z
" transform="scale(0.015625)"/>
        <path id="DejaVuSans-2e" d="M 684 794 
L 1344 794 
L 1344 0 
L 684 0 
L 684 794 
z
" transform="scale(0.015625)"/>
       </defs>
       <use xlink:href="#DejaVuSans-30"/>
       <use xlink:href="#DejaVuSans-2e" x="63.623047"/>
       <use xlink:href="#DejaVuSans-30" x="95.410156"/>
      </g>
     </g>
    </g>
    <g id="xtick_2">
     <g id="line2d_2">
      <g>
       <use xlink:href="#me9724f00d9" x="119.62069" y="307.584" style="stroke: #000000; stroke-width: 0.8"/>
      </g>
     </g>
     <g id="text_2">
      <!-- 0.5 -->
      <g transform="translate(111.669127 322.182437) scale(0.1 -0.1)">
       <defs>
        <path id="DejaVuSans-35" d="M 691 4666 
L 3169 4666 
L 3169 4134 
L 1269 4134 
L 1269 2991 
Q 1406 3038 1543 3061 
Q 1681 3084 1819 3084 
Q 2600 3084 3056 2656 
Q 3513 2228 3513 1497 
Q 3513 744 3044 326 
Q 2575 -91 1722 -91 
Q 1428 -91 1123 -41 
Q 819 9 494 109 
L 494 744 
Q 775 591 1075 516 
Q 1375 441 1709 441 
Q 2250 441 2565 725 
Q 2881 1009 2881 1497 
Q 2881 1984 2565 2268 
Q 2250 2553 1709 2553 
Q 1456 2553 1204 2497 
Q 953 2441 691 2322 
L 691 4666 
z
" transform="scale(0.015625)"/>
       </defs>
       <use xlink:href="#DejaVuSans-30"/>
       <use xlink:href="#DejaVuSans-2e" x="63.623047"/>
       <use xlink:href="#DejaVuSans-35" x="95.410156"/>
      </g>
     </g>
    </g>
    <g id="xtick_3">
     <g id="line2d_3">
      <g>
       <use xlink:href="#me9724f00d9" x="165.424226" y="307.584" style="stroke: #000000; stroke-width: 0.8"/>
      </g>
     </g>
     <g id="text_3">
      <!-- 1.0 -->
      <g transform="translate(157.472663 322.182437) scale(0.1 -0.1)">
       <defs>
        <path id="DejaVuSans-31" d="M 794 531 
L 1825 531 
L 1825 4091 
L 703 3866 
L 703 4441 
L 1819 4666 
L 2450 4666 
L 2450 531 
L 3481 531 
L 3481 0 
L 794 0 
L 794 531 
z
" transform="scale(0.015625)"/>
       </defs>
       <use xlink:href="#DejaVuSans-31"/>
       <use xlink:href="#DejaVuSans-2e" x="63.623047"/>
       <use xlink:href="#DejaVuSans-30" x="95.410156"/>
      </g>
     </g>
    </g>
    <g id="xtick_4">
     <g id="line2d_4">
      <g>
       <use xlink:href="#me9724f00d9" x="211.227761" y="307.584" style="stroke: #000000; stroke-width: 0.8"/>
      </g>
     </g>
     <g id="text_4">
      <!-- 1.5 -->
      <g transform="translate(203.276199 322.182437) scale(0.1 -0.1)">
       <use xlink:href="#DejaVuSans-31"/>
       <use xlink:href="#DejaVuSans-2e" x="63.623047"/>
       <use xlink:href="#DejaVuSans-35" x="95.410156"/>
      </g>
     </g>
    </g>
    <g id="xtick_5">
     <g id="line2d_5">
      <g>
       <use xlink:href="#me9724f00d9" x="257.031297" y="307.584" style="stroke: #000000; stroke-width: 0.8"/>
      </g>
     </g>
     <g id="text_5">
      <!-- 2.0 -->
      <g transform="translate(249.079735 322.182437) scale(0.1 -0.1)">
       <defs>
        <path id="DejaVuSans-32" d="M 1228 531 
L 3431 531 
L 3431 0 
L 469 0 
L 469 531 
Q 828 903 1448 1529 
Q 2069 2156 2228 2338 
Q 2531 2678 2651 2914 
Q 2772 3150 2772 3378 
Q 2772 3750 2511 3984 
Q 2250 4219 1831 4219 
Q 1534 4219 1204 4116 
Q 875 4013 500 3803 
L 500 4441 
Q 881 4594 1212 4672 
Q 1544 4750 1819 4750 
Q 2544 4750 2975 4387 
Q 3406 4025 3406 3419 
Q 3406 3131 3298 2873 
Q 3191 2616 2906 2266 
Q 2828 2175 2409 1742 
Q 1991 1309 1228 531 
z
" transform="scale(0.015625)"/>
       </defs>
       <use xlink:href="#DejaVuSans-32"/>
       <use xlink:href="#DejaVuSans-2e" x="63.623047"/>
       <use xlink:href="#DejaVuSans-30" x="95.410156"/>
      </g>
     </g>
    </g>
    <g id="xtick_6">
     <g id="line2d_6">
      <g>
       <use xlink:href="#me9724f00d9" x="302.834833" y="307.584" style="stroke: #000000; stroke-width: 0.8"/>
      </g>
     </g>
     <g id="text_6">
      <!-- 2.5 -->
      <g transform="translate(294.88327 322.182437) scale(0.1 -0.1)">
       <use xlink:href="#DejaVuSans-32"/>
       <use xlink:href="#DejaVuSans-2e" x="63.623047"/>
       <use xlink:href="#DejaVuSans-35" x="95.410156"/>
      </g>
     </g>
    </g>
    <g id="xtick_7">
     <g id="line2d_7">
      <g>
       <use xlink:href="#me9724f00d9" x="348.638369" y="307.584" style="stroke: #000000; stroke-width: 0.8"/>
      </g>
     </g>
     <g id="text_7">
      <!-- 3.0 -->
      <g transform="translate(340.686806 322.182437) scale(0.1 -0.1)">
       <defs>
        <path id="DejaVuSans-33" d="M 2597 2516 
Q 3050 2419 3304 2112 
Q 3559 1806 3559 1356 
Q 3559 666 3084 287 
Q 2609 -91 1734 -91 
Q 1441 -91 1130 -33 
Q 819 25 488 141 
L 488 750 
Q 750 597 1062 519 
Q 1375 441 1716 441 
Q 2309 441 2620 675 
Q 2931 909 2931 1356 
Q 2931 1769 2642 2001 
Q 2353 2234 1838 2234 
L 1294 2234 
L 1294 2753 
L 1863 2753 
Q 2328 2753 2575 2939 
Q 2822 3125 2822 3475 
Q 2822 3834 2567 4026 
Q 2313 4219 1838 4219 
Q 1578 4219 1281 4162 
Q 984 4106 628 3988 
L 628 4550 
Q 988 4650 1302 4700 
Q 1616 4750 1894 4750 
Q 2613 4750 3031 4423 
Q 3450 4097 3450 3541 
Q 3450 3153 3228 2886 
Q 3006 2619 2597 2516 
z
" transform="scale(0.015625)"/>
       </defs>
       <use xlink:href="#DejaVuSans-33"/>
       <use xlink:href="#DejaVuSans-2e" x="63.623047"/>
       <use xlink:href="#DejaVuSans-30" x="95.410156"/>
      </g>
     </g>
    </g>
    <g id="xtick_8">
     <g id="line2d_8">
      <g>
       <use xlink:href="#me9724f00d9" x="394.441904" y="307.584" style="stroke: #000000; stroke-width: 0.8"/>
      </g>
     </g>
     <g id="text_8">
      <!-- 3.5 -->
      <g transform="translate(386.490342 322.182437) scale(0.1 -0.1)">
       <use xlink:href="#DejaVuSans-33"/>
       <use xlink:href="#DejaVuSans-2e" x="63.623047"/>
       <use xlink:href="#DejaVuSans-35" x="95.410156"/>
      </g>
     </g>
    </g>
    <g id="text_9">
     <!-- 1e6 -->
     <g transform="translate(395.841875 334.860562) scale(0.1 -0.1)">
      <defs>
       <path id="DejaVuSans-65" d="M 3597 1894 
L 3597 1613 
L 953 1613 
Q 991 1019 1311 708 
Q 1631 397 2203 397 
Q 2534 397 2845 478 
Q 3156 559 3463 722 
L 3463 178 
Q 3153 47 2828 -22 
Q 2503 -91 2169 -91 
Q 1331 -91 842 396 
Q 353 884 353 1716 
Q 353 2575 817 3079 
Q 1281 3584 2069 3584 
Q 2775 3584 3186 3129 
Q 3597 2675 3597 1894 
z
M 3022 2063 
Q 3016 2534 2758 2815 
Q 2500 3097 2075 3097 
Q 1594 3097 1305 2825 
Q 1016 2553 972 2059 
L 3022 2063 
z
" transform="scale(0.015625)"/>
       <path id="DejaVuSans-36" d="M 2113 2584 
Q 1688 2584 1439 2293 
Q 1191 2003 1191 1497 
Q 1191 994 1439 701 
Q 1688 409 2113 409 
Q 2538 409 2786 701 
Q 3034 994 3034 1497 
Q 3034 2003 2786 2293 
Q 2538 2584 2113 2584 
z
M 3366 4563 
L 3366 3988 
Q 3128 4100 2886 4159 
Q 2644 4219 2406 4219 
Q 1781 4219 1451 3797 
Q 1122 3375 1075 2522 
Q 1259 2794 1537 2939 
Q 1816 3084 2150 3084 
Q 2853 3084 3261 2657 
Q 3669 2231 3669 1497 
Q 3669 778 3244 343 
Q 2819 -91 2113 -91 
Q 1303 -91 875 529 
Q 447 1150 447 2328 
Q 447 3434 972 4092 
Q 1497 4750 2381 4750 
Q 2619 4750 2861 4703 
Q 3103 4656 3366 4563 
z
" transform="scale(0.015625)"/>
      </defs>
      <use xlink:href="#DejaVuSans-31"/>
      <use xlink:href="#DejaVuSans-65" x="63.623047"/>
      <use xlink:href="#DejaVuSans-36" x="125.146484"/>
     </g>
    </g>
   </g>
   <g id="matplotlib.axis_2">
    <g id="ytick_1">
     <g id="line2d_9">
      <defs>
       <path id="ma3bcddc2fb" d="M 0 0 
L -3.5 0 
" style="stroke: #000000; stroke-width: 0.8"/>
      </defs>
      <g>
       <use xlink:href="#ma3bcddc2fb" x="57.6" y="295.488" style="stroke: #000000; stroke-width: 0.8"/>
      </g>
     </g>
     <g id="text_10">
      <!-- 0 -->
      <g transform="translate(44.2375 299.287219) scale(0.1 -0.1)">
       <use xlink:href="#DejaVuSans-30"/>
      </g>
     </g>
    </g>
    <g id="ytick_2">
     <g id="line2d_10">
      <g>
       <use xlink:href="#ma3bcddc2fb" x="57.6" y="240.506182" style="stroke: #000000; stroke-width: 0.8"/>
      </g>
     </g>
     <g id="text_11">
      <!-- 5 -->
      <g transform="translate(44.2375 244.305401) scale(0.1 -0.1)">
       <use xlink:href="#DejaVuSans-35"/>
      </g>
     </g>
    </g>
    <g id="ytick_3">
     <g id="line2d_11">
      <g>
       <use xlink:href="#ma3bcddc2fb" x="57.6" y="185.524364" style="stroke: #000000; stroke-width: 0.8"/>
      </g>
     </g>
     <g id="text_12">
      <!-- 10 -->
      <g transform="translate(37.875 189.323582) scale(0.1 -0.1)">
       <use xlink:href="#DejaVuSans-31"/>
       <use xlink:href="#DejaVuSans-30" x="63.623047"/>
      </g>
     </g>
    </g>
    <g id="ytick_4">
     <g id="line2d_12">
      <g>
       <use xlink:href="#ma3bcddc2fb" x="57.6" y="130.542545" style="stroke: #000000; stroke-width: 0.8"/>
      </g>
     </g>
     <g id="text_13">
      <!-- 15 -->
      <g transform="translate(37.875 134.341764) scale(0.1 -0.1)">
       <use xlink:href="#DejaVuSans-31"/>
       <use xlink:href="#DejaVuSans-35" x="63.623047"/>
      </g>
     </g>
    </g>
    <g id="ytick_5">
     <g id="line2d_13">
      <g>
       <use xlink:href="#ma3bcddc2fb" x="57.6" y="75.560727" style="stroke: #000000; stroke-width: 0.8"/>
      </g>
     </g>
     <g id="text_14">
      <!-- 20 -->
      <g transform="translate(37.875 79.359946) scale(0.1 -0.1)">
       <use xlink:href="#DejaVuSans-32"/>
       <use xlink:href="#DejaVuSans-30" x="63.623047"/>
      </g>
     </g>
    </g>
   </g>
   <g id="line2d_14">
    <path d="M 73.832727 284.491636 
L 74.107548 295.488 
L 74.153352 284.491636 
L 74.427257 295.488 
L 74.472145 284.491636 
L 74.74605 295.488 
L 74.791853 284.491636 
L 75.065758 295.488 
L 75.117058 284.491636 
L 75.39188 295.488 
L 75.436767 284.491636 
L 75.711588 295.488 
L 75.75556 284.491636 
L 76.029465 295.488 
L 76.073436 284.491636 
L 76.348257 295.488 
L 76.398641 284.491636 
L 76.673463 295.488 
L 76.722014 284.491636 
L 76.996836 295.488 
L 77.042639 284.491636 
L 77.31746 295.488 
L 77.36418 284.491636 
L 77.639001 295.488 
L 77.688469 284.491636 
L 77.962374 295.488 
L 78.011842 284.491636 
L 78.286663 295.488 
L 78.337047 284.491636 
L 78.611868 295.488 
L 78.653091 284.491636 
L 78.926997 295.488 
L 78.97738 284.491636 
L 79.251286 295.488 
L 79.300753 284.491636 
L 82.199201 185.524364 
L 84.816415 196.520727 
L 85.067419 295.488 
L 85.071083 284.491636 
L 85.345904 295.488 
L 85.384379 284.491636 
L 85.658284 295.488 
L 85.705004 284.491636 
L 85.978909 295.488 
L 86.021048 284.491636 
L 86.295869 295.488 
L 86.344421 284.491636 
L 86.618326 295.488 
L 86.663214 284.491636 
L 86.938035 295.488 
L 86.983838 284.491636 
L 87.25866 295.488 
L 87.309044 284.491636 
L 87.582949 295.488 
L 87.624172 284.491636 
L 87.898993 295.488 
L 87.944797 284.491636 
L 88.219618 295.488 
L 88.259009 284.491636 
L 88.532914 295.488 
L 88.576885 284.491636 
L 88.851707 295.488 
L 88.902091 284.491636 
L 89.176912 295.488 
L 89.218135 284.491636 
L 89.49204 295.488 
L 89.533263 284.491636 
L 89.808084 295.488 
L 89.858468 284.491636 
L 90.13329 295.488 
L 90.182757 284.491636 
L 90.457579 295.488 
L 90.507963 284.491636 
L 90.782784 295.488 
L 90.821259 284.491636 
L 91.095164 295.488 
L 91.149212 284.491636 
L 91.423117 295.488 
L 91.468005 284.491636 
L 91.742826 295.488 
L 91.795958 284.491636 
L 92.070779 295.488 
L 92.114751 284.491636 
L 92.389572 295.488 
L 92.431711 284.491636 
L 92.705616 295.488 
L 92.746839 284.491636 
L 93.021661 295.488 
L 93.065632 284.491636 
L 93.340453 295.488 
L 93.385341 284.491636 
L 93.660162 295.488 
L 93.700469 284.491636 
L 93.97529 295.488 
L 94.020178 284.491636 
L 94.294999 295.488 
L 94.343551 284.491636 
L 94.618372 295.488 
L 94.666924 284.491636 
L 94.941745 295.488 
L 94.9848 284.491636 
L 95.259621 295.488 
L 95.304509 284.491636 
L 95.578414 295.488 
L 95.624217 284.491636 
L 95.898123 295.488 
L 95.94759 284.491636 
L 96.221496 295.488 
L 96.265467 284.491636 
L 96.539372 295.488 
L 96.587924 284.491636 
L 96.862745 295.488 
L 96.912213 284.491636 
L 97.187034 295.488 
L 97.227341 284.491636 
L 97.502162 295.488 
L 97.545218 284.491636 
L 97.820039 295.488 
L 97.864926 284.491636 
L 98.139748 295.488 
L 98.178223 284.491636 
L 98.453044 295.488 
L 98.50526 284.491636 
L 98.780081 295.488 
L 98.818556 284.491636 
L 99.092461 295.488 
L 99.145593 284.491636 
L 99.420414 295.488 
L 99.473547 284.491636 
L 99.747452 295.488 
L 99.798752 284.491636 
L 100.073573 295.488 
L 100.124873 284.491636 
L 100.399694 295.488 
L 100.443665 284.491636 
L 100.718487 295.488 
L 100.76429 284.491636 
L 101.039111 295.488 
L 101.089495 284.491636 
L 101.364317 295.488 
L 101.411952 284.491636 
L 101.686773 295.488 
L 101.730745 284.491636 
L 102.005566 295.488 
L 102.045873 284.491636 
L 102.320694 295.488 
L 102.365582 284.491636 
L 102.639487 295.488 
L 102.686207 284.491636 
L 102.961028 295.488 
L 103.004999 284.491636 
L 103.27982 295.488 
L 103.32654 284.491636 
L 103.601361 295.488 
L 103.647165 284.491636 
L 103.92107 295.488 
L 103.968706 284.491636 
L 104.243527 295.488 
L 104.28933 284.491636 
L 104.564152 295.488 
L 104.613619 284.491636 
L 104.887525 295.488 
L 104.933328 284.491636 
L 105.208149 295.488 
L 105.248456 284.491636 
L 105.522362 295.488 
L 105.570913 284.491636 
L 105.845734 295.488 
L 105.89337 284.491636 
L 106.167275 295.488 
L 106.211247 284.491636 
L 106.486068 295.488 
L 106.523627 284.491636 
L 106.798448 295.488 
L 106.847 284.491636 
L 107.121821 295.488 
L 107.16396 284.491636 
L 107.437865 295.488 
L 107.483669 284.491636 
L 107.75849 295.488 
L 107.807958 284.491636 
L 108.081863 295.488 
L 108.126751 284.491636 
L 108.401572 295.488 
L 108.450124 284.491636 
L 108.724945 295.488 
L 108.767084 284.491636 
L 109.041905 295.488 
L 109.084044 284.491636 
L 109.35795 295.488 
L 109.399173 284.491636 
L 109.673994 295.488 
L 109.718881 284.491636 
L 109.993703 295.488 
L 110.036758 284.491636 
L 110.311579 295.488 
L 110.356467 284.491636 
L 110.631288 295.488 
L 110.67984 284.491636 
L 110.953745 295.488 
L 112.459765 284.491636 
L 112.688783 273.495273 
L 112.73367 284.491636 
L 112.911388 273.495273 
L 112.963604 284.491636 
L 113.138573 273.495273 
L 113.186209 284.491636 
L 113.365759 273.495273 
L 113.413395 284.491636 
L 113.596609 273.495273 
L 113.64058 284.491636 
L 113.827459 273.495273 
L 113.870514 284.491636 
L 114.053728 273.495273 
L 114.101364 284.491636 
L 114.284578 273.495273 
L 114.328549 284.491636 
L 114.511763 273.495273 
L 114.559399 284.491636 
L 114.740781 273.495273 
L 114.786585 284.491636 
L 114.971631 273.495273 
L 115.014686 284.491636 
L 115.199733 273.495273 
L 115.245536 284.491636 
L 115.435163 273.495273 
L 115.474554 284.491636 
L 115.66418 273.495273 
L 115.709068 284.491636 
L 115.893198 273.495273 
L 115.939002 284.491636 
L 116.122216 273.495273 
L 116.168019 284.491636 
L 116.345737 273.495273 
L 116.396121 284.491636 
L 116.578419 273.495273 
L 116.620558 284.491636 
L 116.803772 273.495273 
L 116.852324 284.491636 
L 117.039203 273.495273 
L 117.078594 284.491636 
L 117.267304 273.495273 
L 117.314024 284.491636 
L 117.497238 273.495273 
L 117.542125 284.491636 
L 117.727172 273.495273 
L 117.771143 284.491636 
L 117.953441 273.495273 
L 118.001077 284.491636 
L 118.184291 273.495273 
L 118.227346 284.491636 
L 118.416057 273.495273 
L 118.458196 284.491636 
L 118.645991 273.495273 
L 118.690878 284.491636 
L 118.873176 273.495273 
L 118.920812 284.491636 
L 119.099446 273.495273 
L 119.147997 284.491636 
L 119.324799 273.495273 
L 119.374267 284.491636 
L 119.554733 273.495273 
L 119.59962 284.491636 
L 119.786499 273.495273 
L 119.829554 284.491636 
L 120.0146 273.495273 
L 120.06132 284.491636 
L 120.243618 273.495273 
L 120.288505 284.491636 
L 120.477216 273.495273 
L 120.518439 284.491636 
L 120.705318 273.495273 
L 120.752037 284.491636 
L 120.938 273.495273 
L 120.980139 284.491636 
L 121.167017 273.495273 
L 121.212821 284.491636 
L 121.397867 273.495273 
L 121.440922 284.491636 
L 121.625969 273.495273 
L 121.671772 284.491636 
L 121.852238 273.495273 
L 121.899874 284.491636 
L 122.083088 273.495273 
L 122.126143 284.491636 
L 122.308441 273.495273 
L 122.357909 284.491636 
L 122.540207 273.495273 
L 122.583263 284.491636 
L 122.772889 273.495273 
L 122.815028 284.491636 
L 122.998243 273.495273 
L 123.04771 284.491636 
L 123.228176 273.495273 
L 123.273064 284.491636 
L 123.456278 273.495273 
L 123.502998 284.491636 
L 123.688044 273.495273 
L 123.731099 284.491636 
L 123.920726 273.495273 
L 123.962865 284.491636 
L 124.151576 273.495273 
L 124.195547 284.491636 
L 124.836796 251.502545 
L 128.031135 97.553455 
L 128.785977 108.549818 
L 129.02324 284.491636 
L 129.165231 273.495273 
L 129.212866 284.491636 
L 129.398829 273.495273 
L 129.440052 284.491636 
L 129.631511 273.495273 
L 129.67365 284.491636 
L 129.855948 273.495273 
L 129.906332 284.491636 
L 130.08405 273.495273 
L 130.129853 284.491636 
L 130.313983 273.495273 
L 130.358871 284.491636 
L 130.543917 273.495273 
L 130.588805 284.491636 
L 130.771103 273.495273 
L 130.818738 284.491636 
L 131.002868 273.495273 
L 131.045924 284.491636 
L 131.233718 273.495273 
L 131.27769 284.491636 
L 131.462736 273.495273 
L 131.507623 284.491636 
L 131.690838 273.495273 
L 131.737557 284.491636 
L 131.919855 273.495273 
L 131.965659 284.491636 
L 132.143377 273.495273 
L 132.194676 284.491636 
L 132.36873 273.495273 
L 132.418198 284.491636 
L 132.600496 273.495273 
L 132.643551 284.491636 
L 132.834094 273.495273 
L 132.875317 284.491636 
L 133.060363 273.495273 
L 133.108915 284.491636 
L 133.292129 273.495273 
L 133.335185 284.491636 
L 133.521147 273.495273 
L 133.566034 284.491636 
L 133.755661 273.495273 
L 133.795052 284.491636 
L 133.986511 273.495273 
L 134.030482 284.491636 
L 134.216445 273.495273 
L 134.261332 284.491636 
L 134.446378 273.495273 
L 134.491266 284.491636 
L 134.67906 273.495273 
L 134.720283 284.491636 
L 134.907162 273.495273 
L 134.952965 284.491636 
L 135.132515 273.495273 
L 135.181983 284.491636 
L 135.356037 273.495273 
L 135.407336 284.491636 
L 135.58139 273.495273 
L 135.630858 284.491636 
L 135.813156 273.495273 
L 135.856211 284.491636 
L 136.038509 273.495273 
L 136.087977 284.491636 
L 136.268443 273.495273 
L 136.31333 284.491636 
L 136.494712 273.495273 
L 136.542348 284.491636 
L 136.727394 273.495273 
L 136.769534 284.491636 
L 136.95916 273.495273 
L 137.002216 284.491636 
L 137.188178 273.495273 
L 137.233981 284.491636 
L 137.422692 273.495273 
L 137.462999 284.491636 
L 137.652626 273.495273 
L 137.696597 284.491636 
L 137.880727 273.495273 
L 137.927447 284.491636 
L 138.106081 273.495273 
L 138.155549 284.491636 
L 138.33235 273.495273 
L 138.380902 284.491636 
L 138.560452 273.495273 
L 138.606255 284.491636 
L 138.788553 273.495273 
L 138.835273 284.491636 
L 139.017571 273.495273 
L 139.062459 284.491636 
L 139.244757 273.495273 
L 139.291476 284.491636 
L 139.473774 273.495273 
L 139.519578 284.491636 
L 139.706456 273.495273 
L 139.74768 284.491636 
L 139.93181 273.495273 
L 139.981278 284.491636 
L 140.165408 273.495273 
L 140.206631 284.491636 
L 140.396258 273.495273 
L 140.440229 284.491636 
L 140.624359 273.495273 
L 140.670163 284.491636 
L 140.851545 273.495273 
L 140.89918 284.491636 
L 141.084227 273.495273 
L 141.12545 284.491636 
L 141.317825 273.495273 
L 141.359048 284.491636 
L 141.551423 273.495273 
L 141.592646 284.491636 
L 141.779524 273.495273 
L 141.825328 284.491636 
L 142.014038 273.495273 
L 142.054346 284.491636 
L 142.239392 273.495273 
L 142.28886 284.491636 
L 142.46841 273.495273 
L 142.514213 284.491636 
L 142.698343 273.495273 
L 142.743231 284.491636 
L 142.921865 273.495273 
L 142.973165 284.491636 
L 143.152714 273.495273 
L 143.196686 284.491636 
L 143.382648 273.495273 
L 143.427536 284.491636 
L 143.616246 273.495273 
L 143.657469 284.491636 
L 143.848928 273.495273 
L 143.891067 284.491636 
L 144.074282 273.495273 
L 144.123749 284.491636 
L 144.302383 273.495273 
L 144.349103 284.491636 
L 144.531401 273.495273 
L 144.577204 284.491636 
L 144.758586 273.495273 
L 144.805306 284.491636 
L 144.992184 273.495273 
L 145.033408 284.491636 
L 145.223034 273.495273 
L 145.26609 284.491636 
L 145.451136 273.495273 
L 145.497855 284.491636 
L 145.678321 273.495273 
L 145.725957 284.491636 
L 145.909171 273.495273 
L 145.953143 284.491636 
L 146.138189 273.495273 
L 146.183076 284.491636 
L 146.372703 273.495273 
L 146.41301 284.491636 
L 146.602637 273.495273 
L 146.647524 284.491636 
L 146.830738 273.495273 
L 146.877458 284.491636 
L 147.066168 273.495273 
L 147.10556 284.491636 
L 147.288774 273.495273 
L 147.340074 284.491636 
L 147.514127 273.495273 
L 147.562679 284.491636 
L 147.736732 273.495273 
L 147.788948 284.491636 
L 147.967582 273.495273 
L 148.011553 284.491636 
L 148.203012 273.495273 
L 148.242403 284.491636 
L 148.429282 273.495273 
L 148.476917 284.491636 
L 148.657383 273.495273 
L 148.703187 284.491636 
L 148.890065 273.495273 
L 148.931288 284.491636 
L 149.119999 273.495273 
L 149.164886 284.491636 
L 149.349933 273.495273 
L 149.39482 284.491636 
L 149.582615 273.495273 
L 149.624754 284.491636 
L 149.814381 273.495273 
L 149.857436 284.491636 
L 150.043398 273.495273 
L 150.088286 284.491636 
L 150.272416 273.495273 
L 150.31822 284.491636 
L 150.501434 273.495273 
L 150.547237 284.491636 
L 150.734116 273.495273 
L 150.775339 284.491636 
L 150.965882 273.495273 
L 151.008937 284.491636 
L 151.195815 273.495273 
L 151.240703 284.491636 
L 151.428497 273.495273 
L 151.470636 284.491636 
L 151.662095 273.495273 
L 151.703318 284.491636 
L 151.891113 273.495273 
L 151.936916 284.491636 
L 152.11555 273.495273 
L 152.165018 284.491636 
L 152.343652 273.495273 
L 152.390371 284.491636 
L 152.569005 273.495273 
L 152.617557 284.491636 
L 152.803519 273.495273 
L 152.843826 284.491636 
L 153.033453 273.495273 
L 153.077425 284.491636 
L 153.256058 273.495273 
L 153.308274 284.491636 
L 153.487824 273.495273 
L 153.529963 284.491636 
L 153.716842 273.495273 
L 153.762645 284.491636 
L 153.944943 273.495273 
L 153.990747 284.491636 
L 154.179458 273.495273 
L 154.218849 284.491636 
L 154.405727 273.495273 
L 154.454279 284.491636 
L 154.633829 273.495273 
L 154.680548 284.491636 
L 154.859182 273.495273 
L 154.90865 284.491636 
L 155.090032 273.495273 
L 155.134003 284.491636 
L 155.320882 273.495273 
L 155.363937 284.491636 
L 155.551732 273.495273 
L 155.594787 284.491636 
L 155.784413 273.495273 
L 155.826553 284.491636 
L 156.007935 273.495273 
L 156.059235 284.491636 
L 156.46139 262.498909 
L 156.49162 273.495273 
L 157.37746 229.509818 
L 159.894823 108.549818 
L 161.773684 119.546182 
L 161.998121 284.491636 
L 162.174007 273.495273 
L 162.217062 284.491636 
L 162.406689 273.495273 
L 162.448828 284.491636 
L 162.636622 273.495273 
L 162.680594 284.491636 
L 162.861976 273.495273 
L 162.911444 284.491636 
L 163.092826 273.495273 
L 163.136797 284.491636 
L 163.317263 273.495273 
L 163.366731 284.491636 
L 163.552693 273.495273 
L 163.592084 284.491636 
L 163.783543 273.495273 
L 163.827514 284.491636 
L 164.011645 273.495273 
L 164.058364 284.491636 
L 164.23883 273.495273 
L 164.28555 284.491636 
L 164.464183 273.495273 
L 164.513651 284.491636 
L 164.689537 273.495273 
L 164.738089 284.491636 
L 164.922219 273.495273 
L 164.964358 284.491636 
L 165.148488 273.495273 
L 165.196124 284.491636 
L 165.378422 273.495273 
L 165.422393 284.491636 
L 165.604692 273.495273 
L 165.653243 284.491636 
L 165.829129 273.495273 
L 165.879513 284.491636 
L 166.060895 273.495273 
L 166.103034 284.491636 
L 166.289912 273.495273 
L 166.335716 284.491636 
L 166.519846 273.495273 
L 166.564734 284.491636 
L 166.747948 273.495273 
L 166.793751 284.491636 
L 166.973301 273.495273 
L 167.022769 284.491636 
L 167.204151 273.495273 
L 167.247206 284.491636 
L 167.663102 262.498909 
L 167.689668 273.495273 
L 168.586502 229.509818 
L 171.10936 108.549818 
L 172.766532 119.546182 
L 172.99097 284.491636 
L 173.176932 273.495273 
L 173.2264 284.491636 
L 173.407782 273.495273 
L 173.451753 284.491636 
L 173.637716 273.495273 
L 173.682603 284.491636 
L 173.867649 273.495273 
L 173.912537 284.491636 
L 174.093003 273.495273 
L 174.142471 284.491636 
L 174.322937 273.495273 
L 174.367824 284.491636 
L 174.551954 273.495273 
L 174.597758 284.491636 
L 174.785552 273.495273 
L 174.826775 284.491636 
L 175.020982 273.495273 
L 175.060373 284.491636 
L 175.251832 273.495273 
L 175.295804 284.491636 
L 175.475353 273.495273 
L 175.525737 284.491636 
L 175.699791 273.495273 
L 175.750175 284.491636 
L 175.929725 273.495273 
L 175.974612 284.491636 
L 176.157826 273.495273 
L 176.204546 284.491636 
L 176.38776 273.495273 
L 176.432647 284.491636 
L 176.617694 273.495273 
L 176.662581 284.491636 
L 176.843047 273.495273 
L 176.892515 284.491636 
L 177.072065 273.495273 
L 177.116952 284.491636 
L 177.303831 273.495273 
L 177.34597 284.491636 
L 177.533764 273.495273 
L 177.578652 284.491636 
L 177.767362 273.495273 
L 177.808586 284.491636 
L 177.9918 273.495273 
L 178.042184 284.491636 
L 178.457164 262.498909 
L 178.479149 273.495273 
L 179.826689 207.517091 
L 182.091216 97.553455 
L 183.758465 108.549818 
L 183.996643 284.491636 
L 184.183522 295.488 
L 185.158221 284.491636 
L 185.433042 295.488 
L 185.48251 284.491636 
L 185.756415 295.488 
L 185.801303 284.491636 
L 186.075208 295.488 
L 186.124676 284.491636 
L 186.398581 295.488 
L 186.442552 284.491636 
L 186.717373 295.488 
L 186.765925 284.491636 
L 187.03983 295.488 
L 187.088382 284.491636 
L 187.363203 295.488 
L 187.419083 284.491636 
L 187.693905 295.488 
L 187.743373 284.491636 
L 188.018194 295.488 
L 188.060333 284.491636 
L 188.335154 295.488 
L 188.379126 284.491636 
L 188.653947 295.488 
L 188.696086 284.491636 
L 188.970907 295.488 
L 189.010298 284.491636 
L 189.28512 295.488 
L 189.330923 284.491636 
L 189.605744 295.488 
L 189.646967 284.491636 
L 189.921789 295.488 
L 189.969424 284.491636 
L 190.244246 295.488 
L 190.295546 284.491636 
L 190.570367 295.488 
L 190.60701 284.491636 
L 190.881831 295.488 
L 190.92397 284.491636 
L 191.198791 295.488 
L 191.251923 284.491636 
L 191.526745 295.488 
L 191.5698 284.491636 
L 191.844621 295.488 
L 191.891341 284.491636 
L 192.165246 295.488 
L 192.210133 284.491636 
L 192.484955 295.488 
L 192.533506 284.491636 
L 192.807411 295.488 
L 192.862376 284.491636 
L 193.137197 295.488 
L 193.182084 284.491636 
L 193.456906 295.488 
L 193.501793 284.491636 
L 193.776614 295.488 
L 193.817837 284.491636 
L 194.092659 295.488 
L 194.133882 284.491636 
L 194.408703 295.488 
L 194.461835 284.491636 
L 194.73574 295.488 
L 194.785208 284.491636 
L 195.060029 295.488 
L 195.100336 284.491636 
L 195.375158 295.488 
L 195.421877 284.491636 
L 195.695782 295.488 
L 195.74067 284.491636 
L 196.015491 295.488 
L 196.062211 284.491636 
L 196.336116 295.488 
L 196.387416 284.491636 
L 196.662237 295.488 
L 196.709873 284.491636 
L 196.984694 295.488 
L 197.020421 284.491636 
L 197.295242 295.488 
L 197.341961 284.491636 
L 197.616783 295.488 
L 197.666251 284.491636 
L 197.940156 295.488 
L 197.984127 284.491636 
L 198.258032 295.488 
L 198.310248 284.491636 
L 198.584153 295.488 
L 198.634537 284.491636 
L 198.908442 295.488 
L 198.960658 284.491636 
L 199.234564 295.488 
L 199.278535 284.491636 
L 199.553356 295.488 
L 199.592747 284.491636 
L 199.867568 295.488 
L 199.921617 284.491636 
L 200.196438 295.488 
L 200.245906 284.491636 
L 200.520727 295.488 
L 200.565614 284.491636 
L 200.840436 295.488 
L 200.886239 284.491636 
L 201.160144 295.488 
L 201.213276 284.491636 
L 201.488098 295.488 
L 201.535733 284.491636 
L 201.810554 295.488 
L 201.854526 284.491636 
L 202.129347 295.488 
L 202.178815 284.491636 
L 202.453636 295.488 
L 202.5086 284.491636 
L 202.783422 295.488 
L 202.831057 284.491636 
L 203.104962 295.488 
L 203.144353 284.491636 
L 203.419175 295.488 
L 203.470475 284.491636 
L 203.745296 295.488 
L 203.781939 284.491636 
L 204.05676 295.488 
L 204.101647 284.491636 
L 204.376468 295.488 
L 204.431433 284.491636 
L 204.706254 295.488 
L 204.747477 284.491636 
L 205.021382 295.488 
L 205.067186 284.491636 
L 205.342007 295.488 
L 205.387811 284.491636 
L 205.661716 295.488 
L 205.708435 284.491636 
L 205.983257 295.488 
L 206.025396 284.491636 
L 206.300217 295.488 
L 206.350601 284.491636 
L 206.625422 295.488 
L 206.675806 284.491636 
L 206.950627 295.488 
L 207.001011 284.491636 
L 207.275832 295.488 
L 207.313391 284.491636 
L 207.587296 295.488 
L 207.632184 284.491636 
L 207.907005 295.488 
L 207.958305 284.491636 
L 208.233126 295.488 
L 208.280762 284.491636 
L 208.554667 295.488 
L 208.592226 284.491636 
L 208.866131 295.488 
L 208.907354 284.491636 
L 209.182175 295.488 
L 209.226147 284.491636 
L 209.500052 295.488 
L 209.542191 284.491636 
L 209.817012 295.488 
L 209.858236 284.491636 
L 210.133057 295.488 
L 210.175196 284.491636 
L 210.449101 295.488 
L 210.499485 284.491636 
L 210.774306 295.488 
L 210.818278 284.491636 
L 211.093099 295.488 
L 211.139819 284.491636 
L 211.41464 295.488 
L 211.452199 284.491636 
L 211.72702 295.488 
L 211.781068 284.491636 
L 212.055889 295.488 
L 212.098945 284.491636 
L 212.373766 295.488 
L 212.427814 284.491636 
L 212.701719 295.488 
L 212.747523 284.491636 
L 213.022344 295.488 
L 213.064483 284.491636 
L 213.338388 295.488 
L 213.380528 284.491636 
L 213.655349 295.488 
L 213.706649 284.491636 
L 213.980554 295.488 
L 214.029106 284.491636 
L 214.303011 295.488 
L 214.344234 284.491636 
L 214.618139 295.488 
L 214.660278 284.491636 
L 214.9351 295.488 
L 214.980903 284.491636 
L 215.254808 295.488 
L 215.302444 284.491636 
L 215.576349 295.488 
L 215.614824 284.491636 
L 215.889645 295.488 
L 215.933617 284.491636 
L 216.208438 295.488 
L 216.252409 284.491636 
L 216.526314 295.488 
L 216.57395 284.491636 
L 216.848771 295.488 
L 216.904652 284.491636 
L 217.178557 295.488 
L 217.218864 284.491636 
L 217.493685 295.488 
L 217.544985 284.491636 
L 217.819806 295.488 
L 217.866526 284.491636 
L 218.141347 295.488 
L 218.187151 284.491636 
L 218.461972 295.488 
L 218.514188 284.491636 
L 218.788093 295.488 
L 218.837561 284.491636 
L 219.112382 295.488 
L 219.149025 284.491636 
L 219.423846 295.488 
L 219.47881 284.491636 
L 219.753632 295.488 
L 221.216596 284.491636 
L 221.397978 273.495273 
L 221.491418 284.491636 
L 221.57936 273.495273 
L 221.671884 284.491636 
L 221.761659 273.495273 
L 221.853266 284.491636 
L 221.947621 273.495273 
L 222.03648 284.491636 
L 222.129919 273.495273 
L 222.221526 284.491636 
L 222.311301 273.495273 
L 222.40474 284.491636 
L 222.494515 273.495273 
L 222.585206 284.491636 
L 222.679561 273.495273 
L 222.76842 284.491636 
L 222.865524 273.495273 
L 222.954383 284.491636 
L 223.049654 273.495273 
L 223.140345 284.491636 
L 223.229204 273.495273 
L 223.324475 284.491636 
L 223.41425 273.495273 
L 223.504025 284.491636 
L 223.596548 273.495273 
L 223.689071 284.491636 
L 223.775182 273.495273 
L 223.871369 284.491636 
L 223.95748 273.495273 
L 224.049087 284.491636 
L 224.14161 273.495273 
L 224.231385 284.491636 
L 224.32574 273.495273 
L 224.416431 284.491636 
L 224.510787 273.495273 
L 224.599646 284.491636 
L 224.689421 273.495273 
L 224.784692 284.491636 
L 224.872635 273.495273 
L 224.963326 284.491636 
L 225.055849 273.495273 
L 225.14654 284.491636 
L 225.240895 273.495273 
L 225.329754 284.491636 
L 225.427774 273.495273 
L 225.515716 284.491636 
L 225.605491 273.495273 
L 225.702595 284.491636 
L 225.785957 273.495273 
L 225.879396 284.491636 
L 225.969171 273.495273 
L 226.059862 284.491636 
L 226.146889 273.495273 
L 226.243076 284.491636 
L 226.333767 273.495273 
L 226.420794 284.491636 
L 226.516982 273.495273 
L 226.607673 284.491636 
L 226.700196 273.495273 
L 226.790887 284.491636 
L 226.882494 273.495273 
L 226.975017 284.491636 
L 227.06754 273.495273 
L 227.156399 284.491636 
L 227.252586 273.495273 
L 227.342361 284.491636 
L 227.433052 273.495273 
L 227.526492 284.491636 
L 227.618099 273.495273 
L 227.707874 284.491636 
L 227.803145 273.495273 
L 227.892004 284.491636 
L 227.979947 273.495273 
L 228.07705 284.491636 
L 228.159496 273.495273 
L 228.254768 284.491636 
L 228.343627 273.495273 
L 228.434318 284.491636 
L 228.525009 273.495273 
L 228.617532 284.491636 
L 228.709139 273.495273 
L 228.79983 284.491636 
L 228.887773 273.495273 
L 228.98396 284.491636 
L 229.072819 273.495273 
L 229.162594 284.491636 
L 229.258781 273.495273 
L 229.34764 284.491636 
L 229.442911 273.495273 
L 229.532686 284.491636 
L 229.630706 273.495273 
L 229.717733 284.491636 
L 229.8185 273.495273 
L 229.905527 284.491636 
L 230.002631 273.495273 
L 230.093322 284.491636 
L 230.185845 273.495273 
L 230.277452 284.491636 
L 230.365395 273.495273 
L 230.460666 284.491636 
L 230.552273 273.495273 
L 230.640216 284.491636 
L 230.735487 273.495273 
L 230.827094 284.491636 
L 230.917785 273.495273 
L 231.009392 284.491636 
L 231.104664 273.495273 
L 231.19169 284.491636 
L 231.286962 273.495273 
L 231.378569 284.491636 
L 231.471092 273.495273 
L 231.561783 284.491636 
L 231.649726 273.495273 
L 231.745913 284.491636 
L 231.833856 273.495273 
L 231.924547 284.491636 
L 232.021651 273.495273 
L 232.108677 284.491636 
L 232.207613 273.495273 
L 232.296472 284.491636 
L 232.394491 273.495273 
L 232.482434 284.491636 
L 232.578622 273.495273 
L 232.668396 284.491636 
L 232.7655 273.495273 
L 232.853443 284.491636 
L 232.947798 273.495273 
L 233.040321 284.491636 
L 233.131928 273.495273 
L 233.222619 284.491636 
L 233.311478 273.495273 
L 233.406749 284.491636 
L 233.496524 273.495273 
L 233.586299 284.491636 
L 233.680655 273.495273 
L 233.771346 284.491636 
L 233.867533 273.495273 
L 233.955476 284.491636 
L 234.056244 273.495273 
L 234.142354 284.491636 
L 234.244038 273.495273 
L 234.331065 284.491636 
L 234.426336 273.495273 
L 234.518859 284.491636 
L 234.611382 273.495273 
L 234.701157 284.491636 
L 234.791848 273.495273 
L 234.885288 284.491636 
L 234.972314 273.495273 
L 235.06667 284.491636 
L 235.155528 273.495273 
L 235.247136 284.491636 
L 235.344239 273.495273 
L 235.43035 284.491636 
L 235.525621 273.495273 
L 235.61906 284.491636 
L 235.708835 273.495273 
L 235.800442 284.491636 
L 235.892049 273.495273 
L 235.98274 284.491636 
L 236.077096 273.495273 
L 236.166871 284.491636 
L 236.259394 273.495273 
L 236.351001 284.491636 
L 236.446272 273.495273 
L 236.533299 284.491636 
L 236.633151 273.495273 
L 236.721093 284.491636 
L 236.816365 273.495273 
L 236.907972 284.491636 
L 237.001411 273.495273 
L 237.091186 284.491636 
L 237.184625 273.495273 
L 237.276232 284.491636 
L 237.370587 273.495273 
L 237.459446 284.491636 
L 237.558382 273.495273 
L 237.644493 284.491636 
L 237.741596 273.495273 
L 237.833203 284.491636 
L 237.922062 273.495273 
L 238.016417 284.491636 
L 238.108024 273.495273 
L 238.196883 284.491636 
L 238.293071 273.495273 
L 238.382846 284.491636 
L 238.479949 273.495273 
L 238.567892 284.491636 
L 238.666828 273.495273 
L 238.75477 284.491636 
L 238.850042 273.495273 
L 238.941649 284.491636 
L 239.034172 273.495273 
L 239.123947 284.491636 
L 239.219218 273.495273 
L 239.308993 284.491636 
L 239.402432 273.495273 
L 239.494039 284.491636 
L 239.766112 262.498909 
L 239.840314 273.495273 
L 240.134373 251.502545 
L 243.454213 53.568 
L 249.852967 64.564364 
L 250.15069 284.491636 
L 250.245961 273.495273 
L 250.337568 284.491636 
L 250.431008 273.495273 
L 250.520783 284.491636 
L 250.615138 273.495273 
L 250.705829 284.491636 
L 250.793772 273.495273 
L 250.889959 284.491636 
L 250.976986 273.495273 
L 251.068593 284.491636 
L 251.157452 273.495273 
L 251.250891 284.491636 
L 251.343414 273.495273 
L 251.432273 284.491636 
L 251.524796 273.495273 
L 251.618235 284.491636 
L 251.707094 273.495273 
L 251.799617 284.491636 
L 251.893973 273.495273 
L 251.981915 284.491636 
L 252.073522 273.495273 
L 252.168794 284.491636 
L 252.257653 273.495273 
L 252.348344 284.491636 
L 252.440867 273.495273 
L 252.532474 284.491636 
L 252.627745 273.495273 
L 252.714772 284.491636 
L 252.814624 273.495273 
L 252.902566 284.491636 
L 252.996922 273.495273 
L 253.089445 284.491636 
L 253.178304 273.495273 
L 253.270827 284.491636 
L 253.36335 273.495273 
L 253.453125 284.491636 
L 253.543816 273.495273 
L 253.638171 284.491636 
L 253.728862 273.495273 
L 253.817721 284.491636 
L 253.912992 273.495273 
L 254.002767 284.491636 
L 254.095291 273.495273 
L 254.187814 284.491636 
L 254.27484 273.495273 
L 254.370112 284.491636 
L 254.456222 273.495273 
L 254.549662 284.491636 
L 254.643101 273.495273 
L 254.731044 284.491636 
L 254.829063 273.495273 
L 254.917006 284.491636 
L 255.008613 273.495273 
L 255.103884 284.491636 
L 255.193659 273.495273 
L 255.283434 284.491636 
L 255.374125 273.495273 
L 255.468481 284.491636 
L 255.558255 273.495273 
L 255.648946 284.491636 
L 255.744218 273.495273 
L 255.833077 284.491636 
L 255.928348 273.495273 
L 256.019039 284.491636 
L 256.111562 273.495273 
L 256.202253 284.491636 
L 256.290196 273.495273 
L 256.386383 284.491636 
L 256.474326 273.495273 
L 256.565017 284.491636 
L 256.656624 273.495273 
L 256.748231 284.491636 
L 256.840754 273.495273 
L 256.931445 284.491636 
L 257.025801 273.495273 
L 257.11466 284.491636 
L 257.212679 273.495273 
L 257.299706 284.491636 
L 257.393145 273.495273 
L 257.4875 284.491636 
L 257.574527 273.495273 
L 257.667966 284.491636 
L 257.762322 273.495273 
L 257.848432 284.491636 
L 257.946452 273.495273 
L 258.037143 284.491636 
L 258.13333 273.495273 
L 258.221273 284.491636 
L 258.319293 273.495273 
L 258.408151 284.491636 
L 258.501591 273.495273 
L 258.594114 284.491636 
L 258.683889 273.495273 
L 258.776412 284.491636 
L 258.868019 273.495273 
L 258.957794 284.491636 
L 259.053065 273.495273 
L 259.14284 284.491636 
L 259.231699 273.495273 
L 259.327886 284.491636 
L 259.417661 273.495273 
L 259.50652 284.491636 
L 259.597211 273.495273 
L 259.692483 284.491636 
L 259.780425 273.495273 
L 259.871116 284.491636 
L 259.969136 273.495273 
L 260.055247 284.491636 
L 260.15235 273.495273 
L 260.243041 284.491636 
L 260.330984 273.495273 
L 260.426255 284.491636 
L 260.513282 273.495273 
L 260.605805 284.491636 
L 260.693748 273.495273 
L 260.788103 284.491636 
L 260.873298 273.495273 
L 260.968569 284.491636 
L 261.053764 273.495273 
L 261.147203 284.491636 
L 261.23881 273.495273 
L 261.328585 284.491636 
L 261.423856 273.495273 
L 261.513631 284.491636 
L 261.605238 273.495273 
L 261.698677 284.491636 
L 261.790285 273.495273 
L 261.880059 284.491636 
L 261.974415 273.495273 
L 262.065106 284.491636 
L 262.159461 273.495273 
L 262.249236 284.491636 
L 262.341759 273.495273 
L 262.434282 284.491636 
L 262.523141 273.495273 
L 262.61658 284.491636 
L 262.706355 273.495273 
L 262.797962 284.491636 
L 262.885905 273.495273 
L 262.981176 284.491636 
L 263.070951 273.495273 
L 263.15981 284.491636 
L 263.253249 273.495273 
L 263.345773 284.491636 
L 263.431883 273.495273 
L 263.527155 284.491636 
L 263.61693 273.495273 
L 263.705788 284.491636 
L 263.801976 273.495273 
L 263.890835 284.491636 
L 263.984274 273.495273 
L 264.075881 284.491636 
L 264.170236 273.495273 
L 264.259095 284.491636 
L 264.355283 273.495273 
L 264.445057 284.491636 
L 264.537581 273.495273 
L 264.629188 284.491636 
L 264.722627 273.495273 
L 264.812402 284.491636 
L 264.906757 273.495273 
L 264.997448 284.491636 
L 265.089055 273.495273 
L 265.181578 284.491636 
L 265.272269 273.495273 
L 265.363876 284.491636 
L 265.457316 273.495273 
L 265.546174 284.491636 
L 265.639614 273.495273 
L 265.732137 284.491636 
L 265.827408 273.495273 
L 265.913519 284.491636 
L 266.007874 273.495273 
L 266.102229 284.491636 
L 266.192004 273.495273 
L 266.281779 284.491636 
L 266.374302 273.495273 
L 266.466826 284.491636 
L 266.557517 273.495273 
L 266.649124 284.491636 
L 266.742563 273.495273 
L 266.832338 284.491636 
L 266.924861 273.495273 
L 267.016468 284.491636 
L 267.108991 273.495273 
L 267.199682 284.491636 
L 267.291289 273.495273 
L 267.382896 284.491636 
L 267.478168 273.495273 
L 267.565194 284.491636 
L 267.65955 273.495273 
L 267.752989 284.491636 
L 267.844596 273.495273 
L 267.934371 284.491636 
L 268.025978 273.495273 
L 268.119417 284.491636 
L 268.210108 273.495273 
L 268.300799 284.491636 
L 268.392406 273.495273 
L 268.484013 284.491636 
L 268.574704 273.495273 
L 268.667227 284.491636 
L 268.759751 273.495273 
L 268.849525 284.491636 
L 268.943881 273.495273 
L 269.033656 284.491636 
L 269.128011 273.495273 
L 269.217786 284.491636 
L 269.310309 273.495273 
L 269.402832 284.491636 
L 269.489859 273.495273 
L 269.58513 284.491636 
L 269.673073 273.495273 
L 269.76468 284.491636 
L 269.857203 273.495273 
L 269.947894 284.491636 
L 270.04225 273.495273 
L 270.132024 284.491636 
L 270.223632 273.495273 
L 270.316155 284.491636 
L 270.408678 273.495273 
L 270.498453 284.491636 
L 270.589144 273.495273 
L 270.683499 284.491636 
L 270.776022 273.495273 
L 270.863965 284.491636 
L 270.960152 273.495273 
L 271.050843 284.491636 
L 271.143367 273.495273 
L 271.234974 284.491636 
L 271.322916 273.495273 
L 271.418188 284.491636 
L 271.507047 273.495273 
L 271.597738 284.491636 
L 271.692093 273.495273 
L 271.781868 284.491636 
L 271.879887 273.495273 
L 271.965998 284.491636 
L 272.06585 273.495273 
L 272.154709 284.491636 
L 272.252728 273.495273 
L 272.339755 284.491636 
L 272.435026 273.495273 
L 272.527549 284.491636 
L 272.620989 273.495273 
L 272.708931 284.491636 
L 272.806035 273.495273 
L 272.89581 284.491636 
L 272.987417 273.495273 
L 273.080856 284.491636 
L 273.167883 273.495273 
L 273.262238 284.491636 
L 273.352013 273.495273 
L 273.442704 284.491636 
L 273.534311 273.495273 
L 273.625918 284.491636 
L 273.719357 273.495273 
L 273.809132 284.491636 
L 273.901655 273.495273 
L 273.994179 284.491636 
L 274.087618 273.495273 
L 274.175561 284.491636 
L 274.269916 273.495273 
L 274.362439 284.491636 
L 274.454046 273.495273 
L 274.544737 284.491636 
L 274.635428 273.495273 
L 274.728867 284.491636 
L 274.822307 273.495273 
L 274.910249 284.491636 
L 275.005521 273.495273 
L 275.096212 284.491636 
L 275.186903 273.495273 
L 275.280342 284.491636 
L 275.369201 273.495273 
L 275.461724 284.491636 
L 275.551499 273.495273 
L 275.644022 284.491636 
L 275.731049 273.495273 
L 275.82632 284.491636 
L 275.918843 273.495273 
L 276.00587 284.491636 
L 276.099309 273.495273 
L 276.193664 284.491636 
L 276.280691 273.495273 
L 276.373214 284.491636 
L 276.463905 273.495273 
L 276.555512 284.491636 
L 276.646203 273.495273 
L 276.738726 284.491636 
L 276.832166 273.495273 
L 276.921025 284.491636 
L 277.012632 273.495273 
L 277.106987 284.491636 
L 277.196762 273.495273 
L 277.286537 284.491636 
L 277.385472 273.495273 
L 277.470667 284.491636 
L 277.56777 273.495273 
L 277.660294 284.491636 
L 277.751901 273.495273 
L 277.842592 284.491636 
L 277.934199 273.495273 
L 278.025806 284.491636 
L 278.299711 262.498909 
L 278.375745 273.495273 
L 278.667055 251.502545 
L 281.954833 53.568 
L 282.68769 64.564364 
L 282.921288 284.491636 
L 283.061447 273.495273 
L 283.151221 284.491636 
L 283.245577 273.495273 
L 283.335352 284.491636 
L 283.425127 273.495273 
L 283.520398 284.491636 
L 283.608341 273.495273 
L 283.699032 284.491636 
L 283.791555 273.495273 
L 283.882246 284.491636 
L 283.977517 273.495273 
L 284.066376 284.491636 
L 284.16348 273.495273 
L 284.252338 284.491636 
L 284.351274 273.495273 
L 284.438301 284.491636 
L 284.529908 273.495273 
L 284.625179 284.491636 
L 284.714954 273.495273 
L 284.804729 284.491636 
L 284.897252 273.495273 
L 284.989775 284.491636 
L 285.082299 273.495273 
L 285.172073 284.491636 
L 285.261848 273.495273 
L 285.35712 284.491636 
L 285.448727 273.495273 
L 285.53667 284.491636 
L 285.632857 273.495273 
L 285.723548 284.491636 
L 285.811491 273.495273 
L 285.907678 284.491636 
L 285.991957 273.495273 
L 286.085396 284.491636 
L 286.169674 273.495273 
L 286.265862 284.491636 
L 286.352889 273.495273 
L 286.444496 284.491636 
L 286.535187 273.495273 
L 286.62771 284.491636 
L 286.720233 273.495273 
L 286.810008 284.491636 
L 286.900699 273.495273 
L 286.995054 284.491636 
L 287.084829 273.495273 
L 287.17552 284.491636 
L 287.268043 273.495273 
L 287.35965 284.491636 
L 287.450341 273.495273 
L 287.542864 284.491636 
L 287.630807 273.495273 
L 287.725163 284.491636 
L 287.814021 273.495273 
L 287.905628 284.491636 
L 287.998152 273.495273 
L 288.087927 284.491636 
L 288.177701 273.495273 
L 288.272973 284.491636 
L 288.361832 273.495273 
L 288.452523 284.491636 
L 288.543214 273.495273 
L 288.635737 284.491636 
L 288.724596 273.495273 
L 288.818035 284.491636 
L 288.91239 273.495273 
L 288.999417 284.491636 
L 289.095604 273.495273 
L 289.186295 284.491636 
L 289.275154 273.495273 
L 289.369509 284.491636 
L 289.454704 273.495273 
L 289.549059 284.491636 
L 289.637002 273.495273 
L 289.729525 284.491636 
L 289.821132 273.495273 
L 289.911823 284.491636 
L 290.008011 273.495273 
L 290.095954 284.491636 
L 290.191225 273.495273 
L 290.282832 284.491636 
L 290.374439 273.495273 
L 290.466046 284.491636 
L 290.556737 273.495273 
L 290.64926 284.491636 
L 290.739951 273.495273 
L 290.831558 284.491636 
L 290.919501 273.495273 
L 291.013856 284.491636 
L 291.105463 273.495273 
L 291.194322 284.491636 
L 291.289594 273.495273 
L 291.380285 284.491636 
L 291.471892 273.495273 
L 291.564415 284.491636 
L 291.656022 273.495273 
L 291.746713 284.491636 
L 291.839236 273.495273 
L 291.930843 284.491636 
L 292.023366 273.495273 
L 292.114057 284.491636 
L 292.202 273.495273 
L 292.297271 284.491636 
L 292.384298 273.495273 
L 292.476821 284.491636 
L 292.566596 273.495273 
L 292.658203 284.491636 
L 292.752559 273.495273 
L 292.841417 284.491636 
L 292.937605 273.495273 
L 293.026464 284.491636 
L 293.122651 273.495273 
L 293.21151 284.491636 
L 293.310446 273.495273 
L 293.397472 284.491636 
L 293.49366 273.495273 
L 293.585267 284.491636 
L 293.675042 273.495273 
L 293.768481 284.491636 
L 293.854592 273.495273 
L 293.949863 284.491636 
L 294.038722 273.495273 
L 294.313543 295.488 
L 295.389926 284.491636 
L 295.664747 295.488 
L 295.709635 284.491636 
L 295.98354 295.488 
L 296.029344 284.491636 
L 296.304165 295.488 
L 296.3518 284.491636 
L 296.625706 295.488 
L 296.676089 284.491636 
L 296.950911 295.488 
L 296.99305 284.491636 
L 297.267871 295.488 
L 297.310926 284.491636 
L 297.585748 295.488 
L 297.633383 284.491636 
L 297.908205 295.488 
L 297.953092 284.491636 
L 298.226997 295.488 
L 298.26822 284.491636 
L 298.543042 295.488 
L 298.587013 284.491636 
L 298.861834 295.488 
L 298.901225 284.491636 
L 299.176046 295.488 
L 299.220934 284.491636 
L 302.109305 185.524364 
L 304.669723 196.520727 
L 304.982103 185.524364 
L 310.183552 196.520727 
L 310.434556 284.491636 
L 310.676398 295.488 
L 310.724034 284.491636 
L 310.998855 295.488 
L 311.051071 284.491636 
L 311.324976 295.488 
L 311.365283 284.491636 
L 311.640105 295.488 
L 311.684992 284.491636 
L 311.959813 295.488 
L 312.00012 284.491636 
L 312.274942 295.488 
L 312.319829 284.491636 
L 312.59465 295.488 
L 312.634041 284.491636 
L 312.908863 295.488 
L 312.952834 284.491636 
L 313.227655 295.488 
L 313.274375 284.491636 
L 313.54828 295.488 
L 313.597748 284.491636 
L 313.872569 295.488 
L 313.914708 284.491636 
L 314.189529 295.488 
L 314.235333 284.491636 
L 314.510154 295.488 
L 314.56237 284.491636 
L 314.837191 295.488 
L 314.883911 284.491636 
L 315.158732 295.488 
L 315.202704 284.491636 
L 315.477525 295.488 
L 315.525161 284.491636 
L 315.799066 295.488 
L 315.847617 284.491636 
L 316.122439 295.488 
L 316.171906 284.491636 
L 316.445812 295.488 
L 316.493447 284.491636 
L 316.768268 295.488 
L 316.809492 284.491636 
L 317.084313 295.488 
L 317.123704 284.491636 
L 317.398525 295.488 
L 317.442497 284.491636 
L 317.717318 295.488 
L 317.76587 284.491636 
L 318.040691 295.488 
L 318.083746 284.491636 
L 318.358567 295.488 
L 318.408035 284.491636 
L 318.68194 295.488 
L 318.723163 284.491636 
L 318.997985 295.488 
L 319.041956 284.491636 
L 319.316777 295.488 
L 319.365329 284.491636 
L 319.639234 295.488 
L 319.678625 284.491636 
L 319.953446 295.488 
L 320.005662 284.491636 
L 320.279568 295.488 
L 320.318959 284.491636 
L 320.59378 295.488 
L 320.637751 284.491636 
L 320.911656 295.488 
L 320.953796 284.491636 
L 321.228617 295.488 
L 321.277169 284.491636 
L 321.55199 295.488 
L 321.602374 284.491636 
L 321.877195 295.488 
L 321.924831 284.491636 
L 322.199652 295.488 
L 322.245455 284.491636 
L 322.51936 295.488 
L 322.571576 284.491636 
L 322.845482 295.488 
L 322.894033 284.491636 
L 323.168855 295.488 
L 323.21649 284.491636 
L 323.490395 295.488 
L 323.538947 284.491636 
L 323.812852 295.488 
L 323.852243 284.491636 
L 324.127065 295.488 
L 324.171952 284.491636 
L 324.446773 295.488 
L 324.491661 284.491636 
L 324.766482 295.488 
L 324.814118 284.491636 
L 325.088939 295.488 
L 325.139323 284.491636 
L 325.414144 295.488 
L 325.456283 284.491636 
L 325.731104 295.488 
L 325.772328 284.491636 
L 326.047149 295.488 
L 326.092952 284.491636 
L 326.366857 295.488 
L 326.411745 284.491636 
L 326.68565 295.488 
L 326.73695 284.491636 
L 327.011771 295.488 
L 327.063071 284.491636 
L 327.337892 295.488 
L 327.379116 284.491636 
L 327.653937 295.488 
L 327.704321 284.491636 
L 327.978226 295.488 
L 328.019449 284.491636 
L 328.293354 295.488 
L 328.340074 284.491636 
L 328.613979 295.488 
L 328.65337 284.491636 
L 328.928191 295.488 
L 328.981323 284.491636 
L 329.256144 295.488 
L 329.305612 284.491636 
L 329.579517 295.488 
L 329.63265 284.491636 
L 329.907471 295.488 
L 329.957855 284.491636 
L 330.232676 295.488 
L 330.275731 284.491636 
L 330.549636 295.488 
L 330.591776 284.491636 
L 330.866597 295.488 
L 330.910568 284.491636 
L 332.177494 240.506182 
L 332.326814 262.498909 
L 332.451399 295.488 
L 332.496287 284.491636 
L 332.770192 295.488 
L 332.817827 284.491636 
L 333.092649 295.488 
L 333.134788 284.491636 
L 333.409609 295.488 
L 333.458161 284.491636 
L 333.732982 295.488 
L 333.775121 284.491636 
L 334.049943 295.488 
L 334.095746 284.491636 
L 334.370567 295.488 
L 334.410874 284.491636 
L 334.68478 295.488 
L 334.727835 284.491636 
L 335.002656 295.488 
L 335.050292 284.491636 
L 335.325113 295.488 
L 335.371833 284.491636 
L 335.645738 295.488 
L 335.700702 284.491636 
L 335.974607 295.488 
L 336.019495 284.491636 
L 336.294316 295.488 
L 336.341951 284.491636 
L 336.616773 295.488 
L 336.666241 284.491636 
L 336.941062 295.488 
L 336.985033 284.491636 
L 337.259854 295.488 
L 337.308406 284.491636 
L 337.582311 295.488 
L 338.721903 284.491636 
L 339.183603 262.498909 
L 339.212917 273.495273 
L 340.085932 229.509818 
L 342.131518 130.542545 
L 343.154769 141.538909 
L 348.65211 152.535273 
L 348.833492 295.488 
L 349.24664 284.491636 
L 349.521461 295.488 
L 351.767666 284.491636 
L 352.042487 295.488 
L 355.682036 284.491636 
L 356.131827 262.498909 
L 356.160225 273.495273 
L 357.284244 218.513455 
L 359.561596 108.549818 
L 359.869396 119.546182 
L 360.093833 284.491636 
L 360.238572 273.495273 
L 360.289872 284.491636 
L 360.470338 273.495273 
L 360.512477 284.491636 
L 360.700272 273.495273 
L 360.745159 284.491636 
L 360.921961 273.495273 
L 360.974177 284.491636 
L 361.152811 273.495273 
L 361.196782 284.491636 
L 361.37908 273.495273 
L 361.427632 284.491636 
L 361.611762 273.495273 
L 361.653901 284.491636 
L 361.838032 273.495273 
L 361.885667 284.491636 
L 362.066133 273.495273 
L 362.111937 284.491636 
L 362.291487 273.495273 
L 362.340954 284.491636 
L 362.520504 273.495273 
L 362.566308 284.491636 
L 362.746774 273.495273 
L 362.795326 284.491636 
L 362.975791 273.495273 
L 363.021595 284.491636 
L 363.205725 273.495273 
L 363.250613 284.491636 
L 363.437491 273.495273 
L 363.480546 284.491636 
L 363.664677 273.495273 
L 363.711396 284.491636 
L 363.892778 273.495273 
L 363.938582 284.491636 
L 364.118132 273.495273 
L 364.167599 284.491636 
L 364.348981 273.495273 
L 364.392953 284.491636 
L 364.577083 273.495273 
L 364.623803 284.491636 
L 364.807933 273.495273 
L 364.851904 284.491636 
L 365.035118 273.495273 
L 365.081838 284.491636 
L 365.269633 273.495273 
L 365.309024 284.491636 
L 365.496818 273.495273 
L 365.544454 284.491636 
L 365.7295 273.495273 
L 365.771639 284.491636 
L 365.959434 273.495273 
L 366.004321 284.491636 
L 366.190284 273.495273 
L 366.233339 284.491636 
L 366.422049 273.495273 
L 366.465105 284.491636 
L 366.654731 273.495273 
L 366.696871 284.491636 
L 366.882833 273.495273 
L 366.928637 284.491636 
L 367.110019 273.495273 
L 367.157654 284.491636 
L 367.340868 273.495273 
L 367.383924 284.491636 
L 367.56439 273.495273 
L 367.61569 284.491636 
L 367.795239 273.495273 
L 367.839211 284.491636 
L 368.027005 273.495273 
L 368.070061 284.491636 
L 368.258771 273.495273 
L 368.301827 284.491636 
L 368.486873 273.495273 
L 368.533592 284.491636 
L 368.712226 273.495273 
L 368.760778 284.491636 
L 368.944908 273.495273 
L 368.986131 284.491636 
L 369.170262 273.495273 
L 369.219729 284.491636 
L 369.394699 273.495273 
L 369.445083 284.491636 
L 369.631045 273.495273 
L 369.66952 284.491636 
L 369.858231 273.495273 
L 369.90495 284.491636 
L 370.085416 273.495273 
L 370.133052 284.491636 
L 370.319014 273.495273 
L 370.359321 284.491636 
L 370.542536 273.495273 
L 370.593836 284.491636 
L 370.773385 273.495273 
L 370.817357 284.491636 
L 371.007899 273.495273 
L 371.048207 284.491636 
L 371.235085 273.495273 
L 371.282721 284.491636 
L 371.461354 273.495273 
L 371.50899 284.491636 
L 371.684876 273.495273 
L 371.736176 284.491636 
L 371.910229 273.495273 
L 371.958781 284.491636 
L 372.132834 273.495273 
L 372.18505 284.491636 
L 372.366432 273.495273 
L 372.407656 284.491636 
L 372.594534 273.495273 
L 372.640337 284.491636 
L 372.819887 273.495273 
L 372.869355 284.491636 
L 373.049821 273.495273 
L 373.094709 284.491636 
L 373.278839 273.495273 
L 373.324642 284.491636 
L 373.506024 273.495273 
L 373.55366 284.491636 
L 373.73779 273.495273 
L 373.780846 284.491636 
L 373.967724 273.495273 
L 374.011695 284.491636 
L 374.201322 273.495273 
L 374.242545 284.491636 
L 374.427591 273.495273 
L 374.476143 284.491636 
L 374.655693 273.495273 
L 374.702413 284.491636 
L 374.887459 273.495273 
L 374.930514 284.491636 
L 375.119225 273.495273 
L 375.16228 284.491636 
L 375.348243 273.495273 
L 375.39313 284.491636 
L 375.581841 273.495273 
L 375.622148 284.491636 
L 375.809942 273.495273 
L 375.856662 284.491636 
L 376.038044 273.495273 
L 376.083847 284.491636 
L 376.263397 273.495273 
L 376.311949 284.491636 
L 376.492415 273.495273 
L 376.537302 284.491636 
L 376.721433 273.495273 
L 376.767236 284.491636 
L 376.94587 273.495273 
L 376.996254 284.491636 
L 377.403905 262.498909 
L 380.83001 97.553455 
L 387.117919 108.549818 
L 387.355181 284.491636 
L 387.473355 273.495273 
L 387.514578 284.491636 
L 387.699624 273.495273 
L 387.74726 284.491636 
L 387.927726 273.495273 
L 387.973529 284.491636 
L 388.159491 273.495273 
L 388.202547 284.491636 
L 388.385761 273.495273 
L 388.434313 284.491636 
L 388.612946 273.495273 
L 388.659666 284.491636 
L 388.841964 273.495273 
L 388.887768 284.491636 
L 389.074646 273.495273 
L 389.116785 284.491636 
L 389.3 273.495273 
L 389.349467 284.491636 
L 389.527185 273.495273 
L 389.574821 284.491636 
L 389.755287 273.495273 
L 389.80109 284.491636 
L 389.982472 273.495273 
L 390.029192 284.491636 
L 390.208742 273.495273 
L 390.257293 284.491636 
L 390.436843 273.495273 
L 390.482647 284.491636 
L 390.664945 273.495273 
L 390.711664 284.491636 
L 390.894879 273.495273 
L 390.939766 284.491636 
L 391.123896 273.495273 
L 391.1697 284.491636 
L 391.357494 273.495273 
L 391.397801 284.491636 
L 391.58468 273.495273 
L 391.631399 284.491636 
L 391.814614 273.495273 
L 391.859501 284.491636 
L 392.040883 273.495273 
L 392.088519 284.491636 
L 392.275397 273.495273 
L 392.315704 284.491636 
L 392.501667 273.495273 
L 392.550218 284.491636 
L 392.732516 273.495273 
L 392.776488 284.491636 
L 392.963366 273.495273 
L 393.006422 284.491636 
L 393.192384 273.495273 
L 393.238188 284.491636 
L 393.421402 273.495273 
L 393.467205 284.491636 
L 393.653168 273.495273 
L 393.696223 284.491636 
L 393.883101 273.495273 
L 393.927989 284.491636 
L 394.112119 273.495273 
L 394.157923 284.491636 
L 394.342969 273.495273 
L 394.386024 284.491636 
L 394.575651 273.495273 
L 394.61779 284.491636 
L 394.802836 273.495273 
L 394.850472 284.491636 
L 395.02819 273.495273 
L 395.077658 284.491636 
L 395.259956 273.495273 
L 395.303011 284.491636 
L 395.488057 273.495273 
L 395.534777 284.491636 
L 395.719823 273.495273 
L 395.761962 284.491636 
L 395.946093 273.495273 
L 395.994644 284.491636 
L 396.169614 273.495273 
L 396.220914 284.491636 
L 396.395883 273.495273 
L 396.444435 284.491636 
L 396.625817 273.495273 
L 396.669788 284.491636 
L 396.861247 273.495273 
L 396.899722 284.491636 
L 397.090265 273.495273 
L 397.135152 284.491636 
L 397.31745 273.495273 
L 397.36417 284.491636 
L 397.54372 273.495273 
L 397.592272 284.491636 
L 397.77915 273.495273 
L 397.818541 284.491636 
L 398.007252 273.495273 
L 398.053971 284.491636 
L 398.487273 295.488 
L 398.487273 295.488 
" clip-path="url(#pf9fe5992b9)" style="fill: none; stroke: #1f77b4; stroke-width: 1.5; stroke-linecap: square"/>
   </g>
   <g id="patch_3">
    <path d="M 57.6 307.584 
L 57.6 41.472 
" style="fill: none; stroke: #000000; stroke-width: 0.8; stroke-linejoin: miter; stroke-linecap: square"/>
   </g>
   <g id="patch_4">
    <path d="M 414.72 307.584 
L 414.72 41.472 
" style="fill: none; stroke: #000000; stroke-width: 0.8; stroke-linejoin: miter; stroke-linecap: square"/>
   </g>
   <g id="patch_5">
    <path d="M 57.6 307.584 
L 414.72 307.584 
" style="fill: none; stroke: #000000; stroke-width: 0.8; stroke-linejoin: miter; stroke-linecap: square"/>
   </g>
   <g id="patch_6">
    <path d="M 57.6 41.472 
L 414.72 41.472 
" style="fill: none; stroke: #000000; stroke-width: 0.8; stroke-linejoin: miter; stroke-linecap: square"/>
   </g>
   <g id="text_15">
    <!-- Queue size (y-axis) between S1 and sensors that follow at a time (x-axis). -->
    <g transform="translate(14.282813 35.472) scale(0.12 -0.12)">
     <defs>
      <path id="DejaVuSans-51" d="M 2522 4238 
Q 1834 4238 1429 3725 
Q 1025 3213 1025 2328 
Q 1025 1447 1429 934 
Q 1834 422 2522 422 
Q 3209 422 3611 934 
Q 4013 1447 4013 2328 
Q 4013 3213 3611 3725 
Q 3209 4238 2522 4238 
z
M 3406 84 
L 4238 -825 
L 3475 -825 
L 2784 -78 
Q 2681 -84 2626 -87 
Q 2572 -91 2522 -91 
Q 1538 -91 948 567 
Q 359 1225 359 2328 
Q 359 3434 948 4092 
Q 1538 4750 2522 4750 
Q 3503 4750 4090 4092 
Q 4678 3434 4678 2328 
Q 4678 1516 4351 937 
Q 4025 359 3406 84 
z
" transform="scale(0.015625)"/>
      <path id="DejaVuSans-75" d="M 544 1381 
L 544 3500 
L 1119 3500 
L 1119 1403 
Q 1119 906 1312 657 
Q 1506 409 1894 409 
Q 2359 409 2629 706 
Q 2900 1003 2900 1516 
L 2900 3500 
L 3475 3500 
L 3475 0 
L 2900 0 
L 2900 538 
Q 2691 219 2414 64 
Q 2138 -91 1772 -91 
Q 1169 -91 856 284 
Q 544 659 544 1381 
z
M 1991 3584 
L 1991 3584 
z
" transform="scale(0.015625)"/>
      <path id="DejaVuSans-20" transform="scale(0.015625)"/>
      <path id="DejaVuSans-73" d="M 2834 3397 
L 2834 2853 
Q 2591 2978 2328 3040 
Q 2066 3103 1784 3103 
Q 1356 3103 1142 2972 
Q 928 2841 928 2578 
Q 928 2378 1081 2264 
Q 1234 2150 1697 2047 
L 1894 2003 
Q 2506 1872 2764 1633 
Q 3022 1394 3022 966 
Q 3022 478 2636 193 
Q 2250 -91 1575 -91 
Q 1294 -91 989 -36 
Q 684 19 347 128 
L 347 722 
Q 666 556 975 473 
Q 1284 391 1588 391 
Q 1994 391 2212 530 
Q 2431 669 2431 922 
Q 2431 1156 2273 1281 
Q 2116 1406 1581 1522 
L 1381 1569 
Q 847 1681 609 1914 
Q 372 2147 372 2553 
Q 372 3047 722 3315 
Q 1072 3584 1716 3584 
Q 2034 3584 2315 3537 
Q 2597 3491 2834 3397 
z
" transform="scale(0.015625)"/>
      <path id="DejaVuSans-69" d="M 603 3500 
L 1178 3500 
L 1178 0 
L 603 0 
L 603 3500 
z
M 603 4863 
L 1178 4863 
L 1178 4134 
L 603 4134 
L 603 4863 
z
" transform="scale(0.015625)"/>
      <path id="DejaVuSans-7a" d="M 353 3500 
L 3084 3500 
L 3084 2975 
L 922 459 
L 3084 459 
L 3084 0 
L 275 0 
L 275 525 
L 2438 3041 
L 353 3041 
L 353 3500 
z
" transform="scale(0.015625)"/>
      <path id="DejaVuSans-28" d="M 1984 4856 
Q 1566 4138 1362 3434 
Q 1159 2731 1159 2009 
Q 1159 1288 1364 580 
Q 1569 -128 1984 -844 
L 1484 -844 
Q 1016 -109 783 600 
Q 550 1309 550 2009 
Q 550 2706 781 3412 
Q 1013 4119 1484 4856 
L 1984 4856 
z
" transform="scale(0.015625)"/>
      <path id="DejaVuSans-79" d="M 2059 -325 
Q 1816 -950 1584 -1140 
Q 1353 -1331 966 -1331 
L 506 -1331 
L 506 -850 
L 844 -850 
Q 1081 -850 1212 -737 
Q 1344 -625 1503 -206 
L 1606 56 
L 191 3500 
L 800 3500 
L 1894 763 
L 2988 3500 
L 3597 3500 
L 2059 -325 
z
" transform="scale(0.015625)"/>
      <path id="DejaVuSans-2d" d="M 313 2009 
L 1997 2009 
L 1997 1497 
L 313 1497 
L 313 2009 
z
" transform="scale(0.015625)"/>
      <path id="DejaVuSans-61" d="M 2194 1759 
Q 1497 1759 1228 1600 
Q 959 1441 959 1056 
Q 959 750 1161 570 
Q 1363 391 1709 391 
Q 2188 391 2477 730 
Q 2766 1069 2766 1631 
L 2766 1759 
L 2194 1759 
z
M 3341 1997 
L 3341 0 
L 2766 0 
L 2766 531 
Q 2569 213 2275 61 
Q 1981 -91 1556 -91 
Q 1019 -91 701 211 
Q 384 513 384 1019 
Q 384 1609 779 1909 
Q 1175 2209 1959 2209 
L 2766 2209 
L 2766 2266 
Q 2766 2663 2505 2880 
Q 2244 3097 1772 3097 
Q 1472 3097 1187 3025 
Q 903 2953 641 2809 
L 641 3341 
Q 956 3463 1253 3523 
Q 1550 3584 1831 3584 
Q 2591 3584 2966 3190 
Q 3341 2797 3341 1997 
z
" transform="scale(0.015625)"/>
      <path id="DejaVuSans-78" d="M 3513 3500 
L 2247 1797 
L 3578 0 
L 2900 0 
L 1881 1375 
L 863 0 
L 184 0 
L 1544 1831 
L 300 3500 
L 978 3500 
L 1906 2253 
L 2834 3500 
L 3513 3500 
z
" transform="scale(0.015625)"/>
      <path id="DejaVuSans-29" d="M 513 4856 
L 1013 4856 
Q 1481 4119 1714 3412 
Q 1947 2706 1947 2009 
Q 1947 1309 1714 600 
Q 1481 -109 1013 -844 
L 513 -844 
Q 928 -128 1133 580 
Q 1338 1288 1338 2009 
Q 1338 2731 1133 3434 
Q 928 4138 513 4856 
z
" transform="scale(0.015625)"/>
      <path id="DejaVuSans-62" d="M 3116 1747 
Q 3116 2381 2855 2742 
Q 2594 3103 2138 3103 
Q 1681 3103 1420 2742 
Q 1159 2381 1159 1747 
Q 1159 1113 1420 752 
Q 1681 391 2138 391 
Q 2594 391 2855 752 
Q 3116 1113 3116 1747 
z
M 1159 2969 
Q 1341 3281 1617 3432 
Q 1894 3584 2278 3584 
Q 2916 3584 3314 3078 
Q 3713 2572 3713 1747 
Q 3713 922 3314 415 
Q 2916 -91 2278 -91 
Q 1894 -91 1617 61 
Q 1341 213 1159 525 
L 1159 0 
L 581 0 
L 581 4863 
L 1159 4863 
L 1159 2969 
z
" transform="scale(0.015625)"/>
      <path id="DejaVuSans-74" d="M 1172 4494 
L 1172 3500 
L 2356 3500 
L 2356 3053 
L 1172 3053 
L 1172 1153 
Q 1172 725 1289 603 
Q 1406 481 1766 481 
L 2356 481 
L 2356 0 
L 1766 0 
Q 1100 0 847 248 
Q 594 497 594 1153 
L 594 3053 
L 172 3053 
L 172 3500 
L 594 3500 
L 594 4494 
L 1172 4494 
z
" transform="scale(0.015625)"/>
      <path id="DejaVuSans-77" d="M 269 3500 
L 844 3500 
L 1563 769 
L 2278 3500 
L 2956 3500 
L 3675 769 
L 4391 3500 
L 4966 3500 
L 4050 0 
L 3372 0 
L 2619 2869 
L 1863 0 
L 1184 0 
L 269 3500 
z
" transform="scale(0.015625)"/>
      <path id="DejaVuSans-6e" d="M 3513 2113 
L 3513 0 
L 2938 0 
L 2938 2094 
Q 2938 2591 2744 2837 
Q 2550 3084 2163 3084 
Q 1697 3084 1428 2787 
Q 1159 2491 1159 1978 
L 1159 0 
L 581 0 
L 581 3500 
L 1159 3500 
L 1159 2956 
Q 1366 3272 1645 3428 
Q 1925 3584 2291 3584 
Q 2894 3584 3203 3211 
Q 3513 2838 3513 2113 
z
" transform="scale(0.015625)"/>
      <path id="DejaVuSans-53" d="M 3425 4513 
L 3425 3897 
Q 3066 4069 2747 4153 
Q 2428 4238 2131 4238 
Q 1616 4238 1336 4038 
Q 1056 3838 1056 3469 
Q 1056 3159 1242 3001 
Q 1428 2844 1947 2747 
L 2328 2669 
Q 3034 2534 3370 2195 
Q 3706 1856 3706 1288 
Q 3706 609 3251 259 
Q 2797 -91 1919 -91 
Q 1588 -91 1214 -16 
Q 841 59 441 206 
L 441 856 
Q 825 641 1194 531 
Q 1563 422 1919 422 
Q 2459 422 2753 634 
Q 3047 847 3047 1241 
Q 3047 1584 2836 1778 
Q 2625 1972 2144 2069 
L 1759 2144 
Q 1053 2284 737 2584 
Q 422 2884 422 3419 
Q 422 4038 858 4394 
Q 1294 4750 2059 4750 
Q 2388 4750 2728 4690 
Q 3069 4631 3425 4513 
z
" transform="scale(0.015625)"/>
      <path id="DejaVuSans-64" d="M 2906 2969 
L 2906 4863 
L 3481 4863 
L 3481 0 
L 2906 0 
L 2906 525 
Q 2725 213 2448 61 
Q 2172 -91 1784 -91 
Q 1150 -91 751 415 
Q 353 922 353 1747 
Q 353 2572 751 3078 
Q 1150 3584 1784 3584 
Q 2172 3584 2448 3432 
Q 2725 3281 2906 2969 
z
M 947 1747 
Q 947 1113 1208 752 
Q 1469 391 1925 391 
Q 2381 391 2643 752 
Q 2906 1113 2906 1747 
Q 2906 2381 2643 2742 
Q 2381 3103 1925 3103 
Q 1469 3103 1208 2742 
Q 947 2381 947 1747 
z
" transform="scale(0.015625)"/>
      <path id="DejaVuSans-6f" d="M 1959 3097 
Q 1497 3097 1228 2736 
Q 959 2375 959 1747 
Q 959 1119 1226 758 
Q 1494 397 1959 397 
Q 2419 397 2687 759 
Q 2956 1122 2956 1747 
Q 2956 2369 2687 2733 
Q 2419 3097 1959 3097 
z
M 1959 3584 
Q 2709 3584 3137 3096 
Q 3566 2609 3566 1747 
Q 3566 888 3137 398 
Q 2709 -91 1959 -91 
Q 1206 -91 779 398 
Q 353 888 353 1747 
Q 353 2609 779 3096 
Q 1206 3584 1959 3584 
z
" transform="scale(0.015625)"/>
      <path id="DejaVuSans-72" d="M 2631 2963 
Q 2534 3019 2420 3045 
Q 2306 3072 2169 3072 
Q 1681 3072 1420 2755 
Q 1159 2438 1159 1844 
L 1159 0 
L 581 0 
L 581 3500 
L 1159 3500 
L 1159 2956 
Q 1341 3275 1631 3429 
Q 1922 3584 2338 3584 
Q 2397 3584 2469 3576 
Q 2541 3569 2628 3553 
L 2631 2963 
z
" transform="scale(0.015625)"/>
      <path id="DejaVuSans-68" d="M 3513 2113 
L 3513 0 
L 2938 0 
L 2938 2094 
Q 2938 2591 2744 2837 
Q 2550 3084 2163 3084 
Q 1697 3084 1428 2787 
Q 1159 2491 1159 1978 
L 1159 0 
L 581 0 
L 581 4863 
L 1159 4863 
L 1159 2956 
Q 1366 3272 1645 3428 
Q 1925 3584 2291 3584 
Q 2894 3584 3203 3211 
Q 3513 2838 3513 2113 
z
" transform="scale(0.015625)"/>
      <path id="DejaVuSans-66" d="M 2375 4863 
L 2375 4384 
L 1825 4384 
Q 1516 4384 1395 4259 
Q 1275 4134 1275 3809 
L 1275 3500 
L 2222 3500 
L 2222 3053 
L 1275 3053 
L 1275 0 
L 697 0 
L 697 3053 
L 147 3053 
L 147 3500 
L 697 3500 
L 697 3744 
Q 697 4328 969 4595 
Q 1241 4863 1831 4863 
L 2375 4863 
z
" transform="scale(0.015625)"/>
      <path id="DejaVuSans-6c" d="M 603 4863 
L 1178 4863 
L 1178 0 
L 603 0 
L 603 4863 
z
" transform="scale(0.015625)"/>
      <path id="DejaVuSans-6d" d="M 3328 2828 
Q 3544 3216 3844 3400 
Q 4144 3584 4550 3584 
Q 5097 3584 5394 3201 
Q 5691 2819 5691 2113 
L 5691 0 
L 5113 0 
L 5113 2094 
Q 5113 2597 4934 2840 
Q 4756 3084 4391 3084 
Q 3944 3084 3684 2787 
Q 3425 2491 3425 1978 
L 3425 0 
L 2847 0 
L 2847 2094 
Q 2847 2600 2669 2842 
Q 2491 3084 2119 3084 
Q 1678 3084 1418 2786 
Q 1159 2488 1159 1978 
L 1159 0 
L 581 0 
L 581 3500 
L 1159 3500 
L 1159 2956 
Q 1356 3278 1631 3431 
Q 1906 3584 2284 3584 
Q 2666 3584 2933 3390 
Q 3200 3197 3328 2828 
z
" transform="scale(0.015625)"/>
     </defs>
     <use xlink:href="#DejaVuSans-51"/>
     <use xlink:href="#DejaVuSans-75" x="78.710938"/>
     <use xlink:href="#DejaVuSans-65" x="142.089844"/>
     <use xlink:href="#DejaVuSans-75" x="203.613281"/>
     <use xlink:href="#DejaVuSans-65" x="266.992188"/>
     <use xlink:href="#DejaVuSans-20" x="328.515625"/>
     <use xlink:href="#DejaVuSans-73" x="360.302734"/>
     <use xlink:href="#DejaVuSans-69" x="412.402344"/>
     <use xlink:href="#DejaVuSans-7a" x="440.185547"/>
     <use xlink:href="#DejaVuSans-65" x="492.675781"/>
     <use xlink:href="#DejaVuSans-20" x="554.199219"/>
     <use xlink:href="#DejaVuSans-28" x="585.986328"/>
     <use xlink:href="#DejaVuSans-79" x="625"/>
     <use xlink:href="#DejaVuSans-2d" x="682.429688"/>
     <use xlink:href="#DejaVuSans-61" x="718.513672"/>
     <use xlink:href="#DejaVuSans-78" x="779.792969"/>
     <use xlink:href="#DejaVuSans-69" x="838.972656"/>
     <use xlink:href="#DejaVuSans-73" x="866.755859"/>
     <use xlink:href="#DejaVuSans-29" x="918.855469"/>
     <use xlink:href="#DejaVuSans-20" x="957.869141"/>
     <use xlink:href="#DejaVuSans-62" x="989.65625"/>
     <use xlink:href="#DejaVuSans-65" x="1053.132812"/>
     <use xlink:href="#DejaVuSans-74" x="1114.65625"/>
     <use xlink:href="#DejaVuSans-77" x="1153.865234"/>
     <use xlink:href="#DejaVuSans-65" x="1235.652344"/>
     <use xlink:href="#DejaVuSans-65" x="1297.175781"/>
     <use xlink:href="#DejaVuSans-6e" x="1358.699219"/>
     <use xlink:href="#DejaVuSans-20" x="1422.078125"/>
     <use xlink:href="#DejaVuSans-53" x="1453.865234"/>
     <use xlink:href="#DejaVuSans-31" x="1517.341797"/>
     <use xlink:href="#DejaVuSans-20" x="1580.964844"/>
     <use xlink:href="#DejaVuSans-61" x="1612.751953"/>
     <use xlink:href="#DejaVuSans-6e" x="1674.03125"/>
     <use xlink:href="#DejaVuSans-64" x="1737.410156"/>
     <use xlink:href="#DejaVuSans-20" x="1800.886719"/>
     <use xlink:href="#DejaVuSans-73" x="1832.673828"/>
     <use xlink:href="#DejaVuSans-65" x="1884.773438"/>
     <use xlink:href="#DejaVuSans-6e" x="1946.296875"/>
     <use xlink:href="#DejaVuSans-73" x="2009.675781"/>
     <use xlink:href="#DejaVuSans-6f" x="2061.775391"/>
     <use xlink:href="#DejaVuSans-72" x="2122.957031"/>
     <use xlink:href="#DejaVuSans-73" x="2164.070312"/>
     <use xlink:href="#DejaVuSans-20" x="2216.169922"/>
     <use xlink:href="#DejaVuSans-74" x="2247.957031"/>
     <use xlink:href="#DejaVuSans-68" x="2287.166016"/>
     <use xlink:href="#DejaVuSans-61" x="2350.544922"/>
     <use xlink:href="#DejaVuSans-74" x="2411.824219"/>
     <use xlink:href="#DejaVuSans-20" x="2451.033203"/>
     <use xlink:href="#DejaVuSans-66" x="2482.820312"/>
     <use xlink:href="#DejaVuSans-6f" x="2518.025391"/>
     <use xlink:href="#DejaVuSans-6c" x="2579.207031"/>
     <use xlink:href="#DejaVuSans-6c" x="2606.990234"/>
     <use xlink:href="#DejaVuSans-6f" x="2634.773438"/>
     <use xlink:href="#DejaVuSans-77" x="2695.955078"/>
     <use xlink:href="#DejaVuSans-20" x="2777.742188"/>
     <use xlink:href="#DejaVuSans-61" x="2809.529297"/>
     <use xlink:href="#DejaVuSans-74" x="2870.808594"/>
     <use xlink:href="#DejaVuSans-20" x="2910.017578"/>
     <use xlink:href="#DejaVuSans-61" x="2941.804688"/>
     <use xlink:href="#DejaVuSans-20" x="3003.083984"/>
     <use xlink:href="#DejaVuSans-74" x="3034.871094"/>
     <use xlink:href="#DejaVuSans-69" x="3074.080078"/>
     <use xlink:href="#DejaVuSans-6d" x="3101.863281"/>
     <use xlink:href="#DejaVuSans-65" x="3199.275391"/>
     <use xlink:href="#DejaVuSans-20" x="3260.798828"/>
     <use xlink:href="#DejaVuSans-28" x="3292.585938"/>
     <use xlink:href="#DejaVuSans-78" x="3331.599609"/>
     <use xlink:href="#DejaVuSans-2d" x="3390.779297"/>
     <use xlink:href="#DejaVuSans-61" x="3426.863281"/>
     <use xlink:href="#DejaVuSans-78" x="3488.142578"/>
     <use xlink:href="#DejaVuSans-69" x="3547.322266"/>
     <use xlink:href="#DejaVuSans-73" x="3575.105469"/>
     <use xlink:href="#DejaVuSans-29" x="3627.205078"/>
     <use xlink:href="#DejaVuSans-2e" x="3666.21875"/>
    </g>
   </g>
  </g>
 </g>
 <defs>
  <clipPath id="pf9fe5992b9">
   <rect x="57.6" y="41.472" width="357.12" height="266.112"/>
  </clipPath>
 </defs>
</svg>
