<?xml version="1.0" encoding="utf-8" standalone="no"?>
<!DOCTYPE svg PUBLIC "-//W3C//DTD SVG 1.1//EN"
  "http://www.w3.org/Graphics/SVG/1.1/DTD/svg11.dtd">
<svg xmlns:xlink="http://www.w3.org/1999/xlink" width="460.8pt" height="345.6pt" viewBox="0 0 460.8 345.6" xmlns="http://www.w3.org/2000/svg" version="1.1">
 <metadata>
  <rdf:RDF xmlns:dc="http://purl.org/dc/elements/1.1/" xmlns:cc="http://creativecommons.org/ns#" xmlns:rdf="http://www.w3.org/1999/02/22-rdf-syntax-ns#">
   <cc:Work>
    <dc:type rdf:resource="http://purl.org/dc/dcmitype/StillImage"/>
    <dc:date>2024-03-08T12:45:40.341121</dc:date>
    <dc:format>image/svg+xml</dc:format>
    <dc:creator>
     <cc:Agent>
      <dc:title>Matplotlib v3.8.2, https://matplotlib.org/</dc:title>
     </cc:Agent>
    </dc:creator>
   </cc:Work>
  </rdf:RDF>
 </metadata>
 <defs>
  <style type="text/css">*{stroke-linejoin: round; stroke-linecap: butt}</style>
 </defs>
 <g id="figure_1">
  <g id="patch_1">
   <path d="M 0 345.6 
L 460.8 345.6 
L 460.8 0 
L 0 0 
z
" style="fill: #ffffff"/>
  </g>
  <g id="axes_1">
   <g id="patch_2">
    <path d="M 57.6 307.584 
L 414.72 307.584 
L 414.72 41.472 
L 57.6 41.472 
z
" style="fill: #ffffff"/>
   </g>
   <g id="matplotlib.axis_1">
    <g id="xtick_1">
     <g id="line2d_1">
      <defs>
       <path id="m9e9676d6b1" d="M 0 0 
L 0 3.5 
" style="stroke: #000000; stroke-width: 0.8"/>
      </defs>
      <g>
       <use xlink:href="#m9e9676d6b1" x="71.428742" y="307.584" style="stroke: #000000; stroke-width: 0.8"/>
      </g>
     </g>
     <g id="text_1">
      <!-- 0.0 -->
      <g transform="translate(63.477179 322.182437) scale(0.1 -0.1)">
       <defs>
        <path id="DejaVuSans-30" d="M 2034 4250 
Q 1547 4250 1301 3770 
Q 1056 3291 1056 2328 
Q 1056 1369 1301 889 
Q 1547 409 2034 409 
Q 2525 409 2770 889 
Q 3016 1369 3016 2328 
Q 3016 3291 2770 3770 
Q 2525 4250 2034 4250 
z
M 2034 4750 
Q 2819 4750 3233 4129 
Q 3647 3509 3647 2328 
Q 3647 1150 3233 529 
Q 2819 -91 2034 -91 
Q 1250 -91 836 529 
Q 422 1150 422 2328 
Q 422 3509 836 4129 
Q 1250 4750 2034 4750 
z
" transform="scale(0.015625)"/>
        <path id="DejaVuSans-2e" d="M 684 794 
L 1344 794 
L 1344 0 
L 684 0 
L 684 794 
z
" transform="scale(0.015625)"/>
       </defs>
       <use xlink:href="#DejaVuSans-30"/>
       <use xlink:href="#DejaVuSans-2e" x="63.623047"/>
       <use xlink:href="#DejaVuSans-30" x="95.410156"/>
      </g>
     </g>
    </g>
    <g id="xtick_2">
     <g id="line2d_2">
      <g>
       <use xlink:href="#m9e9676d6b1" x="117.306324" y="307.584" style="stroke: #000000; stroke-width: 0.8"/>
      </g>
     </g>
     <g id="text_2">
      <!-- 0.5 -->
      <g transform="translate(109.354762 322.182437) scale(0.1 -0.1)">
       <defs>
        <path id="DejaVuSans-35" d="M 691 4666 
L 3169 4666 
L 3169 4134 
L 1269 4134 
L 1269 2991 
Q 1406 3038 1543 3061 
Q 1681 3084 1819 3084 
Q 2600 3084 3056 2656 
Q 3513 2228 3513 1497 
Q 3513 744 3044 326 
Q 2575 -91 1722 -91 
Q 1428 -91 1123 -41 
Q 819 9 494 109 
L 494 744 
Q 775 591 1075 516 
Q 1375 441 1709 441 
Q 2250 441 2565 725 
Q 2881 1009 2881 1497 
Q 2881 1984 2565 2268 
Q 2250 2553 1709 2553 
Q 1456 2553 1204 2497 
Q 953 2441 691 2322 
L 691 4666 
z
" transform="scale(0.015625)"/>
       </defs>
       <use xlink:href="#DejaVuSans-30"/>
       <use xlink:href="#DejaVuSans-2e" x="63.623047"/>
       <use xlink:href="#DejaVuSans-35" x="95.410156"/>
      </g>
     </g>
    </g>
    <g id="xtick_3">
     <g id="line2d_3">
      <g>
       <use xlink:href="#m9e9676d6b1" x="163.183906" y="307.584" style="stroke: #000000; stroke-width: 0.8"/>
      </g>
     </g>
     <g id="text_3">
      <!-- 1.0 -->
      <g transform="translate(155.232344 322.182437) scale(0.1 -0.1)">
       <defs>
        <path id="DejaVuSans-31" d="M 794 531 
L 1825 531 
L 1825 4091 
L 703 3866 
L 703 4441 
L 1819 4666 
L 2450 4666 
L 2450 531 
L 3481 531 
L 3481 0 
L 794 0 
L 794 531 
z
" transform="scale(0.015625)"/>
       </defs>
       <use xlink:href="#DejaVuSans-31"/>
       <use xlink:href="#DejaVuSans-2e" x="63.623047"/>
       <use xlink:href="#DejaVuSans-30" x="95.410156"/>
      </g>
     </g>
    </g>
    <g id="xtick_4">
     <g id="line2d_4">
      <g>
       <use xlink:href="#m9e9676d6b1" x="209.061489" y="307.584" style="stroke: #000000; stroke-width: 0.8"/>
      </g>
     </g>
     <g id="text_4">
      <!-- 1.5 -->
      <g transform="translate(201.109926 322.182437) scale(0.1 -0.1)">
       <use xlink:href="#DejaVuSans-31"/>
       <use xlink:href="#DejaVuSans-2e" x="63.623047"/>
       <use xlink:href="#DejaVuSans-35" x="95.410156"/>
      </g>
     </g>
    </g>
    <g id="xtick_5">
     <g id="line2d_5">
      <g>
       <use xlink:href="#m9e9676d6b1" x="254.939071" y="307.584" style="stroke: #000000; stroke-width: 0.8"/>
      </g>
     </g>
     <g id="text_5">
      <!-- 2.0 -->
      <g transform="translate(246.987508 322.182437) scale(0.1 -0.1)">
       <defs>
        <path id="DejaVuSans-32" d="M 1228 531 
L 3431 531 
L 3431 0 
L 469 0 
L 469 531 
Q 828 903 1448 1529 
Q 2069 2156 2228 2338 
Q 2531 2678 2651 2914 
Q 2772 3150 2772 3378 
Q 2772 3750 2511 3984 
Q 2250 4219 1831 4219 
Q 1534 4219 1204 4116 
Q 875 4013 500 3803 
L 500 4441 
Q 881 4594 1212 4672 
Q 1544 4750 1819 4750 
Q 2544 4750 2975 4387 
Q 3406 4025 3406 3419 
Q 3406 3131 3298 2873 
Q 3191 2616 2906 2266 
Q 2828 2175 2409 1742 
Q 1991 1309 1228 531 
z
" transform="scale(0.015625)"/>
       </defs>
       <use xlink:href="#DejaVuSans-32"/>
       <use xlink:href="#DejaVuSans-2e" x="63.623047"/>
       <use xlink:href="#DejaVuSans-30" x="95.410156"/>
      </g>
     </g>
    </g>
    <g id="xtick_6">
     <g id="line2d_6">
      <g>
       <use xlink:href="#m9e9676d6b1" x="300.816653" y="307.584" style="stroke: #000000; stroke-width: 0.8"/>
      </g>
     </g>
     <g id="text_6">
      <!-- 2.5 -->
      <g transform="translate(292.86509 322.182437) scale(0.1 -0.1)">
       <use xlink:href="#DejaVuSans-32"/>
       <use xlink:href="#DejaVuSans-2e" x="63.623047"/>
       <use xlink:href="#DejaVuSans-35" x="95.410156"/>
      </g>
     </g>
    </g>
    <g id="xtick_7">
     <g id="line2d_7">
      <g>
       <use xlink:href="#m9e9676d6b1" x="346.694235" y="307.584" style="stroke: #000000; stroke-width: 0.8"/>
      </g>
     </g>
     <g id="text_7">
      <!-- 3.0 -->
      <g transform="translate(338.742673 322.182437) scale(0.1 -0.1)">
       <defs>
        <path id="DejaVuSans-33" d="M 2597 2516 
Q 3050 2419 3304 2112 
Q 3559 1806 3559 1356 
Q 3559 666 3084 287 
Q 2609 -91 1734 -91 
Q 1441 -91 1130 -33 
Q 819 25 488 141 
L 488 750 
Q 750 597 1062 519 
Q 1375 441 1716 441 
Q 2309 441 2620 675 
Q 2931 909 2931 1356 
Q 2931 1769 2642 2001 
Q 2353 2234 1838 2234 
L 1294 2234 
L 1294 2753 
L 1863 2753 
Q 2328 2753 2575 2939 
Q 2822 3125 2822 3475 
Q 2822 3834 2567 4026 
Q 2313 4219 1838 4219 
Q 1578 4219 1281 4162 
Q 984 4106 628 3988 
L 628 4550 
Q 988 4650 1302 4700 
Q 1616 4750 1894 4750 
Q 2613 4750 3031 4423 
Q 3450 4097 3450 3541 
Q 3450 3153 3228 2886 
Q 3006 2619 2597 2516 
z
" transform="scale(0.015625)"/>
       </defs>
       <use xlink:href="#DejaVuSans-33"/>
       <use xlink:href="#DejaVuSans-2e" x="63.623047"/>
       <use xlink:href="#DejaVuSans-30" x="95.410156"/>
      </g>
     </g>
    </g>
    <g id="xtick_8">
     <g id="line2d_8">
      <g>
       <use xlink:href="#m9e9676d6b1" x="392.571817" y="307.584" style="stroke: #000000; stroke-width: 0.8"/>
      </g>
     </g>
     <g id="text_8">
      <!-- 3.5 -->
      <g transform="translate(384.620255 322.182437) scale(0.1 -0.1)">
       <use xlink:href="#DejaVuSans-33"/>
       <use xlink:href="#DejaVuSans-2e" x="63.623047"/>
       <use xlink:href="#DejaVuSans-35" x="95.410156"/>
      </g>
     </g>
    </g>
    <g id="text_9">
     <!-- 1e6 -->
     <g transform="translate(395.841875 334.860562) scale(0.1 -0.1)">
      <defs>
       <path id="DejaVuSans-65" d="M 3597 1894 
L 3597 1613 
L 953 1613 
Q 991 1019 1311 708 
Q 1631 397 2203 397 
Q 2534 397 2845 478 
Q 3156 559 3463 722 
L 3463 178 
Q 3153 47 2828 -22 
Q 2503 -91 2169 -91 
Q 1331 -91 842 396 
Q 353 884 353 1716 
Q 353 2575 817 3079 
Q 1281 3584 2069 3584 
Q 2775 3584 3186 3129 
Q 3597 2675 3597 1894 
z
M 3022 2063 
Q 3016 2534 2758 2815 
Q 2500 3097 2075 3097 
Q 1594 3097 1305 2825 
Q 1016 2553 972 2059 
L 3022 2063 
z
" transform="scale(0.015625)"/>
       <path id="DejaVuSans-36" d="M 2113 2584 
Q 1688 2584 1439 2293 
Q 1191 2003 1191 1497 
Q 1191 994 1439 701 
Q 1688 409 2113 409 
Q 2538 409 2786 701 
Q 3034 994 3034 1497 
Q 3034 2003 2786 2293 
Q 2538 2584 2113 2584 
z
M 3366 4563 
L 3366 3988 
Q 3128 4100 2886 4159 
Q 2644 4219 2406 4219 
Q 1781 4219 1451 3797 
Q 1122 3375 1075 2522 
Q 1259 2794 1537 2939 
Q 1816 3084 2150 3084 
Q 2853 3084 3261 2657 
Q 3669 2231 3669 1497 
Q 3669 778 3244 343 
Q 2819 -91 2113 -91 
Q 1303 -91 875 529 
Q 447 1150 447 2328 
Q 447 3434 972 4092 
Q 1497 4750 2381 4750 
Q 2619 4750 2861 4703 
Q 3103 4656 3366 4563 
z
" transform="scale(0.015625)"/>
      </defs>
      <use xlink:href="#DejaVuSans-31"/>
      <use xlink:href="#DejaVuSans-65" x="63.623047"/>
      <use xlink:href="#DejaVuSans-36" x="125.146484"/>
     </g>
    </g>
   </g>
   <g id="matplotlib.axis_2">
    <g id="ytick_1">
     <g id="line2d_9">
      <defs>
       <path id="meca6f984f8" d="M 0 0 
L -3.5 0 
" style="stroke: #000000; stroke-width: 0.8"/>
      </defs>
      <g>
       <use xlink:href="#meca6f984f8" x="57.6" y="295.488" style="stroke: #000000; stroke-width: 0.8"/>
      </g>
     </g>
     <g id="text_10">
      <!-- 0 -->
      <g transform="translate(44.2375 299.287219) scale(0.1 -0.1)">
       <use xlink:href="#DejaVuSans-30"/>
      </g>
     </g>
    </g>
    <g id="ytick_2">
     <g id="line2d_10">
      <g>
       <use xlink:href="#meca6f984f8" x="57.6" y="258.269538" style="stroke: #000000; stroke-width: 0.8"/>
      </g>
     </g>
     <g id="text_11">
      <!-- 2 -->
      <g transform="translate(44.2375 262.068757) scale(0.1 -0.1)">
       <use xlink:href="#DejaVuSans-32"/>
      </g>
     </g>
    </g>
    <g id="ytick_3">
     <g id="line2d_11">
      <g>
       <use xlink:href="#meca6f984f8" x="57.6" y="221.051077" style="stroke: #000000; stroke-width: 0.8"/>
      </g>
     </g>
     <g id="text_12">
      <!-- 4 -->
      <g transform="translate(44.2375 224.850296) scale(0.1 -0.1)">
       <defs>
        <path id="DejaVuSans-34" d="M 2419 4116 
L 825 1625 
L 2419 1625 
L 2419 4116 
z
M 2253 4666 
L 3047 4666 
L 3047 1625 
L 3713 1625 
L 3713 1100 
L 3047 1100 
L 3047 0 
L 2419 0 
L 2419 1100 
L 313 1100 
L 313 1709 
L 2253 4666 
z
" transform="scale(0.015625)"/>
       </defs>
       <use xlink:href="#DejaVuSans-34"/>
      </g>
     </g>
    </g>
    <g id="ytick_4">
     <g id="line2d_12">
      <g>
       <use xlink:href="#meca6f984f8" x="57.6" y="183.832615" style="stroke: #000000; stroke-width: 0.8"/>
      </g>
     </g>
     <g id="text_13">
      <!-- 6 -->
      <g transform="translate(44.2375 187.631834) scale(0.1 -0.1)">
       <use xlink:href="#DejaVuSans-36"/>
      </g>
     </g>
    </g>
    <g id="ytick_5">
     <g id="line2d_13">
      <g>
       <use xlink:href="#meca6f984f8" x="57.6" y="146.614154" style="stroke: #000000; stroke-width: 0.8"/>
      </g>
     </g>
     <g id="text_14">
      <!-- 8 -->
      <g transform="translate(44.2375 150.413373) scale(0.1 -0.1)">
       <defs>
        <path id="DejaVuSans-38" d="M 2034 2216 
Q 1584 2216 1326 1975 
Q 1069 1734 1069 1313 
Q 1069 891 1326 650 
Q 1584 409 2034 409 
Q 2484 409 2743 651 
Q 3003 894 3003 1313 
Q 3003 1734 2745 1975 
Q 2488 2216 2034 2216 
z
M 1403 2484 
Q 997 2584 770 2862 
Q 544 3141 544 3541 
Q 544 4100 942 4425 
Q 1341 4750 2034 4750 
Q 2731 4750 3128 4425 
Q 3525 4100 3525 3541 
Q 3525 3141 3298 2862 
Q 3072 2584 2669 2484 
Q 3125 2378 3379 2068 
Q 3634 1759 3634 1313 
Q 3634 634 3220 271 
Q 2806 -91 2034 -91 
Q 1263 -91 848 271 
Q 434 634 434 1313 
Q 434 1759 690 2068 
Q 947 2378 1403 2484 
z
M 1172 3481 
Q 1172 3119 1398 2916 
Q 1625 2713 2034 2713 
Q 2441 2713 2670 2916 
Q 2900 3119 2900 3481 
Q 2900 3844 2670 4047 
Q 2441 4250 2034 4250 
Q 1625 4250 1398 4047 
Q 1172 3844 1172 3481 
z
" transform="scale(0.015625)"/>
       </defs>
       <use xlink:href="#DejaVuSans-38"/>
      </g>
     </g>
    </g>
    <g id="ytick_6">
     <g id="line2d_14">
      <g>
       <use xlink:href="#meca6f984f8" x="57.6" y="109.395692" style="stroke: #000000; stroke-width: 0.8"/>
      </g>
     </g>
     <g id="text_15">
      <!-- 10 -->
      <g transform="translate(37.875 113.194911) scale(0.1 -0.1)">
       <use xlink:href="#DejaVuSans-31"/>
       <use xlink:href="#DejaVuSans-30" x="63.623047"/>
      </g>
     </g>
    </g>
    <g id="ytick_7">
     <g id="line2d_15">
      <g>
       <use xlink:href="#meca6f984f8" x="57.6" y="72.177231" style="stroke: #000000; stroke-width: 0.8"/>
      </g>
     </g>
     <g id="text_16">
      <!-- 12 -->
      <g transform="translate(37.875 75.97645) scale(0.1 -0.1)">
       <use xlink:href="#DejaVuSans-31"/>
       <use xlink:href="#DejaVuSans-32" x="63.623047"/>
      </g>
     </g>
    </g>
   </g>
   <g id="line2d_16">
    <path d="M 73.832727 276.878769 
L 74.472261 239.660308 
L 74.560346 295.488 
L 75.119135 258.269538 
L 75.232911 295.488 
L 75.43936 276.878769 
L 75.757751 258.269538 
L 75.821979 295.488 
L 76.402789 258.269538 
L 76.494545 295.488 
L 77.047828 258.269538 
L 77.131325 295.488 
L 77.693785 258.269538 
L 77.802973 295.488 
L 78.344329 258.269538 
L 78.430579 295.488 
L 78.659966 276.878769 
L 79.072865 295.488 
L 84.558906 276.878769 
L 84.641486 221.051077 
L 84.949783 202.441846 
L 84.97731 183.832615 
L 84.990155 295.488 
L 85.349836 276.878769 
L 85.377362 258.269538 
L 85.392043 295.488 
L 85.693 276.878769 
L 85.719609 258.269538 
L 85.735207 295.488 
L 86.062773 276.878769 
L 86.0903 258.269538 
L 86.104981 295.488 
L 86.423371 276.878769 
L 86.450897 258.269538 
L 86.464661 295.488 
L 86.788556 276.878769 
L 86.830764 295.488 
L 87.168423 258.269538 
L 87.205125 295.488 
L 87.515257 276.878769 
L 87.579486 295.488 
L 87.646467 276.878769 
L 87.96027 295.488 
L 87.966693 276.878769 
L 88.281413 258.269538 
L 88.396107 295.488 
L 88.600721 276.878769 
L 88.926452 258.269538 
L 88.987928 295.488 
L 89.558645 258.269538 
L 89.678844 295.488 
L 89.884376 276.878769 
L 90.209189 258.269538 
L 90.27617 295.488 
L 90.847805 258.269538 
L 90.917539 295.488 
L 91.495596 258.269538 
L 91.631394 295.488 
L 91.82408 276.878769 
L 92.143388 258.269538 
L 92.23239 295.488 
L 92.777416 258.269538 
L 92.914131 295.488 
L 93.096724 276.878769 
L 93.41695 258.269538 
L 93.554582 295.488 
L 93.732587 276.878769 
L 94.052813 258.269538 
L 94.14365 295.488 
L 94.700604 258.269538 
L 94.830897 295.488 
L 95.018995 276.878769 
L 95.338303 258.269538 
L 95.434646 295.488 
L 95.982424 258.269538 
L 96.079684 295.488 
L 96.623793 258.269538 
L 96.719218 295.488 
L 97.265161 258.269538 
L 97.375267 295.488 
L 97.583552 276.878769 
L 97.903777 258.269538 
L 98.044162 295.488 
L 98.544228 276.878769 
L 98.858031 258.269538 
L 98.997499 295.488 
L 99.186514 276.878769 
L 99.51408 258.269538 
L 99.591155 295.488 
L 100.167377 258.269538 
L 100.310515 295.488 
L 100.485767 276.878769 
L 100.807828 258.269538 
L 100.906006 295.488 
L 101.456537 258.269538 
L 101.574901 295.488 
L 101.775845 276.878769 
L 102.091483 258.269538 
L 102.222693 295.488 
L 102.410791 276.878769 
L 102.732851 258.269538 
L 102.847545 295.488 
L 103.052159 276.878769 
L 103.373302 258.269538 
L 103.4568 295.488 
L 104.017424 258.269538 
L 104.141293 295.488 
L 104.338567 276.878769 
L 104.662463 258.269538 
L 104.767063 295.488 
L 105.298326 258.269538 
L 105.404762 295.488 
L 105.944282 258.269538 
L 106.068152 295.488 
L 106.26359 276.878769 
L 106.576475 258.269538 
L 106.715943 295.488 
L 106.899453 276.878769 
L 107.216926 258.269538 
L 107.323362 295.488 
L 107.861965 258.269538 
L 107.956473 295.488 
L 108.506086 258.269538 
L 108.57215 295.488 
L 109.140115 258.269538 
L 109.278665 295.488 
L 109.45667 276.878769 
L 109.776895 258.269538 
L 109.875991 295.488 
L 110.415511 258.269538 
L 110.547639 295.488 
L 110.738489 276.878769 
L 111.153223 295.488 
L 112.521292 276.878769 
L 113.659974 183.832615 
L 113.782926 295.488 
L 113.891197 276.878769 
L 114.577526 221.051077 
L 114.679374 295.488 
L 115.037219 258.269538 
L 115.5015 221.051077 
L 115.628122 295.488 
L 126.741508 276.878769 
L 127.425084 221.051077 
L 127.561799 295.488 
L 127.657224 276.878769 
L 128.11967 239.660308 
L 128.204085 202.441846 
L 128.217848 183.832615 
L 128.409617 165.223385 
L 128.450906 109.395692 
L 128.46467 295.488 
L 128.960148 276.878769 
L 129.002355 221.051077 
L 129.016118 295.488 
L 129.473059 276.878769 
L 129.514349 221.051077 
L 129.528112 295.488 
L 129.997898 276.878769 
L 130.039188 221.051077 
L 130.057539 295.488 
L 130.448416 276.878769 
L 130.489706 221.051077 
L 130.508057 295.488 
L 130.929213 276.878769 
L 130.969586 221.051077 
L 130.984267 295.488 
L 131.4513 276.878769 
L 131.49259 221.051077 
L 131.507271 295.488 
L 131.926592 276.878769 
L 131.967882 221.051077 
L 131.982563 295.488 
L 132.433998 276.878769 
L 132.475288 221.051077 
L 132.489969 295.488 
L 132.960673 276.878769 
L 133.001963 221.051077 
L 133.015726 295.488 
L 133.480007 276.878769 
L 133.520379 221.051077 
L 133.53506 295.488 
L 133.969062 276.878769 
L 134.010352 221.051077 
L 134.024115 295.488 
L 134.499407 276.878769 
L 134.540697 221.051077 
L 134.55446 295.488 
L 135.070124 276.878769 
L 135.102238 239.660308 
L 135.12426 295.488 
L 135.580283 276.878769 
L 135.643594 295.488 
L 135.681213 276.878769 
L 136.139072 239.660308 
L 136.214311 295.488 
L 136.596012 258.269538 
L 136.828153 239.660308 
L 136.918073 295.488 
L 137.290599 258.269538 
L 137.755798 221.051077 
L 137.874162 295.488 
L 137.984268 276.878769 
L 138.665091 221.051077 
L 138.803642 295.488 
L 138.892644 276.878769 
L 139.578973 221.051077 
L 139.691832 295.488 
L 140.038666 258.269538 
L 140.272642 239.660308 
L 140.558918 295.488 
L 140.95897 258.269538 
L 141.65998 202.441846 
L 141.822387 295.488 
L 141.889368 276.878769 
L 142.579367 221.051077 
L 142.722505 295.488 
L 142.808755 276.878769 
L 143.495083 221.051077 
L 143.564817 295.488 
L 143.962117 258.269538 
L 144.415387 221.051077 
L 144.521823 295.488 
L 144.873246 258.269538 
L 145.338444 221.051077 
L 145.463231 295.488 
L 145.566915 276.878769 
L 146.255079 221.051077 
L 146.372525 295.488 
L 146.489972 276.878769 
L 147.183641 221.051077 
L 147.290077 295.488 
L 147.633241 258.269538 
L 148.087429 221.051077 
L 148.241578 295.488 
L 148.322322 276.878769 
L 149.011404 221.051077 
L 149.127933 295.488 
L 149.241709 276.878769 
L 149.936296 221.051077 
L 149.997772 295.488 
L 150.395989 258.269538 
L 150.858435 221.051077 
L 150.988727 295.488 
L 151.090576 276.878769 
L 151.786997 221.051077 
L 151.856731 295.488 
L 152.242103 258.269538 
L 152.696291 221.051077 
L 152.758685 295.488 
L 153.383537 239.660308 
L 153.616595 221.051077 
L 153.753311 295.488 
L 153.845066 276.878769 
L 154.535982 221.051077 
L 154.659852 295.488 
L 154.764452 276.878769 
L 155.220476 258.269538 
L 155.683839 221.051077 
L 155.793945 295.488 
L 161.625904 276.878769 
L 161.695638 183.832615 
L 162.113124 165.223385 
L 162.154413 109.395692 
L 162.169094 295.488 
L 162.652644 276.878769 
L 162.693934 221.051077 
L 162.708615 295.488 
L 163.20501 276.878769 
L 163.2463 221.051077 
L 163.260063 295.488 
L 163.678467 276.878769 
L 163.720674 221.051077 
L 163.734437 295.488 
L 164.160181 276.878769 
L 164.201471 221.051077 
L 164.215234 295.488 
L 164.659329 276.878769 
L 164.686856 239.660308 
L 164.714382 295.488 
L 164.818066 276.878769 
L 165.197932 258.269538 
L 165.216283 239.660308 
L 165.252985 295.488 
L 165.295193 276.878769 
L 165.704421 258.269538 
L 165.752133 239.660308 
L 165.769567 295.488 
L 166.209992 258.269538 
L 166.287984 295.488 
L 166.668767 258.269538 
L 166.898155 239.660308 
L 167.004591 295.488 
L 172.637441 276.878769 
L 172.706257 183.832615 
L 173.1476 165.223385 
L 173.189807 109.395692 
L 173.202653 295.488 
L 173.669687 276.878769 
L 173.710976 221.051077 
L 173.72474 295.488 
L 174.190856 276.878769 
L 174.231228 221.051077 
L 174.245909 295.488 
L 174.645961 276.878769 
L 174.687251 221.051077 
L 174.701932 295.488 
L 175.141439 276.878769 
L 175.182729 221.051077 
L 175.19741 295.488 
L 175.635082 276.878769 
L 175.680042 221.051077 
L 175.690135 295.488 
L 176.176438 276.878769 
L 176.194789 258.269538 
L 176.232408 295.488 
L 176.323246 276.878769 
L 176.699442 258.269538 
L 176.763671 295.488 
L 176.783857 276.878769 
L 177.238045 239.660308 
L 177.28117 295.488 
L 177.701408 258.269538 
L 178.013376 295.488 
L 183.440694 276.878769 
L 183.648061 258.269538 
L 183.715959 165.223385 
L 184.183911 146.614154 
L 184.226118 90.786462 
L 184.239881 295.488 
L 184.737194 276.878769 
L 184.777567 221.051077 
L 184.79133 295.488 
L 185.273045 276.878769 
L 185.313417 221.051077 
L 185.328098 295.488 
L 185.817153 276.878769 
L 185.858443 239.660308 
L 185.873123 258.269538 
L 186.366766 239.660308 
L 186.499811 295.488 
L 186.592484 276.878769 
L 186.853986 258.269538 
L 186.890688 295.488 
L 187.168706 276.878769 
L 187.232935 295.488 
L 187.271472 276.878769 
L 187.58344 295.488 
L 187.602708 276.878769 
L 187.927522 258.269538 
L 188.008266 295.488 
L 188.564302 258.269538 
L 188.667986 295.488 
L 189.196495 258.269538 
L 189.319447 295.488 
L 189.517639 276.878769 
L 189.834194 258.269538 
L 189.935125 295.488 
L 190.482903 258.269538 
L 190.575576 295.488 
L 191.113261 258.269538 
L 191.22979 295.488 
L 191.760135 258.269538 
L 191.888592 295.488 
L 192.081278 276.878769 
L 192.400586 258.269538 
L 192.468485 295.488 
L 193.0548 258.269538 
L 193.14472 295.488 
L 193.695251 258.269538 
L 193.785171 295.488 
L 194.328362 258.269538 
L 194.440303 295.488 
L 194.980741 258.269538 
L 195.108281 295.488 
L 195.296379 276.878769 
L 195.617522 258.269538 
L 195.734968 295.488 
L 195.937747 276.878769 
L 196.25889 258.269538 
L 196.394688 295.488 
L 196.585539 276.878769 
L 196.908517 258.269538 
L 197.014035 295.488 
L 197.219567 276.878769 
L 197.541628 258.269538 
L 197.663662 295.488 
L 197.865523 276.878769 
L 198.183914 258.269538 
L 198.316041 295.488 
L 198.510562 276.878769 
L 198.835375 258.269538 
L 198.925296 295.488 
L 199.480414 258.269538 
L 199.602449 295.488 
L 199.795134 276.878769 
L 200.124536 258.269538 
L 200.202527 295.488 
L 200.769574 258.269538 
L 200.896196 295.488 
L 201.090717 276.878769 
L 201.419201 258.269538 
L 201.536647 295.488 
L 201.742179 276.878769 
L 202.061487 258.269538 
L 202.185357 295.488 
L 202.385383 276.878769 
L 202.716619 258.269538 
L 202.808374 295.488 
L 203.3534 258.269538 
L 203.422216 295.488 
L 203.992016 258.269538 
L 204.089276 295.488 
L 204.641642 258.269538 
L 204.754501 295.488 
L 204.958198 276.878769 
L 205.279341 258.269538 
L 205.341734 295.488 
L 205.921627 258.269538 
L 206.004206 295.488 
L 206.563913 258.269538 
L 206.6887 295.488 
L 206.890561 276.878769 
L 207.216292 258.269538 
L 207.296119 295.488 
L 207.848485 258.269538 
L 207.926477 295.488 
L 208.497194 258.269538 
L 208.578856 295.488 
L 209.125717 258.269538 
L 209.241329 295.488 
L 209.444108 276.878769 
L 209.76158 258.269538 
L 209.861594 295.488 
L 210.394691 258.269538 
L 210.51489 295.488 
L 210.719504 276.878769 
L 211.03973 258.269538 
L 211.117722 295.488 
L 211.674676 258.269538 
L 211.769183 295.488 
L 212.322467 258.269538 
L 212.41514 295.488 
L 212.972094 258.269538 
L 213.062931 295.488 
L 213.606122 258.269538 
L 213.74926 295.488 
L 213.931853 276.878769 
L 214.254831 258.269538 
L 214.32273 295.488 
L 214.887941 258.269538 
L 214.965016 295.488 
L 215.530228 258.269538 
L 215.599962 295.488 
L 216.163338 258.269538 
L 216.267022 295.488 
L 216.804707 258.269538 
L 216.882699 295.488 
L 217.449746 258.269538 
L 217.553429 295.488 
L 218.099372 258.269538 
L 218.188375 295.488 
L 218.747164 258.269538 
L 218.873786 295.488 
L 219.071977 276.878769 
L 219.383945 258.269538 
L 219.884928 239.660308 
L 219.949156 295.488 
L 226.960168 276.878769 
L 227.43913 221.051077 
L 227.494184 128.004923 
L 227.899741 109.395692 
L 227.932773 53.568 
L 227.957547 295.488 
L 228.358517 276.878769 
L 228.391549 221.051077 
L 228.416323 295.488 
L 228.871429 276.878769 
L 228.90446 221.051077 
L 228.929234 295.488 
L 229.367824 276.878769 
L 229.400856 221.051077 
L 229.42563 295.488 
L 229.888076 276.878769 
L 229.921108 221.051077 
L 229.946799 295.488 
L 230.385389 276.878769 
L 230.418421 221.051077 
L 230.444112 295.488 
L 230.8983 276.878769 
L 230.931332 221.051077 
L 230.956106 295.488 
L 231.367169 276.878769 
L 231.38919 239.660308 
L 231.425892 295.488 
L 231.873657 276.878769 
L 231.937886 295.488 
L 247.873923 276.878769 
L 248.79331 183.832615 
L 248.807991 295.488 
L 249.46037 221.051077 
L 249.568641 109.395692 
L 249.593415 295.488 
L 250.005396 276.878769 
L 250.038427 221.051077 
L 250.063201 295.488 
L 250.451326 276.878769 
L 250.48344 221.051077 
L 250.509131 295.488 
L 250.951391 276.878769 
L 250.980753 221.051077 
L 251.010115 295.488 
L 251.447787 276.878769 
L 251.480819 221.051077 
L 251.511098 295.488 
L 251.923996 276.878769 
L 251.957028 221.051077 
L 251.981802 295.488 
L 252.451588 276.878769 
L 252.48462 221.051077 
L 252.508476 295.488 
L 252.903941 276.878769 
L 252.936973 221.051077 
L 252.961747 295.488 
L 253.448049 276.878769 
L 253.480164 221.051077 
L 253.506773 295.488 
L 253.923341 276.878769 
L 253.955455 221.051077 
L 253.982064 295.488 
L 254.457356 276.878769 
L 254.490388 221.051077 
L 254.516997 295.488 
L 256.789772 276.878769 
L 256.821887 221.051077 
L 257.264147 202.441846 
L 257.296261 146.614154 
L 257.321952 295.488 
L 257.763295 276.878769 
L 257.796327 221.051077 
L 257.822018 295.488 
L 258.265195 276.878769 
L 258.29731 221.051077 
L 258.323919 295.488 
L 258.787282 276.878769 
L 258.820314 221.051077 
L 258.846006 295.488 
L 259.287348 276.878769 
L 259.32038 221.051077 
L 259.345154 295.488 
L 259.774568 276.878769 
L 259.8076 221.051077 
L 259.832374 295.488 
L 260.280139 276.878769 
L 260.313171 221.051077 
L 260.337945 295.488 
L 260.763689 276.878769 
L 260.79672 221.051077 
L 260.822412 295.488 
L 261.265589 276.878769 
L 261.298621 221.051077 
L 261.323395 295.488 
L 261.806945 276.878769 
L 261.839977 221.051077 
L 261.864751 295.488 
L 262.313433 276.878769 
L 262.346465 221.051077 
L 262.371239 295.488 
L 262.79056 276.878769 
L 262.823592 221.051077 
L 262.849283 295.488 
L 263.256676 276.878769 
L 263.289708 221.051077 
L 263.314482 295.488 
L 263.797114 276.878769 
L 263.831064 221.051077 
L 263.855838 295.488 
L 264.290757 276.878769 
L 264.323789 221.051077 
L 264.348563 295.488 
L 264.763296 276.878769 
L 264.796328 221.051077 
L 264.821102 295.488 
L 265.229412 276.878769 
L 265.262444 221.051077 
L 265.288136 295.488 
L 265.76618 276.878769 
L 265.799212 221.051077 
L 265.823986 295.488 
L 266.263493 276.878769 
L 266.30203 221.051077 
L 266.321299 295.488 
L 266.753466 276.878769 
L 266.780075 239.660308 
L 266.811271 295.488 
L 266.869077 276.878769 
L 267.22784 258.269538 
L 267.243438 239.660308 
L 267.285646 295.488 
L 267.603119 258.269538 
L 267.777453 295.488 
L 267.791217 276.878769 
L 268.158237 239.660308 
L 268.329819 295.488 
L 268.339912 276.878769 
L 268.706933 239.660308 
L 268.82071 295.488 
L 268.888608 276.878769 
L 269.44281 221.051077 
L 269.445562 295.488 
L 269.80616 258.269538 
L 270.231904 295.488 
L 281.00029 276.878769 
L 281.916924 183.832615 
L 281.923347 295.488 
L 282.28945 258.269538 
L 282.671152 109.395692 
L 282.695008 295.488 
L 283.14002 276.878769 
L 283.173052 221.051077 
L 283.198744 295.488 
L 283.648344 276.878769 
L 283.682294 221.051077 
L 283.707067 295.488 
L 284.161255 276.878769 
L 284.190617 221.051077 
L 284.219979 295.488 
L 284.642053 276.878769 
L 284.675084 221.051077 
L 284.703528 295.488 
L 285.099911 276.878769 
L 285.132943 221.051077 
L 285.157717 295.488 
L 285.609152 276.878769 
L 285.642184 221.051077 
L 285.666958 295.488 
L 286.112888 276.878769 
L 286.145002 221.051077 
L 286.170694 295.488 
L 286.592767 276.878769 
L 286.624882 221.051077 
L 286.650573 295.488 
L 287.113019 276.878769 
L 287.146051 221.051077 
L 287.171742 295.488 
L 287.627766 276.878769 
L 287.660797 221.051077 
L 287.686489 295.488 
L 288.092047 276.878769 
L 288.125079 221.051077 
L 288.149852 295.488 
L 288.591195 276.878769 
L 288.625144 221.051077 
L 288.649001 295.488 
L 289.135303 276.878769 
L 289.167417 221.051077 
L 289.193109 295.488 
L 289.609677 276.878769 
L 289.642709 221.051077 
L 289.667483 295.488 
L 290.143692 276.878769 
L 290.176724 221.051077 
L 290.201498 295.488 
L 290.629077 276.878769 
L 290.661191 221.051077 
L 290.686883 295.488 
L 291.175938 276.878769 
L 291.20897 221.051077 
L 291.234661 295.488 
L 291.649394 276.878769 
L 291.682426 221.051077 
L 291.7072 295.488 
L 292.14579 276.878769 
L 292.178822 221.051077 
L 292.204513 295.488 
L 292.653196 276.878769 
L 292.679805 239.660308 
L 292.711002 295.488 
L 308.524087 276.878769 
L 309.436133 183.832615 
L 309.608633 295.488 
L 309.621478 276.878769 
L 309.806824 258.269538 
L 309.887568 183.832615 
L 309.90959 146.614154 
L 310.307807 128.004923 
L 310.348179 258.269538 
L 310.812461 239.660308 
L 310.906968 276.878769 
L 310.978537 258.269538 
L 310.984043 295.488 
L 311.006981 276.878769 
L 311.339135 258.269538 
L 311.362074 239.660308 
L 311.379507 295.488 
L 311.669454 276.878769 
L 311.69698 258.269538 
L 311.714414 295.488 
L 311.987844 276.878769 
L 312.015371 258.269538 
L 312.030052 295.488 
L 312.3567 276.878769 
L 312.383309 258.269538 
L 312.39799 295.488 
L 312.706287 276.878769 
L 312.732896 258.269538 
L 312.747577 295.488 
L 313.051287 276.878769 
L 313.079731 258.269538 
L 313.093494 295.488 
L 313.399039 276.878769 
L 313.426565 258.269538 
L 313.440328 295.488 
L 313.754131 276.878769 
L 313.781658 258.269538 
L 313.796338 295.488 
L 314.100048 276.878769 
L 314.127575 258.269538 
L 314.141338 295.488 
L 314.486337 276.878769 
L 314.513864 258.269538 
L 314.527627 295.488 
L 314.84877 276.878769 
L 314.876297 258.269538 
L 314.89006 295.488 
L 315.183677 276.878769 
L 315.211203 258.269538 
L 315.224966 295.488 
L 315.541522 276.878769 
L 315.569048 258.269538 
L 315.582812 295.488 
L 315.896614 276.878769 
L 315.924141 258.269538 
L 315.937904 295.488 
L 316.279233 276.878769 
L 316.320523 295.488 
L 316.67378 258.269538 
L 316.710482 295.488 
L 317.011439 276.878769 
L 317.075668 295.488 
L 317.20229 276.878769 
L 317.444524 295.488 
L 317.51701 276.878769 
L 317.835401 258.269538 
L 317.965693 295.488 
L 318.160214 276.878769 
L 318.478604 258.269538 
L 318.598804 295.488 
L 319.118138 276.878769 
L 319.438364 258.269538 
L 319.522778 295.488 
L 320.076062 258.269538 
L 320.199931 295.488 
L 320.40271 276.878769 
L 320.717431 258.269538 
L 320.824784 295.488 
L 321.353294 258.269538 
L 321.45606 295.488 
L 322.00292 258.269538 
L 322.143306 295.488 
L 322.325899 276.878769 
L 322.646124 258.269538 
L 322.755313 295.488 
L 323.296668 258.269538 
L 323.37466 295.488 
L 323.941707 258.269538 
L 324.071999 295.488 
L 324.256427 276.878769 
L 324.575735 258.269538 
L 324.691347 295.488 
L 324.896878 276.878769 
L 325.296013 295.488 
L 330.724249 276.878769 
L 331.36837 239.660308 
L 331.483064 295.488 
L 332.064792 239.660308 
L 332.134526 202.441846 
L 332.148289 295.488 
L 332.48136 276.878769 
L 332.508887 258.269538 
L 332.523568 295.488 
L 332.873155 276.878769 
L 332.900681 258.269538 
L 332.914445 295.488 
L 333.245681 276.878769 
L 333.273207 258.269538 
L 333.290641 295.488 
L 333.571411 276.878769 
L 333.599856 258.269538 
L 333.617289 295.488 
L 333.93935 276.878769 
L 333.966876 258.269538 
L 333.98064 295.488 
L 334.265998 276.878769 
L 334.293525 258.269538 
L 334.308205 295.488 
L 334.644947 276.878769 
L 334.672473 258.269538 
L 334.687154 295.488 
L 334.979853 276.878769 
L 335.022061 295.488 
L 335.117486 276.878769 
L 335.357885 258.269538 
L 335.394587 295.488 
L 335.692791 276.878769 
L 335.757019 295.488 
L 335.793722 276.878769 
L 336.099266 295.488 
L 336.123123 276.878769 
L 336.442431 258.269538 
L 336.555289 295.488 
L 336.766326 276.878769 
L 337.09114 258.269538 
L 337.226937 295.488 
L 337.410448 276.878769 
L 337.841697 295.488 
L 348.806439 276.878769 
L 348.889019 165.223385 
L 349.331279 146.614154 
L 349.372568 90.786462 
L 349.387249 295.488 
L 349.849695 276.878769 
L 349.890985 221.051077 
L 349.904748 295.488 
L 350.325904 276.878769 
L 350.377287 295.488 
L 352.216061 276.878769 
L 359.826234 258.269538 
L 360.05654 239.660308 
L 360.111593 165.223385 
L 360.55844 146.614154 
L 360.59973 90.786462 
L 360.613494 295.488 
L 361.064011 276.878769 
L 361.105301 221.051077 
L 361.119064 295.488 
L 361.596191 276.878769 
L 361.637481 221.051077 
L 361.651244 295.488 
L 362.096257 276.878769 
L 362.137547 221.051077 
L 362.15131 295.488 
L 362.622014 276.878769 
L 362.663304 221.051077 
L 362.677067 295.488 
L 363.096388 276.878769 
L 363.142266 221.051077 
L 363.151441 295.488 
L 363.649672 276.878769 
L 363.681786 239.660308 
L 363.704725 295.488 
L 364.137809 276.878769 
L 364.202038 295.488 
L 364.58741 258.269538 
L 364.735136 295.488 
L 364.818633 276.878769 
L 365.504961 221.051077 
L 365.645347 295.488 
L 365.740772 276.878769 
L 366.430771 221.051077 
L 366.495 295.488 
L 366.895052 258.269538 
L 367.127193 239.660308 
L 367.429067 295.488 
L 367.815356 276.878769 
L 368.734743 202.441846 
L 368.809065 295.488 
L 379.972916 276.878769 
L 380.658327 221.051077 
L 380.805135 295.488 
L 380.882209 276.878769 
L 381.34649 239.660308 
L 381.448339 202.441846 
L 381.462102 183.832615 
L 381.696078 165.223385 
L 381.73645 109.395692 
L 381.750213 295.488 
L 382.218165 276.878769 
L 382.258537 221.051077 
L 382.273218 295.488 
L 382.746674 276.878769 
L 382.779706 239.660308 
L 382.802645 295.488 
L 387.137159 276.878769 
L 387.33535 258.269538 
L 387.37664 202.441846 
L 387.596852 183.832615 
L 387.638142 128.004923 
L 387.655576 295.488 
L 388.094165 276.878769 
L 388.135455 221.051077 
L 388.149218 295.488 
L 388.612582 276.878769 
L 388.652954 221.051077 
L 388.667635 295.488 
L 389.169536 276.878769 
L 389.209908 221.051077 
L 389.225506 295.488 
L 389.665931 276.878769 
L 389.707221 221.051077 
L 389.721902 295.488 
L 390.222885 276.878769 
L 390.264175 221.051077 
L 390.277938 295.488 
L 390.737632 276.878769 
L 390.778921 221.051077 
L 390.793602 295.488 
L 391.255131 276.878769 
L 391.287245 239.660308 
L 391.310184 295.488 
L 391.407444 276.878769 
L 391.73134 258.269538 
L 391.782723 295.488 
L 391.86989 276.878769 
L 392.098361 258.269538 
L 392.297469 295.488 
L 392.327749 276.878769 
L 392.790195 239.660308 
L 392.935168 295.488 
L 393.01683 276.878769 
L 393.708664 221.051077 
L 393.81877 295.488 
L 393.938052 276.878769 
L 394.628968 221.051077 
L 394.74825 295.488 
L 394.861109 276.878769 
L 395.547437 221.051077 
L 395.615336 295.488 
L 396.007131 258.269538 
L 396.466824 221.051077 
L 396.612715 295.488 
L 396.690707 276.878769 
L 397.382541 221.051077 
L 397.444017 295.488 
L 397.840399 258.269538 
L 398.067034 239.660308 
L 398.487273 295.488 
L 398.487273 295.488 
" clip-path="url(#pec92d991f4)" style="fill: none; stroke: #1f77b4; stroke-width: 1.5; stroke-linecap: square"/>
   </g>
   <g id="patch_3">
    <path d="M 57.6 307.584 
L 57.6 41.472 
" style="fill: none; stroke: #000000; stroke-width: 0.8; stroke-linejoin: miter; stroke-linecap: square"/>
   </g>
   <g id="patch_4">
    <path d="M 414.72 307.584 
L 414.72 41.472 
" style="fill: none; stroke: #000000; stroke-width: 0.8; stroke-linejoin: miter; stroke-linecap: square"/>
   </g>
   <g id="patch_5">
    <path d="M 57.6 307.584 
L 414.72 307.584 
" style="fill: none; stroke: #000000; stroke-width: 0.8; stroke-linejoin: miter; stroke-linecap: square"/>
   </g>
   <g id="patch_6">
    <path d="M 57.6 41.472 
L 414.72 41.472 
" style="fill: none; stroke: #000000; stroke-width: 0.8; stroke-linejoin: miter; stroke-linecap: square"/>
   </g>
   <g id="text_17">
    <!-- Queue size (y-axis) between S6 and sensors that follow at a time (x-axis). -->
    <g transform="translate(14.282813 35.472) scale(0.12 -0.12)">
     <defs>
      <path id="DejaVuSans-51" d="M 2522 4238 
Q 1834 4238 1429 3725 
Q 1025 3213 1025 2328 
Q 1025 1447 1429 934 
Q 1834 422 2522 422 
Q 3209 422 3611 934 
Q 4013 1447 4013 2328 
Q 4013 3213 3611 3725 
Q 3209 4238 2522 4238 
z
M 3406 84 
L 4238 -825 
L 3475 -825 
L 2784 -78 
Q 2681 -84 2626 -87 
Q 2572 -91 2522 -91 
Q 1538 -91 948 567 
Q 359 1225 359 2328 
Q 359 3434 948 4092 
Q 1538 4750 2522 4750 
Q 3503 4750 4090 4092 
Q 4678 3434 4678 2328 
Q 4678 1516 4351 937 
Q 4025 359 3406 84 
z
" transform="scale(0.015625)"/>
      <path id="DejaVuSans-75" d="M 544 1381 
L 544 3500 
L 1119 3500 
L 1119 1403 
Q 1119 906 1312 657 
Q 1506 409 1894 409 
Q 2359 409 2629 706 
Q 2900 1003 2900 1516 
L 2900 3500 
L 3475 3500 
L 3475 0 
L 2900 0 
L 2900 538 
Q 2691 219 2414 64 
Q 2138 -91 1772 -91 
Q 1169 -91 856 284 
Q 544 659 544 1381 
z
M 1991 3584 
L 1991 3584 
z
" transform="scale(0.015625)"/>
      <path id="DejaVuSans-20" transform="scale(0.015625)"/>
      <path id="DejaVuSans-73" d="M 2834 3397 
L 2834 2853 
Q 2591 2978 2328 3040 
Q 2066 3103 1784 3103 
Q 1356 3103 1142 2972 
Q 928 2841 928 2578 
Q 928 2378 1081 2264 
Q 1234 2150 1697 2047 
L 1894 2003 
Q 2506 1872 2764 1633 
Q 3022 1394 3022 966 
Q 3022 478 2636 193 
Q 2250 -91 1575 -91 
Q 1294 -91 989 -36 
Q 684 19 347 128 
L 347 722 
Q 666 556 975 473 
Q 1284 391 1588 391 
Q 1994 391 2212 530 
Q 2431 669 2431 922 
Q 2431 1156 2273 1281 
Q 2116 1406 1581 1522 
L 1381 1569 
Q 847 1681 609 1914 
Q 372 2147 372 2553 
Q 372 3047 722 3315 
Q 1072 3584 1716 3584 
Q 2034 3584 2315 3537 
Q 2597 3491 2834 3397 
z
" transform="scale(0.015625)"/>
      <path id="DejaVuSans-69" d="M 603 3500 
L 1178 3500 
L 1178 0 
L 603 0 
L 603 3500 
z
M 603 4863 
L 1178 4863 
L 1178 4134 
L 603 4134 
L 603 4863 
z
" transform="scale(0.015625)"/>
      <path id="DejaVuSans-7a" d="M 353 3500 
L 3084 3500 
L 3084 2975 
L 922 459 
L 3084 459 
L 3084 0 
L 275 0 
L 275 525 
L 2438 3041 
L 353 3041 
L 353 3500 
z
" transform="scale(0.015625)"/>
      <path id="DejaVuSans-28" d="M 1984 4856 
Q 1566 4138 1362 3434 
Q 1159 2731 1159 2009 
Q 1159 1288 1364 580 
Q 1569 -128 1984 -844 
L 1484 -844 
Q 1016 -109 783 600 
Q 550 1309 550 2009 
Q 550 2706 781 3412 
Q 1013 4119 1484 4856 
L 1984 4856 
z
" transform="scale(0.015625)"/>
      <path id="DejaVuSans-79" d="M 2059 -325 
Q 1816 -950 1584 -1140 
Q 1353 -1331 966 -1331 
L 506 -1331 
L 506 -850 
L 844 -850 
Q 1081 -850 1212 -737 
Q 1344 -625 1503 -206 
L 1606 56 
L 191 3500 
L 800 3500 
L 1894 763 
L 2988 3500 
L 3597 3500 
L 2059 -325 
z
" transform="scale(0.015625)"/>
      <path id="DejaVuSans-2d" d="M 313 2009 
L 1997 2009 
L 1997 1497 
L 313 1497 
L 313 2009 
z
" transform="scale(0.015625)"/>
      <path id="DejaVuSans-61" d="M 2194 1759 
Q 1497 1759 1228 1600 
Q 959 1441 959 1056 
Q 959 750 1161 570 
Q 1363 391 1709 391 
Q 2188 391 2477 730 
Q 2766 1069 2766 1631 
L 2766 1759 
L 2194 1759 
z
M 3341 1997 
L 3341 0 
L 2766 0 
L 2766 531 
Q 2569 213 2275 61 
Q 1981 -91 1556 -91 
Q 1019 -91 701 211 
Q 384 513 384 1019 
Q 384 1609 779 1909 
Q 1175 2209 1959 2209 
L 2766 2209 
L 2766 2266 
Q 2766 2663 2505 2880 
Q 2244 3097 1772 3097 
Q 1472 3097 1187 3025 
Q 903 2953 641 2809 
L 641 3341 
Q 956 3463 1253 3523 
Q 1550 3584 1831 3584 
Q 2591 3584 2966 3190 
Q 3341 2797 3341 1997 
z
" transform="scale(0.015625)"/>
      <path id="DejaVuSans-78" d="M 3513 3500 
L 2247 1797 
L 3578 0 
L 2900 0 
L 1881 1375 
L 863 0 
L 184 0 
L 1544 1831 
L 300 3500 
L 978 3500 
L 1906 2253 
L 2834 3500 
L 3513 3500 
z
" transform="scale(0.015625)"/>
      <path id="DejaVuSans-29" d="M 513 4856 
L 1013 4856 
Q 1481 4119 1714 3412 
Q 1947 2706 1947 2009 
Q 1947 1309 1714 600 
Q 1481 -109 1013 -844 
L 513 -844 
Q 928 -128 1133 580 
Q 1338 1288 1338 2009 
Q 1338 2731 1133 3434 
Q 928 4138 513 4856 
z
" transform="scale(0.015625)"/>
      <path id="DejaVuSans-62" d="M 3116 1747 
Q 3116 2381 2855 2742 
Q 2594 3103 2138 3103 
Q 1681 3103 1420 2742 
Q 1159 2381 1159 1747 
Q 1159 1113 1420 752 
Q 1681 391 2138 391 
Q 2594 391 2855 752 
Q 3116 1113 3116 1747 
z
M 1159 2969 
Q 1341 3281 1617 3432 
Q 1894 3584 2278 3584 
Q 2916 3584 3314 3078 
Q 3713 2572 3713 1747 
Q 3713 922 3314 415 
Q 2916 -91 2278 -91 
Q 1894 -91 1617 61 
Q 1341 213 1159 525 
L 1159 0 
L 581 0 
L 581 4863 
L 1159 4863 
L 1159 2969 
z
" transform="scale(0.015625)"/>
      <path id="DejaVuSans-74" d="M 1172 4494 
L 1172 3500 
L 2356 3500 
L 2356 3053 
L 1172 3053 
L 1172 1153 
Q 1172 725 1289 603 
Q 1406 481 1766 481 
L 2356 481 
L 2356 0 
L 1766 0 
Q 1100 0 847 248 
Q 594 497 594 1153 
L 594 3053 
L 172 3053 
L 172 3500 
L 594 3500 
L 594 4494 
L 1172 4494 
z
" transform="scale(0.015625)"/>
      <path id="DejaVuSans-77" d="M 269 3500 
L 844 3500 
L 1563 769 
L 2278 3500 
L 2956 3500 
L 3675 769 
L 4391 3500 
L 4966 3500 
L 4050 0 
L 3372 0 
L 2619 2869 
L 1863 0 
L 1184 0 
L 269 3500 
z
" transform="scale(0.015625)"/>
      <path id="DejaVuSans-6e" d="M 3513 2113 
L 3513 0 
L 2938 0 
L 2938 2094 
Q 2938 2591 2744 2837 
Q 2550 3084 2163 3084 
Q 1697 3084 1428 2787 
Q 1159 2491 1159 1978 
L 1159 0 
L 581 0 
L 581 3500 
L 1159 3500 
L 1159 2956 
Q 1366 3272 1645 3428 
Q 1925 3584 2291 3584 
Q 2894 3584 3203 3211 
Q 3513 2838 3513 2113 
z
" transform="scale(0.015625)"/>
      <path id="DejaVuSans-53" d="M 3425 4513 
L 3425 3897 
Q 3066 4069 2747 4153 
Q 2428 4238 2131 4238 
Q 1616 4238 1336 4038 
Q 1056 3838 1056 3469 
Q 1056 3159 1242 3001 
Q 1428 2844 1947 2747 
L 2328 2669 
Q 3034 2534 3370 2195 
Q 3706 1856 3706 1288 
Q 3706 609 3251 259 
Q 2797 -91 1919 -91 
Q 1588 -91 1214 -16 
Q 841 59 441 206 
L 441 856 
Q 825 641 1194 531 
Q 1563 422 1919 422 
Q 2459 422 2753 634 
Q 3047 847 3047 1241 
Q 3047 1584 2836 1778 
Q 2625 1972 2144 2069 
L 1759 2144 
Q 1053 2284 737 2584 
Q 422 2884 422 3419 
Q 422 4038 858 4394 
Q 1294 4750 2059 4750 
Q 2388 4750 2728 4690 
Q 3069 4631 3425 4513 
z
" transform="scale(0.015625)"/>
      <path id="DejaVuSans-64" d="M 2906 2969 
L 2906 4863 
L 3481 4863 
L 3481 0 
L 2906 0 
L 2906 525 
Q 2725 213 2448 61 
Q 2172 -91 1784 -91 
Q 1150 -91 751 415 
Q 353 922 353 1747 
Q 353 2572 751 3078 
Q 1150 3584 1784 3584 
Q 2172 3584 2448 3432 
Q 2725 3281 2906 2969 
z
M 947 1747 
Q 947 1113 1208 752 
Q 1469 391 1925 391 
Q 2381 391 2643 752 
Q 2906 1113 2906 1747 
Q 2906 2381 2643 2742 
Q 2381 3103 1925 3103 
Q 1469 3103 1208 2742 
Q 947 2381 947 1747 
z
" transform="scale(0.015625)"/>
      <path id="DejaVuSans-6f" d="M 1959 3097 
Q 1497 3097 1228 2736 
Q 959 2375 959 1747 
Q 959 1119 1226 758 
Q 1494 397 1959 397 
Q 2419 397 2687 759 
Q 2956 1122 2956 1747 
Q 2956 2369 2687 2733 
Q 2419 3097 1959 3097 
z
M 1959 3584 
Q 2709 3584 3137 3096 
Q 3566 2609 3566 1747 
Q 3566 888 3137 398 
Q 2709 -91 1959 -91 
Q 1206 -91 779 398 
Q 353 888 353 1747 
Q 353 2609 779 3096 
Q 1206 3584 1959 3584 
z
" transform="scale(0.015625)"/>
      <path id="DejaVuSans-72" d="M 2631 2963 
Q 2534 3019 2420 3045 
Q 2306 3072 2169 3072 
Q 1681 3072 1420 2755 
Q 1159 2438 1159 1844 
L 1159 0 
L 581 0 
L 581 3500 
L 1159 3500 
L 1159 2956 
Q 1341 3275 1631 3429 
Q 1922 3584 2338 3584 
Q 2397 3584 2469 3576 
Q 2541 3569 2628 3553 
L 2631 2963 
z
" transform="scale(0.015625)"/>
      <path id="DejaVuSans-68" d="M 3513 2113 
L 3513 0 
L 2938 0 
L 2938 2094 
Q 2938 2591 2744 2837 
Q 2550 3084 2163 3084 
Q 1697 3084 1428 2787 
Q 1159 2491 1159 1978 
L 1159 0 
L 581 0 
L 581 4863 
L 1159 4863 
L 1159 2956 
Q 1366 3272 1645 3428 
Q 1925 3584 2291 3584 
Q 2894 3584 3203 3211 
Q 3513 2838 3513 2113 
z
" transform="scale(0.015625)"/>
      <path id="DejaVuSans-66" d="M 2375 4863 
L 2375 4384 
L 1825 4384 
Q 1516 4384 1395 4259 
Q 1275 4134 1275 3809 
L 1275 3500 
L 2222 3500 
L 2222 3053 
L 1275 3053 
L 1275 0 
L 697 0 
L 697 3053 
L 147 3053 
L 147 3500 
L 697 3500 
L 697 3744 
Q 697 4328 969 4595 
Q 1241 4863 1831 4863 
L 2375 4863 
z
" transform="scale(0.015625)"/>
      <path id="DejaVuSans-6c" d="M 603 4863 
L 1178 4863 
L 1178 0 
L 603 0 
L 603 4863 
z
" transform="scale(0.015625)"/>
      <path id="DejaVuSans-6d" d="M 3328 2828 
Q 3544 3216 3844 3400 
Q 4144 3584 4550 3584 
Q 5097 3584 5394 3201 
Q 5691 2819 5691 2113 
L 5691 0 
L 5113 0 
L 5113 2094 
Q 5113 2597 4934 2840 
Q 4756 3084 4391 3084 
Q 3944 3084 3684 2787 
Q 3425 2491 3425 1978 
L 3425 0 
L 2847 0 
L 2847 2094 
Q 2847 2600 2669 2842 
Q 2491 3084 2119 3084 
Q 1678 3084 1418 2786 
Q 1159 2488 1159 1978 
L 1159 0 
L 581 0 
L 581 3500 
L 1159 3500 
L 1159 2956 
Q 1356 3278 1631 3431 
Q 1906 3584 2284 3584 
Q 2666 3584 2933 3390 
Q 3200 3197 3328 2828 
z
" transform="scale(0.015625)"/>
     </defs>
     <use xlink:href="#DejaVuSans-51"/>
     <use xlink:href="#DejaVuSans-75" x="78.710938"/>
     <use xlink:href="#DejaVuSans-65" x="142.089844"/>
     <use xlink:href="#DejaVuSans-75" x="203.613281"/>
     <use xlink:href="#DejaVuSans-65" x="266.992188"/>
     <use xlink:href="#DejaVuSans-20" x="328.515625"/>
     <use xlink:href="#DejaVuSans-73" x="360.302734"/>
     <use xlink:href="#DejaVuSans-69" x="412.402344"/>
     <use xlink:href="#DejaVuSans-7a" x="440.185547"/>
     <use xlink:href="#DejaVuSans-65" x="492.675781"/>
     <use xlink:href="#DejaVuSans-20" x="554.199219"/>
     <use xlink:href="#DejaVuSans-28" x="585.986328"/>
     <use xlink:href="#DejaVuSans-79" x="625"/>
     <use xlink:href="#DejaVuSans-2d" x="682.429688"/>
     <use xlink:href="#DejaVuSans-61" x="718.513672"/>
     <use xlink:href="#DejaVuSans-78" x="779.792969"/>
     <use xlink:href="#DejaVuSans-69" x="838.972656"/>
     <use xlink:href="#DejaVuSans-73" x="866.755859"/>
     <use xlink:href="#DejaVuSans-29" x="918.855469"/>
     <use xlink:href="#DejaVuSans-20" x="957.869141"/>
     <use xlink:href="#DejaVuSans-62" x="989.65625"/>
     <use xlink:href="#DejaVuSans-65" x="1053.132812"/>
     <use xlink:href="#DejaVuSans-74" x="1114.65625"/>
     <use xlink:href="#DejaVuSans-77" x="1153.865234"/>
     <use xlink:href="#DejaVuSans-65" x="1235.652344"/>
     <use xlink:href="#DejaVuSans-65" x="1297.175781"/>
     <use xlink:href="#DejaVuSans-6e" x="1358.699219"/>
     <use xlink:href="#DejaVuSans-20" x="1422.078125"/>
     <use xlink:href="#DejaVuSans-53" x="1453.865234"/>
     <use xlink:href="#DejaVuSans-36" x="1517.341797"/>
     <use xlink:href="#DejaVuSans-20" x="1580.964844"/>
     <use xlink:href="#DejaVuSans-61" x="1612.751953"/>
     <use xlink:href="#DejaVuSans-6e" x="1674.03125"/>
     <use xlink:href="#DejaVuSans-64" x="1737.410156"/>
     <use xlink:href="#DejaVuSans-20" x="1800.886719"/>
     <use xlink:href="#DejaVuSans-73" x="1832.673828"/>
     <use xlink:href="#DejaVuSans-65" x="1884.773438"/>
     <use xlink:href="#DejaVuSans-6e" x="1946.296875"/>
     <use xlink:href="#DejaVuSans-73" x="2009.675781"/>
     <use xlink:href="#DejaVuSans-6f" x="2061.775391"/>
     <use xlink:href="#DejaVuSans-72" x="2122.957031"/>
     <use xlink:href="#DejaVuSans-73" x="2164.070312"/>
     <use xlink:href="#DejaVuSans-20" x="2216.169922"/>
     <use xlink:href="#DejaVuSans-74" x="2247.957031"/>
     <use xlink:href="#DejaVuSans-68" x="2287.166016"/>
     <use xlink:href="#DejaVuSans-61" x="2350.544922"/>
     <use xlink:href="#DejaVuSans-74" x="2411.824219"/>
     <use xlink:href="#DejaVuSans-20" x="2451.033203"/>
     <use xlink:href="#DejaVuSans-66" x="2482.820312"/>
     <use xlink:href="#DejaVuSans-6f" x="2518.025391"/>
     <use xlink:href="#DejaVuSans-6c" x="2579.207031"/>
     <use xlink:href="#DejaVuSans-6c" x="2606.990234"/>
     <use xlink:href="#DejaVuSans-6f" x="2634.773438"/>
     <use xlink:href="#DejaVuSans-77" x="2695.955078"/>
     <use xlink:href="#DejaVuSans-20" x="2777.742188"/>
     <use xlink:href="#DejaVuSans-61" x="2809.529297"/>
     <use xlink:href="#DejaVuSans-74" x="2870.808594"/>
     <use xlink:href="#DejaVuSans-20" x="2910.017578"/>
     <use xlink:href="#DejaVuSans-61" x="2941.804688"/>
     <use xlink:href="#DejaVuSans-20" x="3003.083984"/>
     <use xlink:href="#DejaVuSans-74" x="3034.871094"/>
     <use xlink:href="#DejaVuSans-69" x="3074.080078"/>
     <use xlink:href="#DejaVuSans-6d" x="3101.863281"/>
     <use xlink:href="#DejaVuSans-65" x="3199.275391"/>
     <use xlink:href="#DejaVuSans-20" x="3260.798828"/>
     <use xlink:href="#DejaVuSans-28" x="3292.585938"/>
     <use xlink:href="#DejaVuSans-78" x="3331.599609"/>
     <use xlink:href="#DejaVuSans-2d" x="3390.779297"/>
     <use xlink:href="#DejaVuSans-61" x="3426.863281"/>
     <use xlink:href="#DejaVuSans-78" x="3488.142578"/>
     <use xlink:href="#DejaVuSans-69" x="3547.322266"/>
     <use xlink:href="#DejaVuSans-73" x="3575.105469"/>
     <use xlink:href="#DejaVuSans-29" x="3627.205078"/>
     <use xlink:href="#DejaVuSans-2e" x="3666.21875"/>
    </g>
   </g>
  </g>
 </g>
 <defs>
  <clipPath id="pec92d991f4">
   <rect x="57.6" y="41.472" width="357.12" height="266.112"/>
  </clipPath>
 </defs>
</svg>
