<?xml version="1.0" encoding="utf-8" standalone="no"?>
<!DOCTYPE svg PUBLIC "-//W3C//DTD SVG 1.1//EN"
  "http://www.w3.org/Graphics/SVG/1.1/DTD/svg11.dtd">
<svg xmlns:xlink="http://www.w3.org/1999/xlink" width="460.8pt" height="345.6pt" viewBox="0 0 460.8 345.6" xmlns="http://www.w3.org/2000/svg" version="1.1">
 <metadata>
  <rdf:RDF xmlns:dc="http://purl.org/dc/elements/1.1/" xmlns:cc="http://creativecommons.org/ns#" xmlns:rdf="http://www.w3.org/1999/02/22-rdf-syntax-ns#">
   <cc:Work>
    <dc:type rdf:resource="http://purl.org/dc/dcmitype/StillImage"/>
    <dc:date>2024-03-08T12:45:35.369430</dc:date>
    <dc:format>image/svg+xml</dc:format>
    <dc:creator>
     <cc:Agent>
      <dc:title>Matplotlib v3.8.2, https://matplotlib.org/</dc:title>
     </cc:Agent>
    </dc:creator>
   </cc:Work>
  </rdf:RDF>
 </metadata>
 <defs>
  <style type="text/css">*{stroke-linejoin: round; stroke-linecap: butt}</style>
 </defs>
 <g id="figure_1">
  <g id="patch_1">
   <path d="M 0 345.6 
L 460.8 345.6 
L 460.8 0 
L 0 0 
z
" style="fill: #ffffff"/>
  </g>
  <g id="axes_1">
   <g id="patch_2">
    <path d="M 57.6 307.584 
L 414.72 307.584 
L 414.72 41.472 
L 57.6 41.472 
z
" style="fill: #ffffff"/>
   </g>
   <g id="matplotlib.axis_1">
    <g id="xtick_1">
     <g id="line2d_1">
      <defs>
       <path id="m7cad119c89" d="M 0 0 
L 0 3.5 
" style="stroke: #000000; stroke-width: 0.8"/>
      </defs>
      <g>
       <use xlink:href="#m7cad119c89" x="73.832727" y="307.584" style="stroke: #000000; stroke-width: 0.8"/>
      </g>
     </g>
     <g id="text_1">
      <!-- 0.0 -->
      <g transform="translate(65.881165 322.182437) scale(0.1 -0.1)">
       <defs>
        <path id="DejaVuSans-30" d="M 2034 4250 
Q 1547 4250 1301 3770 
Q 1056 3291 1056 2328 
Q 1056 1369 1301 889 
Q 1547 409 2034 409 
Q 2525 409 2770 889 
Q 3016 1369 3016 2328 
Q 3016 3291 2770 3770 
Q 2525 4250 2034 4250 
z
M 2034 4750 
Q 2819 4750 3233 4129 
Q 3647 3509 3647 2328 
Q 3647 1150 3233 529 
Q 2819 -91 2034 -91 
Q 1250 -91 836 529 
Q 422 1150 422 2328 
Q 422 3509 836 4129 
Q 1250 4750 2034 4750 
z
" transform="scale(0.015625)"/>
        <path id="DejaVuSans-2e" d="M 684 794 
L 1344 794 
L 1344 0 
L 684 0 
L 684 794 
z
" transform="scale(0.015625)"/>
       </defs>
       <use xlink:href="#DejaVuSans-30"/>
       <use xlink:href="#DejaVuSans-2e" x="63.623047"/>
       <use xlink:href="#DejaVuSans-30" x="95.410156"/>
      </g>
     </g>
    </g>
    <g id="xtick_2">
     <g id="line2d_2">
      <g>
       <use xlink:href="#m7cad119c89" x="117.979388" y="307.584" style="stroke: #000000; stroke-width: 0.8"/>
      </g>
     </g>
     <g id="text_2">
      <!-- 0.2 -->
      <g transform="translate(110.027826 322.182437) scale(0.1 -0.1)">
       <defs>
        <path id="DejaVuSans-32" d="M 1228 531 
L 3431 531 
L 3431 0 
L 469 0 
L 469 531 
Q 828 903 1448 1529 
Q 2069 2156 2228 2338 
Q 2531 2678 2651 2914 
Q 2772 3150 2772 3378 
Q 2772 3750 2511 3984 
Q 2250 4219 1831 4219 
Q 1534 4219 1204 4116 
Q 875 4013 500 3803 
L 500 4441 
Q 881 4594 1212 4672 
Q 1544 4750 1819 4750 
Q 2544 4750 2975 4387 
Q 3406 4025 3406 3419 
Q 3406 3131 3298 2873 
Q 3191 2616 2906 2266 
Q 2828 2175 2409 1742 
Q 1991 1309 1228 531 
z
" transform="scale(0.015625)"/>
       </defs>
       <use xlink:href="#DejaVuSans-30"/>
       <use xlink:href="#DejaVuSans-2e" x="63.623047"/>
       <use xlink:href="#DejaVuSans-32" x="95.410156"/>
      </g>
     </g>
    </g>
    <g id="xtick_3">
     <g id="line2d_3">
      <g>
       <use xlink:href="#m7cad119c89" x="162.126049" y="307.584" style="stroke: #000000; stroke-width: 0.8"/>
      </g>
     </g>
     <g id="text_3">
      <!-- 0.4 -->
      <g transform="translate(154.174487 322.182437) scale(0.1 -0.1)">
       <defs>
        <path id="DejaVuSans-34" d="M 2419 4116 
L 825 1625 
L 2419 1625 
L 2419 4116 
z
M 2253 4666 
L 3047 4666 
L 3047 1625 
L 3713 1625 
L 3713 1100 
L 3047 1100 
L 3047 0 
L 2419 0 
L 2419 1100 
L 313 1100 
L 313 1709 
L 2253 4666 
z
" transform="scale(0.015625)"/>
       </defs>
       <use xlink:href="#DejaVuSans-30"/>
       <use xlink:href="#DejaVuSans-2e" x="63.623047"/>
       <use xlink:href="#DejaVuSans-34" x="95.410156"/>
      </g>
     </g>
    </g>
    <g id="xtick_4">
     <g id="line2d_4">
      <g>
       <use xlink:href="#m7cad119c89" x="206.27271" y="307.584" style="stroke: #000000; stroke-width: 0.8"/>
      </g>
     </g>
     <g id="text_4">
      <!-- 0.6 -->
      <g transform="translate(198.321148 322.182437) scale(0.1 -0.1)">
       <defs>
        <path id="DejaVuSans-36" d="M 2113 2584 
Q 1688 2584 1439 2293 
Q 1191 2003 1191 1497 
Q 1191 994 1439 701 
Q 1688 409 2113 409 
Q 2538 409 2786 701 
Q 3034 994 3034 1497 
Q 3034 2003 2786 2293 
Q 2538 2584 2113 2584 
z
M 3366 4563 
L 3366 3988 
Q 3128 4100 2886 4159 
Q 2644 4219 2406 4219 
Q 1781 4219 1451 3797 
Q 1122 3375 1075 2522 
Q 1259 2794 1537 2939 
Q 1816 3084 2150 3084 
Q 2853 3084 3261 2657 
Q 3669 2231 3669 1497 
Q 3669 778 3244 343 
Q 2819 -91 2113 -91 
Q 1303 -91 875 529 
Q 447 1150 447 2328 
Q 447 3434 972 4092 
Q 1497 4750 2381 4750 
Q 2619 4750 2861 4703 
Q 3103 4656 3366 4563 
z
" transform="scale(0.015625)"/>
       </defs>
       <use xlink:href="#DejaVuSans-30"/>
       <use xlink:href="#DejaVuSans-2e" x="63.623047"/>
       <use xlink:href="#DejaVuSans-36" x="95.410156"/>
      </g>
     </g>
    </g>
    <g id="xtick_5">
     <g id="line2d_5">
      <g>
       <use xlink:href="#m7cad119c89" x="250.419372" y="307.584" style="stroke: #000000; stroke-width: 0.8"/>
      </g>
     </g>
     <g id="text_5">
      <!-- 0.8 -->
      <g transform="translate(242.467809 322.182437) scale(0.1 -0.1)">
       <defs>
        <path id="DejaVuSans-38" d="M 2034 2216 
Q 1584 2216 1326 1975 
Q 1069 1734 1069 1313 
Q 1069 891 1326 650 
Q 1584 409 2034 409 
Q 2484 409 2743 651 
Q 3003 894 3003 1313 
Q 3003 1734 2745 1975 
Q 2488 2216 2034 2216 
z
M 1403 2484 
Q 997 2584 770 2862 
Q 544 3141 544 3541 
Q 544 4100 942 4425 
Q 1341 4750 2034 4750 
Q 2731 4750 3128 4425 
Q 3525 4100 3525 3541 
Q 3525 3141 3298 2862 
Q 3072 2584 2669 2484 
Q 3125 2378 3379 2068 
Q 3634 1759 3634 1313 
Q 3634 634 3220 271 
Q 2806 -91 2034 -91 
Q 1263 -91 848 271 
Q 434 634 434 1313 
Q 434 1759 690 2068 
Q 947 2378 1403 2484 
z
M 1172 3481 
Q 1172 3119 1398 2916 
Q 1625 2713 2034 2713 
Q 2441 2713 2670 2916 
Q 2900 3119 2900 3481 
Q 2900 3844 2670 4047 
Q 2441 4250 2034 4250 
Q 1625 4250 1398 4047 
Q 1172 3844 1172 3481 
z
" transform="scale(0.015625)"/>
       </defs>
       <use xlink:href="#DejaVuSans-30"/>
       <use xlink:href="#DejaVuSans-2e" x="63.623047"/>
       <use xlink:href="#DejaVuSans-38" x="95.410156"/>
      </g>
     </g>
    </g>
    <g id="xtick_6">
     <g id="line2d_6">
      <g>
       <use xlink:href="#m7cad119c89" x="294.566033" y="307.584" style="stroke: #000000; stroke-width: 0.8"/>
      </g>
     </g>
     <g id="text_6">
      <!-- 1.0 -->
      <g transform="translate(286.61447 322.182437) scale(0.1 -0.1)">
       <defs>
        <path id="DejaVuSans-31" d="M 794 531 
L 1825 531 
L 1825 4091 
L 703 3866 
L 703 4441 
L 1819 4666 
L 2450 4666 
L 2450 531 
L 3481 531 
L 3481 0 
L 794 0 
L 794 531 
z
" transform="scale(0.015625)"/>
       </defs>
       <use xlink:href="#DejaVuSans-31"/>
       <use xlink:href="#DejaVuSans-2e" x="63.623047"/>
       <use xlink:href="#DejaVuSans-30" x="95.410156"/>
      </g>
     </g>
    </g>
    <g id="xtick_7">
     <g id="line2d_7">
      <g>
       <use xlink:href="#m7cad119c89" x="338.712694" y="307.584" style="stroke: #000000; stroke-width: 0.8"/>
      </g>
     </g>
     <g id="text_7">
      <!-- 1.2 -->
      <g transform="translate(330.761131 322.182437) scale(0.1 -0.1)">
       <use xlink:href="#DejaVuSans-31"/>
       <use xlink:href="#DejaVuSans-2e" x="63.623047"/>
       <use xlink:href="#DejaVuSans-32" x="95.410156"/>
      </g>
     </g>
    </g>
    <g id="xtick_8">
     <g id="line2d_8">
      <g>
       <use xlink:href="#m7cad119c89" x="382.859355" y="307.584" style="stroke: #000000; stroke-width: 0.8"/>
      </g>
     </g>
     <g id="text_8">
      <!-- 1.4 -->
      <g transform="translate(374.907792 322.182437) scale(0.1 -0.1)">
       <use xlink:href="#DejaVuSans-31"/>
       <use xlink:href="#DejaVuSans-2e" x="63.623047"/>
       <use xlink:href="#DejaVuSans-34" x="95.410156"/>
      </g>
     </g>
    </g>
    <g id="text_9">
     <!-- 1e6 -->
     <g transform="translate(395.841875 334.860562) scale(0.1 -0.1)">
      <defs>
       <path id="DejaVuSans-65" d="M 3597 1894 
L 3597 1613 
L 953 1613 
Q 991 1019 1311 708 
Q 1631 397 2203 397 
Q 2534 397 2845 478 
Q 3156 559 3463 722 
L 3463 178 
Q 3153 47 2828 -22 
Q 2503 -91 2169 -91 
Q 1331 -91 842 396 
Q 353 884 353 1716 
Q 353 2575 817 3079 
Q 1281 3584 2069 3584 
Q 2775 3584 3186 3129 
Q 3597 2675 3597 1894 
z
M 3022 2063 
Q 3016 2534 2758 2815 
Q 2500 3097 2075 3097 
Q 1594 3097 1305 2825 
Q 1016 2553 972 2059 
L 3022 2063 
z
" transform="scale(0.015625)"/>
      </defs>
      <use xlink:href="#DejaVuSans-31"/>
      <use xlink:href="#DejaVuSans-65" x="63.623047"/>
      <use xlink:href="#DejaVuSans-36" x="125.146484"/>
     </g>
    </g>
   </g>
   <g id="matplotlib.axis_2">
    <g id="ytick_1">
     <g id="line2d_9">
      <defs>
       <path id="md40a1928f3" d="M 0 0 
L -3.5 0 
" style="stroke: #000000; stroke-width: 0.8"/>
      </defs>
      <g>
       <use xlink:href="#md40a1928f3" x="57.6" y="295.488" style="stroke: #000000; stroke-width: 0.8"/>
      </g>
     </g>
     <g id="text_10">
      <!-- 0.0 -->
      <g transform="translate(34.696875 299.287219) scale(0.1 -0.1)">
       <use xlink:href="#DejaVuSans-30"/>
       <use xlink:href="#DejaVuSans-2e" x="63.623047"/>
       <use xlink:href="#DejaVuSans-30" x="95.410156"/>
      </g>
     </g>
    </g>
    <g id="ytick_2">
     <g id="line2d_10">
      <g>
       <use xlink:href="#md40a1928f3" x="57.6" y="247.104" style="stroke: #000000; stroke-width: 0.8"/>
      </g>
     </g>
     <g id="text_11">
      <!-- 0.2 -->
      <g transform="translate(34.696875 250.903219) scale(0.1 -0.1)">
       <use xlink:href="#DejaVuSans-30"/>
       <use xlink:href="#DejaVuSans-2e" x="63.623047"/>
       <use xlink:href="#DejaVuSans-32" x="95.410156"/>
      </g>
     </g>
    </g>
    <g id="ytick_3">
     <g id="line2d_11">
      <g>
       <use xlink:href="#md40a1928f3" x="57.6" y="198.72" style="stroke: #000000; stroke-width: 0.8"/>
      </g>
     </g>
     <g id="text_12">
      <!-- 0.4 -->
      <g transform="translate(34.696875 202.519219) scale(0.1 -0.1)">
       <use xlink:href="#DejaVuSans-30"/>
       <use xlink:href="#DejaVuSans-2e" x="63.623047"/>
       <use xlink:href="#DejaVuSans-34" x="95.410156"/>
      </g>
     </g>
    </g>
    <g id="ytick_4">
     <g id="line2d_12">
      <g>
       <use xlink:href="#md40a1928f3" x="57.6" y="150.336" style="stroke: #000000; stroke-width: 0.8"/>
      </g>
     </g>
     <g id="text_13">
      <!-- 0.6 -->
      <g transform="translate(34.696875 154.135219) scale(0.1 -0.1)">
       <use xlink:href="#DejaVuSans-30"/>
       <use xlink:href="#DejaVuSans-2e" x="63.623047"/>
       <use xlink:href="#DejaVuSans-36" x="95.410156"/>
      </g>
     </g>
    </g>
    <g id="ytick_5">
     <g id="line2d_13">
      <g>
       <use xlink:href="#md40a1928f3" x="57.6" y="101.952" style="stroke: #000000; stroke-width: 0.8"/>
      </g>
     </g>
     <g id="text_14">
      <!-- 0.8 -->
      <g transform="translate(34.696875 105.751219) scale(0.1 -0.1)">
       <use xlink:href="#DejaVuSans-30"/>
       <use xlink:href="#DejaVuSans-2e" x="63.623047"/>
       <use xlink:href="#DejaVuSans-38" x="95.410156"/>
      </g>
     </g>
    </g>
    <g id="ytick_6">
     <g id="line2d_14">
      <g>
       <use xlink:href="#md40a1928f3" x="57.6" y="53.568" style="stroke: #000000; stroke-width: 0.8"/>
      </g>
     </g>
     <g id="text_15">
      <!-- 1.0 -->
      <g transform="translate(34.696875 57.367219) scale(0.1 -0.1)">
       <use xlink:href="#DejaVuSans-31"/>
       <use xlink:href="#DejaVuSans-2e" x="63.623047"/>
       <use xlink:href="#DejaVuSans-30" x="95.410156"/>
      </g>
     </g>
    </g>
   </g>
   <g id="line2d_15">
    <path d="M 73.832727 295.488 
L 91.897541 295.488 
L 91.897541 295.04654 
L 92.43613 295.04654 
L 92.43613 294.60508 
L 92.992378 294.60508 
L 92.992378 294.16362 
L 93.559663 294.16362 
L 93.559663 293.722161 
L 94.122533 293.722161 
L 94.122533 293.280701 
L 94.674366 293.280701 
L 94.674366 292.839241 
L 95.228407 292.839241 
L 95.228407 292.397781 
L 95.77141 292.397781 
L 95.77141 291.956321 
L 96.325451 291.956321 
L 96.325451 291.514861 
L 96.879492 291.514861 
L 96.879492 291.073401 
L 97.43574 291.073401 
L 97.43574 290.631942 
L 97.978744 290.631942 
L 97.978744 290.190482 
L 112.926803 290.190482 
L 112.926803 289.749022 
L 113.476429 289.749022 
L 113.476429 289.307562 
L 114.03047 289.307562 
L 114.03047 288.866102 
L 114.582303 288.866102 
L 114.582303 288.424642 
L 115.140758 288.424642 
L 115.140758 287.983182 
L 115.681555 287.983182 
L 115.681555 287.541723 
L 116.226766 287.541723 
L 116.226766 287.100263 
L 116.780806 287.100263 
L 116.780806 286.658803 
L 117.326018 286.658803 
L 117.326018 286.217343 
L 117.88668 286.217343 
L 117.88668 285.775883 
L 118.429684 285.775883 
L 118.429684 285.334423 
L 118.972688 285.334423 
L 118.972688 284.892964 
L 119.520107 284.892964 
L 119.520107 284.451504 
L 120.069733 284.451504 
L 120.069733 284.010044 
L 120.625981 284.010044 
L 120.625981 283.568584 
L 121.193265 283.568584 
L 121.193265 283.127124 
L 121.734062 283.127124 
L 121.734062 282.685664 
L 122.29031 282.685664 
L 122.29031 282.244204 
L 122.511043 282.244204 
L 122.511043 281.802745 
L 122.833314 281.802745 
L 122.833314 281.361285 
L 123.292439 281.361285 
L 123.387354 280.478365 
L 123.948017 280.478365 
L 123.948017 280.036905 
L 124.06942 280.036905 
L 124.06942 279.595445 
L 124.506472 279.595445 
L 124.506472 279.153985 
L 124.837572 279.153985 
L 124.837572 278.712526 
L 125.630005 278.712526 
L 125.630005 278.271066 
L 126.404779 278.271066 
L 126.404779 277.829606 
L 127.18176 277.829606 
L 127.18176 277.388146 
L 127.945497 277.388146 
L 127.945497 276.946686 
L 128.70482 276.946686 
L 128.70482 276.505226 
L 129.439862 276.505226 
L 129.477386 275.622307 
L 129.982865 275.622307 
L 129.982865 275.180847 
L 130.241123 275.180847 
L 130.241123 274.739387 
L 130.541321 274.739387 
L 130.541321 274.297927 
L 131.020312 274.297927 
L 131.104191 273.415007 
L 131.667061 273.415007 
L 131.667061 272.973547 
L 131.784049 272.973547 
L 131.784049 272.532088 
L 132.214479 272.532088 
L 132.214479 272.090628 
L 132.558823 272.090628 
L 132.558823 271.649168 
L 132.766312 271.649168 
L 132.766312 271.207708 
L 133.311524 271.207708 
L 133.326975 270.324788 
L 134.086298 270.324788 
L 134.086298 269.883328 
L 134.850035 269.883328 
L 134.850035 269.441869 
L 135.615979 269.441869 
L 135.615979 269.000409 
L 136.379717 269.000409 
L 136.379717 268.558949 
L 142.573493 268.558949 
L 142.573493 268.117489 
L 143.34606 268.117489 
L 143.34606 267.676029 
L 144.105382 267.676029 
L 144.105382 267.234569 
L 144.877949 267.234569 
L 144.888986 266.35165 
L 145.436404 266.35165 
L 145.436404 265.91019 
L 145.650515 265.91019 
L 145.650515 265.46873 
L 145.972786 265.46873 
L 145.972786 265.02727 
L 146.436326 265.02727 
L 146.526827 264.14435 
L 147.091904 264.14435 
L 147.091904 263.702891 
L 147.219929 263.702891 
L 147.219929 263.261431 
L 147.634908 263.261431 
L 147.634908 262.819971 
L 147.988081 262.819971 
L 147.988081 262.378511 
L 148.184534 262.378511 
L 148.184534 261.937051 
L 148.72533 261.937051 
L 148.760648 261.054131 
L 149.277164 261.054131 
L 149.277164 260.612672 
L 149.522178 260.612672 
L 149.522178 260.171212 
L 149.840034 260.171212 
L 149.840034 259.729752 
L 150.285915 259.729752 
L 150.285915 259.288292 
L 150.400696 259.288292 
L 150.400696 258.846832 
L 150.954737 258.846832 
L 150.954737 258.405372 
L 151.069518 258.405372 
L 151.069518 257.963912 
L 151.513192 257.963912 
L 151.513192 257.522453 
L 152.073855 257.522453 
L 152.073855 257.080993 
L 152.625688 257.080993 
L 152.625688 256.639533 
L 153.177521 256.639533 
L 153.177521 256.198073 
L 153.729354 256.198073 
L 153.729354 255.756613 
L 154.28781 255.756613 
L 154.28781 255.315153 
L 154.848472 255.315153 
L 154.848472 254.873693 
L 155.402513 254.873693 
L 155.402513 254.432234 
L 155.956554 254.432234 
L 155.956554 253.990774 
L 156.517216 253.990774 
L 156.517216 253.549314 
L 157.066842 253.549314 
L 157.066842 253.107854 
L 157.612053 253.107854 
L 157.612053 252.666394 
L 158.179338 252.666394 
L 158.179338 252.224934 
L 158.735586 252.224934 
L 158.735586 251.783474 
L 159.271968 251.783474 
L 159.271968 251.342015 
L 159.814972 251.342015 
L 159.814972 250.900555 
L 160.351354 250.900555 
L 160.351354 250.459095 
L 160.918638 250.459095 
L 160.918638 250.017635 
L 161.468264 250.017635 
L 161.468264 249.576175 
L 162.022305 249.576175 
L 162.022305 249.134715 
L 162.587382 249.134715 
L 162.587382 248.693255 
L 163.139215 248.693255 
L 163.139215 248.251796 
L 163.695463 248.251796 
L 163.695463 247.810336 
L 164.242882 247.810336 
L 164.242882 247.368876 
L 164.792508 247.368876 
L 164.792508 246.927416 
L 164.977924 246.927416 
L 164.977924 246.485956 
L 165.348756 246.485956 
L 165.348756 246.044496 
L 165.746076 246.044496 
L 165.746076 245.603036 
L 165.911626 245.603036 
L 165.911626 245.161577 
L 166.459044 245.161577 
L 166.459044 244.720117 
L 167.010877 244.720117 
L 167.010877 244.278657 
L 167.286794 244.278657 
L 167.286794 243.837197 
L 167.560503 243.837197 
L 167.560503 243.395737 
L 168.052739 243.395737 
L 168.103507 242.512818 
L 168.66417 242.512818 
L 168.66417 242.071358 
L 168.831927 242.071358 
L 168.831927 241.629898 
L 169.22704 241.629898 
L 169.22704 241.188438 
L 169.600079 241.188438 
L 169.600079 240.746978 
L 169.78108 240.746978 
L 169.78108 240.305518 
L 170.337328 240.305518 
L 170.357194 239.422599 
L 170.875918 239.422599 
L 170.875918 238.981139 
L 171.118724 238.981139 
L 171.118724 238.539679 
L 171.429958 238.539679 
L 171.429958 238.098219 
L 171.893498 238.098219 
L 171.981791 237.215299 
L 172.524795 237.215299 
L 172.524795 236.773839 
L 172.674894 236.773839 
L 172.674894 236.33238 
L 173.089873 236.33238 
L 173.089873 235.89092 
L 173.451875 235.89092 
L 173.451875 235.44946 
L 173.639499 235.44946 
L 173.639499 235.008 
L 174.202369 235.008 
L 174.228857 234.12508 
L 174.765238 234.12508 
L 174.765238 233.68362 
L 174.997008 233.68362 
L 174.997008 233.242161 
L 175.325901 233.242161 
L 175.325901 232.800701 
L 175.771782 232.800701 
L 175.87332 231.917781 
L 176.5598 231.917781 
L 176.5598 231.476321 
L 176.979194 231.476321 
L 176.979194 231.034861 
L 177.332367 231.034861 
L 177.332367 230.593401 
L 177.542063 230.593401 
L 177.542063 230.151942 
L 178.085067 230.151942 
L 178.096104 229.269022 
L 178.64573 229.269022 
L 178.64573 228.827562 
L 178.875293 228.827562 
L 178.875293 228.386102 
L 179.197563 228.386102 
L 179.197563 227.944642 
L 179.650067 227.944642 
L 179.744982 227.061723 
L 180.296815 227.061723 
L 180.296815 226.620263 
L 180.418218 226.620263 
L 180.418218 226.178803 
L 180.846441 226.178803 
L 180.846441 225.737343 
L 181.175334 225.737343 
L 181.175334 225.295883 
L 181.396067 225.295883 
L 181.396067 224.854423 
L 181.941278 224.854423 
L 181.945693 223.971504 
L 182.484282 223.971504 
L 182.484282 223.530044 
L 182.705015 223.530044 
L 182.705015 223.088584 
L 183.033908 223.088584 
L 183.033908 222.647124 
L 183.475375 222.647124 
L 183.475375 222.205664 
L 183.587949 222.205664 
L 183.587949 221.764204 
L 184.153026 221.764204 
L 184.23249 220.881285 
L 184.704859 220.881285 
L 184.704859 220.439825 
L 185.020508 220.439825 
L 185.020508 219.998365 
L 185.263314 219.998365 
L 185.263314 219.556905 
L 185.797489 219.556905 
L 185.823977 218.673985 
L 186.369188 218.673985 
L 186.369188 218.232526 
L 198.856071 218.232526 
L 198.856071 217.791066 
L 202.058912 217.791066 
L 202.058912 217.349606 
L 202.853552 217.349606 
L 202.853552 216.908146 
L 203.604045 216.908146 
L 203.604045 216.466686 
L 204.383233 216.466686 
L 204.383233 216.025226 
L 205.171251 216.025226 
L 205.171251 215.583766 
L 205.778268 215.583766 
L 205.778268 215.142307 
L 205.943818 215.142307 
L 205.943818 214.700847 
L 206.553042 214.700847 
L 206.553042 214.259387 
L 206.718592 214.259387 
L 206.718592 213.817927 
L 207.318986 213.817927 
L 207.318986 213.376467 
L 207.504402 213.376467 
L 207.504402 212.935007 
L 208.107004 212.935007 
L 208.107004 212.493547 
L 208.261518 212.493547 
L 208.261518 212.052088 
L 208.875156 212.052088 
L 208.875156 211.610628 
L 209.058365 211.610628 
L 209.058365 211.169168 
L 209.647723 211.169168 
L 209.647723 210.727708 
L 209.833139 210.727708 
L 209.833139 210.286248 
L 210.418082 210.286248 
L 210.418082 209.844788 
L 210.601291 209.844788 
L 210.601291 209.403328 
L 211.190649 209.403328 
L 211.190649 208.961869 
L 211.369442 208.961869 
L 211.369442 208.520409 
L 211.956593 208.520409 
L 211.956593 208.078949 
L 233.392004 208.078949 
L 233.392004 207.637489 
L 233.833471 207.637489 
L 233.833471 207.196029 
L 234.283767 207.196029 
L 234.283767 206.754569 
L 234.727441 206.754569 
L 234.727441 206.313109 
L 235.1667 206.313109 
L 235.1667 205.87165 
L 235.599337 205.87165 
L 235.599337 205.43019 
L 236.031975 205.43019 
L 236.031975 204.98873 
L 236.473441 204.98873 
L 236.568357 204.10581 
L 236.925945 204.10581 
L 236.925945 203.66435 
L 237.135641 203.66435 
L 237.135641 203.222891 
L 237.362997 203.222891 
L 237.362997 202.781431 
L 237.685267 202.781431 
L 237.685267 202.339971 
L 237.800048 202.339971 
L 237.800048 201.898511 
L 238.241515 201.898511 
L 238.316564 200.574131 
L 238.67636 200.574131 
L 238.67636 200.132672 
L 238.793348 200.132672 
L 238.793348 199.691212 
L 239.111204 199.691212 
L 239.120034 198.808292 
L 239.340767 198.808292 
L 239.340767 198.366832 
L 239.5615 198.366832 
L 239.5615 197.925372 
L 239.881564 197.925372 
L 239.897015 197.042453 
L 239.996345 197.042453 
L 239.996345 196.600993 
L 240.435604 196.600993 
L 240.442226 195.718073 
L 240.632057 195.718073 
L 240.632057 195.276613 
L 240.877071 195.276613 
L 240.877071 194.835153 
L 241.320745 194.835153 
L 241.417867 193.952234 
L 241.755589 193.952234 
L 241.755589 193.510774 
L 242.172775 193.510774 
L 242.201471 192.627854 
L 242.64073 192.627854 
L 242.64073 192.186394 
L 242.949756 192.186394 
L 242.949756 191.744934 
L 243.510419 191.744934 
L 243.510419 191.303474 
L 243.744396 191.303474 
L 243.744396 190.862015 
L 243.945264 190.862015 
L 243.945264 190.420555 
L 244.375694 190.420555 
L 244.375694 189.979095 
L 244.525792 189.979095 
L 244.525792 189.537635 
L 244.819368 189.537635 
L 244.819368 189.096175 
L 245.269664 189.096175 
L 245.293944 188.213255 
L 245.702301 188.213255 
L 245.702301 187.771796 
L 246.070925 187.771796 
L 246.148182 186.888876 
L 246.587441 186.888876 
L 246.587441 186.447416 
L 246.858943 186.447416 
L 246.858943 186.005956 
L 247.033323 186.005956 
L 247.033323 185.564496 
L 247.463753 185.564496 
L 247.463753 185.123036 
L 247.63151 185.123036 
L 247.63151 184.681577 
L 247.916256 184.681577 
L 247.916256 184.240117 
L 248.364344 184.240117 
L 248.401869 183.357197 
L 248.812433 183.357197 
L 248.812433 182.915737 
L 249.183265 182.915737 
L 249.2539 181.591358 
L 249.695366 181.591358 
L 249.695366 181.149898 
L 249.975698 181.149898 
L 250.008808 180.266978 
L 250.128004 180.266978 
L 250.128004 179.825518 
L 250.571678 179.825518 
L 250.571678 179.384058 
L 250.732813 179.384058 
L 250.76813 178.501139 
L 251.015351 178.501139 
L 251.015351 178.059679 
L 251.498757 178.059679 
L 251.531867 177.176759 
L 252.284568 177.176759 
L 252.295605 176.293839 
L 253.065964 176.293839 
L 253.074793 175.41092 
L 253.238136 175.41092 
L 253.238136 174.96946 
L 253.68181 174.96946 
L 253.68181 174.528 
L 253.842945 174.528 
L 253.851774 173.64508 
L 254.110032 173.64508 
L 254.110032 173.20362 
L 254.551499 173.20362 
L 254.624341 171.879241 
L 254.990758 171.879241 
L 254.990758 171.437781 
L 255.3947 171.437781 
L 255.432225 170.113401 
L 255.867069 170.113401 
L 255.867069 169.671942 
L 256.158437 169.671942 
L 256.173889 168.789022 
L 256.308536 168.789022 
L 256.308536 168.347562 
L 256.922175 168.347562 
L 256.937626 167.464642 
L 257.184847 167.464642 
L 257.184847 167.023182 
L 257.621899 167.023182 
L 257.699156 165.698803 
L 258.074403 165.698803 
L 258.074403 165.257343 
L 258.456271 165.257343 
L 258.515869 163.932964 
L 258.957336 163.932964 
L 258.957336 163.491504 
L 259.233252 163.491504 
L 259.257533 162.608584 
L 259.396595 162.608584 
L 259.396595 162.167124 
L 259.838062 162.167124 
L 259.838062 161.725664 
L 260.010234 161.725664 
L 260.025685 160.842745 
L 260.275114 160.842745 
L 260.275114 160.401285 
L 260.712166 160.401285 
L 260.800459 159.076905 
L 261.160254 159.076905 
L 261.160254 158.635445 
L 261.383195 158.635445 
L 261.383195 158.193985 
L 261.539915 158.193985 
L 261.601721 156.869606 
L 261.822454 156.869606 
L 261.822454 156.428146 
L 262.045395 156.428146 
L 262.045395 155.986686 
L 262.321311 155.986686 
L 262.33897 155.103766 
L 263.093878 155.103766 
L 263.129195 154.220847 
L 263.868652 154.220847 
L 263.890725 153.337927 
L 264.641218 153.337927 
L 264.652255 152.455007 
L 265.415992 152.455007 
L 265.422614 151.572088 
L 266.184144 151.572088 
L 266.192974 150.689168 
L 266.956711 150.689168 
L 266.985406 149.806248 
L 267.72707 149.806248 
L 267.764595 148.923328 
L 268.486393 148.923328 
L 268.532747 148.040409 
L 269.254544 148.040409 
L 269.30752 147.157489 
L 270.031526 147.157489 
L 270.073465 146.274569 
L 270.651786 146.274569 
L 270.651786 145.833109 
L 270.815129 145.833109 
L 270.86369 144.95019 
L 271.091046 144.95019 
L 271.091046 144.50873 
L 271.539134 144.50873 
L 271.627427 143.18435 
L 271.978393 143.18435 
L 271.978393 142.742891 
L 272.355847 142.742891 
L 272.424275 141.418511 
L 272.863534 141.418511 
L 272.863534 140.977051 
L 273.141658 140.977051 
L 273.163731 140.094131 
L 273.307208 140.094131 
L 273.307208 139.652672 
L 273.742053 139.652672 
L 273.742053 139.211212 
L 273.925261 139.211212 
L 273.940713 138.328292 
L 274.179105 138.328292 
L 274.179105 137.886832 
L 274.624986 137.886832 
L 274.715486 136.562453 
L 275.474809 136.562453 
L 275.503504 135.679533 
L 276.231924 135.679533 
L 276.258412 134.796613 
L 276.995661 134.796613 
L 276.995661 134.355153 
L 277.763813 134.355153 
L 277.801338 133.472234 
L 278.527551 133.472234 
L 278.571697 132.589314 
L 279.308947 132.589314 
L 279.337642 131.706394 
L 280.096964 131.706394 
L 280.105794 130.823474 
L 280.87836 130.823474 
L 280.882775 129.940555 
L 281.655342 129.940555 
L 281.661964 129.057635 
L 282.421286 129.057635 
L 282.427908 128.174715 
L 282.871582 128.174715 
L 282.871582 127.733255 
L 283.041547 127.733255 
L 283.041547 127.291796 
L 283.200475 127.291796 
L 283.200475 126.850336 
L 283.485221 126.850336 
L 283.485221 126.408876 
L 283.652978 126.408876 
L 283.652978 125.967416 
L 283.928895 125.967416 
L 283.970834 125.084496 
L 284.374776 125.084496 
L 284.374776 124.643036 
L 284.741193 124.643036 
L 284.814035 123.760117 
L 285.253294 123.760117 
L 285.253294 123.318657 
L 285.507138 123.318657 
L 285.507138 122.877197 
L 285.696968 122.877197 
L 285.696968 122.435737 
L 286.13402 122.435737 
L 286.13402 121.994277 
L 286.286326 121.994277 
L 286.286326 121.552818 
L 286.579902 121.552818 
L 286.579902 121.111358 
L 287.016954 121.111358 
L 287.016954 120.669898 
L 287.467249 120.669898 
L 287.467249 120.228438 
L 287.906509 120.228438 
L 287.906509 119.786978 
L 288.350183 119.786978 
L 288.350183 119.345518 
L 288.789442 119.345518 
L 288.789442 118.904058 
L 289.235323 118.904058 
L 289.235323 118.462599 
L 289.67679 118.462599 
L 289.67679 118.021139 
L 290.116049 118.021139 
L 290.116049 117.579679 
L 290.559723 117.579679 
L 290.559723 117.138219 
L 290.994568 117.138219 
L 290.994568 116.696759 
L 291.447071 116.696759 
L 291.447071 116.255299 
L 291.59717 116.255299 
L 291.59717 115.813839 
L 291.88633 115.813839 
L 291.88633 115.37238 
L 292.142381 115.37238 
L 292.142381 114.93092 
L 292.332212 114.93092 
L 292.332212 114.48946 
L 292.683177 114.48946 
L 292.773678 113.60654 
L 293.212937 113.60654 
L 293.228389 112.72362 
L 293.656611 112.72362 
L 293.656611 112.282161 
L 294.102493 112.282161 
L 294.102493 111.840701 
L 294.541752 111.840701 
L 294.541752 111.399241 
L 294.987633 111.399241 
L 294.987633 110.957781 
L 295.874981 110.957781 
L 295.874981 110.516321 
L 296.320862 110.516321 
L 296.320862 110.074861 
L 296.766744 110.074861 
L 296.766744 109.633401 
L 297.197174 109.633401 
L 297.197174 109.191942 
L 297.636433 109.191942 
L 297.636433 108.750482 
L 298.082314 108.750482 
L 298.082314 108.309022 
L 298.514951 108.309022 
L 298.514951 107.867562 
L 298.956418 107.867562 
L 298.956418 107.426102 
L 299.39347 107.426102 
L 299.39347 106.984642 
L 299.832729 106.984642 
L 299.832729 106.543182 
L 300.278611 106.543182 
L 300.278611 106.101723 
L 300.722284 106.101723 
L 300.722284 105.660263 
L 301.168166 105.660263 
L 301.168166 105.218803 
L 301.605218 105.218803 
L 301.605218 104.777343 
L 302.051099 104.777343 
L 302.051099 104.335883 
L 302.49698 104.335883 
L 302.49698 103.894423 
L 302.931825 103.894423 
L 302.931825 103.452964 
L 303.137107 103.452964 
L 303.137107 103.011504 
L 303.364462 103.011504 
L 303.364462 102.570044 
L 303.68894 102.570044 
L 303.799307 101.687124 
L 304.02004 101.687124 
L 304.02004 101.245664 
L 304.231944 101.245664 
L 304.238566 100.362745 
L 304.668996 100.362745 
L 304.668996 99.921285 
L 304.785985 99.921285 
L 304.792607 99.038365 
L 305.110463 99.038365 
L 305.110463 98.596905 
L 305.340025 98.596905 
L 305.340025 98.155445 
L 305.560759 98.155445 
L 305.565173 97.272526 
L 305.889651 97.272526 
L 305.889651 96.831066 
L 306.00664 96.831066 
L 306.00664 96.389606 
L 306.339947 96.389606 
L 306.443692 95.065226 
L 306.887366 95.065226 
L 306.887366 94.623766 
L 307.101477 94.623766 
L 307.101477 94.182307 
L 307.317796 94.182307 
L 307.317796 93.740847 
L 307.763677 93.740847 
L 307.874044 92.857927 
L 308.207351 92.857927 
L 308.207351 92.416467 
L 308.628951 92.416467 
L 308.64661 91.533547 
L 309.085869 91.533547 
L 309.085869 91.092088 
L 309.533958 91.092088 
L 309.533958 90.650628 
L 309.984254 90.650628 
L 309.984254 90.209168 
L 310.427928 90.209168 
L 310.427928 89.767708 
L 310.880431 89.767708 
L 310.880431 89.326248 
L 311.317483 89.326248 
L 311.317483 88.884788 
L 311.752328 88.884788 
L 311.752328 88.443328 
L 312.202624 88.443328 
L 312.202624 88.001869 
L 312.648505 88.001869 
L 312.648505 87.560409 
L 313.092179 87.560409 
L 313.092179 87.118949 
L 313.531438 87.118949 
L 313.531438 86.677489 
L 313.975112 86.677489 
L 313.975112 86.236029 
L 314.405542 86.236029 
L 314.405542 85.794569 
L 314.847009 85.794569 
L 314.847009 85.353109 
L 315.290683 85.353109 
L 315.290683 84.91165 
L 315.548941 84.91165 
L 315.548941 84.47019 
L 315.738771 84.47019 
L 315.738771 84.02873 
L 316.182445 84.02873 
L 316.182445 83.58727 
L 316.3193 83.58727 
L 316.3193 83.14581 
L 316.61729 83.14581 
L 316.61729 82.70435 
L 317.063171 82.70435 
L 317.094074 81.821431 
L 317.495808 81.821431 
L 317.495808 81.379971 
L 317.882092 81.379971 
L 317.943897 80.497051 
L 318.394193 80.497051 
L 318.394193 80.055591 
L 318.831245 80.055591 
L 318.831245 79.614131 
L 319.263882 79.614131 
L 319.263882 79.172672 
L 319.703141 79.172672 
L 319.703141 78.731212 
L 320.146815 78.731212 
L 320.146815 78.289752 
L 320.592697 78.289752 
L 320.592697 77.848292 
L 321.027541 77.848292 
L 321.027541 77.406832 
L 326.417849 77.406832 
L 326.417849 76.965372 
L 327.199244 76.965372 
L 327.199244 76.523912 
L 327.974018 76.523912 
L 327.974018 76.082453 
L 328.746585 76.082453 
L 328.746585 75.640993 
L 329.525773 75.640993 
L 329.525773 75.199533 
L 330.309377 75.199533 
L 330.309377 74.758073 
L 331.075321 74.758073 
L 331.075321 74.316613 
L 331.843473 74.316613 
L 331.843473 73.875153 
L 332.613832 73.875153 
L 332.613832 73.433693 
L 333.397436 73.433693 
L 333.397436 72.992234 
L 334.167795 72.992234 
L 334.167795 72.550774 
L 334.935947 72.550774 
L 334.935947 72.109314 
L 335.708513 72.109314 
L 335.708513 71.667854 
L 375.111616 71.667854 
L 375.111616 71.226394 
L 375.550875 71.226394 
L 375.550875 70.784934 
L 375.992342 70.784934 
L 375.992342 70.343474 
L 376.442638 70.343474 
L 376.442638 69.902015 
L 376.875275 69.902015 
L 376.875275 69.460555 
L 377.316741 69.460555 
L 377.316741 69.019095 
L 377.760415 69.019095 
L 377.760415 68.577635 
L 378.212919 68.577635 
L 378.212919 68.136175 
L 378.665422 68.136175 
L 378.665422 67.694715 
L 379.109096 67.694715 
L 379.109096 67.253255 
L 379.557184 67.253255 
L 379.557184 66.811796 
L 380.003066 66.811796 
L 380.003066 66.370336 
L 380.433496 66.370336 
L 380.433496 65.928876 
L 380.87717 65.928876 
L 380.87717 65.487416 
L 381.314222 65.487416 
L 381.314222 65.045956 
L 381.757896 65.045956 
L 381.757896 64.604496 
L 382.190533 64.604496 
L 382.190533 64.163036 
L 382.616548 64.163036 
L 382.616548 63.721577 
L 383.062429 63.721577 
L 383.062429 63.280117 
L 383.508311 63.280117 
L 383.508311 62.838657 
L 383.943155 62.838657 
L 383.943155 62.397197 
L 390.119273 62.397197 
L 390.119273 61.955737 
L 390.549703 61.955737 
L 390.549703 61.514277 
L 390.995584 61.514277 
L 390.995584 61.072818 
L 391.439258 61.072818 
L 391.439258 60.631358 
L 391.882932 60.631358 
L 391.882932 60.189898 
L 392.322192 60.189898 
L 392.322192 59.748438 
L 392.752621 59.748438 
L 392.752621 59.306978 
L 393.191881 59.306978 
L 393.191881 58.865518 
L 393.637762 58.865518 
L 393.637762 58.424058 
L 394.070399 58.424058 
L 394.070399 57.982599 
L 394.514073 57.982599 
L 394.514073 57.541139 
L 394.962162 57.541139 
L 394.962162 57.099679 
L 395.408043 57.099679 
L 395.408043 56.658219 
L 395.84951 56.658219 
L 395.84951 56.216759 
L 396.286562 56.216759 
L 396.286562 55.775299 
L 396.725821 55.775299 
L 396.725821 55.333839 
L 397.17391 55.333839 
L 397.17391 54.89238 
L 397.613169 54.89238 
L 397.613169 54.45092 
L 398.050221 54.45092 
L 398.050221 54.00946 
L 398.487273 54.00946 
L 398.487273 53.568 
L 398.487273 53.568 
" clip-path="url(#pb0c1e38667)" style="fill: none; stroke: #1f77b4; stroke-width: 1.5; stroke-linecap: square"/>
   </g>
   <g id="patch_3">
    <path d="M 57.6 307.584 
L 57.6 41.472 
" style="fill: none; stroke: #000000; stroke-width: 0.8; stroke-linejoin: miter; stroke-linecap: square"/>
   </g>
   <g id="patch_4">
    <path d="M 414.72 307.584 
L 414.72 41.472 
" style="fill: none; stroke: #000000; stroke-width: 0.8; stroke-linejoin: miter; stroke-linecap: square"/>
   </g>
   <g id="patch_5">
    <path d="M 57.6 307.584 
L 414.72 307.584 
" style="fill: none; stroke: #000000; stroke-width: 0.8; stroke-linejoin: miter; stroke-linecap: square"/>
   </g>
   <g id="patch_6">
    <path d="M 57.6 41.472 
L 414.72 41.472 
" style="fill: none; stroke: #000000; stroke-width: 0.8; stroke-linejoin: miter; stroke-linecap: square"/>
   </g>
   <g id="text_16">
    <!-- S1 S15 -->
    <g transform="translate(215.1825 35.472) scale(0.12 -0.12)">
     <defs>
      <path id="DejaVuSans-53" d="M 3425 4513 
L 3425 3897 
Q 3066 4069 2747 4153 
Q 2428 4238 2131 4238 
Q 1616 4238 1336 4038 
Q 1056 3838 1056 3469 
Q 1056 3159 1242 3001 
Q 1428 2844 1947 2747 
L 2328 2669 
Q 3034 2534 3370 2195 
Q 3706 1856 3706 1288 
Q 3706 609 3251 259 
Q 2797 -91 1919 -91 
Q 1588 -91 1214 -16 
Q 841 59 441 206 
L 441 856 
Q 825 641 1194 531 
Q 1563 422 1919 422 
Q 2459 422 2753 634 
Q 3047 847 3047 1241 
Q 3047 1584 2836 1778 
Q 2625 1972 2144 2069 
L 1759 2144 
Q 1053 2284 737 2584 
Q 422 2884 422 3419 
Q 422 4038 858 4394 
Q 1294 4750 2059 4750 
Q 2388 4750 2728 4690 
Q 3069 4631 3425 4513 
z
" transform="scale(0.015625)"/>
      <path id="DejaVuSans-20" transform="scale(0.015625)"/>
      <path id="DejaVuSans-35" d="M 691 4666 
L 3169 4666 
L 3169 4134 
L 1269 4134 
L 1269 2991 
Q 1406 3038 1543 3061 
Q 1681 3084 1819 3084 
Q 2600 3084 3056 2656 
Q 3513 2228 3513 1497 
Q 3513 744 3044 326 
Q 2575 -91 1722 -91 
Q 1428 -91 1123 -41 
Q 819 9 494 109 
L 494 744 
Q 775 591 1075 516 
Q 1375 441 1709 441 
Q 2250 441 2565 725 
Q 2881 1009 2881 1497 
Q 2881 1984 2565 2268 
Q 2250 2553 1709 2553 
Q 1456 2553 1204 2497 
Q 953 2441 691 2322 
L 691 4666 
z
" transform="scale(0.015625)"/>
     </defs>
     <use xlink:href="#DejaVuSans-53"/>
     <use xlink:href="#DejaVuSans-31" x="63.476562"/>
     <use xlink:href="#DejaVuSans-20" x="127.099609"/>
     <use xlink:href="#DejaVuSans-53" x="158.886719"/>
     <use xlink:href="#DejaVuSans-31" x="222.363281"/>
     <use xlink:href="#DejaVuSans-35" x="285.986328"/>
    </g>
   </g>
   <g id="legend_1">
    <g id="patch_7">
     <path d="M 295.679062 304.584 
L 410.52 304.584 
Q 411.72 304.584 411.72 303.384 
L 411.72 295.177125 
Q 411.72 293.977125 410.52 293.977125 
L 295.679062 293.977125 
Q 294.479062 293.977125 294.479062 295.177125 
L 294.479062 303.384 
Q 294.479062 304.584 295.679062 304.584 
z
" style="fill: #ffffff; opacity: 0.8; stroke: #cccccc; stroke-linejoin: miter"/>
    </g>
    <g id="line2d_16">
     <path d="M 296.879062 298.836187 
L 302.879062 298.836187 
L 308.879062 298.836187 
" style="fill: none; stroke: #1f77b4; stroke-width: 1.5; stroke-linecap: square"/>
    </g>
    <g id="text_17">
     <!-- Execution time between S1 S15 -->
     <g transform="translate(313.679062 300.936187) scale(0.06 -0.06)">
      <defs>
       <path id="DejaVuSans-45" d="M 628 4666 
L 3578 4666 
L 3578 4134 
L 1259 4134 
L 1259 2753 
L 3481 2753 
L 3481 2222 
L 1259 2222 
L 1259 531 
L 3634 531 
L 3634 0 
L 628 0 
L 628 4666 
z
" transform="scale(0.015625)"/>
       <path id="DejaVuSans-78" d="M 3513 3500 
L 2247 1797 
L 3578 0 
L 2900 0 
L 1881 1375 
L 863 0 
L 184 0 
L 1544 1831 
L 300 3500 
L 978 3500 
L 1906 2253 
L 2834 3500 
L 3513 3500 
z
" transform="scale(0.015625)"/>
       <path id="DejaVuSans-63" d="M 3122 3366 
L 3122 2828 
Q 2878 2963 2633 3030 
Q 2388 3097 2138 3097 
Q 1578 3097 1268 2742 
Q 959 2388 959 1747 
Q 959 1106 1268 751 
Q 1578 397 2138 397 
Q 2388 397 2633 464 
Q 2878 531 3122 666 
L 3122 134 
Q 2881 22 2623 -34 
Q 2366 -91 2075 -91 
Q 1284 -91 818 406 
Q 353 903 353 1747 
Q 353 2603 823 3093 
Q 1294 3584 2113 3584 
Q 2378 3584 2631 3529 
Q 2884 3475 3122 3366 
z
" transform="scale(0.015625)"/>
       <path id="DejaVuSans-75" d="M 544 1381 
L 544 3500 
L 1119 3500 
L 1119 1403 
Q 1119 906 1312 657 
Q 1506 409 1894 409 
Q 2359 409 2629 706 
Q 2900 1003 2900 1516 
L 2900 3500 
L 3475 3500 
L 3475 0 
L 2900 0 
L 2900 538 
Q 2691 219 2414 64 
Q 2138 -91 1772 -91 
Q 1169 -91 856 284 
Q 544 659 544 1381 
z
M 1991 3584 
L 1991 3584 
z
" transform="scale(0.015625)"/>
       <path id="DejaVuSans-74" d="M 1172 4494 
L 1172 3500 
L 2356 3500 
L 2356 3053 
L 1172 3053 
L 1172 1153 
Q 1172 725 1289 603 
Q 1406 481 1766 481 
L 2356 481 
L 2356 0 
L 1766 0 
Q 1100 0 847 248 
Q 594 497 594 1153 
L 594 3053 
L 172 3053 
L 172 3500 
L 594 3500 
L 594 4494 
L 1172 4494 
z
" transform="scale(0.015625)"/>
       <path id="DejaVuSans-69" d="M 603 3500 
L 1178 3500 
L 1178 0 
L 603 0 
L 603 3500 
z
M 603 4863 
L 1178 4863 
L 1178 4134 
L 603 4134 
L 603 4863 
z
" transform="scale(0.015625)"/>
       <path id="DejaVuSans-6f" d="M 1959 3097 
Q 1497 3097 1228 2736 
Q 959 2375 959 1747 
Q 959 1119 1226 758 
Q 1494 397 1959 397 
Q 2419 397 2687 759 
Q 2956 1122 2956 1747 
Q 2956 2369 2687 2733 
Q 2419 3097 1959 3097 
z
M 1959 3584 
Q 2709 3584 3137 3096 
Q 3566 2609 3566 1747 
Q 3566 888 3137 398 
Q 2709 -91 1959 -91 
Q 1206 -91 779 398 
Q 353 888 353 1747 
Q 353 2609 779 3096 
Q 1206 3584 1959 3584 
z
" transform="scale(0.015625)"/>
       <path id="DejaVuSans-6e" d="M 3513 2113 
L 3513 0 
L 2938 0 
L 2938 2094 
Q 2938 2591 2744 2837 
Q 2550 3084 2163 3084 
Q 1697 3084 1428 2787 
Q 1159 2491 1159 1978 
L 1159 0 
L 581 0 
L 581 3500 
L 1159 3500 
L 1159 2956 
Q 1366 3272 1645 3428 
Q 1925 3584 2291 3584 
Q 2894 3584 3203 3211 
Q 3513 2838 3513 2113 
z
" transform="scale(0.015625)"/>
       <path id="DejaVuSans-6d" d="M 3328 2828 
Q 3544 3216 3844 3400 
Q 4144 3584 4550 3584 
Q 5097 3584 5394 3201 
Q 5691 2819 5691 2113 
L 5691 0 
L 5113 0 
L 5113 2094 
Q 5113 2597 4934 2840 
Q 4756 3084 4391 3084 
Q 3944 3084 3684 2787 
Q 3425 2491 3425 1978 
L 3425 0 
L 2847 0 
L 2847 2094 
Q 2847 2600 2669 2842 
Q 2491 3084 2119 3084 
Q 1678 3084 1418 2786 
Q 1159 2488 1159 1978 
L 1159 0 
L 581 0 
L 581 3500 
L 1159 3500 
L 1159 2956 
Q 1356 3278 1631 3431 
Q 1906 3584 2284 3584 
Q 2666 3584 2933 3390 
Q 3200 3197 3328 2828 
z
" transform="scale(0.015625)"/>
       <path id="DejaVuSans-62" d="M 3116 1747 
Q 3116 2381 2855 2742 
Q 2594 3103 2138 3103 
Q 1681 3103 1420 2742 
Q 1159 2381 1159 1747 
Q 1159 1113 1420 752 
Q 1681 391 2138 391 
Q 2594 391 2855 752 
Q 3116 1113 3116 1747 
z
M 1159 2969 
Q 1341 3281 1617 3432 
Q 1894 3584 2278 3584 
Q 2916 3584 3314 3078 
Q 3713 2572 3713 1747 
Q 3713 922 3314 415 
Q 2916 -91 2278 -91 
Q 1894 -91 1617 61 
Q 1341 213 1159 525 
L 1159 0 
L 581 0 
L 581 4863 
L 1159 4863 
L 1159 2969 
z
" transform="scale(0.015625)"/>
       <path id="DejaVuSans-77" d="M 269 3500 
L 844 3500 
L 1563 769 
L 2278 3500 
L 2956 3500 
L 3675 769 
L 4391 3500 
L 4966 3500 
L 4050 0 
L 3372 0 
L 2619 2869 
L 1863 0 
L 1184 0 
L 269 3500 
z
" transform="scale(0.015625)"/>
      </defs>
      <use xlink:href="#DejaVuSans-45"/>
      <use xlink:href="#DejaVuSans-78" x="63.183594"/>
      <use xlink:href="#DejaVuSans-65" x="119.238281"/>
      <use xlink:href="#DejaVuSans-63" x="180.761719"/>
      <use xlink:href="#DejaVuSans-75" x="235.742188"/>
      <use xlink:href="#DejaVuSans-74" x="299.121094"/>
      <use xlink:href="#DejaVuSans-69" x="338.330078"/>
      <use xlink:href="#DejaVuSans-6f" x="366.113281"/>
      <use xlink:href="#DejaVuSans-6e" x="427.294922"/>
      <use xlink:href="#DejaVuSans-20" x="490.673828"/>
      <use xlink:href="#DejaVuSans-74" x="522.460938"/>
      <use xlink:href="#DejaVuSans-69" x="561.669922"/>
      <use xlink:href="#DejaVuSans-6d" x="589.453125"/>
      <use xlink:href="#DejaVuSans-65" x="686.865234"/>
      <use xlink:href="#DejaVuSans-20" x="748.388672"/>
      <use xlink:href="#DejaVuSans-62" x="780.175781"/>
      <use xlink:href="#DejaVuSans-65" x="843.652344"/>
      <use xlink:href="#DejaVuSans-74" x="905.175781"/>
      <use xlink:href="#DejaVuSans-77" x="944.384766"/>
      <use xlink:href="#DejaVuSans-65" x="1026.171875"/>
      <use xlink:href="#DejaVuSans-65" x="1087.695312"/>
      <use xlink:href="#DejaVuSans-6e" x="1149.21875"/>
      <use xlink:href="#DejaVuSans-20" x="1212.597656"/>
      <use xlink:href="#DejaVuSans-53" x="1244.384766"/>
      <use xlink:href="#DejaVuSans-31" x="1307.861328"/>
      <use xlink:href="#DejaVuSans-20" x="1371.484375"/>
      <use xlink:href="#DejaVuSans-53" x="1403.271484"/>
      <use xlink:href="#DejaVuSans-31" x="1466.748047"/>
      <use xlink:href="#DejaVuSans-35" x="1530.371094"/>
     </g>
    </g>
   </g>
  </g>
 </g>
 <defs>
  <clipPath id="pb0c1e38667">
   <rect x="57.6" y="41.472" width="357.12" height="266.112"/>
  </clipPath>
 </defs>
</svg>
