<?xml version="1.0" encoding="utf-8" standalone="no"?>
<!DOCTYPE svg PUBLIC "-//W3C//DTD SVG 1.1//EN"
  "http://www.w3.org/Graphics/SVG/1.1/DTD/svg11.dtd">
<svg xmlns:xlink="http://www.w3.org/1999/xlink" width="460.8pt" height="345.6pt" viewBox="0 0 460.8 345.6" xmlns="http://www.w3.org/2000/svg" version="1.1">
 <metadata>
  <rdf:RDF xmlns:dc="http://purl.org/dc/elements/1.1/" xmlns:cc="http://creativecommons.org/ns#" xmlns:rdf="http://www.w3.org/1999/02/22-rdf-syntax-ns#">
   <cc:Work>
    <dc:type rdf:resource="http://purl.org/dc/dcmitype/StillImage"/>
    <dc:date>2024-03-08T11:56:19.254465</dc:date>
    <dc:format>image/svg+xml</dc:format>
    <dc:creator>
     <cc:Agent>
      <dc:title>Matplotlib v3.8.2, https://matplotlib.org/</dc:title>
     </cc:Agent>
    </dc:creator>
   </cc:Work>
  </rdf:RDF>
 </metadata>
 <defs>
  <style type="text/css">*{stroke-linejoin: round; stroke-linecap: butt}</style>
 </defs>
 <g id="figure_1">
  <g id="patch_1">
   <path d="M 0 345.6 
L 460.8 345.6 
L 460.8 0 
L 0 0 
z
" style="fill: #ffffff"/>
  </g>
  <g id="axes_1">
   <g id="patch_2">
    <path d="M 57.6 307.584 
L 414.72 307.584 
L 414.72 41.472 
L 57.6 41.472 
z
" style="fill: #ffffff"/>
   </g>
   <g id="matplotlib.axis_1">
    <g id="xtick_1">
     <g id="line2d_1">
      <defs>
       <path id="mecbf20754a" d="M 0 0 
L 0 3.5 
" style="stroke: #000000; stroke-width: 0.8"/>
      </defs>
      <g>
       <use xlink:href="#mecbf20754a" x="73.832727" y="307.584" style="stroke: #000000; stroke-width: 0.8"/>
      </g>
     </g>
     <g id="text_1">
      <!-- 0.00 -->
      <g transform="translate(62.699915 322.182437) scale(0.1 -0.1)">
       <defs>
        <path id="DejaVuSans-30" d="M 2034 4250 
Q 1547 4250 1301 3770 
Q 1056 3291 1056 2328 
Q 1056 1369 1301 889 
Q 1547 409 2034 409 
Q 2525 409 2770 889 
Q 3016 1369 3016 2328 
Q 3016 3291 2770 3770 
Q 2525 4250 2034 4250 
z
M 2034 4750 
Q 2819 4750 3233 4129 
Q 3647 3509 3647 2328 
Q 3647 1150 3233 529 
Q 2819 -91 2034 -91 
Q 1250 -91 836 529 
Q 422 1150 422 2328 
Q 422 3509 836 4129 
Q 1250 4750 2034 4750 
z
" transform="scale(0.015625)"/>
        <path id="DejaVuSans-2e" d="M 684 794 
L 1344 794 
L 1344 0 
L 684 0 
L 684 794 
z
" transform="scale(0.015625)"/>
       </defs>
       <use xlink:href="#DejaVuSans-30"/>
       <use xlink:href="#DejaVuSans-2e" x="63.623047"/>
       <use xlink:href="#DejaVuSans-30" x="95.410156"/>
       <use xlink:href="#DejaVuSans-30" x="159.033203"/>
      </g>
     </g>
    </g>
    <g id="xtick_2">
     <g id="line2d_2">
      <g>
       <use xlink:href="#mecbf20754a" x="115.938129" y="307.584" style="stroke: #000000; stroke-width: 0.8"/>
      </g>
     </g>
     <g id="text_2">
      <!-- 0.25 -->
      <g transform="translate(104.805317 322.182437) scale(0.1 -0.1)">
       <defs>
        <path id="DejaVuSans-32" d="M 1228 531 
L 3431 531 
L 3431 0 
L 469 0 
L 469 531 
Q 828 903 1448 1529 
Q 2069 2156 2228 2338 
Q 2531 2678 2651 2914 
Q 2772 3150 2772 3378 
Q 2772 3750 2511 3984 
Q 2250 4219 1831 4219 
Q 1534 4219 1204 4116 
Q 875 4013 500 3803 
L 500 4441 
Q 881 4594 1212 4672 
Q 1544 4750 1819 4750 
Q 2544 4750 2975 4387 
Q 3406 4025 3406 3419 
Q 3406 3131 3298 2873 
Q 3191 2616 2906 2266 
Q 2828 2175 2409 1742 
Q 1991 1309 1228 531 
z
" transform="scale(0.015625)"/>
        <path id="DejaVuSans-35" d="M 691 4666 
L 3169 4666 
L 3169 4134 
L 1269 4134 
L 1269 2991 
Q 1406 3038 1543 3061 
Q 1681 3084 1819 3084 
Q 2600 3084 3056 2656 
Q 3513 2228 3513 1497 
Q 3513 744 3044 326 
Q 2575 -91 1722 -91 
Q 1428 -91 1123 -41 
Q 819 9 494 109 
L 494 744 
Q 775 591 1075 516 
Q 1375 441 1709 441 
Q 2250 441 2565 725 
Q 2881 1009 2881 1497 
Q 2881 1984 2565 2268 
Q 2250 2553 1709 2553 
Q 1456 2553 1204 2497 
Q 953 2441 691 2322 
L 691 4666 
z
" transform="scale(0.015625)"/>
       </defs>
       <use xlink:href="#DejaVuSans-30"/>
       <use xlink:href="#DejaVuSans-2e" x="63.623047"/>
       <use xlink:href="#DejaVuSans-32" x="95.410156"/>
       <use xlink:href="#DejaVuSans-35" x="159.033203"/>
      </g>
     </g>
    </g>
    <g id="xtick_3">
     <g id="line2d_3">
      <g>
       <use xlink:href="#mecbf20754a" x="158.043532" y="307.584" style="stroke: #000000; stroke-width: 0.8"/>
      </g>
     </g>
     <g id="text_3">
      <!-- 0.50 -->
      <g transform="translate(146.910719 322.182437) scale(0.1 -0.1)">
       <use xlink:href="#DejaVuSans-30"/>
       <use xlink:href="#DejaVuSans-2e" x="63.623047"/>
       <use xlink:href="#DejaVuSans-35" x="95.410156"/>
       <use xlink:href="#DejaVuSans-30" x="159.033203"/>
      </g>
     </g>
    </g>
    <g id="xtick_4">
     <g id="line2d_4">
      <g>
       <use xlink:href="#mecbf20754a" x="200.148934" y="307.584" style="stroke: #000000; stroke-width: 0.8"/>
      </g>
     </g>
     <g id="text_4">
      <!-- 0.75 -->
      <g transform="translate(189.016121 322.182437) scale(0.1 -0.1)">
       <defs>
        <path id="DejaVuSans-37" d="M 525 4666 
L 3525 4666 
L 3525 4397 
L 1831 0 
L 1172 0 
L 2766 4134 
L 525 4134 
L 525 4666 
z
" transform="scale(0.015625)"/>
       </defs>
       <use xlink:href="#DejaVuSans-30"/>
       <use xlink:href="#DejaVuSans-2e" x="63.623047"/>
       <use xlink:href="#DejaVuSans-37" x="95.410156"/>
       <use xlink:href="#DejaVuSans-35" x="159.033203"/>
      </g>
     </g>
    </g>
    <g id="xtick_5">
     <g id="line2d_5">
      <g>
       <use xlink:href="#mecbf20754a" x="242.254336" y="307.584" style="stroke: #000000; stroke-width: 0.8"/>
      </g>
     </g>
     <g id="text_5">
      <!-- 1.00 -->
      <g transform="translate(231.121523 322.182437) scale(0.1 -0.1)">
       <defs>
        <path id="DejaVuSans-31" d="M 794 531 
L 1825 531 
L 1825 4091 
L 703 3866 
L 703 4441 
L 1819 4666 
L 2450 4666 
L 2450 531 
L 3481 531 
L 3481 0 
L 794 0 
L 794 531 
z
" transform="scale(0.015625)"/>
       </defs>
       <use xlink:href="#DejaVuSans-31"/>
       <use xlink:href="#DejaVuSans-2e" x="63.623047"/>
       <use xlink:href="#DejaVuSans-30" x="95.410156"/>
       <use xlink:href="#DejaVuSans-30" x="159.033203"/>
      </g>
     </g>
    </g>
    <g id="xtick_6">
     <g id="line2d_6">
      <g>
       <use xlink:href="#mecbf20754a" x="284.359738" y="307.584" style="stroke: #000000; stroke-width: 0.8"/>
      </g>
     </g>
     <g id="text_6">
      <!-- 1.25 -->
      <g transform="translate(273.226926 322.182437) scale(0.1 -0.1)">
       <use xlink:href="#DejaVuSans-31"/>
       <use xlink:href="#DejaVuSans-2e" x="63.623047"/>
       <use xlink:href="#DejaVuSans-32" x="95.410156"/>
       <use xlink:href="#DejaVuSans-35" x="159.033203"/>
      </g>
     </g>
    </g>
    <g id="xtick_7">
     <g id="line2d_7">
      <g>
       <use xlink:href="#mecbf20754a" x="326.46514" y="307.584" style="stroke: #000000; stroke-width: 0.8"/>
      </g>
     </g>
     <g id="text_7">
      <!-- 1.50 -->
      <g transform="translate(315.332328 322.182437) scale(0.1 -0.1)">
       <use xlink:href="#DejaVuSans-31"/>
       <use xlink:href="#DejaVuSans-2e" x="63.623047"/>
       <use xlink:href="#DejaVuSans-35" x="95.410156"/>
       <use xlink:href="#DejaVuSans-30" x="159.033203"/>
      </g>
     </g>
    </g>
    <g id="xtick_8">
     <g id="line2d_8">
      <g>
       <use xlink:href="#mecbf20754a" x="368.570542" y="307.584" style="stroke: #000000; stroke-width: 0.8"/>
      </g>
     </g>
     <g id="text_8">
      <!-- 1.75 -->
      <g transform="translate(357.43773 322.182437) scale(0.1 -0.1)">
       <use xlink:href="#DejaVuSans-31"/>
       <use xlink:href="#DejaVuSans-2e" x="63.623047"/>
       <use xlink:href="#DejaVuSans-37" x="95.410156"/>
       <use xlink:href="#DejaVuSans-35" x="159.033203"/>
      </g>
     </g>
    </g>
    <g id="xtick_9">
     <g id="line2d_9">
      <g>
       <use xlink:href="#mecbf20754a" x="410.675945" y="307.584" style="stroke: #000000; stroke-width: 0.8"/>
      </g>
     </g>
     <g id="text_9">
      <!-- 2.00 -->
      <g transform="translate(399.543132 322.182437) scale(0.1 -0.1)">
       <use xlink:href="#DejaVuSans-32"/>
       <use xlink:href="#DejaVuSans-2e" x="63.623047"/>
       <use xlink:href="#DejaVuSans-30" x="95.410156"/>
       <use xlink:href="#DejaVuSans-30" x="159.033203"/>
      </g>
     </g>
    </g>
    <g id="text_10">
     <!-- 1e6 -->
     <g transform="translate(395.841875 334.860562) scale(0.1 -0.1)">
      <defs>
       <path id="DejaVuSans-65" d="M 3597 1894 
L 3597 1613 
L 953 1613 
Q 991 1019 1311 708 
Q 1631 397 2203 397 
Q 2534 397 2845 478 
Q 3156 559 3463 722 
L 3463 178 
Q 3153 47 2828 -22 
Q 2503 -91 2169 -91 
Q 1331 -91 842 396 
Q 353 884 353 1716 
Q 353 2575 817 3079 
Q 1281 3584 2069 3584 
Q 2775 3584 3186 3129 
Q 3597 2675 3597 1894 
z
M 3022 2063 
Q 3016 2534 2758 2815 
Q 2500 3097 2075 3097 
Q 1594 3097 1305 2825 
Q 1016 2553 972 2059 
L 3022 2063 
z
" transform="scale(0.015625)"/>
       <path id="DejaVuSans-36" d="M 2113 2584 
Q 1688 2584 1439 2293 
Q 1191 2003 1191 1497 
Q 1191 994 1439 701 
Q 1688 409 2113 409 
Q 2538 409 2786 701 
Q 3034 994 3034 1497 
Q 3034 2003 2786 2293 
Q 2538 2584 2113 2584 
z
M 3366 4563 
L 3366 3988 
Q 3128 4100 2886 4159 
Q 2644 4219 2406 4219 
Q 1781 4219 1451 3797 
Q 1122 3375 1075 2522 
Q 1259 2794 1537 2939 
Q 1816 3084 2150 3084 
Q 2853 3084 3261 2657 
Q 3669 2231 3669 1497 
Q 3669 778 3244 343 
Q 2819 -91 2113 -91 
Q 1303 -91 875 529 
Q 447 1150 447 2328 
Q 447 3434 972 4092 
Q 1497 4750 2381 4750 
Q 2619 4750 2861 4703 
Q 3103 4656 3366 4563 
z
" transform="scale(0.015625)"/>
      </defs>
      <use xlink:href="#DejaVuSans-31"/>
      <use xlink:href="#DejaVuSans-65" x="63.623047"/>
      <use xlink:href="#DejaVuSans-36" x="125.146484"/>
     </g>
    </g>
   </g>
   <g id="matplotlib.axis_2">
    <g id="ytick_1">
     <g id="line2d_10">
      <defs>
       <path id="m082a1b81a0" d="M 0 0 
L -3.5 0 
" style="stroke: #000000; stroke-width: 0.8"/>
      </defs>
      <g>
       <use xlink:href="#m082a1b81a0" x="57.6" y="295.488" style="stroke: #000000; stroke-width: 0.8"/>
      </g>
     </g>
     <g id="text_11">
      <!-- 0.0 -->
      <g transform="translate(34.696875 299.287219) scale(0.1 -0.1)">
       <use xlink:href="#DejaVuSans-30"/>
       <use xlink:href="#DejaVuSans-2e" x="63.623047"/>
       <use xlink:href="#DejaVuSans-30" x="95.410156"/>
      </g>
     </g>
    </g>
    <g id="ytick_2">
     <g id="line2d_11">
      <g>
       <use xlink:href="#m082a1b81a0" x="57.6" y="247.104" style="stroke: #000000; stroke-width: 0.8"/>
      </g>
     </g>
     <g id="text_12">
      <!-- 0.2 -->
      <g transform="translate(34.696875 250.903219) scale(0.1 -0.1)">
       <use xlink:href="#DejaVuSans-30"/>
       <use xlink:href="#DejaVuSans-2e" x="63.623047"/>
       <use xlink:href="#DejaVuSans-32" x="95.410156"/>
      </g>
     </g>
    </g>
    <g id="ytick_3">
     <g id="line2d_12">
      <g>
       <use xlink:href="#m082a1b81a0" x="57.6" y="198.72" style="stroke: #000000; stroke-width: 0.8"/>
      </g>
     </g>
     <g id="text_13">
      <!-- 0.4 -->
      <g transform="translate(34.696875 202.519219) scale(0.1 -0.1)">
       <defs>
        <path id="DejaVuSans-34" d="M 2419 4116 
L 825 1625 
L 2419 1625 
L 2419 4116 
z
M 2253 4666 
L 3047 4666 
L 3047 1625 
L 3713 1625 
L 3713 1100 
L 3047 1100 
L 3047 0 
L 2419 0 
L 2419 1100 
L 313 1100 
L 313 1709 
L 2253 4666 
z
" transform="scale(0.015625)"/>
       </defs>
       <use xlink:href="#DejaVuSans-30"/>
       <use xlink:href="#DejaVuSans-2e" x="63.623047"/>
       <use xlink:href="#DejaVuSans-34" x="95.410156"/>
      </g>
     </g>
    </g>
    <g id="ytick_4">
     <g id="line2d_13">
      <g>
       <use xlink:href="#m082a1b81a0" x="57.6" y="150.336" style="stroke: #000000; stroke-width: 0.8"/>
      </g>
     </g>
     <g id="text_14">
      <!-- 0.6 -->
      <g transform="translate(34.696875 154.135219) scale(0.1 -0.1)">
       <use xlink:href="#DejaVuSans-30"/>
       <use xlink:href="#DejaVuSans-2e" x="63.623047"/>
       <use xlink:href="#DejaVuSans-36" x="95.410156"/>
      </g>
     </g>
    </g>
    <g id="ytick_5">
     <g id="line2d_14">
      <g>
       <use xlink:href="#m082a1b81a0" x="57.6" y="101.952" style="stroke: #000000; stroke-width: 0.8"/>
      </g>
     </g>
     <g id="text_15">
      <!-- 0.8 -->
      <g transform="translate(34.696875 105.751219) scale(0.1 -0.1)">
       <defs>
        <path id="DejaVuSans-38" d="M 2034 2216 
Q 1584 2216 1326 1975 
Q 1069 1734 1069 1313 
Q 1069 891 1326 650 
Q 1584 409 2034 409 
Q 2484 409 2743 651 
Q 3003 894 3003 1313 
Q 3003 1734 2745 1975 
Q 2488 2216 2034 2216 
z
M 1403 2484 
Q 997 2584 770 2862 
Q 544 3141 544 3541 
Q 544 4100 942 4425 
Q 1341 4750 2034 4750 
Q 2731 4750 3128 4425 
Q 3525 4100 3525 3541 
Q 3525 3141 3298 2862 
Q 3072 2584 2669 2484 
Q 3125 2378 3379 2068 
Q 3634 1759 3634 1313 
Q 3634 634 3220 271 
Q 2806 -91 2034 -91 
Q 1263 -91 848 271 
Q 434 634 434 1313 
Q 434 1759 690 2068 
Q 947 2378 1403 2484 
z
M 1172 3481 
Q 1172 3119 1398 2916 
Q 1625 2713 2034 2713 
Q 2441 2713 2670 2916 
Q 2900 3119 2900 3481 
Q 2900 3844 2670 4047 
Q 2441 4250 2034 4250 
Q 1625 4250 1398 4047 
Q 1172 3844 1172 3481 
z
" transform="scale(0.015625)"/>
       </defs>
       <use xlink:href="#DejaVuSans-30"/>
       <use xlink:href="#DejaVuSans-2e" x="63.623047"/>
       <use xlink:href="#DejaVuSans-38" x="95.410156"/>
      </g>
     </g>
    </g>
    <g id="ytick_6">
     <g id="line2d_15">
      <g>
       <use xlink:href="#m082a1b81a0" x="57.6" y="53.568" style="stroke: #000000; stroke-width: 0.8"/>
      </g>
     </g>
     <g id="text_16">
      <!-- 1.0 -->
      <g transform="translate(34.696875 57.367219) scale(0.1 -0.1)">
       <use xlink:href="#DejaVuSans-31"/>
       <use xlink:href="#DejaVuSans-2e" x="63.623047"/>
       <use xlink:href="#DejaVuSans-30" x="95.410156"/>
      </g>
     </g>
    </g>
   </g>
   <g id="line2d_16">
    <path d="M 73.832727 295.488 
L 131.247654 295.488 
L 131.247654 294.788809 
L 131.843866 294.788809 
L 131.843866 294.089618 
L 132.431658 294.089618 
L 132.431658 293.390428 
L 133.019449 293.390428 
L 133.019449 292.691237 
L 133.60724 292.691237 
L 133.60724 291.992046 
L 134.193348 291.992046 
L 134.193348 291.292855 
L 134.784507 291.292855 
L 134.784507 290.593665 
L 135.377352 290.593665 
L 135.377352 289.894474 
L 135.968511 289.894474 
L 135.968511 289.195283 
L 136.549566 289.195283 
L 136.549566 288.496092 
L 137.140726 288.496092 
L 137.140726 287.796902 
L 137.738622 287.796902 
L 137.738622 287.097711 
L 138.326414 287.097711 
L 138.326414 286.39852 
L 138.907468 286.39852 
L 138.907468 285.699329 
L 139.488523 285.699329 
L 139.488523 285.000139 
L 140.079683 285.000139 
L 140.079683 284.300948 
L 140.654 284.300948 
L 140.654 283.601757 
L 141.228318 283.601757 
L 141.228318 282.902566 
L 141.811057 282.902566 
L 141.811057 282.203376 
L 142.398848 282.203376 
L 142.398848 281.504185 
L 142.995061 281.504185 
L 142.995061 280.804994 
L 143.582852 280.804994 
L 143.582852 280.105803 
L 144.184117 280.105803 
L 144.184117 279.406613 
L 144.771909 279.406613 
L 144.771909 278.707422 
L 145.349595 278.707422 
L 145.349595 278.008231 
L 145.945807 278.008231 
L 145.945807 277.30904 
L 146.533599 277.30904 
L 146.533599 276.60985 
L 147.109601 276.60985 
L 147.109601 275.910659 
L 147.690655 275.910659 
L 147.690655 275.211468 
L 148.286868 275.211468 
L 148.286868 274.512277 
L 148.872975 274.512277 
L 148.872975 273.813087 
L 149.475924 273.813087 
L 149.475924 273.113896 
L 150.073821 273.113896 
L 150.073821 272.414705 
L 150.659928 272.414705 
L 150.659928 271.715514 
L 151.239299 271.715514 
L 151.239299 271.016324 
L 151.83888 271.016324 
L 151.83888 270.317133 
L 152.435092 270.317133 
L 152.435092 269.617942 
L 153.016147 269.617942 
L 153.016147 268.918751 
L 153.612359 268.918751 
L 153.612359 268.219561 
L 154.193414 268.219561 
L 154.193414 267.52037 
L 154.779521 267.52037 
L 154.779521 266.821179 
L 155.358891 266.821179 
L 155.358891 266.121988 
L 155.936577 266.121988 
L 155.936577 265.422798 
L 156.537842 265.422798 
L 156.537842 264.723607 
L 157.11216 264.723607 
L 157.11216 264.024416 
L 157.718478 264.024416 
L 157.718478 263.325225 
L 158.319743 263.325225 
L 158.319743 262.626035 
L 158.912587 262.626035 
L 158.912587 261.926844 
L 159.515536 261.926844 
L 159.515536 261.227653 
L 160.106696 261.227653 
L 160.106696 260.528462 
L 160.677646 260.528462 
L 160.677646 259.829272 
L 161.255332 259.829272 
L 161.255332 259.130081 
L 161.846492 259.130081 
L 161.846492 258.43089 
L 162.435967 258.43089 
L 162.435967 257.731699 
L 163.037232 257.731699 
L 163.037232 257.032509 
L 163.613234 257.032509 
L 163.613234 256.333318 
L 164.807343 256.333318 
L 164.807343 255.634127 
L 165.383345 255.634127 
L 165.383345 254.934936 
L 165.972821 254.934936 
L 165.972821 254.235746 
L 166.090716 254.235746 
L 166.090716 253.536555 
L 166.558928 253.536555 
L 166.558928 252.837364 
L 166.671771 252.837364 
L 166.671771 252.138173 
L 167.13493 252.138173 
L 167.13493 251.438983 
L 167.26293 251.438983 
L 167.26293 250.739792 
L 167.7143 250.739792 
L 167.7143 250.040601 
L 167.842301 250.040601 
L 167.842301 249.34141 
L 168.315566 249.34141 
L 168.315566 248.64222 
L 168.438513 248.64222 
L 168.438513 247.943029 
L 168.913462 247.943029 
L 168.913462 247.243838 
L 169.041463 247.243838 
L 169.041463 246.544647 
L 169.484411 246.544647 
L 169.484411 245.845457 
L 169.639359 245.845457 
L 169.639359 245.146266 
L 170.222098 245.146266 
L 170.222098 244.447075 
L 170.811574 244.447075 
L 170.811574 243.747884 
L 171.397681 243.747884 
L 171.397681 243.048694 
L 173.188003 243.048694 
L 173.188003 242.349503 
L 173.769057 242.349503 
L 173.769057 241.650312 
L 174.36527 241.650312 
L 174.36527 240.951121 
L 174.949693 240.951121 
L 174.949693 240.251931 
L 175.534116 240.251931 
L 175.534116 239.55274 
L 181.878558 239.55274 
L 181.878558 238.853549 
L 182.466349 238.853549 
L 182.466349 238.154358 
L 183.037298 238.154358 
L 183.037298 237.455168 
L 203.56284 237.455168 
L 203.56284 236.755977 
L 203.987262 236.755977 
L 203.987262 236.056786 
L 204.408316 236.056786 
L 204.408316 235.357595 
L 204.82937 235.357595 
L 204.82937 234.658405 
L 205.24874 234.658405 
L 205.24874 233.959214 
L 205.671478 233.959214 
L 205.671478 233.260023 
L 206.090848 233.260023 
L 206.090848 232.560832 
L 206.516955 232.560832 
L 206.516955 231.861642 
L 206.944746 231.861642 
L 206.944746 231.162451 
L 207.360747 231.162451 
L 207.360747 230.46326 
L 207.783485 230.46326 
L 207.783485 229.764069 
L 208.196118 229.764069 
L 208.196118 229.064879 
L 208.620541 229.064879 
L 208.620541 228.365688 
L 209.033174 228.365688 
L 209.033174 227.666497 
L 209.467701 227.666497 
L 209.467701 226.967306 
L 209.888755 226.967306 
L 209.888755 226.268116 
L 210.299704 226.268116 
L 210.299704 225.568925 
L 210.712337 225.568925 
L 210.712337 224.869734 
L 211.135075 224.869734 
L 211.148549 223.471353 
L 211.554445 223.471353 
L 211.554445 222.772162 
L 211.727919 222.772162 
L 211.727919 222.072971 
L 211.977183 222.072971 
L 211.977183 221.37378 
L 212.308974 221.37378 
L 212.396553 219.975399 
L 212.809186 219.975399 
L 212.901818 218.577017 
L 213.225187 218.577017 
L 213.225187 217.877827 
L 213.479504 217.877827 
L 213.479504 217.178636 
L 213.647926 217.178636 
L 213.647926 216.479445 
L 214.065611 216.479445 
L 214.067295 215.081064 
L 214.48835 215.081064 
L 214.48835 214.381873 
L 214.651718 214.381873 
L 214.651718 213.682682 
L 214.897614 213.682682 
L 214.897614 212.983491 
L 215.232773 212.983491 
L 215.320352 211.58511 
L 215.751512 211.58511 
L 215.820564 210.186728 
L 216.164145 210.186728 
L 216.164145 209.487538 
L 216.418461 209.487538 
L 216.418461 208.788347 
L 216.586883 208.788347 
L 216.586883 208.089156 
L 216.997831 208.089156 
L 217.009621 206.690775 
L 217.430675 206.690775 
L 217.430675 205.991584 
L 217.582254 205.991584 
L 217.582254 205.292393 
L 217.850045 205.292393 
L 217.850045 204.593202 
L 218.178467 204.593202 
L 218.274467 203.194821 
L 218.683732 203.194821 
L 218.772995 201.796439 
L 219.098049 201.796439 
L 219.098049 201.097249 
L 219.359102 201.097249 
L 219.359102 200.398058 
L 219.508998 200.398058 
L 219.508998 199.698867 
L 219.928367 199.698867 
L 219.946894 198.300486 
L 220.344369 198.300486 
L 220.344369 197.601295 
L 220.534685 197.601295 
L 220.534685 196.902104 
L 220.762054 196.902104 
L 220.762054 196.202913 
L 221.127529 196.202913 
L 221.171319 194.804532 
L 221.595741 194.804532 
L 221.595741 194.105341 
L 221.715321 194.105341 
L 221.715321 193.40615 
L 222.015111 193.40615 
L 222.015111 192.70696 
L 222.306481 192.70696 
L 222.306481 192.007769 
L 222.441218 192.007769 
L 222.441218 191.308578 
L 222.863956 191.308578 
L 222.904377 189.910197 
L 223.28501 189.910197 
L 223.28501 189.211006 
L 223.497221 189.211006 
L 223.497221 188.511815 
L 223.69259 188.511815 
L 223.69259 187.812624 
L 224.095118 187.812624 
L 224.110276 186.414243 
L 224.54312 186.414243 
L 224.54312 185.715052 
L 224.676173 185.715052 
L 224.676173 185.015861 
L 224.959121 185.015861 
L 224.959121 184.316671 
L 225.277438 184.316671 
L 225.375122 182.918289 
L 225.794492 182.918289 
L 225.875334 181.519908 
L 226.21723 181.519908 
L 226.21723 180.820717 
L 226.64839 180.820717 
L 226.64839 180.121526 
L 227.045865 180.121526 
L 227.061023 178.723145 
L 227.480392 178.723145 
L 227.480392 178.023954 
L 227.637024 178.023954 
L 227.637024 177.324763 
L 227.908183 177.324763 
L 227.908183 176.625572 
L 228.224816 176.625572 
L 228.317448 175.227191 
L 228.740186 175.227191 
L 228.821028 173.828809 
L 229.159556 173.828809 
L 229.159556 173.129618 
L 229.412188 173.129618 
L 229.412188 172.430428 
L 229.575557 172.430428 
L 229.575557 171.731237 
L 229.989874 171.731237 
L 229.993243 170.332855 
L 230.414297 170.332855 
L 230.414297 169.633665 
L 230.582718 169.633665 
L 230.582718 168.934474 
L 230.830298 168.934474 
L 230.833667 167.536092 
L 231.163773 167.536092 
L 231.261458 165.43852 
L 231.677459 165.43852 
L 231.754933 164.040139 
L 232.108618 164.040139 
L 232.108618 163.340948 
L 232.346093 163.340948 
L 232.346093 162.641757 
L 232.529672 162.641757 
L 232.529672 161.942566 
L 232.949042 161.942566 
L 232.955779 160.544185 
L 233.373464 160.544185 
L 233.373464 159.844994 
L 233.546939 159.844994 
L 233.546939 159.145803 
L 233.787782 159.145803 
L 233.787782 158.446613 
L 234.19873 158.446613 
L 234.19873 157.747422 
L 234.614732 157.747422 
L 234.614732 157.048231 
L 235.03747 157.048231 
L 235.03747 156.34904 
L 235.461892 156.34904 
L 235.461892 155.64985 
L 235.87621 155.64985 
L 235.87621 154.950659 
L 236.295579 154.950659 
L 236.295579 154.251468 
L 236.72337 154.251468 
L 236.72337 153.552277 
L 237.152845 153.552277 
L 237.152845 152.853087 
L 237.577268 152.853087 
L 237.577268 152.153896 
L 238.000006 152.153896 
L 238.000006 151.454705 
L 238.417692 151.454705 
L 238.417692 150.755514 
L 238.837061 150.755514 
L 238.837061 150.056324 
L 239.269905 150.056324 
L 239.269905 149.357133 
L 249.370149 149.357133 
L 249.370149 148.657942 
L 252.327632 148.657942 
L 252.405106 147.259561 
L 252.750371 147.259561 
L 252.750371 146.56037 
L 252.979424 146.56037 
L 252.979424 145.861179 
L 258.261126 145.861179 
L 258.261126 145.161988 
L 258.848917 145.161988 
L 258.848917 144.462798 
L 259.438393 144.462798 
L 259.438393 143.763607 
L 260.041342 143.763607 
L 260.041342 143.064416 
L 260.773976 143.064416 
L 260.773976 142.365225 
L 261.205135 142.365225 
L 261.205135 141.666035 
L 261.624505 141.666035 
L 261.624505 140.966844 
L 262.043875 140.966844 
L 262.043875 140.267653 
L 262.471666 140.267653 
L 262.471666 139.568462 
L 262.897772 139.568462 
L 262.897772 138.869272 
L 263.31209 138.869272 
L 263.31209 138.170081 
L 263.733144 138.170081 
L 263.733144 137.47089 
L 264.152513 137.47089 
L 264.152513 136.771699 
L 264.581989 136.771699 
L 264.581989 136.072509 
L 265.011464 136.072509 
L 265.011464 135.373318 
L 265.424097 135.373318 
L 265.424097 134.674127 
L 265.841782 134.674127 
L 265.841782 133.974936 
L 266.261152 133.974936 
L 266.261152 133.275746 
L 266.557574 133.275746 
L 266.557574 132.576555 
L 266.693996 132.576555 
L 266.693996 131.877364 
L 267.113365 131.877364 
L 267.153787 130.478983 
L 267.536104 130.478983 
L 267.536104 129.779792 
L 267.744946 129.779792 
L 267.744946 129.080601 
L 267.950421 129.080601 
L 267.950421 128.38141 
L 268.334422 128.38141 
L 268.369791 126.983029 
L 268.792529 126.983029 
L 268.792529 126.283838 
L 268.92895 126.283838 
L 268.92895 125.584647 
L 269.216951 125.584647 
L 269.216951 124.885457 
L 269.526847 124.885457 
L 269.629584 123.487075 
L 270.048954 123.487075 
L 270.11127 122.088694 
L 270.476745 122.088694 
L 270.476745 121.389503 
L 270.697377 121.389503 
L 270.697377 120.690312 
L 270.90622 120.690312 
L 270.90622 119.991121 
L 271.285169 119.991121 
L 271.318853 118.59274 
L 271.74496 118.59274 
L 271.74496 117.893549 
L 271.883065 117.893549 
L 271.883065 117.194358 
L 272.166014 117.194358 
L 272.166014 116.495168 
L 272.470857 116.495168 
L 272.470857 115.795977 
L 272.595489 115.795977 
L 272.595489 115.096786 
L 273.009806 115.096786 
L 273.056964 113.698405 
L 273.425807 113.698405 
L 273.425807 112.999214 
L 273.64644 112.999214 
L 273.64644 112.300023 
L 273.848545 112.300023 
L 273.848545 111.600832 
L 274.272968 111.600832 
L 274.272968 110.901642 
L 274.694022 110.901642 
L 274.694022 110.202451 
L 275.118444 110.202451 
L 275.118444 109.50326 
L 275.542867 109.50326 
L 275.542867 108.804069 
L 275.9555 108.804069 
L 275.9555 108.104879 
L 276.381606 108.104879 
L 276.381606 107.405688 
L 276.806029 107.405688 
L 276.806029 106.706497 
L 277.237188 106.706497 
L 277.237188 106.007306 
L 277.659926 106.007306 
L 277.659926 105.308116 
L 278.082665 105.308116 
L 278.082665 104.608925 
L 278.498666 104.608925 
L 278.498666 103.909734 
L 278.916352 103.909734 
L 278.916352 103.210543 
L 279.33909 103.210543 
L 279.33909 102.511353 
L 279.763512 102.511353 
L 279.763512 101.812162 
L 280.189619 101.812162 
L 280.189619 101.112971 
L 280.60562 101.112971 
L 280.60562 100.41378 
L 281.026674 100.41378 
L 281.026674 99.71459 
L 281.454465 99.71459 
L 281.454465 99.015399 
L 281.868782 99.015399 
L 281.868782 98.316208 
L 282.2831 98.316208 
L 282.2831 97.617017 
L 282.705838 97.617017 
L 282.705838 96.917827 
L 283.136997 96.917827 
L 283.136997 96.218636 
L 283.564788 96.218636 
L 283.564788 95.519445 
L 283.982474 95.519445 
L 283.982474 94.820254 
L 284.410265 94.820254 
L 284.410265 94.121064 
L 284.833003 94.121064 
L 284.833003 93.421873 
L 285.255741 93.421873 
L 285.255741 92.722682 
L 285.673427 92.722682 
L 285.673427 92.023491 
L 286.097849 92.023491 
L 286.097849 91.324301 
L 286.530693 91.324301 
L 286.530693 90.62511 
L 286.955115 90.62511 
L 286.955115 89.925919 
L 287.386274 89.925919 
L 287.386274 89.226728 
L 287.80396 89.226728 
L 287.80396 88.527538 
L 288.228382 88.527538 
L 288.228382 87.828347 
L 288.652805 87.828347 
L 288.652805 87.129156 
L 289.077227 87.129156 
L 289.077227 86.429965 
L 289.499966 86.429965 
L 289.499966 85.730775 
L 289.912599 85.730775 
L 289.912599 85.031584 
L 290.335337 85.031584 
L 290.335337 84.332393 
L 290.751338 84.332393 
L 290.751338 83.633202 
L 291.165655 83.633202 
L 291.165655 82.934012 
L 291.586709 82.934012 
L 291.586709 82.234821 
L 292.011132 82.234821 
L 292.011132 81.53563 
L 292.432186 81.53563 
L 292.432186 80.836439 
L 292.849871 80.836439 
L 292.849871 80.137249 
L 293.269241 80.137249 
L 293.269241 79.438058 
L 293.681874 79.438058 
L 293.681874 78.738867 
L 294.101244 78.738867 
L 294.101244 78.039676 
L 294.523982 78.039676 
L 294.523982 77.340486 
L 294.945036 77.340486 
L 294.945036 76.641295 
L 295.372827 76.641295 
L 295.372827 75.942104 
L 295.788828 75.942104 
L 295.788828 75.242913 
L 296.208198 75.242913 
L 296.208198 74.543723 
L 296.630936 74.543723 
L 296.630936 73.844532 
L 297.053675 73.844532 
L 297.053675 73.145341 
L 297.904204 73.145341 
L 297.904204 72.44615 
L 298.330311 72.44615 
L 298.330311 71.74696 
L 298.756417 71.74696 
L 298.756417 71.047769 
L 299.165682 71.047769 
L 299.165682 70.348578 
L 299.585051 70.348578 
L 299.585051 69.649387 
L 302.94001 69.649387 
L 302.94001 68.950197 
L 303.356011 68.950197 
L 303.356011 68.251006 
L 303.773697 68.251006 
L 303.773697 67.551815 
L 304.198119 67.551815 
L 304.198119 66.852624 
L 304.622542 66.852624 
L 304.622542 66.153434 
L 305.043596 66.153434 
L 305.043596 65.454243 
L 305.469702 65.454243 
L 305.469702 64.755052 
L 305.889072 64.755052 
L 305.889072 64.055861 
L 306.313495 64.055861 
L 306.313495 63.356671 
L 306.727812 63.356671 
L 306.727812 62.65748 
L 307.153919 62.65748 
L 307.153919 61.958289 
L 307.568236 61.958289 
L 307.568236 61.259098 
L 307.997711 61.259098 
L 307.997711 60.559908 
L 308.418765 60.559908 
L 308.418765 59.860717 
L 308.839819 59.860717 
L 308.839819 59.161526 
L 309.25582 59.161526 
L 309.25582 58.462335 
L 309.688664 58.462335 
L 309.688664 57.763145 
L 310.108034 57.763145 
L 310.108034 57.063954 
L 310.525719 57.063954 
L 310.525719 56.364763 
L 315.189314 56.364763 
L 315.189314 55.665572 
L 315.612052 55.665572 
L 315.612052 54.966382 
L 316.044895 54.966382 
L 316.044895 54.267191 
L 316.465949 54.267191 
L 316.465949 53.568 
L 316.465949 53.568 
" clip-path="url(#pbd8f8fb217)" style="fill: none; stroke: #1f77b4; stroke-width: 1.5; stroke-linecap: square"/>
   </g>
   <g id="line2d_17">
    <path d="M 73.832727 295.488 
L 169.976203 295.488 
L 169.976203 294.899387 
L 170.309677 294.899387 
L 170.309677 294.310774 
L 170.649889 294.310774 
L 170.649889 293.722161 
L 170.985048 293.722161 
L 170.985048 293.133547 
L 171.318523 293.133547 
L 171.318523 292.544934 
L 171.650313 292.544934 
L 171.650313 291.956321 
L 186.969943 291.956321 
L 186.969943 291.367708 
L 187.306786 291.367708 
L 187.306786 290.779095 
L 187.646998 290.779095 
L 187.646998 290.190482 
L 187.982157 290.190482 
L 187.982157 289.601869 
L 188.317316 289.601869 
L 188.317316 289.013255 
L 188.657527 289.013255 
L 188.657527 288.424642 
L 188.98595 288.424642 
L 188.98595 287.836029 
L 189.327845 287.836029 
L 189.327845 287.247416 
L 189.668057 287.247416 
L 189.668057 286.658803 
L 189.999848 286.658803 
L 189.999848 286.07019 
L 190.335007 286.07019 
L 190.335007 285.481577 
L 190.668481 285.481577 
L 190.668481 284.892964 
L 191.000272 284.892964 
L 191.000272 284.30435 
L 191.337115 284.30435 
L 191.337115 283.715737 
L 191.668906 283.715737 
L 191.668906 283.127124 
L 192.012486 283.127124 
L 192.012486 282.538511 
L 192.347645 282.538511 
L 192.347645 281.949898 
L 192.615435 281.949898 
L 192.689541 280.772672 
L 193.019647 280.772672 
L 193.019647 280.184058 
L 193.209963 280.184058 
L 193.209963 279.595445 
L 193.363227 279.595445 
L 193.363227 279.006832 
L 193.698386 279.006832 
L 193.799439 277.829606 
L 194.033545 277.829606 
L 194.033545 277.240993 
L 194.363651 277.240993 
L 194.400704 276.063766 
L 194.703863 276.063766 
L 194.703863 275.475153 
L 194.991864 275.475153 
L 195.044075 274.297927 
L 195.374181 274.297927 
L 195.374181 273.709314 
L 195.574603 273.709314 
L 195.574603 273.120701 
L 195.700919 273.120701 
L 195.700919 272.532088 
L 196.039446 272.532088 
L 196.039446 271.943474 
L 196.174184 271.943474 
L 196.174184 271.354861 
L 196.379658 271.354861 
L 196.379658 270.766248 
L 196.71987 270.766248 
L 196.778817 269.589022 
L 197.055029 269.589022 
L 197.055029 269.000409 
L 197.368293 269.000409 
L 197.393556 267.823182 
L 197.733768 267.823182 
L 197.733768 267.234569 
L 197.947663 267.234569 
L 197.947663 266.645956 
L 198.067243 266.645956 
L 198.067243 266.057343 
L 198.402402 266.057343 
L 198.402402 265.46873 
L 198.530402 265.46873 
L 198.530402 264.880117 
L 198.737561 264.880117 
L 198.737561 264.291504 
L 199.076088 264.291504 
L 199.076088 263.702891 
L 199.411247 263.702891 
L 199.411247 263.114277 
L 199.697564 263.114277 
L 199.754827 261.937051 
L 200.083249 261.937051 
L 200.083249 261.348438 
L 200.293776 261.348438 
L 200.293776 260.759825 
L 200.411671 260.759825 
L 200.411671 260.171212 
L 200.745146 260.171212 
L 200.745146 259.582599 
L 200.895041 259.582599 
L 200.895041 258.993985 
L 201.076937 258.993985 
L 201.076937 258.405372 
L 201.41378 258.405372 
L 201.496307 257.228146 
L 201.753992 257.228146 
L 201.753992 256.639533 
L 202.079045 256.639533 
L 202.094203 255.462307 
L 202.436099 255.462307 
L 202.436099 254.873693 
L 202.666837 254.873693 
L 202.776311 253.696467 
L 203.114838 253.696467 
L 203.114838 253.107854 
L 203.273155 253.107854 
L 203.273155 252.519241 
L 203.45505 252.519241 
L 203.45505 251.930628 
L 203.796946 251.930628 
L 203.857578 250.753401 
L 204.132105 250.753401 
L 204.132105 250.164788 
L 204.433579 250.164788 
L 204.468948 248.987562 
L 204.80916 248.987562 
L 204.80916 248.398949 
L 205.041581 248.398949 
L 205.041581 247.810336 
L 205.154424 247.810336 
L 205.154424 247.221723 
L 205.487899 247.221723 
L 205.487899 246.633109 
L 205.63611 246.633109 
L 205.63611 246.044496 
L 205.823058 246.044496 
L 205.823058 245.455883 
L 206.156533 245.455883 
L 206.208743 244.278657 
L 206.493376 244.278657 
L 206.493376 243.690044 
L 206.818429 243.690044 
L 206.818429 243.101431 
L 207.030641 243.101431 
L 207.030641 242.512818 
L 207.163694 242.512818 
L 207.163694 241.924204 
L 207.50559 241.924204 
L 207.615064 240.746978 
L 207.844117 240.746978 
L 207.844117 240.158365 
L 208.187697 240.158365 
L 208.207908 238.981139 
L 208.526225 238.981139 
L 208.526225 238.392526 
L 208.787278 238.392526 
L 208.871489 237.215299 
L 209.210016 237.215299 
L 209.210016 236.626686 
L 209.371701 236.626686 
L 209.371701 236.038073 
L 209.545175 236.038073 
L 209.545175 235.44946 
L 209.882019 235.44946 
L 209.95444 234.272234 
L 210.220546 234.272234 
L 210.220546 233.68362 
L 210.548968 233.68362 
L 210.550652 232.506394 
L 210.884127 232.506394 
L 210.884127 231.917781 
L 211.136759 231.917781 
L 211.215918 230.740555 
L 211.551077 230.740555 
L 211.551077 230.151942 
L 211.717814 230.151942 
L 211.717814 229.563328 
L 211.88792 229.563328 
L 211.88792 228.974715 
L 212.226447 228.974715 
L 212.30729 227.797489 
L 212.563291 227.797489 
L 212.563291 227.208876 
L 212.895081 227.208876 
L 212.903502 226.03165 
L 213.238661 226.03165 
L 213.238661 225.443036 
L 213.496346 225.443036 
L 213.575504 224.26581 
L 214.094243 224.26581 
L 214.094243 223.677197 
L 214.68035 223.677197 
L 214.68035 223.088584 
L 215.274878 223.088584 
L 215.274878 222.499971 
L 215.867722 222.499971 
L 215.867722 221.911358 
L 216.450461 221.911358 
L 216.450461 221.322745 
L 217.038253 221.322745 
L 217.038253 220.734131 
L 217.636149 220.734131 
L 217.636149 220.145518 
L 218.225625 220.145518 
L 218.306467 218.968292 
L 218.641626 218.968292 
L 218.641626 218.379679 
L 218.818469 218.379679 
L 218.818469 217.791066 
L 218.97847 217.791066 
L 218.97847 217.202453 
L 219.313629 217.202453 
L 219.407945 216.025226 
L 219.645419 216.025226 
L 219.645419 215.436613 
L 219.855946 215.436613 
L 219.855946 214.848 
L 220.010894 214.848 
L 220.010894 214.259387 
L 220.458896 214.259387 
L 220.458896 213.670774 
L 220.598685 213.670774 
L 220.598685 213.082161 
L 221.03995 213.082161 
L 221.03995 212.493547 
L 221.188161 212.493547 
L 221.188161 211.904934 
L 221.622689 211.904934 
L 221.622689 211.316321 
L 221.764163 211.316321 
L 221.764163 210.727708 
L 222.212164 210.727708 
L 222.212164 210.139095 
L 222.345218 210.139095 
L 222.345218 209.550482 
L 222.803324 209.550482 
L 222.803324 208.961869 
L 222.939746 208.961869 
L 222.939746 208.373255 
L 223.387747 208.373255 
L 223.387747 207.784642 
L 223.978907 207.784642 
L 223.978907 207.196029 
L 224.128802 207.196029 
L 224.128802 206.607416 
L 224.568383 206.607416 
L 224.568383 206.018803 
L 224.719962 206.018803 
L 224.719962 205.43019 
L 225.164595 205.43019 
L 225.164595 204.841577 
L 225.304385 204.841577 
L 225.304385 204.252964 
L 225.749018 204.252964 
L 225.749018 203.66435 
L 225.903966 203.66435 
L 225.903966 203.075737 
L 226.503547 203.075737 
L 226.503547 202.487124 
L 227.104812 202.487124 
L 227.104812 201.898511 
L 227.707762 201.898511 
L 227.721235 200.721285 
L 228.059763 200.721285 
L 228.059763 200.132672 
L 228.283763 200.132672 
L 228.388185 198.955445 
L 228.725028 198.955445 
L 228.725028 198.366832 
L 229.063556 198.366832 
L 229.063556 197.778219 
L 229.400399 197.778219 
L 229.459346 196.600993 
L 229.738926 196.600993 
L 229.738926 196.01238 
L 230.047138 196.01238 
L 230.074085 194.835153 
L 230.404192 194.835153 
L 230.404192 194.24654 
L 230.631561 194.24654 
L 230.741035 193.069314 
L 231.210931 193.069314 
L 231.210931 192.480701 
L 231.407984 192.480701 
L 231.407984 191.892088 
L 231.739775 191.892088 
L 231.808828 190.714861 
L 232.07325 190.714861 
L 232.07325 190.126248 
L 232.401672 190.126248 
L 232.408409 188.949022 
L 232.740199 188.949022 
L 232.740199 188.360409 
L 232.986095 188.360409 
L 233.073674 187.183182 
L 233.412201 187.183182 
L 233.412201 186.594569 
L 233.580623 186.594569 
L 233.580623 186.005956 
L 233.749045 186.005956 
L 233.749045 185.417343 
L 234.094309 185.417343 
L 234.168414 184.240117 
L 234.424415 184.240117 
L 234.424415 183.651504 
L 234.762943 183.651504 
L 234.764627 182.474277 
L 235.10147 182.474277 
L 235.10147 181.885664 
L 235.347366 181.885664 
L 235.347366 181.297051 
L 235.941894 181.297051 
L 235.941894 180.708438 
L 236.447159 180.708438 
L 236.447159 180.119825 
L 236.780634 180.119825 
L 236.780634 179.531212 
L 237.115793 179.531212 
L 237.115793 178.942599 
L 237.444215 178.942599 
L 237.444215 178.353985 
L 237.776005 178.353985 
L 237.776005 177.765372 
L 238.114533 177.765372 
L 238.114533 177.176759 
L 238.454744 177.176759 
L 238.454744 176.588146 
L 238.794956 176.588146 
L 238.794956 175.999533 
L 239.133484 175.999533 
L 239.133484 175.41092 
L 239.465274 175.41092 
L 239.465274 174.822307 
L 239.810538 174.822307 
L 239.810538 174.233693 
L 240.147382 174.233693 
L 240.147382 173.64508 
L 240.487593 173.64508 
L 240.487593 173.056467 
L 240.662752 173.056467 
L 240.662752 172.467854 
L 240.826121 172.467854 
L 240.826121 171.879241 
L 240.992858 171.879241 
L 240.992858 171.290628 
L 241.169701 171.290628 
L 241.169701 170.702015 
L 241.336438 170.702015 
L 241.336438 170.113401 
L 249.467833 170.113401 
L 249.467833 169.524788 
L 250.057309 169.524788 
L 250.057309 168.936175 
L 250.643416 168.936175 
L 250.643416 168.347562 
L 251.237945 168.347562 
L 251.237945 167.758949 
L 251.818999 167.758949 
L 251.818999 167.170336 
L 252.408475 167.170336 
L 252.408475 166.581723 
L 252.984477 166.581723 
L 252.984477 165.993109 
L 260.913766 165.993109 
L 260.913766 165.404496 
L 261.248925 165.404496 
L 261.248925 164.815883 
L 261.590821 164.815883 
L 261.590821 164.22727 
L 261.927664 164.22727 
L 261.927664 163.638657 
L 262.262823 163.638657 
L 262.262823 163.050044 
L 262.597982 163.050044 
L 262.597982 162.461431 
L 262.939878 162.461431 
L 262.939878 161.872818 
L 263.278405 161.872818 
L 263.278405 161.284204 
L 263.621985 161.284204 
L 263.621985 160.695591 
L 263.957144 160.695591 
L 263.957144 160.106978 
L 264.285567 160.106978 
L 264.285567 159.518365 
L 264.625778 159.518365 
L 264.625778 158.929752 
L 264.964306 158.929752 
L 264.964306 158.341139 
L 265.302833 158.341139 
L 265.302833 157.752526 
L 265.637992 157.752526 
L 265.637992 157.163912 
L 265.976519 157.163912 
L 265.976519 156.575299 
L 266.30831 156.575299 
L 266.30831 155.986686 
L 266.557574 155.986686 
L 266.643469 154.80946 
L 266.976944 154.80946 
L 266.976944 154.220847 
L 267.153787 154.220847 
L 267.153787 153.632234 
L 267.310419 153.632234 
L 267.310419 153.04362 
L 267.652314 153.04362 
L 267.744946 151.866394 
L 267.992526 151.866394 
L 267.992526 151.277781 
L 268.334422 151.277781 
L 268.334422 150.689168 
L 268.92895 150.689168 
L 268.92895 150.100555 
L 269.526847 150.100555 
L 269.526847 149.511942 
L 270.11127 149.511942 
L 270.11127 148.923328 
L 270.697377 148.923328 
L 270.697377 148.334715 
L 271.285169 148.334715 
L 271.285169 147.746102 
L 271.883065 147.746102 
L 271.883065 147.157489 
L 272.470857 147.157489 
L 272.470857 146.568876 
L 273.056964 146.568876 
L 273.056964 145.980263 
L 273.64644 145.980263 
L 273.64644 145.39165 
L 277.105819 145.39165 
L 277.105819 144.803036 
L 277.26582 144.803036 
L 277.26582 144.214423 
L 277.439294 144.214423 
L 277.439294 143.62581 
L 277.681821 143.62581 
L 277.767716 142.448584 
L 278.106244 142.448584 
L 278.107928 141.271358 
L 278.443087 141.271358 
L 278.53235 140.094131 
L 278.778246 140.094131 
L 278.778246 139.505518 
L 278.946668 139.505518 
L 278.946668 138.916905 
L 279.111721 138.916905 
L 279.111721 138.328292 
L 279.369406 138.328292 
L 279.453617 137.151066 
L 279.788776 137.151066 
L 279.79046 135.973839 
L 280.125619 135.973839 
L 280.20983 134.796613 
L 280.459094 134.796613 
L 280.459094 134.208 
L 280.635936 134.208 
L 280.635936 133.619387 
L 280.799305 133.619387 
L 280.799305 133.030774 
L 281.048569 133.030774 
L 281.129412 131.853547 
L 281.466255 131.853547 
L 281.474676 130.676321 
L 281.806466 130.676321 
L 281.890677 129.499095 
L 282.139941 129.499095 
L 282.139941 128.910482 
L 282.476784 128.910482 
L 282.476784 128.321869 
L 282.822049 128.321869 
L 282.822049 127.733255 
L 283.82921 127.733255 
L 283.82921 127.144642 
L 284.164369 127.144642 
L 284.164369 126.556029 
L 284.497844 126.556029 
L 284.497844 125.967416 
L 284.82795 125.967416 
L 284.82795 125.378803 
L 289.161438 125.378803 
L 289.161438 124.79019 
L 289.491544 124.79019 
L 289.491544 124.201577 
L 289.830072 124.201577 
L 289.830072 123.612964 
L 290.158494 123.612964 
L 290.158494 123.02435 
L 290.50039 123.02435 
L 290.50039 122.435737 
L 290.835549 122.435737 
L 290.835549 121.847124 
L 291.172392 121.847124 
L 291.172392 121.258511 
L 291.509235 121.258511 
L 291.509235 120.669898 
L 291.844394 120.669898 
L 291.844394 120.081285 
L 292.179553 120.081285 
L 292.179553 119.492672 
L 292.519765 119.492672 
L 292.519765 118.904058 
L 292.848187 118.904058 
L 292.848187 118.315445 
L 293.183346 118.315445 
L 293.183346 117.726832 
L 293.870506 117.726832 
L 293.870506 117.138219 
L 294.203981 117.138219 
L 294.203981 116.549606 
L 294.544193 116.549606 
L 294.544193 115.960993 
L 294.875983 115.960993 
L 294.875983 115.37238 
L 295.207774 115.37238 
L 295.207774 114.783766 
L 295.541249 114.783766 
L 295.541249 114.195153 
L 295.884829 114.195153 
L 295.884829 113.60654 
L 296.22504 113.60654 
L 296.22504 113.017927 
L 296.561884 113.017927 
L 296.561884 112.429314 
L 296.898727 112.429314 
L 296.898727 111.840701 
L 297.237254 111.840701 
L 297.237254 111.252088 
L 297.574097 111.252088 
L 297.574097 110.663474 
L 297.905888 110.663474 
L 297.905888 110.074861 
L 298.242731 110.074861 
L 298.242731 109.486248 
L 298.584627 109.486248 
L 298.584627 108.897635 
L 298.918102 108.897635 
L 298.918102 108.309022 
L 299.261682 108.309022 
L 299.261682 107.720409 
L 299.593473 107.720409 
L 299.593473 107.131796 
L 299.938737 107.131796 
L 299.938737 106.543182 
L 300.272212 106.543182 
L 300.272212 105.954569 
L 300.610739 105.954569 
L 300.610739 105.365956 
L 300.945898 105.365956 
L 300.945898 104.777343 
L 301.284426 104.777343 
L 301.284426 104.18873 
L 301.612848 104.18873 
L 301.612848 103.600117 
L 301.946322 103.600117 
L 301.946322 103.011504 
L 302.28485 103.011504 
L 302.28485 102.422891 
L 302.613272 102.422891 
L 302.613272 101.834277 
L 302.958536 101.834277 
L 302.958536 101.245664 
L 303.293695 101.245664 
L 303.293695 100.657051 
L 303.637275 100.657051 
L 303.637275 100.068438 
L 303.979171 100.068438 
L 303.979171 99.479825 
L 304.316014 99.479825 
L 304.316014 98.891212 
L 304.652858 98.891212 
L 304.652858 98.302599 
L 304.996438 98.302599 
L 304.996438 97.713985 
L 305.333281 97.713985 
L 305.333281 97.125372 
L 305.666756 97.125372 
L 305.666756 96.536759 
L 305.998546 96.536759 
L 305.998546 95.948146 
L 306.33539 95.948146 
L 306.33539 95.359533 
L 306.663812 95.359533 
L 306.663812 94.77092 
L 307.332445 94.77092 
L 307.332445 94.182307 
L 307.664236 94.182307 
L 307.664236 93.593693 
L 307.997711 93.593693 
L 307.997711 93.00508 
L 308.336238 93.00508 
L 308.336238 92.416467 
L 308.668029 92.416467 
L 308.668029 91.827854 
L 309.006556 91.827854 
L 309.006556 91.239241 
L 309.343399 91.239241 
L 309.343399 90.650628 
L 309.678558 90.650628 
L 309.678558 90.062015 
L 310.013717 90.062015 
L 310.013717 89.473401 
L 310.355613 89.473401 
L 310.355613 88.884788 
L 310.697509 88.884788 
L 310.697509 88.296175 
L 311.039405 88.296175 
L 311.039405 87.707562 
L 311.371196 87.707562 
L 311.371196 87.118949 
L 311.70467 87.118949 
L 311.70467 86.530336 
L 312.043198 86.530336 
L 312.043198 85.941723 
L 312.378357 85.941723 
L 312.378357 85.353109 
L 312.718569 85.353109 
L 312.718569 84.764496 
L 313.063833 84.764496 
L 313.063833 84.175883 
L 313.409097 84.175883 
L 313.409097 83.58727 
L 313.750993 83.58727 
L 313.750993 82.998657 
L 314.094573 82.998657 
L 314.094573 82.410044 
L 314.429732 82.410044 
L 314.429732 81.821431 
L 314.774996 81.821431 
L 314.774996 81.232818 
L 315.106787 81.232818 
L 315.106787 80.644204 
L 315.438578 80.644204 
L 315.438578 80.055591 
L 315.773737 80.055591 
L 315.773737 79.466978 
L 316.108896 79.466978 
L 316.108896 78.878365 
L 316.455844 78.878365 
L 316.455844 78.289752 
L 316.787635 78.289752 
L 316.787635 77.701139 
L 317.12953 77.701139 
L 317.12953 77.112526 
L 317.463005 77.112526 
L 317.463005 76.523912 
L 317.798164 76.523912 
L 317.798164 75.935299 
L 318.129955 75.935299 
L 318.129955 75.346686 
L 318.465114 75.346686 
L 318.465114 74.758073 
L 318.803641 74.758073 
L 318.803641 74.16946 
L 319.133748 74.16946 
L 319.133748 73.580847 
L 319.463854 73.580847 
L 319.463854 72.992234 
L 319.802381 72.992234 
L 319.802381 72.40362 
L 320.135856 72.40362 
L 320.135856 71.815007 
L 320.472699 71.815007 
L 320.472699 71.226394 
L 320.812911 71.226394 
L 320.812911 70.637781 
L 321.14807 70.637781 
L 321.14807 70.049168 
L 321.479861 70.049168 
L 321.479861 69.460555 
L 321.816704 69.460555 
L 321.816704 68.871942 
L 322.151863 68.871942 
L 322.151863 68.283328 
L 334.527483 68.283328 
L 334.527483 67.694715 
L 334.948537 67.694715 
L 334.948537 67.106102 
L 344.642884 67.106102 
L 344.642884 66.517489 
L 345.062254 66.517489 
L 345.062254 65.928876 
L 345.490045 65.928876 
L 345.490045 65.340263 
L 345.917836 65.340263 
L 345.917836 64.75165 
L 346.332153 64.75165 
L 346.332153 64.163036 
L 346.744786 64.163036 
L 346.744786 63.574423 
L 347.170893 63.574423 
L 347.170893 62.98581 
L 347.586894 62.98581 
L 347.586894 62.397197 
L 348.013001 62.397197 
L 348.013001 61.808584 
L 348.425634 61.808584 
L 348.425634 61.219971 
L 348.846688 61.219971 
L 348.846688 60.631358 
L 349.276163 60.631358 
L 349.276163 60.042745 
L 349.693848 60.042745 
L 349.693848 59.454131 
L 350.113218 59.454131 
L 350.113218 58.865518 
L 350.539325 58.865518 
L 350.539325 58.276905 
L 350.967116 58.276905 
L 350.967116 57.688292 
L 395.95758 57.688292 
L 395.95758 57.099679 
L 396.387055 57.099679 
L 396.387055 56.511066 
L 396.809794 56.511066 
L 396.809794 55.922453 
L 397.240953 55.922453 
L 397.240953 55.333839 
L 397.656954 55.333839 
L 397.656954 54.745226 
L 398.071271 54.745226 
L 398.071271 54.156613 
L 398.487273 54.156613 
L 398.487273 53.568 
L 398.487273 53.568 
" clip-path="url(#pbd8f8fb217)" style="fill: none; stroke: #ff7f0e; stroke-width: 1.5; stroke-linecap: square"/>
   </g>
   <g id="patch_3">
    <path d="M 57.6 307.584 
L 57.6 41.472 
" style="fill: none; stroke: #000000; stroke-width: 0.8; stroke-linejoin: miter; stroke-linecap: square"/>
   </g>
   <g id="patch_4">
    <path d="M 414.72 307.584 
L 414.72 41.472 
" style="fill: none; stroke: #000000; stroke-width: 0.8; stroke-linejoin: miter; stroke-linecap: square"/>
   </g>
   <g id="patch_5">
    <path d="M 57.6 307.584 
L 414.72 307.584 
" style="fill: none; stroke: #000000; stroke-width: 0.8; stroke-linejoin: miter; stroke-linecap: square"/>
   </g>
   <g id="patch_6">
    <path d="M 57.6 41.472 
L 414.72 41.472 
" style="fill: none; stroke: #000000; stroke-width: 0.8; stroke-linejoin: miter; stroke-linecap: square"/>
   </g>
   <g id="text_17">
    <!-- S1 S15 -->
    <g transform="translate(215.1825 35.472) scale(0.12 -0.12)">
     <defs>
      <path id="DejaVuSans-53" d="M 3425 4513 
L 3425 3897 
Q 3066 4069 2747 4153 
Q 2428 4238 2131 4238 
Q 1616 4238 1336 4038 
Q 1056 3838 1056 3469 
Q 1056 3159 1242 3001 
Q 1428 2844 1947 2747 
L 2328 2669 
Q 3034 2534 3370 2195 
Q 3706 1856 3706 1288 
Q 3706 609 3251 259 
Q 2797 -91 1919 -91 
Q 1588 -91 1214 -16 
Q 841 59 441 206 
L 441 856 
Q 825 641 1194 531 
Q 1563 422 1919 422 
Q 2459 422 2753 634 
Q 3047 847 3047 1241 
Q 3047 1584 2836 1778 
Q 2625 1972 2144 2069 
L 1759 2144 
Q 1053 2284 737 2584 
Q 422 2884 422 3419 
Q 422 4038 858 4394 
Q 1294 4750 2059 4750 
Q 2388 4750 2728 4690 
Q 3069 4631 3425 4513 
z
" transform="scale(0.015625)"/>
      <path id="DejaVuSans-20" transform="scale(0.015625)"/>
     </defs>
     <use xlink:href="#DejaVuSans-53"/>
     <use xlink:href="#DejaVuSans-31" x="63.476562"/>
     <use xlink:href="#DejaVuSans-20" x="127.099609"/>
     <use xlink:href="#DejaVuSans-53" x="158.886719"/>
     <use xlink:href="#DejaVuSans-31" x="222.363281"/>
     <use xlink:href="#DejaVuSans-35" x="285.986328"/>
    </g>
   </g>
   <g id="legend_1">
    <g id="patch_7">
     <path d="M 110.819063 304.584 
L 410.52 304.584 
Q 411.72 304.584 411.72 303.384 
L 411.72 286.37025 
Q 411.72 285.17025 410.52 285.17025 
L 110.819063 285.17025 
Q 109.619063 285.17025 109.619063 286.37025 
L 109.619063 303.384 
Q 109.619063 304.584 110.819063 304.584 
z
" style="fill: #ffffff; opacity: 0.8; stroke: #cccccc; stroke-linejoin: miter"/>
    </g>
    <g id="line2d_18">
     <path d="M 112.019063 290.029312 
L 118.019063 290.029312 
L 124.019063 290.029312 
" style="fill: none; stroke: #1f77b4; stroke-width: 1.5; stroke-linecap: square"/>
    </g>
    <g id="text_18">
     <!-- Execution time between S1 S15 (xx1xx1xx1xx0yyy8xx0yyy66xx0yyy8xx0yyy5xx1xx1) -->
     <g transform="translate(128.819063 292.129312) scale(0.06 -0.06)">
      <defs>
       <path id="DejaVuSans-45" d="M 628 4666 
L 3578 4666 
L 3578 4134 
L 1259 4134 
L 1259 2753 
L 3481 2753 
L 3481 2222 
L 1259 2222 
L 1259 531 
L 3634 531 
L 3634 0 
L 628 0 
L 628 4666 
z
" transform="scale(0.015625)"/>
       <path id="DejaVuSans-78" d="M 3513 3500 
L 2247 1797 
L 3578 0 
L 2900 0 
L 1881 1375 
L 863 0 
L 184 0 
L 1544 1831 
L 300 3500 
L 978 3500 
L 1906 2253 
L 2834 3500 
L 3513 3500 
z
" transform="scale(0.015625)"/>
       <path id="DejaVuSans-63" d="M 3122 3366 
L 3122 2828 
Q 2878 2963 2633 3030 
Q 2388 3097 2138 3097 
Q 1578 3097 1268 2742 
Q 959 2388 959 1747 
Q 959 1106 1268 751 
Q 1578 397 2138 397 
Q 2388 397 2633 464 
Q 2878 531 3122 666 
L 3122 134 
Q 2881 22 2623 -34 
Q 2366 -91 2075 -91 
Q 1284 -91 818 406 
Q 353 903 353 1747 
Q 353 2603 823 3093 
Q 1294 3584 2113 3584 
Q 2378 3584 2631 3529 
Q 2884 3475 3122 3366 
z
" transform="scale(0.015625)"/>
       <path id="DejaVuSans-75" d="M 544 1381 
L 544 3500 
L 1119 3500 
L 1119 1403 
Q 1119 906 1312 657 
Q 1506 409 1894 409 
Q 2359 409 2629 706 
Q 2900 1003 2900 1516 
L 2900 3500 
L 3475 3500 
L 3475 0 
L 2900 0 
L 2900 538 
Q 2691 219 2414 64 
Q 2138 -91 1772 -91 
Q 1169 -91 856 284 
Q 544 659 544 1381 
z
M 1991 3584 
L 1991 3584 
z
" transform="scale(0.015625)"/>
       <path id="DejaVuSans-74" d="M 1172 4494 
L 1172 3500 
L 2356 3500 
L 2356 3053 
L 1172 3053 
L 1172 1153 
Q 1172 725 1289 603 
Q 1406 481 1766 481 
L 2356 481 
L 2356 0 
L 1766 0 
Q 1100 0 847 248 
Q 594 497 594 1153 
L 594 3053 
L 172 3053 
L 172 3500 
L 594 3500 
L 594 4494 
L 1172 4494 
z
" transform="scale(0.015625)"/>
       <path id="DejaVuSans-69" d="M 603 3500 
L 1178 3500 
L 1178 0 
L 603 0 
L 603 3500 
z
M 603 4863 
L 1178 4863 
L 1178 4134 
L 603 4134 
L 603 4863 
z
" transform="scale(0.015625)"/>
       <path id="DejaVuSans-6f" d="M 1959 3097 
Q 1497 3097 1228 2736 
Q 959 2375 959 1747 
Q 959 1119 1226 758 
Q 1494 397 1959 397 
Q 2419 397 2687 759 
Q 2956 1122 2956 1747 
Q 2956 2369 2687 2733 
Q 2419 3097 1959 3097 
z
M 1959 3584 
Q 2709 3584 3137 3096 
Q 3566 2609 3566 1747 
Q 3566 888 3137 398 
Q 2709 -91 1959 -91 
Q 1206 -91 779 398 
Q 353 888 353 1747 
Q 353 2609 779 3096 
Q 1206 3584 1959 3584 
z
" transform="scale(0.015625)"/>
       <path id="DejaVuSans-6e" d="M 3513 2113 
L 3513 0 
L 2938 0 
L 2938 2094 
Q 2938 2591 2744 2837 
Q 2550 3084 2163 3084 
Q 1697 3084 1428 2787 
Q 1159 2491 1159 1978 
L 1159 0 
L 581 0 
L 581 3500 
L 1159 3500 
L 1159 2956 
Q 1366 3272 1645 3428 
Q 1925 3584 2291 3584 
Q 2894 3584 3203 3211 
Q 3513 2838 3513 2113 
z
" transform="scale(0.015625)"/>
       <path id="DejaVuSans-6d" d="M 3328 2828 
Q 3544 3216 3844 3400 
Q 4144 3584 4550 3584 
Q 5097 3584 5394 3201 
Q 5691 2819 5691 2113 
L 5691 0 
L 5113 0 
L 5113 2094 
Q 5113 2597 4934 2840 
Q 4756 3084 4391 3084 
Q 3944 3084 3684 2787 
Q 3425 2491 3425 1978 
L 3425 0 
L 2847 0 
L 2847 2094 
Q 2847 2600 2669 2842 
Q 2491 3084 2119 3084 
Q 1678 3084 1418 2786 
Q 1159 2488 1159 1978 
L 1159 0 
L 581 0 
L 581 3500 
L 1159 3500 
L 1159 2956 
Q 1356 3278 1631 3431 
Q 1906 3584 2284 3584 
Q 2666 3584 2933 3390 
Q 3200 3197 3328 2828 
z
" transform="scale(0.015625)"/>
       <path id="DejaVuSans-62" d="M 3116 1747 
Q 3116 2381 2855 2742 
Q 2594 3103 2138 3103 
Q 1681 3103 1420 2742 
Q 1159 2381 1159 1747 
Q 1159 1113 1420 752 
Q 1681 391 2138 391 
Q 2594 391 2855 752 
Q 3116 1113 3116 1747 
z
M 1159 2969 
Q 1341 3281 1617 3432 
Q 1894 3584 2278 3584 
Q 2916 3584 3314 3078 
Q 3713 2572 3713 1747 
Q 3713 922 3314 415 
Q 2916 -91 2278 -91 
Q 1894 -91 1617 61 
Q 1341 213 1159 525 
L 1159 0 
L 581 0 
L 581 4863 
L 1159 4863 
L 1159 2969 
z
" transform="scale(0.015625)"/>
       <path id="DejaVuSans-77" d="M 269 3500 
L 844 3500 
L 1563 769 
L 2278 3500 
L 2956 3500 
L 3675 769 
L 4391 3500 
L 4966 3500 
L 4050 0 
L 3372 0 
L 2619 2869 
L 1863 0 
L 1184 0 
L 269 3500 
z
" transform="scale(0.015625)"/>
       <path id="DejaVuSans-28" d="M 1984 4856 
Q 1566 4138 1362 3434 
Q 1159 2731 1159 2009 
Q 1159 1288 1364 580 
Q 1569 -128 1984 -844 
L 1484 -844 
Q 1016 -109 783 600 
Q 550 1309 550 2009 
Q 550 2706 781 3412 
Q 1013 4119 1484 4856 
L 1984 4856 
z
" transform="scale(0.015625)"/>
       <path id="DejaVuSans-79" d="M 2059 -325 
Q 1816 -950 1584 -1140 
Q 1353 -1331 966 -1331 
L 506 -1331 
L 506 -850 
L 844 -850 
Q 1081 -850 1212 -737 
Q 1344 -625 1503 -206 
L 1606 56 
L 191 3500 
L 800 3500 
L 1894 763 
L 2988 3500 
L 3597 3500 
L 2059 -325 
z
" transform="scale(0.015625)"/>
       <path id="DejaVuSans-29" d="M 513 4856 
L 1013 4856 
Q 1481 4119 1714 3412 
Q 1947 2706 1947 2009 
Q 1947 1309 1714 600 
Q 1481 -109 1013 -844 
L 513 -844 
Q 928 -128 1133 580 
Q 1338 1288 1338 2009 
Q 1338 2731 1133 3434 
Q 928 4138 513 4856 
z
" transform="scale(0.015625)"/>
      </defs>
      <use xlink:href="#DejaVuSans-45"/>
      <use xlink:href="#DejaVuSans-78" x="63.183594"/>
      <use xlink:href="#DejaVuSans-65" x="119.238281"/>
      <use xlink:href="#DejaVuSans-63" x="180.761719"/>
      <use xlink:href="#DejaVuSans-75" x="235.742188"/>
      <use xlink:href="#DejaVuSans-74" x="299.121094"/>
      <use xlink:href="#DejaVuSans-69" x="338.330078"/>
      <use xlink:href="#DejaVuSans-6f" x="366.113281"/>
      <use xlink:href="#DejaVuSans-6e" x="427.294922"/>
      <use xlink:href="#DejaVuSans-20" x="490.673828"/>
      <use xlink:href="#DejaVuSans-74" x="522.460938"/>
      <use xlink:href="#DejaVuSans-69" x="561.669922"/>
      <use xlink:href="#DejaVuSans-6d" x="589.453125"/>
      <use xlink:href="#DejaVuSans-65" x="686.865234"/>
      <use xlink:href="#DejaVuSans-20" x="748.388672"/>
      <use xlink:href="#DejaVuSans-62" x="780.175781"/>
      <use xlink:href="#DejaVuSans-65" x="843.652344"/>
      <use xlink:href="#DejaVuSans-74" x="905.175781"/>
      <use xlink:href="#DejaVuSans-77" x="944.384766"/>
      <use xlink:href="#DejaVuSans-65" x="1026.171875"/>
      <use xlink:href="#DejaVuSans-65" x="1087.695312"/>
      <use xlink:href="#DejaVuSans-6e" x="1149.21875"/>
      <use xlink:href="#DejaVuSans-20" x="1212.597656"/>
      <use xlink:href="#DejaVuSans-53" x="1244.384766"/>
      <use xlink:href="#DejaVuSans-31" x="1307.861328"/>
      <use xlink:href="#DejaVuSans-20" x="1371.484375"/>
      <use xlink:href="#DejaVuSans-53" x="1403.271484"/>
      <use xlink:href="#DejaVuSans-31" x="1466.748047"/>
      <use xlink:href="#DejaVuSans-35" x="1530.371094"/>
      <use xlink:href="#DejaVuSans-20" x="1593.994141"/>
      <use xlink:href="#DejaVuSans-28" x="1625.78125"/>
      <use xlink:href="#DejaVuSans-78" x="1664.794922"/>
      <use xlink:href="#DejaVuSans-78" x="1723.974609"/>
      <use xlink:href="#DejaVuSans-31" x="1783.154297"/>
      <use xlink:href="#DejaVuSans-78" x="1846.777344"/>
      <use xlink:href="#DejaVuSans-78" x="1905.957031"/>
      <use xlink:href="#DejaVuSans-31" x="1965.136719"/>
      <use xlink:href="#DejaVuSans-78" x="2028.759766"/>
      <use xlink:href="#DejaVuSans-78" x="2087.939453"/>
      <use xlink:href="#DejaVuSans-31" x="2147.119141"/>
      <use xlink:href="#DejaVuSans-78" x="2210.742188"/>
      <use xlink:href="#DejaVuSans-78" x="2269.921875"/>
      <use xlink:href="#DejaVuSans-30" x="2329.101562"/>
      <use xlink:href="#DejaVuSans-79" x="2392.724609"/>
      <use xlink:href="#DejaVuSans-79" x="2451.904297"/>
      <use xlink:href="#DejaVuSans-79" x="2511.083984"/>
      <use xlink:href="#DejaVuSans-38" x="2570.263672"/>
      <use xlink:href="#DejaVuSans-78" x="2633.886719"/>
      <use xlink:href="#DejaVuSans-78" x="2693.066406"/>
      <use xlink:href="#DejaVuSans-30" x="2752.246094"/>
      <use xlink:href="#DejaVuSans-79" x="2815.869141"/>
      <use xlink:href="#DejaVuSans-79" x="2875.048828"/>
      <use xlink:href="#DejaVuSans-79" x="2934.228516"/>
      <use xlink:href="#DejaVuSans-36" x="2993.408203"/>
      <use xlink:href="#DejaVuSans-36" x="3057.03125"/>
      <use xlink:href="#DejaVuSans-78" x="3120.654297"/>
      <use xlink:href="#DejaVuSans-78" x="3179.833984"/>
      <use xlink:href="#DejaVuSans-30" x="3239.013672"/>
      <use xlink:href="#DejaVuSans-79" x="3302.636719"/>
      <use xlink:href="#DejaVuSans-79" x="3361.816406"/>
      <use xlink:href="#DejaVuSans-79" x="3420.996094"/>
      <use xlink:href="#DejaVuSans-38" x="3480.175781"/>
      <use xlink:href="#DejaVuSans-78" x="3543.798828"/>
      <use xlink:href="#DejaVuSans-78" x="3602.978516"/>
      <use xlink:href="#DejaVuSans-30" x="3662.158203"/>
      <use xlink:href="#DejaVuSans-79" x="3725.78125"/>
      <use xlink:href="#DejaVuSans-79" x="3784.960938"/>
      <use xlink:href="#DejaVuSans-79" x="3844.140625"/>
      <use xlink:href="#DejaVuSans-35" x="3903.320312"/>
      <use xlink:href="#DejaVuSans-78" x="3966.943359"/>
      <use xlink:href="#DejaVuSans-78" x="4026.123047"/>
      <use xlink:href="#DejaVuSans-31" x="4085.302734"/>
      <use xlink:href="#DejaVuSans-78" x="4148.925781"/>
      <use xlink:href="#DejaVuSans-78" x="4208.105469"/>
      <use xlink:href="#DejaVuSans-31" x="4267.285156"/>
      <use xlink:href="#DejaVuSans-29" x="4330.908203"/>
     </g>
    </g>
    <g id="line2d_19">
     <path d="M 112.019063 298.836187 
L 118.019063 298.836187 
L 124.019063 298.836187 
" style="fill: none; stroke: #ff7f0e; stroke-width: 1.5; stroke-linecap: square"/>
    </g>
    <g id="text_19">
     <!-- Execution time between S1 S15 (xx1xx1xx2xx0yyy66xx0yyy66xx1yyy5xx0yyy3xx1xx1yyy5) -->
     <g transform="translate(128.819063 300.936187) scale(0.06 -0.06)">
      <defs>
       <path id="DejaVuSans-33" d="M 2597 2516 
Q 3050 2419 3304 2112 
Q 3559 1806 3559 1356 
Q 3559 666 3084 287 
Q 2609 -91 1734 -91 
Q 1441 -91 1130 -33 
Q 819 25 488 141 
L 488 750 
Q 750 597 1062 519 
Q 1375 441 1716 441 
Q 2309 441 2620 675 
Q 2931 909 2931 1356 
Q 2931 1769 2642 2001 
Q 2353 2234 1838 2234 
L 1294 2234 
L 1294 2753 
L 1863 2753 
Q 2328 2753 2575 2939 
Q 2822 3125 2822 3475 
Q 2822 3834 2567 4026 
Q 2313 4219 1838 4219 
Q 1578 4219 1281 4162 
Q 984 4106 628 3988 
L 628 4550 
Q 988 4650 1302 4700 
Q 1616 4750 1894 4750 
Q 2613 4750 3031 4423 
Q 3450 4097 3450 3541 
Q 3450 3153 3228 2886 
Q 3006 2619 2597 2516 
z
" transform="scale(0.015625)"/>
      </defs>
      <use xlink:href="#DejaVuSans-45"/>
      <use xlink:href="#DejaVuSans-78" x="63.183594"/>
      <use xlink:href="#DejaVuSans-65" x="119.238281"/>
      <use xlink:href="#DejaVuSans-63" x="180.761719"/>
      <use xlink:href="#DejaVuSans-75" x="235.742188"/>
      <use xlink:href="#DejaVuSans-74" x="299.121094"/>
      <use xlink:href="#DejaVuSans-69" x="338.330078"/>
      <use xlink:href="#DejaVuSans-6f" x="366.113281"/>
      <use xlink:href="#DejaVuSans-6e" x="427.294922"/>
      <use xlink:href="#DejaVuSans-20" x="490.673828"/>
      <use xlink:href="#DejaVuSans-74" x="522.460938"/>
      <use xlink:href="#DejaVuSans-69" x="561.669922"/>
      <use xlink:href="#DejaVuSans-6d" x="589.453125"/>
      <use xlink:href="#DejaVuSans-65" x="686.865234"/>
      <use xlink:href="#DejaVuSans-20" x="748.388672"/>
      <use xlink:href="#DejaVuSans-62" x="780.175781"/>
      <use xlink:href="#DejaVuSans-65" x="843.652344"/>
      <use xlink:href="#DejaVuSans-74" x="905.175781"/>
      <use xlink:href="#DejaVuSans-77" x="944.384766"/>
      <use xlink:href="#DejaVuSans-65" x="1026.171875"/>
      <use xlink:href="#DejaVuSans-65" x="1087.695312"/>
      <use xlink:href="#DejaVuSans-6e" x="1149.21875"/>
      <use xlink:href="#DejaVuSans-20" x="1212.597656"/>
      <use xlink:href="#DejaVuSans-53" x="1244.384766"/>
      <use xlink:href="#DejaVuSans-31" x="1307.861328"/>
      <use xlink:href="#DejaVuSans-20" x="1371.484375"/>
      <use xlink:href="#DejaVuSans-53" x="1403.271484"/>
      <use xlink:href="#DejaVuSans-31" x="1466.748047"/>
      <use xlink:href="#DejaVuSans-35" x="1530.371094"/>
      <use xlink:href="#DejaVuSans-20" x="1593.994141"/>
      <use xlink:href="#DejaVuSans-28" x="1625.78125"/>
      <use xlink:href="#DejaVuSans-78" x="1664.794922"/>
      <use xlink:href="#DejaVuSans-78" x="1723.974609"/>
      <use xlink:href="#DejaVuSans-31" x="1783.154297"/>
      <use xlink:href="#DejaVuSans-78" x="1846.777344"/>
      <use xlink:href="#DejaVuSans-78" x="1905.957031"/>
      <use xlink:href="#DejaVuSans-31" x="1965.136719"/>
      <use xlink:href="#DejaVuSans-78" x="2028.759766"/>
      <use xlink:href="#DejaVuSans-78" x="2087.939453"/>
      <use xlink:href="#DejaVuSans-32" x="2147.119141"/>
      <use xlink:href="#DejaVuSans-78" x="2210.742188"/>
      <use xlink:href="#DejaVuSans-78" x="2269.921875"/>
      <use xlink:href="#DejaVuSans-30" x="2329.101562"/>
      <use xlink:href="#DejaVuSans-79" x="2392.724609"/>
      <use xlink:href="#DejaVuSans-79" x="2451.904297"/>
      <use xlink:href="#DejaVuSans-79" x="2511.083984"/>
      <use xlink:href="#DejaVuSans-36" x="2570.263672"/>
      <use xlink:href="#DejaVuSans-36" x="2633.886719"/>
      <use xlink:href="#DejaVuSans-78" x="2697.509766"/>
      <use xlink:href="#DejaVuSans-78" x="2756.689453"/>
      <use xlink:href="#DejaVuSans-30" x="2815.869141"/>
      <use xlink:href="#DejaVuSans-79" x="2879.492188"/>
      <use xlink:href="#DejaVuSans-79" x="2938.671875"/>
      <use xlink:href="#DejaVuSans-79" x="2997.851562"/>
      <use xlink:href="#DejaVuSans-36" x="3057.03125"/>
      <use xlink:href="#DejaVuSans-36" x="3120.654297"/>
      <use xlink:href="#DejaVuSans-78" x="3184.277344"/>
      <use xlink:href="#DejaVuSans-78" x="3243.457031"/>
      <use xlink:href="#DejaVuSans-31" x="3302.636719"/>
      <use xlink:href="#DejaVuSans-79" x="3366.259766"/>
      <use xlink:href="#DejaVuSans-79" x="3425.439453"/>
      <use xlink:href="#DejaVuSans-79" x="3484.619141"/>
      <use xlink:href="#DejaVuSans-35" x="3543.798828"/>
      <use xlink:href="#DejaVuSans-78" x="3607.421875"/>
      <use xlink:href="#DejaVuSans-78" x="3666.601562"/>
      <use xlink:href="#DejaVuSans-30" x="3725.78125"/>
      <use xlink:href="#DejaVuSans-79" x="3789.404297"/>
      <use xlink:href="#DejaVuSans-79" x="3848.583984"/>
      <use xlink:href="#DejaVuSans-79" x="3907.763672"/>
      <use xlink:href="#DejaVuSans-33" x="3966.943359"/>
      <use xlink:href="#DejaVuSans-78" x="4030.566406"/>
      <use xlink:href="#DejaVuSans-78" x="4089.746094"/>
      <use xlink:href="#DejaVuSans-31" x="4148.925781"/>
      <use xlink:href="#DejaVuSans-78" x="4212.548828"/>
      <use xlink:href="#DejaVuSans-78" x="4271.728516"/>
      <use xlink:href="#DejaVuSans-31" x="4330.908203"/>
      <use xlink:href="#DejaVuSans-79" x="4394.53125"/>
      <use xlink:href="#DejaVuSans-79" x="4453.710938"/>
      <use xlink:href="#DejaVuSans-79" x="4512.890625"/>
      <use xlink:href="#DejaVuSans-35" x="4572.070312"/>
      <use xlink:href="#DejaVuSans-29" x="4635.693359"/>
     </g>
    </g>
   </g>
  </g>
 </g>
 <defs>
  <clipPath id="pbd8f8fb217">
   <rect x="57.6" y="41.472" width="357.12" height="266.112"/>
  </clipPath>
 </defs>
</svg>
