<?xml version="1.0" encoding="utf-8" standalone="no"?>
<!DOCTYPE svg PUBLIC "-//W3C//DTD SVG 1.1//EN"
  "http://www.w3.org/Graphics/SVG/1.1/DTD/svg11.dtd">
<svg xmlns:xlink="http://www.w3.org/1999/xlink" width="460.8pt" height="345.6pt" viewBox="0 0 460.8 345.6" xmlns="http://www.w3.org/2000/svg" version="1.1">
 <metadata>
  <rdf:RDF xmlns:dc="http://purl.org/dc/elements/1.1/" xmlns:cc="http://creativecommons.org/ns#" xmlns:rdf="http://www.w3.org/1999/02/22-rdf-syntax-ns#">
   <cc:Work>
    <dc:type rdf:resource="http://purl.org/dc/dcmitype/StillImage"/>
    <dc:date>2024-03-08T11:44:14.347785</dc:date>
    <dc:format>image/svg+xml</dc:format>
    <dc:creator>
     <cc:Agent>
      <dc:title>Matplotlib v3.8.2, https://matplotlib.org/</dc:title>
     </cc:Agent>
    </dc:creator>
   </cc:Work>
  </rdf:RDF>
 </metadata>
 <defs>
  <style type="text/css">*{stroke-linejoin: round; stroke-linecap: butt}</style>
 </defs>
 <g id="figure_1">
  <g id="patch_1">
   <path d="M 0 345.6 
L 460.8 345.6 
L 460.8 0 
L 0 0 
z
" style="fill: #ffffff"/>
  </g>
  <g id="axes_1">
   <g id="patch_2">
    <path d="M 57.6 307.584 
L 414.72 307.584 
L 414.72 41.472 
L 57.6 41.472 
z
" style="fill: #ffffff"/>
   </g>
   <g id="matplotlib.axis_1">
    <g id="xtick_1">
     <g id="line2d_1">
      <defs>
       <path id="m4168dda791" d="M 0 0 
L 0 3.5 
" style="stroke: #000000; stroke-width: 0.8"/>
      </defs>
      <g>
       <use xlink:href="#m4168dda791" x="73.832727" y="307.584" style="stroke: #000000; stroke-width: 0.8"/>
      </g>
     </g>
     <g id="text_1">
      <!-- 0.0 -->
      <g transform="translate(65.881165 322.182437) scale(0.1 -0.1)">
       <defs>
        <path id="DejaVuSans-30" d="M 2034 4250 
Q 1547 4250 1301 3770 
Q 1056 3291 1056 2328 
Q 1056 1369 1301 889 
Q 1547 409 2034 409 
Q 2525 409 2770 889 
Q 3016 1369 3016 2328 
Q 3016 3291 2770 3770 
Q 2525 4250 2034 4250 
z
M 2034 4750 
Q 2819 4750 3233 4129 
Q 3647 3509 3647 2328 
Q 3647 1150 3233 529 
Q 2819 -91 2034 -91 
Q 1250 -91 836 529 
Q 422 1150 422 2328 
Q 422 3509 836 4129 
Q 1250 4750 2034 4750 
z
" transform="scale(0.015625)"/>
        <path id="DejaVuSans-2e" d="M 684 794 
L 1344 794 
L 1344 0 
L 684 0 
L 684 794 
z
" transform="scale(0.015625)"/>
       </defs>
       <use xlink:href="#DejaVuSans-30"/>
       <use xlink:href="#DejaVuSans-2e" x="63.623047"/>
       <use xlink:href="#DejaVuSans-30" x="95.410156"/>
      </g>
     </g>
    </g>
    <g id="xtick_2">
     <g id="line2d_2">
      <g>
       <use xlink:href="#m4168dda791" x="116.229111" y="307.584" style="stroke: #000000; stroke-width: 0.8"/>
      </g>
     </g>
     <g id="text_2">
      <!-- 0.2 -->
      <g transform="translate(108.277548 322.182437) scale(0.1 -0.1)">
       <defs>
        <path id="DejaVuSans-32" d="M 1228 531 
L 3431 531 
L 3431 0 
L 469 0 
L 469 531 
Q 828 903 1448 1529 
Q 2069 2156 2228 2338 
Q 2531 2678 2651 2914 
Q 2772 3150 2772 3378 
Q 2772 3750 2511 3984 
Q 2250 4219 1831 4219 
Q 1534 4219 1204 4116 
Q 875 4013 500 3803 
L 500 4441 
Q 881 4594 1212 4672 
Q 1544 4750 1819 4750 
Q 2544 4750 2975 4387 
Q 3406 4025 3406 3419 
Q 3406 3131 3298 2873 
Q 3191 2616 2906 2266 
Q 2828 2175 2409 1742 
Q 1991 1309 1228 531 
z
" transform="scale(0.015625)"/>
       </defs>
       <use xlink:href="#DejaVuSans-30"/>
       <use xlink:href="#DejaVuSans-2e" x="63.623047"/>
       <use xlink:href="#DejaVuSans-32" x="95.410156"/>
      </g>
     </g>
    </g>
    <g id="xtick_3">
     <g id="line2d_3">
      <g>
       <use xlink:href="#m4168dda791" x="158.625494" y="307.584" style="stroke: #000000; stroke-width: 0.8"/>
      </g>
     </g>
     <g id="text_3">
      <!-- 0.4 -->
      <g transform="translate(150.673932 322.182437) scale(0.1 -0.1)">
       <defs>
        <path id="DejaVuSans-34" d="M 2419 4116 
L 825 1625 
L 2419 1625 
L 2419 4116 
z
M 2253 4666 
L 3047 4666 
L 3047 1625 
L 3713 1625 
L 3713 1100 
L 3047 1100 
L 3047 0 
L 2419 0 
L 2419 1100 
L 313 1100 
L 313 1709 
L 2253 4666 
z
" transform="scale(0.015625)"/>
       </defs>
       <use xlink:href="#DejaVuSans-30"/>
       <use xlink:href="#DejaVuSans-2e" x="63.623047"/>
       <use xlink:href="#DejaVuSans-34" x="95.410156"/>
      </g>
     </g>
    </g>
    <g id="xtick_4">
     <g id="line2d_4">
      <g>
       <use xlink:href="#m4168dda791" x="201.021877" y="307.584" style="stroke: #000000; stroke-width: 0.8"/>
      </g>
     </g>
     <g id="text_4">
      <!-- 0.6 -->
      <g transform="translate(193.070315 322.182437) scale(0.1 -0.1)">
       <defs>
        <path id="DejaVuSans-36" d="M 2113 2584 
Q 1688 2584 1439 2293 
Q 1191 2003 1191 1497 
Q 1191 994 1439 701 
Q 1688 409 2113 409 
Q 2538 409 2786 701 
Q 3034 994 3034 1497 
Q 3034 2003 2786 2293 
Q 2538 2584 2113 2584 
z
M 3366 4563 
L 3366 3988 
Q 3128 4100 2886 4159 
Q 2644 4219 2406 4219 
Q 1781 4219 1451 3797 
Q 1122 3375 1075 2522 
Q 1259 2794 1537 2939 
Q 1816 3084 2150 3084 
Q 2853 3084 3261 2657 
Q 3669 2231 3669 1497 
Q 3669 778 3244 343 
Q 2819 -91 2113 -91 
Q 1303 -91 875 529 
Q 447 1150 447 2328 
Q 447 3434 972 4092 
Q 1497 4750 2381 4750 
Q 2619 4750 2861 4703 
Q 3103 4656 3366 4563 
z
" transform="scale(0.015625)"/>
       </defs>
       <use xlink:href="#DejaVuSans-30"/>
       <use xlink:href="#DejaVuSans-2e" x="63.623047"/>
       <use xlink:href="#DejaVuSans-36" x="95.410156"/>
      </g>
     </g>
    </g>
    <g id="xtick_5">
     <g id="line2d_5">
      <g>
       <use xlink:href="#m4168dda791" x="243.418261" y="307.584" style="stroke: #000000; stroke-width: 0.8"/>
      </g>
     </g>
     <g id="text_5">
      <!-- 0.8 -->
      <g transform="translate(235.466698 322.182437) scale(0.1 -0.1)">
       <defs>
        <path id="DejaVuSans-38" d="M 2034 2216 
Q 1584 2216 1326 1975 
Q 1069 1734 1069 1313 
Q 1069 891 1326 650 
Q 1584 409 2034 409 
Q 2484 409 2743 651 
Q 3003 894 3003 1313 
Q 3003 1734 2745 1975 
Q 2488 2216 2034 2216 
z
M 1403 2484 
Q 997 2584 770 2862 
Q 544 3141 544 3541 
Q 544 4100 942 4425 
Q 1341 4750 2034 4750 
Q 2731 4750 3128 4425 
Q 3525 4100 3525 3541 
Q 3525 3141 3298 2862 
Q 3072 2584 2669 2484 
Q 3125 2378 3379 2068 
Q 3634 1759 3634 1313 
Q 3634 634 3220 271 
Q 2806 -91 2034 -91 
Q 1263 -91 848 271 
Q 434 634 434 1313 
Q 434 1759 690 2068 
Q 947 2378 1403 2484 
z
M 1172 3481 
Q 1172 3119 1398 2916 
Q 1625 2713 2034 2713 
Q 2441 2713 2670 2916 
Q 2900 3119 2900 3481 
Q 2900 3844 2670 4047 
Q 2441 4250 2034 4250 
Q 1625 4250 1398 4047 
Q 1172 3844 1172 3481 
z
" transform="scale(0.015625)"/>
       </defs>
       <use xlink:href="#DejaVuSans-30"/>
       <use xlink:href="#DejaVuSans-2e" x="63.623047"/>
       <use xlink:href="#DejaVuSans-38" x="95.410156"/>
      </g>
     </g>
    </g>
    <g id="xtick_6">
     <g id="line2d_6">
      <g>
       <use xlink:href="#m4168dda791" x="285.814644" y="307.584" style="stroke: #000000; stroke-width: 0.8"/>
      </g>
     </g>
     <g id="text_6">
      <!-- 1.0 -->
      <g transform="translate(277.863082 322.182437) scale(0.1 -0.1)">
       <defs>
        <path id="DejaVuSans-31" d="M 794 531 
L 1825 531 
L 1825 4091 
L 703 3866 
L 703 4441 
L 1819 4666 
L 2450 4666 
L 2450 531 
L 3481 531 
L 3481 0 
L 794 0 
L 794 531 
z
" transform="scale(0.015625)"/>
       </defs>
       <use xlink:href="#DejaVuSans-31"/>
       <use xlink:href="#DejaVuSans-2e" x="63.623047"/>
       <use xlink:href="#DejaVuSans-30" x="95.410156"/>
      </g>
     </g>
    </g>
    <g id="xtick_7">
     <g id="line2d_7">
      <g>
       <use xlink:href="#m4168dda791" x="328.211028" y="307.584" style="stroke: #000000; stroke-width: 0.8"/>
      </g>
     </g>
     <g id="text_7">
      <!-- 1.2 -->
      <g transform="translate(320.259465 322.182437) scale(0.1 -0.1)">
       <use xlink:href="#DejaVuSans-31"/>
       <use xlink:href="#DejaVuSans-2e" x="63.623047"/>
       <use xlink:href="#DejaVuSans-32" x="95.410156"/>
      </g>
     </g>
    </g>
    <g id="xtick_8">
     <g id="line2d_8">
      <g>
       <use xlink:href="#m4168dda791" x="370.607411" y="307.584" style="stroke: #000000; stroke-width: 0.8"/>
      </g>
     </g>
     <g id="text_8">
      <!-- 1.4 -->
      <g transform="translate(362.655849 322.182437) scale(0.1 -0.1)">
       <use xlink:href="#DejaVuSans-31"/>
       <use xlink:href="#DejaVuSans-2e" x="63.623047"/>
       <use xlink:href="#DejaVuSans-34" x="95.410156"/>
      </g>
     </g>
    </g>
    <g id="xtick_9">
     <g id="line2d_9">
      <g>
       <use xlink:href="#m4168dda791" x="413.003794" y="307.584" style="stroke: #000000; stroke-width: 0.8"/>
      </g>
     </g>
     <g id="text_9">
      <!-- 1.6 -->
      <g transform="translate(405.052232 322.182437) scale(0.1 -0.1)">
       <use xlink:href="#DejaVuSans-31"/>
       <use xlink:href="#DejaVuSans-2e" x="63.623047"/>
       <use xlink:href="#DejaVuSans-36" x="95.410156"/>
      </g>
     </g>
    </g>
    <g id="text_10">
     <!-- 1e6 -->
     <g transform="translate(395.841875 334.860562) scale(0.1 -0.1)">
      <defs>
       <path id="DejaVuSans-65" d="M 3597 1894 
L 3597 1613 
L 953 1613 
Q 991 1019 1311 708 
Q 1631 397 2203 397 
Q 2534 397 2845 478 
Q 3156 559 3463 722 
L 3463 178 
Q 3153 47 2828 -22 
Q 2503 -91 2169 -91 
Q 1331 -91 842 396 
Q 353 884 353 1716 
Q 353 2575 817 3079 
Q 1281 3584 2069 3584 
Q 2775 3584 3186 3129 
Q 3597 2675 3597 1894 
z
M 3022 2063 
Q 3016 2534 2758 2815 
Q 2500 3097 2075 3097 
Q 1594 3097 1305 2825 
Q 1016 2553 972 2059 
L 3022 2063 
z
" transform="scale(0.015625)"/>
      </defs>
      <use xlink:href="#DejaVuSans-31"/>
      <use xlink:href="#DejaVuSans-65" x="63.623047"/>
      <use xlink:href="#DejaVuSans-36" x="125.146484"/>
     </g>
    </g>
   </g>
   <g id="matplotlib.axis_2">
    <g id="ytick_1">
     <g id="line2d_10">
      <defs>
       <path id="m21448aabeb" d="M 0 0 
L -3.5 0 
" style="stroke: #000000; stroke-width: 0.8"/>
      </defs>
      <g>
       <use xlink:href="#m21448aabeb" x="57.6" y="295.488" style="stroke: #000000; stroke-width: 0.8"/>
      </g>
     </g>
     <g id="text_11">
      <!-- 0.0 -->
      <g transform="translate(34.696875 299.287219) scale(0.1 -0.1)">
       <use xlink:href="#DejaVuSans-30"/>
       <use xlink:href="#DejaVuSans-2e" x="63.623047"/>
       <use xlink:href="#DejaVuSans-30" x="95.410156"/>
      </g>
     </g>
    </g>
    <g id="ytick_2">
     <g id="line2d_11">
      <g>
       <use xlink:href="#m21448aabeb" x="57.6" y="247.104" style="stroke: #000000; stroke-width: 0.8"/>
      </g>
     </g>
     <g id="text_12">
      <!-- 0.2 -->
      <g transform="translate(34.696875 250.903219) scale(0.1 -0.1)">
       <use xlink:href="#DejaVuSans-30"/>
       <use xlink:href="#DejaVuSans-2e" x="63.623047"/>
       <use xlink:href="#DejaVuSans-32" x="95.410156"/>
      </g>
     </g>
    </g>
    <g id="ytick_3">
     <g id="line2d_12">
      <g>
       <use xlink:href="#m21448aabeb" x="57.6" y="198.72" style="stroke: #000000; stroke-width: 0.8"/>
      </g>
     </g>
     <g id="text_13">
      <!-- 0.4 -->
      <g transform="translate(34.696875 202.519219) scale(0.1 -0.1)">
       <use xlink:href="#DejaVuSans-30"/>
       <use xlink:href="#DejaVuSans-2e" x="63.623047"/>
       <use xlink:href="#DejaVuSans-34" x="95.410156"/>
      </g>
     </g>
    </g>
    <g id="ytick_4">
     <g id="line2d_13">
      <g>
       <use xlink:href="#m21448aabeb" x="57.6" y="150.336" style="stroke: #000000; stroke-width: 0.8"/>
      </g>
     </g>
     <g id="text_14">
      <!-- 0.6 -->
      <g transform="translate(34.696875 154.135219) scale(0.1 -0.1)">
       <use xlink:href="#DejaVuSans-30"/>
       <use xlink:href="#DejaVuSans-2e" x="63.623047"/>
       <use xlink:href="#DejaVuSans-36" x="95.410156"/>
      </g>
     </g>
    </g>
    <g id="ytick_5">
     <g id="line2d_14">
      <g>
       <use xlink:href="#m21448aabeb" x="57.6" y="101.952" style="stroke: #000000; stroke-width: 0.8"/>
      </g>
     </g>
     <g id="text_15">
      <!-- 0.8 -->
      <g transform="translate(34.696875 105.751219) scale(0.1 -0.1)">
       <use xlink:href="#DejaVuSans-30"/>
       <use xlink:href="#DejaVuSans-2e" x="63.623047"/>
       <use xlink:href="#DejaVuSans-38" x="95.410156"/>
      </g>
     </g>
    </g>
    <g id="ytick_6">
     <g id="line2d_15">
      <g>
       <use xlink:href="#m21448aabeb" x="57.6" y="53.568" style="stroke: #000000; stroke-width: 0.8"/>
      </g>
     </g>
     <g id="text_16">
      <!-- 1.0 -->
      <g transform="translate(34.696875 57.367219) scale(0.1 -0.1)">
       <use xlink:href="#DejaVuSans-31"/>
       <use xlink:href="#DejaVuSans-2e" x="63.623047"/>
       <use xlink:href="#DejaVuSans-30" x="95.410156"/>
      </g>
     </g>
    </g>
   </g>
   <g id="line2d_16">
    <path d="M 73.832727 295.488 
L 146.097363 295.488 
L 146.097363 294.788809 
L 146.847779 294.788809 
L 146.847779 294.089618 
L 147.587596 294.089618 
L 147.587596 293.390428 
L 148.327413 293.390428 
L 148.327413 292.691237 
L 149.067229 292.691237 
L 149.067229 291.992046 
L 149.804926 291.992046 
L 149.804926 291.292855 
L 150.548983 291.292855 
L 150.548983 290.593665 
L 151.295159 290.593665 
L 151.295159 289.894474 
L 152.039216 289.894474 
L 152.039216 289.195283 
L 152.770554 289.195283 
L 152.770554 288.496092 
L 153.51461 288.496092 
L 153.51461 287.796902 
L 154.267146 287.796902 
L 154.267146 287.097711 
L 155.006963 287.097711 
L 155.006963 286.39852 
L 155.7383 286.39852 
L 155.7383 285.699329 
L 156.469638 285.699329 
L 156.469638 285.000139 
L 157.213694 285.000139 
L 157.213694 284.300948 
L 157.936553 284.300948 
L 157.936553 283.601757 
L 158.659411 283.601757 
L 158.659411 282.902566 
L 159.392869 282.902566 
L 159.392869 282.203376 
L 160.132685 282.203376 
L 160.132685 281.504185 
L 160.883101 281.504185 
L 160.883101 280.804994 
L 161.622918 280.804994 
L 161.622918 280.105803 
L 162.379694 280.105803 
L 162.379694 279.406613 
L 163.119511 279.406613 
L 163.119511 278.707422 
L 163.846609 278.707422 
L 163.846609 278.008231 
L 164.597025 278.008231 
L 164.597025 277.30904 
L 165.336842 277.30904 
L 165.336842 276.60985 
L 166.06182 276.60985 
L 166.06182 275.910659 
L 166.793157 275.910659 
L 166.793157 275.211468 
L 167.543573 275.211468 
L 167.543573 274.512277 
L 168.28127 274.512277 
L 168.28127 273.813087 
L 169.040166 273.813087 
L 169.040166 273.113896 
L 169.792701 273.113896 
L 169.792701 272.414705 
L 170.530399 272.414705 
L 170.530399 271.715514 
L 171.259616 271.715514 
L 171.259616 271.016324 
L 172.014272 271.016324 
L 172.014272 270.317133 
L 172.764688 270.317133 
L 172.764688 269.617942 
L 173.496026 269.617942 
L 173.496026 268.918751 
L 174.246442 268.918751 
L 174.246442 268.219561 
L 174.977779 268.219561 
L 174.977779 267.52037 
L 175.715476 267.52037 
L 175.715476 266.821179 
L 176.444694 266.821179 
L 176.444694 266.121988 
L 177.171792 266.121988 
L 177.171792 265.422798 
L 177.928567 265.422798 
L 177.928567 264.723607 
L 178.651426 264.723607 
L 178.651426 264.024416 
L 179.414561 264.024416 
L 179.414561 263.325225 
L 180.171336 263.325225 
L 180.171336 262.626035 
L 180.917512 262.626035 
L 180.917512 261.926844 
L 181.676408 261.926844 
L 181.676408 261.227653 
L 182.420464 261.227653 
L 182.420464 260.528462 
L 183.139083 260.528462 
L 183.139083 259.829272 
L 183.866181 259.829272 
L 183.866181 259.130081 
L 184.610237 259.130081 
L 184.610237 258.43089 
L 185.352174 258.43089 
L 185.352174 257.731699 
L 186.10895 257.731699 
L 186.10895 257.032509 
L 186.833928 257.032509 
L 186.833928 256.333318 
L 188.33688 256.333318 
L 188.33688 255.634127 
L 189.061858 255.634127 
L 189.061858 254.934936 
L 189.803794 254.934936 
L 189.803794 254.235746 
L 189.952182 254.235746 
L 189.952182 253.536555 
L 190.541491 253.536555 
L 190.541491 252.837364 
L 190.683519 252.837364 
L 190.683519 252.138173 
L 191.26647 252.138173 
L 191.26647 251.438983 
L 191.427576 251.438983 
L 191.427576 250.739792 
L 191.995687 250.739792 
L 191.995687 250.040601 
L 192.156794 250.040601 
L 192.156794 249.34141 
L 192.752463 249.34141 
L 192.752463 248.64222 
L 192.90721 248.64222 
L 192.90721 247.943029 
L 193.504999 247.943029 
L 193.504999 247.243838 
L 193.666105 247.243838 
L 193.666105 246.544647 
L 194.223617 246.544647 
L 194.223617 245.845457 
L 194.418641 245.845457 
L 194.418641 245.146266 
L 195.152098 245.146266 
L 195.152098 244.447075 
L 195.894035 244.447075 
L 195.894035 243.747884 
L 196.631732 243.747884 
L 196.631732 243.048694 
L 198.8851 243.048694 
L 198.8851 242.349503 
L 199.616437 242.349503 
L 199.616437 241.650312 
L 200.366853 241.650312 
L 200.366853 240.951121 
L 201.102431 240.951121 
L 201.102431 240.251931 
L 201.838008 240.251931 
L 201.838008 239.55274 
L 209.823367 239.55274 
L 209.823367 238.853549 
L 210.563184 238.853549 
L 210.563184 238.154358 
L 211.281802 238.154358 
L 211.281802 237.455168 
L 237.116038 237.455168 
L 237.116038 236.755977 
L 237.650233 236.755977 
L 237.650233 236.056786 
L 238.180188 236.056786 
L 238.180188 235.357595 
L 238.710142 235.357595 
L 238.710142 234.658405 
L 239.237977 234.658405 
L 239.237977 233.959214 
L 239.770052 233.959214 
L 239.770052 233.260023 
L 240.297887 233.260023 
L 240.297887 232.560832 
L 240.834201 232.560832 
L 240.834201 231.861642 
L 241.372635 231.861642 
L 241.372635 231.162451 
L 241.896231 231.162451 
L 241.896231 230.46326 
L 242.428305 230.46326 
L 242.428305 229.764069 
L 242.947661 229.764069 
L 242.947661 229.064879 
L 243.481855 229.064879 
L 243.481855 228.365688 
L 244.001211 228.365688 
L 244.001211 227.666497 
L 244.548124 227.666497 
L 244.548124 226.967306 
L 245.078079 226.967306 
L 245.078079 226.268116 
L 245.595315 226.268116 
L 245.595315 225.568925 
L 246.114671 225.568925 
L 246.114671 224.869734 
L 246.646745 224.869734 
L 246.663704 223.471353 
L 247.17458 223.471353 
L 247.17458 222.772162 
L 247.392922 222.772162 
L 247.392922 222.072971 
L 247.706655 222.072971 
L 247.706655 221.37378 
L 248.124259 221.37378 
L 248.23449 219.975399 
L 248.753846 219.975399 
L 248.753846 219.276208 
L 248.870436 219.276208 
L 248.870436 218.577017 
L 249.277441 218.577017 
L 249.277441 217.877827 
L 249.597534 217.877827 
L 249.597534 217.178636 
L 249.809516 217.178636 
L 249.809516 216.479445 
L 250.335231 216.479445 
L 250.337351 215.081064 
L 250.867305 215.081064 
L 250.867305 214.381873 
L 251.072928 214.381873 
L 251.072928 213.682682 
L 251.382421 213.682682 
L 251.382421 212.983491 
L 251.804265 212.983491 
L 251.914496 211.58511 
L 252.45717 211.58511 
L 252.544082 210.186728 
L 252.976525 210.186728 
L 252.976525 209.487538 
L 253.296618 209.487538 
L 253.296618 208.788347 
L 253.5086 208.788347 
L 253.5086 208.089156 
L 254.025836 208.089156 
L 254.040675 206.690775 
L 254.570629 206.690775 
L 254.570629 205.991584 
L 254.761413 205.991584 
L 254.761413 205.292393 
L 255.098464 205.292393 
L 255.098464 204.593202 
L 255.511829 204.593202 
L 255.511829 203.894012 
L 255.632659 203.894012 
L 255.632659 203.194821 
L 256.147775 203.194821 
L 256.147775 202.49563 
L 256.260125 202.49563 
L 256.260125 201.796439 
L 256.66925 201.796439 
L 256.66925 201.097249 
L 256.997822 201.097249 
L 256.997822 200.398058 
L 257.186486 200.398058 
L 257.186486 199.698867 
L 257.714321 199.698867 
L 257.737639 198.300486 
L 258.237917 198.300486 
L 258.237917 197.601295 
L 258.477456 197.601295 
L 258.477456 196.902104 
L 258.763632 196.902104 
L 258.763632 196.202913 
L 259.223633 196.202913 
L 259.278748 194.804532 
L 259.812942 194.804532 
L 259.812942 194.105341 
L 259.963449 194.105341 
L 259.963449 193.40615 
L 260.340777 193.40615 
L 260.340777 192.70696 
L 260.707506 192.70696 
L 260.707506 192.007769 
L 260.877092 192.007769 
L 260.877092 191.308578 
L 261.409166 191.308578 
L 261.460042 189.910197 
L 261.939121 189.910197 
L 261.939121 189.211006 
L 262.206218 189.211006 
L 262.206218 188.511815 
L 262.452117 188.511815 
L 262.452117 187.812624 
L 262.958754 187.812624 
L 262.977832 186.414243 
L 263.522626 186.414243 
L 263.522626 185.715052 
L 263.690092 185.715052 
L 263.690092 185.015861 
L 264.046221 185.015861 
L 264.046221 184.316671 
L 264.446867 184.316671 
L 264.446867 183.61748 
L 264.569817 183.61748 
L 264.569817 182.918289 
L 265.097651 182.918289 
L 265.199403 181.519908 
L 265.629726 181.519908 
L 265.629726 180.820717 
L 266.1724 180.820717 
L 266.1724 180.121526 
L 266.672677 180.121526 
L 266.691755 178.723145 
L 267.21959 178.723145 
L 267.21959 178.023954 
L 267.416734 178.023954 
L 267.416734 177.324763 
L 267.758025 177.324763 
L 267.758025 176.625572 
L 268.156551 176.625572 
L 268.156551 175.926382 
L 268.273141 175.926382 
L 268.273141 175.227191 
L 268.805215 175.227191 
L 268.906967 173.828809 
L 269.33305 173.828809 
L 269.33305 173.129618 
L 269.651023 173.129618 
L 269.651023 172.430428 
L 269.856646 172.430428 
L 269.856646 171.731237 
L 270.378121 171.731237 
L 270.382361 170.332855 
L 270.912315 170.332855 
L 270.912315 169.633665 
L 271.124297 169.633665 
L 271.124297 168.934474 
L 271.435911 168.934474 
L 271.44015 167.536092 
L 271.855635 167.536092 
L 271.855635 166.836902 
L 271.967985 166.836902 
L 271.978585 165.43852 
L 272.50218 165.43852 
L 272.599692 164.040139 
L 273.044854 164.040139 
L 273.044854 163.340948 
L 273.343748 163.340948 
L 273.343748 162.641757 
L 273.574808 162.641757 
L 273.574808 161.942566 
L 274.102643 161.942566 
L 274.111123 160.544185 
L 274.636838 160.544185 
L 274.636838 159.844994 
L 274.855179 159.844994 
L 274.855179 159.145803 
L 275.158313 159.145803 
L 275.158313 158.446613 
L 275.675549 158.446613 
L 275.675549 157.747422 
L 276.199144 157.747422 
L 276.199144 157.048231 
L 276.731219 157.048231 
L 276.731219 156.34904 
L 277.265414 156.34904 
L 277.265414 155.64985 
L 277.786889 155.64985 
L 277.786889 154.950659 
L 278.314724 154.950659 
L 278.314724 154.251468 
L 278.853158 154.251468 
L 278.853158 153.552277 
L 279.393712 153.552277 
L 279.393712 152.853087 
L 279.927906 152.853087 
L 279.927906 152.153896 
L 280.459981 152.153896 
L 280.459981 151.454705 
L 280.985696 151.454705 
L 280.985696 150.755514 
L 281.513531 150.755514 
L 281.513531 150.056324 
L 282.058325 150.056324 
L 282.058325 149.357133 
L 294.77088 149.357133 
L 294.77088 148.657942 
L 298.493283 148.657942 
L 298.590794 147.259561 
L 299.025357 147.259561 
L 299.025357 146.56037 
L 299.313653 146.56037 
L 299.313653 145.861179 
L 305.961406 145.861179 
L 305.961406 145.161988 
L 306.701223 145.161988 
L 306.701223 144.462798 
L 307.443159 144.462798 
L 307.443159 143.763607 
L 308.202054 143.763607 
L 308.202054 143.064416 
L 309.124176 143.064416 
L 309.124176 142.365225 
L 309.66685 142.365225 
L 309.66685 141.666035 
L 310.194684 141.666035 
L 310.194684 140.966844 
L 310.722519 140.966844 
L 310.722519 140.267653 
L 311.260954 140.267653 
L 311.260954 139.568462 
L 311.797268 139.568462 
L 311.797268 138.869272 
L 312.318743 138.869272 
L 312.318743 138.170081 
L 312.848698 138.170081 
L 312.848698 137.47089 
L 313.376533 137.47089 
L 313.376533 136.771699 
L 313.917087 136.771699 
L 313.917087 136.072509 
L 314.457641 136.072509 
L 314.457641 135.373318 
L 314.976997 135.373318 
L 314.976997 134.674127 
L 315.502712 134.674127 
L 315.502712 133.974936 
L 316.030547 133.974936 
L 316.030547 133.275746 
L 316.403635 133.275746 
L 316.403635 132.576555 
L 316.57534 132.576555 
L 316.57534 131.877364 
L 317.103175 131.877364 
L 317.154051 130.478983 
L 317.63525 130.478983 
L 317.63525 129.779792 
L 317.898107 129.779792 
L 317.898107 129.080601 
L 318.156725 129.080601 
L 318.156725 128.38141 
L 318.640044 128.38141 
L 318.68456 126.983029 
L 319.216635 126.983029 
L 319.216635 126.283838 
L 319.38834 126.283838 
L 319.38834 125.584647 
L 319.750829 125.584647 
L 319.750829 124.885457 
L 320.140876 124.885457 
L 320.140876 124.186266 
L 320.270185 124.186266 
L 320.270185 123.487075 
L 320.79802 123.487075 
L 320.876453 122.088694 
L 321.336454 122.088694 
L 321.336454 121.389503 
L 321.61415 121.389503 
L 321.61415 120.690312 
L 321.877008 120.690312 
L 321.877008 119.991121 
L 322.353967 119.991121 
L 322.396364 118.59274 
L 322.932678 118.59274 
L 322.932678 117.893549 
L 323.106503 117.893549 
L 323.106503 117.194358 
L 323.462633 117.194358 
L 323.462633 116.495168 
L 323.84632 116.495168 
L 323.84632 115.795977 
L 324.003187 115.795977 
L 324.003187 115.096786 
L 324.524662 115.096786 
L 324.584017 113.698405 
L 325.048257 113.698405 
L 325.048257 112.999214 
L 325.325954 112.999214 
L 325.325954 112.300023 
L 325.580332 112.300023 
L 325.580332 111.600832 
L 326.114526 111.600832 
L 326.114526 110.901642 
L 326.644481 110.901642 
L 326.644481 110.202451 
L 327.178676 110.202451 
L 327.178676 109.50326 
L 327.71287 109.50326 
L 327.71287 108.804069 
L 328.232226 108.804069 
L 328.232226 108.104879 
L 328.76854 108.104879 
L 328.76854 107.405688 
L 329.302734 107.405688 
L 329.302734 106.706497 
L 329.845408 106.706497 
L 329.845408 106.007306 
L 330.377483 106.007306 
L 330.377483 105.308116 
L 330.909557 105.308116 
L 330.909557 104.608925 
L 331.433153 104.608925 
L 331.433153 103.909734 
L 331.958868 103.909734 
L 331.958868 103.210543 
L 332.490943 103.210543 
L 332.490943 102.511353 
L 333.025137 102.511353 
L 333.025137 101.812162 
L 333.561451 101.812162 
L 333.561451 101.112971 
L 334.085047 101.112971 
L 334.085047 100.41378 
L 334.615001 100.41378 
L 334.615001 99.71459 
L 335.153435 99.71459 
L 335.153435 99.015399 
L 335.674911 99.015399 
L 335.674911 98.316208 
L 336.196386 98.316208 
L 336.196386 97.617017 
L 336.728461 97.617017 
L 336.728461 96.917827 
L 337.271135 96.917827 
L 337.271135 96.218636 
L 337.809569 96.218636 
L 337.809569 95.519445 
L 338.335284 95.519445 
L 338.335284 94.820254 
L 338.873718 94.820254 
L 338.873718 94.121064 
L 339.405793 94.121064 
L 339.405793 93.421873 
L 339.937867 93.421873 
L 339.937867 92.722682 
L 340.463582 92.722682 
L 340.463582 92.023491 
L 340.997777 92.023491 
L 340.997777 91.324301 
L 341.54257 91.324301 
L 341.54257 90.62511 
L 342.076765 90.62511 
L 342.076765 89.925919 
L 342.619439 89.925919 
L 342.619439 89.226728 
L 343.145154 89.226728 
L 343.145154 88.527538 
L 343.679348 88.527538 
L 343.679348 87.828347 
L 344.213543 87.828347 
L 344.213543 87.129156 
L 344.747737 87.129156 
L 344.747737 86.429965 
L 345.279812 86.429965 
L 345.279812 85.730775 
L 345.799167 85.730775 
L 345.799167 85.031584 
L 346.331242 85.031584 
L 346.331242 84.332393 
L 346.854837 84.332393 
L 346.854837 83.633202 
L 347.376313 83.633202 
L 347.376313 82.934012 
L 347.906268 82.934012 
L 347.906268 82.234821 
L 348.440462 82.234821 
L 348.440462 81.53563 
L 348.970417 81.53563 
L 348.970417 80.836439 
L 349.496132 80.836439 
L 349.496132 80.137249 
L 350.023967 80.137249 
L 350.023967 79.438058 
L 350.543323 79.438058 
L 350.543323 78.738867 
L 351.071158 78.738867 
L 351.071158 78.039676 
L 351.603232 78.039676 
L 351.603232 77.340486 
L 352.133187 77.340486 
L 352.133187 76.641295 
L 352.671621 76.641295 
L 352.671621 75.942104 
L 353.195216 75.942104 
L 353.195216 75.242913 
L 353.723051 75.242913 
L 353.723051 74.543723 
L 354.255126 74.543723 
L 354.255126 73.844532 
L 354.787201 73.844532 
L 354.787201 73.145341 
L 355.857709 73.145341 
L 355.857709 72.44615 
L 356.394023 72.44615 
L 356.394023 71.74696 
L 356.930338 71.74696 
L 356.930338 71.047769 
L 357.445454 71.047769 
L 357.445454 70.348578 
L 357.973289 70.348578 
L 357.973289 69.649387 
L 362.195969 69.649387 
L 362.195969 68.950197 
L 362.719564 68.950197 
L 362.719564 68.251006 
L 363.245279 68.251006 
L 363.245279 67.551815 
L 363.779473 67.551815 
L 363.779473 66.852624 
L 364.313668 66.852624 
L 364.313668 66.153434 
L 364.843623 66.153434 
L 364.843623 65.454243 
L 365.379937 65.454243 
L 365.379937 64.755052 
L 365.907772 64.755052 
L 365.907772 64.055861 
L 366.441966 64.055861 
L 366.441966 63.356671 
L 366.963442 63.356671 
L 366.963442 62.65748 
L 367.499756 62.65748 
L 367.499756 61.958289 
L 368.021232 61.958289 
L 368.021232 61.259098 
L 368.561786 61.259098 
L 368.561786 60.559908 
L 369.09174 60.559908 
L 369.09174 59.860717 
L 369.621695 59.860717 
L 369.621695 59.161526 
L 370.14529 59.161526 
L 370.14529 58.462335 
L 370.690084 58.462335 
L 370.690084 57.763145 
L 371.217919 57.763145 
L 371.217919 57.063954 
L 371.743634 57.063954 
L 371.743634 56.364763 
L 377.613413 56.364763 
L 377.613413 55.665572 
L 378.145488 55.665572 
L 378.145488 54.966382 
L 378.690282 54.966382 
L 378.690282 54.267191 
L 379.220236 54.267191 
L 379.220236 53.568 
L 379.220236 53.568 
" clip-path="url(#p833c2d92d6)" style="fill: none; stroke: #1f77b4; stroke-width: 1.5; stroke-linecap: square"/>
   </g>
   <g id="line2d_17">
    <path d="M 73.832727 295.488 
L 215.201348 295.488 
L 215.201348 293.896421 
L 215.724943 293.896421 
L 215.724943 292.304842 
L 216.248539 292.304842 
L 216.248539 290.713263 
L 216.782733 290.713263 
L 216.782733 289.121684 
L 217.308448 289.121684 
L 217.308448 287.530105 
L 217.823564 287.530105 
L 217.823564 285.938526 
L 218.366238 285.938526 
L 218.366238 284.346947 
L 218.891953 284.346947 
L 218.891953 282.755368 
L 219.419788 282.755368 
L 219.419788 281.163789 
L 219.958222 281.163789 
L 219.958222 279.572211 
L 220.490297 279.572211 
L 220.490297 277.980632 
L 221.016012 277.980632 
L 221.016012 276.389053 
L 221.541727 276.389053 
L 221.541727 274.797474 
L 222.067442 274.797474 
L 222.067442 273.205895 
L 222.591037 273.205895 
L 222.591037 271.614316 
L 223.118872 271.614316 
L 223.118872 270.022737 
L 223.659426 270.022737 
L 223.659426 268.431158 
L 224.185142 268.431158 
L 224.185142 266.839579 
L 224.715096 266.839579 
L 224.715096 265.248 
L 225.242931 265.248 
L 225.242931 263.656421 
L 225.770766 263.656421 
L 225.770766 262.064842 
L 226.304961 262.064842 
L 226.304961 260.473263 
L 226.843395 260.473263 
L 226.843395 258.881684 
L 227.36275 258.881684 
L 227.36275 257.290105 
L 227.901185 257.290105 
L 227.901185 255.698526 
L 228.41842 255.698526 
L 228.41842 254.106947 
L 240.632818 254.106947 
L 240.632818 252.515368 
L 243.026094 252.515368 
L 243.026094 250.923789 
L 243.755312 250.923789 
L 243.755312 249.332211 
L 244.501488 249.332211 
L 244.501488 247.740632 
L 245.249785 247.740632 
L 245.249785 246.149053 
L 245.985362 246.149053 
L 245.985362 244.557474 
L 246.716699 244.557474 
L 246.716699 242.965895 
L 247.458636 242.965895 
L 247.458636 241.374316 
L 248.194213 241.374316 
L 248.194213 239.782737 
L 248.927671 239.782737 
L 248.927671 238.191158 
L 249.652649 238.191158 
L 249.652649 236.599579 
L 250.394586 236.599579 
L 250.394586 235.008 
L 251.121684 235.008 
L 251.121684 233.416421 
L 251.859381 233.416421 
L 251.859381 231.824842 
L 252.607677 231.824842 
L 252.607677 230.233263 
L 253.334775 230.233263 
L 253.334775 228.641684 
L 254.072472 228.641684 
L 254.072472 227.050105 
L 254.820768 227.050105 
L 254.820768 225.458526 
L 255.579663 225.458526 
L 255.579663 223.866947 
L 256.32372 223.866947 
L 256.32372 222.275368 
L 257.055058 222.275368 
L 257.055058 220.683789 
L 257.807593 220.683789 
L 257.807593 219.092211 
L 258.54953 219.092211 
L 258.54953 217.500632 
L 259.291467 217.500632 
L 259.291467 215.909053 
L 260.033403 215.909053 
L 260.033403 214.317474 
L 260.7817 214.317474 
L 260.7817 212.725895 
L 261.534235 212.725895 
L 261.534235 211.134316 
L 262.271933 211.134316 
L 262.271933 209.542737 
L 263.020229 209.542737 
L 263.020229 207.951158 
L 263.749446 207.951158 
L 263.749446 206.359579 
L 264.495623 206.359579 
L 264.495623 204.768 
L 265.239679 204.768 
L 265.239679 203.176421 
L 265.966777 203.176421 
L 265.966777 201.584842 
L 266.708714 201.584842 
L 266.708714 199.993263 
L 267.46125 199.993263 
L 267.46125 198.401684 
L 268.224385 198.401684 
L 268.224385 196.810105 
L 268.966321 196.810105 
L 268.966321 195.218526 
L 269.710378 195.218526 
L 269.710378 193.626947 
L 270.450195 193.626947 
L 270.450195 192.035368 
L 271.185772 192.035368 
L 271.185772 190.443789 
L 271.91499 190.443789 
L 271.91499 188.852211 
L 272.521258 188.852211 
L 272.521258 187.260632 
L 272.665406 187.260632 
L 272.665406 185.669053 
L 273.044854 185.669053 
L 273.044854 184.077474 
L 273.574808 184.077474 
L 273.574808 182.485895 
L 274.100523 182.485895 
L 274.14716 179.302737 
L 274.621999 179.302737 
L 274.621999 177.711158 
L 274.895456 177.711158 
L 274.895456 176.119579 
L 275.147714 176.119579 
L 275.147714 174.528 
L 275.635273 174.528 
L 275.686148 171.344842 
L 276.211863 171.344842 
L 276.211863 169.753263 
L 276.385689 169.753263 
L 276.385689 168.161684 
L 276.743938 168.161684 
L 276.743938 166.570105 
L 277.121266 166.570105 
L 277.121266 164.978526 
L 277.263294 164.978526 
L 277.263294 163.386947 
L 277.784769 163.386947 
L 277.869562 160.203789 
L 278.316844 160.203789 
L 278.316844 158.612211 
L 278.617858 158.612211 
L 278.617858 157.020632 
L 278.857398 157.020632 
L 278.857398 155.429053 
L 279.383113 155.429053 
L 279.383113 153.837474 
L 279.910948 153.837474 
L 279.910948 152.245895 
L 280.436663 152.245895 
L 280.436663 150.654316 
L 280.962378 150.654316 
L 280.962378 149.062737 
L 281.498692 149.062737 
L 281.498692 147.471158 
L 282.018048 147.471158 
L 282.018048 145.879579 
L 282.548003 145.879579 
L 282.548003 144.288 
L 283.088557 144.288 
L 283.088557 142.696421 
L 283.616392 142.696421 
L 283.616392 141.104842 
L 284.142107 141.104842 
L 284.142107 139.513263 
L 284.680541 139.513263 
L 284.680541 137.921684 
L 285.206256 137.921684 
L 285.206256 136.330105 
L 297.12176 136.330105 
L 297.12176 134.738526 
L 297.853097 134.738526 
L 297.853097 133.146947 
L 298.595034 133.146947 
L 298.595034 131.555368 
L 299.320012 131.555368 
L 299.320012 129.963789 
L 302.052459 129.963789 
L 302.052459 128.372211 
L 302.593013 128.372211 
L 302.593013 126.780632 
L 303.120848 126.780632 
L 303.120848 125.189053 
L 303.665641 125.189053 
L 303.665641 123.597474 
L 304.184997 123.597474 
L 304.184997 122.005895 
L 304.710712 122.005895 
L 304.710712 120.414316 
L 305.240667 120.414316 
L 305.240667 118.822737 
L 305.764262 118.822737 
L 305.764262 117.231158 
L 306.292097 117.231158 
L 306.292097 115.639579 
L 306.815693 115.639579 
L 306.815693 114.048 
L 307.347767 114.048 
L 307.347767 112.456421 
L 307.879842 112.456421 
L 307.879842 110.864842 
L 308.414036 110.864842 
L 308.414036 109.273263 
L 308.943991 109.273263 
L 308.943991 107.681684 
L 309.482425 107.681684 
L 309.482425 106.090105 
L 310.0145 106.090105 
L 310.0145 104.498526 
L 317.154051 104.498526 
L 317.154051 102.906947 
L 317.898107 102.906947 
L 317.898107 101.315368 
L 318.640044 101.315368 
L 318.640044 99.723789 
L 319.38834 99.723789 
L 319.38834 98.132211 
L 320.140876 98.132211 
L 320.140876 96.540632 
L 320.876453 96.540632 
L 320.876453 94.949053 
L 321.61415 94.949053 
L 321.61415 93.357474 
L 322.353967 93.357474 
L 322.353967 91.765895 
L 323.106503 91.765895 
L 323.106503 90.174316 
L 323.84632 90.174316 
L 323.84632 88.582737 
L 324.584017 88.582737 
L 324.584017 86.991158 
L 325.325954 86.991158 
L 325.325954 85.399579 
L 368.260771 85.399579 
L 368.260771 83.808 
L 368.788606 83.808 
L 368.788606 82.216421 
L 369.322801 82.216421 
L 369.322801 80.624842 
L 369.852755 80.624842 
L 369.852755 79.033263 
L 370.378471 79.033263 
L 370.378471 77.441684 
L 370.910545 77.441684 
L 370.910545 75.850105 
L 371.44474 75.850105 
L 371.44474 74.258526 
L 371.976814 74.258526 
L 371.976814 72.666947 
L 372.508889 72.666947 
L 372.508889 71.075368 
L 373.036724 71.075368 
L 373.036724 69.483789 
L 381.509641 69.483789 
L 381.509641 67.892211 
L 382.033236 67.892211 
L 382.033236 66.300632 
L 394.779709 66.300632 
L 394.779709 64.709053 
L 395.320263 64.709053 
L 395.320263 63.117474 
L 395.839619 63.117474 
L 395.839619 61.525895 
L 396.373813 61.525895 
L 396.373813 59.934316 
L 396.903768 59.934316 
L 396.903768 58.342737 
L 397.423124 58.342737 
L 397.423124 56.751158 
L 397.948839 56.751158 
L 397.948839 55.159579 
L 398.487273 55.159579 
L 398.487273 53.568 
L 398.487273 53.568 
" clip-path="url(#p833c2d92d6)" style="fill: none; stroke: #ff7f0e; stroke-width: 1.5; stroke-linecap: square"/>
   </g>
   <g id="patch_3">
    <path d="M 57.6 307.584 
L 57.6 41.472 
" style="fill: none; stroke: #000000; stroke-width: 0.8; stroke-linejoin: miter; stroke-linecap: square"/>
   </g>
   <g id="patch_4">
    <path d="M 414.72 307.584 
L 414.72 41.472 
" style="fill: none; stroke: #000000; stroke-width: 0.8; stroke-linejoin: miter; stroke-linecap: square"/>
   </g>
   <g id="patch_5">
    <path d="M 57.6 307.584 
L 414.72 307.584 
" style="fill: none; stroke: #000000; stroke-width: 0.8; stroke-linejoin: miter; stroke-linecap: square"/>
   </g>
   <g id="patch_6">
    <path d="M 57.6 41.472 
L 414.72 41.472 
" style="fill: none; stroke: #000000; stroke-width: 0.8; stroke-linejoin: miter; stroke-linecap: square"/>
   </g>
   <g id="text_17">
    <!-- S1 S15 -->
    <g transform="translate(215.1825 35.472) scale(0.12 -0.12)">
     <defs>
      <path id="DejaVuSans-53" d="M 3425 4513 
L 3425 3897 
Q 3066 4069 2747 4153 
Q 2428 4238 2131 4238 
Q 1616 4238 1336 4038 
Q 1056 3838 1056 3469 
Q 1056 3159 1242 3001 
Q 1428 2844 1947 2747 
L 2328 2669 
Q 3034 2534 3370 2195 
Q 3706 1856 3706 1288 
Q 3706 609 3251 259 
Q 2797 -91 1919 -91 
Q 1588 -91 1214 -16 
Q 841 59 441 206 
L 441 856 
Q 825 641 1194 531 
Q 1563 422 1919 422 
Q 2459 422 2753 634 
Q 3047 847 3047 1241 
Q 3047 1584 2836 1778 
Q 2625 1972 2144 2069 
L 1759 2144 
Q 1053 2284 737 2584 
Q 422 2884 422 3419 
Q 422 4038 858 4394 
Q 1294 4750 2059 4750 
Q 2388 4750 2728 4690 
Q 3069 4631 3425 4513 
z
" transform="scale(0.015625)"/>
      <path id="DejaVuSans-20" transform="scale(0.015625)"/>
      <path id="DejaVuSans-35" d="M 691 4666 
L 3169 4666 
L 3169 4134 
L 1269 4134 
L 1269 2991 
Q 1406 3038 1543 3061 
Q 1681 3084 1819 3084 
Q 2600 3084 3056 2656 
Q 3513 2228 3513 1497 
Q 3513 744 3044 326 
Q 2575 -91 1722 -91 
Q 1428 -91 1123 -41 
Q 819 9 494 109 
L 494 744 
Q 775 591 1075 516 
Q 1375 441 1709 441 
Q 2250 441 2565 725 
Q 2881 1009 2881 1497 
Q 2881 1984 2565 2268 
Q 2250 2553 1709 2553 
Q 1456 2553 1204 2497 
Q 953 2441 691 2322 
L 691 4666 
z
" transform="scale(0.015625)"/>
     </defs>
     <use xlink:href="#DejaVuSans-53"/>
     <use xlink:href="#DejaVuSans-31" x="63.476562"/>
     <use xlink:href="#DejaVuSans-20" x="127.099609"/>
     <use xlink:href="#DejaVuSans-53" x="158.886719"/>
     <use xlink:href="#DejaVuSans-31" x="222.363281"/>
     <use xlink:href="#DejaVuSans-35" x="285.986328"/>
    </g>
   </g>
   <g id="legend_1">
    <g id="patch_7">
     <path d="M 110.819063 304.584 
L 410.52 304.584 
Q 411.72 304.584 411.72 303.384 
L 411.72 286.37025 
Q 411.72 285.17025 410.52 285.17025 
L 110.819063 285.17025 
Q 109.619063 285.17025 109.619063 286.37025 
L 109.619063 303.384 
Q 109.619063 304.584 110.819063 304.584 
z
" style="fill: #ffffff; opacity: 0.8; stroke: #cccccc; stroke-linejoin: miter"/>
    </g>
    <g id="line2d_18">
     <path d="M 112.019063 290.029312 
L 118.019063 290.029312 
L 124.019063 290.029312 
" style="fill: none; stroke: #1f77b4; stroke-width: 1.5; stroke-linecap: square"/>
    </g>
    <g id="text_18">
     <!-- Execution time between S1 S15 (xx1xx1xx1xx0yyy8xx0yyy8xx0yyy66xx0yyy66xx1xx1) -->
     <g transform="translate(128.819063 292.129312) scale(0.06 -0.06)">
      <defs>
       <path id="DejaVuSans-45" d="M 628 4666 
L 3578 4666 
L 3578 4134 
L 1259 4134 
L 1259 2753 
L 3481 2753 
L 3481 2222 
L 1259 2222 
L 1259 531 
L 3634 531 
L 3634 0 
L 628 0 
L 628 4666 
z
" transform="scale(0.015625)"/>
       <path id="DejaVuSans-78" d="M 3513 3500 
L 2247 1797 
L 3578 0 
L 2900 0 
L 1881 1375 
L 863 0 
L 184 0 
L 1544 1831 
L 300 3500 
L 978 3500 
L 1906 2253 
L 2834 3500 
L 3513 3500 
z
" transform="scale(0.015625)"/>
       <path id="DejaVuSans-63" d="M 3122 3366 
L 3122 2828 
Q 2878 2963 2633 3030 
Q 2388 3097 2138 3097 
Q 1578 3097 1268 2742 
Q 959 2388 959 1747 
Q 959 1106 1268 751 
Q 1578 397 2138 397 
Q 2388 397 2633 464 
Q 2878 531 3122 666 
L 3122 134 
Q 2881 22 2623 -34 
Q 2366 -91 2075 -91 
Q 1284 -91 818 406 
Q 353 903 353 1747 
Q 353 2603 823 3093 
Q 1294 3584 2113 3584 
Q 2378 3584 2631 3529 
Q 2884 3475 3122 3366 
z
" transform="scale(0.015625)"/>
       <path id="DejaVuSans-75" d="M 544 1381 
L 544 3500 
L 1119 3500 
L 1119 1403 
Q 1119 906 1312 657 
Q 1506 409 1894 409 
Q 2359 409 2629 706 
Q 2900 1003 2900 1516 
L 2900 3500 
L 3475 3500 
L 3475 0 
L 2900 0 
L 2900 538 
Q 2691 219 2414 64 
Q 2138 -91 1772 -91 
Q 1169 -91 856 284 
Q 544 659 544 1381 
z
M 1991 3584 
L 1991 3584 
z
" transform="scale(0.015625)"/>
       <path id="DejaVuSans-74" d="M 1172 4494 
L 1172 3500 
L 2356 3500 
L 2356 3053 
L 1172 3053 
L 1172 1153 
Q 1172 725 1289 603 
Q 1406 481 1766 481 
L 2356 481 
L 2356 0 
L 1766 0 
Q 1100 0 847 248 
Q 594 497 594 1153 
L 594 3053 
L 172 3053 
L 172 3500 
L 594 3500 
L 594 4494 
L 1172 4494 
z
" transform="scale(0.015625)"/>
       <path id="DejaVuSans-69" d="M 603 3500 
L 1178 3500 
L 1178 0 
L 603 0 
L 603 3500 
z
M 603 4863 
L 1178 4863 
L 1178 4134 
L 603 4134 
L 603 4863 
z
" transform="scale(0.015625)"/>
       <path id="DejaVuSans-6f" d="M 1959 3097 
Q 1497 3097 1228 2736 
Q 959 2375 959 1747 
Q 959 1119 1226 758 
Q 1494 397 1959 397 
Q 2419 397 2687 759 
Q 2956 1122 2956 1747 
Q 2956 2369 2687 2733 
Q 2419 3097 1959 3097 
z
M 1959 3584 
Q 2709 3584 3137 3096 
Q 3566 2609 3566 1747 
Q 3566 888 3137 398 
Q 2709 -91 1959 -91 
Q 1206 -91 779 398 
Q 353 888 353 1747 
Q 353 2609 779 3096 
Q 1206 3584 1959 3584 
z
" transform="scale(0.015625)"/>
       <path id="DejaVuSans-6e" d="M 3513 2113 
L 3513 0 
L 2938 0 
L 2938 2094 
Q 2938 2591 2744 2837 
Q 2550 3084 2163 3084 
Q 1697 3084 1428 2787 
Q 1159 2491 1159 1978 
L 1159 0 
L 581 0 
L 581 3500 
L 1159 3500 
L 1159 2956 
Q 1366 3272 1645 3428 
Q 1925 3584 2291 3584 
Q 2894 3584 3203 3211 
Q 3513 2838 3513 2113 
z
" transform="scale(0.015625)"/>
       <path id="DejaVuSans-6d" d="M 3328 2828 
Q 3544 3216 3844 3400 
Q 4144 3584 4550 3584 
Q 5097 3584 5394 3201 
Q 5691 2819 5691 2113 
L 5691 0 
L 5113 0 
L 5113 2094 
Q 5113 2597 4934 2840 
Q 4756 3084 4391 3084 
Q 3944 3084 3684 2787 
Q 3425 2491 3425 1978 
L 3425 0 
L 2847 0 
L 2847 2094 
Q 2847 2600 2669 2842 
Q 2491 3084 2119 3084 
Q 1678 3084 1418 2786 
Q 1159 2488 1159 1978 
L 1159 0 
L 581 0 
L 581 3500 
L 1159 3500 
L 1159 2956 
Q 1356 3278 1631 3431 
Q 1906 3584 2284 3584 
Q 2666 3584 2933 3390 
Q 3200 3197 3328 2828 
z
" transform="scale(0.015625)"/>
       <path id="DejaVuSans-62" d="M 3116 1747 
Q 3116 2381 2855 2742 
Q 2594 3103 2138 3103 
Q 1681 3103 1420 2742 
Q 1159 2381 1159 1747 
Q 1159 1113 1420 752 
Q 1681 391 2138 391 
Q 2594 391 2855 752 
Q 3116 1113 3116 1747 
z
M 1159 2969 
Q 1341 3281 1617 3432 
Q 1894 3584 2278 3584 
Q 2916 3584 3314 3078 
Q 3713 2572 3713 1747 
Q 3713 922 3314 415 
Q 2916 -91 2278 -91 
Q 1894 -91 1617 61 
Q 1341 213 1159 525 
L 1159 0 
L 581 0 
L 581 4863 
L 1159 4863 
L 1159 2969 
z
" transform="scale(0.015625)"/>
       <path id="DejaVuSans-77" d="M 269 3500 
L 844 3500 
L 1563 769 
L 2278 3500 
L 2956 3500 
L 3675 769 
L 4391 3500 
L 4966 3500 
L 4050 0 
L 3372 0 
L 2619 2869 
L 1863 0 
L 1184 0 
L 269 3500 
z
" transform="scale(0.015625)"/>
       <path id="DejaVuSans-28" d="M 1984 4856 
Q 1566 4138 1362 3434 
Q 1159 2731 1159 2009 
Q 1159 1288 1364 580 
Q 1569 -128 1984 -844 
L 1484 -844 
Q 1016 -109 783 600 
Q 550 1309 550 2009 
Q 550 2706 781 3412 
Q 1013 4119 1484 4856 
L 1984 4856 
z
" transform="scale(0.015625)"/>
       <path id="DejaVuSans-79" d="M 2059 -325 
Q 1816 -950 1584 -1140 
Q 1353 -1331 966 -1331 
L 506 -1331 
L 506 -850 
L 844 -850 
Q 1081 -850 1212 -737 
Q 1344 -625 1503 -206 
L 1606 56 
L 191 3500 
L 800 3500 
L 1894 763 
L 2988 3500 
L 3597 3500 
L 2059 -325 
z
" transform="scale(0.015625)"/>
       <path id="DejaVuSans-29" d="M 513 4856 
L 1013 4856 
Q 1481 4119 1714 3412 
Q 1947 2706 1947 2009 
Q 1947 1309 1714 600 
Q 1481 -109 1013 -844 
L 513 -844 
Q 928 -128 1133 580 
Q 1338 1288 1338 2009 
Q 1338 2731 1133 3434 
Q 928 4138 513 4856 
z
" transform="scale(0.015625)"/>
      </defs>
      <use xlink:href="#DejaVuSans-45"/>
      <use xlink:href="#DejaVuSans-78" x="63.183594"/>
      <use xlink:href="#DejaVuSans-65" x="119.238281"/>
      <use xlink:href="#DejaVuSans-63" x="180.761719"/>
      <use xlink:href="#DejaVuSans-75" x="235.742188"/>
      <use xlink:href="#DejaVuSans-74" x="299.121094"/>
      <use xlink:href="#DejaVuSans-69" x="338.330078"/>
      <use xlink:href="#DejaVuSans-6f" x="366.113281"/>
      <use xlink:href="#DejaVuSans-6e" x="427.294922"/>
      <use xlink:href="#DejaVuSans-20" x="490.673828"/>
      <use xlink:href="#DejaVuSans-74" x="522.460938"/>
      <use xlink:href="#DejaVuSans-69" x="561.669922"/>
      <use xlink:href="#DejaVuSans-6d" x="589.453125"/>
      <use xlink:href="#DejaVuSans-65" x="686.865234"/>
      <use xlink:href="#DejaVuSans-20" x="748.388672"/>
      <use xlink:href="#DejaVuSans-62" x="780.175781"/>
      <use xlink:href="#DejaVuSans-65" x="843.652344"/>
      <use xlink:href="#DejaVuSans-74" x="905.175781"/>
      <use xlink:href="#DejaVuSans-77" x="944.384766"/>
      <use xlink:href="#DejaVuSans-65" x="1026.171875"/>
      <use xlink:href="#DejaVuSans-65" x="1087.695312"/>
      <use xlink:href="#DejaVuSans-6e" x="1149.21875"/>
      <use xlink:href="#DejaVuSans-20" x="1212.597656"/>
      <use xlink:href="#DejaVuSans-53" x="1244.384766"/>
      <use xlink:href="#DejaVuSans-31" x="1307.861328"/>
      <use xlink:href="#DejaVuSans-20" x="1371.484375"/>
      <use xlink:href="#DejaVuSans-53" x="1403.271484"/>
      <use xlink:href="#DejaVuSans-31" x="1466.748047"/>
      <use xlink:href="#DejaVuSans-35" x="1530.371094"/>
      <use xlink:href="#DejaVuSans-20" x="1593.994141"/>
      <use xlink:href="#DejaVuSans-28" x="1625.78125"/>
      <use xlink:href="#DejaVuSans-78" x="1664.794922"/>
      <use xlink:href="#DejaVuSans-78" x="1723.974609"/>
      <use xlink:href="#DejaVuSans-31" x="1783.154297"/>
      <use xlink:href="#DejaVuSans-78" x="1846.777344"/>
      <use xlink:href="#DejaVuSans-78" x="1905.957031"/>
      <use xlink:href="#DejaVuSans-31" x="1965.136719"/>
      <use xlink:href="#DejaVuSans-78" x="2028.759766"/>
      <use xlink:href="#DejaVuSans-78" x="2087.939453"/>
      <use xlink:href="#DejaVuSans-31" x="2147.119141"/>
      <use xlink:href="#DejaVuSans-78" x="2210.742188"/>
      <use xlink:href="#DejaVuSans-78" x="2269.921875"/>
      <use xlink:href="#DejaVuSans-30" x="2329.101562"/>
      <use xlink:href="#DejaVuSans-79" x="2392.724609"/>
      <use xlink:href="#DejaVuSans-79" x="2451.904297"/>
      <use xlink:href="#DejaVuSans-79" x="2511.083984"/>
      <use xlink:href="#DejaVuSans-38" x="2570.263672"/>
      <use xlink:href="#DejaVuSans-78" x="2633.886719"/>
      <use xlink:href="#DejaVuSans-78" x="2693.066406"/>
      <use xlink:href="#DejaVuSans-30" x="2752.246094"/>
      <use xlink:href="#DejaVuSans-79" x="2815.869141"/>
      <use xlink:href="#DejaVuSans-79" x="2875.048828"/>
      <use xlink:href="#DejaVuSans-79" x="2934.228516"/>
      <use xlink:href="#DejaVuSans-38" x="2993.408203"/>
      <use xlink:href="#DejaVuSans-78" x="3057.03125"/>
      <use xlink:href="#DejaVuSans-78" x="3116.210938"/>
      <use xlink:href="#DejaVuSans-30" x="3175.390625"/>
      <use xlink:href="#DejaVuSans-79" x="3239.013672"/>
      <use xlink:href="#DejaVuSans-79" x="3298.193359"/>
      <use xlink:href="#DejaVuSans-79" x="3357.373047"/>
      <use xlink:href="#DejaVuSans-36" x="3416.552734"/>
      <use xlink:href="#DejaVuSans-36" x="3480.175781"/>
      <use xlink:href="#DejaVuSans-78" x="3543.798828"/>
      <use xlink:href="#DejaVuSans-78" x="3602.978516"/>
      <use xlink:href="#DejaVuSans-30" x="3662.158203"/>
      <use xlink:href="#DejaVuSans-79" x="3725.78125"/>
      <use xlink:href="#DejaVuSans-79" x="3784.960938"/>
      <use xlink:href="#DejaVuSans-79" x="3844.140625"/>
      <use xlink:href="#DejaVuSans-36" x="3903.320312"/>
      <use xlink:href="#DejaVuSans-36" x="3966.943359"/>
      <use xlink:href="#DejaVuSans-78" x="4030.566406"/>
      <use xlink:href="#DejaVuSans-78" x="4089.746094"/>
      <use xlink:href="#DejaVuSans-31" x="4148.925781"/>
      <use xlink:href="#DejaVuSans-78" x="4212.548828"/>
      <use xlink:href="#DejaVuSans-78" x="4271.728516"/>
      <use xlink:href="#DejaVuSans-31" x="4330.908203"/>
      <use xlink:href="#DejaVuSans-29" x="4394.53125"/>
     </g>
    </g>
    <g id="line2d_19">
     <path d="M 112.019063 298.836187 
L 118.019063 298.836187 
L 124.019063 298.836187 
" style="fill: none; stroke: #ff7f0e; stroke-width: 1.5; stroke-linecap: square"/>
    </g>
    <g id="text_19">
     <!-- Execution time between S1 S15 (xx1xx1xx2xx0yyy66xx0yyy66xx1yyy5xx0yyy3xx1xx1yyy5) -->
     <g transform="translate(128.819063 300.936187) scale(0.06 -0.06)">
      <defs>
       <path id="DejaVuSans-33" d="M 2597 2516 
Q 3050 2419 3304 2112 
Q 3559 1806 3559 1356 
Q 3559 666 3084 287 
Q 2609 -91 1734 -91 
Q 1441 -91 1130 -33 
Q 819 25 488 141 
L 488 750 
Q 750 597 1062 519 
Q 1375 441 1716 441 
Q 2309 441 2620 675 
Q 2931 909 2931 1356 
Q 2931 1769 2642 2001 
Q 2353 2234 1838 2234 
L 1294 2234 
L 1294 2753 
L 1863 2753 
Q 2328 2753 2575 2939 
Q 2822 3125 2822 3475 
Q 2822 3834 2567 4026 
Q 2313 4219 1838 4219 
Q 1578 4219 1281 4162 
Q 984 4106 628 3988 
L 628 4550 
Q 988 4650 1302 4700 
Q 1616 4750 1894 4750 
Q 2613 4750 3031 4423 
Q 3450 4097 3450 3541 
Q 3450 3153 3228 2886 
Q 3006 2619 2597 2516 
z
" transform="scale(0.015625)"/>
      </defs>
      <use xlink:href="#DejaVuSans-45"/>
      <use xlink:href="#DejaVuSans-78" x="63.183594"/>
      <use xlink:href="#DejaVuSans-65" x="119.238281"/>
      <use xlink:href="#DejaVuSans-63" x="180.761719"/>
      <use xlink:href="#DejaVuSans-75" x="235.742188"/>
      <use xlink:href="#DejaVuSans-74" x="299.121094"/>
      <use xlink:href="#DejaVuSans-69" x="338.330078"/>
      <use xlink:href="#DejaVuSans-6f" x="366.113281"/>
      <use xlink:href="#DejaVuSans-6e" x="427.294922"/>
      <use xlink:href="#DejaVuSans-20" x="490.673828"/>
      <use xlink:href="#DejaVuSans-74" x="522.460938"/>
      <use xlink:href="#DejaVuSans-69" x="561.669922"/>
      <use xlink:href="#DejaVuSans-6d" x="589.453125"/>
      <use xlink:href="#DejaVuSans-65" x="686.865234"/>
      <use xlink:href="#DejaVuSans-20" x="748.388672"/>
      <use xlink:href="#DejaVuSans-62" x="780.175781"/>
      <use xlink:href="#DejaVuSans-65" x="843.652344"/>
      <use xlink:href="#DejaVuSans-74" x="905.175781"/>
      <use xlink:href="#DejaVuSans-77" x="944.384766"/>
      <use xlink:href="#DejaVuSans-65" x="1026.171875"/>
      <use xlink:href="#DejaVuSans-65" x="1087.695312"/>
      <use xlink:href="#DejaVuSans-6e" x="1149.21875"/>
      <use xlink:href="#DejaVuSans-20" x="1212.597656"/>
      <use xlink:href="#DejaVuSans-53" x="1244.384766"/>
      <use xlink:href="#DejaVuSans-31" x="1307.861328"/>
      <use xlink:href="#DejaVuSans-20" x="1371.484375"/>
      <use xlink:href="#DejaVuSans-53" x="1403.271484"/>
      <use xlink:href="#DejaVuSans-31" x="1466.748047"/>
      <use xlink:href="#DejaVuSans-35" x="1530.371094"/>
      <use xlink:href="#DejaVuSans-20" x="1593.994141"/>
      <use xlink:href="#DejaVuSans-28" x="1625.78125"/>
      <use xlink:href="#DejaVuSans-78" x="1664.794922"/>
      <use xlink:href="#DejaVuSans-78" x="1723.974609"/>
      <use xlink:href="#DejaVuSans-31" x="1783.154297"/>
      <use xlink:href="#DejaVuSans-78" x="1846.777344"/>
      <use xlink:href="#DejaVuSans-78" x="1905.957031"/>
      <use xlink:href="#DejaVuSans-31" x="1965.136719"/>
      <use xlink:href="#DejaVuSans-78" x="2028.759766"/>
      <use xlink:href="#DejaVuSans-78" x="2087.939453"/>
      <use xlink:href="#DejaVuSans-32" x="2147.119141"/>
      <use xlink:href="#DejaVuSans-78" x="2210.742188"/>
      <use xlink:href="#DejaVuSans-78" x="2269.921875"/>
      <use xlink:href="#DejaVuSans-30" x="2329.101562"/>
      <use xlink:href="#DejaVuSans-79" x="2392.724609"/>
      <use xlink:href="#DejaVuSans-79" x="2451.904297"/>
      <use xlink:href="#DejaVuSans-79" x="2511.083984"/>
      <use xlink:href="#DejaVuSans-36" x="2570.263672"/>
      <use xlink:href="#DejaVuSans-36" x="2633.886719"/>
      <use xlink:href="#DejaVuSans-78" x="2697.509766"/>
      <use xlink:href="#DejaVuSans-78" x="2756.689453"/>
      <use xlink:href="#DejaVuSans-30" x="2815.869141"/>
      <use xlink:href="#DejaVuSans-79" x="2879.492188"/>
      <use xlink:href="#DejaVuSans-79" x="2938.671875"/>
      <use xlink:href="#DejaVuSans-79" x="2997.851562"/>
      <use xlink:href="#DejaVuSans-36" x="3057.03125"/>
      <use xlink:href="#DejaVuSans-36" x="3120.654297"/>
      <use xlink:href="#DejaVuSans-78" x="3184.277344"/>
      <use xlink:href="#DejaVuSans-78" x="3243.457031"/>
      <use xlink:href="#DejaVuSans-31" x="3302.636719"/>
      <use xlink:href="#DejaVuSans-79" x="3366.259766"/>
      <use xlink:href="#DejaVuSans-79" x="3425.439453"/>
      <use xlink:href="#DejaVuSans-79" x="3484.619141"/>
      <use xlink:href="#DejaVuSans-35" x="3543.798828"/>
      <use xlink:href="#DejaVuSans-78" x="3607.421875"/>
      <use xlink:href="#DejaVuSans-78" x="3666.601562"/>
      <use xlink:href="#DejaVuSans-30" x="3725.78125"/>
      <use xlink:href="#DejaVuSans-79" x="3789.404297"/>
      <use xlink:href="#DejaVuSans-79" x="3848.583984"/>
      <use xlink:href="#DejaVuSans-79" x="3907.763672"/>
      <use xlink:href="#DejaVuSans-33" x="3966.943359"/>
      <use xlink:href="#DejaVuSans-78" x="4030.566406"/>
      <use xlink:href="#DejaVuSans-78" x="4089.746094"/>
      <use xlink:href="#DejaVuSans-31" x="4148.925781"/>
      <use xlink:href="#DejaVuSans-78" x="4212.548828"/>
      <use xlink:href="#DejaVuSans-78" x="4271.728516"/>
      <use xlink:href="#DejaVuSans-31" x="4330.908203"/>
      <use xlink:href="#DejaVuSans-79" x="4394.53125"/>
      <use xlink:href="#DejaVuSans-79" x="4453.710938"/>
      <use xlink:href="#DejaVuSans-79" x="4512.890625"/>
      <use xlink:href="#DejaVuSans-35" x="4572.070312"/>
      <use xlink:href="#DejaVuSans-29" x="4635.693359"/>
     </g>
    </g>
   </g>
  </g>
 </g>
 <defs>
  <clipPath id="p833c2d92d6">
   <rect x="57.6" y="41.472" width="357.12" height="266.112"/>
  </clipPath>
 </defs>
</svg>
