<?xml version="1.0" encoding="utf-8" standalone="no"?>
<!DOCTYPE svg PUBLIC "-//W3C//DTD SVG 1.1//EN"
  "http://www.w3.org/Graphics/SVG/1.1/DTD/svg11.dtd">
<svg xmlns:xlink="http://www.w3.org/1999/xlink" width="460.8pt" height="345.6pt" viewBox="0 0 460.8 345.6" xmlns="http://www.w3.org/2000/svg" version="1.1">
 <metadata>
  <rdf:RDF xmlns:dc="http://purl.org/dc/elements/1.1/" xmlns:cc="http://creativecommons.org/ns#" xmlns:rdf="http://www.w3.org/1999/02/22-rdf-syntax-ns#">
   <cc:Work>
    <dc:type rdf:resource="http://purl.org/dc/dcmitype/StillImage"/>
    <dc:date>2024-03-08T12:49:55.274528</dc:date>
    <dc:format>image/svg+xml</dc:format>
    <dc:creator>
     <cc:Agent>
      <dc:title>Matplotlib v3.8.2, https://matplotlib.org/</dc:title>
     </cc:Agent>
    </dc:creator>
   </cc:Work>
  </rdf:RDF>
 </metadata>
 <defs>
  <style type="text/css">*{stroke-linejoin: round; stroke-linecap: butt}</style>
 </defs>
 <g id="figure_1">
  <g id="patch_1">
   <path d="M 0 345.6 
L 460.8 345.6 
L 460.8 0 
L 0 0 
z
" style="fill: #ffffff"/>
  </g>
  <g id="axes_1">
   <g id="patch_2">
    <path d="M 57.6 307.584 
L 414.72 307.584 
L 414.72 41.472 
L 57.6 41.472 
z
" style="fill: #ffffff"/>
   </g>
   <g id="matplotlib.axis_1">
    <g id="xtick_1">
     <g id="line2d_1">
      <defs>
       <path id="mb3df237a9f" d="M 0 0 
L 0 3.5 
" style="stroke: #000000; stroke-width: 0.8"/>
      </defs>
      <g>
       <use xlink:href="#mb3df237a9f" x="73.832727" y="307.584" style="stroke: #000000; stroke-width: 0.8"/>
      </g>
     </g>
     <g id="text_1">
      <!-- 0.0 -->
      <g transform="translate(65.881165 322.182437) scale(0.1 -0.1)">
       <defs>
        <path id="DejaVuSans-30" d="M 2034 4250 
Q 1547 4250 1301 3770 
Q 1056 3291 1056 2328 
Q 1056 1369 1301 889 
Q 1547 409 2034 409 
Q 2525 409 2770 889 
Q 3016 1369 3016 2328 
Q 3016 3291 2770 3770 
Q 2525 4250 2034 4250 
z
M 2034 4750 
Q 2819 4750 3233 4129 
Q 3647 3509 3647 2328 
Q 3647 1150 3233 529 
Q 2819 -91 2034 -91 
Q 1250 -91 836 529 
Q 422 1150 422 2328 
Q 422 3509 836 4129 
Q 1250 4750 2034 4750 
z
" transform="scale(0.015625)"/>
        <path id="DejaVuSans-2e" d="M 684 794 
L 1344 794 
L 1344 0 
L 684 0 
L 684 794 
z
" transform="scale(0.015625)"/>
       </defs>
       <use xlink:href="#DejaVuSans-30"/>
       <use xlink:href="#DejaVuSans-2e" x="63.623047"/>
       <use xlink:href="#DejaVuSans-30" x="95.410156"/>
      </g>
     </g>
    </g>
    <g id="xtick_2">
     <g id="line2d_2">
      <g>
       <use xlink:href="#mb3df237a9f" x="135.21396" y="307.584" style="stroke: #000000; stroke-width: 0.8"/>
      </g>
     </g>
     <g id="text_2">
      <!-- 0.2 -->
      <g transform="translate(127.262397 322.182437) scale(0.1 -0.1)">
       <defs>
        <path id="DejaVuSans-32" d="M 1228 531 
L 3431 531 
L 3431 0 
L 469 0 
L 469 531 
Q 828 903 1448 1529 
Q 2069 2156 2228 2338 
Q 2531 2678 2651 2914 
Q 2772 3150 2772 3378 
Q 2772 3750 2511 3984 
Q 2250 4219 1831 4219 
Q 1534 4219 1204 4116 
Q 875 4013 500 3803 
L 500 4441 
Q 881 4594 1212 4672 
Q 1544 4750 1819 4750 
Q 2544 4750 2975 4387 
Q 3406 4025 3406 3419 
Q 3406 3131 3298 2873 
Q 3191 2616 2906 2266 
Q 2828 2175 2409 1742 
Q 1991 1309 1228 531 
z
" transform="scale(0.015625)"/>
       </defs>
       <use xlink:href="#DejaVuSans-30"/>
       <use xlink:href="#DejaVuSans-2e" x="63.623047"/>
       <use xlink:href="#DejaVuSans-32" x="95.410156"/>
      </g>
     </g>
    </g>
    <g id="xtick_3">
     <g id="line2d_3">
      <g>
       <use xlink:href="#mb3df237a9f" x="196.595192" y="307.584" style="stroke: #000000; stroke-width: 0.8"/>
      </g>
     </g>
     <g id="text_3">
      <!-- 0.4 -->
      <g transform="translate(188.64363 322.182437) scale(0.1 -0.1)">
       <defs>
        <path id="DejaVuSans-34" d="M 2419 4116 
L 825 1625 
L 2419 1625 
L 2419 4116 
z
M 2253 4666 
L 3047 4666 
L 3047 1625 
L 3713 1625 
L 3713 1100 
L 3047 1100 
L 3047 0 
L 2419 0 
L 2419 1100 
L 313 1100 
L 313 1709 
L 2253 4666 
z
" transform="scale(0.015625)"/>
       </defs>
       <use xlink:href="#DejaVuSans-30"/>
       <use xlink:href="#DejaVuSans-2e" x="63.623047"/>
       <use xlink:href="#DejaVuSans-34" x="95.410156"/>
      </g>
     </g>
    </g>
    <g id="xtick_4">
     <g id="line2d_4">
      <g>
       <use xlink:href="#mb3df237a9f" x="257.976425" y="307.584" style="stroke: #000000; stroke-width: 0.8"/>
      </g>
     </g>
     <g id="text_4">
      <!-- 0.6 -->
      <g transform="translate(250.024862 322.182437) scale(0.1 -0.1)">
       <defs>
        <path id="DejaVuSans-36" d="M 2113 2584 
Q 1688 2584 1439 2293 
Q 1191 2003 1191 1497 
Q 1191 994 1439 701 
Q 1688 409 2113 409 
Q 2538 409 2786 701 
Q 3034 994 3034 1497 
Q 3034 2003 2786 2293 
Q 2538 2584 2113 2584 
z
M 3366 4563 
L 3366 3988 
Q 3128 4100 2886 4159 
Q 2644 4219 2406 4219 
Q 1781 4219 1451 3797 
Q 1122 3375 1075 2522 
Q 1259 2794 1537 2939 
Q 1816 3084 2150 3084 
Q 2853 3084 3261 2657 
Q 3669 2231 3669 1497 
Q 3669 778 3244 343 
Q 2819 -91 2113 -91 
Q 1303 -91 875 529 
Q 447 1150 447 2328 
Q 447 3434 972 4092 
Q 1497 4750 2381 4750 
Q 2619 4750 2861 4703 
Q 3103 4656 3366 4563 
z
" transform="scale(0.015625)"/>
       </defs>
       <use xlink:href="#DejaVuSans-30"/>
       <use xlink:href="#DejaVuSans-2e" x="63.623047"/>
       <use xlink:href="#DejaVuSans-36" x="95.410156"/>
      </g>
     </g>
    </g>
    <g id="xtick_5">
     <g id="line2d_5">
      <g>
       <use xlink:href="#mb3df237a9f" x="319.357657" y="307.584" style="stroke: #000000; stroke-width: 0.8"/>
      </g>
     </g>
     <g id="text_5">
      <!-- 0.8 -->
      <g transform="translate(311.406094 322.182437) scale(0.1 -0.1)">
       <defs>
        <path id="DejaVuSans-38" d="M 2034 2216 
Q 1584 2216 1326 1975 
Q 1069 1734 1069 1313 
Q 1069 891 1326 650 
Q 1584 409 2034 409 
Q 2484 409 2743 651 
Q 3003 894 3003 1313 
Q 3003 1734 2745 1975 
Q 2488 2216 2034 2216 
z
M 1403 2484 
Q 997 2584 770 2862 
Q 544 3141 544 3541 
Q 544 4100 942 4425 
Q 1341 4750 2034 4750 
Q 2731 4750 3128 4425 
Q 3525 4100 3525 3541 
Q 3525 3141 3298 2862 
Q 3072 2584 2669 2484 
Q 3125 2378 3379 2068 
Q 3634 1759 3634 1313 
Q 3634 634 3220 271 
Q 2806 -91 2034 -91 
Q 1263 -91 848 271 
Q 434 634 434 1313 
Q 434 1759 690 2068 
Q 947 2378 1403 2484 
z
M 1172 3481 
Q 1172 3119 1398 2916 
Q 1625 2713 2034 2713 
Q 2441 2713 2670 2916 
Q 2900 3119 2900 3481 
Q 2900 3844 2670 4047 
Q 2441 4250 2034 4250 
Q 1625 4250 1398 4047 
Q 1172 3844 1172 3481 
z
" transform="scale(0.015625)"/>
       </defs>
       <use xlink:href="#DejaVuSans-30"/>
       <use xlink:href="#DejaVuSans-2e" x="63.623047"/>
       <use xlink:href="#DejaVuSans-38" x="95.410156"/>
      </g>
     </g>
    </g>
    <g id="xtick_6">
     <g id="line2d_6">
      <g>
       <use xlink:href="#mb3df237a9f" x="380.738889" y="307.584" style="stroke: #000000; stroke-width: 0.8"/>
      </g>
     </g>
     <g id="text_6">
      <!-- 1.0 -->
      <g transform="translate(372.787327 322.182437) scale(0.1 -0.1)">
       <defs>
        <path id="DejaVuSans-31" d="M 794 531 
L 1825 531 
L 1825 4091 
L 703 3866 
L 703 4441 
L 1819 4666 
L 2450 4666 
L 2450 531 
L 3481 531 
L 3481 0 
L 794 0 
L 794 531 
z
" transform="scale(0.015625)"/>
       </defs>
       <use xlink:href="#DejaVuSans-31"/>
       <use xlink:href="#DejaVuSans-2e" x="63.623047"/>
       <use xlink:href="#DejaVuSans-30" x="95.410156"/>
      </g>
     </g>
    </g>
    <g id="text_7">
     <!-- 1e6 -->
     <g transform="translate(395.841875 334.860562) scale(0.1 -0.1)">
      <defs>
       <path id="DejaVuSans-65" d="M 3597 1894 
L 3597 1613 
L 953 1613 
Q 991 1019 1311 708 
Q 1631 397 2203 397 
Q 2534 397 2845 478 
Q 3156 559 3463 722 
L 3463 178 
Q 3153 47 2828 -22 
Q 2503 -91 2169 -91 
Q 1331 -91 842 396 
Q 353 884 353 1716 
Q 353 2575 817 3079 
Q 1281 3584 2069 3584 
Q 2775 3584 3186 3129 
Q 3597 2675 3597 1894 
z
M 3022 2063 
Q 3016 2534 2758 2815 
Q 2500 3097 2075 3097 
Q 1594 3097 1305 2825 
Q 1016 2553 972 2059 
L 3022 2063 
z
" transform="scale(0.015625)"/>
      </defs>
      <use xlink:href="#DejaVuSans-31"/>
      <use xlink:href="#DejaVuSans-65" x="63.623047"/>
      <use xlink:href="#DejaVuSans-36" x="125.146484"/>
     </g>
    </g>
   </g>
   <g id="matplotlib.axis_2">
    <g id="ytick_1">
     <g id="line2d_7">
      <defs>
       <path id="m8f9b5b7ab4" d="M 0 0 
L -3.5 0 
" style="stroke: #000000; stroke-width: 0.8"/>
      </defs>
      <g>
       <use xlink:href="#m8f9b5b7ab4" x="57.6" y="295.488" style="stroke: #000000; stroke-width: 0.8"/>
      </g>
     </g>
     <g id="text_8">
      <!-- 0.0 -->
      <g transform="translate(34.696875 299.287219) scale(0.1 -0.1)">
       <use xlink:href="#DejaVuSans-30"/>
       <use xlink:href="#DejaVuSans-2e" x="63.623047"/>
       <use xlink:href="#DejaVuSans-30" x="95.410156"/>
      </g>
     </g>
    </g>
    <g id="ytick_2">
     <g id="line2d_8">
      <g>
       <use xlink:href="#m8f9b5b7ab4" x="57.6" y="247.104" style="stroke: #000000; stroke-width: 0.8"/>
      </g>
     </g>
     <g id="text_9">
      <!-- 0.2 -->
      <g transform="translate(34.696875 250.903219) scale(0.1 -0.1)">
       <use xlink:href="#DejaVuSans-30"/>
       <use xlink:href="#DejaVuSans-2e" x="63.623047"/>
       <use xlink:href="#DejaVuSans-32" x="95.410156"/>
      </g>
     </g>
    </g>
    <g id="ytick_3">
     <g id="line2d_9">
      <g>
       <use xlink:href="#m8f9b5b7ab4" x="57.6" y="198.72" style="stroke: #000000; stroke-width: 0.8"/>
      </g>
     </g>
     <g id="text_10">
      <!-- 0.4 -->
      <g transform="translate(34.696875 202.519219) scale(0.1 -0.1)">
       <use xlink:href="#DejaVuSans-30"/>
       <use xlink:href="#DejaVuSans-2e" x="63.623047"/>
       <use xlink:href="#DejaVuSans-34" x="95.410156"/>
      </g>
     </g>
    </g>
    <g id="ytick_4">
     <g id="line2d_10">
      <g>
       <use xlink:href="#m8f9b5b7ab4" x="57.6" y="150.336" style="stroke: #000000; stroke-width: 0.8"/>
      </g>
     </g>
     <g id="text_11">
      <!-- 0.6 -->
      <g transform="translate(34.696875 154.135219) scale(0.1 -0.1)">
       <use xlink:href="#DejaVuSans-30"/>
       <use xlink:href="#DejaVuSans-2e" x="63.623047"/>
       <use xlink:href="#DejaVuSans-36" x="95.410156"/>
      </g>
     </g>
    </g>
    <g id="ytick_5">
     <g id="line2d_11">
      <g>
       <use xlink:href="#m8f9b5b7ab4" x="57.6" y="101.952" style="stroke: #000000; stroke-width: 0.8"/>
      </g>
     </g>
     <g id="text_12">
      <!-- 0.8 -->
      <g transform="translate(34.696875 105.751219) scale(0.1 -0.1)">
       <use xlink:href="#DejaVuSans-30"/>
       <use xlink:href="#DejaVuSans-2e" x="63.623047"/>
       <use xlink:href="#DejaVuSans-38" x="95.410156"/>
      </g>
     </g>
    </g>
    <g id="ytick_6">
     <g id="line2d_12">
      <g>
       <use xlink:href="#m8f9b5b7ab4" x="57.6" y="53.568" style="stroke: #000000; stroke-width: 0.8"/>
      </g>
     </g>
     <g id="text_13">
      <!-- 1.0 -->
      <g transform="translate(34.696875 57.367219) scale(0.1 -0.1)">
       <use xlink:href="#DejaVuSans-31"/>
       <use xlink:href="#DejaVuSans-2e" x="63.623047"/>
       <use xlink:href="#DejaVuSans-30" x="95.410156"/>
      </g>
     </g>
    </g>
   </g>
   <g id="line2d_13">
    <path d="M 73.832727 295.488 
L 118.355604 295.488 
L 118.355604 295.085471 
L 118.748444 295.085471 
L 118.748444 294.682942 
L 119.426707 294.682942 
L 119.426707 294.280413 
L 119.84103 294.280413 
L 119.84103 293.877884 
L 120.482464 293.877884 
L 120.482464 293.475354 
L 120.92134 293.475354 
L 120.92134 293.072825 
L 121.544359 293.072825 
L 121.544359 292.670296 
L 121.992442 292.670296 
L 121.992442 292.267767 
L 122.606255 292.267767 
L 122.606255 291.865238 
L 123.075821 291.865238 
L 123.075821 291.462709 
L 123.689633 291.462709 
L 123.689633 291.06018 
L 124.174545 291.06018 
L 124.174545 290.657651 
L 124.757667 290.657651 
L 124.757667 290.255121 
L 125.2702 290.255121 
L 125.2702 289.852592 
L 125.844115 289.852592 
L 125.844115 289.450063 
L 126.329026 289.450063 
L 126.329026 289.047534 
L 126.915217 289.047534 
L 126.915217 288.645005 
L 127.384783 288.645005 
L 127.384783 288.242476 
L 127.977112 288.242476 
L 127.977112 287.839947 
L 128.44361 287.839947 
L 128.44361 287.437418 
L 129.060491 287.437418 
L 129.060491 287.034889 
L 129.52085 287.034889 
L 129.52085 286.632359 
L 130.107041 286.632359 
L 130.107041 286.22983 
L 130.582746 286.22983 
L 130.582746 285.827301 
L 131.172006 285.827301 
L 131.172006 285.424772 
L 131.64771 285.424772 
L 131.64771 285.022243 
L 132.252315 285.022243 
L 132.252315 284.619714 
L 132.737227 284.619714 
L 132.737227 284.217185 
L 133.332625 284.217185 
L 133.332625 283.814656 
L 133.832882 283.814656 
L 133.832882 283.412126 
L 134.388382 283.412126 
L 134.388382 283.009597 
L 134.925468 283.009597 
L 134.925468 282.607068 
L 135.459485 282.607068 
L 135.459485 282.204539 
L 136.014985 282.204539 
L 136.014985 281.80201 
L 136.545932 281.80201 
L 136.545932 281.399481 
L 137.095294 281.399481 
L 137.095294 280.996952 
L 137.620104 280.996952 
L 137.620104 280.594423 
L 138.184811 280.594423 
L 138.184811 280.191894 
L 138.697345 280.191894 
L 138.697345 279.789364 
L 139.271259 279.789364 
L 139.271259 279.386835 
L 139.771516 279.386835 
L 139.771516 278.984306 
L 140.3485 278.984306 
L 140.3485 278.581777 
L 140.848757 278.581777 
L 140.848757 278.179248 
L 141.416533 278.179248 
L 141.416533 277.776719 
L 141.91679 277.776719 
L 141.91679 277.37419 
L 142.990962 277.37419 
L 142.990962 276.971661 
L 143.546462 276.971661 
L 143.546462 276.569131 
L 144.062064 276.569131 
L 144.062064 276.166602 
L 144.617564 276.166602 
L 144.617564 275.764073 
L 145.117822 275.764073 
L 145.117822 275.361544 
L 145.67946 275.361544 
L 145.67946 274.959015 
L 145.863604 274.959015 
L 145.863604 274.556486 
L 146.185855 274.556486 
L 146.185855 274.153957 
L 146.735217 274.153957 
L 146.735217 273.751428 
L 146.934706 273.751428 
L 146.934706 273.348899 
L 147.266165 273.348899 
L 147.266165 272.946369 
L 147.655936 272.946369 
L 147.655936 272.54384 
L 147.80632 272.54384 
L 147.80632 272.141311 
L 148.002739 272.141311 
L 148.002739 271.738782 
L 148.285093 271.738782 
L 148.355682 270.933724 
L 148.880491 270.933724 
L 148.895836 270.128666 
L 149.095325 270.128666 
L 149.095325 269.726136 
L 149.429853 269.726136 
L 149.497372 268.921078 
L 149.973077 268.921078 
L 149.973077 268.518549 
L 150.114254 268.518549 
L 150.138806 267.713491 
L 150.497887 267.713491 
L 150.497887 267.310962 
L 150.740342 267.310962 
L 150.740342 266.908433 
L 151.065663 266.908433 
L 151.065663 266.505903 
L 151.243669 266.505903 
L 151.338809 265.700845 
L 151.590473 265.700845 
L 151.590473 265.298316 
L 151.937276 265.298316 
L 151.937276 264.895787 
L 152.31784 264.895787 
L 152.31784 264.493258 
L 152.54802 264.493258 
L 152.54802 264.090729 
L 152.679989 264.090729 
L 152.679989 263.6882 
L 153.164901 263.6882 
L 153.229351 262.883141 
L 153.392012 262.883141 
L 153.392012 262.480612 
L 153.778713 262.480612 
L 153.778713 261.675554 
L 153.778713 261.675554 
L 154.309661 261.675554 
L 154.395595 260.870496 
L 154.478459 260.870496 
L 154.478459 260.467967 
L 154.874368 260.467967 
L 154.874368 260.065438 
L 155.0002 260.065438 
L 155.0002 259.662908 
L 155.389971 259.662908 
L 155.389971 259.260379 
L 155.564907 259.260379 
L 155.604805 258.455321 
L 155.923988 258.455321 
L 155.923988 258.052792 
L 156.215548 258.052792 
L 156.215548 257.650263 
L 156.479488 257.650263 
L 156.479488 257.247734 
L 156.645217 257.247734 
L 156.645217 256.845205 
L 156.83243 256.845205 
L 156.83243 256.442676 
L 157.437035 256.442676 
L 157.544452 255.637617 
L 157.737803 255.637617 
L 157.737803 255.235088 
L 158.044709 255.235088 
L 158.069262 254.43003 
L 158.618624 254.43003 
L 158.673867 253.624972 
L 158.805836 253.624972 
L 158.805836 253.222443 
L 159.140364 253.222443 
L 159.140364 252.819913 
L 159.299955 252.819913 
L 159.299955 252.417384 
L 159.683588 252.417384 
L 159.683588 252.014855 
L 159.883077 252.014855 
L 159.913768 251.209797 
L 160.205328 251.209797 
L 160.205328 250.807268 
L 160.509166 250.807268 
L 160.521442 250.00221 
L 160.766967 250.00221 
L 160.766967 249.599681 
L 160.963387 249.599681 
L 160.963387 249.197151 
L 161.144461 249.197151 
L 161.144461 248.794622 
L 161.261086 248.794622 
L 161.270293 247.989564 
L 161.767481 247.989564 
L 161.862622 247.184506 
L 162.025282 247.184506 
L 162.040627 246.379448 
L 162.347533 246.379448 
L 162.387431 245.574389 
L 162.804824 245.574389 
L 162.912241 244.769331 
L 163.001244 244.769331 
L 163.081039 243.964273 
L 163.427843 243.964273 
L 163.427843 243.561744 
L 163.581296 243.561744 
L 163.608918 242.756686 
L 163.70099 242.756686 
L 163.70099 242.354156 
L 164.001758 242.354156 
L 164.001758 241.951627 
L 164.146004 241.951627 
L 164.210454 241.146569 
L 164.3547 241.146569 
L 164.3547 240.74404 
L 164.492808 240.74404 
L 164.492808 240.341511 
L 164.74754 240.341511 
L 164.815059 239.536453 
L 165.085136 239.536453 
L 165.115827 238.731394 
L 165.444217 238.731394 
L 165.444217 238.328865 
L 165.576186 238.328865 
L 165.576186 237.926336 
L 165.855471 237.926336 
L 165.886162 237.121278 
L 166.058029 237.121278 
L 166.058029 236.718749 
L 166.647289 236.718749 
L 166.687187 235.511161 
L 166.932712 235.511161 
L 166.932712 235.108632 
L 167.230411 235.108632 
L 167.291792 234.303574 
L 167.420692 234.303574 
L 167.420692 233.901045 
L 167.718391 233.901045 
L 167.718391 233.498516 
L 167.899466 233.498516 
L 167.982331 232.693458 
L 168.184889 232.693458 
L 168.286168 231.888399 
L 168.531693 231.888399 
L 168.531693 231.48587 
L 168.783356 231.48587 
L 168.783356 231.083341 
L 168.942947 231.083341 
L 169.038088 230.278283 
L 169.142436 230.278283 
L 169.142436 229.875754 
L 169.360339 229.875754 
L 169.360339 229.473225 
L 169.701005 229.473225 
L 169.753179 228.668166 
L 169.866734 228.668166 
L 169.866734 228.265637 
L 170.103052 228.265637 
L 170.103052 227.863108 
L 170.37313 227.863108 
L 170.474409 226.655521 
L 170.986942 226.655521 
L 170.986942 226.252992 
L 171.186431 226.252992 
L 171.22326 225.447933 
L 171.545511 225.447933 
L 171.606892 224.642875 
L 172.008939 224.642875 
L 172.008939 224.240346 
L 172.214567 224.240346 
L 172.232981 223.435288 
L 172.635028 223.435288 
L 172.635028 223.032759 
L 172.76086 223.032759 
L 172.831448 222.2277 
L 173.279531 222.2277 
L 173.279531 221.825171 
L 173.442191 221.825171 
L 173.534263 221.020113 
L 173.724545 221.020113 
L 173.724545 220.617584 
L 174.065211 220.617584 
L 174.065211 220.215055 
L 174.304598 220.215055 
L 174.369048 219.409997 
L 174.68823 219.409997 
L 174.68823 219.007468 
L 174.817131 219.007468 
L 174.817131 218.604938 
L 175.08107 218.604938 
L 175.08107 218.202409 
L 175.31125 218.202409 
L 175.31125 217.79988 
L 175.452427 217.79988 
L 175.452427 217.397351 
L 175.854474 217.397351 
L 175.928131 216.189764 
L 176.526598 216.189764 
L 176.621739 214.982176 
L 176.943991 214.982176 
L 176.943991 214.579647 
L 177.137341 214.579647 
L 177.137341 214.177118 
L 177.392074 214.177118 
L 177.392074 213.774589 
L 177.606908 213.774589 
L 177.606908 213.37206 
L 177.751154 213.37206 
L 177.751154 212.969531 
L 178.0243 212.969531 
L 178.0243 212.567002 
L 178.165477 212.567002 
L 178.165477 212.164473 
L 178.355759 212.164473 
L 178.355759 211.761943 
L 178.656527 211.761943 
L 178.656527 211.359414 
L 178.926604 211.359414 
L 178.966502 210.554356 
L 179.076988 210.554356 
L 179.076988 210.151827 
L 179.580314 210.151827 
L 179.580314 209.749298 
L 179.715353 209.749298 
L 179.749113 208.94424 
L 180.154229 208.94424 
L 180.191058 208.139181 
L 180.482619 208.139181 
L 180.482619 207.736652 
L 180.795663 207.736652 
L 180.80487 206.931594 
L 181.23147 206.931594 
L 181.265229 206.126536 
L 181.397199 206.126536 
L 181.397199 205.724007 
L 181.863696 205.724007 
L 181.863696 205.321478 
L 181.998735 205.321478 
L 182.050909 204.516419 
L 182.311779 204.516419 
L 182.311779 204.11389 
L 182.618685 204.11389 
L 182.618685 203.711361 
L 182.947075 203.711361 
L 182.947075 203.308832 
L 183.235567 203.308832 
L 183.235567 202.906303 
L 183.395158 202.906303 
L 183.395158 202.503774 
L 183.861655 202.503774 
L 183.861655 202.101245 
L 184.036592 202.101245 
L 184.036592 201.698715 
L 184.466261 201.698715 
L 184.475468 200.893657 
L 185.077004 200.893657 
L 185.083142 200.088599 
L 185.518949 200.088599 
L 185.518949 199.68607 
L 185.681609 199.68607 
L 185.681609 199.283541 
L 186.286214 199.283541 
L 186.286214 198.881012 
L 186.590051 198.881012 
L 186.590051 198.478483 
L 186.909234 198.478483 
L 186.909234 198.075953 
L 187.516908 198.075953 
L 187.516908 197.673424 
L 187.664223 197.673424 
L 187.664223 197.270895 
L 188.139927 197.270895 
L 188.139927 196.868366 
L 188.744532 196.868366 
L 188.762947 196.063308 
L 189.385966 196.063308 
L 189.385966 195.660779 
L 189.809497 195.660779 
L 189.809497 195.25825 
L 190.61666 195.25825 
L 190.61666 194.85572 
L 190.902083 194.85572 
L 190.902083 194.453191 
L 191.233541 194.453191 
L 191.233541 194.050662 
L 191.835078 194.050662 
L 191.835078 193.648133 
L 191.973185 193.648133 
L 191.973185 193.245604 
L 192.461166 193.245604 
L 192.461166 192.843075 
L 193.688791 192.843075 
L 193.688791 192.440546 
L 194.308741 192.440546 
L 194.308741 192.038017 
L 194.523576 192.038017 
L 194.523576 191.635488 
L 194.922554 191.635488 
L 194.922554 191.232958 
L 195.527159 191.232958 
L 195.597747 190.4279 
L 195.867825 190.4279 
L 195.867825 190.025371 
L 196.137902 190.025371 
L 196.137902 189.622842 
L 196.665781 189.622842 
L 196.760921 188.817784 
L 196.96348 188.817784 
L 196.96348 188.415255 
L 197.362458 188.415255 
L 197.380872 187.610196 
L 197.749159 187.610196 
L 197.749159 187.207667 
L 197.991615 187.207667 
L 198.049927 186.402609 
L 198.123585 186.402609 
L 198.123585 186.00008 
L 198.608497 186.00008 
L 198.608497 185.597551 
L 198.807986 185.597551 
L 198.900057 184.792493 
L 199.096477 184.792493 
L 199.096477 184.389963 
L 199.222309 184.389963 
L 199.222309 183.987434 
L 199.648908 183.987434 
L 199.648908 183.584905 
L 199.845328 183.584905 
L 199.882157 182.779847 
L 200.155304 182.779847 
L 200.155304 182.377318 
L 200.42845 182.377318 
L 200.477555 181.57226 
L 200.931776 181.57226 
L 200.931776 181.16973 
L 201.088298 181.16973 
L 201.18037 180.364672 
L 201.229475 180.364672 
L 201.229475 179.962143 
L 201.686765 179.962143 
L 201.686765 179.559614 
L 201.938428 179.559614 
L 201.938428 179.157085 
L 202.297509 179.157085 
L 202.312854 178.352027 
L 202.699556 178.352027 
L 202.699556 177.949498 
L 202.902114 177.949498 
L 202.902114 177.546968 
L 203.365542 177.546968 
L 203.454545 176.74191 
L 203.509788 176.74191 
L 203.509788 176.339381 
L 204.1236 176.339381 
L 204.215672 175.534323 
L 204.458128 175.534323 
L 204.458128 175.131794 
L 204.752758 175.131794 
L 204.752758 174.729265 
L 204.992145 174.729265 
L 204.992145 174.326735 
L 205.363501 174.326735 
L 205.363501 173.924206 
L 205.507747 173.924206 
L 205.507747 173.521677 
L 205.756341 173.521677 
L 205.756341 173.119148 
L 205.977313 173.119148 
L 205.977313 172.716619 
L 206.51133 172.716619 
L 206.581919 171.509032 
L 207.189593 171.509032 
L 207.272457 170.703973 
L 207.649952 170.703973 
L 207.649952 170.301444 
L 207.78806 170.301444 
L 207.78806 169.898915 
L 208.039723 169.898915 
L 208.039723 169.496386 
L 208.401872 169.496386 
L 208.401872 169.093857 
L 208.739469 169.093857 
L 208.822334 168.288799 
L 209.018754 168.288799 
L 209.018754 167.88627 
L 209.574254 167.88627 
L 209.62029 167.081211 
L 209.804433 167.081211 
L 209.804433 166.678682 
L 210.24024 166.678682 
L 210.350726 165.873624 
L 210.553284 165.873624 
L 210.553284 165.471095 
L 210.860191 165.471095 
L 210.878605 164.666037 
L 211.114923 164.666037 
L 211.114923 164.263507 
L 211.455588 164.263507 
L 211.455588 163.860978 
L 211.624387 163.860978 
L 211.624387 163.458449 
L 211.934362 163.458449 
L 211.934362 163.05592 
L 212.060194 163.05592 
L 212.060194 162.653391 
L 212.664799 162.653391 
L 212.701627 161.848333 
L 212.993188 161.848333 
L 212.993188 161.445804 
L 213.28168 161.445804 
L 213.28168 161.043275 
L 213.797282 161.043275 
L 213.889354 160.238216 
L 214.076567 160.238216 
L 214.076567 159.835687 
L 214.500098 159.835687 
L 214.500098 159.433158 
L 215.11391 159.433158 
L 215.17836 158.6281 
L 216.255601 158.6281 
L 216.255601 158.225571 
L 217.323634 158.225571 
L 217.323634 157.823042 
L 218.410082 157.823042 
L 218.410082 157.420512 
L 219.502668 157.420512 
L 219.502668 157.017983 
L 220.558425 157.017983 
L 220.558425 156.615454 
L 221.227481 156.615454 
L 221.227481 156.212925 
L 221.614182 156.212925 
L 221.614182 155.810396 
L 221.844362 155.810396 
L 221.844362 155.407867 
L 222.455105 155.407867 
L 222.455105 155.005338 
L 222.660732 155.005338 
L 222.660732 154.602809 
L 223.068918 154.602809 
L 223.068918 154.20028 
L 223.670454 154.20028 
L 223.728766 153.395221 
L 224.796799 153.395221 
L 224.796799 152.992692 
L 225.665344 152.992692 
L 225.665344 152.590163 
L 225.867902 152.590163 
L 225.867902 152.187634 
L 226.751792 152.187634 
L 226.751792 151.785105 
L 226.95435 151.785105 
L 226.95435 151.382576 
L 227.829032 151.382576 
L 227.829032 150.980047 
L 228.043867 150.980047 
L 228.043867 150.577517 
L 228.801925 150.577517 
L 228.903204 149.772459 
L 229.124176 149.772459 
L 229.124176 149.36993 
L 229.581466 149.36993 
L 229.581466 148.967401 
L 229.986583 148.967401 
L 229.986583 148.564872 
L 230.204486 148.564872 
L 230.204486 148.162343 
L 230.342594 148.162343 
L 230.342594 147.759814 
L 231.076099 147.759814 
L 231.088376 146.954755 
L 231.266381 146.954755 
L 231.266381 146.552226 
L 231.846434 146.552226 
L 231.846434 146.149697 
L 232.141064 146.149697 
L 232.141064 145.747168 
L 232.352829 145.747168 
L 232.352829 145.344639 
L 232.622906 145.344639 
L 232.622906 144.94211 
L 233.209097 144.94211 
L 233.209097 144.539581 
L 233.402448 144.539581 
L 233.411655 143.734522 
L 234.151299 143.734522 
L 234.151299 143.331993 
L 234.2802 143.331993 
L 234.2802 142.929464 
L 234.501172 142.929464 
L 234.501172 142.526935 
L 235.369717 142.526935 
L 235.369717 142.124406 
L 235.556929 142.124406 
L 235.556929 141.721877 
L 236.440819 141.721877 
L 236.47151 140.916819 
L 236.637239 140.916819 
L 236.637239 140.51429 
L 237.085322 140.51429 
L 237.085322 140.11176 
L 237.508853 140.11176 
L 237.508853 139.709231 
L 237.705273 139.709231 
L 237.74517 138.904173 
L 238.30374 138.904173 
L 238.30374 138.501644 
L 238.583024 138.501644 
L 238.583024 138.099115 
L 238.813204 138.099115 
L 238.92369 137.294057 
L 239.534433 137.294057 
L 239.534433 136.891527 
L 239.899652 136.891527 
L 239.899652 136.488998 
L 240.145177 136.488998 
L 240.145177 136.086469 
L 240.762058 136.086469 
L 240.762058 135.68394 
L 240.976892 135.68394 
L 240.976892 135.281411 
L 241.366663 135.281411 
L 241.366663 134.878882 
L 241.989683 134.878882 
L 242.038788 134.073824 
L 242.615771 134.073824 
L 242.615771 133.671295 
L 243.088407 133.671295 
L 243.088407 133.268765 
L 243.235722 133.268765 
L 243.235722 132.866236 
L 243.846465 132.866236 
L 243.846465 132.463707 
L 244.147233 132.463707 
L 244.147233 132.061178 
L 244.444932 132.061178 
L 244.444932 131.658649 
L 245.058744 131.658649 
L 245.058744 131.25612 
L 245.230612 131.25612 
L 245.230612 130.853591 
L 245.672556 130.853591 
L 245.672556 130.451062 
L 246.267954 130.451062 
L 246.310921 129.646003 
L 246.449029 129.646003 
L 246.449029 129.243474 
L 246.884836 129.243474 
L 246.884836 128.840945 
L 247.216294 128.840945 
L 247.216294 128.438416 
L 247.372817 128.438416 
L 247.372817 128.035887 
L 247.501717 128.035887 
L 247.501717 127.633358 
L 247.977422 127.633358 
L 247.977422 127.230829 
L 248.127806 127.230829 
L 248.127806 126.8283 
L 248.732411 126.8283 
L 248.732411 126.023241 
L 248.732411 126.023241 
L 249.340085 126.023241 
L 249.340085 125.620712 
L 249.511953 125.620712 
L 249.511953 125.218183 
L 249.960036 125.218183 
L 249.960036 124.815654 
L 250.285356 124.815654 
L 250.285356 124.413125 
L 250.576917 124.413125 
L 250.576917 124.010596 
L 251.061829 124.010596 
L 251.061829 123.608067 
L 251.816818 123.608067 
L 251.816818 123.205537 
L 252.584083 123.205537 
L 252.584083 122.803008 
L 253.369763 122.803008 
L 253.369763 122.400479 
L 254.127821 122.400479 
L 254.127821 121.99795 
L 254.91657 121.99795 
L 254.91657 121.595421 
L 255.683836 121.595421 
L 255.683836 121.192892 
L 256.438825 121.192892 
L 256.438825 120.790363 
L 257.20609 120.790363 
L 257.20609 120.387834 
L 257.982563 120.387834 
L 257.982563 119.985304 
L 265.64294 119.985304 
L 265.64294 119.582775 
L 266.385653 119.582775 
L 266.385653 119.180246 
L 266.701767 119.180246 
L 266.701767 118.777717 
L 267.152919 118.777717 
L 267.152919 118.375188 
L 267.309441 118.375188 
L 267.309441 117.972659 
L 267.90177 117.972659 
L 267.923253 117.167601 
L 268.543204 117.167601 
L 268.543204 116.765072 
L 268.681311 116.765072 
L 268.681311 116.362542 
L 269.153947 116.362542 
L 269.153947 115.960013 
L 269.436301 115.960013 
L 269.436301 115.557484 
L 269.755483 115.557484 
L 269.755483 115.154955 
L 270.363157 115.154955 
L 270.363157 114.752426 
L 270.989246 114.752426 
L 270.989246 114.349897 
L 271.603058 114.349897 
L 271.603058 113.947368 
L 272.210732 113.947368 
L 272.210732 113.544839 
L 272.824545 113.544839 
L 272.824545 113.142309 
L 273.432219 113.142309 
L 273.432219 112.73978 
L 274.0491 112.73978 
L 274.0491 112.337251 
L 274.659844 112.337251 
L 274.659844 111.934722 
L 275.270587 111.934722 
L 275.270587 111.532193 
L 275.865985 111.532193 
L 275.865985 111.129664 
L 276.482866 111.129664 
L 276.482866 110.727135 
L 277.105886 110.727135 
L 277.105886 110.324606 
L 277.716629 110.324606 
L 277.716629 109.922077 
L 278.345787 109.922077 
L 278.345787 109.519547 
L 278.968806 109.519547 
L 278.968806 109.117018 
L 279.579549 109.117018 
L 279.579549 108.714489 
L 280.190293 108.714489 
L 280.190293 108.31196 
L 280.822519 108.31196 
L 280.822519 107.909431 
L 281.439401 107.909431 
L 281.439401 107.506902 
L 282.059351 107.506902 
L 282.059351 107.104373 
L 282.660887 107.104373 
L 282.660887 106.701844 
L 283.277769 106.701844 
L 283.277769 106.299314 
L 283.879305 106.299314 
L 283.879305 105.896785 
L 284.508462 105.896785 
L 284.508462 105.494256 
L 285.125344 105.494256 
L 285.125344 105.091727 
L 285.742225 105.091727 
L 285.742225 104.689198 
L 286.34683 104.689198 
L 286.34683 104.286669 
L 286.963712 104.286669 
L 286.963712 103.88414 
L 287.562179 103.88414 
L 287.562179 103.481611 
L 288.166784 103.481611 
L 288.166784 103.079082 
L 288.789803 103.079082 
L 288.789803 102.676552 
L 289.412823 102.676552 
L 289.412823 102.274023 
L 290.017428 102.274023 
L 290.017428 101.871494 
L 290.640447 101.871494 
L 290.640447 101.468965 
L 291.257329 101.468965 
L 291.257329 101.066436 
L 291.871141 101.066436 
L 291.871141 100.663907 
L 292.484953 100.663907 
L 292.484953 100.261378 
L 293.095697 100.261378 
L 293.095697 99.858849 
L 293.709509 99.858849 
L 293.709509 99.456319 
L 294.32639 99.456319 
L 294.32639 99.05379 
L 294.927926 99.05379 
L 294.927926 98.651261 
L 295.547877 98.651261 
L 295.547877 98.248732 
L 296.167827 98.248732 
L 296.167827 97.846203 
L 296.796985 97.846203 
L 296.796985 97.443674 
L 297.413866 97.443674 
L 297.413866 97.041145 
L 298.027679 97.041145 
L 298.027679 96.638616 
L 298.632284 96.638616 
L 298.632284 96.236087 
L 299.243027 96.236087 
L 299.243027 95.833557 
L 299.371928 95.833557 
L 299.371928 95.431028 
L 299.856839 95.431028 
L 299.856839 95.028499 
L 300.129986 95.028499 
L 300.129986 94.62597 
L 300.470652 94.62597 
L 300.470652 94.223441 
L 300.906458 94.223441 
L 300.906458 93.820912 
L 301.078326 93.820912 
L 301.078326 93.418383 
L 301.686 93.418383 
L 301.686 92.613324 
L 301.686 92.613324 
L 302.444058 92.613324 
L 302.444058 92.210795 
L 303.208255 92.210795 
L 303.208255 91.808266 
L 303.966313 91.808266 
L 303.966313 91.405737 
L 304.159664 91.405737 
L 304.159664 91.003208 
L 304.736647 91.003208 
L 304.767338 90.19815 
L 305.375012 90.19815 
L 305.375012 89.795621 
L 305.494706 89.795621 
L 305.494706 89.393092 
L 305.985755 89.393092 
L 305.985755 88.990562 
L 306.258902 88.990562 
L 306.258902 88.588033 
L 306.596499 88.588033 
L 306.596499 88.185504 
L 307.023098 88.185504 
L 307.023098 87.782975 
L 307.21338 87.782975 
L 307.21338 87.380446 
L 307.787295 87.380446 
L 307.824123 86.575388 
L 308.431798 86.575388 
L 308.431798 86.172859 
L 308.560698 86.172859 
L 308.560698 85.770329 
L 309.042541 85.770329 
L 309.042541 85.3678 
L 309.321825 85.3678 
L 309.321825 84.965271 
L 309.656353 84.965271 
L 309.656353 84.562742 
L 310.260958 84.562742 
L 310.260958 84.160213 
L 310.87784 84.160213 
L 310.87784 83.757684 
L 311.491652 83.757684 
L 311.491652 83.355155 
L 312.102395 83.355155 
L 312.102395 82.952626 
L 312.722346 82.952626 
L 312.722346 82.550097 
L 313.342296 82.550097 
L 313.342296 82.147567 
L 313.946901 82.147567 
L 313.946901 81.745038 
L 314.560714 81.745038 
L 314.560714 81.342509 
L 315.165319 81.342509 
L 315.165319 80.93998 
L 315.779131 80.93998 
L 315.779131 80.537451 
L 316.402151 80.537451 
L 316.402151 80.134922 
L 317.012894 80.134922 
L 317.012894 79.732393 
L 317.617499 79.732393 
L 317.617499 79.329864 
L 320.827737 79.329864 
L 320.827737 78.927334 
L 321.601141 78.927334 
L 321.601141 78.524805 
L 322.362268 78.524805 
L 322.362268 78.122276 
L 323.132603 78.122276 
L 323.132603 77.719747 
L 323.896799 77.719747 
L 323.896799 77.317218 
L 324.676341 77.317218 
L 324.676341 76.914689 
L 325.43133 76.914689 
L 325.43133 76.51216 
L 326.210872 76.51216 
L 326.210872 76.109631 
L 326.981206 76.109631 
L 326.981206 75.707101 
L 327.766886 75.707101 
L 327.766886 75.304572 
L 328.521875 75.304572 
L 328.521875 74.902043 
L 329.270726 74.902043 
L 329.270726 74.499514 
L 329.853848 74.499514 
L 329.853848 74.096985 
L 330.047199 74.096985 
L 330.047199 73.694456 
L 330.455384 73.694456 
L 330.455384 73.291927 
L 330.829809 73.291927 
L 330.829809 72.889398 
L 331.066127 72.889398 
L 331.066127 72.486869 
L 331.609351 72.486869 
L 331.67687 71.68181 
L 332.281475 71.68181 
L 332.379685 70.876752 
L 332.898357 70.876752 
L 332.898357 70.474223 
L 333.521376 70.474223 
L 333.521376 70.071694 
L 334.141327 70.071694 
L 334.141327 69.669165 
L 334.739794 69.669165 
L 334.739794 69.266636 
L 335.347468 69.266636 
L 335.347468 68.864106 
L 335.949004 68.864106 
L 335.949004 68.461577 
L 336.565885 68.461577 
L 336.565885 68.059048 
L 337.179698 68.059048 
L 337.179698 67.656519 
L 337.796579 67.656519 
L 337.796579 67.25399 
L 338.413461 67.25399 
L 338.413461 66.851461 
L 339.021135 66.851461 
L 339.021135 66.448932 
L 348.243665 66.448932 
L 348.243665 66.046403 
L 348.860546 66.046403 
L 348.860546 65.643874 
L 349.480497 65.643874 
L 349.480497 65.241344 
L 350.112723 65.241344 
L 350.112723 64.838815 
L 350.726536 64.838815 
L 350.726536 64.436286 
L 351.352624 64.436286 
L 351.352624 64.033757 
L 351.960299 64.033757 
L 351.960299 63.631228 
L 352.583318 63.631228 
L 352.583318 63.228699 
L 353.190992 63.228699 
L 353.190992 62.82617 
L 353.801736 62.82617 
L 353.801736 62.423641 
L 354.424755 62.423641 
L 354.424755 62.021111 
L 355.02936 62.021111 
L 355.02936 61.618582 
L 355.658518 61.618582 
L 355.658518 61.216053 
L 356.269261 61.216053 
L 356.269261 60.813524 
L 356.873866 60.813524 
L 356.873866 60.410995 
L 357.487679 60.410995 
L 357.487679 60.008466 
L 358.095353 60.008466 
L 358.095353 59.605937 
L 358.709165 59.605937 
L 358.709165 59.203408 
L 359.322977 59.203408 
L 359.322977 58.800879 
L 359.924513 58.800879 
L 359.924513 58.398349 
L 360.544464 58.398349 
L 360.544464 57.99582 
L 361.149069 57.99582 
L 361.149069 57.593291 
L 361.759812 57.593291 
L 361.759812 57.190762 
L 362.358279 57.190762 
L 362.358279 56.788233 
L 393.10107 56.788233 
L 393.10107 56.385704 
L 393.889818 56.385704 
L 393.889818 55.983175 
L 394.654015 55.983175 
L 394.654015 55.580646 
L 395.427418 55.580646 
L 395.427418 55.178116 
L 396.194684 55.178116 
L 396.194684 54.775587 
L 396.955811 54.775587 
L 396.955811 54.373058 
L 397.729215 54.373058 
L 397.729215 53.970529 
L 398.487273 53.970529 
L 398.487273 53.568 
L 398.487273 53.568 
" clip-path="url(#p1a0e1abaa7)" style="fill: none; stroke: #1f77b4; stroke-width: 1.5; stroke-linecap: square"/>
   </g>
   <g id="patch_3">
    <path d="M 57.6 307.584 
L 57.6 41.472 
" style="fill: none; stroke: #000000; stroke-width: 0.8; stroke-linejoin: miter; stroke-linecap: square"/>
   </g>
   <g id="patch_4">
    <path d="M 414.72 307.584 
L 414.72 41.472 
" style="fill: none; stroke: #000000; stroke-width: 0.8; stroke-linejoin: miter; stroke-linecap: square"/>
   </g>
   <g id="patch_5">
    <path d="M 57.6 307.584 
L 414.72 307.584 
" style="fill: none; stroke: #000000; stroke-width: 0.8; stroke-linejoin: miter; stroke-linecap: square"/>
   </g>
   <g id="patch_6">
    <path d="M 57.6 41.472 
L 414.72 41.472 
" style="fill: none; stroke: #000000; stroke-width: 0.8; stroke-linejoin: miter; stroke-linecap: square"/>
   </g>
   <g id="text_14">
    <!-- Execution time between S1 S15 -->
    <g transform="translate(140.519063 35.472) scale(0.12 -0.12)">
     <defs>
      <path id="DejaVuSans-45" d="M 628 4666 
L 3578 4666 
L 3578 4134 
L 1259 4134 
L 1259 2753 
L 3481 2753 
L 3481 2222 
L 1259 2222 
L 1259 531 
L 3634 531 
L 3634 0 
L 628 0 
L 628 4666 
z
" transform="scale(0.015625)"/>
      <path id="DejaVuSans-78" d="M 3513 3500 
L 2247 1797 
L 3578 0 
L 2900 0 
L 1881 1375 
L 863 0 
L 184 0 
L 1544 1831 
L 300 3500 
L 978 3500 
L 1906 2253 
L 2834 3500 
L 3513 3500 
z
" transform="scale(0.015625)"/>
      <path id="DejaVuSans-63" d="M 3122 3366 
L 3122 2828 
Q 2878 2963 2633 3030 
Q 2388 3097 2138 3097 
Q 1578 3097 1268 2742 
Q 959 2388 959 1747 
Q 959 1106 1268 751 
Q 1578 397 2138 397 
Q 2388 397 2633 464 
Q 2878 531 3122 666 
L 3122 134 
Q 2881 22 2623 -34 
Q 2366 -91 2075 -91 
Q 1284 -91 818 406 
Q 353 903 353 1747 
Q 353 2603 823 3093 
Q 1294 3584 2113 3584 
Q 2378 3584 2631 3529 
Q 2884 3475 3122 3366 
z
" transform="scale(0.015625)"/>
      <path id="DejaVuSans-75" d="M 544 1381 
L 544 3500 
L 1119 3500 
L 1119 1403 
Q 1119 906 1312 657 
Q 1506 409 1894 409 
Q 2359 409 2629 706 
Q 2900 1003 2900 1516 
L 2900 3500 
L 3475 3500 
L 3475 0 
L 2900 0 
L 2900 538 
Q 2691 219 2414 64 
Q 2138 -91 1772 -91 
Q 1169 -91 856 284 
Q 544 659 544 1381 
z
M 1991 3584 
L 1991 3584 
z
" transform="scale(0.015625)"/>
      <path id="DejaVuSans-74" d="M 1172 4494 
L 1172 3500 
L 2356 3500 
L 2356 3053 
L 1172 3053 
L 1172 1153 
Q 1172 725 1289 603 
Q 1406 481 1766 481 
L 2356 481 
L 2356 0 
L 1766 0 
Q 1100 0 847 248 
Q 594 497 594 1153 
L 594 3053 
L 172 3053 
L 172 3500 
L 594 3500 
L 594 4494 
L 1172 4494 
z
" transform="scale(0.015625)"/>
      <path id="DejaVuSans-69" d="M 603 3500 
L 1178 3500 
L 1178 0 
L 603 0 
L 603 3500 
z
M 603 4863 
L 1178 4863 
L 1178 4134 
L 603 4134 
L 603 4863 
z
" transform="scale(0.015625)"/>
      <path id="DejaVuSans-6f" d="M 1959 3097 
Q 1497 3097 1228 2736 
Q 959 2375 959 1747 
Q 959 1119 1226 758 
Q 1494 397 1959 397 
Q 2419 397 2687 759 
Q 2956 1122 2956 1747 
Q 2956 2369 2687 2733 
Q 2419 3097 1959 3097 
z
M 1959 3584 
Q 2709 3584 3137 3096 
Q 3566 2609 3566 1747 
Q 3566 888 3137 398 
Q 2709 -91 1959 -91 
Q 1206 -91 779 398 
Q 353 888 353 1747 
Q 353 2609 779 3096 
Q 1206 3584 1959 3584 
z
" transform="scale(0.015625)"/>
      <path id="DejaVuSans-6e" d="M 3513 2113 
L 3513 0 
L 2938 0 
L 2938 2094 
Q 2938 2591 2744 2837 
Q 2550 3084 2163 3084 
Q 1697 3084 1428 2787 
Q 1159 2491 1159 1978 
L 1159 0 
L 581 0 
L 581 3500 
L 1159 3500 
L 1159 2956 
Q 1366 3272 1645 3428 
Q 1925 3584 2291 3584 
Q 2894 3584 3203 3211 
Q 3513 2838 3513 2113 
z
" transform="scale(0.015625)"/>
      <path id="DejaVuSans-20" transform="scale(0.015625)"/>
      <path id="DejaVuSans-6d" d="M 3328 2828 
Q 3544 3216 3844 3400 
Q 4144 3584 4550 3584 
Q 5097 3584 5394 3201 
Q 5691 2819 5691 2113 
L 5691 0 
L 5113 0 
L 5113 2094 
Q 5113 2597 4934 2840 
Q 4756 3084 4391 3084 
Q 3944 3084 3684 2787 
Q 3425 2491 3425 1978 
L 3425 0 
L 2847 0 
L 2847 2094 
Q 2847 2600 2669 2842 
Q 2491 3084 2119 3084 
Q 1678 3084 1418 2786 
Q 1159 2488 1159 1978 
L 1159 0 
L 581 0 
L 581 3500 
L 1159 3500 
L 1159 2956 
Q 1356 3278 1631 3431 
Q 1906 3584 2284 3584 
Q 2666 3584 2933 3390 
Q 3200 3197 3328 2828 
z
" transform="scale(0.015625)"/>
      <path id="DejaVuSans-62" d="M 3116 1747 
Q 3116 2381 2855 2742 
Q 2594 3103 2138 3103 
Q 1681 3103 1420 2742 
Q 1159 2381 1159 1747 
Q 1159 1113 1420 752 
Q 1681 391 2138 391 
Q 2594 391 2855 752 
Q 3116 1113 3116 1747 
z
M 1159 2969 
Q 1341 3281 1617 3432 
Q 1894 3584 2278 3584 
Q 2916 3584 3314 3078 
Q 3713 2572 3713 1747 
Q 3713 922 3314 415 
Q 2916 -91 2278 -91 
Q 1894 -91 1617 61 
Q 1341 213 1159 525 
L 1159 0 
L 581 0 
L 581 4863 
L 1159 4863 
L 1159 2969 
z
" transform="scale(0.015625)"/>
      <path id="DejaVuSans-77" d="M 269 3500 
L 844 3500 
L 1563 769 
L 2278 3500 
L 2956 3500 
L 3675 769 
L 4391 3500 
L 4966 3500 
L 4050 0 
L 3372 0 
L 2619 2869 
L 1863 0 
L 1184 0 
L 269 3500 
z
" transform="scale(0.015625)"/>
      <path id="DejaVuSans-53" d="M 3425 4513 
L 3425 3897 
Q 3066 4069 2747 4153 
Q 2428 4238 2131 4238 
Q 1616 4238 1336 4038 
Q 1056 3838 1056 3469 
Q 1056 3159 1242 3001 
Q 1428 2844 1947 2747 
L 2328 2669 
Q 3034 2534 3370 2195 
Q 3706 1856 3706 1288 
Q 3706 609 3251 259 
Q 2797 -91 1919 -91 
Q 1588 -91 1214 -16 
Q 841 59 441 206 
L 441 856 
Q 825 641 1194 531 
Q 1563 422 1919 422 
Q 2459 422 2753 634 
Q 3047 847 3047 1241 
Q 3047 1584 2836 1778 
Q 2625 1972 2144 2069 
L 1759 2144 
Q 1053 2284 737 2584 
Q 422 2884 422 3419 
Q 422 4038 858 4394 
Q 1294 4750 2059 4750 
Q 2388 4750 2728 4690 
Q 3069 4631 3425 4513 
z
" transform="scale(0.015625)"/>
      <path id="DejaVuSans-35" d="M 691 4666 
L 3169 4666 
L 3169 4134 
L 1269 4134 
L 1269 2991 
Q 1406 3038 1543 3061 
Q 1681 3084 1819 3084 
Q 2600 3084 3056 2656 
Q 3513 2228 3513 1497 
Q 3513 744 3044 326 
Q 2575 -91 1722 -91 
Q 1428 -91 1123 -41 
Q 819 9 494 109 
L 494 744 
Q 775 591 1075 516 
Q 1375 441 1709 441 
Q 2250 441 2565 725 
Q 2881 1009 2881 1497 
Q 2881 1984 2565 2268 
Q 2250 2553 1709 2553 
Q 1456 2553 1204 2497 
Q 953 2441 691 2322 
L 691 4666 
z
" transform="scale(0.015625)"/>
     </defs>
     <use xlink:href="#DejaVuSans-45"/>
     <use xlink:href="#DejaVuSans-78" x="63.183594"/>
     <use xlink:href="#DejaVuSans-65" x="119.238281"/>
     <use xlink:href="#DejaVuSans-63" x="180.761719"/>
     <use xlink:href="#DejaVuSans-75" x="235.742188"/>
     <use xlink:href="#DejaVuSans-74" x="299.121094"/>
     <use xlink:href="#DejaVuSans-69" x="338.330078"/>
     <use xlink:href="#DejaVuSans-6f" x="366.113281"/>
     <use xlink:href="#DejaVuSans-6e" x="427.294922"/>
     <use xlink:href="#DejaVuSans-20" x="490.673828"/>
     <use xlink:href="#DejaVuSans-74" x="522.460938"/>
     <use xlink:href="#DejaVuSans-69" x="561.669922"/>
     <use xlink:href="#DejaVuSans-6d" x="589.453125"/>
     <use xlink:href="#DejaVuSans-65" x="686.865234"/>
     <use xlink:href="#DejaVuSans-20" x="748.388672"/>
     <use xlink:href="#DejaVuSans-62" x="780.175781"/>
     <use xlink:href="#DejaVuSans-65" x="843.652344"/>
     <use xlink:href="#DejaVuSans-74" x="905.175781"/>
     <use xlink:href="#DejaVuSans-77" x="944.384766"/>
     <use xlink:href="#DejaVuSans-65" x="1026.171875"/>
     <use xlink:href="#DejaVuSans-65" x="1087.695312"/>
     <use xlink:href="#DejaVuSans-6e" x="1149.21875"/>
     <use xlink:href="#DejaVuSans-20" x="1212.597656"/>
     <use xlink:href="#DejaVuSans-53" x="1244.384766"/>
     <use xlink:href="#DejaVuSans-31" x="1307.861328"/>
     <use xlink:href="#DejaVuSans-20" x="1371.484375"/>
     <use xlink:href="#DejaVuSans-53" x="1403.271484"/>
     <use xlink:href="#DejaVuSans-31" x="1466.748047"/>
     <use xlink:href="#DejaVuSans-35" x="1530.371094"/>
    </g>
   </g>
   <g id="legend_1">
    <g id="patch_7">
     <path d="M 295.679062 304.584 
L 410.52 304.584 
Q 411.72 304.584 411.72 303.384 
L 411.72 295.177125 
Q 411.72 293.977125 410.52 293.977125 
L 295.679062 293.977125 
Q 294.479062 293.977125 294.479062 295.177125 
L 294.479062 303.384 
Q 294.479062 304.584 295.679062 304.584 
z
" style="fill: #ffffff; opacity: 0.8; stroke: #cccccc; stroke-linejoin: miter"/>
    </g>
    <g id="line2d_14">
     <path d="M 296.879062 298.836187 
L 302.879062 298.836187 
L 308.879062 298.836187 
" style="fill: none; stroke: #1f77b4; stroke-width: 1.5; stroke-linecap: square"/>
    </g>
    <g id="text_15">
     <!-- Execution time between S1 S15 -->
     <g transform="translate(313.679062 300.936187) scale(0.06 -0.06)">
      <use xlink:href="#DejaVuSans-45"/>
      <use xlink:href="#DejaVuSans-78" x="63.183594"/>
      <use xlink:href="#DejaVuSans-65" x="119.238281"/>
      <use xlink:href="#DejaVuSans-63" x="180.761719"/>
      <use xlink:href="#DejaVuSans-75" x="235.742188"/>
      <use xlink:href="#DejaVuSans-74" x="299.121094"/>
      <use xlink:href="#DejaVuSans-69" x="338.330078"/>
      <use xlink:href="#DejaVuSans-6f" x="366.113281"/>
      <use xlink:href="#DejaVuSans-6e" x="427.294922"/>
      <use xlink:href="#DejaVuSans-20" x="490.673828"/>
      <use xlink:href="#DejaVuSans-74" x="522.460938"/>
      <use xlink:href="#DejaVuSans-69" x="561.669922"/>
      <use xlink:href="#DejaVuSans-6d" x="589.453125"/>
      <use xlink:href="#DejaVuSans-65" x="686.865234"/>
      <use xlink:href="#DejaVuSans-20" x="748.388672"/>
      <use xlink:href="#DejaVuSans-62" x="780.175781"/>
      <use xlink:href="#DejaVuSans-65" x="843.652344"/>
      <use xlink:href="#DejaVuSans-74" x="905.175781"/>
      <use xlink:href="#DejaVuSans-77" x="944.384766"/>
      <use xlink:href="#DejaVuSans-65" x="1026.171875"/>
      <use xlink:href="#DejaVuSans-65" x="1087.695312"/>
      <use xlink:href="#DejaVuSans-6e" x="1149.21875"/>
      <use xlink:href="#DejaVuSans-20" x="1212.597656"/>
      <use xlink:href="#DejaVuSans-53" x="1244.384766"/>
      <use xlink:href="#DejaVuSans-31" x="1307.861328"/>
      <use xlink:href="#DejaVuSans-20" x="1371.484375"/>
      <use xlink:href="#DejaVuSans-53" x="1403.271484"/>
      <use xlink:href="#DejaVuSans-31" x="1466.748047"/>
      <use xlink:href="#DejaVuSans-35" x="1530.371094"/>
     </g>
    </g>
   </g>
  </g>
 </g>
 <defs>
  <clipPath id="p1a0e1abaa7">
   <rect x="57.6" y="41.472" width="357.12" height="266.112"/>
  </clipPath>
 </defs>
</svg>
