<?xml version="1.0" encoding="utf-8" standalone="no"?>
<!DOCTYPE svg PUBLIC "-//W3C//DTD SVG 1.1//EN"
  "http://www.w3.org/Graphics/SVG/1.1/DTD/svg11.dtd">
<svg xmlns:xlink="http://www.w3.org/1999/xlink" width="460.8pt" height="345.6pt" viewBox="0 0 460.8 345.6" xmlns="http://www.w3.org/2000/svg" version="1.1">
 <metadata>
  <rdf:RDF xmlns:dc="http://purl.org/dc/elements/1.1/" xmlns:cc="http://creativecommons.org/ns#" xmlns:rdf="http://www.w3.org/1999/02/22-rdf-syntax-ns#">
   <cc:Work>
    <dc:type rdf:resource="http://purl.org/dc/dcmitype/StillImage"/>
    <dc:date>2024-03-08T13:39:36.293656</dc:date>
    <dc:format>image/svg+xml</dc:format>
    <dc:creator>
     <cc:Agent>
      <dc:title>Matplotlib v3.8.2, https://matplotlib.org/</dc:title>
     </cc:Agent>
    </dc:creator>
   </cc:Work>
  </rdf:RDF>
 </metadata>
 <defs>
  <style type="text/css">*{stroke-linejoin: round; stroke-linecap: butt}</style>
 </defs>
 <g id="figure_1">
  <g id="patch_1">
   <path d="M 0 345.6 
L 460.8 345.6 
L 460.8 0 
L 0 0 
z
" style="fill: #ffffff"/>
  </g>
  <g id="axes_1">
   <g id="patch_2">
    <path d="M 57.6 307.584 
L 414.72 307.584 
L 414.72 41.472 
L 57.6 41.472 
z
" style="fill: #ffffff"/>
   </g>
   <g id="matplotlib.axis_1">
    <g id="xtick_1">
     <g id="line2d_1">
      <defs>
       <path id="m16526cdc60" d="M 0 0 
L 0 3.5 
" style="stroke: #000000; stroke-width: 0.8"/>
      </defs>
      <g>
       <use xlink:href="#m16526cdc60" x="73.832727" y="307.584" style="stroke: #000000; stroke-width: 0.8"/>
      </g>
     </g>
     <g id="text_1">
      <!-- 0 -->
      <g transform="translate(70.651477 322.182437) scale(0.1 -0.1)">
       <defs>
        <path id="DejaVuSans-30" d="M 2034 4250 
Q 1547 4250 1301 3770 
Q 1056 3291 1056 2328 
Q 1056 1369 1301 889 
Q 1547 409 2034 409 
Q 2525 409 2770 889 
Q 3016 1369 3016 2328 
Q 3016 3291 2770 3770 
Q 2525 4250 2034 4250 
z
M 2034 4750 
Q 2819 4750 3233 4129 
Q 3647 3509 3647 2328 
Q 3647 1150 3233 529 
Q 2819 -91 2034 -91 
Q 1250 -91 836 529 
Q 422 1150 422 2328 
Q 422 3509 836 4129 
Q 1250 4750 2034 4750 
z
" transform="scale(0.015625)"/>
       </defs>
       <use xlink:href="#DejaVuSans-30"/>
      </g>
     </g>
    </g>
    <g id="xtick_2">
     <g id="line2d_2">
      <g>
       <use xlink:href="#m16526cdc60" x="148.252107" y="307.584" style="stroke: #000000; stroke-width: 0.8"/>
      </g>
     </g>
     <g id="text_2">
      <!-- 20000 -->
      <g transform="translate(132.345857 322.182437) scale(0.1 -0.1)">
       <defs>
        <path id="DejaVuSans-32" d="M 1228 531 
L 3431 531 
L 3431 0 
L 469 0 
L 469 531 
Q 828 903 1448 1529 
Q 2069 2156 2228 2338 
Q 2531 2678 2651 2914 
Q 2772 3150 2772 3378 
Q 2772 3750 2511 3984 
Q 2250 4219 1831 4219 
Q 1534 4219 1204 4116 
Q 875 4013 500 3803 
L 500 4441 
Q 881 4594 1212 4672 
Q 1544 4750 1819 4750 
Q 2544 4750 2975 4387 
Q 3406 4025 3406 3419 
Q 3406 3131 3298 2873 
Q 3191 2616 2906 2266 
Q 2828 2175 2409 1742 
Q 1991 1309 1228 531 
z
" transform="scale(0.015625)"/>
       </defs>
       <use xlink:href="#DejaVuSans-32"/>
       <use xlink:href="#DejaVuSans-30" x="63.623047"/>
       <use xlink:href="#DejaVuSans-30" x="127.246094"/>
       <use xlink:href="#DejaVuSans-30" x="190.869141"/>
       <use xlink:href="#DejaVuSans-30" x="254.492188"/>
      </g>
     </g>
    </g>
    <g id="xtick_3">
     <g id="line2d_3">
      <g>
       <use xlink:href="#m16526cdc60" x="222.671487" y="307.584" style="stroke: #000000; stroke-width: 0.8"/>
      </g>
     </g>
     <g id="text_3">
      <!-- 40000 -->
      <g transform="translate(206.765237 322.182437) scale(0.1 -0.1)">
       <defs>
        <path id="DejaVuSans-34" d="M 2419 4116 
L 825 1625 
L 2419 1625 
L 2419 4116 
z
M 2253 4666 
L 3047 4666 
L 3047 1625 
L 3713 1625 
L 3713 1100 
L 3047 1100 
L 3047 0 
L 2419 0 
L 2419 1100 
L 313 1100 
L 313 1709 
L 2253 4666 
z
" transform="scale(0.015625)"/>
       </defs>
       <use xlink:href="#DejaVuSans-34"/>
       <use xlink:href="#DejaVuSans-30" x="63.623047"/>
       <use xlink:href="#DejaVuSans-30" x="127.246094"/>
       <use xlink:href="#DejaVuSans-30" x="190.869141"/>
       <use xlink:href="#DejaVuSans-30" x="254.492188"/>
      </g>
     </g>
    </g>
    <g id="xtick_4">
     <g id="line2d_4">
      <g>
       <use xlink:href="#m16526cdc60" x="297.090867" y="307.584" style="stroke: #000000; stroke-width: 0.8"/>
      </g>
     </g>
     <g id="text_4">
      <!-- 60000 -->
      <g transform="translate(281.184617 322.182437) scale(0.1 -0.1)">
       <defs>
        <path id="DejaVuSans-36" d="M 2113 2584 
Q 1688 2584 1439 2293 
Q 1191 2003 1191 1497 
Q 1191 994 1439 701 
Q 1688 409 2113 409 
Q 2538 409 2786 701 
Q 3034 994 3034 1497 
Q 3034 2003 2786 2293 
Q 2538 2584 2113 2584 
z
M 3366 4563 
L 3366 3988 
Q 3128 4100 2886 4159 
Q 2644 4219 2406 4219 
Q 1781 4219 1451 3797 
Q 1122 3375 1075 2522 
Q 1259 2794 1537 2939 
Q 1816 3084 2150 3084 
Q 2853 3084 3261 2657 
Q 3669 2231 3669 1497 
Q 3669 778 3244 343 
Q 2819 -91 2113 -91 
Q 1303 -91 875 529 
Q 447 1150 447 2328 
Q 447 3434 972 4092 
Q 1497 4750 2381 4750 
Q 2619 4750 2861 4703 
Q 3103 4656 3366 4563 
z
" transform="scale(0.015625)"/>
       </defs>
       <use xlink:href="#DejaVuSans-36"/>
       <use xlink:href="#DejaVuSans-30" x="63.623047"/>
       <use xlink:href="#DejaVuSans-30" x="127.246094"/>
       <use xlink:href="#DejaVuSans-30" x="190.869141"/>
       <use xlink:href="#DejaVuSans-30" x="254.492188"/>
      </g>
     </g>
    </g>
    <g id="xtick_5">
     <g id="line2d_5">
      <g>
       <use xlink:href="#m16526cdc60" x="371.510247" y="307.584" style="stroke: #000000; stroke-width: 0.8"/>
      </g>
     </g>
     <g id="text_5">
      <!-- 80000 -->
      <g transform="translate(355.603997 322.182437) scale(0.1 -0.1)">
       <defs>
        <path id="DejaVuSans-38" d="M 2034 2216 
Q 1584 2216 1326 1975 
Q 1069 1734 1069 1313 
Q 1069 891 1326 650 
Q 1584 409 2034 409 
Q 2484 409 2743 651 
Q 3003 894 3003 1313 
Q 3003 1734 2745 1975 
Q 2488 2216 2034 2216 
z
M 1403 2484 
Q 997 2584 770 2862 
Q 544 3141 544 3541 
Q 544 4100 942 4425 
Q 1341 4750 2034 4750 
Q 2731 4750 3128 4425 
Q 3525 4100 3525 3541 
Q 3525 3141 3298 2862 
Q 3072 2584 2669 2484 
Q 3125 2378 3379 2068 
Q 3634 1759 3634 1313 
Q 3634 634 3220 271 
Q 2806 -91 2034 -91 
Q 1263 -91 848 271 
Q 434 634 434 1313 
Q 434 1759 690 2068 
Q 947 2378 1403 2484 
z
M 1172 3481 
Q 1172 3119 1398 2916 
Q 1625 2713 2034 2713 
Q 2441 2713 2670 2916 
Q 2900 3119 2900 3481 
Q 2900 3844 2670 4047 
Q 2441 4250 2034 4250 
Q 1625 4250 1398 4047 
Q 1172 3844 1172 3481 
z
" transform="scale(0.015625)"/>
       </defs>
       <use xlink:href="#DejaVuSans-38"/>
       <use xlink:href="#DejaVuSans-30" x="63.623047"/>
       <use xlink:href="#DejaVuSans-30" x="127.246094"/>
       <use xlink:href="#DejaVuSans-30" x="190.869141"/>
       <use xlink:href="#DejaVuSans-30" x="254.492188"/>
      </g>
     </g>
    </g>
   </g>
   <g id="matplotlib.axis_2">
    <g id="ytick_1">
     <g id="line2d_6">
      <defs>
       <path id="me0b3a4f4d2" d="M 0 0 
L -3.5 0 
" style="stroke: #000000; stroke-width: 0.8"/>
      </defs>
      <g>
       <use xlink:href="#me0b3a4f4d2" x="57.6" y="295.488" style="stroke: #000000; stroke-width: 0.8"/>
      </g>
     </g>
     <g id="text_6">
      <!-- 0.0 -->
      <g transform="translate(34.696875 299.287219) scale(0.1 -0.1)">
       <defs>
        <path id="DejaVuSans-2e" d="M 684 794 
L 1344 794 
L 1344 0 
L 684 0 
L 684 794 
z
" transform="scale(0.015625)"/>
       </defs>
       <use xlink:href="#DejaVuSans-30"/>
       <use xlink:href="#DejaVuSans-2e" x="63.623047"/>
       <use xlink:href="#DejaVuSans-30" x="95.410156"/>
      </g>
     </g>
    </g>
    <g id="ytick_2">
     <g id="line2d_7">
      <g>
       <use xlink:href="#me0b3a4f4d2" x="57.6" y="247.104" style="stroke: #000000; stroke-width: 0.8"/>
      </g>
     </g>
     <g id="text_7">
      <!-- 0.2 -->
      <g transform="translate(34.696875 250.903219) scale(0.1 -0.1)">
       <use xlink:href="#DejaVuSans-30"/>
       <use xlink:href="#DejaVuSans-2e" x="63.623047"/>
       <use xlink:href="#DejaVuSans-32" x="95.410156"/>
      </g>
     </g>
    </g>
    <g id="ytick_3">
     <g id="line2d_8">
      <g>
       <use xlink:href="#me0b3a4f4d2" x="57.6" y="198.72" style="stroke: #000000; stroke-width: 0.8"/>
      </g>
     </g>
     <g id="text_8">
      <!-- 0.4 -->
      <g transform="translate(34.696875 202.519219) scale(0.1 -0.1)">
       <use xlink:href="#DejaVuSans-30"/>
       <use xlink:href="#DejaVuSans-2e" x="63.623047"/>
       <use xlink:href="#DejaVuSans-34" x="95.410156"/>
      </g>
     </g>
    </g>
    <g id="ytick_4">
     <g id="line2d_9">
      <g>
       <use xlink:href="#me0b3a4f4d2" x="57.6" y="150.336" style="stroke: #000000; stroke-width: 0.8"/>
      </g>
     </g>
     <g id="text_9">
      <!-- 0.6 -->
      <g transform="translate(34.696875 154.135219) scale(0.1 -0.1)">
       <use xlink:href="#DejaVuSans-30"/>
       <use xlink:href="#DejaVuSans-2e" x="63.623047"/>
       <use xlink:href="#DejaVuSans-36" x="95.410156"/>
      </g>
     </g>
    </g>
    <g id="ytick_5">
     <g id="line2d_10">
      <g>
       <use xlink:href="#me0b3a4f4d2" x="57.6" y="101.952" style="stroke: #000000; stroke-width: 0.8"/>
      </g>
     </g>
     <g id="text_10">
      <!-- 0.8 -->
      <g transform="translate(34.696875 105.751219) scale(0.1 -0.1)">
       <use xlink:href="#DejaVuSans-30"/>
       <use xlink:href="#DejaVuSans-2e" x="63.623047"/>
       <use xlink:href="#DejaVuSans-38" x="95.410156"/>
      </g>
     </g>
    </g>
    <g id="ytick_6">
     <g id="line2d_11">
      <g>
       <use xlink:href="#me0b3a4f4d2" x="57.6" y="53.568" style="stroke: #000000; stroke-width: 0.8"/>
      </g>
     </g>
     <g id="text_11">
      <!-- 1.0 -->
      <g transform="translate(34.696875 57.367219) scale(0.1 -0.1)">
       <defs>
        <path id="DejaVuSans-31" d="M 794 531 
L 1825 531 
L 1825 4091 
L 703 3866 
L 703 4441 
L 1819 4666 
L 2450 4666 
L 2450 531 
L 3481 531 
L 3481 0 
L 794 0 
L 794 531 
z
" transform="scale(0.015625)"/>
       </defs>
       <use xlink:href="#DejaVuSans-31"/>
       <use xlink:href="#DejaVuSans-2e" x="63.623047"/>
       <use xlink:href="#DejaVuSans-30" x="95.410156"/>
      </g>
     </g>
    </g>
   </g>
   <g id="line2d_12">
    <path d="M 73.832727 295.488 
L 82.204908 295.488 
L 82.279327 152.586419 
L 82.279327 152.586419 
L 82.316537 152.586419 
L 82.316537 151.236167 
L 82.316537 151.236167 
L 83.023521 151.236167 
L 83.023521 150.786084 
L 83.023521 150.786084 
L 83.321198 150.786084 
L 83.395618 150.110958 
L 83.581666 150.110958 
L 83.581666 149.660874 
L 83.581666 149.660874 
L 83.916553 149.660874 
L 83.916553 149.435833 
L 85.032844 149.435833 
L 85.032844 149.210791 
L 85.777038 149.210791 
L 85.777038 148.985749 
L 86.260764 148.985749 
L 86.260764 148.535665 
L 86.260764 148.535665 
L 86.893328 148.535665 
L 86.893328 148.085581 
L 86.893328 148.085581 
L 87.116587 148.085581 
L 87.116587 147.86054 
L 87.674732 147.86054 
L 87.674732 147.635498 
L 87.89799 147.635498 
L 87.9352 146.73533 
L 87.9352 146.73533 
L 88.828232 146.73533 
L 88.865442 146.060205 
L 88.865442 146.060205 
L 89.014281 146.060205 
L 89.0887 145.385079 
L 89.0887 145.385079 
L 89.386378 145.385079 
L 89.386378 145.160037 
L 89.721265 145.160037 
L 89.721265 144.934995 
L 90.204991 144.934995 
L 90.204991 144.709953 
L 90.800346 144.709953 
L 90.800346 144.484912 
L 90.911975 144.484912 
L 90.986394 144.034828 
L 91.656169 144.034828 
L 91.656169 143.809786 
L 93.665492 143.809786 
L 93.665492 143.359702 
L 93.665492 143.359702 
L 93.92596 143.359702 
L 93.92596 143.13466 
L 94.074799 143.13466 
L 94.074799 142.459535 
L 94.074799 142.459535 
L 94.186428 142.459535 
L 94.186428 142.234493 
L 94.335266 142.234493 
L 94.335266 142.009451 
L 94.893412 142.009451 
L 94.930622 141.109284 
L 95.339928 141.109284 
L 95.414347 140.6592 
L 95.786444 140.6592 
L 95.786444 139.984074 
L 95.786444 139.984074 
L 95.898073 139.984074 
L 95.898073 139.759033 
L 96.009703 139.759033 
L 96.046912 139.308949 
L 96.195751 139.308949 
L 96.195751 139.083907 
L 96.828316 139.083907 
L 96.828316 138.858865 
L 97.051574 138.858865 
L 97.051574 138.408781 
L 97.051574 138.408781 
L 97.46088 138.408781 
L 97.46088 138.18374 
L 97.57251 138.18374 
L 97.57251 137.958698 
L 97.684139 137.958698 
L 97.684139 137.733656 
L 98.614381 137.733656 
L 98.6888 137.05853 
L 98.6888 137.05853 
L 98.800429 137.05853 
L 98.874849 136.608447 
L 99.246946 136.608447 
L 99.246946 136.383405 
L 99.432994 136.383405 
L 99.432994 136.158363 
L 100.102768 136.158363 
L 100.139978 135.258195 
L 100.139978 135.258195 
L 100.474865 135.258195 
L 100.512075 134.358028 
L 100.846962 134.358028 
L 100.846962 133.45786 
L 100.846962 133.45786 
L 101.256269 133.45786 
L 101.256269 132.557693 
L 101.256269 132.557693 
L 101.442317 132.557693 
L 101.479527 131.657526 
L 101.963253 131.657526 
L 102.000463 130.757358 
L 102.000463 130.757358 
L 102.112092 130.757358 
L 102.149301 129.857191 
L 102.149301 129.857191 
L 102.930705 129.857191 
L 102.967915 129.182065 
L 103.52606 129.182065 
L 103.52606 128.957023 
L 104.121415 128.957023 
L 104.121415 128.731981 
L 104.493512 128.731981 
L 104.493512 128.50694 
L 105.274915 128.50694 
L 105.312125 127.606772 
L 105.423754 127.606772 
L 105.423754 127.38173 
L 106.391206 127.38173 
L 106.391206 127.156688 
L 106.614464 127.156688 
L 106.614464 126.931647 
L 106.726093 126.931647 
L 106.726093 126.706605 
L 107.17261 126.706605 
L 107.17261 126.481563 
L 107.321448 126.481563 
L 107.321448 126.256521 
L 107.544706 126.256521 
L 107.619126 125.581395 
L 107.656336 125.581395 
L 107.730755 124.90627 
L 107.842384 124.90627 
L 107.842384 124.681228 
L 108.36332 124.681228 
L 108.400529 124.231144 
L 108.474949 124.231144 
L 108.474949 124.006102 
L 108.772626 124.006102 
L 108.772626 123.78106 
L 108.995884 123.78106 
L 109.033094 123.330977 
L 109.293562 123.330977 
L 109.293562 123.105935 
L 109.591239 123.105935 
L 109.591239 122.880893 
L 109.814498 122.880893 
L 109.814498 122.655851 
L 110.112175 122.655851 
L 110.112175 122.430809 
L 110.595901 122.430809 
L 110.595901 122.205767 
L 110.70753 122.205767 
L 110.74474 121.755684 
L 110.893579 121.755684 
L 110.893579 121.530642 
L 111.451724 121.530642 
L 111.526143 121.080558 
L 111.786611 121.080558 
L 111.786611 120.855516 
L 112.233127 120.855516 
L 112.233127 120.630474 
L 112.493595 120.630474 
L 112.493595 120.405433 
L 113.870354 120.405433 
L 113.870354 120.180391 
L 114.168031 120.180391 
L 114.242451 119.505265 
L 114.242451 119.505265 
L 115.916887 119.505265 
L 115.916887 119.280223 
L 116.251774 119.280223 
L 116.251774 119.055181 
L 116.623871 119.055181 
L 116.623871 118.83014 
L 117.777371 118.83014 
L 117.777371 118.605098 
L 118.447146 118.605098 
L 118.521565 117.479888 
L 118.521565 117.479888 
L 118.558775 117.479888 
L 118.633194 116.804763 
L 118.670404 116.804763 
L 118.707613 115.904595 
L 118.930872 115.904595 
L 118.930872 115.679553 
L 119.07971 115.679553 
L 119.11692 114.779386 
L 119.11692 114.779386 
L 119.302968 114.779386 
L 119.377388 114.329302 
L 119.600646 114.329302 
L 119.600646 114.10426 
L 119.749485 114.10426 
L 119.823904 113.654177 
L 119.861114 113.654177 
L 119.935533 111.178716 
L 119.935533 111.178716 
L 120.084372 111.178716 
L 120.084372 110.278549 
L 120.084372 110.278549 
L 120.196001 110.278549 
L 120.233211 109.828465 
L 120.382049 109.828465 
L 120.419259 109.378381 
L 120.568098 109.378381 
L 120.605308 108.253172 
L 120.605308 108.253172 
L 120.679727 108.253172 
L 120.716937 107.803088 
L 120.828566 107.803088 
L 120.902985 106.452837 
L 120.940195 106.452837 
L 121.014614 106.002753 
L 121.051824 106.002753 
L 121.126243 105.327628 
L 121.163453 105.327628 
L 121.237872 104.877544 
L 121.461131 104.877544 
L 121.49834 104.42746 
L 121.609969 104.42746 
L 121.684389 103.977377 
L 121.870437 103.977377 
L 121.907647 103.302251 
L 121.907647 103.302251 
L 121.982066 103.302251 
L 121.982066 103.077209 
L 122.168115 103.077209 
L 122.168115 102.852167 
L 123.135567 102.852167 
L 123.135567 102.627126 
L 123.247196 102.627126 
L 123.284405 102.177042 
L 123.358825 102.177042 
L 123.358825 101.952 
L 123.470454 101.952 
L 123.507663 101.276874 
L 123.507663 101.276874 
L 123.805341 101.276874 
L 123.805341 101.051833 
L 124.586744 101.051833 
L 124.586744 100.826791 
L 127.228632 100.826791 
L 127.228632 100.601749 
L 127.52631 100.601749 
L 127.52631 100.376707 
L 127.675149 100.376707 
L 127.675149 100.151665 
L 127.786778 100.151665 
L 127.823987 99.701581 
L 128.307713 99.701581 
L 128.307713 99.47654 
L 128.940278 99.47654 
L 128.940278 99.251498 
L 129.610053 99.251498 
L 129.647262 98.801414 
L 130.205408 98.801414 
L 130.279827 98.126288 
L 130.837972 98.126288 
L 130.912392 97.226121 
L 130.912392 97.226121 
L 130.949601 97.226121 
L 130.986811 96.776037 
L 131.358908 96.776037 
L 131.358908 96.325953 
L 131.358908 96.325953 
L 132.400779 96.325953 
L 132.400779 96.100912 
L 132.512408 96.100912 
L 132.512408 95.87587 
L 132.624038 95.87587 
L 132.624038 95.650828 
L 132.847296 95.650828 
L 132.847296 95.425786 
L 132.996134 95.425786 
L 132.996134 95.200744 
L 133.144973 95.200744 
L 133.219393 94.075535 
L 133.368231 94.075535 
L 133.368231 93.625451 
L 133.368231 93.625451 
L 133.47986 93.625451 
L 133.47986 93.400409 
L 133.665909 93.400409 
L 133.665909 93.175367 
L 133.777538 93.175367 
L 133.814748 92.050158 
L 133.814748 92.050158 
L 133.926377 92.050158 
L 133.926377 91.825116 
L 134.075215 91.825116 
L 134.149635 91.149991 
L 134.521732 91.149991 
L 134.521732 90.699907 
L 134.521732 90.699907 
L 134.70778 90.699907 
L 134.74499 89.349656 
L 134.74499 89.349656 
L 134.856619 89.349656 
L 134.856619 89.124614 
L 135.563603 89.124614 
L 135.600813 88.224447 
L 135.600813 88.224447 
L 135.824071 88.224447 
L 135.824071 87.999405 
L 136.382216 87.999405 
L 136.382216 87.549321 
L 136.382216 87.549321 
L 136.531055 87.549321 
L 136.568265 87.099237 
L 136.642684 87.099237 
L 136.679894 86.424112 
L 136.754313 86.424112 
L 136.754313 86.19907 
L 136.903152 86.19907 
L 136.940362 85.523944 
L 136.940362 85.523944 
L 137.16362 85.523944 
L 137.200829 85.07386 
L 137.349668 85.07386 
L 137.386878 84.398735 
L 137.386878 84.398735 
L 137.684555 84.398735 
L 137.684555 84.173693 
L 137.907813 84.173693 
L 137.945023 83.498567 
L 137.945023 83.498567 
L 138.35433 83.498567 
L 138.35433 83.273526 
L 138.465959 83.273526 
L 138.503169 82.5984 
L 138.503169 82.5984 
L 138.689217 82.5984 
L 138.763636 81.923274 
L 138.800846 81.923274 
L 138.838056 81.473191 
L 139.061314 81.473191 
L 139.098524 80.798065 
L 139.321782 80.798065 
L 139.321782 80.573023 
L 141.256686 80.573023 
L 141.293895 80.12294 
L 145.238122 80.12294 
L 145.238122 79.897898 
L 145.424171 79.897898 
L 145.424171 79.672856 
L 146.056736 79.672856 
L 146.056736 79.447814 
L 146.428833 79.447814 
L 146.428833 79.222772 
L 148.214898 79.222772 
L 148.214898 78.99773 
L 148.363736 78.99773 
L 148.363736 78.772688 
L 149.219559 78.772688 
L 149.219559 78.097563 
L 149.219559 78.097563 
L 150.112592 78.097563 
L 150.112592 77.872521 
L 150.410269 77.872521 
L 150.410269 76.972353 
L 150.410269 76.972353 
L 151.861447 76.972353 
L 151.861447 76.297228 
L 151.861447 76.297228 
L 153.238206 76.297228 
L 153.238206 76.072186 
L 153.610303 76.072186 
L 153.610303 75.847144 
L 153.721932 75.847144 
L 153.721932 75.172019 
L 153.721932 75.172019 
L 153.90798 75.172019 
L 153.90798 74.496893 
L 153.90798 74.496893 
L 154.019609 74.496893 
L 154.056819 73.821767 
L 154.056819 73.821767 
L 154.652174 73.821767 
L 154.726593 73.146642 
L 154.763803 73.146642 
L 154.801013 72.471516 
L 154.912642 72.471516 
L 154.987061 71.346307 
L 154.987061 71.346307 
L 155.359158 71.346307 
L 155.396368 70.896223 
L 155.582416 70.896223 
L 155.582416 69.996056 
L 155.582416 69.996056 
L 156.066142 69.996056 
L 156.103352 69.32093 
L 156.103352 69.32093 
L 156.177771 69.32093 
L 156.177771 69.095888 
L 156.401029 69.095888 
L 156.401029 68.195721 
L 156.401029 68.195721 
L 156.624288 68.195721 
L 156.698707 67.520595 
L 156.810336 67.520595 
L 156.810336 66.84547 
L 156.810336 66.84547 
L 157.145223 66.84547 
L 157.145223 66.170344 
L 157.145223 66.170344 
L 157.777788 66.170344 
L 157.777788 65.72026 
L 157.777788 65.72026 
L 158.298724 65.72026 
L 158.373143 65.270177 
L 158.410353 65.270177 
L 158.410353 65.045135 
L 159.228966 65.045135 
L 159.228966 64.820093 
L 159.452224 64.820093 
L 159.489434 64.370009 
L 159.97316 64.370009 
L 159.97316 64.144967 
L 160.308047 64.144967 
L 160.345257 63.469842 
L 160.345257 63.469842 
L 162.466209 63.469842 
L 162.466209 63.2448 
L 166.968581 63.2448 
L 166.968581 63.019758 
L 169.052324 63.019758 
L 169.089534 62.344633 
L 169.461631 62.344633 
L 169.461631 62.119591 
L 171.396535 62.119591 
L 171.396535 61.894549 
L 175.117504 61.894549 
L 175.117504 61.669507 
L 175.973326 61.669507 
L 175.973326 61.444465 
L 176.196585 61.444465 
L 176.271004 60.994381 
L 176.308214 60.994381 
L 176.308214 60.544298 
L 176.308214 60.544298 
L 177.90823 60.544298 
L 177.98265 59.194047 
L 178.689634 59.194047 
L 178.689634 58.518921 
L 178.689634 58.518921 
L 178.838473 58.518921 
L 178.838473 57.843795 
L 178.838473 57.843795 
L 178.950102 57.843795 
L 178.987311 55.818419 
L 178.987311 55.818419 
L 179.433828 55.818419 
L 179.433828 55.143293 
L 179.433828 55.143293 
L 362.728761 55.143293 
L 362.728761 54.918251 
L 363.472954 54.918251 
L 363.472954 54.693209 
L 374.85912 54.693209 
L 374.85912 54.468167 
L 375.268426 54.468167 
L 375.268426 54.243126 
L 386.468543 54.243126 
L 386.468543 54.018084 
L 387.324366 54.018084 
L 387.324366 53.793042 
L 398.487273 53.793042 
L 398.487273 53.568 
L 398.487273 53.568 
" clip-path="url(#pb3f6aabe67)" style="fill: none; stroke: #1f77b4; stroke-width: 1.5; stroke-linecap: square"/>
   </g>
   <g id="patch_3">
    <path d="M 57.6 307.584 
L 57.6 41.472 
" style="fill: none; stroke: #000000; stroke-width: 0.8; stroke-linejoin: miter; stroke-linecap: square"/>
   </g>
   <g id="patch_4">
    <path d="M 414.72 307.584 
L 414.72 41.472 
" style="fill: none; stroke: #000000; stroke-width: 0.8; stroke-linejoin: miter; stroke-linecap: square"/>
   </g>
   <g id="patch_5">
    <path d="M 57.6 307.584 
L 414.72 307.584 
" style="fill: none; stroke: #000000; stroke-width: 0.8; stroke-linejoin: miter; stroke-linecap: square"/>
   </g>
   <g id="patch_6">
    <path d="M 57.6 41.472 
L 414.72 41.472 
" style="fill: none; stroke: #000000; stroke-width: 0.8; stroke-linejoin: miter; stroke-linecap: square"/>
   </g>
   <g id="text_12">
    <!-- Execution time between S5 S6 -->
    <g transform="translate(144.336563 35.472) scale(0.12 -0.12)">
     <defs>
      <path id="DejaVuSans-45" d="M 628 4666 
L 3578 4666 
L 3578 4134 
L 1259 4134 
L 1259 2753 
L 3481 2753 
L 3481 2222 
L 1259 2222 
L 1259 531 
L 3634 531 
L 3634 0 
L 628 0 
L 628 4666 
z
" transform="scale(0.015625)"/>
      <path id="DejaVuSans-78" d="M 3513 3500 
L 2247 1797 
L 3578 0 
L 2900 0 
L 1881 1375 
L 863 0 
L 184 0 
L 1544 1831 
L 300 3500 
L 978 3500 
L 1906 2253 
L 2834 3500 
L 3513 3500 
z
" transform="scale(0.015625)"/>
      <path id="DejaVuSans-65" d="M 3597 1894 
L 3597 1613 
L 953 1613 
Q 991 1019 1311 708 
Q 1631 397 2203 397 
Q 2534 397 2845 478 
Q 3156 559 3463 722 
L 3463 178 
Q 3153 47 2828 -22 
Q 2503 -91 2169 -91 
Q 1331 -91 842 396 
Q 353 884 353 1716 
Q 353 2575 817 3079 
Q 1281 3584 2069 3584 
Q 2775 3584 3186 3129 
Q 3597 2675 3597 1894 
z
M 3022 2063 
Q 3016 2534 2758 2815 
Q 2500 3097 2075 3097 
Q 1594 3097 1305 2825 
Q 1016 2553 972 2059 
L 3022 2063 
z
" transform="scale(0.015625)"/>
      <path id="DejaVuSans-63" d="M 3122 3366 
L 3122 2828 
Q 2878 2963 2633 3030 
Q 2388 3097 2138 3097 
Q 1578 3097 1268 2742 
Q 959 2388 959 1747 
Q 959 1106 1268 751 
Q 1578 397 2138 397 
Q 2388 397 2633 464 
Q 2878 531 3122 666 
L 3122 134 
Q 2881 22 2623 -34 
Q 2366 -91 2075 -91 
Q 1284 -91 818 406 
Q 353 903 353 1747 
Q 353 2603 823 3093 
Q 1294 3584 2113 3584 
Q 2378 3584 2631 3529 
Q 2884 3475 3122 3366 
z
" transform="scale(0.015625)"/>
      <path id="DejaVuSans-75" d="M 544 1381 
L 544 3500 
L 1119 3500 
L 1119 1403 
Q 1119 906 1312 657 
Q 1506 409 1894 409 
Q 2359 409 2629 706 
Q 2900 1003 2900 1516 
L 2900 3500 
L 3475 3500 
L 3475 0 
L 2900 0 
L 2900 538 
Q 2691 219 2414 64 
Q 2138 -91 1772 -91 
Q 1169 -91 856 284 
Q 544 659 544 1381 
z
M 1991 3584 
L 1991 3584 
z
" transform="scale(0.015625)"/>
      <path id="DejaVuSans-74" d="M 1172 4494 
L 1172 3500 
L 2356 3500 
L 2356 3053 
L 1172 3053 
L 1172 1153 
Q 1172 725 1289 603 
Q 1406 481 1766 481 
L 2356 481 
L 2356 0 
L 1766 0 
Q 1100 0 847 248 
Q 594 497 594 1153 
L 594 3053 
L 172 3053 
L 172 3500 
L 594 3500 
L 594 4494 
L 1172 4494 
z
" transform="scale(0.015625)"/>
      <path id="DejaVuSans-69" d="M 603 3500 
L 1178 3500 
L 1178 0 
L 603 0 
L 603 3500 
z
M 603 4863 
L 1178 4863 
L 1178 4134 
L 603 4134 
L 603 4863 
z
" transform="scale(0.015625)"/>
      <path id="DejaVuSans-6f" d="M 1959 3097 
Q 1497 3097 1228 2736 
Q 959 2375 959 1747 
Q 959 1119 1226 758 
Q 1494 397 1959 397 
Q 2419 397 2687 759 
Q 2956 1122 2956 1747 
Q 2956 2369 2687 2733 
Q 2419 3097 1959 3097 
z
M 1959 3584 
Q 2709 3584 3137 3096 
Q 3566 2609 3566 1747 
Q 3566 888 3137 398 
Q 2709 -91 1959 -91 
Q 1206 -91 779 398 
Q 353 888 353 1747 
Q 353 2609 779 3096 
Q 1206 3584 1959 3584 
z
" transform="scale(0.015625)"/>
      <path id="DejaVuSans-6e" d="M 3513 2113 
L 3513 0 
L 2938 0 
L 2938 2094 
Q 2938 2591 2744 2837 
Q 2550 3084 2163 3084 
Q 1697 3084 1428 2787 
Q 1159 2491 1159 1978 
L 1159 0 
L 581 0 
L 581 3500 
L 1159 3500 
L 1159 2956 
Q 1366 3272 1645 3428 
Q 1925 3584 2291 3584 
Q 2894 3584 3203 3211 
Q 3513 2838 3513 2113 
z
" transform="scale(0.015625)"/>
      <path id="DejaVuSans-20" transform="scale(0.015625)"/>
      <path id="DejaVuSans-6d" d="M 3328 2828 
Q 3544 3216 3844 3400 
Q 4144 3584 4550 3584 
Q 5097 3584 5394 3201 
Q 5691 2819 5691 2113 
L 5691 0 
L 5113 0 
L 5113 2094 
Q 5113 2597 4934 2840 
Q 4756 3084 4391 3084 
Q 3944 3084 3684 2787 
Q 3425 2491 3425 1978 
L 3425 0 
L 2847 0 
L 2847 2094 
Q 2847 2600 2669 2842 
Q 2491 3084 2119 3084 
Q 1678 3084 1418 2786 
Q 1159 2488 1159 1978 
L 1159 0 
L 581 0 
L 581 3500 
L 1159 3500 
L 1159 2956 
Q 1356 3278 1631 3431 
Q 1906 3584 2284 3584 
Q 2666 3584 2933 3390 
Q 3200 3197 3328 2828 
z
" transform="scale(0.015625)"/>
      <path id="DejaVuSans-62" d="M 3116 1747 
Q 3116 2381 2855 2742 
Q 2594 3103 2138 3103 
Q 1681 3103 1420 2742 
Q 1159 2381 1159 1747 
Q 1159 1113 1420 752 
Q 1681 391 2138 391 
Q 2594 391 2855 752 
Q 3116 1113 3116 1747 
z
M 1159 2969 
Q 1341 3281 1617 3432 
Q 1894 3584 2278 3584 
Q 2916 3584 3314 3078 
Q 3713 2572 3713 1747 
Q 3713 922 3314 415 
Q 2916 -91 2278 -91 
Q 1894 -91 1617 61 
Q 1341 213 1159 525 
L 1159 0 
L 581 0 
L 581 4863 
L 1159 4863 
L 1159 2969 
z
" transform="scale(0.015625)"/>
      <path id="DejaVuSans-77" d="M 269 3500 
L 844 3500 
L 1563 769 
L 2278 3500 
L 2956 3500 
L 3675 769 
L 4391 3500 
L 4966 3500 
L 4050 0 
L 3372 0 
L 2619 2869 
L 1863 0 
L 1184 0 
L 269 3500 
z
" transform="scale(0.015625)"/>
      <path id="DejaVuSans-53" d="M 3425 4513 
L 3425 3897 
Q 3066 4069 2747 4153 
Q 2428 4238 2131 4238 
Q 1616 4238 1336 4038 
Q 1056 3838 1056 3469 
Q 1056 3159 1242 3001 
Q 1428 2844 1947 2747 
L 2328 2669 
Q 3034 2534 3370 2195 
Q 3706 1856 3706 1288 
Q 3706 609 3251 259 
Q 2797 -91 1919 -91 
Q 1588 -91 1214 -16 
Q 841 59 441 206 
L 441 856 
Q 825 641 1194 531 
Q 1563 422 1919 422 
Q 2459 422 2753 634 
Q 3047 847 3047 1241 
Q 3047 1584 2836 1778 
Q 2625 1972 2144 2069 
L 1759 2144 
Q 1053 2284 737 2584 
Q 422 2884 422 3419 
Q 422 4038 858 4394 
Q 1294 4750 2059 4750 
Q 2388 4750 2728 4690 
Q 3069 4631 3425 4513 
z
" transform="scale(0.015625)"/>
      <path id="DejaVuSans-35" d="M 691 4666 
L 3169 4666 
L 3169 4134 
L 1269 4134 
L 1269 2991 
Q 1406 3038 1543 3061 
Q 1681 3084 1819 3084 
Q 2600 3084 3056 2656 
Q 3513 2228 3513 1497 
Q 3513 744 3044 326 
Q 2575 -91 1722 -91 
Q 1428 -91 1123 -41 
Q 819 9 494 109 
L 494 744 
Q 775 591 1075 516 
Q 1375 441 1709 441 
Q 2250 441 2565 725 
Q 2881 1009 2881 1497 
Q 2881 1984 2565 2268 
Q 2250 2553 1709 2553 
Q 1456 2553 1204 2497 
Q 953 2441 691 2322 
L 691 4666 
z
" transform="scale(0.015625)"/>
     </defs>
     <use xlink:href="#DejaVuSans-45"/>
     <use xlink:href="#DejaVuSans-78" x="63.183594"/>
     <use xlink:href="#DejaVuSans-65" x="119.238281"/>
     <use xlink:href="#DejaVuSans-63" x="180.761719"/>
     <use xlink:href="#DejaVuSans-75" x="235.742188"/>
     <use xlink:href="#DejaVuSans-74" x="299.121094"/>
     <use xlink:href="#DejaVuSans-69" x="338.330078"/>
     <use xlink:href="#DejaVuSans-6f" x="366.113281"/>
     <use xlink:href="#DejaVuSans-6e" x="427.294922"/>
     <use xlink:href="#DejaVuSans-20" x="490.673828"/>
     <use xlink:href="#DejaVuSans-74" x="522.460938"/>
     <use xlink:href="#DejaVuSans-69" x="561.669922"/>
     <use xlink:href="#DejaVuSans-6d" x="589.453125"/>
     <use xlink:href="#DejaVuSans-65" x="686.865234"/>
     <use xlink:href="#DejaVuSans-20" x="748.388672"/>
     <use xlink:href="#DejaVuSans-62" x="780.175781"/>
     <use xlink:href="#DejaVuSans-65" x="843.652344"/>
     <use xlink:href="#DejaVuSans-74" x="905.175781"/>
     <use xlink:href="#DejaVuSans-77" x="944.384766"/>
     <use xlink:href="#DejaVuSans-65" x="1026.171875"/>
     <use xlink:href="#DejaVuSans-65" x="1087.695312"/>
     <use xlink:href="#DejaVuSans-6e" x="1149.21875"/>
     <use xlink:href="#DejaVuSans-20" x="1212.597656"/>
     <use xlink:href="#DejaVuSans-53" x="1244.384766"/>
     <use xlink:href="#DejaVuSans-35" x="1307.861328"/>
     <use xlink:href="#DejaVuSans-20" x="1371.484375"/>
     <use xlink:href="#DejaVuSans-53" x="1403.271484"/>
     <use xlink:href="#DejaVuSans-36" x="1466.748047"/>
    </g>
   </g>
   <g id="legend_1">
    <g id="patch_7">
     <path d="M 299.496562 304.584 
L 410.52 304.584 
Q 411.72 304.584 411.72 303.384 
L 411.72 295.177125 
Q 411.72 293.977125 410.52 293.977125 
L 299.496562 293.977125 
Q 298.296562 293.977125 298.296562 295.177125 
L 298.296562 303.384 
Q 298.296562 304.584 299.496562 304.584 
z
" style="fill: #ffffff; opacity: 0.8; stroke: #cccccc; stroke-linejoin: miter"/>
    </g>
    <g id="line2d_13">
     <path d="M 300.696562 298.836187 
L 306.696562 298.836187 
L 312.696562 298.836187 
" style="fill: none; stroke: #1f77b4; stroke-width: 1.5; stroke-linecap: square"/>
    </g>
    <g id="text_13">
     <!-- Execution time between S5 S6 -->
     <g transform="translate(317.496562 300.936187) scale(0.06 -0.06)">
      <use xlink:href="#DejaVuSans-45"/>
      <use xlink:href="#DejaVuSans-78" x="63.183594"/>
      <use xlink:href="#DejaVuSans-65" x="119.238281"/>
      <use xlink:href="#DejaVuSans-63" x="180.761719"/>
      <use xlink:href="#DejaVuSans-75" x="235.742188"/>
      <use xlink:href="#DejaVuSans-74" x="299.121094"/>
      <use xlink:href="#DejaVuSans-69" x="338.330078"/>
      <use xlink:href="#DejaVuSans-6f" x="366.113281"/>
      <use xlink:href="#DejaVuSans-6e" x="427.294922"/>
      <use xlink:href="#DejaVuSans-20" x="490.673828"/>
      <use xlink:href="#DejaVuSans-74" x="522.460938"/>
      <use xlink:href="#DejaVuSans-69" x="561.669922"/>
      <use xlink:href="#DejaVuSans-6d" x="589.453125"/>
      <use xlink:href="#DejaVuSans-65" x="686.865234"/>
      <use xlink:href="#DejaVuSans-20" x="748.388672"/>
      <use xlink:href="#DejaVuSans-62" x="780.175781"/>
      <use xlink:href="#DejaVuSans-65" x="843.652344"/>
      <use xlink:href="#DejaVuSans-74" x="905.175781"/>
      <use xlink:href="#DejaVuSans-77" x="944.384766"/>
      <use xlink:href="#DejaVuSans-65" x="1026.171875"/>
      <use xlink:href="#DejaVuSans-65" x="1087.695312"/>
      <use xlink:href="#DejaVuSans-6e" x="1149.21875"/>
      <use xlink:href="#DejaVuSans-20" x="1212.597656"/>
      <use xlink:href="#DejaVuSans-53" x="1244.384766"/>
      <use xlink:href="#DejaVuSans-35" x="1307.861328"/>
      <use xlink:href="#DejaVuSans-20" x="1371.484375"/>
      <use xlink:href="#DejaVuSans-53" x="1403.271484"/>
      <use xlink:href="#DejaVuSans-36" x="1466.748047"/>
     </g>
    </g>
   </g>
  </g>
 </g>
 <defs>
  <clipPath id="pb3f6aabe67">
   <rect x="57.6" y="41.472" width="357.12" height="266.112"/>
  </clipPath>
 </defs>
</svg>
