<?xml version="1.0" encoding="utf-8" standalone="no"?>
<!DOCTYPE svg PUBLIC "-//W3C//DTD SVG 1.1//EN"
  "http://www.w3.org/Graphics/SVG/1.1/DTD/svg11.dtd">
<svg xmlns:xlink="http://www.w3.org/1999/xlink" width="460.8pt" height="345.6pt" viewBox="0 0 460.8 345.6" xmlns="http://www.w3.org/2000/svg" version="1.1">
 <metadata>
  <rdf:RDF xmlns:dc="http://purl.org/dc/elements/1.1/" xmlns:cc="http://creativecommons.org/ns#" xmlns:rdf="http://www.w3.org/1999/02/22-rdf-syntax-ns#">
   <cc:Work>
    <dc:type rdf:resource="http://purl.org/dc/dcmitype/StillImage"/>
    <dc:date>2024-03-08T13:39:37.138218</dc:date>
    <dc:format>image/svg+xml</dc:format>
    <dc:creator>
     <cc:Agent>
      <dc:title>Matplotlib v3.8.2, https://matplotlib.org/</dc:title>
     </cc:Agent>
    </dc:creator>
   </cc:Work>
  </rdf:RDF>
 </metadata>
 <defs>
  <style type="text/css">*{stroke-linejoin: round; stroke-linecap: butt}</style>
 </defs>
 <g id="figure_1">
  <g id="patch_1">
   <path d="M 0 345.6 
L 460.8 345.6 
L 460.8 0 
L 0 0 
z
" style="fill: #ffffff"/>
  </g>
  <g id="axes_1">
   <g id="patch_2">
    <path d="M 57.6 307.584 
L 414.72 307.584 
L 414.72 41.472 
L 57.6 41.472 
z
" style="fill: #ffffff"/>
   </g>
   <g id="matplotlib.axis_1">
    <g id="xtick_1">
     <g id="line2d_1">
      <defs>
       <path id="md24f28711d" d="M 0 0 
L 0 3.5 
" style="stroke: #000000; stroke-width: 0.8"/>
      </defs>
      <g>
       <use xlink:href="#md24f28711d" x="73.832727" y="307.584" style="stroke: #000000; stroke-width: 0.8"/>
      </g>
     </g>
     <g id="text_1">
      <!-- 0 -->
      <g transform="translate(70.651477 322.182437) scale(0.1 -0.1)">
       <defs>
        <path id="DejaVuSans-30" d="M 2034 4250 
Q 1547 4250 1301 3770 
Q 1056 3291 1056 2328 
Q 1056 1369 1301 889 
Q 1547 409 2034 409 
Q 2525 409 2770 889 
Q 3016 1369 3016 2328 
Q 3016 3291 2770 3770 
Q 2525 4250 2034 4250 
z
M 2034 4750 
Q 2819 4750 3233 4129 
Q 3647 3509 3647 2328 
Q 3647 1150 3233 529 
Q 2819 -91 2034 -91 
Q 1250 -91 836 529 
Q 422 1150 422 2328 
Q 422 3509 836 4129 
Q 1250 4750 2034 4750 
z
" transform="scale(0.015625)"/>
       </defs>
       <use xlink:href="#DejaVuSans-30"/>
      </g>
     </g>
    </g>
    <g id="xtick_2">
     <g id="line2d_2">
      <g>
       <use xlink:href="#md24f28711d" x="115.745269" y="307.584" style="stroke: #000000; stroke-width: 0.8"/>
      </g>
     </g>
     <g id="text_2">
      <!-- 20000 -->
      <g transform="translate(99.839019 322.182437) scale(0.1 -0.1)">
       <defs>
        <path id="DejaVuSans-32" d="M 1228 531 
L 3431 531 
L 3431 0 
L 469 0 
L 469 531 
Q 828 903 1448 1529 
Q 2069 2156 2228 2338 
Q 2531 2678 2651 2914 
Q 2772 3150 2772 3378 
Q 2772 3750 2511 3984 
Q 2250 4219 1831 4219 
Q 1534 4219 1204 4116 
Q 875 4013 500 3803 
L 500 4441 
Q 881 4594 1212 4672 
Q 1544 4750 1819 4750 
Q 2544 4750 2975 4387 
Q 3406 4025 3406 3419 
Q 3406 3131 3298 2873 
Q 3191 2616 2906 2266 
Q 2828 2175 2409 1742 
Q 1991 1309 1228 531 
z
" transform="scale(0.015625)"/>
       </defs>
       <use xlink:href="#DejaVuSans-32"/>
       <use xlink:href="#DejaVuSans-30" x="63.623047"/>
       <use xlink:href="#DejaVuSans-30" x="127.246094"/>
       <use xlink:href="#DejaVuSans-30" x="190.869141"/>
       <use xlink:href="#DejaVuSans-30" x="254.492188"/>
      </g>
     </g>
    </g>
    <g id="xtick_3">
     <g id="line2d_3">
      <g>
       <use xlink:href="#md24f28711d" x="157.65781" y="307.584" style="stroke: #000000; stroke-width: 0.8"/>
      </g>
     </g>
     <g id="text_3">
      <!-- 40000 -->
      <g transform="translate(141.75156 322.182437) scale(0.1 -0.1)">
       <defs>
        <path id="DejaVuSans-34" d="M 2419 4116 
L 825 1625 
L 2419 1625 
L 2419 4116 
z
M 2253 4666 
L 3047 4666 
L 3047 1625 
L 3713 1625 
L 3713 1100 
L 3047 1100 
L 3047 0 
L 2419 0 
L 2419 1100 
L 313 1100 
L 313 1709 
L 2253 4666 
z
" transform="scale(0.015625)"/>
       </defs>
       <use xlink:href="#DejaVuSans-34"/>
       <use xlink:href="#DejaVuSans-30" x="63.623047"/>
       <use xlink:href="#DejaVuSans-30" x="127.246094"/>
       <use xlink:href="#DejaVuSans-30" x="190.869141"/>
       <use xlink:href="#DejaVuSans-30" x="254.492188"/>
      </g>
     </g>
    </g>
    <g id="xtick_4">
     <g id="line2d_4">
      <g>
       <use xlink:href="#md24f28711d" x="199.570351" y="307.584" style="stroke: #000000; stroke-width: 0.8"/>
      </g>
     </g>
     <g id="text_4">
      <!-- 60000 -->
      <g transform="translate(183.664101 322.182437) scale(0.1 -0.1)">
       <defs>
        <path id="DejaVuSans-36" d="M 2113 2584 
Q 1688 2584 1439 2293 
Q 1191 2003 1191 1497 
Q 1191 994 1439 701 
Q 1688 409 2113 409 
Q 2538 409 2786 701 
Q 3034 994 3034 1497 
Q 3034 2003 2786 2293 
Q 2538 2584 2113 2584 
z
M 3366 4563 
L 3366 3988 
Q 3128 4100 2886 4159 
Q 2644 4219 2406 4219 
Q 1781 4219 1451 3797 
Q 1122 3375 1075 2522 
Q 1259 2794 1537 2939 
Q 1816 3084 2150 3084 
Q 2853 3084 3261 2657 
Q 3669 2231 3669 1497 
Q 3669 778 3244 343 
Q 2819 -91 2113 -91 
Q 1303 -91 875 529 
Q 447 1150 447 2328 
Q 447 3434 972 4092 
Q 1497 4750 2381 4750 
Q 2619 4750 2861 4703 
Q 3103 4656 3366 4563 
z
" transform="scale(0.015625)"/>
       </defs>
       <use xlink:href="#DejaVuSans-36"/>
       <use xlink:href="#DejaVuSans-30" x="63.623047"/>
       <use xlink:href="#DejaVuSans-30" x="127.246094"/>
       <use xlink:href="#DejaVuSans-30" x="190.869141"/>
       <use xlink:href="#DejaVuSans-30" x="254.492188"/>
      </g>
     </g>
    </g>
    <g id="xtick_5">
     <g id="line2d_5">
      <g>
       <use xlink:href="#md24f28711d" x="241.482893" y="307.584" style="stroke: #000000; stroke-width: 0.8"/>
      </g>
     </g>
     <g id="text_5">
      <!-- 80000 -->
      <g transform="translate(225.576643 322.182437) scale(0.1 -0.1)">
       <defs>
        <path id="DejaVuSans-38" d="M 2034 2216 
Q 1584 2216 1326 1975 
Q 1069 1734 1069 1313 
Q 1069 891 1326 650 
Q 1584 409 2034 409 
Q 2484 409 2743 651 
Q 3003 894 3003 1313 
Q 3003 1734 2745 1975 
Q 2488 2216 2034 2216 
z
M 1403 2484 
Q 997 2584 770 2862 
Q 544 3141 544 3541 
Q 544 4100 942 4425 
Q 1341 4750 2034 4750 
Q 2731 4750 3128 4425 
Q 3525 4100 3525 3541 
Q 3525 3141 3298 2862 
Q 3072 2584 2669 2484 
Q 3125 2378 3379 2068 
Q 3634 1759 3634 1313 
Q 3634 634 3220 271 
Q 2806 -91 2034 -91 
Q 1263 -91 848 271 
Q 434 634 434 1313 
Q 434 1759 690 2068 
Q 947 2378 1403 2484 
z
M 1172 3481 
Q 1172 3119 1398 2916 
Q 1625 2713 2034 2713 
Q 2441 2713 2670 2916 
Q 2900 3119 2900 3481 
Q 2900 3844 2670 4047 
Q 2441 4250 2034 4250 
Q 1625 4250 1398 4047 
Q 1172 3844 1172 3481 
z
" transform="scale(0.015625)"/>
       </defs>
       <use xlink:href="#DejaVuSans-38"/>
       <use xlink:href="#DejaVuSans-30" x="63.623047"/>
       <use xlink:href="#DejaVuSans-30" x="127.246094"/>
       <use xlink:href="#DejaVuSans-30" x="190.869141"/>
       <use xlink:href="#DejaVuSans-30" x="254.492188"/>
      </g>
     </g>
    </g>
    <g id="xtick_6">
     <g id="line2d_6">
      <g>
       <use xlink:href="#md24f28711d" x="283.395434" y="307.584" style="stroke: #000000; stroke-width: 0.8"/>
      </g>
     </g>
     <g id="text_6">
      <!-- 100000 -->
      <g transform="translate(264.307934 322.182437) scale(0.1 -0.1)">
       <defs>
        <path id="DejaVuSans-31" d="M 794 531 
L 1825 531 
L 1825 4091 
L 703 3866 
L 703 4441 
L 1819 4666 
L 2450 4666 
L 2450 531 
L 3481 531 
L 3481 0 
L 794 0 
L 794 531 
z
" transform="scale(0.015625)"/>
       </defs>
       <use xlink:href="#DejaVuSans-31"/>
       <use xlink:href="#DejaVuSans-30" x="63.623047"/>
       <use xlink:href="#DejaVuSans-30" x="127.246094"/>
       <use xlink:href="#DejaVuSans-30" x="190.869141"/>
       <use xlink:href="#DejaVuSans-30" x="254.492188"/>
       <use xlink:href="#DejaVuSans-30" x="318.115234"/>
      </g>
     </g>
    </g>
    <g id="xtick_7">
     <g id="line2d_7">
      <g>
       <use xlink:href="#md24f28711d" x="325.307975" y="307.584" style="stroke: #000000; stroke-width: 0.8"/>
      </g>
     </g>
     <g id="text_7">
      <!-- 120000 -->
      <g transform="translate(306.220475 322.182437) scale(0.1 -0.1)">
       <use xlink:href="#DejaVuSans-31"/>
       <use xlink:href="#DejaVuSans-32" x="63.623047"/>
       <use xlink:href="#DejaVuSans-30" x="127.246094"/>
       <use xlink:href="#DejaVuSans-30" x="190.869141"/>
       <use xlink:href="#DejaVuSans-30" x="254.492188"/>
       <use xlink:href="#DejaVuSans-30" x="318.115234"/>
      </g>
     </g>
    </g>
    <g id="xtick_8">
     <g id="line2d_8">
      <g>
       <use xlink:href="#md24f28711d" x="367.220517" y="307.584" style="stroke: #000000; stroke-width: 0.8"/>
      </g>
     </g>
     <g id="text_8">
      <!-- 140000 -->
      <g transform="translate(348.133017 322.182437) scale(0.1 -0.1)">
       <use xlink:href="#DejaVuSans-31"/>
       <use xlink:href="#DejaVuSans-34" x="63.623047"/>
       <use xlink:href="#DejaVuSans-30" x="127.246094"/>
       <use xlink:href="#DejaVuSans-30" x="190.869141"/>
       <use xlink:href="#DejaVuSans-30" x="254.492188"/>
       <use xlink:href="#DejaVuSans-30" x="318.115234"/>
      </g>
     </g>
    </g>
    <g id="xtick_9">
     <g id="line2d_9">
      <g>
       <use xlink:href="#md24f28711d" x="409.133058" y="307.584" style="stroke: #000000; stroke-width: 0.8"/>
      </g>
     </g>
     <g id="text_9">
      <!-- 160000 -->
      <g transform="translate(390.045558 322.182437) scale(0.1 -0.1)">
       <use xlink:href="#DejaVuSans-31"/>
       <use xlink:href="#DejaVuSans-36" x="63.623047"/>
       <use xlink:href="#DejaVuSans-30" x="127.246094"/>
       <use xlink:href="#DejaVuSans-30" x="190.869141"/>
       <use xlink:href="#DejaVuSans-30" x="254.492188"/>
       <use xlink:href="#DejaVuSans-30" x="318.115234"/>
      </g>
     </g>
    </g>
   </g>
   <g id="matplotlib.axis_2">
    <g id="ytick_1">
     <g id="line2d_10">
      <defs>
       <path id="m2a44ab7a6a" d="M 0 0 
L -3.5 0 
" style="stroke: #000000; stroke-width: 0.8"/>
      </defs>
      <g>
       <use xlink:href="#m2a44ab7a6a" x="57.6" y="295.488" style="stroke: #000000; stroke-width: 0.8"/>
      </g>
     </g>
     <g id="text_10">
      <!-- 0.0 -->
      <g transform="translate(34.696875 299.287219) scale(0.1 -0.1)">
       <defs>
        <path id="DejaVuSans-2e" d="M 684 794 
L 1344 794 
L 1344 0 
L 684 0 
L 684 794 
z
" transform="scale(0.015625)"/>
       </defs>
       <use xlink:href="#DejaVuSans-30"/>
       <use xlink:href="#DejaVuSans-2e" x="63.623047"/>
       <use xlink:href="#DejaVuSans-30" x="95.410156"/>
      </g>
     </g>
    </g>
    <g id="ytick_2">
     <g id="line2d_11">
      <g>
       <use xlink:href="#m2a44ab7a6a" x="57.6" y="247.104" style="stroke: #000000; stroke-width: 0.8"/>
      </g>
     </g>
     <g id="text_11">
      <!-- 0.2 -->
      <g transform="translate(34.696875 250.903219) scale(0.1 -0.1)">
       <use xlink:href="#DejaVuSans-30"/>
       <use xlink:href="#DejaVuSans-2e" x="63.623047"/>
       <use xlink:href="#DejaVuSans-32" x="95.410156"/>
      </g>
     </g>
    </g>
    <g id="ytick_3">
     <g id="line2d_12">
      <g>
       <use xlink:href="#m2a44ab7a6a" x="57.6" y="198.72" style="stroke: #000000; stroke-width: 0.8"/>
      </g>
     </g>
     <g id="text_12">
      <!-- 0.4 -->
      <g transform="translate(34.696875 202.519219) scale(0.1 -0.1)">
       <use xlink:href="#DejaVuSans-30"/>
       <use xlink:href="#DejaVuSans-2e" x="63.623047"/>
       <use xlink:href="#DejaVuSans-34" x="95.410156"/>
      </g>
     </g>
    </g>
    <g id="ytick_4">
     <g id="line2d_13">
      <g>
       <use xlink:href="#m2a44ab7a6a" x="57.6" y="150.336" style="stroke: #000000; stroke-width: 0.8"/>
      </g>
     </g>
     <g id="text_13">
      <!-- 0.6 -->
      <g transform="translate(34.696875 154.135219) scale(0.1 -0.1)">
       <use xlink:href="#DejaVuSans-30"/>
       <use xlink:href="#DejaVuSans-2e" x="63.623047"/>
       <use xlink:href="#DejaVuSans-36" x="95.410156"/>
      </g>
     </g>
    </g>
    <g id="ytick_5">
     <g id="line2d_14">
      <g>
       <use xlink:href="#m2a44ab7a6a" x="57.6" y="101.952" style="stroke: #000000; stroke-width: 0.8"/>
      </g>
     </g>
     <g id="text_14">
      <!-- 0.8 -->
      <g transform="translate(34.696875 105.751219) scale(0.1 -0.1)">
       <use xlink:href="#DejaVuSans-30"/>
       <use xlink:href="#DejaVuSans-2e" x="63.623047"/>
       <use xlink:href="#DejaVuSans-38" x="95.410156"/>
      </g>
     </g>
    </g>
    <g id="ytick_6">
     <g id="line2d_15">
      <g>
       <use xlink:href="#m2a44ab7a6a" x="57.6" y="53.568" style="stroke: #000000; stroke-width: 0.8"/>
      </g>
     </g>
     <g id="text_15">
      <!-- 1.0 -->
      <g transform="translate(34.696875 57.367219) scale(0.1 -0.1)">
       <use xlink:href="#DejaVuSans-31"/>
       <use xlink:href="#DejaVuSans-2e" x="63.623047"/>
       <use xlink:href="#DejaVuSans-30" x="95.410156"/>
      </g>
     </g>
    </g>
   </g>
   <g id="line2d_16">
    <path d="M 73.832727 295.488 
L 74.063246 295.488 
L 74.147071 293.575589 
L 74.147071 293.575589 
L 74.335678 293.575589 
L 74.37759 290.706972 
L 74.37759 290.706972 
L 74.482372 290.706972 
L 74.54524 288.794561 
L 74.54524 288.794561 
L 74.691934 288.794561 
L 74.691934 288.316458 
L 74.691934 288.316458 
L 74.985322 288.316458 
L 74.985322 287.360253 
L 74.985322 287.360253 
L 75.425404 287.360253 
L 75.530185 286.404047 
L 75.949311 286.404047 
L 76.054092 284.013534 
L 76.054092 284.013534 
L 76.221742 284.013534 
L 76.326523 282.818277 
L 76.34748 282.818277 
L 76.34748 282.340174 
L 76.34748 282.340174 
L 76.473217 282.340174 
L 76.536086 280.905866 
L 76.536086 280.905866 
L 76.619911 280.905866 
L 76.724693 280.188711 
L 76.745649 280.188711 
L 76.745649 279.710609 
L 76.745649 279.710609 
L 77.01808 279.710609 
L 77.01808 279.232506 
L 77.01808 279.232506 
L 77.269556 279.232506 
L 77.269556 278.754403 
L 77.269556 278.754403 
L 77.395293 278.754403 
L 77.458162 277.798198 
L 77.458162 277.798198 
L 77.772506 277.798198 
L 77.814419 276.841992 
L 77.814419 276.841992 
L 78.107806 276.841992 
L 78.107806 276.363889 
L 78.107806 276.363889 
L 78.338325 276.363889 
L 78.338325 276.124838 
L 80.936903 276.124838 
L 80.936903 275.646735 
L 80.936903 275.646735 
L 82.068542 275.646735 
L 82.068542 274.451478 
L 82.068542 274.451478 
L 83.095399 274.451478 
L 83.116355 273.495273 
L 83.116355 273.495273 
L 83.284005 273.495273 
L 83.284005 273.256221 
L 83.724087 273.256221 
L 83.745043 271.582862 
L 83.745043 271.582862 
L 83.912693 271.582862 
L 83.996519 270.865708 
L 83.996519 270.865708 
L 84.059387 270.865708 
L 84.1013 269.670451 
L 84.227038 269.670451 
L 84.331819 264.650372 
L 84.331819 264.650372 
L 84.352775 264.650372 
L 84.457557 259.630292 
L 84.457557 259.630292 
L 84.478513 259.630292 
L 84.562338 253.654008 
L 84.562338 253.654008 
L 84.60425 253.654008 
L 84.709032 250.785391 
L 84.709032 250.785391 
L 84.729988 250.785391 
L 84.834769 242.896696 
L 84.834769 242.896696 
L 84.855726 242.896696 
L 84.960507 236.442308 
L 84.960507 236.442308 
L 85.00242 236.442308 
L 85.107201 232.139383 
L 85.107201 232.139383 
L 85.149113 232.139383 
L 85.253895 227.597407 
L 85.253895 227.597407 
L 85.274851 227.597407 
L 85.379632 222.099225 
L 85.379632 222.099225 
L 85.400589 222.099225 
L 85.484414 212.53717 
L 85.484414 212.53717 
L 85.568239 212.53717 
L 85.610151 208.234245 
L 85.610151 208.234245 
L 85.693976 208.234245 
L 85.798758 200.584601 
L 85.798758 200.584601 
L 85.819714 200.584601 
L 85.924495 197.237881 
L 85.924495 197.237881 
L 85.966408 197.237881 
L 86.071189 190.305391 
L 86.071189 190.305391 
L 86.155014 190.305391 
L 86.23884 188.39298 
L 86.427446 188.39298 
L 86.532227 185.763415 
L 86.532227 185.763415 
L 92.546677 185.763415 
L 92.546677 185.285312 
L 92.546677 185.285312 
L 92.672415 185.285312 
L 92.735283 184.329107 
L 92.735283 184.329107 
L 92.902934 184.329107 
L 92.965802 182.655747 
L 93.028671 182.655747 
L 93.028671 182.177644 
L 93.028671 182.177644 
L 93.343015 182.177644 
L 93.42684 180.743336 
L 93.594491 180.743336 
L 93.594491 179.548079 
L 93.594491 179.548079 
L 93.971703 179.548079 
L 94.055528 178.591874 
L 94.055528 178.591874 
L 94.307004 178.591874 
L 94.307004 178.113771 
L 94.307004 178.113771 
L 94.432741 178.113771 
L 94.453698 177.157565 
L 94.453698 177.157565 
L 94.558479 177.157565 
L 94.558479 174.288949 
L 94.558479 174.288949 
L 94.684217 174.288949 
L 94.684217 174.049897 
L 95.312905 174.049897 
L 95.312905 171.659383 
L 95.312905 171.659383 
L 95.585336 171.659383 
L 95.585336 170.703178 
L 95.585336 170.703178 
L 95.752986 170.703178 
L 95.857768 169.029818 
L 95.857768 169.029818 
L 95.89968 169.029818 
L 95.89968 168.073613 
L 95.89968 168.073613 
L 96.109243 168.073613 
L 96.151156 166.161202 
L 96.151156 166.161202 
L 96.234981 166.161202 
L 96.234981 165.204996 
L 96.234981 165.204996 
L 96.360718 165.204996 
L 96.402631 163.292585 
L 96.402631 163.292585 
L 96.591237 163.292585 
L 96.591237 162.336379 
L 96.591237 162.336379 
L 96.779844 162.336379 
L 96.8008 160.423968 
L 96.8008 160.423968 
L 96.926538 160.423968 
L 97.010363 158.750609 
L 97.010363 158.750609 
L 97.052275 158.750609 
L 97.052275 157.794403 
L 97.052275 157.794403 
L 97.178013 157.794403 
L 97.178013 157.077249 
L 97.178013 157.077249 
L 97.366619 157.077249 
L 97.429488 154.925787 
L 97.429488 154.925787 
L 97.597138 154.925787 
L 97.597138 153.969581 
L 97.597138 153.969581 
L 97.86957 153.969581 
L 97.86957 152.535273 
L 97.86957 152.535273 
L 97.995307 152.535273 
L 97.995307 151.579067 
L 97.995307 151.579067 
L 98.246783 151.579067 
L 98.351564 149.427605 
L 98.351564 149.427605 
L 98.875471 149.427605 
L 98.896427 148.471399 
L 98.896427 148.471399 
L 99.064077 148.471399 
L 99.126946 147.276142 
L 99.126946 147.276142 
L 99.294596 147.276142 
L 99.336509 146.319937 
L 99.336509 146.319937 
L 99.420334 146.319937 
L 99.44129 145.363731 
L 99.44129 145.363731 
L 100.007109 145.363731 
L 100.007109 144.885628 
L 100.007109 144.885628 
L 100.279541 144.885628 
L 100.363366 142.495115 
L 100.363366 142.495115 
L 100.656754 142.495115 
L 100.656754 141.299858 
L 100.656754 141.299858 
L 100.803448 141.299858 
L 100.887273 138.909344 
L 100.887273 138.909344 
L 100.950142 138.909344 
L 100.971098 137.475036 
L 100.971098 137.475036 
L 101.222573 137.475036 
L 101.306398 135.801676 
L 101.306398 135.801676 
L 101.369267 135.801676 
L 101.369267 134.606419 
L 101.369267 134.606419 
L 101.74648 134.606419 
L 101.788392 131.2597 
L 101.788392 131.2597 
L 101.91413 131.2597 
L 102.018911 129.58634 
L 102.018911 129.58634 
L 102.144649 129.58634 
L 102.144649 129.108237 
L 102.144649 129.108237 
L 102.354212 129.108237 
L 102.354212 127.91298 
L 102.354212 127.91298 
L 102.521862 127.91298 
L 102.563774 126.000569 
L 102.563774 126.000569 
L 105.099483 126.000569 
L 105.120439 124.327209 
L 105.120439 124.327209 
L 105.350958 124.327209 
L 105.350958 123.371004 
L 105.350958 123.371004 
L 105.497652 123.371004 
L 105.560521 121.458593 
L 105.560521 121.458593 
L 105.707215 121.458593 
L 105.770084 119.546182 
L 105.770084 119.546182 
L 105.937734 119.546182 
L 105.937734 118.589976 
L 105.937734 118.589976 
L 106.503553 118.589976 
L 106.587378 116.677565 
L 106.587378 116.677565 
L 106.775985 116.677565 
L 106.838854 114.765154 
L 106.838854 114.765154 
L 107.006504 114.765154 
L 107.02746 112.852743 
L 107.02746 112.852743 
L 107.698061 112.852743 
L 107.698061 111.896538 
L 107.698061 111.896538 
L 108.117186 111.896538 
L 108.221967 109.027921 
L 108.221967 109.027921 
L 108.620137 109.027921 
L 108.683005 104.724996 
L 108.683005 104.724996 
L 109.458387 104.724996 
L 109.542213 101.856379 
L 109.542213 101.856379 
L 109.584125 101.856379 
L 109.584125 100.900174 
L 109.584125 100.900174 
L 110.024207 100.900174 
L 110.108032 99.465866 
L 110.108032 99.465866 
L 110.464288 99.465866 
L 110.464288 97.075352 
L 110.464288 97.075352 
L 111.134889 97.075352 
L 111.134889 96.358198 
L 111.134889 96.358198 
L 111.847402 96.358198 
L 111.847402 95.641043 
L 111.847402 95.641043 
L 112.769478 95.641043 
L 112.769478 95.162941 
L 112.769478 95.162941 
L 112.937128 95.162941 
L 113.04191 94.206735 
L 113.04191 94.206735 
L 113.230516 94.206735 
L 113.230516 93.489581 
L 113.230516 93.489581 
L 113.670598 93.489581 
L 113.670598 93.011478 
L 113.670598 93.011478 
L 113.901117 93.011478 
L 113.901117 91.338119 
L 113.901117 91.338119 
L 114.152592 91.338119 
L 114.152592 90.860016 
L 114.152592 90.860016 
L 114.341199 90.860016 
L 114.341199 90.381913 
L 114.341199 90.381913 
L 114.466936 90.381913 
L 114.571717 89.425708 
L 114.571717 89.425708 
L 114.634586 89.425708 
L 114.634586 88.947605 
L 114.634586 88.947605 
L 115.263274 88.947605 
L 115.263274 88.469502 
L 115.263274 88.469502 
L 115.493793 88.469502 
L 115.493793 87.991399 
L 115.493793 87.991399 
L 115.661444 87.991399 
L 115.661444 87.513296 
L 115.661444 87.513296 
L 115.996744 87.513296 
L 115.996744 87.035194 
L 115.996744 87.035194 
L 117.149339 87.035194 
L 117.149339 86.078988 
L 117.149339 86.078988 
L 117.463683 86.078988 
L 117.526552 84.166577 
L 117.526552 84.166577 
L 117.945677 84.166577 
L 117.966633 82.254166 
L 117.966633 82.254166 
L 118.32289 82.254166 
L 118.406715 80.102704 
L 118.406715 80.102704 
L 118.595321 80.102704 
L 118.595321 79.146498 
L 118.595321 79.146498 
L 118.888709 79.146498 
L 118.888709 77.951241 
L 118.888709 77.951241 
L 119.056359 77.951241 
L 119.056359 76.995036 
L 119.056359 76.995036 
L 119.412616 76.995036 
L 119.412616 76.03883 
L 119.412616 76.03883 
L 119.685048 76.03883 
L 119.747916 74.604522 
L 119.747916 74.604522 
L 119.957479 74.604522 
L 119.957479 73.648316 
L 119.957479 73.648316 
L 122.03215 73.648316 
L 122.03215 72.692111 
L 122.03215 72.692111 
L 126.055754 72.692111 
L 126.055754 71.974957 
L 126.055754 71.974957 
L 126.537748 71.974957 
L 126.537748 71.018751 
L 126.537748 71.018751 
L 127.124524 71.018751 
L 127.229305 69.10634 
L 127.229305 69.10634 
L 127.355043 69.10634 
L 127.438868 66.237723 
L 127.438868 66.237723 
L 127.564605 66.237723 
L 127.564605 65.281518 
L 127.564605 65.281518 
L 127.690343 65.281518 
L 127.690343 63.369107 
L 127.690343 63.369107 
L 128.130425 63.369107 
L 128.130425 62.412901 
L 128.130425 62.412901 
L 133.118017 62.412901 
L 133.118017 61.456696 
L 133.118017 61.456696 
L 165.767887 61.456696 
L 165.767887 60.978593 
L 165.767887 60.978593 
L 169.267584 60.978593 
L 169.267584 60.739542 
L 171.908074 60.739542 
L 171.908074 59.783336 
L 171.908074 59.783336 
L 176.37176 59.783336 
L 176.37176 59.305233 
L 176.37176 59.305233 
L 193.555902 59.305233 
L 193.555902 58.82713 
L 193.555902 58.82713 
L 204.264556 58.82713 
L 204.264556 57.631874 
L 204.264556 57.631874 
L 220.861922 57.631874 
L 220.861922 57.392822 
L 229.831206 57.392822 
L 229.831206 56.914719 
L 229.831206 56.914719 
L 235.531312 56.914719 
L 235.531312 56.436617 
L 235.531312 56.436617 
L 246.135185 56.436617 
L 246.135185 55.958514 
L 246.135185 55.958514 
L 326.691089 55.958514 
L 326.691089 55.480411 
L 326.691089 55.480411 
L 355.128749 55.480411 
L 355.128749 55.002308 
L 355.128749 55.002308 
L 369.693357 55.002308 
L 369.693357 54.524206 
L 369.693357 54.524206 
L 383.503539 54.524206 
L 383.503539 54.046103 
L 383.503539 54.046103 
L 398.487273 54.046103 
L 398.487273 53.568 
L 398.487273 53.568 
" clip-path="url(#pfb4186e726)" style="fill: none; stroke: #1f77b4; stroke-width: 1.5; stroke-linecap: square"/>
   </g>
   <g id="patch_3">
    <path d="M 57.6 307.584 
L 57.6 41.472 
" style="fill: none; stroke: #000000; stroke-width: 0.8; stroke-linejoin: miter; stroke-linecap: square"/>
   </g>
   <g id="patch_4">
    <path d="M 414.72 307.584 
L 414.72 41.472 
" style="fill: none; stroke: #000000; stroke-width: 0.8; stroke-linejoin: miter; stroke-linecap: square"/>
   </g>
   <g id="patch_5">
    <path d="M 57.6 307.584 
L 414.72 307.584 
" style="fill: none; stroke: #000000; stroke-width: 0.8; stroke-linejoin: miter; stroke-linecap: square"/>
   </g>
   <g id="patch_6">
    <path d="M 57.6 41.472 
L 414.72 41.472 
" style="fill: none; stroke: #000000; stroke-width: 0.8; stroke-linejoin: miter; stroke-linecap: square"/>
   </g>
   <g id="text_16">
    <!-- Execution time between S8 S9 -->
    <g transform="translate(144.336563 35.472) scale(0.12 -0.12)">
     <defs>
      <path id="DejaVuSans-45" d="M 628 4666 
L 3578 4666 
L 3578 4134 
L 1259 4134 
L 1259 2753 
L 3481 2753 
L 3481 2222 
L 1259 2222 
L 1259 531 
L 3634 531 
L 3634 0 
L 628 0 
L 628 4666 
z
" transform="scale(0.015625)"/>
      <path id="DejaVuSans-78" d="M 3513 3500 
L 2247 1797 
L 3578 0 
L 2900 0 
L 1881 1375 
L 863 0 
L 184 0 
L 1544 1831 
L 300 3500 
L 978 3500 
L 1906 2253 
L 2834 3500 
L 3513 3500 
z
" transform="scale(0.015625)"/>
      <path id="DejaVuSans-65" d="M 3597 1894 
L 3597 1613 
L 953 1613 
Q 991 1019 1311 708 
Q 1631 397 2203 397 
Q 2534 397 2845 478 
Q 3156 559 3463 722 
L 3463 178 
Q 3153 47 2828 -22 
Q 2503 -91 2169 -91 
Q 1331 -91 842 396 
Q 353 884 353 1716 
Q 353 2575 817 3079 
Q 1281 3584 2069 3584 
Q 2775 3584 3186 3129 
Q 3597 2675 3597 1894 
z
M 3022 2063 
Q 3016 2534 2758 2815 
Q 2500 3097 2075 3097 
Q 1594 3097 1305 2825 
Q 1016 2553 972 2059 
L 3022 2063 
z
" transform="scale(0.015625)"/>
      <path id="DejaVuSans-63" d="M 3122 3366 
L 3122 2828 
Q 2878 2963 2633 3030 
Q 2388 3097 2138 3097 
Q 1578 3097 1268 2742 
Q 959 2388 959 1747 
Q 959 1106 1268 751 
Q 1578 397 2138 397 
Q 2388 397 2633 464 
Q 2878 531 3122 666 
L 3122 134 
Q 2881 22 2623 -34 
Q 2366 -91 2075 -91 
Q 1284 -91 818 406 
Q 353 903 353 1747 
Q 353 2603 823 3093 
Q 1294 3584 2113 3584 
Q 2378 3584 2631 3529 
Q 2884 3475 3122 3366 
z
" transform="scale(0.015625)"/>
      <path id="DejaVuSans-75" d="M 544 1381 
L 544 3500 
L 1119 3500 
L 1119 1403 
Q 1119 906 1312 657 
Q 1506 409 1894 409 
Q 2359 409 2629 706 
Q 2900 1003 2900 1516 
L 2900 3500 
L 3475 3500 
L 3475 0 
L 2900 0 
L 2900 538 
Q 2691 219 2414 64 
Q 2138 -91 1772 -91 
Q 1169 -91 856 284 
Q 544 659 544 1381 
z
M 1991 3584 
L 1991 3584 
z
" transform="scale(0.015625)"/>
      <path id="DejaVuSans-74" d="M 1172 4494 
L 1172 3500 
L 2356 3500 
L 2356 3053 
L 1172 3053 
L 1172 1153 
Q 1172 725 1289 603 
Q 1406 481 1766 481 
L 2356 481 
L 2356 0 
L 1766 0 
Q 1100 0 847 248 
Q 594 497 594 1153 
L 594 3053 
L 172 3053 
L 172 3500 
L 594 3500 
L 594 4494 
L 1172 4494 
z
" transform="scale(0.015625)"/>
      <path id="DejaVuSans-69" d="M 603 3500 
L 1178 3500 
L 1178 0 
L 603 0 
L 603 3500 
z
M 603 4863 
L 1178 4863 
L 1178 4134 
L 603 4134 
L 603 4863 
z
" transform="scale(0.015625)"/>
      <path id="DejaVuSans-6f" d="M 1959 3097 
Q 1497 3097 1228 2736 
Q 959 2375 959 1747 
Q 959 1119 1226 758 
Q 1494 397 1959 397 
Q 2419 397 2687 759 
Q 2956 1122 2956 1747 
Q 2956 2369 2687 2733 
Q 2419 3097 1959 3097 
z
M 1959 3584 
Q 2709 3584 3137 3096 
Q 3566 2609 3566 1747 
Q 3566 888 3137 398 
Q 2709 -91 1959 -91 
Q 1206 -91 779 398 
Q 353 888 353 1747 
Q 353 2609 779 3096 
Q 1206 3584 1959 3584 
z
" transform="scale(0.015625)"/>
      <path id="DejaVuSans-6e" d="M 3513 2113 
L 3513 0 
L 2938 0 
L 2938 2094 
Q 2938 2591 2744 2837 
Q 2550 3084 2163 3084 
Q 1697 3084 1428 2787 
Q 1159 2491 1159 1978 
L 1159 0 
L 581 0 
L 581 3500 
L 1159 3500 
L 1159 2956 
Q 1366 3272 1645 3428 
Q 1925 3584 2291 3584 
Q 2894 3584 3203 3211 
Q 3513 2838 3513 2113 
z
" transform="scale(0.015625)"/>
      <path id="DejaVuSans-20" transform="scale(0.015625)"/>
      <path id="DejaVuSans-6d" d="M 3328 2828 
Q 3544 3216 3844 3400 
Q 4144 3584 4550 3584 
Q 5097 3584 5394 3201 
Q 5691 2819 5691 2113 
L 5691 0 
L 5113 0 
L 5113 2094 
Q 5113 2597 4934 2840 
Q 4756 3084 4391 3084 
Q 3944 3084 3684 2787 
Q 3425 2491 3425 1978 
L 3425 0 
L 2847 0 
L 2847 2094 
Q 2847 2600 2669 2842 
Q 2491 3084 2119 3084 
Q 1678 3084 1418 2786 
Q 1159 2488 1159 1978 
L 1159 0 
L 581 0 
L 581 3500 
L 1159 3500 
L 1159 2956 
Q 1356 3278 1631 3431 
Q 1906 3584 2284 3584 
Q 2666 3584 2933 3390 
Q 3200 3197 3328 2828 
z
" transform="scale(0.015625)"/>
      <path id="DejaVuSans-62" d="M 3116 1747 
Q 3116 2381 2855 2742 
Q 2594 3103 2138 3103 
Q 1681 3103 1420 2742 
Q 1159 2381 1159 1747 
Q 1159 1113 1420 752 
Q 1681 391 2138 391 
Q 2594 391 2855 752 
Q 3116 1113 3116 1747 
z
M 1159 2969 
Q 1341 3281 1617 3432 
Q 1894 3584 2278 3584 
Q 2916 3584 3314 3078 
Q 3713 2572 3713 1747 
Q 3713 922 3314 415 
Q 2916 -91 2278 -91 
Q 1894 -91 1617 61 
Q 1341 213 1159 525 
L 1159 0 
L 581 0 
L 581 4863 
L 1159 4863 
L 1159 2969 
z
" transform="scale(0.015625)"/>
      <path id="DejaVuSans-77" d="M 269 3500 
L 844 3500 
L 1563 769 
L 2278 3500 
L 2956 3500 
L 3675 769 
L 4391 3500 
L 4966 3500 
L 4050 0 
L 3372 0 
L 2619 2869 
L 1863 0 
L 1184 0 
L 269 3500 
z
" transform="scale(0.015625)"/>
      <path id="DejaVuSans-53" d="M 3425 4513 
L 3425 3897 
Q 3066 4069 2747 4153 
Q 2428 4238 2131 4238 
Q 1616 4238 1336 4038 
Q 1056 3838 1056 3469 
Q 1056 3159 1242 3001 
Q 1428 2844 1947 2747 
L 2328 2669 
Q 3034 2534 3370 2195 
Q 3706 1856 3706 1288 
Q 3706 609 3251 259 
Q 2797 -91 1919 -91 
Q 1588 -91 1214 -16 
Q 841 59 441 206 
L 441 856 
Q 825 641 1194 531 
Q 1563 422 1919 422 
Q 2459 422 2753 634 
Q 3047 847 3047 1241 
Q 3047 1584 2836 1778 
Q 2625 1972 2144 2069 
L 1759 2144 
Q 1053 2284 737 2584 
Q 422 2884 422 3419 
Q 422 4038 858 4394 
Q 1294 4750 2059 4750 
Q 2388 4750 2728 4690 
Q 3069 4631 3425 4513 
z
" transform="scale(0.015625)"/>
      <path id="DejaVuSans-39" d="M 703 97 
L 703 672 
Q 941 559 1184 500 
Q 1428 441 1663 441 
Q 2288 441 2617 861 
Q 2947 1281 2994 2138 
Q 2813 1869 2534 1725 
Q 2256 1581 1919 1581 
Q 1219 1581 811 2004 
Q 403 2428 403 3163 
Q 403 3881 828 4315 
Q 1253 4750 1959 4750 
Q 2769 4750 3195 4129 
Q 3622 3509 3622 2328 
Q 3622 1225 3098 567 
Q 2575 -91 1691 -91 
Q 1453 -91 1209 -44 
Q 966 3 703 97 
z
M 1959 2075 
Q 2384 2075 2632 2365 
Q 2881 2656 2881 3163 
Q 2881 3666 2632 3958 
Q 2384 4250 1959 4250 
Q 1534 4250 1286 3958 
Q 1038 3666 1038 3163 
Q 1038 2656 1286 2365 
Q 1534 2075 1959 2075 
z
" transform="scale(0.015625)"/>
     </defs>
     <use xlink:href="#DejaVuSans-45"/>
     <use xlink:href="#DejaVuSans-78" x="63.183594"/>
     <use xlink:href="#DejaVuSans-65" x="119.238281"/>
     <use xlink:href="#DejaVuSans-63" x="180.761719"/>
     <use xlink:href="#DejaVuSans-75" x="235.742188"/>
     <use xlink:href="#DejaVuSans-74" x="299.121094"/>
     <use xlink:href="#DejaVuSans-69" x="338.330078"/>
     <use xlink:href="#DejaVuSans-6f" x="366.113281"/>
     <use xlink:href="#DejaVuSans-6e" x="427.294922"/>
     <use xlink:href="#DejaVuSans-20" x="490.673828"/>
     <use xlink:href="#DejaVuSans-74" x="522.460938"/>
     <use xlink:href="#DejaVuSans-69" x="561.669922"/>
     <use xlink:href="#DejaVuSans-6d" x="589.453125"/>
     <use xlink:href="#DejaVuSans-65" x="686.865234"/>
     <use xlink:href="#DejaVuSans-20" x="748.388672"/>
     <use xlink:href="#DejaVuSans-62" x="780.175781"/>
     <use xlink:href="#DejaVuSans-65" x="843.652344"/>
     <use xlink:href="#DejaVuSans-74" x="905.175781"/>
     <use xlink:href="#DejaVuSans-77" x="944.384766"/>
     <use xlink:href="#DejaVuSans-65" x="1026.171875"/>
     <use xlink:href="#DejaVuSans-65" x="1087.695312"/>
     <use xlink:href="#DejaVuSans-6e" x="1149.21875"/>
     <use xlink:href="#DejaVuSans-20" x="1212.597656"/>
     <use xlink:href="#DejaVuSans-53" x="1244.384766"/>
     <use xlink:href="#DejaVuSans-38" x="1307.861328"/>
     <use xlink:href="#DejaVuSans-20" x="1371.484375"/>
     <use xlink:href="#DejaVuSans-53" x="1403.271484"/>
     <use xlink:href="#DejaVuSans-39" x="1466.748047"/>
    </g>
   </g>
   <g id="legend_1">
    <g id="patch_7">
     <path d="M 299.496562 304.584 
L 410.52 304.584 
Q 411.72 304.584 411.72 303.384 
L 411.72 295.177125 
Q 411.72 293.977125 410.52 293.977125 
L 299.496562 293.977125 
Q 298.296562 293.977125 298.296562 295.177125 
L 298.296562 303.384 
Q 298.296562 304.584 299.496562 304.584 
z
" style="fill: #ffffff; opacity: 0.8; stroke: #cccccc; stroke-linejoin: miter"/>
    </g>
    <g id="line2d_17">
     <path d="M 300.696562 298.836187 
L 306.696562 298.836187 
L 312.696562 298.836187 
" style="fill: none; stroke: #1f77b4; stroke-width: 1.5; stroke-linecap: square"/>
    </g>
    <g id="text_17">
     <!-- Execution time between S8 S9 -->
     <g transform="translate(317.496562 300.936187) scale(0.06 -0.06)">
      <use xlink:href="#DejaVuSans-45"/>
      <use xlink:href="#DejaVuSans-78" x="63.183594"/>
      <use xlink:href="#DejaVuSans-65" x="119.238281"/>
      <use xlink:href="#DejaVuSans-63" x="180.761719"/>
      <use xlink:href="#DejaVuSans-75" x="235.742188"/>
      <use xlink:href="#DejaVuSans-74" x="299.121094"/>
      <use xlink:href="#DejaVuSans-69" x="338.330078"/>
      <use xlink:href="#DejaVuSans-6f" x="366.113281"/>
      <use xlink:href="#DejaVuSans-6e" x="427.294922"/>
      <use xlink:href="#DejaVuSans-20" x="490.673828"/>
      <use xlink:href="#DejaVuSans-74" x="522.460938"/>
      <use xlink:href="#DejaVuSans-69" x="561.669922"/>
      <use xlink:href="#DejaVuSans-6d" x="589.453125"/>
      <use xlink:href="#DejaVuSans-65" x="686.865234"/>
      <use xlink:href="#DejaVuSans-20" x="748.388672"/>
      <use xlink:href="#DejaVuSans-62" x="780.175781"/>
      <use xlink:href="#DejaVuSans-65" x="843.652344"/>
      <use xlink:href="#DejaVuSans-74" x="905.175781"/>
      <use xlink:href="#DejaVuSans-77" x="944.384766"/>
      <use xlink:href="#DejaVuSans-65" x="1026.171875"/>
      <use xlink:href="#DejaVuSans-65" x="1087.695312"/>
      <use xlink:href="#DejaVuSans-6e" x="1149.21875"/>
      <use xlink:href="#DejaVuSans-20" x="1212.597656"/>
      <use xlink:href="#DejaVuSans-53" x="1244.384766"/>
      <use xlink:href="#DejaVuSans-38" x="1307.861328"/>
      <use xlink:href="#DejaVuSans-20" x="1371.484375"/>
      <use xlink:href="#DejaVuSans-53" x="1403.271484"/>
      <use xlink:href="#DejaVuSans-39" x="1466.748047"/>
     </g>
    </g>
   </g>
  </g>
 </g>
 <defs>
  <clipPath id="pfb4186e726">
   <rect x="57.6" y="41.472" width="357.12" height="266.112"/>
  </clipPath>
 </defs>
</svg>
