<?xml version="1.0" encoding="utf-8" standalone="no"?>
<!DOCTYPE svg PUBLIC "-//W3C//DTD SVG 1.1//EN"
  "http://www.w3.org/Graphics/SVG/1.1/DTD/svg11.dtd">
<svg xmlns:xlink="http://www.w3.org/1999/xlink" width="460.8pt" height="345.6pt" viewBox="0 0 460.8 345.6" xmlns="http://www.w3.org/2000/svg" version="1.1">
 <metadata>
  <rdf:RDF xmlns:dc="http://purl.org/dc/elements/1.1/" xmlns:cc="http://creativecommons.org/ns#" xmlns:rdf="http://www.w3.org/1999/02/22-rdf-syntax-ns#">
   <cc:Work>
    <dc:type rdf:resource="http://purl.org/dc/dcmitype/StillImage"/>
    <dc:date>2024-03-08T13:39:43.243183</dc:date>
    <dc:format>image/svg+xml</dc:format>
    <dc:creator>
     <cc:Agent>
      <dc:title>Matplotlib v3.8.2, https://matplotlib.org/</dc:title>
     </cc:Agent>
    </dc:creator>
   </cc:Work>
  </rdf:RDF>
 </metadata>
 <defs>
  <style type="text/css">*{stroke-linejoin: round; stroke-linecap: butt}</style>
 </defs>
 <g id="figure_1">
  <g id="patch_1">
   <path d="M 0 345.6 
L 460.8 345.6 
L 460.8 0 
L 0 0 
z
" style="fill: #ffffff"/>
  </g>
  <g id="axes_1">
   <g id="patch_2">
    <path d="M 57.6 307.584 
L 414.72 307.584 
L 414.72 41.472 
L 57.6 41.472 
z
" style="fill: #ffffff"/>
   </g>
   <g id="matplotlib.axis_1">
    <g id="xtick_1">
     <g id="line2d_1">
      <defs>
       <path id="m6717ca1f3d" d="M 0 0 
L 0 3.5 
" style="stroke: #000000; stroke-width: 0.8"/>
      </defs>
      <g>
       <use xlink:href="#m6717ca1f3d" x="73.817392" y="307.584" style="stroke: #000000; stroke-width: 0.8"/>
      </g>
     </g>
     <g id="text_1">
      <!-- 0.0 -->
      <g transform="translate(65.86583 322.182437) scale(0.1 -0.1)">
       <defs>
        <path id="DejaVuSans-30" d="M 2034 4250 
Q 1547 4250 1301 3770 
Q 1056 3291 1056 2328 
Q 1056 1369 1301 889 
Q 1547 409 2034 409 
Q 2525 409 2770 889 
Q 3016 1369 3016 2328 
Q 3016 3291 2770 3770 
Q 2525 4250 2034 4250 
z
M 2034 4750 
Q 2819 4750 3233 4129 
Q 3647 3509 3647 2328 
Q 3647 1150 3233 529 
Q 2819 -91 2034 -91 
Q 1250 -91 836 529 
Q 422 1150 422 2328 
Q 422 3509 836 4129 
Q 1250 4750 2034 4750 
z
" transform="scale(0.015625)"/>
        <path id="DejaVuSans-2e" d="M 684 794 
L 1344 794 
L 1344 0 
L 684 0 
L 684 794 
z
" transform="scale(0.015625)"/>
       </defs>
       <use xlink:href="#DejaVuSans-30"/>
       <use xlink:href="#DejaVuSans-2e" x="63.623047"/>
       <use xlink:href="#DejaVuSans-30" x="95.410156"/>
      </g>
     </g>
    </g>
    <g id="xtick_2">
     <g id="line2d_2">
      <g>
       <use xlink:href="#m6717ca1f3d" x="118.919828" y="307.584" style="stroke: #000000; stroke-width: 0.8"/>
      </g>
     </g>
     <g id="text_2">
      <!-- 0.5 -->
      <g transform="translate(110.968265 322.182437) scale(0.1 -0.1)">
       <defs>
        <path id="DejaVuSans-35" d="M 691 4666 
L 3169 4666 
L 3169 4134 
L 1269 4134 
L 1269 2991 
Q 1406 3038 1543 3061 
Q 1681 3084 1819 3084 
Q 2600 3084 3056 2656 
Q 3513 2228 3513 1497 
Q 3513 744 3044 326 
Q 2575 -91 1722 -91 
Q 1428 -91 1123 -41 
Q 819 9 494 109 
L 494 744 
Q 775 591 1075 516 
Q 1375 441 1709 441 
Q 2250 441 2565 725 
Q 2881 1009 2881 1497 
Q 2881 1984 2565 2268 
Q 2250 2553 1709 2553 
Q 1456 2553 1204 2497 
Q 953 2441 691 2322 
L 691 4666 
z
" transform="scale(0.015625)"/>
       </defs>
       <use xlink:href="#DejaVuSans-30"/>
       <use xlink:href="#DejaVuSans-2e" x="63.623047"/>
       <use xlink:href="#DejaVuSans-35" x="95.410156"/>
      </g>
     </g>
    </g>
    <g id="xtick_3">
     <g id="line2d_3">
      <g>
       <use xlink:href="#m6717ca1f3d" x="164.022263" y="307.584" style="stroke: #000000; stroke-width: 0.8"/>
      </g>
     </g>
     <g id="text_3">
      <!-- 1.0 -->
      <g transform="translate(156.0707 322.182437) scale(0.1 -0.1)">
       <defs>
        <path id="DejaVuSans-31" d="M 794 531 
L 1825 531 
L 1825 4091 
L 703 3866 
L 703 4441 
L 1819 4666 
L 2450 4666 
L 2450 531 
L 3481 531 
L 3481 0 
L 794 0 
L 794 531 
z
" transform="scale(0.015625)"/>
       </defs>
       <use xlink:href="#DejaVuSans-31"/>
       <use xlink:href="#DejaVuSans-2e" x="63.623047"/>
       <use xlink:href="#DejaVuSans-30" x="95.410156"/>
      </g>
     </g>
    </g>
    <g id="xtick_4">
     <g id="line2d_4">
      <g>
       <use xlink:href="#m6717ca1f3d" x="209.124698" y="307.584" style="stroke: #000000; stroke-width: 0.8"/>
      </g>
     </g>
     <g id="text_4">
      <!-- 1.5 -->
      <g transform="translate(201.173136 322.182437) scale(0.1 -0.1)">
       <use xlink:href="#DejaVuSans-31"/>
       <use xlink:href="#DejaVuSans-2e" x="63.623047"/>
       <use xlink:href="#DejaVuSans-35" x="95.410156"/>
      </g>
     </g>
    </g>
    <g id="xtick_5">
     <g id="line2d_5">
      <g>
       <use xlink:href="#m6717ca1f3d" x="254.227134" y="307.584" style="stroke: #000000; stroke-width: 0.8"/>
      </g>
     </g>
     <g id="text_5">
      <!-- 2.0 -->
      <g transform="translate(246.275571 322.182437) scale(0.1 -0.1)">
       <defs>
        <path id="DejaVuSans-32" d="M 1228 531 
L 3431 531 
L 3431 0 
L 469 0 
L 469 531 
Q 828 903 1448 1529 
Q 2069 2156 2228 2338 
Q 2531 2678 2651 2914 
Q 2772 3150 2772 3378 
Q 2772 3750 2511 3984 
Q 2250 4219 1831 4219 
Q 1534 4219 1204 4116 
Q 875 4013 500 3803 
L 500 4441 
Q 881 4594 1212 4672 
Q 1544 4750 1819 4750 
Q 2544 4750 2975 4387 
Q 3406 4025 3406 3419 
Q 3406 3131 3298 2873 
Q 3191 2616 2906 2266 
Q 2828 2175 2409 1742 
Q 1991 1309 1228 531 
z
" transform="scale(0.015625)"/>
       </defs>
       <use xlink:href="#DejaVuSans-32"/>
       <use xlink:href="#DejaVuSans-2e" x="63.623047"/>
       <use xlink:href="#DejaVuSans-30" x="95.410156"/>
      </g>
     </g>
    </g>
    <g id="xtick_6">
     <g id="line2d_6">
      <g>
       <use xlink:href="#m6717ca1f3d" x="299.329569" y="307.584" style="stroke: #000000; stroke-width: 0.8"/>
      </g>
     </g>
     <g id="text_6">
      <!-- 2.5 -->
      <g transform="translate(291.378006 322.182437) scale(0.1 -0.1)">
       <use xlink:href="#DejaVuSans-32"/>
       <use xlink:href="#DejaVuSans-2e" x="63.623047"/>
       <use xlink:href="#DejaVuSans-35" x="95.410156"/>
      </g>
     </g>
    </g>
    <g id="xtick_7">
     <g id="line2d_7">
      <g>
       <use xlink:href="#m6717ca1f3d" x="344.432004" y="307.584" style="stroke: #000000; stroke-width: 0.8"/>
      </g>
     </g>
     <g id="text_7">
      <!-- 3.0 -->
      <g transform="translate(336.480442 322.182437) scale(0.1 -0.1)">
       <defs>
        <path id="DejaVuSans-33" d="M 2597 2516 
Q 3050 2419 3304 2112 
Q 3559 1806 3559 1356 
Q 3559 666 3084 287 
Q 2609 -91 1734 -91 
Q 1441 -91 1130 -33 
Q 819 25 488 141 
L 488 750 
Q 750 597 1062 519 
Q 1375 441 1716 441 
Q 2309 441 2620 675 
Q 2931 909 2931 1356 
Q 2931 1769 2642 2001 
Q 2353 2234 1838 2234 
L 1294 2234 
L 1294 2753 
L 1863 2753 
Q 2328 2753 2575 2939 
Q 2822 3125 2822 3475 
Q 2822 3834 2567 4026 
Q 2313 4219 1838 4219 
Q 1578 4219 1281 4162 
Q 984 4106 628 3988 
L 628 4550 
Q 988 4650 1302 4700 
Q 1616 4750 1894 4750 
Q 2613 4750 3031 4423 
Q 3450 4097 3450 3541 
Q 3450 3153 3228 2886 
Q 3006 2619 2597 2516 
z
" transform="scale(0.015625)"/>
       </defs>
       <use xlink:href="#DejaVuSans-33"/>
       <use xlink:href="#DejaVuSans-2e" x="63.623047"/>
       <use xlink:href="#DejaVuSans-30" x="95.410156"/>
      </g>
     </g>
    </g>
    <g id="xtick_8">
     <g id="line2d_8">
      <g>
       <use xlink:href="#m6717ca1f3d" x="389.534439" y="307.584" style="stroke: #000000; stroke-width: 0.8"/>
      </g>
     </g>
     <g id="text_8">
      <!-- 3.5 -->
      <g transform="translate(381.582877 322.182437) scale(0.1 -0.1)">
       <use xlink:href="#DejaVuSans-33"/>
       <use xlink:href="#DejaVuSans-2e" x="63.623047"/>
       <use xlink:href="#DejaVuSans-35" x="95.410156"/>
      </g>
     </g>
    </g>
    <g id="text_9">
     <!-- 1e6 -->
     <g transform="translate(395.841875 334.860562) scale(0.1 -0.1)">
      <defs>
       <path id="DejaVuSans-65" d="M 3597 1894 
L 3597 1613 
L 953 1613 
Q 991 1019 1311 708 
Q 1631 397 2203 397 
Q 2534 397 2845 478 
Q 3156 559 3463 722 
L 3463 178 
Q 3153 47 2828 -22 
Q 2503 -91 2169 -91 
Q 1331 -91 842 396 
Q 353 884 353 1716 
Q 353 2575 817 3079 
Q 1281 3584 2069 3584 
Q 2775 3584 3186 3129 
Q 3597 2675 3597 1894 
z
M 3022 2063 
Q 3016 2534 2758 2815 
Q 2500 3097 2075 3097 
Q 1594 3097 1305 2825 
Q 1016 2553 972 2059 
L 3022 2063 
z
" transform="scale(0.015625)"/>
       <path id="DejaVuSans-36" d="M 2113 2584 
Q 1688 2584 1439 2293 
Q 1191 2003 1191 1497 
Q 1191 994 1439 701 
Q 1688 409 2113 409 
Q 2538 409 2786 701 
Q 3034 994 3034 1497 
Q 3034 2003 2786 2293 
Q 2538 2584 2113 2584 
z
M 3366 4563 
L 3366 3988 
Q 3128 4100 2886 4159 
Q 2644 4219 2406 4219 
Q 1781 4219 1451 3797 
Q 1122 3375 1075 2522 
Q 1259 2794 1537 2939 
Q 1816 3084 2150 3084 
Q 2853 3084 3261 2657 
Q 3669 2231 3669 1497 
Q 3669 778 3244 343 
Q 2819 -91 2113 -91 
Q 1303 -91 875 529 
Q 447 1150 447 2328 
Q 447 3434 972 4092 
Q 1497 4750 2381 4750 
Q 2619 4750 2861 4703 
Q 3103 4656 3366 4563 
z
" transform="scale(0.015625)"/>
      </defs>
      <use xlink:href="#DejaVuSans-31"/>
      <use xlink:href="#DejaVuSans-65" x="63.623047"/>
      <use xlink:href="#DejaVuSans-36" x="125.146484"/>
     </g>
    </g>
   </g>
   <g id="matplotlib.axis_2">
    <g id="ytick_1">
     <g id="line2d_9">
      <defs>
       <path id="mecea7fa4d0" d="M 0 0 
L -3.5 0 
" style="stroke: #000000; stroke-width: 0.8"/>
      </defs>
      <g>
       <use xlink:href="#mecea7fa4d0" x="57.6" y="295.488" style="stroke: #000000; stroke-width: 0.8"/>
      </g>
     </g>
     <g id="text_10">
      <!-- 0 -->
      <g transform="translate(44.2375 299.287219) scale(0.1 -0.1)">
       <use xlink:href="#DejaVuSans-30"/>
      </g>
     </g>
    </g>
    <g id="ytick_2">
     <g id="line2d_10">
      <g>
       <use xlink:href="#mecea7fa4d0" x="57.6" y="240.506182" style="stroke: #000000; stroke-width: 0.8"/>
      </g>
     </g>
     <g id="text_11">
      <!-- 5 -->
      <g transform="translate(44.2375 244.305401) scale(0.1 -0.1)">
       <use xlink:href="#DejaVuSans-35"/>
      </g>
     </g>
    </g>
    <g id="ytick_3">
     <g id="line2d_11">
      <g>
       <use xlink:href="#mecea7fa4d0" x="57.6" y="185.524364" style="stroke: #000000; stroke-width: 0.8"/>
      </g>
     </g>
     <g id="text_12">
      <!-- 10 -->
      <g transform="translate(37.875 189.323582) scale(0.1 -0.1)">
       <use xlink:href="#DejaVuSans-31"/>
       <use xlink:href="#DejaVuSans-30" x="63.623047"/>
      </g>
     </g>
    </g>
    <g id="ytick_4">
     <g id="line2d_12">
      <g>
       <use xlink:href="#mecea7fa4d0" x="57.6" y="130.542545" style="stroke: #000000; stroke-width: 0.8"/>
      </g>
     </g>
     <g id="text_13">
      <!-- 15 -->
      <g transform="translate(37.875 134.341764) scale(0.1 -0.1)">
       <use xlink:href="#DejaVuSans-31"/>
       <use xlink:href="#DejaVuSans-35" x="63.623047"/>
      </g>
     </g>
    </g>
    <g id="ytick_5">
     <g id="line2d_13">
      <g>
       <use xlink:href="#mecea7fa4d0" x="57.6" y="75.560727" style="stroke: #000000; stroke-width: 0.8"/>
      </g>
     </g>
     <g id="text_14">
      <!-- 20 -->
      <g transform="translate(37.875 79.359946) scale(0.1 -0.1)">
       <use xlink:href="#DejaVuSans-32"/>
       <use xlink:href="#DejaVuSans-30" x="63.623047"/>
      </g>
     </g>
    </g>
   </g>
   <g id="line2d_14">
    <path d="M 73.832727 284.491636 
L 74.103342 295.488 
L 74.148444 284.491636 
L 74.418157 295.488 
L 74.462357 284.491636 
L 74.73207 295.488 
L 74.777172 284.491636 
L 75.046885 295.488 
L 75.0974 284.491636 
L 75.368014 295.488 
L 75.412215 284.491636 
L 75.682829 295.488 
L 75.726128 284.491636 
L 75.99584 295.488 
L 76.039138 284.491636 
L 76.309753 295.488 
L 76.359366 284.491636 
L 76.62998 295.488 
L 76.677789 284.491636 
L 76.948404 295.488 
L 76.993506 284.491636 
L 77.264121 295.488 
L 77.310125 284.491636 
L 77.58074 295.488 
L 77.62945 284.491636 
L 77.899163 295.488 
L 77.947873 284.491636 
L 78.218488 295.488 
L 78.268101 284.491636 
L 78.538715 295.488 
L 78.579308 284.491636 
L 78.84902 295.488 
L 78.898633 284.491636 
L 79.168345 295.488 
L 79.217056 284.491636 
L 82.071138 185.524364 
L 84.648291 196.520727 
L 84.895453 295.488 
L 84.899061 284.491636 
L 85.169675 295.488 
L 85.207561 284.491636 
L 85.477274 295.488 
L 85.523278 284.491636 
L 85.792991 295.488 
L 85.834485 284.491636 
L 86.1051 295.488 
L 86.152908 284.491636 
L 86.422621 295.488 
L 86.466821 284.491636 
L 86.737436 295.488 
L 86.782538 284.491636 
L 87.053153 295.488 
L 87.102766 284.491636 
L 87.372478 295.488 
L 87.413071 284.491636 
L 87.683685 295.488 
L 87.728788 284.491636 
L 87.999402 295.488 
L 88.03819 284.491636 
L 88.307903 295.488 
L 88.351201 284.491636 
L 88.621816 295.488 
L 88.671428 284.491636 
L 88.942043 295.488 
L 88.982635 284.491636 
L 89.252348 295.488 
L 89.29294 284.491636 
L 89.563555 295.488 
L 89.613167 284.491636 
L 89.883782 295.488 
L 89.932493 284.491636 
L 90.203107 295.488 
L 90.25272 284.491636 
L 90.523334 295.488 
L 90.561221 284.491636 
L 90.830933 295.488 
L 90.884154 284.491636 
L 91.153867 295.488 
L 91.198067 284.491636 
L 91.468682 295.488 
L 91.521 284.491636 
L 91.791615 295.488 
L 91.834913 284.491636 
L 92.105528 295.488 
L 92.147022 284.491636 
L 92.416735 295.488 
L 92.457327 284.491636 
L 92.727942 295.488 
L 92.77124 284.491636 
L 93.041854 295.488 
L 93.086055 284.491636 
L 93.356669 295.488 
L 93.39636 284.491636 
L 93.666974 295.488 
L 93.711175 284.491636 
L 93.981789 295.488 
L 94.029598 284.491636 
L 94.300212 295.488 
L 94.348021 284.491636 
L 94.618636 295.488 
L 94.661032 284.491636 
L 94.931646 295.488 
L 94.975847 284.491636 
L 95.245559 295.488 
L 95.290662 284.491636 
L 95.560374 295.488 
L 95.609085 284.491636 
L 95.878798 295.488 
L 95.922096 284.491636 
L 96.191809 295.488 
L 96.239617 284.491636 
L 96.510232 295.488 
L 96.558942 284.491636 
L 96.829557 295.488 
L 96.869247 284.491636 
L 97.139862 295.488 
L 97.182258 284.491636 
L 97.452873 295.488 
L 97.497073 284.491636 
L 97.767688 295.488 
L 97.805574 284.491636 
L 98.076188 295.488 
L 98.127605 284.491636 
L 98.39822 295.488 
L 98.436106 284.491636 
L 98.705818 295.488 
L 98.758137 284.491636 
L 99.028752 295.488 
L 99.081071 284.491636 
L 99.350783 295.488 
L 99.401298 284.491636 
L 99.671912 295.488 
L 99.722427 284.491636 
L 99.993042 295.488 
L 100.03634 284.491636 
L 100.306955 295.488 
L 100.352057 284.491636 
L 100.622672 295.488 
L 100.672284 284.491636 
L 100.942899 295.488 
L 100.989806 284.491636 
L 101.26042 295.488 
L 101.303719 284.491636 
L 101.574333 295.488 
L 101.616729 284.491636 
L 101.887344 295.488 
L 101.934251 284.491636 
L 102.204865 295.488 
L 102.257184 284.491636 
L 102.527799 295.488 
L 102.571097 284.491636 
L 102.841712 295.488 
L 102.887716 284.491636 
L 103.157429 295.488 
L 103.202531 284.491636 
L 103.473146 295.488 
L 103.520052 284.491636 
L 103.790667 295.488 
L 103.835769 284.491636 
L 104.106384 295.488 
L 104.155095 284.491636 
L 104.424807 295.488 
L 104.46991 284.491636 
L 104.740524 295.488 
L 104.779312 284.491636 
L 105.049927 295.488 
L 105.097735 284.491636 
L 105.36835 295.488 
L 105.414354 284.491636 
L 105.684969 295.488 
L 105.728267 284.491636 
L 105.998882 295.488 
L 106.035866 284.491636 
L 106.306481 295.488 
L 106.354289 284.491636 
L 106.624002 295.488 
L 106.666398 284.491636 
L 106.936111 295.488 
L 106.981213 284.491636 
L 107.251828 295.488 
L 107.299636 284.491636 
L 107.570251 295.488 
L 107.614451 284.491636 
L 107.885066 295.488 
L 107.932874 284.491636 
L 108.202587 295.488 
L 108.244983 284.491636 
L 108.515598 295.488 
L 108.55619 284.491636 
L 108.826805 295.488 
L 108.867397 284.491636 
L 109.138012 295.488 
L 109.182212 284.491636 
L 109.452827 295.488 
L 109.495223 284.491636 
L 109.764935 295.488 
L 109.810038 284.491636 
L 110.080652 295.488 
L 110.127559 284.491636 
L 110.398174 295.488 
L 111.88024 284.491636 
L 112.106654 273.495273 
L 112.150854 284.491636 
L 112.325852 273.495273 
L 112.376366 284.491636 
L 112.54956 273.495273 
L 112.596466 284.491636 
L 112.773268 273.495273 
L 112.820174 284.491636 
L 112.999682 273.495273 
L 113.04298 284.491636 
L 113.226998 273.495273 
L 113.270297 284.491636 
L 113.450706 273.495273 
L 113.497613 284.491636 
L 113.678023 273.495273 
L 113.721321 284.491636 
L 113.901731 273.495273 
L 113.948637 284.491636 
L 114.126341 273.495273 
L 114.171443 284.491636 
L 114.353657 273.495273 
L 114.396956 284.491636 
L 114.579169 273.495273 
L 114.624272 284.491636 
L 114.810094 273.495273 
L 114.849784 284.491636 
L 115.036508 273.495273 
L 115.080708 284.491636 
L 115.26202 273.495273 
L 115.306221 284.491636 
L 115.48663 273.495273 
L 115.532635 284.491636 
L 115.707632 273.495273 
L 115.757245 284.491636 
L 115.935851 273.495273 
L 115.978247 284.491636 
L 116.158657 273.495273 
L 116.206465 284.491636 
L 116.390483 273.495273 
L 116.428369 284.491636 
L 116.615093 273.495273 
L 116.661098 284.491636 
L 116.840605 273.495273 
L 116.885708 284.491636 
L 117.06702 273.495273 
L 117.11122 284.491636 
L 117.289826 273.495273 
L 117.337634 284.491636 
L 117.517142 273.495273 
L 117.56044 284.491636 
L 117.746262 273.495273 
L 117.787757 284.491636 
L 117.972677 273.495273 
L 118.015975 284.491636 
L 118.196385 273.495273 
L 118.242389 284.491636 
L 118.419191 273.495273 
L 118.466999 284.491636 
L 118.641095 273.495273 
L 118.689805 284.491636 
L 118.867509 273.495273 
L 118.911709 284.491636 
L 119.095727 273.495273 
L 119.137221 284.491636 
L 119.319435 273.495273 
L 119.366342 284.491636 
L 119.54585 273.495273 
L 119.59005 284.491636 
L 119.775872 273.495273 
L 119.816464 284.491636 
L 120.000482 273.495273 
L 120.046487 284.491636 
L 120.229602 273.495273 
L 120.271097 284.491636 
L 120.454213 273.495273 
L 120.500217 284.491636 
L 120.681529 273.495273 
L 120.724827 284.491636 
L 120.907041 273.495273 
L 120.952143 284.491636 
L 121.128945 273.495273 
L 121.176754 284.491636 
L 121.357163 273.495273 
L 121.39956 284.491636 
L 121.579067 273.495273 
L 121.627778 284.491636 
L 121.807286 273.495273 
L 121.849682 284.491636 
L 122.03821 273.495273 
L 122.0779 284.491636 
L 122.263722 273.495273 
L 122.308825 284.491636 
L 122.490136 273.495273 
L 122.533435 284.491636 
L 122.717453 273.495273 
L 122.760751 284.491636 
L 122.948377 273.495273 
L 122.988067 284.491636 
L 123.171183 273.495273 
L 123.218992 284.491636 
L 123.401206 273.495273 
L 123.441798 284.491636 
L 124.085861 251.502545 
L 127.248443 97.553455 
L 127.944825 108.549818 
L 128.177554 284.491636 
L 128.364278 273.495273 
L 128.415694 284.491636 
L 128.587986 273.495273 
L 128.63399 284.491636 
L 128.813498 273.495273 
L 128.857698 284.491636 
L 129.044422 273.495273 
L 129.084113 284.491636 
L 129.274445 273.495273 
L 129.315037 284.491636 
L 129.503565 273.495273 
L 129.545059 284.491636 
L 129.726371 273.495273 
L 129.77418 284.491636 
L 129.949177 273.495273 
L 129.996986 284.491636 
L 130.174689 273.495273 
L 130.219792 284.491636 
L 130.395691 273.495273 
L 130.445304 284.491636 
L 130.620301 273.495273 
L 130.666306 284.491636 
L 130.851226 273.495273 
L 130.890916 284.491636 
L 131.074934 273.495273 
L 131.120939 284.491636 
L 131.301348 273.495273 
L 131.345549 284.491636 
L 131.52686 273.495273 
L 131.571061 284.491636 
L 131.753275 273.495273 
L 131.797475 284.491636 
L 131.977885 273.495273 
L 132.022987 284.491636 
L 132.205201 273.495273 
L 132.248499 284.491636 
L 132.429811 273.495273 
L 132.475816 284.491636 
L 132.656225 273.495273 
L 132.700426 284.491636 
L 132.88264 273.495273 
L 132.925938 284.491636 
L 133.11176 273.495273 
L 133.153254 284.491636 
L 133.341782 273.495273 
L 133.381473 284.491636 
L 133.570001 273.495273 
L 133.611495 284.491636 
L 133.790101 273.495273 
L 133.839713 284.491636 
L 134.012005 273.495273 
L 134.060715 284.491636 
L 134.242929 273.495273 
L 134.282619 284.491636 
L 134.469343 273.495273 
L 134.512642 284.491636 
L 134.697562 273.495273 
L 134.739958 284.491636 
L 134.919466 273.495273 
L 134.968176 284.491636 
L 135.149488 273.495273 
L 135.19008 284.491636 
L 135.374098 273.495273 
L 135.420103 284.491636 
L 135.600512 273.495273 
L 135.643811 284.491636 
L 135.82422 273.495273 
L 135.871127 284.491636 
L 136.051537 273.495273 
L 136.094835 284.491636 
L 136.280657 273.495273 
L 136.322151 284.491636 
L 136.509777 273.495273 
L 136.551272 284.491636 
L 136.7398 273.495273 
L 136.780392 284.491636 
L 136.96441 273.495273 
L 137.010414 284.491636 
L 137.18902 273.495273 
L 137.234123 284.491636 
L 137.41363 273.495273 
L 137.459635 284.491636 
L 137.639142 273.495273 
L 137.683343 284.491636 
L 137.866459 273.495273 
L 137.908855 284.491636 
L 138.090167 273.495273 
L 138.137073 284.491636 
L 138.316581 273.495273 
L 138.359879 284.491636 
L 138.544799 273.495273 
L 138.587196 284.491636 
L 138.763997 273.495273 
L 138.814512 284.491636 
L 138.983195 273.495273 
L 139.03371 284.491636 
L 139.209609 273.495273 
L 139.25381 284.491636 
L 139.433317 273.495273 
L 139.480224 284.491636 
L 139.657025 273.495273 
L 139.70303 284.491636 
L 140.10805 262.498909 
L 140.136915 273.495273 
L 141.230198 218.513455 
L 143.71444 97.553455 
L 144.190722 108.549818 
L 144.423451 284.491636 
L 144.626412 273.495273 
L 144.67422 284.491636 
L 144.848316 273.495273 
L 144.896124 284.491636 
L 145.072926 273.495273 
L 145.11893 284.491636 
L 145.293928 273.495273 
L 145.342638 284.491636 
L 145.518538 273.495273 
L 145.564542 284.491636 
L 145.747658 273.495273 
L 145.789153 284.491636 
L 145.972268 273.495273 
L 146.018273 284.491636 
L 146.192368 273.495273 
L 146.241981 284.491636 
L 146.41337 273.495273 
L 146.462983 284.491636 
L 146.639784 273.495273 
L 146.683985 284.491636 
L 146.865297 273.495273 
L 146.910399 284.491636 
L 147.088103 273.495273 
L 147.135911 284.491636 
L 147.312713 273.495273 
L 147.357815 284.491636 
L 147.537323 273.495273 
L 147.583327 284.491636 
L 147.761933 273.495273 
L 147.807938 284.491636 
L 147.985641 273.495273 
L 148.032548 284.491636 
L 148.211153 273.495273 
L 148.256256 284.491636 
L 148.433057 273.495273 
L 148.480866 284.491636 
L 148.657667 273.495273 
L 148.70277 284.491636 
L 148.886788 273.495273 
L 148.928282 284.491636 
L 149.111398 273.495273 
L 149.157402 284.491636 
L 149.336008 273.495273 
L 149.382012 284.491636 
L 149.558814 273.495273 
L 149.605721 284.491636 
L 149.788836 273.495273 
L 149.828527 284.491636 
L 150.012545 273.495273 
L 150.058549 284.491636 
L 150.239861 273.495273 
L 150.283159 284.491636 
L 150.467177 273.495273 
L 150.509573 284.491636 
L 150.689081 273.495273 
L 150.737792 284.491636 
L 150.918201 273.495273 
L 150.959696 284.491636 
L 151.139203 273.495273 
L 151.188816 284.491636 
L 151.361107 273.495273 
L 151.409818 284.491636 
L 151.590228 273.495273 
L 151.631722 284.491636 
L 151.810328 273.495273 
L 151.860842 284.491636 
L 152.03584 273.495273 
L 152.080942 284.491636 
L 152.254136 273.495273 
L 152.306454 284.491636 
L 152.474235 273.495273 
L 152.52475 284.491636 
L 152.698846 273.495273 
L 152.74485 284.491636 
L 152.926162 273.495273 
L 152.968558 284.491636 
L 153.148968 273.495273 
L 153.196776 284.491636 
L 153.375382 273.495273 
L 153.419582 284.491636 
L 153.602698 273.495273 
L 153.645997 284.491636 
L 153.831819 273.495273 
L 153.873313 284.491636 
L 154.057331 273.495273 
L 154.102433 284.491636 
L 154.278333 273.495273 
L 154.327946 284.491636 
L 154.506551 273.495273 
L 154.548947 284.491636 
L 154.733867 273.495273 
L 154.776264 284.491636 
L 154.95938 273.495273 
L 155.004482 284.491636 
L 155.181284 273.495273 
L 155.229994 284.491636 
L 155.407698 273.495273 
L 155.451898 284.491636 
L 155.638622 273.495273 
L 155.67741 284.491636 
L 155.861428 273.495273 
L 155.909237 284.491636 
L 156.092353 273.495273 
L 156.132043 284.491636 
L 156.317865 273.495273 
L 156.362967 284.491636 
L 156.539769 273.495273 
L 156.58848 284.491636 
L 156.768889 273.495273 
L 156.810384 284.491636 
L 156.995304 273.495273 
L 157.038602 284.491636 
L 157.225326 273.495273 
L 157.265918 284.491636 
L 157.446328 273.495273 
L 157.495039 284.491636 
L 157.670036 273.495273 
L 157.716943 284.491636 
L 157.89645 273.495273 
L 157.940651 284.491636 
L 158.122864 273.495273 
L 158.166163 284.491636 
L 158.349279 273.495273 
L 158.393479 284.491636 
L 158.572987 273.495273 
L 158.619893 284.491636 
L 158.800303 273.495273 
L 158.842699 284.491636 
L 159.023109 273.495273 
L 159.070918 284.491636 
L 159.249523 273.495273 
L 159.293724 284.491636 
L 159.475938 273.495273 
L 159.520138 284.491636 
L 159.70145 273.495273 
L 159.746552 284.491636 
L 159.928766 273.495273 
L 159.972064 284.491636 
L 160.156984 273.495273 
L 160.199381 284.491636 
L 160.608009 262.498909 
L 160.634168 273.495273 
L 161.740982 218.513455 
L 163.987985 108.549818 
L 166.060893 119.546182 
L 166.281895 284.491636 
L 166.468619 273.495273 
L 166.510113 284.491636 
L 166.692327 273.495273 
L 166.738332 284.491636 
L 166.917839 273.495273 
L 166.962942 284.491636 
L 167.143352 273.495273 
L 167.188454 284.491636 
L 167.364353 273.495273 
L 167.413966 284.491636 
L 167.59167 273.495273 
L 167.634968 284.491636 
L 167.81628 273.495273 
L 167.862284 284.491636 
L 168.039988 273.495273 
L 168.085992 284.491636 
L 168.268206 273.495273 
L 168.310603 284.491636 
L 168.493718 273.495273 
L 168.538821 284.491636 
L 168.715622 273.495273 
L 168.764333 284.491636 
L 168.946547 273.495273 
L 168.985335 284.491636 
L 169.169353 273.495273 
L 169.217161 284.491636 
L 169.393963 273.495273 
L 169.439968 284.491636 
L 169.621279 273.495273 
L 169.664578 284.491636 
L 169.843183 273.495273 
L 169.891894 284.491636 
L 170.071402 273.495273 
L 170.113798 284.491636 
L 170.296012 273.495273 
L 170.342016 284.491636 
L 170.518818 273.495273 
L 170.565724 284.491636 
L 170.746134 273.495273 
L 170.78853 284.491636 
L 170.96894 273.495273 
L 171.016749 284.491636 
L 171.19355 273.495273 
L 171.238653 284.491636 
L 171.414552 273.495273 
L 171.464165 284.491636 
L 171.639162 273.495273 
L 171.684265 284.491636 
L 171.86287 273.495273 
L 171.908875 284.491636 
L 172.086578 273.495273 
L 172.133485 284.491636 
L 172.309384 273.495273 
L 172.356291 284.491636 
L 172.535799 273.495273 
L 172.579999 284.491636 
L 172.757703 273.495273 
L 172.805511 284.491636 
L 172.987725 273.495273 
L 173.027415 284.491636 
L 173.211433 273.495273 
L 173.25834 284.491636 
L 173.437847 273.495273 
L 173.482048 284.491636 
L 173.668772 273.495273 
L 173.708462 284.491636 
L 173.891578 273.495273 
L 173.939386 284.491636 
L 174.116188 273.495273 
L 174.162192 284.491636 
L 174.33719 273.495273 
L 174.386803 284.491636 
L 174.558192 273.495273 
L 174.607805 284.491636 
L 174.782802 273.495273 
L 174.828806 284.491636 
L 175.01102 273.495273 
L 175.053417 284.491636 
L 175.232022 273.495273 
L 175.280733 284.491636 
L 175.45573 273.495273 
L 175.502637 284.491636 
L 175.686655 273.495273 
L 175.725443 284.491636 
L 175.909461 273.495273 
L 175.957269 284.491636 
L 176.137679 273.495273 
L 176.180075 284.491636 
L 176.360485 273.495273 
L 176.407392 284.491636 
L 176.590508 273.495273 
L 176.630198 284.491636 
L 176.816922 273.495273 
L 176.86022 284.491636 
L 177.04063 273.495273 
L 177.086634 284.491636 
L 177.270652 273.495273 
L 177.311245 284.491636 
L 177.49436 273.495273 
L 177.541267 284.491636 
L 177.718971 273.495273 
L 177.764975 284.491636 
L 177.942679 273.495273 
L 177.988683 284.491636 
L 178.169093 273.495273 
L 178.213293 284.491636 
L 178.391899 273.495273 
L 178.439707 284.491636 
L 178.622823 273.495273 
L 178.661611 284.491636 
L 178.843825 273.495273 
L 178.892536 284.491636 
L 179.070239 273.495273 
L 179.113538 284.491636 
L 179.297556 273.495273 
L 179.340854 284.491636 
L 179.526676 273.495273 
L 179.56817 284.491636 
L 179.74858 273.495273 
L 179.796389 284.491636 
L 180.019195 295.488 
L 181.404742 284.491636 
L 181.675356 295.488 
L 181.722263 284.491636 
L 181.992877 295.488 
L 182.034372 284.491636 
L 184.844253 185.524364 
L 187.481844 196.520727 
L 187.701041 185.524364 
L 192.894136 196.520727 
L 193.142199 284.491636 
L 193.330727 295.488 
L 193.38034 284.491636 
L 193.650955 295.488 
L 193.696959 284.491636 
L 193.967574 295.488 
L 194.009068 284.491636 
L 194.279683 295.488 
L 194.320275 284.491636 
L 194.59089 295.488 
L 194.636894 284.491636 
L 197.440461 185.524364 
L 203.71872 196.520727 
L 204.03985 295.488 
L 204.07954 284.491636 
L 204.350154 295.488 
L 204.399767 284.491636 
L 204.670382 295.488 
L 204.71368 284.491636 
L 204.983393 295.488 
L 205.034809 284.491636 
L 205.305424 295.488 
L 205.350526 284.491636 
L 205.621141 295.488 
L 205.663537 284.491636 
L 205.934152 295.488 
L 205.979254 284.491636 
L 206.248967 295.488 
L 206.297678 284.491636 
L 206.568292 295.488 
L 206.60708 284.491636 
L 206.877695 295.488 
L 206.923699 284.491636 
L 207.194314 295.488 
L 207.246633 284.491636 
L 207.516345 295.488 
L 207.556036 284.491636 
L 207.82665 295.488 
L 207.86634 284.491636 
L 208.136053 295.488 
L 208.182959 284.491636 
L 208.453574 295.488 
L 208.49597 284.491636 
L 208.766585 295.488 
L 208.818904 284.491636 
L 209.088616 295.488 
L 209.128306 284.491636 
L 209.398921 295.488 
L 209.436807 284.491636 
L 209.70652 295.488 
L 209.751622 284.491636 
L 210.022237 295.488 
L 210.071849 284.491636 
L 210.342464 295.488 
L 210.38486 284.491636 
L 210.655475 295.488 
L 210.705088 284.491636 
L 210.975702 295.488 
L 211.026217 284.491636 
L 211.296832 295.488 
L 211.34464 284.491636 
L 211.615255 295.488 
L 211.662161 284.491636 
L 211.932776 295.488 
L 211.983291 284.491636 
L 212.253905 295.488 
L 212.29991 284.491636 
L 212.570524 295.488 
L 212.612019 284.491636 
L 212.882633 295.488 
L 212.925029 284.491636 
L 213.195644 295.488 
L 213.236236 284.491636 
L 213.506851 295.488 
L 213.557366 284.491636 
L 213.827078 295.488 
L 213.880299 284.491636 
L 214.150012 295.488 
L 214.19331 284.491636 
L 214.463925 295.488 
L 214.510831 284.491636 
L 214.781446 295.488 
L 214.823842 284.491636 
L 215.094457 295.488 
L 215.147677 284.491636 
L 215.418292 295.488 
L 215.464297 284.491636 
L 215.734911 295.488 
L 215.785426 284.491636 
L 216.055138 295.488 
L 216.096633 284.491636 
L 216.366345 295.488 
L 216.407839 284.491636 
L 216.678454 295.488 
L 216.727165 284.491636 
L 216.997779 295.488 
L 217.037469 284.491636 
L 217.308084 295.488 
L 217.35048 284.491636 
L 217.621095 295.488 
L 217.657177 284.491636 
L 217.927792 295.488 
L 217.963874 284.491636 
L 218.234488 295.488 
L 218.272374 284.491636 
L 218.542989 295.488 
L 218.593504 284.491636 
L 219.852764 240.506182 
L 220.097219 251.502545 
L 220.209975 284.491636 
L 220.430075 295.488 
L 220.479687 284.491636 
L 220.750302 295.488 
L 220.792698 284.491636 
L 221.062411 295.488 
L 221.104807 284.491636 
L 221.375422 295.488 
L 221.41872 284.491636 
L 221.688433 295.488 
L 221.731731 284.491636 
L 222.002346 295.488 
L 222.056468 284.491636 
L 222.326181 295.488 
L 222.374892 284.491636 
L 222.645506 295.488 
L 222.691511 284.491636 
L 222.962125 295.488 
L 223.009934 284.491636 
L 223.280549 295.488 
L 223.325651 284.491636 
L 223.596266 295.488 
L 223.641368 284.491636 
L 223.911983 295.488 
L 223.957085 284.491636 
L 224.226798 295.488 
L 224.270998 284.491636 
L 224.540711 295.488 
L 224.590323 284.491636 
L 224.860036 295.488 
L 224.913257 284.491636 
L 225.182969 295.488 
L 225.217247 284.491636 
L 225.487862 295.488 
L 225.534768 284.491636 
L 225.805383 295.488 
L 225.844171 284.491636 
L 226.114786 295.488 
L 226.15628 284.491636 
L 226.426894 295.488 
L 226.473801 284.491636 
L 226.744416 295.488 
L 226.782302 284.491636 
L 227.052916 295.488 
L 227.094411 284.491636 
L 227.365025 295.488 
L 227.412834 284.491636 
L 227.683448 295.488 
L 227.721334 284.491636 
L 227.991949 295.488 
L 228.037051 284.491636 
L 228.306764 295.488 
L 228.356377 284.491636 
L 228.626089 295.488 
L 228.6748 284.491636 
L 228.945414 295.488 
L 229.971946 284.491636 
L 230.156866 273.495273 
L 230.241658 284.491636 
L 230.335472 273.495273 
L 230.42748 284.491636 
L 230.511371 273.495273 
L 230.606086 284.491636 
L 230.692683 273.495273 
L 230.781986 284.491636 
L 230.868582 273.495273 
L 230.962395 284.491636 
L 231.050796 273.495273 
L 231.139197 284.491636 
L 231.229402 273.495273 
L 231.321411 284.491636 
L 231.407105 273.495273 
L 231.500016 284.491636 
L 231.590221 273.495273 
L 231.676818 284.491636 
L 231.770631 273.495273 
L 231.860836 284.491636 
L 231.949237 273.495273 
L 232.041246 284.491636 
L 232.124234 273.495273 
L 232.219851 284.491636 
L 232.304644 273.495273 
L 232.394849 284.491636 
L 232.479641 273.495273 
L 232.574356 284.491636 
L 232.660953 273.495273 
L 232.750256 284.491636 
L 232.846775 273.495273 
L 232.931568 284.491636 
L 233.028989 273.495273 
L 233.116488 284.491636 
L 233.210301 273.495273 
L 233.299604 284.491636 
L 233.3862 273.495273 
L 233.480915 284.491636 
L 233.567512 273.495273 
L 233.656815 284.491636 
L 233.747922 273.495273 
L 233.838127 284.491636 
L 233.923821 273.495273 
L 234.018536 284.491636 
L 234.106035 273.495273 
L 234.193534 284.491636 
L 234.281033 273.495273 
L 234.375748 284.491636 
L 234.459638 273.495273 
L 234.551647 284.491636 
L 234.639146 273.495273 
L 234.729351 284.491636 
L 234.817752 273.495273 
L 234.908858 284.491636 
L 234.993651 273.495273 
L 235.088366 284.491636 
L 235.169551 273.495273 
L 235.264266 284.491636 
L 235.350862 273.495273 
L 235.439263 284.491636 
L 235.532174 273.495273 
L 235.621477 284.491636 
L 235.712584 273.495273 
L 235.801887 284.491636 
L 235.891189 273.495273 
L 235.983198 284.491636 
L 236.071599 273.495273 
L 236.161804 284.491636 
L 236.248401 273.495273 
L 236.342214 284.491636 
L 236.426104 273.495273 
L 236.519015 284.491636 
L 236.610122 273.495273 
L 236.696719 284.491636 
L 236.793238 273.495273 
L 236.880737 284.491636 
L 237.156764 262.498909 
L 237.230732 273.495273 
L 237.516681 251.502545 
L 240.760448 53.568 
L 241.604766 64.564364 
L 241.836593 284.491636 
L 241.847417 273.495273 
L 241.937622 284.491636 
L 242.028729 273.495273 
L 242.11713 284.491636 
L 242.209139 273.495273 
L 242.299343 284.491636 
L 242.39045 273.495273 
L 242.479753 284.491636 
L 242.569958 273.495273 
L 242.661065 284.491636 
L 242.74676 273.495273 
L 242.840573 284.491636 
L 242.925365 273.495273 
L 243.017374 284.491636 
L 243.106677 273.495273 
L 243.19598 284.491636 
L 243.287087 273.495273 
L 243.377292 284.491636 
L 243.462986 273.495273 
L 243.557701 284.491636 
L 243.638886 273.495273 
L 243.732699 284.491636 
L 243.815687 273.495273 
L 243.9095 284.491636 
L 243.999705 273.495273 
L 244.086302 284.491636 
L 244.176507 273.495273 
L 244.27032 284.491636 
L 244.361427 273.495273 
L 244.447121 284.491636 
L 244.545445 273.495273 
L 244.631139 284.491636 
L 244.721344 273.495273 
L 244.816059 284.491636 
L 244.902656 273.495273 
L 244.991959 284.491636 
L 245.083066 273.495273 
L 245.173271 284.491636 
L 245.264378 273.495273 
L 245.352778 284.491636 
L 245.446591 273.495273 
L 245.534992 284.491636 
L 245.629707 273.495273 
L 245.717206 284.491636 
L 245.807411 273.495273 
L 245.89942 284.491636 
L 245.986017 273.495273 
L 246.077123 284.491636 
L 246.165524 273.495273 
L 246.255729 284.491636 
L 246.349542 273.495273 
L 246.436139 284.491636 
L 246.528148 273.495273 
L 246.620157 284.491636 
L 246.706753 273.495273 
L 246.798762 284.491636 
L 246.888967 273.495273 
L 246.977368 284.491636 
L 247.070279 273.495273 
L 247.159582 284.491636 
L 247.246179 273.495273 
L 247.340894 284.491636 
L 247.429294 273.495273 
L 247.516793 284.491636 
L 247.609704 273.495273 
L 247.699007 284.491636 
L 247.791918 273.495273 
L 247.879417 284.491636 
L 247.972328 273.495273 
L 248.062533 284.491636 
L 248.151835 273.495273 
L 248.242942 284.491636 
L 248.334951 273.495273 
L 248.42245 284.491636 
L 248.518969 273.495273 
L 248.604664 284.491636 
L 248.700281 273.495273 
L 248.789584 284.491636 
L 248.881593 273.495273 
L 248.969994 284.491636 
L 249.060199 273.495273 
L 249.152208 284.491636 
L 249.245119 273.495273 
L 249.330813 284.491636 
L 249.42192 273.495273 
L 249.515733 284.491636 
L 249.607742 273.495273 
L 249.692535 284.491636 
L 249.790858 273.495273 
L 249.878357 284.491636 
L 249.969464 273.495273 
L 250.061473 284.491636 
L 250.15258 273.495273 
L 250.240078 284.491636 
L 250.328479 273.495273 
L 250.423194 284.491636 
L 250.508889 273.495273 
L 250.599094 284.491636 
L 250.687494 273.495273 
L 250.778601 284.491636 
L 250.87061 273.495273 
L 250.958109 284.491636 
L 251.051922 273.495273 
L 251.141225 284.491636 
L 251.234136 273.495273 
L 251.321635 284.491636 
L 251.413644 273.495273 
L 251.504751 284.491636 
L 251.595857 273.495273 
L 251.684258 284.491636 
L 251.771757 273.495273 
L 251.86557 284.491636 
L 251.948558 273.495273 
L 252.04147 284.491636 
L 252.130772 273.495273 
L 252.219173 284.491636 
L 252.31479 273.495273 
L 252.401387 284.491636 
L 252.497004 273.495273 
L 252.585405 284.491636 
L 252.681022 273.495273 
L 252.767619 284.491636 
L 252.857824 273.495273 
L 252.951637 284.491636 
L 253.032821 273.495273 
L 253.127536 284.491636 
L 253.215937 273.495273 
L 253.303436 284.491636 
L 253.398151 273.495273 
L 253.486552 284.491636 
L 253.576756 273.495273 
L 253.668765 284.491636 
L 253.75446 273.495273 
L 253.847371 284.491636 
L 253.932164 273.495273 
L 254.025075 284.491636 
L 254.110769 273.495273 
L 254.201876 284.491636 
L 254.288473 273.495273 
L 254.380482 284.491636 
L 254.469785 273.495273 
L 254.559087 284.491636 
L 254.650194 273.495273 
L 254.739497 284.491636 
L 254.8288 273.495273 
L 254.920809 284.491636 
L 255.005602 273.495273 
L 255.099415 284.491636 
L 255.185109 273.495273 
L 255.276216 284.491636 
L 255.365519 273.495273 
L 255.455724 284.491636 
L 255.545027 273.495273 
L 255.636134 284.491636 
L 255.723632 273.495273 
L 255.815641 284.491636 
L 255.905846 273.495273 
L 255.994247 284.491636 
L 256.090766 273.495273 
L 256.176461 284.491636 
L 256.27298 273.495273 
L 256.361381 284.491636 
L 256.452488 273.495273 
L 256.543595 284.491636 
L 256.633799 273.495273 
L 256.7222 284.491636 
L 256.815111 273.495273 
L 256.904414 284.491636 
L 256.993717 273.495273 
L 257.085726 284.491636 
L 257.17142 273.495273 
L 257.264332 284.491636 
L 257.35183 273.495273 
L 257.442035 284.491636 
L 257.534044 273.495273 
L 257.622445 284.491636 
L 257.710846 273.495273 
L 257.803757 284.491636 
L 257.892157 273.495273 
L 257.980558 284.491636 
L 258.074371 273.495273 
L 258.162772 284.491636 
L 258.254781 273.495273 
L 258.344986 284.491636 
L 258.437897 273.495273 
L 258.525396 284.491636 
L 258.6156 273.495273 
L 258.708511 284.491636 
L 258.802325 273.495273 
L 258.886215 284.491636 
L 258.981832 273.495273 
L 259.072037 284.491636 
L 259.160438 273.495273 
L 259.251545 284.491636 
L 259.344456 273.495273 
L 259.43015 284.491636 
L 259.525768 273.495273 
L 259.614168 284.491636 
L 259.706177 273.495273 
L 259.79548 284.491636 
L 259.886587 273.495273 
L 259.976792 284.491636 
L 260.063389 273.495273 
L 260.1563 284.491636 
L 260.242896 273.495273 
L 260.334003 284.491636 
L 260.424208 273.495273 
L 260.512609 284.491636 
L 260.602814 273.495273 
L 260.693921 284.491636 
L 260.782321 273.495273 
L 260.872526 284.491636 
L 260.962731 273.495273 
L 261.052936 284.491636 
L 261.144945 273.495273 
L 261.233346 284.491636 
L 261.328963 273.495273 
L 261.41556 284.491636 
L 261.512079 273.495273 
L 261.598676 284.491636 
L 261.691587 273.495273 
L 261.782693 284.491636 
L 261.870192 273.495273 
L 261.961299 284.491636 
L 262.05421 273.495273 
L 262.140807 284.491636 
L 262.236424 273.495273 
L 262.324825 284.491636 
L 262.41503 273.495273 
L 262.507039 284.491636 
L 262.592733 273.495273 
L 262.684742 284.491636 
L 262.772241 273.495273 
L 262.862446 284.491636 
L 262.953553 273.495273 
L 263.041953 284.491636 
L 263.136669 273.495273 
L 263.224167 284.491636 
L 263.315274 273.495273 
L 263.407283 284.491636 
L 263.492978 273.495273 
L 263.585889 284.491636 
L 263.67429 273.495273 
L 263.76269 284.491636 
L 263.853797 273.495273 
L 263.944904 284.491636 
L 264.032403 273.495273 
L 264.124412 284.491636 
L 264.211911 273.495273 
L 264.303018 284.491636 
L 264.394124 273.495273 
L 264.482525 284.491636 
L 264.576338 273.495273 
L 264.664739 284.491636 
L 264.759454 273.495273 
L 264.846953 284.491636 
L 264.935354 273.495273 
L 265.030069 284.491636 
L 265.114861 273.495273 
L 265.205968 284.491636 
L 265.296173 273.495273 
L 265.385476 284.491636 
L 265.479289 273.495273 
L 265.566788 284.491636 
L 265.659699 273.495273 
L 265.749904 284.491636 
L 265.841011 273.495273 
L 265.930313 284.491636 
L 266.02142 273.495273 
L 266.110723 284.491636 
L 266.20634 273.495273 
L 266.292035 284.491636 
L 266.384946 273.495273 
L 266.476053 284.491636 
L 266.566258 273.495273 
L 266.655561 284.491636 
L 266.743059 273.495273 
L 266.83597 284.491636 
L 266.923469 273.495273 
L 267.013674 284.491636 
L 267.100271 273.495273 
L 267.194084 284.491636 
L 267.278876 273.495273 
L 267.370885 284.491636 
L 267.459286 273.495273 
L 267.548589 284.491636 
L 267.640598 273.495273 
L 267.729901 284.491636 
L 267.825518 273.495273 
L 267.911212 284.491636 
L 268.005025 273.495273 
L 268.09523 284.491636 
L 268.184533 273.495273 
L 268.27564 284.491636 
L 268.367649 273.495273 
L 268.455148 284.491636 
L 268.542646 273.495273 
L 268.637362 284.491636 
L 268.726664 273.495273 
L 268.813261 284.491636 
L 268.911584 273.495273 
L 268.997279 284.491636 
L 269.092896 273.495273 
L 269.182199 284.491636 
L 269.274208 273.495273 
L 269.363511 284.491636 
L 269.454618 273.495273 
L 269.544823 284.491636 
L 269.635027 273.495273 
L 269.72433 284.491636 
L 269.816339 273.495273 
L 269.90474 284.491636 
L 269.999455 273.495273 
L 270.086052 284.491636 
L 270.180767 273.495273 
L 270.27007 284.491636 
L 270.360275 273.495273 
L 270.451382 284.491636 
L 270.53888 273.495273 
L 270.630889 284.491636 
L 270.718388 273.495273 
L 270.809495 284.491636 
L 270.902406 273.495273 
L 270.989003 284.491636 
L 271.079207 273.495273 
L 271.17302 284.491636 
L 271.256009 273.495273 
L 271.34892 284.491636 
L 271.431006 273.495273 
L 271.525722 284.491636 
L 271.609612 273.495273 
L 271.700719 284.491636 
L 271.790924 273.495273 
L 271.880227 284.491636 
L 271.974942 273.495273 
L 272.061538 284.491636 
L 272.152645 273.495273 
L 272.245556 284.491636 
L 272.331251 273.495273 
L 272.42326 284.491636 
L 272.509857 273.495273 
L 272.600964 284.491636 
L 272.690266 273.495273 
L 272.780471 284.491636 
L 272.870676 273.495273 
L 272.959979 284.491636 
L 273.05289 273.495273 
L 273.140389 284.491636 
L 273.231496 273.495273 
L 273.322603 284.491636 
L 273.409199 273.495273 
L 273.501208 284.491636 
L 273.590511 273.495273 
L 273.678912 284.491636 
L 273.772725 273.495273 
L 273.860224 284.491636 
L 273.952233 273.495273 
L 274.043339 284.491636 
L 274.135348 273.495273 
L 274.221945 284.491636 
L 274.313954 273.495273 
L 274.405963 284.491636 
L 274.490756 273.495273 
L 274.583667 284.491636 
L 274.671165 273.495273 
L 274.76137 284.491636 
L 274.856085 273.495273 
L 274.94178 284.491636 
L 275.034691 273.495273 
L 275.125798 284.491636 
L 275.216905 273.495273 
L 275.305306 284.491636 
L 275.394608 273.495273 
L 275.487519 284.491636 
L 275.57592 273.495273 
L 275.664321 284.491636 
L 275.759938 273.495273 
L 275.846535 284.491636 
L 275.938544 273.495273 
L 276.030553 284.491636 
L 276.119856 273.495273 
L 276.208256 284.491636 
L 276.296657 273.495273 
L 276.39047 284.491636 
L 276.477969 273.495273 
L 276.567272 284.491636 
L 276.657477 273.495273 
L 276.747681 284.491636 
L 276.836082 273.495273 
L 276.928091 284.491636 
L 277.01108 273.495273 
L 277.105795 284.491636 
L 277.189685 273.495273 
L 277.280792 284.491636 
L 277.369193 273.495273 
L 277.4603 284.491636 
L 277.551407 273.495273 
L 277.639808 284.491636 
L 277.726404 273.495273 
L 277.822022 284.491636 
L 277.907716 273.495273 
L 277.997019 284.491636 
L 278.088126 273.495273 
L 278.178331 284.491636 
L 278.269438 273.495273 
L 278.35874 284.491636 
L 278.446239 273.495273 
L 278.540052 284.491636 
L 278.628453 273.495273 
L 278.716854 284.491636 
L 278.813373 273.495273 
L 278.898166 284.491636 
L 278.993783 273.495273 
L 279.083086 284.491636 
L 279.175997 273.495273 
L 279.264397 284.491636 
L 279.355504 273.495273 
L 279.446611 284.491636 
L 279.531404 273.495273 
L 279.625217 284.491636 
L 279.717226 273.495273 
L 279.802018 284.491636 
L 279.897636 273.495273 
L 279.98784 284.491636 
L 280.073535 273.495273 
L 280.16825 284.491636 
L 280.253945 273.495273 
L 280.34415 284.491636 
L 280.429844 273.495273 
L 280.524559 284.491636 
L 280.610254 273.495273 
L 280.700459 284.491636 
L 280.790664 273.495273 
L 280.880869 284.491636 
L 280.975584 273.495273 
L 281.061278 284.491636 
L 281.160504 273.495273 
L 281.246198 284.491636 
L 281.339109 273.495273 
L 281.431118 284.491636 
L 281.517715 273.495273 
L 281.609724 284.491636 
L 281.697223 273.495273 
L 281.787428 284.491636 
L 281.874926 273.495273 
L 281.967837 284.491636 
L 282.055336 273.495273 
L 282.145541 284.491636 
L 282.232138 273.495273 
L 282.325049 284.491636 
L 282.412547 273.495273 
L 282.50185 284.491636 
L 282.598369 273.495273 
L 282.68226 284.491636 
L 282.776975 273.495273 
L 282.868082 284.491636 
L 282.953777 273.495273 
L 283.04759 284.491636 
L 283.13599 273.495273 
L 283.224391 284.491636 
L 283.314596 273.495273 
L 283.406605 284.491636 
L 283.495908 273.495273 
L 283.585211 284.491636 
L 283.674514 273.495273 
L 283.76562 284.491636 
L 283.854923 273.495273 
L 283.945128 284.491636 
L 284.038039 273.495273 
L 284.125538 284.491636 
L 284.214841 273.495273 
L 284.307752 284.491636 
L 284.39525 273.495273 
L 284.485455 284.491636 
L 284.57566 273.495273 
L 284.665865 284.491636 
L 284.752462 273.495273 
L 284.846275 284.491636 
L 284.931969 273.495273 
L 285.023076 284.491636 
L 285.110575 273.495273 
L 285.202584 284.491636 
L 285.290083 273.495273 
L 285.38119 284.491636 
L 285.474101 273.495273 
L 285.560697 284.491636 
L 285.655412 273.495273 
L 285.744715 284.491636 
L 285.831312 273.495273 
L 285.926027 284.491636 
L 286.009016 273.495273 
L 286.101025 284.491636 
L 286.184915 273.495273 
L 286.278728 284.491636 
L 286.364423 273.495273 
L 286.454628 284.491636 
L 286.549343 273.495273 
L 286.635037 284.491636 
L 286.731557 273.495273 
L 286.819055 284.491636 
L 286.912868 273.495273 
L 287.002171 284.491636 
L 287.088768 273.495273 
L 287.182581 284.491636 
L 287.269178 273.495273 
L 287.359382 284.491636 
L 287.450489 273.495273 
L 287.539792 284.491636 
L 287.629095 273.495273 
L 287.721104 284.491636 
L 287.808603 273.495273 
L 287.89971 284.491636 
L 287.989915 273.495273 
L 288.079217 284.491636 
L 288.17303 273.495273 
L 288.259627 284.491636 
L 288.350734 273.495273 
L 288.442743 284.491636 
L 288.532046 273.495273 
L 288.620447 284.491636 
L 288.713358 273.495273 
L 288.80266 284.491636 
L 288.892865 273.495273 
L 288.983972 284.491636 
L 289.071471 273.495273 
L 289.16348 284.491636 
L 289.251881 273.495273 
L 289.342086 284.491636 
L 289.429584 273.495273 
L 289.522495 284.491636 
L 289.609994 273.495273 
L 289.700199 284.491636 
L 289.7886 273.495273 
L 289.880609 284.491636 
L 289.969009 273.495273 
L 290.059214 284.491636 
L 290.147615 273.495273 
L 290.239624 284.491636 
L 290.328025 273.495273 
L 290.41823 284.491636 
L 290.504826 273.495273 
L 290.598639 284.491636 
L 290.685236 273.495273 
L 290.775441 284.491636 
L 290.868352 273.495273 
L 290.955851 284.491636 
L 291.04786 273.495273 
L 291.138967 284.491636 
L 291.230073 273.495273 
L 291.318474 284.491636 
L 291.414091 273.495273 
L 291.500688 284.491636 
L 291.594501 273.495273 
L 291.683804 284.491636 
L 291.777617 273.495273 
L 291.865116 284.491636 
L 291.958929 273.495273 
L 292.048232 284.491636 
L 292.139339 273.495273 
L 292.229543 284.491636 
L 292.318846 273.495273 
L 292.409051 284.491636 
L 292.50106 273.495273 
L 292.589461 284.491636 
L 292.68598 273.495273 
L 292.771675 284.491636 
L 292.86639 273.495273 
L 292.956595 284.491636 
L 293.044995 273.495273 
L 293.136102 284.491636 
L 293.224503 273.495273 
L 293.31561 284.491636 
L 293.407619 273.495273 
L 293.495118 284.491636 
L 293.588931 273.495273 
L 293.677332 284.491636 
L 293.773851 273.495273 
L 293.859545 284.491636 
L 293.955163 273.495273 
L 294.044465 284.491636 
L 294.136474 273.495273 
L 294.225777 284.491636 
L 294.317786 273.495273 
L 294.407089 284.491636 
L 294.49549 273.495273 
L 294.588401 284.491636 
L 294.673193 273.495273 
L 294.765202 284.491636 
L 294.851799 273.495273 
L 294.942906 284.491636 
L 295.033111 273.495273 
L 295.122414 284.491636 
L 295.213521 273.495273 
L 295.303725 284.491636 
L 295.397538 273.495273 
L 295.668153 295.488 
L 296.492626 284.491636 
L 299.318744 185.524364 
L 301.139981 196.520727 
L 301.489975 295.488 
L 301.542294 284.491636 
L 301.812007 295.488 
L 301.858913 284.491636 
L 302.128626 295.488 
L 302.175532 284.491636 
L 302.445245 295.488 
L 302.49125 284.491636 
L 302.761864 295.488 
L 302.807869 284.491636 
L 303.078483 295.488 
L 303.130802 284.491636 
L 303.401417 295.488 
L 303.451029 284.491636 
L 303.721644 295.488 
L 303.770355 284.491636 
L 304.040969 295.488 
L 304.090582 284.491636 
L 304.361196 295.488 
L 304.406299 284.491636 
L 304.676011 295.488 
L 304.726526 284.491636 
L 304.997141 295.488 
L 305.050362 284.491636 
L 305.320976 295.488 
L 305.360666 284.491636 
L 305.631281 295.488 
L 305.672775 284.491636 
L 305.94339 295.488 
L 305.98759 284.491636 
L 306.258205 295.488 
L 306.30872 284.491636 
L 306.579334 295.488 
L 306.621731 284.491636 
L 306.892345 295.488 
L 306.939252 284.491636 
L 307.209866 295.488 
L 307.255871 284.491636 
L 307.525583 295.488 
L 307.577902 284.491636 
L 307.848517 295.488 
L 307.894521 284.491636 
L 308.164234 295.488 
L 308.209336 284.491636 
L 308.479951 295.488 
L 308.521445 284.491636 
L 308.79206 295.488 
L 308.830848 284.491636 
L 309.101462 295.488 
L 309.147467 284.491636 
L 309.417179 295.488 
L 309.46138 284.491636 
L 309.731994 295.488 
L 309.774391 284.491636 
L 310.045005 295.488 
L 310.084696 284.491636 
L 310.354408 295.488 
L 310.396804 284.491636 
L 310.667419 295.488 
L 310.705305 284.491636 
L 310.975018 295.488 
L 311.023728 284.491636 
L 311.294343 295.488 
L 311.341249 284.491636 
L 311.611864 295.488 
L 311.653358 284.491636 
L 311.923071 295.488 
L 311.960957 284.491636 
L 312.231571 295.488 
L 312.27938 284.491636 
L 312.549995 295.488 
L 312.603215 284.491636 
L 312.87383 295.488 
L 312.926149 284.491636 
L 313.196764 295.488 
L 313.242768 284.491636 
L 313.513383 295.488 
L 313.554877 284.491636 
L 313.825491 295.488 
L 313.875104 284.491636 
L 314.144817 295.488 
L 314.195331 284.491636 
L 314.465946 295.488 
L 314.515559 284.491636 
L 314.786173 295.488 
L 314.825863 284.491636 
L 315.096478 295.488 
L 315.142483 284.491636 
L 315.413097 295.488 
L 315.450081 284.491636 
L 315.720696 295.488 
L 315.759484 284.491636 
L 316.030099 295.488 
L 316.081515 284.491636 
L 316.35213 295.488 
L 316.399036 284.491636 
L 316.669651 295.488 
L 316.721068 284.491636 
L 316.991682 295.488 
L 317.039491 284.491636 
L 317.310106 295.488 
L 317.358816 284.491636 
L 317.629431 295.488 
L 317.676337 284.491636 
L 317.946952 295.488 
L 317.992957 284.491636 
L 318.263571 295.488 
L 318.314086 284.491636 
L 318.5847 295.488 
L 318.627097 284.491636 
L 318.897711 295.488 
L 318.939206 284.491636 
L 319.208918 295.488 
L 319.256727 284.491636 
L 319.526439 295.488 
L 319.565227 284.491636 
L 319.835842 295.488 
L 319.881846 284.491636 
L 320.151559 295.488 
L 320.20027 284.491636 
L 320.470884 295.488 
L 320.515987 284.491636 
L 320.785699 295.488 
L 320.831704 284.491636 
L 321.101416 295.488 
L 321.152833 284.491636 
L 321.422546 295.488 
L 321.475767 284.491636 
L 321.746381 295.488 
L 321.787875 284.491636 
L 322.05849 295.488 
L 322.105397 284.491636 
L 322.375109 295.488 
L 322.425624 284.491636 
L 322.696238 295.488 
L 322.747655 284.491636 
L 323.01827 295.488 
L 323.06247 284.491636 
L 323.333085 295.488 
L 323.379991 284.491636 
L 323.650606 295.488 
L 323.690296 284.491636 
L 323.960911 295.488 
L 324.000601 284.491636 
L 324.270313 295.488 
L 324.31722 284.491636 
L 324.587835 295.488 
L 324.630231 284.491636 
L 324.900845 295.488 
L 324.945046 284.491636 
L 325.214758 295.488 
L 325.266175 284.491636 
L 325.535888 295.488 
L 325.580088 284.491636 
L 325.850703 295.488 
L 325.899413 284.491636 
L 326.170028 295.488 
L 326.221445 284.491636 
L 326.492059 295.488 
L 326.537162 284.491636 
L 326.807776 295.488 
L 326.850173 284.491636 
L 327.120787 295.488 
L 327.160477 284.491636 
L 330.015462 185.524364 
L 333.744531 196.520727 
L 334.060248 295.488 
L 334.110763 284.491636 
L 334.381377 295.488 
L 334.425578 284.491636 
L 334.696192 295.488 
L 334.740393 284.491636 
L 335.011007 295.488 
L 335.05611 284.491636 
L 335.326724 295.488 
L 335.370925 284.491636 
L 335.641539 295.488 
L 336.498486 284.491636 
L 336.722194 273.495273 
L 336.7691 284.491636 
L 336.948608 273.495273 
L 336.992808 284.491636 
L 337.175022 273.495273 
L 337.219223 284.491636 
L 337.401436 273.495273 
L 337.445637 284.491636 
L 337.626047 273.495273 
L 337.672051 284.491636 
L 337.847951 273.495273 
L 337.896661 284.491636 
L 338.072561 273.495273 
L 338.118565 284.491636 
L 338.297171 273.495273 
L 338.342273 284.491636 
L 338.528095 273.495273 
L 338.566883 284.491636 
L 338.753607 273.495273 
L 338.797808 284.491636 
L 339.201024 262.498909 
L 339.227183 273.495273 
L 340.330389 218.513455 
L 342.816435 97.553455 
L 344.658418 108.549818 
L 344.892049 284.491636 
L 345.060732 273.495273 
L 345.103128 284.491636 
L 345.285342 273.495273 
L 345.331347 284.491636 
L 345.506344 273.495273 
L 345.555957 284.491636 
L 345.735464 273.495273 
L 345.776959 284.491636 
L 345.959173 273.495273 
L 346.006079 284.491636 
L 346.184685 273.495273 
L 346.229787 284.491636 
L 346.413805 273.495273 
L 346.454397 284.491636 
L 346.642925 273.495273 
L 346.68442 284.491636 
L 346.863025 273.495273 
L 346.912638 284.491636 
L 347.086733 273.495273 
L 347.13364 284.491636 
L 347.31405 273.495273 
L 347.357348 284.491636 
L 347.537758 273.495273 
L 347.584664 284.491636 
L 347.76327 273.495273 
L 347.808372 284.491636 
L 347.989684 273.495273 
L 348.032982 284.491636 
L 348.216098 273.495273 
L 348.260299 284.491636 
L 348.438002 273.495273 
L 348.485811 284.491636 
L 348.659004 273.495273 
L 348.708617 284.491636 
L 348.88181 273.495273 
L 348.929619 284.491636 
L 349.10642 273.495273 
L 349.152425 284.491636 
L 349.331031 273.495273 
L 349.377035 284.491636 
L 349.555641 273.495273 
L 349.601645 284.491636 
L 349.778447 273.495273 
L 349.826255 284.491636 
L 350.004861 273.495273 
L 350.049061 284.491636 
L 350.235785 273.495273 
L 350.274574 284.491636 
L 350.4622 273.495273 
L 350.5064 284.491636 
L 350.68681 273.495273 
L 350.731912 284.491636 
L 350.912322 273.495273 
L 350.957424 284.491636 
L 351.139638 273.495273 
L 351.182937 284.491636 
L 351.36064 273.495273 
L 351.410253 284.491636 
L 351.586152 273.495273 
L 351.631255 284.491636 
L 351.812567 273.495273 
L 351.855865 284.491636 
L 352.033568 273.495273 
L 352.082279 284.491636 
L 352.256375 273.495273 
L 352.303281 284.491636 
L 352.483691 273.495273 
L 352.526087 284.491636 
L 352.702889 273.495273 
L 352.753403 284.491636 
L 352.927499 273.495273 
L 352.972601 284.491636 
L 353.156619 273.495273 
L 353.198113 284.491636 
L 353.384837 273.495273 
L 353.427234 284.491636 
L 353.604937 273.495273 
L 353.655452 284.491636 
L 353.828645 273.495273 
L 353.875552 284.491636 
L 354.05957 273.495273 
L 354.09926 284.491636 
L 354.285082 273.495273 
L 354.329282 284.491636 
L 354.514202 273.495273 
L 354.554795 284.491636 
L 354.742421 273.495273 
L 354.783915 284.491636 
L 354.966129 273.495273 
L 355.013035 284.491636 
L 355.186229 273.495273 
L 355.236743 284.491636 
L 355.410839 273.495273 
L 355.456843 284.491636 
L 355.631841 273.495273 
L 355.680551 284.491636 
L 355.857353 273.495273 
L 355.901553 284.491636 
L 356.081963 273.495273 
L 356.127968 284.491636 
L 356.306573 273.495273 
L 356.351676 284.491636 
L 356.533889 273.495273 
L 356.577188 284.491636 
L 356.759402 273.495273 
L 356.803602 284.491636 
L 356.98762 273.495273 
L 357.030016 284.491636 
L 357.208622 273.495273 
L 357.257333 284.491636 
L 357.43684 273.495273 
L 357.479237 284.491636 
L 357.658744 273.495273 
L 357.706553 284.491636 
L 357.878844 273.495273 
L 357.929359 284.491636 
L 358.104356 273.495273 
L 358.149459 284.491636 
L 358.328966 273.495273 
L 358.374971 284.491636 
L 358.557185 273.495273 
L 358.598679 284.491636 
L 358.777285 273.495273 
L 358.827799 284.491636 
L 359.006405 273.495273 
L 359.047899 284.491636 
L 359.233721 273.495273 
L 359.27702 284.491636 
L 359.460135 273.495273 
L 359.504336 284.491636 
L 359.679333 273.495273 
L 359.73075 284.491636 
L 359.908454 273.495273 
L 359.949948 284.491636 
L 360.138476 273.495273 
L 360.179068 284.491636 
L 360.362184 273.495273 
L 360.408189 284.491636 
L 360.590403 273.495273 
L 360.632799 284.491636 
L 360.815915 273.495273 
L 360.861017 284.491636 
L 361.036917 273.495273 
L 361.086529 284.491636 
L 361.263331 273.495273 
L 361.307531 284.491636 
L 361.487039 273.495273 
L 361.533945 284.491636 
L 361.714355 273.495273 
L 361.757654 284.491636 
L 361.943476 273.495273 
L 361.98497 284.491636 
L 362.164478 273.495273 
L 362.213188 284.491636 
L 362.387284 273.495273 
L 362.435092 284.491636 
L 362.610992 273.495273 
L 362.657898 284.491636 
L 362.836504 273.495273 
L 362.880704 284.491636 
L 363.061114 273.495273 
L 363.106216 284.491636 
L 363.281214 273.495273 
L 363.331729 284.491636 
L 363.50402 273.495273 
L 363.551828 284.491636 
L 363.72412 273.495273 
L 363.774634 284.491636 
L 363.942416 273.495273 
L 363.994734 284.491636 
L 364.164319 273.495273 
L 364.21303 284.491636 
L 364.387126 273.495273 
L 364.434032 284.491636 
L 364.614442 273.495273 
L 364.656838 284.491636 
L 364.840856 273.495273 
L 364.884154 284.491636 
L 365.072683 273.495273 
L 365.111471 284.491636 
L 365.293684 273.495273 
L 365.343297 284.491636 
L 365.518295 273.495273 
L 365.564299 284.491636 
L 365.743807 273.495273 
L 365.788007 284.491636 
L 365.968417 273.495273 
L 366.014421 284.491636 
L 366.193027 273.495273 
L 366.239032 284.491636 
L 366.418539 273.495273 
L 366.46274 284.491636 
L 366.644953 273.495273 
L 366.689154 284.491636 
L 366.870466 273.495273 
L 366.915568 284.491636 
L 367.097782 273.495273 
L 367.140178 284.491636 
L 367.324196 273.495273 
L 367.367494 284.491636 
L 367.548806 273.495273 
L 367.594811 284.491636 
L 367.771612 273.495273 
L 367.818519 284.491636 
L 367.99532 273.495273 
L 368.041325 284.491636 
L 368.216322 273.495273 
L 368.265935 284.491636 
L 368.442736 273.495273 
L 368.486937 284.491636 
L 368.66464 273.495273 
L 368.712449 284.491636 
L 368.894663 273.495273 
L 368.934353 284.491636 
L 369.117469 273.495273 
L 369.164375 284.491636 
L 369.338471 273.495273 
L 369.388084 284.491636 
L 369.563983 273.495273 
L 369.609085 284.491636 
L 369.789495 273.495273 
L 369.834598 284.491636 
L 370.019518 273.495273 
L 370.059208 284.491636 
L 370.24052 273.495273 
L 370.290132 284.491636 
L 370.472346 273.495273 
L 370.511134 284.491636 
L 370.695152 273.495273 
L 370.742059 284.491636 
L 370.921566 273.495273 
L 370.965767 284.491636 
L 371.141666 273.495273 
L 371.192181 284.491636 
L 371.36808 273.495273 
L 371.412281 284.491636 
L 371.820007 262.498909 
L 371.844362 273.495273 
L 373.173982 207.517091 
L 375.442634 97.553455 
L 376.918386 108.549818 
L 377.152919 284.491636 
L 377.238613 273.495273 
L 377.28552 284.491636 
L 377.467734 273.495273 
L 377.509228 284.491636 
L 377.692344 273.495273 
L 377.738348 284.491636 
L 377.917856 273.495273 
L 377.962959 284.491636 
L 378.136152 273.495273 
L 378.188471 284.491636 
L 378.361664 273.495273 
L 378.406766 284.491636 
L 378.588078 273.495273 
L 378.632279 284.491636 
L 378.810884 273.495273 
L 378.858693 284.491636 
L 379.040005 273.495273 
L 379.081499 284.491636 
L 379.262811 273.495273 
L 379.310619 284.491636 
L 379.491029 273.495273 
L 379.533425 284.491636 
L 379.94476 262.498909 
L 379.970919 273.495273 
L 380.851318 229.509818 
L 383.547542 97.553455 
L 393.155263 108.549818 
L 393.388893 284.491636 
L 393.489923 273.495273 
L 393.533221 284.491636 
L 393.719043 273.495273 
L 393.760538 284.491636 
L 393.941849 273.495273 
L 393.989658 284.491636 
L 394.166459 273.495273 
L 394.211562 284.491636 
L 394.393776 273.495273 
L 394.437074 284.491636 
L 394.617484 273.495273 
L 394.663488 284.491636 
L 394.838486 273.495273 
L 394.888098 284.491636 
L 395.063998 273.495273 
L 395.1091 284.491636 
L 395.290412 273.495273 
L 395.334613 284.491636 
L 395.512316 273.495273 
L 395.561027 284.491636 
L 395.740534 273.495273 
L 395.782931 284.491636 
L 395.969655 273.495273 
L 396.011149 284.491636 
L 396.193363 273.495273 
L 396.240269 284.491636 
L 396.421581 273.495273 
L 396.463977 284.491636 
L 396.648897 273.495273 
L 396.692196 284.491636 
L 396.876214 273.495273 
L 396.919512 284.491636 
L 397.100824 273.495273 
L 397.146828 284.491636 
L 397.32363 273.495273 
L 397.370536 284.491636 
L 397.54824 273.495273 
L 397.594245 284.491636 
L 397.76834 273.495273 
L 397.818855 284.491636 
L 397.987538 273.495273 
L 398.038955 284.491636 
L 398.216658 273.495273 
L 398.258152 284.491636 
L 398.487273 295.488 
L 398.487273 295.488 
" clip-path="url(#p491bb8022c)" style="fill: none; stroke: #1f77b4; stroke-width: 1.5; stroke-linecap: square"/>
   </g>
   <g id="patch_3">
    <path d="M 57.6 307.584 
L 57.6 41.472 
" style="fill: none; stroke: #000000; stroke-width: 0.8; stroke-linejoin: miter; stroke-linecap: square"/>
   </g>
   <g id="patch_4">
    <path d="M 414.72 307.584 
L 414.72 41.472 
" style="fill: none; stroke: #000000; stroke-width: 0.8; stroke-linejoin: miter; stroke-linecap: square"/>
   </g>
   <g id="patch_5">
    <path d="M 57.6 307.584 
L 414.72 307.584 
" style="fill: none; stroke: #000000; stroke-width: 0.8; stroke-linejoin: miter; stroke-linecap: square"/>
   </g>
   <g id="patch_6">
    <path d="M 57.6 41.472 
L 414.72 41.472 
" style="fill: none; stroke: #000000; stroke-width: 0.8; stroke-linejoin: miter; stroke-linecap: square"/>
   </g>
   <g id="text_15">
    <!-- Queue size (y-axis) between S1 and sensors that follow at a time (x-axis). -->
    <g transform="translate(14.282813 35.472) scale(0.12 -0.12)">
     <defs>
      <path id="DejaVuSans-51" d="M 2522 4238 
Q 1834 4238 1429 3725 
Q 1025 3213 1025 2328 
Q 1025 1447 1429 934 
Q 1834 422 2522 422 
Q 3209 422 3611 934 
Q 4013 1447 4013 2328 
Q 4013 3213 3611 3725 
Q 3209 4238 2522 4238 
z
M 3406 84 
L 4238 -825 
L 3475 -825 
L 2784 -78 
Q 2681 -84 2626 -87 
Q 2572 -91 2522 -91 
Q 1538 -91 948 567 
Q 359 1225 359 2328 
Q 359 3434 948 4092 
Q 1538 4750 2522 4750 
Q 3503 4750 4090 4092 
Q 4678 3434 4678 2328 
Q 4678 1516 4351 937 
Q 4025 359 3406 84 
z
" transform="scale(0.015625)"/>
      <path id="DejaVuSans-75" d="M 544 1381 
L 544 3500 
L 1119 3500 
L 1119 1403 
Q 1119 906 1312 657 
Q 1506 409 1894 409 
Q 2359 409 2629 706 
Q 2900 1003 2900 1516 
L 2900 3500 
L 3475 3500 
L 3475 0 
L 2900 0 
L 2900 538 
Q 2691 219 2414 64 
Q 2138 -91 1772 -91 
Q 1169 -91 856 284 
Q 544 659 544 1381 
z
M 1991 3584 
L 1991 3584 
z
" transform="scale(0.015625)"/>
      <path id="DejaVuSans-20" transform="scale(0.015625)"/>
      <path id="DejaVuSans-73" d="M 2834 3397 
L 2834 2853 
Q 2591 2978 2328 3040 
Q 2066 3103 1784 3103 
Q 1356 3103 1142 2972 
Q 928 2841 928 2578 
Q 928 2378 1081 2264 
Q 1234 2150 1697 2047 
L 1894 2003 
Q 2506 1872 2764 1633 
Q 3022 1394 3022 966 
Q 3022 478 2636 193 
Q 2250 -91 1575 -91 
Q 1294 -91 989 -36 
Q 684 19 347 128 
L 347 722 
Q 666 556 975 473 
Q 1284 391 1588 391 
Q 1994 391 2212 530 
Q 2431 669 2431 922 
Q 2431 1156 2273 1281 
Q 2116 1406 1581 1522 
L 1381 1569 
Q 847 1681 609 1914 
Q 372 2147 372 2553 
Q 372 3047 722 3315 
Q 1072 3584 1716 3584 
Q 2034 3584 2315 3537 
Q 2597 3491 2834 3397 
z
" transform="scale(0.015625)"/>
      <path id="DejaVuSans-69" d="M 603 3500 
L 1178 3500 
L 1178 0 
L 603 0 
L 603 3500 
z
M 603 4863 
L 1178 4863 
L 1178 4134 
L 603 4134 
L 603 4863 
z
" transform="scale(0.015625)"/>
      <path id="DejaVuSans-7a" d="M 353 3500 
L 3084 3500 
L 3084 2975 
L 922 459 
L 3084 459 
L 3084 0 
L 275 0 
L 275 525 
L 2438 3041 
L 353 3041 
L 353 3500 
z
" transform="scale(0.015625)"/>
      <path id="DejaVuSans-28" d="M 1984 4856 
Q 1566 4138 1362 3434 
Q 1159 2731 1159 2009 
Q 1159 1288 1364 580 
Q 1569 -128 1984 -844 
L 1484 -844 
Q 1016 -109 783 600 
Q 550 1309 550 2009 
Q 550 2706 781 3412 
Q 1013 4119 1484 4856 
L 1984 4856 
z
" transform="scale(0.015625)"/>
      <path id="DejaVuSans-79" d="M 2059 -325 
Q 1816 -950 1584 -1140 
Q 1353 -1331 966 -1331 
L 506 -1331 
L 506 -850 
L 844 -850 
Q 1081 -850 1212 -737 
Q 1344 -625 1503 -206 
L 1606 56 
L 191 3500 
L 800 3500 
L 1894 763 
L 2988 3500 
L 3597 3500 
L 2059 -325 
z
" transform="scale(0.015625)"/>
      <path id="DejaVuSans-2d" d="M 313 2009 
L 1997 2009 
L 1997 1497 
L 313 1497 
L 313 2009 
z
" transform="scale(0.015625)"/>
      <path id="DejaVuSans-61" d="M 2194 1759 
Q 1497 1759 1228 1600 
Q 959 1441 959 1056 
Q 959 750 1161 570 
Q 1363 391 1709 391 
Q 2188 391 2477 730 
Q 2766 1069 2766 1631 
L 2766 1759 
L 2194 1759 
z
M 3341 1997 
L 3341 0 
L 2766 0 
L 2766 531 
Q 2569 213 2275 61 
Q 1981 -91 1556 -91 
Q 1019 -91 701 211 
Q 384 513 384 1019 
Q 384 1609 779 1909 
Q 1175 2209 1959 2209 
L 2766 2209 
L 2766 2266 
Q 2766 2663 2505 2880 
Q 2244 3097 1772 3097 
Q 1472 3097 1187 3025 
Q 903 2953 641 2809 
L 641 3341 
Q 956 3463 1253 3523 
Q 1550 3584 1831 3584 
Q 2591 3584 2966 3190 
Q 3341 2797 3341 1997 
z
" transform="scale(0.015625)"/>
      <path id="DejaVuSans-78" d="M 3513 3500 
L 2247 1797 
L 3578 0 
L 2900 0 
L 1881 1375 
L 863 0 
L 184 0 
L 1544 1831 
L 300 3500 
L 978 3500 
L 1906 2253 
L 2834 3500 
L 3513 3500 
z
" transform="scale(0.015625)"/>
      <path id="DejaVuSans-29" d="M 513 4856 
L 1013 4856 
Q 1481 4119 1714 3412 
Q 1947 2706 1947 2009 
Q 1947 1309 1714 600 
Q 1481 -109 1013 -844 
L 513 -844 
Q 928 -128 1133 580 
Q 1338 1288 1338 2009 
Q 1338 2731 1133 3434 
Q 928 4138 513 4856 
z
" transform="scale(0.015625)"/>
      <path id="DejaVuSans-62" d="M 3116 1747 
Q 3116 2381 2855 2742 
Q 2594 3103 2138 3103 
Q 1681 3103 1420 2742 
Q 1159 2381 1159 1747 
Q 1159 1113 1420 752 
Q 1681 391 2138 391 
Q 2594 391 2855 752 
Q 3116 1113 3116 1747 
z
M 1159 2969 
Q 1341 3281 1617 3432 
Q 1894 3584 2278 3584 
Q 2916 3584 3314 3078 
Q 3713 2572 3713 1747 
Q 3713 922 3314 415 
Q 2916 -91 2278 -91 
Q 1894 -91 1617 61 
Q 1341 213 1159 525 
L 1159 0 
L 581 0 
L 581 4863 
L 1159 4863 
L 1159 2969 
z
" transform="scale(0.015625)"/>
      <path id="DejaVuSans-74" d="M 1172 4494 
L 1172 3500 
L 2356 3500 
L 2356 3053 
L 1172 3053 
L 1172 1153 
Q 1172 725 1289 603 
Q 1406 481 1766 481 
L 2356 481 
L 2356 0 
L 1766 0 
Q 1100 0 847 248 
Q 594 497 594 1153 
L 594 3053 
L 172 3053 
L 172 3500 
L 594 3500 
L 594 4494 
L 1172 4494 
z
" transform="scale(0.015625)"/>
      <path id="DejaVuSans-77" d="M 269 3500 
L 844 3500 
L 1563 769 
L 2278 3500 
L 2956 3500 
L 3675 769 
L 4391 3500 
L 4966 3500 
L 4050 0 
L 3372 0 
L 2619 2869 
L 1863 0 
L 1184 0 
L 269 3500 
z
" transform="scale(0.015625)"/>
      <path id="DejaVuSans-6e" d="M 3513 2113 
L 3513 0 
L 2938 0 
L 2938 2094 
Q 2938 2591 2744 2837 
Q 2550 3084 2163 3084 
Q 1697 3084 1428 2787 
Q 1159 2491 1159 1978 
L 1159 0 
L 581 0 
L 581 3500 
L 1159 3500 
L 1159 2956 
Q 1366 3272 1645 3428 
Q 1925 3584 2291 3584 
Q 2894 3584 3203 3211 
Q 3513 2838 3513 2113 
z
" transform="scale(0.015625)"/>
      <path id="DejaVuSans-53" d="M 3425 4513 
L 3425 3897 
Q 3066 4069 2747 4153 
Q 2428 4238 2131 4238 
Q 1616 4238 1336 4038 
Q 1056 3838 1056 3469 
Q 1056 3159 1242 3001 
Q 1428 2844 1947 2747 
L 2328 2669 
Q 3034 2534 3370 2195 
Q 3706 1856 3706 1288 
Q 3706 609 3251 259 
Q 2797 -91 1919 -91 
Q 1588 -91 1214 -16 
Q 841 59 441 206 
L 441 856 
Q 825 641 1194 531 
Q 1563 422 1919 422 
Q 2459 422 2753 634 
Q 3047 847 3047 1241 
Q 3047 1584 2836 1778 
Q 2625 1972 2144 2069 
L 1759 2144 
Q 1053 2284 737 2584 
Q 422 2884 422 3419 
Q 422 4038 858 4394 
Q 1294 4750 2059 4750 
Q 2388 4750 2728 4690 
Q 3069 4631 3425 4513 
z
" transform="scale(0.015625)"/>
      <path id="DejaVuSans-64" d="M 2906 2969 
L 2906 4863 
L 3481 4863 
L 3481 0 
L 2906 0 
L 2906 525 
Q 2725 213 2448 61 
Q 2172 -91 1784 -91 
Q 1150 -91 751 415 
Q 353 922 353 1747 
Q 353 2572 751 3078 
Q 1150 3584 1784 3584 
Q 2172 3584 2448 3432 
Q 2725 3281 2906 2969 
z
M 947 1747 
Q 947 1113 1208 752 
Q 1469 391 1925 391 
Q 2381 391 2643 752 
Q 2906 1113 2906 1747 
Q 2906 2381 2643 2742 
Q 2381 3103 1925 3103 
Q 1469 3103 1208 2742 
Q 947 2381 947 1747 
z
" transform="scale(0.015625)"/>
      <path id="DejaVuSans-6f" d="M 1959 3097 
Q 1497 3097 1228 2736 
Q 959 2375 959 1747 
Q 959 1119 1226 758 
Q 1494 397 1959 397 
Q 2419 397 2687 759 
Q 2956 1122 2956 1747 
Q 2956 2369 2687 2733 
Q 2419 3097 1959 3097 
z
M 1959 3584 
Q 2709 3584 3137 3096 
Q 3566 2609 3566 1747 
Q 3566 888 3137 398 
Q 2709 -91 1959 -91 
Q 1206 -91 779 398 
Q 353 888 353 1747 
Q 353 2609 779 3096 
Q 1206 3584 1959 3584 
z
" transform="scale(0.015625)"/>
      <path id="DejaVuSans-72" d="M 2631 2963 
Q 2534 3019 2420 3045 
Q 2306 3072 2169 3072 
Q 1681 3072 1420 2755 
Q 1159 2438 1159 1844 
L 1159 0 
L 581 0 
L 581 3500 
L 1159 3500 
L 1159 2956 
Q 1341 3275 1631 3429 
Q 1922 3584 2338 3584 
Q 2397 3584 2469 3576 
Q 2541 3569 2628 3553 
L 2631 2963 
z
" transform="scale(0.015625)"/>
      <path id="DejaVuSans-68" d="M 3513 2113 
L 3513 0 
L 2938 0 
L 2938 2094 
Q 2938 2591 2744 2837 
Q 2550 3084 2163 3084 
Q 1697 3084 1428 2787 
Q 1159 2491 1159 1978 
L 1159 0 
L 581 0 
L 581 4863 
L 1159 4863 
L 1159 2956 
Q 1366 3272 1645 3428 
Q 1925 3584 2291 3584 
Q 2894 3584 3203 3211 
Q 3513 2838 3513 2113 
z
" transform="scale(0.015625)"/>
      <path id="DejaVuSans-66" d="M 2375 4863 
L 2375 4384 
L 1825 4384 
Q 1516 4384 1395 4259 
Q 1275 4134 1275 3809 
L 1275 3500 
L 2222 3500 
L 2222 3053 
L 1275 3053 
L 1275 0 
L 697 0 
L 697 3053 
L 147 3053 
L 147 3500 
L 697 3500 
L 697 3744 
Q 697 4328 969 4595 
Q 1241 4863 1831 4863 
L 2375 4863 
z
" transform="scale(0.015625)"/>
      <path id="DejaVuSans-6c" d="M 603 4863 
L 1178 4863 
L 1178 0 
L 603 0 
L 603 4863 
z
" transform="scale(0.015625)"/>
      <path id="DejaVuSans-6d" d="M 3328 2828 
Q 3544 3216 3844 3400 
Q 4144 3584 4550 3584 
Q 5097 3584 5394 3201 
Q 5691 2819 5691 2113 
L 5691 0 
L 5113 0 
L 5113 2094 
Q 5113 2597 4934 2840 
Q 4756 3084 4391 3084 
Q 3944 3084 3684 2787 
Q 3425 2491 3425 1978 
L 3425 0 
L 2847 0 
L 2847 2094 
Q 2847 2600 2669 2842 
Q 2491 3084 2119 3084 
Q 1678 3084 1418 2786 
Q 1159 2488 1159 1978 
L 1159 0 
L 581 0 
L 581 3500 
L 1159 3500 
L 1159 2956 
Q 1356 3278 1631 3431 
Q 1906 3584 2284 3584 
Q 2666 3584 2933 3390 
Q 3200 3197 3328 2828 
z
" transform="scale(0.015625)"/>
     </defs>
     <use xlink:href="#DejaVuSans-51"/>
     <use xlink:href="#DejaVuSans-75" x="78.710938"/>
     <use xlink:href="#DejaVuSans-65" x="142.089844"/>
     <use xlink:href="#DejaVuSans-75" x="203.613281"/>
     <use xlink:href="#DejaVuSans-65" x="266.992188"/>
     <use xlink:href="#DejaVuSans-20" x="328.515625"/>
     <use xlink:href="#DejaVuSans-73" x="360.302734"/>
     <use xlink:href="#DejaVuSans-69" x="412.402344"/>
     <use xlink:href="#DejaVuSans-7a" x="440.185547"/>
     <use xlink:href="#DejaVuSans-65" x="492.675781"/>
     <use xlink:href="#DejaVuSans-20" x="554.199219"/>
     <use xlink:href="#DejaVuSans-28" x="585.986328"/>
     <use xlink:href="#DejaVuSans-79" x="625"/>
     <use xlink:href="#DejaVuSans-2d" x="682.429688"/>
     <use xlink:href="#DejaVuSans-61" x="718.513672"/>
     <use xlink:href="#DejaVuSans-78" x="779.792969"/>
     <use xlink:href="#DejaVuSans-69" x="838.972656"/>
     <use xlink:href="#DejaVuSans-73" x="866.755859"/>
     <use xlink:href="#DejaVuSans-29" x="918.855469"/>
     <use xlink:href="#DejaVuSans-20" x="957.869141"/>
     <use xlink:href="#DejaVuSans-62" x="989.65625"/>
     <use xlink:href="#DejaVuSans-65" x="1053.132812"/>
     <use xlink:href="#DejaVuSans-74" x="1114.65625"/>
     <use xlink:href="#DejaVuSans-77" x="1153.865234"/>
     <use xlink:href="#DejaVuSans-65" x="1235.652344"/>
     <use xlink:href="#DejaVuSans-65" x="1297.175781"/>
     <use xlink:href="#DejaVuSans-6e" x="1358.699219"/>
     <use xlink:href="#DejaVuSans-20" x="1422.078125"/>
     <use xlink:href="#DejaVuSans-53" x="1453.865234"/>
     <use xlink:href="#DejaVuSans-31" x="1517.341797"/>
     <use xlink:href="#DejaVuSans-20" x="1580.964844"/>
     <use xlink:href="#DejaVuSans-61" x="1612.751953"/>
     <use xlink:href="#DejaVuSans-6e" x="1674.03125"/>
     <use xlink:href="#DejaVuSans-64" x="1737.410156"/>
     <use xlink:href="#DejaVuSans-20" x="1800.886719"/>
     <use xlink:href="#DejaVuSans-73" x="1832.673828"/>
     <use xlink:href="#DejaVuSans-65" x="1884.773438"/>
     <use xlink:href="#DejaVuSans-6e" x="1946.296875"/>
     <use xlink:href="#DejaVuSans-73" x="2009.675781"/>
     <use xlink:href="#DejaVuSans-6f" x="2061.775391"/>
     <use xlink:href="#DejaVuSans-72" x="2122.957031"/>
     <use xlink:href="#DejaVuSans-73" x="2164.070312"/>
     <use xlink:href="#DejaVuSans-20" x="2216.169922"/>
     <use xlink:href="#DejaVuSans-74" x="2247.957031"/>
     <use xlink:href="#DejaVuSans-68" x="2287.166016"/>
     <use xlink:href="#DejaVuSans-61" x="2350.544922"/>
     <use xlink:href="#DejaVuSans-74" x="2411.824219"/>
     <use xlink:href="#DejaVuSans-20" x="2451.033203"/>
     <use xlink:href="#DejaVuSans-66" x="2482.820312"/>
     <use xlink:href="#DejaVuSans-6f" x="2518.025391"/>
     <use xlink:href="#DejaVuSans-6c" x="2579.207031"/>
     <use xlink:href="#DejaVuSans-6c" x="2606.990234"/>
     <use xlink:href="#DejaVuSans-6f" x="2634.773438"/>
     <use xlink:href="#DejaVuSans-77" x="2695.955078"/>
     <use xlink:href="#DejaVuSans-20" x="2777.742188"/>
     <use xlink:href="#DejaVuSans-61" x="2809.529297"/>
     <use xlink:href="#DejaVuSans-74" x="2870.808594"/>
     <use xlink:href="#DejaVuSans-20" x="2910.017578"/>
     <use xlink:href="#DejaVuSans-61" x="2941.804688"/>
     <use xlink:href="#DejaVuSans-20" x="3003.083984"/>
     <use xlink:href="#DejaVuSans-74" x="3034.871094"/>
     <use xlink:href="#DejaVuSans-69" x="3074.080078"/>
     <use xlink:href="#DejaVuSans-6d" x="3101.863281"/>
     <use xlink:href="#DejaVuSans-65" x="3199.275391"/>
     <use xlink:href="#DejaVuSans-20" x="3260.798828"/>
     <use xlink:href="#DejaVuSans-28" x="3292.585938"/>
     <use xlink:href="#DejaVuSans-78" x="3331.599609"/>
     <use xlink:href="#DejaVuSans-2d" x="3390.779297"/>
     <use xlink:href="#DejaVuSans-61" x="3426.863281"/>
     <use xlink:href="#DejaVuSans-78" x="3488.142578"/>
     <use xlink:href="#DejaVuSans-69" x="3547.322266"/>
     <use xlink:href="#DejaVuSans-73" x="3575.105469"/>
     <use xlink:href="#DejaVuSans-29" x="3627.205078"/>
     <use xlink:href="#DejaVuSans-2e" x="3666.21875"/>
    </g>
   </g>
  </g>
 </g>
 <defs>
  <clipPath id="p491bb8022c">
   <rect x="57.6" y="41.472" width="357.12" height="266.112"/>
  </clipPath>
 </defs>
</svg>
