<?xml version="1.0" encoding="utf-8" standalone="no"?>
<!DOCTYPE svg PUBLIC "-//W3C//DTD SVG 1.1//EN"
  "http://www.w3.org/Graphics/SVG/1.1/DTD/svg11.dtd">
<svg xmlns:xlink="http://www.w3.org/1999/xlink" width="460.8pt" height="345.6pt" viewBox="0 0 460.8 345.6" xmlns="http://www.w3.org/2000/svg" version="1.1">
 <metadata>
  <rdf:RDF xmlns:dc="http://purl.org/dc/elements/1.1/" xmlns:cc="http://creativecommons.org/ns#" xmlns:rdf="http://www.w3.org/1999/02/22-rdf-syntax-ns#">
   <cc:Work>
    <dc:type rdf:resource="http://purl.org/dc/dcmitype/StillImage"/>
    <dc:date>2024-03-08T13:39:43.359662</dc:date>
    <dc:format>image/svg+xml</dc:format>
    <dc:creator>
     <cc:Agent>
      <dc:title>Matplotlib v3.8.2, https://matplotlib.org/</dc:title>
     </cc:Agent>
    </dc:creator>
   </cc:Work>
  </rdf:RDF>
 </metadata>
 <defs>
  <style type="text/css">*{stroke-linejoin: round; stroke-linecap: butt}</style>
 </defs>
 <g id="figure_1">
  <g id="patch_1">
   <path d="M 0 345.6 
L 460.8 345.6 
L 460.8 0 
L 0 0 
z
" style="fill: #ffffff"/>
  </g>
  <g id="axes_1">
   <g id="patch_2">
    <path d="M 57.6 307.584 
L 414.72 307.584 
L 414.72 41.472 
L 57.6 41.472 
z
" style="fill: #ffffff"/>
   </g>
   <g id="matplotlib.axis_1">
    <g id="xtick_1">
     <g id="line2d_1">
      <defs>
       <path id="m1c51d08c36" d="M 0 0 
L 0 3.5 
" style="stroke: #000000; stroke-width: 0.8"/>
      </defs>
      <g>
       <use xlink:href="#m1c51d08c36" x="73.327705" y="307.584" style="stroke: #000000; stroke-width: 0.8"/>
      </g>
     </g>
     <g id="text_1">
      <!-- 0.0 -->
      <g transform="translate(65.376142 322.182437) scale(0.1 -0.1)">
       <defs>
        <path id="DejaVuSans-30" d="M 2034 4250 
Q 1547 4250 1301 3770 
Q 1056 3291 1056 2328 
Q 1056 1369 1301 889 
Q 1547 409 2034 409 
Q 2525 409 2770 889 
Q 3016 1369 3016 2328 
Q 3016 3291 2770 3770 
Q 2525 4250 2034 4250 
z
M 2034 4750 
Q 2819 4750 3233 4129 
Q 3647 3509 3647 2328 
Q 3647 1150 3233 529 
Q 2819 -91 2034 -91 
Q 1250 -91 836 529 
Q 422 1150 422 2328 
Q 422 3509 836 4129 
Q 1250 4750 2034 4750 
z
" transform="scale(0.015625)"/>
        <path id="DejaVuSans-2e" d="M 684 794 
L 1344 794 
L 1344 0 
L 684 0 
L 684 794 
z
" transform="scale(0.015625)"/>
       </defs>
       <use xlink:href="#DejaVuSans-30"/>
       <use xlink:href="#DejaVuSans-2e" x="63.623047"/>
       <use xlink:href="#DejaVuSans-30" x="95.410156"/>
      </g>
     </g>
    </g>
    <g id="xtick_2">
     <g id="line2d_2">
      <g>
       <use xlink:href="#m1c51d08c36" x="118.499672" y="307.584" style="stroke: #000000; stroke-width: 0.8"/>
      </g>
     </g>
     <g id="text_2">
      <!-- 0.5 -->
      <g transform="translate(110.54811 322.182437) scale(0.1 -0.1)">
       <defs>
        <path id="DejaVuSans-35" d="M 691 4666 
L 3169 4666 
L 3169 4134 
L 1269 4134 
L 1269 2991 
Q 1406 3038 1543 3061 
Q 1681 3084 1819 3084 
Q 2600 3084 3056 2656 
Q 3513 2228 3513 1497 
Q 3513 744 3044 326 
Q 2575 -91 1722 -91 
Q 1428 -91 1123 -41 
Q 819 9 494 109 
L 494 744 
Q 775 591 1075 516 
Q 1375 441 1709 441 
Q 2250 441 2565 725 
Q 2881 1009 2881 1497 
Q 2881 1984 2565 2268 
Q 2250 2553 1709 2553 
Q 1456 2553 1204 2497 
Q 953 2441 691 2322 
L 691 4666 
z
" transform="scale(0.015625)"/>
       </defs>
       <use xlink:href="#DejaVuSans-30"/>
       <use xlink:href="#DejaVuSans-2e" x="63.623047"/>
       <use xlink:href="#DejaVuSans-35" x="95.410156"/>
      </g>
     </g>
    </g>
    <g id="xtick_3">
     <g id="line2d_3">
      <g>
       <use xlink:href="#m1c51d08c36" x="163.67164" y="307.584" style="stroke: #000000; stroke-width: 0.8"/>
      </g>
     </g>
     <g id="text_3">
      <!-- 1.0 -->
      <g transform="translate(155.720078 322.182437) scale(0.1 -0.1)">
       <defs>
        <path id="DejaVuSans-31" d="M 794 531 
L 1825 531 
L 1825 4091 
L 703 3866 
L 703 4441 
L 1819 4666 
L 2450 4666 
L 2450 531 
L 3481 531 
L 3481 0 
L 794 0 
L 794 531 
z
" transform="scale(0.015625)"/>
       </defs>
       <use xlink:href="#DejaVuSans-31"/>
       <use xlink:href="#DejaVuSans-2e" x="63.623047"/>
       <use xlink:href="#DejaVuSans-30" x="95.410156"/>
      </g>
     </g>
    </g>
    <g id="xtick_4">
     <g id="line2d_4">
      <g>
       <use xlink:href="#m1c51d08c36" x="208.843608" y="307.584" style="stroke: #000000; stroke-width: 0.8"/>
      </g>
     </g>
     <g id="text_4">
      <!-- 1.5 -->
      <g transform="translate(200.892045 322.182437) scale(0.1 -0.1)">
       <use xlink:href="#DejaVuSans-31"/>
       <use xlink:href="#DejaVuSans-2e" x="63.623047"/>
       <use xlink:href="#DejaVuSans-35" x="95.410156"/>
      </g>
     </g>
    </g>
    <g id="xtick_5">
     <g id="line2d_5">
      <g>
       <use xlink:href="#m1c51d08c36" x="254.015575" y="307.584" style="stroke: #000000; stroke-width: 0.8"/>
      </g>
     </g>
     <g id="text_5">
      <!-- 2.0 -->
      <g transform="translate(246.064013 322.182437) scale(0.1 -0.1)">
       <defs>
        <path id="DejaVuSans-32" d="M 1228 531 
L 3431 531 
L 3431 0 
L 469 0 
L 469 531 
Q 828 903 1448 1529 
Q 2069 2156 2228 2338 
Q 2531 2678 2651 2914 
Q 2772 3150 2772 3378 
Q 2772 3750 2511 3984 
Q 2250 4219 1831 4219 
Q 1534 4219 1204 4116 
Q 875 4013 500 3803 
L 500 4441 
Q 881 4594 1212 4672 
Q 1544 4750 1819 4750 
Q 2544 4750 2975 4387 
Q 3406 4025 3406 3419 
Q 3406 3131 3298 2873 
Q 3191 2616 2906 2266 
Q 2828 2175 2409 1742 
Q 1991 1309 1228 531 
z
" transform="scale(0.015625)"/>
       </defs>
       <use xlink:href="#DejaVuSans-32"/>
       <use xlink:href="#DejaVuSans-2e" x="63.623047"/>
       <use xlink:href="#DejaVuSans-30" x="95.410156"/>
      </g>
     </g>
    </g>
    <g id="xtick_6">
     <g id="line2d_6">
      <g>
       <use xlink:href="#m1c51d08c36" x="299.187543" y="307.584" style="stroke: #000000; stroke-width: 0.8"/>
      </g>
     </g>
     <g id="text_6">
      <!-- 2.5 -->
      <g transform="translate(291.235981 322.182437) scale(0.1 -0.1)">
       <use xlink:href="#DejaVuSans-32"/>
       <use xlink:href="#DejaVuSans-2e" x="63.623047"/>
       <use xlink:href="#DejaVuSans-35" x="95.410156"/>
      </g>
     </g>
    </g>
    <g id="xtick_7">
     <g id="line2d_7">
      <g>
       <use xlink:href="#m1c51d08c36" x="344.359511" y="307.584" style="stroke: #000000; stroke-width: 0.8"/>
      </g>
     </g>
     <g id="text_7">
      <!-- 3.0 -->
      <g transform="translate(336.407948 322.182437) scale(0.1 -0.1)">
       <defs>
        <path id="DejaVuSans-33" d="M 2597 2516 
Q 3050 2419 3304 2112 
Q 3559 1806 3559 1356 
Q 3559 666 3084 287 
Q 2609 -91 1734 -91 
Q 1441 -91 1130 -33 
Q 819 25 488 141 
L 488 750 
Q 750 597 1062 519 
Q 1375 441 1716 441 
Q 2309 441 2620 675 
Q 2931 909 2931 1356 
Q 2931 1769 2642 2001 
Q 2353 2234 1838 2234 
L 1294 2234 
L 1294 2753 
L 1863 2753 
Q 2328 2753 2575 2939 
Q 2822 3125 2822 3475 
Q 2822 3834 2567 4026 
Q 2313 4219 1838 4219 
Q 1578 4219 1281 4162 
Q 984 4106 628 3988 
L 628 4550 
Q 988 4650 1302 4700 
Q 1616 4750 1894 4750 
Q 2613 4750 3031 4423 
Q 3450 4097 3450 3541 
Q 3450 3153 3228 2886 
Q 3006 2619 2597 2516 
z
" transform="scale(0.015625)"/>
       </defs>
       <use xlink:href="#DejaVuSans-33"/>
       <use xlink:href="#DejaVuSans-2e" x="63.623047"/>
       <use xlink:href="#DejaVuSans-30" x="95.410156"/>
      </g>
     </g>
    </g>
    <g id="xtick_8">
     <g id="line2d_8">
      <g>
       <use xlink:href="#m1c51d08c36" x="389.531478" y="307.584" style="stroke: #000000; stroke-width: 0.8"/>
      </g>
     </g>
     <g id="text_8">
      <!-- 3.5 -->
      <g transform="translate(381.579916 322.182437) scale(0.1 -0.1)">
       <use xlink:href="#DejaVuSans-33"/>
       <use xlink:href="#DejaVuSans-2e" x="63.623047"/>
       <use xlink:href="#DejaVuSans-35" x="95.410156"/>
      </g>
     </g>
    </g>
    <g id="text_9">
     <!-- 1e6 -->
     <g transform="translate(395.841875 334.860562) scale(0.1 -0.1)">
      <defs>
       <path id="DejaVuSans-65" d="M 3597 1894 
L 3597 1613 
L 953 1613 
Q 991 1019 1311 708 
Q 1631 397 2203 397 
Q 2534 397 2845 478 
Q 3156 559 3463 722 
L 3463 178 
Q 3153 47 2828 -22 
Q 2503 -91 2169 -91 
Q 1331 -91 842 396 
Q 353 884 353 1716 
Q 353 2575 817 3079 
Q 1281 3584 2069 3584 
Q 2775 3584 3186 3129 
Q 3597 2675 3597 1894 
z
M 3022 2063 
Q 3016 2534 2758 2815 
Q 2500 3097 2075 3097 
Q 1594 3097 1305 2825 
Q 1016 2553 972 2059 
L 3022 2063 
z
" transform="scale(0.015625)"/>
       <path id="DejaVuSans-36" d="M 2113 2584 
Q 1688 2584 1439 2293 
Q 1191 2003 1191 1497 
Q 1191 994 1439 701 
Q 1688 409 2113 409 
Q 2538 409 2786 701 
Q 3034 994 3034 1497 
Q 3034 2003 2786 2293 
Q 2538 2584 2113 2584 
z
M 3366 4563 
L 3366 3988 
Q 3128 4100 2886 4159 
Q 2644 4219 2406 4219 
Q 1781 4219 1451 3797 
Q 1122 3375 1075 2522 
Q 1259 2794 1537 2939 
Q 1816 3084 2150 3084 
Q 2853 3084 3261 2657 
Q 3669 2231 3669 1497 
Q 3669 778 3244 343 
Q 2819 -91 2113 -91 
Q 1303 -91 875 529 
Q 447 1150 447 2328 
Q 447 3434 972 4092 
Q 1497 4750 2381 4750 
Q 2619 4750 2861 4703 
Q 3103 4656 3366 4563 
z
" transform="scale(0.015625)"/>
      </defs>
      <use xlink:href="#DejaVuSans-31"/>
      <use xlink:href="#DejaVuSans-65" x="63.623047"/>
      <use xlink:href="#DejaVuSans-36" x="125.146484"/>
     </g>
    </g>
   </g>
   <g id="matplotlib.axis_2">
    <g id="ytick_1">
     <g id="line2d_9">
      <defs>
       <path id="m3fb3912489" d="M 0 0 
L -3.5 0 
" style="stroke: #000000; stroke-width: 0.8"/>
      </defs>
      <g>
       <use xlink:href="#m3fb3912489" x="57.6" y="295.488" style="stroke: #000000; stroke-width: 0.8"/>
      </g>
     </g>
     <g id="text_10">
      <!-- 0 -->
      <g transform="translate(44.2375 299.287219) scale(0.1 -0.1)">
       <use xlink:href="#DejaVuSans-30"/>
      </g>
     </g>
    </g>
    <g id="ytick_2">
     <g id="line2d_10">
      <g>
       <use xlink:href="#m3fb3912489" x="57.6" y="253.777655" style="stroke: #000000; stroke-width: 0.8"/>
      </g>
     </g>
     <g id="text_11">
      <!-- 5 -->
      <g transform="translate(44.2375 257.576874) scale(0.1 -0.1)">
       <use xlink:href="#DejaVuSans-35"/>
      </g>
     </g>
    </g>
    <g id="ytick_3">
     <g id="line2d_11">
      <g>
       <use xlink:href="#m3fb3912489" x="57.6" y="212.06731" style="stroke: #000000; stroke-width: 0.8"/>
      </g>
     </g>
     <g id="text_12">
      <!-- 10 -->
      <g transform="translate(37.875 215.866529) scale(0.1 -0.1)">
       <use xlink:href="#DejaVuSans-31"/>
       <use xlink:href="#DejaVuSans-30" x="63.623047"/>
      </g>
     </g>
    </g>
    <g id="ytick_4">
     <g id="line2d_12">
      <g>
       <use xlink:href="#m3fb3912489" x="57.6" y="170.356966" style="stroke: #000000; stroke-width: 0.8"/>
      </g>
     </g>
     <g id="text_13">
      <!-- 15 -->
      <g transform="translate(37.875 174.156184) scale(0.1 -0.1)">
       <use xlink:href="#DejaVuSans-31"/>
       <use xlink:href="#DejaVuSans-35" x="63.623047"/>
      </g>
     </g>
    </g>
    <g id="ytick_5">
     <g id="line2d_13">
      <g>
       <use xlink:href="#m3fb3912489" x="57.6" y="128.646621" style="stroke: #000000; stroke-width: 0.8"/>
      </g>
     </g>
     <g id="text_14">
      <!-- 20 -->
      <g transform="translate(37.875 132.445839) scale(0.1 -0.1)">
       <use xlink:href="#DejaVuSans-32"/>
       <use xlink:href="#DejaVuSans-30" x="63.623047"/>
      </g>
     </g>
    </g>
    <g id="ytick_6">
     <g id="line2d_14">
      <g>
       <use xlink:href="#m3fb3912489" x="57.6" y="86.936276" style="stroke: #000000; stroke-width: 0.8"/>
      </g>
     </g>
     <g id="text_15">
      <!-- 25 -->
      <g transform="translate(37.875 90.735495) scale(0.1 -0.1)">
       <use xlink:href="#DejaVuSans-32"/>
       <use xlink:href="#DejaVuSans-35" x="63.623047"/>
      </g>
     </g>
    </g>
    <g id="ytick_7">
     <g id="line2d_15">
      <g>
       <use xlink:href="#m3fb3912489" x="57.6" y="45.225931" style="stroke: #000000; stroke-width: 0.8"/>
      </g>
     </g>
     <g id="text_16">
      <!-- 30 -->
      <g transform="translate(37.875 49.02515) scale(0.1 -0.1)">
       <use xlink:href="#DejaVuSans-33"/>
       <use xlink:href="#DejaVuSans-30" x="63.623047"/>
      </g>
     </g>
    </g>
   </g>
   <g id="line2d_16">
    <path d="M 73.832727 287.145931 
L 74.02245 295.488 
L 74.148028 287.145931 
L 74.338653 295.488 
L 74.462425 287.145931 
L 74.65305 295.488 
L 74.777725 287.145931 
L 74.968351 295.488 
L 75.099349 287.145931 
L 75.289975 295.488 
L 75.41465 287.145931 
L 75.604372 295.488 
L 75.728143 287.145931 
L 75.918769 295.488 
L 76.04254 287.145931 
L 76.232262 295.488 
L 76.363261 287.145931 
L 76.553887 295.488 
L 76.682175 287.145931 
L 76.871897 295.488 
L 76.998379 287.145931 
L 77.189004 295.488 
L 77.315486 287.145931 
L 77.506112 295.488 
L 77.6344 287.145931 
L 77.825026 295.488 
L 77.954218 287.145931 
L 78.144843 295.488 
L 78.274035 287.145931 
L 78.464661 295.488 
L 78.585722 287.145931 
L 78.776347 295.488 
L 84.326175 287.145931 
L 84.44814 262.119724 
L 84.641476 228.751448 
L 84.832101 295.488 
L 84.916121 287.145931 
L 85.105844 295.488 
L 85.224194 287.145931 
L 85.41482 295.488 
L 85.540398 287.145931 
L 85.731024 295.488 
L 85.852084 287.145931 
L 86.04271 295.488 
L 86.170999 287.145931 
L 86.361624 295.488 
L 86.486299 287.145931 
L 86.676925 295.488 
L 86.801599 287.145931 
L 86.992225 295.488 
L 87.12232 287.145931 
L 87.312946 295.488 
L 87.434007 287.145931 
L 87.623729 295.488 
L 87.749307 287.145931 
L 87.939933 295.488 
L 88.059187 287.145931 
L 88.249812 295.488 
L 88.373584 287.145931 
L 88.564209 295.488 
L 88.694305 287.145931 
L 88.88493 295.488 
L 89.005088 287.145931 
L 89.195713 295.488 
L 89.316774 287.145931 
L 89.5074 295.488 
L 89.637495 287.145931 
L 89.828121 295.488 
L 89.957313 287.145931 
L 90.147939 295.488 
L 90.278034 287.145931 
L 90.46866 295.488 
L 90.586107 287.145931 
L 90.776732 295.488 
L 90.909538 287.145931 
L 91.100164 295.488 
L 91.223935 287.145931 
L 91.414561 295.488 
L 91.547366 287.145931 
L 91.737992 295.488 
L 91.861763 287.145931 
L 92.052389 295.488 
L 92.174353 287.145931 
L 92.364979 295.488 
L 92.485136 287.145931 
L 92.675762 295.488 
L 92.800437 287.145931 
L 92.990159 295.488 
L 93.115737 287.145931 
L 93.305459 295.488 
L 93.42652 287.145931 
L 93.617146 295.488 
L 93.740917 287.145931 
L 93.931543 295.488 
L 94.060734 287.145931 
L 94.25136 295.488 
L 94.379648 287.145931 
L 94.570274 295.488 
L 94.693142 287.145931 
L 94.883768 295.488 
L 95.007539 287.145931 
L 95.198165 295.488 
L 95.322839 287.145931 
L 95.513465 295.488 
L 95.641753 287.145931 
L 95.832379 295.488 
L 95.955247 287.145931 
L 96.145872 295.488 
L 96.273257 287.145931 
L 96.463883 295.488 
L 96.593978 287.145931 
L 96.784604 295.488 
L 96.904761 287.145931 
L 97.095387 295.488 
L 97.218255 287.145931 
L 97.407977 295.488 
L 97.533555 287.145931 
L 97.724181 295.488 
L 97.842532 287.145931 
L 98.164156 278.803862 
L 98.354782 295.488 
L 98.473132 287.145931 
L 98.663758 295.488 
L 98.796563 287.145931 
L 98.987189 295.488 
L 99.119091 287.145931 
L 99.309717 295.488 
L 99.440716 287.145931 
L 99.631341 295.488 
L 99.76234 287.145931 
L 99.952966 295.488 
L 100.075834 287.145931 
L 100.266459 295.488 
L 100.392941 287.145931 
L 100.582663 295.488 
L 100.713662 287.145931 
L 100.904288 295.488 
L 101.030769 287.145931 
L 101.221395 295.488 
L 101.346069 287.145931 
L 101.536695 295.488 
L 101.659563 287.145931 
L 101.850189 295.488 
L 101.97667 287.145931 
L 102.167296 295.488 
L 102.300101 287.145931 
L 102.490727 295.488 
L 102.615402 287.145931 
L 102.806027 295.488 
L 102.931605 287.145931 
L 103.122231 295.488 
L 103.247809 287.145931 
L 103.438435 295.488 
L 103.56582 287.145931 
L 103.756446 295.488 
L 103.882024 287.145931 
L 104.071746 295.488 
L 104.200938 287.145931 
L 104.391563 295.488 
L 104.516238 287.145931 
L 104.706864 295.488 
L 104.827021 287.145931 
L 105.017647 295.488 
L 105.145032 287.145931 
L 105.335658 295.488 
L 105.463042 287.145931 
L 105.653668 295.488 
L 105.777439 287.145931 
L 105.968065 295.488 
L 106.085512 287.145931 
L 106.275234 295.488 
L 106.403523 287.145931 
L 106.594149 295.488 
L 106.716113 287.145931 
L 106.906739 295.488 
L 107.032317 287.145931 
L 107.222942 295.488 
L 107.351231 287.145931 
L 107.541856 295.488 
L 107.665628 287.145931 
L 107.856253 295.488 
L 107.984542 287.145931 
L 108.175167 295.488 
L 108.298035 287.145931 
L 108.487757 295.488 
L 108.609722 287.145931 
L 108.800347 295.488 
L 108.920505 287.145931 
L 109.111131 295.488 
L 109.235805 287.145931 
L 109.426431 295.488 
L 109.549299 287.145931 
L 109.739924 295.488 
L 109.865502 287.145931 
L 110.055225 295.488 
L 110.183513 287.145931 
L 110.374139 295.488 
L 111.938896 287.145931 
L 112.126811 295.488 
L 112.164756 287.145931 
L 112.353574 295.488 
L 112.384291 287.145931 
L 112.57311 295.488 
L 112.608344 287.145931 
L 112.797163 295.488 
L 112.832397 287.145931 
L 113.021216 295.488 
L 113.060064 287.145931 
L 113.247979 295.488 
L 113.287731 287.145931 
L 113.475646 295.488 
L 113.511784 287.145931 
L 113.699699 295.488 
L 113.738547 287.145931 
L 113.927366 295.488 
L 113.9626 287.145931 
L 114.151419 295.488 
L 114.18846 287.145931 
L 114.376375 295.488 
L 114.416126 287.145931 
L 114.604042 295.488 
L 114.641986 287.145931 
L 114.829902 295.488 
L 114.873267 287.145931 
L 115.062086 295.488 
L 115.099127 287.145931 
L 115.287945 295.488 
L 115.324986 287.145931 
L 115.513805 295.488 
L 115.550846 287.145931 
L 115.738762 295.488 
L 115.771286 287.145931 
L 115.960104 295.488 
L 116.000759 287.145931 
L 116.189578 295.488 
L 116.223005 287.145931 
L 116.411824 295.488 
L 116.456093 287.145931 
L 116.644008 295.488 
L 116.681049 287.145931 
L 119.38956 187.041103 
L 119.827728 178.699034 
L 127.541293 187.041103 
L 127.652416 178.699034 
L 127.717464 187.041103 
L 127.733726 170.356966 
L 127.74276 170.356966 
L 127.918028 103.620414 
L 127.931579 111.962483 
L 128.179122 287.145931 
L 128.227907 278.803862 
L 128.416726 295.488 
L 128.447443 287.145931 
L 128.636262 295.488 
L 128.671496 287.145931 
L 128.860315 295.488 
L 128.897356 287.145931 
L 129.086175 295.488 
L 129.12954 287.145931 
L 129.317455 295.488 
L 129.359013 287.145931 
L 129.547832 295.488 
L 129.588487 287.145931 
L 129.777306 295.488 
L 129.81254 287.145931 
L 130.000455 295.488 
L 130.035689 287.145931 
L 130.223605 295.488 
L 130.261549 287.145931 
L 130.449465 295.488 
L 130.481988 287.145931 
L 130.670807 295.488 
L 130.706945 287.145931 
L 130.895764 295.488 
L 130.938225 287.145931 
L 131.127044 295.488 
L 131.162278 287.145931 
L 131.351097 295.488 
L 131.389042 287.145931 
L 131.57786 295.488 
L 131.614901 287.145931 
L 131.80372 295.488 
L 131.841665 287.145931 
L 132.030484 295.488 
L 132.067525 287.145931 
L 132.25544 295.488 
L 132.294288 287.145931 
L 132.483107 295.488 
L 132.519244 287.145931 
L 132.708063 295.488 
L 132.746008 287.145931 
L 132.934826 295.488 
L 132.972771 287.145931 
L 135.694834 187.041103 
L 136.129388 178.699034 
L 143.803202 187.041103 
L 143.912518 178.699034 
L 143.953173 178.699034 
L 143.980276 187.041103 
L 144.013703 162.014897 
L 144.18897 103.620414 
L 144.192584 111.962483 
L 144.363334 237.093517 
L 144.449161 295.488 
L 144.512402 287.145931 
L 144.700317 295.488 
L 144.734648 287.145931 
L 144.923467 295.488 
L 144.957797 287.145931 
L 145.145713 295.488 
L 145.18185 287.145931 
L 145.370669 295.488 
L 145.403193 287.145931 
L 145.592012 295.488 
L 145.629053 287.145931 
L 145.816968 295.488 
L 145.858526 287.145931 
L 146.046442 295.488 
L 146.082579 287.145931 
L 146.271398 295.488 
L 146.303922 287.145931 
L 146.491837 295.488 
L 146.524361 287.145931 
L 146.71318 295.488 
L 146.752028 287.145931 
L 146.939943 295.488 
L 146.977888 287.145931 
L 147.165803 295.488 
L 147.200134 287.145931 
L 147.388953 295.488 
L 147.425994 287.145931 
L 147.613909 295.488 
L 147.650047 287.145931 
L 147.838865 295.488 
L 147.875906 287.145931 
L 148.063822 295.488 
L 148.099959 287.145931 
L 148.287875 295.488 
L 148.324916 287.145931 
L 148.513735 295.488 
L 148.547162 287.145931 
L 148.735981 295.488 
L 148.773022 287.145931 
L 148.960937 295.488 
L 149.002495 287.145931 
L 149.190411 295.488 
L 149.227452 287.145931 
L 152.156402 178.699034 
L 154.644474 187.041103 
L 154.754694 178.699034 
L 154.839617 212.06731 
L 154.858589 203.725241 
L 154.961581 212.06731 
L 155.057346 287.145931 
L 155.084449 278.803862 
L 155.272364 295.488 
L 155.306695 287.145931 
L 155.49461 295.488 
L 155.532555 287.145931 
L 155.721374 295.488 
L 155.764739 287.145931 
L 155.952654 295.488 
L 155.987888 287.145931 
L 156.175804 295.488 
L 156.219169 287.145931 
L 156.407084 295.488 
L 156.445029 287.145931 
L 156.632944 295.488 
L 156.667275 287.145931 
L 156.85519 295.488 
L 156.895845 287.145931 
L 157.084664 295.488 
L 157.123512 287.145931 
L 157.311427 295.488 
L 157.352985 287.145931 
L 157.541804 295.488 
L 157.575231 287.145931 
L 157.763147 295.488 
L 157.799284 287.145931 
L 157.9872 295.488 
L 158.025144 287.145931 
L 158.213963 295.488 
L 158.251907 287.145931 
L 158.479574 278.803862 
L 158.635869 287.145931 
L 158.667489 295.488 
L 158.702724 287.145931 
L 158.891542 295.488 
L 158.931294 287.145931 
L 159.119209 295.488 
L 159.154443 287.145931 
L 159.342359 295.488 
L 159.381207 287.145931 
L 159.569122 295.488 
L 159.60797 287.145931 
L 159.795885 295.488 
L 159.832926 287.145931 
L 160.021745 295.488 
L 160.061496 287.145931 
L 165.491167 295.488 
L 165.705282 287.145931 
L 165.894101 295.488 
L 165.985348 253.777655 
L 166.152484 178.699034 
L 166.173264 195.383172 
L 166.341303 295.488 
L 166.381958 287.145931 
L 166.569873 295.488 
L 166.610528 287.145931 
L 166.799347 295.488 
L 166.834581 287.145931 
L 167.0234 295.488 
L 167.060441 287.145931 
L 167.24926 295.488 
L 167.287204 287.145931 
L 167.47512 295.488 
L 167.507644 287.145931 
L 167.696462 295.488 
L 167.736214 287.145931 
L 167.924129 295.488 
L 167.960267 287.145931 
L 168.149085 295.488 
L 168.185223 287.145931 
L 168.373138 295.488 
L 168.413793 287.145931 
L 168.601709 295.488 
L 168.63875 287.145931 
L 168.827568 295.488 
L 168.860996 287.145931 
L 169.049815 295.488 
L 169.092276 287.145931 
L 169.281095 295.488 
L 169.316329 287.145931 
L 169.504244 295.488 
L 169.541286 287.145931 
L 169.729201 295.488 
L 169.768049 287.145931 
L 169.956868 295.488 
L 169.991198 287.145931 
L 170.179114 295.488 
L 170.219768 287.145931 
L 170.407684 295.488 
L 170.443821 287.145931 
L 170.63264 295.488 
L 170.666971 287.145931 
L 170.85579 295.488 
L 170.895541 287.145931 
L 171.083456 295.488 
L 171.117787 287.145931 
L 171.306606 295.488 
L 171.343647 287.145931 
L 171.531562 295.488 
L 171.564086 287.145931 
L 171.752905 295.488 
L 171.789043 287.145931 
L 171.977861 295.488 
L 172.013999 287.145931 
L 172.201914 295.488 
L 172.237149 287.145931 
L 172.425967 295.488 
L 172.461201 287.145931 
L 172.649117 295.488 
L 172.687061 287.145931 
L 172.87588 295.488 
L 172.909307 287.145931 
L 173.098126 295.488 
L 173.140588 287.145931 
L 173.328503 295.488 
L 173.363737 287.145931 
L 173.552556 295.488 
L 173.590501 287.145931 
L 173.77932 295.488 
L 173.821781 287.145931 
L 174.0106 295.488 
L 174.044931 287.145931 
L 174.23375 295.488 
L 174.270791 287.145931 
L 174.458706 295.488 
L 174.492133 287.145931 
L 174.680049 295.488 
L 174.713476 287.145931 
L 174.901391 295.488 
L 174.937529 287.145931 
L 175.126348 295.488 
L 175.166099 287.145931 
L 175.354918 295.488 
L 175.388345 287.145931 
L 175.57626 295.488 
L 175.611495 287.145931 
L 175.800313 295.488 
L 175.843678 287.145931 
L 176.031594 295.488 
L 176.066828 287.145931 
L 176.254743 295.488 
L 176.294495 287.145931 
L 176.483314 295.488 
L 176.517644 287.145931 
L 176.706463 295.488 
L 176.748021 287.145931 
L 176.93684 295.488 
L 176.974785 287.145931 
L 177.163603 295.488 
L 177.199741 287.145931 
L 177.387656 295.488 
L 177.430118 287.145931 
L 177.618033 295.488 
L 177.653267 287.145931 
L 177.842086 295.488 
L 177.878224 287.145931 
L 178.067043 295.488 
L 178.102277 287.145931 
L 178.291096 295.488 
L 178.329944 287.145931 
L 178.517859 295.488 
L 178.55219 287.145931 
L 178.741008 295.488 
L 178.78347 287.145931 
L 178.972289 295.488 
L 179.004813 287.145931 
L 179.193632 295.488 
L 179.232479 287.145931 
L 179.420395 295.488 
L 179.460146 287.145931 
L 179.648062 295.488 
L 179.688716 287.145931 
L 179.877535 295.488 
L 179.911866 287.145931 
L 180.099781 295.488 
L 181.569677 287.145931 
L 181.760303 295.488 
L 192.72896 287.145931 
L 192.860862 262.119724 
L 192.968371 228.751448 
L 193.105694 237.093517 
L 198.012273 245.435586 
L 198.18212 295.488 
L 203.434716 287.145931 
L 203.809644 195.383172 
L 203.818678 203.725241 
L 204.086096 287.145931 
L 204.160178 295.488 
L 204.279432 287.145931 
L 204.470058 295.488 
L 204.601057 287.145931 
L 204.791682 295.488 
L 204.91455 287.145931 
L 205.105176 295.488 
L 205.237078 287.145931 
L 205.427704 295.488 
L 205.553282 287.145931 
L 205.743004 295.488 
L 205.866775 287.145931 
L 206.057401 295.488 
L 206.182075 287.145931 
L 206.372701 295.488 
L 206.500989 287.145931 
L 206.691615 295.488 
L 206.810869 287.145931 
L 207.001495 295.488 
L 207.127976 287.145931 
L 207.318602 295.488 
L 207.451408 287.145931 
L 207.642033 295.488 
L 207.761287 287.145931 
L 207.951913 295.488 
L 208.07207 287.145931 
L 208.262696 295.488 
L 208.390081 287.145931 
L 208.580707 295.488 
L 208.703575 287.145931 
L 208.893297 295.488 
L 209.026102 287.145931 
L 209.216728 295.488 
L 209.335982 287.145931 
L 209.526608 295.488 
L 209.644958 287.145931 
L 209.835584 295.488 
L 209.960259 287.145931 
L 210.150884 295.488 
L 210.281883 287.145931 
L 210.472509 295.488 
L 210.594473 287.145931 
L 210.785099 295.488 
L 210.916098 287.145931 
L 211.106723 295.488 
L 211.237722 287.145931 
L 211.428348 295.488 
L 211.556636 287.145931 
L 211.746358 295.488 
L 211.874647 287.145931 
L 212.064369 295.488 
L 212.196271 287.145931 
L 212.386897 295.488 
L 212.513378 287.145931 
L 212.703101 295.488 
L 212.825968 287.145931 
L 213.015691 295.488 
L 213.138558 287.145931 
L 213.329184 295.488 
L 213.450245 287.145931 
L 213.640871 295.488 
L 213.771869 287.145931 
L 213.962495 295.488 
L 214.095301 287.145931 
L 216.003365 237.093517 
L 219.706562 245.435586 
L 219.842982 237.093517 
L 219.975787 245.435586 
L 220.077876 220.409379 
L 220.163703 195.383172 
L 220.198937 212.06731 
L 220.575671 295.488 
L 220.704863 287.145931 
L 220.895489 295.488 
L 221.018356 287.145931 
L 221.208982 295.488 
L 221.330946 287.145931 
L 221.521572 295.488 
L 221.645343 287.145931 
L 221.835969 295.488 
L 221.95974 287.145931 
L 222.149463 295.488 
L 222.284075 287.145931 
L 222.474701 295.488 
L 222.603893 287.145931 
L 222.794518 295.488 
L 222.920096 287.145931 
L 223.110722 295.488 
L 223.239914 287.145931 
L 223.43054 295.488 
L 223.556118 287.145931 
L 223.746743 295.488 
L 223.872321 287.145931 
L 224.062947 295.488 
L 224.187622 287.145931 
L 224.378247 295.488 
L 224.502019 287.145931 
L 224.692644 295.488 
L 224.821836 287.145931 
L 225.012462 295.488 
L 225.145267 287.145931 
L 225.335893 295.488 
L 225.45063 287.145931 
L 225.641256 295.488 
L 225.767737 287.145931 
L 225.958363 295.488 
L 226.07852 287.145931 
L 226.269146 295.488 
L 226.390207 287.145931 
L 226.580833 295.488 
L 226.708217 287.145931 
L 226.898843 295.488 
L 227.018097 287.145931 
L 227.207819 295.488 
L 227.330687 287.145931 
L 227.520409 295.488 
L 227.649601 287.145931 
L 227.840227 295.488 
L 227.958578 287.145931 
L 228.149203 295.488 
L 228.273878 287.145931 
L 228.593695 278.803862 
L 228.784321 295.488 
L 228.913513 287.145931 
L 229.104139 295.488 
L 230.211755 287.145931 
L 230.39696 278.803862 
L 230.399671 287.145931 
L 233.273511 153.672828 
L 241.369231 145.330759 
L 241.481258 153.672828 
L 241.645684 78.594207 
L 241.764938 53.568 
L 241.768552 61.910069 
L 241.887806 195.383172 
L 242.113665 287.145931 
L 242.287126 278.803862 
L 242.29345 287.145931 
L 242.468717 278.803862 
L 242.475945 287.145931 
L 242.650308 278.803862 
L 242.656632 287.145931 
L 242.830093 278.803862 
L 242.838224 287.145931 
L 243.007167 278.803862 
L 243.018008 287.145931 
L 243.186048 278.803862 
L 243.195082 287.145931 
L 243.367639 278.803862 
L 243.373963 287.145931 
L 243.548327 278.803862 
L 243.555555 287.145931 
L 243.723594 278.803862 
L 243.736242 287.145931 
L 244.077742 270.461793 
L 244.108459 287.145931 
L 244.261141 278.803862 
L 244.265658 287.145931 
L 244.439118 278.803862 
L 244.44996 287.145931 
L 244.62342 278.803862 
L 244.627034 287.145931 
L 244.807721 278.803862 
L 244.811335 287.145931 
L 244.984796 278.803862 
L 244.99654 287.145931 
L 245.166387 278.803862 
L 245.172711 287.145931 
L 245.346171 278.803862 
L 245.354302 287.145931 
L 245.528666 278.803862 
L 245.534087 287.145931 
L 245.710257 278.803862 
L 245.716581 287.145931 
L 245.893656 278.803862 
L 245.899076 287.145931 
L 246.071633 278.803862 
L 246.081571 287.145931 
L 246.250514 278.803862 
L 246.259549 287.145931 
L 246.430299 278.803862 
L 246.43843 287.145931 
L 246.6146 278.803862 
L 246.619117 287.145931 
L 246.794385 278.803862 
L 246.803419 287.145931 
L 246.973266 278.803862 
L 246.9823 287.145931 
L 247.154857 278.803862 
L 247.161181 287.145931 
L 247.337352 278.803862 
L 247.343676 287.145931 
L 247.513522 278.803862 
L 247.525267 287.145931 
L 247.696017 278.803862 
L 247.701438 287.145931 
L 247.876705 278.803862 
L 247.883932 287.145931 
L 248.0592 278.803862 
L 248.06462 287.145931 
L 248.240791 278.803862 
L 248.248019 287.145931 
L 248.419672 278.803862 
L 248.428706 287.145931 
L 248.60307 278.803862 
L 248.608491 287.145931 
L 248.788275 278.803862 
L 248.790986 287.145931 
L 248.968963 278.803862 
L 248.976191 287.145931 
L 249.151458 278.803862 
L 249.156879 287.145931 
L 249.330339 278.803862 
L 249.339373 287.145931 
L 249.515544 278.803862 
L 249.518254 287.145931 
L 249.692618 278.803862 
L 249.703459 287.145931 
L 249.877823 278.803862 
L 249.880533 287.145931 
L 250.062125 278.803862 
L 250.066642 287.145931 
L 250.241006 278.803862 
L 250.25004 287.145931 
L 250.424404 278.803862 
L 250.428921 287.145931 
L 250.600575 278.803862 
L 250.612319 287.145931 
L 250.780359 278.803862 
L 250.78849 287.145931 
L 250.95924 278.803862 
L 250.968274 287.145931 
L 251.142638 278.803862 
L 251.148059 287.145931 
L 251.32423 278.803862 
L 251.331457 287.145931 
L 251.506724 278.803862 
L 251.512145 287.145931 
L 251.687412 278.803862 
L 251.695543 287.145931 
L 251.869003 278.803862 
L 251.875328 287.145931 
L 252.045174 278.803862 
L 252.056919 287.145931 
L 252.223152 278.803862 
L 252.23309 287.145931 
L 252.404743 278.803862 
L 252.411067 287.145931 
L 252.589045 278.803862 
L 252.593562 287.145931 
L 252.772443 278.803862 
L 252.777863 287.145931 
L 252.955841 278.803862 
L 252.960358 287.145931 
L 253.132915 278.803862 
L 253.14466 287.145931 
L 253.309086 278.803862 
L 253.320831 287.145931 
L 253.491581 278.803862 
L 253.497001 287.145931 
L 253.674979 278.803862 
L 253.680399 287.145931 
L 253.85386 278.803862 
L 253.862894 287.145931 
L 254.030934 278.803862 
L 254.041775 287.145931 
L 254.208911 278.803862 
L 254.219753 287.145931 
L 254.387792 278.803862 
L 254.396827 287.145931 
L 254.56577 278.803862 
L 254.575708 287.145931 
L 254.747361 278.803862 
L 254.754589 287.145931 
L 254.928953 278.803862 
L 254.935277 287.145931 
L 255.107834 278.803862 
L 255.116868 287.145931 
L 255.284908 278.803862 
L 255.295749 287.145931 
L 255.464692 278.803862 
L 255.472823 287.145931 
L 255.64538 278.803862 
L 255.652607 287.145931 
L 255.824261 278.803862 
L 255.833295 287.145931 
L 256.004045 278.803862 
L 256.01308 287.145931 
L 256.18654 278.803862 
L 256.191961 287.145931 
L 256.371745 278.803862 
L 256.374456 287.145931 
L 256.553337 278.803862 
L 256.559661 287.145931 
L 256.733121 278.803862 
L 256.742155 287.145931 
L 256.915616 278.803862 
L 256.921036 287.145931 
L 257.097207 278.803862 
L 257.103531 287.145931 
L 257.276088 278.803862 
L 257.285122 287.145931 
L 257.453162 278.803862 
L 257.464003 287.145931 
L 257.63385 278.803862 
L 257.641981 287.145931 
L 257.816345 278.803862 
L 257.822669 287.145931 
L 257.993419 278.803862 
L 258.00426 287.145931 
L 258.175914 278.803862 
L 258.181334 287.145931 
L 258.358408 278.803862 
L 258.363829 287.145931 
L 258.539096 278.803862 
L 258.546324 287.145931 
L 258.721591 278.803862 
L 258.727012 287.145931 
L 258.900472 278.803862 
L 258.91041 287.145931 
L 259.08658 278.803862 
L 259.088387 287.145931 
L 259.266365 278.803862 
L 259.274496 287.145931 
L 259.445246 278.803862 
L 259.45428 287.145931 
L 259.629548 278.803862 
L 259.633161 287.145931 
L 259.811139 278.803862 
L 259.817463 287.145931 
L 259.991827 278.803862 
L 259.999054 287.145931 
L 260.172515 278.803862 
L 260.180646 287.145931 
L 260.350492 278.803862 
L 260.36043 287.145931 
L 260.529373 278.803862 
L 260.538408 287.145931 
L 260.710964 278.803862 
L 260.717289 287.145931 
L 260.889845 278.803862 
L 260.89888 287.145931 
L 261.070533 278.803862 
L 261.077761 287.145931 
L 261.251221 278.803862 
L 261.258449 287.145931 
L 261.433716 278.803862 
L 261.439137 287.145931 
L 261.617114 278.803862 
L 261.621631 287.145931 
L 261.801416 278.803862 
L 261.805029 287.145931 
L 261.980297 278.803862 
L 261.989331 287.145931 
L 262.160081 278.803862 
L 262.168212 287.145931 
L 262.343479 278.803862 
L 262.347997 287.145931 
L 262.525974 278.803862 
L 262.532298 287.145931 
L 262.704855 278.803862 
L 262.713889 287.145931 
L 262.882833 278.803862 
L 262.89277 287.145931 
L 263.062617 278.803862 
L 263.070748 287.145931 
L 263.244208 278.803862 
L 263.250532 287.145931 
L 263.42851 278.803862 
L 263.433027 287.145931 
L 263.607391 278.803862 
L 263.616425 287.145931 
L 263.784465 278.803862 
L 263.795306 287.145931 
L 263.96696 278.803862 
L 263.97238 287.145931 
L 264.145841 278.803862 
L 264.154875 287.145931 
L 264.324722 278.803862 
L 264.33466 287.145931 
L 264.50541 278.803862 
L 264.513541 287.145931 
L 264.687904 278.803862 
L 264.693325 287.145931 
L 264.870399 278.803862 
L 264.87582 287.145931 
L 265.052894 278.803862 
L 265.058315 287.145931 
L 265.229968 278.803862 
L 265.241713 287.145931 
L 265.409753 278.803862 
L 265.417883 287.145931 
L 265.591344 278.803862 
L 265.597668 287.145931 
L 265.773839 278.803862 
L 265.779259 287.145931 
L 265.95543 278.803862 
L 265.962657 287.145931 
L 266.136118 278.803862 
L 266.143345 287.145931 
L 266.316806 278.803862 
L 266.324033 287.145931 
L 266.502011 278.803862 
L 266.505624 287.145931 
L 266.680892 278.803862 
L 266.689926 287.145931 
L 266.862483 278.803862 
L 266.869711 287.145931 
L 267.039557 278.803862 
L 267.050398 287.145931 
L 267.220245 278.803862 
L 267.228376 287.145931 
L 267.398223 278.803862 
L 267.409064 287.145931 
L 267.5762 278.803862 
L 267.586138 287.145931 
L 267.757791 278.803862 
L 267.764115 287.145931 
L 267.939383 278.803862 
L 267.945707 287.145931 
L 268.123684 278.803862 
L 268.127298 287.145931 
L 268.304372 278.803862 
L 268.3116 287.145931 
L 268.484157 278.803862 
L 268.492288 287.145931 
L 268.666651 278.803862 
L 268.672072 287.145931 
L 268.842822 278.803862 
L 268.854567 287.145931 
L 269.027124 278.803862 
L 269.030737 287.145931 
L 269.212329 278.803862 
L 269.215039 287.145931 
L 269.39392 278.803862 
L 269.400244 287.145931 
L 269.575511 278.803862 
L 269.581835 287.145931 
L 269.755296 278.803862 
L 269.763427 287.145931 
L 269.935984 278.803862 
L 269.943211 287.145931 
L 270.117575 278.803862 
L 270.123899 287.145931 
L 270.300973 278.803862 
L 270.30549 287.145931 
L 270.483468 278.803862 
L 270.489792 287.145931 
L 270.663252 278.803862 
L 270.671383 287.145931 
L 270.842133 278.803862 
L 270.851168 287.145931 
L 271.021918 278.803862 
L 271.030049 287.145931 
L 271.206219 278.803862 
L 271.209833 287.145931 
L 271.38239 278.803862 
L 271.394135 287.145931 
L 271.559464 278.803862 
L 271.570305 287.145931 
L 271.734731 278.803862 
L 271.74738 287.145931 
L 271.914516 278.803862 
L 271.922647 287.145931 
L 272.095204 278.803862 
L 272.102431 287.145931 
L 272.279505 278.803862 
L 272.284023 287.145931 
L 272.457483 278.803862 
L 272.468324 287.145931 
L 272.636364 278.803862 
L 272.646302 287.145931 
L 272.816148 278.803862 
L 272.824279 287.145931 
L 272.995933 278.803862 
L 273.004064 287.145931 
L 273.176621 278.803862 
L 273.183848 287.145931 
L 273.359115 278.803862 
L 273.364536 287.145931 
L 273.537996 278.803862 
L 273.547031 287.145931 
L 273.715974 278.803862 
L 273.725912 287.145931 
L 273.897565 278.803862 
L 273.903889 287.145931 
L 274.08006 278.803862 
L 274.085481 287.145931 
L 274.259844 278.803862 
L 274.268879 287.145931 
L 274.444146 278.803862 
L 274.44776 287.145931 
L 274.622124 278.803862 
L 274.632061 287.145931 
L 274.800101 278.803862 
L 274.810039 287.145931 
L 274.980789 278.803862 
L 274.988017 287.145931 
L 275.165091 278.803862 
L 275.168704 287.145931 
L 275.343972 278.803862 
L 275.353006 287.145931 
L 275.526466 278.803862 
L 275.53279 287.145931 
L 275.704444 278.803862 
L 275.715285 287.145931 
L 275.886035 278.803862 
L 275.892359 287.145931 
L 276.07124 278.803862 
L 276.074854 287.145931 
L 276.249218 278.803862 
L 276.259156 287.145931 
L 276.608787 270.461793 
L 276.634083 287.145931 
L 276.789475 278.803862 
L 276.796702 287.145931 
L 276.970162 278.803862 
L 276.97739 287.145931 
L 277.14814 278.803862 
L 277.158078 287.145931 
L 277.323407 278.803862 
L 277.336055 287.145931 
L 277.503192 278.803862 
L 277.511323 287.145931 
L 277.682976 278.803862 
L 277.691107 287.145931 
L 277.865471 278.803862 
L 277.870892 287.145931 
L 278.040738 278.803862 
L 278.053386 287.145931 
L 278.221426 278.803862 
L 278.228653 287.145931 
L 278.403017 278.803862 
L 278.410245 287.145931 
L 278.583705 278.803862 
L 278.590933 287.145931 
L 278.761683 278.803862 
L 278.772524 287.145931 
L 278.943274 278.803862 
L 278.949598 287.145931 
L 279.128479 278.803862 
L 279.131189 287.145931 
L 279.31007 278.803862 
L 279.316394 287.145931 
L 279.492565 278.803862 
L 279.497986 287.145931 
L 279.671446 278.803862 
L 279.680481 287.145931 
L 279.84852 278.803862 
L 279.859362 287.145931 
L 280.033725 278.803862 
L 280.036436 287.145931 
L 280.214413 278.803862 
L 280.222544 287.145931 
L 280.391487 278.803862 
L 280.403232 287.145931 
L 280.572175 278.803862 
L 280.579403 287.145931 
L 280.748346 278.803862 
L 280.760091 287.145931 
L 280.92813 278.803862 
L 280.936261 287.145931 
L 281.108818 278.803862 
L 281.116949 287.145931 
L 281.294927 278.803862 
L 281.297637 287.145931 
L 281.479228 278.803862 
L 281.482842 287.145931 
L 281.659013 278.803862 
L 281.668047 287.145931 
L 281.83699 278.803862 
L 281.846928 287.145931 
L 282.016775 278.803862 
L 282.024906 287.145931 
L 282.195656 278.803862 
L 282.205594 287.145931 
L 282.37544 278.803862 
L 282.383571 287.145931 
L 282.552514 278.803862 
L 282.563356 287.145931 
L 282.733202 278.803862 
L 282.74043 287.145931 
L 282.919311 278.803862 
L 282.921118 287.145931 
L 283.099095 278.803862 
L 283.107226 287.145931 
L 283.275266 278.803862 
L 283.28701 287.145931 
L 283.45776 278.803862 
L 283.464085 287.145931 
L 283.637545 278.803862 
L 283.646579 287.145931 
L 283.818233 278.803862 
L 283.82546 287.145931 
L 283.998017 278.803862 
L 284.006148 287.145931 
L 284.3612 270.461793 
L 284.382882 287.145931 
L 284.539177 278.803862 
L 284.549115 287.145931 
L 284.719865 278.803862 
L 284.727093 287.145931 
L 284.900553 278.803862 
L 284.907781 287.145931 
L 285.076724 278.803862 
L 285.088469 287.145931 
L 285.257412 278.803862 
L 285.265543 287.145931 
L 285.435389 278.803862 
L 285.445327 287.145931 
L 285.616077 278.803862 
L 285.624208 287.145931 
L 285.800379 278.803862 
L 285.803992 287.145931 
L 285.98197 278.803862 
L 285.988294 287.145931 
L 286.157237 278.803862 
L 286.169885 287.145931 
L 286.335215 278.803862 
L 286.345153 287.145931 
L 286.511385 278.803862 
L 286.52313 287.145931 
L 286.692073 278.803862 
L 286.699301 287.145931 
L 286.876375 278.803862 
L 286.879989 287.145931 
L 287.059773 278.803862 
L 287.06429 287.145931 
L 287.240461 278.803862 
L 287.247689 287.145931 
L 287.417535 278.803862 
L 287.428376 287.145931 
L 287.598223 278.803862 
L 287.605451 287.145931 
L 287.779814 278.803862 
L 287.786138 287.145931 
L 287.957792 278.803862 
L 287.96773 287.145931 
L 288.13848 278.803862 
L 288.146611 287.145931 
L 288.319168 278.803862 
L 288.326395 287.145931 
L 288.502566 278.803862 
L 288.507083 287.145931 
L 288.680543 278.803862 
L 288.690481 287.145931 
L 288.863038 278.803862 
L 288.868459 287.145931 
L 289.044629 278.803862 
L 289.050954 287.145931 
L 289.224414 278.803862 
L 289.232545 287.145931 
L 289.402391 278.803862 
L 289.412329 287.145931 
L 289.583079 278.803862 
L 289.59121 287.145931 
L 289.76196 278.803862 
L 289.771898 287.145931 
L 289.942648 278.803862 
L 289.949876 287.145931 
L 290.120626 278.803862 
L 290.130564 287.145931 
L 290.301314 278.803862 
L 290.309445 287.145931 
L 290.481098 278.803862 
L 290.490132 287.145931 
L 290.661786 278.803862 
L 290.669013 287.145931 
L 290.83886 278.803862 
L 290.849701 287.145931 
L 291.019548 278.803862 
L 291.026775 287.145931 
L 291.202946 278.803862 
L 291.207463 287.145931 
L 291.38273 278.803862 
L 291.390861 287.145931 
L 291.565225 278.803862 
L 291.570646 287.145931 
L 291.748623 278.803862 
L 291.753141 287.145931 
L 291.930215 278.803862 
L 291.936539 287.145931 
L 292.112709 278.803862 
L 292.11813 287.145931 
L 292.295204 278.803862 
L 292.300625 287.145931 
L 292.474989 278.803862 
L 292.48312 287.145931 
L 292.655677 278.803862 
L 292.662904 287.145931 
L 292.838171 278.803862 
L 292.843592 287.145931 
L 293.022473 278.803862 
L 293.026087 287.145931 
L 293.203161 278.803862 
L 293.211292 287.145931 
L 293.382945 278.803862 
L 293.391076 287.145931 
L 293.56273 278.803862 
L 293.570861 287.145931 
L 293.745224 278.803862 
L 293.750645 287.145931 
L 293.927719 278.803862 
L 293.93314 287.145931 
L 294.112924 278.803862 
L 294.115635 287.145931 
L 294.293612 278.803862 
L 294.30084 287.145931 
L 294.475203 278.803862 
L 294.482431 287.145931 
L 294.657698 278.803862 
L 294.664022 287.145931 
L 294.834772 278.803862 
L 294.845614 287.145931 
L 295.01275 278.803862 
L 295.022688 287.145931 
L 295.192534 278.803862 
L 295.200665 287.145931 
L 295.374126 278.803862 
L 295.38045 287.145931 
L 295.554813 278.803862 
L 295.562041 287.145931 
L 301.006166 295.488 
L 301.219378 278.803862 
L 301.466017 228.751448 
L 301.656643 287.145931 
L 301.759635 295.488 
L 301.89244 287.145931 
L 302.083066 295.488 
L 302.209548 287.145931 
L 302.400173 295.488 
L 302.526655 287.145931 
L 302.717281 295.488 
L 302.843762 287.145931 
L 303.034388 295.488 
L 303.160869 287.145931 
L 303.351495 295.488 
L 303.484301 287.145931 
L 303.674023 295.488 
L 303.805022 287.145931 
L 303.995647 295.488 
L 304.124839 287.145931 
L 304.315465 295.488 
L 304.44556 287.145931 
L 304.636186 295.488 
L 304.76086 287.145931 
L 304.951486 295.488 
L 305.081581 287.145931 
L 305.272207 295.488 
L 305.40682 287.145931 
L 305.596542 295.488 
L 305.717603 287.145931 
L 305.907325 295.488 
L 306.030193 287.145931 
L 306.220818 295.488 
L 306.345493 287.145931 
L 306.535215 295.488 
L 306.667117 287.145931 
L 306.857743 295.488 
L 306.980611 287.145931 
L 307.170333 295.488 
L 307.297718 287.145931 
L 307.488344 295.488 
L 307.614825 287.145931 
L 307.805451 295.488 
L 307.938257 287.145931 
L 308.128882 295.488 
L 308.25446 287.145931 
L 308.569761 278.803862 
L 308.760386 295.488 
L 308.883254 287.145931 
L 309.07388 295.488 
L 309.193134 287.145931 
L 309.382856 295.488 
L 309.509338 287.145931 
L 309.699963 295.488 
L 309.823735 287.145931 
L 310.01436 295.488 
L 310.137228 287.145931 
L 310.327854 295.488 
L 310.448011 287.145931 
L 310.638637 295.488 
L 310.761505 287.145931 
L 310.95213 295.488 
L 311.069577 287.145931 
L 311.260203 295.488 
L 311.389395 287.145931 
L 311.580021 295.488 
L 311.707406 287.145931 
L 311.898031 295.488 
L 312.019092 287.145931 
L 312.209718 295.488 
L 312.328068 287.145931 
L 312.518694 295.488 
L 312.646983 287.145931 
L 312.837608 295.488 
L 312.971317 287.145931 
L 313.161943 295.488 
L 313.293845 287.145931 
L 313.484471 295.488 
L 313.611856 287.145931 
L 313.802481 295.488 
L 313.924446 287.145931 
L 314.115071 295.488 
L 314.244263 287.145931 
L 314.434889 295.488 
L 314.564984 287.145931 
L 314.75561 295.488 
L 314.886609 287.145931 
L 315.076331 295.488 
L 315.196488 287.145931 
L 315.387114 295.488 
L 315.513596 287.145931 
L 315.704221 295.488 
L 315.822572 287.145931 
L 316.013198 295.488 
L 316.132452 287.145931 
L 316.323077 295.488 
L 316.454979 287.145931 
L 316.645605 295.488 
L 316.77299 287.145931 
L 316.963616 295.488 
L 317.094614 287.145931 
L 317.28524 295.488 
L 317.413529 287.145931 
L 317.604154 295.488 
L 317.73425 287.145931 
L 317.924875 295.488 
L 318.051357 287.145931 
L 318.241982 295.488 
L 318.369367 287.145931 
L 318.559993 295.488 
L 318.690088 287.145931 
L 319.004485 278.803862 
L 319.195111 295.488 
L 319.316172 287.145931 
L 319.506798 295.488 
L 319.634183 287.145931 
L 319.824808 295.488 
L 319.944062 287.145931 
L 320.133784 295.488 
L 320.260266 287.145931 
L 320.450892 295.488 
L 320.580084 287.145931 
L 320.770709 295.488 
L 320.895384 287.145931 
L 321.08601 295.488 
L 321.211588 287.145931 
L 321.402213 295.488 
L 321.533212 287.145931 
L 321.723838 295.488 
L 321.856643 287.145931 
L 322.047269 295.488 
L 322.170137 287.145931 
L 322.360762 295.488 
L 322.487244 287.145931 
L 322.808868 278.803862 
L 322.96426 287.145931 
L 323.131396 278.803862 
L 324.703381 237.093517 
L 333.659175 245.435586 
L 333.770298 237.093517 
L 333.822698 245.435586 
L 333.84709 228.751448 
L 333.857028 237.093517 
L 334.00971 195.383172 
L 334.01784 203.725241 
L 334.278031 278.803862 
L 334.381023 295.488 
L 334.512022 287.145931 
L 334.701744 295.488 
L 334.827322 287.145931 
L 335.017948 295.488 
L 335.142622 287.145931 
L 335.332345 295.488 
L 335.458826 287.145931 
L 335.649452 295.488 
L 335.774127 287.145931 
L 335.963849 295.488 
L 336.903426 287.145931 
L 337.091341 295.488 
L 337.127479 287.145931 
L 337.315394 295.488 
L 337.354242 287.145931 
L 337.542157 295.488 
L 337.580102 287.145931 
L 337.768921 295.488 
L 337.807769 287.145931 
L 337.995684 295.488 
L 338.032725 287.145931 
L 338.22064 295.488 
L 338.254068 287.145931 
L 338.442886 295.488 
L 338.479024 287.145931 
L 338.667843 295.488 
L 338.70398 287.145931 
L 338.892799 295.488 
L 338.935261 287.145931 
L 339.12408 295.488 
L 344.58266 287.145931 
L 344.770576 295.488 
L 344.871761 245.435586 
L 345.037994 178.699034 
L 345.059676 195.383172 
L 345.226813 295.488 
L 345.250302 287.145931 
L 345.438217 295.488 
L 345.478872 287.145931 
L 345.666787 295.488 
L 345.703828 287.145931 
L 345.891744 295.488 
L 345.924268 287.145931 
L 346.113087 295.488 
L 346.153741 287.145931 
L 346.34256 295.488 
L 346.378698 287.145931 
L 346.566613 295.488 
L 346.603654 287.145931 
L 346.792473 295.488 
L 346.834031 287.145931 
L 347.021947 295.488 
L 347.062601 287.145931 
L 347.25142 295.488 
L 347.283944 287.145931 
L 347.471859 295.488 
L 347.507093 287.145931 
L 347.695912 295.488 
L 347.73476 287.145931 
L 347.923579 295.488 
L 347.958813 287.145931 
L 348.147632 295.488 
L 348.184673 287.145931 
L 348.373492 295.488 
L 348.411436 287.145931 
L 348.600255 295.488 
L 348.6382 287.145931 
L 348.827018 295.488 
L 348.861349 287.145931 
L 349.049264 295.488 
L 349.082692 287.145931 
L 349.270607 295.488 
L 349.305841 287.145931 
L 349.493757 295.488 
L 349.530798 287.145931 
L 349.718713 295.488 
L 349.755754 287.145931 
L 349.943669 295.488 
L 349.979807 287.145931 
L 350.168626 295.488 
L 350.202956 287.145931 
L 350.391775 295.488 
L 350.42972 287.145931 
L 350.618539 295.488 
L 350.661904 287.145931 
L 350.849819 295.488 
L 350.887764 287.145931 
L 351.076582 295.488 
L 351.11272 287.145931 
L 351.301539 295.488 
L 351.339483 287.145931 
L 351.527399 295.488 
L 351.56715 287.145931 
L 351.755065 295.488 
L 351.788493 287.145931 
L 351.976408 295.488 
L 352.013449 287.145931 
L 352.202268 295.488 
L 352.240212 287.145931 
L 352.429031 295.488 
L 352.461555 287.145931 
L 352.650374 295.488 
L 352.684704 287.145931 
L 352.873523 295.488 
L 352.912371 287.145931 
L 353.10119 295.488 
L 353.131907 287.145931 
L 353.320726 295.488 
L 353.356863 287.145931 
L 353.545682 295.488 
L 353.586337 287.145931 
L 353.775156 295.488 
L 353.814907 287.145931 
L 354.003726 295.488 
L 354.03625 287.145931 
L 354.224165 295.488 
L 354.260303 287.145931 
L 354.448218 295.488 
L 354.49068 287.145931 
L 354.679498 295.488 
L 354.716539 287.145931 
L 354.905358 295.488 
L 354.946013 287.145931 
L 355.134832 295.488 
L 355.175487 287.145931 
L 355.363402 295.488 
L 355.39954 287.145931 
L 355.587455 295.488 
L 355.619979 287.145931 
L 355.807894 295.488 
L 355.844032 287.145931 
L 356.032851 295.488 
L 356.065374 287.145931 
L 356.254193 295.488 
L 356.292138 287.145931 
L 356.480053 295.488 
L 356.516191 287.145931 
L 356.70501 295.488 
L 356.741147 287.145931 
L 356.929966 295.488 
L 356.968814 287.145931 
L 357.157633 295.488 
L 357.195577 287.145931 
L 357.383492 295.488 
L 357.423244 287.145931 
L 357.612063 295.488 
L 357.644586 287.145931 
L 357.833405 295.488 
L 357.873157 287.145931 
L 358.061975 295.488 
L 358.095403 287.145931 
L 358.284221 295.488 
L 358.316745 287.145931 
L 358.504661 295.488 
L 358.541702 287.145931 
L 358.730521 295.488 
L 358.766658 287.145931 
L 358.955477 295.488 
L 358.996132 287.145931 
L 359.184047 295.488 
L 359.216571 287.145931 
L 359.40539 295.488 
L 359.446045 287.145931 
L 359.63396 295.488 
L 359.672808 287.145931 
L 359.861627 295.488 
L 359.900474 287.145931 
L 360.08839 295.488 
L 360.119107 287.145931 
L 360.307926 295.488 
L 360.34858 287.145931 
L 360.537399 295.488 
L 360.578957 287.145931 
L 360.767776 295.488 
L 360.803914 287.145931 
L 360.991829 295.488 
L 361.031581 287.145931 
L 361.220399 295.488 
L 361.25744 287.145931 
L 361.446259 295.488 
L 361.478783 287.145931 
L 361.667602 295.488 
L 361.705546 287.145931 
L 361.894365 295.488 
L 361.930503 287.145931 
L 362.118418 295.488 
L 362.158169 287.145931 
L 362.346085 295.488 
L 362.38674 287.145931 
L 362.575558 295.488 
L 362.608986 287.145931 
L 362.796901 295.488 
L 362.832135 287.145931 
L 363.020051 295.488 
L 363.055285 287.145931 
L 363.244104 295.488 
L 363.281145 287.145931 
L 363.469963 295.488 
L 363.507004 287.145931 
L 363.69492 295.488 
L 363.727444 287.145931 
L 363.915359 295.488 
L 363.950593 287.145931 
L 364.138509 295.488 
L 364.171032 287.145931 
L 364.358948 295.488 
L 364.389665 287.145931 
L 364.57758 295.488 
L 364.611007 287.145931 
L 364.799826 295.488 
L 364.834157 287.145931 
L 365.022976 295.488 
L 365.061824 287.145931 
L 365.250642 295.488 
L 365.28949 287.145931 
L 365.477406 295.488 
L 365.521674 287.145931 
L 365.70959 295.488 
L 365.743017 287.145931 
L 365.930932 295.488 
L 365.96707 287.145931 
L 366.155889 295.488 
L 366.193833 287.145931 
L 366.381748 295.488 
L 366.418789 287.145931 
L 366.606705 295.488 
L 366.642842 287.145931 
L 366.831661 295.488 
L 366.868702 287.145931 
L 367.057521 295.488 
L 367.095466 287.145931 
L 367.284284 295.488 
L 367.321325 287.145931 
L 367.510144 295.488 
L 367.548992 287.145931 
L 367.737811 295.488 
L 367.775755 287.145931 
L 367.964574 295.488 
L 368.000712 287.145931 
L 368.188627 295.488 
L 368.223861 287.145931 
L 368.41268 295.488 
L 368.447914 287.145931 
L 368.636733 295.488 
L 368.67016 287.145931 
L 368.858076 295.488 
L 368.89602 287.145931 
L 369.084839 295.488 
L 369.118266 287.145931 
L 369.307085 295.488 
L 369.348643 287.145931 
L 369.537462 295.488 
L 369.572696 287.145931 
L 369.760612 295.488 
L 369.794039 287.145931 
L 369.981954 295.488 
L 370.018995 287.145931 
L 370.207814 295.488 
L 370.244855 287.145931 
L 370.433674 295.488 
L 370.475232 287.145931 
L 370.664051 295.488 
L 370.697478 287.145931 
L 370.885394 295.488 
L 370.928759 287.145931 
L 371.117578 295.488 
L 371.152812 287.145931 
L 371.340727 295.488 
L 371.379575 287.145931 
L 371.56749 295.488 
L 377.019747 287.145931 
L 377.114608 270.461793 
L 377.276324 170.356966 
L 377.403709 178.699034 
L 387.737248 187.041103 
L 387.882702 195.383172 
L 388.049838 295.488 
L 393.14885 287.145931 
L 393.538232 103.620414 
L 393.798422 287.145931 
L 393.942973 295.488 
L 393.982724 287.145931 
L 394.170639 295.488 
L 394.212198 287.145931 
L 394.400113 295.488 
L 394.434444 287.145931 
L 394.623263 295.488 
L 394.6594 287.145931 
L 394.848219 295.488 
L 394.887067 287.145931 
L 395.075886 295.488 
L 395.11112 287.145931 
L 395.299939 295.488 
L 395.333366 287.145931 
L 395.521281 295.488 
L 395.559226 287.145931 
L 395.747141 295.488 
L 395.785989 287.145931 
L 395.973904 295.488 
L 396.008235 287.145931 
L 396.196151 295.488 
L 396.236805 287.145931 
L 396.424721 295.488 
L 396.466279 287.145931 
L 396.654194 295.488 
L 396.690332 287.145931 
L 396.878247 295.488 
L 396.917999 287.145931 
L 397.106817 295.488 
L 397.146569 287.145931 
L 397.334484 295.488 
L 397.374235 287.145931 
L 397.562151 295.488 
L 397.598288 287.145931 
L 397.787107 295.488 
L 397.822341 287.145931 
L 398.010257 295.488 
L 398.046394 287.145931 
L 398.235213 295.488 
L 398.267737 287.145931 
L 398.455652 295.488 
L 398.487273 287.145931 
L 398.487273 287.145931 
" clip-path="url(#p519389fd10)" style="fill: none; stroke: #1f77b4; stroke-width: 1.5; stroke-linecap: square"/>
   </g>
   <g id="patch_3">
    <path d="M 57.6 307.584 
L 57.6 41.472 
" style="fill: none; stroke: #000000; stroke-width: 0.8; stroke-linejoin: miter; stroke-linecap: square"/>
   </g>
   <g id="patch_4">
    <path d="M 414.72 307.584 
L 414.72 41.472 
" style="fill: none; stroke: #000000; stroke-width: 0.8; stroke-linejoin: miter; stroke-linecap: square"/>
   </g>
   <g id="patch_5">
    <path d="M 57.6 307.584 
L 414.72 307.584 
" style="fill: none; stroke: #000000; stroke-width: 0.8; stroke-linejoin: miter; stroke-linecap: square"/>
   </g>
   <g id="patch_6">
    <path d="M 57.6 41.472 
L 414.72 41.472 
" style="fill: none; stroke: #000000; stroke-width: 0.8; stroke-linejoin: miter; stroke-linecap: square"/>
   </g>
   <g id="text_17">
    <!-- Queue size (y-axis) between S3 and sensors that follow at a time (x-axis). -->
    <g transform="translate(14.282813 35.472) scale(0.12 -0.12)">
     <defs>
      <path id="DejaVuSans-51" d="M 2522 4238 
Q 1834 4238 1429 3725 
Q 1025 3213 1025 2328 
Q 1025 1447 1429 934 
Q 1834 422 2522 422 
Q 3209 422 3611 934 
Q 4013 1447 4013 2328 
Q 4013 3213 3611 3725 
Q 3209 4238 2522 4238 
z
M 3406 84 
L 4238 -825 
L 3475 -825 
L 2784 -78 
Q 2681 -84 2626 -87 
Q 2572 -91 2522 -91 
Q 1538 -91 948 567 
Q 359 1225 359 2328 
Q 359 3434 948 4092 
Q 1538 4750 2522 4750 
Q 3503 4750 4090 4092 
Q 4678 3434 4678 2328 
Q 4678 1516 4351 937 
Q 4025 359 3406 84 
z
" transform="scale(0.015625)"/>
      <path id="DejaVuSans-75" d="M 544 1381 
L 544 3500 
L 1119 3500 
L 1119 1403 
Q 1119 906 1312 657 
Q 1506 409 1894 409 
Q 2359 409 2629 706 
Q 2900 1003 2900 1516 
L 2900 3500 
L 3475 3500 
L 3475 0 
L 2900 0 
L 2900 538 
Q 2691 219 2414 64 
Q 2138 -91 1772 -91 
Q 1169 -91 856 284 
Q 544 659 544 1381 
z
M 1991 3584 
L 1991 3584 
z
" transform="scale(0.015625)"/>
      <path id="DejaVuSans-20" transform="scale(0.015625)"/>
      <path id="DejaVuSans-73" d="M 2834 3397 
L 2834 2853 
Q 2591 2978 2328 3040 
Q 2066 3103 1784 3103 
Q 1356 3103 1142 2972 
Q 928 2841 928 2578 
Q 928 2378 1081 2264 
Q 1234 2150 1697 2047 
L 1894 2003 
Q 2506 1872 2764 1633 
Q 3022 1394 3022 966 
Q 3022 478 2636 193 
Q 2250 -91 1575 -91 
Q 1294 -91 989 -36 
Q 684 19 347 128 
L 347 722 
Q 666 556 975 473 
Q 1284 391 1588 391 
Q 1994 391 2212 530 
Q 2431 669 2431 922 
Q 2431 1156 2273 1281 
Q 2116 1406 1581 1522 
L 1381 1569 
Q 847 1681 609 1914 
Q 372 2147 372 2553 
Q 372 3047 722 3315 
Q 1072 3584 1716 3584 
Q 2034 3584 2315 3537 
Q 2597 3491 2834 3397 
z
" transform="scale(0.015625)"/>
      <path id="DejaVuSans-69" d="M 603 3500 
L 1178 3500 
L 1178 0 
L 603 0 
L 603 3500 
z
M 603 4863 
L 1178 4863 
L 1178 4134 
L 603 4134 
L 603 4863 
z
" transform="scale(0.015625)"/>
      <path id="DejaVuSans-7a" d="M 353 3500 
L 3084 3500 
L 3084 2975 
L 922 459 
L 3084 459 
L 3084 0 
L 275 0 
L 275 525 
L 2438 3041 
L 353 3041 
L 353 3500 
z
" transform="scale(0.015625)"/>
      <path id="DejaVuSans-28" d="M 1984 4856 
Q 1566 4138 1362 3434 
Q 1159 2731 1159 2009 
Q 1159 1288 1364 580 
Q 1569 -128 1984 -844 
L 1484 -844 
Q 1016 -109 783 600 
Q 550 1309 550 2009 
Q 550 2706 781 3412 
Q 1013 4119 1484 4856 
L 1984 4856 
z
" transform="scale(0.015625)"/>
      <path id="DejaVuSans-79" d="M 2059 -325 
Q 1816 -950 1584 -1140 
Q 1353 -1331 966 -1331 
L 506 -1331 
L 506 -850 
L 844 -850 
Q 1081 -850 1212 -737 
Q 1344 -625 1503 -206 
L 1606 56 
L 191 3500 
L 800 3500 
L 1894 763 
L 2988 3500 
L 3597 3500 
L 2059 -325 
z
" transform="scale(0.015625)"/>
      <path id="DejaVuSans-2d" d="M 313 2009 
L 1997 2009 
L 1997 1497 
L 313 1497 
L 313 2009 
z
" transform="scale(0.015625)"/>
      <path id="DejaVuSans-61" d="M 2194 1759 
Q 1497 1759 1228 1600 
Q 959 1441 959 1056 
Q 959 750 1161 570 
Q 1363 391 1709 391 
Q 2188 391 2477 730 
Q 2766 1069 2766 1631 
L 2766 1759 
L 2194 1759 
z
M 3341 1997 
L 3341 0 
L 2766 0 
L 2766 531 
Q 2569 213 2275 61 
Q 1981 -91 1556 -91 
Q 1019 -91 701 211 
Q 384 513 384 1019 
Q 384 1609 779 1909 
Q 1175 2209 1959 2209 
L 2766 2209 
L 2766 2266 
Q 2766 2663 2505 2880 
Q 2244 3097 1772 3097 
Q 1472 3097 1187 3025 
Q 903 2953 641 2809 
L 641 3341 
Q 956 3463 1253 3523 
Q 1550 3584 1831 3584 
Q 2591 3584 2966 3190 
Q 3341 2797 3341 1997 
z
" transform="scale(0.015625)"/>
      <path id="DejaVuSans-78" d="M 3513 3500 
L 2247 1797 
L 3578 0 
L 2900 0 
L 1881 1375 
L 863 0 
L 184 0 
L 1544 1831 
L 300 3500 
L 978 3500 
L 1906 2253 
L 2834 3500 
L 3513 3500 
z
" transform="scale(0.015625)"/>
      <path id="DejaVuSans-29" d="M 513 4856 
L 1013 4856 
Q 1481 4119 1714 3412 
Q 1947 2706 1947 2009 
Q 1947 1309 1714 600 
Q 1481 -109 1013 -844 
L 513 -844 
Q 928 -128 1133 580 
Q 1338 1288 1338 2009 
Q 1338 2731 1133 3434 
Q 928 4138 513 4856 
z
" transform="scale(0.015625)"/>
      <path id="DejaVuSans-62" d="M 3116 1747 
Q 3116 2381 2855 2742 
Q 2594 3103 2138 3103 
Q 1681 3103 1420 2742 
Q 1159 2381 1159 1747 
Q 1159 1113 1420 752 
Q 1681 391 2138 391 
Q 2594 391 2855 752 
Q 3116 1113 3116 1747 
z
M 1159 2969 
Q 1341 3281 1617 3432 
Q 1894 3584 2278 3584 
Q 2916 3584 3314 3078 
Q 3713 2572 3713 1747 
Q 3713 922 3314 415 
Q 2916 -91 2278 -91 
Q 1894 -91 1617 61 
Q 1341 213 1159 525 
L 1159 0 
L 581 0 
L 581 4863 
L 1159 4863 
L 1159 2969 
z
" transform="scale(0.015625)"/>
      <path id="DejaVuSans-74" d="M 1172 4494 
L 1172 3500 
L 2356 3500 
L 2356 3053 
L 1172 3053 
L 1172 1153 
Q 1172 725 1289 603 
Q 1406 481 1766 481 
L 2356 481 
L 2356 0 
L 1766 0 
Q 1100 0 847 248 
Q 594 497 594 1153 
L 594 3053 
L 172 3053 
L 172 3500 
L 594 3500 
L 594 4494 
L 1172 4494 
z
" transform="scale(0.015625)"/>
      <path id="DejaVuSans-77" d="M 269 3500 
L 844 3500 
L 1563 769 
L 2278 3500 
L 2956 3500 
L 3675 769 
L 4391 3500 
L 4966 3500 
L 4050 0 
L 3372 0 
L 2619 2869 
L 1863 0 
L 1184 0 
L 269 3500 
z
" transform="scale(0.015625)"/>
      <path id="DejaVuSans-6e" d="M 3513 2113 
L 3513 0 
L 2938 0 
L 2938 2094 
Q 2938 2591 2744 2837 
Q 2550 3084 2163 3084 
Q 1697 3084 1428 2787 
Q 1159 2491 1159 1978 
L 1159 0 
L 581 0 
L 581 3500 
L 1159 3500 
L 1159 2956 
Q 1366 3272 1645 3428 
Q 1925 3584 2291 3584 
Q 2894 3584 3203 3211 
Q 3513 2838 3513 2113 
z
" transform="scale(0.015625)"/>
      <path id="DejaVuSans-53" d="M 3425 4513 
L 3425 3897 
Q 3066 4069 2747 4153 
Q 2428 4238 2131 4238 
Q 1616 4238 1336 4038 
Q 1056 3838 1056 3469 
Q 1056 3159 1242 3001 
Q 1428 2844 1947 2747 
L 2328 2669 
Q 3034 2534 3370 2195 
Q 3706 1856 3706 1288 
Q 3706 609 3251 259 
Q 2797 -91 1919 -91 
Q 1588 -91 1214 -16 
Q 841 59 441 206 
L 441 856 
Q 825 641 1194 531 
Q 1563 422 1919 422 
Q 2459 422 2753 634 
Q 3047 847 3047 1241 
Q 3047 1584 2836 1778 
Q 2625 1972 2144 2069 
L 1759 2144 
Q 1053 2284 737 2584 
Q 422 2884 422 3419 
Q 422 4038 858 4394 
Q 1294 4750 2059 4750 
Q 2388 4750 2728 4690 
Q 3069 4631 3425 4513 
z
" transform="scale(0.015625)"/>
      <path id="DejaVuSans-64" d="M 2906 2969 
L 2906 4863 
L 3481 4863 
L 3481 0 
L 2906 0 
L 2906 525 
Q 2725 213 2448 61 
Q 2172 -91 1784 -91 
Q 1150 -91 751 415 
Q 353 922 353 1747 
Q 353 2572 751 3078 
Q 1150 3584 1784 3584 
Q 2172 3584 2448 3432 
Q 2725 3281 2906 2969 
z
M 947 1747 
Q 947 1113 1208 752 
Q 1469 391 1925 391 
Q 2381 391 2643 752 
Q 2906 1113 2906 1747 
Q 2906 2381 2643 2742 
Q 2381 3103 1925 3103 
Q 1469 3103 1208 2742 
Q 947 2381 947 1747 
z
" transform="scale(0.015625)"/>
      <path id="DejaVuSans-6f" d="M 1959 3097 
Q 1497 3097 1228 2736 
Q 959 2375 959 1747 
Q 959 1119 1226 758 
Q 1494 397 1959 397 
Q 2419 397 2687 759 
Q 2956 1122 2956 1747 
Q 2956 2369 2687 2733 
Q 2419 3097 1959 3097 
z
M 1959 3584 
Q 2709 3584 3137 3096 
Q 3566 2609 3566 1747 
Q 3566 888 3137 398 
Q 2709 -91 1959 -91 
Q 1206 -91 779 398 
Q 353 888 353 1747 
Q 353 2609 779 3096 
Q 1206 3584 1959 3584 
z
" transform="scale(0.015625)"/>
      <path id="DejaVuSans-72" d="M 2631 2963 
Q 2534 3019 2420 3045 
Q 2306 3072 2169 3072 
Q 1681 3072 1420 2755 
Q 1159 2438 1159 1844 
L 1159 0 
L 581 0 
L 581 3500 
L 1159 3500 
L 1159 2956 
Q 1341 3275 1631 3429 
Q 1922 3584 2338 3584 
Q 2397 3584 2469 3576 
Q 2541 3569 2628 3553 
L 2631 2963 
z
" transform="scale(0.015625)"/>
      <path id="DejaVuSans-68" d="M 3513 2113 
L 3513 0 
L 2938 0 
L 2938 2094 
Q 2938 2591 2744 2837 
Q 2550 3084 2163 3084 
Q 1697 3084 1428 2787 
Q 1159 2491 1159 1978 
L 1159 0 
L 581 0 
L 581 4863 
L 1159 4863 
L 1159 2956 
Q 1366 3272 1645 3428 
Q 1925 3584 2291 3584 
Q 2894 3584 3203 3211 
Q 3513 2838 3513 2113 
z
" transform="scale(0.015625)"/>
      <path id="DejaVuSans-66" d="M 2375 4863 
L 2375 4384 
L 1825 4384 
Q 1516 4384 1395 4259 
Q 1275 4134 1275 3809 
L 1275 3500 
L 2222 3500 
L 2222 3053 
L 1275 3053 
L 1275 0 
L 697 0 
L 697 3053 
L 147 3053 
L 147 3500 
L 697 3500 
L 697 3744 
Q 697 4328 969 4595 
Q 1241 4863 1831 4863 
L 2375 4863 
z
" transform="scale(0.015625)"/>
      <path id="DejaVuSans-6c" d="M 603 4863 
L 1178 4863 
L 1178 0 
L 603 0 
L 603 4863 
z
" transform="scale(0.015625)"/>
      <path id="DejaVuSans-6d" d="M 3328 2828 
Q 3544 3216 3844 3400 
Q 4144 3584 4550 3584 
Q 5097 3584 5394 3201 
Q 5691 2819 5691 2113 
L 5691 0 
L 5113 0 
L 5113 2094 
Q 5113 2597 4934 2840 
Q 4756 3084 4391 3084 
Q 3944 3084 3684 2787 
Q 3425 2491 3425 1978 
L 3425 0 
L 2847 0 
L 2847 2094 
Q 2847 2600 2669 2842 
Q 2491 3084 2119 3084 
Q 1678 3084 1418 2786 
Q 1159 2488 1159 1978 
L 1159 0 
L 581 0 
L 581 3500 
L 1159 3500 
L 1159 2956 
Q 1356 3278 1631 3431 
Q 1906 3584 2284 3584 
Q 2666 3584 2933 3390 
Q 3200 3197 3328 2828 
z
" transform="scale(0.015625)"/>
     </defs>
     <use xlink:href="#DejaVuSans-51"/>
     <use xlink:href="#DejaVuSans-75" x="78.710938"/>
     <use xlink:href="#DejaVuSans-65" x="142.089844"/>
     <use xlink:href="#DejaVuSans-75" x="203.613281"/>
     <use xlink:href="#DejaVuSans-65" x="266.992188"/>
     <use xlink:href="#DejaVuSans-20" x="328.515625"/>
     <use xlink:href="#DejaVuSans-73" x="360.302734"/>
     <use xlink:href="#DejaVuSans-69" x="412.402344"/>
     <use xlink:href="#DejaVuSans-7a" x="440.185547"/>
     <use xlink:href="#DejaVuSans-65" x="492.675781"/>
     <use xlink:href="#DejaVuSans-20" x="554.199219"/>
     <use xlink:href="#DejaVuSans-28" x="585.986328"/>
     <use xlink:href="#DejaVuSans-79" x="625"/>
     <use xlink:href="#DejaVuSans-2d" x="682.429688"/>
     <use xlink:href="#DejaVuSans-61" x="718.513672"/>
     <use xlink:href="#DejaVuSans-78" x="779.792969"/>
     <use xlink:href="#DejaVuSans-69" x="838.972656"/>
     <use xlink:href="#DejaVuSans-73" x="866.755859"/>
     <use xlink:href="#DejaVuSans-29" x="918.855469"/>
     <use xlink:href="#DejaVuSans-20" x="957.869141"/>
     <use xlink:href="#DejaVuSans-62" x="989.65625"/>
     <use xlink:href="#DejaVuSans-65" x="1053.132812"/>
     <use xlink:href="#DejaVuSans-74" x="1114.65625"/>
     <use xlink:href="#DejaVuSans-77" x="1153.865234"/>
     <use xlink:href="#DejaVuSans-65" x="1235.652344"/>
     <use xlink:href="#DejaVuSans-65" x="1297.175781"/>
     <use xlink:href="#DejaVuSans-6e" x="1358.699219"/>
     <use xlink:href="#DejaVuSans-20" x="1422.078125"/>
     <use xlink:href="#DejaVuSans-53" x="1453.865234"/>
     <use xlink:href="#DejaVuSans-33" x="1517.341797"/>
     <use xlink:href="#DejaVuSans-20" x="1580.964844"/>
     <use xlink:href="#DejaVuSans-61" x="1612.751953"/>
     <use xlink:href="#DejaVuSans-6e" x="1674.03125"/>
     <use xlink:href="#DejaVuSans-64" x="1737.410156"/>
     <use xlink:href="#DejaVuSans-20" x="1800.886719"/>
     <use xlink:href="#DejaVuSans-73" x="1832.673828"/>
     <use xlink:href="#DejaVuSans-65" x="1884.773438"/>
     <use xlink:href="#DejaVuSans-6e" x="1946.296875"/>
     <use xlink:href="#DejaVuSans-73" x="2009.675781"/>
     <use xlink:href="#DejaVuSans-6f" x="2061.775391"/>
     <use xlink:href="#DejaVuSans-72" x="2122.957031"/>
     <use xlink:href="#DejaVuSans-73" x="2164.070312"/>
     <use xlink:href="#DejaVuSans-20" x="2216.169922"/>
     <use xlink:href="#DejaVuSans-74" x="2247.957031"/>
     <use xlink:href="#DejaVuSans-68" x="2287.166016"/>
     <use xlink:href="#DejaVuSans-61" x="2350.544922"/>
     <use xlink:href="#DejaVuSans-74" x="2411.824219"/>
     <use xlink:href="#DejaVuSans-20" x="2451.033203"/>
     <use xlink:href="#DejaVuSans-66" x="2482.820312"/>
     <use xlink:href="#DejaVuSans-6f" x="2518.025391"/>
     <use xlink:href="#DejaVuSans-6c" x="2579.207031"/>
     <use xlink:href="#DejaVuSans-6c" x="2606.990234"/>
     <use xlink:href="#DejaVuSans-6f" x="2634.773438"/>
     <use xlink:href="#DejaVuSans-77" x="2695.955078"/>
     <use xlink:href="#DejaVuSans-20" x="2777.742188"/>
     <use xlink:href="#DejaVuSans-61" x="2809.529297"/>
     <use xlink:href="#DejaVuSans-74" x="2870.808594"/>
     <use xlink:href="#DejaVuSans-20" x="2910.017578"/>
     <use xlink:href="#DejaVuSans-61" x="2941.804688"/>
     <use xlink:href="#DejaVuSans-20" x="3003.083984"/>
     <use xlink:href="#DejaVuSans-74" x="3034.871094"/>
     <use xlink:href="#DejaVuSans-69" x="3074.080078"/>
     <use xlink:href="#DejaVuSans-6d" x="3101.863281"/>
     <use xlink:href="#DejaVuSans-65" x="3199.275391"/>
     <use xlink:href="#DejaVuSans-20" x="3260.798828"/>
     <use xlink:href="#DejaVuSans-28" x="3292.585938"/>
     <use xlink:href="#DejaVuSans-78" x="3331.599609"/>
     <use xlink:href="#DejaVuSans-2d" x="3390.779297"/>
     <use xlink:href="#DejaVuSans-61" x="3426.863281"/>
     <use xlink:href="#DejaVuSans-78" x="3488.142578"/>
     <use xlink:href="#DejaVuSans-69" x="3547.322266"/>
     <use xlink:href="#DejaVuSans-73" x="3575.105469"/>
     <use xlink:href="#DejaVuSans-29" x="3627.205078"/>
     <use xlink:href="#DejaVuSans-2e" x="3666.21875"/>
    </g>
   </g>
  </g>
 </g>
 <defs>
  <clipPath id="p519389fd10">
   <rect x="57.6" y="41.472" width="357.12" height="266.112"/>
  </clipPath>
 </defs>
</svg>
