<?xml version="1.0" encoding="utf-8" standalone="no"?>
<!DOCTYPE svg PUBLIC "-//W3C//DTD SVG 1.1//EN"
  "http://www.w3.org/Graphics/SVG/1.1/DTD/svg11.dtd">
<svg xmlns:xlink="http://www.w3.org/1999/xlink" width="460.8pt" height="345.6pt" viewBox="0 0 460.8 345.6" xmlns="http://www.w3.org/2000/svg" version="1.1">
 <metadata>
  <rdf:RDF xmlns:dc="http://purl.org/dc/elements/1.1/" xmlns:cc="http://creativecommons.org/ns#" xmlns:rdf="http://www.w3.org/1999/02/22-rdf-syntax-ns#">
   <cc:Work>
    <dc:type rdf:resource="http://purl.org/dc/dcmitype/StillImage"/>
    <dc:date>2024-03-08T13:05:02.462286</dc:date>
    <dc:format>image/svg+xml</dc:format>
    <dc:creator>
     <cc:Agent>
      <dc:title>Matplotlib v3.8.2, https://matplotlib.org/</dc:title>
     </cc:Agent>
    </dc:creator>
   </cc:Work>
  </rdf:RDF>
 </metadata>
 <defs>
  <style type="text/css">*{stroke-linejoin: round; stroke-linecap: butt}</style>
 </defs>
 <g id="figure_1">
  <g id="patch_1">
   <path d="M 0 345.6 
L 460.8 345.6 
L 460.8 0 
L 0 0 
z
" style="fill: #ffffff"/>
  </g>
  <g id="axes_1">
   <g id="patch_2">
    <path d="M 57.6 307.584 
L 414.72 307.584 
L 414.72 41.472 
L 57.6 41.472 
z
" style="fill: #ffffff"/>
   </g>
   <g id="matplotlib.axis_1">
    <g id="xtick_1">
     <g id="line2d_1">
      <defs>
       <path id="m04c19cd59c" d="M 0 0 
L 0 3.5 
" style="stroke: #000000; stroke-width: 0.8"/>
      </defs>
      <g>
       <use xlink:href="#m04c19cd59c" x="73.832727" y="307.584" style="stroke: #000000; stroke-width: 0.8"/>
      </g>
     </g>
     <g id="text_1">
      <!-- 0 -->
      <g transform="translate(70.651477 322.182437) scale(0.1 -0.1)">
       <defs>
        <path id="DejaVuSans-30" d="M 2034 4250 
Q 1547 4250 1301 3770 
Q 1056 3291 1056 2328 
Q 1056 1369 1301 889 
Q 1547 409 2034 409 
Q 2525 409 2770 889 
Q 3016 1369 3016 2328 
Q 3016 3291 2770 3770 
Q 2525 4250 2034 4250 
z
M 2034 4750 
Q 2819 4750 3233 4129 
Q 3647 3509 3647 2328 
Q 3647 1150 3233 529 
Q 2819 -91 2034 -91 
Q 1250 -91 836 529 
Q 422 1150 422 2328 
Q 422 3509 836 4129 
Q 1250 4750 2034 4750 
z
" transform="scale(0.015625)"/>
       </defs>
       <use xlink:href="#DejaVuSans-30"/>
      </g>
     </g>
    </g>
    <g id="xtick_2">
     <g id="line2d_2">
      <g>
       <use xlink:href="#m04c19cd59c" x="132.946811" y="307.584" style="stroke: #000000; stroke-width: 0.8"/>
      </g>
     </g>
     <g id="text_2">
      <!-- 20000 -->
      <g transform="translate(117.040561 322.182437) scale(0.1 -0.1)">
       <defs>
        <path id="DejaVuSans-32" d="M 1228 531 
L 3431 531 
L 3431 0 
L 469 0 
L 469 531 
Q 828 903 1448 1529 
Q 2069 2156 2228 2338 
Q 2531 2678 2651 2914 
Q 2772 3150 2772 3378 
Q 2772 3750 2511 3984 
Q 2250 4219 1831 4219 
Q 1534 4219 1204 4116 
Q 875 4013 500 3803 
L 500 4441 
Q 881 4594 1212 4672 
Q 1544 4750 1819 4750 
Q 2544 4750 2975 4387 
Q 3406 4025 3406 3419 
Q 3406 3131 3298 2873 
Q 3191 2616 2906 2266 
Q 2828 2175 2409 1742 
Q 1991 1309 1228 531 
z
" transform="scale(0.015625)"/>
       </defs>
       <use xlink:href="#DejaVuSans-32"/>
       <use xlink:href="#DejaVuSans-30" x="63.623047"/>
       <use xlink:href="#DejaVuSans-30" x="127.246094"/>
       <use xlink:href="#DejaVuSans-30" x="190.869141"/>
       <use xlink:href="#DejaVuSans-30" x="254.492188"/>
      </g>
     </g>
    </g>
    <g id="xtick_3">
     <g id="line2d_3">
      <g>
       <use xlink:href="#m04c19cd59c" x="192.060894" y="307.584" style="stroke: #000000; stroke-width: 0.8"/>
      </g>
     </g>
     <g id="text_3">
      <!-- 40000 -->
      <g transform="translate(176.154644 322.182437) scale(0.1 -0.1)">
       <defs>
        <path id="DejaVuSans-34" d="M 2419 4116 
L 825 1625 
L 2419 1625 
L 2419 4116 
z
M 2253 4666 
L 3047 4666 
L 3047 1625 
L 3713 1625 
L 3713 1100 
L 3047 1100 
L 3047 0 
L 2419 0 
L 2419 1100 
L 313 1100 
L 313 1709 
L 2253 4666 
z
" transform="scale(0.015625)"/>
       </defs>
       <use xlink:href="#DejaVuSans-34"/>
       <use xlink:href="#DejaVuSans-30" x="63.623047"/>
       <use xlink:href="#DejaVuSans-30" x="127.246094"/>
       <use xlink:href="#DejaVuSans-30" x="190.869141"/>
       <use xlink:href="#DejaVuSans-30" x="254.492188"/>
      </g>
     </g>
    </g>
    <g id="xtick_4">
     <g id="line2d_4">
      <g>
       <use xlink:href="#m04c19cd59c" x="251.174977" y="307.584" style="stroke: #000000; stroke-width: 0.8"/>
      </g>
     </g>
     <g id="text_4">
      <!-- 60000 -->
      <g transform="translate(235.268727 322.182437) scale(0.1 -0.1)">
       <defs>
        <path id="DejaVuSans-36" d="M 2113 2584 
Q 1688 2584 1439 2293 
Q 1191 2003 1191 1497 
Q 1191 994 1439 701 
Q 1688 409 2113 409 
Q 2538 409 2786 701 
Q 3034 994 3034 1497 
Q 3034 2003 2786 2293 
Q 2538 2584 2113 2584 
z
M 3366 4563 
L 3366 3988 
Q 3128 4100 2886 4159 
Q 2644 4219 2406 4219 
Q 1781 4219 1451 3797 
Q 1122 3375 1075 2522 
Q 1259 2794 1537 2939 
Q 1816 3084 2150 3084 
Q 2853 3084 3261 2657 
Q 3669 2231 3669 1497 
Q 3669 778 3244 343 
Q 2819 -91 2113 -91 
Q 1303 -91 875 529 
Q 447 1150 447 2328 
Q 447 3434 972 4092 
Q 1497 4750 2381 4750 
Q 2619 4750 2861 4703 
Q 3103 4656 3366 4563 
z
" transform="scale(0.015625)"/>
       </defs>
       <use xlink:href="#DejaVuSans-36"/>
       <use xlink:href="#DejaVuSans-30" x="63.623047"/>
       <use xlink:href="#DejaVuSans-30" x="127.246094"/>
       <use xlink:href="#DejaVuSans-30" x="190.869141"/>
       <use xlink:href="#DejaVuSans-30" x="254.492188"/>
      </g>
     </g>
    </g>
    <g id="xtick_5">
     <g id="line2d_5">
      <g>
       <use xlink:href="#m04c19cd59c" x="310.28906" y="307.584" style="stroke: #000000; stroke-width: 0.8"/>
      </g>
     </g>
     <g id="text_5">
      <!-- 80000 -->
      <g transform="translate(294.38281 322.182437) scale(0.1 -0.1)">
       <defs>
        <path id="DejaVuSans-38" d="M 2034 2216 
Q 1584 2216 1326 1975 
Q 1069 1734 1069 1313 
Q 1069 891 1326 650 
Q 1584 409 2034 409 
Q 2484 409 2743 651 
Q 3003 894 3003 1313 
Q 3003 1734 2745 1975 
Q 2488 2216 2034 2216 
z
M 1403 2484 
Q 997 2584 770 2862 
Q 544 3141 544 3541 
Q 544 4100 942 4425 
Q 1341 4750 2034 4750 
Q 2731 4750 3128 4425 
Q 3525 4100 3525 3541 
Q 3525 3141 3298 2862 
Q 3072 2584 2669 2484 
Q 3125 2378 3379 2068 
Q 3634 1759 3634 1313 
Q 3634 634 3220 271 
Q 2806 -91 2034 -91 
Q 1263 -91 848 271 
Q 434 634 434 1313 
Q 434 1759 690 2068 
Q 947 2378 1403 2484 
z
M 1172 3481 
Q 1172 3119 1398 2916 
Q 1625 2713 2034 2713 
Q 2441 2713 2670 2916 
Q 2900 3119 2900 3481 
Q 2900 3844 2670 4047 
Q 2441 4250 2034 4250 
Q 1625 4250 1398 4047 
Q 1172 3844 1172 3481 
z
" transform="scale(0.015625)"/>
       </defs>
       <use xlink:href="#DejaVuSans-38"/>
       <use xlink:href="#DejaVuSans-30" x="63.623047"/>
       <use xlink:href="#DejaVuSans-30" x="127.246094"/>
       <use xlink:href="#DejaVuSans-30" x="190.869141"/>
       <use xlink:href="#DejaVuSans-30" x="254.492188"/>
      </g>
     </g>
    </g>
    <g id="xtick_6">
     <g id="line2d_6">
      <g>
       <use xlink:href="#m04c19cd59c" x="369.403144" y="307.584" style="stroke: #000000; stroke-width: 0.8"/>
      </g>
     </g>
     <g id="text_6">
      <!-- 100000 -->
      <g transform="translate(350.315644 322.182437) scale(0.1 -0.1)">
       <defs>
        <path id="DejaVuSans-31" d="M 794 531 
L 1825 531 
L 1825 4091 
L 703 3866 
L 703 4441 
L 1819 4666 
L 2450 4666 
L 2450 531 
L 3481 531 
L 3481 0 
L 794 0 
L 794 531 
z
" transform="scale(0.015625)"/>
       </defs>
       <use xlink:href="#DejaVuSans-31"/>
       <use xlink:href="#DejaVuSans-30" x="63.623047"/>
       <use xlink:href="#DejaVuSans-30" x="127.246094"/>
       <use xlink:href="#DejaVuSans-30" x="190.869141"/>
       <use xlink:href="#DejaVuSans-30" x="254.492188"/>
       <use xlink:href="#DejaVuSans-30" x="318.115234"/>
      </g>
     </g>
    </g>
   </g>
   <g id="matplotlib.axis_2">
    <g id="ytick_1">
     <g id="line2d_7">
      <defs>
       <path id="m253571448f" d="M 0 0 
L -3.5 0 
" style="stroke: #000000; stroke-width: 0.8"/>
      </defs>
      <g>
       <use xlink:href="#m253571448f" x="57.6" y="295.488" style="stroke: #000000; stroke-width: 0.8"/>
      </g>
     </g>
     <g id="text_7">
      <!-- 0.0 -->
      <g transform="translate(34.696875 299.287219) scale(0.1 -0.1)">
       <defs>
        <path id="DejaVuSans-2e" d="M 684 794 
L 1344 794 
L 1344 0 
L 684 0 
L 684 794 
z
" transform="scale(0.015625)"/>
       </defs>
       <use xlink:href="#DejaVuSans-30"/>
       <use xlink:href="#DejaVuSans-2e" x="63.623047"/>
       <use xlink:href="#DejaVuSans-30" x="95.410156"/>
      </g>
     </g>
    </g>
    <g id="ytick_2">
     <g id="line2d_8">
      <g>
       <use xlink:href="#m253571448f" x="57.6" y="247.104" style="stroke: #000000; stroke-width: 0.8"/>
      </g>
     </g>
     <g id="text_8">
      <!-- 0.2 -->
      <g transform="translate(34.696875 250.903219) scale(0.1 -0.1)">
       <use xlink:href="#DejaVuSans-30"/>
       <use xlink:href="#DejaVuSans-2e" x="63.623047"/>
       <use xlink:href="#DejaVuSans-32" x="95.410156"/>
      </g>
     </g>
    </g>
    <g id="ytick_3">
     <g id="line2d_9">
      <g>
       <use xlink:href="#m253571448f" x="57.6" y="198.72" style="stroke: #000000; stroke-width: 0.8"/>
      </g>
     </g>
     <g id="text_9">
      <!-- 0.4 -->
      <g transform="translate(34.696875 202.519219) scale(0.1 -0.1)">
       <use xlink:href="#DejaVuSans-30"/>
       <use xlink:href="#DejaVuSans-2e" x="63.623047"/>
       <use xlink:href="#DejaVuSans-34" x="95.410156"/>
      </g>
     </g>
    </g>
    <g id="ytick_4">
     <g id="line2d_10">
      <g>
       <use xlink:href="#m253571448f" x="57.6" y="150.336" style="stroke: #000000; stroke-width: 0.8"/>
      </g>
     </g>
     <g id="text_10">
      <!-- 0.6 -->
      <g transform="translate(34.696875 154.135219) scale(0.1 -0.1)">
       <use xlink:href="#DejaVuSans-30"/>
       <use xlink:href="#DejaVuSans-2e" x="63.623047"/>
       <use xlink:href="#DejaVuSans-36" x="95.410156"/>
      </g>
     </g>
    </g>
    <g id="ytick_5">
     <g id="line2d_11">
      <g>
       <use xlink:href="#m253571448f" x="57.6" y="101.952" style="stroke: #000000; stroke-width: 0.8"/>
      </g>
     </g>
     <g id="text_11">
      <!-- 0.8 -->
      <g transform="translate(34.696875 105.751219) scale(0.1 -0.1)">
       <use xlink:href="#DejaVuSans-30"/>
       <use xlink:href="#DejaVuSans-2e" x="63.623047"/>
       <use xlink:href="#DejaVuSans-38" x="95.410156"/>
      </g>
     </g>
    </g>
    <g id="ytick_6">
     <g id="line2d_12">
      <g>
       <use xlink:href="#m253571448f" x="57.6" y="53.568" style="stroke: #000000; stroke-width: 0.8"/>
      </g>
     </g>
     <g id="text_12">
      <!-- 1.0 -->
      <g transform="translate(34.696875 57.367219) scale(0.1 -0.1)">
       <use xlink:href="#DejaVuSans-31"/>
       <use xlink:href="#DejaVuSans-2e" x="63.623047"/>
       <use xlink:href="#DejaVuSans-30" x="95.410156"/>
      </g>
     </g>
    </g>
   </g>
   <g id="line2d_13">
    <path d="M 73.832727 295.488 
L 80.483062 295.488 
L 80.571733 166.418312 
L 80.571733 166.418312 
L 81.813129 166.418312 
L 81.813129 166.18987 
L 82.818068 166.18987 
L 82.818068 165.961428 
L 83.616108 165.961428 
L 83.616108 165.732986 
L 83.911678 165.732986 
L 83.911678 165.504544 
L 84.266363 165.504544 
L 84.266363 165.276102 
L 84.59149 165.276102 
L 84.621047 164.362334 
L 84.621047 164.362334 
L 84.887061 164.362334 
L 84.887061 163.448567 
L 84.887061 163.448567 
L 85.59643 163.448567 
L 85.685101 162.763241 
L 85.685101 162.763241 
L 85.744215 162.763241 
L 85.744215 162.534799 
L 85.862443 162.534799 
L 85.892 162.077915 
L 86.453584 162.077915 
L 86.453584 161.849473 
L 86.69004 161.849473 
L 86.69004 161.621031 
L 87.222067 161.621031 
L 87.310738 161.164147 
L 87.340295 161.164147 
L 87.340295 160.478822 
L 87.340295 160.478822 
L 87.813208 160.478822 
L 87.813208 160.25038 
L 88.49302 160.25038 
L 88.49302 160.021938 
L 88.670362 160.021938 
L 88.670362 159.793496 
L 89.113718 159.793496 
L 89.113718 159.565054 
L 89.29106 159.565054 
L 89.350174 159.10817 
L 89.58663 159.10817 
L 89.675302 158.422844 
L 89.734416 158.422844 
L 89.79353 157.509076 
L 90.177771 157.509076 
L 90.177771 157.280635 
L 90.739355 157.280635 
L 90.798469 156.138425 
L 90.798469 156.138425 
L 91.005368 156.138425 
L 91.064483 155.681541 
L 91.360053 155.681541 
L 91.360053 155.224657 
L 91.360053 155.224657 
L 91.89208 155.224657 
L 91.89208 154.996215 
L 92.512778 154.996215 
L 92.512778 154.767773 
L 92.808348 154.767773 
L 92.808348 154.539331 
L 93.724616 154.539331 
L 93.724616 154.31089 
L 94.167972 154.31089 
L 94.167972 154.082448 
L 94.433985 154.082448 
L 94.463542 153.16868 
L 94.611328 153.16868 
L 94.699999 151.569586 
L 94.699999 151.569586 
L 94.729556 151.569586 
L 94.759113 151.112703 
L 94.906898 151.112703 
L 94.906898 150.198935 
L 94.906898 150.198935 
L 95.202468 150.198935 
L 95.29114 148.371399 
L 95.29114 148.371399 
L 95.379811 148.371399 
L 95.379811 148.142958 
L 95.58671 148.142958 
L 95.58671 147.914516 
L 95.704938 147.914516 
L 95.704938 147.686074 
L 95.911837 147.686074 
L 95.911837 146.772306 
L 95.911837 146.772306 
L 96.502978 146.772306 
L 96.502978 146.543864 
L 96.621206 146.543864 
L 96.621206 146.315422 
L 96.768992 146.315422 
L 96.768992 146.08698 
L 97.537475 146.08698 
L 97.626146 145.401654 
L 97.98083 145.401654 
L 97.98083 144.944771 
L 97.98083 144.944771 
L 98.158173 144.944771 
L 98.158173 144.716329 
L 98.365072 144.716329 
L 98.424186 143.574119 
L 98.749313 143.574119 
L 98.749313 143.345677 
L 99.074441 143.345677 
L 99.074441 142.431909 
L 99.074441 142.431909 
L 99.517796 142.431909 
L 99.517796 142.203467 
L 100.700078 142.203467 
L 100.700078 141.746584 
L 100.700078 141.746584 
L 100.906977 141.746584 
L 100.906977 141.518142 
L 101.172991 141.518142 
L 101.172991 141.2897 
L 101.616346 141.2897 
L 101.616346 140.832816 
L 101.616346 140.832816 
L 102.562172 140.832816 
L 102.650843 140.14749 
L 103.035084 140.14749 
L 103.094199 139.00528 
L 103.094199 139.00528 
L 103.301098 139.00528 
L 103.301098 138.776839 
L 103.596668 138.776839 
L 103.596668 138.548397 
L 103.744453 138.548397 
L 103.744453 138.319955 
L 104.335594 138.319955 
L 104.335594 138.091513 
L 104.897178 138.091513 
L 104.956292 137.406187 
L 105.07452 137.406187 
L 105.104077 136.492419 
L 105.104077 136.492419 
L 105.310977 136.492419 
L 105.310977 136.263977 
L 105.429205 136.263977 
L 105.429205 136.035535 
L 105.665661 136.035535 
L 105.665661 135.807093 
L 106.049903 135.807093 
L 106.049903 135.578652 
L 106.700158 135.578652 
L 106.700158 135.35021 
L 106.818386 135.35021 
L 106.8775 134.893326 
L 108.76915 134.893326 
L 108.857822 133.522674 
L 108.857822 133.522674 
L 108.887379 133.522674 
L 108.946493 132.608907 
L 108.946493 132.608907 
L 109.005607 132.608907 
L 109.064721 131.466697 
L 109.330734 131.466697 
L 109.419405 130.552929 
L 109.448962 130.552929 
L 109.537634 129.639161 
L 109.77409 129.639161 
L 109.803647 129.182278 
L 110.010546 129.182278 
L 110.099217 128.26851 
L 110.099217 128.26851 
L 110.128774 128.26851 
L 110.128774 128.040068 
L 110.483459 128.040068 
L 110.513016 127.583184 
L 110.690358 127.583184 
L 110.690358 127.354742 
L 110.838143 127.354742 
L 110.8677 126.897858 
L 110.956372 126.897858 
L 110.985929 125.070323 
L 110.985929 125.070323 
L 111.0746 125.070323 
L 111.0746 124.841881 
L 111.399727 124.841881 
L 111.488398 124.384997 
L 111.843083 124.384997 
L 111.843083 123.928113 
L 111.843083 123.928113 
L 111.961311 123.928113 
L 111.961311 123.699671 
L 112.286438 123.699671 
L 112.345553 123.014346 
L 112.700237 123.014346 
L 112.788908 122.557462 
L 112.877579 122.557462 
L 112.907136 121.872136 
L 114.325874 121.872136 
L 114.325874 121.643694 
L 114.503217 121.643694 
L 114.591888 120.501484 
L 114.591888 120.501484 
L 114.651002 120.501484 
L 114.651002 120.044601 
L 114.651002 120.044601 
L 114.828344 120.044601 
L 114.917015 119.587717 
L 115.774169 119.587717 
L 115.803726 119.130833 
L 115.892398 119.130833 
L 115.951512 118.217065 
L 116.187968 118.217065 
L 116.276639 117.760181 
L 116.513095 117.760181 
L 116.542652 116.617972 
L 116.542652 116.617972 
L 117.429364 116.617972 
L 117.488478 116.161088 
L 117.606706 116.161088 
L 117.606706 115.932646 
L 118.345632 115.932646 
L 118.434303 115.24732 
L 118.848102 115.24732 
L 118.848102 115.018878 
L 119.232343 115.018878 
L 119.2619 114.561994 
L 119.527914 114.561994 
L 119.527914 114.333552 
L 119.705256 114.333552 
L 119.76437 113.648227 
L 120.030383 113.648227 
L 120.030383 113.419785 
L 120.473739 113.419785 
L 120.503296 112.962901 
L 121.153551 112.962901 
L 121.153551 112.734459 
L 121.301336 112.734459 
L 121.301336 112.506017 
L 121.419564 112.506017 
L 121.419564 112.277575 
L 121.56735 112.277575 
L 121.56735 112.049133 
L 121.744692 112.049133 
L 121.833363 110.45004 
L 121.892477 110.45004 
L 121.892477 110.221598 
L 122.188047 110.221598 
L 122.188047 109.764714 
L 122.188047 109.764714 
L 122.36539 109.764714 
L 122.36539 109.536272 
L 122.720074 109.536272 
L 122.720074 109.30783 
L 123.074759 109.30783 
L 123.074759 109.079388 
L 123.547671 109.079388 
L 123.636342 108.394062 
L 123.695457 108.394062 
L 123.725014 107.480295 
L 123.813685 107.480295 
L 123.843242 105.881201 
L 123.843242 105.881201 
L 124.050141 105.881201 
L 124.109255 105.424317 
L 124.197926 105.424317 
L 124.286597 103.825224 
L 124.286597 103.825224 
L 124.345711 103.825224 
L 124.404826 102.683014 
L 124.46394 102.683014 
L 124.552611 102.22613 
L 124.641282 102.22613 
L 124.700396 101.312363 
L 124.818624 101.312363 
L 124.848181 100.627037 
L 124.966409 100.627037 
L 124.966409 100.398595 
L 125.084637 100.398595 
L 125.173309 99.484827 
L 125.232423 99.484827 
L 125.26198 99.027943 
L 125.350651 99.027943 
L 125.439322 98.342618 
L 125.439322 98.342618 
L 125.55755 98.342618 
L 125.646221 97.657292 
L 125.764449 97.657292 
L 125.853121 97.200408 
L 125.912235 97.200408 
L 125.912235 96.971966 
L 126.06002 96.971966 
L 126.06002 96.515082 
L 126.06002 96.515082 
L 126.178248 96.515082 
L 126.178248 96.28664 
L 126.414704 96.28664 
L 126.414704 96.058198 
L 127.242302 96.058198 
L 127.242302 95.829756 
L 127.508315 95.829756 
L 127.567429 95.372873 
L 127.892556 95.372873 
L 127.981228 94.230663 
L 127.981228 94.230663 
L 128.395026 94.230663 
L 128.45414 93.773779 
L 128.572368 93.773779 
L 128.572368 93.545337 
L 129.340851 93.545337 
L 129.340851 93.316895 
L 130.582247 93.316895 
L 130.641361 92.403127 
L 130.641361 92.403127 
L 130.966489 92.403127 
L 130.966489 91.946244 
L 130.966489 91.946244 
L 131.321173 91.946244 
L 131.35073 91.48936 
L 131.941871 91.48936 
L 131.941871 91.260918 
L 132.828582 91.260918 
L 132.828582 91.032476 
L 133.065039 91.032476 
L 133.15371 89.890266 
L 133.15371 89.890266 
L 133.301495 89.890266 
L 133.301495 89.661824 
L 133.981307 89.661824 
L 133.981307 89.433382 
L 134.276877 89.433382 
L 134.276877 88.748057 
L 134.276877 88.748057 
L 134.927132 88.748057 
L 134.927132 88.519615 
L 135.340931 88.519615 
L 135.400045 87.377405 
L 135.400045 87.377405 
L 136.493656 87.377405 
L 136.493656 86.692079 
L 136.493656 86.692079 
L 136.759669 86.692079 
L 136.759669 86.463637 
L 137.291696 86.463637 
L 137.291696 85.778312 
L 137.291696 85.778312 
L 137.439481 85.778312 
L 137.528152 83.722334 
L 137.557709 83.722334 
L 137.557709 83.26545 
L 137.557709 83.26545 
L 137.941951 83.26545 
L 138.030622 82.351683 
L 138.030622 82.351683 
L 138.060179 82.351683 
L 138.14885 81.209473 
L 138.14885 81.209473 
L 138.355749 81.209473 
L 138.44442 80.067263 
L 138.473977 80.067263 
L 138.533091 79.153496 
L 138.710434 79.153496 
L 138.769548 78.011286 
L 138.769548 78.011286 
L 138.887776 78.011286 
L 138.94689 76.412193 
L 138.94689 76.412193 
L 139.006004 76.412193 
L 139.035561 75.269983 
L 139.035561 75.269983 
L 139.153789 75.269983 
L 139.24246 74.127773 
L 139.390246 74.127773 
L 139.478917 72.52868 
L 139.508474 72.52868 
L 139.567588 70.701144 
L 139.567588 70.701144 
L 139.656259 70.701144 
L 139.685816 70.015819 
L 139.685816 70.015819 
L 139.774487 70.015819 
L 139.804044 69.558935 
L 139.892715 69.558935 
L 139.981386 67.731399 
L 139.981386 67.731399 
L 140.040501 67.731399 
L 140.129172 66.132306 
L 140.129172 66.132306 
L 140.188286 66.132306 
L 140.276957 65.44698 
L 140.395185 65.44698 
L 140.424742 64.761654 
L 140.690755 64.761654 
L 140.690755 64.076329 
L 140.690755 64.076329 
L 141.636581 64.076329 
L 141.636581 63.619445 
L 141.636581 63.619445 
L 141.813923 63.619445 
L 141.813923 63.391003 
L 144.267158 63.391003 
L 144.267158 63.162561 
L 145.035641 63.162561 
L 145.035641 62.934119 
L 145.301654 62.934119 
L 145.301654 62.705677 
L 147.281976 62.705677 
L 147.281976 62.020351 
L 147.281976 62.020351 
L 148.020902 62.020351 
L 148.020902 61.791909 
L 152.33623 61.791909 
L 152.33623 61.563467 
L 152.868257 61.563467 
L 152.897814 60.878142 
L 153.075156 60.878142 
L 153.163827 59.735932 
L 153.163827 59.735932 
L 153.222941 59.735932 
L 153.252498 59.050606 
L 153.63674 59.050606 
L 153.63674 58.822164 
L 153.843639 58.822164 
L 153.873196 57.451513 
L 153.873196 57.451513 
L 154.080095 57.451513 
L 154.109652 56.766187 
L 154.227881 56.766187 
L 154.227881 56.537745 
L 154.375666 56.537745 
L 154.375666 56.309303 
L 154.612122 56.309303 
L 154.612122 55.623977 
L 154.612122 55.623977 
L 154.73035 55.623977 
L 154.73035 54.938652 
L 154.73035 54.938652 
L 154.996364 54.938652 
L 155.085035 53.568 
L 155.085035 53.568 
" clip-path="url(#p2242dfc4b7)" style="fill: none; stroke: #1f77b4; stroke-width: 1.5; stroke-linecap: square"/>
   </g>
   <g id="line2d_14">
    <path d="M 73.832727 295.488 
L 80.483062 295.488 
L 80.571733 146.770388 
L 80.571733 146.770388 
L 81.665343 146.770388 
L 81.665343 146.544716 
L 82.167813 146.544716 
L 82.167813 146.319045 
L 82.49294 146.319045 
L 82.49294 146.093373 
L 82.611169 146.093373 
L 82.611169 145.867701 
L 83.645665 145.867701 
L 83.734336 145.416358 
L 84.414148 145.416358 
L 84.414148 145.190687 
L 84.680162 145.190687 
L 84.680162 144.965015 
L 84.827947 144.965015 
L 84.827947 144.739343 
L 85.300859 144.739343 
L 85.300859 144.513672 
L 85.625987 144.513672 
L 85.625987 144.062328 
L 85.625987 144.062328 
L 85.744215 144.062328 
L 85.803329 143.159642 
L 85.892 143.159642 
L 85.892 142.93397 
L 86.039785 142.93397 
L 86.0989 141.57994 
L 86.217128 141.57994 
L 86.217128 141.354269 
L 86.453584 141.354269 
L 86.512698 140.22591 
L 86.512698 140.22591 
L 86.630926 140.22591 
L 86.719597 139.097552 
L 87.251624 139.097552 
L 87.340295 138.420537 
L 87.517638 138.420537 
L 87.517638 138.194866 
L 87.842765 138.194866 
L 87.842765 137.969194 
L 88.611248 137.969194 
L 88.640805 137.292179 
L 89.025047 137.292179 
L 89.113718 136.615164 
L 89.58663 136.615164 
L 89.645745 135.712478 
L 89.763973 135.712478 
L 89.79353 135.261134 
L 90.207328 135.261134 
L 90.207328 135.035463 
L 90.414228 135.035463 
L 90.414228 134.809791 
L 90.828026 134.809791 
L 90.828026 134.358448 
L 90.828026 134.358448 
L 91.360053 134.358448 
L 91.38961 133.907104 
L 91.714737 133.907104 
L 91.773852 133.455761 
L 91.980751 133.455761 
L 91.980751 133.23009 
L 92.660563 133.23009 
L 92.660563 133.004418 
L 92.98569 133.004418 
L 92.98569 132.553075 
L 92.98569 132.553075 
L 93.251704 132.553075 
L 93.251704 132.327403 
L 93.724616 132.327403 
L 93.78373 131.199045 
L 93.78373 131.199045 
L 94.049744 131.199045 
L 94.138415 130.747701 
L 94.167972 130.747701 
L 94.256643 130.296358 
L 94.463542 130.296358 
L 94.463542 130.070687 
L 94.818227 130.070687 
L 94.818227 129.845015 
L 94.995569 129.845015 
L 94.995569 129.619343 
L 95.143354 129.619343 
L 95.143354 128.716657 
L 95.143354 128.716657 
L 95.379811 128.716657 
L 95.379811 128.490985 
L 95.852723 128.490985 
L 95.852723 128.265313 
L 96.148294 128.265313 
L 96.177851 127.362627 
L 96.177851 127.362627 
L 97.005448 127.362627 
L 97.005448 127.136955 
L 97.241904 127.136955 
L 97.330575 126.685612 
L 97.478361 126.685612 
L 97.478361 126.45994 
L 98.305958 126.45994 
L 98.394629 126.008597 
L 98.660642 126.008597 
L 98.660642 125.782925 
L 98.77887 125.782925 
L 98.77887 125.557254 
L 99.044884 125.557254 
L 99.044884 125.331582 
L 99.517796 125.331582 
L 99.517796 124.880239 
L 99.517796 124.880239 
L 99.636025 124.880239 
L 99.724696 124.428896 
L 99.754253 124.428896 
L 99.754253 124.203224 
L 99.931595 124.203224 
L 99.931595 123.977552 
L 100.197608 123.977552 
L 100.197608 123.526209 
L 100.197608 123.526209 
L 100.700078 123.526209 
L 100.700078 123.074866 
L 100.700078 123.074866 
L 100.87742 123.074866 
L 100.906977 122.623522 
L 101.409447 122.623522 
L 101.439004 121.269493 
L 101.439004 121.269493 
L 101.823246 121.269493 
L 101.823246 121.043821 
L 102.414387 121.043821 
L 102.414387 120.818149 
L 102.591729 120.818149 
L 102.650843 119.689791 
L 102.828185 119.689791 
L 102.857742 119.012776 
L 103.035084 119.012776 
L 103.035084 118.787104 
L 103.47844 118.787104 
L 103.507997 118.335761 
L 103.714896 118.335761 
L 103.744453 117.433075 
L 103.744453 117.433075 
L 104.010467 117.433075 
L 104.010467 117.207403 
L 104.158252 117.207403 
L 104.158252 116.981731 
L 104.394708 116.981731 
L 104.394708 116.75606 
L 105.370091 116.75606 
L 105.370091 116.530388 
L 105.547433 116.530388 
L 105.636104 116.079045 
L 106.138574 116.079045 
L 106.138574 115.853373 
L 106.404587 115.853373 
L 106.434144 115.40203 
L 106.581929 115.40203 
L 106.641044 114.950687 
L 106.788829 114.950687 
L 106.788829 114.725015 
L 107.113956 114.725015 
L 107.113956 114.499343 
L 107.527755 114.499343 
L 107.527755 114.273672 
L 107.734654 114.273672 
L 107.734654 114.048 
L 107.911996 114.048 
L 107.941553 113.596657 
L 108.059782 113.596657 
L 108.148453 112.69397 
L 108.355352 112.69397 
L 108.444023 111.565612 
L 108.562251 111.565612 
L 108.562251 111.33994 
L 108.680479 111.33994 
L 108.739593 110.662925 
L 108.828265 110.662925 
L 108.828265 110.437254 
L 108.946493 110.437254 
L 109.005607 109.98591 
L 109.094278 109.98591 
L 109.094278 109.083224 
L 109.094278 109.083224 
L 109.212506 109.083224 
L 109.212506 108.857552 
L 109.389848 108.857552 
L 109.478519 107.729194 
L 109.478519 107.729194 
L 109.537634 107.729194 
L 109.537634 107.503522 
L 109.655862 107.503522 
L 109.744533 106.826507 
L 109.77409 106.826507 
L 109.833204 106.375164 
L 109.892318 106.375164 
L 109.980989 105.246806 
L 110.010546 105.246806 
L 110.010546 105.021134 
L 110.158331 105.021134 
L 110.217446 104.569791 
L 110.365231 104.569791 
L 110.394788 103.667104 
L 110.394788 103.667104 
L 110.542573 103.667104 
L 110.542573 103.441433 
L 110.749472 103.441433 
L 110.749472 103.215761 
L 110.956372 103.215761 
L 110.985929 102.764418 
L 111.133714 102.764418 
L 111.133714 102.538746 
L 111.813526 102.538746 
L 111.843083 102.087403 
L 112.138653 102.087403 
L 112.138653 101.861731 
L 112.256881 101.861731 
L 112.256881 101.63606 
L 112.493338 101.63606 
L 112.522895 100.959045 
L 112.522895 100.959045 
L 112.611566 100.959045 
L 112.611566 100.733373 
L 112.877579 100.733373 
L 112.877579 100.507701 
L 113.586948 100.507701 
L 113.616505 100.056358 
L 113.705176 100.056358 
L 113.705176 99.830687 
L 113.852962 99.830687 
L 113.852962 99.605015 
L 114.000747 99.605015 
L 114.089418 99.153672 
L 114.917015 99.153672 
L 114.917015 98.928 
L 115.123914 98.928 
L 115.123914 98.702328 
L 115.2717 98.702328 
L 115.2717 98.476657 
L 115.419485 98.476657 
L 115.449042 97.57397 
L 116.276639 97.57397 
L 116.36531 97.122627 
L 116.542652 97.122627 
L 116.542652 96.896955 
L 116.779109 96.896955 
L 116.808666 96.445612 
L 116.897337 96.445612 
L 116.897337 96.21994 
L 117.045122 96.21994 
L 117.045122 95.994269 
L 117.192907 95.994269 
L 117.192907 95.542925 
L 117.192907 95.542925 
L 117.340693 95.542925 
L 117.37025 94.640239 
L 117.636263 94.640239 
L 117.636263 94.414567 
L 117.872719 94.414567 
L 117.96139 93.737552 
L 117.990947 93.737552 
L 118.020505 93.286209 
L 118.256961 93.286209 
L 118.345632 92.609194 
L 118.611645 92.609194 
L 118.641202 92.157851 
L 119.025444 92.157851 
L 119.055001 91.480836 
L 119.143672 91.480836 
L 119.202786 91.029493 
L 119.2619 91.029493 
L 119.2619 90.578149 
L 119.2619 90.578149 
L 119.380128 90.578149 
L 119.380128 90.126806 
L 119.380128 90.126806 
L 119.646142 90.126806 
L 119.734813 89.675463 
L 119.76437 89.675463 
L 119.76437 89.449791 
L 119.882598 89.449791 
L 119.941712 88.772776 
L 120.030383 88.772776 
L 120.030383 88.547104 
L 120.56241 88.547104 
L 120.56241 88.321433 
L 120.680638 88.321433 
L 120.769309 87.644418 
L 121.153551 87.644418 
L 121.153551 87.418746 
L 121.390007 87.418746 
L 121.390007 87.193075 
L 122.010705 87.193075 
L 122.040262 86.741731 
L 122.128933 86.741731 
L 122.128933 86.51606 
L 122.247161 86.51606 
L 122.306276 85.387701 
L 122.306276 85.387701 
L 122.424504 85.387701 
L 122.424504 85.16203 
L 122.749631 85.16203 
L 122.838302 83.808 
L 122.986088 83.808 
L 122.986088 83.582328 
L 123.252101 83.582328 
L 123.252101 83.356657 
L 123.459 83.356657 
L 123.459 83.130985 
L 123.695457 83.130985 
L 123.695457 82.905313 
L 123.813685 82.905313 
L 123.813685 82.679642 
L 124.611725 82.679642 
L 124.611725 82.45397 
L 124.729953 82.45397 
L 124.729953 82.228299 
L 124.936852 82.228299 
L 124.936852 82.002627 
L 125.05508 82.002627 
L 125.05508 81.776955 
L 125.350651 81.776955 
L 125.409765 81.09994 
L 125.55755 81.09994 
L 125.55755 80.874269 
L 125.823564 80.874269 
L 125.882678 80.422925 
L 126.06002 80.422925 
L 126.148691 78.843224 
L 126.148691 78.843224 
L 126.237362 78.843224 
L 126.237362 78.391881 
L 126.237362 78.391881 
L 126.414704 78.391881 
L 126.503375 77.263522 
L 126.621604 77.263522 
L 126.621604 77.037851 
L 126.85806 77.037851 
L 126.85806 76.812179 
L 127.537872 76.812179 
L 127.537872 76.586507 
L 127.774328 76.586507 
L 127.803885 75.683821 
L 127.803885 75.683821 
L 128.690597 75.683821 
L 128.690597 75.458149 
L 128.95661 75.458149 
L 129.045281 75.006806 
L 130.523133 75.006806 
L 130.523133 74.781134 
L 130.996046 74.781134 
L 130.996046 74.555463 
L 131.468958 74.555463 
L 131.468958 74.329791 
L 131.764529 74.329791 
L 131.764529 74.104119 
L 132.326113 74.104119 
L 132.326113 73.878448 
L 132.946811 73.878448 
L 132.946811 73.652776 
L 133.65618 73.652776 
L 133.65618 73.427104 
L 133.863079 73.427104 
L 133.863079 73.201433 
L 134.306434 73.201433 
L 134.306434 72.975761 
L 134.45422 72.975761 
L 134.45422 72.75009 
L 135.54783 72.75009 
L 135.606944 71.847403 
L 136.020743 71.847403 
L 136.020743 71.621731 
L 136.611884 71.621731 
L 136.611884 71.39606 
L 136.759669 71.39606 
L 136.759669 70.719045 
L 136.759669 70.719045 
L 136.937011 70.719045 
L 137.025682 69.816358 
L 137.14391 69.816358 
L 137.14391 69.139343 
L 137.14391 69.139343 
L 137.321253 69.139343 
L 137.409924 68.236657 
L 137.439481 68.236657 
L 137.439481 67.785313 
L 137.439481 67.785313 
L 138.14885 67.785313 
L 138.14885 67.108299 
L 138.14885 67.108299 
L 138.503534 67.108299 
L 138.592206 66.656955 
L 138.710434 66.656955 
L 138.769548 66.205612 
L 138.887776 66.205612 
L 138.887776 65.528597 
L 138.887776 65.528597 
L 139.124232 65.528597 
L 139.124232 64.851582 
L 139.124232 64.851582 
L 139.508474 64.851582 
L 139.508474 64.400239 
L 139.508474 64.400239 
L 139.715373 64.400239 
L 139.804044 63.948896 
L 139.863158 63.948896 
L 139.863158 63.497552 
L 139.863158 63.497552 
L 140.336071 63.497552 
L 140.336071 63.271881 
L 140.54297 63.271881 
L 140.572527 62.369194 
L 140.897655 62.369194 
L 140.956769 60.789493 
L 141.074997 60.789493 
L 141.074997 60.563821 
L 141.518353 60.563821 
L 141.518353 60.338149 
L 141.695695 60.338149 
L 141.695695 59.886806 
L 141.695695 59.886806 
L 142.109493 59.886806 
L 142.109493 59.661134 
L 142.552849 59.661134 
L 142.64152 58.532776 
L 146.129251 58.532776 
L 146.129251 58.307104 
L 148.227801 58.307104 
L 148.227801 58.081433 
L 149.410083 58.081433 
L 149.410083 57.855761 
L 154.316552 57.855761 
L 154.316552 57.404418 
L 154.316552 57.404418 
L 154.493894 57.404418 
L 154.493894 57.178746 
L 154.641679 57.178746 
L 154.641679 56.953075 
L 154.789464 56.953075 
L 154.878135 56.27606 
L 154.907693 56.27606 
L 154.907693 55.824716 
L 154.907693 55.824716 
L 155.321491 55.824716 
L 155.351048 55.147701 
L 155.351048 55.147701 
L 375.63968 55.147701 
L 375.63968 54.696358 
L 375.63968 54.696358 
L 379.275196 54.696358 
L 379.275196 54.470687 
L 385.12749 54.470687 
L 385.12749 54.245015 
L 389.147248 54.245015 
L 389.176805 53.793672 
L 398.487273 53.793672 
L 398.487273 53.568 
L 398.487273 53.568 
" clip-path="url(#p2242dfc4b7)" style="fill: none; stroke: #ff7f0e; stroke-width: 1.5; stroke-linecap: square"/>
   </g>
   <g id="patch_3">
    <path d="M 57.6 307.584 
L 57.6 41.472 
" style="fill: none; stroke: #000000; stroke-width: 0.8; stroke-linejoin: miter; stroke-linecap: square"/>
   </g>
   <g id="patch_4">
    <path d="M 414.72 307.584 
L 414.72 41.472 
" style="fill: none; stroke: #000000; stroke-width: 0.8; stroke-linejoin: miter; stroke-linecap: square"/>
   </g>
   <g id="patch_5">
    <path d="M 57.6 307.584 
L 414.72 307.584 
" style="fill: none; stroke: #000000; stroke-width: 0.8; stroke-linejoin: miter; stroke-linecap: square"/>
   </g>
   <g id="patch_6">
    <path d="M 57.6 41.472 
L 414.72 41.472 
" style="fill: none; stroke: #000000; stroke-width: 0.8; stroke-linejoin: miter; stroke-linecap: square"/>
   </g>
   <g id="text_13">
    <!-- S5 S6 -->
    <g transform="translate(219 35.472) scale(0.12 -0.12)">
     <defs>
      <path id="DejaVuSans-53" d="M 3425 4513 
L 3425 3897 
Q 3066 4069 2747 4153 
Q 2428 4238 2131 4238 
Q 1616 4238 1336 4038 
Q 1056 3838 1056 3469 
Q 1056 3159 1242 3001 
Q 1428 2844 1947 2747 
L 2328 2669 
Q 3034 2534 3370 2195 
Q 3706 1856 3706 1288 
Q 3706 609 3251 259 
Q 2797 -91 1919 -91 
Q 1588 -91 1214 -16 
Q 841 59 441 206 
L 441 856 
Q 825 641 1194 531 
Q 1563 422 1919 422 
Q 2459 422 2753 634 
Q 3047 847 3047 1241 
Q 3047 1584 2836 1778 
Q 2625 1972 2144 2069 
L 1759 2144 
Q 1053 2284 737 2584 
Q 422 2884 422 3419 
Q 422 4038 858 4394 
Q 1294 4750 2059 4750 
Q 2388 4750 2728 4690 
Q 3069 4631 3425 4513 
z
" transform="scale(0.015625)"/>
      <path id="DejaVuSans-35" d="M 691 4666 
L 3169 4666 
L 3169 4134 
L 1269 4134 
L 1269 2991 
Q 1406 3038 1543 3061 
Q 1681 3084 1819 3084 
Q 2600 3084 3056 2656 
Q 3513 2228 3513 1497 
Q 3513 744 3044 326 
Q 2575 -91 1722 -91 
Q 1428 -91 1123 -41 
Q 819 9 494 109 
L 494 744 
Q 775 591 1075 516 
Q 1375 441 1709 441 
Q 2250 441 2565 725 
Q 2881 1009 2881 1497 
Q 2881 1984 2565 2268 
Q 2250 2553 1709 2553 
Q 1456 2553 1204 2497 
Q 953 2441 691 2322 
L 691 4666 
z
" transform="scale(0.015625)"/>
      <path id="DejaVuSans-20" transform="scale(0.015625)"/>
     </defs>
     <use xlink:href="#DejaVuSans-53"/>
     <use xlink:href="#DejaVuSans-35" x="63.476562"/>
     <use xlink:href="#DejaVuSans-20" x="127.099609"/>
     <use xlink:href="#DejaVuSans-53" x="158.886719"/>
     <use xlink:href="#DejaVuSans-36" x="222.363281"/>
    </g>
   </g>
   <g id="legend_1">
    <g id="patch_7">
     <path d="M 88.712813 304.584 
L 410.52 304.584 
Q 411.72 304.584 411.72 303.384 
L 411.72 286.37025 
Q 411.72 285.17025 410.52 285.17025 
L 88.712813 285.17025 
Q 87.512813 285.17025 87.512813 286.37025 
L 87.512813 303.384 
Q 87.512813 304.584 88.712813 304.584 
z
" style="fill: #ffffff; opacity: 0.8; stroke: #cccccc; stroke-linejoin: miter"/>
    </g>
    <g id="line2d_15">
     <path d="M 89.912813 290.029312 
L 95.912813 290.029312 
L 101.912813 290.029312 
" style="fill: none; stroke: #1f77b4; stroke-width: 1.5; stroke-linecap: square"/>
    </g>
    <g id="text_14">
     <!-- Execution time between S5 S6 (xx1xx1xx1xx0yyy66xx0yyy45xx1xx0yyy66xx0yyy66xx1) -->
     <g transform="translate(106.712813 292.129312) scale(0.06 -0.06)">
      <defs>
       <path id="DejaVuSans-45" d="M 628 4666 
L 3578 4666 
L 3578 4134 
L 1259 4134 
L 1259 2753 
L 3481 2753 
L 3481 2222 
L 1259 2222 
L 1259 531 
L 3634 531 
L 3634 0 
L 628 0 
L 628 4666 
z
" transform="scale(0.015625)"/>
       <path id="DejaVuSans-78" d="M 3513 3500 
L 2247 1797 
L 3578 0 
L 2900 0 
L 1881 1375 
L 863 0 
L 184 0 
L 1544 1831 
L 300 3500 
L 978 3500 
L 1906 2253 
L 2834 3500 
L 3513 3500 
z
" transform="scale(0.015625)"/>
       <path id="DejaVuSans-65" d="M 3597 1894 
L 3597 1613 
L 953 1613 
Q 991 1019 1311 708 
Q 1631 397 2203 397 
Q 2534 397 2845 478 
Q 3156 559 3463 722 
L 3463 178 
Q 3153 47 2828 -22 
Q 2503 -91 2169 -91 
Q 1331 -91 842 396 
Q 353 884 353 1716 
Q 353 2575 817 3079 
Q 1281 3584 2069 3584 
Q 2775 3584 3186 3129 
Q 3597 2675 3597 1894 
z
M 3022 2063 
Q 3016 2534 2758 2815 
Q 2500 3097 2075 3097 
Q 1594 3097 1305 2825 
Q 1016 2553 972 2059 
L 3022 2063 
z
" transform="scale(0.015625)"/>
       <path id="DejaVuSans-63" d="M 3122 3366 
L 3122 2828 
Q 2878 2963 2633 3030 
Q 2388 3097 2138 3097 
Q 1578 3097 1268 2742 
Q 959 2388 959 1747 
Q 959 1106 1268 751 
Q 1578 397 2138 397 
Q 2388 397 2633 464 
Q 2878 531 3122 666 
L 3122 134 
Q 2881 22 2623 -34 
Q 2366 -91 2075 -91 
Q 1284 -91 818 406 
Q 353 903 353 1747 
Q 353 2603 823 3093 
Q 1294 3584 2113 3584 
Q 2378 3584 2631 3529 
Q 2884 3475 3122 3366 
z
" transform="scale(0.015625)"/>
       <path id="DejaVuSans-75" d="M 544 1381 
L 544 3500 
L 1119 3500 
L 1119 1403 
Q 1119 906 1312 657 
Q 1506 409 1894 409 
Q 2359 409 2629 706 
Q 2900 1003 2900 1516 
L 2900 3500 
L 3475 3500 
L 3475 0 
L 2900 0 
L 2900 538 
Q 2691 219 2414 64 
Q 2138 -91 1772 -91 
Q 1169 -91 856 284 
Q 544 659 544 1381 
z
M 1991 3584 
L 1991 3584 
z
" transform="scale(0.015625)"/>
       <path id="DejaVuSans-74" d="M 1172 4494 
L 1172 3500 
L 2356 3500 
L 2356 3053 
L 1172 3053 
L 1172 1153 
Q 1172 725 1289 603 
Q 1406 481 1766 481 
L 2356 481 
L 2356 0 
L 1766 0 
Q 1100 0 847 248 
Q 594 497 594 1153 
L 594 3053 
L 172 3053 
L 172 3500 
L 594 3500 
L 594 4494 
L 1172 4494 
z
" transform="scale(0.015625)"/>
       <path id="DejaVuSans-69" d="M 603 3500 
L 1178 3500 
L 1178 0 
L 603 0 
L 603 3500 
z
M 603 4863 
L 1178 4863 
L 1178 4134 
L 603 4134 
L 603 4863 
z
" transform="scale(0.015625)"/>
       <path id="DejaVuSans-6f" d="M 1959 3097 
Q 1497 3097 1228 2736 
Q 959 2375 959 1747 
Q 959 1119 1226 758 
Q 1494 397 1959 397 
Q 2419 397 2687 759 
Q 2956 1122 2956 1747 
Q 2956 2369 2687 2733 
Q 2419 3097 1959 3097 
z
M 1959 3584 
Q 2709 3584 3137 3096 
Q 3566 2609 3566 1747 
Q 3566 888 3137 398 
Q 2709 -91 1959 -91 
Q 1206 -91 779 398 
Q 353 888 353 1747 
Q 353 2609 779 3096 
Q 1206 3584 1959 3584 
z
" transform="scale(0.015625)"/>
       <path id="DejaVuSans-6e" d="M 3513 2113 
L 3513 0 
L 2938 0 
L 2938 2094 
Q 2938 2591 2744 2837 
Q 2550 3084 2163 3084 
Q 1697 3084 1428 2787 
Q 1159 2491 1159 1978 
L 1159 0 
L 581 0 
L 581 3500 
L 1159 3500 
L 1159 2956 
Q 1366 3272 1645 3428 
Q 1925 3584 2291 3584 
Q 2894 3584 3203 3211 
Q 3513 2838 3513 2113 
z
" transform="scale(0.015625)"/>
       <path id="DejaVuSans-6d" d="M 3328 2828 
Q 3544 3216 3844 3400 
Q 4144 3584 4550 3584 
Q 5097 3584 5394 3201 
Q 5691 2819 5691 2113 
L 5691 0 
L 5113 0 
L 5113 2094 
Q 5113 2597 4934 2840 
Q 4756 3084 4391 3084 
Q 3944 3084 3684 2787 
Q 3425 2491 3425 1978 
L 3425 0 
L 2847 0 
L 2847 2094 
Q 2847 2600 2669 2842 
Q 2491 3084 2119 3084 
Q 1678 3084 1418 2786 
Q 1159 2488 1159 1978 
L 1159 0 
L 581 0 
L 581 3500 
L 1159 3500 
L 1159 2956 
Q 1356 3278 1631 3431 
Q 1906 3584 2284 3584 
Q 2666 3584 2933 3390 
Q 3200 3197 3328 2828 
z
" transform="scale(0.015625)"/>
       <path id="DejaVuSans-62" d="M 3116 1747 
Q 3116 2381 2855 2742 
Q 2594 3103 2138 3103 
Q 1681 3103 1420 2742 
Q 1159 2381 1159 1747 
Q 1159 1113 1420 752 
Q 1681 391 2138 391 
Q 2594 391 2855 752 
Q 3116 1113 3116 1747 
z
M 1159 2969 
Q 1341 3281 1617 3432 
Q 1894 3584 2278 3584 
Q 2916 3584 3314 3078 
Q 3713 2572 3713 1747 
Q 3713 922 3314 415 
Q 2916 -91 2278 -91 
Q 1894 -91 1617 61 
Q 1341 213 1159 525 
L 1159 0 
L 581 0 
L 581 4863 
L 1159 4863 
L 1159 2969 
z
" transform="scale(0.015625)"/>
       <path id="DejaVuSans-77" d="M 269 3500 
L 844 3500 
L 1563 769 
L 2278 3500 
L 2956 3500 
L 3675 769 
L 4391 3500 
L 4966 3500 
L 4050 0 
L 3372 0 
L 2619 2869 
L 1863 0 
L 1184 0 
L 269 3500 
z
" transform="scale(0.015625)"/>
       <path id="DejaVuSans-28" d="M 1984 4856 
Q 1566 4138 1362 3434 
Q 1159 2731 1159 2009 
Q 1159 1288 1364 580 
Q 1569 -128 1984 -844 
L 1484 -844 
Q 1016 -109 783 600 
Q 550 1309 550 2009 
Q 550 2706 781 3412 
Q 1013 4119 1484 4856 
L 1984 4856 
z
" transform="scale(0.015625)"/>
       <path id="DejaVuSans-79" d="M 2059 -325 
Q 1816 -950 1584 -1140 
Q 1353 -1331 966 -1331 
L 506 -1331 
L 506 -850 
L 844 -850 
Q 1081 -850 1212 -737 
Q 1344 -625 1503 -206 
L 1606 56 
L 191 3500 
L 800 3500 
L 1894 763 
L 2988 3500 
L 3597 3500 
L 2059 -325 
z
" transform="scale(0.015625)"/>
       <path id="DejaVuSans-29" d="M 513 4856 
L 1013 4856 
Q 1481 4119 1714 3412 
Q 1947 2706 1947 2009 
Q 1947 1309 1714 600 
Q 1481 -109 1013 -844 
L 513 -844 
Q 928 -128 1133 580 
Q 1338 1288 1338 2009 
Q 1338 2731 1133 3434 
Q 928 4138 513 4856 
z
" transform="scale(0.015625)"/>
      </defs>
      <use xlink:href="#DejaVuSans-45"/>
      <use xlink:href="#DejaVuSans-78" x="63.183594"/>
      <use xlink:href="#DejaVuSans-65" x="119.238281"/>
      <use xlink:href="#DejaVuSans-63" x="180.761719"/>
      <use xlink:href="#DejaVuSans-75" x="235.742188"/>
      <use xlink:href="#DejaVuSans-74" x="299.121094"/>
      <use xlink:href="#DejaVuSans-69" x="338.330078"/>
      <use xlink:href="#DejaVuSans-6f" x="366.113281"/>
      <use xlink:href="#DejaVuSans-6e" x="427.294922"/>
      <use xlink:href="#DejaVuSans-20" x="490.673828"/>
      <use xlink:href="#DejaVuSans-74" x="522.460938"/>
      <use xlink:href="#DejaVuSans-69" x="561.669922"/>
      <use xlink:href="#DejaVuSans-6d" x="589.453125"/>
      <use xlink:href="#DejaVuSans-65" x="686.865234"/>
      <use xlink:href="#DejaVuSans-20" x="748.388672"/>
      <use xlink:href="#DejaVuSans-62" x="780.175781"/>
      <use xlink:href="#DejaVuSans-65" x="843.652344"/>
      <use xlink:href="#DejaVuSans-74" x="905.175781"/>
      <use xlink:href="#DejaVuSans-77" x="944.384766"/>
      <use xlink:href="#DejaVuSans-65" x="1026.171875"/>
      <use xlink:href="#DejaVuSans-65" x="1087.695312"/>
      <use xlink:href="#DejaVuSans-6e" x="1149.21875"/>
      <use xlink:href="#DejaVuSans-20" x="1212.597656"/>
      <use xlink:href="#DejaVuSans-53" x="1244.384766"/>
      <use xlink:href="#DejaVuSans-35" x="1307.861328"/>
      <use xlink:href="#DejaVuSans-20" x="1371.484375"/>
      <use xlink:href="#DejaVuSans-53" x="1403.271484"/>
      <use xlink:href="#DejaVuSans-36" x="1466.748047"/>
      <use xlink:href="#DejaVuSans-20" x="1530.371094"/>
      <use xlink:href="#DejaVuSans-28" x="1562.158203"/>
      <use xlink:href="#DejaVuSans-78" x="1601.171875"/>
      <use xlink:href="#DejaVuSans-78" x="1660.351562"/>
      <use xlink:href="#DejaVuSans-31" x="1719.53125"/>
      <use xlink:href="#DejaVuSans-78" x="1783.154297"/>
      <use xlink:href="#DejaVuSans-78" x="1842.333984"/>
      <use xlink:href="#DejaVuSans-31" x="1901.513672"/>
      <use xlink:href="#DejaVuSans-78" x="1965.136719"/>
      <use xlink:href="#DejaVuSans-78" x="2024.316406"/>
      <use xlink:href="#DejaVuSans-31" x="2083.496094"/>
      <use xlink:href="#DejaVuSans-78" x="2147.119141"/>
      <use xlink:href="#DejaVuSans-78" x="2206.298828"/>
      <use xlink:href="#DejaVuSans-30" x="2265.478516"/>
      <use xlink:href="#DejaVuSans-79" x="2329.101562"/>
      <use xlink:href="#DejaVuSans-79" x="2388.28125"/>
      <use xlink:href="#DejaVuSans-79" x="2447.460938"/>
      <use xlink:href="#DejaVuSans-36" x="2506.640625"/>
      <use xlink:href="#DejaVuSans-36" x="2570.263672"/>
      <use xlink:href="#DejaVuSans-78" x="2633.886719"/>
      <use xlink:href="#DejaVuSans-78" x="2693.066406"/>
      <use xlink:href="#DejaVuSans-30" x="2752.246094"/>
      <use xlink:href="#DejaVuSans-79" x="2815.869141"/>
      <use xlink:href="#DejaVuSans-79" x="2875.048828"/>
      <use xlink:href="#DejaVuSans-79" x="2934.228516"/>
      <use xlink:href="#DejaVuSans-34" x="2993.408203"/>
      <use xlink:href="#DejaVuSans-35" x="3057.03125"/>
      <use xlink:href="#DejaVuSans-78" x="3120.654297"/>
      <use xlink:href="#DejaVuSans-78" x="3179.833984"/>
      <use xlink:href="#DejaVuSans-31" x="3239.013672"/>
      <use xlink:href="#DejaVuSans-78" x="3302.636719"/>
      <use xlink:href="#DejaVuSans-78" x="3361.816406"/>
      <use xlink:href="#DejaVuSans-30" x="3420.996094"/>
      <use xlink:href="#DejaVuSans-79" x="3484.619141"/>
      <use xlink:href="#DejaVuSans-79" x="3543.798828"/>
      <use xlink:href="#DejaVuSans-79" x="3602.978516"/>
      <use xlink:href="#DejaVuSans-36" x="3662.158203"/>
      <use xlink:href="#DejaVuSans-36" x="3725.78125"/>
      <use xlink:href="#DejaVuSans-78" x="3789.404297"/>
      <use xlink:href="#DejaVuSans-78" x="3848.583984"/>
      <use xlink:href="#DejaVuSans-30" x="3907.763672"/>
      <use xlink:href="#DejaVuSans-79" x="3971.386719"/>
      <use xlink:href="#DejaVuSans-79" x="4030.566406"/>
      <use xlink:href="#DejaVuSans-79" x="4089.746094"/>
      <use xlink:href="#DejaVuSans-36" x="4148.925781"/>
      <use xlink:href="#DejaVuSans-36" x="4212.548828"/>
      <use xlink:href="#DejaVuSans-78" x="4276.171875"/>
      <use xlink:href="#DejaVuSans-78" x="4335.351562"/>
      <use xlink:href="#DejaVuSans-31" x="4394.53125"/>
      <use xlink:href="#DejaVuSans-29" x="4458.154297"/>
     </g>
    </g>
    <g id="line2d_16">
     <path d="M 89.912813 298.836187 
L 95.912813 298.836187 
L 101.912813 298.836187 
" style="fill: none; stroke: #ff7f0e; stroke-width: 1.5; stroke-linecap: square"/>
    </g>
    <g id="text_15">
     <!-- Execution time between S5 S6 (xx1xx2xx0yyy45xx0yyy45xx0yyy3xx1xx0yyy45xx0yyy45xx0yyy45) -->
     <g transform="translate(106.712813 300.936187) scale(0.06 -0.06)">
      <defs>
       <path id="DejaVuSans-33" d="M 2597 2516 
Q 3050 2419 3304 2112 
Q 3559 1806 3559 1356 
Q 3559 666 3084 287 
Q 2609 -91 1734 -91 
Q 1441 -91 1130 -33 
Q 819 25 488 141 
L 488 750 
Q 750 597 1062 519 
Q 1375 441 1716 441 
Q 2309 441 2620 675 
Q 2931 909 2931 1356 
Q 2931 1769 2642 2001 
Q 2353 2234 1838 2234 
L 1294 2234 
L 1294 2753 
L 1863 2753 
Q 2328 2753 2575 2939 
Q 2822 3125 2822 3475 
Q 2822 3834 2567 4026 
Q 2313 4219 1838 4219 
Q 1578 4219 1281 4162 
Q 984 4106 628 3988 
L 628 4550 
Q 988 4650 1302 4700 
Q 1616 4750 1894 4750 
Q 2613 4750 3031 4423 
Q 3450 4097 3450 3541 
Q 3450 3153 3228 2886 
Q 3006 2619 2597 2516 
z
" transform="scale(0.015625)"/>
      </defs>
      <use xlink:href="#DejaVuSans-45"/>
      <use xlink:href="#DejaVuSans-78" x="63.183594"/>
      <use xlink:href="#DejaVuSans-65" x="119.238281"/>
      <use xlink:href="#DejaVuSans-63" x="180.761719"/>
      <use xlink:href="#DejaVuSans-75" x="235.742188"/>
      <use xlink:href="#DejaVuSans-74" x="299.121094"/>
      <use xlink:href="#DejaVuSans-69" x="338.330078"/>
      <use xlink:href="#DejaVuSans-6f" x="366.113281"/>
      <use xlink:href="#DejaVuSans-6e" x="427.294922"/>
      <use xlink:href="#DejaVuSans-20" x="490.673828"/>
      <use xlink:href="#DejaVuSans-74" x="522.460938"/>
      <use xlink:href="#DejaVuSans-69" x="561.669922"/>
      <use xlink:href="#DejaVuSans-6d" x="589.453125"/>
      <use xlink:href="#DejaVuSans-65" x="686.865234"/>
      <use xlink:href="#DejaVuSans-20" x="748.388672"/>
      <use xlink:href="#DejaVuSans-62" x="780.175781"/>
      <use xlink:href="#DejaVuSans-65" x="843.652344"/>
      <use xlink:href="#DejaVuSans-74" x="905.175781"/>
      <use xlink:href="#DejaVuSans-77" x="944.384766"/>
      <use xlink:href="#DejaVuSans-65" x="1026.171875"/>
      <use xlink:href="#DejaVuSans-65" x="1087.695312"/>
      <use xlink:href="#DejaVuSans-6e" x="1149.21875"/>
      <use xlink:href="#DejaVuSans-20" x="1212.597656"/>
      <use xlink:href="#DejaVuSans-53" x="1244.384766"/>
      <use xlink:href="#DejaVuSans-35" x="1307.861328"/>
      <use xlink:href="#DejaVuSans-20" x="1371.484375"/>
      <use xlink:href="#DejaVuSans-53" x="1403.271484"/>
      <use xlink:href="#DejaVuSans-36" x="1466.748047"/>
      <use xlink:href="#DejaVuSans-20" x="1530.371094"/>
      <use xlink:href="#DejaVuSans-28" x="1562.158203"/>
      <use xlink:href="#DejaVuSans-78" x="1601.171875"/>
      <use xlink:href="#DejaVuSans-78" x="1660.351562"/>
      <use xlink:href="#DejaVuSans-31" x="1719.53125"/>
      <use xlink:href="#DejaVuSans-78" x="1783.154297"/>
      <use xlink:href="#DejaVuSans-78" x="1842.333984"/>
      <use xlink:href="#DejaVuSans-32" x="1901.513672"/>
      <use xlink:href="#DejaVuSans-78" x="1965.136719"/>
      <use xlink:href="#DejaVuSans-78" x="2024.316406"/>
      <use xlink:href="#DejaVuSans-30" x="2083.496094"/>
      <use xlink:href="#DejaVuSans-79" x="2147.119141"/>
      <use xlink:href="#DejaVuSans-79" x="2206.298828"/>
      <use xlink:href="#DejaVuSans-79" x="2265.478516"/>
      <use xlink:href="#DejaVuSans-34" x="2324.658203"/>
      <use xlink:href="#DejaVuSans-35" x="2388.28125"/>
      <use xlink:href="#DejaVuSans-78" x="2451.904297"/>
      <use xlink:href="#DejaVuSans-78" x="2511.083984"/>
      <use xlink:href="#DejaVuSans-30" x="2570.263672"/>
      <use xlink:href="#DejaVuSans-79" x="2633.886719"/>
      <use xlink:href="#DejaVuSans-79" x="2693.066406"/>
      <use xlink:href="#DejaVuSans-79" x="2752.246094"/>
      <use xlink:href="#DejaVuSans-34" x="2811.425781"/>
      <use xlink:href="#DejaVuSans-35" x="2875.048828"/>
      <use xlink:href="#DejaVuSans-78" x="2938.671875"/>
      <use xlink:href="#DejaVuSans-78" x="2997.851562"/>
      <use xlink:href="#DejaVuSans-30" x="3057.03125"/>
      <use xlink:href="#DejaVuSans-79" x="3120.654297"/>
      <use xlink:href="#DejaVuSans-79" x="3179.833984"/>
      <use xlink:href="#DejaVuSans-79" x="3239.013672"/>
      <use xlink:href="#DejaVuSans-33" x="3298.193359"/>
      <use xlink:href="#DejaVuSans-78" x="3361.816406"/>
      <use xlink:href="#DejaVuSans-78" x="3420.996094"/>
      <use xlink:href="#DejaVuSans-31" x="3480.175781"/>
      <use xlink:href="#DejaVuSans-78" x="3543.798828"/>
      <use xlink:href="#DejaVuSans-78" x="3602.978516"/>
      <use xlink:href="#DejaVuSans-30" x="3662.158203"/>
      <use xlink:href="#DejaVuSans-79" x="3725.78125"/>
      <use xlink:href="#DejaVuSans-79" x="3784.960938"/>
      <use xlink:href="#DejaVuSans-79" x="3844.140625"/>
      <use xlink:href="#DejaVuSans-34" x="3903.320312"/>
      <use xlink:href="#DejaVuSans-35" x="3966.943359"/>
      <use xlink:href="#DejaVuSans-78" x="4030.566406"/>
      <use xlink:href="#DejaVuSans-78" x="4089.746094"/>
      <use xlink:href="#DejaVuSans-30" x="4148.925781"/>
      <use xlink:href="#DejaVuSans-79" x="4212.548828"/>
      <use xlink:href="#DejaVuSans-79" x="4271.728516"/>
      <use xlink:href="#DejaVuSans-79" x="4330.908203"/>
      <use xlink:href="#DejaVuSans-34" x="4390.087891"/>
      <use xlink:href="#DejaVuSans-35" x="4453.710938"/>
      <use xlink:href="#DejaVuSans-78" x="4517.333984"/>
      <use xlink:href="#DejaVuSans-78" x="4576.513672"/>
      <use xlink:href="#DejaVuSans-30" x="4635.693359"/>
      <use xlink:href="#DejaVuSans-79" x="4699.316406"/>
      <use xlink:href="#DejaVuSans-79" x="4758.496094"/>
      <use xlink:href="#DejaVuSans-79" x="4817.675781"/>
      <use xlink:href="#DejaVuSans-34" x="4876.855469"/>
      <use xlink:href="#DejaVuSans-35" x="4940.478516"/>
      <use xlink:href="#DejaVuSans-29" x="5004.101562"/>
     </g>
    </g>
   </g>
  </g>
 </g>
 <defs>
  <clipPath id="p2242dfc4b7">
   <rect x="57.6" y="41.472" width="357.12" height="266.112"/>
  </clipPath>
 </defs>
</svg>
