<?xml version="1.0" encoding="utf-8" standalone="no"?>
<!DOCTYPE svg PUBLIC "-//W3C//DTD SVG 1.1//EN"
  "http://www.w3.org/Graphics/SVG/1.1/DTD/svg11.dtd">
<svg xmlns:xlink="http://www.w3.org/1999/xlink" width="460.8pt" height="345.6pt" viewBox="0 0 460.8 345.6" xmlns="http://www.w3.org/2000/svg" version="1.1">
 <metadata>
  <rdf:RDF xmlns:dc="http://purl.org/dc/elements/1.1/" xmlns:cc="http://creativecommons.org/ns#" xmlns:rdf="http://www.w3.org/1999/02/22-rdf-syntax-ns#">
   <cc:Work>
    <dc:type rdf:resource="http://purl.org/dc/dcmitype/StillImage"/>
    <dc:date>2024-03-08T12:26:25.566578</dc:date>
    <dc:format>image/svg+xml</dc:format>
    <dc:creator>
     <cc:Agent>
      <dc:title>Matplotlib v3.8.2, https://matplotlib.org/</dc:title>
     </cc:Agent>
    </dc:creator>
   </cc:Work>
  </rdf:RDF>
 </metadata>
 <defs>
  <style type="text/css">*{stroke-linejoin: round; stroke-linecap: butt}</style>
 </defs>
 <g id="figure_1">
  <g id="patch_1">
   <path d="M 0 345.6 
L 460.8 345.6 
L 460.8 0 
L 0 0 
z
" style="fill: #ffffff"/>
  </g>
  <g id="axes_1">
   <g id="patch_2">
    <path d="M 57.6 307.584 
L 414.72 307.584 
L 414.72 41.472 
L 57.6 41.472 
z
" style="fill: #ffffff"/>
   </g>
   <g id="matplotlib.axis_1">
    <g id="xtick_1">
     <g id="line2d_1">
      <defs>
       <path id="m9369797e9b" d="M 0 0 
L 0 3.5 
" style="stroke: #000000; stroke-width: 0.8"/>
      </defs>
      <g>
       <use xlink:href="#m9369797e9b" x="73.832727" y="307.584" style="stroke: #000000; stroke-width: 0.8"/>
      </g>
     </g>
     <g id="text_1">
      <!-- 0 -->
      <g transform="translate(70.651477 322.182437) scale(0.1 -0.1)">
       <defs>
        <path id="DejaVuSans-30" d="M 2034 4250 
Q 1547 4250 1301 3770 
Q 1056 3291 1056 2328 
Q 1056 1369 1301 889 
Q 1547 409 2034 409 
Q 2525 409 2770 889 
Q 3016 1369 3016 2328 
Q 3016 3291 2770 3770 
Q 2525 4250 2034 4250 
z
M 2034 4750 
Q 2819 4750 3233 4129 
Q 3647 3509 3647 2328 
Q 3647 1150 3233 529 
Q 2819 -91 2034 -91 
Q 1250 -91 836 529 
Q 422 1150 422 2328 
Q 422 3509 836 4129 
Q 1250 4750 2034 4750 
z
" transform="scale(0.015625)"/>
       </defs>
       <use xlink:href="#DejaVuSans-30"/>
      </g>
     </g>
    </g>
    <g id="xtick_2">
     <g id="line2d_2">
      <g>
       <use xlink:href="#m9369797e9b" x="126.342035" y="307.584" style="stroke: #000000; stroke-width: 0.8"/>
      </g>
     </g>
     <g id="text_2">
      <!-- 50000 -->
      <g transform="translate(110.435785 322.182437) scale(0.1 -0.1)">
       <defs>
        <path id="DejaVuSans-35" d="M 691 4666 
L 3169 4666 
L 3169 4134 
L 1269 4134 
L 1269 2991 
Q 1406 3038 1543 3061 
Q 1681 3084 1819 3084 
Q 2600 3084 3056 2656 
Q 3513 2228 3513 1497 
Q 3513 744 3044 326 
Q 2575 -91 1722 -91 
Q 1428 -91 1123 -41 
Q 819 9 494 109 
L 494 744 
Q 775 591 1075 516 
Q 1375 441 1709 441 
Q 2250 441 2565 725 
Q 2881 1009 2881 1497 
Q 2881 1984 2565 2268 
Q 2250 2553 1709 2553 
Q 1456 2553 1204 2497 
Q 953 2441 691 2322 
L 691 4666 
z
" transform="scale(0.015625)"/>
       </defs>
       <use xlink:href="#DejaVuSans-35"/>
       <use xlink:href="#DejaVuSans-30" x="63.623047"/>
       <use xlink:href="#DejaVuSans-30" x="127.246094"/>
       <use xlink:href="#DejaVuSans-30" x="190.869141"/>
       <use xlink:href="#DejaVuSans-30" x="254.492188"/>
      </g>
     </g>
    </g>
    <g id="xtick_3">
     <g id="line2d_3">
      <g>
       <use xlink:href="#m9369797e9b" x="178.851342" y="307.584" style="stroke: #000000; stroke-width: 0.8"/>
      </g>
     </g>
     <g id="text_3">
      <!-- 100000 -->
      <g transform="translate(159.763842 322.182437) scale(0.1 -0.1)">
       <defs>
        <path id="DejaVuSans-31" d="M 794 531 
L 1825 531 
L 1825 4091 
L 703 3866 
L 703 4441 
L 1819 4666 
L 2450 4666 
L 2450 531 
L 3481 531 
L 3481 0 
L 794 0 
L 794 531 
z
" transform="scale(0.015625)"/>
       </defs>
       <use xlink:href="#DejaVuSans-31"/>
       <use xlink:href="#DejaVuSans-30" x="63.623047"/>
       <use xlink:href="#DejaVuSans-30" x="127.246094"/>
       <use xlink:href="#DejaVuSans-30" x="190.869141"/>
       <use xlink:href="#DejaVuSans-30" x="254.492188"/>
       <use xlink:href="#DejaVuSans-30" x="318.115234"/>
      </g>
     </g>
    </g>
    <g id="xtick_4">
     <g id="line2d_4">
      <g>
       <use xlink:href="#m9369797e9b" x="231.360649" y="307.584" style="stroke: #000000; stroke-width: 0.8"/>
      </g>
     </g>
     <g id="text_4">
      <!-- 150000 -->
      <g transform="translate(212.273149 322.182437) scale(0.1 -0.1)">
       <use xlink:href="#DejaVuSans-31"/>
       <use xlink:href="#DejaVuSans-35" x="63.623047"/>
       <use xlink:href="#DejaVuSans-30" x="127.246094"/>
       <use xlink:href="#DejaVuSans-30" x="190.869141"/>
       <use xlink:href="#DejaVuSans-30" x="254.492188"/>
       <use xlink:href="#DejaVuSans-30" x="318.115234"/>
      </g>
     </g>
    </g>
    <g id="xtick_5">
     <g id="line2d_5">
      <g>
       <use xlink:href="#m9369797e9b" x="283.869957" y="307.584" style="stroke: #000000; stroke-width: 0.8"/>
      </g>
     </g>
     <g id="text_5">
      <!-- 200000 -->
      <g transform="translate(264.782457 322.182437) scale(0.1 -0.1)">
       <defs>
        <path id="DejaVuSans-32" d="M 1228 531 
L 3431 531 
L 3431 0 
L 469 0 
L 469 531 
Q 828 903 1448 1529 
Q 2069 2156 2228 2338 
Q 2531 2678 2651 2914 
Q 2772 3150 2772 3378 
Q 2772 3750 2511 3984 
Q 2250 4219 1831 4219 
Q 1534 4219 1204 4116 
Q 875 4013 500 3803 
L 500 4441 
Q 881 4594 1212 4672 
Q 1544 4750 1819 4750 
Q 2544 4750 2975 4387 
Q 3406 4025 3406 3419 
Q 3406 3131 3298 2873 
Q 3191 2616 2906 2266 
Q 2828 2175 2409 1742 
Q 1991 1309 1228 531 
z
" transform="scale(0.015625)"/>
       </defs>
       <use xlink:href="#DejaVuSans-32"/>
       <use xlink:href="#DejaVuSans-30" x="63.623047"/>
       <use xlink:href="#DejaVuSans-30" x="127.246094"/>
       <use xlink:href="#DejaVuSans-30" x="190.869141"/>
       <use xlink:href="#DejaVuSans-30" x="254.492188"/>
       <use xlink:href="#DejaVuSans-30" x="318.115234"/>
      </g>
     </g>
    </g>
    <g id="xtick_6">
     <g id="line2d_6">
      <g>
       <use xlink:href="#m9369797e9b" x="336.379264" y="307.584" style="stroke: #000000; stroke-width: 0.8"/>
      </g>
     </g>
     <g id="text_6">
      <!-- 250000 -->
      <g transform="translate(317.291764 322.182437) scale(0.1 -0.1)">
       <use xlink:href="#DejaVuSans-32"/>
       <use xlink:href="#DejaVuSans-35" x="63.623047"/>
       <use xlink:href="#DejaVuSans-30" x="127.246094"/>
       <use xlink:href="#DejaVuSans-30" x="190.869141"/>
       <use xlink:href="#DejaVuSans-30" x="254.492188"/>
       <use xlink:href="#DejaVuSans-30" x="318.115234"/>
      </g>
     </g>
    </g>
    <g id="xtick_7">
     <g id="line2d_7">
      <g>
       <use xlink:href="#m9369797e9b" x="388.888571" y="307.584" style="stroke: #000000; stroke-width: 0.8"/>
      </g>
     </g>
     <g id="text_7">
      <!-- 300000 -->
      <g transform="translate(369.801071 322.182437) scale(0.1 -0.1)">
       <defs>
        <path id="DejaVuSans-33" d="M 2597 2516 
Q 3050 2419 3304 2112 
Q 3559 1806 3559 1356 
Q 3559 666 3084 287 
Q 2609 -91 1734 -91 
Q 1441 -91 1130 -33 
Q 819 25 488 141 
L 488 750 
Q 750 597 1062 519 
Q 1375 441 1716 441 
Q 2309 441 2620 675 
Q 2931 909 2931 1356 
Q 2931 1769 2642 2001 
Q 2353 2234 1838 2234 
L 1294 2234 
L 1294 2753 
L 1863 2753 
Q 2328 2753 2575 2939 
Q 2822 3125 2822 3475 
Q 2822 3834 2567 4026 
Q 2313 4219 1838 4219 
Q 1578 4219 1281 4162 
Q 984 4106 628 3988 
L 628 4550 
Q 988 4650 1302 4700 
Q 1616 4750 1894 4750 
Q 2613 4750 3031 4423 
Q 3450 4097 3450 3541 
Q 3450 3153 3228 2886 
Q 3006 2619 2597 2516 
z
" transform="scale(0.015625)"/>
       </defs>
       <use xlink:href="#DejaVuSans-33"/>
       <use xlink:href="#DejaVuSans-30" x="63.623047"/>
       <use xlink:href="#DejaVuSans-30" x="127.246094"/>
       <use xlink:href="#DejaVuSans-30" x="190.869141"/>
       <use xlink:href="#DejaVuSans-30" x="254.492188"/>
       <use xlink:href="#DejaVuSans-30" x="318.115234"/>
      </g>
     </g>
    </g>
   </g>
   <g id="matplotlib.axis_2">
    <g id="ytick_1">
     <g id="line2d_8">
      <defs>
       <path id="m426bb45a33" d="M 0 0 
L -3.5 0 
" style="stroke: #000000; stroke-width: 0.8"/>
      </defs>
      <g>
       <use xlink:href="#m426bb45a33" x="57.6" y="295.488" style="stroke: #000000; stroke-width: 0.8"/>
      </g>
     </g>
     <g id="text_8">
      <!-- 0.0 -->
      <g transform="translate(34.696875 299.287219) scale(0.1 -0.1)">
       <defs>
        <path id="DejaVuSans-2e" d="M 684 794 
L 1344 794 
L 1344 0 
L 684 0 
L 684 794 
z
" transform="scale(0.015625)"/>
       </defs>
       <use xlink:href="#DejaVuSans-30"/>
       <use xlink:href="#DejaVuSans-2e" x="63.623047"/>
       <use xlink:href="#DejaVuSans-30" x="95.410156"/>
      </g>
     </g>
    </g>
    <g id="ytick_2">
     <g id="line2d_9">
      <g>
       <use xlink:href="#m426bb45a33" x="57.6" y="247.104" style="stroke: #000000; stroke-width: 0.8"/>
      </g>
     </g>
     <g id="text_9">
      <!-- 0.2 -->
      <g transform="translate(34.696875 250.903219) scale(0.1 -0.1)">
       <use xlink:href="#DejaVuSans-30"/>
       <use xlink:href="#DejaVuSans-2e" x="63.623047"/>
       <use xlink:href="#DejaVuSans-32" x="95.410156"/>
      </g>
     </g>
    </g>
    <g id="ytick_3">
     <g id="line2d_10">
      <g>
       <use xlink:href="#m426bb45a33" x="57.6" y="198.72" style="stroke: #000000; stroke-width: 0.8"/>
      </g>
     </g>
     <g id="text_10">
      <!-- 0.4 -->
      <g transform="translate(34.696875 202.519219) scale(0.1 -0.1)">
       <defs>
        <path id="DejaVuSans-34" d="M 2419 4116 
L 825 1625 
L 2419 1625 
L 2419 4116 
z
M 2253 4666 
L 3047 4666 
L 3047 1625 
L 3713 1625 
L 3713 1100 
L 3047 1100 
L 3047 0 
L 2419 0 
L 2419 1100 
L 313 1100 
L 313 1709 
L 2253 4666 
z
" transform="scale(0.015625)"/>
       </defs>
       <use xlink:href="#DejaVuSans-30"/>
       <use xlink:href="#DejaVuSans-2e" x="63.623047"/>
       <use xlink:href="#DejaVuSans-34" x="95.410156"/>
      </g>
     </g>
    </g>
    <g id="ytick_4">
     <g id="line2d_11">
      <g>
       <use xlink:href="#m426bb45a33" x="57.6" y="150.336" style="stroke: #000000; stroke-width: 0.8"/>
      </g>
     </g>
     <g id="text_11">
      <!-- 0.6 -->
      <g transform="translate(34.696875 154.135219) scale(0.1 -0.1)">
       <defs>
        <path id="DejaVuSans-36" d="M 2113 2584 
Q 1688 2584 1439 2293 
Q 1191 2003 1191 1497 
Q 1191 994 1439 701 
Q 1688 409 2113 409 
Q 2538 409 2786 701 
Q 3034 994 3034 1497 
Q 3034 2003 2786 2293 
Q 2538 2584 2113 2584 
z
M 3366 4563 
L 3366 3988 
Q 3128 4100 2886 4159 
Q 2644 4219 2406 4219 
Q 1781 4219 1451 3797 
Q 1122 3375 1075 2522 
Q 1259 2794 1537 2939 
Q 1816 3084 2150 3084 
Q 2853 3084 3261 2657 
Q 3669 2231 3669 1497 
Q 3669 778 3244 343 
Q 2819 -91 2113 -91 
Q 1303 -91 875 529 
Q 447 1150 447 2328 
Q 447 3434 972 4092 
Q 1497 4750 2381 4750 
Q 2619 4750 2861 4703 
Q 3103 4656 3366 4563 
z
" transform="scale(0.015625)"/>
       </defs>
       <use xlink:href="#DejaVuSans-30"/>
       <use xlink:href="#DejaVuSans-2e" x="63.623047"/>
       <use xlink:href="#DejaVuSans-36" x="95.410156"/>
      </g>
     </g>
    </g>
    <g id="ytick_5">
     <g id="line2d_12">
      <g>
       <use xlink:href="#m426bb45a33" x="57.6" y="101.952" style="stroke: #000000; stroke-width: 0.8"/>
      </g>
     </g>
     <g id="text_12">
      <!-- 0.8 -->
      <g transform="translate(34.696875 105.751219) scale(0.1 -0.1)">
       <defs>
        <path id="DejaVuSans-38" d="M 2034 2216 
Q 1584 2216 1326 1975 
Q 1069 1734 1069 1313 
Q 1069 891 1326 650 
Q 1584 409 2034 409 
Q 2484 409 2743 651 
Q 3003 894 3003 1313 
Q 3003 1734 2745 1975 
Q 2488 2216 2034 2216 
z
M 1403 2484 
Q 997 2584 770 2862 
Q 544 3141 544 3541 
Q 544 4100 942 4425 
Q 1341 4750 2034 4750 
Q 2731 4750 3128 4425 
Q 3525 4100 3525 3541 
Q 3525 3141 3298 2862 
Q 3072 2584 2669 2484 
Q 3125 2378 3379 2068 
Q 3634 1759 3634 1313 
Q 3634 634 3220 271 
Q 2806 -91 2034 -91 
Q 1263 -91 848 271 
Q 434 634 434 1313 
Q 434 1759 690 2068 
Q 947 2378 1403 2484 
z
M 1172 3481 
Q 1172 3119 1398 2916 
Q 1625 2713 2034 2713 
Q 2441 2713 2670 2916 
Q 2900 3119 2900 3481 
Q 2900 3844 2670 4047 
Q 2441 4250 2034 4250 
Q 1625 4250 1398 4047 
Q 1172 3844 1172 3481 
z
" transform="scale(0.015625)"/>
       </defs>
       <use xlink:href="#DejaVuSans-30"/>
       <use xlink:href="#DejaVuSans-2e" x="63.623047"/>
       <use xlink:href="#DejaVuSans-38" x="95.410156"/>
      </g>
     </g>
    </g>
    <g id="ytick_6">
     <g id="line2d_13">
      <g>
       <use xlink:href="#m426bb45a33" x="57.6" y="53.568" style="stroke: #000000; stroke-width: 0.8"/>
      </g>
     </g>
     <g id="text_13">
      <!-- 1.0 -->
      <g transform="translate(34.696875 57.367219) scale(0.1 -0.1)">
       <use xlink:href="#DejaVuSans-31"/>
       <use xlink:href="#DejaVuSans-2e" x="63.623047"/>
       <use xlink:href="#DejaVuSans-30" x="95.410156"/>
      </g>
     </g>
    </g>
   </g>
   <g id="line2d_14">
    <path d="M 73.832727 295.488 
L 157.921132 295.488 
L 157.921132 294.774372 
L 159.979497 294.774372 
L 159.979497 294.060743 
L 161.943345 294.060743 
L 161.943345 293.347115 
L 162.069367 293.347115 
L 162.069367 292.633487 
L 162.237397 292.633487 
L 162.237397 291.919858 
L 164.138234 291.919858 
L 164.243253 290.492602 
L 164.610818 290.492602 
L 164.631822 289.065345 
L 165.934052 289.065345 
L 165.934052 288.351717 
L 166.207101 288.351717 
L 166.312119 286.92446 
L 168.275967 286.92446 
L 168.286469 285.497204 
L 168.433495 285.497204 
L 168.433495 284.783575 
L 169.567696 284.783575 
L 169.567696 284.069947 
L 170.365838 284.069947 
L 170.365838 283.356319 
L 170.523366 283.356319 
L 170.523366 282.64269 
L 171.951619 282.64269 
L 171.951619 281.929062 
L 172.508218 281.929062 
L 172.508218 281.215434 
L 172.623738 281.215434 
L 172.623738 280.501805 
L 173.211842 280.501805 
L 173.211842 279.788177 
L 174.629594 279.788177 
L 174.629594 279.074549 
L 174.766118 279.074549 
L 174.766118 278.36092 
L 175.669278 278.36092 
L 175.669278 277.647292 
L 176.687959 277.647292 
L 176.687959 276.933664 
L 176.855988 276.933664 
L 176.855988 276.220035 
L 178.956361 276.220035 
L 178.987866 274.792779 
L 179.313424 274.792779 
L 179.313424 274.07915 
L 180.552644 274.07915 
L 180.552644 273.365522 
L 180.836194 273.365522 
L 180.836194 272.651894 
L 181.056733 272.651894 
L 181.056733 271.938265 
L 182.653016 271.938265 
L 182.653016 271.224637 
L 182.936566 271.224637 
L 182.978574 269.797381 
L 183.157105 269.797381 
L 183.157105 269.083752 
L 184.207291 269.083752 
L 184.207291 268.370124 
L 185.015935 268.370124 
L 185.015935 267.656496 
L 185.21547 267.656496 
L 185.21547 266.942867 
L 186.265656 266.942867 
L 186.265656 266.229239 
L 187.116307 266.229239 
L 187.116307 265.515611 
L 187.347348 265.515611 
L 187.347348 264.801982 
L 187.798928 264.801982 
L 187.893445 263.374726 
L 189.227181 263.374726 
L 189.227181 262.661097 
L 189.44772 262.661097 
L 189.44772 261.947469 
L 189.930806 261.947469 
L 189.930806 261.233841 
L 190.40339 261.233841 
L 190.40339 260.520212 
L 191.30655 260.520212 
L 191.30655 259.806584 
L 191.527089 259.806584 
L 191.527089 257.665699 
L 191.527089 257.665699 
L 193.375416 257.665699 
L 193.375416 256.952071 
L 193.585454 256.952071 
L 193.627461 255.524814 
L 194.026532 255.524814 
L 194.026532 254.811186 
L 194.677647 254.811186 
L 194.677647 254.097558 
L 195.20274 254.097558 
L 195.213242 252.670301 
L 196.630993 252.670301 
L 196.630993 251.956673 
L 197.198094 251.956673 
L 197.198094 251.243044 
L 197.565659 251.243044 
L 197.565659 250.529416 
L 197.754693 250.529416 
L 197.754693 249.815788 
L 198.374302 249.815788 
L 198.374302 249.102159 
L 198.920399 249.102159 
L 198.920399 248.388531 
L 200.285641 248.388531 
L 200.285641 247.674903 
L 202.007947 247.674903 
L 202.007947 246.961274 
L 202.53304 246.961274 
L 202.53304 246.247646 
L 204.045308 246.247646 
L 204.045308 245.534018 
L 205.032483 245.534018 
L 205.032483 244.820389 
L 205.662594 244.820389 
L 205.662594 244.106761 
L 206.166684 244.106761 
L 206.219193 242.679504 
L 206.681275 242.679504 
L 206.681275 241.965876 
L 207.699955 241.965876 
L 207.699955 241.252248 
L 208.708134 241.252248 
L 208.708134 240.538619 
L 208.834156 240.538619 
L 208.844658 239.111363 
L 209.285737 239.111363 
L 209.285737 238.397735 
L 209.968357 238.397735 
L 209.968357 237.684106 
L 211.459622 237.684106 
L 211.459622 236.25685 
L 211.459622 236.25685 
L 211.974213 236.25685 
L 211.974213 235.543221 
L 212.35228 235.543221 
L 212.35228 234.829593 
L 212.562317 234.829593 
L 212.646332 233.402336 
L 214.116593 233.402336 
L 214.116593 232.688708 
L 214.578675 232.688708 
L 214.589177 231.261451 
L 215.051258 231.261451 
L 215.051258 230.547823 
L 215.292801 230.547823 
L 215.292801 229.834195 
L 216.195961 229.834195 
L 216.195961 229.120566 
L 216.75256 229.120566 
L 216.75256 228.406938 
L 217.151631 228.406938 
L 217.151631 227.69331 
L 217.928768 227.69331 
L 217.928768 226.979681 
L 218.296334 226.979681 
L 218.296334 226.266053 
L 219.367524 226.266053 
L 219.367524 225.552425 
L 219.787598 225.552425 
L 219.787598 224.838796 
L 219.96613 224.838796 
L 219.96613 224.125168 
L 220.543732 224.125168 
L 220.543732 223.41154 
L 222.024494 223.41154 
L 222.045498 221.984283 
L 222.381558 221.984283 
L 222.381558 221.270655 
L 223.001168 221.270655 
L 223.001168 220.557027 
L 223.190201 220.557027 
L 223.190201 219.843398 
L 223.57877 219.843398 
L 223.57877 219.12977 
L 224.19838 219.12977 
L 224.19838 218.416142 
L 224.691967 218.416142 
L 224.733975 216.988885 
L 224.975518 216.988885 
L 224.975518 216.275257 
L 225.637135 216.275257 
L 225.637135 215.561628 
L 225.763157 215.561628 
L 225.763157 214.848 
L 226.666317 214.848 
L 226.666317 214.134372 
L 226.834347 214.134372 
L 226.834347 213.420743 
L 227.296429 213.420743 
L 227.338436 211.993487 
L 227.64299 211.993487 
L 227.64299 211.279858 
L 229.260277 211.279858 
L 229.260277 210.56623 
L 229.470314 210.56623 
L 229.470314 209.852602 
L 229.648846 209.852602 
L 229.648846 209.138973 
L 229.900891 209.138973 
L 229.911392 207.711717 
L 230.247452 207.711717 
L 230.310463 206.28446 
L 232.127285 206.28446 
L 232.127285 205.570832 
L 232.263809 205.570832 
L 232.263809 204.857204 
L 232.431839 204.857204 
L 232.49485 203.429947 
L 232.578865 203.429947 
L 232.578865 202.716319 
L 232.988438 202.716319 
L 233.009442 201.289062 
L 233.944107 201.289062 
L 233.944107 200.575434 
L 234.059628 200.575434 
L 234.059628 199.861805 
L 234.763252 199.861805 
L 234.857769 198.434549 
L 235.120316 198.434549 
L 235.120316 197.72092 
L 235.25684 197.72092 
L 235.25684 197.007292 
L 235.634907 197.007292 
L 235.634907 196.293664 
L 236.033978 196.293664 
L 236.033978 195.580035 
L 236.61158 195.580035 
L 236.61158 194.866407 
L 237.441227 194.866407 
L 237.546246 192.725522 
L 237.819294 192.725522 
L 237.840298 191.298265 
L 239.552101 191.298265 
L 239.552101 190.584637 
L 239.709629 190.584637 
L 239.709629 189.871009 
L 240.024685 189.871009 
L 240.1087 188.443752 
L 240.455261 188.443752 
L 240.465763 187.016496 
L 240.6758 187.016496 
L 240.6758 186.302867 
L 241.284908 186.302867 
L 241.284908 185.589239 
L 241.652474 185.589239 
L 241.652474 184.875611 
L 242.65015 184.875611 
L 242.692158 183.448354 
L 243.070225 183.448354 
L 243.080727 182.021097 
L 243.32227 182.021097 
L 243.32227 181.307469 
L 243.794853 181.307469 
L 243.794853 180.593841 
L 244.372456 180.593841 
L 244.372456 179.880212 
L 244.561489 179.880212 
L 244.561489 179.166584 
L 245.286118 179.166584 
L 245.286118 178.452956 
L 245.643181 178.452956 
L 245.685188 177.025699 
L 245.895226 177.025699 
L 245.895226 176.312071 
L 246.714371 176.312071 
L 246.714371 175.598442 
L 247.039928 175.598442 
L 247.039928 174.884814 
L 247.176453 174.884814 
L 247.176453 174.171186 
L 247.848572 174.171186 
L 247.848572 173.457558 
L 247.995598 173.457558 
L 248.090115 172.030301 
L 248.247643 172.030301 
L 248.300152 170.603044 
L 249.308331 170.603044 
L 249.308331 169.889416 
L 249.623386 169.889416 
L 249.623386 169.175788 
L 249.822922 169.175788 
L 249.822922 168.462159 
L 250.074966 168.462159 
L 250.074966 167.748531 
L 250.442532 167.748531 
L 250.442532 167.034903 
L 250.904614 167.034903 
L 250.904614 166.321274 
L 251.818275 166.321274 
L 251.818275 165.607646 
L 251.933796 165.607646 
L 251.933796 164.894018 
L 252.175339 164.894018 
L 252.175339 164.180389 
L 252.301361 164.180389 
L 252.301361 163.466761 
L 252.437885 163.466761 
L 252.437885 162.753133 
L 253.089001 162.753133 
L 253.089001 162.039504 
L 253.572086 162.039504 
L 253.572086 161.325876 
L 254.265209 161.325876 
L 254.265209 160.612248 
L 254.569763 160.612248 
L 254.569763 159.898619 
L 255.073853 159.898619 
L 255.073853 159.184991 
L 255.504429 159.184991 
L 255.504429 158.471363 
L 255.68296 158.471363 
L 255.68296 157.757735 
L 256.197552 157.757735 
L 256.197552 157.044106 
L 256.407589 157.044106 
L 256.407589 156.330478 
L 257.142719 156.330478 
L 257.142719 155.61685 
L 257.489281 155.61685 
L 257.489281 154.903221 
L 257.699318 154.903221 
L 257.699318 154.189593 
L 258.287422 154.189593 
L 258.287422 153.475965 
L 258.507961 153.475965 
L 258.507961 152.762336 
L 258.802013 152.762336 
L 258.802013 152.048708 
L 259.159077 152.048708 
L 259.159077 151.33508 
L 259.705173 151.33508 
L 259.705173 150.621451 
L 260.08324 150.621451 
L 260.08324 149.907823 
L 260.650341 149.907823 
L 260.650341 149.194195 
L 260.786865 149.194195 
L 260.786865 148.480566 
L 260.902386 148.480566 
L 260.954895 147.05331 
L 261.427479 147.05331 
L 261.427479 146.339681 
L 262.320137 146.339681 
L 262.320137 145.626053 
L 262.719208 145.626053 
L 262.72971 144.198796 
L 263.401829 144.198796 
L 263.496345 142.77154 
L 263.559357 142.77154 
L 263.559357 142.057912 
L 264.042442 142.057912 
L 264.042442 141.344283 
L 264.830082 141.344283 
L 264.830082 140.630655 
L 265.38668 140.630655 
L 265.38668 139.917027 
L 265.974785 139.917027 
L 265.974785 139.203398 
L 266.216328 139.203398 
L 266.216328 138.48977 
L 266.646904 138.48977 
L 266.646904 137.776142 
L 266.888447 137.776142 
L 266.888447 137.062513 
L 267.24551 137.062513 
L 267.24551 136.348885 
L 268.054153 136.348885 
L 268.054153 135.635257 
L 268.589748 135.635257 
L 268.589748 134.921628 
L 268.831291 134.921628 
L 268.831291 134.208 
L 269.923485 134.208 
L 269.923485 133.494372 
L 270.658615 133.494372 
L 270.658615 132.780743 
L 271.068188 132.780743 
L 271.068188 132.067115 
L 271.215214 132.067115 
L 271.215214 131.353487 
L 271.729805 131.353487 
L 271.729805 130.639858 
L 272.538448 130.639858 
L 272.538448 129.92623 
L 273.28408 129.92623 
L 273.28408 129.212602 
L 273.798672 129.212602 
L 273.798672 128.498973 
L 274.365772 128.498973 
L 274.365772 127.785345 
L 274.785846 127.785345 
L 274.785846 127.071717 
L 275.100902 127.071717 
L 275.100902 126.358088 
L 277.001739 126.358088 
L 277.001739 125.64446 
L 277.694862 125.64446 
L 277.694862 124.930832 
L 277.841888 124.930832 
L 277.841888 124.217204 
L 278.398487 124.217204 
L 278.398487 123.503575 
L 279.65871 123.503575 
L 279.65871 122.789947 
L 280.27832 122.789947 
L 280.27832 122.076319 
L 280.435848 122.076319 
L 280.435848 121.36269 
L 281.832596 121.36269 
L 281.832596 120.649062 
L 282.063636 120.649062 
L 282.063636 119.935434 
L 282.326183 119.935434 
L 282.326183 119.221805 
L 282.882782 119.221805 
L 282.882782 118.508177 
L 283.071815 118.508177 
L 283.071815 117.794549 
L 284.458061 117.794549 
L 284.458061 117.08092 
L 285.01466 117.08092 
L 285.01466 116.367292 
L 285.46624 116.367292 
L 285.46624 115.653664 
L 285.718284 115.653664 
L 285.812801 114.226407 
L 287.146537 114.226407 
L 287.146537 113.512779 
L 287.640125 113.512779 
L 287.640125 112.79915 
L 288.133712 112.79915 
L 288.133712 112.085522 
L 288.354252 112.085522 
L 288.354252 111.371894 
L 289.498954 111.371894 
L 289.498954 110.658265 
L 289.750999 110.658265 
L 289.750999 109.944637 
L 290.3181 109.944637 
L 290.3181 109.231009 
L 290.727672 109.231009 
L 290.727672 108.517381 
L 290.906204 108.517381 
L 290.906204 107.803752 
L 292.344959 107.803752 
L 292.355461 106.376496 
L 292.628509 106.376496 
L 292.628509 105.662867 
L 293.300628 105.662867 
L 293.300628 104.949239 
L 293.521167 104.949239 
L 293.521167 104.235611 
L 294.991428 104.235611 
L 295.00193 102.808354 
L 295.947097 102.808354 
L 295.947097 102.094726 
L 296.18864 102.094726 
L 296.293659 100.667469 
L 297.627395 100.667469 
L 297.627395 99.953841 
L 298.61457 99.953841 
L 298.61457 99.240212 
L 298.772098 99.240212 
L 298.772098 98.526584 
L 299.906299 98.526584 
L 299.906299 97.812956 
L 300.252861 97.812956 
L 300.252861 97.099327 
L 301.20853 97.099327 
L 301.20853 96.385699 
L 301.429069 96.385699 
L 301.429069 95.672071 
L 302.878326 95.672071 
L 302.878326 94.958442 
L 303.876003 94.958442 
L 303.981021 93.531186 
L 305.493289 93.531186 
L 305.493289 92.817558 
L 306.616989 92.817558 
L 306.616989 92.103929 
L 308.15026 92.103929 
L 308.15026 91.390301 
L 309.095428 91.390301 
L 309.095428 90.676673 
L 309.22145 90.676673 
L 309.22145 89.963044 
L 310.796729 89.963044 
L 310.796729 89.249416 
L 311.689388 89.249416 
L 311.689388 88.535788 
L 311.846916 88.535788 
L 311.846916 87.822159 
L 313.422195 87.822159 
L 313.422195 87.108531 
L 314.35686 87.108531 
L 314.35686 86.394903 
L 316.058162 86.394903 
L 316.058162 85.681274 
L 318.694129 85.681274 
L 318.694129 84.967646 
L 321.288089 84.967646 
L 321.288089 84.254018 
L 323.94506 84.254018 
L 323.94506 83.540389 
L 326.53902 83.540389 
L 326.53902 82.826761 
L 329.847106 82.826761 
L 329.847106 82.113133 
L 332.525081 82.113133 
L 332.525081 81.399504 
L 335.150546 81.399504 
L 335.150546 80.685876 
L 336.221736 80.685876 
L 336.221736 79.972248 
L 337.76551 79.972248 
L 337.76551 79.258619 
L 338.857703 79.258619 
L 338.857703 78.544991 
L 341.441161 78.544991 
L 341.441161 77.831363 
L 344.035121 77.831363 
L 344.035121 77.117735 
L 346.639583 77.117735 
L 346.639583 76.404106 
L 349.27555 76.404106 
L 349.27555 75.690478 
L 351.228896 75.690478 
L 351.228896 74.97685 
L 351.932521 74.97685 
L 351.932521 74.263221 
L 354.57899 74.263221 
L 354.57899 73.549593 
L 357.17295 73.549593 
L 357.17295 72.835965 
L 359.808917 72.835965 
L 359.808917 72.122336 
L 362.444884 72.122336 
L 362.444884 71.408708 
L 365.059848 71.408708 
L 365.059848 70.69508 
L 367.055201 70.69508 
L 367.055201 69.981451 
L 367.758826 69.981451 
L 367.758826 69.267823 
L 369.155574 69.267823 
L 369.166076 67.840566 
L 370.342284 67.840566 
L 370.342284 67.126938 
L 371.266448 67.126938 
L 371.287452 65.699681 
L 373.009757 65.699681 
L 373.009757 64.986053 
L 373.345816 64.986053 
L 373.345816 64.272425 
L 375.446189 64.272425 
L 375.446189 63.558796 
L 375.572211 63.558796 
L 375.572211 62.845168 
L 377.557063 62.845168 
L 377.557063 62.13154 
L 378.197676 62.13154 
L 378.197676 61.417912 
L 379.667937 61.417912 
L 379.667937 60.704283 
L 380.823142 60.704283 
L 380.823142 59.990655 
L 381.726302 59.990655 
L 381.726302 59.277027 
L 383.837176 59.277027 
L 383.837176 58.563398 
L 385.94805 58.563398 
L 385.94805 57.84977 
L 388.048422 57.84977 
L 388.048422 57.136142 
L 390.148795 57.136142 
L 390.148795 56.422513 
L 392.217661 56.422513 
L 392.217661 55.708885 
L 394.328536 55.708885 
L 394.328536 54.995257 
L 396.407904 54.995257 
L 396.407904 54.281628 
L 398.487273 54.281628 
L 398.487273 53.568 
L 398.487273 53.568 
" clip-path="url(#pa2d462fad5)" style="fill: none; stroke: #1f77b4; stroke-width: 1.5; stroke-linecap: square"/>
   </g>
   <g id="patch_3">
    <path d="M 57.6 307.584 
L 57.6 41.472 
" style="fill: none; stroke: #000000; stroke-width: 0.8; stroke-linejoin: miter; stroke-linecap: square"/>
   </g>
   <g id="patch_4">
    <path d="M 414.72 307.584 
L 414.72 41.472 
" style="fill: none; stroke: #000000; stroke-width: 0.8; stroke-linejoin: miter; stroke-linecap: square"/>
   </g>
   <g id="patch_5">
    <path d="M 57.6 307.584 
L 414.72 307.584 
" style="fill: none; stroke: #000000; stroke-width: 0.8; stroke-linejoin: miter; stroke-linecap: square"/>
   </g>
   <g id="patch_6">
    <path d="M 57.6 41.472 
L 414.72 41.472 
" style="fill: none; stroke: #000000; stroke-width: 0.8; stroke-linejoin: miter; stroke-linecap: square"/>
   </g>
   <g id="text_14">
    <!-- Execution time between S1 S103 (xx1xx1xx1xx1xx1xx1xx1xx1xx1) -->
    <g transform="translate(31.832813 35.472) scale(0.12 -0.12)">
     <defs>
      <path id="DejaVuSans-45" d="M 628 4666 
L 3578 4666 
L 3578 4134 
L 1259 4134 
L 1259 2753 
L 3481 2753 
L 3481 2222 
L 1259 2222 
L 1259 531 
L 3634 531 
L 3634 0 
L 628 0 
L 628 4666 
z
" transform="scale(0.015625)"/>
      <path id="DejaVuSans-78" d="M 3513 3500 
L 2247 1797 
L 3578 0 
L 2900 0 
L 1881 1375 
L 863 0 
L 184 0 
L 1544 1831 
L 300 3500 
L 978 3500 
L 1906 2253 
L 2834 3500 
L 3513 3500 
z
" transform="scale(0.015625)"/>
      <path id="DejaVuSans-65" d="M 3597 1894 
L 3597 1613 
L 953 1613 
Q 991 1019 1311 708 
Q 1631 397 2203 397 
Q 2534 397 2845 478 
Q 3156 559 3463 722 
L 3463 178 
Q 3153 47 2828 -22 
Q 2503 -91 2169 -91 
Q 1331 -91 842 396 
Q 353 884 353 1716 
Q 353 2575 817 3079 
Q 1281 3584 2069 3584 
Q 2775 3584 3186 3129 
Q 3597 2675 3597 1894 
z
M 3022 2063 
Q 3016 2534 2758 2815 
Q 2500 3097 2075 3097 
Q 1594 3097 1305 2825 
Q 1016 2553 972 2059 
L 3022 2063 
z
" transform="scale(0.015625)"/>
      <path id="DejaVuSans-63" d="M 3122 3366 
L 3122 2828 
Q 2878 2963 2633 3030 
Q 2388 3097 2138 3097 
Q 1578 3097 1268 2742 
Q 959 2388 959 1747 
Q 959 1106 1268 751 
Q 1578 397 2138 397 
Q 2388 397 2633 464 
Q 2878 531 3122 666 
L 3122 134 
Q 2881 22 2623 -34 
Q 2366 -91 2075 -91 
Q 1284 -91 818 406 
Q 353 903 353 1747 
Q 353 2603 823 3093 
Q 1294 3584 2113 3584 
Q 2378 3584 2631 3529 
Q 2884 3475 3122 3366 
z
" transform="scale(0.015625)"/>
      <path id="DejaVuSans-75" d="M 544 1381 
L 544 3500 
L 1119 3500 
L 1119 1403 
Q 1119 906 1312 657 
Q 1506 409 1894 409 
Q 2359 409 2629 706 
Q 2900 1003 2900 1516 
L 2900 3500 
L 3475 3500 
L 3475 0 
L 2900 0 
L 2900 538 
Q 2691 219 2414 64 
Q 2138 -91 1772 -91 
Q 1169 -91 856 284 
Q 544 659 544 1381 
z
M 1991 3584 
L 1991 3584 
z
" transform="scale(0.015625)"/>
      <path id="DejaVuSans-74" d="M 1172 4494 
L 1172 3500 
L 2356 3500 
L 2356 3053 
L 1172 3053 
L 1172 1153 
Q 1172 725 1289 603 
Q 1406 481 1766 481 
L 2356 481 
L 2356 0 
L 1766 0 
Q 1100 0 847 248 
Q 594 497 594 1153 
L 594 3053 
L 172 3053 
L 172 3500 
L 594 3500 
L 594 4494 
L 1172 4494 
z
" transform="scale(0.015625)"/>
      <path id="DejaVuSans-69" d="M 603 3500 
L 1178 3500 
L 1178 0 
L 603 0 
L 603 3500 
z
M 603 4863 
L 1178 4863 
L 1178 4134 
L 603 4134 
L 603 4863 
z
" transform="scale(0.015625)"/>
      <path id="DejaVuSans-6f" d="M 1959 3097 
Q 1497 3097 1228 2736 
Q 959 2375 959 1747 
Q 959 1119 1226 758 
Q 1494 397 1959 397 
Q 2419 397 2687 759 
Q 2956 1122 2956 1747 
Q 2956 2369 2687 2733 
Q 2419 3097 1959 3097 
z
M 1959 3584 
Q 2709 3584 3137 3096 
Q 3566 2609 3566 1747 
Q 3566 888 3137 398 
Q 2709 -91 1959 -91 
Q 1206 -91 779 398 
Q 353 888 353 1747 
Q 353 2609 779 3096 
Q 1206 3584 1959 3584 
z
" transform="scale(0.015625)"/>
      <path id="DejaVuSans-6e" d="M 3513 2113 
L 3513 0 
L 2938 0 
L 2938 2094 
Q 2938 2591 2744 2837 
Q 2550 3084 2163 3084 
Q 1697 3084 1428 2787 
Q 1159 2491 1159 1978 
L 1159 0 
L 581 0 
L 581 3500 
L 1159 3500 
L 1159 2956 
Q 1366 3272 1645 3428 
Q 1925 3584 2291 3584 
Q 2894 3584 3203 3211 
Q 3513 2838 3513 2113 
z
" transform="scale(0.015625)"/>
      <path id="DejaVuSans-20" transform="scale(0.015625)"/>
      <path id="DejaVuSans-6d" d="M 3328 2828 
Q 3544 3216 3844 3400 
Q 4144 3584 4550 3584 
Q 5097 3584 5394 3201 
Q 5691 2819 5691 2113 
L 5691 0 
L 5113 0 
L 5113 2094 
Q 5113 2597 4934 2840 
Q 4756 3084 4391 3084 
Q 3944 3084 3684 2787 
Q 3425 2491 3425 1978 
L 3425 0 
L 2847 0 
L 2847 2094 
Q 2847 2600 2669 2842 
Q 2491 3084 2119 3084 
Q 1678 3084 1418 2786 
Q 1159 2488 1159 1978 
L 1159 0 
L 581 0 
L 581 3500 
L 1159 3500 
L 1159 2956 
Q 1356 3278 1631 3431 
Q 1906 3584 2284 3584 
Q 2666 3584 2933 3390 
Q 3200 3197 3328 2828 
z
" transform="scale(0.015625)"/>
      <path id="DejaVuSans-62" d="M 3116 1747 
Q 3116 2381 2855 2742 
Q 2594 3103 2138 3103 
Q 1681 3103 1420 2742 
Q 1159 2381 1159 1747 
Q 1159 1113 1420 752 
Q 1681 391 2138 391 
Q 2594 391 2855 752 
Q 3116 1113 3116 1747 
z
M 1159 2969 
Q 1341 3281 1617 3432 
Q 1894 3584 2278 3584 
Q 2916 3584 3314 3078 
Q 3713 2572 3713 1747 
Q 3713 922 3314 415 
Q 2916 -91 2278 -91 
Q 1894 -91 1617 61 
Q 1341 213 1159 525 
L 1159 0 
L 581 0 
L 581 4863 
L 1159 4863 
L 1159 2969 
z
" transform="scale(0.015625)"/>
      <path id="DejaVuSans-77" d="M 269 3500 
L 844 3500 
L 1563 769 
L 2278 3500 
L 2956 3500 
L 3675 769 
L 4391 3500 
L 4966 3500 
L 4050 0 
L 3372 0 
L 2619 2869 
L 1863 0 
L 1184 0 
L 269 3500 
z
" transform="scale(0.015625)"/>
      <path id="DejaVuSans-53" d="M 3425 4513 
L 3425 3897 
Q 3066 4069 2747 4153 
Q 2428 4238 2131 4238 
Q 1616 4238 1336 4038 
Q 1056 3838 1056 3469 
Q 1056 3159 1242 3001 
Q 1428 2844 1947 2747 
L 2328 2669 
Q 3034 2534 3370 2195 
Q 3706 1856 3706 1288 
Q 3706 609 3251 259 
Q 2797 -91 1919 -91 
Q 1588 -91 1214 -16 
Q 841 59 441 206 
L 441 856 
Q 825 641 1194 531 
Q 1563 422 1919 422 
Q 2459 422 2753 634 
Q 3047 847 3047 1241 
Q 3047 1584 2836 1778 
Q 2625 1972 2144 2069 
L 1759 2144 
Q 1053 2284 737 2584 
Q 422 2884 422 3419 
Q 422 4038 858 4394 
Q 1294 4750 2059 4750 
Q 2388 4750 2728 4690 
Q 3069 4631 3425 4513 
z
" transform="scale(0.015625)"/>
      <path id="DejaVuSans-28" d="M 1984 4856 
Q 1566 4138 1362 3434 
Q 1159 2731 1159 2009 
Q 1159 1288 1364 580 
Q 1569 -128 1984 -844 
L 1484 -844 
Q 1016 -109 783 600 
Q 550 1309 550 2009 
Q 550 2706 781 3412 
Q 1013 4119 1484 4856 
L 1984 4856 
z
" transform="scale(0.015625)"/>
      <path id="DejaVuSans-29" d="M 513 4856 
L 1013 4856 
Q 1481 4119 1714 3412 
Q 1947 2706 1947 2009 
Q 1947 1309 1714 600 
Q 1481 -109 1013 -844 
L 513 -844 
Q 928 -128 1133 580 
Q 1338 1288 1338 2009 
Q 1338 2731 1133 3434 
Q 928 4138 513 4856 
z
" transform="scale(0.015625)"/>
     </defs>
     <use xlink:href="#DejaVuSans-45"/>
     <use xlink:href="#DejaVuSans-78" x="63.183594"/>
     <use xlink:href="#DejaVuSans-65" x="119.238281"/>
     <use xlink:href="#DejaVuSans-63" x="180.761719"/>
     <use xlink:href="#DejaVuSans-75" x="235.742188"/>
     <use xlink:href="#DejaVuSans-74" x="299.121094"/>
     <use xlink:href="#DejaVuSans-69" x="338.330078"/>
     <use xlink:href="#DejaVuSans-6f" x="366.113281"/>
     <use xlink:href="#DejaVuSans-6e" x="427.294922"/>
     <use xlink:href="#DejaVuSans-20" x="490.673828"/>
     <use xlink:href="#DejaVuSans-74" x="522.460938"/>
     <use xlink:href="#DejaVuSans-69" x="561.669922"/>
     <use xlink:href="#DejaVuSans-6d" x="589.453125"/>
     <use xlink:href="#DejaVuSans-65" x="686.865234"/>
     <use xlink:href="#DejaVuSans-20" x="748.388672"/>
     <use xlink:href="#DejaVuSans-62" x="780.175781"/>
     <use xlink:href="#DejaVuSans-65" x="843.652344"/>
     <use xlink:href="#DejaVuSans-74" x="905.175781"/>
     <use xlink:href="#DejaVuSans-77" x="944.384766"/>
     <use xlink:href="#DejaVuSans-65" x="1026.171875"/>
     <use xlink:href="#DejaVuSans-65" x="1087.695312"/>
     <use xlink:href="#DejaVuSans-6e" x="1149.21875"/>
     <use xlink:href="#DejaVuSans-20" x="1212.597656"/>
     <use xlink:href="#DejaVuSans-53" x="1244.384766"/>
     <use xlink:href="#DejaVuSans-31" x="1307.861328"/>
     <use xlink:href="#DejaVuSans-20" x="1371.484375"/>
     <use xlink:href="#DejaVuSans-53" x="1403.271484"/>
     <use xlink:href="#DejaVuSans-31" x="1466.748047"/>
     <use xlink:href="#DejaVuSans-30" x="1530.371094"/>
     <use xlink:href="#DejaVuSans-33" x="1593.994141"/>
     <use xlink:href="#DejaVuSans-20" x="1657.617188"/>
     <use xlink:href="#DejaVuSans-28" x="1689.404297"/>
     <use xlink:href="#DejaVuSans-78" x="1728.417969"/>
     <use xlink:href="#DejaVuSans-78" x="1787.597656"/>
     <use xlink:href="#DejaVuSans-31" x="1846.777344"/>
     <use xlink:href="#DejaVuSans-78" x="1910.400391"/>
     <use xlink:href="#DejaVuSans-78" x="1969.580078"/>
     <use xlink:href="#DejaVuSans-31" x="2028.759766"/>
     <use xlink:href="#DejaVuSans-78" x="2092.382812"/>
     <use xlink:href="#DejaVuSans-78" x="2151.5625"/>
     <use xlink:href="#DejaVuSans-31" x="2210.742188"/>
     <use xlink:href="#DejaVuSans-78" x="2274.365234"/>
     <use xlink:href="#DejaVuSans-78" x="2333.544922"/>
     <use xlink:href="#DejaVuSans-31" x="2392.724609"/>
     <use xlink:href="#DejaVuSans-78" x="2456.347656"/>
     <use xlink:href="#DejaVuSans-78" x="2515.527344"/>
     <use xlink:href="#DejaVuSans-31" x="2574.707031"/>
     <use xlink:href="#DejaVuSans-78" x="2638.330078"/>
     <use xlink:href="#DejaVuSans-78" x="2697.509766"/>
     <use xlink:href="#DejaVuSans-31" x="2756.689453"/>
     <use xlink:href="#DejaVuSans-78" x="2820.3125"/>
     <use xlink:href="#DejaVuSans-78" x="2879.492188"/>
     <use xlink:href="#DejaVuSans-31" x="2938.671875"/>
     <use xlink:href="#DejaVuSans-78" x="3002.294922"/>
     <use xlink:href="#DejaVuSans-78" x="3061.474609"/>
     <use xlink:href="#DejaVuSans-31" x="3120.654297"/>
     <use xlink:href="#DejaVuSans-78" x="3184.277344"/>
     <use xlink:href="#DejaVuSans-78" x="3243.457031"/>
     <use xlink:href="#DejaVuSans-31" x="3302.636719"/>
     <use xlink:href="#DejaVuSans-29" x="3366.259766"/>
    </g>
   </g>
   <g id="legend_1">
    <g id="patch_7">
     <path d="M 186.992812 304.584 
L 410.52 304.584 
Q 411.72 304.584 411.72 303.384 
L 411.72 295.177125 
Q 411.72 293.977125 410.52 293.977125 
L 186.992812 293.977125 
Q 185.792812 293.977125 185.792812 295.177125 
L 185.792812 303.384 
Q 185.792812 304.584 186.992812 304.584 
z
" style="fill: #ffffff; opacity: 0.8; stroke: #cccccc; stroke-linejoin: miter"/>
    </g>
    <g id="line2d_15">
     <path d="M 188.192813 298.836187 
L 194.192813 298.836187 
L 200.192813 298.836187 
" style="fill: none; stroke: #1f77b4; stroke-width: 1.5; stroke-linecap: square"/>
    </g>
    <g id="text_15">
     <!-- Execution time between S1 S103 (xx1xx1xx1xx1xx1xx1xx1xx1xx1) -->
     <g transform="translate(204.992813 300.936187) scale(0.06 -0.06)">
      <use xlink:href="#DejaVuSans-45"/>
      <use xlink:href="#DejaVuSans-78" x="63.183594"/>
      <use xlink:href="#DejaVuSans-65" x="119.238281"/>
      <use xlink:href="#DejaVuSans-63" x="180.761719"/>
      <use xlink:href="#DejaVuSans-75" x="235.742188"/>
      <use xlink:href="#DejaVuSans-74" x="299.121094"/>
      <use xlink:href="#DejaVuSans-69" x="338.330078"/>
      <use xlink:href="#DejaVuSans-6f" x="366.113281"/>
      <use xlink:href="#DejaVuSans-6e" x="427.294922"/>
      <use xlink:href="#DejaVuSans-20" x="490.673828"/>
      <use xlink:href="#DejaVuSans-74" x="522.460938"/>
      <use xlink:href="#DejaVuSans-69" x="561.669922"/>
      <use xlink:href="#DejaVuSans-6d" x="589.453125"/>
      <use xlink:href="#DejaVuSans-65" x="686.865234"/>
      <use xlink:href="#DejaVuSans-20" x="748.388672"/>
      <use xlink:href="#DejaVuSans-62" x="780.175781"/>
      <use xlink:href="#DejaVuSans-65" x="843.652344"/>
      <use xlink:href="#DejaVuSans-74" x="905.175781"/>
      <use xlink:href="#DejaVuSans-77" x="944.384766"/>
      <use xlink:href="#DejaVuSans-65" x="1026.171875"/>
      <use xlink:href="#DejaVuSans-65" x="1087.695312"/>
      <use xlink:href="#DejaVuSans-6e" x="1149.21875"/>
      <use xlink:href="#DejaVuSans-20" x="1212.597656"/>
      <use xlink:href="#DejaVuSans-53" x="1244.384766"/>
      <use xlink:href="#DejaVuSans-31" x="1307.861328"/>
      <use xlink:href="#DejaVuSans-20" x="1371.484375"/>
      <use xlink:href="#DejaVuSans-53" x="1403.271484"/>
      <use xlink:href="#DejaVuSans-31" x="1466.748047"/>
      <use xlink:href="#DejaVuSans-30" x="1530.371094"/>
      <use xlink:href="#DejaVuSans-33" x="1593.994141"/>
      <use xlink:href="#DejaVuSans-20" x="1657.617188"/>
      <use xlink:href="#DejaVuSans-28" x="1689.404297"/>
      <use xlink:href="#DejaVuSans-78" x="1728.417969"/>
      <use xlink:href="#DejaVuSans-78" x="1787.597656"/>
      <use xlink:href="#DejaVuSans-31" x="1846.777344"/>
      <use xlink:href="#DejaVuSans-78" x="1910.400391"/>
      <use xlink:href="#DejaVuSans-78" x="1969.580078"/>
      <use xlink:href="#DejaVuSans-31" x="2028.759766"/>
      <use xlink:href="#DejaVuSans-78" x="2092.382812"/>
      <use xlink:href="#DejaVuSans-78" x="2151.5625"/>
      <use xlink:href="#DejaVuSans-31" x="2210.742188"/>
      <use xlink:href="#DejaVuSans-78" x="2274.365234"/>
      <use xlink:href="#DejaVuSans-78" x="2333.544922"/>
      <use xlink:href="#DejaVuSans-31" x="2392.724609"/>
      <use xlink:href="#DejaVuSans-78" x="2456.347656"/>
      <use xlink:href="#DejaVuSans-78" x="2515.527344"/>
      <use xlink:href="#DejaVuSans-31" x="2574.707031"/>
      <use xlink:href="#DejaVuSans-78" x="2638.330078"/>
      <use xlink:href="#DejaVuSans-78" x="2697.509766"/>
      <use xlink:href="#DejaVuSans-31" x="2756.689453"/>
      <use xlink:href="#DejaVuSans-78" x="2820.3125"/>
      <use xlink:href="#DejaVuSans-78" x="2879.492188"/>
      <use xlink:href="#DejaVuSans-31" x="2938.671875"/>
      <use xlink:href="#DejaVuSans-78" x="3002.294922"/>
      <use xlink:href="#DejaVuSans-78" x="3061.474609"/>
      <use xlink:href="#DejaVuSans-31" x="3120.654297"/>
      <use xlink:href="#DejaVuSans-78" x="3184.277344"/>
      <use xlink:href="#DejaVuSans-78" x="3243.457031"/>
      <use xlink:href="#DejaVuSans-31" x="3302.636719"/>
      <use xlink:href="#DejaVuSans-29" x="3366.259766"/>
     </g>
    </g>
   </g>
  </g>
 </g>
 <defs>
  <clipPath id="pa2d462fad5">
   <rect x="57.6" y="41.472" width="357.12" height="266.112"/>
  </clipPath>
 </defs>
</svg>
