<?xml version="1.0" encoding="utf-8" standalone="no"?>
<!DOCTYPE svg PUBLIC "-//W3C//DTD SVG 1.1//EN"
  "http://www.w3.org/Graphics/SVG/1.1/DTD/svg11.dtd">
<svg xmlns:xlink="http://www.w3.org/1999/xlink" width="460.8pt" height="345.6pt" viewBox="0 0 460.8 345.6" xmlns="http://www.w3.org/2000/svg" version="1.1">
 <metadata>
  <rdf:RDF xmlns:dc="http://purl.org/dc/elements/1.1/" xmlns:cc="http://creativecommons.org/ns#" xmlns:rdf="http://www.w3.org/1999/02/22-rdf-syntax-ns#">
   <cc:Work>
    <dc:type rdf:resource="http://purl.org/dc/dcmitype/StillImage"/>
    <dc:date>2024-03-08T12:26:25.719719</dc:date>
    <dc:format>image/svg+xml</dc:format>
    <dc:creator>
     <cc:Agent>
      <dc:title>Matplotlib v3.8.2, https://matplotlib.org/</dc:title>
     </cc:Agent>
    </dc:creator>
   </cc:Work>
  </rdf:RDF>
 </metadata>
 <defs>
  <style type="text/css">*{stroke-linejoin: round; stroke-linecap: butt}</style>
 </defs>
 <g id="figure_1">
  <g id="patch_1">
   <path d="M 0 345.6 
L 460.8 345.6 
L 460.8 0 
L 0 0 
z
" style="fill: #ffffff"/>
  </g>
  <g id="axes_1">
   <g id="patch_2">
    <path d="M 57.6 307.584 
L 414.72 307.584 
L 414.72 41.472 
L 57.6 41.472 
z
" style="fill: #ffffff"/>
   </g>
   <g id="matplotlib.axis_1">
    <g id="xtick_1">
     <g id="line2d_1">
      <defs>
       <path id="md9cd4b565b" d="M 0 0 
L 0 3.5 
" style="stroke: #000000; stroke-width: 0.8"/>
      </defs>
      <g>
       <use xlink:href="#md9cd4b565b" x="73.832727" y="307.584" style="stroke: #000000; stroke-width: 0.8"/>
      </g>
     </g>
     <g id="text_1">
      <!-- 0.0 -->
      <g transform="translate(65.881165 322.182437) scale(0.1 -0.1)">
       <defs>
        <path id="DejaVuSans-30" d="M 2034 4250 
Q 1547 4250 1301 3770 
Q 1056 3291 1056 2328 
Q 1056 1369 1301 889 
Q 1547 409 2034 409 
Q 2525 409 2770 889 
Q 3016 1369 3016 2328 
Q 3016 3291 2770 3770 
Q 2525 4250 2034 4250 
z
M 2034 4750 
Q 2819 4750 3233 4129 
Q 3647 3509 3647 2328 
Q 3647 1150 3233 529 
Q 2819 -91 2034 -91 
Q 1250 -91 836 529 
Q 422 1150 422 2328 
Q 422 3509 836 4129 
Q 1250 4750 2034 4750 
z
" transform="scale(0.015625)"/>
        <path id="DejaVuSans-2e" d="M 684 794 
L 1344 794 
L 1344 0 
L 684 0 
L 684 794 
z
" transform="scale(0.015625)"/>
       </defs>
       <use xlink:href="#DejaVuSans-30"/>
       <use xlink:href="#DejaVuSans-2e" x="63.623047"/>
       <use xlink:href="#DejaVuSans-30" x="95.410156"/>
      </g>
     </g>
    </g>
    <g id="xtick_2">
     <g id="line2d_2">
      <g>
       <use xlink:href="#md9cd4b565b" x="118.794994" y="307.584" style="stroke: #000000; stroke-width: 0.8"/>
      </g>
     </g>
     <g id="text_2">
      <!-- 0.2 -->
      <g transform="translate(110.843432 322.182437) scale(0.1 -0.1)">
       <defs>
        <path id="DejaVuSans-32" d="M 1228 531 
L 3431 531 
L 3431 0 
L 469 0 
L 469 531 
Q 828 903 1448 1529 
Q 2069 2156 2228 2338 
Q 2531 2678 2651 2914 
Q 2772 3150 2772 3378 
Q 2772 3750 2511 3984 
Q 2250 4219 1831 4219 
Q 1534 4219 1204 4116 
Q 875 4013 500 3803 
L 500 4441 
Q 881 4594 1212 4672 
Q 1544 4750 1819 4750 
Q 2544 4750 2975 4387 
Q 3406 4025 3406 3419 
Q 3406 3131 3298 2873 
Q 3191 2616 2906 2266 
Q 2828 2175 2409 1742 
Q 1991 1309 1228 531 
z
" transform="scale(0.015625)"/>
       </defs>
       <use xlink:href="#DejaVuSans-30"/>
       <use xlink:href="#DejaVuSans-2e" x="63.623047"/>
       <use xlink:href="#DejaVuSans-32" x="95.410156"/>
      </g>
     </g>
    </g>
    <g id="xtick_3">
     <g id="line2d_3">
      <g>
       <use xlink:href="#md9cd4b565b" x="163.757261" y="307.584" style="stroke: #000000; stroke-width: 0.8"/>
      </g>
     </g>
     <g id="text_3">
      <!-- 0.4 -->
      <g transform="translate(155.805699 322.182437) scale(0.1 -0.1)">
       <defs>
        <path id="DejaVuSans-34" d="M 2419 4116 
L 825 1625 
L 2419 1625 
L 2419 4116 
z
M 2253 4666 
L 3047 4666 
L 3047 1625 
L 3713 1625 
L 3713 1100 
L 3047 1100 
L 3047 0 
L 2419 0 
L 2419 1100 
L 313 1100 
L 313 1709 
L 2253 4666 
z
" transform="scale(0.015625)"/>
       </defs>
       <use xlink:href="#DejaVuSans-30"/>
       <use xlink:href="#DejaVuSans-2e" x="63.623047"/>
       <use xlink:href="#DejaVuSans-34" x="95.410156"/>
      </g>
     </g>
    </g>
    <g id="xtick_4">
     <g id="line2d_4">
      <g>
       <use xlink:href="#md9cd4b565b" x="208.719528" y="307.584" style="stroke: #000000; stroke-width: 0.8"/>
      </g>
     </g>
     <g id="text_4">
      <!-- 0.6 -->
      <g transform="translate(200.767966 322.182437) scale(0.1 -0.1)">
       <defs>
        <path id="DejaVuSans-36" d="M 2113 2584 
Q 1688 2584 1439 2293 
Q 1191 2003 1191 1497 
Q 1191 994 1439 701 
Q 1688 409 2113 409 
Q 2538 409 2786 701 
Q 3034 994 3034 1497 
Q 3034 2003 2786 2293 
Q 2538 2584 2113 2584 
z
M 3366 4563 
L 3366 3988 
Q 3128 4100 2886 4159 
Q 2644 4219 2406 4219 
Q 1781 4219 1451 3797 
Q 1122 3375 1075 2522 
Q 1259 2794 1537 2939 
Q 1816 3084 2150 3084 
Q 2853 3084 3261 2657 
Q 3669 2231 3669 1497 
Q 3669 778 3244 343 
Q 2819 -91 2113 -91 
Q 1303 -91 875 529 
Q 447 1150 447 2328 
Q 447 3434 972 4092 
Q 1497 4750 2381 4750 
Q 2619 4750 2861 4703 
Q 3103 4656 3366 4563 
z
" transform="scale(0.015625)"/>
       </defs>
       <use xlink:href="#DejaVuSans-30"/>
       <use xlink:href="#DejaVuSans-2e" x="63.623047"/>
       <use xlink:href="#DejaVuSans-36" x="95.410156"/>
      </g>
     </g>
    </g>
    <g id="xtick_5">
     <g id="line2d_5">
      <g>
       <use xlink:href="#md9cd4b565b" x="253.681795" y="307.584" style="stroke: #000000; stroke-width: 0.8"/>
      </g>
     </g>
     <g id="text_5">
      <!-- 0.8 -->
      <g transform="translate(245.730233 322.182437) scale(0.1 -0.1)">
       <defs>
        <path id="DejaVuSans-38" d="M 2034 2216 
Q 1584 2216 1326 1975 
Q 1069 1734 1069 1313 
Q 1069 891 1326 650 
Q 1584 409 2034 409 
Q 2484 409 2743 651 
Q 3003 894 3003 1313 
Q 3003 1734 2745 1975 
Q 2488 2216 2034 2216 
z
M 1403 2484 
Q 997 2584 770 2862 
Q 544 3141 544 3541 
Q 544 4100 942 4425 
Q 1341 4750 2034 4750 
Q 2731 4750 3128 4425 
Q 3525 4100 3525 3541 
Q 3525 3141 3298 2862 
Q 3072 2584 2669 2484 
Q 3125 2378 3379 2068 
Q 3634 1759 3634 1313 
Q 3634 634 3220 271 
Q 2806 -91 2034 -91 
Q 1263 -91 848 271 
Q 434 634 434 1313 
Q 434 1759 690 2068 
Q 947 2378 1403 2484 
z
M 1172 3481 
Q 1172 3119 1398 2916 
Q 1625 2713 2034 2713 
Q 2441 2713 2670 2916 
Q 2900 3119 2900 3481 
Q 2900 3844 2670 4047 
Q 2441 4250 2034 4250 
Q 1625 4250 1398 4047 
Q 1172 3844 1172 3481 
z
" transform="scale(0.015625)"/>
       </defs>
       <use xlink:href="#DejaVuSans-30"/>
       <use xlink:href="#DejaVuSans-2e" x="63.623047"/>
       <use xlink:href="#DejaVuSans-38" x="95.410156"/>
      </g>
     </g>
    </g>
    <g id="xtick_6">
     <g id="line2d_6">
      <g>
       <use xlink:href="#md9cd4b565b" x="298.644063" y="307.584" style="stroke: #000000; stroke-width: 0.8"/>
      </g>
     </g>
     <g id="text_6">
      <!-- 1.0 -->
      <g transform="translate(290.6925 322.182437) scale(0.1 -0.1)">
       <defs>
        <path id="DejaVuSans-31" d="M 794 531 
L 1825 531 
L 1825 4091 
L 703 3866 
L 703 4441 
L 1819 4666 
L 2450 4666 
L 2450 531 
L 3481 531 
L 3481 0 
L 794 0 
L 794 531 
z
" transform="scale(0.015625)"/>
       </defs>
       <use xlink:href="#DejaVuSans-31"/>
       <use xlink:href="#DejaVuSans-2e" x="63.623047"/>
       <use xlink:href="#DejaVuSans-30" x="95.410156"/>
      </g>
     </g>
    </g>
    <g id="xtick_7">
     <g id="line2d_7">
      <g>
       <use xlink:href="#md9cd4b565b" x="343.60633" y="307.584" style="stroke: #000000; stroke-width: 0.8"/>
      </g>
     </g>
     <g id="text_7">
      <!-- 1.2 -->
      <g transform="translate(335.654767 322.182437) scale(0.1 -0.1)">
       <use xlink:href="#DejaVuSans-31"/>
       <use xlink:href="#DejaVuSans-2e" x="63.623047"/>
       <use xlink:href="#DejaVuSans-32" x="95.410156"/>
      </g>
     </g>
    </g>
    <g id="xtick_8">
     <g id="line2d_8">
      <g>
       <use xlink:href="#md9cd4b565b" x="388.568597" y="307.584" style="stroke: #000000; stroke-width: 0.8"/>
      </g>
     </g>
     <g id="text_8">
      <!-- 1.4 -->
      <g transform="translate(380.617034 322.182437) scale(0.1 -0.1)">
       <use xlink:href="#DejaVuSans-31"/>
       <use xlink:href="#DejaVuSans-2e" x="63.623047"/>
       <use xlink:href="#DejaVuSans-34" x="95.410156"/>
      </g>
     </g>
    </g>
    <g id="text_9">
     <!-- 1e6 -->
     <g transform="translate(395.841875 334.860562) scale(0.1 -0.1)">
      <defs>
       <path id="DejaVuSans-65" d="M 3597 1894 
L 3597 1613 
L 953 1613 
Q 991 1019 1311 708 
Q 1631 397 2203 397 
Q 2534 397 2845 478 
Q 3156 559 3463 722 
L 3463 178 
Q 3153 47 2828 -22 
Q 2503 -91 2169 -91 
Q 1331 -91 842 396 
Q 353 884 353 1716 
Q 353 2575 817 3079 
Q 1281 3584 2069 3584 
Q 2775 3584 3186 3129 
Q 3597 2675 3597 1894 
z
M 3022 2063 
Q 3016 2534 2758 2815 
Q 2500 3097 2075 3097 
Q 1594 3097 1305 2825 
Q 1016 2553 972 2059 
L 3022 2063 
z
" transform="scale(0.015625)"/>
      </defs>
      <use xlink:href="#DejaVuSans-31"/>
      <use xlink:href="#DejaVuSans-65" x="63.623047"/>
      <use xlink:href="#DejaVuSans-36" x="125.146484"/>
     </g>
    </g>
   </g>
   <g id="matplotlib.axis_2">
    <g id="ytick_1">
     <g id="line2d_9">
      <defs>
       <path id="m23be4fead9" d="M 0 0 
L -3.5 0 
" style="stroke: #000000; stroke-width: 0.8"/>
      </defs>
      <g>
       <use xlink:href="#m23be4fead9" x="57.6" y="295.488" style="stroke: #000000; stroke-width: 0.8"/>
      </g>
     </g>
     <g id="text_10">
      <!-- 0.0 -->
      <g transform="translate(34.696875 299.287219) scale(0.1 -0.1)">
       <use xlink:href="#DejaVuSans-30"/>
       <use xlink:href="#DejaVuSans-2e" x="63.623047"/>
       <use xlink:href="#DejaVuSans-30" x="95.410156"/>
      </g>
     </g>
    </g>
    <g id="ytick_2">
     <g id="line2d_10">
      <g>
       <use xlink:href="#m23be4fead9" x="57.6" y="247.104" style="stroke: #000000; stroke-width: 0.8"/>
      </g>
     </g>
     <g id="text_11">
      <!-- 0.2 -->
      <g transform="translate(34.696875 250.903219) scale(0.1 -0.1)">
       <use xlink:href="#DejaVuSans-30"/>
       <use xlink:href="#DejaVuSans-2e" x="63.623047"/>
       <use xlink:href="#DejaVuSans-32" x="95.410156"/>
      </g>
     </g>
    </g>
    <g id="ytick_3">
     <g id="line2d_11">
      <g>
       <use xlink:href="#m23be4fead9" x="57.6" y="198.72" style="stroke: #000000; stroke-width: 0.8"/>
      </g>
     </g>
     <g id="text_12">
      <!-- 0.4 -->
      <g transform="translate(34.696875 202.519219) scale(0.1 -0.1)">
       <use xlink:href="#DejaVuSans-30"/>
       <use xlink:href="#DejaVuSans-2e" x="63.623047"/>
       <use xlink:href="#DejaVuSans-34" x="95.410156"/>
      </g>
     </g>
    </g>
    <g id="ytick_4">
     <g id="line2d_12">
      <g>
       <use xlink:href="#m23be4fead9" x="57.6" y="150.336" style="stroke: #000000; stroke-width: 0.8"/>
      </g>
     </g>
     <g id="text_13">
      <!-- 0.6 -->
      <g transform="translate(34.696875 154.135219) scale(0.1 -0.1)">
       <use xlink:href="#DejaVuSans-30"/>
       <use xlink:href="#DejaVuSans-2e" x="63.623047"/>
       <use xlink:href="#DejaVuSans-36" x="95.410156"/>
      </g>
     </g>
    </g>
    <g id="ytick_5">
     <g id="line2d_13">
      <g>
       <use xlink:href="#m23be4fead9" x="57.6" y="101.952" style="stroke: #000000; stroke-width: 0.8"/>
      </g>
     </g>
     <g id="text_14">
      <!-- 0.8 -->
      <g transform="translate(34.696875 105.751219) scale(0.1 -0.1)">
       <use xlink:href="#DejaVuSans-30"/>
       <use xlink:href="#DejaVuSans-2e" x="63.623047"/>
       <use xlink:href="#DejaVuSans-38" x="95.410156"/>
      </g>
     </g>
    </g>
    <g id="ytick_6">
     <g id="line2d_14">
      <g>
       <use xlink:href="#m23be4fead9" x="57.6" y="53.568" style="stroke: #000000; stroke-width: 0.8"/>
      </g>
     </g>
     <g id="text_15">
      <!-- 1.0 -->
      <g transform="translate(34.696875 57.367219) scale(0.1 -0.1)">
       <use xlink:href="#DejaVuSans-31"/>
       <use xlink:href="#DejaVuSans-2e" x="63.623047"/>
       <use xlink:href="#DejaVuSans-30" x="95.410156"/>
      </g>
     </g>
    </g>
   </g>
   <g id="line2d_15">
    <path d="M 73.832727 295.488 
L 106.446108 295.488 
L 106.446108 295.085471 
L 106.733866 295.085471 
L 106.733866 294.682942 
L 107.230699 294.682942 
L 107.230699 294.280413 
L 107.534195 294.280413 
L 107.534195 293.877884 
L 108.00405 293.877884 
L 108.00405 293.475354 
L 108.32553 293.475354 
L 108.32553 293.072825 
L 108.781897 293.072825 
L 108.781897 292.670296 
L 109.110122 292.670296 
L 109.110122 292.267767 
L 109.559745 292.267767 
L 109.559745 291.865238 
L 109.903706 291.865238 
L 109.903706 291.462709 
L 110.353329 291.462709 
L 110.353329 291.06018 
L 110.708531 291.06018 
L 110.708531 290.657651 
L 111.135672 290.657651 
L 111.135672 290.255121 
L 111.511107 290.255121 
L 111.511107 289.852592 
L 111.931504 289.852592 
L 111.931504 289.450063 
L 112.286706 289.450063 
L 112.286706 289.047534 
L 112.716096 289.047534 
L 112.716096 288.645005 
L 113.060057 288.645005 
L 113.060057 288.242476 
L 113.493943 288.242476 
L 113.493943 287.839947 
L 113.835656 287.839947 
L 113.835656 287.437418 
L 114.287527 287.437418 
L 114.287527 287.034889 
L 114.624744 287.034889 
L 114.624744 286.632359 
L 115.054134 286.632359 
L 115.054134 286.22983 
L 115.402591 286.22983 
L 115.402591 285.827301 
L 115.834229 285.827301 
L 115.834229 285.424772 
L 116.182687 285.424772 
L 116.182687 285.022243 
L 116.625565 285.022243 
L 116.625565 284.619714 
L 116.980767 284.619714 
L 116.980767 284.217185 
L 117.416901 284.217185 
L 117.416901 283.814656 
L 117.783343 283.814656 
L 117.783343 283.412126 
L 118.190252 283.412126 
L 118.190252 283.009597 
L 118.583672 283.009597 
L 118.583672 282.607068 
L 118.974843 282.607068 
L 118.974843 282.204539 
L 119.381752 282.204539 
L 119.381752 281.80201 
L 119.770676 281.80201 
L 119.770676 281.399481 
L 120.173088 281.399481 
L 120.173088 280.996952 
L 120.557515 280.996952 
L 120.557515 280.594423 
L 120.971168 280.594423 
L 120.971168 280.191894 
L 121.346603 280.191894 
L 121.346603 279.789364 
L 121.767 279.789364 
L 121.767 279.386835 
L 122.133443 279.386835 
L 122.133443 278.984306 
L 122.556088 278.984306 
L 122.556088 278.581777 
L 122.92253 278.581777 
L 122.92253 278.179248 
L 123.338431 278.179248 
L 123.338431 277.776719 
L 123.704874 277.776719 
L 123.704874 277.37419 
L 124.491714 277.37419 
L 124.491714 276.971661 
L 124.898622 276.971661 
L 124.898622 276.569131 
L 125.276305 276.569131 
L 125.276305 276.166602 
L 125.683214 276.166602 
L 125.683214 275.764073 
L 126.049656 275.764073 
L 126.049656 275.361544 
L 126.461061 275.361544 
L 126.461061 274.959015 
L 126.595948 274.959015 
L 126.595948 274.556486 
L 126.832 274.556486 
L 126.832 274.153957 
L 127.234412 274.153957 
L 127.234412 273.751428 
L 127.380539 273.751428 
L 127.380539 273.348899 
L 127.623335 273.348899 
L 127.623335 272.946369 
L 127.908846 272.946369 
L 128.019003 272.141311 
L 128.162883 272.141311 
L 128.162883 271.738782 
L 128.369709 271.738782 
L 128.421416 270.933724 
L 128.805843 270.933724 
L 128.817084 270.128666 
L 128.963211 270.128666 
L 128.963211 269.726136 
L 129.208255 269.726136 
L 129.257714 268.921078 
L 129.606171 268.921078 
L 129.709585 268.11602 
L 129.72757 268.11602 
L 129.72757 267.713491 
L 129.990599 267.713491 
L 129.990599 267.310962 
L 130.1682 267.310962 
L 130.1682 266.908433 
L 130.4065 266.908433 
L 130.4065 266.505903 
L 130.53689 266.505903 
L 130.606582 265.700845 
L 130.790927 265.700845 
L 130.790927 265.298316 
L 131.044964 265.298316 
L 131.044964 264.895787 
L 131.32373 264.895787 
L 131.32373 264.493258 
L 131.492339 264.493258 
L 131.589007 263.6882 
L 131.944209 263.6882 
L 131.99142 262.883141 
L 132.11057 262.883141 
L 132.11057 262.480612 
L 132.393832 262.480612 
L 132.393832 261.675554 
L 132.393832 261.675554 
L 132.782756 261.675554 
L 132.845703 260.870496 
L 132.906402 260.870496 
L 132.906402 260.467967 
L 133.196408 260.467967 
L 133.288581 259.662908 
L 133.574092 259.662908 
L 133.574092 259.260379 
L 133.702234 259.260379 
L 133.731459 258.455321 
L 133.965263 258.455321 
L 133.965263 258.052792 
L 134.178834 258.052792 
L 134.178834 257.650263 
L 134.372172 257.650263 
L 134.372172 257.247734 
L 134.49357 257.247734 
L 134.49357 256.845205 
L 134.630705 256.845205 
L 134.630705 256.442676 
L 135.073583 256.442676 
L 135.152267 255.637617 
L 135.293898 255.637617 
L 135.293898 255.235088 
L 135.51871 255.235088 
L 135.536694 254.43003 
L 135.939107 254.43003 
L 135.979573 253.624972 
L 136.076242 253.624972 
L 136.076242 253.222443 
L 136.321286 253.222443 
L 136.321286 252.819913 
L 136.438188 252.819913 
L 136.438188 252.417384 
L 136.719202 252.417384 
L 136.719202 252.014855 
L 136.865329 252.014855 
L 136.887811 251.209797 
L 137.101381 251.209797 
L 137.101381 250.807268 
L 137.323945 250.807268 
L 137.332937 250.00221 
L 137.512786 250.00221 
L 137.512786 249.599681 
L 137.656665 249.599681 
L 137.656665 249.197151 
L 137.789304 249.197151 
L 137.881477 247.989564 
L 138.245671 247.989564 
L 138.315363 247.184506 
L 138.434513 247.184506 
L 138.445753 246.379448 
L 138.670564 246.379448 
L 138.69979 245.574389 
L 139.005533 245.574389 
L 139.084217 244.769331 
L 139.149413 244.769331 
L 139.207864 243.964273 
L 139.4619 243.964273 
L 139.4619 243.561744 
L 139.574306 243.561744 
L 139.661982 242.354156 
L 139.882298 242.354156 
L 139.987959 241.549098 
L 140.035169 241.549098 
L 140.140831 240.74404 
L 140.241996 240.74404 
L 140.241996 240.341511 
L 140.428589 240.341511 
L 140.478048 239.536453 
L 140.675882 239.536453 
L 140.698363 238.731394 
L 140.938911 238.731394 
L 141.03558 237.926336 
L 141.240158 237.926336 
L 141.262639 237.121278 
L 141.388534 237.121278 
L 141.388534 236.718749 
L 141.820171 236.718749 
L 141.849397 235.511161 
L 142.029246 235.511161 
L 142.029246 235.108632 
L 142.247313 235.108632 
L 142.292275 234.303574 
L 142.386696 234.303574 
L 142.386696 233.901045 
L 142.604763 233.901045 
L 142.604763 233.498516 
L 142.737402 233.498516 
L 142.798101 232.693458 
L 142.946476 232.693458 
L 143.020664 231.888399 
L 143.200513 231.888399 
L 143.200513 231.48587 
L 143.384858 231.48587 
L 143.384858 231.083341 
L 143.50176 231.083341 
L 143.571452 230.278283 
L 143.647887 230.278283 
L 143.647887 229.875754 
L 143.807503 229.875754 
L 143.807503 229.473225 
L 144.057044 229.473225 
L 144.095262 228.668166 
L 144.178442 228.668166 
L 144.178442 228.265637 
L 144.351547 228.265637 
L 144.351547 227.863108 
L 144.549381 227.863108 
L 144.623569 226.655521 
L 144.999004 226.655521 
L 144.999004 226.252992 
L 145.145131 226.252992 
L 145.172108 225.447933 
L 145.40816 225.447933 
L 145.453122 224.642875 
L 145.747625 224.642875 
L 145.747625 224.240346 
L 145.898249 224.240346 
L 145.911738 223.435288 
L 146.20624 223.435288 
L 146.298413 222.63023 
L 146.35012 222.63023 
L 146.35012 222.2277 
L 146.678344 222.2277 
L 146.678344 221.825171 
L 146.797494 221.825171 
L 146.864938 221.020113 
L 147.004321 221.020113 
L 147.004321 220.617584 
L 147.253861 220.617584 
L 147.253861 220.215055 
L 147.429214 220.215055 
L 147.476424 219.409997 
L 147.710228 219.409997 
L 147.804649 218.604938 
L 147.997987 218.604938 
L 147.997987 218.202409 
L 148.166595 218.202409 
L 148.270008 217.397351 
L 148.564511 217.397351 
L 148.618466 216.189764 
L 149.056848 216.189764 
L 149.12654 214.982176 
L 149.362592 214.982176 
L 149.362592 214.579647 
L 149.504223 214.579647 
L 149.504223 214.177118 
L 149.690816 214.177118 
L 149.690816 213.774589 
L 149.848184 213.774589 
L 149.953845 212.969531 
L 150.153927 212.969531 
L 150.257341 212.164473 
L 150.396724 212.164473 
L 150.396724 211.761943 
L 150.617039 211.761943 
L 150.617039 211.359414 
L 150.814873 211.359414 
L 150.92503 210.151827 
L 151.293721 210.151827 
L 151.392638 209.346769 
L 151.417367 209.346769 
L 151.417367 208.94424 
L 151.714118 208.94424 
L 151.741096 208.139181 
L 151.954666 208.139181 
L 151.954666 207.736652 
L 152.183974 207.736652 
L 152.190718 206.931594 
L 152.503206 206.931594 
L 152.527935 206.126536 
L 152.624604 206.126536 
L 152.624604 205.724007 
L 152.966317 205.724007 
L 153.065234 204.918948 
L 153.103452 204.918948 
L 153.103452 204.516419 
L 153.294542 204.516419 
L 153.294542 204.11389 
L 153.519353 204.11389 
L 153.519353 203.711361 
L 153.759901 203.711361 
L 153.759901 203.308832 
L 153.971224 203.308832 
L 153.971224 202.906303 
L 154.088126 202.906303 
L 154.088126 202.503774 
L 154.429839 202.503774 
L 154.429839 202.101245 
L 154.557982 202.101245 
L 154.557982 201.698715 
L 154.872717 201.698715 
L 154.879462 200.893657 
L 155.320092 200.893657 
L 155.324588 200.088599 
L 155.64382 200.088599 
L 155.64382 199.68607 
L 155.76297 199.68607 
L 155.76297 199.283541 
L 156.205849 199.283541 
L 156.205849 198.881012 
L 156.428412 198.881012 
L 156.428412 198.478483 
L 156.662216 198.478483 
L 156.662216 198.075953 
L 157.107342 198.075953 
L 157.215252 197.270895 
L 157.563709 197.270895 
L 157.563709 196.868366 
L 158.006587 196.868366 
L 158.020076 196.063308 
L 158.476443 196.063308 
L 158.476443 195.660779 
L 158.786683 195.660779 
L 158.786683 195.25825 
L 159.377937 195.25825 
L 159.377937 194.85572 
L 159.587011 194.85572 
L 159.587011 194.453191 
L 159.829807 194.453191 
L 159.829807 194.050662 
L 160.270438 194.050662 
L 160.371603 193.245604 
L 160.729053 193.245604 
L 160.729053 192.843075 
L 161.628298 192.843075 
L 161.628298 192.440546 
L 162.082417 192.440546 
L 162.082417 192.038017 
L 162.239785 192.038017 
L 162.239785 191.635488 
L 162.53204 191.635488 
L 162.53204 191.232958 
L 162.974918 191.232958 
L 163.026625 190.4279 
L 163.224459 190.4279 
L 163.224459 190.025371 
L 163.422292 190.025371 
L 163.422292 189.622842 
L 163.808968 189.622842 
L 163.878659 188.817784 
L 164.027035 188.817784 
L 164.027035 188.415255 
L 164.31929 188.415255 
L 164.332778 187.610196 
L 164.602552 187.610196 
L 164.602552 187.207667 
L 164.780153 187.207667 
L 164.876822 186.00008 
L 165.232024 186.00008 
L 165.232024 185.597551 
L 165.378151 185.597551 
L 165.445594 184.792493 
L 165.589474 184.792493 
L 165.681646 183.987434 
L 165.994134 183.987434 
L 165.994134 183.584905 
L 166.138013 183.584905 
L 166.164991 182.779847 
L 166.365073 182.779847 
L 166.365073 182.377318 
L 166.565155 182.377318 
L 166.601125 181.57226 
L 166.933846 181.57226 
L 166.933846 181.16973 
L 167.048499 181.16973 
L 167.151913 179.962143 
L 167.486881 179.962143 
L 167.486881 179.559614 
L 167.671227 179.559614 
L 167.671227 179.157085 
L 167.934256 179.157085 
L 167.945497 178.352027 
L 168.228759 178.352027 
L 168.228759 177.949498 
L 168.377134 177.949498 
L 168.377134 177.546968 
L 168.716599 177.546968 
L 168.822261 176.339381 
L 169.271883 176.339381 
L 169.339327 175.534323 
L 169.516928 175.534323 
L 169.516928 175.131794 
L 169.732747 175.131794 
L 169.732747 174.729265 
L 169.9081 174.729265 
L 169.9081 174.326735 
L 170.180121 174.326735 
L 170.285783 173.521677 
L 170.46788 173.521677 
L 170.46788 173.119148 
L 170.629744 173.119148 
L 170.629744 172.716619 
L 171.020916 172.716619 
L 171.072622 171.509032 
L 171.517749 171.509032 
L 171.578448 170.703973 
L 171.854966 170.703973 
L 171.956131 169.898915 
L 172.140476 169.898915 
L 172.140476 169.496386 
L 172.405753 169.496386 
L 172.405753 169.093857 
L 172.653046 169.093857 
L 172.713745 168.288799 
L 172.857624 168.288799 
L 172.857624 167.88627 
L 173.264533 167.88627 
L 173.298254 167.081211 
L 173.433141 167.081211 
L 173.433141 166.678682 
L 173.752373 166.678682 
L 173.833305 165.873624 
L 173.981681 165.873624 
L 173.981681 165.471095 
L 174.206492 165.471095 
L 174.219981 164.666037 
L 174.393086 164.666037 
L 174.393086 164.263507 
L 174.642626 164.263507 
L 174.642626 163.860978 
L 174.766272 163.860978 
L 174.766272 163.458449 
L 174.993332 163.458449 
L 175.085505 162.653391 
L 175.528383 162.653391 
L 175.55536 161.848333 
L 175.768931 161.848333 
L 175.768931 161.445804 
L 175.980254 161.445804 
L 175.980254 161.043275 
L 176.357937 161.043275 
L 176.42538 160.238216 
L 176.562515 160.238216 
L 176.562515 159.835687 
L 176.872755 159.835687 
L 176.872755 159.433158 
L 177.322377 159.433158 
L 177.369588 158.6281 
L 178.158676 158.6281 
L 178.158676 158.225571 
L 178.941019 158.225571 
L 178.941019 157.823042 
L 179.736851 157.823042 
L 179.736851 157.420512 
L 180.537179 157.420512 
L 180.537179 157.017983 
L 181.31053 157.017983 
L 181.31053 156.615454 
L 181.800619 156.615454 
L 181.800619 156.212925 
L 182.083881 156.212925 
L 182.083881 155.810396 
L 182.25249 155.810396 
L 182.25249 155.407867 
L 182.699864 155.407867 
L 182.699864 155.005338 
L 182.850488 155.005338 
L 182.850488 154.602809 
L 183.149487 154.602809 
L 183.149487 154.20028 
L 183.590117 154.20028 
L 183.632832 153.395221 
L 184.415175 153.395221 
L 184.415175 152.992692 
L 185.051391 152.992692 
L 185.051391 152.590163 
L 185.199767 152.590163 
L 185.199767 152.187634 
L 185.847223 152.187634 
L 185.847223 151.785105 
L 185.995599 151.785105 
L 185.995599 151.382576 
L 186.636311 151.382576 
L 186.636311 150.980047 
L 186.793679 150.980047 
L 186.793679 150.577517 
L 187.348963 150.577517 
L 187.423151 149.772459 
L 187.585015 149.772459 
L 187.585015 149.36993 
L 187.919984 149.36993 
L 187.919984 148.967401 
L 188.216735 148.967401 
L 188.216735 148.564872 
L 188.376351 148.564872 
L 188.477516 147.759814 
L 189.014815 147.759814 
L 189.023807 146.954755 
L 189.154198 146.954755 
L 189.154198 146.552226 
L 189.579091 146.552226 
L 189.579091 146.149697 
L 189.79491 146.149697 
L 189.79491 145.747168 
L 189.95003 145.747168 
L 189.95003 145.344639 
L 190.147864 145.344639 
L 190.147864 144.94211 
L 190.577254 144.94211 
L 190.577254 144.539581 
L 190.718885 144.539581 
L 190.725629 143.734522 
L 191.267424 143.734522 
L 191.361845 142.929464 
L 191.523709 142.929464 
L 191.523709 142.526935 
L 192.159925 142.526935 
L 192.159925 142.124406 
L 192.29706 142.124406 
L 192.29706 141.721877 
L 192.944517 141.721877 
L 192.966998 140.916819 
L 193.088396 140.916819 
L 193.088396 140.51429 
L 193.416621 140.51429 
L 193.416621 140.11176 
L 193.72686 140.11176 
L 193.72686 139.709231 
L 193.87074 139.709231 
L 193.899965 138.904173 
L 194.309122 138.904173 
L 194.309122 138.501644 
L 194.5137 138.501644 
L 194.5137 138.099115 
L 194.682309 138.099115 
L 194.763241 137.294057 
L 195.210615 137.294057 
L 195.210615 136.891527 
L 195.478141 136.891527 
L 195.478141 136.488998 
L 195.65799 136.488998 
L 195.65799 136.086469 
L 196.109861 136.086469 
L 196.109861 135.68394 
L 196.267229 135.68394 
L 196.267229 135.281411 
L 196.552739 135.281411 
L 196.552739 134.878882 
L 197.009106 134.878882 
L 197.045076 134.073824 
L 197.467721 134.073824 
L 197.467721 133.671295 
L 197.813931 133.671295 
L 197.92184 132.866236 
L 198.369215 132.866236 
L 198.369215 132.463707 
L 198.58953 132.463707 
L 198.58953 132.061178 
L 198.807597 132.061178 
L 198.807597 131.658649 
L 199.257219 131.658649 
L 199.257219 131.25612 
L 199.383114 131.25612 
L 199.383114 130.853591 
L 199.706842 130.853591 
L 199.706842 130.451062 
L 200.142976 130.451062 
L 200.17445 129.646003 
L 200.275615 129.646003 
L 200.275615 129.243474 
L 200.594847 129.243474 
L 200.594847 128.840945 
L 200.837643 128.840945 
L 200.837643 128.438416 
L 200.952297 128.438416 
L 201.046718 127.633358 
L 201.395175 127.633358 
L 201.505333 126.8283 
L 201.948211 126.8283 
L 201.948211 126.023241 
L 201.948211 126.023241 
L 202.393337 126.023241 
L 202.393337 125.620712 
L 202.519232 125.620712 
L 202.519232 125.218183 
L 202.847456 125.218183 
L 202.847456 124.815654 
L 203.085756 124.815654 
L 203.085756 124.413125 
L 203.299327 124.413125 
L 203.299327 124.010596 
L 203.654529 124.010596 
L 203.654529 123.608067 
L 204.207565 123.608067 
L 204.207565 123.205537 
L 204.769593 123.205537 
L 204.769593 122.803008 
L 205.34511 122.803008 
L 205.34511 122.400479 
L 205.900394 122.400479 
L 205.900394 121.99795 
L 206.478159 121.99795 
L 206.478159 121.595421 
L 207.040188 121.595421 
L 207.040188 121.192892 
L 207.593224 121.192892 
L 207.593224 120.790363 
L 208.155252 120.790363 
L 208.155252 120.387834 
L 208.724025 120.387834 
L 208.724025 119.985304 
L 214.335316 119.985304 
L 214.335316 119.582775 
L 214.879359 119.582775 
L 214.879359 119.180246 
L 215.110915 119.180246 
L 215.110915 118.777717 
L 215.441387 118.777717 
L 215.441387 118.375188 
L 215.556041 118.375188 
L 215.556041 117.972659 
L 215.989927 117.972659 
L 216.005664 117.167601 
L 216.459783 117.167601 
L 216.560948 116.362542 
L 216.907157 116.362542 
L 216.907157 115.960013 
L 217.113984 115.960013 
L 217.113984 115.557484 
L 217.347787 115.557484 
L 217.347787 115.154955 
L 217.792914 115.154955 
L 217.792914 114.752426 
L 218.251529 114.752426 
L 218.251529 114.349897 
L 218.701152 114.349897 
L 218.701152 113.947368 
L 219.146278 113.947368 
L 219.146278 113.544839 
L 219.595901 113.544839 
L 219.595901 113.142309 
L 220.041027 113.142309 
L 220.041027 112.73978 
L 220.492898 112.73978 
L 220.492898 112.337251 
L 220.940273 112.337251 
L 220.940273 111.934722 
L 221.387647 111.934722 
L 221.387647 111.532193 
L 221.823781 111.532193 
L 221.823781 111.129664 
L 222.275652 111.129664 
L 222.275652 110.727135 
L 222.732019 110.727135 
L 222.732019 110.324606 
L 223.179394 110.324606 
L 223.179394 109.922077 
L 223.640257 109.922077 
L 223.640257 109.519547 
L 224.096624 109.519547 
L 224.096624 109.117018 
L 224.543998 109.117018 
L 224.543998 108.714489 
L 224.991373 108.714489 
L 224.991373 108.31196 
L 225.454484 108.31196 
L 225.454484 107.909431 
L 225.906355 107.909431 
L 225.906355 107.506902 
L 226.360474 107.506902 
L 226.360474 107.104373 
L 226.801104 107.104373 
L 226.801104 106.701844 
L 227.252975 106.701844 
L 227.252975 106.299314 
L 227.693605 106.299314 
L 227.693605 105.896785 
L 228.154468 105.896785 
L 228.154468 105.494256 
L 228.606339 105.494256 
L 228.606339 105.091727 
L 229.05821 105.091727 
L 229.05821 104.689198 
L 229.501088 104.689198 
L 229.501088 104.286669 
L 229.952959 104.286669 
L 229.952959 103.88414 
L 230.391341 103.88414 
L 230.391341 103.481611 
L 230.834219 103.481611 
L 230.834219 103.079082 
L 231.290586 103.079082 
L 231.290586 102.676552 
L 231.746953 102.676552 
L 231.746953 102.274023 
L 232.189832 102.274023 
L 232.189832 101.871494 
L 232.646199 101.871494 
L 232.646199 101.468965 
L 233.09807 101.468965 
L 233.09807 101.066436 
L 233.547692 101.066436 
L 233.547692 100.663907 
L 233.997315 100.663907 
L 233.997315 100.261378 
L 234.44469 100.261378 
L 234.44469 99.858849 
L 234.894312 99.858849 
L 234.894312 99.456319 
L 235.346183 99.456319 
L 235.346183 99.05379 
L 235.786813 99.05379 
L 235.786813 98.651261 
L 236.240932 98.651261 
L 236.240932 98.248732 
L 236.695051 98.248732 
L 236.695051 97.846203 
L 237.155914 97.846203 
L 237.155914 97.443674 
L 237.607785 97.443674 
L 237.607785 97.041145 
L 238.057408 97.041145 
L 238.057408 96.638616 
L 238.500286 96.638616 
L 238.500286 96.236087 
L 238.947661 96.236087 
L 239.042081 95.431028 
L 239.397283 95.431028 
L 239.397283 95.028499 
L 239.597365 95.028499 
L 239.597365 94.62597 
L 239.846906 94.62597 
L 239.846906 94.223441 
L 240.166138 94.223441 
L 240.166138 93.820912 
L 240.292032 93.820912 
L 240.292032 93.418383 
L 240.737159 93.418383 
L 240.737159 92.613324 
L 240.737159 92.613324 
L 241.292443 92.613324 
L 241.292443 92.210795 
L 241.852223 92.210795 
L 241.852223 91.808266 
L 242.407507 91.808266 
L 242.407507 91.405737 
L 242.549138 91.405737 
L 242.549138 91.003208 
L 242.971783 91.003208 
L 242.994265 90.19815 
L 243.439391 90.19815 
L 243.527067 89.393092 
L 243.886766 89.393092 
L 243.886766 88.990562 
L 244.086848 88.990562 
L 244.086848 88.588033 
L 244.33414 88.588033 
L 244.33414 88.185504 
L 244.646628 88.185504 
L 244.646628 87.782975 
L 244.786011 87.782975 
L 244.786011 87.380446 
L 245.206408 87.380446 
L 245.233385 86.575388 
L 245.678512 86.575388 
L 245.772933 85.770329 
L 246.125886 85.770329 
L 246.125886 85.3678 
L 246.330465 85.3678 
L 246.330465 84.965271 
L 246.575509 84.965271 
L 246.575509 84.562742 
L 247.018387 84.562742 
L 247.018387 84.160213 
L 247.470258 84.160213 
L 247.470258 83.757684 
L 247.919881 83.757684 
L 247.919881 83.355155 
L 248.367256 83.355155 
L 248.367256 82.952626 
L 248.821374 82.952626 
L 248.821374 82.550097 
L 249.275493 82.550097 
L 249.275493 82.147567 
L 249.718372 82.147567 
L 249.718372 81.745038 
L 250.167994 81.745038 
L 250.167994 81.342509 
L 250.610873 81.342509 
L 250.610873 80.93998 
L 251.060495 80.93998 
L 251.060495 80.537451 
L 251.516862 80.537451 
L 251.516862 80.134922 
L 251.964237 80.134922 
L 251.964237 79.732393 
L 252.407115 79.732393 
L 252.407115 79.329864 
L 254.758642 79.329864 
L 254.758642 78.927334 
L 255.325166 78.927334 
L 255.325166 78.524805 
L 255.882698 78.524805 
L 255.882698 78.122276 
L 256.446975 78.122276 
L 256.446975 77.719747 
L 257.006755 77.719747 
L 257.006755 77.317218 
L 257.577776 77.317218 
L 257.577776 76.914689 
L 258.130812 76.914689 
L 258.130812 76.51216 
L 258.701833 76.51216 
L 258.701833 76.109631 
L 259.266109 76.109631 
L 259.266109 75.707101 
L 259.841626 75.707101 
L 259.841626 75.304572 
L 260.394662 75.304572 
L 260.394662 74.902043 
L 260.943202 74.902043 
L 260.943202 74.499514 
L 261.370343 74.499514 
L 261.370343 74.096985 
L 261.511974 74.096985 
L 261.511974 73.694456 
L 261.810973 73.694456 
L 261.810973 73.291927 
L 262.085243 73.291927 
L 262.085243 72.889398 
L 262.258348 72.889398 
L 262.258348 72.486869 
L 262.656264 72.486869 
L 262.705722 71.68181 
L 263.148601 71.68181 
L 263.22054 70.876752 
L 263.600472 70.876752 
L 263.600472 70.474223 
L 264.056839 70.474223 
L 264.056839 70.071694 
L 264.510957 70.071694 
L 264.510957 69.669165 
L 264.94934 69.669165 
L 264.94934 69.266636 
L 265.394466 69.266636 
L 265.394466 68.864106 
L 265.835096 68.864106 
L 265.835096 68.461577 
L 266.286967 68.461577 
L 266.286967 68.059048 
L 266.73659 68.059048 
L 266.73659 67.656519 
L 267.18846 67.656519 
L 267.18846 67.25399 
L 267.640331 67.25399 
L 267.640331 66.851461 
L 268.085458 66.851461 
L 268.085458 66.448932 
L 274.841038 66.448932 
L 274.841038 66.046403 
L 275.292909 66.046403 
L 275.292909 65.643874 
L 275.747028 65.643874 
L 275.747028 65.241344 
L 276.210139 65.241344 
L 276.210139 64.838815 
L 276.659762 64.838815 
L 276.659762 64.436286 
L 277.118377 64.436286 
L 277.118377 64.033757 
L 277.563504 64.033757 
L 277.563504 63.631228 
L 278.019871 63.631228 
L 278.019871 63.228699 
L 278.464997 63.228699 
L 278.464997 62.82617 
L 278.912372 62.82617 
L 278.912372 62.423641 
L 279.368739 62.423641 
L 279.368739 62.021111 
L 279.811617 62.021111 
L 279.811617 61.618582 
L 280.27248 61.618582 
L 280.27248 61.216053 
L 280.719855 61.216053 
L 280.719855 60.813524 
L 281.162733 60.813524 
L 281.162733 60.410995 
L 281.612356 60.410995 
L 281.612356 60.008466 
L 282.057482 60.008466 
L 282.057482 59.605937 
L 282.507105 59.605937 
L 282.507105 59.203408 
L 282.956728 59.203408 
L 282.956728 58.800879 
L 283.397358 58.800879 
L 283.397358 58.398349 
L 283.851477 58.398349 
L 283.851477 57.99582 
L 284.294355 57.99582 
L 284.294355 57.593291 
L 284.74173 57.593291 
L 284.74173 57.190762 
L 285.180112 57.190762 
L 285.180112 56.788233 
L 307.699463 56.788233 
L 307.699463 56.385704 
L 308.277228 56.385704 
L 308.277228 55.983175 
L 308.837008 55.983175 
L 308.837008 55.580646 
L 309.403533 55.580646 
L 309.403533 55.178116 
L 309.965561 55.178116 
L 309.965561 54.775587 
L 310.523093 54.775587 
L 310.523093 54.373058 
L 311.089618 54.373058 
L 311.089618 53.970529 
L 311.644902 53.970529 
L 311.644902 53.568 
L 311.644902 53.568 
" clip-path="url(#p3b1010db8f)" style="fill: none; stroke: #1f77b4; stroke-width: 1.5; stroke-linecap: square"/>
   </g>
   <g id="line2d_16">
    <path d="M 73.832727 295.488 
L 122.162668 295.488 
L 122.162668 295.012715 
L 122.612291 295.012715 
L 122.612291 294.53743 
L 123.064162 294.53743 
L 123.064162 294.062145 
L 123.509288 294.062145 
L 123.509288 293.586861 
L 123.961159 293.586861 
L 123.961159 293.111576 
L 124.401789 293.111576 
L 124.401789 292.636291 
L 124.846915 292.636291 
L 124.846915 292.161006 
L 125.29429 292.161006 
L 125.29429 291.685721 
L 125.743913 291.685721 
L 125.743913 291.210436 
L 126.198032 291.210436 
L 126.198032 290.735151 
L 126.654399 290.735151 
L 126.654399 290.259866 
L 127.099525 290.259866 
L 127.099525 289.784582 
L 127.551396 289.784582 
L 127.551396 289.309297 
L 128.001019 289.309297 
L 128.001019 288.834012 
L 128.46413 288.834012 
L 128.46413 288.358727 
L 128.898016 288.358727 
L 128.898016 287.883442 
L 129.347638 287.883442 
L 129.347638 287.408157 
L 129.804005 287.408157 
L 129.804005 286.932872 
L 130.244636 286.932872 
L 130.244636 286.457587 
L 130.687514 286.457587 
L 130.687514 285.982303 
L 131.146129 285.982303 
L 131.146129 285.507018 
L 131.598 285.507018 
L 131.598 285.031733 
L 132.047623 285.031733 
L 132.047623 284.556448 
L 132.492749 284.556448 
L 132.492749 284.081163 
L 132.933379 284.081163 
L 132.933379 283.605878 
L 133.383002 283.605878 
L 133.383002 283.130593 
L 133.823632 283.130593 
L 133.823632 282.655308 
L 134.275503 282.655308 
L 134.275503 282.180024 
L 134.722877 282.180024 
L 134.722877 281.704739 
L 135.179244 281.704739 
L 135.179244 281.229454 
L 135.619875 281.229454 
L 135.619875 280.754169 
L 136.069497 280.754169 
L 136.069497 280.278884 
L 136.512376 280.278884 
L 136.512376 279.803599 
L 136.964246 279.803599 
L 136.964246 279.328314 
L 137.402629 279.328314 
L 137.402629 278.853029 
L 137.841011 278.853029 
L 137.841011 278.377745 
L 138.29513 278.377745 
L 138.29513 277.90246 
L 138.749248 277.90246 
L 138.749248 277.427175 
L 139.198871 277.427175 
L 139.198871 276.95189 
L 139.643998 276.95189 
L 139.643998 276.476605 
L 140.098116 276.476605 
L 140.098116 276.00132 
L 140.543243 276.00132 
L 140.543243 275.526035 
L 140.983873 275.526035 
L 140.983873 275.05075 
L 141.435744 275.05075 
L 141.435744 274.575466 
L 141.883118 274.575466 
L 141.883118 274.100181 
L 142.339485 274.100181 
L 142.339485 273.624896 
L 142.51259 273.624896 
L 142.51259 273.149611 
L 142.784612 273.149611 
L 142.784612 272.674326 
L 143.225242 272.674326 
L 143.315167 271.723756 
L 143.686105 271.723756 
L 143.686105 271.248472 
L 144.102006 271.248472 
L 144.131232 270.297902 
L 144.571862 270.297902 
L 144.571862 269.822617 
L 144.902335 269.822617 
L 144.902335 269.347332 
L 145.028229 269.347332 
L 145.028229 268.872047 
L 145.484596 268.872047 
L 145.484596 268.396762 
L 145.695919 268.396762 
L 145.695919 267.921477 
L 145.922978 267.921477 
L 145.922978 267.446193 
L 146.377097 267.446193 
L 146.473766 266.495623 
L 146.833464 266.495623 
L 146.833464 266.020338 
L 147.265102 266.020338 
L 147.271846 265.069768 
L 147.721469 265.069768 
L 147.721469 264.594483 
L 148.047445 264.594483 
L 148.047445 264.119198 
L 148.175588 264.119198 
L 148.175588 263.643914 
L 148.631955 263.643914 
L 148.631955 263.168629 
L 148.845526 263.168629 
L 148.845526 262.693344 
L 149.070337 262.693344 
L 149.070337 262.218059 
L 149.510967 262.218059 
L 149.510967 261.742774 
L 150.419205 261.742774 
L 150.419205 261.267489 
L 151.190308 261.267489 
L 151.190308 260.792204 
L 151.979396 260.792204 
L 151.979396 260.316919 
L 152.739258 260.316919 
L 152.739258 259.841635 
L 153.523849 259.841635 
L 153.523849 259.36635 
L 154.330922 259.36635 
L 154.330922 258.891065 
L 154.787289 258.891065 
L 154.787289 258.41578 
L 155.137995 258.41578 
L 155.137995 257.940495 
L 155.580873 257.940495 
L 155.580873 257.46521 
L 156.372209 257.46521 
L 156.372209 256.989925 
L 157.170289 256.989925 
L 157.170289 256.51464 
L 157.950385 256.51464 
L 157.950385 256.039356 
L 158.723736 256.039356 
L 158.723736 255.564071 
L 159.533056 255.564071 
L 159.533056 255.088786 
L 160.310904 255.088786 
L 160.310904 254.613501 
L 161.082006 254.613501 
L 161.082006 254.138216 
L 161.882335 254.138216 
L 161.882335 253.662931 
L 162.664678 253.662931 
L 162.664678 253.187646 
L 163.458262 253.187646 
L 163.458262 252.712361 
L 164.254094 252.712361 
L 164.254094 252.237077 
L 165.036438 252.237077 
L 165.036438 251.761792 
L 165.823278 251.761792 
L 165.823278 251.286507 
L 166.607869 251.286507 
L 166.607869 250.811222 
L 167.392461 250.811222 
L 167.392461 250.335937 
L 168.163564 250.335937 
L 168.163564 249.860652 
L 168.959396 249.860652 
L 168.959396 249.385367 
L 169.761972 249.385367 
L 169.761972 248.910083 
L 170.555556 248.910083 
L 170.555556 248.434798 
L 171.328907 248.434798 
L 171.328907 247.959513 
L 172.122491 247.959513 
L 172.122491 247.484228 
L 172.88685 247.484228 
L 172.88685 247.008943 
L 173.655704 247.008943 
L 173.655704 246.533658 
L 174.44704 246.533658 
L 174.44704 246.058373 
L 175.224888 246.058373 
L 175.224888 245.583088 
L 175.98475 245.583088 
L 175.98475 245.107804 
L 176.789574 245.107804 
L 176.789574 244.632519 
L 177.585407 244.632519 
L 177.585407 244.157234 
L 178.372246 244.157234 
L 178.372246 243.681949 
L 179.152342 243.681949 
L 179.152342 243.206664 
L 179.950422 243.206664 
L 179.950422 242.731379 
L 180.726021 242.731379 
L 180.726021 242.256094 
L 181.528597 242.256094 
L 181.528597 241.780809 
L 182.319933 241.780809 
L 182.319933 241.305525 
L 183.113517 241.305525 
L 183.113517 240.83024 
L 192.211632 240.83024 
L 192.211632 240.354955 
L 192.661255 240.354955 
L 192.661255 239.87967 
L 193.101885 239.87967 
L 193.101885 239.404385 
L 193.558252 239.404385 
L 193.558252 238.9291 
L 194.007875 238.9291 
L 194.007875 238.453815 
L 194.453001 238.453815 
L 194.453001 237.97853 
L 194.911616 237.97853 
L 194.911616 237.503246 
L 195.358991 237.503246 
L 195.358991 237.027961 
L 195.806365 237.027961 
L 195.806365 236.552676 
L 196.262732 236.552676 
L 196.262732 236.077391 
L 196.716851 236.077391 
L 196.716851 235.602106 
L 197.166474 235.602106 
L 197.166474 235.126821 
L 197.6116 235.126821 
L 197.6116 234.651536 
L 198.049982 234.651536 
L 198.049982 234.176251 
L 198.499605 234.176251 
L 198.499605 233.700967 
L 198.951476 233.700967 
L 198.951476 233.225682 
L 199.405595 233.225682 
L 199.405595 232.750397 
L 199.846225 232.750397 
L 199.846225 232.275112 
L 200.302592 232.275112 
L 200.302592 231.799827 
L 200.74547 231.799827 
L 200.74547 231.324542 
L 201.190597 231.324542 
L 201.197341 230.373972 
L 201.637971 230.373972 
L 201.637971 229.898688 
L 201.966196 229.898688 
L 201.966196 229.423403 
L 202.085346 229.423403 
L 202.085346 228.948118 
L 202.728306 228.948118 
L 202.728306 228.472833 
L 203.535379 228.472833 
L 203.535379 227.997548 
L 204.317722 227.997548 
L 204.317722 227.522263 
L 205.104562 227.522263 
L 205.104562 227.046978 
L 205.884657 227.046978 
L 205.884657 226.571694 
L 206.68049 226.571694 
L 206.68049 226.096409 
L 207.453841 226.096409 
L 207.453841 225.621124 
L 208.245177 225.621124 
L 208.245177 225.145839 
L 209.045505 225.145839 
L 209.045505 224.670554 
L 209.830096 224.670554 
L 209.830096 224.195269 
L 210.605696 224.195269 
L 210.605696 223.719984 
L 211.039581 223.719984 
L 211.039581 223.244699 
L 211.385791 223.244699 
L 211.489204 222.29413 
L 211.938827 222.29413 
L 211.938827 221.818845 
L 212.170382 221.818845 
L 212.170382 221.34356 
L 212.395194 221.34356 
L 212.395194 220.868275 
L 212.858305 220.868275 
L 212.95947 219.917705 
L 213.307928 219.917705 
L 213.307928 219.44242 
L 213.735069 219.44242 
L 213.759799 218.491851 
L 214.198181 218.491851 
L 214.198181 218.016566 
L 214.542142 218.016566 
L 214.641059 217.065996 
L 215.097426 217.065996 
L 215.097426 216.590711 
L 215.326734 216.590711 
L 215.326734 216.115426 
L 221.585481 216.115426 
L 221.585481 215.640141 
L 222.376817 215.640141 
L 222.376817 215.164857 
L 223.163657 215.164857 
L 223.163657 214.689572 
L 223.943752 214.689572 
L 223.943752 214.214287 
L 224.753073 214.214287 
L 224.753073 213.739002 
L 225.537664 213.739002 
L 225.537664 213.263717 
L 227.100103 213.263717 
L 227.100103 212.788432 
L 227.880199 212.788432 
L 227.880199 212.313147 
L 228.676031 212.313147 
L 228.676031 211.837862 
L 233.857932 211.837862 
L 233.871421 210.887293 
L 234.30081 210.887293 
L 234.30081 210.412008 
L 234.442441 210.412008 
L 234.442441 209.936723 
L 235.002222 209.936723 
L 235.002222 209.461438 
L 235.186567 209.461438 
L 235.186567 208.986153 
L 235.568746 208.986153 
L 235.642934 208.035583 
L 236.094805 208.035583 
L 236.139767 207.085014 
L 236.533187 207.085014 
L 236.533187 206.609729 
L 236.704043 206.609729 
L 236.704043 206.134444 
L 236.971569 206.134444 
L 236.971569 205.659159 
L 237.275064 205.659159 
L 237.275064 205.183874 
L 237.432432 205.183874 
L 237.432432 204.708589 
L 237.841589 204.708589 
L 237.882055 203.75802 
L 238.327181 203.75802 
L 238.327181 203.282735 
L 238.7813 203.282735 
L 238.7813 202.80745 
L 239.224178 202.80745 
L 239.224178 202.332165 
L 239.664809 202.332165 
L 239.664809 201.85688 
L 240.112183 201.85688 
L 240.112183 201.381595 
L 240.555062 201.381595 
L 240.555062 200.90631 
L 241.004684 200.90631 
L 241.004684 200.431026 
L 241.445314 200.431026 
L 241.445314 199.955741 
L 241.906178 199.955741 
L 241.906178 199.480456 
L 242.349056 199.480456 
L 242.349056 199.005171 
L 242.794183 199.005171 
L 242.794183 198.529886 
L 242.917829 198.529886 
L 242.917829 198.054601 
L 243.246053 198.054601 
L 243.246053 197.579316 
L 243.48885 197.579316 
L 243.48885 197.104031 
L 243.700172 197.104031 
L 243.700172 196.628747 
L 244.039637 196.628747 
L 244.039637 196.153462 
L 244.156539 196.153462 
L 244.156539 195.678177 
L 244.603914 195.678177 
L 244.617402 194.727607 
L 245.053536 194.727607 
L 245.053536 194.252322 
L 245.16819 194.252322 
L 245.16819 193.777037 
L 245.494167 193.777037 
L 245.494167 193.301752 
L 245.739211 193.301752 
L 245.739211 192.826468 
L 246.305736 192.826468 
L 246.305736 192.351183 
L 246.852027 192.351183 
L 246.852027 191.875898 
L 247.418552 191.875898 
L 247.418552 191.400613 
L 247.973836 191.400613 
L 247.973836 190.925328 
L 248.54036 190.925328 
L 248.54036 190.450043 
L 249.10014 190.450043 
L 249.10014 189.974758 
L 249.64868 189.974758 
L 249.64868 189.499473 
L 250.203964 189.499473 
L 250.203964 189.024189 
L 250.774985 189.024189 
L 250.774985 188.548904 
L 251.346006 188.548904 
L 251.346006 188.073619 
L 251.896793 188.073619 
L 251.896793 187.598334 
L 252.452077 187.598334 
L 252.526265 186.647764 
L 253.018602 186.647764 
L 253.018602 186.172479 
L 253.328842 186.172479 
L 253.328842 185.697194 
L 253.576134 185.697194 
L 253.576134 185.22191 
L 254.102193 185.22191 
L 254.133666 184.27134 
L 254.709183 184.27134 
L 254.709183 183.796055 
L 254.882288 183.796055 
L 254.882288 183.32077 
L 255.271212 183.32077 
L 255.271212 182.845485 
L 255.675872 182.845485 
L 255.675872 182.3702 
L 255.813007 182.3702 
L 255.819751 181.419631 
L 256.253637 181.419631 
L 256.253637 180.944346 
L 256.384028 180.944346 
L 256.455967 179.993776 
L 256.705508 179.993776 
L 256.705508 179.518491 
L 256.959545 179.518491 
L 256.959545 179.043206 
L 257.14389 179.043206 
L 257.231566 178.092637 
L 257.510333 178.092637 
L 257.591265 177.142067 
L 258.018406 177.142067 
L 258.067865 175.716212 
L 258.492758 175.716212 
L 258.492758 175.240927 
L 258.625397 175.240927 
L 258.625397 174.765642 
L 258.798501 174.765642 
L 258.798501 174.290358 
L 258.942381 174.290358 
L 258.942381 173.815073 
L 259.191921 173.815073 
L 259.191921 173.339788 
L 259.392003 173.339788 
L 259.392003 172.864503 
L 259.589837 172.864503 
L 259.589837 172.389218 
L 259.758446 172.389218 
L 259.839378 171.438648 
L 260.284504 171.438648 
L 260.358692 170.012794 
L 260.731879 170.012794 
L 260.731879 169.537509 
L 261.14778 169.537509 
L 261.188246 168.586939 
L 261.442283 168.586939 
L 261.442283 168.111654 
L 261.649109 168.111654 
L 261.649109 167.636369 
L 261.916635 167.636369 
L 262.006559 166.6858 
L 262.105476 166.6858 
L 262.105476 166.210515 
L 262.550603 166.210515 
L 262.557347 165.259945 
L 262.701226 165.259945 
L 262.701226 164.78466 
L 262.997977 164.78466 
L 262.997977 164.309375 
L 263.119375 164.309375 
L 263.119375 163.83409 
L 263.443104 163.83409 
L 263.49481 162.883521 
L 263.885982 162.883521 
L 263.885982 162.408236 
L 264.270409 162.408236 
L 264.335605 161.457666 
L 264.785227 161.457666 
L 264.785227 160.982381 
L 265.052753 160.982381 
L 265.052753 160.507096 
L 265.237098 160.507096 
L 265.237098 160.031811 
L 265.697961 160.031811 
L 265.697961 159.556527 
L 265.848585 159.556527 
L 265.848585 159.081242 
L 266.154328 159.081242 
L 266.154328 158.605957 
L 266.637673 158.605957 
L 266.637673 158.130672 
L 267.327844 158.130672 
L 267.433505 157.180102 
L 267.775218 157.180102 
L 267.775218 156.704817 
L 268.215848 156.704817 
L 268.220345 155.754248 
L 268.667719 155.754248 
L 268.667719 155.278963 
L 269.00044 155.278963 
L 269.00044 154.803678 
L 269.124086 154.803678 
L 269.124086 154.328393 
L 269.580453 154.328393 
L 269.580453 153.853108 
L 269.807513 153.853108 
L 269.807513 153.377823 
L 270.021083 153.377823 
L 270.021083 152.902538 
L 270.472954 152.902538 
L 270.578615 151.951969 
L 270.920329 151.951969 
L 270.920329 151.476684 
L 271.360959 151.476684 
L 271.376696 150.526114 
L 271.819574 150.526114 
L 271.819574 150.050829 
L 272.14555 150.050829 
L 272.14555 149.575544 
L 272.278189 149.575544 
L 272.278189 149.100259 
L 272.739052 149.100259 
L 272.739052 148.624974 
L 272.927894 148.624974 
L 272.927894 148.14969 
L 273.186427 148.14969 
L 273.186427 147.674405 
L 273.642794 147.674405 
L 273.728222 146.723835 
L 274.092417 146.723835 
L 274.092417 146.24855 
L 274.506069 146.24855 
L 274.539791 145.29798 
L 274.991662 145.29798 
L 274.991662 144.822695 
L 275.30415 144.822695 
L 275.30415 144.347411 
L 275.445781 144.347411 
L 275.445781 143.872126 
L 275.897652 143.872126 
L 275.897652 143.396841 
L 276.099982 143.396841 
L 276.099982 142.921556 
L 276.342778 142.921556 
L 276.342778 142.446271 
L 276.796897 142.446271 
L 276.880077 141.495701 
L 277.24652 141.495701 
L 277.24652 141.020417 
L 277.671413 141.020417 
L 277.689398 140.069847 
L 278.143517 140.069847 
L 278.143517 139.594562 
L 278.444764 139.594562 
L 278.444764 139.119277 
L 278.586395 139.119277 
L 278.586395 138.643992 
L 279.036018 138.643992 
L 279.036018 138.168707 
L 279.227107 138.168707 
L 279.227107 137.693422 
L 279.487889 137.693422 
L 279.487889 137.218138 
L 279.937511 137.218138 
L 280.011699 136.267568 
L 280.384886 136.267568 
L 280.384886 135.792283 
L 280.83226 135.792283 
L 280.83226 135.316998 
L 281.277387 135.316998 
L 281.277387 134.841713 
L 281.57189 134.841713 
L 281.57189 134.366428 
L 281.72701 134.366428 
L 281.72701 133.891143 
L 282.174384 133.891143 
L 282.174384 133.415859 
L 282.365474 133.415859 
L 282.365474 132.940574 
L 282.624007 132.940574 
L 282.624007 132.465289 
L 283.064637 132.465289 
L 283.064637 131.990004 
L 283.516508 131.990004 
L 283.516508 131.514719 
L 283.963882 131.514719 
L 283.963882 131.039434 
L 284.426994 131.039434 
L 284.426994 130.564149 
L 284.87212 130.564149 
L 284.87212 130.088864 
L 285.323991 130.088864 
L 285.323991 129.61358 
L 285.771365 129.61358 
L 285.771365 129.138295 
L 286.21874 129.138295 
L 286.21874 128.66301 
L 286.661618 128.66301 
L 286.661618 128.187725 
L 287.1 128.187725 
L 287.1 127.71244 
L 287.73172 127.71244 
L 287.73172 127.237155 
L 288.170102 127.237155 
L 288.170102 126.76187 
L 288.619725 126.76187 
L 288.619725 126.286585 
L 289.062603 126.286585 
L 289.062603 125.811301 
L 289.516722 125.811301 
L 289.516722 125.336016 
L 289.964097 125.336016 
L 289.964097 124.860731 
L 290.404727 124.860731 
L 290.404727 124.385446 
L 290.858846 124.385446 
L 290.858846 123.910161 
L 291.319709 123.910161 
L 291.319709 123.434876 
L 291.767084 123.434876 
L 291.767084 122.959591 
L 292.225699 122.959591 
L 292.225699 122.484306 
L 292.679818 122.484306 
L 292.679818 122.009022 
L 293.131689 122.009022 
L 293.131689 121.533737 
L 293.574567 121.533737 
L 293.574567 121.058452 
L 294.017445 121.058452 
L 294.017445 120.583167 
L 294.453579 120.583167 
L 294.453579 120.107882 
L 294.909946 120.107882 
L 294.909946 119.632597 
L 295.370809 119.632597 
L 295.370809 119.157312 
L 295.818184 119.157312 
L 295.818184 118.682028 
L 296.265559 118.682028 
L 296.265559 118.206743 
L 296.717429 118.206743 
L 296.717429 117.731458 
L 297.167052 117.731458 
L 297.167052 117.256173 
L 297.612178 117.256173 
L 297.612178 116.780888 
L 298.070794 116.780888 
L 298.070794 116.305603 
L 298.520416 116.305603 
L 298.520416 115.830318 
L 298.965543 115.830318 
L 298.965543 115.355033 
L 299.419662 115.355033 
L 299.419662 114.879749 
L 299.86254 114.879749 
L 299.86254 114.404464 
L 300.318907 114.404464 
L 300.318907 113.929179 
L 300.764033 113.929179 
L 300.764033 113.453894 
L 301.224897 113.453894 
L 301.224897 112.978609 
L 301.683512 112.978609 
L 301.683512 112.503324 
L 302.137631 112.503324 
L 302.137631 112.028039 
L 302.59175 112.028039 
L 302.59175 111.552754 
L 303.04362 111.552754 
L 303.04362 111.07747 
L 303.488747 111.07747 
L 303.488747 110.602185 
L 303.938369 110.602185 
L 303.938369 110.1269 
L 304.39024 110.1269 
L 304.39024 109.651615 
L 304.844359 109.651615 
L 304.844359 109.17633 
L 305.284989 109.17633 
L 305.284989 108.701045 
L 305.727868 108.701045 
L 305.727868 108.22576 
L 306.181987 108.22576 
L 306.181987 107.750475 
L 306.631609 107.750475 
L 306.631609 107.275191 
L 307.067743 107.275191 
L 307.067743 106.799906 
L 307.517366 106.799906 
L 307.517366 106.324621 
L 307.960244 106.324621 
L 307.960244 105.849336 
L 308.416611 105.849336 
L 308.416611 105.374051 
L 308.863986 105.374051 
L 308.863986 104.898766 
L 309.318105 104.898766 
L 309.318105 104.423481 
L 309.767727 104.423481 
L 309.767727 103.948196 
L 310.210606 103.948196 
L 310.210606 103.472912 
L 310.635499 103.472912 
L 310.660228 102.522342 
L 311.112099 102.522342 
L 311.112099 102.047057 
L 311.411098 102.047057 
L 311.411098 101.571772 
L 311.552729 101.571772 
L 311.552729 101.096487 
L 311.997856 101.096487 
L 311.997856 100.621202 
L 312.197938 100.621202 
L 312.197938 100.145917 
L 312.966793 100.145917 
L 312.966793 99.670633 
L 329.492674 99.670633 
L 329.492674 99.195348 
L 330.290754 99.195348 
L 330.290754 98.720063 
L 330.544791 98.720063 
L 330.544791 98.244778 
L 331.084338 98.244778 
L 331.102323 97.294208 
L 331.650863 97.294208 
L 331.650863 96.818923 
L 331.88017 96.818923 
L 331.88017 96.343639 
L 332.203899 96.343639 
L 332.203899 95.868354 
L 332.669258 95.868354 
L 332.761431 94.917784 
L 333.314467 94.917784 
L 333.314467 94.442499 
L 333.456098 94.442499 
L 333.456098 93.967214 
L 333.883239 93.967214 
L 333.883239 93.491929 
L 334.249682 93.491929 
L 334.249682 93.016644 
L 334.456508 93.016644 
L 334.456508 92.54136 
L 335.023033 92.54136 
L 335.047762 91.59079 
L 335.582813 91.59079 
L 335.582813 91.115505 
L 335.827857 91.115505 
L 335.827857 90.64022 
L 336.147089 90.64022 
L 336.147089 90.164935 
L 336.610201 90.164935 
L 336.697877 89.214365 
L 337.262154 89.214365 
L 337.262154 88.739081 
L 337.394792 88.739081 
L 337.394792 88.263796 
L 337.833174 88.263796 
L 337.833174 87.788511 
L 338.192873 87.788511 
L 338.192873 87.313226 
L 338.388458 87.313226 
L 338.388458 86.837941 
L 338.945991 86.837941 
L 338.977464 85.887371 
L 339.510267 85.887371 
L 339.510267 85.412086 
L 339.759808 85.412086 
L 339.759808 84.936802 
L 340.074543 84.936802 
L 340.074543 84.461517 
L 340.546647 84.461517 
L 340.643316 83.510947 
L 341.209841 83.510947 
L 341.209841 83.035662 
L 341.771869 83.035662 
L 341.771869 82.560377 
L 342.340642 82.560377 
L 342.340642 82.085092 
L 342.904918 82.085092 
L 342.904918 81.609807 
L 343.455706 81.609807 
L 343.455706 81.134523 
L 344.017734 81.134523 
L 344.017734 80.659238 
L 344.579763 80.659238 
L 344.579763 80.183953 
L 345.144039 80.183953 
L 345.144039 79.708668 
L 345.703819 79.708668 
L 345.703819 79.233383 
L 346.2636 79.233383 
L 346.2636 78.758098 
L 346.821132 78.758098 
L 346.821132 78.282813 
L 347.376416 78.282813 
L 347.376416 77.807528 
L 347.927203 77.807528 
L 347.927203 77.332244 
L 348.486984 77.332244 
L 348.486984 76.856959 
L 349.04002 76.856959 
L 349.04002 76.381674 
L 349.5998 76.381674 
L 349.5998 75.906389 
L 350.152836 75.906389 
L 350.152836 75.431104 
L 350.723856 75.431104 
L 350.723856 74.955819 
L 351.285885 74.955819 
L 351.285885 74.480534 
L 351.847913 74.480534 
L 351.847913 74.00525 
L 352.407693 74.00525 
L 352.407693 73.529965 
L 352.978714 73.529965 
L 352.978714 73.05468 
L 353.529502 73.05468 
L 353.529502 72.579395 
L 354.096026 72.579395 
L 354.096026 72.10411 
L 354.664799 72.10411 
L 354.664799 71.628825 
L 355.222331 71.628825 
L 355.222331 71.15354 
L 355.777615 71.15354 
L 355.777615 70.678255 
L 356.337395 70.678255 
L 356.337395 70.202971 
L 356.894928 70.202971 
L 356.894928 69.727686 
L 357.468196 69.727686 
L 357.468196 69.252401 
L 358.018984 69.252401 
L 358.018984 68.777116 
L 358.567524 68.777116 
L 358.567524 68.301831 
L 359.1318 68.301831 
L 359.1318 67.826546 
L 359.687084 67.826546 
L 359.687084 67.351261 
L 364.212537 67.351261 
L 364.212537 66.875976 
L 364.765572 66.875976 
L 364.765572 66.400692 
L 365.327601 66.400692 
L 365.327601 65.925407 
L 365.887381 65.925407 
L 365.887381 65.450122 
L 366.442665 65.450122 
L 366.442665 64.974837 
L 366.988957 64.974837 
L 366.988957 64.499552 
L 367.541992 64.499552 
L 367.541992 64.024267 
L 368.108517 64.024267 
L 368.108517 63.548982 
L 368.675042 63.548982 
L 368.675042 63.073697 
L 369.234822 63.073697 
L 369.234822 62.598413 
L 369.792354 62.598413 
L 369.792354 62.123128 
L 370.347638 62.123128 
L 370.347638 61.647843 
L 370.923155 61.647843 
L 370.923155 61.172558 
L 371.476191 61.172558 
L 371.476191 60.697273 
L 372.029227 60.697273 
L 372.029227 60.221988 
L 372.591255 60.221988 
L 372.591255 59.746703 
L 373.142043 59.746703 
L 373.142043 59.271418 
L 373.706319 59.271418 
L 373.706319 58.796134 
L 374.279588 58.796134 
L 374.279588 58.320849 
L 381.037417 58.320849 
L 381.037417 57.845564 
L 381.594949 57.845564 
L 381.594949 57.370279 
L 394.541834 57.370279 
L 394.541834 56.894994 
L 395.117351 56.894994 
L 395.117351 56.419709 
L 395.679379 56.419709 
L 395.679379 55.944424 
L 396.245904 55.944424 
L 396.245904 55.469139 
L 396.805684 55.469139 
L 396.805684 54.993855 
L 397.363216 54.993855 
L 397.363216 54.51857 
L 397.929741 54.51857 
L 397.929741 54.043285 
L 398.487273 54.043285 
L 398.487273 53.568 
L 398.487273 53.568 
" clip-path="url(#p3b1010db8f)" style="fill: none; stroke: #ff7f0e; stroke-width: 1.5; stroke-linecap: square"/>
   </g>
   <g id="patch_3">
    <path d="M 57.6 307.584 
L 57.6 41.472 
" style="fill: none; stroke: #000000; stroke-width: 0.8; stroke-linejoin: miter; stroke-linecap: square"/>
   </g>
   <g id="patch_4">
    <path d="M 414.72 307.584 
L 414.72 41.472 
" style="fill: none; stroke: #000000; stroke-width: 0.8; stroke-linejoin: miter; stroke-linecap: square"/>
   </g>
   <g id="patch_5">
    <path d="M 57.6 307.584 
L 414.72 307.584 
" style="fill: none; stroke: #000000; stroke-width: 0.8; stroke-linejoin: miter; stroke-linecap: square"/>
   </g>
   <g id="patch_6">
    <path d="M 57.6 41.472 
L 414.72 41.472 
" style="fill: none; stroke: #000000; stroke-width: 0.8; stroke-linejoin: miter; stroke-linecap: square"/>
   </g>
   <g id="text_16">
    <!-- S1 S15 -->
    <g transform="translate(215.1825 35.472) scale(0.12 -0.12)">
     <defs>
      <path id="DejaVuSans-53" d="M 3425 4513 
L 3425 3897 
Q 3066 4069 2747 4153 
Q 2428 4238 2131 4238 
Q 1616 4238 1336 4038 
Q 1056 3838 1056 3469 
Q 1056 3159 1242 3001 
Q 1428 2844 1947 2747 
L 2328 2669 
Q 3034 2534 3370 2195 
Q 3706 1856 3706 1288 
Q 3706 609 3251 259 
Q 2797 -91 1919 -91 
Q 1588 -91 1214 -16 
Q 841 59 441 206 
L 441 856 
Q 825 641 1194 531 
Q 1563 422 1919 422 
Q 2459 422 2753 634 
Q 3047 847 3047 1241 
Q 3047 1584 2836 1778 
Q 2625 1972 2144 2069 
L 1759 2144 
Q 1053 2284 737 2584 
Q 422 2884 422 3419 
Q 422 4038 858 4394 
Q 1294 4750 2059 4750 
Q 2388 4750 2728 4690 
Q 3069 4631 3425 4513 
z
" transform="scale(0.015625)"/>
      <path id="DejaVuSans-20" transform="scale(0.015625)"/>
      <path id="DejaVuSans-35" d="M 691 4666 
L 3169 4666 
L 3169 4134 
L 1269 4134 
L 1269 2991 
Q 1406 3038 1543 3061 
Q 1681 3084 1819 3084 
Q 2600 3084 3056 2656 
Q 3513 2228 3513 1497 
Q 3513 744 3044 326 
Q 2575 -91 1722 -91 
Q 1428 -91 1123 -41 
Q 819 9 494 109 
L 494 744 
Q 775 591 1075 516 
Q 1375 441 1709 441 
Q 2250 441 2565 725 
Q 2881 1009 2881 1497 
Q 2881 1984 2565 2268 
Q 2250 2553 1709 2553 
Q 1456 2553 1204 2497 
Q 953 2441 691 2322 
L 691 4666 
z
" transform="scale(0.015625)"/>
     </defs>
     <use xlink:href="#DejaVuSans-53"/>
     <use xlink:href="#DejaVuSans-31" x="63.476562"/>
     <use xlink:href="#DejaVuSans-20" x="127.099609"/>
     <use xlink:href="#DejaVuSans-53" x="158.886719"/>
     <use xlink:href="#DejaVuSans-31" x="222.363281"/>
     <use xlink:href="#DejaVuSans-35" x="285.986328"/>
    </g>
   </g>
   <g id="legend_1">
    <g id="patch_7">
     <path d="M 84.895313 304.584 
L 410.52 304.584 
Q 411.72 304.584 411.72 303.384 
L 411.72 286.37025 
Q 411.72 285.17025 410.52 285.17025 
L 84.895313 285.17025 
Q 83.695313 285.17025 83.695313 286.37025 
L 83.695313 303.384 
Q 83.695313 304.584 84.895313 304.584 
z
" style="fill: #ffffff; opacity: 0.8; stroke: #cccccc; stroke-linejoin: miter"/>
    </g>
    <g id="line2d_17">
     <path d="M 86.095313 290.029312 
L 92.095313 290.029312 
L 98.095313 290.029312 
" style="fill: none; stroke: #1f77b4; stroke-width: 1.5; stroke-linecap: square"/>
    </g>
    <g id="text_17">
     <!-- Execution time between S1 S15 (xx1xx1xx1xx1xx1xx1xx1xx1xx1) -->
     <g transform="translate(102.895313 292.129312) scale(0.06 -0.06)">
      <defs>
       <path id="DejaVuSans-45" d="M 628 4666 
L 3578 4666 
L 3578 4134 
L 1259 4134 
L 1259 2753 
L 3481 2753 
L 3481 2222 
L 1259 2222 
L 1259 531 
L 3634 531 
L 3634 0 
L 628 0 
L 628 4666 
z
" transform="scale(0.015625)"/>
       <path id="DejaVuSans-78" d="M 3513 3500 
L 2247 1797 
L 3578 0 
L 2900 0 
L 1881 1375 
L 863 0 
L 184 0 
L 1544 1831 
L 300 3500 
L 978 3500 
L 1906 2253 
L 2834 3500 
L 3513 3500 
z
" transform="scale(0.015625)"/>
       <path id="DejaVuSans-63" d="M 3122 3366 
L 3122 2828 
Q 2878 2963 2633 3030 
Q 2388 3097 2138 3097 
Q 1578 3097 1268 2742 
Q 959 2388 959 1747 
Q 959 1106 1268 751 
Q 1578 397 2138 397 
Q 2388 397 2633 464 
Q 2878 531 3122 666 
L 3122 134 
Q 2881 22 2623 -34 
Q 2366 -91 2075 -91 
Q 1284 -91 818 406 
Q 353 903 353 1747 
Q 353 2603 823 3093 
Q 1294 3584 2113 3584 
Q 2378 3584 2631 3529 
Q 2884 3475 3122 3366 
z
" transform="scale(0.015625)"/>
       <path id="DejaVuSans-75" d="M 544 1381 
L 544 3500 
L 1119 3500 
L 1119 1403 
Q 1119 906 1312 657 
Q 1506 409 1894 409 
Q 2359 409 2629 706 
Q 2900 1003 2900 1516 
L 2900 3500 
L 3475 3500 
L 3475 0 
L 2900 0 
L 2900 538 
Q 2691 219 2414 64 
Q 2138 -91 1772 -91 
Q 1169 -91 856 284 
Q 544 659 544 1381 
z
M 1991 3584 
L 1991 3584 
z
" transform="scale(0.015625)"/>
       <path id="DejaVuSans-74" d="M 1172 4494 
L 1172 3500 
L 2356 3500 
L 2356 3053 
L 1172 3053 
L 1172 1153 
Q 1172 725 1289 603 
Q 1406 481 1766 481 
L 2356 481 
L 2356 0 
L 1766 0 
Q 1100 0 847 248 
Q 594 497 594 1153 
L 594 3053 
L 172 3053 
L 172 3500 
L 594 3500 
L 594 4494 
L 1172 4494 
z
" transform="scale(0.015625)"/>
       <path id="DejaVuSans-69" d="M 603 3500 
L 1178 3500 
L 1178 0 
L 603 0 
L 603 3500 
z
M 603 4863 
L 1178 4863 
L 1178 4134 
L 603 4134 
L 603 4863 
z
" transform="scale(0.015625)"/>
       <path id="DejaVuSans-6f" d="M 1959 3097 
Q 1497 3097 1228 2736 
Q 959 2375 959 1747 
Q 959 1119 1226 758 
Q 1494 397 1959 397 
Q 2419 397 2687 759 
Q 2956 1122 2956 1747 
Q 2956 2369 2687 2733 
Q 2419 3097 1959 3097 
z
M 1959 3584 
Q 2709 3584 3137 3096 
Q 3566 2609 3566 1747 
Q 3566 888 3137 398 
Q 2709 -91 1959 -91 
Q 1206 -91 779 398 
Q 353 888 353 1747 
Q 353 2609 779 3096 
Q 1206 3584 1959 3584 
z
" transform="scale(0.015625)"/>
       <path id="DejaVuSans-6e" d="M 3513 2113 
L 3513 0 
L 2938 0 
L 2938 2094 
Q 2938 2591 2744 2837 
Q 2550 3084 2163 3084 
Q 1697 3084 1428 2787 
Q 1159 2491 1159 1978 
L 1159 0 
L 581 0 
L 581 3500 
L 1159 3500 
L 1159 2956 
Q 1366 3272 1645 3428 
Q 1925 3584 2291 3584 
Q 2894 3584 3203 3211 
Q 3513 2838 3513 2113 
z
" transform="scale(0.015625)"/>
       <path id="DejaVuSans-6d" d="M 3328 2828 
Q 3544 3216 3844 3400 
Q 4144 3584 4550 3584 
Q 5097 3584 5394 3201 
Q 5691 2819 5691 2113 
L 5691 0 
L 5113 0 
L 5113 2094 
Q 5113 2597 4934 2840 
Q 4756 3084 4391 3084 
Q 3944 3084 3684 2787 
Q 3425 2491 3425 1978 
L 3425 0 
L 2847 0 
L 2847 2094 
Q 2847 2600 2669 2842 
Q 2491 3084 2119 3084 
Q 1678 3084 1418 2786 
Q 1159 2488 1159 1978 
L 1159 0 
L 581 0 
L 581 3500 
L 1159 3500 
L 1159 2956 
Q 1356 3278 1631 3431 
Q 1906 3584 2284 3584 
Q 2666 3584 2933 3390 
Q 3200 3197 3328 2828 
z
" transform="scale(0.015625)"/>
       <path id="DejaVuSans-62" d="M 3116 1747 
Q 3116 2381 2855 2742 
Q 2594 3103 2138 3103 
Q 1681 3103 1420 2742 
Q 1159 2381 1159 1747 
Q 1159 1113 1420 752 
Q 1681 391 2138 391 
Q 2594 391 2855 752 
Q 3116 1113 3116 1747 
z
M 1159 2969 
Q 1341 3281 1617 3432 
Q 1894 3584 2278 3584 
Q 2916 3584 3314 3078 
Q 3713 2572 3713 1747 
Q 3713 922 3314 415 
Q 2916 -91 2278 -91 
Q 1894 -91 1617 61 
Q 1341 213 1159 525 
L 1159 0 
L 581 0 
L 581 4863 
L 1159 4863 
L 1159 2969 
z
" transform="scale(0.015625)"/>
       <path id="DejaVuSans-77" d="M 269 3500 
L 844 3500 
L 1563 769 
L 2278 3500 
L 2956 3500 
L 3675 769 
L 4391 3500 
L 4966 3500 
L 4050 0 
L 3372 0 
L 2619 2869 
L 1863 0 
L 1184 0 
L 269 3500 
z
" transform="scale(0.015625)"/>
       <path id="DejaVuSans-28" d="M 1984 4856 
Q 1566 4138 1362 3434 
Q 1159 2731 1159 2009 
Q 1159 1288 1364 580 
Q 1569 -128 1984 -844 
L 1484 -844 
Q 1016 -109 783 600 
Q 550 1309 550 2009 
Q 550 2706 781 3412 
Q 1013 4119 1484 4856 
L 1984 4856 
z
" transform="scale(0.015625)"/>
       <path id="DejaVuSans-29" d="M 513 4856 
L 1013 4856 
Q 1481 4119 1714 3412 
Q 1947 2706 1947 2009 
Q 1947 1309 1714 600 
Q 1481 -109 1013 -844 
L 513 -844 
Q 928 -128 1133 580 
Q 1338 1288 1338 2009 
Q 1338 2731 1133 3434 
Q 928 4138 513 4856 
z
" transform="scale(0.015625)"/>
      </defs>
      <use xlink:href="#DejaVuSans-45"/>
      <use xlink:href="#DejaVuSans-78" x="63.183594"/>
      <use xlink:href="#DejaVuSans-65" x="119.238281"/>
      <use xlink:href="#DejaVuSans-63" x="180.761719"/>
      <use xlink:href="#DejaVuSans-75" x="235.742188"/>
      <use xlink:href="#DejaVuSans-74" x="299.121094"/>
      <use xlink:href="#DejaVuSans-69" x="338.330078"/>
      <use xlink:href="#DejaVuSans-6f" x="366.113281"/>
      <use xlink:href="#DejaVuSans-6e" x="427.294922"/>
      <use xlink:href="#DejaVuSans-20" x="490.673828"/>
      <use xlink:href="#DejaVuSans-74" x="522.460938"/>
      <use xlink:href="#DejaVuSans-69" x="561.669922"/>
      <use xlink:href="#DejaVuSans-6d" x="589.453125"/>
      <use xlink:href="#DejaVuSans-65" x="686.865234"/>
      <use xlink:href="#DejaVuSans-20" x="748.388672"/>
      <use xlink:href="#DejaVuSans-62" x="780.175781"/>
      <use xlink:href="#DejaVuSans-65" x="843.652344"/>
      <use xlink:href="#DejaVuSans-74" x="905.175781"/>
      <use xlink:href="#DejaVuSans-77" x="944.384766"/>
      <use xlink:href="#DejaVuSans-65" x="1026.171875"/>
      <use xlink:href="#DejaVuSans-65" x="1087.695312"/>
      <use xlink:href="#DejaVuSans-6e" x="1149.21875"/>
      <use xlink:href="#DejaVuSans-20" x="1212.597656"/>
      <use xlink:href="#DejaVuSans-53" x="1244.384766"/>
      <use xlink:href="#DejaVuSans-31" x="1307.861328"/>
      <use xlink:href="#DejaVuSans-20" x="1371.484375"/>
      <use xlink:href="#DejaVuSans-53" x="1403.271484"/>
      <use xlink:href="#DejaVuSans-31" x="1466.748047"/>
      <use xlink:href="#DejaVuSans-35" x="1530.371094"/>
      <use xlink:href="#DejaVuSans-20" x="1593.994141"/>
      <use xlink:href="#DejaVuSans-28" x="1625.78125"/>
      <use xlink:href="#DejaVuSans-78" x="1664.794922"/>
      <use xlink:href="#DejaVuSans-78" x="1723.974609"/>
      <use xlink:href="#DejaVuSans-31" x="1783.154297"/>
      <use xlink:href="#DejaVuSans-78" x="1846.777344"/>
      <use xlink:href="#DejaVuSans-78" x="1905.957031"/>
      <use xlink:href="#DejaVuSans-31" x="1965.136719"/>
      <use xlink:href="#DejaVuSans-78" x="2028.759766"/>
      <use xlink:href="#DejaVuSans-78" x="2087.939453"/>
      <use xlink:href="#DejaVuSans-31" x="2147.119141"/>
      <use xlink:href="#DejaVuSans-78" x="2210.742188"/>
      <use xlink:href="#DejaVuSans-78" x="2269.921875"/>
      <use xlink:href="#DejaVuSans-31" x="2329.101562"/>
      <use xlink:href="#DejaVuSans-78" x="2392.724609"/>
      <use xlink:href="#DejaVuSans-78" x="2451.904297"/>
      <use xlink:href="#DejaVuSans-31" x="2511.083984"/>
      <use xlink:href="#DejaVuSans-78" x="2574.707031"/>
      <use xlink:href="#DejaVuSans-78" x="2633.886719"/>
      <use xlink:href="#DejaVuSans-31" x="2693.066406"/>
      <use xlink:href="#DejaVuSans-78" x="2756.689453"/>
      <use xlink:href="#DejaVuSans-78" x="2815.869141"/>
      <use xlink:href="#DejaVuSans-31" x="2875.048828"/>
      <use xlink:href="#DejaVuSans-78" x="2938.671875"/>
      <use xlink:href="#DejaVuSans-78" x="2997.851562"/>
      <use xlink:href="#DejaVuSans-31" x="3057.03125"/>
      <use xlink:href="#DejaVuSans-78" x="3120.654297"/>
      <use xlink:href="#DejaVuSans-78" x="3179.833984"/>
      <use xlink:href="#DejaVuSans-31" x="3239.013672"/>
      <use xlink:href="#DejaVuSans-29" x="3302.636719"/>
     </g>
    </g>
    <g id="line2d_18">
     <path d="M 86.095313 298.836187 
L 92.095313 298.836187 
L 98.095313 298.836187 
" style="fill: none; stroke: #ff7f0e; stroke-width: 1.5; stroke-linecap: square"/>
    </g>
    <g id="text_18">
     <!-- Execution time between S1 S15 (xx1xx2xx0yyy45xx0yyy45xx0yyy3xx1xx0yyy45xx0yyy45xx0yyy45) -->
     <g transform="translate(102.895313 300.936187) scale(0.06 -0.06)">
      <defs>
       <path id="DejaVuSans-79" d="M 2059 -325 
Q 1816 -950 1584 -1140 
Q 1353 -1331 966 -1331 
L 506 -1331 
L 506 -850 
L 844 -850 
Q 1081 -850 1212 -737 
Q 1344 -625 1503 -206 
L 1606 56 
L 191 3500 
L 800 3500 
L 1894 763 
L 2988 3500 
L 3597 3500 
L 2059 -325 
z
" transform="scale(0.015625)"/>
       <path id="DejaVuSans-33" d="M 2597 2516 
Q 3050 2419 3304 2112 
Q 3559 1806 3559 1356 
Q 3559 666 3084 287 
Q 2609 -91 1734 -91 
Q 1441 -91 1130 -33 
Q 819 25 488 141 
L 488 750 
Q 750 597 1062 519 
Q 1375 441 1716 441 
Q 2309 441 2620 675 
Q 2931 909 2931 1356 
Q 2931 1769 2642 2001 
Q 2353 2234 1838 2234 
L 1294 2234 
L 1294 2753 
L 1863 2753 
Q 2328 2753 2575 2939 
Q 2822 3125 2822 3475 
Q 2822 3834 2567 4026 
Q 2313 4219 1838 4219 
Q 1578 4219 1281 4162 
Q 984 4106 628 3988 
L 628 4550 
Q 988 4650 1302 4700 
Q 1616 4750 1894 4750 
Q 2613 4750 3031 4423 
Q 3450 4097 3450 3541 
Q 3450 3153 3228 2886 
Q 3006 2619 2597 2516 
z
" transform="scale(0.015625)"/>
      </defs>
      <use xlink:href="#DejaVuSans-45"/>
      <use xlink:href="#DejaVuSans-78" x="63.183594"/>
      <use xlink:href="#DejaVuSans-65" x="119.238281"/>
      <use xlink:href="#DejaVuSans-63" x="180.761719"/>
      <use xlink:href="#DejaVuSans-75" x="235.742188"/>
      <use xlink:href="#DejaVuSans-74" x="299.121094"/>
      <use xlink:href="#DejaVuSans-69" x="338.330078"/>
      <use xlink:href="#DejaVuSans-6f" x="366.113281"/>
      <use xlink:href="#DejaVuSans-6e" x="427.294922"/>
      <use xlink:href="#DejaVuSans-20" x="490.673828"/>
      <use xlink:href="#DejaVuSans-74" x="522.460938"/>
      <use xlink:href="#DejaVuSans-69" x="561.669922"/>
      <use xlink:href="#DejaVuSans-6d" x="589.453125"/>
      <use xlink:href="#DejaVuSans-65" x="686.865234"/>
      <use xlink:href="#DejaVuSans-20" x="748.388672"/>
      <use xlink:href="#DejaVuSans-62" x="780.175781"/>
      <use xlink:href="#DejaVuSans-65" x="843.652344"/>
      <use xlink:href="#DejaVuSans-74" x="905.175781"/>
      <use xlink:href="#DejaVuSans-77" x="944.384766"/>
      <use xlink:href="#DejaVuSans-65" x="1026.171875"/>
      <use xlink:href="#DejaVuSans-65" x="1087.695312"/>
      <use xlink:href="#DejaVuSans-6e" x="1149.21875"/>
      <use xlink:href="#DejaVuSans-20" x="1212.597656"/>
      <use xlink:href="#DejaVuSans-53" x="1244.384766"/>
      <use xlink:href="#DejaVuSans-31" x="1307.861328"/>
      <use xlink:href="#DejaVuSans-20" x="1371.484375"/>
      <use xlink:href="#DejaVuSans-53" x="1403.271484"/>
      <use xlink:href="#DejaVuSans-31" x="1466.748047"/>
      <use xlink:href="#DejaVuSans-35" x="1530.371094"/>
      <use xlink:href="#DejaVuSans-20" x="1593.994141"/>
      <use xlink:href="#DejaVuSans-28" x="1625.78125"/>
      <use xlink:href="#DejaVuSans-78" x="1664.794922"/>
      <use xlink:href="#DejaVuSans-78" x="1723.974609"/>
      <use xlink:href="#DejaVuSans-31" x="1783.154297"/>
      <use xlink:href="#DejaVuSans-78" x="1846.777344"/>
      <use xlink:href="#DejaVuSans-78" x="1905.957031"/>
      <use xlink:href="#DejaVuSans-32" x="1965.136719"/>
      <use xlink:href="#DejaVuSans-78" x="2028.759766"/>
      <use xlink:href="#DejaVuSans-78" x="2087.939453"/>
      <use xlink:href="#DejaVuSans-30" x="2147.119141"/>
      <use xlink:href="#DejaVuSans-79" x="2210.742188"/>
      <use xlink:href="#DejaVuSans-79" x="2269.921875"/>
      <use xlink:href="#DejaVuSans-79" x="2329.101562"/>
      <use xlink:href="#DejaVuSans-34" x="2388.28125"/>
      <use xlink:href="#DejaVuSans-35" x="2451.904297"/>
      <use xlink:href="#DejaVuSans-78" x="2515.527344"/>
      <use xlink:href="#DejaVuSans-78" x="2574.707031"/>
      <use xlink:href="#DejaVuSans-30" x="2633.886719"/>
      <use xlink:href="#DejaVuSans-79" x="2697.509766"/>
      <use xlink:href="#DejaVuSans-79" x="2756.689453"/>
      <use xlink:href="#DejaVuSans-79" x="2815.869141"/>
      <use xlink:href="#DejaVuSans-34" x="2875.048828"/>
      <use xlink:href="#DejaVuSans-35" x="2938.671875"/>
      <use xlink:href="#DejaVuSans-78" x="3002.294922"/>
      <use xlink:href="#DejaVuSans-78" x="3061.474609"/>
      <use xlink:href="#DejaVuSans-30" x="3120.654297"/>
      <use xlink:href="#DejaVuSans-79" x="3184.277344"/>
      <use xlink:href="#DejaVuSans-79" x="3243.457031"/>
      <use xlink:href="#DejaVuSans-79" x="3302.636719"/>
      <use xlink:href="#DejaVuSans-33" x="3361.816406"/>
      <use xlink:href="#DejaVuSans-78" x="3425.439453"/>
      <use xlink:href="#DejaVuSans-78" x="3484.619141"/>
      <use xlink:href="#DejaVuSans-31" x="3543.798828"/>
      <use xlink:href="#DejaVuSans-78" x="3607.421875"/>
      <use xlink:href="#DejaVuSans-78" x="3666.601562"/>
      <use xlink:href="#DejaVuSans-30" x="3725.78125"/>
      <use xlink:href="#DejaVuSans-79" x="3789.404297"/>
      <use xlink:href="#DejaVuSans-79" x="3848.583984"/>
      <use xlink:href="#DejaVuSans-79" x="3907.763672"/>
      <use xlink:href="#DejaVuSans-34" x="3966.943359"/>
      <use xlink:href="#DejaVuSans-35" x="4030.566406"/>
      <use xlink:href="#DejaVuSans-78" x="4094.189453"/>
      <use xlink:href="#DejaVuSans-78" x="4153.369141"/>
      <use xlink:href="#DejaVuSans-30" x="4212.548828"/>
      <use xlink:href="#DejaVuSans-79" x="4276.171875"/>
      <use xlink:href="#DejaVuSans-79" x="4335.351562"/>
      <use xlink:href="#DejaVuSans-79" x="4394.53125"/>
      <use xlink:href="#DejaVuSans-34" x="4453.710938"/>
      <use xlink:href="#DejaVuSans-35" x="4517.333984"/>
      <use xlink:href="#DejaVuSans-78" x="4580.957031"/>
      <use xlink:href="#DejaVuSans-78" x="4640.136719"/>
      <use xlink:href="#DejaVuSans-30" x="4699.316406"/>
      <use xlink:href="#DejaVuSans-79" x="4762.939453"/>
      <use xlink:href="#DejaVuSans-79" x="4822.119141"/>
      <use xlink:href="#DejaVuSans-79" x="4881.298828"/>
      <use xlink:href="#DejaVuSans-34" x="4940.478516"/>
      <use xlink:href="#DejaVuSans-35" x="5004.101562"/>
      <use xlink:href="#DejaVuSans-29" x="5067.724609"/>
     </g>
    </g>
   </g>
  </g>
 </g>
 <defs>
  <clipPath id="p3b1010db8f">
   <rect x="57.6" y="41.472" width="357.12" height="266.112"/>
  </clipPath>
 </defs>
</svg>
