<?xml version="1.0" encoding="utf-8" standalone="no"?>
<!DOCTYPE svg PUBLIC "-//W3C//DTD SVG 1.1//EN"
  "http://www.w3.org/Graphics/SVG/1.1/DTD/svg11.dtd">
<svg xmlns:xlink="http://www.w3.org/1999/xlink" width="460.8pt" height="345.6pt" viewBox="0 0 460.8 345.6" xmlns="http://www.w3.org/2000/svg" version="1.1">
 <metadata>
  <rdf:RDF xmlns:dc="http://purl.org/dc/elements/1.1/" xmlns:cc="http://creativecommons.org/ns#" xmlns:rdf="http://www.w3.org/1999/02/22-rdf-syntax-ns#">
   <cc:Work>
    <dc:type rdf:resource="http://purl.org/dc/dcmitype/StillImage"/>
    <dc:date>2024-03-08T12:26:20.490082</dc:date>
    <dc:format>image/svg+xml</dc:format>
    <dc:creator>
     <cc:Agent>
      <dc:title>Matplotlib v3.8.2, https://matplotlib.org/</dc:title>
     </cc:Agent>
    </dc:creator>
   </cc:Work>
  </rdf:RDF>
 </metadata>
 <defs>
  <style type="text/css">*{stroke-linejoin: round; stroke-linecap: butt}</style>
 </defs>
 <g id="figure_1">
  <g id="patch_1">
   <path d="M 0 345.6 
L 460.8 345.6 
L 460.8 0 
L 0 0 
z
" style="fill: #ffffff"/>
  </g>
  <g id="axes_1">
   <g id="patch_2">
    <path d="M 57.6 307.584 
L 414.72 307.584 
L 414.72 41.472 
L 57.6 41.472 
z
" style="fill: #ffffff"/>
   </g>
   <g id="matplotlib.axis_1">
    <g id="xtick_1">
     <g id="line2d_1">
      <defs>
       <path id="m75b57e527a" d="M 0 0 
L 0 3.5 
" style="stroke: #000000; stroke-width: 0.8"/>
      </defs>
      <g>
       <use xlink:href="#m75b57e527a" x="73.832727" y="307.584" style="stroke: #000000; stroke-width: 0.8"/>
      </g>
     </g>
     <g id="text_1">
      <!-- 0 -->
      <g transform="translate(70.651477 322.182437) scale(0.1 -0.1)">
       <defs>
        <path id="DejaVuSans-30" d="M 2034 4250 
Q 1547 4250 1301 3770 
Q 1056 3291 1056 2328 
Q 1056 1369 1301 889 
Q 1547 409 2034 409 
Q 2525 409 2770 889 
Q 3016 1369 3016 2328 
Q 3016 3291 2770 3770 
Q 2525 4250 2034 4250 
z
M 2034 4750 
Q 2819 4750 3233 4129 
Q 3647 3509 3647 2328 
Q 3647 1150 3233 529 
Q 2819 -91 2034 -91 
Q 1250 -91 836 529 
Q 422 1150 422 2328 
Q 422 3509 836 4129 
Q 1250 4750 2034 4750 
z
" transform="scale(0.015625)"/>
       </defs>
       <use xlink:href="#DejaVuSans-30"/>
      </g>
     </g>
    </g>
    <g id="xtick_2">
     <g id="line2d_2">
      <g>
       <use xlink:href="#m75b57e527a" x="134.188657" y="307.584" style="stroke: #000000; stroke-width: 0.8"/>
      </g>
     </g>
     <g id="text_2">
      <!-- 20000 -->
      <g transform="translate(118.282407 322.182437) scale(0.1 -0.1)">
       <defs>
        <path id="DejaVuSans-32" d="M 1228 531 
L 3431 531 
L 3431 0 
L 469 0 
L 469 531 
Q 828 903 1448 1529 
Q 2069 2156 2228 2338 
Q 2531 2678 2651 2914 
Q 2772 3150 2772 3378 
Q 2772 3750 2511 3984 
Q 2250 4219 1831 4219 
Q 1534 4219 1204 4116 
Q 875 4013 500 3803 
L 500 4441 
Q 881 4594 1212 4672 
Q 1544 4750 1819 4750 
Q 2544 4750 2975 4387 
Q 3406 4025 3406 3419 
Q 3406 3131 3298 2873 
Q 3191 2616 2906 2266 
Q 2828 2175 2409 1742 
Q 1991 1309 1228 531 
z
" transform="scale(0.015625)"/>
       </defs>
       <use xlink:href="#DejaVuSans-32"/>
       <use xlink:href="#DejaVuSans-30" x="63.623047"/>
       <use xlink:href="#DejaVuSans-30" x="127.246094"/>
       <use xlink:href="#DejaVuSans-30" x="190.869141"/>
       <use xlink:href="#DejaVuSans-30" x="254.492188"/>
      </g>
     </g>
    </g>
    <g id="xtick_3">
     <g id="line2d_3">
      <g>
       <use xlink:href="#m75b57e527a" x="194.544587" y="307.584" style="stroke: #000000; stroke-width: 0.8"/>
      </g>
     </g>
     <g id="text_3">
      <!-- 40000 -->
      <g transform="translate(178.638337 322.182437) scale(0.1 -0.1)">
       <defs>
        <path id="DejaVuSans-34" d="M 2419 4116 
L 825 1625 
L 2419 1625 
L 2419 4116 
z
M 2253 4666 
L 3047 4666 
L 3047 1625 
L 3713 1625 
L 3713 1100 
L 3047 1100 
L 3047 0 
L 2419 0 
L 2419 1100 
L 313 1100 
L 313 1709 
L 2253 4666 
z
" transform="scale(0.015625)"/>
       </defs>
       <use xlink:href="#DejaVuSans-34"/>
       <use xlink:href="#DejaVuSans-30" x="63.623047"/>
       <use xlink:href="#DejaVuSans-30" x="127.246094"/>
       <use xlink:href="#DejaVuSans-30" x="190.869141"/>
       <use xlink:href="#DejaVuSans-30" x="254.492188"/>
      </g>
     </g>
    </g>
    <g id="xtick_4">
     <g id="line2d_4">
      <g>
       <use xlink:href="#m75b57e527a" x="254.900516" y="307.584" style="stroke: #000000; stroke-width: 0.8"/>
      </g>
     </g>
     <g id="text_4">
      <!-- 60000 -->
      <g transform="translate(238.994266 322.182437) scale(0.1 -0.1)">
       <defs>
        <path id="DejaVuSans-36" d="M 2113 2584 
Q 1688 2584 1439 2293 
Q 1191 2003 1191 1497 
Q 1191 994 1439 701 
Q 1688 409 2113 409 
Q 2538 409 2786 701 
Q 3034 994 3034 1497 
Q 3034 2003 2786 2293 
Q 2538 2584 2113 2584 
z
M 3366 4563 
L 3366 3988 
Q 3128 4100 2886 4159 
Q 2644 4219 2406 4219 
Q 1781 4219 1451 3797 
Q 1122 3375 1075 2522 
Q 1259 2794 1537 2939 
Q 1816 3084 2150 3084 
Q 2853 3084 3261 2657 
Q 3669 2231 3669 1497 
Q 3669 778 3244 343 
Q 2819 -91 2113 -91 
Q 1303 -91 875 529 
Q 447 1150 447 2328 
Q 447 3434 972 4092 
Q 1497 4750 2381 4750 
Q 2619 4750 2861 4703 
Q 3103 4656 3366 4563 
z
" transform="scale(0.015625)"/>
       </defs>
       <use xlink:href="#DejaVuSans-36"/>
       <use xlink:href="#DejaVuSans-30" x="63.623047"/>
       <use xlink:href="#DejaVuSans-30" x="127.246094"/>
       <use xlink:href="#DejaVuSans-30" x="190.869141"/>
       <use xlink:href="#DejaVuSans-30" x="254.492188"/>
      </g>
     </g>
    </g>
    <g id="xtick_5">
     <g id="line2d_5">
      <g>
       <use xlink:href="#m75b57e527a" x="315.256446" y="307.584" style="stroke: #000000; stroke-width: 0.8"/>
      </g>
     </g>
     <g id="text_5">
      <!-- 80000 -->
      <g transform="translate(299.350196 322.182437) scale(0.1 -0.1)">
       <defs>
        <path id="DejaVuSans-38" d="M 2034 2216 
Q 1584 2216 1326 1975 
Q 1069 1734 1069 1313 
Q 1069 891 1326 650 
Q 1584 409 2034 409 
Q 2484 409 2743 651 
Q 3003 894 3003 1313 
Q 3003 1734 2745 1975 
Q 2488 2216 2034 2216 
z
M 1403 2484 
Q 997 2584 770 2862 
Q 544 3141 544 3541 
Q 544 4100 942 4425 
Q 1341 4750 2034 4750 
Q 2731 4750 3128 4425 
Q 3525 4100 3525 3541 
Q 3525 3141 3298 2862 
Q 3072 2584 2669 2484 
Q 3125 2378 3379 2068 
Q 3634 1759 3634 1313 
Q 3634 634 3220 271 
Q 2806 -91 2034 -91 
Q 1263 -91 848 271 
Q 434 634 434 1313 
Q 434 1759 690 2068 
Q 947 2378 1403 2484 
z
M 1172 3481 
Q 1172 3119 1398 2916 
Q 1625 2713 2034 2713 
Q 2441 2713 2670 2916 
Q 2900 3119 2900 3481 
Q 2900 3844 2670 4047 
Q 2441 4250 2034 4250 
Q 1625 4250 1398 4047 
Q 1172 3844 1172 3481 
z
" transform="scale(0.015625)"/>
       </defs>
       <use xlink:href="#DejaVuSans-38"/>
       <use xlink:href="#DejaVuSans-30" x="63.623047"/>
       <use xlink:href="#DejaVuSans-30" x="127.246094"/>
       <use xlink:href="#DejaVuSans-30" x="190.869141"/>
       <use xlink:href="#DejaVuSans-30" x="254.492188"/>
      </g>
     </g>
    </g>
    <g id="xtick_6">
     <g id="line2d_6">
      <g>
       <use xlink:href="#m75b57e527a" x="375.612375" y="307.584" style="stroke: #000000; stroke-width: 0.8"/>
      </g>
     </g>
     <g id="text_6">
      <!-- 100000 -->
      <g transform="translate(356.524875 322.182437) scale(0.1 -0.1)">
       <defs>
        <path id="DejaVuSans-31" d="M 794 531 
L 1825 531 
L 1825 4091 
L 703 3866 
L 703 4441 
L 1819 4666 
L 2450 4666 
L 2450 531 
L 3481 531 
L 3481 0 
L 794 0 
L 794 531 
z
" transform="scale(0.015625)"/>
       </defs>
       <use xlink:href="#DejaVuSans-31"/>
       <use xlink:href="#DejaVuSans-30" x="63.623047"/>
       <use xlink:href="#DejaVuSans-30" x="127.246094"/>
       <use xlink:href="#DejaVuSans-30" x="190.869141"/>
       <use xlink:href="#DejaVuSans-30" x="254.492188"/>
       <use xlink:href="#DejaVuSans-30" x="318.115234"/>
      </g>
     </g>
    </g>
   </g>
   <g id="matplotlib.axis_2">
    <g id="ytick_1">
     <g id="line2d_7">
      <defs>
       <path id="mb8809c489a" d="M 0 0 
L -3.5 0 
" style="stroke: #000000; stroke-width: 0.8"/>
      </defs>
      <g>
       <use xlink:href="#mb8809c489a" x="57.6" y="295.488" style="stroke: #000000; stroke-width: 0.8"/>
      </g>
     </g>
     <g id="text_7">
      <!-- 0.0 -->
      <g transform="translate(34.696875 299.287219) scale(0.1 -0.1)">
       <defs>
        <path id="DejaVuSans-2e" d="M 684 794 
L 1344 794 
L 1344 0 
L 684 0 
L 684 794 
z
" transform="scale(0.015625)"/>
       </defs>
       <use xlink:href="#DejaVuSans-30"/>
       <use xlink:href="#DejaVuSans-2e" x="63.623047"/>
       <use xlink:href="#DejaVuSans-30" x="95.410156"/>
      </g>
     </g>
    </g>
    <g id="ytick_2">
     <g id="line2d_8">
      <g>
       <use xlink:href="#mb8809c489a" x="57.6" y="247.104" style="stroke: #000000; stroke-width: 0.8"/>
      </g>
     </g>
     <g id="text_8">
      <!-- 0.2 -->
      <g transform="translate(34.696875 250.903219) scale(0.1 -0.1)">
       <use xlink:href="#DejaVuSans-30"/>
       <use xlink:href="#DejaVuSans-2e" x="63.623047"/>
       <use xlink:href="#DejaVuSans-32" x="95.410156"/>
      </g>
     </g>
    </g>
    <g id="ytick_3">
     <g id="line2d_9">
      <g>
       <use xlink:href="#mb8809c489a" x="57.6" y="198.72" style="stroke: #000000; stroke-width: 0.8"/>
      </g>
     </g>
     <g id="text_9">
      <!-- 0.4 -->
      <g transform="translate(34.696875 202.519219) scale(0.1 -0.1)">
       <use xlink:href="#DejaVuSans-30"/>
       <use xlink:href="#DejaVuSans-2e" x="63.623047"/>
       <use xlink:href="#DejaVuSans-34" x="95.410156"/>
      </g>
     </g>
    </g>
    <g id="ytick_4">
     <g id="line2d_10">
      <g>
       <use xlink:href="#mb8809c489a" x="57.6" y="150.336" style="stroke: #000000; stroke-width: 0.8"/>
      </g>
     </g>
     <g id="text_10">
      <!-- 0.6 -->
      <g transform="translate(34.696875 154.135219) scale(0.1 -0.1)">
       <use xlink:href="#DejaVuSans-30"/>
       <use xlink:href="#DejaVuSans-2e" x="63.623047"/>
       <use xlink:href="#DejaVuSans-36" x="95.410156"/>
      </g>
     </g>
    </g>
    <g id="ytick_5">
     <g id="line2d_11">
      <g>
       <use xlink:href="#mb8809c489a" x="57.6" y="101.952" style="stroke: #000000; stroke-width: 0.8"/>
      </g>
     </g>
     <g id="text_11">
      <!-- 0.8 -->
      <g transform="translate(34.696875 105.751219) scale(0.1 -0.1)">
       <use xlink:href="#DejaVuSans-30"/>
       <use xlink:href="#DejaVuSans-2e" x="63.623047"/>
       <use xlink:href="#DejaVuSans-38" x="95.410156"/>
      </g>
     </g>
    </g>
    <g id="ytick_6">
     <g id="line2d_12">
      <g>
       <use xlink:href="#mb8809c489a" x="57.6" y="53.568" style="stroke: #000000; stroke-width: 0.8"/>
      </g>
     </g>
     <g id="text_12">
      <!-- 1.0 -->
      <g transform="translate(34.696875 57.367219) scale(0.1 -0.1)">
       <use xlink:href="#DejaVuSans-31"/>
       <use xlink:href="#DejaVuSans-2e" x="63.623047"/>
       <use xlink:href="#DejaVuSans-30" x="95.410156"/>
      </g>
     </g>
    </g>
   </g>
   <g id="line2d_13">
    <path d="M 73.832727 295.488 
L 80.622769 295.488 
L 80.713303 166.418312 
L 80.713303 166.418312 
L 81.980778 166.418312 
L 81.980778 166.18987 
L 83.006829 166.18987 
L 83.006829 165.961428 
L 83.821634 165.961428 
L 83.821634 165.732986 
L 84.123413 165.732986 
L 84.123413 165.504544 
L 84.485549 165.504544 
L 84.485549 165.276102 
L 84.817506 165.276102 
L 84.847684 164.362334 
L 84.847684 164.362334 
L 85.119286 164.362334 
L 85.119286 163.448567 
L 85.119286 163.448567 
L 85.843557 163.448567 
L 85.934091 162.763241 
L 85.934091 162.763241 
L 85.994447 162.763241 
L 85.994447 162.534799 
L 86.115159 162.534799 
L 86.145337 162.077915 
L 86.718718 162.077915 
L 86.718718 161.849473 
L 86.960142 161.849473 
L 86.960142 161.621031 
L 87.503345 161.621031 
L 87.593879 161.164147 
L 87.624057 161.164147 
L 87.624057 160.478822 
L 87.624057 160.478822 
L 88.106905 160.478822 
L 88.106905 160.25038 
L 88.800998 160.25038 
L 88.800998 160.021938 
L 88.982066 160.021938 
L 88.982066 159.793496 
L 89.434735 159.793496 
L 89.434735 159.565054 
L 89.615803 159.565054 
L 89.676159 159.10817 
L 89.917583 159.10817 
L 90.008116 158.422844 
L 90.068472 158.422844 
L 90.128828 157.509076 
L 90.521142 157.509076 
L 90.521142 157.280635 
L 91.094523 157.280635 
L 91.154879 156.138425 
L 91.154879 156.138425 
L 91.366125 156.138425 
L 91.426481 155.681541 
L 91.72826 155.681541 
L 91.72826 155.224657 
L 91.72826 155.224657 
L 92.271464 155.224657 
L 92.271464 154.996215 
L 92.905201 154.996215 
L 92.905201 154.767773 
L 93.206981 154.767773 
L 93.206981 154.539331 
L 94.142498 154.539331 
L 94.142498 154.31089 
L 94.595167 154.31089 
L 94.595167 154.082448 
L 94.866769 154.082448 
L 94.896947 153.16868 
L 95.047837 153.16868 
L 95.13837 151.569586 
L 95.13837 151.569586 
L 95.168548 151.569586 
L 95.198726 151.112703 
L 95.349616 151.112703 
L 95.349616 150.198935 
L 95.349616 150.198935 
L 95.651396 150.198935 
L 95.74193 148.371399 
L 95.74193 148.371399 
L 95.832464 148.371399 
L 95.832464 148.142958 
L 96.043709 148.142958 
L 96.043709 147.914516 
L 96.164421 147.914516 
L 96.164421 147.686074 
L 96.375667 147.686074 
L 96.375667 146.772306 
L 96.375667 146.772306 
L 96.979226 146.772306 
L 96.979226 146.543864 
L 97.099938 146.543864 
L 97.099938 146.315422 
L 97.250828 146.315422 
L 97.250828 146.08698 
L 98.035455 146.08698 
L 98.125989 145.401654 
L 98.488125 145.401654 
L 98.488125 144.944771 
L 98.488125 144.944771 
L 98.669192 144.944771 
L 98.669192 144.716329 
L 98.880438 144.716329 
L 98.940794 143.574119 
L 99.272752 143.574119 
L 99.272752 143.345677 
L 99.604709 143.345677 
L 99.604709 142.431909 
L 99.604709 142.431909 
L 100.057379 142.431909 
L 100.057379 142.203467 
L 101.264497 142.203467 
L 101.264497 141.746584 
L 101.264497 141.746584 
L 101.475743 141.746584 
L 101.475743 141.518142 
L 101.747345 141.518142 
L 101.747345 141.2897 
L 102.200014 141.2897 
L 102.200014 140.832816 
L 102.200014 140.832816 
L 103.165709 140.832816 
L 103.256243 140.14749 
L 103.648557 140.14749 
L 103.708912 139.00528 
L 103.708912 139.00528 
L 103.920158 139.00528 
L 103.920158 138.776839 
L 104.221938 138.776839 
L 104.221938 138.548397 
L 104.372828 138.548397 
L 104.372828 138.319955 
L 104.976387 138.319955 
L 104.976387 138.091513 
L 105.549768 138.091513 
L 105.610124 137.406187 
L 105.730836 137.406187 
L 105.761014 136.492419 
L 105.761014 136.492419 
L 105.97226 136.492419 
L 105.97226 136.263977 
L 106.092972 136.263977 
L 106.092972 136.035535 
L 106.334395 136.035535 
L 106.334395 135.807093 
L 106.726709 135.807093 
L 106.726709 135.578652 
L 107.390624 135.578652 
L 107.390624 135.35021 
L 107.511336 135.35021 
L 107.571692 134.893326 
L 109.503082 134.893326 
L 109.593616 133.522674 
L 109.593616 133.522674 
L 109.623794 133.522674 
L 109.684149 132.608907 
L 109.684149 132.608907 
L 109.744505 132.608907 
L 109.804861 131.466697 
L 110.076463 131.466697 
L 110.166997 130.552929 
L 110.197175 130.552929 
L 110.287709 129.639161 
L 110.529132 129.639161 
L 110.55931 129.182278 
L 110.770556 129.182278 
L 110.86109 128.26851 
L 110.86109 128.26851 
L 110.891268 128.26851 
L 110.891268 128.040068 
L 111.253404 128.040068 
L 111.283582 127.583184 
L 111.464649 127.583184 
L 111.464649 127.354742 
L 111.615539 127.354742 
L 111.645717 126.897858 
L 111.736251 126.897858 
L 111.766429 125.070323 
L 111.766429 125.070323 
L 111.856963 125.070323 
L 111.856963 124.841881 
L 112.188921 124.841881 
L 112.279454 124.384997 
L 112.64159 124.384997 
L 112.64159 123.928113 
L 112.64159 123.928113 
L 112.762302 123.928113 
L 112.762302 123.699671 
L 113.094259 123.699671 
L 113.154615 123.014346 
L 113.516751 123.014346 
L 113.607285 122.557462 
L 113.697819 122.557462 
L 113.727997 121.872136 
L 115.176539 121.872136 
L 115.176539 121.643694 
L 115.357607 121.643694 
L 115.448141 120.501484 
L 115.448141 120.501484 
L 115.508497 120.501484 
L 115.508497 120.044601 
L 115.508497 120.044601 
L 115.689564 120.044601 
L 115.780098 119.587717 
L 116.655259 119.587717 
L 116.685437 119.130833 
L 116.775971 119.130833 
L 116.836327 118.217065 
L 117.077751 118.217065 
L 117.168285 117.760181 
L 117.409708 117.760181 
L 117.439886 116.617972 
L 117.439886 116.617972 
L 118.345225 116.617972 
L 118.405581 116.161088 
L 118.526293 116.161088 
L 118.526293 115.932646 
L 119.280742 115.932646 
L 119.371276 115.24732 
L 119.793768 115.24732 
L 119.793768 115.018878 
L 120.186081 115.018878 
L 120.216259 114.561994 
L 120.487861 114.561994 
L 120.487861 114.333552 
L 120.668929 114.333552 
L 120.729285 113.648227 
L 121.000886 113.648227 
L 121.000886 113.419785 
L 121.453556 113.419785 
L 121.483734 112.962901 
L 122.147649 112.962901 
L 122.147649 112.734459 
L 122.298539 112.734459 
L 122.298539 112.506017 
L 122.419251 112.506017 
L 122.419251 112.277575 
L 122.57014 112.277575 
L 122.57014 112.049133 
L 122.751208 112.049133 
L 122.841742 110.45004 
L 122.902098 110.45004 
L 122.902098 110.221598 
L 123.203878 110.221598 
L 123.203878 109.764714 
L 123.203878 109.764714 
L 123.384945 109.764714 
L 123.384945 109.536272 
L 123.747081 109.536272 
L 123.747081 109.30783 
L 124.109217 109.30783 
L 124.109217 109.079388 
L 124.592064 109.079388 
L 124.682598 108.394062 
L 124.742954 108.394062 
L 124.773132 107.480295 
L 124.863666 107.480295 
L 124.893844 105.881201 
L 124.893844 105.881201 
L 125.105089 105.881201 
L 125.165445 105.424317 
L 125.255979 105.424317 
L 125.346513 103.825224 
L 125.346513 103.825224 
L 125.406869 103.825224 
L 125.467225 102.683014 
L 125.527581 102.683014 
L 125.618115 102.22613 
L 125.708649 102.22613 
L 125.769005 101.312363 
L 125.889717 101.312363 
L 125.919895 100.627037 
L 126.040606 100.627037 
L 126.040606 100.398595 
L 126.161318 100.398595 
L 126.251852 99.484827 
L 126.312208 99.484827 
L 126.342386 99.027943 
L 126.43292 99.027943 
L 126.523454 98.342618 
L 126.523454 98.342618 
L 126.644166 98.342618 
L 126.7347 97.657292 
L 126.855411 97.657292 
L 126.945945 97.200408 
L 127.006301 97.200408 
L 127.006301 96.971966 
L 127.157191 96.971966 
L 127.157191 96.515082 
L 127.157191 96.515082 
L 127.277903 96.515082 
L 127.277903 96.28664 
L 127.519327 96.28664 
L 127.519327 96.058198 
L 128.36431 96.058198 
L 128.36431 95.829756 
L 128.635911 95.829756 
L 128.696267 95.372873 
L 129.028225 95.372873 
L 129.118759 94.230663 
L 129.118759 94.230663 
L 129.54125 94.230663 
L 129.601606 93.773779 
L 129.722318 93.773779 
L 129.722318 93.545337 
L 130.506945 93.545337 
L 130.506945 93.316895 
L 131.77442 93.316895 
L 131.834776 92.403127 
L 131.834776 92.403127 
L 132.166733 92.403127 
L 132.166733 91.946244 
L 132.166733 91.946244 
L 132.528869 91.946244 
L 132.559047 91.48936 
L 133.162606 91.48936 
L 133.162606 91.260918 
L 134.067945 91.260918 
L 134.067945 91.032476 
L 134.309369 91.032476 
L 134.399903 89.890266 
L 134.399903 89.890266 
L 134.550792 89.890266 
L 134.550792 89.661824 
L 135.244886 89.661824 
L 135.244886 89.433382 
L 135.546665 89.433382 
L 135.546665 88.748057 
L 135.546665 88.748057 
L 136.210581 88.748057 
L 136.210581 88.519615 
L 136.633072 88.519615 
L 136.693428 87.377405 
L 136.693428 87.377405 
L 137.810013 87.377405 
L 137.810013 86.692079 
L 137.810013 86.692079 
L 138.081614 86.692079 
L 138.081614 86.463637 
L 138.624818 86.463637 
L 138.624818 85.778312 
L 138.624818 85.778312 
L 138.775708 85.778312 
L 138.866241 83.722334 
L 138.896419 83.722334 
L 138.896419 83.26545 
L 138.896419 83.26545 
L 139.288733 83.26545 
L 139.379267 82.351683 
L 139.379267 82.351683 
L 139.409445 82.351683 
L 139.499979 81.209473 
L 139.499979 81.209473 
L 139.711224 81.209473 
L 139.801758 80.067263 
L 139.831936 80.067263 
L 139.892292 79.153496 
L 140.07336 79.153496 
L 140.133716 78.011286 
L 140.133716 78.011286 
L 140.254428 78.011286 
L 140.314784 76.412193 
L 140.314784 76.412193 
L 140.37514 76.412193 
L 140.405318 75.269983 
L 140.405318 75.269983 
L 140.52603 75.269983 
L 140.616563 74.127773 
L 140.767453 74.127773 
L 140.857987 72.52868 
L 140.888165 72.52868 
L 140.948521 70.701144 
L 140.948521 70.701144 
L 141.039055 70.701144 
L 141.069233 70.015819 
L 141.069233 70.015819 
L 141.159767 70.015819 
L 141.189945 69.558935 
L 141.280479 69.558935 
L 141.371013 67.731399 
L 141.371013 67.731399 
L 141.431368 67.731399 
L 141.521902 66.132306 
L 141.521902 66.132306 
L 141.582258 66.132306 
L 141.672792 65.44698 
L 141.793504 65.44698 
L 141.823682 64.761654 
L 142.095284 64.761654 
L 142.095284 64.076329 
L 142.095284 64.076329 
L 143.060979 64.076329 
L 143.060979 63.619445 
L 143.060979 63.619445 
L 143.242046 63.619445 
L 143.242046 63.391003 
L 145.746817 63.391003 
L 145.746817 63.162561 
L 146.531445 63.162561 
L 146.531445 62.934119 
L 146.803046 62.934119 
L 146.803046 62.705677 
L 148.82497 62.705677 
L 148.82497 62.020351 
L 148.82497 62.020351 
L 149.579419 62.020351 
L 149.579419 61.791909 
L 153.985402 61.791909 
L 153.985402 61.563467 
L 154.528605 61.563467 
L 154.558783 60.878142 
L 154.739851 60.878142 
L 154.830385 59.735932 
L 154.830385 59.735932 
L 154.890741 59.735932 
L 154.920919 59.050606 
L 155.313232 59.050606 
L 155.313232 58.822164 
L 155.524478 58.822164 
L 155.554656 57.451513 
L 155.554656 57.451513 
L 155.765902 57.451513 
L 155.79608 56.766187 
L 155.916792 56.766187 
L 155.916792 56.537745 
L 156.067681 56.537745 
L 156.067681 56.309303 
L 156.309105 56.309303 
L 156.309105 55.623977 
L 156.309105 55.623977 
L 156.429817 55.623977 
L 156.429817 54.938652 
L 156.429817 54.938652 
L 156.701419 54.938652 
L 156.791953 53.568 
L 156.791953 53.568 
" clip-path="url(#pf2418dd668)" style="fill: none; stroke: #1f77b4; stroke-width: 1.5; stroke-linecap: square"/>
   </g>
   <g id="line2d_14">
    <path d="M 73.832727 295.488 
L 80.622769 295.488 
L 80.713303 148.232348 
L 80.713303 148.232348 
L 80.984905 148.232348 
L 80.984905 147.993296 
L 81.558286 147.993296 
L 81.558286 147.754245 
L 81.920422 147.754245 
L 81.920422 147.515194 
L 82.735227 147.515194 
L 82.735227 147.276142 
L 83.037007 147.276142 
L 83.037007 147.037091 
L 84.334659 147.037091 
L 84.334659 146.79804 
L 84.636439 146.79804 
L 84.636439 146.558988 
L 85.119286 146.558988 
L 85.20982 145.841834 
L 85.421066 145.841834 
L 85.421066 145.602783 
L 85.994447 145.602783 
L 86.084981 144.885628 
L 86.084981 144.885628 
L 86.718718 144.885628 
L 86.718718 144.646577 
L 86.929964 144.646577 
L 87.020498 144.168474 
L 87.382633 144.168474 
L 87.382633 143.929423 
L 87.503345 143.929423 
L 87.593879 143.45132 
L 89.193311 143.45132 
L 89.193311 143.212269 
L 89.555447 143.212269 
L 89.555447 142.973217 
L 89.857227 142.973217 
L 89.917583 142.256063 
L 89.917583 142.256063 
L 89.977938 142.256063 
L 90.068472 141.299858 
L 90.09865 141.299858 
L 90.189184 140.343652 
L 90.370252 140.343652 
L 90.370252 140.104601 
L 90.883277 140.104601 
L 90.913455 139.148395 
L 91.577371 139.148395 
L 91.637727 137.235984 
L 92.361998 137.235984 
L 92.361998 136.996933 
L 92.935379 136.996933 
L 92.935379 136.757881 
L 93.206981 136.757881 
L 93.206981 136.51883 
L 93.750184 136.51883 
L 93.750184 136.279779 
L 93.901074 136.279779 
L 93.991608 135.801676 
L 94.082142 135.801676 
L 94.172676 134.367368 
L 94.172676 134.367368 
L 94.233031 134.367368 
L 94.263209 133.889265 
L 94.414099 133.889265 
L 94.414099 133.650213 
L 94.595167 133.650213 
L 94.595167 133.411162 
L 94.866769 133.411162 
L 94.866769 133.172111 
L 95.228904 133.172111 
L 95.228904 132.215905 
L 95.228904 132.215905 
L 96.134243 132.215905 
L 96.194599 131.737802 
L 96.586913 131.737802 
L 96.586913 131.2597 
L 96.586913 131.2597 
L 97.009404 131.2597 
L 97.009404 131.020648 
L 97.431896 131.020648 
L 97.431896 130.781597 
L 97.763853 130.781597 
L 97.763853 130.542545 
L 98.578658 130.542545 
L 98.608836 130.064443 
L 99.483997 130.064443 
L 99.483997 129.825391 
L 100.087557 129.825391 
L 100.087557 129.58634 
L 100.298802 129.58634 
L 100.298802 129.347289 
L 100.570404 129.347289 
L 100.63076 128.869186 
L 100.872184 128.869186 
L 100.872184 128.630134 
L 101.264497 128.630134 
L 101.294675 127.673929 
L 101.807701 127.673929 
L 101.807701 127.434877 
L 102.350904 127.434877 
L 102.350904 127.195826 
L 102.743218 127.195826 
L 102.743218 126.956775 
L 102.863929 126.956775 
L 102.863929 126.717723 
L 103.256243 126.717723 
L 103.256243 126.478672 
L 103.437311 126.478672 
L 103.497667 125.761518 
L 103.648557 125.761518 
L 103.648557 125.283415 
L 103.648557 125.283415 
L 103.859802 125.283415 
L 103.950336 124.566261 
L 103.950336 124.566261 
L 104.403006 124.566261 
L 104.49354 124.088158 
L 104.584073 124.088158 
L 104.614251 123.610055 
L 105.157455 123.610055 
L 105.157455 123.371004 
L 105.308345 123.371004 
L 105.338523 122.414798 
L 105.338523 122.414798 
L 105.610124 122.414798 
L 105.610124 122.175747 
L 105.881726 122.175747 
L 105.881726 121.936696 
L 106.334395 121.936696 
L 106.334395 121.697644 
L 106.937955 121.697644 
L 106.968133 120.741439 
L 106.968133 120.741439 
L 108.175251 120.741439 
L 108.205429 119.785233 
L 108.205429 119.785233 
L 108.748633 119.785233 
L 108.808988 118.829028 
L 109.020234 118.829028 
L 109.110768 118.350925 
L 109.53326 118.350925 
L 109.563438 117.394719 
L 110.106641 117.394719 
L 110.106641 117.155668 
L 110.348065 117.155668 
L 110.348065 116.916617 
L 110.468777 116.916617 
L 110.529132 116.438514 
L 110.680022 116.438514 
L 110.770556 115.960411 
L 110.800734 115.960411 
L 110.830912 115.004206 
L 110.830912 115.004206 
L 111.132692 115.004206 
L 111.132692 114.765154 
L 111.404293 114.765154 
L 111.404293 114.526103 
L 111.525005 114.526103 
L 111.525005 114.287051 
L 111.736251 114.287051 
L 111.766429 113.569897 
L 112.128565 113.569897 
L 112.128565 112.852743 
L 112.128565 112.852743 
L 112.520878 112.852743 
L 112.520878 112.613692 
L 112.64159 112.613692 
L 112.64159 112.37464 
L 113.788353 112.37464 
L 113.788353 112.135589 
L 114.059954 112.135589 
L 114.059954 111.896538 
L 114.301378 111.896538 
L 114.361734 111.418435 
L 114.995471 111.418435 
L 114.995471 111.179383 
L 115.538675 111.179383 
L 115.629209 110.462229 
L 116.081878 110.462229 
L 116.081878 110.223178 
L 116.293124 110.223178 
L 116.293124 109.984126 
L 116.594903 109.984126 
L 116.594903 109.266972 
L 116.594903 109.266972 
L 116.987217 109.266972 
L 117.047573 108.310767 
L 117.047573 108.310767 
L 117.651132 108.310767 
L 117.651132 108.071715 
L 117.892556 108.071715 
L 117.952912 107.593613 
L 119.280742 107.593613 
L 119.280742 106.876458 
L 119.280742 106.876458 
L 119.582522 106.876458 
L 119.582522 106.637407 
L 120.336971 106.637407 
L 120.336971 106.398356 
L 120.518039 106.398356 
L 120.578395 105.681202 
L 120.578395 105.681202 
L 120.759463 105.681202 
L 120.759463 105.44215 
L 120.910352 105.44215 
L 120.970708 104.485945 
L 120.970708 104.485945 
L 121.061242 104.485945 
L 121.09142 104.007842 
L 121.24231 104.007842 
L 121.24231 103.768791 
L 121.785513 103.768791 
L 121.785513 103.529739 
L 122.177827 103.529739 
L 122.177827 103.290688 
L 122.539962 103.290688 
L 122.630496 102.812585 
L 123.052988 102.812585 
L 123.052988 102.573534 
L 123.203878 102.573534 
L 123.294412 102.095431 
L 123.354768 102.095431 
L 123.354768 101.856379 
L 123.535835 101.856379 
L 123.535835 101.617328 
L 123.988505 101.617328 
L 124.048861 101.139225 
L 124.229929 101.139225 
L 124.260106 100.422071 
L 124.712776 100.422071 
L 124.712776 100.18302 
L 124.863666 100.18302 
L 124.9542 99.704917 
L 125.165445 99.704917 
L 125.165445 99.465866 
L 125.286157 99.465866 
L 125.286157 99.226814 
L 125.437047 99.226814 
L 125.437047 98.987763 
L 126.161318 98.987763 
L 126.161318 98.748711 
L 126.553632 98.748711 
L 126.553632 98.50966 
L 126.976123 98.50966 
L 126.976123 98.270609 
L 127.458971 98.270609 
L 127.458971 97.792506 
L 127.458971 97.792506 
L 127.851284 97.792506 
L 127.851284 97.553455 
L 128.092708 97.553455 
L 128.092708 97.314403 
L 128.485022 97.314403 
L 128.485022 97.075352 
L 129.148937 97.075352 
L 129.179115 96.119146 
L 129.179115 96.119146 
L 129.782674 96.119146 
L 129.782674 95.880095 
L 130.386233 95.880095 
L 130.386233 95.641043 
L 130.688013 95.641043 
L 130.718191 94.445787 
L 130.989793 94.445787 
L 130.989793 93.967684 
L 130.989793 93.967684 
L 131.201038 93.967684 
L 131.201038 93.728632 
L 132.287445 93.728632 
L 132.287445 93.489581 
L 132.830648 93.489581 
L 132.860826 92.533375 
L 132.860826 92.533375 
L 133.766165 92.533375 
L 133.766165 92.294324 
L 136.633072 92.294324 
L 136.633072 92.055273 
L 136.844318 92.055273 
L 136.874496 91.57717 
L 137.206453 91.57717 
L 137.206453 91.099067 
L 137.206453 91.099067 
L 137.568589 91.099067 
L 137.568589 90.860016 
L 137.779835 90.860016 
L 137.779835 89.90381 
L 137.779835 89.90381 
L 137.99108 89.90381 
L 137.99108 89.664759 
L 138.29286 89.664759 
L 138.29286 89.425708 
L 138.413572 89.425708 
L 138.413572 89.186656 
L 138.534284 89.186656 
L 138.624818 86.31804 
L 138.624818 86.31804 
L 138.685174 86.31804 
L 138.685174 86.078988 
L 138.805886 86.078988 
L 138.805886 85.839937 
L 139.107665 85.839937 
L 139.107665 85.600885 
L 139.318911 85.600885 
L 139.349089 85.122783 
L 139.439623 85.122783 
L 139.469801 84.64468 
L 139.650869 84.64468 
L 139.711224 84.166577 
L 139.77158 84.166577 
L 139.862114 83.449423 
L 139.952648 83.449423 
L 139.982826 82.493217 
L 139.982826 82.493217 
L 140.344962 82.493217 
L 140.435496 81.537012 
L 140.435496 81.537012 
L 140.465674 81.537012 
L 140.556207 80.819858 
L 140.556207 80.819858 
L 140.676919 80.819858 
L 140.737275 79.624601 
L 141.85386 79.624601 
L 141.944394 77.951241 
L 141.944394 77.951241 
L 141.974572 77.951241 
L 142.034928 77.473138 
L 142.427241 77.473138 
L 142.457419 76.755984 
L 142.457419 76.755984 
L 142.608309 76.755984 
L 142.608309 76.516933 
L 142.879911 76.516933 
L 142.879911 76.277881 
L 143.78525 76.277881 
L 143.815428 75.560727 
L 143.815428 75.560727 
L 143.905962 75.560727 
L 143.905962 74.843573 
L 143.905962 74.843573 
L 144.811301 74.843573 
L 144.811301 74.126419 
L 144.811301 74.126419 
L 145.294148 74.126419 
L 145.294148 73.887368 
L 148.161055 73.887368 
L 148.161055 73.648316 
L 148.643902 73.648316 
L 148.643902 72.931162 
L 148.643902 72.931162 
L 149.971732 72.931162 
L 149.971732 72.692111 
L 151.148673 72.692111 
L 151.148673 71.974957 
L 151.148673 71.974957 
L 152.114368 71.974957 
L 152.114368 71.257802 
L 152.114368 71.257802 
L 152.627393 71.257802 
L 152.627393 71.018751 
L 153.080063 71.018751 
L 153.080063 69.823494 
L 153.080063 69.823494 
L 153.230953 69.823494 
L 153.230953 69.10634 
L 153.230953 69.10634 
L 153.532732 69.10634 
L 153.532732 68.389186 
L 153.532732 68.389186 
L 153.683622 68.389186 
L 153.7138 67.193929 
L 153.7138 67.193929 
L 153.834512 67.193929 
L 153.834512 66.954877 
L 154.106114 66.954877 
L 154.136292 65.520569 
L 154.317359 65.520569 
L 154.407893 63.608158 
L 154.407893 63.608158 
L 155.041631 63.608158 
L 155.071809 62.891004 
L 155.433944 62.891004 
L 155.4943 61.934798 
L 156.339283 61.934798 
L 156.339283 61.217644 
L 156.339283 61.217644 
L 156.610885 61.217644 
L 156.610885 60.50049 
L 156.610885 60.50049 
L 156.882486 60.50049 
L 156.97302 58.82713 
L 156.97302 58.82713 
L 157.2748 58.82713 
L 157.2748 58.109976 
L 157.2748 58.109976 
L 158.149961 58.109976 
L 158.180139 57.153771 
L 342.92964 57.153771 
L 342.92964 56.914719 
L 343.714267 56.914719 
L 343.714267 56.675668 
L 350.172351 56.675668 
L 350.172351 56.436617 
L 357.294351 56.436617 
L 357.294351 56.197565 
L 358.19969 56.197565 
L 358.19969 55.958514 
L 364.265461 55.958514 
L 364.265461 55.719462 
L 365.412223 55.719462 
L 365.412223 55.480411 
L 371.206393 55.480411 
L 371.206393 55.24136 
L 372.322977 55.24136 
L 372.322977 55.002308 
L 378.237858 55.002308 
L 378.237858 54.763257 
L 379.535511 54.763257 
L 379.535511 54.524206 
L 385.32968 54.524206 
L 385.32968 54.285154 
L 391.274739 54.285154 
L 391.274739 54.046103 
L 392.481858 54.046103 
L 392.481858 53.807051 
L 398.487273 53.807051 
L 398.487273 53.568 
L 398.487273 53.568 
" clip-path="url(#pf2418dd668)" style="fill: none; stroke: #ff7f0e; stroke-width: 1.5; stroke-linecap: square"/>
   </g>
   <g id="patch_3">
    <path d="M 57.6 307.584 
L 57.6 41.472 
" style="fill: none; stroke: #000000; stroke-width: 0.8; stroke-linejoin: miter; stroke-linecap: square"/>
   </g>
   <g id="patch_4">
    <path d="M 414.72 307.584 
L 414.72 41.472 
" style="fill: none; stroke: #000000; stroke-width: 0.8; stroke-linejoin: miter; stroke-linecap: square"/>
   </g>
   <g id="patch_5">
    <path d="M 57.6 307.584 
L 414.72 307.584 
" style="fill: none; stroke: #000000; stroke-width: 0.8; stroke-linejoin: miter; stroke-linecap: square"/>
   </g>
   <g id="patch_6">
    <path d="M 57.6 41.472 
L 414.72 41.472 
" style="fill: none; stroke: #000000; stroke-width: 0.8; stroke-linejoin: miter; stroke-linecap: square"/>
   </g>
   <g id="text_13">
    <!-- S5 S6 -->
    <g transform="translate(219 35.472) scale(0.12 -0.12)">
     <defs>
      <path id="DejaVuSans-53" d="M 3425 4513 
L 3425 3897 
Q 3066 4069 2747 4153 
Q 2428 4238 2131 4238 
Q 1616 4238 1336 4038 
Q 1056 3838 1056 3469 
Q 1056 3159 1242 3001 
Q 1428 2844 1947 2747 
L 2328 2669 
Q 3034 2534 3370 2195 
Q 3706 1856 3706 1288 
Q 3706 609 3251 259 
Q 2797 -91 1919 -91 
Q 1588 -91 1214 -16 
Q 841 59 441 206 
L 441 856 
Q 825 641 1194 531 
Q 1563 422 1919 422 
Q 2459 422 2753 634 
Q 3047 847 3047 1241 
Q 3047 1584 2836 1778 
Q 2625 1972 2144 2069 
L 1759 2144 
Q 1053 2284 737 2584 
Q 422 2884 422 3419 
Q 422 4038 858 4394 
Q 1294 4750 2059 4750 
Q 2388 4750 2728 4690 
Q 3069 4631 3425 4513 
z
" transform="scale(0.015625)"/>
      <path id="DejaVuSans-35" d="M 691 4666 
L 3169 4666 
L 3169 4134 
L 1269 4134 
L 1269 2991 
Q 1406 3038 1543 3061 
Q 1681 3084 1819 3084 
Q 2600 3084 3056 2656 
Q 3513 2228 3513 1497 
Q 3513 744 3044 326 
Q 2575 -91 1722 -91 
Q 1428 -91 1123 -41 
Q 819 9 494 109 
L 494 744 
Q 775 591 1075 516 
Q 1375 441 1709 441 
Q 2250 441 2565 725 
Q 2881 1009 2881 1497 
Q 2881 1984 2565 2268 
Q 2250 2553 1709 2553 
Q 1456 2553 1204 2497 
Q 953 2441 691 2322 
L 691 4666 
z
" transform="scale(0.015625)"/>
      <path id="DejaVuSans-20" transform="scale(0.015625)"/>
     </defs>
     <use xlink:href="#DejaVuSans-53"/>
     <use xlink:href="#DejaVuSans-35" x="63.476562"/>
     <use xlink:href="#DejaVuSans-20" x="127.099609"/>
     <use xlink:href="#DejaVuSans-53" x="158.886719"/>
     <use xlink:href="#DejaVuSans-36" x="222.363281"/>
    </g>
   </g>
   <g id="legend_1">
    <g id="patch_7">
     <path d="M 88.712813 304.584 
L 410.52 304.584 
Q 411.72 304.584 411.72 303.384 
L 411.72 286.37025 
Q 411.72 285.17025 410.52 285.17025 
L 88.712813 285.17025 
Q 87.512813 285.17025 87.512813 286.37025 
L 87.512813 303.384 
Q 87.512813 304.584 88.712813 304.584 
z
" style="fill: #ffffff; opacity: 0.8; stroke: #cccccc; stroke-linejoin: miter"/>
    </g>
    <g id="line2d_15">
     <path d="M 89.912813 290.029312 
L 95.912813 290.029312 
L 101.912813 290.029312 
" style="fill: none; stroke: #1f77b4; stroke-width: 1.5; stroke-linecap: square"/>
    </g>
    <g id="text_14">
     <!-- Execution time between S5 S6 (xx1xx1xx1xx1xx1xx1xx1xx1xx1) -->
     <g transform="translate(106.712813 292.129312) scale(0.06 -0.06)">
      <defs>
       <path id="DejaVuSans-45" d="M 628 4666 
L 3578 4666 
L 3578 4134 
L 1259 4134 
L 1259 2753 
L 3481 2753 
L 3481 2222 
L 1259 2222 
L 1259 531 
L 3634 531 
L 3634 0 
L 628 0 
L 628 4666 
z
" transform="scale(0.015625)"/>
       <path id="DejaVuSans-78" d="M 3513 3500 
L 2247 1797 
L 3578 0 
L 2900 0 
L 1881 1375 
L 863 0 
L 184 0 
L 1544 1831 
L 300 3500 
L 978 3500 
L 1906 2253 
L 2834 3500 
L 3513 3500 
z
" transform="scale(0.015625)"/>
       <path id="DejaVuSans-65" d="M 3597 1894 
L 3597 1613 
L 953 1613 
Q 991 1019 1311 708 
Q 1631 397 2203 397 
Q 2534 397 2845 478 
Q 3156 559 3463 722 
L 3463 178 
Q 3153 47 2828 -22 
Q 2503 -91 2169 -91 
Q 1331 -91 842 396 
Q 353 884 353 1716 
Q 353 2575 817 3079 
Q 1281 3584 2069 3584 
Q 2775 3584 3186 3129 
Q 3597 2675 3597 1894 
z
M 3022 2063 
Q 3016 2534 2758 2815 
Q 2500 3097 2075 3097 
Q 1594 3097 1305 2825 
Q 1016 2553 972 2059 
L 3022 2063 
z
" transform="scale(0.015625)"/>
       <path id="DejaVuSans-63" d="M 3122 3366 
L 3122 2828 
Q 2878 2963 2633 3030 
Q 2388 3097 2138 3097 
Q 1578 3097 1268 2742 
Q 959 2388 959 1747 
Q 959 1106 1268 751 
Q 1578 397 2138 397 
Q 2388 397 2633 464 
Q 2878 531 3122 666 
L 3122 134 
Q 2881 22 2623 -34 
Q 2366 -91 2075 -91 
Q 1284 -91 818 406 
Q 353 903 353 1747 
Q 353 2603 823 3093 
Q 1294 3584 2113 3584 
Q 2378 3584 2631 3529 
Q 2884 3475 3122 3366 
z
" transform="scale(0.015625)"/>
       <path id="DejaVuSans-75" d="M 544 1381 
L 544 3500 
L 1119 3500 
L 1119 1403 
Q 1119 906 1312 657 
Q 1506 409 1894 409 
Q 2359 409 2629 706 
Q 2900 1003 2900 1516 
L 2900 3500 
L 3475 3500 
L 3475 0 
L 2900 0 
L 2900 538 
Q 2691 219 2414 64 
Q 2138 -91 1772 -91 
Q 1169 -91 856 284 
Q 544 659 544 1381 
z
M 1991 3584 
L 1991 3584 
z
" transform="scale(0.015625)"/>
       <path id="DejaVuSans-74" d="M 1172 4494 
L 1172 3500 
L 2356 3500 
L 2356 3053 
L 1172 3053 
L 1172 1153 
Q 1172 725 1289 603 
Q 1406 481 1766 481 
L 2356 481 
L 2356 0 
L 1766 0 
Q 1100 0 847 248 
Q 594 497 594 1153 
L 594 3053 
L 172 3053 
L 172 3500 
L 594 3500 
L 594 4494 
L 1172 4494 
z
" transform="scale(0.015625)"/>
       <path id="DejaVuSans-69" d="M 603 3500 
L 1178 3500 
L 1178 0 
L 603 0 
L 603 3500 
z
M 603 4863 
L 1178 4863 
L 1178 4134 
L 603 4134 
L 603 4863 
z
" transform="scale(0.015625)"/>
       <path id="DejaVuSans-6f" d="M 1959 3097 
Q 1497 3097 1228 2736 
Q 959 2375 959 1747 
Q 959 1119 1226 758 
Q 1494 397 1959 397 
Q 2419 397 2687 759 
Q 2956 1122 2956 1747 
Q 2956 2369 2687 2733 
Q 2419 3097 1959 3097 
z
M 1959 3584 
Q 2709 3584 3137 3096 
Q 3566 2609 3566 1747 
Q 3566 888 3137 398 
Q 2709 -91 1959 -91 
Q 1206 -91 779 398 
Q 353 888 353 1747 
Q 353 2609 779 3096 
Q 1206 3584 1959 3584 
z
" transform="scale(0.015625)"/>
       <path id="DejaVuSans-6e" d="M 3513 2113 
L 3513 0 
L 2938 0 
L 2938 2094 
Q 2938 2591 2744 2837 
Q 2550 3084 2163 3084 
Q 1697 3084 1428 2787 
Q 1159 2491 1159 1978 
L 1159 0 
L 581 0 
L 581 3500 
L 1159 3500 
L 1159 2956 
Q 1366 3272 1645 3428 
Q 1925 3584 2291 3584 
Q 2894 3584 3203 3211 
Q 3513 2838 3513 2113 
z
" transform="scale(0.015625)"/>
       <path id="DejaVuSans-6d" d="M 3328 2828 
Q 3544 3216 3844 3400 
Q 4144 3584 4550 3584 
Q 5097 3584 5394 3201 
Q 5691 2819 5691 2113 
L 5691 0 
L 5113 0 
L 5113 2094 
Q 5113 2597 4934 2840 
Q 4756 3084 4391 3084 
Q 3944 3084 3684 2787 
Q 3425 2491 3425 1978 
L 3425 0 
L 2847 0 
L 2847 2094 
Q 2847 2600 2669 2842 
Q 2491 3084 2119 3084 
Q 1678 3084 1418 2786 
Q 1159 2488 1159 1978 
L 1159 0 
L 581 0 
L 581 3500 
L 1159 3500 
L 1159 2956 
Q 1356 3278 1631 3431 
Q 1906 3584 2284 3584 
Q 2666 3584 2933 3390 
Q 3200 3197 3328 2828 
z
" transform="scale(0.015625)"/>
       <path id="DejaVuSans-62" d="M 3116 1747 
Q 3116 2381 2855 2742 
Q 2594 3103 2138 3103 
Q 1681 3103 1420 2742 
Q 1159 2381 1159 1747 
Q 1159 1113 1420 752 
Q 1681 391 2138 391 
Q 2594 391 2855 752 
Q 3116 1113 3116 1747 
z
M 1159 2969 
Q 1341 3281 1617 3432 
Q 1894 3584 2278 3584 
Q 2916 3584 3314 3078 
Q 3713 2572 3713 1747 
Q 3713 922 3314 415 
Q 2916 -91 2278 -91 
Q 1894 -91 1617 61 
Q 1341 213 1159 525 
L 1159 0 
L 581 0 
L 581 4863 
L 1159 4863 
L 1159 2969 
z
" transform="scale(0.015625)"/>
       <path id="DejaVuSans-77" d="M 269 3500 
L 844 3500 
L 1563 769 
L 2278 3500 
L 2956 3500 
L 3675 769 
L 4391 3500 
L 4966 3500 
L 4050 0 
L 3372 0 
L 2619 2869 
L 1863 0 
L 1184 0 
L 269 3500 
z
" transform="scale(0.015625)"/>
       <path id="DejaVuSans-28" d="M 1984 4856 
Q 1566 4138 1362 3434 
Q 1159 2731 1159 2009 
Q 1159 1288 1364 580 
Q 1569 -128 1984 -844 
L 1484 -844 
Q 1016 -109 783 600 
Q 550 1309 550 2009 
Q 550 2706 781 3412 
Q 1013 4119 1484 4856 
L 1984 4856 
z
" transform="scale(0.015625)"/>
       <path id="DejaVuSans-29" d="M 513 4856 
L 1013 4856 
Q 1481 4119 1714 3412 
Q 1947 2706 1947 2009 
Q 1947 1309 1714 600 
Q 1481 -109 1013 -844 
L 513 -844 
Q 928 -128 1133 580 
Q 1338 1288 1338 2009 
Q 1338 2731 1133 3434 
Q 928 4138 513 4856 
z
" transform="scale(0.015625)"/>
      </defs>
      <use xlink:href="#DejaVuSans-45"/>
      <use xlink:href="#DejaVuSans-78" x="63.183594"/>
      <use xlink:href="#DejaVuSans-65" x="119.238281"/>
      <use xlink:href="#DejaVuSans-63" x="180.761719"/>
      <use xlink:href="#DejaVuSans-75" x="235.742188"/>
      <use xlink:href="#DejaVuSans-74" x="299.121094"/>
      <use xlink:href="#DejaVuSans-69" x="338.330078"/>
      <use xlink:href="#DejaVuSans-6f" x="366.113281"/>
      <use xlink:href="#DejaVuSans-6e" x="427.294922"/>
      <use xlink:href="#DejaVuSans-20" x="490.673828"/>
      <use xlink:href="#DejaVuSans-74" x="522.460938"/>
      <use xlink:href="#DejaVuSans-69" x="561.669922"/>
      <use xlink:href="#DejaVuSans-6d" x="589.453125"/>
      <use xlink:href="#DejaVuSans-65" x="686.865234"/>
      <use xlink:href="#DejaVuSans-20" x="748.388672"/>
      <use xlink:href="#DejaVuSans-62" x="780.175781"/>
      <use xlink:href="#DejaVuSans-65" x="843.652344"/>
      <use xlink:href="#DejaVuSans-74" x="905.175781"/>
      <use xlink:href="#DejaVuSans-77" x="944.384766"/>
      <use xlink:href="#DejaVuSans-65" x="1026.171875"/>
      <use xlink:href="#DejaVuSans-65" x="1087.695312"/>
      <use xlink:href="#DejaVuSans-6e" x="1149.21875"/>
      <use xlink:href="#DejaVuSans-20" x="1212.597656"/>
      <use xlink:href="#DejaVuSans-53" x="1244.384766"/>
      <use xlink:href="#DejaVuSans-35" x="1307.861328"/>
      <use xlink:href="#DejaVuSans-20" x="1371.484375"/>
      <use xlink:href="#DejaVuSans-53" x="1403.271484"/>
      <use xlink:href="#DejaVuSans-36" x="1466.748047"/>
      <use xlink:href="#DejaVuSans-20" x="1530.371094"/>
      <use xlink:href="#DejaVuSans-28" x="1562.158203"/>
      <use xlink:href="#DejaVuSans-78" x="1601.171875"/>
      <use xlink:href="#DejaVuSans-78" x="1660.351562"/>
      <use xlink:href="#DejaVuSans-31" x="1719.53125"/>
      <use xlink:href="#DejaVuSans-78" x="1783.154297"/>
      <use xlink:href="#DejaVuSans-78" x="1842.333984"/>
      <use xlink:href="#DejaVuSans-31" x="1901.513672"/>
      <use xlink:href="#DejaVuSans-78" x="1965.136719"/>
      <use xlink:href="#DejaVuSans-78" x="2024.316406"/>
      <use xlink:href="#DejaVuSans-31" x="2083.496094"/>
      <use xlink:href="#DejaVuSans-78" x="2147.119141"/>
      <use xlink:href="#DejaVuSans-78" x="2206.298828"/>
      <use xlink:href="#DejaVuSans-31" x="2265.478516"/>
      <use xlink:href="#DejaVuSans-78" x="2329.101562"/>
      <use xlink:href="#DejaVuSans-78" x="2388.28125"/>
      <use xlink:href="#DejaVuSans-31" x="2447.460938"/>
      <use xlink:href="#DejaVuSans-78" x="2511.083984"/>
      <use xlink:href="#DejaVuSans-78" x="2570.263672"/>
      <use xlink:href="#DejaVuSans-31" x="2629.443359"/>
      <use xlink:href="#DejaVuSans-78" x="2693.066406"/>
      <use xlink:href="#DejaVuSans-78" x="2752.246094"/>
      <use xlink:href="#DejaVuSans-31" x="2811.425781"/>
      <use xlink:href="#DejaVuSans-78" x="2875.048828"/>
      <use xlink:href="#DejaVuSans-78" x="2934.228516"/>
      <use xlink:href="#DejaVuSans-31" x="2993.408203"/>
      <use xlink:href="#DejaVuSans-78" x="3057.03125"/>
      <use xlink:href="#DejaVuSans-78" x="3116.210938"/>
      <use xlink:href="#DejaVuSans-31" x="3175.390625"/>
      <use xlink:href="#DejaVuSans-29" x="3239.013672"/>
     </g>
    </g>
    <g id="line2d_16">
     <path d="M 89.912813 298.836187 
L 95.912813 298.836187 
L 101.912813 298.836187 
" style="fill: none; stroke: #ff7f0e; stroke-width: 1.5; stroke-linecap: square"/>
    </g>
    <g id="text_15">
     <!-- Execution time between S5 S6 (xx1xx2xx0yyy45xx0yyy45xx0yyy3xx1xx0yyy45xx0yyy45xx0yyy45) -->
     <g transform="translate(106.712813 300.936187) scale(0.06 -0.06)">
      <defs>
       <path id="DejaVuSans-79" d="M 2059 -325 
Q 1816 -950 1584 -1140 
Q 1353 -1331 966 -1331 
L 506 -1331 
L 506 -850 
L 844 -850 
Q 1081 -850 1212 -737 
Q 1344 -625 1503 -206 
L 1606 56 
L 191 3500 
L 800 3500 
L 1894 763 
L 2988 3500 
L 3597 3500 
L 2059 -325 
z
" transform="scale(0.015625)"/>
       <path id="DejaVuSans-33" d="M 2597 2516 
Q 3050 2419 3304 2112 
Q 3559 1806 3559 1356 
Q 3559 666 3084 287 
Q 2609 -91 1734 -91 
Q 1441 -91 1130 -33 
Q 819 25 488 141 
L 488 750 
Q 750 597 1062 519 
Q 1375 441 1716 441 
Q 2309 441 2620 675 
Q 2931 909 2931 1356 
Q 2931 1769 2642 2001 
Q 2353 2234 1838 2234 
L 1294 2234 
L 1294 2753 
L 1863 2753 
Q 2328 2753 2575 2939 
Q 2822 3125 2822 3475 
Q 2822 3834 2567 4026 
Q 2313 4219 1838 4219 
Q 1578 4219 1281 4162 
Q 984 4106 628 3988 
L 628 4550 
Q 988 4650 1302 4700 
Q 1616 4750 1894 4750 
Q 2613 4750 3031 4423 
Q 3450 4097 3450 3541 
Q 3450 3153 3228 2886 
Q 3006 2619 2597 2516 
z
" transform="scale(0.015625)"/>
      </defs>
      <use xlink:href="#DejaVuSans-45"/>
      <use xlink:href="#DejaVuSans-78" x="63.183594"/>
      <use xlink:href="#DejaVuSans-65" x="119.238281"/>
      <use xlink:href="#DejaVuSans-63" x="180.761719"/>
      <use xlink:href="#DejaVuSans-75" x="235.742188"/>
      <use xlink:href="#DejaVuSans-74" x="299.121094"/>
      <use xlink:href="#DejaVuSans-69" x="338.330078"/>
      <use xlink:href="#DejaVuSans-6f" x="366.113281"/>
      <use xlink:href="#DejaVuSans-6e" x="427.294922"/>
      <use xlink:href="#DejaVuSans-20" x="490.673828"/>
      <use xlink:href="#DejaVuSans-74" x="522.460938"/>
      <use xlink:href="#DejaVuSans-69" x="561.669922"/>
      <use xlink:href="#DejaVuSans-6d" x="589.453125"/>
      <use xlink:href="#DejaVuSans-65" x="686.865234"/>
      <use xlink:href="#DejaVuSans-20" x="748.388672"/>
      <use xlink:href="#DejaVuSans-62" x="780.175781"/>
      <use xlink:href="#DejaVuSans-65" x="843.652344"/>
      <use xlink:href="#DejaVuSans-74" x="905.175781"/>
      <use xlink:href="#DejaVuSans-77" x="944.384766"/>
      <use xlink:href="#DejaVuSans-65" x="1026.171875"/>
      <use xlink:href="#DejaVuSans-65" x="1087.695312"/>
      <use xlink:href="#DejaVuSans-6e" x="1149.21875"/>
      <use xlink:href="#DejaVuSans-20" x="1212.597656"/>
      <use xlink:href="#DejaVuSans-53" x="1244.384766"/>
      <use xlink:href="#DejaVuSans-35" x="1307.861328"/>
      <use xlink:href="#DejaVuSans-20" x="1371.484375"/>
      <use xlink:href="#DejaVuSans-53" x="1403.271484"/>
      <use xlink:href="#DejaVuSans-36" x="1466.748047"/>
      <use xlink:href="#DejaVuSans-20" x="1530.371094"/>
      <use xlink:href="#DejaVuSans-28" x="1562.158203"/>
      <use xlink:href="#DejaVuSans-78" x="1601.171875"/>
      <use xlink:href="#DejaVuSans-78" x="1660.351562"/>
      <use xlink:href="#DejaVuSans-31" x="1719.53125"/>
      <use xlink:href="#DejaVuSans-78" x="1783.154297"/>
      <use xlink:href="#DejaVuSans-78" x="1842.333984"/>
      <use xlink:href="#DejaVuSans-32" x="1901.513672"/>
      <use xlink:href="#DejaVuSans-78" x="1965.136719"/>
      <use xlink:href="#DejaVuSans-78" x="2024.316406"/>
      <use xlink:href="#DejaVuSans-30" x="2083.496094"/>
      <use xlink:href="#DejaVuSans-79" x="2147.119141"/>
      <use xlink:href="#DejaVuSans-79" x="2206.298828"/>
      <use xlink:href="#DejaVuSans-79" x="2265.478516"/>
      <use xlink:href="#DejaVuSans-34" x="2324.658203"/>
      <use xlink:href="#DejaVuSans-35" x="2388.28125"/>
      <use xlink:href="#DejaVuSans-78" x="2451.904297"/>
      <use xlink:href="#DejaVuSans-78" x="2511.083984"/>
      <use xlink:href="#DejaVuSans-30" x="2570.263672"/>
      <use xlink:href="#DejaVuSans-79" x="2633.886719"/>
      <use xlink:href="#DejaVuSans-79" x="2693.066406"/>
      <use xlink:href="#DejaVuSans-79" x="2752.246094"/>
      <use xlink:href="#DejaVuSans-34" x="2811.425781"/>
      <use xlink:href="#DejaVuSans-35" x="2875.048828"/>
      <use xlink:href="#DejaVuSans-78" x="2938.671875"/>
      <use xlink:href="#DejaVuSans-78" x="2997.851562"/>
      <use xlink:href="#DejaVuSans-30" x="3057.03125"/>
      <use xlink:href="#DejaVuSans-79" x="3120.654297"/>
      <use xlink:href="#DejaVuSans-79" x="3179.833984"/>
      <use xlink:href="#DejaVuSans-79" x="3239.013672"/>
      <use xlink:href="#DejaVuSans-33" x="3298.193359"/>
      <use xlink:href="#DejaVuSans-78" x="3361.816406"/>
      <use xlink:href="#DejaVuSans-78" x="3420.996094"/>
      <use xlink:href="#DejaVuSans-31" x="3480.175781"/>
      <use xlink:href="#DejaVuSans-78" x="3543.798828"/>
      <use xlink:href="#DejaVuSans-78" x="3602.978516"/>
      <use xlink:href="#DejaVuSans-30" x="3662.158203"/>
      <use xlink:href="#DejaVuSans-79" x="3725.78125"/>
      <use xlink:href="#DejaVuSans-79" x="3784.960938"/>
      <use xlink:href="#DejaVuSans-79" x="3844.140625"/>
      <use xlink:href="#DejaVuSans-34" x="3903.320312"/>
      <use xlink:href="#DejaVuSans-35" x="3966.943359"/>
      <use xlink:href="#DejaVuSans-78" x="4030.566406"/>
      <use xlink:href="#DejaVuSans-78" x="4089.746094"/>
      <use xlink:href="#DejaVuSans-30" x="4148.925781"/>
      <use xlink:href="#DejaVuSans-79" x="4212.548828"/>
      <use xlink:href="#DejaVuSans-79" x="4271.728516"/>
      <use xlink:href="#DejaVuSans-79" x="4330.908203"/>
      <use xlink:href="#DejaVuSans-34" x="4390.087891"/>
      <use xlink:href="#DejaVuSans-35" x="4453.710938"/>
      <use xlink:href="#DejaVuSans-78" x="4517.333984"/>
      <use xlink:href="#DejaVuSans-78" x="4576.513672"/>
      <use xlink:href="#DejaVuSans-30" x="4635.693359"/>
      <use xlink:href="#DejaVuSans-79" x="4699.316406"/>
      <use xlink:href="#DejaVuSans-79" x="4758.496094"/>
      <use xlink:href="#DejaVuSans-79" x="4817.675781"/>
      <use xlink:href="#DejaVuSans-34" x="4876.855469"/>
      <use xlink:href="#DejaVuSans-35" x="4940.478516"/>
      <use xlink:href="#DejaVuSans-29" x="5004.101562"/>
     </g>
    </g>
   </g>
  </g>
 </g>
 <defs>
  <clipPath id="pf2418dd668">
   <rect x="57.6" y="41.472" width="357.12" height="266.112"/>
  </clipPath>
 </defs>
</svg>
