<?xml version="1.0" encoding="utf-8" standalone="no"?>
<!DOCTYPE svg PUBLIC "-//W3C//DTD SVG 1.1//EN"
  "http://www.w3.org/Graphics/SVG/1.1/DTD/svg11.dtd">
<svg xmlns:xlink="http://www.w3.org/1999/xlink" width="460.8pt" height="345.6pt" viewBox="0 0 460.8 345.6" xmlns="http://www.w3.org/2000/svg" version="1.1">
 <metadata>
  <rdf:RDF xmlns:dc="http://purl.org/dc/elements/1.1/" xmlns:cc="http://creativecommons.org/ns#" xmlns:rdf="http://www.w3.org/1999/02/22-rdf-syntax-ns#">
   <cc:Work>
    <dc:type rdf:resource="http://purl.org/dc/dcmitype/StillImage"/>
    <dc:date>2024-03-08T11:29:26.161514</dc:date>
    <dc:format>image/svg+xml</dc:format>
    <dc:creator>
     <cc:Agent>
      <dc:title>Matplotlib v3.8.2, https://matplotlib.org/</dc:title>
     </cc:Agent>
    </dc:creator>
   </cc:Work>
  </rdf:RDF>
 </metadata>
 <defs>
  <style type="text/css">*{stroke-linejoin: round; stroke-linecap: butt}</style>
 </defs>
 <g id="figure_1">
  <g id="patch_1">
   <path d="M 0 345.6 
L 460.8 345.6 
L 460.8 0 
L 0 0 
z
" style="fill: #ffffff"/>
  </g>
  <g id="axes_1">
   <g id="patch_2">
    <path d="M 57.6 307.584 
L 414.72 307.584 
L 414.72 41.472 
L 57.6 41.472 
z
" style="fill: #ffffff"/>
   </g>
   <g id="matplotlib.axis_1">
    <g id="xtick_1">
     <g id="line2d_1">
      <defs>
       <path id="m1a90db1d29" d="M 0 0 
L 0 3.5 
" style="stroke: #000000; stroke-width: 0.8"/>
      </defs>
      <g>
       <use xlink:href="#m1a90db1d29" x="73.832727" y="307.584" style="stroke: #000000; stroke-width: 0.8"/>
      </g>
     </g>
     <g id="text_1">
      <!-- 0 -->
      <g transform="translate(70.651477 322.182437) scale(0.1 -0.1)">
       <defs>
        <path id="DejaVuSans-30" d="M 2034 4250 
Q 1547 4250 1301 3770 
Q 1056 3291 1056 2328 
Q 1056 1369 1301 889 
Q 1547 409 2034 409 
Q 2525 409 2770 889 
Q 3016 1369 3016 2328 
Q 3016 3291 2770 3770 
Q 2525 4250 2034 4250 
z
M 2034 4750 
Q 2819 4750 3233 4129 
Q 3647 3509 3647 2328 
Q 3647 1150 3233 529 
Q 2819 -91 2034 -91 
Q 1250 -91 836 529 
Q 422 1150 422 2328 
Q 422 3509 836 4129 
Q 1250 4750 2034 4750 
z
" transform="scale(0.015625)"/>
       </defs>
       <use xlink:href="#DejaVuSans-30"/>
      </g>
     </g>
    </g>
    <g id="xtick_2">
     <g id="line2d_2">
      <g>
       <use xlink:href="#m1a90db1d29" x="129.305524" y="307.584" style="stroke: #000000; stroke-width: 0.8"/>
      </g>
     </g>
     <g id="text_2">
      <!-- 20000 -->
      <g transform="translate(113.399274 322.182437) scale(0.1 -0.1)">
       <defs>
        <path id="DejaVuSans-32" d="M 1228 531 
L 3431 531 
L 3431 0 
L 469 0 
L 469 531 
Q 828 903 1448 1529 
Q 2069 2156 2228 2338 
Q 2531 2678 2651 2914 
Q 2772 3150 2772 3378 
Q 2772 3750 2511 3984 
Q 2250 4219 1831 4219 
Q 1534 4219 1204 4116 
Q 875 4013 500 3803 
L 500 4441 
Q 881 4594 1212 4672 
Q 1544 4750 1819 4750 
Q 2544 4750 2975 4387 
Q 3406 4025 3406 3419 
Q 3406 3131 3298 2873 
Q 3191 2616 2906 2266 
Q 2828 2175 2409 1742 
Q 1991 1309 1228 531 
z
" transform="scale(0.015625)"/>
       </defs>
       <use xlink:href="#DejaVuSans-32"/>
       <use xlink:href="#DejaVuSans-30" x="63.623047"/>
       <use xlink:href="#DejaVuSans-30" x="127.246094"/>
       <use xlink:href="#DejaVuSans-30" x="190.869141"/>
       <use xlink:href="#DejaVuSans-30" x="254.492188"/>
      </g>
     </g>
    </g>
    <g id="xtick_3">
     <g id="line2d_3">
      <g>
       <use xlink:href="#m1a90db1d29" x="184.778322" y="307.584" style="stroke: #000000; stroke-width: 0.8"/>
      </g>
     </g>
     <g id="text_3">
      <!-- 40000 -->
      <g transform="translate(168.872072 322.182437) scale(0.1 -0.1)">
       <defs>
        <path id="DejaVuSans-34" d="M 2419 4116 
L 825 1625 
L 2419 1625 
L 2419 4116 
z
M 2253 4666 
L 3047 4666 
L 3047 1625 
L 3713 1625 
L 3713 1100 
L 3047 1100 
L 3047 0 
L 2419 0 
L 2419 1100 
L 313 1100 
L 313 1709 
L 2253 4666 
z
" transform="scale(0.015625)"/>
       </defs>
       <use xlink:href="#DejaVuSans-34"/>
       <use xlink:href="#DejaVuSans-30" x="63.623047"/>
       <use xlink:href="#DejaVuSans-30" x="127.246094"/>
       <use xlink:href="#DejaVuSans-30" x="190.869141"/>
       <use xlink:href="#DejaVuSans-30" x="254.492188"/>
      </g>
     </g>
    </g>
    <g id="xtick_4">
     <g id="line2d_4">
      <g>
       <use xlink:href="#m1a90db1d29" x="240.251119" y="307.584" style="stroke: #000000; stroke-width: 0.8"/>
      </g>
     </g>
     <g id="text_4">
      <!-- 60000 -->
      <g transform="translate(224.344869 322.182437) scale(0.1 -0.1)">
       <defs>
        <path id="DejaVuSans-36" d="M 2113 2584 
Q 1688 2584 1439 2293 
Q 1191 2003 1191 1497 
Q 1191 994 1439 701 
Q 1688 409 2113 409 
Q 2538 409 2786 701 
Q 3034 994 3034 1497 
Q 3034 2003 2786 2293 
Q 2538 2584 2113 2584 
z
M 3366 4563 
L 3366 3988 
Q 3128 4100 2886 4159 
Q 2644 4219 2406 4219 
Q 1781 4219 1451 3797 
Q 1122 3375 1075 2522 
Q 1259 2794 1537 2939 
Q 1816 3084 2150 3084 
Q 2853 3084 3261 2657 
Q 3669 2231 3669 1497 
Q 3669 778 3244 343 
Q 2819 -91 2113 -91 
Q 1303 -91 875 529 
Q 447 1150 447 2328 
Q 447 3434 972 4092 
Q 1497 4750 2381 4750 
Q 2619 4750 2861 4703 
Q 3103 4656 3366 4563 
z
" transform="scale(0.015625)"/>
       </defs>
       <use xlink:href="#DejaVuSans-36"/>
       <use xlink:href="#DejaVuSans-30" x="63.623047"/>
       <use xlink:href="#DejaVuSans-30" x="127.246094"/>
       <use xlink:href="#DejaVuSans-30" x="190.869141"/>
       <use xlink:href="#DejaVuSans-30" x="254.492188"/>
      </g>
     </g>
    </g>
    <g id="xtick_5">
     <g id="line2d_5">
      <g>
       <use xlink:href="#m1a90db1d29" x="295.723916" y="307.584" style="stroke: #000000; stroke-width: 0.8"/>
      </g>
     </g>
     <g id="text_5">
      <!-- 80000 -->
      <g transform="translate(279.817666 322.182437) scale(0.1 -0.1)">
       <defs>
        <path id="DejaVuSans-38" d="M 2034 2216 
Q 1584 2216 1326 1975 
Q 1069 1734 1069 1313 
Q 1069 891 1326 650 
Q 1584 409 2034 409 
Q 2484 409 2743 651 
Q 3003 894 3003 1313 
Q 3003 1734 2745 1975 
Q 2488 2216 2034 2216 
z
M 1403 2484 
Q 997 2584 770 2862 
Q 544 3141 544 3541 
Q 544 4100 942 4425 
Q 1341 4750 2034 4750 
Q 2731 4750 3128 4425 
Q 3525 4100 3525 3541 
Q 3525 3141 3298 2862 
Q 3072 2584 2669 2484 
Q 3125 2378 3379 2068 
Q 3634 1759 3634 1313 
Q 3634 634 3220 271 
Q 2806 -91 2034 -91 
Q 1263 -91 848 271 
Q 434 634 434 1313 
Q 434 1759 690 2068 
Q 947 2378 1403 2484 
z
M 1172 3481 
Q 1172 3119 1398 2916 
Q 1625 2713 2034 2713 
Q 2441 2713 2670 2916 
Q 2900 3119 2900 3481 
Q 2900 3844 2670 4047 
Q 2441 4250 2034 4250 
Q 1625 4250 1398 4047 
Q 1172 3844 1172 3481 
z
" transform="scale(0.015625)"/>
       </defs>
       <use xlink:href="#DejaVuSans-38"/>
       <use xlink:href="#DejaVuSans-30" x="63.623047"/>
       <use xlink:href="#DejaVuSans-30" x="127.246094"/>
       <use xlink:href="#DejaVuSans-30" x="190.869141"/>
       <use xlink:href="#DejaVuSans-30" x="254.492188"/>
      </g>
     </g>
    </g>
    <g id="xtick_6">
     <g id="line2d_6">
      <g>
       <use xlink:href="#m1a90db1d29" x="351.196713" y="307.584" style="stroke: #000000; stroke-width: 0.8"/>
      </g>
     </g>
     <g id="text_6">
      <!-- 100000 -->
      <g transform="translate(332.109213 322.182437) scale(0.1 -0.1)">
       <defs>
        <path id="DejaVuSans-31" d="M 794 531 
L 1825 531 
L 1825 4091 
L 703 3866 
L 703 4441 
L 1819 4666 
L 2450 4666 
L 2450 531 
L 3481 531 
L 3481 0 
L 794 0 
L 794 531 
z
" transform="scale(0.015625)"/>
       </defs>
       <use xlink:href="#DejaVuSans-31"/>
       <use xlink:href="#DejaVuSans-30" x="63.623047"/>
       <use xlink:href="#DejaVuSans-30" x="127.246094"/>
       <use xlink:href="#DejaVuSans-30" x="190.869141"/>
       <use xlink:href="#DejaVuSans-30" x="254.492188"/>
       <use xlink:href="#DejaVuSans-30" x="318.115234"/>
      </g>
     </g>
    </g>
    <g id="xtick_7">
     <g id="line2d_7">
      <g>
       <use xlink:href="#m1a90db1d29" x="406.66951" y="307.584" style="stroke: #000000; stroke-width: 0.8"/>
      </g>
     </g>
     <g id="text_7">
      <!-- 120000 -->
      <g transform="translate(387.58201 322.182437) scale(0.1 -0.1)">
       <use xlink:href="#DejaVuSans-31"/>
       <use xlink:href="#DejaVuSans-32" x="63.623047"/>
       <use xlink:href="#DejaVuSans-30" x="127.246094"/>
       <use xlink:href="#DejaVuSans-30" x="190.869141"/>
       <use xlink:href="#DejaVuSans-30" x="254.492188"/>
       <use xlink:href="#DejaVuSans-30" x="318.115234"/>
      </g>
     </g>
    </g>
   </g>
   <g id="matplotlib.axis_2">
    <g id="ytick_1">
     <g id="line2d_8">
      <defs>
       <path id="mbacffb8084" d="M 0 0 
L -3.5 0 
" style="stroke: #000000; stroke-width: 0.8"/>
      </defs>
      <g>
       <use xlink:href="#mbacffb8084" x="57.6" y="295.488" style="stroke: #000000; stroke-width: 0.8"/>
      </g>
     </g>
     <g id="text_8">
      <!-- 0.0 -->
      <g transform="translate(34.696875 299.287219) scale(0.1 -0.1)">
       <defs>
        <path id="DejaVuSans-2e" d="M 684 794 
L 1344 794 
L 1344 0 
L 684 0 
L 684 794 
z
" transform="scale(0.015625)"/>
       </defs>
       <use xlink:href="#DejaVuSans-30"/>
       <use xlink:href="#DejaVuSans-2e" x="63.623047"/>
       <use xlink:href="#DejaVuSans-30" x="95.410156"/>
      </g>
     </g>
    </g>
    <g id="ytick_2">
     <g id="line2d_9">
      <g>
       <use xlink:href="#mbacffb8084" x="57.6" y="247.104" style="stroke: #000000; stroke-width: 0.8"/>
      </g>
     </g>
     <g id="text_9">
      <!-- 0.2 -->
      <g transform="translate(34.696875 250.903219) scale(0.1 -0.1)">
       <use xlink:href="#DejaVuSans-30"/>
       <use xlink:href="#DejaVuSans-2e" x="63.623047"/>
       <use xlink:href="#DejaVuSans-32" x="95.410156"/>
      </g>
     </g>
    </g>
    <g id="ytick_3">
     <g id="line2d_10">
      <g>
       <use xlink:href="#mbacffb8084" x="57.6" y="198.72" style="stroke: #000000; stroke-width: 0.8"/>
      </g>
     </g>
     <g id="text_10">
      <!-- 0.4 -->
      <g transform="translate(34.696875 202.519219) scale(0.1 -0.1)">
       <use xlink:href="#DejaVuSans-30"/>
       <use xlink:href="#DejaVuSans-2e" x="63.623047"/>
       <use xlink:href="#DejaVuSans-34" x="95.410156"/>
      </g>
     </g>
    </g>
    <g id="ytick_4">
     <g id="line2d_11">
      <g>
       <use xlink:href="#mbacffb8084" x="57.6" y="150.336" style="stroke: #000000; stroke-width: 0.8"/>
      </g>
     </g>
     <g id="text_11">
      <!-- 0.6 -->
      <g transform="translate(34.696875 154.135219) scale(0.1 -0.1)">
       <use xlink:href="#DejaVuSans-30"/>
       <use xlink:href="#DejaVuSans-2e" x="63.623047"/>
       <use xlink:href="#DejaVuSans-36" x="95.410156"/>
      </g>
     </g>
    </g>
    <g id="ytick_5">
     <g id="line2d_12">
      <g>
       <use xlink:href="#mbacffb8084" x="57.6" y="101.952" style="stroke: #000000; stroke-width: 0.8"/>
      </g>
     </g>
     <g id="text_12">
      <!-- 0.8 -->
      <g transform="translate(34.696875 105.751219) scale(0.1 -0.1)">
       <use xlink:href="#DejaVuSans-30"/>
       <use xlink:href="#DejaVuSans-2e" x="63.623047"/>
       <use xlink:href="#DejaVuSans-38" x="95.410156"/>
      </g>
     </g>
    </g>
    <g id="ytick_6">
     <g id="line2d_13">
      <g>
       <use xlink:href="#mbacffb8084" x="57.6" y="53.568" style="stroke: #000000; stroke-width: 0.8"/>
      </g>
     </g>
     <g id="text_13">
      <!-- 1.0 -->
      <g transform="translate(34.696875 57.367219) scale(0.1 -0.1)">
       <use xlink:href="#DejaVuSans-31"/>
       <use xlink:href="#DejaVuSans-2e" x="63.623047"/>
       <use xlink:href="#DejaVuSans-30" x="95.410156"/>
      </g>
     </g>
    </g>
   </g>
   <g id="line2d_14">
    <path d="M 73.832727 295.488 
L 82.12591 295.488 
L 82.153647 86.637798 
L 82.153647 86.637798 
L 83.374048 86.637798 
L 83.374048 86.415853 
L 87.201671 86.415853 
L 87.284881 85.971963 
L 87.36809 85.971963 
L 87.36809 85.750018 
L 88.394337 85.750018 
L 88.449809 85.084183 
L 88.449809 85.084183 
L 88.616228 85.084183 
L 88.616228 84.862239 
L 91.084767 84.862239 
L 91.084767 84.640294 
L 93.691989 84.640294 
L 93.691989 84.418349 
L 98.76775 84.418349 
L 98.76775 84.196404 
L 103.954456 84.196404 
L 103.954456 83.974459 
L 107.338297 83.974459 
L 107.338297 83.752514 
L 109.335317 83.752514 
L 109.335317 83.530569 
L 114.411078 83.530569 
L 114.411078 83.308624 
L 114.605233 83.308624 
L 114.605233 83.086679 
L 115.93658 83.086679 
L 115.93658 82.864734 
L 119.708731 82.864734 
L 119.708731 82.642789 
L 122.981626 82.642789 
L 122.981626 82.420844 
L 124.867701 82.420844 
L 124.895437 81.976954 
L 129.41647 81.976954 
L 129.41647 81.755009 
L 129.860252 81.755009 
L 129.860252 81.533064 
L 130.248562 81.533064 
L 130.248562 81.311119 
L 130.886499 81.311119 
L 130.886499 81.089174 
L 131.829537 81.089174 
L 131.829537 80.867229 
L 133.715612 80.867229 
L 133.715612 80.645284 
L 134.96375 80.645284 
L 134.96375 80.423339 
L 135.463005 80.423339 
L 135.463005 80.201394 
L 135.712633 80.201394 
L 135.712633 79.97945 
L 135.989997 79.97945 
L 135.989997 79.757505 
L 140.094983 79.757505 
L 140.094983 79.53556 
L 140.649711 79.53556 
L 140.649711 79.313615 
L 141.204439 79.313615 
L 141.204439 79.09167 
L 142.175213 79.09167 
L 142.175213 78.869725 
L 142.50805 78.869725 
L 142.50805 78.64778 
L 145.28169 78.64778 
L 145.28169 78.425835 
L 145.891891 78.425835 
L 145.891891 78.20389 
L 146.557564 78.20389 
L 146.557564 77.981945 
L 148.74874 77.981945 
L 148.74874 77.76 
L 150.412924 77.76 
L 150.412924 77.538055 
L 151.078597 77.538055 
L 151.078597 77.31611 
L 151.272752 77.31611 
L 151.272752 77.094165 
L 151.82748 77.094165 
L 151.82748 76.87222 
L 155.322266 76.87222 
L 155.322266 76.650275 
L 155.544158 76.650275 
L 155.544158 76.42833 
L 156.182095 76.42833 
L 156.182095 76.206385 
L 157.152869 76.206385 
L 157.152869 75.98444 
L 160.092927 75.98444 
L 160.092927 75.762495 
L 160.619918 75.762495 
L 160.675391 75.318606 
L 161.45201 75.318606 
L 161.45201 75.096661 
L 161.701638 75.096661 
L 161.701638 74.874716 
L 161.868056 74.874716 
L 161.868056 74.652771 
L 162.367312 74.652771 
L 162.367312 74.430826 
L 165.806625 74.430826 
L 165.806625 74.208881 
L 167.526282 74.208881 
L 167.526282 73.986936 
L 168.191955 73.986936 
L 168.191955 73.764991 
L 168.441583 73.764991 
L 168.441583 73.543046 
L 168.857629 73.543046 
L 168.857629 73.321101 
L 169.356884 73.321101 
L 169.356884 73.099156 
L 171.021068 73.099156 
L 171.021068 72.877211 
L 172.685252 72.877211 
L 172.685252 72.655266 
L 174.682273 72.655266 
L 174.682273 72.433321 
L 174.959637 72.433321 
L 174.959637 72.211376 
L 176.290984 72.211376 
L 176.290984 71.989431 
L 177.761013 71.989431 
L 177.761013 71.767486 
L 178.01064 71.767486 
L 178.01064 71.545541 
L 178.232532 71.545541 
L 178.232532 71.323596 
L 180.063134 71.323596 
L 180.063134 71.101651 
L 181.228063 71.101651 
L 181.228063 70.879706 
L 181.422217 70.879706 
L 181.533163 70.435817 
L 183.225083 70.435817 
L 183.225083 70.213872 
L 186.63666 70.213872 
L 186.63666 69.991927 
L 187.33007 69.991927 
L 187.33007 69.769982 
L 187.71838 69.769982 
L 187.71838 69.548037 
L 187.940271 69.548037 
L 187.940271 69.326092 
L 188.522735 69.326092 
L 188.522735 69.104147 
L 191.740158 69.104147 
L 191.740158 68.882202 
L 193.792651 68.882202 
L 193.792651 68.660257 
L 194.291906 68.660257 
L 194.291906 68.438312 
L 194.541534 68.438312 
L 194.541534 68.216367 
L 196.427609 68.216367 
L 196.427609 67.994422 
L 197.03781 67.994422 
L 197.03781 67.772477 
L 199.03483 67.772477 
L 199.03483 67.550532 
L 200.754487 67.550532 
L 200.754487 67.328587 
L 200.948642 67.328587 
L 200.948642 67.106642 
L 202.335462 67.106642 
L 202.335462 66.884697 
L 204.193801 66.884697 
L 204.193801 66.662752 
L 205.27552 66.662752 
L 205.27552 66.440807 
L 207.272541 66.440807 
L 207.272541 66.218862 
L 207.577641 66.218862 
L 207.605378 65.774972 
L 209.463716 65.774972 
L 209.463716 65.553028 
L 212.736611 65.553028 
L 212.736611 65.331083 
L 213.735122 65.331083 
L 213.735122 65.109138 
L 214.123431 65.109138 
L 214.123431 64.665248 
L 214.123431 64.665248 
L 214.650423 64.665248 
L 214.650423 64.443303 
L 217.895582 64.443303 
L 217.895582 64.221358 
L 219.809393 64.221358 
L 219.809393 63.999413 
L 220.225439 63.999413 
L 220.225439 63.777468 
L 220.641485 63.777468 
L 220.641485 63.555523 
L 223.082288 63.555523 
L 223.082288 63.333578 
L 223.248706 63.333578 
L 223.248706 63.111633 
L 225.079309 63.111633 
L 225.079309 62.889688 
L 226.743493 62.889688 
L 226.743493 62.667743 
L 227.076329 62.667743 
L 227.076329 62.445798 
L 228.352204 62.445798 
L 228.352204 62.223853 
L 230.238279 62.223853 
L 230.238279 62.001908 
L 231.874726 62.001908 
L 231.874726 61.779963 
L 233.400228 61.779963 
L 233.427965 61.336073 
L 233.788538 61.336073 
L 233.788538 61.114128 
L 235.369513 61.114128 
L 235.369513 60.892183 
L 238.614671 60.892183 
L 238.614671 60.670239 
L 238.947508 60.670239 
L 238.947508 60.448294 
L 239.946018 60.448294 
L 239.946018 60.226349 
L 240.278855 60.226349 
L 240.278855 60.004404 
L 240.556219 60.004404 
L 240.556219 59.782459 
L 240.722638 59.782459 
L 240.722638 59.560514 
L 245.715189 59.560514 
L 245.715189 59.338569 
L 275.781445 59.338569 
L 275.781445 59.116624 
L 284.462938 59.116624 
L 284.462938 58.894679 
L 293.061222 58.894679 
L 293.061222 58.672734 
L 293.865577 58.672734 
L 293.865577 58.450789 
L 300.411367 58.450789 
L 300.411367 58.228844 
L 301.687242 58.228844 
L 301.687242 58.006899 
L 307.01263 58.006899 
L 307.01263 57.784954 
L 310.618362 57.784954 
L 310.618362 57.563009 
L 313.697102 57.563009 
L 313.697102 57.341064 
L 319.466273 57.341064 
L 319.466273 57.119119 
L 320.18742 57.119119 
L 320.18742 56.897174 
L 326.622264 56.897174 
L 326.622264 56.675229 
L 328.563812 56.675229 
L 328.563812 56.453284 
L 333.029372 56.453284 
L 333.029372 56.231339 
L 337.522669 56.231339 
L 337.522669 56.009394 
L 339.464217 56.009394 
L 339.464217 55.78745 
L 346.148689 55.78745 
L 346.259634 55.34356 
L 352.805424 55.34356 
L 352.805424 55.121615 
L 359.212532 55.121615 
L 359.212532 54.89967 
L 365.786059 54.89967 
L 365.786059 54.677725 
L 372.442794 54.677725 
L 372.442794 54.45578 
L 379.016321 54.45578 
L 379.016321 54.233835 
L 385.562111 54.233835 
L 385.562111 54.01189 
L 391.996955 54.01189 
L 391.996955 53.789945 
L 398.487273 53.789945 
L 398.487273 53.568 
L 398.487273 53.568 
" clip-path="url(#p5cba7d6abc)" style="fill: none; stroke: #1f77b4; stroke-width: 1.5; stroke-linecap: square"/>
   </g>
   <g id="line2d_15">
    <path d="M 73.832727 295.488 
L 82.12591 295.488 
L 82.153647 99.571709 
L 82.153647 99.571709 
L 83.263103 99.571709 
L 83.263103 99.342834 
L 84.98276 99.342834 
L 84.98276 99.11396 
L 87.090726 99.11396 
L 87.090726 98.885086 
L 87.257144 98.885086 
L 87.284881 98.198464 
L 88.3666 98.198464 
L 88.477546 97.511841 
L 88.560755 97.511841 
L 88.560755 97.054093 
L 88.560755 97.054093 
L 90.030784 97.054093 
L 90.030784 96.825219 
L 93.691989 96.825219 
L 93.691989 96.596344 
L 95.3007 96.596344 
L 95.3007 96.36747 
L 95.744482 96.36747 
L 95.744482 96.138596 
L 98.76775 96.138596 
L 98.76775 95.909722 
L 100.487406 95.909722 
L 100.487406 95.451974 
L 100.487406 95.451974 
L 102.040645 95.451974 
L 102.040645 95.223099 
L 103.205573 95.223099 
L 103.205573 94.994225 
L 104.009929 94.994225 
L 104.009929 94.765351 
L 105.757322 94.765351 
L 105.757322 94.536477 
L 108.309071 94.536477 
L 108.309071 94.307603 
L 108.530962 94.307603 
L 108.530962 94.078728 
L 109.168899 94.078728 
L 109.168899 93.849854 
L 109.307581 93.849854 
L 109.307581 93.62098 
L 109.917782 93.62098 
L 109.917782 93.392106 
L 110.888556 93.392106 
L 110.888556 93.163232 
L 113.606723 93.163232 
L 113.606723 92.934358 
L 114.466551 92.934358 
L 114.466551 92.705483 
L 114.993543 92.705483 
L 114.993543 92.476609 
L 116.047526 92.476609 
L 116.047526 92.247735 
L 117.905865 92.247735 
L 117.905865 92.018861 
L 118.876639 92.018861 
L 118.959848 91.561113 
L 119.625521 91.561113 
L 119.625521 91.332238 
L 121.151023 91.332238 
L 121.151023 91.103364 
L 121.705751 91.103364 
L 121.705751 90.87449 
L 124.174291 90.87449 
L 124.174291 90.645616 
L 124.701282 90.645616 
L 124.701282 90.416742 
L 126.254521 90.416742 
L 126.254521 90.187868 
L 126.726039 90.187868 
L 126.726039 89.958993 
L 128.140596 89.958993 
L 128.140596 89.730119 
L 129.388734 89.730119 
L 129.388734 89.501245 
L 129.72157 89.501245 
L 129.72157 89.272371 
L 129.971198 89.272371 
L 129.971198 89.043497 
L 131.330282 89.043497 
L 131.358018 88.585748 
L 132.439737 88.585748 
L 132.439737 88.356874 
L 134.464495 88.356874 
L 134.519967 87.899126 
L 135.241114 87.899126 
L 135.241114 87.670252 
L 135.573951 87.670252 
L 135.573951 87.441377 
L 135.989997 87.441377 
L 135.989997 87.212503 
L 136.433779 87.212503 
L 136.433779 86.754755 
L 136.433779 86.754755 
L 138.708164 86.754755 
L 138.708164 86.525881 
L 139.706674 86.525881 
L 139.706674 86.297007 
L 140.511029 86.297007 
L 140.511029 86.068132 
L 140.982548 86.068132 
L 140.982548 85.839258 
L 141.565013 85.839258 
L 141.592749 85.38151 
L 142.341632 85.38151 
L 142.341632 85.152636 
L 144.616016 85.152636 
L 144.616016 84.923762 
L 144.865644 84.923762 
L 144.865644 84.694887 
L 145.087535 84.694887 
L 145.087535 84.466013 
L 145.614527 84.466013 
L 145.614527 84.237139 
L 146.751719 84.237139 
L 146.751719 83.779391 
L 146.751719 83.779391 
L 147.445129 83.779391 
L 147.445129 83.550517 
L 148.915158 83.550517 
L 148.915158 83.321642 
L 150.163296 83.321642 
L 150.163296 83.092768 
L 150.884443 83.092768 
L 150.884443 82.863894 
L 151.550116 82.863894 
L 151.550116 82.63502 
L 151.966162 82.63502 
L 151.993898 82.177272 
L 153.408455 82.177272 
L 153.408455 81.948397 
L 154.018656 81.948397 
L 154.018656 81.719523 
L 155.377739 81.719523 
L 155.405476 81.261775 
L 156.154358 81.261775 
L 156.237567 80.804026 
L 157.180605 80.804026 
L 157.180605 80.575152 
L 158.012697 80.575152 
L 158.012697 80.346278 
L 160.4535 80.346278 
L 160.4535 80.117404 
L 160.592182 80.117404 
L 160.675391 79.659656 
L 161.923529 79.659656 
L 161.923529 79.430781 
L 162.256366 79.430781 
L 162.311839 78.973033 
L 162.727885 78.973033 
L 162.83883 78.515285 
L 164.475278 78.515285 
L 164.475278 78.286411 
L 165.667943 78.286411 
L 165.667943 78.057536 
L 167.082499 78.057536 
L 167.082499 77.828662 
L 167.415336 77.828662 
L 167.415336 77.599788 
L 168.330637 77.599788 
L 168.330637 77.370914 
L 169.356884 77.370914 
L 169.412357 76.913166 
L 170.910122 76.913166 
L 170.965595 76.455417 
L 171.187486 76.455417 
L 171.187486 76.226543 
L 171.603532 76.226543 
L 171.603532 75.997669 
L 172.574306 75.997669 
L 172.574306 75.768795 
L 173.101298 75.768795 
L 173.101298 75.539921 
L 173.600553 75.539921 
L 173.600553 75.311046 
L 174.737745 75.311046 
L 174.737745 75.082172 
L 175.126055 75.082172 
L 175.126055 74.853298 
L 175.93041 74.853298 
L 176.041356 74.39555 
L 177.539122 74.39555 
L 177.539122 74.166675 
L 177.70554 74.166675 
L 177.70554 73.937801 
L 178.315741 73.937801 
L 178.315741 73.708927 
L 180.174079 73.708927 
L 180.174079 73.480053 
L 180.312761 73.480053 
L 180.312761 73.251179 
L 180.451443 73.251179 
L 180.451443 73.022305 
L 181.089381 73.022305 
L 181.089381 72.79343 
L 181.228063 72.79343 
L 181.228063 72.564556 
L 181.810527 72.564556 
L 181.810527 72.335682 
L 182.642619 72.335682 
L 182.642619 72.106808 
L 183.003192 72.106808 
L 183.003192 71.877934 
L 183.835284 71.877934 
L 183.835284 71.64906 
L 184.057175 71.64906 
L 184.057175 71.420185 
L 186.33156 71.420185 
L 186.33156 71.191311 
L 186.63666 71.191311 
L 186.63666 70.962437 
L 187.385543 70.962437 
L 187.385543 70.733563 
L 187.746116 70.733563 
L 187.746116 70.504689 
L 188.106689 70.504689 
L 188.106689 70.275815 
L 189.049727 70.275815 
L 189.049727 70.04694 
L 189.4103 70.04694 
L 189.4103 69.818066 
L 190.547493 69.818066 
L 190.547493 69.589192 
L 190.741647 69.589192 
L 190.741647 69.360318 
L 191.573739 69.360318 
L 191.573739 69.131444 
L 192.599986 69.131444 
L 192.599986 68.90257 
L 192.960559 68.90257 
L 192.960559 68.673695 
L 193.376605 68.673695 
L 193.376605 68.444821 
L 194.153224 68.444821 
L 194.153224 68.215947 
L 195.595517 68.215947 
L 195.595517 67.987073 
L 196.510818 67.987073 
L 196.510818 67.758199 
L 196.704973 67.758199 
L 196.704973 67.529325 
L 197.093283 67.529325 
L 197.093283 67.30045 
L 198.313684 67.30045 
L 198.313684 67.071576 
L 198.535575 67.071576 
L 198.535575 66.842702 
L 199.42314 66.842702 
L 199.42314 66.613828 
L 199.755977 66.613828 
L 199.755977 66.384954 
L 200.837696 66.384954 
L 200.837696 66.156079 
L 201.475634 66.156079 
L 201.475634 65.927205 
L 201.919416 65.927205 
L 201.919416 65.698331 
L 202.252253 65.698331 
L 202.252253 65.469457 
L 203.666809 65.469457 
L 203.694545 65.011709 
L 205.386466 65.011709 
L 205.386466 64.782834 
L 205.913457 64.782834 
L 205.913457 64.55396 
L 207.078386 64.55396 
L 207.078386 64.325086 
L 207.411223 64.325086 
L 207.494432 63.867338 
L 208.825779 63.867338 
L 208.881252 63.409589 
L 209.019934 63.409589 
L 209.019934 63.180715 
L 210.212599 63.180715 
L 210.212599 62.951841 
L 210.406754 62.951841 
L 210.406754 62.722967 
L 212.265093 62.722967 
L 212.265093 62.494093 
L 214.123431 62.494093 
L 214.206641 62.036344 
L 214.317586 62.036344 
L 214.317586 61.80747 
L 215.232887 61.80747 
L 215.232887 61.578596 
L 216.175925 61.578596 
L 216.175925 61.349722 
L 216.758389 61.349722 
L 216.758389 61.120848 
L 217.7569 61.120848 
L 217.7569 60.891974 
L 219.337874 60.891974 
L 219.337874 60.663099 
L 219.587502 60.663099 
L 219.587502 60.434225 
L 220.641485 60.434225 
L 220.724694 59.976477 
L 221.695468 59.976477 
L 221.695468 59.747603 
L 223.193234 59.747603 
L 223.193234 59.518728 
L 224.857418 59.518728 
L 224.857418 59.289854 
L 225.3012 59.289854 
L 225.3012 59.06098 
L 226.660283 59.06098 
L 226.660283 58.832106 
L 227.270484 58.832106 
L 227.298221 58.374358 
L 228.324467 58.374358 
L 228.37994 57.916609 
L 230.099597 57.916609 
L 230.099597 57.687735 
L 231.985672 57.687735 
L 231.985672 57.458861 
L 233.677592 57.458861 
L 233.677592 57.229987 
L 233.844011 57.229987 
L 233.844011 57.001113 
L 234.065902 57.001113 
L 234.065902 56.772238 
L 234.981203 56.772238 
L 234.981203 56.543364 
L 235.31404 56.543364 
L 235.31404 56.31449 
L 235.646877 56.31449 
L 235.646877 56.085616 
L 237.39427 56.085616 
L 237.39427 55.856742 
L 240.140173 55.856742 
L 240.140173 55.627868 
L 240.389801 55.627868 
L 240.389801 55.398993 
L 240.639428 55.398993 
L 240.639428 55.170119 
L 240.833583 55.170119 
L 240.833583 54.941245 
L 241.499257 54.941245 
L 241.499257 54.712371 
L 242.941549 54.712371 
L 242.941549 54.483497 
L 244.328369 54.483497 
L 244.328369 54.254623 
L 246.380863 54.254623 
L 246.380863 54.025748 
L 246.685963 54.025748 
L 246.685963 53.796874 
L 248.516566 53.796874 
L 248.516566 53.568 
L 248.516566 53.568 
" clip-path="url(#p5cba7d6abc)" style="fill: none; stroke: #ff7f0e; stroke-width: 1.5; stroke-linecap: square"/>
   </g>
   <g id="patch_3">
    <path d="M 57.6 307.584 
L 57.6 41.472 
" style="fill: none; stroke: #000000; stroke-width: 0.8; stroke-linejoin: miter; stroke-linecap: square"/>
   </g>
   <g id="patch_4">
    <path d="M 414.72 307.584 
L 414.72 41.472 
" style="fill: none; stroke: #000000; stroke-width: 0.8; stroke-linejoin: miter; stroke-linecap: square"/>
   </g>
   <g id="patch_5">
    <path d="M 57.6 307.584 
L 414.72 307.584 
" style="fill: none; stroke: #000000; stroke-width: 0.8; stroke-linejoin: miter; stroke-linecap: square"/>
   </g>
   <g id="patch_6">
    <path d="M 57.6 41.472 
L 414.72 41.472 
" style="fill: none; stroke: #000000; stroke-width: 0.8; stroke-linejoin: miter; stroke-linecap: square"/>
   </g>
   <g id="text_14">
    <!-- S1 S2 -->
    <g transform="translate(219 35.472) scale(0.12 -0.12)">
     <defs>
      <path id="DejaVuSans-53" d="M 3425 4513 
L 3425 3897 
Q 3066 4069 2747 4153 
Q 2428 4238 2131 4238 
Q 1616 4238 1336 4038 
Q 1056 3838 1056 3469 
Q 1056 3159 1242 3001 
Q 1428 2844 1947 2747 
L 2328 2669 
Q 3034 2534 3370 2195 
Q 3706 1856 3706 1288 
Q 3706 609 3251 259 
Q 2797 -91 1919 -91 
Q 1588 -91 1214 -16 
Q 841 59 441 206 
L 441 856 
Q 825 641 1194 531 
Q 1563 422 1919 422 
Q 2459 422 2753 634 
Q 3047 847 3047 1241 
Q 3047 1584 2836 1778 
Q 2625 1972 2144 2069 
L 1759 2144 
Q 1053 2284 737 2584 
Q 422 2884 422 3419 
Q 422 4038 858 4394 
Q 1294 4750 2059 4750 
Q 2388 4750 2728 4690 
Q 3069 4631 3425 4513 
z
" transform="scale(0.015625)"/>
      <path id="DejaVuSans-20" transform="scale(0.015625)"/>
     </defs>
     <use xlink:href="#DejaVuSans-53"/>
     <use xlink:href="#DejaVuSans-31" x="63.476562"/>
     <use xlink:href="#DejaVuSans-20" x="127.099609"/>
     <use xlink:href="#DejaVuSans-53" x="158.886719"/>
     <use xlink:href="#DejaVuSans-32" x="222.363281"/>
    </g>
   </g>
   <g id="legend_1">
    <g id="patch_7">
     <path d="M 114.636563 304.584 
L 410.52 304.584 
Q 411.72 304.584 411.72 303.384 
L 411.72 286.37025 
Q 411.72 285.17025 410.52 285.17025 
L 114.636563 285.17025 
Q 113.436563 285.17025 113.436563 286.37025 
L 113.436563 303.384 
Q 113.436563 304.584 114.636563 304.584 
z
" style="fill: #ffffff; opacity: 0.8; stroke: #cccccc; stroke-linejoin: miter"/>
    </g>
    <g id="line2d_16">
     <path d="M 115.836563 290.029312 
L 121.836563 290.029312 
L 127.836563 290.029312 
" style="fill: none; stroke: #1f77b4; stroke-width: 1.5; stroke-linecap: square"/>
    </g>
    <g id="text_15">
     <!-- Execution time between S1 S2 (xx1xx1xx1xx0yyy5xx0yyy5xx0yyy5xx0yyy5xx1yyy2xx1) -->
     <g transform="translate(132.636563 292.129312) scale(0.06 -0.06)">
      <defs>
       <path id="DejaVuSans-45" d="M 628 4666 
L 3578 4666 
L 3578 4134 
L 1259 4134 
L 1259 2753 
L 3481 2753 
L 3481 2222 
L 1259 2222 
L 1259 531 
L 3634 531 
L 3634 0 
L 628 0 
L 628 4666 
z
" transform="scale(0.015625)"/>
       <path id="DejaVuSans-78" d="M 3513 3500 
L 2247 1797 
L 3578 0 
L 2900 0 
L 1881 1375 
L 863 0 
L 184 0 
L 1544 1831 
L 300 3500 
L 978 3500 
L 1906 2253 
L 2834 3500 
L 3513 3500 
z
" transform="scale(0.015625)"/>
       <path id="DejaVuSans-65" d="M 3597 1894 
L 3597 1613 
L 953 1613 
Q 991 1019 1311 708 
Q 1631 397 2203 397 
Q 2534 397 2845 478 
Q 3156 559 3463 722 
L 3463 178 
Q 3153 47 2828 -22 
Q 2503 -91 2169 -91 
Q 1331 -91 842 396 
Q 353 884 353 1716 
Q 353 2575 817 3079 
Q 1281 3584 2069 3584 
Q 2775 3584 3186 3129 
Q 3597 2675 3597 1894 
z
M 3022 2063 
Q 3016 2534 2758 2815 
Q 2500 3097 2075 3097 
Q 1594 3097 1305 2825 
Q 1016 2553 972 2059 
L 3022 2063 
z
" transform="scale(0.015625)"/>
       <path id="DejaVuSans-63" d="M 3122 3366 
L 3122 2828 
Q 2878 2963 2633 3030 
Q 2388 3097 2138 3097 
Q 1578 3097 1268 2742 
Q 959 2388 959 1747 
Q 959 1106 1268 751 
Q 1578 397 2138 397 
Q 2388 397 2633 464 
Q 2878 531 3122 666 
L 3122 134 
Q 2881 22 2623 -34 
Q 2366 -91 2075 -91 
Q 1284 -91 818 406 
Q 353 903 353 1747 
Q 353 2603 823 3093 
Q 1294 3584 2113 3584 
Q 2378 3584 2631 3529 
Q 2884 3475 3122 3366 
z
" transform="scale(0.015625)"/>
       <path id="DejaVuSans-75" d="M 544 1381 
L 544 3500 
L 1119 3500 
L 1119 1403 
Q 1119 906 1312 657 
Q 1506 409 1894 409 
Q 2359 409 2629 706 
Q 2900 1003 2900 1516 
L 2900 3500 
L 3475 3500 
L 3475 0 
L 2900 0 
L 2900 538 
Q 2691 219 2414 64 
Q 2138 -91 1772 -91 
Q 1169 -91 856 284 
Q 544 659 544 1381 
z
M 1991 3584 
L 1991 3584 
z
" transform="scale(0.015625)"/>
       <path id="DejaVuSans-74" d="M 1172 4494 
L 1172 3500 
L 2356 3500 
L 2356 3053 
L 1172 3053 
L 1172 1153 
Q 1172 725 1289 603 
Q 1406 481 1766 481 
L 2356 481 
L 2356 0 
L 1766 0 
Q 1100 0 847 248 
Q 594 497 594 1153 
L 594 3053 
L 172 3053 
L 172 3500 
L 594 3500 
L 594 4494 
L 1172 4494 
z
" transform="scale(0.015625)"/>
       <path id="DejaVuSans-69" d="M 603 3500 
L 1178 3500 
L 1178 0 
L 603 0 
L 603 3500 
z
M 603 4863 
L 1178 4863 
L 1178 4134 
L 603 4134 
L 603 4863 
z
" transform="scale(0.015625)"/>
       <path id="DejaVuSans-6f" d="M 1959 3097 
Q 1497 3097 1228 2736 
Q 959 2375 959 1747 
Q 959 1119 1226 758 
Q 1494 397 1959 397 
Q 2419 397 2687 759 
Q 2956 1122 2956 1747 
Q 2956 2369 2687 2733 
Q 2419 3097 1959 3097 
z
M 1959 3584 
Q 2709 3584 3137 3096 
Q 3566 2609 3566 1747 
Q 3566 888 3137 398 
Q 2709 -91 1959 -91 
Q 1206 -91 779 398 
Q 353 888 353 1747 
Q 353 2609 779 3096 
Q 1206 3584 1959 3584 
z
" transform="scale(0.015625)"/>
       <path id="DejaVuSans-6e" d="M 3513 2113 
L 3513 0 
L 2938 0 
L 2938 2094 
Q 2938 2591 2744 2837 
Q 2550 3084 2163 3084 
Q 1697 3084 1428 2787 
Q 1159 2491 1159 1978 
L 1159 0 
L 581 0 
L 581 3500 
L 1159 3500 
L 1159 2956 
Q 1366 3272 1645 3428 
Q 1925 3584 2291 3584 
Q 2894 3584 3203 3211 
Q 3513 2838 3513 2113 
z
" transform="scale(0.015625)"/>
       <path id="DejaVuSans-6d" d="M 3328 2828 
Q 3544 3216 3844 3400 
Q 4144 3584 4550 3584 
Q 5097 3584 5394 3201 
Q 5691 2819 5691 2113 
L 5691 0 
L 5113 0 
L 5113 2094 
Q 5113 2597 4934 2840 
Q 4756 3084 4391 3084 
Q 3944 3084 3684 2787 
Q 3425 2491 3425 1978 
L 3425 0 
L 2847 0 
L 2847 2094 
Q 2847 2600 2669 2842 
Q 2491 3084 2119 3084 
Q 1678 3084 1418 2786 
Q 1159 2488 1159 1978 
L 1159 0 
L 581 0 
L 581 3500 
L 1159 3500 
L 1159 2956 
Q 1356 3278 1631 3431 
Q 1906 3584 2284 3584 
Q 2666 3584 2933 3390 
Q 3200 3197 3328 2828 
z
" transform="scale(0.015625)"/>
       <path id="DejaVuSans-62" d="M 3116 1747 
Q 3116 2381 2855 2742 
Q 2594 3103 2138 3103 
Q 1681 3103 1420 2742 
Q 1159 2381 1159 1747 
Q 1159 1113 1420 752 
Q 1681 391 2138 391 
Q 2594 391 2855 752 
Q 3116 1113 3116 1747 
z
M 1159 2969 
Q 1341 3281 1617 3432 
Q 1894 3584 2278 3584 
Q 2916 3584 3314 3078 
Q 3713 2572 3713 1747 
Q 3713 922 3314 415 
Q 2916 -91 2278 -91 
Q 1894 -91 1617 61 
Q 1341 213 1159 525 
L 1159 0 
L 581 0 
L 581 4863 
L 1159 4863 
L 1159 2969 
z
" transform="scale(0.015625)"/>
       <path id="DejaVuSans-77" d="M 269 3500 
L 844 3500 
L 1563 769 
L 2278 3500 
L 2956 3500 
L 3675 769 
L 4391 3500 
L 4966 3500 
L 4050 0 
L 3372 0 
L 2619 2869 
L 1863 0 
L 1184 0 
L 269 3500 
z
" transform="scale(0.015625)"/>
       <path id="DejaVuSans-28" d="M 1984 4856 
Q 1566 4138 1362 3434 
Q 1159 2731 1159 2009 
Q 1159 1288 1364 580 
Q 1569 -128 1984 -844 
L 1484 -844 
Q 1016 -109 783 600 
Q 550 1309 550 2009 
Q 550 2706 781 3412 
Q 1013 4119 1484 4856 
L 1984 4856 
z
" transform="scale(0.015625)"/>
       <path id="DejaVuSans-79" d="M 2059 -325 
Q 1816 -950 1584 -1140 
Q 1353 -1331 966 -1331 
L 506 -1331 
L 506 -850 
L 844 -850 
Q 1081 -850 1212 -737 
Q 1344 -625 1503 -206 
L 1606 56 
L 191 3500 
L 800 3500 
L 1894 763 
L 2988 3500 
L 3597 3500 
L 2059 -325 
z
" transform="scale(0.015625)"/>
       <path id="DejaVuSans-35" d="M 691 4666 
L 3169 4666 
L 3169 4134 
L 1269 4134 
L 1269 2991 
Q 1406 3038 1543 3061 
Q 1681 3084 1819 3084 
Q 2600 3084 3056 2656 
Q 3513 2228 3513 1497 
Q 3513 744 3044 326 
Q 2575 -91 1722 -91 
Q 1428 -91 1123 -41 
Q 819 9 494 109 
L 494 744 
Q 775 591 1075 516 
Q 1375 441 1709 441 
Q 2250 441 2565 725 
Q 2881 1009 2881 1497 
Q 2881 1984 2565 2268 
Q 2250 2553 1709 2553 
Q 1456 2553 1204 2497 
Q 953 2441 691 2322 
L 691 4666 
z
" transform="scale(0.015625)"/>
       <path id="DejaVuSans-29" d="M 513 4856 
L 1013 4856 
Q 1481 4119 1714 3412 
Q 1947 2706 1947 2009 
Q 1947 1309 1714 600 
Q 1481 -109 1013 -844 
L 513 -844 
Q 928 -128 1133 580 
Q 1338 1288 1338 2009 
Q 1338 2731 1133 3434 
Q 928 4138 513 4856 
z
" transform="scale(0.015625)"/>
      </defs>
      <use xlink:href="#DejaVuSans-45"/>
      <use xlink:href="#DejaVuSans-78" x="63.183594"/>
      <use xlink:href="#DejaVuSans-65" x="119.238281"/>
      <use xlink:href="#DejaVuSans-63" x="180.761719"/>
      <use xlink:href="#DejaVuSans-75" x="235.742188"/>
      <use xlink:href="#DejaVuSans-74" x="299.121094"/>
      <use xlink:href="#DejaVuSans-69" x="338.330078"/>
      <use xlink:href="#DejaVuSans-6f" x="366.113281"/>
      <use xlink:href="#DejaVuSans-6e" x="427.294922"/>
      <use xlink:href="#DejaVuSans-20" x="490.673828"/>
      <use xlink:href="#DejaVuSans-74" x="522.460938"/>
      <use xlink:href="#DejaVuSans-69" x="561.669922"/>
      <use xlink:href="#DejaVuSans-6d" x="589.453125"/>
      <use xlink:href="#DejaVuSans-65" x="686.865234"/>
      <use xlink:href="#DejaVuSans-20" x="748.388672"/>
      <use xlink:href="#DejaVuSans-62" x="780.175781"/>
      <use xlink:href="#DejaVuSans-65" x="843.652344"/>
      <use xlink:href="#DejaVuSans-74" x="905.175781"/>
      <use xlink:href="#DejaVuSans-77" x="944.384766"/>
      <use xlink:href="#DejaVuSans-65" x="1026.171875"/>
      <use xlink:href="#DejaVuSans-65" x="1087.695312"/>
      <use xlink:href="#DejaVuSans-6e" x="1149.21875"/>
      <use xlink:href="#DejaVuSans-20" x="1212.597656"/>
      <use xlink:href="#DejaVuSans-53" x="1244.384766"/>
      <use xlink:href="#DejaVuSans-31" x="1307.861328"/>
      <use xlink:href="#DejaVuSans-20" x="1371.484375"/>
      <use xlink:href="#DejaVuSans-53" x="1403.271484"/>
      <use xlink:href="#DejaVuSans-32" x="1466.748047"/>
      <use xlink:href="#DejaVuSans-20" x="1530.371094"/>
      <use xlink:href="#DejaVuSans-28" x="1562.158203"/>
      <use xlink:href="#DejaVuSans-78" x="1601.171875"/>
      <use xlink:href="#DejaVuSans-78" x="1660.351562"/>
      <use xlink:href="#DejaVuSans-31" x="1719.53125"/>
      <use xlink:href="#DejaVuSans-78" x="1783.154297"/>
      <use xlink:href="#DejaVuSans-78" x="1842.333984"/>
      <use xlink:href="#DejaVuSans-31" x="1901.513672"/>
      <use xlink:href="#DejaVuSans-78" x="1965.136719"/>
      <use xlink:href="#DejaVuSans-78" x="2024.316406"/>
      <use xlink:href="#DejaVuSans-31" x="2083.496094"/>
      <use xlink:href="#DejaVuSans-78" x="2147.119141"/>
      <use xlink:href="#DejaVuSans-78" x="2206.298828"/>
      <use xlink:href="#DejaVuSans-30" x="2265.478516"/>
      <use xlink:href="#DejaVuSans-79" x="2329.101562"/>
      <use xlink:href="#DejaVuSans-79" x="2388.28125"/>
      <use xlink:href="#DejaVuSans-79" x="2447.460938"/>
      <use xlink:href="#DejaVuSans-35" x="2506.640625"/>
      <use xlink:href="#DejaVuSans-78" x="2570.263672"/>
      <use xlink:href="#DejaVuSans-78" x="2629.443359"/>
      <use xlink:href="#DejaVuSans-30" x="2688.623047"/>
      <use xlink:href="#DejaVuSans-79" x="2752.246094"/>
      <use xlink:href="#DejaVuSans-79" x="2811.425781"/>
      <use xlink:href="#DejaVuSans-79" x="2870.605469"/>
      <use xlink:href="#DejaVuSans-35" x="2929.785156"/>
      <use xlink:href="#DejaVuSans-78" x="2993.408203"/>
      <use xlink:href="#DejaVuSans-78" x="3052.587891"/>
      <use xlink:href="#DejaVuSans-30" x="3111.767578"/>
      <use xlink:href="#DejaVuSans-79" x="3175.390625"/>
      <use xlink:href="#DejaVuSans-79" x="3234.570312"/>
      <use xlink:href="#DejaVuSans-79" x="3293.75"/>
      <use xlink:href="#DejaVuSans-35" x="3352.929688"/>
      <use xlink:href="#DejaVuSans-78" x="3416.552734"/>
      <use xlink:href="#DejaVuSans-78" x="3475.732422"/>
      <use xlink:href="#DejaVuSans-30" x="3534.912109"/>
      <use xlink:href="#DejaVuSans-79" x="3598.535156"/>
      <use xlink:href="#DejaVuSans-79" x="3657.714844"/>
      <use xlink:href="#DejaVuSans-79" x="3716.894531"/>
      <use xlink:href="#DejaVuSans-35" x="3776.074219"/>
      <use xlink:href="#DejaVuSans-78" x="3839.697266"/>
      <use xlink:href="#DejaVuSans-78" x="3898.876953"/>
      <use xlink:href="#DejaVuSans-31" x="3958.056641"/>
      <use xlink:href="#DejaVuSans-79" x="4021.679688"/>
      <use xlink:href="#DejaVuSans-79" x="4080.859375"/>
      <use xlink:href="#DejaVuSans-79" x="4140.039062"/>
      <use xlink:href="#DejaVuSans-32" x="4199.21875"/>
      <use xlink:href="#DejaVuSans-78" x="4262.841797"/>
      <use xlink:href="#DejaVuSans-78" x="4322.021484"/>
      <use xlink:href="#DejaVuSans-31" x="4381.201172"/>
      <use xlink:href="#DejaVuSans-29" x="4444.824219"/>
     </g>
    </g>
    <g id="line2d_17">
     <path d="M 115.836563 298.836187 
L 121.836563 298.836187 
L 127.836563 298.836187 
" style="fill: none; stroke: #ff7f0e; stroke-width: 1.5; stroke-linecap: square"/>
    </g>
    <g id="text_16">
     <!-- Execution time between S1 S2 (xx1xx1xx2xx0yyy66xx0yyy66xx1yyy5xx0yyy3xx1xx1yyy5) -->
     <g transform="translate(132.636563 300.936187) scale(0.06 -0.06)">
      <defs>
       <path id="DejaVuSans-33" d="M 2597 2516 
Q 3050 2419 3304 2112 
Q 3559 1806 3559 1356 
Q 3559 666 3084 287 
Q 2609 -91 1734 -91 
Q 1441 -91 1130 -33 
Q 819 25 488 141 
L 488 750 
Q 750 597 1062 519 
Q 1375 441 1716 441 
Q 2309 441 2620 675 
Q 2931 909 2931 1356 
Q 2931 1769 2642 2001 
Q 2353 2234 1838 2234 
L 1294 2234 
L 1294 2753 
L 1863 2753 
Q 2328 2753 2575 2939 
Q 2822 3125 2822 3475 
Q 2822 3834 2567 4026 
Q 2313 4219 1838 4219 
Q 1578 4219 1281 4162 
Q 984 4106 628 3988 
L 628 4550 
Q 988 4650 1302 4700 
Q 1616 4750 1894 4750 
Q 2613 4750 3031 4423 
Q 3450 4097 3450 3541 
Q 3450 3153 3228 2886 
Q 3006 2619 2597 2516 
z
" transform="scale(0.015625)"/>
      </defs>
      <use xlink:href="#DejaVuSans-45"/>
      <use xlink:href="#DejaVuSans-78" x="63.183594"/>
      <use xlink:href="#DejaVuSans-65" x="119.238281"/>
      <use xlink:href="#DejaVuSans-63" x="180.761719"/>
      <use xlink:href="#DejaVuSans-75" x="235.742188"/>
      <use xlink:href="#DejaVuSans-74" x="299.121094"/>
      <use xlink:href="#DejaVuSans-69" x="338.330078"/>
      <use xlink:href="#DejaVuSans-6f" x="366.113281"/>
      <use xlink:href="#DejaVuSans-6e" x="427.294922"/>
      <use xlink:href="#DejaVuSans-20" x="490.673828"/>
      <use xlink:href="#DejaVuSans-74" x="522.460938"/>
      <use xlink:href="#DejaVuSans-69" x="561.669922"/>
      <use xlink:href="#DejaVuSans-6d" x="589.453125"/>
      <use xlink:href="#DejaVuSans-65" x="686.865234"/>
      <use xlink:href="#DejaVuSans-20" x="748.388672"/>
      <use xlink:href="#DejaVuSans-62" x="780.175781"/>
      <use xlink:href="#DejaVuSans-65" x="843.652344"/>
      <use xlink:href="#DejaVuSans-74" x="905.175781"/>
      <use xlink:href="#DejaVuSans-77" x="944.384766"/>
      <use xlink:href="#DejaVuSans-65" x="1026.171875"/>
      <use xlink:href="#DejaVuSans-65" x="1087.695312"/>
      <use xlink:href="#DejaVuSans-6e" x="1149.21875"/>
      <use xlink:href="#DejaVuSans-20" x="1212.597656"/>
      <use xlink:href="#DejaVuSans-53" x="1244.384766"/>
      <use xlink:href="#DejaVuSans-31" x="1307.861328"/>
      <use xlink:href="#DejaVuSans-20" x="1371.484375"/>
      <use xlink:href="#DejaVuSans-53" x="1403.271484"/>
      <use xlink:href="#DejaVuSans-32" x="1466.748047"/>
      <use xlink:href="#DejaVuSans-20" x="1530.371094"/>
      <use xlink:href="#DejaVuSans-28" x="1562.158203"/>
      <use xlink:href="#DejaVuSans-78" x="1601.171875"/>
      <use xlink:href="#DejaVuSans-78" x="1660.351562"/>
      <use xlink:href="#DejaVuSans-31" x="1719.53125"/>
      <use xlink:href="#DejaVuSans-78" x="1783.154297"/>
      <use xlink:href="#DejaVuSans-78" x="1842.333984"/>
      <use xlink:href="#DejaVuSans-31" x="1901.513672"/>
      <use xlink:href="#DejaVuSans-78" x="1965.136719"/>
      <use xlink:href="#DejaVuSans-78" x="2024.316406"/>
      <use xlink:href="#DejaVuSans-32" x="2083.496094"/>
      <use xlink:href="#DejaVuSans-78" x="2147.119141"/>
      <use xlink:href="#DejaVuSans-78" x="2206.298828"/>
      <use xlink:href="#DejaVuSans-30" x="2265.478516"/>
      <use xlink:href="#DejaVuSans-79" x="2329.101562"/>
      <use xlink:href="#DejaVuSans-79" x="2388.28125"/>
      <use xlink:href="#DejaVuSans-79" x="2447.460938"/>
      <use xlink:href="#DejaVuSans-36" x="2506.640625"/>
      <use xlink:href="#DejaVuSans-36" x="2570.263672"/>
      <use xlink:href="#DejaVuSans-78" x="2633.886719"/>
      <use xlink:href="#DejaVuSans-78" x="2693.066406"/>
      <use xlink:href="#DejaVuSans-30" x="2752.246094"/>
      <use xlink:href="#DejaVuSans-79" x="2815.869141"/>
      <use xlink:href="#DejaVuSans-79" x="2875.048828"/>
      <use xlink:href="#DejaVuSans-79" x="2934.228516"/>
      <use xlink:href="#DejaVuSans-36" x="2993.408203"/>
      <use xlink:href="#DejaVuSans-36" x="3057.03125"/>
      <use xlink:href="#DejaVuSans-78" x="3120.654297"/>
      <use xlink:href="#DejaVuSans-78" x="3179.833984"/>
      <use xlink:href="#DejaVuSans-31" x="3239.013672"/>
      <use xlink:href="#DejaVuSans-79" x="3302.636719"/>
      <use xlink:href="#DejaVuSans-79" x="3361.816406"/>
      <use xlink:href="#DejaVuSans-79" x="3420.996094"/>
      <use xlink:href="#DejaVuSans-35" x="3480.175781"/>
      <use xlink:href="#DejaVuSans-78" x="3543.798828"/>
      <use xlink:href="#DejaVuSans-78" x="3602.978516"/>
      <use xlink:href="#DejaVuSans-30" x="3662.158203"/>
      <use xlink:href="#DejaVuSans-79" x="3725.78125"/>
      <use xlink:href="#DejaVuSans-79" x="3784.960938"/>
      <use xlink:href="#DejaVuSans-79" x="3844.140625"/>
      <use xlink:href="#DejaVuSans-33" x="3903.320312"/>
      <use xlink:href="#DejaVuSans-78" x="3966.943359"/>
      <use xlink:href="#DejaVuSans-78" x="4026.123047"/>
      <use xlink:href="#DejaVuSans-31" x="4085.302734"/>
      <use xlink:href="#DejaVuSans-78" x="4148.925781"/>
      <use xlink:href="#DejaVuSans-78" x="4208.105469"/>
      <use xlink:href="#DejaVuSans-31" x="4267.285156"/>
      <use xlink:href="#DejaVuSans-79" x="4330.908203"/>
      <use xlink:href="#DejaVuSans-79" x="4390.087891"/>
      <use xlink:href="#DejaVuSans-79" x="4449.267578"/>
      <use xlink:href="#DejaVuSans-35" x="4508.447266"/>
      <use xlink:href="#DejaVuSans-29" x="4572.070312"/>
     </g>
    </g>
   </g>
  </g>
 </g>
 <defs>
  <clipPath id="p5cba7d6abc">
   <rect x="57.6" y="41.472" width="357.12" height="266.112"/>
  </clipPath>
 </defs>
</svg>
