<?xml version="1.0" encoding="utf-8" standalone="no"?>
<!DOCTYPE svg PUBLIC "-//W3C//DTD SVG 1.1//EN"
  "http://www.w3.org/Graphics/SVG/1.1/DTD/svg11.dtd">
<svg xmlns:xlink="http://www.w3.org/1999/xlink" width="460.8pt" height="345.6pt" viewBox="0 0 460.8 345.6" xmlns="http://www.w3.org/2000/svg" version="1.1">
 <metadata>
  <rdf:RDF xmlns:dc="http://purl.org/dc/elements/1.1/" xmlns:cc="http://creativecommons.org/ns#" xmlns:rdf="http://www.w3.org/1999/02/22-rdf-syntax-ns#">
   <cc:Work>
    <dc:type rdf:resource="http://purl.org/dc/dcmitype/StillImage"/>
    <dc:date>2024-03-08T11:29:27.910025</dc:date>
    <dc:format>image/svg+xml</dc:format>
    <dc:creator>
     <cc:Agent>
      <dc:title>Matplotlib v3.8.2, https://matplotlib.org/</dc:title>
     </cc:Agent>
    </dc:creator>
   </cc:Work>
  </rdf:RDF>
 </metadata>
 <defs>
  <style type="text/css">*{stroke-linejoin: round; stroke-linecap: butt}</style>
 </defs>
 <g id="figure_1">
  <g id="patch_1">
   <path d="M 0 345.6 
L 460.8 345.6 
L 460.8 0 
L 0 0 
z
" style="fill: #ffffff"/>
  </g>
  <g id="axes_1">
   <g id="patch_2">
    <path d="M 57.6 307.584 
L 414.72 307.584 
L 414.72 41.472 
L 57.6 41.472 
z
" style="fill: #ffffff"/>
   </g>
   <g id="matplotlib.axis_1">
    <g id="xtick_1">
     <g id="line2d_1">
      <defs>
       <path id="m5ead754f0f" d="M 0 0 
L 0 3.5 
" style="stroke: #000000; stroke-width: 0.8"/>
      </defs>
      <g>
       <use xlink:href="#m5ead754f0f" x="73.832727" y="307.584" style="stroke: #000000; stroke-width: 0.8"/>
      </g>
     </g>
     <g id="text_1">
      <!-- 0 -->
      <g transform="translate(70.651477 322.182437) scale(0.1 -0.1)">
       <defs>
        <path id="DejaVuSans-30" d="M 2034 4250 
Q 1547 4250 1301 3770 
Q 1056 3291 1056 2328 
Q 1056 1369 1301 889 
Q 1547 409 2034 409 
Q 2525 409 2770 889 
Q 3016 1369 3016 2328 
Q 3016 3291 2770 3770 
Q 2525 4250 2034 4250 
z
M 2034 4750 
Q 2819 4750 3233 4129 
Q 3647 3509 3647 2328 
Q 3647 1150 3233 529 
Q 2819 -91 2034 -91 
Q 1250 -91 836 529 
Q 422 1150 422 2328 
Q 422 3509 836 4129 
Q 1250 4750 2034 4750 
z
" transform="scale(0.015625)"/>
       </defs>
       <use xlink:href="#DejaVuSans-30"/>
      </g>
     </g>
    </g>
    <g id="xtick_2">
     <g id="line2d_2">
      <g>
       <use xlink:href="#m5ead754f0f" x="119.112301" y="307.584" style="stroke: #000000; stroke-width: 0.8"/>
      </g>
     </g>
     <g id="text_2">
      <!-- 10000 -->
      <g transform="translate(103.206051 322.182437) scale(0.1 -0.1)">
       <defs>
        <path id="DejaVuSans-31" d="M 794 531 
L 1825 531 
L 1825 4091 
L 703 3866 
L 703 4441 
L 1819 4666 
L 2450 4666 
L 2450 531 
L 3481 531 
L 3481 0 
L 794 0 
L 794 531 
z
" transform="scale(0.015625)"/>
       </defs>
       <use xlink:href="#DejaVuSans-31"/>
       <use xlink:href="#DejaVuSans-30" x="63.623047"/>
       <use xlink:href="#DejaVuSans-30" x="127.246094"/>
       <use xlink:href="#DejaVuSans-30" x="190.869141"/>
       <use xlink:href="#DejaVuSans-30" x="254.492188"/>
      </g>
     </g>
    </g>
    <g id="xtick_3">
     <g id="line2d_3">
      <g>
       <use xlink:href="#m5ead754f0f" x="164.391875" y="307.584" style="stroke: #000000; stroke-width: 0.8"/>
      </g>
     </g>
     <g id="text_3">
      <!-- 20000 -->
      <g transform="translate(148.485625 322.182437) scale(0.1 -0.1)">
       <defs>
        <path id="DejaVuSans-32" d="M 1228 531 
L 3431 531 
L 3431 0 
L 469 0 
L 469 531 
Q 828 903 1448 1529 
Q 2069 2156 2228 2338 
Q 2531 2678 2651 2914 
Q 2772 3150 2772 3378 
Q 2772 3750 2511 3984 
Q 2250 4219 1831 4219 
Q 1534 4219 1204 4116 
Q 875 4013 500 3803 
L 500 4441 
Q 881 4594 1212 4672 
Q 1544 4750 1819 4750 
Q 2544 4750 2975 4387 
Q 3406 4025 3406 3419 
Q 3406 3131 3298 2873 
Q 3191 2616 2906 2266 
Q 2828 2175 2409 1742 
Q 1991 1309 1228 531 
z
" transform="scale(0.015625)"/>
       </defs>
       <use xlink:href="#DejaVuSans-32"/>
       <use xlink:href="#DejaVuSans-30" x="63.623047"/>
       <use xlink:href="#DejaVuSans-30" x="127.246094"/>
       <use xlink:href="#DejaVuSans-30" x="190.869141"/>
       <use xlink:href="#DejaVuSans-30" x="254.492188"/>
      </g>
     </g>
    </g>
    <g id="xtick_4">
     <g id="line2d_4">
      <g>
       <use xlink:href="#m5ead754f0f" x="209.671449" y="307.584" style="stroke: #000000; stroke-width: 0.8"/>
      </g>
     </g>
     <g id="text_4">
      <!-- 30000 -->
      <g transform="translate(193.765199 322.182437) scale(0.1 -0.1)">
       <defs>
        <path id="DejaVuSans-33" d="M 2597 2516 
Q 3050 2419 3304 2112 
Q 3559 1806 3559 1356 
Q 3559 666 3084 287 
Q 2609 -91 1734 -91 
Q 1441 -91 1130 -33 
Q 819 25 488 141 
L 488 750 
Q 750 597 1062 519 
Q 1375 441 1716 441 
Q 2309 441 2620 675 
Q 2931 909 2931 1356 
Q 2931 1769 2642 2001 
Q 2353 2234 1838 2234 
L 1294 2234 
L 1294 2753 
L 1863 2753 
Q 2328 2753 2575 2939 
Q 2822 3125 2822 3475 
Q 2822 3834 2567 4026 
Q 2313 4219 1838 4219 
Q 1578 4219 1281 4162 
Q 984 4106 628 3988 
L 628 4550 
Q 988 4650 1302 4700 
Q 1616 4750 1894 4750 
Q 2613 4750 3031 4423 
Q 3450 4097 3450 3541 
Q 3450 3153 3228 2886 
Q 3006 2619 2597 2516 
z
" transform="scale(0.015625)"/>
       </defs>
       <use xlink:href="#DejaVuSans-33"/>
       <use xlink:href="#DejaVuSans-30" x="63.623047"/>
       <use xlink:href="#DejaVuSans-30" x="127.246094"/>
       <use xlink:href="#DejaVuSans-30" x="190.869141"/>
       <use xlink:href="#DejaVuSans-30" x="254.492188"/>
      </g>
     </g>
    </g>
    <g id="xtick_5">
     <g id="line2d_5">
      <g>
       <use xlink:href="#m5ead754f0f" x="254.951023" y="307.584" style="stroke: #000000; stroke-width: 0.8"/>
      </g>
     </g>
     <g id="text_5">
      <!-- 40000 -->
      <g transform="translate(239.044773 322.182437) scale(0.1 -0.1)">
       <defs>
        <path id="DejaVuSans-34" d="M 2419 4116 
L 825 1625 
L 2419 1625 
L 2419 4116 
z
M 2253 4666 
L 3047 4666 
L 3047 1625 
L 3713 1625 
L 3713 1100 
L 3047 1100 
L 3047 0 
L 2419 0 
L 2419 1100 
L 313 1100 
L 313 1709 
L 2253 4666 
z
" transform="scale(0.015625)"/>
       </defs>
       <use xlink:href="#DejaVuSans-34"/>
       <use xlink:href="#DejaVuSans-30" x="63.623047"/>
       <use xlink:href="#DejaVuSans-30" x="127.246094"/>
       <use xlink:href="#DejaVuSans-30" x="190.869141"/>
       <use xlink:href="#DejaVuSans-30" x="254.492188"/>
      </g>
     </g>
    </g>
    <g id="xtick_6">
     <g id="line2d_6">
      <g>
       <use xlink:href="#m5ead754f0f" x="300.230597" y="307.584" style="stroke: #000000; stroke-width: 0.8"/>
      </g>
     </g>
     <g id="text_6">
      <!-- 50000 -->
      <g transform="translate(284.324347 322.182437) scale(0.1 -0.1)">
       <defs>
        <path id="DejaVuSans-35" d="M 691 4666 
L 3169 4666 
L 3169 4134 
L 1269 4134 
L 1269 2991 
Q 1406 3038 1543 3061 
Q 1681 3084 1819 3084 
Q 2600 3084 3056 2656 
Q 3513 2228 3513 1497 
Q 3513 744 3044 326 
Q 2575 -91 1722 -91 
Q 1428 -91 1123 -41 
Q 819 9 494 109 
L 494 744 
Q 775 591 1075 516 
Q 1375 441 1709 441 
Q 2250 441 2565 725 
Q 2881 1009 2881 1497 
Q 2881 1984 2565 2268 
Q 2250 2553 1709 2553 
Q 1456 2553 1204 2497 
Q 953 2441 691 2322 
L 691 4666 
z
" transform="scale(0.015625)"/>
       </defs>
       <use xlink:href="#DejaVuSans-35"/>
       <use xlink:href="#DejaVuSans-30" x="63.623047"/>
       <use xlink:href="#DejaVuSans-30" x="127.246094"/>
       <use xlink:href="#DejaVuSans-30" x="190.869141"/>
       <use xlink:href="#DejaVuSans-30" x="254.492188"/>
      </g>
     </g>
    </g>
    <g id="xtick_7">
     <g id="line2d_7">
      <g>
       <use xlink:href="#m5ead754f0f" x="345.510171" y="307.584" style="stroke: #000000; stroke-width: 0.8"/>
      </g>
     </g>
     <g id="text_7">
      <!-- 60000 -->
      <g transform="translate(329.603921 322.182437) scale(0.1 -0.1)">
       <defs>
        <path id="DejaVuSans-36" d="M 2113 2584 
Q 1688 2584 1439 2293 
Q 1191 2003 1191 1497 
Q 1191 994 1439 701 
Q 1688 409 2113 409 
Q 2538 409 2786 701 
Q 3034 994 3034 1497 
Q 3034 2003 2786 2293 
Q 2538 2584 2113 2584 
z
M 3366 4563 
L 3366 3988 
Q 3128 4100 2886 4159 
Q 2644 4219 2406 4219 
Q 1781 4219 1451 3797 
Q 1122 3375 1075 2522 
Q 1259 2794 1537 2939 
Q 1816 3084 2150 3084 
Q 2853 3084 3261 2657 
Q 3669 2231 3669 1497 
Q 3669 778 3244 343 
Q 2819 -91 2113 -91 
Q 1303 -91 875 529 
Q 447 1150 447 2328 
Q 447 3434 972 4092 
Q 1497 4750 2381 4750 
Q 2619 4750 2861 4703 
Q 3103 4656 3366 4563 
z
" transform="scale(0.015625)"/>
       </defs>
       <use xlink:href="#DejaVuSans-36"/>
       <use xlink:href="#DejaVuSans-30" x="63.623047"/>
       <use xlink:href="#DejaVuSans-30" x="127.246094"/>
       <use xlink:href="#DejaVuSans-30" x="190.869141"/>
       <use xlink:href="#DejaVuSans-30" x="254.492188"/>
      </g>
     </g>
    </g>
    <g id="xtick_8">
     <g id="line2d_8">
      <g>
       <use xlink:href="#m5ead754f0f" x="390.789745" y="307.584" style="stroke: #000000; stroke-width: 0.8"/>
      </g>
     </g>
     <g id="text_8">
      <!-- 70000 -->
      <g transform="translate(374.883495 322.182437) scale(0.1 -0.1)">
       <defs>
        <path id="DejaVuSans-37" d="M 525 4666 
L 3525 4666 
L 3525 4397 
L 1831 0 
L 1172 0 
L 2766 4134 
L 525 4134 
L 525 4666 
z
" transform="scale(0.015625)"/>
       </defs>
       <use xlink:href="#DejaVuSans-37"/>
       <use xlink:href="#DejaVuSans-30" x="63.623047"/>
       <use xlink:href="#DejaVuSans-30" x="127.246094"/>
       <use xlink:href="#DejaVuSans-30" x="190.869141"/>
       <use xlink:href="#DejaVuSans-30" x="254.492188"/>
      </g>
     </g>
    </g>
   </g>
   <g id="matplotlib.axis_2">
    <g id="ytick_1">
     <g id="line2d_9">
      <defs>
       <path id="m386e08264f" d="M 0 0 
L -3.5 0 
" style="stroke: #000000; stroke-width: 0.8"/>
      </defs>
      <g>
       <use xlink:href="#m386e08264f" x="57.6" y="295.488" style="stroke: #000000; stroke-width: 0.8"/>
      </g>
     </g>
     <g id="text_9">
      <!-- 0.0 -->
      <g transform="translate(34.696875 299.287219) scale(0.1 -0.1)">
       <defs>
        <path id="DejaVuSans-2e" d="M 684 794 
L 1344 794 
L 1344 0 
L 684 0 
L 684 794 
z
" transform="scale(0.015625)"/>
       </defs>
       <use xlink:href="#DejaVuSans-30"/>
       <use xlink:href="#DejaVuSans-2e" x="63.623047"/>
       <use xlink:href="#DejaVuSans-30" x="95.410156"/>
      </g>
     </g>
    </g>
    <g id="ytick_2">
     <g id="line2d_10">
      <g>
       <use xlink:href="#m386e08264f" x="57.6" y="247.104" style="stroke: #000000; stroke-width: 0.8"/>
      </g>
     </g>
     <g id="text_10">
      <!-- 0.2 -->
      <g transform="translate(34.696875 250.903219) scale(0.1 -0.1)">
       <use xlink:href="#DejaVuSans-30"/>
       <use xlink:href="#DejaVuSans-2e" x="63.623047"/>
       <use xlink:href="#DejaVuSans-32" x="95.410156"/>
      </g>
     </g>
    </g>
    <g id="ytick_3">
     <g id="line2d_11">
      <g>
       <use xlink:href="#m386e08264f" x="57.6" y="198.72" style="stroke: #000000; stroke-width: 0.8"/>
      </g>
     </g>
     <g id="text_11">
      <!-- 0.4 -->
      <g transform="translate(34.696875 202.519219) scale(0.1 -0.1)">
       <use xlink:href="#DejaVuSans-30"/>
       <use xlink:href="#DejaVuSans-2e" x="63.623047"/>
       <use xlink:href="#DejaVuSans-34" x="95.410156"/>
      </g>
     </g>
    </g>
    <g id="ytick_4">
     <g id="line2d_12">
      <g>
       <use xlink:href="#m386e08264f" x="57.6" y="150.336" style="stroke: #000000; stroke-width: 0.8"/>
      </g>
     </g>
     <g id="text_12">
      <!-- 0.6 -->
      <g transform="translate(34.696875 154.135219) scale(0.1 -0.1)">
       <use xlink:href="#DejaVuSans-30"/>
       <use xlink:href="#DejaVuSans-2e" x="63.623047"/>
       <use xlink:href="#DejaVuSans-36" x="95.410156"/>
      </g>
     </g>
    </g>
    <g id="ytick_5">
     <g id="line2d_13">
      <g>
       <use xlink:href="#m386e08264f" x="57.6" y="101.952" style="stroke: #000000; stroke-width: 0.8"/>
      </g>
     </g>
     <g id="text_13">
      <!-- 0.8 -->
      <g transform="translate(34.696875 105.751219) scale(0.1 -0.1)">
       <defs>
        <path id="DejaVuSans-38" d="M 2034 2216 
Q 1584 2216 1326 1975 
Q 1069 1734 1069 1313 
Q 1069 891 1326 650 
Q 1584 409 2034 409 
Q 2484 409 2743 651 
Q 3003 894 3003 1313 
Q 3003 1734 2745 1975 
Q 2488 2216 2034 2216 
z
M 1403 2484 
Q 997 2584 770 2862 
Q 544 3141 544 3541 
Q 544 4100 942 4425 
Q 1341 4750 2034 4750 
Q 2731 4750 3128 4425 
Q 3525 4100 3525 3541 
Q 3525 3141 3298 2862 
Q 3072 2584 2669 2484 
Q 3125 2378 3379 2068 
Q 3634 1759 3634 1313 
Q 3634 634 3220 271 
Q 2806 -91 2034 -91 
Q 1263 -91 848 271 
Q 434 634 434 1313 
Q 434 1759 690 2068 
Q 947 2378 1403 2484 
z
M 1172 3481 
Q 1172 3119 1398 2916 
Q 1625 2713 2034 2713 
Q 2441 2713 2670 2916 
Q 2900 3119 2900 3481 
Q 2900 3844 2670 4047 
Q 2441 4250 2034 4250 
Q 1625 4250 1398 4047 
Q 1172 3844 1172 3481 
z
" transform="scale(0.015625)"/>
       </defs>
       <use xlink:href="#DejaVuSans-30"/>
       <use xlink:href="#DejaVuSans-2e" x="63.623047"/>
       <use xlink:href="#DejaVuSans-38" x="95.410156"/>
      </g>
     </g>
    </g>
    <g id="ytick_6">
     <g id="line2d_14">
      <g>
       <use xlink:href="#m386e08264f" x="57.6" y="53.568" style="stroke: #000000; stroke-width: 0.8"/>
      </g>
     </g>
     <g id="text_14">
      <!-- 1.0 -->
      <g transform="translate(34.696875 57.367219) scale(0.1 -0.1)">
       <use xlink:href="#DejaVuSans-31"/>
       <use xlink:href="#DejaVuSans-2e" x="63.623047"/>
       <use xlink:href="#DejaVuSans-30" x="95.410156"/>
      </g>
     </g>
    </g>
   </g>
   <g id="line2d_15">
    <path d="M 73.832727 295.488 
L 84.020631 295.488 
L 84.111191 219.544703 
L 84.111191 219.544703 
L 84.15647 219.544703 
L 84.15647 219.305887 
L 84.563986 219.305887 
L 84.563986 219.067072 
L 84.790384 219.067072 
L 84.790384 218.828257 
L 85.514857 218.828257 
L 85.514857 218.589441 
L 86.239331 218.589441 
L 86.239331 218.350626 
L 87.552438 218.350626 
L 87.552438 218.11181 
L 89.544739 218.11181 
L 89.544739 217.872995 
L 89.952256 217.872995 
L 89.952256 217.63418 
L 90.58617 217.63418 
L 90.58617 217.395364 
L 90.722008 217.395364 
L 90.722008 217.156549 
L 92.216234 217.156549 
L 92.216234 216.917733 
L 92.442632 216.917733 
L 92.442632 216.678918 
L 93.846299 216.678918 
L 93.846299 216.440103 
L 94.389654 216.440103 
L 94.434933 215.723656 
L 94.75189 215.723656 
L 94.75189 215.484841 
L 95.431084 215.484841 
L 95.431084 215.246026 
L 95.748041 215.246026 
L 95.748041 215.00721 
L 96.246116 215.00721 
L 96.246116 214.529579 
L 96.246116 214.529579 
L 97.015869 214.529579 
L 97.106428 213.813133 
L 97.106428 213.813133 
L 97.695063 213.813133 
L 97.695063 213.574318 
L 98.057299 213.574318 
L 98.057299 213.335502 
L 98.193138 213.335502 
L 98.283697 212.857872 
L 98.328977 212.857872 
L 98.374256 211.90261 
L 98.374256 211.90261 
L 98.464816 211.90261 
L 98.510095 211.424979 
L 99.732644 211.424979 
L 99.732644 211.186164 
L 100.004321 211.186164 
L 100.004321 210.947348 
L 101.770224 210.947348 
L 101.770224 210.708533 
L 102.766375 210.708533 
L 102.766375 210.469718 
L 104.034203 210.469718 
L 104.034203 210.230902 
L 104.39644 210.230902 
L 104.39644 209.992087 
L 104.939795 209.992087 
L 104.939795 209.753271 
L 105.256752 209.753271 
L 105.256752 209.514456 
L 105.39259 209.514456 
L 105.39259 209.275641 
L 105.528429 209.275641 
L 105.528429 208.79801 
L 105.528429 208.79801 
L 106.252902 208.79801 
L 106.252902 208.559194 
L 107.56601 208.559194 
L 107.56601 208.320379 
L 108.60744 208.320379 
L 108.60744 208.081564 
L 109.920548 208.081564 
L 109.920548 207.126302 
L 109.920548 207.126302 
L 110.192225 207.126302 
L 110.192225 206.887487 
L 110.599741 206.887487 
L 110.599741 206.648671 
L 112.048688 206.648671 
L 112.048688 206.409856 
L 112.592043 206.409856 
L 112.592043 206.17104 
L 112.773161 206.17104 
L 112.773161 205.932225 
L 113.225957 205.932225 
L 113.225957 205.69341 
L 113.497634 205.69341 
L 113.497634 205.454594 
L 113.814591 205.454594 
L 113.814591 205.215779 
L 114.267387 205.215779 
L 114.267387 204.976963 
L 114.94658 204.976963 
L 114.94658 204.738148 
L 115.082419 204.738148 
L 115.082419 204.499333 
L 115.942731 204.499333 
L 115.942731 203.782886 
L 115.942731 203.782886 
L 117.935032 203.782886 
L 117.980312 202.827625 
L 118.16143 202.827625 
L 118.16143 202.588809 
L 118.931183 202.588809 
L 118.931183 201.633548 
L 118.931183 201.633548 
L 119.067022 201.633548 
L 119.067022 201.394732 
L 119.429258 201.394732 
L 119.474538 200.439471 
L 119.610377 200.439471 
L 119.610377 200.200655 
L 120.108452 200.200655 
L 120.153731 199.245394 
L 120.153731 199.245394 
L 121.512119 199.245394 
L 121.512119 198.290132 
L 121.512119 198.290132 
L 122.100753 198.290132 
L 122.100753 198.051317 
L 123.051624 198.051317 
L 123.096904 196.85724 
L 123.096904 196.85724 
L 124.500571 196.85724 
L 124.500571 196.618424 
L 124.726968 196.618424 
L 124.726968 196.379609 
L 125.58728 196.379609 
L 125.58728 196.140794 
L 125.768399 196.140794 
L 125.768399 195.901978 
L 125.949517 195.901978 
L 126.040076 195.424347 
L 126.447592 195.424347 
L 126.447592 195.185532 
L 126.628711 195.185532 
L 126.628711 194.946717 
L 126.809829 194.946717 
L 126.809829 194.707901 
L 127.217345 194.707901 
L 127.262625 194.23027 
L 127.851259 194.23027 
L 127.941818 193.75264 
L 128.168216 193.75264 
L 128.168216 193.513824 
L 129.390765 193.513824 
L 129.390765 193.275009 
L 131.383066 193.275009 
L 131.383066 193.036193 
L 131.790582 193.036193 
L 131.835862 192.319747 
L 131.835862 192.319747 
L 132.650894 192.319747 
L 132.650894 192.080932 
L 132.786733 192.080932 
L 132.786733 191.842116 
L 133.05841 191.842116 
L 133.05841 191.603301 
L 134.14512 191.603301 
L 134.14512 191.364486 
L 134.688475 191.364486 
L 134.688475 191.12567 
L 135.14127 191.12567 
L 135.14127 190.886855 
L 135.548787 190.886855 
L 135.548787 190.648039 
L 135.956303 190.648039 
L 136.046862 189.931593 
L 136.363819 189.931593 
L 136.363819 189.692778 
L 136.590217 189.692778 
L 136.680776 188.976332 
L 137.26941 188.976332 
L 137.26941 188.498701 
L 137.26941 188.498701 
L 137.948604 188.498701 
L 137.948604 188.259885 
L 138.537238 188.259885 
L 138.537238 188.02107 
L 138.990034 188.02107 
L 138.990034 187.782255 
L 139.48811 187.782255 
L 139.48811 187.543439 
L 139.895626 187.543439 
L 139.895626 187.304624 
L 140.48426 187.304624 
L 140.48426 187.065808 
L 141.344572 187.065808 
L 141.344572 186.826993 
L 142.250164 186.826993 
L 142.340723 186.349362 
L 142.567121 186.349362 
L 142.567121 186.110547 
L 143.065196 186.110547 
L 143.065196 185.632916 
L 143.065196 185.632916 
L 143.246314 185.632916 
L 143.246314 185.394101 
L 144.061347 185.394101 
L 144.061347 185.155285 
L 144.649981 185.155285 
L 144.649981 184.91647 
L 144.921658 184.91647 
L 145.012218 183.961208 
L 145.012218 183.961208 
L 145.057497 183.961208 
L 145.057497 183.722393 
L 145.646132 183.722393 
L 145.736691 183.005947 
L 146.008368 183.005947 
L 146.008368 182.767131 
L 146.86868 182.767131 
L 146.91396 182.2895 
L 147.004519 182.2895 
L 147.095078 181.81187 
L 147.140358 181.81187 
L 147.230917 181.095423 
L 147.276196 181.095423 
L 147.321476 180.617793 
L 147.638433 180.617793 
L 147.638433 180.378977 
L 148.181788 180.378977 
L 148.181788 180.140162 
L 148.634583 180.140162 
L 148.634583 179.901346 
L 148.770422 179.901346 
L 148.770422 179.662531 
L 149.087379 179.662531 
L 149.087379 179.1849 
L 149.087379 179.1849 
L 149.494895 179.1849 
L 149.494895 178.946085 
L 150.174089 178.946085 
L 150.264648 177.990823 
L 150.626885 177.990823 
L 150.626885 177.752008 
L 150.762723 177.752008 
L 150.808003 177.274377 
L 151.07968 177.274377 
L 151.12496 176.319115 
L 151.306078 176.319115 
L 151.306078 176.0803 
L 151.623035 176.0803 
L 151.623035 175.841485 
L 151.985272 175.841485 
L 152.075831 175.363854 
L 152.16639 175.363854 
L 152.256949 174.647408 
L 152.528627 174.647408 
L 152.619186 174.169777 
L 152.936143 174.169777 
L 152.936143 173.930962 
L 153.20782 173.930962 
L 153.20782 173.692146 
L 153.524777 173.692146 
L 153.615337 172.259254 
L 153.660616 172.259254 
L 153.660616 172.020438 
L 153.977573 172.020438 
L 154.022853 171.542808 
L 154.158692 171.542808 
L 154.158692 171.303992 
L 154.430369 171.303992 
L 154.430369 171.065177 
L 154.747326 171.065177 
L 154.747326 170.109915 
L 154.747326 170.109915 
L 155.109563 170.109915 
L 155.154842 169.632284 
L 155.42652 169.632284 
L 155.42652 169.393469 
L 155.743477 169.393469 
L 155.834036 168.915838 
L 155.879315 168.915838 
L 155.879315 168.677023 
L 156.286831 168.677023 
L 156.286831 168.438207 
L 156.920746 168.438207 
L 156.920746 168.199392 
L 157.192423 168.199392 
L 157.192423 167.960577 
L 157.418821 167.960577 
L 157.4641 167.482946 
L 157.645219 167.482946 
L 157.735778 166.288869 
L 158.052735 166.288869 
L 158.143294 165.811238 
L 158.324412 165.811238 
L 158.324412 165.572423 
L 158.59609 165.572423 
L 158.686649 165.094792 
L 158.958326 165.094792 
L 158.958326 164.855976 
L 159.456402 164.855976 
L 159.456402 164.378346 
L 159.456402 164.378346 
L 160.135595 164.378346 
L 160.135595 164.13953 
L 160.497832 164.13953 
L 160.497832 163.900715 
L 161.358144 163.900715 
L 161.358144 163.661899 
L 162.309015 163.661899 
L 162.309015 163.423084 
L 163.214606 163.423084 
L 163.214606 163.184269 
L 163.757961 163.184269 
L 163.757961 162.945453 
L 163.984359 162.945453 
L 163.984359 162.706638 
L 164.210757 162.706638 
L 164.210757 162.467822 
L 164.391875 162.467822 
L 164.391875 162.229007 
L 164.708832 162.229007 
L 164.708832 161.990192 
L 165.569144 161.990192 
L 165.569144 161.751376 
L 165.840822 161.751376 
L 165.931381 161.03493 
L 166.972811 161.03493 
L 166.972811 160.796115 
L 168.014241 160.796115 
L 168.014241 160.557299 
L 168.15008 160.557299 
L 168.195359 160.079668 
L 168.376478 160.079668 
L 168.467037 159.602038 
L 169.463188 159.602038 
L 169.463188 159.124407 
L 169.463188 159.124407 
L 169.599026 159.124407 
L 169.599026 158.885591 
L 170.006542 158.885591 
L 170.006542 158.407961 
L 170.006542 158.407961 
L 170.23294 158.407961 
L 170.23294 158.169145 
L 170.459338 158.169145 
L 170.459338 157.93033 
L 170.640456 157.93033 
L 170.640456 157.691514 
L 171.047973 157.691514 
L 171.093252 156.975068 
L 171.36493 156.975068 
L 171.410209 156.497437 
L 171.772446 156.497437 
L 171.772446 156.258622 
L 171.953564 156.258622 
L 171.953564 156.019807 
L 172.134682 156.019807 
L 172.134682 155.780991 
L 172.315801 155.780991 
L 172.315801 155.542176 
L 172.587478 155.542176 
L 172.678037 154.82573 
L 172.904435 154.82573 
L 172.904435 154.348099 
L 172.904435 154.348099 
L 173.085553 154.348099 
L 173.085553 154.109283 
L 173.357231 154.109283 
L 173.44779 153.392837 
L 173.44779 153.392837 
L 173.945865 153.392837 
L 174.036424 152.915206 
L 174.353382 152.915206 
L 174.398661 152.437576 
L 174.715618 152.437576 
L 174.806177 151.959945 
L 174.851457 151.959945 
L 174.896736 151.482314 
L 174.987296 151.482314 
L 174.987296 151.243499 
L 175.394812 151.243499 
L 175.440091 150.765868 
L 175.666489 150.765868 
L 175.757048 149.332975 
L 176.300403 149.332975 
L 176.345683 148.855345 
L 176.526801 148.855345 
L 176.526801 148.377714 
L 176.526801 148.377714 
L 177.205995 148.377714 
L 177.205995 147.661268 
L 177.205995 147.661268 
L 177.65879 147.661268 
L 177.65879 147.422452 
L 178.428543 147.422452 
L 178.473823 146.467191 
L 178.700221 146.467191 
L 178.7455 145.750744 
L 178.7455 145.750744 
L 178.926618 145.750744 
L 179.017178 145.034298 
L 179.379414 145.034298 
L 179.379414 144.795483 
L 179.560533 144.795483 
L 179.605812 144.079037 
L 179.741651 144.079037 
L 179.741651 143.840221 
L 180.194447 143.840221 
L 180.194447 143.36259 
L 180.194447 143.36259 
L 180.420844 143.36259 
L 180.511404 142.646144 
L 180.556683 142.646144 
L 180.556683 142.168513 
L 180.556683 142.168513 
L 180.91892 142.168513 
L 180.91892 141.929698 
L 181.145318 141.929698 
L 181.235877 141.452067 
L 181.462275 141.452067 
L 181.507554 140.974436 
L 181.643393 140.974436 
L 181.733952 140.25799 
L 181.869791 140.25799 
L 181.869791 140.019175 
L 182.00563 140.019175 
L 182.00563 139.780359 
L 182.232027 139.780359 
L 182.232027 139.541544 
L 182.594264 139.541544 
L 182.684823 139.063913 
L 182.911221 139.063913 
L 182.911221 138.825098 
L 183.364017 138.825098 
L 183.409296 138.347467 
L 183.590415 138.347467 
L 183.680974 137.631021 
L 183.816812 137.631021 
L 183.816812 137.15339 
L 183.816812 137.15339 
L 184.04321 137.15339 
L 184.08849 136.675759 
L 184.179049 136.675759 
L 184.179049 136.436944 
L 184.994081 136.436944 
L 184.994081 136.198128 
L 185.401598 136.198128 
L 185.446877 135.720498 
L 185.582716 135.720498 
L 185.582716 135.481682 
L 185.718555 135.481682 
L 185.718555 135.004051 
L 185.718555 135.004051 
L 186.035512 135.004051 
L 186.035512 134.765236 
L 186.307189 134.765236 
L 186.307189 134.526421 
L 186.488307 134.526421 
L 186.488307 134.287605 
L 186.850544 134.287605 
L 186.941103 133.571159 
L 186.941103 133.571159 
L 186.986383 133.571159 
L 187.076942 132.615897 
L 187.122221 132.615897 
L 187.212781 131.183005 
L 187.575017 131.183005 
L 187.575017 130.94419 
L 188.027813 130.94419 
L 188.027813 130.705374 
L 188.163652 130.705374 
L 188.163652 130.466559 
L 188.34477 130.466559 
L 188.390049 129.988928 
L 188.480609 129.988928 
L 188.480609 129.750113 
L 188.752286 129.750113 
L 188.842845 129.272482 
L 188.888125 129.272482 
L 188.888125 129.033666 
L 189.023963 129.033666 
L 189.114523 128.31722 
L 189.838996 128.31722 
L 189.884275 127.839589 
L 189.974835 127.839589 
L 190.065394 127.123143 
L 190.246512 127.123143 
L 190.337071 125.929066 
L 190.337071 125.929066 
L 190.42763 125.929066 
L 190.42763 125.690251 
L 190.744587 125.690251 
L 190.744587 125.451435 
L 190.880426 125.451435 
L 190.880426 125.21262 
L 191.152103 125.21262 
L 191.242663 124.734989 
L 191.287942 124.734989 
L 191.333222 124.257358 
L 191.650179 124.257358 
L 191.650179 124.018543 
L 191.786017 124.018543 
L 191.786017 123.779728 
L 192.057695 123.779728 
L 192.057695 123.540912 
L 192.60105 123.540912 
L 192.60105 123.302097 
L 194.004717 123.302097 
L 194.004717 123.063281 
L 194.72919 123.063281 
L 194.819749 122.585651 
L 195.317824 122.585651 
L 195.317824 122.346835 
L 195.634781 122.346835 
L 195.680061 121.869204 
L 196.042297 121.869204 
L 196.042297 121.630389 
L 196.178136 121.630389 
L 196.178136 121.391574 
L 196.766771 121.391574 
L 196.81205 120.913943 
L 196.902609 120.913943 
L 196.993169 120.436312 
L 197.219566 120.436312 
L 197.219566 120.197497 
L 197.445964 120.197497 
L 197.536523 119.242235 
L 197.536523 119.242235 
L 198.623233 119.242235 
L 198.668513 118.764604 
L 198.759072 118.764604 
L 198.849631 118.286973 
L 199.030749 118.286973 
L 199.030749 118.048158 
L 199.347706 118.048158 
L 199.347706 117.809343 
L 199.483545 117.809343 
L 199.574104 117.092896 
L 199.664663 117.092896 
L 199.709943 116.137635 
L 200.706094 116.137635 
L 200.706094 115.898819 
L 201.158889 115.898819 
L 201.158889 115.660004 
L 202.336158 115.660004 
L 202.336158 115.421189 
L 202.607836 115.421189 
L 202.607836 115.182373 
L 202.879513 115.182373 
L 202.879513 114.943558 
L 203.830384 114.943558 
L 203.830384 114.704742 
L 205.36989 114.704742 
L 205.36989 114.465927 
L 205.596288 114.465927 
L 205.596288 114.227112 
L 206.501879 114.227112 
L 206.501879 113.988296 
L 208.946976 113.988296 
L 208.946976 113.033035 
L 208.946976 113.033035 
L 209.53561 113.033035 
L 209.58089 112.555404 
L 209.852568 112.555404 
L 209.852568 112.316588 
L 210.939277 112.316588 
L 210.939277 112.077773 
L 212.433503 112.077773 
L 212.433503 111.838958 
L 213.112697 111.838958 
L 213.157976 111.361327 
L 213.248536 111.361327 
L 213.248536 111.122511 
L 213.474933 111.122511 
L 213.474933 110.883696 
L 213.610772 110.883696 
L 213.701331 109.928434 
L 213.701331 109.928434 
L 213.79189 109.928434 
L 213.83717 108.973173 
L 213.83717 108.973173 
L 214.335245 108.973173 
L 214.335245 108.734357 
L 214.516364 108.734357 
L 214.516364 108.495542 
L 214.697482 108.495542 
L 214.742762 107.779096 
L 214.833321 107.779096 
L 214.833321 107.54028 
L 215.059719 107.54028 
L 215.059719 107.301465 
L 215.240837 107.301465 
L 215.286116 106.346203 
L 215.648353 106.346203 
L 215.648353 105.868573 
L 215.648353 105.868573 
L 215.784192 105.868573 
L 215.784192 105.629757 
L 216.146428 105.629757 
L 216.146428 105.390942 
L 216.689783 105.390942 
L 216.735063 104.913311 
L 216.825622 104.913311 
L 216.825622 104.674496 
L 217.00674 104.674496 
L 217.05202 104.196865 
L 217.187859 104.196865 
L 217.187859 103.958049 
L 217.459536 103.958049 
L 217.550095 103.480419 
L 217.595375 103.480419 
L 217.685934 102.286342 
L 217.685934 102.286342 
L 217.821773 102.286342 
L 217.821773 102.047526 
L 217.957611 102.047526 
L 217.957611 101.808711 
L 218.09345 101.808711 
L 218.13873 101.092265 
L 218.13873 101.092265 
L 218.229289 101.092265 
L 218.229289 100.853449 
L 218.410407 100.853449 
L 218.500966 99.898188 
L 218.500966 99.898188 
L 218.591525 99.898188 
L 218.591525 99.659372 
L 218.772644 99.659372 
L 218.772644 98.704111 
L 218.772644 98.704111 
L 218.908482 98.704111 
L 218.999041 97.748849 
L 218.999041 97.748849 
L 219.044321 97.748849 
L 219.089601 97.032403 
L 219.18016 97.032403 
L 219.18016 96.793587 
L 219.497117 96.793587 
L 219.542396 96.315957 
L 219.632955 96.315957 
L 219.632955 95.838326 
L 219.632955 95.838326 
L 219.904633 95.838326 
L 219.995192 95.360695 
L 220.085751 95.360695 
L 220.085751 95.12188 
L 220.312149 95.12188 
L 220.312149 94.883064 
L 220.447988 94.883064 
L 220.538547 93.927803 
L 220.538547 93.927803 
L 220.629106 93.927803 
L 220.719665 93.450172 
L 220.855504 93.450172 
L 220.946063 92.017279 
L 221.217741 92.017279 
L 221.217741 91.778464 
L 221.398859 91.778464 
L 221.398859 91.539649 
L 221.579977 91.539649 
L 221.579977 91.300833 
L 221.761095 91.300833 
L 221.851655 89.39031 
L 221.851655 89.39031 
L 222.123332 89.39031 
L 222.213891 88.673864 
L 222.213891 88.673864 
L 222.34973 88.673864 
L 222.440289 87.718602 
L 222.711967 87.718602 
L 222.711967 87.240971 
L 222.711967 87.240971 
L 222.893085 87.240971 
L 222.983644 86.524525 
L 222.983644 86.524525 
L 223.164762 86.524525 
L 223.255321 85.569264 
L 223.255321 85.569264 
L 223.526999 85.569264 
L 223.526999 85.330448 
L 223.798676 85.330448 
L 223.798676 85.091633 
L 223.934515 85.091633 
L 224.025074 83.897556 
L 224.115633 83.897556 
L 224.115633 83.65874 
L 224.342031 83.65874 
L 224.342031 83.419925 
L 224.523149 83.419925 
L 224.568429 82.703479 
L 224.794827 82.703479 
L 224.794827 82.464663 
L 224.975945 82.464663 
L 224.975945 82.225848 
L 225.700418 82.225848 
L 225.700418 81.987033 
L 225.881537 81.987033 
L 225.926816 81.509402 
L 226.062655 81.509402 
L 226.062655 81.270586 
L 226.379612 81.270586 
L 226.470171 80.792956 
L 226.60601 80.792956 
L 226.696569 80.315325 
L 226.877687 80.315325 
L 226.922967 79.598879 
L 226.922967 79.598879 
L 227.375763 79.598879 
L 227.375763 79.360063 
L 227.64744 79.360063 
L 227.64744 79.121248 
L 227.919118 79.121248 
L 227.919118 78.882432 
L 228.100236 78.882432 
L 228.190795 78.404802 
L 228.281354 78.404802 
L 228.281354 78.165986 
L 229.232225 78.165986 
L 229.232225 77.927171 
L 229.458623 77.927171 
L 229.458623 77.688355 
L 230.001978 77.688355 
L 230.001978 77.44954 
L 230.681172 77.44954 
L 230.771731 76.971909 
L 230.907569 76.971909 
L 230.907569 76.494278 
L 230.907569 76.494278 
L 231.85844 76.494278 
L 231.85844 76.255463 
L 232.084838 76.255463 
L 232.084838 76.016648 
L 232.265957 76.016648 
L 232.311236 75.539017 
L 233.126269 75.539017 
L 233.126269 75.300201 
L 233.397946 75.300201 
L 233.397946 75.061386 
L 233.760183 75.061386 
L 233.760183 74.822571 
L 234.620494 74.822571 
L 234.665774 74.34494 
L 235.163849 74.34494 
L 235.163849 74.106124 
L 235.435527 74.106124 
L 235.435527 73.867309 
L 235.797763 73.867309 
L 235.797763 73.628494 
L 235.933602 73.628494 
L 235.933602 73.389678 
L 236.476957 73.389678 
L 236.476957 73.150863 
L 236.658075 73.150863 
L 236.658075 72.912047 
L 237.156151 72.912047 
L 237.156151 72.673232 
L 238.152301 72.673232 
L 238.152301 72.434417 
L 238.650377 72.434417 
L 238.650377 72.195601 
L 238.967334 72.195601 
L 238.967334 71.956786 
L 239.691807 71.956786 
L 239.691807 71.71797 
L 240.325721 71.71797 
L 240.325721 71.479155 
L 240.552119 71.479155 
L 240.552119 71.24034 
L 240.959635 71.24034 
L 240.959635 71.001524 
L 241.50299 71.001524 
L 241.548269 70.523893 
L 241.638828 70.523893 
L 241.638828 70.285078 
L 242.363302 70.285078 
L 242.363302 70.046263 
L 242.997216 70.046263 
L 243.087775 69.568632 
L 243.450011 69.568632 
L 243.540571 69.091001 
L 243.63113 69.091001 
L 243.63113 68.852186 
L 243.857528 68.852186 
L 243.857528 68.61337 
L 244.038646 68.61337 
L 244.038646 68.374555 
L 244.310323 68.374555 
L 244.310323 68.135739 
L 244.67256 68.135739 
L 244.763119 67.658109 
L 244.989517 67.658109 
L 245.080076 67.180478 
L 245.261194 67.180478 
L 245.261194 66.941662 
L 245.532872 66.941662 
L 245.532872 66.702847 
L 246.030947 66.702847 
L 246.121506 65.747585 
L 246.529022 65.747585 
L 246.529022 65.50877 
L 246.936539 65.50877 
L 246.936539 65.269955 
L 247.298775 65.269955 
L 247.344055 64.792324 
L 247.615732 64.792324 
L 247.615732 64.553508 
L 247.796851 64.553508 
L 247.796851 64.314693 
L 247.977969 64.314693 
L 247.977969 64.075878 
L 248.974119 64.075878 
L 248.974119 63.837062 
L 249.381636 63.837062 
L 249.472195 63.359431 
L 249.743872 63.359431 
L 249.743872 63.120616 
L 249.97027 63.120616 
L 250.060829 62.40417 
L 250.060829 62.40417 
L 250.106109 62.40417 
L 250.106109 62.165354 
L 250.649464 62.165354 
L 250.649464 61.926539 
L 251.328657 61.926539 
L 251.328657 61.687724 
L 251.509776 61.687724 
L 251.555055 60.971277 
L 251.555055 60.971277 
L 251.645614 60.971277 
L 251.645614 60.732462 
L 251.917292 60.732462 
L 251.962571 60.016016 
L 251.962571 60.016016 
L 252.05313 60.016016 
L 252.05313 59.7772 
L 252.415367 59.7772 
L 252.415367 59.538385 
L 253.13984 59.538385 
L 253.230399 58.583123 
L 253.230399 58.583123 
L 253.637916 58.583123 
L 253.683195 58.105493 
L 254.724625 58.105493 
L 254.724625 57.389046 
L 254.724625 57.389046 
L 255.26798 57.389046 
L 255.31326 56.911416 
L 255.856615 56.911416 
L 255.856615 56.6726 
L 257.577238 56.6726 
L 257.577238 56.433785 
L 257.758357 56.433785 
L 257.758357 56.194969 
L 257.894196 56.194969 
L 257.939475 55.239708 
L 259.841217 55.239708 
L 259.841217 55.000892 
L 260.429852 55.000892 
L 260.429852 54.284446 
L 260.429852 54.284446 
L 261.561841 54.284446 
L 261.607121 53.568 
L 261.607121 53.568 
" clip-path="url(#p0444bf7abe)" style="fill: none; stroke: #1f77b4; stroke-width: 1.5; stroke-linecap: square"/>
   </g>
   <g id="line2d_16">
    <path d="M 73.832727 295.488 
L 84.020631 295.488 
L 84.111191 146.921914 
L 84.111191 146.921914 
L 84.15647 146.921914 
L 84.15647 146.121738 
L 84.15647 146.121738 
L 84.382868 146.121738 
L 84.428148 145.321561 
L 84.428148 145.321561 
L 84.609266 145.321561 
L 84.609266 145.054836 
L 84.971502 145.054836 
L 84.971502 143.987934 
L 84.971502 143.987934 
L 85.288459 143.987934 
L 85.379019 142.921032 
L 85.379019 142.921032 
L 86.058212 142.921032 
L 86.058212 142.654307 
L 86.918524 142.654307 
L 87.009083 141.320679 
L 87.009083 141.320679 
L 87.597718 141.320679 
L 87.688277 140.787228 
L 89.091944 140.787228 
L 89.182503 140.253777 
L 89.227782 140.253777 
L 89.273062 138.92015 
L 89.273062 138.92015 
L 89.635299 138.92015 
L 89.725858 138.386699 
L 89.816417 138.386699 
L 89.816417 138.119974 
L 90.359772 138.119974 
L 90.359772 137.586523 
L 90.359772 137.586523 
L 90.722008 137.586523 
L 90.722008 137.053072 
L 90.722008 137.053072 
L 91.220084 137.053072 
L 91.220084 136.786346 
L 91.718159 136.786346 
L 91.718159 136.252895 
L 91.718159 136.252895 
L 91.853998 136.252895 
L 91.853998 135.719444 
L 91.853998 135.719444 
L 93.529342 135.719444 
L 93.619901 134.119092 
L 93.619901 134.119092 
L 94.027417 134.119092 
L 94.117976 133.585641 
L 94.299095 133.585641 
L 94.389654 132.785464 
L 94.389654 132.785464 
L 94.434933 132.785464 
L 94.480213 131.185111 
L 94.480213 131.185111 
L 94.616052 131.185111 
L 94.661331 130.65166 
L 94.79717 130.65166 
L 94.84245 129.584759 
L 94.84245 129.584759 
L 94.933009 129.584759 
L 94.933009 129.318033 
L 95.068847 129.318033 
L 95.068847 129.051308 
L 95.204686 129.051308 
L 95.295245 128.517857 
L 95.385804 128.517857 
L 95.385804 127.450955 
L 95.385804 127.450955 
L 96.019719 127.450955 
L 96.110278 126.384053 
L 96.155557 126.384053 
L 96.155557 125.317151 
L 96.155557 125.317151 
L 96.92531 125.317151 
L 96.97059 124.250249 
L 97.287547 124.250249 
L 97.287547 123.183347 
L 97.287547 123.183347 
L 97.604504 123.183347 
L 97.649783 122.649896 
L 98.193138 122.649896 
L 98.283697 121.316269 
L 98.419536 121.316269 
L 98.464816 120.782818 
L 98.555375 120.782818 
L 98.555375 120.516093 
L 98.917611 120.516093 
L 98.962891 119.449191 
L 99.823203 119.449191 
L 99.823203 119.182465 
L 100.004321 119.182465 
L 100.004321 118.91574 
L 100.185439 118.91574 
L 100.185439 117.848838 
L 100.185439 117.848838 
L 101.634386 117.848838 
L 101.634386 117.582112 
L 102.2683 117.582112 
L 102.2683 117.315387 
L 102.902214 117.315387 
L 102.992773 116.515211 
L 102.992773 116.515211 
L 103.038052 116.515211 
L 103.128612 115.448309 
L 103.128612 115.448309 
L 103.35501 115.448309 
L 103.400289 114.914858 
L 103.807805 114.914858 
L 103.807805 114.648132 
L 104.215321 114.648132 
L 104.305881 113.847956 
L 104.305881 113.847956 
L 104.39644 113.847956 
L 104.441719 113.314505 
L 104.532278 113.314505 
L 104.577558 110.913976 
L 104.577558 110.913976 
L 104.758676 110.913976 
L 104.803956 108.780172 
L 104.803956 108.780172 
L 105.030354 108.780172 
L 105.075633 107.71327 
L 105.211472 107.71327 
L 105.256752 107.179819 
L 105.43787 107.179819 
L 105.483149 106.112917 
L 105.483149 106.112917 
L 105.573709 106.112917 
L 105.573709 105.846192 
L 105.709547 105.846192 
L 105.709547 105.046015 
L 105.709547 105.046015 
L 106.977375 105.046015 
L 106.977375 104.77929 
L 107.701849 104.77929 
L 107.792408 103.178937 
L 107.792408 103.178937 
L 107.837687 103.178937 
L 107.837687 102.912212 
L 107.973526 102.912212 
L 108.018806 102.112035 
L 108.018806 102.112035 
L 108.154644 102.112035 
L 108.154644 101.045133 
L 108.154644 101.045133 
L 108.426322 101.045133 
L 108.516881 100.244957 
L 108.516881 100.244957 
L 108.924397 100.244957 
L 109.014956 99.711506 
L 110.011107 99.711506 
L 110.011107 99.444781 
L 110.146946 99.444781 
L 110.192225 98.91133 
L 110.328064 98.91133 
L 110.418623 98.377879 
L 110.871419 98.377879 
L 110.961978 97.844428 
L 111.414774 97.844428 
L 111.414774 97.577702 
L 111.686451 97.577702 
L 111.77701 97.044251 
L 114.720183 97.044251 
L 114.765462 95.97735 
L 114.765462 95.97735 
L 114.94658 95.97735 
L 114.94658 95.710624 
L 115.127699 95.710624 
L 115.218258 94.376997 
L 115.218258 94.376997 
L 115.399376 94.376997 
L 115.399376 94.110271 
L 115.580494 94.110271 
L 115.580494 93.843546 
L 115.716333 93.843546 
L 115.761613 92.509918 
L 115.988011 92.509918 
L 115.988011 92.243193 
L 116.123849 92.243193 
L 116.123849 91.976467 
L 116.259688 91.976467 
L 116.259688 91.709742 
L 116.621925 91.709742 
L 116.712484 90.909566 
L 116.893602 90.909566 
L 116.938882 89.575938 
L 117.029441 89.575938 
L 117.029441 89.309213 
L 117.16528 89.309213 
L 117.210559 88.509036 
L 117.391677 88.509036 
L 117.391677 88.242311 
L 117.889753 88.242311 
L 117.889753 87.975585 
L 118.297269 87.975585 
L 118.297269 87.70886 
L 118.478387 87.70886 
L 118.478387 87.175409 
L 118.478387 87.175409 
L 118.750065 87.175409 
L 118.750065 85.841782 
L 118.750065 85.841782 
L 119.429258 85.841782 
L 119.429258 85.575056 
L 120.470688 85.575056 
L 120.515968 84.508154 
L 120.515968 84.508154 
L 122.734667 84.508154 
L 122.734667 84.241429 
L 124.772248 84.241429 
L 124.772248 83.974703 
L 124.908087 83.974703 
L 124.908087 83.707978 
L 125.225044 83.707978 
L 125.225044 82.641076 
L 125.225044 82.641076 
L 125.406162 82.641076 
L 125.406162 82.107625 
L 125.406162 82.107625 
L 125.58728 82.107625 
L 125.58728 81.8409 
L 125.858958 81.8409 
L 125.858958 81.307449 
L 125.858958 81.307449 
L 126.402313 81.307449 
L 126.402313 81.040723 
L 126.538151 81.040723 
L 126.628711 79.973821 
L 126.71927 79.973821 
L 126.764549 79.173645 
L 126.764549 79.173645 
L 127.036227 79.173645 
L 127.126786 78.106743 
L 127.217345 78.106743 
L 127.262625 75.972939 
L 127.262625 75.972939 
L 127.398463 75.972939 
L 127.489022 75.439488 
L 127.534302 75.439488 
L 127.624861 73.839136 
L 127.7607 73.839136 
L 127.851259 73.305685 
L 127.941818 73.305685 
L 127.987098 72.238783 
L 127.987098 72.238783 
L 128.168216 72.238783 
L 128.168216 71.438606 
L 128.168216 71.438606 
L 128.394614 71.438606 
L 128.485173 70.905155 
L 129.073808 70.905155 
L 129.073808 70.63843 
L 129.209646 70.63843 
L 129.209646 70.371705 
L 129.345485 70.371705 
L 129.345485 69.571528 
L 129.345485 69.571528 
L 130.069958 69.571528 
L 130.069958 69.304803 
L 131.292507 69.304803 
L 131.292507 69.038077 
L 132.107539 69.038077 
L 132.107539 68.237901 
L 132.107539 68.237901 
L 133.148969 68.237901 
L 133.148969 67.971175 
L 135.911023 67.971175 
L 135.911023 67.70445 
L 137.812765 67.70445 
L 137.858045 66.904273 
L 138.220281 66.904273 
L 138.265561 66.104097 
L 138.35612 66.104097 
L 138.446679 64.77047 
L 138.446679 64.77047 
L 138.491959 64.77047 
L 138.491959 64.503744 
L 138.673077 64.503744 
L 138.763636 63.970293 
L 139.125873 63.970293 
L 139.125873 62.36994 
L 139.125873 62.36994 
L 139.759787 62.36994 
L 139.759787 62.103215 
L 140.076744 62.103215 
L 140.122024 61.303039 
L 140.48426 61.303039 
L 140.52954 60.502862 
L 140.52954 60.502862 
L 140.620099 60.502862 
L 140.665378 59.702686 
L 145.510293 59.702686 
L 145.510293 59.43596 
L 148.362906 59.43596 
L 148.362906 59.169235 
L 153.887014 59.169235 
L 153.887014 58.902509 
L 162.354294 58.902509 
L 162.354294 58.635784 
L 168.421757 58.635784 
L 168.421757 58.369058 
L 170.776295 58.369058 
L 170.776295 58.102333 
L 176.798479 58.102333 
L 176.798479 57.835607 
L 185.311038 57.835607 
L 185.311038 57.568882 
L 272.202541 57.568882 
L 272.202541 57.302157 
L 293.212263 57.302157 
L 293.212263 57.035431 
L 303.037931 57.035431 
L 303.037931 56.768706 
L 303.717124 56.768706 
L 303.717124 56.50198 
L 313.814469 56.50198 
L 313.814469 56.235255 
L 324.545728 56.235255 
L 324.545728 55.968529 
L 335.095869 55.968529 
L 335.186428 55.435078 
L 345.781849 55.435078 
L 345.781849 55.168353 
L 356.422548 55.168353 
L 356.422548 54.901627 
L 366.836851 54.901627 
L 366.88213 54.368176 
L 377.432271 54.368176 
L 377.432271 54.101451 
L 387.937132 54.101451 
L 387.937132 53.834725 
L 398.487273 53.834725 
L 398.487273 53.568 
L 398.487273 53.568 
" clip-path="url(#p0444bf7abe)" style="fill: none; stroke: #ff7f0e; stroke-width: 1.5; stroke-linecap: square"/>
   </g>
   <g id="patch_3">
    <path d="M 57.6 307.584 
L 57.6 41.472 
" style="fill: none; stroke: #000000; stroke-width: 0.8; stroke-linejoin: miter; stroke-linecap: square"/>
   </g>
   <g id="patch_4">
    <path d="M 414.72 307.584 
L 414.72 41.472 
" style="fill: none; stroke: #000000; stroke-width: 0.8; stroke-linejoin: miter; stroke-linecap: square"/>
   </g>
   <g id="patch_5">
    <path d="M 57.6 307.584 
L 414.72 307.584 
" style="fill: none; stroke: #000000; stroke-width: 0.8; stroke-linejoin: miter; stroke-linecap: square"/>
   </g>
   <g id="patch_6">
    <path d="M 57.6 41.472 
L 414.72 41.472 
" style="fill: none; stroke: #000000; stroke-width: 0.8; stroke-linejoin: miter; stroke-linecap: square"/>
   </g>
   <g id="text_15">
    <!-- S5 S6 -->
    <g transform="translate(219 35.472) scale(0.12 -0.12)">
     <defs>
      <path id="DejaVuSans-53" d="M 3425 4513 
L 3425 3897 
Q 3066 4069 2747 4153 
Q 2428 4238 2131 4238 
Q 1616 4238 1336 4038 
Q 1056 3838 1056 3469 
Q 1056 3159 1242 3001 
Q 1428 2844 1947 2747 
L 2328 2669 
Q 3034 2534 3370 2195 
Q 3706 1856 3706 1288 
Q 3706 609 3251 259 
Q 2797 -91 1919 -91 
Q 1588 -91 1214 -16 
Q 841 59 441 206 
L 441 856 
Q 825 641 1194 531 
Q 1563 422 1919 422 
Q 2459 422 2753 634 
Q 3047 847 3047 1241 
Q 3047 1584 2836 1778 
Q 2625 1972 2144 2069 
L 1759 2144 
Q 1053 2284 737 2584 
Q 422 2884 422 3419 
Q 422 4038 858 4394 
Q 1294 4750 2059 4750 
Q 2388 4750 2728 4690 
Q 3069 4631 3425 4513 
z
" transform="scale(0.015625)"/>
      <path id="DejaVuSans-20" transform="scale(0.015625)"/>
     </defs>
     <use xlink:href="#DejaVuSans-53"/>
     <use xlink:href="#DejaVuSans-35" x="63.476562"/>
     <use xlink:href="#DejaVuSans-20" x="127.099609"/>
     <use xlink:href="#DejaVuSans-53" x="158.886719"/>
     <use xlink:href="#DejaVuSans-36" x="222.363281"/>
    </g>
   </g>
   <g id="legend_1">
    <g id="patch_7">
     <path d="M 114.636563 304.584 
L 410.52 304.584 
Q 411.72 304.584 411.72 303.384 
L 411.72 286.37025 
Q 411.72 285.17025 410.52 285.17025 
L 114.636563 285.17025 
Q 113.436563 285.17025 113.436563 286.37025 
L 113.436563 303.384 
Q 113.436563 304.584 114.636563 304.584 
z
" style="fill: #ffffff; opacity: 0.8; stroke: #cccccc; stroke-linejoin: miter"/>
    </g>
    <g id="line2d_17">
     <path d="M 115.836563 290.029312 
L 121.836563 290.029312 
L 127.836563 290.029312 
" style="fill: none; stroke: #1f77b4; stroke-width: 1.5; stroke-linecap: square"/>
    </g>
    <g id="text_16">
     <!-- Execution time between S5 S6 (xx1xx1xx1xx0yyy5xx0yyy5xx0yyy5xx0yyy5xx1yyy2xx1) -->
     <g transform="translate(132.636563 292.129312) scale(0.06 -0.06)">
      <defs>
       <path id="DejaVuSans-45" d="M 628 4666 
L 3578 4666 
L 3578 4134 
L 1259 4134 
L 1259 2753 
L 3481 2753 
L 3481 2222 
L 1259 2222 
L 1259 531 
L 3634 531 
L 3634 0 
L 628 0 
L 628 4666 
z
" transform="scale(0.015625)"/>
       <path id="DejaVuSans-78" d="M 3513 3500 
L 2247 1797 
L 3578 0 
L 2900 0 
L 1881 1375 
L 863 0 
L 184 0 
L 1544 1831 
L 300 3500 
L 978 3500 
L 1906 2253 
L 2834 3500 
L 3513 3500 
z
" transform="scale(0.015625)"/>
       <path id="DejaVuSans-65" d="M 3597 1894 
L 3597 1613 
L 953 1613 
Q 991 1019 1311 708 
Q 1631 397 2203 397 
Q 2534 397 2845 478 
Q 3156 559 3463 722 
L 3463 178 
Q 3153 47 2828 -22 
Q 2503 -91 2169 -91 
Q 1331 -91 842 396 
Q 353 884 353 1716 
Q 353 2575 817 3079 
Q 1281 3584 2069 3584 
Q 2775 3584 3186 3129 
Q 3597 2675 3597 1894 
z
M 3022 2063 
Q 3016 2534 2758 2815 
Q 2500 3097 2075 3097 
Q 1594 3097 1305 2825 
Q 1016 2553 972 2059 
L 3022 2063 
z
" transform="scale(0.015625)"/>
       <path id="DejaVuSans-63" d="M 3122 3366 
L 3122 2828 
Q 2878 2963 2633 3030 
Q 2388 3097 2138 3097 
Q 1578 3097 1268 2742 
Q 959 2388 959 1747 
Q 959 1106 1268 751 
Q 1578 397 2138 397 
Q 2388 397 2633 464 
Q 2878 531 3122 666 
L 3122 134 
Q 2881 22 2623 -34 
Q 2366 -91 2075 -91 
Q 1284 -91 818 406 
Q 353 903 353 1747 
Q 353 2603 823 3093 
Q 1294 3584 2113 3584 
Q 2378 3584 2631 3529 
Q 2884 3475 3122 3366 
z
" transform="scale(0.015625)"/>
       <path id="DejaVuSans-75" d="M 544 1381 
L 544 3500 
L 1119 3500 
L 1119 1403 
Q 1119 906 1312 657 
Q 1506 409 1894 409 
Q 2359 409 2629 706 
Q 2900 1003 2900 1516 
L 2900 3500 
L 3475 3500 
L 3475 0 
L 2900 0 
L 2900 538 
Q 2691 219 2414 64 
Q 2138 -91 1772 -91 
Q 1169 -91 856 284 
Q 544 659 544 1381 
z
M 1991 3584 
L 1991 3584 
z
" transform="scale(0.015625)"/>
       <path id="DejaVuSans-74" d="M 1172 4494 
L 1172 3500 
L 2356 3500 
L 2356 3053 
L 1172 3053 
L 1172 1153 
Q 1172 725 1289 603 
Q 1406 481 1766 481 
L 2356 481 
L 2356 0 
L 1766 0 
Q 1100 0 847 248 
Q 594 497 594 1153 
L 594 3053 
L 172 3053 
L 172 3500 
L 594 3500 
L 594 4494 
L 1172 4494 
z
" transform="scale(0.015625)"/>
       <path id="DejaVuSans-69" d="M 603 3500 
L 1178 3500 
L 1178 0 
L 603 0 
L 603 3500 
z
M 603 4863 
L 1178 4863 
L 1178 4134 
L 603 4134 
L 603 4863 
z
" transform="scale(0.015625)"/>
       <path id="DejaVuSans-6f" d="M 1959 3097 
Q 1497 3097 1228 2736 
Q 959 2375 959 1747 
Q 959 1119 1226 758 
Q 1494 397 1959 397 
Q 2419 397 2687 759 
Q 2956 1122 2956 1747 
Q 2956 2369 2687 2733 
Q 2419 3097 1959 3097 
z
M 1959 3584 
Q 2709 3584 3137 3096 
Q 3566 2609 3566 1747 
Q 3566 888 3137 398 
Q 2709 -91 1959 -91 
Q 1206 -91 779 398 
Q 353 888 353 1747 
Q 353 2609 779 3096 
Q 1206 3584 1959 3584 
z
" transform="scale(0.015625)"/>
       <path id="DejaVuSans-6e" d="M 3513 2113 
L 3513 0 
L 2938 0 
L 2938 2094 
Q 2938 2591 2744 2837 
Q 2550 3084 2163 3084 
Q 1697 3084 1428 2787 
Q 1159 2491 1159 1978 
L 1159 0 
L 581 0 
L 581 3500 
L 1159 3500 
L 1159 2956 
Q 1366 3272 1645 3428 
Q 1925 3584 2291 3584 
Q 2894 3584 3203 3211 
Q 3513 2838 3513 2113 
z
" transform="scale(0.015625)"/>
       <path id="DejaVuSans-6d" d="M 3328 2828 
Q 3544 3216 3844 3400 
Q 4144 3584 4550 3584 
Q 5097 3584 5394 3201 
Q 5691 2819 5691 2113 
L 5691 0 
L 5113 0 
L 5113 2094 
Q 5113 2597 4934 2840 
Q 4756 3084 4391 3084 
Q 3944 3084 3684 2787 
Q 3425 2491 3425 1978 
L 3425 0 
L 2847 0 
L 2847 2094 
Q 2847 2600 2669 2842 
Q 2491 3084 2119 3084 
Q 1678 3084 1418 2786 
Q 1159 2488 1159 1978 
L 1159 0 
L 581 0 
L 581 3500 
L 1159 3500 
L 1159 2956 
Q 1356 3278 1631 3431 
Q 1906 3584 2284 3584 
Q 2666 3584 2933 3390 
Q 3200 3197 3328 2828 
z
" transform="scale(0.015625)"/>
       <path id="DejaVuSans-62" d="M 3116 1747 
Q 3116 2381 2855 2742 
Q 2594 3103 2138 3103 
Q 1681 3103 1420 2742 
Q 1159 2381 1159 1747 
Q 1159 1113 1420 752 
Q 1681 391 2138 391 
Q 2594 391 2855 752 
Q 3116 1113 3116 1747 
z
M 1159 2969 
Q 1341 3281 1617 3432 
Q 1894 3584 2278 3584 
Q 2916 3584 3314 3078 
Q 3713 2572 3713 1747 
Q 3713 922 3314 415 
Q 2916 -91 2278 -91 
Q 1894 -91 1617 61 
Q 1341 213 1159 525 
L 1159 0 
L 581 0 
L 581 4863 
L 1159 4863 
L 1159 2969 
z
" transform="scale(0.015625)"/>
       <path id="DejaVuSans-77" d="M 269 3500 
L 844 3500 
L 1563 769 
L 2278 3500 
L 2956 3500 
L 3675 769 
L 4391 3500 
L 4966 3500 
L 4050 0 
L 3372 0 
L 2619 2869 
L 1863 0 
L 1184 0 
L 269 3500 
z
" transform="scale(0.015625)"/>
       <path id="DejaVuSans-28" d="M 1984 4856 
Q 1566 4138 1362 3434 
Q 1159 2731 1159 2009 
Q 1159 1288 1364 580 
Q 1569 -128 1984 -844 
L 1484 -844 
Q 1016 -109 783 600 
Q 550 1309 550 2009 
Q 550 2706 781 3412 
Q 1013 4119 1484 4856 
L 1984 4856 
z
" transform="scale(0.015625)"/>
       <path id="DejaVuSans-79" d="M 2059 -325 
Q 1816 -950 1584 -1140 
Q 1353 -1331 966 -1331 
L 506 -1331 
L 506 -850 
L 844 -850 
Q 1081 -850 1212 -737 
Q 1344 -625 1503 -206 
L 1606 56 
L 191 3500 
L 800 3500 
L 1894 763 
L 2988 3500 
L 3597 3500 
L 2059 -325 
z
" transform="scale(0.015625)"/>
       <path id="DejaVuSans-29" d="M 513 4856 
L 1013 4856 
Q 1481 4119 1714 3412 
Q 1947 2706 1947 2009 
Q 1947 1309 1714 600 
Q 1481 -109 1013 -844 
L 513 -844 
Q 928 -128 1133 580 
Q 1338 1288 1338 2009 
Q 1338 2731 1133 3434 
Q 928 4138 513 4856 
z
" transform="scale(0.015625)"/>
      </defs>
      <use xlink:href="#DejaVuSans-45"/>
      <use xlink:href="#DejaVuSans-78" x="63.183594"/>
      <use xlink:href="#DejaVuSans-65" x="119.238281"/>
      <use xlink:href="#DejaVuSans-63" x="180.761719"/>
      <use xlink:href="#DejaVuSans-75" x="235.742188"/>
      <use xlink:href="#DejaVuSans-74" x="299.121094"/>
      <use xlink:href="#DejaVuSans-69" x="338.330078"/>
      <use xlink:href="#DejaVuSans-6f" x="366.113281"/>
      <use xlink:href="#DejaVuSans-6e" x="427.294922"/>
      <use xlink:href="#DejaVuSans-20" x="490.673828"/>
      <use xlink:href="#DejaVuSans-74" x="522.460938"/>
      <use xlink:href="#DejaVuSans-69" x="561.669922"/>
      <use xlink:href="#DejaVuSans-6d" x="589.453125"/>
      <use xlink:href="#DejaVuSans-65" x="686.865234"/>
      <use xlink:href="#DejaVuSans-20" x="748.388672"/>
      <use xlink:href="#DejaVuSans-62" x="780.175781"/>
      <use xlink:href="#DejaVuSans-65" x="843.652344"/>
      <use xlink:href="#DejaVuSans-74" x="905.175781"/>
      <use xlink:href="#DejaVuSans-77" x="944.384766"/>
      <use xlink:href="#DejaVuSans-65" x="1026.171875"/>
      <use xlink:href="#DejaVuSans-65" x="1087.695312"/>
      <use xlink:href="#DejaVuSans-6e" x="1149.21875"/>
      <use xlink:href="#DejaVuSans-20" x="1212.597656"/>
      <use xlink:href="#DejaVuSans-53" x="1244.384766"/>
      <use xlink:href="#DejaVuSans-35" x="1307.861328"/>
      <use xlink:href="#DejaVuSans-20" x="1371.484375"/>
      <use xlink:href="#DejaVuSans-53" x="1403.271484"/>
      <use xlink:href="#DejaVuSans-36" x="1466.748047"/>
      <use xlink:href="#DejaVuSans-20" x="1530.371094"/>
      <use xlink:href="#DejaVuSans-28" x="1562.158203"/>
      <use xlink:href="#DejaVuSans-78" x="1601.171875"/>
      <use xlink:href="#DejaVuSans-78" x="1660.351562"/>
      <use xlink:href="#DejaVuSans-31" x="1719.53125"/>
      <use xlink:href="#DejaVuSans-78" x="1783.154297"/>
      <use xlink:href="#DejaVuSans-78" x="1842.333984"/>
      <use xlink:href="#DejaVuSans-31" x="1901.513672"/>
      <use xlink:href="#DejaVuSans-78" x="1965.136719"/>
      <use xlink:href="#DejaVuSans-78" x="2024.316406"/>
      <use xlink:href="#DejaVuSans-31" x="2083.496094"/>
      <use xlink:href="#DejaVuSans-78" x="2147.119141"/>
      <use xlink:href="#DejaVuSans-78" x="2206.298828"/>
      <use xlink:href="#DejaVuSans-30" x="2265.478516"/>
      <use xlink:href="#DejaVuSans-79" x="2329.101562"/>
      <use xlink:href="#DejaVuSans-79" x="2388.28125"/>
      <use xlink:href="#DejaVuSans-79" x="2447.460938"/>
      <use xlink:href="#DejaVuSans-35" x="2506.640625"/>
      <use xlink:href="#DejaVuSans-78" x="2570.263672"/>
      <use xlink:href="#DejaVuSans-78" x="2629.443359"/>
      <use xlink:href="#DejaVuSans-30" x="2688.623047"/>
      <use xlink:href="#DejaVuSans-79" x="2752.246094"/>
      <use xlink:href="#DejaVuSans-79" x="2811.425781"/>
      <use xlink:href="#DejaVuSans-79" x="2870.605469"/>
      <use xlink:href="#DejaVuSans-35" x="2929.785156"/>
      <use xlink:href="#DejaVuSans-78" x="2993.408203"/>
      <use xlink:href="#DejaVuSans-78" x="3052.587891"/>
      <use xlink:href="#DejaVuSans-30" x="3111.767578"/>
      <use xlink:href="#DejaVuSans-79" x="3175.390625"/>
      <use xlink:href="#DejaVuSans-79" x="3234.570312"/>
      <use xlink:href="#DejaVuSans-79" x="3293.75"/>
      <use xlink:href="#DejaVuSans-35" x="3352.929688"/>
      <use xlink:href="#DejaVuSans-78" x="3416.552734"/>
      <use xlink:href="#DejaVuSans-78" x="3475.732422"/>
      <use xlink:href="#DejaVuSans-30" x="3534.912109"/>
      <use xlink:href="#DejaVuSans-79" x="3598.535156"/>
      <use xlink:href="#DejaVuSans-79" x="3657.714844"/>
      <use xlink:href="#DejaVuSans-79" x="3716.894531"/>
      <use xlink:href="#DejaVuSans-35" x="3776.074219"/>
      <use xlink:href="#DejaVuSans-78" x="3839.697266"/>
      <use xlink:href="#DejaVuSans-78" x="3898.876953"/>
      <use xlink:href="#DejaVuSans-31" x="3958.056641"/>
      <use xlink:href="#DejaVuSans-79" x="4021.679688"/>
      <use xlink:href="#DejaVuSans-79" x="4080.859375"/>
      <use xlink:href="#DejaVuSans-79" x="4140.039062"/>
      <use xlink:href="#DejaVuSans-32" x="4199.21875"/>
      <use xlink:href="#DejaVuSans-78" x="4262.841797"/>
      <use xlink:href="#DejaVuSans-78" x="4322.021484"/>
      <use xlink:href="#DejaVuSans-31" x="4381.201172"/>
      <use xlink:href="#DejaVuSans-29" x="4444.824219"/>
     </g>
    </g>
    <g id="line2d_18">
     <path d="M 115.836563 298.836187 
L 121.836563 298.836187 
L 127.836563 298.836187 
" style="fill: none; stroke: #ff7f0e; stroke-width: 1.5; stroke-linecap: square"/>
    </g>
    <g id="text_17">
     <!-- Execution time between S5 S6 (xx1xx1xx2xx0yyy66xx0yyy66xx1yyy5xx0yyy3xx1xx1yyy5) -->
     <g transform="translate(132.636563 300.936187) scale(0.06 -0.06)">
      <use xlink:href="#DejaVuSans-45"/>
      <use xlink:href="#DejaVuSans-78" x="63.183594"/>
      <use xlink:href="#DejaVuSans-65" x="119.238281"/>
      <use xlink:href="#DejaVuSans-63" x="180.761719"/>
      <use xlink:href="#DejaVuSans-75" x="235.742188"/>
      <use xlink:href="#DejaVuSans-74" x="299.121094"/>
      <use xlink:href="#DejaVuSans-69" x="338.330078"/>
      <use xlink:href="#DejaVuSans-6f" x="366.113281"/>
      <use xlink:href="#DejaVuSans-6e" x="427.294922"/>
      <use xlink:href="#DejaVuSans-20" x="490.673828"/>
      <use xlink:href="#DejaVuSans-74" x="522.460938"/>
      <use xlink:href="#DejaVuSans-69" x="561.669922"/>
      <use xlink:href="#DejaVuSans-6d" x="589.453125"/>
      <use xlink:href="#DejaVuSans-65" x="686.865234"/>
      <use xlink:href="#DejaVuSans-20" x="748.388672"/>
      <use xlink:href="#DejaVuSans-62" x="780.175781"/>
      <use xlink:href="#DejaVuSans-65" x="843.652344"/>
      <use xlink:href="#DejaVuSans-74" x="905.175781"/>
      <use xlink:href="#DejaVuSans-77" x="944.384766"/>
      <use xlink:href="#DejaVuSans-65" x="1026.171875"/>
      <use xlink:href="#DejaVuSans-65" x="1087.695312"/>
      <use xlink:href="#DejaVuSans-6e" x="1149.21875"/>
      <use xlink:href="#DejaVuSans-20" x="1212.597656"/>
      <use xlink:href="#DejaVuSans-53" x="1244.384766"/>
      <use xlink:href="#DejaVuSans-35" x="1307.861328"/>
      <use xlink:href="#DejaVuSans-20" x="1371.484375"/>
      <use xlink:href="#DejaVuSans-53" x="1403.271484"/>
      <use xlink:href="#DejaVuSans-36" x="1466.748047"/>
      <use xlink:href="#DejaVuSans-20" x="1530.371094"/>
      <use xlink:href="#DejaVuSans-28" x="1562.158203"/>
      <use xlink:href="#DejaVuSans-78" x="1601.171875"/>
      <use xlink:href="#DejaVuSans-78" x="1660.351562"/>
      <use xlink:href="#DejaVuSans-31" x="1719.53125"/>
      <use xlink:href="#DejaVuSans-78" x="1783.154297"/>
      <use xlink:href="#DejaVuSans-78" x="1842.333984"/>
      <use xlink:href="#DejaVuSans-31" x="1901.513672"/>
      <use xlink:href="#DejaVuSans-78" x="1965.136719"/>
      <use xlink:href="#DejaVuSans-78" x="2024.316406"/>
      <use xlink:href="#DejaVuSans-32" x="2083.496094"/>
      <use xlink:href="#DejaVuSans-78" x="2147.119141"/>
      <use xlink:href="#DejaVuSans-78" x="2206.298828"/>
      <use xlink:href="#DejaVuSans-30" x="2265.478516"/>
      <use xlink:href="#DejaVuSans-79" x="2329.101562"/>
      <use xlink:href="#DejaVuSans-79" x="2388.28125"/>
      <use xlink:href="#DejaVuSans-79" x="2447.460938"/>
      <use xlink:href="#DejaVuSans-36" x="2506.640625"/>
      <use xlink:href="#DejaVuSans-36" x="2570.263672"/>
      <use xlink:href="#DejaVuSans-78" x="2633.886719"/>
      <use xlink:href="#DejaVuSans-78" x="2693.066406"/>
      <use xlink:href="#DejaVuSans-30" x="2752.246094"/>
      <use xlink:href="#DejaVuSans-79" x="2815.869141"/>
      <use xlink:href="#DejaVuSans-79" x="2875.048828"/>
      <use xlink:href="#DejaVuSans-79" x="2934.228516"/>
      <use xlink:href="#DejaVuSans-36" x="2993.408203"/>
      <use xlink:href="#DejaVuSans-36" x="3057.03125"/>
      <use xlink:href="#DejaVuSans-78" x="3120.654297"/>
      <use xlink:href="#DejaVuSans-78" x="3179.833984"/>
      <use xlink:href="#DejaVuSans-31" x="3239.013672"/>
      <use xlink:href="#DejaVuSans-79" x="3302.636719"/>
      <use xlink:href="#DejaVuSans-79" x="3361.816406"/>
      <use xlink:href="#DejaVuSans-79" x="3420.996094"/>
      <use xlink:href="#DejaVuSans-35" x="3480.175781"/>
      <use xlink:href="#DejaVuSans-78" x="3543.798828"/>
      <use xlink:href="#DejaVuSans-78" x="3602.978516"/>
      <use xlink:href="#DejaVuSans-30" x="3662.158203"/>
      <use xlink:href="#DejaVuSans-79" x="3725.78125"/>
      <use xlink:href="#DejaVuSans-79" x="3784.960938"/>
      <use xlink:href="#DejaVuSans-79" x="3844.140625"/>
      <use xlink:href="#DejaVuSans-33" x="3903.320312"/>
      <use xlink:href="#DejaVuSans-78" x="3966.943359"/>
      <use xlink:href="#DejaVuSans-78" x="4026.123047"/>
      <use xlink:href="#DejaVuSans-31" x="4085.302734"/>
      <use xlink:href="#DejaVuSans-78" x="4148.925781"/>
      <use xlink:href="#DejaVuSans-78" x="4208.105469"/>
      <use xlink:href="#DejaVuSans-31" x="4267.285156"/>
      <use xlink:href="#DejaVuSans-79" x="4330.908203"/>
      <use xlink:href="#DejaVuSans-79" x="4390.087891"/>
      <use xlink:href="#DejaVuSans-79" x="4449.267578"/>
      <use xlink:href="#DejaVuSans-35" x="4508.447266"/>
      <use xlink:href="#DejaVuSans-29" x="4572.070312"/>
     </g>
    </g>
   </g>
  </g>
 </g>
 <defs>
  <clipPath id="p0444bf7abe">
   <rect x="57.6" y="41.472" width="357.12" height="266.112"/>
  </clipPath>
 </defs>
</svg>
