<?xml version="1.0" encoding="utf-8" standalone="no"?>
<!DOCTYPE svg PUBLIC "-//W3C//DTD SVG 1.1//EN"
  "http://www.w3.org/Graphics/SVG/1.1/DTD/svg11.dtd">
<svg xmlns:xlink="http://www.w3.org/1999/xlink" width="460.8pt" height="345.6pt" viewBox="0 0 460.8 345.6" xmlns="http://www.w3.org/2000/svg" version="1.1">
 <metadata>
  <rdf:RDF xmlns:dc="http://purl.org/dc/elements/1.1/" xmlns:cc="http://creativecommons.org/ns#" xmlns:rdf="http://www.w3.org/1999/02/22-rdf-syntax-ns#">
   <cc:Work>
    <dc:type rdf:resource="http://purl.org/dc/dcmitype/StillImage"/>
    <dc:date>2024-03-08T11:42:58.889401</dc:date>
    <dc:format>image/svg+xml</dc:format>
    <dc:creator>
     <cc:Agent>
      <dc:title>Matplotlib v3.8.2, https://matplotlib.org/</dc:title>
     </cc:Agent>
    </dc:creator>
   </cc:Work>
  </rdf:RDF>
 </metadata>
 <defs>
  <style type="text/css">*{stroke-linejoin: round; stroke-linecap: butt}</style>
 </defs>
 <g id="figure_1">
  <g id="patch_1">
   <path d="M 0 345.6 
L 460.8 345.6 
L 460.8 0 
L 0 0 
z
" style="fill: #ffffff"/>
  </g>
  <g id="axes_1">
   <g id="patch_2">
    <path d="M 57.6 307.584 
L 414.72 307.584 
L 414.72 41.472 
L 57.6 41.472 
z
" style="fill: #ffffff"/>
   </g>
   <g id="matplotlib.axis_1">
    <g id="xtick_1">
     <g id="line2d_1">
      <defs>
       <path id="md8dfc338c8" d="M 0 0 
L 0 3.5 
" style="stroke: #000000; stroke-width: 0.8"/>
      </defs>
      <g>
       <use xlink:href="#md8dfc338c8" x="73.832727" y="307.584" style="stroke: #000000; stroke-width: 0.8"/>
      </g>
     </g>
     <g id="text_1">
      <!-- 0.0 -->
      <g transform="translate(65.881165 322.182437) scale(0.1 -0.1)">
       <defs>
        <path id="DejaVuSans-30" d="M 2034 4250 
Q 1547 4250 1301 3770 
Q 1056 3291 1056 2328 
Q 1056 1369 1301 889 
Q 1547 409 2034 409 
Q 2525 409 2770 889 
Q 3016 1369 3016 2328 
Q 3016 3291 2770 3770 
Q 2525 4250 2034 4250 
z
M 2034 4750 
Q 2819 4750 3233 4129 
Q 3647 3509 3647 2328 
Q 3647 1150 3233 529 
Q 2819 -91 2034 -91 
Q 1250 -91 836 529 
Q 422 1150 422 2328 
Q 422 3509 836 4129 
Q 1250 4750 2034 4750 
z
" transform="scale(0.015625)"/>
        <path id="DejaVuSans-2e" d="M 684 794 
L 1344 794 
L 1344 0 
L 684 0 
L 684 794 
z
" transform="scale(0.015625)"/>
       </defs>
       <use xlink:href="#DejaVuSans-30"/>
       <use xlink:href="#DejaVuSans-2e" x="63.623047"/>
       <use xlink:href="#DejaVuSans-30" x="95.410156"/>
      </g>
     </g>
    </g>
    <g id="xtick_2">
     <g id="line2d_2">
      <g>
       <use xlink:href="#md8dfc338c8" x="118.903918" y="307.584" style="stroke: #000000; stroke-width: 0.8"/>
      </g>
     </g>
     <g id="text_2">
      <!-- 0.2 -->
      <g transform="translate(110.952355 322.182437) scale(0.1 -0.1)">
       <defs>
        <path id="DejaVuSans-32" d="M 1228 531 
L 3431 531 
L 3431 0 
L 469 0 
L 469 531 
Q 828 903 1448 1529 
Q 2069 2156 2228 2338 
Q 2531 2678 2651 2914 
Q 2772 3150 2772 3378 
Q 2772 3750 2511 3984 
Q 2250 4219 1831 4219 
Q 1534 4219 1204 4116 
Q 875 4013 500 3803 
L 500 4441 
Q 881 4594 1212 4672 
Q 1544 4750 1819 4750 
Q 2544 4750 2975 4387 
Q 3406 4025 3406 3419 
Q 3406 3131 3298 2873 
Q 3191 2616 2906 2266 
Q 2828 2175 2409 1742 
Q 1991 1309 1228 531 
z
" transform="scale(0.015625)"/>
       </defs>
       <use xlink:href="#DejaVuSans-30"/>
       <use xlink:href="#DejaVuSans-2e" x="63.623047"/>
       <use xlink:href="#DejaVuSans-32" x="95.410156"/>
      </g>
     </g>
    </g>
    <g id="xtick_3">
     <g id="line2d_3">
      <g>
       <use xlink:href="#md8dfc338c8" x="163.975108" y="307.584" style="stroke: #000000; stroke-width: 0.8"/>
      </g>
     </g>
     <g id="text_3">
      <!-- 0.4 -->
      <g transform="translate(156.023546 322.182437) scale(0.1 -0.1)">
       <defs>
        <path id="DejaVuSans-34" d="M 2419 4116 
L 825 1625 
L 2419 1625 
L 2419 4116 
z
M 2253 4666 
L 3047 4666 
L 3047 1625 
L 3713 1625 
L 3713 1100 
L 3047 1100 
L 3047 0 
L 2419 0 
L 2419 1100 
L 313 1100 
L 313 1709 
L 2253 4666 
z
" transform="scale(0.015625)"/>
       </defs>
       <use xlink:href="#DejaVuSans-30"/>
       <use xlink:href="#DejaVuSans-2e" x="63.623047"/>
       <use xlink:href="#DejaVuSans-34" x="95.410156"/>
      </g>
     </g>
    </g>
    <g id="xtick_4">
     <g id="line2d_4">
      <g>
       <use xlink:href="#md8dfc338c8" x="209.046299" y="307.584" style="stroke: #000000; stroke-width: 0.8"/>
      </g>
     </g>
     <g id="text_4">
      <!-- 0.6 -->
      <g transform="translate(201.094736 322.182437) scale(0.1 -0.1)">
       <defs>
        <path id="DejaVuSans-36" d="M 2113 2584 
Q 1688 2584 1439 2293 
Q 1191 2003 1191 1497 
Q 1191 994 1439 701 
Q 1688 409 2113 409 
Q 2538 409 2786 701 
Q 3034 994 3034 1497 
Q 3034 2003 2786 2293 
Q 2538 2584 2113 2584 
z
M 3366 4563 
L 3366 3988 
Q 3128 4100 2886 4159 
Q 2644 4219 2406 4219 
Q 1781 4219 1451 3797 
Q 1122 3375 1075 2522 
Q 1259 2794 1537 2939 
Q 1816 3084 2150 3084 
Q 2853 3084 3261 2657 
Q 3669 2231 3669 1497 
Q 3669 778 3244 343 
Q 2819 -91 2113 -91 
Q 1303 -91 875 529 
Q 447 1150 447 2328 
Q 447 3434 972 4092 
Q 1497 4750 2381 4750 
Q 2619 4750 2861 4703 
Q 3103 4656 3366 4563 
z
" transform="scale(0.015625)"/>
       </defs>
       <use xlink:href="#DejaVuSans-30"/>
       <use xlink:href="#DejaVuSans-2e" x="63.623047"/>
       <use xlink:href="#DejaVuSans-36" x="95.410156"/>
      </g>
     </g>
    </g>
    <g id="xtick_5">
     <g id="line2d_5">
      <g>
       <use xlink:href="#md8dfc338c8" x="254.117489" y="307.584" style="stroke: #000000; stroke-width: 0.8"/>
      </g>
     </g>
     <g id="text_5">
      <!-- 0.8 -->
      <g transform="translate(246.165927 322.182437) scale(0.1 -0.1)">
       <defs>
        <path id="DejaVuSans-38" d="M 2034 2216 
Q 1584 2216 1326 1975 
Q 1069 1734 1069 1313 
Q 1069 891 1326 650 
Q 1584 409 2034 409 
Q 2484 409 2743 651 
Q 3003 894 3003 1313 
Q 3003 1734 2745 1975 
Q 2488 2216 2034 2216 
z
M 1403 2484 
Q 997 2584 770 2862 
Q 544 3141 544 3541 
Q 544 4100 942 4425 
Q 1341 4750 2034 4750 
Q 2731 4750 3128 4425 
Q 3525 4100 3525 3541 
Q 3525 3141 3298 2862 
Q 3072 2584 2669 2484 
Q 3125 2378 3379 2068 
Q 3634 1759 3634 1313 
Q 3634 634 3220 271 
Q 2806 -91 2034 -91 
Q 1263 -91 848 271 
Q 434 634 434 1313 
Q 434 1759 690 2068 
Q 947 2378 1403 2484 
z
M 1172 3481 
Q 1172 3119 1398 2916 
Q 1625 2713 2034 2713 
Q 2441 2713 2670 2916 
Q 2900 3119 2900 3481 
Q 2900 3844 2670 4047 
Q 2441 4250 2034 4250 
Q 1625 4250 1398 4047 
Q 1172 3844 1172 3481 
z
" transform="scale(0.015625)"/>
       </defs>
       <use xlink:href="#DejaVuSans-30"/>
       <use xlink:href="#DejaVuSans-2e" x="63.623047"/>
       <use xlink:href="#DejaVuSans-38" x="95.410156"/>
      </g>
     </g>
    </g>
    <g id="xtick_6">
     <g id="line2d_6">
      <g>
       <use xlink:href="#md8dfc338c8" x="299.188679" y="307.584" style="stroke: #000000; stroke-width: 0.8"/>
      </g>
     </g>
     <g id="text_6">
      <!-- 1.0 -->
      <g transform="translate(291.237117 322.182437) scale(0.1 -0.1)">
       <defs>
        <path id="DejaVuSans-31" d="M 794 531 
L 1825 531 
L 1825 4091 
L 703 3866 
L 703 4441 
L 1819 4666 
L 2450 4666 
L 2450 531 
L 3481 531 
L 3481 0 
L 794 0 
L 794 531 
z
" transform="scale(0.015625)"/>
       </defs>
       <use xlink:href="#DejaVuSans-31"/>
       <use xlink:href="#DejaVuSans-2e" x="63.623047"/>
       <use xlink:href="#DejaVuSans-30" x="95.410156"/>
      </g>
     </g>
    </g>
    <g id="xtick_7">
     <g id="line2d_7">
      <g>
       <use xlink:href="#md8dfc338c8" x="344.25987" y="307.584" style="stroke: #000000; stroke-width: 0.8"/>
      </g>
     </g>
     <g id="text_7">
      <!-- 1.2 -->
      <g transform="translate(336.308307 322.182437) scale(0.1 -0.1)">
       <use xlink:href="#DejaVuSans-31"/>
       <use xlink:href="#DejaVuSans-2e" x="63.623047"/>
       <use xlink:href="#DejaVuSans-32" x="95.410156"/>
      </g>
     </g>
    </g>
    <g id="xtick_8">
     <g id="line2d_8">
      <g>
       <use xlink:href="#md8dfc338c8" x="389.33106" y="307.584" style="stroke: #000000; stroke-width: 0.8"/>
      </g>
     </g>
     <g id="text_8">
      <!-- 1.4 -->
      <g transform="translate(381.379498 322.182437) scale(0.1 -0.1)">
       <use xlink:href="#DejaVuSans-31"/>
       <use xlink:href="#DejaVuSans-2e" x="63.623047"/>
       <use xlink:href="#DejaVuSans-34" x="95.410156"/>
      </g>
     </g>
    </g>
    <g id="text_9">
     <!-- 1e6 -->
     <g transform="translate(395.841875 334.860562) scale(0.1 -0.1)">
      <defs>
       <path id="DejaVuSans-65" d="M 3597 1894 
L 3597 1613 
L 953 1613 
Q 991 1019 1311 708 
Q 1631 397 2203 397 
Q 2534 397 2845 478 
Q 3156 559 3463 722 
L 3463 178 
Q 3153 47 2828 -22 
Q 2503 -91 2169 -91 
Q 1331 -91 842 396 
Q 353 884 353 1716 
Q 353 2575 817 3079 
Q 1281 3584 2069 3584 
Q 2775 3584 3186 3129 
Q 3597 2675 3597 1894 
z
M 3022 2063 
Q 3016 2534 2758 2815 
Q 2500 3097 2075 3097 
Q 1594 3097 1305 2825 
Q 1016 2553 972 2059 
L 3022 2063 
z
" transform="scale(0.015625)"/>
      </defs>
      <use xlink:href="#DejaVuSans-31"/>
      <use xlink:href="#DejaVuSans-65" x="63.623047"/>
      <use xlink:href="#DejaVuSans-36" x="125.146484"/>
     </g>
    </g>
   </g>
   <g id="matplotlib.axis_2">
    <g id="ytick_1">
     <g id="line2d_9">
      <defs>
       <path id="me9c1238e4a" d="M 0 0 
L -3.5 0 
" style="stroke: #000000; stroke-width: 0.8"/>
      </defs>
      <g>
       <use xlink:href="#me9c1238e4a" x="57.6" y="295.488" style="stroke: #000000; stroke-width: 0.8"/>
      </g>
     </g>
     <g id="text_10">
      <!-- 0.0 -->
      <g transform="translate(34.696875 299.287219) scale(0.1 -0.1)">
       <use xlink:href="#DejaVuSans-30"/>
       <use xlink:href="#DejaVuSans-2e" x="63.623047"/>
       <use xlink:href="#DejaVuSans-30" x="95.410156"/>
      </g>
     </g>
    </g>
    <g id="ytick_2">
     <g id="line2d_10">
      <g>
       <use xlink:href="#me9c1238e4a" x="57.6" y="247.104" style="stroke: #000000; stroke-width: 0.8"/>
      </g>
     </g>
     <g id="text_11">
      <!-- 0.2 -->
      <g transform="translate(34.696875 250.903219) scale(0.1 -0.1)">
       <use xlink:href="#DejaVuSans-30"/>
       <use xlink:href="#DejaVuSans-2e" x="63.623047"/>
       <use xlink:href="#DejaVuSans-32" x="95.410156"/>
      </g>
     </g>
    </g>
    <g id="ytick_3">
     <g id="line2d_11">
      <g>
       <use xlink:href="#me9c1238e4a" x="57.6" y="198.72" style="stroke: #000000; stroke-width: 0.8"/>
      </g>
     </g>
     <g id="text_12">
      <!-- 0.4 -->
      <g transform="translate(34.696875 202.519219) scale(0.1 -0.1)">
       <use xlink:href="#DejaVuSans-30"/>
       <use xlink:href="#DejaVuSans-2e" x="63.623047"/>
       <use xlink:href="#DejaVuSans-34" x="95.410156"/>
      </g>
     </g>
    </g>
    <g id="ytick_4">
     <g id="line2d_12">
      <g>
       <use xlink:href="#me9c1238e4a" x="57.6" y="150.336" style="stroke: #000000; stroke-width: 0.8"/>
      </g>
     </g>
     <g id="text_13">
      <!-- 0.6 -->
      <g transform="translate(34.696875 154.135219) scale(0.1 -0.1)">
       <use xlink:href="#DejaVuSans-30"/>
       <use xlink:href="#DejaVuSans-2e" x="63.623047"/>
       <use xlink:href="#DejaVuSans-36" x="95.410156"/>
      </g>
     </g>
    </g>
    <g id="ytick_5">
     <g id="line2d_13">
      <g>
       <use xlink:href="#me9c1238e4a" x="57.6" y="101.952" style="stroke: #000000; stroke-width: 0.8"/>
      </g>
     </g>
     <g id="text_14">
      <!-- 0.8 -->
      <g transform="translate(34.696875 105.751219) scale(0.1 -0.1)">
       <use xlink:href="#DejaVuSans-30"/>
       <use xlink:href="#DejaVuSans-2e" x="63.623047"/>
       <use xlink:href="#DejaVuSans-38" x="95.410156"/>
      </g>
     </g>
    </g>
    <g id="ytick_6">
     <g id="line2d_14">
      <g>
       <use xlink:href="#me9c1238e4a" x="57.6" y="53.568" style="stroke: #000000; stroke-width: 0.8"/>
      </g>
     </g>
     <g id="text_15">
      <!-- 1.0 -->
      <g transform="translate(34.696875 57.367219) scale(0.1 -0.1)">
       <use xlink:href="#DejaVuSans-31"/>
       <use xlink:href="#DejaVuSans-2e" x="63.623047"/>
       <use xlink:href="#DejaVuSans-30" x="95.410156"/>
      </g>
     </g>
    </g>
   </g>
   <g id="line2d_15">
    <path d="M 73.832727 295.488 
L 150.656571 295.488 
L 150.656571 294.788809 
L 151.454331 294.788809 
L 151.454331 294.089618 
L 152.240824 294.089618 
L 152.240824 293.390428 
L 153.027316 293.390428 
L 153.027316 292.691237 
L 153.813808 292.691237 
L 153.813808 291.992046 
L 154.598047 291.992046 
L 154.598047 291.292855 
L 155.389046 291.292855 
L 155.389046 290.593665 
L 156.182299 290.593665 
L 156.182299 289.894474 
L 156.973299 289.894474 
L 156.973299 289.195283 
L 157.750777 289.195283 
L 157.750777 288.496092 
L 158.541776 288.496092 
L 158.541776 287.796902 
L 159.34179 287.796902 
L 159.34179 287.097711 
L 160.128282 287.097711 
L 160.128282 286.39852 
L 160.90576 286.39852 
L 160.90576 285.699329 
L 161.683238 285.699329 
L 161.683238 285.000139 
L 162.474238 285.000139 
L 162.474238 284.300948 
L 163.242701 284.300948 
L 163.242701 283.601757 
L 164.011165 283.601757 
L 164.011165 282.902566 
L 164.790897 282.902566 
L 164.790897 282.203376 
L 165.577389 282.203376 
L 165.577389 281.504185 
L 166.375149 281.504185 
L 166.375149 280.804994 
L 167.161641 280.804994 
L 167.161641 280.105803 
L 167.966162 280.105803 
L 167.966162 279.406613 
L 168.752654 279.406613 
L 168.752654 278.707422 
L 169.525625 278.707422 
L 169.525625 278.008231 
L 170.323385 278.008231 
L 170.323385 277.30904 
L 171.109878 277.30904 
L 171.109878 276.60985 
L 171.880595 276.60985 
L 171.880595 275.910659 
L 172.658073 275.910659 
L 172.658073 275.211468 
L 173.455833 275.211468 
L 173.455833 274.512277 
L 174.240072 274.512277 
L 174.240072 273.813087 
L 175.046846 273.813087 
L 175.046846 273.113896 
L 175.84686 273.113896 
L 175.84686 272.414705 
L 176.631098 272.414705 
L 176.631098 271.715514 
L 177.406323 271.715514 
L 177.406323 271.016324 
L 178.20859 271.016324 
L 178.20859 270.317133 
L 179.00635 270.317133 
L 179.00635 269.617942 
L 179.783828 269.617942 
L 179.783828 268.918751 
L 180.581588 268.918751 
L 180.581588 268.219561 
L 181.359066 268.219561 
L 181.359066 267.52037 
L 182.143305 267.52037 
L 182.143305 266.821179 
L 182.91853 266.821179 
L 182.91853 266.121988 
L 183.6915 266.121988 
L 183.6915 265.422798 
L 184.496021 265.422798 
L 184.496021 264.723607 
L 185.264485 264.723607 
L 185.264485 264.024416 
L 186.075766 264.024416 
L 186.075766 263.325225 
L 186.880287 263.325225 
L 186.880287 262.626035 
L 187.67354 262.626035 
L 187.67354 261.926844 
L 188.480314 261.926844 
L 188.480314 261.227653 
L 189.271314 261.227653 
L 189.271314 260.528462 
L 190.03527 260.528462 
L 190.03527 259.829272 
L 190.808241 259.829272 
L 190.808241 259.130081 
L 191.599241 259.130081 
L 191.599241 258.43089 
L 192.387987 258.43089 
L 192.387987 257.731699 
L 193.192507 257.731699 
L 193.192507 257.032509 
L 193.963225 257.032509 
L 193.963225 256.333318 
L 195.560998 256.333318 
L 195.560998 255.634127 
L 196.331716 255.634127 
L 196.331716 254.934936 
L 197.120462 254.934936 
L 197.120462 254.235746 
L 197.278211 254.235746 
L 197.278211 253.536555 
L 197.9047 253.536555 
L 197.9047 252.837364 
L 198.055689 252.837364 
L 198.055689 252.138173 
L 198.675418 252.138173 
L 198.675418 251.438983 
L 198.846688 251.438983 
L 198.846688 250.739792 
L 199.450642 250.739792 
L 199.450642 250.040601 
L 199.621913 250.040601 
L 199.621913 249.34141 
L 200.255163 249.34141 
L 200.255163 248.64222 
L 200.419673 248.64222 
L 200.419673 247.943029 
L 201.055177 247.943029 
L 201.055177 247.243838 
L 201.226447 247.243838 
L 201.226447 246.544647 
L 201.819133 246.544647 
L 201.819133 245.845457 
L 202.026461 245.845457 
L 202.026461 245.146266 
L 202.806192 245.146266 
L 202.806192 244.447075 
L 203.594938 244.447075 
L 203.594938 243.747884 
L 204.379177 243.747884 
L 204.379177 243.048694 
L 206.774711 243.048694 
L 206.774711 242.349503 
L 207.552189 242.349503 
L 207.552189 241.650312 
L 208.349949 241.650312 
L 208.349949 240.951121 
L 209.131934 240.951121 
L 209.131934 240.251931 
L 209.913919 240.251931 
L 209.913919 239.55274 
L 218.403078 239.55274 
L 218.403078 238.853549 
L 219.18957 238.853549 
L 219.18957 238.154358 
L 219.953527 238.154358 
L 219.953527 237.455168 
L 247.417657 237.455168 
L 247.417657 236.755977 
L 247.985554 236.755977 
L 247.985554 236.056786 
L 248.548943 236.056786 
L 248.548943 235.357595 
L 249.112333 235.357595 
L 249.112333 234.658405 
L 249.67347 234.658405 
L 249.67347 233.959214 
L 250.239113 233.959214 
L 250.239113 233.260023 
L 250.800249 233.260023 
L 250.800249 232.560832 
L 251.3704 232.560832 
L 251.3704 231.861642 
L 251.942804 231.861642 
L 251.942804 231.162451 
L 252.499433 231.162451 
L 252.499433 230.46326 
L 253.065077 230.46326 
L 253.065077 229.764069 
L 253.617199 229.764069 
L 253.617199 229.064879 
L 254.185096 229.064879 
L 254.185096 228.365688 
L 254.737218 228.365688 
L 254.737218 227.666497 
L 255.318636 227.666497 
L 255.318636 226.967306 
L 255.882026 226.967306 
L 255.882026 226.268116 
L 256.431895 226.268116 
L 256.431895 225.568925 
L 256.984017 225.568925 
L 256.984017 224.869734 
L 257.54966 224.869734 
L 257.567689 223.471353 
L 258.110797 223.471353 
L 258.110797 222.772162 
L 258.342913 222.772162 
L 258.342913 222.072971 
L 258.67644 222.072971 
L 258.67644 221.37378 
L 259.120391 221.37378 
L 259.120391 220.67459 
L 259.237576 220.67459 
L 259.237576 219.975399 
L 259.789698 219.975399 
L 259.789698 219.276208 
L 259.913644 219.276208 
L 259.913644 218.577017 
L 260.346328 218.577017 
L 260.346328 217.877827 
L 260.686615 217.877827 
L 260.686615 217.178636 
L 260.911971 217.178636 
L 260.911971 216.479445 
L 261.470854 216.479445 
L 261.473107 215.081064 
L 262.036497 215.081064 
L 262.036497 214.381873 
L 262.255092 214.381873 
L 262.255092 213.682682 
L 262.584112 213.682682 
L 262.584112 212.983491 
L 263.032571 212.983491 
L 263.032571 212.284301 
L 263.149756 212.284301 
L 263.149756 211.58511 
L 263.726667 211.58511 
L 263.819063 210.186728 
L 264.278789 210.186728 
L 264.278789 209.487538 
L 264.619076 209.487538 
L 264.619076 208.788347 
L 264.844432 208.788347 
L 264.844432 208.089156 
L 265.394301 208.089156 
L 265.410076 206.690775 
L 265.973466 206.690775 
L 265.973466 205.991584 
L 266.176286 205.991584 
L 266.176286 205.292393 
L 266.534602 205.292393 
L 266.534602 204.593202 
L 266.974046 204.593202 
L 266.974046 203.894012 
L 267.102499 203.894012 
L 267.102499 203.194821 
L 267.650114 203.194821 
L 267.650114 202.49563 
L 267.769553 202.49563 
L 267.769553 201.796439 
L 268.20449 201.796439 
L 268.20449 201.097249 
L 268.553791 201.097249 
L 268.553791 200.398058 
L 268.754358 200.398058 
L 268.754358 199.698867 
L 269.315494 199.698867 
L 269.340284 198.300486 
L 269.872124 198.300486 
L 269.872124 197.601295 
L 270.126776 197.601295 
L 270.126776 196.902104 
L 270.431006 196.902104 
L 270.431006 196.202913 
L 270.920029 196.202913 
L 270.978621 194.804532 
L 271.546518 194.804532 
L 271.546518 194.105341 
L 271.706521 194.105341 
L 271.706521 193.40615 
L 272.107655 193.40615 
L 272.107655 192.70696 
L 272.497521 192.70696 
L 272.497521 192.007769 
L 272.677805 192.007769 
L 272.677805 191.308578 
L 273.243449 191.308578 
L 273.297534 189.910197 
L 273.806839 189.910197 
L 273.806839 189.211006 
L 274.090787 189.211006 
L 274.090787 188.511815 
L 274.3522 188.511815 
L 274.3522 187.812624 
L 274.890801 187.812624 
L 274.911083 186.414243 
L 275.490248 186.414243 
L 275.490248 185.715052 
L 275.668279 185.715052 
L 275.668279 185.015861 
L 276.046877 185.015861 
L 276.046877 184.316671 
L 276.4728 184.316671 
L 276.4728 183.61748 
L 276.603506 183.61748 
L 276.603506 182.918289 
L 277.164642 182.918289 
L 277.272813 181.519908 
L 277.730286 181.519908 
L 277.730286 180.820717 
L 278.307197 180.820717 
L 278.307197 180.121526 
L 278.839037 180.121526 
L 278.859319 178.723145 
L 279.420455 178.723145 
L 279.420455 178.023954 
L 279.630036 178.023954 
L 279.630036 177.324763 
L 279.992859 177.324763 
L 279.992859 176.625572 
L 280.416529 176.625572 
L 280.416529 175.926382 
L 280.540474 175.926382 
L 280.540474 175.227191 
L 281.106118 175.227191 
L 281.214289 173.828809 
L 281.667254 173.828809 
L 281.667254 173.129618 
L 282.005288 173.129618 
L 282.005288 172.430428 
L 282.223883 172.430428 
L 282.223883 171.731237 
L 282.778259 171.731237 
L 282.782766 170.332855 
L 283.346156 170.332855 
L 283.346156 169.633665 
L 283.571512 169.633665 
L 283.571512 168.934474 
L 283.902785 168.934474 
L 283.907292 167.536092 
L 284.34899 167.536092 
L 284.34899 166.836902 
L 284.468429 166.836902 
L 284.479696 165.43852 
L 285.036326 165.43852 
L 285.139989 164.040139 
L 285.613237 164.040139 
L 285.613237 163.340948 
L 285.930989 163.340948 
L 285.930989 162.641757 
L 286.176627 162.641757 
L 286.176627 161.942566 
L 286.737763 161.942566 
L 286.746777 160.544185 
L 287.30566 160.544185 
L 287.30566 159.844994 
L 287.537777 159.844994 
L 287.537777 159.145803 
L 287.860036 159.145803 
L 287.860036 158.446613 
L 288.409904 158.446613 
L 288.409904 157.747422 
L 288.966534 157.747422 
L 288.966534 157.048231 
L 289.532177 157.048231 
L 289.532177 156.34904 
L 290.100074 156.34904 
L 290.100074 155.64985 
L 290.65445 155.64985 
L 290.65445 154.950659 
L 291.215586 154.950659 
L 291.215586 154.251468 
L 291.78799 154.251468 
L 291.78799 153.552277 
L 292.362648 153.552277 
L 292.362648 152.853087 
L 292.930545 152.853087 
L 292.930545 152.153896 
L 293.496188 152.153896 
L 293.496188 151.454705 
L 294.055071 151.454705 
L 294.055071 150.755514 
L 294.616207 150.755514 
L 294.616207 150.056324 
L 295.195372 150.056324 
L 295.195372 149.357133 
L 308.709968 149.357133 
L 308.709968 148.657942 
L 312.667219 148.657942 
L 312.770883 147.259561 
L 313.232862 147.259561 
L 313.232862 146.56037 
L 313.539347 146.56037 
L 313.539347 145.861179 
L 320.606509 145.861179 
L 320.606509 145.161988 
L 321.393001 145.161988 
L 321.393001 144.462798 
L 322.181747 144.462798 
L 322.181747 143.763607 
L 322.988522 143.763607 
L 322.988522 143.064416 
L 323.96882 143.064416 
L 323.96882 142.365225 
L 324.545731 142.365225 
L 324.545731 141.666035 
L 325.106868 141.666035 
L 325.106868 140.966844 
L 325.668004 140.966844 
L 325.668004 140.267653 
L 326.240408 140.267653 
L 326.240408 139.568462 
L 326.810559 139.568462 
L 326.810559 138.869272 
L 327.364934 138.869272 
L 327.364934 138.170081 
L 327.928324 138.170081 
L 327.928324 137.47089 
L 328.48946 137.47089 
L 328.48946 136.771699 
L 329.064118 136.771699 
L 329.064118 136.072509 
L 329.638776 136.072509 
L 329.638776 135.373318 
L 330.190898 135.373318 
L 330.190898 134.674127 
L 330.749781 134.674127 
L 330.749781 133.974936 
L 331.310917 133.974936 
L 331.310917 133.275746 
L 331.707543 133.275746 
L 331.707543 132.576555 
L 331.890082 132.576555 
L 331.890082 131.877364 
L 332.451218 131.877364 
L 332.505303 130.478983 
L 333.016861 130.478983 
L 333.016861 129.779792 
L 333.296303 129.779792 
L 333.296303 129.080601 
L 333.571237 129.080601 
L 333.571237 128.38141 
L 334.085049 128.38141 
L 334.132373 126.983029 
L 334.698017 126.983029 
L 334.698017 126.283838 
L 334.880555 126.283838 
L 334.880555 125.584647 
L 335.265914 125.584647 
L 335.265914 124.885457 
L 335.680569 124.885457 
L 335.680569 124.186266 
L 335.818036 124.186266 
L 335.818036 123.487075 
L 336.379172 123.487075 
L 336.462554 122.088694 
L 336.951576 122.088694 
L 336.951576 121.389503 
L 337.246793 121.389503 
L 337.246793 120.690312 
L 337.526234 120.690312 
L 337.526234 119.991121 
L 338.033285 119.991121 
L 338.078356 118.59274 
L 338.648507 118.59274 
L 338.648507 117.893549 
L 338.833299 117.893549 
L 338.833299 117.194358 
L 339.211897 117.194358 
L 339.211897 116.495168 
L 339.619791 116.495168 
L 339.619791 115.795977 
L 339.786554 115.795977 
L 339.786554 115.096786 
L 340.34093 115.096786 
L 340.40403 113.698405 
L 340.897559 113.698405 
L 340.897559 112.999214 
L 341.192775 112.999214 
L 341.192775 112.300023 
L 341.463203 112.300023 
L 341.463203 111.600832 
L 342.0311 111.600832 
L 342.0311 110.901642 
L 342.594489 110.901642 
L 342.594489 110.202451 
L 343.162386 110.202451 
L 343.162386 109.50326 
L 343.730283 109.50326 
L 343.730283 108.804069 
L 344.282406 108.804069 
L 344.282406 108.104879 
L 344.852556 108.104879 
L 344.852556 107.405688 
L 345.420453 107.405688 
L 345.420453 106.706497 
L 345.997364 106.706497 
L 345.997364 106.007306 
L 346.563008 106.007306 
L 346.563008 105.308116 
L 347.128651 105.308116 
L 347.128651 104.608925 
L 347.68528 104.608925 
L 347.68528 103.909734 
L 348.244163 103.909734 
L 348.244163 103.210543 
L 348.809807 103.210543 
L 348.809807 102.511353 
L 349.377704 102.511353 
L 349.377704 101.812162 
L 349.947854 101.812162 
L 349.947854 101.112971 
L 350.504483 101.112971 
L 350.504483 100.41378 
L 351.067873 100.41378 
L 351.067873 99.71459 
L 351.640277 99.71459 
L 351.640277 99.015399 
L 352.194653 99.015399 
L 352.194653 98.316208 
L 352.749029 98.316208 
L 352.749029 97.617017 
L 353.314672 97.617017 
L 353.314672 96.917827 
L 353.891583 96.917827 
L 353.891583 96.218636 
L 354.463987 96.218636 
L 354.463987 95.519445 
L 355.02287 95.519445 
L 355.02287 94.820254 
L 355.595274 94.820254 
L 355.595274 94.121064 
L 356.160918 94.121064 
L 356.160918 93.421873 
L 356.726561 93.421873 
L 356.726561 92.722682 
L 357.285444 92.722682 
L 357.285444 92.023491 
L 357.853341 92.023491 
L 357.853341 91.324301 
L 358.432506 91.324301 
L 358.432506 90.62511 
L 359.000403 90.62511 
L 359.000403 89.925919 
L 359.577314 89.925919 
L 359.577314 89.226728 
L 360.136197 89.226728 
L 360.136197 88.527538 
L 360.704094 88.527538 
L 360.704094 87.828347 
L 361.271991 87.828347 
L 361.271991 87.129156 
L 361.839888 87.129156 
L 361.839888 86.429965 
L 362.405531 86.429965 
L 362.405531 85.730775 
L 362.957653 85.730775 
L 362.957653 85.031584 
L 363.523297 85.031584 
L 363.523297 84.332393 
L 364.079926 84.332393 
L 364.079926 83.633202 
L 364.634302 83.633202 
L 364.634302 82.934012 
L 365.197691 82.934012 
L 365.197691 82.234821 
L 365.765588 82.234821 
L 365.765588 81.53563 
L 366.328978 81.53563 
L 366.328978 80.836439 
L 366.887861 80.836439 
L 366.887861 80.137249 
L 367.448997 80.137249 
L 367.448997 79.438058 
L 368.00112 79.438058 
L 368.00112 78.738867 
L 368.562256 78.738867 
L 368.562256 78.039676 
L 369.127899 78.039676 
L 369.127899 77.340486 
L 369.691289 77.340486 
L 369.691289 76.641295 
L 370.263693 76.641295 
L 370.263693 75.942104 
L 370.820322 75.942104 
L 370.820322 75.242913 
L 371.381459 75.242913 
L 371.381459 74.543723 
L 371.947102 74.543723 
L 371.947102 73.844532 
L 372.512746 73.844532 
L 372.512746 73.145341 
L 373.650793 73.145341 
L 373.650793 72.44615 
L 374.220944 72.44615 
L 374.220944 71.74696 
L 374.791094 71.74696 
L 374.791094 71.047769 
L 375.338709 71.047769 
L 375.338709 70.348578 
L 375.899846 70.348578 
L 375.899846 69.649387 
L 380.388936 69.649387 
L 380.388936 68.950197 
L 380.945565 68.950197 
L 380.945565 68.251006 
L 381.504448 68.251006 
L 381.504448 67.551815 
L 382.072345 67.551815 
L 382.072345 66.852624 
L 382.640242 66.852624 
L 382.640242 66.153434 
L 383.203632 66.153434 
L 383.203632 65.454243 
L 383.773783 65.454243 
L 383.773783 64.755052 
L 384.334919 64.755052 
L 384.334919 64.055861 
L 384.902816 64.055861 
L 384.902816 63.356671 
L 385.457192 63.356671 
L 385.457192 62.65748 
L 386.027342 62.65748 
L 386.027342 61.958289 
L 386.581718 61.958289 
L 386.581718 61.259098 
L 387.156375 61.259098 
L 387.156375 60.559908 
L 387.719765 60.559908 
L 387.719765 59.860717 
L 388.283155 59.860717 
L 388.283155 59.161526 
L 388.839784 59.161526 
L 388.839784 58.462335 
L 389.418949 58.462335 
L 389.418949 57.763145 
L 389.980086 57.763145 
L 389.980086 57.063954 
L 390.538968 57.063954 
L 390.538968 56.364763 
L 396.779075 56.364763 
L 396.779075 55.665572 
L 397.344718 55.665572 
L 397.344718 54.966382 
L 397.923883 54.966382 
L 397.923883 54.267191 
L 398.487273 54.267191 
L 398.487273 53.568 
L 398.487273 53.568 
" clip-path="url(#pcb8e429711)" style="fill: none; stroke: #1f77b4; stroke-width: 1.5; stroke-linecap: square"/>
   </g>
   <g id="patch_3">
    <path d="M 57.6 307.584 
L 57.6 41.472 
" style="fill: none; stroke: #000000; stroke-width: 0.8; stroke-linejoin: miter; stroke-linecap: square"/>
   </g>
   <g id="patch_4">
    <path d="M 414.72 307.584 
L 414.72 41.472 
" style="fill: none; stroke: #000000; stroke-width: 0.8; stroke-linejoin: miter; stroke-linecap: square"/>
   </g>
   <g id="patch_5">
    <path d="M 57.6 307.584 
L 414.72 307.584 
" style="fill: none; stroke: #000000; stroke-width: 0.8; stroke-linejoin: miter; stroke-linecap: square"/>
   </g>
   <g id="patch_6">
    <path d="M 57.6 41.472 
L 414.72 41.472 
" style="fill: none; stroke: #000000; stroke-width: 0.8; stroke-linejoin: miter; stroke-linecap: square"/>
   </g>
   <g id="text_16">
    <!-- Execution time between S1 S15 -->
    <g transform="translate(140.519063 35.472) scale(0.12 -0.12)">
     <defs>
      <path id="DejaVuSans-45" d="M 628 4666 
L 3578 4666 
L 3578 4134 
L 1259 4134 
L 1259 2753 
L 3481 2753 
L 3481 2222 
L 1259 2222 
L 1259 531 
L 3634 531 
L 3634 0 
L 628 0 
L 628 4666 
z
" transform="scale(0.015625)"/>
      <path id="DejaVuSans-78" d="M 3513 3500 
L 2247 1797 
L 3578 0 
L 2900 0 
L 1881 1375 
L 863 0 
L 184 0 
L 1544 1831 
L 300 3500 
L 978 3500 
L 1906 2253 
L 2834 3500 
L 3513 3500 
z
" transform="scale(0.015625)"/>
      <path id="DejaVuSans-63" d="M 3122 3366 
L 3122 2828 
Q 2878 2963 2633 3030 
Q 2388 3097 2138 3097 
Q 1578 3097 1268 2742 
Q 959 2388 959 1747 
Q 959 1106 1268 751 
Q 1578 397 2138 397 
Q 2388 397 2633 464 
Q 2878 531 3122 666 
L 3122 134 
Q 2881 22 2623 -34 
Q 2366 -91 2075 -91 
Q 1284 -91 818 406 
Q 353 903 353 1747 
Q 353 2603 823 3093 
Q 1294 3584 2113 3584 
Q 2378 3584 2631 3529 
Q 2884 3475 3122 3366 
z
" transform="scale(0.015625)"/>
      <path id="DejaVuSans-75" d="M 544 1381 
L 544 3500 
L 1119 3500 
L 1119 1403 
Q 1119 906 1312 657 
Q 1506 409 1894 409 
Q 2359 409 2629 706 
Q 2900 1003 2900 1516 
L 2900 3500 
L 3475 3500 
L 3475 0 
L 2900 0 
L 2900 538 
Q 2691 219 2414 64 
Q 2138 -91 1772 -91 
Q 1169 -91 856 284 
Q 544 659 544 1381 
z
M 1991 3584 
L 1991 3584 
z
" transform="scale(0.015625)"/>
      <path id="DejaVuSans-74" d="M 1172 4494 
L 1172 3500 
L 2356 3500 
L 2356 3053 
L 1172 3053 
L 1172 1153 
Q 1172 725 1289 603 
Q 1406 481 1766 481 
L 2356 481 
L 2356 0 
L 1766 0 
Q 1100 0 847 248 
Q 594 497 594 1153 
L 594 3053 
L 172 3053 
L 172 3500 
L 594 3500 
L 594 4494 
L 1172 4494 
z
" transform="scale(0.015625)"/>
      <path id="DejaVuSans-69" d="M 603 3500 
L 1178 3500 
L 1178 0 
L 603 0 
L 603 3500 
z
M 603 4863 
L 1178 4863 
L 1178 4134 
L 603 4134 
L 603 4863 
z
" transform="scale(0.015625)"/>
      <path id="DejaVuSans-6f" d="M 1959 3097 
Q 1497 3097 1228 2736 
Q 959 2375 959 1747 
Q 959 1119 1226 758 
Q 1494 397 1959 397 
Q 2419 397 2687 759 
Q 2956 1122 2956 1747 
Q 2956 2369 2687 2733 
Q 2419 3097 1959 3097 
z
M 1959 3584 
Q 2709 3584 3137 3096 
Q 3566 2609 3566 1747 
Q 3566 888 3137 398 
Q 2709 -91 1959 -91 
Q 1206 -91 779 398 
Q 353 888 353 1747 
Q 353 2609 779 3096 
Q 1206 3584 1959 3584 
z
" transform="scale(0.015625)"/>
      <path id="DejaVuSans-6e" d="M 3513 2113 
L 3513 0 
L 2938 0 
L 2938 2094 
Q 2938 2591 2744 2837 
Q 2550 3084 2163 3084 
Q 1697 3084 1428 2787 
Q 1159 2491 1159 1978 
L 1159 0 
L 581 0 
L 581 3500 
L 1159 3500 
L 1159 2956 
Q 1366 3272 1645 3428 
Q 1925 3584 2291 3584 
Q 2894 3584 3203 3211 
Q 3513 2838 3513 2113 
z
" transform="scale(0.015625)"/>
      <path id="DejaVuSans-20" transform="scale(0.015625)"/>
      <path id="DejaVuSans-6d" d="M 3328 2828 
Q 3544 3216 3844 3400 
Q 4144 3584 4550 3584 
Q 5097 3584 5394 3201 
Q 5691 2819 5691 2113 
L 5691 0 
L 5113 0 
L 5113 2094 
Q 5113 2597 4934 2840 
Q 4756 3084 4391 3084 
Q 3944 3084 3684 2787 
Q 3425 2491 3425 1978 
L 3425 0 
L 2847 0 
L 2847 2094 
Q 2847 2600 2669 2842 
Q 2491 3084 2119 3084 
Q 1678 3084 1418 2786 
Q 1159 2488 1159 1978 
L 1159 0 
L 581 0 
L 581 3500 
L 1159 3500 
L 1159 2956 
Q 1356 3278 1631 3431 
Q 1906 3584 2284 3584 
Q 2666 3584 2933 3390 
Q 3200 3197 3328 2828 
z
" transform="scale(0.015625)"/>
      <path id="DejaVuSans-62" d="M 3116 1747 
Q 3116 2381 2855 2742 
Q 2594 3103 2138 3103 
Q 1681 3103 1420 2742 
Q 1159 2381 1159 1747 
Q 1159 1113 1420 752 
Q 1681 391 2138 391 
Q 2594 391 2855 752 
Q 3116 1113 3116 1747 
z
M 1159 2969 
Q 1341 3281 1617 3432 
Q 1894 3584 2278 3584 
Q 2916 3584 3314 3078 
Q 3713 2572 3713 1747 
Q 3713 922 3314 415 
Q 2916 -91 2278 -91 
Q 1894 -91 1617 61 
Q 1341 213 1159 525 
L 1159 0 
L 581 0 
L 581 4863 
L 1159 4863 
L 1159 2969 
z
" transform="scale(0.015625)"/>
      <path id="DejaVuSans-77" d="M 269 3500 
L 844 3500 
L 1563 769 
L 2278 3500 
L 2956 3500 
L 3675 769 
L 4391 3500 
L 4966 3500 
L 4050 0 
L 3372 0 
L 2619 2869 
L 1863 0 
L 1184 0 
L 269 3500 
z
" transform="scale(0.015625)"/>
      <path id="DejaVuSans-53" d="M 3425 4513 
L 3425 3897 
Q 3066 4069 2747 4153 
Q 2428 4238 2131 4238 
Q 1616 4238 1336 4038 
Q 1056 3838 1056 3469 
Q 1056 3159 1242 3001 
Q 1428 2844 1947 2747 
L 2328 2669 
Q 3034 2534 3370 2195 
Q 3706 1856 3706 1288 
Q 3706 609 3251 259 
Q 2797 -91 1919 -91 
Q 1588 -91 1214 -16 
Q 841 59 441 206 
L 441 856 
Q 825 641 1194 531 
Q 1563 422 1919 422 
Q 2459 422 2753 634 
Q 3047 847 3047 1241 
Q 3047 1584 2836 1778 
Q 2625 1972 2144 2069 
L 1759 2144 
Q 1053 2284 737 2584 
Q 422 2884 422 3419 
Q 422 4038 858 4394 
Q 1294 4750 2059 4750 
Q 2388 4750 2728 4690 
Q 3069 4631 3425 4513 
z
" transform="scale(0.015625)"/>
      <path id="DejaVuSans-35" d="M 691 4666 
L 3169 4666 
L 3169 4134 
L 1269 4134 
L 1269 2991 
Q 1406 3038 1543 3061 
Q 1681 3084 1819 3084 
Q 2600 3084 3056 2656 
Q 3513 2228 3513 1497 
Q 3513 744 3044 326 
Q 2575 -91 1722 -91 
Q 1428 -91 1123 -41 
Q 819 9 494 109 
L 494 744 
Q 775 591 1075 516 
Q 1375 441 1709 441 
Q 2250 441 2565 725 
Q 2881 1009 2881 1497 
Q 2881 1984 2565 2268 
Q 2250 2553 1709 2553 
Q 1456 2553 1204 2497 
Q 953 2441 691 2322 
L 691 4666 
z
" transform="scale(0.015625)"/>
     </defs>
     <use xlink:href="#DejaVuSans-45"/>
     <use xlink:href="#DejaVuSans-78" x="63.183594"/>
     <use xlink:href="#DejaVuSans-65" x="119.238281"/>
     <use xlink:href="#DejaVuSans-63" x="180.761719"/>
     <use xlink:href="#DejaVuSans-75" x="235.742188"/>
     <use xlink:href="#DejaVuSans-74" x="299.121094"/>
     <use xlink:href="#DejaVuSans-69" x="338.330078"/>
     <use xlink:href="#DejaVuSans-6f" x="366.113281"/>
     <use xlink:href="#DejaVuSans-6e" x="427.294922"/>
     <use xlink:href="#DejaVuSans-20" x="490.673828"/>
     <use xlink:href="#DejaVuSans-74" x="522.460938"/>
     <use xlink:href="#DejaVuSans-69" x="561.669922"/>
     <use xlink:href="#DejaVuSans-6d" x="589.453125"/>
     <use xlink:href="#DejaVuSans-65" x="686.865234"/>
     <use xlink:href="#DejaVuSans-20" x="748.388672"/>
     <use xlink:href="#DejaVuSans-62" x="780.175781"/>
     <use xlink:href="#DejaVuSans-65" x="843.652344"/>
     <use xlink:href="#DejaVuSans-74" x="905.175781"/>
     <use xlink:href="#DejaVuSans-77" x="944.384766"/>
     <use xlink:href="#DejaVuSans-65" x="1026.171875"/>
     <use xlink:href="#DejaVuSans-65" x="1087.695312"/>
     <use xlink:href="#DejaVuSans-6e" x="1149.21875"/>
     <use xlink:href="#DejaVuSans-20" x="1212.597656"/>
     <use xlink:href="#DejaVuSans-53" x="1244.384766"/>
     <use xlink:href="#DejaVuSans-31" x="1307.861328"/>
     <use xlink:href="#DejaVuSans-20" x="1371.484375"/>
     <use xlink:href="#DejaVuSans-53" x="1403.271484"/>
     <use xlink:href="#DejaVuSans-31" x="1466.748047"/>
     <use xlink:href="#DejaVuSans-35" x="1530.371094"/>
    </g>
   </g>
   <g id="legend_1">
    <g id="patch_7">
     <path d="M 295.679062 304.584 
L 410.52 304.584 
Q 411.72 304.584 411.72 303.384 
L 411.72 295.177125 
Q 411.72 293.977125 410.52 293.977125 
L 295.679062 293.977125 
Q 294.479062 293.977125 294.479062 295.177125 
L 294.479062 303.384 
Q 294.479062 304.584 295.679062 304.584 
z
" style="fill: #ffffff; opacity: 0.8; stroke: #cccccc; stroke-linejoin: miter"/>
    </g>
    <g id="line2d_16">
     <path d="M 296.879062 298.836187 
L 302.879062 298.836187 
L 308.879062 298.836187 
" style="fill: none; stroke: #1f77b4; stroke-width: 1.5; stroke-linecap: square"/>
    </g>
    <g id="text_17">
     <!-- Execution time between S1 S15 -->
     <g transform="translate(313.679062 300.936187) scale(0.06 -0.06)">
      <use xlink:href="#DejaVuSans-45"/>
      <use xlink:href="#DejaVuSans-78" x="63.183594"/>
      <use xlink:href="#DejaVuSans-65" x="119.238281"/>
      <use xlink:href="#DejaVuSans-63" x="180.761719"/>
      <use xlink:href="#DejaVuSans-75" x="235.742188"/>
      <use xlink:href="#DejaVuSans-74" x="299.121094"/>
      <use xlink:href="#DejaVuSans-69" x="338.330078"/>
      <use xlink:href="#DejaVuSans-6f" x="366.113281"/>
      <use xlink:href="#DejaVuSans-6e" x="427.294922"/>
      <use xlink:href="#DejaVuSans-20" x="490.673828"/>
      <use xlink:href="#DejaVuSans-74" x="522.460938"/>
      <use xlink:href="#DejaVuSans-69" x="561.669922"/>
      <use xlink:href="#DejaVuSans-6d" x="589.453125"/>
      <use xlink:href="#DejaVuSans-65" x="686.865234"/>
      <use xlink:href="#DejaVuSans-20" x="748.388672"/>
      <use xlink:href="#DejaVuSans-62" x="780.175781"/>
      <use xlink:href="#DejaVuSans-65" x="843.652344"/>
      <use xlink:href="#DejaVuSans-74" x="905.175781"/>
      <use xlink:href="#DejaVuSans-77" x="944.384766"/>
      <use xlink:href="#DejaVuSans-65" x="1026.171875"/>
      <use xlink:href="#DejaVuSans-65" x="1087.695312"/>
      <use xlink:href="#DejaVuSans-6e" x="1149.21875"/>
      <use xlink:href="#DejaVuSans-20" x="1212.597656"/>
      <use xlink:href="#DejaVuSans-53" x="1244.384766"/>
      <use xlink:href="#DejaVuSans-31" x="1307.861328"/>
      <use xlink:href="#DejaVuSans-20" x="1371.484375"/>
      <use xlink:href="#DejaVuSans-53" x="1403.271484"/>
      <use xlink:href="#DejaVuSans-31" x="1466.748047"/>
      <use xlink:href="#DejaVuSans-35" x="1530.371094"/>
     </g>
    </g>
   </g>
  </g>
 </g>
 <defs>
  <clipPath id="pcb8e429711">
   <rect x="57.6" y="41.472" width="357.12" height="266.112"/>
  </clipPath>
 </defs>
</svg>
