<?xml version="1.0" encoding="utf-8" standalone="no"?>
<!DOCTYPE svg PUBLIC "-//W3C//DTD SVG 1.1//EN"
  "http://www.w3.org/Graphics/SVG/1.1/DTD/svg11.dtd">
<svg xmlns:xlink="http://www.w3.org/1999/xlink" width="460.8pt" height="345.6pt" viewBox="0 0 460.8 345.6" xmlns="http://www.w3.org/2000/svg" version="1.1">
 <metadata>
  <rdf:RDF xmlns:dc="http://purl.org/dc/elements/1.1/" xmlns:cc="http://creativecommons.org/ns#" xmlns:rdf="http://www.w3.org/1999/02/22-rdf-syntax-ns#">
   <cc:Work>
    <dc:type rdf:resource="http://purl.org/dc/dcmitype/StillImage"/>
    <dc:date>2024-03-08T11:13:27.587720</dc:date>
    <dc:format>image/svg+xml</dc:format>
    <dc:creator>
     <cc:Agent>
      <dc:title>Matplotlib v3.8.2, https://matplotlib.org/</dc:title>
     </cc:Agent>
    </dc:creator>
   </cc:Work>
  </rdf:RDF>
 </metadata>
 <defs>
  <style type="text/css">*{stroke-linejoin: round; stroke-linecap: butt}</style>
 </defs>
 <g id="figure_1">
  <g id="patch_1">
   <path d="M 0 345.6 
L 460.8 345.6 
L 460.8 0 
L 0 0 
z
" style="fill: #ffffff"/>
  </g>
  <g id="axes_1">
   <g id="patch_2">
    <path d="M 57.6 307.584 
L 414.72 307.584 
L 414.72 41.472 
L 57.6 41.472 
z
" style="fill: #ffffff"/>
   </g>
   <g id="matplotlib.axis_1">
    <g id="xtick_1">
     <g id="line2d_1">
      <defs>
       <path id="ma83ed38262" d="M 0 0 
L 0 3.5 
" style="stroke: #000000; stroke-width: 0.8"/>
      </defs>
      <g>
       <use xlink:href="#ma83ed38262" x="73.832727" y="307.584" style="stroke: #000000; stroke-width: 0.8"/>
      </g>
     </g>
     <g id="text_1">
      <!-- 0.00 -->
      <g transform="translate(62.699915 322.182437) scale(0.1 -0.1)">
       <defs>
        <path id="DejaVuSans-30" d="M 2034 4250 
Q 1547 4250 1301 3770 
Q 1056 3291 1056 2328 
Q 1056 1369 1301 889 
Q 1547 409 2034 409 
Q 2525 409 2770 889 
Q 3016 1369 3016 2328 
Q 3016 3291 2770 3770 
Q 2525 4250 2034 4250 
z
M 2034 4750 
Q 2819 4750 3233 4129 
Q 3647 3509 3647 2328 
Q 3647 1150 3233 529 
Q 2819 -91 2034 -91 
Q 1250 -91 836 529 
Q 422 1150 422 2328 
Q 422 3509 836 4129 
Q 1250 4750 2034 4750 
z
" transform="scale(0.015625)"/>
        <path id="DejaVuSans-2e" d="M 684 794 
L 1344 794 
L 1344 0 
L 684 0 
L 684 794 
z
" transform="scale(0.015625)"/>
       </defs>
       <use xlink:href="#DejaVuSans-30"/>
       <use xlink:href="#DejaVuSans-2e" x="63.623047"/>
       <use xlink:href="#DejaVuSans-30" x="95.410156"/>
       <use xlink:href="#DejaVuSans-30" x="159.033203"/>
      </g>
     </g>
    </g>
    <g id="xtick_2">
     <g id="line2d_2">
      <g>
       <use xlink:href="#ma83ed38262" x="117.178256" y="307.584" style="stroke: #000000; stroke-width: 0.8"/>
      </g>
     </g>
     <g id="text_2">
      <!-- 0.25 -->
      <g transform="translate(106.045444 322.182437) scale(0.1 -0.1)">
       <defs>
        <path id="DejaVuSans-32" d="M 1228 531 
L 3431 531 
L 3431 0 
L 469 0 
L 469 531 
Q 828 903 1448 1529 
Q 2069 2156 2228 2338 
Q 2531 2678 2651 2914 
Q 2772 3150 2772 3378 
Q 2772 3750 2511 3984 
Q 2250 4219 1831 4219 
Q 1534 4219 1204 4116 
Q 875 4013 500 3803 
L 500 4441 
Q 881 4594 1212 4672 
Q 1544 4750 1819 4750 
Q 2544 4750 2975 4387 
Q 3406 4025 3406 3419 
Q 3406 3131 3298 2873 
Q 3191 2616 2906 2266 
Q 2828 2175 2409 1742 
Q 1991 1309 1228 531 
z
" transform="scale(0.015625)"/>
        <path id="DejaVuSans-35" d="M 691 4666 
L 3169 4666 
L 3169 4134 
L 1269 4134 
L 1269 2991 
Q 1406 3038 1543 3061 
Q 1681 3084 1819 3084 
Q 2600 3084 3056 2656 
Q 3513 2228 3513 1497 
Q 3513 744 3044 326 
Q 2575 -91 1722 -91 
Q 1428 -91 1123 -41 
Q 819 9 494 109 
L 494 744 
Q 775 591 1075 516 
Q 1375 441 1709 441 
Q 2250 441 2565 725 
Q 2881 1009 2881 1497 
Q 2881 1984 2565 2268 
Q 2250 2553 1709 2553 
Q 1456 2553 1204 2497 
Q 953 2441 691 2322 
L 691 4666 
z
" transform="scale(0.015625)"/>
       </defs>
       <use xlink:href="#DejaVuSans-30"/>
       <use xlink:href="#DejaVuSans-2e" x="63.623047"/>
       <use xlink:href="#DejaVuSans-32" x="95.410156"/>
       <use xlink:href="#DejaVuSans-35" x="159.033203"/>
      </g>
     </g>
    </g>
    <g id="xtick_3">
     <g id="line2d_3">
      <g>
       <use xlink:href="#ma83ed38262" x="160.523786" y="307.584" style="stroke: #000000; stroke-width: 0.8"/>
      </g>
     </g>
     <g id="text_3">
      <!-- 0.50 -->
      <g transform="translate(149.390973 322.182437) scale(0.1 -0.1)">
       <use xlink:href="#DejaVuSans-30"/>
       <use xlink:href="#DejaVuSans-2e" x="63.623047"/>
       <use xlink:href="#DejaVuSans-35" x="95.410156"/>
       <use xlink:href="#DejaVuSans-30" x="159.033203"/>
      </g>
     </g>
    </g>
    <g id="xtick_4">
     <g id="line2d_4">
      <g>
       <use xlink:href="#ma83ed38262" x="203.869315" y="307.584" style="stroke: #000000; stroke-width: 0.8"/>
      </g>
     </g>
     <g id="text_4">
      <!-- 0.75 -->
      <g transform="translate(192.736502 322.182437) scale(0.1 -0.1)">
       <defs>
        <path id="DejaVuSans-37" d="M 525 4666 
L 3525 4666 
L 3525 4397 
L 1831 0 
L 1172 0 
L 2766 4134 
L 525 4134 
L 525 4666 
z
" transform="scale(0.015625)"/>
       </defs>
       <use xlink:href="#DejaVuSans-30"/>
       <use xlink:href="#DejaVuSans-2e" x="63.623047"/>
       <use xlink:href="#DejaVuSans-37" x="95.410156"/>
       <use xlink:href="#DejaVuSans-35" x="159.033203"/>
      </g>
     </g>
    </g>
    <g id="xtick_5">
     <g id="line2d_5">
      <g>
       <use xlink:href="#ma83ed38262" x="247.214844" y="307.584" style="stroke: #000000; stroke-width: 0.8"/>
      </g>
     </g>
     <g id="text_5">
      <!-- 1.00 -->
      <g transform="translate(236.082031 322.182437) scale(0.1 -0.1)">
       <defs>
        <path id="DejaVuSans-31" d="M 794 531 
L 1825 531 
L 1825 4091 
L 703 3866 
L 703 4441 
L 1819 4666 
L 2450 4666 
L 2450 531 
L 3481 531 
L 3481 0 
L 794 0 
L 794 531 
z
" transform="scale(0.015625)"/>
       </defs>
       <use xlink:href="#DejaVuSans-31"/>
       <use xlink:href="#DejaVuSans-2e" x="63.623047"/>
       <use xlink:href="#DejaVuSans-30" x="95.410156"/>
       <use xlink:href="#DejaVuSans-30" x="159.033203"/>
      </g>
     </g>
    </g>
    <g id="xtick_6">
     <g id="line2d_6">
      <g>
       <use xlink:href="#ma83ed38262" x="290.560373" y="307.584" style="stroke: #000000; stroke-width: 0.8"/>
      </g>
     </g>
     <g id="text_6">
      <!-- 1.25 -->
      <g transform="translate(279.42756 322.182437) scale(0.1 -0.1)">
       <use xlink:href="#DejaVuSans-31"/>
       <use xlink:href="#DejaVuSans-2e" x="63.623047"/>
       <use xlink:href="#DejaVuSans-32" x="95.410156"/>
       <use xlink:href="#DejaVuSans-35" x="159.033203"/>
      </g>
     </g>
    </g>
    <g id="xtick_7">
     <g id="line2d_7">
      <g>
       <use xlink:href="#ma83ed38262" x="333.905902" y="307.584" style="stroke: #000000; stroke-width: 0.8"/>
      </g>
     </g>
     <g id="text_7">
      <!-- 1.50 -->
      <g transform="translate(322.773089 322.182437) scale(0.1 -0.1)">
       <use xlink:href="#DejaVuSans-31"/>
       <use xlink:href="#DejaVuSans-2e" x="63.623047"/>
       <use xlink:href="#DejaVuSans-35" x="95.410156"/>
       <use xlink:href="#DejaVuSans-30" x="159.033203"/>
      </g>
     </g>
    </g>
    <g id="xtick_8">
     <g id="line2d_8">
      <g>
       <use xlink:href="#ma83ed38262" x="377.251431" y="307.584" style="stroke: #000000; stroke-width: 0.8"/>
      </g>
     </g>
     <g id="text_8">
      <!-- 1.75 -->
      <g transform="translate(366.118619 322.182437) scale(0.1 -0.1)">
       <use xlink:href="#DejaVuSans-31"/>
       <use xlink:href="#DejaVuSans-2e" x="63.623047"/>
       <use xlink:href="#DejaVuSans-37" x="95.410156"/>
       <use xlink:href="#DejaVuSans-35" x="159.033203"/>
      </g>
     </g>
    </g>
    <g id="text_9">
     <!-- 1e6 -->
     <g transform="translate(395.841875 334.860562) scale(0.1 -0.1)">
      <defs>
       <path id="DejaVuSans-65" d="M 3597 1894 
L 3597 1613 
L 953 1613 
Q 991 1019 1311 708 
Q 1631 397 2203 397 
Q 2534 397 2845 478 
Q 3156 559 3463 722 
L 3463 178 
Q 3153 47 2828 -22 
Q 2503 -91 2169 -91 
Q 1331 -91 842 396 
Q 353 884 353 1716 
Q 353 2575 817 3079 
Q 1281 3584 2069 3584 
Q 2775 3584 3186 3129 
Q 3597 2675 3597 1894 
z
M 3022 2063 
Q 3016 2534 2758 2815 
Q 2500 3097 2075 3097 
Q 1594 3097 1305 2825 
Q 1016 2553 972 2059 
L 3022 2063 
z
" transform="scale(0.015625)"/>
       <path id="DejaVuSans-36" d="M 2113 2584 
Q 1688 2584 1439 2293 
Q 1191 2003 1191 1497 
Q 1191 994 1439 701 
Q 1688 409 2113 409 
Q 2538 409 2786 701 
Q 3034 994 3034 1497 
Q 3034 2003 2786 2293 
Q 2538 2584 2113 2584 
z
M 3366 4563 
L 3366 3988 
Q 3128 4100 2886 4159 
Q 2644 4219 2406 4219 
Q 1781 4219 1451 3797 
Q 1122 3375 1075 2522 
Q 1259 2794 1537 2939 
Q 1816 3084 2150 3084 
Q 2853 3084 3261 2657 
Q 3669 2231 3669 1497 
Q 3669 778 3244 343 
Q 2819 -91 2113 -91 
Q 1303 -91 875 529 
Q 447 1150 447 2328 
Q 447 3434 972 4092 
Q 1497 4750 2381 4750 
Q 2619 4750 2861 4703 
Q 3103 4656 3366 4563 
z
" transform="scale(0.015625)"/>
      </defs>
      <use xlink:href="#DejaVuSans-31"/>
      <use xlink:href="#DejaVuSans-65" x="63.623047"/>
      <use xlink:href="#DejaVuSans-36" x="125.146484"/>
     </g>
    </g>
   </g>
   <g id="matplotlib.axis_2">
    <g id="ytick_1">
     <g id="line2d_9">
      <defs>
       <path id="mc7ff3d8bcf" d="M 0 0 
L -3.5 0 
" style="stroke: #000000; stroke-width: 0.8"/>
      </defs>
      <g>
       <use xlink:href="#mc7ff3d8bcf" x="57.6" y="295.488" style="stroke: #000000; stroke-width: 0.8"/>
      </g>
     </g>
     <g id="text_10">
      <!-- 0.0 -->
      <g transform="translate(34.696875 299.287219) scale(0.1 -0.1)">
       <use xlink:href="#DejaVuSans-30"/>
       <use xlink:href="#DejaVuSans-2e" x="63.623047"/>
       <use xlink:href="#DejaVuSans-30" x="95.410156"/>
      </g>
     </g>
    </g>
    <g id="ytick_2">
     <g id="line2d_10">
      <g>
       <use xlink:href="#mc7ff3d8bcf" x="57.6" y="247.104" style="stroke: #000000; stroke-width: 0.8"/>
      </g>
     </g>
     <g id="text_11">
      <!-- 0.2 -->
      <g transform="translate(34.696875 250.903219) scale(0.1 -0.1)">
       <use xlink:href="#DejaVuSans-30"/>
       <use xlink:href="#DejaVuSans-2e" x="63.623047"/>
       <use xlink:href="#DejaVuSans-32" x="95.410156"/>
      </g>
     </g>
    </g>
    <g id="ytick_3">
     <g id="line2d_11">
      <g>
       <use xlink:href="#mc7ff3d8bcf" x="57.6" y="198.72" style="stroke: #000000; stroke-width: 0.8"/>
      </g>
     </g>
     <g id="text_12">
      <!-- 0.4 -->
      <g transform="translate(34.696875 202.519219) scale(0.1 -0.1)">
       <defs>
        <path id="DejaVuSans-34" d="M 2419 4116 
L 825 1625 
L 2419 1625 
L 2419 4116 
z
M 2253 4666 
L 3047 4666 
L 3047 1625 
L 3713 1625 
L 3713 1100 
L 3047 1100 
L 3047 0 
L 2419 0 
L 2419 1100 
L 313 1100 
L 313 1709 
L 2253 4666 
z
" transform="scale(0.015625)"/>
       </defs>
       <use xlink:href="#DejaVuSans-30"/>
       <use xlink:href="#DejaVuSans-2e" x="63.623047"/>
       <use xlink:href="#DejaVuSans-34" x="95.410156"/>
      </g>
     </g>
    </g>
    <g id="ytick_4">
     <g id="line2d_12">
      <g>
       <use xlink:href="#mc7ff3d8bcf" x="57.6" y="150.336" style="stroke: #000000; stroke-width: 0.8"/>
      </g>
     </g>
     <g id="text_13">
      <!-- 0.6 -->
      <g transform="translate(34.696875 154.135219) scale(0.1 -0.1)">
       <use xlink:href="#DejaVuSans-30"/>
       <use xlink:href="#DejaVuSans-2e" x="63.623047"/>
       <use xlink:href="#DejaVuSans-36" x="95.410156"/>
      </g>
     </g>
    </g>
    <g id="ytick_5">
     <g id="line2d_13">
      <g>
       <use xlink:href="#mc7ff3d8bcf" x="57.6" y="101.952" style="stroke: #000000; stroke-width: 0.8"/>
      </g>
     </g>
     <g id="text_14">
      <!-- 0.8 -->
      <g transform="translate(34.696875 105.751219) scale(0.1 -0.1)">
       <defs>
        <path id="DejaVuSans-38" d="M 2034 2216 
Q 1584 2216 1326 1975 
Q 1069 1734 1069 1313 
Q 1069 891 1326 650 
Q 1584 409 2034 409 
Q 2484 409 2743 651 
Q 3003 894 3003 1313 
Q 3003 1734 2745 1975 
Q 2488 2216 2034 2216 
z
M 1403 2484 
Q 997 2584 770 2862 
Q 544 3141 544 3541 
Q 544 4100 942 4425 
Q 1341 4750 2034 4750 
Q 2731 4750 3128 4425 
Q 3525 4100 3525 3541 
Q 3525 3141 3298 2862 
Q 3072 2584 2669 2484 
Q 3125 2378 3379 2068 
Q 3634 1759 3634 1313 
Q 3634 634 3220 271 
Q 2806 -91 2034 -91 
Q 1263 -91 848 271 
Q 434 634 434 1313 
Q 434 1759 690 2068 
Q 947 2378 1403 2484 
z
M 1172 3481 
Q 1172 3119 1398 2916 
Q 1625 2713 2034 2713 
Q 2441 2713 2670 2916 
Q 2900 3119 2900 3481 
Q 2900 3844 2670 4047 
Q 2441 4250 2034 4250 
Q 1625 4250 1398 4047 
Q 1172 3844 1172 3481 
z
" transform="scale(0.015625)"/>
       </defs>
       <use xlink:href="#DejaVuSans-30"/>
       <use xlink:href="#DejaVuSans-2e" x="63.623047"/>
       <use xlink:href="#DejaVuSans-38" x="95.410156"/>
      </g>
     </g>
    </g>
    <g id="ytick_6">
     <g id="line2d_14">
      <g>
       <use xlink:href="#mc7ff3d8bcf" x="57.6" y="53.568" style="stroke: #000000; stroke-width: 0.8"/>
      </g>
     </g>
     <g id="text_15">
      <!-- 1.0 -->
      <g transform="translate(34.696875 57.367219) scale(0.1 -0.1)">
       <use xlink:href="#DejaVuSans-31"/>
       <use xlink:href="#DejaVuSans-2e" x="63.623047"/>
       <use xlink:href="#DejaVuSans-30" x="95.410156"/>
      </g>
     </g>
    </g>
   </g>
   <g id="line2d_15">
    <path d="M 73.832727 295.488 
L 113.669002 295.488 
L 113.669002 295.021873 
L 114.284509 295.021873 
L 114.284509 294.555746 
L 114.896548 294.555746 
L 114.896548 294.089618 
L 115.49645 294.089618 
L 115.49645 293.623491 
L 116.09982 293.623491 
L 116.09982 293.157364 
L 116.710125 293.157364 
L 116.710125 292.691237 
L 117.318696 292.691237 
L 117.318696 292.22511 
L 117.925533 292.22511 
L 117.925533 291.758983 
L 118.54104 291.758983 
L 118.54104 291.292855 
L 119.14441 291.292855 
L 119.14441 290.826728 
L 119.740844 290.826728 
L 119.740844 290.360601 
L 120.351149 290.360601 
L 120.351149 289.894474 
L 120.956253 289.894474 
L 120.956253 289.428347 
L 121.559622 289.428347 
L 121.559622 288.96222 
L 122.175129 288.96222 
L 122.175129 288.496092 
L 122.781966 288.496092 
L 122.781966 288.029965 
L 123.378401 288.029965 
L 123.378401 287.563838 
L 123.978303 287.563838 
L 123.978303 287.097711 
L 140.392388 287.097711 
L 140.392388 286.631584 
L 141.611264 286.631584 
L 141.611264 286.165457 
L 142.216368 286.165457 
L 142.216368 285.699329 
L 142.831874 285.699329 
L 142.831874 285.233202 
L 143.431776 285.233202 
L 143.431776 284.767075 
L 144.050751 284.767075 
L 144.050751 284.300948 
L 144.655854 284.300948 
L 144.655854 283.834821 
L 145.262692 283.834821 
L 145.262692 283.368694 
L 145.859126 283.368694 
L 145.859126 282.902566 
L 146.459028 282.902566 
L 146.459028 282.436439 
L 147.062398 282.436439 
L 147.062398 281.970312 
L 147.674437 281.970312 
L 147.674437 281.504185 
L 148.283008 281.504185 
L 148.283008 281.038058 
L 148.879443 281.038058 
L 148.879443 280.571931 
L 149.489748 280.571931 
L 149.489748 280.105803 
L 150.082714 280.105803 
L 150.082714 279.639676 
L 150.699955 279.639676 
L 150.699955 279.173549 
L 151.315461 279.173549 
L 151.315461 278.707422 
L 151.918831 278.707422 
L 151.918831 278.241295 
L 152.525668 278.241295 
L 152.525668 277.775168 
L 153.120369 277.775168 
L 153.120369 277.30904 
L 153.725473 277.30904 
L 153.725473 276.842913 
L 154.953018 276.842913 
L 154.953018 276.376786 
L 155.558122 276.376786 
L 155.558122 275.910659 
L 156.170161 275.910659 
L 156.170161 275.444532 
L 156.787401 275.444532 
L 156.787401 274.978405 
L 157.401174 274.978405 
L 157.401174 274.512277 
L 158.00281 274.512277 
L 158.00281 274.04615 
L 158.621784 274.04615 
L 158.621784 273.580023 
L 159.228621 273.580023 
L 159.228621 273.113896 
L 159.831991 273.113896 
L 159.831991 272.647769 
L 160.437094 272.647769 
L 160.437094 272.181642 
L 161.049133 272.181642 
L 161.049133 271.715514 
L 161.652503 271.715514 
L 161.652503 271.249387 
L 162.264542 271.249387 
L 162.264542 270.78326 
L 162.876581 270.78326 
L 162.876581 270.317133 
L 163.490354 270.317133 
L 163.490354 269.851006 
L 164.08332 269.851006 
L 164.08332 269.384879 
L 164.693625 269.384879 
L 164.693625 268.918751 
L 165.296995 268.918751 
L 165.296995 268.452624 
L 165.889962 268.452624 
L 165.889962 267.986497 
L 166.503735 267.986497 
L 166.503735 267.52037 
L 167.100169 267.52037 
L 167.100169 267.054243 
L 167.705273 267.054243 
L 167.705273 266.588116 
L 168.310376 266.588116 
L 168.310376 266.121988 
L 168.920681 266.121988 
L 168.920681 265.655861 
L 169.534454 265.655861 
L 169.534454 265.189734 
L 170.151694 265.189734 
L 170.151694 264.723607 
L 170.755064 264.723607 
L 170.755064 264.25748 
L 171.351499 264.25748 
L 171.351499 263.791353 
L 171.944466 263.791353 
L 171.944466 263.325225 
L 172.542634 263.325225 
L 172.542634 262.859098 
L 173.159874 262.859098 
L 173.159874 262.392971 
L 180.332692 262.392971 
L 180.332692 261.926844 
L 180.946465 261.926844 
L 180.946465 261.460717 
L 182.17401 261.460717 
L 182.17401 260.99459 
L 182.772179 260.99459 
L 182.772179 260.528462 
L 183.379016 260.528462 
L 183.379016 260.062335 
L 184.003192 260.062335 
L 184.003192 259.596208 
L 184.596159 259.596208 
L 184.596159 259.130081 
L 185.196061 259.130081 
L 185.196061 258.663954 
L 190.017817 258.663954 
L 190.017817 258.197827 
L 190.621187 258.197827 
L 190.621187 257.731699 
L 190.971419 257.731699 
L 190.971419 257.265572 
L 191.240161 257.265572 
L 191.312982 256.333318 
L 191.668415 256.333318 
L 191.668415 255.867191 
L 191.82966 255.867191 
L 191.82966 255.401064 
L 192.020381 255.401064 
L 192.020381 254.934936 
L 192.370613 254.934936 
L 192.441699 254.002682 
L 192.708708 254.002682 
L 192.708708 253.536555 
L 193.052004 253.536555 
L 193.064141 252.604301 
L 193.395301 252.604301 
L 193.395301 252.138173 
L 193.667511 252.138173 
L 193.73513 251.205919 
L 194.081894 251.205919 
L 194.081894 250.739792 
L 194.277816 250.739792 
L 194.277816 250.273665 
L 194.423457 250.273665 
L 194.423457 249.807538 
L 194.76502 249.807538 
L 194.76502 249.34141 
L 194.884653 249.34141 
L 194.884653 248.875283 
L 195.108316 248.875283 
L 195.108316 248.409156 
L 195.451613 248.409156 
L 195.494958 247.476902 
L 195.803579 247.476902 
L 195.803579 247.010775 
L 195.973493 247.010775 
L 195.973493 246.544647 
L 196.096594 246.544647 
L 196.141674 245.612393 
L 196.321991 245.612393 
L 196.321991 245.146266 
L 196.495373 245.146266 
L 196.495373 244.680139 
L 196.66182 244.680139 
L 196.66182 244.214012 
L 197.010318 244.214012 
L 197.010318 243.747884 
L 197.358816 243.747884 
L 197.358816 243.281757 
L 197.700379 243.281757 
L 197.700379 242.81563 
L 198.048877 242.81563 
L 198.048877 242.349503 
L 198.388706 242.349503 
L 198.388706 241.883376 
L 200.328852 241.883376 
L 200.328852 241.417249 
L 200.932222 241.417249 
L 200.932222 240.951121 
L 201.521721 240.951121 
L 201.521721 240.484994 
L 202.126824 240.484994 
L 202.126824 240.018867 
L 202.716324 240.018867 
L 202.716324 239.55274 
L 203.338765 239.55274 
L 203.338765 239.086613 
L 216.715196 239.086613 
L 216.715196 238.620486 
L 217.320299 238.620486 
L 217.320299 238.154358 
L 217.930604 238.154358 
L 217.930604 237.688231 
L 218.540909 237.688231 
L 218.540909 237.222104 
L 219.154682 237.222104 
L 219.154682 236.755977 
L 219.771922 236.755977 
L 219.771922 236.28985 
L 220.380494 236.28985 
L 220.380494 235.823723 
L 220.980396 235.823723 
L 220.980396 235.357595 
L 221.588967 235.357595 
L 221.588967 234.891468 
L 222.206207 234.891468 
L 222.206207 234.425341 
L 222.806109 234.425341 
L 222.806109 233.959214 
L 223.411213 233.959214 
L 223.411213 233.493087 
L 231.405862 233.493087 
L 231.405862 233.02696 
L 231.75436 233.02696 
L 231.75436 232.560832 
L 232.104592 232.560832 
L 232.104592 232.094705 
L 232.446155 232.094705 
L 232.446155 231.628578 
L 232.792919 231.628578 
L 232.792919 231.162451 
L 233.141417 231.162451 
L 233.141417 230.696324 
L 233.481246 230.696324 
L 233.481246 230.230197 
L 233.824543 230.230197 
L 233.824543 229.764069 
L 234.171307 229.764069 
L 234.171307 229.297942 
L 234.525007 229.297942 
L 234.525007 228.831815 
L 234.864836 228.831815 
L 234.864836 228.365688 
L 235.213334 228.365688 
L 235.213334 227.899561 
L 235.553163 227.899561 
L 235.553163 227.433434 
L 235.906862 227.433434 
L 235.906862 226.967306 
L 236.253626 226.967306 
L 236.253626 226.501179 
L 236.60906 226.501179 
L 236.60906 226.035052 
L 236.955824 226.035052 
L 236.955824 225.568925 
L 237.306056 225.568925 
L 237.306056 225.102798 
L 237.654554 225.102798 
L 237.654554 224.636671 
L 238.004786 224.636671 
L 238.004786 224.170543 
L 238.35155 224.170543 
L 238.35155 223.704416 
L 238.700048 223.704416 
L 238.700048 223.238289 
L 239.036409 223.238289 
L 239.036409 222.772162 
L 239.386641 222.772162 
L 239.386641 222.306035 
L 239.738607 222.306035 
L 239.738607 221.839908 
L 240.081903 221.839908 
L 240.081903 221.37378 
L 252.534207 221.37378 
L 252.534207 220.907653 
L 252.872302 220.907653 
L 252.872302 220.441526 
L 253.180922 220.441526 
L 253.208664 219.509272 
L 253.555428 219.509272 
L 253.654256 218.577017 
L 253.777357 218.577017 
L 253.777357 218.11089 
L 253.893523 218.11089 
L 253.893523 217.644763 
L 254.240287 217.644763 
L 254.264561 216.712509 
L 254.387662 216.712509 
L 254.387662 216.246382 
L 254.593987 216.246382 
L 254.593987 215.780254 
L 254.864463 215.780254 
L 254.944218 214.848 
L 254.999701 214.848 
L 254.999701 214.381873 
L 255.290983 214.381873 
L 255.290983 213.915746 
L 255.601337 213.915746 
L 255.642948 212.983491 
L 255.987979 212.983491 
L 255.987979 212.517364 
L 256.199505 212.517364 
L 256.199505 212.051237 
L 256.334743 212.051237 
L 256.334743 211.58511 
L 256.674572 211.58511 
L 256.674572 211.118983 
L 256.804609 211.118983 
L 256.804609 210.652855 
L 257.026538 210.652855 
L 257.026538 210.186728 
L 257.375036 210.186728 
L 257.406245 209.254474 
L 257.728735 209.254474 
L 257.728735 208.788347 
L 258.006147 208.788347 
L 258.072032 207.856092 
L 258.42053 207.856092 
L 258.42053 207.389965 
L 258.599114 207.389965 
L 258.599114 206.923838 
L 258.762093 206.923838 
L 258.762093 206.457711 
L 259.112325 206.457711 
L 259.207685 205.525457 
L 259.455621 205.525457 
L 259.455621 205.059329 
L 259.797184 205.059329 
L 259.800652 204.127075 
L 260.145682 204.127075 
L 260.145682 203.660948 
L 260.405755 203.660948 
L 260.405755 203.194821 
L 260.95711 203.194821 
L 261.017794 202.262566 
L 261.562214 202.262566 
L 261.612495 201.330312 
L 262.162116 201.330312 
L 262.214131 200.398058 
L 262.772421 200.398058 
L 262.827903 199.465803 
L 263.379258 199.465803 
L 263.448611 198.533549 
L 263.994765 198.533549 
L 264.055449 197.601295 
L 264.594667 197.601295 
L 264.655351 196.66904 
L 265.203238 196.66904 
L 265.262188 195.736786 
L 265.794471 195.736786 
L 265.869026 194.804532 
L 266.396107 194.804532 
L 266.475863 193.872277 
L 267.0827 193.872277 
L 267.0827 192.940023 
L 267.0827 192.940023 
L 267.4364 192.940023 
L 267.4364 192.473896 
L 267.694739 192.473896 
L 267.783164 191.075514 
L 268.133396 191.075514 
L 268.13513 190.14326 
L 268.310246 190.14326 
L 268.310246 189.677133 
L 268.474959 189.677133 
L 268.572053 188.744879 
L 268.823457 188.744879 
L 268.913616 187.812624 
L 269.014177 187.812624 
L 269.014177 187.346497 
L 269.168487 187.346497 
L 269.168487 186.88037 
L 269.438963 186.88037 
L 269.525654 185.481988 
L 269.867217 185.481988 
L 269.870685 184.549734 
L 270.122089 184.549734 
L 270.215715 183.61748 
L 270.302406 183.61748 
L 270.302406 183.151353 
L 270.559012 183.151353 
L 270.559012 182.685225 
L 270.732394 182.685225 
L 270.742797 181.752971 
L 270.905776 181.752971 
L 270.905776 181.286844 
L 271.186655 181.286844 
L 271.25254 180.35459 
L 271.340965 180.35459 
L 271.340965 179.888462 
L 271.599305 179.888462 
L 271.62878 178.956208 
L 271.935666 178.956208 
L 271.947803 178.023954 
L 272.058767 178.023954 
L 272.058767 177.557827 
L 272.294567 177.557827 
L 272.294567 177.091699 
L 272.485287 177.091699 
L 272.542503 176.159445 
L 272.639597 176.159445 
L 272.639597 175.693318 
L 272.913541 175.693318 
L 272.982894 174.761064 
L 273.15801 174.761064 
L 273.15801 174.294936 
L 273.333126 174.294936 
L 273.34873 173.362682 
L 273.780452 173.362682 
L 273.782185 172.430428 
L 274.20177 172.430428 
L 274.20177 171.964301 
L 274.389023 171.964301 
L 274.389023 171.498173 
L 274.631758 171.498173 
L 274.631758 171.032046 
L 274.997594 171.032046 
L 275.058278 170.099792 
L 275.486532 170.099792 
L 275.486532 169.633665 
L 275.602698 169.633665 
L 275.602698 169.167538 
L 276.204334 169.167538 
L 276.204334 168.70141 
L 276.800768 168.70141 
L 276.800768 168.235283 
L 277.414541 168.235283 
L 277.414541 167.769156 
L 277.858399 167.769156 
L 277.858399 167.303029 
L 278.206897 167.303029 
L 278.206897 166.836902 
L 278.551927 166.836902 
L 278.626482 165.904647 
L 278.900426 165.904647 
L 278.900426 165.43852 
L 279.238521 165.43852 
L 279.240254 164.506266 
L 279.366823 164.506266 
L 279.366823 164.040139 
L 279.580083 164.040139 
L 279.580083 163.574012 
L 279.802013 163.574012 
L 279.843624 162.641757 
L 279.928581 162.641757 
L 279.928581 162.17563 
L 280.242403 162.17563 
L 280.273612 161.243376 
L 280.457397 161.243376 
L 280.457397 160.777249 
L 280.618642 160.777249 
L 280.668923 159.844994 
L 280.96714 159.844994 
L 281.059033 158.91274 
L 281.098911 158.91274 
L 281.098911 158.446613 
L 281.322574 158.446613 
L 281.322574 157.980486 
L 281.66587 157.980486 
L 281.671072 157.048231 
L 282.009167 157.048231 
L 282.009167 156.582104 
L 282.283111 156.582104 
L 282.354197 155.64985 
L 282.704429 155.64985 
L 282.704429 155.183723 
L 283.052927 155.183723 
L 283.052927 154.717595 
L 283.406627 154.717595 
L 283.406627 154.251468 
L 283.758592 154.251468 
L 283.758592 153.785341 
L 284.110558 153.785341 
L 284.110558 153.319214 
L 284.459056 153.319214 
L 284.459056 152.853087 
L 284.807554 152.853087 
L 284.807554 152.38696 
L 285.149117 152.38696 
L 285.149117 151.920832 
L 285.497615 151.920832 
L 285.497615 151.454705 
L 285.846113 151.454705 
L 285.846113 150.988578 
L 291.510507 150.988578 
L 291.510507 150.522451 
L 291.942228 150.522451 
L 291.942228 150.056324 
L 292.372216 150.056324 
L 292.372216 149.590197 
L 292.793535 149.590197 
L 292.793535 149.124069 
L 293.225256 149.124069 
L 293.225256 148.657942 
L 293.656977 148.657942 
L 293.656977 148.191815 
L 294.090433 148.191815 
L 294.090433 147.725688 
L 294.52042 147.725688 
L 294.52042 147.259561 
L 294.959077 147.259561 
L 294.959077 146.793434 
L 295.397734 146.793434 
L 295.397734 146.327306 
L 295.82252 146.327306 
L 295.829455 145.395052 
L 296.250774 145.395052 
L 296.261177 144.462798 
L 296.684229 144.462798 
L 296.684229 143.996671 
L 297.119418 143.996671 
L 297.119418 143.530543 
L 297.417636 143.530543 
L 297.417636 143.064416 
L 297.554607 143.064416 
L 297.554607 142.598289 
L 297.974192 142.598289 
L 298.015804 141.666035 
L 298.411115 141.666035 
L 298.411115 141.199908 
L 298.622641 141.199908 
L 298.622641 140.73378 
L 298.837635 140.73378 
L 298.837635 140.267653 
L 299.215608 140.267653 
L 299.278026 139.335399 
L 299.708013 139.335399 
L 299.708013 138.869272 
L 300.136267 138.869272 
L 300.136267 138.403145 
L 300.566255 138.403145 
L 300.566255 137.937017 
L 300.997976 137.937017 
L 300.997976 137.47089 
L 301.419295 137.47089 
L 301.419295 137.004763 
L 301.85275 137.004763 
L 301.85275 136.538636 
L 302.293141 136.538636 
L 302.293141 136.072509 
L 302.72833 136.072509 
L 302.72833 135.606382 
L 303.163519 135.606382 
L 303.163519 135.140254 
L 303.59524 135.140254 
L 303.59524 134.674127 
L 304.02176 134.674127 
L 304.02176 134.208 
L 304.450014 134.208 
L 304.450014 133.741873 
L 304.886937 133.741873 
L 304.886937 133.275746 
L 305.318659 133.275746 
L 305.318659 132.809618 
L 305.759049 132.809618 
L 305.759049 132.343491 
L 306.189037 132.343491 
L 306.189037 131.877364 
L 306.624226 131.877364 
L 306.624226 131.411237 
L 307.047278 131.411237 
L 307.047278 130.94511 
L 307.491137 130.94511 
L 307.491137 130.478983 
L 307.921124 130.478983 
L 307.921124 130.012855 
L 308.354579 130.012855 
L 308.354579 129.546728 
L 308.796704 129.546728 
L 308.796704 129.080601 
L 309.223224 129.080601 
L 309.223224 128.614474 
L 309.665348 128.614474 
L 309.665348 128.148347 
L 310.104005 128.148347 
L 310.104005 127.68222 
L 310.535727 127.68222 
L 310.535727 127.216092 
L 310.970916 127.216092 
L 310.970916 126.749965 
L 311.406105 126.749965 
L 311.406105 126.283838 
L 311.844761 126.283838 
L 311.844761 125.817711 
L 312.276483 125.817711 
L 312.276483 125.351584 
L 312.706471 125.351584 
L 312.706471 124.885457 
L 313.14166 124.885457 
L 313.14166 124.419329 
L 313.573381 124.419329 
L 313.573381 123.953202 
L 313.802246 123.953202 
L 313.802246 123.487075 
L 314.013772 123.487075 
L 314.013772 123.020948 
L 314.410817 123.020948 
L 314.455896 122.088694 
L 314.894553 122.088694 
L 314.894553 121.622566 
L 315.017654 121.622566 
L 315.017654 121.156439 
L 315.326274 121.156439 
L 315.326274 120.690312 
L 315.629693 120.690312 
L 315.629693 120.224185 
L 315.75973 120.224185 
L 315.75973 119.758058 
L 316.18625 119.758058 
L 316.2452 118.825803 
L 316.616237 118.825803 
L 316.616237 118.359676 
L 316.846836 118.359676 
L 316.846836 117.893549 
L 317.051426 117.893549 
L 317.051426 117.427422 
L 317.450205 117.427422 
L 317.484882 116.495168 
L 317.920071 116.495168 
L 317.920071 116.02904 
L 318.055309 116.02904 
L 318.055309 115.562913 
L 318.358728 115.562913 
L 318.358728 115.096786 
L 318.670815 115.096786 
L 318.670815 114.630659 
L 318.788715 114.630659 
L 318.788715 114.164532 
L 319.218703 114.164532 
L 319.275919 113.232277 
L 319.650424 113.232277 
L 319.650424 112.76615 
L 319.879289 112.76615 
L 319.879289 112.300023 
L 320.089081 112.300023 
L 320.089081 111.833896 
L 320.486126 111.833896 
L 320.517335 110.901642 
L 320.95079 110.901642 
L 320.95079 110.435514 
L 321.373843 110.435514 
L 321.373843 109.969387 
L 321.814233 109.969387 
L 321.814233 109.50326 
L 322.249422 109.50326 
L 322.249422 109.037133 
L 322.672475 109.037133 
L 322.672475 108.571006 
L 323.107664 108.571006 
L 323.107664 108.104879 
L 323.549788 108.104879 
L 323.549788 107.638751 
L 323.984977 107.638751 
L 323.984977 107.172624 
L 324.416699 107.172624 
L 324.416699 106.706497 
L 324.851888 106.706497 
L 324.851888 106.24037 
L 325.283609 106.24037 
L 325.283609 105.774243 
L 325.713597 105.774243 
L 325.713597 105.308116 
L 326.153988 105.308116 
L 326.153988 104.841988 
L 326.582241 104.841988 
L 326.582241 104.375861 
L 330.022143 104.375861 
L 330.022143 103.909734 
L 346.453566 103.909734 
L 346.453566 103.443607 
L 346.892223 103.443607 
L 346.892223 102.97748 
L 347.325678 102.97748 
L 347.325678 102.511353 
L 347.755665 102.511353 
L 347.755665 102.045225 
L 348.190855 102.045225 
L 348.190855 101.579098 
L 348.619108 101.579098 
L 348.619108 101.112971 
L 353.409656 101.112971 
L 353.409656 100.646844 
L 353.839644 100.646844 
L 353.839644 100.180717 
L 354.283502 100.180717 
L 354.283502 99.71459 
L 354.711756 99.71459 
L 354.711756 99.248462 
L 355.152147 99.248462 
L 355.152147 98.782335 
L 355.585602 98.782335 
L 355.585602 98.316208 
L 356.022525 98.316208 
L 356.022525 97.850081 
L 356.461182 97.850081 
L 356.461182 97.383954 
L 356.885968 97.383954 
L 356.885968 96.917827 
L 357.317689 96.917827 
L 357.317689 96.451699 
L 357.752878 96.451699 
L 357.752878 95.985572 
L 358.177664 95.985572 
L 358.177664 95.519445 
L 358.614587 95.519445 
L 358.614587 95.053318 
L 359.044575 95.053318 
L 359.044575 94.587191 
L 359.481498 94.587191 
L 359.481498 94.121064 
L 359.901083 94.121064 
L 359.901083 93.654936 
L 360.336272 93.654936 
L 360.336272 93.188809 
L 362.907529 93.188809 
L 362.907529 92.722682 
L 363.340984 92.722682 
L 363.340984 92.256555 
L 363.779641 92.256555 
L 363.779641 91.790428 
L 364.21483 91.790428 
L 364.21483 91.324301 
L 364.65522 91.324301 
L 364.65522 90.858173 
L 365.088676 90.858173 
L 365.088676 90.392046 
L 365.529066 90.392046 
L 365.529066 89.925919 
L 365.965989 89.925919 
L 365.965989 89.459792 
L 366.401178 89.459792 
L 366.401178 88.993665 
L 366.845036 88.993665 
L 366.845036 88.527538 
L 367.280226 88.527538 
L 367.280226 88.06141 
L 367.724084 88.06141 
L 367.724084 87.595283 
L 368.162741 87.595283 
L 368.162741 87.129156 
L 368.962032 87.129156 
L 368.962032 86.663029 
L 369.315732 86.663029 
L 369.315732 86.196902 
L 369.657294 86.196902 
L 369.657294 85.730775 
L 370.010994 85.730775 
L 370.010994 85.264647 
L 370.356024 85.264647 
L 370.356024 84.79852 
L 370.694119 84.79852 
L 370.694119 84.332393 
L 371.033948 84.332393 
L 371.033948 83.866266 
L 371.382446 83.866266 
L 371.382446 83.400139 
L 371.623448 83.400139 
L 371.724009 82.467884 
L 372.048234 82.467884 
L 372.077709 81.53563 
L 372.422739 81.53563 
L 372.471286 80.603376 
L 372.76777 80.603376 
L 372.76777 80.137249 
L 372.901274 80.137249 
L 372.901274 79.671121 
L 373.107599 79.671121 
L 373.107599 79.204994 
L 373.461298 79.204994 
L 373.461298 78.738867 
L 373.762983 78.738867 
L 373.801127 77.806613 
L 374.147891 77.806613 
L 374.194704 76.874358 
L 374.492922 76.874358 
L 374.492922 76.408231 
L 374.633361 76.408231 
L 374.633361 75.942104 
L 374.843154 75.942104 
L 374.843154 75.475977 
L 375.066816 75.475977 
L 375.066816 75.00985 
L 375.18645 75.00985 
L 375.18645 74.543723 
L 375.49507 74.543723 
L 375.526279 73.611468 
L 375.879979 73.611468 
L 375.930259 72.679214 
L 376.225009 72.679214 
L 376.225009 72.213087 
L 376.367182 72.213087 
L 376.367182 71.74696 
L 376.571773 71.74696 
L 376.571773 71.280832 
L 376.802371 71.280832 
L 376.802371 70.814705 
L 376.925473 70.814705 
L 376.925473 70.348578 
L 377.237561 70.348578 
L 377.237561 69.882451 
L 377.671016 69.882451 
L 377.671016 69.416324 
L 378.109673 69.416324 
L 378.109673 68.950197 
L 378.546596 68.950197 
L 378.546596 68.484069 
L 378.980051 68.484069 
L 378.980051 68.017942 
L 379.404837 68.017942 
L 379.404837 67.551815 
L 381.440343 67.551815 
L 381.440343 67.085688 
L 381.795776 67.085688 
L 381.795776 66.619561 
L 382.146008 66.619561 
L 382.146008 66.153434 
L 382.499708 66.153434 
L 382.499708 65.687306 
L 382.846472 65.687306 
L 382.846472 65.221179 
L 383.189769 65.221179 
L 383.189769 64.755052 
L 383.533065 64.755052 
L 383.533065 64.288925 
L 383.878096 64.288925 
L 383.878096 63.822798 
L 384.219658 63.822798 
L 384.219658 63.356671 
L 384.561221 63.356671 
L 384.599365 62.424416 
L 384.914921 62.424416 
L 384.914921 61.958289 
L 385.029353 61.958289 
L 385.029353 61.492162 
L 385.261685 61.492162 
L 385.261685 61.026035 
L 385.610183 61.026035 
L 385.610183 60.559908 
L 385.951746 60.559908 
L 385.951746 60.09378 
L 386.300244 60.09378 
L 386.300244 59.627653 
L 386.650476 59.627653 
L 386.650476 59.161526 
L 386.990305 59.161526 
L 386.990305 58.695399 
L 387.340536 58.695399 
L 387.340536 58.229272 
L 387.687301 58.229272 
L 387.687301 57.763145 
L 388.034065 57.763145 
L 388.034065 57.297017 
L 395.453086 57.297017 
L 395.453086 56.83089 
L 395.89521 56.83089 
L 395.89521 56.364763 
L 396.319996 56.364763 
L 396.319996 55.898636 
L 396.758653 55.898636 
L 396.758653 55.432509 
L 397.190374 55.432509 
L 397.190374 54.966382 
L 397.615161 54.966382 
L 397.615161 54.500254 
L 398.046882 54.500254 
L 398.046882 54.034127 
L 398.487273 54.034127 
L 398.487273 53.568 
L 398.487273 53.568 
" clip-path="url(#p6dd8a0137a)" style="fill: none; stroke: #1f77b4; stroke-width: 1.5; stroke-linecap: square"/>
   </g>
   <g id="patch_3">
    <path d="M 57.6 307.584 
L 57.6 41.472 
" style="fill: none; stroke: #000000; stroke-width: 0.8; stroke-linejoin: miter; stroke-linecap: square"/>
   </g>
   <g id="patch_4">
    <path d="M 414.72 307.584 
L 414.72 41.472 
" style="fill: none; stroke: #000000; stroke-width: 0.8; stroke-linejoin: miter; stroke-linecap: square"/>
   </g>
   <g id="patch_5">
    <path d="M 57.6 307.584 
L 414.72 307.584 
" style="fill: none; stroke: #000000; stroke-width: 0.8; stroke-linejoin: miter; stroke-linecap: square"/>
   </g>
   <g id="patch_6">
    <path d="M 57.6 41.472 
L 414.72 41.472 
" style="fill: none; stroke: #000000; stroke-width: 0.8; stroke-linejoin: miter; stroke-linecap: square"/>
   </g>
   <g id="text_16">
    <!-- Execution time between S1 S15 (xx1xx1xx2xx0yyy66xx0yyy66xx1yyy5xx0yyy3xx1xx1yyy5) -->
    <g transform="translate(-44.340937 35.472) scale(0.12 -0.12)">
     <defs>
      <path id="DejaVuSans-45" d="M 628 4666 
L 3578 4666 
L 3578 4134 
L 1259 4134 
L 1259 2753 
L 3481 2753 
L 3481 2222 
L 1259 2222 
L 1259 531 
L 3634 531 
L 3634 0 
L 628 0 
L 628 4666 
z
" transform="scale(0.015625)"/>
      <path id="DejaVuSans-78" d="M 3513 3500 
L 2247 1797 
L 3578 0 
L 2900 0 
L 1881 1375 
L 863 0 
L 184 0 
L 1544 1831 
L 300 3500 
L 978 3500 
L 1906 2253 
L 2834 3500 
L 3513 3500 
z
" transform="scale(0.015625)"/>
      <path id="DejaVuSans-63" d="M 3122 3366 
L 3122 2828 
Q 2878 2963 2633 3030 
Q 2388 3097 2138 3097 
Q 1578 3097 1268 2742 
Q 959 2388 959 1747 
Q 959 1106 1268 751 
Q 1578 397 2138 397 
Q 2388 397 2633 464 
Q 2878 531 3122 666 
L 3122 134 
Q 2881 22 2623 -34 
Q 2366 -91 2075 -91 
Q 1284 -91 818 406 
Q 353 903 353 1747 
Q 353 2603 823 3093 
Q 1294 3584 2113 3584 
Q 2378 3584 2631 3529 
Q 2884 3475 3122 3366 
z
" transform="scale(0.015625)"/>
      <path id="DejaVuSans-75" d="M 544 1381 
L 544 3500 
L 1119 3500 
L 1119 1403 
Q 1119 906 1312 657 
Q 1506 409 1894 409 
Q 2359 409 2629 706 
Q 2900 1003 2900 1516 
L 2900 3500 
L 3475 3500 
L 3475 0 
L 2900 0 
L 2900 538 
Q 2691 219 2414 64 
Q 2138 -91 1772 -91 
Q 1169 -91 856 284 
Q 544 659 544 1381 
z
M 1991 3584 
L 1991 3584 
z
" transform="scale(0.015625)"/>
      <path id="DejaVuSans-74" d="M 1172 4494 
L 1172 3500 
L 2356 3500 
L 2356 3053 
L 1172 3053 
L 1172 1153 
Q 1172 725 1289 603 
Q 1406 481 1766 481 
L 2356 481 
L 2356 0 
L 1766 0 
Q 1100 0 847 248 
Q 594 497 594 1153 
L 594 3053 
L 172 3053 
L 172 3500 
L 594 3500 
L 594 4494 
L 1172 4494 
z
" transform="scale(0.015625)"/>
      <path id="DejaVuSans-69" d="M 603 3500 
L 1178 3500 
L 1178 0 
L 603 0 
L 603 3500 
z
M 603 4863 
L 1178 4863 
L 1178 4134 
L 603 4134 
L 603 4863 
z
" transform="scale(0.015625)"/>
      <path id="DejaVuSans-6f" d="M 1959 3097 
Q 1497 3097 1228 2736 
Q 959 2375 959 1747 
Q 959 1119 1226 758 
Q 1494 397 1959 397 
Q 2419 397 2687 759 
Q 2956 1122 2956 1747 
Q 2956 2369 2687 2733 
Q 2419 3097 1959 3097 
z
M 1959 3584 
Q 2709 3584 3137 3096 
Q 3566 2609 3566 1747 
Q 3566 888 3137 398 
Q 2709 -91 1959 -91 
Q 1206 -91 779 398 
Q 353 888 353 1747 
Q 353 2609 779 3096 
Q 1206 3584 1959 3584 
z
" transform="scale(0.015625)"/>
      <path id="DejaVuSans-6e" d="M 3513 2113 
L 3513 0 
L 2938 0 
L 2938 2094 
Q 2938 2591 2744 2837 
Q 2550 3084 2163 3084 
Q 1697 3084 1428 2787 
Q 1159 2491 1159 1978 
L 1159 0 
L 581 0 
L 581 3500 
L 1159 3500 
L 1159 2956 
Q 1366 3272 1645 3428 
Q 1925 3584 2291 3584 
Q 2894 3584 3203 3211 
Q 3513 2838 3513 2113 
z
" transform="scale(0.015625)"/>
      <path id="DejaVuSans-20" transform="scale(0.015625)"/>
      <path id="DejaVuSans-6d" d="M 3328 2828 
Q 3544 3216 3844 3400 
Q 4144 3584 4550 3584 
Q 5097 3584 5394 3201 
Q 5691 2819 5691 2113 
L 5691 0 
L 5113 0 
L 5113 2094 
Q 5113 2597 4934 2840 
Q 4756 3084 4391 3084 
Q 3944 3084 3684 2787 
Q 3425 2491 3425 1978 
L 3425 0 
L 2847 0 
L 2847 2094 
Q 2847 2600 2669 2842 
Q 2491 3084 2119 3084 
Q 1678 3084 1418 2786 
Q 1159 2488 1159 1978 
L 1159 0 
L 581 0 
L 581 3500 
L 1159 3500 
L 1159 2956 
Q 1356 3278 1631 3431 
Q 1906 3584 2284 3584 
Q 2666 3584 2933 3390 
Q 3200 3197 3328 2828 
z
" transform="scale(0.015625)"/>
      <path id="DejaVuSans-62" d="M 3116 1747 
Q 3116 2381 2855 2742 
Q 2594 3103 2138 3103 
Q 1681 3103 1420 2742 
Q 1159 2381 1159 1747 
Q 1159 1113 1420 752 
Q 1681 391 2138 391 
Q 2594 391 2855 752 
Q 3116 1113 3116 1747 
z
M 1159 2969 
Q 1341 3281 1617 3432 
Q 1894 3584 2278 3584 
Q 2916 3584 3314 3078 
Q 3713 2572 3713 1747 
Q 3713 922 3314 415 
Q 2916 -91 2278 -91 
Q 1894 -91 1617 61 
Q 1341 213 1159 525 
L 1159 0 
L 581 0 
L 581 4863 
L 1159 4863 
L 1159 2969 
z
" transform="scale(0.015625)"/>
      <path id="DejaVuSans-77" d="M 269 3500 
L 844 3500 
L 1563 769 
L 2278 3500 
L 2956 3500 
L 3675 769 
L 4391 3500 
L 4966 3500 
L 4050 0 
L 3372 0 
L 2619 2869 
L 1863 0 
L 1184 0 
L 269 3500 
z
" transform="scale(0.015625)"/>
      <path id="DejaVuSans-53" d="M 3425 4513 
L 3425 3897 
Q 3066 4069 2747 4153 
Q 2428 4238 2131 4238 
Q 1616 4238 1336 4038 
Q 1056 3838 1056 3469 
Q 1056 3159 1242 3001 
Q 1428 2844 1947 2747 
L 2328 2669 
Q 3034 2534 3370 2195 
Q 3706 1856 3706 1288 
Q 3706 609 3251 259 
Q 2797 -91 1919 -91 
Q 1588 -91 1214 -16 
Q 841 59 441 206 
L 441 856 
Q 825 641 1194 531 
Q 1563 422 1919 422 
Q 2459 422 2753 634 
Q 3047 847 3047 1241 
Q 3047 1584 2836 1778 
Q 2625 1972 2144 2069 
L 1759 2144 
Q 1053 2284 737 2584 
Q 422 2884 422 3419 
Q 422 4038 858 4394 
Q 1294 4750 2059 4750 
Q 2388 4750 2728 4690 
Q 3069 4631 3425 4513 
z
" transform="scale(0.015625)"/>
      <path id="DejaVuSans-28" d="M 1984 4856 
Q 1566 4138 1362 3434 
Q 1159 2731 1159 2009 
Q 1159 1288 1364 580 
Q 1569 -128 1984 -844 
L 1484 -844 
Q 1016 -109 783 600 
Q 550 1309 550 2009 
Q 550 2706 781 3412 
Q 1013 4119 1484 4856 
L 1984 4856 
z
" transform="scale(0.015625)"/>
      <path id="DejaVuSans-79" d="M 2059 -325 
Q 1816 -950 1584 -1140 
Q 1353 -1331 966 -1331 
L 506 -1331 
L 506 -850 
L 844 -850 
Q 1081 -850 1212 -737 
Q 1344 -625 1503 -206 
L 1606 56 
L 191 3500 
L 800 3500 
L 1894 763 
L 2988 3500 
L 3597 3500 
L 2059 -325 
z
" transform="scale(0.015625)"/>
      <path id="DejaVuSans-33" d="M 2597 2516 
Q 3050 2419 3304 2112 
Q 3559 1806 3559 1356 
Q 3559 666 3084 287 
Q 2609 -91 1734 -91 
Q 1441 -91 1130 -33 
Q 819 25 488 141 
L 488 750 
Q 750 597 1062 519 
Q 1375 441 1716 441 
Q 2309 441 2620 675 
Q 2931 909 2931 1356 
Q 2931 1769 2642 2001 
Q 2353 2234 1838 2234 
L 1294 2234 
L 1294 2753 
L 1863 2753 
Q 2328 2753 2575 2939 
Q 2822 3125 2822 3475 
Q 2822 3834 2567 4026 
Q 2313 4219 1838 4219 
Q 1578 4219 1281 4162 
Q 984 4106 628 3988 
L 628 4550 
Q 988 4650 1302 4700 
Q 1616 4750 1894 4750 
Q 2613 4750 3031 4423 
Q 3450 4097 3450 3541 
Q 3450 3153 3228 2886 
Q 3006 2619 2597 2516 
z
" transform="scale(0.015625)"/>
      <path id="DejaVuSans-29" d="M 513 4856 
L 1013 4856 
Q 1481 4119 1714 3412 
Q 1947 2706 1947 2009 
Q 1947 1309 1714 600 
Q 1481 -109 1013 -844 
L 513 -844 
Q 928 -128 1133 580 
Q 1338 1288 1338 2009 
Q 1338 2731 1133 3434 
Q 928 4138 513 4856 
z
" transform="scale(0.015625)"/>
     </defs>
     <use xlink:href="#DejaVuSans-45"/>
     <use xlink:href="#DejaVuSans-78" x="63.183594"/>
     <use xlink:href="#DejaVuSans-65" x="119.238281"/>
     <use xlink:href="#DejaVuSans-63" x="180.761719"/>
     <use xlink:href="#DejaVuSans-75" x="235.742188"/>
     <use xlink:href="#DejaVuSans-74" x="299.121094"/>
     <use xlink:href="#DejaVuSans-69" x="338.330078"/>
     <use xlink:href="#DejaVuSans-6f" x="366.113281"/>
     <use xlink:href="#DejaVuSans-6e" x="427.294922"/>
     <use xlink:href="#DejaVuSans-20" x="490.673828"/>
     <use xlink:href="#DejaVuSans-74" x="522.460938"/>
     <use xlink:href="#DejaVuSans-69" x="561.669922"/>
     <use xlink:href="#DejaVuSans-6d" x="589.453125"/>
     <use xlink:href="#DejaVuSans-65" x="686.865234"/>
     <use xlink:href="#DejaVuSans-20" x="748.388672"/>
     <use xlink:href="#DejaVuSans-62" x="780.175781"/>
     <use xlink:href="#DejaVuSans-65" x="843.652344"/>
     <use xlink:href="#DejaVuSans-74" x="905.175781"/>
     <use xlink:href="#DejaVuSans-77" x="944.384766"/>
     <use xlink:href="#DejaVuSans-65" x="1026.171875"/>
     <use xlink:href="#DejaVuSans-65" x="1087.695312"/>
     <use xlink:href="#DejaVuSans-6e" x="1149.21875"/>
     <use xlink:href="#DejaVuSans-20" x="1212.597656"/>
     <use xlink:href="#DejaVuSans-53" x="1244.384766"/>
     <use xlink:href="#DejaVuSans-31" x="1307.861328"/>
     <use xlink:href="#DejaVuSans-20" x="1371.484375"/>
     <use xlink:href="#DejaVuSans-53" x="1403.271484"/>
     <use xlink:href="#DejaVuSans-31" x="1466.748047"/>
     <use xlink:href="#DejaVuSans-35" x="1530.371094"/>
     <use xlink:href="#DejaVuSans-20" x="1593.994141"/>
     <use xlink:href="#DejaVuSans-28" x="1625.78125"/>
     <use xlink:href="#DejaVuSans-78" x="1664.794922"/>
     <use xlink:href="#DejaVuSans-78" x="1723.974609"/>
     <use xlink:href="#DejaVuSans-31" x="1783.154297"/>
     <use xlink:href="#DejaVuSans-78" x="1846.777344"/>
     <use xlink:href="#DejaVuSans-78" x="1905.957031"/>
     <use xlink:href="#DejaVuSans-31" x="1965.136719"/>
     <use xlink:href="#DejaVuSans-78" x="2028.759766"/>
     <use xlink:href="#DejaVuSans-78" x="2087.939453"/>
     <use xlink:href="#DejaVuSans-32" x="2147.119141"/>
     <use xlink:href="#DejaVuSans-78" x="2210.742188"/>
     <use xlink:href="#DejaVuSans-78" x="2269.921875"/>
     <use xlink:href="#DejaVuSans-30" x="2329.101562"/>
     <use xlink:href="#DejaVuSans-79" x="2392.724609"/>
     <use xlink:href="#DejaVuSans-79" x="2451.904297"/>
     <use xlink:href="#DejaVuSans-79" x="2511.083984"/>
     <use xlink:href="#DejaVuSans-36" x="2570.263672"/>
     <use xlink:href="#DejaVuSans-36" x="2633.886719"/>
     <use xlink:href="#DejaVuSans-78" x="2697.509766"/>
     <use xlink:href="#DejaVuSans-78" x="2756.689453"/>
     <use xlink:href="#DejaVuSans-30" x="2815.869141"/>
     <use xlink:href="#DejaVuSans-79" x="2879.492188"/>
     <use xlink:href="#DejaVuSans-79" x="2938.671875"/>
     <use xlink:href="#DejaVuSans-79" x="2997.851562"/>
     <use xlink:href="#DejaVuSans-36" x="3057.03125"/>
     <use xlink:href="#DejaVuSans-36" x="3120.654297"/>
     <use xlink:href="#DejaVuSans-78" x="3184.277344"/>
     <use xlink:href="#DejaVuSans-78" x="3243.457031"/>
     <use xlink:href="#DejaVuSans-31" x="3302.636719"/>
     <use xlink:href="#DejaVuSans-79" x="3366.259766"/>
     <use xlink:href="#DejaVuSans-79" x="3425.439453"/>
     <use xlink:href="#DejaVuSans-79" x="3484.619141"/>
     <use xlink:href="#DejaVuSans-35" x="3543.798828"/>
     <use xlink:href="#DejaVuSans-78" x="3607.421875"/>
     <use xlink:href="#DejaVuSans-78" x="3666.601562"/>
     <use xlink:href="#DejaVuSans-30" x="3725.78125"/>
     <use xlink:href="#DejaVuSans-79" x="3789.404297"/>
     <use xlink:href="#DejaVuSans-79" x="3848.583984"/>
     <use xlink:href="#DejaVuSans-79" x="3907.763672"/>
     <use xlink:href="#DejaVuSans-33" x="3966.943359"/>
     <use xlink:href="#DejaVuSans-78" x="4030.566406"/>
     <use xlink:href="#DejaVuSans-78" x="4089.746094"/>
     <use xlink:href="#DejaVuSans-31" x="4148.925781"/>
     <use xlink:href="#DejaVuSans-78" x="4212.548828"/>
     <use xlink:href="#DejaVuSans-78" x="4271.728516"/>
     <use xlink:href="#DejaVuSans-31" x="4330.908203"/>
     <use xlink:href="#DejaVuSans-79" x="4394.53125"/>
     <use xlink:href="#DejaVuSans-79" x="4453.710938"/>
     <use xlink:href="#DejaVuSans-79" x="4512.890625"/>
     <use xlink:href="#DejaVuSans-35" x="4572.070312"/>
     <use xlink:href="#DejaVuSans-29" x="4635.693359"/>
    </g>
   </g>
   <g id="legend_1">
    <g id="patch_7">
     <path d="M 110.819063 304.584 
L 410.52 304.584 
Q 411.72 304.584 411.72 303.384 
L 411.72 295.177125 
Q 411.72 293.977125 410.52 293.977125 
L 110.819063 293.977125 
Q 109.619063 293.977125 109.619063 295.177125 
L 109.619063 303.384 
Q 109.619063 304.584 110.819063 304.584 
z
" style="fill: #ffffff; opacity: 0.8; stroke: #cccccc; stroke-linejoin: miter"/>
    </g>
    <g id="line2d_16">
     <path d="M 112.019063 298.836187 
L 118.019063 298.836187 
L 124.019063 298.836187 
" style="fill: none; stroke: #1f77b4; stroke-width: 1.5; stroke-linecap: square"/>
    </g>
    <g id="text_17">
     <!-- Execution time between S1 S15 (xx1xx1xx2xx0yyy66xx0yyy66xx1yyy5xx0yyy3xx1xx1yyy5) -->
     <g transform="translate(128.819063 300.936187) scale(0.06 -0.06)">
      <use xlink:href="#DejaVuSans-45"/>
      <use xlink:href="#DejaVuSans-78" x="63.183594"/>
      <use xlink:href="#DejaVuSans-65" x="119.238281"/>
      <use xlink:href="#DejaVuSans-63" x="180.761719"/>
      <use xlink:href="#DejaVuSans-75" x="235.742188"/>
      <use xlink:href="#DejaVuSans-74" x="299.121094"/>
      <use xlink:href="#DejaVuSans-69" x="338.330078"/>
      <use xlink:href="#DejaVuSans-6f" x="366.113281"/>
      <use xlink:href="#DejaVuSans-6e" x="427.294922"/>
      <use xlink:href="#DejaVuSans-20" x="490.673828"/>
      <use xlink:href="#DejaVuSans-74" x="522.460938"/>
      <use xlink:href="#DejaVuSans-69" x="561.669922"/>
      <use xlink:href="#DejaVuSans-6d" x="589.453125"/>
      <use xlink:href="#DejaVuSans-65" x="686.865234"/>
      <use xlink:href="#DejaVuSans-20" x="748.388672"/>
      <use xlink:href="#DejaVuSans-62" x="780.175781"/>
      <use xlink:href="#DejaVuSans-65" x="843.652344"/>
      <use xlink:href="#DejaVuSans-74" x="905.175781"/>
      <use xlink:href="#DejaVuSans-77" x="944.384766"/>
      <use xlink:href="#DejaVuSans-65" x="1026.171875"/>
      <use xlink:href="#DejaVuSans-65" x="1087.695312"/>
      <use xlink:href="#DejaVuSans-6e" x="1149.21875"/>
      <use xlink:href="#DejaVuSans-20" x="1212.597656"/>
      <use xlink:href="#DejaVuSans-53" x="1244.384766"/>
      <use xlink:href="#DejaVuSans-31" x="1307.861328"/>
      <use xlink:href="#DejaVuSans-20" x="1371.484375"/>
      <use xlink:href="#DejaVuSans-53" x="1403.271484"/>
      <use xlink:href="#DejaVuSans-31" x="1466.748047"/>
      <use xlink:href="#DejaVuSans-35" x="1530.371094"/>
      <use xlink:href="#DejaVuSans-20" x="1593.994141"/>
      <use xlink:href="#DejaVuSans-28" x="1625.78125"/>
      <use xlink:href="#DejaVuSans-78" x="1664.794922"/>
      <use xlink:href="#DejaVuSans-78" x="1723.974609"/>
      <use xlink:href="#DejaVuSans-31" x="1783.154297"/>
      <use xlink:href="#DejaVuSans-78" x="1846.777344"/>
      <use xlink:href="#DejaVuSans-78" x="1905.957031"/>
      <use xlink:href="#DejaVuSans-31" x="1965.136719"/>
      <use xlink:href="#DejaVuSans-78" x="2028.759766"/>
      <use xlink:href="#DejaVuSans-78" x="2087.939453"/>
      <use xlink:href="#DejaVuSans-32" x="2147.119141"/>
      <use xlink:href="#DejaVuSans-78" x="2210.742188"/>
      <use xlink:href="#DejaVuSans-78" x="2269.921875"/>
      <use xlink:href="#DejaVuSans-30" x="2329.101562"/>
      <use xlink:href="#DejaVuSans-79" x="2392.724609"/>
      <use xlink:href="#DejaVuSans-79" x="2451.904297"/>
      <use xlink:href="#DejaVuSans-79" x="2511.083984"/>
      <use xlink:href="#DejaVuSans-36" x="2570.263672"/>
      <use xlink:href="#DejaVuSans-36" x="2633.886719"/>
      <use xlink:href="#DejaVuSans-78" x="2697.509766"/>
      <use xlink:href="#DejaVuSans-78" x="2756.689453"/>
      <use xlink:href="#DejaVuSans-30" x="2815.869141"/>
      <use xlink:href="#DejaVuSans-79" x="2879.492188"/>
      <use xlink:href="#DejaVuSans-79" x="2938.671875"/>
      <use xlink:href="#DejaVuSans-79" x="2997.851562"/>
      <use xlink:href="#DejaVuSans-36" x="3057.03125"/>
      <use xlink:href="#DejaVuSans-36" x="3120.654297"/>
      <use xlink:href="#DejaVuSans-78" x="3184.277344"/>
      <use xlink:href="#DejaVuSans-78" x="3243.457031"/>
      <use xlink:href="#DejaVuSans-31" x="3302.636719"/>
      <use xlink:href="#DejaVuSans-79" x="3366.259766"/>
      <use xlink:href="#DejaVuSans-79" x="3425.439453"/>
      <use xlink:href="#DejaVuSans-79" x="3484.619141"/>
      <use xlink:href="#DejaVuSans-35" x="3543.798828"/>
      <use xlink:href="#DejaVuSans-78" x="3607.421875"/>
      <use xlink:href="#DejaVuSans-78" x="3666.601562"/>
      <use xlink:href="#DejaVuSans-30" x="3725.78125"/>
      <use xlink:href="#DejaVuSans-79" x="3789.404297"/>
      <use xlink:href="#DejaVuSans-79" x="3848.583984"/>
      <use xlink:href="#DejaVuSans-79" x="3907.763672"/>
      <use xlink:href="#DejaVuSans-33" x="3966.943359"/>
      <use xlink:href="#DejaVuSans-78" x="4030.566406"/>
      <use xlink:href="#DejaVuSans-78" x="4089.746094"/>
      <use xlink:href="#DejaVuSans-31" x="4148.925781"/>
      <use xlink:href="#DejaVuSans-78" x="4212.548828"/>
      <use xlink:href="#DejaVuSans-78" x="4271.728516"/>
      <use xlink:href="#DejaVuSans-31" x="4330.908203"/>
      <use xlink:href="#DejaVuSans-79" x="4394.53125"/>
      <use xlink:href="#DejaVuSans-79" x="4453.710938"/>
      <use xlink:href="#DejaVuSans-79" x="4512.890625"/>
      <use xlink:href="#DejaVuSans-35" x="4572.070312"/>
      <use xlink:href="#DejaVuSans-29" x="4635.693359"/>
     </g>
    </g>
   </g>
  </g>
 </g>
 <defs>
  <clipPath id="p6dd8a0137a">
   <rect x="57.6" y="41.472" width="357.12" height="266.112"/>
  </clipPath>
 </defs>
</svg>
