<?xml version="1.0" encoding="utf-8" standalone="no"?>
<!DOCTYPE svg PUBLIC "-//W3C//DTD SVG 1.1//EN"
  "http://www.w3.org/Graphics/SVG/1.1/DTD/svg11.dtd">
<svg xmlns:xlink="http://www.w3.org/1999/xlink" width="460.8pt" height="345.6pt" viewBox="0 0 460.8 345.6" xmlns="http://www.w3.org/2000/svg" version="1.1">
 <metadata>
  <rdf:RDF xmlns:dc="http://purl.org/dc/elements/1.1/" xmlns:cc="http://creativecommons.org/ns#" xmlns:rdf="http://www.w3.org/1999/02/22-rdf-syntax-ns#">
   <cc:Work>
    <dc:type rdf:resource="http://purl.org/dc/dcmitype/StillImage"/>
    <dc:date>2024-03-08T13:03:35.378272</dc:date>
    <dc:format>image/svg+xml</dc:format>
    <dc:creator>
     <cc:Agent>
      <dc:title>Matplotlib v3.8.2, https://matplotlib.org/</dc:title>
     </cc:Agent>
    </dc:creator>
   </cc:Work>
  </rdf:RDF>
 </metadata>
 <defs>
  <style type="text/css">*{stroke-linejoin: round; stroke-linecap: butt}</style>
 </defs>
 <g id="figure_1">
  <g id="patch_1">
   <path d="M 0 345.6 
L 460.8 345.6 
L 460.8 0 
L 0 0 
z
" style="fill: #ffffff"/>
  </g>
  <g id="axes_1">
   <g id="patch_2">
    <path d="M 57.6 307.584 
L 414.72 307.584 
L 414.72 41.472 
L 57.6 41.472 
z
" style="fill: #ffffff"/>
   </g>
   <g id="matplotlib.axis_1">
    <g id="xtick_1">
     <g id="line2d_1">
      <defs>
       <path id="mdc5f23834c" d="M 0 0 
L 0 3.5 
" style="stroke: #000000; stroke-width: 0.8"/>
      </defs>
      <g>
       <use xlink:href="#mdc5f23834c" x="73.32767" y="307.584" style="stroke: #000000; stroke-width: 0.8"/>
      </g>
     </g>
     <g id="text_1">
      <!-- 0.0 -->
      <g transform="translate(65.376107 322.182437) scale(0.1 -0.1)">
       <defs>
        <path id="DejaVuSans-30" d="M 2034 4250 
Q 1547 4250 1301 3770 
Q 1056 3291 1056 2328 
Q 1056 1369 1301 889 
Q 1547 409 2034 409 
Q 2525 409 2770 889 
Q 3016 1369 3016 2328 
Q 3016 3291 2770 3770 
Q 2525 4250 2034 4250 
z
M 2034 4750 
Q 2819 4750 3233 4129 
Q 3647 3509 3647 2328 
Q 3647 1150 3233 529 
Q 2819 -91 2034 -91 
Q 1250 -91 836 529 
Q 422 1150 422 2328 
Q 422 3509 836 4129 
Q 1250 4750 2034 4750 
z
" transform="scale(0.015625)"/>
        <path id="DejaVuSans-2e" d="M 684 794 
L 1344 794 
L 1344 0 
L 684 0 
L 684 794 
z
" transform="scale(0.015625)"/>
       </defs>
       <use xlink:href="#DejaVuSans-30"/>
       <use xlink:href="#DejaVuSans-2e" x="63.623047"/>
       <use xlink:href="#DejaVuSans-30" x="95.410156"/>
      </g>
     </g>
    </g>
    <g id="xtick_2">
     <g id="line2d_2">
      <g>
       <use xlink:href="#mdc5f23834c" x="118.50278" y="307.584" style="stroke: #000000; stroke-width: 0.8"/>
      </g>
     </g>
     <g id="text_2">
      <!-- 0.5 -->
      <g transform="translate(110.551218 322.182437) scale(0.1 -0.1)">
       <defs>
        <path id="DejaVuSans-35" d="M 691 4666 
L 3169 4666 
L 3169 4134 
L 1269 4134 
L 1269 2991 
Q 1406 3038 1543 3061 
Q 1681 3084 1819 3084 
Q 2600 3084 3056 2656 
Q 3513 2228 3513 1497 
Q 3513 744 3044 326 
Q 2575 -91 1722 -91 
Q 1428 -91 1123 -41 
Q 819 9 494 109 
L 494 744 
Q 775 591 1075 516 
Q 1375 441 1709 441 
Q 2250 441 2565 725 
Q 2881 1009 2881 1497 
Q 2881 1984 2565 2268 
Q 2250 2553 1709 2553 
Q 1456 2553 1204 2497 
Q 953 2441 691 2322 
L 691 4666 
z
" transform="scale(0.015625)"/>
       </defs>
       <use xlink:href="#DejaVuSans-30"/>
       <use xlink:href="#DejaVuSans-2e" x="63.623047"/>
       <use xlink:href="#DejaVuSans-35" x="95.410156"/>
      </g>
     </g>
    </g>
    <g id="xtick_3">
     <g id="line2d_3">
      <g>
       <use xlink:href="#mdc5f23834c" x="163.67789" y="307.584" style="stroke: #000000; stroke-width: 0.8"/>
      </g>
     </g>
     <g id="text_3">
      <!-- 1.0 -->
      <g transform="translate(155.726328 322.182437) scale(0.1 -0.1)">
       <defs>
        <path id="DejaVuSans-31" d="M 794 531 
L 1825 531 
L 1825 4091 
L 703 3866 
L 703 4441 
L 1819 4666 
L 2450 4666 
L 2450 531 
L 3481 531 
L 3481 0 
L 794 0 
L 794 531 
z
" transform="scale(0.015625)"/>
       </defs>
       <use xlink:href="#DejaVuSans-31"/>
       <use xlink:href="#DejaVuSans-2e" x="63.623047"/>
       <use xlink:href="#DejaVuSans-30" x="95.410156"/>
      </g>
     </g>
    </g>
    <g id="xtick_4">
     <g id="line2d_4">
      <g>
       <use xlink:href="#mdc5f23834c" x="208.853001" y="307.584" style="stroke: #000000; stroke-width: 0.8"/>
      </g>
     </g>
     <g id="text_4">
      <!-- 1.5 -->
      <g transform="translate(200.901438 322.182437) scale(0.1 -0.1)">
       <use xlink:href="#DejaVuSans-31"/>
       <use xlink:href="#DejaVuSans-2e" x="63.623047"/>
       <use xlink:href="#DejaVuSans-35" x="95.410156"/>
      </g>
     </g>
    </g>
    <g id="xtick_5">
     <g id="line2d_5">
      <g>
       <use xlink:href="#mdc5f23834c" x="254.028111" y="307.584" style="stroke: #000000; stroke-width: 0.8"/>
      </g>
     </g>
     <g id="text_5">
      <!-- 2.0 -->
      <g transform="translate(246.076549 322.182437) scale(0.1 -0.1)">
       <defs>
        <path id="DejaVuSans-32" d="M 1228 531 
L 3431 531 
L 3431 0 
L 469 0 
L 469 531 
Q 828 903 1448 1529 
Q 2069 2156 2228 2338 
Q 2531 2678 2651 2914 
Q 2772 3150 2772 3378 
Q 2772 3750 2511 3984 
Q 2250 4219 1831 4219 
Q 1534 4219 1204 4116 
Q 875 4013 500 3803 
L 500 4441 
Q 881 4594 1212 4672 
Q 1544 4750 1819 4750 
Q 2544 4750 2975 4387 
Q 3406 4025 3406 3419 
Q 3406 3131 3298 2873 
Q 3191 2616 2906 2266 
Q 2828 2175 2409 1742 
Q 1991 1309 1228 531 
z
" transform="scale(0.015625)"/>
       </defs>
       <use xlink:href="#DejaVuSans-32"/>
       <use xlink:href="#DejaVuSans-2e" x="63.623047"/>
       <use xlink:href="#DejaVuSans-30" x="95.410156"/>
      </g>
     </g>
    </g>
    <g id="xtick_6">
     <g id="line2d_6">
      <g>
       <use xlink:href="#mdc5f23834c" x="299.203222" y="307.584" style="stroke: #000000; stroke-width: 0.8"/>
      </g>
     </g>
     <g id="text_6">
      <!-- 2.5 -->
      <g transform="translate(291.251659 322.182437) scale(0.1 -0.1)">
       <use xlink:href="#DejaVuSans-32"/>
       <use xlink:href="#DejaVuSans-2e" x="63.623047"/>
       <use xlink:href="#DejaVuSans-35" x="95.410156"/>
      </g>
     </g>
    </g>
    <g id="xtick_7">
     <g id="line2d_7">
      <g>
       <use xlink:href="#mdc5f23834c" x="344.378332" y="307.584" style="stroke: #000000; stroke-width: 0.8"/>
      </g>
     </g>
     <g id="text_7">
      <!-- 3.0 -->
      <g transform="translate(336.42677 322.182437) scale(0.1 -0.1)">
       <defs>
        <path id="DejaVuSans-33" d="M 2597 2516 
Q 3050 2419 3304 2112 
Q 3559 1806 3559 1356 
Q 3559 666 3084 287 
Q 2609 -91 1734 -91 
Q 1441 -91 1130 -33 
Q 819 25 488 141 
L 488 750 
Q 750 597 1062 519 
Q 1375 441 1716 441 
Q 2309 441 2620 675 
Q 2931 909 2931 1356 
Q 2931 1769 2642 2001 
Q 2353 2234 1838 2234 
L 1294 2234 
L 1294 2753 
L 1863 2753 
Q 2328 2753 2575 2939 
Q 2822 3125 2822 3475 
Q 2822 3834 2567 4026 
Q 2313 4219 1838 4219 
Q 1578 4219 1281 4162 
Q 984 4106 628 3988 
L 628 4550 
Q 988 4650 1302 4700 
Q 1616 4750 1894 4750 
Q 2613 4750 3031 4423 
Q 3450 4097 3450 3541 
Q 3450 3153 3228 2886 
Q 3006 2619 2597 2516 
z
" transform="scale(0.015625)"/>
       </defs>
       <use xlink:href="#DejaVuSans-33"/>
       <use xlink:href="#DejaVuSans-2e" x="63.623047"/>
       <use xlink:href="#DejaVuSans-30" x="95.410156"/>
      </g>
     </g>
    </g>
    <g id="xtick_8">
     <g id="line2d_8">
      <g>
       <use xlink:href="#mdc5f23834c" x="389.553443" y="307.584" style="stroke: #000000; stroke-width: 0.8"/>
      </g>
     </g>
     <g id="text_8">
      <!-- 3.5 -->
      <g transform="translate(381.60188 322.182437) scale(0.1 -0.1)">
       <use xlink:href="#DejaVuSans-33"/>
       <use xlink:href="#DejaVuSans-2e" x="63.623047"/>
       <use xlink:href="#DejaVuSans-35" x="95.410156"/>
      </g>
     </g>
    </g>
    <g id="text_9">
     <!-- 1e6 -->
     <g transform="translate(395.841875 334.860562) scale(0.1 -0.1)">
      <defs>
       <path id="DejaVuSans-65" d="M 3597 1894 
L 3597 1613 
L 953 1613 
Q 991 1019 1311 708 
Q 1631 397 2203 397 
Q 2534 397 2845 478 
Q 3156 559 3463 722 
L 3463 178 
Q 3153 47 2828 -22 
Q 2503 -91 2169 -91 
Q 1331 -91 842 396 
Q 353 884 353 1716 
Q 353 2575 817 3079 
Q 1281 3584 2069 3584 
Q 2775 3584 3186 3129 
Q 3597 2675 3597 1894 
z
M 3022 2063 
Q 3016 2534 2758 2815 
Q 2500 3097 2075 3097 
Q 1594 3097 1305 2825 
Q 1016 2553 972 2059 
L 3022 2063 
z
" transform="scale(0.015625)"/>
       <path id="DejaVuSans-36" d="M 2113 2584 
Q 1688 2584 1439 2293 
Q 1191 2003 1191 1497 
Q 1191 994 1439 701 
Q 1688 409 2113 409 
Q 2538 409 2786 701 
Q 3034 994 3034 1497 
Q 3034 2003 2786 2293 
Q 2538 2584 2113 2584 
z
M 3366 4563 
L 3366 3988 
Q 3128 4100 2886 4159 
Q 2644 4219 2406 4219 
Q 1781 4219 1451 3797 
Q 1122 3375 1075 2522 
Q 1259 2794 1537 2939 
Q 1816 3084 2150 3084 
Q 2853 3084 3261 2657 
Q 3669 2231 3669 1497 
Q 3669 778 3244 343 
Q 2819 -91 2113 -91 
Q 1303 -91 875 529 
Q 447 1150 447 2328 
Q 447 3434 972 4092 
Q 1497 4750 2381 4750 
Q 2619 4750 2861 4703 
Q 3103 4656 3366 4563 
z
" transform="scale(0.015625)"/>
      </defs>
      <use xlink:href="#DejaVuSans-31"/>
      <use xlink:href="#DejaVuSans-65" x="63.623047"/>
      <use xlink:href="#DejaVuSans-36" x="125.146484"/>
     </g>
    </g>
   </g>
   <g id="matplotlib.axis_2">
    <g id="ytick_1">
     <g id="line2d_9">
      <defs>
       <path id="mf56c0fb5a3" d="M 0 0 
L -3.5 0 
" style="stroke: #000000; stroke-width: 0.8"/>
      </defs>
      <g>
       <use xlink:href="#mf56c0fb5a3" x="57.6" y="295.488" style="stroke: #000000; stroke-width: 0.8"/>
      </g>
     </g>
     <g id="text_10">
      <!-- 0 -->
      <g transform="translate(44.2375 299.287219) scale(0.1 -0.1)">
       <use xlink:href="#DejaVuSans-30"/>
      </g>
     </g>
    </g>
    <g id="ytick_2">
     <g id="line2d_10">
      <g>
       <use xlink:href="#mf56c0fb5a3" x="57.6" y="253.777655" style="stroke: #000000; stroke-width: 0.8"/>
      </g>
     </g>
     <g id="text_11">
      <!-- 5 -->
      <g transform="translate(44.2375 257.576874) scale(0.1 -0.1)">
       <use xlink:href="#DejaVuSans-35"/>
      </g>
     </g>
    </g>
    <g id="ytick_3">
     <g id="line2d_11">
      <g>
       <use xlink:href="#mf56c0fb5a3" x="57.6" y="212.06731" style="stroke: #000000; stroke-width: 0.8"/>
      </g>
     </g>
     <g id="text_12">
      <!-- 10 -->
      <g transform="translate(37.875 215.866529) scale(0.1 -0.1)">
       <use xlink:href="#DejaVuSans-31"/>
       <use xlink:href="#DejaVuSans-30" x="63.623047"/>
      </g>
     </g>
    </g>
    <g id="ytick_4">
     <g id="line2d_12">
      <g>
       <use xlink:href="#mf56c0fb5a3" x="57.6" y="170.356966" style="stroke: #000000; stroke-width: 0.8"/>
      </g>
     </g>
     <g id="text_13">
      <!-- 15 -->
      <g transform="translate(37.875 174.156184) scale(0.1 -0.1)">
       <use xlink:href="#DejaVuSans-31"/>
       <use xlink:href="#DejaVuSans-35" x="63.623047"/>
      </g>
     </g>
    </g>
    <g id="ytick_5">
     <g id="line2d_13">
      <g>
       <use xlink:href="#mf56c0fb5a3" x="57.6" y="128.646621" style="stroke: #000000; stroke-width: 0.8"/>
      </g>
     </g>
     <g id="text_14">
      <!-- 20 -->
      <g transform="translate(37.875 132.445839) scale(0.1 -0.1)">
       <use xlink:href="#DejaVuSans-32"/>
       <use xlink:href="#DejaVuSans-30" x="63.623047"/>
      </g>
     </g>
    </g>
    <g id="ytick_6">
     <g id="line2d_14">
      <g>
       <use xlink:href="#mf56c0fb5a3" x="57.6" y="86.936276" style="stroke: #000000; stroke-width: 0.8"/>
      </g>
     </g>
     <g id="text_15">
      <!-- 25 -->
      <g transform="translate(37.875 90.735495) scale(0.1 -0.1)">
       <use xlink:href="#DejaVuSans-32"/>
       <use xlink:href="#DejaVuSans-35" x="63.623047"/>
      </g>
     </g>
    </g>
    <g id="ytick_7">
     <g id="line2d_15">
      <g>
       <use xlink:href="#mf56c0fb5a3" x="57.6" y="45.225931" style="stroke: #000000; stroke-width: 0.8"/>
      </g>
     </g>
     <g id="text_16">
      <!-- 30 -->
      <g transform="translate(37.875 49.02515) scale(0.1 -0.1)">
       <use xlink:href="#DejaVuSans-33"/>
       <use xlink:href="#DejaVuSans-30" x="63.623047"/>
      </g>
     </g>
    </g>
   </g>
   <g id="line2d_16">
    <path d="M 73.832727 287.145931 
L 74.022463 295.488 
L 74.14805 287.145931 
L 74.338689 295.488 
L 74.462468 287.145931 
L 74.653107 295.488 
L 74.777791 287.145931 
L 74.96843 295.488 
L 75.099437 287.145931 
L 75.290076 295.488 
L 75.41476 287.145931 
L 75.604495 295.488 
L 75.728275 287.145931 
L 75.918914 295.488 
L 76.042694 287.145931 
L 76.232429 295.488 
L 76.363437 287.145931 
L 76.554076 295.488 
L 76.682373 287.145931 
L 76.872109 295.488 
L 76.998599 287.145931 
L 77.189238 295.488 
L 77.315728 287.145931 
L 77.506367 295.488 
L 77.634665 287.145931 
L 77.825304 295.488 
L 77.954504 287.145931 
L 78.145143 295.488 
L 78.274344 287.145931 
L 78.464983 295.488 
L 78.586052 287.145931 
L 78.776691 295.488 
L 84.326905 287.145931 
L 84.448878 262.119724 
L 84.642228 228.751448 
L 84.832867 295.488 
L 84.916892 287.145931 
L 85.106628 295.488 
L 85.224987 287.145931 
L 85.415626 295.488 
L 85.541212 287.145931 
L 85.731851 295.488 
L 85.852921 287.145931 
L 86.04356 295.488 
L 86.171857 287.145931 
L 86.362496 295.488 
L 86.487179 287.145931 
L 86.677818 295.488 
L 86.802501 287.145931 
L 86.99314 295.488 
L 87.123245 287.145931 
L 87.313884 295.488 
L 87.434953 287.145931 
L 87.624689 295.488 
L 87.750275 287.145931 
L 87.940914 295.488 
L 88.060177 287.145931 
L 88.250816 295.488 
L 88.374595 287.145931 
L 88.565234 295.488 
L 88.695339 287.145931 
L 88.885978 295.488 
L 89.006143 287.145931 
L 89.196782 295.488 
L 89.317852 287.145931 
L 89.508491 295.488 
L 89.638595 287.145931 
L 89.829234 295.488 
L 89.958435 287.145931 
L 90.149074 295.488 
L 90.279178 287.145931 
L 90.469817 295.488 
L 90.587272 287.145931 
L 90.777911 295.488 
L 90.910726 287.145931 
L 91.101365 295.488 
L 91.225145 287.145931 
L 91.415784 295.488 
L 91.548599 287.145931 
L 91.739238 295.488 
L 91.863017 287.145931 
L 92.053656 295.488 
L 92.175629 287.145931 
L 92.366268 295.488 
L 92.486434 287.145931 
L 92.677073 295.488 
L 92.801756 287.145931 
L 92.991492 295.488 
L 93.117078 287.145931 
L 93.306814 295.488 
L 93.427883 287.145931 
L 93.618522 295.488 
L 93.742302 287.145931 
L 93.932941 295.488 
L 94.062142 287.145931 
L 94.252781 295.488 
L 94.381078 287.145931 
L 94.571717 295.488 
L 94.694593 287.145931 
L 94.885232 295.488 
L 95.009012 287.145931 
L 95.199651 295.488 
L 95.324334 287.145931 
L 95.514973 295.488 
L 95.643271 287.145931 
L 95.83391 295.488 
L 95.956786 287.145931 
L 96.147425 295.488 
L 96.274819 287.145931 
L 96.465458 295.488 
L 96.595562 287.145931 
L 96.786201 295.488 
L 96.906367 287.145931 
L 97.097006 295.488 
L 97.219882 287.145931 
L 97.409617 295.488 
L 97.535204 287.145931 
L 97.725843 295.488 
L 97.844202 287.145931 
L 98.165849 278.803862 
L 98.356488 295.488 
L 98.474847 287.145931 
L 98.665486 295.488 
L 98.7983 287.145931 
L 98.988939 295.488 
L 99.120851 287.145931 
L 99.31149 295.488 
L 99.442497 287.145931 
L 99.633136 295.488 
L 99.764144 287.145931 
L 99.954783 295.488 
L 100.077659 287.145931 
L 100.268298 295.488 
L 100.394789 287.145931 
L 100.584524 295.488 
L 100.715532 287.145931 
L 100.906171 295.488 
L 101.032661 287.145931 
L 101.2233 295.488 
L 101.347984 287.145931 
L 101.538623 295.488 
L 101.658788 287.145931 
L 101.849427 295.488 
L 101.973207 287.145931 
L 102.163846 295.488 
L 102.289433 287.145931 
L 102.480072 295.488 
L 102.604755 287.145931 
L 102.795394 295.488 
L 102.920981 287.145931 
L 103.11162 295.488 
L 103.237207 287.145931 
L 103.427846 295.488 
L 103.555239 287.145931 
L 103.745878 295.488 
L 103.871465 287.145931 
L 104.062104 295.488 
L 104.190402 287.145931 
L 104.38104 295.488 
L 104.506627 287.145931 
L 104.697266 295.488 
L 104.816529 287.145931 
L 105.007168 295.488 
L 105.135465 287.145931 
L 105.326104 295.488 
L 105.452594 287.145931 
L 105.643233 295.488 
L 105.767013 287.145931 
L 105.957652 295.488 
L 106.075107 287.145931 
L 106.265746 295.488 
L 106.39314 287.145931 
L 106.583779 295.488 
L 106.705752 287.145931 
L 106.896391 295.488 
L 107.021977 287.145931 
L 107.212616 295.488 
L 107.340914 287.145931 
L 107.531553 295.488 
L 107.656236 287.145931 
L 107.846875 295.488 
L 107.974269 287.145931 
L 108.164908 295.488 
L 108.287784 287.145931 
L 108.478423 295.488 
L 108.599492 287.145931 
L 108.790131 295.488 
L 108.911201 287.145931 
L 109.100936 295.488 
L 109.226523 287.145931 
L 109.416258 295.488 
L 109.539135 287.145931 
L 109.729774 295.488 
L 109.85536 287.145931 
L 110.045999 295.488 
L 110.173393 287.145931 
L 110.364032 295.488 
L 111.928898 287.145931 
L 112.11773 295.488 
L 112.154773 287.145931 
L 112.343605 295.488 
L 112.374325 287.145931 
L 112.563156 295.488 
L 112.598393 287.145931 
L 112.787225 295.488 
L 112.822462 287.145931 
L 113.011294 295.488 
L 113.050144 287.145931 
L 113.238976 295.488 
L 113.277827 287.145931 
L 113.466659 295.488 
L 113.501895 287.145931 
L 113.689824 295.488 
L 113.729578 287.145931 
L 113.917506 295.488 
L 113.952743 287.145931 
L 114.141575 295.488 
L 114.178618 287.145931 
L 114.36745 295.488 
L 114.406301 287.145931 
L 114.595133 295.488 
L 114.632177 287.145931 
L 114.820105 295.488 
L 114.863473 287.145931 
L 115.052305 295.488 
L 115.089349 287.145931 
L 115.278181 295.488 
L 115.316128 287.145931 
L 115.504056 295.488 
L 115.5411 287.145931 
L 115.729932 295.488 
L 115.762458 287.145931 
L 115.950386 295.488 
L 115.991044 287.145931 
L 116.179876 295.488 
L 116.213305 287.145931 
L 116.402137 295.488 
L 116.446409 287.145931 
L 116.634337 295.488 
L 116.671381 287.145931 
L 119.380081 187.041103 
L 119.818279 178.699034 
L 127.54503 187.041103 
L 127.656161 178.699034 
L 127.721213 187.041103 
L 127.737476 170.356966 
L 127.746511 170.356966 
L 127.921791 103.620414 
L 127.935343 111.962483 
L 128.182903 287.145931 
L 128.219946 278.803862 
L 128.407875 295.488 
L 128.438594 287.145931 
L 128.627426 295.488 
L 128.665373 287.145931 
L 128.853301 295.488 
L 128.891248 287.145931 
L 129.079177 295.488 
L 129.122545 287.145931 
L 129.311377 295.488 
L 129.352938 287.145931 
L 129.540867 295.488 
L 129.582428 287.145931 
L 129.770356 295.488 
L 129.805593 287.145931 
L 129.993521 295.488 
L 130.028758 287.145931 
L 130.216686 295.488 
L 130.254633 287.145931 
L 130.443465 295.488 
L 130.475991 287.145931 
L 130.66392 295.488 
L 130.700963 287.145931 
L 130.888892 295.488 
L 130.931356 287.145931 
L 131.120188 295.488 
L 131.156328 287.145931 
L 131.344257 295.488 
L 131.382204 287.145931 
L 131.571036 295.488 
L 131.608983 287.145931 
L 131.796912 295.488 
L 131.835762 287.145931 
L 132.023691 295.488 
L 132.060734 287.145931 
L 132.249566 295.488 
L 132.288417 287.145931 
L 132.476345 295.488 
L 132.513389 287.145931 
L 132.701317 295.488 
L 132.739264 287.145931 
L 132.928096 295.488 
L 132.966947 287.145931 
L 135.689199 187.041103 
L 136.12288 178.699034 
L 143.80807 187.041103 
L 143.917394 178.699034 
L 143.958051 178.699034 
L 143.985156 187.041103 
L 144.018586 162.014897 
L 144.193865 103.620414 
L 144.197479 111.962483 
L 144.368241 237.093517 
L 144.454074 295.488 
L 144.506477 287.145931 
L 144.695309 295.488 
L 144.728739 287.145931 
L 144.917571 295.488 
L 144.955518 287.145931 
L 145.143446 295.488 
L 145.179586 287.145931 
L 145.368418 295.488 
L 145.400944 287.145931 
L 145.589776 295.488 
L 145.62682 287.145931 
L 145.814748 295.488 
L 145.856309 287.145931 
L 146.044238 295.488 
L 146.080378 287.145931 
L 146.26921 295.488 
L 146.301736 287.145931 
L 146.489664 295.488 
L 146.522191 287.145931 
L 146.711022 295.488 
L 146.749873 287.145931 
L 146.937802 295.488 
L 146.975749 287.145931 
L 147.163677 295.488 
L 147.19801 287.145931 
L 147.386842 295.488 
L 147.423886 287.145931 
L 147.612718 295.488 
L 147.647954 287.145931 
L 147.836786 295.488 
L 147.87383 287.145931 
L 148.061758 295.488 
L 148.097898 287.145931 
L 148.285827 295.488 
L 148.32287 287.145931 
L 148.511702 295.488 
L 148.545132 287.145931 
L 148.733964 295.488 
L 148.775525 287.145931 
L 148.964357 295.488 
L 149.005015 287.145931 
L 149.193847 295.488 
L 149.229987 287.145931 
L 152.167272 178.699034 
L 154.650096 187.041103 
L 154.760324 178.699034 
L 154.845253 212.06731 
L 154.870551 203.725241 
L 154.967226 212.06731 
L 155.062997 287.145931 
L 155.095523 278.803862 
L 155.284355 295.488 
L 155.317785 287.145931 
L 155.506617 295.488 
L 155.544564 287.145931 
L 155.732492 295.488 
L 155.776764 287.145931 
L 155.964692 295.488 
L 155.999025 287.145931 
L 156.187857 295.488 
L 156.230322 287.145931 
L 156.419154 295.488 
L 156.456197 287.145931 
L 156.645029 295.488 
L 156.679362 287.145931 
L 156.867291 295.488 
L 156.907948 287.145931 
L 157.095877 295.488 
L 157.134727 287.145931 
L 157.323559 295.488 
L 157.365121 287.145931 
L 157.553049 295.488 
L 157.586479 287.145931 
L 157.775311 295.488 
L 157.811451 287.145931 
L 157.999379 295.488 
L 158.037326 287.145931 
L 158.225255 295.488 
L 158.264105 287.145931 
L 158.490884 278.803862 
L 158.648094 287.145931 
L 158.679716 295.488 
L 158.714953 287.145931 
L 158.902881 295.488 
L 158.942635 287.145931 
L 159.131467 295.488 
L 159.166704 287.145931 
L 159.354632 295.488 
L 159.393483 287.145931 
L 159.581411 295.488 
L 159.619359 287.145931 
L 159.808191 295.488 
L 159.845234 287.145931 
L 160.034066 295.488 
L 165.49393 287.145931 
L 165.702639 278.803862 
L 165.864366 178.699034 
L 176.331439 170.356966 
L 176.438052 187.041103 
L 176.438956 178.699034 
L 176.504911 187.041103 
L 176.519367 170.356966 
L 176.53292 170.356966 
L 176.704585 103.620414 
L 176.978347 295.488 
L 176.99461 287.145931 
L 177.182538 295.488 
L 177.225906 287.145931 
L 177.414738 295.488 
L 177.456299 287.145931 
L 177.645131 295.488 
L 177.683078 287.145931 
L 177.871007 295.488 
L 177.914375 287.145931 
L 178.103207 295.488 
L 178.138443 287.145931 
L 178.327275 295.488 
L 178.367029 287.145931 
L 178.554958 295.488 
L 178.592905 287.145931 
L 178.781737 295.488 
L 178.818781 287.145931 
L 179.007612 295.488 
L 179.047367 287.145931 
L 179.235295 295.488 
L 179.275953 287.145931 
L 179.463881 295.488 
L 179.501828 287.145931 
L 179.69066 295.488 
L 179.730414 287.145931 
L 179.918343 295.488 
L 179.951772 287.145931 
L 180.139701 295.488 
L 180.183069 287.145931 
L 180.371901 295.488 
L 180.403523 287.145931 
L 180.591452 295.488 
L 180.630302 287.145931 
L 180.819134 295.488 
L 180.854371 287.145931 
L 181.042299 295.488 
L 181.076633 287.145931 
L 181.265465 295.488 
L 181.302508 287.145931 
L 181.490437 295.488 
L 181.528384 287.145931 
L 181.717216 295.488 
L 181.753356 287.145931 
L 181.942188 295.488 
L 181.980135 287.145931 
L 182.168967 295.488 
L 182.205107 287.145931 
L 182.393035 295.488 
L 182.431886 287.145931 
L 182.620718 295.488 
L 182.661375 287.145931 
L 182.849304 295.488 
L 182.886347 287.145931 
L 183.074276 295.488 
L 183.113127 287.145931 
L 183.301055 295.488 
L 183.337195 287.145931 
L 183.525124 295.488 
L 183.561264 287.145931 
L 183.749192 295.488 
L 183.788043 287.145931 
L 183.975971 295.488 
L 185.043007 287.145931 
L 185.233646 295.488 
L 185.354716 287.145931 
L 185.545354 295.488 
L 185.674555 287.145931 
L 185.865194 295.488 
L 185.989878 287.145931 
L 186.180517 295.488 
L 186.302489 287.145931 
L 186.493128 295.488 
L 186.620522 287.145931 
L 186.811161 295.488 
L 186.940362 287.145931 
L 187.131001 295.488 
L 187.25207 287.145931 
L 187.442709 295.488 
L 187.560164 287.145931 
L 187.750803 295.488 
L 187.87368 287.145931 
L 188.063415 295.488 
L 188.189905 287.145931 
L 188.380544 295.488 
L 188.509745 287.145931 
L 188.700384 295.488 
L 188.825067 287.145931 
L 189.015706 295.488 
L 189.151232 287.145931 
L 189.341871 295.488 
L 189.468361 287.145931 
L 189.659 295.488 
L 189.780069 287.145931 
L 189.970708 295.488 
L 190.099909 287.145931 
L 190.290548 295.488 
L 190.412521 287.145931 
L 190.60316 295.488 
L 190.732361 287.145931 
L 190.922096 295.488 
L 191.044972 287.145931 
L 191.235611 295.488 
L 191.363005 287.145931 
L 191.552741 295.488 
L 191.681038 287.145931 
L 191.871677 295.488 
L 192.000878 287.145931 
L 192.191517 295.488 
L 192.321621 287.145931 
L 192.51226 295.488 
L 192.636943 287.145931 
L 192.827582 295.488 
L 192.950459 287.145931 
L 193.141098 295.488 
L 193.265781 287.145931 
L 193.455516 295.488 
L 193.572972 287.145931 
L 193.763611 295.488 
L 193.883776 287.145931 
L 194.074415 295.488 
L 194.194581 287.145931 
L 194.38522 295.488 
L 194.516228 287.145931 
L 194.706867 295.488 
L 194.836068 287.145931 
L 195.026707 295.488 
L 195.150486 287.145931 
L 195.341125 295.488 
L 195.467616 287.145931 
L 195.658255 295.488 
L 195.792877 287.145931 
L 195.983515 295.488 
L 196.110909 287.145931 
L 196.301548 295.488 
L 196.422618 287.145931 
L 196.613257 295.488 
L 196.733422 287.145931 
L 196.924061 295.488 
L 197.050552 287.145931 
L 197.241191 295.488 
L 197.364067 287.145931 
L 197.553802 295.488 
L 197.68481 287.145931 
L 197.874546 295.488 
L 198.001036 287.145931 
L 198.191675 295.488 
L 203.665995 287.145931 
L 203.85573 295.488 
L 204.013843 253.777655 
L 204.125877 237.093517 
L 204.147561 245.435586 
L 204.316516 295.488 
L 204.327358 287.145931 
L 204.517997 295.488 
L 204.635453 287.145931 
L 204.826092 295.488 
L 204.957099 287.145931 
L 205.146835 295.488 
L 205.275132 287.145931 
L 205.465771 295.488 
L 205.587744 287.145931 
L 205.778383 295.488 
L 205.898549 287.145931 
L 206.088284 295.488 
L 206.219292 287.145931 
L 206.409931 295.488 
L 206.529193 287.145931 
L 206.719832 295.488 
L 206.847226 287.145931 
L 207.037865 295.488 
L 207.163452 287.145931 
L 207.354091 295.488 
L 207.481485 287.145931 
L 207.672124 295.488 
L 207.802228 287.145931 
L 207.992867 295.488 
L 208.110322 287.145931 
L 208.300961 295.488 
L 208.418416 287.145931 
L 208.609055 295.488 
L 208.737353 287.145931 
L 208.927992 295.488 
L 209.051771 287.145931 
L 209.24241 295.488 
L 209.362576 287.145931 
L 209.553215 295.488 
L 209.67067 287.145931 
L 209.861309 295.488 
L 209.988703 287.145931 
L 210.178439 295.488 
L 210.313964 287.145931 
L 210.504603 295.488 
L 210.622058 287.145931 
L 210.812697 295.488 
L 210.943705 287.145931 
L 211.133441 295.488 
L 211.25722 287.145931 
L 211.447859 295.488 
L 211.567122 287.145931 
L 211.757761 295.488 
L 211.879733 287.145931 
L 212.070372 295.488 
L 212.197766 287.145931 
L 212.388405 295.488 
L 212.514895 287.145931 
L 212.705534 295.488 
L 212.829314 287.145931 
L 213.019953 295.488 
L 213.150961 287.145931 
L 213.3416 295.488 
L 213.468994 287.145931 
L 213.659633 295.488 
L 213.788834 287.145931 
L 213.979473 295.488 
L 214.108673 287.145931 
L 214.299312 295.488 
L 214.425803 287.145931 
L 214.616442 295.488 
L 214.742028 287.145931 
L 214.931764 295.488 
L 215.066386 287.145931 
L 215.257025 295.488 
L 215.37448 287.145931 
L 215.565119 295.488 
L 215.695223 287.145931 
L 215.885862 295.488 
L 216.009642 287.145931 
L 216.200281 295.488 
L 216.325868 287.145931 
L 216.515603 295.488 
L 216.640287 287.145931 
L 216.830925 295.488 
L 216.955609 287.145931 
L 217.146248 295.488 
L 217.271835 287.145931 
L 217.462474 295.488 
L 217.592578 287.145931 
L 217.783217 295.488 
L 217.912418 287.145931 
L 218.103057 295.488 
L 218.231354 287.145931 
L 218.421993 295.488 
L 218.540352 287.145931 
L 218.730991 295.488 
L 218.861095 287.145931 
L 219.051734 295.488 
L 219.170996 287.145931 
L 219.361635 295.488 
L 219.489932 287.145931 
L 219.679668 295.488 
L 219.798027 287.145931 
L 219.988666 295.488 
L 220.113349 287.145931 
L 220.303988 295.488 
L 220.425057 287.145931 
L 220.615696 295.488 
L 220.734959 287.145931 
L 220.925597 295.488 
L 221.060219 287.145931 
L 221.250858 295.488 
L 221.371928 287.145931 
L 221.562567 295.488 
L 221.692671 287.145931 
L 221.88331 295.488 
L 223.362343 287.145931 
L 223.543947 278.803862 
L 223.550271 287.145931 
L 223.72284 278.803862 
L 223.731875 287.145931 
L 223.903541 278.803862 
L 223.910769 287.145931 
L 224.086048 278.803862 
L 224.091469 287.145931 
L 224.264038 278.803862 
L 224.273977 287.145931 
L 224.444739 278.803862 
L 224.451967 287.145931 
L 224.624536 278.803862 
L 224.632667 287.145931 
L 224.805236 278.803862 
L 224.812464 287.145931 
L 224.985033 278.803862 
L 224.994068 287.145931 
L 225.169347 278.803862 
L 225.172961 287.145931 
L 225.350951 278.803862 
L 225.357276 287.145931 
L 225.530748 278.803862 
L 225.53888 287.145931 
L 225.712352 278.803862 
L 225.718677 287.145931 
L 225.890342 278.803862 
L 225.901184 287.145931 
L 226.070139 278.803862 
L 226.078271 287.145931 
L 226.25084 278.803862 
L 226.258068 287.145931 
L 226.433347 278.803862 
L 226.439671 287.145931 
L 226.613144 278.803862 
L 226.622179 287.145931 
L 226.791134 278.803862 
L 226.801072 287.145931 
L 226.974545 278.803862 
L 226.979062 287.145931 
L 227.157052 278.803862 
L 227.163377 287.145931 
L 227.337753 278.803862 
L 227.344981 287.145931 
L 227.513936 278.803862 
L 227.525681 287.145931 
L 227.693733 278.803862 
L 227.701864 287.145931 
L 227.875336 278.803862 
L 227.881661 287.145931 
L 228.050616 278.803862 
L 228.063265 287.145931 
L 228.231316 278.803862 
L 228.239448 287.145931 
L 228.413824 278.803862 
L 228.419245 287.145931 
L 228.597235 278.803862 
L 228.601752 287.145931 
L 228.781549 278.803862 
L 228.785163 287.145931 
L 228.958636 278.803862 
L 228.969478 287.145931 
L 229.14024 278.803862 
L 229.146564 287.145931 
L 229.32094 278.803862 
L 229.328168 287.145931 
L 229.500737 278.803862 
L 229.508868 287.145931 
L 229.682341 278.803862 
L 229.688665 287.145931 
L 229.859427 278.803862 
L 229.871173 287.145931 
L 230.041031 278.803862 
L 230.047356 287.145931 
L 230.222635 278.803862 
L 230.229863 287.145931 
L 230.404239 278.803862 
L 230.410564 287.145931 
L 230.592168 295.488 
L 236.002339 287.145931 
L 236.174908 278.803862 
L 236.380003 136.98869 
L 236.432406 162.014897 
L 236.698036 287.145931 
L 236.870604 278.803862 
L 236.878736 287.145931 
L 237.048594 278.803862 
L 237.058533 287.145931 
L 237.230198 278.803862 
L 237.236523 287.145931 
L 237.409092 278.803862 
L 237.418127 287.145931 
L 237.586178 278.803862 
L 237.59702 287.145931 
L 237.762361 278.803862 
L 237.774107 287.145931 
L 237.944869 278.803862 
L 237.95029 287.145931 
L 238.126473 278.803862 
L 238.132797 287.145931 
L 238.303559 278.803862 
L 238.315305 287.145931 
L 238.486066 278.803862 
L 238.491487 287.145931 
L 238.665863 278.803862 
L 238.673995 287.145931 
L 238.842046 278.803862 
L 238.854695 287.145931 
L 239.021843 278.803862 
L 239.029975 287.145931 
L 239.19893 278.803862 
L 239.209772 287.145931 
L 239.37963 278.803862 
L 239.387762 287.145931 
L 239.559427 278.803862 
L 239.568462 287.145931 
L 239.745549 278.803862 
L 239.748259 287.145931 
L 239.926249 278.803862 
L 239.933477 287.145931 
L 240.105142 278.803862 
L 240.114177 287.145931 
L 240.282229 278.803862 
L 240.293071 287.145931 
L 240.462026 278.803862 
L 240.471061 287.145931 
L 240.638209 278.803862 
L 240.650858 287.145931 
L 240.818006 278.803862 
L 240.827041 287.145931 
L 241.004127 278.803862 
L 241.006838 287.145931 
L 241.188442 278.803862 
L 241.192056 287.145931 
L 241.369142 278.803862 
L 241.37637 287.145931 
L 241.549842 278.803862 
L 241.55707 287.145931 
L 241.730543 278.803862 
L 241.737771 287.145931 
L 241.91305 278.803862 
L 241.918471 287.145931 
L 242.096461 278.803862 
L 242.100979 287.145931 
L 242.276258 278.803862 
L 242.28439 287.145931 
L 242.453345 278.803862 
L 242.464187 287.145931 
L 242.634949 278.803862 
L 242.642177 287.145931 
L 242.816553 278.803862 
L 242.822877 287.145931 
L 242.998156 278.803862 
L 243.005384 287.145931 
L 243.362268 270.461793 
L 243.383048 287.145931 
L 243.539354 278.803862 
L 243.5511 287.145931 
L 243.720958 278.803862 
L 243.728186 287.145931 
L 243.904369 278.803862 
L 243.90979 287.145931 
L 244.267577 270.461793 
L 244.289261 287.145931 
L 244.450085 278.803862 
L 244.455506 287.145931 
L 244.633495 278.803862 
L 244.638916 287.145931 
L 244.812389 278.803862 
L 244.822327 287.145931 
L 244.996703 278.803862 
L 245.000317 287.145931 
L 245.174693 278.803862 
L 245.184632 287.145931 
L 245.352683 278.803862 
L 245.362622 287.145931 
L 245.528866 278.803862 
L 245.540612 287.145931 
L 245.709567 278.803862 
L 245.716795 287.145931 
L 245.893881 278.803862 
L 245.898399 287.145931 
L 246.075485 278.803862 
L 246.08181 287.145931 
L 246.258896 278.803862 
L 246.263413 287.145931 
L 246.435079 278.803862 
L 246.446824 287.145931 
L 246.612165 278.803862 
L 246.623911 287.145931 
L 246.790155 278.803862 
L 246.800997 287.145931 
L 246.970856 278.803862 
L 246.978084 287.145931 
L 247.150653 278.803862 
L 247.158784 287.145931 
L 247.331353 278.803862 
L 247.338581 287.145931 
L 247.50844 278.803862 
L 247.519282 287.145931 
L 247.68914 278.803862 
L 247.697271 287.145931 
L 247.868033 278.803862 
L 247.877972 287.145931 
L 248.04512 278.803862 
L 248.055962 287.145931 
L 248.226724 278.803862 
L 248.233952 287.145931 
L 248.410135 278.803862 
L 248.415556 287.145931 
L 248.594449 278.803862 
L 248.598063 287.145931 
L 248.776957 278.803862 
L 248.782378 287.145931 
L 248.956754 278.803862 
L 248.964885 287.145931 
L 249.138357 278.803862 
L 249.145586 287.145931 
L 249.317251 278.803862 
L 249.326286 287.145931 
L 249.499758 278.803862 
L 249.506083 287.145931 
L 249.681362 278.803862 
L 249.687687 287.145931 
L 249.862966 278.803862 
L 249.869291 287.145931 
L 250.042763 278.803862 
L 250.051798 287.145931 
L 250.22256 278.803862 
L 250.230692 287.145931 
L 250.408682 278.803862 
L 250.410489 287.145931 
L 250.587575 278.803862 
L 250.59661 287.145931 
L 250.766468 278.803862 
L 250.776407 287.145931 
L 250.950783 278.803862 
L 250.954397 287.145931 
L 251.132387 278.803862 
L 251.139615 287.145931 
L 251.316701 278.803862 
L 251.320315 287.145931 
L 251.495595 278.803862 
L 251.505533 287.145931 
L 251.672681 278.803862 
L 251.683523 287.145931 
L 251.851575 278.803862 
L 251.86061 287.145931 
L 252.031372 278.803862 
L 252.039503 287.145931 
L 252.214783 278.803862 
L 252.220204 287.145931 
L 252.39729 278.803862 
L 252.402711 287.145931 
L 252.581604 278.803862 
L 252.585218 287.145931 
L 252.759594 278.803862 
L 252.769533 287.145931 
L 252.940295 278.803862 
L 252.948426 287.145931 
L 253.125513 278.803862 
L 253.128223 287.145931 
L 253.309827 278.803862 
L 253.313441 287.145931 
L 253.488721 278.803862 
L 253.498659 287.145931 
L 253.667614 278.803862 
L 253.677553 287.145931 
L 253.848315 278.803862 
L 253.855543 287.145931 
L 254.029015 278.803862 
L 254.036243 287.145931 
L 254.206101 278.803862 
L 254.216943 287.145931 
L 254.384091 278.803862 
L 254.39403 287.145931 
L 254.566599 278.803862 
L 254.572923 287.145931 
L 254.746396 278.803862 
L 254.754527 287.145931 
L 254.928 278.803862 
L 254.934324 287.145931 
L 255.107797 278.803862 
L 255.115928 287.145931 
L 255.284883 278.803862 
L 255.295725 287.145931 
L 255.461066 278.803862 
L 255.472811 287.145931 
L 255.644477 278.803862 
L 255.648994 287.145931 
L 255.826984 278.803862 
L 255.832405 287.145931 
L 256.008588 278.803862 
L 256.014913 287.145931 
L 256.183868 278.803862 
L 256.196517 287.145931 
L 256.368182 278.803862 
L 256.371796 287.145931 
L 256.549786 278.803862 
L 256.556111 287.145931 
L 256.725066 278.803862 
L 256.737715 287.145931 
L 256.904862 278.803862 
L 256.912994 287.145931 
L 257.082852 278.803862 
L 257.092791 287.145931 
L 257.26536 278.803862 
L 257.271684 287.145931 
L 257.442446 278.803862 
L 257.454192 287.145931 
L 257.623147 278.803862 
L 257.630375 287.145931 
L 257.803847 278.803862 
L 257.811979 287.145931 
L 257.983644 278.803862 
L 257.991776 287.145931 
L 258.163441 278.803862 
L 258.171573 287.145931 
L 258.341431 278.803862 
L 258.352273 287.145931 
L 258.522131 278.803862 
L 258.529359 287.145931 
L 258.706446 278.803862 
L 258.71006 287.145931 
L 258.885339 278.803862 
L 258.894374 287.145931 
L 259.06875 278.803862 
L 259.073268 287.145931 
L 259.247644 278.803862 
L 259.256679 287.145931 
L 259.427441 278.803862 
L 259.435572 287.145931 
L 259.609948 278.803862 
L 259.615369 287.145931 
L 259.789745 278.803862 
L 259.797877 287.145931 
L 259.974059 278.803862 
L 259.977673 287.145931 
L 260.15476 278.803862 
L 260.161988 287.145931 
L 260.339978 278.803862 
L 260.342688 287.145931 
L 260.522485 278.803862 
L 260.527906 287.145931 
L 260.704993 278.803862 
L 260.710414 287.145931 
L 260.888404 278.803862 
L 260.892921 287.145931 
L 261.06549 278.803862 
L 261.076332 287.145931 
L 261.246191 278.803862 
L 261.253419 287.145931 
L 261.425084 278.803862 
L 261.435023 287.145931 
L 261.608495 278.803862 
L 261.613012 287.145931 
L 261.789195 278.803862 
L 261.797327 287.145931 
L 261.974413 278.803862 
L 261.978027 287.145931 
L 262.153307 278.803862 
L 262.162342 287.145931 
L 262.334911 278.803862 
L 262.341235 287.145931 
L 262.513804 278.803862 
L 262.522839 287.145931 
L 262.693601 278.803862 
L 262.701733 287.145931 
L 262.875205 278.803862 
L 262.882433 287.145931 
L 263.05952 278.803862 
L 263.063134 287.145931 
L 265.941692 153.672828 
L 273.907871 145.330759 
L 274.019905 153.672828 
L 274.183439 78.594207 
L 274.301798 53.568 
L 274.306315 61.910069 
L 274.424674 187.041103 
L 274.59905 287.145931 
L 274.768908 278.803862 
L 274.777943 287.145931 
L 274.948705 278.803862 
L 274.956837 287.145931 
L 275.130309 278.803862 
L 275.136634 287.145931 
L 275.310106 278.803862 
L 275.318238 287.145931 
L 275.488096 278.803862 
L 275.498034 287.145931 
L 275.668796 278.803862 
L 275.676024 287.145931 
L 275.849497 278.803862 
L 275.856725 287.145931 
L 276.034715 278.803862 
L 276.037425 287.145931 
L 276.218126 278.803862 
L 276.223547 287.145931 
L 276.400633 278.803862 
L 276.406054 287.145931 
L 276.57772 278.803862 
L 276.588562 287.145931 
L 276.75842 278.803862 
L 276.765648 287.145931 
L 276.93912 278.803862 
L 276.946348 287.145931 
L 277.119821 278.803862 
L 277.127049 287.145931 
L 277.300521 278.803862 
L 277.307749 287.145931 
L 277.480318 278.803862 
L 277.48845 287.145931 
L 277.661922 278.803862 
L 277.668247 287.145931 
L 277.845333 278.803862 
L 277.850754 287.145931 
L 278.023323 278.803862 
L 278.033262 287.145931 
L 278.206734 278.803862 
L 278.211252 287.145931 
L 278.390145 278.803862 
L 278.394663 287.145931 
L 278.569038 278.803862 
L 278.578073 287.145931 
L 278.745221 278.803862 
L 278.756967 287.145931 
L 278.925922 278.803862 
L 278.93315 287.145931 
L 279.103912 278.803862 
L 279.114754 287.145931 
L 279.286419 278.803862 
L 279.29184 287.145931 
L 279.468023 278.803862 
L 279.474348 287.145931 
L 279.653241 278.803862 
L 279.655952 287.145931 
L 279.830328 278.803862 
L 279.84117 287.145931 
L 280.011028 278.803862 
L 280.018256 287.145931 
L 280.188114 278.803862 
L 280.198956 287.145931 
L 280.370622 278.803862 
L 280.376043 287.145931 
L 280.553129 278.803862 
L 280.55855 287.145931 
L 280.739251 278.803862 
L 280.741058 287.145931 
L 280.919048 278.803862 
L 280.927179 287.145931 
L 281.098845 278.803862 
L 281.106976 287.145931 
L 281.281352 278.803862 
L 281.286773 287.145931 
L 281.46657 278.803862 
L 281.470184 287.145931 
L 281.646367 278.803862 
L 281.654499 287.145931 
L 281.829778 278.803862 
L 281.834295 287.145931 
L 282.011382 278.803862 
L 282.017706 287.145931 
L 282.187565 278.803862 
L 282.19931 287.145931 
L 282.367362 278.803862 
L 282.375493 287.145931 
L 282.547159 278.803862 
L 282.55529 287.145931 
L 282.728763 278.803862 
L 282.735087 287.145931 
L 282.907656 278.803862 
L 282.916691 287.145931 
L 283.087453 278.803862 
L 283.095585 287.145931 
L 283.26725 278.803862 
L 283.276285 287.145931 
L 283.44795 278.803862 
L 283.455178 287.145931 
L 283.632265 278.803862 
L 283.635879 287.145931 
L 283.810255 278.803862 
L 283.820193 287.145931 
L 283.987341 278.803862 
L 283.999087 287.145931 
L 284.168042 278.803862 
L 284.17527 287.145931 
L 284.349646 278.803862 
L 284.35597 287.145931 
L 284.530346 278.803862 
L 284.537574 287.145931 
L 284.709239 278.803862 
L 284.719178 287.145931 
L 284.898071 295.488 
L 290.31005 287.145931 
L 290.395882 270.461793 
L 290.567548 136.98869 
L 290.694942 145.330759 
L 301.021972 153.672828 
L 301.160208 145.330759 
L 301.272242 153.672828 
L 301.27947 145.330759 
L 301.352654 187.041103 
L 301.358075 178.699034 
L 301.465591 145.330759 
L 301.495407 162.014897 
L 301.70773 245.435586 
L 301.846869 287.145931 
L 301.997754 295.488 
L 302.120631 287.145931 
L 302.31127 295.488 
L 302.436856 287.145931 
L 302.627495 295.488 
L 302.744951 287.145931 
L 302.93559 295.488 
L 303.059369 287.145931 
L 303.249105 295.488 
L 303.371981 287.145931 
L 303.561717 295.488 
L 303.690014 287.145931 
L 303.879749 295.488 
L 304.005336 287.145931 
L 304.195072 295.488 
L 304.322465 287.145931 
L 304.513104 295.488 
L 304.635077 287.145931 
L 304.824813 295.488 
L 304.952206 287.145931 
L 305.141942 295.488 
L 305.265722 287.145931 
L 305.456361 295.488 
L 305.57472 287.145931 
L 305.89727 278.803862 
L 306.087909 295.488 
L 306.210785 287.145931 
L 306.401424 295.488 
L 306.523397 287.145931 
L 306.714036 295.488 
L 306.84143 287.145931 
L 307.032069 295.488 
L 307.161269 287.145931 
L 307.351908 295.488 
L 307.475688 287.145931 
L 307.666327 295.488 
L 307.798238 287.145931 
L 307.988877 295.488 
L 308.111754 287.145931 
L 308.301489 295.488 
L 308.428883 287.145931 
L 308.619522 295.488 
L 308.745109 287.145931 
L 308.935748 295.488 
L 309.060431 287.145931 
L 309.25107 295.488 
L 309.370332 287.145931 
L 309.560971 295.488 
L 309.686558 287.145931 
L 309.877197 295.488 
L 310.004591 287.145931 
L 310.19523 295.488 
L 310.322624 287.145931 
L 310.513263 295.488 
L 310.640656 287.145931 
L 310.831295 295.488 
L 310.957786 287.145931 
L 311.148425 295.488 
L 311.267687 287.145931 
L 311.458326 295.488 
L 311.584816 287.145931 
L 311.775455 295.488 
L 311.894717 287.145931 
L 312.085356 295.488 
L 312.211847 287.145931 
L 312.402486 295.488 
L 312.53259 287.145931 
L 312.723229 295.488 
L 312.853333 287.145931 
L 313.043972 295.488 
L 313.174077 287.145931 
L 313.364716 295.488 
L 313.499337 287.145931 
L 313.689976 295.488 
L 313.818274 287.145931 
L 314.008913 295.488 
L 314.134499 287.145931 
L 314.325138 295.488 
L 314.444401 287.145931 
L 314.63504 295.488 
L 314.762433 287.145931 
L 315.075949 278.803862 
L 315.266588 295.488 
L 315.395789 287.145931 
L 315.586427 295.488 
L 315.716532 287.145931 
L 315.906267 295.488 
L 316.02553 287.145931 
L 316.216169 295.488 
L 316.34808 287.145931 
L 316.537815 295.488 
L 316.667016 287.145931 
L 316.857655 295.488 
L 316.979628 287.145931 
L 317.170267 295.488 
L 317.296757 287.145931 
L 317.487396 295.488 
L 317.609369 287.145931 
L 317.800008 295.488 
L 317.931016 287.145931 
L 318.120751 295.488 
L 318.248145 287.145931 
L 318.438784 295.488 
L 318.567081 287.145931 
L 318.75772 295.488 
L 318.886921 287.145931 
L 319.203147 278.803862 
L 319.393786 295.488 
L 319.524794 287.145931 
L 319.715433 295.488 
L 319.841923 287.145931 
L 320.032562 295.488 
L 320.162666 287.145931 
L 320.353305 295.488 
L 320.477988 287.145931 
L 320.668627 295.488 
L 320.789697 287.145931 
L 320.980336 295.488 
L 321.101405 287.145931 
L 321.292044 295.488 
L 321.417631 287.145931 
L 321.60827 295.488 
L 321.73205 287.145931 
L 322.044661 278.803862 
L 322.234397 295.488 
L 322.358177 287.145931 
L 322.548816 295.488 
L 322.675306 287.145931 
L 322.865945 295.488 
L 322.996049 287.145931 
L 323.186688 295.488 
L 323.315889 287.145931 
L 323.506528 295.488 
L 323.634825 287.145931 
L 323.825464 295.488 
L 323.954665 287.145931 
L 324.145304 295.488 
L 324.276312 287.145931 
L 324.466951 295.488 
L 324.598862 287.145931 
L 324.789501 295.488 
L 324.920509 287.145931 
L 325.110244 295.488 
L 325.233121 287.145931 
L 325.42376 295.488 
L 325.546636 287.145931 
L 325.737275 295.488 
L 325.863765 287.145931 
L 326.054404 295.488 
L 326.17457 287.145931 
L 326.365209 295.488 
L 326.485375 287.145931 
L 326.676014 295.488 
L 326.797986 287.145931 
L 326.987722 295.488 
L 327.120537 287.145931 
L 327.311176 295.488 
L 327.443087 287.145931 
L 327.633726 295.488 
L 327.762927 287.145931 
L 327.952662 295.488 
L 328.078249 287.145931 
L 328.267985 295.488 
L 328.395378 287.145931 
L 328.586017 295.488 
L 328.717025 287.145931 
L 328.907664 295.488 
L 329.036865 287.145931 
L 329.227504 295.488 
L 329.353994 287.145931 
L 329.544633 295.488 
L 329.665702 287.145931 
L 329.855438 295.488 
L 329.984639 287.145931 
L 330.175278 295.488 
L 330.301768 287.145931 
L 330.491503 295.488 
L 330.621608 287.145931 
L 330.812247 295.488 
L 330.942351 287.145931 
L 331.13299 295.488 
L 331.255866 287.145931 
L 331.446505 295.488 
L 331.572996 287.145931 
L 331.763635 295.488 
L 333.223694 287.145931 
L 333.411623 295.488 
L 333.450473 287.145931 
L 333.638402 295.488 
L 333.679059 287.145931 
L 333.866988 295.488 
L 333.904031 287.145931 
L 334.09196 295.488 
L 334.1281 287.145931 
L 334.316932 295.488 
L 334.358493 287.145931 
L 334.546421 295.488 
L 334.584368 287.145931 
L 334.772297 295.488 
L 334.814762 287.145931 
L 335.00269 295.488 
L 335.037023 287.145931 
L 335.225855 295.488 
L 335.261092 287.145931 
L 335.449924 295.488 
L 335.488774 287.145931 
L 335.677606 295.488 
L 335.715553 287.145931 
L 335.903482 295.488 
L 335.939622 287.145931 
L 336.12755 295.488 
L 336.166401 287.145931 
L 336.355233 295.488 
L 336.394083 287.145931 
L 336.582012 295.488 
L 336.619055 287.145931 
L 336.807887 295.488 
L 336.845834 287.145931 
L 337.033763 295.488 
L 337.069 287.145931 
L 337.257831 295.488 
L 337.295779 287.145931 
L 337.484611 295.488 
L 337.518944 287.145931 
L 337.707776 295.488 
L 337.743916 287.145931 
L 337.932748 295.488 
L 337.968888 287.145931 
L 338.156816 295.488 
L 338.192053 287.145931 
L 338.379981 295.488 
L 338.418832 287.145931 
L 338.607664 295.488 
L 338.6429 287.145931 
L 338.830829 295.488 
L 338.863355 287.145931 
L 341.558502 187.041103 
L 341.990376 178.699034 
L 349.806574 187.041103 
L 349.989081 295.488 
L 355.230297 287.145931 
L 355.588084 95.278345 
L 355.613382 111.962483 
L 355.807635 178.699034 
L 360.654021 187.041103 
L 360.785029 178.699034 
L 360.798582 170.356966 
L 360.809424 187.041103 
L 360.878993 178.699034 
L 360.959405 187.041103 
L 360.974764 170.356966 
L 360.978378 178.699034 
L 361.177149 103.620414 
L 361.375919 287.145931 
L 361.422902 295.488 
L 361.462656 287.145931 
L 361.650584 295.488 
L 361.686724 287.145931 
L 361.875556 295.488 
L 361.918924 287.145931 
L 362.106853 295.488 
L 362.142089 287.145931 
L 362.330018 295.488 
L 362.365254 287.145931 
L 362.553183 295.488 
L 362.594744 287.145931 
L 362.783576 295.488 
L 362.82062 287.145931 
L 363.008548 295.488 
L 363.045592 287.145931 
L 363.23352 295.488 
L 363.272371 287.145931 
L 363.461203 295.488 
L 363.492825 287.145931 
L 363.680754 295.488 
L 363.71328 287.145931 
L 363.902112 295.488 
L 363.940059 287.145931 
L 364.128891 295.488 
L 364.163224 287.145931 
L 364.352056 295.488 
L 364.387292 287.145931 
L 364.575221 295.488 
L 364.611361 287.145931 
L 364.800193 295.488 
L 364.83814 287.145931 
L 365.026068 295.488 
L 365.062208 287.145931 
L 365.250137 295.488 
L 365.290795 287.145931 
L 365.479627 295.488 
L 365.51667 287.145931 
L 365.705502 295.488 
L 365.745256 287.145931 
L 365.933185 295.488 
L 365.971132 287.145931 
L 366.159964 295.488 
L 366.196104 287.145931 
L 366.384032 295.488 
L 366.42469 287.145931 
L 366.613522 295.488 
L 366.649662 287.145931 
L 366.879151 278.803862 
L 367.032747 287.145931 
L 367.06708 295.488 
L 367.105027 287.145931 
L 367.292955 295.488 
L 367.326385 287.145931 
L 367.515217 295.488 
L 367.556778 287.145931 
L 367.74561 295.488 
L 367.779943 287.145931 
L 367.968775 295.488 
L 368.000398 287.145931 
L 368.188326 295.488 
L 368.229887 287.145931 
L 368.418719 295.488 
L 368.456666 287.145931 
L 368.645498 295.488 
L 368.684349 287.145931 
L 368.873181 295.488 
L 368.915645 287.145931 
L 369.104477 295.488 
L 369.137003 287.145931 
L 369.325835 295.488 
L 369.361072 287.145931 
L 369.549904 295.488 
L 369.585141 287.145931 
L 369.773973 295.488 
L 369.811016 287.145931 
L 369.999848 295.488 
L 370.035085 287.145931 
L 370.223917 295.488 
L 370.263671 287.145931 
L 370.451599 295.488 
L 370.49045 287.145931 
L 370.679282 295.488 
L 370.716325 287.145931 
L 370.905157 295.488 
L 370.944008 287.145931 
L 371.13284 295.488 
L 371.173497 287.145931 
L 371.362329 295.488 
L 371.396662 287.145931 
L 371.585494 295.488 
L 377.043551 287.145931 
L 377.135709 270.461793 
L 377.368812 170.356966 
L 377.376944 178.699034 
L 377.663354 295.488 
L 377.700397 287.145931 
L 377.889229 295.488 
L 377.923562 287.145931 
L 378.111491 295.488 
L 378.153052 287.145931 
L 378.341884 295.488 
L 378.379831 287.145931 
L 378.568663 295.488 
L 378.608417 287.145931 
L 378.797249 295.488 
L 378.8361 287.145931 
L 379.024028 295.488 
L 379.062879 287.145931 
L 379.250807 295.488 
L 379.289658 287.145931 
L 379.477586 295.488 
L 379.511016 287.145931 
L 379.698944 295.488 
L 379.737795 287.145931 
L 379.926627 295.488 
L 379.962767 287.145931 
L 380.151599 295.488 
L 380.189546 287.145931 
L 380.378378 295.488 
L 380.418132 287.145931 
L 380.60606 295.488 
L 380.647622 287.145931 
L 380.836454 295.488 
L 380.875304 287.145931 
L 381.064136 295.488 
L 381.099373 287.145931 
L 381.288205 295.488 
L 381.324345 287.145931 
L 381.513177 295.488 
L 381.551124 287.145931 
L 381.739052 295.488 
L 381.775192 287.145931 
L 381.963121 295.488 
L 382.001068 287.145931 
L 382.188996 295.488 
L 382.230557 287.145931 
L 385.158808 178.699034 
L 393.180101 187.041103 
L 393.31924 178.699034 
L 393.438502 187.041103 
L 393.554151 145.330759 
L 393.704132 103.620414 
L 393.705939 111.962483 
L 393.951692 295.488 
L 393.96163 287.145931 
L 394.150462 295.488 
L 394.184795 287.145931 
L 394.373627 295.488 
L 394.413381 287.145931 
L 394.60131 295.488 
L 394.638353 287.145931 
L 394.827185 295.488 
L 394.865132 287.145931 
L 395.053964 295.488 
L 395.092815 287.145931 
L 395.280743 295.488 
L 395.322304 287.145931 
L 395.510233 295.488 
L 395.549084 287.145931 
L 395.737916 295.488 
L 395.779477 287.145931 
L 395.967405 295.488 
L 396.004449 287.145931 
L 396.193281 295.488 
L 396.232131 287.145931 
L 396.42006 295.488 
L 396.458007 287.145931 
L 396.646839 295.488 
L 396.686593 287.145931 
L 396.874521 295.488 
L 396.909758 287.145931 
L 397.09859 295.488 
L 397.135633 287.145931 
L 397.324465 295.488 
L 397.365123 287.145931 
L 397.553051 295.488 
L 397.588288 287.145931 
L 397.776216 295.488 
L 397.811453 287.145931 
L 398.000285 295.488 
L 398.038232 287.145931 
L 398.226161 295.488 
L 398.25959 287.145931 
L 398.448422 295.488 
L 398.487273 287.145931 
L 398.487273 287.145931 
" clip-path="url(#p91f3408d2d)" style="fill: none; stroke: #1f77b4; stroke-width: 1.5; stroke-linecap: square"/>
   </g>
   <g id="patch_3">
    <path d="M 57.6 307.584 
L 57.6 41.472 
" style="fill: none; stroke: #000000; stroke-width: 0.8; stroke-linejoin: miter; stroke-linecap: square"/>
   </g>
   <g id="patch_4">
    <path d="M 414.72 307.584 
L 414.72 41.472 
" style="fill: none; stroke: #000000; stroke-width: 0.8; stroke-linejoin: miter; stroke-linecap: square"/>
   </g>
   <g id="patch_5">
    <path d="M 57.6 307.584 
L 414.72 307.584 
" style="fill: none; stroke: #000000; stroke-width: 0.8; stroke-linejoin: miter; stroke-linecap: square"/>
   </g>
   <g id="patch_6">
    <path d="M 57.6 41.472 
L 414.72 41.472 
" style="fill: none; stroke: #000000; stroke-width: 0.8; stroke-linejoin: miter; stroke-linecap: square"/>
   </g>
   <g id="text_17">
    <!-- Queue size (y-axis) between S3 and sensors that follow at a time (x-axis). -->
    <g transform="translate(14.282813 35.472) scale(0.12 -0.12)">
     <defs>
      <path id="DejaVuSans-51" d="M 2522 4238 
Q 1834 4238 1429 3725 
Q 1025 3213 1025 2328 
Q 1025 1447 1429 934 
Q 1834 422 2522 422 
Q 3209 422 3611 934 
Q 4013 1447 4013 2328 
Q 4013 3213 3611 3725 
Q 3209 4238 2522 4238 
z
M 3406 84 
L 4238 -825 
L 3475 -825 
L 2784 -78 
Q 2681 -84 2626 -87 
Q 2572 -91 2522 -91 
Q 1538 -91 948 567 
Q 359 1225 359 2328 
Q 359 3434 948 4092 
Q 1538 4750 2522 4750 
Q 3503 4750 4090 4092 
Q 4678 3434 4678 2328 
Q 4678 1516 4351 937 
Q 4025 359 3406 84 
z
" transform="scale(0.015625)"/>
      <path id="DejaVuSans-75" d="M 544 1381 
L 544 3500 
L 1119 3500 
L 1119 1403 
Q 1119 906 1312 657 
Q 1506 409 1894 409 
Q 2359 409 2629 706 
Q 2900 1003 2900 1516 
L 2900 3500 
L 3475 3500 
L 3475 0 
L 2900 0 
L 2900 538 
Q 2691 219 2414 64 
Q 2138 -91 1772 -91 
Q 1169 -91 856 284 
Q 544 659 544 1381 
z
M 1991 3584 
L 1991 3584 
z
" transform="scale(0.015625)"/>
      <path id="DejaVuSans-20" transform="scale(0.015625)"/>
      <path id="DejaVuSans-73" d="M 2834 3397 
L 2834 2853 
Q 2591 2978 2328 3040 
Q 2066 3103 1784 3103 
Q 1356 3103 1142 2972 
Q 928 2841 928 2578 
Q 928 2378 1081 2264 
Q 1234 2150 1697 2047 
L 1894 2003 
Q 2506 1872 2764 1633 
Q 3022 1394 3022 966 
Q 3022 478 2636 193 
Q 2250 -91 1575 -91 
Q 1294 -91 989 -36 
Q 684 19 347 128 
L 347 722 
Q 666 556 975 473 
Q 1284 391 1588 391 
Q 1994 391 2212 530 
Q 2431 669 2431 922 
Q 2431 1156 2273 1281 
Q 2116 1406 1581 1522 
L 1381 1569 
Q 847 1681 609 1914 
Q 372 2147 372 2553 
Q 372 3047 722 3315 
Q 1072 3584 1716 3584 
Q 2034 3584 2315 3537 
Q 2597 3491 2834 3397 
z
" transform="scale(0.015625)"/>
      <path id="DejaVuSans-69" d="M 603 3500 
L 1178 3500 
L 1178 0 
L 603 0 
L 603 3500 
z
M 603 4863 
L 1178 4863 
L 1178 4134 
L 603 4134 
L 603 4863 
z
" transform="scale(0.015625)"/>
      <path id="DejaVuSans-7a" d="M 353 3500 
L 3084 3500 
L 3084 2975 
L 922 459 
L 3084 459 
L 3084 0 
L 275 0 
L 275 525 
L 2438 3041 
L 353 3041 
L 353 3500 
z
" transform="scale(0.015625)"/>
      <path id="DejaVuSans-28" d="M 1984 4856 
Q 1566 4138 1362 3434 
Q 1159 2731 1159 2009 
Q 1159 1288 1364 580 
Q 1569 -128 1984 -844 
L 1484 -844 
Q 1016 -109 783 600 
Q 550 1309 550 2009 
Q 550 2706 781 3412 
Q 1013 4119 1484 4856 
L 1984 4856 
z
" transform="scale(0.015625)"/>
      <path id="DejaVuSans-79" d="M 2059 -325 
Q 1816 -950 1584 -1140 
Q 1353 -1331 966 -1331 
L 506 -1331 
L 506 -850 
L 844 -850 
Q 1081 -850 1212 -737 
Q 1344 -625 1503 -206 
L 1606 56 
L 191 3500 
L 800 3500 
L 1894 763 
L 2988 3500 
L 3597 3500 
L 2059 -325 
z
" transform="scale(0.015625)"/>
      <path id="DejaVuSans-2d" d="M 313 2009 
L 1997 2009 
L 1997 1497 
L 313 1497 
L 313 2009 
z
" transform="scale(0.015625)"/>
      <path id="DejaVuSans-61" d="M 2194 1759 
Q 1497 1759 1228 1600 
Q 959 1441 959 1056 
Q 959 750 1161 570 
Q 1363 391 1709 391 
Q 2188 391 2477 730 
Q 2766 1069 2766 1631 
L 2766 1759 
L 2194 1759 
z
M 3341 1997 
L 3341 0 
L 2766 0 
L 2766 531 
Q 2569 213 2275 61 
Q 1981 -91 1556 -91 
Q 1019 -91 701 211 
Q 384 513 384 1019 
Q 384 1609 779 1909 
Q 1175 2209 1959 2209 
L 2766 2209 
L 2766 2266 
Q 2766 2663 2505 2880 
Q 2244 3097 1772 3097 
Q 1472 3097 1187 3025 
Q 903 2953 641 2809 
L 641 3341 
Q 956 3463 1253 3523 
Q 1550 3584 1831 3584 
Q 2591 3584 2966 3190 
Q 3341 2797 3341 1997 
z
" transform="scale(0.015625)"/>
      <path id="DejaVuSans-78" d="M 3513 3500 
L 2247 1797 
L 3578 0 
L 2900 0 
L 1881 1375 
L 863 0 
L 184 0 
L 1544 1831 
L 300 3500 
L 978 3500 
L 1906 2253 
L 2834 3500 
L 3513 3500 
z
" transform="scale(0.015625)"/>
      <path id="DejaVuSans-29" d="M 513 4856 
L 1013 4856 
Q 1481 4119 1714 3412 
Q 1947 2706 1947 2009 
Q 1947 1309 1714 600 
Q 1481 -109 1013 -844 
L 513 -844 
Q 928 -128 1133 580 
Q 1338 1288 1338 2009 
Q 1338 2731 1133 3434 
Q 928 4138 513 4856 
z
" transform="scale(0.015625)"/>
      <path id="DejaVuSans-62" d="M 3116 1747 
Q 3116 2381 2855 2742 
Q 2594 3103 2138 3103 
Q 1681 3103 1420 2742 
Q 1159 2381 1159 1747 
Q 1159 1113 1420 752 
Q 1681 391 2138 391 
Q 2594 391 2855 752 
Q 3116 1113 3116 1747 
z
M 1159 2969 
Q 1341 3281 1617 3432 
Q 1894 3584 2278 3584 
Q 2916 3584 3314 3078 
Q 3713 2572 3713 1747 
Q 3713 922 3314 415 
Q 2916 -91 2278 -91 
Q 1894 -91 1617 61 
Q 1341 213 1159 525 
L 1159 0 
L 581 0 
L 581 4863 
L 1159 4863 
L 1159 2969 
z
" transform="scale(0.015625)"/>
      <path id="DejaVuSans-74" d="M 1172 4494 
L 1172 3500 
L 2356 3500 
L 2356 3053 
L 1172 3053 
L 1172 1153 
Q 1172 725 1289 603 
Q 1406 481 1766 481 
L 2356 481 
L 2356 0 
L 1766 0 
Q 1100 0 847 248 
Q 594 497 594 1153 
L 594 3053 
L 172 3053 
L 172 3500 
L 594 3500 
L 594 4494 
L 1172 4494 
z
" transform="scale(0.015625)"/>
      <path id="DejaVuSans-77" d="M 269 3500 
L 844 3500 
L 1563 769 
L 2278 3500 
L 2956 3500 
L 3675 769 
L 4391 3500 
L 4966 3500 
L 4050 0 
L 3372 0 
L 2619 2869 
L 1863 0 
L 1184 0 
L 269 3500 
z
" transform="scale(0.015625)"/>
      <path id="DejaVuSans-6e" d="M 3513 2113 
L 3513 0 
L 2938 0 
L 2938 2094 
Q 2938 2591 2744 2837 
Q 2550 3084 2163 3084 
Q 1697 3084 1428 2787 
Q 1159 2491 1159 1978 
L 1159 0 
L 581 0 
L 581 3500 
L 1159 3500 
L 1159 2956 
Q 1366 3272 1645 3428 
Q 1925 3584 2291 3584 
Q 2894 3584 3203 3211 
Q 3513 2838 3513 2113 
z
" transform="scale(0.015625)"/>
      <path id="DejaVuSans-53" d="M 3425 4513 
L 3425 3897 
Q 3066 4069 2747 4153 
Q 2428 4238 2131 4238 
Q 1616 4238 1336 4038 
Q 1056 3838 1056 3469 
Q 1056 3159 1242 3001 
Q 1428 2844 1947 2747 
L 2328 2669 
Q 3034 2534 3370 2195 
Q 3706 1856 3706 1288 
Q 3706 609 3251 259 
Q 2797 -91 1919 -91 
Q 1588 -91 1214 -16 
Q 841 59 441 206 
L 441 856 
Q 825 641 1194 531 
Q 1563 422 1919 422 
Q 2459 422 2753 634 
Q 3047 847 3047 1241 
Q 3047 1584 2836 1778 
Q 2625 1972 2144 2069 
L 1759 2144 
Q 1053 2284 737 2584 
Q 422 2884 422 3419 
Q 422 4038 858 4394 
Q 1294 4750 2059 4750 
Q 2388 4750 2728 4690 
Q 3069 4631 3425 4513 
z
" transform="scale(0.015625)"/>
      <path id="DejaVuSans-64" d="M 2906 2969 
L 2906 4863 
L 3481 4863 
L 3481 0 
L 2906 0 
L 2906 525 
Q 2725 213 2448 61 
Q 2172 -91 1784 -91 
Q 1150 -91 751 415 
Q 353 922 353 1747 
Q 353 2572 751 3078 
Q 1150 3584 1784 3584 
Q 2172 3584 2448 3432 
Q 2725 3281 2906 2969 
z
M 947 1747 
Q 947 1113 1208 752 
Q 1469 391 1925 391 
Q 2381 391 2643 752 
Q 2906 1113 2906 1747 
Q 2906 2381 2643 2742 
Q 2381 3103 1925 3103 
Q 1469 3103 1208 2742 
Q 947 2381 947 1747 
z
" transform="scale(0.015625)"/>
      <path id="DejaVuSans-6f" d="M 1959 3097 
Q 1497 3097 1228 2736 
Q 959 2375 959 1747 
Q 959 1119 1226 758 
Q 1494 397 1959 397 
Q 2419 397 2687 759 
Q 2956 1122 2956 1747 
Q 2956 2369 2687 2733 
Q 2419 3097 1959 3097 
z
M 1959 3584 
Q 2709 3584 3137 3096 
Q 3566 2609 3566 1747 
Q 3566 888 3137 398 
Q 2709 -91 1959 -91 
Q 1206 -91 779 398 
Q 353 888 353 1747 
Q 353 2609 779 3096 
Q 1206 3584 1959 3584 
z
" transform="scale(0.015625)"/>
      <path id="DejaVuSans-72" d="M 2631 2963 
Q 2534 3019 2420 3045 
Q 2306 3072 2169 3072 
Q 1681 3072 1420 2755 
Q 1159 2438 1159 1844 
L 1159 0 
L 581 0 
L 581 3500 
L 1159 3500 
L 1159 2956 
Q 1341 3275 1631 3429 
Q 1922 3584 2338 3584 
Q 2397 3584 2469 3576 
Q 2541 3569 2628 3553 
L 2631 2963 
z
" transform="scale(0.015625)"/>
      <path id="DejaVuSans-68" d="M 3513 2113 
L 3513 0 
L 2938 0 
L 2938 2094 
Q 2938 2591 2744 2837 
Q 2550 3084 2163 3084 
Q 1697 3084 1428 2787 
Q 1159 2491 1159 1978 
L 1159 0 
L 581 0 
L 581 4863 
L 1159 4863 
L 1159 2956 
Q 1366 3272 1645 3428 
Q 1925 3584 2291 3584 
Q 2894 3584 3203 3211 
Q 3513 2838 3513 2113 
z
" transform="scale(0.015625)"/>
      <path id="DejaVuSans-66" d="M 2375 4863 
L 2375 4384 
L 1825 4384 
Q 1516 4384 1395 4259 
Q 1275 4134 1275 3809 
L 1275 3500 
L 2222 3500 
L 2222 3053 
L 1275 3053 
L 1275 0 
L 697 0 
L 697 3053 
L 147 3053 
L 147 3500 
L 697 3500 
L 697 3744 
Q 697 4328 969 4595 
Q 1241 4863 1831 4863 
L 2375 4863 
z
" transform="scale(0.015625)"/>
      <path id="DejaVuSans-6c" d="M 603 4863 
L 1178 4863 
L 1178 0 
L 603 0 
L 603 4863 
z
" transform="scale(0.015625)"/>
      <path id="DejaVuSans-6d" d="M 3328 2828 
Q 3544 3216 3844 3400 
Q 4144 3584 4550 3584 
Q 5097 3584 5394 3201 
Q 5691 2819 5691 2113 
L 5691 0 
L 5113 0 
L 5113 2094 
Q 5113 2597 4934 2840 
Q 4756 3084 4391 3084 
Q 3944 3084 3684 2787 
Q 3425 2491 3425 1978 
L 3425 0 
L 2847 0 
L 2847 2094 
Q 2847 2600 2669 2842 
Q 2491 3084 2119 3084 
Q 1678 3084 1418 2786 
Q 1159 2488 1159 1978 
L 1159 0 
L 581 0 
L 581 3500 
L 1159 3500 
L 1159 2956 
Q 1356 3278 1631 3431 
Q 1906 3584 2284 3584 
Q 2666 3584 2933 3390 
Q 3200 3197 3328 2828 
z
" transform="scale(0.015625)"/>
     </defs>
     <use xlink:href="#DejaVuSans-51"/>
     <use xlink:href="#DejaVuSans-75" x="78.710938"/>
     <use xlink:href="#DejaVuSans-65" x="142.089844"/>
     <use xlink:href="#DejaVuSans-75" x="203.613281"/>
     <use xlink:href="#DejaVuSans-65" x="266.992188"/>
     <use xlink:href="#DejaVuSans-20" x="328.515625"/>
     <use xlink:href="#DejaVuSans-73" x="360.302734"/>
     <use xlink:href="#DejaVuSans-69" x="412.402344"/>
     <use xlink:href="#DejaVuSans-7a" x="440.185547"/>
     <use xlink:href="#DejaVuSans-65" x="492.675781"/>
     <use xlink:href="#DejaVuSans-20" x="554.199219"/>
     <use xlink:href="#DejaVuSans-28" x="585.986328"/>
     <use xlink:href="#DejaVuSans-79" x="625"/>
     <use xlink:href="#DejaVuSans-2d" x="682.429688"/>
     <use xlink:href="#DejaVuSans-61" x="718.513672"/>
     <use xlink:href="#DejaVuSans-78" x="779.792969"/>
     <use xlink:href="#DejaVuSans-69" x="838.972656"/>
     <use xlink:href="#DejaVuSans-73" x="866.755859"/>
     <use xlink:href="#DejaVuSans-29" x="918.855469"/>
     <use xlink:href="#DejaVuSans-20" x="957.869141"/>
     <use xlink:href="#DejaVuSans-62" x="989.65625"/>
     <use xlink:href="#DejaVuSans-65" x="1053.132812"/>
     <use xlink:href="#DejaVuSans-74" x="1114.65625"/>
     <use xlink:href="#DejaVuSans-77" x="1153.865234"/>
     <use xlink:href="#DejaVuSans-65" x="1235.652344"/>
     <use xlink:href="#DejaVuSans-65" x="1297.175781"/>
     <use xlink:href="#DejaVuSans-6e" x="1358.699219"/>
     <use xlink:href="#DejaVuSans-20" x="1422.078125"/>
     <use xlink:href="#DejaVuSans-53" x="1453.865234"/>
     <use xlink:href="#DejaVuSans-33" x="1517.341797"/>
     <use xlink:href="#DejaVuSans-20" x="1580.964844"/>
     <use xlink:href="#DejaVuSans-61" x="1612.751953"/>
     <use xlink:href="#DejaVuSans-6e" x="1674.03125"/>
     <use xlink:href="#DejaVuSans-64" x="1737.410156"/>
     <use xlink:href="#DejaVuSans-20" x="1800.886719"/>
     <use xlink:href="#DejaVuSans-73" x="1832.673828"/>
     <use xlink:href="#DejaVuSans-65" x="1884.773438"/>
     <use xlink:href="#DejaVuSans-6e" x="1946.296875"/>
     <use xlink:href="#DejaVuSans-73" x="2009.675781"/>
     <use xlink:href="#DejaVuSans-6f" x="2061.775391"/>
     <use xlink:href="#DejaVuSans-72" x="2122.957031"/>
     <use xlink:href="#DejaVuSans-73" x="2164.070312"/>
     <use xlink:href="#DejaVuSans-20" x="2216.169922"/>
     <use xlink:href="#DejaVuSans-74" x="2247.957031"/>
     <use xlink:href="#DejaVuSans-68" x="2287.166016"/>
     <use xlink:href="#DejaVuSans-61" x="2350.544922"/>
     <use xlink:href="#DejaVuSans-74" x="2411.824219"/>
     <use xlink:href="#DejaVuSans-20" x="2451.033203"/>
     <use xlink:href="#DejaVuSans-66" x="2482.820312"/>
     <use xlink:href="#DejaVuSans-6f" x="2518.025391"/>
     <use xlink:href="#DejaVuSans-6c" x="2579.207031"/>
     <use xlink:href="#DejaVuSans-6c" x="2606.990234"/>
     <use xlink:href="#DejaVuSans-6f" x="2634.773438"/>
     <use xlink:href="#DejaVuSans-77" x="2695.955078"/>
     <use xlink:href="#DejaVuSans-20" x="2777.742188"/>
     <use xlink:href="#DejaVuSans-61" x="2809.529297"/>
     <use xlink:href="#DejaVuSans-74" x="2870.808594"/>
     <use xlink:href="#DejaVuSans-20" x="2910.017578"/>
     <use xlink:href="#DejaVuSans-61" x="2941.804688"/>
     <use xlink:href="#DejaVuSans-20" x="3003.083984"/>
     <use xlink:href="#DejaVuSans-74" x="3034.871094"/>
     <use xlink:href="#DejaVuSans-69" x="3074.080078"/>
     <use xlink:href="#DejaVuSans-6d" x="3101.863281"/>
     <use xlink:href="#DejaVuSans-65" x="3199.275391"/>
     <use xlink:href="#DejaVuSans-20" x="3260.798828"/>
     <use xlink:href="#DejaVuSans-28" x="3292.585938"/>
     <use xlink:href="#DejaVuSans-78" x="3331.599609"/>
     <use xlink:href="#DejaVuSans-2d" x="3390.779297"/>
     <use xlink:href="#DejaVuSans-61" x="3426.863281"/>
     <use xlink:href="#DejaVuSans-78" x="3488.142578"/>
     <use xlink:href="#DejaVuSans-69" x="3547.322266"/>
     <use xlink:href="#DejaVuSans-73" x="3575.105469"/>
     <use xlink:href="#DejaVuSans-29" x="3627.205078"/>
     <use xlink:href="#DejaVuSans-2e" x="3666.21875"/>
    </g>
   </g>
  </g>
 </g>
 <defs>
  <clipPath id="p91f3408d2d">
   <rect x="57.6" y="41.472" width="357.12" height="266.112"/>
  </clipPath>
 </defs>
</svg>
