<?xml version="1.0" encoding="utf-8" standalone="no"?>
<!DOCTYPE svg PUBLIC "-//W3C//DTD SVG 1.1//EN"
  "http://www.w3.org/Graphics/SVG/1.1/DTD/svg11.dtd">
<svg xmlns:xlink="http://www.w3.org/1999/xlink" width="460.8pt" height="345.6pt" viewBox="0 0 460.8 345.6" xmlns="http://www.w3.org/2000/svg" version="1.1">
 <metadata>
  <rdf:RDF xmlns:dc="http://purl.org/dc/elements/1.1/" xmlns:cc="http://creativecommons.org/ns#" xmlns:rdf="http://www.w3.org/1999/02/22-rdf-syntax-ns#">
   <cc:Work>
    <dc:type rdf:resource="http://purl.org/dc/dcmitype/StillImage"/>
    <dc:date>2024-03-08T13:03:35.680452</dc:date>
    <dc:format>image/svg+xml</dc:format>
    <dc:creator>
     <cc:Agent>
      <dc:title>Matplotlib v3.8.2, https://matplotlib.org/</dc:title>
     </cc:Agent>
    </dc:creator>
   </cc:Work>
  </rdf:RDF>
 </metadata>
 <defs>
  <style type="text/css">*{stroke-linejoin: round; stroke-linecap: butt}</style>
 </defs>
 <g id="figure_1">
  <g id="patch_1">
   <path d="M 0 345.6 
L 460.8 345.6 
L 460.8 0 
L 0 0 
z
" style="fill: #ffffff"/>
  </g>
  <g id="axes_1">
   <g id="patch_2">
    <path d="M 57.6 307.584 
L 414.72 307.584 
L 414.72 41.472 
L 57.6 41.472 
z
" style="fill: #ffffff"/>
   </g>
   <g id="matplotlib.axis_1">
    <g id="xtick_1">
     <g id="line2d_1">
      <defs>
       <path id="mc295754985" d="M 0 0 
L 0 3.5 
" style="stroke: #000000; stroke-width: 0.8"/>
      </defs>
      <g>
       <use xlink:href="#mc295754985" x="70.723749" y="307.584" style="stroke: #000000; stroke-width: 0.8"/>
      </g>
     </g>
     <g id="text_1">
      <!-- 0.0 -->
      <g transform="translate(62.772187 322.182437) scale(0.1 -0.1)">
       <defs>
        <path id="DejaVuSans-30" d="M 2034 4250 
Q 1547 4250 1301 3770 
Q 1056 3291 1056 2328 
Q 1056 1369 1301 889 
Q 1547 409 2034 409 
Q 2525 409 2770 889 
Q 3016 1369 3016 2328 
Q 3016 3291 2770 3770 
Q 2525 4250 2034 4250 
z
M 2034 4750 
Q 2819 4750 3233 4129 
Q 3647 3509 3647 2328 
Q 3647 1150 3233 529 
Q 2819 -91 2034 -91 
Q 1250 -91 836 529 
Q 422 1150 422 2328 
Q 422 3509 836 4129 
Q 1250 4750 2034 4750 
z
" transform="scale(0.015625)"/>
        <path id="DejaVuSans-2e" d="M 684 794 
L 1344 794 
L 1344 0 
L 684 0 
L 684 794 
z
" transform="scale(0.015625)"/>
       </defs>
       <use xlink:href="#DejaVuSans-30"/>
       <use xlink:href="#DejaVuSans-2e" x="63.623047"/>
       <use xlink:href="#DejaVuSans-30" x="95.410156"/>
      </g>
     </g>
    </g>
    <g id="xtick_2">
     <g id="line2d_2">
      <g>
       <use xlink:href="#mc295754985" x="116.269867" y="307.584" style="stroke: #000000; stroke-width: 0.8"/>
      </g>
     </g>
     <g id="text_2">
      <!-- 0.5 -->
      <g transform="translate(108.318304 322.182437) scale(0.1 -0.1)">
       <defs>
        <path id="DejaVuSans-35" d="M 691 4666 
L 3169 4666 
L 3169 4134 
L 1269 4134 
L 1269 2991 
Q 1406 3038 1543 3061 
Q 1681 3084 1819 3084 
Q 2600 3084 3056 2656 
Q 3513 2228 3513 1497 
Q 3513 744 3044 326 
Q 2575 -91 1722 -91 
Q 1428 -91 1123 -41 
Q 819 9 494 109 
L 494 744 
Q 775 591 1075 516 
Q 1375 441 1709 441 
Q 2250 441 2565 725 
Q 2881 1009 2881 1497 
Q 2881 1984 2565 2268 
Q 2250 2553 1709 2553 
Q 1456 2553 1204 2497 
Q 953 2441 691 2322 
L 691 4666 
z
" transform="scale(0.015625)"/>
       </defs>
       <use xlink:href="#DejaVuSans-30"/>
       <use xlink:href="#DejaVuSans-2e" x="63.623047"/>
       <use xlink:href="#DejaVuSans-35" x="95.410156"/>
      </g>
     </g>
    </g>
    <g id="xtick_3">
     <g id="line2d_3">
      <g>
       <use xlink:href="#mc295754985" x="161.815984" y="307.584" style="stroke: #000000; stroke-width: 0.8"/>
      </g>
     </g>
     <g id="text_3">
      <!-- 1.0 -->
      <g transform="translate(153.864421 322.182437) scale(0.1 -0.1)">
       <defs>
        <path id="DejaVuSans-31" d="M 794 531 
L 1825 531 
L 1825 4091 
L 703 3866 
L 703 4441 
L 1819 4666 
L 2450 4666 
L 2450 531 
L 3481 531 
L 3481 0 
L 794 0 
L 794 531 
z
" transform="scale(0.015625)"/>
       </defs>
       <use xlink:href="#DejaVuSans-31"/>
       <use xlink:href="#DejaVuSans-2e" x="63.623047"/>
       <use xlink:href="#DejaVuSans-30" x="95.410156"/>
      </g>
     </g>
    </g>
    <g id="xtick_4">
     <g id="line2d_4">
      <g>
       <use xlink:href="#mc295754985" x="207.362101" y="307.584" style="stroke: #000000; stroke-width: 0.8"/>
      </g>
     </g>
     <g id="text_4">
      <!-- 1.5 -->
      <g transform="translate(199.410538 322.182437) scale(0.1 -0.1)">
       <use xlink:href="#DejaVuSans-31"/>
       <use xlink:href="#DejaVuSans-2e" x="63.623047"/>
       <use xlink:href="#DejaVuSans-35" x="95.410156"/>
      </g>
     </g>
    </g>
    <g id="xtick_5">
     <g id="line2d_5">
      <g>
       <use xlink:href="#mc295754985" x="252.908218" y="307.584" style="stroke: #000000; stroke-width: 0.8"/>
      </g>
     </g>
     <g id="text_5">
      <!-- 2.0 -->
      <g transform="translate(244.956656 322.182437) scale(0.1 -0.1)">
       <defs>
        <path id="DejaVuSans-32" d="M 1228 531 
L 3431 531 
L 3431 0 
L 469 0 
L 469 531 
Q 828 903 1448 1529 
Q 2069 2156 2228 2338 
Q 2531 2678 2651 2914 
Q 2772 3150 2772 3378 
Q 2772 3750 2511 3984 
Q 2250 4219 1831 4219 
Q 1534 4219 1204 4116 
Q 875 4013 500 3803 
L 500 4441 
Q 881 4594 1212 4672 
Q 1544 4750 1819 4750 
Q 2544 4750 2975 4387 
Q 3406 4025 3406 3419 
Q 3406 3131 3298 2873 
Q 3191 2616 2906 2266 
Q 2828 2175 2409 1742 
Q 1991 1309 1228 531 
z
" transform="scale(0.015625)"/>
       </defs>
       <use xlink:href="#DejaVuSans-32"/>
       <use xlink:href="#DejaVuSans-2e" x="63.623047"/>
       <use xlink:href="#DejaVuSans-30" x="95.410156"/>
      </g>
     </g>
    </g>
    <g id="xtick_6">
     <g id="line2d_6">
      <g>
       <use xlink:href="#mc295754985" x="298.454335" y="307.584" style="stroke: #000000; stroke-width: 0.8"/>
      </g>
     </g>
     <g id="text_6">
      <!-- 2.5 -->
      <g transform="translate(290.502773 322.182437) scale(0.1 -0.1)">
       <use xlink:href="#DejaVuSans-32"/>
       <use xlink:href="#DejaVuSans-2e" x="63.623047"/>
       <use xlink:href="#DejaVuSans-35" x="95.410156"/>
      </g>
     </g>
    </g>
    <g id="xtick_7">
     <g id="line2d_7">
      <g>
       <use xlink:href="#mc295754985" x="344.000453" y="307.584" style="stroke: #000000; stroke-width: 0.8"/>
      </g>
     </g>
     <g id="text_7">
      <!-- 3.0 -->
      <g transform="translate(336.04889 322.182437) scale(0.1 -0.1)">
       <defs>
        <path id="DejaVuSans-33" d="M 2597 2516 
Q 3050 2419 3304 2112 
Q 3559 1806 3559 1356 
Q 3559 666 3084 287 
Q 2609 -91 1734 -91 
Q 1441 -91 1130 -33 
Q 819 25 488 141 
L 488 750 
Q 750 597 1062 519 
Q 1375 441 1716 441 
Q 2309 441 2620 675 
Q 2931 909 2931 1356 
Q 2931 1769 2642 2001 
Q 2353 2234 1838 2234 
L 1294 2234 
L 1294 2753 
L 1863 2753 
Q 2328 2753 2575 2939 
Q 2822 3125 2822 3475 
Q 2822 3834 2567 4026 
Q 2313 4219 1838 4219 
Q 1578 4219 1281 4162 
Q 984 4106 628 3988 
L 628 4550 
Q 988 4650 1302 4700 
Q 1616 4750 1894 4750 
Q 2613 4750 3031 4423 
Q 3450 4097 3450 3541 
Q 3450 3153 3228 2886 
Q 3006 2619 2597 2516 
z
" transform="scale(0.015625)"/>
       </defs>
       <use xlink:href="#DejaVuSans-33"/>
       <use xlink:href="#DejaVuSans-2e" x="63.623047"/>
       <use xlink:href="#DejaVuSans-30" x="95.410156"/>
      </g>
     </g>
    </g>
    <g id="xtick_8">
     <g id="line2d_8">
      <g>
       <use xlink:href="#mc295754985" x="389.54657" y="307.584" style="stroke: #000000; stroke-width: 0.8"/>
      </g>
     </g>
     <g id="text_8">
      <!-- 3.5 -->
      <g transform="translate(381.595007 322.182437) scale(0.1 -0.1)">
       <use xlink:href="#DejaVuSans-33"/>
       <use xlink:href="#DejaVuSans-2e" x="63.623047"/>
       <use xlink:href="#DejaVuSans-35" x="95.410156"/>
      </g>
     </g>
    </g>
    <g id="text_9">
     <!-- 1e6 -->
     <g transform="translate(395.841875 334.860562) scale(0.1 -0.1)">
      <defs>
       <path id="DejaVuSans-65" d="M 3597 1894 
L 3597 1613 
L 953 1613 
Q 991 1019 1311 708 
Q 1631 397 2203 397 
Q 2534 397 2845 478 
Q 3156 559 3463 722 
L 3463 178 
Q 3153 47 2828 -22 
Q 2503 -91 2169 -91 
Q 1331 -91 842 396 
Q 353 884 353 1716 
Q 353 2575 817 3079 
Q 1281 3584 2069 3584 
Q 2775 3584 3186 3129 
Q 3597 2675 3597 1894 
z
M 3022 2063 
Q 3016 2534 2758 2815 
Q 2500 3097 2075 3097 
Q 1594 3097 1305 2825 
Q 1016 2553 972 2059 
L 3022 2063 
z
" transform="scale(0.015625)"/>
       <path id="DejaVuSans-36" d="M 2113 2584 
Q 1688 2584 1439 2293 
Q 1191 2003 1191 1497 
Q 1191 994 1439 701 
Q 1688 409 2113 409 
Q 2538 409 2786 701 
Q 3034 994 3034 1497 
Q 3034 2003 2786 2293 
Q 2538 2584 2113 2584 
z
M 3366 4563 
L 3366 3988 
Q 3128 4100 2886 4159 
Q 2644 4219 2406 4219 
Q 1781 4219 1451 3797 
Q 1122 3375 1075 2522 
Q 1259 2794 1537 2939 
Q 1816 3084 2150 3084 
Q 2853 3084 3261 2657 
Q 3669 2231 3669 1497 
Q 3669 778 3244 343 
Q 2819 -91 2113 -91 
Q 1303 -91 875 529 
Q 447 1150 447 2328 
Q 447 3434 972 4092 
Q 1497 4750 2381 4750 
Q 2619 4750 2861 4703 
Q 3103 4656 3366 4563 
z
" transform="scale(0.015625)"/>
      </defs>
      <use xlink:href="#DejaVuSans-31"/>
      <use xlink:href="#DejaVuSans-65" x="63.623047"/>
      <use xlink:href="#DejaVuSans-36" x="125.146484"/>
     </g>
    </g>
   </g>
   <g id="matplotlib.axis_2">
    <g id="ytick_1">
     <g id="line2d_9">
      <defs>
       <path id="mf3ae94040a" d="M 0 0 
L -3.5 0 
" style="stroke: #000000; stroke-width: 0.8"/>
      </defs>
      <g>
       <use xlink:href="#mf3ae94040a" x="57.6" y="295.488" style="stroke: #000000; stroke-width: 0.8"/>
      </g>
     </g>
     <g id="text_10">
      <!-- 0.0 -->
      <g transform="translate(34.696875 299.287219) scale(0.1 -0.1)">
       <use xlink:href="#DejaVuSans-30"/>
       <use xlink:href="#DejaVuSans-2e" x="63.623047"/>
       <use xlink:href="#DejaVuSans-30" x="95.410156"/>
      </g>
     </g>
    </g>
    <g id="ytick_2">
     <g id="line2d_10">
      <g>
       <use xlink:href="#mf3ae94040a" x="57.6" y="261.888" style="stroke: #000000; stroke-width: 0.8"/>
      </g>
     </g>
     <g id="text_11">
      <!-- 2.5 -->
      <g transform="translate(34.696875 265.687219) scale(0.1 -0.1)">
       <use xlink:href="#DejaVuSans-32"/>
       <use xlink:href="#DejaVuSans-2e" x="63.623047"/>
       <use xlink:href="#DejaVuSans-35" x="95.410156"/>
      </g>
     </g>
    </g>
    <g id="ytick_3">
     <g id="line2d_11">
      <g>
       <use xlink:href="#mf3ae94040a" x="57.6" y="228.288" style="stroke: #000000; stroke-width: 0.8"/>
      </g>
     </g>
     <g id="text_12">
      <!-- 5.0 -->
      <g transform="translate(34.696875 232.087219) scale(0.1 -0.1)">
       <use xlink:href="#DejaVuSans-35"/>
       <use xlink:href="#DejaVuSans-2e" x="63.623047"/>
       <use xlink:href="#DejaVuSans-30" x="95.410156"/>
      </g>
     </g>
    </g>
    <g id="ytick_4">
     <g id="line2d_12">
      <g>
       <use xlink:href="#mf3ae94040a" x="57.6" y="194.688" style="stroke: #000000; stroke-width: 0.8"/>
      </g>
     </g>
     <g id="text_13">
      <!-- 7.5 -->
      <g transform="translate(34.696875 198.487219) scale(0.1 -0.1)">
       <defs>
        <path id="DejaVuSans-37" d="M 525 4666 
L 3525 4666 
L 3525 4397 
L 1831 0 
L 1172 0 
L 2766 4134 
L 525 4134 
L 525 4666 
z
" transform="scale(0.015625)"/>
       </defs>
       <use xlink:href="#DejaVuSans-37"/>
       <use xlink:href="#DejaVuSans-2e" x="63.623047"/>
       <use xlink:href="#DejaVuSans-35" x="95.410156"/>
      </g>
     </g>
    </g>
    <g id="ytick_5">
     <g id="line2d_13">
      <g>
       <use xlink:href="#mf3ae94040a" x="57.6" y="161.088" style="stroke: #000000; stroke-width: 0.8"/>
      </g>
     </g>
     <g id="text_14">
      <!-- 10.0 -->
      <g transform="translate(28.334375 164.887219) scale(0.1 -0.1)">
       <use xlink:href="#DejaVuSans-31"/>
       <use xlink:href="#DejaVuSans-30" x="63.623047"/>
       <use xlink:href="#DejaVuSans-2e" x="127.246094"/>
       <use xlink:href="#DejaVuSans-30" x="159.033203"/>
      </g>
     </g>
    </g>
    <g id="ytick_6">
     <g id="line2d_14">
      <g>
       <use xlink:href="#mf3ae94040a" x="57.6" y="127.488" style="stroke: #000000; stroke-width: 0.8"/>
      </g>
     </g>
     <g id="text_15">
      <!-- 12.5 -->
      <g transform="translate(28.334375 131.287219) scale(0.1 -0.1)">
       <use xlink:href="#DejaVuSans-31"/>
       <use xlink:href="#DejaVuSans-32" x="63.623047"/>
       <use xlink:href="#DejaVuSans-2e" x="127.246094"/>
       <use xlink:href="#DejaVuSans-35" x="159.033203"/>
      </g>
     </g>
    </g>
    <g id="ytick_7">
     <g id="line2d_15">
      <g>
       <use xlink:href="#mf3ae94040a" x="57.6" y="93.888" style="stroke: #000000; stroke-width: 0.8"/>
      </g>
     </g>
     <g id="text_16">
      <!-- 15.0 -->
      <g transform="translate(28.334375 97.687219) scale(0.1 -0.1)">
       <use xlink:href="#DejaVuSans-31"/>
       <use xlink:href="#DejaVuSans-35" x="63.623047"/>
       <use xlink:href="#DejaVuSans-2e" x="127.246094"/>
       <use xlink:href="#DejaVuSans-30" x="159.033203"/>
      </g>
     </g>
    </g>
    <g id="ytick_8">
     <g id="line2d_16">
      <g>
       <use xlink:href="#mf3ae94040a" x="57.6" y="60.288" style="stroke: #000000; stroke-width: 0.8"/>
      </g>
     </g>
     <g id="text_17">
      <!-- 17.5 -->
      <g transform="translate(28.334375 64.087219) scale(0.1 -0.1)">
       <use xlink:href="#DejaVuSans-31"/>
       <use xlink:href="#DejaVuSans-37" x="63.623047"/>
       <use xlink:href="#DejaVuSans-2e" x="127.246094"/>
       <use xlink:href="#DejaVuSans-35" x="159.033203"/>
      </g>
     </g>
    </g>
   </g>
   <g id="line2d_17">
    <path d="M 73.832727 255.168 
L 74.189809 295.488 
L 74.500433 268.608 
L 74.857515 295.488 
L 75.085245 268.608 
L 75.442327 295.488 
L 75.752952 268.608 
L 76.110033 295.488 
L 76.385132 268.608 
L 76.742213 295.488 
L 77.051927 268.608 
L 77.409008 295.488 
L 77.674998 268.608 
L 78.031168 295.488 
L 78.312643 282.048 
L 78.668814 295.488 
L 84.187182 214.848 
L 84.544263 295.488 
L 84.586166 268.608 
L 84.926851 241.728 
L 84.942336 268.608 
L 85.283021 295.488 
L 85.293952 268.608 
L 85.651034 268.608 
L 86.008115 295.488 
L 86.014492 282.048 
L 86.371573 295.488 
L 86.386148 268.608 
L 86.74323 295.488 
L 86.757804 282.048 
L 87.114886 295.488 
L 87.135837 282.048 
L 87.492008 295.488 
L 87.568525 268.608 
L 87.925607 295.488 
L 88.15607 268.608 
L 88.513152 295.488 
L 88.841995 268.608 
L 89.199076 295.488 
L 89.435005 268.608 
L 89.792087 295.488 
L 90.07174 268.608 
L 90.428821 295.488 
L 90.780437 268.608 
L 91.137519 295.488 
L 91.377092 268.608 
L 91.734173 295.488 
L 92.053907 268.608 
L 92.410988 295.488 
L 92.689731 268.608 
L 93.046812 295.488 
L 93.274543 268.608 
L 93.631624 295.488 
L 93.956824 268.608 
L 94.313905 295.488 
L 94.556211 268.608 
L 95.196589 241.728 
L 95.521788 268.608 
L 95.831502 241.728 
L 97.146874 187.968 
L 98.093322 161.088 
L 98.392105 187.968 
L 98.44676 241.728 
L 98.682689 214.848 
L 98.779247 268.608 
L 99.061633 295.488 
L 99.396852 268.608 
L 99.753934 295.488 
L 99.988041 268.608 
L 100.345122 295.488 
L 100.652103 268.608 
L 101.009185 295.488 
L 101.295214 268.608 
L 101.652296 295.488 
L 101.915552 268.608 
L 102.272634 295.488 
L 102.520405 268.608 
L 102.877486 295.488 
L 103.199953 268.608 
L 103.557034 295.488 
L 103.821202 268.608 
L 104.178283 295.488 
L 104.454293 268.608 
L 104.811374 295.488 
L 105.11289 268.608 
L 105.469971 295.488 
L 105.756001 268.608 
L 106.113082 295.488 
L 106.359031 268.608 
L 106.716113 295.488 
L 106.987568 268.608 
L 107.344649 295.488 
L 107.598797 268.608 
L 107.955878 295.488 
L 108.300207 268.608 
L 108.657289 295.488 
L 108.893217 268.608 
L 109.250299 295.488 
L 109.560013 268.608 
L 109.917094 295.488 
L 110.161221 282.048 
L 110.518303 295.488 
L 112.771925 214.848 
L 113.129006 295.488 
L 113.661896 241.728 
L 114.018067 295.488 
L 114.60379 241.728 
L 114.960871 295.488 
L 126.489504 241.728 
L 126.846586 295.488 
L 127.297492 161.088 
L 127.654574 295.488 
L 127.777549 241.728 
L 128.13463 295.488 
L 128.277645 241.728 
L 128.634726 295.488 
L 128.798692 241.728 
L 129.155774 295.488 
L 129.273283 241.728 
L 129.630365 295.488 
L 129.749695 241.728 
L 130.106777 295.488 
L 130.242504 241.728 
L 130.599586 295.488 
L 130.767196 241.728 
L 131.124277 295.488 
L 131.262737 241.728 
L 131.619819 295.488 
L 131.78834 241.728 
L 132.145421 295.488 
L 132.276594 241.728 
L 132.633676 295.488 
L 143.26505 214.848 
L 143.622132 295.488 
L 144.051176 161.088 
L 144.407347 295.488 
L 144.589531 241.728 
L 144.946613 295.488 
L 145.105113 241.728 
L 145.462195 295.488 
L 145.606121 241.728 
L 145.963202 295.488 
L 146.094375 241.728 
L 146.451457 295.488 
L 146.619066 241.728 
L 146.975237 295.488 
L 147.131005 241.728 
L 147.488086 295.488 
L 147.662072 241.728 
L 148.019154 295.488 
L 148.165812 241.728 
L 148.522894 295.488 
L 148.672285 241.728 
L 149.029367 295.488 
L 149.15143 255.168 
L 149.508512 295.488 
L 153.490154 241.728 
L 153.846324 295.488 
L 154.26717 255.168 
L 154.624252 295.488 
L 154.964026 161.088 
L 155.321107 295.488 
L 155.47141 241.728 
L 155.828491 295.488 
L 155.96604 241.728 
L 156.322211 295.488 
L 156.476157 241.728 
L 156.832328 295.488 
L 157.003581 241.728 
L 157.359752 295.488 
L 157.509143 255.168 
L 157.99011 228.288 
L 158.315309 268.608 
L 158.475632 255.168 
L 158.890101 282.048 
L 158.921983 295.488 
L 175.660182 241.728 
L 176.017263 295.488 
L 176.571104 161.088 
L 176.928185 295.488 
L 177.107637 241.728 
L 177.463808 295.488 
L 177.557633 241.728 
L 177.913803 295.488 
L 178.059551 241.728 
L 178.416633 295.488 
L 178.540518 241.728 
L 178.8976 295.488 
L 179.045169 241.728 
L 179.402251 295.488 
L 179.554375 241.728 
L 179.911456 295.488 
L 180.046273 241.728 
L 180.403354 295.488 
L 180.539993 241.728 
L 180.897074 295.488 
L 181.066506 241.728 
L 181.423587 295.488 
L 181.606683 241.728 
L 181.963764 295.488 
L 182.158702 241.728 
L 182.515783 295.488 
L 182.685215 241.728 
L 183.042296 295.488 
L 183.113348 241.728 
L 183.47043 295.488 
L 183.640772 241.728 
L 183.996943 295.488 
L 185.958159 268.608 
L 186.31524 295.488 
L 186.599448 268.608 
L 186.955619 295.488 
L 187.246203 268.608 
L 187.603284 295.488 
L 187.880205 268.608 
L 188.237286 295.488 
L 188.514207 268.608 
L 188.870377 295.488 
L 189.140921 268.608 
L 189.498003 295.488 
L 189.75215 268.608 
L 190.109232 295.488 
L 190.408014 268.608 
L 190.765096 295.488 
L 191.0657 268.608 
L 191.422782 295.488 
L 191.704257 268.608 
L 192.061338 295.488 
L 192.325506 268.608 
L 192.682587 295.488 
L 193.009609 268.608 
L 193.365779 295.488 
L 193.628125 268.608 
L 193.985206 295.488 
L 194.250285 268.608 
L 194.607366 295.488 
L 194.906149 268.608 
L 195.26323 295.488 
L 195.521932 268.608 
L 195.879014 295.488 
L 196.143181 268.608 
L 196.500263 295.488 
L 196.818175 268.608 
L 197.175256 295.488 
L 197.428493 268.608 
L 197.785574 295.488 
L 198.073426 268.608 
L 198.430507 295.488 
L 198.718359 282.048 
L 199.07453 295.488 
L 204.708584 214.848 
L 205.065666 295.488 
L 205.078419 268.608 
L 205.424569 241.728 
L 205.434589 268.608 
L 205.769809 241.728 
L 205.781651 268.608 
L 206.12689 295.488 
L 206.140554 268.608 
L 206.497636 295.488 
L 206.517676 268.608 
L 206.873847 295.488 
L 206.913016 282.048 
L 207.231839 255.168 
L 207.270098 268.608 
L 207.573435 255.168 
L 207.588921 282.048 
L 207.930517 295.488 
L 207.977885 282.048 
L 208.334966 295.488 
L 208.570895 268.608 
L 208.927977 295.488 
L 209.218561 268.608 
L 209.574731 295.488 
L 209.891732 268.608 
L 210.248814 295.488 
L 210.485654 268.608 
L 210.842735 295.488 
L 211.146072 268.608 
L 211.503154 295.488 
L 211.770054 268.608 
L 212.126225 295.488 
L 212.379461 268.608 
L 212.736543 295.488 
L 213.021662 268.608 
L 213.378743 295.488 
L 213.67206 268.608 
L 214.029142 295.488 
L 214.311528 268.608 
L 214.668609 295.488 
L 214.971035 268.608 
L 215.328117 295.488 
L 215.596839 268.608 
L 215.953921 295.488 
L 216.230841 268.608 
L 216.587923 295.488 
L 216.874863 268.608 
L 217.231945 295.488 
L 217.470606 268.608 
L 217.827688 295.488 
L 218.169284 268.608 
L 218.526365 295.488 
L 218.786889 268.608 
L 219.143971 295.488 
L 219.433644 268.608 
L 219.790725 295.488 
L 220.051249 268.608 
L 220.408331 295.488 
L 220.712579 268.608 
L 221.06875 295.488 
L 221.320164 268.608 
L 221.677246 295.488 
L 221.98787 268.608 
L 222.344952 295.488 
L 222.619139 282.048 
L 222.976221 295.488 
L 224.996647 201.408 
L 225.353728 295.488 
L 225.695324 241.728 
L 226.052406 295.488 
L 226.446835 241.728 
L 226.803917 295.488 
L 227.155533 241.728 
L 227.512614 295.488 
L 227.917064 241.728 
L 228.682238 187.968 
L 229.007438 241.728 
L 229.354499 187.968 
L 230.032225 147.648 
L 230.347405 201.408 
L 230.374732 255.168 
L 230.705397 295.488 
L 230.838392 228.288 
L 231.195473 295.488 
L 231.544356 282.048 
L 231.901438 295.488 
L 237.397033 120.768 
L 237.754114 295.488 
L 237.908971 241.728 
L 238.266052 295.488 
L 238.392671 241.728 
L 238.749752 295.488 
L 238.929204 241.728 
L 239.285375 295.488 
L 239.402884 241.728 
L 239.759965 295.488 
L 239.89296 241.728 
L 240.250041 295.488 
L 240.434048 241.728 
L 240.791129 295.488 
L 240.935966 241.728 
L 241.293047 295.488 
L 241.432419 241.728 
L 241.7895 295.488 
L 241.974417 255.168 
L 242.331499 295.488 
L 242.459939 241.728 
L 242.81702 295.488 
L 242.979165 255.168 
L 243.335335 295.488 
L 243.522985 255.168 
L 243.880067 295.488 
L 244.058608 268.608 
L 244.415689 295.488 
L 244.576922 268.608 
L 244.934004 295.488 
L 245.526104 228.288 
L 245.883185 295.488 
L 246.294922 241.728 
L 246.652004 295.488 
L 246.943499 255.168 
L 247.30058 295.488 
L 247.694099 228.288 
L 248.05118 295.488 
L 248.410084 241.728 
L 248.767165 295.488 
L 249.142465 241.728 
L 249.499547 295.488 
L 249.873025 241.728 
L 250.230107 295.488 
L 250.599941 241.728 
L 250.957023 295.488 
L 251.355096 241.728 
L 251.712177 295.488 
L 252.051951 255.168 
L 252.408122 295.488 
L 252.83079 228.288 
L 253.187871 295.488 
L 253.547686 241.728 
L 253.903856 295.488 
L 254.260027 241.728 
L 254.617109 295.488 
L 254.986943 241.728 
L 255.344025 295.488 
L 255.764871 241.728 
L 256.121952 295.488 
L 256.470836 241.728 
L 256.827917 295.488 
L 257.147651 241.728 
L 257.504732 295.488 
L 257.900073 241.728 
L 258.257154 295.488 
L 258.624256 241.728 
L 258.981337 295.488 
L 259.352083 241.728 
L 259.709164 295.488 
L 260.064424 241.728 
L 260.421506 295.488 
L 260.784964 241.728 
L 261.142045 295.488 
L 261.520989 241.728 
L 261.878071 295.488 
L 262.323512 255.168 
L 262.680593 295.488 
L 273.962366 228.288 
L 274.319448 295.488 
L 274.656489 214.848 
L 275.01266 295.488 
L 275.196666 187.968 
L 275.552837 295.488 
L 275.68401 241.728 
L 276.041091 295.488 
L 276.229652 241.728 
L 276.586734 295.488 
L 276.727016 241.728 
L 277.084097 295.488 
L 277.20525 241.728 
L 277.562331 295.488 
L 277.694415 241.728 
L 278.051497 295.488 
L 278.194512 241.728 
L 278.551593 295.488 
L 278.711005 241.728 
L 279.068086 295.488 
L 279.20017 241.728 
L 279.557251 295.488 
L 279.705732 241.728 
L 280.062813 295.488 
L 280.211294 241.728 
L 280.567464 295.488 
L 280.674042 241.728 
L 281.031124 295.488 
L 281.170495 241.728 
L 281.527576 295.488 
L 281.64964 241.728 
L 282.006722 295.488 
L 282.159757 241.728 
L 282.516838 295.488 
L 282.668962 241.728 
L 283.026044 295.488 
L 283.169059 241.728 
L 283.52614 295.488 
L 283.657313 241.728 
L 284.014394 295.488 
L 284.133725 241.728 
L 284.490807 295.488 
L 284.672991 241.728 
L 285.030073 295.488 
L 285.210435 241.728 
L 285.567517 295.488 
L 285.726928 241.728 
L 286.08401 295.488 
L 286.280769 241.728 
L 286.637851 295.488 
L 286.753538 282.048 
L 287.110619 295.488 
L 302.718363 147.648 
L 303.075445 295.488 
L 303.225747 241.728 
L 303.582828 295.488 
L 303.677564 255.168 
L 304.034646 295.488 
L 304.114807 282.048 
L 304.471888 295.488 
L 304.580288 268.608 
L 304.93737 295.488 
L 304.974718 255.168 
L 305.331799 295.488 
L 305.363681 268.608 
L 305.719852 241.728 
L 305.720763 268.608 
L 306.039586 241.728 
L 306.076934 268.608 
L 306.396667 295.488 
L 306.3994 268.608 
L 306.756482 295.488 
L 306.762858 268.608 
L 307.11994 295.488 
L 307.154555 268.608 
L 307.511636 295.488 
L 307.529855 268.608 
L 307.906977 241.728 
L 308.232176 268.608 
L 308.253127 241.728 
L 308.619318 228.288 
L 309.327105 174.528 
L 310.691666 120.768 
L 311.424048 147.648 
L 311.478703 187.968 
L 311.765644 214.848 
L 311.820299 255.168 
L 311.833052 214.848 
L 312.125458 228.288 
L 312.15734 255.168 
L 312.201065 228.288 
L 312.558146 295.488 
L 312.583652 282.048 
L 312.940734 295.488 
L 313.214921 268.608 
L 313.572003 295.488 
L 313.867142 268.608 
L 314.224223 295.488 
L 314.524827 268.608 
L 314.881909 295.488 
L 315.190712 268.608 
L 315.547793 295.488 
L 315.82107 268.608 
L 316.178152 295.488 
L 316.735636 268.608 
L 317.092718 295.488 
L 317.415184 268.608 
L 317.772266 295.488 
L 318.046453 268.608 
L 318.403535 295.488 
L 318.685921 268.608 
L 319.043002 295.488 
L 319.339052 268.608 
L 319.696134 295.488 
L 319.915666 268.608 
L 320.272747 295.488 
L 320.919502 268.608 
L 321.276584 295.488 
L 321.555326 268.608 
L 321.912408 295.488 
L 322.19115 268.608 
L 322.548231 295.488 
L 322.848836 268.608 
L 323.205917 295.488 
L 323.785264 268.608 
L 324.142346 295.488 
L 324.409246 268.608 
L 324.766327 295.488 
L 325.020475 268.608 
L 325.377556 295.488 
L 325.711865 268.608 
L 326.068946 295.488 
L 326.34951 268.608 
L 326.705681 295.488 
L 326.984423 268.608 
L 327.341505 295.488 
L 327.606583 268.608 
L 327.963665 295.488 
L 328.256982 268.608 
L 328.614063 295.488 
L 328.911935 268.608 
L 329.269017 295.488 
L 329.521342 268.608 
L 329.878424 295.488 
L 330.179939 268.608 
L 330.53702 295.488 
L 330.813941 268.608 
L 331.170111 295.488 
L 331.440655 268.608 
L 331.797737 295.488 
L 332.128402 268.608 
L 332.485483 295.488 
L 332.757849 268.608 
L 333.114931 295.488 
L 333.398228 282.048 
L 335.852252 201.408 
L 336.177452 214.848 
L 336.76864 161.088 
L 338.579554 53.568 
L 338.791799 134.208 
L 338.964874 295.488 
L 350.409702 241.728 
L 350.766784 295.488 
L 351.392588 161.088 
L 351.749669 295.488 
L 351.884486 241.728 
L 352.241567 295.488 
L 352.417375 255.168 
L 352.774457 295.488 
L 362.676183 174.528 
L 363.033264 295.488 
L 363.163526 241.728 
L 363.520608 295.488 
L 363.718278 241.728 
L 364.074448 295.488 
L 364.182848 241.728 
L 364.53993 295.488 
L 364.683855 241.728 
L 365.040026 295.488 
L 365.208547 241.728 
L 365.565628 295.488 
L 365.733238 241.728 
L 366.09032 295.488 
L 366.219671 241.728 
L 366.576752 295.488 
L 366.743451 241.728 
L 367.100532 295.488 
L 367.223507 241.728 
L 367.580588 295.488 
L 367.755486 241.728 
L 368.112567 295.488 
L 368.230076 255.168 
L 368.587158 295.488 
L 368.710132 268.608 
L 369.067214 295.488 
L 369.218427 268.608 
L 369.575508 295.488 
L 369.821457 255.168 
L 370.178539 295.488 
L 370.731469 241.728 
L 371.08855 295.488 
L 371.623262 241.728 
L 371.980343 295.488 
L 372.540561 241.728 
L 372.897642 295.488 
L 373.447839 255.168 
L 373.804921 295.488 
L 379.494542 147.648 
L 379.851623 295.488 
L 379.973687 241.728 
L 380.330769 295.488 
L 380.515686 241.728 
L 380.872767 295.488 
L 380.99392 241.728 
L 381.351002 295.488 
L 381.542295 241.728 
L 381.899377 295.488 
L 382.02053 241.728 
L 382.377611 295.488 
L 382.540666 255.168 
L 382.897748 295.488 
L 394.130331 255.168 
L 394.487413 295.488 
L 395.085889 187.968 
L 395.44297 295.488 
L 395.614224 214.848 
L 395.971305 295.488 
L 396.111587 241.728 
L 396.467758 295.488 
L 396.589821 241.728 
L 396.946903 295.488 
L 397.079898 241.728 
L 397.436979 295.488 
L 397.620986 241.728 
L 397.978067 295.488 
L 398.130191 241.728 
L 398.487273 295.488 
L 398.487273 295.488 
" clip-path="url(#p39a6b04177)" style="fill: none; stroke: #1f77b4; stroke-width: 1.5; stroke-linecap: square"/>
   </g>
   <g id="patch_3">
    <path d="M 57.6 307.584 
L 57.6 41.472 
" style="fill: none; stroke: #000000; stroke-width: 0.8; stroke-linejoin: miter; stroke-linecap: square"/>
   </g>
   <g id="patch_4">
    <path d="M 414.72 307.584 
L 414.72 41.472 
" style="fill: none; stroke: #000000; stroke-width: 0.8; stroke-linejoin: miter; stroke-linecap: square"/>
   </g>
   <g id="patch_5">
    <path d="M 57.6 307.584 
L 414.72 307.584 
" style="fill: none; stroke: #000000; stroke-width: 0.8; stroke-linejoin: miter; stroke-linecap: square"/>
   </g>
   <g id="patch_6">
    <path d="M 57.6 41.472 
L 414.72 41.472 
" style="fill: none; stroke: #000000; stroke-width: 0.8; stroke-linejoin: miter; stroke-linecap: square"/>
   </g>
   <g id="text_18">
    <!-- Queue size (y-axis) between S7 and sensors that follow at a time (x-axis). -->
    <g transform="translate(14.282813 35.472) scale(0.12 -0.12)">
     <defs>
      <path id="DejaVuSans-51" d="M 2522 4238 
Q 1834 4238 1429 3725 
Q 1025 3213 1025 2328 
Q 1025 1447 1429 934 
Q 1834 422 2522 422 
Q 3209 422 3611 934 
Q 4013 1447 4013 2328 
Q 4013 3213 3611 3725 
Q 3209 4238 2522 4238 
z
M 3406 84 
L 4238 -825 
L 3475 -825 
L 2784 -78 
Q 2681 -84 2626 -87 
Q 2572 -91 2522 -91 
Q 1538 -91 948 567 
Q 359 1225 359 2328 
Q 359 3434 948 4092 
Q 1538 4750 2522 4750 
Q 3503 4750 4090 4092 
Q 4678 3434 4678 2328 
Q 4678 1516 4351 937 
Q 4025 359 3406 84 
z
" transform="scale(0.015625)"/>
      <path id="DejaVuSans-75" d="M 544 1381 
L 544 3500 
L 1119 3500 
L 1119 1403 
Q 1119 906 1312 657 
Q 1506 409 1894 409 
Q 2359 409 2629 706 
Q 2900 1003 2900 1516 
L 2900 3500 
L 3475 3500 
L 3475 0 
L 2900 0 
L 2900 538 
Q 2691 219 2414 64 
Q 2138 -91 1772 -91 
Q 1169 -91 856 284 
Q 544 659 544 1381 
z
M 1991 3584 
L 1991 3584 
z
" transform="scale(0.015625)"/>
      <path id="DejaVuSans-20" transform="scale(0.015625)"/>
      <path id="DejaVuSans-73" d="M 2834 3397 
L 2834 2853 
Q 2591 2978 2328 3040 
Q 2066 3103 1784 3103 
Q 1356 3103 1142 2972 
Q 928 2841 928 2578 
Q 928 2378 1081 2264 
Q 1234 2150 1697 2047 
L 1894 2003 
Q 2506 1872 2764 1633 
Q 3022 1394 3022 966 
Q 3022 478 2636 193 
Q 2250 -91 1575 -91 
Q 1294 -91 989 -36 
Q 684 19 347 128 
L 347 722 
Q 666 556 975 473 
Q 1284 391 1588 391 
Q 1994 391 2212 530 
Q 2431 669 2431 922 
Q 2431 1156 2273 1281 
Q 2116 1406 1581 1522 
L 1381 1569 
Q 847 1681 609 1914 
Q 372 2147 372 2553 
Q 372 3047 722 3315 
Q 1072 3584 1716 3584 
Q 2034 3584 2315 3537 
Q 2597 3491 2834 3397 
z
" transform="scale(0.015625)"/>
      <path id="DejaVuSans-69" d="M 603 3500 
L 1178 3500 
L 1178 0 
L 603 0 
L 603 3500 
z
M 603 4863 
L 1178 4863 
L 1178 4134 
L 603 4134 
L 603 4863 
z
" transform="scale(0.015625)"/>
      <path id="DejaVuSans-7a" d="M 353 3500 
L 3084 3500 
L 3084 2975 
L 922 459 
L 3084 459 
L 3084 0 
L 275 0 
L 275 525 
L 2438 3041 
L 353 3041 
L 353 3500 
z
" transform="scale(0.015625)"/>
      <path id="DejaVuSans-28" d="M 1984 4856 
Q 1566 4138 1362 3434 
Q 1159 2731 1159 2009 
Q 1159 1288 1364 580 
Q 1569 -128 1984 -844 
L 1484 -844 
Q 1016 -109 783 600 
Q 550 1309 550 2009 
Q 550 2706 781 3412 
Q 1013 4119 1484 4856 
L 1984 4856 
z
" transform="scale(0.015625)"/>
      <path id="DejaVuSans-79" d="M 2059 -325 
Q 1816 -950 1584 -1140 
Q 1353 -1331 966 -1331 
L 506 -1331 
L 506 -850 
L 844 -850 
Q 1081 -850 1212 -737 
Q 1344 -625 1503 -206 
L 1606 56 
L 191 3500 
L 800 3500 
L 1894 763 
L 2988 3500 
L 3597 3500 
L 2059 -325 
z
" transform="scale(0.015625)"/>
      <path id="DejaVuSans-2d" d="M 313 2009 
L 1997 2009 
L 1997 1497 
L 313 1497 
L 313 2009 
z
" transform="scale(0.015625)"/>
      <path id="DejaVuSans-61" d="M 2194 1759 
Q 1497 1759 1228 1600 
Q 959 1441 959 1056 
Q 959 750 1161 570 
Q 1363 391 1709 391 
Q 2188 391 2477 730 
Q 2766 1069 2766 1631 
L 2766 1759 
L 2194 1759 
z
M 3341 1997 
L 3341 0 
L 2766 0 
L 2766 531 
Q 2569 213 2275 61 
Q 1981 -91 1556 -91 
Q 1019 -91 701 211 
Q 384 513 384 1019 
Q 384 1609 779 1909 
Q 1175 2209 1959 2209 
L 2766 2209 
L 2766 2266 
Q 2766 2663 2505 2880 
Q 2244 3097 1772 3097 
Q 1472 3097 1187 3025 
Q 903 2953 641 2809 
L 641 3341 
Q 956 3463 1253 3523 
Q 1550 3584 1831 3584 
Q 2591 3584 2966 3190 
Q 3341 2797 3341 1997 
z
" transform="scale(0.015625)"/>
      <path id="DejaVuSans-78" d="M 3513 3500 
L 2247 1797 
L 3578 0 
L 2900 0 
L 1881 1375 
L 863 0 
L 184 0 
L 1544 1831 
L 300 3500 
L 978 3500 
L 1906 2253 
L 2834 3500 
L 3513 3500 
z
" transform="scale(0.015625)"/>
      <path id="DejaVuSans-29" d="M 513 4856 
L 1013 4856 
Q 1481 4119 1714 3412 
Q 1947 2706 1947 2009 
Q 1947 1309 1714 600 
Q 1481 -109 1013 -844 
L 513 -844 
Q 928 -128 1133 580 
Q 1338 1288 1338 2009 
Q 1338 2731 1133 3434 
Q 928 4138 513 4856 
z
" transform="scale(0.015625)"/>
      <path id="DejaVuSans-62" d="M 3116 1747 
Q 3116 2381 2855 2742 
Q 2594 3103 2138 3103 
Q 1681 3103 1420 2742 
Q 1159 2381 1159 1747 
Q 1159 1113 1420 752 
Q 1681 391 2138 391 
Q 2594 391 2855 752 
Q 3116 1113 3116 1747 
z
M 1159 2969 
Q 1341 3281 1617 3432 
Q 1894 3584 2278 3584 
Q 2916 3584 3314 3078 
Q 3713 2572 3713 1747 
Q 3713 922 3314 415 
Q 2916 -91 2278 -91 
Q 1894 -91 1617 61 
Q 1341 213 1159 525 
L 1159 0 
L 581 0 
L 581 4863 
L 1159 4863 
L 1159 2969 
z
" transform="scale(0.015625)"/>
      <path id="DejaVuSans-74" d="M 1172 4494 
L 1172 3500 
L 2356 3500 
L 2356 3053 
L 1172 3053 
L 1172 1153 
Q 1172 725 1289 603 
Q 1406 481 1766 481 
L 2356 481 
L 2356 0 
L 1766 0 
Q 1100 0 847 248 
Q 594 497 594 1153 
L 594 3053 
L 172 3053 
L 172 3500 
L 594 3500 
L 594 4494 
L 1172 4494 
z
" transform="scale(0.015625)"/>
      <path id="DejaVuSans-77" d="M 269 3500 
L 844 3500 
L 1563 769 
L 2278 3500 
L 2956 3500 
L 3675 769 
L 4391 3500 
L 4966 3500 
L 4050 0 
L 3372 0 
L 2619 2869 
L 1863 0 
L 1184 0 
L 269 3500 
z
" transform="scale(0.015625)"/>
      <path id="DejaVuSans-6e" d="M 3513 2113 
L 3513 0 
L 2938 0 
L 2938 2094 
Q 2938 2591 2744 2837 
Q 2550 3084 2163 3084 
Q 1697 3084 1428 2787 
Q 1159 2491 1159 1978 
L 1159 0 
L 581 0 
L 581 3500 
L 1159 3500 
L 1159 2956 
Q 1366 3272 1645 3428 
Q 1925 3584 2291 3584 
Q 2894 3584 3203 3211 
Q 3513 2838 3513 2113 
z
" transform="scale(0.015625)"/>
      <path id="DejaVuSans-53" d="M 3425 4513 
L 3425 3897 
Q 3066 4069 2747 4153 
Q 2428 4238 2131 4238 
Q 1616 4238 1336 4038 
Q 1056 3838 1056 3469 
Q 1056 3159 1242 3001 
Q 1428 2844 1947 2747 
L 2328 2669 
Q 3034 2534 3370 2195 
Q 3706 1856 3706 1288 
Q 3706 609 3251 259 
Q 2797 -91 1919 -91 
Q 1588 -91 1214 -16 
Q 841 59 441 206 
L 441 856 
Q 825 641 1194 531 
Q 1563 422 1919 422 
Q 2459 422 2753 634 
Q 3047 847 3047 1241 
Q 3047 1584 2836 1778 
Q 2625 1972 2144 2069 
L 1759 2144 
Q 1053 2284 737 2584 
Q 422 2884 422 3419 
Q 422 4038 858 4394 
Q 1294 4750 2059 4750 
Q 2388 4750 2728 4690 
Q 3069 4631 3425 4513 
z
" transform="scale(0.015625)"/>
      <path id="DejaVuSans-64" d="M 2906 2969 
L 2906 4863 
L 3481 4863 
L 3481 0 
L 2906 0 
L 2906 525 
Q 2725 213 2448 61 
Q 2172 -91 1784 -91 
Q 1150 -91 751 415 
Q 353 922 353 1747 
Q 353 2572 751 3078 
Q 1150 3584 1784 3584 
Q 2172 3584 2448 3432 
Q 2725 3281 2906 2969 
z
M 947 1747 
Q 947 1113 1208 752 
Q 1469 391 1925 391 
Q 2381 391 2643 752 
Q 2906 1113 2906 1747 
Q 2906 2381 2643 2742 
Q 2381 3103 1925 3103 
Q 1469 3103 1208 2742 
Q 947 2381 947 1747 
z
" transform="scale(0.015625)"/>
      <path id="DejaVuSans-6f" d="M 1959 3097 
Q 1497 3097 1228 2736 
Q 959 2375 959 1747 
Q 959 1119 1226 758 
Q 1494 397 1959 397 
Q 2419 397 2687 759 
Q 2956 1122 2956 1747 
Q 2956 2369 2687 2733 
Q 2419 3097 1959 3097 
z
M 1959 3584 
Q 2709 3584 3137 3096 
Q 3566 2609 3566 1747 
Q 3566 888 3137 398 
Q 2709 -91 1959 -91 
Q 1206 -91 779 398 
Q 353 888 353 1747 
Q 353 2609 779 3096 
Q 1206 3584 1959 3584 
z
" transform="scale(0.015625)"/>
      <path id="DejaVuSans-72" d="M 2631 2963 
Q 2534 3019 2420 3045 
Q 2306 3072 2169 3072 
Q 1681 3072 1420 2755 
Q 1159 2438 1159 1844 
L 1159 0 
L 581 0 
L 581 3500 
L 1159 3500 
L 1159 2956 
Q 1341 3275 1631 3429 
Q 1922 3584 2338 3584 
Q 2397 3584 2469 3576 
Q 2541 3569 2628 3553 
L 2631 2963 
z
" transform="scale(0.015625)"/>
      <path id="DejaVuSans-68" d="M 3513 2113 
L 3513 0 
L 2938 0 
L 2938 2094 
Q 2938 2591 2744 2837 
Q 2550 3084 2163 3084 
Q 1697 3084 1428 2787 
Q 1159 2491 1159 1978 
L 1159 0 
L 581 0 
L 581 4863 
L 1159 4863 
L 1159 2956 
Q 1366 3272 1645 3428 
Q 1925 3584 2291 3584 
Q 2894 3584 3203 3211 
Q 3513 2838 3513 2113 
z
" transform="scale(0.015625)"/>
      <path id="DejaVuSans-66" d="M 2375 4863 
L 2375 4384 
L 1825 4384 
Q 1516 4384 1395 4259 
Q 1275 4134 1275 3809 
L 1275 3500 
L 2222 3500 
L 2222 3053 
L 1275 3053 
L 1275 0 
L 697 0 
L 697 3053 
L 147 3053 
L 147 3500 
L 697 3500 
L 697 3744 
Q 697 4328 969 4595 
Q 1241 4863 1831 4863 
L 2375 4863 
z
" transform="scale(0.015625)"/>
      <path id="DejaVuSans-6c" d="M 603 4863 
L 1178 4863 
L 1178 0 
L 603 0 
L 603 4863 
z
" transform="scale(0.015625)"/>
      <path id="DejaVuSans-6d" d="M 3328 2828 
Q 3544 3216 3844 3400 
Q 4144 3584 4550 3584 
Q 5097 3584 5394 3201 
Q 5691 2819 5691 2113 
L 5691 0 
L 5113 0 
L 5113 2094 
Q 5113 2597 4934 2840 
Q 4756 3084 4391 3084 
Q 3944 3084 3684 2787 
Q 3425 2491 3425 1978 
L 3425 0 
L 2847 0 
L 2847 2094 
Q 2847 2600 2669 2842 
Q 2491 3084 2119 3084 
Q 1678 3084 1418 2786 
Q 1159 2488 1159 1978 
L 1159 0 
L 581 0 
L 581 3500 
L 1159 3500 
L 1159 2956 
Q 1356 3278 1631 3431 
Q 1906 3584 2284 3584 
Q 2666 3584 2933 3390 
Q 3200 3197 3328 2828 
z
" transform="scale(0.015625)"/>
     </defs>
     <use xlink:href="#DejaVuSans-51"/>
     <use xlink:href="#DejaVuSans-75" x="78.710938"/>
     <use xlink:href="#DejaVuSans-65" x="142.089844"/>
     <use xlink:href="#DejaVuSans-75" x="203.613281"/>
     <use xlink:href="#DejaVuSans-65" x="266.992188"/>
     <use xlink:href="#DejaVuSans-20" x="328.515625"/>
     <use xlink:href="#DejaVuSans-73" x="360.302734"/>
     <use xlink:href="#DejaVuSans-69" x="412.402344"/>
     <use xlink:href="#DejaVuSans-7a" x="440.185547"/>
     <use xlink:href="#DejaVuSans-65" x="492.675781"/>
     <use xlink:href="#DejaVuSans-20" x="554.199219"/>
     <use xlink:href="#DejaVuSans-28" x="585.986328"/>
     <use xlink:href="#DejaVuSans-79" x="625"/>
     <use xlink:href="#DejaVuSans-2d" x="682.429688"/>
     <use xlink:href="#DejaVuSans-61" x="718.513672"/>
     <use xlink:href="#DejaVuSans-78" x="779.792969"/>
     <use xlink:href="#DejaVuSans-69" x="838.972656"/>
     <use xlink:href="#DejaVuSans-73" x="866.755859"/>
     <use xlink:href="#DejaVuSans-29" x="918.855469"/>
     <use xlink:href="#DejaVuSans-20" x="957.869141"/>
     <use xlink:href="#DejaVuSans-62" x="989.65625"/>
     <use xlink:href="#DejaVuSans-65" x="1053.132812"/>
     <use xlink:href="#DejaVuSans-74" x="1114.65625"/>
     <use xlink:href="#DejaVuSans-77" x="1153.865234"/>
     <use xlink:href="#DejaVuSans-65" x="1235.652344"/>
     <use xlink:href="#DejaVuSans-65" x="1297.175781"/>
     <use xlink:href="#DejaVuSans-6e" x="1358.699219"/>
     <use xlink:href="#DejaVuSans-20" x="1422.078125"/>
     <use xlink:href="#DejaVuSans-53" x="1453.865234"/>
     <use xlink:href="#DejaVuSans-37" x="1517.341797"/>
     <use xlink:href="#DejaVuSans-20" x="1580.964844"/>
     <use xlink:href="#DejaVuSans-61" x="1612.751953"/>
     <use xlink:href="#DejaVuSans-6e" x="1674.03125"/>
     <use xlink:href="#DejaVuSans-64" x="1737.410156"/>
     <use xlink:href="#DejaVuSans-20" x="1800.886719"/>
     <use xlink:href="#DejaVuSans-73" x="1832.673828"/>
     <use xlink:href="#DejaVuSans-65" x="1884.773438"/>
     <use xlink:href="#DejaVuSans-6e" x="1946.296875"/>
     <use xlink:href="#DejaVuSans-73" x="2009.675781"/>
     <use xlink:href="#DejaVuSans-6f" x="2061.775391"/>
     <use xlink:href="#DejaVuSans-72" x="2122.957031"/>
     <use xlink:href="#DejaVuSans-73" x="2164.070312"/>
     <use xlink:href="#DejaVuSans-20" x="2216.169922"/>
     <use xlink:href="#DejaVuSans-74" x="2247.957031"/>
     <use xlink:href="#DejaVuSans-68" x="2287.166016"/>
     <use xlink:href="#DejaVuSans-61" x="2350.544922"/>
     <use xlink:href="#DejaVuSans-74" x="2411.824219"/>
     <use xlink:href="#DejaVuSans-20" x="2451.033203"/>
     <use xlink:href="#DejaVuSans-66" x="2482.820312"/>
     <use xlink:href="#DejaVuSans-6f" x="2518.025391"/>
     <use xlink:href="#DejaVuSans-6c" x="2579.207031"/>
     <use xlink:href="#DejaVuSans-6c" x="2606.990234"/>
     <use xlink:href="#DejaVuSans-6f" x="2634.773438"/>
     <use xlink:href="#DejaVuSans-77" x="2695.955078"/>
     <use xlink:href="#DejaVuSans-20" x="2777.742188"/>
     <use xlink:href="#DejaVuSans-61" x="2809.529297"/>
     <use xlink:href="#DejaVuSans-74" x="2870.808594"/>
     <use xlink:href="#DejaVuSans-20" x="2910.017578"/>
     <use xlink:href="#DejaVuSans-61" x="2941.804688"/>
     <use xlink:href="#DejaVuSans-20" x="3003.083984"/>
     <use xlink:href="#DejaVuSans-74" x="3034.871094"/>
     <use xlink:href="#DejaVuSans-69" x="3074.080078"/>
     <use xlink:href="#DejaVuSans-6d" x="3101.863281"/>
     <use xlink:href="#DejaVuSans-65" x="3199.275391"/>
     <use xlink:href="#DejaVuSans-20" x="3260.798828"/>
     <use xlink:href="#DejaVuSans-28" x="3292.585938"/>
     <use xlink:href="#DejaVuSans-78" x="3331.599609"/>
     <use xlink:href="#DejaVuSans-2d" x="3390.779297"/>
     <use xlink:href="#DejaVuSans-61" x="3426.863281"/>
     <use xlink:href="#DejaVuSans-78" x="3488.142578"/>
     <use xlink:href="#DejaVuSans-69" x="3547.322266"/>
     <use xlink:href="#DejaVuSans-73" x="3575.105469"/>
     <use xlink:href="#DejaVuSans-29" x="3627.205078"/>
     <use xlink:href="#DejaVuSans-2e" x="3666.21875"/>
    </g>
   </g>
  </g>
 </g>
 <defs>
  <clipPath id="p39a6b04177">
   <rect x="57.6" y="41.472" width="357.12" height="266.112"/>
  </clipPath>
 </defs>
</svg>
