<?xml version="1.0" encoding="utf-8" standalone="no"?>
<!DOCTYPE svg PUBLIC "-//W3C//DTD SVG 1.1//EN"
  "http://www.w3.org/Graphics/SVG/1.1/DTD/svg11.dtd">
<svg xmlns:xlink="http://www.w3.org/1999/xlink" width="460.8pt" height="345.6pt" viewBox="0 0 460.8 345.6" xmlns="http://www.w3.org/2000/svg" version="1.1">
 <metadata>
  <rdf:RDF xmlns:dc="http://purl.org/dc/elements/1.1/" xmlns:cc="http://creativecommons.org/ns#" xmlns:rdf="http://www.w3.org/1999/02/22-rdf-syntax-ns#">
   <cc:Work>
    <dc:type rdf:resource="http://purl.org/dc/dcmitype/StillImage"/>
    <dc:date>2024-03-08T13:03:26.959237</dc:date>
    <dc:format>image/svg+xml</dc:format>
    <dc:creator>
     <cc:Agent>
      <dc:title>Matplotlib v3.8.2, https://matplotlib.org/</dc:title>
     </cc:Agent>
    </dc:creator>
   </cc:Work>
  </rdf:RDF>
 </metadata>
 <defs>
  <style type="text/css">*{stroke-linejoin: round; stroke-linecap: butt}</style>
 </defs>
 <g id="figure_1">
  <g id="patch_1">
   <path d="M 0 345.6 
L 460.8 345.6 
L 460.8 0 
L 0 0 
z
" style="fill: #ffffff"/>
  </g>
  <g id="axes_1">
   <g id="patch_2">
    <path d="M 57.6 307.584 
L 414.72 307.584 
L 414.72 41.472 
L 57.6 41.472 
z
" style="fill: #ffffff"/>
   </g>
   <g id="matplotlib.axis_1">
    <g id="xtick_1">
     <g id="line2d_1">
      <defs>
       <path id="mb4a2c5601b" d="M 0 0 
L 0 3.5 
" style="stroke: #000000; stroke-width: 0.8"/>
      </defs>
      <g>
       <use xlink:href="#mb4a2c5601b" x="73.832727" y="307.584" style="stroke: #000000; stroke-width: 0.8"/>
      </g>
     </g>
     <g id="text_1">
      <!-- 0 -->
      <g transform="translate(70.651477 322.182437) scale(0.1 -0.1)">
       <defs>
        <path id="DejaVuSans-30" d="M 2034 4250 
Q 1547 4250 1301 3770 
Q 1056 3291 1056 2328 
Q 1056 1369 1301 889 
Q 1547 409 2034 409 
Q 2525 409 2770 889 
Q 3016 1369 3016 2328 
Q 3016 3291 2770 3770 
Q 2525 4250 2034 4250 
z
M 2034 4750 
Q 2819 4750 3233 4129 
Q 3647 3509 3647 2328 
Q 3647 1150 3233 529 
Q 2819 -91 2034 -91 
Q 1250 -91 836 529 
Q 422 1150 422 2328 
Q 422 3509 836 4129 
Q 1250 4750 2034 4750 
z
" transform="scale(0.015625)"/>
       </defs>
       <use xlink:href="#DejaVuSans-30"/>
      </g>
     </g>
    </g>
    <g id="xtick_2">
     <g id="line2d_2">
      <g>
       <use xlink:href="#mb4a2c5601b" x="133.227997" y="307.584" style="stroke: #000000; stroke-width: 0.8"/>
      </g>
     </g>
     <g id="text_2">
      <!-- 20000 -->
      <g transform="translate(117.321747 322.182437) scale(0.1 -0.1)">
       <defs>
        <path id="DejaVuSans-32" d="M 1228 531 
L 3431 531 
L 3431 0 
L 469 0 
L 469 531 
Q 828 903 1448 1529 
Q 2069 2156 2228 2338 
Q 2531 2678 2651 2914 
Q 2772 3150 2772 3378 
Q 2772 3750 2511 3984 
Q 2250 4219 1831 4219 
Q 1534 4219 1204 4116 
Q 875 4013 500 3803 
L 500 4441 
Q 881 4594 1212 4672 
Q 1544 4750 1819 4750 
Q 2544 4750 2975 4387 
Q 3406 4025 3406 3419 
Q 3406 3131 3298 2873 
Q 3191 2616 2906 2266 
Q 2828 2175 2409 1742 
Q 1991 1309 1228 531 
z
" transform="scale(0.015625)"/>
       </defs>
       <use xlink:href="#DejaVuSans-32"/>
       <use xlink:href="#DejaVuSans-30" x="63.623047"/>
       <use xlink:href="#DejaVuSans-30" x="127.246094"/>
       <use xlink:href="#DejaVuSans-30" x="190.869141"/>
       <use xlink:href="#DejaVuSans-30" x="254.492188"/>
      </g>
     </g>
    </g>
    <g id="xtick_3">
     <g id="line2d_3">
      <g>
       <use xlink:href="#mb4a2c5601b" x="192.623267" y="307.584" style="stroke: #000000; stroke-width: 0.8"/>
      </g>
     </g>
     <g id="text_3">
      <!-- 40000 -->
      <g transform="translate(176.717017 322.182437) scale(0.1 -0.1)">
       <defs>
        <path id="DejaVuSans-34" d="M 2419 4116 
L 825 1625 
L 2419 1625 
L 2419 4116 
z
M 2253 4666 
L 3047 4666 
L 3047 1625 
L 3713 1625 
L 3713 1100 
L 3047 1100 
L 3047 0 
L 2419 0 
L 2419 1100 
L 313 1100 
L 313 1709 
L 2253 4666 
z
" transform="scale(0.015625)"/>
       </defs>
       <use xlink:href="#DejaVuSans-34"/>
       <use xlink:href="#DejaVuSans-30" x="63.623047"/>
       <use xlink:href="#DejaVuSans-30" x="127.246094"/>
       <use xlink:href="#DejaVuSans-30" x="190.869141"/>
       <use xlink:href="#DejaVuSans-30" x="254.492188"/>
      </g>
     </g>
    </g>
    <g id="xtick_4">
     <g id="line2d_4">
      <g>
       <use xlink:href="#mb4a2c5601b" x="252.018537" y="307.584" style="stroke: #000000; stroke-width: 0.8"/>
      </g>
     </g>
     <g id="text_4">
      <!-- 60000 -->
      <g transform="translate(236.112287 322.182437) scale(0.1 -0.1)">
       <defs>
        <path id="DejaVuSans-36" d="M 2113 2584 
Q 1688 2584 1439 2293 
Q 1191 2003 1191 1497 
Q 1191 994 1439 701 
Q 1688 409 2113 409 
Q 2538 409 2786 701 
Q 3034 994 3034 1497 
Q 3034 2003 2786 2293 
Q 2538 2584 2113 2584 
z
M 3366 4563 
L 3366 3988 
Q 3128 4100 2886 4159 
Q 2644 4219 2406 4219 
Q 1781 4219 1451 3797 
Q 1122 3375 1075 2522 
Q 1259 2794 1537 2939 
Q 1816 3084 2150 3084 
Q 2853 3084 3261 2657 
Q 3669 2231 3669 1497 
Q 3669 778 3244 343 
Q 2819 -91 2113 -91 
Q 1303 -91 875 529 
Q 447 1150 447 2328 
Q 447 3434 972 4092 
Q 1497 4750 2381 4750 
Q 2619 4750 2861 4703 
Q 3103 4656 3366 4563 
z
" transform="scale(0.015625)"/>
       </defs>
       <use xlink:href="#DejaVuSans-36"/>
       <use xlink:href="#DejaVuSans-30" x="63.623047"/>
       <use xlink:href="#DejaVuSans-30" x="127.246094"/>
       <use xlink:href="#DejaVuSans-30" x="190.869141"/>
       <use xlink:href="#DejaVuSans-30" x="254.492188"/>
      </g>
     </g>
    </g>
    <g id="xtick_5">
     <g id="line2d_5">
      <g>
       <use xlink:href="#mb4a2c5601b" x="311.413807" y="307.584" style="stroke: #000000; stroke-width: 0.8"/>
      </g>
     </g>
     <g id="text_5">
      <!-- 80000 -->
      <g transform="translate(295.507557 322.182437) scale(0.1 -0.1)">
       <defs>
        <path id="DejaVuSans-38" d="M 2034 2216 
Q 1584 2216 1326 1975 
Q 1069 1734 1069 1313 
Q 1069 891 1326 650 
Q 1584 409 2034 409 
Q 2484 409 2743 651 
Q 3003 894 3003 1313 
Q 3003 1734 2745 1975 
Q 2488 2216 2034 2216 
z
M 1403 2484 
Q 997 2584 770 2862 
Q 544 3141 544 3541 
Q 544 4100 942 4425 
Q 1341 4750 2034 4750 
Q 2731 4750 3128 4425 
Q 3525 4100 3525 3541 
Q 3525 3141 3298 2862 
Q 3072 2584 2669 2484 
Q 3125 2378 3379 2068 
Q 3634 1759 3634 1313 
Q 3634 634 3220 271 
Q 2806 -91 2034 -91 
Q 1263 -91 848 271 
Q 434 634 434 1313 
Q 434 1759 690 2068 
Q 947 2378 1403 2484 
z
M 1172 3481 
Q 1172 3119 1398 2916 
Q 1625 2713 2034 2713 
Q 2441 2713 2670 2916 
Q 2900 3119 2900 3481 
Q 2900 3844 2670 4047 
Q 2441 4250 2034 4250 
Q 1625 4250 1398 4047 
Q 1172 3844 1172 3481 
z
" transform="scale(0.015625)"/>
       </defs>
       <use xlink:href="#DejaVuSans-38"/>
       <use xlink:href="#DejaVuSans-30" x="63.623047"/>
       <use xlink:href="#DejaVuSans-30" x="127.246094"/>
       <use xlink:href="#DejaVuSans-30" x="190.869141"/>
       <use xlink:href="#DejaVuSans-30" x="254.492188"/>
      </g>
     </g>
    </g>
    <g id="xtick_6">
     <g id="line2d_6">
      <g>
       <use xlink:href="#mb4a2c5601b" x="370.809077" y="307.584" style="stroke: #000000; stroke-width: 0.8"/>
      </g>
     </g>
     <g id="text_6">
      <!-- 100000 -->
      <g transform="translate(351.721577 322.182437) scale(0.1 -0.1)">
       <defs>
        <path id="DejaVuSans-31" d="M 794 531 
L 1825 531 
L 1825 4091 
L 703 3866 
L 703 4441 
L 1819 4666 
L 2450 4666 
L 2450 531 
L 3481 531 
L 3481 0 
L 794 0 
L 794 531 
z
" transform="scale(0.015625)"/>
       </defs>
       <use xlink:href="#DejaVuSans-31"/>
       <use xlink:href="#DejaVuSans-30" x="63.623047"/>
       <use xlink:href="#DejaVuSans-30" x="127.246094"/>
       <use xlink:href="#DejaVuSans-30" x="190.869141"/>
       <use xlink:href="#DejaVuSans-30" x="254.492188"/>
       <use xlink:href="#DejaVuSans-30" x="318.115234"/>
      </g>
     </g>
    </g>
   </g>
   <g id="matplotlib.axis_2">
    <g id="ytick_1">
     <g id="line2d_7">
      <defs>
       <path id="m2a018aaf99" d="M 0 0 
L -3.5 0 
" style="stroke: #000000; stroke-width: 0.8"/>
      </defs>
      <g>
       <use xlink:href="#m2a018aaf99" x="57.6" y="295.488" style="stroke: #000000; stroke-width: 0.8"/>
      </g>
     </g>
     <g id="text_7">
      <!-- 0.0 -->
      <g transform="translate(34.696875 299.287219) scale(0.1 -0.1)">
       <defs>
        <path id="DejaVuSans-2e" d="M 684 794 
L 1344 794 
L 1344 0 
L 684 0 
L 684 794 
z
" transform="scale(0.015625)"/>
       </defs>
       <use xlink:href="#DejaVuSans-30"/>
       <use xlink:href="#DejaVuSans-2e" x="63.623047"/>
       <use xlink:href="#DejaVuSans-30" x="95.410156"/>
      </g>
     </g>
    </g>
    <g id="ytick_2">
     <g id="line2d_8">
      <g>
       <use xlink:href="#m2a018aaf99" x="57.6" y="247.104" style="stroke: #000000; stroke-width: 0.8"/>
      </g>
     </g>
     <g id="text_8">
      <!-- 0.2 -->
      <g transform="translate(34.696875 250.903219) scale(0.1 -0.1)">
       <use xlink:href="#DejaVuSans-30"/>
       <use xlink:href="#DejaVuSans-2e" x="63.623047"/>
       <use xlink:href="#DejaVuSans-32" x="95.410156"/>
      </g>
     </g>
    </g>
    <g id="ytick_3">
     <g id="line2d_9">
      <g>
       <use xlink:href="#m2a018aaf99" x="57.6" y="198.72" style="stroke: #000000; stroke-width: 0.8"/>
      </g>
     </g>
     <g id="text_9">
      <!-- 0.4 -->
      <g transform="translate(34.696875 202.519219) scale(0.1 -0.1)">
       <use xlink:href="#DejaVuSans-30"/>
       <use xlink:href="#DejaVuSans-2e" x="63.623047"/>
       <use xlink:href="#DejaVuSans-34" x="95.410156"/>
      </g>
     </g>
    </g>
    <g id="ytick_4">
     <g id="line2d_10">
      <g>
       <use xlink:href="#m2a018aaf99" x="57.6" y="150.336" style="stroke: #000000; stroke-width: 0.8"/>
      </g>
     </g>
     <g id="text_10">
      <!-- 0.6 -->
      <g transform="translate(34.696875 154.135219) scale(0.1 -0.1)">
       <use xlink:href="#DejaVuSans-30"/>
       <use xlink:href="#DejaVuSans-2e" x="63.623047"/>
       <use xlink:href="#DejaVuSans-36" x="95.410156"/>
      </g>
     </g>
    </g>
    <g id="ytick_5">
     <g id="line2d_11">
      <g>
       <use xlink:href="#m2a018aaf99" x="57.6" y="101.952" style="stroke: #000000; stroke-width: 0.8"/>
      </g>
     </g>
     <g id="text_11">
      <!-- 0.8 -->
      <g transform="translate(34.696875 105.751219) scale(0.1 -0.1)">
       <use xlink:href="#DejaVuSans-30"/>
       <use xlink:href="#DejaVuSans-2e" x="63.623047"/>
       <use xlink:href="#DejaVuSans-38" x="95.410156"/>
      </g>
     </g>
    </g>
    <g id="ytick_6">
     <g id="line2d_12">
      <g>
       <use xlink:href="#m2a018aaf99" x="57.6" y="53.568" style="stroke: #000000; stroke-width: 0.8"/>
      </g>
     </g>
     <g id="text_12">
      <!-- 1.0 -->
      <g transform="translate(34.696875 57.367219) scale(0.1 -0.1)">
       <use xlink:href="#DejaVuSans-31"/>
       <use xlink:href="#DejaVuSans-2e" x="63.623047"/>
       <use xlink:href="#DejaVuSans-30" x="95.410156"/>
      </g>
     </g>
    </g>
   </g>
   <g id="line2d_13">
    <path d="M 73.832727 295.488 
L 82.71232 295.488 
L 82.742018 101.517886 
L 82.742018 101.517886 
L 88.057894 101.517886 
L 88.11729 100.925912 
L 88.354871 100.925912 
L 88.354871 100.728587 
L 89.513079 100.728587 
L 89.542776 100.136613 
L 89.542776 100.136613 
L 89.631869 100.136613 
L 89.691264 99.544639 
L 89.75066 99.544639 
L 89.75066 99.347315 
L 95.155629 99.347315 
L 95.155629 99.14999 
L 97.53144 99.14999 
L 97.53144 98.952666 
L 102.015783 98.952666 
L 102.015783 98.755341 
L 104.361896 98.755341 
L 104.361896 98.558016 
L 104.807361 98.558016 
L 104.807361 98.360692 
L 105.015244 98.360692 
L 105.015244 98.163367 
L 108.965029 98.163367 
L 108.965029 97.966042 
L 110.390516 97.966042 
L 110.390516 97.768718 
L 111.519026 97.768718 
L 111.519026 97.374069 
L 111.519026 97.374069 
L 113.330582 97.374069 
L 113.330582 97.176744 
L 115.914276 97.176744 
L 115.943974 96.782095 
L 118.438575 96.782095 
L 118.438575 96.58477 
L 118.646458 96.58477 
L 118.646458 96.387445 
L 120.250131 96.387445 
L 120.250131 96.190121 
L 121.467734 96.190121 
L 121.467734 95.992796 
L 122.804127 95.992796 
L 122.804127 95.795471 
L 125.328426 95.795471 
L 125.328426 95.598147 
L 125.53631 95.598147 
L 125.53631 95.400822 
L 127.021191 95.400822 
L 127.021191 95.203498 
L 127.347865 95.203498 
L 127.347865 95.006173 
L 129.990955 95.006173 
L 129.990955 94.808848 
L 131.000675 94.808848 
L 131.000675 94.611524 
L 132.396463 94.611524 
L 132.426161 94.216874 
L 132.634045 94.216874 
L 132.634045 94.01955 
L 134.208019 94.01955 
L 134.208019 93.822225 
L 134.772274 93.822225 
L 134.861367 93.427576 
L 137.118387 93.427576 
L 137.118387 93.230251 
L 137.771735 93.230251 
L 137.771735 93.032927 
L 138.187502 93.032927 
L 138.187502 92.835602 
L 138.870548 92.835602 
L 138.870548 92.638277 
L 139.316012 92.638277 
L 139.375408 92.243628 
L 140.35543 92.243628 
L 140.35543 92.046303 
L 141.216661 92.046303 
L 141.216661 91.848979 
L 141.632428 91.848979 
L 141.632428 91.651654 
L 143.711262 91.651654 
L 143.711262 91.45433 
L 143.978541 91.45433 
L 143.978541 91.257005 
L 144.334913 91.257005 
L 144.334913 91.05968 
L 144.839772 91.05968 
L 144.839772 90.862356 
L 145.87919 90.862356 
L 145.87919 90.665031 
L 146.265259 90.665031 
L 146.354352 90.270382 
L 148.13621 90.270382 
L 148.13621 90.073057 
L 148.462884 90.073057 
L 148.462884 89.875732 
L 149.26472 89.875732 
L 149.26472 89.678408 
L 149.88837 89.678408 
L 149.88837 89.481083 
L 151.076276 89.481083 
L 151.076276 89.283759 
L 151.373252 89.283759 
L 151.373252 89.086434 
L 151.818717 89.086434 
L 151.818717 88.889109 
L 153.362994 88.889109 
L 153.422389 88.49446 
L 154.847875 88.49446 
L 154.847875 88.297135 
L 155.085457 88.297135 
L 155.085457 88.099811 
L 155.471526 88.099811 
L 155.471526 87.902486 
L 155.649712 87.902486 
L 155.649712 87.705162 
L 157.075198 87.705162 
L 157.075198 87.507837 
L 158.025522 87.507837 
L 158.025522 87.310512 
L 158.767963 87.310512 
L 158.767963 87.113188 
L 160.371636 87.113188 
L 160.460728 86.718538 
L 160.520124 86.718538 
L 160.520124 86.521214 
L 160.935891 86.521214 
L 160.935891 86.323889 
L 162.005005 86.323889 
L 162.005005 86.126564 
L 162.658353 86.126564 
L 162.688051 85.731915 
L 165.123257 85.731915 
L 165.123257 85.534591 
L 165.895396 85.534591 
L 165.984489 85.139941 
L 166.34086 85.139941 
L 166.34086 84.942617 
L 166.816022 84.942617 
L 166.816022 84.745292 
L 167.35058 84.745292 
L 167.35058 84.547967 
L 167.46937 84.547967 
L 167.46937 84.350643 
L 168.241509 84.350643 
L 168.241509 84.153318 
L 169.10274 84.153318 
L 169.10274 83.955993 
L 169.726391 83.955993 
L 169.726391 83.758669 
L 171.567644 83.758669 
L 171.567644 83.561344 
L 171.805225 83.561344 
L 171.805225 83.36402 
L 172.072504 83.36402 
L 172.072504 83.166695 
L 172.844642 83.166695 
L 172.844642 82.96937 
L 173.854362 82.96937 
L 173.854362 82.772046 
L 174.299826 82.772046 
L 174.299826 82.574721 
L 174.448315 82.574721 
L 174.448315 82.377396 
L 176.111382 82.377396 
L 176.170777 81.982747 
L 176.824125 81.982747 
L 176.824125 81.785423 
L 177.121102 81.785423 
L 177.121102 81.588098 
L 177.358683 81.588098 
L 177.358683 81.390773 
L 179.437517 81.390773 
L 179.437517 81.193449 
L 179.645401 81.193449 
L 179.645401 80.996124 
L 180.476934 80.996124 
L 180.476934 80.798799 
L 181.189678 80.798799 
L 181.189678 80.601475 
L 181.486654 80.601475 
L 181.486654 80.40415 
L 182.763652 80.40415 
L 182.852745 80.009501 
L 182.912141 80.009501 
L 182.912141 79.812176 
L 183.743674 79.812176 
L 183.743674 79.614852 
L 185.080068 79.614852 
L 185.080068 79.417527 
L 185.703718 79.417527 
L 185.703718 79.220202 
L 186.535252 79.220202 
L 186.535252 79.022878 
L 188.19832 79.022878 
L 188.19832 78.825553 
L 188.376505 78.825553 
L 188.406203 78.430904 
L 188.495296 78.430904 
L 188.495296 78.233579 
L 189.772294 78.233579 
L 189.772294 78.036254 
L 190.039573 78.036254 
L 190.039573 77.83893 
L 190.514735 77.83893 
L 190.544433 77.444281 
L 193.395406 77.444281 
L 193.395406 77.246956 
L 193.84087 77.246956 
L 193.929963 76.852307 
L 195.117868 76.852307 
L 195.117868 76.654982 
L 195.414845 76.654982 
L 195.503938 76.260333 
L 196.127588 76.260333 
L 196.127588 76.063008 
L 196.751238 76.063008 
L 196.751238 75.865684 
L 197.404586 75.865684 
L 197.404586 75.668359 
L 199.424026 75.668359 
L 199.513118 75.27371 
L 199.661607 75.27371 
L 199.661607 75.076385 
L 200.314955 75.076385 
L 200.314955 74.87906 
L 201.740441 74.87906 
L 201.740441 74.681736 
L 202.067115 74.681736 
L 202.067115 74.484411 
L 202.571975 74.484411 
L 202.571975 74.287086 
L 203.878671 74.287086 
L 203.878671 74.089762 
L 204.472623 74.089762 
L 204.472623 73.892437 
L 205.007181 73.892437 
L 205.007181 73.695113 
L 205.125971 73.695113 
L 205.185367 73.300463 
L 207.175108 73.300463 
L 207.175108 73.103139 
L 207.382992 73.103139 
L 207.382992 72.905814 
L 208.897571 72.905814 
L 208.897571 72.708489 
L 209.016362 72.708489 
L 209.016362 72.511165 
L 209.66971 72.511165 
L 209.66971 72.31384 
L 210.590336 72.31384 
L 210.590336 72.116515 
L 210.768522 72.116515 
L 210.827917 71.721866 
L 211.570358 71.721866 
L 211.570358 71.524542 
L 212.847357 71.524542 
L 212.847357 71.327217 
L 214.272843 71.327217 
L 214.272843 71.129892 
L 214.68861 71.129892 
L 214.68861 70.932568 
L 215.965608 70.932568 
L 215.965608 70.735243 
L 216.232887 70.735243 
L 216.262585 70.340594 
L 216.82684 70.340594 
L 216.82684 70.143269 
L 217.717769 70.143269 
L 217.717769 69.945945 
L 218.252326 69.945945 
L 218.252326 69.74862 
L 218.371117 69.74862 
L 218.46021 69.353971 
L 221.192392 69.353971 
L 221.192392 69.156646 
L 221.726949 69.156646 
L 221.816042 68.761997 
L 223.835481 68.761997 
L 223.835481 68.564672 
L 224.073063 68.564672 
L 224.162155 67.972698 
L 224.60762 67.972698 
L 224.60762 67.775374 
L 225.320363 67.775374 
L 225.320363 67.578049 
L 227.221012 67.578049 
L 227.221012 67.380724 
L 227.755569 67.380724 
L 227.755569 67.1834 
L 228.022848 67.1834 
L 228.022848 66.986075 
L 229.656218 66.986075 
L 229.656218 66.78875 
L 230.933216 66.78875 
L 230.933216 66.591426 
L 232.329005 66.591426 
L 232.329005 66.394101 
L 232.804167 66.394101 
L 232.804167 66.196777 
L 233.754492 66.196777 
L 233.754492 65.999452 
L 235.061188 65.999452 
L 235.061188 65.802127 
L 235.239373 65.802127 
L 235.239373 65.604803 
L 237.347905 65.604803 
L 237.347905 65.407478 
L 238.001253 65.407478 
L 238.001253 65.210153 
L 238.357625 65.210153 
L 238.357625 65.012829 
L 239.367345 65.012829 
L 239.367345 64.815504 
L 240.733436 64.815504 
L 240.733436 64.618179 
L 242.158922 64.618179 
L 242.158922 64.420855 
L 243.049851 64.420855 
L 243.049851 64.22353 
L 243.168642 64.22353 
L 243.168642 64.026206 
L 243.94078 64.026206 
L 243.94078 63.828881 
L 244.802012 63.828881 
L 244.802012 63.631556 
L 246.346289 63.631556 
L 246.346289 63.236907 
L 246.346289 63.236907 
L 246.672963 63.236907 
L 246.672963 63.039582 
L 249.048774 63.039582 
L 249.048774 62.842258 
L 249.553633 62.842258 
L 249.553633 62.644933 
L 251.870049 62.644933 
L 251.899747 62.250284 
L 252.523397 62.250284 
L 252.523397 62.052959 
L 252.642187 62.052959 
L 252.642187 61.855635 
L 253.325233 61.855635 
L 253.325233 61.65831 
L 255.077393 61.65831 
L 255.077393 61.460985 
L 256.354392 61.460985 
L 256.354392 61.263661 
L 258.611412 61.263661 
L 258.611412 61.066336 
L 258.730203 61.066336 
L 258.730203 60.869011 
L 261.848454 60.869011 
L 261.848454 60.671687 
L 265.620054 60.671687 
L 265.620054 60.474362 
L 271.322 60.474362 
L 271.322 60.277038 
L 272.539603 60.277038 
L 272.539603 60.079713 
L 279.399757 60.079713 
L 279.399757 59.882388 
L 281.033126 59.882388 
L 281.033126 59.685064 
L 286.319305 59.685064 
L 286.319305 59.487739 
L 287.032049 59.487739 
L 287.032049 59.290414 
L 290.566067 59.290414 
L 290.566067 59.09309 
L 293.387343 59.09309 
L 293.387343 58.895765 
L 293.892202 58.895765 
L 293.892202 58.69844 
L 299.980218 58.69844 
L 299.980218 58.501116 
L 300.336589 58.501116 
L 300.336589 58.303791 
L 301.049332 58.303791 
L 301.049332 58.106467 
L 307.196743 58.106467 
L 307.196743 57.909142 
L 307.850091 57.909142 
L 307.850091 57.711817 
L 309.513158 57.711817 
L 309.513158 57.514493 
L 314.116292 57.514493 
L 314.116292 57.317168 
L 314.918128 57.317168 
L 314.918128 57.119843 
L 318.986704 57.119843 
L 318.986704 56.922519 
L 321.095236 56.922519 
L 321.095236 56.725194 
L 322.015863 56.725194 
L 322.015863 56.527869 
L 328.222668 56.527869 
L 328.311761 56.13322 
L 328.905714 56.13322 
L 328.905714 55.935896 
L 335.082822 55.935896 
L 335.082822 55.738571 
L 335.914356 55.738571 
L 335.914356 55.541246 
L 342.150859 55.541246 
L 342.150859 55.343922 
L 342.952695 55.343922 
L 342.952695 55.146597 
L 349.961337 55.146597 
L 349.961337 54.949272 
L 356.732398 54.949272 
L 356.732398 54.751948 
L 363.681645 54.751948 
L 363.681645 54.554623 
L 370.779379 54.554623 
L 370.779379 54.357299 
L 377.639533 54.357299 
L 377.639533 54.159974 
L 384.70757 54.159974 
L 384.70757 53.962649 
L 391.448933 53.962649 
L 391.448933 53.765325 
L 398.487273 53.765325 
L 398.487273 53.568 
L 398.487273 53.568 
" clip-path="url(#pec3c313f64)" style="fill: none; stroke: #1f77b4; stroke-width: 1.5; stroke-linecap: square"/>
   </g>
   <g id="patch_3">
    <path d="M 57.6 307.584 
L 57.6 41.472 
" style="fill: none; stroke: #000000; stroke-width: 0.8; stroke-linejoin: miter; stroke-linecap: square"/>
   </g>
   <g id="patch_4">
    <path d="M 414.72 307.584 
L 414.72 41.472 
" style="fill: none; stroke: #000000; stroke-width: 0.8; stroke-linejoin: miter; stroke-linecap: square"/>
   </g>
   <g id="patch_5">
    <path d="M 57.6 307.584 
L 414.72 307.584 
" style="fill: none; stroke: #000000; stroke-width: 0.8; stroke-linejoin: miter; stroke-linecap: square"/>
   </g>
   <g id="patch_6">
    <path d="M 57.6 41.472 
L 414.72 41.472 
" style="fill: none; stroke: #000000; stroke-width: 0.8; stroke-linejoin: miter; stroke-linecap: square"/>
   </g>
   <g id="text_13">
    <!-- S1 S2 -->
    <g transform="translate(219 35.472) scale(0.12 -0.12)">
     <defs>
      <path id="DejaVuSans-53" d="M 3425 4513 
L 3425 3897 
Q 3066 4069 2747 4153 
Q 2428 4238 2131 4238 
Q 1616 4238 1336 4038 
Q 1056 3838 1056 3469 
Q 1056 3159 1242 3001 
Q 1428 2844 1947 2747 
L 2328 2669 
Q 3034 2534 3370 2195 
Q 3706 1856 3706 1288 
Q 3706 609 3251 259 
Q 2797 -91 1919 -91 
Q 1588 -91 1214 -16 
Q 841 59 441 206 
L 441 856 
Q 825 641 1194 531 
Q 1563 422 1919 422 
Q 2459 422 2753 634 
Q 3047 847 3047 1241 
Q 3047 1584 2836 1778 
Q 2625 1972 2144 2069 
L 1759 2144 
Q 1053 2284 737 2584 
Q 422 2884 422 3419 
Q 422 4038 858 4394 
Q 1294 4750 2059 4750 
Q 2388 4750 2728 4690 
Q 3069 4631 3425 4513 
z
" transform="scale(0.015625)"/>
      <path id="DejaVuSans-20" transform="scale(0.015625)"/>
     </defs>
     <use xlink:href="#DejaVuSans-53"/>
     <use xlink:href="#DejaVuSans-31" x="63.476562"/>
     <use xlink:href="#DejaVuSans-20" x="127.099609"/>
     <use xlink:href="#DejaVuSans-53" x="158.886719"/>
     <use xlink:href="#DejaVuSans-32" x="222.363281"/>
    </g>
   </g>
   <g id="legend_1">
    <g id="patch_7">
     <path d="M 299.496562 304.584 
L 410.52 304.584 
Q 411.72 304.584 411.72 303.384 
L 411.72 295.177125 
Q 411.72 293.977125 410.52 293.977125 
L 299.496562 293.977125 
Q 298.296562 293.977125 298.296562 295.177125 
L 298.296562 303.384 
Q 298.296562 304.584 299.496562 304.584 
z
" style="fill: #ffffff; opacity: 0.8; stroke: #cccccc; stroke-linejoin: miter"/>
    </g>
    <g id="line2d_14">
     <path d="M 300.696562 298.836187 
L 306.696562 298.836187 
L 312.696562 298.836187 
" style="fill: none; stroke: #1f77b4; stroke-width: 1.5; stroke-linecap: square"/>
    </g>
    <g id="text_14">
     <!-- Execution time between S1 S2 -->
     <g transform="translate(317.496562 300.936187) scale(0.06 -0.06)">
      <defs>
       <path id="DejaVuSans-45" d="M 628 4666 
L 3578 4666 
L 3578 4134 
L 1259 4134 
L 1259 2753 
L 3481 2753 
L 3481 2222 
L 1259 2222 
L 1259 531 
L 3634 531 
L 3634 0 
L 628 0 
L 628 4666 
z
" transform="scale(0.015625)"/>
       <path id="DejaVuSans-78" d="M 3513 3500 
L 2247 1797 
L 3578 0 
L 2900 0 
L 1881 1375 
L 863 0 
L 184 0 
L 1544 1831 
L 300 3500 
L 978 3500 
L 1906 2253 
L 2834 3500 
L 3513 3500 
z
" transform="scale(0.015625)"/>
       <path id="DejaVuSans-65" d="M 3597 1894 
L 3597 1613 
L 953 1613 
Q 991 1019 1311 708 
Q 1631 397 2203 397 
Q 2534 397 2845 478 
Q 3156 559 3463 722 
L 3463 178 
Q 3153 47 2828 -22 
Q 2503 -91 2169 -91 
Q 1331 -91 842 396 
Q 353 884 353 1716 
Q 353 2575 817 3079 
Q 1281 3584 2069 3584 
Q 2775 3584 3186 3129 
Q 3597 2675 3597 1894 
z
M 3022 2063 
Q 3016 2534 2758 2815 
Q 2500 3097 2075 3097 
Q 1594 3097 1305 2825 
Q 1016 2553 972 2059 
L 3022 2063 
z
" transform="scale(0.015625)"/>
       <path id="DejaVuSans-63" d="M 3122 3366 
L 3122 2828 
Q 2878 2963 2633 3030 
Q 2388 3097 2138 3097 
Q 1578 3097 1268 2742 
Q 959 2388 959 1747 
Q 959 1106 1268 751 
Q 1578 397 2138 397 
Q 2388 397 2633 464 
Q 2878 531 3122 666 
L 3122 134 
Q 2881 22 2623 -34 
Q 2366 -91 2075 -91 
Q 1284 -91 818 406 
Q 353 903 353 1747 
Q 353 2603 823 3093 
Q 1294 3584 2113 3584 
Q 2378 3584 2631 3529 
Q 2884 3475 3122 3366 
z
" transform="scale(0.015625)"/>
       <path id="DejaVuSans-75" d="M 544 1381 
L 544 3500 
L 1119 3500 
L 1119 1403 
Q 1119 906 1312 657 
Q 1506 409 1894 409 
Q 2359 409 2629 706 
Q 2900 1003 2900 1516 
L 2900 3500 
L 3475 3500 
L 3475 0 
L 2900 0 
L 2900 538 
Q 2691 219 2414 64 
Q 2138 -91 1772 -91 
Q 1169 -91 856 284 
Q 544 659 544 1381 
z
M 1991 3584 
L 1991 3584 
z
" transform="scale(0.015625)"/>
       <path id="DejaVuSans-74" d="M 1172 4494 
L 1172 3500 
L 2356 3500 
L 2356 3053 
L 1172 3053 
L 1172 1153 
Q 1172 725 1289 603 
Q 1406 481 1766 481 
L 2356 481 
L 2356 0 
L 1766 0 
Q 1100 0 847 248 
Q 594 497 594 1153 
L 594 3053 
L 172 3053 
L 172 3500 
L 594 3500 
L 594 4494 
L 1172 4494 
z
" transform="scale(0.015625)"/>
       <path id="DejaVuSans-69" d="M 603 3500 
L 1178 3500 
L 1178 0 
L 603 0 
L 603 3500 
z
M 603 4863 
L 1178 4863 
L 1178 4134 
L 603 4134 
L 603 4863 
z
" transform="scale(0.015625)"/>
       <path id="DejaVuSans-6f" d="M 1959 3097 
Q 1497 3097 1228 2736 
Q 959 2375 959 1747 
Q 959 1119 1226 758 
Q 1494 397 1959 397 
Q 2419 397 2687 759 
Q 2956 1122 2956 1747 
Q 2956 2369 2687 2733 
Q 2419 3097 1959 3097 
z
M 1959 3584 
Q 2709 3584 3137 3096 
Q 3566 2609 3566 1747 
Q 3566 888 3137 398 
Q 2709 -91 1959 -91 
Q 1206 -91 779 398 
Q 353 888 353 1747 
Q 353 2609 779 3096 
Q 1206 3584 1959 3584 
z
" transform="scale(0.015625)"/>
       <path id="DejaVuSans-6e" d="M 3513 2113 
L 3513 0 
L 2938 0 
L 2938 2094 
Q 2938 2591 2744 2837 
Q 2550 3084 2163 3084 
Q 1697 3084 1428 2787 
Q 1159 2491 1159 1978 
L 1159 0 
L 581 0 
L 581 3500 
L 1159 3500 
L 1159 2956 
Q 1366 3272 1645 3428 
Q 1925 3584 2291 3584 
Q 2894 3584 3203 3211 
Q 3513 2838 3513 2113 
z
" transform="scale(0.015625)"/>
       <path id="DejaVuSans-6d" d="M 3328 2828 
Q 3544 3216 3844 3400 
Q 4144 3584 4550 3584 
Q 5097 3584 5394 3201 
Q 5691 2819 5691 2113 
L 5691 0 
L 5113 0 
L 5113 2094 
Q 5113 2597 4934 2840 
Q 4756 3084 4391 3084 
Q 3944 3084 3684 2787 
Q 3425 2491 3425 1978 
L 3425 0 
L 2847 0 
L 2847 2094 
Q 2847 2600 2669 2842 
Q 2491 3084 2119 3084 
Q 1678 3084 1418 2786 
Q 1159 2488 1159 1978 
L 1159 0 
L 581 0 
L 581 3500 
L 1159 3500 
L 1159 2956 
Q 1356 3278 1631 3431 
Q 1906 3584 2284 3584 
Q 2666 3584 2933 3390 
Q 3200 3197 3328 2828 
z
" transform="scale(0.015625)"/>
       <path id="DejaVuSans-62" d="M 3116 1747 
Q 3116 2381 2855 2742 
Q 2594 3103 2138 3103 
Q 1681 3103 1420 2742 
Q 1159 2381 1159 1747 
Q 1159 1113 1420 752 
Q 1681 391 2138 391 
Q 2594 391 2855 752 
Q 3116 1113 3116 1747 
z
M 1159 2969 
Q 1341 3281 1617 3432 
Q 1894 3584 2278 3584 
Q 2916 3584 3314 3078 
Q 3713 2572 3713 1747 
Q 3713 922 3314 415 
Q 2916 -91 2278 -91 
Q 1894 -91 1617 61 
Q 1341 213 1159 525 
L 1159 0 
L 581 0 
L 581 4863 
L 1159 4863 
L 1159 2969 
z
" transform="scale(0.015625)"/>
       <path id="DejaVuSans-77" d="M 269 3500 
L 844 3500 
L 1563 769 
L 2278 3500 
L 2956 3500 
L 3675 769 
L 4391 3500 
L 4966 3500 
L 4050 0 
L 3372 0 
L 2619 2869 
L 1863 0 
L 1184 0 
L 269 3500 
z
" transform="scale(0.015625)"/>
      </defs>
      <use xlink:href="#DejaVuSans-45"/>
      <use xlink:href="#DejaVuSans-78" x="63.183594"/>
      <use xlink:href="#DejaVuSans-65" x="119.238281"/>
      <use xlink:href="#DejaVuSans-63" x="180.761719"/>
      <use xlink:href="#DejaVuSans-75" x="235.742188"/>
      <use xlink:href="#DejaVuSans-74" x="299.121094"/>
      <use xlink:href="#DejaVuSans-69" x="338.330078"/>
      <use xlink:href="#DejaVuSans-6f" x="366.113281"/>
      <use xlink:href="#DejaVuSans-6e" x="427.294922"/>
      <use xlink:href="#DejaVuSans-20" x="490.673828"/>
      <use xlink:href="#DejaVuSans-74" x="522.460938"/>
      <use xlink:href="#DejaVuSans-69" x="561.669922"/>
      <use xlink:href="#DejaVuSans-6d" x="589.453125"/>
      <use xlink:href="#DejaVuSans-65" x="686.865234"/>
      <use xlink:href="#DejaVuSans-20" x="748.388672"/>
      <use xlink:href="#DejaVuSans-62" x="780.175781"/>
      <use xlink:href="#DejaVuSans-65" x="843.652344"/>
      <use xlink:href="#DejaVuSans-74" x="905.175781"/>
      <use xlink:href="#DejaVuSans-77" x="944.384766"/>
      <use xlink:href="#DejaVuSans-65" x="1026.171875"/>
      <use xlink:href="#DejaVuSans-65" x="1087.695312"/>
      <use xlink:href="#DejaVuSans-6e" x="1149.21875"/>
      <use xlink:href="#DejaVuSans-20" x="1212.597656"/>
      <use xlink:href="#DejaVuSans-53" x="1244.384766"/>
      <use xlink:href="#DejaVuSans-31" x="1307.861328"/>
      <use xlink:href="#DejaVuSans-20" x="1371.484375"/>
      <use xlink:href="#DejaVuSans-53" x="1403.271484"/>
      <use xlink:href="#DejaVuSans-32" x="1466.748047"/>
     </g>
    </g>
   </g>
  </g>
 </g>
 <defs>
  <clipPath id="pec3c313f64">
   <rect x="57.6" y="41.472" width="357.12" height="266.112"/>
  </clipPath>
 </defs>
</svg>
