<?xml version="1.0" encoding="utf-8" standalone="no"?>
<!DOCTYPE svg PUBLIC "-//W3C//DTD SVG 1.1//EN"
  "http://www.w3.org/Graphics/SVG/1.1/DTD/svg11.dtd">
<svg xmlns:xlink="http://www.w3.org/1999/xlink" width="460.8pt" height="345.6pt" viewBox="0 0 460.8 345.6" xmlns="http://www.w3.org/2000/svg" version="1.1">
 <metadata>
  <rdf:RDF xmlns:dc="http://purl.org/dc/elements/1.1/" xmlns:cc="http://creativecommons.org/ns#" xmlns:rdf="http://www.w3.org/1999/02/22-rdf-syntax-ns#">
   <cc:Work>
    <dc:type rdf:resource="http://purl.org/dc/dcmitype/StillImage"/>
    <dc:date>2024-03-08T13:21:58.485472</dc:date>
    <dc:format>image/svg+xml</dc:format>
    <dc:creator>
     <cc:Agent>
      <dc:title>Matplotlib v3.8.2, https://matplotlib.org/</dc:title>
     </cc:Agent>
    </dc:creator>
   </cc:Work>
  </rdf:RDF>
 </metadata>
 <defs>
  <style type="text/css">*{stroke-linejoin: round; stroke-linecap: butt}</style>
 </defs>
 <g id="figure_1">
  <g id="patch_1">
   <path d="M 0 345.6 
L 460.8 345.6 
L 460.8 0 
L 0 0 
z
" style="fill: #ffffff"/>
  </g>
  <g id="axes_1">
   <g id="patch_2">
    <path d="M 57.6 307.584 
L 414.72 307.584 
L 414.72 41.472 
L 57.6 41.472 
z
" style="fill: #ffffff"/>
   </g>
   <g id="matplotlib.axis_1">
    <g id="xtick_1">
     <g id="line2d_1">
      <defs>
       <path id="m790e5f4813" d="M 0 0 
L 0 3.5 
" style="stroke: #000000; stroke-width: 0.8"/>
      </defs>
      <g>
       <use xlink:href="#m790e5f4813" x="73.801534" y="307.584" style="stroke: #000000; stroke-width: 0.8"/>
      </g>
     </g>
     <g id="text_1">
      <!-- 0.00 -->
      <g transform="translate(62.668721 322.182437) scale(0.1 -0.1)">
       <defs>
        <path id="DejaVuSans-30" d="M 2034 4250 
Q 1547 4250 1301 3770 
Q 1056 3291 1056 2328 
Q 1056 1369 1301 889 
Q 1547 409 2034 409 
Q 2525 409 2770 889 
Q 3016 1369 3016 2328 
Q 3016 3291 2770 3770 
Q 2525 4250 2034 4250 
z
M 2034 4750 
Q 2819 4750 3233 4129 
Q 3647 3509 3647 2328 
Q 3647 1150 3233 529 
Q 2819 -91 2034 -91 
Q 1250 -91 836 529 
Q 422 1150 422 2328 
Q 422 3509 836 4129 
Q 1250 4750 2034 4750 
z
" transform="scale(0.015625)"/>
        <path id="DejaVuSans-2e" d="M 684 794 
L 1344 794 
L 1344 0 
L 684 0 
L 684 794 
z
" transform="scale(0.015625)"/>
       </defs>
       <use xlink:href="#DejaVuSans-30"/>
       <use xlink:href="#DejaVuSans-2e" x="63.623047"/>
       <use xlink:href="#DejaVuSans-30" x="95.410156"/>
       <use xlink:href="#DejaVuSans-30" x="159.033203"/>
      </g>
     </g>
    </g>
    <g id="xtick_2">
     <g id="line2d_2">
      <g>
       <use xlink:href="#m790e5f4813" x="119.67406" y="307.584" style="stroke: #000000; stroke-width: 0.8"/>
      </g>
     </g>
     <g id="text_2">
      <!-- 0.25 -->
      <g transform="translate(108.541247 322.182437) scale(0.1 -0.1)">
       <defs>
        <path id="DejaVuSans-32" d="M 1228 531 
L 3431 531 
L 3431 0 
L 469 0 
L 469 531 
Q 828 903 1448 1529 
Q 2069 2156 2228 2338 
Q 2531 2678 2651 2914 
Q 2772 3150 2772 3378 
Q 2772 3750 2511 3984 
Q 2250 4219 1831 4219 
Q 1534 4219 1204 4116 
Q 875 4013 500 3803 
L 500 4441 
Q 881 4594 1212 4672 
Q 1544 4750 1819 4750 
Q 2544 4750 2975 4387 
Q 3406 4025 3406 3419 
Q 3406 3131 3298 2873 
Q 3191 2616 2906 2266 
Q 2828 2175 2409 1742 
Q 1991 1309 1228 531 
z
" transform="scale(0.015625)"/>
        <path id="DejaVuSans-35" d="M 691 4666 
L 3169 4666 
L 3169 4134 
L 1269 4134 
L 1269 2991 
Q 1406 3038 1543 3061 
Q 1681 3084 1819 3084 
Q 2600 3084 3056 2656 
Q 3513 2228 3513 1497 
Q 3513 744 3044 326 
Q 2575 -91 1722 -91 
Q 1428 -91 1123 -41 
Q 819 9 494 109 
L 494 744 
Q 775 591 1075 516 
Q 1375 441 1709 441 
Q 2250 441 2565 725 
Q 2881 1009 2881 1497 
Q 2881 1984 2565 2268 
Q 2250 2553 1709 2553 
Q 1456 2553 1204 2497 
Q 953 2441 691 2322 
L 691 4666 
z
" transform="scale(0.015625)"/>
       </defs>
       <use xlink:href="#DejaVuSans-30"/>
       <use xlink:href="#DejaVuSans-2e" x="63.623047"/>
       <use xlink:href="#DejaVuSans-32" x="95.410156"/>
       <use xlink:href="#DejaVuSans-35" x="159.033203"/>
      </g>
     </g>
    </g>
    <g id="xtick_3">
     <g id="line2d_3">
      <g>
       <use xlink:href="#m790e5f4813" x="165.546586" y="307.584" style="stroke: #000000; stroke-width: 0.8"/>
      </g>
     </g>
     <g id="text_3">
      <!-- 0.50 -->
      <g transform="translate(154.413773 322.182437) scale(0.1 -0.1)">
       <use xlink:href="#DejaVuSans-30"/>
       <use xlink:href="#DejaVuSans-2e" x="63.623047"/>
       <use xlink:href="#DejaVuSans-35" x="95.410156"/>
       <use xlink:href="#DejaVuSans-30" x="159.033203"/>
      </g>
     </g>
    </g>
    <g id="xtick_4">
     <g id="line2d_4">
      <g>
       <use xlink:href="#m790e5f4813" x="211.419112" y="307.584" style="stroke: #000000; stroke-width: 0.8"/>
      </g>
     </g>
     <g id="text_4">
      <!-- 0.75 -->
      <g transform="translate(200.286299 322.182437) scale(0.1 -0.1)">
       <defs>
        <path id="DejaVuSans-37" d="M 525 4666 
L 3525 4666 
L 3525 4397 
L 1831 0 
L 1172 0 
L 2766 4134 
L 525 4134 
L 525 4666 
z
" transform="scale(0.015625)"/>
       </defs>
       <use xlink:href="#DejaVuSans-30"/>
       <use xlink:href="#DejaVuSans-2e" x="63.623047"/>
       <use xlink:href="#DejaVuSans-37" x="95.410156"/>
       <use xlink:href="#DejaVuSans-35" x="159.033203"/>
      </g>
     </g>
    </g>
    <g id="xtick_5">
     <g id="line2d_5">
      <g>
       <use xlink:href="#m790e5f4813" x="257.291638" y="307.584" style="stroke: #000000; stroke-width: 0.8"/>
      </g>
     </g>
     <g id="text_5">
      <!-- 1.00 -->
      <g transform="translate(246.158825 322.182437) scale(0.1 -0.1)">
       <defs>
        <path id="DejaVuSans-31" d="M 794 531 
L 1825 531 
L 1825 4091 
L 703 3866 
L 703 4441 
L 1819 4666 
L 2450 4666 
L 2450 531 
L 3481 531 
L 3481 0 
L 794 0 
L 794 531 
z
" transform="scale(0.015625)"/>
       </defs>
       <use xlink:href="#DejaVuSans-31"/>
       <use xlink:href="#DejaVuSans-2e" x="63.623047"/>
       <use xlink:href="#DejaVuSans-30" x="95.410156"/>
       <use xlink:href="#DejaVuSans-30" x="159.033203"/>
      </g>
     </g>
    </g>
    <g id="xtick_6">
     <g id="line2d_6">
      <g>
       <use xlink:href="#m790e5f4813" x="303.164164" y="307.584" style="stroke: #000000; stroke-width: 0.8"/>
      </g>
     </g>
     <g id="text_6">
      <!-- 1.25 -->
      <g transform="translate(292.031351 322.182437) scale(0.1 -0.1)">
       <use xlink:href="#DejaVuSans-31"/>
       <use xlink:href="#DejaVuSans-2e" x="63.623047"/>
       <use xlink:href="#DejaVuSans-32" x="95.410156"/>
       <use xlink:href="#DejaVuSans-35" x="159.033203"/>
      </g>
     </g>
    </g>
    <g id="xtick_7">
     <g id="line2d_7">
      <g>
       <use xlink:href="#m790e5f4813" x="349.03669" y="307.584" style="stroke: #000000; stroke-width: 0.8"/>
      </g>
     </g>
     <g id="text_7">
      <!-- 1.50 -->
      <g transform="translate(337.903877 322.182437) scale(0.1 -0.1)">
       <use xlink:href="#DejaVuSans-31"/>
       <use xlink:href="#DejaVuSans-2e" x="63.623047"/>
       <use xlink:href="#DejaVuSans-35" x="95.410156"/>
       <use xlink:href="#DejaVuSans-30" x="159.033203"/>
      </g>
     </g>
    </g>
    <g id="xtick_8">
     <g id="line2d_8">
      <g>
       <use xlink:href="#m790e5f4813" x="394.909216" y="307.584" style="stroke: #000000; stroke-width: 0.8"/>
      </g>
     </g>
     <g id="text_8">
      <!-- 1.75 -->
      <g transform="translate(383.776403 322.182437) scale(0.1 -0.1)">
       <use xlink:href="#DejaVuSans-31"/>
       <use xlink:href="#DejaVuSans-2e" x="63.623047"/>
       <use xlink:href="#DejaVuSans-37" x="95.410156"/>
       <use xlink:href="#DejaVuSans-35" x="159.033203"/>
      </g>
     </g>
    </g>
    <g id="text_9">
     <!-- 1e6 -->
     <g transform="translate(395.841875 334.860562) scale(0.1 -0.1)">
      <defs>
       <path id="DejaVuSans-65" d="M 3597 1894 
L 3597 1613 
L 953 1613 
Q 991 1019 1311 708 
Q 1631 397 2203 397 
Q 2534 397 2845 478 
Q 3156 559 3463 722 
L 3463 178 
Q 3153 47 2828 -22 
Q 2503 -91 2169 -91 
Q 1331 -91 842 396 
Q 353 884 353 1716 
Q 353 2575 817 3079 
Q 1281 3584 2069 3584 
Q 2775 3584 3186 3129 
Q 3597 2675 3597 1894 
z
M 3022 2063 
Q 3016 2534 2758 2815 
Q 2500 3097 2075 3097 
Q 1594 3097 1305 2825 
Q 1016 2553 972 2059 
L 3022 2063 
z
" transform="scale(0.015625)"/>
       <path id="DejaVuSans-36" d="M 2113 2584 
Q 1688 2584 1439 2293 
Q 1191 2003 1191 1497 
Q 1191 994 1439 701 
Q 1688 409 2113 409 
Q 2538 409 2786 701 
Q 3034 994 3034 1497 
Q 3034 2003 2786 2293 
Q 2538 2584 2113 2584 
z
M 3366 4563 
L 3366 3988 
Q 3128 4100 2886 4159 
Q 2644 4219 2406 4219 
Q 1781 4219 1451 3797 
Q 1122 3375 1075 2522 
Q 1259 2794 1537 2939 
Q 1816 3084 2150 3084 
Q 2853 3084 3261 2657 
Q 3669 2231 3669 1497 
Q 3669 778 3244 343 
Q 2819 -91 2113 -91 
Q 1303 -91 875 529 
Q 447 1150 447 2328 
Q 447 3434 972 4092 
Q 1497 4750 2381 4750 
Q 2619 4750 2861 4703 
Q 3103 4656 3366 4563 
z
" transform="scale(0.015625)"/>
      </defs>
      <use xlink:href="#DejaVuSans-31"/>
      <use xlink:href="#DejaVuSans-65" x="63.623047"/>
      <use xlink:href="#DejaVuSans-36" x="125.146484"/>
     </g>
    </g>
   </g>
   <g id="matplotlib.axis_2">
    <g id="ytick_1">
     <g id="line2d_9">
      <defs>
       <path id="m91820dbac1" d="M 0 0 
L -3.5 0 
" style="stroke: #000000; stroke-width: 0.8"/>
      </defs>
      <g>
       <use xlink:href="#m91820dbac1" x="57.6" y="295.488" style="stroke: #000000; stroke-width: 0.8"/>
      </g>
     </g>
     <g id="text_10">
      <!-- 0.0 -->
      <g transform="translate(34.696875 299.287219) scale(0.1 -0.1)">
       <use xlink:href="#DejaVuSans-30"/>
       <use xlink:href="#DejaVuSans-2e" x="63.623047"/>
       <use xlink:href="#DejaVuSans-30" x="95.410156"/>
      </g>
     </g>
    </g>
    <g id="ytick_2">
     <g id="line2d_10">
      <g>
       <use xlink:href="#m91820dbac1" x="57.6" y="261.888" style="stroke: #000000; stroke-width: 0.8"/>
      </g>
     </g>
     <g id="text_11">
      <!-- 2.5 -->
      <g transform="translate(34.696875 265.687219) scale(0.1 -0.1)">
       <use xlink:href="#DejaVuSans-32"/>
       <use xlink:href="#DejaVuSans-2e" x="63.623047"/>
       <use xlink:href="#DejaVuSans-35" x="95.410156"/>
      </g>
     </g>
    </g>
    <g id="ytick_3">
     <g id="line2d_11">
      <g>
       <use xlink:href="#m91820dbac1" x="57.6" y="228.288" style="stroke: #000000; stroke-width: 0.8"/>
      </g>
     </g>
     <g id="text_12">
      <!-- 5.0 -->
      <g transform="translate(34.696875 232.087219) scale(0.1 -0.1)">
       <use xlink:href="#DejaVuSans-35"/>
       <use xlink:href="#DejaVuSans-2e" x="63.623047"/>
       <use xlink:href="#DejaVuSans-30" x="95.410156"/>
      </g>
     </g>
    </g>
    <g id="ytick_4">
     <g id="line2d_12">
      <g>
       <use xlink:href="#m91820dbac1" x="57.6" y="194.688" style="stroke: #000000; stroke-width: 0.8"/>
      </g>
     </g>
     <g id="text_13">
      <!-- 7.5 -->
      <g transform="translate(34.696875 198.487219) scale(0.1 -0.1)">
       <use xlink:href="#DejaVuSans-37"/>
       <use xlink:href="#DejaVuSans-2e" x="63.623047"/>
       <use xlink:href="#DejaVuSans-35" x="95.410156"/>
      </g>
     </g>
    </g>
    <g id="ytick_5">
     <g id="line2d_13">
      <g>
       <use xlink:href="#m91820dbac1" x="57.6" y="161.088" style="stroke: #000000; stroke-width: 0.8"/>
      </g>
     </g>
     <g id="text_14">
      <!-- 10.0 -->
      <g transform="translate(28.334375 164.887219) scale(0.1 -0.1)">
       <use xlink:href="#DejaVuSans-31"/>
       <use xlink:href="#DejaVuSans-30" x="63.623047"/>
       <use xlink:href="#DejaVuSans-2e" x="127.246094"/>
       <use xlink:href="#DejaVuSans-30" x="159.033203"/>
      </g>
     </g>
    </g>
    <g id="ytick_6">
     <g id="line2d_14">
      <g>
       <use xlink:href="#m91820dbac1" x="57.6" y="127.488" style="stroke: #000000; stroke-width: 0.8"/>
      </g>
     </g>
     <g id="text_15">
      <!-- 12.5 -->
      <g transform="translate(28.334375 131.287219) scale(0.1 -0.1)">
       <use xlink:href="#DejaVuSans-31"/>
       <use xlink:href="#DejaVuSans-32" x="63.623047"/>
       <use xlink:href="#DejaVuSans-2e" x="127.246094"/>
       <use xlink:href="#DejaVuSans-35" x="159.033203"/>
      </g>
     </g>
    </g>
    <g id="ytick_7">
     <g id="line2d_15">
      <g>
       <use xlink:href="#m91820dbac1" x="57.6" y="93.888" style="stroke: #000000; stroke-width: 0.8"/>
      </g>
     </g>
     <g id="text_16">
      <!-- 15.0 -->
      <g transform="translate(28.334375 97.687219) scale(0.1 -0.1)">
       <use xlink:href="#DejaVuSans-31"/>
       <use xlink:href="#DejaVuSans-35" x="63.623047"/>
       <use xlink:href="#DejaVuSans-2e" x="127.246094"/>
       <use xlink:href="#DejaVuSans-30" x="159.033203"/>
      </g>
     </g>
    </g>
    <g id="ytick_8">
     <g id="line2d_16">
      <g>
       <use xlink:href="#m91820dbac1" x="57.6" y="60.288" style="stroke: #000000; stroke-width: 0.8"/>
      </g>
     </g>
     <g id="text_17">
      <!-- 17.5 -->
      <g transform="translate(28.334375 64.087219) scale(0.1 -0.1)">
       <use xlink:href="#DejaVuSans-31"/>
       <use xlink:href="#DejaVuSans-37" x="63.623047"/>
       <use xlink:href="#DejaVuSans-2e" x="127.246094"/>
       <use xlink:href="#DejaVuSans-35" x="159.033203"/>
      </g>
     </g>
    </g>
   </g>
   <g id="line2d_17">
    <path d="M 73.832727 282.048 
L 74.383198 295.488 
L 74.474943 282.048 
L 75.023578 295.488 
L 75.113488 282.048 
L 75.662124 295.488 
L 75.753869 282.048 
L 76.302504 295.488 
L 76.405259 282.048 
L 76.955729 295.488 
L 77.045639 282.048 
L 77.596109 295.488 
L 77.684185 282.048 
L 78.23282 295.488 
L 78.320895 282.048 
L 78.871366 295.488 
L 78.972285 282.048 
L 79.522755 295.488 
L 79.620005 282.048 
L 80.170475 295.488 
L 80.262221 282.048 
L 80.812691 295.488 
L 80.906271 282.048 
L 81.456741 295.488 
L 81.555826 282.048 
L 82.104461 295.488 
L 82.203546 282.048 
L 82.754016 295.488 
L 82.854936 282.048 
L 83.405406 295.488 
L 83.487977 282.048 
L 84.036612 295.488 
L 84.137532 282.048 
L 84.686167 295.488 
L 84.785252 282.048 
L 90.590878 161.088 
L 95.833191 174.528 
L 96.335954 295.488 
L 96.343293 282.048 
L 96.893764 295.488 
L 96.970829 282.048 
L 97.519465 295.488 
L 97.613045 282.048 
L 98.16168 295.488 
L 98.246086 282.048 
L 98.796556 295.488 
L 98.893806 282.048 
L 99.442441 295.488 
L 99.532351 282.048 
L 100.082822 295.488 
L 100.174567 282.048 
L 100.725037 295.488 
L 100.825956 282.048 
L 101.374592 295.488 
L 101.457162 282.048 
L 102.007633 295.488 
L 102.099378 282.048 
L 102.649848 295.488 
L 102.728749 282.048 
L 103.277384 295.488 
L 103.365459 282.048 
L 103.91593 295.488 
L 104.016849 282.048 
L 104.56732 295.488 
L 104.64989 282.048 
L 105.198526 295.488 
L 105.281096 282.048 
L 105.831566 295.488 
L 105.932486 282.048 
L 106.482956 295.488 
L 106.582041 282.048 
L 107.132511 295.488 
L 107.233431 282.048 
L 107.783901 295.488 
L 107.860967 282.048 
L 108.409602 295.488 
L 108.517862 282.048 
L 109.066497 295.488 
L 109.156407 282.048 
L 109.706877 295.488 
L 109.813302 282.048 
L 110.363772 295.488 
L 110.451847 282.048 
L 111.002318 295.488 
L 111.086723 282.048 
L 111.635358 295.488 
L 111.717929 282.048 
L 112.268399 295.488 
L 112.356475 282.048 
L 112.906945 295.488 
L 112.996855 282.048 
L 113.547325 295.488 
L 113.628061 282.048 
L 114.178531 295.488 
L 114.268441 282.048 
L 114.818912 295.488 
L 114.916162 282.048 
L 115.466632 295.488 
L 115.563882 282.048 
L 116.114352 295.488 
L 116.200592 282.048 
L 116.751063 295.488 
L 116.840973 282.048 
L 117.389608 295.488 
L 117.481353 282.048 
L 118.029989 295.488 
L 118.129073 282.048 
L 118.677709 295.488 
L 118.765784 282.048 
L 119.314419 295.488 
L 119.411669 282.048 
L 119.962139 295.488 
L 120.061224 282.048 
L 120.611694 295.488 
L 120.69243 282.048 
L 121.2429 295.488 
L 121.329141 282.048 
L 121.879611 295.488 
L 121.969521 282.048 
L 122.519991 295.488 
L 122.597057 282.048 
L 123.147528 295.488 
L 123.252117 282.048 
L 123.802587 295.488 
L 123.879653 282.048 
L 124.428289 295.488 
L 124.534713 282.048 
L 125.085183 295.488 
L 125.191607 282.048 
L 125.740243 295.488 
L 125.842997 282.048 
L 126.393468 295.488 
L 126.496222 282.048 
L 127.046692 295.488 
L 127.134768 282.048 
L 127.685238 295.488 
L 127.776983 282.048 
L 128.327453 295.488 
L 128.428373 282.048 
L 128.978843 295.488 
L 129.074258 282.048 
L 129.624728 295.488 
L 129.712804 282.048 
L 130.263274 295.488 
L 130.349514 282.048 
L 130.899984 295.488 
L 130.995399 282.048 
L 131.54587 295.488 
L 131.652294 282.048 
L 132.202764 295.488 
L 132.290839 282.048 
L 132.84131 295.488 
L 132.93489 282.048 
L 133.483525 295.488 
L 133.57527 282.048 
L 134.12574 295.488 
L 134.221155 282.048 
L 134.771626 295.488 
L 134.863371 282.048 
L 135.413841 295.488 
L 135.512926 282.048 
L 136.061561 295.488 
L 136.153306 282.048 
L 136.703776 295.488 
L 136.782677 282.048 
L 137.333148 295.488 
L 137.430397 282.048 
L 137.980868 295.488 
L 138.074448 282.048 
L 138.624918 295.488 
L 138.712993 282.048 
L 139.263463 295.488 
L 139.338694 282.048 
L 139.889165 295.488 
L 139.986414 282.048 
L 140.53505 295.488 
L 140.62129 282.048 
L 141.169926 295.488 
L 141.261671 282.048 
L 141.812141 295.488 
L 141.909391 282.048 
L 142.459861 295.488 
L 142.549771 282.048 
L 143.100241 295.488 
L 143.197491 282.048 
L 143.746127 295.488 
L 143.832367 282.048 
L 144.382837 295.488 
L 144.465408 282.048 
L 145.015878 295.488 
L 145.098449 282.048 
L 145.648919 295.488 
L 145.738829 282.048 
L 146.289299 295.488 
L 146.37554 282.048 
L 146.924175 295.488 
L 147.01592 282.048 
L 147.566391 295.488 
L 147.661805 282.048 
L 148.212276 295.488 
L 151.227018 282.048 
L 151.687578 268.608 
L 151.777488 282.048 
L 152.133459 268.608 
L 152.236214 282.048 
L 152.588515 268.608 
L 152.68393 282.048 
L 153.04357 268.608 
L 153.138985 282.048 
L 153.50413 268.608 
L 153.592206 282.048 
L 153.966525 268.608 
L 154.054601 282.048 
L 154.421581 268.608 
L 154.516996 282.048 
L 154.883976 268.608 
L 154.972051 282.048 
L 155.339031 268.608 
L 155.434446 282.048 
L 155.795922 268.608 
L 155.887667 282.048 
L 156.258317 268.608 
L 156.346392 282.048 
L 156.717042 268.608 
L 156.808787 282.048 
L 157.186777 268.608 
L 157.267512 282.048 
L 157.647337 268.608 
L 157.737247 282.048 
L 158.106062 268.608 
L 158.195972 282.048 
L 158.562953 268.608 
L 158.656532 282.048 
L 159.012503 268.608 
L 159.113423 282.048 
L 159.476733 268.608 
L 159.562974 282.048 
L 159.929954 268.608 
L 160.027204 282.048 
L 160.401523 268.608 
L 160.478589 282.048 
L 160.858414 268.608 
L 160.951994 282.048 
L 161.317139 268.608 
L 161.408884 282.048 
L 161.777699 268.608 
L 161.867609 282.048 
L 162.23092 268.608 
L 162.328169 282.048 
L 162.693315 268.608 
L 162.78139 282.048 
L 163.15938 268.608 
L 163.243785 282.048 
L 163.61994 268.608 
L 163.708015 282.048 
L 164.074995 268.608 
L 164.168575 282.048 
L 164.528216 268.608 
L 164.625466 282.048 
L 164.979601 268.608 
L 165.078686 282.048 
L 165.440162 268.608 
L 165.530072 282.048 
L 165.904392 268.608 
L 165.988797 282.048 
L 166.359447 268.608 
L 166.454862 282.048 
L 166.820007 268.608 
L 166.909917 282.048 
L 167.287907 268.608 
L 167.370478 282.048 
L 167.744797 268.608 
L 167.838377 282.048 
L 168.210862 268.608 
L 168.295268 282.048 
L 168.667753 268.608 
L 168.761333 282.048 
L 169.130148 268.608 
L 169.218223 282.048 
L 169.588873 268.608 
L 169.680618 282.048 
L 170.040259 268.608 
L 170.137508 282.048 
L 170.504488 268.608 
L 170.590729 282.048 
L 170.955874 268.608 
L 171.054959 282.048 
L 171.420104 268.608 
L 171.506344 282.048 
L 171.889839 268.608 
L 171.970574 282.048 
L 172.348564 268.608 
L 172.440309 282.048 
L 172.809124 268.608 
L 172.897199 282.048 
L 173.271519 268.608 
L 173.359595 282.048 
L 173.741254 268.608 
L 173.82199 282.048 
L 174.194474 268.608 
L 174.291724 282.048 
L 174.662374 268.608 
L 174.744945 282.048 
L 175.590834 255.168 
L 182.488227 53.568 
L 183.904771 67.008 
L 184.378175 282.048 
L 184.758 268.608 
L 184.862589 282.048 
L 185.213055 268.608 
L 185.306635 282.048 
L 185.67178 268.608 
L 185.761691 282.048 
L 186.141515 268.608 
L 186.222251 282.048 
L 186.609415 268.608 
L 186.691985 282.048 
L 187.07548 268.608 
L 187.159885 282.048 
L 187.5287 268.608 
L 187.62595 282.048 
L 187.981921 268.608 
L 188.079171 282.048 
L 188.440646 268.608 
L 188.532391 282.048 
L 188.890197 268.608 
L 188.991116 282.048 
L 189.347087 268.608 
L 189.440667 282.048 
L 189.816822 268.608 
L 189.897558 282.048 
L 190.271877 268.608 
L 190.365457 282.048 
L 190.732438 268.608 
L 190.822348 282.048 
L 191.191163 268.608 
L 191.281073 282.048 
L 191.651723 268.608 
L 191.741633 282.048 
L 192.108613 268.608 
L 192.200358 282.048 
L 192.571008 268.608 
L 192.659084 282.048 
L 193.027899 268.608 
L 193.121479 282.048 
L 193.488459 268.608 
L 193.578369 282.048 
L 193.949019 268.608 
L 194.037094 282.048 
L 194.415084 268.608 
L 194.499489 282.048 
L 194.882984 268.608 
L 194.963719 282.048 
L 195.347214 268.608 
L 195.431619 282.048 
L 195.79493 268.608 
L 195.895849 282.048 
L 196.246315 268.608 
L 196.3454 282.048 
L 196.71605 268.608 
L 196.796785 282.048 
L 197.17661 268.608 
L 197.264685 282.048 
L 197.64084 268.608 
L 197.72708 282.048 
L 198.092226 268.608 
L 198.19131 282.048 
L 198.560125 268.608 
L 198.642696 282.048 
L 199.017016 268.608 
L 199.110596 282.048 
L 199.477576 268.608 
L 199.565651 282.048 
L 199.932631 268.608 
L 200.028046 282.048 
L 200.395026 268.608 
L 200.483102 282.048 
L 200.861091 268.608 
L 200.945497 282.048 
L 201.327156 268.608 
L 201.411562 282.048 
L 201.795056 268.608 
L 201.877626 282.048 
L 202.251946 268.608 
L 202.345526 282.048 
L 202.708837 268.608 
L 202.800582 282.048 
L 203.165727 268.608 
L 203.259307 282.048 
L 203.624452 268.608 
L 203.714362 282.048 
L 204.086847 268.608 
L 204.173088 282.048 
L 204.541903 268.608 
L 204.637318 282.048 
L 205.002463 268.608 
L 205.090538 282.048 
L 205.466693 268.608 
L 205.552933 282.048 
L 205.912574 268.608 
L 206.015328 282.048 
L 206.358455 268.608 
L 206.461209 282.048 
L 206.819015 268.608 
L 206.908925 282.048 
L 207.27407 268.608 
L 207.369485 282.048 
L 207.729126 268.608 
L 207.822706 282.048 
L 208.646576 255.168 
L 208.705293 268.608 
L 210.015413 228.288 
L 215.982511 53.568 
L 216.951338 67.008 
L 217.424743 282.048 
L 217.837596 268.608 
L 217.934845 282.048 
L 218.288981 268.608 
L 218.386231 282.048 
L 218.745872 268.608 
L 218.839452 282.048 
L 219.195422 268.608 
L 219.294507 282.048 
L 219.652313 268.608 
L 219.745893 282.048 
L 220.118378 268.608 
L 220.202783 282.048 
L 220.575268 268.608 
L 220.668848 282.048 
L 221.022984 268.608 
L 221.123903 282.048 
L 221.472535 268.608 
L 221.573454 282.048 
L 221.933095 268.608 
L 222.023005 282.048 
L 222.39182 268.608 
L 222.483565 282.048 
L 222.845041 268.608 
L 222.94229 282.048 
L 223.301931 268.608 
L 223.393676 282.048 
L 223.758821 268.608 
L 223.852401 282.048 
L 224.215712 268.608 
L 224.309292 282.048 
L 224.670767 268.608 
L 224.766182 282.048 
L 225.129492 268.608 
L 225.221237 282.048 
L 225.580878 268.608 
L 225.678128 282.048 
L 226.037768 268.608 
L 226.129513 282.048 
L 226.503833 268.608 
L 226.588239 282.048 
L 226.960724 268.608 
L 227.054304 282.048 
L 227.417614 268.608 
L 227.511194 282.048 
L 227.870835 268.608 
L 227.966249 282.048 
L 228.338734 268.608 
L 228.41947 282.048 
L 228.79379 268.608 
L 228.88737 282.048 
L 229.256185 268.608 
L 229.34426 282.048 
L 229.71858 268.608 
L 229.80482 282.048 
L 230.169966 268.608 
L 230.26905 282.048 
L 230.63603 268.608 
L 230.720436 282.048 
L 231.085581 268.608 
L 231.186501 282.048 
L 231.536967 268.608 
L 231.636051 282.048 
L 232.003032 268.608 
L 232.087437 282.048 
L 232.450748 268.608 
L 232.553502 282.048 
L 232.909473 268.608 
L 233.001218 282.048 
L 233.353519 268.608 
L 233.459943 282.048 
L 233.801235 268.608 
L 233.903989 282.048 
L 234.258125 268.608 
L 234.351705 282.048 
L 234.72052 268.608 
L 234.80676 282.048 
L 235.173741 268.608 
L 235.27099 282.048 
L 235.634301 268.608 
L 235.724211 282.048 
L 236.096696 268.608 
L 236.184771 282.048 
L 236.562761 268.608 
L 236.647166 282.048 
L 237.021486 268.608 
L 237.113231 282.048 
L 237.471037 268.608 
L 237.571956 282.048 
L 237.935267 268.608 
L 238.021507 282.048 
L 238.397662 268.608 
L 238.483902 282.048 
L 238.856387 268.608 
L 238.948132 282.048 
L 239.307773 268.608 
L 239.406857 282.048 
L 239.768333 268.608 
L 239.858243 282.048 
L 240.238068 268.608 
L 240.316968 282.048 
L 240.691288 268.608 
L 240.788538 282.048 
L 241.161023 268.608 
L 241.241758 282.048 
L 241.619748 268.608 
L 241.711493 282.048 
L 242.071134 268.608 
L 242.170218 282.048 
L 242.537199 268.608 
L 242.621604 282.048 
L 242.997759 268.608 
L 243.085834 282.048 
L 243.465658 268.608 
L 243.548229 282.048 
L 243.915209 268.608 
L 244.014294 282.048 
L 244.370265 268.608 
L 244.46568 282.048 
L 244.830825 268.608 
L 244.920735 282.048 
L 245.291385 268.608 
L 245.37946 282.048 
L 245.751945 268.608 
L 245.841855 282.048 
L 246.207001 268.608 
L 246.302415 282.048 
L 246.669396 268.608 
L 246.755636 282.048 
L 247.122616 268.608 
L 247.219866 282.048 
L 247.583176 268.608 
L 247.673087 282.048 
L 248.043737 268.608 
L 248.133647 282.048 
L 248.502462 268.608 
L 248.594207 282.048 
L 248.964857 268.608 
L 249.052932 282.048 
L 249.429087 268.608 
L 249.515327 282.048 
L 250.346537 255.168 
L 250.39975 268.608 
L 251.728218 228.288 
L 257.221912 67.008 
L 261.438514 80.448 
L 261.888065 282.048 
L 262.267889 268.608 
L 262.352295 282.048 
L 262.722945 268.608 
L 262.816525 282.048 
L 263.18167 268.608 
L 263.273415 282.048 
L 263.640395 268.608 
L 263.73214 282.048 
L 264.089946 268.608 
L 264.190866 282.048 
L 264.552341 268.608 
L 264.640416 282.048 
L 265.009232 268.608 
L 265.102812 282.048 
L 265.464287 268.608 
L 265.557867 282.048 
L 265.928517 268.608 
L 266.014757 282.048 
L 266.387242 268.608 
L 266.478987 282.048 
L 266.838628 268.608 
L 266.937713 282.048 
L 267.308363 268.608 
L 267.387263 282.048 
L 267.761583 268.608 
L 267.858833 282.048 
L 268.218473 268.608 
L 268.312053 282.048 
L 268.680869 268.608 
L 268.768944 282.048 
L 269.132254 268.608 
L 269.231339 282.048 
L 269.596484 268.608 
L 269.682725 282.048 
L 270.053375 268.608 
L 270.146954 282.048 
L 270.506595 268.608 
L 270.60201 282.048 
L 270.96899 268.608 
L 271.055231 282.048 
L 271.422211 268.608 
L 271.51946 282.048 
L 271.879101 268.608 
L 271.970846 282.048 
L 272.328652 268.608 
L 272.429571 282.048 
L 272.785542 268.608 
L 272.877287 282.048 
L 273.240598 268.608 
L 273.334178 282.048 
L 273.695653 268.608 
L 273.791068 282.048 
L 274.148874 268.608 
L 274.244289 282.048 
L 274.609434 268.608 
L 274.699344 282.048 
L 275.060819 268.608 
L 275.158069 282.048 
L 275.528719 268.608 
L 275.609455 282.048 
L 275.983775 268.608 
L 276.07919 282.048 
L 276.444335 268.608 
L 276.534245 282.048 
L 276.91407 268.608 
L 276.994805 282.048 
L 277.36729 268.608 
L 277.46454 282.048 
L 277.82418 268.608 
L 277.91776 282.048 
L 278.273731 268.608 
L 278.374651 282.048 
L 278.723282 268.608 
L 278.824201 282.048 
L 279.180172 268.608 
L 279.273752 282.048 
L 279.644402 268.608 
L 279.730643 282.048 
L 280.093953 268.608 
L 280.193038 282.048 
L 280.549008 268.608 
L 280.644423 282.048 
L 281.018743 268.608 
L 281.097644 282.048 
L 281.471964 268.608 
L 281.569213 282.048 
L 281.936194 268.608 
L 282.022434 282.048 
L 282.389414 268.608 
L 282.484829 282.048 
L 282.857314 268.608 
L 282.93805 282.048 
L 283.317874 268.608 
L 283.405949 282.048 
L 283.77293 268.608 
L 283.86651 282.048 
L 284.240829 268.608 
L 284.3234 282.048 
L 284.695885 268.608 
L 284.7913 282.048 
L 285.152775 268.608 
L 285.246355 282.048 
L 285.607831 268.608 
L 285.701411 282.048 
L 286.068391 268.608 
L 286.158301 282.048 
L 286.521611 268.608 
L 286.618861 282.048 
L 286.991346 268.608 
L 287.070247 282.048 
L 287.440897 268.608 
L 287.539981 282.048 
L 287.901457 268.608 
L 287.989532 282.048 
L 288.363852 268.608 
L 288.451927 282.048 
L 288.829917 268.608 
L 288.914322 282.048 
L 289.281303 268.608 
L 289.378552 282.048 
L 289.831773 295.488 
L 292.650181 282.048 
L 293.200651 295.488 
L 293.296066 282.048 
L 293.846536 295.488 
L 293.930942 282.048 
L 299.646658 161.088 
L 305.011909 174.528 
L 305.45779 161.088 
L 316.021315 174.528 
L 316.525913 282.048 
L 316.909407 295.488 
L 317.010327 282.048 
L 317.560797 295.488 
L 317.654377 282.048 
L 318.204848 295.488 
L 318.289253 282.048 
L 318.839723 295.488 
L 318.922294 282.048 
L 319.472764 295.488 
L 319.566344 282.048 
L 325.269217 161.088 
L 338.040128 174.528 
L 338.152057 161.088 
L 349.049534 174.528 
L 349.554132 295.488 
L 349.724778 282.048 
L 350.275248 295.488 
L 350.359653 282.048 
L 350.910124 295.488 
L 351.009208 282.048 
L 351.557844 295.488 
L 351.656928 282.048 
L 352.207399 295.488 
L 352.308318 282.048 
L 352.858789 295.488 
L 352.963378 282.048 
L 353.512013 295.488 
L 353.594584 282.048 
L 354.143219 295.488 
L 354.247809 282.048 
L 354.798279 295.488 
L 354.895529 282.048 
L 355.445999 295.488 
L 355.548754 282.048 
L 356.097389 295.488 
L 356.183629 282.048 
L 356.7341 295.488 
L 356.825845 282.048 
L 357.376315 295.488 
L 357.4754 282.048 
L 358.024035 295.488 
L 358.126789 282.048 
L 358.67726 295.488 
L 358.769005 282.048 
L 359.319475 295.488 
L 359.41489 282.048 
L 359.96536 295.488 
L 360.060775 282.048 
L 360.611245 295.488 
L 360.701156 282.048 
L 361.251626 295.488 
L 361.356215 282.048 
L 361.906686 295.488 
L 362.0021 282.048 
L 362.552571 295.488 
L 362.633306 282.048 
L 363.181942 295.488 
L 363.273687 282.048 
L 363.824157 295.488 
L 363.914067 282.048 
L 364.462703 295.488 
L 364.550778 282.048 
L 365.101248 295.488 
L 365.204003 282.048 
L 365.752638 295.488 
L 365.851723 282.048 
L 366.400358 295.488 
L 366.495773 282.048 
L 367.044409 295.488 
L 367.123309 282.048 
L 367.67378 295.488 
L 367.774699 282.048 
L 368.323335 295.488 
L 368.427924 282.048 
L 371.00229 228.288 
L 371.356426 241.728 
L 371.583954 295.488 
L 371.65368 282.048 
L 372.20415 295.488 
L 372.30874 282.048 
L 372.85921 295.488 
L 372.936276 282.048 
L 373.486746 295.488 
L 373.578491 282.048 
L 374.128961 295.488 
L 374.229881 282.048 
L 374.780351 295.488 
L 374.872096 282.048 
L 375.422567 295.488 
L 375.519816 282.048 
L 376.068452 295.488 
L 376.171206 282.048 
L 376.721677 295.488 
L 376.820761 282.048 
L 377.369397 295.488 
L 377.473986 282.048 
L 378.024456 295.488 
L 378.125376 282.048 
L 378.675846 295.488 
L 378.769426 282.048 
L 379.318062 295.488 
L 379.420816 282.048 
L 379.971286 295.488 
L 380.055692 282.048 
L 380.604327 295.488 
L 380.699742 282.048 
L 381.250212 295.488 
L 381.349297 282.048 
L 381.897932 295.488 
L 382.000687 282.048 
L 382.549322 295.488 
L 382.626388 282.048 
L 383.176858 295.488 
L 383.270438 282.048 
L 383.820909 295.488 
L 383.907149 282.048 
L 384.457619 295.488 
L 384.54753 282.048 
L 385.098 295.488 
L 385.18424 282.048 
L 385.734711 295.488 
L 385.824621 282.048 
L 386.373256 295.488 
L 386.461331 282.048 
L 387.011802 295.488 
L 387.092537 282.048 
L 387.641173 295.488 
L 387.723743 282.048 
L 388.274214 295.488 
L 388.364124 282.048 
L 388.914594 295.488 
L 388.997165 282.048 
L 389.547635 295.488 
L 389.637545 282.048 
L 390.188015 295.488 
L 390.266916 282.048 
L 390.815551 295.488 
L 390.912801 282.048 
L 391.463272 295.488 
L 391.536668 282.048 
L 392.087138 295.488 
L 392.177048 282.048 
L 392.727518 295.488 
L 392.79908 282.048 
L 393.34955 295.488 
L 393.43946 282.048 
L 393.988095 295.488 
L 394.061491 282.048 
L 394.611962 295.488 
L 394.712881 282.048 
L 395.263352 295.488 
L 395.362436 282.048 
L 395.912907 295.488 
L 396.008321 282.048 
L 396.558792 295.488 
L 396.661546 282.048 
L 397.210182 295.488 
L 397.294587 282.048 
L 397.845057 295.488 
L 397.938637 282.048 
L 398.487273 295.488 
L 398.487273 295.488 
" clip-path="url(#p8cf5c4ee41)" style="fill: none; stroke: #1f77b4; stroke-width: 1.5; stroke-linecap: square"/>
   </g>
   <g id="patch_3">
    <path d="M 57.6 307.584 
L 57.6 41.472 
" style="fill: none; stroke: #000000; stroke-width: 0.8; stroke-linejoin: miter; stroke-linecap: square"/>
   </g>
   <g id="patch_4">
    <path d="M 414.72 307.584 
L 414.72 41.472 
" style="fill: none; stroke: #000000; stroke-width: 0.8; stroke-linejoin: miter; stroke-linecap: square"/>
   </g>
   <g id="patch_5">
    <path d="M 57.6 307.584 
L 414.72 307.584 
" style="fill: none; stroke: #000000; stroke-width: 0.8; stroke-linejoin: miter; stroke-linecap: square"/>
   </g>
   <g id="patch_6">
    <path d="M 57.6 41.472 
L 414.72 41.472 
" style="fill: none; stroke: #000000; stroke-width: 0.8; stroke-linejoin: miter; stroke-linecap: square"/>
   </g>
   <g id="text_18">
    <!-- Queue size (y-axis) between S1 and sensors that follow at a time (x-axis). -->
    <g transform="translate(14.282813 35.472) scale(0.12 -0.12)">
     <defs>
      <path id="DejaVuSans-51" d="M 2522 4238 
Q 1834 4238 1429 3725 
Q 1025 3213 1025 2328 
Q 1025 1447 1429 934 
Q 1834 422 2522 422 
Q 3209 422 3611 934 
Q 4013 1447 4013 2328 
Q 4013 3213 3611 3725 
Q 3209 4238 2522 4238 
z
M 3406 84 
L 4238 -825 
L 3475 -825 
L 2784 -78 
Q 2681 -84 2626 -87 
Q 2572 -91 2522 -91 
Q 1538 -91 948 567 
Q 359 1225 359 2328 
Q 359 3434 948 4092 
Q 1538 4750 2522 4750 
Q 3503 4750 4090 4092 
Q 4678 3434 4678 2328 
Q 4678 1516 4351 937 
Q 4025 359 3406 84 
z
" transform="scale(0.015625)"/>
      <path id="DejaVuSans-75" d="M 544 1381 
L 544 3500 
L 1119 3500 
L 1119 1403 
Q 1119 906 1312 657 
Q 1506 409 1894 409 
Q 2359 409 2629 706 
Q 2900 1003 2900 1516 
L 2900 3500 
L 3475 3500 
L 3475 0 
L 2900 0 
L 2900 538 
Q 2691 219 2414 64 
Q 2138 -91 1772 -91 
Q 1169 -91 856 284 
Q 544 659 544 1381 
z
M 1991 3584 
L 1991 3584 
z
" transform="scale(0.015625)"/>
      <path id="DejaVuSans-20" transform="scale(0.015625)"/>
      <path id="DejaVuSans-73" d="M 2834 3397 
L 2834 2853 
Q 2591 2978 2328 3040 
Q 2066 3103 1784 3103 
Q 1356 3103 1142 2972 
Q 928 2841 928 2578 
Q 928 2378 1081 2264 
Q 1234 2150 1697 2047 
L 1894 2003 
Q 2506 1872 2764 1633 
Q 3022 1394 3022 966 
Q 3022 478 2636 193 
Q 2250 -91 1575 -91 
Q 1294 -91 989 -36 
Q 684 19 347 128 
L 347 722 
Q 666 556 975 473 
Q 1284 391 1588 391 
Q 1994 391 2212 530 
Q 2431 669 2431 922 
Q 2431 1156 2273 1281 
Q 2116 1406 1581 1522 
L 1381 1569 
Q 847 1681 609 1914 
Q 372 2147 372 2553 
Q 372 3047 722 3315 
Q 1072 3584 1716 3584 
Q 2034 3584 2315 3537 
Q 2597 3491 2834 3397 
z
" transform="scale(0.015625)"/>
      <path id="DejaVuSans-69" d="M 603 3500 
L 1178 3500 
L 1178 0 
L 603 0 
L 603 3500 
z
M 603 4863 
L 1178 4863 
L 1178 4134 
L 603 4134 
L 603 4863 
z
" transform="scale(0.015625)"/>
      <path id="DejaVuSans-7a" d="M 353 3500 
L 3084 3500 
L 3084 2975 
L 922 459 
L 3084 459 
L 3084 0 
L 275 0 
L 275 525 
L 2438 3041 
L 353 3041 
L 353 3500 
z
" transform="scale(0.015625)"/>
      <path id="DejaVuSans-28" d="M 1984 4856 
Q 1566 4138 1362 3434 
Q 1159 2731 1159 2009 
Q 1159 1288 1364 580 
Q 1569 -128 1984 -844 
L 1484 -844 
Q 1016 -109 783 600 
Q 550 1309 550 2009 
Q 550 2706 781 3412 
Q 1013 4119 1484 4856 
L 1984 4856 
z
" transform="scale(0.015625)"/>
      <path id="DejaVuSans-79" d="M 2059 -325 
Q 1816 -950 1584 -1140 
Q 1353 -1331 966 -1331 
L 506 -1331 
L 506 -850 
L 844 -850 
Q 1081 -850 1212 -737 
Q 1344 -625 1503 -206 
L 1606 56 
L 191 3500 
L 800 3500 
L 1894 763 
L 2988 3500 
L 3597 3500 
L 2059 -325 
z
" transform="scale(0.015625)"/>
      <path id="DejaVuSans-2d" d="M 313 2009 
L 1997 2009 
L 1997 1497 
L 313 1497 
L 313 2009 
z
" transform="scale(0.015625)"/>
      <path id="DejaVuSans-61" d="M 2194 1759 
Q 1497 1759 1228 1600 
Q 959 1441 959 1056 
Q 959 750 1161 570 
Q 1363 391 1709 391 
Q 2188 391 2477 730 
Q 2766 1069 2766 1631 
L 2766 1759 
L 2194 1759 
z
M 3341 1997 
L 3341 0 
L 2766 0 
L 2766 531 
Q 2569 213 2275 61 
Q 1981 -91 1556 -91 
Q 1019 -91 701 211 
Q 384 513 384 1019 
Q 384 1609 779 1909 
Q 1175 2209 1959 2209 
L 2766 2209 
L 2766 2266 
Q 2766 2663 2505 2880 
Q 2244 3097 1772 3097 
Q 1472 3097 1187 3025 
Q 903 2953 641 2809 
L 641 3341 
Q 956 3463 1253 3523 
Q 1550 3584 1831 3584 
Q 2591 3584 2966 3190 
Q 3341 2797 3341 1997 
z
" transform="scale(0.015625)"/>
      <path id="DejaVuSans-78" d="M 3513 3500 
L 2247 1797 
L 3578 0 
L 2900 0 
L 1881 1375 
L 863 0 
L 184 0 
L 1544 1831 
L 300 3500 
L 978 3500 
L 1906 2253 
L 2834 3500 
L 3513 3500 
z
" transform="scale(0.015625)"/>
      <path id="DejaVuSans-29" d="M 513 4856 
L 1013 4856 
Q 1481 4119 1714 3412 
Q 1947 2706 1947 2009 
Q 1947 1309 1714 600 
Q 1481 -109 1013 -844 
L 513 -844 
Q 928 -128 1133 580 
Q 1338 1288 1338 2009 
Q 1338 2731 1133 3434 
Q 928 4138 513 4856 
z
" transform="scale(0.015625)"/>
      <path id="DejaVuSans-62" d="M 3116 1747 
Q 3116 2381 2855 2742 
Q 2594 3103 2138 3103 
Q 1681 3103 1420 2742 
Q 1159 2381 1159 1747 
Q 1159 1113 1420 752 
Q 1681 391 2138 391 
Q 2594 391 2855 752 
Q 3116 1113 3116 1747 
z
M 1159 2969 
Q 1341 3281 1617 3432 
Q 1894 3584 2278 3584 
Q 2916 3584 3314 3078 
Q 3713 2572 3713 1747 
Q 3713 922 3314 415 
Q 2916 -91 2278 -91 
Q 1894 -91 1617 61 
Q 1341 213 1159 525 
L 1159 0 
L 581 0 
L 581 4863 
L 1159 4863 
L 1159 2969 
z
" transform="scale(0.015625)"/>
      <path id="DejaVuSans-74" d="M 1172 4494 
L 1172 3500 
L 2356 3500 
L 2356 3053 
L 1172 3053 
L 1172 1153 
Q 1172 725 1289 603 
Q 1406 481 1766 481 
L 2356 481 
L 2356 0 
L 1766 0 
Q 1100 0 847 248 
Q 594 497 594 1153 
L 594 3053 
L 172 3053 
L 172 3500 
L 594 3500 
L 594 4494 
L 1172 4494 
z
" transform="scale(0.015625)"/>
      <path id="DejaVuSans-77" d="M 269 3500 
L 844 3500 
L 1563 769 
L 2278 3500 
L 2956 3500 
L 3675 769 
L 4391 3500 
L 4966 3500 
L 4050 0 
L 3372 0 
L 2619 2869 
L 1863 0 
L 1184 0 
L 269 3500 
z
" transform="scale(0.015625)"/>
      <path id="DejaVuSans-6e" d="M 3513 2113 
L 3513 0 
L 2938 0 
L 2938 2094 
Q 2938 2591 2744 2837 
Q 2550 3084 2163 3084 
Q 1697 3084 1428 2787 
Q 1159 2491 1159 1978 
L 1159 0 
L 581 0 
L 581 3500 
L 1159 3500 
L 1159 2956 
Q 1366 3272 1645 3428 
Q 1925 3584 2291 3584 
Q 2894 3584 3203 3211 
Q 3513 2838 3513 2113 
z
" transform="scale(0.015625)"/>
      <path id="DejaVuSans-53" d="M 3425 4513 
L 3425 3897 
Q 3066 4069 2747 4153 
Q 2428 4238 2131 4238 
Q 1616 4238 1336 4038 
Q 1056 3838 1056 3469 
Q 1056 3159 1242 3001 
Q 1428 2844 1947 2747 
L 2328 2669 
Q 3034 2534 3370 2195 
Q 3706 1856 3706 1288 
Q 3706 609 3251 259 
Q 2797 -91 1919 -91 
Q 1588 -91 1214 -16 
Q 841 59 441 206 
L 441 856 
Q 825 641 1194 531 
Q 1563 422 1919 422 
Q 2459 422 2753 634 
Q 3047 847 3047 1241 
Q 3047 1584 2836 1778 
Q 2625 1972 2144 2069 
L 1759 2144 
Q 1053 2284 737 2584 
Q 422 2884 422 3419 
Q 422 4038 858 4394 
Q 1294 4750 2059 4750 
Q 2388 4750 2728 4690 
Q 3069 4631 3425 4513 
z
" transform="scale(0.015625)"/>
      <path id="DejaVuSans-64" d="M 2906 2969 
L 2906 4863 
L 3481 4863 
L 3481 0 
L 2906 0 
L 2906 525 
Q 2725 213 2448 61 
Q 2172 -91 1784 -91 
Q 1150 -91 751 415 
Q 353 922 353 1747 
Q 353 2572 751 3078 
Q 1150 3584 1784 3584 
Q 2172 3584 2448 3432 
Q 2725 3281 2906 2969 
z
M 947 1747 
Q 947 1113 1208 752 
Q 1469 391 1925 391 
Q 2381 391 2643 752 
Q 2906 1113 2906 1747 
Q 2906 2381 2643 2742 
Q 2381 3103 1925 3103 
Q 1469 3103 1208 2742 
Q 947 2381 947 1747 
z
" transform="scale(0.015625)"/>
      <path id="DejaVuSans-6f" d="M 1959 3097 
Q 1497 3097 1228 2736 
Q 959 2375 959 1747 
Q 959 1119 1226 758 
Q 1494 397 1959 397 
Q 2419 397 2687 759 
Q 2956 1122 2956 1747 
Q 2956 2369 2687 2733 
Q 2419 3097 1959 3097 
z
M 1959 3584 
Q 2709 3584 3137 3096 
Q 3566 2609 3566 1747 
Q 3566 888 3137 398 
Q 2709 -91 1959 -91 
Q 1206 -91 779 398 
Q 353 888 353 1747 
Q 353 2609 779 3096 
Q 1206 3584 1959 3584 
z
" transform="scale(0.015625)"/>
      <path id="DejaVuSans-72" d="M 2631 2963 
Q 2534 3019 2420 3045 
Q 2306 3072 2169 3072 
Q 1681 3072 1420 2755 
Q 1159 2438 1159 1844 
L 1159 0 
L 581 0 
L 581 3500 
L 1159 3500 
L 1159 2956 
Q 1341 3275 1631 3429 
Q 1922 3584 2338 3584 
Q 2397 3584 2469 3576 
Q 2541 3569 2628 3553 
L 2631 2963 
z
" transform="scale(0.015625)"/>
      <path id="DejaVuSans-68" d="M 3513 2113 
L 3513 0 
L 2938 0 
L 2938 2094 
Q 2938 2591 2744 2837 
Q 2550 3084 2163 3084 
Q 1697 3084 1428 2787 
Q 1159 2491 1159 1978 
L 1159 0 
L 581 0 
L 581 4863 
L 1159 4863 
L 1159 2956 
Q 1366 3272 1645 3428 
Q 1925 3584 2291 3584 
Q 2894 3584 3203 3211 
Q 3513 2838 3513 2113 
z
" transform="scale(0.015625)"/>
      <path id="DejaVuSans-66" d="M 2375 4863 
L 2375 4384 
L 1825 4384 
Q 1516 4384 1395 4259 
Q 1275 4134 1275 3809 
L 1275 3500 
L 2222 3500 
L 2222 3053 
L 1275 3053 
L 1275 0 
L 697 0 
L 697 3053 
L 147 3053 
L 147 3500 
L 697 3500 
L 697 3744 
Q 697 4328 969 4595 
Q 1241 4863 1831 4863 
L 2375 4863 
z
" transform="scale(0.015625)"/>
      <path id="DejaVuSans-6c" d="M 603 4863 
L 1178 4863 
L 1178 0 
L 603 0 
L 603 4863 
z
" transform="scale(0.015625)"/>
      <path id="DejaVuSans-6d" d="M 3328 2828 
Q 3544 3216 3844 3400 
Q 4144 3584 4550 3584 
Q 5097 3584 5394 3201 
Q 5691 2819 5691 2113 
L 5691 0 
L 5113 0 
L 5113 2094 
Q 5113 2597 4934 2840 
Q 4756 3084 4391 3084 
Q 3944 3084 3684 2787 
Q 3425 2491 3425 1978 
L 3425 0 
L 2847 0 
L 2847 2094 
Q 2847 2600 2669 2842 
Q 2491 3084 2119 3084 
Q 1678 3084 1418 2786 
Q 1159 2488 1159 1978 
L 1159 0 
L 581 0 
L 581 3500 
L 1159 3500 
L 1159 2956 
Q 1356 3278 1631 3431 
Q 1906 3584 2284 3584 
Q 2666 3584 2933 3390 
Q 3200 3197 3328 2828 
z
" transform="scale(0.015625)"/>
     </defs>
     <use xlink:href="#DejaVuSans-51"/>
     <use xlink:href="#DejaVuSans-75" x="78.710938"/>
     <use xlink:href="#DejaVuSans-65" x="142.089844"/>
     <use xlink:href="#DejaVuSans-75" x="203.613281"/>
     <use xlink:href="#DejaVuSans-65" x="266.992188"/>
     <use xlink:href="#DejaVuSans-20" x="328.515625"/>
     <use xlink:href="#DejaVuSans-73" x="360.302734"/>
     <use xlink:href="#DejaVuSans-69" x="412.402344"/>
     <use xlink:href="#DejaVuSans-7a" x="440.185547"/>
     <use xlink:href="#DejaVuSans-65" x="492.675781"/>
     <use xlink:href="#DejaVuSans-20" x="554.199219"/>
     <use xlink:href="#DejaVuSans-28" x="585.986328"/>
     <use xlink:href="#DejaVuSans-79" x="625"/>
     <use xlink:href="#DejaVuSans-2d" x="682.429688"/>
     <use xlink:href="#DejaVuSans-61" x="718.513672"/>
     <use xlink:href="#DejaVuSans-78" x="779.792969"/>
     <use xlink:href="#DejaVuSans-69" x="838.972656"/>
     <use xlink:href="#DejaVuSans-73" x="866.755859"/>
     <use xlink:href="#DejaVuSans-29" x="918.855469"/>
     <use xlink:href="#DejaVuSans-20" x="957.869141"/>
     <use xlink:href="#DejaVuSans-62" x="989.65625"/>
     <use xlink:href="#DejaVuSans-65" x="1053.132812"/>
     <use xlink:href="#DejaVuSans-74" x="1114.65625"/>
     <use xlink:href="#DejaVuSans-77" x="1153.865234"/>
     <use xlink:href="#DejaVuSans-65" x="1235.652344"/>
     <use xlink:href="#DejaVuSans-65" x="1297.175781"/>
     <use xlink:href="#DejaVuSans-6e" x="1358.699219"/>
     <use xlink:href="#DejaVuSans-20" x="1422.078125"/>
     <use xlink:href="#DejaVuSans-53" x="1453.865234"/>
     <use xlink:href="#DejaVuSans-31" x="1517.341797"/>
     <use xlink:href="#DejaVuSans-20" x="1580.964844"/>
     <use xlink:href="#DejaVuSans-61" x="1612.751953"/>
     <use xlink:href="#DejaVuSans-6e" x="1674.03125"/>
     <use xlink:href="#DejaVuSans-64" x="1737.410156"/>
     <use xlink:href="#DejaVuSans-20" x="1800.886719"/>
     <use xlink:href="#DejaVuSans-73" x="1832.673828"/>
     <use xlink:href="#DejaVuSans-65" x="1884.773438"/>
     <use xlink:href="#DejaVuSans-6e" x="1946.296875"/>
     <use xlink:href="#DejaVuSans-73" x="2009.675781"/>
     <use xlink:href="#DejaVuSans-6f" x="2061.775391"/>
     <use xlink:href="#DejaVuSans-72" x="2122.957031"/>
     <use xlink:href="#DejaVuSans-73" x="2164.070312"/>
     <use xlink:href="#DejaVuSans-20" x="2216.169922"/>
     <use xlink:href="#DejaVuSans-74" x="2247.957031"/>
     <use xlink:href="#DejaVuSans-68" x="2287.166016"/>
     <use xlink:href="#DejaVuSans-61" x="2350.544922"/>
     <use xlink:href="#DejaVuSans-74" x="2411.824219"/>
     <use xlink:href="#DejaVuSans-20" x="2451.033203"/>
     <use xlink:href="#DejaVuSans-66" x="2482.820312"/>
     <use xlink:href="#DejaVuSans-6f" x="2518.025391"/>
     <use xlink:href="#DejaVuSans-6c" x="2579.207031"/>
     <use xlink:href="#DejaVuSans-6c" x="2606.990234"/>
     <use xlink:href="#DejaVuSans-6f" x="2634.773438"/>
     <use xlink:href="#DejaVuSans-77" x="2695.955078"/>
     <use xlink:href="#DejaVuSans-20" x="2777.742188"/>
     <use xlink:href="#DejaVuSans-61" x="2809.529297"/>
     <use xlink:href="#DejaVuSans-74" x="2870.808594"/>
     <use xlink:href="#DejaVuSans-20" x="2910.017578"/>
     <use xlink:href="#DejaVuSans-61" x="2941.804688"/>
     <use xlink:href="#DejaVuSans-20" x="3003.083984"/>
     <use xlink:href="#DejaVuSans-74" x="3034.871094"/>
     <use xlink:href="#DejaVuSans-69" x="3074.080078"/>
     <use xlink:href="#DejaVuSans-6d" x="3101.863281"/>
     <use xlink:href="#DejaVuSans-65" x="3199.275391"/>
     <use xlink:href="#DejaVuSans-20" x="3260.798828"/>
     <use xlink:href="#DejaVuSans-28" x="3292.585938"/>
     <use xlink:href="#DejaVuSans-78" x="3331.599609"/>
     <use xlink:href="#DejaVuSans-2d" x="3390.779297"/>
     <use xlink:href="#DejaVuSans-61" x="3426.863281"/>
     <use xlink:href="#DejaVuSans-78" x="3488.142578"/>
     <use xlink:href="#DejaVuSans-69" x="3547.322266"/>
     <use xlink:href="#DejaVuSans-73" x="3575.105469"/>
     <use xlink:href="#DejaVuSans-29" x="3627.205078"/>
     <use xlink:href="#DejaVuSans-2e" x="3666.21875"/>
    </g>
   </g>
  </g>
 </g>
 <defs>
  <clipPath id="p8cf5c4ee41">
   <rect x="57.6" y="41.472" width="357.12" height="266.112"/>
  </clipPath>
 </defs>
</svg>
