<?xml version="1.0" encoding="utf-8" standalone="no"?>
<!DOCTYPE svg PUBLIC "-//W3C//DTD SVG 1.1//EN"
  "http://www.w3.org/Graphics/SVG/1.1/DTD/svg11.dtd">
<svg xmlns:xlink="http://www.w3.org/1999/xlink" width="460.8pt" height="345.6pt" viewBox="0 0 460.8 345.6" xmlns="http://www.w3.org/2000/svg" version="1.1">
 <metadata>
  <rdf:RDF xmlns:dc="http://purl.org/dc/elements/1.1/" xmlns:cc="http://creativecommons.org/ns#" xmlns:rdf="http://www.w3.org/1999/02/22-rdf-syntax-ns#">
   <cc:Work>
    <dc:type rdf:resource="http://purl.org/dc/dcmitype/StillImage"/>
    <dc:date>2024-03-08T10:53:23.580144</dc:date>
    <dc:format>image/svg+xml</dc:format>
    <dc:creator>
     <cc:Agent>
      <dc:title>Matplotlib v3.8.2, https://matplotlib.org/</dc:title>
     </cc:Agent>
    </dc:creator>
   </cc:Work>
  </rdf:RDF>
 </metadata>
 <defs>
  <style type="text/css">*{stroke-linejoin: round; stroke-linecap: butt}</style>
 </defs>
 <g id="figure_1">
  <g id="patch_1">
   <path d="M 0 345.6 
L 460.8 345.6 
L 460.8 0 
L 0 0 
z
" style="fill: #ffffff"/>
  </g>
  <g id="axes_1">
   <g id="patch_2">
    <path d="M 57.6 307.584 
L 414.72 307.584 
L 414.72 41.472 
L 57.6 41.472 
z
" style="fill: #ffffff"/>
   </g>
   <g id="matplotlib.axis_1">
    <g id="xtick_1">
     <g id="line2d_1">
      <defs>
       <path id="m16017c0b47" d="M 0 0 
L 0 3.5 
" style="stroke: #000000; stroke-width: 0.8"/>
      </defs>
      <g>
       <use xlink:href="#m16017c0b47" x="73.137607" y="307.584" style="stroke: #000000; stroke-width: 0.8"/>
      </g>
     </g>
     <g id="text_1">
      <!-- 0.0 -->
      <g transform="translate(65.186045 322.182437) scale(0.1 -0.1)">
       <defs>
        <path id="DejaVuSans-30" d="M 2034 4250 
Q 1547 4250 1301 3770 
Q 1056 3291 1056 2328 
Q 1056 1369 1301 889 
Q 1547 409 2034 409 
Q 2525 409 2770 889 
Q 3016 1369 3016 2328 
Q 3016 3291 2770 3770 
Q 2525 4250 2034 4250 
z
M 2034 4750 
Q 2819 4750 3233 4129 
Q 3647 3509 3647 2328 
Q 3647 1150 3233 529 
Q 2819 -91 2034 -91 
Q 1250 -91 836 529 
Q 422 1150 422 2328 
Q 422 3509 836 4129 
Q 1250 4750 2034 4750 
z
" transform="scale(0.015625)"/>
        <path id="DejaVuSans-2e" d="M 684 794 
L 1344 794 
L 1344 0 
L 684 0 
L 684 794 
z
" transform="scale(0.015625)"/>
       </defs>
       <use xlink:href="#DejaVuSans-30"/>
       <use xlink:href="#DejaVuSans-2e" x="63.623047"/>
       <use xlink:href="#DejaVuSans-30" x="95.410156"/>
      </g>
     </g>
    </g>
    <g id="xtick_2">
     <g id="line2d_2">
      <g>
       <use xlink:href="#m16017c0b47" x="118.333974" y="307.584" style="stroke: #000000; stroke-width: 0.8"/>
      </g>
     </g>
     <g id="text_2">
      <!-- 0.5 -->
      <g transform="translate(110.382412 322.182437) scale(0.1 -0.1)">
       <defs>
        <path id="DejaVuSans-35" d="M 691 4666 
L 3169 4666 
L 3169 4134 
L 1269 4134 
L 1269 2991 
Q 1406 3038 1543 3061 
Q 1681 3084 1819 3084 
Q 2600 3084 3056 2656 
Q 3513 2228 3513 1497 
Q 3513 744 3044 326 
Q 2575 -91 1722 -91 
Q 1428 -91 1123 -41 
Q 819 9 494 109 
L 494 744 
Q 775 591 1075 516 
Q 1375 441 1709 441 
Q 2250 441 2565 725 
Q 2881 1009 2881 1497 
Q 2881 1984 2565 2268 
Q 2250 2553 1709 2553 
Q 1456 2553 1204 2497 
Q 953 2441 691 2322 
L 691 4666 
z
" transform="scale(0.015625)"/>
       </defs>
       <use xlink:href="#DejaVuSans-30"/>
       <use xlink:href="#DejaVuSans-2e" x="63.623047"/>
       <use xlink:href="#DejaVuSans-35" x="95.410156"/>
      </g>
     </g>
    </g>
    <g id="xtick_3">
     <g id="line2d_3">
      <g>
       <use xlink:href="#m16017c0b47" x="163.530342" y="307.584" style="stroke: #000000; stroke-width: 0.8"/>
      </g>
     </g>
     <g id="text_3">
      <!-- 1.0 -->
      <g transform="translate(155.578779 322.182437) scale(0.1 -0.1)">
       <defs>
        <path id="DejaVuSans-31" d="M 794 531 
L 1825 531 
L 1825 4091 
L 703 3866 
L 703 4441 
L 1819 4666 
L 2450 4666 
L 2450 531 
L 3481 531 
L 3481 0 
L 794 0 
L 794 531 
z
" transform="scale(0.015625)"/>
       </defs>
       <use xlink:href="#DejaVuSans-31"/>
       <use xlink:href="#DejaVuSans-2e" x="63.623047"/>
       <use xlink:href="#DejaVuSans-30" x="95.410156"/>
      </g>
     </g>
    </g>
    <g id="xtick_4">
     <g id="line2d_4">
      <g>
       <use xlink:href="#m16017c0b47" x="208.726709" y="307.584" style="stroke: #000000; stroke-width: 0.8"/>
      </g>
     </g>
     <g id="text_4">
      <!-- 1.5 -->
      <g transform="translate(200.775146 322.182437) scale(0.1 -0.1)">
       <use xlink:href="#DejaVuSans-31"/>
       <use xlink:href="#DejaVuSans-2e" x="63.623047"/>
       <use xlink:href="#DejaVuSans-35" x="95.410156"/>
      </g>
     </g>
    </g>
    <g id="xtick_5">
     <g id="line2d_5">
      <g>
       <use xlink:href="#m16017c0b47" x="253.923076" y="307.584" style="stroke: #000000; stroke-width: 0.8"/>
      </g>
     </g>
     <g id="text_5">
      <!-- 2.0 -->
      <g transform="translate(245.971514 322.182437) scale(0.1 -0.1)">
       <defs>
        <path id="DejaVuSans-32" d="M 1228 531 
L 3431 531 
L 3431 0 
L 469 0 
L 469 531 
Q 828 903 1448 1529 
Q 2069 2156 2228 2338 
Q 2531 2678 2651 2914 
Q 2772 3150 2772 3378 
Q 2772 3750 2511 3984 
Q 2250 4219 1831 4219 
Q 1534 4219 1204 4116 
Q 875 4013 500 3803 
L 500 4441 
Q 881 4594 1212 4672 
Q 1544 4750 1819 4750 
Q 2544 4750 2975 4387 
Q 3406 4025 3406 3419 
Q 3406 3131 3298 2873 
Q 3191 2616 2906 2266 
Q 2828 2175 2409 1742 
Q 1991 1309 1228 531 
z
" transform="scale(0.015625)"/>
       </defs>
       <use xlink:href="#DejaVuSans-32"/>
       <use xlink:href="#DejaVuSans-2e" x="63.623047"/>
       <use xlink:href="#DejaVuSans-30" x="95.410156"/>
      </g>
     </g>
    </g>
    <g id="xtick_6">
     <g id="line2d_6">
      <g>
       <use xlink:href="#m16017c0b47" x="299.119444" y="307.584" style="stroke: #000000; stroke-width: 0.8"/>
      </g>
     </g>
     <g id="text_6">
      <!-- 2.5 -->
      <g transform="translate(291.167881 322.182437) scale(0.1 -0.1)">
       <use xlink:href="#DejaVuSans-32"/>
       <use xlink:href="#DejaVuSans-2e" x="63.623047"/>
       <use xlink:href="#DejaVuSans-35" x="95.410156"/>
      </g>
     </g>
    </g>
    <g id="xtick_7">
     <g id="line2d_7">
      <g>
       <use xlink:href="#m16017c0b47" x="344.315811" y="307.584" style="stroke: #000000; stroke-width: 0.8"/>
      </g>
     </g>
     <g id="text_7">
      <!-- 3.0 -->
      <g transform="translate(336.364248 322.182437) scale(0.1 -0.1)">
       <defs>
        <path id="DejaVuSans-33" d="M 2597 2516 
Q 3050 2419 3304 2112 
Q 3559 1806 3559 1356 
Q 3559 666 3084 287 
Q 2609 -91 1734 -91 
Q 1441 -91 1130 -33 
Q 819 25 488 141 
L 488 750 
Q 750 597 1062 519 
Q 1375 441 1716 441 
Q 2309 441 2620 675 
Q 2931 909 2931 1356 
Q 2931 1769 2642 2001 
Q 2353 2234 1838 2234 
L 1294 2234 
L 1294 2753 
L 1863 2753 
Q 2328 2753 2575 2939 
Q 2822 3125 2822 3475 
Q 2822 3834 2567 4026 
Q 2313 4219 1838 4219 
Q 1578 4219 1281 4162 
Q 984 4106 628 3988 
L 628 4550 
Q 988 4650 1302 4700 
Q 1616 4750 1894 4750 
Q 2613 4750 3031 4423 
Q 3450 4097 3450 3541 
Q 3450 3153 3228 2886 
Q 3006 2619 2597 2516 
z
" transform="scale(0.015625)"/>
       </defs>
       <use xlink:href="#DejaVuSans-33"/>
       <use xlink:href="#DejaVuSans-2e" x="63.623047"/>
       <use xlink:href="#DejaVuSans-30" x="95.410156"/>
      </g>
     </g>
    </g>
    <g id="xtick_8">
     <g id="line2d_8">
      <g>
       <use xlink:href="#m16017c0b47" x="389.512178" y="307.584" style="stroke: #000000; stroke-width: 0.8"/>
      </g>
     </g>
     <g id="text_8">
      <!-- 3.5 -->
      <g transform="translate(381.560616 322.182437) scale(0.1 -0.1)">
       <use xlink:href="#DejaVuSans-33"/>
       <use xlink:href="#DejaVuSans-2e" x="63.623047"/>
       <use xlink:href="#DejaVuSans-35" x="95.410156"/>
      </g>
     </g>
    </g>
    <g id="text_9">
     <!-- 1e6 -->
     <g transform="translate(395.841875 334.860562) scale(0.1 -0.1)">
      <defs>
       <path id="DejaVuSans-65" d="M 3597 1894 
L 3597 1613 
L 953 1613 
Q 991 1019 1311 708 
Q 1631 397 2203 397 
Q 2534 397 2845 478 
Q 3156 559 3463 722 
L 3463 178 
Q 3153 47 2828 -22 
Q 2503 -91 2169 -91 
Q 1331 -91 842 396 
Q 353 884 353 1716 
Q 353 2575 817 3079 
Q 1281 3584 2069 3584 
Q 2775 3584 3186 3129 
Q 3597 2675 3597 1894 
z
M 3022 2063 
Q 3016 2534 2758 2815 
Q 2500 3097 2075 3097 
Q 1594 3097 1305 2825 
Q 1016 2553 972 2059 
L 3022 2063 
z
" transform="scale(0.015625)"/>
       <path id="DejaVuSans-36" d="M 2113 2584 
Q 1688 2584 1439 2293 
Q 1191 2003 1191 1497 
Q 1191 994 1439 701 
Q 1688 409 2113 409 
Q 2538 409 2786 701 
Q 3034 994 3034 1497 
Q 3034 2003 2786 2293 
Q 2538 2584 2113 2584 
z
M 3366 4563 
L 3366 3988 
Q 3128 4100 2886 4159 
Q 2644 4219 2406 4219 
Q 1781 4219 1451 3797 
Q 1122 3375 1075 2522 
Q 1259 2794 1537 2939 
Q 1816 3084 2150 3084 
Q 2853 3084 3261 2657 
Q 3669 2231 3669 1497 
Q 3669 778 3244 343 
Q 2819 -91 2113 -91 
Q 1303 -91 875 529 
Q 447 1150 447 2328 
Q 447 3434 972 4092 
Q 1497 4750 2381 4750 
Q 2619 4750 2861 4703 
Q 3103 4656 3366 4563 
z
" transform="scale(0.015625)"/>
      </defs>
      <use xlink:href="#DejaVuSans-31"/>
      <use xlink:href="#DejaVuSans-65" x="63.623047"/>
      <use xlink:href="#DejaVuSans-36" x="125.146484"/>
     </g>
    </g>
   </g>
   <g id="matplotlib.axis_2">
    <g id="ytick_1">
     <g id="line2d_9">
      <defs>
       <path id="m2be81e8440" d="M 0 0 
L -3.5 0 
" style="stroke: #000000; stroke-width: 0.8"/>
      </defs>
      <g>
       <use xlink:href="#m2be81e8440" x="57.6" y="295.488" style="stroke: #000000; stroke-width: 0.8"/>
      </g>
     </g>
     <g id="text_10">
      <!-- 0 -->
      <g transform="translate(44.2375 299.287219) scale(0.1 -0.1)">
       <use xlink:href="#DejaVuSans-30"/>
      </g>
     </g>
    </g>
    <g id="ytick_2">
     <g id="line2d_10">
      <g>
       <use xlink:href="#m2be81e8440" x="57.6" y="242.896696" style="stroke: #000000; stroke-width: 0.8"/>
      </g>
     </g>
     <g id="text_11">
      <!-- 10 -->
      <g transform="translate(37.875 246.695914) scale(0.1 -0.1)">
       <use xlink:href="#DejaVuSans-31"/>
       <use xlink:href="#DejaVuSans-30" x="63.623047"/>
      </g>
     </g>
    </g>
    <g id="ytick_3">
     <g id="line2d_11">
      <g>
       <use xlink:href="#m2be81e8440" x="57.6" y="190.305391" style="stroke: #000000; stroke-width: 0.8"/>
      </g>
     </g>
     <g id="text_12">
      <!-- 20 -->
      <g transform="translate(37.875 194.10461) scale(0.1 -0.1)">
       <use xlink:href="#DejaVuSans-32"/>
       <use xlink:href="#DejaVuSans-30" x="63.623047"/>
      </g>
     </g>
    </g>
    <g id="ytick_4">
     <g id="line2d_12">
      <g>
       <use xlink:href="#m2be81e8440" x="57.6" y="137.714087" style="stroke: #000000; stroke-width: 0.8"/>
      </g>
     </g>
     <g id="text_13">
      <!-- 30 -->
      <g transform="translate(37.875 141.513306) scale(0.1 -0.1)">
       <use xlink:href="#DejaVuSans-33"/>
       <use xlink:href="#DejaVuSans-30" x="63.623047"/>
      </g>
     </g>
    </g>
    <g id="ytick_5">
     <g id="line2d_13">
      <g>
       <use xlink:href="#m2be81e8440" x="57.6" y="85.122783" style="stroke: #000000; stroke-width: 0.8"/>
      </g>
     </g>
     <g id="text_14">
      <!-- 40 -->
      <g transform="translate(37.875 88.922001) scale(0.1 -0.1)">
       <defs>
        <path id="DejaVuSans-34" d="M 2419 4116 
L 825 1625 
L 2419 1625 
L 2419 4116 
z
M 2253 4666 
L 3047 4666 
L 3047 1625 
L 3713 1625 
L 3713 1100 
L 3047 1100 
L 3047 0 
L 2419 0 
L 2419 1100 
L 313 1100 
L 313 1709 
L 2253 4666 
z
" transform="scale(0.015625)"/>
       </defs>
       <use xlink:href="#DejaVuSans-34"/>
       <use xlink:href="#DejaVuSans-30" x="63.623047"/>
      </g>
     </g>
    </g>
   </g>
   <g id="line2d_14">
    <path d="M 73.832727 290.22887 
L 75.100937 269.192348 
L 75.302513 274.451478 
L 75.415504 269.192348 
L 75.617984 274.451478 
L 75.730071 269.192348 
L 75.93255 274.451478 
L 76.043734 269.192348 
L 76.248021 274.451478 
L 76.365532 269.192348 
L 76.569819 274.451478 
L 76.683714 269.192348 
L 76.88529 274.451478 
L 77.000993 269.192348 
L 77.198953 274.451478 
L 77.318271 269.192348 
L 77.513519 274.451478 
L 77.637357 269.192348 
L 77.834414 274.451478 
L 77.957348 269.192348 
L 78.1535 274.451478 
L 78.277338 269.192348 
L 78.469875 274.451478 
L 78.589193 269.192348 
L 78.787153 274.451478 
L 80.058075 295.488 
L 84.39783 290.22887 
L 84.648218 242.896696 
L 85.547626 227.119304 
L 85.859481 221.860174 
L 86.003205 253.414957 
L 86.1171 274.451478 
L 86.178567 269.192348 
L 86.391894 274.451478 
L 86.494038 269.192348 
L 86.700133 274.451478 
L 86.809508 269.192348 
L 87.016508 274.451478 
L 87.130402 269.192348 
L 87.328363 274.451478 
L 87.441353 269.192348 
L 87.647449 274.451478 
L 87.757728 269.192348 
L 87.96292 274.451478 
L 88.067775 269.192348 
L 88.279294 274.451478 
L 88.382342 269.192348 
L 88.599284 274.451478 
L 88.703236 269.192348 
L 88.911139 274.451478 
L 89.014187 269.192348 
L 89.22661 274.451478 
L 89.326042 269.192348 
L 89.536657 274.451478 
L 89.646936 269.192348 
L 89.851224 274.451478 
L 89.966926 269.192348 
L 90.172118 274.451478 
L 90.287821 269.192348 
L 90.483069 274.451478 
L 90.59606 269.192348 
L 90.794924 274.451478 
L 90.910627 269.192348 
L 91.115818 274.451478 
L 91.225193 269.192348 
L 91.435808 274.451478 
L 91.548799 269.192348 
L 91.756703 274.451478 
L 91.863366 269.192348 
L 92.064942 274.451478 
L 92.176125 269.192348 
L 92.379509 274.451478 
L 92.487076 269.192348 
L 92.694979 274.451478 
L 92.802547 269.192348 
L 93.018585 274.451478 
L 93.118017 269.192348 
L 93.333152 274.451478 
L 93.428968 269.192348 
L 93.645007 274.451478 
L 93.743535 269.192348 
L 93.956862 274.451478 
L 94.063525 269.192348 
L 94.271428 274.451478 
L 94.382612 269.192348 
L 94.586899 274.451478 
L 94.696274 269.192348 
L 94.89785 274.451478 
L 95.010841 269.192348 
L 95.213321 274.451478 
L 95.326312 269.192348 
L 95.532407 274.451478 
L 95.645398 269.192348 
L 95.851493 274.451478 
L 95.959061 269.192348 
L 96.165156 274.451478 
L 96.277243 269.192348 
L 96.479723 274.451478 
L 96.598137 269.192348 
L 96.795194 274.451478 
L 96.908185 269.192348 
L 97.11428 274.451478 
L 97.226367 269.192348 
L 97.427943 274.451478 
L 97.546357 269.192348 
L 97.747029 274.451478 
L 98.067019 279.710609 
L 98.172779 274.451478 
L 98.37797 279.710609 
L 98.48825 274.451478 
L 98.695249 279.710609 
L 98.80372 274.451478 
L 99.015239 279.710609 
L 99.113767 274.451478 
L 99.43195 269.192348 
L 99.641661 274.451478 
L 99.746516 269.192348 
L 99.958035 274.451478 
L 100.065603 269.192348 
L 100.272602 274.451478 
L 100.386497 269.192348 
L 100.583553 274.451478 
L 100.70016 269.192348 
L 100.900832 274.451478 
L 101.021054 269.192348 
L 101.215398 274.451478 
L 101.335621 269.192348 
L 101.535389 274.451478 
L 101.651995 269.192348 
L 101.856283 274.451478 
L 101.965658 269.192348 
L 102.169042 274.451478 
L 102.276609 269.192348 
L 102.49084 274.451478 
L 102.600215 269.192348 
L 102.805407 274.451478 
L 102.915686 269.192348 
L 103.120877 274.451478 
L 103.230252 269.192348 
L 103.43454 274.451478 
L 103.550243 269.192348 
L 103.745491 274.451478 
L 103.867521 269.192348 
L 104.069097 274.451478 
L 104.187511 269.192348 
L 104.384568 274.451478 
L 104.502078 269.192348 
L 104.699134 274.451478 
L 104.813933 269.192348 
L 105.019125 274.451478 
L 105.133923 269.192348 
L 105.337307 274.451478 
L 105.44849 269.192348 
L 105.656393 274.451478 
L 105.757633 269.192348 
L 105.97096 274.451478 
L 106.074912 269.192348 
L 106.283719 274.451478 
L 106.384055 269.192348 
L 106.602805 274.451478 
L 106.703141 269.192348 
L 106.917372 274.451478 
L 107.016804 269.192348 
L 107.227419 274.451478 
L 107.332275 269.192348 
L 107.543794 274.451478 
L 107.64413 269.192348 
L 107.852937 274.451478 
L 107.957792 269.192348 
L 108.172023 274.451478 
L 108.276879 269.192348 
L 108.485686 274.451478 
L 108.590542 269.192348 
L 108.801157 274.451478 
L 108.901493 269.192348 
L 109.113012 274.451478 
L 109.225099 269.192348 
L 109.426674 274.451478 
L 109.541473 269.192348 
L 109.745761 274.451478 
L 109.864175 269.192348 
L 110.059424 274.451478 
L 110.179646 269.192348 
L 110.371278 274.451478 
L 111.010355 284.969739 
L 111.323114 279.710609 
L 111.333057 284.969739 
L 111.548192 279.710609 
L 111.649432 284.969739 
L 112.009195 274.451478 
L 112.683525 258.674087 
L 112.794708 263.933217 
L 112.907699 258.674087 
L 113.019786 263.933217 
L 113.135488 258.674087 
L 113.248479 263.933217 
L 113.359662 258.674087 
L 113.479885 263.933217 
L 113.58474 258.674087 
L 113.704059 263.933217 
L 113.81253 258.674087 
L 113.930944 263.933217 
L 114.038512 258.674087 
L 114.155118 263.933217 
L 114.270821 258.674087 
L 114.379292 263.933217 
L 114.496803 258.674087 
L 114.606178 263.933217 
L 114.722785 258.674087 
L 114.830352 263.933217 
L 114.947863 258.674087 
L 115.056334 263.933217 
L 115.169325 258.674087 
L 115.284124 263.933217 
L 115.398922 258.674087 
L 115.510105 263.933217 
L 115.621288 258.674087 
L 115.741511 263.933217 
L 115.853598 258.674087 
L 115.967493 263.933217 
L 116.078676 258.674087 
L 116.194378 263.933217 
L 116.304658 258.674087 
L 116.419456 263.933217 
L 116.735831 258.674087 
L 127.488047 263.933217 
L 127.589287 232.378435 
L 127.703181 190.305391 
L 127.71674 195.564522 
L 127.856849 190.305391 
L 128.100005 100.900174 
L 128.17232 106.159304 
L 128.284407 100.900174 
L 128.397398 106.159304 
L 128.507677 100.900174 
L 128.623379 106.159304 
L 128.734562 100.900174 
L 128.850265 106.159304 
L 128.955121 100.900174 
L 129.047321 127.195826 
L 129.174775 174.528 
L 129.176583 169.26887 
L 129.328443 174.528 
L 129.390814 200.823652 
L 129.407084 195.564522 
L 129.582446 200.823652 
L 129.623123 216.601043 
L 129.631258 211.341913 
L 130.079606 200.823652 
L 130.138362 221.860174 
L 130.532474 211.341913 
L 130.598461 232.378435 
L 130.981726 221.860174 
L 131.046809 237.637565 
L 131.436401 227.119304 
L 131.534929 237.637565 
L 131.562047 248.155826 
L 131.662383 242.896696 
L 131.888365 237.637565 
L 132.024858 248.155826 
L 132.05288 258.674087 
L 132.117963 253.414957 
L 132.340329 248.155826 
L 132.537385 253.414957 
L 132.569022 258.674087 
L 132.682917 263.933217 
L 132.787773 258.674087 
L 133.012851 253.414957 
L 133.133977 263.933217 
L 133.234313 258.674087 
L 133.359959 263.933217 
L 133.457583 258.674087 
L 133.588652 263.933217 
L 133.681757 258.674087 
L 133.811018 263.933217 
L 133.906835 258.674087 
L 134.036096 263.933217 
L 134.132817 258.674087 
L 134.258462 263.933217 
L 134.358798 258.674087 
L 134.48354 263.933217 
L 134.58478 258.674087 
L 134.705907 263.933217 
L 134.810762 258.674087 
L 134.929177 263.933217 
L 135.032224 258.674087 
L 135.153351 263.933217 
L 135.25911 258.674087 
L 135.378428 263.933217 
L 135.487804 258.674087 
L 135.603506 263.933217 
L 135.713785 258.674087 
L 135.829488 263.933217 
L 135.941575 258.674087 
L 136.056374 263.933217 
L 136.170269 258.674087 
L 136.282356 263.933217 
L 136.397155 258.674087 
L 136.503818 263.933217 
L 136.62404 258.674087 
L 136.7298 263.933217 
L 136.848214 258.674087 
L 136.958493 263.933217 
L 137.071484 258.674087 
L 137.184475 263.933217 
L 137.301082 258.674087 
L 137.412265 263.933217 
L 137.527968 258.674087 
L 137.641863 263.933217 
L 137.74943 258.674087 
L 137.867844 263.933217 
L 137.976316 258.674087 
L 138.09473 263.933217 
L 138.201394 258.674087 
L 138.319808 263.933217 
L 138.429183 258.674087 
L 138.543078 263.933217 
L 138.659685 258.674087 
L 138.772676 263.933217 
L 138.888378 258.674087 
L 138.998657 263.933217 
L 139.110744 258.674087 
L 139.221024 263.933217 
L 139.334918 258.674087 
L 139.447909 263.933217 
L 139.558189 258.674087 
L 139.672083 263.933217 
L 139.777843 258.674087 
L 139.900777 263.933217 
L 140.002017 258.674087 
L 140.131278 263.933217 
L 140.225287 258.674087 
L 140.359068 263.933217 
L 140.449461 258.674087 
L 140.582338 263.933217 
L 140.680866 258.674087 
L 140.805608 263.933217 
L 140.906848 258.674087 
L 141.028878 263.933217 
L 141.129214 258.674087 
L 141.249437 263.933217 
L 141.352484 258.674087 
L 141.473611 263.933217 
L 141.57485 258.674087 
L 141.696881 263.933217 
L 141.804448 258.674087 
L 141.921055 263.933217 
L 142.031334 258.674087 
L 142.151556 263.933217 
L 142.261835 258.674087 
L 142.377538 263.933217 
L 142.492337 258.674087 
L 142.600808 263.933217 
L 142.720126 258.674087 
L 142.823174 263.933217 
L 142.943396 258.674087 
L 143.046444 263.933217 
L 143.16757 258.674087 
L 143.276042 263.933217 
L 143.392648 258.674087 
L 143.502024 263.933217 
L 143.615014 258.674087 
L 143.733429 263.933217 
L 143.844612 258.674087 
L 143.963026 263.933217 
L 144.071498 258.674087 
L 144.190816 263.933217 
L 144.29748 258.674087 
L 144.41499 263.933217 
L 144.523461 258.674087 
L 144.639164 263.933217 
L 144.755771 258.674087 
L 144.863338 263.933217 
L 144.980849 258.674087 
L 145.086608 263.933217 
L 145.208638 258.674087 
L 145.316206 263.933217 
L 145.433716 258.674087 
L 145.543091 263.933217 
L 145.658794 258.674087 
L 145.768169 263.933217 
L 145.886584 258.674087 
L 145.994151 263.933217 
L 146.114374 258.674087 
L 146.226461 263.933217 
L 146.344875 258.674087 
L 146.452442 263.933217 
L 146.570857 258.674087 
L 146.680232 263.933217 
L 146.795031 258.674087 
L 146.90531 263.933217 
L 147.023724 258.674087 
L 147.129484 263.933217 
L 147.25061 258.674087 
L 147.358178 263.933217 
L 147.475688 258.674087 
L 147.585967 263.933217 
L 147.703478 258.674087 
L 147.816469 263.933217 
L 147.933979 258.674087 
L 148.041547 263.933217 
L 148.156345 258.674087 
L 148.265721 263.933217 
L 148.385039 258.674087 
L 148.495318 263.933217 
L 148.616444 258.674087 
L 148.7213 263.933217 
L 148.848754 258.674087 
L 148.947282 263.933217 
L 149.07112 258.674087 
L 149.175072 263.933217 
L 149.29439 258.674087 
L 149.405573 263.933217 
L 149.514044 258.674087 
L 149.627939 263.933217 
L 149.734603 258.674087 
L 149.856633 263.933217 
L 149.95968 258.674087 
L 150.088038 263.933217 
L 150.178431 258.674087 
L 150.320347 263.933217 
L 150.407125 258.674087 
L 150.542714 263.933217 
L 150.636722 258.674087 
L 150.76508 263.933217 
L 150.867224 258.674087 
L 150.984734 263.933217 
L 151.092301 258.674087 
L 151.206196 263.933217 
L 151.315571 258.674087 
L 151.431274 263.933217 
L 151.537034 258.674087 
L 151.650025 263.933217 
L 151.762112 258.674087 
L 151.878718 263.933217 
L 151.986286 258.674087 
L 152.107412 263.933217 
L 152.214075 258.674087 
L 152.338817 263.933217 
L 152.439153 258.674087 
L 152.562991 263.933217 
L 152.663327 258.674087 
L 152.786261 263.933217 
L 152.886597 258.674087 
L 153.007723 263.933217 
L 153.116195 258.674087 
L 153.232801 263.933217 
L 153.340369 258.674087 
L 153.457879 263.933217 
L 153.568158 258.674087 
L 153.684765 263.933217 
L 153.795948 258.674087 
L 153.909843 263.933217 
L 154.01741 258.674087 
L 154.134921 263.933217 
L 154.238873 258.674087 
L 154.358191 263.933217 
L 154.459431 258.674087 
L 154.587788 263.933217 
L 154.689028 258.674087 
L 154.811962 263.933217 
L 154.916818 258.674087 
L 155.038848 263.933217 
L 155.14732 258.674087 
L 155.267542 263.933217 
L 155.376917 258.674087 
L 155.4881 263.933217 
L 155.601995 258.674087 
L 155.709562 263.933217 
L 155.831593 258.674087 
L 155.931025 263.933217 
L 156.057574 258.674087 
L 156.160622 263.933217 
L 156.28446 258.674087 
L 156.387508 263.933217 
L 156.50773 258.674087 
L 156.618009 263.933217 
L 156.73552 258.674087 
L 156.848511 263.933217 
L 156.957886 258.674087 
L 157.073589 263.933217 
L 157.18206 258.674087 
L 157.303186 263.933217 
L 157.411658 258.674087 
L 157.529168 263.933217 
L 157.635831 258.674087 
L 157.756054 263.933217 
L 157.860005 258.674087 
L 157.97842 263.933217 
L 158.086891 258.674087 
L 158.20621 263.933217 
L 158.316489 258.674087 
L 158.428576 263.933217 
L 158.540663 258.674087 
L 158.653654 263.933217 
L 158.761221 258.674087 
L 158.883251 263.933217 
L 158.988107 258.674087 
L 159.107425 263.933217 
L 159.214993 258.674087 
L 159.331599 263.933217 
L 159.442782 258.674087 
L 159.558485 263.933217 
L 159.665148 258.674087 
L 159.787179 263.933217 
L 159.897458 258.674087 
L 160.011353 263.933217 
L 160.125247 258.674087 
L 160.232815 263.933217 
L 160.34671 258.674087 
L 160.459701 263.933217 
L 160.570884 258.674087 
L 160.686586 263.933217 
L 160.79325 258.674087 
L 160.914376 263.933217 
L 161.020135 258.674087 
L 161.136742 263.933217 
L 161.248829 258.674087 
L 161.596841 269.192348 
L 161.698985 263.933217 
L 161.817399 269.192348 
L 161.926775 263.933217 
L 162.041573 269.192348 
L 162.15366 263.933217 
L 162.263939 269.192348 
L 162.377834 263.933217 
L 162.490825 269.192348 
L 162.598393 263.933217 
L 162.720423 269.192348 
L 162.82799 263.933217 
L 163.048548 258.674087 
L 163.170579 263.933217 
L 163.278146 258.674087 
L 163.398368 263.933217 
L 163.505032 258.674087 
L 163.62435 263.933217 
L 163.727398 258.674087 
L 163.848524 263.933217 
L 163.955188 258.674087 
L 164.069986 263.933217 
L 164.184785 258.674087 
L 164.299584 263.933217 
L 164.409863 258.674087 
L 164.520142 263.933217 
L 164.640364 258.674087 
L 164.74974 263.933217 
L 164.863635 258.674087 
L 164.976625 263.933217 
L 165.087809 258.674087 
L 165.198992 263.933217 
L 165.311983 258.674087 
L 165.425877 263.933217 
L 165.53706 258.674087 
L 165.656379 263.933217 
L 165.762138 258.674087 
L 165.986312 253.414957 
L 166.092976 258.674087 
L 166.438276 248.155826 
L 167.786936 216.601043 
L 168.240707 211.341913 
L 170.949777 148.232348 
L 172.215276 153.491478 
L 172.228835 158.750609 
L 172.715147 164.009739 
L 172.755824 179.78713 
L 173.22677 185.046261 
L 173.268351 200.823652 
L 173.676022 206.082783 
L 173.717603 221.860174 
L 174.176798 227.119304 
L 174.217475 242.896696 
L 174.667631 248.155826 
L 174.707403 263.933217 
L 175.180157 269.192348 
L 175.220834 284.969739 
L 175.727033 290.22887 
L 175.746016 295.488 
L 176.597515 290.22887 
L 176.819882 284.969739 
L 177.053999 195.564522 
L 177.960638 174.528 
L 178.069109 179.78713 
L 178.190235 174.528 
L 178.305034 185.046261 
L 178.525592 263.933217 
L 178.643103 258.674087 
L 178.747959 263.933217 
L 178.872701 258.674087 
L 178.974844 263.933217 
L 179.095971 258.674087 
L 179.204442 263.933217 
L 179.319241 258.674087 
L 179.431328 263.933217 
L 179.546126 258.674087 
L 179.660925 263.933217 
L 180.344294 279.710609 
L 180.471748 274.451478 
L 180.567564 279.710609 
L 180.787219 274.451478 
L 180.790834 279.710609 
L 181.01772 284.969739 
L 181.103593 279.710609 
L 181.416352 274.451478 
L 187.054147 269.192348 
L 187.21595 263.933217 
L 187.385888 237.637565 
L 187.58656 232.378435 
L 187.735708 221.860174 
L 187.996943 227.119304 
L 188.052083 221.860174 
L 188.308798 227.119304 
L 188.368457 221.860174 
L 188.523933 227.119304 
L 188.68212 221.860174 
L 188.793303 248.155826 
L 188.85477 258.674087 
L 188.993071 253.414957 
L 189.239843 274.451478 
L 189.308542 269.192348 
L 189.520965 274.451478 
L 189.63034 269.192348 
L 189.837339 274.451478 
L 189.948522 269.192348 
L 190.151002 274.451478 
L 190.259473 269.192348 
L 190.462857 274.451478 
L 190.579464 269.192348 
L 190.777424 274.451478 
L 190.893126 269.192348 
L 191.099222 274.451478 
L 191.210405 269.192348 
L 191.417404 274.451478 
L 191.524068 269.192348 
L 191.728355 274.451478 
L 191.848578 269.192348 
L 192.048346 274.451478 
L 192.155913 269.192348 
L 192.362912 274.451478 
L 192.467768 269.192348 
L 192.993854 279.710609 
L 193.93665 295.488 
L 198.292676 290.22887 
L 198.54216 242.896696 
L 199.11073 232.378435 
L 199.735344 221.860174 
L 200.011945 274.451478 
L 200.05443 269.192348 
L 200.365381 274.451478 
L 200.372612 269.192348 
L 200.579612 274.451478 
L 200.696218 269.192348 
L 200.895986 274.451478 
L 201.007169 269.192348 
L 201.204226 274.451478 
L 201.328064 269.192348 
L 201.523312 274.451478 
L 201.641726 269.192348 
L 201.841494 274.451478 
L 201.958101 269.192348 
L 202.1651 274.451478 
L 202.278091 269.192348 
L 202.476955 274.451478 
L 202.601697 269.192348 
L 202.79785 274.451478 
L 202.908129 269.192348 
L 203.110608 274.451478 
L 203.219984 269.192348 
L 203.426983 274.451478 
L 203.538166 269.192348 
L 203.747877 274.451478 
L 203.847309 269.192348 
L 204.070579 274.451478 
L 204.154644 269.192348 
L 204.377011 274.451478 
L 204.473731 269.192348 
L 204.689769 274.451478 
L 204.784682 269.192348 
L 205.007048 274.451478 
L 205.104672 269.192348 
L 205.316191 274.451478 
L 205.42647 269.192348 
L 205.623526 274.451478 
L 205.747364 269.192348 
L 205.942613 274.451478 
L 206.056508 269.192348 
L 206.253564 274.451478 
L 206.371978 269.192348 
L 206.573554 274.451478 
L 206.688353 269.192348 
L 206.896256 274.451478 
L 207.003823 269.192348 
L 207.216246 274.451478 
L 207.31839 269.192348 
L 207.52539 274.451478 
L 207.639284 269.192348 
L 207.841764 274.451478 
L 207.957467 269.192348 
L 208.157235 274.451478 
L 208.272937 269.192348 
L 208.472705 274.451478 
L 208.593832 269.192348 
L 208.788176 274.451478 
L 208.903879 269.192348 
L 209.108166 274.451478 
L 209.217542 269.192348 
L 209.426349 274.451478 
L 209.542955 269.192348 
L 209.741819 274.451478 
L 209.853906 269.192348 
L 210.062714 274.451478 
L 210.166665 269.192348 
L 210.372761 274.451478 
L 210.487559 269.192348 
L 210.686423 274.451478 
L 210.806646 269.192348 
L 211.011837 274.451478 
L 211.124828 269.192348 
L 211.322788 274.451478 
L 211.436683 269.192348 
L 211.636451 274.451478 
L 211.761193 269.192348 
L 211.956441 274.451478 
L 212.084799 269.192348 
L 212.275528 274.451478 
L 212.40027 269.192348 
L 212.59371 274.451478 
L 212.705797 269.192348 
L 212.905565 274.451478 
L 213.023076 269.192348 
L 213.230075 274.451478 
L 213.334027 269.192348 
L 213.870056 279.710609 
L 213.965872 274.451478 
L 214.174679 279.710609 
L 214.286766 274.451478 
L 214.492862 279.710609 
L 214.601333 274.451478 
L 214.802909 279.710609 
L 214.920419 274.451478 
L 215.232274 269.192348 
L 215.434754 274.451478 
L 215.55136 269.192348 
L 215.755648 274.451478 
L 215.873159 269.192348 
L 216.071119 274.451478 
L 216.189533 269.192348 
L 216.389301 274.451478 
L 216.513139 269.192348 
L 216.701156 274.451478 
L 216.834033 269.192348 
L 217.020242 274.451478 
L 217.982021 290.22887 
L 218.291164 284.969739 
L 218.303819 290.22887 
L 219.732024 248.155826 
L 219.762758 253.414957 
L 219.911906 248.155826 
L 219.942639 253.414957 
L 220.091788 248.155826 
L 220.126137 253.414957 
L 220.272573 248.155826 
L 220.306922 253.414957 
L 220.452455 248.155826 
L 220.486804 253.414957 
L 220.638664 248.155826 
L 220.665781 253.414957 
L 220.818545 248.155826 
L 220.849279 253.414957 
L 221.000234 248.155826 
L 221.025544 253.414957 
L 221.177404 248.155826 
L 221.203618 253.414957 
L 221.357286 248.155826 
L 221.3835 253.414957 
L 221.538071 248.155826 
L 221.563381 253.414957 
L 221.718857 248.155826 
L 221.744167 253.414957 
L 221.897834 248.155826 
L 221.924048 253.414957 
L 222.077716 248.155826 
L 222.110257 253.414957 
L 222.257597 248.155826 
L 222.289235 253.414957 
L 222.438383 248.155826 
L 222.471828 253.414957 
L 222.619168 248.155826 
L 222.648094 253.414957 
L 222.800858 248.155826 
L 222.82888 253.414957 
L 222.978931 248.155826 
L 223.009665 253.414957 
L 223.160621 248.155826 
L 223.19045 253.414957 
L 223.339598 248.155826 
L 223.369428 253.414957 
L 223.520384 248.155826 
L 223.548406 253.414957 
L 223.702977 248.155826 
L 223.729191 253.414957 
L 223.881955 248.155826 
L 223.909977 253.414957 
L 224.063644 248.155826 
L 224.090762 253.414957 
L 224.246238 248.155826 
L 224.272451 253.414957 
L 224.427927 248.155826 
L 224.450525 253.414957 
L 224.606905 248.155826 
L 224.632215 253.414957 
L 224.788594 248.155826 
L 224.810288 253.414957 
L 224.972091 248.155826 
L 224.991978 253.414957 
L 225.151973 248.155826 
L 225.174571 253.414957 
L 225.337278 248.155826 
L 225.353549 253.414957 
L 225.520775 248.155826 
L 225.535238 253.414957 
L 225.699753 248.155826 
L 225.716927 253.414957 
L 225.88325 248.155826 
L 225.899521 253.414957 
L 226.062228 248.155826 
L 226.078498 253.414957 
L 226.244821 248.155826 
L 226.260188 253.414957 
L 226.421991 248.155826 
L 226.443685 253.414957 
L 226.605488 248.155826 
L 226.623567 253.414957 
L 226.788081 248.155826 
L 226.808872 253.414957 
L 226.968867 248.155826 
L 226.992369 253.414957 
L 227.147844 248.155826 
L 227.171346 253.414957 
L 227.326822 248.155826 
L 227.354844 253.414957 
L 227.508511 248.155826 
L 227.533821 253.414957 
L 227.688393 248.155826 
L 227.716415 253.414957 
L 227.865563 248.155826 
L 227.893584 253.414957 
L 228.046348 248.155826 
L 228.077082 253.414957 
L 228.228941 248.155826 
L 228.259675 253.414957 
L 228.408823 248.155826 
L 228.44046 253.414957 
L 229.880417 295.488 
L 243.065101 290.22887 
L 244.507769 248.155826 
L 244.536695 253.414957 
L 244.687651 248.155826 
L 244.71748 253.414957 
L 244.868436 248.155826 
L 244.897362 253.414957 
L 245.053741 248.155826 
L 245.077243 253.414957 
L 245.238142 248.155826 
L 245.258933 253.414957 
L 245.42164 248.155826 
L 245.439718 253.414957 
L 245.604233 248.155826 
L 245.623215 253.414957 
L 245.785922 248.155826 
L 245.803097 253.414957 
L 245.96942 248.155826 
L 245.979363 253.414957 
L 246.154725 248.155826 
L 246.159244 253.414957 
L 246.337318 248.155826 
L 246.34003 253.414957 
L 246.520815 248.155826 
L 246.525335 253.414957 
L 273.821229 248.155826 
L 273.827556 253.414957 
L 273.968569 248.155826 
L 274.146643 169.26887 
L 274.193647 174.528 
L 274.35545 169.26887 
L 274.597703 64.086261 
L 274.698942 58.82713 
L 274.744139 64.086261 
L 274.877016 58.82713 
L 274.926732 64.086261 
L 275.053282 58.82713 
L 275.110229 64.086261 
L 275.236779 58.82713 
L 275.292823 64.086261 
L 275.418469 58.82713 
L 275.548634 116.677565 
L 275.618236 142.973217 
L 275.77552 137.714087 
L 275.848738 153.491478 
L 275.913821 185.046261 
L 275.959921 179.78713 
L 276.122628 185.046261 
L 276.154265 195.564522 
L 276.502277 185.046261 
L 276.596286 195.564522 
L 276.61798 206.082783 
L 276.684871 200.823652 
L 277.041922 190.305391 
L 277.120564 211.341913 
L 277.226323 206.082783 
L 277.582471 195.564522 
L 277.651169 216.601043 
L 277.766872 211.341913 
L 278.127539 200.823652 
L 278.167312 221.860174 
L 278.48459 211.341913 
L 278.622891 216.601043 
L 278.655432 232.378435 
L 278.667183 227.119304 
L 279.026043 216.601043 
L 279.109204 227.119304 
L 279.130898 237.637565 
L 279.208636 232.378435 
L 279.568399 221.860174 
L 279.613595 242.896696 
L 279.92545 232.378435 
L 280.076406 237.637565 
L 280.122506 248.155826 
L 280.462383 237.637565 
L 280.56995 248.155826 
L 280.585317 253.414957 
L 280.64588 248.155826 
L 280.825762 242.896696 
L 280.847456 248.155826 
L 281.006547 242.896696 
L 281.039993 253.414957 
L 281.184621 248.155826 
L 281.216259 253.414957 
L 281.365407 248.155826 
L 281.509131 253.414957 
L 281.542576 248.155826 
L 281.576022 253.414957 
L 281.72065 248.155826 
L 281.756807 253.414957 
L 281.902339 248.155826 
L 281.933977 253.414957 
L 282.084029 248.155826 
L 282.117474 253.414957 
L 282.26843 248.155826 
L 282.297356 253.414957 
L 282.446504 248.155826 
L 282.478141 253.414957 
L 282.623673 248.155826 
L 282.656215 253.414957 
L 282.806267 248.155826 
L 282.837 253.414957 
L 282.987052 248.155826 
L 283.01417 253.414957 
L 283.162414 248.155826 
L 283.192244 253.414957 
L 283.348623 248.155826 
L 283.373933 253.414957 
L 283.528505 248.155826 
L 283.555623 253.414957 
L 283.710194 248.155826 
L 283.740024 253.414957 
L 283.890076 248.155826 
L 283.917193 253.414957 
L 284.073573 248.155826 
L 284.095267 253.414957 
L 284.255262 248.155826 
L 284.27786 253.414957 
L 284.436952 248.155826 
L 284.458646 253.414957 
L 284.615929 248.155826 
L 284.634008 253.414957 
L 284.795811 248.155826 
L 284.820217 253.414957 
L 284.972981 248.155826 
L 285.000098 253.414957 
L 285.15467 248.155826 
L 285.181788 253.414957 
L 285.333648 248.155826 
L 285.361669 253.414957 
L 285.514433 248.155826 
L 285.545167 253.414957 
L 285.695219 248.155826 
L 285.726856 253.414957 
L 285.874196 248.155826 
L 285.907641 253.414957 
L 286.05227 248.155826 
L 286.087523 253.414957 
L 286.22944 248.155826 
L 286.267405 253.414957 
L 286.412033 248.155826 
L 286.444574 253.414957 
L 286.592818 248.155826 
L 286.626264 253.414957 
L 286.770892 248.155826 
L 286.805241 253.414957 
L 286.950774 248.155826 
L 286.986027 253.414957 
L 287.134271 248.155826 
L 287.166812 253.414957 
L 287.313248 248.155826 
L 287.344886 253.414957 
L 287.49765 248.155826 
L 287.523864 253.414957 
L 287.675723 248.155826 
L 287.701033 253.414957 
L 287.855605 248.155826 
L 287.883627 253.414957 
L 288.031871 248.155826 
L 288.064412 253.414957 
L 288.212656 248.155826 
L 288.242486 253.414957 
L 288.394346 248.155826 
L 288.422367 253.414957 
L 288.572419 248.155826 
L 288.605865 253.414957 
L 288.750493 248.155826 
L 288.784842 253.414957 
L 288.932182 248.155826 
L 288.969243 253.414957 
L 289.114776 248.155826 
L 289.147317 253.414957 
L 289.295561 248.155826 
L 289.327199 253.414957 
L 289.474539 248.155826 
L 289.503464 253.414957 
L 289.656228 248.155826 
L 289.68425 253.414957 
L 289.838821 248.155826 
L 289.865939 253.414957 
L 290.020511 248.155826 
L 290.044013 253.414957 
L 290.204912 248.155826 
L 290.222087 253.414957 
L 290.391121 248.155826 
L 290.403776 253.414957 
L 290.569195 248.155826 
L 290.585465 253.414957 
L 290.753596 248.155826 
L 290.767155 253.414957 
L 290.93167 248.155826 
L 290.946132 253.414957 
L 291.114263 248.155826 
L 291.127822 253.414957 
L 291.293241 248.155826 
L 291.310415 253.414957 
L 291.474026 248.155826 
L 291.492105 253.414957 
L 291.658427 248.155826 
L 291.676506 253.414957 
L 291.837405 248.155826 
L 291.862715 253.414957 
L 292.017286 248.155826 
L 292.040789 253.414957 
L 292.198976 248.155826 
L 292.22519 253.414957 
L 292.379761 248.155826 
L 292.403263 253.414957 
L 292.559643 248.155826 
L 292.585857 253.414957 
L 292.744948 248.155826 
L 292.76393 253.414957 
L 292.927541 248.155826 
L 292.94562 253.414957 
L 293.102903 248.155826 
L 293.130021 253.414957 
L 293.281881 248.155826 
L 293.308999 253.414957 
L 293.459954 248.155826 
L 293.48888 253.414957 
L 293.641644 248.155826 
L 293.67057 253.414957 
L 293.824237 248.155826 
L 293.850451 253.414957 
L 294.008638 248.155826 
L 294.031237 253.414957 
L 294.187616 248.155826 
L 294.216542 253.414957 
L 294.373825 248.155826 
L 294.399135 253.414957 
L 294.555514 248.155826 
L 294.574497 253.414957 
L 294.733588 248.155826 
L 294.753474 253.414957 
L 294.91347 248.155826 
L 294.931548 253.414957 
L 295.096063 248.155826 
L 295.113238 253.414957 
L 295.274137 248.155826 
L 295.295831 253.414957 
L 295.454922 248.155826 
L 295.480232 253.414957 
L 295.630284 248.155826 
L 295.65921 253.414957 
L 297.101878 295.488 
L 311.785274 290.22887 
L 311.928998 284.969739 
L 312.117015 200.823652 
L 312.314071 195.564522 
L 312.562651 74.604522 
L 312.614175 69.345391 
L 313.151108 53.568 
L 313.256867 58.82713 
L 313.335509 53.568 
L 313.422286 69.345391 
L 313.587705 137.714087 
L 313.699792 132.454957 
L 313.792896 142.973217 
L 313.857075 174.528 
L 313.878769 169.26887 
L 313.980009 179.78713 
L 314.001703 190.305391 
L 314.056843 185.046261 
L 314.419318 174.528 
L 314.477169 195.564522 
L 314.599199 190.305391 
L 314.958059 179.78713 
L 314.981561 195.564522 
L 315.312398 185.046261 
L 315.495895 190.305391 
L 315.528437 206.082783 
L 315.855658 195.564522 
L 315.973169 206.082783 
L 315.984016 211.341913 
L 316.04006 206.082783 
L 316.392591 195.564522 
L 316.471233 206.082783 
L 316.492927 216.601043 
L 316.575185 211.341913 
L 316.758682 206.082783 
L 316.972009 211.341913 
L 317.00455 227.119304 
L 317.292903 216.601043 
L 317.433012 221.860174 
L 317.464649 237.637565 
L 317.889495 242.896696 
L 317.922036 258.674087 
L 318.374904 263.933217 
L 318.407445 279.710609 
L 318.849466 284.969739 
L 318.87568 295.488 
L 323.026514 290.22887 
L 323.292269 200.823652 
L 324.22241 185.046261 
L 324.498108 190.305391 
L 324.762054 274.451478 
L 324.852447 269.192348 
L 325.163398 263.933217 
L 325.185996 269.192348 
L 325.476157 263.933217 
L 325.657846 269.192348 
L 325.692196 274.451478 
L 325.786204 269.192348 
L 326.097155 263.933217 
L 326.138736 269.192348 
L 326.321329 274.451478 
L 326.409914 269.192348 
L 326.65759 274.451478 
L 326.718153 269.192348 
L 326.945943 274.451478 
L 327.027296 269.192348 
L 327.255086 274.451478 
L 327.340959 269.192348 
L 327.566037 274.451478 
L 327.659142 269.192348 
L 327.878796 274.451478 
L 327.975516 269.192348 
L 328.187939 274.451478 
L 328.286467 269.192348 
L 328.496178 274.451478 
L 328.603746 269.192348 
L 328.810745 274.451478 
L 328.922832 269.192348 
L 329.128024 274.451478 
L 329.235591 269.192348 
L 329.755349 279.710609 
L 329.873764 274.451478 
L 330.072628 279.710609 
L 330.193754 274.451478 
L 330.392618 279.710609 
L 330.510128 274.451478 
L 330.705377 279.710609 
L 330.820176 274.451478 
L 331.138358 269.192348 
L 331.342646 274.451478 
L 331.447501 269.192348 
L 331.662636 274.451478 
L 331.762972 269.192348 
L 331.979914 274.451478 
L 332.075731 269.192348 
L 332.289057 274.451478 
L 332.392105 269.192348 
L 332.60724 274.451478 
L 332.713903 269.192348 
L 332.916383 274.451478 
L 333.027566 269.192348 
L 333.232758 274.451478 
L 333.341229 269.192348 
L 333.544613 274.451478 
L 333.658507 269.192348 
L 333.861891 274.451478 
L 333.97669 269.192348 
L 334.182785 274.451478 
L 334.285833 269.192348 
L 334.496448 274.451478 
L 334.6004 269.192348 
L 334.810111 274.451478 
L 334.919486 269.192348 
L 335.127389 274.451478 
L 335.236765 269.192348 
L 335.446476 274.451478 
L 335.558563 269.192348 
L 335.754715 274.451478 
L 335.873129 269.192348 
L 336.070186 274.451478 
L 336.1886 269.192348 
L 336.388368 274.451478 
L 336.505879 269.192348 
L 336.705647 274.451478 
L 336.827677 269.192348 
L 337.027445 274.451478 
L 337.148571 269.192348 
L 337.342011 274.451478 
L 337.459522 269.192348 
L 337.657482 274.451478 
L 337.774089 269.192348 
L 337.974761 274.451478 
L 338.08504 269.192348 
L 338.296559 274.451478 
L 338.406838 269.192348 
L 338.617453 274.451478 
L 338.721404 269.192348 
L 338.928404 274.451478 
L 339.036875 269.192348 
L 339.242971 274.451478 
L 339.35325 269.192348 
L 339.553922 274.451478 
L 339.666912 269.192348 
L 339.87572 274.451478 
L 339.97696 269.192348 
L 340.190286 274.451478 
L 340.298758 269.192348 
L 340.505757 274.451478 
L 340.608805 269.192348 
L 340.822132 274.451478 
L 340.92066 269.192348 
L 341.135794 274.451478 
L 341.238842 269.192348 
L 341.446745 274.451478 
L 341.549793 269.192348 
L 341.76764 274.451478 
L 341.866168 269.192348 
L 342.077687 274.451478 
L 342.18435 269.192348 
L 342.389542 274.451478 
L 342.502533 269.192348 
L 342.707724 274.451478 
L 342.81258 269.192348 
L 343.018675 274.451478 
L 343.122627 269.192348 
L 343.33505 274.451478 
L 343.442617 269.192348 
L 343.653232 274.451478 
L 343.763511 269.192348 
L 343.971415 274.451478 
L 344.086213 269.192348 
L 344.281462 274.451478 
L 344.402588 269.192348 
L 344.591509 274.451478 
L 344.72077 269.192348 
L 344.911499 274.451478 
L 345.033529 269.192348 
L 345.233297 274.451478 
L 345.352615 269.192348 
L 345.555095 274.451478 
L 345.66899 269.192348 
L 345.872374 274.451478 
L 345.98898 269.192348 
L 346.189652 274.451478 
L 346.305355 269.192348 
L 346.502411 274.451478 
L 346.628057 269.192348 
L 346.821497 274.451478 
L 346.947143 269.192348 
L 347.137872 274.451478 
L 347.267134 269.192348 
L 347.458766 274.451478 
L 347.584412 269.192348 
L 347.774237 274.451478 
L 347.903498 269.192348 
L 348.097843 274.451478 
L 348.223489 269.192348 
L 348.416929 274.451478 
L 348.539863 269.192348 
L 348.736016 274.451478 
L 348.85443 269.192348 
L 349.054198 274.451478 
L 349.167189 269.192348 
L 349.373284 274.451478 
L 349.48266 269.192348 
L 349.692371 274.451478 
L 371.455325 269.192348 
L 371.612609 263.933217 
L 371.782547 237.637565 
L 371.987739 232.378435 
L 372.378235 169.26887 
L 372.600601 164.009739 
L 372.645798 169.26887 
L 372.825679 164.009739 
L 372.924207 169.26887 
L 373.057085 164.009739 
L 373.251429 200.823652 
L 373.281259 195.564522 
L 373.457525 200.823652 
L 373.51176 211.341913 
L 373.513568 206.082783 
L 373.657292 216.601043 
L 373.669947 221.860174 
L 373.742262 216.601043 
L 373.961916 211.341913 
L 374.048693 232.378435 
L 374.189706 227.119304 
L 374.344277 232.378435 
L 374.384954 248.155826 
L 374.415688 242.896696 
L 374.643477 237.637565 
L 374.737486 253.414957 
L 374.751045 258.674087 
L 374.865843 253.414957 
L 375.052956 258.674087 
L 375.071939 263.933217 
L 375.092729 258.674087 
L 375.213855 263.933217 
L 375.316903 258.674087 
L 375.43351 263.933217 
L 375.541981 258.674087 
L 375.660395 263.933217 
L 375.768867 258.674087 
L 375.886377 263.933217 
L 375.996656 258.674087 
L 376.115071 263.933217 
L 376.218119 258.674087 
L 376.336533 263.933217 
L 376.445004 258.674087 
L 376.564323 263.933217 
L 376.669178 258.674087 
L 376.788497 263.933217 
L 376.892448 258.674087 
L 377.012671 263.933217 
L 377.115718 258.674087 
L 377.239557 263.933217 
L 377.343508 258.674087 
L 377.467346 263.933217 
L 377.567682 258.674087 
L 377.689712 263.933217 
L 377.796376 258.674087 
L 377.916598 263.933217 
L 378.021454 258.674087 
L 378.140772 263.933217 
L 378.246532 258.674087 
L 378.364042 263.933217 
L 378.472513 258.674087 
L 378.587312 263.933217 
L 378.700303 258.674087 
L 378.815102 263.933217 
L 378.929901 258.674087 
L 379.038372 263.933217 
L 379.158594 258.674087 
L 379.26797 263.933217 
L 379.38548 258.674087 
L 379.493047 263.933217 
L 379.616885 258.674087 
L 379.717221 263.933217 
L 379.845579 258.674087 
L 379.944107 263.933217 
L 380.070657 258.674087 
L 380.171897 263.933217 
L 380.293927 258.674087 
L 380.40059 263.933217 
L 380.521717 258.674087 
L 380.630188 263.933217 
L 380.75041 258.674087 
L 380.85617 263.933217 
L 380.976392 258.674087 
L 381.087575 263.933217 
L 381.207798 258.674087 
L 381.316269 263.933217 
L 381.431068 258.674087 
L 381.541347 263.933217 
L 381.654338 258.674087 
L 381.764617 263.933217 
L 381.879416 258.674087 
L 381.992407 263.933217 
L 382.099974 258.674087 
L 382.447082 269.192348 
L 382.560073 263.933217 
L 382.679391 269.192348 
L 382.788767 263.933217 
L 382.901757 269.192348 
L 383.016556 263.933217 
L 383.125931 269.192348 
L 383.238018 263.933217 
L 383.351009 269.192348 
L 383.465808 263.933217 
L 383.571568 269.192348 
L 383.911444 258.674087 
L 384.030763 263.933217 
L 384.132003 258.674087 
L 384.26036 263.933217 
L 384.355273 258.674087 
L 384.487246 263.933217 
L 384.577639 258.674087 
L 384.708708 263.933217 
L 384.803621 258.674087 
L 384.937402 263.933217 
L 385.033218 258.674087 
L 385.163384 263.933217 
L 385.262816 258.674087 
L 385.383038 263.933217 
L 385.490605 258.674087 
L 385.602692 263.933217 
L 385.719299 258.674087 
L 385.826866 263.933217 
L 385.939857 258.674087 
L 386.048329 263.933217 
L 386.159512 258.674087 
L 386.275214 263.933217 
L 386.381878 258.674087 
L 386.503908 263.933217 
L 386.611475 258.674087 
L 386.734409 263.933217 
L 386.833841 258.674087 
L 386.961295 263.933217 
L 387.062535 258.674087 
L 387.189989 263.933217 
L 387.283093 258.674087 
L 387.410547 263.933217 
L 387.509979 258.674087 
L 387.631105 263.933217 
L 387.733249 258.674087 
L 387.853471 263.933217 
L 387.961943 258.674087 
L 388.082165 263.933217 
L 388.19154 258.674087 
L 388.304531 263.933217 
L 388.418426 258.674087 
L 388.533225 263.933217 
L 388.646216 258.674087 
L 388.754687 263.933217 
L 388.868582 258.674087 
L 388.981573 263.933217 
L 389.095468 258.674087 
L 389.203939 263.933217 
L 389.317834 258.674087 
L 389.433536 263.933217 
L 389.547431 258.674087 
L 389.663134 263.933217 
L 389.777029 258.674087 
L 389.889116 263.933217 
L 390.003011 258.674087 
L 390.117809 263.933217 
L 390.228992 258.674087 
L 390.340176 263.933217 
L 390.455878 258.674087 
L 390.567061 263.933217 
L 390.680052 258.674087 
L 390.789427 263.933217 
L 390.906938 258.674087 
L 391.019025 263.933217 
L 391.132016 258.674087 
L 391.247719 263.933217 
L 391.35167 258.674087 
L 391.4737 263.933217 
L 391.576748 258.674087 
L 391.699682 263.933217 
L 391.801826 258.674087 
L 391.927472 263.933217 
L 392.026904 258.674087 
L 392.151646 263.933217 
L 392.255598 258.674087 
L 392.377628 263.933217 
L 392.485195 258.674087 
L 392.602706 263.933217 
L 392.705753 258.674087 
L 392.823264 263.933217 
L 392.929927 258.674087 
L 393.048342 263.933217 
L 393.154101 258.674087 
L 393.27342 263.933217 
L 393.383699 258.674087 
L 393.498498 263.933217 
L 393.606065 258.674087 
L 393.727191 263.933217 
L 393.833855 258.674087 
L 393.956789 263.933217 
L 394.063452 258.674087 
L 394.177347 263.933217 
L 394.284011 258.674087 
L 394.401521 263.933217 
L 394.510896 258.674087 
L 394.625695 263.933217 
L 394.740494 258.674087 
L 394.855293 263.933217 
L 394.968284 258.674087 
L 395.077659 263.933217 
L 395.198785 258.674087 
L 395.305448 263.933217 
L 395.427479 258.674087 
L 395.535046 263.933217 
L 395.655268 258.674087 
L 395.755604 263.933217 
L 395.88577 258.674087 
L 395.98249 263.933217 
L 396.111752 258.674087 
L 396.211184 263.933217 
L 396.338637 258.674087 
L 396.438973 263.933217 
L 396.568235 258.674087 
L 396.670379 263.933217 
L 396.790601 258.674087 
L 396.898168 263.933217 
L 397.016583 258.674087 
L 397.126862 263.933217 
L 397.242565 258.674087 
L 397.357364 263.933217 
L 397.470354 258.674087 
L 397.583345 263.933217 
L 397.694528 258.674087 
L 397.809327 263.933217 
L 397.921414 258.674087 
L 398.038925 263.933217 
L 398.147396 258.674087 
L 398.261291 263.933217 
L 398.375186 258.674087 
L 398.487273 263.933217 
L 398.487273 263.933217 
" clip-path="url(#p8a501c3e4e)" style="fill: none; stroke: #1f77b4; stroke-width: 1.5; stroke-linecap: square"/>
   </g>
   <g id="patch_3">
    <path d="M 57.6 307.584 
L 57.6 41.472 
" style="fill: none; stroke: #000000; stroke-width: 0.8; stroke-linejoin: miter; stroke-linecap: square"/>
   </g>
   <g id="patch_4">
    <path d="M 414.72 307.584 
L 414.72 41.472 
" style="fill: none; stroke: #000000; stroke-width: 0.8; stroke-linejoin: miter; stroke-linecap: square"/>
   </g>
   <g id="patch_5">
    <path d="M 57.6 307.584 
L 414.72 307.584 
" style="fill: none; stroke: #000000; stroke-width: 0.8; stroke-linejoin: miter; stroke-linecap: square"/>
   </g>
   <g id="patch_6">
    <path d="M 57.6 41.472 
L 414.72 41.472 
" style="fill: none; stroke: #000000; stroke-width: 0.8; stroke-linejoin: miter; stroke-linecap: square"/>
   </g>
   <g id="text_15">
    <!-- Queue size (y-axis) between S4 and sensors that follow at a time (x-axis). -->
    <g transform="translate(14.282813 35.472) scale(0.12 -0.12)">
     <defs>
      <path id="DejaVuSans-51" d="M 2522 4238 
Q 1834 4238 1429 3725 
Q 1025 3213 1025 2328 
Q 1025 1447 1429 934 
Q 1834 422 2522 422 
Q 3209 422 3611 934 
Q 4013 1447 4013 2328 
Q 4013 3213 3611 3725 
Q 3209 4238 2522 4238 
z
M 3406 84 
L 4238 -825 
L 3475 -825 
L 2784 -78 
Q 2681 -84 2626 -87 
Q 2572 -91 2522 -91 
Q 1538 -91 948 567 
Q 359 1225 359 2328 
Q 359 3434 948 4092 
Q 1538 4750 2522 4750 
Q 3503 4750 4090 4092 
Q 4678 3434 4678 2328 
Q 4678 1516 4351 937 
Q 4025 359 3406 84 
z
" transform="scale(0.015625)"/>
      <path id="DejaVuSans-75" d="M 544 1381 
L 544 3500 
L 1119 3500 
L 1119 1403 
Q 1119 906 1312 657 
Q 1506 409 1894 409 
Q 2359 409 2629 706 
Q 2900 1003 2900 1516 
L 2900 3500 
L 3475 3500 
L 3475 0 
L 2900 0 
L 2900 538 
Q 2691 219 2414 64 
Q 2138 -91 1772 -91 
Q 1169 -91 856 284 
Q 544 659 544 1381 
z
M 1991 3584 
L 1991 3584 
z
" transform="scale(0.015625)"/>
      <path id="DejaVuSans-20" transform="scale(0.015625)"/>
      <path id="DejaVuSans-73" d="M 2834 3397 
L 2834 2853 
Q 2591 2978 2328 3040 
Q 2066 3103 1784 3103 
Q 1356 3103 1142 2972 
Q 928 2841 928 2578 
Q 928 2378 1081 2264 
Q 1234 2150 1697 2047 
L 1894 2003 
Q 2506 1872 2764 1633 
Q 3022 1394 3022 966 
Q 3022 478 2636 193 
Q 2250 -91 1575 -91 
Q 1294 -91 989 -36 
Q 684 19 347 128 
L 347 722 
Q 666 556 975 473 
Q 1284 391 1588 391 
Q 1994 391 2212 530 
Q 2431 669 2431 922 
Q 2431 1156 2273 1281 
Q 2116 1406 1581 1522 
L 1381 1569 
Q 847 1681 609 1914 
Q 372 2147 372 2553 
Q 372 3047 722 3315 
Q 1072 3584 1716 3584 
Q 2034 3584 2315 3537 
Q 2597 3491 2834 3397 
z
" transform="scale(0.015625)"/>
      <path id="DejaVuSans-69" d="M 603 3500 
L 1178 3500 
L 1178 0 
L 603 0 
L 603 3500 
z
M 603 4863 
L 1178 4863 
L 1178 4134 
L 603 4134 
L 603 4863 
z
" transform="scale(0.015625)"/>
      <path id="DejaVuSans-7a" d="M 353 3500 
L 3084 3500 
L 3084 2975 
L 922 459 
L 3084 459 
L 3084 0 
L 275 0 
L 275 525 
L 2438 3041 
L 353 3041 
L 353 3500 
z
" transform="scale(0.015625)"/>
      <path id="DejaVuSans-28" d="M 1984 4856 
Q 1566 4138 1362 3434 
Q 1159 2731 1159 2009 
Q 1159 1288 1364 580 
Q 1569 -128 1984 -844 
L 1484 -844 
Q 1016 -109 783 600 
Q 550 1309 550 2009 
Q 550 2706 781 3412 
Q 1013 4119 1484 4856 
L 1984 4856 
z
" transform="scale(0.015625)"/>
      <path id="DejaVuSans-79" d="M 2059 -325 
Q 1816 -950 1584 -1140 
Q 1353 -1331 966 -1331 
L 506 -1331 
L 506 -850 
L 844 -850 
Q 1081 -850 1212 -737 
Q 1344 -625 1503 -206 
L 1606 56 
L 191 3500 
L 800 3500 
L 1894 763 
L 2988 3500 
L 3597 3500 
L 2059 -325 
z
" transform="scale(0.015625)"/>
      <path id="DejaVuSans-2d" d="M 313 2009 
L 1997 2009 
L 1997 1497 
L 313 1497 
L 313 2009 
z
" transform="scale(0.015625)"/>
      <path id="DejaVuSans-61" d="M 2194 1759 
Q 1497 1759 1228 1600 
Q 959 1441 959 1056 
Q 959 750 1161 570 
Q 1363 391 1709 391 
Q 2188 391 2477 730 
Q 2766 1069 2766 1631 
L 2766 1759 
L 2194 1759 
z
M 3341 1997 
L 3341 0 
L 2766 0 
L 2766 531 
Q 2569 213 2275 61 
Q 1981 -91 1556 -91 
Q 1019 -91 701 211 
Q 384 513 384 1019 
Q 384 1609 779 1909 
Q 1175 2209 1959 2209 
L 2766 2209 
L 2766 2266 
Q 2766 2663 2505 2880 
Q 2244 3097 1772 3097 
Q 1472 3097 1187 3025 
Q 903 2953 641 2809 
L 641 3341 
Q 956 3463 1253 3523 
Q 1550 3584 1831 3584 
Q 2591 3584 2966 3190 
Q 3341 2797 3341 1997 
z
" transform="scale(0.015625)"/>
      <path id="DejaVuSans-78" d="M 3513 3500 
L 2247 1797 
L 3578 0 
L 2900 0 
L 1881 1375 
L 863 0 
L 184 0 
L 1544 1831 
L 300 3500 
L 978 3500 
L 1906 2253 
L 2834 3500 
L 3513 3500 
z
" transform="scale(0.015625)"/>
      <path id="DejaVuSans-29" d="M 513 4856 
L 1013 4856 
Q 1481 4119 1714 3412 
Q 1947 2706 1947 2009 
Q 1947 1309 1714 600 
Q 1481 -109 1013 -844 
L 513 -844 
Q 928 -128 1133 580 
Q 1338 1288 1338 2009 
Q 1338 2731 1133 3434 
Q 928 4138 513 4856 
z
" transform="scale(0.015625)"/>
      <path id="DejaVuSans-62" d="M 3116 1747 
Q 3116 2381 2855 2742 
Q 2594 3103 2138 3103 
Q 1681 3103 1420 2742 
Q 1159 2381 1159 1747 
Q 1159 1113 1420 752 
Q 1681 391 2138 391 
Q 2594 391 2855 752 
Q 3116 1113 3116 1747 
z
M 1159 2969 
Q 1341 3281 1617 3432 
Q 1894 3584 2278 3584 
Q 2916 3584 3314 3078 
Q 3713 2572 3713 1747 
Q 3713 922 3314 415 
Q 2916 -91 2278 -91 
Q 1894 -91 1617 61 
Q 1341 213 1159 525 
L 1159 0 
L 581 0 
L 581 4863 
L 1159 4863 
L 1159 2969 
z
" transform="scale(0.015625)"/>
      <path id="DejaVuSans-74" d="M 1172 4494 
L 1172 3500 
L 2356 3500 
L 2356 3053 
L 1172 3053 
L 1172 1153 
Q 1172 725 1289 603 
Q 1406 481 1766 481 
L 2356 481 
L 2356 0 
L 1766 0 
Q 1100 0 847 248 
Q 594 497 594 1153 
L 594 3053 
L 172 3053 
L 172 3500 
L 594 3500 
L 594 4494 
L 1172 4494 
z
" transform="scale(0.015625)"/>
      <path id="DejaVuSans-77" d="M 269 3500 
L 844 3500 
L 1563 769 
L 2278 3500 
L 2956 3500 
L 3675 769 
L 4391 3500 
L 4966 3500 
L 4050 0 
L 3372 0 
L 2619 2869 
L 1863 0 
L 1184 0 
L 269 3500 
z
" transform="scale(0.015625)"/>
      <path id="DejaVuSans-6e" d="M 3513 2113 
L 3513 0 
L 2938 0 
L 2938 2094 
Q 2938 2591 2744 2837 
Q 2550 3084 2163 3084 
Q 1697 3084 1428 2787 
Q 1159 2491 1159 1978 
L 1159 0 
L 581 0 
L 581 3500 
L 1159 3500 
L 1159 2956 
Q 1366 3272 1645 3428 
Q 1925 3584 2291 3584 
Q 2894 3584 3203 3211 
Q 3513 2838 3513 2113 
z
" transform="scale(0.015625)"/>
      <path id="DejaVuSans-53" d="M 3425 4513 
L 3425 3897 
Q 3066 4069 2747 4153 
Q 2428 4238 2131 4238 
Q 1616 4238 1336 4038 
Q 1056 3838 1056 3469 
Q 1056 3159 1242 3001 
Q 1428 2844 1947 2747 
L 2328 2669 
Q 3034 2534 3370 2195 
Q 3706 1856 3706 1288 
Q 3706 609 3251 259 
Q 2797 -91 1919 -91 
Q 1588 -91 1214 -16 
Q 841 59 441 206 
L 441 856 
Q 825 641 1194 531 
Q 1563 422 1919 422 
Q 2459 422 2753 634 
Q 3047 847 3047 1241 
Q 3047 1584 2836 1778 
Q 2625 1972 2144 2069 
L 1759 2144 
Q 1053 2284 737 2584 
Q 422 2884 422 3419 
Q 422 4038 858 4394 
Q 1294 4750 2059 4750 
Q 2388 4750 2728 4690 
Q 3069 4631 3425 4513 
z
" transform="scale(0.015625)"/>
      <path id="DejaVuSans-64" d="M 2906 2969 
L 2906 4863 
L 3481 4863 
L 3481 0 
L 2906 0 
L 2906 525 
Q 2725 213 2448 61 
Q 2172 -91 1784 -91 
Q 1150 -91 751 415 
Q 353 922 353 1747 
Q 353 2572 751 3078 
Q 1150 3584 1784 3584 
Q 2172 3584 2448 3432 
Q 2725 3281 2906 2969 
z
M 947 1747 
Q 947 1113 1208 752 
Q 1469 391 1925 391 
Q 2381 391 2643 752 
Q 2906 1113 2906 1747 
Q 2906 2381 2643 2742 
Q 2381 3103 1925 3103 
Q 1469 3103 1208 2742 
Q 947 2381 947 1747 
z
" transform="scale(0.015625)"/>
      <path id="DejaVuSans-6f" d="M 1959 3097 
Q 1497 3097 1228 2736 
Q 959 2375 959 1747 
Q 959 1119 1226 758 
Q 1494 397 1959 397 
Q 2419 397 2687 759 
Q 2956 1122 2956 1747 
Q 2956 2369 2687 2733 
Q 2419 3097 1959 3097 
z
M 1959 3584 
Q 2709 3584 3137 3096 
Q 3566 2609 3566 1747 
Q 3566 888 3137 398 
Q 2709 -91 1959 -91 
Q 1206 -91 779 398 
Q 353 888 353 1747 
Q 353 2609 779 3096 
Q 1206 3584 1959 3584 
z
" transform="scale(0.015625)"/>
      <path id="DejaVuSans-72" d="M 2631 2963 
Q 2534 3019 2420 3045 
Q 2306 3072 2169 3072 
Q 1681 3072 1420 2755 
Q 1159 2438 1159 1844 
L 1159 0 
L 581 0 
L 581 3500 
L 1159 3500 
L 1159 2956 
Q 1341 3275 1631 3429 
Q 1922 3584 2338 3584 
Q 2397 3584 2469 3576 
Q 2541 3569 2628 3553 
L 2631 2963 
z
" transform="scale(0.015625)"/>
      <path id="DejaVuSans-68" d="M 3513 2113 
L 3513 0 
L 2938 0 
L 2938 2094 
Q 2938 2591 2744 2837 
Q 2550 3084 2163 3084 
Q 1697 3084 1428 2787 
Q 1159 2491 1159 1978 
L 1159 0 
L 581 0 
L 581 4863 
L 1159 4863 
L 1159 2956 
Q 1366 3272 1645 3428 
Q 1925 3584 2291 3584 
Q 2894 3584 3203 3211 
Q 3513 2838 3513 2113 
z
" transform="scale(0.015625)"/>
      <path id="DejaVuSans-66" d="M 2375 4863 
L 2375 4384 
L 1825 4384 
Q 1516 4384 1395 4259 
Q 1275 4134 1275 3809 
L 1275 3500 
L 2222 3500 
L 2222 3053 
L 1275 3053 
L 1275 0 
L 697 0 
L 697 3053 
L 147 3053 
L 147 3500 
L 697 3500 
L 697 3744 
Q 697 4328 969 4595 
Q 1241 4863 1831 4863 
L 2375 4863 
z
" transform="scale(0.015625)"/>
      <path id="DejaVuSans-6c" d="M 603 4863 
L 1178 4863 
L 1178 0 
L 603 0 
L 603 4863 
z
" transform="scale(0.015625)"/>
      <path id="DejaVuSans-6d" d="M 3328 2828 
Q 3544 3216 3844 3400 
Q 4144 3584 4550 3584 
Q 5097 3584 5394 3201 
Q 5691 2819 5691 2113 
L 5691 0 
L 5113 0 
L 5113 2094 
Q 5113 2597 4934 2840 
Q 4756 3084 4391 3084 
Q 3944 3084 3684 2787 
Q 3425 2491 3425 1978 
L 3425 0 
L 2847 0 
L 2847 2094 
Q 2847 2600 2669 2842 
Q 2491 3084 2119 3084 
Q 1678 3084 1418 2786 
Q 1159 2488 1159 1978 
L 1159 0 
L 581 0 
L 581 3500 
L 1159 3500 
L 1159 2956 
Q 1356 3278 1631 3431 
Q 1906 3584 2284 3584 
Q 2666 3584 2933 3390 
Q 3200 3197 3328 2828 
z
" transform="scale(0.015625)"/>
     </defs>
     <use xlink:href="#DejaVuSans-51"/>
     <use xlink:href="#DejaVuSans-75" x="78.710938"/>
     <use xlink:href="#DejaVuSans-65" x="142.089844"/>
     <use xlink:href="#DejaVuSans-75" x="203.613281"/>
     <use xlink:href="#DejaVuSans-65" x="266.992188"/>
     <use xlink:href="#DejaVuSans-20" x="328.515625"/>
     <use xlink:href="#DejaVuSans-73" x="360.302734"/>
     <use xlink:href="#DejaVuSans-69" x="412.402344"/>
     <use xlink:href="#DejaVuSans-7a" x="440.185547"/>
     <use xlink:href="#DejaVuSans-65" x="492.675781"/>
     <use xlink:href="#DejaVuSans-20" x="554.199219"/>
     <use xlink:href="#DejaVuSans-28" x="585.986328"/>
     <use xlink:href="#DejaVuSans-79" x="625"/>
     <use xlink:href="#DejaVuSans-2d" x="682.429688"/>
     <use xlink:href="#DejaVuSans-61" x="718.513672"/>
     <use xlink:href="#DejaVuSans-78" x="779.792969"/>
     <use xlink:href="#DejaVuSans-69" x="838.972656"/>
     <use xlink:href="#DejaVuSans-73" x="866.755859"/>
     <use xlink:href="#DejaVuSans-29" x="918.855469"/>
     <use xlink:href="#DejaVuSans-20" x="957.869141"/>
     <use xlink:href="#DejaVuSans-62" x="989.65625"/>
     <use xlink:href="#DejaVuSans-65" x="1053.132812"/>
     <use xlink:href="#DejaVuSans-74" x="1114.65625"/>
     <use xlink:href="#DejaVuSans-77" x="1153.865234"/>
     <use xlink:href="#DejaVuSans-65" x="1235.652344"/>
     <use xlink:href="#DejaVuSans-65" x="1297.175781"/>
     <use xlink:href="#DejaVuSans-6e" x="1358.699219"/>
     <use xlink:href="#DejaVuSans-20" x="1422.078125"/>
     <use xlink:href="#DejaVuSans-53" x="1453.865234"/>
     <use xlink:href="#DejaVuSans-34" x="1517.341797"/>
     <use xlink:href="#DejaVuSans-20" x="1580.964844"/>
     <use xlink:href="#DejaVuSans-61" x="1612.751953"/>
     <use xlink:href="#DejaVuSans-6e" x="1674.03125"/>
     <use xlink:href="#DejaVuSans-64" x="1737.410156"/>
     <use xlink:href="#DejaVuSans-20" x="1800.886719"/>
     <use xlink:href="#DejaVuSans-73" x="1832.673828"/>
     <use xlink:href="#DejaVuSans-65" x="1884.773438"/>
     <use xlink:href="#DejaVuSans-6e" x="1946.296875"/>
     <use xlink:href="#DejaVuSans-73" x="2009.675781"/>
     <use xlink:href="#DejaVuSans-6f" x="2061.775391"/>
     <use xlink:href="#DejaVuSans-72" x="2122.957031"/>
     <use xlink:href="#DejaVuSans-73" x="2164.070312"/>
     <use xlink:href="#DejaVuSans-20" x="2216.169922"/>
     <use xlink:href="#DejaVuSans-74" x="2247.957031"/>
     <use xlink:href="#DejaVuSans-68" x="2287.166016"/>
     <use xlink:href="#DejaVuSans-61" x="2350.544922"/>
     <use xlink:href="#DejaVuSans-74" x="2411.824219"/>
     <use xlink:href="#DejaVuSans-20" x="2451.033203"/>
     <use xlink:href="#DejaVuSans-66" x="2482.820312"/>
     <use xlink:href="#DejaVuSans-6f" x="2518.025391"/>
     <use xlink:href="#DejaVuSans-6c" x="2579.207031"/>
     <use xlink:href="#DejaVuSans-6c" x="2606.990234"/>
     <use xlink:href="#DejaVuSans-6f" x="2634.773438"/>
     <use xlink:href="#DejaVuSans-77" x="2695.955078"/>
     <use xlink:href="#DejaVuSans-20" x="2777.742188"/>
     <use xlink:href="#DejaVuSans-61" x="2809.529297"/>
     <use xlink:href="#DejaVuSans-74" x="2870.808594"/>
     <use xlink:href="#DejaVuSans-20" x="2910.017578"/>
     <use xlink:href="#DejaVuSans-61" x="2941.804688"/>
     <use xlink:href="#DejaVuSans-20" x="3003.083984"/>
     <use xlink:href="#DejaVuSans-74" x="3034.871094"/>
     <use xlink:href="#DejaVuSans-69" x="3074.080078"/>
     <use xlink:href="#DejaVuSans-6d" x="3101.863281"/>
     <use xlink:href="#DejaVuSans-65" x="3199.275391"/>
     <use xlink:href="#DejaVuSans-20" x="3260.798828"/>
     <use xlink:href="#DejaVuSans-28" x="3292.585938"/>
     <use xlink:href="#DejaVuSans-78" x="3331.599609"/>
     <use xlink:href="#DejaVuSans-2d" x="3390.779297"/>
     <use xlink:href="#DejaVuSans-61" x="3426.863281"/>
     <use xlink:href="#DejaVuSans-78" x="3488.142578"/>
     <use xlink:href="#DejaVuSans-69" x="3547.322266"/>
     <use xlink:href="#DejaVuSans-73" x="3575.105469"/>
     <use xlink:href="#DejaVuSans-29" x="3627.205078"/>
     <use xlink:href="#DejaVuSans-2e" x="3666.21875"/>
    </g>
   </g>
  </g>
 </g>
 <defs>
  <clipPath id="p8a501c3e4e">
   <rect x="57.6" y="41.472" width="357.12" height="266.112"/>
  </clipPath>
 </defs>
</svg>
