<?xml version="1.0" encoding="utf-8" standalone="no"?>
<!DOCTYPE svg PUBLIC "-//W3C//DTD SVG 1.1//EN"
  "http://www.w3.org/Graphics/SVG/1.1/DTD/svg11.dtd">
<svg xmlns:xlink="http://www.w3.org/1999/xlink" width="460.8pt" height="345.6pt" viewBox="0 0 460.8 345.6" xmlns="http://www.w3.org/2000/svg" version="1.1">
 <metadata>
  <rdf:RDF xmlns:dc="http://purl.org/dc/elements/1.1/" xmlns:cc="http://creativecommons.org/ns#" xmlns:rdf="http://www.w3.org/1999/02/22-rdf-syntax-ns#">
   <cc:Work>
    <dc:type rdf:resource="http://purl.org/dc/dcmitype/StillImage"/>
    <dc:date>2024-03-08T12:31:10.096482</dc:date>
    <dc:format>image/svg+xml</dc:format>
    <dc:creator>
     <cc:Agent>
      <dc:title>Matplotlib v3.8.2, https://matplotlib.org/</dc:title>
     </cc:Agent>
    </dc:creator>
   </cc:Work>
  </rdf:RDF>
 </metadata>
 <defs>
  <style type="text/css">*{stroke-linejoin: round; stroke-linecap: butt}</style>
 </defs>
 <g id="figure_1">
  <g id="patch_1">
   <path d="M 0 345.6 
L 460.8 345.6 
L 460.8 0 
L 0 0 
z
" style="fill: #ffffff"/>
  </g>
  <g id="axes_1">
   <g id="patch_2">
    <path d="M 57.6 307.584 
L 414.72 307.584 
L 414.72 41.472 
L 57.6 41.472 
z
" style="fill: #ffffff"/>
   </g>
   <g id="matplotlib.axis_1">
    <g id="xtick_1">
     <g id="line2d_1">
      <defs>
       <path id="m6bcee78347" d="M 0 0 
L 0 3.5 
" style="stroke: #000000; stroke-width: 0.8"/>
      </defs>
      <g>
       <use xlink:href="#m6bcee78347" x="73.832727" y="307.584" style="stroke: #000000; stroke-width: 0.8"/>
      </g>
     </g>
     <g id="text_1">
      <!-- 0 -->
      <g transform="translate(70.651477 322.182437) scale(0.1 -0.1)">
       <defs>
        <path id="DejaVuSans-30" d="M 2034 4250 
Q 1547 4250 1301 3770 
Q 1056 3291 1056 2328 
Q 1056 1369 1301 889 
Q 1547 409 2034 409 
Q 2525 409 2770 889 
Q 3016 1369 3016 2328 
Q 3016 3291 2770 3770 
Q 2525 4250 2034 4250 
z
M 2034 4750 
Q 2819 4750 3233 4129 
Q 3647 3509 3647 2328 
Q 3647 1150 3233 529 
Q 2819 -91 2034 -91 
Q 1250 -91 836 529 
Q 422 1150 422 2328 
Q 422 3509 836 4129 
Q 1250 4750 2034 4750 
z
" transform="scale(0.015625)"/>
       </defs>
       <use xlink:href="#DejaVuSans-30"/>
      </g>
     </g>
    </g>
    <g id="xtick_2">
     <g id="line2d_2">
      <g>
       <use xlink:href="#m6bcee78347" x="135.71884" y="307.584" style="stroke: #000000; stroke-width: 0.8"/>
      </g>
     </g>
     <g id="text_2">
      <!-- 20000 -->
      <g transform="translate(119.81259 322.182437) scale(0.1 -0.1)">
       <defs>
        <path id="DejaVuSans-32" d="M 1228 531 
L 3431 531 
L 3431 0 
L 469 0 
L 469 531 
Q 828 903 1448 1529 
Q 2069 2156 2228 2338 
Q 2531 2678 2651 2914 
Q 2772 3150 2772 3378 
Q 2772 3750 2511 3984 
Q 2250 4219 1831 4219 
Q 1534 4219 1204 4116 
Q 875 4013 500 3803 
L 500 4441 
Q 881 4594 1212 4672 
Q 1544 4750 1819 4750 
Q 2544 4750 2975 4387 
Q 3406 4025 3406 3419 
Q 3406 3131 3298 2873 
Q 3191 2616 2906 2266 
Q 2828 2175 2409 1742 
Q 1991 1309 1228 531 
z
" transform="scale(0.015625)"/>
       </defs>
       <use xlink:href="#DejaVuSans-32"/>
       <use xlink:href="#DejaVuSans-30" x="63.623047"/>
       <use xlink:href="#DejaVuSans-30" x="127.246094"/>
       <use xlink:href="#DejaVuSans-30" x="190.869141"/>
       <use xlink:href="#DejaVuSans-30" x="254.492188"/>
      </g>
     </g>
    </g>
    <g id="xtick_3">
     <g id="line2d_3">
      <g>
       <use xlink:href="#m6bcee78347" x="197.604952" y="307.584" style="stroke: #000000; stroke-width: 0.8"/>
      </g>
     </g>
     <g id="text_3">
      <!-- 40000 -->
      <g transform="translate(181.698702 322.182437) scale(0.1 -0.1)">
       <defs>
        <path id="DejaVuSans-34" d="M 2419 4116 
L 825 1625 
L 2419 1625 
L 2419 4116 
z
M 2253 4666 
L 3047 4666 
L 3047 1625 
L 3713 1625 
L 3713 1100 
L 3047 1100 
L 3047 0 
L 2419 0 
L 2419 1100 
L 313 1100 
L 313 1709 
L 2253 4666 
z
" transform="scale(0.015625)"/>
       </defs>
       <use xlink:href="#DejaVuSans-34"/>
       <use xlink:href="#DejaVuSans-30" x="63.623047"/>
       <use xlink:href="#DejaVuSans-30" x="127.246094"/>
       <use xlink:href="#DejaVuSans-30" x="190.869141"/>
       <use xlink:href="#DejaVuSans-30" x="254.492188"/>
      </g>
     </g>
    </g>
    <g id="xtick_4">
     <g id="line2d_4">
      <g>
       <use xlink:href="#m6bcee78347" x="259.491064" y="307.584" style="stroke: #000000; stroke-width: 0.8"/>
      </g>
     </g>
     <g id="text_4">
      <!-- 60000 -->
      <g transform="translate(243.584814 322.182437) scale(0.1 -0.1)">
       <defs>
        <path id="DejaVuSans-36" d="M 2113 2584 
Q 1688 2584 1439 2293 
Q 1191 2003 1191 1497 
Q 1191 994 1439 701 
Q 1688 409 2113 409 
Q 2538 409 2786 701 
Q 3034 994 3034 1497 
Q 3034 2003 2786 2293 
Q 2538 2584 2113 2584 
z
M 3366 4563 
L 3366 3988 
Q 3128 4100 2886 4159 
Q 2644 4219 2406 4219 
Q 1781 4219 1451 3797 
Q 1122 3375 1075 2522 
Q 1259 2794 1537 2939 
Q 1816 3084 2150 3084 
Q 2853 3084 3261 2657 
Q 3669 2231 3669 1497 
Q 3669 778 3244 343 
Q 2819 -91 2113 -91 
Q 1303 -91 875 529 
Q 447 1150 447 2328 
Q 447 3434 972 4092 
Q 1497 4750 2381 4750 
Q 2619 4750 2861 4703 
Q 3103 4656 3366 4563 
z
" transform="scale(0.015625)"/>
       </defs>
       <use xlink:href="#DejaVuSans-36"/>
       <use xlink:href="#DejaVuSans-30" x="63.623047"/>
       <use xlink:href="#DejaVuSans-30" x="127.246094"/>
       <use xlink:href="#DejaVuSans-30" x="190.869141"/>
       <use xlink:href="#DejaVuSans-30" x="254.492188"/>
      </g>
     </g>
    </g>
    <g id="xtick_5">
     <g id="line2d_5">
      <g>
       <use xlink:href="#m6bcee78347" x="321.377177" y="307.584" style="stroke: #000000; stroke-width: 0.8"/>
      </g>
     </g>
     <g id="text_5">
      <!-- 80000 -->
      <g transform="translate(305.470927 322.182437) scale(0.1 -0.1)">
       <defs>
        <path id="DejaVuSans-38" d="M 2034 2216 
Q 1584 2216 1326 1975 
Q 1069 1734 1069 1313 
Q 1069 891 1326 650 
Q 1584 409 2034 409 
Q 2484 409 2743 651 
Q 3003 894 3003 1313 
Q 3003 1734 2745 1975 
Q 2488 2216 2034 2216 
z
M 1403 2484 
Q 997 2584 770 2862 
Q 544 3141 544 3541 
Q 544 4100 942 4425 
Q 1341 4750 2034 4750 
Q 2731 4750 3128 4425 
Q 3525 4100 3525 3541 
Q 3525 3141 3298 2862 
Q 3072 2584 2669 2484 
Q 3125 2378 3379 2068 
Q 3634 1759 3634 1313 
Q 3634 634 3220 271 
Q 2806 -91 2034 -91 
Q 1263 -91 848 271 
Q 434 634 434 1313 
Q 434 1759 690 2068 
Q 947 2378 1403 2484 
z
M 1172 3481 
Q 1172 3119 1398 2916 
Q 1625 2713 2034 2713 
Q 2441 2713 2670 2916 
Q 2900 3119 2900 3481 
Q 2900 3844 2670 4047 
Q 2441 4250 2034 4250 
Q 1625 4250 1398 4047 
Q 1172 3844 1172 3481 
z
" transform="scale(0.015625)"/>
       </defs>
       <use xlink:href="#DejaVuSans-38"/>
       <use xlink:href="#DejaVuSans-30" x="63.623047"/>
       <use xlink:href="#DejaVuSans-30" x="127.246094"/>
       <use xlink:href="#DejaVuSans-30" x="190.869141"/>
       <use xlink:href="#DejaVuSans-30" x="254.492188"/>
      </g>
     </g>
    </g>
    <g id="xtick_6">
     <g id="line2d_6">
      <g>
       <use xlink:href="#m6bcee78347" x="383.263289" y="307.584" style="stroke: #000000; stroke-width: 0.8"/>
      </g>
     </g>
     <g id="text_6">
      <!-- 100000 -->
      <g transform="translate(364.175789 322.182437) scale(0.1 -0.1)">
       <defs>
        <path id="DejaVuSans-31" d="M 794 531 
L 1825 531 
L 1825 4091 
L 703 3866 
L 703 4441 
L 1819 4666 
L 2450 4666 
L 2450 531 
L 3481 531 
L 3481 0 
L 794 0 
L 794 531 
z
" transform="scale(0.015625)"/>
       </defs>
       <use xlink:href="#DejaVuSans-31"/>
       <use xlink:href="#DejaVuSans-30" x="63.623047"/>
       <use xlink:href="#DejaVuSans-30" x="127.246094"/>
       <use xlink:href="#DejaVuSans-30" x="190.869141"/>
       <use xlink:href="#DejaVuSans-30" x="254.492188"/>
       <use xlink:href="#DejaVuSans-30" x="318.115234"/>
      </g>
     </g>
    </g>
   </g>
   <g id="matplotlib.axis_2">
    <g id="ytick_1">
     <g id="line2d_7">
      <defs>
       <path id="m0ef136e582" d="M 0 0 
L -3.5 0 
" style="stroke: #000000; stroke-width: 0.8"/>
      </defs>
      <g>
       <use xlink:href="#m0ef136e582" x="57.6" y="295.488" style="stroke: #000000; stroke-width: 0.8"/>
      </g>
     </g>
     <g id="text_7">
      <!-- 0.0 -->
      <g transform="translate(34.696875 299.287219) scale(0.1 -0.1)">
       <defs>
        <path id="DejaVuSans-2e" d="M 684 794 
L 1344 794 
L 1344 0 
L 684 0 
L 684 794 
z
" transform="scale(0.015625)"/>
       </defs>
       <use xlink:href="#DejaVuSans-30"/>
       <use xlink:href="#DejaVuSans-2e" x="63.623047"/>
       <use xlink:href="#DejaVuSans-30" x="95.410156"/>
      </g>
     </g>
    </g>
    <g id="ytick_2">
     <g id="line2d_8">
      <g>
       <use xlink:href="#m0ef136e582" x="57.6" y="247.104" style="stroke: #000000; stroke-width: 0.8"/>
      </g>
     </g>
     <g id="text_8">
      <!-- 0.2 -->
      <g transform="translate(34.696875 250.903219) scale(0.1 -0.1)">
       <use xlink:href="#DejaVuSans-30"/>
       <use xlink:href="#DejaVuSans-2e" x="63.623047"/>
       <use xlink:href="#DejaVuSans-32" x="95.410156"/>
      </g>
     </g>
    </g>
    <g id="ytick_3">
     <g id="line2d_9">
      <g>
       <use xlink:href="#m0ef136e582" x="57.6" y="198.72" style="stroke: #000000; stroke-width: 0.8"/>
      </g>
     </g>
     <g id="text_9">
      <!-- 0.4 -->
      <g transform="translate(34.696875 202.519219) scale(0.1 -0.1)">
       <use xlink:href="#DejaVuSans-30"/>
       <use xlink:href="#DejaVuSans-2e" x="63.623047"/>
       <use xlink:href="#DejaVuSans-34" x="95.410156"/>
      </g>
     </g>
    </g>
    <g id="ytick_4">
     <g id="line2d_10">
      <g>
       <use xlink:href="#m0ef136e582" x="57.6" y="150.336" style="stroke: #000000; stroke-width: 0.8"/>
      </g>
     </g>
     <g id="text_10">
      <!-- 0.6 -->
      <g transform="translate(34.696875 154.135219) scale(0.1 -0.1)">
       <use xlink:href="#DejaVuSans-30"/>
       <use xlink:href="#DejaVuSans-2e" x="63.623047"/>
       <use xlink:href="#DejaVuSans-36" x="95.410156"/>
      </g>
     </g>
    </g>
    <g id="ytick_5">
     <g id="line2d_11">
      <g>
       <use xlink:href="#m0ef136e582" x="57.6" y="101.952" style="stroke: #000000; stroke-width: 0.8"/>
      </g>
     </g>
     <g id="text_11">
      <!-- 0.8 -->
      <g transform="translate(34.696875 105.751219) scale(0.1 -0.1)">
       <use xlink:href="#DejaVuSans-30"/>
       <use xlink:href="#DejaVuSans-2e" x="63.623047"/>
       <use xlink:href="#DejaVuSans-38" x="95.410156"/>
      </g>
     </g>
    </g>
    <g id="ytick_6">
     <g id="line2d_12">
      <g>
       <use xlink:href="#m0ef136e582" x="57.6" y="53.568" style="stroke: #000000; stroke-width: 0.8"/>
      </g>
     </g>
     <g id="text_12">
      <!-- 1.0 -->
      <g transform="translate(34.696875 57.367219) scale(0.1 -0.1)">
       <use xlink:href="#DejaVuSans-31"/>
       <use xlink:href="#DejaVuSans-2e" x="63.623047"/>
       <use xlink:href="#DejaVuSans-30" x="95.410156"/>
      </g>
     </g>
    </g>
   </g>
   <g id="line2d_13">
    <path d="M 73.832727 295.488 
L 80.794915 295.488 
L 80.887744 141.865211 
L 80.887744 141.865211 
L 81.011516 141.865211 
L 81.042459 140.908059 
L 81.042459 140.908059 
L 81.444719 140.908059 
L 81.444719 140.668772 
L 81.908865 140.668772 
L 81.970751 140.190196 
L 82.991872 140.190196 
L 82.991872 139.950908 
L 83.270359 139.950908 
L 83.270359 139.472332 
L 83.270359 139.472332 
L 83.858277 139.472332 
L 83.858277 139.233045 
L 84.415252 139.233045 
L 84.415252 138.993757 
L 84.569968 138.993757 
L 84.569968 138.754469 
L 84.69374 138.754469 
L 84.69374 138.515181 
L 85.312601 138.515181 
L 85.312601 138.275893 
L 86.055234 138.275893 
L 86.086178 137.797318 
L 86.51938 137.797318 
L 86.51938 137.55803 
L 87.540501 137.55803 
L 87.540501 137.318742 
L 87.973704 137.318742 
L 87.973704 137.079454 
L 88.221248 137.079454 
L 88.252191 136.600878 
L 88.654451 136.600878 
L 88.654451 136.122303 
L 88.654451 136.122303 
L 88.901996 136.122303 
L 88.901996 135.883015 
L 89.366141 135.883015 
L 89.366141 135.643727 
L 90.356319 135.643727 
L 90.387262 135.165151 
L 90.634807 135.165151 
L 90.634807 134.925864 
L 90.97518 134.925864 
L 90.97518 134.447288 
L 90.97518 134.447288 
L 91.501212 134.447288 
L 91.501212 134.208 
L 91.624985 134.208 
L 91.655928 133.011561 
L 91.655928 133.011561 
L 91.841586 133.011561 
L 91.934415 132.532985 
L 92.274789 132.532985 
L 92.274789 131.575834 
L 92.274789 131.575834 
L 92.553276 131.575834 
L 92.584219 130.618682 
L 92.584219 130.618682 
L 92.955536 130.618682 
L 92.986479 129.661531 
L 92.986479 129.661531 
L 93.667226 129.661531 
L 93.667226 129.422243 
L 93.976657 129.422243 
L 94.038543 128.943668 
L 94.286087 128.943668 
L 94.286087 128.225804 
L 94.286087 128.225804 
L 94.502689 128.225804 
L 94.564575 127.747228 
L 95.059664 127.747228 
L 95.059664 127.507941 
L 95.461924 127.507941 
L 95.554753 126.790077 
L 95.554753 126.790077 
L 96.080785 126.790077 
L 96.173614 126.311501 
L 96.2355 126.311501 
L 96.2355 126.072214 
L 96.63776 126.072214 
L 96.63776 125.35435 
L 96.63776 125.35435 
L 96.916247 125.35435 
L 96.916247 125.115062 
L 97.75171 125.115062 
L 97.75171 124.875774 
L 97.999254 124.875774 
L 97.999254 124.636487 
L 98.525286 124.636487 
L 98.525286 124.157911 
L 98.525286 124.157911 
L 98.896603 124.157911 
L 98.896603 123.918623 
L 99.206033 123.918623 
L 99.206033 123.679335 
L 99.484521 123.679335 
L 99.484521 123.440047 
L 100.227154 123.440047 
L 100.227154 123.20076 
L 101.40299 123.20076 
L 101.40299 122.961472 
L 101.619592 122.961472 
L 101.619592 122.722184 
L 102.021851 122.722184 
L 102.021851 122.482896 
L 102.60977 122.482896 
L 102.671656 122.00432 
L 102.888257 122.00432 
L 102.888257 121.765033 
L 103.073915 121.765033 
L 103.104858 121.286457 
L 103.228631 121.286457 
L 103.228631 120.807881 
L 103.228631 120.807881 
L 103.538061 120.807881 
L 103.63089 120.329306 
L 103.661833 120.329306 
L 103.661833 120.090018 
L 103.816549 120.090018 
L 103.847492 119.611442 
L 104.187865 119.611442 
L 104.249751 118.893579 
L 104.311638 118.893579 
L 104.311638 117.697139 
L 104.311638 117.697139 
L 104.559182 117.697139 
L 104.559182 117.457852 
L 104.682954 117.457852 
L 104.775783 116.261412 
L 104.930499 116.261412 
L 104.930499 115.782837 
L 104.930499 115.782837 
L 105.1471 115.782837 
L 105.1471 115.543549 
L 105.796904 115.543549 
L 105.796904 115.064973 
L 105.796904 115.064973 
L 105.982563 115.064973 
L 105.982563 114.825685 
L 106.106335 114.825685 
L 106.106335 114.586398 
L 106.230107 114.586398 
L 106.230107 114.34711 
L 106.725196 114.34711 
L 106.725196 114.107822 
L 106.879911 114.107822 
L 106.879911 113.629246 
L 106.879911 113.629246 
L 107.282171 113.629246 
L 107.282171 112.911383 
L 107.282171 112.911383 
L 107.993861 112.911383 
L 107.993861 112.672095 
L 108.210463 112.672095 
L 108.303292 111.475656 
L 108.519893 111.475656 
L 108.519893 111.236368 
L 108.736495 111.236368 
L 108.736495 110.99708 
L 109.386299 110.99708 
L 109.386299 110.757792 
L 110.252704 110.757792 
L 110.252704 110.518504 
L 110.469306 110.518504 
L 110.531192 109.561353 
L 110.593078 109.561353 
L 110.593078 109.322065 
L 110.71685 109.322065 
L 110.71685 108.84349 
L 110.71685 108.84349 
L 110.902509 108.84349 
L 110.902509 108.604202 
L 111.026281 108.604202 
L 111.057224 107.407763 
L 111.057224 107.407763 
L 111.304768 107.407763 
L 111.335711 106.929187 
L 111.459484 106.929187 
L 111.459484 106.689899 
L 112.140231 106.689899 
L 112.140231 106.450611 
L 112.294946 106.450611 
L 112.294946 106.211323 
L 112.542491 106.211323 
L 112.542491 105.972036 
L 112.94475 105.972036 
L 112.94475 105.732748 
L 113.377953 105.732748 
L 113.377953 105.49346 
L 113.563611 105.49346 
L 113.563611 105.254172 
L 113.74927 105.254172 
L 113.74927 105.014884 
L 113.996814 105.014884 
L 113.996814 104.775596 
L 114.491903 104.775596 
L 114.491903 104.536309 
L 114.770391 104.536309 
L 114.770391 104.297021 
L 114.925106 104.297021 
L 114.925106 104.057733 
L 115.203593 104.057733 
L 115.203593 103.818445 
L 115.729625 103.818445 
L 115.729625 103.579157 
L 115.853398 103.579157 
L 115.853398 103.339869 
L 116.255657 103.339869 
L 116.255657 103.100582 
L 116.37943 103.100582 
L 116.472259 102.382718 
L 116.750746 102.382718 
L 116.750746 102.14343 
L 116.967348 102.14343 
L 116.967348 101.904142 
L 117.276778 101.904142 
L 117.276778 101.664855 
L 117.988468 101.664855 
L 117.988468 101.425567 
L 118.174127 101.425567 
L 118.174127 101.186279 
L 118.452614 101.186279 
L 118.5145 100.229128 
L 119.288077 100.229128 
L 119.288077 99.98984 
L 119.473735 99.98984 
L 119.473735 99.750552 
L 119.690337 99.750552 
L 119.690337 99.032688 
L 119.690337 99.032688 
L 121.485034 99.032688 
L 121.515977 98.314825 
L 121.763521 98.314825 
L 121.763521 98.075537 
L 122.815585 98.075537 
L 122.815585 97.836249 
L 122.9703 97.836249 
L 122.9703 97.596961 
L 123.125016 97.596961 
L 123.125016 97.357674 
L 123.341617 97.357674 
L 123.341617 97.118386 
L 123.960478 97.118386 
L 123.960478 96.879098 
L 125.229144 96.879098 
L 125.229144 96.63981 
L 126.71441 96.63981 
L 126.71441 96.400522 
L 127.642702 96.400522 
L 127.642702 95.682659 
L 127.642702 95.682659 
L 127.82836 95.682659 
L 127.82836 95.443371 
L 128.044962 95.443371 
L 128.044962 94.964795 
L 128.044962 94.964795 
L 128.199677 94.964795 
L 128.23062 94.48622 
L 128.323449 94.48622 
L 128.323449 94.246932 
L 128.540051 94.246932 
L 128.540051 94.007644 
L 128.694766 94.007644 
L 128.694766 93.768356 
L 128.849481 93.768356 
L 128.94231 93.050493 
L 129.03514 93.050493 
L 129.066083 92.571917 
L 129.220798 92.571917 
L 129.282684 91.375478 
L 129.34457 91.375478 
L 129.34457 90.896902 
L 129.34457 90.896902 
L 129.468342 90.896902 
L 129.499285 90.179039 
L 129.963431 90.179039 
L 130.05626 89.221887 
L 130.241919 89.221887 
L 130.334748 88.264736 
L 130.520406 88.264736 
L 130.582292 87.78616 
L 130.644178 87.78616 
L 130.644178 87.546872 
L 130.891723 87.546872 
L 130.891723 87.307585 
L 131.26304 87.307585 
L 131.293983 86.829009 
L 131.448698 86.829009 
L 131.448698 86.589721 
L 131.727185 86.589721 
L 131.727185 86.350433 
L 131.881901 86.350433 
L 131.881901 86.111145 
L 132.810192 86.111145 
L 132.810192 85.871858 
L 133.707541 85.871858 
L 133.707541 85.63257 
L 134.51206 85.63257 
L 134.543004 84.675418 
L 134.543004 84.675418 
L 138.65843 84.675418 
L 138.65843 84.436131 
L 138.998804 84.436131 
L 138.998804 84.196843 
L 139.153519 84.196843 
L 139.153519 83.478979 
L 139.153519 83.478979 
L 139.555779 83.478979 
L 139.555779 82.761116 
L 139.555779 82.761116 
L 140.700672 82.761116 
L 140.700672 82.043252 
L 140.700672 82.043252 
L 140.824444 82.043252 
L 140.824444 81.325389 
L 140.824444 81.325389 
L 140.948216 81.325389 
L 141.041045 79.171798 
L 141.041045 79.171798 
L 141.164818 79.171798 
L 141.257647 76.77892 
L 141.257647 76.77892 
L 141.567077 76.77892 
L 141.567077 76.061056 
L 141.567077 76.061056 
L 141.690849 76.061056 
L 141.783679 74.864617 
L 141.783679 74.864617 
L 141.814622 74.864617 
L 141.814622 74.625329 
L 141.969337 74.625329 
L 142.00028 73.907466 
L 142.124052 73.907466 
L 142.216881 72.232451 
L 142.371597 72.232451 
L 142.464426 71.2753 
L 142.464426 71.2753 
L 142.742913 71.2753 
L 142.835743 69.360997 
L 142.835743 69.360997 
L 142.866686 69.360997 
L 142.959515 67.446694 
L 142.959515 67.446694 
L 142.990458 67.446694 
L 143.052344 65.532392 
L 143.052344 65.532392 
L 143.299888 65.532392 
L 143.330831 64.814528 
L 143.454604 64.814528 
L 143.454604 64.096665 
L 143.454604 64.096665 
L 143.640262 64.096665 
L 143.640262 63.378801 
L 143.640262 63.378801 
L 146.084763 63.378801 
L 146.084763 62.42165 
L 146.084763 62.42165 
L 146.208536 62.42165 
L 146.208536 62.182362 
L 148.250777 62.182362 
L 148.250777 61.943074 
L 155.36768 61.943074 
L 155.36768 61.703786 
L 157.409922 61.703786 
L 157.409922 61.464499 
L 158.523872 61.464499 
L 158.523872 60.507347 
L 158.523872 60.507347 
L 162.546469 60.507347 
L 162.546469 60.268059 
L 164.557768 60.268059 
L 164.557768 60.028772 
L 171.396183 60.028772 
L 171.396183 59.310908 
L 171.396183 59.310908 
L 171.674671 59.310908 
L 171.674671 59.07162 
L 173.562197 59.07162 
L 173.562197 58.832332 
L 178.946289 58.832332 
L 178.946289 58.593045 
L 180.710043 58.593045 
L 180.710043 58.353757 
L 188.012605 58.353757 
L 188.012605 58.114469 
L 385.088929 58.114469 
L 385.088929 57.875181 
L 385.305531 57.875181 
L 385.305531 57.635893 
L 385.460246 57.635893 
L 385.460246 57.396605 
L 386.481367 57.396605 
L 386.481367 57.157318 
L 397.806525 57.157318 
L 397.806525 56.439454 
L 397.806525 56.439454 
L 398.208785 56.439454 
L 398.301614 54.525151 
L 398.301614 54.525151 
L 398.332557 54.525151 
L 398.332557 54.285864 
L 398.487273 54.285864 
L 398.487273 53.568 
L 398.487273 53.568 
" clip-path="url(#p99aaf94a97)" style="fill: none; stroke: #1f77b4; stroke-width: 1.5; stroke-linecap: square"/>
   </g>
   <g id="patch_3">
    <path d="M 57.6 307.584 
L 57.6 41.472 
" style="fill: none; stroke: #000000; stroke-width: 0.8; stroke-linejoin: miter; stroke-linecap: square"/>
   </g>
   <g id="patch_4">
    <path d="M 414.72 307.584 
L 414.72 41.472 
" style="fill: none; stroke: #000000; stroke-width: 0.8; stroke-linejoin: miter; stroke-linecap: square"/>
   </g>
   <g id="patch_5">
    <path d="M 57.6 307.584 
L 414.72 307.584 
" style="fill: none; stroke: #000000; stroke-width: 0.8; stroke-linejoin: miter; stroke-linecap: square"/>
   </g>
   <g id="patch_6">
    <path d="M 57.6 41.472 
L 414.72 41.472 
" style="fill: none; stroke: #000000; stroke-width: 0.8; stroke-linejoin: miter; stroke-linecap: square"/>
   </g>
   <g id="text_13">
    <!-- Execution time between S5 S6 -->
    <g transform="translate(144.336563 35.472) scale(0.12 -0.12)">
     <defs>
      <path id="DejaVuSans-45" d="M 628 4666 
L 3578 4666 
L 3578 4134 
L 1259 4134 
L 1259 2753 
L 3481 2753 
L 3481 2222 
L 1259 2222 
L 1259 531 
L 3634 531 
L 3634 0 
L 628 0 
L 628 4666 
z
" transform="scale(0.015625)"/>
      <path id="DejaVuSans-78" d="M 3513 3500 
L 2247 1797 
L 3578 0 
L 2900 0 
L 1881 1375 
L 863 0 
L 184 0 
L 1544 1831 
L 300 3500 
L 978 3500 
L 1906 2253 
L 2834 3500 
L 3513 3500 
z
" transform="scale(0.015625)"/>
      <path id="DejaVuSans-65" d="M 3597 1894 
L 3597 1613 
L 953 1613 
Q 991 1019 1311 708 
Q 1631 397 2203 397 
Q 2534 397 2845 478 
Q 3156 559 3463 722 
L 3463 178 
Q 3153 47 2828 -22 
Q 2503 -91 2169 -91 
Q 1331 -91 842 396 
Q 353 884 353 1716 
Q 353 2575 817 3079 
Q 1281 3584 2069 3584 
Q 2775 3584 3186 3129 
Q 3597 2675 3597 1894 
z
M 3022 2063 
Q 3016 2534 2758 2815 
Q 2500 3097 2075 3097 
Q 1594 3097 1305 2825 
Q 1016 2553 972 2059 
L 3022 2063 
z
" transform="scale(0.015625)"/>
      <path id="DejaVuSans-63" d="M 3122 3366 
L 3122 2828 
Q 2878 2963 2633 3030 
Q 2388 3097 2138 3097 
Q 1578 3097 1268 2742 
Q 959 2388 959 1747 
Q 959 1106 1268 751 
Q 1578 397 2138 397 
Q 2388 397 2633 464 
Q 2878 531 3122 666 
L 3122 134 
Q 2881 22 2623 -34 
Q 2366 -91 2075 -91 
Q 1284 -91 818 406 
Q 353 903 353 1747 
Q 353 2603 823 3093 
Q 1294 3584 2113 3584 
Q 2378 3584 2631 3529 
Q 2884 3475 3122 3366 
z
" transform="scale(0.015625)"/>
      <path id="DejaVuSans-75" d="M 544 1381 
L 544 3500 
L 1119 3500 
L 1119 1403 
Q 1119 906 1312 657 
Q 1506 409 1894 409 
Q 2359 409 2629 706 
Q 2900 1003 2900 1516 
L 2900 3500 
L 3475 3500 
L 3475 0 
L 2900 0 
L 2900 538 
Q 2691 219 2414 64 
Q 2138 -91 1772 -91 
Q 1169 -91 856 284 
Q 544 659 544 1381 
z
M 1991 3584 
L 1991 3584 
z
" transform="scale(0.015625)"/>
      <path id="DejaVuSans-74" d="M 1172 4494 
L 1172 3500 
L 2356 3500 
L 2356 3053 
L 1172 3053 
L 1172 1153 
Q 1172 725 1289 603 
Q 1406 481 1766 481 
L 2356 481 
L 2356 0 
L 1766 0 
Q 1100 0 847 248 
Q 594 497 594 1153 
L 594 3053 
L 172 3053 
L 172 3500 
L 594 3500 
L 594 4494 
L 1172 4494 
z
" transform="scale(0.015625)"/>
      <path id="DejaVuSans-69" d="M 603 3500 
L 1178 3500 
L 1178 0 
L 603 0 
L 603 3500 
z
M 603 4863 
L 1178 4863 
L 1178 4134 
L 603 4134 
L 603 4863 
z
" transform="scale(0.015625)"/>
      <path id="DejaVuSans-6f" d="M 1959 3097 
Q 1497 3097 1228 2736 
Q 959 2375 959 1747 
Q 959 1119 1226 758 
Q 1494 397 1959 397 
Q 2419 397 2687 759 
Q 2956 1122 2956 1747 
Q 2956 2369 2687 2733 
Q 2419 3097 1959 3097 
z
M 1959 3584 
Q 2709 3584 3137 3096 
Q 3566 2609 3566 1747 
Q 3566 888 3137 398 
Q 2709 -91 1959 -91 
Q 1206 -91 779 398 
Q 353 888 353 1747 
Q 353 2609 779 3096 
Q 1206 3584 1959 3584 
z
" transform="scale(0.015625)"/>
      <path id="DejaVuSans-6e" d="M 3513 2113 
L 3513 0 
L 2938 0 
L 2938 2094 
Q 2938 2591 2744 2837 
Q 2550 3084 2163 3084 
Q 1697 3084 1428 2787 
Q 1159 2491 1159 1978 
L 1159 0 
L 581 0 
L 581 3500 
L 1159 3500 
L 1159 2956 
Q 1366 3272 1645 3428 
Q 1925 3584 2291 3584 
Q 2894 3584 3203 3211 
Q 3513 2838 3513 2113 
z
" transform="scale(0.015625)"/>
      <path id="DejaVuSans-20" transform="scale(0.015625)"/>
      <path id="DejaVuSans-6d" d="M 3328 2828 
Q 3544 3216 3844 3400 
Q 4144 3584 4550 3584 
Q 5097 3584 5394 3201 
Q 5691 2819 5691 2113 
L 5691 0 
L 5113 0 
L 5113 2094 
Q 5113 2597 4934 2840 
Q 4756 3084 4391 3084 
Q 3944 3084 3684 2787 
Q 3425 2491 3425 1978 
L 3425 0 
L 2847 0 
L 2847 2094 
Q 2847 2600 2669 2842 
Q 2491 3084 2119 3084 
Q 1678 3084 1418 2786 
Q 1159 2488 1159 1978 
L 1159 0 
L 581 0 
L 581 3500 
L 1159 3500 
L 1159 2956 
Q 1356 3278 1631 3431 
Q 1906 3584 2284 3584 
Q 2666 3584 2933 3390 
Q 3200 3197 3328 2828 
z
" transform="scale(0.015625)"/>
      <path id="DejaVuSans-62" d="M 3116 1747 
Q 3116 2381 2855 2742 
Q 2594 3103 2138 3103 
Q 1681 3103 1420 2742 
Q 1159 2381 1159 1747 
Q 1159 1113 1420 752 
Q 1681 391 2138 391 
Q 2594 391 2855 752 
Q 3116 1113 3116 1747 
z
M 1159 2969 
Q 1341 3281 1617 3432 
Q 1894 3584 2278 3584 
Q 2916 3584 3314 3078 
Q 3713 2572 3713 1747 
Q 3713 922 3314 415 
Q 2916 -91 2278 -91 
Q 1894 -91 1617 61 
Q 1341 213 1159 525 
L 1159 0 
L 581 0 
L 581 4863 
L 1159 4863 
L 1159 2969 
z
" transform="scale(0.015625)"/>
      <path id="DejaVuSans-77" d="M 269 3500 
L 844 3500 
L 1563 769 
L 2278 3500 
L 2956 3500 
L 3675 769 
L 4391 3500 
L 4966 3500 
L 4050 0 
L 3372 0 
L 2619 2869 
L 1863 0 
L 1184 0 
L 269 3500 
z
" transform="scale(0.015625)"/>
      <path id="DejaVuSans-53" d="M 3425 4513 
L 3425 3897 
Q 3066 4069 2747 4153 
Q 2428 4238 2131 4238 
Q 1616 4238 1336 4038 
Q 1056 3838 1056 3469 
Q 1056 3159 1242 3001 
Q 1428 2844 1947 2747 
L 2328 2669 
Q 3034 2534 3370 2195 
Q 3706 1856 3706 1288 
Q 3706 609 3251 259 
Q 2797 -91 1919 -91 
Q 1588 -91 1214 -16 
Q 841 59 441 206 
L 441 856 
Q 825 641 1194 531 
Q 1563 422 1919 422 
Q 2459 422 2753 634 
Q 3047 847 3047 1241 
Q 3047 1584 2836 1778 
Q 2625 1972 2144 2069 
L 1759 2144 
Q 1053 2284 737 2584 
Q 422 2884 422 3419 
Q 422 4038 858 4394 
Q 1294 4750 2059 4750 
Q 2388 4750 2728 4690 
Q 3069 4631 3425 4513 
z
" transform="scale(0.015625)"/>
      <path id="DejaVuSans-35" d="M 691 4666 
L 3169 4666 
L 3169 4134 
L 1269 4134 
L 1269 2991 
Q 1406 3038 1543 3061 
Q 1681 3084 1819 3084 
Q 2600 3084 3056 2656 
Q 3513 2228 3513 1497 
Q 3513 744 3044 326 
Q 2575 -91 1722 -91 
Q 1428 -91 1123 -41 
Q 819 9 494 109 
L 494 744 
Q 775 591 1075 516 
Q 1375 441 1709 441 
Q 2250 441 2565 725 
Q 2881 1009 2881 1497 
Q 2881 1984 2565 2268 
Q 2250 2553 1709 2553 
Q 1456 2553 1204 2497 
Q 953 2441 691 2322 
L 691 4666 
z
" transform="scale(0.015625)"/>
     </defs>
     <use xlink:href="#DejaVuSans-45"/>
     <use xlink:href="#DejaVuSans-78" x="63.183594"/>
     <use xlink:href="#DejaVuSans-65" x="119.238281"/>
     <use xlink:href="#DejaVuSans-63" x="180.761719"/>
     <use xlink:href="#DejaVuSans-75" x="235.742188"/>
     <use xlink:href="#DejaVuSans-74" x="299.121094"/>
     <use xlink:href="#DejaVuSans-69" x="338.330078"/>
     <use xlink:href="#DejaVuSans-6f" x="366.113281"/>
     <use xlink:href="#DejaVuSans-6e" x="427.294922"/>
     <use xlink:href="#DejaVuSans-20" x="490.673828"/>
     <use xlink:href="#DejaVuSans-74" x="522.460938"/>
     <use xlink:href="#DejaVuSans-69" x="561.669922"/>
     <use xlink:href="#DejaVuSans-6d" x="589.453125"/>
     <use xlink:href="#DejaVuSans-65" x="686.865234"/>
     <use xlink:href="#DejaVuSans-20" x="748.388672"/>
     <use xlink:href="#DejaVuSans-62" x="780.175781"/>
     <use xlink:href="#DejaVuSans-65" x="843.652344"/>
     <use xlink:href="#DejaVuSans-74" x="905.175781"/>
     <use xlink:href="#DejaVuSans-77" x="944.384766"/>
     <use xlink:href="#DejaVuSans-65" x="1026.171875"/>
     <use xlink:href="#DejaVuSans-65" x="1087.695312"/>
     <use xlink:href="#DejaVuSans-6e" x="1149.21875"/>
     <use xlink:href="#DejaVuSans-20" x="1212.597656"/>
     <use xlink:href="#DejaVuSans-53" x="1244.384766"/>
     <use xlink:href="#DejaVuSans-35" x="1307.861328"/>
     <use xlink:href="#DejaVuSans-20" x="1371.484375"/>
     <use xlink:href="#DejaVuSans-53" x="1403.271484"/>
     <use xlink:href="#DejaVuSans-36" x="1466.748047"/>
    </g>
   </g>
   <g id="legend_1">
    <g id="patch_7">
     <path d="M 299.496562 304.584 
L 410.52 304.584 
Q 411.72 304.584 411.72 303.384 
L 411.72 295.177125 
Q 411.72 293.977125 410.52 293.977125 
L 299.496562 293.977125 
Q 298.296562 293.977125 298.296562 295.177125 
L 298.296562 303.384 
Q 298.296562 304.584 299.496562 304.584 
z
" style="fill: #ffffff; opacity: 0.8; stroke: #cccccc; stroke-linejoin: miter"/>
    </g>
    <g id="line2d_14">
     <path d="M 300.696562 298.836187 
L 306.696562 298.836187 
L 312.696562 298.836187 
" style="fill: none; stroke: #1f77b4; stroke-width: 1.5; stroke-linecap: square"/>
    </g>
    <g id="text_14">
     <!-- Execution time between S5 S6 -->
     <g transform="translate(317.496562 300.936187) scale(0.06 -0.06)">
      <use xlink:href="#DejaVuSans-45"/>
      <use xlink:href="#DejaVuSans-78" x="63.183594"/>
      <use xlink:href="#DejaVuSans-65" x="119.238281"/>
      <use xlink:href="#DejaVuSans-63" x="180.761719"/>
      <use xlink:href="#DejaVuSans-75" x="235.742188"/>
      <use xlink:href="#DejaVuSans-74" x="299.121094"/>
      <use xlink:href="#DejaVuSans-69" x="338.330078"/>
      <use xlink:href="#DejaVuSans-6f" x="366.113281"/>
      <use xlink:href="#DejaVuSans-6e" x="427.294922"/>
      <use xlink:href="#DejaVuSans-20" x="490.673828"/>
      <use xlink:href="#DejaVuSans-74" x="522.460938"/>
      <use xlink:href="#DejaVuSans-69" x="561.669922"/>
      <use xlink:href="#DejaVuSans-6d" x="589.453125"/>
      <use xlink:href="#DejaVuSans-65" x="686.865234"/>
      <use xlink:href="#DejaVuSans-20" x="748.388672"/>
      <use xlink:href="#DejaVuSans-62" x="780.175781"/>
      <use xlink:href="#DejaVuSans-65" x="843.652344"/>
      <use xlink:href="#DejaVuSans-74" x="905.175781"/>
      <use xlink:href="#DejaVuSans-77" x="944.384766"/>
      <use xlink:href="#DejaVuSans-65" x="1026.171875"/>
      <use xlink:href="#DejaVuSans-65" x="1087.695312"/>
      <use xlink:href="#DejaVuSans-6e" x="1149.21875"/>
      <use xlink:href="#DejaVuSans-20" x="1212.597656"/>
      <use xlink:href="#DejaVuSans-53" x="1244.384766"/>
      <use xlink:href="#DejaVuSans-35" x="1307.861328"/>
      <use xlink:href="#DejaVuSans-20" x="1371.484375"/>
      <use xlink:href="#DejaVuSans-53" x="1403.271484"/>
      <use xlink:href="#DejaVuSans-36" x="1466.748047"/>
     </g>
    </g>
   </g>
  </g>
 </g>
 <defs>
  <clipPath id="p99aaf94a97">
   <rect x="57.6" y="41.472" width="357.12" height="266.112"/>
  </clipPath>
 </defs>
</svg>
