<?xml version="1.0" encoding="utf-8" standalone="no"?>
<!DOCTYPE svg PUBLIC "-//W3C//DTD SVG 1.1//EN"
  "http://www.w3.org/Graphics/SVG/1.1/DTD/svg11.dtd">
<svg xmlns:xlink="http://www.w3.org/1999/xlink" width="460.8pt" height="345.6pt" viewBox="0 0 460.8 345.6" xmlns="http://www.w3.org/2000/svg" version="1.1">
 <metadata>
  <rdf:RDF xmlns:dc="http://purl.org/dc/elements/1.1/" xmlns:cc="http://creativecommons.org/ns#" xmlns:rdf="http://www.w3.org/1999/02/22-rdf-syntax-ns#">
   <cc:Work>
    <dc:type rdf:resource="http://purl.org/dc/dcmitype/StillImage"/>
    <dc:date>2024-03-08T12:31:17.507475</dc:date>
    <dc:format>image/svg+xml</dc:format>
    <dc:creator>
     <cc:Agent>
      <dc:title>Matplotlib v3.8.2, https://matplotlib.org/</dc:title>
     </cc:Agent>
    </dc:creator>
   </cc:Work>
  </rdf:RDF>
 </metadata>
 <defs>
  <style type="text/css">*{stroke-linejoin: round; stroke-linecap: butt}</style>
 </defs>
 <g id="figure_1">
  <g id="patch_1">
   <path d="M 0 345.6 
L 460.8 345.6 
L 460.8 0 
L 0 0 
z
" style="fill: #ffffff"/>
  </g>
  <g id="axes_1">
   <g id="patch_2">
    <path d="M 57.6 307.584 
L 414.72 307.584 
L 414.72 41.472 
L 57.6 41.472 
z
" style="fill: #ffffff"/>
   </g>
   <g id="matplotlib.axis_1">
    <g id="xtick_1">
     <g id="line2d_1">
      <defs>
       <path id="m924fcd3138" d="M 0 0 
L 0 3.5 
" style="stroke: #000000; stroke-width: 0.8"/>
      </defs>
      <g>
       <use xlink:href="#m924fcd3138" x="71.440863" y="307.584" style="stroke: #000000; stroke-width: 0.8"/>
      </g>
     </g>
     <g id="text_1">
      <!-- 0.0 -->
      <g transform="translate(63.4893 322.182437) scale(0.1 -0.1)">
       <defs>
        <path id="DejaVuSans-30" d="M 2034 4250 
Q 1547 4250 1301 3770 
Q 1056 3291 1056 2328 
Q 1056 1369 1301 889 
Q 1547 409 2034 409 
Q 2525 409 2770 889 
Q 3016 1369 3016 2328 
Q 3016 3291 2770 3770 
Q 2525 4250 2034 4250 
z
M 2034 4750 
Q 2819 4750 3233 4129 
Q 3647 3509 3647 2328 
Q 3647 1150 3233 529 
Q 2819 -91 2034 -91 
Q 1250 -91 836 529 
Q 422 1150 422 2328 
Q 422 3509 836 4129 
Q 1250 4750 2034 4750 
z
" transform="scale(0.015625)"/>
        <path id="DejaVuSans-2e" d="M 684 794 
L 1344 794 
L 1344 0 
L 684 0 
L 684 794 
z
" transform="scale(0.015625)"/>
       </defs>
       <use xlink:href="#DejaVuSans-30"/>
       <use xlink:href="#DejaVuSans-2e" x="63.623047"/>
       <use xlink:href="#DejaVuSans-30" x="95.410156"/>
      </g>
     </g>
    </g>
    <g id="xtick_2">
     <g id="line2d_2">
      <g>
       <use xlink:href="#m924fcd3138" x="117.087135" y="307.584" style="stroke: #000000; stroke-width: 0.8"/>
      </g>
     </g>
     <g id="text_2">
      <!-- 0.5 -->
      <g transform="translate(109.135572 322.182437) scale(0.1 -0.1)">
       <defs>
        <path id="DejaVuSans-35" d="M 691 4666 
L 3169 4666 
L 3169 4134 
L 1269 4134 
L 1269 2991 
Q 1406 3038 1543 3061 
Q 1681 3084 1819 3084 
Q 2600 3084 3056 2656 
Q 3513 2228 3513 1497 
Q 3513 744 3044 326 
Q 2575 -91 1722 -91 
Q 1428 -91 1123 -41 
Q 819 9 494 109 
L 494 744 
Q 775 591 1075 516 
Q 1375 441 1709 441 
Q 2250 441 2565 725 
Q 2881 1009 2881 1497 
Q 2881 1984 2565 2268 
Q 2250 2553 1709 2553 
Q 1456 2553 1204 2497 
Q 953 2441 691 2322 
L 691 4666 
z
" transform="scale(0.015625)"/>
       </defs>
       <use xlink:href="#DejaVuSans-30"/>
       <use xlink:href="#DejaVuSans-2e" x="63.623047"/>
       <use xlink:href="#DejaVuSans-35" x="95.410156"/>
      </g>
     </g>
    </g>
    <g id="xtick_3">
     <g id="line2d_3">
      <g>
       <use xlink:href="#m924fcd3138" x="162.733407" y="307.584" style="stroke: #000000; stroke-width: 0.8"/>
      </g>
     </g>
     <g id="text_3">
      <!-- 1.0 -->
      <g transform="translate(154.781844 322.182437) scale(0.1 -0.1)">
       <defs>
        <path id="DejaVuSans-31" d="M 794 531 
L 1825 531 
L 1825 4091 
L 703 3866 
L 703 4441 
L 1819 4666 
L 2450 4666 
L 2450 531 
L 3481 531 
L 3481 0 
L 794 0 
L 794 531 
z
" transform="scale(0.015625)"/>
       </defs>
       <use xlink:href="#DejaVuSans-31"/>
       <use xlink:href="#DejaVuSans-2e" x="63.623047"/>
       <use xlink:href="#DejaVuSans-30" x="95.410156"/>
      </g>
     </g>
    </g>
    <g id="xtick_4">
     <g id="line2d_4">
      <g>
       <use xlink:href="#m924fcd3138" x="208.379679" y="307.584" style="stroke: #000000; stroke-width: 0.8"/>
      </g>
     </g>
     <g id="text_4">
      <!-- 1.5 -->
      <g transform="translate(200.428116 322.182437) scale(0.1 -0.1)">
       <use xlink:href="#DejaVuSans-31"/>
       <use xlink:href="#DejaVuSans-2e" x="63.623047"/>
       <use xlink:href="#DejaVuSans-35" x="95.410156"/>
      </g>
     </g>
    </g>
    <g id="xtick_5">
     <g id="line2d_5">
      <g>
       <use xlink:href="#m924fcd3138" x="254.025951" y="307.584" style="stroke: #000000; stroke-width: 0.8"/>
      </g>
     </g>
     <g id="text_5">
      <!-- 2.0 -->
      <g transform="translate(246.074388 322.182437) scale(0.1 -0.1)">
       <defs>
        <path id="DejaVuSans-32" d="M 1228 531 
L 3431 531 
L 3431 0 
L 469 0 
L 469 531 
Q 828 903 1448 1529 
Q 2069 2156 2228 2338 
Q 2531 2678 2651 2914 
Q 2772 3150 2772 3378 
Q 2772 3750 2511 3984 
Q 2250 4219 1831 4219 
Q 1534 4219 1204 4116 
Q 875 4013 500 3803 
L 500 4441 
Q 881 4594 1212 4672 
Q 1544 4750 1819 4750 
Q 2544 4750 2975 4387 
Q 3406 4025 3406 3419 
Q 3406 3131 3298 2873 
Q 3191 2616 2906 2266 
Q 2828 2175 2409 1742 
Q 1991 1309 1228 531 
z
" transform="scale(0.015625)"/>
       </defs>
       <use xlink:href="#DejaVuSans-32"/>
       <use xlink:href="#DejaVuSans-2e" x="63.623047"/>
       <use xlink:href="#DejaVuSans-30" x="95.410156"/>
      </g>
     </g>
    </g>
    <g id="xtick_6">
     <g id="line2d_6">
      <g>
       <use xlink:href="#m924fcd3138" x="299.672223" y="307.584" style="stroke: #000000; stroke-width: 0.8"/>
      </g>
     </g>
     <g id="text_6">
      <!-- 2.5 -->
      <g transform="translate(291.72066 322.182437) scale(0.1 -0.1)">
       <use xlink:href="#DejaVuSans-32"/>
       <use xlink:href="#DejaVuSans-2e" x="63.623047"/>
       <use xlink:href="#DejaVuSans-35" x="95.410156"/>
      </g>
     </g>
    </g>
    <g id="xtick_7">
     <g id="line2d_7">
      <g>
       <use xlink:href="#m924fcd3138" x="345.318495" y="307.584" style="stroke: #000000; stroke-width: 0.8"/>
      </g>
     </g>
     <g id="text_7">
      <!-- 3.0 -->
      <g transform="translate(337.366933 322.182437) scale(0.1 -0.1)">
       <defs>
        <path id="DejaVuSans-33" d="M 2597 2516 
Q 3050 2419 3304 2112 
Q 3559 1806 3559 1356 
Q 3559 666 3084 287 
Q 2609 -91 1734 -91 
Q 1441 -91 1130 -33 
Q 819 25 488 141 
L 488 750 
Q 750 597 1062 519 
Q 1375 441 1716 441 
Q 2309 441 2620 675 
Q 2931 909 2931 1356 
Q 2931 1769 2642 2001 
Q 2353 2234 1838 2234 
L 1294 2234 
L 1294 2753 
L 1863 2753 
Q 2328 2753 2575 2939 
Q 2822 3125 2822 3475 
Q 2822 3834 2567 4026 
Q 2313 4219 1838 4219 
Q 1578 4219 1281 4162 
Q 984 4106 628 3988 
L 628 4550 
Q 988 4650 1302 4700 
Q 1616 4750 1894 4750 
Q 2613 4750 3031 4423 
Q 3450 4097 3450 3541 
Q 3450 3153 3228 2886 
Q 3006 2619 2597 2516 
z
" transform="scale(0.015625)"/>
       </defs>
       <use xlink:href="#DejaVuSans-33"/>
       <use xlink:href="#DejaVuSans-2e" x="63.623047"/>
       <use xlink:href="#DejaVuSans-30" x="95.410156"/>
      </g>
     </g>
    </g>
    <g id="xtick_8">
     <g id="line2d_8">
      <g>
       <use xlink:href="#m924fcd3138" x="390.964767" y="307.584" style="stroke: #000000; stroke-width: 0.8"/>
      </g>
     </g>
     <g id="text_8">
      <!-- 3.5 -->
      <g transform="translate(383.013205 322.182437) scale(0.1 -0.1)">
       <use xlink:href="#DejaVuSans-33"/>
       <use xlink:href="#DejaVuSans-2e" x="63.623047"/>
       <use xlink:href="#DejaVuSans-35" x="95.410156"/>
      </g>
     </g>
    </g>
    <g id="text_9">
     <!-- 1e6 -->
     <g transform="translate(395.841875 334.860562) scale(0.1 -0.1)">
      <defs>
       <path id="DejaVuSans-65" d="M 3597 1894 
L 3597 1613 
L 953 1613 
Q 991 1019 1311 708 
Q 1631 397 2203 397 
Q 2534 397 2845 478 
Q 3156 559 3463 722 
L 3463 178 
Q 3153 47 2828 -22 
Q 2503 -91 2169 -91 
Q 1331 -91 842 396 
Q 353 884 353 1716 
Q 353 2575 817 3079 
Q 1281 3584 2069 3584 
Q 2775 3584 3186 3129 
Q 3597 2675 3597 1894 
z
M 3022 2063 
Q 3016 2534 2758 2815 
Q 2500 3097 2075 3097 
Q 1594 3097 1305 2825 
Q 1016 2553 972 2059 
L 3022 2063 
z
" transform="scale(0.015625)"/>
       <path id="DejaVuSans-36" d="M 2113 2584 
Q 1688 2584 1439 2293 
Q 1191 2003 1191 1497 
Q 1191 994 1439 701 
Q 1688 409 2113 409 
Q 2538 409 2786 701 
Q 3034 994 3034 1497 
Q 3034 2003 2786 2293 
Q 2538 2584 2113 2584 
z
M 3366 4563 
L 3366 3988 
Q 3128 4100 2886 4159 
Q 2644 4219 2406 4219 
Q 1781 4219 1451 3797 
Q 1122 3375 1075 2522 
Q 1259 2794 1537 2939 
Q 1816 3084 2150 3084 
Q 2853 3084 3261 2657 
Q 3669 2231 3669 1497 
Q 3669 778 3244 343 
Q 2819 -91 2113 -91 
Q 1303 -91 875 529 
Q 447 1150 447 2328 
Q 447 3434 972 4092 
Q 1497 4750 2381 4750 
Q 2619 4750 2861 4703 
Q 3103 4656 3366 4563 
z
" transform="scale(0.015625)"/>
      </defs>
      <use xlink:href="#DejaVuSans-31"/>
      <use xlink:href="#DejaVuSans-65" x="63.623047"/>
      <use xlink:href="#DejaVuSans-36" x="125.146484"/>
     </g>
    </g>
   </g>
   <g id="matplotlib.axis_2">
    <g id="ytick_1">
     <g id="line2d_9">
      <defs>
       <path id="m9744787c98" d="M 0 0 
L -3.5 0 
" style="stroke: #000000; stroke-width: 0.8"/>
      </defs>
      <g>
       <use xlink:href="#m9744787c98" x="57.6" y="295.488" style="stroke: #000000; stroke-width: 0.8"/>
      </g>
     </g>
     <g id="text_10">
      <!-- 0 -->
      <g transform="translate(44.2375 299.287219) scale(0.1 -0.1)">
       <use xlink:href="#DejaVuSans-30"/>
      </g>
     </g>
    </g>
    <g id="ytick_2">
     <g id="line2d_10">
      <g>
       <use xlink:href="#m9744787c98" x="57.6" y="255.168" style="stroke: #000000; stroke-width: 0.8"/>
      </g>
     </g>
     <g id="text_11">
      <!-- 2 -->
      <g transform="translate(44.2375 258.967219) scale(0.1 -0.1)">
       <use xlink:href="#DejaVuSans-32"/>
      </g>
     </g>
    </g>
    <g id="ytick_3">
     <g id="line2d_11">
      <g>
       <use xlink:href="#m9744787c98" x="57.6" y="214.848" style="stroke: #000000; stroke-width: 0.8"/>
      </g>
     </g>
     <g id="text_12">
      <!-- 4 -->
      <g transform="translate(44.2375 218.647219) scale(0.1 -0.1)">
       <defs>
        <path id="DejaVuSans-34" d="M 2419 4116 
L 825 1625 
L 2419 1625 
L 2419 4116 
z
M 2253 4666 
L 3047 4666 
L 3047 1625 
L 3713 1625 
L 3713 1100 
L 3047 1100 
L 3047 0 
L 2419 0 
L 2419 1100 
L 313 1100 
L 313 1709 
L 2253 4666 
z
" transform="scale(0.015625)"/>
       </defs>
       <use xlink:href="#DejaVuSans-34"/>
      </g>
     </g>
    </g>
    <g id="ytick_4">
     <g id="line2d_12">
      <g>
       <use xlink:href="#m9744787c98" x="57.6" y="174.528" style="stroke: #000000; stroke-width: 0.8"/>
      </g>
     </g>
     <g id="text_13">
      <!-- 6 -->
      <g transform="translate(44.2375 178.327219) scale(0.1 -0.1)">
       <use xlink:href="#DejaVuSans-36"/>
      </g>
     </g>
    </g>
    <g id="ytick_5">
     <g id="line2d_13">
      <g>
       <use xlink:href="#m9744787c98" x="57.6" y="134.208" style="stroke: #000000; stroke-width: 0.8"/>
      </g>
     </g>
     <g id="text_14">
      <!-- 8 -->
      <g transform="translate(44.2375 138.007219) scale(0.1 -0.1)">
       <defs>
        <path id="DejaVuSans-38" d="M 2034 2216 
Q 1584 2216 1326 1975 
Q 1069 1734 1069 1313 
Q 1069 891 1326 650 
Q 1584 409 2034 409 
Q 2484 409 2743 651 
Q 3003 894 3003 1313 
Q 3003 1734 2745 1975 
Q 2488 2216 2034 2216 
z
M 1403 2484 
Q 997 2584 770 2862 
Q 544 3141 544 3541 
Q 544 4100 942 4425 
Q 1341 4750 2034 4750 
Q 2731 4750 3128 4425 
Q 3525 4100 3525 3541 
Q 3525 3141 3298 2862 
Q 3072 2584 2669 2484 
Q 3125 2378 3379 2068 
Q 3634 1759 3634 1313 
Q 3634 634 3220 271 
Q 2806 -91 2034 -91 
Q 1263 -91 848 271 
Q 434 634 434 1313 
Q 434 1759 690 2068 
Q 947 2378 1403 2484 
z
M 1172 3481 
Q 1172 3119 1398 2916 
Q 1625 2713 2034 2713 
Q 2441 2713 2670 2916 
Q 2900 3119 2900 3481 
Q 2900 3844 2670 4047 
Q 2441 4250 2034 4250 
Q 1625 4250 1398 4047 
Q 1172 3844 1172 3481 
z
" transform="scale(0.015625)"/>
       </defs>
       <use xlink:href="#DejaVuSans-38"/>
      </g>
     </g>
    </g>
    <g id="ytick_6">
     <g id="line2d_14">
      <g>
       <use xlink:href="#m9744787c98" x="57.6" y="93.888" style="stroke: #000000; stroke-width: 0.8"/>
      </g>
     </g>
     <g id="text_15">
      <!-- 10 -->
      <g transform="translate(37.875 97.687219) scale(0.1 -0.1)">
       <use xlink:href="#DejaVuSans-31"/>
       <use xlink:href="#DejaVuSans-30" x="63.623047"/>
      </g>
     </g>
    </g>
    <g id="ytick_7">
     <g id="line2d_15">
      <g>
       <use xlink:href="#m9744787c98" x="57.6" y="53.568" style="stroke: #000000; stroke-width: 0.8"/>
      </g>
     </g>
     <g id="text_16">
      <!-- 12 -->
      <g transform="translate(37.875 57.367219) scale(0.1 -0.1)">
       <use xlink:href="#DejaVuSans-31"/>
       <use xlink:href="#DejaVuSans-32" x="63.623047"/>
      </g>
     </g>
    </g>
   </g>
   <g id="line2d_16">
    <path d="M 73.832727 275.328 
L 74.469036 235.008 
L 74.493685 295.488 
L 75.112649 255.168 
L 75.156469 295.488 
L 75.748045 255.168 
L 75.754435 295.488 
L 76.389831 255.168 
L 76.416306 295.488 
L 77.031618 255.168 
L 77.052615 295.488 
L 77.674318 255.168 
L 77.714486 295.488 
L 78.321582 255.168 
L 78.343492 295.488 
L 78.635628 275.328 
L 78.98254 295.488 
L 84.504826 275.328 
L 84.586989 214.848 
L 84.832566 194.688 
L 84.859041 174.528 
L 84.872735 295.488 
L 85.134744 275.328 
L 85.162132 255.168 
L 85.175826 295.488 
L 85.422316 275.328 
L 85.448791 255.168 
L 85.46431 295.488 
L 85.707148 275.328 
L 85.734536 255.168 
L 85.750056 295.488 
L 85.9792 275.328 
L 86.011153 255.168 
L 86.021195 295.488 
L 86.30055 275.328 
L 86.312418 295.488 
L 86.938685 255.168 
L 86.992548 295.488 
L 87.585036 255.168 
L 87.593252 295.488 
L 88.226823 255.168 
L 88.26334 295.488 
L 88.864958 255.168 
L 88.872261 295.488 
L 89.497615 255.168 
L 89.544174 295.488 
L 90.131185 255.168 
L 90.145792 295.488 
L 90.766581 255.168 
L 90.777536 295.488 
L 91.403803 255.168 
L 91.464969 295.488 
L 92.048329 255.168 
L 92.073891 295.488 
L 92.678247 255.168 
L 92.743065 295.488 
L 93.314556 255.168 
L 93.379374 295.488 
L 93.947214 255.168 
L 93.974601 295.488 
L 94.591739 255.168 
L 94.650166 295.488 
L 95.2317 255.168 
L 95.258174 295.488 
L 95.872573 255.168 
L 95.903613 295.488 
L 96.510708 255.168 
L 96.539922 295.488 
L 97.148843 255.168 
L 97.191751 295.488 
L 97.783326 255.168 
L 97.84997 295.488 
L 98.421461 275.328 
L 98.733682 255.168 
L 98.799412 295.488 
L 99.386423 255.168 
L 99.406508 295.488 
L 100.036426 255.168 
L 100.10307 295.488 
L 100.672735 255.168 
L 100.705601 295.488 
L 101.318174 275.328 
L 101.640436 255.168 
L 101.687908 295.488 
L 102.266703 255.168 
L 102.316914 295.488 
L 102.904838 255.168 
L 102.918532 295.488 
L 103.552102 255.168 
L 103.582229 295.488 
L 104.192976 255.168 
L 104.203018 295.488 
L 104.835675 255.168 
L 104.85576 295.488 
L 105.472897 255.168 
L 105.512153 295.488 
L 106.112858 255.168 
L 106.13842 295.488 
L 106.758296 255.168 
L 106.766513 295.488 
L 107.400083 255.168 
L 107.454858 295.488 
L 108.033653 255.168 
L 108.065605 295.488 
L 108.672701 255.168 
L 108.718347 295.488 
L 109.303532 255.168 
L 109.334572 295.488 
L 109.941667 255.168 
L 109.957187 295.488 
L 110.586193 255.168 
L 110.620884 275.328 
L 111.489989 255.168 
L 111.591324 295.488 
L 111.945539 255.168 
L 112.623842 194.688 
L 112.647578 295.488 
L 113.523074 214.848 
L 113.550462 295.488 
L 114.21781 235.008 
L 114.437825 295.488 
L 114.446954 275.328 
L 115.36627 194.688 
L 115.427436 295.488 
L 126.549607 275.328 
L 127.236127 214.848 
L 127.289989 295.488 
L 128.082409 194.688 
L 128.157269 93.888 
L 128.175527 295.488 
L 128.523352 275.328 
L 128.56352 214.848 
L 128.578127 295.488 
L 128.930516 275.328 
L 128.966121 214.848 
L 128.986205 295.488 
L 129.355027 275.328 
L 129.396108 214.848 
L 129.41528 295.488 
L 129.742107 275.328 
L 129.783189 214.848 
L 129.79597 295.488 
L 130.165705 275.328 
L 130.206786 214.848 
L 130.22048 295.488 
L 130.569218 275.328 
L 130.610299 214.848 
L 130.623993 295.488 
L 130.994641 275.328 
L 131.035723 214.848 
L 131.049416 295.488 
L 131.418238 275.328 
L 131.450191 235.008 
L 131.473927 295.488 
L 131.565219 275.328 
L 131.866485 255.168 
L 131.917608 295.488 
L 132.015292 275.328 
L 132.246262 255.168 
L 132.343032 295.488 
L 132.697247 255.168 
L 132.92913 235.008 
L 132.973863 295.488 
L 133.61565 235.008 
L 133.839317 295.488 
L 133.842968 275.328 
L 134.745851 194.688 
L 134.788759 295.488 
L 135.42872 235.008 
L 135.654212 214.848 
L 135.657864 295.488 
L 136.559834 214.848 
L 136.569877 295.488 
L 137.466369 214.848 
L 137.504712 295.488 
L 138.154715 235.008 
L 138.382034 214.848 
L 138.438635 295.488 
L 138.83667 255.168 
L 139.295872 214.848 
L 139.306827 295.488 
L 140.206059 214.848 
L 140.215188 295.488 
L 141.117158 214.848 
L 141.161891 295.488 
L 141.806417 235.008 
L 142.032822 214.848 
L 142.046516 295.488 
L 142.722081 235.008 
L 142.947574 295.488 
L 148.427865 275.328 
L 149.341703 194.688 
L 149.35631 295.488 
L 149.799079 255.168 
L 149.867549 174.528 
L 150.201679 154.368 
L 150.241848 93.888 
L 150.256455 295.488 
L 150.639883 275.328 
L 150.680965 214.848 
L 150.694659 295.488 
L 151.040658 275.328 
L 151.058916 255.168 
L 151.09452 295.488 
L 166.263689 275.328 
L 166.411583 255.168 
L 166.467272 174.528 
L 166.818748 154.368 
L 166.85983 93.888 
L 166.872611 295.488 
L 167.228652 275.328 
L 167.256039 235.008 
L 167.283427 295.488 
L 167.633991 275.328 
L 167.697895 295.488 
L 177.218795 275.328 
L 177.366689 255.168 
L 177.447939 134.208 
L 177.809457 114.048 
L 177.849626 53.568 
L 177.864233 295.488 
L 178.178279 275.328 
L 178.214796 214.848 
L 178.233055 295.488 
L 178.581792 275.328 
L 178.622874 214.848 
L 178.641133 295.488 
L 178.97435 275.328 
L 179.015432 214.848 
L 179.030039 295.488 
L 179.404338 275.328 
L 179.44542 214.848 
L 179.459114 295.488 
L 179.790506 275.328 
L 179.831587 214.848 
L 179.846194 295.488 
L 180.2351 275.328 
L 180.276182 214.848 
L 180.290789 295.488 
L 180.655959 275.328 
L 180.697041 214.848 
L 180.711647 295.488 
L 181.060385 275.328 
L 181.078643 255.168 
L 181.115161 295.488 
L 181.521412 255.168 
L 181.527803 295.488 
L 181.970572 255.168 
L 181.98883 295.488 
L 182.875281 214.848 
L 182.87802 295.488 
L 183.562714 235.008 
L 186.953319 214.848 
L 186.980706 174.528 
L 187.372351 154.368 
L 187.413433 93.888 
L 187.427127 295.488 
L 187.79321 275.328 
L 187.835205 214.848 
L 187.848899 295.488 
L 188.212243 275.328 
L 188.253325 214.848 
L 188.266105 295.488 
L 188.613017 275.328 
L 188.654099 214.848 
L 188.66688 295.488 
L 188.991881 275.328 
L 189.032963 214.848 
L 189.046657 295.488 
L 189.411827 275.328 
L 189.460212 235.008 
L 189.467515 295.488 
L 189.780649 275.328 
L 189.844554 295.488 
L 189.916675 275.328 
L 191.03227 255.168 
L 191.112607 295.488 
L 191.675882 255.168 
L 191.708747 295.488 
L 192.311278 255.168 
L 192.369705 295.488 
L 192.635367 275.328 
L 192.990495 295.488 
L 193.911636 235.008 
L 193.947241 295.488 
L 194.551597 255.168 
L 194.591766 295.488 
L 195.191558 255.168 
L 195.216207 295.488 
L 195.826954 255.168 
L 195.869861 295.488 
L 196.460524 255.168 
L 196.528994 295.488 
L 197.092269 255.168 
L 197.127873 295.488 
L 197.73862 255.168 
L 197.753227 295.488 
L 198.374929 255.168 
L 198.38771 295.488 
L 199.011238 255.168 
L 199.0368 295.488 
L 210.285867 275.328 
L 210.488537 255.168 
L 210.606304 214.848 
L 210.651037 295.488 
L 210.869226 275.328 
L 210.896614 255.168 
L 210.910308 295.488 
L 211.146756 275.328 
L 211.174144 255.168 
L 211.18875 295.488 
L 211.459889 275.328 
L 211.487277 255.168 
L 211.501884 295.488 
L 211.731941 275.328 
L 211.759329 255.168 
L 211.773936 295.488 
L 212.010383 275.328 
L 212.036858 255.168 
L 212.051465 295.488 
L 212.309823 275.328 
L 212.339036 255.168 
L 212.351817 295.488 
L 212.610175 275.328 
L 212.646692 295.488 
L 212.693252 275.328 
L 212.939741 295.488 
L 213.003646 275.328 
L 213.231878 295.488 
L 213.314954 275.328 
L 213.636304 255.168 
L 213.680124 295.488 
L 214.267135 255.168 
L 214.326475 295.488 
L 214.900705 255.168 
L 214.951829 295.488 
L 215.543405 255.168 
L 215.579009 295.488 
L 216.186104 255.168 
L 216.231751 295.488 
L 216.837933 255.168 
L 216.867147 295.488 
L 217.476068 255.168 
L 217.505282 295.488 
L 218.122419 255.168 
L 218.131548 295.488 
L 218.765119 255.168 
L 218.810765 295.488 
L 219.405992 255.168 
L 219.454377 295.488 
L 220.051431 255.168 
L 220.098903 295.488 
L 220.695043 255.168 
L 220.716953 295.488 
L 221.347785 255.168 
L 221.357827 295.488 
L 221.995049 255.168 
L 222.063518 295.488 
L 222.618577 255.168 
L 222.679743 295.488 
L 223.259451 255.168 
L 223.293229 295.488 
L 223.891195 255.168 
L 223.946883 295.488 
L 224.212545 275.328 
L 224.53572 295.488 
L 224.539372 275.328 
L 224.863461 255.168 
L 225.208546 295.488 
L 236.139916 275.328 
L 236.780789 235.008 
L 236.805438 295.488 
L 237.412534 255.168 
L 237.447225 295.488 
L 237.502 255.168 
L 237.529388 235.008 
L 237.78592 214.848 
L 237.813308 194.688 
L 237.827002 295.488 
L 238.048843 275.328 
L 238.076231 255.168 
L 238.090837 295.488 
L 238.309939 275.328 
L 238.337327 255.168 
L 238.355586 295.488 
L 238.587469 275.328 
L 238.614857 255.168 
L 238.633115 295.488 
L 238.875953 275.328 
L 238.898776 235.008 
L 238.917035 275.328 
L 239.135224 255.168 
L 239.168089 194.688 
L 239.197303 275.328 
L 239.234733 255.168 
L 239.242036 295.488 
L 239.256643 255.168 
L 239.640985 235.008 
L 239.672937 174.528 
L 239.698499 295.488 
L 240.044498 275.328 
L 240.07645 214.848 
L 240.102925 295.488 
L 240.440707 275.328 
L 240.473573 214.848 
L 240.498222 295.488 
L 240.868869 275.328 
L 240.901735 214.848 
L 240.925471 295.488 
L 241.307074 275.328 
L 241.329897 235.008 
L 241.364588 295.488 
L 241.4714 275.328 
L 241.769014 255.168 
L 241.783621 235.008 
L 241.825615 295.488 
L 241.857568 275.328 
L 242.147878 255.168 
L 242.211783 295.488 
L 242.222738 275.328 
L 242.585169 235.008 
L 242.620773 295.488 
L 242.955817 255.168 
L 243.058065 295.488 
L 243.330116 255.168 
L 243.691635 214.848 
L 243.791144 295.488 
L 243.87422 275.328 
L 244.424714 214.848 
L 244.512355 295.488 
L 244.792623 255.168 
L 245.159619 214.848 
L 245.264605 295.488 
L 245.344943 275.328 
L 245.894524 214.848 
L 245.980339 295.488 
L 246.265172 255.168 
L 246.633994 214.848 
L 246.735328 295.488 
L 246.817492 275.328 
L 247.36616 214.848 
L 247.521357 295.488 
L 247.547832 275.328 
L 248.101978 214.848 
L 248.216093 295.488 
L 248.285476 275.328 
L 248.830492 214.848 
L 248.945521 295.488 
L 249.015816 275.328 
L 249.562658 214.848 
L 249.680426 295.488 
L 249.742505 275.328 
L 250.287521 214.848 
L 250.426286 295.488 
L 250.471019 275.328 
L 251.019687 214.848 
L 251.135629 295.488 
L 251.204098 275.328 
L 251.754592 214.848 
L 251.858666 295.488 
L 251.934439 275.328 
L 252.483107 214.848 
L 252.613655 295.488 
L 252.664779 275.328 
L 253.20797 214.848 
L 253.358602 295.488 
L 253.394206 275.328 
L 253.945613 214.848 
L 254.070684 295.488 
L 254.130024 275.328 
L 254.67778 214.848 
L 254.767246 295.488 
L 255.043863 255.168 
L 255.409033 214.848 
L 255.519497 295.488 
L 255.592531 275.328 
L 256.136635 214.848 
L 256.279964 295.488 
L 256.322871 275.328 
L 256.865149 214.848 
L 256.985655 295.488 
L 257.046821 275.328 
L 257.591838 214.848 
L 257.674001 295.488 
L 257.952443 255.168 
L 258.3167 214.848 
L 258.476462 295.488 
L 258.49746 275.328 
L 259.044302 214.848 
L 259.181241 295.488 
L 259.224148 275.328 
L 259.776468 214.848 
L 259.901539 295.488 
L 259.960879 275.328 
L 260.509547 214.848 
L 260.645573 295.488 
L 260.687568 275.328 
L 261.236236 214.848 
L 261.391433 295.488 
L 261.415169 275.328 
L 261.969315 214.848 
L 262.067911 295.488 
L 262.340876 255.168 
L 262.705133 214.848 
L 262.80099 295.488 
L 262.887718 275.328 
L 263.440951 214.848 
L 263.555067 295.488 
L 263.625362 275.328 
L 264.180421 214.848 
L 264.307317 295.488 
L 264.362093 275.328 
L 264.908022 214.848 
L 265.026702 295.488 
L 265.089694 275.328 
L 265.634711 214.848 
L 265.730568 295.488 
L 265.817296 275.328 
L 266.358661 214.848 
L 266.493774 295.488 
L 266.538507 275.328 
L 267.092653 214.848 
L 267.215898 295.488 
L 267.277064 275.328 
L 267.819341 214.848 
L 267.939848 295.488 
L 267.999188 275.328 
L 268.54603 214.848 
L 268.693924 295.488 
L 268.730441 275.328 
L 279.869957 255.168 
L 280.771928 154.368 
L 282.663509 134.208 
L 282.695461 73.728 
L 282.721936 295.488 
L 283.036896 275.328 
L 283.068848 214.848 
L 283.095323 295.488 
L 283.420324 275.328 
L 283.45319 214.848 
L 283.478751 295.488 
L 283.832054 275.328 
L 283.864006 214.848 
L 283.889568 295.488 
L 284.254738 275.328 
L 284.287603 214.848 
L 284.313165 295.488 
L 284.659164 275.328 
L 284.692029 214.848 
L 284.721243 295.488 
L 285.027073 275.328 
L 285.059938 214.848 
L 285.090065 295.488 
L 285.453409 275.328 
L 285.486275 214.848 
L 285.510924 295.488 
L 285.876094 275.328 
L 285.908959 214.848 
L 285.933608 295.488 
L 286.265913 275.328 
L 286.298778 214.848 
L 286.323427 295.488 
L 286.70503 275.328 
L 286.737895 214.848 
L 286.763457 295.488 
L 294.61279 275.328 
L 294.645655 214.848 
L 295.040039 194.688 
L 295.072905 134.208 
L 295.097554 295.488 
L 295.459985 275.328 
L 295.49285 214.848 
L 295.517499 295.488 
L 295.857108 275.328 
L 295.889973 214.848 
L 295.915535 295.488 
L 296.277053 275.328 
L 296.309919 214.848 
L 296.33548 295.488 
L 296.686044 275.328 
L 296.718909 214.848 
L 296.742645 295.488 
L 297.095947 275.328 
L 297.128813 214.848 
L 297.153462 295.488 
L 297.484854 275.328 
L 297.517719 214.848 
L 297.541455 295.488 
L 297.913929 275.328 
L 297.946794 214.848 
L 297.971443 295.488 
L 298.331135 275.328 
L 298.363088 214.848 
L 298.38865 295.488 
L 298.7383 275.328 
L 298.770253 214.848 
L 298.796727 295.488 
L 299.149117 275.328 
L 299.181982 214.848 
L 299.207544 295.488 
L 299.547152 275.328 
L 299.580017 214.848 
L 299.604666 295.488 
L 299.940623 275.328 
L 299.973488 214.848 
L 299.99905 295.488 
L 300.332268 275.328 
L 300.365133 214.848 
L 300.390695 295.488 
L 300.754953 275.328 
L 300.787818 214.848 
L 300.81338 295.488 
L 301.215067 275.328 
L 301.247932 214.848 
L 301.272581 295.488 
L 301.593018 275.328 
L 301.625883 214.848 
L 301.650532 295.488 
L 301.96823 275.328 
L 302.001096 214.848 
L 302.025745 295.488 
L 302.343443 275.328 
L 302.376308 214.848 
L 302.400044 295.488 
L 302.74513 275.328 
L 302.777995 214.848 
L 302.802644 295.488 
L 303.155034 275.328 
L 303.187899 214.848 
L 303.213461 295.488 
L 303.544853 275.328 
L 303.577718 214.848 
L 303.60328 295.488 
L 303.953843 275.328 
L 303.985796 214.848 
L 304.011358 295.488 
L 304.341837 275.328 
L 304.375615 214.848 
L 304.400264 295.488 
L 304.738046 275.328 
L 304.771824 214.848 
L 304.795561 295.488 
L 305.148863 275.328 
L 305.181728 214.848 
L 305.206377 275.328 
L 305.580676 255.168 
L 305.591632 235.008 
L 305.986015 214.848 
L 306.013403 194.688 
L 306.04992 235.008 
L 306.181381 295.488 
L 306.203292 275.328 
L 306.460737 255.168 
L 306.488124 235.008 
L 306.501818 295.488 
L 306.752873 275.328 
L 306.793954 295.488 
L 307.031315 255.168 
L 307.067832 295.488 
L 318.274905 275.328 
L 318.588038 255.168 
L 318.634597 295.488 
L 319.234389 255.168 
L 319.243519 295.488 
L 319.551174 275.328 
L 319.872524 194.688 
L 319.887131 295.488 
L 320.14275 275.328 
L 320.170138 255.168 
L 320.184745 295.488 
L 320.451319 275.328 
L 320.478707 255.168 
L 320.492401 295.488 
L 320.727935 275.328 
L 320.75441 255.168 
L 320.773582 295.488 
L 320.992684 275.328 
L 321.020071 255.168 
L 321.03833 295.488 
L 321.280255 275.328 
L 321.307643 255.168 
L 321.321337 295.488 
L 321.56874 275.328 
L 321.596127 255.168 
L 321.609821 295.488 
L 321.873657 275.328 
L 321.901045 255.168 
L 321.915651 295.488 
L 322.189529 275.328 
L 322.216917 255.168 
L 322.230611 295.488 
L 322.499924 275.328 
L 322.527311 255.168 
L 322.541005 295.488 
L 322.807579 275.328 
L 322.834967 255.168 
L 322.848661 295.488 
L 323.110671 275.328 
L 323.138058 255.168 
L 323.152665 295.488 
L 323.405546 275.328 
L 323.437498 255.168 
L 323.44754 295.488 
L 323.697682 275.328 
L 323.735112 295.488 
L 323.94691 275.328 
L 324.034551 295.488 
L 324.267347 275.328 
L 324.310255 295.488 
L 324.904569 255.168 
L 324.943825 295.488 
L 325.536314 255.168 
L 325.573744 295.488 
L 326.17171 255.168 
L 326.229224 295.488 
L 326.807106 255.168 
L 326.860968 295.488 
L 327.446154 255.168 
L 327.486322 295.488 
L 328.088853 255.168 
L 328.128109 295.488 
L 328.726988 255.168 
L 328.780851 295.488 
L 329.374252 255.168 
L 329.390685 295.488 
L 330.015126 255.168 
L 330.06625 295.488 
L 330.666955 255.168 
L 330.683387 295.488 
L 331.307828 255.168 
L 331.319696 295.488 
L 331.948702 255.168 
L 332.005303 295.488 
L 332.58775 255.168 
L 332.61605 295.488 
L 333.233188 255.168 
L 333.253272 295.488 
L 333.862194 255.168 
L 333.874062 295.488 
L 334.504893 255.168 
L 334.521326 295.488 
L 335.153983 255.168 
L 335.1905 295.488 
L 335.790292 255.168 
L 335.804899 295.488 
L 336.438469 255.168 
L 336.449424 295.488 
L 337.080256 255.168 
L 337.121337 295.488 
L 337.722042 275.328 
L 338.040653 255.168 
L 338.076257 295.488 
L 338.363829 275.328 
L 338.728086 295.488 
L 356.58856 275.328 
L 356.909909 255.168 
L 357.234911 295.488 
L 357.235824 275.328 
L 357.879436 235.008 
L 357.901346 295.488 
L 358.519397 255.168 
L 358.550436 295.488 
L 359.162096 255.168 
L 359.183094 295.488 
L 359.804796 255.168 
L 359.827619 275.328 
L 361.096585 255.168 
L 361.19792 295.488 
L 361.551222 255.168 
L 362.245046 194.688 
L 362.279737 295.488 
L 363.157971 214.848 
L 363.233744 295.488 
L 363.618085 255.168 
L 364.070897 214.848 
L 364.108326 295.488 
L 364.762894 235.008 
L 364.99569 214.848 
L 365.00208 295.488 
L 365.917745 214.848 
L 365.939655 295.488 
L 366.604265 235.008 
L 366.813325 295.488 
L 366.831583 275.328 
L 367.751812 194.688 
L 367.76368 295.488 
L 368.208275 255.168 
L 368.651043 295.488 
L 368.658347 275.328 
L 369.787636 174.528 
L 369.806807 295.488 
L 370.695084 214.848 
L 370.71882 295.488 
L 371.597967 214.848 
L 371.660046 295.488 
L 372.048039 255.168 
L 372.503589 214.848 
L 372.519109 295.488 
L 372.964616 275.328 
L 373.652049 214.848 
L 373.681263 295.488 
L 374.561323 214.848 
L 374.599666 295.488 
L 375.248756 235.008 
L 375.481552 214.848 
L 375.502549 295.488 
L 376.387174 214.848 
L 376.397216 295.488 
L 377.298273 214.848 
L 377.33479 295.488 
L 377.978403 235.008 
L 378.203895 214.848 
L 378.216676 295.488 
L 378.891328 235.008 
L 379.113169 295.488 
L 379.120472 275.328 
L 380.029746 194.688 
L 380.052569 295.488 
L 380.936281 214.848 
L 380.983753 295.488 
L 381.617323 235.008 
L 381.844642 214.848 
L 381.865639 295.488 
L 382.766697 214.848 
L 382.785868 295.488 
L 383.680535 214.848 
L 383.728007 295.488 
L 384.36249 235.008 
L 384.58707 214.848 
L 384.595286 295.488 
L 385.492692 214.848 
L 385.530122 295.488 
L 386.179212 235.008 
L 386.403792 214.848 
L 386.427528 295.488 
L 387.088486 235.008 
L 387.309414 295.488 
L 387.32402 275.328 
L 388.249727 194.688 
L 388.260682 295.488 
L 389.17452 214.848 
L 389.195518 295.488 
L 390.080142 214.848 
L 390.123963 295.488 
L 390.760272 235.008 
L 390.994894 214.848 
L 391.030498 295.488 
L 391.906906 214.848 
L 391.916035 295.488 
L 392.589774 235.008 
L 392.807964 295.488 
L 392.818006 275.328 
L 393.501787 214.848 
L 398.487273 295.488 
L 398.487273 295.488 
" clip-path="url(#p9920c30cf9)" style="fill: none; stroke: #1f77b4; stroke-width: 1.5; stroke-linecap: square"/>
   </g>
   <g id="patch_3">
    <path d="M 57.6 307.584 
L 57.6 41.472 
" style="fill: none; stroke: #000000; stroke-width: 0.8; stroke-linejoin: miter; stroke-linecap: square"/>
   </g>
   <g id="patch_4">
    <path d="M 414.72 307.584 
L 414.72 41.472 
" style="fill: none; stroke: #000000; stroke-width: 0.8; stroke-linejoin: miter; stroke-linecap: square"/>
   </g>
   <g id="patch_5">
    <path d="M 57.6 307.584 
L 414.72 307.584 
" style="fill: none; stroke: #000000; stroke-width: 0.8; stroke-linejoin: miter; stroke-linecap: square"/>
   </g>
   <g id="patch_6">
    <path d="M 57.6 41.472 
L 414.72 41.472 
" style="fill: none; stroke: #000000; stroke-width: 0.8; stroke-linejoin: miter; stroke-linecap: square"/>
   </g>
   <g id="text_17">
    <!-- Queue size (y-axis) between S6 and sensors that follow at a time (x-axis). -->
    <g transform="translate(14.282813 35.472) scale(0.12 -0.12)">
     <defs>
      <path id="DejaVuSans-51" d="M 2522 4238 
Q 1834 4238 1429 3725 
Q 1025 3213 1025 2328 
Q 1025 1447 1429 934 
Q 1834 422 2522 422 
Q 3209 422 3611 934 
Q 4013 1447 4013 2328 
Q 4013 3213 3611 3725 
Q 3209 4238 2522 4238 
z
M 3406 84 
L 4238 -825 
L 3475 -825 
L 2784 -78 
Q 2681 -84 2626 -87 
Q 2572 -91 2522 -91 
Q 1538 -91 948 567 
Q 359 1225 359 2328 
Q 359 3434 948 4092 
Q 1538 4750 2522 4750 
Q 3503 4750 4090 4092 
Q 4678 3434 4678 2328 
Q 4678 1516 4351 937 
Q 4025 359 3406 84 
z
" transform="scale(0.015625)"/>
      <path id="DejaVuSans-75" d="M 544 1381 
L 544 3500 
L 1119 3500 
L 1119 1403 
Q 1119 906 1312 657 
Q 1506 409 1894 409 
Q 2359 409 2629 706 
Q 2900 1003 2900 1516 
L 2900 3500 
L 3475 3500 
L 3475 0 
L 2900 0 
L 2900 538 
Q 2691 219 2414 64 
Q 2138 -91 1772 -91 
Q 1169 -91 856 284 
Q 544 659 544 1381 
z
M 1991 3584 
L 1991 3584 
z
" transform="scale(0.015625)"/>
      <path id="DejaVuSans-20" transform="scale(0.015625)"/>
      <path id="DejaVuSans-73" d="M 2834 3397 
L 2834 2853 
Q 2591 2978 2328 3040 
Q 2066 3103 1784 3103 
Q 1356 3103 1142 2972 
Q 928 2841 928 2578 
Q 928 2378 1081 2264 
Q 1234 2150 1697 2047 
L 1894 2003 
Q 2506 1872 2764 1633 
Q 3022 1394 3022 966 
Q 3022 478 2636 193 
Q 2250 -91 1575 -91 
Q 1294 -91 989 -36 
Q 684 19 347 128 
L 347 722 
Q 666 556 975 473 
Q 1284 391 1588 391 
Q 1994 391 2212 530 
Q 2431 669 2431 922 
Q 2431 1156 2273 1281 
Q 2116 1406 1581 1522 
L 1381 1569 
Q 847 1681 609 1914 
Q 372 2147 372 2553 
Q 372 3047 722 3315 
Q 1072 3584 1716 3584 
Q 2034 3584 2315 3537 
Q 2597 3491 2834 3397 
z
" transform="scale(0.015625)"/>
      <path id="DejaVuSans-69" d="M 603 3500 
L 1178 3500 
L 1178 0 
L 603 0 
L 603 3500 
z
M 603 4863 
L 1178 4863 
L 1178 4134 
L 603 4134 
L 603 4863 
z
" transform="scale(0.015625)"/>
      <path id="DejaVuSans-7a" d="M 353 3500 
L 3084 3500 
L 3084 2975 
L 922 459 
L 3084 459 
L 3084 0 
L 275 0 
L 275 525 
L 2438 3041 
L 353 3041 
L 353 3500 
z
" transform="scale(0.015625)"/>
      <path id="DejaVuSans-28" d="M 1984 4856 
Q 1566 4138 1362 3434 
Q 1159 2731 1159 2009 
Q 1159 1288 1364 580 
Q 1569 -128 1984 -844 
L 1484 -844 
Q 1016 -109 783 600 
Q 550 1309 550 2009 
Q 550 2706 781 3412 
Q 1013 4119 1484 4856 
L 1984 4856 
z
" transform="scale(0.015625)"/>
      <path id="DejaVuSans-79" d="M 2059 -325 
Q 1816 -950 1584 -1140 
Q 1353 -1331 966 -1331 
L 506 -1331 
L 506 -850 
L 844 -850 
Q 1081 -850 1212 -737 
Q 1344 -625 1503 -206 
L 1606 56 
L 191 3500 
L 800 3500 
L 1894 763 
L 2988 3500 
L 3597 3500 
L 2059 -325 
z
" transform="scale(0.015625)"/>
      <path id="DejaVuSans-2d" d="M 313 2009 
L 1997 2009 
L 1997 1497 
L 313 1497 
L 313 2009 
z
" transform="scale(0.015625)"/>
      <path id="DejaVuSans-61" d="M 2194 1759 
Q 1497 1759 1228 1600 
Q 959 1441 959 1056 
Q 959 750 1161 570 
Q 1363 391 1709 391 
Q 2188 391 2477 730 
Q 2766 1069 2766 1631 
L 2766 1759 
L 2194 1759 
z
M 3341 1997 
L 3341 0 
L 2766 0 
L 2766 531 
Q 2569 213 2275 61 
Q 1981 -91 1556 -91 
Q 1019 -91 701 211 
Q 384 513 384 1019 
Q 384 1609 779 1909 
Q 1175 2209 1959 2209 
L 2766 2209 
L 2766 2266 
Q 2766 2663 2505 2880 
Q 2244 3097 1772 3097 
Q 1472 3097 1187 3025 
Q 903 2953 641 2809 
L 641 3341 
Q 956 3463 1253 3523 
Q 1550 3584 1831 3584 
Q 2591 3584 2966 3190 
Q 3341 2797 3341 1997 
z
" transform="scale(0.015625)"/>
      <path id="DejaVuSans-78" d="M 3513 3500 
L 2247 1797 
L 3578 0 
L 2900 0 
L 1881 1375 
L 863 0 
L 184 0 
L 1544 1831 
L 300 3500 
L 978 3500 
L 1906 2253 
L 2834 3500 
L 3513 3500 
z
" transform="scale(0.015625)"/>
      <path id="DejaVuSans-29" d="M 513 4856 
L 1013 4856 
Q 1481 4119 1714 3412 
Q 1947 2706 1947 2009 
Q 1947 1309 1714 600 
Q 1481 -109 1013 -844 
L 513 -844 
Q 928 -128 1133 580 
Q 1338 1288 1338 2009 
Q 1338 2731 1133 3434 
Q 928 4138 513 4856 
z
" transform="scale(0.015625)"/>
      <path id="DejaVuSans-62" d="M 3116 1747 
Q 3116 2381 2855 2742 
Q 2594 3103 2138 3103 
Q 1681 3103 1420 2742 
Q 1159 2381 1159 1747 
Q 1159 1113 1420 752 
Q 1681 391 2138 391 
Q 2594 391 2855 752 
Q 3116 1113 3116 1747 
z
M 1159 2969 
Q 1341 3281 1617 3432 
Q 1894 3584 2278 3584 
Q 2916 3584 3314 3078 
Q 3713 2572 3713 1747 
Q 3713 922 3314 415 
Q 2916 -91 2278 -91 
Q 1894 -91 1617 61 
Q 1341 213 1159 525 
L 1159 0 
L 581 0 
L 581 4863 
L 1159 4863 
L 1159 2969 
z
" transform="scale(0.015625)"/>
      <path id="DejaVuSans-74" d="M 1172 4494 
L 1172 3500 
L 2356 3500 
L 2356 3053 
L 1172 3053 
L 1172 1153 
Q 1172 725 1289 603 
Q 1406 481 1766 481 
L 2356 481 
L 2356 0 
L 1766 0 
Q 1100 0 847 248 
Q 594 497 594 1153 
L 594 3053 
L 172 3053 
L 172 3500 
L 594 3500 
L 594 4494 
L 1172 4494 
z
" transform="scale(0.015625)"/>
      <path id="DejaVuSans-77" d="M 269 3500 
L 844 3500 
L 1563 769 
L 2278 3500 
L 2956 3500 
L 3675 769 
L 4391 3500 
L 4966 3500 
L 4050 0 
L 3372 0 
L 2619 2869 
L 1863 0 
L 1184 0 
L 269 3500 
z
" transform="scale(0.015625)"/>
      <path id="DejaVuSans-6e" d="M 3513 2113 
L 3513 0 
L 2938 0 
L 2938 2094 
Q 2938 2591 2744 2837 
Q 2550 3084 2163 3084 
Q 1697 3084 1428 2787 
Q 1159 2491 1159 1978 
L 1159 0 
L 581 0 
L 581 3500 
L 1159 3500 
L 1159 2956 
Q 1366 3272 1645 3428 
Q 1925 3584 2291 3584 
Q 2894 3584 3203 3211 
Q 3513 2838 3513 2113 
z
" transform="scale(0.015625)"/>
      <path id="DejaVuSans-53" d="M 3425 4513 
L 3425 3897 
Q 3066 4069 2747 4153 
Q 2428 4238 2131 4238 
Q 1616 4238 1336 4038 
Q 1056 3838 1056 3469 
Q 1056 3159 1242 3001 
Q 1428 2844 1947 2747 
L 2328 2669 
Q 3034 2534 3370 2195 
Q 3706 1856 3706 1288 
Q 3706 609 3251 259 
Q 2797 -91 1919 -91 
Q 1588 -91 1214 -16 
Q 841 59 441 206 
L 441 856 
Q 825 641 1194 531 
Q 1563 422 1919 422 
Q 2459 422 2753 634 
Q 3047 847 3047 1241 
Q 3047 1584 2836 1778 
Q 2625 1972 2144 2069 
L 1759 2144 
Q 1053 2284 737 2584 
Q 422 2884 422 3419 
Q 422 4038 858 4394 
Q 1294 4750 2059 4750 
Q 2388 4750 2728 4690 
Q 3069 4631 3425 4513 
z
" transform="scale(0.015625)"/>
      <path id="DejaVuSans-64" d="M 2906 2969 
L 2906 4863 
L 3481 4863 
L 3481 0 
L 2906 0 
L 2906 525 
Q 2725 213 2448 61 
Q 2172 -91 1784 -91 
Q 1150 -91 751 415 
Q 353 922 353 1747 
Q 353 2572 751 3078 
Q 1150 3584 1784 3584 
Q 2172 3584 2448 3432 
Q 2725 3281 2906 2969 
z
M 947 1747 
Q 947 1113 1208 752 
Q 1469 391 1925 391 
Q 2381 391 2643 752 
Q 2906 1113 2906 1747 
Q 2906 2381 2643 2742 
Q 2381 3103 1925 3103 
Q 1469 3103 1208 2742 
Q 947 2381 947 1747 
z
" transform="scale(0.015625)"/>
      <path id="DejaVuSans-6f" d="M 1959 3097 
Q 1497 3097 1228 2736 
Q 959 2375 959 1747 
Q 959 1119 1226 758 
Q 1494 397 1959 397 
Q 2419 397 2687 759 
Q 2956 1122 2956 1747 
Q 2956 2369 2687 2733 
Q 2419 3097 1959 3097 
z
M 1959 3584 
Q 2709 3584 3137 3096 
Q 3566 2609 3566 1747 
Q 3566 888 3137 398 
Q 2709 -91 1959 -91 
Q 1206 -91 779 398 
Q 353 888 353 1747 
Q 353 2609 779 3096 
Q 1206 3584 1959 3584 
z
" transform="scale(0.015625)"/>
      <path id="DejaVuSans-72" d="M 2631 2963 
Q 2534 3019 2420 3045 
Q 2306 3072 2169 3072 
Q 1681 3072 1420 2755 
Q 1159 2438 1159 1844 
L 1159 0 
L 581 0 
L 581 3500 
L 1159 3500 
L 1159 2956 
Q 1341 3275 1631 3429 
Q 1922 3584 2338 3584 
Q 2397 3584 2469 3576 
Q 2541 3569 2628 3553 
L 2631 2963 
z
" transform="scale(0.015625)"/>
      <path id="DejaVuSans-68" d="M 3513 2113 
L 3513 0 
L 2938 0 
L 2938 2094 
Q 2938 2591 2744 2837 
Q 2550 3084 2163 3084 
Q 1697 3084 1428 2787 
Q 1159 2491 1159 1978 
L 1159 0 
L 581 0 
L 581 4863 
L 1159 4863 
L 1159 2956 
Q 1366 3272 1645 3428 
Q 1925 3584 2291 3584 
Q 2894 3584 3203 3211 
Q 3513 2838 3513 2113 
z
" transform="scale(0.015625)"/>
      <path id="DejaVuSans-66" d="M 2375 4863 
L 2375 4384 
L 1825 4384 
Q 1516 4384 1395 4259 
Q 1275 4134 1275 3809 
L 1275 3500 
L 2222 3500 
L 2222 3053 
L 1275 3053 
L 1275 0 
L 697 0 
L 697 3053 
L 147 3053 
L 147 3500 
L 697 3500 
L 697 3744 
Q 697 4328 969 4595 
Q 1241 4863 1831 4863 
L 2375 4863 
z
" transform="scale(0.015625)"/>
      <path id="DejaVuSans-6c" d="M 603 4863 
L 1178 4863 
L 1178 0 
L 603 0 
L 603 4863 
z
" transform="scale(0.015625)"/>
      <path id="DejaVuSans-6d" d="M 3328 2828 
Q 3544 3216 3844 3400 
Q 4144 3584 4550 3584 
Q 5097 3584 5394 3201 
Q 5691 2819 5691 2113 
L 5691 0 
L 5113 0 
L 5113 2094 
Q 5113 2597 4934 2840 
Q 4756 3084 4391 3084 
Q 3944 3084 3684 2787 
Q 3425 2491 3425 1978 
L 3425 0 
L 2847 0 
L 2847 2094 
Q 2847 2600 2669 2842 
Q 2491 3084 2119 3084 
Q 1678 3084 1418 2786 
Q 1159 2488 1159 1978 
L 1159 0 
L 581 0 
L 581 3500 
L 1159 3500 
L 1159 2956 
Q 1356 3278 1631 3431 
Q 1906 3584 2284 3584 
Q 2666 3584 2933 3390 
Q 3200 3197 3328 2828 
z
" transform="scale(0.015625)"/>
     </defs>
     <use xlink:href="#DejaVuSans-51"/>
     <use xlink:href="#DejaVuSans-75" x="78.710938"/>
     <use xlink:href="#DejaVuSans-65" x="142.089844"/>
     <use xlink:href="#DejaVuSans-75" x="203.613281"/>
     <use xlink:href="#DejaVuSans-65" x="266.992188"/>
     <use xlink:href="#DejaVuSans-20" x="328.515625"/>
     <use xlink:href="#DejaVuSans-73" x="360.302734"/>
     <use xlink:href="#DejaVuSans-69" x="412.402344"/>
     <use xlink:href="#DejaVuSans-7a" x="440.185547"/>
     <use xlink:href="#DejaVuSans-65" x="492.675781"/>
     <use xlink:href="#DejaVuSans-20" x="554.199219"/>
     <use xlink:href="#DejaVuSans-28" x="585.986328"/>
     <use xlink:href="#DejaVuSans-79" x="625"/>
     <use xlink:href="#DejaVuSans-2d" x="682.429688"/>
     <use xlink:href="#DejaVuSans-61" x="718.513672"/>
     <use xlink:href="#DejaVuSans-78" x="779.792969"/>
     <use xlink:href="#DejaVuSans-69" x="838.972656"/>
     <use xlink:href="#DejaVuSans-73" x="866.755859"/>
     <use xlink:href="#DejaVuSans-29" x="918.855469"/>
     <use xlink:href="#DejaVuSans-20" x="957.869141"/>
     <use xlink:href="#DejaVuSans-62" x="989.65625"/>
     <use xlink:href="#DejaVuSans-65" x="1053.132812"/>
     <use xlink:href="#DejaVuSans-74" x="1114.65625"/>
     <use xlink:href="#DejaVuSans-77" x="1153.865234"/>
     <use xlink:href="#DejaVuSans-65" x="1235.652344"/>
     <use xlink:href="#DejaVuSans-65" x="1297.175781"/>
     <use xlink:href="#DejaVuSans-6e" x="1358.699219"/>
     <use xlink:href="#DejaVuSans-20" x="1422.078125"/>
     <use xlink:href="#DejaVuSans-53" x="1453.865234"/>
     <use xlink:href="#DejaVuSans-36" x="1517.341797"/>
     <use xlink:href="#DejaVuSans-20" x="1580.964844"/>
     <use xlink:href="#DejaVuSans-61" x="1612.751953"/>
     <use xlink:href="#DejaVuSans-6e" x="1674.03125"/>
     <use xlink:href="#DejaVuSans-64" x="1737.410156"/>
     <use xlink:href="#DejaVuSans-20" x="1800.886719"/>
     <use xlink:href="#DejaVuSans-73" x="1832.673828"/>
     <use xlink:href="#DejaVuSans-65" x="1884.773438"/>
     <use xlink:href="#DejaVuSans-6e" x="1946.296875"/>
     <use xlink:href="#DejaVuSans-73" x="2009.675781"/>
     <use xlink:href="#DejaVuSans-6f" x="2061.775391"/>
     <use xlink:href="#DejaVuSans-72" x="2122.957031"/>
     <use xlink:href="#DejaVuSans-73" x="2164.070312"/>
     <use xlink:href="#DejaVuSans-20" x="2216.169922"/>
     <use xlink:href="#DejaVuSans-74" x="2247.957031"/>
     <use xlink:href="#DejaVuSans-68" x="2287.166016"/>
     <use xlink:href="#DejaVuSans-61" x="2350.544922"/>
     <use xlink:href="#DejaVuSans-74" x="2411.824219"/>
     <use xlink:href="#DejaVuSans-20" x="2451.033203"/>
     <use xlink:href="#DejaVuSans-66" x="2482.820312"/>
     <use xlink:href="#DejaVuSans-6f" x="2518.025391"/>
     <use xlink:href="#DejaVuSans-6c" x="2579.207031"/>
     <use xlink:href="#DejaVuSans-6c" x="2606.990234"/>
     <use xlink:href="#DejaVuSans-6f" x="2634.773438"/>
     <use xlink:href="#DejaVuSans-77" x="2695.955078"/>
     <use xlink:href="#DejaVuSans-20" x="2777.742188"/>
     <use xlink:href="#DejaVuSans-61" x="2809.529297"/>
     <use xlink:href="#DejaVuSans-74" x="2870.808594"/>
     <use xlink:href="#DejaVuSans-20" x="2910.017578"/>
     <use xlink:href="#DejaVuSans-61" x="2941.804688"/>
     <use xlink:href="#DejaVuSans-20" x="3003.083984"/>
     <use xlink:href="#DejaVuSans-74" x="3034.871094"/>
     <use xlink:href="#DejaVuSans-69" x="3074.080078"/>
     <use xlink:href="#DejaVuSans-6d" x="3101.863281"/>
     <use xlink:href="#DejaVuSans-65" x="3199.275391"/>
     <use xlink:href="#DejaVuSans-20" x="3260.798828"/>
     <use xlink:href="#DejaVuSans-28" x="3292.585938"/>
     <use xlink:href="#DejaVuSans-78" x="3331.599609"/>
     <use xlink:href="#DejaVuSans-2d" x="3390.779297"/>
     <use xlink:href="#DejaVuSans-61" x="3426.863281"/>
     <use xlink:href="#DejaVuSans-78" x="3488.142578"/>
     <use xlink:href="#DejaVuSans-69" x="3547.322266"/>
     <use xlink:href="#DejaVuSans-73" x="3575.105469"/>
     <use xlink:href="#DejaVuSans-29" x="3627.205078"/>
     <use xlink:href="#DejaVuSans-2e" x="3666.21875"/>
    </g>
   </g>
  </g>
 </g>
 <defs>
  <clipPath id="p9920c30cf9">
   <rect x="57.6" y="41.472" width="357.12" height="266.112"/>
  </clipPath>
 </defs>
</svg>
