<?xml version="1.0" encoding="utf-8" standalone="no"?>
<!DOCTYPE svg PUBLIC "-//W3C//DTD SVG 1.1//EN"
  "http://www.w3.org/Graphics/SVG/1.1/DTD/svg11.dtd">
<svg xmlns:xlink="http://www.w3.org/1999/xlink" width="460.8pt" height="345.6pt" viewBox="0 0 460.8 345.6" xmlns="http://www.w3.org/2000/svg" version="1.1">
 <metadata>
  <rdf:RDF xmlns:dc="http://purl.org/dc/elements/1.1/" xmlns:cc="http://creativecommons.org/ns#" xmlns:rdf="http://www.w3.org/1999/02/22-rdf-syntax-ns#">
   <cc:Work>
    <dc:type rdf:resource="http://purl.org/dc/dcmitype/StillImage"/>
    <dc:date>2024-03-08T12:02:07.236031</dc:date>
    <dc:format>image/svg+xml</dc:format>
    <dc:creator>
     <cc:Agent>
      <dc:title>Matplotlib v3.8.2, https://matplotlib.org/</dc:title>
     </cc:Agent>
    </dc:creator>
   </cc:Work>
  </rdf:RDF>
 </metadata>
 <defs>
  <style type="text/css">*{stroke-linejoin: round; stroke-linecap: butt}</style>
 </defs>
 <g id="figure_1">
  <g id="patch_1">
   <path d="M 0 345.6 
L 460.8 345.6 
L 460.8 0 
L 0 0 
z
" style="fill: #ffffff"/>
  </g>
  <g id="axes_1">
   <g id="patch_2">
    <path d="M 57.6 307.584 
L 414.72 307.584 
L 414.72 41.472 
L 57.6 41.472 
z
" style="fill: #ffffff"/>
   </g>
   <g id="matplotlib.axis_1">
    <g id="xtick_1">
     <g id="line2d_1">
      <defs>
       <path id="meb07a751c8" d="M 0 0 
L 0 3.5 
" style="stroke: #000000; stroke-width: 0.8"/>
      </defs>
      <g>
       <use xlink:href="#meb07a751c8" x="73.832727" y="307.584" style="stroke: #000000; stroke-width: 0.8"/>
      </g>
     </g>
     <g id="text_1">
      <!-- 0 -->
      <g transform="translate(70.651477 322.182437) scale(0.1 -0.1)">
       <defs>
        <path id="DejaVuSans-30" d="M 2034 4250 
Q 1547 4250 1301 3770 
Q 1056 3291 1056 2328 
Q 1056 1369 1301 889 
Q 1547 409 2034 409 
Q 2525 409 2770 889 
Q 3016 1369 3016 2328 
Q 3016 3291 2770 3770 
Q 2525 4250 2034 4250 
z
M 2034 4750 
Q 2819 4750 3233 4129 
Q 3647 3509 3647 2328 
Q 3647 1150 3233 529 
Q 2819 -91 2034 -91 
Q 1250 -91 836 529 
Q 422 1150 422 2328 
Q 422 3509 836 4129 
Q 1250 4750 2034 4750 
z
" transform="scale(0.015625)"/>
       </defs>
       <use xlink:href="#DejaVuSans-30"/>
      </g>
     </g>
    </g>
    <g id="xtick_2">
     <g id="line2d_2">
      <g>
       <use xlink:href="#meb07a751c8" x="141.336895" y="307.584" style="stroke: #000000; stroke-width: 0.8"/>
      </g>
     </g>
     <g id="text_2">
      <!-- 50000 -->
      <g transform="translate(125.430645 322.182437) scale(0.1 -0.1)">
       <defs>
        <path id="DejaVuSans-35" d="M 691 4666 
L 3169 4666 
L 3169 4134 
L 1269 4134 
L 1269 2991 
Q 1406 3038 1543 3061 
Q 1681 3084 1819 3084 
Q 2600 3084 3056 2656 
Q 3513 2228 3513 1497 
Q 3513 744 3044 326 
Q 2575 -91 1722 -91 
Q 1428 -91 1123 -41 
Q 819 9 494 109 
L 494 744 
Q 775 591 1075 516 
Q 1375 441 1709 441 
Q 2250 441 2565 725 
Q 2881 1009 2881 1497 
Q 2881 1984 2565 2268 
Q 2250 2553 1709 2553 
Q 1456 2553 1204 2497 
Q 953 2441 691 2322 
L 691 4666 
z
" transform="scale(0.015625)"/>
       </defs>
       <use xlink:href="#DejaVuSans-35"/>
       <use xlink:href="#DejaVuSans-30" x="63.623047"/>
       <use xlink:href="#DejaVuSans-30" x="127.246094"/>
       <use xlink:href="#DejaVuSans-30" x="190.869141"/>
       <use xlink:href="#DejaVuSans-30" x="254.492188"/>
      </g>
     </g>
    </g>
    <g id="xtick_3">
     <g id="line2d_3">
      <g>
       <use xlink:href="#meb07a751c8" x="208.841063" y="307.584" style="stroke: #000000; stroke-width: 0.8"/>
      </g>
     </g>
     <g id="text_3">
      <!-- 100000 -->
      <g transform="translate(189.753563 322.182437) scale(0.1 -0.1)">
       <defs>
        <path id="DejaVuSans-31" d="M 794 531 
L 1825 531 
L 1825 4091 
L 703 3866 
L 703 4441 
L 1819 4666 
L 2450 4666 
L 2450 531 
L 3481 531 
L 3481 0 
L 794 0 
L 794 531 
z
" transform="scale(0.015625)"/>
       </defs>
       <use xlink:href="#DejaVuSans-31"/>
       <use xlink:href="#DejaVuSans-30" x="63.623047"/>
       <use xlink:href="#DejaVuSans-30" x="127.246094"/>
       <use xlink:href="#DejaVuSans-30" x="190.869141"/>
       <use xlink:href="#DejaVuSans-30" x="254.492188"/>
       <use xlink:href="#DejaVuSans-30" x="318.115234"/>
      </g>
     </g>
    </g>
    <g id="xtick_4">
     <g id="line2d_4">
      <g>
       <use xlink:href="#meb07a751c8" x="276.345231" y="307.584" style="stroke: #000000; stroke-width: 0.8"/>
      </g>
     </g>
     <g id="text_4">
      <!-- 150000 -->
      <g transform="translate(257.257731 322.182437) scale(0.1 -0.1)">
       <use xlink:href="#DejaVuSans-31"/>
       <use xlink:href="#DejaVuSans-35" x="63.623047"/>
       <use xlink:href="#DejaVuSans-30" x="127.246094"/>
       <use xlink:href="#DejaVuSans-30" x="190.869141"/>
       <use xlink:href="#DejaVuSans-30" x="254.492188"/>
       <use xlink:href="#DejaVuSans-30" x="318.115234"/>
      </g>
     </g>
    </g>
    <g id="xtick_5">
     <g id="line2d_5">
      <g>
       <use xlink:href="#meb07a751c8" x="343.849399" y="307.584" style="stroke: #000000; stroke-width: 0.8"/>
      </g>
     </g>
     <g id="text_5">
      <!-- 200000 -->
      <g transform="translate(324.761899 322.182437) scale(0.1 -0.1)">
       <defs>
        <path id="DejaVuSans-32" d="M 1228 531 
L 3431 531 
L 3431 0 
L 469 0 
L 469 531 
Q 828 903 1448 1529 
Q 2069 2156 2228 2338 
Q 2531 2678 2651 2914 
Q 2772 3150 2772 3378 
Q 2772 3750 2511 3984 
Q 2250 4219 1831 4219 
Q 1534 4219 1204 4116 
Q 875 4013 500 3803 
L 500 4441 
Q 881 4594 1212 4672 
Q 1544 4750 1819 4750 
Q 2544 4750 2975 4387 
Q 3406 4025 3406 3419 
Q 3406 3131 3298 2873 
Q 3191 2616 2906 2266 
Q 2828 2175 2409 1742 
Q 1991 1309 1228 531 
z
" transform="scale(0.015625)"/>
       </defs>
       <use xlink:href="#DejaVuSans-32"/>
       <use xlink:href="#DejaVuSans-30" x="63.623047"/>
       <use xlink:href="#DejaVuSans-30" x="127.246094"/>
       <use xlink:href="#DejaVuSans-30" x="190.869141"/>
       <use xlink:href="#DejaVuSans-30" x="254.492188"/>
       <use xlink:href="#DejaVuSans-30" x="318.115234"/>
      </g>
     </g>
    </g>
    <g id="xtick_6">
     <g id="line2d_6">
      <g>
       <use xlink:href="#meb07a751c8" x="411.353567" y="307.584" style="stroke: #000000; stroke-width: 0.8"/>
      </g>
     </g>
     <g id="text_6">
      <!-- 250000 -->
      <g transform="translate(392.266067 322.182437) scale(0.1 -0.1)">
       <use xlink:href="#DejaVuSans-32"/>
       <use xlink:href="#DejaVuSans-35" x="63.623047"/>
       <use xlink:href="#DejaVuSans-30" x="127.246094"/>
       <use xlink:href="#DejaVuSans-30" x="190.869141"/>
       <use xlink:href="#DejaVuSans-30" x="254.492188"/>
       <use xlink:href="#DejaVuSans-30" x="318.115234"/>
      </g>
     </g>
    </g>
   </g>
   <g id="matplotlib.axis_2">
    <g id="ytick_1">
     <g id="line2d_7">
      <defs>
       <path id="m9a7940eb12" d="M 0 0 
L -3.5 0 
" style="stroke: #000000; stroke-width: 0.8"/>
      </defs>
      <g>
       <use xlink:href="#m9a7940eb12" x="57.6" y="295.488" style="stroke: #000000; stroke-width: 0.8"/>
      </g>
     </g>
     <g id="text_7">
      <!-- 0.0 -->
      <g transform="translate(34.696875 299.287219) scale(0.1 -0.1)">
       <defs>
        <path id="DejaVuSans-2e" d="M 684 794 
L 1344 794 
L 1344 0 
L 684 0 
L 684 794 
z
" transform="scale(0.015625)"/>
       </defs>
       <use xlink:href="#DejaVuSans-30"/>
       <use xlink:href="#DejaVuSans-2e" x="63.623047"/>
       <use xlink:href="#DejaVuSans-30" x="95.410156"/>
      </g>
     </g>
    </g>
    <g id="ytick_2">
     <g id="line2d_8">
      <g>
       <use xlink:href="#m9a7940eb12" x="57.6" y="247.104" style="stroke: #000000; stroke-width: 0.8"/>
      </g>
     </g>
     <g id="text_8">
      <!-- 0.2 -->
      <g transform="translate(34.696875 250.903219) scale(0.1 -0.1)">
       <use xlink:href="#DejaVuSans-30"/>
       <use xlink:href="#DejaVuSans-2e" x="63.623047"/>
       <use xlink:href="#DejaVuSans-32" x="95.410156"/>
      </g>
     </g>
    </g>
    <g id="ytick_3">
     <g id="line2d_9">
      <g>
       <use xlink:href="#m9a7940eb12" x="57.6" y="198.72" style="stroke: #000000; stroke-width: 0.8"/>
      </g>
     </g>
     <g id="text_9">
      <!-- 0.4 -->
      <g transform="translate(34.696875 202.519219) scale(0.1 -0.1)">
       <defs>
        <path id="DejaVuSans-34" d="M 2419 4116 
L 825 1625 
L 2419 1625 
L 2419 4116 
z
M 2253 4666 
L 3047 4666 
L 3047 1625 
L 3713 1625 
L 3713 1100 
L 3047 1100 
L 3047 0 
L 2419 0 
L 2419 1100 
L 313 1100 
L 313 1709 
L 2253 4666 
z
" transform="scale(0.015625)"/>
       </defs>
       <use xlink:href="#DejaVuSans-30"/>
       <use xlink:href="#DejaVuSans-2e" x="63.623047"/>
       <use xlink:href="#DejaVuSans-34" x="95.410156"/>
      </g>
     </g>
    </g>
    <g id="ytick_4">
     <g id="line2d_10">
      <g>
       <use xlink:href="#m9a7940eb12" x="57.6" y="150.336" style="stroke: #000000; stroke-width: 0.8"/>
      </g>
     </g>
     <g id="text_10">
      <!-- 0.6 -->
      <g transform="translate(34.696875 154.135219) scale(0.1 -0.1)">
       <defs>
        <path id="DejaVuSans-36" d="M 2113 2584 
Q 1688 2584 1439 2293 
Q 1191 2003 1191 1497 
Q 1191 994 1439 701 
Q 1688 409 2113 409 
Q 2538 409 2786 701 
Q 3034 994 3034 1497 
Q 3034 2003 2786 2293 
Q 2538 2584 2113 2584 
z
M 3366 4563 
L 3366 3988 
Q 3128 4100 2886 4159 
Q 2644 4219 2406 4219 
Q 1781 4219 1451 3797 
Q 1122 3375 1075 2522 
Q 1259 2794 1537 2939 
Q 1816 3084 2150 3084 
Q 2853 3084 3261 2657 
Q 3669 2231 3669 1497 
Q 3669 778 3244 343 
Q 2819 -91 2113 -91 
Q 1303 -91 875 529 
Q 447 1150 447 2328 
Q 447 3434 972 4092 
Q 1497 4750 2381 4750 
Q 2619 4750 2861 4703 
Q 3103 4656 3366 4563 
z
" transform="scale(0.015625)"/>
       </defs>
       <use xlink:href="#DejaVuSans-30"/>
       <use xlink:href="#DejaVuSans-2e" x="63.623047"/>
       <use xlink:href="#DejaVuSans-36" x="95.410156"/>
      </g>
     </g>
    </g>
    <g id="ytick_5">
     <g id="line2d_11">
      <g>
       <use xlink:href="#m9a7940eb12" x="57.6" y="101.952" style="stroke: #000000; stroke-width: 0.8"/>
      </g>
     </g>
     <g id="text_11">
      <!-- 0.8 -->
      <g transform="translate(34.696875 105.751219) scale(0.1 -0.1)">
       <defs>
        <path id="DejaVuSans-38" d="M 2034 2216 
Q 1584 2216 1326 1975 
Q 1069 1734 1069 1313 
Q 1069 891 1326 650 
Q 1584 409 2034 409 
Q 2484 409 2743 651 
Q 3003 894 3003 1313 
Q 3003 1734 2745 1975 
Q 2488 2216 2034 2216 
z
M 1403 2484 
Q 997 2584 770 2862 
Q 544 3141 544 3541 
Q 544 4100 942 4425 
Q 1341 4750 2034 4750 
Q 2731 4750 3128 4425 
Q 3525 4100 3525 3541 
Q 3525 3141 3298 2862 
Q 3072 2584 2669 2484 
Q 3125 2378 3379 2068 
Q 3634 1759 3634 1313 
Q 3634 634 3220 271 
Q 2806 -91 2034 -91 
Q 1263 -91 848 271 
Q 434 634 434 1313 
Q 434 1759 690 2068 
Q 947 2378 1403 2484 
z
M 1172 3481 
Q 1172 3119 1398 2916 
Q 1625 2713 2034 2713 
Q 2441 2713 2670 2916 
Q 2900 3119 2900 3481 
Q 2900 3844 2670 4047 
Q 2441 4250 2034 4250 
Q 1625 4250 1398 4047 
Q 1172 3844 1172 3481 
z
" transform="scale(0.015625)"/>
       </defs>
       <use xlink:href="#DejaVuSans-30"/>
       <use xlink:href="#DejaVuSans-2e" x="63.623047"/>
       <use xlink:href="#DejaVuSans-38" x="95.410156"/>
      </g>
     </g>
    </g>
    <g id="ytick_6">
     <g id="line2d_12">
      <g>
       <use xlink:href="#m9a7940eb12" x="57.6" y="53.568" style="stroke: #000000; stroke-width: 0.8"/>
      </g>
     </g>
     <g id="text_12">
      <!-- 1.0 -->
      <g transform="translate(34.696875 57.367219) scale(0.1 -0.1)">
       <use xlink:href="#DejaVuSans-31"/>
       <use xlink:href="#DejaVuSans-2e" x="63.623047"/>
       <use xlink:href="#DejaVuSans-30" x="95.410156"/>
      </g>
     </g>
    </g>
   </g>
   <g id="line2d_13">
    <path d="M 73.832727 295.488 
L 73.859729 295.488 
L 73.967736 294.23062 
L 73.967736 294.23062 
L 74.048741 294.23062 
L 74.156747 292.721763 
L 74.156747 292.721763 
L 74.413263 292.721763 
L 74.426764 291.715859 
L 74.426764 291.715859 
L 74.548271 291.715859 
L 74.642777 290.709954 
L 74.642777 290.709954 
L 78.490515 290.709954 
L 78.490515 290.207002 
L 78.490515 290.207002 
L 79.786595 290.207002 
L 79.786595 289.955526 
L 80.056612 289.955526 
L 80.164618 287.943717 
L 80.164618 287.943717 
L 80.19162 287.943717 
L 80.19162 287.189289 
L 80.19162 287.189289 
L 80.367131 287.189289 
L 80.367131 286.183385 
L 80.367131 286.183385 
L 80.502139 286.183385 
L 80.596645 280.650911 
L 80.596645 280.650911 
L 80.623647 280.650911 
L 80.731653 271.597771 
L 80.731653 271.597771 
L 80.785657 271.597771 
L 80.893663 265.059393 
L 80.893663 265.059393 
L 80.907164 265.059393 
L 81.015171 257.263634 
L 81.015171 257.263634 
L 81.028672 257.263634 
L 81.136678 246.450162 
L 81.136678 246.450162 
L 81.16368 246.450162 
L 81.271687 234.630786 
L 81.271687 234.630786 
L 81.285187 234.630786 
L 81.379693 226.080599 
L 81.379693 226.080599 
L 81.433697 226.080599 
L 81.528202 219.793696 
L 81.528202 219.793696 
L 81.568705 219.793696 
L 81.64971 216.775983 
L 81.64971 216.775983 
L 81.690212 216.775983 
L 81.784718 207.471368 
L 81.784718 207.471368 
L 81.879224 207.471368 
L 81.933227 205.962511 
L 81.933227 205.962511 
L 82.000732 205.962511 
L 82.095237 202.944798 
L 82.095237 202.944798 
L 82.13574 202.944798 
L 82.13574 201.938894 
L 82.13574 201.938894 
L 87.522573 201.938894 
L 87.522573 201.435942 
L 87.522573 201.435942 
L 87.698083 201.435942 
L 87.698083 200.93299 
L 87.698083 200.93299 
L 88.251618 200.93299 
L 88.265118 199.927085 
L 88.265118 199.927085 
L 88.467631 199.927085 
L 88.575638 197.915277 
L 88.575638 197.915277 
L 88.61614 197.915277 
L 88.656643 196.657896 
L 88.656643 196.657896 
L 88.737648 196.657896 
L 88.737648 196.154944 
L 88.737648 196.154944 
L 88.980663 196.154944 
L 89.088669 194.143135 
L 89.088669 194.143135 
L 89.129172 194.143135 
L 89.237178 192.131326 
L 89.237178 192.131326 
L 89.26418 192.131326 
L 89.345185 190.62247 
L 89.345185 190.62247 
L 89.507195 190.62247 
L 89.507195 190.119518 
L 89.507195 190.119518 
L 89.628703 190.119518 
L 89.682706 189.365089 
L 90.060729 189.365089 
L 90.114733 187.856233 
L 90.114733 187.856233 
L 90.290243 187.856233 
L 90.290243 187.353281 
L 90.290243 187.353281 
L 90.425252 187.353281 
L 90.519758 185.844424 
L 90.519758 185.844424 
L 90.600763 185.844424 
L 90.627764 184.83852 
L 90.627764 184.83852 
L 90.749272 184.83852 
L 90.843778 183.329663 
L 90.843778 183.329663 
L 91.04629 183.329663 
L 91.140796 180.31195 
L 91.140796 180.31195 
L 91.491818 180.31195 
L 91.599824 175.78538 
L 91.599824 175.78538 
L 91.626826 175.78538 
L 91.734833 171.258811 
L 91.734833 171.258811 
L 91.815838 171.258811 
L 91.896843 165.223385 
L 91.896843 165.223385 
L 92.031851 165.223385 
L 92.139858 162.205672 
L 92.139858 162.205672 
L 92.261365 162.205672 
L 92.355871 157.427626 
L 92.355871 157.427626 
L 92.382873 157.427626 
L 92.490879 154.409913 
L 92.490879 154.409913 
L 92.517881 154.409913 
L 92.558383 150.386295 
L 92.558383 150.386295 
L 92.882403 150.386295 
L 92.963408 145.859726 
L 92.963408 145.859726 
L 93.003911 145.859726 
L 93.071415 141.584632 
L 93.071415 141.584632 
L 93.260427 141.584632 
L 93.260427 140.578728 
L 93.260427 140.578728 
L 93.381934 140.578728 
L 93.381934 139.572823 
L 93.381934 139.572823 
L 93.516943 139.572823 
L 93.516943 138.566919 
L 93.516943 138.566919 
L 94.326993 138.566919 
L 94.326993 138.315443 
L 94.826524 138.315443 
L 94.826524 137.309538 
L 94.826524 137.309538 
L 95.042537 137.309538 
L 95.069539 135.800682 
L 95.069539 135.800682 
L 95.353056 135.800682 
L 95.366557 134.794778 
L 95.366557 134.794778 
L 95.488064 134.794778 
L 95.542068 132.782969 
L 95.542068 132.782969 
L 95.717579 132.782969 
L 95.758081 130.77116 
L 95.758081 130.77116 
L 95.920091 130.77116 
L 95.960594 129.765256 
L 95.960594 129.765256 
L 96.149605 129.765256 
L 96.149605 129.262304 
L 96.149605 129.262304 
L 96.541129 129.262304 
L 96.541129 128.759351 
L 96.541129 128.759351 
L 96.662637 128.759351 
L 96.662637 128.256399 
L 96.662637 128.256399 
L 97.094664 128.256399 
L 97.135166 126.747543 
L 97.135166 126.747543 
L 97.229672 126.747543 
L 97.270174 125.490162 
L 97.270174 125.490162 
L 97.553692 125.490162 
L 97.553692 124.98721 
L 97.553692 124.98721 
L 98.188231 124.98721 
L 98.188231 124.484258 
L 98.188231 124.484258 
L 98.714764 124.484258 
L 98.714764 123.981306 
L 98.714764 123.981306 
L 99.092787 123.981306 
L 99.133289 122.723925 
L 99.133289 122.723925 
L 99.281799 122.723925 
L 99.281799 122.220973 
L 99.281799 122.220973 
L 99.673323 122.220973 
L 99.673323 121.718021 
L 99.673323 121.718021 
L 99.983842 121.718021 
L 99.983842 121.215069 
L 99.983842 121.215069 
L 100.172854 121.215069 
L 100.172854 120.712116 
L 100.172854 120.712116 
L 100.415869 120.712116 
L 100.469872 119.706212 
L 100.469872 119.706212 
L 100.564378 119.706212 
L 100.564378 118.700308 
L 100.564378 118.700308 
L 100.726388 118.700308 
L 100.726388 118.197356 
L 100.726388 118.197356 
L 100.901899 118.197356 
L 101.009905 116.688499 
L 101.009905 116.688499 
L 101.293423 116.688499 
L 101.293423 115.682595 
L 101.293423 115.682595 
L 101.455433 115.682595 
L 101.455433 113.670786 
L 101.455433 113.670786 
L 101.711949 113.670786 
L 101.711949 112.664881 
L 101.711949 112.664881 
L 101.846957 112.664881 
L 101.846957 111.658977 
L 101.846957 111.658977 
L 102.06297 111.658977 
L 102.103473 109.647168 
L 102.103473 109.647168 
L 102.238481 109.647168 
L 102.305985 106.629455 
L 102.305985 106.629455 
L 102.400491 106.629455 
L 102.413992 104.617647 
L 102.413992 104.617647 
L 102.549 104.617647 
L 102.643506 102.605838 
L 102.643506 102.605838 
L 102.751513 102.605838 
L 102.832518 97.827792 
L 102.832518 97.827792 
L 102.940525 97.827792 
L 102.940525 96.570412 
L 102.940525 96.570412 
L 103.075533 96.570412 
L 103.089034 94.558603 
L 103.089034 94.558603 
L 103.210541 94.558603 
L 103.210541 93.552699 
L 103.210541 93.552699 
L 103.332049 93.552699 
L 103.399553 89.529081 
L 103.399553 89.529081 
L 103.534561 89.529081 
L 103.642568 84.751035 
L 103.642568 84.751035 
L 103.656069 84.751035 
L 103.737074 82.739227 
L 103.737074 82.739227 
L 103.818079 82.739227 
L 103.818079 81.733322 
L 103.818079 81.733322 
L 103.939586 81.733322 
L 103.939586 80.727418 
L 103.939586 80.727418 
L 104.061094 80.727418 
L 104.074595 78.715609 
L 104.074595 78.715609 
L 104.236605 78.715609 
L 104.236605 77.709705 
L 104.236605 77.709705 
L 104.412115 77.709705 
L 104.412115 76.7038 
L 104.412115 76.7038 
L 104.722635 76.7038 
L 104.722635 75.697896 
L 104.722635 75.697896 
L 107.962835 75.697896 
L 107.962835 74.440516 
L 107.962835 74.440516 
L 108.21935 74.440516 
L 108.300355 72.428707 
L 108.300355 72.428707 
L 108.36786 72.428707 
L 108.36786 71.422802 
L 108.36786 71.422802 
L 108.880891 71.422802 
L 108.880891 70.416898 
L 108.880891 70.416898 
L 109.110405 70.416898 
L 109.110405 69.410994 
L 109.110405 69.410994 
L 109.474928 69.410994 
L 109.474928 68.405089 
L 109.474928 68.405089 
L 111.000522 68.405089 
L 111.000522 67.399185 
L 111.000522 67.399185 
L 134.815993 67.399185 
L 134.815993 66.896233 
L 134.815993 66.896233 
L 137.003128 66.896233 
L 137.003128 64.129996 
L 137.003128 64.129996 
L 149.612906 64.129996 
L 149.612906 63.124091 
L 149.612906 63.124091 
L 149.855921 63.124091 
L 149.855921 62.621139 
L 149.855921 62.621139 
L 150.071935 62.621139 
L 150.071935 62.118187 
L 150.071935 62.118187 
L 168.055045 62.118187 
L 168.055045 61.866711 
L 171.133235 61.866711 
L 171.133235 60.860807 
L 171.133235 60.860807 
L 177.505628 60.860807 
L 177.505628 60.357854 
L 177.505628 60.357854 
L 181.542378 60.357854 
L 181.542378 59.35195 
L 181.542378 59.35195 
L 192.680565 59.35195 
L 192.680565 58.346046 
L 192.680565 58.346046 
L 202.752187 58.346046 
L 202.752187 55.076857 
L 202.752187 55.076857 
L 386.228516 55.076857 
L 386.228516 54.573904 
L 386.228516 54.573904 
L 398.487273 54.573904 
L 398.487273 53.568 
L 398.487273 53.568 
" clip-path="url(#pf6939fa05e)" style="fill: none; stroke: #1f77b4; stroke-width: 1.5; stroke-linecap: square"/>
   </g>
   <g id="line2d_14">
    <path d="M 73.832727 295.488 
L 73.859729 295.488 
L 73.954235 292.054638 
L 73.954235 292.054638 
L 73.981236 292.054638 
L 74.089243 290.998218 
L 74.089243 290.998218 
L 74.102744 290.998218 
L 74.210751 286.508437 
L 74.210751 286.508437 
L 74.291756 286.508437 
L 74.386261 284.659703 
L 74.386261 284.659703 
L 74.642777 284.659703 
L 74.642777 283.867389 
L 74.642777 283.867389 
L 74.858791 283.867389 
L 74.899293 282.810969 
L 74.899293 282.810969 
L 74.980298 282.810969 
L 75.088305 281.226341 
L 75.088305 281.226341 
L 75.128807 281.226341 
L 75.196311 279.641712 
L 75.196311 279.641712 
L 75.358321 279.641712 
L 75.358321 279.113502 
L 75.358321 279.113502 
L 75.628338 279.113502 
L 75.736345 277.000664 
L 75.736345 277.000664 
L 75.803849 277.000664 
L 75.803849 276.472454 
L 75.803849 276.472454 
L 75.97936 276.472454 
L 75.97936 275.416035 
L 75.97936 275.416035 
L 76.114368 275.416035 
L 76.114368 274.887825 
L 76.114368 274.887825 
L 76.411386 274.887825 
L 76.505892 272.510882 
L 76.505892 272.510882 
L 76.586897 272.510882 
L 76.586897 270.398044 
L 76.586897 270.398044 
L 76.708405 270.398044 
L 76.735406 268.813415 
L 76.735406 268.813415 
L 76.829912 268.813415 
L 76.829912 267.756996 
L 76.829912 267.756996 
L 76.95142 267.756996 
L 77.059427 264.851843 
L 77.059427 264.851843 
L 77.086428 264.851843 
L 77.086428 263.795424 
L 77.086428 263.795424 
L 77.329443 263.795424 
L 77.369946 261.682585 
L 77.369946 261.682585 
L 77.59946 261.682585 
L 77.707467 259.041537 
L 77.707467 259.041537 
L 77.963982 259.041537 
L 77.963982 257.985118 
L 77.963982 257.985118 
L 78.125992 257.985118 
L 78.125992 257.192803 
L 78.125992 257.192803 
L 78.382508 257.192803 
L 78.382508 256.664594 
L 78.382508 256.664594 
L 78.612022 256.664594 
L 78.639024 255.608175 
L 78.639024 255.608175 
L 78.73353 255.608175 
L 78.73353 255.34407 
L 78.868538 255.34407 
L 78.868538 254.81586 
L 78.868538 254.81586 
L 79.098052 254.81586 
L 79.165557 252.967127 
L 79.165557 252.967127 
L 79.273563 252.967127 
L 79.273563 252.703022 
L 79.70559 252.703022 
L 79.786595 251.646603 
L 79.786595 251.646603 
L 80.488638 251.646603 
L 80.488638 251.118393 
L 80.488638 251.118393 
L 81.244685 251.118393 
L 81.244685 250.590183 
L 81.244685 250.590183 
L 82.581267 250.590183 
L 82.581267 250.061974 
L 82.581267 250.061974 
L 82.864785 250.061974 
L 82.932289 249.005555 
L 82.932289 249.005555 
L 83.337314 249.005555 
L 83.404818 247.420926 
L 83.404818 247.420926 
L 83.499324 247.420926 
L 83.59383 242.667039 
L 83.59383 242.667039 
L 83.620832 242.667039 
L 83.728838 235.272105 
L 83.728838 235.272105 
L 83.742339 235.272105 
L 83.850346 230.254114 
L 83.850346 230.254114 
L 83.863847 230.254114 
L 83.971853 226.556646 
L 83.971853 226.556646 
L 83.985354 226.556646 
L 84.093361 222.066865 
L 84.093361 222.066865 
L 84.106862 222.066865 
L 84.214868 217.577083 
L 84.214868 217.577083 
L 84.24187 217.577083 
L 84.322875 211.238568 
L 84.322875 211.238568 
L 84.376878 211.238568 
L 84.484885 200.93848 
L 84.484885 200.93848 
L 84.511887 200.93848 
L 84.606392 194.071755 
L 84.606392 194.071755 
L 84.633394 194.071755 
L 84.741401 186.940926 
L 84.741401 186.940926 
L 84.822406 186.940926 
L 84.916912 179.281886 
L 84.916912 179.281886 
L 84.957414 179.281886 
L 85.065421 172.679266 
L 85.065421 172.679266 
L 85.092422 172.679266 
L 85.200429 167.133066 
L 85.200429 167.133066 
L 85.254432 167.133066 
L 85.362439 164.756122 
L 85.443444 164.756122 
L 85.551451 162.115074 
L 85.551451 162.115074 
L 85.686459 162.115074 
L 85.740463 160.530445 
L 85.740463 160.530445 
L 86.172489 160.530445 
L 86.172489 159.738131 
L 86.172489 159.738131 
L 89.331684 159.738131 
L 89.412689 157.889397 
L 89.412689 157.889397 
L 89.493694 157.889397 
L 89.493694 157.361188 
L 89.493694 157.361188 
L 89.75021 157.361188 
L 89.790713 156.832978 
L 90.114733 156.832978 
L 90.114733 156.040664 
L 90.114733 156.040664 
L 90.384749 156.040664 
L 90.492756 154.456035 
L 90.72227 154.456035 
L 90.72227 153.663721 
L 90.72227 153.663721 
L 90.951784 153.663721 
L 90.951784 153.135511 
L 90.951784 153.135511 
L 91.127295 153.135511 
L 91.127295 152.079092 
L 91.127295 152.079092 
L 91.275804 152.079092 
L 91.275804 151.022672 
L 91.275804 151.022672 
L 91.410813 151.022672 
L 91.410813 149.966253 
L 91.410813 149.966253 
L 91.69433 149.966253 
L 91.69433 148.909834 
L 91.69433 148.909834 
L 91.829338 148.909834 
L 91.85634 146.796996 
L 91.85634 146.796996 
L 92.004849 146.796996 
L 92.004849 144.155948 
L 92.004849 144.155948 
L 92.234363 144.155948 
L 92.234363 143.099528 
L 92.234363 143.099528 
L 92.355871 143.099528 
L 92.450377 139.930271 
L 92.450377 139.930271 
L 92.50438 139.930271 
L 92.50438 139.402061 
L 92.50438 139.402061 
L 92.652889 139.402061 
L 92.720393 134.912279 
L 92.720393 134.912279 
L 92.8284 134.912279 
L 92.922906 132.799441 
L 92.922906 132.799441 
L 92.949908 132.799441 
L 93.003911 131.214812 
L 93.003911 131.214812 
L 93.098417 131.214812 
L 93.098417 130.686603 
L 93.098417 130.686603 
L 93.287428 130.686603 
L 93.368433 128.573764 
L 93.368433 128.573764 
L 93.435938 128.573764 
L 93.449438 127.517345 
L 93.449438 127.517345 
L 93.651951 127.517345 
L 93.692453 126.460926 
L 93.692453 126.460926 
L 93.867964 126.460926 
L 93.96247 123.819878 
L 93.96247 123.819878 
L 94.002973 123.819878 
L 94.002973 123.291668 
L 94.002973 123.291668 
L 94.232487 123.291668 
L 94.28649 121.971144 
L 94.28649 121.971144 
L 94.421499 121.971144 
L 94.421499 120.65062 
L 94.421499 120.65062 
L 94.691515 120.65062 
L 94.77252 119.065991 
L 94.77252 119.065991 
L 94.840024 119.065991 
L 94.840024 118.537782 
L 94.840024 118.537782 
L 95.123542 118.537782 
L 95.231549 115.368524 
L 95.231549 115.368524 
L 95.312554 115.368524 
L 95.380058 112.991581 
L 95.380058 112.991581 
L 95.434061 112.991581 
L 95.542068 111.142847 
L 95.542068 111.142847 
L 95.731079 111.142847 
L 95.731079 110.350533 
L 95.731079 110.350533 
L 96.014597 110.350533 
L 96.014597 109.294114 
L 96.014597 109.294114 
L 96.271113 109.294114 
L 96.284614 107.709485 
L 96.284614 107.709485 
L 97.405183 107.709485 
L 97.486188 104.540227 
L 97.486188 104.540227 
L 97.567193 104.540227 
L 97.661699 102.427389 
L 97.661699 102.427389 
L 97.783206 102.427389 
L 97.783206 101.370969 
L 97.783206 101.370969 
L 97.972218 101.370969 
L 97.972218 100.578655 
L 97.972218 100.578655 
L 98.161229 100.578655 
L 98.188231 97.409397 
L 98.188231 97.409397 
L 98.309739 97.409397 
L 98.309739 96.352978 
L 98.309739 96.352978 
L 98.728264 96.352978 
L 98.728264 95.296559 
L 98.728264 95.296559 
L 98.863273 95.296559 
L 98.863273 94.24014 
L 98.863273 94.24014 
L 99.052284 94.24014 
L 99.092787 92.127301 
L 99.092787 92.127301 
L 99.416807 92.127301 
L 99.416807 89.750358 
L 99.416807 89.750358 
L 99.943339 89.750358 
L 99.95684 88.165729 
L 99.95684 88.165729 
L 100.321363 88.165729 
L 100.321363 87.10931 
L 100.321363 87.10931 
L 102.346488 87.10931 
L 102.346488 86.316996 
L 102.346488 86.316996 
L 102.927024 86.316996 
L 102.927024 85.788786 
L 102.927024 85.788786 
L 103.291546 85.788786 
L 103.291546 83.411843 
L 103.291546 83.411843 
L 103.83158 83.411843 
L 103.83158 82.619528 
L 103.83158 82.619528 
L 104.911646 82.619528 
L 104.911646 81.299004 
L 104.911646 81.299004 
L 105.438179 81.299004 
L 105.546185 79.186166 
L 105.546185 79.186166 
L 106.126721 79.186166 
L 106.234728 76.809223 
L 106.234728 76.809223 
L 106.302232 76.809223 
L 106.302232 75.752803 
L 106.302232 75.752803 
L 106.518245 75.752803 
L 106.518245 74.696384 
L 106.518245 74.696384 
L 106.720758 74.696384 
L 106.720758 73.639965 
L 106.720758 73.639965 
L 107.422801 73.639965 
L 107.422801 72.583546 
L 107.422801 72.583546 
L 108.138345 72.583546 
L 108.232851 70.206603 
L 108.232851 70.206603 
L 110.636 70.206603 
L 110.636 69.150183 
L 110.636 69.150183 
L 110.96002 69.150183 
L 110.96002 68.093764 
L 110.96002 68.093764 
L 111.203035 68.093764 
L 111.203035 67.037345 
L 111.203035 67.037345 
L 111.351544 67.037345 
L 111.419048 64.924507 
L 111.419048 64.924507 
L 111.905078 64.924507 
L 111.905078 63.868087 
L 111.905078 63.868087 
L 112.148093 63.868087 
L 112.148093 62.547563 
L 112.148093 62.547563 
L 112.296602 62.547563 
L 112.296602 61.491144 
L 112.296602 61.491144 
L 112.41811 61.491144 
L 112.472113 59.378306 
L 112.472113 59.378306 
L 113.174156 59.378306 
L 113.174156 58.321886 
L 113.174156 58.321886 
L 114.632246 58.321886 
L 114.632246 57.265467 
L 114.632246 57.265467 
L 159.954545 57.265467 
L 159.954545 56.737258 
L 159.954545 56.737258 
L 172.118796 56.737258 
L 172.118796 56.473153 
L 183.729513 56.473153 
L 183.729513 55.680838 
L 183.729513 55.680838 
L 255.121921 55.680838 
L 255.121921 55.416734 
L 260.090228 55.416734 
L 260.090228 54.888524 
L 260.090228 54.888524 
L 272.024964 54.888524 
L 272.024964 54.09621 
L 272.024964 54.09621 
L 276.80426 54.09621 
L 276.80426 53.832105 
L 282.096586 53.832105 
L 282.096586 53.568 
L 282.096586 53.568 
" clip-path="url(#pf6939fa05e)" style="fill: none; stroke: #ff7f0e; stroke-width: 1.5; stroke-linecap: square"/>
   </g>
   <g id="patch_3">
    <path d="M 57.6 307.584 
L 57.6 41.472 
" style="fill: none; stroke: #000000; stroke-width: 0.8; stroke-linejoin: miter; stroke-linecap: square"/>
   </g>
   <g id="patch_4">
    <path d="M 414.72 307.584 
L 414.72 41.472 
" style="fill: none; stroke: #000000; stroke-width: 0.8; stroke-linejoin: miter; stroke-linecap: square"/>
   </g>
   <g id="patch_5">
    <path d="M 57.6 307.584 
L 414.72 307.584 
" style="fill: none; stroke: #000000; stroke-width: 0.8; stroke-linejoin: miter; stroke-linecap: square"/>
   </g>
   <g id="patch_6">
    <path d="M 57.6 41.472 
L 414.72 41.472 
" style="fill: none; stroke: #000000; stroke-width: 0.8; stroke-linejoin: miter; stroke-linecap: square"/>
   </g>
   <g id="text_13">
    <!-- S8 S9 -->
    <g transform="translate(219 35.472) scale(0.12 -0.12)">
     <defs>
      <path id="DejaVuSans-53" d="M 3425 4513 
L 3425 3897 
Q 3066 4069 2747 4153 
Q 2428 4238 2131 4238 
Q 1616 4238 1336 4038 
Q 1056 3838 1056 3469 
Q 1056 3159 1242 3001 
Q 1428 2844 1947 2747 
L 2328 2669 
Q 3034 2534 3370 2195 
Q 3706 1856 3706 1288 
Q 3706 609 3251 259 
Q 2797 -91 1919 -91 
Q 1588 -91 1214 -16 
Q 841 59 441 206 
L 441 856 
Q 825 641 1194 531 
Q 1563 422 1919 422 
Q 2459 422 2753 634 
Q 3047 847 3047 1241 
Q 3047 1584 2836 1778 
Q 2625 1972 2144 2069 
L 1759 2144 
Q 1053 2284 737 2584 
Q 422 2884 422 3419 
Q 422 4038 858 4394 
Q 1294 4750 2059 4750 
Q 2388 4750 2728 4690 
Q 3069 4631 3425 4513 
z
" transform="scale(0.015625)"/>
      <path id="DejaVuSans-20" transform="scale(0.015625)"/>
      <path id="DejaVuSans-39" d="M 703 97 
L 703 672 
Q 941 559 1184 500 
Q 1428 441 1663 441 
Q 2288 441 2617 861 
Q 2947 1281 2994 2138 
Q 2813 1869 2534 1725 
Q 2256 1581 1919 1581 
Q 1219 1581 811 2004 
Q 403 2428 403 3163 
Q 403 3881 828 4315 
Q 1253 4750 1959 4750 
Q 2769 4750 3195 4129 
Q 3622 3509 3622 2328 
Q 3622 1225 3098 567 
Q 2575 -91 1691 -91 
Q 1453 -91 1209 -44 
Q 966 3 703 97 
z
M 1959 2075 
Q 2384 2075 2632 2365 
Q 2881 2656 2881 3163 
Q 2881 3666 2632 3958 
Q 2384 4250 1959 4250 
Q 1534 4250 1286 3958 
Q 1038 3666 1038 3163 
Q 1038 2656 1286 2365 
Q 1534 2075 1959 2075 
z
" transform="scale(0.015625)"/>
     </defs>
     <use xlink:href="#DejaVuSans-53"/>
     <use xlink:href="#DejaVuSans-38" x="63.476562"/>
     <use xlink:href="#DejaVuSans-20" x="127.099609"/>
     <use xlink:href="#DejaVuSans-53" x="158.886719"/>
     <use xlink:href="#DejaVuSans-39" x="222.363281"/>
    </g>
   </g>
   <g id="legend_1">
    <g id="patch_7">
     <path d="M 114.636563 304.584 
L 410.52 304.584 
Q 411.72 304.584 411.72 303.384 
L 411.72 286.37025 
Q 411.72 285.17025 410.52 285.17025 
L 114.636563 285.17025 
Q 113.436563 285.17025 113.436563 286.37025 
L 113.436563 303.384 
Q 113.436563 304.584 114.636563 304.584 
z
" style="fill: #ffffff; opacity: 0.8; stroke: #cccccc; stroke-linejoin: miter"/>
    </g>
    <g id="line2d_15">
     <path d="M 115.836563 290.029312 
L 121.836563 290.029312 
L 127.836563 290.029312 
" style="fill: none; stroke: #1f77b4; stroke-width: 1.5; stroke-linecap: square"/>
    </g>
    <g id="text_14">
     <!-- Execution time between S8 S9 (xx1xx1xx1xx1xx0yyy66xx1xx0yyy3xx1xx1) -->
     <g transform="translate(132.636563 292.129312) scale(0.06 -0.06)">
      <defs>
       <path id="DejaVuSans-45" d="M 628 4666 
L 3578 4666 
L 3578 4134 
L 1259 4134 
L 1259 2753 
L 3481 2753 
L 3481 2222 
L 1259 2222 
L 1259 531 
L 3634 531 
L 3634 0 
L 628 0 
L 628 4666 
z
" transform="scale(0.015625)"/>
       <path id="DejaVuSans-78" d="M 3513 3500 
L 2247 1797 
L 3578 0 
L 2900 0 
L 1881 1375 
L 863 0 
L 184 0 
L 1544 1831 
L 300 3500 
L 978 3500 
L 1906 2253 
L 2834 3500 
L 3513 3500 
z
" transform="scale(0.015625)"/>
       <path id="DejaVuSans-65" d="M 3597 1894 
L 3597 1613 
L 953 1613 
Q 991 1019 1311 708 
Q 1631 397 2203 397 
Q 2534 397 2845 478 
Q 3156 559 3463 722 
L 3463 178 
Q 3153 47 2828 -22 
Q 2503 -91 2169 -91 
Q 1331 -91 842 396 
Q 353 884 353 1716 
Q 353 2575 817 3079 
Q 1281 3584 2069 3584 
Q 2775 3584 3186 3129 
Q 3597 2675 3597 1894 
z
M 3022 2063 
Q 3016 2534 2758 2815 
Q 2500 3097 2075 3097 
Q 1594 3097 1305 2825 
Q 1016 2553 972 2059 
L 3022 2063 
z
" transform="scale(0.015625)"/>
       <path id="DejaVuSans-63" d="M 3122 3366 
L 3122 2828 
Q 2878 2963 2633 3030 
Q 2388 3097 2138 3097 
Q 1578 3097 1268 2742 
Q 959 2388 959 1747 
Q 959 1106 1268 751 
Q 1578 397 2138 397 
Q 2388 397 2633 464 
Q 2878 531 3122 666 
L 3122 134 
Q 2881 22 2623 -34 
Q 2366 -91 2075 -91 
Q 1284 -91 818 406 
Q 353 903 353 1747 
Q 353 2603 823 3093 
Q 1294 3584 2113 3584 
Q 2378 3584 2631 3529 
Q 2884 3475 3122 3366 
z
" transform="scale(0.015625)"/>
       <path id="DejaVuSans-75" d="M 544 1381 
L 544 3500 
L 1119 3500 
L 1119 1403 
Q 1119 906 1312 657 
Q 1506 409 1894 409 
Q 2359 409 2629 706 
Q 2900 1003 2900 1516 
L 2900 3500 
L 3475 3500 
L 3475 0 
L 2900 0 
L 2900 538 
Q 2691 219 2414 64 
Q 2138 -91 1772 -91 
Q 1169 -91 856 284 
Q 544 659 544 1381 
z
M 1991 3584 
L 1991 3584 
z
" transform="scale(0.015625)"/>
       <path id="DejaVuSans-74" d="M 1172 4494 
L 1172 3500 
L 2356 3500 
L 2356 3053 
L 1172 3053 
L 1172 1153 
Q 1172 725 1289 603 
Q 1406 481 1766 481 
L 2356 481 
L 2356 0 
L 1766 0 
Q 1100 0 847 248 
Q 594 497 594 1153 
L 594 3053 
L 172 3053 
L 172 3500 
L 594 3500 
L 594 4494 
L 1172 4494 
z
" transform="scale(0.015625)"/>
       <path id="DejaVuSans-69" d="M 603 3500 
L 1178 3500 
L 1178 0 
L 603 0 
L 603 3500 
z
M 603 4863 
L 1178 4863 
L 1178 4134 
L 603 4134 
L 603 4863 
z
" transform="scale(0.015625)"/>
       <path id="DejaVuSans-6f" d="M 1959 3097 
Q 1497 3097 1228 2736 
Q 959 2375 959 1747 
Q 959 1119 1226 758 
Q 1494 397 1959 397 
Q 2419 397 2687 759 
Q 2956 1122 2956 1747 
Q 2956 2369 2687 2733 
Q 2419 3097 1959 3097 
z
M 1959 3584 
Q 2709 3584 3137 3096 
Q 3566 2609 3566 1747 
Q 3566 888 3137 398 
Q 2709 -91 1959 -91 
Q 1206 -91 779 398 
Q 353 888 353 1747 
Q 353 2609 779 3096 
Q 1206 3584 1959 3584 
z
" transform="scale(0.015625)"/>
       <path id="DejaVuSans-6e" d="M 3513 2113 
L 3513 0 
L 2938 0 
L 2938 2094 
Q 2938 2591 2744 2837 
Q 2550 3084 2163 3084 
Q 1697 3084 1428 2787 
Q 1159 2491 1159 1978 
L 1159 0 
L 581 0 
L 581 3500 
L 1159 3500 
L 1159 2956 
Q 1366 3272 1645 3428 
Q 1925 3584 2291 3584 
Q 2894 3584 3203 3211 
Q 3513 2838 3513 2113 
z
" transform="scale(0.015625)"/>
       <path id="DejaVuSans-6d" d="M 3328 2828 
Q 3544 3216 3844 3400 
Q 4144 3584 4550 3584 
Q 5097 3584 5394 3201 
Q 5691 2819 5691 2113 
L 5691 0 
L 5113 0 
L 5113 2094 
Q 5113 2597 4934 2840 
Q 4756 3084 4391 3084 
Q 3944 3084 3684 2787 
Q 3425 2491 3425 1978 
L 3425 0 
L 2847 0 
L 2847 2094 
Q 2847 2600 2669 2842 
Q 2491 3084 2119 3084 
Q 1678 3084 1418 2786 
Q 1159 2488 1159 1978 
L 1159 0 
L 581 0 
L 581 3500 
L 1159 3500 
L 1159 2956 
Q 1356 3278 1631 3431 
Q 1906 3584 2284 3584 
Q 2666 3584 2933 3390 
Q 3200 3197 3328 2828 
z
" transform="scale(0.015625)"/>
       <path id="DejaVuSans-62" d="M 3116 1747 
Q 3116 2381 2855 2742 
Q 2594 3103 2138 3103 
Q 1681 3103 1420 2742 
Q 1159 2381 1159 1747 
Q 1159 1113 1420 752 
Q 1681 391 2138 391 
Q 2594 391 2855 752 
Q 3116 1113 3116 1747 
z
M 1159 2969 
Q 1341 3281 1617 3432 
Q 1894 3584 2278 3584 
Q 2916 3584 3314 3078 
Q 3713 2572 3713 1747 
Q 3713 922 3314 415 
Q 2916 -91 2278 -91 
Q 1894 -91 1617 61 
Q 1341 213 1159 525 
L 1159 0 
L 581 0 
L 581 4863 
L 1159 4863 
L 1159 2969 
z
" transform="scale(0.015625)"/>
       <path id="DejaVuSans-77" d="M 269 3500 
L 844 3500 
L 1563 769 
L 2278 3500 
L 2956 3500 
L 3675 769 
L 4391 3500 
L 4966 3500 
L 4050 0 
L 3372 0 
L 2619 2869 
L 1863 0 
L 1184 0 
L 269 3500 
z
" transform="scale(0.015625)"/>
       <path id="DejaVuSans-28" d="M 1984 4856 
Q 1566 4138 1362 3434 
Q 1159 2731 1159 2009 
Q 1159 1288 1364 580 
Q 1569 -128 1984 -844 
L 1484 -844 
Q 1016 -109 783 600 
Q 550 1309 550 2009 
Q 550 2706 781 3412 
Q 1013 4119 1484 4856 
L 1984 4856 
z
" transform="scale(0.015625)"/>
       <path id="DejaVuSans-79" d="M 2059 -325 
Q 1816 -950 1584 -1140 
Q 1353 -1331 966 -1331 
L 506 -1331 
L 506 -850 
L 844 -850 
Q 1081 -850 1212 -737 
Q 1344 -625 1503 -206 
L 1606 56 
L 191 3500 
L 800 3500 
L 1894 763 
L 2988 3500 
L 3597 3500 
L 2059 -325 
z
" transform="scale(0.015625)"/>
       <path id="DejaVuSans-33" d="M 2597 2516 
Q 3050 2419 3304 2112 
Q 3559 1806 3559 1356 
Q 3559 666 3084 287 
Q 2609 -91 1734 -91 
Q 1441 -91 1130 -33 
Q 819 25 488 141 
L 488 750 
Q 750 597 1062 519 
Q 1375 441 1716 441 
Q 2309 441 2620 675 
Q 2931 909 2931 1356 
Q 2931 1769 2642 2001 
Q 2353 2234 1838 2234 
L 1294 2234 
L 1294 2753 
L 1863 2753 
Q 2328 2753 2575 2939 
Q 2822 3125 2822 3475 
Q 2822 3834 2567 4026 
Q 2313 4219 1838 4219 
Q 1578 4219 1281 4162 
Q 984 4106 628 3988 
L 628 4550 
Q 988 4650 1302 4700 
Q 1616 4750 1894 4750 
Q 2613 4750 3031 4423 
Q 3450 4097 3450 3541 
Q 3450 3153 3228 2886 
Q 3006 2619 2597 2516 
z
" transform="scale(0.015625)"/>
       <path id="DejaVuSans-29" d="M 513 4856 
L 1013 4856 
Q 1481 4119 1714 3412 
Q 1947 2706 1947 2009 
Q 1947 1309 1714 600 
Q 1481 -109 1013 -844 
L 513 -844 
Q 928 -128 1133 580 
Q 1338 1288 1338 2009 
Q 1338 2731 1133 3434 
Q 928 4138 513 4856 
z
" transform="scale(0.015625)"/>
      </defs>
      <use xlink:href="#DejaVuSans-45"/>
      <use xlink:href="#DejaVuSans-78" x="63.183594"/>
      <use xlink:href="#DejaVuSans-65" x="119.238281"/>
      <use xlink:href="#DejaVuSans-63" x="180.761719"/>
      <use xlink:href="#DejaVuSans-75" x="235.742188"/>
      <use xlink:href="#DejaVuSans-74" x="299.121094"/>
      <use xlink:href="#DejaVuSans-69" x="338.330078"/>
      <use xlink:href="#DejaVuSans-6f" x="366.113281"/>
      <use xlink:href="#DejaVuSans-6e" x="427.294922"/>
      <use xlink:href="#DejaVuSans-20" x="490.673828"/>
      <use xlink:href="#DejaVuSans-74" x="522.460938"/>
      <use xlink:href="#DejaVuSans-69" x="561.669922"/>
      <use xlink:href="#DejaVuSans-6d" x="589.453125"/>
      <use xlink:href="#DejaVuSans-65" x="686.865234"/>
      <use xlink:href="#DejaVuSans-20" x="748.388672"/>
      <use xlink:href="#DejaVuSans-62" x="780.175781"/>
      <use xlink:href="#DejaVuSans-65" x="843.652344"/>
      <use xlink:href="#DejaVuSans-74" x="905.175781"/>
      <use xlink:href="#DejaVuSans-77" x="944.384766"/>
      <use xlink:href="#DejaVuSans-65" x="1026.171875"/>
      <use xlink:href="#DejaVuSans-65" x="1087.695312"/>
      <use xlink:href="#DejaVuSans-6e" x="1149.21875"/>
      <use xlink:href="#DejaVuSans-20" x="1212.597656"/>
      <use xlink:href="#DejaVuSans-53" x="1244.384766"/>
      <use xlink:href="#DejaVuSans-38" x="1307.861328"/>
      <use xlink:href="#DejaVuSans-20" x="1371.484375"/>
      <use xlink:href="#DejaVuSans-53" x="1403.271484"/>
      <use xlink:href="#DejaVuSans-39" x="1466.748047"/>
      <use xlink:href="#DejaVuSans-20" x="1530.371094"/>
      <use xlink:href="#DejaVuSans-28" x="1562.158203"/>
      <use xlink:href="#DejaVuSans-78" x="1601.171875"/>
      <use xlink:href="#DejaVuSans-78" x="1660.351562"/>
      <use xlink:href="#DejaVuSans-31" x="1719.53125"/>
      <use xlink:href="#DejaVuSans-78" x="1783.154297"/>
      <use xlink:href="#DejaVuSans-78" x="1842.333984"/>
      <use xlink:href="#DejaVuSans-31" x="1901.513672"/>
      <use xlink:href="#DejaVuSans-78" x="1965.136719"/>
      <use xlink:href="#DejaVuSans-78" x="2024.316406"/>
      <use xlink:href="#DejaVuSans-31" x="2083.496094"/>
      <use xlink:href="#DejaVuSans-78" x="2147.119141"/>
      <use xlink:href="#DejaVuSans-78" x="2206.298828"/>
      <use xlink:href="#DejaVuSans-31" x="2265.478516"/>
      <use xlink:href="#DejaVuSans-78" x="2329.101562"/>
      <use xlink:href="#DejaVuSans-78" x="2388.28125"/>
      <use xlink:href="#DejaVuSans-30" x="2447.460938"/>
      <use xlink:href="#DejaVuSans-79" x="2511.083984"/>
      <use xlink:href="#DejaVuSans-79" x="2570.263672"/>
      <use xlink:href="#DejaVuSans-79" x="2629.443359"/>
      <use xlink:href="#DejaVuSans-36" x="2688.623047"/>
      <use xlink:href="#DejaVuSans-36" x="2752.246094"/>
      <use xlink:href="#DejaVuSans-78" x="2815.869141"/>
      <use xlink:href="#DejaVuSans-78" x="2875.048828"/>
      <use xlink:href="#DejaVuSans-31" x="2934.228516"/>
      <use xlink:href="#DejaVuSans-78" x="2997.851562"/>
      <use xlink:href="#DejaVuSans-78" x="3057.03125"/>
      <use xlink:href="#DejaVuSans-30" x="3116.210938"/>
      <use xlink:href="#DejaVuSans-79" x="3179.833984"/>
      <use xlink:href="#DejaVuSans-79" x="3239.013672"/>
      <use xlink:href="#DejaVuSans-79" x="3298.193359"/>
      <use xlink:href="#DejaVuSans-33" x="3357.373047"/>
      <use xlink:href="#DejaVuSans-78" x="3420.996094"/>
      <use xlink:href="#DejaVuSans-78" x="3480.175781"/>
      <use xlink:href="#DejaVuSans-31" x="3539.355469"/>
      <use xlink:href="#DejaVuSans-78" x="3602.978516"/>
      <use xlink:href="#DejaVuSans-78" x="3662.158203"/>
      <use xlink:href="#DejaVuSans-31" x="3721.337891"/>
      <use xlink:href="#DejaVuSans-29" x="3784.960938"/>
     </g>
    </g>
    <g id="line2d_16">
     <path d="M 115.836563 298.836187 
L 121.836563 298.836187 
L 127.836563 298.836187 
" style="fill: none; stroke: #ff7f0e; stroke-width: 1.5; stroke-linecap: square"/>
    </g>
    <g id="text_15">
     <!-- Execution time between S8 S9 (xx1xx1xx2xx0yyy66xx0yyy66xx1yyy5xx0yyy3xx1xx1yyy5) -->
     <g transform="translate(132.636563 300.936187) scale(0.06 -0.06)">
      <use xlink:href="#DejaVuSans-45"/>
      <use xlink:href="#DejaVuSans-78" x="63.183594"/>
      <use xlink:href="#DejaVuSans-65" x="119.238281"/>
      <use xlink:href="#DejaVuSans-63" x="180.761719"/>
      <use xlink:href="#DejaVuSans-75" x="235.742188"/>
      <use xlink:href="#DejaVuSans-74" x="299.121094"/>
      <use xlink:href="#DejaVuSans-69" x="338.330078"/>
      <use xlink:href="#DejaVuSans-6f" x="366.113281"/>
      <use xlink:href="#DejaVuSans-6e" x="427.294922"/>
      <use xlink:href="#DejaVuSans-20" x="490.673828"/>
      <use xlink:href="#DejaVuSans-74" x="522.460938"/>
      <use xlink:href="#DejaVuSans-69" x="561.669922"/>
      <use xlink:href="#DejaVuSans-6d" x="589.453125"/>
      <use xlink:href="#DejaVuSans-65" x="686.865234"/>
      <use xlink:href="#DejaVuSans-20" x="748.388672"/>
      <use xlink:href="#DejaVuSans-62" x="780.175781"/>
      <use xlink:href="#DejaVuSans-65" x="843.652344"/>
      <use xlink:href="#DejaVuSans-74" x="905.175781"/>
      <use xlink:href="#DejaVuSans-77" x="944.384766"/>
      <use xlink:href="#DejaVuSans-65" x="1026.171875"/>
      <use xlink:href="#DejaVuSans-65" x="1087.695312"/>
      <use xlink:href="#DejaVuSans-6e" x="1149.21875"/>
      <use xlink:href="#DejaVuSans-20" x="1212.597656"/>
      <use xlink:href="#DejaVuSans-53" x="1244.384766"/>
      <use xlink:href="#DejaVuSans-38" x="1307.861328"/>
      <use xlink:href="#DejaVuSans-20" x="1371.484375"/>
      <use xlink:href="#DejaVuSans-53" x="1403.271484"/>
      <use xlink:href="#DejaVuSans-39" x="1466.748047"/>
      <use xlink:href="#DejaVuSans-20" x="1530.371094"/>
      <use xlink:href="#DejaVuSans-28" x="1562.158203"/>
      <use xlink:href="#DejaVuSans-78" x="1601.171875"/>
      <use xlink:href="#DejaVuSans-78" x="1660.351562"/>
      <use xlink:href="#DejaVuSans-31" x="1719.53125"/>
      <use xlink:href="#DejaVuSans-78" x="1783.154297"/>
      <use xlink:href="#DejaVuSans-78" x="1842.333984"/>
      <use xlink:href="#DejaVuSans-31" x="1901.513672"/>
      <use xlink:href="#DejaVuSans-78" x="1965.136719"/>
      <use xlink:href="#DejaVuSans-78" x="2024.316406"/>
      <use xlink:href="#DejaVuSans-32" x="2083.496094"/>
      <use xlink:href="#DejaVuSans-78" x="2147.119141"/>
      <use xlink:href="#DejaVuSans-78" x="2206.298828"/>
      <use xlink:href="#DejaVuSans-30" x="2265.478516"/>
      <use xlink:href="#DejaVuSans-79" x="2329.101562"/>
      <use xlink:href="#DejaVuSans-79" x="2388.28125"/>
      <use xlink:href="#DejaVuSans-79" x="2447.460938"/>
      <use xlink:href="#DejaVuSans-36" x="2506.640625"/>
      <use xlink:href="#DejaVuSans-36" x="2570.263672"/>
      <use xlink:href="#DejaVuSans-78" x="2633.886719"/>
      <use xlink:href="#DejaVuSans-78" x="2693.066406"/>
      <use xlink:href="#DejaVuSans-30" x="2752.246094"/>
      <use xlink:href="#DejaVuSans-79" x="2815.869141"/>
      <use xlink:href="#DejaVuSans-79" x="2875.048828"/>
      <use xlink:href="#DejaVuSans-79" x="2934.228516"/>
      <use xlink:href="#DejaVuSans-36" x="2993.408203"/>
      <use xlink:href="#DejaVuSans-36" x="3057.03125"/>
      <use xlink:href="#DejaVuSans-78" x="3120.654297"/>
      <use xlink:href="#DejaVuSans-78" x="3179.833984"/>
      <use xlink:href="#DejaVuSans-31" x="3239.013672"/>
      <use xlink:href="#DejaVuSans-79" x="3302.636719"/>
      <use xlink:href="#DejaVuSans-79" x="3361.816406"/>
      <use xlink:href="#DejaVuSans-79" x="3420.996094"/>
      <use xlink:href="#DejaVuSans-35" x="3480.175781"/>
      <use xlink:href="#DejaVuSans-78" x="3543.798828"/>
      <use xlink:href="#DejaVuSans-78" x="3602.978516"/>
      <use xlink:href="#DejaVuSans-30" x="3662.158203"/>
      <use xlink:href="#DejaVuSans-79" x="3725.78125"/>
      <use xlink:href="#DejaVuSans-79" x="3784.960938"/>
      <use xlink:href="#DejaVuSans-79" x="3844.140625"/>
      <use xlink:href="#DejaVuSans-33" x="3903.320312"/>
      <use xlink:href="#DejaVuSans-78" x="3966.943359"/>
      <use xlink:href="#DejaVuSans-78" x="4026.123047"/>
      <use xlink:href="#DejaVuSans-31" x="4085.302734"/>
      <use xlink:href="#DejaVuSans-78" x="4148.925781"/>
      <use xlink:href="#DejaVuSans-78" x="4208.105469"/>
      <use xlink:href="#DejaVuSans-31" x="4267.285156"/>
      <use xlink:href="#DejaVuSans-79" x="4330.908203"/>
      <use xlink:href="#DejaVuSans-79" x="4390.087891"/>
      <use xlink:href="#DejaVuSans-79" x="4449.267578"/>
      <use xlink:href="#DejaVuSans-35" x="4508.447266"/>
      <use xlink:href="#DejaVuSans-29" x="4572.070312"/>
     </g>
    </g>
   </g>
  </g>
 </g>
 <defs>
  <clipPath id="pf6939fa05e">
   <rect x="57.6" y="41.472" width="357.12" height="266.112"/>
  </clipPath>
 </defs>
</svg>
