<?xml version="1.0" encoding="utf-8" standalone="no"?>
<!DOCTYPE svg PUBLIC "-//W3C//DTD SVG 1.1//EN"
  "http://www.w3.org/Graphics/SVG/1.1/DTD/svg11.dtd">
<svg xmlns:xlink="http://www.w3.org/1999/xlink" width="460.8pt" height="345.6pt" viewBox="0 0 460.8 345.6" xmlns="http://www.w3.org/2000/svg" version="1.1">
 <metadata>
  <rdf:RDF xmlns:dc="http://purl.org/dc/elements/1.1/" xmlns:cc="http://creativecommons.org/ns#" xmlns:rdf="http://www.w3.org/1999/02/22-rdf-syntax-ns#">
   <cc:Work>
    <dc:type rdf:resource="http://purl.org/dc/dcmitype/StillImage"/>
    <dc:date>2024-03-08T13:04:42.033224</dc:date>
    <dc:format>image/svg+xml</dc:format>
    <dc:creator>
     <cc:Agent>
      <dc:title>Matplotlib v3.8.2, https://matplotlib.org/</dc:title>
     </cc:Agent>
    </dc:creator>
   </cc:Work>
  </rdf:RDF>
 </metadata>
 <defs>
  <style type="text/css">*{stroke-linejoin: round; stroke-linecap: butt}</style>
 </defs>
 <g id="figure_1">
  <g id="patch_1">
   <path d="M 0 345.6 
L 460.8 345.6 
L 460.8 0 
L 0 0 
z
" style="fill: #ffffff"/>
  </g>
  <g id="axes_1">
   <g id="patch_2">
    <path d="M 57.6 307.584 
L 414.72 307.584 
L 414.72 41.472 
L 57.6 41.472 
z
" style="fill: #ffffff"/>
   </g>
   <g id="matplotlib.axis_1">
    <g id="xtick_1">
     <g id="line2d_1">
      <defs>
       <path id="m5d53d4f733" d="M 0 0 
L 0 3.5 
" style="stroke: #000000; stroke-width: 0.8"/>
      </defs>
      <g>
       <use xlink:href="#m5d53d4f733" x="73.832727" y="307.584" style="stroke: #000000; stroke-width: 0.8"/>
      </g>
     </g>
     <g id="text_1">
      <!-- 0 -->
      <g transform="translate(70.651477 322.182437) scale(0.1 -0.1)">
       <defs>
        <path id="DejaVuSans-30" d="M 2034 4250 
Q 1547 4250 1301 3770 
Q 1056 3291 1056 2328 
Q 1056 1369 1301 889 
Q 1547 409 2034 409 
Q 2525 409 2770 889 
Q 3016 1369 3016 2328 
Q 3016 3291 2770 3770 
Q 2525 4250 2034 4250 
z
M 2034 4750 
Q 2819 4750 3233 4129 
Q 3647 3509 3647 2328 
Q 3647 1150 3233 529 
Q 2819 -91 2034 -91 
Q 1250 -91 836 529 
Q 422 1150 422 2328 
Q 422 3509 836 4129 
Q 1250 4750 2034 4750 
z
" transform="scale(0.015625)"/>
       </defs>
       <use xlink:href="#DejaVuSans-30"/>
      </g>
     </g>
    </g>
    <g id="xtick_2">
     <g id="line2d_2">
      <g>
       <use xlink:href="#m5d53d4f733" x="130.503329" y="307.584" style="stroke: #000000; stroke-width: 0.8"/>
      </g>
     </g>
     <g id="text_2">
      <!-- 50000 -->
      <g transform="translate(114.597079 322.182437) scale(0.1 -0.1)">
       <defs>
        <path id="DejaVuSans-35" d="M 691 4666 
L 3169 4666 
L 3169 4134 
L 1269 4134 
L 1269 2991 
Q 1406 3038 1543 3061 
Q 1681 3084 1819 3084 
Q 2600 3084 3056 2656 
Q 3513 2228 3513 1497 
Q 3513 744 3044 326 
Q 2575 -91 1722 -91 
Q 1428 -91 1123 -41 
Q 819 9 494 109 
L 494 744 
Q 775 591 1075 516 
Q 1375 441 1709 441 
Q 2250 441 2565 725 
Q 2881 1009 2881 1497 
Q 2881 1984 2565 2268 
Q 2250 2553 1709 2553 
Q 1456 2553 1204 2497 
Q 953 2441 691 2322 
L 691 4666 
z
" transform="scale(0.015625)"/>
       </defs>
       <use xlink:href="#DejaVuSans-35"/>
       <use xlink:href="#DejaVuSans-30" x="63.623047"/>
       <use xlink:href="#DejaVuSans-30" x="127.246094"/>
       <use xlink:href="#DejaVuSans-30" x="190.869141"/>
       <use xlink:href="#DejaVuSans-30" x="254.492188"/>
      </g>
     </g>
    </g>
    <g id="xtick_3">
     <g id="line2d_3">
      <g>
       <use xlink:href="#m5d53d4f733" x="187.173932" y="307.584" style="stroke: #000000; stroke-width: 0.8"/>
      </g>
     </g>
     <g id="text_3">
      <!-- 100000 -->
      <g transform="translate(168.086432 322.182437) scale(0.1 -0.1)">
       <defs>
        <path id="DejaVuSans-31" d="M 794 531 
L 1825 531 
L 1825 4091 
L 703 3866 
L 703 4441 
L 1819 4666 
L 2450 4666 
L 2450 531 
L 3481 531 
L 3481 0 
L 794 0 
L 794 531 
z
" transform="scale(0.015625)"/>
       </defs>
       <use xlink:href="#DejaVuSans-31"/>
       <use xlink:href="#DejaVuSans-30" x="63.623047"/>
       <use xlink:href="#DejaVuSans-30" x="127.246094"/>
       <use xlink:href="#DejaVuSans-30" x="190.869141"/>
       <use xlink:href="#DejaVuSans-30" x="254.492188"/>
       <use xlink:href="#DejaVuSans-30" x="318.115234"/>
      </g>
     </g>
    </g>
    <g id="xtick_4">
     <g id="line2d_4">
      <g>
       <use xlink:href="#m5d53d4f733" x="243.844534" y="307.584" style="stroke: #000000; stroke-width: 0.8"/>
      </g>
     </g>
     <g id="text_4">
      <!-- 150000 -->
      <g transform="translate(224.757034 322.182437) scale(0.1 -0.1)">
       <use xlink:href="#DejaVuSans-31"/>
       <use xlink:href="#DejaVuSans-35" x="63.623047"/>
       <use xlink:href="#DejaVuSans-30" x="127.246094"/>
       <use xlink:href="#DejaVuSans-30" x="190.869141"/>
       <use xlink:href="#DejaVuSans-30" x="254.492188"/>
       <use xlink:href="#DejaVuSans-30" x="318.115234"/>
      </g>
     </g>
    </g>
    <g id="xtick_5">
     <g id="line2d_5">
      <g>
       <use xlink:href="#m5d53d4f733" x="300.515136" y="307.584" style="stroke: #000000; stroke-width: 0.8"/>
      </g>
     </g>
     <g id="text_5">
      <!-- 200000 -->
      <g transform="translate(281.427636 322.182437) scale(0.1 -0.1)">
       <defs>
        <path id="DejaVuSans-32" d="M 1228 531 
L 3431 531 
L 3431 0 
L 469 0 
L 469 531 
Q 828 903 1448 1529 
Q 2069 2156 2228 2338 
Q 2531 2678 2651 2914 
Q 2772 3150 2772 3378 
Q 2772 3750 2511 3984 
Q 2250 4219 1831 4219 
Q 1534 4219 1204 4116 
Q 875 4013 500 3803 
L 500 4441 
Q 881 4594 1212 4672 
Q 1544 4750 1819 4750 
Q 2544 4750 2975 4387 
Q 3406 4025 3406 3419 
Q 3406 3131 3298 2873 
Q 3191 2616 2906 2266 
Q 2828 2175 2409 1742 
Q 1991 1309 1228 531 
z
" transform="scale(0.015625)"/>
       </defs>
       <use xlink:href="#DejaVuSans-32"/>
       <use xlink:href="#DejaVuSans-30" x="63.623047"/>
       <use xlink:href="#DejaVuSans-30" x="127.246094"/>
       <use xlink:href="#DejaVuSans-30" x="190.869141"/>
       <use xlink:href="#DejaVuSans-30" x="254.492188"/>
       <use xlink:href="#DejaVuSans-30" x="318.115234"/>
      </g>
     </g>
    </g>
    <g id="xtick_6">
     <g id="line2d_6">
      <g>
       <use xlink:href="#m5d53d4f733" x="357.185738" y="307.584" style="stroke: #000000; stroke-width: 0.8"/>
      </g>
     </g>
     <g id="text_6">
      <!-- 250000 -->
      <g transform="translate(338.098238 322.182437) scale(0.1 -0.1)">
       <use xlink:href="#DejaVuSans-32"/>
       <use xlink:href="#DejaVuSans-35" x="63.623047"/>
       <use xlink:href="#DejaVuSans-30" x="127.246094"/>
       <use xlink:href="#DejaVuSans-30" x="190.869141"/>
       <use xlink:href="#DejaVuSans-30" x="254.492188"/>
       <use xlink:href="#DejaVuSans-30" x="318.115234"/>
      </g>
     </g>
    </g>
    <g id="xtick_7">
     <g id="line2d_7">
      <g>
       <use xlink:href="#m5d53d4f733" x="413.85634" y="307.584" style="stroke: #000000; stroke-width: 0.8"/>
      </g>
     </g>
     <g id="text_7">
      <!-- 300000 -->
      <g transform="translate(394.76884 322.182437) scale(0.1 -0.1)">
       <defs>
        <path id="DejaVuSans-33" d="M 2597 2516 
Q 3050 2419 3304 2112 
Q 3559 1806 3559 1356 
Q 3559 666 3084 287 
Q 2609 -91 1734 -91 
Q 1441 -91 1130 -33 
Q 819 25 488 141 
L 488 750 
Q 750 597 1062 519 
Q 1375 441 1716 441 
Q 2309 441 2620 675 
Q 2931 909 2931 1356 
Q 2931 1769 2642 2001 
Q 2353 2234 1838 2234 
L 1294 2234 
L 1294 2753 
L 1863 2753 
Q 2328 2753 2575 2939 
Q 2822 3125 2822 3475 
Q 2822 3834 2567 4026 
Q 2313 4219 1838 4219 
Q 1578 4219 1281 4162 
Q 984 4106 628 3988 
L 628 4550 
Q 988 4650 1302 4700 
Q 1616 4750 1894 4750 
Q 2613 4750 3031 4423 
Q 3450 4097 3450 3541 
Q 3450 3153 3228 2886 
Q 3006 2619 2597 2516 
z
" transform="scale(0.015625)"/>
       </defs>
       <use xlink:href="#DejaVuSans-33"/>
       <use xlink:href="#DejaVuSans-30" x="63.623047"/>
       <use xlink:href="#DejaVuSans-30" x="127.246094"/>
       <use xlink:href="#DejaVuSans-30" x="190.869141"/>
       <use xlink:href="#DejaVuSans-30" x="254.492188"/>
       <use xlink:href="#DejaVuSans-30" x="318.115234"/>
      </g>
     </g>
    </g>
   </g>
   <g id="matplotlib.axis_2">
    <g id="ytick_1">
     <g id="line2d_8">
      <defs>
       <path id="md48224278c" d="M 0 0 
L -3.5 0 
" style="stroke: #000000; stroke-width: 0.8"/>
      </defs>
      <g>
       <use xlink:href="#md48224278c" x="57.6" y="295.488" style="stroke: #000000; stroke-width: 0.8"/>
      </g>
     </g>
     <g id="text_8">
      <!-- 0.0 -->
      <g transform="translate(34.696875 299.287219) scale(0.1 -0.1)">
       <defs>
        <path id="DejaVuSans-2e" d="M 684 794 
L 1344 794 
L 1344 0 
L 684 0 
L 684 794 
z
" transform="scale(0.015625)"/>
       </defs>
       <use xlink:href="#DejaVuSans-30"/>
       <use xlink:href="#DejaVuSans-2e" x="63.623047"/>
       <use xlink:href="#DejaVuSans-30" x="95.410156"/>
      </g>
     </g>
    </g>
    <g id="ytick_2">
     <g id="line2d_9">
      <g>
       <use xlink:href="#md48224278c" x="57.6" y="247.104" style="stroke: #000000; stroke-width: 0.8"/>
      </g>
     </g>
     <g id="text_9">
      <!-- 0.2 -->
      <g transform="translate(34.696875 250.903219) scale(0.1 -0.1)">
       <use xlink:href="#DejaVuSans-30"/>
       <use xlink:href="#DejaVuSans-2e" x="63.623047"/>
       <use xlink:href="#DejaVuSans-32" x="95.410156"/>
      </g>
     </g>
    </g>
    <g id="ytick_3">
     <g id="line2d_10">
      <g>
       <use xlink:href="#md48224278c" x="57.6" y="198.72" style="stroke: #000000; stroke-width: 0.8"/>
      </g>
     </g>
     <g id="text_10">
      <!-- 0.4 -->
      <g transform="translate(34.696875 202.519219) scale(0.1 -0.1)">
       <defs>
        <path id="DejaVuSans-34" d="M 2419 4116 
L 825 1625 
L 2419 1625 
L 2419 4116 
z
M 2253 4666 
L 3047 4666 
L 3047 1625 
L 3713 1625 
L 3713 1100 
L 3047 1100 
L 3047 0 
L 2419 0 
L 2419 1100 
L 313 1100 
L 313 1709 
L 2253 4666 
z
" transform="scale(0.015625)"/>
       </defs>
       <use xlink:href="#DejaVuSans-30"/>
       <use xlink:href="#DejaVuSans-2e" x="63.623047"/>
       <use xlink:href="#DejaVuSans-34" x="95.410156"/>
      </g>
     </g>
    </g>
    <g id="ytick_4">
     <g id="line2d_11">
      <g>
       <use xlink:href="#md48224278c" x="57.6" y="150.336" style="stroke: #000000; stroke-width: 0.8"/>
      </g>
     </g>
     <g id="text_11">
      <!-- 0.6 -->
      <g transform="translate(34.696875 154.135219) scale(0.1 -0.1)">
       <defs>
        <path id="DejaVuSans-36" d="M 2113 2584 
Q 1688 2584 1439 2293 
Q 1191 2003 1191 1497 
Q 1191 994 1439 701 
Q 1688 409 2113 409 
Q 2538 409 2786 701 
Q 3034 994 3034 1497 
Q 3034 2003 2786 2293 
Q 2538 2584 2113 2584 
z
M 3366 4563 
L 3366 3988 
Q 3128 4100 2886 4159 
Q 2644 4219 2406 4219 
Q 1781 4219 1451 3797 
Q 1122 3375 1075 2522 
Q 1259 2794 1537 2939 
Q 1816 3084 2150 3084 
Q 2853 3084 3261 2657 
Q 3669 2231 3669 1497 
Q 3669 778 3244 343 
Q 2819 -91 2113 -91 
Q 1303 -91 875 529 
Q 447 1150 447 2328 
Q 447 3434 972 4092 
Q 1497 4750 2381 4750 
Q 2619 4750 2861 4703 
Q 3103 4656 3366 4563 
z
" transform="scale(0.015625)"/>
       </defs>
       <use xlink:href="#DejaVuSans-30"/>
       <use xlink:href="#DejaVuSans-2e" x="63.623047"/>
       <use xlink:href="#DejaVuSans-36" x="95.410156"/>
      </g>
     </g>
    </g>
    <g id="ytick_5">
     <g id="line2d_12">
      <g>
       <use xlink:href="#md48224278c" x="57.6" y="101.952" style="stroke: #000000; stroke-width: 0.8"/>
      </g>
     </g>
     <g id="text_12">
      <!-- 0.8 -->
      <g transform="translate(34.696875 105.751219) scale(0.1 -0.1)">
       <defs>
        <path id="DejaVuSans-38" d="M 2034 2216 
Q 1584 2216 1326 1975 
Q 1069 1734 1069 1313 
Q 1069 891 1326 650 
Q 1584 409 2034 409 
Q 2484 409 2743 651 
Q 3003 894 3003 1313 
Q 3003 1734 2745 1975 
Q 2488 2216 2034 2216 
z
M 1403 2484 
Q 997 2584 770 2862 
Q 544 3141 544 3541 
Q 544 4100 942 4425 
Q 1341 4750 2034 4750 
Q 2731 4750 3128 4425 
Q 3525 4100 3525 3541 
Q 3525 3141 3298 2862 
Q 3072 2584 2669 2484 
Q 3125 2378 3379 2068 
Q 3634 1759 3634 1313 
Q 3634 634 3220 271 
Q 2806 -91 2034 -91 
Q 1263 -91 848 271 
Q 434 634 434 1313 
Q 434 1759 690 2068 
Q 947 2378 1403 2484 
z
M 1172 3481 
Q 1172 3119 1398 2916 
Q 1625 2713 2034 2713 
Q 2441 2713 2670 2916 
Q 2900 3119 2900 3481 
Q 2900 3844 2670 4047 
Q 2441 4250 2034 4250 
Q 1625 4250 1398 4047 
Q 1172 3844 1172 3481 
z
" transform="scale(0.015625)"/>
       </defs>
       <use xlink:href="#DejaVuSans-30"/>
       <use xlink:href="#DejaVuSans-2e" x="63.623047"/>
       <use xlink:href="#DejaVuSans-38" x="95.410156"/>
      </g>
     </g>
    </g>
    <g id="ytick_6">
     <g id="line2d_13">
      <g>
       <use xlink:href="#md48224278c" x="57.6" y="53.568" style="stroke: #000000; stroke-width: 0.8"/>
      </g>
     </g>
     <g id="text_13">
      <!-- 1.0 -->
      <g transform="translate(34.696875 57.367219) scale(0.1 -0.1)">
       <use xlink:href="#DejaVuSans-31"/>
       <use xlink:href="#DejaVuSans-2e" x="63.623047"/>
       <use xlink:href="#DejaVuSans-30" x="95.410156"/>
      </g>
     </g>
    </g>
   </g>
   <g id="line2d_14">
    <path d="M 73.832727 295.488 
L 73.844061 295.488 
L 73.946068 293.607184 
L 73.946068 293.607184 
L 74.036741 293.607184 
L 74.104746 290.550857 
L 74.104746 290.550857 
L 74.161417 290.550857 
L 74.206753 288.905143 
L 74.206753 288.905143 
L 74.274758 288.905143 
L 74.376765 285.14351 
L 74.376765 285.14351 
L 75.02281 285.14351 
L 75.056812 283.732898 
L 75.056812 283.732898 
L 75.181488 283.732898 
L 75.192822 282.557388 
L 75.192822 282.557388 
L 75.294829 282.557388 
L 75.362834 280.911673 
L 75.362834 280.911673 
L 75.419504 280.911673 
L 75.510177 278.795755 
L 75.612184 278.795755 
L 75.680189 277.855347 
L 75.680189 277.855347 
L 75.748194 277.855347 
L 75.838867 274.79902 
L 75.895537 274.79902 
L 75.98621 273.62351 
L 75.98621 273.62351 
L 76.088217 273.62351 
L 76.088217 273.388408 
L 76.428241 273.388408 
L 76.428241 272.918204 
L 76.428241 272.918204 
L 76.734262 272.918204 
L 76.734262 272.448 
L 76.734262 272.448 
L 77.210295 272.448 
L 77.210295 271.977796 
L 77.210295 271.977796 
L 77.674994 271.977796 
L 77.674994 271.507592 
L 77.674994 271.507592 
L 78.853743 271.507592 
L 78.853743 271.037388 
L 78.853743 271.037388 
L 79.114427 271.037388 
L 79.193766 269.626776 
L 79.193766 269.626776 
L 79.295773 269.626776 
L 79.386446 266.100245 
L 79.386446 266.100245 
L 79.420449 266.100245 
L 79.511122 261.163102 
L 79.511122 261.163102 
L 79.53379 261.163102 
L 79.635797 252.934531 
L 79.635797 252.934531 
L 79.658465 252.934531 
L 79.760472 243.765551 
L 79.760472 243.765551 
L 79.771806 243.765551 
L 79.873813 233.185959 
L 79.873813 233.185959 
L 79.885148 233.185959 
L 79.975821 223.546776 
L 79.975821 223.546776 
L 79.998489 223.546776 
L 80.100496 211.556571 
L 80.100496 211.556571 
L 80.11183 211.556571 
L 80.202503 204.50351 
L 80.202503 204.50351 
L 80.225171 204.50351 
L 80.327178 194.864327 
L 80.327178 194.864327 
L 80.349847 194.864327 
L 80.429185 188.281469 
L 80.429185 188.281469 
L 80.508524 188.281469 
L 80.610531 184.519837 
L 80.610531 184.519837 
L 80.644534 184.519837 
L 80.712538 181.933714 
L 80.712538 181.933714 
L 80.837214 181.933714 
L 80.837214 180.993306 
L 80.837214 180.993306 
L 81.437922 180.993306 
L 81.437922 180.052898 
L 81.437922 180.052898 
L 83.829421 180.052898 
L 83.931429 178.877388 
L 83.931429 178.877388 
L 83.954097 178.877388 
L 83.999433 177.466776 
L 83.999433 177.466776 
L 84.180779 177.466776 
L 84.214782 176.526367 
L 84.214782 176.526367 
L 84.396128 176.526367 
L 84.475466 173.940245 
L 84.475466 173.940245 
L 84.520803 173.940245 
L 84.520803 173.470041 
L 84.520803 173.470041 
L 84.724817 173.470041 
L 84.804156 172.529633 
L 84.804156 172.529633 
L 84.838158 172.529633 
L 84.838158 172.059429 
L 84.838158 172.059429 
L 85.110177 172.059429 
L 85.155514 170.883918 
L 85.155514 170.883918 
L 85.518205 170.883918 
L 85.574876 169.003102 
L 85.574876 169.003102 
L 85.733554 169.003102 
L 85.733554 168.062694 
L 85.733554 168.062694 
L 85.846895 168.062694 
L 85.846895 167.122286 
L 85.846895 167.122286 
L 85.960236 167.122286 
L 86.028241 164.536163 
L 86.028241 164.536163 
L 86.084911 164.536163 
L 86.186919 162.890449 
L 86.186919 162.890449 
L 86.266257 162.890449 
L 86.368264 158.188408 
L 86.368264 158.188408 
L 86.413601 158.188408 
L 86.413601 156.307592 
L 86.413601 156.307592 
L 86.674286 156.307592 
L 86.719622 153.956571 
L 86.719622 153.956571 
L 86.798961 153.956571 
L 86.8783 148.314122 
L 86.8783 148.314122 
L 86.980307 148.314122 
L 87.082314 145.022694 
L 87.082314 145.022694 
L 87.093648 145.022694 
L 87.093648 144.55249 
L 87.093648 144.55249 
L 87.377001 144.55249 
L 87.388335 143.612082 
L 87.388335 143.612082 
L 87.513011 143.612082 
L 87.603684 142.436571 
L 87.603684 142.436571 
L 87.683022 142.436571 
L 87.78503 141.496163 
L 87.78503 141.496163 
L 87.989044 141.496163 
L 87.989044 141.025959 
L 87.989044 141.025959 
L 88.136387 141.025959 
L 88.204392 140.085551 
L 88.204392 140.085551 
L 88.317733 140.085551 
L 88.385738 138.674939 
L 88.385738 138.674939 
L 88.499079 138.674939 
L 88.589752 137.734531 
L 88.589752 137.734531 
L 88.623754 137.734531 
L 88.691759 136.323918 
L 88.691759 136.323918 
L 88.771098 136.323918 
L 88.861771 132.797388 
L 88.861771 132.797388 
L 88.895773 132.797388 
L 88.895773 131.85698 
L 88.895773 131.85698 
L 89.394475 131.85698 
L 89.394475 130.916571 
L 89.394475 130.916571 
L 89.881842 130.916571 
L 89.893176 129.270857 
L 89.893176 129.270857 
L 90.017851 129.270857 
L 90.108524 127.625143 
L 90.108524 127.625143 
L 90.255868 127.625143 
L 90.255868 126.684735 
L 90.255868 126.684735 
L 90.391877 126.684735 
L 90.391877 124.803918 
L 90.391877 124.803918 
L 90.845242 124.803918 
L 90.913247 122.923102 
L 90.913247 122.923102 
L 91.071924 122.923102 
L 91.139929 121.042286 
L 91.139929 121.042286 
L 91.25327 121.042286 
L 91.321275 118.926367 
L 91.321275 118.926367 
L 91.377946 118.926367 
L 91.377946 117.985959 
L 91.377946 117.985959 
L 91.513955 117.985959 
L 91.547957 116.105143 
L 91.547957 116.105143 
L 91.706635 116.105143 
L 91.717969 114.224327 
L 91.717969 114.224327 
L 91.989988 114.224327 
L 92.057993 112.578612 
L 92.057993 112.578612 
L 92.137332 112.578612 
L 92.137332 111.638204 
L 92.137332 111.638204 
L 92.273341 111.638204 
L 92.375348 108.111673 
L 92.375348 108.111673 
L 92.477355 108.111673 
L 92.477355 107.171265 
L 92.477355 107.171265 
L 92.647367 107.171265 
L 92.715372 103.409633 
L 92.715372 103.409633 
L 92.772043 103.409633 
L 92.828713 100.588408 
L 92.828713 100.588408 
L 93.418087 100.588408 
L 93.418087 99.648 
L 93.418087 99.648 
L 93.633436 99.648 
L 93.633436 98.942694 
L 93.633436 98.942694 
L 94.891523 98.942694 
L 94.982196 98.002286 
L 94.982196 98.002286 
L 95.140874 98.002286 
L 95.220213 96.356571 
L 95.220213 96.356571 
L 95.639575 96.356571 
L 95.741582 95.416163 
L 95.741582 95.416163 
L 95.809587 95.416163 
L 95.90026 93.535347 
L 95.90026 93.535347 
L 95.95693 93.535347 
L 95.95693 93.065143 
L 95.95693 93.065143 
L 96.14961 93.065143 
L 96.14961 92.594939 
L 96.14961 92.594939 
L 96.364959 92.594939 
L 96.364959 92.124735 
L 96.364959 92.124735 
L 96.512302 92.124735 
L 96.602975 91.184327 
L 96.602975 91.184327 
L 96.795655 91.184327 
L 96.795655 90.714122 
L 96.795655 90.714122 
L 97.181015 90.714122 
L 97.181015 90.008816 
L 97.181015 90.008816 
L 97.57771 90.008816 
L 97.57771 89.068408 
L 97.57771 89.068408 
L 97.951736 89.068408 
L 97.951736 88.128 
L 97.951736 88.128 
L 98.076411 88.128 
L 98.099079 86.247184 
L 98.099079 86.247184 
L 98.21242 86.247184 
L 98.314427 83.425959 
L 98.314427 83.425959 
L 98.54111 83.425959 
L 98.54111 82.720653 
L 98.54111 82.720653 
L 98.767792 82.720653 
L 98.767792 81.780245 
L 98.767792 81.780245 
L 100.399906 81.780245 
L 100.399906 80.839837 
L 100.399906 80.839837 
L 102.009351 80.839837 
L 102.009351 79.899429 
L 102.009351 79.899429 
L 102.14536 79.899429 
L 102.14536 78.95902 
L 102.14536 78.95902 
L 102.28137 78.95902 
L 102.28137 78.018612 
L 102.28137 78.018612 
L 102.47405 78.018612 
L 102.576057 75.197388 
L 102.576057 75.197388 
L 102.734734 75.197388 
L 102.825407 73.316571 
L 102.825407 73.316571 
L 102.961417 73.316571 
L 102.961417 72.376163 
L 102.961417 72.376163 
L 103.199433 72.376163 
L 103.199433 71.200653 
L 103.199433 71.200653 
L 103.596128 71.200653 
L 103.618796 69.319837 
L 103.618796 69.319837 
L 105.806281 69.319837 
L 105.806281 68.379429 
L 105.806281 68.379429 
L 106.939693 68.379429 
L 106.939693 67.674122 
L 106.939693 67.674122 
L 117.979126 67.674122 
L 117.979126 66.733714 
L 117.979126 66.733714 
L 118.534498 66.733714 
L 118.534498 66.26351 
L 118.534498 66.26351 
L 122.524109 66.26351 
L 122.524109 65.323102 
L 122.524109 65.323102 
L 123.555514 65.323102 
L 123.555514 64.852898 
L 123.555514 64.852898 
L 133.880897 64.852898 
L 133.880897 64.382694 
L 133.880897 64.382694 
L 135.717025 64.382694 
L 135.717025 63.442286 
L 135.717025 63.442286 
L 138.584557 63.442286 
L 138.584557 62.972082 
L 138.584557 62.972082 
L 153.352916 62.972082 
L 153.409587 62.501878 
L 154.962361 62.501878 
L 154.962361 62.266776 
L 158.611948 62.266776 
L 158.611948 61.326367 
L 158.611948 61.326367 
L 160.90144 61.326367 
L 160.90144 60.856163 
L 160.90144 60.856163 
L 161.2868 60.856163 
L 161.2868 60.385959 
L 161.2868 60.385959 
L 162.567556 60.385959 
L 162.567556 59.915755 
L 162.567556 59.915755 
L 166.081133 59.915755 
L 166.081133 59.445551 
L 166.081133 59.445551 
L 170.410767 59.445551 
L 170.410767 58.505143 
L 170.410767 58.505143 
L 177.585266 58.505143 
L 177.585266 57.799837 
L 177.585266 57.799837 
L 183.399669 57.799837 
L 183.399669 57.329633 
L 183.399669 57.329633 
L 188.87405 57.329633 
L 188.87405 56.389224 
L 188.87405 56.389224 
L 191.968264 56.389224 
L 191.968264 55.213714 
L 191.968264 55.213714 
L 195.674522 55.213714 
L 195.674522 54.273306 
L 195.674522 54.273306 
L 398.487273 54.273306 
L 398.487273 53.568 
L 398.487273 53.568 
" clip-path="url(#p6f49e333d7)" style="fill: none; stroke: #1f77b4; stroke-width: 1.5; stroke-linecap: square"/>
   </g>
   <g id="patch_3">
    <path d="M 57.6 307.584 
L 57.6 41.472 
" style="fill: none; stroke: #000000; stroke-width: 0.8; stroke-linejoin: miter; stroke-linecap: square"/>
   </g>
   <g id="patch_4">
    <path d="M 414.72 307.584 
L 414.72 41.472 
" style="fill: none; stroke: #000000; stroke-width: 0.8; stroke-linejoin: miter; stroke-linecap: square"/>
   </g>
   <g id="patch_5">
    <path d="M 57.6 307.584 
L 414.72 307.584 
" style="fill: none; stroke: #000000; stroke-width: 0.8; stroke-linejoin: miter; stroke-linecap: square"/>
   </g>
   <g id="patch_6">
    <path d="M 57.6 41.472 
L 414.72 41.472 
" style="fill: none; stroke: #000000; stroke-width: 0.8; stroke-linejoin: miter; stroke-linecap: square"/>
   </g>
   <g id="text_14">
    <!-- Execution time between S8 S9 -->
    <g transform="translate(144.336563 35.472) scale(0.12 -0.12)">
     <defs>
      <path id="DejaVuSans-45" d="M 628 4666 
L 3578 4666 
L 3578 4134 
L 1259 4134 
L 1259 2753 
L 3481 2753 
L 3481 2222 
L 1259 2222 
L 1259 531 
L 3634 531 
L 3634 0 
L 628 0 
L 628 4666 
z
" transform="scale(0.015625)"/>
      <path id="DejaVuSans-78" d="M 3513 3500 
L 2247 1797 
L 3578 0 
L 2900 0 
L 1881 1375 
L 863 0 
L 184 0 
L 1544 1831 
L 300 3500 
L 978 3500 
L 1906 2253 
L 2834 3500 
L 3513 3500 
z
" transform="scale(0.015625)"/>
      <path id="DejaVuSans-65" d="M 3597 1894 
L 3597 1613 
L 953 1613 
Q 991 1019 1311 708 
Q 1631 397 2203 397 
Q 2534 397 2845 478 
Q 3156 559 3463 722 
L 3463 178 
Q 3153 47 2828 -22 
Q 2503 -91 2169 -91 
Q 1331 -91 842 396 
Q 353 884 353 1716 
Q 353 2575 817 3079 
Q 1281 3584 2069 3584 
Q 2775 3584 3186 3129 
Q 3597 2675 3597 1894 
z
M 3022 2063 
Q 3016 2534 2758 2815 
Q 2500 3097 2075 3097 
Q 1594 3097 1305 2825 
Q 1016 2553 972 2059 
L 3022 2063 
z
" transform="scale(0.015625)"/>
      <path id="DejaVuSans-63" d="M 3122 3366 
L 3122 2828 
Q 2878 2963 2633 3030 
Q 2388 3097 2138 3097 
Q 1578 3097 1268 2742 
Q 959 2388 959 1747 
Q 959 1106 1268 751 
Q 1578 397 2138 397 
Q 2388 397 2633 464 
Q 2878 531 3122 666 
L 3122 134 
Q 2881 22 2623 -34 
Q 2366 -91 2075 -91 
Q 1284 -91 818 406 
Q 353 903 353 1747 
Q 353 2603 823 3093 
Q 1294 3584 2113 3584 
Q 2378 3584 2631 3529 
Q 2884 3475 3122 3366 
z
" transform="scale(0.015625)"/>
      <path id="DejaVuSans-75" d="M 544 1381 
L 544 3500 
L 1119 3500 
L 1119 1403 
Q 1119 906 1312 657 
Q 1506 409 1894 409 
Q 2359 409 2629 706 
Q 2900 1003 2900 1516 
L 2900 3500 
L 3475 3500 
L 3475 0 
L 2900 0 
L 2900 538 
Q 2691 219 2414 64 
Q 2138 -91 1772 -91 
Q 1169 -91 856 284 
Q 544 659 544 1381 
z
M 1991 3584 
L 1991 3584 
z
" transform="scale(0.015625)"/>
      <path id="DejaVuSans-74" d="M 1172 4494 
L 1172 3500 
L 2356 3500 
L 2356 3053 
L 1172 3053 
L 1172 1153 
Q 1172 725 1289 603 
Q 1406 481 1766 481 
L 2356 481 
L 2356 0 
L 1766 0 
Q 1100 0 847 248 
Q 594 497 594 1153 
L 594 3053 
L 172 3053 
L 172 3500 
L 594 3500 
L 594 4494 
L 1172 4494 
z
" transform="scale(0.015625)"/>
      <path id="DejaVuSans-69" d="M 603 3500 
L 1178 3500 
L 1178 0 
L 603 0 
L 603 3500 
z
M 603 4863 
L 1178 4863 
L 1178 4134 
L 603 4134 
L 603 4863 
z
" transform="scale(0.015625)"/>
      <path id="DejaVuSans-6f" d="M 1959 3097 
Q 1497 3097 1228 2736 
Q 959 2375 959 1747 
Q 959 1119 1226 758 
Q 1494 397 1959 397 
Q 2419 397 2687 759 
Q 2956 1122 2956 1747 
Q 2956 2369 2687 2733 
Q 2419 3097 1959 3097 
z
M 1959 3584 
Q 2709 3584 3137 3096 
Q 3566 2609 3566 1747 
Q 3566 888 3137 398 
Q 2709 -91 1959 -91 
Q 1206 -91 779 398 
Q 353 888 353 1747 
Q 353 2609 779 3096 
Q 1206 3584 1959 3584 
z
" transform="scale(0.015625)"/>
      <path id="DejaVuSans-6e" d="M 3513 2113 
L 3513 0 
L 2938 0 
L 2938 2094 
Q 2938 2591 2744 2837 
Q 2550 3084 2163 3084 
Q 1697 3084 1428 2787 
Q 1159 2491 1159 1978 
L 1159 0 
L 581 0 
L 581 3500 
L 1159 3500 
L 1159 2956 
Q 1366 3272 1645 3428 
Q 1925 3584 2291 3584 
Q 2894 3584 3203 3211 
Q 3513 2838 3513 2113 
z
" transform="scale(0.015625)"/>
      <path id="DejaVuSans-20" transform="scale(0.015625)"/>
      <path id="DejaVuSans-6d" d="M 3328 2828 
Q 3544 3216 3844 3400 
Q 4144 3584 4550 3584 
Q 5097 3584 5394 3201 
Q 5691 2819 5691 2113 
L 5691 0 
L 5113 0 
L 5113 2094 
Q 5113 2597 4934 2840 
Q 4756 3084 4391 3084 
Q 3944 3084 3684 2787 
Q 3425 2491 3425 1978 
L 3425 0 
L 2847 0 
L 2847 2094 
Q 2847 2600 2669 2842 
Q 2491 3084 2119 3084 
Q 1678 3084 1418 2786 
Q 1159 2488 1159 1978 
L 1159 0 
L 581 0 
L 581 3500 
L 1159 3500 
L 1159 2956 
Q 1356 3278 1631 3431 
Q 1906 3584 2284 3584 
Q 2666 3584 2933 3390 
Q 3200 3197 3328 2828 
z
" transform="scale(0.015625)"/>
      <path id="DejaVuSans-62" d="M 3116 1747 
Q 3116 2381 2855 2742 
Q 2594 3103 2138 3103 
Q 1681 3103 1420 2742 
Q 1159 2381 1159 1747 
Q 1159 1113 1420 752 
Q 1681 391 2138 391 
Q 2594 391 2855 752 
Q 3116 1113 3116 1747 
z
M 1159 2969 
Q 1341 3281 1617 3432 
Q 1894 3584 2278 3584 
Q 2916 3584 3314 3078 
Q 3713 2572 3713 1747 
Q 3713 922 3314 415 
Q 2916 -91 2278 -91 
Q 1894 -91 1617 61 
Q 1341 213 1159 525 
L 1159 0 
L 581 0 
L 581 4863 
L 1159 4863 
L 1159 2969 
z
" transform="scale(0.015625)"/>
      <path id="DejaVuSans-77" d="M 269 3500 
L 844 3500 
L 1563 769 
L 2278 3500 
L 2956 3500 
L 3675 769 
L 4391 3500 
L 4966 3500 
L 4050 0 
L 3372 0 
L 2619 2869 
L 1863 0 
L 1184 0 
L 269 3500 
z
" transform="scale(0.015625)"/>
      <path id="DejaVuSans-53" d="M 3425 4513 
L 3425 3897 
Q 3066 4069 2747 4153 
Q 2428 4238 2131 4238 
Q 1616 4238 1336 4038 
Q 1056 3838 1056 3469 
Q 1056 3159 1242 3001 
Q 1428 2844 1947 2747 
L 2328 2669 
Q 3034 2534 3370 2195 
Q 3706 1856 3706 1288 
Q 3706 609 3251 259 
Q 2797 -91 1919 -91 
Q 1588 -91 1214 -16 
Q 841 59 441 206 
L 441 856 
Q 825 641 1194 531 
Q 1563 422 1919 422 
Q 2459 422 2753 634 
Q 3047 847 3047 1241 
Q 3047 1584 2836 1778 
Q 2625 1972 2144 2069 
L 1759 2144 
Q 1053 2284 737 2584 
Q 422 2884 422 3419 
Q 422 4038 858 4394 
Q 1294 4750 2059 4750 
Q 2388 4750 2728 4690 
Q 3069 4631 3425 4513 
z
" transform="scale(0.015625)"/>
      <path id="DejaVuSans-39" d="M 703 97 
L 703 672 
Q 941 559 1184 500 
Q 1428 441 1663 441 
Q 2288 441 2617 861 
Q 2947 1281 2994 2138 
Q 2813 1869 2534 1725 
Q 2256 1581 1919 1581 
Q 1219 1581 811 2004 
Q 403 2428 403 3163 
Q 403 3881 828 4315 
Q 1253 4750 1959 4750 
Q 2769 4750 3195 4129 
Q 3622 3509 3622 2328 
Q 3622 1225 3098 567 
Q 2575 -91 1691 -91 
Q 1453 -91 1209 -44 
Q 966 3 703 97 
z
M 1959 2075 
Q 2384 2075 2632 2365 
Q 2881 2656 2881 3163 
Q 2881 3666 2632 3958 
Q 2384 4250 1959 4250 
Q 1534 4250 1286 3958 
Q 1038 3666 1038 3163 
Q 1038 2656 1286 2365 
Q 1534 2075 1959 2075 
z
" transform="scale(0.015625)"/>
     </defs>
     <use xlink:href="#DejaVuSans-45"/>
     <use xlink:href="#DejaVuSans-78" x="63.183594"/>
     <use xlink:href="#DejaVuSans-65" x="119.238281"/>
     <use xlink:href="#DejaVuSans-63" x="180.761719"/>
     <use xlink:href="#DejaVuSans-75" x="235.742188"/>
     <use xlink:href="#DejaVuSans-74" x="299.121094"/>
     <use xlink:href="#DejaVuSans-69" x="338.330078"/>
     <use xlink:href="#DejaVuSans-6f" x="366.113281"/>
     <use xlink:href="#DejaVuSans-6e" x="427.294922"/>
     <use xlink:href="#DejaVuSans-20" x="490.673828"/>
     <use xlink:href="#DejaVuSans-74" x="522.460938"/>
     <use xlink:href="#DejaVuSans-69" x="561.669922"/>
     <use xlink:href="#DejaVuSans-6d" x="589.453125"/>
     <use xlink:href="#DejaVuSans-65" x="686.865234"/>
     <use xlink:href="#DejaVuSans-20" x="748.388672"/>
     <use xlink:href="#DejaVuSans-62" x="780.175781"/>
     <use xlink:href="#DejaVuSans-65" x="843.652344"/>
     <use xlink:href="#DejaVuSans-74" x="905.175781"/>
     <use xlink:href="#DejaVuSans-77" x="944.384766"/>
     <use xlink:href="#DejaVuSans-65" x="1026.171875"/>
     <use xlink:href="#DejaVuSans-65" x="1087.695312"/>
     <use xlink:href="#DejaVuSans-6e" x="1149.21875"/>
     <use xlink:href="#DejaVuSans-20" x="1212.597656"/>
     <use xlink:href="#DejaVuSans-53" x="1244.384766"/>
     <use xlink:href="#DejaVuSans-38" x="1307.861328"/>
     <use xlink:href="#DejaVuSans-20" x="1371.484375"/>
     <use xlink:href="#DejaVuSans-53" x="1403.271484"/>
     <use xlink:href="#DejaVuSans-39" x="1466.748047"/>
    </g>
   </g>
   <g id="legend_1">
    <g id="patch_7">
     <path d="M 299.496562 304.584 
L 410.52 304.584 
Q 411.72 304.584 411.72 303.384 
L 411.72 295.177125 
Q 411.72 293.977125 410.52 293.977125 
L 299.496562 293.977125 
Q 298.296562 293.977125 298.296562 295.177125 
L 298.296562 303.384 
Q 298.296562 304.584 299.496562 304.584 
z
" style="fill: #ffffff; opacity: 0.8; stroke: #cccccc; stroke-linejoin: miter"/>
    </g>
    <g id="line2d_15">
     <path d="M 300.696562 298.836187 
L 306.696562 298.836187 
L 312.696562 298.836187 
" style="fill: none; stroke: #1f77b4; stroke-width: 1.5; stroke-linecap: square"/>
    </g>
    <g id="text_15">
     <!-- Execution time between S8 S9 -->
     <g transform="translate(317.496562 300.936187) scale(0.06 -0.06)">
      <use xlink:href="#DejaVuSans-45"/>
      <use xlink:href="#DejaVuSans-78" x="63.183594"/>
      <use xlink:href="#DejaVuSans-65" x="119.238281"/>
      <use xlink:href="#DejaVuSans-63" x="180.761719"/>
      <use xlink:href="#DejaVuSans-75" x="235.742188"/>
      <use xlink:href="#DejaVuSans-74" x="299.121094"/>
      <use xlink:href="#DejaVuSans-69" x="338.330078"/>
      <use xlink:href="#DejaVuSans-6f" x="366.113281"/>
      <use xlink:href="#DejaVuSans-6e" x="427.294922"/>
      <use xlink:href="#DejaVuSans-20" x="490.673828"/>
      <use xlink:href="#DejaVuSans-74" x="522.460938"/>
      <use xlink:href="#DejaVuSans-69" x="561.669922"/>
      <use xlink:href="#DejaVuSans-6d" x="589.453125"/>
      <use xlink:href="#DejaVuSans-65" x="686.865234"/>
      <use xlink:href="#DejaVuSans-20" x="748.388672"/>
      <use xlink:href="#DejaVuSans-62" x="780.175781"/>
      <use xlink:href="#DejaVuSans-65" x="843.652344"/>
      <use xlink:href="#DejaVuSans-74" x="905.175781"/>
      <use xlink:href="#DejaVuSans-77" x="944.384766"/>
      <use xlink:href="#DejaVuSans-65" x="1026.171875"/>
      <use xlink:href="#DejaVuSans-65" x="1087.695312"/>
      <use xlink:href="#DejaVuSans-6e" x="1149.21875"/>
      <use xlink:href="#DejaVuSans-20" x="1212.597656"/>
      <use xlink:href="#DejaVuSans-53" x="1244.384766"/>
      <use xlink:href="#DejaVuSans-38" x="1307.861328"/>
      <use xlink:href="#DejaVuSans-20" x="1371.484375"/>
      <use xlink:href="#DejaVuSans-53" x="1403.271484"/>
      <use xlink:href="#DejaVuSans-39" x="1466.748047"/>
     </g>
    </g>
   </g>
  </g>
 </g>
 <defs>
  <clipPath id="p6f49e333d7">
   <rect x="57.6" y="41.472" width="357.12" height="266.112"/>
  </clipPath>
 </defs>
</svg>
