<?xml version="1.0" encoding="utf-8" standalone="no"?>
<!DOCTYPE svg PUBLIC "-//W3C//DTD SVG 1.1//EN"
  "http://www.w3.org/Graphics/SVG/1.1/DTD/svg11.dtd">
<svg xmlns:xlink="http://www.w3.org/1999/xlink" width="460.8pt" height="345.6pt" viewBox="0 0 460.8 345.6" xmlns="http://www.w3.org/2000/svg" version="1.1">
 <metadata>
  <rdf:RDF xmlns:dc="http://purl.org/dc/elements/1.1/" xmlns:cc="http://creativecommons.org/ns#" xmlns:rdf="http://www.w3.org/1999/02/22-rdf-syntax-ns#">
   <cc:Work>
    <dc:type rdf:resource="http://purl.org/dc/dcmitype/StillImage"/>
    <dc:date>2024-03-08T13:04:48.234617</dc:date>
    <dc:format>image/svg+xml</dc:format>
    <dc:creator>
     <cc:Agent>
      <dc:title>Matplotlib v3.8.2, https://matplotlib.org/</dc:title>
     </cc:Agent>
    </dc:creator>
   </cc:Work>
  </rdf:RDF>
 </metadata>
 <defs>
  <style type="text/css">*{stroke-linejoin: round; stroke-linecap: butt}</style>
 </defs>
 <g id="figure_1">
  <g id="patch_1">
   <path d="M 0 345.6 
L 460.8 345.6 
L 460.8 0 
L 0 0 
z
" style="fill: #ffffff"/>
  </g>
  <g id="axes_1">
   <g id="patch_2">
    <path d="M 57.6 307.584 
L 414.72 307.584 
L 414.72 41.472 
L 57.6 41.472 
z
" style="fill: #ffffff"/>
   </g>
   <g id="matplotlib.axis_1">
    <g id="xtick_1">
     <g id="line2d_1">
      <defs>
       <path id="m85168370c6" d="M 0 0 
L 0 3.5 
" style="stroke: #000000; stroke-width: 0.8"/>
      </defs>
      <g>
       <use xlink:href="#m85168370c6" x="73.104526" y="307.584" style="stroke: #000000; stroke-width: 0.8"/>
      </g>
     </g>
     <g id="text_1">
      <!-- 0.0 -->
      <g transform="translate(65.152964 322.182437) scale(0.1 -0.1)">
       <defs>
        <path id="DejaVuSans-30" d="M 2034 4250 
Q 1547 4250 1301 3770 
Q 1056 3291 1056 2328 
Q 1056 1369 1301 889 
Q 1547 409 2034 409 
Q 2525 409 2770 889 
Q 3016 1369 3016 2328 
Q 3016 3291 2770 3770 
Q 2525 4250 2034 4250 
z
M 2034 4750 
Q 2819 4750 3233 4129 
Q 3647 3509 3647 2328 
Q 3647 1150 3233 529 
Q 2819 -91 2034 -91 
Q 1250 -91 836 529 
Q 422 1150 422 2328 
Q 422 3509 836 4129 
Q 1250 4750 2034 4750 
z
" transform="scale(0.015625)"/>
        <path id="DejaVuSans-2e" d="M 684 794 
L 1344 794 
L 1344 0 
L 684 0 
L 684 794 
z
" transform="scale(0.015625)"/>
       </defs>
       <use xlink:href="#DejaVuSans-30"/>
       <use xlink:href="#DejaVuSans-2e" x="63.623047"/>
       <use xlink:href="#DejaVuSans-30" x="95.410156"/>
      </g>
     </g>
    </g>
    <g id="xtick_2">
     <g id="line2d_2">
      <g>
       <use xlink:href="#m85168370c6" x="120.451796" y="307.584" style="stroke: #000000; stroke-width: 0.8"/>
      </g>
     </g>
     <g id="text_2">
      <!-- 0.5 -->
      <g transform="translate(112.500233 322.182437) scale(0.1 -0.1)">
       <defs>
        <path id="DejaVuSans-35" d="M 691 4666 
L 3169 4666 
L 3169 4134 
L 1269 4134 
L 1269 2991 
Q 1406 3038 1543 3061 
Q 1681 3084 1819 3084 
Q 2600 3084 3056 2656 
Q 3513 2228 3513 1497 
Q 3513 744 3044 326 
Q 2575 -91 1722 -91 
Q 1428 -91 1123 -41 
Q 819 9 494 109 
L 494 744 
Q 775 591 1075 516 
Q 1375 441 1709 441 
Q 2250 441 2565 725 
Q 2881 1009 2881 1497 
Q 2881 1984 2565 2268 
Q 2250 2553 1709 2553 
Q 1456 2553 1204 2497 
Q 953 2441 691 2322 
L 691 4666 
z
" transform="scale(0.015625)"/>
       </defs>
       <use xlink:href="#DejaVuSans-30"/>
       <use xlink:href="#DejaVuSans-2e" x="63.623047"/>
       <use xlink:href="#DejaVuSans-35" x="95.410156"/>
      </g>
     </g>
    </g>
    <g id="xtick_3">
     <g id="line2d_3">
      <g>
       <use xlink:href="#m85168370c6" x="167.799065" y="307.584" style="stroke: #000000; stroke-width: 0.8"/>
      </g>
     </g>
     <g id="text_3">
      <!-- 1.0 -->
      <g transform="translate(159.847503 322.182437) scale(0.1 -0.1)">
       <defs>
        <path id="DejaVuSans-31" d="M 794 531 
L 1825 531 
L 1825 4091 
L 703 3866 
L 703 4441 
L 1819 4666 
L 2450 4666 
L 2450 531 
L 3481 531 
L 3481 0 
L 794 0 
L 794 531 
z
" transform="scale(0.015625)"/>
       </defs>
       <use xlink:href="#DejaVuSans-31"/>
       <use xlink:href="#DejaVuSans-2e" x="63.623047"/>
       <use xlink:href="#DejaVuSans-30" x="95.410156"/>
      </g>
     </g>
    </g>
    <g id="xtick_4">
     <g id="line2d_4">
      <g>
       <use xlink:href="#m85168370c6" x="215.146335" y="307.584" style="stroke: #000000; stroke-width: 0.8"/>
      </g>
     </g>
     <g id="text_4">
      <!-- 1.5 -->
      <g transform="translate(207.194772 322.182437) scale(0.1 -0.1)">
       <use xlink:href="#DejaVuSans-31"/>
       <use xlink:href="#DejaVuSans-2e" x="63.623047"/>
       <use xlink:href="#DejaVuSans-35" x="95.410156"/>
      </g>
     </g>
    </g>
    <g id="xtick_5">
     <g id="line2d_5">
      <g>
       <use xlink:href="#m85168370c6" x="262.493604" y="307.584" style="stroke: #000000; stroke-width: 0.8"/>
      </g>
     </g>
     <g id="text_5">
      <!-- 2.0 -->
      <g transform="translate(254.542042 322.182437) scale(0.1 -0.1)">
       <defs>
        <path id="DejaVuSans-32" d="M 1228 531 
L 3431 531 
L 3431 0 
L 469 0 
L 469 531 
Q 828 903 1448 1529 
Q 2069 2156 2228 2338 
Q 2531 2678 2651 2914 
Q 2772 3150 2772 3378 
Q 2772 3750 2511 3984 
Q 2250 4219 1831 4219 
Q 1534 4219 1204 4116 
Q 875 4013 500 3803 
L 500 4441 
Q 881 4594 1212 4672 
Q 1544 4750 1819 4750 
Q 2544 4750 2975 4387 
Q 3406 4025 3406 3419 
Q 3406 3131 3298 2873 
Q 3191 2616 2906 2266 
Q 2828 2175 2409 1742 
Q 1991 1309 1228 531 
z
" transform="scale(0.015625)"/>
       </defs>
       <use xlink:href="#DejaVuSans-32"/>
       <use xlink:href="#DejaVuSans-2e" x="63.623047"/>
       <use xlink:href="#DejaVuSans-30" x="95.410156"/>
      </g>
     </g>
    </g>
    <g id="xtick_6">
     <g id="line2d_6">
      <g>
       <use xlink:href="#m85168370c6" x="309.840874" y="307.584" style="stroke: #000000; stroke-width: 0.8"/>
      </g>
     </g>
     <g id="text_6">
      <!-- 2.5 -->
      <g transform="translate(301.889311 322.182437) scale(0.1 -0.1)">
       <use xlink:href="#DejaVuSans-32"/>
       <use xlink:href="#DejaVuSans-2e" x="63.623047"/>
       <use xlink:href="#DejaVuSans-35" x="95.410156"/>
      </g>
     </g>
    </g>
    <g id="xtick_7">
     <g id="line2d_7">
      <g>
       <use xlink:href="#m85168370c6" x="357.188143" y="307.584" style="stroke: #000000; stroke-width: 0.8"/>
      </g>
     </g>
     <g id="text_7">
      <!-- 3.0 -->
      <g transform="translate(349.236581 322.182437) scale(0.1 -0.1)">
       <defs>
        <path id="DejaVuSans-33" d="M 2597 2516 
Q 3050 2419 3304 2112 
Q 3559 1806 3559 1356 
Q 3559 666 3084 287 
Q 2609 -91 1734 -91 
Q 1441 -91 1130 -33 
Q 819 25 488 141 
L 488 750 
Q 750 597 1062 519 
Q 1375 441 1716 441 
Q 2309 441 2620 675 
Q 2931 909 2931 1356 
Q 2931 1769 2642 2001 
Q 2353 2234 1838 2234 
L 1294 2234 
L 1294 2753 
L 1863 2753 
Q 2328 2753 2575 2939 
Q 2822 3125 2822 3475 
Q 2822 3834 2567 4026 
Q 2313 4219 1838 4219 
Q 1578 4219 1281 4162 
Q 984 4106 628 3988 
L 628 4550 
Q 988 4650 1302 4700 
Q 1616 4750 1894 4750 
Q 2613 4750 3031 4423 
Q 3450 4097 3450 3541 
Q 3450 3153 3228 2886 
Q 3006 2619 2597 2516 
z
" transform="scale(0.015625)"/>
       </defs>
       <use xlink:href="#DejaVuSans-33"/>
       <use xlink:href="#DejaVuSans-2e" x="63.623047"/>
       <use xlink:href="#DejaVuSans-30" x="95.410156"/>
      </g>
     </g>
    </g>
    <g id="xtick_8">
     <g id="line2d_8">
      <g>
       <use xlink:href="#m85168370c6" x="404.535413" y="307.584" style="stroke: #000000; stroke-width: 0.8"/>
      </g>
     </g>
     <g id="text_8">
      <!-- 3.5 -->
      <g transform="translate(396.58385 322.182437) scale(0.1 -0.1)">
       <use xlink:href="#DejaVuSans-33"/>
       <use xlink:href="#DejaVuSans-2e" x="63.623047"/>
       <use xlink:href="#DejaVuSans-35" x="95.410156"/>
      </g>
     </g>
    </g>
    <g id="text_9">
     <!-- 1e6 -->
     <g transform="translate(395.841875 334.860562) scale(0.1 -0.1)">
      <defs>
       <path id="DejaVuSans-65" d="M 3597 1894 
L 3597 1613 
L 953 1613 
Q 991 1019 1311 708 
Q 1631 397 2203 397 
Q 2534 397 2845 478 
Q 3156 559 3463 722 
L 3463 178 
Q 3153 47 2828 -22 
Q 2503 -91 2169 -91 
Q 1331 -91 842 396 
Q 353 884 353 1716 
Q 353 2575 817 3079 
Q 1281 3584 2069 3584 
Q 2775 3584 3186 3129 
Q 3597 2675 3597 1894 
z
M 3022 2063 
Q 3016 2534 2758 2815 
Q 2500 3097 2075 3097 
Q 1594 3097 1305 2825 
Q 1016 2553 972 2059 
L 3022 2063 
z
" transform="scale(0.015625)"/>
       <path id="DejaVuSans-36" d="M 2113 2584 
Q 1688 2584 1439 2293 
Q 1191 2003 1191 1497 
Q 1191 994 1439 701 
Q 1688 409 2113 409 
Q 2538 409 2786 701 
Q 3034 994 3034 1497 
Q 3034 2003 2786 2293 
Q 2538 2584 2113 2584 
z
M 3366 4563 
L 3366 3988 
Q 3128 4100 2886 4159 
Q 2644 4219 2406 4219 
Q 1781 4219 1451 3797 
Q 1122 3375 1075 2522 
Q 1259 2794 1537 2939 
Q 1816 3084 2150 3084 
Q 2853 3084 3261 2657 
Q 3669 2231 3669 1497 
Q 3669 778 3244 343 
Q 2819 -91 2113 -91 
Q 1303 -91 875 529 
Q 447 1150 447 2328 
Q 447 3434 972 4092 
Q 1497 4750 2381 4750 
Q 2619 4750 2861 4703 
Q 3103 4656 3366 4563 
z
" transform="scale(0.015625)"/>
      </defs>
      <use xlink:href="#DejaVuSans-31"/>
      <use xlink:href="#DejaVuSans-65" x="63.623047"/>
      <use xlink:href="#DejaVuSans-36" x="125.146484"/>
     </g>
    </g>
   </g>
   <g id="matplotlib.axis_2">
    <g id="ytick_1">
     <g id="line2d_9">
      <defs>
       <path id="m2749b1a991" d="M 0 0 
L -3.5 0 
" style="stroke: #000000; stroke-width: 0.8"/>
      </defs>
      <g>
       <use xlink:href="#m2749b1a991" x="57.6" y="295.488" style="stroke: #000000; stroke-width: 0.8"/>
      </g>
     </g>
     <g id="text_10">
      <!-- 0 -->
      <g transform="translate(44.2375 299.287219) scale(0.1 -0.1)">
       <use xlink:href="#DejaVuSans-30"/>
      </g>
     </g>
    </g>
    <g id="ytick_2">
     <g id="line2d_10">
      <g>
       <use xlink:href="#m2749b1a991" x="57.6" y="263.656421" style="stroke: #000000; stroke-width: 0.8"/>
      </g>
     </g>
     <g id="text_11">
      <!-- 5 -->
      <g transform="translate(44.2375 267.45564) scale(0.1 -0.1)">
       <use xlink:href="#DejaVuSans-35"/>
      </g>
     </g>
    </g>
    <g id="ytick_3">
     <g id="line2d_11">
      <g>
       <use xlink:href="#m2749b1a991" x="57.6" y="231.824842" style="stroke: #000000; stroke-width: 0.8"/>
      </g>
     </g>
     <g id="text_12">
      <!-- 10 -->
      <g transform="translate(37.875 235.624061) scale(0.1 -0.1)">
       <use xlink:href="#DejaVuSans-31"/>
       <use xlink:href="#DejaVuSans-30" x="63.623047"/>
      </g>
     </g>
    </g>
    <g id="ytick_4">
     <g id="line2d_12">
      <g>
       <use xlink:href="#m2749b1a991" x="57.6" y="199.993263" style="stroke: #000000; stroke-width: 0.8"/>
      </g>
     </g>
     <g id="text_13">
      <!-- 15 -->
      <g transform="translate(37.875 203.792482) scale(0.1 -0.1)">
       <use xlink:href="#DejaVuSans-31"/>
       <use xlink:href="#DejaVuSans-35" x="63.623047"/>
      </g>
     </g>
    </g>
    <g id="ytick_5">
     <g id="line2d_13">
      <g>
       <use xlink:href="#m2749b1a991" x="57.6" y="168.161684" style="stroke: #000000; stroke-width: 0.8"/>
      </g>
     </g>
     <g id="text_14">
      <!-- 20 -->
      <g transform="translate(37.875 171.960903) scale(0.1 -0.1)">
       <use xlink:href="#DejaVuSans-32"/>
       <use xlink:href="#DejaVuSans-30" x="63.623047"/>
      </g>
     </g>
    </g>
    <g id="ytick_6">
     <g id="line2d_14">
      <g>
       <use xlink:href="#m2749b1a991" x="57.6" y="136.330105" style="stroke: #000000; stroke-width: 0.8"/>
      </g>
     </g>
     <g id="text_15">
      <!-- 25 -->
      <g transform="translate(37.875 140.129324) scale(0.1 -0.1)">
       <use xlink:href="#DejaVuSans-32"/>
       <use xlink:href="#DejaVuSans-35" x="63.623047"/>
      </g>
     </g>
    </g>
    <g id="ytick_7">
     <g id="line2d_15">
      <g>
       <use xlink:href="#m2749b1a991" x="57.6" y="104.498526" style="stroke: #000000; stroke-width: 0.8"/>
      </g>
     </g>
     <g id="text_16">
      <!-- 30 -->
      <g transform="translate(37.875 108.297745) scale(0.1 -0.1)">
       <use xlink:href="#DejaVuSans-33"/>
       <use xlink:href="#DejaVuSans-30" x="63.623047"/>
      </g>
     </g>
    </g>
    <g id="ytick_8">
     <g id="line2d_16">
      <g>
       <use xlink:href="#m2749b1a991" x="57.6" y="72.666947" style="stroke: #000000; stroke-width: 0.8"/>
      </g>
     </g>
     <g id="text_17">
      <!-- 35 -->
      <g transform="translate(37.875 76.466166) scale(0.1 -0.1)">
       <use xlink:href="#DejaVuSans-33"/>
       <use xlink:href="#DejaVuSans-35" x="63.623047"/>
      </g>
     </g>
    </g>
   </g>
   <g id="line2d_17">
    <path d="M 73.832727 289.121684 
L 75.161292 263.656421 
L 75.37246 270.022737 
L 75.490829 263.656421 
L 75.702944 270.022737 
L 75.820366 263.656421 
L 76.032481 270.022737 
L 76.148956 263.656421 
L 76.362965 270.022737 
L 76.486068 263.656421 
L 76.700078 270.022737 
L 76.819393 263.656421 
L 77.030562 270.022737 
L 77.151771 263.656421 
L 77.359152 270.022737 
L 77.484149 263.656421 
L 77.688689 270.022737 
L 77.81842 263.656421 
L 78.024855 270.022737 
L 78.153639 263.656421 
L 78.359126 270.022737 
L 78.488858 263.656421 
L 78.690557 270.022737 
L 78.815554 263.656421 
L 79.022935 270.022737 
L 80.35434 295.488 
L 84.900625 289.121684 
L 85.162929 231.824842 
L 86.10514 212.725895 
L 86.431836 206.359579 
L 86.5824 244.557474 
L 86.701715 270.022737 
L 86.766107 263.656421 
L 86.989587 270.022737 
L 87.096591 263.656421 
L 87.312495 270.022737 
L 87.427075 263.656421 
L 87.643926 270.022737 
L 87.763241 263.656421 
L 87.970622 270.022737 
L 88.08899 263.656421 
L 88.304894 270.022737 
L 88.420421 263.656421 
L 88.635378 270.022737 
L 88.745223 263.656421 
L 88.966809 270.022737 
L 89.07476 263.656421 
L 89.302027 270.022737 
L 89.410926 263.656421 
L 89.628723 270.022737 
L 89.736675 263.656421 
L 89.959207 270.022737 
L 90.063371 263.656421 
L 90.28401 270.022737 
L 90.399537 263.656421 
L 90.613547 270.022737 
L 90.734756 263.656421 
L 90.949712 270.022737 
L 91.070921 263.656421 
L 91.275461 270.022737 
L 91.39383 263.656421 
L 91.602158 270.022737 
L 91.732836 263.656421 
L 91.938323 270.022737 
L 92.062373 263.656421 
L 92.273542 270.022737 
L 92.401379 263.656421 
L 92.609707 270.022737 
L 92.730916 263.656421 
L 92.932616 270.022737 
L 93.05856 263.656421 
L 93.271622 270.022737 
L 93.384309 263.656421 
L 93.601159 270.022737 
L 93.713846 263.656421 
L 93.940166 270.022737 
L 94.04433 263.656421 
L 94.269703 270.022737 
L 94.371026 263.656421 
L 94.597346 270.022737 
L 94.700563 263.656421 
L 94.924042 270.022737 
L 95.035782 263.656421 
L 95.253579 270.022737 
L 95.370053 263.656421 
L 95.584063 270.022737 
L 95.698643 263.656421 
L 95.909812 270.022737 
L 96.02818 263.656421 
L 96.240296 270.022737 
L 96.358664 263.656421 
L 96.574568 270.022737 
L 96.692936 263.656421 
L 96.908839 270.022737 
L 97.021526 263.656421 
L 97.23743 270.022737 
L 97.354851 263.656421 
L 97.566967 270.022737 
L 97.691016 263.656421 
L 97.89745 270.022737 
L 98.016766 263.656421 
L 98.231722 270.022737 
L 98.344409 263.656421 
L 98.560312 270.022737 
L 98.67584 263.656421 
L 98.893637 270.022737 
L 99.229803 276.389053 
L 99.336807 270.022737 
L 99.555552 276.389053 
L 99.660663 270.022737 
L 99.884142 276.389053 
L 99.999669 270.022737 
L 100.214626 276.389053 
L 100.337729 270.022737 
L 100.674841 263.656421 
L 100.875594 270.022737 
L 101.011954 263.656421 
L 101.199449 270.022737 
L 101.340544 263.656421 
L 101.538456 270.022737 
L 101.671975 263.656421 
L 101.876515 270.022737 
L 102.009087 263.656421 
L 102.213628 270.022737 
L 102.341465 263.656421 
L 102.55074 270.022737 
L 102.671949 263.656421 
L 102.87933 270.022737 
L 103.000539 263.656421 
L 103.211708 270.022737 
L 103.332917 263.656421 
L 103.547874 270.022737 
L 103.671923 263.656421 
L 103.881198 270.022737 
L 104.002407 263.656421 
L 104.210735 270.022737 
L 104.333838 263.656421 
L 104.539325 270.022737 
L 104.665269 263.656421 
L 104.87265 270.022737 
L 104.998594 263.656421 
L 105.211657 270.022737 
L 105.329078 263.656421 
L 105.541194 270.022737 
L 105.664297 263.656421 
L 105.872625 270.022737 
L 105.994781 263.656421 
L 106.204055 270.022737 
L 106.32053 263.656421 
L 106.53738 270.022737 
L 106.653855 263.656421 
L 106.868811 270.022737 
L 106.987179 263.656421 
L 107.203083 270.022737 
L 107.316716 263.656421 
L 107.534514 270.022737 
L 107.638678 263.656421 
L 107.859316 270.022737 
L 107.972949 263.656421 
L 108.193588 270.022737 
L 108.300593 263.656421 
L 108.525966 270.022737 
L 108.632023 263.656421 
L 108.855503 270.022737 
L 108.966295 263.656421 
L 109.178411 270.022737 
L 109.295832 263.656421 
L 109.511736 270.022737 
L 109.630104 263.656421 
L 109.839379 270.022737 
L 109.957747 263.656421 
L 110.17081 270.022737 
L 110.28539 263.656421 
L 110.505081 270.022737 
L 110.611139 263.656421 
L 110.835565 270.022737 
L 110.941623 263.656421 
L 111.16889 270.022737 
L 111.270213 263.656421 
L 111.49748 270.022737 
L 111.600697 263.656421 
L 111.824176 270.022737 
L 111.934969 263.656421 
L 112.150872 270.022737 
L 113.473755 295.488 
L 114.009726 282.755368 
L 115.185832 250.923789 
L 115.31367 257.290105 
L 115.420675 250.923789 
L 115.550406 257.290105 
L 115.659305 250.923789 
L 115.780514 257.290105 
L 115.894148 250.923789 
L 116.015357 257.290105 
L 116.129937 250.923789 
L 116.250199 257.290105 
L 116.368567 250.923789 
L 116.488829 257.290105 
L 116.605304 250.923789 
L 116.72746 257.290105 
L 116.848669 250.923789 
L 116.962302 257.290105 
L 117.085405 250.923789 
L 117.199985 257.290105 
L 117.322141 250.923789 
L 117.434828 257.290105 
L 117.557931 250.923789 
L 117.671564 257.290105 
L 117.789932 250.923789 
L 117.910194 257.290105 
L 118.030456 250.923789 
L 118.146931 257.290105 
L 118.263405 250.923789 
L 118.389349 257.290105 
L 118.50677 250.923789 
L 129.928825 244.557474 
L 130.134312 161.795368 
L 130.227113 168.161684 
L 130.351163 155.429053 
L 130.583165 59.934316 
L 130.694904 66.300632 
L 130.806644 59.934316 
L 130.934481 66.300632 
L 131.041486 59.934316 
L 131.16743 66.300632 
L 131.28201 59.934316 
L 131.470452 72.666947 
L 131.674993 155.429053 
L 131.753589 149.062737 
L 131.89279 161.795368 
L 131.963811 193.626947 
L 131.990325 187.260632 
L 132.465692 174.528 
L 132.529137 199.993263 
L 132.940112 187.260632 
L 133.029124 199.993263 
L 133.057533 212.725895 
L 133.177795 206.359579 
L 133.415478 199.993263 
L 133.561308 206.359579 
L 133.60392 225.458526 
L 133.651268 219.092211 
L 133.888004 212.725895 
L 134.025311 219.092211 
L 134.067924 238.191158 
L 134.352007 231.824842 
L 134.522457 238.191158 
L 134.56507 257.290105 
L 134.591584 250.923789 
L 134.832108 244.557474 
L 135.062216 250.923789 
L 135.066951 244.557474 
L 135.095359 257.290105 
L 135.191948 263.656421 
L 135.542318 257.290105 
L 135.557469 263.656421 
L 135.785682 257.290105 
L 135.892687 263.656421 
L 136.024313 257.290105 
L 136.132265 263.656421 
L 136.261996 257.290105 
L 136.373736 263.656421 
L 136.498732 257.290105 
L 136.607631 263.656421 
L 136.975046 250.923789 
L 137.083945 257.290105 
L 137.207994 250.923789 
L 137.326363 257.290105 
L 137.564993 263.656421 
L 137.672945 257.290105 
L 137.802676 263.656421 
L 137.912522 257.290105 
L 138.040359 263.656421 
L 138.14547 257.290105 
L 138.280884 263.656421 
L 138.382207 257.290105 
L 138.516673 263.656421 
L 138.617049 257.290105 
L 138.749622 263.656421 
L 138.856626 257.290105 
L 139.097151 250.923789 
L 139.214572 257.290105 
L 139.333887 250.923789 
L 139.454149 257.290105 
L 139.575358 250.923789 
L 139.687098 257.290105 
L 139.813988 250.923789 
L 139.923834 257.290105 
L 140.049778 250.923789 
L 140.158676 257.290105 
L 140.282726 250.923789 
L 140.398253 257.290105 
L 140.515675 250.923789 
L 140.638778 257.290105 
L 140.752411 250.923789 
L 140.874567 257.290105 
L 140.987254 250.923789 
L 141.116985 257.290105 
L 141.22399 250.923789 
L 141.354668 257.290105 
L 141.459779 250.923789 
L 141.590458 257.290105 
L 141.695569 250.923789 
L 141.823406 257.290105 
L 141.93704 250.923789 
L 142.057302 257.290105 
L 142.169988 250.923789 
L 142.293091 257.290105 
L 142.411459 250.923789 
L 142.528881 257.290105 
L 142.765617 263.656421 
L 142.885879 257.290105 
L 143.000459 263.656421 
L 143.119775 257.290105 
L 143.237196 263.656421 
L 143.361246 257.290105 
L 143.47772 263.656421 
L 143.602717 257.290105 
L 143.711615 263.656421 
L 143.843241 257.290105 
L 143.95214 263.656421 
L 144.079977 257.290105 
L 144.322395 250.923789 
L 144.427506 257.290105 
L 144.554397 250.923789 
L 144.661402 257.290105 
L 144.79208 250.923789 
L 144.902873 257.290105 
L 145.028816 250.923789 
L 145.143397 257.290105 
L 145.260818 250.923789 
L 145.384868 257.290105 
L 145.499448 250.923789 
L 145.621604 257.290105 
L 145.737132 250.923789 
L 145.863075 257.290105 
L 145.978603 250.923789 
L 146.096024 257.290105 
L 146.219127 250.923789 
L 146.333707 257.290105 
L 146.452075 250.923789 
L 146.570444 257.290105 
L 146.686918 250.923789 
L 146.802445 257.290105 
L 146.923654 250.923789 
L 147.041075 257.290105 
L 147.159444 250.923789 
L 147.277812 257.290105 
L 147.399968 250.923789 
L 147.52023 257.290105 
L 147.639545 250.923789 
L 147.759807 257.290105 
L 147.877228 250.923789 
L 147.993702 257.290105 
L 148.113018 250.923789 
L 148.228545 257.290105 
L 148.355436 250.923789 
L 148.465281 257.290105 
L 148.587437 250.923789 
L 148.700124 257.290105 
L 148.821333 250.923789 
L 148.941595 257.290105 
L 149.061857 250.923789 
L 149.181172 257.290105 
L 149.304275 250.923789 
L 149.417908 257.290105 
L 149.537223 250.923789 
L 149.653698 257.290105 
L 149.778695 250.923789 
L 149.897063 257.290105 
L 150.018272 250.923789 
L 150.129064 257.290105 
L 150.255955 250.923789 
L 150.36296 257.290105 
L 150.497426 250.923789 
L 150.603484 257.290105 
L 150.734162 250.923789 
L 150.844955 257.290105 
L 150.974687 250.923789 
L 151.078851 257.290105 
L 151.210476 250.923789 
L 151.319375 257.290105 
L 151.447212 250.923789 
L 151.558952 257.290105 
L 151.683002 250.923789 
L 151.797582 257.290105 
L 151.92542 250.923789 
L 152.039053 257.290105 
L 152.157421 250.923789 
L 152.274843 257.290105 
L 152.397945 250.923789 
L 152.516314 257.290105 
L 152.637523 250.923789 
L 152.752103 257.290105 
L 152.878994 250.923789 
L 152.988839 257.290105 
L 153.123306 250.923789 
L 153.224629 257.290105 
L 153.355307 250.923789 
L 153.4661 257.290105 
L 153.589203 250.923789 
L 153.699048 257.290105 
L 153.825939 250.923789 
L 153.939573 257.290105 
L 154.060782 250.923789 
L 154.178203 257.290105 
L 154.296571 250.923789 
L 154.420621 257.290105 
L 154.533307 250.923789 
L 154.663986 257.290105 
L 154.770044 250.923789 
L 154.896934 257.290105 
L 155.012462 250.923789 
L 155.13083 257.290105 
L 155.249198 250.923789 
L 155.367566 257.290105 
L 155.483094 250.923789 
L 155.602409 257.290105 
L 155.716989 250.923789 
L 155.837251 257.290105 
L 155.948991 250.923789 
L 156.074934 257.290105 
L 156.18478 250.923789 
L 156.311671 257.290105 
L 156.419623 250.923789 
L 156.553142 257.290105 
L 156.662041 250.923789 
L 156.789878 257.290105 
L 156.900671 250.923789 
L 157.023774 257.290105 
L 157.13646 250.923789 
L 157.258616 257.290105 
L 157.378878 250.923789 
L 157.490618 257.290105 
L 157.611827 250.923789 
L 157.726407 257.290105 
L 157.843828 250.923789 
L 157.96125 257.290105 
L 158.080565 250.923789 
L 158.202721 257.290105 
L 158.31446 250.923789 
L 158.442298 257.290105 
L 158.549303 250.923789 
L 158.67714 257.290105 
L 158.787933 250.923789 
L 158.920505 257.290105 
L 159.028457 250.923789 
L 159.153454 257.290105 
L 159.267087 250.923789 
L 159.385456 257.290105 
L 159.505718 250.923789 
L 159.622192 257.290105 
L 159.742454 250.923789 
L 159.85514 257.290105 
L 159.975402 250.923789 
L 160.09093 257.290105 
L 160.211192 250.923789 
L 160.328613 257.290105 
L 160.446981 250.923789 
L 160.570084 257.290105 
L 160.680877 250.923789 
L 160.808714 257.290105 
L 160.914772 250.923789 
L 161.047345 257.290105 
L 161.149615 250.923789 
L 161.283134 257.290105 
L 161.384457 250.923789 
L 161.516083 257.290105 
L 161.624981 250.923789 
L 161.751872 257.290105 
L 161.85793 250.923789 
L 161.988608 257.290105 
L 162.094666 250.923789 
L 162.222504 257.290105 
L 162.331403 250.923789 
L 162.456399 257.290105 
L 162.567192 250.923789 
L 162.691242 257.290105 
L 162.802981 250.923789 
L 162.926084 257.290105 
L 163.046346 250.923789 
L 163.166608 257.290105 
L 163.289711 250.923789 
L 163.399557 257.290105 
L 163.528342 250.923789 
L 163.636293 257.290105 
L 163.767919 250.923789 
L 163.872083 257.290105 
L 164.003708 250.923789 
L 164.108819 257.290105 
L 164.239498 250.923789 
L 164.344609 257.290105 
L 164.475287 250.923789 
L 164.587973 257.290105 
L 164.708236 250.923789 
L 164.830392 257.290105 
L 164.942131 250.923789 
L 165.069969 257.290105 
L 165.17792 250.923789 
L 165.309546 257.290105 
L 165.408975 250.923789 
L 165.545335 257.290105 
L 165.645711 250.923789 
L 165.781125 257.290105 
L 165.881501 250.923789 
L 166.015967 257.290105 
L 166.11729 250.923789 
L 166.249863 257.290105 
L 166.356867 250.923789 
L 166.483758 257.290105 
L 166.595498 250.923789 
L 166.950602 263.656421 
L 167.071811 257.290105 
L 167.187339 263.656421 
L 167.301919 257.290105 
L 167.423128 263.656421 
L 167.538655 257.290105 
L 167.65797 263.656421 
L 167.775392 257.290105 
L 167.898495 263.656421 
L 168.011181 257.290105 
L 168.137125 263.656421 
L 168.246024 257.290105 
L 168.485601 250.923789 
L 168.612491 257.290105 
L 168.722337 250.923789 
L 168.843546 257.290105 
L 168.962861 250.923789 
L 169.079335 257.290105 
L 169.198651 250.923789 
L 169.317019 257.290105 
L 169.43444 250.923789 
L 169.551861 257.290105 
L 169.676858 250.923789 
L 169.787651 257.290105 
L 169.9117 250.923789 
L 170.027228 257.290105 
L 170.152225 250.923789 
L 170.263964 257.290105 
L 170.390855 250.923789 
L 170.504488 257.290105 
L 170.623803 250.923789 
L 170.739331 257.290105 
L 170.855805 250.923789 
L 170.97512 257.290105 
L 171.098223 250.923789 
L 171.217538 257.290105 
L 171.338747 250.923789 
L 171.452381 257.290105 
L 171.577377 250.923789 
L 171.693852 257.290105 
L 171.81222 250.923789 
L 171.932482 257.290105 
L 172.05085 250.923789 
L 172.165431 257.290105 
L 172.285693 250.923789 
L 172.397432 257.290105 
L 172.528111 250.923789 
L 172.63985 257.290105 
L 172.768635 250.923789 
L 172.880374 257.290105 
L 173.00253 250.923789 
L 173.119005 257.290105 
L 173.23832 250.923789 
L 173.353847 257.290105 
L 173.468427 250.923789 
L 173.592477 257.290105 
L 173.705164 250.923789 
L 173.82732 257.290105 
L 173.945688 250.923789 
L 174.069738 257.290105 
L 174.182424 250.923789 
L 174.309315 257.290105 
L 174.419161 250.923789 
L 174.544157 257.290105 
L 174.659685 250.923789 
L 174.779 257.290105 
L 174.900209 250.923789 
L 175.010054 257.290105 
L 175.140733 250.923789 
L 175.246791 257.290105 
L 175.376522 250.923789 
L 175.487315 257.290105 
L 176.918149 295.488 
L 181.481479 289.121684 
L 181.741889 174.528 
L 182.726712 149.062737 
L 182.967237 142.696421 
L 183.051515 161.795368 
L 183.283516 257.290105 
L 183.446391 250.923789 
L 183.556237 257.290105 
L 183.685021 250.923789 
L 183.792973 257.290105 
L 183.91797 250.923789 
L 184.030656 257.290105 
L 184.153759 250.923789 
L 184.26834 257.290105 
L 185.694439 295.488 
L 186.255031 282.755368 
L 186.904636 270.022737 
L 187.461439 276.389053 
L 188.443422 295.488 
L 192.86471 289.121684 
L 193.112809 282.755368 
L 193.348599 238.191158 
L 193.518102 231.824842 
L 194.180017 219.092211 
L 194.403496 225.458526 
L 194.511448 219.092211 
L 194.652543 225.458526 
L 194.887385 263.656421 
L 195.057835 270.022737 
L 195.16484 263.656421 
L 195.39116 270.022737 
L 195.49343 263.656421 
L 195.71975 270.022737 
L 195.833384 263.656421 
L 196.050234 270.022737 
L 196.166708 263.656421 
L 196.37693 270.022737 
L 196.501927 263.656421 
L 196.703626 270.022737 
L 196.837146 263.656421 
L 197.032216 270.022737 
L 197.160054 263.656421 
L 197.37217 270.022737 
L 197.500007 263.656421 
L 197.705495 270.022737 
L 197.829544 263.656421 
L 198.040713 270.022737 
L 198.161922 263.656421 
L 198.699787 276.389053 
L 199.701656 295.488 
L 204.215744 289.121684 
L 204.478048 231.824842 
L 205.445826 212.725895 
L 205.755477 219.092211 
L 206.017781 270.022737 
L 206.327432 276.389053 
L 206.435384 270.022737 
L 206.650341 276.389053 
L 206.772497 270.022737 
L 206.984613 276.389053 
L 207.109609 270.022737 
L 207.324566 276.389053 
L 207.432518 270.022737 
L 207.758267 263.656421 
L 207.97417 270.022737 
L 208.08591 263.656421 
L 208.311283 270.022737 
L 208.420182 263.656421 
L 208.649343 270.022737 
L 208.754453 263.656421 
L 208.971304 270.022737 
L 209.08115 263.656421 
L 209.298 270.022737 
L 209.416368 263.656421 
L 209.624696 270.022737 
L 209.744958 263.656421 
L 209.958968 270.022737 
L 210.083965 263.656421 
L 210.29324 270.022737 
L 210.42013 263.656421 
L 210.619936 270.022737 
L 210.750614 263.656421 
L 210.956101 270.022737 
L 211.08678 263.656421 
L 211.283745 270.022737 
L 211.418211 263.656421 
L 211.622751 270.022737 
L 211.746801 263.656421 
L 211.959864 270.022737 
L 212.069709 263.656421 
L 212.289401 270.022737 
L 212.402087 263.656421 
L 212.625566 270.022737 
L 212.738253 263.656421 
L 212.956997 270.022737 
L 213.077259 263.656421 
L 213.285587 270.022737 
L 213.411531 263.656421 
L 213.609442 270.022737 
L 213.73728 263.656421 
L 213.940873 270.022737 
L 214.072499 263.656421 
L 214.277039 270.022737 
L 214.409611 263.656421 
L 214.616045 270.022737 
L 214.740095 263.656421 
L 214.950317 270.022737 
L 215.076261 263.656421 
L 215.276066 270.022737 
L 215.407692 263.656421 
L 215.611285 270.022737 
L 215.737229 263.656421 
L 215.949345 270.022737 
L 216.063925 263.656421 
L 216.278882 270.022737 
L 216.392515 263.656421 
L 216.615047 270.022737 
L 216.724893 263.656421 
L 216.947425 270.022737 
L 217.05443 263.656421 
L 217.276015 270.022737 
L 217.385861 263.656421 
L 217.602711 270.022737 
L 217.720132 263.656421 
L 217.931301 270.022737 
L 218.048722 263.656421 
L 218.263679 270.022737 
L 218.372578 263.656421 
L 218.593216 270.022737 
L 218.70969 263.656421 
L 218.925594 270.022737 
L 219.045856 263.656421 
L 219.258919 270.022737 
L 219.378234 263.656421 
L 219.587509 270.022737 
L 219.714399 263.656421 
L 219.912311 270.022737 
L 220.044883 263.656421 
L 220.248477 270.022737 
L 220.378208 263.656421 
L 220.585589 270.022737 
L 220.703957 263.656421 
L 220.91702 270.022737 
L 221.033494 263.656421 
L 221.253186 270.022737 
L 221.367766 263.656421 
L 221.58367 270.022737 
L 221.697303 263.656421 
L 221.916994 270.022737 
L 222.023999 263.656421 
L 222.242744 270.022737 
L 222.357324 263.656421 
L 222.572281 270.022737 
L 222.688755 263.656421 
L 222.906552 270.022737 
L 223.029655 263.656421 
L 223.236089 270.022737 
L 223.360139 263.656421 
L 223.563732 270.022737 
L 223.694411 263.656421 
L 223.89611 270.022737 
L 224.019213 263.656421 
L 224.227541 270.022737 
L 224.349697 263.656421 
L 224.568441 270.022737 
L 224.683022 263.656421 
L 224.898925 270.022737 
L 225.019187 263.656421 
L 225.233197 270.022737 
L 225.353459 263.656421 
L 225.558946 270.022737 
L 225.685837 263.656421 
L 225.888483 270.022737 
L 226.01348 263.656421 
L 226.221808 270.022737 
L 226.339229 263.656421 
L 243.577423 257.290105 
L 243.603938 263.656421 
L 243.746926 257.290105 
L 243.909801 168.161684 
L 243.938209 174.528 
L 244.126652 168.161684 
L 244.316988 72.666947 
L 244.511111 66.300632 
L 244.597283 72.666947 
L 244.886102 59.934316 
L 244.923033 66.300632 
L 245.076438 59.934316 
L 245.11621 66.300632 
L 245.266774 59.934316 
L 245.40124 129.963789 
L 245.451428 155.429053 
L 245.453322 149.062737 
L 245.646499 142.696421 
L 245.861456 225.458526 
L 246.210878 212.725895 
L 246.356708 219.092211 
L 246.390798 238.191158 
L 246.402161 231.824842 
L 246.779993 219.092211 
L 246.909724 231.824842 
L 246.937185 244.557474 
L 246.967488 238.191158 
L 247.34816 225.458526 
L 247.444748 238.191158 
L 247.461793 244.557474 
L 247.539443 238.191158 
L 247.727885 231.824842 
L 247.73546 238.191158 
L 247.914433 231.824842 
L 247.968409 244.557474 
L 248.103822 238.191158 
L 248.136965 244.557474 
L 248.295105 238.191158 
L 248.431465 244.557474 
L 248.489229 238.191158 
L 248.509115 244.557474 
L 248.67483 238.191158 
L 248.699451 244.557474 
L 248.86706 238.191158 
L 248.889787 244.557474 
L 249.054555 238.191158 
L 249.08107 244.557474 
L 249.248679 238.191158 
L 249.269512 244.557474 
L 249.438068 238.191158 
L 249.45606 244.557474 
L 249.630298 238.191158 
L 249.645449 244.557474 
L 249.822528 238.191158 
L 249.836732 244.557474 
L 250.016652 238.191158 
L 250.030856 244.557474 
L 250.2032 238.191158 
L 250.21551 244.557474 
L 250.390695 238.191158 
L 250.408687 244.557474 
L 250.574403 238.191158 
L 250.595236 244.557474 
L 250.763792 238.191158 
L 250.790306 244.557474 
L 250.956022 238.191158 
L 250.979695 244.557474 
L 251.146358 238.191158 
L 251.170978 244.557474 
L 251.337641 238.191158 
L 251.364155 244.557474 
L 251.526083 238.191158 
L 251.558279 244.557474 
L 251.720207 238.191158 
L 251.744827 244.557474 
L 251.912437 238.191158 
L 251.932322 244.557474 
L 252.099932 238.191158 
L 252.11603 244.557474 
L 252.287427 238.191158 
L 252.305419 244.557474 
L 252.476816 238.191158 
L 252.497649 244.557474 
L 252.669046 238.191158 
L 252.687985 244.557474 
L 252.857488 238.191158 
L 252.879268 244.557474 
L 253.046877 238.191158 
L 253.06771 244.557474 
L 253.23816 238.191158 
L 253.261834 244.557474 
L 253.425655 238.191158 
L 253.453117 244.557474 
L 253.615044 238.191158 
L 253.641559 244.557474 
L 253.808221 238.191158 
L 253.829054 244.557474 
L 253.99761 238.191158 
L 254.018443 244.557474 
L 254.188893 238.191158 
L 254.210673 244.557474 
L 254.378282 238.191158 
L 254.399115 244.557474 
L 254.571459 238.191158 
L 254.588504 244.557474 
L 254.765583 238.191158 
L 254.779787 244.557474 
L 254.954972 238.191158 
L 254.967282 244.557474 
L 255.14152 238.191158 
L 255.155725 244.557474 
L 255.327122 238.191158 
L 255.349848 244.557474 
L 255.512723 238.191158 
L 255.53829 244.557474 
L 255.7059 238.191158 
L 255.73052 244.557474 
L 255.891501 238.191158 
L 255.919909 244.557474 
L 256.081837 238.191158 
L 256.112139 244.557474 
L 256.271226 238.191158 
L 256.30721 244.557474 
L 256.461562 238.191158 
L 256.496599 244.557474 
L 256.652845 238.191158 
L 256.683147 244.557474 
L 256.843181 238.191158 
L 256.868749 244.557474 
L 257.030676 238.191158 
L 257.05435 244.557474 
L 257.218172 238.191158 
L 257.247527 244.557474 
L 257.410402 238.191158 
L 257.433128 244.557474 
L 257.602631 238.191158 
L 257.623464 244.557474 
L 257.78918 238.191158 
L 257.812853 244.557474 
L 257.979516 238.191158 
L 258.003189 244.557474 
L 258.169852 238.191158 
L 258.194472 244.557474 
L 258.357347 238.191158 
L 258.384808 244.557474 
L 258.543895 238.191158 
L 258.572304 244.557474 
L 258.728549 238.191158 
L 258.759799 244.557474 
L 258.916992 238.191158 
L 258.952029 244.557474 
L 259.105434 238.191158 
L 259.144259 244.557474 
L 259.330807 250.923789 
L 259.482318 244.557474 
L 259.521143 250.923789 
L 259.671707 244.557474 
L 259.711479 250.923789 
L 259.898027 257.290105 
L 260.046697 250.923789 
L 260.085522 257.290105 
L 260.239874 250.923789 
L 260.270177 257.290105 
L 260.42737 250.923789 
L 260.458619 257.290105 
L 260.618652 250.923789 
L 260.646114 257.290105 
L 260.99459 244.557474 
L 261.022998 250.923789 
L 261.183032 244.557474 
L 261.213334 250.923789 
L 261.560863 238.191158 
L 261.588325 244.557474 
L 261.754987 238.191158 
L 261.780554 244.557474 
L 261.941535 238.191158 
L 261.968997 244.557474 
L 262.131871 238.191158 
L 262.16028 244.557474 
L 262.32126 238.191158 
L 262.346828 244.557474 
L 262.509702 238.191158 
L 262.536217 244.557474 
L 262.697198 238.191158 
L 262.724659 244.557474 
L 262.888481 238.191158 
L 262.914048 244.557474 
L 263.07787 238.191158 
L 263.101543 244.557474 
L 263.269153 238.191158 
L 263.296614 244.557474 
L 263.45286 238.191158 
L 263.483162 244.557474 
L 263.638461 238.191158 
L 263.673498 244.557474 
L 263.833532 238.191158 
L 263.862887 244.557474 
L 264.021974 238.191158 
L 264.05133 244.557474 
L 264.211363 238.191158 
L 264.238825 244.557474 
L 264.398858 238.191158 
L 264.429161 244.557474 
L 264.587301 238.191158 
L 264.619497 244.557474 
L 264.778584 238.191158 
L 264.81078 244.557474 
L 264.967973 238.191158 
L 264.994487 244.557474 
L 265.160203 238.191158 
L 265.180088 244.557474 
L 265.347698 238.191158 
L 265.375159 244.557474 
L 265.562654 250.923789 
L 265.725529 244.557474 
L 265.75299 250.923789 
L 265.917759 244.557474 
L 265.940486 250.923789 
L 266.109042 244.557474 
L 266.128928 250.923789 
L 266.294643 244.557474 
L 266.320211 250.923789 
L 266.482138 244.557474 
L 266.5096 250.923789 
L 266.669634 244.557474 
L 266.70183 250.923789 
L 266.859023 244.557474 
L 266.889325 250.923789 
L 267.232119 238.191158 
L 267.267156 244.557474 
L 267.420561 238.191158 
L 267.458439 244.557474 
L 267.608056 238.191158 
L 267.650669 244.557474 
L 267.799339 238.191158 
L 267.83627 244.557474 
L 267.984941 238.191158 
L 268.023765 244.557474 
L 268.17433 238.191158 
L 268.211261 244.557474 
L 268.363719 238.191158 
L 268.40065 244.557474 
L 268.552161 238.191158 
L 268.590039 244.557474 
L 268.738709 238.191158 
L 268.773746 244.557474 
L 268.927151 238.191158 
L 268.962188 244.557474 
L 269.118434 238.191158 
L 269.149684 244.557474 
L 269.310664 238.191158 
L 269.340966 244.557474 
L 269.501 238.191158 
L 269.526568 244.557474 
L 269.690389 238.191158 
L 269.715957 244.557474 
L 269.875991 238.191158 
L 269.905346 244.557474 
L 270.06538 238.191158 
L 270.093788 244.557474 
L 270.253822 238.191158 
L 270.280336 244.557474 
L 270.444158 238.191158 
L 270.468778 244.557474 
L 270.635441 238.191158 
L 270.660061 244.557474 
L 270.827671 238.191158 
L 270.852291 244.557474 
L 271.016113 238.191158 
L 271.042627 244.557474 
L 271.203608 238.191158 
L 271.232016 244.557474 
L 271.394891 238.191158 
L 271.417618 244.557474 
L 271.580492 238.191158 
L 271.607007 244.557474 
L 271.769881 238.191158 
L 271.795449 244.557474 
L 271.961164 238.191158 
L 271.985785 244.557474 
L 272.149607 238.191158 
L 272.177068 244.557474 
L 272.338996 238.191158 
L 272.369298 244.557474 
L 272.530279 238.191158 
L 272.55774 244.557474 
L 272.71588 238.191158 
L 272.745235 244.557474 
L 272.901481 238.191158 
L 272.936518 244.557474 
L 273.096552 238.191158 
L 273.121172 244.557474 
L 273.284994 238.191158 
L 273.311509 244.557474 
L 273.472489 238.191158 
L 273.502791 244.557474 
L 273.663772 238.191158 
L 273.691234 244.557474 
L 273.853161 238.191158 
L 273.880623 244.557474 
L 274.04255 238.191158 
L 274.070959 244.557474 
L 274.230046 238.191158 
L 274.257507 244.557474 
L 274.419435 238.191158 
L 274.443108 244.557474 
L 274.608824 238.191158 
L 274.638179 244.557474 
L 274.797266 238.191158 
L 274.826621 244.557474 
L 274.985708 238.191158 
L 275.014116 244.557474 
L 275.172256 238.191158 
L 275.204452 244.557474 
L 275.360698 238.191158 
L 275.393841 244.557474 
L 275.551034 238.191158 
L 275.58323 244.557474 
L 275.742317 238.191158 
L 275.771673 244.557474 
L 275.926972 238.191158 
L 275.961062 244.557474 
L 276.112573 238.191158 
L 276.150451 244.557474 
L 276.299121 238.191158 
L 276.338893 244.557474 
L 276.491351 238.191158 
L 276.527335 244.557474 
L 276.68074 238.191158 
L 276.713883 244.557474 
L 276.870129 238.191158 
L 276.902325 244.557474 
L 277.060465 238.191158 
L 277.092661 244.557474 
L 277.247014 238.191158 
L 277.283944 244.557474 
L 277.435456 238.191158 
L 277.468599 244.557474 
L 277.623898 238.191158 
L 277.6542 244.557474 
L 277.815181 238.191158 
L 277.840748 244.557474 
L 278.003623 238.191158 
L 278.032978 244.557474 
L 278.193959 238.191158 
L 278.222367 244.557474 
L 278.382401 238.191158 
L 278.411756 244.557474 
L 278.574631 238.191158 
L 278.602092 244.557474 
L 278.761179 238.191158 
L 278.788641 244.557474 
L 278.951515 238.191158 
L 278.977083 244.557474 
L 279.140904 238.191158 
L 279.165525 244.557474 
L 279.334081 238.191158 
L 279.356808 244.557474 
L 279.524417 238.191158 
L 279.54525 244.557474 
L 279.711912 238.191158 
L 279.735586 244.557474 
L 279.903195 238.191158 
L 279.924028 244.557474 
L 280.089744 238.191158 
L 280.116258 244.557474 
L 280.28008 238.191158 
L 280.302806 244.557474 
L 280.474203 238.191158 
L 280.493142 244.557474 
L 280.660752 238.191158 
L 280.682531 244.557474 
L 280.8473 238.191158 
L 280.875708 244.557474 
L 281.036689 238.191158 
L 281.066044 244.557474 
L 281.227025 238.191158 
L 281.253539 244.557474 
L 281.416414 238.191158 
L 281.444822 244.557474 
L 281.603909 238.191158 
L 281.631371 244.557474 
L 281.798033 238.191158 
L 281.821707 244.557474 
L 281.986475 238.191158 
L 282.015831 244.557474 
L 282.178705 238.191158 
L 282.202379 244.557474 
L 282.365253 238.191158 
L 282.388927 244.557474 
L 282.554642 238.191158 
L 282.578316 244.557474 
L 282.744978 238.191158 
L 282.768652 244.557474 
L 282.933421 238.191158 
L 282.958041 244.557474 
L 283.119022 238.191158 
L 283.145536 244.557474 
L 283.308411 238.191158 
L 283.33966 244.557474 
L 283.499694 238.191158 
L 283.527155 244.557474 
L 283.684348 238.191158 
L 283.720332 244.557474 
L 283.874684 238.191158 
L 283.90688 244.557474 
L 284.065967 238.191158 
L 284.095323 244.557474 
L 284.254409 238.191158 
L 284.285659 244.557474 
L 284.444745 238.191158 
L 284.475048 244.557474 
L 284.632241 238.191158 
L 284.660649 244.557474 
L 284.816895 238.191158 
L 284.850038 244.557474 
L 285.011019 238.191158 
L 285.041321 244.557474 
L 285.202302 238.191158 
L 285.225975 244.557474 
L 285.390744 238.191158 
L 285.416311 244.557474 
L 285.582027 238.191158 
L 285.607594 244.557474 
L 285.767628 238.191158 
L 285.796037 244.557474 
L 285.957964 238.191158 
L 285.986373 244.557474 
L 286.144512 238.191158 
L 286.173868 244.557474 
L 286.331061 238.191158 
L 286.358522 244.557474 
L 286.523291 238.191158 
L 286.551699 244.557474 
L 286.713627 238.191158 
L 286.743929 244.557474 
L 286.899228 238.191158 
L 286.932371 244.557474 
L 287.08767 238.191158 
L 287.123654 244.557474 
L 287.278006 238.191158 
L 287.309255 244.557474 
L 287.470236 238.191158 
L 287.499591 244.557474 
L 287.660572 238.191158 
L 287.68614 244.557474 
L 287.849014 238.191158 
L 287.872688 244.557474 
L 288.03935 238.191158 
L 288.064918 244.557474 
L 288.229686 238.191158 
L 288.255254 244.557474 
L 288.414341 238.191158 
L 288.440855 244.557474 
L 288.601836 238.191158 
L 288.629297 244.557474 
L 288.791225 238.191158 
L 288.818686 244.557474 
L 288.983455 238.191158 
L 289.011863 244.557474 
L 289.175685 238.191158 
L 289.202199 244.557474 
L 290.717312 295.488 
L 295.113032 289.121684 
L 295.424577 149.062737 
L 296.570381 110.864842 
L 296.666023 123.597474 
L 296.966204 244.557474 
L 297.132867 238.191158 
L 297.159381 244.557474 
L 297.322256 238.191158 
L 297.350664 244.557474 
L 297.511645 238.191158 
L 297.538159 244.557474 
L 297.700087 238.191158 
L 297.729442 244.557474 
L 297.890423 238.191158 
L 297.921672 244.557474 
L 298.081706 238.191158 
L 298.112008 244.557474 
L 298.273936 238.191158 
L 298.299503 244.557474 
L 298.462378 238.191158 
L 298.486999 244.557474 
L 298.653661 238.191158 
L 298.674494 244.557474 
L 298.847785 238.191158 
L 298.863883 244.557474 
L 299.038121 238.191158 
L 299.052325 244.557474 
L 299.229404 238.191158 
L 299.241714 244.557474 
L 299.421634 238.191158 
L 299.43205 244.557474 
L 299.612917 238.191158 
L 299.623333 244.557474 
L 299.8042 238.191158 
L 299.814616 244.557474 
L 299.988854 238.191158 
L 300.003058 244.557474 
L 300.182978 238.191158 
L 300.195288 244.557474 
L 300.372367 238.191158 
L 300.389412 244.557474 
L 300.56365 238.191158 
L 300.579748 244.557474 
L 300.752092 238.191158 
L 300.771031 244.557474 
L 300.943375 238.191158 
L 300.963261 244.557474 
L 301.128029 238.191158 
L 301.154544 244.557474 
L 301.313631 238.191158 
L 301.345827 244.557474 
L 301.503967 238.191158 
L 301.530481 244.557474 
L 301.69525 238.191158 
L 301.724605 244.557474 
L 301.881798 238.191158 
L 301.913047 244.557474 
L 302.065505 238.191158 
L 302.105277 244.557474 
L 302.257735 238.191158 
L 302.293719 244.557474 
L 302.447124 238.191158 
L 302.485002 244.557474 
L 302.63746 238.191158 
L 302.669656 244.557474 
L 302.827796 238.191158 
L 302.855258 244.557474 
L 303.019079 238.191158 
L 303.045594 244.557474 
L 303.206574 238.191158 
L 303.236877 244.557474 
L 303.395017 238.191158 
L 303.423425 244.557474 
L 303.58914 238.191158 
L 303.607132 244.557474 
L 303.777583 238.191158 
L 303.798415 244.557474 
L 303.964131 238.191158 
L 303.988751 244.557474 
L 304.151626 238.191158 
L 304.179087 244.557474 
L 304.340068 238.191158 
L 304.369423 244.557474 
L 304.52851 238.191158 
L 304.560706 244.557474 
L 305.504811 276.389053 
L 305.54837 270.022737 
L 305.693253 276.389053 
L 305.87696 270.022737 
L 305.881695 276.389053 
L 306.070137 282.755368 
L 306.210285 276.389053 
L 307.087157 282.755368 
L 307.749072 295.488 
L 323.120836 289.121684 
L 323.290339 282.755368 
L 323.469312 244.557474 
L 323.684269 238.191158 
L 323.946572 180.894316 
L 324.110394 174.528 
L 324.444666 168.161684 
L 324.659622 174.528 
L 324.77799 168.161684 
L 324.943706 199.993263 
L 325.008098 212.725895 
L 325.111315 206.359579 
L 325.251463 219.092211 
L 325.309227 231.824842 
L 325.439905 225.458526 
L 328.74001 161.795368 
L 334.476605 155.429053 
L 334.683039 123.597474 
L 334.893261 117.231158 
L 334.957653 104.498526 
L 334.99269 117.231158 
L 335.073181 110.864842 
L 335.337379 117.231158 
L 335.365787 123.597474 
L 335.405559 117.231158 
L 335.692483 123.597474 
L 335.720891 129.963789 
L 335.731308 123.597474 
L 336.061792 117.231158 
L 336.113874 129.963789 
L 336.39417 123.597474 
L 336.460456 136.330105 
L 336.718972 129.963789 
L 336.825977 142.696421 
L 337.139416 149.062737 
L 337.167824 155.429053 
L 337.383728 149.062737 
L 337.547549 161.795368 
L 337.713265 155.429053 
L 337.869511 161.795368 
L 337.897919 168.161684 
L 338.053218 161.795368 
L 338.193366 168.161684 
L 338.220827 174.528 
L 338.381808 168.161684 
L 338.530478 174.528 
L 338.558887 180.894316 
L 338.720814 174.528 
L 338.890318 180.894316 
L 338.918726 187.260632 
L 339.048458 180.894316 
L 339.256785 187.260632 
L 339.285194 193.626947 
L 339.380835 187.260632 
L 339.592951 193.626947 
L 339.616625 199.993263 
L 339.716054 193.626947 
L 339.96226 199.993263 
L 339.990668 206.359579 
L 340.045591 199.993263 
L 340.31263 206.359579 
L 340.341038 212.725895 
L 340.378916 206.359579 
L 340.701824 199.993263 
L 340.747278 212.725895 
L 341.038937 206.359579 
L 341.087231 219.092211 
L 341.377943 212.725895 
L 341.412033 225.458526 
L 341.70748 219.092211 
L 341.787971 231.824842 
L 342.035123 225.458526 
L 342.121295 238.191158 
L 342.360872 231.824842 
L 342.474506 244.557474 
L 342.698932 238.191158 
L 342.835292 250.923789 
L 343.026575 244.557474 
L 343.174299 250.923789 
L 343.202707 257.290105 
L 343.352324 250.923789 
L 343.518987 257.290105 
L 343.547395 263.656421 
L 343.68849 257.290105 
L 343.909128 263.656421 
L 343.944165 270.022737 
L 344.027496 263.656421 
L 344.29927 270.022737 
L 344.358927 263.656421 
L 344.565361 270.022737 
L 344.693199 263.656421 
L 344.892058 270.022737 
L 345.019895 263.656421 
L 345.227276 270.022737 
L 345.352273 263.656421 
L 345.566283 270.022737 
L 345.690332 263.656421 
L 345.897714 270.022737 
L 346.017976 263.656421 
L 346.232932 270.022737 
L 346.345619 263.656421 
L 346.558681 270.022737 
L 346.684625 263.656421 
L 346.891059 270.022737 
L 347.015109 263.656421 
L 347.229119 270.022737 
L 347.349381 263.656421 
L 347.557709 270.022737 
L 347.679865 263.656421 
L 347.884405 270.022737 
L 348.007508 263.656421 
L 348.223411 270.022737 
L 348.345567 263.656421 
L 348.553895 270.022737 
L 348.67321 263.656421 
L 348.889114 270.022737 
L 349.006535 263.656421 
L 349.218651 270.022737 
L 349.336072 263.656421 
L 349.546294 270.022737 
L 349.662768 263.656421 
L 349.884354 270.022737 
L 349.987571 263.656421 
L 350.212944 270.022737 
L 350.318055 263.656421 
L 350.874858 276.389053 
L 351.856841 295.488 
L 352.407963 282.755368 
L 353.584069 250.923789 
L 353.715695 257.290105 
L 353.822699 250.923789 
L 353.94959 257.290105 
L 354.054701 250.923789 
L 354.184433 257.290105 
L 354.292384 250.923789 
L 354.419275 257.290105 
L 354.52628 250.923789 
L 354.653171 257.290105 
L 354.759228 250.923789 
L 354.88896 257.290105 
L 354.998806 250.923789 
L 355.125696 257.290105 
L 355.236489 250.923789 
L 355.36338 257.290105 
L 355.475119 250.923789 
L 355.596328 257.290105 
L 355.713749 250.923789 
L 355.834012 257.290105 
L 355.949539 250.923789 
L 356.067907 257.290105 
L 356.184381 250.923789 
L 356.299909 257.290105 
L 356.425852 250.923789 
L 356.539486 257.290105 
L 356.656907 250.923789 
L 356.778116 257.290105 
L 356.888909 250.923789 
L 357.016746 257.290105 
L 357.124698 250.923789 
L 357.255377 257.290105 
L 357.366169 250.923789 
L 357.490219 257.290105 
L 357.602905 250.923789 
L 357.725061 257.290105 
L 357.840589 250.923789 
L 358.198534 263.656421 
L 358.314061 257.290105 
L 358.430536 263.656421 
L 358.552692 257.290105 
L 358.665378 263.656421 
L 358.787534 257.290105 
L 358.907796 263.656421 
L 359.027111 257.290105 
L 359.144533 263.656421 
L 359.256272 257.290105 
L 359.381269 263.656421 
L 359.494902 257.290105 
L 359.730692 250.923789 
L 359.855689 257.290105 
L 359.965534 250.923789 
L 360.094319 257.290105 
L 360.205111 250.923789 
L 360.329161 257.290105 
L 360.443742 250.923789 
L 360.568738 257.290105 
L 360.684266 250.923789 
L 360.797899 257.290105 
L 360.922896 250.923789 
L 361.036529 257.290105 
L 361.158685 250.923789 
L 361.272319 257.290105 
L 361.398263 250.923789 
L 361.506214 257.290105 
L 361.632158 250.923789 
L 361.746739 257.290105 
L 361.867001 250.923789 
L 361.985369 257.290105 
L 362.100896 250.923789 
L 362.225893 257.290105 
L 362.332898 250.923789 
L 362.463576 257.290105 
L 362.568687 250.923789 
L 362.699366 257.290105 
L 362.80637 250.923789 
L 374.240736 244.557474 
L 374.445276 161.795368 
L 374.53713 168.161684 
L 374.658339 155.429053 
L 374.905492 53.568 
L 375.004921 59.934316 
L 375.170636 53.568 
L 375.236923 59.934316 
L 375.411161 53.568 
L 375.472712 59.934316 
L 375.643162 53.568 
L 375.810771 79.033263 
L 375.985956 149.062737 
L 376.103378 142.696421 
L 376.199966 155.429053 
L 376.270987 187.260632 
L 376.33822 180.894316 
L 376.574956 174.528 
L 376.75677 180.894316 
L 376.799382 199.993263 
L 376.809799 193.626947 
L 377.049376 187.260632 
L 377.262439 193.626947 
L 377.305051 206.359579 
L 377.520955 199.993263 
L 377.752956 206.359579 
L 377.758638 199.993263 
L 377.795569 219.092211 
L 378.228323 206.359579 
L 378.313548 231.824842 
L 378.458431 225.458526 
L 378.695167 219.092211 
L 378.800278 231.824842 
L 378.828686 244.557474 
L 378.934744 238.191158 
L 379.174321 231.824842 
L 379.335302 238.191158 
L 379.383596 257.290105 
L 379.41674 250.923789 
L 379.885477 238.191158 
L 380.000058 257.290105 
L 381.426158 295.488 
L 385.803886 289.121684 
L 386.021684 282.755368 
L 386.281147 168.161684 
L 387.247978 142.696421 
L 387.344566 149.062737 
L 387.479033 142.696421 
L 387.577515 155.429053 
L 387.822774 257.290105 
L 387.956293 250.923789 
L 388.08129 257.290105 
L 388.193029 250.923789 
L 388.313291 257.290105 
L 388.427872 250.923789 
L 388.550028 257.290105 
L 388.668396 250.923789 
L 388.788658 257.290105 
L 388.90892 250.923789 
L 389.019713 257.290105 
L 389.143763 250.923789 
L 389.25929 257.290105 
L 389.382393 250.923789 
L 389.496973 257.290105 
L 389.616288 250.923789 
L 389.734656 257.290105 
L 389.850184 250.923789 
L 389.968552 257.290105 
L 390.085973 250.923789 
L 390.210023 257.290105 
L 390.32271 250.923789 
L 390.450547 257.290105 
L 390.559446 250.923789 
L 390.684443 257.290105 
L 390.798076 250.923789 
L 390.92402 257.290105 
L 391.033866 250.923789 
L 391.157915 257.290105 
L 391.270602 250.923789 
L 391.391811 257.290105 
L 391.508285 250.923789 
L 391.6276 257.290105 
L 391.745968 250.923789 
L 391.86339 257.290105 
L 391.985546 250.923789 
L 392.101073 257.290105 
L 392.219441 250.923789 
L 392.339703 257.290105 
L 392.455231 250.923789 
L 392.574546 257.290105 
L 392.692914 250.923789 
L 392.811282 257.290105 
L 392.927756 250.923789 
L 393.048965 257.290105 
L 393.16828 250.923789 
L 393.286649 257.290105 
L 393.40407 250.923789 
L 393.526226 257.290105 
L 393.6427 250.923789 
L 393.761068 257.290105 
L 393.875649 250.923789 
L 393.995911 257.290105 
L 394.114279 250.923789 
L 394.233594 257.290105 
L 394.349121 250.923789 
L 394.469383 257.290105 
L 394.583964 250.923789 
L 394.708961 257.290105 
L 394.821647 250.923789 
L 394.945697 257.290105 
L 395.05933 250.923789 
L 395.184327 257.290105 
L 395.294173 250.923789 
L 395.417276 257.290105 
L 395.525228 250.923789 
L 395.655906 257.290105 
L 395.765752 250.923789 
L 395.890748 257.290105 
L 395.999647 250.923789 
L 396.124644 257.290105 
L 396.239224 250.923789 
L 396.363274 257.290105 
L 396.480695 250.923789 
L 396.600011 257.290105 
L 396.713644 250.923789 
L 396.8358 257.290105 
L 396.945646 250.923789 
L 397.066855 257.290105 
L 398.487273 295.488 
L 398.487273 295.488 
" clip-path="url(#p5ad9230943)" style="fill: none; stroke: #1f77b4; stroke-width: 1.5; stroke-linecap: square"/>
   </g>
   <g id="patch_3">
    <path d="M 57.6 307.584 
L 57.6 41.472 
" style="fill: none; stroke: #000000; stroke-width: 0.8; stroke-linejoin: miter; stroke-linecap: square"/>
   </g>
   <g id="patch_4">
    <path d="M 414.72 307.584 
L 414.72 41.472 
" style="fill: none; stroke: #000000; stroke-width: 0.8; stroke-linejoin: miter; stroke-linecap: square"/>
   </g>
   <g id="patch_5">
    <path d="M 57.6 307.584 
L 414.72 307.584 
" style="fill: none; stroke: #000000; stroke-width: 0.8; stroke-linejoin: miter; stroke-linecap: square"/>
   </g>
   <g id="patch_6">
    <path d="M 57.6 41.472 
L 414.72 41.472 
" style="fill: none; stroke: #000000; stroke-width: 0.8; stroke-linejoin: miter; stroke-linecap: square"/>
   </g>
   <g id="text_18">
    <!-- Queue size (y-axis) between S4 and sensors that follow at a time (x-axis). -->
    <g transform="translate(14.282813 35.472) scale(0.12 -0.12)">
     <defs>
      <path id="DejaVuSans-51" d="M 2522 4238 
Q 1834 4238 1429 3725 
Q 1025 3213 1025 2328 
Q 1025 1447 1429 934 
Q 1834 422 2522 422 
Q 3209 422 3611 934 
Q 4013 1447 4013 2328 
Q 4013 3213 3611 3725 
Q 3209 4238 2522 4238 
z
M 3406 84 
L 4238 -825 
L 3475 -825 
L 2784 -78 
Q 2681 -84 2626 -87 
Q 2572 -91 2522 -91 
Q 1538 -91 948 567 
Q 359 1225 359 2328 
Q 359 3434 948 4092 
Q 1538 4750 2522 4750 
Q 3503 4750 4090 4092 
Q 4678 3434 4678 2328 
Q 4678 1516 4351 937 
Q 4025 359 3406 84 
z
" transform="scale(0.015625)"/>
      <path id="DejaVuSans-75" d="M 544 1381 
L 544 3500 
L 1119 3500 
L 1119 1403 
Q 1119 906 1312 657 
Q 1506 409 1894 409 
Q 2359 409 2629 706 
Q 2900 1003 2900 1516 
L 2900 3500 
L 3475 3500 
L 3475 0 
L 2900 0 
L 2900 538 
Q 2691 219 2414 64 
Q 2138 -91 1772 -91 
Q 1169 -91 856 284 
Q 544 659 544 1381 
z
M 1991 3584 
L 1991 3584 
z
" transform="scale(0.015625)"/>
      <path id="DejaVuSans-20" transform="scale(0.015625)"/>
      <path id="DejaVuSans-73" d="M 2834 3397 
L 2834 2853 
Q 2591 2978 2328 3040 
Q 2066 3103 1784 3103 
Q 1356 3103 1142 2972 
Q 928 2841 928 2578 
Q 928 2378 1081 2264 
Q 1234 2150 1697 2047 
L 1894 2003 
Q 2506 1872 2764 1633 
Q 3022 1394 3022 966 
Q 3022 478 2636 193 
Q 2250 -91 1575 -91 
Q 1294 -91 989 -36 
Q 684 19 347 128 
L 347 722 
Q 666 556 975 473 
Q 1284 391 1588 391 
Q 1994 391 2212 530 
Q 2431 669 2431 922 
Q 2431 1156 2273 1281 
Q 2116 1406 1581 1522 
L 1381 1569 
Q 847 1681 609 1914 
Q 372 2147 372 2553 
Q 372 3047 722 3315 
Q 1072 3584 1716 3584 
Q 2034 3584 2315 3537 
Q 2597 3491 2834 3397 
z
" transform="scale(0.015625)"/>
      <path id="DejaVuSans-69" d="M 603 3500 
L 1178 3500 
L 1178 0 
L 603 0 
L 603 3500 
z
M 603 4863 
L 1178 4863 
L 1178 4134 
L 603 4134 
L 603 4863 
z
" transform="scale(0.015625)"/>
      <path id="DejaVuSans-7a" d="M 353 3500 
L 3084 3500 
L 3084 2975 
L 922 459 
L 3084 459 
L 3084 0 
L 275 0 
L 275 525 
L 2438 3041 
L 353 3041 
L 353 3500 
z
" transform="scale(0.015625)"/>
      <path id="DejaVuSans-28" d="M 1984 4856 
Q 1566 4138 1362 3434 
Q 1159 2731 1159 2009 
Q 1159 1288 1364 580 
Q 1569 -128 1984 -844 
L 1484 -844 
Q 1016 -109 783 600 
Q 550 1309 550 2009 
Q 550 2706 781 3412 
Q 1013 4119 1484 4856 
L 1984 4856 
z
" transform="scale(0.015625)"/>
      <path id="DejaVuSans-79" d="M 2059 -325 
Q 1816 -950 1584 -1140 
Q 1353 -1331 966 -1331 
L 506 -1331 
L 506 -850 
L 844 -850 
Q 1081 -850 1212 -737 
Q 1344 -625 1503 -206 
L 1606 56 
L 191 3500 
L 800 3500 
L 1894 763 
L 2988 3500 
L 3597 3500 
L 2059 -325 
z
" transform="scale(0.015625)"/>
      <path id="DejaVuSans-2d" d="M 313 2009 
L 1997 2009 
L 1997 1497 
L 313 1497 
L 313 2009 
z
" transform="scale(0.015625)"/>
      <path id="DejaVuSans-61" d="M 2194 1759 
Q 1497 1759 1228 1600 
Q 959 1441 959 1056 
Q 959 750 1161 570 
Q 1363 391 1709 391 
Q 2188 391 2477 730 
Q 2766 1069 2766 1631 
L 2766 1759 
L 2194 1759 
z
M 3341 1997 
L 3341 0 
L 2766 0 
L 2766 531 
Q 2569 213 2275 61 
Q 1981 -91 1556 -91 
Q 1019 -91 701 211 
Q 384 513 384 1019 
Q 384 1609 779 1909 
Q 1175 2209 1959 2209 
L 2766 2209 
L 2766 2266 
Q 2766 2663 2505 2880 
Q 2244 3097 1772 3097 
Q 1472 3097 1187 3025 
Q 903 2953 641 2809 
L 641 3341 
Q 956 3463 1253 3523 
Q 1550 3584 1831 3584 
Q 2591 3584 2966 3190 
Q 3341 2797 3341 1997 
z
" transform="scale(0.015625)"/>
      <path id="DejaVuSans-78" d="M 3513 3500 
L 2247 1797 
L 3578 0 
L 2900 0 
L 1881 1375 
L 863 0 
L 184 0 
L 1544 1831 
L 300 3500 
L 978 3500 
L 1906 2253 
L 2834 3500 
L 3513 3500 
z
" transform="scale(0.015625)"/>
      <path id="DejaVuSans-29" d="M 513 4856 
L 1013 4856 
Q 1481 4119 1714 3412 
Q 1947 2706 1947 2009 
Q 1947 1309 1714 600 
Q 1481 -109 1013 -844 
L 513 -844 
Q 928 -128 1133 580 
Q 1338 1288 1338 2009 
Q 1338 2731 1133 3434 
Q 928 4138 513 4856 
z
" transform="scale(0.015625)"/>
      <path id="DejaVuSans-62" d="M 3116 1747 
Q 3116 2381 2855 2742 
Q 2594 3103 2138 3103 
Q 1681 3103 1420 2742 
Q 1159 2381 1159 1747 
Q 1159 1113 1420 752 
Q 1681 391 2138 391 
Q 2594 391 2855 752 
Q 3116 1113 3116 1747 
z
M 1159 2969 
Q 1341 3281 1617 3432 
Q 1894 3584 2278 3584 
Q 2916 3584 3314 3078 
Q 3713 2572 3713 1747 
Q 3713 922 3314 415 
Q 2916 -91 2278 -91 
Q 1894 -91 1617 61 
Q 1341 213 1159 525 
L 1159 0 
L 581 0 
L 581 4863 
L 1159 4863 
L 1159 2969 
z
" transform="scale(0.015625)"/>
      <path id="DejaVuSans-74" d="M 1172 4494 
L 1172 3500 
L 2356 3500 
L 2356 3053 
L 1172 3053 
L 1172 1153 
Q 1172 725 1289 603 
Q 1406 481 1766 481 
L 2356 481 
L 2356 0 
L 1766 0 
Q 1100 0 847 248 
Q 594 497 594 1153 
L 594 3053 
L 172 3053 
L 172 3500 
L 594 3500 
L 594 4494 
L 1172 4494 
z
" transform="scale(0.015625)"/>
      <path id="DejaVuSans-77" d="M 269 3500 
L 844 3500 
L 1563 769 
L 2278 3500 
L 2956 3500 
L 3675 769 
L 4391 3500 
L 4966 3500 
L 4050 0 
L 3372 0 
L 2619 2869 
L 1863 0 
L 1184 0 
L 269 3500 
z
" transform="scale(0.015625)"/>
      <path id="DejaVuSans-6e" d="M 3513 2113 
L 3513 0 
L 2938 0 
L 2938 2094 
Q 2938 2591 2744 2837 
Q 2550 3084 2163 3084 
Q 1697 3084 1428 2787 
Q 1159 2491 1159 1978 
L 1159 0 
L 581 0 
L 581 3500 
L 1159 3500 
L 1159 2956 
Q 1366 3272 1645 3428 
Q 1925 3584 2291 3584 
Q 2894 3584 3203 3211 
Q 3513 2838 3513 2113 
z
" transform="scale(0.015625)"/>
      <path id="DejaVuSans-53" d="M 3425 4513 
L 3425 3897 
Q 3066 4069 2747 4153 
Q 2428 4238 2131 4238 
Q 1616 4238 1336 4038 
Q 1056 3838 1056 3469 
Q 1056 3159 1242 3001 
Q 1428 2844 1947 2747 
L 2328 2669 
Q 3034 2534 3370 2195 
Q 3706 1856 3706 1288 
Q 3706 609 3251 259 
Q 2797 -91 1919 -91 
Q 1588 -91 1214 -16 
Q 841 59 441 206 
L 441 856 
Q 825 641 1194 531 
Q 1563 422 1919 422 
Q 2459 422 2753 634 
Q 3047 847 3047 1241 
Q 3047 1584 2836 1778 
Q 2625 1972 2144 2069 
L 1759 2144 
Q 1053 2284 737 2584 
Q 422 2884 422 3419 
Q 422 4038 858 4394 
Q 1294 4750 2059 4750 
Q 2388 4750 2728 4690 
Q 3069 4631 3425 4513 
z
" transform="scale(0.015625)"/>
      <path id="DejaVuSans-34" d="M 2419 4116 
L 825 1625 
L 2419 1625 
L 2419 4116 
z
M 2253 4666 
L 3047 4666 
L 3047 1625 
L 3713 1625 
L 3713 1100 
L 3047 1100 
L 3047 0 
L 2419 0 
L 2419 1100 
L 313 1100 
L 313 1709 
L 2253 4666 
z
" transform="scale(0.015625)"/>
      <path id="DejaVuSans-64" d="M 2906 2969 
L 2906 4863 
L 3481 4863 
L 3481 0 
L 2906 0 
L 2906 525 
Q 2725 213 2448 61 
Q 2172 -91 1784 -91 
Q 1150 -91 751 415 
Q 353 922 353 1747 
Q 353 2572 751 3078 
Q 1150 3584 1784 3584 
Q 2172 3584 2448 3432 
Q 2725 3281 2906 2969 
z
M 947 1747 
Q 947 1113 1208 752 
Q 1469 391 1925 391 
Q 2381 391 2643 752 
Q 2906 1113 2906 1747 
Q 2906 2381 2643 2742 
Q 2381 3103 1925 3103 
Q 1469 3103 1208 2742 
Q 947 2381 947 1747 
z
" transform="scale(0.015625)"/>
      <path id="DejaVuSans-6f" d="M 1959 3097 
Q 1497 3097 1228 2736 
Q 959 2375 959 1747 
Q 959 1119 1226 758 
Q 1494 397 1959 397 
Q 2419 397 2687 759 
Q 2956 1122 2956 1747 
Q 2956 2369 2687 2733 
Q 2419 3097 1959 3097 
z
M 1959 3584 
Q 2709 3584 3137 3096 
Q 3566 2609 3566 1747 
Q 3566 888 3137 398 
Q 2709 -91 1959 -91 
Q 1206 -91 779 398 
Q 353 888 353 1747 
Q 353 2609 779 3096 
Q 1206 3584 1959 3584 
z
" transform="scale(0.015625)"/>
      <path id="DejaVuSans-72" d="M 2631 2963 
Q 2534 3019 2420 3045 
Q 2306 3072 2169 3072 
Q 1681 3072 1420 2755 
Q 1159 2438 1159 1844 
L 1159 0 
L 581 0 
L 581 3500 
L 1159 3500 
L 1159 2956 
Q 1341 3275 1631 3429 
Q 1922 3584 2338 3584 
Q 2397 3584 2469 3576 
Q 2541 3569 2628 3553 
L 2631 2963 
z
" transform="scale(0.015625)"/>
      <path id="DejaVuSans-68" d="M 3513 2113 
L 3513 0 
L 2938 0 
L 2938 2094 
Q 2938 2591 2744 2837 
Q 2550 3084 2163 3084 
Q 1697 3084 1428 2787 
Q 1159 2491 1159 1978 
L 1159 0 
L 581 0 
L 581 4863 
L 1159 4863 
L 1159 2956 
Q 1366 3272 1645 3428 
Q 1925 3584 2291 3584 
Q 2894 3584 3203 3211 
Q 3513 2838 3513 2113 
z
" transform="scale(0.015625)"/>
      <path id="DejaVuSans-66" d="M 2375 4863 
L 2375 4384 
L 1825 4384 
Q 1516 4384 1395 4259 
Q 1275 4134 1275 3809 
L 1275 3500 
L 2222 3500 
L 2222 3053 
L 1275 3053 
L 1275 0 
L 697 0 
L 697 3053 
L 147 3053 
L 147 3500 
L 697 3500 
L 697 3744 
Q 697 4328 969 4595 
Q 1241 4863 1831 4863 
L 2375 4863 
z
" transform="scale(0.015625)"/>
      <path id="DejaVuSans-6c" d="M 603 4863 
L 1178 4863 
L 1178 0 
L 603 0 
L 603 4863 
z
" transform="scale(0.015625)"/>
      <path id="DejaVuSans-6d" d="M 3328 2828 
Q 3544 3216 3844 3400 
Q 4144 3584 4550 3584 
Q 5097 3584 5394 3201 
Q 5691 2819 5691 2113 
L 5691 0 
L 5113 0 
L 5113 2094 
Q 5113 2597 4934 2840 
Q 4756 3084 4391 3084 
Q 3944 3084 3684 2787 
Q 3425 2491 3425 1978 
L 3425 0 
L 2847 0 
L 2847 2094 
Q 2847 2600 2669 2842 
Q 2491 3084 2119 3084 
Q 1678 3084 1418 2786 
Q 1159 2488 1159 1978 
L 1159 0 
L 581 0 
L 581 3500 
L 1159 3500 
L 1159 2956 
Q 1356 3278 1631 3431 
Q 1906 3584 2284 3584 
Q 2666 3584 2933 3390 
Q 3200 3197 3328 2828 
z
" transform="scale(0.015625)"/>
     </defs>
     <use xlink:href="#DejaVuSans-51"/>
     <use xlink:href="#DejaVuSans-75" x="78.710938"/>
     <use xlink:href="#DejaVuSans-65" x="142.089844"/>
     <use xlink:href="#DejaVuSans-75" x="203.613281"/>
     <use xlink:href="#DejaVuSans-65" x="266.992188"/>
     <use xlink:href="#DejaVuSans-20" x="328.515625"/>
     <use xlink:href="#DejaVuSans-73" x="360.302734"/>
     <use xlink:href="#DejaVuSans-69" x="412.402344"/>
     <use xlink:href="#DejaVuSans-7a" x="440.185547"/>
     <use xlink:href="#DejaVuSans-65" x="492.675781"/>
     <use xlink:href="#DejaVuSans-20" x="554.199219"/>
     <use xlink:href="#DejaVuSans-28" x="585.986328"/>
     <use xlink:href="#DejaVuSans-79" x="625"/>
     <use xlink:href="#DejaVuSans-2d" x="682.429688"/>
     <use xlink:href="#DejaVuSans-61" x="718.513672"/>
     <use xlink:href="#DejaVuSans-78" x="779.792969"/>
     <use xlink:href="#DejaVuSans-69" x="838.972656"/>
     <use xlink:href="#DejaVuSans-73" x="866.755859"/>
     <use xlink:href="#DejaVuSans-29" x="918.855469"/>
     <use xlink:href="#DejaVuSans-20" x="957.869141"/>
     <use xlink:href="#DejaVuSans-62" x="989.65625"/>
     <use xlink:href="#DejaVuSans-65" x="1053.132812"/>
     <use xlink:href="#DejaVuSans-74" x="1114.65625"/>
     <use xlink:href="#DejaVuSans-77" x="1153.865234"/>
     <use xlink:href="#DejaVuSans-65" x="1235.652344"/>
     <use xlink:href="#DejaVuSans-65" x="1297.175781"/>
     <use xlink:href="#DejaVuSans-6e" x="1358.699219"/>
     <use xlink:href="#DejaVuSans-20" x="1422.078125"/>
     <use xlink:href="#DejaVuSans-53" x="1453.865234"/>
     <use xlink:href="#DejaVuSans-34" x="1517.341797"/>
     <use xlink:href="#DejaVuSans-20" x="1580.964844"/>
     <use xlink:href="#DejaVuSans-61" x="1612.751953"/>
     <use xlink:href="#DejaVuSans-6e" x="1674.03125"/>
     <use xlink:href="#DejaVuSans-64" x="1737.410156"/>
     <use xlink:href="#DejaVuSans-20" x="1800.886719"/>
     <use xlink:href="#DejaVuSans-73" x="1832.673828"/>
     <use xlink:href="#DejaVuSans-65" x="1884.773438"/>
     <use xlink:href="#DejaVuSans-6e" x="1946.296875"/>
     <use xlink:href="#DejaVuSans-73" x="2009.675781"/>
     <use xlink:href="#DejaVuSans-6f" x="2061.775391"/>
     <use xlink:href="#DejaVuSans-72" x="2122.957031"/>
     <use xlink:href="#DejaVuSans-73" x="2164.070312"/>
     <use xlink:href="#DejaVuSans-20" x="2216.169922"/>
     <use xlink:href="#DejaVuSans-74" x="2247.957031"/>
     <use xlink:href="#DejaVuSans-68" x="2287.166016"/>
     <use xlink:href="#DejaVuSans-61" x="2350.544922"/>
     <use xlink:href="#DejaVuSans-74" x="2411.824219"/>
     <use xlink:href="#DejaVuSans-20" x="2451.033203"/>
     <use xlink:href="#DejaVuSans-66" x="2482.820312"/>
     <use xlink:href="#DejaVuSans-6f" x="2518.025391"/>
     <use xlink:href="#DejaVuSans-6c" x="2579.207031"/>
     <use xlink:href="#DejaVuSans-6c" x="2606.990234"/>
     <use xlink:href="#DejaVuSans-6f" x="2634.773438"/>
     <use xlink:href="#DejaVuSans-77" x="2695.955078"/>
     <use xlink:href="#DejaVuSans-20" x="2777.742188"/>
     <use xlink:href="#DejaVuSans-61" x="2809.529297"/>
     <use xlink:href="#DejaVuSans-74" x="2870.808594"/>
     <use xlink:href="#DejaVuSans-20" x="2910.017578"/>
     <use xlink:href="#DejaVuSans-61" x="2941.804688"/>
     <use xlink:href="#DejaVuSans-20" x="3003.083984"/>
     <use xlink:href="#DejaVuSans-74" x="3034.871094"/>
     <use xlink:href="#DejaVuSans-69" x="3074.080078"/>
     <use xlink:href="#DejaVuSans-6d" x="3101.863281"/>
     <use xlink:href="#DejaVuSans-65" x="3199.275391"/>
     <use xlink:href="#DejaVuSans-20" x="3260.798828"/>
     <use xlink:href="#DejaVuSans-28" x="3292.585938"/>
     <use xlink:href="#DejaVuSans-78" x="3331.599609"/>
     <use xlink:href="#DejaVuSans-2d" x="3390.779297"/>
     <use xlink:href="#DejaVuSans-61" x="3426.863281"/>
     <use xlink:href="#DejaVuSans-78" x="3488.142578"/>
     <use xlink:href="#DejaVuSans-69" x="3547.322266"/>
     <use xlink:href="#DejaVuSans-73" x="3575.105469"/>
     <use xlink:href="#DejaVuSans-29" x="3627.205078"/>
     <use xlink:href="#DejaVuSans-2e" x="3666.21875"/>
    </g>
   </g>
  </g>
 </g>
 <defs>
  <clipPath id="p5ad9230943">
   <rect x="57.6" y="41.472" width="357.12" height="266.112"/>
  </clipPath>
 </defs>
</svg>
