<?xml version="1.0" encoding="utf-8" standalone="no"?>
<!DOCTYPE svg PUBLIC "-//W3C//DTD SVG 1.1//EN"
  "http://www.w3.org/Graphics/SVG/1.1/DTD/svg11.dtd">
<svg xmlns:xlink="http://www.w3.org/1999/xlink" width="460.8pt" height="345.6pt" viewBox="0 0 460.8 345.6" xmlns="http://www.w3.org/2000/svg" version="1.1">
 <metadata>
  <rdf:RDF xmlns:dc="http://purl.org/dc/elements/1.1/" xmlns:cc="http://creativecommons.org/ns#" xmlns:rdf="http://www.w3.org/1999/02/22-rdf-syntax-ns#">
   <cc:Work>
    <dc:type rdf:resource="http://purl.org/dc/dcmitype/StillImage"/>
    <dc:date>2024-03-08T13:04:48.295616</dc:date>
    <dc:format>image/svg+xml</dc:format>
    <dc:creator>
     <cc:Agent>
      <dc:title>Matplotlib v3.8.2, https://matplotlib.org/</dc:title>
     </cc:Agent>
    </dc:creator>
   </cc:Work>
  </rdf:RDF>
 </metadata>
 <defs>
  <style type="text/css">*{stroke-linejoin: round; stroke-linecap: butt}</style>
 </defs>
 <g id="figure_1">
  <g id="patch_1">
   <path d="M 0 345.6 
L 460.8 345.6 
L 460.8 0 
L 0 0 
z
" style="fill: #ffffff"/>
  </g>
  <g id="axes_1">
   <g id="patch_2">
    <path d="M 57.6 307.584 
L 414.72 307.584 
L 414.72 41.472 
L 57.6 41.472 
z
" style="fill: #ffffff"/>
   </g>
   <g id="matplotlib.axis_1">
    <g id="xtick_1">
     <g id="line2d_1">
      <defs>
       <path id="maaf2c2b2e0" d="M 0 0 
L 0 3.5 
" style="stroke: #000000; stroke-width: 0.8"/>
      </defs>
      <g>
       <use xlink:href="#maaf2c2b2e0" x="71.555487" y="307.584" style="stroke: #000000; stroke-width: 0.8"/>
      </g>
     </g>
     <g id="text_1">
      <!-- 0.0 -->
      <g transform="translate(63.603925 322.182437) scale(0.1 -0.1)">
       <defs>
        <path id="DejaVuSans-30" d="M 2034 4250 
Q 1547 4250 1301 3770 
Q 1056 3291 1056 2328 
Q 1056 1369 1301 889 
Q 1547 409 2034 409 
Q 2525 409 2770 889 
Q 3016 1369 3016 2328 
Q 3016 3291 2770 3770 
Q 2525 4250 2034 4250 
z
M 2034 4750 
Q 2819 4750 3233 4129 
Q 3647 3509 3647 2328 
Q 3647 1150 3233 529 
Q 2819 -91 2034 -91 
Q 1250 -91 836 529 
Q 422 1150 422 2328 
Q 422 3509 836 4129 
Q 1250 4750 2034 4750 
z
" transform="scale(0.015625)"/>
        <path id="DejaVuSans-2e" d="M 684 794 
L 1344 794 
L 1344 0 
L 684 0 
L 684 794 
z
" transform="scale(0.015625)"/>
       </defs>
       <use xlink:href="#DejaVuSans-30"/>
       <use xlink:href="#DejaVuSans-2e" x="63.623047"/>
       <use xlink:href="#DejaVuSans-30" x="95.410156"/>
      </g>
     </g>
    </g>
    <g id="xtick_2">
     <g id="line2d_2">
      <g>
       <use xlink:href="#maaf2c2b2e0" x="119.097031" y="307.584" style="stroke: #000000; stroke-width: 0.8"/>
      </g>
     </g>
     <g id="text_2">
      <!-- 0.5 -->
      <g transform="translate(111.145468 322.182437) scale(0.1 -0.1)">
       <defs>
        <path id="DejaVuSans-35" d="M 691 4666 
L 3169 4666 
L 3169 4134 
L 1269 4134 
L 1269 2991 
Q 1406 3038 1543 3061 
Q 1681 3084 1819 3084 
Q 2600 3084 3056 2656 
Q 3513 2228 3513 1497 
Q 3513 744 3044 326 
Q 2575 -91 1722 -91 
Q 1428 -91 1123 -41 
Q 819 9 494 109 
L 494 744 
Q 775 591 1075 516 
Q 1375 441 1709 441 
Q 2250 441 2565 725 
Q 2881 1009 2881 1497 
Q 2881 1984 2565 2268 
Q 2250 2553 1709 2553 
Q 1456 2553 1204 2497 
Q 953 2441 691 2322 
L 691 4666 
z
" transform="scale(0.015625)"/>
       </defs>
       <use xlink:href="#DejaVuSans-30"/>
       <use xlink:href="#DejaVuSans-2e" x="63.623047"/>
       <use xlink:href="#DejaVuSans-35" x="95.410156"/>
      </g>
     </g>
    </g>
    <g id="xtick_3">
     <g id="line2d_3">
      <g>
       <use xlink:href="#maaf2c2b2e0" x="166.638575" y="307.584" style="stroke: #000000; stroke-width: 0.8"/>
      </g>
     </g>
     <g id="text_3">
      <!-- 1.0 -->
      <g transform="translate(158.687012 322.182437) scale(0.1 -0.1)">
       <defs>
        <path id="DejaVuSans-31" d="M 794 531 
L 1825 531 
L 1825 4091 
L 703 3866 
L 703 4441 
L 1819 4666 
L 2450 4666 
L 2450 531 
L 3481 531 
L 3481 0 
L 794 0 
L 794 531 
z
" transform="scale(0.015625)"/>
       </defs>
       <use xlink:href="#DejaVuSans-31"/>
       <use xlink:href="#DejaVuSans-2e" x="63.623047"/>
       <use xlink:href="#DejaVuSans-30" x="95.410156"/>
      </g>
     </g>
    </g>
    <g id="xtick_4">
     <g id="line2d_4">
      <g>
       <use xlink:href="#maaf2c2b2e0" x="214.180118" y="307.584" style="stroke: #000000; stroke-width: 0.8"/>
      </g>
     </g>
     <g id="text_4">
      <!-- 1.5 -->
      <g transform="translate(206.228556 322.182437) scale(0.1 -0.1)">
       <use xlink:href="#DejaVuSans-31"/>
       <use xlink:href="#DejaVuSans-2e" x="63.623047"/>
       <use xlink:href="#DejaVuSans-35" x="95.410156"/>
      </g>
     </g>
    </g>
    <g id="xtick_5">
     <g id="line2d_5">
      <g>
       <use xlink:href="#maaf2c2b2e0" x="261.721662" y="307.584" style="stroke: #000000; stroke-width: 0.8"/>
      </g>
     </g>
     <g id="text_5">
      <!-- 2.0 -->
      <g transform="translate(253.770099 322.182437) scale(0.1 -0.1)">
       <defs>
        <path id="DejaVuSans-32" d="M 1228 531 
L 3431 531 
L 3431 0 
L 469 0 
L 469 531 
Q 828 903 1448 1529 
Q 2069 2156 2228 2338 
Q 2531 2678 2651 2914 
Q 2772 3150 2772 3378 
Q 2772 3750 2511 3984 
Q 2250 4219 1831 4219 
Q 1534 4219 1204 4116 
Q 875 4013 500 3803 
L 500 4441 
Q 881 4594 1212 4672 
Q 1544 4750 1819 4750 
Q 2544 4750 2975 4387 
Q 3406 4025 3406 3419 
Q 3406 3131 3298 2873 
Q 3191 2616 2906 2266 
Q 2828 2175 2409 1742 
Q 1991 1309 1228 531 
z
" transform="scale(0.015625)"/>
       </defs>
       <use xlink:href="#DejaVuSans-32"/>
       <use xlink:href="#DejaVuSans-2e" x="63.623047"/>
       <use xlink:href="#DejaVuSans-30" x="95.410156"/>
      </g>
     </g>
    </g>
    <g id="xtick_6">
     <g id="line2d_6">
      <g>
       <use xlink:href="#maaf2c2b2e0" x="309.263205" y="307.584" style="stroke: #000000; stroke-width: 0.8"/>
      </g>
     </g>
     <g id="text_6">
      <!-- 2.5 -->
      <g transform="translate(301.311643 322.182437) scale(0.1 -0.1)">
       <use xlink:href="#DejaVuSans-32"/>
       <use xlink:href="#DejaVuSans-2e" x="63.623047"/>
       <use xlink:href="#DejaVuSans-35" x="95.410156"/>
      </g>
     </g>
    </g>
    <g id="xtick_7">
     <g id="line2d_7">
      <g>
       <use xlink:href="#maaf2c2b2e0" x="356.804749" y="307.584" style="stroke: #000000; stroke-width: 0.8"/>
      </g>
     </g>
     <g id="text_7">
      <!-- 3.0 -->
      <g transform="translate(348.853186 322.182437) scale(0.1 -0.1)">
       <defs>
        <path id="DejaVuSans-33" d="M 2597 2516 
Q 3050 2419 3304 2112 
Q 3559 1806 3559 1356 
Q 3559 666 3084 287 
Q 2609 -91 1734 -91 
Q 1441 -91 1130 -33 
Q 819 25 488 141 
L 488 750 
Q 750 597 1062 519 
Q 1375 441 1716 441 
Q 2309 441 2620 675 
Q 2931 909 2931 1356 
Q 2931 1769 2642 2001 
Q 2353 2234 1838 2234 
L 1294 2234 
L 1294 2753 
L 1863 2753 
Q 2328 2753 2575 2939 
Q 2822 3125 2822 3475 
Q 2822 3834 2567 4026 
Q 2313 4219 1838 4219 
Q 1578 4219 1281 4162 
Q 984 4106 628 3988 
L 628 4550 
Q 988 4650 1302 4700 
Q 1616 4750 1894 4750 
Q 2613 4750 3031 4423 
Q 3450 4097 3450 3541 
Q 3450 3153 3228 2886 
Q 3006 2619 2597 2516 
z
" transform="scale(0.015625)"/>
       </defs>
       <use xlink:href="#DejaVuSans-33"/>
       <use xlink:href="#DejaVuSans-2e" x="63.623047"/>
       <use xlink:href="#DejaVuSans-30" x="95.410156"/>
      </g>
     </g>
    </g>
    <g id="xtick_8">
     <g id="line2d_8">
      <g>
       <use xlink:href="#maaf2c2b2e0" x="404.346293" y="307.584" style="stroke: #000000; stroke-width: 0.8"/>
      </g>
     </g>
     <g id="text_8">
      <!-- 3.5 -->
      <g transform="translate(396.39473 322.182437) scale(0.1 -0.1)">
       <use xlink:href="#DejaVuSans-33"/>
       <use xlink:href="#DejaVuSans-2e" x="63.623047"/>
       <use xlink:href="#DejaVuSans-35" x="95.410156"/>
      </g>
     </g>
    </g>
    <g id="text_9">
     <!-- 1e6 -->
     <g transform="translate(395.841875 334.860562) scale(0.1 -0.1)">
      <defs>
       <path id="DejaVuSans-65" d="M 3597 1894 
L 3597 1613 
L 953 1613 
Q 991 1019 1311 708 
Q 1631 397 2203 397 
Q 2534 397 2845 478 
Q 3156 559 3463 722 
L 3463 178 
Q 3153 47 2828 -22 
Q 2503 -91 2169 -91 
Q 1331 -91 842 396 
Q 353 884 353 1716 
Q 353 2575 817 3079 
Q 1281 3584 2069 3584 
Q 2775 3584 3186 3129 
Q 3597 2675 3597 1894 
z
M 3022 2063 
Q 3016 2534 2758 2815 
Q 2500 3097 2075 3097 
Q 1594 3097 1305 2825 
Q 1016 2553 972 2059 
L 3022 2063 
z
" transform="scale(0.015625)"/>
       <path id="DejaVuSans-36" d="M 2113 2584 
Q 1688 2584 1439 2293 
Q 1191 2003 1191 1497 
Q 1191 994 1439 701 
Q 1688 409 2113 409 
Q 2538 409 2786 701 
Q 3034 994 3034 1497 
Q 3034 2003 2786 2293 
Q 2538 2584 2113 2584 
z
M 3366 4563 
L 3366 3988 
Q 3128 4100 2886 4159 
Q 2644 4219 2406 4219 
Q 1781 4219 1451 3797 
Q 1122 3375 1075 2522 
Q 1259 2794 1537 2939 
Q 1816 3084 2150 3084 
Q 2853 3084 3261 2657 
Q 3669 2231 3669 1497 
Q 3669 778 3244 343 
Q 2819 -91 2113 -91 
Q 1303 -91 875 529 
Q 447 1150 447 2328 
Q 447 3434 972 4092 
Q 1497 4750 2381 4750 
Q 2619 4750 2861 4703 
Q 3103 4656 3366 4563 
z
" transform="scale(0.015625)"/>
      </defs>
      <use xlink:href="#DejaVuSans-31"/>
      <use xlink:href="#DejaVuSans-65" x="63.623047"/>
      <use xlink:href="#DejaVuSans-36" x="125.146484"/>
     </g>
    </g>
   </g>
   <g id="matplotlib.axis_2">
    <g id="ytick_1">
     <g id="line2d_9">
      <defs>
       <path id="mf2e0ef31cf" d="M 0 0 
L -3.5 0 
" style="stroke: #000000; stroke-width: 0.8"/>
      </defs>
      <g>
       <use xlink:href="#mf2e0ef31cf" x="57.6" y="295.488" style="stroke: #000000; stroke-width: 0.8"/>
      </g>
     </g>
     <g id="text_10">
      <!-- 0.0 -->
      <g transform="translate(34.696875 299.287219) scale(0.1 -0.1)">
       <use xlink:href="#DejaVuSans-30"/>
       <use xlink:href="#DejaVuSans-2e" x="63.623047"/>
       <use xlink:href="#DejaVuSans-30" x="95.410156"/>
      </g>
     </g>
    </g>
    <g id="ytick_2">
     <g id="line2d_10">
      <g>
       <use xlink:href="#mf2e0ef31cf" x="57.6" y="265.248" style="stroke: #000000; stroke-width: 0.8"/>
      </g>
     </g>
     <g id="text_11">
      <!-- 2.5 -->
      <g transform="translate(34.696875 269.047219) scale(0.1 -0.1)">
       <use xlink:href="#DejaVuSans-32"/>
       <use xlink:href="#DejaVuSans-2e" x="63.623047"/>
       <use xlink:href="#DejaVuSans-35" x="95.410156"/>
      </g>
     </g>
    </g>
    <g id="ytick_3">
     <g id="line2d_11">
      <g>
       <use xlink:href="#mf2e0ef31cf" x="57.6" y="235.008" style="stroke: #000000; stroke-width: 0.8"/>
      </g>
     </g>
     <g id="text_12">
      <!-- 5.0 -->
      <g transform="translate(34.696875 238.807219) scale(0.1 -0.1)">
       <use xlink:href="#DejaVuSans-35"/>
       <use xlink:href="#DejaVuSans-2e" x="63.623047"/>
       <use xlink:href="#DejaVuSans-30" x="95.410156"/>
      </g>
     </g>
    </g>
    <g id="ytick_4">
     <g id="line2d_12">
      <g>
       <use xlink:href="#mf2e0ef31cf" x="57.6" y="204.768" style="stroke: #000000; stroke-width: 0.8"/>
      </g>
     </g>
     <g id="text_13">
      <!-- 7.5 -->
      <g transform="translate(34.696875 208.567219) scale(0.1 -0.1)">
       <defs>
        <path id="DejaVuSans-37" d="M 525 4666 
L 3525 4666 
L 3525 4397 
L 1831 0 
L 1172 0 
L 2766 4134 
L 525 4134 
L 525 4666 
z
" transform="scale(0.015625)"/>
       </defs>
       <use xlink:href="#DejaVuSans-37"/>
       <use xlink:href="#DejaVuSans-2e" x="63.623047"/>
       <use xlink:href="#DejaVuSans-35" x="95.410156"/>
      </g>
     </g>
    </g>
    <g id="ytick_5">
     <g id="line2d_13">
      <g>
       <use xlink:href="#mf2e0ef31cf" x="57.6" y="174.528" style="stroke: #000000; stroke-width: 0.8"/>
      </g>
     </g>
     <g id="text_14">
      <!-- 10.0 -->
      <g transform="translate(28.334375 178.327219) scale(0.1 -0.1)">
       <use xlink:href="#DejaVuSans-31"/>
       <use xlink:href="#DejaVuSans-30" x="63.623047"/>
       <use xlink:href="#DejaVuSans-2e" x="127.246094"/>
       <use xlink:href="#DejaVuSans-30" x="159.033203"/>
      </g>
     </g>
    </g>
    <g id="ytick_6">
     <g id="line2d_14">
      <g>
       <use xlink:href="#mf2e0ef31cf" x="57.6" y="144.288" style="stroke: #000000; stroke-width: 0.8"/>
      </g>
     </g>
     <g id="text_15">
      <!-- 12.5 -->
      <g transform="translate(28.334375 148.087219) scale(0.1 -0.1)">
       <use xlink:href="#DejaVuSans-31"/>
       <use xlink:href="#DejaVuSans-32" x="63.623047"/>
       <use xlink:href="#DejaVuSans-2e" x="127.246094"/>
       <use xlink:href="#DejaVuSans-35" x="159.033203"/>
      </g>
     </g>
    </g>
    <g id="ytick_7">
     <g id="line2d_15">
      <g>
       <use xlink:href="#mf2e0ef31cf" x="57.6" y="114.048" style="stroke: #000000; stroke-width: 0.8"/>
      </g>
     </g>
     <g id="text_16">
      <!-- 15.0 -->
      <g transform="translate(28.334375 117.847219) scale(0.1 -0.1)">
       <use xlink:href="#DejaVuSans-31"/>
       <use xlink:href="#DejaVuSans-35" x="63.623047"/>
       <use xlink:href="#DejaVuSans-2e" x="127.246094"/>
       <use xlink:href="#DejaVuSans-30" x="159.033203"/>
      </g>
     </g>
    </g>
    <g id="ytick_8">
     <g id="line2d_16">
      <g>
       <use xlink:href="#mf2e0ef31cf" x="57.6" y="83.808" style="stroke: #000000; stroke-width: 0.8"/>
      </g>
     </g>
     <g id="text_17">
      <!-- 17.5 -->
      <g transform="translate(28.334375 87.607219) scale(0.1 -0.1)">
       <use xlink:href="#DejaVuSans-31"/>
       <use xlink:href="#DejaVuSans-37" x="63.623047"/>
       <use xlink:href="#DejaVuSans-2e" x="127.246094"/>
       <use xlink:href="#DejaVuSans-35" x="159.033203"/>
      </g>
     </g>
    </g>
    <g id="ytick_9">
     <g id="line2d_17">
      <g>
       <use xlink:href="#mf2e0ef31cf" x="57.6" y="53.568" style="stroke: #000000; stroke-width: 0.8"/>
      </g>
     </g>
     <g id="text_18">
      <!-- 20.0 -->
      <g transform="translate(28.334375 57.367219) scale(0.1 -0.1)">
       <use xlink:href="#DejaVuSans-32"/>
       <use xlink:href="#DejaVuSans-30" x="63.623047"/>
       <use xlink:href="#DejaVuSans-2e" x="127.246094"/>
       <use xlink:href="#DejaVuSans-30" x="159.033203"/>
      </g>
     </g>
    </g>
   </g>
   <g id="line2d_18">
    <path d="M 73.832727 283.392 
L 74.046664 295.488 
L 74.164567 283.392 
L 74.378504 295.488 
L 74.495456 283.392 
L 74.709393 295.488 
L 74.827296 283.392 
L 75.041233 295.488 
L 75.165792 283.392 
L 75.379729 295.488 
L 75.497632 283.392 
L 75.711569 295.488 
L 75.82757 283.392 
L 76.041507 295.488 
L 76.15846 283.392 
L 76.372397 295.488 
L 76.496005 283.392 
L 76.709941 295.488 
L 76.831648 283.392 
L 77.045585 295.488 
L 77.164439 283.392 
L 77.378376 295.488 
L 77.49818 283.392 
L 77.712117 295.488 
L 77.833824 283.392 
L 78.047761 295.488 
L 78.170418 283.392 
L 78.384355 295.488 
L 78.507963 283.392 
L 78.7219 295.488 
L 78.835048 283.392 
L 79.048985 295.488 
L 84.946039 283.392 
L 85.208468 198.72 
L 85.218927 210.816 
L 85.247452 222.912 
L 85.49752 210.816 
L 85.595456 235.008 
L 85.821754 222.912 
L 85.981493 235.008 
L 86.010018 247.104 
L 86.154545 235.008 
L 86.337104 247.104 
L 86.364678 259.2 
L 86.482581 247.104 
L 86.720289 259.2 
L 86.748814 271.296 
L 86.818224 259.2 
L 87.093965 271.296 
L 87.12249 283.392 
L 87.150064 271.296 
L 87.472396 283.392 
L 87.482855 271.296 
L 87.663513 283.392 
L 87.819449 271.296 
L 87.86604 283.392 
L 88.147486 271.296 
L 88.361423 295.488 
L 88.479326 283.392 
L 88.693263 295.488 
L 88.805461 283.392 
L 89.019398 295.488 
L 89.13635 283.392 
L 89.350287 295.488 
L 89.473895 283.392 
L 89.687832 295.488 
L 89.800981 283.392 
L 90.014918 295.488 
L 90.129018 283.392 
L 90.342955 295.488 
L 90.466563 283.392 
L 90.680499 295.488 
L 90.803157 283.392 
L 91.017094 295.488 
L 91.140702 283.392 
L 91.354639 295.488 
L 91.464935 283.392 
L 91.678872 295.488 
L 91.805332 283.392 
L 92.019269 295.488 
L 92.136222 283.392 
L 92.350159 295.488 
L 92.476619 283.392 
L 92.690556 295.488 
L 92.807508 283.392 
L 93.021445 295.488 
L 93.136496 283.392 
L 93.350433 295.488 
L 93.464532 283.392 
L 93.678469 295.488 
L 93.795421 283.392 
L 94.009358 295.488 
L 94.127261 283.392 
L 94.341198 295.488 
L 94.454347 283.392 
L 94.668284 295.488 
L 94.786187 283.392 
L 95.000124 295.488 
L 95.12183 283.392 
L 95.335767 295.488 
L 95.457474 283.392 
L 95.671411 295.488 
L 95.787412 283.392 
L 96.001349 295.488 
L 96.118301 283.392 
L 96.332238 295.488 
L 96.450141 283.392 
L 96.664078 295.488 
L 96.785785 283.392 
L 96.999721 295.488 
L 97.115723 283.392 
L 97.32966 295.488 
L 97.450415 283.392 
L 97.664352 295.488 
L 97.78796 283.392 
L 98.001897 295.488 
L 98.115046 283.392 
L 98.328983 295.488 
L 98.444984 283.392 
L 98.658921 295.488 
L 98.776824 283.392 
L 98.990761 295.488 
L 99.440504 283.392 
L 99.654441 295.488 
L 99.765688 283.392 
L 99.979625 295.488 
L 100.106086 283.392 
L 100.320023 295.488 
L 100.445533 283.392 
L 100.659469 295.488 
L 100.784028 283.392 
L 100.997965 295.488 
L 101.122524 283.392 
L 101.336461 295.488 
L 101.452462 283.392 
L 101.666399 295.488 
L 101.786204 283.392 
L 102.000141 295.488 
L 102.123749 283.392 
L 102.337686 295.488 
L 102.458442 283.392 
L 102.672378 295.488 
L 102.789331 283.392 
L 103.003268 295.488 
L 103.119269 283.392 
L 103.333206 295.488 
L 103.453961 283.392 
L 103.667898 295.488 
L 103.794359 283.392 
L 104.008296 295.488 
L 104.125248 283.392 
L 104.339185 295.488 
L 104.458039 283.392 
L 104.671976 295.488 
L 104.79083 283.392 
L 105.004767 295.488 
L 105.125522 283.392 
L 105.339459 295.488 
L 105.458313 283.392 
L 105.67225 295.488 
L 105.793956 283.392 
L 106.007893 295.488 
L 106.126747 283.392 
L 106.340684 295.488 
L 106.452882 283.392 
L 106.666819 295.488 
L 106.788525 283.392 
L 107.002462 295.488 
L 107.122267 283.392 
L 107.336204 295.488 
L 107.453156 283.392 
L 107.667093 295.488 
L 107.777389 283.392 
L 107.991326 295.488 
L 108.112082 283.392 
L 108.326019 295.488 
L 108.441069 283.392 
L 108.655006 295.488 
L 108.77386 283.392 
L 108.987797 295.488 
L 109.109503 283.392 
L 109.32344 295.488 
L 109.441343 283.392 
L 109.65528 295.488 
L 109.776036 283.392 
L 109.989973 295.488 
L 110.105974 283.392 
L 110.319911 295.488 
L 110.434011 283.392 
L 110.647948 295.488 
L 110.762048 283.392 
L 110.975984 295.488 
L 111.092937 283.392 
L 111.306874 295.488 
L 111.422875 283.392 
L 111.636812 295.488 
L 111.755666 283.392 
L 111.969603 295.488 
L 112.090358 283.392 
L 112.304295 295.488 
L 113.937823 283.392 
L 114.15176 295.488 
L 114.17553 283.392 
L 114.389467 295.488 
L 114.406582 283.392 
L 114.620519 295.488 
L 114.642388 283.392 
L 114.856325 295.488 
L 114.878194 283.392 
L 115.092131 295.488 
L 115.117804 283.392 
L 115.331741 295.488 
L 115.357413 283.392 
L 115.57135 295.488 
L 115.593219 283.392 
L 115.807156 295.488 
L 115.831878 283.392 
L 116.045815 295.488 
L 116.067684 283.392 
L 116.281621 295.488 
L 116.305391 283.392 
L 116.519328 295.488 
L 116.545001 283.392 
L 116.758938 295.488 
L 116.782709 283.392 
L 116.996646 295.488 
L 117.026121 283.392 
L 117.240058 295.488 
L 128.673799 283.392 
L 128.887736 295.488 
L 128.912458 283.392 
L 129.126395 295.488 
L 129.149215 283.392 
L 129.363152 295.488 
L 129.382168 283.392 
L 129.596105 295.488 
L 129.622729 283.392 
L 129.836666 295.488 
L 129.856633 283.392 
L 130.07057 295.488 
L 130.27595 174.528 
L 130.366278 114.048 
L 130.404312 150.336 
L 130.570707 138.24 
L 130.656282 101.952 
L 130.659134 114.048 
L 131.18114 101.952 
L 131.230584 114.048 
L 131.711704 101.952 
L 131.761147 114.048 
L 132.260334 101.952 
L 132.305023 114.048 
L 132.726241 101.952 
L 132.77093 114.048 
L 133.225427 101.952 
L 133.269165 114.048 
L 133.7674 101.952 
L 133.811139 126.144 
L 133.897664 114.048 
L 134.259931 126.144 
L 134.264685 114.048 
L 134.302718 150.336 
L 134.601279 138.24 
L 134.786691 150.336 
L 134.829479 186.624 
L 134.841839 174.528 
L 135.319156 150.336 
L 135.375255 198.72 
L 135.797424 186.624 
L 135.88395 210.816 
L 135.912475 235.008 
L 136.040837 222.912 
L 136.280446 210.816 
L 136.391694 235.008 
L 136.420219 259.2 
L 136.519105 247.104 
L 136.757764 235.008 
L 136.927011 247.104 
L 136.969799 283.392 
L 136.999275 271.296 
L 137.469936 247.104 
L 137.551707 283.392 
L 137.936794 271.296 
L 138.150731 295.488 
L 138.177354 283.392 
L 138.391291 295.488 
L 138.411258 283.392 
L 138.625195 295.488 
L 138.648966 283.392 
L 138.862903 295.488 
L 138.884772 283.392 
L 139.098709 295.488 
L 139.125332 283.392 
L 139.339269 295.488 
L 139.366843 283.392 
L 139.58078 295.488 
L 139.6036 283.392 
L 139.817537 295.488 
L 139.847013 283.392 
L 140.06095 295.488 
L 140.085672 283.392 
L 140.299609 295.488 
L 140.322428 283.392 
L 140.536365 295.488 
L 140.556333 283.392 
L 140.77027 295.488 
L 140.791188 283.392 
L 141.005125 295.488 
L 141.027945 283.392 
L 141.241882 295.488 
L 141.264702 283.392 
L 141.478639 295.488 
L 141.50241 283.392 
L 141.716347 295.488 
L 141.738216 283.392 
L 141.952153 295.488 
L 141.975923 283.392 
L 142.18986 295.488 
L 142.217434 283.392 
L 142.431371 295.488 
L 142.45229 283.392 
L 142.666227 295.488 
L 142.693801 283.392 
L 142.907738 295.488 
L 143.171118 283.392 
L 143.385055 295.488 
L 143.405973 283.392 
L 143.61991 295.488 
L 143.648435 283.392 
L 143.862372 295.488 
L 143.889946 283.392 
L 144.103883 295.488 
L 144.132408 283.392 
L 144.346345 295.488 
L 144.370116 283.392 
L 144.584052 295.488 
L 144.612577 283.392 
L 144.826514 295.488 
L 144.846482 283.392 
L 145.060419 295.488 
L 145.08514 283.392 
L 145.299077 295.488 
L 145.322848 283.392 
L 145.536785 295.488 
L 145.555802 283.392 
L 145.769739 295.488 
L 145.795411 283.392 
L 146.009348 295.488 
L 146.033119 283.392 
L 146.247056 295.488 
L 146.276531 283.392 
L 146.490468 295.488 
L 146.517092 283.392 
L 146.731029 295.488 
L 146.751947 283.392 
L 146.965884 295.488 
L 146.987753 283.392 
L 147.20169 295.488 
L 147.225461 283.392 
L 147.439398 295.488 
L 147.461267 283.392 
L 147.675204 295.488 
L 147.703729 283.392 
L 147.917666 295.488 
L 147.944289 283.392 
L 148.158226 295.488 
L 148.181996 283.392 
L 148.395933 295.488 
L 148.418753 283.392 
L 148.63269 295.488 
L 148.663117 283.392 
L 148.877054 295.488 
L 148.89607 283.392 
L 149.110007 295.488 
L 149.130926 283.392 
L 149.344863 295.488 
L 149.372437 283.392 
L 149.586374 295.488 
L 149.614899 283.392 
L 149.828836 295.488 
L 149.849754 283.392 
L 150.063691 295.488 
L 150.091265 283.392 
L 150.305202 295.488 
L 150.331825 283.392 
L 150.545762 295.488 
L 150.571434 283.392 
L 150.785371 295.488 
L 150.813896 283.392 
L 151.027833 295.488 
L 151.050653 283.392 
L 151.26459 295.488 
L 151.293115 283.392 
L 151.507052 295.488 
L 151.529872 283.392 
L 151.743809 295.488 
L 151.76758 283.392 
L 151.981517 295.488 
L 152.004337 283.392 
L 152.218274 295.488 
L 152.246798 283.392 
L 152.460735 295.488 
L 152.480703 283.392 
L 152.69464 295.488 
L 152.722214 283.392 
L 152.936151 295.488 
L 152.961823 283.392 
L 153.17576 295.488 
L 153.205236 283.392 
L 153.419173 295.488 
L 153.4496 283.392 
L 153.663536 295.488 
L 153.683504 283.392 
L 153.897441 295.488 
L 153.918359 283.392 
L 154.132296 295.488 
L 154.156067 283.392 
L 154.370004 295.488 
L 154.391873 283.392 
L 154.60581 295.488 
L 154.627679 283.392 
L 154.841616 295.488 
L 154.866338 283.392 
L 155.080274 295.488 
L 155.104045 283.392 
L 155.317982 295.488 
L 155.346507 283.392 
L 155.560444 295.488 
L 155.584215 283.392 
L 155.798152 295.488 
L 155.81907 283.392 
L 156.033007 295.488 
L 156.054876 283.392 
L 156.268813 295.488 
L 156.28783 283.392 
L 156.501767 295.488 
L 156.524587 283.392 
L 156.738524 295.488 
L 156.760393 283.392 
L 156.97433 295.488 
L 157.002854 283.392 
L 157.216791 295.488 
L 157.243415 283.392 
L 157.457352 295.488 
L 157.479221 283.392 
L 157.693158 295.488 
L 157.723584 283.392 
L 157.937521 295.488 
L 157.957489 283.392 
L 158.171426 295.488 
L 158.190442 283.392 
L 158.404379 295.488 
L 158.42815 283.392 
L 158.642087 295.488 
L 158.662054 283.392 
L 158.875991 295.488 
L 158.898811 283.392 
L 159.112748 295.488 
L 159.13747 283.392 
L 159.351407 295.488 
L 159.379932 283.392 
L 159.593869 295.488 
L 159.619541 283.392 
L 159.833478 295.488 
L 159.85915 283.392 
L 160.073087 295.488 
L 160.095907 283.392 
L 160.309844 295.488 
L 160.329812 283.392 
L 160.543749 295.488 
L 160.566569 283.392 
L 160.780506 295.488 
L 160.804276 283.392 
L 161.018213 295.488 
L 161.039132 283.392 
L 161.253068 295.488 
L 161.273987 283.392 
L 161.487924 295.488 
L 161.509793 283.392 
L 161.72373 295.488 
L 161.745599 283.392 
L 161.959536 295.488 
L 161.98711 283.392 
L 162.201047 295.488 
L 162.221014 283.392 
L 162.434951 295.488 
L 162.458722 283.392 
L 162.672659 295.488 
L 162.695479 283.392 
L 162.909416 295.488 
L 162.933187 283.392 
L 163.147124 295.488 
L 163.169944 283.392 
L 163.38388 295.488 
L 163.414307 283.392 
L 163.628244 295.488 
L 163.65772 283.392 
L 163.871657 295.488 
L 163.89828 283.392 
L 164.112217 295.488 
L 164.13884 283.392 
L 164.352777 295.488 
L 164.375597 283.392 
L 164.589534 295.488 
L 164.612354 283.392 
L 164.826291 295.488 
L 164.84816 283.392 
L 165.062097 295.488 
L 165.083015 283.392 
L 165.296952 295.488 
L 165.31787 283.392 
L 165.531807 295.488 
L 165.553677 283.392 
L 165.767613 295.488 
L 165.78663 283.392 
L 166.000567 295.488 
L 166.024338 283.392 
L 166.238275 295.488 
L 166.261095 283.392 
L 166.475032 295.488 
L 166.496901 283.392 
L 166.710838 295.488 
L 166.738412 283.392 
L 166.952349 295.488 
L 166.978021 283.392 
L 167.191958 295.488 
L 167.455338 283.392 
L 167.669275 295.488 
L 167.687341 283.392 
L 167.901278 295.488 
L 167.924098 283.392 
L 168.138035 295.488 
L 168.162756 283.392 
L 168.376693 295.488 
L 168.398562 283.392 
L 168.612499 295.488 
L 168.635319 283.392 
L 168.849256 295.488 
L 168.87588 283.392 
L 169.089817 295.488 
L 169.113587 283.392 
L 169.327524 295.488 
L 169.355098 283.392 
L 169.569035 295.488 
L 169.590904 283.392 
L 169.804841 295.488 
L 169.827661 283.392 
L 170.041598 295.488 
L 170.071074 283.392 
L 170.285011 295.488 
L 170.30688 283.392 
L 170.520817 295.488 
L 170.549342 283.392 
L 170.763279 295.488 
L 170.788951 283.392 
L 171.002888 295.488 
L 171.022856 283.392 
L 171.236793 295.488 
L 171.255809 283.392 
L 171.469746 295.488 
L 171.499222 283.392 
L 171.713159 295.488 
L 171.740733 283.392 
L 171.95467 295.488 
L 171.980342 283.392 
L 172.194279 295.488 
L 172.216148 283.392 
L 172.430085 295.488 
L 172.455758 283.392 
L 172.669695 295.488 
L 172.691564 283.392 
L 172.905501 295.488 
L 172.934977 283.392 
L 173.148914 295.488 
L 173.175537 283.392 
L 173.389474 295.488 
L 173.411343 283.392 
L 173.62528 295.488 
L 173.647149 283.392 
L 173.861086 295.488 
L 173.879152 283.392 
L 174.093089 295.488 
L 174.116859 283.392 
L 174.330796 295.488 
L 174.35837 283.392 
L 174.572307 295.488 
L 174.596078 283.392 
L 174.810015 295.488 
L 174.833786 283.392 
L 175.047723 295.488 
L 175.075297 283.392 
L 175.289234 295.488 
L 175.315857 283.392 
L 175.529794 295.488 
L 175.557368 283.392 
L 175.771305 295.488 
L 175.795076 283.392 
L 176.009013 295.488 
L 181.925082 283.392 
L 182.166594 101.952 
L 182.196069 126.144 
L 182.210332 138.24 
L 182.4604 126.144 
L 182.651517 138.24 
L 182.695255 174.528 
L 182.698108 162.432 
L 183.175425 138.24 
L 183.244836 186.624 
L 183.658447 162.432 
L 183.725956 210.816 
L 184.137666 186.624 
L 184.216585 235.008 
L 184.607376 210.816 
L 184.699607 235.008 
L 184.728132 259.2 
L 185.191187 271.296 
L 185.223515 295.488 
L 186.381627 283.392 
L 186.595564 295.488 
L 186.715368 283.392 
L 186.929305 295.488 
L 187.043405 283.392 
L 187.257342 295.488 
L 187.367638 283.392 
L 187.581575 295.488 
L 193.352168 283.392 
L 193.566105 295.488 
L 193.838042 210.816 
L 193.847551 222.912 
L 193.879879 235.008 
L 194.009192 222.912 
L 194.206965 235.008 
L 194.236441 247.104 
L 194.343884 235.008 
L 194.599658 247.104 
L 194.628183 259.2 
L 194.673823 247.104 
L 194.93435 259.2 
L 194.962875 271.296 
L 195.005663 259.2 
L 195.298519 271.296 
L 195.327044 283.392 
L 195.333699 271.296 
L 195.656031 283.392 
L 195.661736 271.296 
L 195.842394 283.392 
L 195.991674 271.296 
L 196.030658 283.392 
L 196.333023 271.296 
L 196.54696 295.488 
L 196.667715 283.392 
L 196.881652 295.488 
L 197.004309 283.392 
L 197.218246 295.488 
L 197.340903 283.392 
L 197.55484 295.488 
L 197.666088 283.392 
L 197.880025 295.488 
L 198.006485 283.392 
L 198.220422 295.488 
L 198.337374 283.392 
L 198.551311 295.488 
L 198.672067 283.392 
L 198.886004 295.488 
L 204.750728 283.392 
L 205.014109 198.72 
L 205.023617 210.816 
L 205.052142 222.912 
L 205.32503 210.816 
L 205.440081 235.008 
L 205.649264 222.912 
L 205.808052 235.008 
L 205.836577 247.104 
L 205.984907 235.008 
L 206.133236 247.104 
L 206.160811 259.2 
L 206.326255 247.104 
L 206.469831 259.2 
L 206.497405 271.296 
L 206.833048 283.392 
L 206.978525 271.296 
L 207.230495 295.488 
L 207.317021 283.392 
L 207.599418 295.488 
L 207.656468 283.392 
L 207.870404 295.488 
L 207.97975 283.392 
L 208.193687 295.488 
L 208.307787 283.392 
L 208.521724 295.488 
L 208.635823 283.392 
L 208.84976 295.488 
L 208.971467 283.392 
L 209.185404 295.488 
L 209.30711 283.392 
L 209.521047 295.488 
L 209.635147 283.392 
L 209.849084 295.488 
L 209.972692 283.392 
L 210.186628 295.488 
L 210.301679 283.392 
L 210.515616 295.488 
L 210.642076 283.392 
L 210.856013 295.488 
L 210.980572 283.392 
L 211.194509 295.488 
L 211.311461 283.392 
L 211.525398 295.488 
L 211.649006 283.392 
L 211.862943 295.488 
L 211.981797 283.392 
L 212.195734 295.488 
L 212.311735 283.392 
L 212.525672 295.488 
L 212.63692 283.392 
L 212.850857 295.488 
L 212.96971 283.392 
L 213.183647 295.488 
L 213.307255 283.392 
L 213.521192 295.488 
L 213.647653 283.392 
L 213.86159 295.488 
L 213.983296 283.392 
L 214.197233 295.488 
L 214.310382 283.392 
L 214.524319 295.488 
L 214.646976 283.392 
L 214.860913 295.488 
L 214.986423 283.392 
L 215.20036 295.488 
L 215.317312 283.392 
L 215.531249 295.488 
L 215.654857 283.392 
L 215.868794 295.488 
L 215.988598 283.392 
L 216.202535 295.488 
L 216.318537 283.392 
L 216.532474 295.488 
L 216.646573 283.392 
L 216.86051 295.488 
L 216.976512 283.392 
L 217.190449 295.488 
L 217.310253 283.392 
L 217.52419 295.488 
L 217.641143 283.392 
L 217.855079 295.488 
L 217.974884 283.392 
L 218.188821 295.488 
L 218.309577 283.392 
L 218.523514 295.488 
L 218.639515 283.392 
L 218.853452 295.488 
L 218.96565 283.392 
L 219.179587 295.488 
L 219.303195 283.392 
L 219.517132 295.488 
L 219.641691 283.392 
L 219.855628 295.488 
L 219.974481 283.392 
L 220.188418 295.488 
L 220.312026 283.392 
L 220.525963 295.488 
L 220.643866 283.392 
L 220.857803 295.488 
L 220.978559 283.392 
L 221.192496 295.488 
L 221.305645 283.392 
L 221.519582 295.488 
L 221.636534 283.392 
L 221.850471 295.488 
L 221.972177 283.392 
L 222.186114 295.488 
L 222.303066 283.392 
L 222.517003 295.488 
L 222.632054 283.392 
L 222.845991 295.488 
L 222.965795 283.392 
L 223.179732 295.488 
L 223.298586 283.392 
L 223.512523 295.488 
L 223.640885 283.392 
L 223.854822 295.488 
L 223.972725 283.392 
L 224.186662 295.488 
L 224.308369 283.392 
L 224.522306 295.488 
L 224.635454 283.392 
L 224.849391 295.488 
L 224.966344 283.392 
L 225.180281 295.488 
L 225.301036 283.392 
L 225.514973 295.488 
L 242.754488 283.392 
L 242.968424 295.488 
L 243.090131 283.392 
L 243.304068 295.488 
L 243.422922 283.392 
L 243.636859 295.488 
L 243.751909 283.392 
L 243.965846 295.488 
L 244.272964 271.296 
L 244.292932 283.392 
L 244.446016 271.296 
L 244.609559 114.048 
L 244.671363 138.24 
L 244.682773 150.336 
L 244.827299 138.24 
L 245.010809 53.568 
L 245.02317 65.664 
L 245.518553 53.568 
L 245.554684 65.664 
L 246.062428 53.568 
L 246.093806 77.76 
L 246.101412 65.664 
L 246.597746 77.76 
L 246.628172 65.664 
L 246.631976 77.76 
L 246.902963 65.664 
L 247.118801 77.76 
L 247.136867 65.664 
L 247.153031 89.856 
L 247.306115 77.76 
L 247.601823 65.664 
L 247.640807 114.048 
L 247.679791 101.952 
L 248.062025 77.76 
L 248.162814 101.952 
L 248.186584 126.144 
L 248.254093 114.048 
L 248.630622 89.856 
L 248.712394 138.24 
L 248.820788 126.144 
L 249.012856 114.048 
L 249.205875 126.144 
L 249.207777 114.048 
L 249.240105 150.336 
L 249.587158 126.144 
L 249.725979 138.24 
L 249.760209 174.528 
L 249.774472 162.432 
L 250.160509 138.24 
L 250.27556 162.432 
L 250.297429 186.624 
L 250.352577 174.528 
L 250.741467 150.336 
L 250.789008 198.72 
L 251.117045 174.528 
L 251.274883 186.624 
L 251.308162 210.816 
L 251.684691 186.624 
L 251.818758 198.72 
L 251.852988 235.008 
L 251.875808 222.912 
L 252.257091 198.72 
L 252.338863 222.912 
L 252.361683 247.104 
L 252.452012 235.008 
L 252.833295 210.816 
L 252.881787 259.2 
L 253.211725 235.008 
L 253.385727 247.104 
L 253.419957 271.296 
L 253.784126 247.104 
L 253.957177 259.2 
L 253.998063 283.392 
L 254.353673 259.2 
L 254.432592 283.392 
L 254.548594 271.296 
L 254.56761 283.392 
L 254.737809 271.296 
L 254.762531 283.392 
L 254.930828 271.296 
L 254.951746 283.392 
L 255.120994 271.296 
L 255.144765 283.392 
L 255.314013 271.296 
L 255.334931 283.392 
L 255.509884 271.296 
L 255.527949 283.392 
L 255.70005 271.296 
L 255.723821 283.392 
L 255.887364 271.296 
L 255.913987 283.392 
L 256.073726 271.296 
L 256.1013 283.392 
L 256.260089 271.296 
L 256.287663 283.392 
L 256.454059 271.296 
L 256.474026 283.392 
L 256.640422 271.296 
L 256.667996 283.392 
L 256.831539 271.296 
L 256.854359 283.392 
L 257.021705 271.296 
L 257.045476 283.392 
L 257.212822 271.296 
L 257.235642 283.392 
L 257.40489 271.296 
L 257.426759 283.392 
L 257.596007 271.296 
L 257.618827 283.392 
L 257.784271 271.296 
L 257.809944 283.392 
L 257.972536 271.296 
L 257.998208 283.392 
L 258.165554 271.296 
L 258.186473 283.392 
L 258.358573 271.296 
L 258.379491 283.392 
L 258.545887 271.296 
L 258.57251 283.392 
L 258.737004 271.296 
L 258.759824 283.392 
L 258.928121 271.296 
L 258.950941 283.392 
L 259.115434 271.296 
L 259.142058 283.392 
L 259.303699 271.296 
L 259.329371 283.392 
L 259.489111 271.296 
L 259.517636 283.392 
L 259.678326 271.296 
L 259.703048 283.392 
L 259.866591 271.296 
L 259.892263 283.392 
L 260.080528 295.488 
L 260.436138 271.296 
L 260.458958 283.392 
L 260.650075 295.488 
L 261.005686 271.296 
L 261.026604 283.392 
L 261.194901 271.296 
L 261.219623 283.392 
L 261.386969 271.296 
L 261.408838 283.392 
L 261.574283 271.296 
L 261.600906 283.392 
L 261.764449 271.296 
L 261.78822 283.392 
L 261.953664 271.296 
L 261.978386 283.392 
L 262.143831 271.296 
L 262.167601 283.392 
L 262.332095 271.296 
L 262.357768 283.392 
L 262.71528 259.2 
L 262.724788 271.296 
L 263.856277 198.72 
L 264.036935 210.816 
L 264.048345 198.72 
L 264.419169 174.528 
L 264.550384 198.72 
L 264.573204 222.912 
L 264.61504 210.816 
L 264.994422 186.624 
L 265.062881 235.008 
L 265.182686 222.912 
L 265.371901 210.816 
L 265.524985 222.912 
L 265.559215 259.2 
L 265.563969 247.104 
L 265.947154 222.912 
L 266.053647 247.104 
L 266.076467 271.296 
L 266.135419 259.2 
L 266.5148 247.104 
L 266.568998 283.392 
L 266.706868 271.296 
L 266.728737 283.392 
L 267.08625 259.2 
L 267.113824 283.392 
L 267.274514 271.296 
L 267.300186 283.392 
L 267.462779 271.296 
L 267.614911 283.392 
L 267.652945 271.296 
L 267.676716 283.392 
L 267.843111 271.296 
L 267.866882 283.392 
L 268.027572 271.296 
L 268.057048 283.392 
L 268.216787 271.296 
L 268.241509 283.392 
L 268.405052 271.296 
L 268.430724 283.392 
L 268.59712 271.296 
L 268.618989 283.392 
L 268.783483 271.296 
L 268.811057 283.392 
L 268.973649 271.296 
L 268.99742 283.392 
L 269.163815 271.296 
L 269.187586 283.392 
L 269.35303 271.296 
L 269.377752 283.392 
L 269.540344 271.296 
L 269.566967 283.392 
L 269.729559 271.296 
L 269.754281 283.392 
L 269.921627 271.296 
L 269.943496 283.392 
L 270.114646 271.296 
L 270.135564 283.392 
L 270.305763 271.296 
L 270.328583 283.392 
L 270.495929 271.296 
L 270.5197 283.392 
L 270.682292 271.296 
L 270.709866 283.392 
L 270.872458 271.296 
L 270.896229 283.392 
L 271.061673 271.296 
L 271.086395 283.392 
L 271.25279 271.296 
L 271.27561 283.392 
L 271.444858 271.296 
L 271.466727 283.392 
L 271.637877 271.296 
L 271.658795 283.392 
L 271.827092 271.296 
L 271.851814 283.392 
L 272.015357 271.296 
L 272.041029 283.392 
L 272.207425 271.296 
L 272.229294 283.392 
L 272.392837 271.296 
L 272.421362 283.392 
L 272.583954 271.296 
L 272.606774 283.392 
L 272.776021 271.296 
L 272.797891 283.392 
L 272.965237 271.296 
L 272.989958 283.392 
L 273.155403 271.296 
L 273.179174 283.392 
L 273.34652 271.296 
L 273.36934 283.392 
L 273.533834 271.296 
L 273.560457 283.392 
L 273.720197 271.296 
L 273.747771 283.392 
L 273.916068 271.296 
L 273.934133 283.392 
L 274.105283 271.296 
L 274.130005 283.392 
L 274.293548 271.296 
L 274.31922 283.392 
L 274.484665 271.296 
L 274.507484 283.392 
L 274.674831 271.296 
L 274.698601 283.392 
L 274.864997 271.296 
L 274.888768 283.392 
L 275.054212 271.296 
L 275.078934 283.392 
L 275.244378 271.296 
L 275.268149 283.392 
L 275.434545 271.296 
L 275.458315 283.392 
L 275.62376 271.296 
L 275.648482 283.392 
L 275.812975 271.296 
L 275.837697 283.392 
L 276.000289 271.296 
L 276.026912 283.392 
L 276.189504 271.296 
L 276.214226 283.392 
L 276.380621 271.296 
L 276.403441 283.392 
L 276.572689 271.296 
L 276.594558 283.392 
L 276.758101 271.296 
L 276.786626 283.392 
L 276.944464 271.296 
L 276.972038 283.392 
L 277.131778 271.296 
L 277.158401 283.392 
L 277.324796 271.296 
L 277.345715 283.392 
L 277.514963 271.296 
L 277.538733 283.392 
L 277.705129 271.296 
L 277.728899 283.392 
L 277.896246 271.296 
L 277.919066 283.392 
L 278.083559 271.296 
L 278.110183 283.392 
L 278.272775 271.296 
L 278.297496 283.392 
L 278.46199 271.296 
L 278.486712 283.392 
L 278.654058 271.296 
L 278.675927 283.392 
L 278.843273 271.296 
L 278.867995 283.392 
L 279.03439 271.296 
L 279.05721 283.392 
L 279.223606 271.296 
L 279.248327 283.392 
L 279.416624 271.296 
L 279.437543 283.392 
L 279.603938 271.296 
L 279.630561 283.392 
L 279.795055 271.296 
L 279.817875 283.392 
L 279.985221 271.296 
L 280.008992 283.392 
L 280.179191 271.296 
L 280.199158 283.392 
L 280.370308 271.296 
L 280.393128 283.392 
L 280.558572 271.296 
L 280.584245 283.392 
L 280.75064 271.296 
L 280.772509 283.392 
L 280.937954 271.296 
L 280.964577 283.392 
L 281.129071 271.296 
L 281.151891 283.392 
L 281.323991 271.296 
L 281.343008 283.392 
L 281.511305 271.296 
L 281.537928 283.392 
L 281.698618 271.296 
L 281.725242 283.392 
L 281.888785 271.296 
L 281.912555 283.392 
L 282.079902 271.296 
L 282.102721 283.392 
L 282.270068 271.296 
L 282.293838 283.392 
L 282.458332 271.296 
L 282.484005 283.392 
L 282.653253 271.296 
L 282.672269 283.392 
L 282.841517 271.296 
L 282.86719 283.392 
L 283.035487 271.296 
L 283.055454 283.392 
L 283.2228 271.296 
L 283.249424 283.392 
L 283.412016 271.296 
L 283.436737 283.392 
L 283.603133 271.296 
L 283.625953 283.392 
L 283.793299 271.296 
L 283.81707 283.392 
L 283.979662 271.296 
L 284.007236 283.392 
L 284.169828 271.296 
L 284.193599 283.392 
L 284.361896 271.296 
L 284.383765 283.392 
L 284.547308 271.296 
L 284.575833 283.392 
L 284.738425 271.296 
L 284.761245 283.392 
L 284.930493 271.296 
L 284.952362 283.392 
L 285.119708 271.296 
L 285.144429 283.392 
L 285.310825 271.296 
L 285.333645 283.392 
L 285.499089 271.296 
L 285.524762 283.392 
L 285.684501 271.296 
L 285.713026 283.392 
L 285.878471 271.296 
L 285.898438 283.392 
L 286.07149 271.296 
L 286.092408 283.392 
L 286.260705 271.296 
L 286.285426 283.392 
L 286.452773 271.296 
L 286.474642 283.392 
L 286.639136 271.296 
L 286.66671 283.392 
L 286.830253 271.296 
L 286.853073 283.392 
L 287.017566 271.296 
L 287.04419 283.392 
L 287.20488 271.296 
L 287.231503 283.392 
L 287.397899 271.296 
L 287.418817 283.392 
L 287.589016 271.296 
L 287.611836 283.392 
L 287.775378 271.296 
L 287.802953 283.392 
L 287.964594 271.296 
L 287.989315 283.392 
L 288.15476 271.296 
L 288.178531 283.392 
L 288.348729 271.296 
L 288.368697 283.392 
L 288.539846 271.296 
L 288.562666 283.392 
L 288.728111 271.296 
L 288.753783 283.392 
L 288.920179 271.296 
L 288.942048 283.392 
L 289.111296 271.296 
L 289.134116 283.392 
L 289.296708 271.296 
L 289.325233 283.392 
L 289.484972 271.296 
L 289.510645 283.392 
L 289.675139 271.296 
L 289.698909 283.392 
L 289.868157 271.296 
L 289.889076 283.392 
L 290.061176 271.296 
L 290.082094 283.392 
L 290.275113 295.488 
L 296.023836 283.392 
L 296.278659 77.76 
L 296.288167 89.856 
L 296.329053 126.144 
L 296.335709 114.048 
L 296.721746 89.856 
L 296.844403 101.952 
L 296.877682 138.24 
L 296.910011 126.144 
L 297.295097 101.952 
L 297.365459 150.336 
L 297.486214 138.24 
L 297.862743 114.048 
L 297.934056 162.432 
L 298.051008 150.336 
L 298.241174 138.24 
L 298.425635 150.336 
L 298.430389 138.24 
L 298.460816 174.528 
L 298.811672 150.336 
L 298.929575 174.528 
L 298.952395 198.72 
L 299.00374 186.624 
L 299.385023 162.432 
L 299.459188 198.72 
L 299.470598 210.816 
L 299.772962 186.624 
L 299.926997 198.72 
L 299.960276 235.008 
L 299.964079 222.912 
L 300.349166 198.72 
L 300.474676 222.912 
L 300.497496 247.104 
L 300.541234 235.008 
L 300.918714 210.816 
L 300.995731 247.104 
L 301.00619 259.2 
L 301.302849 235.008 
L 301.495868 222.912 
L 301.545311 271.296 
L 301.877151 247.104 
L 302.011218 259.2 
L 302.091088 283.392 
L 302.440043 259.2 
L 302.65398 283.392 
L 303.003886 259.2 
L 303.098018 283.392 
L 303.195954 271.296 
L 303.217823 283.392 
L 303.387071 271.296 
L 303.409891 283.392 
L 303.578188 271.296 
L 303.601008 283.392 
L 303.769305 271.296 
L 303.792125 283.392 
L 303.961372 271.296 
L 303.983242 283.392 
L 304.149637 271.296 
L 304.175309 283.392 
L 304.338852 271.296 
L 304.363574 283.392 
L 304.533773 271.296 
L 304.552789 283.392 
L 304.722988 271.296 
L 304.74771 283.392 
L 304.909351 271.296 
L 304.936925 283.392 
L 305.098566 271.296 
L 305.123288 283.392 
L 305.287781 271.296 
L 305.312503 283.392 
L 305.476997 271.296 
L 305.501718 283.392 
L 305.690934 295.488 
L 306.498189 283.392 
L 306.712126 295.488 
L 306.828127 283.392 
L 307.042064 295.488 
L 307.16282 283.392 
L 307.376757 295.488 
L 324.142758 283.392 
L 324.313907 271.296 
L 324.492663 210.816 
L 324.529746 222.912 
L 324.559222 235.008 
L 324.709453 222.912 
L 324.795028 210.816 
L 334.120777 198.72 
L 334.165466 210.816 
L 334.489699 198.72 
L 334.535339 210.816 
L 334.864327 198.72 
L 334.909966 210.816 
L 335.220888 198.72 
L 335.267479 210.816 
L 335.615483 198.72 
L 335.660172 210.816 
L 335.963487 198.72 
L 336.008176 210.816 
L 336.330508 198.72 
L 336.375197 210.816 
L 336.673758 198.72 
L 336.719398 210.816 
L 337.055992 198.72 
L 337.101632 210.816 
L 337.406848 198.72 
L 337.452488 210.816 
L 337.732032 198.72 
L 337.776722 210.816 
L 338.070528 198.72 
L 338.116168 210.816 
L 338.431844 198.72 
L 338.477484 210.816 
L 338.799816 198.72 
L 338.845455 210.816 
L 339.137361 198.72 
L 339.183 210.816 
L 339.508185 198.72 
L 339.557628 210.816 
L 339.859992 198.72 
L 339.910386 210.816 
L 340.267898 198.72 
L 340.318292 210.816 
L 340.609247 198.72 
L 340.654887 210.816 
L 340.935382 198.72 
L 340.981022 210.816 
L 341.312862 198.72 
L 341.358501 210.816 
L 341.647554 198.72 
L 341.693194 210.816 
L 342.002214 198.72 
L 342.047854 210.816 
L 342.364481 198.72 
L 342.41012 210.816 
L 342.733403 198.72 
L 342.779043 210.816 
L 343.079505 198.72 
L 343.125145 210.816 
L 343.471248 198.72 
L 343.516888 210.816 
L 343.86299 198.72 
L 343.901974 222.912 
L 344.130173 210.816 
L 344.267093 235.008 
L 344.45821 222.912 
L 344.637917 235.008 
L 344.666442 247.104 
L 344.794804 235.008 
L 344.992577 247.104 
L 345.021102 259.2 
L 345.135202 247.104 
L 345.36245 259.2 
L 345.390975 271.296 
L 345.467992 259.2 
L 345.770357 271.296 
L 345.798882 283.392 
L 345.804587 271.296 
L 346.131672 259.2 
L 346.148787 271.296 
L 346.31233 283.392 
L 346.465414 271.296 
L 346.679351 295.488 
L 346.804861 283.392 
L 347.018798 295.488 
L 347.134799 283.392 
L 347.348736 295.488 
L 347.462836 283.392 
L 347.676773 295.488 
L 347.803233 283.392 
L 348.01717 295.488 
L 348.135073 283.392 
L 348.34901 295.488 
L 348.471667 283.392 
L 348.685604 295.488 
L 348.802556 283.392 
L 349.016493 295.488 
L 349.131544 283.392 
L 349.345481 295.488 
L 349.47099 283.392 
L 349.684927 295.488 
L 349.800929 283.392 
L 350.014866 295.488 
L 350.135621 283.392 
L 350.349558 295.488 
L 350.46556 283.392 
L 350.679496 295.488 
L 350.794547 283.392 
L 351.008484 295.488 
L 351.119731 283.392 
L 351.333668 295.488 
L 351.451571 283.392 
L 351.665508 295.488 
L 353.318052 283.392 
L 353.531989 295.488 
L 353.552907 283.392 
L 353.766844 295.488 
L 353.788713 283.392 
L 354.00265 295.488 
L 354.024519 283.392 
L 354.238456 295.488 
L 354.259375 283.392 
L 354.473312 295.488 
L 354.496132 283.392 
L 354.710069 295.488 
L 354.733839 283.392 
L 354.947776 295.488 
L 354.972498 283.392 
L 355.186435 295.488 
L 355.206402 283.392 
L 355.420339 295.488 
L 355.445061 283.392 
L 355.658998 295.488 
L 355.679916 283.392 
L 355.893853 295.488 
L 355.91287 283.392 
L 356.126807 295.488 
L 356.15343 283.392 
L 356.367367 295.488 
L 356.393039 283.392 
L 356.606976 295.488 
L 356.632649 283.392 
L 356.846586 295.488 
L 356.872258 283.392 
L 357.086195 295.488 
L 357.108064 283.392 
L 357.322001 295.488 
L 357.34387 283.392 
L 357.557807 295.488 
L 357.587283 283.392 
L 357.80122 295.488 
L 357.819285 283.392 
L 358.033222 295.488 
L 358.052239 283.392 
L 358.266176 295.488 
L 358.288045 283.392 
L 358.501982 295.488 
L 358.531458 283.392 
L 358.745395 295.488 
L 358.769166 283.392 
L 358.983102 295.488 
L 359.006873 283.392 
L 359.22081 295.488 
L 359.48324 283.392 
L 359.697176 295.488 
L 359.722849 283.392 
L 359.936786 295.488 
L 359.958655 283.392 
L 360.172592 295.488 
L 360.199215 283.392 
L 360.413152 295.488 
L 360.429316 283.392 
L 360.643253 295.488 
L 360.668926 283.392 
L 360.882863 295.488 
L 360.905683 283.392 
L 361.119619 295.488 
L 361.140538 283.392 
L 361.354475 295.488 
L 361.382049 283.392 
L 361.595986 295.488 
L 361.621658 283.392 
L 361.835595 295.488 
L 361.863169 283.392 
L 362.077106 295.488 
L 362.101828 283.392 
L 362.315765 295.488 
L 362.338585 283.392 
L 362.552522 295.488 
L 373.990066 283.392 
L 374.204003 295.488 
L 374.224921 283.392 
L 374.438858 295.488 
L 374.460727 283.392 
L 374.674664 295.488 
L 374.694632 283.392 
L 374.908569 295.488 
L 374.927585 283.392 
L 375.141522 295.488 
L 375.164342 283.392 
L 375.378279 295.488 
L 375.679693 114.048 
L 375.718677 150.336 
L 375.885072 138.24 
L 375.965893 114.048 
L 376.453669 101.952 
L 376.505014 114.048 
L 376.961413 101.952 
L 377.012757 114.048 
L 377.453943 101.952 
L 377.49673 114.048 
L 378.016835 114.048 
L 378.491299 101.952 
L 378.535038 114.048 
L 379.042781 101.952 
L 379.08747 126.144 
L 379.091274 114.048 
L 379.623739 101.952 
L 379.668428 138.24 
L 379.710265 126.144 
L 379.947972 114.048 
L 380.134335 126.144 
L 380.177123 162.432 
L 380.188533 150.336 
L 380.429093 138.24 
L 380.664899 150.336 
L 380.672506 138.24 
L 380.706735 174.528 
L 381.142216 150.336 
L 381.254414 174.528 
L 381.282939 198.72 
L 381.783076 210.816 
L 381.825863 247.104 
L 382.330755 259.2 
L 382.378296 295.488 
L 387.084909 283.392 
L 387.298846 295.488 
L 387.489012 126.144 
L 387.546062 101.952 
L 387.575538 126.144 
L 387.603112 150.336 
L 388.057609 126.144 
L 388.131774 174.528 
L 388.534926 150.336 
L 388.650927 174.528 
L 388.679452 198.72 
L 388.766929 186.624 
L 389.007489 174.528 
L 389.197655 186.624 
L 389.239492 222.912 
L 389.246147 210.816 
L 389.719661 186.624 
L 389.790974 235.008 
L 390.203634 210.816 
L 390.283504 259.2 
L 390.67905 235.008 
L 390.773182 259.2 
L 390.873019 283.392 
L 390.913905 271.296 
L 391.14876 259.2 
L 391.362697 295.488 
L 391.385517 283.392 
L 391.622274 271.296 
L 391.836211 295.488 
L 391.860932 283.392 
L 392.074869 295.488 
L 392.100542 283.392 
L 392.314479 295.488 
L 392.336348 283.392 
L 392.550285 295.488 
L 392.574056 283.392 
L 392.787992 295.488 
L 392.812714 283.392 
L 393.026651 295.488 
L 393.051373 283.392 
L 393.26531 295.488 
L 393.291933 283.392 
L 393.50587 295.488 
L 393.527739 283.392 
L 393.741676 295.488 
L 393.763545 283.392 
L 393.977482 295.488 
L 394.002204 283.392 
L 394.21614 295.488 
L 394.23896 283.392 
L 394.452897 295.488 
L 394.479521 283.392 
L 394.693458 295.488 
L 394.717228 283.392 
L 394.931165 295.488 
L 394.956838 283.392 
L 395.170775 295.488 
L 395.190742 283.392 
L 395.404679 295.488 
L 395.430351 283.392 
L 395.644288 295.488 
L 395.666158 283.392 
L 395.880094 295.488 
L 395.901013 283.392 
L 396.11495 295.488 
L 396.140622 283.392 
L 396.354559 295.488 
L 396.37833 283.392 
L 396.592267 295.488 
L 396.615087 283.392 
L 396.829024 295.488 
L 396.847089 283.392 
L 397.061026 295.488 
L 397.088601 283.392 
L 397.302537 295.488 
L 397.323456 283.392 
L 397.537393 295.488 
L 397.564016 283.392 
L 397.777953 295.488 
L 397.806478 283.392 
L 398.020415 295.488 
L 398.040382 283.392 
L 398.254319 295.488 
L 398.273336 283.392 
L 398.487273 295.488 
L 398.487273 295.488 
" clip-path="url(#p70567a16f7)" style="fill: none; stroke: #1f77b4; stroke-width: 1.5; stroke-linecap: square"/>
   </g>
   <g id="patch_3">
    <path d="M 57.6 307.584 
L 57.6 41.472 
" style="fill: none; stroke: #000000; stroke-width: 0.8; stroke-linejoin: miter; stroke-linecap: square"/>
   </g>
   <g id="patch_4">
    <path d="M 414.72 307.584 
L 414.72 41.472 
" style="fill: none; stroke: #000000; stroke-width: 0.8; stroke-linejoin: miter; stroke-linecap: square"/>
   </g>
   <g id="patch_5">
    <path d="M 57.6 307.584 
L 414.72 307.584 
" style="fill: none; stroke: #000000; stroke-width: 0.8; stroke-linejoin: miter; stroke-linecap: square"/>
   </g>
   <g id="patch_6">
    <path d="M 57.6 41.472 
L 414.72 41.472 
" style="fill: none; stroke: #000000; stroke-width: 0.8; stroke-linejoin: miter; stroke-linecap: square"/>
   </g>
   <g id="text_19">
    <!-- Queue size (y-axis) between S5 and sensors that follow at a time (x-axis). -->
    <g transform="translate(14.282813 35.472) scale(0.12 -0.12)">
     <defs>
      <path id="DejaVuSans-51" d="M 2522 4238 
Q 1834 4238 1429 3725 
Q 1025 3213 1025 2328 
Q 1025 1447 1429 934 
Q 1834 422 2522 422 
Q 3209 422 3611 934 
Q 4013 1447 4013 2328 
Q 4013 3213 3611 3725 
Q 3209 4238 2522 4238 
z
M 3406 84 
L 4238 -825 
L 3475 -825 
L 2784 -78 
Q 2681 -84 2626 -87 
Q 2572 -91 2522 -91 
Q 1538 -91 948 567 
Q 359 1225 359 2328 
Q 359 3434 948 4092 
Q 1538 4750 2522 4750 
Q 3503 4750 4090 4092 
Q 4678 3434 4678 2328 
Q 4678 1516 4351 937 
Q 4025 359 3406 84 
z
" transform="scale(0.015625)"/>
      <path id="DejaVuSans-75" d="M 544 1381 
L 544 3500 
L 1119 3500 
L 1119 1403 
Q 1119 906 1312 657 
Q 1506 409 1894 409 
Q 2359 409 2629 706 
Q 2900 1003 2900 1516 
L 2900 3500 
L 3475 3500 
L 3475 0 
L 2900 0 
L 2900 538 
Q 2691 219 2414 64 
Q 2138 -91 1772 -91 
Q 1169 -91 856 284 
Q 544 659 544 1381 
z
M 1991 3584 
L 1991 3584 
z
" transform="scale(0.015625)"/>
      <path id="DejaVuSans-20" transform="scale(0.015625)"/>
      <path id="DejaVuSans-73" d="M 2834 3397 
L 2834 2853 
Q 2591 2978 2328 3040 
Q 2066 3103 1784 3103 
Q 1356 3103 1142 2972 
Q 928 2841 928 2578 
Q 928 2378 1081 2264 
Q 1234 2150 1697 2047 
L 1894 2003 
Q 2506 1872 2764 1633 
Q 3022 1394 3022 966 
Q 3022 478 2636 193 
Q 2250 -91 1575 -91 
Q 1294 -91 989 -36 
Q 684 19 347 128 
L 347 722 
Q 666 556 975 473 
Q 1284 391 1588 391 
Q 1994 391 2212 530 
Q 2431 669 2431 922 
Q 2431 1156 2273 1281 
Q 2116 1406 1581 1522 
L 1381 1569 
Q 847 1681 609 1914 
Q 372 2147 372 2553 
Q 372 3047 722 3315 
Q 1072 3584 1716 3584 
Q 2034 3584 2315 3537 
Q 2597 3491 2834 3397 
z
" transform="scale(0.015625)"/>
      <path id="DejaVuSans-69" d="M 603 3500 
L 1178 3500 
L 1178 0 
L 603 0 
L 603 3500 
z
M 603 4863 
L 1178 4863 
L 1178 4134 
L 603 4134 
L 603 4863 
z
" transform="scale(0.015625)"/>
      <path id="DejaVuSans-7a" d="M 353 3500 
L 3084 3500 
L 3084 2975 
L 922 459 
L 3084 459 
L 3084 0 
L 275 0 
L 275 525 
L 2438 3041 
L 353 3041 
L 353 3500 
z
" transform="scale(0.015625)"/>
      <path id="DejaVuSans-28" d="M 1984 4856 
Q 1566 4138 1362 3434 
Q 1159 2731 1159 2009 
Q 1159 1288 1364 580 
Q 1569 -128 1984 -844 
L 1484 -844 
Q 1016 -109 783 600 
Q 550 1309 550 2009 
Q 550 2706 781 3412 
Q 1013 4119 1484 4856 
L 1984 4856 
z
" transform="scale(0.015625)"/>
      <path id="DejaVuSans-79" d="M 2059 -325 
Q 1816 -950 1584 -1140 
Q 1353 -1331 966 -1331 
L 506 -1331 
L 506 -850 
L 844 -850 
Q 1081 -850 1212 -737 
Q 1344 -625 1503 -206 
L 1606 56 
L 191 3500 
L 800 3500 
L 1894 763 
L 2988 3500 
L 3597 3500 
L 2059 -325 
z
" transform="scale(0.015625)"/>
      <path id="DejaVuSans-2d" d="M 313 2009 
L 1997 2009 
L 1997 1497 
L 313 1497 
L 313 2009 
z
" transform="scale(0.015625)"/>
      <path id="DejaVuSans-61" d="M 2194 1759 
Q 1497 1759 1228 1600 
Q 959 1441 959 1056 
Q 959 750 1161 570 
Q 1363 391 1709 391 
Q 2188 391 2477 730 
Q 2766 1069 2766 1631 
L 2766 1759 
L 2194 1759 
z
M 3341 1997 
L 3341 0 
L 2766 0 
L 2766 531 
Q 2569 213 2275 61 
Q 1981 -91 1556 -91 
Q 1019 -91 701 211 
Q 384 513 384 1019 
Q 384 1609 779 1909 
Q 1175 2209 1959 2209 
L 2766 2209 
L 2766 2266 
Q 2766 2663 2505 2880 
Q 2244 3097 1772 3097 
Q 1472 3097 1187 3025 
Q 903 2953 641 2809 
L 641 3341 
Q 956 3463 1253 3523 
Q 1550 3584 1831 3584 
Q 2591 3584 2966 3190 
Q 3341 2797 3341 1997 
z
" transform="scale(0.015625)"/>
      <path id="DejaVuSans-78" d="M 3513 3500 
L 2247 1797 
L 3578 0 
L 2900 0 
L 1881 1375 
L 863 0 
L 184 0 
L 1544 1831 
L 300 3500 
L 978 3500 
L 1906 2253 
L 2834 3500 
L 3513 3500 
z
" transform="scale(0.015625)"/>
      <path id="DejaVuSans-29" d="M 513 4856 
L 1013 4856 
Q 1481 4119 1714 3412 
Q 1947 2706 1947 2009 
Q 1947 1309 1714 600 
Q 1481 -109 1013 -844 
L 513 -844 
Q 928 -128 1133 580 
Q 1338 1288 1338 2009 
Q 1338 2731 1133 3434 
Q 928 4138 513 4856 
z
" transform="scale(0.015625)"/>
      <path id="DejaVuSans-62" d="M 3116 1747 
Q 3116 2381 2855 2742 
Q 2594 3103 2138 3103 
Q 1681 3103 1420 2742 
Q 1159 2381 1159 1747 
Q 1159 1113 1420 752 
Q 1681 391 2138 391 
Q 2594 391 2855 752 
Q 3116 1113 3116 1747 
z
M 1159 2969 
Q 1341 3281 1617 3432 
Q 1894 3584 2278 3584 
Q 2916 3584 3314 3078 
Q 3713 2572 3713 1747 
Q 3713 922 3314 415 
Q 2916 -91 2278 -91 
Q 1894 -91 1617 61 
Q 1341 213 1159 525 
L 1159 0 
L 581 0 
L 581 4863 
L 1159 4863 
L 1159 2969 
z
" transform="scale(0.015625)"/>
      <path id="DejaVuSans-74" d="M 1172 4494 
L 1172 3500 
L 2356 3500 
L 2356 3053 
L 1172 3053 
L 1172 1153 
Q 1172 725 1289 603 
Q 1406 481 1766 481 
L 2356 481 
L 2356 0 
L 1766 0 
Q 1100 0 847 248 
Q 594 497 594 1153 
L 594 3053 
L 172 3053 
L 172 3500 
L 594 3500 
L 594 4494 
L 1172 4494 
z
" transform="scale(0.015625)"/>
      <path id="DejaVuSans-77" d="M 269 3500 
L 844 3500 
L 1563 769 
L 2278 3500 
L 2956 3500 
L 3675 769 
L 4391 3500 
L 4966 3500 
L 4050 0 
L 3372 0 
L 2619 2869 
L 1863 0 
L 1184 0 
L 269 3500 
z
" transform="scale(0.015625)"/>
      <path id="DejaVuSans-6e" d="M 3513 2113 
L 3513 0 
L 2938 0 
L 2938 2094 
Q 2938 2591 2744 2837 
Q 2550 3084 2163 3084 
Q 1697 3084 1428 2787 
Q 1159 2491 1159 1978 
L 1159 0 
L 581 0 
L 581 3500 
L 1159 3500 
L 1159 2956 
Q 1366 3272 1645 3428 
Q 1925 3584 2291 3584 
Q 2894 3584 3203 3211 
Q 3513 2838 3513 2113 
z
" transform="scale(0.015625)"/>
      <path id="DejaVuSans-53" d="M 3425 4513 
L 3425 3897 
Q 3066 4069 2747 4153 
Q 2428 4238 2131 4238 
Q 1616 4238 1336 4038 
Q 1056 3838 1056 3469 
Q 1056 3159 1242 3001 
Q 1428 2844 1947 2747 
L 2328 2669 
Q 3034 2534 3370 2195 
Q 3706 1856 3706 1288 
Q 3706 609 3251 259 
Q 2797 -91 1919 -91 
Q 1588 -91 1214 -16 
Q 841 59 441 206 
L 441 856 
Q 825 641 1194 531 
Q 1563 422 1919 422 
Q 2459 422 2753 634 
Q 3047 847 3047 1241 
Q 3047 1584 2836 1778 
Q 2625 1972 2144 2069 
L 1759 2144 
Q 1053 2284 737 2584 
Q 422 2884 422 3419 
Q 422 4038 858 4394 
Q 1294 4750 2059 4750 
Q 2388 4750 2728 4690 
Q 3069 4631 3425 4513 
z
" transform="scale(0.015625)"/>
      <path id="DejaVuSans-64" d="M 2906 2969 
L 2906 4863 
L 3481 4863 
L 3481 0 
L 2906 0 
L 2906 525 
Q 2725 213 2448 61 
Q 2172 -91 1784 -91 
Q 1150 -91 751 415 
Q 353 922 353 1747 
Q 353 2572 751 3078 
Q 1150 3584 1784 3584 
Q 2172 3584 2448 3432 
Q 2725 3281 2906 2969 
z
M 947 1747 
Q 947 1113 1208 752 
Q 1469 391 1925 391 
Q 2381 391 2643 752 
Q 2906 1113 2906 1747 
Q 2906 2381 2643 2742 
Q 2381 3103 1925 3103 
Q 1469 3103 1208 2742 
Q 947 2381 947 1747 
z
" transform="scale(0.015625)"/>
      <path id="DejaVuSans-6f" d="M 1959 3097 
Q 1497 3097 1228 2736 
Q 959 2375 959 1747 
Q 959 1119 1226 758 
Q 1494 397 1959 397 
Q 2419 397 2687 759 
Q 2956 1122 2956 1747 
Q 2956 2369 2687 2733 
Q 2419 3097 1959 3097 
z
M 1959 3584 
Q 2709 3584 3137 3096 
Q 3566 2609 3566 1747 
Q 3566 888 3137 398 
Q 2709 -91 1959 -91 
Q 1206 -91 779 398 
Q 353 888 353 1747 
Q 353 2609 779 3096 
Q 1206 3584 1959 3584 
z
" transform="scale(0.015625)"/>
      <path id="DejaVuSans-72" d="M 2631 2963 
Q 2534 3019 2420 3045 
Q 2306 3072 2169 3072 
Q 1681 3072 1420 2755 
Q 1159 2438 1159 1844 
L 1159 0 
L 581 0 
L 581 3500 
L 1159 3500 
L 1159 2956 
Q 1341 3275 1631 3429 
Q 1922 3584 2338 3584 
Q 2397 3584 2469 3576 
Q 2541 3569 2628 3553 
L 2631 2963 
z
" transform="scale(0.015625)"/>
      <path id="DejaVuSans-68" d="M 3513 2113 
L 3513 0 
L 2938 0 
L 2938 2094 
Q 2938 2591 2744 2837 
Q 2550 3084 2163 3084 
Q 1697 3084 1428 2787 
Q 1159 2491 1159 1978 
L 1159 0 
L 581 0 
L 581 4863 
L 1159 4863 
L 1159 2956 
Q 1366 3272 1645 3428 
Q 1925 3584 2291 3584 
Q 2894 3584 3203 3211 
Q 3513 2838 3513 2113 
z
" transform="scale(0.015625)"/>
      <path id="DejaVuSans-66" d="M 2375 4863 
L 2375 4384 
L 1825 4384 
Q 1516 4384 1395 4259 
Q 1275 4134 1275 3809 
L 1275 3500 
L 2222 3500 
L 2222 3053 
L 1275 3053 
L 1275 0 
L 697 0 
L 697 3053 
L 147 3053 
L 147 3500 
L 697 3500 
L 697 3744 
Q 697 4328 969 4595 
Q 1241 4863 1831 4863 
L 2375 4863 
z
" transform="scale(0.015625)"/>
      <path id="DejaVuSans-6c" d="M 603 4863 
L 1178 4863 
L 1178 0 
L 603 0 
L 603 4863 
z
" transform="scale(0.015625)"/>
      <path id="DejaVuSans-6d" d="M 3328 2828 
Q 3544 3216 3844 3400 
Q 4144 3584 4550 3584 
Q 5097 3584 5394 3201 
Q 5691 2819 5691 2113 
L 5691 0 
L 5113 0 
L 5113 2094 
Q 5113 2597 4934 2840 
Q 4756 3084 4391 3084 
Q 3944 3084 3684 2787 
Q 3425 2491 3425 1978 
L 3425 0 
L 2847 0 
L 2847 2094 
Q 2847 2600 2669 2842 
Q 2491 3084 2119 3084 
Q 1678 3084 1418 2786 
Q 1159 2488 1159 1978 
L 1159 0 
L 581 0 
L 581 3500 
L 1159 3500 
L 1159 2956 
Q 1356 3278 1631 3431 
Q 1906 3584 2284 3584 
Q 2666 3584 2933 3390 
Q 3200 3197 3328 2828 
z
" transform="scale(0.015625)"/>
     </defs>
     <use xlink:href="#DejaVuSans-51"/>
     <use xlink:href="#DejaVuSans-75" x="78.710938"/>
     <use xlink:href="#DejaVuSans-65" x="142.089844"/>
     <use xlink:href="#DejaVuSans-75" x="203.613281"/>
     <use xlink:href="#DejaVuSans-65" x="266.992188"/>
     <use xlink:href="#DejaVuSans-20" x="328.515625"/>
     <use xlink:href="#DejaVuSans-73" x="360.302734"/>
     <use xlink:href="#DejaVuSans-69" x="412.402344"/>
     <use xlink:href="#DejaVuSans-7a" x="440.185547"/>
     <use xlink:href="#DejaVuSans-65" x="492.675781"/>
     <use xlink:href="#DejaVuSans-20" x="554.199219"/>
     <use xlink:href="#DejaVuSans-28" x="585.986328"/>
     <use xlink:href="#DejaVuSans-79" x="625"/>
     <use xlink:href="#DejaVuSans-2d" x="682.429688"/>
     <use xlink:href="#DejaVuSans-61" x="718.513672"/>
     <use xlink:href="#DejaVuSans-78" x="779.792969"/>
     <use xlink:href="#DejaVuSans-69" x="838.972656"/>
     <use xlink:href="#DejaVuSans-73" x="866.755859"/>
     <use xlink:href="#DejaVuSans-29" x="918.855469"/>
     <use xlink:href="#DejaVuSans-20" x="957.869141"/>
     <use xlink:href="#DejaVuSans-62" x="989.65625"/>
     <use xlink:href="#DejaVuSans-65" x="1053.132812"/>
     <use xlink:href="#DejaVuSans-74" x="1114.65625"/>
     <use xlink:href="#DejaVuSans-77" x="1153.865234"/>
     <use xlink:href="#DejaVuSans-65" x="1235.652344"/>
     <use xlink:href="#DejaVuSans-65" x="1297.175781"/>
     <use xlink:href="#DejaVuSans-6e" x="1358.699219"/>
     <use xlink:href="#DejaVuSans-20" x="1422.078125"/>
     <use xlink:href="#DejaVuSans-53" x="1453.865234"/>
     <use xlink:href="#DejaVuSans-35" x="1517.341797"/>
     <use xlink:href="#DejaVuSans-20" x="1580.964844"/>
     <use xlink:href="#DejaVuSans-61" x="1612.751953"/>
     <use xlink:href="#DejaVuSans-6e" x="1674.03125"/>
     <use xlink:href="#DejaVuSans-64" x="1737.410156"/>
     <use xlink:href="#DejaVuSans-20" x="1800.886719"/>
     <use xlink:href="#DejaVuSans-73" x="1832.673828"/>
     <use xlink:href="#DejaVuSans-65" x="1884.773438"/>
     <use xlink:href="#DejaVuSans-6e" x="1946.296875"/>
     <use xlink:href="#DejaVuSans-73" x="2009.675781"/>
     <use xlink:href="#DejaVuSans-6f" x="2061.775391"/>
     <use xlink:href="#DejaVuSans-72" x="2122.957031"/>
     <use xlink:href="#DejaVuSans-73" x="2164.070312"/>
     <use xlink:href="#DejaVuSans-20" x="2216.169922"/>
     <use xlink:href="#DejaVuSans-74" x="2247.957031"/>
     <use xlink:href="#DejaVuSans-68" x="2287.166016"/>
     <use xlink:href="#DejaVuSans-61" x="2350.544922"/>
     <use xlink:href="#DejaVuSans-74" x="2411.824219"/>
     <use xlink:href="#DejaVuSans-20" x="2451.033203"/>
     <use xlink:href="#DejaVuSans-66" x="2482.820312"/>
     <use xlink:href="#DejaVuSans-6f" x="2518.025391"/>
     <use xlink:href="#DejaVuSans-6c" x="2579.207031"/>
     <use xlink:href="#DejaVuSans-6c" x="2606.990234"/>
     <use xlink:href="#DejaVuSans-6f" x="2634.773438"/>
     <use xlink:href="#DejaVuSans-77" x="2695.955078"/>
     <use xlink:href="#DejaVuSans-20" x="2777.742188"/>
     <use xlink:href="#DejaVuSans-61" x="2809.529297"/>
     <use xlink:href="#DejaVuSans-74" x="2870.808594"/>
     <use xlink:href="#DejaVuSans-20" x="2910.017578"/>
     <use xlink:href="#DejaVuSans-61" x="2941.804688"/>
     <use xlink:href="#DejaVuSans-20" x="3003.083984"/>
     <use xlink:href="#DejaVuSans-74" x="3034.871094"/>
     <use xlink:href="#DejaVuSans-69" x="3074.080078"/>
     <use xlink:href="#DejaVuSans-6d" x="3101.863281"/>
     <use xlink:href="#DejaVuSans-65" x="3199.275391"/>
     <use xlink:href="#DejaVuSans-20" x="3260.798828"/>
     <use xlink:href="#DejaVuSans-28" x="3292.585938"/>
     <use xlink:href="#DejaVuSans-78" x="3331.599609"/>
     <use xlink:href="#DejaVuSans-2d" x="3390.779297"/>
     <use xlink:href="#DejaVuSans-61" x="3426.863281"/>
     <use xlink:href="#DejaVuSans-78" x="3488.142578"/>
     <use xlink:href="#DejaVuSans-69" x="3547.322266"/>
     <use xlink:href="#DejaVuSans-73" x="3575.105469"/>
     <use xlink:href="#DejaVuSans-29" x="3627.205078"/>
     <use xlink:href="#DejaVuSans-2e" x="3666.21875"/>
    </g>
   </g>
  </g>
 </g>
 <defs>
  <clipPath id="p70567a16f7">
   <rect x="57.6" y="41.472" width="357.12" height="266.112"/>
  </clipPath>
 </defs>
</svg>
