<?xml version="1.0" encoding="utf-8" standalone="no"?>
<!DOCTYPE svg PUBLIC "-//W3C//DTD SVG 1.1//EN"
  "http://www.w3.org/Graphics/SVG/1.1/DTD/svg11.dtd">
<svg xmlns:xlink="http://www.w3.org/1999/xlink" width="460.8pt" height="345.6pt" viewBox="0 0 460.8 345.6" xmlns="http://www.w3.org/2000/svg" version="1.1">
 <metadata>
  <rdf:RDF xmlns:dc="http://purl.org/dc/elements/1.1/" xmlns:cc="http://creativecommons.org/ns#" xmlns:rdf="http://www.w3.org/1999/02/22-rdf-syntax-ns#">
   <cc:Work>
    <dc:type rdf:resource="http://purl.org/dc/dcmitype/StillImage"/>
    <dc:date>2024-03-08T13:04:48.536371</dc:date>
    <dc:format>image/svg+xml</dc:format>
    <dc:creator>
     <cc:Agent>
      <dc:title>Matplotlib v3.8.2, https://matplotlib.org/</dc:title>
     </cc:Agent>
    </dc:creator>
   </cc:Work>
  </rdf:RDF>
 </metadata>
 <defs>
  <style type="text/css">*{stroke-linejoin: round; stroke-linecap: butt}</style>
 </defs>
 <g id="figure_1">
  <g id="patch_1">
   <path d="M 0 345.6 
L 460.8 345.6 
L 460.8 0 
L 0 0 
z
" style="fill: #ffffff"/>
  </g>
  <g id="axes_1">
   <g id="patch_2">
    <path d="M 57.6 307.584 
L 414.72 307.584 
L 414.72 41.472 
L 57.6 41.472 
z
" style="fill: #ffffff"/>
   </g>
   <g id="matplotlib.axis_1">
    <g id="xtick_1">
     <g id="line2d_1">
      <defs>
       <path id="m9f4d384b60" d="M 0 0 
L 0 3.5 
" style="stroke: #000000; stroke-width: 0.8"/>
      </defs>
      <g>
       <use xlink:href="#m9f4d384b60" x="70.584659" y="307.584" style="stroke: #000000; stroke-width: 0.8"/>
      </g>
     </g>
     <g id="text_1">
      <!-- 0.0 -->
      <g transform="translate(62.633097 322.182437) scale(0.1 -0.1)">
       <defs>
        <path id="DejaVuSans-30" d="M 2034 4250 
Q 1547 4250 1301 3770 
Q 1056 3291 1056 2328 
Q 1056 1369 1301 889 
Q 1547 409 2034 409 
Q 2525 409 2770 889 
Q 3016 1369 3016 2328 
Q 3016 3291 2770 3770 
Q 2525 4250 2034 4250 
z
M 2034 4750 
Q 2819 4750 3233 4129 
Q 3647 3509 3647 2328 
Q 3647 1150 3233 529 
Q 2819 -91 2034 -91 
Q 1250 -91 836 529 
Q 422 1150 422 2328 
Q 422 3509 836 4129 
Q 1250 4750 2034 4750 
z
" transform="scale(0.015625)"/>
        <path id="DejaVuSans-2e" d="M 684 794 
L 1344 794 
L 1344 0 
L 684 0 
L 684 794 
z
" transform="scale(0.015625)"/>
       </defs>
       <use xlink:href="#DejaVuSans-30"/>
       <use xlink:href="#DejaVuSans-2e" x="63.623047"/>
       <use xlink:href="#DejaVuSans-30" x="95.410156"/>
      </g>
     </g>
    </g>
    <g id="xtick_2">
     <g id="line2d_2">
      <g>
       <use xlink:href="#m9f4d384b60" x="118.168429" y="307.584" style="stroke: #000000; stroke-width: 0.8"/>
      </g>
     </g>
     <g id="text_2">
      <!-- 0.5 -->
      <g transform="translate(110.216867 322.182437) scale(0.1 -0.1)">
       <defs>
        <path id="DejaVuSans-35" d="M 691 4666 
L 3169 4666 
L 3169 4134 
L 1269 4134 
L 1269 2991 
Q 1406 3038 1543 3061 
Q 1681 3084 1819 3084 
Q 2600 3084 3056 2656 
Q 3513 2228 3513 1497 
Q 3513 744 3044 326 
Q 2575 -91 1722 -91 
Q 1428 -91 1123 -41 
Q 819 9 494 109 
L 494 744 
Q 775 591 1075 516 
Q 1375 441 1709 441 
Q 2250 441 2565 725 
Q 2881 1009 2881 1497 
Q 2881 1984 2565 2268 
Q 2250 2553 1709 2553 
Q 1456 2553 1204 2497 
Q 953 2441 691 2322 
L 691 4666 
z
" transform="scale(0.015625)"/>
       </defs>
       <use xlink:href="#DejaVuSans-30"/>
       <use xlink:href="#DejaVuSans-2e" x="63.623047"/>
       <use xlink:href="#DejaVuSans-35" x="95.410156"/>
      </g>
     </g>
    </g>
    <g id="xtick_3">
     <g id="line2d_3">
      <g>
       <use xlink:href="#m9f4d384b60" x="165.752199" y="307.584" style="stroke: #000000; stroke-width: 0.8"/>
      </g>
     </g>
     <g id="text_3">
      <!-- 1.0 -->
      <g transform="translate(157.800636 322.182437) scale(0.1 -0.1)">
       <defs>
        <path id="DejaVuSans-31" d="M 794 531 
L 1825 531 
L 1825 4091 
L 703 3866 
L 703 4441 
L 1819 4666 
L 2450 4666 
L 2450 531 
L 3481 531 
L 3481 0 
L 794 0 
L 794 531 
z
" transform="scale(0.015625)"/>
       </defs>
       <use xlink:href="#DejaVuSans-31"/>
       <use xlink:href="#DejaVuSans-2e" x="63.623047"/>
       <use xlink:href="#DejaVuSans-30" x="95.410156"/>
      </g>
     </g>
    </g>
    <g id="xtick_4">
     <g id="line2d_4">
      <g>
       <use xlink:href="#m9f4d384b60" x="213.335969" y="307.584" style="stroke: #000000; stroke-width: 0.8"/>
      </g>
     </g>
     <g id="text_4">
      <!-- 1.5 -->
      <g transform="translate(205.384406 322.182437) scale(0.1 -0.1)">
       <use xlink:href="#DejaVuSans-31"/>
       <use xlink:href="#DejaVuSans-2e" x="63.623047"/>
       <use xlink:href="#DejaVuSans-35" x="95.410156"/>
      </g>
     </g>
    </g>
    <g id="xtick_5">
     <g id="line2d_5">
      <g>
       <use xlink:href="#m9f4d384b60" x="260.919739" y="307.584" style="stroke: #000000; stroke-width: 0.8"/>
      </g>
     </g>
     <g id="text_5">
      <!-- 2.0 -->
      <g transform="translate(252.968176 322.182437) scale(0.1 -0.1)">
       <defs>
        <path id="DejaVuSans-32" d="M 1228 531 
L 3431 531 
L 3431 0 
L 469 0 
L 469 531 
Q 828 903 1448 1529 
Q 2069 2156 2228 2338 
Q 2531 2678 2651 2914 
Q 2772 3150 2772 3378 
Q 2772 3750 2511 3984 
Q 2250 4219 1831 4219 
Q 1534 4219 1204 4116 
Q 875 4013 500 3803 
L 500 4441 
Q 881 4594 1212 4672 
Q 1544 4750 1819 4750 
Q 2544 4750 2975 4387 
Q 3406 4025 3406 3419 
Q 3406 3131 3298 2873 
Q 3191 2616 2906 2266 
Q 2828 2175 2409 1742 
Q 1991 1309 1228 531 
z
" transform="scale(0.015625)"/>
       </defs>
       <use xlink:href="#DejaVuSans-32"/>
       <use xlink:href="#DejaVuSans-2e" x="63.623047"/>
       <use xlink:href="#DejaVuSans-30" x="95.410156"/>
      </g>
     </g>
    </g>
    <g id="xtick_6">
     <g id="line2d_6">
      <g>
       <use xlink:href="#m9f4d384b60" x="308.503509" y="307.584" style="stroke: #000000; stroke-width: 0.8"/>
      </g>
     </g>
     <g id="text_6">
      <!-- 2.5 -->
      <g transform="translate(300.551946 322.182437) scale(0.1 -0.1)">
       <use xlink:href="#DejaVuSans-32"/>
       <use xlink:href="#DejaVuSans-2e" x="63.623047"/>
       <use xlink:href="#DejaVuSans-35" x="95.410156"/>
      </g>
     </g>
    </g>
    <g id="xtick_7">
     <g id="line2d_7">
      <g>
       <use xlink:href="#m9f4d384b60" x="356.087279" y="307.584" style="stroke: #000000; stroke-width: 0.8"/>
      </g>
     </g>
     <g id="text_7">
      <!-- 3.0 -->
      <g transform="translate(348.135716 322.182437) scale(0.1 -0.1)">
       <defs>
        <path id="DejaVuSans-33" d="M 2597 2516 
Q 3050 2419 3304 2112 
Q 3559 1806 3559 1356 
Q 3559 666 3084 287 
Q 2609 -91 1734 -91 
Q 1441 -91 1130 -33 
Q 819 25 488 141 
L 488 750 
Q 750 597 1062 519 
Q 1375 441 1716 441 
Q 2309 441 2620 675 
Q 2931 909 2931 1356 
Q 2931 1769 2642 2001 
Q 2353 2234 1838 2234 
L 1294 2234 
L 1294 2753 
L 1863 2753 
Q 2328 2753 2575 2939 
Q 2822 3125 2822 3475 
Q 2822 3834 2567 4026 
Q 2313 4219 1838 4219 
Q 1578 4219 1281 4162 
Q 984 4106 628 3988 
L 628 4550 
Q 988 4650 1302 4700 
Q 1616 4750 1894 4750 
Q 2613 4750 3031 4423 
Q 3450 4097 3450 3541 
Q 3450 3153 3228 2886 
Q 3006 2619 2597 2516 
z
" transform="scale(0.015625)"/>
       </defs>
       <use xlink:href="#DejaVuSans-33"/>
       <use xlink:href="#DejaVuSans-2e" x="63.623047"/>
       <use xlink:href="#DejaVuSans-30" x="95.410156"/>
      </g>
     </g>
    </g>
    <g id="xtick_8">
     <g id="line2d_8">
      <g>
       <use xlink:href="#m9f4d384b60" x="403.671049" y="307.584" style="stroke: #000000; stroke-width: 0.8"/>
      </g>
     </g>
     <g id="text_8">
      <!-- 3.5 -->
      <g transform="translate(395.719486 322.182437) scale(0.1 -0.1)">
       <use xlink:href="#DejaVuSans-33"/>
       <use xlink:href="#DejaVuSans-2e" x="63.623047"/>
       <use xlink:href="#DejaVuSans-35" x="95.410156"/>
      </g>
     </g>
    </g>
    <g id="text_9">
     <!-- 1e6 -->
     <g transform="translate(395.841875 334.860562) scale(0.1 -0.1)">
      <defs>
       <path id="DejaVuSans-65" d="M 3597 1894 
L 3597 1613 
L 953 1613 
Q 991 1019 1311 708 
Q 1631 397 2203 397 
Q 2534 397 2845 478 
Q 3156 559 3463 722 
L 3463 178 
Q 3153 47 2828 -22 
Q 2503 -91 2169 -91 
Q 1331 -91 842 396 
Q 353 884 353 1716 
Q 353 2575 817 3079 
Q 1281 3584 2069 3584 
Q 2775 3584 3186 3129 
Q 3597 2675 3597 1894 
z
M 3022 2063 
Q 3016 2534 2758 2815 
Q 2500 3097 2075 3097 
Q 1594 3097 1305 2825 
Q 1016 2553 972 2059 
L 3022 2063 
z
" transform="scale(0.015625)"/>
       <path id="DejaVuSans-36" d="M 2113 2584 
Q 1688 2584 1439 2293 
Q 1191 2003 1191 1497 
Q 1191 994 1439 701 
Q 1688 409 2113 409 
Q 2538 409 2786 701 
Q 3034 994 3034 1497 
Q 3034 2003 2786 2293 
Q 2538 2584 2113 2584 
z
M 3366 4563 
L 3366 3988 
Q 3128 4100 2886 4159 
Q 2644 4219 2406 4219 
Q 1781 4219 1451 3797 
Q 1122 3375 1075 2522 
Q 1259 2794 1537 2939 
Q 1816 3084 2150 3084 
Q 2853 3084 3261 2657 
Q 3669 2231 3669 1497 
Q 3669 778 3244 343 
Q 2819 -91 2113 -91 
Q 1303 -91 875 529 
Q 447 1150 447 2328 
Q 447 3434 972 4092 
Q 1497 4750 2381 4750 
Q 2619 4750 2861 4703 
Q 3103 4656 3366 4563 
z
" transform="scale(0.015625)"/>
      </defs>
      <use xlink:href="#DejaVuSans-31"/>
      <use xlink:href="#DejaVuSans-65" x="63.623047"/>
      <use xlink:href="#DejaVuSans-36" x="125.146484"/>
     </g>
    </g>
   </g>
   <g id="matplotlib.axis_2">
    <g id="ytick_1">
     <g id="line2d_9">
      <defs>
       <path id="mab3d777251" d="M 0 0 
L -3.5 0 
" style="stroke: #000000; stroke-width: 0.8"/>
      </defs>
      <g>
       <use xlink:href="#mab3d777251" x="57.6" y="295.488" style="stroke: #000000; stroke-width: 0.8"/>
      </g>
     </g>
     <g id="text_10">
      <!-- 0 -->
      <g transform="translate(44.2375 299.287219) scale(0.1 -0.1)">
       <use xlink:href="#DejaVuSans-30"/>
      </g>
     </g>
    </g>
    <g id="ytick_2">
     <g id="line2d_10">
      <g>
       <use xlink:href="#mab3d777251" x="57.6" y="256.468645" style="stroke: #000000; stroke-width: 0.8"/>
      </g>
     </g>
     <g id="text_11">
      <!-- 5 -->
      <g transform="translate(44.2375 260.267864) scale(0.1 -0.1)">
       <use xlink:href="#DejaVuSans-35"/>
      </g>
     </g>
    </g>
    <g id="ytick_3">
     <g id="line2d_11">
      <g>
       <use xlink:href="#mab3d777251" x="57.6" y="217.44929" style="stroke: #000000; stroke-width: 0.8"/>
      </g>
     </g>
     <g id="text_12">
      <!-- 10 -->
      <g transform="translate(37.875 221.248509) scale(0.1 -0.1)">
       <use xlink:href="#DejaVuSans-31"/>
       <use xlink:href="#DejaVuSans-30" x="63.623047"/>
      </g>
     </g>
    </g>
    <g id="ytick_4">
     <g id="line2d_12">
      <g>
       <use xlink:href="#mab3d777251" x="57.6" y="178.429935" style="stroke: #000000; stroke-width: 0.8"/>
      </g>
     </g>
     <g id="text_13">
      <!-- 15 -->
      <g transform="translate(37.875 182.229154) scale(0.1 -0.1)">
       <use xlink:href="#DejaVuSans-31"/>
       <use xlink:href="#DejaVuSans-35" x="63.623047"/>
      </g>
     </g>
    </g>
    <g id="ytick_5">
     <g id="line2d_13">
      <g>
       <use xlink:href="#mab3d777251" x="57.6" y="139.410581" style="stroke: #000000; stroke-width: 0.8"/>
      </g>
     </g>
     <g id="text_14">
      <!-- 20 -->
      <g transform="translate(37.875 143.209799) scale(0.1 -0.1)">
       <use xlink:href="#DejaVuSans-32"/>
       <use xlink:href="#DejaVuSans-30" x="63.623047"/>
      </g>
     </g>
    </g>
    <g id="ytick_6">
     <g id="line2d_14">
      <g>
       <use xlink:href="#mab3d777251" x="57.6" y="100.391226" style="stroke: #000000; stroke-width: 0.8"/>
      </g>
     </g>
     <g id="text_15">
      <!-- 25 -->
      <g transform="translate(37.875 104.190445) scale(0.1 -0.1)">
       <use xlink:href="#DejaVuSans-32"/>
       <use xlink:href="#DejaVuSans-35" x="63.623047"/>
      </g>
     </g>
    </g>
    <g id="ytick_7">
     <g id="line2d_15">
      <g>
       <use xlink:href="#mab3d777251" x="57.6" y="61.371871" style="stroke: #000000; stroke-width: 0.8"/>
      </g>
     </g>
     <g id="text_16">
      <!-- 30 -->
      <g transform="translate(37.875 65.17109) scale(0.1 -0.1)">
       <use xlink:href="#DejaVuSans-33"/>
       <use xlink:href="#DejaVuSans-30" x="63.623047"/>
      </g>
     </g>
    </g>
   </g>
   <g id="line2d_16">
    <path d="M 73.832727 272.076387 
L 74.205784 295.488 
L 74.530305 279.880258 
L 74.903362 295.488 
L 75.141281 279.880258 
L 75.514338 295.488 
L 75.838859 279.880258 
L 76.211916 295.488 
L 76.499322 279.880258 
L 76.872378 295.488 
L 77.195948 279.880258 
L 77.569005 295.488 
L 77.846894 279.880258 
L 78.218999 295.488 
L 78.513067 287.684129 
L 78.885172 295.488 
L 84.650422 248.664774 
L 85.023478 295.488 
L 85.067255 279.880258 
L 85.423182 264.272516 
L 85.43936 279.880258 
L 85.795287 295.488 
L 85.806707 279.880258 
L 86.179764 279.880258 
L 86.552821 295.488 
L 86.559482 287.684129 
L 86.932539 295.488 
L 86.947766 279.880258 
L 87.320823 295.488 
L 87.33605 287.684129 
L 87.709106 295.488 
L 87.730995 287.684129 
L 88.1031 295.488 
L 88.183041 279.880258 
L 88.556097 295.488 
L 88.819711 279.880258 
L 89.192768 295.488 
L 89.513483 279.880258 
L 89.88654 295.488 
L 90.133023 279.880258 
L 90.50608 295.488 
L 90.798245 279.880258 
L 91.171301 295.488 
L 91.538648 279.880258 
L 91.911705 295.488 
L 92.161995 279.880258 
L 92.535052 295.488 
L 92.86909 279.880258 
L 93.242147 295.488 
L 93.53336 279.880258 
L 93.906416 295.488 
L 94.144335 279.880258 
L 94.517392 295.488 
L 94.85714 279.880258 
L 95.230197 295.488 
L 95.483343 279.880258 
L 96.15237 264.272516 
L 96.492119 279.880258 
L 96.815688 264.272516 
L 98.189907 233.057032 
L 99.178698 217.44929 
L 99.800142 201.841548 
L 100.188426 217.44929 
L 100.245526 248.664774 
L 100.495817 233.057032 
L 100.66807 248.664774 
L 100.835565 279.880258 
L 101.158183 264.272516 
L 101.162941 279.880258 
L 101.53124 295.488 
L 101.851954 279.880258 
L 102.225011 295.488 
L 102.523837 279.880258 
L 102.896894 295.488 
L 103.17859 279.880258 
L 103.551647 295.488 
L 103.817164 279.880258 
L 104.190221 295.488 
L 104.527114 279.880258 
L 104.899219 295.488 
L 105.176157 279.880258 
L 105.549213 295.488 
L 105.837571 279.880258 
L 106.210628 295.488 
L 106.525632 279.880258 
L 106.898689 295.488 
L 107.197515 279.880258 
L 107.570572 295.488 
L 107.827524 279.880258 
L 108.200581 295.488 
L 108.483229 279.880258 
L 108.856285 295.488 
L 109.122754 279.880258 
L 109.495811 295.488 
L 109.855544 279.880258 
L 110.22765 295.488 
L 110.475085 279.880258 
L 110.848142 295.488 
L 111.171712 279.880258 
L 111.544768 295.488 
L 111.799817 287.684129 
L 112.172874 295.488 
L 114.527319 248.664774 
L 114.900376 295.488 
L 115.456154 264.272516 
L 115.829211 295.488 
L 116.441138 264.272516 
L 116.814195 295.488 
L 128.818628 264.272516 
L 129.191685 295.488 
L 129.755077 217.44929 
L 130.128134 295.488 
L 130.326082 264.272516 
L 130.699139 295.488 
L 130.857117 264.272516 
L 131.230174 295.488 
L 131.407186 264.272516 
L 131.780242 295.488 
L 131.874458 264.272516 
L 132.247515 295.488 
L 132.367426 264.272516 
L 132.740483 295.488 
L 132.910833 264.272516 
L 133.283889 295.488 
L 133.402849 264.272516 
L 133.775906 295.488 
L 133.929125 264.272516 
L 134.302182 295.488 
L 134.475387 264.272516 
L 134.848444 295.488 
L 135.014035 264.272516 
L 135.387092 295.488 
L 135.521278 264.272516 
L 135.894335 295.488 
L 136.071347 264.272516 
L 136.662337 240.860903 
L 137.002085 272.076387 
L 137.792927 240.860903 
L 140.477604 155.018323 
L 140.631775 209.645419 
L 141.091434 233.057032 
L 141.119985 264.272516 
L 141.397874 233.057032 
L 141.770931 295.488 
L 142.297207 272.076387 
L 142.670264 295.488 
L 143.608616 256.468645 
L 143.981673 295.488 
L 144.542209 264.272516 
L 144.915266 295.488 
L 145.442494 264.272516 
L 145.815551 295.488 
L 146.416058 264.272516 
L 146.789115 295.488 
L 147.386767 264.272516 
L 147.759824 295.488 
L 148.283245 264.272516 
L 148.656302 295.488 
L 149.300586 264.272516 
L 149.673643 295.488 
L 150.198016 264.272516 
L 150.571073 295.488 
L 151.220116 264.272516 
L 151.593172 295.488 
L 152.139434 264.272516 
L 152.512491 295.488 
L 153.093965 264.272516 
L 153.467021 295.488 
L 154.027558 264.272516 
L 154.400615 295.488 
L 155.055368 264.272516 
L 155.428424 295.488 
L 155.988961 264.272516 
L 156.362018 295.488 
L 156.935878 264.272516 
L 157.308935 295.488 
L 157.878988 264.272516 
L 158.252045 295.488 
L 158.799259 264.272516 
L 159.172315 295.488 
L 159.749982 264.272516 
L 160.123039 295.488 
L 160.75971 264.272516 
L 161.132767 295.488 
L 161.665705 264.272516 
L 162.038762 295.488 
L 162.575507 264.272516 
L 162.948563 295.488 
L 163.547167 264.272516 
L 163.920224 295.488 
L 164.495036 264.272516 
L 164.868093 295.488 
L 165.500957 264.272516 
L 165.873062 295.488 
L 166.38887 264.272516 
L 166.761927 295.488 
L 167.640323 264.272516 
L 168.01338 295.488 
L 168.552028 264.272516 
L 168.925085 295.488 
L 169.465636 264.272516 
L 169.838693 295.488 
L 170.501059 264.272516 
L 170.874116 295.488 
L 171.417523 264.272516 
L 171.790579 295.488 
L 172.416782 264.272516 
L 172.789839 295.488 
L 173.292323 264.272516 
L 173.66538 295.488 
L 174.247805 264.272516 
L 174.620862 295.488 
L 175.238499 264.272516 
L 175.611556 295.488 
L 181.837417 217.44929 
L 182.210473 295.488 
L 182.387485 264.272516 
L 182.760542 295.488 
L 182.869984 264.272516 
L 183.243041 295.488 
L 183.360097 264.272516 
L 183.733154 295.488 
L 183.87305 264.272516 
L 184.245155 295.488 
L 186.504433 279.880258 
L 186.876538 295.488 
L 187.142055 287.684129 
L 187.515112 295.488 
L 193.388853 248.664774 
L 193.761909 295.488 
L 193.779991 279.880258 
L 194.115933 264.272516 
L 194.153048 279.880258 
L 194.481376 264.272516 
L 194.488989 279.880258 
L 194.838254 272.076387 
L 194.853481 287.684129 
L 195.208456 272.076387 
L 195.211311 279.880258 
L 195.580561 295.488 
L 195.592933 287.684129 
L 195.96599 295.488 
L 195.981216 287.684129 
L 196.354273 295.488 
L 196.457054 279.880258 
L 196.830111 295.488 
L 197.150825 279.880258 
L 197.52293 295.488 
L 197.801771 279.880258 
L 198.174828 295.488 
L 198.430829 287.684129 
L 198.803886 295.488 
L 204.603395 248.664774 
L 204.975501 295.488 
L 205.000244 279.880258 
L 205.324765 264.272516 
L 205.372349 279.880258 
L 205.661659 264.272516 
L 205.697822 279.880258 
L 206.02615 272.076387 
L 206.034715 287.684129 
L 206.399207 295.488 
L 206.41824 279.880258 
L 206.791297 295.488 
L 206.816041 287.684129 
L 207.169112 279.880258 
L 207.188146 287.684129 
L 207.542169 295.488 
L 207.762958 279.880258 
L 208.136015 295.488 
L 208.435792 279.880258 
L 208.808849 295.488 
L 209.115289 279.880258 
L 209.488345 295.488 
L 209.800495 279.880258 
L 210.173552 295.488 
L 210.459054 279.880258 
L 210.832111 295.488 
L 211.086208 279.880258 
L 211.459265 295.488 
L 211.780931 279.880258 
L 212.153988 295.488 
L 212.415699 279.880258 
L 212.788756 295.488 
L 213.105663 279.880258 
L 213.477769 295.488 
L 213.772788 279.880258 
L 214.144893 295.488 
L 214.485593 279.880258 
L 214.85865 295.488 
L 215.10894 279.880258 
L 215.481045 295.488 
L 215.775113 279.880258 
L 216.14817 295.488 
L 216.468884 279.880258 
L 216.841941 295.488 
L 217.117927 279.880258 
L 217.490984 295.488 
L 217.787906 279.880258 
L 218.160963 295.488 
L 218.487388 279.880258 
L 218.859493 295.488 
L 219.12501 279.880258 
L 219.498067 295.488 
L 219.774053 279.880258 
L 220.446887 264.272516 
L 220.786636 279.880258 
L 221.133045 264.272516 
L 223.093497 217.44929 
L 223.80535 201.841548 
L 224.024235 217.44929 
L 224.081336 248.664774 
L 224.439166 233.057032 
L 224.778914 279.880258 
L 225.068223 295.488 
L 225.107242 287.684129 
L 225.480299 295.488 
L 242.945446 272.076387 
L 243.318502 295.488 
L 243.55547 279.880258 
L 243.928526 295.488 
L 244.136943 240.860903 
L 244.51 295.488 
L 244.765049 248.664774 
L 245.138106 295.488 
L 245.309407 264.272516 
L 245.682464 295.488 
L 245.847104 264.272516 
L 246.220161 295.488 
L 246.363864 264.272516 
L 246.73692 295.488 
L 246.852073 264.272516 
L 247.22513 295.488 
L 247.398335 264.272516 
L 247.771392 295.488 
L 247.925563 264.272516 
L 248.29862 295.488 
L 248.452791 264.272516 
L 248.825848 295.488 
L 248.973358 264.272516 
L 249.346414 295.488 
L 249.512958 264.272516 
L 249.886014 295.488 
L 250.004022 264.272516 
L 250.523637 233.057032 
L 250.863385 264.272516 
L 250.912872 295.488 
L 251.068947 264.272516 
L 251.442004 295.488 
L 251.578093 264.272516 
L 251.95115 295.488 
L 252.099611 264.272516 
L 252.472668 295.488 
L 252.63826 264.272516 
L 253.011316 295.488 
L 253.209265 264.272516 
L 253.582322 295.488 
L 253.668924 279.880258 
L 254.041981 295.488 
L 254.157133 272.076387 
L 254.53019 295.488 
L 254.644391 279.880258 
L 255.157344 256.468645 
L 255.496141 272.076387 
L 255.909168 240.860903 
L 258.935496 115.998968 
L 259.712063 92.587355 
L 260.871203 53.568 
L 263.242778 76.979613 
L 263.299879 139.410581 
L 263.790944 170.626065 
L 263.799509 92.587355 
L 263.848044 155.018323 
L 264.289621 123.802839 
L 264.321027 186.233806 
L 264.62937 264.272516 
L 264.785444 233.057032 
L 264.794961 264.272516 
L 265.158501 295.488 
L 265.304107 264.272516 
L 265.677164 295.488 
L 265.804689 272.076387 
L 266.177745 295.488 
L 266.349047 272.076387 
L 266.722104 295.488 
L 266.88484 272.076387 
L 267.257897 295.488 
L 267.397793 279.880258 
L 267.77085 295.488 
L 267.943103 272.076387 
L 268.31616 295.488 
L 268.641633 264.272516 
L 269.01469 295.488 
L 269.400118 264.272516 
L 269.773175 295.488 
L 270.125295 264.272516 
L 270.498352 295.488 
L 270.907572 264.272516 
L 271.280629 295.488 
L 271.687946 264.272516 
L 272.061003 295.488 
L 272.416929 264.272516 
L 272.789034 295.488 
L 273.205868 264.272516 
L 273.578925 295.488 
L 273.93961 264.272516 
L 274.311715 295.488 
L 274.6724 264.272516 
L 275.045457 295.488 
L 275.477517 264.272516 
L 276.181757 240.860903 
L 276.521505 272.076387 
L 276.914547 240.860903 
L 277.731085 201.841548 
L 278.238328 225.253161 
L 278.266878 256.468645 
L 278.481005 225.253161 
L 278.854062 295.488 
L 279.251862 264.272516 
L 279.624919 295.488 
L 279.939923 272.076387 
L 280.31298 295.488 
L 280.755509 256.468645 
L 281.128566 295.488 
L 281.530173 264.272516 
L 281.90323 295.488 
L 282.275335 264.272516 
L 282.648392 295.488 
L 283.046192 264.272516 
L 283.419249 295.488 
L 283.78374 272.076387 
L 284.156797 295.488 
L 284.551742 264.272516 
L 284.924799 295.488 
L 285.308324 264.272516 
L 285.681381 295.488 
L 286.058244 264.272516 
L 286.431301 295.488 
L 286.859555 256.468645 
L 287.232612 295.488 
L 287.607572 264.272516 
L 287.980629 295.488 
L 288.412689 264.272516 
L 288.785746 295.488 
L 289.15119 264.272516 
L 289.524246 295.488 
L 289.883028 279.880258 
L 290.256085 295.488 
L 296.133632 201.841548 
L 296.506689 295.488 
L 296.622793 264.272516 
L 296.99585 295.488 
L 297.189992 264.272516 
L 297.563048 295.488 
L 297.71722 264.272516 
L 298.090277 295.488 
L 298.209236 264.272516 
L 298.582293 295.488 
L 298.728851 264.272516 
L 299.101908 295.488 
L 299.219915 264.272516 
L 299.592972 295.488 
L 299.75666 264.272516 
L 300.129717 295.488 
L 300.266758 264.272516 
L 300.639815 295.488 
L 300.806358 264.272516 
L 301.179415 295.488 
L 301.305988 272.076387 
L 301.679044 295.488 
L 301.846539 272.076387 
L 302.219596 295.488 
L 302.388043 272.076387 
L 302.761099 295.488 
L 302.894334 272.076387 
L 303.267391 295.488 
L 303.473904 272.076387 
L 303.846961 295.488 
L 304.013504 272.076387 
L 304.386561 295.488 
L 304.708227 272.076387 
L 305.081284 295.488 
L 305.543798 279.880258 
L 305.915903 295.488 
L 306.706746 272.076387 
L 307.079802 295.488 
L 324.047223 256.468645 
L 324.42028 295.488 
L 333.442163 279.880258 
L 333.812364 264.272516 
L 333.815219 279.880258 
L 334.184469 295.488 
L 334.187324 279.880258 
L 334.545154 264.272516 
L 334.560381 279.880258 
L 334.917259 295.488 
L 334.939148 279.880258 
L 335.28651 264.272516 
L 335.312205 279.880258 
L 335.654808 264.272516 
L 335.659566 279.880258 
L 335.998363 264.272516 
L 336.026913 279.880258 
L 336.371419 295.488 
L 336.379985 279.880258 
L 336.732104 264.272516 
L 336.753041 279.880258 
L 337.057577 264.272516 
L 337.105161 279.880258 
L 337.397326 264.272516 
L 337.430634 279.880258 
L 337.758011 264.272516 
L 337.770382 279.880258 
L 338.127261 264.272516 
L 338.131067 279.880258 
L 338.464154 264.272516 
L 338.499366 279.880258 
L 338.83721 295.488 
L 338.840065 279.880258 
L 339.193137 264.272516 
L 339.213122 279.880258 
L 339.566194 295.488 
L 339.600454 279.880258 
L 339.942106 264.272516 
L 339.973511 279.880258 
L 340.269482 264.272516 
L 340.315162 279.880258 
L 340.642539 279.880258 
L 340.977528 264.272516 
L 341.015595 279.880258 
L 341.332503 264.272516 
L 341.350585 279.880258 
L 341.695092 264.272516 
L 341.70556 279.880258 
L 342.06339 264.272516 
L 342.067197 279.880258 
L 342.410752 264.272516 
L 342.436447 279.880258 
L 342.783808 295.488 
L 342.80189 279.880258 
L 343.174947 295.488 
L 343.18827 279.880258 
L 343.552762 264.272516 
L 343.561327 279.880258 
L 343.925819 295.488 
L 343.953417 279.880258 
L 344.307441 264.272516 
L 344.326474 279.880258 
L 344.678594 264.272516 
L 344.680497 279.880258 
L 345.051651 295.488 
L 345.085911 279.880258 
L 345.458968 295.488 
L 345.46563 287.684129 
L 345.837735 295.488 
L 345.858672 279.880258 
L 346.231728 295.488 
L 346.23839 287.684129 
L 346.588607 279.880258 
L 346.611447 287.684129 
L 346.960712 295.488 
L 347.045411 279.880258 
L 347.418467 295.488 
L 347.723004 279.880258 
L 348.09606 295.488 
L 348.399645 279.880258 
L 348.772702 295.488 
L 349.048687 279.880258 
L 349.421744 295.488 
L 349.724377 279.880258 
L 350.097434 295.488 
L 350.368661 279.880258 
L 350.741718 295.488 
L 351.079563 287.684129 
L 351.45262 295.488 
L 354.129682 256.468645 
L 354.502739 295.488 
L 355.089923 264.272516 
L 355.46298 295.488 
L 356.010193 264.272516 
L 356.38325 295.488 
L 356.94569 264.272516 
L 357.318747 295.488 
L 357.91164 264.272516 
L 358.284697 295.488 
L 358.848089 272.076387 
L 359.221146 295.488 
L 359.986293 256.468645 
L 360.35935 295.488 
L 361.061686 264.272516 
L 361.434743 295.488 
L 361.967681 264.272516 
L 362.340738 295.488 
L 374.336606 264.272516 
L 374.709663 295.488 
L 375.268296 217.44929 
L 375.641353 295.488 
L 375.820268 264.272516 
L 376.193325 295.488 
L 376.327511 264.272516 
L 376.700568 295.488 
L 376.819527 264.272516 
L 377.192584 295.488 
L 377.341045 264.272516 
L 377.71315 295.488 
L 377.851143 264.272516 
L 378.2242 295.488 
L 378.403115 264.272516 
L 378.776172 295.488 
L 378.98554 264.272516 
L 379.358597 295.488 
L 379.495638 264.272516 
L 379.867744 295.488 
L 380.025722 264.272516 
L 380.398778 295.488 
L 380.602437 264.272516 
L 380.975494 295.488 
L 381.144892 264.272516 
L 381.516997 295.488 
L 381.693057 264.272516 
L 382.066114 295.488 
L 387.457355 201.841548 
L 387.830412 295.488 
L 388.004568 264.272516 
L 388.377625 295.488 
L 388.566057 264.272516 
L 388.939113 295.488 
L 389.11898 264.272516 
L 389.610996 233.057032 
L 389.895547 264.272516 
L 389.984053 295.488 
L 390.129659 272.076387 
L 390.502716 295.488 
L 390.614062 272.076387 
L 390.987119 295.488 
L 391.148904 279.880258 
L 391.52196 295.488 
L 391.650437 272.076387 
L 392.023493 295.488 
L 392.458409 272.076387 
L 392.831466 295.488 
L 393.48146 264.272516 
L 393.854517 295.488 
L 394.349388 264.272516 
L 394.721493 295.488 
L 395.362922 264.272516 
L 395.735979 295.488 
L 396.262256 264.272516 
L 396.635312 295.488 
L 397.260563 264.272516 
L 397.63362 295.488 
L 398.114216 272.076387 
L 398.487273 295.488 
L 398.487273 295.488 
" clip-path="url(#pe1a5a63596)" style="fill: none; stroke: #1f77b4; stroke-width: 1.5; stroke-linecap: square"/>
   </g>
   <g id="patch_3">
    <path d="M 57.6 307.584 
L 57.6 41.472 
" style="fill: none; stroke: #000000; stroke-width: 0.8; stroke-linejoin: miter; stroke-linecap: square"/>
   </g>
   <g id="patch_4">
    <path d="M 414.72 307.584 
L 414.72 41.472 
" style="fill: none; stroke: #000000; stroke-width: 0.8; stroke-linejoin: miter; stroke-linecap: square"/>
   </g>
   <g id="patch_5">
    <path d="M 57.6 307.584 
L 414.72 307.584 
" style="fill: none; stroke: #000000; stroke-width: 0.8; stroke-linejoin: miter; stroke-linecap: square"/>
   </g>
   <g id="patch_6">
    <path d="M 57.6 41.472 
L 414.72 41.472 
" style="fill: none; stroke: #000000; stroke-width: 0.8; stroke-linejoin: miter; stroke-linecap: square"/>
   </g>
   <g id="text_17">
    <!-- Queue size (y-axis) between S7 and sensors that follow at a time (x-axis). -->
    <g transform="translate(14.282813 35.472) scale(0.12 -0.12)">
     <defs>
      <path id="DejaVuSans-51" d="M 2522 4238 
Q 1834 4238 1429 3725 
Q 1025 3213 1025 2328 
Q 1025 1447 1429 934 
Q 1834 422 2522 422 
Q 3209 422 3611 934 
Q 4013 1447 4013 2328 
Q 4013 3213 3611 3725 
Q 3209 4238 2522 4238 
z
M 3406 84 
L 4238 -825 
L 3475 -825 
L 2784 -78 
Q 2681 -84 2626 -87 
Q 2572 -91 2522 -91 
Q 1538 -91 948 567 
Q 359 1225 359 2328 
Q 359 3434 948 4092 
Q 1538 4750 2522 4750 
Q 3503 4750 4090 4092 
Q 4678 3434 4678 2328 
Q 4678 1516 4351 937 
Q 4025 359 3406 84 
z
" transform="scale(0.015625)"/>
      <path id="DejaVuSans-75" d="M 544 1381 
L 544 3500 
L 1119 3500 
L 1119 1403 
Q 1119 906 1312 657 
Q 1506 409 1894 409 
Q 2359 409 2629 706 
Q 2900 1003 2900 1516 
L 2900 3500 
L 3475 3500 
L 3475 0 
L 2900 0 
L 2900 538 
Q 2691 219 2414 64 
Q 2138 -91 1772 -91 
Q 1169 -91 856 284 
Q 544 659 544 1381 
z
M 1991 3584 
L 1991 3584 
z
" transform="scale(0.015625)"/>
      <path id="DejaVuSans-20" transform="scale(0.015625)"/>
      <path id="DejaVuSans-73" d="M 2834 3397 
L 2834 2853 
Q 2591 2978 2328 3040 
Q 2066 3103 1784 3103 
Q 1356 3103 1142 2972 
Q 928 2841 928 2578 
Q 928 2378 1081 2264 
Q 1234 2150 1697 2047 
L 1894 2003 
Q 2506 1872 2764 1633 
Q 3022 1394 3022 966 
Q 3022 478 2636 193 
Q 2250 -91 1575 -91 
Q 1294 -91 989 -36 
Q 684 19 347 128 
L 347 722 
Q 666 556 975 473 
Q 1284 391 1588 391 
Q 1994 391 2212 530 
Q 2431 669 2431 922 
Q 2431 1156 2273 1281 
Q 2116 1406 1581 1522 
L 1381 1569 
Q 847 1681 609 1914 
Q 372 2147 372 2553 
Q 372 3047 722 3315 
Q 1072 3584 1716 3584 
Q 2034 3584 2315 3537 
Q 2597 3491 2834 3397 
z
" transform="scale(0.015625)"/>
      <path id="DejaVuSans-69" d="M 603 3500 
L 1178 3500 
L 1178 0 
L 603 0 
L 603 3500 
z
M 603 4863 
L 1178 4863 
L 1178 4134 
L 603 4134 
L 603 4863 
z
" transform="scale(0.015625)"/>
      <path id="DejaVuSans-7a" d="M 353 3500 
L 3084 3500 
L 3084 2975 
L 922 459 
L 3084 459 
L 3084 0 
L 275 0 
L 275 525 
L 2438 3041 
L 353 3041 
L 353 3500 
z
" transform="scale(0.015625)"/>
      <path id="DejaVuSans-28" d="M 1984 4856 
Q 1566 4138 1362 3434 
Q 1159 2731 1159 2009 
Q 1159 1288 1364 580 
Q 1569 -128 1984 -844 
L 1484 -844 
Q 1016 -109 783 600 
Q 550 1309 550 2009 
Q 550 2706 781 3412 
Q 1013 4119 1484 4856 
L 1984 4856 
z
" transform="scale(0.015625)"/>
      <path id="DejaVuSans-79" d="M 2059 -325 
Q 1816 -950 1584 -1140 
Q 1353 -1331 966 -1331 
L 506 -1331 
L 506 -850 
L 844 -850 
Q 1081 -850 1212 -737 
Q 1344 -625 1503 -206 
L 1606 56 
L 191 3500 
L 800 3500 
L 1894 763 
L 2988 3500 
L 3597 3500 
L 2059 -325 
z
" transform="scale(0.015625)"/>
      <path id="DejaVuSans-2d" d="M 313 2009 
L 1997 2009 
L 1997 1497 
L 313 1497 
L 313 2009 
z
" transform="scale(0.015625)"/>
      <path id="DejaVuSans-61" d="M 2194 1759 
Q 1497 1759 1228 1600 
Q 959 1441 959 1056 
Q 959 750 1161 570 
Q 1363 391 1709 391 
Q 2188 391 2477 730 
Q 2766 1069 2766 1631 
L 2766 1759 
L 2194 1759 
z
M 3341 1997 
L 3341 0 
L 2766 0 
L 2766 531 
Q 2569 213 2275 61 
Q 1981 -91 1556 -91 
Q 1019 -91 701 211 
Q 384 513 384 1019 
Q 384 1609 779 1909 
Q 1175 2209 1959 2209 
L 2766 2209 
L 2766 2266 
Q 2766 2663 2505 2880 
Q 2244 3097 1772 3097 
Q 1472 3097 1187 3025 
Q 903 2953 641 2809 
L 641 3341 
Q 956 3463 1253 3523 
Q 1550 3584 1831 3584 
Q 2591 3584 2966 3190 
Q 3341 2797 3341 1997 
z
" transform="scale(0.015625)"/>
      <path id="DejaVuSans-78" d="M 3513 3500 
L 2247 1797 
L 3578 0 
L 2900 0 
L 1881 1375 
L 863 0 
L 184 0 
L 1544 1831 
L 300 3500 
L 978 3500 
L 1906 2253 
L 2834 3500 
L 3513 3500 
z
" transform="scale(0.015625)"/>
      <path id="DejaVuSans-29" d="M 513 4856 
L 1013 4856 
Q 1481 4119 1714 3412 
Q 1947 2706 1947 2009 
Q 1947 1309 1714 600 
Q 1481 -109 1013 -844 
L 513 -844 
Q 928 -128 1133 580 
Q 1338 1288 1338 2009 
Q 1338 2731 1133 3434 
Q 928 4138 513 4856 
z
" transform="scale(0.015625)"/>
      <path id="DejaVuSans-62" d="M 3116 1747 
Q 3116 2381 2855 2742 
Q 2594 3103 2138 3103 
Q 1681 3103 1420 2742 
Q 1159 2381 1159 1747 
Q 1159 1113 1420 752 
Q 1681 391 2138 391 
Q 2594 391 2855 752 
Q 3116 1113 3116 1747 
z
M 1159 2969 
Q 1341 3281 1617 3432 
Q 1894 3584 2278 3584 
Q 2916 3584 3314 3078 
Q 3713 2572 3713 1747 
Q 3713 922 3314 415 
Q 2916 -91 2278 -91 
Q 1894 -91 1617 61 
Q 1341 213 1159 525 
L 1159 0 
L 581 0 
L 581 4863 
L 1159 4863 
L 1159 2969 
z
" transform="scale(0.015625)"/>
      <path id="DejaVuSans-74" d="M 1172 4494 
L 1172 3500 
L 2356 3500 
L 2356 3053 
L 1172 3053 
L 1172 1153 
Q 1172 725 1289 603 
Q 1406 481 1766 481 
L 2356 481 
L 2356 0 
L 1766 0 
Q 1100 0 847 248 
Q 594 497 594 1153 
L 594 3053 
L 172 3053 
L 172 3500 
L 594 3500 
L 594 4494 
L 1172 4494 
z
" transform="scale(0.015625)"/>
      <path id="DejaVuSans-77" d="M 269 3500 
L 844 3500 
L 1563 769 
L 2278 3500 
L 2956 3500 
L 3675 769 
L 4391 3500 
L 4966 3500 
L 4050 0 
L 3372 0 
L 2619 2869 
L 1863 0 
L 1184 0 
L 269 3500 
z
" transform="scale(0.015625)"/>
      <path id="DejaVuSans-6e" d="M 3513 2113 
L 3513 0 
L 2938 0 
L 2938 2094 
Q 2938 2591 2744 2837 
Q 2550 3084 2163 3084 
Q 1697 3084 1428 2787 
Q 1159 2491 1159 1978 
L 1159 0 
L 581 0 
L 581 3500 
L 1159 3500 
L 1159 2956 
Q 1366 3272 1645 3428 
Q 1925 3584 2291 3584 
Q 2894 3584 3203 3211 
Q 3513 2838 3513 2113 
z
" transform="scale(0.015625)"/>
      <path id="DejaVuSans-53" d="M 3425 4513 
L 3425 3897 
Q 3066 4069 2747 4153 
Q 2428 4238 2131 4238 
Q 1616 4238 1336 4038 
Q 1056 3838 1056 3469 
Q 1056 3159 1242 3001 
Q 1428 2844 1947 2747 
L 2328 2669 
Q 3034 2534 3370 2195 
Q 3706 1856 3706 1288 
Q 3706 609 3251 259 
Q 2797 -91 1919 -91 
Q 1588 -91 1214 -16 
Q 841 59 441 206 
L 441 856 
Q 825 641 1194 531 
Q 1563 422 1919 422 
Q 2459 422 2753 634 
Q 3047 847 3047 1241 
Q 3047 1584 2836 1778 
Q 2625 1972 2144 2069 
L 1759 2144 
Q 1053 2284 737 2584 
Q 422 2884 422 3419 
Q 422 4038 858 4394 
Q 1294 4750 2059 4750 
Q 2388 4750 2728 4690 
Q 3069 4631 3425 4513 
z
" transform="scale(0.015625)"/>
      <path id="DejaVuSans-37" d="M 525 4666 
L 3525 4666 
L 3525 4397 
L 1831 0 
L 1172 0 
L 2766 4134 
L 525 4134 
L 525 4666 
z
" transform="scale(0.015625)"/>
      <path id="DejaVuSans-64" d="M 2906 2969 
L 2906 4863 
L 3481 4863 
L 3481 0 
L 2906 0 
L 2906 525 
Q 2725 213 2448 61 
Q 2172 -91 1784 -91 
Q 1150 -91 751 415 
Q 353 922 353 1747 
Q 353 2572 751 3078 
Q 1150 3584 1784 3584 
Q 2172 3584 2448 3432 
Q 2725 3281 2906 2969 
z
M 947 1747 
Q 947 1113 1208 752 
Q 1469 391 1925 391 
Q 2381 391 2643 752 
Q 2906 1113 2906 1747 
Q 2906 2381 2643 2742 
Q 2381 3103 1925 3103 
Q 1469 3103 1208 2742 
Q 947 2381 947 1747 
z
" transform="scale(0.015625)"/>
      <path id="DejaVuSans-6f" d="M 1959 3097 
Q 1497 3097 1228 2736 
Q 959 2375 959 1747 
Q 959 1119 1226 758 
Q 1494 397 1959 397 
Q 2419 397 2687 759 
Q 2956 1122 2956 1747 
Q 2956 2369 2687 2733 
Q 2419 3097 1959 3097 
z
M 1959 3584 
Q 2709 3584 3137 3096 
Q 3566 2609 3566 1747 
Q 3566 888 3137 398 
Q 2709 -91 1959 -91 
Q 1206 -91 779 398 
Q 353 888 353 1747 
Q 353 2609 779 3096 
Q 1206 3584 1959 3584 
z
" transform="scale(0.015625)"/>
      <path id="DejaVuSans-72" d="M 2631 2963 
Q 2534 3019 2420 3045 
Q 2306 3072 2169 3072 
Q 1681 3072 1420 2755 
Q 1159 2438 1159 1844 
L 1159 0 
L 581 0 
L 581 3500 
L 1159 3500 
L 1159 2956 
Q 1341 3275 1631 3429 
Q 1922 3584 2338 3584 
Q 2397 3584 2469 3576 
Q 2541 3569 2628 3553 
L 2631 2963 
z
" transform="scale(0.015625)"/>
      <path id="DejaVuSans-68" d="M 3513 2113 
L 3513 0 
L 2938 0 
L 2938 2094 
Q 2938 2591 2744 2837 
Q 2550 3084 2163 3084 
Q 1697 3084 1428 2787 
Q 1159 2491 1159 1978 
L 1159 0 
L 581 0 
L 581 4863 
L 1159 4863 
L 1159 2956 
Q 1366 3272 1645 3428 
Q 1925 3584 2291 3584 
Q 2894 3584 3203 3211 
Q 3513 2838 3513 2113 
z
" transform="scale(0.015625)"/>
      <path id="DejaVuSans-66" d="M 2375 4863 
L 2375 4384 
L 1825 4384 
Q 1516 4384 1395 4259 
Q 1275 4134 1275 3809 
L 1275 3500 
L 2222 3500 
L 2222 3053 
L 1275 3053 
L 1275 0 
L 697 0 
L 697 3053 
L 147 3053 
L 147 3500 
L 697 3500 
L 697 3744 
Q 697 4328 969 4595 
Q 1241 4863 1831 4863 
L 2375 4863 
z
" transform="scale(0.015625)"/>
      <path id="DejaVuSans-6c" d="M 603 4863 
L 1178 4863 
L 1178 0 
L 603 0 
L 603 4863 
z
" transform="scale(0.015625)"/>
      <path id="DejaVuSans-6d" d="M 3328 2828 
Q 3544 3216 3844 3400 
Q 4144 3584 4550 3584 
Q 5097 3584 5394 3201 
Q 5691 2819 5691 2113 
L 5691 0 
L 5113 0 
L 5113 2094 
Q 5113 2597 4934 2840 
Q 4756 3084 4391 3084 
Q 3944 3084 3684 2787 
Q 3425 2491 3425 1978 
L 3425 0 
L 2847 0 
L 2847 2094 
Q 2847 2600 2669 2842 
Q 2491 3084 2119 3084 
Q 1678 3084 1418 2786 
Q 1159 2488 1159 1978 
L 1159 0 
L 581 0 
L 581 3500 
L 1159 3500 
L 1159 2956 
Q 1356 3278 1631 3431 
Q 1906 3584 2284 3584 
Q 2666 3584 2933 3390 
Q 3200 3197 3328 2828 
z
" transform="scale(0.015625)"/>
     </defs>
     <use xlink:href="#DejaVuSans-51"/>
     <use xlink:href="#DejaVuSans-75" x="78.710938"/>
     <use xlink:href="#DejaVuSans-65" x="142.089844"/>
     <use xlink:href="#DejaVuSans-75" x="203.613281"/>
     <use xlink:href="#DejaVuSans-65" x="266.992188"/>
     <use xlink:href="#DejaVuSans-20" x="328.515625"/>
     <use xlink:href="#DejaVuSans-73" x="360.302734"/>
     <use xlink:href="#DejaVuSans-69" x="412.402344"/>
     <use xlink:href="#DejaVuSans-7a" x="440.185547"/>
     <use xlink:href="#DejaVuSans-65" x="492.675781"/>
     <use xlink:href="#DejaVuSans-20" x="554.199219"/>
     <use xlink:href="#DejaVuSans-28" x="585.986328"/>
     <use xlink:href="#DejaVuSans-79" x="625"/>
     <use xlink:href="#DejaVuSans-2d" x="682.429688"/>
     <use xlink:href="#DejaVuSans-61" x="718.513672"/>
     <use xlink:href="#DejaVuSans-78" x="779.792969"/>
     <use xlink:href="#DejaVuSans-69" x="838.972656"/>
     <use xlink:href="#DejaVuSans-73" x="866.755859"/>
     <use xlink:href="#DejaVuSans-29" x="918.855469"/>
     <use xlink:href="#DejaVuSans-20" x="957.869141"/>
     <use xlink:href="#DejaVuSans-62" x="989.65625"/>
     <use xlink:href="#DejaVuSans-65" x="1053.132812"/>
     <use xlink:href="#DejaVuSans-74" x="1114.65625"/>
     <use xlink:href="#DejaVuSans-77" x="1153.865234"/>
     <use xlink:href="#DejaVuSans-65" x="1235.652344"/>
     <use xlink:href="#DejaVuSans-65" x="1297.175781"/>
     <use xlink:href="#DejaVuSans-6e" x="1358.699219"/>
     <use xlink:href="#DejaVuSans-20" x="1422.078125"/>
     <use xlink:href="#DejaVuSans-53" x="1453.865234"/>
     <use xlink:href="#DejaVuSans-37" x="1517.341797"/>
     <use xlink:href="#DejaVuSans-20" x="1580.964844"/>
     <use xlink:href="#DejaVuSans-61" x="1612.751953"/>
     <use xlink:href="#DejaVuSans-6e" x="1674.03125"/>
     <use xlink:href="#DejaVuSans-64" x="1737.410156"/>
     <use xlink:href="#DejaVuSans-20" x="1800.886719"/>
     <use xlink:href="#DejaVuSans-73" x="1832.673828"/>
     <use xlink:href="#DejaVuSans-65" x="1884.773438"/>
     <use xlink:href="#DejaVuSans-6e" x="1946.296875"/>
     <use xlink:href="#DejaVuSans-73" x="2009.675781"/>
     <use xlink:href="#DejaVuSans-6f" x="2061.775391"/>
     <use xlink:href="#DejaVuSans-72" x="2122.957031"/>
     <use xlink:href="#DejaVuSans-73" x="2164.070312"/>
     <use xlink:href="#DejaVuSans-20" x="2216.169922"/>
     <use xlink:href="#DejaVuSans-74" x="2247.957031"/>
     <use xlink:href="#DejaVuSans-68" x="2287.166016"/>
     <use xlink:href="#DejaVuSans-61" x="2350.544922"/>
     <use xlink:href="#DejaVuSans-74" x="2411.824219"/>
     <use xlink:href="#DejaVuSans-20" x="2451.033203"/>
     <use xlink:href="#DejaVuSans-66" x="2482.820312"/>
     <use xlink:href="#DejaVuSans-6f" x="2518.025391"/>
     <use xlink:href="#DejaVuSans-6c" x="2579.207031"/>
     <use xlink:href="#DejaVuSans-6c" x="2606.990234"/>
     <use xlink:href="#DejaVuSans-6f" x="2634.773438"/>
     <use xlink:href="#DejaVuSans-77" x="2695.955078"/>
     <use xlink:href="#DejaVuSans-20" x="2777.742188"/>
     <use xlink:href="#DejaVuSans-61" x="2809.529297"/>
     <use xlink:href="#DejaVuSans-74" x="2870.808594"/>
     <use xlink:href="#DejaVuSans-20" x="2910.017578"/>
     <use xlink:href="#DejaVuSans-61" x="2941.804688"/>
     <use xlink:href="#DejaVuSans-20" x="3003.083984"/>
     <use xlink:href="#DejaVuSans-74" x="3034.871094"/>
     <use xlink:href="#DejaVuSans-69" x="3074.080078"/>
     <use xlink:href="#DejaVuSans-6d" x="3101.863281"/>
     <use xlink:href="#DejaVuSans-65" x="3199.275391"/>
     <use xlink:href="#DejaVuSans-20" x="3260.798828"/>
     <use xlink:href="#DejaVuSans-28" x="3292.585938"/>
     <use xlink:href="#DejaVuSans-78" x="3331.599609"/>
     <use xlink:href="#DejaVuSans-2d" x="3390.779297"/>
     <use xlink:href="#DejaVuSans-61" x="3426.863281"/>
     <use xlink:href="#DejaVuSans-78" x="3488.142578"/>
     <use xlink:href="#DejaVuSans-69" x="3547.322266"/>
     <use xlink:href="#DejaVuSans-73" x="3575.105469"/>
     <use xlink:href="#DejaVuSans-29" x="3627.205078"/>
     <use xlink:href="#DejaVuSans-2e" x="3666.21875"/>
    </g>
   </g>
  </g>
 </g>
 <defs>
  <clipPath id="pe1a5a63596">
   <rect x="57.6" y="41.472" width="357.12" height="266.112"/>
  </clipPath>
 </defs>
</svg>
