<?xml version="1.0" encoding="utf-8" standalone="no"?>
<!DOCTYPE svg PUBLIC "-//W3C//DTD SVG 1.1//EN"
  "http://www.w3.org/Graphics/SVG/1.1/DTD/svg11.dtd">
<svg xmlns:xlink="http://www.w3.org/1999/xlink" width="460.8pt" height="345.6pt" viewBox="0 0 460.8 345.6" xmlns="http://www.w3.org/2000/svg" version="1.1">
 <metadata>
  <rdf:RDF xmlns:dc="http://purl.org/dc/elements/1.1/" xmlns:cc="http://creativecommons.org/ns#" xmlns:rdf="http://www.w3.org/1999/02/22-rdf-syntax-ns#">
   <cc:Work>
    <dc:type rdf:resource="http://purl.org/dc/dcmitype/StillImage"/>
    <dc:date>2024-03-08T12:51:28.752942</dc:date>
    <dc:format>image/svg+xml</dc:format>
    <dc:creator>
     <cc:Agent>
      <dc:title>Matplotlib v3.8.2, https://matplotlib.org/</dc:title>
     </cc:Agent>
    </dc:creator>
   </cc:Work>
  </rdf:RDF>
 </metadata>
 <defs>
  <style type="text/css">*{stroke-linejoin: round; stroke-linecap: butt}</style>
 </defs>
 <g id="figure_1">
  <g id="patch_1">
   <path d="M 0 345.6 
L 460.8 345.6 
L 460.8 0 
L 0 0 
z
" style="fill: #ffffff"/>
  </g>
  <g id="axes_1">
   <g id="patch_2">
    <path d="M 57.6 307.584 
L 414.72 307.584 
L 414.72 41.472 
L 57.6 41.472 
z
" style="fill: #ffffff"/>
   </g>
   <g id="matplotlib.axis_1">
    <g id="xtick_1">
     <g id="line2d_1">
      <defs>
       <path id="mf0700abad8" d="M 0 0 
L 0 3.5 
" style="stroke: #000000; stroke-width: 0.8"/>
      </defs>
      <g>
       <use xlink:href="#mf0700abad8" x="73.832727" y="307.584" style="stroke: #000000; stroke-width: 0.8"/>
      </g>
     </g>
     <g id="text_1">
      <!-- 0 -->
      <g transform="translate(70.651477 322.182437) scale(0.1 -0.1)">
       <defs>
        <path id="DejaVuSans-30" d="M 2034 4250 
Q 1547 4250 1301 3770 
Q 1056 3291 1056 2328 
Q 1056 1369 1301 889 
Q 1547 409 2034 409 
Q 2525 409 2770 889 
Q 3016 1369 3016 2328 
Q 3016 3291 2770 3770 
Q 2525 4250 2034 4250 
z
M 2034 4750 
Q 2819 4750 3233 4129 
Q 3647 3509 3647 2328 
Q 3647 1150 3233 529 
Q 2819 -91 2034 -91 
Q 1250 -91 836 529 
Q 422 1150 422 2328 
Q 422 3509 836 4129 
Q 1250 4750 2034 4750 
z
" transform="scale(0.015625)"/>
       </defs>
       <use xlink:href="#DejaVuSans-30"/>
      </g>
     </g>
    </g>
    <g id="xtick_2">
     <g id="line2d_2">
      <g>
       <use xlink:href="#mf0700abad8" x="117.264773" y="307.584" style="stroke: #000000; stroke-width: 0.8"/>
      </g>
     </g>
     <g id="text_2">
      <!-- 2000 -->
      <g transform="translate(104.539773 322.182437) scale(0.1 -0.1)">
       <defs>
        <path id="DejaVuSans-32" d="M 1228 531 
L 3431 531 
L 3431 0 
L 469 0 
L 469 531 
Q 828 903 1448 1529 
Q 2069 2156 2228 2338 
Q 2531 2678 2651 2914 
Q 2772 3150 2772 3378 
Q 2772 3750 2511 3984 
Q 2250 4219 1831 4219 
Q 1534 4219 1204 4116 
Q 875 4013 500 3803 
L 500 4441 
Q 881 4594 1212 4672 
Q 1544 4750 1819 4750 
Q 2544 4750 2975 4387 
Q 3406 4025 3406 3419 
Q 3406 3131 3298 2873 
Q 3191 2616 2906 2266 
Q 2828 2175 2409 1742 
Q 1991 1309 1228 531 
z
" transform="scale(0.015625)"/>
       </defs>
       <use xlink:href="#DejaVuSans-32"/>
       <use xlink:href="#DejaVuSans-30" x="63.623047"/>
       <use xlink:href="#DejaVuSans-30" x="127.246094"/>
       <use xlink:href="#DejaVuSans-30" x="190.869141"/>
      </g>
     </g>
    </g>
    <g id="xtick_3">
     <g id="line2d_3">
      <g>
       <use xlink:href="#mf0700abad8" x="160.69682" y="307.584" style="stroke: #000000; stroke-width: 0.8"/>
      </g>
     </g>
     <g id="text_3">
      <!-- 4000 -->
      <g transform="translate(147.97182 322.182437) scale(0.1 -0.1)">
       <defs>
        <path id="DejaVuSans-34" d="M 2419 4116 
L 825 1625 
L 2419 1625 
L 2419 4116 
z
M 2253 4666 
L 3047 4666 
L 3047 1625 
L 3713 1625 
L 3713 1100 
L 3047 1100 
L 3047 0 
L 2419 0 
L 2419 1100 
L 313 1100 
L 313 1709 
L 2253 4666 
z
" transform="scale(0.015625)"/>
       </defs>
       <use xlink:href="#DejaVuSans-34"/>
       <use xlink:href="#DejaVuSans-30" x="63.623047"/>
       <use xlink:href="#DejaVuSans-30" x="127.246094"/>
       <use xlink:href="#DejaVuSans-30" x="190.869141"/>
      </g>
     </g>
    </g>
    <g id="xtick_4">
     <g id="line2d_4">
      <g>
       <use xlink:href="#mf0700abad8" x="204.128866" y="307.584" style="stroke: #000000; stroke-width: 0.8"/>
      </g>
     </g>
     <g id="text_4">
      <!-- 6000 -->
      <g transform="translate(191.403866 322.182437) scale(0.1 -0.1)">
       <defs>
        <path id="DejaVuSans-36" d="M 2113 2584 
Q 1688 2584 1439 2293 
Q 1191 2003 1191 1497 
Q 1191 994 1439 701 
Q 1688 409 2113 409 
Q 2538 409 2786 701 
Q 3034 994 3034 1497 
Q 3034 2003 2786 2293 
Q 2538 2584 2113 2584 
z
M 3366 4563 
L 3366 3988 
Q 3128 4100 2886 4159 
Q 2644 4219 2406 4219 
Q 1781 4219 1451 3797 
Q 1122 3375 1075 2522 
Q 1259 2794 1537 2939 
Q 1816 3084 2150 3084 
Q 2853 3084 3261 2657 
Q 3669 2231 3669 1497 
Q 3669 778 3244 343 
Q 2819 -91 2113 -91 
Q 1303 -91 875 529 
Q 447 1150 447 2328 
Q 447 3434 972 4092 
Q 1497 4750 2381 4750 
Q 2619 4750 2861 4703 
Q 3103 4656 3366 4563 
z
" transform="scale(0.015625)"/>
       </defs>
       <use xlink:href="#DejaVuSans-36"/>
       <use xlink:href="#DejaVuSans-30" x="63.623047"/>
       <use xlink:href="#DejaVuSans-30" x="127.246094"/>
       <use xlink:href="#DejaVuSans-30" x="190.869141"/>
      </g>
     </g>
    </g>
    <g id="xtick_5">
     <g id="line2d_5">
      <g>
       <use xlink:href="#mf0700abad8" x="247.560912" y="307.584" style="stroke: #000000; stroke-width: 0.8"/>
      </g>
     </g>
     <g id="text_5">
      <!-- 8000 -->
      <g transform="translate(234.835912 322.182437) scale(0.1 -0.1)">
       <defs>
        <path id="DejaVuSans-38" d="M 2034 2216 
Q 1584 2216 1326 1975 
Q 1069 1734 1069 1313 
Q 1069 891 1326 650 
Q 1584 409 2034 409 
Q 2484 409 2743 651 
Q 3003 894 3003 1313 
Q 3003 1734 2745 1975 
Q 2488 2216 2034 2216 
z
M 1403 2484 
Q 997 2584 770 2862 
Q 544 3141 544 3541 
Q 544 4100 942 4425 
Q 1341 4750 2034 4750 
Q 2731 4750 3128 4425 
Q 3525 4100 3525 3541 
Q 3525 3141 3298 2862 
Q 3072 2584 2669 2484 
Q 3125 2378 3379 2068 
Q 3634 1759 3634 1313 
Q 3634 634 3220 271 
Q 2806 -91 2034 -91 
Q 1263 -91 848 271 
Q 434 634 434 1313 
Q 434 1759 690 2068 
Q 947 2378 1403 2484 
z
M 1172 3481 
Q 1172 3119 1398 2916 
Q 1625 2713 2034 2713 
Q 2441 2713 2670 2916 
Q 2900 3119 2900 3481 
Q 2900 3844 2670 4047 
Q 2441 4250 2034 4250 
Q 1625 4250 1398 4047 
Q 1172 3844 1172 3481 
z
" transform="scale(0.015625)"/>
       </defs>
       <use xlink:href="#DejaVuSans-38"/>
       <use xlink:href="#DejaVuSans-30" x="63.623047"/>
       <use xlink:href="#DejaVuSans-30" x="127.246094"/>
       <use xlink:href="#DejaVuSans-30" x="190.869141"/>
      </g>
     </g>
    </g>
    <g id="xtick_6">
     <g id="line2d_6">
      <g>
       <use xlink:href="#mf0700abad8" x="290.992958" y="307.584" style="stroke: #000000; stroke-width: 0.8"/>
      </g>
     </g>
     <g id="text_6">
      <!-- 10000 -->
      <g transform="translate(275.086708 322.182437) scale(0.1 -0.1)">
       <defs>
        <path id="DejaVuSans-31" d="M 794 531 
L 1825 531 
L 1825 4091 
L 703 3866 
L 703 4441 
L 1819 4666 
L 2450 4666 
L 2450 531 
L 3481 531 
L 3481 0 
L 794 0 
L 794 531 
z
" transform="scale(0.015625)"/>
       </defs>
       <use xlink:href="#DejaVuSans-31"/>
       <use xlink:href="#DejaVuSans-30" x="63.623047"/>
       <use xlink:href="#DejaVuSans-30" x="127.246094"/>
       <use xlink:href="#DejaVuSans-30" x="190.869141"/>
       <use xlink:href="#DejaVuSans-30" x="254.492188"/>
      </g>
     </g>
    </g>
    <g id="xtick_7">
     <g id="line2d_7">
      <g>
       <use xlink:href="#mf0700abad8" x="334.425005" y="307.584" style="stroke: #000000; stroke-width: 0.8"/>
      </g>
     </g>
     <g id="text_7">
      <!-- 12000 -->
      <g transform="translate(318.518755 322.182437) scale(0.1 -0.1)">
       <use xlink:href="#DejaVuSans-31"/>
       <use xlink:href="#DejaVuSans-32" x="63.623047"/>
       <use xlink:href="#DejaVuSans-30" x="127.246094"/>
       <use xlink:href="#DejaVuSans-30" x="190.869141"/>
       <use xlink:href="#DejaVuSans-30" x="254.492188"/>
      </g>
     </g>
    </g>
    <g id="xtick_8">
     <g id="line2d_8">
      <g>
       <use xlink:href="#mf0700abad8" x="377.857051" y="307.584" style="stroke: #000000; stroke-width: 0.8"/>
      </g>
     </g>
     <g id="text_8">
      <!-- 14000 -->
      <g transform="translate(361.950801 322.182437) scale(0.1 -0.1)">
       <use xlink:href="#DejaVuSans-31"/>
       <use xlink:href="#DejaVuSans-34" x="63.623047"/>
       <use xlink:href="#DejaVuSans-30" x="127.246094"/>
       <use xlink:href="#DejaVuSans-30" x="190.869141"/>
       <use xlink:href="#DejaVuSans-30" x="254.492188"/>
      </g>
     </g>
    </g>
   </g>
   <g id="matplotlib.axis_2">
    <g id="ytick_1">
     <g id="line2d_9">
      <defs>
       <path id="m5d1416cb6a" d="M 0 0 
L -3.5 0 
" style="stroke: #000000; stroke-width: 0.8"/>
      </defs>
      <g>
       <use xlink:href="#m5d1416cb6a" x="57.6" y="295.488" style="stroke: #000000; stroke-width: 0.8"/>
      </g>
     </g>
     <g id="text_9">
      <!-- 0.0 -->
      <g transform="translate(34.696875 299.287219) scale(0.1 -0.1)">
       <defs>
        <path id="DejaVuSans-2e" d="M 684 794 
L 1344 794 
L 1344 0 
L 684 0 
L 684 794 
z
" transform="scale(0.015625)"/>
       </defs>
       <use xlink:href="#DejaVuSans-30"/>
       <use xlink:href="#DejaVuSans-2e" x="63.623047"/>
       <use xlink:href="#DejaVuSans-30" x="95.410156"/>
      </g>
     </g>
    </g>
    <g id="ytick_2">
     <g id="line2d_10">
      <g>
       <use xlink:href="#m5d1416cb6a" x="57.6" y="247.104" style="stroke: #000000; stroke-width: 0.8"/>
      </g>
     </g>
     <g id="text_10">
      <!-- 0.2 -->
      <g transform="translate(34.696875 250.903219) scale(0.1 -0.1)">
       <use xlink:href="#DejaVuSans-30"/>
       <use xlink:href="#DejaVuSans-2e" x="63.623047"/>
       <use xlink:href="#DejaVuSans-32" x="95.410156"/>
      </g>
     </g>
    </g>
    <g id="ytick_3">
     <g id="line2d_11">
      <g>
       <use xlink:href="#m5d1416cb6a" x="57.6" y="198.72" style="stroke: #000000; stroke-width: 0.8"/>
      </g>
     </g>
     <g id="text_11">
      <!-- 0.4 -->
      <g transform="translate(34.696875 202.519219) scale(0.1 -0.1)">
       <use xlink:href="#DejaVuSans-30"/>
       <use xlink:href="#DejaVuSans-2e" x="63.623047"/>
       <use xlink:href="#DejaVuSans-34" x="95.410156"/>
      </g>
     </g>
    </g>
    <g id="ytick_4">
     <g id="line2d_12">
      <g>
       <use xlink:href="#m5d1416cb6a" x="57.6" y="150.336" style="stroke: #000000; stroke-width: 0.8"/>
      </g>
     </g>
     <g id="text_12">
      <!-- 0.6 -->
      <g transform="translate(34.696875 154.135219) scale(0.1 -0.1)">
       <use xlink:href="#DejaVuSans-30"/>
       <use xlink:href="#DejaVuSans-2e" x="63.623047"/>
       <use xlink:href="#DejaVuSans-36" x="95.410156"/>
      </g>
     </g>
    </g>
    <g id="ytick_5">
     <g id="line2d_13">
      <g>
       <use xlink:href="#m5d1416cb6a" x="57.6" y="101.952" style="stroke: #000000; stroke-width: 0.8"/>
      </g>
     </g>
     <g id="text_13">
      <!-- 0.8 -->
      <g transform="translate(34.696875 105.751219) scale(0.1 -0.1)">
       <use xlink:href="#DejaVuSans-30"/>
       <use xlink:href="#DejaVuSans-2e" x="63.623047"/>
       <use xlink:href="#DejaVuSans-38" x="95.410156"/>
      </g>
     </g>
    </g>
    <g id="ytick_6">
     <g id="line2d_14">
      <g>
       <use xlink:href="#m5d1416cb6a" x="57.6" y="53.568" style="stroke: #000000; stroke-width: 0.8"/>
      </g>
     </g>
     <g id="text_14">
      <!-- 1.0 -->
      <g transform="translate(34.696875 57.367219) scale(0.1 -0.1)">
       <use xlink:href="#DejaVuSans-31"/>
       <use xlink:href="#DejaVuSans-2e" x="63.623047"/>
       <use xlink:href="#DejaVuSans-30" x="95.410156"/>
      </g>
     </g>
    </g>
   </g>
   <g id="line2d_15">
    <path d="M 73.832727 295.488 
L 74.701368 295.488 
L 74.701368 294.826414 
L 74.701368 294.826414 
L 75.135689 294.826414 
L 75.135689 294.385356 
L 75.135689 294.385356 
L 75.352849 294.385356 
L 75.352849 294.164828 
L 75.570009 294.164828 
L 75.570009 293.944299 
L 75.787169 293.944299 
L 75.787169 293.503242 
L 75.787169 293.503242 
L 76.00433 293.503242 
L 76.00433 293.282713 
L 76.22149 293.282713 
L 76.22149 293.062184 
L 76.43865 293.062184 
L 76.43865 292.621127 
L 76.43865 292.621127 
L 76.65581 292.621127 
L 76.65581 292.400598 
L 76.872971 292.400598 
L 76.872971 290.856897 
L 76.872971 290.856897 
L 77.090131 290.856897 
L 77.090131 286.88738 
L 77.090131 286.88738 
L 77.307291 286.88738 
L 77.307291 283.358921 
L 77.307291 283.358921 
L 77.524451 283.358921 
L 77.524451 282.476806 
L 77.524451 282.476806 
L 78.175932 282.476806 
L 78.175932 282.035748 
L 78.175932 282.035748 
L 78.393092 282.035748 
L 78.393092 281.81522 
L 78.610252 281.81522 
L 78.610252 281.594691 
L 79.044573 281.594691 
L 79.044573 281.153634 
L 79.044573 281.153634 
L 79.261733 281.153634 
L 79.261733 280.492047 
L 79.261733 280.492047 
L 79.478893 280.492047 
L 79.478893 279.389404 
L 79.478893 279.389404 
L 79.696054 279.389404 
L 79.696054 277.845703 
L 79.696054 277.845703 
L 79.913214 277.845703 
L 79.913214 277.404645 
L 79.913214 277.404645 
L 80.130374 277.404645 
L 80.130374 276.963588 
L 80.130374 276.963588 
L 80.347534 276.963588 
L 80.347534 275.640416 
L 80.347534 275.640416 
L 80.564694 275.640416 
L 80.564694 273.655657 
L 80.564694 273.655657 
L 80.781855 273.655657 
L 80.781855 272.994071 
L 80.781855 272.994071 
L 80.999015 272.994071 
L 80.999015 272.773542 
L 81.216175 272.773542 
L 81.216175 272.111956 
L 81.216175 272.111956 
L 81.433335 272.111956 
L 81.433335 271.45037 
L 81.433335 271.45037 
L 81.650496 271.45037 
L 81.650496 270.568255 
L 81.650496 270.568255 
L 81.867656 270.568255 
L 81.867656 270.127198 
L 81.867656 270.127198 
L 82.084816 270.127198 
L 82.084816 269.465612 
L 82.084816 269.465612 
L 82.301976 269.465612 
L 82.301976 267.260325 
L 82.301976 267.260325 
L 82.519137 267.260325 
L 82.519137 266.157681 
L 82.519137 266.157681 
L 82.736297 266.157681 
L 82.736297 265.716624 
L 82.736297 265.716624 
L 82.953457 265.716624 
L 82.953457 265.275566 
L 82.953457 265.275566 
L 83.170617 265.275566 
L 83.170617 265.055037 
L 83.387777 265.055037 
L 83.387777 263.952394 
L 83.387777 263.952394 
L 83.604938 263.952394 
L 83.604938 258.659705 
L 83.604938 258.659705 
L 83.822098 258.659705 
L 83.822098 254.24913 
L 83.822098 254.24913 
L 84.039258 254.24913 
L 84.039258 253.587544 
L 84.039258 253.587544 
L 84.256418 253.587544 
L 84.256418 253.367015 
L 84.690739 253.367015 
L 84.690739 252.484901 
L 84.690739 252.484901 
L 84.907899 252.484901 
L 84.907899 250.059085 
L 84.907899 250.059085 
L 85.125059 250.059085 
L 85.125059 249.618027 
L 85.125059 249.618027 
L 85.55938 249.618027 
L 85.55938 249.17697 
L 85.55938 249.17697 
L 85.77654 249.17697 
L 85.77654 248.515384 
L 85.77654 248.515384 
L 85.9937 248.515384 
L 85.9937 248.294855 
L 86.428021 248.294855 
L 86.428021 247.853798 
L 86.428021 247.853798 
L 86.645181 247.853798 
L 86.645181 247.41274 
L 86.645181 247.41274 
L 86.862341 247.41274 
L 86.862341 245.869039 
L 86.862341 245.869039 
L 87.079501 245.869039 
L 87.079501 243.443223 
L 87.079501 243.443223 
L 87.296662 243.443223 
L 87.296662 243.222695 
L 87.513822 243.222695 
L 87.513822 239.914764 
L 87.513822 239.914764 
L 87.730982 239.914764 
L 87.730982 239.694235 
L 87.948142 239.694235 
L 87.948142 239.473706 
L 88.165303 239.473706 
L 88.165303 239.032649 
L 88.165303 239.032649 
L 88.382463 239.032649 
L 88.382463 238.81212 
L 88.599623 238.81212 
L 88.599623 238.591592 
L 88.816783 238.591592 
L 88.816783 237.930005 
L 88.816783 237.930005 
L 89.033943 237.930005 
L 89.033943 237.047891 
L 89.033943 237.047891 
L 89.251104 237.047891 
L 89.251104 236.827362 
L 89.468264 236.827362 
L 89.468264 236.606833 
L 89.685424 236.606833 
L 89.685424 235.724718 
L 89.685424 235.724718 
L 89.902584 235.724718 
L 89.902584 235.063132 
L 89.902584 235.063132 
L 90.336905 235.063132 
L 90.336905 234.842603 
L 90.554065 234.842603 
L 90.554065 234.622075 
L 90.988386 234.622075 
L 90.988386 234.401546 
L 91.205546 234.401546 
L 91.205546 233.73996 
L 91.205546 233.73996 
L 91.422706 233.73996 
L 91.422706 233.298902 
L 91.422706 233.298902 
L 91.639866 233.298902 
L 91.639866 233.078374 
L 91.857026 233.078374 
L 91.857026 232.416788 
L 91.857026 232.416788 
L 92.074187 232.416788 
L 92.074187 232.196259 
L 92.291347 232.196259 
L 92.291347 231.534673 
L 92.291347 231.534673 
L 92.508507 231.534673 
L 92.508507 231.314144 
L 92.942828 231.314144 
L 92.942828 230.652558 
L 92.942828 230.652558 
L 93.377148 230.652558 
L 93.377148 229.990972 
L 93.377148 229.990972 
L 93.594308 229.990972 
L 93.594308 229.770443 
L 93.811469 229.770443 
L 93.811469 229.549914 
L 94.028629 229.549914 
L 94.028629 228.888328 
L 94.028629 228.888328 
L 94.245789 228.888328 
L 94.245789 228.447271 
L 94.245789 228.447271 
L 94.462949 228.447271 
L 94.462949 227.565156 
L 94.462949 227.565156 
L 94.680109 227.565156 
L 94.680109 227.344627 
L 94.89727 227.344627 
L 94.89727 226.683041 
L 94.89727 226.683041 
L 95.11443 226.683041 
L 95.11443 226.462512 
L 95.33159 226.462512 
L 95.33159 226.241984 
L 95.54875 226.241984 
L 95.54875 225.359869 
L 95.54875 225.359869 
L 95.765911 225.359869 
L 95.765911 224.698283 
L 95.765911 224.698283 
L 95.983071 224.698283 
L 95.983071 224.477754 
L 96.200231 224.477754 
L 96.200231 224.036696 
L 96.200231 224.036696 
L 96.417391 224.036696 
L 96.417391 223.37511 
L 96.417391 223.37511 
L 96.634552 223.37511 
L 96.634552 222.713524 
L 96.634552 222.713524 
L 96.851712 222.713524 
L 96.851712 221.610881 
L 96.851712 221.610881 
L 97.068872 221.610881 
L 97.068872 220.728766 
L 97.068872 220.728766 
L 97.286032 220.728766 
L 97.286032 220.06718 
L 97.286032 220.06718 
L 97.503192 220.06718 
L 97.503192 219.626122 
L 97.503192 219.626122 
L 97.720353 219.626122 
L 97.720353 218.964536 
L 97.720353 218.964536 
L 97.937513 218.964536 
L 97.937513 218.744007 
L 98.154673 218.744007 
L 98.154673 218.523479 
L 98.371833 218.523479 
L 98.371833 218.082421 
L 98.371833 218.082421 
L 98.588994 218.082421 
L 98.588994 217.420835 
L 98.588994 217.420835 
L 98.806154 217.420835 
L 98.806154 216.979778 
L 98.806154 216.979778 
L 99.023314 216.979778 
L 99.023314 216.53872 
L 99.023314 216.53872 
L 99.240474 216.53872 
L 99.240474 216.318191 
L 99.457635 216.318191 
L 99.457635 215.656605 
L 99.457635 215.656605 
L 99.674795 215.656605 
L 99.674795 214.77449 
L 99.674795 214.77449 
L 99.891955 214.77449 
L 99.891955 214.112904 
L 99.891955 214.112904 
L 100.326275 214.112904 
L 100.326275 213.671847 
L 100.326275 213.671847 
L 100.543436 213.671847 
L 100.543436 213.010261 
L 100.543436 213.010261 
L 100.760596 213.010261 
L 100.760596 211.687088 
L 100.760596 211.687088 
L 100.977756 211.687088 
L 100.977756 211.246031 
L 100.977756 211.246031 
L 101.412077 211.246031 
L 101.412077 210.584445 
L 101.412077 210.584445 
L 101.629237 210.584445 
L 101.629237 209.261273 
L 101.629237 209.261273 
L 101.846397 209.261273 
L 101.846397 208.820215 
L 101.846397 208.820215 
L 102.063557 208.820215 
L 102.063557 208.158629 
L 102.063557 208.158629 
L 102.280718 208.158629 
L 102.280718 207.497043 
L 102.280718 207.497043 
L 102.497878 207.497043 
L 102.497878 207.055985 
L 102.497878 207.055985 
L 102.715038 207.055985 
L 102.715038 206.835457 
L 102.932198 206.835457 
L 102.932198 206.394399 
L 102.932198 206.394399 
L 103.149358 206.394399 
L 103.149358 205.953342 
L 103.149358 205.953342 
L 103.366519 205.953342 
L 103.366519 205.512284 
L 103.366519 205.512284 
L 103.583679 205.512284 
L 103.583679 205.291756 
L 103.800839 205.291756 
L 103.800839 204.850698 
L 103.800839 204.850698 
L 104.017999 204.850698 
L 104.017999 204.63017 
L 104.23516 204.63017 
L 104.23516 203.968583 
L 104.23516 203.968583 
L 104.66948 203.968583 
L 104.66948 203.306997 
L 104.66948 203.306997 
L 104.88664 203.306997 
L 104.88664 202.86594 
L 104.88664 202.86594 
L 105.103801 202.86594 
L 105.103801 202.424882 
L 105.103801 202.424882 
L 105.320961 202.424882 
L 105.320961 202.204354 
L 105.538121 202.204354 
L 105.538121 201.542768 
L 105.538121 201.542768 
L 105.972441 201.542768 
L 105.972441 201.322239 
L 106.189602 201.322239 
L 106.189602 200.660653 
L 106.189602 200.660653 
L 106.406762 200.660653 
L 106.406762 200.440124 
L 106.841082 200.440124 
L 106.841082 199.558009 
L 106.841082 199.558009 
L 107.058243 199.558009 
L 107.058243 199.33748 
L 107.275403 199.33748 
L 107.275403 199.116952 
L 107.709723 199.116952 
L 107.709723 198.896423 
L 108.144044 198.896423 
L 108.144044 198.455366 
L 108.144044 198.455366 
L 108.361204 198.455366 
L 108.361204 198.234837 
L 109.229845 198.234837 
L 109.229845 197.573251 
L 109.229845 197.573251 
L 110.967127 197.573251 
L 110.967127 197.352722 
L 111.184287 197.352722 
L 111.184287 196.911665 
L 111.184287 196.911665 
L 112.270088 196.911665 
L 112.270088 196.470607 
L 112.270088 196.470607 
L 112.487248 196.470607 
L 112.487248 196.250078 
L 112.704409 196.250078 
L 112.704409 196.02955 
L 113.79021 196.02955 
L 113.79021 195.588492 
L 113.79021 195.588492 
L 114.22453 195.588492 
L 114.22453 195.367964 
L 115.310331 195.367964 
L 115.310331 195.147435 
L 115.744652 195.147435 
L 115.744652 194.926906 
L 115.961812 194.926906 
L 115.961812 194.485849 
L 115.961812 194.485849 
L 116.396133 194.485849 
L 116.396133 194.26532 
L 116.830453 194.26532 
L 116.830453 193.383205 
L 116.830453 193.383205 
L 117.047613 193.383205 
L 117.047613 192.942148 
L 117.047613 192.942148 
L 117.916254 192.942148 
L 117.916254 192.50109 
L 117.916254 192.50109 
L 118.133414 192.50109 
L 118.133414 192.280562 
L 118.350575 192.280562 
L 118.350575 192.060033 
L 118.784895 192.060033 
L 118.784895 191.839504 
L 119.219216 191.839504 
L 119.219216 191.618975 
L 119.436376 191.618975 
L 119.436376 191.177918 
L 119.436376 191.177918 
L 119.870696 191.177918 
L 119.870696 190.957389 
L 120.087856 190.957389 
L 120.087856 190.736861 
L 120.522177 190.736861 
L 120.522177 190.516332 
L 120.739337 190.516332 
L 120.739337 190.295803 
L 120.956497 190.295803 
L 120.956497 189.854746 
L 120.956497 189.854746 
L 121.173658 189.854746 
L 121.173658 189.634217 
L 121.607978 189.634217 
L 121.607978 189.413688 
L 122.476619 189.413688 
L 122.476619 188.752102 
L 122.476619 188.752102 
L 122.693779 188.752102 
L 122.693779 188.311045 
L 122.693779 188.311045 
L 122.910939 188.311045 
L 122.910939 187.869987 
L 122.910939 187.869987 
L 123.34526 187.869987 
L 123.34526 187.649459 
L 123.56242 187.649459 
L 123.56242 187.42893 
L 123.996741 187.42893 
L 123.996741 186.987872 
L 123.996741 186.987872 
L 124.213901 186.987872 
L 124.213901 186.546815 
L 124.213901 186.546815 
L 124.865382 186.546815 
L 124.865382 186.326286 
L 125.082542 186.326286 
L 125.082542 185.444171 
L 125.082542 185.444171 
L 125.516862 185.444171 
L 125.516862 185.003114 
L 125.516862 185.003114 
L 125.734022 185.003114 
L 125.734022 184.782585 
L 125.951183 184.782585 
L 125.951183 184.341528 
L 125.951183 184.341528 
L 126.168343 184.341528 
L 126.168343 184.120999 
L 126.385503 184.120999 
L 126.385503 183.679942 
L 126.385503 183.679942 
L 126.602663 183.679942 
L 126.602663 183.459413 
L 126.819824 183.459413 
L 126.819824 183.238884 
L 127.254144 183.238884 
L 127.254144 183.018356 
L 127.688465 183.018356 
L 127.688465 182.136241 
L 127.688465 182.136241 
L 128.122785 182.136241 
L 128.122785 181.915712 
L 128.774266 181.915712 
L 128.774266 181.474655 
L 128.774266 181.474655 
L 128.991426 181.474655 
L 128.991426 181.254126 
L 129.208586 181.254126 
L 129.208586 181.033597 
L 129.425746 181.033597 
L 129.425746 180.813068 
L 129.642907 180.813068 
L 129.642907 180.59254 
L 130.294387 180.59254 
L 130.294387 180.372011 
L 130.511548 180.372011 
L 130.511548 180.151482 
L 132.031669 180.151482 
L 132.031669 179.930954 
L 132.46599 179.930954 
L 132.46599 179.710425 
L 132.90031 179.710425 
L 132.90031 179.489896 
L 133.11747 179.489896 
L 133.11747 179.269367 
L 134.420432 179.269367 
L 134.420432 179.048839 
L 138.763636 179.048839 
L 138.763636 178.82831 
L 139.415117 178.82831 
L 139.415117 178.607781 
L 140.066598 178.607781 
L 140.066598 178.387253 
L 142.45536 178.387253 
L 142.45536 178.166724 
L 143.324001 178.166724 
L 143.324001 177.946195 
L 143.541161 177.946195 
L 143.541161 177.505138 
L 143.541161 177.505138 
L 143.758322 177.505138 
L 143.758322 177.284609 
L 145.061283 177.284609 
L 145.061283 177.06408 
L 145.278443 177.06408 
L 145.278443 176.843552 
L 145.712764 176.843552 
L 145.712764 176.623023 
L 146.147084 176.623023 
L 146.147084 176.402494 
L 146.581405 176.402494 
L 146.581405 175.961437 
L 146.581405 175.961437 
L 147.015725 175.961437 
L 147.015725 175.520379 
L 147.015725 175.520379 
L 147.232885 175.520379 
L 147.232885 175.079322 
L 147.232885 175.079322 
L 147.450046 175.079322 
L 147.450046 174.858793 
L 147.667206 174.858793 
L 147.667206 174.638264 
L 147.884366 174.638264 
L 147.884366 174.417736 
L 148.101526 174.417736 
L 148.101526 174.197207 
L 148.318687 174.197207 
L 148.318687 173.976678 
L 148.753007 173.976678 
L 148.753007 173.756149 
L 148.970167 173.756149 
L 148.970167 173.315092 
L 148.970167 173.315092 
L 149.838808 173.315092 
L 149.838808 173.094563 
L 150.055968 173.094563 
L 150.055968 172.874035 
L 150.273129 172.874035 
L 150.273129 172.432977 
L 150.273129 172.432977 
L 151.14177 172.432977 
L 151.14177 171.99192 
L 151.14177 171.99192 
L 151.35893 171.99192 
L 151.35893 171.550862 
L 151.35893 171.550862 
L 152.01041 171.550862 
L 152.01041 171.330334 
L 152.227571 171.330334 
L 152.227571 171.109805 
L 153.096212 171.109805 
L 153.096212 170.448219 
L 153.096212 170.448219 
L 153.313372 170.448219 
L 153.313372 170.22769 
L 153.530532 170.22769 
L 153.530532 169.786633 
L 153.530532 169.786633 
L 153.747692 169.786633 
L 153.747692 169.125046 
L 153.747692 169.125046 
L 153.964853 169.125046 
L 153.964853 168.904518 
L 154.182013 168.904518 
L 154.182013 168.46346 
L 154.182013 168.46346 
L 154.399173 168.46346 
L 154.399173 168.242932 
L 154.616333 168.242932 
L 154.616333 167.360817 
L 154.616333 167.360817 
L 154.833493 167.360817 
L 154.833493 166.919759 
L 154.833493 166.919759 
L 155.267814 166.919759 
L 155.267814 166.037644 
L 155.267814 166.037644 
L 155.484974 166.037644 
L 155.484974 165.817116 
L 155.702134 165.817116 
L 155.702134 165.596587 
L 155.919295 165.596587 
L 155.919295 165.376058 
L 156.136455 165.376058 
L 156.136455 165.15553 
L 156.353615 165.15553 
L 156.353615 164.273415 
L 156.353615 164.273415 
L 156.570775 164.273415 
L 156.570775 163.832357 
L 156.570775 163.832357 
L 156.787936 163.832357 
L 156.787936 163.611829 
L 157.005096 163.611829 
L 157.005096 163.170771 
L 157.005096 163.170771 
L 157.222256 163.170771 
L 157.222256 162.950242 
L 157.439416 162.950242 
L 157.439416 162.068128 
L 157.439416 162.068128 
L 158.742378 162.068128 
L 158.742378 161.406541 
L 158.742378 161.406541 
L 158.959538 161.406541 
L 158.959538 160.965484 
L 158.959538 160.965484 
L 159.176698 160.965484 
L 159.176698 160.524427 
L 159.176698 160.524427 
L 159.393858 160.524427 
L 159.393858 159.86284 
L 159.393858 159.86284 
L 159.611019 159.86284 
L 159.611019 159.201254 
L 159.611019 159.201254 
L 159.828179 159.201254 
L 159.828179 158.980726 
L 160.045339 158.980726 
L 160.045339 157.878082 
L 160.045339 157.878082 
L 160.262499 157.878082 
L 160.262499 157.657553 
L 160.479659 157.657553 
L 160.479659 157.437025 
L 160.69682 157.437025 
L 160.69682 156.995967 
L 160.69682 156.995967 
L 160.91398 156.995967 
L 160.91398 156.55491 
L 160.91398 156.55491 
L 161.13114 156.55491 
L 161.13114 156.113852 
L 161.13114 156.113852 
L 161.565461 156.113852 
L 161.565461 155.893324 
L 161.782621 155.893324 
L 161.782621 155.452266 
L 161.782621 155.452266 
L 162.216941 155.452266 
L 162.216941 155.011209 
L 162.216941 155.011209 
L 162.868422 155.011209 
L 162.868422 154.570151 
L 162.868422 154.570151 
L 163.085582 154.570151 
L 163.085582 154.129094 
L 163.085582 154.129094 
L 163.302742 154.129094 
L 163.302742 153.908565 
L 163.519903 153.908565 
L 163.519903 153.467508 
L 163.519903 153.467508 
L 163.737063 153.467508 
L 163.737063 153.02645 
L 163.737063 153.02645 
L 163.954223 153.02645 
L 163.954223 152.364864 
L 163.954223 152.364864 
L 164.388544 152.364864 
L 164.388544 151.703278 
L 164.388544 151.703278 
L 164.605704 151.703278 
L 164.605704 151.482749 
L 164.822864 151.482749 
L 164.822864 151.041692 
L 164.822864 151.041692 
L 165.040024 151.041692 
L 165.040024 150.600634 
L 165.040024 150.600634 
L 165.257185 150.600634 
L 165.257185 150.380106 
L 165.474345 150.380106 
L 165.474345 149.939048 
L 165.474345 149.939048 
L 165.691505 149.939048 
L 165.691505 149.497991 
L 165.691505 149.497991 
L 166.125825 149.497991 
L 166.125825 148.836405 
L 166.125825 148.836405 
L 166.342986 148.836405 
L 166.342986 148.395347 
L 166.342986 148.395347 
L 166.560146 148.395347 
L 166.560146 147.292704 
L 166.560146 147.292704 
L 166.777306 147.292704 
L 166.777306 146.851646 
L 166.777306 146.851646 
L 166.994466 146.851646 
L 166.994466 146.410589 
L 166.994466 146.410589 
L 167.211627 146.410589 
L 167.211627 145.307945 
L 167.211627 145.307945 
L 167.428787 145.307945 
L 167.428787 145.087417 
L 167.645947 145.087417 
L 167.645947 144.646359 
L 167.645947 144.646359 
L 167.863107 144.646359 
L 167.863107 143.984773 
L 167.863107 143.984773 
L 168.297428 143.984773 
L 168.297428 143.764244 
L 168.514588 143.764244 
L 168.514588 143.102658 
L 168.514588 143.102658 
L 168.731748 143.102658 
L 168.731748 142.220543 
L 168.731748 142.220543 
L 168.948908 142.220543 
L 168.948908 142.000015 
L 169.166069 142.000015 
L 169.166069 141.338428 
L 169.166069 141.338428 
L 169.383229 141.338428 
L 169.383229 140.676842 
L 169.383229 140.676842 
L 169.600389 140.676842 
L 169.600389 140.015256 
L 169.600389 140.015256 
L 169.817549 140.015256 
L 169.817549 139.574199 
L 169.817549 139.574199 
L 170.03471 139.574199 
L 170.03471 139.35367 
L 170.25187 139.35367 
L 170.25187 138.471555 
L 170.25187 138.471555 
L 170.46903 138.471555 
L 170.46903 137.368912 
L 170.46903 137.368912 
L 170.68619 137.368912 
L 170.68619 137.148383 
L 170.903351 137.148383 
L 170.903351 136.707325 
L 170.903351 136.707325 
L 171.120511 136.707325 
L 171.120511 136.266268 
L 171.120511 136.266268 
L 171.337671 136.266268 
L 171.337671 134.943096 
L 171.337671 134.943096 
L 171.554831 134.943096 
L 171.554831 134.28151 
L 171.554831 134.28151 
L 171.771991 134.28151 
L 171.771991 134.060981 
L 171.989152 134.060981 
L 171.989152 132.958337 
L 171.989152 132.958337 
L 172.206312 132.958337 
L 172.206312 132.51728 
L 172.206312 132.51728 
L 172.423472 132.51728 
L 172.423472 132.076222 
L 172.423472 132.076222 
L 172.640632 132.076222 
L 172.640632 131.194108 
L 172.640632 131.194108 
L 172.857793 131.194108 
L 172.857793 130.311993 
L 172.857793 130.311993 
L 173.074953 130.311993 
L 173.074953 130.091464 
L 173.292113 130.091464 
L 173.292113 129.429878 
L 173.292113 129.429878 
L 173.509273 129.429878 
L 173.509273 128.768292 
L 173.509273 128.768292 
L 173.726434 128.768292 
L 173.726434 128.106706 
L 173.726434 128.106706 
L 173.943594 128.106706 
L 173.943594 127.665648 
L 173.943594 127.665648 
L 174.160754 127.665648 
L 174.160754 127.445119 
L 174.377914 127.445119 
L 174.377914 126.783533 
L 174.377914 126.783533 
L 174.595074 126.783533 
L 174.595074 126.121947 
L 174.595074 126.121947 
L 174.812235 126.121947 
L 174.812235 125.68089 
L 174.812235 125.68089 
L 175.029395 125.68089 
L 175.029395 125.239832 
L 175.029395 125.239832 
L 175.246555 125.239832 
L 175.246555 124.578246 
L 175.246555 124.578246 
L 175.463715 124.578246 
L 175.463715 123.91666 
L 175.463715 123.91666 
L 175.680876 123.91666 
L 175.680876 123.696131 
L 175.898036 123.696131 
L 175.898036 123.475603 
L 176.115196 123.475603 
L 176.115196 122.814016 
L 176.115196 122.814016 
L 176.332356 122.814016 
L 176.332356 122.15243 
L 176.332356 122.15243 
L 176.549517 122.15243 
L 176.549517 121.711373 
L 176.549517 121.711373 
L 176.766677 121.711373 
L 176.766677 121.490844 
L 176.983837 121.490844 
L 176.983837 121.270315 
L 177.200997 121.270315 
L 177.200997 121.049787 
L 177.852478 121.049787 
L 177.852478 120.608729 
L 177.852478 120.608729 
L 178.069638 120.608729 
L 178.069638 120.388201 
L 178.286798 120.388201 
L 178.286798 119.726614 
L 178.286798 119.726614 
L 178.503959 119.726614 
L 178.503959 119.506086 
L 179.3726 119.506086 
L 179.3726 119.285557 
L 179.58976 119.285557 
L 179.58976 119.065028 
L 179.80692 119.065028 
L 179.80692 118.8445 
L 180.24124 118.8445 
L 180.24124 118.623971 
L 180.458401 118.623971 
L 180.458401 118.182913 
L 180.458401 118.182913 
L 180.675561 118.182913 
L 180.675561 117.962385 
L 180.892721 117.962385 
L 180.892721 117.741856 
L 181.109881 117.741856 
L 181.109881 117.300799 
L 181.109881 117.300799 
L 181.327042 117.300799 
L 181.327042 116.859741 
L 181.327042 116.859741 
L 181.544202 116.859741 
L 181.544202 116.639212 
L 181.761362 116.639212 
L 181.761362 116.418684 
L 182.195683 116.418684 
L 182.195683 115.977626 
L 182.195683 115.977626 
L 182.412843 115.977626 
L 182.412843 115.757098 
L 182.630003 115.757098 
L 182.630003 115.536569 
L 182.847163 115.536569 
L 182.847163 115.31604 
L 183.064324 115.31604 
L 183.064324 115.095511 
L 184.150125 115.095511 
L 184.150125 114.874983 
L 185.018766 114.874983 
L 185.018766 114.654454 
L 186.321727 114.654454 
L 186.321727 114.433925 
L 189.57913 114.433925 
L 189.57913 114.213397 
L 194.573816 114.213397 
L 194.573816 113.992868 
L 196.962578 113.992868 
L 196.962578 113.772339 
L 197.179739 113.772339 
L 197.179739 113.55181 
L 197.831219 113.55181 
L 197.831219 113.110753 
L 197.831219 113.110753 
L 198.26554 113.110753 
L 198.26554 112.890224 
L 198.4827 112.890224 
L 198.4827 112.669696 
L 198.91702 112.669696 
L 198.91702 112.449167 
L 199.351341 112.449167 
L 199.351341 112.008109 
L 199.351341 112.008109 
L 199.785661 112.008109 
L 199.785661 111.787581 
L 200.437142 111.787581 
L 200.437142 111.567052 
L 200.871462 111.567052 
L 200.871462 110.684937 
L 200.871462 110.684937 
L 201.088623 110.684937 
L 201.088623 110.023351 
L 201.088623 110.023351 
L 201.522943 110.023351 
L 201.522943 109.802822 
L 201.957264 109.802822 
L 201.957264 109.582294 
L 202.391584 109.582294 
L 202.391584 108.920707 
L 202.391584 108.920707 
L 202.825905 108.920707 
L 202.825905 108.700179 
L 203.043065 108.700179 
L 203.043065 108.47965 
L 203.260225 108.47965 
L 203.260225 108.038593 
L 203.260225 108.038593 
L 203.477385 108.038593 
L 203.477385 107.818064 
L 203.911706 107.818064 
L 203.911706 107.597535 
L 204.128866 107.597535 
L 204.128866 106.935949 
L 204.128866 106.935949 
L 204.346026 106.935949 
L 204.346026 106.71542 
L 204.563186 106.71542 
L 204.563186 106.274363 
L 204.563186 106.274363 
L 204.780347 106.274363 
L 204.780347 105.612777 
L 204.780347 105.612777 
L 204.997507 105.612777 
L 204.997507 105.392248 
L 205.214667 105.392248 
L 205.214667 104.951191 
L 205.214667 104.951191 
L 205.431827 104.951191 
L 205.431827 104.730662 
L 205.648988 104.730662 
L 205.648988 104.289604 
L 205.648988 104.289604 
L 205.866148 104.289604 
L 205.866148 104.069076 
L 206.517628 104.069076 
L 206.517628 103.628018 
L 206.517628 103.628018 
L 206.734789 103.628018 
L 206.734789 103.40749 
L 207.169109 103.40749 
L 207.169109 103.186961 
L 207.386269 103.186961 
L 207.386269 102.745903 
L 207.386269 102.745903 
L 207.60343 102.745903 
L 207.60343 100.981674 
L 207.60343 100.981674 
L 207.82059 100.981674 
L 207.82059 100.761145 
L 208.03775 100.761145 
L 208.03775 100.540616 
L 208.25491 100.540616 
L 208.25491 100.099559 
L 208.25491 100.099559 
L 208.472071 100.099559 
L 208.472071 99.437973 
L 208.472071 99.437973 
L 208.689231 99.437973 
L 208.689231 99.217444 
L 208.906391 99.217444 
L 208.906391 98.555858 
L 208.906391 98.555858 
L 209.123551 98.555858 
L 209.123551 97.894272 
L 209.123551 97.894272 
L 209.340711 97.894272 
L 209.340711 96.571099 
L 209.340711 96.571099 
L 209.557872 96.571099 
L 209.557872 96.350571 
L 209.775032 96.350571 
L 209.775032 96.130042 
L 209.992192 96.130042 
L 209.992192 95.468456 
L 209.992192 95.468456 
L 210.209352 95.468456 
L 210.209352 94.80687 
L 210.209352 94.80687 
L 210.426513 94.80687 
L 210.426513 94.586341 
L 210.643673 94.586341 
L 210.643673 93.924755 
L 210.643673 93.924755 
L 210.860833 93.924755 
L 210.860833 92.822111 
L 210.860833 92.822111 
L 211.077993 92.822111 
L 211.077993 92.601582 
L 211.295154 92.601582 
L 211.295154 92.381054 
L 211.512314 92.381054 
L 211.512314 91.498939 
L 211.512314 91.498939 
L 211.946634 91.498939 
L 211.946634 91.057881 
L 211.946634 91.057881 
L 212.163794 91.057881 
L 212.163794 90.396295 
L 212.163794 90.396295 
L 212.380955 90.396295 
L 212.380955 89.955238 
L 212.380955 89.955238 
L 212.598115 89.955238 
L 212.598115 89.51418 
L 212.598115 89.51418 
L 212.815275 89.51418 
L 212.815275 89.293652 
L 213.032435 89.293652 
L 213.032435 89.073123 
L 213.249596 89.073123 
L 213.249596 88.411537 
L 213.249596 88.411537 
L 213.466756 88.411537 
L 213.466756 87.308893 
L 213.466756 87.308893 
L 213.683916 87.308893 
L 213.683916 86.647307 
L 213.683916 86.647307 
L 214.118237 86.647307 
L 214.118237 86.20625 
L 214.118237 86.20625 
L 214.335397 86.20625 
L 214.335397 85.985721 
L 214.552557 85.985721 
L 214.552557 85.765192 
L 214.769717 85.765192 
L 214.769717 84.883077 
L 214.769717 84.883077 
L 214.986877 84.883077 
L 214.986877 84.44202 
L 214.986877 84.44202 
L 215.204038 84.44202 
L 215.204038 84.221491 
L 215.421198 84.221491 
L 215.421198 83.339376 
L 215.421198 83.339376 
L 215.855518 83.339376 
L 215.855518 83.118848 
L 216.289839 83.118848 
L 216.289839 82.898319 
L 216.506999 82.898319 
L 216.506999 82.67779 
L 216.724159 82.67779 
L 216.724159 82.457262 
L 216.94132 82.457262 
L 216.94132 82.016204 
L 216.94132 82.016204 
L 217.15848 82.016204 
L 217.15848 81.575147 
L 217.15848 81.575147 
L 217.37564 81.575147 
L 217.37564 81.354618 
L 217.5928 81.354618 
L 217.5928 81.134089 
L 218.461441 81.134089 
L 218.461441 80.693032 
L 218.461441 80.693032 
L 219.112922 80.693032 
L 219.112922 80.472503 
L 220.633043 80.472503 
L 220.633043 80.251974 
L 221.067364 80.251974 
L 221.067364 80.031446 
L 221.284524 80.031446 
L 221.284524 79.810917 
L 221.501684 79.810917 
L 221.501684 79.590388 
L 221.718845 79.590388 
L 221.718845 79.36986 
L 221.936005 79.36986 
L 221.936005 79.149331 
L 222.370325 79.149331 
L 222.370325 78.928802 
L 224.324767 78.928802 
L 224.324767 78.708273 
L 225.627729 78.708273 
L 225.627729 78.487745 
L 226.49637 78.487745 
L 226.49637 78.267216 
L 226.93069 78.267216 
L 226.93069 78.046687 
L 234.965619 78.046687 
L 234.965619 77.826159 
L 243.652028 77.826159 
L 243.652028 77.60563 
L 245.38931 77.60563 
L 245.38931 77.385101 
L 246.040791 77.385101 
L 246.040791 77.164572 
L 247.343752 77.164572 
L 247.343752 76.944044 
L 247.560912 76.944044 
L 247.560912 76.723515 
L 248.212393 76.723515 
L 248.212393 76.282458 
L 248.212393 76.282458 
L 248.863874 76.282458 
L 248.863874 76.061929 
L 249.515354 76.061929 
L 249.515354 75.8414 
L 249.949675 75.8414 
L 249.949675 75.620871 
L 251.035476 75.620871 
L 251.035476 75.400343 
L 251.469796 75.400343 
L 251.469796 75.179814 
L 252.121277 75.179814 
L 252.121277 74.959285 
L 252.555597 74.959285 
L 252.555597 74.738757 
L 252.772758 74.738757 
L 252.772758 74.518228 
L 252.989918 74.518228 
L 252.989918 74.297699 
L 253.641399 74.297699 
L 253.641399 74.07717 
L 254.292879 74.07717 
L 254.292879 73.856642 
L 254.51004 73.856642 
L 254.51004 73.636113 
L 254.7272 73.636113 
L 254.7272 73.195056 
L 254.7272 73.195056 
L 254.94436 73.195056 
L 254.94436 72.974527 
L 255.16152 72.974527 
L 255.16152 72.533469 
L 255.16152 72.533469 
L 255.37868 72.533469 
L 255.37868 72.312941 
L 255.595841 72.312941 
L 255.595841 72.092412 
L 256.464482 72.092412 
L 256.464482 71.871883 
L 256.898802 71.871883 
L 256.898802 71.430826 
L 256.898802 71.430826 
L 257.550283 71.430826 
L 257.550283 70.76924 
L 257.550283 70.76924 
L 257.767443 70.76924 
L 257.767443 70.328182 
L 257.767443 70.328182 
L 257.984603 70.328182 
L 257.984603 69.887125 
L 257.984603 69.887125 
L 258.201763 69.887125 
L 258.201763 69.666596 
L 258.418924 69.666596 
L 258.418924 69.446067 
L 258.636084 69.446067 
L 258.636084 69.225539 
L 259.721885 69.225539 
L 259.721885 69.00501 
L 260.156206 69.00501 
L 260.156206 68.784481 
L 260.373366 68.784481 
L 260.373366 68.563953 
L 261.024846 68.563953 
L 261.024846 67.902366 
L 261.024846 67.902366 
L 261.242007 67.902366 
L 261.242007 67.681838 
L 261.676327 67.681838 
L 261.676327 67.461309 
L 262.110648 67.461309 
L 262.110648 67.24078 
L 262.327808 67.24078 
L 262.327808 67.020252 
L 262.762128 67.020252 
L 262.762128 66.138137 
L 262.762128 66.138137 
L 263.196449 66.138137 
L 263.196449 65.697079 
L 263.196449 65.697079 
L 263.413609 65.697079 
L 263.413609 65.476551 
L 263.630769 65.476551 
L 263.630769 64.814964 
L 263.630769 64.814964 
L 263.847929 64.814964 
L 263.847929 64.373907 
L 263.847929 64.373907 
L 264.06509 64.373907 
L 264.06509 63.93285 
L 264.06509 63.93285 
L 264.49941 63.93285 
L 264.49941 63.491792 
L 264.49941 63.491792 
L 264.71657 63.491792 
L 264.71657 63.271263 
L 265.585211 63.271263 
L 265.585211 63.050735 
L 265.802372 63.050735 
L 265.802372 62.609677 
L 265.802372 62.609677 
L 266.019532 62.609677 
L 266.019532 62.389149 
L 266.236692 62.389149 
L 266.236692 61.948091 
L 266.236692 61.948091 
L 266.453852 61.948091 
L 266.453852 61.286505 
L 266.453852 61.286505 
L 266.671012 61.286505 
L 266.671012 61.065976 
L 266.888173 61.065976 
L 266.888173 60.845448 
L 267.322493 60.845448 
L 267.322493 60.624919 
L 267.973974 60.624919 
L 267.973974 60.40439 
L 268.191134 60.40439 
L 268.191134 60.183861 
L 268.408294 60.183861 
L 268.408294 59.963333 
L 268.625455 59.963333 
L 268.625455 59.522275 
L 268.625455 59.522275 
L 268.842615 59.522275 
L 268.842615 59.081218 
L 268.842615 59.081218 
L 269.059775 59.081218 
L 269.059775 58.860689 
L 269.276935 58.860689 
L 269.276935 58.64016 
L 269.494095 58.64016 
L 269.494095 58.419632 
L 269.711256 58.419632 
L 269.711256 58.199103 
L 270.145576 58.199103 
L 270.145576 57.978574 
L 270.362736 57.978574 
L 270.362736 57.758046 
L 270.797057 57.758046 
L 270.797057 57.537517 
L 271.448538 57.537517 
L 271.448538 57.316988 
L 273.185819 57.316988 
L 273.185819 57.096459 
L 274.271621 57.096459 
L 274.271621 56.875931 
L 275.357422 56.875931 
L 275.357422 56.655402 
L 275.574582 56.655402 
L 275.574582 56.434873 
L 276.008902 56.434873 
L 276.008902 56.214345 
L 276.443223 56.214345 
L 276.443223 55.993816 
L 277.094704 55.993816 
L 277.094704 55.773287 
L 277.746184 55.773287 
L 277.746184 55.552758 
L 279.917787 55.552758 
L 279.917787 55.33223 
L 289.907157 55.33223 
L 289.907157 55.111701 
L 298.376406 55.111701 
L 298.376406 54.891172 
L 315.314904 54.891172 
L 315.314904 54.670644 
L 317.703667 54.670644 
L 317.703667 54.450115 
L 324.218474 54.450115 
L 324.218474 54.229586 
L 342.025613 54.229586 
L 342.025613 54.009057 
L 344.197215 54.009057 
L 344.197215 53.788529 
L 398.487273 53.788529 
L 398.487273 53.568 
L 398.487273 53.568 
" clip-path="url(#p6bd8d24bbd)" style="fill: none; stroke: #1f77b4; stroke-width: 1.5; stroke-linecap: square"/>
   </g>
   <g id="patch_3">
    <path d="M 57.6 307.584 
L 57.6 41.472 
" style="fill: none; stroke: #000000; stroke-width: 0.8; stroke-linejoin: miter; stroke-linecap: square"/>
   </g>
   <g id="patch_4">
    <path d="M 414.72 307.584 
L 414.72 41.472 
" style="fill: none; stroke: #000000; stroke-width: 0.8; stroke-linejoin: miter; stroke-linecap: square"/>
   </g>
   <g id="patch_5">
    <path d="M 57.6 307.584 
L 414.72 307.584 
" style="fill: none; stroke: #000000; stroke-width: 0.8; stroke-linejoin: miter; stroke-linecap: square"/>
   </g>
   <g id="patch_6">
    <path d="M 57.6 41.472 
L 414.72 41.472 
" style="fill: none; stroke: #000000; stroke-width: 0.8; stroke-linejoin: miter; stroke-linecap: square"/>
   </g>
   <g id="text_15">
    <!-- Execution time between S6 S7 (xx1xx2xx0yyy45xx0yyy45xx0yyy3xx1xx0yyy45xx0yyy45xx0yyy45) -->
    <g transform="translate(-66.447188 35.472) scale(0.12 -0.12)">
     <defs>
      <path id="DejaVuSans-45" d="M 628 4666 
L 3578 4666 
L 3578 4134 
L 1259 4134 
L 1259 2753 
L 3481 2753 
L 3481 2222 
L 1259 2222 
L 1259 531 
L 3634 531 
L 3634 0 
L 628 0 
L 628 4666 
z
" transform="scale(0.015625)"/>
      <path id="DejaVuSans-78" d="M 3513 3500 
L 2247 1797 
L 3578 0 
L 2900 0 
L 1881 1375 
L 863 0 
L 184 0 
L 1544 1831 
L 300 3500 
L 978 3500 
L 1906 2253 
L 2834 3500 
L 3513 3500 
z
" transform="scale(0.015625)"/>
      <path id="DejaVuSans-65" d="M 3597 1894 
L 3597 1613 
L 953 1613 
Q 991 1019 1311 708 
Q 1631 397 2203 397 
Q 2534 397 2845 478 
Q 3156 559 3463 722 
L 3463 178 
Q 3153 47 2828 -22 
Q 2503 -91 2169 -91 
Q 1331 -91 842 396 
Q 353 884 353 1716 
Q 353 2575 817 3079 
Q 1281 3584 2069 3584 
Q 2775 3584 3186 3129 
Q 3597 2675 3597 1894 
z
M 3022 2063 
Q 3016 2534 2758 2815 
Q 2500 3097 2075 3097 
Q 1594 3097 1305 2825 
Q 1016 2553 972 2059 
L 3022 2063 
z
" transform="scale(0.015625)"/>
      <path id="DejaVuSans-63" d="M 3122 3366 
L 3122 2828 
Q 2878 2963 2633 3030 
Q 2388 3097 2138 3097 
Q 1578 3097 1268 2742 
Q 959 2388 959 1747 
Q 959 1106 1268 751 
Q 1578 397 2138 397 
Q 2388 397 2633 464 
Q 2878 531 3122 666 
L 3122 134 
Q 2881 22 2623 -34 
Q 2366 -91 2075 -91 
Q 1284 -91 818 406 
Q 353 903 353 1747 
Q 353 2603 823 3093 
Q 1294 3584 2113 3584 
Q 2378 3584 2631 3529 
Q 2884 3475 3122 3366 
z
" transform="scale(0.015625)"/>
      <path id="DejaVuSans-75" d="M 544 1381 
L 544 3500 
L 1119 3500 
L 1119 1403 
Q 1119 906 1312 657 
Q 1506 409 1894 409 
Q 2359 409 2629 706 
Q 2900 1003 2900 1516 
L 2900 3500 
L 3475 3500 
L 3475 0 
L 2900 0 
L 2900 538 
Q 2691 219 2414 64 
Q 2138 -91 1772 -91 
Q 1169 -91 856 284 
Q 544 659 544 1381 
z
M 1991 3584 
L 1991 3584 
z
" transform="scale(0.015625)"/>
      <path id="DejaVuSans-74" d="M 1172 4494 
L 1172 3500 
L 2356 3500 
L 2356 3053 
L 1172 3053 
L 1172 1153 
Q 1172 725 1289 603 
Q 1406 481 1766 481 
L 2356 481 
L 2356 0 
L 1766 0 
Q 1100 0 847 248 
Q 594 497 594 1153 
L 594 3053 
L 172 3053 
L 172 3500 
L 594 3500 
L 594 4494 
L 1172 4494 
z
" transform="scale(0.015625)"/>
      <path id="DejaVuSans-69" d="M 603 3500 
L 1178 3500 
L 1178 0 
L 603 0 
L 603 3500 
z
M 603 4863 
L 1178 4863 
L 1178 4134 
L 603 4134 
L 603 4863 
z
" transform="scale(0.015625)"/>
      <path id="DejaVuSans-6f" d="M 1959 3097 
Q 1497 3097 1228 2736 
Q 959 2375 959 1747 
Q 959 1119 1226 758 
Q 1494 397 1959 397 
Q 2419 397 2687 759 
Q 2956 1122 2956 1747 
Q 2956 2369 2687 2733 
Q 2419 3097 1959 3097 
z
M 1959 3584 
Q 2709 3584 3137 3096 
Q 3566 2609 3566 1747 
Q 3566 888 3137 398 
Q 2709 -91 1959 -91 
Q 1206 -91 779 398 
Q 353 888 353 1747 
Q 353 2609 779 3096 
Q 1206 3584 1959 3584 
z
" transform="scale(0.015625)"/>
      <path id="DejaVuSans-6e" d="M 3513 2113 
L 3513 0 
L 2938 0 
L 2938 2094 
Q 2938 2591 2744 2837 
Q 2550 3084 2163 3084 
Q 1697 3084 1428 2787 
Q 1159 2491 1159 1978 
L 1159 0 
L 581 0 
L 581 3500 
L 1159 3500 
L 1159 2956 
Q 1366 3272 1645 3428 
Q 1925 3584 2291 3584 
Q 2894 3584 3203 3211 
Q 3513 2838 3513 2113 
z
" transform="scale(0.015625)"/>
      <path id="DejaVuSans-20" transform="scale(0.015625)"/>
      <path id="DejaVuSans-6d" d="M 3328 2828 
Q 3544 3216 3844 3400 
Q 4144 3584 4550 3584 
Q 5097 3584 5394 3201 
Q 5691 2819 5691 2113 
L 5691 0 
L 5113 0 
L 5113 2094 
Q 5113 2597 4934 2840 
Q 4756 3084 4391 3084 
Q 3944 3084 3684 2787 
Q 3425 2491 3425 1978 
L 3425 0 
L 2847 0 
L 2847 2094 
Q 2847 2600 2669 2842 
Q 2491 3084 2119 3084 
Q 1678 3084 1418 2786 
Q 1159 2488 1159 1978 
L 1159 0 
L 581 0 
L 581 3500 
L 1159 3500 
L 1159 2956 
Q 1356 3278 1631 3431 
Q 1906 3584 2284 3584 
Q 2666 3584 2933 3390 
Q 3200 3197 3328 2828 
z
" transform="scale(0.015625)"/>
      <path id="DejaVuSans-62" d="M 3116 1747 
Q 3116 2381 2855 2742 
Q 2594 3103 2138 3103 
Q 1681 3103 1420 2742 
Q 1159 2381 1159 1747 
Q 1159 1113 1420 752 
Q 1681 391 2138 391 
Q 2594 391 2855 752 
Q 3116 1113 3116 1747 
z
M 1159 2969 
Q 1341 3281 1617 3432 
Q 1894 3584 2278 3584 
Q 2916 3584 3314 3078 
Q 3713 2572 3713 1747 
Q 3713 922 3314 415 
Q 2916 -91 2278 -91 
Q 1894 -91 1617 61 
Q 1341 213 1159 525 
L 1159 0 
L 581 0 
L 581 4863 
L 1159 4863 
L 1159 2969 
z
" transform="scale(0.015625)"/>
      <path id="DejaVuSans-77" d="M 269 3500 
L 844 3500 
L 1563 769 
L 2278 3500 
L 2956 3500 
L 3675 769 
L 4391 3500 
L 4966 3500 
L 4050 0 
L 3372 0 
L 2619 2869 
L 1863 0 
L 1184 0 
L 269 3500 
z
" transform="scale(0.015625)"/>
      <path id="DejaVuSans-53" d="M 3425 4513 
L 3425 3897 
Q 3066 4069 2747 4153 
Q 2428 4238 2131 4238 
Q 1616 4238 1336 4038 
Q 1056 3838 1056 3469 
Q 1056 3159 1242 3001 
Q 1428 2844 1947 2747 
L 2328 2669 
Q 3034 2534 3370 2195 
Q 3706 1856 3706 1288 
Q 3706 609 3251 259 
Q 2797 -91 1919 -91 
Q 1588 -91 1214 -16 
Q 841 59 441 206 
L 441 856 
Q 825 641 1194 531 
Q 1563 422 1919 422 
Q 2459 422 2753 634 
Q 3047 847 3047 1241 
Q 3047 1584 2836 1778 
Q 2625 1972 2144 2069 
L 1759 2144 
Q 1053 2284 737 2584 
Q 422 2884 422 3419 
Q 422 4038 858 4394 
Q 1294 4750 2059 4750 
Q 2388 4750 2728 4690 
Q 3069 4631 3425 4513 
z
" transform="scale(0.015625)"/>
      <path id="DejaVuSans-37" d="M 525 4666 
L 3525 4666 
L 3525 4397 
L 1831 0 
L 1172 0 
L 2766 4134 
L 525 4134 
L 525 4666 
z
" transform="scale(0.015625)"/>
      <path id="DejaVuSans-28" d="M 1984 4856 
Q 1566 4138 1362 3434 
Q 1159 2731 1159 2009 
Q 1159 1288 1364 580 
Q 1569 -128 1984 -844 
L 1484 -844 
Q 1016 -109 783 600 
Q 550 1309 550 2009 
Q 550 2706 781 3412 
Q 1013 4119 1484 4856 
L 1984 4856 
z
" transform="scale(0.015625)"/>
      <path id="DejaVuSans-79" d="M 2059 -325 
Q 1816 -950 1584 -1140 
Q 1353 -1331 966 -1331 
L 506 -1331 
L 506 -850 
L 844 -850 
Q 1081 -850 1212 -737 
Q 1344 -625 1503 -206 
L 1606 56 
L 191 3500 
L 800 3500 
L 1894 763 
L 2988 3500 
L 3597 3500 
L 2059 -325 
z
" transform="scale(0.015625)"/>
      <path id="DejaVuSans-35" d="M 691 4666 
L 3169 4666 
L 3169 4134 
L 1269 4134 
L 1269 2991 
Q 1406 3038 1543 3061 
Q 1681 3084 1819 3084 
Q 2600 3084 3056 2656 
Q 3513 2228 3513 1497 
Q 3513 744 3044 326 
Q 2575 -91 1722 -91 
Q 1428 -91 1123 -41 
Q 819 9 494 109 
L 494 744 
Q 775 591 1075 516 
Q 1375 441 1709 441 
Q 2250 441 2565 725 
Q 2881 1009 2881 1497 
Q 2881 1984 2565 2268 
Q 2250 2553 1709 2553 
Q 1456 2553 1204 2497 
Q 953 2441 691 2322 
L 691 4666 
z
" transform="scale(0.015625)"/>
      <path id="DejaVuSans-33" d="M 2597 2516 
Q 3050 2419 3304 2112 
Q 3559 1806 3559 1356 
Q 3559 666 3084 287 
Q 2609 -91 1734 -91 
Q 1441 -91 1130 -33 
Q 819 25 488 141 
L 488 750 
Q 750 597 1062 519 
Q 1375 441 1716 441 
Q 2309 441 2620 675 
Q 2931 909 2931 1356 
Q 2931 1769 2642 2001 
Q 2353 2234 1838 2234 
L 1294 2234 
L 1294 2753 
L 1863 2753 
Q 2328 2753 2575 2939 
Q 2822 3125 2822 3475 
Q 2822 3834 2567 4026 
Q 2313 4219 1838 4219 
Q 1578 4219 1281 4162 
Q 984 4106 628 3988 
L 628 4550 
Q 988 4650 1302 4700 
Q 1616 4750 1894 4750 
Q 2613 4750 3031 4423 
Q 3450 4097 3450 3541 
Q 3450 3153 3228 2886 
Q 3006 2619 2597 2516 
z
" transform="scale(0.015625)"/>
      <path id="DejaVuSans-29" d="M 513 4856 
L 1013 4856 
Q 1481 4119 1714 3412 
Q 1947 2706 1947 2009 
Q 1947 1309 1714 600 
Q 1481 -109 1013 -844 
L 513 -844 
Q 928 -128 1133 580 
Q 1338 1288 1338 2009 
Q 1338 2731 1133 3434 
Q 928 4138 513 4856 
z
" transform="scale(0.015625)"/>
     </defs>
     <use xlink:href="#DejaVuSans-45"/>
     <use xlink:href="#DejaVuSans-78" x="63.183594"/>
     <use xlink:href="#DejaVuSans-65" x="119.238281"/>
     <use xlink:href="#DejaVuSans-63" x="180.761719"/>
     <use xlink:href="#DejaVuSans-75" x="235.742188"/>
     <use xlink:href="#DejaVuSans-74" x="299.121094"/>
     <use xlink:href="#DejaVuSans-69" x="338.330078"/>
     <use xlink:href="#DejaVuSans-6f" x="366.113281"/>
     <use xlink:href="#DejaVuSans-6e" x="427.294922"/>
     <use xlink:href="#DejaVuSans-20" x="490.673828"/>
     <use xlink:href="#DejaVuSans-74" x="522.460938"/>
     <use xlink:href="#DejaVuSans-69" x="561.669922"/>
     <use xlink:href="#DejaVuSans-6d" x="589.453125"/>
     <use xlink:href="#DejaVuSans-65" x="686.865234"/>
     <use xlink:href="#DejaVuSans-20" x="748.388672"/>
     <use xlink:href="#DejaVuSans-62" x="780.175781"/>
     <use xlink:href="#DejaVuSans-65" x="843.652344"/>
     <use xlink:href="#DejaVuSans-74" x="905.175781"/>
     <use xlink:href="#DejaVuSans-77" x="944.384766"/>
     <use xlink:href="#DejaVuSans-65" x="1026.171875"/>
     <use xlink:href="#DejaVuSans-65" x="1087.695312"/>
     <use xlink:href="#DejaVuSans-6e" x="1149.21875"/>
     <use xlink:href="#DejaVuSans-20" x="1212.597656"/>
     <use xlink:href="#DejaVuSans-53" x="1244.384766"/>
     <use xlink:href="#DejaVuSans-36" x="1307.861328"/>
     <use xlink:href="#DejaVuSans-20" x="1371.484375"/>
     <use xlink:href="#DejaVuSans-53" x="1403.271484"/>
     <use xlink:href="#DejaVuSans-37" x="1466.748047"/>
     <use xlink:href="#DejaVuSans-20" x="1530.371094"/>
     <use xlink:href="#DejaVuSans-28" x="1562.158203"/>
     <use xlink:href="#DejaVuSans-78" x="1601.171875"/>
     <use xlink:href="#DejaVuSans-78" x="1660.351562"/>
     <use xlink:href="#DejaVuSans-31" x="1719.53125"/>
     <use xlink:href="#DejaVuSans-78" x="1783.154297"/>
     <use xlink:href="#DejaVuSans-78" x="1842.333984"/>
     <use xlink:href="#DejaVuSans-32" x="1901.513672"/>
     <use xlink:href="#DejaVuSans-78" x="1965.136719"/>
     <use xlink:href="#DejaVuSans-78" x="2024.316406"/>
     <use xlink:href="#DejaVuSans-30" x="2083.496094"/>
     <use xlink:href="#DejaVuSans-79" x="2147.119141"/>
     <use xlink:href="#DejaVuSans-79" x="2206.298828"/>
     <use xlink:href="#DejaVuSans-79" x="2265.478516"/>
     <use xlink:href="#DejaVuSans-34" x="2324.658203"/>
     <use xlink:href="#DejaVuSans-35" x="2388.28125"/>
     <use xlink:href="#DejaVuSans-78" x="2451.904297"/>
     <use xlink:href="#DejaVuSans-78" x="2511.083984"/>
     <use xlink:href="#DejaVuSans-30" x="2570.263672"/>
     <use xlink:href="#DejaVuSans-79" x="2633.886719"/>
     <use xlink:href="#DejaVuSans-79" x="2693.066406"/>
     <use xlink:href="#DejaVuSans-79" x="2752.246094"/>
     <use xlink:href="#DejaVuSans-34" x="2811.425781"/>
     <use xlink:href="#DejaVuSans-35" x="2875.048828"/>
     <use xlink:href="#DejaVuSans-78" x="2938.671875"/>
     <use xlink:href="#DejaVuSans-78" x="2997.851562"/>
     <use xlink:href="#DejaVuSans-30" x="3057.03125"/>
     <use xlink:href="#DejaVuSans-79" x="3120.654297"/>
     <use xlink:href="#DejaVuSans-79" x="3179.833984"/>
     <use xlink:href="#DejaVuSans-79" x="3239.013672"/>
     <use xlink:href="#DejaVuSans-33" x="3298.193359"/>
     <use xlink:href="#DejaVuSans-78" x="3361.816406"/>
     <use xlink:href="#DejaVuSans-78" x="3420.996094"/>
     <use xlink:href="#DejaVuSans-31" x="3480.175781"/>
     <use xlink:href="#DejaVuSans-78" x="3543.798828"/>
     <use xlink:href="#DejaVuSans-78" x="3602.978516"/>
     <use xlink:href="#DejaVuSans-30" x="3662.158203"/>
     <use xlink:href="#DejaVuSans-79" x="3725.78125"/>
     <use xlink:href="#DejaVuSans-79" x="3784.960938"/>
     <use xlink:href="#DejaVuSans-79" x="3844.140625"/>
     <use xlink:href="#DejaVuSans-34" x="3903.320312"/>
     <use xlink:href="#DejaVuSans-35" x="3966.943359"/>
     <use xlink:href="#DejaVuSans-78" x="4030.566406"/>
     <use xlink:href="#DejaVuSans-78" x="4089.746094"/>
     <use xlink:href="#DejaVuSans-30" x="4148.925781"/>
     <use xlink:href="#DejaVuSans-79" x="4212.548828"/>
     <use xlink:href="#DejaVuSans-79" x="4271.728516"/>
     <use xlink:href="#DejaVuSans-79" x="4330.908203"/>
     <use xlink:href="#DejaVuSans-34" x="4390.087891"/>
     <use xlink:href="#DejaVuSans-35" x="4453.710938"/>
     <use xlink:href="#DejaVuSans-78" x="4517.333984"/>
     <use xlink:href="#DejaVuSans-78" x="4576.513672"/>
     <use xlink:href="#DejaVuSans-30" x="4635.693359"/>
     <use xlink:href="#DejaVuSans-79" x="4699.316406"/>
     <use xlink:href="#DejaVuSans-79" x="4758.496094"/>
     <use xlink:href="#DejaVuSans-79" x="4817.675781"/>
     <use xlink:href="#DejaVuSans-34" x="4876.855469"/>
     <use xlink:href="#DejaVuSans-35" x="4940.478516"/>
     <use xlink:href="#DejaVuSans-29" x="5004.101562"/>
    </g>
   </g>
   <g id="legend_1">
    <g id="patch_7">
     <path d="M 88.712813 304.584 
L 410.52 304.584 
Q 411.72 304.584 411.72 303.384 
L 411.72 295.177125 
Q 411.72 293.977125 410.52 293.977125 
L 88.712813 293.977125 
Q 87.512813 293.977125 87.512813 295.177125 
L 87.512813 303.384 
Q 87.512813 304.584 88.712813 304.584 
z
" style="fill: #ffffff; opacity: 0.8; stroke: #cccccc; stroke-linejoin: miter"/>
    </g>
    <g id="line2d_16">
     <path d="M 89.912813 298.836187 
L 95.912813 298.836187 
L 101.912813 298.836187 
" style="fill: none; stroke: #1f77b4; stroke-width: 1.5; stroke-linecap: square"/>
    </g>
    <g id="text_16">
     <!-- Execution time between S6 S7 (xx1xx2xx0yyy45xx0yyy45xx0yyy3xx1xx0yyy45xx0yyy45xx0yyy45) -->
     <g transform="translate(106.712813 300.936187) scale(0.06 -0.06)">
      <use xlink:href="#DejaVuSans-45"/>
      <use xlink:href="#DejaVuSans-78" x="63.183594"/>
      <use xlink:href="#DejaVuSans-65" x="119.238281"/>
      <use xlink:href="#DejaVuSans-63" x="180.761719"/>
      <use xlink:href="#DejaVuSans-75" x="235.742188"/>
      <use xlink:href="#DejaVuSans-74" x="299.121094"/>
      <use xlink:href="#DejaVuSans-69" x="338.330078"/>
      <use xlink:href="#DejaVuSans-6f" x="366.113281"/>
      <use xlink:href="#DejaVuSans-6e" x="427.294922"/>
      <use xlink:href="#DejaVuSans-20" x="490.673828"/>
      <use xlink:href="#DejaVuSans-74" x="522.460938"/>
      <use xlink:href="#DejaVuSans-69" x="561.669922"/>
      <use xlink:href="#DejaVuSans-6d" x="589.453125"/>
      <use xlink:href="#DejaVuSans-65" x="686.865234"/>
      <use xlink:href="#DejaVuSans-20" x="748.388672"/>
      <use xlink:href="#DejaVuSans-62" x="780.175781"/>
      <use xlink:href="#DejaVuSans-65" x="843.652344"/>
      <use xlink:href="#DejaVuSans-74" x="905.175781"/>
      <use xlink:href="#DejaVuSans-77" x="944.384766"/>
      <use xlink:href="#DejaVuSans-65" x="1026.171875"/>
      <use xlink:href="#DejaVuSans-65" x="1087.695312"/>
      <use xlink:href="#DejaVuSans-6e" x="1149.21875"/>
      <use xlink:href="#DejaVuSans-20" x="1212.597656"/>
      <use xlink:href="#DejaVuSans-53" x="1244.384766"/>
      <use xlink:href="#DejaVuSans-36" x="1307.861328"/>
      <use xlink:href="#DejaVuSans-20" x="1371.484375"/>
      <use xlink:href="#DejaVuSans-53" x="1403.271484"/>
      <use xlink:href="#DejaVuSans-37" x="1466.748047"/>
      <use xlink:href="#DejaVuSans-20" x="1530.371094"/>
      <use xlink:href="#DejaVuSans-28" x="1562.158203"/>
      <use xlink:href="#DejaVuSans-78" x="1601.171875"/>
      <use xlink:href="#DejaVuSans-78" x="1660.351562"/>
      <use xlink:href="#DejaVuSans-31" x="1719.53125"/>
      <use xlink:href="#DejaVuSans-78" x="1783.154297"/>
      <use xlink:href="#DejaVuSans-78" x="1842.333984"/>
      <use xlink:href="#DejaVuSans-32" x="1901.513672"/>
      <use xlink:href="#DejaVuSans-78" x="1965.136719"/>
      <use xlink:href="#DejaVuSans-78" x="2024.316406"/>
      <use xlink:href="#DejaVuSans-30" x="2083.496094"/>
      <use xlink:href="#DejaVuSans-79" x="2147.119141"/>
      <use xlink:href="#DejaVuSans-79" x="2206.298828"/>
      <use xlink:href="#DejaVuSans-79" x="2265.478516"/>
      <use xlink:href="#DejaVuSans-34" x="2324.658203"/>
      <use xlink:href="#DejaVuSans-35" x="2388.28125"/>
      <use xlink:href="#DejaVuSans-78" x="2451.904297"/>
      <use xlink:href="#DejaVuSans-78" x="2511.083984"/>
      <use xlink:href="#DejaVuSans-30" x="2570.263672"/>
      <use xlink:href="#DejaVuSans-79" x="2633.886719"/>
      <use xlink:href="#DejaVuSans-79" x="2693.066406"/>
      <use xlink:href="#DejaVuSans-79" x="2752.246094"/>
      <use xlink:href="#DejaVuSans-34" x="2811.425781"/>
      <use xlink:href="#DejaVuSans-35" x="2875.048828"/>
      <use xlink:href="#DejaVuSans-78" x="2938.671875"/>
      <use xlink:href="#DejaVuSans-78" x="2997.851562"/>
      <use xlink:href="#DejaVuSans-30" x="3057.03125"/>
      <use xlink:href="#DejaVuSans-79" x="3120.654297"/>
      <use xlink:href="#DejaVuSans-79" x="3179.833984"/>
      <use xlink:href="#DejaVuSans-79" x="3239.013672"/>
      <use xlink:href="#DejaVuSans-33" x="3298.193359"/>
      <use xlink:href="#DejaVuSans-78" x="3361.816406"/>
      <use xlink:href="#DejaVuSans-78" x="3420.996094"/>
      <use xlink:href="#DejaVuSans-31" x="3480.175781"/>
      <use xlink:href="#DejaVuSans-78" x="3543.798828"/>
      <use xlink:href="#DejaVuSans-78" x="3602.978516"/>
      <use xlink:href="#DejaVuSans-30" x="3662.158203"/>
      <use xlink:href="#DejaVuSans-79" x="3725.78125"/>
      <use xlink:href="#DejaVuSans-79" x="3784.960938"/>
      <use xlink:href="#DejaVuSans-79" x="3844.140625"/>
      <use xlink:href="#DejaVuSans-34" x="3903.320312"/>
      <use xlink:href="#DejaVuSans-35" x="3966.943359"/>
      <use xlink:href="#DejaVuSans-78" x="4030.566406"/>
      <use xlink:href="#DejaVuSans-78" x="4089.746094"/>
      <use xlink:href="#DejaVuSans-30" x="4148.925781"/>
      <use xlink:href="#DejaVuSans-79" x="4212.548828"/>
      <use xlink:href="#DejaVuSans-79" x="4271.728516"/>
      <use xlink:href="#DejaVuSans-79" x="4330.908203"/>
      <use xlink:href="#DejaVuSans-34" x="4390.087891"/>
      <use xlink:href="#DejaVuSans-35" x="4453.710938"/>
      <use xlink:href="#DejaVuSans-78" x="4517.333984"/>
      <use xlink:href="#DejaVuSans-78" x="4576.513672"/>
      <use xlink:href="#DejaVuSans-30" x="4635.693359"/>
      <use xlink:href="#DejaVuSans-79" x="4699.316406"/>
      <use xlink:href="#DejaVuSans-79" x="4758.496094"/>
      <use xlink:href="#DejaVuSans-79" x="4817.675781"/>
      <use xlink:href="#DejaVuSans-34" x="4876.855469"/>
      <use xlink:href="#DejaVuSans-35" x="4940.478516"/>
      <use xlink:href="#DejaVuSans-29" x="5004.101562"/>
     </g>
    </g>
   </g>
  </g>
 </g>
 <defs>
  <clipPath id="p6bd8d24bbd">
   <rect x="57.6" y="41.472" width="357.12" height="266.112"/>
  </clipPath>
 </defs>
</svg>
