<?xml version="1.0" encoding="utf-8" standalone="no"?>
<!DOCTYPE svg PUBLIC "-//W3C//DTD SVG 1.1//EN"
  "http://www.w3.org/Graphics/SVG/1.1/DTD/svg11.dtd">
<svg xmlns:xlink="http://www.w3.org/1999/xlink" width="460.8pt" height="345.6pt" viewBox="0 0 460.8 345.6" xmlns="http://www.w3.org/2000/svg" version="1.1">
 <metadata>
  <rdf:RDF xmlns:dc="http://purl.org/dc/elements/1.1/" xmlns:cc="http://creativecommons.org/ns#" xmlns:rdf="http://www.w3.org/1999/02/22-rdf-syntax-ns#">
   <cc:Work>
    <dc:type rdf:resource="http://purl.org/dc/dcmitype/StillImage"/>
    <dc:date>2024-03-08T12:51:32.527303</dc:date>
    <dc:format>image/svg+xml</dc:format>
    <dc:creator>
     <cc:Agent>
      <dc:title>Matplotlib v3.8.2, https://matplotlib.org/</dc:title>
     </cc:Agent>
    </dc:creator>
   </cc:Work>
  </rdf:RDF>
 </metadata>
 <defs>
  <style type="text/css">*{stroke-linejoin: round; stroke-linecap: butt}</style>
 </defs>
 <g id="figure_1">
  <g id="patch_1">
   <path d="M 0 345.6 
L 460.8 345.6 
L 460.8 0 
L 0 0 
z
" style="fill: #ffffff"/>
  </g>
  <g id="axes_1">
   <g id="patch_2">
    <path d="M 57.6 307.584 
L 414.72 307.584 
L 414.72 41.472 
L 57.6 41.472 
z
" style="fill: #ffffff"/>
   </g>
   <g id="matplotlib.axis_1">
    <g id="xtick_1">
     <g id="line2d_1">
      <defs>
       <path id="med9500f060" d="M 0 0 
L 0 3.5 
" style="stroke: #000000; stroke-width: 0.8"/>
      </defs>
      <g>
       <use xlink:href="#med9500f060" x="73.832727" y="307.584" style="stroke: #000000; stroke-width: 0.8"/>
      </g>
     </g>
     <g id="text_1">
      <!-- 0 -->
      <g transform="translate(70.651477 322.182437) scale(0.1 -0.1)">
       <defs>
        <path id="DejaVuSans-30" d="M 2034 4250 
Q 1547 4250 1301 3770 
Q 1056 3291 1056 2328 
Q 1056 1369 1301 889 
Q 1547 409 2034 409 
Q 2525 409 2770 889 
Q 3016 1369 3016 2328 
Q 3016 3291 2770 3770 
Q 2525 4250 2034 4250 
z
M 2034 4750 
Q 2819 4750 3233 4129 
Q 3647 3509 3647 2328 
Q 3647 1150 3233 529 
Q 2819 -91 2034 -91 
Q 1250 -91 836 529 
Q 422 1150 422 2328 
Q 422 3509 836 4129 
Q 1250 4750 2034 4750 
z
" transform="scale(0.015625)"/>
       </defs>
       <use xlink:href="#DejaVuSans-30"/>
      </g>
     </g>
    </g>
    <g id="xtick_2">
     <g id="line2d_2">
      <g>
       <use xlink:href="#med9500f060" x="121.929697" y="307.584" style="stroke: #000000; stroke-width: 0.8"/>
      </g>
     </g>
     <g id="text_2">
      <!-- 20000 -->
      <g transform="translate(106.023447 322.182437) scale(0.1 -0.1)">
       <defs>
        <path id="DejaVuSans-32" d="M 1228 531 
L 3431 531 
L 3431 0 
L 469 0 
L 469 531 
Q 828 903 1448 1529 
Q 2069 2156 2228 2338 
Q 2531 2678 2651 2914 
Q 2772 3150 2772 3378 
Q 2772 3750 2511 3984 
Q 2250 4219 1831 4219 
Q 1534 4219 1204 4116 
Q 875 4013 500 3803 
L 500 4441 
Q 881 4594 1212 4672 
Q 1544 4750 1819 4750 
Q 2544 4750 2975 4387 
Q 3406 4025 3406 3419 
Q 3406 3131 3298 2873 
Q 3191 2616 2906 2266 
Q 2828 2175 2409 1742 
Q 1991 1309 1228 531 
z
" transform="scale(0.015625)"/>
       </defs>
       <use xlink:href="#DejaVuSans-32"/>
       <use xlink:href="#DejaVuSans-30" x="63.623047"/>
       <use xlink:href="#DejaVuSans-30" x="127.246094"/>
       <use xlink:href="#DejaVuSans-30" x="190.869141"/>
       <use xlink:href="#DejaVuSans-30" x="254.492188"/>
      </g>
     </g>
    </g>
    <g id="xtick_3">
     <g id="line2d_3">
      <g>
       <use xlink:href="#med9500f060" x="170.026667" y="307.584" style="stroke: #000000; stroke-width: 0.8"/>
      </g>
     </g>
     <g id="text_3">
      <!-- 40000 -->
      <g transform="translate(154.120417 322.182437) scale(0.1 -0.1)">
       <defs>
        <path id="DejaVuSans-34" d="M 2419 4116 
L 825 1625 
L 2419 1625 
L 2419 4116 
z
M 2253 4666 
L 3047 4666 
L 3047 1625 
L 3713 1625 
L 3713 1100 
L 3047 1100 
L 3047 0 
L 2419 0 
L 2419 1100 
L 313 1100 
L 313 1709 
L 2253 4666 
z
" transform="scale(0.015625)"/>
       </defs>
       <use xlink:href="#DejaVuSans-34"/>
       <use xlink:href="#DejaVuSans-30" x="63.623047"/>
       <use xlink:href="#DejaVuSans-30" x="127.246094"/>
       <use xlink:href="#DejaVuSans-30" x="190.869141"/>
       <use xlink:href="#DejaVuSans-30" x="254.492188"/>
      </g>
     </g>
    </g>
    <g id="xtick_4">
     <g id="line2d_4">
      <g>
       <use xlink:href="#med9500f060" x="218.123636" y="307.584" style="stroke: #000000; stroke-width: 0.8"/>
      </g>
     </g>
     <g id="text_4">
      <!-- 60000 -->
      <g transform="translate(202.217386 322.182437) scale(0.1 -0.1)">
       <defs>
        <path id="DejaVuSans-36" d="M 2113 2584 
Q 1688 2584 1439 2293 
Q 1191 2003 1191 1497 
Q 1191 994 1439 701 
Q 1688 409 2113 409 
Q 2538 409 2786 701 
Q 3034 994 3034 1497 
Q 3034 2003 2786 2293 
Q 2538 2584 2113 2584 
z
M 3366 4563 
L 3366 3988 
Q 3128 4100 2886 4159 
Q 2644 4219 2406 4219 
Q 1781 4219 1451 3797 
Q 1122 3375 1075 2522 
Q 1259 2794 1537 2939 
Q 1816 3084 2150 3084 
Q 2853 3084 3261 2657 
Q 3669 2231 3669 1497 
Q 3669 778 3244 343 
Q 2819 -91 2113 -91 
Q 1303 -91 875 529 
Q 447 1150 447 2328 
Q 447 3434 972 4092 
Q 1497 4750 2381 4750 
Q 2619 4750 2861 4703 
Q 3103 4656 3366 4563 
z
" transform="scale(0.015625)"/>
       </defs>
       <use xlink:href="#DejaVuSans-36"/>
       <use xlink:href="#DejaVuSans-30" x="63.623047"/>
       <use xlink:href="#DejaVuSans-30" x="127.246094"/>
       <use xlink:href="#DejaVuSans-30" x="190.869141"/>
       <use xlink:href="#DejaVuSans-30" x="254.492188"/>
      </g>
     </g>
    </g>
    <g id="xtick_5">
     <g id="line2d_5">
      <g>
       <use xlink:href="#med9500f060" x="266.220606" y="307.584" style="stroke: #000000; stroke-width: 0.8"/>
      </g>
     </g>
     <g id="text_5">
      <!-- 80000 -->
      <g transform="translate(250.314356 322.182437) scale(0.1 -0.1)">
       <defs>
        <path id="DejaVuSans-38" d="M 2034 2216 
Q 1584 2216 1326 1975 
Q 1069 1734 1069 1313 
Q 1069 891 1326 650 
Q 1584 409 2034 409 
Q 2484 409 2743 651 
Q 3003 894 3003 1313 
Q 3003 1734 2745 1975 
Q 2488 2216 2034 2216 
z
M 1403 2484 
Q 997 2584 770 2862 
Q 544 3141 544 3541 
Q 544 4100 942 4425 
Q 1341 4750 2034 4750 
Q 2731 4750 3128 4425 
Q 3525 4100 3525 3541 
Q 3525 3141 3298 2862 
Q 3072 2584 2669 2484 
Q 3125 2378 3379 2068 
Q 3634 1759 3634 1313 
Q 3634 634 3220 271 
Q 2806 -91 2034 -91 
Q 1263 -91 848 271 
Q 434 634 434 1313 
Q 434 1759 690 2068 
Q 947 2378 1403 2484 
z
M 1172 3481 
Q 1172 3119 1398 2916 
Q 1625 2713 2034 2713 
Q 2441 2713 2670 2916 
Q 2900 3119 2900 3481 
Q 2900 3844 2670 4047 
Q 2441 4250 2034 4250 
Q 1625 4250 1398 4047 
Q 1172 3844 1172 3481 
z
" transform="scale(0.015625)"/>
       </defs>
       <use xlink:href="#DejaVuSans-38"/>
       <use xlink:href="#DejaVuSans-30" x="63.623047"/>
       <use xlink:href="#DejaVuSans-30" x="127.246094"/>
       <use xlink:href="#DejaVuSans-30" x="190.869141"/>
       <use xlink:href="#DejaVuSans-30" x="254.492188"/>
      </g>
     </g>
    </g>
    <g id="xtick_6">
     <g id="line2d_6">
      <g>
       <use xlink:href="#med9500f060" x="314.317576" y="307.584" style="stroke: #000000; stroke-width: 0.8"/>
      </g>
     </g>
     <g id="text_6">
      <!-- 100000 -->
      <g transform="translate(295.230076 322.182437) scale(0.1 -0.1)">
       <defs>
        <path id="DejaVuSans-31" d="M 794 531 
L 1825 531 
L 1825 4091 
L 703 3866 
L 703 4441 
L 1819 4666 
L 2450 4666 
L 2450 531 
L 3481 531 
L 3481 0 
L 794 0 
L 794 531 
z
" transform="scale(0.015625)"/>
       </defs>
       <use xlink:href="#DejaVuSans-31"/>
       <use xlink:href="#DejaVuSans-30" x="63.623047"/>
       <use xlink:href="#DejaVuSans-30" x="127.246094"/>
       <use xlink:href="#DejaVuSans-30" x="190.869141"/>
       <use xlink:href="#DejaVuSans-30" x="254.492188"/>
       <use xlink:href="#DejaVuSans-30" x="318.115234"/>
      </g>
     </g>
    </g>
    <g id="xtick_7">
     <g id="line2d_7">
      <g>
       <use xlink:href="#med9500f060" x="362.414545" y="307.584" style="stroke: #000000; stroke-width: 0.8"/>
      </g>
     </g>
     <g id="text_7">
      <!-- 120000 -->
      <g transform="translate(343.327045 322.182437) scale(0.1 -0.1)">
       <use xlink:href="#DejaVuSans-31"/>
       <use xlink:href="#DejaVuSans-32" x="63.623047"/>
       <use xlink:href="#DejaVuSans-30" x="127.246094"/>
       <use xlink:href="#DejaVuSans-30" x="190.869141"/>
       <use xlink:href="#DejaVuSans-30" x="254.492188"/>
       <use xlink:href="#DejaVuSans-30" x="318.115234"/>
      </g>
     </g>
    </g>
    <g id="xtick_8">
     <g id="line2d_8">
      <g>
       <use xlink:href="#med9500f060" x="410.511515" y="307.584" style="stroke: #000000; stroke-width: 0.8"/>
      </g>
     </g>
     <g id="text_8">
      <!-- 140000 -->
      <g transform="translate(391.424015 322.182437) scale(0.1 -0.1)">
       <use xlink:href="#DejaVuSans-31"/>
       <use xlink:href="#DejaVuSans-34" x="63.623047"/>
       <use xlink:href="#DejaVuSans-30" x="127.246094"/>
       <use xlink:href="#DejaVuSans-30" x="190.869141"/>
       <use xlink:href="#DejaVuSans-30" x="254.492188"/>
       <use xlink:href="#DejaVuSans-30" x="318.115234"/>
      </g>
     </g>
    </g>
   </g>
   <g id="matplotlib.axis_2">
    <g id="ytick_1">
     <g id="line2d_9">
      <defs>
       <path id="m232bd61034" d="M 0 0 
L -3.5 0 
" style="stroke: #000000; stroke-width: 0.8"/>
      </defs>
      <g>
       <use xlink:href="#m232bd61034" x="57.6" y="295.488" style="stroke: #000000; stroke-width: 0.8"/>
      </g>
     </g>
     <g id="text_9">
      <!-- 0.0 -->
      <g transform="translate(34.696875 299.287219) scale(0.1 -0.1)">
       <defs>
        <path id="DejaVuSans-2e" d="M 684 794 
L 1344 794 
L 1344 0 
L 684 0 
L 684 794 
z
" transform="scale(0.015625)"/>
       </defs>
       <use xlink:href="#DejaVuSans-30"/>
       <use xlink:href="#DejaVuSans-2e" x="63.623047"/>
       <use xlink:href="#DejaVuSans-30" x="95.410156"/>
      </g>
     </g>
    </g>
    <g id="ytick_2">
     <g id="line2d_10">
      <g>
       <use xlink:href="#m232bd61034" x="57.6" y="247.104" style="stroke: #000000; stroke-width: 0.8"/>
      </g>
     </g>
     <g id="text_10">
      <!-- 0.2 -->
      <g transform="translate(34.696875 250.903219) scale(0.1 -0.1)">
       <use xlink:href="#DejaVuSans-30"/>
       <use xlink:href="#DejaVuSans-2e" x="63.623047"/>
       <use xlink:href="#DejaVuSans-32" x="95.410156"/>
      </g>
     </g>
    </g>
    <g id="ytick_3">
     <g id="line2d_11">
      <g>
       <use xlink:href="#m232bd61034" x="57.6" y="198.72" style="stroke: #000000; stroke-width: 0.8"/>
      </g>
     </g>
     <g id="text_11">
      <!-- 0.4 -->
      <g transform="translate(34.696875 202.519219) scale(0.1 -0.1)">
       <use xlink:href="#DejaVuSans-30"/>
       <use xlink:href="#DejaVuSans-2e" x="63.623047"/>
       <use xlink:href="#DejaVuSans-34" x="95.410156"/>
      </g>
     </g>
    </g>
    <g id="ytick_4">
     <g id="line2d_12">
      <g>
       <use xlink:href="#m232bd61034" x="57.6" y="150.336" style="stroke: #000000; stroke-width: 0.8"/>
      </g>
     </g>
     <g id="text_12">
      <!-- 0.6 -->
      <g transform="translate(34.696875 154.135219) scale(0.1 -0.1)">
       <use xlink:href="#DejaVuSans-30"/>
       <use xlink:href="#DejaVuSans-2e" x="63.623047"/>
       <use xlink:href="#DejaVuSans-36" x="95.410156"/>
      </g>
     </g>
    </g>
    <g id="ytick_5">
     <g id="line2d_13">
      <g>
       <use xlink:href="#m232bd61034" x="57.6" y="101.952" style="stroke: #000000; stroke-width: 0.8"/>
      </g>
     </g>
     <g id="text_13">
      <!-- 0.8 -->
      <g transform="translate(34.696875 105.751219) scale(0.1 -0.1)">
       <use xlink:href="#DejaVuSans-30"/>
       <use xlink:href="#DejaVuSans-2e" x="63.623047"/>
       <use xlink:href="#DejaVuSans-38" x="95.410156"/>
      </g>
     </g>
    </g>
    <g id="ytick_6">
     <g id="line2d_14">
      <g>
       <use xlink:href="#m232bd61034" x="57.6" y="53.568" style="stroke: #000000; stroke-width: 0.8"/>
      </g>
     </g>
     <g id="text_14">
      <!-- 1.0 -->
      <g transform="translate(34.696875 57.367219) scale(0.1 -0.1)">
       <use xlink:href="#DejaVuSans-31"/>
       <use xlink:href="#DejaVuSans-2e" x="63.623047"/>
       <use xlink:href="#DejaVuSans-30" x="95.410156"/>
      </g>
     </g>
    </g>
   </g>
   <g id="line2d_15">
    <path d="M 73.832727 295.488 
L 81.023224 295.488 
L 81.047273 101.517886 
L 81.047273 101.517886 
L 85.351952 101.517886 
L 85.400048 100.925912 
L 85.592436 100.925912 
L 85.592436 100.728587 
L 86.530327 100.728587 
L 86.626521 99.741964 
L 86.626521 99.741964 
L 86.674618 99.741964 
L 86.722715 99.347315 
L 91.099539 99.347315 
L 91.099539 99.14999 
L 93.023418 99.14999 
L 93.023418 98.952666 
L 96.654739 98.952666 
L 96.654739 98.755341 
L 98.55457 98.755341 
L 98.55457 98.558016 
L 98.915297 98.558016 
L 98.915297 98.360692 
L 99.083636 98.360692 
L 99.083636 98.163367 
L 102.282085 98.163367 
L 102.282085 97.966042 
L 103.436412 97.966042 
L 103.436412 97.768718 
L 104.350255 97.768718 
L 104.350255 97.374069 
L 104.350255 97.374069 
L 105.817212 97.374069 
L 105.817212 97.176744 
L 107.90943 97.176744 
L 107.933479 96.782095 
L 109.953552 96.782095 
L 109.953552 96.58477 
L 110.121891 96.58477 
L 110.121891 96.387445 
L 111.420509 96.387445 
L 111.420509 96.190121 
L 112.406497 96.190121 
L 112.406497 95.992796 
L 113.488679 95.992796 
L 113.488679 95.795471 
L 115.5328 95.795471 
L 115.5328 95.598147 
L 115.701139 95.598147 
L 115.701139 95.400822 
L 116.903564 95.400822 
L 116.903564 95.203498 
L 117.168097 95.203498 
L 117.168097 95.006173 
L 119.308412 95.006173 
L 119.308412 94.808848 
L 120.126061 94.808848 
L 120.126061 94.611524 
L 121.256339 94.611524 
L 121.280388 94.216874 
L 121.448727 94.216874 
L 121.448727 94.01955 
L 122.723297 94.01955 
L 122.723297 93.822225 
L 123.180218 93.822225 
L 123.252364 93.427576 
L 125.080048 93.427576 
L 125.080048 93.230251 
L 125.609115 93.230251 
L 125.609115 93.032927 
L 125.945794 93.032927 
L 125.945794 92.835602 
L 126.498909 92.835602 
L 126.498909 92.638277 
L 126.859636 92.638277 
L 126.907733 92.243628 
L 127.701333 92.243628 
L 127.701333 92.046303 
L 128.398739 92.046303 
L 128.398739 91.848979 
L 128.735418 91.848979 
L 128.735418 91.651654 
L 130.418812 91.651654 
L 130.418812 91.45433 
L 130.635248 91.45433 
L 130.635248 91.257005 
L 130.92383 91.257005 
L 130.92383 91.05968 
L 131.332655 91.05968 
L 131.332655 90.862356 
L 132.174352 90.862356 
L 132.174352 90.665031 
L 132.486982 90.665031 
L 132.559127 90.270382 
L 134.002036 90.270382 
L 134.002036 90.073057 
L 134.26657 90.073057 
L 134.26657 89.875732 
L 134.915879 89.875732 
L 134.915879 89.678408 
L 135.420897 89.678408 
L 135.420897 89.481083 
L 136.382836 89.481083 
L 136.382836 89.283759 
L 136.623321 89.283759 
L 136.623321 89.086434 
L 136.984048 89.086434 
L 136.984048 88.889109 
L 138.23457 88.889109 
L 138.282667 88.49446 
L 139.436994 88.49446 
L 139.436994 88.297135 
L 139.629382 88.297135 
L 139.629382 88.099811 
L 139.942012 88.099811 
L 139.942012 87.902486 
L 140.086303 87.902486 
L 140.086303 87.705162 
L 141.24063 87.705162 
L 141.24063 87.507837 
L 142.010182 87.507837 
L 142.010182 87.310512 
L 142.611394 87.310512 
L 142.611394 87.113188 
L 143.910012 87.113188 
L 143.982158 86.718538 
L 144.030255 86.718538 
L 144.030255 86.521214 
L 144.366933 86.521214 
L 144.366933 86.323889 
L 145.232679 86.323889 
L 145.232679 86.126564 
L 145.761745 86.126564 
L 145.785794 85.731915 
L 147.75777 85.731915 
L 147.75777 85.534591 
L 148.38303 85.534591 
L 148.455176 85.139941 
L 148.743758 85.139941 
L 148.743758 84.942617 
L 149.128533 84.942617 
L 149.128533 84.745292 
L 149.561406 84.745292 
L 149.6576 84.350643 
L 150.282861 84.350643 
L 150.282861 84.153318 
L 150.980267 84.153318 
L 150.980267 83.955993 
L 151.485285 83.955993 
L 151.485285 83.758669 
L 152.976291 83.758669 
L 152.976291 83.561344 
L 153.168679 83.561344 
L 153.168679 83.36402 
L 153.385115 83.36402 
L 153.385115 83.166695 
L 154.010376 83.166695 
L 154.010376 82.96937 
L 154.828024 82.96937 
L 154.828024 82.772046 
L 155.188752 82.772046 
L 155.188752 82.574721 
L 155.308994 82.574721 
L 155.308994 82.377396 
L 156.655709 82.377396 
L 156.703806 81.982747 
L 157.232873 81.982747 
L 157.232873 81.785423 
L 157.473358 81.785423 
L 157.473358 81.588098 
L 157.665745 81.588098 
L 157.665745 81.390773 
L 159.349139 81.390773 
L 159.349139 81.193449 
L 159.517479 81.193449 
L 159.517479 80.996124 
L 160.190836 80.996124 
L 160.190836 80.798799 
L 160.768 80.798799 
L 160.768 80.601475 
L 161.008485 80.601475 
L 161.008485 80.40415 
L 162.04257 80.40415 
L 162.114715 80.009501 
L 162.162812 80.009501 
L 162.162812 79.812176 
L 162.83617 79.812176 
L 162.83617 79.614852 
L 163.918352 79.614852 
L 163.918352 79.417527 
L 164.42337 79.417527 
L 164.42337 79.220202 
L 165.096727 79.220202 
L 165.096727 79.022878 
L 166.443442 79.022878 
L 166.443442 78.825553 
L 166.587733 78.825553 
L 166.683927 78.233579 
L 167.718012 78.233579 
L 167.718012 78.036254 
L 167.934448 78.036254 
L 167.934448 77.83893 
L 168.319224 77.83893 
L 168.343273 77.444281 
L 170.651927 77.444281 
L 170.651927 77.246956 
L 171.012655 77.246956 
L 171.0848 76.852307 
L 172.046739 76.852307 
L 172.046739 76.654982 
L 172.287224 76.654982 
L 172.35937 76.260333 
L 172.864388 76.260333 
L 172.864388 76.063008 
L 173.369406 76.063008 
L 173.369406 75.865684 
L 173.898473 75.865684 
L 173.898473 75.668359 
L 175.53377 75.668359 
L 175.605915 75.27371 
L 175.726158 75.27371 
L 175.726158 75.076385 
L 176.255224 75.076385 
L 176.255224 74.87906 
L 177.409552 74.87906 
L 177.409552 74.681736 
L 177.674085 74.681736 
L 177.674085 74.484411 
L 178.082909 74.484411 
L 178.082909 74.287086 
L 179.141042 74.287086 
L 179.141042 74.089762 
L 179.622012 74.089762 
L 179.622012 73.892437 
L 180.054885 73.892437 
L 180.151079 73.497788 
L 180.199176 73.497788 
L 180.199176 73.300463 
L 181.810424 73.300463 
L 181.810424 73.103139 
L 181.978764 73.103139 
L 181.978764 72.905814 
L 183.205236 72.905814 
L 183.30143 72.511165 
L 183.830497 72.511165 
L 183.830497 72.31384 
L 184.576 72.31384 
L 184.576 72.116515 
L 184.720291 72.116515 
L 184.768388 71.721866 
L 185.3696 71.721866 
L 185.3696 71.524542 
L 186.403685 71.524542 
L 186.403685 71.327217 
L 187.558012 71.327217 
L 187.558012 71.129892 
L 187.894691 71.129892 
L 187.894691 70.932568 
L 188.928776 70.932568 
L 188.928776 70.735243 
L 189.145212 70.735243 
L 189.169261 70.340594 
L 189.626182 70.340594 
L 189.626182 70.143269 
L 190.347636 70.143269 
L 190.347636 69.945945 
L 190.780509 69.945945 
L 190.876703 69.551295 
L 190.948848 69.551295 
L 190.948848 69.353971 
L 193.161309 69.353971 
L 193.161309 69.156646 
L 193.594182 69.156646 
L 193.666327 68.761997 
L 195.301624 68.761997 
L 195.301624 68.564672 
L 195.494012 68.564672 
L 195.566158 67.972698 
L 195.926885 67.972698 
L 195.926885 67.775374 
L 196.504048 67.775374 
L 196.504048 67.578049 
L 198.043152 67.578049 
L 198.043152 67.380724 
L 198.476024 67.380724 
L 198.476024 67.1834 
L 198.692461 67.1834 
L 198.692461 66.986075 
L 200.015127 66.986075 
L 200.015127 66.78875 
L 201.049212 66.78875 
L 201.049212 66.591426 
L 202.179491 66.591426 
L 202.179491 66.394101 
L 202.564267 66.394101 
L 202.564267 66.196777 
L 203.333818 66.196777 
L 203.333818 65.999452 
L 204.391952 65.999452 
L 204.391952 65.802127 
L 204.536242 65.802127 
L 204.536242 65.604803 
L 206.243685 65.604803 
L 206.243685 65.407478 
L 206.772752 65.407478 
L 206.772752 65.210153 
L 207.061333 65.210153 
L 207.061333 65.012829 
L 207.878982 65.012829 
L 207.878982 64.815504 
L 208.985212 64.815504 
L 208.985212 64.618179 
L 210.139539 64.618179 
L 210.139539 64.420855 
L 210.860994 64.420855 
L 210.957188 64.026206 
L 211.582448 64.026206 
L 211.582448 63.828881 
L 212.279855 63.828881 
L 212.279855 63.631556 
L 213.530376 63.631556 
L 213.530376 63.236907 
L 213.530376 63.236907 
L 213.794909 63.236907 
L 213.794909 63.039582 
L 215.718788 63.039582 
L 215.718788 62.842258 
L 216.127612 62.842258 
L 216.127612 62.644933 
L 218.003394 62.644933 
L 218.027442 62.250284 
L 218.532461 62.250284 
L 218.628655 61.855635 
L 219.18177 61.855635 
L 219.18177 61.65831 
L 220.60063 61.65831 
L 220.60063 61.460985 
L 221.634715 61.460985 
L 221.634715 61.263661 
L 223.4624 61.263661 
L 223.558594 60.869011 
L 226.083685 60.869011 
L 226.083685 60.671687 
L 229.137842 60.671687 
L 229.137842 60.474362 
L 233.755152 60.474362 
L 233.755152 60.277038 
L 234.741139 60.277038 
L 234.741139 60.079713 
L 240.296339 60.079713 
L 240.296339 59.882388 
L 241.619006 59.882388 
L 241.619006 59.685064 
L 245.899636 59.685064 
L 245.899636 59.487739 
L 246.4768 59.487739 
L 246.4768 59.290414 
L 249.33857 59.290414 
L 249.33857 59.09309 
L 251.623176 59.09309 
L 251.623176 58.895765 
L 252.032 58.895765 
L 252.032 58.69844 
L 256.961939 58.69844 
L 256.961939 58.501116 
L 257.250521 58.501116 
L 257.250521 58.303791 
L 257.827685 58.303791 
L 257.827685 58.106467 
L 262.805721 58.106467 
L 262.805721 57.909142 
L 263.334788 57.909142 
L 263.334788 57.711817 
L 264.681503 57.711817 
L 264.681503 57.514493 
L 268.409018 57.514493 
L 268.409018 57.317168 
L 269.058327 57.317168 
L 269.058327 57.119843 
L 272.35297 57.119843 
L 272.35297 56.922519 
L 274.060412 56.922519 
L 274.060412 56.725194 
L 274.805915 56.725194 
L 274.805915 56.527869 
L 279.832048 56.527869 
L 279.904194 56.13322 
L 280.385164 56.13322 
L 280.385164 55.935896 
L 285.387248 55.935896 
L 285.387248 55.738571 
L 286.060606 55.738571 
L 286.060606 55.541246 
L 291.110788 55.541246 
L 291.110788 55.343922 
L 291.760097 55.343922 
L 291.760097 55.146597 
L 297.435539 55.146597 
L 297.435539 54.949272 
L 302.918594 54.949272 
L 302.918594 54.751948 
L 308.545939 54.751948 
L 308.545939 54.554623 
L 314.293527 54.554623 
L 314.293527 54.357299 
L 319.848727 54.357299 
L 319.848727 54.159974 
L 325.572267 54.159974 
L 325.572267 53.962649 
L 331.031273 53.962649 
L 331.031273 53.765325 
L 336.730764 53.765325 
L 336.730764 53.568 
L 336.730764 53.568 
" clip-path="url(#p0ca5d60e5b)" style="fill: none; stroke: #1f77b4; stroke-width: 1.5; stroke-linecap: square"/>
   </g>
   <g id="line2d_16">
    <path d="M 73.832727 295.488 
L 81.023224 295.488 
L 81.047273 74.796427 
L 81.047273 74.796427 
L 85.424097 74.796427 
L 85.424097 74.586245 
L 86.530327 74.586245 
L 86.530327 74.376063 
L 86.65057 74.376063 
L 86.65057 74.16588 
L 117.841455 74.16588 
L 117.841455 73.955698 
L 121.833503 73.955698 
L 121.833503 73.745515 
L 123.492848 73.745515 
L 123.492848 73.535333 
L 127.196315 73.535333 
L 127.196315 73.32515 
L 129.072097 73.32515 
L 129.072097 73.114968 
L 132.799612 73.114968 
L 132.799612 72.904785 
L 134.627297 72.904785 
L 134.627297 72.694603 
L 138.571248 72.694603 
L 138.571248 72.484421 
L 140.374885 72.484421 
L 140.374885 72.274238 
L 144.294788 72.274238 
L 144.294788 72.064056 
L 146.122473 72.064056 
L 146.122473 71.853873 
L 149.128533 71.853873 
L 149.128533 71.643691 
L 149.874036 71.643691 
L 149.874036 71.433508 
L 151.653624 71.433508 
L 151.653624 71.223326 
L 151.821964 71.223326 
L 151.821964 71.013143 
L 155.405188 71.013143 
L 155.405188 70.802961 
L 156.703806 70.802961 
L 156.703806 70.592778 
L 157.545503 70.592778 
L 157.545503 70.382596 
L 159.228897 70.382596 
L 159.252945 69.962231 
L 161.128727 69.962231 
L 161.128727 69.752049 
L 163.196897 69.752049 
L 163.196897 69.541866 
L 164.42337 69.541866 
L 164.42337 69.331684 
L 166.732024 69.331684 
L 166.780121 68.911319 
L 166.924412 68.911319 
L 166.924412 68.701136 
L 168.776145 68.701136 
L 168.776145 68.490954 
L 172.287224 68.490954 
L 172.287224 68.280772 
L 172.527709 68.280772 
L 172.527709 68.070589 
L 174.379442 68.070589 
L 174.403491 67.650224 
L 174.547782 67.650224 
L 174.547782 67.440042 
L 178.179103 67.440042 
L 178.179103 67.229859 
L 180.175127 67.229859 
L 180.199176 66.809494 
L 182.171152 66.809494 
L 182.243297 66.389129 
L 183.830497 66.389129 
L 183.830497 66.178947 
L 185.922715 66.178947 
L 185.922715 65.968765 
L 187.894691 65.968765 
L 187.894691 65.758582 
L 189.481891 65.758582 
L 189.481891 65.5484 
L 189.794521 65.5484 
L 189.794521 65.338217 
L 190.179297 65.338217 
L 190.179297 65.128035 
L 191.550061 65.128035 
L 191.550061 64.917852 
L 195.181382 64.917852 
L 195.181382 64.70767 
L 195.542109 64.70767 
L 195.542109 64.497487 
L 197.081212 64.497487 
L 197.081212 64.287305 
L 197.538133 64.287305 
L 197.538133 64.077123 
L 197.922909 64.077123 
L 197.922909 63.86694 
L 200.856824 63.86694 
L 200.856824 63.656758 
L 202.804752 63.656758 
L 202.804752 63.446575 
L 203.333818 63.446575 
L 203.333818 63.236393 
L 205.257697 63.236393 
L 205.257697 63.02621 
L 205.52223 63.02621 
L 205.52223 62.816028 
L 206.604412 62.816028 
L 206.604412 62.605845 
L 208.480194 62.605845 
L 208.480194 62.395663 
L 210.957188 62.395663 
L 210.957188 62.18548 
L 212.255806 62.18548 
L 212.255806 61.975298 
L 213.001309 61.975298 
L 213.001309 61.765116 
L 213.434182 61.765116 
L 213.434182 61.554933 
L 213.987297 61.554933 
L 213.987297 61.344751 
L 218.051491 61.344751 
L 218.051491 61.134568 
L 218.628655 61.134568 
L 218.628655 60.924386 
L 220.696824 60.924386 
L 220.696824 60.714203 
L 220.985406 60.714203 
L 220.985406 60.504021 
L 222.909285 60.504021 
L 222.909285 60.293838 
L 230.652897 60.293838 
L 230.652897 60.083656 
L 235.077818 60.083656 
L 235.077818 59.873474 
L 239.550836 59.873474 
L 239.550836 59.663291 
L 244.144097 59.663291 
L 244.144097 59.453109 
L 248.689261 59.453109 
L 248.689261 59.242926 
L 253.30657 59.242926 
L 253.30657 59.032744 
L 257.851733 59.032744 
L 257.851733 58.822561 
L 262.3488 58.822561 
L 262.3488 58.612379 
L 266.869915 58.612379 
L 266.869915 58.402196 
L 271.415079 58.402196 
L 271.415079 58.192014 
L 275.912145 58.192014 
L 275.912145 57.981831 
L 280.385164 57.981831 
L 280.385164 57.771649 
L 284.858182 57.771649 
L 284.858182 57.561467 
L 289.403345 57.561467 
L 289.403345 57.351284 
L 293.900412 57.351284 
L 293.900412 57.141102 
L 298.517721 57.141102 
L 298.517721 56.930919 
L 303.086933 56.930919 
L 303.086933 56.720737 
L 307.511855 56.720737 
L 307.511855 56.510554 
L 311.984873 56.510554 
L 311.984873 56.300372 
L 316.505988 56.300372 
L 316.505988 56.090189 
L 321.027103 56.090189 
L 321.027103 55.880007 
L 325.620364 55.880007 
L 325.620364 55.669825 
L 329.540267 55.669825 
L 329.540267 55.459642 
L 337.25983 55.459642 
L 337.25983 55.24946 
L 344.907248 55.24946 
L 344.907248 55.039277 
L 352.482521 55.039277 
L 352.482521 54.829095 
L 360.081842 54.829095 
L 360.081842 54.618912 
L 367.777358 54.618912 
L 367.777358 54.40873 
L 375.256436 54.40873 
L 375.256436 54.198547 
L 382.927903 54.198547 
L 382.927903 53.988365 
L 390.743661 53.988365 
L 390.743661 53.778182 
L 398.487273 53.778182 
L 398.487273 53.568 
L 398.487273 53.568 
" clip-path="url(#p0ca5d60e5b)" style="fill: none; stroke: #ff7f0e; stroke-width: 1.5; stroke-linecap: square"/>
   </g>
   <g id="patch_3">
    <path d="M 57.6 307.584 
L 57.6 41.472 
" style="fill: none; stroke: #000000; stroke-width: 0.8; stroke-linejoin: miter; stroke-linecap: square"/>
   </g>
   <g id="patch_4">
    <path d="M 414.72 307.584 
L 414.72 41.472 
" style="fill: none; stroke: #000000; stroke-width: 0.8; stroke-linejoin: miter; stroke-linecap: square"/>
   </g>
   <g id="patch_5">
    <path d="M 57.6 307.584 
L 414.72 307.584 
" style="fill: none; stroke: #000000; stroke-width: 0.8; stroke-linejoin: miter; stroke-linecap: square"/>
   </g>
   <g id="patch_6">
    <path d="M 57.6 41.472 
L 414.72 41.472 
" style="fill: none; stroke: #000000; stroke-width: 0.8; stroke-linejoin: miter; stroke-linecap: square"/>
   </g>
   <g id="text_15">
    <!-- S1 S2 -->
    <g transform="translate(219 35.472) scale(0.12 -0.12)">
     <defs>
      <path id="DejaVuSans-53" d="M 3425 4513 
L 3425 3897 
Q 3066 4069 2747 4153 
Q 2428 4238 2131 4238 
Q 1616 4238 1336 4038 
Q 1056 3838 1056 3469 
Q 1056 3159 1242 3001 
Q 1428 2844 1947 2747 
L 2328 2669 
Q 3034 2534 3370 2195 
Q 3706 1856 3706 1288 
Q 3706 609 3251 259 
Q 2797 -91 1919 -91 
Q 1588 -91 1214 -16 
Q 841 59 441 206 
L 441 856 
Q 825 641 1194 531 
Q 1563 422 1919 422 
Q 2459 422 2753 634 
Q 3047 847 3047 1241 
Q 3047 1584 2836 1778 
Q 2625 1972 2144 2069 
L 1759 2144 
Q 1053 2284 737 2584 
Q 422 2884 422 3419 
Q 422 4038 858 4394 
Q 1294 4750 2059 4750 
Q 2388 4750 2728 4690 
Q 3069 4631 3425 4513 
z
" transform="scale(0.015625)"/>
      <path id="DejaVuSans-20" transform="scale(0.015625)"/>
     </defs>
     <use xlink:href="#DejaVuSans-53"/>
     <use xlink:href="#DejaVuSans-31" x="63.476562"/>
     <use xlink:href="#DejaVuSans-20" x="127.099609"/>
     <use xlink:href="#DejaVuSans-53" x="158.886719"/>
     <use xlink:href="#DejaVuSans-32" x="222.363281"/>
    </g>
   </g>
   <g id="legend_1">
    <g id="patch_7">
     <path d="M 88.712813 304.584 
L 410.52 304.584 
Q 411.72 304.584 411.72 303.384 
L 411.72 286.37025 
Q 411.72 285.17025 410.52 285.17025 
L 88.712813 285.17025 
Q 87.512813 285.17025 87.512813 286.37025 
L 87.512813 303.384 
Q 87.512813 304.584 88.712813 304.584 
z
" style="fill: #ffffff; opacity: 0.8; stroke: #cccccc; stroke-linejoin: miter"/>
    </g>
    <g id="line2d_17">
     <path d="M 89.912813 290.029312 
L 95.912813 290.029312 
L 101.912813 290.029312 
" style="fill: none; stroke: #1f77b4; stroke-width: 1.5; stroke-linecap: square"/>
    </g>
    <g id="text_16">
     <!-- Execution time between S1 S2 (xx1xx1xx1xx0yyy3xx0yyy3xx1xx0yyy45xx1xx1) -->
     <g transform="translate(106.712813 292.129312) scale(0.06 -0.06)">
      <defs>
       <path id="DejaVuSans-45" d="M 628 4666 
L 3578 4666 
L 3578 4134 
L 1259 4134 
L 1259 2753 
L 3481 2753 
L 3481 2222 
L 1259 2222 
L 1259 531 
L 3634 531 
L 3634 0 
L 628 0 
L 628 4666 
z
" transform="scale(0.015625)"/>
       <path id="DejaVuSans-78" d="M 3513 3500 
L 2247 1797 
L 3578 0 
L 2900 0 
L 1881 1375 
L 863 0 
L 184 0 
L 1544 1831 
L 300 3500 
L 978 3500 
L 1906 2253 
L 2834 3500 
L 3513 3500 
z
" transform="scale(0.015625)"/>
       <path id="DejaVuSans-65" d="M 3597 1894 
L 3597 1613 
L 953 1613 
Q 991 1019 1311 708 
Q 1631 397 2203 397 
Q 2534 397 2845 478 
Q 3156 559 3463 722 
L 3463 178 
Q 3153 47 2828 -22 
Q 2503 -91 2169 -91 
Q 1331 -91 842 396 
Q 353 884 353 1716 
Q 353 2575 817 3079 
Q 1281 3584 2069 3584 
Q 2775 3584 3186 3129 
Q 3597 2675 3597 1894 
z
M 3022 2063 
Q 3016 2534 2758 2815 
Q 2500 3097 2075 3097 
Q 1594 3097 1305 2825 
Q 1016 2553 972 2059 
L 3022 2063 
z
" transform="scale(0.015625)"/>
       <path id="DejaVuSans-63" d="M 3122 3366 
L 3122 2828 
Q 2878 2963 2633 3030 
Q 2388 3097 2138 3097 
Q 1578 3097 1268 2742 
Q 959 2388 959 1747 
Q 959 1106 1268 751 
Q 1578 397 2138 397 
Q 2388 397 2633 464 
Q 2878 531 3122 666 
L 3122 134 
Q 2881 22 2623 -34 
Q 2366 -91 2075 -91 
Q 1284 -91 818 406 
Q 353 903 353 1747 
Q 353 2603 823 3093 
Q 1294 3584 2113 3584 
Q 2378 3584 2631 3529 
Q 2884 3475 3122 3366 
z
" transform="scale(0.015625)"/>
       <path id="DejaVuSans-75" d="M 544 1381 
L 544 3500 
L 1119 3500 
L 1119 1403 
Q 1119 906 1312 657 
Q 1506 409 1894 409 
Q 2359 409 2629 706 
Q 2900 1003 2900 1516 
L 2900 3500 
L 3475 3500 
L 3475 0 
L 2900 0 
L 2900 538 
Q 2691 219 2414 64 
Q 2138 -91 1772 -91 
Q 1169 -91 856 284 
Q 544 659 544 1381 
z
M 1991 3584 
L 1991 3584 
z
" transform="scale(0.015625)"/>
       <path id="DejaVuSans-74" d="M 1172 4494 
L 1172 3500 
L 2356 3500 
L 2356 3053 
L 1172 3053 
L 1172 1153 
Q 1172 725 1289 603 
Q 1406 481 1766 481 
L 2356 481 
L 2356 0 
L 1766 0 
Q 1100 0 847 248 
Q 594 497 594 1153 
L 594 3053 
L 172 3053 
L 172 3500 
L 594 3500 
L 594 4494 
L 1172 4494 
z
" transform="scale(0.015625)"/>
       <path id="DejaVuSans-69" d="M 603 3500 
L 1178 3500 
L 1178 0 
L 603 0 
L 603 3500 
z
M 603 4863 
L 1178 4863 
L 1178 4134 
L 603 4134 
L 603 4863 
z
" transform="scale(0.015625)"/>
       <path id="DejaVuSans-6f" d="M 1959 3097 
Q 1497 3097 1228 2736 
Q 959 2375 959 1747 
Q 959 1119 1226 758 
Q 1494 397 1959 397 
Q 2419 397 2687 759 
Q 2956 1122 2956 1747 
Q 2956 2369 2687 2733 
Q 2419 3097 1959 3097 
z
M 1959 3584 
Q 2709 3584 3137 3096 
Q 3566 2609 3566 1747 
Q 3566 888 3137 398 
Q 2709 -91 1959 -91 
Q 1206 -91 779 398 
Q 353 888 353 1747 
Q 353 2609 779 3096 
Q 1206 3584 1959 3584 
z
" transform="scale(0.015625)"/>
       <path id="DejaVuSans-6e" d="M 3513 2113 
L 3513 0 
L 2938 0 
L 2938 2094 
Q 2938 2591 2744 2837 
Q 2550 3084 2163 3084 
Q 1697 3084 1428 2787 
Q 1159 2491 1159 1978 
L 1159 0 
L 581 0 
L 581 3500 
L 1159 3500 
L 1159 2956 
Q 1366 3272 1645 3428 
Q 1925 3584 2291 3584 
Q 2894 3584 3203 3211 
Q 3513 2838 3513 2113 
z
" transform="scale(0.015625)"/>
       <path id="DejaVuSans-6d" d="M 3328 2828 
Q 3544 3216 3844 3400 
Q 4144 3584 4550 3584 
Q 5097 3584 5394 3201 
Q 5691 2819 5691 2113 
L 5691 0 
L 5113 0 
L 5113 2094 
Q 5113 2597 4934 2840 
Q 4756 3084 4391 3084 
Q 3944 3084 3684 2787 
Q 3425 2491 3425 1978 
L 3425 0 
L 2847 0 
L 2847 2094 
Q 2847 2600 2669 2842 
Q 2491 3084 2119 3084 
Q 1678 3084 1418 2786 
Q 1159 2488 1159 1978 
L 1159 0 
L 581 0 
L 581 3500 
L 1159 3500 
L 1159 2956 
Q 1356 3278 1631 3431 
Q 1906 3584 2284 3584 
Q 2666 3584 2933 3390 
Q 3200 3197 3328 2828 
z
" transform="scale(0.015625)"/>
       <path id="DejaVuSans-62" d="M 3116 1747 
Q 3116 2381 2855 2742 
Q 2594 3103 2138 3103 
Q 1681 3103 1420 2742 
Q 1159 2381 1159 1747 
Q 1159 1113 1420 752 
Q 1681 391 2138 391 
Q 2594 391 2855 752 
Q 3116 1113 3116 1747 
z
M 1159 2969 
Q 1341 3281 1617 3432 
Q 1894 3584 2278 3584 
Q 2916 3584 3314 3078 
Q 3713 2572 3713 1747 
Q 3713 922 3314 415 
Q 2916 -91 2278 -91 
Q 1894 -91 1617 61 
Q 1341 213 1159 525 
L 1159 0 
L 581 0 
L 581 4863 
L 1159 4863 
L 1159 2969 
z
" transform="scale(0.015625)"/>
       <path id="DejaVuSans-77" d="M 269 3500 
L 844 3500 
L 1563 769 
L 2278 3500 
L 2956 3500 
L 3675 769 
L 4391 3500 
L 4966 3500 
L 4050 0 
L 3372 0 
L 2619 2869 
L 1863 0 
L 1184 0 
L 269 3500 
z
" transform="scale(0.015625)"/>
       <path id="DejaVuSans-28" d="M 1984 4856 
Q 1566 4138 1362 3434 
Q 1159 2731 1159 2009 
Q 1159 1288 1364 580 
Q 1569 -128 1984 -844 
L 1484 -844 
Q 1016 -109 783 600 
Q 550 1309 550 2009 
Q 550 2706 781 3412 
Q 1013 4119 1484 4856 
L 1984 4856 
z
" transform="scale(0.015625)"/>
       <path id="DejaVuSans-79" d="M 2059 -325 
Q 1816 -950 1584 -1140 
Q 1353 -1331 966 -1331 
L 506 -1331 
L 506 -850 
L 844 -850 
Q 1081 -850 1212 -737 
Q 1344 -625 1503 -206 
L 1606 56 
L 191 3500 
L 800 3500 
L 1894 763 
L 2988 3500 
L 3597 3500 
L 2059 -325 
z
" transform="scale(0.015625)"/>
       <path id="DejaVuSans-33" d="M 2597 2516 
Q 3050 2419 3304 2112 
Q 3559 1806 3559 1356 
Q 3559 666 3084 287 
Q 2609 -91 1734 -91 
Q 1441 -91 1130 -33 
Q 819 25 488 141 
L 488 750 
Q 750 597 1062 519 
Q 1375 441 1716 441 
Q 2309 441 2620 675 
Q 2931 909 2931 1356 
Q 2931 1769 2642 2001 
Q 2353 2234 1838 2234 
L 1294 2234 
L 1294 2753 
L 1863 2753 
Q 2328 2753 2575 2939 
Q 2822 3125 2822 3475 
Q 2822 3834 2567 4026 
Q 2313 4219 1838 4219 
Q 1578 4219 1281 4162 
Q 984 4106 628 3988 
L 628 4550 
Q 988 4650 1302 4700 
Q 1616 4750 1894 4750 
Q 2613 4750 3031 4423 
Q 3450 4097 3450 3541 
Q 3450 3153 3228 2886 
Q 3006 2619 2597 2516 
z
" transform="scale(0.015625)"/>
       <path id="DejaVuSans-35" d="M 691 4666 
L 3169 4666 
L 3169 4134 
L 1269 4134 
L 1269 2991 
Q 1406 3038 1543 3061 
Q 1681 3084 1819 3084 
Q 2600 3084 3056 2656 
Q 3513 2228 3513 1497 
Q 3513 744 3044 326 
Q 2575 -91 1722 -91 
Q 1428 -91 1123 -41 
Q 819 9 494 109 
L 494 744 
Q 775 591 1075 516 
Q 1375 441 1709 441 
Q 2250 441 2565 725 
Q 2881 1009 2881 1497 
Q 2881 1984 2565 2268 
Q 2250 2553 1709 2553 
Q 1456 2553 1204 2497 
Q 953 2441 691 2322 
L 691 4666 
z
" transform="scale(0.015625)"/>
       <path id="DejaVuSans-29" d="M 513 4856 
L 1013 4856 
Q 1481 4119 1714 3412 
Q 1947 2706 1947 2009 
Q 1947 1309 1714 600 
Q 1481 -109 1013 -844 
L 513 -844 
Q 928 -128 1133 580 
Q 1338 1288 1338 2009 
Q 1338 2731 1133 3434 
Q 928 4138 513 4856 
z
" transform="scale(0.015625)"/>
      </defs>
      <use xlink:href="#DejaVuSans-45"/>
      <use xlink:href="#DejaVuSans-78" x="63.183594"/>
      <use xlink:href="#DejaVuSans-65" x="119.238281"/>
      <use xlink:href="#DejaVuSans-63" x="180.761719"/>
      <use xlink:href="#DejaVuSans-75" x="235.742188"/>
      <use xlink:href="#DejaVuSans-74" x="299.121094"/>
      <use xlink:href="#DejaVuSans-69" x="338.330078"/>
      <use xlink:href="#DejaVuSans-6f" x="366.113281"/>
      <use xlink:href="#DejaVuSans-6e" x="427.294922"/>
      <use xlink:href="#DejaVuSans-20" x="490.673828"/>
      <use xlink:href="#DejaVuSans-74" x="522.460938"/>
      <use xlink:href="#DejaVuSans-69" x="561.669922"/>
      <use xlink:href="#DejaVuSans-6d" x="589.453125"/>
      <use xlink:href="#DejaVuSans-65" x="686.865234"/>
      <use xlink:href="#DejaVuSans-20" x="748.388672"/>
      <use xlink:href="#DejaVuSans-62" x="780.175781"/>
      <use xlink:href="#DejaVuSans-65" x="843.652344"/>
      <use xlink:href="#DejaVuSans-74" x="905.175781"/>
      <use xlink:href="#DejaVuSans-77" x="944.384766"/>
      <use xlink:href="#DejaVuSans-65" x="1026.171875"/>
      <use xlink:href="#DejaVuSans-65" x="1087.695312"/>
      <use xlink:href="#DejaVuSans-6e" x="1149.21875"/>
      <use xlink:href="#DejaVuSans-20" x="1212.597656"/>
      <use xlink:href="#DejaVuSans-53" x="1244.384766"/>
      <use xlink:href="#DejaVuSans-31" x="1307.861328"/>
      <use xlink:href="#DejaVuSans-20" x="1371.484375"/>
      <use xlink:href="#DejaVuSans-53" x="1403.271484"/>
      <use xlink:href="#DejaVuSans-32" x="1466.748047"/>
      <use xlink:href="#DejaVuSans-20" x="1530.371094"/>
      <use xlink:href="#DejaVuSans-28" x="1562.158203"/>
      <use xlink:href="#DejaVuSans-78" x="1601.171875"/>
      <use xlink:href="#DejaVuSans-78" x="1660.351562"/>
      <use xlink:href="#DejaVuSans-31" x="1719.53125"/>
      <use xlink:href="#DejaVuSans-78" x="1783.154297"/>
      <use xlink:href="#DejaVuSans-78" x="1842.333984"/>
      <use xlink:href="#DejaVuSans-31" x="1901.513672"/>
      <use xlink:href="#DejaVuSans-78" x="1965.136719"/>
      <use xlink:href="#DejaVuSans-78" x="2024.316406"/>
      <use xlink:href="#DejaVuSans-31" x="2083.496094"/>
      <use xlink:href="#DejaVuSans-78" x="2147.119141"/>
      <use xlink:href="#DejaVuSans-78" x="2206.298828"/>
      <use xlink:href="#DejaVuSans-30" x="2265.478516"/>
      <use xlink:href="#DejaVuSans-79" x="2329.101562"/>
      <use xlink:href="#DejaVuSans-79" x="2388.28125"/>
      <use xlink:href="#DejaVuSans-79" x="2447.460938"/>
      <use xlink:href="#DejaVuSans-33" x="2506.640625"/>
      <use xlink:href="#DejaVuSans-78" x="2570.263672"/>
      <use xlink:href="#DejaVuSans-78" x="2629.443359"/>
      <use xlink:href="#DejaVuSans-30" x="2688.623047"/>
      <use xlink:href="#DejaVuSans-79" x="2752.246094"/>
      <use xlink:href="#DejaVuSans-79" x="2811.425781"/>
      <use xlink:href="#DejaVuSans-79" x="2870.605469"/>
      <use xlink:href="#DejaVuSans-33" x="2929.785156"/>
      <use xlink:href="#DejaVuSans-78" x="2993.408203"/>
      <use xlink:href="#DejaVuSans-78" x="3052.587891"/>
      <use xlink:href="#DejaVuSans-31" x="3111.767578"/>
      <use xlink:href="#DejaVuSans-78" x="3175.390625"/>
      <use xlink:href="#DejaVuSans-78" x="3234.570312"/>
      <use xlink:href="#DejaVuSans-30" x="3293.75"/>
      <use xlink:href="#DejaVuSans-79" x="3357.373047"/>
      <use xlink:href="#DejaVuSans-79" x="3416.552734"/>
      <use xlink:href="#DejaVuSans-79" x="3475.732422"/>
      <use xlink:href="#DejaVuSans-34" x="3534.912109"/>
      <use xlink:href="#DejaVuSans-35" x="3598.535156"/>
      <use xlink:href="#DejaVuSans-78" x="3662.158203"/>
      <use xlink:href="#DejaVuSans-78" x="3721.337891"/>
      <use xlink:href="#DejaVuSans-31" x="3780.517578"/>
      <use xlink:href="#DejaVuSans-78" x="3844.140625"/>
      <use xlink:href="#DejaVuSans-78" x="3903.320312"/>
      <use xlink:href="#DejaVuSans-31" x="3962.5"/>
      <use xlink:href="#DejaVuSans-29" x="4026.123047"/>
     </g>
    </g>
    <g id="line2d_18">
     <path d="M 89.912813 298.836187 
L 95.912813 298.836187 
L 101.912813 298.836187 
" style="fill: none; stroke: #ff7f0e; stroke-width: 1.5; stroke-linecap: square"/>
    </g>
    <g id="text_17">
     <!-- Execution time between S1 S2 (xx1xx2xx0yyy45xx0yyy45xx0yyy3xx1xx0yyy45xx0yyy45xx0yyy45) -->
     <g transform="translate(106.712813 300.936187) scale(0.06 -0.06)">
      <use xlink:href="#DejaVuSans-45"/>
      <use xlink:href="#DejaVuSans-78" x="63.183594"/>
      <use xlink:href="#DejaVuSans-65" x="119.238281"/>
      <use xlink:href="#DejaVuSans-63" x="180.761719"/>
      <use xlink:href="#DejaVuSans-75" x="235.742188"/>
      <use xlink:href="#DejaVuSans-74" x="299.121094"/>
      <use xlink:href="#DejaVuSans-69" x="338.330078"/>
      <use xlink:href="#DejaVuSans-6f" x="366.113281"/>
      <use xlink:href="#DejaVuSans-6e" x="427.294922"/>
      <use xlink:href="#DejaVuSans-20" x="490.673828"/>
      <use xlink:href="#DejaVuSans-74" x="522.460938"/>
      <use xlink:href="#DejaVuSans-69" x="561.669922"/>
      <use xlink:href="#DejaVuSans-6d" x="589.453125"/>
      <use xlink:href="#DejaVuSans-65" x="686.865234"/>
      <use xlink:href="#DejaVuSans-20" x="748.388672"/>
      <use xlink:href="#DejaVuSans-62" x="780.175781"/>
      <use xlink:href="#DejaVuSans-65" x="843.652344"/>
      <use xlink:href="#DejaVuSans-74" x="905.175781"/>
      <use xlink:href="#DejaVuSans-77" x="944.384766"/>
      <use xlink:href="#DejaVuSans-65" x="1026.171875"/>
      <use xlink:href="#DejaVuSans-65" x="1087.695312"/>
      <use xlink:href="#DejaVuSans-6e" x="1149.21875"/>
      <use xlink:href="#DejaVuSans-20" x="1212.597656"/>
      <use xlink:href="#DejaVuSans-53" x="1244.384766"/>
      <use xlink:href="#DejaVuSans-31" x="1307.861328"/>
      <use xlink:href="#DejaVuSans-20" x="1371.484375"/>
      <use xlink:href="#DejaVuSans-53" x="1403.271484"/>
      <use xlink:href="#DejaVuSans-32" x="1466.748047"/>
      <use xlink:href="#DejaVuSans-20" x="1530.371094"/>
      <use xlink:href="#DejaVuSans-28" x="1562.158203"/>
      <use xlink:href="#DejaVuSans-78" x="1601.171875"/>
      <use xlink:href="#DejaVuSans-78" x="1660.351562"/>
      <use xlink:href="#DejaVuSans-31" x="1719.53125"/>
      <use xlink:href="#DejaVuSans-78" x="1783.154297"/>
      <use xlink:href="#DejaVuSans-78" x="1842.333984"/>
      <use xlink:href="#DejaVuSans-32" x="1901.513672"/>
      <use xlink:href="#DejaVuSans-78" x="1965.136719"/>
      <use xlink:href="#DejaVuSans-78" x="2024.316406"/>
      <use xlink:href="#DejaVuSans-30" x="2083.496094"/>
      <use xlink:href="#DejaVuSans-79" x="2147.119141"/>
      <use xlink:href="#DejaVuSans-79" x="2206.298828"/>
      <use xlink:href="#DejaVuSans-79" x="2265.478516"/>
      <use xlink:href="#DejaVuSans-34" x="2324.658203"/>
      <use xlink:href="#DejaVuSans-35" x="2388.28125"/>
      <use xlink:href="#DejaVuSans-78" x="2451.904297"/>
      <use xlink:href="#DejaVuSans-78" x="2511.083984"/>
      <use xlink:href="#DejaVuSans-30" x="2570.263672"/>
      <use xlink:href="#DejaVuSans-79" x="2633.886719"/>
      <use xlink:href="#DejaVuSans-79" x="2693.066406"/>
      <use xlink:href="#DejaVuSans-79" x="2752.246094"/>
      <use xlink:href="#DejaVuSans-34" x="2811.425781"/>
      <use xlink:href="#DejaVuSans-35" x="2875.048828"/>
      <use xlink:href="#DejaVuSans-78" x="2938.671875"/>
      <use xlink:href="#DejaVuSans-78" x="2997.851562"/>
      <use xlink:href="#DejaVuSans-30" x="3057.03125"/>
      <use xlink:href="#DejaVuSans-79" x="3120.654297"/>
      <use xlink:href="#DejaVuSans-79" x="3179.833984"/>
      <use xlink:href="#DejaVuSans-79" x="3239.013672"/>
      <use xlink:href="#DejaVuSans-33" x="3298.193359"/>
      <use xlink:href="#DejaVuSans-78" x="3361.816406"/>
      <use xlink:href="#DejaVuSans-78" x="3420.996094"/>
      <use xlink:href="#DejaVuSans-31" x="3480.175781"/>
      <use xlink:href="#DejaVuSans-78" x="3543.798828"/>
      <use xlink:href="#DejaVuSans-78" x="3602.978516"/>
      <use xlink:href="#DejaVuSans-30" x="3662.158203"/>
      <use xlink:href="#DejaVuSans-79" x="3725.78125"/>
      <use xlink:href="#DejaVuSans-79" x="3784.960938"/>
      <use xlink:href="#DejaVuSans-79" x="3844.140625"/>
      <use xlink:href="#DejaVuSans-34" x="3903.320312"/>
      <use xlink:href="#DejaVuSans-35" x="3966.943359"/>
      <use xlink:href="#DejaVuSans-78" x="4030.566406"/>
      <use xlink:href="#DejaVuSans-78" x="4089.746094"/>
      <use xlink:href="#DejaVuSans-30" x="4148.925781"/>
      <use xlink:href="#DejaVuSans-79" x="4212.548828"/>
      <use xlink:href="#DejaVuSans-79" x="4271.728516"/>
      <use xlink:href="#DejaVuSans-79" x="4330.908203"/>
      <use xlink:href="#DejaVuSans-34" x="4390.087891"/>
      <use xlink:href="#DejaVuSans-35" x="4453.710938"/>
      <use xlink:href="#DejaVuSans-78" x="4517.333984"/>
      <use xlink:href="#DejaVuSans-78" x="4576.513672"/>
      <use xlink:href="#DejaVuSans-30" x="4635.693359"/>
      <use xlink:href="#DejaVuSans-79" x="4699.316406"/>
      <use xlink:href="#DejaVuSans-79" x="4758.496094"/>
      <use xlink:href="#DejaVuSans-79" x="4817.675781"/>
      <use xlink:href="#DejaVuSans-34" x="4876.855469"/>
      <use xlink:href="#DejaVuSans-35" x="4940.478516"/>
      <use xlink:href="#DejaVuSans-29" x="5004.101562"/>
     </g>
    </g>
   </g>
  </g>
 </g>
 <defs>
  <clipPath id="p0ca5d60e5b">
   <rect x="57.6" y="41.472" width="357.12" height="266.112"/>
  </clipPath>
 </defs>
</svg>
