<?xml version="1.0" encoding="utf-8" standalone="no"?>
<!DOCTYPE svg PUBLIC "-//W3C//DTD SVG 1.1//EN"
  "http://www.w3.org/Graphics/SVG/1.1/DTD/svg11.dtd">
<svg xmlns:xlink="http://www.w3.org/1999/xlink" width="460.8pt" height="345.6pt" viewBox="0 0 460.8 345.6" xmlns="http://www.w3.org/2000/svg" version="1.1">
 <metadata>
  <rdf:RDF xmlns:dc="http://purl.org/dc/elements/1.1/" xmlns:cc="http://creativecommons.org/ns#" xmlns:rdf="http://www.w3.org/1999/02/22-rdf-syntax-ns#">
   <cc:Work>
    <dc:type rdf:resource="http://purl.org/dc/dcmitype/StillImage"/>
    <dc:date>2024-03-08T12:51:34.175457</dc:date>
    <dc:format>image/svg+xml</dc:format>
    <dc:creator>
     <cc:Agent>
      <dc:title>Matplotlib v3.8.2, https://matplotlib.org/</dc:title>
     </cc:Agent>
    </dc:creator>
   </cc:Work>
  </rdf:RDF>
 </metadata>
 <defs>
  <style type="text/css">*{stroke-linejoin: round; stroke-linecap: butt}</style>
 </defs>
 <g id="figure_1">
  <g id="patch_1">
   <path d="M 0 345.6 
L 460.8 345.6 
L 460.8 0 
L 0 0 
z
" style="fill: #ffffff"/>
  </g>
  <g id="axes_1">
   <g id="patch_2">
    <path d="M 57.6 307.584 
L 414.72 307.584 
L 414.72 41.472 
L 57.6 41.472 
z
" style="fill: #ffffff"/>
   </g>
   <g id="matplotlib.axis_1">
    <g id="xtick_1">
     <g id="line2d_1">
      <defs>
       <path id="m12a10145dc" d="M 0 0 
L 0 3.5 
" style="stroke: #000000; stroke-width: 0.8"/>
      </defs>
      <g>
       <use xlink:href="#m12a10145dc" x="73.832727" y="307.584" style="stroke: #000000; stroke-width: 0.8"/>
      </g>
     </g>
     <g id="text_1">
      <!-- 0.0 -->
      <g transform="translate(65.881165 322.182437) scale(0.1 -0.1)">
       <defs>
        <path id="DejaVuSans-30" d="M 2034 4250 
Q 1547 4250 1301 3770 
Q 1056 3291 1056 2328 
Q 1056 1369 1301 889 
Q 1547 409 2034 409 
Q 2525 409 2770 889 
Q 3016 1369 3016 2328 
Q 3016 3291 2770 3770 
Q 2525 4250 2034 4250 
z
M 2034 4750 
Q 2819 4750 3233 4129 
Q 3647 3509 3647 2328 
Q 3647 1150 3233 529 
Q 2819 -91 2034 -91 
Q 1250 -91 836 529 
Q 422 1150 422 2328 
Q 422 3509 836 4129 
Q 1250 4750 2034 4750 
z
" transform="scale(0.015625)"/>
        <path id="DejaVuSans-2e" d="M 684 794 
L 1344 794 
L 1344 0 
L 684 0 
L 684 794 
z
" transform="scale(0.015625)"/>
       </defs>
       <use xlink:href="#DejaVuSans-30"/>
       <use xlink:href="#DejaVuSans-2e" x="63.623047"/>
       <use xlink:href="#DejaVuSans-30" x="95.410156"/>
      </g>
     </g>
    </g>
    <g id="xtick_2">
     <g id="line2d_2">
      <g>
       <use xlink:href="#m12a10145dc" x="126.504323" y="307.584" style="stroke: #000000; stroke-width: 0.8"/>
      </g>
     </g>
     <g id="text_2">
      <!-- 0.2 -->
      <g transform="translate(118.55276 322.182437) scale(0.1 -0.1)">
       <defs>
        <path id="DejaVuSans-32" d="M 1228 531 
L 3431 531 
L 3431 0 
L 469 0 
L 469 531 
Q 828 903 1448 1529 
Q 2069 2156 2228 2338 
Q 2531 2678 2651 2914 
Q 2772 3150 2772 3378 
Q 2772 3750 2511 3984 
Q 2250 4219 1831 4219 
Q 1534 4219 1204 4116 
Q 875 4013 500 3803 
L 500 4441 
Q 881 4594 1212 4672 
Q 1544 4750 1819 4750 
Q 2544 4750 2975 4387 
Q 3406 4025 3406 3419 
Q 3406 3131 3298 2873 
Q 3191 2616 2906 2266 
Q 2828 2175 2409 1742 
Q 1991 1309 1228 531 
z
" transform="scale(0.015625)"/>
       </defs>
       <use xlink:href="#DejaVuSans-30"/>
       <use xlink:href="#DejaVuSans-2e" x="63.623047"/>
       <use xlink:href="#DejaVuSans-32" x="95.410156"/>
      </g>
     </g>
    </g>
    <g id="xtick_3">
     <g id="line2d_3">
      <g>
       <use xlink:href="#m12a10145dc" x="179.175918" y="307.584" style="stroke: #000000; stroke-width: 0.8"/>
      </g>
     </g>
     <g id="text_3">
      <!-- 0.4 -->
      <g transform="translate(171.224355 322.182437) scale(0.1 -0.1)">
       <defs>
        <path id="DejaVuSans-34" d="M 2419 4116 
L 825 1625 
L 2419 1625 
L 2419 4116 
z
M 2253 4666 
L 3047 4666 
L 3047 1625 
L 3713 1625 
L 3713 1100 
L 3047 1100 
L 3047 0 
L 2419 0 
L 2419 1100 
L 313 1100 
L 313 1709 
L 2253 4666 
z
" transform="scale(0.015625)"/>
       </defs>
       <use xlink:href="#DejaVuSans-30"/>
       <use xlink:href="#DejaVuSans-2e" x="63.623047"/>
       <use xlink:href="#DejaVuSans-34" x="95.410156"/>
      </g>
     </g>
    </g>
    <g id="xtick_4">
     <g id="line2d_4">
      <g>
       <use xlink:href="#m12a10145dc" x="231.847513" y="307.584" style="stroke: #000000; stroke-width: 0.8"/>
      </g>
     </g>
     <g id="text_4">
      <!-- 0.6 -->
      <g transform="translate(223.895951 322.182437) scale(0.1 -0.1)">
       <defs>
        <path id="DejaVuSans-36" d="M 2113 2584 
Q 1688 2584 1439 2293 
Q 1191 2003 1191 1497 
Q 1191 994 1439 701 
Q 1688 409 2113 409 
Q 2538 409 2786 701 
Q 3034 994 3034 1497 
Q 3034 2003 2786 2293 
Q 2538 2584 2113 2584 
z
M 3366 4563 
L 3366 3988 
Q 3128 4100 2886 4159 
Q 2644 4219 2406 4219 
Q 1781 4219 1451 3797 
Q 1122 3375 1075 2522 
Q 1259 2794 1537 2939 
Q 1816 3084 2150 3084 
Q 2853 3084 3261 2657 
Q 3669 2231 3669 1497 
Q 3669 778 3244 343 
Q 2819 -91 2113 -91 
Q 1303 -91 875 529 
Q 447 1150 447 2328 
Q 447 3434 972 4092 
Q 1497 4750 2381 4750 
Q 2619 4750 2861 4703 
Q 3103 4656 3366 4563 
z
" transform="scale(0.015625)"/>
       </defs>
       <use xlink:href="#DejaVuSans-30"/>
       <use xlink:href="#DejaVuSans-2e" x="63.623047"/>
       <use xlink:href="#DejaVuSans-36" x="95.410156"/>
      </g>
     </g>
    </g>
    <g id="xtick_5">
     <g id="line2d_5">
      <g>
       <use xlink:href="#m12a10145dc" x="284.519108" y="307.584" style="stroke: #000000; stroke-width: 0.8"/>
      </g>
     </g>
     <g id="text_5">
      <!-- 0.8 -->
      <g transform="translate(276.567546 322.182437) scale(0.1 -0.1)">
       <defs>
        <path id="DejaVuSans-38" d="M 2034 2216 
Q 1584 2216 1326 1975 
Q 1069 1734 1069 1313 
Q 1069 891 1326 650 
Q 1584 409 2034 409 
Q 2484 409 2743 651 
Q 3003 894 3003 1313 
Q 3003 1734 2745 1975 
Q 2488 2216 2034 2216 
z
M 1403 2484 
Q 997 2584 770 2862 
Q 544 3141 544 3541 
Q 544 4100 942 4425 
Q 1341 4750 2034 4750 
Q 2731 4750 3128 4425 
Q 3525 4100 3525 3541 
Q 3525 3141 3298 2862 
Q 3072 2584 2669 2484 
Q 3125 2378 3379 2068 
Q 3634 1759 3634 1313 
Q 3634 634 3220 271 
Q 2806 -91 2034 -91 
Q 1263 -91 848 271 
Q 434 634 434 1313 
Q 434 1759 690 2068 
Q 947 2378 1403 2484 
z
M 1172 3481 
Q 1172 3119 1398 2916 
Q 1625 2713 2034 2713 
Q 2441 2713 2670 2916 
Q 2900 3119 2900 3481 
Q 2900 3844 2670 4047 
Q 2441 4250 2034 4250 
Q 1625 4250 1398 4047 
Q 1172 3844 1172 3481 
z
" transform="scale(0.015625)"/>
       </defs>
       <use xlink:href="#DejaVuSans-30"/>
       <use xlink:href="#DejaVuSans-2e" x="63.623047"/>
       <use xlink:href="#DejaVuSans-38" x="95.410156"/>
      </g>
     </g>
    </g>
    <g id="xtick_6">
     <g id="line2d_6">
      <g>
       <use xlink:href="#m12a10145dc" x="337.190704" y="307.584" style="stroke: #000000; stroke-width: 0.8"/>
      </g>
     </g>
     <g id="text_6">
      <!-- 1.0 -->
      <g transform="translate(329.239141 322.182437) scale(0.1 -0.1)">
       <defs>
        <path id="DejaVuSans-31" d="M 794 531 
L 1825 531 
L 1825 4091 
L 703 3866 
L 703 4441 
L 1819 4666 
L 2450 4666 
L 2450 531 
L 3481 531 
L 3481 0 
L 794 0 
L 794 531 
z
" transform="scale(0.015625)"/>
       </defs>
       <use xlink:href="#DejaVuSans-31"/>
       <use xlink:href="#DejaVuSans-2e" x="63.623047"/>
       <use xlink:href="#DejaVuSans-30" x="95.410156"/>
      </g>
     </g>
    </g>
    <g id="xtick_7">
     <g id="line2d_7">
      <g>
       <use xlink:href="#m12a10145dc" x="389.862299" y="307.584" style="stroke: #000000; stroke-width: 0.8"/>
      </g>
     </g>
     <g id="text_7">
      <!-- 1.2 -->
      <g transform="translate(381.910736 322.182437) scale(0.1 -0.1)">
       <use xlink:href="#DejaVuSans-31"/>
       <use xlink:href="#DejaVuSans-2e" x="63.623047"/>
       <use xlink:href="#DejaVuSans-32" x="95.410156"/>
      </g>
     </g>
    </g>
    <g id="text_8">
     <!-- 1e6 -->
     <g transform="translate(395.841875 334.860562) scale(0.1 -0.1)">
      <defs>
       <path id="DejaVuSans-65" d="M 3597 1894 
L 3597 1613 
L 953 1613 
Q 991 1019 1311 708 
Q 1631 397 2203 397 
Q 2534 397 2845 478 
Q 3156 559 3463 722 
L 3463 178 
Q 3153 47 2828 -22 
Q 2503 -91 2169 -91 
Q 1331 -91 842 396 
Q 353 884 353 1716 
Q 353 2575 817 3079 
Q 1281 3584 2069 3584 
Q 2775 3584 3186 3129 
Q 3597 2675 3597 1894 
z
M 3022 2063 
Q 3016 2534 2758 2815 
Q 2500 3097 2075 3097 
Q 1594 3097 1305 2825 
Q 1016 2553 972 2059 
L 3022 2063 
z
" transform="scale(0.015625)"/>
      </defs>
      <use xlink:href="#DejaVuSans-31"/>
      <use xlink:href="#DejaVuSans-65" x="63.623047"/>
      <use xlink:href="#DejaVuSans-36" x="125.146484"/>
     </g>
    </g>
   </g>
   <g id="matplotlib.axis_2">
    <g id="ytick_1">
     <g id="line2d_8">
      <defs>
       <path id="mf7dcbdf2d4" d="M 0 0 
L -3.5 0 
" style="stroke: #000000; stroke-width: 0.8"/>
      </defs>
      <g>
       <use xlink:href="#mf7dcbdf2d4" x="57.6" y="295.488" style="stroke: #000000; stroke-width: 0.8"/>
      </g>
     </g>
     <g id="text_9">
      <!-- 0.0 -->
      <g transform="translate(34.696875 299.287219) scale(0.1 -0.1)">
       <use xlink:href="#DejaVuSans-30"/>
       <use xlink:href="#DejaVuSans-2e" x="63.623047"/>
       <use xlink:href="#DejaVuSans-30" x="95.410156"/>
      </g>
     </g>
    </g>
    <g id="ytick_2">
     <g id="line2d_9">
      <g>
       <use xlink:href="#mf7dcbdf2d4" x="57.6" y="247.104" style="stroke: #000000; stroke-width: 0.8"/>
      </g>
     </g>
     <g id="text_10">
      <!-- 0.2 -->
      <g transform="translate(34.696875 250.903219) scale(0.1 -0.1)">
       <use xlink:href="#DejaVuSans-30"/>
       <use xlink:href="#DejaVuSans-2e" x="63.623047"/>
       <use xlink:href="#DejaVuSans-32" x="95.410156"/>
      </g>
     </g>
    </g>
    <g id="ytick_3">
     <g id="line2d_10">
      <g>
       <use xlink:href="#mf7dcbdf2d4" x="57.6" y="198.72" style="stroke: #000000; stroke-width: 0.8"/>
      </g>
     </g>
     <g id="text_11">
      <!-- 0.4 -->
      <g transform="translate(34.696875 202.519219) scale(0.1 -0.1)">
       <use xlink:href="#DejaVuSans-30"/>
       <use xlink:href="#DejaVuSans-2e" x="63.623047"/>
       <use xlink:href="#DejaVuSans-34" x="95.410156"/>
      </g>
     </g>
    </g>
    <g id="ytick_4">
     <g id="line2d_11">
      <g>
       <use xlink:href="#mf7dcbdf2d4" x="57.6" y="150.336" style="stroke: #000000; stroke-width: 0.8"/>
      </g>
     </g>
     <g id="text_12">
      <!-- 0.6 -->
      <g transform="translate(34.696875 154.135219) scale(0.1 -0.1)">
       <use xlink:href="#DejaVuSans-30"/>
       <use xlink:href="#DejaVuSans-2e" x="63.623047"/>
       <use xlink:href="#DejaVuSans-36" x="95.410156"/>
      </g>
     </g>
    </g>
    <g id="ytick_5">
     <g id="line2d_12">
      <g>
       <use xlink:href="#mf7dcbdf2d4" x="57.6" y="101.952" style="stroke: #000000; stroke-width: 0.8"/>
      </g>
     </g>
     <g id="text_13">
      <!-- 0.8 -->
      <g transform="translate(34.696875 105.751219) scale(0.1 -0.1)">
       <use xlink:href="#DejaVuSans-30"/>
       <use xlink:href="#DejaVuSans-2e" x="63.623047"/>
       <use xlink:href="#DejaVuSans-38" x="95.410156"/>
      </g>
     </g>
    </g>
    <g id="ytick_6">
     <g id="line2d_13">
      <g>
       <use xlink:href="#mf7dcbdf2d4" x="57.6" y="53.568" style="stroke: #000000; stroke-width: 0.8"/>
      </g>
     </g>
     <g id="text_14">
      <!-- 1.0 -->
      <g transform="translate(34.696875 57.367219) scale(0.1 -0.1)">
       <use xlink:href="#DejaVuSans-31"/>
       <use xlink:href="#DejaVuSans-2e" x="63.623047"/>
       <use xlink:href="#DejaVuSans-30" x="95.410156"/>
      </g>
     </g>
    </g>
   </g>
   <g id="line2d_14">
    <path d="M 73.832727 295.488 
L 112.038069 295.488 
L 112.038069 295.085471 
L 112.375167 295.085471 
L 112.375167 294.682942 
L 112.957188 294.682942 
L 112.957188 294.280413 
L 113.312722 294.280413 
L 113.312722 293.877884 
L 113.86314 293.877884 
L 113.86314 293.475354 
L 114.239742 293.475354 
L 114.239742 293.072825 
L 114.774358 293.072825 
L 114.774358 292.670296 
L 115.158861 292.670296 
L 115.158861 292.267767 
L 115.685577 292.267767 
L 115.685577 291.865238 
L 116.088515 291.865238 
L 116.088515 291.462709 
L 116.615231 291.462709 
L 116.615231 291.06018 
L 117.031336 291.06018 
L 117.031336 290.657651 
L 117.531716 290.657651 
L 117.531716 290.255121 
L 117.971524 290.255121 
L 117.971524 289.852592 
L 118.464004 289.852592 
L 118.464004 289.450063 
L 118.880109 289.450063 
L 118.880109 289.047534 
L 119.383123 289.047534 
L 119.383123 288.645005 
L 119.786061 288.645005 
L 119.786061 288.242476 
L 120.294341 288.242476 
L 120.294341 287.839947 
L 120.694646 287.839947 
L 120.694646 287.437418 
L 121.223995 287.437418 
L 121.223995 287.034889 
L 121.619032 287.034889 
L 121.619032 286.632359 
L 122.122046 286.632359 
L 122.122046 286.22983 
L 122.530251 286.22983 
L 122.530251 285.827301 
L 123.035898 285.827301 
L 123.035898 285.424772 
L 123.444103 285.424772 
L 123.444103 285.022243 
L 123.962918 285.022243 
L 123.962918 284.619714 
L 124.379024 284.619714 
L 124.379024 284.217185 
L 124.889938 284.217185 
L 124.889938 283.814656 
L 125.319212 283.814656 
L 125.319212 283.412126 
L 125.79589 283.412126 
L 125.79589 283.009597 
L 126.256766 283.009597 
L 126.256766 282.607068 
L 126.715009 282.607068 
L 126.715009 282.204539 
L 127.191687 282.204539 
L 127.191687 281.80201 
L 127.647296 281.80201 
L 127.647296 281.399481 
L 128.118707 281.399481 
L 128.118707 280.996952 
L 128.569049 280.996952 
L 128.569049 280.594423 
L 129.053628 280.594423 
L 129.053628 280.191894 
L 129.493436 280.191894 
L 129.493436 279.789364 
L 129.985915 279.789364 
L 129.985915 279.386835 
L 130.415189 279.386835 
L 130.415189 278.984306 
L 130.910302 278.984306 
L 130.910302 278.581777 
L 131.339575 278.581777 
L 131.339575 278.179248 
L 131.826787 278.179248 
L 131.826787 277.776719 
L 132.256061 277.776719 
L 132.256061 277.37419 
L 133.177814 277.37419 
L 133.177814 276.971661 
L 133.654492 276.971661 
L 133.654492 276.569131 
L 134.096933 276.569131 
L 134.096933 276.166602 
L 134.573611 276.166602 
L 134.573611 275.764073 
L 135.002884 275.764073 
L 135.002884 275.361544 
L 135.48483 275.361544 
L 135.48483 274.959015 
L 135.642844 274.959015 
L 135.642844 274.556486 
L 135.91937 274.556486 
L 135.91937 274.153957 
L 136.390781 274.153957 
L 136.390781 273.751428 
L 136.561964 273.751428 
L 136.561964 273.348899 
L 136.84639 273.348899 
L 136.84639 272.946369 
L 137.180855 272.946369 
L 137.180855 272.54384 
L 137.3099 272.54384 
L 137.3099 272.141311 
L 137.478449 272.141311 
L 137.478449 271.738782 
L 137.720739 271.738782 
L 137.781311 270.933724 
L 138.231653 270.933724 
L 138.244821 270.128666 
L 138.416004 270.128666 
L 138.416004 269.726136 
L 138.703064 269.726136 
L 138.761003 268.921078 
L 139.169208 268.921078 
L 139.169208 268.518549 
L 139.290352 268.518549 
L 139.311421 267.713491 
L 139.61955 267.713491 
L 139.61955 267.310962 
L 139.827603 267.310962 
L 139.827603 266.908433 
L 140.106762 266.908433 
L 140.106762 266.505903 
L 140.25951 266.505903 
L 140.341151 265.700845 
L 140.557104 265.700845 
L 140.557104 265.298316 
L 140.854699 265.298316 
L 140.854699 264.895787 
L 141.181263 264.895787 
L 141.181263 264.493258 
L 141.378781 264.493258 
L 141.378781 264.090729 
L 141.492025 264.090729 
L 141.492025 263.6882 
L 141.908131 263.6882 
L 141.963436 262.883141 
L 142.103016 262.883141 
L 142.103016 262.480612 
L 142.434847 262.480612 
L 142.434847 261.675554 
L 142.434847 261.675554 
L 142.890456 261.675554 
L 142.964196 260.870496 
L 143.035303 260.870496 
L 143.035303 260.467967 
L 143.375035 260.467967 
L 143.483011 259.662908 
L 143.817476 259.662908 
L 143.817476 259.260379 
L 143.96759 259.260379 
L 144.001827 258.455321 
L 144.275719 258.455321 
L 144.275719 258.052792 
L 144.525909 258.052792 
L 144.525909 257.650263 
L 144.752397 257.650263 
L 144.752397 257.247734 
L 144.89461 257.247734 
L 144.89461 256.845205 
L 145.055258 256.845205 
L 145.055258 256.442676 
L 145.574074 256.442676 
L 145.666249 255.637617 
L 145.832164 255.637617 
L 145.832164 255.235088 
L 146.095522 255.235088 
L 146.116591 254.43003 
L 146.588002 254.43003 
L 146.635406 253.624972 
L 146.74865 253.624972 
L 146.74865 253.222443 
L 147.03571 253.222443 
L 147.03571 252.819913 
L 147.172657 252.819913 
L 147.172657 252.417384 
L 147.501854 252.417384 
L 147.501854 252.014855 
L 147.673037 252.014855 
L 147.699373 251.209797 
L 147.949563 251.209797 
L 147.949563 250.807268 
L 148.210287 250.807268 
L 148.220821 250.00221 
L 148.431508 250.00221 
L 148.431508 249.599681 
L 148.600057 249.599681 
L 148.600057 249.197151 
L 148.755438 249.197151 
L 148.863415 247.989564 
L 149.290055 247.989564 
L 149.371696 247.184506 
L 149.511275 247.184506 
L 149.524443 246.379448 
L 149.787801 246.379448 
L 149.822038 245.574389 
L 150.180205 245.574389 
L 150.27238 244.769331 
L 150.348754 244.769331 
L 150.417227 243.964273 
L 150.714821 243.964273 
L 150.714821 243.561744 
L 150.8465 243.561744 
L 150.94921 242.354156 
L 151.207301 242.354156 
L 151.207301 241.951627 
L 151.331079 241.951627 
L 151.386384 241.146569 
L 151.510162 241.146569 
L 151.510162 240.74404 
L 151.628674 240.74404 
L 151.628674 240.341511 
L 151.847261 240.341511 
L 151.905199 239.536453 
L 152.136954 239.536453 
L 152.16329 238.731394 
L 152.445083 238.731394 
L 152.445083 238.328865 
L 152.558327 238.328865 
L 152.558327 237.926336 
L 152.797983 237.926336 
L 152.824319 237.121278 
L 152.971799 237.121278 
L 152.971799 236.718749 
L 153.477447 236.718749 
L 153.511683 235.511161 
L 153.722369 235.511161 
L 153.722369 235.108632 
L 153.977827 235.108632 
L 154.030498 234.303574 
L 154.141109 234.303574 
L 154.141109 233.901045 
L 154.396566 233.901045 
L 154.396566 233.498516 
L 154.551947 233.498516 
L 154.623054 232.693458 
L 154.79687 232.693458 
L 154.883778 231.888399 
L 155.094464 231.888399 
L 155.094464 231.48587 
L 155.310418 231.48587 
L 155.310418 231.083341 
L 155.447364 231.083341 
L 155.529005 230.278283 
L 155.618547 230.278283 
L 155.618547 229.875754 
L 155.805531 229.875754 
L 155.805531 229.473225 
L 156.097858 229.473225 
L 156.142629 228.668166 
L 156.240072 228.668166 
L 156.240072 228.265637 
L 156.442857 228.265637 
L 156.442857 227.863108 
L 156.674612 227.863108 
L 156.76152 226.655521 
L 157.201328 226.655521 
L 157.201328 226.252992 
L 157.372511 226.252992 
L 157.404114 225.447933 
L 157.68064 225.447933 
L 157.733311 224.642875 
L 158.07831 224.642875 
L 158.07831 224.240346 
L 158.25476 224.240346 
L 158.270562 223.435288 
L 158.615561 223.435288 
L 158.723537 222.63023 
L 158.78411 222.63023 
L 158.78411 222.2277 
L 159.168612 222.2277 
L 159.168612 221.825171 
L 159.308192 221.825171 
L 159.387199 221.020113 
L 159.550481 221.020113 
L 159.550481 220.617584 
L 159.842809 220.617584 
L 159.842809 220.215055 
L 160.048228 220.215055 
L 160.103533 219.409997 
L 160.377425 219.409997 
L 160.488036 218.604938 
L 160.714524 218.604938 
L 160.714524 218.202409 
L 160.912042 218.202409 
L 160.912042 217.79988 
L 161.033187 217.79988 
L 161.033187 217.397351 
L 161.378186 217.397351 
L 161.441392 216.189764 
L 161.95494 216.189764 
L 162.036581 214.982176 
L 162.313107 214.982176 
L 162.313107 214.579647 
L 162.479022 214.579647 
L 162.479022 214.177118 
L 162.697609 214.177118 
L 162.697609 213.774589 
L 162.88196 213.774589 
L 162.88196 213.37206 
L 163.005738 213.37206 
L 163.005738 212.969531 
L 163.240127 212.969531 
L 163.240127 212.567002 
L 163.361271 212.567002 
L 163.361271 212.164473 
L 163.524553 212.164473 
L 163.524553 211.761943 
L 163.782644 211.761943 
L 163.782644 211.359414 
L 164.014399 211.359414 
L 164.048636 210.554356 
L 164.143445 210.554356 
L 164.143445 210.151827 
L 164.575352 210.151827 
L 164.575352 209.749298 
L 164.691229 209.749298 
L 164.720199 208.94424 
L 165.067831 208.94424 
L 165.099434 208.139181 
L 165.349624 208.139181 
L 165.349624 207.736652 
L 165.618249 207.736652 
L 165.62615 206.931594 
L 165.992218 206.931594 
L 166.021187 206.126536 
L 166.134431 206.126536 
L 166.134431 205.724007 
L 166.534735 205.724007 
L 166.534735 205.321478 
L 166.650612 205.321478 
L 166.695383 204.516419 
L 166.919238 204.516419 
L 166.919238 204.11389 
L 167.182596 204.11389 
L 167.182596 203.711361 
L 167.464389 203.711361 
L 167.464389 203.308832 
L 167.711945 203.308832 
L 167.711945 202.906303 
L 167.848891 202.906303 
L 167.848891 202.503774 
L 168.249195 202.503774 
L 168.249195 202.101245 
L 168.399309 202.101245 
L 168.399309 201.698715 
L 168.768011 201.698715 
L 168.775911 200.893657 
L 169.292093 200.893657 
L 169.29736 200.088599 
L 169.671328 200.088599 
L 169.671328 199.68607 
L 169.810908 199.68607 
L 169.810908 199.283541 
L 170.329723 199.283541 
L 170.329723 198.881012 
L 170.590448 198.881012 
L 170.590448 198.478483 
L 170.86434 198.478483 
L 170.86434 198.075953 
L 171.385789 198.075953 
L 171.385789 197.673424 
L 171.512201 197.673424 
L 171.512201 197.270895 
L 171.920406 197.270895 
L 171.920406 196.868366 
L 172.439221 196.868366 
L 172.455022 196.063308 
L 172.989639 196.063308 
L 172.989639 195.660779 
L 173.353073 195.660779 
L 173.353073 195.25825 
L 174.045704 195.25825 
L 174.045704 194.85572 
L 174.290627 194.85572 
L 174.290627 194.453191 
L 174.575054 194.453191 
L 174.575054 194.050662 
L 175.091236 194.050662 
L 175.091236 193.648133 
L 175.209747 193.648133 
L 175.209747 193.245604 
L 175.628486 193.245604 
L 175.628486 192.843075 
L 176.681918 192.843075 
L 176.681918 192.440546 
L 177.213901 192.440546 
L 177.213901 192.038017 
L 177.398252 192.038017 
L 177.398252 191.635488 
L 177.740617 191.635488 
L 177.740617 191.232958 
L 178.259432 191.232958 
L 178.320004 190.4279 
L 178.551759 190.4279 
L 178.551759 190.025371 
L 178.783514 190.025371 
L 178.783514 189.622842 
L 179.23649 189.622842 
L 179.318131 188.817784 
L 179.491947 188.817784 
L 179.491947 188.415255 
L 179.834313 188.415255 
L 179.850114 187.610196 
L 180.166144 187.610196 
L 180.166144 187.207667 
L 180.374197 187.207667 
L 180.424235 186.402609 
L 180.487441 186.402609 
L 180.487441 186.00008 
L 180.903546 186.00008 
L 180.903546 185.597551 
L 181.074729 185.597551 
L 181.153736 184.792493 
L 181.322285 184.792493 
L 181.430262 183.987434 
L 181.79633 183.987434 
L 181.79633 183.584905 
L 181.964879 183.584905 
L 181.996482 182.779847 
L 182.23087 182.779847 
L 182.23087 182.377318 
L 182.465259 182.377318 
L 182.507396 181.57226 
L 182.897166 181.57226 
L 182.897166 181.16973 
L 183.031479 181.16973 
L 183.110486 180.364672 
L 183.152623 180.364672 
L 183.152623 179.962143 
L 183.545027 179.962143 
L 183.545027 179.559614 
L 183.76098 179.559614 
L 183.76098 179.157085 
L 184.069109 179.157085 
L 184.082277 178.352027 
L 184.414108 178.352027 
L 184.414108 177.949498 
L 184.587924 177.949498 
L 184.587924 177.546968 
L 184.985595 177.546968 
L 185.061969 176.74191 
L 185.109373 176.74191 
L 185.109373 176.339381 
L 185.636089 176.339381 
L 185.715096 175.534323 
L 185.923149 175.534323 
L 185.923149 175.131794 
L 186.175973 175.131794 
L 186.175973 174.729265 
L 186.381392 174.729265 
L 186.381392 174.326735 
L 186.700055 174.326735 
L 186.700055 173.924206 
L 186.823833 173.924206 
L 186.823833 173.521677 
L 187.037153 173.521677 
L 187.037153 173.119148 
L 187.226771 173.119148 
L 187.226771 172.716619 
L 187.685014 172.716619 
L 187.745586 171.509032 
L 188.267035 171.509032 
L 188.338142 170.703973 
L 188.662072 170.703973 
L 188.662072 170.301444 
L 188.780583 170.301444 
L 188.780583 169.898915 
L 188.996537 169.898915 
L 188.996537 169.496386 
L 189.307299 169.496386 
L 189.307299 169.093857 
L 189.596993 169.093857 
L 189.6681 168.288799 
L 189.836649 168.288799 
L 189.836649 167.88627 
L 190.313327 167.88627 
L 190.35283 167.081211 
L 190.510845 167.081211 
L 190.510845 166.678682 
L 190.884813 166.678682 
L 190.979622 165.873624 
L 191.153439 165.873624 
L 191.153439 165.471095 
L 191.416797 165.471095 
L 191.432598 164.666037 
L 191.635384 164.666037 
L 191.635384 164.263507 
L 191.927711 164.263507 
L 191.927711 163.860978 
L 192.072558 163.860978 
L 192.072558 163.458449 
L 192.33855 163.458449 
L 192.446526 162.653391 
L 192.965341 162.653391 
L 192.996944 161.848333 
L 193.247135 161.848333 
L 193.247135 161.445804 
L 193.494691 161.445804 
L 193.494691 161.043275 
L 193.937132 161.043275 
L 194.01614 160.238216 
L 194.176788 160.238216 
L 194.176788 159.835687 
L 194.540222 159.835687 
L 194.540222 159.433158 
L 195.066938 159.433158 
L 195.122243 158.6281 
L 196.04663 158.6281 
L 196.04663 158.225571 
L 196.963116 158.225571 
L 196.963116 157.823042 
L 197.895403 157.823042 
L 197.895403 157.420512 
L 198.832957 157.420512 
L 198.832957 157.017983 
L 199.738909 157.017983 
L 199.738909 156.615454 
L 200.313029 156.615454 
L 200.313029 156.212925 
L 200.64486 156.212925 
L 200.64486 155.810396 
L 200.842379 155.810396 
L 200.842379 155.407867 
L 201.366461 155.407867 
L 201.366461 155.005338 
L 201.542911 155.005338 
L 201.542911 154.602809 
L 201.893177 154.602809 
L 201.893177 154.20028 
L 202.409359 154.20028 
L 202.459397 153.395221 
L 203.375882 153.395221 
L 203.375882 152.992692 
L 204.121185 152.992692 
L 204.121185 152.590163 
L 204.295002 152.590163 
L 204.295002 152.187634 
L 205.053473 152.187634 
L 205.053473 151.785105 
L 205.227289 151.785105 
L 205.227289 151.382576 
L 205.977859 151.382576 
L 205.977859 150.980047 
L 206.16221 150.980047 
L 206.16221 150.577517 
L 206.812704 150.577517 
L 206.899612 149.772459 
L 207.08923 149.772459 
L 207.08923 149.36993 
L 207.481633 149.36993 
L 207.481633 148.967401 
L 207.829266 148.967401 
L 207.829266 148.564872 
L 208.01625 148.564872 
L 208.01625 148.162343 
L 208.134761 148.162343 
L 208.134761 147.759814 
L 208.764187 147.759814 
L 208.774721 146.954755 
L 208.927468 146.954755 
L 208.927468 146.552226 
L 209.425215 146.552226 
L 209.425215 146.149697 
L 209.678039 146.149697 
L 209.678039 145.747168 
L 209.859756 145.747168 
L 209.859756 145.344639 
L 210.091511 145.344639 
L 210.091511 144.94211 
L 210.594524 144.94211 
L 210.594524 144.539581 
L 210.76044 144.539581 
L 210.768341 143.734522 
L 211.403033 143.734522 
L 211.513644 142.929464 
L 211.703262 142.929464 
L 211.703262 142.526935 
L 212.448565 142.526935 
L 212.448565 142.124406 
L 212.609213 142.124406 
L 212.609213 141.721877 
L 213.367684 141.721877 
L 213.39402 140.916819 
L 213.536233 140.916819 
L 213.536233 140.51429 
L 213.920736 140.51429 
L 213.920736 140.11176 
L 214.28417 140.11176 
L 214.28417 139.709231 
L 214.452719 139.709231 
L 214.486955 138.904173 
L 214.966267 138.904173 
L 214.966267 138.501644 
L 215.205923 138.501644 
L 215.205923 138.099115 
L 215.403441 138.099115 
L 215.49825 137.294057 
L 216.022332 137.294057 
L 216.022332 136.891527 
L 216.335728 136.891527 
L 216.335728 136.488998 
L 216.546415 136.488998 
L 216.546415 136.086469 
L 217.075764 136.086469 
L 217.075764 135.68394 
L 217.260115 135.68394 
L 217.260115 135.281411 
L 217.594579 135.281411 
L 217.594579 134.878882 
L 218.129196 134.878882 
L 218.171333 134.073824 
L 218.666446 134.073824 
L 218.666446 133.671295 
L 219.072018 133.671295 
L 219.072018 133.268765 
L 219.19843 133.268765 
L 219.19843 132.866236 
L 219.722512 132.866236 
L 219.722512 132.463707 
L 219.980603 132.463707 
L 219.980603 132.061178 
L 220.23606 132.061178 
L 220.23606 131.658649 
L 220.762776 131.658649 
L 220.762776 131.25612 
L 220.910256 131.25612 
L 220.910256 130.853591 
L 221.289492 130.853591 
L 221.289492 130.451062 
L 221.800406 130.451062 
L 221.837276 129.646003 
L 221.955788 129.646003 
L 221.955788 129.243474 
L 222.329756 129.243474 
L 222.329756 128.840945 
L 222.614182 128.840945 
L 222.614182 128.438416 
L 222.748495 128.438416 
L 222.859105 127.633358 
L 223.26731 127.633358 
L 223.26731 127.230829 
L 223.396356 127.230829 
L 223.396356 126.8283 
L 223.915171 126.8283 
L 223.915171 126.023241 
L 223.915171 126.023241 
L 224.43662 126.023241 
L 224.43662 125.620712 
L 224.5841 125.620712 
L 224.5841 125.218183 
L 224.968603 125.218183 
L 224.968603 124.815654 
L 225.247762 124.815654 
L 225.247762 124.413125 
L 225.497952 124.413125 
L 225.497952 124.010596 
L 225.914058 124.010596 
L 225.914058 123.608067 
L 226.561919 123.608067 
L 226.561919 123.205537 
L 227.220313 123.205537 
L 227.220313 122.803008 
L 227.89451 122.803008 
L 227.89451 122.400479 
L 228.545004 122.400479 
L 228.545004 121.99795 
L 229.221834 121.99795 
L 229.221834 121.595421 
L 229.880229 121.595421 
L 229.880229 121.192892 
L 230.52809 121.192892 
L 230.52809 120.790363 
L 231.186485 120.790363 
L 231.186485 120.387834 
L 231.85278 120.387834 
L 231.85278 119.985304 
L 238.426195 119.985304 
L 238.426195 119.582775 
L 239.063522 119.582775 
L 239.063522 119.180246 
L 239.33478 119.180246 
L 239.33478 118.777717 
L 239.721917 118.777717 
L 239.721917 118.375188 
L 239.856229 118.375188 
L 239.856229 117.972659 
L 240.36451 117.972659 
L 240.382945 117.167601 
L 240.914928 117.167601 
L 240.914928 116.765072 
L 241.033439 116.765072 
L 241.033439 116.362542 
L 241.439011 116.362542 
L 241.439011 115.960013 
L 241.6813 115.960013 
L 241.6813 115.557484 
L 241.955192 115.557484 
L 241.955192 115.154955 
L 242.476641 115.154955 
L 242.476641 114.752426 
L 243.013891 114.752426 
L 243.013891 114.349897 
L 243.540607 114.349897 
L 243.540607 113.947368 
L 244.062056 113.947368 
L 244.062056 113.544839 
L 244.588772 113.544839 
L 244.588772 113.142309 
L 245.110221 113.142309 
L 245.110221 112.73978 
L 245.63957 112.73978 
L 245.63957 112.337251 
L 246.163653 112.337251 
L 246.163653 111.934722 
L 246.687735 111.934722 
L 246.687735 111.532193 
L 247.19865 111.532193 
L 247.19865 111.129664 
L 247.727999 111.129664 
L 247.727999 110.727135 
L 248.262616 110.727135 
L 248.262616 110.324606 
L 248.786698 110.324606 
L 248.786698 109.922077 
L 249.326582 109.922077 
L 249.326582 109.519547 
L 249.861199 109.519547 
L 249.861199 109.117018 
L 250.385281 109.117018 
L 250.385281 108.714489 
L 250.909363 108.714489 
L 250.909363 108.31196 
L 251.451881 108.31196 
L 251.451881 107.909431 
L 251.98123 107.909431 
L 251.98123 107.506902 
L 252.513214 107.506902 
L 252.513214 107.104373 
L 253.029395 107.104373 
L 253.029395 106.701844 
L 253.558745 106.701844 
L 253.558745 106.299314 
L 254.074926 106.299314 
L 254.074926 105.896785 
L 254.61481 105.896785 
L 254.61481 105.494256 
L 255.14416 105.494256 
L 255.14416 105.091727 
L 255.673509 105.091727 
L 255.673509 104.689198 
L 256.192324 104.689198 
L 256.192324 104.286669 
L 256.721674 104.286669 
L 256.721674 103.88414 
L 257.235222 103.88414 
L 257.235222 103.481611 
L 257.754037 103.481611 
L 257.754037 103.079082 
L 258.288654 103.079082 
L 258.288654 102.676552 
L 258.823271 102.676552 
L 258.823271 102.274023 
L 259.342086 102.274023 
L 259.342086 101.871494 
L 259.876703 101.871494 
L 259.876703 101.468965 
L 260.406052 101.468965 
L 260.406052 101.066436 
L 260.932768 101.066436 
L 260.932768 100.663907 
L 261.459484 100.663907 
L 261.459484 100.261378 
L 261.983566 100.261378 
L 261.983566 99.858849 
L 262.510282 99.858849 
L 262.510282 99.456319 
L 263.039632 99.456319 
L 263.039632 99.05379 
L 263.555813 99.05379 
L 263.555813 98.651261 
L 264.087797 98.651261 
L 264.087797 98.248732 
L 264.61978 98.248732 
L 264.61978 97.846203 
L 265.159664 97.846203 
L 265.159664 97.443674 
L 265.689013 97.443674 
L 265.689013 97.041145 
L 266.215729 97.041145 
L 266.215729 96.638616 
L 266.734544 96.638616 
L 266.734544 96.236087 
L 267.258627 96.236087 
L 267.369237 95.431028 
L 267.785343 95.431028 
L 267.785343 95.028499 
L 268.019731 95.028499 
L 268.019731 94.62597 
L 268.312059 94.62597 
L 268.312059 94.223441 
L 268.686027 94.223441 
L 268.686027 93.820912 
L 268.833507 93.820912 
L 268.833507 93.418383 
L 269.354956 93.418383 
L 269.354956 92.613324 
L 269.354956 92.613324 
L 270.00545 92.613324 
L 270.00545 92.210795 
L 270.661212 92.210795 
L 270.661212 91.808266 
L 271.311706 91.808266 
L 271.311706 91.405737 
L 271.477621 91.405737 
L 271.477621 91.003208 
L 271.972734 91.003208 
L 271.99907 90.19815 
L 272.520519 90.19815 
L 272.623229 89.393092 
L 273.044601 89.393092 
L 273.044601 88.990562 
L 273.27899 88.990562 
L 273.27899 88.588033 
L 273.568684 88.588033 
L 273.568684 88.185504 
L 273.934751 88.185504 
L 273.934751 87.782975 
L 274.098033 87.782975 
L 274.098033 87.380446 
L 274.590513 87.380446 
L 274.622116 86.575388 
L 275.143564 86.575388 
L 275.254175 85.770329 
L 275.667647 85.770329 
L 275.667647 85.3678 
L 275.907303 85.3678 
L 275.907303 84.965271 
L 276.194363 84.965271 
L 276.194363 84.562742 
L 276.713178 84.562742 
L 276.713178 84.160213 
L 277.242528 84.160213 
L 277.242528 83.757684 
L 277.769243 83.757684 
L 277.769243 83.355155 
L 278.293326 83.355155 
L 278.293326 82.952626 
L 278.825309 82.952626 
L 278.825309 82.550097 
L 279.357292 82.550097 
L 279.357292 82.147567 
L 279.876107 82.147567 
L 279.876107 81.745038 
L 280.402823 81.745038 
L 280.402823 81.342509 
L 280.921638 81.342509 
L 280.921638 80.93998 
L 281.448354 80.93998 
L 281.448354 80.537451 
L 281.982971 80.537451 
L 281.982971 80.134922 
L 282.507053 80.134922 
L 282.507053 79.732393 
L 283.025869 79.732393 
L 283.025869 79.329864 
L 285.780593 79.329864 
L 285.780593 78.927334 
L 286.444255 78.927334 
L 286.444255 78.524805 
L 287.097383 78.524805 
L 287.097383 78.122276 
L 287.758412 78.122276 
L 287.758412 77.719747 
L 288.414173 77.719747 
L 288.414173 77.317218 
L 289.083102 77.317218 
L 289.083102 76.914689 
L 289.730963 76.914689 
L 289.730963 76.51216 
L 290.399892 76.51216 
L 290.399892 76.109631 
L 291.060921 76.109631 
L 291.060921 75.707101 
L 291.735117 75.707101 
L 291.735117 75.304572 
L 292.382978 75.304572 
L 292.382978 74.902043 
L 293.025571 74.902043 
L 293.025571 74.499514 
L 293.525951 74.499514 
L 293.525951 74.096985 
L 293.691867 74.096985 
L 293.691867 73.694456 
L 294.042133 73.694456 
L 294.042133 73.291927 
L 294.36343 73.291927 
L 294.36343 72.889398 
L 294.566215 72.889398 
L 294.566215 72.486869 
L 295.032359 72.486869 
L 295.090298 71.68181 
L 295.609113 71.68181 
L 295.693387 70.876752 
L 296.138462 70.876752 
L 296.138462 70.474223 
L 296.673079 70.474223 
L 296.673079 70.071694 
L 297.205062 70.071694 
L 297.205062 69.669165 
L 297.71861 69.669165 
L 297.71861 69.266636 
L 298.240059 69.266636 
L 298.240059 68.864106 
L 298.756241 68.864106 
L 298.756241 68.461577 
L 299.28559 68.461577 
L 299.28559 68.059048 
L 299.812306 68.059048 
L 299.812306 67.656519 
L 300.341656 67.656519 
L 300.341656 67.25399 
L 300.871005 67.25399 
L 300.871005 66.851461 
L 301.392454 66.851461 
L 301.392454 66.448932 
L 309.306361 66.448932 
L 309.306361 66.046403 
L 309.835711 66.046403 
L 309.835711 65.643874 
L 310.367694 65.643874 
L 310.367694 65.241344 
L 310.910211 65.241344 
L 310.910211 64.838815 
L 311.436927 64.838815 
L 311.436927 64.436286 
L 311.974177 64.436286 
L 311.974177 64.033757 
L 312.495626 64.033757 
L 312.495626 63.631228 
L 313.030243 63.631228 
L 313.030243 63.228699 
L 313.551692 63.228699 
L 313.551692 62.82617 
L 314.075774 62.82617 
L 314.075774 62.423641 
L 314.610391 62.423641 
L 314.610391 62.021111 
L 315.129206 62.021111 
L 315.129206 61.618582 
L 315.66909 61.618582 
L 315.66909 61.216053 
L 316.193172 61.216053 
L 316.193172 60.813524 
L 316.711987 60.813524 
L 316.711987 60.410995 
L 317.238703 60.410995 
L 317.238703 60.008466 
L 317.760152 60.008466 
L 317.760152 59.605937 
L 318.286868 59.605937 
L 318.286868 59.203408 
L 318.813584 59.203408 
L 318.813584 58.800879 
L 319.329766 58.800879 
L 319.329766 58.398349 
L 319.861749 58.398349 
L 319.861749 57.99582 
L 320.380564 57.99582 
L 320.380564 57.593291 
L 320.904646 57.593291 
L 320.904646 57.190762 
L 321.418195 57.190762 
L 321.418195 56.788233 
L 347.798763 56.788233 
L 347.798763 56.385704 
L 348.475593 56.385704 
L 348.475593 55.983175 
L 349.131354 55.983175 
L 349.131354 55.580646 
L 349.795016 55.580646 
L 349.795016 55.178116 
L 350.453411 55.178116 
L 350.453411 54.775587 
L 351.106539 54.775587 
L 351.106539 54.373058 
L 351.770201 54.373058 
L 351.770201 53.970529 
L 352.420695 53.970529 
L 352.420695 53.568 
L 352.420695 53.568 
" clip-path="url(#pe74bfd8fec)" style="fill: none; stroke: #1f77b4; stroke-width: 1.5; stroke-linecap: square"/>
   </g>
   <g id="line2d_15">
    <path d="M 73.832727 295.488 
L 123.494141 295.488 
L 123.494141 295.082774 
L 124.165704 295.082774 
L 124.165704 294.677548 
L 124.821465 294.677548 
L 124.821465 294.272322 
L 125.498295 294.272322 
L 125.498295 293.867095 
L 126.146156 293.867095 
L 126.146156 293.461869 
L 126.812451 293.461869 
L 126.812451 293.056643 
L 127.460312 293.056643 
L 127.460312 292.651417 
L 128.11344 292.651417 
L 128.11344 292.246191 
L 128.782369 292.246191 
L 128.782369 291.840965 
L 129.443398 291.840965 
L 129.443398 291.435739 
L 130.104426 291.435739 
L 130.104426 291.030513 
L 130.744386 291.030513 
L 130.744386 290.625286 
L 131.389613 290.625286 
L 131.389613 290.22006 
L 132.053275 290.22006 
L 132.053275 289.814834 
L 132.698502 289.814834 
L 132.698502 289.409608 
L 133.35163 289.409608 
L 133.35163 289.004382 
L 134.002124 289.004382 
L 134.002124 288.599156 
L 134.665786 288.599156 
L 134.665786 288.19393 
L 135.313647 288.19393 
L 135.313647 287.788704 
L 135.990477 287.788704 
L 135.990477 287.383477 
L 136.648872 287.383477 
L 136.648872 286.978251 
L 137.315167 286.978251 
L 137.315167 286.573025 
L 137.963028 286.573025 
L 137.963028 286.167799 
L 138.605622 286.167799 
L 138.605622 285.762573 
L 139.261383 285.762573 
L 139.261383 285.357347 
L 139.914511 285.357347 
L 139.914511 284.952121 
L 140.58344 284.952121 
L 140.58344 284.546894 
L 141.226033 284.546894 
L 141.226033 284.141668 
L 141.884428 284.141668 
L 141.884428 283.736442 
L 142.532289 283.736442 
L 142.532289 283.331216 
L 143.18805 283.331216 
L 143.18805 282.92599 
L 143.82801 282.92599 
L 143.82801 282.520764 
L 144.478504 282.520764 
L 144.478504 282.115538 
L 145.139533 282.115538 
L 145.139533 281.710312 
L 145.803195 281.710312 
L 145.803195 281.305085 
L 146.469491 281.305085 
L 146.469491 280.899859 
L 147.125252 280.899859 
L 147.125252 280.494633 
L 147.77838 280.494633 
L 147.77838 280.089407 
L 148.428874 280.089407 
L 148.428874 279.684181 
L 149.079368 279.684181 
L 149.079368 279.278955 
L 149.73513 279.278955 
L 149.73513 278.873729 
L 150.401425 278.873729 
L 150.401425 278.468503 
L 151.049286 278.468503 
L 151.049286 278.063276 
L 151.705047 278.063276 
L 151.705047 277.65805 
L 152.368709 277.65805 
L 152.368709 277.252824 
L 153.045539 277.252824 
L 153.045539 276.847598 
L 153.698667 276.847598 
L 153.698667 276.442372 
L 154.367596 276.442372 
L 154.367596 276.037146 
L 155.036526 276.037146 
L 155.036526 275.63192 
L 155.705455 275.63192 
L 155.705455 275.226693 
L 156.371751 275.226693 
L 156.371751 274.821467 
L 157.035413 274.821467 
L 157.035413 274.416241 
L 158.339035 274.416241 
L 158.339035 274.011015 
L 158.99743 274.011015 
L 158.99743 273.605789 
L 159.64529 273.605789 
L 159.64529 273.200563 
L 160.32212 273.200563 
L 160.32212 272.795337 
L 160.975248 272.795337 
L 160.975248 272.390111 
L 161.631009 272.390111 
L 161.631009 271.984884 
L 162.281504 271.984884 
L 162.281504 271.579658 
L 162.9557 271.579658 
L 162.9557 271.174432 
L 163.624629 271.174432 
L 163.624629 270.769206 
L 164.298826 270.769206 
L 164.298826 270.36398 
L 164.946686 270.36398 
L 164.946686 269.958754 
L 165.602448 269.958754 
L 165.602448 269.553528 
L 165.994851 269.553528 
L 165.994851 269.148302 
L 166.252942 269.148302 
L 166.252942 268.743075 
L 166.508399 268.743075 
L 166.508399 268.337849 
L 166.911337 268.337849 
L 166.911337 267.932623 
L 167.040382 267.932623 
L 167.040382 267.527397 
L 167.556564 267.527397 
L 167.5829 266.716945 
L 168.085913 266.716945 
L 168.085913 266.311719 
L 168.251829 266.311719 
L 168.251829 265.906492 
L 168.615263 265.906492 
L 168.615263 265.501266 
L 168.915491 265.501266 
L 168.915491 265.09604 
L 169.131445 265.09604 
L 169.131445 264.690814 
L 169.57652 264.690814 
L 169.671328 263.880362 
L 170.200678 263.880362 
L 170.227014 263.06991 
L 170.719493 263.06991 
L 170.719493 262.664683 
L 170.874874 262.664683 
L 170.874874 262.259457 
L 171.251476 262.259457 
L 171.251476 261.854231 
L 171.530636 261.854231 
L 171.530636 261.449005 
L 171.79136 261.449005 
L 171.79136 261.043779 
L 172.189031 261.043779 
L 172.189031 260.638553 
L 172.32071 260.638553 
L 172.32071 260.233327 
L 172.839525 260.233327 
L 172.855326 259.422874 
L 173.366241 259.422874 
L 173.366241 259.017648 
L 173.524256 259.017648 
L 173.524256 258.612422 
L 173.892957 258.612422 
L 173.892957 258.207196 
L 174.182651 258.207196 
L 174.182651 257.80197 
L 174.414406 257.80197 
L 174.414406 257.396744 
L 174.843679 257.396744 
L 174.943755 256.586291 
L 175.465204 256.586291 
L 175.515242 255.775839 
L 175.999821 255.775839 
L 175.999821 255.370613 
L 176.171003 255.370613 
L 176.171003 254.965387 
L 176.526537 254.965387 
L 176.526537 254.560161 
L 176.826765 254.560161 
L 176.826765 254.154935 
L 177.05852 254.154935 
L 177.05852 253.749709 
L 177.482526 253.749709 
L 177.587869 252.939256 
L 178.098784 252.939256 
L 178.154089 252.128804 
L 178.638668 252.128804 
L 178.638668 251.723578 
L 178.828285 251.723578 
L 178.828285 251.318352 
L 179.160116 251.318352 
L 179.160116 250.913126 
L 179.494581 250.913126 
L 179.494581 250.507899 
L 179.702634 250.507899 
L 179.702634 250.102673 
L 180.134541 250.102673 
L 180.242518 249.292221 
L 180.771867 249.292221 
L 180.808737 248.481769 
L 181.293316 248.481769 
L 181.293316 248.076543 
L 181.464499 248.076543 
L 181.464499 247.671317 
L 181.812131 247.671317 
L 181.812131 247.26609 
L 182.117626 247.26609 
L 182.117626 246.860864 
L 182.346748 246.860864 
L 182.346748 246.455638 
L 182.789189 246.455638 
L 182.873464 245.645186 
L 183.413348 245.645186 
L 183.450218 244.834734 
L 183.93743 244.834734 
L 183.93743 244.429508 
L 184.11388 244.429508 
L 184.11388 244.024281 
L 184.46678 244.024281 
L 184.46678 243.619055 
L 184.785443 243.619055 
L 184.785443 243.213829 
L 184.985595 243.213829 
L 184.985595 242.808603 
L 185.435937 242.808603 
L 185.507044 241.998151 
L 186.023225 241.998151 
L 186.104866 241.187698 
L 186.547308 241.187698 
L 186.547308 240.782472 
L 186.776429 240.782472 
L 186.776429 240.377246 
L 187.076657 240.377246 
L 187.076657 239.97202 
L 187.429557 239.97202 
L 187.429557 239.566794 
L 187.590205 239.566794 
L 187.590205 239.161568 
L 188.085318 239.161568 
L 188.116921 238.351116 
L 188.643637 238.351116 
L 188.735812 237.540663 
L 189.170353 237.540663 
L 189.170353 237.135437 
L 189.383673 237.135437 
L 189.383673 236.730211 
L 189.707603 236.730211 
L 189.707603 236.324985 
L 190.047335 236.324985 
L 190.047335 235.919759 
L 190.226419 235.919759 
L 190.226419 235.514533 
L 190.70573 235.514533 
L 190.747867 234.70408 
L 191.261415 234.70408 
L 191.261415 234.298854 
L 191.374659 234.298854 
L 191.374659 233.893628 
L 191.782864 233.893628 
L 191.782864 233.488402 
L 192.019886 233.488402 
L 192.019886 233.083176 
L 192.30958 233.083176 
L 192.30958 232.67795 
L 192.670381 232.67795 
L 192.670381 232.272724 
L 192.831029 232.272724 
L 192.831029 231.867497 
L 193.320875 231.867497 
L 193.363012 231.057045 
L 193.887094 231.057045 
L 193.992438 230.246593 
L 194.40591 230.246593 
L 194.40591 229.841367 
L 194.640298 229.841367 
L 194.640298 229.436141 
L 194.927358 229.436141 
L 194.927358 229.030915 
L 195.293426 229.030915 
L 195.293426 228.625688 
L 195.454074 228.625688 
L 195.454074 228.220462 
L 195.970256 228.220462 
L 195.991325 227.41001 
L 196.528575 227.41001 
L 196.626017 226.599558 
L 197.052657 226.599558 
L 197.052657 226.194332 
L 197.29758 226.194332 
L 197.29758 225.789106 
L 197.57674 225.789106 
L 197.57674 225.383879 
L 197.955975 225.383879 
L 197.955975 224.978653 
L 198.092921 224.978653 
L 198.092921 224.573427 
L 198.619637 224.573427 
L 198.622271 223.762975 
L 199.15162 223.762975 
L 199.15162 223.357749 
L 199.280666 223.357749 
L 199.280666 222.952523 
L 199.673069 222.952523 
L 199.673069 222.547296 
L 199.939061 222.547296 
L 199.939061 222.14207 
L 200.197152 222.14207 
L 200.197152 221.736844 
L 200.600089 221.736844 
L 200.600089 221.331618 
L 200.726501 221.331618 
L 200.726501 220.926392 
L 201.255851 220.926392 
L 201.263751 220.11594 
L 201.779933 220.11594 
L 201.779933 219.710714 
L 201.92478 219.710714 
L 201.92478 219.305487 
L 202.309282 219.305487 
L 202.309282 218.900261 
L 202.577908 218.900261 
L 202.577908 218.495035 
L 202.833365 218.495035 
L 202.833365 218.089809 
L 203.225768 218.089809 
L 203.225768 217.684583 
L 203.370615 217.684583 
L 203.370615 217.279357 
L 203.878896 217.279357 
L 203.894698 216.468905 
L 204.424047 216.468905 
L 204.532024 215.658452 
L 204.963931 215.658452 
L 204.963931 215.253226 
L 205.174617 215.253226 
L 205.174617 214.848 
L 205.488013 214.848 
L 205.488013 214.442774 
L 206.006828 214.442774 
L 206.006828 214.037548 
L 206.546712 214.037548 
L 206.546712 213.632322 
L 207.083963 213.632322 
L 207.083963 213.227095 
L 207.608045 213.227095 
L 207.608045 212.821869 
L 208.134761 212.821869 
L 208.134761 212.416643 
L 208.658843 212.416643 
L 208.658843 212.011417 
L 209.196094 212.011417 
L 209.196094 211.606191 
L 209.712275 211.606191 
L 209.712275 211.200965 
L 210.244258 211.200965 
L 210.244258 210.795739 
L 210.768341 210.795739 
L 210.768341 210.390513 
L 211.302957 210.390513 
L 211.302957 209.985286 
L 211.845475 209.985286 
L 211.845475 209.58006 
L 212.382725 209.58006 
L 212.382725 209.174834 
L 212.906807 209.174834 
L 212.906807 208.769608 
L 213.436157 208.769608 
L 213.436157 208.364382 
L 213.952339 208.364382 
L 213.952339 207.959156 
L 214.473787 207.959156 
L 214.473787 207.55393 
L 215.008404 207.55393 
L 215.008404 207.148704 
L 215.548288 207.148704 
L 215.548288 206.743477 
L 216.075004 206.743477 
L 216.075004 206.338251 
L 216.609621 206.338251 
L 216.609621 205.933025 
L 217.146871 205.933025 
L 217.146871 205.527799 
L 217.660419 205.527799 
L 217.660419 205.122573 
L 218.197669 205.122573 
L 218.197669 204.717347 
L 218.716484 204.717347 
L 218.716484 204.312121 
L 219.208964 204.312121 
L 219.2432 203.501668 
L 219.738313 203.501668 
L 219.762016 202.691216 
L 220.278197 202.691216 
L 220.293999 201.880764 
L 220.799646 201.880764 
L 220.818081 201.070312 
L 221.326362 201.070312 
L 221.33953 200.259859 
L 221.853078 200.259859 
L 221.868879 199.449407 
L 222.379794 199.449407 
L 222.390328 198.638955 
L 222.898609 198.638955 
L 222.914411 197.828503 
L 223.430592 197.828503 
L 223.433226 197.01805 
L 223.954675 197.01805 
L 223.959942 196.207598 
L 224.476123 196.207598 
L 224.489291 195.397146 
L 225.002839 195.397146 
L 225.021274 194.586693 
L 225.534822 194.586693 
L 225.537456 193.776241 
L 226.051004 193.776241 
L 226.064172 192.965789 
L 226.575086 192.965789 
L 226.585621 192.155337 
L 227.101802 192.155337 
L 227.109703 191.344884 
L 227.623251 191.344884 
L 227.633786 190.534432 
L 228.157868 190.534432 
L 228.171036 189.72398 
L 228.689851 189.72398 
L 228.71092 188.913528 
L 229.224468 188.913528 
L 229.245536 188.103075 
L 229.74855 188.103075 
L 229.764352 187.292623 
L 230.272632 187.292623 
L 230.283167 186.482171 
L 230.509655 186.482171 
L 230.509655 186.076945 
L 230.791448 186.076945 
L 230.812516 185.266492 
L 231.044271 185.266492 
L 231.044271 184.861266 
L 231.307629 184.861266 
L 231.341866 184.050814 
L 231.578888 184.050814 
L 231.578888 183.645588 
L 231.868582 183.645588 
L 231.868582 183.240362 
L 232.108238 183.240362 
L 232.108238 182.835136 
L 232.411099 182.835136 
L 232.411099 182.42991 
L 232.637587 182.42991 
L 232.637587 182.024683 
L 232.948349 182.024683 
L 232.948349 181.619457 
L 233.16957 181.619457 
L 233.16957 181.214231 
L 233.475065 181.214231 
L 233.475065 180.809005 
L 233.691019 180.809005 
L 233.691019 180.403779 
L 234.012316 180.403779 
L 234.012316 179.998553 
L 234.209834 179.998553 
L 234.209834 179.593327 
L 234.544299 179.593327 
L 234.544299 179.188101 
L 234.73655 179.188101 
L 234.73655 178.782874 
L 235.068381 178.782874 
L 235.068381 178.377648 
L 235.2738 178.377648 
L 235.2738 177.972422 
L 235.595097 177.972422 
L 235.595097 177.567196 
L 235.795249 177.567196 
L 235.795249 177.16197 
L 236.121813 177.16197 
L 236.121813 176.756744 
L 236.316698 176.756744 
L 236.316698 176.351518 
L 236.645895 176.351518 
L 236.645895 175.946291 
L 236.851315 175.946291 
L 236.851315 175.541065 
L 237.167344 175.541065 
L 237.167344 175.135839 
L 237.375397 175.135839 
L 237.375397 174.730613 
L 237.69406 174.730613 
L 237.69406 174.325387 
L 237.910014 174.325387 
L 237.910014 173.920161 
L 238.220776 173.920161 
L 238.220776 173.514935 
L 238.434096 173.514935 
L 238.434096 173.109709 
L 238.739591 173.109709 
L 238.739591 172.704482 
L 238.968713 172.704482 
L 238.968713 172.299256 
L 239.263674 172.299256 
L 239.263674 171.89403 
L 239.498062 171.89403 
L 239.498062 171.488804 
L 240.037946 171.488804 
L 240.037946 171.083578 
L 240.57783 171.083578 
L 240.57783 170.678352 
L 241.101912 170.678352 
L 241.101912 170.273126 
L 241.636529 170.273126 
L 241.636529 169.867899 
L 242.157978 169.867899 
L 242.157978 169.462673 
L 242.684694 169.462673 
L 242.684694 169.057447 
L 243.214043 169.057447 
L 243.214043 168.652221 
L 244.262208 168.652221 
L 244.262208 168.246995 
L 244.802092 168.246995 
L 244.802092 167.841769 
L 245.318274 167.841769 
L 245.318274 167.436543 
L 245.842356 167.436543 
L 245.842356 167.031317 
L 246.379606 167.031317 
L 246.379606 166.62609 
L 246.903689 166.62609 
L 246.903689 166.220864 
L 247.427771 166.220864 
L 247.427771 165.815638 
L 247.959754 165.815638 
L 247.959754 165.410412 
L 248.481203 165.410412 
L 248.481203 165.005186 
L 249.005285 165.005186 
L 249.005285 164.59996 
L 249.529368 164.59996 
L 249.529368 164.194734 
L 250.045549 164.194734 
L 250.045549 163.789508 
L 250.569632 163.789508 
L 250.569632 163.384281 
L 251.098981 163.384281 
L 251.098981 162.979055 
L 251.615163 162.979055 
L 251.615163 162.573829 
L 252.144512 162.573829 
L 252.144512 162.168603 
L 252.681763 162.168603 
L 252.681763 161.763377 
L 253.200578 161.763377 
L 253.200578 161.358151 
L 253.740462 161.358151 
L 253.740462 160.952925 
L 254.256643 160.952925 
L 254.256643 160.547698 
L 254.79126 160.547698 
L 254.79126 160.142472 
L 255.310075 160.142472 
L 255.310075 159.737246 
L 255.834158 159.737246 
L 255.834158 159.33202 
L 256.355606 159.33202 
L 256.355606 158.926794 
L 256.879689 158.926794 
L 256.879689 158.521568 
L 257.403771 158.521568 
L 257.403771 158.116342 
L 257.938388 158.116342 
L 257.938388 157.711116 
L 258.467737 157.711116 
L 258.467737 157.305889 
L 258.994453 157.305889 
L 258.994453 156.900663 
L 259.523803 156.900663 
L 259.523803 156.495437 
L 260.047885 156.495437 
L 260.047885 156.090211 
L 260.564067 156.090211 
L 260.564067 155.684985 
L 261.080249 155.684985 
L 261.080249 155.279759 
L 261.601697 155.279759 
L 261.601697 154.874533 
L 262.12578 154.874533 
L 262.12578 154.469307 
L 262.612992 154.469307 
L 262.644595 153.658854 
L 263.168677 153.658854 
L 263.168677 153.253628 
L 263.540012 153.253628 
L 263.540012 152.848402 
L 263.687492 152.848402 
L 263.687492 152.443176 
L 264.214208 152.443176 
L 264.214208 152.03795 
L 264.477566 152.03795 
L 264.477566 151.632724 
L 264.740924 151.632724 
L 264.740924 151.227497 
L 265.265007 151.227497 
L 265.265007 150.822271 
L 265.394052 150.822271 
L 265.394052 150.417045 
L 265.799623 150.417045 
L 265.799623 150.011819 
L 266.315805 150.011819 
L 266.323706 149.201367 
L 266.853055 149.201367 
L 266.853055 148.796141 
L 267.234924 148.796141 
L 267.234924 148.390915 
L 267.374504 148.390915 
L 267.374504 147.985688 
L 267.898587 147.985688 
L 267.898587 147.580462 
L 268.148777 147.580462 
L 268.148777 147.175236 
L 268.427936 147.175236 
L 268.427936 146.77001 
L 268.946751 146.77001 
L 269.054728 145.959558 
L 269.484002 145.959558 
L 269.484002 145.554332 
L 270.010718 145.554332 
L 270.010718 145.149106 
L 270.476861 145.149106 
L 270.529533 144.338653 
L 271.045714 144.338653 
L 271.135256 143.528201 
L 271.575064 143.528201 
L 271.575064 143.122975 
L 271.804185 143.122975 
L 271.804185 142.717749 
L 272.091246 142.717749 
L 272.091246 142.312523 
L 272.467847 142.312523 
L 272.467847 141.907296 
L 272.623229 141.907296 
L 272.623229 141.50207 
L 273.13941 141.50207 
L 273.157845 140.691618 
L 273.681928 140.691618 
L 273.792538 139.881166 
L 274.208644 139.881166 
L 274.208644 139.47594 
L 274.440399 139.47594 
L 274.440399 139.070714 
L 274.730092 139.070714 
L 274.730092 138.665487 
L 275.090893 138.665487 
L 275.090893 138.260261 
L 277.353138 138.260261 
L 277.353138 137.855035 
L 278.277524 137.855035 
L 278.277524 137.449809 
L 279.175575 137.449809 
L 279.175575 137.044583 
L 282.164688 137.044583 
L 282.164688 136.639357 
L 283.07854 136.639357 
L 283.07854 136.234131 
L 284.00556 136.234131 
L 284.00556 135.828905 
L 284.914145 135.828905 
L 284.914145 135.423678 
L 285.825364 135.423678 
L 285.825364 135.018452 
L 286.736583 135.018452 
L 286.736583 134.613226 
L 287.66887 134.613226 
L 287.66887 134.208 
L 288.585356 134.208 
L 288.585356 133.802774 
L 289.325391 133.802774 
L 289.325391 133.397548 
L 289.496574 133.397548 
L 289.496574 132.992322 
L 290.23661 132.992322 
L 290.23661 132.587095 
L 290.415694 132.587095 
L 290.415694 132.181869 
L 291.168897 132.181869 
L 291.168897 131.776643 
L 291.347981 131.776643 
L 291.347981 131.371417 
L 291.556034 131.371417 
L 291.556034 130.966191 
L 292.085383 130.966191 
L 292.106452 130.155739 
L 292.277634 130.155739 
L 292.277634 129.750513 
L 292.609465 129.750513 
L 292.609465 129.345286 
L 293.022937 129.345286 
L 293.022937 128.94006 
L 293.144082 128.94006 
L 293.209922 128.129608 
L 293.673432 128.129608 
L 293.673432 127.724382 
L 293.93679 127.724382 
L 293.93679 127.319156 
L 294.126407 127.319156 
L 294.126407 126.91393 
L 294.876978 126.91393 
L 294.876978 126.508704 
L 295.056061 126.508704 
L 295.056061 126.103477 
L 295.803998 126.103477 
L 295.803998 125.698251 
L 295.954112 125.698251 
L 295.954112 125.293025 
L 296.715216 125.293025 
L 296.715216 124.887799 
L 296.862697 124.887799 
L 296.862697 124.482573 
L 297.623801 124.482573 
L 297.623801 124.077347 
L 297.78445 124.077347 
L 297.78445 123.672121 
L 298.527119 123.672121 
L 298.527119 123.266894 
L 298.716737 123.266894 
L 298.716737 122.861668 
L 299.446239 122.861668 
L 299.446239 122.456442 
L 299.63849 122.456442 
L 299.63849 122.051216 
L 300.346923 122.051216 
L 300.346923 121.64599 
L 300.56551 121.64599 
L 300.56551 121.240764 
L 301.295012 121.240764 
L 301.295012 120.835538 
L 301.487263 120.835538 
L 301.487263 120.430312 
L 302.214131 120.430312 
L 302.214131 120.025085 
L 302.411649 120.025085 
L 302.411649 119.619859 
L 303.149052 119.619859 
L 303.149052 119.214633 
L 303.328135 119.214633 
L 303.328135 118.809407 
L 304.076072 118.809407 
L 304.076072 118.404181 
L 304.249888 118.404181 
L 304.249888 117.998955 
L 304.97939 117.998955 
L 304.97939 117.593729 
L 305.169007 117.593729 
L 305.169007 117.188503 
L 306.074959 117.188503 
L 306.074959 116.783276 
L 306.991445 116.783276 
L 306.991445 116.37805 
L 308.853385 116.37805 
L 308.853385 115.972824 
L 309.775138 115.972824 
L 309.775138 115.567598 
L 310.691624 115.567598 
L 310.691624 115.162372 
L 311.629179 115.162372 
L 311.629179 114.757146 
L 312.564099 114.757146 
L 312.564099 114.35192 
L 313.506921 114.35192 
L 313.506921 113.946693 
L 314.447109 113.946693 
L 314.447109 113.541467 
L 315.347793 113.541467 
L 315.347793 113.136241 
L 317.188665 113.136241 
L 317.188665 112.731015 
L 318.107785 112.731015 
L 318.107785 112.325789 
L 319.021637 112.325789 
L 319.021637 111.920563 
L 319.927588 111.920563 
L 319.927588 111.515337 
L 320.859876 111.515337 
L 320.859876 111.110111 
L 321.786896 111.110111 
L 321.786896 110.704884 
L 322.403153 110.704884 
L 322.403153 110.299658 
L 322.700748 110.299658 
L 322.700748 109.894432 
L 323.330173 109.894432 
L 323.330173 109.489206 
L 323.630402 109.489206 
L 323.630402 109.08398 
L 324.225591 109.08398 
L 324.225591 108.678754 
L 324.549521 108.678754 
L 324.549521 108.273528 
L 325.142076 108.273528 
L 325.142076 107.868302 
L 325.46864 107.868302 
L 325.46864 107.463075 
L 326.055928 107.463075 
L 326.055928 107.057849 
L 326.382492 107.057849 
L 326.382492 106.652623 
L 326.956613 106.652623 
L 326.956613 106.247397 
L 327.312146 106.247397 
L 327.312146 105.842171 
L 327.857297 105.842171 
L 327.857297 105.436945 
L 328.805386 105.436945 
L 328.805386 105.031719 
L 329.708704 105.031719 
L 329.708704 104.626492 
L 331.533774 104.626492 
L 331.533774 104.221266 
L 340.738136 104.221266 
L 340.738136 103.81604 
L 341.673056 103.81604 
L 341.673056 103.410814 
L 342.568474 103.410814 
L 342.568474 103.005588 
L 343.500761 103.005588 
L 343.500761 102.600362 
L 344.414613 102.600362 
L 344.414613 102.195136 
L 348.470326 102.195136 
L 348.470326 101.78991 
L 349.392079 101.78991 
L 349.392079 101.384683 
L 350.308565 101.384683 
L 350.308565 100.979457 
L 351.238218 100.979457 
L 351.238218 100.574231 
L 352.146803 100.574231 
L 352.146803 100.169005 
L 353.068556 100.169005 
L 353.068556 99.763779 
L 353.96924 99.763779 
L 353.96924 99.358553 
L 362.225513 99.358553 
L 362.225513 98.953327 
L 363.144632 98.953327 
L 363.144632 98.548101 
L 364.069019 98.548101 
L 364.069019 98.142874 
L 365.009207 98.142874 
L 365.009207 97.737648 
L 366.850079 97.737648 
L 366.929086 96.927196 
L 367.382062 96.927196 
L 367.382062 96.52197 
L 367.579581 96.52197 
L 367.579581 96.116744 
L 367.906145 96.116744 
L 367.906145 95.711518 
L 368.224808 95.711518 
L 368.224808 95.306291 
L 368.438128 95.306291 
L 368.438128 94.901065 
L 368.885836 94.901065 
L 368.964844 94.090613 
L 369.49156 94.090613 
L 369.533697 93.280161 
L 370.007741 93.280161 
L 370.007741 92.874935 
L 370.194725 92.874935 
L 370.194725 92.469709 
L 370.526556 92.469709 
L 370.526556 92.064482 
L 370.855754 92.064482 
L 370.855754 91.659256 
L 371.063807 91.659256 
L 371.063807 91.25403 
L 371.508882 91.25403 
L 371.582622 90.443578 
L 372.106704 90.443578 
L 372.175177 89.633126 
L 372.63342 89.633126 
L 372.63342 89.227899 
L 372.833572 89.227899 
L 372.833572 88.822673 
L 373.146968 88.822673 
L 373.146968 88.417447 
L 373.502502 88.417447 
L 373.502502 88.012221 
L 373.684219 88.012221 
L 373.684219 87.606995 
L 374.158263 87.606995 
L 374.216202 86.796543 
L 374.758719 86.796543 
L 374.829826 85.98609 
L 375.19326 85.98609 
L 375.280168 85.175638 
L 375.490854 85.175638 
L 375.490854 84.770412 
L 375.801617 84.770412 
L 375.801617 84.365186 
L 376.125547 84.365186 
L 376.146616 83.554734 
L 376.336233 83.554734 
L 376.336233 83.149508 
L 376.799743 83.149508 
L 376.868216 82.339055 
L 377.049933 82.339055 
L 377.049933 81.933829 
L 377.4002 81.933829 
L 377.450238 81.123377 
L 377.924282 81.123377 
L 377.971686 80.312925 
L 378.090197 80.312925 
L 378.090197 79.907698 
L 378.445731 79.907698 
L 378.445731 79.502472 
L 378.745959 79.502472 
L 378.745959 79.097246 
L 378.90134 79.097246 
L 378.972447 78.286794 
L 379.399087 78.286794 
L 379.499163 77.476342 
L 379.836261 77.476342 
L 379.836261 77.071116 
L 380.033779 77.071116 
L 380.068016 76.260663 
L 380.549961 76.260663 
L 380.549961 75.855437 
L 380.750113 75.855437 
L 380.750113 75.450211 
L 381.066143 75.450211 
L 381.066143 75.044985 
L 381.379539 75.044985 
L 381.379539 74.639759 
L 381.582324 74.639759 
L 381.666599 73.829307 
L 382.027399 73.829307 
L 382.103773 73.018854 
L 382.585718 73.018854 
L 382.688428 71.803176 
L 383.133503 71.803176 
L 383.133503 71.39795 
L 383.357357 71.39795 
L 383.357357 70.992724 
L 383.520639 70.992724 
L 383.520639 70.587497 
L 383.662852 70.587497 
L 383.662852 70.182271 
L 384.018386 70.182271 
L 384.018386 69.777045 
L 384.186935 69.777045 
L 384.186935 69.371819 
L 384.439758 69.371819 
L 384.439758 68.966593 
L 384.684681 68.966593 
L 384.716284 68.156141 
L 385.237733 68.156141 
L 385.327275 67.345688 
L 385.356244 67.345688 
L 385.356244 66.940462 
L 385.751281 66.940462 
L 385.751281 66.535236 
L 385.990937 66.535236 
L 385.990937 66.13001 
L 386.277997 66.13001 
L 386.283264 65.319558 
L 386.659866 65.319558 
L 386.659866 64.914332 
L 386.80998 64.914332 
L 386.80998 64.509106 
L 387.320895 64.509106 
L 387.344597 63.698653 
L 387.860778 63.698653 
L 387.860778 63.293427 
L 387.989824 63.293427 
L 387.989824 62.888201 
L 388.392761 62.888201 
L 388.392761 62.482975 
L 388.656119 62.482975 
L 388.656119 62.077749 
L 388.91421 62.077749 
L 388.91421 61.672523 
L 389.298713 61.672523 
L 389.298713 61.267296 
L 389.438293 61.267296 
L 389.438293 60.86207 
L 389.946574 60.86207 
L 389.959741 60.051618 
L 390.486457 60.051618 
L 390.597068 59.241166 
L 391.013173 59.241166 
L 391.013173 58.83594 
L 391.255463 58.83594 
L 391.255463 58.430714 
L 391.539889 58.430714 
L 391.539889 58.025487 
L 391.913858 58.025487 
L 391.913858 57.620261 
L 392.559085 57.620261 
L 392.559085 57.215035 
L 393.220113 57.215035 
L 393.220113 56.809809 
L 393.881142 56.809809 
L 393.881142 56.404583 
L 394.536903 56.404583 
L 394.536903 55.999357 
L 395.190031 55.999357 
L 395.190031 55.594131 
L 395.845792 55.594131 
L 395.845792 55.188905 
L 396.501554 55.188905 
L 396.501554 54.783678 
L 397.152048 54.783678 
L 397.152048 54.378452 
L 397.81571 54.378452 
L 397.81571 53.973226 
L 398.487273 53.973226 
L 398.487273 53.568 
L 398.487273 53.568 
" clip-path="url(#pe74bfd8fec)" style="fill: none; stroke: #ff7f0e; stroke-width: 1.5; stroke-linecap: square"/>
   </g>
   <g id="patch_3">
    <path d="M 57.6 307.584 
L 57.6 41.472 
" style="fill: none; stroke: #000000; stroke-width: 0.8; stroke-linejoin: miter; stroke-linecap: square"/>
   </g>
   <g id="patch_4">
    <path d="M 414.72 307.584 
L 414.72 41.472 
" style="fill: none; stroke: #000000; stroke-width: 0.8; stroke-linejoin: miter; stroke-linecap: square"/>
   </g>
   <g id="patch_5">
    <path d="M 57.6 307.584 
L 414.72 307.584 
" style="fill: none; stroke: #000000; stroke-width: 0.8; stroke-linejoin: miter; stroke-linecap: square"/>
   </g>
   <g id="patch_6">
    <path d="M 57.6 41.472 
L 414.72 41.472 
" style="fill: none; stroke: #000000; stroke-width: 0.8; stroke-linejoin: miter; stroke-linecap: square"/>
   </g>
   <g id="text_15">
    <!-- S1 S15 -->
    <g transform="translate(215.1825 35.472) scale(0.12 -0.12)">
     <defs>
      <path id="DejaVuSans-53" d="M 3425 4513 
L 3425 3897 
Q 3066 4069 2747 4153 
Q 2428 4238 2131 4238 
Q 1616 4238 1336 4038 
Q 1056 3838 1056 3469 
Q 1056 3159 1242 3001 
Q 1428 2844 1947 2747 
L 2328 2669 
Q 3034 2534 3370 2195 
Q 3706 1856 3706 1288 
Q 3706 609 3251 259 
Q 2797 -91 1919 -91 
Q 1588 -91 1214 -16 
Q 841 59 441 206 
L 441 856 
Q 825 641 1194 531 
Q 1563 422 1919 422 
Q 2459 422 2753 634 
Q 3047 847 3047 1241 
Q 3047 1584 2836 1778 
Q 2625 1972 2144 2069 
L 1759 2144 
Q 1053 2284 737 2584 
Q 422 2884 422 3419 
Q 422 4038 858 4394 
Q 1294 4750 2059 4750 
Q 2388 4750 2728 4690 
Q 3069 4631 3425 4513 
z
" transform="scale(0.015625)"/>
      <path id="DejaVuSans-20" transform="scale(0.015625)"/>
      <path id="DejaVuSans-35" d="M 691 4666 
L 3169 4666 
L 3169 4134 
L 1269 4134 
L 1269 2991 
Q 1406 3038 1543 3061 
Q 1681 3084 1819 3084 
Q 2600 3084 3056 2656 
Q 3513 2228 3513 1497 
Q 3513 744 3044 326 
Q 2575 -91 1722 -91 
Q 1428 -91 1123 -41 
Q 819 9 494 109 
L 494 744 
Q 775 591 1075 516 
Q 1375 441 1709 441 
Q 2250 441 2565 725 
Q 2881 1009 2881 1497 
Q 2881 1984 2565 2268 
Q 2250 2553 1709 2553 
Q 1456 2553 1204 2497 
Q 953 2441 691 2322 
L 691 4666 
z
" transform="scale(0.015625)"/>
     </defs>
     <use xlink:href="#DejaVuSans-53"/>
     <use xlink:href="#DejaVuSans-31" x="63.476562"/>
     <use xlink:href="#DejaVuSans-20" x="127.099609"/>
     <use xlink:href="#DejaVuSans-53" x="158.886719"/>
     <use xlink:href="#DejaVuSans-31" x="222.363281"/>
     <use xlink:href="#DejaVuSans-35" x="285.986328"/>
    </g>
   </g>
   <g id="legend_1">
    <g id="patch_7">
     <path d="M 84.895313 304.584 
L 410.52 304.584 
Q 411.72 304.584 411.72 303.384 
L 411.72 286.37025 
Q 411.72 285.17025 410.52 285.17025 
L 84.895313 285.17025 
Q 83.695313 285.17025 83.695313 286.37025 
L 83.695313 303.384 
Q 83.695313 304.584 84.895313 304.584 
z
" style="fill: #ffffff; opacity: 0.8; stroke: #cccccc; stroke-linejoin: miter"/>
    </g>
    <g id="line2d_16">
     <path d="M 86.095313 290.029312 
L 92.095313 290.029312 
L 98.095313 290.029312 
" style="fill: none; stroke: #1f77b4; stroke-width: 1.5; stroke-linecap: square"/>
    </g>
    <g id="text_16">
     <!-- Execution time between S1 S15 (xx1xx1xx1xx0yyy3xx0yyy3xx1xx0yyy45xx1xx1) -->
     <g transform="translate(102.895313 292.129312) scale(0.06 -0.06)">
      <defs>
       <path id="DejaVuSans-45" d="M 628 4666 
L 3578 4666 
L 3578 4134 
L 1259 4134 
L 1259 2753 
L 3481 2753 
L 3481 2222 
L 1259 2222 
L 1259 531 
L 3634 531 
L 3634 0 
L 628 0 
L 628 4666 
z
" transform="scale(0.015625)"/>
       <path id="DejaVuSans-78" d="M 3513 3500 
L 2247 1797 
L 3578 0 
L 2900 0 
L 1881 1375 
L 863 0 
L 184 0 
L 1544 1831 
L 300 3500 
L 978 3500 
L 1906 2253 
L 2834 3500 
L 3513 3500 
z
" transform="scale(0.015625)"/>
       <path id="DejaVuSans-63" d="M 3122 3366 
L 3122 2828 
Q 2878 2963 2633 3030 
Q 2388 3097 2138 3097 
Q 1578 3097 1268 2742 
Q 959 2388 959 1747 
Q 959 1106 1268 751 
Q 1578 397 2138 397 
Q 2388 397 2633 464 
Q 2878 531 3122 666 
L 3122 134 
Q 2881 22 2623 -34 
Q 2366 -91 2075 -91 
Q 1284 -91 818 406 
Q 353 903 353 1747 
Q 353 2603 823 3093 
Q 1294 3584 2113 3584 
Q 2378 3584 2631 3529 
Q 2884 3475 3122 3366 
z
" transform="scale(0.015625)"/>
       <path id="DejaVuSans-75" d="M 544 1381 
L 544 3500 
L 1119 3500 
L 1119 1403 
Q 1119 906 1312 657 
Q 1506 409 1894 409 
Q 2359 409 2629 706 
Q 2900 1003 2900 1516 
L 2900 3500 
L 3475 3500 
L 3475 0 
L 2900 0 
L 2900 538 
Q 2691 219 2414 64 
Q 2138 -91 1772 -91 
Q 1169 -91 856 284 
Q 544 659 544 1381 
z
M 1991 3584 
L 1991 3584 
z
" transform="scale(0.015625)"/>
       <path id="DejaVuSans-74" d="M 1172 4494 
L 1172 3500 
L 2356 3500 
L 2356 3053 
L 1172 3053 
L 1172 1153 
Q 1172 725 1289 603 
Q 1406 481 1766 481 
L 2356 481 
L 2356 0 
L 1766 0 
Q 1100 0 847 248 
Q 594 497 594 1153 
L 594 3053 
L 172 3053 
L 172 3500 
L 594 3500 
L 594 4494 
L 1172 4494 
z
" transform="scale(0.015625)"/>
       <path id="DejaVuSans-69" d="M 603 3500 
L 1178 3500 
L 1178 0 
L 603 0 
L 603 3500 
z
M 603 4863 
L 1178 4863 
L 1178 4134 
L 603 4134 
L 603 4863 
z
" transform="scale(0.015625)"/>
       <path id="DejaVuSans-6f" d="M 1959 3097 
Q 1497 3097 1228 2736 
Q 959 2375 959 1747 
Q 959 1119 1226 758 
Q 1494 397 1959 397 
Q 2419 397 2687 759 
Q 2956 1122 2956 1747 
Q 2956 2369 2687 2733 
Q 2419 3097 1959 3097 
z
M 1959 3584 
Q 2709 3584 3137 3096 
Q 3566 2609 3566 1747 
Q 3566 888 3137 398 
Q 2709 -91 1959 -91 
Q 1206 -91 779 398 
Q 353 888 353 1747 
Q 353 2609 779 3096 
Q 1206 3584 1959 3584 
z
" transform="scale(0.015625)"/>
       <path id="DejaVuSans-6e" d="M 3513 2113 
L 3513 0 
L 2938 0 
L 2938 2094 
Q 2938 2591 2744 2837 
Q 2550 3084 2163 3084 
Q 1697 3084 1428 2787 
Q 1159 2491 1159 1978 
L 1159 0 
L 581 0 
L 581 3500 
L 1159 3500 
L 1159 2956 
Q 1366 3272 1645 3428 
Q 1925 3584 2291 3584 
Q 2894 3584 3203 3211 
Q 3513 2838 3513 2113 
z
" transform="scale(0.015625)"/>
       <path id="DejaVuSans-6d" d="M 3328 2828 
Q 3544 3216 3844 3400 
Q 4144 3584 4550 3584 
Q 5097 3584 5394 3201 
Q 5691 2819 5691 2113 
L 5691 0 
L 5113 0 
L 5113 2094 
Q 5113 2597 4934 2840 
Q 4756 3084 4391 3084 
Q 3944 3084 3684 2787 
Q 3425 2491 3425 1978 
L 3425 0 
L 2847 0 
L 2847 2094 
Q 2847 2600 2669 2842 
Q 2491 3084 2119 3084 
Q 1678 3084 1418 2786 
Q 1159 2488 1159 1978 
L 1159 0 
L 581 0 
L 581 3500 
L 1159 3500 
L 1159 2956 
Q 1356 3278 1631 3431 
Q 1906 3584 2284 3584 
Q 2666 3584 2933 3390 
Q 3200 3197 3328 2828 
z
" transform="scale(0.015625)"/>
       <path id="DejaVuSans-62" d="M 3116 1747 
Q 3116 2381 2855 2742 
Q 2594 3103 2138 3103 
Q 1681 3103 1420 2742 
Q 1159 2381 1159 1747 
Q 1159 1113 1420 752 
Q 1681 391 2138 391 
Q 2594 391 2855 752 
Q 3116 1113 3116 1747 
z
M 1159 2969 
Q 1341 3281 1617 3432 
Q 1894 3584 2278 3584 
Q 2916 3584 3314 3078 
Q 3713 2572 3713 1747 
Q 3713 922 3314 415 
Q 2916 -91 2278 -91 
Q 1894 -91 1617 61 
Q 1341 213 1159 525 
L 1159 0 
L 581 0 
L 581 4863 
L 1159 4863 
L 1159 2969 
z
" transform="scale(0.015625)"/>
       <path id="DejaVuSans-77" d="M 269 3500 
L 844 3500 
L 1563 769 
L 2278 3500 
L 2956 3500 
L 3675 769 
L 4391 3500 
L 4966 3500 
L 4050 0 
L 3372 0 
L 2619 2869 
L 1863 0 
L 1184 0 
L 269 3500 
z
" transform="scale(0.015625)"/>
       <path id="DejaVuSans-28" d="M 1984 4856 
Q 1566 4138 1362 3434 
Q 1159 2731 1159 2009 
Q 1159 1288 1364 580 
Q 1569 -128 1984 -844 
L 1484 -844 
Q 1016 -109 783 600 
Q 550 1309 550 2009 
Q 550 2706 781 3412 
Q 1013 4119 1484 4856 
L 1984 4856 
z
" transform="scale(0.015625)"/>
       <path id="DejaVuSans-79" d="M 2059 -325 
Q 1816 -950 1584 -1140 
Q 1353 -1331 966 -1331 
L 506 -1331 
L 506 -850 
L 844 -850 
Q 1081 -850 1212 -737 
Q 1344 -625 1503 -206 
L 1606 56 
L 191 3500 
L 800 3500 
L 1894 763 
L 2988 3500 
L 3597 3500 
L 2059 -325 
z
" transform="scale(0.015625)"/>
       <path id="DejaVuSans-33" d="M 2597 2516 
Q 3050 2419 3304 2112 
Q 3559 1806 3559 1356 
Q 3559 666 3084 287 
Q 2609 -91 1734 -91 
Q 1441 -91 1130 -33 
Q 819 25 488 141 
L 488 750 
Q 750 597 1062 519 
Q 1375 441 1716 441 
Q 2309 441 2620 675 
Q 2931 909 2931 1356 
Q 2931 1769 2642 2001 
Q 2353 2234 1838 2234 
L 1294 2234 
L 1294 2753 
L 1863 2753 
Q 2328 2753 2575 2939 
Q 2822 3125 2822 3475 
Q 2822 3834 2567 4026 
Q 2313 4219 1838 4219 
Q 1578 4219 1281 4162 
Q 984 4106 628 3988 
L 628 4550 
Q 988 4650 1302 4700 
Q 1616 4750 1894 4750 
Q 2613 4750 3031 4423 
Q 3450 4097 3450 3541 
Q 3450 3153 3228 2886 
Q 3006 2619 2597 2516 
z
" transform="scale(0.015625)"/>
       <path id="DejaVuSans-29" d="M 513 4856 
L 1013 4856 
Q 1481 4119 1714 3412 
Q 1947 2706 1947 2009 
Q 1947 1309 1714 600 
Q 1481 -109 1013 -844 
L 513 -844 
Q 928 -128 1133 580 
Q 1338 1288 1338 2009 
Q 1338 2731 1133 3434 
Q 928 4138 513 4856 
z
" transform="scale(0.015625)"/>
      </defs>
      <use xlink:href="#DejaVuSans-45"/>
      <use xlink:href="#DejaVuSans-78" x="63.183594"/>
      <use xlink:href="#DejaVuSans-65" x="119.238281"/>
      <use xlink:href="#DejaVuSans-63" x="180.761719"/>
      <use xlink:href="#DejaVuSans-75" x="235.742188"/>
      <use xlink:href="#DejaVuSans-74" x="299.121094"/>
      <use xlink:href="#DejaVuSans-69" x="338.330078"/>
      <use xlink:href="#DejaVuSans-6f" x="366.113281"/>
      <use xlink:href="#DejaVuSans-6e" x="427.294922"/>
      <use xlink:href="#DejaVuSans-20" x="490.673828"/>
      <use xlink:href="#DejaVuSans-74" x="522.460938"/>
      <use xlink:href="#DejaVuSans-69" x="561.669922"/>
      <use xlink:href="#DejaVuSans-6d" x="589.453125"/>
      <use xlink:href="#DejaVuSans-65" x="686.865234"/>
      <use xlink:href="#DejaVuSans-20" x="748.388672"/>
      <use xlink:href="#DejaVuSans-62" x="780.175781"/>
      <use xlink:href="#DejaVuSans-65" x="843.652344"/>
      <use xlink:href="#DejaVuSans-74" x="905.175781"/>
      <use xlink:href="#DejaVuSans-77" x="944.384766"/>
      <use xlink:href="#DejaVuSans-65" x="1026.171875"/>
      <use xlink:href="#DejaVuSans-65" x="1087.695312"/>
      <use xlink:href="#DejaVuSans-6e" x="1149.21875"/>
      <use xlink:href="#DejaVuSans-20" x="1212.597656"/>
      <use xlink:href="#DejaVuSans-53" x="1244.384766"/>
      <use xlink:href="#DejaVuSans-31" x="1307.861328"/>
      <use xlink:href="#DejaVuSans-20" x="1371.484375"/>
      <use xlink:href="#DejaVuSans-53" x="1403.271484"/>
      <use xlink:href="#DejaVuSans-31" x="1466.748047"/>
      <use xlink:href="#DejaVuSans-35" x="1530.371094"/>
      <use xlink:href="#DejaVuSans-20" x="1593.994141"/>
      <use xlink:href="#DejaVuSans-28" x="1625.78125"/>
      <use xlink:href="#DejaVuSans-78" x="1664.794922"/>
      <use xlink:href="#DejaVuSans-78" x="1723.974609"/>
      <use xlink:href="#DejaVuSans-31" x="1783.154297"/>
      <use xlink:href="#DejaVuSans-78" x="1846.777344"/>
      <use xlink:href="#DejaVuSans-78" x="1905.957031"/>
      <use xlink:href="#DejaVuSans-31" x="1965.136719"/>
      <use xlink:href="#DejaVuSans-78" x="2028.759766"/>
      <use xlink:href="#DejaVuSans-78" x="2087.939453"/>
      <use xlink:href="#DejaVuSans-31" x="2147.119141"/>
      <use xlink:href="#DejaVuSans-78" x="2210.742188"/>
      <use xlink:href="#DejaVuSans-78" x="2269.921875"/>
      <use xlink:href="#DejaVuSans-30" x="2329.101562"/>
      <use xlink:href="#DejaVuSans-79" x="2392.724609"/>
      <use xlink:href="#DejaVuSans-79" x="2451.904297"/>
      <use xlink:href="#DejaVuSans-79" x="2511.083984"/>
      <use xlink:href="#DejaVuSans-33" x="2570.263672"/>
      <use xlink:href="#DejaVuSans-78" x="2633.886719"/>
      <use xlink:href="#DejaVuSans-78" x="2693.066406"/>
      <use xlink:href="#DejaVuSans-30" x="2752.246094"/>
      <use xlink:href="#DejaVuSans-79" x="2815.869141"/>
      <use xlink:href="#DejaVuSans-79" x="2875.048828"/>
      <use xlink:href="#DejaVuSans-79" x="2934.228516"/>
      <use xlink:href="#DejaVuSans-33" x="2993.408203"/>
      <use xlink:href="#DejaVuSans-78" x="3057.03125"/>
      <use xlink:href="#DejaVuSans-78" x="3116.210938"/>
      <use xlink:href="#DejaVuSans-31" x="3175.390625"/>
      <use xlink:href="#DejaVuSans-78" x="3239.013672"/>
      <use xlink:href="#DejaVuSans-78" x="3298.193359"/>
      <use xlink:href="#DejaVuSans-30" x="3357.373047"/>
      <use xlink:href="#DejaVuSans-79" x="3420.996094"/>
      <use xlink:href="#DejaVuSans-79" x="3480.175781"/>
      <use xlink:href="#DejaVuSans-79" x="3539.355469"/>
      <use xlink:href="#DejaVuSans-34" x="3598.535156"/>
      <use xlink:href="#DejaVuSans-35" x="3662.158203"/>
      <use xlink:href="#DejaVuSans-78" x="3725.78125"/>
      <use xlink:href="#DejaVuSans-78" x="3784.960938"/>
      <use xlink:href="#DejaVuSans-31" x="3844.140625"/>
      <use xlink:href="#DejaVuSans-78" x="3907.763672"/>
      <use xlink:href="#DejaVuSans-78" x="3966.943359"/>
      <use xlink:href="#DejaVuSans-31" x="4026.123047"/>
      <use xlink:href="#DejaVuSans-29" x="4089.746094"/>
     </g>
    </g>
    <g id="line2d_17">
     <path d="M 86.095313 298.836187 
L 92.095313 298.836187 
L 98.095313 298.836187 
" style="fill: none; stroke: #ff7f0e; stroke-width: 1.5; stroke-linecap: square"/>
    </g>
    <g id="text_17">
     <!-- Execution time between S1 S15 (xx1xx2xx0yyy45xx0yyy45xx0yyy3xx1xx0yyy45xx0yyy45xx0yyy45) -->
     <g transform="translate(102.895313 300.936187) scale(0.06 -0.06)">
      <use xlink:href="#DejaVuSans-45"/>
      <use xlink:href="#DejaVuSans-78" x="63.183594"/>
      <use xlink:href="#DejaVuSans-65" x="119.238281"/>
      <use xlink:href="#DejaVuSans-63" x="180.761719"/>
      <use xlink:href="#DejaVuSans-75" x="235.742188"/>
      <use xlink:href="#DejaVuSans-74" x="299.121094"/>
      <use xlink:href="#DejaVuSans-69" x="338.330078"/>
      <use xlink:href="#DejaVuSans-6f" x="366.113281"/>
      <use xlink:href="#DejaVuSans-6e" x="427.294922"/>
      <use xlink:href="#DejaVuSans-20" x="490.673828"/>
      <use xlink:href="#DejaVuSans-74" x="522.460938"/>
      <use xlink:href="#DejaVuSans-69" x="561.669922"/>
      <use xlink:href="#DejaVuSans-6d" x="589.453125"/>
      <use xlink:href="#DejaVuSans-65" x="686.865234"/>
      <use xlink:href="#DejaVuSans-20" x="748.388672"/>
      <use xlink:href="#DejaVuSans-62" x="780.175781"/>
      <use xlink:href="#DejaVuSans-65" x="843.652344"/>
      <use xlink:href="#DejaVuSans-74" x="905.175781"/>
      <use xlink:href="#DejaVuSans-77" x="944.384766"/>
      <use xlink:href="#DejaVuSans-65" x="1026.171875"/>
      <use xlink:href="#DejaVuSans-65" x="1087.695312"/>
      <use xlink:href="#DejaVuSans-6e" x="1149.21875"/>
      <use xlink:href="#DejaVuSans-20" x="1212.597656"/>
      <use xlink:href="#DejaVuSans-53" x="1244.384766"/>
      <use xlink:href="#DejaVuSans-31" x="1307.861328"/>
      <use xlink:href="#DejaVuSans-20" x="1371.484375"/>
      <use xlink:href="#DejaVuSans-53" x="1403.271484"/>
      <use xlink:href="#DejaVuSans-31" x="1466.748047"/>
      <use xlink:href="#DejaVuSans-35" x="1530.371094"/>
      <use xlink:href="#DejaVuSans-20" x="1593.994141"/>
      <use xlink:href="#DejaVuSans-28" x="1625.78125"/>
      <use xlink:href="#DejaVuSans-78" x="1664.794922"/>
      <use xlink:href="#DejaVuSans-78" x="1723.974609"/>
      <use xlink:href="#DejaVuSans-31" x="1783.154297"/>
      <use xlink:href="#DejaVuSans-78" x="1846.777344"/>
      <use xlink:href="#DejaVuSans-78" x="1905.957031"/>
      <use xlink:href="#DejaVuSans-32" x="1965.136719"/>
      <use xlink:href="#DejaVuSans-78" x="2028.759766"/>
      <use xlink:href="#DejaVuSans-78" x="2087.939453"/>
      <use xlink:href="#DejaVuSans-30" x="2147.119141"/>
      <use xlink:href="#DejaVuSans-79" x="2210.742188"/>
      <use xlink:href="#DejaVuSans-79" x="2269.921875"/>
      <use xlink:href="#DejaVuSans-79" x="2329.101562"/>
      <use xlink:href="#DejaVuSans-34" x="2388.28125"/>
      <use xlink:href="#DejaVuSans-35" x="2451.904297"/>
      <use xlink:href="#DejaVuSans-78" x="2515.527344"/>
      <use xlink:href="#DejaVuSans-78" x="2574.707031"/>
      <use xlink:href="#DejaVuSans-30" x="2633.886719"/>
      <use xlink:href="#DejaVuSans-79" x="2697.509766"/>
      <use xlink:href="#DejaVuSans-79" x="2756.689453"/>
      <use xlink:href="#DejaVuSans-79" x="2815.869141"/>
      <use xlink:href="#DejaVuSans-34" x="2875.048828"/>
      <use xlink:href="#DejaVuSans-35" x="2938.671875"/>
      <use xlink:href="#DejaVuSans-78" x="3002.294922"/>
      <use xlink:href="#DejaVuSans-78" x="3061.474609"/>
      <use xlink:href="#DejaVuSans-30" x="3120.654297"/>
      <use xlink:href="#DejaVuSans-79" x="3184.277344"/>
      <use xlink:href="#DejaVuSans-79" x="3243.457031"/>
      <use xlink:href="#DejaVuSans-79" x="3302.636719"/>
      <use xlink:href="#DejaVuSans-33" x="3361.816406"/>
      <use xlink:href="#DejaVuSans-78" x="3425.439453"/>
      <use xlink:href="#DejaVuSans-78" x="3484.619141"/>
      <use xlink:href="#DejaVuSans-31" x="3543.798828"/>
      <use xlink:href="#DejaVuSans-78" x="3607.421875"/>
      <use xlink:href="#DejaVuSans-78" x="3666.601562"/>
      <use xlink:href="#DejaVuSans-30" x="3725.78125"/>
      <use xlink:href="#DejaVuSans-79" x="3789.404297"/>
      <use xlink:href="#DejaVuSans-79" x="3848.583984"/>
      <use xlink:href="#DejaVuSans-79" x="3907.763672"/>
      <use xlink:href="#DejaVuSans-34" x="3966.943359"/>
      <use xlink:href="#DejaVuSans-35" x="4030.566406"/>
      <use xlink:href="#DejaVuSans-78" x="4094.189453"/>
      <use xlink:href="#DejaVuSans-78" x="4153.369141"/>
      <use xlink:href="#DejaVuSans-30" x="4212.548828"/>
      <use xlink:href="#DejaVuSans-79" x="4276.171875"/>
      <use xlink:href="#DejaVuSans-79" x="4335.351562"/>
      <use xlink:href="#DejaVuSans-79" x="4394.53125"/>
      <use xlink:href="#DejaVuSans-34" x="4453.710938"/>
      <use xlink:href="#DejaVuSans-35" x="4517.333984"/>
      <use xlink:href="#DejaVuSans-78" x="4580.957031"/>
      <use xlink:href="#DejaVuSans-78" x="4640.136719"/>
      <use xlink:href="#DejaVuSans-30" x="4699.316406"/>
      <use xlink:href="#DejaVuSans-79" x="4762.939453"/>
      <use xlink:href="#DejaVuSans-79" x="4822.119141"/>
      <use xlink:href="#DejaVuSans-79" x="4881.298828"/>
      <use xlink:href="#DejaVuSans-34" x="4940.478516"/>
      <use xlink:href="#DejaVuSans-35" x="5004.101562"/>
      <use xlink:href="#DejaVuSans-29" x="5067.724609"/>
     </g>
    </g>
   </g>
  </g>
 </g>
 <defs>
  <clipPath id="pe74bfd8fec">
   <rect x="57.6" y="41.472" width="357.12" height="266.112"/>
  </clipPath>
 </defs>
</svg>
