<?xml version="1.0" encoding="utf-8" standalone="no"?>
<!DOCTYPE svg PUBLIC "-//W3C//DTD SVG 1.1//EN"
  "http://www.w3.org/Graphics/SVG/1.1/DTD/svg11.dtd">
<svg xmlns:xlink="http://www.w3.org/1999/xlink" width="460.8pt" height="345.6pt" viewBox="0 0 460.8 345.6" xmlns="http://www.w3.org/2000/svg" version="1.1">
 <metadata>
  <rdf:RDF xmlns:dc="http://purl.org/dc/elements/1.1/" xmlns:cc="http://creativecommons.org/ns#" xmlns:rdf="http://www.w3.org/1999/02/22-rdf-syntax-ns#">
   <cc:Work>
    <dc:type rdf:resource="http://purl.org/dc/dcmitype/StillImage"/>
    <dc:date>2024-03-08T12:51:28.548369</dc:date>
    <dc:format>image/svg+xml</dc:format>
    <dc:creator>
     <cc:Agent>
      <dc:title>Matplotlib v3.8.2, https://matplotlib.org/</dc:title>
     </cc:Agent>
    </dc:creator>
   </cc:Work>
  </rdf:RDF>
 </metadata>
 <defs>
  <style type="text/css">*{stroke-linejoin: round; stroke-linecap: butt}</style>
 </defs>
 <g id="figure_1">
  <g id="patch_1">
   <path d="M 0 345.6 
L 460.8 345.6 
L 460.8 0 
L 0 0 
z
" style="fill: #ffffff"/>
  </g>
  <g id="axes_1">
   <g id="patch_2">
    <path d="M 57.6 307.584 
L 414.72 307.584 
L 414.72 41.472 
L 57.6 41.472 
z
" style="fill: #ffffff"/>
   </g>
   <g id="matplotlib.axis_1">
    <g id="xtick_1">
     <g id="line2d_1">
      <defs>
       <path id="mb3886351c1" d="M 0 0 
L 0 3.5 
" style="stroke: #000000; stroke-width: 0.8"/>
      </defs>
      <g>
       <use xlink:href="#mb3886351c1" x="73.832727" y="307.584" style="stroke: #000000; stroke-width: 0.8"/>
      </g>
     </g>
     <g id="text_1">
      <!-- 0 -->
      <g transform="translate(70.651477 322.182437) scale(0.1 -0.1)">
       <defs>
        <path id="DejaVuSans-30" d="M 2034 4250 
Q 1547 4250 1301 3770 
Q 1056 3291 1056 2328 
Q 1056 1369 1301 889 
Q 1547 409 2034 409 
Q 2525 409 2770 889 
Q 3016 1369 3016 2328 
Q 3016 3291 2770 3770 
Q 2525 4250 2034 4250 
z
M 2034 4750 
Q 2819 4750 3233 4129 
Q 3647 3509 3647 2328 
Q 3647 1150 3233 529 
Q 2819 -91 2034 -91 
Q 1250 -91 836 529 
Q 422 1150 422 2328 
Q 422 3509 836 4129 
Q 1250 4750 2034 4750 
z
" transform="scale(0.015625)"/>
       </defs>
       <use xlink:href="#DejaVuSans-30"/>
      </g>
     </g>
    </g>
    <g id="xtick_2">
     <g id="line2d_2">
      <g>
       <use xlink:href="#mb3886351c1" x="124.508532" y="307.584" style="stroke: #000000; stroke-width: 0.8"/>
      </g>
     </g>
     <g id="text_2">
      <!-- 20000 -->
      <g transform="translate(108.602282 322.182437) scale(0.1 -0.1)">
       <defs>
        <path id="DejaVuSans-32" d="M 1228 531 
L 3431 531 
L 3431 0 
L 469 0 
L 469 531 
Q 828 903 1448 1529 
Q 2069 2156 2228 2338 
Q 2531 2678 2651 2914 
Q 2772 3150 2772 3378 
Q 2772 3750 2511 3984 
Q 2250 4219 1831 4219 
Q 1534 4219 1204 4116 
Q 875 4013 500 3803 
L 500 4441 
Q 881 4594 1212 4672 
Q 1544 4750 1819 4750 
Q 2544 4750 2975 4387 
Q 3406 4025 3406 3419 
Q 3406 3131 3298 2873 
Q 3191 2616 2906 2266 
Q 2828 2175 2409 1742 
Q 1991 1309 1228 531 
z
" transform="scale(0.015625)"/>
       </defs>
       <use xlink:href="#DejaVuSans-32"/>
       <use xlink:href="#DejaVuSans-30" x="63.623047"/>
       <use xlink:href="#DejaVuSans-30" x="127.246094"/>
       <use xlink:href="#DejaVuSans-30" x="190.869141"/>
       <use xlink:href="#DejaVuSans-30" x="254.492188"/>
      </g>
     </g>
    </g>
    <g id="xtick_3">
     <g id="line2d_3">
      <g>
       <use xlink:href="#mb3886351c1" x="175.184337" y="307.584" style="stroke: #000000; stroke-width: 0.8"/>
      </g>
     </g>
     <g id="text_3">
      <!-- 40000 -->
      <g transform="translate(159.278087 322.182437) scale(0.1 -0.1)">
       <defs>
        <path id="DejaVuSans-34" d="M 2419 4116 
L 825 1625 
L 2419 1625 
L 2419 4116 
z
M 2253 4666 
L 3047 4666 
L 3047 1625 
L 3713 1625 
L 3713 1100 
L 3047 1100 
L 3047 0 
L 2419 0 
L 2419 1100 
L 313 1100 
L 313 1709 
L 2253 4666 
z
" transform="scale(0.015625)"/>
       </defs>
       <use xlink:href="#DejaVuSans-34"/>
       <use xlink:href="#DejaVuSans-30" x="63.623047"/>
       <use xlink:href="#DejaVuSans-30" x="127.246094"/>
       <use xlink:href="#DejaVuSans-30" x="190.869141"/>
       <use xlink:href="#DejaVuSans-30" x="254.492188"/>
      </g>
     </g>
    </g>
    <g id="xtick_4">
     <g id="line2d_4">
      <g>
       <use xlink:href="#mb3886351c1" x="225.860143" y="307.584" style="stroke: #000000; stroke-width: 0.8"/>
      </g>
     </g>
     <g id="text_4">
      <!-- 60000 -->
      <g transform="translate(209.953893 322.182437) scale(0.1 -0.1)">
       <defs>
        <path id="DejaVuSans-36" d="M 2113 2584 
Q 1688 2584 1439 2293 
Q 1191 2003 1191 1497 
Q 1191 994 1439 701 
Q 1688 409 2113 409 
Q 2538 409 2786 701 
Q 3034 994 3034 1497 
Q 3034 2003 2786 2293 
Q 2538 2584 2113 2584 
z
M 3366 4563 
L 3366 3988 
Q 3128 4100 2886 4159 
Q 2644 4219 2406 4219 
Q 1781 4219 1451 3797 
Q 1122 3375 1075 2522 
Q 1259 2794 1537 2939 
Q 1816 3084 2150 3084 
Q 2853 3084 3261 2657 
Q 3669 2231 3669 1497 
Q 3669 778 3244 343 
Q 2819 -91 2113 -91 
Q 1303 -91 875 529 
Q 447 1150 447 2328 
Q 447 3434 972 4092 
Q 1497 4750 2381 4750 
Q 2619 4750 2861 4703 
Q 3103 4656 3366 4563 
z
" transform="scale(0.015625)"/>
       </defs>
       <use xlink:href="#DejaVuSans-36"/>
       <use xlink:href="#DejaVuSans-30" x="63.623047"/>
       <use xlink:href="#DejaVuSans-30" x="127.246094"/>
       <use xlink:href="#DejaVuSans-30" x="190.869141"/>
       <use xlink:href="#DejaVuSans-30" x="254.492188"/>
      </g>
     </g>
    </g>
    <g id="xtick_5">
     <g id="line2d_5">
      <g>
       <use xlink:href="#mb3886351c1" x="276.535948" y="307.584" style="stroke: #000000; stroke-width: 0.8"/>
      </g>
     </g>
     <g id="text_5">
      <!-- 80000 -->
      <g transform="translate(260.629698 322.182437) scale(0.1 -0.1)">
       <defs>
        <path id="DejaVuSans-38" d="M 2034 2216 
Q 1584 2216 1326 1975 
Q 1069 1734 1069 1313 
Q 1069 891 1326 650 
Q 1584 409 2034 409 
Q 2484 409 2743 651 
Q 3003 894 3003 1313 
Q 3003 1734 2745 1975 
Q 2488 2216 2034 2216 
z
M 1403 2484 
Q 997 2584 770 2862 
Q 544 3141 544 3541 
Q 544 4100 942 4425 
Q 1341 4750 2034 4750 
Q 2731 4750 3128 4425 
Q 3525 4100 3525 3541 
Q 3525 3141 3298 2862 
Q 3072 2584 2669 2484 
Q 3125 2378 3379 2068 
Q 3634 1759 3634 1313 
Q 3634 634 3220 271 
Q 2806 -91 2034 -91 
Q 1263 -91 848 271 
Q 434 634 434 1313 
Q 434 1759 690 2068 
Q 947 2378 1403 2484 
z
M 1172 3481 
Q 1172 3119 1398 2916 
Q 1625 2713 2034 2713 
Q 2441 2713 2670 2916 
Q 2900 3119 2900 3481 
Q 2900 3844 2670 4047 
Q 2441 4250 2034 4250 
Q 1625 4250 1398 4047 
Q 1172 3844 1172 3481 
z
" transform="scale(0.015625)"/>
       </defs>
       <use xlink:href="#DejaVuSans-38"/>
       <use xlink:href="#DejaVuSans-30" x="63.623047"/>
       <use xlink:href="#DejaVuSans-30" x="127.246094"/>
       <use xlink:href="#DejaVuSans-30" x="190.869141"/>
       <use xlink:href="#DejaVuSans-30" x="254.492188"/>
      </g>
     </g>
    </g>
    <g id="xtick_6">
     <g id="line2d_6">
      <g>
       <use xlink:href="#mb3886351c1" x="327.211753" y="307.584" style="stroke: #000000; stroke-width: 0.8"/>
      </g>
     </g>
     <g id="text_6">
      <!-- 100000 -->
      <g transform="translate(308.124253 322.182437) scale(0.1 -0.1)">
       <defs>
        <path id="DejaVuSans-31" d="M 794 531 
L 1825 531 
L 1825 4091 
L 703 3866 
L 703 4441 
L 1819 4666 
L 2450 4666 
L 2450 531 
L 3481 531 
L 3481 0 
L 794 0 
L 794 531 
z
" transform="scale(0.015625)"/>
       </defs>
       <use xlink:href="#DejaVuSans-31"/>
       <use xlink:href="#DejaVuSans-30" x="63.623047"/>
       <use xlink:href="#DejaVuSans-30" x="127.246094"/>
       <use xlink:href="#DejaVuSans-30" x="190.869141"/>
       <use xlink:href="#DejaVuSans-30" x="254.492188"/>
       <use xlink:href="#DejaVuSans-30" x="318.115234"/>
      </g>
     </g>
    </g>
    <g id="xtick_7">
     <g id="line2d_7">
      <g>
       <use xlink:href="#mb3886351c1" x="377.887558" y="307.584" style="stroke: #000000; stroke-width: 0.8"/>
      </g>
     </g>
     <g id="text_7">
      <!-- 120000 -->
      <g transform="translate(358.800058 322.182437) scale(0.1 -0.1)">
       <use xlink:href="#DejaVuSans-31"/>
       <use xlink:href="#DejaVuSans-32" x="63.623047"/>
       <use xlink:href="#DejaVuSans-30" x="127.246094"/>
       <use xlink:href="#DejaVuSans-30" x="190.869141"/>
       <use xlink:href="#DejaVuSans-30" x="254.492188"/>
       <use xlink:href="#DejaVuSans-30" x="318.115234"/>
      </g>
     </g>
    </g>
   </g>
   <g id="matplotlib.axis_2">
    <g id="ytick_1">
     <g id="line2d_8">
      <defs>
       <path id="m615d2147d9" d="M 0 0 
L -3.5 0 
" style="stroke: #000000; stroke-width: 0.8"/>
      </defs>
      <g>
       <use xlink:href="#m615d2147d9" x="57.6" y="295.488" style="stroke: #000000; stroke-width: 0.8"/>
      </g>
     </g>
     <g id="text_8">
      <!-- 0.0 -->
      <g transform="translate(34.696875 299.287219) scale(0.1 -0.1)">
       <defs>
        <path id="DejaVuSans-2e" d="M 684 794 
L 1344 794 
L 1344 0 
L 684 0 
L 684 794 
z
" transform="scale(0.015625)"/>
       </defs>
       <use xlink:href="#DejaVuSans-30"/>
       <use xlink:href="#DejaVuSans-2e" x="63.623047"/>
       <use xlink:href="#DejaVuSans-30" x="95.410156"/>
      </g>
     </g>
    </g>
    <g id="ytick_2">
     <g id="line2d_9">
      <g>
       <use xlink:href="#m615d2147d9" x="57.6" y="247.104" style="stroke: #000000; stroke-width: 0.8"/>
      </g>
     </g>
     <g id="text_9">
      <!-- 0.2 -->
      <g transform="translate(34.696875 250.903219) scale(0.1 -0.1)">
       <use xlink:href="#DejaVuSans-30"/>
       <use xlink:href="#DejaVuSans-2e" x="63.623047"/>
       <use xlink:href="#DejaVuSans-32" x="95.410156"/>
      </g>
     </g>
    </g>
    <g id="ytick_3">
     <g id="line2d_10">
      <g>
       <use xlink:href="#m615d2147d9" x="57.6" y="198.72" style="stroke: #000000; stroke-width: 0.8"/>
      </g>
     </g>
     <g id="text_10">
      <!-- 0.4 -->
      <g transform="translate(34.696875 202.519219) scale(0.1 -0.1)">
       <use xlink:href="#DejaVuSans-30"/>
       <use xlink:href="#DejaVuSans-2e" x="63.623047"/>
       <use xlink:href="#DejaVuSans-34" x="95.410156"/>
      </g>
     </g>
    </g>
    <g id="ytick_4">
     <g id="line2d_11">
      <g>
       <use xlink:href="#m615d2147d9" x="57.6" y="150.336" style="stroke: #000000; stroke-width: 0.8"/>
      </g>
     </g>
     <g id="text_11">
      <!-- 0.6 -->
      <g transform="translate(34.696875 154.135219) scale(0.1 -0.1)">
       <use xlink:href="#DejaVuSans-30"/>
       <use xlink:href="#DejaVuSans-2e" x="63.623047"/>
       <use xlink:href="#DejaVuSans-36" x="95.410156"/>
      </g>
     </g>
    </g>
    <g id="ytick_5">
     <g id="line2d_12">
      <g>
       <use xlink:href="#m615d2147d9" x="57.6" y="101.952" style="stroke: #000000; stroke-width: 0.8"/>
      </g>
     </g>
     <g id="text_12">
      <!-- 0.8 -->
      <g transform="translate(34.696875 105.751219) scale(0.1 -0.1)">
       <use xlink:href="#DejaVuSans-30"/>
       <use xlink:href="#DejaVuSans-2e" x="63.623047"/>
       <use xlink:href="#DejaVuSans-38" x="95.410156"/>
      </g>
     </g>
    </g>
    <g id="ytick_6">
     <g id="line2d_13">
      <g>
       <use xlink:href="#m615d2147d9" x="57.6" y="53.568" style="stroke: #000000; stroke-width: 0.8"/>
      </g>
     </g>
     <g id="text_13">
      <!-- 1.0 -->
      <g transform="translate(34.696875 57.367219) scale(0.1 -0.1)">
       <use xlink:href="#DejaVuSans-31"/>
       <use xlink:href="#DejaVuSans-2e" x="63.623047"/>
       <use xlink:href="#DejaVuSans-30" x="95.410156"/>
      </g>
     </g>
    </g>
   </g>
   <g id="line2d_14">
    <path d="M 73.832727 295.488 
L 73.883403 295.488 
L 73.984755 294.109538 
L 74.111444 294.109538 
L 74.212796 284.230564 
L 74.212796 284.230564 
L 74.238134 284.230564 
L 74.339485 272.973128 
L 74.339485 272.973128 
L 74.364823 272.973128 
L 74.466175 270.216205 
L 74.466175 270.216205 
L 74.491513 270.216205 
L 74.592864 254.823385 
L 74.592864 254.823385 
L 74.618202 254.823385 
L 74.719554 245.633641 
L 74.719554 245.633641 
L 74.744892 245.633641 
L 74.846243 235.98441 
L 74.846243 235.98441 
L 74.871581 235.98441 
L 74.972933 224.037744 
L 74.972933 224.037744 
L 74.998271 224.037744 
L 75.099622 211.861333 
L 75.099622 211.861333 
L 75.12496 211.861333 
L 75.226312 202.901333 
L 75.25165 202.901333 
L 75.353001 193.941333 
L 75.353001 193.941333 
L 75.378339 193.941333 
L 75.479691 176.710564 
L 75.479691 176.710564 
L 75.505029 176.710564 
L 75.60638 172.804923 
L 75.60638 172.804923 
L 75.657056 172.804923 
L 75.758408 172.115692 
L 75.809084 172.115692 
L 75.910435 170.966974 
L 75.935773 170.966974 
L 76.037125 168.899282 
L 76.037125 168.899282 
L 76.062463 168.899282 
L 76.163814 167.520821 
L 76.21449 167.520821 
L 76.315842 164.763897 
L 76.315842 164.763897 
L 76.34118 164.763897 
L 76.442531 162.006974 
L 76.442531 162.006974 
L 76.467869 162.006974 
L 76.569221 158.790564 
L 76.569221 158.790564 
L 76.594559 158.790564 
L 76.670572 156.952615 
L 76.721248 156.952615 
L 76.8226 154.425436 
L 76.8226 154.425436 
L 76.847938 154.425436 
L 76.949289 152.128 
L 76.974627 152.128 
L 77.025303 150.979282 
L 77.101317 150.979282 
L 77.202668 148.681846 
L 77.228006 148.681846 
L 77.329358 146.614154 
L 77.329358 146.614154 
L 77.354696 146.614154 
L 77.456047 145.695179 
L 77.481385 145.695179 
L 77.582737 145.005949 
L 77.608075 145.005949 
L 77.709426 143.397744 
L 77.78544 143.397744 
L 77.78544 143.168 
L 78.190847 143.168 
L 78.190847 142.938256 
L 78.418888 142.938256 
L 78.418888 142.708513 
L 78.672267 142.708513 
L 78.722942 142.249026 
L 78.900308 142.249026 
L 79.001659 141.789538 
L 79.052335 141.789538 
L 79.153687 140.640821 
L 79.255038 140.640821 
L 79.35639 139.262359 
L 79.381728 139.262359 
L 79.48308 138.343385 
L 79.508417 138.343385 
L 79.559093 137.654154 
L 79.559093 137.654154 
L 79.635107 137.654154 
L 79.711121 136.505436 
L 79.711121 136.505436 
L 79.787134 136.505436 
L 79.888486 135.586462 
L 79.913824 135.586462 
L 80.015175 134.667487 
L 80.040513 134.667487 
L 80.040513 134.437744 
L 80.243217 134.437744 
L 80.344568 133.748513 
L 80.420582 133.748513 
L 80.521934 133.059282 
L 80.92734 133.059282 
L 80.952678 132.599795 
L 81.05403 132.599795 
L 81.05403 132.370051 
L 81.180719 132.370051 
L 81.206057 131.910564 
L 81.712815 131.910564 
L 81.712815 131.680821 
L 81.839504 131.680821 
L 81.89018 131.221333 
L 81.966194 131.221333 
L 82.067546 130.761846 
L 82.092884 130.761846 
L 82.118221 130.302359 
L 82.346263 130.302359 
L 82.422276 129.383385 
L 82.422276 129.383385 
L 82.49829 129.383385 
L 82.49829 129.153641 
L 82.929034 129.153641 
L 82.97971 128.694154 
L 83.055724 128.694154 
L 83.157075 128.004923 
L 83.233089 128.004923 
L 83.334441 127.315692 
L 83.410454 127.315692 
L 83.511806 126.166974 
L 83.562482 126.166974 
L 83.58782 125.707487 
L 83.815861 125.707487 
L 83.815861 125.248 
L 83.815861 125.248 
L 83.993226 125.248 
L 84.06924 124.099282 
L 84.170592 124.099282 
L 84.246605 122.950564 
L 84.297281 122.950564 
L 84.398633 121.342359 
L 84.398633 121.342359 
L 84.449308 121.342359 
L 84.55066 119.50441 
L 84.601336 119.50441 
L 84.702687 118.585436 
L 84.753363 118.585436 
L 84.854715 116.288 
L 84.854715 116.288 
L 84.880053 116.288 
L 84.981404 114.450051 
L 84.981404 114.450051 
L 85.006742 114.450051 
L 85.108094 112.612103 
L 85.133432 112.612103 
L 85.234783 109.165949 
L 85.234783 109.165949 
L 85.260121 109.165949 
L 85.361473 106.638769 
L 85.361473 106.638769 
L 85.386811 106.638769 
L 85.488162 102.733128 
L 85.488162 102.733128 
L 85.5135 102.733128 
L 85.614852 98.597744 
L 85.64019 98.597744 
L 85.741541 96.300308 
L 85.766879 96.300308 
L 85.868231 94.232615 
L 85.893569 94.232615 
L 85.99492 91.935179 
L 85.99492 91.935179 
L 86.020258 91.935179 
L 86.12161 90.556718 
L 86.146948 90.556718 
L 86.222962 88.948513 
L 86.222962 88.948513 
L 86.273637 88.948513 
L 86.374989 87.340308 
L 86.400327 87.340308 
L 86.476341 86.19159 
L 86.527016 86.19159 
L 86.552354 85.732103 
L 86.805733 85.732103 
L 86.881747 85.272615 
L 87.540533 85.272615 
L 87.540533 85.042872 
L 87.717898 85.042872 
L 87.819249 84.583385 
L 87.945939 84.583385 
L 88.021953 84.123897 
L 88.097966 84.123897 
L 88.199318 83.434667 
L 88.199318 83.434667 
L 88.224656 83.434667 
L 88.326008 82.745436 
L 88.326008 82.745436 
L 88.351345 82.745436 
L 88.427359 81.366974 
L 88.427359 81.366974 
L 88.503373 81.366974 
L 88.503373 81.137231 
L 88.630062 81.137231 
L 88.706076 79.988513 
L 88.706076 79.988513 
L 88.756752 79.988513 
L 88.78209 79.529026 
L 88.883441 79.529026 
L 88.959455 78.839795 
L 89.060807 78.839795 
L 89.111483 78.150564 
L 89.187496 78.150564 
L 89.288848 76.772103 
L 89.314186 76.772103 
L 89.364862 75.393641 
L 89.364862 75.393641 
L 89.440875 75.393641 
L 89.542227 73.325949 
L 89.542227 73.325949 
L 89.567565 73.325949 
L 89.618241 72.177231 
L 89.618241 72.177231 
L 89.719592 72.177231 
L 89.820944 70.339282 
L 89.846282 70.339282 
L 89.947633 68.041846 
L 89.998309 68.041846 
L 90.048985 67.582359 
L 90.150337 67.582359 
L 90.251688 65.974154 
L 90.251688 65.974154 
L 90.302364 65.974154 
L 90.302364 65.514667 
L 90.302364 65.514667 
L 90.429053 65.514667 
L 90.505067 64.136205 
L 90.581081 64.136205 
L 90.631757 63.676718 
L 90.83446 63.676718 
L 90.935811 63.217231 
L 91.037163 63.217231 
L 91.113177 62.528 
L 91.189191 62.528 
L 91.189191 62.298256 
L 91.31588 62.298256 
L 91.31588 62.068513 
L 93.266899 62.068513 
L 93.266899 61.838769 
L 93.925684 61.838769 
L 93.925684 61.609026 
L 94.45778 61.609026 
L 94.533794 60.919795 
L 94.736497 60.919795 
L 94.736497 60.460308 
L 94.736497 60.460308 
L 95.015214 60.460308 
L 95.116565 59.541333 
L 95.116565 59.541333 
L 95.167241 59.541333 
L 95.167241 59.31159 
L 95.471296 59.31159 
L 95.572648 58.852103 
L 95.597986 58.852103 
L 95.699337 58.162872 
L 95.750013 58.162872 
L 95.750013 57.933128 
L 95.952716 57.933128 
L 96.054068 57.243897 
L 96.054068 57.243897 
L 96.104744 57.243897 
L 96.155419 56.78441 
L 96.256771 56.78441 
L 96.256771 56.554667 
L 96.535488 56.554667 
L 96.535488 56.324923 
L 96.662177 56.324923 
L 96.662177 56.095179 
L 97.549004 56.095179 
L 97.549004 55.865436 
L 99.753402 55.865436 
L 99.753402 55.635692 
L 100.13347 55.635692 
L 100.13347 55.405949 
L 100.893607 55.405949 
L 100.893607 55.176205 
L 101.425703 55.176205 
L 101.425703 54.946462 
L 102.31253 54.946462 
L 102.31253 54.716718 
L 105.226389 54.716718 
L 105.226389 54.486974 
L 107.228083 54.486974 
L 107.228083 54.257231 
L 107.785517 54.257231 
L 107.785517 54.027487 
L 108.672343 54.027487 
L 108.672343 53.797744 
L 398.487273 53.797744 
L 398.487273 53.568 
L 398.487273 53.568 
" clip-path="url(#p0df157499d)" style="fill: none; stroke: #1f77b4; stroke-width: 1.5; stroke-linecap: square"/>
   </g>
   <g id="line2d_15">
    <path d="M 73.832727 295.488 
L 73.934079 295.488 
L 74.03543 293.944299 
L 74.060768 293.944299 
L 74.16212 292.400598 
L 74.187458 292.400598 
L 74.263472 282.476806 
L 74.263472 282.476806 
L 74.339485 282.476806 
L 74.440837 281.153634 
L 74.440837 281.153634 
L 74.466175 281.153634 
L 74.567526 276.963588 
L 74.567526 276.963588 
L 74.592864 276.963588 
L 74.694216 272.111956 
L 74.694216 272.111956 
L 74.719554 272.111956 
L 74.820905 267.260325 
L 74.820905 267.260325 
L 74.846243 267.260325 
L 74.947595 263.952394 
L 74.947595 263.952394 
L 74.972933 263.952394 
L 75.048947 253.367015 
L 75.099622 253.367015 
L 75.200974 249.17697 
L 75.200974 249.17697 
L 75.226312 249.17697 
L 75.327664 247.41274 
L 75.327664 247.41274 
L 75.353001 247.41274 
L 75.454353 239.694235 
L 75.479691 239.694235 
L 75.581043 237.930005 
L 75.581043 237.930005 
L 75.60638 237.930005 
L 75.707732 235.063132 
L 75.707732 235.063132 
L 75.758408 235.063132 
L 75.859759 233.73996 
L 75.859759 233.73996 
L 75.885097 233.73996 
L 75.986449 231.534673 
L 75.986449 231.534673 
L 76.011787 231.534673 
L 76.113139 229.990972 
L 76.113139 229.990972 
L 76.138476 229.990972 
L 76.239828 227.565156 
L 76.239828 227.565156 
L 76.265166 227.565156 
L 76.366518 225.359869 
L 76.366518 225.359869 
L 76.391855 225.359869 
L 76.493207 222.713524 
L 76.493207 222.713524 
L 76.518545 222.713524 
L 76.619897 218.964536 
L 76.619897 218.964536 
L 76.645234 218.964536 
L 76.746586 216.979778 
L 76.746586 216.979778 
L 76.771924 216.979778 
L 76.873276 214.112904 
L 76.873276 214.112904 
L 76.923951 214.112904 
L 76.999965 211.246031 
L 76.999965 211.246031 
L 77.050641 211.246031 
L 77.151993 207.497043 
L 77.151993 207.497043 
L 77.17733 207.497043 
L 77.278682 205.512284 
L 77.278682 205.512284 
L 77.30402 205.512284 
L 77.380034 203.968583 
L 77.380034 203.968583 
L 77.430709 203.968583 
L 77.532061 201.542768 
L 77.532061 201.542768 
L 77.582737 201.542768 
L 77.684088 199.558009 
L 77.684088 199.558009 
L 77.709426 199.558009 
L 77.78544 198.896423 
L 77.836116 198.896423 
L 77.861454 198.234837 
L 77.962805 198.234837 
L 77.962805 197.573251 
L 77.962805 197.573251 
L 78.165509 197.573251 
L 78.190847 196.911665 
L 78.190847 196.911665 
L 78.317536 196.911665 
L 78.368212 196.02955 
L 78.494901 196.02955 
L 78.545577 195.367964 
L 78.672267 195.367964 
L 78.74828 194.485849 
L 78.74828 194.485849 
L 78.798956 194.485849 
L 78.87497 192.942148 
L 78.87497 192.942148 
L 78.976321 192.942148 
L 79.077673 191.839504 
L 79.128349 191.839504 
L 79.229701 190.736861 
L 79.280376 190.736861 
L 79.35639 189.634217 
L 79.407066 189.634217 
L 79.508417 188.752102 
L 79.508417 188.752102 
L 79.533755 188.752102 
L 79.635107 187.42893 
L 79.685783 187.42893 
L 79.787134 186.326286 
L 79.812472 186.326286 
L 79.913824 184.341528 
L 79.913824 184.341528 
L 79.939162 184.341528 
L 80.015175 183.238884 
L 80.065851 183.238884 
L 80.167203 181.915712 
L 80.243217 181.915712 
L 80.344568 180.59254 
L 80.420582 180.59254 
L 80.44592 180.151482 
L 80.623285 180.151482 
L 80.724637 179.489896 
L 80.749975 179.489896 
L 80.749975 179.269367 
L 80.902002 179.269367 
L 80.902002 179.048839 
L 81.40876 179.048839 
L 81.484774 178.607781 
L 81.560788 178.607781 
L 81.560788 178.387253 
L 81.839504 178.387253 
L 81.940856 177.946195 
L 81.966194 177.946195 
L 81.991532 177.284609 
L 82.143559 177.284609 
L 82.219573 176.623023 
L 82.270249 176.623023 
L 82.3716 175.520379 
L 82.3716 175.520379 
L 82.396938 175.520379 
L 82.49829 174.197207 
L 82.523628 174.197207 
L 82.599642 173.315092 
L 82.599642 173.315092 
L 82.700993 173.315092 
L 82.751669 172.432977 
L 82.751669 172.432977 
L 82.853021 172.432977 
L 82.954372 171.330334 
L 82.97971 171.330334 
L 83.081062 170.448219 
L 83.081062 170.448219 
L 83.1064 170.448219 
L 83.207751 168.46346 
L 83.207751 168.46346 
L 83.233089 168.46346 
L 83.334441 166.037644 
L 83.334441 166.037644 
L 83.359779 166.037644 
L 83.46113 164.273415 
L 83.46113 164.273415 
L 83.486468 164.273415 
L 83.58782 162.068128 
L 83.58782 162.068128 
L 83.739847 162.068128 
L 83.841199 159.201254 
L 83.841199 159.201254 
L 83.866537 159.201254 
L 83.967888 156.995967 
L 83.967888 156.995967 
L 83.993226 156.995967 
L 84.094578 155.452266 
L 84.094578 155.452266 
L 84.145254 155.452266 
L 84.246605 154.129094 
L 84.246605 154.129094 
L 84.271943 154.129094 
L 84.347957 152.364864 
L 84.347957 152.364864 
L 84.398633 152.364864 
L 84.499984 150.380106 
L 84.525322 150.380106 
L 84.626674 148.395347 
L 84.626674 148.395347 
L 84.652012 148.395347 
L 84.753363 145.087417 
L 84.778701 145.087417 
L 84.880053 143.102658 
L 84.880053 143.102658 
L 84.905391 143.102658 
L 85.006742 140.015256 
L 85.006742 140.015256 
L 85.03208 140.015256 
L 85.133432 137.148383 
L 85.15877 137.148383 
L 85.260121 134.060981 
L 85.285459 134.060981 
L 85.386811 130.311993 
L 85.386811 130.311993 
L 85.412149 130.311993 
L 85.5135 127.665648 
L 85.5135 127.665648 
L 85.538838 127.665648 
L 85.64019 125.239832 
L 85.64019 125.239832 
L 85.665528 125.239832 
L 85.766879 122.814016 
L 85.766879 122.814016 
L 85.792217 122.814016 
L 85.893569 121.049787 
L 85.969583 121.049787 
L 86.045596 119.506086 
L 86.146948 119.506086 
L 86.2483 118.623971 
L 86.273637 118.623971 
L 86.374989 116.859741 
L 86.374989 116.859741 
L 86.400327 116.859741 
L 86.501679 115.757098 
L 86.527016 115.757098 
L 86.577692 115.095511 
L 86.704382 115.095511 
L 86.805733 114.654454 
L 86.957761 114.654454 
L 86.957761 114.433925 
L 87.337829 114.433925 
L 87.337829 114.213397 
L 87.920601 114.213397 
L 87.920601 113.992868 
L 88.199318 113.992868 
L 88.30067 113.110753 
L 88.30067 113.110753 
L 88.351345 113.110753 
L 88.427359 112.449167 
L 88.478035 112.449167 
L 88.528711 111.787581 
L 88.604724 111.787581 
L 88.680738 110.023351 
L 88.680738 110.023351 
L 88.731414 110.023351 
L 88.832766 108.920707 
L 88.832766 108.920707 
L 88.883441 108.920707 
L 88.959455 107.818064 
L 89.010131 107.818064 
L 89.111483 105.612777 
L 89.111483 105.612777 
L 89.13682 105.612777 
L 89.238172 104.069076 
L 89.314186 104.069076 
L 89.415537 102.745903 
L 89.415537 102.745903 
L 89.440875 102.745903 
L 89.542227 99.437973 
L 89.542227 99.437973 
L 89.567565 99.437973 
L 89.668916 96.350571 
L 89.694254 96.350571 
L 89.795606 93.924755 
L 89.795606 93.924755 
L 89.820944 93.924755 
L 89.896957 91.498939 
L 89.896957 91.498939 
L 89.947633 91.498939 
L 90.048985 89.293652 
L 90.074323 89.293652 
L 90.150337 86.647307 
L 90.150337 86.647307 
L 90.201012 86.647307 
L 90.302364 84.44202 
L 90.302364 84.44202 
L 90.327702 84.44202 
L 90.403716 83.118848 
L 90.454391 83.118848 
L 90.555743 81.575147 
L 90.555743 81.575147 
L 90.581081 81.575147 
L 90.606419 81.134089 
L 90.70777 81.134089 
L 90.783784 80.472503 
L 90.961149 80.472503 
L 91.062501 79.590388 
L 91.087839 79.590388 
L 91.163853 78.928802 
L 91.391894 78.928802 
L 91.391894 78.708273 
L 91.543921 78.708273 
L 91.645273 78.267216 
L 91.695949 78.267216 
L 91.695949 78.046687 
L 92.633451 78.046687 
L 92.633451 77.826159 
L 93.646967 77.826159 
L 93.646967 77.60563 
L 93.84967 77.60563 
L 93.925684 77.164572 
L 94.077711 77.164572 
L 94.179063 76.282458 
L 94.179063 76.282458 
L 94.255077 76.282458 
L 94.33109 75.8414 
L 94.381766 75.8414 
L 94.381766 75.620871 
L 94.508456 75.620871 
L 94.559132 75.179814 
L 94.635145 75.179814 
L 94.736497 74.297699 
L 94.812511 74.297699 
L 94.913862 73.636113 
L 94.9392 73.636113 
L 95.040552 72.092412 
L 95.141903 72.092412 
L 95.192579 71.430826 
L 95.192579 71.430826 
L 95.268593 71.430826 
L 95.369944 69.446067 
L 95.395282 69.446067 
L 95.395282 69.225539 
L 95.521972 69.225539 
L 95.597986 68.563953 
L 95.673999 68.563953 
L 95.750013 67.461309 
L 95.800689 67.461309 
L 95.876702 66.138137 
L 95.876702 66.138137 
L 95.927378 66.138137 
L 96.02873 63.93285 
L 96.02873 63.93285 
L 96.079406 63.93285 
L 96.104744 63.271263 
L 96.206095 63.271263 
L 96.307447 61.286505 
L 96.307447 61.286505 
L 96.332785 61.286505 
L 96.408798 60.624919 
L 96.484812 60.624919 
L 96.586164 59.081218 
L 96.586164 59.081218 
L 96.611502 59.081218 
L 96.687515 58.199103 
L 96.738191 58.199103 
L 96.814205 57.537517 
L 96.890219 57.537517 
L 96.890219 57.316988 
L 97.092922 57.316988 
L 97.092922 57.096459 
L 97.219611 57.096459 
L 97.219611 56.875931 
L 97.346301 56.875931 
L 97.422315 56.214345 
L 97.47299 56.214345 
L 97.549004 55.773287 
L 97.625018 55.773287 
L 97.625018 55.552758 
L 97.878397 55.552758 
L 97.878397 55.33223 
L 99.04394 55.33223 
L 99.04394 55.111701 
L 100.032119 55.111701 
L 100.032119 54.891172 
L 102.008475 54.891172 
L 102.008475 54.670644 
L 102.287192 54.670644 
L 102.287192 54.450115 
L 103.047329 54.450115 
L 103.047329 54.229586 
L 105.125037 54.229586 
L 105.125037 54.009057 
L 105.378416 54.009057 
L 105.378416 53.788529 
L 111.712892 53.788529 
L 111.712892 53.568 
L 111.712892 53.568 
" clip-path="url(#p0df157499d)" style="fill: none; stroke: #ff7f0e; stroke-width: 1.5; stroke-linecap: square"/>
   </g>
   <g id="patch_3">
    <path d="M 57.6 307.584 
L 57.6 41.472 
" style="fill: none; stroke: #000000; stroke-width: 0.8; stroke-linejoin: miter; stroke-linecap: square"/>
   </g>
   <g id="patch_4">
    <path d="M 414.72 307.584 
L 414.72 41.472 
" style="fill: none; stroke: #000000; stroke-width: 0.8; stroke-linejoin: miter; stroke-linecap: square"/>
   </g>
   <g id="patch_5">
    <path d="M 57.6 307.584 
L 414.72 307.584 
" style="fill: none; stroke: #000000; stroke-width: 0.8; stroke-linejoin: miter; stroke-linecap: square"/>
   </g>
   <g id="patch_6">
    <path d="M 57.6 41.472 
L 414.72 41.472 
" style="fill: none; stroke: #000000; stroke-width: 0.8; stroke-linejoin: miter; stroke-linecap: square"/>
   </g>
   <g id="text_14">
    <!-- S6 S7 -->
    <g transform="translate(219 35.472) scale(0.12 -0.12)">
     <defs>
      <path id="DejaVuSans-53" d="M 3425 4513 
L 3425 3897 
Q 3066 4069 2747 4153 
Q 2428 4238 2131 4238 
Q 1616 4238 1336 4038 
Q 1056 3838 1056 3469 
Q 1056 3159 1242 3001 
Q 1428 2844 1947 2747 
L 2328 2669 
Q 3034 2534 3370 2195 
Q 3706 1856 3706 1288 
Q 3706 609 3251 259 
Q 2797 -91 1919 -91 
Q 1588 -91 1214 -16 
Q 841 59 441 206 
L 441 856 
Q 825 641 1194 531 
Q 1563 422 1919 422 
Q 2459 422 2753 634 
Q 3047 847 3047 1241 
Q 3047 1584 2836 1778 
Q 2625 1972 2144 2069 
L 1759 2144 
Q 1053 2284 737 2584 
Q 422 2884 422 3419 
Q 422 4038 858 4394 
Q 1294 4750 2059 4750 
Q 2388 4750 2728 4690 
Q 3069 4631 3425 4513 
z
" transform="scale(0.015625)"/>
      <path id="DejaVuSans-20" transform="scale(0.015625)"/>
      <path id="DejaVuSans-37" d="M 525 4666 
L 3525 4666 
L 3525 4397 
L 1831 0 
L 1172 0 
L 2766 4134 
L 525 4134 
L 525 4666 
z
" transform="scale(0.015625)"/>
     </defs>
     <use xlink:href="#DejaVuSans-53"/>
     <use xlink:href="#DejaVuSans-36" x="63.476562"/>
     <use xlink:href="#DejaVuSans-20" x="127.099609"/>
     <use xlink:href="#DejaVuSans-53" x="158.886719"/>
     <use xlink:href="#DejaVuSans-37" x="222.363281"/>
    </g>
   </g>
   <g id="legend_1">
    <g id="patch_7">
     <path d="M 88.712813 304.584 
L 410.52 304.584 
Q 411.72 304.584 411.72 303.384 
L 411.72 286.37025 
Q 411.72 285.17025 410.52 285.17025 
L 88.712813 285.17025 
Q 87.512813 285.17025 87.512813 286.37025 
L 87.512813 303.384 
Q 87.512813 304.584 88.712813 304.584 
z
" style="fill: #ffffff; opacity: 0.8; stroke: #cccccc; stroke-linejoin: miter"/>
    </g>
    <g id="line2d_16">
     <path d="M 89.912813 290.029312 
L 95.912813 290.029312 
L 101.912813 290.029312 
" style="fill: none; stroke: #1f77b4; stroke-width: 1.5; stroke-linecap: square"/>
    </g>
    <g id="text_15">
     <!-- Execution time between S6 S7 (xx1xx1xx1xx0yyy3xx0yyy3xx1xx0yyy45xx1xx1) -->
     <g transform="translate(106.712813 292.129312) scale(0.06 -0.06)">
      <defs>
       <path id="DejaVuSans-45" d="M 628 4666 
L 3578 4666 
L 3578 4134 
L 1259 4134 
L 1259 2753 
L 3481 2753 
L 3481 2222 
L 1259 2222 
L 1259 531 
L 3634 531 
L 3634 0 
L 628 0 
L 628 4666 
z
" transform="scale(0.015625)"/>
       <path id="DejaVuSans-78" d="M 3513 3500 
L 2247 1797 
L 3578 0 
L 2900 0 
L 1881 1375 
L 863 0 
L 184 0 
L 1544 1831 
L 300 3500 
L 978 3500 
L 1906 2253 
L 2834 3500 
L 3513 3500 
z
" transform="scale(0.015625)"/>
       <path id="DejaVuSans-65" d="M 3597 1894 
L 3597 1613 
L 953 1613 
Q 991 1019 1311 708 
Q 1631 397 2203 397 
Q 2534 397 2845 478 
Q 3156 559 3463 722 
L 3463 178 
Q 3153 47 2828 -22 
Q 2503 -91 2169 -91 
Q 1331 -91 842 396 
Q 353 884 353 1716 
Q 353 2575 817 3079 
Q 1281 3584 2069 3584 
Q 2775 3584 3186 3129 
Q 3597 2675 3597 1894 
z
M 3022 2063 
Q 3016 2534 2758 2815 
Q 2500 3097 2075 3097 
Q 1594 3097 1305 2825 
Q 1016 2553 972 2059 
L 3022 2063 
z
" transform="scale(0.015625)"/>
       <path id="DejaVuSans-63" d="M 3122 3366 
L 3122 2828 
Q 2878 2963 2633 3030 
Q 2388 3097 2138 3097 
Q 1578 3097 1268 2742 
Q 959 2388 959 1747 
Q 959 1106 1268 751 
Q 1578 397 2138 397 
Q 2388 397 2633 464 
Q 2878 531 3122 666 
L 3122 134 
Q 2881 22 2623 -34 
Q 2366 -91 2075 -91 
Q 1284 -91 818 406 
Q 353 903 353 1747 
Q 353 2603 823 3093 
Q 1294 3584 2113 3584 
Q 2378 3584 2631 3529 
Q 2884 3475 3122 3366 
z
" transform="scale(0.015625)"/>
       <path id="DejaVuSans-75" d="M 544 1381 
L 544 3500 
L 1119 3500 
L 1119 1403 
Q 1119 906 1312 657 
Q 1506 409 1894 409 
Q 2359 409 2629 706 
Q 2900 1003 2900 1516 
L 2900 3500 
L 3475 3500 
L 3475 0 
L 2900 0 
L 2900 538 
Q 2691 219 2414 64 
Q 2138 -91 1772 -91 
Q 1169 -91 856 284 
Q 544 659 544 1381 
z
M 1991 3584 
L 1991 3584 
z
" transform="scale(0.015625)"/>
       <path id="DejaVuSans-74" d="M 1172 4494 
L 1172 3500 
L 2356 3500 
L 2356 3053 
L 1172 3053 
L 1172 1153 
Q 1172 725 1289 603 
Q 1406 481 1766 481 
L 2356 481 
L 2356 0 
L 1766 0 
Q 1100 0 847 248 
Q 594 497 594 1153 
L 594 3053 
L 172 3053 
L 172 3500 
L 594 3500 
L 594 4494 
L 1172 4494 
z
" transform="scale(0.015625)"/>
       <path id="DejaVuSans-69" d="M 603 3500 
L 1178 3500 
L 1178 0 
L 603 0 
L 603 3500 
z
M 603 4863 
L 1178 4863 
L 1178 4134 
L 603 4134 
L 603 4863 
z
" transform="scale(0.015625)"/>
       <path id="DejaVuSans-6f" d="M 1959 3097 
Q 1497 3097 1228 2736 
Q 959 2375 959 1747 
Q 959 1119 1226 758 
Q 1494 397 1959 397 
Q 2419 397 2687 759 
Q 2956 1122 2956 1747 
Q 2956 2369 2687 2733 
Q 2419 3097 1959 3097 
z
M 1959 3584 
Q 2709 3584 3137 3096 
Q 3566 2609 3566 1747 
Q 3566 888 3137 398 
Q 2709 -91 1959 -91 
Q 1206 -91 779 398 
Q 353 888 353 1747 
Q 353 2609 779 3096 
Q 1206 3584 1959 3584 
z
" transform="scale(0.015625)"/>
       <path id="DejaVuSans-6e" d="M 3513 2113 
L 3513 0 
L 2938 0 
L 2938 2094 
Q 2938 2591 2744 2837 
Q 2550 3084 2163 3084 
Q 1697 3084 1428 2787 
Q 1159 2491 1159 1978 
L 1159 0 
L 581 0 
L 581 3500 
L 1159 3500 
L 1159 2956 
Q 1366 3272 1645 3428 
Q 1925 3584 2291 3584 
Q 2894 3584 3203 3211 
Q 3513 2838 3513 2113 
z
" transform="scale(0.015625)"/>
       <path id="DejaVuSans-6d" d="M 3328 2828 
Q 3544 3216 3844 3400 
Q 4144 3584 4550 3584 
Q 5097 3584 5394 3201 
Q 5691 2819 5691 2113 
L 5691 0 
L 5113 0 
L 5113 2094 
Q 5113 2597 4934 2840 
Q 4756 3084 4391 3084 
Q 3944 3084 3684 2787 
Q 3425 2491 3425 1978 
L 3425 0 
L 2847 0 
L 2847 2094 
Q 2847 2600 2669 2842 
Q 2491 3084 2119 3084 
Q 1678 3084 1418 2786 
Q 1159 2488 1159 1978 
L 1159 0 
L 581 0 
L 581 3500 
L 1159 3500 
L 1159 2956 
Q 1356 3278 1631 3431 
Q 1906 3584 2284 3584 
Q 2666 3584 2933 3390 
Q 3200 3197 3328 2828 
z
" transform="scale(0.015625)"/>
       <path id="DejaVuSans-62" d="M 3116 1747 
Q 3116 2381 2855 2742 
Q 2594 3103 2138 3103 
Q 1681 3103 1420 2742 
Q 1159 2381 1159 1747 
Q 1159 1113 1420 752 
Q 1681 391 2138 391 
Q 2594 391 2855 752 
Q 3116 1113 3116 1747 
z
M 1159 2969 
Q 1341 3281 1617 3432 
Q 1894 3584 2278 3584 
Q 2916 3584 3314 3078 
Q 3713 2572 3713 1747 
Q 3713 922 3314 415 
Q 2916 -91 2278 -91 
Q 1894 -91 1617 61 
Q 1341 213 1159 525 
L 1159 0 
L 581 0 
L 581 4863 
L 1159 4863 
L 1159 2969 
z
" transform="scale(0.015625)"/>
       <path id="DejaVuSans-77" d="M 269 3500 
L 844 3500 
L 1563 769 
L 2278 3500 
L 2956 3500 
L 3675 769 
L 4391 3500 
L 4966 3500 
L 4050 0 
L 3372 0 
L 2619 2869 
L 1863 0 
L 1184 0 
L 269 3500 
z
" transform="scale(0.015625)"/>
       <path id="DejaVuSans-28" d="M 1984 4856 
Q 1566 4138 1362 3434 
Q 1159 2731 1159 2009 
Q 1159 1288 1364 580 
Q 1569 -128 1984 -844 
L 1484 -844 
Q 1016 -109 783 600 
Q 550 1309 550 2009 
Q 550 2706 781 3412 
Q 1013 4119 1484 4856 
L 1984 4856 
z
" transform="scale(0.015625)"/>
       <path id="DejaVuSans-79" d="M 2059 -325 
Q 1816 -950 1584 -1140 
Q 1353 -1331 966 -1331 
L 506 -1331 
L 506 -850 
L 844 -850 
Q 1081 -850 1212 -737 
Q 1344 -625 1503 -206 
L 1606 56 
L 191 3500 
L 800 3500 
L 1894 763 
L 2988 3500 
L 3597 3500 
L 2059 -325 
z
" transform="scale(0.015625)"/>
       <path id="DejaVuSans-33" d="M 2597 2516 
Q 3050 2419 3304 2112 
Q 3559 1806 3559 1356 
Q 3559 666 3084 287 
Q 2609 -91 1734 -91 
Q 1441 -91 1130 -33 
Q 819 25 488 141 
L 488 750 
Q 750 597 1062 519 
Q 1375 441 1716 441 
Q 2309 441 2620 675 
Q 2931 909 2931 1356 
Q 2931 1769 2642 2001 
Q 2353 2234 1838 2234 
L 1294 2234 
L 1294 2753 
L 1863 2753 
Q 2328 2753 2575 2939 
Q 2822 3125 2822 3475 
Q 2822 3834 2567 4026 
Q 2313 4219 1838 4219 
Q 1578 4219 1281 4162 
Q 984 4106 628 3988 
L 628 4550 
Q 988 4650 1302 4700 
Q 1616 4750 1894 4750 
Q 2613 4750 3031 4423 
Q 3450 4097 3450 3541 
Q 3450 3153 3228 2886 
Q 3006 2619 2597 2516 
z
" transform="scale(0.015625)"/>
       <path id="DejaVuSans-35" d="M 691 4666 
L 3169 4666 
L 3169 4134 
L 1269 4134 
L 1269 2991 
Q 1406 3038 1543 3061 
Q 1681 3084 1819 3084 
Q 2600 3084 3056 2656 
Q 3513 2228 3513 1497 
Q 3513 744 3044 326 
Q 2575 -91 1722 -91 
Q 1428 -91 1123 -41 
Q 819 9 494 109 
L 494 744 
Q 775 591 1075 516 
Q 1375 441 1709 441 
Q 2250 441 2565 725 
Q 2881 1009 2881 1497 
Q 2881 1984 2565 2268 
Q 2250 2553 1709 2553 
Q 1456 2553 1204 2497 
Q 953 2441 691 2322 
L 691 4666 
z
" transform="scale(0.015625)"/>
       <path id="DejaVuSans-29" d="M 513 4856 
L 1013 4856 
Q 1481 4119 1714 3412 
Q 1947 2706 1947 2009 
Q 1947 1309 1714 600 
Q 1481 -109 1013 -844 
L 513 -844 
Q 928 -128 1133 580 
Q 1338 1288 1338 2009 
Q 1338 2731 1133 3434 
Q 928 4138 513 4856 
z
" transform="scale(0.015625)"/>
      </defs>
      <use xlink:href="#DejaVuSans-45"/>
      <use xlink:href="#DejaVuSans-78" x="63.183594"/>
      <use xlink:href="#DejaVuSans-65" x="119.238281"/>
      <use xlink:href="#DejaVuSans-63" x="180.761719"/>
      <use xlink:href="#DejaVuSans-75" x="235.742188"/>
      <use xlink:href="#DejaVuSans-74" x="299.121094"/>
      <use xlink:href="#DejaVuSans-69" x="338.330078"/>
      <use xlink:href="#DejaVuSans-6f" x="366.113281"/>
      <use xlink:href="#DejaVuSans-6e" x="427.294922"/>
      <use xlink:href="#DejaVuSans-20" x="490.673828"/>
      <use xlink:href="#DejaVuSans-74" x="522.460938"/>
      <use xlink:href="#DejaVuSans-69" x="561.669922"/>
      <use xlink:href="#DejaVuSans-6d" x="589.453125"/>
      <use xlink:href="#DejaVuSans-65" x="686.865234"/>
      <use xlink:href="#DejaVuSans-20" x="748.388672"/>
      <use xlink:href="#DejaVuSans-62" x="780.175781"/>
      <use xlink:href="#DejaVuSans-65" x="843.652344"/>
      <use xlink:href="#DejaVuSans-74" x="905.175781"/>
      <use xlink:href="#DejaVuSans-77" x="944.384766"/>
      <use xlink:href="#DejaVuSans-65" x="1026.171875"/>
      <use xlink:href="#DejaVuSans-65" x="1087.695312"/>
      <use xlink:href="#DejaVuSans-6e" x="1149.21875"/>
      <use xlink:href="#DejaVuSans-20" x="1212.597656"/>
      <use xlink:href="#DejaVuSans-53" x="1244.384766"/>
      <use xlink:href="#DejaVuSans-36" x="1307.861328"/>
      <use xlink:href="#DejaVuSans-20" x="1371.484375"/>
      <use xlink:href="#DejaVuSans-53" x="1403.271484"/>
      <use xlink:href="#DejaVuSans-37" x="1466.748047"/>
      <use xlink:href="#DejaVuSans-20" x="1530.371094"/>
      <use xlink:href="#DejaVuSans-28" x="1562.158203"/>
      <use xlink:href="#DejaVuSans-78" x="1601.171875"/>
      <use xlink:href="#DejaVuSans-78" x="1660.351562"/>
      <use xlink:href="#DejaVuSans-31" x="1719.53125"/>
      <use xlink:href="#DejaVuSans-78" x="1783.154297"/>
      <use xlink:href="#DejaVuSans-78" x="1842.333984"/>
      <use xlink:href="#DejaVuSans-31" x="1901.513672"/>
      <use xlink:href="#DejaVuSans-78" x="1965.136719"/>
      <use xlink:href="#DejaVuSans-78" x="2024.316406"/>
      <use xlink:href="#DejaVuSans-31" x="2083.496094"/>
      <use xlink:href="#DejaVuSans-78" x="2147.119141"/>
      <use xlink:href="#DejaVuSans-78" x="2206.298828"/>
      <use xlink:href="#DejaVuSans-30" x="2265.478516"/>
      <use xlink:href="#DejaVuSans-79" x="2329.101562"/>
      <use xlink:href="#DejaVuSans-79" x="2388.28125"/>
      <use xlink:href="#DejaVuSans-79" x="2447.460938"/>
      <use xlink:href="#DejaVuSans-33" x="2506.640625"/>
      <use xlink:href="#DejaVuSans-78" x="2570.263672"/>
      <use xlink:href="#DejaVuSans-78" x="2629.443359"/>
      <use xlink:href="#DejaVuSans-30" x="2688.623047"/>
      <use xlink:href="#DejaVuSans-79" x="2752.246094"/>
      <use xlink:href="#DejaVuSans-79" x="2811.425781"/>
      <use xlink:href="#DejaVuSans-79" x="2870.605469"/>
      <use xlink:href="#DejaVuSans-33" x="2929.785156"/>
      <use xlink:href="#DejaVuSans-78" x="2993.408203"/>
      <use xlink:href="#DejaVuSans-78" x="3052.587891"/>
      <use xlink:href="#DejaVuSans-31" x="3111.767578"/>
      <use xlink:href="#DejaVuSans-78" x="3175.390625"/>
      <use xlink:href="#DejaVuSans-78" x="3234.570312"/>
      <use xlink:href="#DejaVuSans-30" x="3293.75"/>
      <use xlink:href="#DejaVuSans-79" x="3357.373047"/>
      <use xlink:href="#DejaVuSans-79" x="3416.552734"/>
      <use xlink:href="#DejaVuSans-79" x="3475.732422"/>
      <use xlink:href="#DejaVuSans-34" x="3534.912109"/>
      <use xlink:href="#DejaVuSans-35" x="3598.535156"/>
      <use xlink:href="#DejaVuSans-78" x="3662.158203"/>
      <use xlink:href="#DejaVuSans-78" x="3721.337891"/>
      <use xlink:href="#DejaVuSans-31" x="3780.517578"/>
      <use xlink:href="#DejaVuSans-78" x="3844.140625"/>
      <use xlink:href="#DejaVuSans-78" x="3903.320312"/>
      <use xlink:href="#DejaVuSans-31" x="3962.5"/>
      <use xlink:href="#DejaVuSans-29" x="4026.123047"/>
     </g>
    </g>
    <g id="line2d_17">
     <path d="M 89.912813 298.836187 
L 95.912813 298.836187 
L 101.912813 298.836187 
" style="fill: none; stroke: #ff7f0e; stroke-width: 1.5; stroke-linecap: square"/>
    </g>
    <g id="text_16">
     <!-- Execution time between S6 S7 (xx1xx2xx0yyy45xx0yyy45xx0yyy3xx1xx0yyy45xx0yyy45xx0yyy45) -->
     <g transform="translate(106.712813 300.936187) scale(0.06 -0.06)">
      <use xlink:href="#DejaVuSans-45"/>
      <use xlink:href="#DejaVuSans-78" x="63.183594"/>
      <use xlink:href="#DejaVuSans-65" x="119.238281"/>
      <use xlink:href="#DejaVuSans-63" x="180.761719"/>
      <use xlink:href="#DejaVuSans-75" x="235.742188"/>
      <use xlink:href="#DejaVuSans-74" x="299.121094"/>
      <use xlink:href="#DejaVuSans-69" x="338.330078"/>
      <use xlink:href="#DejaVuSans-6f" x="366.113281"/>
      <use xlink:href="#DejaVuSans-6e" x="427.294922"/>
      <use xlink:href="#DejaVuSans-20" x="490.673828"/>
      <use xlink:href="#DejaVuSans-74" x="522.460938"/>
      <use xlink:href="#DejaVuSans-69" x="561.669922"/>
      <use xlink:href="#DejaVuSans-6d" x="589.453125"/>
      <use xlink:href="#DejaVuSans-65" x="686.865234"/>
      <use xlink:href="#DejaVuSans-20" x="748.388672"/>
      <use xlink:href="#DejaVuSans-62" x="780.175781"/>
      <use xlink:href="#DejaVuSans-65" x="843.652344"/>
      <use xlink:href="#DejaVuSans-74" x="905.175781"/>
      <use xlink:href="#DejaVuSans-77" x="944.384766"/>
      <use xlink:href="#DejaVuSans-65" x="1026.171875"/>
      <use xlink:href="#DejaVuSans-65" x="1087.695312"/>
      <use xlink:href="#DejaVuSans-6e" x="1149.21875"/>
      <use xlink:href="#DejaVuSans-20" x="1212.597656"/>
      <use xlink:href="#DejaVuSans-53" x="1244.384766"/>
      <use xlink:href="#DejaVuSans-36" x="1307.861328"/>
      <use xlink:href="#DejaVuSans-20" x="1371.484375"/>
      <use xlink:href="#DejaVuSans-53" x="1403.271484"/>
      <use xlink:href="#DejaVuSans-37" x="1466.748047"/>
      <use xlink:href="#DejaVuSans-20" x="1530.371094"/>
      <use xlink:href="#DejaVuSans-28" x="1562.158203"/>
      <use xlink:href="#DejaVuSans-78" x="1601.171875"/>
      <use xlink:href="#DejaVuSans-78" x="1660.351562"/>
      <use xlink:href="#DejaVuSans-31" x="1719.53125"/>
      <use xlink:href="#DejaVuSans-78" x="1783.154297"/>
      <use xlink:href="#DejaVuSans-78" x="1842.333984"/>
      <use xlink:href="#DejaVuSans-32" x="1901.513672"/>
      <use xlink:href="#DejaVuSans-78" x="1965.136719"/>
      <use xlink:href="#DejaVuSans-78" x="2024.316406"/>
      <use xlink:href="#DejaVuSans-30" x="2083.496094"/>
      <use xlink:href="#DejaVuSans-79" x="2147.119141"/>
      <use xlink:href="#DejaVuSans-79" x="2206.298828"/>
      <use xlink:href="#DejaVuSans-79" x="2265.478516"/>
      <use xlink:href="#DejaVuSans-34" x="2324.658203"/>
      <use xlink:href="#DejaVuSans-35" x="2388.28125"/>
      <use xlink:href="#DejaVuSans-78" x="2451.904297"/>
      <use xlink:href="#DejaVuSans-78" x="2511.083984"/>
      <use xlink:href="#DejaVuSans-30" x="2570.263672"/>
      <use xlink:href="#DejaVuSans-79" x="2633.886719"/>
      <use xlink:href="#DejaVuSans-79" x="2693.066406"/>
      <use xlink:href="#DejaVuSans-79" x="2752.246094"/>
      <use xlink:href="#DejaVuSans-34" x="2811.425781"/>
      <use xlink:href="#DejaVuSans-35" x="2875.048828"/>
      <use xlink:href="#DejaVuSans-78" x="2938.671875"/>
      <use xlink:href="#DejaVuSans-78" x="2997.851562"/>
      <use xlink:href="#DejaVuSans-30" x="3057.03125"/>
      <use xlink:href="#DejaVuSans-79" x="3120.654297"/>
      <use xlink:href="#DejaVuSans-79" x="3179.833984"/>
      <use xlink:href="#DejaVuSans-79" x="3239.013672"/>
      <use xlink:href="#DejaVuSans-33" x="3298.193359"/>
      <use xlink:href="#DejaVuSans-78" x="3361.816406"/>
      <use xlink:href="#DejaVuSans-78" x="3420.996094"/>
      <use xlink:href="#DejaVuSans-31" x="3480.175781"/>
      <use xlink:href="#DejaVuSans-78" x="3543.798828"/>
      <use xlink:href="#DejaVuSans-78" x="3602.978516"/>
      <use xlink:href="#DejaVuSans-30" x="3662.158203"/>
      <use xlink:href="#DejaVuSans-79" x="3725.78125"/>
      <use xlink:href="#DejaVuSans-79" x="3784.960938"/>
      <use xlink:href="#DejaVuSans-79" x="3844.140625"/>
      <use xlink:href="#DejaVuSans-34" x="3903.320312"/>
      <use xlink:href="#DejaVuSans-35" x="3966.943359"/>
      <use xlink:href="#DejaVuSans-78" x="4030.566406"/>
      <use xlink:href="#DejaVuSans-78" x="4089.746094"/>
      <use xlink:href="#DejaVuSans-30" x="4148.925781"/>
      <use xlink:href="#DejaVuSans-79" x="4212.548828"/>
      <use xlink:href="#DejaVuSans-79" x="4271.728516"/>
      <use xlink:href="#DejaVuSans-79" x="4330.908203"/>
      <use xlink:href="#DejaVuSans-34" x="4390.087891"/>
      <use xlink:href="#DejaVuSans-35" x="4453.710938"/>
      <use xlink:href="#DejaVuSans-78" x="4517.333984"/>
      <use xlink:href="#DejaVuSans-78" x="4576.513672"/>
      <use xlink:href="#DejaVuSans-30" x="4635.693359"/>
      <use xlink:href="#DejaVuSans-79" x="4699.316406"/>
      <use xlink:href="#DejaVuSans-79" x="4758.496094"/>
      <use xlink:href="#DejaVuSans-79" x="4817.675781"/>
      <use xlink:href="#DejaVuSans-34" x="4876.855469"/>
      <use xlink:href="#DejaVuSans-35" x="4940.478516"/>
      <use xlink:href="#DejaVuSans-29" x="5004.101562"/>
     </g>
    </g>
   </g>
  </g>
 </g>
 <defs>
  <clipPath id="p0df157499d">
   <rect x="57.6" y="41.472" width="357.12" height="266.112"/>
  </clipPath>
 </defs>
</svg>
