<?xml version="1.0" encoding="utf-8" standalone="no"?>
<!DOCTYPE svg PUBLIC "-//W3C//DTD SVG 1.1//EN"
  "http://www.w3.org/Graphics/SVG/1.1/DTD/svg11.dtd">
<svg xmlns:xlink="http://www.w3.org/1999/xlink" width="460.8pt" height="345.6pt" viewBox="0 0 460.8 345.6" xmlns="http://www.w3.org/2000/svg" version="1.1">
 <metadata>
  <rdf:RDF xmlns:dc="http://purl.org/dc/elements/1.1/" xmlns:cc="http://creativecommons.org/ns#" xmlns:rdf="http://www.w3.org/1999/02/22-rdf-syntax-ns#">
   <cc:Work>
    <dc:type rdf:resource="http://purl.org/dc/dcmitype/StillImage"/>
    <dc:date>2024-03-08T11:13:08.917555</dc:date>
    <dc:format>image/svg+xml</dc:format>
    <dc:creator>
     <cc:Agent>
      <dc:title>Matplotlib v3.8.2, https://matplotlib.org/</dc:title>
     </cc:Agent>
    </dc:creator>
   </cc:Work>
  </rdf:RDF>
 </metadata>
 <defs>
  <style type="text/css">*{stroke-linejoin: round; stroke-linecap: butt}</style>
 </defs>
 <g id="figure_1">
  <g id="patch_1">
   <path d="M 0 345.6 
L 460.8 345.6 
L 460.8 0 
L 0 0 
z
" style="fill: #ffffff"/>
  </g>
  <g id="axes_1">
   <g id="patch_2">
    <path d="M 57.6 307.584 
L 414.72 307.584 
L 414.72 41.472 
L 57.6 41.472 
z
" style="fill: #ffffff"/>
   </g>
   <g id="matplotlib.axis_1">
    <g id="xtick_1">
     <g id="line2d_1">
      <defs>
       <path id="ma4b733beb2" d="M 0 0 
L 0 3.5 
" style="stroke: #000000; stroke-width: 0.8"/>
      </defs>
      <g>
       <use xlink:href="#ma4b733beb2" x="73.546437" y="307.584" style="stroke: #000000; stroke-width: 0.8"/>
      </g>
     </g>
     <g id="text_1">
      <!-- 0.0 -->
      <g transform="translate(65.594875 322.182437) scale(0.1 -0.1)">
       <defs>
        <path id="DejaVuSans-30" d="M 2034 4250 
Q 1547 4250 1301 3770 
Q 1056 3291 1056 2328 
Q 1056 1369 1301 889 
Q 1547 409 2034 409 
Q 2525 409 2770 889 
Q 3016 1369 3016 2328 
Q 3016 3291 2770 3770 
Q 2525 4250 2034 4250 
z
M 2034 4750 
Q 2819 4750 3233 4129 
Q 3647 3509 3647 2328 
Q 3647 1150 3233 529 
Q 2819 -91 2034 -91 
Q 1250 -91 836 529 
Q 422 1150 422 2328 
Q 422 3509 836 4129 
Q 1250 4750 2034 4750 
z
" transform="scale(0.015625)"/>
        <path id="DejaVuSans-2e" d="M 684 794 
L 1344 794 
L 1344 0 
L 684 0 
L 684 794 
z
" transform="scale(0.015625)"/>
       </defs>
       <use xlink:href="#DejaVuSans-30"/>
       <use xlink:href="#DejaVuSans-2e" x="63.623047"/>
       <use xlink:href="#DejaVuSans-30" x="95.410156"/>
      </g>
     </g>
    </g>
    <g id="xtick_2">
     <g id="line2d_2">
      <g>
       <use xlink:href="#ma4b733beb2" x="118.702572" y="307.584" style="stroke: #000000; stroke-width: 0.8"/>
      </g>
     </g>
     <g id="text_2">
      <!-- 0.5 -->
      <g transform="translate(110.751009 322.182437) scale(0.1 -0.1)">
       <defs>
        <path id="DejaVuSans-35" d="M 691 4666 
L 3169 4666 
L 3169 4134 
L 1269 4134 
L 1269 2991 
Q 1406 3038 1543 3061 
Q 1681 3084 1819 3084 
Q 2600 3084 3056 2656 
Q 3513 2228 3513 1497 
Q 3513 744 3044 326 
Q 2575 -91 1722 -91 
Q 1428 -91 1123 -41 
Q 819 9 494 109 
L 494 744 
Q 775 591 1075 516 
Q 1375 441 1709 441 
Q 2250 441 2565 725 
Q 2881 1009 2881 1497 
Q 2881 1984 2565 2268 
Q 2250 2553 1709 2553 
Q 1456 2553 1204 2497 
Q 953 2441 691 2322 
L 691 4666 
z
" transform="scale(0.015625)"/>
       </defs>
       <use xlink:href="#DejaVuSans-30"/>
       <use xlink:href="#DejaVuSans-2e" x="63.623047"/>
       <use xlink:href="#DejaVuSans-35" x="95.410156"/>
      </g>
     </g>
    </g>
    <g id="xtick_3">
     <g id="line2d_3">
      <g>
       <use xlink:href="#ma4b733beb2" x="163.858707" y="307.584" style="stroke: #000000; stroke-width: 0.8"/>
      </g>
     </g>
     <g id="text_3">
      <!-- 1.0 -->
      <g transform="translate(155.907144 322.182437) scale(0.1 -0.1)">
       <defs>
        <path id="DejaVuSans-31" d="M 794 531 
L 1825 531 
L 1825 4091 
L 703 3866 
L 703 4441 
L 1819 4666 
L 2450 4666 
L 2450 531 
L 3481 531 
L 3481 0 
L 794 0 
L 794 531 
z
" transform="scale(0.015625)"/>
       </defs>
       <use xlink:href="#DejaVuSans-31"/>
       <use xlink:href="#DejaVuSans-2e" x="63.623047"/>
       <use xlink:href="#DejaVuSans-30" x="95.410156"/>
      </g>
     </g>
    </g>
    <g id="xtick_4">
     <g id="line2d_4">
      <g>
       <use xlink:href="#ma4b733beb2" x="209.014841" y="307.584" style="stroke: #000000; stroke-width: 0.8"/>
      </g>
     </g>
     <g id="text_4">
      <!-- 1.5 -->
      <g transform="translate(201.063279 322.182437) scale(0.1 -0.1)">
       <use xlink:href="#DejaVuSans-31"/>
       <use xlink:href="#DejaVuSans-2e" x="63.623047"/>
       <use xlink:href="#DejaVuSans-35" x="95.410156"/>
      </g>
     </g>
    </g>
    <g id="xtick_5">
     <g id="line2d_5">
      <g>
       <use xlink:href="#ma4b733beb2" x="254.170976" y="307.584" style="stroke: #000000; stroke-width: 0.8"/>
      </g>
     </g>
     <g id="text_5">
      <!-- 2.0 -->
      <g transform="translate(246.219413 322.182437) scale(0.1 -0.1)">
       <defs>
        <path id="DejaVuSans-32" d="M 1228 531 
L 3431 531 
L 3431 0 
L 469 0 
L 469 531 
Q 828 903 1448 1529 
Q 2069 2156 2228 2338 
Q 2531 2678 2651 2914 
Q 2772 3150 2772 3378 
Q 2772 3750 2511 3984 
Q 2250 4219 1831 4219 
Q 1534 4219 1204 4116 
Q 875 4013 500 3803 
L 500 4441 
Q 881 4594 1212 4672 
Q 1544 4750 1819 4750 
Q 2544 4750 2975 4387 
Q 3406 4025 3406 3419 
Q 3406 3131 3298 2873 
Q 3191 2616 2906 2266 
Q 2828 2175 2409 1742 
Q 1991 1309 1228 531 
z
" transform="scale(0.015625)"/>
       </defs>
       <use xlink:href="#DejaVuSans-32"/>
       <use xlink:href="#DejaVuSans-2e" x="63.623047"/>
       <use xlink:href="#DejaVuSans-30" x="95.410156"/>
      </g>
     </g>
    </g>
    <g id="xtick_6">
     <g id="line2d_6">
      <g>
       <use xlink:href="#ma4b733beb2" x="299.32711" y="307.584" style="stroke: #000000; stroke-width: 0.8"/>
      </g>
     </g>
     <g id="text_6">
      <!-- 2.5 -->
      <g transform="translate(291.375548 322.182437) scale(0.1 -0.1)">
       <use xlink:href="#DejaVuSans-32"/>
       <use xlink:href="#DejaVuSans-2e" x="63.623047"/>
       <use xlink:href="#DejaVuSans-35" x="95.410156"/>
      </g>
     </g>
    </g>
    <g id="xtick_7">
     <g id="line2d_7">
      <g>
       <use xlink:href="#ma4b733beb2" x="344.483245" y="307.584" style="stroke: #000000; stroke-width: 0.8"/>
      </g>
     </g>
     <g id="text_7">
      <!-- 3.0 -->
      <g transform="translate(336.531683 322.182437) scale(0.1 -0.1)">
       <defs>
        <path id="DejaVuSans-33" d="M 2597 2516 
Q 3050 2419 3304 2112 
Q 3559 1806 3559 1356 
Q 3559 666 3084 287 
Q 2609 -91 1734 -91 
Q 1441 -91 1130 -33 
Q 819 25 488 141 
L 488 750 
Q 750 597 1062 519 
Q 1375 441 1716 441 
Q 2309 441 2620 675 
Q 2931 909 2931 1356 
Q 2931 1769 2642 2001 
Q 2353 2234 1838 2234 
L 1294 2234 
L 1294 2753 
L 1863 2753 
Q 2328 2753 2575 2939 
Q 2822 3125 2822 3475 
Q 2822 3834 2567 4026 
Q 2313 4219 1838 4219 
Q 1578 4219 1281 4162 
Q 984 4106 628 3988 
L 628 4550 
Q 988 4650 1302 4700 
Q 1616 4750 1894 4750 
Q 2613 4750 3031 4423 
Q 3450 4097 3450 3541 
Q 3450 3153 3228 2886 
Q 3006 2619 2597 2516 
z
" transform="scale(0.015625)"/>
       </defs>
       <use xlink:href="#DejaVuSans-33"/>
       <use xlink:href="#DejaVuSans-2e" x="63.623047"/>
       <use xlink:href="#DejaVuSans-30" x="95.410156"/>
      </g>
     </g>
    </g>
    <g id="xtick_8">
     <g id="line2d_8">
      <g>
       <use xlink:href="#ma4b733beb2" x="389.63938" y="307.584" style="stroke: #000000; stroke-width: 0.8"/>
      </g>
     </g>
     <g id="text_8">
      <!-- 3.5 -->
      <g transform="translate(381.687817 322.182437) scale(0.1 -0.1)">
       <use xlink:href="#DejaVuSans-33"/>
       <use xlink:href="#DejaVuSans-2e" x="63.623047"/>
       <use xlink:href="#DejaVuSans-35" x="95.410156"/>
      </g>
     </g>
    </g>
    <g id="text_9">
     <!-- 1e6 -->
     <g transform="translate(395.841875 334.860562) scale(0.1 -0.1)">
      <defs>
       <path id="DejaVuSans-65" d="M 3597 1894 
L 3597 1613 
L 953 1613 
Q 991 1019 1311 708 
Q 1631 397 2203 397 
Q 2534 397 2845 478 
Q 3156 559 3463 722 
L 3463 178 
Q 3153 47 2828 -22 
Q 2503 -91 2169 -91 
Q 1331 -91 842 396 
Q 353 884 353 1716 
Q 353 2575 817 3079 
Q 1281 3584 2069 3584 
Q 2775 3584 3186 3129 
Q 3597 2675 3597 1894 
z
M 3022 2063 
Q 3016 2534 2758 2815 
Q 2500 3097 2075 3097 
Q 1594 3097 1305 2825 
Q 1016 2553 972 2059 
L 3022 2063 
z
" transform="scale(0.015625)"/>
       <path id="DejaVuSans-36" d="M 2113 2584 
Q 1688 2584 1439 2293 
Q 1191 2003 1191 1497 
Q 1191 994 1439 701 
Q 1688 409 2113 409 
Q 2538 409 2786 701 
Q 3034 994 3034 1497 
Q 3034 2003 2786 2293 
Q 2538 2584 2113 2584 
z
M 3366 4563 
L 3366 3988 
Q 3128 4100 2886 4159 
Q 2644 4219 2406 4219 
Q 1781 4219 1451 3797 
Q 1122 3375 1075 2522 
Q 1259 2794 1537 2939 
Q 1816 3084 2150 3084 
Q 2853 3084 3261 2657 
Q 3669 2231 3669 1497 
Q 3669 778 3244 343 
Q 2819 -91 2113 -91 
Q 1303 -91 875 529 
Q 447 1150 447 2328 
Q 447 3434 972 4092 
Q 1497 4750 2381 4750 
Q 2619 4750 2861 4703 
Q 3103 4656 3366 4563 
z
" transform="scale(0.015625)"/>
      </defs>
      <use xlink:href="#DejaVuSans-31"/>
      <use xlink:href="#DejaVuSans-65" x="63.623047"/>
      <use xlink:href="#DejaVuSans-36" x="125.146484"/>
     </g>
    </g>
   </g>
   <g id="matplotlib.axis_2">
    <g id="ytick_1">
     <g id="line2d_9">
      <defs>
       <path id="m70dfa37b8c" d="M 0 0 
L -3.5 0 
" style="stroke: #000000; stroke-width: 0.8"/>
      </defs>
      <g>
       <use xlink:href="#m70dfa37b8c" x="57.6" y="295.488" style="stroke: #000000; stroke-width: 0.8"/>
      </g>
     </g>
     <g id="text_10">
      <!-- 0 -->
      <g transform="translate(44.2375 299.287219) scale(0.1 -0.1)">
       <use xlink:href="#DejaVuSans-30"/>
      </g>
     </g>
    </g>
    <g id="ytick_2">
     <g id="line2d_10">
      <g>
       <use xlink:href="#m70dfa37b8c" x="57.6" y="237.888" style="stroke: #000000; stroke-width: 0.8"/>
      </g>
     </g>
     <g id="text_11">
      <!-- 5 -->
      <g transform="translate(44.2375 241.687219) scale(0.1 -0.1)">
       <use xlink:href="#DejaVuSans-35"/>
      </g>
     </g>
    </g>
    <g id="ytick_3">
     <g id="line2d_11">
      <g>
       <use xlink:href="#m70dfa37b8c" x="57.6" y="180.288" style="stroke: #000000; stroke-width: 0.8"/>
      </g>
     </g>
     <g id="text_12">
      <!-- 10 -->
      <g transform="translate(37.875 184.087219) scale(0.1 -0.1)">
       <use xlink:href="#DejaVuSans-31"/>
       <use xlink:href="#DejaVuSans-30" x="63.623047"/>
      </g>
     </g>
    </g>
    <g id="ytick_4">
     <g id="line2d_12">
      <g>
       <use xlink:href="#m70dfa37b8c" x="57.6" y="122.688" style="stroke: #000000; stroke-width: 0.8"/>
      </g>
     </g>
     <g id="text_13">
      <!-- 15 -->
      <g transform="translate(37.875 126.487219) scale(0.1 -0.1)">
       <use xlink:href="#DejaVuSans-31"/>
       <use xlink:href="#DejaVuSans-35" x="63.623047"/>
      </g>
     </g>
    </g>
    <g id="ytick_5">
     <g id="line2d_13">
      <g>
       <use xlink:href="#m70dfa37b8c" x="57.6" y="65.088" style="stroke: #000000; stroke-width: 0.8"/>
      </g>
     </g>
     <g id="text_14">
      <!-- 20 -->
      <g transform="translate(37.875 68.887219) scale(0.1 -0.1)">
       <use xlink:href="#DejaVuSans-32"/>
       <use xlink:href="#DejaVuSans-30" x="63.623047"/>
      </g>
     </g>
    </g>
   </g>
   <g id="line2d_14">
    <path d="M 73.832727 283.968 
L 74.051283 295.488 
L 74.147917 283.968 
L 74.366473 295.488 
L 74.462204 283.968 
L 74.680759 295.488 
L 74.777394 283.968 
L 74.995949 295.488 
L 75.098905 283.968 
L 75.317461 295.488 
L 75.414095 283.968 
L 75.632651 295.488 
L 75.727479 283.968 
L 75.946034 295.488 
L 76.041765 283.968 
L 76.260321 295.488 
L 76.362374 283.968 
L 76.58093 295.488 
L 76.681176 283.968 
L 76.899732 295.488 
L 76.997269 283.968 
L 77.215825 295.488 
L 77.314265 283.968 
L 77.532821 295.488 
L 77.633068 283.968 
L 77.851623 295.488 
L 77.952773 283.968 
L 78.171329 295.488 
L 78.273382 283.968 
L 78.491034 295.488 
L 78.584056 283.968 
L 78.802611 295.488 
L 78.903761 283.968 
L 84.390232 272.448 
L 84.606981 191.808 
L 84.637687 203.328 
L 84.856243 295.488 
L 84.912236 283.968 
L 85.130792 295.488 
L 85.220201 283.968 
L 85.438757 295.488 
L 85.536294 283.968 
L 85.75485 295.488 
L 85.848775 283.968 
L 86.066427 295.488 
L 86.166674 283.968 
L 86.38523 295.488 
L 86.481864 283.968 
L 86.700419 295.488 
L 86.797957 283.968 
L 87.015609 295.488 
L 87.117662 283.968 
L 87.336218 295.488 
L 87.437368 283.968 
L 87.65502 295.488 
L 87.75346 283.968 
L 87.971113 295.488 
L 88.072263 283.968 
L 88.289915 295.488 
L 88.391968 283.968 
L 88.610524 295.488 
L 88.703546 283.968 
L 88.921198 295.488 
L 89.013317 283.968 
L 89.230969 295.488 
L 89.330313 283.968 
L 89.548868 295.488 
L 89.644599 283.968 
L 89.863155 295.488 
L 89.956177 283.968 
L 90.174732 295.488 
L 90.276785 283.968 
L 90.495341 295.488 
L 90.58475 283.968 
L 90.803306 295.488 
L 90.899037 283.968 
L 91.117592 295.488 
L 91.216033 283.968 
L 91.433685 295.488 
L 91.539351 283.968 
L 91.757003 295.488 
L 91.853637 283.968 
L 92.07129 295.488 
L 92.165215 283.968 
L 92.38377 295.488 
L 92.476792 283.968 
L 92.694445 295.488 
L 92.791079 283.968 
L 93.009635 295.488 
L 93.106269 283.968 
L 93.324824 295.488 
L 93.416943 283.968 
L 93.635499 295.488 
L 93.732133 283.968 
L 93.949785 295.488 
L 94.050935 283.968 
L 94.269491 295.488 
L 94.369737 283.968 
L 94.588293 295.488 
L 94.683121 283.968 
L 94.901677 295.488 
L 95.001923 283.968 
L 95.220479 295.488 
L 95.317113 283.968 
L 95.535669 295.488 
L 95.635915 283.968 
L 95.854471 295.488 
L 95.949299 283.968 
L 96.167855 295.488 
L 96.267198 283.968 
L 96.485754 295.488 
L 96.587807 283.968 
L 96.806362 295.488 
L 96.898481 283.968 
L 97.117037 295.488 
L 97.211864 283.968 
L 97.43042 295.488 
L 97.527054 283.968 
L 97.74561 295.488 
L 97.84405 283.968 
L 98.061703 295.488 
L 98.160143 283.968 
L 98.378699 295.488 
L 98.484364 283.968 
L 98.70292 295.488 
L 98.805876 283.968 
L 99.024432 295.488 
L 99.121969 283.968 
L 99.340525 295.488 
L 99.430837 283.968 
L 99.649393 295.488 
L 99.748736 283.968 
L 99.966389 295.488 
L 100.065732 283.968 
L 100.284288 295.488 
L 100.377309 283.968 
L 100.595865 295.488 
L 100.696112 283.968 
L 100.913764 295.488 
L 101.009495 283.968 
L 101.228051 295.488 
L 101.331007 283.968 
L 101.549563 295.488 
L 101.649809 283.968 
L 101.867462 295.488 
L 101.964999 283.968 
L 102.183555 295.488 
L 102.281995 283.968 
L 102.499648 295.488 
L 102.598088 283.968 
L 102.816644 295.488 
L 102.914181 283.968 
L 103.132737 295.488 
L 103.226662 283.968 
L 103.444314 295.488 
L 103.542754 283.968 
L 103.76131 295.488 
L 103.866072 283.968 
L 104.084628 295.488 
L 104.184875 283.968 
L 104.40343 295.488 
L 104.499161 283.968 
L 104.717717 295.488 
L 104.808932 283.968 
L 105.027488 295.488 
L 105.127735 283.968 
L 105.346291 295.488 
L 105.442022 283.968 
L 105.660577 295.488 
L 105.751793 283.968 
L 105.970348 295.488 
L 106.068789 283.968 
L 106.286441 295.488 
L 106.377657 283.968 
L 106.595309 295.488 
L 106.690137 283.968 
L 106.90779 295.488 
L 107.003521 283.968 
L 107.221173 295.488 
L 107.31871 283.968 
L 107.537266 295.488 
L 107.630288 283.968 
L 107.848843 295.488 
L 107.943671 283.968 
L 108.162227 295.488 
L 108.262474 283.968 
L 108.481029 295.488 
L 108.580373 283.968 
L 108.798929 295.488 
L 108.891047 283.968 
L 109.109603 295.488 
L 109.213462 283.968 
L 109.432018 295.488 
L 109.530458 283.968 
L 109.748111 295.488 
L 109.85197 283.968 
L 110.070525 295.488 
L 110.168063 283.968 
L 110.386618 295.488 
L 111.312319 283.968 
L 111.530875 295.488 
L 111.5381 283.968 
L 111.755752 295.488 
L 111.76659 283.968 
L 111.985145 295.488 
L 111.989661 283.968 
L 112.208217 295.488 
L 112.213635 283.968 
L 112.432191 295.488 
L 112.442125 283.968 
L 112.660681 295.488 
L 112.671519 283.968 
L 112.890074 295.488 
L 112.896396 283.968 
L 113.114049 295.488 
L 113.116758 283.968 
L 113.335314 295.488 
L 113.342539 283.968 
L 113.561095 295.488 
L 113.570126 283.968 
L 113.788681 295.488 
L 113.792294 283.968 
L 114.009946 295.488 
L 114.021687 283.968 
L 114.240243 295.488 
L 114.247468 283.968 
L 114.466023 295.488 
L 114.477764 283.968 
L 114.69632 295.488 
L 114.706254 283.968 
L 114.92481 295.488 
L 114.932035 283.968 
L 115.15059 295.488 
L 115.157815 283.968 
L 115.376371 295.488 
L 115.385402 283.968 
L 115.603055 295.488 
L 115.614796 283.968 
L 115.833351 295.488 
L 115.840576 283.968 
L 116.059132 295.488 
L 116.073582 283.968 
L 116.291234 295.488 
L 116.303878 283.968 
L 116.521531 295.488 
L 116.526949 283.968 
L 116.744602 295.488 
L 116.754536 283.968 
L 116.973092 295.488 
L 116.978511 283.968 
L 117.197066 295.488 
L 117.207904 283.968 
L 117.425557 295.488 
L 117.436394 283.968 
L 117.65495 295.488 
L 117.664884 283.968 
L 117.882537 295.488 
L 117.889762 283.968 
L 118.108317 295.488 
L 118.116445 283.968 
L 118.335001 295.488 
L 118.342226 283.968 
L 118.559879 295.488 
L 118.563491 283.968 
L 118.782047 295.488 
L 118.783853 283.968 
L 119.002409 295.488 
L 119.006924 283.968 
L 119.224577 295.488 
L 119.226383 283.968 
L 119.444939 295.488 
L 119.452164 283.968 
L 119.67072 295.488 
L 119.675235 283.968 
L 122.158823 157.248 
L 122.584193 145.728 
L 127.747346 134.208 
L 127.885524 99.648 
L 128.004736 111.168 
L 128.065245 99.648 
L 128.104079 145.728 
L 128.283801 283.968 
L 128.456297 295.488 
L 128.465328 283.968 
L 128.683884 295.488 
L 128.697431 283.968 
L 128.915083 295.488 
L 128.924115 283.968 
L 129.14267 295.488 
L 129.155314 283.968 
L 129.372967 295.488 
L 129.381998 283.968 
L 129.600554 295.488 
L 129.608682 283.968 
L 129.827237 295.488 
L 129.838075 283.968 
L 130.05663 295.488 
L 130.064759 283.968 
L 130.283314 295.488 
L 130.293249 283.968 
L 130.511804 295.488 
L 130.520836 283.968 
L 130.739391 295.488 
L 130.749326 283.968 
L 130.966978 295.488 
L 130.974203 283.968 
L 131.192759 295.488 
L 131.196371 283.968 
L 131.414927 295.488 
L 131.423055 283.968 
L 131.640708 295.488 
L 131.648836 283.968 
L 131.867391 295.488 
L 131.87281 283.968 
L 132.091366 295.488 
L 132.093172 283.968 
L 132.310825 295.488 
L 132.314437 283.968 
L 132.53209 295.488 
L 132.540218 283.968 
L 132.758774 295.488 
L 132.759677 283.968 
L 132.977329 295.488 
L 132.987264 283.968 
L 133.205819 295.488 
L 133.210335 283.968 
L 133.428891 295.488 
L 133.437922 283.968 
L 133.656478 295.488 
L 133.66009 283.968 
L 133.878646 295.488 
L 133.886774 283.968 
L 134.10533 295.488 
L 134.110748 283.968 
L 134.329304 295.488 
L 134.332916 283.968 
L 134.550569 295.488 
L 134.561406 283.968 
L 134.779059 295.488 
L 134.788993 283.968 
L 135.007549 295.488 
L 135.013871 283.968 
L 135.232427 295.488 
L 135.244167 283.968 
L 135.46182 295.488 
L 135.467239 283.968 
L 135.685794 295.488 
L 135.697535 283.968 
L 135.922412 272.448 
L 136.122906 283.968 
L 136.150902 272.448 
L 138.640812 145.728 
L 138.73564 168.768 
L 138.88917 283.968 
L 139.085148 295.488 
L 139.09147 283.968 
L 139.310026 295.488 
L 139.317251 283.968 
L 139.535806 295.488 
L 139.545741 283.968 
L 139.764296 295.488 
L 139.768812 283.968 
L 139.987368 295.488 
L 139.991883 283.968 
L 140.210439 295.488 
L 140.218567 283.968 
L 140.43622 295.488 
L 140.448863 283.968 
L 140.667419 295.488 
L 140.67645 283.968 
L 140.895006 295.488 
L 140.905843 283.968 
L 141.123496 295.488 
L 141.127108 283.968 
L 141.345664 295.488 
L 141.348374 283.968 
L 141.566929 295.488 
L 141.572348 283.968 
L 141.790904 295.488 
L 141.801741 283.968 
L 142.020297 295.488 
L 142.028425 283.968 
L 142.246981 295.488 
L 142.251496 283.968 
L 142.470052 295.488 
L 142.47818 283.968 
L 142.696736 295.488 
L 142.703961 283.968 
L 142.922516 295.488 
L 142.93516 283.968 
L 143.153716 295.488 
L 143.162747 283.968 
L 143.381303 295.488 
L 143.389431 283.968 
L 143.607986 295.488 
L 143.615211 283.968 
L 143.833767 295.488 
L 143.843702 283.968 
L 144.275394 272.448 
L 149.421387 260.928 
L 149.638137 99.648 
L 149.680583 134.208 
L 149.874755 295.488 
L 149.89643 283.968 
L 150.114082 295.488 
L 150.119501 283.968 
L 150.337154 295.488 
L 150.347991 283.968 
L 150.566547 295.488 
L 150.572869 283.968 
L 150.791424 295.488 
L 150.796843 283.968 
L 151.015399 295.488 
L 151.02443 283.968 
L 151.242986 295.488 
L 151.249308 283.968 
L 151.467863 295.488 
L 151.475991 283.968 
L 151.693644 295.488 
L 151.705385 283.968 
L 151.92394 295.488 
L 151.932068 283.968 
L 152.150624 295.488 
L 152.153333 283.968 
L 152.371889 295.488 
L 152.380017 283.968 
L 152.59767 295.488 
L 152.60941 283.968 
L 152.827063 295.488 
L 152.829772 283.968 
L 153.048328 295.488 
L 153.055553 283.968 
L 153.273206 295.488 
L 153.278624 283.968 
L 153.496277 295.488 
L 153.507114 283.968 
L 153.72567 295.488 
L 153.731089 283.968 
L 153.949644 295.488 
L 153.955966 283.968 
L 154.174522 295.488 
L 154.179941 283.968 
L 154.398496 295.488 
L 154.407528 283.968 
L 154.626083 295.488 
L 154.635115 283.968 
L 154.852767 295.488 
L 154.860895 283.968 
L 155.078548 295.488 
L 155.087579 283.968 
L 155.306135 295.488 
L 155.311553 283.968 
L 155.530109 295.488 
L 155.533722 283.968 
L 155.751374 295.488 
L 155.759502 283.968 
L 155.977155 295.488 
L 155.983477 283.968 
L 156.202032 295.488 
L 156.21287 283.968 
L 156.431426 295.488 
L 156.443166 283.968 
L 156.660819 295.488 
L 156.672559 283.968 
L 156.891115 295.488 
L 156.897437 283.968 
L 157.115089 295.488 
L 157.123218 283.968 
L 157.341773 295.488 
L 157.348095 283.968 
L 157.566651 295.488 
L 157.572973 283.968 
L 157.791528 295.488 
L 157.801463 283.968 
L 158.020018 295.488 
L 158.028147 283.968 
L 158.246702 295.488 
L 158.253927 283.968 
L 158.472483 295.488 
L 158.479708 283.968 
L 158.698264 295.488 
L 158.707295 283.968 
L 158.92585 295.488 
L 158.938494 283.968 
L 159.156147 295.488 
L 159.160662 283.968 
L 159.379218 295.488 
L 159.390959 283.968 
L 159.609514 295.488 
L 159.615836 283.968 
L 159.834392 295.488 
L 159.840714 283.968 
L 160.059269 295.488 
L 160.07101 283.968 
L 160.289566 295.488 
L 160.292275 283.968 
L 160.510831 295.488 
L 160.518959 283.968 
L 160.736611 295.488 
L 160.742933 283.968 
L 160.961489 295.488 
L 160.972326 283.968 
L 161.189979 295.488 
L 161.197204 283.968 
L 161.41576 295.488 
L 161.424791 283.968 
L 161.643347 295.488 
L 161.647862 283.968 
L 161.866418 295.488 
L 161.87003 283.968 
L 162.088586 295.488 
L 162.094908 283.968 
L 162.313464 295.488 
L 162.320689 283.968 
L 162.539244 295.488 
L 162.548276 283.968 
L 162.765928 295.488 
L 162.777669 283.968 
L 162.996224 295.488 
L 163.002546 283.968 
L 163.221102 295.488 
L 163.222005 283.968 
L 163.440561 295.488 
L 163.447786 283.968 
L 163.666341 295.488 
L 163.67176 283.968 
L 163.890316 295.488 
L 163.894832 283.968 
L 164.113387 295.488 
L 164.118806 283.968 
L 164.337362 295.488 
L 164.348199 283.968 
L 164.566755 295.488 
L 164.570367 283.968 
L 164.78802 295.488 
L 164.797954 283.968 
L 165.015607 295.488 
L 165.01651 283.968 
L 165.234162 295.488 
L 165.243194 283.968 
L 165.461749 295.488 
L 165.469877 283.968 
L 165.688433 295.488 
L 165.694755 283.968 
L 165.913311 295.488 
L 165.918729 283.968 
L 166.137285 295.488 
L 166.140898 283.968 
L 166.359453 295.488 
L 166.366678 283.968 
L 166.585234 295.488 
L 166.591556 283.968 
L 166.809208 295.488 
L 166.820046 283.968 
L 167.038602 295.488 
L 167.048536 283.968 
L 167.267092 295.488 
L 167.27251 283.968 
L 167.490163 295.488 
L 167.498291 283.968 
L 167.715944 295.488 
L 167.722265 283.968 
L 167.940821 295.488 
L 167.948046 283.968 
L 168.166602 295.488 
L 168.167505 283.968 
L 168.386061 295.488 
L 168.391479 283.968 
L 168.610035 295.488 
L 168.615454 283.968 
L 168.83401 295.488 
L 168.844847 283.968 
L 169.063403 295.488 
L 169.071531 283.968 
L 169.290086 295.488 
L 169.292796 283.968 
L 169.510448 295.488 
L 169.523995 283.968 
L 169.741648 295.488 
L 169.750679 283.968 
L 169.968332 295.488 
L 169.974653 283.968 
L 170.193209 295.488 
L 170.198628 283.968 
L 170.417184 295.488 
L 170.423505 283.968 
L 170.642061 295.488 
L 170.652899 283.968 
L 170.871454 295.488 
L 170.878679 283.968 
L 171.303147 272.448 
L 176.515971 272.448 
L 176.738139 111.168 
L 176.775167 145.728 
L 176.956695 295.488 
L 176.963017 283.968 
L 177.180669 295.488 
L 177.185185 283.968 
L 177.403741 295.488 
L 177.408256 283.968 
L 177.626812 295.488 
L 177.632231 283.968 
L 177.850786 295.488 
L 177.85169 283.968 
L 178.069342 295.488 
L 178.075664 283.968 
L 178.29422 295.488 
L 178.303251 283.968 
L 178.520904 295.488 
L 178.526322 283.968 
L 178.744878 295.488 
L 178.74849 283.968 
L 178.967046 295.488 
L 178.972465 283.968 
L 179.190117 295.488 
L 179.201858 283.968 
L 179.420414 295.488 
L 179.433961 283.968 
L 179.652516 295.488 
L 179.662451 283.968 
L 179.881006 295.488 
L 179.888231 283.968 
L 180.105884 295.488 
L 180.112206 283.968 
L 180.330761 295.488 
L 180.334374 283.968 
L 180.55293 295.488 
L 180.56467 283.968 
L 180.783226 295.488 
L 180.79316 283.968 
L 181.011716 295.488 
L 181.015328 283.968 
L 181.233884 295.488 
L 187.35525 283.968 
L 187.573805 295.488 
L 187.815842 203.328 
L 188.034398 295.488 
L 188.15632 283.968 
L 188.373972 295.488 
L 188.4688 283.968 
L 188.686453 295.488 
L 188.785796 283.968 
L 189.004352 295.488 
L 189.100083 283.968 
L 189.318638 295.488 
L 189.406241 283.968 
L 189.624797 295.488 
L 189.717819 283.968 
L 189.936374 295.488 
L 190.023977 283.968 
L 190.242533 295.488 
L 190.335555 283.968 
L 190.55411 295.488 
L 190.656163 283.968 
L 190.874719 295.488 
L 190.968644 283.968 
L 191.187199 295.488 
L 191.275705 283.968 
L 191.494261 295.488 
L 191.584573 283.968 
L 191.803129 295.488 
L 191.900666 283.968 
L 192.119222 295.488 
L 192.209534 283.968 
L 192.42809 295.488 
L 192.522918 283.968 
L 192.741473 295.488 
L 192.840817 283.968 
L 193.059373 295.488 
L 193.160522 283.968 
L 193.379078 295.488 
L 193.46939 283.968 
L 193.687946 295.488 
L 193.781871 283.968 
L 193.999523 295.488 
L 194.095254 283.968 
L 194.31381 295.488 
L 194.405025 283.968 
L 194.622678 295.488 
L 194.72744 283.968 
L 194.945996 295.488 
L 195.047146 283.968 
L 195.265701 295.488 
L 195.360529 283.968 
L 195.579085 295.488 
L 195.678428 283.968 
L 195.896984 295.488 
L 201.996675 283.968 
L 202.21523 295.488 
L 202.313671 283.968 
L 202.532227 295.488 
L 202.632473 283.968 
L 202.851029 295.488 
L 202.943147 283.968 
L 203.161703 295.488 
L 203.268272 283.968 
L 203.485924 295.488 
L 203.579849 283.968 
L 203.798405 295.488 
L 203.903167 283.968 
L 204.121722 295.488 
L 204.224678 283.968 
L 204.443234 295.488 
L 204.539868 283.968 
L 204.758424 295.488 
L 204.855058 283.968 
L 205.073614 295.488 
L 205.167539 283.968 
L 205.386094 295.488 
L 205.488147 283.968 
L 205.706703 295.488 
L 205.805143 283.968 
L 206.023699 295.488 
L 206.118527 283.968 
L 206.336179 295.488 
L 206.435523 283.968 
L 206.653175 295.488 
L 206.757035 283.968 
L 206.97559 295.488 
L 207.07674 283.968 
L 207.294393 295.488 
L 207.394639 283.968 
L 207.612292 295.488 
L 207.711635 283.968 
L 207.930191 295.488 
L 208.027728 283.968 
L 208.246284 295.488 
L 208.34924 283.968 
L 208.566892 295.488 
L 208.665333 283.968 
L 208.883888 295.488 
L 208.987748 283.968 
L 214.439899 272.448 
L 214.656649 191.808 
L 214.688258 203.328 
L 214.906814 295.488 
L 214.99532 283.968 
L 215.213875 295.488 
L 215.319541 283.968 
L 215.538096 295.488 
L 215.626602 283.968 
L 215.845158 295.488 
L 215.941792 283.968 
L 216.160348 295.488 
L 216.247951 283.968 
L 216.466507 295.488 
L 216.563141 283.968 
L 216.780793 295.488 
L 216.882846 283.968 
L 217.101402 295.488 
L 217.200745 283.968 
L 217.419301 295.488 
L 217.512323 283.968 
L 217.729975 295.488 
L 217.828416 283.968 
L 218.046971 295.488 
L 218.147218 283.968 
L 218.36487 295.488 
L 218.455183 283.968 
L 218.672835 295.488 
L 218.76676 283.968 
L 218.985316 295.488 
L 219.080144 283.968 
L 219.298699 295.488 
L 219.398946 283.968 
L 219.617502 295.488 
L 219.714136 283.968 
L 219.932691 295.488 
L 220.032938 283.968 
L 220.250591 295.488 
L 220.347225 283.968 
L 220.56578 295.488 
L 220.671446 283.968 
L 220.890002 295.488 
L 220.989345 283.968 
L 221.207901 295.488 
L 221.296407 283.968 
L 221.514962 295.488 
L 221.619725 283.968 
L 221.837377 295.488 
L 221.934011 283.968 
L 224.135824 203.328 
L 225.277372 191.808 
L 225.396584 214.848 
L 225.610624 295.488 
L 225.708161 283.968 
L 225.926717 295.488 
L 226.019738 283.968 
L 226.238294 295.488 
L 226.335831 283.968 
L 226.553484 295.488 
L 226.659149 283.968 
L 226.877705 295.488 
L 226.977952 283.968 
L 227.196507 295.488 
L 227.295851 283.968 
L 227.514406 295.488 
L 228.920568 283.968 
L 229.10029 272.448 
L 229.138221 283.968 
L 229.279108 272.448 
L 229.318846 283.968 
L 229.459733 272.448 
L 229.497664 283.968 
L 229.640357 272.448 
L 229.677385 283.968 
L 229.818272 272.448 
L 229.85801 283.968 
L 229.996188 272.448 
L 230.035925 283.968 
L 230.176812 272.448 
L 230.214743 283.968 
L 230.357437 272.448 
L 230.394465 283.968 
L 230.538964 272.448 
L 230.575992 283.968 
L 230.71688 272.448 
L 230.75752 283.968 
L 230.89931 272.448 
L 230.935435 283.968 
L 231.080838 272.448 
L 231.117866 283.968 
L 231.258753 272.448 
L 231.299394 283.968 
L 231.440281 272.448 
L 231.476406 283.968 
L 231.620905 272.448 
L 231.658837 283.968 
L 231.804239 272.448 
L 231.839461 283.968 
L 231.982154 272.448 
L 232.022795 283.968 
L 232.16007 272.448 
L 232.20071 283.968 
L 232.340694 272.448 
L 232.378625 283.968 
L 232.518609 272.448 
L 232.558347 283.968 
L 232.698331 272.448 
L 232.737165 283.968 
L 232.878955 272.448 
L 232.916886 283.968 
L 233.063192 272.448 
L 233.097511 283.968 
L 233.245623 272.448 
L 233.280845 283.968 
L 233.42986 272.448 
L 233.464179 283.968 
L 234.153261 237.888 
L 235.966732 122.688 
L 236.111231 134.208 
L 236.267472 283.968 
L 236.327078 272.448 
L 236.365912 283.968 
L 236.510412 272.448 
L 236.54473 283.968 
L 236.688327 272.448 
L 236.728967 283.968 
L 236.867145 272.448 
L 236.906882 283.968 
L 237.049576 272.448 
L 237.084798 283.968 
L 237.229297 272.448 
L 237.268132 283.968 
L 237.409922 272.448 
L 237.447853 283.968 
L 237.586934 272.448 
L 237.628477 283.968 
L 237.771171 272.448 
L 237.80549 283.968 
L 237.948183 272.448 
L 237.988823 283.968 
L 238.127904 272.448 
L 238.166739 283.968 
L 238.306723 272.448 
L 238.345557 283.968 
L 238.49096 272.448 
L 238.525278 283.968 
L 238.669778 272.448 
L 238.709515 283.968 
L 238.851306 272.448 
L 238.887431 283.968 
L 239.028318 272.448 
L 239.069861 283.968 
L 239.203523 272.448 
L 239.246873 283.968 
L 239.384148 272.448 
L 239.422079 283.968 
L 239.567482 272.448 
L 239.602704 283.968 
L 239.745397 272.448 
L 239.786038 283.968 
L 239.929634 272.448 
L 239.963953 283.968 
L 240.110259 272.448 
L 240.14819 283.968 
L 240.328814 295.488 
L 281.258335 283.968 
L 281.43625 272.448 
L 281.47689 283.968 
L 281.615068 272.448 
L 281.654806 283.968 
L 281.79208 272.448 
L 281.832721 283.968 
L 281.971802 272.448 
L 282.009733 283.968 
L 282.147911 272.448 
L 282.190357 283.968 
L 282.328535 272.448 
L 282.366466 283.968 
L 282.504644 272.448 
L 282.547091 283.968 
L 282.686172 272.448 
L 282.7232 283.968 
L 282.862281 272.448 
L 282.904727 283.968 
L 283.042002 272.448 
L 283.080836 283.968 
L 283.224433 272.448 
L 283.259655 283.968 
L 283.405961 272.448 
L 283.442989 283.968 
L 283.587488 272.448 
L 283.624516 283.968 
L 283.7645 272.448 
L 283.806044 283.968 
L 283.946931 272.448 
L 283.983056 283.968 
L 284.128459 272.448 
L 284.164584 283.968 
L 284.310889 272.448 
L 284.346111 283.968 
L 284.495126 272.448 
L 284.529445 283.968 
L 284.679364 272.448 
L 284.713682 283.968 
L 284.859988 272.448 
L 284.897016 283.968 
L 285.043322 272.448 
L 285.078544 283.968 
L 285.223043 272.448 
L 285.260975 283.968 
L 285.401862 272.448 
L 285.441599 283.968 
L 285.58068 272.448 
L 285.620417 283.968 
L 285.76582 272.448 
L 285.799236 283.968 
L 285.946445 272.448 
L 285.983473 283.968 
L 286.126166 272.448 
L 286.165 283.968 
L 286.305887 272.448 
L 286.344722 283.968 
L 286.488318 272.448 
L 286.524443 283.968 
L 286.66533 272.448 
L 286.705971 283.968 
L 286.841439 272.448 
L 286.883886 283.968 
L 287.02387 272.448 
L 287.059995 283.968 
L 287.203591 272.448 
L 287.242426 283.968 
L 287.385119 272.448 
L 287.421244 283.968 
L 287.569356 272.448 
L 287.602772 283.968 
L 287.750884 272.448 
L 287.787912 283.968 
L 287.934218 272.448 
L 287.969439 283.968 
L 288.114842 272.448 
L 288.15187 283.968 
L 288.29637 272.448 
L 288.332495 283.968 
L 288.479704 272.448 
L 288.514926 283.968 
L 288.658522 272.448 
L 288.69826 283.968 
L 288.841856 272.448 
L 288.876175 283.968 
L 289.019771 272.448 
L 289.060412 283.968 
L 289.202202 272.448 
L 289.238327 283.968 
L 289.382827 272.448 
L 289.420758 283.968 
L 289.56616 272.448 
L 289.601382 283.968 
L 289.742269 272.448 
L 289.784716 283.968 
L 289.9247 272.448 
L 289.959922 283.968 
L 290.102615 272.448 
L 290.143256 283.968 
L 290.28324 272.448 
L 290.321171 283.968 
L 290.463864 272.448 
L 290.501796 283.968 
L 290.644489 272.448 
L 290.68242 283.968 
L 290.826017 272.448 
L 290.863045 283.968 
L 291.005738 272.448 
L 291.043669 283.968 
L 291.186363 272.448 
L 291.224294 283.968 
L 291.366084 272.448 
L 291.404918 283.968 
L 291.547612 272.448 
L 291.58464 283.968 
L 291.72643 272.448 
L 291.766167 283.968 
L 291.910667 272.448 
L 291.944986 283.968 
L 292.091291 272.448 
L 292.129223 283.968 
L 292.271916 272.448 
L 292.308944 283.968 
L 292.449831 272.448 
L 292.490472 283.968 
L 292.633165 272.448 
L 292.667484 283.968 
L 292.81379 272.448 
L 292.851721 283.968 
L 292.997124 272.448 
L 293.032345 283.968 
L 293.541707 249.408 
L 296.42899 65.088 
L 296.777595 53.568 
L 306.694785 65.088 
L 306.807676 53.568 
L 306.927791 76.608 
L 306.931404 65.088 
L 307.003653 145.728 
L 307.149959 283.968 
L 307.241175 272.448 
L 307.280912 283.968 
L 307.423605 272.448 
L 307.45973 283.968 
L 307.606939 272.448 
L 307.642161 283.968 
L 307.782145 272.448 
L 307.825495 283.968 
L 307.963673 272.448 
L 308.000701 283.968 
L 308.144297 272.448 
L 308.182228 283.968 
L 308.325825 272.448 
L 308.362853 283.968 
L 308.508256 272.448 
L 308.544381 283.968 
L 308.689783 272.448 
L 308.726811 283.968 
L 308.871311 272.448 
L 308.908339 283.968 
L 309.056451 272.448 
L 309.089867 283.968 
L 309.237076 272.448 
L 309.274104 283.968 
L 309.421313 272.448 
L 309.455631 283.968 
L 309.598325 272.448 
L 309.639868 283.968 
L 309.779853 272.448 
L 309.815977 283.968 
L 309.956865 272.448 
L 309.998408 283.968 
L 310.141102 272.448 
L 310.17542 283.968 
L 310.321726 272.448 
L 310.359657 283.968 
L 310.500544 272.448 
L 310.540282 283.968 
L 310.676653 272.448 
L 310.718197 283.968 
L 310.859084 272.448 
L 310.895209 283.968 
L 311.039709 272.448 
L 311.07764 283.968 
L 311.217624 272.448 
L 311.258264 283.968 
L 311.400055 272.448 
L 311.43618 283.968 
L 311.581582 272.448 
L 311.61861 283.968 
L 311.757691 272.448 
L 311.800138 283.968 
L 311.93651 272.448 
L 311.976247 283.968 
L 312.117134 272.448 
L 312.154162 283.968 
L 312.293243 272.448 
L 312.33569 283.968 
L 312.476577 272.448 
L 312.511799 283.968 
L 312.659911 272.448 
L 312.695133 283.968 
L 312.844148 272.448 
L 312.877563 283.968 
L 313.023869 272.448 
L 313.062704 283.968 
L 313.207203 272.448 
L 313.242425 283.968 
L 313.387828 272.448 
L 313.425759 283.968 
L 313.565743 272.448 
L 313.606383 283.968 
L 313.749077 272.448 
L 313.784299 283.968 
L 313.931508 272.448 
L 313.967632 283.968 
L 314.107616 272.448 
L 314.150063 283.968 
L 314.286435 272.448 
L 314.326172 283.968 
L 314.467059 272.448 
L 314.50499 283.968 
L 314.648587 272.448 
L 314.684712 283.968 
L 314.828308 272.448 
L 314.867143 283.968 
L 315.007127 272.448 
L 315.046864 283.968 
L 315.185945 272.448 
L 315.224779 283.968 
L 315.362957 272.448 
L 315.404501 283.968 
L 315.546291 272.448 
L 315.581513 283.968 
L 315.726012 272.448 
L 315.764847 283.968 
L 315.908443 272.448 
L 315.944568 283.968 
L 316.093583 272.448 
L 316.126999 283.968 
L 316.273305 272.448 
L 316.311236 283.968 
L 316.453929 272.448 
L 316.49186 283.968 
L 316.634554 272.448 
L 316.671582 283.968 
L 316.816081 272.448 
L 316.853109 283.968 
L 316.995803 272.448 
L 317.034637 283.968 
L 317.179137 272.448 
L 317.214359 283.968 
L 317.363374 272.448 
L 317.396789 283.968 
L 317.542192 272.448 
L 317.581929 283.968 
L 317.722817 272.448 
L 317.759845 283.968 
L 317.902538 272.448 
L 317.940469 283.968 
L 318.081356 272.448 
L 318.121094 283.968 
L 318.259271 272.448 
L 318.299912 283.968 
L 318.43809 272.448 
L 318.477827 283.968 
L 318.620521 272.448 
L 318.656645 283.968 
L 318.801145 272.448 
L 318.838173 283.968 
L 318.979963 272.448 
L 319.019701 283.968 
L 319.157879 272.448 
L 319.198519 283.968 
L 319.339406 272.448 
L 319.375531 283.968 
L 319.519128 272.448 
L 319.557059 283.968 
L 319.701558 272.448 
L 319.737683 283.968 
L 319.88128 272.448 
L 319.920114 283.968 
L 320.063711 272.448 
L 320.099836 283.968 
L 320.611003 249.408 
L 322.78211 111.168 
L 322.9528 122.688 
L 323.184903 283.968 
L 323.330305 272.448 
L 323.365527 283.968 
L 323.513639 272.448 
L 323.548861 283.968 
L 323.696973 272.448 
L 323.732195 283.968 
L 323.88121 272.448 
L 323.914626 283.968 
L 324.062738 272.448 
L 324.099766 283.968 
L 324.240653 272.448 
L 324.28039 283.968 
L 324.420374 272.448 
L 324.459209 283.968 
L 324.603708 272.448 
L 324.63893 283.968 
L 324.787042 272.448 
L 324.821361 283.968 
L 324.966764 272.448 
L 325.005598 283.968 
L 325.146485 272.448 
L 325.185319 283.968 
L 325.329819 272.448 
L 325.365041 283.968 
L 325.507734 272.448 
L 325.547472 283.968 
L 325.691068 272.448 
L 325.72629 283.968 
L 325.873499 272.448 
L 325.908721 283.968 
L 326.049608 272.448 
L 326.091151 283.968 
L 326.232039 272.448 
L 326.268164 283.968 
L 326.415373 272.448 
L 326.450594 283.968 
L 326.593288 272.448 
L 326.633928 283.968 
L 326.773912 272.448 
L 326.811843 283.968 
L 326.956343 272.448 
L 326.991565 283.968 
L 327.142386 272.448 
L 327.174899 283.968 
L 327.323011 272.448 
L 327.360942 283.968 
L 327.509054 272.448 
L 327.541567 283.968 
L 327.691485 272.448 
L 327.726707 283.968 
L 327.873013 272.448 
L 327.910041 283.968 
L 328.050025 272.448 
L 328.090665 283.968 
L 328.231552 272.448 
L 328.26858 283.968 
L 328.414886 272.448 
L 328.450108 283.968 
L 328.599123 272.448 
L 328.633442 283.968 
L 328.779748 272.448 
L 328.817679 283.968 
L 328.95676 272.448 
L 328.998303 283.968 
L 329.138287 272.448 
L 329.175315 283.968 
L 329.316203 272.448 
L 329.356843 283.968 
L 329.49773 272.448 
L 329.534758 283.968 
L 329.679258 272.448 
L 329.715383 283.968 
L 329.85627 272.448 
L 329.897814 283.968 
L 330.037798 272.448 
L 330.074826 283.968 
L 330.217519 272.448 
L 330.25545 283.968 
L 330.401756 272.448 
L 330.435172 283.968 
L 330.577865 272.448 
L 330.619409 283.968 
L 330.761199 272.448 
L 330.796421 283.968 
L 330.939114 272.448 
L 330.979755 283.968 
L 331.117932 272.448 
L 331.15767 283.968 
L 331.296751 272.448 
L 331.336488 283.968 
L 331.473763 272.448 
L 331.515306 283.968 
L 331.654387 272.448 
L 331.692318 283.968 
L 331.832302 272.448 
L 331.872943 283.968 
L 332.011121 272.448 
L 332.050858 283.968 
L 332.189939 272.448 
L 332.228773 283.968 
L 332.366048 272.448 
L 332.407592 283.968 
L 332.548479 272.448 
L 332.584604 283.968 
L 332.731813 272.448 
L 332.766131 283.968 
L 332.916953 272.448 
L 332.950368 283.968 
L 333.094868 272.448 
L 333.134605 283.968 
L 333.274589 272.448 
L 333.313424 283.968 
L 333.451601 272.448 
L 333.493145 283.968 
L 333.634032 272.448 
L 333.670157 283.968 
L 333.81285 272.448 
L 333.852588 283.968 
L 333.994378 272.448 
L 334.031406 283.968 
L 334.176809 272.448 
L 334.212031 283.968 
L 334.357433 272.448 
L 334.395365 283.968 
L 334.542574 272.448 
L 334.575989 283.968 
L 334.723198 272.448 
L 334.760226 283.968 
L 334.902016 272.448 
L 334.941754 283.968 
L 335.083544 272.448 
L 335.120572 283.968 
L 335.261459 272.448 
L 335.301197 283.968 
L 335.440278 272.448 
L 335.480015 283.968 
L 335.620902 272.448 
L 335.65793 283.968 
L 335.797914 272.448 
L 335.839458 283.968 
L 335.981248 272.448 
L 336.015567 283.968 
L 336.162776 272.448 
L 336.199804 283.968 
L 336.342497 272.448 
L 336.381331 283.968 
L 336.522219 272.448 
L 336.56015 283.968 
L 336.701037 272.448 
L 336.740774 283.968 
L 336.87534 272.448 
L 336.918689 283.968 
L 337.055964 272.448 
L 337.093895 283.968 
L 337.239298 272.448 
L 337.27452 283.968 
L 337.417213 272.448 
L 337.457854 283.968 
L 337.599644 272.448 
L 337.635769 283.968 
L 337.782978 272.448 
L 337.8182 283.968 
L 337.967215 272.448 
L 338.00063 283.968 
L 338.150549 272.448 
L 338.185771 283.968 
L 338.331173 272.448 
L 338.369104 283.968 
L 338.512701 272.448 
L 338.549729 283.968 
L 338.696938 272.448 
L 338.731257 283.968 
L 338.881175 272.448 
L 338.915494 283.968 
L 339.065412 272.448 
L 339.099731 283.968 
L 339.24694 272.448 
L 339.283968 283.968 
L 339.428467 272.448 
L 339.465495 283.968 
L 339.609995 272.448 
L 339.64612 283.968 
L 339.79062 272.448 
L 339.828551 283.968 
L 339.969438 272.448 
L 340.009175 283.968 
L 340.148256 272.448 
L 340.187994 283.968 
L 340.329784 272.448 
L 340.366812 283.968 
L 340.513118 272.448 
L 340.54834 283.968 
L 340.694645 272.448 
L 340.731673 283.968 
L 340.87527 272.448 
L 340.912298 283.968 
L 341.054991 272.448 
L 341.093826 283.968 
L 341.273547 295.488 
L 342.501794 283.968 
L 342.72035 295.488 
L 342.823306 283.968 
L 343.041861 295.488 
L 343.14572 283.968 
L 343.363373 295.488 
L 343.457298 283.968 
L 343.675853 295.488 
L 343.766166 283.968 
L 343.984721 295.488 
L 344.075937 283.968 
L 344.294492 295.488 
L 344.390223 283.968 
L 344.608779 295.488 
L 344.712638 283.968 
L 344.931194 295.488 
L 345.031441 283.968 
L 345.249996 295.488 
L 345.34934 283.968 
L 345.567895 295.488 
L 345.665433 283.968 
L 345.883085 295.488 
L 345.980623 283.968 
L 346.199178 295.488 
L 346.291297 283.968 
L 346.509852 295.488 
L 346.611002 283.968 
L 346.829558 295.488 
L 346.918967 283.968 
L 347.137523 295.488 
L 347.233254 283.968 
L 347.451809 295.488 
L 347.552056 283.968 
L 347.770612 295.488 
L 347.860021 283.968 
L 348.078577 295.488 
L 348.180629 283.968 
L 348.398282 295.488 
L 348.499432 283.968 
L 348.717987 295.488 
L 348.818234 283.968 
L 349.03679 295.488 
L 349.132521 283.968 
L 349.350173 295.488 
L 349.45042 283.968 
L 349.668976 295.488 
L 349.76561 283.968 
L 349.984165 295.488 
L 350.0808 283.968 
L 350.299355 295.488 
L 350.396892 283.968 
L 350.614545 295.488 
L 350.719307 283.968 
L 350.937863 295.488 
L 351.031788 283.968 
L 351.250343 295.488 
L 351.351493 283.968 
L 351.570049 295.488 
L 351.673005 283.968 
L 351.891561 295.488 
L 351.99271 283.968 
L 352.211266 295.488 
L 352.3079 283.968 
L 352.526456 295.488 
L 352.625799 283.968 
L 352.844355 295.488 
L 352.947311 283.968 
L 353.164964 295.488 
L 353.261598 283.968 
L 353.480153 295.488 
L 353.572272 283.968 
L 353.790828 295.488 
L 353.888365 283.968 
L 354.106017 295.488 
L 354.202652 283.968 
L 354.420304 295.488 
L 354.52326 283.968 
L 354.741816 295.488 
L 354.844772 283.968 
L 355.063327 295.488 
L 355.15364 283.968 
L 355.372195 295.488 
L 355.471539 283.968 
L 355.690095 295.488 
L 355.782213 283.968 
L 356.000769 295.488 
L 356.099209 283.968 
L 356.317765 295.488 
L 356.418011 283.968 
L 356.636567 295.488 
L 356.732298 283.968 
L 356.950854 295.488 
L 357.044779 283.968 
L 357.263334 295.488 
L 357.355453 283.968 
L 357.574009 295.488 
L 357.670643 283.968 
L 357.889198 295.488 
L 357.985832 283.968 
L 358.204388 295.488 
L 358.308247 283.968 
L 358.526803 295.488 
L 358.621631 283.968 
L 358.839283 295.488 
L 358.941336 283.968 
L 359.159892 295.488 
L 359.257429 283.968 
L 359.475985 295.488 
L 359.577135 283.968 
L 359.79569 295.488 
L 359.892324 283.968 
L 360.11088 295.488 
L 360.207514 283.968 
L 360.42607 295.488 
L 360.522704 283.968 
L 360.74126 295.488 
L 360.833378 283.968 
L 361.051934 295.488 
L 361.157599 283.968 
L 361.375252 295.488 
L 361.475499 283.968 
L 361.694054 295.488 
L 361.79972 283.968 
L 362.018275 295.488 
L 362.114006 283.968 
L 362.332562 295.488 
L 362.425584 283.968 
L 362.644139 295.488 
L 362.737161 283.968 
L 362.955717 295.488 
L 363.050545 283.968 
L 363.2691 295.488 
L 363.368444 283.968 
L 363.586096 295.488 
L 363.68273 283.968 
L 363.901286 295.488 
L 364.001533 283.968 
L 364.220088 295.488 
L 364.319432 283.968 
L 364.537084 295.488 
L 364.638234 283.968 
L 364.85679 295.488 
L 364.948908 283.968 
L 365.166561 295.488 
L 365.265001 283.968 
L 365.482654 295.488 
L 365.587416 283.968 
L 365.805972 295.488 
L 365.903509 283.968 
L 366.121162 295.488 
L 366.219602 283.968 
L 366.438158 295.488 
L 366.532986 283.968 
L 366.751541 295.488 
L 366.853594 283.968 
L 367.07215 295.488 
L 367.168784 283.968 
L 367.38734 295.488 
L 367.490296 283.968 
L 367.708851 295.488 
L 367.810904 283.968 
L 368.02946 295.488 
L 368.126094 283.968 
L 368.343747 295.488 
L 368.442187 283.968 
L 368.65984 295.488 
L 368.753764 283.968 
L 368.97232 295.488 
L 369.065342 283.968 
L 369.282994 295.488 
L 369.380531 283.968 
L 369.599087 295.488 
L 369.70114 283.968 
L 369.919696 295.488 
L 370.015427 283.968 
L 370.233982 295.488 
L 370.330617 283.968 
L 370.549172 295.488 
L 370.649419 283.968 
L 370.867071 295.488 
L 370.960093 283.968 
L 371.178649 295.488 
L 371.27438 283.968 
L 371.492935 295.488 
L 371.594085 283.968 
L 371.812641 295.488 
L 371.910178 283.968 
L 372.128734 295.488 
L 372.228077 283.968 
L 372.446633 295.488 
L 372.545073 283.968 
L 372.763629 295.488 
L 372.860263 283.968 
L 373.078819 295.488 
L 373.172744 283.968 
L 373.391299 295.488 
L 373.490643 283.968 
L 373.709199 295.488 
L 373.812155 283.968 
L 374.03071 295.488 
L 374.127344 283.968 
L 374.344997 295.488 
L 374.441631 283.968 
L 374.660187 295.488 
L 374.756821 283.968 
L 374.975377 295.488 
L 375.072011 283.968 
L 375.290566 295.488 
L 375.387201 283.968 
L 375.604853 295.488 
L 375.706003 283.968 
L 375.923655 295.488 
L 376.01758 283.968 
L 376.236136 295.488 
L 376.330964 283.968 
L 376.549519 295.488 
L 378.344024 283.968 
L 393.478554 295.488 
L 393.703432 99.648 
L 393.704335 111.168 
L 393.939147 295.488 
L 393.941856 283.968 
L 394.159509 295.488 
L 394.171249 283.968 
L 394.388902 295.488 
L 394.401546 283.968 
L 394.620101 295.488 
L 394.632745 283.968 
L 394.851301 295.488 
L 394.859429 283.968 
L 395.077985 295.488 
L 395.08521 283.968 
L 395.303765 295.488 
L 395.315506 283.968 
L 395.534062 295.488 
L 395.541287 283.968 
L 395.758939 295.488 
L 395.769777 283.968 
L 395.988332 295.488 
L 395.998267 283.968 
L 396.216822 295.488 
L 396.218629 283.968 
L 396.437184 295.488 
L 396.442603 283.968 
L 396.661159 295.488 
L 396.668384 283.968 
L 396.886939 295.488 
L 396.892358 283.968 
L 397.110914 295.488 
L 397.121751 283.968 
L 397.340307 295.488 
L 397.346629 283.968 
L 397.565184 295.488 
L 397.576022 283.968 
L 397.794578 295.488 
L 397.803609 283.968 
L 398.022165 295.488 
L 398.024874 283.968 
L 398.242526 295.488 
L 398.256976 283.968 
L 398.475532 295.488 
L 398.487273 283.968 
L 398.487273 283.968 
" clip-path="url(#p5378c6176b)" style="fill: none; stroke: #1f77b4; stroke-width: 1.5; stroke-linecap: square"/>
   </g>
   <g id="patch_3">
    <path d="M 57.6 307.584 
L 57.6 41.472 
" style="fill: none; stroke: #000000; stroke-width: 0.8; stroke-linejoin: miter; stroke-linecap: square"/>
   </g>
   <g id="patch_4">
    <path d="M 414.72 307.584 
L 414.72 41.472 
" style="fill: none; stroke: #000000; stroke-width: 0.8; stroke-linejoin: miter; stroke-linecap: square"/>
   </g>
   <g id="patch_5">
    <path d="M 57.6 307.584 
L 414.72 307.584 
" style="fill: none; stroke: #000000; stroke-width: 0.8; stroke-linejoin: miter; stroke-linecap: square"/>
   </g>
   <g id="patch_6">
    <path d="M 57.6 41.472 
L 414.72 41.472 
" style="fill: none; stroke: #000000; stroke-width: 0.8; stroke-linejoin: miter; stroke-linecap: square"/>
   </g>
   <g id="text_15">
    <!-- Queue size (y-axis) between S2 and sensors that follow at a time (x-axis). -->
    <g transform="translate(14.282813 35.472) scale(0.12 -0.12)">
     <defs>
      <path id="DejaVuSans-51" d="M 2522 4238 
Q 1834 4238 1429 3725 
Q 1025 3213 1025 2328 
Q 1025 1447 1429 934 
Q 1834 422 2522 422 
Q 3209 422 3611 934 
Q 4013 1447 4013 2328 
Q 4013 3213 3611 3725 
Q 3209 4238 2522 4238 
z
M 3406 84 
L 4238 -825 
L 3475 -825 
L 2784 -78 
Q 2681 -84 2626 -87 
Q 2572 -91 2522 -91 
Q 1538 -91 948 567 
Q 359 1225 359 2328 
Q 359 3434 948 4092 
Q 1538 4750 2522 4750 
Q 3503 4750 4090 4092 
Q 4678 3434 4678 2328 
Q 4678 1516 4351 937 
Q 4025 359 3406 84 
z
" transform="scale(0.015625)"/>
      <path id="DejaVuSans-75" d="M 544 1381 
L 544 3500 
L 1119 3500 
L 1119 1403 
Q 1119 906 1312 657 
Q 1506 409 1894 409 
Q 2359 409 2629 706 
Q 2900 1003 2900 1516 
L 2900 3500 
L 3475 3500 
L 3475 0 
L 2900 0 
L 2900 538 
Q 2691 219 2414 64 
Q 2138 -91 1772 -91 
Q 1169 -91 856 284 
Q 544 659 544 1381 
z
M 1991 3584 
L 1991 3584 
z
" transform="scale(0.015625)"/>
      <path id="DejaVuSans-20" transform="scale(0.015625)"/>
      <path id="DejaVuSans-73" d="M 2834 3397 
L 2834 2853 
Q 2591 2978 2328 3040 
Q 2066 3103 1784 3103 
Q 1356 3103 1142 2972 
Q 928 2841 928 2578 
Q 928 2378 1081 2264 
Q 1234 2150 1697 2047 
L 1894 2003 
Q 2506 1872 2764 1633 
Q 3022 1394 3022 966 
Q 3022 478 2636 193 
Q 2250 -91 1575 -91 
Q 1294 -91 989 -36 
Q 684 19 347 128 
L 347 722 
Q 666 556 975 473 
Q 1284 391 1588 391 
Q 1994 391 2212 530 
Q 2431 669 2431 922 
Q 2431 1156 2273 1281 
Q 2116 1406 1581 1522 
L 1381 1569 
Q 847 1681 609 1914 
Q 372 2147 372 2553 
Q 372 3047 722 3315 
Q 1072 3584 1716 3584 
Q 2034 3584 2315 3537 
Q 2597 3491 2834 3397 
z
" transform="scale(0.015625)"/>
      <path id="DejaVuSans-69" d="M 603 3500 
L 1178 3500 
L 1178 0 
L 603 0 
L 603 3500 
z
M 603 4863 
L 1178 4863 
L 1178 4134 
L 603 4134 
L 603 4863 
z
" transform="scale(0.015625)"/>
      <path id="DejaVuSans-7a" d="M 353 3500 
L 3084 3500 
L 3084 2975 
L 922 459 
L 3084 459 
L 3084 0 
L 275 0 
L 275 525 
L 2438 3041 
L 353 3041 
L 353 3500 
z
" transform="scale(0.015625)"/>
      <path id="DejaVuSans-28" d="M 1984 4856 
Q 1566 4138 1362 3434 
Q 1159 2731 1159 2009 
Q 1159 1288 1364 580 
Q 1569 -128 1984 -844 
L 1484 -844 
Q 1016 -109 783 600 
Q 550 1309 550 2009 
Q 550 2706 781 3412 
Q 1013 4119 1484 4856 
L 1984 4856 
z
" transform="scale(0.015625)"/>
      <path id="DejaVuSans-79" d="M 2059 -325 
Q 1816 -950 1584 -1140 
Q 1353 -1331 966 -1331 
L 506 -1331 
L 506 -850 
L 844 -850 
Q 1081 -850 1212 -737 
Q 1344 -625 1503 -206 
L 1606 56 
L 191 3500 
L 800 3500 
L 1894 763 
L 2988 3500 
L 3597 3500 
L 2059 -325 
z
" transform="scale(0.015625)"/>
      <path id="DejaVuSans-2d" d="M 313 2009 
L 1997 2009 
L 1997 1497 
L 313 1497 
L 313 2009 
z
" transform="scale(0.015625)"/>
      <path id="DejaVuSans-61" d="M 2194 1759 
Q 1497 1759 1228 1600 
Q 959 1441 959 1056 
Q 959 750 1161 570 
Q 1363 391 1709 391 
Q 2188 391 2477 730 
Q 2766 1069 2766 1631 
L 2766 1759 
L 2194 1759 
z
M 3341 1997 
L 3341 0 
L 2766 0 
L 2766 531 
Q 2569 213 2275 61 
Q 1981 -91 1556 -91 
Q 1019 -91 701 211 
Q 384 513 384 1019 
Q 384 1609 779 1909 
Q 1175 2209 1959 2209 
L 2766 2209 
L 2766 2266 
Q 2766 2663 2505 2880 
Q 2244 3097 1772 3097 
Q 1472 3097 1187 3025 
Q 903 2953 641 2809 
L 641 3341 
Q 956 3463 1253 3523 
Q 1550 3584 1831 3584 
Q 2591 3584 2966 3190 
Q 3341 2797 3341 1997 
z
" transform="scale(0.015625)"/>
      <path id="DejaVuSans-78" d="M 3513 3500 
L 2247 1797 
L 3578 0 
L 2900 0 
L 1881 1375 
L 863 0 
L 184 0 
L 1544 1831 
L 300 3500 
L 978 3500 
L 1906 2253 
L 2834 3500 
L 3513 3500 
z
" transform="scale(0.015625)"/>
      <path id="DejaVuSans-29" d="M 513 4856 
L 1013 4856 
Q 1481 4119 1714 3412 
Q 1947 2706 1947 2009 
Q 1947 1309 1714 600 
Q 1481 -109 1013 -844 
L 513 -844 
Q 928 -128 1133 580 
Q 1338 1288 1338 2009 
Q 1338 2731 1133 3434 
Q 928 4138 513 4856 
z
" transform="scale(0.015625)"/>
      <path id="DejaVuSans-62" d="M 3116 1747 
Q 3116 2381 2855 2742 
Q 2594 3103 2138 3103 
Q 1681 3103 1420 2742 
Q 1159 2381 1159 1747 
Q 1159 1113 1420 752 
Q 1681 391 2138 391 
Q 2594 391 2855 752 
Q 3116 1113 3116 1747 
z
M 1159 2969 
Q 1341 3281 1617 3432 
Q 1894 3584 2278 3584 
Q 2916 3584 3314 3078 
Q 3713 2572 3713 1747 
Q 3713 922 3314 415 
Q 2916 -91 2278 -91 
Q 1894 -91 1617 61 
Q 1341 213 1159 525 
L 1159 0 
L 581 0 
L 581 4863 
L 1159 4863 
L 1159 2969 
z
" transform="scale(0.015625)"/>
      <path id="DejaVuSans-74" d="M 1172 4494 
L 1172 3500 
L 2356 3500 
L 2356 3053 
L 1172 3053 
L 1172 1153 
Q 1172 725 1289 603 
Q 1406 481 1766 481 
L 2356 481 
L 2356 0 
L 1766 0 
Q 1100 0 847 248 
Q 594 497 594 1153 
L 594 3053 
L 172 3053 
L 172 3500 
L 594 3500 
L 594 4494 
L 1172 4494 
z
" transform="scale(0.015625)"/>
      <path id="DejaVuSans-77" d="M 269 3500 
L 844 3500 
L 1563 769 
L 2278 3500 
L 2956 3500 
L 3675 769 
L 4391 3500 
L 4966 3500 
L 4050 0 
L 3372 0 
L 2619 2869 
L 1863 0 
L 1184 0 
L 269 3500 
z
" transform="scale(0.015625)"/>
      <path id="DejaVuSans-6e" d="M 3513 2113 
L 3513 0 
L 2938 0 
L 2938 2094 
Q 2938 2591 2744 2837 
Q 2550 3084 2163 3084 
Q 1697 3084 1428 2787 
Q 1159 2491 1159 1978 
L 1159 0 
L 581 0 
L 581 3500 
L 1159 3500 
L 1159 2956 
Q 1366 3272 1645 3428 
Q 1925 3584 2291 3584 
Q 2894 3584 3203 3211 
Q 3513 2838 3513 2113 
z
" transform="scale(0.015625)"/>
      <path id="DejaVuSans-53" d="M 3425 4513 
L 3425 3897 
Q 3066 4069 2747 4153 
Q 2428 4238 2131 4238 
Q 1616 4238 1336 4038 
Q 1056 3838 1056 3469 
Q 1056 3159 1242 3001 
Q 1428 2844 1947 2747 
L 2328 2669 
Q 3034 2534 3370 2195 
Q 3706 1856 3706 1288 
Q 3706 609 3251 259 
Q 2797 -91 1919 -91 
Q 1588 -91 1214 -16 
Q 841 59 441 206 
L 441 856 
Q 825 641 1194 531 
Q 1563 422 1919 422 
Q 2459 422 2753 634 
Q 3047 847 3047 1241 
Q 3047 1584 2836 1778 
Q 2625 1972 2144 2069 
L 1759 2144 
Q 1053 2284 737 2584 
Q 422 2884 422 3419 
Q 422 4038 858 4394 
Q 1294 4750 2059 4750 
Q 2388 4750 2728 4690 
Q 3069 4631 3425 4513 
z
" transform="scale(0.015625)"/>
      <path id="DejaVuSans-64" d="M 2906 2969 
L 2906 4863 
L 3481 4863 
L 3481 0 
L 2906 0 
L 2906 525 
Q 2725 213 2448 61 
Q 2172 -91 1784 -91 
Q 1150 -91 751 415 
Q 353 922 353 1747 
Q 353 2572 751 3078 
Q 1150 3584 1784 3584 
Q 2172 3584 2448 3432 
Q 2725 3281 2906 2969 
z
M 947 1747 
Q 947 1113 1208 752 
Q 1469 391 1925 391 
Q 2381 391 2643 752 
Q 2906 1113 2906 1747 
Q 2906 2381 2643 2742 
Q 2381 3103 1925 3103 
Q 1469 3103 1208 2742 
Q 947 2381 947 1747 
z
" transform="scale(0.015625)"/>
      <path id="DejaVuSans-6f" d="M 1959 3097 
Q 1497 3097 1228 2736 
Q 959 2375 959 1747 
Q 959 1119 1226 758 
Q 1494 397 1959 397 
Q 2419 397 2687 759 
Q 2956 1122 2956 1747 
Q 2956 2369 2687 2733 
Q 2419 3097 1959 3097 
z
M 1959 3584 
Q 2709 3584 3137 3096 
Q 3566 2609 3566 1747 
Q 3566 888 3137 398 
Q 2709 -91 1959 -91 
Q 1206 -91 779 398 
Q 353 888 353 1747 
Q 353 2609 779 3096 
Q 1206 3584 1959 3584 
z
" transform="scale(0.015625)"/>
      <path id="DejaVuSans-72" d="M 2631 2963 
Q 2534 3019 2420 3045 
Q 2306 3072 2169 3072 
Q 1681 3072 1420 2755 
Q 1159 2438 1159 1844 
L 1159 0 
L 581 0 
L 581 3500 
L 1159 3500 
L 1159 2956 
Q 1341 3275 1631 3429 
Q 1922 3584 2338 3584 
Q 2397 3584 2469 3576 
Q 2541 3569 2628 3553 
L 2631 2963 
z
" transform="scale(0.015625)"/>
      <path id="DejaVuSans-68" d="M 3513 2113 
L 3513 0 
L 2938 0 
L 2938 2094 
Q 2938 2591 2744 2837 
Q 2550 3084 2163 3084 
Q 1697 3084 1428 2787 
Q 1159 2491 1159 1978 
L 1159 0 
L 581 0 
L 581 4863 
L 1159 4863 
L 1159 2956 
Q 1366 3272 1645 3428 
Q 1925 3584 2291 3584 
Q 2894 3584 3203 3211 
Q 3513 2838 3513 2113 
z
" transform="scale(0.015625)"/>
      <path id="DejaVuSans-66" d="M 2375 4863 
L 2375 4384 
L 1825 4384 
Q 1516 4384 1395 4259 
Q 1275 4134 1275 3809 
L 1275 3500 
L 2222 3500 
L 2222 3053 
L 1275 3053 
L 1275 0 
L 697 0 
L 697 3053 
L 147 3053 
L 147 3500 
L 697 3500 
L 697 3744 
Q 697 4328 969 4595 
Q 1241 4863 1831 4863 
L 2375 4863 
z
" transform="scale(0.015625)"/>
      <path id="DejaVuSans-6c" d="M 603 4863 
L 1178 4863 
L 1178 0 
L 603 0 
L 603 4863 
z
" transform="scale(0.015625)"/>
      <path id="DejaVuSans-6d" d="M 3328 2828 
Q 3544 3216 3844 3400 
Q 4144 3584 4550 3584 
Q 5097 3584 5394 3201 
Q 5691 2819 5691 2113 
L 5691 0 
L 5113 0 
L 5113 2094 
Q 5113 2597 4934 2840 
Q 4756 3084 4391 3084 
Q 3944 3084 3684 2787 
Q 3425 2491 3425 1978 
L 3425 0 
L 2847 0 
L 2847 2094 
Q 2847 2600 2669 2842 
Q 2491 3084 2119 3084 
Q 1678 3084 1418 2786 
Q 1159 2488 1159 1978 
L 1159 0 
L 581 0 
L 581 3500 
L 1159 3500 
L 1159 2956 
Q 1356 3278 1631 3431 
Q 1906 3584 2284 3584 
Q 2666 3584 2933 3390 
Q 3200 3197 3328 2828 
z
" transform="scale(0.015625)"/>
     </defs>
     <use xlink:href="#DejaVuSans-51"/>
     <use xlink:href="#DejaVuSans-75" x="78.710938"/>
     <use xlink:href="#DejaVuSans-65" x="142.089844"/>
     <use xlink:href="#DejaVuSans-75" x="203.613281"/>
     <use xlink:href="#DejaVuSans-65" x="266.992188"/>
     <use xlink:href="#DejaVuSans-20" x="328.515625"/>
     <use xlink:href="#DejaVuSans-73" x="360.302734"/>
     <use xlink:href="#DejaVuSans-69" x="412.402344"/>
     <use xlink:href="#DejaVuSans-7a" x="440.185547"/>
     <use xlink:href="#DejaVuSans-65" x="492.675781"/>
     <use xlink:href="#DejaVuSans-20" x="554.199219"/>
     <use xlink:href="#DejaVuSans-28" x="585.986328"/>
     <use xlink:href="#DejaVuSans-79" x="625"/>
     <use xlink:href="#DejaVuSans-2d" x="682.429688"/>
     <use xlink:href="#DejaVuSans-61" x="718.513672"/>
     <use xlink:href="#DejaVuSans-78" x="779.792969"/>
     <use xlink:href="#DejaVuSans-69" x="838.972656"/>
     <use xlink:href="#DejaVuSans-73" x="866.755859"/>
     <use xlink:href="#DejaVuSans-29" x="918.855469"/>
     <use xlink:href="#DejaVuSans-20" x="957.869141"/>
     <use xlink:href="#DejaVuSans-62" x="989.65625"/>
     <use xlink:href="#DejaVuSans-65" x="1053.132812"/>
     <use xlink:href="#DejaVuSans-74" x="1114.65625"/>
     <use xlink:href="#DejaVuSans-77" x="1153.865234"/>
     <use xlink:href="#DejaVuSans-65" x="1235.652344"/>
     <use xlink:href="#DejaVuSans-65" x="1297.175781"/>
     <use xlink:href="#DejaVuSans-6e" x="1358.699219"/>
     <use xlink:href="#DejaVuSans-20" x="1422.078125"/>
     <use xlink:href="#DejaVuSans-53" x="1453.865234"/>
     <use xlink:href="#DejaVuSans-32" x="1517.341797"/>
     <use xlink:href="#DejaVuSans-20" x="1580.964844"/>
     <use xlink:href="#DejaVuSans-61" x="1612.751953"/>
     <use xlink:href="#DejaVuSans-6e" x="1674.03125"/>
     <use xlink:href="#DejaVuSans-64" x="1737.410156"/>
     <use xlink:href="#DejaVuSans-20" x="1800.886719"/>
     <use xlink:href="#DejaVuSans-73" x="1832.673828"/>
     <use xlink:href="#DejaVuSans-65" x="1884.773438"/>
     <use xlink:href="#DejaVuSans-6e" x="1946.296875"/>
     <use xlink:href="#DejaVuSans-73" x="2009.675781"/>
     <use xlink:href="#DejaVuSans-6f" x="2061.775391"/>
     <use xlink:href="#DejaVuSans-72" x="2122.957031"/>
     <use xlink:href="#DejaVuSans-73" x="2164.070312"/>
     <use xlink:href="#DejaVuSans-20" x="2216.169922"/>
     <use xlink:href="#DejaVuSans-74" x="2247.957031"/>
     <use xlink:href="#DejaVuSans-68" x="2287.166016"/>
     <use xlink:href="#DejaVuSans-61" x="2350.544922"/>
     <use xlink:href="#DejaVuSans-74" x="2411.824219"/>
     <use xlink:href="#DejaVuSans-20" x="2451.033203"/>
     <use xlink:href="#DejaVuSans-66" x="2482.820312"/>
     <use xlink:href="#DejaVuSans-6f" x="2518.025391"/>
     <use xlink:href="#DejaVuSans-6c" x="2579.207031"/>
     <use xlink:href="#DejaVuSans-6c" x="2606.990234"/>
     <use xlink:href="#DejaVuSans-6f" x="2634.773438"/>
     <use xlink:href="#DejaVuSans-77" x="2695.955078"/>
     <use xlink:href="#DejaVuSans-20" x="2777.742188"/>
     <use xlink:href="#DejaVuSans-61" x="2809.529297"/>
     <use xlink:href="#DejaVuSans-74" x="2870.808594"/>
     <use xlink:href="#DejaVuSans-20" x="2910.017578"/>
     <use xlink:href="#DejaVuSans-61" x="2941.804688"/>
     <use xlink:href="#DejaVuSans-20" x="3003.083984"/>
     <use xlink:href="#DejaVuSans-74" x="3034.871094"/>
     <use xlink:href="#DejaVuSans-69" x="3074.080078"/>
     <use xlink:href="#DejaVuSans-6d" x="3101.863281"/>
     <use xlink:href="#DejaVuSans-65" x="3199.275391"/>
     <use xlink:href="#DejaVuSans-20" x="3260.798828"/>
     <use xlink:href="#DejaVuSans-28" x="3292.585938"/>
     <use xlink:href="#DejaVuSans-78" x="3331.599609"/>
     <use xlink:href="#DejaVuSans-2d" x="3390.779297"/>
     <use xlink:href="#DejaVuSans-61" x="3426.863281"/>
     <use xlink:href="#DejaVuSans-78" x="3488.142578"/>
     <use xlink:href="#DejaVuSans-69" x="3547.322266"/>
     <use xlink:href="#DejaVuSans-73" x="3575.105469"/>
     <use xlink:href="#DejaVuSans-29" x="3627.205078"/>
     <use xlink:href="#DejaVuSans-2e" x="3666.21875"/>
    </g>
   </g>
  </g>
 </g>
 <defs>
  <clipPath id="p5378c6176b">
   <rect x="57.6" y="41.472" width="357.12" height="266.112"/>
  </clipPath>
 </defs>
</svg>
