<?xml version="1.0" encoding="utf-8" standalone="no"?>
<!DOCTYPE svg PUBLIC "-//W3C//DTD SVG 1.1//EN"
  "http://www.w3.org/Graphics/SVG/1.1/DTD/svg11.dtd">
<svg xmlns:xlink="http://www.w3.org/1999/xlink" width="460.8pt" height="345.6pt" viewBox="0 0 460.8 345.6" xmlns="http://www.w3.org/2000/svg" version="1.1">
 <metadata>
  <rdf:RDF xmlns:dc="http://purl.org/dc/elements/1.1/" xmlns:cc="http://creativecommons.org/ns#" xmlns:rdf="http://www.w3.org/1999/02/22-rdf-syntax-ns#">
   <cc:Work>
    <dc:type rdf:resource="http://purl.org/dc/dcmitype/StillImage"/>
    <dc:date>2024-03-08T11:13:08.972591</dc:date>
    <dc:format>image/svg+xml</dc:format>
    <dc:creator>
     <cc:Agent>
      <dc:title>Matplotlib v3.8.2, https://matplotlib.org/</dc:title>
     </cc:Agent>
    </dc:creator>
   </cc:Work>
  </rdf:RDF>
 </metadata>
 <defs>
  <style type="text/css">*{stroke-linejoin: round; stroke-linecap: butt}</style>
 </defs>
 <g id="figure_1">
  <g id="patch_1">
   <path d="M 0 345.6 
L 460.8 345.6 
L 460.8 0 
L 0 0 
z
" style="fill: #ffffff"/>
  </g>
  <g id="axes_1">
   <g id="patch_2">
    <path d="M 57.6 307.584 
L 414.72 307.584 
L 414.72 41.472 
L 57.6 41.472 
z
" style="fill: #ffffff"/>
   </g>
   <g id="matplotlib.axis_1">
    <g id="xtick_1">
     <g id="line2d_1">
      <defs>
       <path id="m9e8e28cd38" d="M 0 0 
L 0 3.5 
" style="stroke: #000000; stroke-width: 0.8"/>
      </defs>
      <g>
       <use xlink:href="#m9e8e28cd38" x="73.327817" y="307.584" style="stroke: #000000; stroke-width: 0.8"/>
      </g>
     </g>
     <g id="text_1">
      <!-- 0.0 -->
      <g transform="translate(65.376255 322.182437) scale(0.1 -0.1)">
       <defs>
        <path id="DejaVuSans-30" d="M 2034 4250 
Q 1547 4250 1301 3770 
Q 1056 3291 1056 2328 
Q 1056 1369 1301 889 
Q 1547 409 2034 409 
Q 2525 409 2770 889 
Q 3016 1369 3016 2328 
Q 3016 3291 2770 3770 
Q 2525 4250 2034 4250 
z
M 2034 4750 
Q 2819 4750 3233 4129 
Q 3647 3509 3647 2328 
Q 3647 1150 3233 529 
Q 2819 -91 2034 -91 
Q 1250 -91 836 529 
Q 422 1150 422 2328 
Q 422 3509 836 4129 
Q 1250 4750 2034 4750 
z
" transform="scale(0.015625)"/>
        <path id="DejaVuSans-2e" d="M 684 794 
L 1344 794 
L 1344 0 
L 684 0 
L 684 794 
z
" transform="scale(0.015625)"/>
       </defs>
       <use xlink:href="#DejaVuSans-30"/>
       <use xlink:href="#DejaVuSans-2e" x="63.623047"/>
       <use xlink:href="#DejaVuSans-30" x="95.410156"/>
      </g>
     </g>
    </g>
    <g id="xtick_2">
     <g id="line2d_2">
      <g>
       <use xlink:href="#m9e8e28cd38" x="118.489731" y="307.584" style="stroke: #000000; stroke-width: 0.8"/>
      </g>
     </g>
     <g id="text_2">
      <!-- 0.5 -->
      <g transform="translate(110.538168 322.182437) scale(0.1 -0.1)">
       <defs>
        <path id="DejaVuSans-35" d="M 691 4666 
L 3169 4666 
L 3169 4134 
L 1269 4134 
L 1269 2991 
Q 1406 3038 1543 3061 
Q 1681 3084 1819 3084 
Q 2600 3084 3056 2656 
Q 3513 2228 3513 1497 
Q 3513 744 3044 326 
Q 2575 -91 1722 -91 
Q 1428 -91 1123 -41 
Q 819 9 494 109 
L 494 744 
Q 775 591 1075 516 
Q 1375 441 1709 441 
Q 2250 441 2565 725 
Q 2881 1009 2881 1497 
Q 2881 1984 2565 2268 
Q 2250 2553 1709 2553 
Q 1456 2553 1204 2497 
Q 953 2441 691 2322 
L 691 4666 
z
" transform="scale(0.015625)"/>
       </defs>
       <use xlink:href="#DejaVuSans-30"/>
       <use xlink:href="#DejaVuSans-2e" x="63.623047"/>
       <use xlink:href="#DejaVuSans-35" x="95.410156"/>
      </g>
     </g>
    </g>
    <g id="xtick_3">
     <g id="line2d_3">
      <g>
       <use xlink:href="#m9e8e28cd38" x="163.651644" y="307.584" style="stroke: #000000; stroke-width: 0.8"/>
      </g>
     </g>
     <g id="text_3">
      <!-- 1.0 -->
      <g transform="translate(155.700082 322.182437) scale(0.1 -0.1)">
       <defs>
        <path id="DejaVuSans-31" d="M 794 531 
L 1825 531 
L 1825 4091 
L 703 3866 
L 703 4441 
L 1819 4666 
L 2450 4666 
L 2450 531 
L 3481 531 
L 3481 0 
L 794 0 
L 794 531 
z
" transform="scale(0.015625)"/>
       </defs>
       <use xlink:href="#DejaVuSans-31"/>
       <use xlink:href="#DejaVuSans-2e" x="63.623047"/>
       <use xlink:href="#DejaVuSans-30" x="95.410156"/>
      </g>
     </g>
    </g>
    <g id="xtick_4">
     <g id="line2d_4">
      <g>
       <use xlink:href="#m9e8e28cd38" x="208.813558" y="307.584" style="stroke: #000000; stroke-width: 0.8"/>
      </g>
     </g>
     <g id="text_4">
      <!-- 1.5 -->
      <g transform="translate(200.861996 322.182437) scale(0.1 -0.1)">
       <use xlink:href="#DejaVuSans-31"/>
       <use xlink:href="#DejaVuSans-2e" x="63.623047"/>
       <use xlink:href="#DejaVuSans-35" x="95.410156"/>
      </g>
     </g>
    </g>
    <g id="xtick_5">
     <g id="line2d_5">
      <g>
       <use xlink:href="#m9e8e28cd38" x="253.975472" y="307.584" style="stroke: #000000; stroke-width: 0.8"/>
      </g>
     </g>
     <g id="text_5">
      <!-- 2.0 -->
      <g transform="translate(246.023909 322.182437) scale(0.1 -0.1)">
       <defs>
        <path id="DejaVuSans-32" d="M 1228 531 
L 3431 531 
L 3431 0 
L 469 0 
L 469 531 
Q 828 903 1448 1529 
Q 2069 2156 2228 2338 
Q 2531 2678 2651 2914 
Q 2772 3150 2772 3378 
Q 2772 3750 2511 3984 
Q 2250 4219 1831 4219 
Q 1534 4219 1204 4116 
Q 875 4013 500 3803 
L 500 4441 
Q 881 4594 1212 4672 
Q 1544 4750 1819 4750 
Q 2544 4750 2975 4387 
Q 3406 4025 3406 3419 
Q 3406 3131 3298 2873 
Q 3191 2616 2906 2266 
Q 2828 2175 2409 1742 
Q 1991 1309 1228 531 
z
" transform="scale(0.015625)"/>
       </defs>
       <use xlink:href="#DejaVuSans-32"/>
       <use xlink:href="#DejaVuSans-2e" x="63.623047"/>
       <use xlink:href="#DejaVuSans-30" x="95.410156"/>
      </g>
     </g>
    </g>
    <g id="xtick_6">
     <g id="line2d_6">
      <g>
       <use xlink:href="#m9e8e28cd38" x="299.137385" y="307.584" style="stroke: #000000; stroke-width: 0.8"/>
      </g>
     </g>
     <g id="text_6">
      <!-- 2.5 -->
      <g transform="translate(291.185823 322.182437) scale(0.1 -0.1)">
       <use xlink:href="#DejaVuSans-32"/>
       <use xlink:href="#DejaVuSans-2e" x="63.623047"/>
       <use xlink:href="#DejaVuSans-35" x="95.410156"/>
      </g>
     </g>
    </g>
    <g id="xtick_7">
     <g id="line2d_7">
      <g>
       <use xlink:href="#m9e8e28cd38" x="344.299299" y="307.584" style="stroke: #000000; stroke-width: 0.8"/>
      </g>
     </g>
     <g id="text_7">
      <!-- 3.0 -->
      <g transform="translate(336.347737 322.182437) scale(0.1 -0.1)">
       <defs>
        <path id="DejaVuSans-33" d="M 2597 2516 
Q 3050 2419 3304 2112 
Q 3559 1806 3559 1356 
Q 3559 666 3084 287 
Q 2609 -91 1734 -91 
Q 1441 -91 1130 -33 
Q 819 25 488 141 
L 488 750 
Q 750 597 1062 519 
Q 1375 441 1716 441 
Q 2309 441 2620 675 
Q 2931 909 2931 1356 
Q 2931 1769 2642 2001 
Q 2353 2234 1838 2234 
L 1294 2234 
L 1294 2753 
L 1863 2753 
Q 2328 2753 2575 2939 
Q 2822 3125 2822 3475 
Q 2822 3834 2567 4026 
Q 2313 4219 1838 4219 
Q 1578 4219 1281 4162 
Q 984 4106 628 3988 
L 628 4550 
Q 988 4650 1302 4700 
Q 1616 4750 1894 4750 
Q 2613 4750 3031 4423 
Q 3450 4097 3450 3541 
Q 3450 3153 3228 2886 
Q 3006 2619 2597 2516 
z
" transform="scale(0.015625)"/>
       </defs>
       <use xlink:href="#DejaVuSans-33"/>
       <use xlink:href="#DejaVuSans-2e" x="63.623047"/>
       <use xlink:href="#DejaVuSans-30" x="95.410156"/>
      </g>
     </g>
    </g>
    <g id="xtick_8">
     <g id="line2d_8">
      <g>
       <use xlink:href="#m9e8e28cd38" x="389.461213" y="307.584" style="stroke: #000000; stroke-width: 0.8"/>
      </g>
     </g>
     <g id="text_8">
      <!-- 3.5 -->
      <g transform="translate(381.50965 322.182437) scale(0.1 -0.1)">
       <use xlink:href="#DejaVuSans-33"/>
       <use xlink:href="#DejaVuSans-2e" x="63.623047"/>
       <use xlink:href="#DejaVuSans-35" x="95.410156"/>
      </g>
     </g>
    </g>
    <g id="text_9">
     <!-- 1e6 -->
     <g transform="translate(395.841875 334.860562) scale(0.1 -0.1)">
      <defs>
       <path id="DejaVuSans-65" d="M 3597 1894 
L 3597 1613 
L 953 1613 
Q 991 1019 1311 708 
Q 1631 397 2203 397 
Q 2534 397 2845 478 
Q 3156 559 3463 722 
L 3463 178 
Q 3153 47 2828 -22 
Q 2503 -91 2169 -91 
Q 1331 -91 842 396 
Q 353 884 353 1716 
Q 353 2575 817 3079 
Q 1281 3584 2069 3584 
Q 2775 3584 3186 3129 
Q 3597 2675 3597 1894 
z
M 3022 2063 
Q 3016 2534 2758 2815 
Q 2500 3097 2075 3097 
Q 1594 3097 1305 2825 
Q 1016 2553 972 2059 
L 3022 2063 
z
" transform="scale(0.015625)"/>
       <path id="DejaVuSans-36" d="M 2113 2584 
Q 1688 2584 1439 2293 
Q 1191 2003 1191 1497 
Q 1191 994 1439 701 
Q 1688 409 2113 409 
Q 2538 409 2786 701 
Q 3034 994 3034 1497 
Q 3034 2003 2786 2293 
Q 2538 2584 2113 2584 
z
M 3366 4563 
L 3366 3988 
Q 3128 4100 2886 4159 
Q 2644 4219 2406 4219 
Q 1781 4219 1451 3797 
Q 1122 3375 1075 2522 
Q 1259 2794 1537 2939 
Q 1816 3084 2150 3084 
Q 2853 3084 3261 2657 
Q 3669 2231 3669 1497 
Q 3669 778 3244 343 
Q 2819 -91 2113 -91 
Q 1303 -91 875 529 
Q 447 1150 447 2328 
Q 447 3434 972 4092 
Q 1497 4750 2381 4750 
Q 2619 4750 2861 4703 
Q 3103 4656 3366 4563 
z
" transform="scale(0.015625)"/>
      </defs>
      <use xlink:href="#DejaVuSans-31"/>
      <use xlink:href="#DejaVuSans-65" x="63.623047"/>
      <use xlink:href="#DejaVuSans-36" x="125.146484"/>
     </g>
    </g>
   </g>
   <g id="matplotlib.axis_2">
    <g id="ytick_1">
     <g id="line2d_9">
      <defs>
       <path id="m66be00c17d" d="M 0 0 
L -3.5 0 
" style="stroke: #000000; stroke-width: 0.8"/>
      </defs>
      <g>
       <use xlink:href="#m66be00c17d" x="57.6" y="295.488" style="stroke: #000000; stroke-width: 0.8"/>
      </g>
     </g>
     <g id="text_10">
      <!-- 0 -->
      <g transform="translate(44.2375 299.287219) scale(0.1 -0.1)">
       <use xlink:href="#DejaVuSans-30"/>
      </g>
     </g>
    </g>
    <g id="ytick_2">
     <g id="line2d_10">
      <g>
       <use xlink:href="#m66be00c17d" x="57.6" y="253.777655" style="stroke: #000000; stroke-width: 0.8"/>
      </g>
     </g>
     <g id="text_11">
      <!-- 5 -->
      <g transform="translate(44.2375 257.576874) scale(0.1 -0.1)">
       <use xlink:href="#DejaVuSans-35"/>
      </g>
     </g>
    </g>
    <g id="ytick_3">
     <g id="line2d_11">
      <g>
       <use xlink:href="#m66be00c17d" x="57.6" y="212.06731" style="stroke: #000000; stroke-width: 0.8"/>
      </g>
     </g>
     <g id="text_12">
      <!-- 10 -->
      <g transform="translate(37.875 215.866529) scale(0.1 -0.1)">
       <use xlink:href="#DejaVuSans-31"/>
       <use xlink:href="#DejaVuSans-30" x="63.623047"/>
      </g>
     </g>
    </g>
    <g id="ytick_4">
     <g id="line2d_12">
      <g>
       <use xlink:href="#m66be00c17d" x="57.6" y="170.356966" style="stroke: #000000; stroke-width: 0.8"/>
      </g>
     </g>
     <g id="text_13">
      <!-- 15 -->
      <g transform="translate(37.875 174.156184) scale(0.1 -0.1)">
       <use xlink:href="#DejaVuSans-31"/>
       <use xlink:href="#DejaVuSans-35" x="63.623047"/>
      </g>
     </g>
    </g>
    <g id="ytick_5">
     <g id="line2d_13">
      <g>
       <use xlink:href="#m66be00c17d" x="57.6" y="128.646621" style="stroke: #000000; stroke-width: 0.8"/>
      </g>
     </g>
     <g id="text_14">
      <!-- 20 -->
      <g transform="translate(37.875 132.445839) scale(0.1 -0.1)">
       <use xlink:href="#DejaVuSans-32"/>
       <use xlink:href="#DejaVuSans-30" x="63.623047"/>
      </g>
     </g>
    </g>
    <g id="ytick_6">
     <g id="line2d_14">
      <g>
       <use xlink:href="#m66be00c17d" x="57.6" y="86.936276" style="stroke: #000000; stroke-width: 0.8"/>
      </g>
     </g>
     <g id="text_15">
      <!-- 25 -->
      <g transform="translate(37.875 90.735495) scale(0.1 -0.1)">
       <use xlink:href="#DejaVuSans-32"/>
       <use xlink:href="#DejaVuSans-35" x="63.623047"/>
      </g>
     </g>
    </g>
    <g id="ytick_7">
     <g id="line2d_15">
      <g>
       <use xlink:href="#m66be00c17d" x="57.6" y="45.225931" style="stroke: #000000; stroke-width: 0.8"/>
      </g>
     </g>
     <g id="text_16">
      <!-- 30 -->
      <g transform="translate(37.875 49.02515) scale(0.1 -0.1)">
       <use xlink:href="#DejaVuSans-33"/>
       <use xlink:href="#DejaVuSans-30" x="63.623047"/>
      </g>
     </g>
    </g>
   </g>
   <g id="line2d_16">
    <path d="M 73.832727 287.145931 
L 74.022407 295.488 
L 74.147957 287.145931 
L 74.338541 295.488 
L 74.462284 287.145931 
L 74.652868 295.488 
L 74.777515 287.145931 
L 74.968098 295.488 
L 75.099067 287.145931 
L 75.289651 295.488 
L 75.414297 287.145931 
L 75.603978 295.488 
L 75.727721 287.145931 
L 75.918304 295.488 
L 76.042048 287.145931 
L 76.231728 295.488 
L 76.362698 287.145931 
L 76.553281 295.488 
L 76.681541 287.145931 
L 76.871221 295.488 
L 76.997674 287.145931 
L 77.188257 295.488 
L 77.314711 287.145931 
L 77.505294 295.488 
L 77.633554 287.145931 
L 77.824137 295.488 
L 77.9533 287.145931 
L 78.143884 295.488 
L 78.273047 287.145931 
L 78.46363 295.488 
L 78.584664 287.145931 
L 78.775247 295.488 
L 84.32384 287.145931 
L 84.445777 262.119724 
L 84.63907 228.751448 
L 84.829653 295.488 
L 84.913654 287.145931 
L 85.103334 295.488 
L 85.221659 287.145931 
L 85.412242 295.488 
L 85.537792 287.145931 
L 85.728375 295.488 
L 85.849409 287.145931 
L 86.039993 295.488 
L 86.168252 287.145931 
L 86.358836 295.488 
L 86.483483 287.145931 
L 86.674066 295.488 
L 86.798713 287.145931 
L 86.989296 295.488 
L 87.119362 287.145931 
L 87.309946 295.488 
L 87.438205 287.145931 
L 87.628789 295.488 
L 87.754339 287.145931 
L 87.944922 295.488 
L 88.073182 287.145931 
L 88.263765 295.488 
L 88.393831 287.145931 
L 88.584415 295.488 
L 88.704545 287.145931 
L 88.895129 295.488 
L 89.014356 287.145931 
L 89.204939 295.488 
L 89.332296 287.145931 
L 89.521976 295.488 
L 89.646623 287.145931 
L 89.836303 295.488 
L 89.95824 287.145931 
L 90.148823 295.488 
L 90.27889 287.145931 
L 90.469473 295.488 
L 90.586894 287.145931 
L 90.777477 295.488 
L 90.901221 287.145931 
L 91.091804 295.488 
L 91.217354 287.145931 
L 91.407938 295.488 
L 91.540714 287.145931 
L 91.731297 295.488 
L 91.855041 287.145931 
L 92.045624 295.488 
L 92.167561 287.145931 
L 92.358144 295.488 
L 92.478275 287.145931 
L 92.668858 295.488 
L 92.793505 287.145931 
L 92.983185 295.488 
L 93.108735 287.145931 
L 93.298415 295.488 
L 93.419449 287.145931 
L 93.610033 295.488 
L 93.733776 287.145931 
L 93.924359 295.488 
L 94.053522 287.145931 
L 94.244106 295.488 
L 94.372366 287.145931 
L 94.562949 295.488 
L 94.685789 287.145931 
L 94.875469 295.488 
L 95.004632 287.145931 
L 95.195216 295.488 
L 95.319863 287.145931 
L 95.510446 295.488 
L 95.638706 287.145931 
L 95.829289 295.488 
L 95.952129 287.145931 
L 96.270069 278.803862 
L 96.460652 295.488 
L 96.590719 287.145931 
L 96.781302 295.488 
L 96.901433 287.145931 
L 97.092016 295.488 
L 97.214856 287.145931 
L 97.404536 295.488 
L 97.530087 287.145931 
L 97.72067 295.488 
L 97.84622 287.145931 
L 98.036803 295.488 
L 98.163257 287.145931 
L 98.35384 295.488 
L 98.487519 287.145931 
L 98.678102 295.488 
L 98.809072 287.145931 
L 98.999655 295.488 
L 99.125205 287.145931 
L 99.315789 295.488 
L 99.434113 287.145931 
L 99.624696 295.488 
L 99.75115 287.145931 
L 99.941733 295.488 
L 100.069089 287.145931 
L 100.259673 295.488 
L 100.380707 287.145931 
L 100.57129 295.488 
L 100.698646 287.145931 
L 100.88923 295.488 
L 101.012973 287.145931 
L 101.203557 295.488 
L 101.334526 287.145931 
L 101.525109 295.488 
L 101.652466 287.145931 
L 101.843049 295.488 
L 101.968599 287.145931 
L 102.159183 295.488 
L 102.284733 287.145931 
L 102.475316 295.488 
L 102.60177 287.145931 
L 102.79145 295.488 
L 102.917903 287.145931 
L 103.108486 295.488 
L 103.22952 287.145931 
L 103.420103 295.488 
L 103.546557 287.145931 
L 103.73714 295.488 
L 103.869916 287.145931 
L 104.059596 295.488 
L 104.188759 287.145931 
L 104.379342 295.488 
L 104.503086 287.145931 
L 104.693669 295.488 
L 104.812897 287.145931 
L 105.002577 295.488 
L 105.13174 287.145931 
L 105.322323 295.488 
L 105.446067 287.145931 
L 105.63665 295.488 
L 105.755878 287.145931 
L 105.945558 295.488 
L 106.072011 287.145931 
L 106.262594 295.488 
L 106.380918 287.145931 
L 106.571502 295.488 
L 106.693439 287.145931 
L 106.884022 295.488 
L 107.006863 287.145931 
L 107.197446 295.488 
L 107.322996 287.145931 
L 107.513579 295.488 
L 107.634613 287.145931 
L 107.824293 295.488 
L 107.948037 287.145931 
L 108.13862 295.488 
L 108.26688 287.145931 
L 108.457463 295.488 
L 108.58482 287.145931 
L 108.7745 295.488 
L 108.895534 287.145931 
L 109.086117 295.488 
L 109.21799 287.145931 
L 109.408573 295.488 
L 109.534123 287.145931 
L 109.724707 295.488 
L 109.856579 287.145931 
L 110.047163 295.488 
L 110.172713 287.145931 
L 110.363296 295.488 
L 111.317116 287.145931 
L 111.504989 295.488 
L 111.542022 287.145931 
L 111.730799 295.488 
L 111.771444 287.145931 
L 111.959318 295.488 
L 111.994544 287.145931 
L 112.183321 295.488 
L 112.218547 287.145931 
L 112.407324 295.488 
L 112.447067 287.145931 
L 112.63494 295.488 
L 112.676489 287.145931 
L 112.864363 295.488 
L 112.900492 287.145931 
L 113.089269 295.488 
L 113.121786 287.145931 
L 113.310562 295.488 
L 113.347595 287.145931 
L 113.535469 295.488 
L 113.575211 287.145931 
L 113.763988 295.488 
L 113.796505 287.145931 
L 113.985281 295.488 
L 114.02683 287.145931 
L 114.215607 295.488 
L 114.25264 287.145931 
L 114.441417 295.488 
L 114.482966 287.145931 
L 114.670839 295.488 
L 114.711485 287.145931 
L 114.900262 295.488 
L 114.937295 287.145931 
L 115.125168 295.488 
L 115.163104 287.145931 
L 115.351881 295.488 
L 115.389817 287.145931 
L 115.578594 295.488 
L 115.620143 287.145931 
L 115.80892 295.488 
L 115.845952 287.145931 
L 116.033826 295.488 
L 116.078085 287.145931 
L 116.266861 295.488 
L 116.30841 287.145931 
L 116.497187 295.488 
L 116.53151 287.145931 
L 119.458002 178.699034 
L 127.534759 187.041103 
L 127.672051 178.699034 
L 127.792182 187.041103 
L 127.905086 145.330759 
L 128.013475 95.278345 
L 128.040572 120.304552 
L 128.207671 253.777655 
L 128.260962 278.803862 
L 128.432578 295.488 
L 128.47232 287.145931 
L 128.661097 295.488 
L 128.703549 287.145931 
L 128.892326 295.488 
L 128.931165 287.145931 
L 129.119039 295.488 
L 129.161491 287.145931 
L 129.350268 295.488 
L 129.389107 287.145931 
L 129.577884 295.488 
L 129.61582 287.145931 
L 129.804597 295.488 
L 129.845242 287.145931 
L 130.034019 295.488 
L 130.071955 287.145931 
L 130.259829 295.488 
L 130.300474 287.145931 
L 130.489251 295.488 
L 130.52809 287.145931 
L 130.715964 295.488 
L 130.755706 287.145931 
L 130.944483 295.488 
L 130.981516 287.145931 
L 131.170293 295.488 
L 131.203713 287.145931 
L 131.391586 295.488 
L 131.429522 287.145931 
L 131.618299 295.488 
L 131.656235 287.145931 
L 131.845012 295.488 
L 131.880238 287.145931 
L 132.068112 295.488 
L 132.099725 287.145931 
L 132.321018 278.803862 
L 132.483601 287.145931 
L 132.509795 295.488 
L 132.547731 287.145931 
L 132.736508 295.488 
L 132.766315 287.145931 
L 135.475126 187.041103 
L 135.912294 178.699034 
L 138.373618 187.041103 
L 138.512717 178.699034 
L 138.631944 187.041103 
L 138.678913 178.699034 
L 138.705107 195.383172 
L 138.840592 212.06731 
L 138.935432 278.803862 
L 139.063692 295.488 
L 139.099822 287.145931 
L 139.287695 295.488 
L 139.325631 287.145931 
L 139.513505 295.488 
L 139.554151 287.145931 
L 139.742024 295.488 
L 139.77725 287.145931 
L 139.966027 295.488 
L 140.00035 287.145931 
L 140.188224 295.488 
L 140.22616 287.145931 
L 140.414937 295.488 
L 140.457389 287.145931 
L 140.645262 295.488 
L 140.685005 287.145931 
L 140.873782 295.488 
L 140.913524 287.145931 
L 141.102301 295.488 
L 141.135721 287.145931 
L 141.323594 295.488 
L 141.357014 287.145931 
L 141.544888 295.488 
L 141.581017 287.145931 
L 141.768891 295.488 
L 141.81044 287.145931 
L 141.999217 295.488 
L 142.037153 287.145931 
L 142.225026 295.488 
L 142.260252 287.145931 
L 142.448126 295.488 
L 142.486965 287.145931 
L 142.675742 295.488 
L 142.712775 287.145931 
L 142.901552 295.488 
L 142.944004 287.145931 
L 143.131877 295.488 
L 143.17162 287.145931 
L 143.359493 295.488 
L 143.398333 287.145931 
L 143.586206 295.488 
L 143.624142 287.145931 
L 143.812016 295.488 
L 149.272091 287.145931 
L 149.417512 278.803862 
L 149.647838 170.356966 
L 149.673129 187.041103 
L 149.85468 295.488 
L 149.905261 287.145931 
L 150.094038 295.488 
L 150.128361 287.145931 
L 150.317138 295.488 
L 150.357783 287.145931 
L 150.54656 295.488 
L 150.58269 287.145931 
L 150.770563 295.488 
L 150.806693 287.145931 
L 150.99547 295.488 
L 151.034309 287.145931 
L 151.222183 295.488 
L 151.259215 287.145931 
L 151.447089 295.488 
L 151.485025 287.145931 
L 151.673802 295.488 
L 151.715351 287.145931 
L 151.904127 295.488 
L 151.942063 287.145931 
L 152.13084 295.488 
L 152.163357 287.145931 
L 152.35123 295.488 
L 152.389166 287.145931 
L 152.577943 295.488 
L 152.618589 287.145931 
L 152.807366 295.488 
L 152.839882 287.145931 
L 153.027756 295.488 
L 153.064789 287.145931 
L 153.253565 295.488 
L 153.287888 287.145931 
L 153.476665 295.488 
L 153.517311 287.145931 
L 153.705185 295.488 
L 153.741314 287.145931 
L 153.930091 295.488 
L 153.96622 287.145931 
L 154.154094 295.488 
L 154.190223 287.145931 
L 154.379 295.488 
L 154.41784 287.145931 
L 154.606616 295.488 
L 154.644552 287.145931 
L 154.833329 295.488 
L 154.870362 287.145931 
L 155.059139 295.488 
L 155.097978 287.145931 
L 155.285852 295.488 
L 155.321981 287.145931 
L 155.509855 295.488 
L 155.543274 287.145931 
L 155.732051 295.488 
L 155.769084 287.145931 
L 155.957861 295.488 
L 155.99399 287.145931 
L 156.182767 295.488 
L 156.223413 287.145931 
L 156.411286 295.488 
L 156.452835 287.145931 
L 156.641612 295.488 
L 156.683161 287.145931 
L 156.871035 295.488 
L 156.907164 287.145931 
L 157.095941 295.488 
L 157.133877 287.145931 
L 157.322654 295.488 
L 157.358783 287.145931 
L 157.546657 295.488 
L 157.58369 287.145931 
L 157.771563 295.488 
L 157.812209 287.145931 
L 158.000083 295.488 
L 158.038922 287.145931 
L 158.226795 295.488 
L 158.264731 287.145931 
L 158.453508 295.488 
L 158.490541 287.145931 
L 158.678414 295.488 
L 158.718157 287.145931 
L 158.906934 295.488 
L 158.948483 287.145931 
L 159.137259 295.488 
L 159.171583 287.145931 
L 159.359456 295.488 
L 159.401908 287.145931 
L 159.589782 295.488 
L 159.626815 287.145931 
L 159.815591 295.488 
L 159.851721 287.145931 
L 160.039595 295.488 
L 160.082047 287.145931 
L 160.270824 295.488 
L 160.30334 287.145931 
L 160.491214 295.488 
L 160.52915 287.145931 
L 160.717926 295.488 
L 160.754056 287.145931 
L 160.94193 295.488 
L 160.982575 287.145931 
L 161.171352 295.488 
L 161.208385 287.145931 
L 161.396258 295.488 
L 161.436001 287.145931 
L 161.623874 295.488 
L 161.659101 287.145931 
L 161.846974 295.488 
L 161.881297 287.145931 
L 162.069171 295.488 
L 162.106204 287.145931 
L 162.294077 295.488 
L 162.332013 287.145931 
L 162.52079 295.488 
L 162.558726 287.145931 
L 162.747503 295.488 
L 162.789052 287.145931 
L 162.976925 295.488 
L 163.013958 287.145931 
L 163.202735 295.488 
L 163.233445 287.145931 
L 163.422222 295.488 
L 163.459255 287.145931 
L 163.648031 295.488 
L 163.683258 287.145931 
L 163.871131 295.488 
L 163.906358 287.145931 
L 164.094231 295.488 
L 164.130361 287.145931 
L 164.318234 295.488 
L 164.359783 287.145931 
L 164.54856 295.488 
L 164.581077 287.145931 
L 164.769853 295.488 
L 164.808693 287.145931 
L 164.997469 295.488 
L 165.027276 287.145931 
L 165.216053 295.488 
L 165.254892 287.145931 
L 165.442766 295.488 
L 165.481605 287.145931 
L 165.669479 295.488 
L 165.706511 287.145931 
L 165.895288 295.488 
L 165.930515 287.145931 
L 166.118388 295.488 
L 166.152711 287.145931 
L 166.341488 295.488 
L 166.378521 287.145931 
L 166.566394 295.488 
L 166.602524 287.145931 
L 166.791301 295.488 
L 166.831946 287.145931 
L 167.01982 295.488 
L 167.060466 287.145931 
L 167.248339 295.488 
L 167.283565 287.145931 
L 167.472342 295.488 
L 167.509375 287.145931 
L 167.698152 295.488 
L 167.734281 287.145931 
L 167.923058 295.488 
L 167.960091 287.145931 
L 168.147965 295.488 
L 168.179578 287.145931 
L 168.367451 295.488 
L 168.403581 287.145931 
L 168.591455 295.488 
L 168.627584 287.145931 
L 168.816361 295.488 
L 168.857007 287.145931 
L 169.04488 295.488 
L 169.083719 287.145931 
L 169.271593 295.488 
L 169.30411 287.145931 
L 169.492886 295.488 
L 169.535338 287.145931 
L 169.724115 295.488 
L 169.762051 287.145931 
L 169.950828 295.488 
L 169.986958 287.145931 
L 170.175734 295.488 
L 170.210961 287.145931 
L 170.398834 295.488 
L 170.435867 287.145931 
L 170.624644 295.488 
L 170.66529 287.145931 
L 170.853163 295.488 
L 176.310529 287.145931 
L 176.499306 295.488 
L 176.751309 178.699034 
L 176.77118 195.383172 
L 176.939183 295.488 
L 176.975312 287.145931 
L 177.164089 295.488 
L 177.198412 287.145931 
L 177.387189 295.488 
L 177.421512 287.145931 
L 177.609385 295.488 
L 177.645515 287.145931 
L 177.833389 295.488 
L 177.864099 287.145931 
L 178.052875 295.488 
L 178.089005 287.145931 
L 178.277782 295.488 
L 178.315718 287.145931 
L 178.504495 295.488 
L 178.539721 287.145931 
L 178.727594 295.488 
L 178.761917 287.145931 
L 178.949791 295.488 
L 178.985017 287.145931 
L 179.173794 295.488 
L 179.215343 287.145931 
L 179.40412 295.488 
L 179.447475 287.145931 
L 179.635349 295.488 
L 179.675995 287.145931 
L 179.864771 295.488 
L 179.900901 287.145931 
L 180.089678 295.488 
L 180.125807 287.145931 
L 180.314584 295.488 
L 180.348004 287.145931 
L 180.535877 295.488 
L 180.57833 287.145931 
L 180.766203 295.488 
L 180.806849 287.145931 
L 180.994722 295.488 
L 181.029046 287.145931 
L 181.217822 295.488 
L 187.369778 287.145931 
L 187.559458 295.488 
L 187.716622 253.777655 
L 187.83043 237.093517 
L 187.850301 245.435586 
L 188.021013 295.488 
L 188.170047 287.145931 
L 188.360631 295.488 
L 188.482568 287.145931 
L 188.673151 295.488 
L 188.800508 287.145931 
L 188.991091 295.488 
L 189.114835 287.145931 
L 189.305418 295.488 
L 189.421032 287.145931 
L 189.611616 295.488 
L 189.73265 287.145931 
L 189.92233 295.488 
L 190.038847 287.145931 
L 190.228527 295.488 
L 190.350465 287.145931 
L 190.541048 295.488 
L 190.671114 287.145931 
L 190.860794 295.488 
L 190.983635 287.145931 
L 191.174218 295.488 
L 191.290736 287.145931 
L 191.481319 295.488 
L 191.599643 287.145931 
L 191.790226 295.488 
L 191.915776 287.145931 
L 192.105456 295.488 
L 192.224684 287.145931 
L 192.538108 278.803862 
L 192.728691 295.488 
L 192.856047 287.145931 
L 193.046631 295.488 
L 193.175794 287.145931 
L 193.366377 295.488 
L 193.484701 287.145931 
L 193.675285 295.488 
L 193.796319 287.145931 
L 193.986902 295.488 
L 194.110645 287.145931 
L 194.301229 295.488 
L 194.419553 287.145931 
L 194.610136 295.488 
L 194.742912 287.145931 
L 194.933496 295.488 
L 195.062659 287.145931 
L 195.252339 295.488 
L 195.376082 287.145931 
L 195.566666 295.488 
L 195.694022 287.145931 
L 195.884605 295.488 
L 202.013077 287.145931 
L 202.20366 295.488 
L 202.330114 287.145931 
L 202.520697 295.488 
L 202.648957 287.145931 
L 202.83954 295.488 
L 202.959671 287.145931 
L 203.150254 295.488 
L 203.283933 287.145931 
L 203.474517 295.488 
L 203.596454 287.145931 
L 203.787037 295.488 
L 203.919813 287.145931 
L 204.109493 295.488 
L 204.241366 287.145931 
L 204.431949 295.488 
L 204.556596 287.145931 
L 204.747179 295.488 
L 204.871826 287.145931 
L 205.062409 295.488 
L 205.184347 287.145931 
L 205.37493 295.488 
L 205.504996 287.145931 
L 205.69558 295.488 
L 205.822033 287.145931 
L 206.012616 295.488 
L 206.134553 287.145931 
L 206.325137 295.488 
L 206.45159 287.145931 
L 206.642173 295.488 
L 206.774046 287.145931 
L 206.964629 295.488 
L 207.092889 287.145931 
L 207.283472 295.488 
L 207.410829 287.145931 
L 207.601412 295.488 
L 207.728769 287.145931 
L 207.919352 295.488 
L 208.044902 287.145931 
L 208.234582 295.488 
L 208.365552 287.145931 
L 208.556135 295.488 
L 208.682588 287.145931 
L 208.872269 295.488 
L 214.424474 287.145931 
L 214.706285 228.751448 
L 214.727059 237.093517 
L 214.896868 295.488 
L 215.013386 287.145931 
L 215.203969 295.488 
L 215.337648 287.145931 
L 215.528231 295.488 
L 215.644749 287.145931 
L 215.834429 295.488 
L 215.959979 287.145931 
L 216.150563 295.488 
L 216.266177 287.145931 
L 216.45676 295.488 
L 216.580504 287.145931 
L 216.771087 295.488 
L 216.901154 287.145931 
L 217.091737 295.488 
L 217.219093 287.145931 
L 217.409677 295.488 
L 217.529807 287.145931 
L 217.720391 295.488 
L 217.846844 287.145931 
L 218.037427 295.488 
L 218.164784 287.145931 
L 218.355367 295.488 
L 218.472788 287.145931 
L 218.663371 295.488 
L 218.785309 287.145931 
L 218.975892 295.488 
L 219.098732 287.145931 
L 219.289316 295.488 
L 219.417575 287.145931 
L 219.607255 295.488 
L 219.732806 287.145931 
L 221.637735 237.093517 
L 225.086299 245.435586 
L 225.197397 237.093517 
L 225.248882 245.435586 
L 225.274172 228.751448 
L 225.284108 237.093517 
L 225.411465 203.725241 
L 225.417787 212.06731 
L 225.658952 295.488 
L 225.727598 287.145931 
L 225.918181 295.488 
L 226.039215 287.145931 
L 226.229798 295.488 
L 226.354445 287.145931 
L 226.678708 278.803862 
L 226.868388 295.488 
L 226.997551 287.145931 
L 227.188134 295.488 
L 227.315491 287.145931 
L 227.506074 295.488 
L 228.939513 287.145931 
L 229.120161 278.803862 
L 229.12829 287.145931 
L 229.299002 278.803862 
L 229.308034 287.145931 
L 229.478746 278.803862 
L 229.486876 287.145931 
L 229.659394 278.803862 
L 229.667523 287.145931 
L 229.837332 278.803862 
L 229.848171 287.145931 
L 230.016173 278.803862 
L 230.026109 287.145931 
L 230.195918 278.803862 
L 230.204047 287.145931 
L 230.377469 278.803862 
L 230.384694 287.145931 
L 233.266025 153.672828 
L 235.913416 145.330759 
L 236.025417 153.672828 
L 236.054321 145.330759 
L 236.105806 178.699034 
L 236.168129 170.356966 
L 236.241291 195.383172 
L 236.356003 278.803862 
L 236.432778 287.145931 
L 236.531231 278.803862 
L 236.534844 287.145931 
L 236.709169 278.803862 
L 236.719104 287.145931 
L 236.887107 278.803862 
L 236.897042 287.145931 
L 237.070464 278.803862 
L 237.075884 287.145931 
L 237.250209 278.803862 
L 237.258338 287.145931 
L 237.430856 278.803862 
L 237.438082 287.145931 
L 237.607891 278.803862 
L 237.61873 287.145931 
L 237.791248 278.803862 
L 237.795765 287.145931 
L 237.969186 278.803862 
L 237.980025 287.145931 
L 238.148027 278.803862 
L 238.15706 287.145931 
L 238.327772 278.803862 
L 238.336804 287.145931 
L 238.512032 278.803862 
L 238.515645 287.145931 
L 238.68997 278.803862 
L 238.699906 287.145931 
L 238.872425 278.803862 
L 238.878747 287.145931 
L 239.049459 278.803862 
L 239.060298 287.145931 
L 239.224687 278.803862 
L 239.237333 287.145931 
L 239.405335 278.803862 
L 239.412561 287.145931 
L 239.588692 278.803862 
L 239.593209 287.145931 
L 239.76663 278.803862 
L 239.776566 287.145931 
L 239.950891 278.803862 
L 239.954504 287.145931 
L 240.131539 278.803862 
L 240.138765 287.145931 
L 240.319412 295.488 
L 281.284881 287.145931 
L 281.462819 278.803862 
L 281.472754 287.145931 
L 281.640757 278.803862 
L 281.650692 287.145931 
L 281.817791 278.803862 
L 281.82863 287.145931 
L 281.998439 278.803862 
L 282.006568 287.145931 
L 282.174571 278.803862 
L 282.186313 287.145931 
L 282.355218 278.803862 
L 282.362444 287.145931 
L 282.53135 278.803862 
L 282.543092 287.145931 
L 282.712901 278.803862 
L 282.719223 287.145931 
L 282.889032 278.803862 
L 282.900774 287.145931 
L 283.067873 278.803862 
L 283.076906 287.145931 
L 283.251231 278.803862 
L 283.25665 287.145931 
L 283.432781 278.803862 
L 283.439104 287.145931 
L 283.614332 278.803862 
L 283.620655 287.145931 
L 283.791367 278.803862 
L 283.802206 287.145931 
L 283.972918 278.803862 
L 283.979241 287.145931 
L 284.154469 278.803862 
L 284.160792 287.145931 
L 284.337826 278.803862 
L 284.343246 287.145931 
L 284.522087 278.803862 
L 284.5257 287.145931 
L 284.705444 278.803862 
L 284.70996 287.145931 
L 284.886995 278.803862 
L 284.894221 287.145931 
L 285.069449 278.803862 
L 285.074869 287.145931 
L 285.250097 278.803862 
L 285.258226 287.145931 
L 285.428938 278.803862 
L 285.43797 287.145931 
L 285.607779 278.803862 
L 285.616812 287.145931 
L 285.79204 278.803862 
L 285.795653 287.145931 
L 285.973591 278.803862 
L 285.980817 287.145931 
L 286.153335 278.803862 
L 286.161464 287.145931 
L 286.33308 278.803862 
L 286.341209 287.145931 
L 286.51463 278.803862 
L 286.520953 287.145931 
L 286.692568 278.803862 
L 286.703407 287.145931 
L 286.8687 278.803862 
L 286.880442 287.145931 
L 287.051154 278.803862 
L 287.056573 287.145931 
L 287.229995 278.803862 
L 287.239028 287.145931 
L 287.411546 278.803862 
L 287.418772 287.145931 
L 287.59671 278.803862 
L 287.600323 287.145931 
L 287.778261 278.803862 
L 287.784583 287.145931 
L 287.960715 278.803862 
L 287.966134 287.145931 
L 288.141363 278.803862 
L 288.149492 287.145931 
L 288.323817 278.803862 
L 288.330139 287.145931 
L 288.507174 278.803862 
L 288.51169 287.145931 
L 288.685112 278.803862 
L 288.695048 287.145931 
L 288.869373 278.803862 
L 288.873889 287.145931 
L 289.047311 278.803862 
L 289.057246 287.145931 
L 289.229765 278.803862 
L 289.235184 287.145931 
L 289.410412 278.803862 
L 289.417638 287.145931 
L 289.59377 278.803862 
L 289.598286 287.145931 
L 289.768998 278.803862 
L 289.781643 287.145931 
L 289.952355 278.803862 
L 289.957775 287.145931 
L 292.476906 170.356966 
L 292.841815 153.672828 
L 306.37413 162.014897 
L 306.506003 153.672828 
L 306.614392 145.330759 
L 306.699296 153.672828 
L 306.711038 136.98869 
L 306.891686 53.568 
L 307.056979 220.409379 
L 307.149109 287.145931 
L 307.271046 278.803862 
L 307.280078 287.145931 
L 307.4535 278.803862 
L 307.45892 287.145931 
L 307.636858 278.803862 
L 307.641374 287.145931 
L 307.812086 278.803862 
L 307.824731 287.145931 
L 307.993637 278.803862 
L 307.999959 287.145931 
L 308.174284 278.803862 
L 308.18151 287.145931 
L 308.355835 278.803862 
L 308.362158 287.145931 
L 308.538289 278.803862 
L 308.543709 287.145931 
L 308.71984 278.803862 
L 308.726163 287.145931 
L 308.901391 278.803862 
L 308.907714 287.145931 
L 309.085652 278.803862 
L 309.089265 287.145931 
L 309.267203 278.803862 
L 309.274428 287.145931 
L 309.451463 278.803862 
L 309.455076 287.145931 
L 309.627595 278.803862 
L 309.639337 287.145931 
L 309.810049 278.803862 
L 309.816371 287.145931 
L 309.987083 278.803862 
L 309.997922 287.145931 
L 310.171344 278.803862 
L 310.174957 287.145931 
L 310.351992 278.803862 
L 310.359218 287.145931 
L 310.52993 278.803862 
L 310.539865 287.145931 
L 310.706964 278.803862 
L 310.717803 287.145931 
L 310.889419 278.803862 
L 310.894838 287.145931 
L 311.070066 278.803862 
L 311.077292 287.145931 
L 311.248004 278.803862 
L 311.25794 287.145931 
L 311.430458 278.803862 
L 311.435878 287.145931 
L 311.612009 278.803862 
L 311.618332 287.145931 
L 311.788141 278.803862 
L 311.799883 287.145931 
L 311.966079 278.803862 
L 311.976014 287.145931 
L 312.147629 278.803862 
L 312.154855 287.145931 
L 312.323761 278.803862 
L 312.335503 287.145931 
L 312.507118 278.803862 
L 312.511634 287.145931 
L 312.689572 278.803862 
L 312.694992 287.145931 
L 312.874736 278.803862 
L 312.878349 287.145931 
L 313.054481 278.803862 
L 313.06261 287.145931 
L 313.237838 278.803862 
L 313.242354 287.145931 
L 313.418486 278.803862 
L 313.425712 287.145931 
L 313.779781 270.461793 
L 313.803265 287.145931 
L 313.962235 278.803862 
L 313.967655 287.145931 
L 314.138367 278.803862 
L 314.150109 287.145931 
L 314.317208 278.803862 
L 314.32624 287.145931 
L 314.496952 278.803862 
L 314.505081 287.145931 
L 314.679406 278.803862 
L 314.685729 287.145931 
L 314.859151 278.803862 
L 314.86728 287.145931 
L 315.037089 278.803862 
L 315.047024 287.145931 
L 315.216833 278.803862 
L 315.225865 287.145931 
L 315.393868 278.803862 
L 315.404707 287.145931 
L 315.577225 278.803862 
L 315.581741 287.145931 
L 315.75697 278.803862 
L 315.765099 287.145931 
L 315.939424 278.803862 
L 315.944843 287.145931 
L 316.123684 278.803862 
L 316.127297 287.145931 
L 316.304332 278.803862 
L 316.312461 287.145931 
L 316.484076 278.803862 
L 316.492206 287.145931 
L 316.665627 278.803862 
L 316.672853 287.145931 
L 316.847178 278.803862 
L 316.853501 287.145931 
L 317.026923 278.803862 
L 317.035052 287.145931 
L 319.912769 153.672828 
L 322.632419 162.014897 
L 322.766099 153.672828 
L 322.87539 145.330759 
L 322.959392 170.356966 
L 322.998231 162.014897 
L 323.090361 178.699034 
L 323.297203 287.145931 
L 323.362236 278.803862 
L 323.367655 287.145931 
L 323.545593 278.803862 
L 323.550109 287.145931 
L 323.728047 278.803862 
L 323.733467 287.145931 
L 323.913211 278.803862 
L 323.916824 287.145931 
L 324.093859 278.803862 
L 324.101085 287.145931 
L 324.2727 278.803862 
L 324.282636 287.145931 
L 324.452444 278.803862 
L 324.460574 287.145931 
L 324.634899 278.803862 
L 324.640318 287.145931 
L 324.819159 278.803862 
L 324.823675 287.145931 
L 324.998904 278.803862 
L 325.007033 287.145931 
L 325.178648 278.803862 
L 325.186777 287.145931 
L 325.361102 278.803862 
L 325.366522 287.145931 
L 325.539943 278.803862 
L 325.549879 287.145931 
L 325.722397 278.803862 
L 325.727817 287.145931 
L 325.904852 278.803862 
L 325.911174 287.145931 
L 326.081886 278.803862 
L 326.093628 287.145931 
L 326.26434 278.803862 
L 326.26976 287.145931 
L 326.447698 278.803862 
L 326.452214 287.145931 
L 326.625636 278.803862 
L 326.635571 287.145931 
L 326.80538 278.803862 
L 326.813509 287.145931 
L 327.174805 270.461793 
L 327.19016 287.145931 
L 327.355452 278.803862 
L 327.362678 287.145931 
L 327.540616 278.803862 
L 327.543326 287.145931 
L 327.723973 278.803862 
L 327.729393 287.145931 
L 327.904621 278.803862 
L 327.911847 287.145931 
L 328.082559 278.803862 
L 328.093398 287.145931 
L 328.26411 278.803862 
L 328.270433 287.145931 
L 328.447467 278.803862 
L 328.451984 287.145931 
L 328.631728 278.803862 
L 328.635341 287.145931 
L 328.812376 278.803862 
L 328.819601 287.145931 
L 328.98941 278.803862 
L 329.000249 287.145931 
L 329.170961 278.803862 
L 329.177284 287.145931 
L 329.348899 278.803862 
L 329.358835 287.145931 
L 329.529547 278.803862 
L 329.536773 287.145931 
L 329.712001 278.803862 
L 329.718324 287.145931 
L 329.889036 278.803862 
L 329.899874 287.145931 
L 330.069683 278.803862 
L 330.076909 287.145931 
L 330.249428 278.803862 
L 330.25846 287.145931 
L 330.433688 278.803862 
L 330.438204 287.145931 
L 330.610723 278.803862 
L 330.622465 287.145931 
L 330.79408 278.803862 
L 330.798597 287.145931 
L 330.972018 278.803862 
L 330.981954 287.145931 
L 331.150859 278.803862 
L 331.159892 287.145931 
L 331.329701 278.803862 
L 331.338733 287.145931 
L 331.506735 278.803862 
L 331.517574 287.145931 
L 331.687383 278.803862 
L 331.694609 287.145931 
L 331.865321 278.803862 
L 331.875257 287.145931 
L 332.043259 278.803862 
L 332.053195 287.145931 
L 332.2221 278.803862 
L 332.232036 287.145931 
L 332.399135 278.803862 
L 332.410877 287.145931 
L 332.580686 278.803862 
L 332.587008 287.145931 
L 332.764946 278.803862 
L 332.769462 287.145931 
L 332.949207 278.803862 
L 332.95282 287.145931 
L 333.128048 278.803862 
L 333.137984 287.145931 
L 333.307792 278.803862 
L 333.315922 287.145931 
L 333.484827 278.803862 
L 333.495666 287.145931 
L 333.667281 278.803862 
L 333.672701 287.145931 
L 333.846122 278.803862 
L 333.855155 287.145931 
L 334.02677 278.803862 
L 334.033996 287.145931 
L 334.210127 278.803862 
L 334.214644 287.145931 
L 334.390775 278.803862 
L 334.398001 287.145931 
L 334.575036 278.803862 
L 334.578649 287.145931 
L 334.756587 278.803862 
L 334.763813 287.145931 
L 334.935428 278.803862 
L 334.94446 287.145931 
L 335.116075 278.803862 
L 335.123301 287.145931 
L 335.294917 278.803862 
L 335.304852 287.145931 
L 335.472855 278.803862 
L 335.48279 287.145931 
L 335.654405 278.803862 
L 335.661631 287.145931 
L 335.830537 278.803862 
L 335.842279 287.145931 
L 336.014798 278.803862 
L 336.019314 287.145931 
L 336.196348 278.803862 
L 336.202671 287.145931 
L 336.37519 278.803862 
L 336.384222 287.145931 
L 336.555837 278.803862 
L 336.563063 287.145931 
L 336.733775 278.803862 
L 336.743711 287.145931 
L 336.909003 278.803862 
L 336.922552 287.145931 
L 337.089651 278.803862 
L 337.096877 287.145931 
L 337.273008 278.803862 
L 337.277525 287.145931 
L 337.450946 278.803862 
L 337.460882 287.145931 
L 337.633401 278.803862 
L 337.63882 287.145931 
L 337.815855 278.803862 
L 337.821274 287.145931 
L 338.001019 278.803862 
L 338.004631 287.145931 
L 338.184376 278.803862 
L 338.188892 287.145931 
L 338.365024 278.803862 
L 338.372249 287.145931 
L 338.546574 278.803862 
L 338.552897 287.145931 
L 338.730835 278.803862 
L 338.734448 287.145931 
L 338.915096 278.803862 
L 338.918709 287.145931 
L 339.099356 278.803862 
L 339.102969 287.145931 
L 339.280907 278.803862 
L 339.28723 287.145931 
L 339.461555 278.803862 
L 339.468781 287.145931 
L 339.644009 278.803862 
L 339.650332 287.145931 
L 339.824657 278.803862 
L 339.831883 287.145931 
L 340.003498 278.803862 
L 340.01253 287.145931 
L 340.182339 278.803862 
L 340.191371 287.145931 
L 340.36389 278.803862 
L 340.370213 287.145931 
L 340.547247 278.803862 
L 340.551763 287.145931 
L 340.727895 278.803862 
L 340.735121 287.145931 
L 340.909446 278.803862 
L 340.916672 287.145931 
L 341.08919 278.803862 
L 341.097319 287.145931 
L 341.277064 295.488 
L 342.536178 287.145931 
L 342.726761 295.488 
L 342.857731 287.145931 
L 343.048314 295.488 
L 343.179284 287.145931 
L 343.369867 295.488 
L 343.491804 287.145931 
L 343.681484 295.488 
L 343.800711 287.145931 
L 343.991295 295.488 
L 344.110522 287.145931 
L 344.301105 295.488 
L 344.424849 287.145931 
L 344.615432 295.488 
L 344.747305 287.145931 
L 344.937888 295.488 
L 345.066148 287.145931 
L 345.256732 295.488 
L 345.384088 287.145931 
L 345.574671 295.488 
L 345.699318 287.145931 
L 345.889902 295.488 
L 346.015452 287.145931 
L 346.205132 295.488 
L 346.326166 287.145931 
L 346.515846 295.488 
L 346.645912 287.145931 
L 346.836495 295.488 
L 346.953916 287.145931 
L 347.1445 295.488 
L 347.268243 287.145931 
L 347.458826 295.488 
L 347.587086 287.145931 
L 347.776766 295.488 
L 347.895091 287.145931 
L 348.085674 295.488 
L 348.214837 287.145931 
L 348.40542 295.488 
L 348.534583 287.145931 
L 348.725167 295.488 
L 348.853426 287.145931 
L 349.04401 295.488 
L 349.16685 287.145931 
L 349.357433 295.488 
L 349.485693 287.145931 
L 349.676276 295.488 
L 349.800923 287.145931 
L 349.991507 295.488 
L 350.116153 287.145931 
L 350.306737 295.488 
L 350.431384 287.145931 
L 350.621967 295.488 
L 350.754743 287.145931 
L 350.945326 295.488 
L 351.067263 287.145931 
L 351.257847 295.488 
L 351.38701 287.145931 
L 351.577593 295.488 
L 351.708563 287.145931 
L 351.899146 295.488 
L 352.028309 287.145931 
L 352.218892 295.488 
L 352.343539 287.145931 
L 352.534122 295.488 
L 352.661479 287.145931 
L 352.982129 278.803862 
L 353.172712 295.488 
L 353.297359 287.145931 
L 353.487942 295.488 
L 353.608073 287.145931 
L 353.798656 295.488 
L 353.923303 287.145931 
L 354.113886 295.488 
L 354.23763 287.145931 
L 354.428213 295.488 
L 354.559183 287.145931 
L 354.749766 295.488 
L 354.880735 287.145931 
L 355.071319 295.488 
L 355.189643 287.145931 
L 355.380226 295.488 
L 355.507583 287.145931 
L 355.697263 295.488 
L 355.818297 287.145931 
L 356.007977 295.488 
L 356.135333 287.145931 
L 356.325917 295.488 
L 356.454176 287.145931 
L 356.64476 295.488 
L 356.768503 287.145931 
L 356.959087 295.488 
L 357.081024 287.145931 
L 357.271607 295.488 
L 357.391738 287.145931 
L 357.581418 295.488 
L 357.706968 287.145931 
L 357.897551 295.488 
L 358.022198 287.145931 
L 358.212781 295.488 
L 358.344654 287.145931 
L 358.535237 295.488 
L 358.657175 287.145931 
L 358.847758 295.488 
L 358.977824 287.145931 
L 359.168407 295.488 
L 359.293958 287.145931 
L 359.484541 295.488 
L 359.613704 287.145931 
L 359.928934 278.803862 
L 360.119517 295.488 
L 360.244164 287.145931 
L 360.433844 295.488 
L 360.559394 287.145931 
L 360.749074 295.488 
L 360.870108 287.145931 
L 361.193468 278.803862 
L 361.384051 295.488 
L 361.512311 287.145931 
L 361.836573 278.803862 
L 362.027157 295.488 
L 362.1509 287.145931 
L 362.341484 295.488 
L 362.462517 287.145931 
L 362.653101 295.488 
L 362.774135 287.145931 
L 362.964718 295.488 
L 363.087558 287.145931 
L 363.278142 295.488 
L 363.404595 287.145931 
L 363.595178 295.488 
L 363.719825 287.145931 
L 363.910408 295.488 
L 364.038668 287.145931 
L 364.229252 295.488 
L 364.355705 287.145931 
L 364.546288 295.488 
L 364.675451 287.145931 
L 364.865131 295.488 
L 364.985262 287.145931 
L 365.175845 295.488 
L 365.301395 287.145931 
L 365.491979 295.488 
L 365.624755 287.145931 
L 365.814435 295.488 
L 365.939985 287.145931 
L 366.130568 295.488 
L 366.257021 287.145931 
L 366.447605 295.488 
L 366.570445 287.145931 
L 366.760125 295.488 
L 366.891095 287.145931 
L 367.081678 295.488 
L 367.206325 287.145931 
L 367.396908 295.488 
L 367.527878 287.145931 
L 367.718461 295.488 
L 367.848527 287.145931 
L 368.039111 295.488 
L 368.162854 287.145931 
L 368.353437 295.488 
L 368.478988 287.145931 
L 368.669571 295.488 
L 368.791508 287.145931 
L 368.982091 295.488 
L 369.102222 287.145931 
L 369.292805 295.488 
L 369.418355 287.145931 
L 369.608939 295.488 
L 369.739005 287.145931 
L 369.929588 295.488 
L 370.053332 287.145931 
L 370.243915 295.488 
L 370.368562 287.145931 
L 370.559145 295.488 
L 370.686502 287.145931 
L 370.877085 295.488 
L 370.998119 287.145931 
L 371.187799 295.488 
L 371.312446 287.145931 
L 371.503029 295.488 
L 371.632192 287.145931 
L 371.822776 295.488 
L 371.948326 287.145931 
L 372.138909 295.488 
L 372.266266 287.145931 
L 372.456849 295.488 
L 372.583302 287.145931 
L 372.773886 295.488 
L 372.898532 287.145931 
L 373.089116 295.488 
L 373.211053 287.145931 
L 373.401636 295.488 
L 373.528993 287.145931 
L 373.719576 295.488 
L 373.850546 287.145931 
L 374.040226 295.488 
L 374.164873 287.145931 
L 374.355456 295.488 
L 374.480103 287.145931 
L 374.670686 295.488 
L 374.795333 287.145931 
L 374.985916 295.488 
L 375.110563 287.145931 
L 375.301146 295.488 
L 375.42489 287.145931 
L 375.615473 295.488 
L 375.743733 287.145931 
L 375.934316 295.488 
L 376.056253 287.145931 
L 376.246837 295.488 
L 376.369677 287.145931 
L 376.56026 295.488 
L 393.300879 287.145931 
L 393.488752 295.488 
L 393.580882 253.777655 
L 393.76153 178.699034 
L 393.782305 195.383172 
L 393.950307 295.488 
L 393.98192 287.145931 
L 394.170697 295.488 
L 394.211343 287.145931 
L 394.40012 295.488 
L 394.442572 287.145931 
L 394.631349 295.488 
L 394.673801 287.145931 
L 394.861674 295.488 
L 394.900514 287.145931 
L 395.08929 295.488 
L 395.126323 287.145931 
L 395.3151 295.488 
L 395.356649 287.145931 
L 395.544522 295.488 
L 395.581555 287.145931 
L 395.770332 295.488 
L 395.810978 287.145931 
L 395.998851 295.488 
L 396.039497 287.145931 
L 396.228274 295.488 
L 396.259887 287.145931 
L 396.448664 295.488 
L 396.48389 287.145931 
L 396.671764 295.488 
L 396.7097 287.145931 
L 396.897573 295.488 
L 396.933703 287.145931 
L 397.12248 295.488 
L 397.163125 287.145931 
L 397.350999 295.488 
L 397.388032 287.145931 
L 397.575905 295.488 
L 397.617454 287.145931 
L 397.806231 295.488 
L 397.84507 287.145931 
L 398.032944 295.488 
L 398.06546 287.145931 
L 398.254237 295.488 
L 398.298496 287.145931 
L 398.487273 295.488 
L 398.487273 295.488 
" clip-path="url(#p142e869965)" style="fill: none; stroke: #1f77b4; stroke-width: 1.5; stroke-linecap: square"/>
   </g>
   <g id="patch_3">
    <path d="M 57.6 307.584 
L 57.6 41.472 
" style="fill: none; stroke: #000000; stroke-width: 0.8; stroke-linejoin: miter; stroke-linecap: square"/>
   </g>
   <g id="patch_4">
    <path d="M 414.72 307.584 
L 414.72 41.472 
" style="fill: none; stroke: #000000; stroke-width: 0.8; stroke-linejoin: miter; stroke-linecap: square"/>
   </g>
   <g id="patch_5">
    <path d="M 57.6 307.584 
L 414.72 307.584 
" style="fill: none; stroke: #000000; stroke-width: 0.8; stroke-linejoin: miter; stroke-linecap: square"/>
   </g>
   <g id="patch_6">
    <path d="M 57.6 41.472 
L 414.72 41.472 
" style="fill: none; stroke: #000000; stroke-width: 0.8; stroke-linejoin: miter; stroke-linecap: square"/>
   </g>
   <g id="text_17">
    <!-- Queue size (y-axis) between S3 and sensors that follow at a time (x-axis). -->
    <g transform="translate(14.282813 35.472) scale(0.12 -0.12)">
     <defs>
      <path id="DejaVuSans-51" d="M 2522 4238 
Q 1834 4238 1429 3725 
Q 1025 3213 1025 2328 
Q 1025 1447 1429 934 
Q 1834 422 2522 422 
Q 3209 422 3611 934 
Q 4013 1447 4013 2328 
Q 4013 3213 3611 3725 
Q 3209 4238 2522 4238 
z
M 3406 84 
L 4238 -825 
L 3475 -825 
L 2784 -78 
Q 2681 -84 2626 -87 
Q 2572 -91 2522 -91 
Q 1538 -91 948 567 
Q 359 1225 359 2328 
Q 359 3434 948 4092 
Q 1538 4750 2522 4750 
Q 3503 4750 4090 4092 
Q 4678 3434 4678 2328 
Q 4678 1516 4351 937 
Q 4025 359 3406 84 
z
" transform="scale(0.015625)"/>
      <path id="DejaVuSans-75" d="M 544 1381 
L 544 3500 
L 1119 3500 
L 1119 1403 
Q 1119 906 1312 657 
Q 1506 409 1894 409 
Q 2359 409 2629 706 
Q 2900 1003 2900 1516 
L 2900 3500 
L 3475 3500 
L 3475 0 
L 2900 0 
L 2900 538 
Q 2691 219 2414 64 
Q 2138 -91 1772 -91 
Q 1169 -91 856 284 
Q 544 659 544 1381 
z
M 1991 3584 
L 1991 3584 
z
" transform="scale(0.015625)"/>
      <path id="DejaVuSans-20" transform="scale(0.015625)"/>
      <path id="DejaVuSans-73" d="M 2834 3397 
L 2834 2853 
Q 2591 2978 2328 3040 
Q 2066 3103 1784 3103 
Q 1356 3103 1142 2972 
Q 928 2841 928 2578 
Q 928 2378 1081 2264 
Q 1234 2150 1697 2047 
L 1894 2003 
Q 2506 1872 2764 1633 
Q 3022 1394 3022 966 
Q 3022 478 2636 193 
Q 2250 -91 1575 -91 
Q 1294 -91 989 -36 
Q 684 19 347 128 
L 347 722 
Q 666 556 975 473 
Q 1284 391 1588 391 
Q 1994 391 2212 530 
Q 2431 669 2431 922 
Q 2431 1156 2273 1281 
Q 2116 1406 1581 1522 
L 1381 1569 
Q 847 1681 609 1914 
Q 372 2147 372 2553 
Q 372 3047 722 3315 
Q 1072 3584 1716 3584 
Q 2034 3584 2315 3537 
Q 2597 3491 2834 3397 
z
" transform="scale(0.015625)"/>
      <path id="DejaVuSans-69" d="M 603 3500 
L 1178 3500 
L 1178 0 
L 603 0 
L 603 3500 
z
M 603 4863 
L 1178 4863 
L 1178 4134 
L 603 4134 
L 603 4863 
z
" transform="scale(0.015625)"/>
      <path id="DejaVuSans-7a" d="M 353 3500 
L 3084 3500 
L 3084 2975 
L 922 459 
L 3084 459 
L 3084 0 
L 275 0 
L 275 525 
L 2438 3041 
L 353 3041 
L 353 3500 
z
" transform="scale(0.015625)"/>
      <path id="DejaVuSans-28" d="M 1984 4856 
Q 1566 4138 1362 3434 
Q 1159 2731 1159 2009 
Q 1159 1288 1364 580 
Q 1569 -128 1984 -844 
L 1484 -844 
Q 1016 -109 783 600 
Q 550 1309 550 2009 
Q 550 2706 781 3412 
Q 1013 4119 1484 4856 
L 1984 4856 
z
" transform="scale(0.015625)"/>
      <path id="DejaVuSans-79" d="M 2059 -325 
Q 1816 -950 1584 -1140 
Q 1353 -1331 966 -1331 
L 506 -1331 
L 506 -850 
L 844 -850 
Q 1081 -850 1212 -737 
Q 1344 -625 1503 -206 
L 1606 56 
L 191 3500 
L 800 3500 
L 1894 763 
L 2988 3500 
L 3597 3500 
L 2059 -325 
z
" transform="scale(0.015625)"/>
      <path id="DejaVuSans-2d" d="M 313 2009 
L 1997 2009 
L 1997 1497 
L 313 1497 
L 313 2009 
z
" transform="scale(0.015625)"/>
      <path id="DejaVuSans-61" d="M 2194 1759 
Q 1497 1759 1228 1600 
Q 959 1441 959 1056 
Q 959 750 1161 570 
Q 1363 391 1709 391 
Q 2188 391 2477 730 
Q 2766 1069 2766 1631 
L 2766 1759 
L 2194 1759 
z
M 3341 1997 
L 3341 0 
L 2766 0 
L 2766 531 
Q 2569 213 2275 61 
Q 1981 -91 1556 -91 
Q 1019 -91 701 211 
Q 384 513 384 1019 
Q 384 1609 779 1909 
Q 1175 2209 1959 2209 
L 2766 2209 
L 2766 2266 
Q 2766 2663 2505 2880 
Q 2244 3097 1772 3097 
Q 1472 3097 1187 3025 
Q 903 2953 641 2809 
L 641 3341 
Q 956 3463 1253 3523 
Q 1550 3584 1831 3584 
Q 2591 3584 2966 3190 
Q 3341 2797 3341 1997 
z
" transform="scale(0.015625)"/>
      <path id="DejaVuSans-78" d="M 3513 3500 
L 2247 1797 
L 3578 0 
L 2900 0 
L 1881 1375 
L 863 0 
L 184 0 
L 1544 1831 
L 300 3500 
L 978 3500 
L 1906 2253 
L 2834 3500 
L 3513 3500 
z
" transform="scale(0.015625)"/>
      <path id="DejaVuSans-29" d="M 513 4856 
L 1013 4856 
Q 1481 4119 1714 3412 
Q 1947 2706 1947 2009 
Q 1947 1309 1714 600 
Q 1481 -109 1013 -844 
L 513 -844 
Q 928 -128 1133 580 
Q 1338 1288 1338 2009 
Q 1338 2731 1133 3434 
Q 928 4138 513 4856 
z
" transform="scale(0.015625)"/>
      <path id="DejaVuSans-62" d="M 3116 1747 
Q 3116 2381 2855 2742 
Q 2594 3103 2138 3103 
Q 1681 3103 1420 2742 
Q 1159 2381 1159 1747 
Q 1159 1113 1420 752 
Q 1681 391 2138 391 
Q 2594 391 2855 752 
Q 3116 1113 3116 1747 
z
M 1159 2969 
Q 1341 3281 1617 3432 
Q 1894 3584 2278 3584 
Q 2916 3584 3314 3078 
Q 3713 2572 3713 1747 
Q 3713 922 3314 415 
Q 2916 -91 2278 -91 
Q 1894 -91 1617 61 
Q 1341 213 1159 525 
L 1159 0 
L 581 0 
L 581 4863 
L 1159 4863 
L 1159 2969 
z
" transform="scale(0.015625)"/>
      <path id="DejaVuSans-74" d="M 1172 4494 
L 1172 3500 
L 2356 3500 
L 2356 3053 
L 1172 3053 
L 1172 1153 
Q 1172 725 1289 603 
Q 1406 481 1766 481 
L 2356 481 
L 2356 0 
L 1766 0 
Q 1100 0 847 248 
Q 594 497 594 1153 
L 594 3053 
L 172 3053 
L 172 3500 
L 594 3500 
L 594 4494 
L 1172 4494 
z
" transform="scale(0.015625)"/>
      <path id="DejaVuSans-77" d="M 269 3500 
L 844 3500 
L 1563 769 
L 2278 3500 
L 2956 3500 
L 3675 769 
L 4391 3500 
L 4966 3500 
L 4050 0 
L 3372 0 
L 2619 2869 
L 1863 0 
L 1184 0 
L 269 3500 
z
" transform="scale(0.015625)"/>
      <path id="DejaVuSans-6e" d="M 3513 2113 
L 3513 0 
L 2938 0 
L 2938 2094 
Q 2938 2591 2744 2837 
Q 2550 3084 2163 3084 
Q 1697 3084 1428 2787 
Q 1159 2491 1159 1978 
L 1159 0 
L 581 0 
L 581 3500 
L 1159 3500 
L 1159 2956 
Q 1366 3272 1645 3428 
Q 1925 3584 2291 3584 
Q 2894 3584 3203 3211 
Q 3513 2838 3513 2113 
z
" transform="scale(0.015625)"/>
      <path id="DejaVuSans-53" d="M 3425 4513 
L 3425 3897 
Q 3066 4069 2747 4153 
Q 2428 4238 2131 4238 
Q 1616 4238 1336 4038 
Q 1056 3838 1056 3469 
Q 1056 3159 1242 3001 
Q 1428 2844 1947 2747 
L 2328 2669 
Q 3034 2534 3370 2195 
Q 3706 1856 3706 1288 
Q 3706 609 3251 259 
Q 2797 -91 1919 -91 
Q 1588 -91 1214 -16 
Q 841 59 441 206 
L 441 856 
Q 825 641 1194 531 
Q 1563 422 1919 422 
Q 2459 422 2753 634 
Q 3047 847 3047 1241 
Q 3047 1584 2836 1778 
Q 2625 1972 2144 2069 
L 1759 2144 
Q 1053 2284 737 2584 
Q 422 2884 422 3419 
Q 422 4038 858 4394 
Q 1294 4750 2059 4750 
Q 2388 4750 2728 4690 
Q 3069 4631 3425 4513 
z
" transform="scale(0.015625)"/>
      <path id="DejaVuSans-64" d="M 2906 2969 
L 2906 4863 
L 3481 4863 
L 3481 0 
L 2906 0 
L 2906 525 
Q 2725 213 2448 61 
Q 2172 -91 1784 -91 
Q 1150 -91 751 415 
Q 353 922 353 1747 
Q 353 2572 751 3078 
Q 1150 3584 1784 3584 
Q 2172 3584 2448 3432 
Q 2725 3281 2906 2969 
z
M 947 1747 
Q 947 1113 1208 752 
Q 1469 391 1925 391 
Q 2381 391 2643 752 
Q 2906 1113 2906 1747 
Q 2906 2381 2643 2742 
Q 2381 3103 1925 3103 
Q 1469 3103 1208 2742 
Q 947 2381 947 1747 
z
" transform="scale(0.015625)"/>
      <path id="DejaVuSans-6f" d="M 1959 3097 
Q 1497 3097 1228 2736 
Q 959 2375 959 1747 
Q 959 1119 1226 758 
Q 1494 397 1959 397 
Q 2419 397 2687 759 
Q 2956 1122 2956 1747 
Q 2956 2369 2687 2733 
Q 2419 3097 1959 3097 
z
M 1959 3584 
Q 2709 3584 3137 3096 
Q 3566 2609 3566 1747 
Q 3566 888 3137 398 
Q 2709 -91 1959 -91 
Q 1206 -91 779 398 
Q 353 888 353 1747 
Q 353 2609 779 3096 
Q 1206 3584 1959 3584 
z
" transform="scale(0.015625)"/>
      <path id="DejaVuSans-72" d="M 2631 2963 
Q 2534 3019 2420 3045 
Q 2306 3072 2169 3072 
Q 1681 3072 1420 2755 
Q 1159 2438 1159 1844 
L 1159 0 
L 581 0 
L 581 3500 
L 1159 3500 
L 1159 2956 
Q 1341 3275 1631 3429 
Q 1922 3584 2338 3584 
Q 2397 3584 2469 3576 
Q 2541 3569 2628 3553 
L 2631 2963 
z
" transform="scale(0.015625)"/>
      <path id="DejaVuSans-68" d="M 3513 2113 
L 3513 0 
L 2938 0 
L 2938 2094 
Q 2938 2591 2744 2837 
Q 2550 3084 2163 3084 
Q 1697 3084 1428 2787 
Q 1159 2491 1159 1978 
L 1159 0 
L 581 0 
L 581 4863 
L 1159 4863 
L 1159 2956 
Q 1366 3272 1645 3428 
Q 1925 3584 2291 3584 
Q 2894 3584 3203 3211 
Q 3513 2838 3513 2113 
z
" transform="scale(0.015625)"/>
      <path id="DejaVuSans-66" d="M 2375 4863 
L 2375 4384 
L 1825 4384 
Q 1516 4384 1395 4259 
Q 1275 4134 1275 3809 
L 1275 3500 
L 2222 3500 
L 2222 3053 
L 1275 3053 
L 1275 0 
L 697 0 
L 697 3053 
L 147 3053 
L 147 3500 
L 697 3500 
L 697 3744 
Q 697 4328 969 4595 
Q 1241 4863 1831 4863 
L 2375 4863 
z
" transform="scale(0.015625)"/>
      <path id="DejaVuSans-6c" d="M 603 4863 
L 1178 4863 
L 1178 0 
L 603 0 
L 603 4863 
z
" transform="scale(0.015625)"/>
      <path id="DejaVuSans-6d" d="M 3328 2828 
Q 3544 3216 3844 3400 
Q 4144 3584 4550 3584 
Q 5097 3584 5394 3201 
Q 5691 2819 5691 2113 
L 5691 0 
L 5113 0 
L 5113 2094 
Q 5113 2597 4934 2840 
Q 4756 3084 4391 3084 
Q 3944 3084 3684 2787 
Q 3425 2491 3425 1978 
L 3425 0 
L 2847 0 
L 2847 2094 
Q 2847 2600 2669 2842 
Q 2491 3084 2119 3084 
Q 1678 3084 1418 2786 
Q 1159 2488 1159 1978 
L 1159 0 
L 581 0 
L 581 3500 
L 1159 3500 
L 1159 2956 
Q 1356 3278 1631 3431 
Q 1906 3584 2284 3584 
Q 2666 3584 2933 3390 
Q 3200 3197 3328 2828 
z
" transform="scale(0.015625)"/>
     </defs>
     <use xlink:href="#DejaVuSans-51"/>
     <use xlink:href="#DejaVuSans-75" x="78.710938"/>
     <use xlink:href="#DejaVuSans-65" x="142.089844"/>
     <use xlink:href="#DejaVuSans-75" x="203.613281"/>
     <use xlink:href="#DejaVuSans-65" x="266.992188"/>
     <use xlink:href="#DejaVuSans-20" x="328.515625"/>
     <use xlink:href="#DejaVuSans-73" x="360.302734"/>
     <use xlink:href="#DejaVuSans-69" x="412.402344"/>
     <use xlink:href="#DejaVuSans-7a" x="440.185547"/>
     <use xlink:href="#DejaVuSans-65" x="492.675781"/>
     <use xlink:href="#DejaVuSans-20" x="554.199219"/>
     <use xlink:href="#DejaVuSans-28" x="585.986328"/>
     <use xlink:href="#DejaVuSans-79" x="625"/>
     <use xlink:href="#DejaVuSans-2d" x="682.429688"/>
     <use xlink:href="#DejaVuSans-61" x="718.513672"/>
     <use xlink:href="#DejaVuSans-78" x="779.792969"/>
     <use xlink:href="#DejaVuSans-69" x="838.972656"/>
     <use xlink:href="#DejaVuSans-73" x="866.755859"/>
     <use xlink:href="#DejaVuSans-29" x="918.855469"/>
     <use xlink:href="#DejaVuSans-20" x="957.869141"/>
     <use xlink:href="#DejaVuSans-62" x="989.65625"/>
     <use xlink:href="#DejaVuSans-65" x="1053.132812"/>
     <use xlink:href="#DejaVuSans-74" x="1114.65625"/>
     <use xlink:href="#DejaVuSans-77" x="1153.865234"/>
     <use xlink:href="#DejaVuSans-65" x="1235.652344"/>
     <use xlink:href="#DejaVuSans-65" x="1297.175781"/>
     <use xlink:href="#DejaVuSans-6e" x="1358.699219"/>
     <use xlink:href="#DejaVuSans-20" x="1422.078125"/>
     <use xlink:href="#DejaVuSans-53" x="1453.865234"/>
     <use xlink:href="#DejaVuSans-33" x="1517.341797"/>
     <use xlink:href="#DejaVuSans-20" x="1580.964844"/>
     <use xlink:href="#DejaVuSans-61" x="1612.751953"/>
     <use xlink:href="#DejaVuSans-6e" x="1674.03125"/>
     <use xlink:href="#DejaVuSans-64" x="1737.410156"/>
     <use xlink:href="#DejaVuSans-20" x="1800.886719"/>
     <use xlink:href="#DejaVuSans-73" x="1832.673828"/>
     <use xlink:href="#DejaVuSans-65" x="1884.773438"/>
     <use xlink:href="#DejaVuSans-6e" x="1946.296875"/>
     <use xlink:href="#DejaVuSans-73" x="2009.675781"/>
     <use xlink:href="#DejaVuSans-6f" x="2061.775391"/>
     <use xlink:href="#DejaVuSans-72" x="2122.957031"/>
     <use xlink:href="#DejaVuSans-73" x="2164.070312"/>
     <use xlink:href="#DejaVuSans-20" x="2216.169922"/>
     <use xlink:href="#DejaVuSans-74" x="2247.957031"/>
     <use xlink:href="#DejaVuSans-68" x="2287.166016"/>
     <use xlink:href="#DejaVuSans-61" x="2350.544922"/>
     <use xlink:href="#DejaVuSans-74" x="2411.824219"/>
     <use xlink:href="#DejaVuSans-20" x="2451.033203"/>
     <use xlink:href="#DejaVuSans-66" x="2482.820312"/>
     <use xlink:href="#DejaVuSans-6f" x="2518.025391"/>
     <use xlink:href="#DejaVuSans-6c" x="2579.207031"/>
     <use xlink:href="#DejaVuSans-6c" x="2606.990234"/>
     <use xlink:href="#DejaVuSans-6f" x="2634.773438"/>
     <use xlink:href="#DejaVuSans-77" x="2695.955078"/>
     <use xlink:href="#DejaVuSans-20" x="2777.742188"/>
     <use xlink:href="#DejaVuSans-61" x="2809.529297"/>
     <use xlink:href="#DejaVuSans-74" x="2870.808594"/>
     <use xlink:href="#DejaVuSans-20" x="2910.017578"/>
     <use xlink:href="#DejaVuSans-61" x="2941.804688"/>
     <use xlink:href="#DejaVuSans-20" x="3003.083984"/>
     <use xlink:href="#DejaVuSans-74" x="3034.871094"/>
     <use xlink:href="#DejaVuSans-69" x="3074.080078"/>
     <use xlink:href="#DejaVuSans-6d" x="3101.863281"/>
     <use xlink:href="#DejaVuSans-65" x="3199.275391"/>
     <use xlink:href="#DejaVuSans-20" x="3260.798828"/>
     <use xlink:href="#DejaVuSans-28" x="3292.585938"/>
     <use xlink:href="#DejaVuSans-78" x="3331.599609"/>
     <use xlink:href="#DejaVuSans-2d" x="3390.779297"/>
     <use xlink:href="#DejaVuSans-61" x="3426.863281"/>
     <use xlink:href="#DejaVuSans-78" x="3488.142578"/>
     <use xlink:href="#DejaVuSans-69" x="3547.322266"/>
     <use xlink:href="#DejaVuSans-73" x="3575.105469"/>
     <use xlink:href="#DejaVuSans-29" x="3627.205078"/>
     <use xlink:href="#DejaVuSans-2e" x="3666.21875"/>
    </g>
   </g>
  </g>
 </g>
 <defs>
  <clipPath id="p142e869965">
   <rect x="57.6" y="41.472" width="357.12" height="266.112"/>
  </clipPath>
 </defs>
</svg>
