<?xml version="1.0" encoding="utf-8" standalone="no"?>
<!DOCTYPE svg PUBLIC "-//W3C//DTD SVG 1.1//EN"
  "http://www.w3.org/Graphics/SVG/1.1/DTD/svg11.dtd">
<svg xmlns:xlink="http://www.w3.org/1999/xlink" width="460.8pt" height="345.6pt" viewBox="0 0 460.8 345.6" xmlns="http://www.w3.org/2000/svg" version="1.1">
 <metadata>
  <rdf:RDF xmlns:dc="http://purl.org/dc/elements/1.1/" xmlns:cc="http://creativecommons.org/ns#" xmlns:rdf="http://www.w3.org/1999/02/22-rdf-syntax-ns#">
   <cc:Work>
    <dc:type rdf:resource="http://purl.org/dc/dcmitype/StillImage"/>
    <dc:date>2024-03-08T11:13:09.043176</dc:date>
    <dc:format>image/svg+xml</dc:format>
    <dc:creator>
     <cc:Agent>
      <dc:title>Matplotlib v3.8.2, https://matplotlib.org/</dc:title>
     </cc:Agent>
    </dc:creator>
   </cc:Work>
  </rdf:RDF>
 </metadata>
 <defs>
  <style type="text/css">*{stroke-linejoin: round; stroke-linecap: butt}</style>
 </defs>
 <g id="figure_1">
  <g id="patch_1">
   <path d="M 0 345.6 
L 460.8 345.6 
L 460.8 0 
L 0 0 
z
" style="fill: #ffffff"/>
  </g>
  <g id="axes_1">
   <g id="patch_2">
    <path d="M 57.6 307.584 
L 414.72 307.584 
L 414.72 41.472 
L 57.6 41.472 
z
" style="fill: #ffffff"/>
   </g>
   <g id="matplotlib.axis_1">
    <g id="xtick_1">
     <g id="line2d_1">
      <defs>
       <path id="m4bfa8afeff" d="M 0 0 
L 0 3.5 
" style="stroke: #000000; stroke-width: 0.8"/>
      </defs>
      <g>
       <use xlink:href="#m4bfa8afeff" x="73.137731" y="307.584" style="stroke: #000000; stroke-width: 0.8"/>
      </g>
     </g>
     <g id="text_1">
      <!-- 0.0 -->
      <g transform="translate(65.186168 322.182437) scale(0.1 -0.1)">
       <defs>
        <path id="DejaVuSans-30" d="M 2034 4250 
Q 1547 4250 1301 3770 
Q 1056 3291 1056 2328 
Q 1056 1369 1301 889 
Q 1547 409 2034 409 
Q 2525 409 2770 889 
Q 3016 1369 3016 2328 
Q 3016 3291 2770 3770 
Q 2525 4250 2034 4250 
z
M 2034 4750 
Q 2819 4750 3233 4129 
Q 3647 3509 3647 2328 
Q 3647 1150 3233 529 
Q 2819 -91 2034 -91 
Q 1250 -91 836 529 
Q 422 1150 422 2328 
Q 422 3509 836 4129 
Q 1250 4750 2034 4750 
z
" transform="scale(0.015625)"/>
        <path id="DejaVuSans-2e" d="M 684 794 
L 1344 794 
L 1344 0 
L 684 0 
L 684 794 
z
" transform="scale(0.015625)"/>
       </defs>
       <use xlink:href="#DejaVuSans-30"/>
       <use xlink:href="#DejaVuSans-2e" x="63.623047"/>
       <use xlink:href="#DejaVuSans-30" x="95.410156"/>
      </g>
     </g>
    </g>
    <g id="xtick_2">
     <g id="line2d_2">
      <g>
       <use xlink:href="#m4bfa8afeff" x="118.326046" y="307.584" style="stroke: #000000; stroke-width: 0.8"/>
      </g>
     </g>
     <g id="text_2">
      <!-- 0.5 -->
      <g transform="translate(110.374484 322.182437) scale(0.1 -0.1)">
       <defs>
        <path id="DejaVuSans-35" d="M 691 4666 
L 3169 4666 
L 3169 4134 
L 1269 4134 
L 1269 2991 
Q 1406 3038 1543 3061 
Q 1681 3084 1819 3084 
Q 2600 3084 3056 2656 
Q 3513 2228 3513 1497 
Q 3513 744 3044 326 
Q 2575 -91 1722 -91 
Q 1428 -91 1123 -41 
Q 819 9 494 109 
L 494 744 
Q 775 591 1075 516 
Q 1375 441 1709 441 
Q 2250 441 2565 725 
Q 2881 1009 2881 1497 
Q 2881 1984 2565 2268 
Q 2250 2553 1709 2553 
Q 1456 2553 1204 2497 
Q 953 2441 691 2322 
L 691 4666 
z
" transform="scale(0.015625)"/>
       </defs>
       <use xlink:href="#DejaVuSans-30"/>
       <use xlink:href="#DejaVuSans-2e" x="63.623047"/>
       <use xlink:href="#DejaVuSans-35" x="95.410156"/>
      </g>
     </g>
    </g>
    <g id="xtick_3">
     <g id="line2d_3">
      <g>
       <use xlink:href="#m4bfa8afeff" x="163.514361" y="307.584" style="stroke: #000000; stroke-width: 0.8"/>
      </g>
     </g>
     <g id="text_3">
      <!-- 1.0 -->
      <g transform="translate(155.562799 322.182437) scale(0.1 -0.1)">
       <defs>
        <path id="DejaVuSans-31" d="M 794 531 
L 1825 531 
L 1825 4091 
L 703 3866 
L 703 4441 
L 1819 4666 
L 2450 4666 
L 2450 531 
L 3481 531 
L 3481 0 
L 794 0 
L 794 531 
z
" transform="scale(0.015625)"/>
       </defs>
       <use xlink:href="#DejaVuSans-31"/>
       <use xlink:href="#DejaVuSans-2e" x="63.623047"/>
       <use xlink:href="#DejaVuSans-30" x="95.410156"/>
      </g>
     </g>
    </g>
    <g id="xtick_4">
     <g id="line2d_4">
      <g>
       <use xlink:href="#m4bfa8afeff" x="208.702676" y="307.584" style="stroke: #000000; stroke-width: 0.8"/>
      </g>
     </g>
     <g id="text_4">
      <!-- 1.5 -->
      <g transform="translate(200.751114 322.182437) scale(0.1 -0.1)">
       <use xlink:href="#DejaVuSans-31"/>
       <use xlink:href="#DejaVuSans-2e" x="63.623047"/>
       <use xlink:href="#DejaVuSans-35" x="95.410156"/>
      </g>
     </g>
    </g>
    <g id="xtick_5">
     <g id="line2d_5">
      <g>
       <use xlink:href="#m4bfa8afeff" x="253.890991" y="307.584" style="stroke: #000000; stroke-width: 0.8"/>
      </g>
     </g>
     <g id="text_5">
      <!-- 2.0 -->
      <g transform="translate(245.939429 322.182437) scale(0.1 -0.1)">
       <defs>
        <path id="DejaVuSans-32" d="M 1228 531 
L 3431 531 
L 3431 0 
L 469 0 
L 469 531 
Q 828 903 1448 1529 
Q 2069 2156 2228 2338 
Q 2531 2678 2651 2914 
Q 2772 3150 2772 3378 
Q 2772 3750 2511 3984 
Q 2250 4219 1831 4219 
Q 1534 4219 1204 4116 
Q 875 4013 500 3803 
L 500 4441 
Q 881 4594 1212 4672 
Q 1544 4750 1819 4750 
Q 2544 4750 2975 4387 
Q 3406 4025 3406 3419 
Q 3406 3131 3298 2873 
Q 3191 2616 2906 2266 
Q 2828 2175 2409 1742 
Q 1991 1309 1228 531 
z
" transform="scale(0.015625)"/>
       </defs>
       <use xlink:href="#DejaVuSans-32"/>
       <use xlink:href="#DejaVuSans-2e" x="63.623047"/>
       <use xlink:href="#DejaVuSans-30" x="95.410156"/>
      </g>
     </g>
    </g>
    <g id="xtick_6">
     <g id="line2d_6">
      <g>
       <use xlink:href="#m4bfa8afeff" x="299.079306" y="307.584" style="stroke: #000000; stroke-width: 0.8"/>
      </g>
     </g>
     <g id="text_6">
      <!-- 2.5 -->
      <g transform="translate(291.127744 322.182437) scale(0.1 -0.1)">
       <use xlink:href="#DejaVuSans-32"/>
       <use xlink:href="#DejaVuSans-2e" x="63.623047"/>
       <use xlink:href="#DejaVuSans-35" x="95.410156"/>
      </g>
     </g>
    </g>
    <g id="xtick_7">
     <g id="line2d_7">
      <g>
       <use xlink:href="#m4bfa8afeff" x="344.267621" y="307.584" style="stroke: #000000; stroke-width: 0.8"/>
      </g>
     </g>
     <g id="text_7">
      <!-- 3.0 -->
      <g transform="translate(336.316059 322.182437) scale(0.1 -0.1)">
       <defs>
        <path id="DejaVuSans-33" d="M 2597 2516 
Q 3050 2419 3304 2112 
Q 3559 1806 3559 1356 
Q 3559 666 3084 287 
Q 2609 -91 1734 -91 
Q 1441 -91 1130 -33 
Q 819 25 488 141 
L 488 750 
Q 750 597 1062 519 
Q 1375 441 1716 441 
Q 2309 441 2620 675 
Q 2931 909 2931 1356 
Q 2931 1769 2642 2001 
Q 2353 2234 1838 2234 
L 1294 2234 
L 1294 2753 
L 1863 2753 
Q 2328 2753 2575 2939 
Q 2822 3125 2822 3475 
Q 2822 3834 2567 4026 
Q 2313 4219 1838 4219 
Q 1578 4219 1281 4162 
Q 984 4106 628 3988 
L 628 4550 
Q 988 4650 1302 4700 
Q 1616 4750 1894 4750 
Q 2613 4750 3031 4423 
Q 3450 4097 3450 3541 
Q 3450 3153 3228 2886 
Q 3006 2619 2597 2516 
z
" transform="scale(0.015625)"/>
       </defs>
       <use xlink:href="#DejaVuSans-33"/>
       <use xlink:href="#DejaVuSans-2e" x="63.623047"/>
       <use xlink:href="#DejaVuSans-30" x="95.410156"/>
      </g>
     </g>
    </g>
    <g id="xtick_8">
     <g id="line2d_8">
      <g>
       <use xlink:href="#m4bfa8afeff" x="389.455936" y="307.584" style="stroke: #000000; stroke-width: 0.8"/>
      </g>
     </g>
     <g id="text_8">
      <!-- 3.5 -->
      <g transform="translate(381.504374 322.182437) scale(0.1 -0.1)">
       <use xlink:href="#DejaVuSans-33"/>
       <use xlink:href="#DejaVuSans-2e" x="63.623047"/>
       <use xlink:href="#DejaVuSans-35" x="95.410156"/>
      </g>
     </g>
    </g>
    <g id="text_9">
     <!-- 1e6 -->
     <g transform="translate(395.841875 334.860562) scale(0.1 -0.1)">
      <defs>
       <path id="DejaVuSans-65" d="M 3597 1894 
L 3597 1613 
L 953 1613 
Q 991 1019 1311 708 
Q 1631 397 2203 397 
Q 2534 397 2845 478 
Q 3156 559 3463 722 
L 3463 178 
Q 3153 47 2828 -22 
Q 2503 -91 2169 -91 
Q 1331 -91 842 396 
Q 353 884 353 1716 
Q 353 2575 817 3079 
Q 1281 3584 2069 3584 
Q 2775 3584 3186 3129 
Q 3597 2675 3597 1894 
z
M 3022 2063 
Q 3016 2534 2758 2815 
Q 2500 3097 2075 3097 
Q 1594 3097 1305 2825 
Q 1016 2553 972 2059 
L 3022 2063 
z
" transform="scale(0.015625)"/>
       <path id="DejaVuSans-36" d="M 2113 2584 
Q 1688 2584 1439 2293 
Q 1191 2003 1191 1497 
Q 1191 994 1439 701 
Q 1688 409 2113 409 
Q 2538 409 2786 701 
Q 3034 994 3034 1497 
Q 3034 2003 2786 2293 
Q 2538 2584 2113 2584 
z
M 3366 4563 
L 3366 3988 
Q 3128 4100 2886 4159 
Q 2644 4219 2406 4219 
Q 1781 4219 1451 3797 
Q 1122 3375 1075 2522 
Q 1259 2794 1537 2939 
Q 1816 3084 2150 3084 
Q 2853 3084 3261 2657 
Q 3669 2231 3669 1497 
Q 3669 778 3244 343 
Q 2819 -91 2113 -91 
Q 1303 -91 875 529 
Q 447 1150 447 2328 
Q 447 3434 972 4092 
Q 1497 4750 2381 4750 
Q 2619 4750 2861 4703 
Q 3103 4656 3366 4563 
z
" transform="scale(0.015625)"/>
      </defs>
      <use xlink:href="#DejaVuSans-31"/>
      <use xlink:href="#DejaVuSans-65" x="63.623047"/>
      <use xlink:href="#DejaVuSans-36" x="125.146484"/>
     </g>
    </g>
   </g>
   <g id="matplotlib.axis_2">
    <g id="ytick_1">
     <g id="line2d_9">
      <defs>
       <path id="m8f99481858" d="M 0 0 
L -3.5 0 
" style="stroke: #000000; stroke-width: 0.8"/>
      </defs>
      <g>
       <use xlink:href="#m8f99481858" x="57.6" y="295.488" style="stroke: #000000; stroke-width: 0.8"/>
      </g>
     </g>
     <g id="text_10">
      <!-- 0 -->
      <g transform="translate(44.2375 299.287219) scale(0.1 -0.1)">
       <use xlink:href="#DejaVuSans-30"/>
      </g>
     </g>
    </g>
    <g id="ytick_2">
     <g id="line2d_10">
      <g>
       <use xlink:href="#m8f99481858" x="57.6" y="241.728" style="stroke: #000000; stroke-width: 0.8"/>
      </g>
     </g>
     <g id="text_11">
      <!-- 10 -->
      <g transform="translate(37.875 245.527219) scale(0.1 -0.1)">
       <use xlink:href="#DejaVuSans-31"/>
       <use xlink:href="#DejaVuSans-30" x="63.623047"/>
      </g>
     </g>
    </g>
    <g id="ytick_3">
     <g id="line2d_11">
      <g>
       <use xlink:href="#m8f99481858" x="57.6" y="187.968" style="stroke: #000000; stroke-width: 0.8"/>
      </g>
     </g>
     <g id="text_12">
      <!-- 20 -->
      <g transform="translate(37.875 191.767219) scale(0.1 -0.1)">
       <use xlink:href="#DejaVuSans-32"/>
       <use xlink:href="#DejaVuSans-30" x="63.623047"/>
      </g>
     </g>
    </g>
    <g id="ytick_4">
     <g id="line2d_12">
      <g>
       <use xlink:href="#m8f99481858" x="57.6" y="134.208" style="stroke: #000000; stroke-width: 0.8"/>
      </g>
     </g>
     <g id="text_13">
      <!-- 30 -->
      <g transform="translate(37.875 138.007219) scale(0.1 -0.1)">
       <use xlink:href="#DejaVuSans-33"/>
       <use xlink:href="#DejaVuSans-30" x="63.623047"/>
      </g>
     </g>
    </g>
    <g id="ytick_5">
     <g id="line2d_13">
      <g>
       <use xlink:href="#m8f99481858" x="57.6" y="80.448" style="stroke: #000000; stroke-width: 0.8"/>
      </g>
     </g>
     <g id="text_14">
      <!-- 40 -->
      <g transform="translate(37.875 84.247219) scale(0.1 -0.1)">
       <defs>
        <path id="DejaVuSans-34" d="M 2419 4116 
L 825 1625 
L 2419 1625 
L 2419 4116 
z
M 2253 4666 
L 3047 4666 
L 3047 1625 
L 3713 1625 
L 3713 1100 
L 3047 1100 
L 3047 0 
L 2419 0 
L 2419 1100 
L 313 1100 
L 313 1709 
L 2253 4666 
z
" transform="scale(0.015625)"/>
       </defs>
       <use xlink:href="#DejaVuSans-34"/>
       <use xlink:href="#DejaVuSans-30" x="63.623047"/>
      </g>
     </g>
    </g>
   </g>
   <g id="line2d_14">
    <path d="M 73.832727 290.112 
L 75.100711 268.608 
L 75.302251 273.984 
L 75.415222 268.608 
L 75.617666 273.984 
L 75.729733 268.608 
L 75.932176 273.984 
L 76.04334 268.608 
L 76.247591 273.984 
L 76.36508 268.608 
L 76.569332 273.984 
L 76.683206 268.608 
L 76.884746 273.984 
L 77.000428 268.608 
L 77.198353 273.984 
L 77.31765 268.608 
L 77.512864 273.984 
L 77.63668 268.608 
L 77.833701 273.984 
L 77.956613 268.608 
L 78.15273 273.984 
L 78.276546 268.608 
L 78.469048 273.984 
L 78.588346 268.608 
L 78.78627 273.984 
L 80.056966 295.488 
L 84.395948 290.112 
L 84.646291 241.728 
L 85.545539 225.6 
L 85.857338 220.224 
L 86.001037 252.48 
L 86.114911 273.984 
L 86.176367 268.608 
L 86.389656 273.984 
L 86.491782 268.608 
L 86.697841 273.984 
L 86.807196 268.608 
L 87.014159 273.984 
L 87.128033 268.608 
L 87.325958 273.984 
L 87.447063 268.608 
L 87.644988 273.984 
L 87.763381 268.608 
L 87.960402 273.984 
L 88.082411 268.608 
L 88.27672 273.984 
L 88.403248 268.608 
L 88.596654 273.984 
L 88.714143 268.608 
L 88.916587 273.984 
L 89.024135 268.608 
L 89.232001 273.984 
L 89.341357 268.608 
L 89.551935 273.984 
L 89.655868 268.608 
L 89.871868 273.984 
L 89.968571 268.608 
L 90.183667 273.984 
L 90.289408 268.608 
L 90.492755 273.984 
L 90.597592 268.608 
L 90.810881 273.984 
L 90.912103 268.608 
L 91.125392 273.984 
L 91.228421 268.608 
L 91.437191 273.984 
L 91.551969 268.608 
L 91.758028 273.984 
L 91.86648 268.608 
L 92.066212 273.984 
L 92.179183 268.608 
L 92.380723 273.984 
L 92.490079 268.608 
L 92.697041 273.984 
L 92.804589 268.608 
L 93.02059 273.984 
L 93.120004 268.608 
L 93.3351 273.984 
L 93.431803 268.608 
L 93.647803 273.984 
L 93.746314 268.608 
L 93.959603 273.984 
L 94.066247 268.608 
L 94.274113 273.984 
L 94.385277 268.608 
L 94.589528 273.984 
L 94.69798 268.608 
L 94.900423 273.984 
L 95.017913 268.608 
L 95.215838 273.984 
L 95.333328 268.608 
L 95.534867 273.984 
L 95.652357 268.608 
L 95.853897 273.984 
L 96.167504 279.36 
L 96.28409 273.984 
L 96.486533 279.36 
L 96.604927 273.984 
L 96.801948 279.36 
L 96.915822 273.984 
L 97.120977 279.36 
L 97.228525 273.984 
L 97.544844 268.608 
L 97.75271 273.984 
L 97.861162 268.608 
L 98.073547 273.984 
L 98.178384 268.608 
L 98.384443 273.984 
L 98.502836 268.608 
L 98.698049 273.984 
L 98.824577 268.608 
L 99.013464 273.984 
L 99.140895 268.608 
L 99.330686 273.984 
L 99.449983 268.608 
L 99.647004 273.984 
L 99.767205 268.608 
L 99.971456 273.984 
L 100.085331 268.608 
L 100.293197 273.984 
L 100.39713 268.608 
L 100.609515 273.984 
L 100.715256 268.608 
L 100.918603 273.984 
L 101.029767 268.608 
L 101.235825 273.984 
L 101.351507 268.608 
L 101.553951 273.984 
L 101.669633 268.608 
L 101.86575 273.984 
L 101.985951 268.608 
L 102.18478 273.984 
L 102.302269 268.608 
L 102.498387 273.984 
L 102.618588 268.608 
L 102.820128 273.984 
L 102.93581 268.608 
L 103.138253 273.984 
L 103.247609 268.608 
L 103.454572 273.984 
L 103.564831 268.608 
L 103.77089 273.984 
L 103.887476 268.608 
L 104.088112 273.984 
L 104.207409 268.608 
L 104.40443 273.984 
L 104.52192 268.608 
L 104.716229 273.984 
L 104.831008 268.608 
L 105.033451 273.984 
L 105.150941 268.608 
L 105.357 273.984 
L 105.465452 268.608 
L 105.676029 273.984 
L 105.77454 268.608 
L 105.99054 273.984 
L 106.091762 268.608 
L 106.300532 273.984 
L 106.40085 268.608 
L 106.619561 273.984 
L 106.713553 268.608 
L 106.934072 273.984 
L 107.02716 268.608 
L 107.244064 273.984 
L 107.343478 268.608 
L 107.560382 273.984 
L 107.654374 268.608 
L 107.86947 273.984 
L 107.968884 268.608 
L 108.182173 273.984 
L 108.287914 268.608 
L 108.496684 273.984 
L 108.605136 268.608 
L 108.812098 273.984 
L 108.916935 268.608 
L 109.123898 273.984 
L 109.23958 268.608 
L 109.437504 273.984 
L 109.555898 268.608 
L 109.756534 273.984 
L 109.878542 268.608 
L 110.07466 273.984 
L 110.194861 268.608 
L 110.385555 273.984 
L 111.024518 284.736 
L 111.337221 279.36 
L 111.347163 284.736 
L 111.563163 279.36 
L 111.663481 284.736 
L 112.01595 273.984 
L 112.697389 257.856 
L 112.808553 263.232 
L 112.922427 257.856 
L 113.034494 263.232 
L 113.14385 257.856 
L 113.263147 263.232 
L 113.368888 257.856 
L 113.486377 263.232 
L 113.597541 257.856 
L 113.710512 263.232 
L 113.818963 257.856 
L 113.939164 263.232 
L 114.049424 257.856 
L 114.168721 263.232 
L 114.275365 257.856 
L 114.392855 263.232 
L 114.504922 257.856 
L 114.614278 263.232 
L 114.734479 257.856 
L 114.840219 263.232 
L 114.959517 257.856 
L 115.067968 263.232 
L 115.186362 257.856 
L 115.290295 263.232 
L 115.413207 257.856 
L 115.519852 263.232 
L 115.643668 257.856 
L 115.745793 263.232 
L 115.868705 257.856 
L 115.976254 263.232 
L 116.101877 257.856 
L 116.204906 263.232 
L 116.332338 257.856 
L 116.430848 263.232 
L 127.376362 257.856 
L 127.501985 263.232 
L 127.661048 204.096 
L 127.70714 187.968 
L 127.729734 193.344 
L 127.858973 187.968 
L 128.10299 101.952 
L 128.185233 107.328 
L 128.274705 101.952 
L 128.418404 107.328 
L 128.503358 101.952 
L 128.647961 107.328 
L 128.734722 101.952 
L 128.847693 107.328 
L 128.961568 101.952 
L 129.051041 128.832 
L 129.177568 177.216 
L 129.192932 171.84 
L 129.330304 177.216 
L 129.44689 220.224 
L 129.647526 214.848 
L 129.771342 225.6 
L 129.798455 236.352 
L 129.877083 230.976 
L 130.077719 236.352 
L 130.118389 247.104 
L 130.332581 241.728 
L 130.425669 257.856 
L 130.559427 252.48 
L 130.703125 257.856 
L 130.721201 263.232 
L 130.78808 257.856 
L 130.891109 263.232 
L 131.014021 257.856 
L 131.117954 263.232 
L 131.235444 257.856 
L 131.347511 263.232 
L 131.462289 257.856 
L 131.574356 263.232 
L 131.689135 257.856 
L 131.803009 263.232 
L 131.912365 257.856 
L 132.259411 268.608 
L 132.354307 263.232 
L 132.484449 268.608 
L 132.581152 263.232 
L 132.706775 268.608 
L 138.221557 263.232 
L 138.355315 268.608 
L 138.55324 193.344 
L 138.58216 198.72 
L 138.912035 187.968 
L 139.136169 182.592 
L 139.247332 187.968 
L 139.36211 182.592 
L 139.474177 187.968 
L 139.590763 182.592 
L 139.692889 187.968 
L 139.814897 182.592 
L 139.93781 225.6 
L 140.024571 257.856 
L 140.037224 252.48 
L 140.16827 257.856 
L 140.186345 263.232 
L 140.264069 257.856 
L 140.382463 263.232 
L 140.49453 257.856 
L 140.6075 263.232 
L 140.723182 257.856 
L 140.833442 263.232 
L 140.951835 257.856 
L 141.062095 263.232 
L 141.173258 257.856 
L 141.285325 263.232 
L 141.394681 257.856 
L 141.508555 263.232 
L 141.618815 257.856 
L 141.735401 263.232 
L 141.849275 257.856 
L 141.965861 263.232 
L 142.075217 257.856 
L 142.19361 263.232 
L 142.298447 257.856 
L 142.422263 263.232 
L 142.526196 257.856 
L 142.64459 263.232 
L 142.752138 257.856 
L 142.866012 263.232 
L 142.982598 257.856 
L 143.090146 263.232 
L 143.210347 257.856 
L 143.319703 263.232 
L 143.437193 257.856 
L 143.546548 263.232 
L 143.663134 257.856 
L 143.769779 263.232 
L 145.134466 295.488 
L 149.459891 290.112 
L 149.709331 193.344 
L 150.850788 166.464 
L 150.944779 177.216 
L 151.179759 263.232 
L 151.302671 257.856 
L 151.419257 263.232 
L 151.529516 257.856 
L 151.643391 263.232 
L 151.759977 257.856 
L 151.872044 263.232 
L 151.986822 257.856 
L 152.097081 263.232 
L 152.207341 257.856 
L 152.321215 263.232 
L 152.434186 257.856 
L 152.548964 263.232 
L 152.663743 257.856 
L 152.774002 263.232 
L 152.884262 257.856 
L 152.999944 263.232 
L 153.110203 257.856 
L 153.230404 263.232 
L 153.333434 257.856 
L 153.45725 263.232 
L 153.562087 257.856 
L 153.678672 263.232 
L 153.787124 257.856 
L 153.904614 263.232 
L 154.011258 257.856 
L 154.134171 263.232 
L 154.236296 257.856 
L 154.355593 263.232 
L 154.464045 257.856 
L 154.581535 263.232 
L 154.690891 257.856 
L 154.803861 263.232 
L 154.916832 257.856 
L 155.033418 263.232 
L 155.143678 257.856 
L 155.257552 263.232 
L 155.367812 257.856 
L 155.48259 263.232 
L 155.590138 257.856 
L 155.706724 263.232 
L 155.81608 257.856 
L 155.934473 263.232 
L 156.041117 257.856 
L 156.162222 263.232 
L 156.26977 257.856 
L 156.388164 263.232 
L 156.500231 257.856 
L 156.615009 263.232 
L 156.729787 257.856 
L 156.839143 263.232 
L 156.954825 257.856 
L 157.060566 263.232 
L 157.181671 257.856 
L 157.286507 263.232 
L 157.405805 257.856 
L 157.511545 263.232 
L 157.630842 257.856 
L 157.741102 263.232 
L 157.859495 257.856 
L 157.970659 263.232 
L 158.086341 257.856 
L 158.201119 263.232 
L 158.313186 257.856 
L 158.425253 263.232 
L 158.538224 257.856 
L 158.652098 263.232 
L 158.766877 257.856 
L 158.877136 263.232 
L 158.997337 257.856 
L 159.102174 263.232 
L 159.219664 257.856 
L 159.330827 263.232 
L 159.450124 257.856 
L 159.557672 263.232 
L 159.676066 257.856 
L 159.783614 263.232 
L 159.9002 257.856 
L 160.009555 263.232 
L 160.131564 257.856 
L 160.237304 263.232 
L 160.352083 257.856 
L 160.468669 263.232 
L 160.578928 257.856 
L 160.690995 263.232 
L 160.803062 257.856 
L 160.921456 263.232 
L 161.032619 257.856 
L 161.146493 263.232 
L 161.257657 257.856 
L 161.371531 263.232 
L 161.485406 257.856 
L 161.601992 263.232 
L 161.708636 257.856 
L 161.823414 263.232 
L 161.930962 257.856 
L 162.05026 263.232 
L 162.156 257.856 
L 162.274394 263.232 
L 162.382846 257.856 
L 162.50395 263.232 
L 162.609691 257.856 
L 162.728988 263.232 
L 162.839248 257.856 
L 162.956737 263.232 
L 163.065189 257.856 
L 163.179967 263.232 
L 163.284804 257.856 
L 163.402294 263.232 
L 163.510746 257.856 
L 163.627332 263.232 
L 163.733976 257.856 
L 163.853273 263.232 
L 163.957207 257.856 
L 164.081022 263.232 
L 164.181341 257.856 
L 164.310579 263.232 
L 164.411801 257.856 
L 164.535617 263.232 
L 164.633224 257.856 
L 164.755232 263.232 
L 164.860973 257.856 
L 164.981174 263.232 
L 165.079684 257.856 
L 165.205308 263.232 
L 165.30653 257.856 
L 165.428538 263.232 
L 165.533375 257.856 
L 165.652672 263.232 
L 165.759317 257.856 
L 165.882229 263.232 
L 165.982547 257.856 
L 166.103651 263.232 
L 166.205777 257.856 
L 166.332304 263.232 
L 166.430815 257.856 
L 166.551016 263.232 
L 166.655853 257.856 
L 166.777861 263.232 
L 166.884506 257.856 
L 167.004706 263.232 
L 167.113158 257.856 
L 167.229744 263.232 
L 167.337292 257.856 
L 167.453878 263.232 
L 167.563234 257.856 
L 167.676205 263.232 
L 167.788272 257.856 
L 167.902146 263.232 
L 168.01331 257.856 
L 168.12628 263.232 
L 168.232925 257.856 
L 168.355837 263.232 
L 168.457059 257.856 
L 168.58449 263.232 
L 168.682097 257.856 
L 168.80772 263.232 
L 168.91075 257.856 
L 169.034566 263.232 
L 169.137595 257.856 
L 169.2587 263.232 
L 169.359018 257.856 
L 169.484641 263.232 
L 169.590382 257.856 
L 169.704256 263.232 
L 169.817227 257.856 
L 169.92839 263.232 
L 170.042265 257.856 
L 170.152524 263.232 
L 170.265495 257.856 
L 170.382081 263.232 
L 170.491437 257.856 
L 170.608926 263.232 
L 170.72009 257.856 
L 170.829445 263.232 
L 172.191421 295.488 
L 176.369533 290.112 
L 176.57288 284.736 
L 176.809667 193.344 
L 177.704396 171.84 
L 177.839961 177.216 
L 177.924011 171.84 
L 178.057768 182.592 
L 178.280999 263.232 
L 178.375894 257.856 
L 178.505133 263.232 
L 178.599124 257.856 
L 178.728363 263.232 
L 178.821451 257.856 
L 178.951593 263.232 
L 179.045585 257.856 
L 179.175727 263.232 
L 179.276045 257.856 
L 179.395342 263.232 
L 179.507409 257.856 
L 179.619476 263.232 
L 179.736966 257.856 
L 179.847226 263.232 
L 179.962004 257.856 
L 180.070456 263.232 
L 180.187042 257.856 
L 180.292782 263.232 
L 180.408464 257.856 
L 180.516916 263.232 
L 180.638925 257.856 
L 180.746473 263.232 
L 180.867578 257.856 
L 180.978741 263.232 
L 181.090808 257.856 
L 181.433335 268.608 
L 182.561236 295.488 
L 187.436151 290.112 
L 187.673842 284.736 
L 187.897976 241.728 
L 188.868621 225.6 
L 188.905675 230.976 
L 189.143366 236.352 
L 189.366596 273.984 
L 189.489508 268.608 
L 189.707316 273.984 
L 189.800404 268.608 
L 190.019115 273.984 
L 190.106781 268.608 
L 190.337241 273.984 
L 190.419484 268.608 
L 190.651752 273.984 
L 190.739417 268.608 
L 190.958128 273.984 
L 191.053024 268.608 
L 191.269928 273.984 
L 191.360304 268.608 
L 191.576305 273.984 
L 191.669393 268.608 
L 191.888104 273.984 
L 191.984807 268.608 
L 192.521644 279.36 
L 192.608406 273.984 
L 192.828925 279.36 
L 192.926531 273.984 
L 193.138013 279.36 
L 193.246465 273.984 
L 193.454331 279.36 
L 193.555553 273.984 
L 193.867352 268.608 
L 194.077026 273.984 
L 194.181863 268.608 
L 194.395152 273.984 
L 194.490951 268.608 
L 194.715085 273.984 
L 194.814499 268.608 
L 195.024173 273.984 
L 195.133529 268.608 
L 195.335972 273.984 
L 195.448039 268.608 
L 195.650483 273.984 
L 195.766165 268.608 
L 195.959571 273.984 
L 197.234785 295.488 
L 202.088914 290.112 
L 203.360513 268.608 
L 203.557534 273.984 
L 203.673217 268.608 
L 203.874756 273.984 
L 203.995861 268.608 
L 204.193786 273.984 
L 204.318506 268.608 
L 204.504682 273.984 
L 204.63392 268.608 
L 204.830037 273.984 
L 204.949335 268.608 
L 205.141837 273.984 
L 205.262038 268.608 
L 205.465385 273.984 
L 205.582875 268.608 
L 205.787126 273.984 
L 205.900097 268.608 
L 206.10254 273.984 
L 206.2128 268.608 
L 206.417955 273.984 
L 206.530022 268.608 
L 206.730658 273.984 
L 206.852666 268.608 
L 207.051495 273.984 
L 207.171696 268.608 
L 207.368717 273.984 
L 207.489822 268.608 
L 207.68142 273.984 
L 207.807947 268.608 
L 207.998642 273.984 
L 208.123362 268.608 
L 208.321287 273.984 
L 208.445103 268.608 
L 208.64122 273.984 
L 208.761421 268.608 
L 208.958442 273.984 
L 210.230945 295.488 
L 214.537391 290.112 
L 214.789542 241.728 
L 215.727651 225.6 
L 216.007819 230.976 
L 216.258162 273.984 
L 216.350346 268.608 
L 216.565443 273.984 
L 216.664857 268.608 
L 216.889895 273.984 
L 216.985694 268.608 
L 217.197175 273.984 
L 217.30382 268.608 
L 217.51259 273.984 
L 217.614716 268.608 
L 217.818967 273.984 
L 217.931937 268.608 
L 218.133477 273.984 
L 218.250063 268.608 
L 218.454314 273.984 
L 218.558248 268.608 
L 218.77244 273.984 
L 218.870951 268.608 
L 219.083336 273.984 
L 219.184558 268.608 
L 219.400558 273.984 
L 219.502683 268.608 
L 224.98493 263.232 
L 225.182855 230.976 
L 225.382587 225.6 
L 225.50098 214.848 
L 225.762169 220.224 
L 225.817298 214.848 
L 226.075776 220.224 
L 226.129098 214.848 
L 226.394805 220.224 
L 226.535793 241.728 
L 226.651475 263.232 
L 226.768061 257.856 
L 226.921701 273.984 
L 226.9696 279.36 
L 227.087994 273.984 
L 227.285919 279.36 
L 227.40612 273.984 
L 227.597718 279.36 
L 228.237585 284.736 
L 228.87474 295.488 
L 229.749586 268.608 
L 230.286423 252.48 
L 235.821991 247.104 
L 236.010879 161.088 
L 236.103063 166.464 
L 236.261222 150.336 
L 236.282008 155.712 
L 236.440168 150.336 
L 236.462762 155.712 
L 236.624536 150.336 
L 236.642611 155.712 
L 236.802578 150.336 
L 236.820653 155.712 
L 236.981524 150.336 
L 236.999599 155.712 
L 237.164084 150.336 
L 237.48221 247.104 
L 237.524687 241.728 
L 237.732553 252.48 
L 237.886194 247.104 
L 237.911499 252.48 
L 238.063332 247.104 
L 238.095867 252.48 
L 238.243181 247.104 
L 238.273909 252.48 
L 238.422127 247.104 
L 238.451951 252.48 
L 238.606495 247.104 
L 238.635416 252.48 
L 238.785441 247.104 
L 238.815265 252.48 
L 238.967098 247.104 
L 238.996019 252.48 
L 239.144236 247.104 
L 239.173157 252.48 
L 239.319567 247.104 
L 239.356621 252.48 
L 239.50032 247.104 
L 239.534663 252.48 
L 239.683785 247.104 
L 239.714513 252.48 
L 239.861827 247.104 
L 239.893459 252.48 
L 240.046195 247.104 
L 240.077827 252.48 
L 240.226948 247.104 
L 240.256773 252.48 
L 241.69828 295.488 
L 281.404349 290.112 
L 282.833203 247.104 
L 282.87568 252.48 
L 283.009437 247.104 
L 283.053722 252.48 
L 283.189287 247.104 
L 283.231764 252.48 
L 283.371848 247.104 
L 283.409806 252.48 
L 283.553505 247.104 
L 283.589655 252.48 
L 283.735162 247.104 
L 283.76589 252.48 
L 283.9123 247.104 
L 283.946643 252.48 
L 284.093957 247.104 
L 284.122878 252.48 
L 284.276518 247.104 
L 284.304535 252.48 
L 284.459079 247.104 
L 284.480769 252.48 
L 284.643447 247.104 
L 284.660619 252.48 
L 284.827815 247.104 
L 284.843179 252.48 
L 285.008569 247.104 
L 285.024836 252.48 
L 285.192033 247.104 
L 285.206493 252.48 
L 285.371883 247.104 
L 285.383632 252.48 
L 285.550828 247.104 
L 285.565289 252.48 
L 285.729774 247.104 
L 285.747849 252.48 
L 285.915046 247.104 
L 285.93041 252.48 
L 286.095799 247.104 
L 286.114778 252.48 
L 286.275649 247.104 
L 286.299147 252.48 
L 286.455498 247.104 
L 286.4799 252.48 
L 286.638059 247.104 
L 286.663365 252.48 
L 286.815197 247.104 
L 286.843214 252.48 
L 286.991432 247.104 
L 287.02216 252.48 
L 287.173993 247.104 
L 287.201106 252.48 
L 287.353842 247.104 
L 287.386378 252.48 
L 287.535499 247.104 
L 287.567131 252.48 
L 287.719867 247.104 
L 287.74698 252.48 
L 287.901524 247.104 
L 287.92683 252.48 
L 288.084989 247.104 
L 288.108487 252.48 
L 288.265742 247.104 
L 288.286529 252.48 
L 288.447399 247.104 
L 288.462763 252.48 
L 288.630864 247.104 
L 288.645324 252.48 
L 288.80981 247.104 
L 288.825174 252.48 
L 288.993274 247.104 
L 289.006831 252.48 
L 289.171316 247.104 
L 289.191199 252.48 
L 289.353877 247.104 
L 289.372856 252.48 
L 289.53463 247.104 
L 289.555417 252.48 
L 289.718095 247.104 
L 289.737074 252.48 
L 289.894329 247.104 
L 289.918731 252.48 
L 306.320282 247.104 
L 306.369989 252.48 
L 306.479345 241.728 
L 306.645638 166.464 
L 306.732399 171.84 
L 306.862541 161.088 
L 307.095713 58.944 
L 307.226759 53.568 
L 307.273755 58.944 
L 307.405705 53.568 
L 307.45722 58.944 
L 307.588266 53.568 
L 307.633454 58.944 
L 307.77173 53.568 
L 307.791613 58.944 
L 307.939831 64.32 
L 307.947061 58.944 
L 308.003998 91.2 
L 308.116969 144.96 
L 308.128718 139.584 
L 308.309471 134.208 
L 308.43148 193.344 
L 308.491128 187.968 
L 308.660133 193.344 
L 308.692668 204.096 
L 308.855346 198.72 
L 308.982777 204.096 
L 309.016217 220.224 
L 309.037003 214.848 
L 309.222275 209.472 
L 309.334342 220.224 
L 309.356033 230.976 
L 309.403029 225.6 
L 309.587397 220.224 
L 309.681389 230.976 
L 309.703983 241.728 
L 309.764535 236.352 
L 309.946192 230.976 
L 310.129657 247.104 
L 310.307699 241.728 
L 310.357406 252.48 
L 310.488452 247.104 
L 310.508335 252.48 
L 310.666494 247.104 
L 310.693607 252.48 
L 310.843632 247.104 
L 310.87436 252.48 
L 311.026193 247.104 
L 311.058728 252.48 
L 311.206946 247.104 
L 311.234963 252.48 
L 311.384988 247.104 
L 311.417524 252.48 
L 311.567549 247.104 
L 311.594662 252.48 
L 311.749206 247.104 
L 311.77903 252.48 
L 311.92544 247.104 
L 311.959783 252.48 
L 312.104386 247.104 
L 312.137825 252.48 
L 312.285139 247.104 
L 312.314964 252.48 
L 312.461374 247.104 
L 312.497524 252.48 
L 312.644838 247.104 
L 312.678278 252.48 
L 312.828303 247.104 
L 312.85632 252.48 
L 313.012671 247.104 
L 313.03888 252.48 
L 313.192521 247.104 
L 313.220537 252.48 
L 313.375985 247.104 
L 313.396772 252.48 
L 313.574814 257.856 
L 313.73478 252.48 
L 313.756471 257.856 
L 313.918245 252.48 
L 313.932705 257.856 
L 314.100806 252.48 
L 314.11617 257.856 
L 314.27704 252.48 
L 314.298731 257.856 
L 314.455986 252.48 
L 314.484003 257.856 
L 314.636739 252.48 
L 314.663852 257.856 
L 314.818396 252.48 
L 314.847317 257.856 
L 315.177191 247.104 
L 315.206112 252.48 
L 315.356137 247.104 
L 315.389576 252.48 
L 315.533275 247.104 
L 315.572137 252.48 
L 315.71674 247.104 
L 315.748372 252.48 
L 315.896589 247.104 
L 315.927317 252.48 
L 316.07915 247.104 
L 316.107167 252.48 
L 316.264422 247.104 
L 316.289728 252.48 
L 316.444272 247.104 
L 316.469577 252.48 
L 316.625025 247.104 
L 316.648523 252.48 
L 316.805778 247.104 
L 316.827469 252.48 
L 316.987435 247.104 
L 317.004607 252.48 
L 322.588075 247.104 
L 322.610669 252.48 
L 322.736293 247.104 
L 322.915238 166.464 
L 322.97308 171.84 
L 323.323741 155.712 
L 323.338201 161.088 
L 323.506302 155.712 
L 323.518954 161.088 
L 323.689766 155.712 
L 323.699708 161.088 
L 323.873231 155.712 
L 323.881365 161.088 
L 324.057599 155.712 
L 324.059407 161.088 
L 324.207624 166.464 
L 324.410068 247.104 
L 324.417298 241.728 
L 324.613415 252.48 
L 324.780612 247.104 
L 324.794169 252.48 
L 324.964077 247.104 
L 324.977633 252.48 
L 325.143926 247.104 
L 325.161098 252.48 
L 325.323776 247.104 
L 325.343659 252.48 
L 325.50724 247.104 
L 325.528931 252.48 
L 325.685282 247.104 
L 325.709684 252.48 
L 325.868747 247.104 
L 325.88863 252.48 
L 326.051308 247.104 
L 326.068479 252.48 
L 326.227542 247.104 
L 326.251944 252.48 
L 326.410103 247.104 
L 326.435408 252.48 
L 326.593567 247.104 
L 326.615258 252.48 
L 326.771609 247.104 
L 326.795107 252.48 
L 326.977668 257.856 
L 327.134923 252.48 
L 327.156614 257.856 
L 327.321099 252.48 
L 327.340078 257.856 
L 327.501852 252.48 
L 327.521735 257.856 
L 327.688028 252.48 
L 327.698873 257.856 
L 327.870589 252.48 
L 327.881434 257.856 
L 328.052246 252.48 
L 328.064899 257.856 
L 328.229384 252.48 
L 328.242941 257.856 
L 328.594506 247.104 
L 328.777067 252.48 
L 328.778874 247.104 
L 330.218574 204.096 
L 330.306239 214.848 
L 330.32793 225.6 
L 330.398423 220.224 
L 330.582792 214.848 
L 330.651478 236.352 
L 330.759026 230.976 
L 330.942491 230.976 
L 330.974123 247.104 
L 331.120533 241.728 
L 331.264232 247.104 
L 331.33111 252.48 
L 331.478424 247.104 
L 331.610374 252.48 
L 331.655562 247.104 
L 331.689905 252.48 
L 331.836316 247.104 
L 331.869755 252.48 
L 332.014358 247.104 
L 332.05322 252.48 
L 332.193303 247.104 
L 332.230358 252.48 
L 332.372249 247.104 
L 332.413822 252.48 
L 332.548483 247.104 
L 332.591864 252.48 
L 332.731044 247.104 
L 332.77081 252.48 
L 332.914509 247.104 
L 332.949756 252.48 
L 333.099781 247.104 
L 333.126894 252.48 
L 333.277823 247.104 
L 333.307647 252.48 
L 333.457672 247.104 
L 333.485689 252.48 
L 333.634811 247.104 
L 333.664635 252.48 
L 333.817371 247.104 
L 333.842677 252.48 
L 333.996317 247.104 
L 334.019815 252.48 
L 334.17707 247.104 
L 334.202376 252.48 
L 334.360535 247.104 
L 334.38584 252.48 
L 334.541288 247.104 
L 334.570209 252.48 
L 334.72656 247.104 
L 334.749154 252.48 
L 334.907314 247.104 
L 334.929004 252.48 
L 335.086259 247.104 
L 335.106142 252.48 
L 335.267916 247.104 
L 335.288703 252.48 
L 335.445958 247.104 
L 335.467649 252.48 
L 335.624904 247.104 
L 335.648402 252.48 
L 335.805657 247.104 
L 335.831866 252.48 
L 335.982795 247.104 
L 336.01262 252.48 
L 336.16626 247.104 
L 336.197892 252.48 
L 336.347917 247.104 
L 336.378645 252.48 
L 336.526863 247.104 
L 336.557591 252.48 
L 336.707616 247.104 
L 336.739248 252.48 
L 336.886562 247.104 
L 336.91729 252.48 
L 337.060989 247.104 
L 337.096235 252.48 
L 337.241742 247.104 
L 337.276989 252.48 
L 337.425206 247.104 
L 337.453223 252.48 
L 337.603248 247.104 
L 337.637591 252.48 
L 337.785809 247.104 
L 337.819249 252.48 
L 337.969274 247.104 
L 337.998194 252.48 
L 338.153642 247.104 
L 338.178948 252.48 
L 338.337107 247.104 
L 338.357893 252.48 
L 338.51786 247.104 
L 338.53232 252.48 
L 338.699517 247.104 
L 338.713073 252.48 
L 338.883885 247.104 
L 338.896538 252.48 
L 339.068254 247.104 
L 339.07458 252.48 
L 339.252622 247.104 
L 339.257141 252.48 
L 339.434279 247.104 
L 339.440605 252.48 
L 339.615936 247.104 
L 339.624974 252.48 
L 339.797593 247.104 
L 339.808438 252.48 
L 339.978346 247.104 
L 339.989191 252.48 
L 340.157292 247.104 
L 340.170848 252.48 
L 340.336238 247.104 
L 340.355217 252.48 
L 340.517895 247.104 
L 340.539585 252.48 
L 340.701359 247.104 
L 340.723953 252.48 
L 340.883016 247.104 
L 340.90561 252.48 
L 341.06377 247.104 
L 341.086364 252.48 
L 341.243619 247.104 
L 341.268924 252.48 
L 342.535101 290.112 
L 342.694164 284.736 
L 342.714951 290.112 
L 343.959437 268.608 
L 344.162784 273.984 
L 344.269429 268.608 
L 344.484525 273.984 
L 344.583939 268.608 
L 344.806266 273.984 
L 344.906584 268.608 
L 345.118969 273.984 
L 345.225613 268.608 
L 345.428057 273.984 
L 345.543739 268.608 
L 345.738049 273.984 
L 345.859154 268.608 
L 346.05256 273.984 
L 346.174568 268.608 
L 346.375204 273.984 
L 346.485464 268.608 
L 346.694234 273.984 
L 346.806301 268.608 
L 347.012359 273.984 
L 347.114485 268.608 
L 347.327774 273.984 
L 347.428996 268.608 
L 347.644092 273.984 
L 347.747121 268.608 
L 347.954988 273.984 
L 348.056209 268.608 
L 348.274921 273.984 
L 348.376143 268.608 
L 348.583105 273.984 
L 348.696076 268.608 
L 348.897616 273.984 
L 349.015105 268.608 
L 349.216645 273.984 
L 349.328712 268.608 
L 349.52483 273.984 
L 349.647742 268.608 
L 349.845667 273.984 
L 349.963156 268.608 
L 350.164696 273.984 
L 350.278571 268.608 
L 350.483726 273.984 
L 350.593985 268.608 
L 350.798236 273.984 
L 350.917534 268.608 
L 351.116362 273.984 
L 351.230237 268.608 
L 351.431777 273.984 
L 351.55017 268.608 
L 351.747191 273.984 
L 351.871911 268.608 
L 352.063509 273.984 
L 352.191844 268.608 
L 352.386154 273.984 
L 352.507258 268.608 
L 352.698857 273.984 
L 353.01879 279.36 
L 353.146221 273.984 
L 353.340531 279.36 
L 353.461636 273.984 
L 353.660464 279.36 
L 353.772531 273.984 
L 353.975879 279.36 
L 354.087946 273.984 
L 354.402456 268.608 
L 354.615745 273.984 
L 354.724197 268.608 
L 354.930256 273.984 
L 355.045938 268.608 
L 355.241151 273.984 
L 355.355026 268.608 
L 355.55747 273.984 
L 355.672248 268.608 
L 355.87198 273.984 
L 355.983144 268.608 
L 356.192817 273.984 
L 356.301269 268.608 
L 356.514558 273.984 
L 356.620299 268.608 
L 356.823646 273.984 
L 356.93481 268.608 
L 357.141772 273.984 
L 357.247513 268.608 
L 357.452668 273.984 
L 357.557505 268.608 
L 357.76989 273.984 
L 357.873823 268.608 
L 358.088919 273.984 
L 358.189237 268.608 
L 358.40343 273.984 
L 358.511882 268.608 
L 358.716133 273.984 
L 358.824585 268.608 
L 359.027029 273.984 
L 359.145422 268.608 
L 359.342443 273.984 
L 359.46174 268.608 
L 359.657857 273.984 
L 359.980502 279.36 
L 360.097088 273.984 
L 360.293205 279.36 
L 360.411598 273.984 
L 360.614042 279.36 
L 360.727013 273.984 
L 360.93036 279.36 
L 361.362361 273.984 
L 361.565708 279.36 
L 361.881123 284.736 
L 362.005842 279.36 
L 362.196537 284.736 
L 362.320353 279.36 
L 362.632152 273.984 
L 362.831885 279.36 
L 362.943952 273.984 
L 363.257559 268.608 
L 363.474462 273.984 
L 363.574781 268.608 
L 363.788973 273.984 
L 363.890195 268.608 
L 364.100773 273.984 
L 364.209224 268.608 
L 364.412572 273.984 
L 364.526446 268.608 
L 364.726179 273.984 
L 364.845476 268.608 
L 365.043401 273.984 
L 365.156372 268.608 
L 365.358815 273.984 
L 365.47269 268.608 
L 365.677845 273.984 
L 365.795334 268.608 
L 365.99597 273.984 
L 366.111653 268.608 
L 366.315 273.984 
L 366.428875 268.608 
L 366.625896 273.984 
L 366.741578 268.608 
L 366.942214 273.984 
L 367.063318 268.608 
L 367.264858 273.984 
L 367.378733 268.608 
L 367.580273 273.984 
L 367.700474 268.608 
L 367.897495 273.984 
L 368.021311 268.608 
L 368.211102 273.984 
L 368.335821 268.608 
L 368.531939 273.984 
L 368.65214 268.608 
L 368.847353 273.984 
L 368.964843 268.608 
L 369.169094 273.984 
L 369.275738 268.608 
L 369.489931 273.984 
L 369.592057 268.608 
L 369.805345 273.984 
L 369.912894 268.608 
L 370.12076 273.984 
L 370.227404 268.608 
L 370.433463 273.984 
L 370.542819 268.608 
L 370.745262 273.984 
L 370.860944 268.608 
L 371.060677 273.984 
L 371.17184 268.608 
L 371.381514 273.984 
L 371.487255 268.608 
L 371.696025 273.984 
L 371.807188 268.608 
L 372.011439 273.984 
L 372.123506 268.608 
L 372.330468 273.984 
L 372.441632 268.608 
L 372.641364 273.984 
L 372.758854 268.608 
L 372.955875 273.984 
L 373.074268 268.608 
L 373.275808 273.984 
L 373.386971 268.608 
L 373.592126 273.984 
L 373.705097 268.608 
L 373.910252 273.984 
L 374.025934 268.608 
L 374.227474 273.984 
L 374.341348 268.608 
L 374.542888 273.984 
L 374.656763 268.608 
L 374.855592 273.984 
L 374.972177 268.608 
L 375.173717 273.984 
L 375.287592 268.608 
L 375.495458 273.984 
L 375.602102 268.608 
L 375.809969 273.984 
L 375.921132 268.608 
L 376.125383 273.984 
L 376.233835 268.608 
L 376.440798 273.984 
L 376.547442 268.608 
L 377.070723 279.36 
L 378.016062 295.488 
L 393.48583 290.112 
L 393.711772 284.736 
L 393.947655 193.344 
L 394.859555 171.84 
L 394.957162 177.216 
L 395.087304 171.84 
L 395.19666 182.592 
L 395.418082 263.232 
L 395.542802 257.856 
L 395.639505 263.232 
L 395.768744 257.856 
L 395.868158 263.232 
L 395.997397 257.856 
L 396.099522 263.232 
L 396.226953 257.856 
L 396.330886 263.232 
L 396.447472 257.856 
L 396.557732 263.232 
L 396.670702 257.856 
L 396.783673 263.232 
L 396.896644 257.856 
L 397.014134 263.232 
L 397.121682 257.856 
L 397.240075 263.232 
L 397.350335 257.856 
L 397.468728 263.232 
L 397.575373 257.856 
L 397.697381 263.232 
L 397.805833 257.856 
L 397.9179 263.232 
L 398.032678 257.856 
L 398.142034 263.232 
L 398.254101 257.856 
L 398.367976 263.232 
L 398.487273 257.856 
L 398.487273 257.856 
" clip-path="url(#p66cff59d8a)" style="fill: none; stroke: #1f77b4; stroke-width: 1.5; stroke-linecap: square"/>
   </g>
   <g id="patch_3">
    <path d="M 57.6 307.584 
L 57.6 41.472 
" style="fill: none; stroke: #000000; stroke-width: 0.8; stroke-linejoin: miter; stroke-linecap: square"/>
   </g>
   <g id="patch_4">
    <path d="M 414.72 307.584 
L 414.72 41.472 
" style="fill: none; stroke: #000000; stroke-width: 0.8; stroke-linejoin: miter; stroke-linecap: square"/>
   </g>
   <g id="patch_5">
    <path d="M 57.6 307.584 
L 414.72 307.584 
" style="fill: none; stroke: #000000; stroke-width: 0.8; stroke-linejoin: miter; stroke-linecap: square"/>
   </g>
   <g id="patch_6">
    <path d="M 57.6 41.472 
L 414.72 41.472 
" style="fill: none; stroke: #000000; stroke-width: 0.8; stroke-linejoin: miter; stroke-linecap: square"/>
   </g>
   <g id="text_15">
    <!-- Queue size (y-axis) between S4 and sensors that follow at a time (x-axis). -->
    <g transform="translate(14.282813 35.472) scale(0.12 -0.12)">
     <defs>
      <path id="DejaVuSans-51" d="M 2522 4238 
Q 1834 4238 1429 3725 
Q 1025 3213 1025 2328 
Q 1025 1447 1429 934 
Q 1834 422 2522 422 
Q 3209 422 3611 934 
Q 4013 1447 4013 2328 
Q 4013 3213 3611 3725 
Q 3209 4238 2522 4238 
z
M 3406 84 
L 4238 -825 
L 3475 -825 
L 2784 -78 
Q 2681 -84 2626 -87 
Q 2572 -91 2522 -91 
Q 1538 -91 948 567 
Q 359 1225 359 2328 
Q 359 3434 948 4092 
Q 1538 4750 2522 4750 
Q 3503 4750 4090 4092 
Q 4678 3434 4678 2328 
Q 4678 1516 4351 937 
Q 4025 359 3406 84 
z
" transform="scale(0.015625)"/>
      <path id="DejaVuSans-75" d="M 544 1381 
L 544 3500 
L 1119 3500 
L 1119 1403 
Q 1119 906 1312 657 
Q 1506 409 1894 409 
Q 2359 409 2629 706 
Q 2900 1003 2900 1516 
L 2900 3500 
L 3475 3500 
L 3475 0 
L 2900 0 
L 2900 538 
Q 2691 219 2414 64 
Q 2138 -91 1772 -91 
Q 1169 -91 856 284 
Q 544 659 544 1381 
z
M 1991 3584 
L 1991 3584 
z
" transform="scale(0.015625)"/>
      <path id="DejaVuSans-20" transform="scale(0.015625)"/>
      <path id="DejaVuSans-73" d="M 2834 3397 
L 2834 2853 
Q 2591 2978 2328 3040 
Q 2066 3103 1784 3103 
Q 1356 3103 1142 2972 
Q 928 2841 928 2578 
Q 928 2378 1081 2264 
Q 1234 2150 1697 2047 
L 1894 2003 
Q 2506 1872 2764 1633 
Q 3022 1394 3022 966 
Q 3022 478 2636 193 
Q 2250 -91 1575 -91 
Q 1294 -91 989 -36 
Q 684 19 347 128 
L 347 722 
Q 666 556 975 473 
Q 1284 391 1588 391 
Q 1994 391 2212 530 
Q 2431 669 2431 922 
Q 2431 1156 2273 1281 
Q 2116 1406 1581 1522 
L 1381 1569 
Q 847 1681 609 1914 
Q 372 2147 372 2553 
Q 372 3047 722 3315 
Q 1072 3584 1716 3584 
Q 2034 3584 2315 3537 
Q 2597 3491 2834 3397 
z
" transform="scale(0.015625)"/>
      <path id="DejaVuSans-69" d="M 603 3500 
L 1178 3500 
L 1178 0 
L 603 0 
L 603 3500 
z
M 603 4863 
L 1178 4863 
L 1178 4134 
L 603 4134 
L 603 4863 
z
" transform="scale(0.015625)"/>
      <path id="DejaVuSans-7a" d="M 353 3500 
L 3084 3500 
L 3084 2975 
L 922 459 
L 3084 459 
L 3084 0 
L 275 0 
L 275 525 
L 2438 3041 
L 353 3041 
L 353 3500 
z
" transform="scale(0.015625)"/>
      <path id="DejaVuSans-28" d="M 1984 4856 
Q 1566 4138 1362 3434 
Q 1159 2731 1159 2009 
Q 1159 1288 1364 580 
Q 1569 -128 1984 -844 
L 1484 -844 
Q 1016 -109 783 600 
Q 550 1309 550 2009 
Q 550 2706 781 3412 
Q 1013 4119 1484 4856 
L 1984 4856 
z
" transform="scale(0.015625)"/>
      <path id="DejaVuSans-79" d="M 2059 -325 
Q 1816 -950 1584 -1140 
Q 1353 -1331 966 -1331 
L 506 -1331 
L 506 -850 
L 844 -850 
Q 1081 -850 1212 -737 
Q 1344 -625 1503 -206 
L 1606 56 
L 191 3500 
L 800 3500 
L 1894 763 
L 2988 3500 
L 3597 3500 
L 2059 -325 
z
" transform="scale(0.015625)"/>
      <path id="DejaVuSans-2d" d="M 313 2009 
L 1997 2009 
L 1997 1497 
L 313 1497 
L 313 2009 
z
" transform="scale(0.015625)"/>
      <path id="DejaVuSans-61" d="M 2194 1759 
Q 1497 1759 1228 1600 
Q 959 1441 959 1056 
Q 959 750 1161 570 
Q 1363 391 1709 391 
Q 2188 391 2477 730 
Q 2766 1069 2766 1631 
L 2766 1759 
L 2194 1759 
z
M 3341 1997 
L 3341 0 
L 2766 0 
L 2766 531 
Q 2569 213 2275 61 
Q 1981 -91 1556 -91 
Q 1019 -91 701 211 
Q 384 513 384 1019 
Q 384 1609 779 1909 
Q 1175 2209 1959 2209 
L 2766 2209 
L 2766 2266 
Q 2766 2663 2505 2880 
Q 2244 3097 1772 3097 
Q 1472 3097 1187 3025 
Q 903 2953 641 2809 
L 641 3341 
Q 956 3463 1253 3523 
Q 1550 3584 1831 3584 
Q 2591 3584 2966 3190 
Q 3341 2797 3341 1997 
z
" transform="scale(0.015625)"/>
      <path id="DejaVuSans-78" d="M 3513 3500 
L 2247 1797 
L 3578 0 
L 2900 0 
L 1881 1375 
L 863 0 
L 184 0 
L 1544 1831 
L 300 3500 
L 978 3500 
L 1906 2253 
L 2834 3500 
L 3513 3500 
z
" transform="scale(0.015625)"/>
      <path id="DejaVuSans-29" d="M 513 4856 
L 1013 4856 
Q 1481 4119 1714 3412 
Q 1947 2706 1947 2009 
Q 1947 1309 1714 600 
Q 1481 -109 1013 -844 
L 513 -844 
Q 928 -128 1133 580 
Q 1338 1288 1338 2009 
Q 1338 2731 1133 3434 
Q 928 4138 513 4856 
z
" transform="scale(0.015625)"/>
      <path id="DejaVuSans-62" d="M 3116 1747 
Q 3116 2381 2855 2742 
Q 2594 3103 2138 3103 
Q 1681 3103 1420 2742 
Q 1159 2381 1159 1747 
Q 1159 1113 1420 752 
Q 1681 391 2138 391 
Q 2594 391 2855 752 
Q 3116 1113 3116 1747 
z
M 1159 2969 
Q 1341 3281 1617 3432 
Q 1894 3584 2278 3584 
Q 2916 3584 3314 3078 
Q 3713 2572 3713 1747 
Q 3713 922 3314 415 
Q 2916 -91 2278 -91 
Q 1894 -91 1617 61 
Q 1341 213 1159 525 
L 1159 0 
L 581 0 
L 581 4863 
L 1159 4863 
L 1159 2969 
z
" transform="scale(0.015625)"/>
      <path id="DejaVuSans-74" d="M 1172 4494 
L 1172 3500 
L 2356 3500 
L 2356 3053 
L 1172 3053 
L 1172 1153 
Q 1172 725 1289 603 
Q 1406 481 1766 481 
L 2356 481 
L 2356 0 
L 1766 0 
Q 1100 0 847 248 
Q 594 497 594 1153 
L 594 3053 
L 172 3053 
L 172 3500 
L 594 3500 
L 594 4494 
L 1172 4494 
z
" transform="scale(0.015625)"/>
      <path id="DejaVuSans-77" d="M 269 3500 
L 844 3500 
L 1563 769 
L 2278 3500 
L 2956 3500 
L 3675 769 
L 4391 3500 
L 4966 3500 
L 4050 0 
L 3372 0 
L 2619 2869 
L 1863 0 
L 1184 0 
L 269 3500 
z
" transform="scale(0.015625)"/>
      <path id="DejaVuSans-6e" d="M 3513 2113 
L 3513 0 
L 2938 0 
L 2938 2094 
Q 2938 2591 2744 2837 
Q 2550 3084 2163 3084 
Q 1697 3084 1428 2787 
Q 1159 2491 1159 1978 
L 1159 0 
L 581 0 
L 581 3500 
L 1159 3500 
L 1159 2956 
Q 1366 3272 1645 3428 
Q 1925 3584 2291 3584 
Q 2894 3584 3203 3211 
Q 3513 2838 3513 2113 
z
" transform="scale(0.015625)"/>
      <path id="DejaVuSans-53" d="M 3425 4513 
L 3425 3897 
Q 3066 4069 2747 4153 
Q 2428 4238 2131 4238 
Q 1616 4238 1336 4038 
Q 1056 3838 1056 3469 
Q 1056 3159 1242 3001 
Q 1428 2844 1947 2747 
L 2328 2669 
Q 3034 2534 3370 2195 
Q 3706 1856 3706 1288 
Q 3706 609 3251 259 
Q 2797 -91 1919 -91 
Q 1588 -91 1214 -16 
Q 841 59 441 206 
L 441 856 
Q 825 641 1194 531 
Q 1563 422 1919 422 
Q 2459 422 2753 634 
Q 3047 847 3047 1241 
Q 3047 1584 2836 1778 
Q 2625 1972 2144 2069 
L 1759 2144 
Q 1053 2284 737 2584 
Q 422 2884 422 3419 
Q 422 4038 858 4394 
Q 1294 4750 2059 4750 
Q 2388 4750 2728 4690 
Q 3069 4631 3425 4513 
z
" transform="scale(0.015625)"/>
      <path id="DejaVuSans-64" d="M 2906 2969 
L 2906 4863 
L 3481 4863 
L 3481 0 
L 2906 0 
L 2906 525 
Q 2725 213 2448 61 
Q 2172 -91 1784 -91 
Q 1150 -91 751 415 
Q 353 922 353 1747 
Q 353 2572 751 3078 
Q 1150 3584 1784 3584 
Q 2172 3584 2448 3432 
Q 2725 3281 2906 2969 
z
M 947 1747 
Q 947 1113 1208 752 
Q 1469 391 1925 391 
Q 2381 391 2643 752 
Q 2906 1113 2906 1747 
Q 2906 2381 2643 2742 
Q 2381 3103 1925 3103 
Q 1469 3103 1208 2742 
Q 947 2381 947 1747 
z
" transform="scale(0.015625)"/>
      <path id="DejaVuSans-6f" d="M 1959 3097 
Q 1497 3097 1228 2736 
Q 959 2375 959 1747 
Q 959 1119 1226 758 
Q 1494 397 1959 397 
Q 2419 397 2687 759 
Q 2956 1122 2956 1747 
Q 2956 2369 2687 2733 
Q 2419 3097 1959 3097 
z
M 1959 3584 
Q 2709 3584 3137 3096 
Q 3566 2609 3566 1747 
Q 3566 888 3137 398 
Q 2709 -91 1959 -91 
Q 1206 -91 779 398 
Q 353 888 353 1747 
Q 353 2609 779 3096 
Q 1206 3584 1959 3584 
z
" transform="scale(0.015625)"/>
      <path id="DejaVuSans-72" d="M 2631 2963 
Q 2534 3019 2420 3045 
Q 2306 3072 2169 3072 
Q 1681 3072 1420 2755 
Q 1159 2438 1159 1844 
L 1159 0 
L 581 0 
L 581 3500 
L 1159 3500 
L 1159 2956 
Q 1341 3275 1631 3429 
Q 1922 3584 2338 3584 
Q 2397 3584 2469 3576 
Q 2541 3569 2628 3553 
L 2631 2963 
z
" transform="scale(0.015625)"/>
      <path id="DejaVuSans-68" d="M 3513 2113 
L 3513 0 
L 2938 0 
L 2938 2094 
Q 2938 2591 2744 2837 
Q 2550 3084 2163 3084 
Q 1697 3084 1428 2787 
Q 1159 2491 1159 1978 
L 1159 0 
L 581 0 
L 581 4863 
L 1159 4863 
L 1159 2956 
Q 1366 3272 1645 3428 
Q 1925 3584 2291 3584 
Q 2894 3584 3203 3211 
Q 3513 2838 3513 2113 
z
" transform="scale(0.015625)"/>
      <path id="DejaVuSans-66" d="M 2375 4863 
L 2375 4384 
L 1825 4384 
Q 1516 4384 1395 4259 
Q 1275 4134 1275 3809 
L 1275 3500 
L 2222 3500 
L 2222 3053 
L 1275 3053 
L 1275 0 
L 697 0 
L 697 3053 
L 147 3053 
L 147 3500 
L 697 3500 
L 697 3744 
Q 697 4328 969 4595 
Q 1241 4863 1831 4863 
L 2375 4863 
z
" transform="scale(0.015625)"/>
      <path id="DejaVuSans-6c" d="M 603 4863 
L 1178 4863 
L 1178 0 
L 603 0 
L 603 4863 
z
" transform="scale(0.015625)"/>
      <path id="DejaVuSans-6d" d="M 3328 2828 
Q 3544 3216 3844 3400 
Q 4144 3584 4550 3584 
Q 5097 3584 5394 3201 
Q 5691 2819 5691 2113 
L 5691 0 
L 5113 0 
L 5113 2094 
Q 5113 2597 4934 2840 
Q 4756 3084 4391 3084 
Q 3944 3084 3684 2787 
Q 3425 2491 3425 1978 
L 3425 0 
L 2847 0 
L 2847 2094 
Q 2847 2600 2669 2842 
Q 2491 3084 2119 3084 
Q 1678 3084 1418 2786 
Q 1159 2488 1159 1978 
L 1159 0 
L 581 0 
L 581 3500 
L 1159 3500 
L 1159 2956 
Q 1356 3278 1631 3431 
Q 1906 3584 2284 3584 
Q 2666 3584 2933 3390 
Q 3200 3197 3328 2828 
z
" transform="scale(0.015625)"/>
     </defs>
     <use xlink:href="#DejaVuSans-51"/>
     <use xlink:href="#DejaVuSans-75" x="78.710938"/>
     <use xlink:href="#DejaVuSans-65" x="142.089844"/>
     <use xlink:href="#DejaVuSans-75" x="203.613281"/>
     <use xlink:href="#DejaVuSans-65" x="266.992188"/>
     <use xlink:href="#DejaVuSans-20" x="328.515625"/>
     <use xlink:href="#DejaVuSans-73" x="360.302734"/>
     <use xlink:href="#DejaVuSans-69" x="412.402344"/>
     <use xlink:href="#DejaVuSans-7a" x="440.185547"/>
     <use xlink:href="#DejaVuSans-65" x="492.675781"/>
     <use xlink:href="#DejaVuSans-20" x="554.199219"/>
     <use xlink:href="#DejaVuSans-28" x="585.986328"/>
     <use xlink:href="#DejaVuSans-79" x="625"/>
     <use xlink:href="#DejaVuSans-2d" x="682.429688"/>
     <use xlink:href="#DejaVuSans-61" x="718.513672"/>
     <use xlink:href="#DejaVuSans-78" x="779.792969"/>
     <use xlink:href="#DejaVuSans-69" x="838.972656"/>
     <use xlink:href="#DejaVuSans-73" x="866.755859"/>
     <use xlink:href="#DejaVuSans-29" x="918.855469"/>
     <use xlink:href="#DejaVuSans-20" x="957.869141"/>
     <use xlink:href="#DejaVuSans-62" x="989.65625"/>
     <use xlink:href="#DejaVuSans-65" x="1053.132812"/>
     <use xlink:href="#DejaVuSans-74" x="1114.65625"/>
     <use xlink:href="#DejaVuSans-77" x="1153.865234"/>
     <use xlink:href="#DejaVuSans-65" x="1235.652344"/>
     <use xlink:href="#DejaVuSans-65" x="1297.175781"/>
     <use xlink:href="#DejaVuSans-6e" x="1358.699219"/>
     <use xlink:href="#DejaVuSans-20" x="1422.078125"/>
     <use xlink:href="#DejaVuSans-53" x="1453.865234"/>
     <use xlink:href="#DejaVuSans-34" x="1517.341797"/>
     <use xlink:href="#DejaVuSans-20" x="1580.964844"/>
     <use xlink:href="#DejaVuSans-61" x="1612.751953"/>
     <use xlink:href="#DejaVuSans-6e" x="1674.03125"/>
     <use xlink:href="#DejaVuSans-64" x="1737.410156"/>
     <use xlink:href="#DejaVuSans-20" x="1800.886719"/>
     <use xlink:href="#DejaVuSans-73" x="1832.673828"/>
     <use xlink:href="#DejaVuSans-65" x="1884.773438"/>
     <use xlink:href="#DejaVuSans-6e" x="1946.296875"/>
     <use xlink:href="#DejaVuSans-73" x="2009.675781"/>
     <use xlink:href="#DejaVuSans-6f" x="2061.775391"/>
     <use xlink:href="#DejaVuSans-72" x="2122.957031"/>
     <use xlink:href="#DejaVuSans-73" x="2164.070312"/>
     <use xlink:href="#DejaVuSans-20" x="2216.169922"/>
     <use xlink:href="#DejaVuSans-74" x="2247.957031"/>
     <use xlink:href="#DejaVuSans-68" x="2287.166016"/>
     <use xlink:href="#DejaVuSans-61" x="2350.544922"/>
     <use xlink:href="#DejaVuSans-74" x="2411.824219"/>
     <use xlink:href="#DejaVuSans-20" x="2451.033203"/>
     <use xlink:href="#DejaVuSans-66" x="2482.820312"/>
     <use xlink:href="#DejaVuSans-6f" x="2518.025391"/>
     <use xlink:href="#DejaVuSans-6c" x="2579.207031"/>
     <use xlink:href="#DejaVuSans-6c" x="2606.990234"/>
     <use xlink:href="#DejaVuSans-6f" x="2634.773438"/>
     <use xlink:href="#DejaVuSans-77" x="2695.955078"/>
     <use xlink:href="#DejaVuSans-20" x="2777.742188"/>
     <use xlink:href="#DejaVuSans-61" x="2809.529297"/>
     <use xlink:href="#DejaVuSans-74" x="2870.808594"/>
     <use xlink:href="#DejaVuSans-20" x="2910.017578"/>
     <use xlink:href="#DejaVuSans-61" x="2941.804688"/>
     <use xlink:href="#DejaVuSans-20" x="3003.083984"/>
     <use xlink:href="#DejaVuSans-74" x="3034.871094"/>
     <use xlink:href="#DejaVuSans-69" x="3074.080078"/>
     <use xlink:href="#DejaVuSans-6d" x="3101.863281"/>
     <use xlink:href="#DejaVuSans-65" x="3199.275391"/>
     <use xlink:href="#DejaVuSans-20" x="3260.798828"/>
     <use xlink:href="#DejaVuSans-28" x="3292.585938"/>
     <use xlink:href="#DejaVuSans-78" x="3331.599609"/>
     <use xlink:href="#DejaVuSans-2d" x="3390.779297"/>
     <use xlink:href="#DejaVuSans-61" x="3426.863281"/>
     <use xlink:href="#DejaVuSans-78" x="3488.142578"/>
     <use xlink:href="#DejaVuSans-69" x="3547.322266"/>
     <use xlink:href="#DejaVuSans-73" x="3575.105469"/>
     <use xlink:href="#DejaVuSans-29" x="3627.205078"/>
     <use xlink:href="#DejaVuSans-2e" x="3666.21875"/>
    </g>
   </g>
  </g>
 </g>
 <defs>
  <clipPath id="p66cff59d8a">
   <rect x="57.6" y="41.472" width="357.12" height="266.112"/>
  </clipPath>
 </defs>
</svg>
