<?xml version="1.0" encoding="utf-8" standalone="no"?>
<!DOCTYPE svg PUBLIC "-//W3C//DTD SVG 1.1//EN"
  "http://www.w3.org/Graphics/SVG/1.1/DTD/svg11.dtd">
<svg xmlns:xlink="http://www.w3.org/1999/xlink" width="460.8pt" height="345.6pt" viewBox="0 0 460.8 345.6" xmlns="http://www.w3.org/2000/svg" version="1.1">
 <metadata>
  <rdf:RDF xmlns:dc="http://purl.org/dc/elements/1.1/" xmlns:cc="http://creativecommons.org/ns#" xmlns:rdf="http://www.w3.org/1999/02/22-rdf-syntax-ns#">
   <cc:Work>
    <dc:type rdf:resource="http://purl.org/dc/dcmitype/StillImage"/>
    <dc:date>2024-03-08T11:13:09.175074</dc:date>
    <dc:format>image/svg+xml</dc:format>
    <dc:creator>
     <cc:Agent>
      <dc:title>Matplotlib v3.8.2, https://matplotlib.org/</dc:title>
     </cc:Agent>
    </dc:creator>
   </cc:Work>
  </rdf:RDF>
 </metadata>
 <defs>
  <style type="text/css">*{stroke-linejoin: round; stroke-linecap: butt}</style>
 </defs>
 <g id="figure_1">
  <g id="patch_1">
   <path d="M 0 345.6 
L 460.8 345.6 
L 460.8 0 
L 0 0 
z
" style="fill: #ffffff"/>
  </g>
  <g id="axes_1">
   <g id="patch_2">
    <path d="M 57.6 307.584 
L 414.72 307.584 
L 414.72 41.472 
L 57.6 41.472 
z
" style="fill: #ffffff"/>
   </g>
   <g id="matplotlib.axis_1">
    <g id="xtick_1">
     <g id="line2d_1">
      <defs>
       <path id="m7706549897" d="M 0 0 
L 0 3.5 
" style="stroke: #000000; stroke-width: 0.8"/>
      </defs>
      <g>
       <use xlink:href="#m7706549897" x="71.451549" y="307.584" style="stroke: #000000; stroke-width: 0.8"/>
      </g>
     </g>
     <g id="text_1">
      <!-- 0.0 -->
      <g transform="translate(63.499987 322.182437) scale(0.1 -0.1)">
       <defs>
        <path id="DejaVuSans-30" d="M 2034 4250 
Q 1547 4250 1301 3770 
Q 1056 3291 1056 2328 
Q 1056 1369 1301 889 
Q 1547 409 2034 409 
Q 2525 409 2770 889 
Q 3016 1369 3016 2328 
Q 3016 3291 2770 3770 
Q 2525 4250 2034 4250 
z
M 2034 4750 
Q 2819 4750 3233 4129 
Q 3647 3509 3647 2328 
Q 3647 1150 3233 529 
Q 2819 -91 2034 -91 
Q 1250 -91 836 529 
Q 422 1150 422 2328 
Q 422 3509 836 4129 
Q 1250 4750 2034 4750 
z
" transform="scale(0.015625)"/>
        <path id="DejaVuSans-2e" d="M 684 794 
L 1344 794 
L 1344 0 
L 684 0 
L 684 794 
z
" transform="scale(0.015625)"/>
       </defs>
       <use xlink:href="#DejaVuSans-30"/>
       <use xlink:href="#DejaVuSans-2e" x="63.623047"/>
       <use xlink:href="#DejaVuSans-30" x="95.410156"/>
      </g>
     </g>
    </g>
    <g id="xtick_2">
     <g id="line2d_2">
      <g>
       <use xlink:href="#m7706549897" x="116.893879" y="307.584" style="stroke: #000000; stroke-width: 0.8"/>
      </g>
     </g>
     <g id="text_2">
      <!-- 0.5 -->
      <g transform="translate(108.942316 322.182437) scale(0.1 -0.1)">
       <defs>
        <path id="DejaVuSans-35" d="M 691 4666 
L 3169 4666 
L 3169 4134 
L 1269 4134 
L 1269 2991 
Q 1406 3038 1543 3061 
Q 1681 3084 1819 3084 
Q 2600 3084 3056 2656 
Q 3513 2228 3513 1497 
Q 3513 744 3044 326 
Q 2575 -91 1722 -91 
Q 1428 -91 1123 -41 
Q 819 9 494 109 
L 494 744 
Q 775 591 1075 516 
Q 1375 441 1709 441 
Q 2250 441 2565 725 
Q 2881 1009 2881 1497 
Q 2881 1984 2565 2268 
Q 2250 2553 1709 2553 
Q 1456 2553 1204 2497 
Q 953 2441 691 2322 
L 691 4666 
z
" transform="scale(0.015625)"/>
       </defs>
       <use xlink:href="#DejaVuSans-30"/>
       <use xlink:href="#DejaVuSans-2e" x="63.623047"/>
       <use xlink:href="#DejaVuSans-35" x="95.410156"/>
      </g>
     </g>
    </g>
    <g id="xtick_3">
     <g id="line2d_3">
      <g>
       <use xlink:href="#m7706549897" x="162.336209" y="307.584" style="stroke: #000000; stroke-width: 0.8"/>
      </g>
     </g>
     <g id="text_3">
      <!-- 1.0 -->
      <g transform="translate(154.384646 322.182437) scale(0.1 -0.1)">
       <defs>
        <path id="DejaVuSans-31" d="M 794 531 
L 1825 531 
L 1825 4091 
L 703 3866 
L 703 4441 
L 1819 4666 
L 2450 4666 
L 2450 531 
L 3481 531 
L 3481 0 
L 794 0 
L 794 531 
z
" transform="scale(0.015625)"/>
       </defs>
       <use xlink:href="#DejaVuSans-31"/>
       <use xlink:href="#DejaVuSans-2e" x="63.623047"/>
       <use xlink:href="#DejaVuSans-30" x="95.410156"/>
      </g>
     </g>
    </g>
    <g id="xtick_4">
     <g id="line2d_4">
      <g>
       <use xlink:href="#m7706549897" x="207.778539" y="307.584" style="stroke: #000000; stroke-width: 0.8"/>
      </g>
     </g>
     <g id="text_4">
      <!-- 1.5 -->
      <g transform="translate(199.826976 322.182437) scale(0.1 -0.1)">
       <use xlink:href="#DejaVuSans-31"/>
       <use xlink:href="#DejaVuSans-2e" x="63.623047"/>
       <use xlink:href="#DejaVuSans-35" x="95.410156"/>
      </g>
     </g>
    </g>
    <g id="xtick_5">
     <g id="line2d_5">
      <g>
       <use xlink:href="#m7706549897" x="253.220868" y="307.584" style="stroke: #000000; stroke-width: 0.8"/>
      </g>
     </g>
     <g id="text_5">
      <!-- 2.0 -->
      <g transform="translate(245.269306 322.182437) scale(0.1 -0.1)">
       <defs>
        <path id="DejaVuSans-32" d="M 1228 531 
L 3431 531 
L 3431 0 
L 469 0 
L 469 531 
Q 828 903 1448 1529 
Q 2069 2156 2228 2338 
Q 2531 2678 2651 2914 
Q 2772 3150 2772 3378 
Q 2772 3750 2511 3984 
Q 2250 4219 1831 4219 
Q 1534 4219 1204 4116 
Q 875 4013 500 3803 
L 500 4441 
Q 881 4594 1212 4672 
Q 1544 4750 1819 4750 
Q 2544 4750 2975 4387 
Q 3406 4025 3406 3419 
Q 3406 3131 3298 2873 
Q 3191 2616 2906 2266 
Q 2828 2175 2409 1742 
Q 1991 1309 1228 531 
z
" transform="scale(0.015625)"/>
       </defs>
       <use xlink:href="#DejaVuSans-32"/>
       <use xlink:href="#DejaVuSans-2e" x="63.623047"/>
       <use xlink:href="#DejaVuSans-30" x="95.410156"/>
      </g>
     </g>
    </g>
    <g id="xtick_6">
     <g id="line2d_6">
      <g>
       <use xlink:href="#m7706549897" x="298.663198" y="307.584" style="stroke: #000000; stroke-width: 0.8"/>
      </g>
     </g>
     <g id="text_6">
      <!-- 2.5 -->
      <g transform="translate(290.711636 322.182437) scale(0.1 -0.1)">
       <use xlink:href="#DejaVuSans-32"/>
       <use xlink:href="#DejaVuSans-2e" x="63.623047"/>
       <use xlink:href="#DejaVuSans-35" x="95.410156"/>
      </g>
     </g>
    </g>
    <g id="xtick_7">
     <g id="line2d_7">
      <g>
       <use xlink:href="#m7706549897" x="344.105528" y="307.584" style="stroke: #000000; stroke-width: 0.8"/>
      </g>
     </g>
     <g id="text_7">
      <!-- 3.0 -->
      <g transform="translate(336.153965 322.182437) scale(0.1 -0.1)">
       <defs>
        <path id="DejaVuSans-33" d="M 2597 2516 
Q 3050 2419 3304 2112 
Q 3559 1806 3559 1356 
Q 3559 666 3084 287 
Q 2609 -91 1734 -91 
Q 1441 -91 1130 -33 
Q 819 25 488 141 
L 488 750 
Q 750 597 1062 519 
Q 1375 441 1716 441 
Q 2309 441 2620 675 
Q 2931 909 2931 1356 
Q 2931 1769 2642 2001 
Q 2353 2234 1838 2234 
L 1294 2234 
L 1294 2753 
L 1863 2753 
Q 2328 2753 2575 2939 
Q 2822 3125 2822 3475 
Q 2822 3834 2567 4026 
Q 2313 4219 1838 4219 
Q 1578 4219 1281 4162 
Q 984 4106 628 3988 
L 628 4550 
Q 988 4650 1302 4700 
Q 1616 4750 1894 4750 
Q 2613 4750 3031 4423 
Q 3450 4097 3450 3541 
Q 3450 3153 3228 2886 
Q 3006 2619 2597 2516 
z
" transform="scale(0.015625)"/>
       </defs>
       <use xlink:href="#DejaVuSans-33"/>
       <use xlink:href="#DejaVuSans-2e" x="63.623047"/>
       <use xlink:href="#DejaVuSans-30" x="95.410156"/>
      </g>
     </g>
    </g>
    <g id="xtick_8">
     <g id="line2d_8">
      <g>
       <use xlink:href="#m7706549897" x="389.547858" y="307.584" style="stroke: #000000; stroke-width: 0.8"/>
      </g>
     </g>
     <g id="text_8">
      <!-- 3.5 -->
      <g transform="translate(381.596295 322.182437) scale(0.1 -0.1)">
       <use xlink:href="#DejaVuSans-33"/>
       <use xlink:href="#DejaVuSans-2e" x="63.623047"/>
       <use xlink:href="#DejaVuSans-35" x="95.410156"/>
      </g>
     </g>
    </g>
    <g id="text_9">
     <!-- 1e6 -->
     <g transform="translate(395.841875 334.860562) scale(0.1 -0.1)">
      <defs>
       <path id="DejaVuSans-65" d="M 3597 1894 
L 3597 1613 
L 953 1613 
Q 991 1019 1311 708 
Q 1631 397 2203 397 
Q 2534 397 2845 478 
Q 3156 559 3463 722 
L 3463 178 
Q 3153 47 2828 -22 
Q 2503 -91 2169 -91 
Q 1331 -91 842 396 
Q 353 884 353 1716 
Q 353 2575 817 3079 
Q 1281 3584 2069 3584 
Q 2775 3584 3186 3129 
Q 3597 2675 3597 1894 
z
M 3022 2063 
Q 3016 2534 2758 2815 
Q 2500 3097 2075 3097 
Q 1594 3097 1305 2825 
Q 1016 2553 972 2059 
L 3022 2063 
z
" transform="scale(0.015625)"/>
       <path id="DejaVuSans-36" d="M 2113 2584 
Q 1688 2584 1439 2293 
Q 1191 2003 1191 1497 
Q 1191 994 1439 701 
Q 1688 409 2113 409 
Q 2538 409 2786 701 
Q 3034 994 3034 1497 
Q 3034 2003 2786 2293 
Q 2538 2584 2113 2584 
z
M 3366 4563 
L 3366 3988 
Q 3128 4100 2886 4159 
Q 2644 4219 2406 4219 
Q 1781 4219 1451 3797 
Q 1122 3375 1075 2522 
Q 1259 2794 1537 2939 
Q 1816 3084 2150 3084 
Q 2853 3084 3261 2657 
Q 3669 2231 3669 1497 
Q 3669 778 3244 343 
Q 2819 -91 2113 -91 
Q 1303 -91 875 529 
Q 447 1150 447 2328 
Q 447 3434 972 4092 
Q 1497 4750 2381 4750 
Q 2619 4750 2861 4703 
Q 3103 4656 3366 4563 
z
" transform="scale(0.015625)"/>
      </defs>
      <use xlink:href="#DejaVuSans-31"/>
      <use xlink:href="#DejaVuSans-65" x="63.623047"/>
      <use xlink:href="#DejaVuSans-36" x="125.146484"/>
     </g>
    </g>
   </g>
   <g id="matplotlib.axis_2">
    <g id="ytick_1">
     <g id="line2d_9">
      <defs>
       <path id="m77b0fa0ee4" d="M 0 0 
L -3.5 0 
" style="stroke: #000000; stroke-width: 0.8"/>
      </defs>
      <g>
       <use xlink:href="#m77b0fa0ee4" x="57.6" y="295.488" style="stroke: #000000; stroke-width: 0.8"/>
      </g>
     </g>
     <g id="text_10">
      <!-- 0 -->
      <g transform="translate(44.2375 299.287219) scale(0.1 -0.1)">
       <use xlink:href="#DejaVuSans-30"/>
      </g>
     </g>
    </g>
    <g id="ytick_2">
     <g id="line2d_10">
      <g>
       <use xlink:href="#m77b0fa0ee4" x="57.6" y="255.168" style="stroke: #000000; stroke-width: 0.8"/>
      </g>
     </g>
     <g id="text_11">
      <!-- 2 -->
      <g transform="translate(44.2375 258.967219) scale(0.1 -0.1)">
       <use xlink:href="#DejaVuSans-32"/>
      </g>
     </g>
    </g>
    <g id="ytick_3">
     <g id="line2d_11">
      <g>
       <use xlink:href="#m77b0fa0ee4" x="57.6" y="214.848" style="stroke: #000000; stroke-width: 0.8"/>
      </g>
     </g>
     <g id="text_12">
      <!-- 4 -->
      <g transform="translate(44.2375 218.647219) scale(0.1 -0.1)">
       <defs>
        <path id="DejaVuSans-34" d="M 2419 4116 
L 825 1625 
L 2419 1625 
L 2419 4116 
z
M 2253 4666 
L 3047 4666 
L 3047 1625 
L 3713 1625 
L 3713 1100 
L 3047 1100 
L 3047 0 
L 2419 0 
L 2419 1100 
L 313 1100 
L 313 1709 
L 2253 4666 
z
" transform="scale(0.015625)"/>
       </defs>
       <use xlink:href="#DejaVuSans-34"/>
      </g>
     </g>
    </g>
    <g id="ytick_4">
     <g id="line2d_12">
      <g>
       <use xlink:href="#m77b0fa0ee4" x="57.6" y="174.528" style="stroke: #000000; stroke-width: 0.8"/>
      </g>
     </g>
     <g id="text_13">
      <!-- 6 -->
      <g transform="translate(44.2375 178.327219) scale(0.1 -0.1)">
       <use xlink:href="#DejaVuSans-36"/>
      </g>
     </g>
    </g>
    <g id="ytick_5">
     <g id="line2d_13">
      <g>
       <use xlink:href="#m77b0fa0ee4" x="57.6" y="134.208" style="stroke: #000000; stroke-width: 0.8"/>
      </g>
     </g>
     <g id="text_14">
      <!-- 8 -->
      <g transform="translate(44.2375 138.007219) scale(0.1 -0.1)">
       <defs>
        <path id="DejaVuSans-38" d="M 2034 2216 
Q 1584 2216 1326 1975 
Q 1069 1734 1069 1313 
Q 1069 891 1326 650 
Q 1584 409 2034 409 
Q 2484 409 2743 651 
Q 3003 894 3003 1313 
Q 3003 1734 2745 1975 
Q 2488 2216 2034 2216 
z
M 1403 2484 
Q 997 2584 770 2862 
Q 544 3141 544 3541 
Q 544 4100 942 4425 
Q 1341 4750 2034 4750 
Q 2731 4750 3128 4425 
Q 3525 4100 3525 3541 
Q 3525 3141 3298 2862 
Q 3072 2584 2669 2484 
Q 3125 2378 3379 2068 
Q 3634 1759 3634 1313 
Q 3634 634 3220 271 
Q 2806 -91 2034 -91 
Q 1263 -91 848 271 
Q 434 634 434 1313 
Q 434 1759 690 2068 
Q 947 2378 1403 2484 
z
M 1172 3481 
Q 1172 3119 1398 2916 
Q 1625 2713 2034 2713 
Q 2441 2713 2670 2916 
Q 2900 3119 2900 3481 
Q 2900 3844 2670 4047 
Q 2441 4250 2034 4250 
Q 1625 4250 1398 4047 
Q 1172 3844 1172 3481 
z
" transform="scale(0.015625)"/>
       </defs>
       <use xlink:href="#DejaVuSans-38"/>
      </g>
     </g>
    </g>
    <g id="ytick_6">
     <g id="line2d_14">
      <g>
       <use xlink:href="#m77b0fa0ee4" x="57.6" y="93.888" style="stroke: #000000; stroke-width: 0.8"/>
      </g>
     </g>
     <g id="text_15">
      <!-- 10 -->
      <g transform="translate(37.875 97.687219) scale(0.1 -0.1)">
       <use xlink:href="#DejaVuSans-31"/>
       <use xlink:href="#DejaVuSans-30" x="63.623047"/>
      </g>
     </g>
    </g>
    <g id="ytick_7">
     <g id="line2d_15">
      <g>
       <use xlink:href="#m77b0fa0ee4" x="57.6" y="53.568" style="stroke: #000000; stroke-width: 0.8"/>
      </g>
     </g>
     <g id="text_16">
      <!-- 12 -->
      <g transform="translate(37.875 57.367219) scale(0.1 -0.1)">
       <use xlink:href="#DejaVuSans-31"/>
       <use xlink:href="#DejaVuSans-32" x="63.623047"/>
      </g>
     </g>
    </g>
   </g>
   <g id="line2d_16">
    <path d="M 73.832727 275.328 
L 74.149915 255.168 
L 74.447108 295.488 
L 74.466193 275.328 
L 74.783381 255.168 
L 75.102386 295.488 
L 75.10693 275.328 
L 75.424118 255.168 
L 75.704951 295.488 
L 75.739487 275.328 
L 76.055766 255.168 
L 76.359321 295.488 
L 76.378407 275.328 
L 76.699229 255.168 
L 76.994605 295.488 
L 77.017326 275.328 
L 77.336331 255.168 
L 77.649883 295.488 
L 77.657154 275.328 
L 77.978885 255.168 
L 78.278805 295.488 
L 78.301526 275.328 
L 78.614169 255.168 
L 78.914997 295.488 
L 84.457144 275.328 
L 84.53894 214.848 
L 84.740704 194.688 
L 84.767061 174.528 
L 84.780693 295.488 
L 84.993363 275.328 
L 85.020629 255.168 
L 85.034262 295.488 
L 85.239661 275.328 
L 85.266017 255.168 
L 85.280559 295.488 
L 85.477779 275.328 
L 85.519586 295.488 
L 85.578661 275.328 
L 85.710443 255.168 
L 85.746797 295.488 
L 85.924022 275.328 
L 85.991277 295.488 
L 86.562033 255.168 
L 86.880129 235.008 
L 86.884673 295.488 
L 87.201861 275.328 
L 87.489965 295.488 
L 87.523592 275.328 
L 87.84078 255.168 
L 88.152514 295.488 
L 88.162512 275.328 
L 88.484243 255.168 
L 88.768712 295.488 
L 88.797795 275.328 
L 89.108621 255.168 
L 89.425808 295.488 
L 89.428535 275.328 
L 89.744813 255.168 
L 90.032009 295.488 
L 90.058366 275.328 
L 90.381006 255.168 
L 90.662749 295.488 
L 90.690923 275.328 
L 91.325298 235.008 
L 91.336204 295.488 
L 91.650665 275.328 
L 91.948766 295.488 
L 91.966943 275.328 
L 92.594956 235.008 
L 92.608589 295.488 
L 93.228422 255.168 
L 93.241146 295.488 
L 93.541066 275.328 
L 93.840985 295.488 
L 93.858253 275.328 
L 94.499899 235.008 
L 94.506261 295.488 
L 94.815269 275.328 
L 95.117915 295.488 
L 95.136091 275.328 
L 95.453279 255.168 
L 95.770466 295.488 
L 95.774102 275.328 
L 96.409386 255.168 
L 96.704761 295.488 
L 96.732026 275.328 
L 97.044669 255.168 
L 97.337318 295.488 
L 97.360039 275.328 
L 97.677227 255.168 
L 97.982599 295.488 
L 97.996232 275.328 
L 98.314328 255.168 
L 98.635151 295.488 
L 98.640604 275.328 
L 98.964153 255.168 
L 99.279523 295.488 
L 99.28225 275.328 
L 99.593075 255.168 
L 99.898448 295.488 
L 99.91208 275.328 
L 100.231994 255.168 
L 100.538276 295.488 
L 100.545546 275.328 
L 100.866369 255.168 
L 101.181739 275.328 
L 101.505288 255.168 
L 101.819749 295.488 
L 101.825202 275.328 
L 102.143299 255.168 
L 102.435038 295.488 
L 102.461395 275.328 
L 102.7804 255.168 
L 103.089408 295.488 
L 103.098496 275.328 
L 103.412049 255.168 
L 103.716512 295.488 
L 103.731054 275.328 
L 104.056421 255.168 
L 104.357249 295.488 
L 104.377244 275.328 
L 104.693522 255.168 
L 104.99435 295.488 
L 105.005257 275.328 
L 105.326079 255.168 
L 105.624181 295.488 
L 105.642358 275.328 
L 105.954092 255.168 
L 106.244923 295.488 
L 106.272189 275.328 
L 106.583014 255.168 
L 106.880207 295.488 
L 106.897475 275.328 
L 107.213754 255.168 
L 107.499132 295.488 
L 107.530941 275.328 
L 107.844493 255.168 
L 108.155319 295.488 
L 108.159863 275.328 
L 108.480686 255.168 
L 108.79242 295.488 
L 108.8006 275.328 
L 109.113243 255.168 
L 109.425886 295.488 
L 109.437701 275.328 
L 109.755798 255.168 
L 110.06117 295.488 
L 110.080256 275.328 
L 110.398352 255.168 
L 110.708269 295.488 
L 111.549861 275.328 
L 112.45689 194.688 
L 112.641386 295.488 
L 112.686828 275.328 
L 113.365736 214.848 
L 113.552959 295.488 
L 113.592948 275.328 
L 114.276401 214.848 
L 114.44999 295.488 
L 114.503612 275.328 
L 115.192518 214.848 
L 115.416094 295.488 
L 126.325889 275.328 
L 127.012977 214.848 
L 127.21565 295.488 
L 127.247459 275.328 
L 127.830939 214.848 
L 127.870928 154.368 
L 128.013617 134.208 
L 128.053606 73.728 
L 128.069057 295.488 
L 128.387153 275.328 
L 128.428051 214.848 
L 128.442593 295.488 
L 128.708885 275.328 
L 128.745239 214.848 
L 128.763416 295.488 
L 129.026981 275.328 
L 129.063335 214.848 
L 129.086056 295.488 
L 129.341442 275.328 
L 129.38234 214.848 
L 129.401426 295.488 
L 129.688621 275.328 
L 129.728611 214.848 
L 129.744061 295.488 
L 130.038527 275.328 
L 130.078517 214.848 
L 130.093058 295.488 
L 130.396613 275.328 
L 130.437511 214.848 
L 130.451144 295.488 
L 130.734704 275.328 
L 130.775602 214.848 
L 130.789235 295.488 
L 131.074612 275.328 
L 131.101878 235.008 
L 131.130052 295.488 
L 131.451784 255.168 
L 131.50177 295.488 
L 131.559936 275.328 
L 131.835317 295.488 
L 137.240228 275.328 
L 137.693742 235.008 
L 137.873694 295.488 
L 138.585321 235.008 
L 138.737098 214.848 
L 138.777996 154.368 
L 138.939771 134.208 
L 138.981578 73.728 
L 138.99521 295.488 
L 139.311489 275.328 
L 139.352387 214.848 
L 139.366929 295.488 
L 139.653215 275.328 
L 139.694114 214.848 
L 139.707746 295.488 
L 140.032204 275.328 
L 140.077647 214.848 
L 140.087644 295.488 
L 140.37484 275.328 
L 140.411193 255.168 
L 140.425735 295.488 
L 140.639314 275.328 
L 140.778367 295.488 
L 140.87107 275.328 
L 141.100099 255.168 
L 141.305499 295.488 
L 141.330037 275.328 
L 142.001675 214.848 
L 142.185262 295.488 
L 142.232522 275.328 
L 142.913248 214.848 
L 143.0932 295.488 
L 143.14046 275.328 
L 143.830274 214.848 
L 143.99114 295.488 
L 144.057486 275.328 
L 149.887737 255.168 
L 149.9559 154.368 
L 150.25582 134.208 
L 150.296718 73.728 
L 150.311259 295.488 
L 150.604817 275.328 
L 150.645715 214.848 
L 150.660257 295.488 
L 150.956541 275.328 
L 150.997439 214.848 
L 151.011071 295.488 
L 151.274637 275.328 
L 151.315535 214.848 
L 151.329168 295.488 
L 151.623634 275.328 
L 151.655444 235.008 
L 151.678165 295.488 
L 151.94991 275.328 
L 151.968087 255.168 
L 152.018073 295.488 
L 152.198934 275.328 
L 152.337078 295.488 
L 152.427054 275.328 
L 152.876933 235.008 
L 153.034164 295.488 
L 153.10778 275.328 
L 153.781236 214.848 
L 153.979364 295.488 
L 154.012083 275.328 
L 154.689173 214.848 
L 154.859128 295.488 
L 154.918203 275.328 
L 155.602564 214.848 
L 155.794331 295.488 
L 155.827958 275.328 
L 156.50414 214.848 
L 156.689545 295.488 
L 156.734987 275.328 
L 157.422984 214.848 
L 157.578397 295.488 
L 157.651105 275.328 
L 158.333648 214.848 
L 158.509965 295.488 
L 158.561769 275.328 
L 159.245221 214.848 
L 159.447894 295.488 
L 159.477886 275.328 
L 160.159521 214.848 
L 160.334929 295.488 
L 160.385824 275.328 
L 161.068368 214.848 
L 161.214692 295.488 
L 161.293762 275.328 
L 161.979941 214.848 
L 162.152622 295.488 
L 162.204426 275.328 
L 162.881517 214.848 
L 163.043291 295.488 
L 163.110546 275.328 
L 163.788546 214.848 
L 163.993945 295.488 
L 164.015757 275.328 
L 164.69103 214.848 
L 164.8728 295.488 
L 164.921877 275.328 
L 165.594424 214.848 
L 165.771649 295.488 
L 165.822544 275.328 
L 166.502362 214.848 
L 166.693219 295.488 
L 166.725938 275.328 
L 167.40939 214.848 
L 167.597522 295.488 
L 167.639329 275.328 
L 168.317328 214.848 
L 168.499098 295.488 
L 168.54454 275.328 
L 169.216177 214.848 
L 169.414306 295.488 
L 169.447025 275.328 
L 170.129568 214.848 
L 170.337694 295.488 
L 170.358598 275.328 
L 171.035688 214.848 
L 171.261082 295.488 
L 171.266535 275.328 
L 176.946827 255.168 
L 177.153135 235.008 
L 177.207666 154.368 
L 177.51122 134.208 
L 177.552118 73.728 
L 177.564842 295.488 
L 177.871124 275.328 
L 177.912022 214.848 
L 177.925654 295.488 
L 178.21285 275.328 
L 178.254657 214.848 
L 178.267381 295.488 
L 178.557303 275.328 
L 178.598201 214.848 
L 178.611834 295.488 
L 178.927203 275.328 
L 178.954469 235.008 
L 178.982643 295.488 
L 179.273474 255.168 
L 179.32346 295.488 
L 179.413436 275.328 
L 179.63883 255.168 
L 179.676093 295.488 
L 180.103251 255.168 
L 180.28502 295.488 
L 180.333189 275.328 
L 181.009371 214.848 
L 181.197502 295.488 
L 181.241127 275.328 
L 181.694641 235.008 
L 182.101805 295.488 
L 188.074744 275.328 
L 188.315589 255.168 
L 188.370119 214.848 
L 188.572792 194.688 
L 188.600058 174.528 
L 188.614599 295.488 
L 188.839993 275.328 
L 188.867259 255.168 
L 188.880891 295.488 
L 189.069023 275.328 
L 189.096288 255.168 
L 189.109921 295.488 
L 189.328044 275.328 
L 189.368942 295.488 
L 189.577068 255.168 
L 189.613422 295.488 
L 189.830636 275.328 
L 189.857901 295.488 
L 190.452287 255.168 
L 190.7413 295.488 
L 190.760386 275.328 
L 191.073938 255.168 
L 191.368404 295.488 
L 191.396579 275.328 
L 191.71104 255.168 
L 192.015503 295.488 
L 192.020047 275.328 
L 192.330873 255.168 
L 192.633519 295.488 
L 192.648969 275.328 
L 193.275165 255.168 
L 193.568722 295.488 
L 193.595079 275.328 
L 193.91681 255.168 
L 194.226727 295.488 
L 194.227636 275.328 
L 194.541188 255.168 
L 194.852922 295.488 
L 194.857466 275.328 
L 195.168292 255.168 
L 195.480026 295.488 
L 195.493659 275.328 
L 195.815391 255.168 
L 196.128943 295.488 
L 196.130761 275.328 
L 202.777156 255.168 
L 204.212224 235.008 
L 204.23949 214.848 
L 204.429439 194.688 
L 204.456704 174.528 
L 204.470337 295.488 
L 204.683007 275.328 
L 204.710272 255.168 
L 204.723905 295.488 
L 204.923851 275.328 
L 204.960205 295.488 
L 205.05109 275.328 
L 205.225588 295.488 
L 205.368277 275.328 
L 205.465524 295.488 
L 205.685465 275.328 
L 205.993564 295.488 
L 205.999926 275.328 
L 206.322566 255.168 
L 206.607944 295.488 
L 206.641571 275.328 
L 206.956032 255.168 
L 207.254134 295.488 
L 207.275038 275.328 
L 207.599496 255.168 
L 207.892144 295.488 
L 207.921227 275.328 
L 208.240233 255.168 
L 208.54924 295.488 
L 208.560147 275.328 
L 208.878243 255.168 
L 209.1718 295.488 
L 209.200883 275.328 
L 209.519889 255.168 
L 209.846165 295.488 
L 215.331054 275.328 
L 215.41285 214.848 
L 215.610978 194.688 
L 215.638244 174.528 
L 215.652785 295.488 
L 215.860002 275.328 
L 215.887268 255.168 
L 215.900901 295.488 
L 216.087214 275.328 
L 216.114479 255.168 
L 216.128112 295.488 
L 216.355324 275.328 
L 216.396222 295.488 
L 216.587989 255.168 
L 216.624342 295.488 
L 216.842466 275.328 
L 216.858825 295.488 
L 217.150565 275.328 
L 217.156927 295.488 
L 217.466843 275.328 
L 217.787666 295.488 
L 217.789484 275.328 
L 218.422041 235.008 
L 218.428403 295.488 
L 218.741046 275.328 
L 219.029151 295.488 
L 224.514949 275.328 
L 224.823956 255.168 
L 225.124785 295.488 
L 225.138417 275.328 
L 225.453787 255.168 
L 225.756433 295.488 
L 225.890942 214.848 
L 226.112701 194.688 
L 226.139966 174.528 
L 226.153599 295.488 
L 226.353545 275.328 
L 226.380811 255.168 
L 226.394443 295.488 
L 226.596207 275.328 
L 226.618928 255.168 
L 226.637105 295.488 
L 226.841596 275.328 
L 226.868861 255.168 
L 226.887038 295.488 
L 227.083349 275.328 
L 227.110614 255.168 
L 227.123338 295.488 
L 227.306925 275.328 
L 227.343279 295.488 
L 227.948571 255.168 
L 227.950389 295.488 
L 228.268485 275.328 
L 228.557498 295.488 
L 235.35658 275.328 
L 236.259064 174.528 
L 236.318139 295.488 
L 236.746206 214.848 
L 236.778925 154.368 
L 237.00341 134.208 
L 237.035219 73.728 
L 237.059758 295.488 
L 237.341501 275.328 
L 237.374219 214.848 
L 237.398758 295.488 
L 237.697768 275.328 
L 237.730487 214.848 
L 237.755026 295.488 
L 238.045857 275.328 
L 238.078575 214.848 
L 238.103114 295.488 
L 238.406669 275.328 
L 238.439387 214.848 
L 238.464835 295.488 
L 238.763845 275.328 
L 238.796564 214.848 
L 238.821103 295.488 
L 239.093757 275.328 
L 239.109207 255.168 
L 239.151014 295.488 
L 239.169191 275.328 
L 239.349143 255.168 
L 239.486379 295.488 
L 239.534547 275.328 
L 239.714499 255.168 
L 239.814472 295.488 
L 240.075311 255.168 
L 240.251627 235.008 
L 240.291617 295.488 
L 240.796935 235.008 
L 240.98234 214.848 
L 241.020512 295.488 
L 241.164109 275.328 
L 282.572978 255.168 
L 282.931063 214.848 
L 283.005589 295.488 
L 283.290967 255.168 
L 283.649961 214.848 
L 283.712672 295.488 
L 284.009864 255.168 
L 284.36795 214.848 
L 284.414301 295.488 
L 284.916893 235.008 
L 285.095027 214.848 
L 285.166826 295.488 
L 285.461292 255.168 
L 285.830284 214.848 
L 285.872091 295.488 
L 286.381954 235.008 
L 286.562814 214.848 
L 286.610075 295.488 
L 287.109031 235.008 
L 287.290801 214.848 
L 287.350784 295.488 
L 287.652522 255.168 
L 288.014243 214.848 
L 288.054232 295.488 
L 288.555915 235.008 
L 288.738593 214.848 
L 288.798577 295.488 
L 289.106676 255.168 
L 289.472941 214.848 
L 289.547467 295.488 
L 289.655619 275.328 
L 306.199354 255.168 
L 306.563802 214.848 
L 306.62015 295.488 
L 306.926431 255.168 
L 307.292696 214.848 
L 307.307238 295.488 
L 307.778021 235.008 
L 307.821645 154.368 
L 307.967061 134.208 
L 307.999779 73.728 
L 308.025227 295.488 
L 308.300607 275.328 
L 308.333326 214.848 
L 308.358774 295.488 
L 308.625066 275.328 
L 308.656875 214.848 
L 308.682323 295.488 
L 308.962248 275.328 
L 308.994966 214.848 
L 309.024958 295.488 
L 309.312154 275.328 
L 309.344872 214.848 
L 309.373046 295.488 
L 309.644791 275.328 
L 309.676601 214.848 
L 309.702049 295.488 
L 309.985609 275.328 
L 310.018327 214.848 
L 310.043775 295.488 
L 310.337333 275.328 
L 310.370051 214.848 
L 310.39459 295.488 
L 310.715413 275.328 
L 310.748131 214.848 
L 310.77267 295.488 
L 311.053504 275.328 
L 311.087131 214.848 
L 311.11167 295.488 
L 311.400683 275.328 
L 311.433402 214.848 
L 311.45794 295.488 
L 311.741501 275.328 
L 311.774219 214.848 
L 311.798758 295.488 
L 312.074138 275.328 
L 312.106857 214.848 
L 312.132305 295.488 
L 312.416774 275.328 
L 312.449492 214.848 
L 312.474031 295.488 
L 312.72669 275.328 
L 312.752138 235.008 
L 312.783948 295.488 
L 313.068417 275.328 
L 313.088411 255.168 
L 313.132036 295.488 
L 313.444679 255.168 
L 313.49103 295.488 
L 313.989078 235.008 
L 314.358979 194.688 
L 322.345014 174.528 
L 322.377732 114.048 
L 322.402271 295.488 
L 322.705826 275.328 
L 322.737636 214.848 
L 322.762174 295.488 
L 323.035737 275.328 
L 323.068456 214.848 
L 323.093903 295.488 
L 323.38837 275.328 
L 323.421088 214.848 
L 323.446536 295.488 
L 323.76645 275.328 
L 323.799168 214.848 
L 323.823707 295.488 
L 324.139986 275.328 
L 324.172704 214.848 
L 324.196334 295.488 
L 324.482621 275.328 
L 324.515339 214.848 
L 324.539878 295.488 
L 324.82253 275.328 
L 324.855248 214.848 
L 324.879787 295.488 
L 325.148806 275.328 
L 325.181524 214.848 
L 325.205154 295.488 
L 325.474173 275.328 
L 325.506891 214.848 
L 325.53143 295.488 
L 325.818625 275.328 
L 325.851344 214.848 
L 325.875883 295.488 
L 330.052942 275.328 
L 330.086569 214.848 
L 330.378309 194.688 
L 330.411027 134.208 
L 330.436475 295.488 
L 330.704585 275.328 
L 330.737303 214.848 
L 330.761842 295.488 
L 331.029043 275.328 
L 331.060853 214.848 
L 331.085392 295.488 
L 331.381676 275.328 
L 331.414394 214.848 
L 331.439842 295.488 
L 331.714313 275.328 
L 331.747032 214.848 
L 331.77248 295.488 
L 332.088758 275.328 
L 332.121477 214.848 
L 332.146924 295.488 
L 332.451388 275.328 
L 332.484106 214.848 
L 332.509554 295.488 
L 332.800385 275.328 
L 332.832195 214.848 
L 332.857642 295.488 
L 333.136658 275.328 
L 333.169377 214.848 
L 333.194824 295.488 
L 333.465661 275.328 
L 333.49747 214.848 
L 333.522918 295.488 
L 333.785575 275.328 
L 333.826473 214.848 
L 333.842832 295.488 
L 334.122757 275.328 
L 334.176379 295.488 
L 334.188194 275.328 
L 334.37269 255.168 
L 334.530829 295.488 
L 334.558094 275.328 
L 334.738046 255.168 
L 334.876191 295.488 
L 334.918906 275.328 
L 335.460579 214.848 
L 335.527834 295.488 
L 335.826844 255.168 
L 336.194927 214.848 
L 336.202198 295.488 
L 336.918369 214.848 
L 336.959267 295.488 
L 337.457315 235.008 
L 337.64272 214.848 
L 337.668167 295.488 
L 338.36707 214.848 
L 338.438869 295.488 
L 338.724247 255.168 
L 339.087786 214.848 
L 339.134137 295.488 
L 339.641273 235.008 
L 339.825769 214.848 
L 339.862123 295.488 
L 340.375621 235.008 
L 340.561026 214.848 
L 340.586474 295.488 
L 341.294465 214.848 
L 341.342634 295.488 
L 341.836138 235.008 
L 342.018816 214.848 
L 342.072438 295.488 
L 342.567759 235.008 
L 342.74862 214.848 
L 342.770432 255.168 
L 344.204592 235.008 
L 344.328195 295.488 
L 344.528142 275.328 
L 344.836241 295.488 
L 344.851691 275.328 
L 345.476977 235.008 
L 345.488792 295.488 
L 345.788712 275.328 
L 346.096811 295.488 
L 346.10499 275.328 
L 346.429449 255.168 
L 346.724824 295.488 
L 346.750271 275.328 
L 347.070185 255.168 
L 347.387373 275.328 
L 348.018112 235.008 
L 348.022657 295.488 
L 348.339844 275.328 
L 348.635219 295.488 
L 348.649761 275.328 
L 348.966039 255.168 
L 349.2805 295.488 
L 349.286862 275.328 
L 349.596779 255.168 
L 349.902151 295.488 
L 349.91942 275.328 
L 350.240242 255.168 
L 350.5338 295.488 
L 350.561065 275.328 
L 350.877344 255.168 
L 351.181807 295.488 
L 351.197258 275.328 
L 351.514445 255.168 
L 351.82618 295.488 
L 351.831633 275.328 
L 352.149729 255.168 
L 352.443287 295.488 
L 352.474187 275.328 
L 352.788648 255.168 
L 353.073117 295.488 
L 353.11038 275.328 
L 353.433929 255.168 
L 353.750208 295.488 
L 353.755661 275.328 
L 354.072848 255.168 
L 354.364588 295.488 
L 355.03259 255.168 
L 355.317059 295.488 
L 355.345234 275.328 
L 355.979609 235.008 
L 355.991424 295.488 
L 356.302249 275.328 
L 356.610348 295.488 
L 356.625799 275.328 
L 356.936624 255.168 
L 357.231999 295.488 
L 357.256538 275.328 
L 357.569181 255.168 
L 357.85365 295.488 
L 357.888186 275.328 
L 358.209009 255.168 
L 358.502567 295.488 
L 358.525288 275.328 
L 359.152392 235.008 
L 359.153301 295.488 
L 359.46958 275.328 
L 359.758593 295.488 
L 359.786767 275.328 
L 360.425686 235.008 
L 360.444772 295.488 
L 360.748327 275.328 
L 361.038249 295.488 
L 361.066423 275.328 
L 361.705342 255.168 
L 361.991629 295.488 
L 362.02253 275.328 
L 362.339717 255.168 
L 362.659631 295.488 
L 362.978636 275.328 
L 363.624826 255.168 
L 363.941105 235.008 
L 363.945649 295.488 
L 364.254657 275.328 
L 364.5673 295.488 
L 364.568209 275.328 
L 364.883579 255.168 
L 365.173501 295.488 
L 365.202584 275.328 
L 365.519771 255.168 
L 365.828779 295.488 
L 365.840594 275.328 
L 366.481331 235.008 
L 366.483149 295.488 
L 366.793974 275.328 
L 367.095711 295.488 
L 367.112071 275.328 
L 367.436529 255.168 
L 367.75099 295.488 
L 367.753716 275.328 
L 368.072721 255.168 
L 368.383547 295.488 
L 368.388091 275.328 
L 368.710732 255.168 
L 369.008833 295.488 
L 369.027919 275.328 
L 369.351469 255.168 
L 369.655023 295.488 
L 369.674109 275.328 
L 369.991297 255.168 
L 370.27213 295.488 
L 370.308484 275.328 
L 370.622945 255.168 
L 370.915594 295.488 
L 370.936497 275.328 
L 371.253684 255.168 
L 371.543607 295.488 
L 371.576325 275.328 
L 371.892604 255.168 
L 372.208882 295.488 
L 372.209791 275.328 
L 372.843257 235.008 
L 372.850528 295.488 
L 373.159536 275.328 
L 373.460364 295.488 
L 373.481267 275.328 
L 373.799364 255.168 
L 374.112007 295.488 
L 374.119278 275.328 
L 374.438283 255.168 
L 374.752744 295.488 
L 374.75547 275.328 
L 375.389845 235.008 
L 375.391663 295.488 
L 375.713395 275.328 
L 376.027856 295.488 
L 376.029673 275.328 
L 376.346861 255.168 
L 376.651324 295.488 
L 376.664048 275.328 
L 376.981236 255.168 
L 377.267522 295.488 
L 377.297514 275.328 
L 377.619246 255.168 
L 377.919165 295.488 
L 377.932798 275.328 
L 378.248168 255.168 
L 378.550814 295.488 
L 395.284497 275.328 
L 395.512618 255.168 
L 395.593505 134.208 
L 395.910693 114.048 
L 395.951591 53.568 
L 395.966132 295.488 
L 396.288773 275.328 
L 396.329671 214.848 
L 396.343304 295.488 
L 396.650494 275.328 
L 396.691392 214.848 
L 396.705025 295.488 
L 396.979496 275.328 
L 397.00767 235.008 
L 397.034936 295.488 
L 397.103099 275.328 
L 397.29941 255.168 
L 397.349397 295.488 
L 397.353032 275.328 
L 397.580244 255.168 
L 397.64659 295.488 
L 398.04012 255.168 
L 398.190989 295.488 
L 398.261879 275.328 
L 398.487273 255.168 
L 398.487273 255.168 
" clip-path="url(#p5a3ba01864)" style="fill: none; stroke: #1f77b4; stroke-width: 1.5; stroke-linecap: square"/>
   </g>
   <g id="patch_3">
    <path d="M 57.6 307.584 
L 57.6 41.472 
" style="fill: none; stroke: #000000; stroke-width: 0.8; stroke-linejoin: miter; stroke-linecap: square"/>
   </g>
   <g id="patch_4">
    <path d="M 414.72 307.584 
L 414.72 41.472 
" style="fill: none; stroke: #000000; stroke-width: 0.8; stroke-linejoin: miter; stroke-linecap: square"/>
   </g>
   <g id="patch_5">
    <path d="M 57.6 307.584 
L 414.72 307.584 
" style="fill: none; stroke: #000000; stroke-width: 0.8; stroke-linejoin: miter; stroke-linecap: square"/>
   </g>
   <g id="patch_6">
    <path d="M 57.6 41.472 
L 414.72 41.472 
" style="fill: none; stroke: #000000; stroke-width: 0.8; stroke-linejoin: miter; stroke-linecap: square"/>
   </g>
   <g id="text_17">
    <!-- Queue size (y-axis) between S6 and sensors that follow at a time (x-axis). -->
    <g transform="translate(14.282813 35.472) scale(0.12 -0.12)">
     <defs>
      <path id="DejaVuSans-51" d="M 2522 4238 
Q 1834 4238 1429 3725 
Q 1025 3213 1025 2328 
Q 1025 1447 1429 934 
Q 1834 422 2522 422 
Q 3209 422 3611 934 
Q 4013 1447 4013 2328 
Q 4013 3213 3611 3725 
Q 3209 4238 2522 4238 
z
M 3406 84 
L 4238 -825 
L 3475 -825 
L 2784 -78 
Q 2681 -84 2626 -87 
Q 2572 -91 2522 -91 
Q 1538 -91 948 567 
Q 359 1225 359 2328 
Q 359 3434 948 4092 
Q 1538 4750 2522 4750 
Q 3503 4750 4090 4092 
Q 4678 3434 4678 2328 
Q 4678 1516 4351 937 
Q 4025 359 3406 84 
z
" transform="scale(0.015625)"/>
      <path id="DejaVuSans-75" d="M 544 1381 
L 544 3500 
L 1119 3500 
L 1119 1403 
Q 1119 906 1312 657 
Q 1506 409 1894 409 
Q 2359 409 2629 706 
Q 2900 1003 2900 1516 
L 2900 3500 
L 3475 3500 
L 3475 0 
L 2900 0 
L 2900 538 
Q 2691 219 2414 64 
Q 2138 -91 1772 -91 
Q 1169 -91 856 284 
Q 544 659 544 1381 
z
M 1991 3584 
L 1991 3584 
z
" transform="scale(0.015625)"/>
      <path id="DejaVuSans-20" transform="scale(0.015625)"/>
      <path id="DejaVuSans-73" d="M 2834 3397 
L 2834 2853 
Q 2591 2978 2328 3040 
Q 2066 3103 1784 3103 
Q 1356 3103 1142 2972 
Q 928 2841 928 2578 
Q 928 2378 1081 2264 
Q 1234 2150 1697 2047 
L 1894 2003 
Q 2506 1872 2764 1633 
Q 3022 1394 3022 966 
Q 3022 478 2636 193 
Q 2250 -91 1575 -91 
Q 1294 -91 989 -36 
Q 684 19 347 128 
L 347 722 
Q 666 556 975 473 
Q 1284 391 1588 391 
Q 1994 391 2212 530 
Q 2431 669 2431 922 
Q 2431 1156 2273 1281 
Q 2116 1406 1581 1522 
L 1381 1569 
Q 847 1681 609 1914 
Q 372 2147 372 2553 
Q 372 3047 722 3315 
Q 1072 3584 1716 3584 
Q 2034 3584 2315 3537 
Q 2597 3491 2834 3397 
z
" transform="scale(0.015625)"/>
      <path id="DejaVuSans-69" d="M 603 3500 
L 1178 3500 
L 1178 0 
L 603 0 
L 603 3500 
z
M 603 4863 
L 1178 4863 
L 1178 4134 
L 603 4134 
L 603 4863 
z
" transform="scale(0.015625)"/>
      <path id="DejaVuSans-7a" d="M 353 3500 
L 3084 3500 
L 3084 2975 
L 922 459 
L 3084 459 
L 3084 0 
L 275 0 
L 275 525 
L 2438 3041 
L 353 3041 
L 353 3500 
z
" transform="scale(0.015625)"/>
      <path id="DejaVuSans-28" d="M 1984 4856 
Q 1566 4138 1362 3434 
Q 1159 2731 1159 2009 
Q 1159 1288 1364 580 
Q 1569 -128 1984 -844 
L 1484 -844 
Q 1016 -109 783 600 
Q 550 1309 550 2009 
Q 550 2706 781 3412 
Q 1013 4119 1484 4856 
L 1984 4856 
z
" transform="scale(0.015625)"/>
      <path id="DejaVuSans-79" d="M 2059 -325 
Q 1816 -950 1584 -1140 
Q 1353 -1331 966 -1331 
L 506 -1331 
L 506 -850 
L 844 -850 
Q 1081 -850 1212 -737 
Q 1344 -625 1503 -206 
L 1606 56 
L 191 3500 
L 800 3500 
L 1894 763 
L 2988 3500 
L 3597 3500 
L 2059 -325 
z
" transform="scale(0.015625)"/>
      <path id="DejaVuSans-2d" d="M 313 2009 
L 1997 2009 
L 1997 1497 
L 313 1497 
L 313 2009 
z
" transform="scale(0.015625)"/>
      <path id="DejaVuSans-61" d="M 2194 1759 
Q 1497 1759 1228 1600 
Q 959 1441 959 1056 
Q 959 750 1161 570 
Q 1363 391 1709 391 
Q 2188 391 2477 730 
Q 2766 1069 2766 1631 
L 2766 1759 
L 2194 1759 
z
M 3341 1997 
L 3341 0 
L 2766 0 
L 2766 531 
Q 2569 213 2275 61 
Q 1981 -91 1556 -91 
Q 1019 -91 701 211 
Q 384 513 384 1019 
Q 384 1609 779 1909 
Q 1175 2209 1959 2209 
L 2766 2209 
L 2766 2266 
Q 2766 2663 2505 2880 
Q 2244 3097 1772 3097 
Q 1472 3097 1187 3025 
Q 903 2953 641 2809 
L 641 3341 
Q 956 3463 1253 3523 
Q 1550 3584 1831 3584 
Q 2591 3584 2966 3190 
Q 3341 2797 3341 1997 
z
" transform="scale(0.015625)"/>
      <path id="DejaVuSans-78" d="M 3513 3500 
L 2247 1797 
L 3578 0 
L 2900 0 
L 1881 1375 
L 863 0 
L 184 0 
L 1544 1831 
L 300 3500 
L 978 3500 
L 1906 2253 
L 2834 3500 
L 3513 3500 
z
" transform="scale(0.015625)"/>
      <path id="DejaVuSans-29" d="M 513 4856 
L 1013 4856 
Q 1481 4119 1714 3412 
Q 1947 2706 1947 2009 
Q 1947 1309 1714 600 
Q 1481 -109 1013 -844 
L 513 -844 
Q 928 -128 1133 580 
Q 1338 1288 1338 2009 
Q 1338 2731 1133 3434 
Q 928 4138 513 4856 
z
" transform="scale(0.015625)"/>
      <path id="DejaVuSans-62" d="M 3116 1747 
Q 3116 2381 2855 2742 
Q 2594 3103 2138 3103 
Q 1681 3103 1420 2742 
Q 1159 2381 1159 1747 
Q 1159 1113 1420 752 
Q 1681 391 2138 391 
Q 2594 391 2855 752 
Q 3116 1113 3116 1747 
z
M 1159 2969 
Q 1341 3281 1617 3432 
Q 1894 3584 2278 3584 
Q 2916 3584 3314 3078 
Q 3713 2572 3713 1747 
Q 3713 922 3314 415 
Q 2916 -91 2278 -91 
Q 1894 -91 1617 61 
Q 1341 213 1159 525 
L 1159 0 
L 581 0 
L 581 4863 
L 1159 4863 
L 1159 2969 
z
" transform="scale(0.015625)"/>
      <path id="DejaVuSans-74" d="M 1172 4494 
L 1172 3500 
L 2356 3500 
L 2356 3053 
L 1172 3053 
L 1172 1153 
Q 1172 725 1289 603 
Q 1406 481 1766 481 
L 2356 481 
L 2356 0 
L 1766 0 
Q 1100 0 847 248 
Q 594 497 594 1153 
L 594 3053 
L 172 3053 
L 172 3500 
L 594 3500 
L 594 4494 
L 1172 4494 
z
" transform="scale(0.015625)"/>
      <path id="DejaVuSans-77" d="M 269 3500 
L 844 3500 
L 1563 769 
L 2278 3500 
L 2956 3500 
L 3675 769 
L 4391 3500 
L 4966 3500 
L 4050 0 
L 3372 0 
L 2619 2869 
L 1863 0 
L 1184 0 
L 269 3500 
z
" transform="scale(0.015625)"/>
      <path id="DejaVuSans-6e" d="M 3513 2113 
L 3513 0 
L 2938 0 
L 2938 2094 
Q 2938 2591 2744 2837 
Q 2550 3084 2163 3084 
Q 1697 3084 1428 2787 
Q 1159 2491 1159 1978 
L 1159 0 
L 581 0 
L 581 3500 
L 1159 3500 
L 1159 2956 
Q 1366 3272 1645 3428 
Q 1925 3584 2291 3584 
Q 2894 3584 3203 3211 
Q 3513 2838 3513 2113 
z
" transform="scale(0.015625)"/>
      <path id="DejaVuSans-53" d="M 3425 4513 
L 3425 3897 
Q 3066 4069 2747 4153 
Q 2428 4238 2131 4238 
Q 1616 4238 1336 4038 
Q 1056 3838 1056 3469 
Q 1056 3159 1242 3001 
Q 1428 2844 1947 2747 
L 2328 2669 
Q 3034 2534 3370 2195 
Q 3706 1856 3706 1288 
Q 3706 609 3251 259 
Q 2797 -91 1919 -91 
Q 1588 -91 1214 -16 
Q 841 59 441 206 
L 441 856 
Q 825 641 1194 531 
Q 1563 422 1919 422 
Q 2459 422 2753 634 
Q 3047 847 3047 1241 
Q 3047 1584 2836 1778 
Q 2625 1972 2144 2069 
L 1759 2144 
Q 1053 2284 737 2584 
Q 422 2884 422 3419 
Q 422 4038 858 4394 
Q 1294 4750 2059 4750 
Q 2388 4750 2728 4690 
Q 3069 4631 3425 4513 
z
" transform="scale(0.015625)"/>
      <path id="DejaVuSans-64" d="M 2906 2969 
L 2906 4863 
L 3481 4863 
L 3481 0 
L 2906 0 
L 2906 525 
Q 2725 213 2448 61 
Q 2172 -91 1784 -91 
Q 1150 -91 751 415 
Q 353 922 353 1747 
Q 353 2572 751 3078 
Q 1150 3584 1784 3584 
Q 2172 3584 2448 3432 
Q 2725 3281 2906 2969 
z
M 947 1747 
Q 947 1113 1208 752 
Q 1469 391 1925 391 
Q 2381 391 2643 752 
Q 2906 1113 2906 1747 
Q 2906 2381 2643 2742 
Q 2381 3103 1925 3103 
Q 1469 3103 1208 2742 
Q 947 2381 947 1747 
z
" transform="scale(0.015625)"/>
      <path id="DejaVuSans-6f" d="M 1959 3097 
Q 1497 3097 1228 2736 
Q 959 2375 959 1747 
Q 959 1119 1226 758 
Q 1494 397 1959 397 
Q 2419 397 2687 759 
Q 2956 1122 2956 1747 
Q 2956 2369 2687 2733 
Q 2419 3097 1959 3097 
z
M 1959 3584 
Q 2709 3584 3137 3096 
Q 3566 2609 3566 1747 
Q 3566 888 3137 398 
Q 2709 -91 1959 -91 
Q 1206 -91 779 398 
Q 353 888 353 1747 
Q 353 2609 779 3096 
Q 1206 3584 1959 3584 
z
" transform="scale(0.015625)"/>
      <path id="DejaVuSans-72" d="M 2631 2963 
Q 2534 3019 2420 3045 
Q 2306 3072 2169 3072 
Q 1681 3072 1420 2755 
Q 1159 2438 1159 1844 
L 1159 0 
L 581 0 
L 581 3500 
L 1159 3500 
L 1159 2956 
Q 1341 3275 1631 3429 
Q 1922 3584 2338 3584 
Q 2397 3584 2469 3576 
Q 2541 3569 2628 3553 
L 2631 2963 
z
" transform="scale(0.015625)"/>
      <path id="DejaVuSans-68" d="M 3513 2113 
L 3513 0 
L 2938 0 
L 2938 2094 
Q 2938 2591 2744 2837 
Q 2550 3084 2163 3084 
Q 1697 3084 1428 2787 
Q 1159 2491 1159 1978 
L 1159 0 
L 581 0 
L 581 4863 
L 1159 4863 
L 1159 2956 
Q 1366 3272 1645 3428 
Q 1925 3584 2291 3584 
Q 2894 3584 3203 3211 
Q 3513 2838 3513 2113 
z
" transform="scale(0.015625)"/>
      <path id="DejaVuSans-66" d="M 2375 4863 
L 2375 4384 
L 1825 4384 
Q 1516 4384 1395 4259 
Q 1275 4134 1275 3809 
L 1275 3500 
L 2222 3500 
L 2222 3053 
L 1275 3053 
L 1275 0 
L 697 0 
L 697 3053 
L 147 3053 
L 147 3500 
L 697 3500 
L 697 3744 
Q 697 4328 969 4595 
Q 1241 4863 1831 4863 
L 2375 4863 
z
" transform="scale(0.015625)"/>
      <path id="DejaVuSans-6c" d="M 603 4863 
L 1178 4863 
L 1178 0 
L 603 0 
L 603 4863 
z
" transform="scale(0.015625)"/>
      <path id="DejaVuSans-6d" d="M 3328 2828 
Q 3544 3216 3844 3400 
Q 4144 3584 4550 3584 
Q 5097 3584 5394 3201 
Q 5691 2819 5691 2113 
L 5691 0 
L 5113 0 
L 5113 2094 
Q 5113 2597 4934 2840 
Q 4756 3084 4391 3084 
Q 3944 3084 3684 2787 
Q 3425 2491 3425 1978 
L 3425 0 
L 2847 0 
L 2847 2094 
Q 2847 2600 2669 2842 
Q 2491 3084 2119 3084 
Q 1678 3084 1418 2786 
Q 1159 2488 1159 1978 
L 1159 0 
L 581 0 
L 581 3500 
L 1159 3500 
L 1159 2956 
Q 1356 3278 1631 3431 
Q 1906 3584 2284 3584 
Q 2666 3584 2933 3390 
Q 3200 3197 3328 2828 
z
" transform="scale(0.015625)"/>
     </defs>
     <use xlink:href="#DejaVuSans-51"/>
     <use xlink:href="#DejaVuSans-75" x="78.710938"/>
     <use xlink:href="#DejaVuSans-65" x="142.089844"/>
     <use xlink:href="#DejaVuSans-75" x="203.613281"/>
     <use xlink:href="#DejaVuSans-65" x="266.992188"/>
     <use xlink:href="#DejaVuSans-20" x="328.515625"/>
     <use xlink:href="#DejaVuSans-73" x="360.302734"/>
     <use xlink:href="#DejaVuSans-69" x="412.402344"/>
     <use xlink:href="#DejaVuSans-7a" x="440.185547"/>
     <use xlink:href="#DejaVuSans-65" x="492.675781"/>
     <use xlink:href="#DejaVuSans-20" x="554.199219"/>
     <use xlink:href="#DejaVuSans-28" x="585.986328"/>
     <use xlink:href="#DejaVuSans-79" x="625"/>
     <use xlink:href="#DejaVuSans-2d" x="682.429688"/>
     <use xlink:href="#DejaVuSans-61" x="718.513672"/>
     <use xlink:href="#DejaVuSans-78" x="779.792969"/>
     <use xlink:href="#DejaVuSans-69" x="838.972656"/>
     <use xlink:href="#DejaVuSans-73" x="866.755859"/>
     <use xlink:href="#DejaVuSans-29" x="918.855469"/>
     <use xlink:href="#DejaVuSans-20" x="957.869141"/>
     <use xlink:href="#DejaVuSans-62" x="989.65625"/>
     <use xlink:href="#DejaVuSans-65" x="1053.132812"/>
     <use xlink:href="#DejaVuSans-74" x="1114.65625"/>
     <use xlink:href="#DejaVuSans-77" x="1153.865234"/>
     <use xlink:href="#DejaVuSans-65" x="1235.652344"/>
     <use xlink:href="#DejaVuSans-65" x="1297.175781"/>
     <use xlink:href="#DejaVuSans-6e" x="1358.699219"/>
     <use xlink:href="#DejaVuSans-20" x="1422.078125"/>
     <use xlink:href="#DejaVuSans-53" x="1453.865234"/>
     <use xlink:href="#DejaVuSans-36" x="1517.341797"/>
     <use xlink:href="#DejaVuSans-20" x="1580.964844"/>
     <use xlink:href="#DejaVuSans-61" x="1612.751953"/>
     <use xlink:href="#DejaVuSans-6e" x="1674.03125"/>
     <use xlink:href="#DejaVuSans-64" x="1737.410156"/>
     <use xlink:href="#DejaVuSans-20" x="1800.886719"/>
     <use xlink:href="#DejaVuSans-73" x="1832.673828"/>
     <use xlink:href="#DejaVuSans-65" x="1884.773438"/>
     <use xlink:href="#DejaVuSans-6e" x="1946.296875"/>
     <use xlink:href="#DejaVuSans-73" x="2009.675781"/>
     <use xlink:href="#DejaVuSans-6f" x="2061.775391"/>
     <use xlink:href="#DejaVuSans-72" x="2122.957031"/>
     <use xlink:href="#DejaVuSans-73" x="2164.070312"/>
     <use xlink:href="#DejaVuSans-20" x="2216.169922"/>
     <use xlink:href="#DejaVuSans-74" x="2247.957031"/>
     <use xlink:href="#DejaVuSans-68" x="2287.166016"/>
     <use xlink:href="#DejaVuSans-61" x="2350.544922"/>
     <use xlink:href="#DejaVuSans-74" x="2411.824219"/>
     <use xlink:href="#DejaVuSans-20" x="2451.033203"/>
     <use xlink:href="#DejaVuSans-66" x="2482.820312"/>
     <use xlink:href="#DejaVuSans-6f" x="2518.025391"/>
     <use xlink:href="#DejaVuSans-6c" x="2579.207031"/>
     <use xlink:href="#DejaVuSans-6c" x="2606.990234"/>
     <use xlink:href="#DejaVuSans-6f" x="2634.773438"/>
     <use xlink:href="#DejaVuSans-77" x="2695.955078"/>
     <use xlink:href="#DejaVuSans-20" x="2777.742188"/>
     <use xlink:href="#DejaVuSans-61" x="2809.529297"/>
     <use xlink:href="#DejaVuSans-74" x="2870.808594"/>
     <use xlink:href="#DejaVuSans-20" x="2910.017578"/>
     <use xlink:href="#DejaVuSans-61" x="2941.804688"/>
     <use xlink:href="#DejaVuSans-20" x="3003.083984"/>
     <use xlink:href="#DejaVuSans-74" x="3034.871094"/>
     <use xlink:href="#DejaVuSans-69" x="3074.080078"/>
     <use xlink:href="#DejaVuSans-6d" x="3101.863281"/>
     <use xlink:href="#DejaVuSans-65" x="3199.275391"/>
     <use xlink:href="#DejaVuSans-20" x="3260.798828"/>
     <use xlink:href="#DejaVuSans-28" x="3292.585938"/>
     <use xlink:href="#DejaVuSans-78" x="3331.599609"/>
     <use xlink:href="#DejaVuSans-2d" x="3390.779297"/>
     <use xlink:href="#DejaVuSans-61" x="3426.863281"/>
     <use xlink:href="#DejaVuSans-78" x="3488.142578"/>
     <use xlink:href="#DejaVuSans-69" x="3547.322266"/>
     <use xlink:href="#DejaVuSans-73" x="3575.105469"/>
     <use xlink:href="#DejaVuSans-29" x="3627.205078"/>
     <use xlink:href="#DejaVuSans-2e" x="3666.21875"/>
    </g>
   </g>
  </g>
 </g>
 <defs>
  <clipPath id="p5a3ba01864">
   <rect x="57.6" y="41.472" width="357.12" height="266.112"/>
  </clipPath>
 </defs>
</svg>
