<?xml version="1.0" encoding="utf-8" standalone="no"?>
<!DOCTYPE svg PUBLIC "-//W3C//DTD SVG 1.1//EN"
  "http://www.w3.org/Graphics/SVG/1.1/DTD/svg11.dtd">
<svg xmlns:xlink="http://www.w3.org/1999/xlink" width="460.8pt" height="345.6pt" viewBox="0 0 460.8 345.6" xmlns="http://www.w3.org/2000/svg" version="1.1">
 <metadata>
  <rdf:RDF xmlns:dc="http://purl.org/dc/elements/1.1/" xmlns:cc="http://creativecommons.org/ns#" xmlns:rdf="http://www.w3.org/1999/02/22-rdf-syntax-ns#">
   <cc:Work>
    <dc:type rdf:resource="http://purl.org/dc/dcmitype/StillImage"/>
    <dc:date>2024-03-08T11:13:09.298871</dc:date>
    <dc:format>image/svg+xml</dc:format>
    <dc:creator>
     <cc:Agent>
      <dc:title>Matplotlib v3.8.2, https://matplotlib.org/</dc:title>
     </cc:Agent>
    </dc:creator>
   </cc:Work>
  </rdf:RDF>
 </metadata>
 <defs>
  <style type="text/css">*{stroke-linejoin: round; stroke-linecap: butt}</style>
 </defs>
 <g id="figure_1">
  <g id="patch_1">
   <path d="M 0 345.6 
L 460.8 345.6 
L 460.8 0 
L 0 0 
z
" style="fill: #ffffff"/>
  </g>
  <g id="axes_1">
   <g id="patch_2">
    <path d="M 57.6 307.584 
L 414.72 307.584 
L 414.72 41.472 
L 57.6 41.472 
z
" style="fill: #ffffff"/>
   </g>
   <g id="matplotlib.axis_1">
    <g id="xtick_1">
     <g id="line2d_1">
      <defs>
       <path id="m43769b2fd9" d="M 0 0 
L 0 3.5 
" style="stroke: #000000; stroke-width: 0.8"/>
      </defs>
      <g>
       <use xlink:href="#m43769b2fd9" x="70.832045" y="307.584" style="stroke: #000000; stroke-width: 0.8"/>
      </g>
     </g>
     <g id="text_1">
      <!-- 0.0 -->
      <g transform="translate(62.880482 322.182437) scale(0.1 -0.1)">
       <defs>
        <path id="DejaVuSans-30" d="M 2034 4250 
Q 1547 4250 1301 3770 
Q 1056 3291 1056 2328 
Q 1056 1369 1301 889 
Q 1547 409 2034 409 
Q 2525 409 2770 889 
Q 3016 1369 3016 2328 
Q 3016 3291 2770 3770 
Q 2525 4250 2034 4250 
z
M 2034 4750 
Q 2819 4750 3233 4129 
Q 3647 3509 3647 2328 
Q 3647 1150 3233 529 
Q 2819 -91 2034 -91 
Q 1250 -91 836 529 
Q 422 1150 422 2328 
Q 422 3509 836 4129 
Q 1250 4750 2034 4750 
z
" transform="scale(0.015625)"/>
        <path id="DejaVuSans-2e" d="M 684 794 
L 1344 794 
L 1344 0 
L 684 0 
L 684 794 
z
" transform="scale(0.015625)"/>
       </defs>
       <use xlink:href="#DejaVuSans-30"/>
       <use xlink:href="#DejaVuSans-2e" x="63.623047"/>
       <use xlink:href="#DejaVuSans-30" x="95.410156"/>
      </g>
     </g>
    </g>
    <g id="xtick_2">
     <g id="line2d_2">
      <g>
       <use xlink:href="#m43769b2fd9" x="116.352107" y="307.584" style="stroke: #000000; stroke-width: 0.8"/>
      </g>
     </g>
     <g id="text_2">
      <!-- 0.5 -->
      <g transform="translate(108.400544 322.182437) scale(0.1 -0.1)">
       <defs>
        <path id="DejaVuSans-35" d="M 691 4666 
L 3169 4666 
L 3169 4134 
L 1269 4134 
L 1269 2991 
Q 1406 3038 1543 3061 
Q 1681 3084 1819 3084 
Q 2600 3084 3056 2656 
Q 3513 2228 3513 1497 
Q 3513 744 3044 326 
Q 2575 -91 1722 -91 
Q 1428 -91 1123 -41 
Q 819 9 494 109 
L 494 744 
Q 775 591 1075 516 
Q 1375 441 1709 441 
Q 2250 441 2565 725 
Q 2881 1009 2881 1497 
Q 2881 1984 2565 2268 
Q 2250 2553 1709 2553 
Q 1456 2553 1204 2497 
Q 953 2441 691 2322 
L 691 4666 
z
" transform="scale(0.015625)"/>
       </defs>
       <use xlink:href="#DejaVuSans-30"/>
       <use xlink:href="#DejaVuSans-2e" x="63.623047"/>
       <use xlink:href="#DejaVuSans-35" x="95.410156"/>
      </g>
     </g>
    </g>
    <g id="xtick_3">
     <g id="line2d_3">
      <g>
       <use xlink:href="#m43769b2fd9" x="161.872169" y="307.584" style="stroke: #000000; stroke-width: 0.8"/>
      </g>
     </g>
     <g id="text_3">
      <!-- 1.0 -->
      <g transform="translate(153.920607 322.182437) scale(0.1 -0.1)">
       <defs>
        <path id="DejaVuSans-31" d="M 794 531 
L 1825 531 
L 1825 4091 
L 703 3866 
L 703 4441 
L 1819 4666 
L 2450 4666 
L 2450 531 
L 3481 531 
L 3481 0 
L 794 0 
L 794 531 
z
" transform="scale(0.015625)"/>
       </defs>
       <use xlink:href="#DejaVuSans-31"/>
       <use xlink:href="#DejaVuSans-2e" x="63.623047"/>
       <use xlink:href="#DejaVuSans-30" x="95.410156"/>
      </g>
     </g>
    </g>
    <g id="xtick_4">
     <g id="line2d_4">
      <g>
       <use xlink:href="#m43769b2fd9" x="207.392231" y="307.584" style="stroke: #000000; stroke-width: 0.8"/>
      </g>
     </g>
     <g id="text_4">
      <!-- 1.5 -->
      <g transform="translate(199.440669 322.182437) scale(0.1 -0.1)">
       <use xlink:href="#DejaVuSans-31"/>
       <use xlink:href="#DejaVuSans-2e" x="63.623047"/>
       <use xlink:href="#DejaVuSans-35" x="95.410156"/>
      </g>
     </g>
    </g>
    <g id="xtick_5">
     <g id="line2d_5">
      <g>
       <use xlink:href="#m43769b2fd9" x="252.912293" y="307.584" style="stroke: #000000; stroke-width: 0.8"/>
      </g>
     </g>
     <g id="text_5">
      <!-- 2.0 -->
      <g transform="translate(244.960731 322.182437) scale(0.1 -0.1)">
       <defs>
        <path id="DejaVuSans-32" d="M 1228 531 
L 3431 531 
L 3431 0 
L 469 0 
L 469 531 
Q 828 903 1448 1529 
Q 2069 2156 2228 2338 
Q 2531 2678 2651 2914 
Q 2772 3150 2772 3378 
Q 2772 3750 2511 3984 
Q 2250 4219 1831 4219 
Q 1534 4219 1204 4116 
Q 875 4013 500 3803 
L 500 4441 
Q 881 4594 1212 4672 
Q 1544 4750 1819 4750 
Q 2544 4750 2975 4387 
Q 3406 4025 3406 3419 
Q 3406 3131 3298 2873 
Q 3191 2616 2906 2266 
Q 2828 2175 2409 1742 
Q 1991 1309 1228 531 
z
" transform="scale(0.015625)"/>
       </defs>
       <use xlink:href="#DejaVuSans-32"/>
       <use xlink:href="#DejaVuSans-2e" x="63.623047"/>
       <use xlink:href="#DejaVuSans-30" x="95.410156"/>
      </g>
     </g>
    </g>
    <g id="xtick_6">
     <g id="line2d_6">
      <g>
       <use xlink:href="#m43769b2fd9" x="298.432355" y="307.584" style="stroke: #000000; stroke-width: 0.8"/>
      </g>
     </g>
     <g id="text_6">
      <!-- 2.5 -->
      <g transform="translate(290.480793 322.182437) scale(0.1 -0.1)">
       <use xlink:href="#DejaVuSans-32"/>
       <use xlink:href="#DejaVuSans-2e" x="63.623047"/>
       <use xlink:href="#DejaVuSans-35" x="95.410156"/>
      </g>
     </g>
    </g>
    <g id="xtick_7">
     <g id="line2d_7">
      <g>
       <use xlink:href="#m43769b2fd9" x="343.952418" y="307.584" style="stroke: #000000; stroke-width: 0.8"/>
      </g>
     </g>
     <g id="text_7">
      <!-- 3.0 -->
      <g transform="translate(336.000855 322.182437) scale(0.1 -0.1)">
       <defs>
        <path id="DejaVuSans-33" d="M 2597 2516 
Q 3050 2419 3304 2112 
Q 3559 1806 3559 1356 
Q 3559 666 3084 287 
Q 2609 -91 1734 -91 
Q 1441 -91 1130 -33 
Q 819 25 488 141 
L 488 750 
Q 750 597 1062 519 
Q 1375 441 1716 441 
Q 2309 441 2620 675 
Q 2931 909 2931 1356 
Q 2931 1769 2642 2001 
Q 2353 2234 1838 2234 
L 1294 2234 
L 1294 2753 
L 1863 2753 
Q 2328 2753 2575 2939 
Q 2822 3125 2822 3475 
Q 2822 3834 2567 4026 
Q 2313 4219 1838 4219 
Q 1578 4219 1281 4162 
Q 984 4106 628 3988 
L 628 4550 
Q 988 4650 1302 4700 
Q 1616 4750 1894 4750 
Q 2613 4750 3031 4423 
Q 3450 4097 3450 3541 
Q 3450 3153 3228 2886 
Q 3006 2619 2597 2516 
z
" transform="scale(0.015625)"/>
       </defs>
       <use xlink:href="#DejaVuSans-33"/>
       <use xlink:href="#DejaVuSans-2e" x="63.623047"/>
       <use xlink:href="#DejaVuSans-30" x="95.410156"/>
      </g>
     </g>
    </g>
    <g id="xtick_8">
     <g id="line2d_8">
      <g>
       <use xlink:href="#m43769b2fd9" x="389.47248" y="307.584" style="stroke: #000000; stroke-width: 0.8"/>
      </g>
     </g>
     <g id="text_8">
      <!-- 3.5 -->
      <g transform="translate(381.520917 322.182437) scale(0.1 -0.1)">
       <use xlink:href="#DejaVuSans-33"/>
       <use xlink:href="#DejaVuSans-2e" x="63.623047"/>
       <use xlink:href="#DejaVuSans-35" x="95.410156"/>
      </g>
     </g>
    </g>
    <g id="text_9">
     <!-- 1e6 -->
     <g transform="translate(395.841875 334.860562) scale(0.1 -0.1)">
      <defs>
       <path id="DejaVuSans-65" d="M 3597 1894 
L 3597 1613 
L 953 1613 
Q 991 1019 1311 708 
Q 1631 397 2203 397 
Q 2534 397 2845 478 
Q 3156 559 3463 722 
L 3463 178 
Q 3153 47 2828 -22 
Q 2503 -91 2169 -91 
Q 1331 -91 842 396 
Q 353 884 353 1716 
Q 353 2575 817 3079 
Q 1281 3584 2069 3584 
Q 2775 3584 3186 3129 
Q 3597 2675 3597 1894 
z
M 3022 2063 
Q 3016 2534 2758 2815 
Q 2500 3097 2075 3097 
Q 1594 3097 1305 2825 
Q 1016 2553 972 2059 
L 3022 2063 
z
" transform="scale(0.015625)"/>
       <path id="DejaVuSans-36" d="M 2113 2584 
Q 1688 2584 1439 2293 
Q 1191 2003 1191 1497 
Q 1191 994 1439 701 
Q 1688 409 2113 409 
Q 2538 409 2786 701 
Q 3034 994 3034 1497 
Q 3034 2003 2786 2293 
Q 2538 2584 2113 2584 
z
M 3366 4563 
L 3366 3988 
Q 3128 4100 2886 4159 
Q 2644 4219 2406 4219 
Q 1781 4219 1451 3797 
Q 1122 3375 1075 2522 
Q 1259 2794 1537 2939 
Q 1816 3084 2150 3084 
Q 2853 3084 3261 2657 
Q 3669 2231 3669 1497 
Q 3669 778 3244 343 
Q 2819 -91 2113 -91 
Q 1303 -91 875 529 
Q 447 1150 447 2328 
Q 447 3434 972 4092 
Q 1497 4750 2381 4750 
Q 2619 4750 2861 4703 
Q 3103 4656 3366 4563 
z
" transform="scale(0.015625)"/>
      </defs>
      <use xlink:href="#DejaVuSans-31"/>
      <use xlink:href="#DejaVuSans-65" x="63.623047"/>
      <use xlink:href="#DejaVuSans-36" x="125.146484"/>
     </g>
    </g>
   </g>
   <g id="matplotlib.axis_2">
    <g id="ytick_1">
     <g id="line2d_9">
      <defs>
       <path id="m10a69166da" d="M 0 0 
L -3.5 0 
" style="stroke: #000000; stroke-width: 0.8"/>
      </defs>
      <g>
       <use xlink:href="#m10a69166da" x="57.6" y="295.488" style="stroke: #000000; stroke-width: 0.8"/>
      </g>
     </g>
     <g id="text_10">
      <!-- 0 -->
      <g transform="translate(44.2375 299.287219) scale(0.1 -0.1)">
       <use xlink:href="#DejaVuSans-30"/>
      </g>
     </g>
    </g>
    <g id="ytick_2">
     <g id="line2d_10">
      <g>
       <use xlink:href="#m10a69166da" x="57.6" y="257.688" style="stroke: #000000; stroke-width: 0.8"/>
      </g>
     </g>
     <g id="text_11">
      <!-- 5 -->
      <g transform="translate(44.2375 261.487219) scale(0.1 -0.1)">
       <use xlink:href="#DejaVuSans-35"/>
      </g>
     </g>
    </g>
    <g id="ytick_3">
     <g id="line2d_11">
      <g>
       <use xlink:href="#m10a69166da" x="57.6" y="219.888" style="stroke: #000000; stroke-width: 0.8"/>
      </g>
     </g>
     <g id="text_12">
      <!-- 10 -->
      <g transform="translate(37.875 223.687219) scale(0.1 -0.1)">
       <use xlink:href="#DejaVuSans-31"/>
       <use xlink:href="#DejaVuSans-30" x="63.623047"/>
      </g>
     </g>
    </g>
    <g id="ytick_4">
     <g id="line2d_12">
      <g>
       <use xlink:href="#m10a69166da" x="57.6" y="182.088" style="stroke: #000000; stroke-width: 0.8"/>
      </g>
     </g>
     <g id="text_13">
      <!-- 15 -->
      <g transform="translate(37.875 185.887219) scale(0.1 -0.1)">
       <use xlink:href="#DejaVuSans-31"/>
       <use xlink:href="#DejaVuSans-35" x="63.623047"/>
      </g>
     </g>
    </g>
    <g id="ytick_5">
     <g id="line2d_13">
      <g>
       <use xlink:href="#m10a69166da" x="57.6" y="144.288" style="stroke: #000000; stroke-width: 0.8"/>
      </g>
     </g>
     <g id="text_14">
      <!-- 20 -->
      <g transform="translate(37.875 148.087219) scale(0.1 -0.1)">
       <use xlink:href="#DejaVuSans-32"/>
       <use xlink:href="#DejaVuSans-30" x="63.623047"/>
      </g>
     </g>
    </g>
    <g id="ytick_6">
     <g id="line2d_14">
      <g>
       <use xlink:href="#m10a69166da" x="57.6" y="106.488" style="stroke: #000000; stroke-width: 0.8"/>
      </g>
     </g>
     <g id="text_15">
      <!-- 25 -->
      <g transform="translate(37.875 110.287219) scale(0.1 -0.1)">
       <use xlink:href="#DejaVuSans-32"/>
       <use xlink:href="#DejaVuSans-35" x="63.623047"/>
      </g>
     </g>
    </g>
    <g id="ytick_7">
     <g id="line2d_15">
      <g>
       <use xlink:href="#m10a69166da" x="57.6" y="68.688" style="stroke: #000000; stroke-width: 0.8"/>
      </g>
     </g>
     <g id="text_16">
      <!-- 30 -->
      <g transform="translate(37.875 72.487219) scale(0.1 -0.1)">
       <use xlink:href="#DejaVuSans-33"/>
       <use xlink:href="#DejaVuSans-30" x="63.623047"/>
      </g>
     </g>
    </g>
   </g>
   <g id="line2d_16">
    <path d="M 73.832727 280.368 
L 74.189605 295.488 
L 74.489127 280.368 
L 74.846004 295.488 
L 75.092723 280.368 
L 75.4496 295.488 
L 75.748211 280.368 
L 76.105089 295.488 
L 76.384582 280.368 
L 76.741459 295.488 
L 77.040981 280.368 
L 77.397859 295.488 
L 77.670979 280.368 
L 78.027856 295.488 
L 78.30826 280.368 
L 78.665137 295.488 
L 84.183989 250.128 
L 84.437991 235.008 
L 84.540867 280.368 
L 84.68471 265.248 
L 84.794869 280.368 
L 84.924146 272.808 
L 85.041587 287.928 
L 85.151746 272.808 
L 85.281023 280.368 
L 85.396644 272.808 
L 85.508623 287.928 
L 85.753521 295.488 
L 86.291568 272.808 
L 86.648446 295.488 
L 86.897896 287.928 
L 87.254773 295.488 
L 87.561578 280.368 
L 87.918455 295.488 
L 88.17883 280.368 
L 88.535707 295.488 
L 88.83705 280.368 
L 89.193927 295.488 
L 89.444288 280.368 
L 89.801165 295.488 
L 90.076106 280.368 
L 90.432073 295.488 
L 90.750714 272.808 
L 91.107591 295.488 
L 91.364324 287.928 
L 91.721201 295.488 
L 92.025275 272.808 
L 92.382153 295.488 
L 92.658915 280.368 
L 93.015792 295.488 
L 93.259779 287.928 
L 93.616657 295.488 
L 93.926193 272.808 
L 94.28307 295.488 
L 94.538893 287.928 
L 95.192561 272.808 
L 95.517574 280.368 
L 98.062146 219.888 
L 98.70762 204.768 
L 98.773169 250.128 
L 99.179208 265.248 
L 99.20652 280.368 
L 99.327604 265.248 
L 99.650796 280.368 
L 99.684481 295.488 
L 99.968526 280.368 
L 100.325403 295.488 
L 100.61309 280.368 
L 100.969968 295.488 
L 101.252192 280.368 
L 101.609069 295.488 
L 101.868534 280.368 
L 102.225411 295.488 
L 102.524022 280.368 
L 102.8809 295.488 
L 103.152199 280.368 
L 103.509077 295.488 
L 103.794032 280.368 
L 104.150909 295.488 
L 104.432223 280.368 
L 104.789101 295.488 
L 105.063131 280.368 
L 105.420009 295.488 
L 105.684936 280.368 
L 106.041813 295.488 
L 106.321306 280.368 
L 106.677273 295.488 
L 106.941289 280.368 
L 107.298167 295.488 
L 107.598599 280.368 
L 107.955476 295.488 
L 108.23679 280.368 
L 108.593668 295.488 
L 108.87134 280.368 
L 109.228217 295.488 
L 109.50771 280.368 
L 109.863677 295.488 
L 110.155916 280.368 
L 110.512793 295.488 
L 112.092339 257.688 
L 112.449217 295.488 
L 113.005472 265.248 
L 113.362349 295.488 
L 113.904038 265.248 
L 114.260915 295.488 
L 114.871794 265.248 
L 115.228672 295.488 
L 126.691534 265.248 
L 127.048411 295.488 
L 127.546401 212.328 
L 127.903278 295.488 
L 127.920575 265.248 
L 128.241947 235.008 
L 128.277453 265.248 
L 128.56514 235.008 
L 128.598824 265.248 
L 128.881049 235.008 
L 128.922017 265.248 
L 129.22427 235.008 
L 129.237926 265.248 
L 129.573864 235.008 
L 129.581147 265.248 
L 129.930741 295.488 
L 129.932562 265.248 
L 130.271231 235.008 
L 130.28944 265.248 
L 130.612632 242.568 
L 130.628109 272.808 
L 130.969509 295.488 
L 130.984986 280.368 
L 131.319103 272.808 
L 131.341863 287.928 
L 131.675981 295.488 
L 137.367809 272.808 
L 137.724686 295.488 
L 138.491244 212.328 
L 138.847211 295.488 
L 138.863598 265.248 
L 139.204999 235.008 
L 139.219565 265.248 
L 139.561876 295.488 
L 139.585547 265.248 
L 139.924216 250.128 
L 139.941513 280.368 
L 140.277452 272.808 
L 140.281093 287.928 
L 140.634329 295.488 
L 140.805484 280.368 
L 141.162362 295.488 
L 141.686753 265.248 
L 142.04363 295.488 
L 142.596244 265.248 
L 142.953121 295.488 
L 143.49572 265.248 
L 143.852597 295.488 
L 149.82665 212.328 
L 150.176244 182.088 
L 150.183527 265.248 
L 150.527659 235.008 
L 150.533122 265.248 
L 150.8463 235.008 
L 150.884536 265.248 
L 151.195894 242.568 
L 151.203177 272.808 
L 151.536384 257.688 
L 151.552771 280.368 
L 151.855935 272.808 
L 151.893261 287.928 
L 152.212812 295.488 
L 152.554212 272.808 
L 153.076783 295.488 
L 153.50103 265.248 
L 153.857907 295.488 
L 154.382298 265.248 
L 154.739175 295.488 
L 155.319101 265.248 
L 155.675978 295.488 
L 156.215846 265.248 
L 156.572723 295.488 
L 157.106219 265.248 
L 157.463096 295.488 
L 158.03938 265.248 
L 158.396257 295.488 
L 158.978914 265.248 
L 159.335791 295.488 
L 159.867465 265.248 
L 160.224343 295.488 
L 160.748734 265.248 
L 161.105611 295.488 
L 161.688268 265.248 
L 162.045145 295.488 
L 162.580461 265.248 
L 162.937338 295.488 
L 163.532741 265.248 
L 163.889618 295.488 
L 164.413099 265.248 
L 164.769976 295.488 
L 165.313486 265.248 
L 165.670363 295.488 
L 166.236633 265.248 
L 166.59351 295.488 
L 167.142482 265.248 
L 167.499359 295.488 
L 168.0456 265.248 
L 168.402477 295.488 
L 168.962374 265.248 
L 169.319251 295.488 
L 169.887342 265.248 
L 170.244219 295.488 
L 170.812309 265.248 
L 171.169187 295.488 
L 177.126852 212.328 
L 177.48373 295.488 
L 177.488282 265.248 
L 177.830592 235.008 
L 177.845159 265.248 
L 178.175634 235.008 
L 178.18747 265.248 
L 178.532512 295.488 
L 178.547078 272.808 
L 178.888479 257.688 
L 178.903955 280.368 
L 179.241714 265.248 
L 179.245356 280.368 
L 179.598592 295.488 
L 179.851683 280.368 
L 180.20856 295.488 
L 180.765726 265.248 
L 181.121693 295.488 
L 181.671575 272.808 
L 182.028453 295.488 
L 188.195511 250.128 
L 188.462258 235.008 
L 188.552388 280.368 
L 188.691679 265.248 
L 188.819135 280.368 
L 188.951144 272.808 
L 189.048557 287.928 
L 189.196042 272.808 
L 189.30711 280.368 
L 189.440939 272.808 
L 189.552008 287.928 
L 189.796906 295.488 
L 190.954026 265.248 
L 191.27904 280.368 
L 191.602232 265.248 
L 192.221305 250.128 
L 193.158108 235.008 
L 195.722708 174.528 
L 203.807981 189.648 
L 203.862606 219.888 
L 204.078371 174.528 
L 204.255899 189.648 
L 204.310523 219.888 
L 204.332373 204.768 
L 204.569077 197.208 
L 204.762992 212.328 
L 204.817616 272.808 
L 204.834914 265.248 
L 205.07526 257.688 
L 205.296487 272.808 
L 206.86693 235.008 
L 207.260223 242.568 
L 207.287535 250.128 
L 207.506031 235.008 
L 207.712692 242.568 
L 207.767316 265.248 
L 208.164251 250.128 
L 208.268037 280.368 
L 208.703209 295.488 
L 208.787876 280.368 
L 209.144754 295.488 
L 209.463394 280.368 
L 209.820271 295.488 
L 215.279948 250.128 
L 215.528487 235.008 
L 215.636825 280.368 
L 215.756087 265.248 
L 215.885364 280.368 
L 216.024656 272.808 
L 216.112965 287.928 
L 216.253166 272.808 
L 216.381533 280.368 
L 216.48805 272.808 
L 216.610044 287.928 
L 216.786662 280.368 
L 216.844927 287.928 
L 217.143539 295.488 
L 217.41848 287.928 
L 217.775357 295.488 
L 218.060313 272.808 
L 218.41719 295.488 
L 218.662088 287.928 
L 219.018965 295.488 
L 224.768149 280.368 
L 225.125027 295.488 
L 225.400878 280.368 
L 225.757755 295.488 
L 225.798723 250.128 
L 226.03998 235.008 
L 226.155601 280.368 
L 226.283057 265.248 
L 226.396857 280.368 
L 226.533417 265.248 
L 226.639934 280.368 
L 226.770122 265.248 
L 226.890295 280.368 
L 226.990439 272.808 
L 227.126999 287.928 
L 227.347316 295.488 
L 227.598587 280.368 
L 227.955464 295.488 
L 228.206735 287.928 
L 228.563612 295.488 
L 235.980651 250.128 
L 236.337528 295.488 
L 236.723538 212.328 
L 237.063118 182.088 
L 237.080416 265.248 
L 237.419995 265.248 
L 237.768679 235.008 
L 237.776873 265.248 
L 238.125556 295.488 
L 238.131019 265.248 
L 238.487896 265.248 
L 238.818372 250.128 
L 238.844773 280.368 
L 239.15431 265.248 
L 239.175249 280.368 
L 239.482965 265.248 
L 239.511187 280.368 
L 239.839842 295.488 
L 239.960925 272.808 
L 240.317802 295.488 
L 240.691067 265.248 
L 241.047034 295.488 
L 282.747963 265.248 
L 283.10393 295.488 
L 283.456255 265.248 
L 283.813132 295.488 
L 284.159085 265.248 
L 284.515962 295.488 
L 284.912897 265.248 
L 285.269774 295.488 
L 285.619368 265.248 
L 285.976246 295.488 
L 286.358614 265.248 
L 286.715491 295.488 
L 287.100591 265.248 
L 287.457468 295.488 
L 287.805242 265.248 
L 288.162119 295.488 
L 288.55086 265.248 
L 288.907738 295.488 
L 289.301031 265.248 
L 289.656998 295.488 
L 306.402918 265.248 
L 306.759796 295.488 
L 307.091182 265.248 
L 307.448059 295.488 
L 307.810399 212.328 
L 308.144516 182.088 
L 308.167276 265.248 
L 308.468619 235.008 
L 308.501393 265.248 
L 308.81184 235.008 
L 308.825496 265.248 
L 309.160524 235.008 
L 309.168717 265.248 
L 309.490089 235.008 
L 309.517401 265.248 
L 309.8324 235.008 
L 309.846966 265.248 
L 310.183815 235.008 
L 310.189277 265.248 
L 310.540692 295.488 
L 310.562542 265.248 
L 310.902121 235.008 
L 310.919419 265.248 
L 311.248984 235.008 
L 311.258088 265.248 
L 311.590385 235.008 
L 311.605861 265.248 
L 311.924502 235.008 
L 311.947262 265.248 
L 312.266813 235.008 
L 312.280469 265.248 
L 312.577259 242.568 
L 312.62369 272.808 
L 312.925943 257.688 
L 312.934137 280.368 
L 313.28282 295.488 
L 313.285552 280.368 
L 313.642429 295.488 
L 322.212036 227.448 
L 322.568913 295.488 
L 322.572555 265.248 
L 322.904851 235.008 
L 322.929432 265.248 
L 323.258087 235.008 
L 323.5831 265.248 
L 323.635903 235.008 
L 325.019713 114.048 
L 325.691589 53.568 
L 329.853944 83.808 
L 329.908568 144.288 
L 330.259983 83.808 
L 330.422945 144.288 
L 330.450257 174.528 
L 330.585906 144.288 
L 330.910009 114.048 
L 330.951888 174.528 
L 331.265066 144.288 
L 331.590079 265.248 
L 331.598273 235.008 
L 331.880497 265.248 
L 331.95515 295.488 
L 331.973358 265.248 
L 332.336608 235.008 
L 332.343891 265.248 
L 332.685292 235.008 
L 332.693485 265.248 
L 333.023051 235.008 
L 333.042169 265.248 
L 333.351705 235.008 
L 333.379928 265.248 
L 333.672167 235.008 
L 333.708583 265.248 
L 334.006284 257.688 
L 334.029044 287.928 
L 334.36134 272.808 
L 334.363161 280.368 
L 334.707293 265.248 
L 334.717307 280.368 
L 335.06417 295.488 
L 335.360051 265.248 
L 335.716928 295.488 
L 336.035568 265.248 
L 336.392446 295.488 
L 336.793933 265.248 
L 337.15081 295.488 
L 337.504046 265.248 
L 337.860923 295.488 
L 338.276066 265.248 
L 338.632943 295.488 
L 338.972523 265.248 
L 339.3294 295.488 
L 339.701754 265.248 
L 340.058631 295.488 
L 340.427344 265.248 
L 340.784221 295.488 
L 341.184798 265.248 
L 341.541675 295.488 
L 341.91585 265.248 
L 342.272727 295.488 
L 342.615038 280.368 
L 342.971915 295.488 
L 344.68438 287.928 
L 345.041257 295.488 
L 345.338048 272.808 
L 345.947107 265.248 
L 346.27212 287.928 
L 346.576194 272.808 
L 347.239876 257.688 
L 347.876247 235.008 
L 348.20126 272.808 
L 348.457993 295.488 
L 348.489857 287.928 
L 348.846735 295.488 
L 349.136242 280.368 
L 349.493119 295.488 
L 349.758957 280.368 
L 350.115834 295.488 
L 350.391685 280.368 
L 350.748563 295.488 
L 351.040802 280.368 
L 351.397679 295.488 
L 351.686276 280.368 
L 352.043153 295.488 
L 352.304439 280.368 
L 352.660405 295.488 
L 352.935347 280.368 
L 353.292224 295.488 
L 353.613595 280.368 
L 353.970473 295.488 
L 354.229027 280.368 
L 354.585904 295.488 
L 355.183127 280.368 
L 355.540005 295.488 
L 355.858645 272.808 
L 356.215522 295.488 
L 356.478628 287.928 
L 356.835505 295.488 
L 357.101343 280.368 
L 357.45731 295.488 
L 357.724057 280.368 
L 358.080934 295.488 
L 358.374084 280.368 
L 358.73005 295.488 
L 359.025931 272.808 
L 359.382808 295.488 
L 359.632258 287.928 
L 359.989135 295.488 
L 360.319611 272.808 
L 360.676488 295.488 
L 360.914103 287.928 
L 361.27098 295.488 
L 361.869114 280.368 
L 362.225991 295.488 
L 362.538259 280.368 
L 362.895136 295.488 
L 363.826477 272.808 
L 364.183354 295.488 
L 364.449191 287.928 
L 364.805158 295.488 
L 365.056429 280.368 
L 365.413306 295.488 
L 365.712828 280.368 
L 366.069705 295.488 
L 366.368317 272.808 
L 366.724284 295.488 
L 366.981927 287.928 
L 367.338805 295.488 
L 367.638327 280.368 
L 367.995204 295.488 
L 368.271966 280.368 
L 368.628843 295.488 
L 368.898322 280.368 
L 369.255199 295.488 
L 369.545617 280.368 
L 369.902495 295.488 
L 370.16378 280.368 
L 370.520657 295.488 
L 370.808344 280.368 
L 371.165221 295.488 
L 371.437431 280.368 
L 372.103845 265.248 
L 372.428858 280.368 
L 372.746588 257.688 
L 373.357467 250.128 
L 374.652058 219.888 
L 375.035337 235.008 
L 375.089961 265.248 
L 375.29207 242.568 
L 375.561549 257.688 
L 375.593413 272.808 
L 375.929351 265.248 
L 375.980333 287.928 
L 376.286228 295.488 
L 376.553886 280.368 
L 376.910763 295.488 
L 377.171138 280.368 
L 377.528015 295.488 
L 377.823896 280.368 
L 378.180773 295.488 
L 378.456625 280.368 
L 378.813502 295.488 
L 395.901733 204.768 
L 396.25861 295.488 
L 396.27955 265.248 
L 396.636427 295.488 
L 396.641889 265.248 
L 396.972365 242.568 
L 396.998767 272.808 
L 397.287364 257.688 
L 397.329242 280.368 
L 397.585065 265.248 
L 397.644241 280.368 
L 397.941942 295.488 
L 398.130395 280.368 
L 398.487273 295.488 
L 398.487273 295.488 
" clip-path="url(#p085f2f2f64)" style="fill: none; stroke: #1f77b4; stroke-width: 1.5; stroke-linecap: square"/>
   </g>
   <g id="patch_3">
    <path d="M 57.6 307.584 
L 57.6 41.472 
" style="fill: none; stroke: #000000; stroke-width: 0.8; stroke-linejoin: miter; stroke-linecap: square"/>
   </g>
   <g id="patch_4">
    <path d="M 414.72 307.584 
L 414.72 41.472 
" style="fill: none; stroke: #000000; stroke-width: 0.8; stroke-linejoin: miter; stroke-linecap: square"/>
   </g>
   <g id="patch_5">
    <path d="M 57.6 307.584 
L 414.72 307.584 
" style="fill: none; stroke: #000000; stroke-width: 0.8; stroke-linejoin: miter; stroke-linecap: square"/>
   </g>
   <g id="patch_6">
    <path d="M 57.6 41.472 
L 414.72 41.472 
" style="fill: none; stroke: #000000; stroke-width: 0.8; stroke-linejoin: miter; stroke-linecap: square"/>
   </g>
   <g id="text_17">
    <!-- Queue size (y-axis) between S7 and sensors that follow at a time (x-axis). -->
    <g transform="translate(14.282813 35.472) scale(0.12 -0.12)">
     <defs>
      <path id="DejaVuSans-51" d="M 2522 4238 
Q 1834 4238 1429 3725 
Q 1025 3213 1025 2328 
Q 1025 1447 1429 934 
Q 1834 422 2522 422 
Q 3209 422 3611 934 
Q 4013 1447 4013 2328 
Q 4013 3213 3611 3725 
Q 3209 4238 2522 4238 
z
M 3406 84 
L 4238 -825 
L 3475 -825 
L 2784 -78 
Q 2681 -84 2626 -87 
Q 2572 -91 2522 -91 
Q 1538 -91 948 567 
Q 359 1225 359 2328 
Q 359 3434 948 4092 
Q 1538 4750 2522 4750 
Q 3503 4750 4090 4092 
Q 4678 3434 4678 2328 
Q 4678 1516 4351 937 
Q 4025 359 3406 84 
z
" transform="scale(0.015625)"/>
      <path id="DejaVuSans-75" d="M 544 1381 
L 544 3500 
L 1119 3500 
L 1119 1403 
Q 1119 906 1312 657 
Q 1506 409 1894 409 
Q 2359 409 2629 706 
Q 2900 1003 2900 1516 
L 2900 3500 
L 3475 3500 
L 3475 0 
L 2900 0 
L 2900 538 
Q 2691 219 2414 64 
Q 2138 -91 1772 -91 
Q 1169 -91 856 284 
Q 544 659 544 1381 
z
M 1991 3584 
L 1991 3584 
z
" transform="scale(0.015625)"/>
      <path id="DejaVuSans-20" transform="scale(0.015625)"/>
      <path id="DejaVuSans-73" d="M 2834 3397 
L 2834 2853 
Q 2591 2978 2328 3040 
Q 2066 3103 1784 3103 
Q 1356 3103 1142 2972 
Q 928 2841 928 2578 
Q 928 2378 1081 2264 
Q 1234 2150 1697 2047 
L 1894 2003 
Q 2506 1872 2764 1633 
Q 3022 1394 3022 966 
Q 3022 478 2636 193 
Q 2250 -91 1575 -91 
Q 1294 -91 989 -36 
Q 684 19 347 128 
L 347 722 
Q 666 556 975 473 
Q 1284 391 1588 391 
Q 1994 391 2212 530 
Q 2431 669 2431 922 
Q 2431 1156 2273 1281 
Q 2116 1406 1581 1522 
L 1381 1569 
Q 847 1681 609 1914 
Q 372 2147 372 2553 
Q 372 3047 722 3315 
Q 1072 3584 1716 3584 
Q 2034 3584 2315 3537 
Q 2597 3491 2834 3397 
z
" transform="scale(0.015625)"/>
      <path id="DejaVuSans-69" d="M 603 3500 
L 1178 3500 
L 1178 0 
L 603 0 
L 603 3500 
z
M 603 4863 
L 1178 4863 
L 1178 4134 
L 603 4134 
L 603 4863 
z
" transform="scale(0.015625)"/>
      <path id="DejaVuSans-7a" d="M 353 3500 
L 3084 3500 
L 3084 2975 
L 922 459 
L 3084 459 
L 3084 0 
L 275 0 
L 275 525 
L 2438 3041 
L 353 3041 
L 353 3500 
z
" transform="scale(0.015625)"/>
      <path id="DejaVuSans-28" d="M 1984 4856 
Q 1566 4138 1362 3434 
Q 1159 2731 1159 2009 
Q 1159 1288 1364 580 
Q 1569 -128 1984 -844 
L 1484 -844 
Q 1016 -109 783 600 
Q 550 1309 550 2009 
Q 550 2706 781 3412 
Q 1013 4119 1484 4856 
L 1984 4856 
z
" transform="scale(0.015625)"/>
      <path id="DejaVuSans-79" d="M 2059 -325 
Q 1816 -950 1584 -1140 
Q 1353 -1331 966 -1331 
L 506 -1331 
L 506 -850 
L 844 -850 
Q 1081 -850 1212 -737 
Q 1344 -625 1503 -206 
L 1606 56 
L 191 3500 
L 800 3500 
L 1894 763 
L 2988 3500 
L 3597 3500 
L 2059 -325 
z
" transform="scale(0.015625)"/>
      <path id="DejaVuSans-2d" d="M 313 2009 
L 1997 2009 
L 1997 1497 
L 313 1497 
L 313 2009 
z
" transform="scale(0.015625)"/>
      <path id="DejaVuSans-61" d="M 2194 1759 
Q 1497 1759 1228 1600 
Q 959 1441 959 1056 
Q 959 750 1161 570 
Q 1363 391 1709 391 
Q 2188 391 2477 730 
Q 2766 1069 2766 1631 
L 2766 1759 
L 2194 1759 
z
M 3341 1997 
L 3341 0 
L 2766 0 
L 2766 531 
Q 2569 213 2275 61 
Q 1981 -91 1556 -91 
Q 1019 -91 701 211 
Q 384 513 384 1019 
Q 384 1609 779 1909 
Q 1175 2209 1959 2209 
L 2766 2209 
L 2766 2266 
Q 2766 2663 2505 2880 
Q 2244 3097 1772 3097 
Q 1472 3097 1187 3025 
Q 903 2953 641 2809 
L 641 3341 
Q 956 3463 1253 3523 
Q 1550 3584 1831 3584 
Q 2591 3584 2966 3190 
Q 3341 2797 3341 1997 
z
" transform="scale(0.015625)"/>
      <path id="DejaVuSans-78" d="M 3513 3500 
L 2247 1797 
L 3578 0 
L 2900 0 
L 1881 1375 
L 863 0 
L 184 0 
L 1544 1831 
L 300 3500 
L 978 3500 
L 1906 2253 
L 2834 3500 
L 3513 3500 
z
" transform="scale(0.015625)"/>
      <path id="DejaVuSans-29" d="M 513 4856 
L 1013 4856 
Q 1481 4119 1714 3412 
Q 1947 2706 1947 2009 
Q 1947 1309 1714 600 
Q 1481 -109 1013 -844 
L 513 -844 
Q 928 -128 1133 580 
Q 1338 1288 1338 2009 
Q 1338 2731 1133 3434 
Q 928 4138 513 4856 
z
" transform="scale(0.015625)"/>
      <path id="DejaVuSans-62" d="M 3116 1747 
Q 3116 2381 2855 2742 
Q 2594 3103 2138 3103 
Q 1681 3103 1420 2742 
Q 1159 2381 1159 1747 
Q 1159 1113 1420 752 
Q 1681 391 2138 391 
Q 2594 391 2855 752 
Q 3116 1113 3116 1747 
z
M 1159 2969 
Q 1341 3281 1617 3432 
Q 1894 3584 2278 3584 
Q 2916 3584 3314 3078 
Q 3713 2572 3713 1747 
Q 3713 922 3314 415 
Q 2916 -91 2278 -91 
Q 1894 -91 1617 61 
Q 1341 213 1159 525 
L 1159 0 
L 581 0 
L 581 4863 
L 1159 4863 
L 1159 2969 
z
" transform="scale(0.015625)"/>
      <path id="DejaVuSans-74" d="M 1172 4494 
L 1172 3500 
L 2356 3500 
L 2356 3053 
L 1172 3053 
L 1172 1153 
Q 1172 725 1289 603 
Q 1406 481 1766 481 
L 2356 481 
L 2356 0 
L 1766 0 
Q 1100 0 847 248 
Q 594 497 594 1153 
L 594 3053 
L 172 3053 
L 172 3500 
L 594 3500 
L 594 4494 
L 1172 4494 
z
" transform="scale(0.015625)"/>
      <path id="DejaVuSans-77" d="M 269 3500 
L 844 3500 
L 1563 769 
L 2278 3500 
L 2956 3500 
L 3675 769 
L 4391 3500 
L 4966 3500 
L 4050 0 
L 3372 0 
L 2619 2869 
L 1863 0 
L 1184 0 
L 269 3500 
z
" transform="scale(0.015625)"/>
      <path id="DejaVuSans-6e" d="M 3513 2113 
L 3513 0 
L 2938 0 
L 2938 2094 
Q 2938 2591 2744 2837 
Q 2550 3084 2163 3084 
Q 1697 3084 1428 2787 
Q 1159 2491 1159 1978 
L 1159 0 
L 581 0 
L 581 3500 
L 1159 3500 
L 1159 2956 
Q 1366 3272 1645 3428 
Q 1925 3584 2291 3584 
Q 2894 3584 3203 3211 
Q 3513 2838 3513 2113 
z
" transform="scale(0.015625)"/>
      <path id="DejaVuSans-53" d="M 3425 4513 
L 3425 3897 
Q 3066 4069 2747 4153 
Q 2428 4238 2131 4238 
Q 1616 4238 1336 4038 
Q 1056 3838 1056 3469 
Q 1056 3159 1242 3001 
Q 1428 2844 1947 2747 
L 2328 2669 
Q 3034 2534 3370 2195 
Q 3706 1856 3706 1288 
Q 3706 609 3251 259 
Q 2797 -91 1919 -91 
Q 1588 -91 1214 -16 
Q 841 59 441 206 
L 441 856 
Q 825 641 1194 531 
Q 1563 422 1919 422 
Q 2459 422 2753 634 
Q 3047 847 3047 1241 
Q 3047 1584 2836 1778 
Q 2625 1972 2144 2069 
L 1759 2144 
Q 1053 2284 737 2584 
Q 422 2884 422 3419 
Q 422 4038 858 4394 
Q 1294 4750 2059 4750 
Q 2388 4750 2728 4690 
Q 3069 4631 3425 4513 
z
" transform="scale(0.015625)"/>
      <path id="DejaVuSans-37" d="M 525 4666 
L 3525 4666 
L 3525 4397 
L 1831 0 
L 1172 0 
L 2766 4134 
L 525 4134 
L 525 4666 
z
" transform="scale(0.015625)"/>
      <path id="DejaVuSans-64" d="M 2906 2969 
L 2906 4863 
L 3481 4863 
L 3481 0 
L 2906 0 
L 2906 525 
Q 2725 213 2448 61 
Q 2172 -91 1784 -91 
Q 1150 -91 751 415 
Q 353 922 353 1747 
Q 353 2572 751 3078 
Q 1150 3584 1784 3584 
Q 2172 3584 2448 3432 
Q 2725 3281 2906 2969 
z
M 947 1747 
Q 947 1113 1208 752 
Q 1469 391 1925 391 
Q 2381 391 2643 752 
Q 2906 1113 2906 1747 
Q 2906 2381 2643 2742 
Q 2381 3103 1925 3103 
Q 1469 3103 1208 2742 
Q 947 2381 947 1747 
z
" transform="scale(0.015625)"/>
      <path id="DejaVuSans-6f" d="M 1959 3097 
Q 1497 3097 1228 2736 
Q 959 2375 959 1747 
Q 959 1119 1226 758 
Q 1494 397 1959 397 
Q 2419 397 2687 759 
Q 2956 1122 2956 1747 
Q 2956 2369 2687 2733 
Q 2419 3097 1959 3097 
z
M 1959 3584 
Q 2709 3584 3137 3096 
Q 3566 2609 3566 1747 
Q 3566 888 3137 398 
Q 2709 -91 1959 -91 
Q 1206 -91 779 398 
Q 353 888 353 1747 
Q 353 2609 779 3096 
Q 1206 3584 1959 3584 
z
" transform="scale(0.015625)"/>
      <path id="DejaVuSans-72" d="M 2631 2963 
Q 2534 3019 2420 3045 
Q 2306 3072 2169 3072 
Q 1681 3072 1420 2755 
Q 1159 2438 1159 1844 
L 1159 0 
L 581 0 
L 581 3500 
L 1159 3500 
L 1159 2956 
Q 1341 3275 1631 3429 
Q 1922 3584 2338 3584 
Q 2397 3584 2469 3576 
Q 2541 3569 2628 3553 
L 2631 2963 
z
" transform="scale(0.015625)"/>
      <path id="DejaVuSans-68" d="M 3513 2113 
L 3513 0 
L 2938 0 
L 2938 2094 
Q 2938 2591 2744 2837 
Q 2550 3084 2163 3084 
Q 1697 3084 1428 2787 
Q 1159 2491 1159 1978 
L 1159 0 
L 581 0 
L 581 4863 
L 1159 4863 
L 1159 2956 
Q 1366 3272 1645 3428 
Q 1925 3584 2291 3584 
Q 2894 3584 3203 3211 
Q 3513 2838 3513 2113 
z
" transform="scale(0.015625)"/>
      <path id="DejaVuSans-66" d="M 2375 4863 
L 2375 4384 
L 1825 4384 
Q 1516 4384 1395 4259 
Q 1275 4134 1275 3809 
L 1275 3500 
L 2222 3500 
L 2222 3053 
L 1275 3053 
L 1275 0 
L 697 0 
L 697 3053 
L 147 3053 
L 147 3500 
L 697 3500 
L 697 3744 
Q 697 4328 969 4595 
Q 1241 4863 1831 4863 
L 2375 4863 
z
" transform="scale(0.015625)"/>
      <path id="DejaVuSans-6c" d="M 603 4863 
L 1178 4863 
L 1178 0 
L 603 0 
L 603 4863 
z
" transform="scale(0.015625)"/>
      <path id="DejaVuSans-6d" d="M 3328 2828 
Q 3544 3216 3844 3400 
Q 4144 3584 4550 3584 
Q 5097 3584 5394 3201 
Q 5691 2819 5691 2113 
L 5691 0 
L 5113 0 
L 5113 2094 
Q 5113 2597 4934 2840 
Q 4756 3084 4391 3084 
Q 3944 3084 3684 2787 
Q 3425 2491 3425 1978 
L 3425 0 
L 2847 0 
L 2847 2094 
Q 2847 2600 2669 2842 
Q 2491 3084 2119 3084 
Q 1678 3084 1418 2786 
Q 1159 2488 1159 1978 
L 1159 0 
L 581 0 
L 581 3500 
L 1159 3500 
L 1159 2956 
Q 1356 3278 1631 3431 
Q 1906 3584 2284 3584 
Q 2666 3584 2933 3390 
Q 3200 3197 3328 2828 
z
" transform="scale(0.015625)"/>
     </defs>
     <use xlink:href="#DejaVuSans-51"/>
     <use xlink:href="#DejaVuSans-75" x="78.710938"/>
     <use xlink:href="#DejaVuSans-65" x="142.089844"/>
     <use xlink:href="#DejaVuSans-75" x="203.613281"/>
     <use xlink:href="#DejaVuSans-65" x="266.992188"/>
     <use xlink:href="#DejaVuSans-20" x="328.515625"/>
     <use xlink:href="#DejaVuSans-73" x="360.302734"/>
     <use xlink:href="#DejaVuSans-69" x="412.402344"/>
     <use xlink:href="#DejaVuSans-7a" x="440.185547"/>
     <use xlink:href="#DejaVuSans-65" x="492.675781"/>
     <use xlink:href="#DejaVuSans-20" x="554.199219"/>
     <use xlink:href="#DejaVuSans-28" x="585.986328"/>
     <use xlink:href="#DejaVuSans-79" x="625"/>
     <use xlink:href="#DejaVuSans-2d" x="682.429688"/>
     <use xlink:href="#DejaVuSans-61" x="718.513672"/>
     <use xlink:href="#DejaVuSans-78" x="779.792969"/>
     <use xlink:href="#DejaVuSans-69" x="838.972656"/>
     <use xlink:href="#DejaVuSans-73" x="866.755859"/>
     <use xlink:href="#DejaVuSans-29" x="918.855469"/>
     <use xlink:href="#DejaVuSans-20" x="957.869141"/>
     <use xlink:href="#DejaVuSans-62" x="989.65625"/>
     <use xlink:href="#DejaVuSans-65" x="1053.132812"/>
     <use xlink:href="#DejaVuSans-74" x="1114.65625"/>
     <use xlink:href="#DejaVuSans-77" x="1153.865234"/>
     <use xlink:href="#DejaVuSans-65" x="1235.652344"/>
     <use xlink:href="#DejaVuSans-65" x="1297.175781"/>
     <use xlink:href="#DejaVuSans-6e" x="1358.699219"/>
     <use xlink:href="#DejaVuSans-20" x="1422.078125"/>
     <use xlink:href="#DejaVuSans-53" x="1453.865234"/>
     <use xlink:href="#DejaVuSans-37" x="1517.341797"/>
     <use xlink:href="#DejaVuSans-20" x="1580.964844"/>
     <use xlink:href="#DejaVuSans-61" x="1612.751953"/>
     <use xlink:href="#DejaVuSans-6e" x="1674.03125"/>
     <use xlink:href="#DejaVuSans-64" x="1737.410156"/>
     <use xlink:href="#DejaVuSans-20" x="1800.886719"/>
     <use xlink:href="#DejaVuSans-73" x="1832.673828"/>
     <use xlink:href="#DejaVuSans-65" x="1884.773438"/>
     <use xlink:href="#DejaVuSans-6e" x="1946.296875"/>
     <use xlink:href="#DejaVuSans-73" x="2009.675781"/>
     <use xlink:href="#DejaVuSans-6f" x="2061.775391"/>
     <use xlink:href="#DejaVuSans-72" x="2122.957031"/>
     <use xlink:href="#DejaVuSans-73" x="2164.070312"/>
     <use xlink:href="#DejaVuSans-20" x="2216.169922"/>
     <use xlink:href="#DejaVuSans-74" x="2247.957031"/>
     <use xlink:href="#DejaVuSans-68" x="2287.166016"/>
     <use xlink:href="#DejaVuSans-61" x="2350.544922"/>
     <use xlink:href="#DejaVuSans-74" x="2411.824219"/>
     <use xlink:href="#DejaVuSans-20" x="2451.033203"/>
     <use xlink:href="#DejaVuSans-66" x="2482.820312"/>
     <use xlink:href="#DejaVuSans-6f" x="2518.025391"/>
     <use xlink:href="#DejaVuSans-6c" x="2579.207031"/>
     <use xlink:href="#DejaVuSans-6c" x="2606.990234"/>
     <use xlink:href="#DejaVuSans-6f" x="2634.773438"/>
     <use xlink:href="#DejaVuSans-77" x="2695.955078"/>
     <use xlink:href="#DejaVuSans-20" x="2777.742188"/>
     <use xlink:href="#DejaVuSans-61" x="2809.529297"/>
     <use xlink:href="#DejaVuSans-74" x="2870.808594"/>
     <use xlink:href="#DejaVuSans-20" x="2910.017578"/>
     <use xlink:href="#DejaVuSans-61" x="2941.804688"/>
     <use xlink:href="#DejaVuSans-20" x="3003.083984"/>
     <use xlink:href="#DejaVuSans-74" x="3034.871094"/>
     <use xlink:href="#DejaVuSans-69" x="3074.080078"/>
     <use xlink:href="#DejaVuSans-6d" x="3101.863281"/>
     <use xlink:href="#DejaVuSans-65" x="3199.275391"/>
     <use xlink:href="#DejaVuSans-20" x="3260.798828"/>
     <use xlink:href="#DejaVuSans-28" x="3292.585938"/>
     <use xlink:href="#DejaVuSans-78" x="3331.599609"/>
     <use xlink:href="#DejaVuSans-2d" x="3390.779297"/>
     <use xlink:href="#DejaVuSans-61" x="3426.863281"/>
     <use xlink:href="#DejaVuSans-78" x="3488.142578"/>
     <use xlink:href="#DejaVuSans-69" x="3547.322266"/>
     <use xlink:href="#DejaVuSans-73" x="3575.105469"/>
     <use xlink:href="#DejaVuSans-29" x="3627.205078"/>
     <use xlink:href="#DejaVuSans-2e" x="3666.21875"/>
    </g>
   </g>
  </g>
 </g>
 <defs>
  <clipPath id="p085f2f2f64">
   <rect x="57.6" y="41.472" width="357.12" height="266.112"/>
  </clipPath>
 </defs>
</svg>
