<?xml version="1.0" encoding="utf-8" standalone="no"?>
<!DOCTYPE svg PUBLIC "-//W3C//DTD SVG 1.1//EN"
  "http://www.w3.org/Graphics/SVG/1.1/DTD/svg11.dtd">
<svg xmlns:xlink="http://www.w3.org/1999/xlink" width="460.8pt" height="345.6pt" viewBox="0 0 460.8 345.6" xmlns="http://www.w3.org/2000/svg" version="1.1">
 <metadata>
  <rdf:RDF xmlns:dc="http://purl.org/dc/elements/1.1/" xmlns:cc="http://creativecommons.org/ns#" xmlns:rdf="http://www.w3.org/1999/02/22-rdf-syntax-ns#">
   <cc:Work>
    <dc:type rdf:resource="http://purl.org/dc/dcmitype/StillImage"/>
    <dc:date>2024-03-08T11:43:56.689150</dc:date>
    <dc:format>image/svg+xml</dc:format>
    <dc:creator>
     <cc:Agent>
      <dc:title>Matplotlib v3.8.2, https://matplotlib.org/</dc:title>
     </cc:Agent>
    </dc:creator>
   </cc:Work>
  </rdf:RDF>
 </metadata>
 <defs>
  <style type="text/css">*{stroke-linejoin: round; stroke-linecap: butt}</style>
 </defs>
 <g id="figure_1">
  <g id="patch_1">
   <path d="M 0 345.6 
L 460.8 345.6 
L 460.8 0 
L 0 0 
z
" style="fill: #ffffff"/>
  </g>
  <g id="axes_1">
   <g id="patch_2">
    <path d="M 57.6 307.584 
L 414.72 307.584 
L 414.72 41.472 
L 57.6 41.472 
z
" style="fill: #ffffff"/>
   </g>
   <g id="matplotlib.axis_1">
    <g id="xtick_1">
     <g id="line2d_1">
      <defs>
       <path id="m3c8b4c5ef8" d="M 0 0 
L 0 3.5 
" style="stroke: #000000; stroke-width: 0.8"/>
      </defs>
      <g>
       <use xlink:href="#m3c8b4c5ef8" x="73.832727" y="307.584" style="stroke: #000000; stroke-width: 0.8"/>
      </g>
     </g>
     <g id="text_1">
      <!-- 0 -->
      <g transform="translate(70.651477 322.182437) scale(0.1 -0.1)">
       <defs>
        <path id="DejaVuSans-30" d="M 2034 4250 
Q 1547 4250 1301 3770 
Q 1056 3291 1056 2328 
Q 1056 1369 1301 889 
Q 1547 409 2034 409 
Q 2525 409 2770 889 
Q 3016 1369 3016 2328 
Q 3016 3291 2770 3770 
Q 2525 4250 2034 4250 
z
M 2034 4750 
Q 2819 4750 3233 4129 
Q 3647 3509 3647 2328 
Q 3647 1150 3233 529 
Q 2819 -91 2034 -91 
Q 1250 -91 836 529 
Q 422 1150 422 2328 
Q 422 3509 836 4129 
Q 1250 4750 2034 4750 
z
" transform="scale(0.015625)"/>
       </defs>
       <use xlink:href="#DejaVuSans-30"/>
      </g>
     </g>
    </g>
    <g id="xtick_2">
     <g id="line2d_2">
      <g>
       <use xlink:href="#m3c8b4c5ef8" x="121.929697" y="307.584" style="stroke: #000000; stroke-width: 0.8"/>
      </g>
     </g>
     <g id="text_2">
      <!-- 20 -->
      <g transform="translate(115.567197 322.182437) scale(0.1 -0.1)">
       <defs>
        <path id="DejaVuSans-32" d="M 1228 531 
L 3431 531 
L 3431 0 
L 469 0 
L 469 531 
Q 828 903 1448 1529 
Q 2069 2156 2228 2338 
Q 2531 2678 2651 2914 
Q 2772 3150 2772 3378 
Q 2772 3750 2511 3984 
Q 2250 4219 1831 4219 
Q 1534 4219 1204 4116 
Q 875 4013 500 3803 
L 500 4441 
Q 881 4594 1212 4672 
Q 1544 4750 1819 4750 
Q 2544 4750 2975 4387 
Q 3406 4025 3406 3419 
Q 3406 3131 3298 2873 
Q 3191 2616 2906 2266 
Q 2828 2175 2409 1742 
Q 1991 1309 1228 531 
z
" transform="scale(0.015625)"/>
       </defs>
       <use xlink:href="#DejaVuSans-32"/>
       <use xlink:href="#DejaVuSans-30" x="63.623047"/>
      </g>
     </g>
    </g>
    <g id="xtick_3">
     <g id="line2d_3">
      <g>
       <use xlink:href="#m3c8b4c5ef8" x="170.026667" y="307.584" style="stroke: #000000; stroke-width: 0.8"/>
      </g>
     </g>
     <g id="text_3">
      <!-- 40 -->
      <g transform="translate(163.664167 322.182437) scale(0.1 -0.1)">
       <defs>
        <path id="DejaVuSans-34" d="M 2419 4116 
L 825 1625 
L 2419 1625 
L 2419 4116 
z
M 2253 4666 
L 3047 4666 
L 3047 1625 
L 3713 1625 
L 3713 1100 
L 3047 1100 
L 3047 0 
L 2419 0 
L 2419 1100 
L 313 1100 
L 313 1709 
L 2253 4666 
z
" transform="scale(0.015625)"/>
       </defs>
       <use xlink:href="#DejaVuSans-34"/>
       <use xlink:href="#DejaVuSans-30" x="63.623047"/>
      </g>
     </g>
    </g>
    <g id="xtick_4">
     <g id="line2d_4">
      <g>
       <use xlink:href="#m3c8b4c5ef8" x="218.123636" y="307.584" style="stroke: #000000; stroke-width: 0.8"/>
      </g>
     </g>
     <g id="text_4">
      <!-- 60 -->
      <g transform="translate(211.761136 322.182437) scale(0.1 -0.1)">
       <defs>
        <path id="DejaVuSans-36" d="M 2113 2584 
Q 1688 2584 1439 2293 
Q 1191 2003 1191 1497 
Q 1191 994 1439 701 
Q 1688 409 2113 409 
Q 2538 409 2786 701 
Q 3034 994 3034 1497 
Q 3034 2003 2786 2293 
Q 2538 2584 2113 2584 
z
M 3366 4563 
L 3366 3988 
Q 3128 4100 2886 4159 
Q 2644 4219 2406 4219 
Q 1781 4219 1451 3797 
Q 1122 3375 1075 2522 
Q 1259 2794 1537 2939 
Q 1816 3084 2150 3084 
Q 2853 3084 3261 2657 
Q 3669 2231 3669 1497 
Q 3669 778 3244 343 
Q 2819 -91 2113 -91 
Q 1303 -91 875 529 
Q 447 1150 447 2328 
Q 447 3434 972 4092 
Q 1497 4750 2381 4750 
Q 2619 4750 2861 4703 
Q 3103 4656 3366 4563 
z
" transform="scale(0.015625)"/>
       </defs>
       <use xlink:href="#DejaVuSans-36"/>
       <use xlink:href="#DejaVuSans-30" x="63.623047"/>
      </g>
     </g>
    </g>
    <g id="xtick_5">
     <g id="line2d_5">
      <g>
       <use xlink:href="#m3c8b4c5ef8" x="266.220606" y="307.584" style="stroke: #000000; stroke-width: 0.8"/>
      </g>
     </g>
     <g id="text_5">
      <!-- 80 -->
      <g transform="translate(259.858106 322.182437) scale(0.1 -0.1)">
       <defs>
        <path id="DejaVuSans-38" d="M 2034 2216 
Q 1584 2216 1326 1975 
Q 1069 1734 1069 1313 
Q 1069 891 1326 650 
Q 1584 409 2034 409 
Q 2484 409 2743 651 
Q 3003 894 3003 1313 
Q 3003 1734 2745 1975 
Q 2488 2216 2034 2216 
z
M 1403 2484 
Q 997 2584 770 2862 
Q 544 3141 544 3541 
Q 544 4100 942 4425 
Q 1341 4750 2034 4750 
Q 2731 4750 3128 4425 
Q 3525 4100 3525 3541 
Q 3525 3141 3298 2862 
Q 3072 2584 2669 2484 
Q 3125 2378 3379 2068 
Q 3634 1759 3634 1313 
Q 3634 634 3220 271 
Q 2806 -91 2034 -91 
Q 1263 -91 848 271 
Q 434 634 434 1313 
Q 434 1759 690 2068 
Q 947 2378 1403 2484 
z
M 1172 3481 
Q 1172 3119 1398 2916 
Q 1625 2713 2034 2713 
Q 2441 2713 2670 2916 
Q 2900 3119 2900 3481 
Q 2900 3844 2670 4047 
Q 2441 4250 2034 4250 
Q 1625 4250 1398 4047 
Q 1172 3844 1172 3481 
z
" transform="scale(0.015625)"/>
       </defs>
       <use xlink:href="#DejaVuSans-38"/>
       <use xlink:href="#DejaVuSans-30" x="63.623047"/>
      </g>
     </g>
    </g>
    <g id="xtick_6">
     <g id="line2d_6">
      <g>
       <use xlink:href="#m3c8b4c5ef8" x="314.317576" y="307.584" style="stroke: #000000; stroke-width: 0.8"/>
      </g>
     </g>
     <g id="text_6">
      <!-- 100 -->
      <g transform="translate(304.773826 322.182437) scale(0.1 -0.1)">
       <defs>
        <path id="DejaVuSans-31" d="M 794 531 
L 1825 531 
L 1825 4091 
L 703 3866 
L 703 4441 
L 1819 4666 
L 2450 4666 
L 2450 531 
L 3481 531 
L 3481 0 
L 794 0 
L 794 531 
z
" transform="scale(0.015625)"/>
       </defs>
       <use xlink:href="#DejaVuSans-31"/>
       <use xlink:href="#DejaVuSans-30" x="63.623047"/>
       <use xlink:href="#DejaVuSans-30" x="127.246094"/>
      </g>
     </g>
    </g>
    <g id="xtick_7">
     <g id="line2d_7">
      <g>
       <use xlink:href="#m3c8b4c5ef8" x="362.414545" y="307.584" style="stroke: #000000; stroke-width: 0.8"/>
      </g>
     </g>
     <g id="text_7">
      <!-- 120 -->
      <g transform="translate(352.870795 322.182437) scale(0.1 -0.1)">
       <use xlink:href="#DejaVuSans-31"/>
       <use xlink:href="#DejaVuSans-32" x="63.623047"/>
       <use xlink:href="#DejaVuSans-30" x="127.246094"/>
      </g>
     </g>
    </g>
    <g id="xtick_8">
     <g id="line2d_8">
      <g>
       <use xlink:href="#m3c8b4c5ef8" x="410.511515" y="307.584" style="stroke: #000000; stroke-width: 0.8"/>
      </g>
     </g>
     <g id="text_8">
      <!-- 140 -->
      <g transform="translate(400.967765 322.182437) scale(0.1 -0.1)">
       <use xlink:href="#DejaVuSans-31"/>
       <use xlink:href="#DejaVuSans-34" x="63.623047"/>
       <use xlink:href="#DejaVuSans-30" x="127.246094"/>
      </g>
     </g>
    </g>
   </g>
   <g id="matplotlib.axis_2">
    <g id="ytick_1">
     <g id="line2d_9">
      <defs>
       <path id="m70de4331b9" d="M 0 0 
L -3.5 0 
" style="stroke: #000000; stroke-width: 0.8"/>
      </defs>
      <g>
       <use xlink:href="#m70de4331b9" x="57.6" y="296.678551" style="stroke: #000000; stroke-width: 0.8"/>
      </g>
     </g>
     <g id="text_9">
      <!-- 0.0 -->
      <g transform="translate(34.696875 300.47777) scale(0.1 -0.1)">
       <defs>
        <path id="DejaVuSans-2e" d="M 684 794 
L 1344 794 
L 1344 0 
L 684 0 
L 684 794 
z
" transform="scale(0.015625)"/>
       </defs>
       <use xlink:href="#DejaVuSans-30"/>
       <use xlink:href="#DejaVuSans-2e" x="63.623047"/>
       <use xlink:href="#DejaVuSans-30" x="95.410156"/>
      </g>
     </g>
    </g>
    <g id="ytick_2">
     <g id="line2d_10">
      <g>
       <use xlink:href="#m70de4331b9" x="57.6" y="248.056441" style="stroke: #000000; stroke-width: 0.8"/>
      </g>
     </g>
     <g id="text_10">
      <!-- 0.2 -->
      <g transform="translate(34.696875 251.85566) scale(0.1 -0.1)">
       <use xlink:href="#DejaVuSans-30"/>
       <use xlink:href="#DejaVuSans-2e" x="63.623047"/>
       <use xlink:href="#DejaVuSans-32" x="95.410156"/>
      </g>
     </g>
    </g>
    <g id="ytick_3">
     <g id="line2d_11">
      <g>
       <use xlink:href="#m70de4331b9" x="57.6" y="199.434331" style="stroke: #000000; stroke-width: 0.8"/>
      </g>
     </g>
     <g id="text_11">
      <!-- 0.4 -->
      <g transform="translate(34.696875 203.233549) scale(0.1 -0.1)">
       <use xlink:href="#DejaVuSans-30"/>
       <use xlink:href="#DejaVuSans-2e" x="63.623047"/>
       <use xlink:href="#DejaVuSans-34" x="95.410156"/>
      </g>
     </g>
    </g>
    <g id="ytick_4">
     <g id="line2d_12">
      <g>
       <use xlink:href="#m70de4331b9" x="57.6" y="150.81222" style="stroke: #000000; stroke-width: 0.8"/>
      </g>
     </g>
     <g id="text_12">
      <!-- 0.6 -->
      <g transform="translate(34.696875 154.611439) scale(0.1 -0.1)">
       <use xlink:href="#DejaVuSans-30"/>
       <use xlink:href="#DejaVuSans-2e" x="63.623047"/>
       <use xlink:href="#DejaVuSans-36" x="95.410156"/>
      </g>
     </g>
    </g>
    <g id="ytick_5">
     <g id="line2d_13">
      <g>
       <use xlink:href="#m70de4331b9" x="57.6" y="102.19011" style="stroke: #000000; stroke-width: 0.8"/>
      </g>
     </g>
     <g id="text_13">
      <!-- 0.8 -->
      <g transform="translate(34.696875 105.989329) scale(0.1 -0.1)">
       <use xlink:href="#DejaVuSans-30"/>
       <use xlink:href="#DejaVuSans-2e" x="63.623047"/>
       <use xlink:href="#DejaVuSans-38" x="95.410156"/>
      </g>
     </g>
    </g>
    <g id="ytick_6">
     <g id="line2d_14">
      <g>
       <use xlink:href="#m70de4331b9" x="57.6" y="53.568" style="stroke: #000000; stroke-width: 0.8"/>
      </g>
     </g>
     <g id="text_14">
      <!-- 1.0 -->
      <g transform="translate(34.696875 57.367219) scale(0.1 -0.1)">
       <use xlink:href="#DejaVuSans-31"/>
       <use xlink:href="#DejaVuSans-2e" x="63.623047"/>
       <use xlink:href="#DejaVuSans-30" x="95.410156"/>
      </g>
     </g>
    </g>
   </g>
   <g id="line2d_15">
    <path d="M 73.832727 295.488 
L 76.237576 295.488 
L 76.237576 292.392567 
L 76.237576 292.392567 
L 78.642424 292.392567 
L 78.642424 288.344693 
L 78.642424 288.344693 
L 81.047273 288.344693 
L 81.047273 282.391937 
L 81.047273 282.391937 
L 83.452121 282.391937 
L 83.452121 248.104063 
L 83.452121 248.104063 
L 85.85697 248.104063 
L 85.85697 214.53052 
L 85.85697 214.53052 
L 88.261818 214.53052 
L 88.261818 177.385323 
L 88.261818 177.385323 
L 90.666667 177.385323 
L 90.666667 141.430677 
L 90.666667 141.430677 
L 93.071515 141.430677 
L 93.071515 138.097134 
L 93.071515 138.097134 
L 95.476364 138.097134 
L 95.476364 134.52548 
L 95.476364 134.52548 
L 97.881212 134.52548 
L 97.881212 130.953827 
L 97.881212 130.953827 
L 100.286061 130.953827 
L 100.286061 127.858394 
L 100.286061 127.858394 
L 102.690909 127.858394 
L 102.690909 125.001071 
L 102.690909 125.001071 
L 105.095758 125.001071 
L 105.095758 121.905638 
L 105.095758 121.905638 
L 107.500606 121.905638 
L 107.500606 117.857764 
L 107.500606 117.857764 
L 109.905455 117.857764 
L 109.905455 114.762331 
L 109.905455 114.762331 
L 112.310303 114.762331 
L 112.310303 112.857449 
L 112.310303 112.857449 
L 114.715152 112.857449 
L 114.715152 110.714457 
L 114.715152 110.714457 
L 117.12 110.714457 
L 117.12 108.809575 
L 117.12 108.809575 
L 119.524848 108.809575 
L 119.524848 106.190362 
L 119.524848 106.190362 
L 121.929697 106.190362 
L 121.929697 103.333039 
L 121.929697 103.333039 
L 124.334545 103.333039 
L 124.334545 100.951937 
L 124.334545 100.951937 
L 126.739394 100.951937 
L 126.739394 98.570835 
L 126.739394 98.570835 
L 129.144242 98.570835 
L 129.144242 95.713512 
L 129.144242 95.713512 
L 131.549091 95.713512 
L 131.549091 93.094299 
L 131.549091 93.094299 
L 133.953939 93.094299 
L 133.953939 91.427528 
L 133.953939 91.427528 
L 136.358788 91.427528 
L 136.358788 89.522646 
L 136.358788 89.522646 
L 138.763636 89.522646 
L 138.763636 87.855874 
L 138.763636 87.855874 
L 141.168485 87.855874 
L 141.168485 86.665323 
L 141.168485 86.665323 
L 143.573333 86.665323 
L 143.573333 85.474772 
L 143.573333 85.474772 
L 145.978182 85.474772 
L 145.978182 84.04611 
L 145.978182 84.04611 
L 148.38303 84.04611 
L 148.38303 82.855559 
L 148.38303 82.855559 
L 150.787879 82.855559 
L 150.787879 82.141228 
L 150.787879 82.141228 
L 153.192727 82.141228 
L 153.192727 81.426898 
L 153.192727 81.426898 
L 155.597576 81.426898 
L 155.597576 80.712567 
L 155.597576 80.712567 
L 158.002424 80.712567 
L 158.002424 79.998236 
L 158.002424 79.998236 
L 160.407273 79.998236 
L 160.407273 78.331465 
L 160.407273 78.331465 
L 162.812121 78.331465 
L 162.812121 76.902803 
L 162.812121 76.902803 
L 165.21697 76.902803 
L 165.21697 76.664693 
L 167.621818 76.664693 
L 167.621818 76.426583 
L 170.026667 76.426583 
L 170.026667 76.188472 
L 172.431515 76.188472 
L 172.431515 75.950362 
L 174.836364 75.950362 
L 174.836364 75.712252 
L 177.241212 75.712252 
L 177.241212 75.474142 
L 179.646061 75.474142 
L 179.646061 75.236031 
L 182.050909 75.236031 
L 182.050909 74.997921 
L 184.455758 74.997921 
L 184.455758 74.759811 
L 186.860606 74.759811 
L 186.860606 74.521701 
L 189.265455 74.521701 
L 189.265455 74.283591 
L 191.670303 74.283591 
L 191.670303 74.04548 
L 194.075152 74.04548 
L 194.075152 73.80737 
L 196.48 73.80737 
L 196.48 73.56926 
L 198.884848 73.56926 
L 198.884848 73.33115 
L 201.289697 73.33115 
L 201.289697 73.093039 
L 203.694545 73.093039 
L 203.694545 72.854929 
L 206.099394 72.854929 
L 206.099394 72.616819 
L 208.504242 72.616819 
L 208.504242 72.378709 
L 210.909091 72.378709 
L 210.909091 72.140598 
L 213.313939 72.140598 
L 213.313939 71.902488 
L 215.718788 71.902488 
L 215.718788 71.664378 
L 218.123636 71.664378 
L 218.123636 71.426268 
L 220.528485 71.426268 
L 220.528485 71.188157 
L 222.933333 71.188157 
L 222.933333 70.950047 
L 225.338182 70.950047 
L 225.338182 70.711937 
L 227.74303 70.711937 
L 227.74303 70.473827 
L 230.147879 70.473827 
L 230.147879 70.235717 
L 232.552727 70.235717 
L 232.552727 69.997606 
L 234.957576 69.997606 
L 234.957576 69.759496 
L 237.362424 69.759496 
L 237.362424 69.521386 
L 239.767273 69.521386 
L 239.767273 69.283276 
L 242.172121 69.283276 
L 242.172121 69.045165 
L 244.57697 69.045165 
L 244.57697 68.807055 
L 246.981818 68.807055 
L 246.981818 68.568945 
L 249.386667 68.568945 
L 249.386667 68.330835 
L 251.791515 68.330835 
L 251.791515 68.092724 
L 254.196364 68.092724 
L 254.196364 67.854614 
L 256.601212 67.854614 
L 256.601212 67.616504 
L 259.006061 67.616504 
L 259.006061 67.378394 
L 261.410909 67.378394 
L 261.410909 67.140283 
L 263.815758 67.140283 
L 263.815758 66.902173 
L 266.220606 66.902173 
L 266.220606 66.664063 
L 268.625455 66.664063 
L 268.625455 66.425953 
L 271.030303 66.425953 
L 271.030303 66.187843 
L 273.435152 66.187843 
L 273.435152 65.949732 
L 275.84 65.949732 
L 275.84 65.711622 
L 278.244848 65.711622 
L 278.244848 65.473512 
L 280.649697 65.473512 
L 280.649697 65.235402 
L 283.054545 65.235402 
L 283.054545 64.997291 
L 285.459394 64.997291 
L 285.459394 64.759181 
L 287.864242 64.759181 
L 287.864242 64.521071 
L 290.269091 64.521071 
L 290.269091 64.282961 
L 292.673939 64.282961 
L 292.673939 64.04485 
L 295.078788 64.04485 
L 295.078788 63.80674 
L 297.483636 63.80674 
L 297.483636 63.56863 
L 299.888485 63.56863 
L 299.888485 63.33052 
L 302.293333 63.33052 
L 302.293333 63.092409 
L 304.698182 63.092409 
L 304.698182 62.854299 
L 307.10303 62.854299 
L 307.10303 62.616189 
L 309.507879 62.616189 
L 309.507879 62.378079 
L 311.912727 62.378079 
L 311.912727 62.139969 
L 314.317576 62.139969 
L 314.317576 61.901858 
L 316.722424 61.901858 
L 316.722424 61.663748 
L 319.127273 61.663748 
L 319.127273 61.425638 
L 321.532121 61.425638 
L 321.532121 61.187528 
L 323.93697 61.187528 
L 323.93697 60.949417 
L 326.341818 60.949417 
L 326.341818 60.711307 
L 328.746667 60.711307 
L 328.746667 60.473197 
L 331.151515 60.473197 
L 331.151515 60.235087 
L 333.556364 60.235087 
L 333.556364 59.996976 
L 335.961212 59.996976 
L 335.961212 59.758866 
L 338.366061 59.758866 
L 338.366061 59.520756 
L 340.770909 59.520756 
L 340.770909 59.282646 
L 343.175758 59.282646 
L 343.175758 59.044535 
L 345.580606 59.044535 
L 345.580606 58.806425 
L 347.985455 58.806425 
L 347.985455 58.568315 
L 350.390303 58.568315 
L 350.390303 58.330205 
L 352.795152 58.330205 
L 352.795152 58.092094 
L 355.2 58.092094 
L 355.2 57.853984 
L 357.604848 57.853984 
L 357.604848 57.615874 
L 360.009697 57.615874 
L 360.009697 57.377764 
L 362.414545 57.377764 
L 362.414545 57.139654 
L 364.819394 57.139654 
L 364.819394 56.901543 
L 367.224242 56.901543 
L 367.224242 56.663433 
L 369.629091 56.663433 
L 369.629091 56.425323 
L 372.033939 56.425323 
L 372.033939 56.187213 
L 374.438788 56.187213 
L 374.438788 55.949102 
L 376.843636 55.949102 
L 376.843636 55.710992 
L 379.248485 55.710992 
L 379.248485 55.472882 
L 381.653333 55.472882 
L 381.653333 55.234772 
L 384.058182 55.234772 
L 384.058182 54.996661 
L 386.46303 54.996661 
L 386.46303 54.758551 
L 388.867879 54.758551 
L 388.867879 54.520441 
L 391.272727 54.520441 
L 391.272727 54.282331 
L 393.677576 54.282331 
L 393.677576 54.04422 
L 396.082424 54.04422 
L 396.082424 53.80611 
L 398.487273 53.80611 
L 398.487273 53.568 
L 398.487273 53.568 
" clip-path="url(#p40ee534b3e)" style="fill: none; stroke: #1f77b4; stroke-width: 1.5; stroke-linecap: square"/>
   </g>
   <g id="patch_3">
    <path d="M 57.6 307.584 
L 57.6 41.472 
" style="fill: none; stroke: #000000; stroke-width: 0.8; stroke-linejoin: miter; stroke-linecap: square"/>
   </g>
   <g id="patch_4">
    <path d="M 414.72 307.584 
L 414.72 41.472 
" style="fill: none; stroke: #000000; stroke-width: 0.8; stroke-linejoin: miter; stroke-linecap: square"/>
   </g>
   <g id="patch_5">
    <path d="M 57.6 307.584 
L 414.72 307.584 
" style="fill: none; stroke: #000000; stroke-width: 0.8; stroke-linejoin: miter; stroke-linecap: square"/>
   </g>
   <g id="patch_6">
    <path d="M 57.6 41.472 
L 414.72 41.472 
" style="fill: none; stroke: #000000; stroke-width: 0.8; stroke-linejoin: miter; stroke-linecap: square"/>
   </g>
   <g id="text_15">
    <!-- Ecdfc of the queue size of S4 -->
    <g transform="translate(148.936875 35.472) scale(0.12 -0.12)">
     <defs>
      <path id="DejaVuSans-45" d="M 628 4666 
L 3578 4666 
L 3578 4134 
L 1259 4134 
L 1259 2753 
L 3481 2753 
L 3481 2222 
L 1259 2222 
L 1259 531 
L 3634 531 
L 3634 0 
L 628 0 
L 628 4666 
z
" transform="scale(0.015625)"/>
      <path id="DejaVuSans-63" d="M 3122 3366 
L 3122 2828 
Q 2878 2963 2633 3030 
Q 2388 3097 2138 3097 
Q 1578 3097 1268 2742 
Q 959 2388 959 1747 
Q 959 1106 1268 751 
Q 1578 397 2138 397 
Q 2388 397 2633 464 
Q 2878 531 3122 666 
L 3122 134 
Q 2881 22 2623 -34 
Q 2366 -91 2075 -91 
Q 1284 -91 818 406 
Q 353 903 353 1747 
Q 353 2603 823 3093 
Q 1294 3584 2113 3584 
Q 2378 3584 2631 3529 
Q 2884 3475 3122 3366 
z
" transform="scale(0.015625)"/>
      <path id="DejaVuSans-64" d="M 2906 2969 
L 2906 4863 
L 3481 4863 
L 3481 0 
L 2906 0 
L 2906 525 
Q 2725 213 2448 61 
Q 2172 -91 1784 -91 
Q 1150 -91 751 415 
Q 353 922 353 1747 
Q 353 2572 751 3078 
Q 1150 3584 1784 3584 
Q 2172 3584 2448 3432 
Q 2725 3281 2906 2969 
z
M 947 1747 
Q 947 1113 1208 752 
Q 1469 391 1925 391 
Q 2381 391 2643 752 
Q 2906 1113 2906 1747 
Q 2906 2381 2643 2742 
Q 2381 3103 1925 3103 
Q 1469 3103 1208 2742 
Q 947 2381 947 1747 
z
" transform="scale(0.015625)"/>
      <path id="DejaVuSans-66" d="M 2375 4863 
L 2375 4384 
L 1825 4384 
Q 1516 4384 1395 4259 
Q 1275 4134 1275 3809 
L 1275 3500 
L 2222 3500 
L 2222 3053 
L 1275 3053 
L 1275 0 
L 697 0 
L 697 3053 
L 147 3053 
L 147 3500 
L 697 3500 
L 697 3744 
Q 697 4328 969 4595 
Q 1241 4863 1831 4863 
L 2375 4863 
z
" transform="scale(0.015625)"/>
      <path id="DejaVuSans-20" transform="scale(0.015625)"/>
      <path id="DejaVuSans-6f" d="M 1959 3097 
Q 1497 3097 1228 2736 
Q 959 2375 959 1747 
Q 959 1119 1226 758 
Q 1494 397 1959 397 
Q 2419 397 2687 759 
Q 2956 1122 2956 1747 
Q 2956 2369 2687 2733 
Q 2419 3097 1959 3097 
z
M 1959 3584 
Q 2709 3584 3137 3096 
Q 3566 2609 3566 1747 
Q 3566 888 3137 398 
Q 2709 -91 1959 -91 
Q 1206 -91 779 398 
Q 353 888 353 1747 
Q 353 2609 779 3096 
Q 1206 3584 1959 3584 
z
" transform="scale(0.015625)"/>
      <path id="DejaVuSans-74" d="M 1172 4494 
L 1172 3500 
L 2356 3500 
L 2356 3053 
L 1172 3053 
L 1172 1153 
Q 1172 725 1289 603 
Q 1406 481 1766 481 
L 2356 481 
L 2356 0 
L 1766 0 
Q 1100 0 847 248 
Q 594 497 594 1153 
L 594 3053 
L 172 3053 
L 172 3500 
L 594 3500 
L 594 4494 
L 1172 4494 
z
" transform="scale(0.015625)"/>
      <path id="DejaVuSans-68" d="M 3513 2113 
L 3513 0 
L 2938 0 
L 2938 2094 
Q 2938 2591 2744 2837 
Q 2550 3084 2163 3084 
Q 1697 3084 1428 2787 
Q 1159 2491 1159 1978 
L 1159 0 
L 581 0 
L 581 4863 
L 1159 4863 
L 1159 2956 
Q 1366 3272 1645 3428 
Q 1925 3584 2291 3584 
Q 2894 3584 3203 3211 
Q 3513 2838 3513 2113 
z
" transform="scale(0.015625)"/>
      <path id="DejaVuSans-65" d="M 3597 1894 
L 3597 1613 
L 953 1613 
Q 991 1019 1311 708 
Q 1631 397 2203 397 
Q 2534 397 2845 478 
Q 3156 559 3463 722 
L 3463 178 
Q 3153 47 2828 -22 
Q 2503 -91 2169 -91 
Q 1331 -91 842 396 
Q 353 884 353 1716 
Q 353 2575 817 3079 
Q 1281 3584 2069 3584 
Q 2775 3584 3186 3129 
Q 3597 2675 3597 1894 
z
M 3022 2063 
Q 3016 2534 2758 2815 
Q 2500 3097 2075 3097 
Q 1594 3097 1305 2825 
Q 1016 2553 972 2059 
L 3022 2063 
z
" transform="scale(0.015625)"/>
      <path id="DejaVuSans-71" d="M 947 1747 
Q 947 1113 1208 752 
Q 1469 391 1925 391 
Q 2381 391 2643 752 
Q 2906 1113 2906 1747 
Q 2906 2381 2643 2742 
Q 2381 3103 1925 3103 
Q 1469 3103 1208 2742 
Q 947 2381 947 1747 
z
M 2906 525 
Q 2725 213 2448 61 
Q 2172 -91 1784 -91 
Q 1150 -91 751 415 
Q 353 922 353 1747 
Q 353 2572 751 3078 
Q 1150 3584 1784 3584 
Q 2172 3584 2448 3432 
Q 2725 3281 2906 2969 
L 2906 3500 
L 3481 3500 
L 3481 -1331 
L 2906 -1331 
L 2906 525 
z
" transform="scale(0.015625)"/>
      <path id="DejaVuSans-75" d="M 544 1381 
L 544 3500 
L 1119 3500 
L 1119 1403 
Q 1119 906 1312 657 
Q 1506 409 1894 409 
Q 2359 409 2629 706 
Q 2900 1003 2900 1516 
L 2900 3500 
L 3475 3500 
L 3475 0 
L 2900 0 
L 2900 538 
Q 2691 219 2414 64 
Q 2138 -91 1772 -91 
Q 1169 -91 856 284 
Q 544 659 544 1381 
z
M 1991 3584 
L 1991 3584 
z
" transform="scale(0.015625)"/>
      <path id="DejaVuSans-73" d="M 2834 3397 
L 2834 2853 
Q 2591 2978 2328 3040 
Q 2066 3103 1784 3103 
Q 1356 3103 1142 2972 
Q 928 2841 928 2578 
Q 928 2378 1081 2264 
Q 1234 2150 1697 2047 
L 1894 2003 
Q 2506 1872 2764 1633 
Q 3022 1394 3022 966 
Q 3022 478 2636 193 
Q 2250 -91 1575 -91 
Q 1294 -91 989 -36 
Q 684 19 347 128 
L 347 722 
Q 666 556 975 473 
Q 1284 391 1588 391 
Q 1994 391 2212 530 
Q 2431 669 2431 922 
Q 2431 1156 2273 1281 
Q 2116 1406 1581 1522 
L 1381 1569 
Q 847 1681 609 1914 
Q 372 2147 372 2553 
Q 372 3047 722 3315 
Q 1072 3584 1716 3584 
Q 2034 3584 2315 3537 
Q 2597 3491 2834 3397 
z
" transform="scale(0.015625)"/>
      <path id="DejaVuSans-69" d="M 603 3500 
L 1178 3500 
L 1178 0 
L 603 0 
L 603 3500 
z
M 603 4863 
L 1178 4863 
L 1178 4134 
L 603 4134 
L 603 4863 
z
" transform="scale(0.015625)"/>
      <path id="DejaVuSans-7a" d="M 353 3500 
L 3084 3500 
L 3084 2975 
L 922 459 
L 3084 459 
L 3084 0 
L 275 0 
L 275 525 
L 2438 3041 
L 353 3041 
L 353 3500 
z
" transform="scale(0.015625)"/>
      <path id="DejaVuSans-53" d="M 3425 4513 
L 3425 3897 
Q 3066 4069 2747 4153 
Q 2428 4238 2131 4238 
Q 1616 4238 1336 4038 
Q 1056 3838 1056 3469 
Q 1056 3159 1242 3001 
Q 1428 2844 1947 2747 
L 2328 2669 
Q 3034 2534 3370 2195 
Q 3706 1856 3706 1288 
Q 3706 609 3251 259 
Q 2797 -91 1919 -91 
Q 1588 -91 1214 -16 
Q 841 59 441 206 
L 441 856 
Q 825 641 1194 531 
Q 1563 422 1919 422 
Q 2459 422 2753 634 
Q 3047 847 3047 1241 
Q 3047 1584 2836 1778 
Q 2625 1972 2144 2069 
L 1759 2144 
Q 1053 2284 737 2584 
Q 422 2884 422 3419 
Q 422 4038 858 4394 
Q 1294 4750 2059 4750 
Q 2388 4750 2728 4690 
Q 3069 4631 3425 4513 
z
" transform="scale(0.015625)"/>
     </defs>
     <use xlink:href="#DejaVuSans-45"/>
     <use xlink:href="#DejaVuSans-63" x="63.183594"/>
     <use xlink:href="#DejaVuSans-64" x="118.164062"/>
     <use xlink:href="#DejaVuSans-66" x="181.640625"/>
     <use xlink:href="#DejaVuSans-63" x="216.845703"/>
     <use xlink:href="#DejaVuSans-20" x="271.826172"/>
     <use xlink:href="#DejaVuSans-6f" x="303.613281"/>
     <use xlink:href="#DejaVuSans-66" x="364.794922"/>
     <use xlink:href="#DejaVuSans-20" x="400"/>
     <use xlink:href="#DejaVuSans-74" x="431.787109"/>
     <use xlink:href="#DejaVuSans-68" x="470.996094"/>
     <use xlink:href="#DejaVuSans-65" x="534.375"/>
     <use xlink:href="#DejaVuSans-20" x="595.898438"/>
     <use xlink:href="#DejaVuSans-71" x="627.685547"/>
     <use xlink:href="#DejaVuSans-75" x="691.162109"/>
     <use xlink:href="#DejaVuSans-65" x="754.541016"/>
     <use xlink:href="#DejaVuSans-75" x="816.064453"/>
     <use xlink:href="#DejaVuSans-65" x="879.443359"/>
     <use xlink:href="#DejaVuSans-20" x="940.966797"/>
     <use xlink:href="#DejaVuSans-73" x="972.753906"/>
     <use xlink:href="#DejaVuSans-69" x="1024.853516"/>
     <use xlink:href="#DejaVuSans-7a" x="1052.636719"/>
     <use xlink:href="#DejaVuSans-65" x="1105.126953"/>
     <use xlink:href="#DejaVuSans-20" x="1166.650391"/>
     <use xlink:href="#DejaVuSans-6f" x="1198.4375"/>
     <use xlink:href="#DejaVuSans-66" x="1259.619141"/>
     <use xlink:href="#DejaVuSans-20" x="1294.824219"/>
     <use xlink:href="#DejaVuSans-53" x="1326.611328"/>
     <use xlink:href="#DejaVuSans-34" x="1390.087891"/>
    </g>
   </g>
   <g id="legend_1">
    <g id="patch_7">
     <path d="M 307.395938 304.584 
L 410.52 304.584 
Q 411.72 304.584 411.72 303.384 
L 411.72 295.177125 
Q 411.72 293.977125 410.52 293.977125 
L 307.395938 293.977125 
Q 306.195938 293.977125 306.195938 295.177125 
L 306.195938 303.384 
Q 306.195938 304.584 307.395938 304.584 
z
" style="fill: #ffffff; opacity: 0.8; stroke: #cccccc; stroke-linejoin: miter"/>
    </g>
    <g id="line2d_16">
     <path d="M 308.595937 298.836187 
L 314.595937 298.836187 
L 320.595937 298.836187 
" style="fill: none; stroke: #1f77b4; stroke-width: 1.5; stroke-linecap: square"/>
    </g>
    <g id="text_16">
     <!-- Ecdf of the queue size of S4 -->
     <g transform="translate(325.395938 300.936187) scale(0.06 -0.06)">
      <use xlink:href="#DejaVuSans-45"/>
      <use xlink:href="#DejaVuSans-63" x="63.183594"/>
      <use xlink:href="#DejaVuSans-64" x="118.164062"/>
      <use xlink:href="#DejaVuSans-66" x="181.640625"/>
      <use xlink:href="#DejaVuSans-20" x="216.845703"/>
      <use xlink:href="#DejaVuSans-6f" x="248.632812"/>
      <use xlink:href="#DejaVuSans-66" x="309.814453"/>
      <use xlink:href="#DejaVuSans-20" x="345.019531"/>
      <use xlink:href="#DejaVuSans-74" x="376.806641"/>
      <use xlink:href="#DejaVuSans-68" x="416.015625"/>
      <use xlink:href="#DejaVuSans-65" x="479.394531"/>
      <use xlink:href="#DejaVuSans-20" x="540.917969"/>
      <use xlink:href="#DejaVuSans-71" x="572.705078"/>
      <use xlink:href="#DejaVuSans-75" x="636.181641"/>
      <use xlink:href="#DejaVuSans-65" x="699.560547"/>
      <use xlink:href="#DejaVuSans-75" x="761.083984"/>
      <use xlink:href="#DejaVuSans-65" x="824.462891"/>
      <use xlink:href="#DejaVuSans-20" x="885.986328"/>
      <use xlink:href="#DejaVuSans-73" x="917.773438"/>
      <use xlink:href="#DejaVuSans-69" x="969.873047"/>
      <use xlink:href="#DejaVuSans-7a" x="997.65625"/>
      <use xlink:href="#DejaVuSans-65" x="1050.146484"/>
      <use xlink:href="#DejaVuSans-20" x="1111.669922"/>
      <use xlink:href="#DejaVuSans-6f" x="1143.457031"/>
      <use xlink:href="#DejaVuSans-66" x="1204.638672"/>
      <use xlink:href="#DejaVuSans-20" x="1239.84375"/>
      <use xlink:href="#DejaVuSans-53" x="1271.630859"/>
      <use xlink:href="#DejaVuSans-34" x="1335.107422"/>
     </g>
    </g>
   </g>
  </g>
 </g>
 <defs>
  <clipPath id="p40ee534b3e">
   <rect x="57.6" y="41.472" width="357.12" height="266.112"/>
  </clipPath>
 </defs>
</svg>
