<?xml version="1.0" encoding="utf-8" standalone="no"?>
<!DOCTYPE svg PUBLIC "-//W3C//DTD SVG 1.1//EN"
  "http://www.w3.org/Graphics/SVG/1.1/DTD/svg11.dtd">
<svg xmlns:xlink="http://www.w3.org/1999/xlink" width="460.8pt" height="345.6pt" viewBox="0 0 460.8 345.6" xmlns="http://www.w3.org/2000/svg" version="1.1">
 <metadata>
  <rdf:RDF xmlns:dc="http://purl.org/dc/elements/1.1/" xmlns:cc="http://creativecommons.org/ns#" xmlns:rdf="http://www.w3.org/1999/02/22-rdf-syntax-ns#">
   <cc:Work>
    <dc:type rdf:resource="http://purl.org/dc/dcmitype/StillImage"/>
    <dc:date>2024-03-08T11:43:58.437741</dc:date>
    <dc:format>image/svg+xml</dc:format>
    <dc:creator>
     <cc:Agent>
      <dc:title>Matplotlib v3.8.2, https://matplotlib.org/</dc:title>
     </cc:Agent>
    </dc:creator>
   </cc:Work>
  </rdf:RDF>
 </metadata>
 <defs>
  <style type="text/css">*{stroke-linejoin: round; stroke-linecap: butt}</style>
 </defs>
 <g id="figure_1">
  <g id="patch_1">
   <path d="M 0 345.6 
L 460.8 345.6 
L 460.8 0 
L 0 0 
z
" style="fill: #ffffff"/>
  </g>
  <g id="axes_1">
   <g id="patch_2">
    <path d="M 57.6 307.584 
L 414.72 307.584 
L 414.72 41.472 
L 57.6 41.472 
z
" style="fill: #ffffff"/>
   </g>
   <g id="matplotlib.axis_1">
    <g id="xtick_1">
     <g id="line2d_1">
      <defs>
       <path id="m2472a79ae8" d="M 0 0 
L 0 3.5 
" style="stroke: #000000; stroke-width: 0.8"/>
      </defs>
      <g>
       <use xlink:href="#m2472a79ae8" x="73.405433" y="307.584" style="stroke: #000000; stroke-width: 0.8"/>
      </g>
     </g>
     <g id="text_1">
      <!-- 0.0 -->
      <g transform="translate(65.453871 322.182437) scale(0.1 -0.1)">
       <defs>
        <path id="DejaVuSans-30" d="M 2034 4250 
Q 1547 4250 1301 3770 
Q 1056 3291 1056 2328 
Q 1056 1369 1301 889 
Q 1547 409 2034 409 
Q 2525 409 2770 889 
Q 3016 1369 3016 2328 
Q 3016 3291 2770 3770 
Q 2525 4250 2034 4250 
z
M 2034 4750 
Q 2819 4750 3233 4129 
Q 3647 3509 3647 2328 
Q 3647 1150 3233 529 
Q 2819 -91 2034 -91 
Q 1250 -91 836 529 
Q 422 1150 422 2328 
Q 422 3509 836 4129 
Q 1250 4750 2034 4750 
z
" transform="scale(0.015625)"/>
        <path id="DejaVuSans-2e" d="M 684 794 
L 1344 794 
L 1344 0 
L 684 0 
L 684 794 
z
" transform="scale(0.015625)"/>
       </defs>
       <use xlink:href="#DejaVuSans-30"/>
       <use xlink:href="#DejaVuSans-2e" x="63.623047"/>
       <use xlink:href="#DejaVuSans-30" x="95.410156"/>
      </g>
     </g>
    </g>
    <g id="xtick_2">
     <g id="line2d_2">
      <g>
       <use xlink:href="#m2472a79ae8" x="140.801977" y="307.584" style="stroke: #000000; stroke-width: 0.8"/>
      </g>
     </g>
     <g id="text_2">
      <!-- 0.5 -->
      <g transform="translate(132.850415 322.182437) scale(0.1 -0.1)">
       <defs>
        <path id="DejaVuSans-35" d="M 691 4666 
L 3169 4666 
L 3169 4134 
L 1269 4134 
L 1269 2991 
Q 1406 3038 1543 3061 
Q 1681 3084 1819 3084 
Q 2600 3084 3056 2656 
Q 3513 2228 3513 1497 
Q 3513 744 3044 326 
Q 2575 -91 1722 -91 
Q 1428 -91 1123 -41 
Q 819 9 494 109 
L 494 744 
Q 775 591 1075 516 
Q 1375 441 1709 441 
Q 2250 441 2565 725 
Q 2881 1009 2881 1497 
Q 2881 1984 2565 2268 
Q 2250 2553 1709 2553 
Q 1456 2553 1204 2497 
Q 953 2441 691 2322 
L 691 4666 
z
" transform="scale(0.015625)"/>
       </defs>
       <use xlink:href="#DejaVuSans-30"/>
       <use xlink:href="#DejaVuSans-2e" x="63.623047"/>
       <use xlink:href="#DejaVuSans-35" x="95.410156"/>
      </g>
     </g>
    </g>
    <g id="xtick_3">
     <g id="line2d_3">
      <g>
       <use xlink:href="#m2472a79ae8" x="208.198522" y="307.584" style="stroke: #000000; stroke-width: 0.8"/>
      </g>
     </g>
     <g id="text_3">
      <!-- 1.0 -->
      <g transform="translate(200.246959 322.182437) scale(0.1 -0.1)">
       <defs>
        <path id="DejaVuSans-31" d="M 794 531 
L 1825 531 
L 1825 4091 
L 703 3866 
L 703 4441 
L 1819 4666 
L 2450 4666 
L 2450 531 
L 3481 531 
L 3481 0 
L 794 0 
L 794 531 
z
" transform="scale(0.015625)"/>
       </defs>
       <use xlink:href="#DejaVuSans-31"/>
       <use xlink:href="#DejaVuSans-2e" x="63.623047"/>
       <use xlink:href="#DejaVuSans-30" x="95.410156"/>
      </g>
     </g>
    </g>
    <g id="xtick_4">
     <g id="line2d_4">
      <g>
       <use xlink:href="#m2472a79ae8" x="275.595066" y="307.584" style="stroke: #000000; stroke-width: 0.8"/>
      </g>
     </g>
     <g id="text_4">
      <!-- 1.5 -->
      <g transform="translate(267.643503 322.182437) scale(0.1 -0.1)">
       <use xlink:href="#DejaVuSans-31"/>
       <use xlink:href="#DejaVuSans-2e" x="63.623047"/>
       <use xlink:href="#DejaVuSans-35" x="95.410156"/>
      </g>
     </g>
    </g>
    <g id="xtick_5">
     <g id="line2d_5">
      <g>
       <use xlink:href="#m2472a79ae8" x="342.99161" y="307.584" style="stroke: #000000; stroke-width: 0.8"/>
      </g>
     </g>
     <g id="text_5">
      <!-- 2.0 -->
      <g transform="translate(335.040048 322.182437) scale(0.1 -0.1)">
       <defs>
        <path id="DejaVuSans-32" d="M 1228 531 
L 3431 531 
L 3431 0 
L 469 0 
L 469 531 
Q 828 903 1448 1529 
Q 2069 2156 2228 2338 
Q 2531 2678 2651 2914 
Q 2772 3150 2772 3378 
Q 2772 3750 2511 3984 
Q 2250 4219 1831 4219 
Q 1534 4219 1204 4116 
Q 875 4013 500 3803 
L 500 4441 
Q 881 4594 1212 4672 
Q 1544 4750 1819 4750 
Q 2544 4750 2975 4387 
Q 3406 4025 3406 3419 
Q 3406 3131 3298 2873 
Q 3191 2616 2906 2266 
Q 2828 2175 2409 1742 
Q 1991 1309 1228 531 
z
" transform="scale(0.015625)"/>
       </defs>
       <use xlink:href="#DejaVuSans-32"/>
       <use xlink:href="#DejaVuSans-2e" x="63.623047"/>
       <use xlink:href="#DejaVuSans-30" x="95.410156"/>
      </g>
     </g>
    </g>
    <g id="xtick_6">
     <g id="line2d_6">
      <g>
       <use xlink:href="#m2472a79ae8" x="410.388155" y="307.584" style="stroke: #000000; stroke-width: 0.8"/>
      </g>
     </g>
     <g id="text_6">
      <!-- 2.5 -->
      <g transform="translate(402.436592 322.182437) scale(0.1 -0.1)">
       <use xlink:href="#DejaVuSans-32"/>
       <use xlink:href="#DejaVuSans-2e" x="63.623047"/>
       <use xlink:href="#DejaVuSans-35" x="95.410156"/>
      </g>
     </g>
    </g>
    <g id="text_7">
     <!-- 1e6 -->
     <g transform="translate(395.841875 334.860562) scale(0.1 -0.1)">
      <defs>
       <path id="DejaVuSans-65" d="M 3597 1894 
L 3597 1613 
L 953 1613 
Q 991 1019 1311 708 
Q 1631 397 2203 397 
Q 2534 397 2845 478 
Q 3156 559 3463 722 
L 3463 178 
Q 3153 47 2828 -22 
Q 2503 -91 2169 -91 
Q 1331 -91 842 396 
Q 353 884 353 1716 
Q 353 2575 817 3079 
Q 1281 3584 2069 3584 
Q 2775 3584 3186 3129 
Q 3597 2675 3597 1894 
z
M 3022 2063 
Q 3016 2534 2758 2815 
Q 2500 3097 2075 3097 
Q 1594 3097 1305 2825 
Q 1016 2553 972 2059 
L 3022 2063 
z
" transform="scale(0.015625)"/>
       <path id="DejaVuSans-36" d="M 2113 2584 
Q 1688 2584 1439 2293 
Q 1191 2003 1191 1497 
Q 1191 994 1439 701 
Q 1688 409 2113 409 
Q 2538 409 2786 701 
Q 3034 994 3034 1497 
Q 3034 2003 2786 2293 
Q 2538 2584 2113 2584 
z
M 3366 4563 
L 3366 3988 
Q 3128 4100 2886 4159 
Q 2644 4219 2406 4219 
Q 1781 4219 1451 3797 
Q 1122 3375 1075 2522 
Q 1259 2794 1537 2939 
Q 1816 3084 2150 3084 
Q 2853 3084 3261 2657 
Q 3669 2231 3669 1497 
Q 3669 778 3244 343 
Q 2819 -91 2113 -91 
Q 1303 -91 875 529 
Q 447 1150 447 2328 
Q 447 3434 972 4092 
Q 1497 4750 2381 4750 
Q 2619 4750 2861 4703 
Q 3103 4656 3366 4563 
z
" transform="scale(0.015625)"/>
      </defs>
      <use xlink:href="#DejaVuSans-31"/>
      <use xlink:href="#DejaVuSans-65" x="63.623047"/>
      <use xlink:href="#DejaVuSans-36" x="125.146484"/>
     </g>
    </g>
   </g>
   <g id="matplotlib.axis_2">
    <g id="ytick_1">
     <g id="line2d_7">
      <defs>
       <path id="m7cc3e1bb9b" d="M 0 0 
L -3.5 0 
" style="stroke: #000000; stroke-width: 0.8"/>
      </defs>
      <g>
       <use xlink:href="#m7cc3e1bb9b" x="57.6" y="295.488" style="stroke: #000000; stroke-width: 0.8"/>
      </g>
     </g>
     <g id="text_8">
      <!-- 0 -->
      <g transform="translate(44.2375 299.287219) scale(0.1 -0.1)">
       <use xlink:href="#DejaVuSans-30"/>
      </g>
     </g>
    </g>
    <g id="ytick_2">
     <g id="line2d_8">
      <g>
       <use xlink:href="#m7cc3e1bb9b" x="57.6" y="240.506182" style="stroke: #000000; stroke-width: 0.8"/>
      </g>
     </g>
     <g id="text_9">
      <!-- 5 -->
      <g transform="translate(44.2375 244.305401) scale(0.1 -0.1)">
       <use xlink:href="#DejaVuSans-35"/>
      </g>
     </g>
    </g>
    <g id="ytick_3">
     <g id="line2d_9">
      <g>
       <use xlink:href="#m7cc3e1bb9b" x="57.6" y="185.524364" style="stroke: #000000; stroke-width: 0.8"/>
      </g>
     </g>
     <g id="text_10">
      <!-- 10 -->
      <g transform="translate(37.875 189.323582) scale(0.1 -0.1)">
       <use xlink:href="#DejaVuSans-31"/>
       <use xlink:href="#DejaVuSans-30" x="63.623047"/>
      </g>
     </g>
    </g>
    <g id="ytick_4">
     <g id="line2d_10">
      <g>
       <use xlink:href="#m7cc3e1bb9b" x="57.6" y="130.542545" style="stroke: #000000; stroke-width: 0.8"/>
      </g>
     </g>
     <g id="text_11">
      <!-- 15 -->
      <g transform="translate(37.875 134.341764) scale(0.1 -0.1)">
       <use xlink:href="#DejaVuSans-31"/>
       <use xlink:href="#DejaVuSans-35" x="63.623047"/>
      </g>
     </g>
    </g>
    <g id="ytick_5">
     <g id="line2d_11">
      <g>
       <use xlink:href="#m7cc3e1bb9b" x="57.6" y="75.560727" style="stroke: #000000; stroke-width: 0.8"/>
      </g>
     </g>
     <g id="text_12">
      <!-- 20 -->
      <g transform="translate(37.875 79.359946) scale(0.1 -0.1)">
       <use xlink:href="#DejaVuSans-32"/>
       <use xlink:href="#DejaVuSans-30" x="63.623047"/>
      </g>
     </g>
    </g>
   </g>
   <g id="line2d_12">
    <path d="M 73.832727 284.491636 
L 74.158927 295.488 
L 74.303155 284.491636 
L 74.629354 295.488 
L 74.772235 284.491636 
L 75.098434 295.488 
L 75.242663 284.491636 
L 75.568862 295.488 
L 75.722526 284.491636 
L 76.048726 295.488 
L 76.192954 284.491636 
L 76.519154 295.488 
L 76.660686 284.491636 
L 76.986886 295.488 
L 77.129766 284.491636 
L 77.455965 295.488 
L 77.608282 284.491636 
L 77.934481 295.488 
L 78.084101 284.491636 
L 78.410301 295.488 
L 78.555877 284.491636 
L 78.882076 295.488 
L 79.029001 284.491636 
L 79.3552 295.488 
L 79.50482 284.491636 
L 79.83102 295.488 
L 79.981988 284.491636 
L 80.308187 295.488 
L 80.460503 284.491636 
L 80.785355 295.488 
L 80.924192 284.491636 
L 81.250391 295.488 
L 81.401359 284.491636 
L 89.590039 273.495273 
L 89.913543 196.520727 
L 89.916239 207.517091 
L 90.285572 295.488 
L 90.369143 284.491636 
L 90.695343 295.488 
L 90.828788 284.491636 
L 91.154987 295.488 
L 91.300564 284.491636 
L 91.626763 295.488 
L 91.766948 284.491636 
L 92.091799 295.488 
L 92.241419 284.491636 
L 92.567619 295.488 
L 92.711847 284.491636 
L 93.038047 295.488 
L 93.183623 284.491636 
L 93.508474 295.488 
L 93.660791 284.491636 
L 93.98699 295.488 
L 94.137958 284.491636 
L 94.462809 295.488 
L 94.609734 284.491636 
L 94.934585 295.488 
L 95.085554 284.491636 
L 95.410405 295.488 
L 95.562721 284.491636 
L 95.88892 295.488 
L 96.027757 284.491636 
L 96.352609 295.488 
L 96.490098 284.491636 
L 96.814949 295.488 
L 96.963221 284.491636 
L 97.289421 295.488 
L 97.432301 284.491636 
L 97.7585 295.488 
L 97.897337 284.491636 
L 98.223537 295.488 
L 98.375853 284.491636 
L 98.702052 295.488 
L 98.835497 284.491636 
L 99.161697 295.488 
L 99.304577 284.491636 
L 99.630776 295.488 
L 99.777701 284.491636 
L 100.102552 295.488 
L 100.26026 284.491636 
L 100.585112 295.488 
L 100.72934 284.491636 
L 101.054192 295.488 
L 101.194376 284.491636 
L 101.520576 295.488 
L 101.659412 284.491636 
L 101.984264 295.488 
L 102.128492 284.491636 
L 102.454692 295.488 
L 102.59892 284.491636 
L 102.92512 295.488 
L 103.062609 284.491636 
L 103.388808 295.488 
L 103.533036 284.491636 
L 103.857888 295.488 
L 104.008856 284.491636 
L 104.335055 295.488 
L 104.484676 284.491636 
L 104.810875 295.488 
L 104.952408 284.491636 
L 105.278607 295.488 
L 105.428227 284.491636 
L 105.754426 295.488 
L 105.898655 284.491636 
L 106.224854 295.488 
L 106.374475 284.491636 
L 106.700674 295.488 
L 106.842207 284.491636 
L 107.168406 295.488 
L 107.316678 284.491636 
L 107.642878 295.488 
L 107.795194 284.491636 
L 108.121393 295.488 
L 108.258882 284.491636 
L 108.585081 295.488 
L 108.726614 284.491636 
L 109.052813 295.488 
L 109.197042 284.491636 
L 109.523241 295.488 
L 109.670166 284.491636 
L 109.995017 295.488 
L 110.141942 284.491636 
L 110.468141 295.488 
L 110.625849 284.491636 
L 110.952048 295.488 
L 111.105712 284.491636 
L 111.431911 295.488 
L 111.577488 284.491636 
L 111.903687 295.488 
L 112.03848 284.491636 
L 112.36468 295.488 
L 112.512952 284.491636 
L 112.837803 295.488 
L 112.986076 284.491636 
L 113.312275 295.488 
L 113.451112 284.491636 
L 113.777311 295.488 
L 113.926931 284.491636 
L 114.251783 295.488 
L 114.394663 284.491636 
L 114.720863 295.488 
L 114.874527 284.491636 
L 115.200726 295.488 
L 115.350346 284.491636 
L 115.675198 295.488 
L 115.820774 284.491636 
L 116.146974 295.488 
L 116.293898 284.491636 
L 116.618749 295.488 
L 116.765674 284.491636 
L 117.091873 295.488 
L 117.244189 284.491636 
L 117.569041 295.488 
L 117.709226 284.491636 
L 118.035425 295.488 
L 118.182349 284.491636 
L 118.507201 295.488 
L 118.663561 284.491636 
L 118.98976 295.488 
L 119.140728 284.491636 
L 119.466927 295.488 
L 119.609808 284.491636 
L 119.934659 295.488 
L 120.0708 284.491636 
L 120.397 295.488 
L 120.547968 284.491636 
L 120.872819 295.488 
L 121.017048 284.491636 
L 121.343247 295.488 
L 121.47804 284.491636 
L 121.80424 295.488 
L 121.951164 284.491636 
L 122.277363 295.488 
L 122.412156 284.491636 
L 122.738356 295.488 
L 122.87854 284.491636 
L 123.20474 295.488 
L 123.346272 284.491636 
L 123.672472 295.488 
L 123.8167 284.491636 
L 124.1429 295.488 
L 124.281737 284.491636 
L 124.607936 295.488 
L 124.750816 284.491636 
L 125.075668 295.488 
L 125.226636 284.491636 
L 125.551487 295.488 
L 125.69976 284.491636 
L 126.025959 295.488 
L 126.164796 284.491636 
L 126.489647 295.488 
L 126.646007 284.491636 
L 126.972207 295.488 
L 127.117783 284.491636 
L 127.443982 295.488 
L 127.598994 284.491636 
L 127.925194 295.488 
L 128.07077 284.491636 
L 128.395622 295.488 
L 129.778599 284.491636 
L 130.10345 295.488 
L 130.114233 284.491636 
L 130.440433 295.488 
L 130.45526 284.491636 
L 130.781459 295.488 
L 130.789547 284.491636 
L 131.115746 295.488 
L 131.123834 284.491636 
L 131.450033 295.488 
L 131.463512 284.491636 
L 131.789712 295.488 
L 131.805887 284.491636 
L 132.132086 295.488 
L 132.141522 284.491636 
L 132.467721 295.488 
L 132.471765 284.491636 
L 132.797964 295.488 
L 132.807399 284.491636 
L 133.133599 295.488 
L 133.148426 284.491636 
L 133.474625 295.488 
L 133.478669 284.491636 
L 133.804868 295.488 
L 133.822391 284.491636 
L 134.148591 295.488 
L 134.159374 284.491636 
L 134.485573 295.488 
L 134.503096 284.491636 
L 134.827948 295.488 
L 134.844123 284.491636 
L 135.170322 295.488 
L 135.179758 284.491636 
L 135.505957 295.488 
L 135.518088 284.491636 
L 135.844288 295.488 
L 135.856419 284.491636 
L 136.182618 295.488 
L 136.200141 284.491636 
L 136.526341 295.488 
L 136.537124 284.491636 
L 136.861975 295.488 
L 136.883542 284.491636 
L 137.209742 295.488 
L 137.227265 284.491636 
L 137.553464 295.488 
L 137.560204 284.491636 
L 137.886403 295.488 
L 137.90123 284.491636 
L 138.227429 295.488 
L 138.235517 284.491636 
L 138.561716 295.488 
L 138.576544 284.491636 
L 138.902743 295.488 
L 138.918918 284.491636 
L 139.243769 295.488 
L 139.258597 284.491636 
L 139.584796 295.488 
L 139.594231 284.491636 
L 139.920431 295.488 
L 139.932562 284.491636 
L 140.258761 295.488 
L 140.269545 284.491636 
L 140.595744 295.488 
L 140.599788 284.491636 
L 140.925987 295.488 
L 140.930031 284.491636 
L 141.254882 295.488 
L 141.261622 284.491636 
L 141.587821 295.488 
L 141.590517 284.491636 
L 141.915368 295.488 
L 141.926152 284.491636 
L 142.252351 295.488 
L 142.260439 284.491636 
L 145.965901 163.531636 
L 146.602124 152.535273 
L 154.301505 141.538909 
L 154.360814 108.549818 
L 170.680213 119.546182 
L 170.782656 108.549818 
L 170.901274 119.546182 
L 171.005065 108.549818 
L 171.009109 119.546182 
L 171.358223 284.491636 
L 171.537497 295.488 
L 171.545585 284.491636 
L 171.870436 295.488 
L 171.879872 284.491636 
L 172.206071 295.488 
L 172.224942 284.491636 
L 172.551142 295.488 
L 172.560577 284.491636 
L 172.886776 295.488 
L 172.894864 284.491636 
L 173.221063 295.488 
L 173.230499 284.491636 
L 173.556698 295.488 
L 173.570177 284.491636 
L 173.896377 295.488 
L 173.905812 284.491636 
L 174.232011 295.488 
L 174.246839 284.491636 
L 174.573038 295.488 
L 174.582473 284.491636 
L 174.908673 295.488 
L 174.918108 284.491636 
L 175.244307 295.488 
L 175.253743 284.491636 
L 175.578594 295.488 
L 175.586682 284.491636 
L 175.911533 295.488 
L 175.920969 284.491636 
L 176.247168 295.488 
L 176.255256 284.491636 
L 176.581455 295.488 
L 176.59089 284.491636 
L 176.91709 295.488 
L 176.925177 284.491636 
L 177.251377 295.488 
L 177.263508 284.491636 
L 177.588359 295.488 
L 177.600491 284.491636 
L 177.92669 295.488 
L 177.936125 284.491636 
L 178.262325 295.488 
L 178.27176 284.491636 
L 178.597959 295.488 
L 178.610091 284.491636 
L 178.93629 295.488 
L 178.945726 284.491636 
L 179.271925 295.488 
L 179.278665 284.491636 
L 179.603516 295.488 
L 179.618343 284.491636 
L 179.944542 295.488 
L 179.948586 284.491636 
L 180.273438 295.488 
L 180.281525 284.491636 
L 180.607724 295.488 
L 180.6239 284.491636 
L 180.950099 295.488 
L 180.960882 284.491636 
L 181.287082 295.488 
L 181.299213 284.491636 
L 181.625412 295.488 
L 181.634848 284.491636 
L 181.961047 295.488 
L 181.97183 284.491636 
L 182.296682 295.488 
L 182.314205 284.491636 
L 182.640404 295.488 
L 182.64984 284.491636 
L 182.976039 295.488 
L 182.993562 284.491636 
L 183.319761 295.488 
L 183.334589 284.491636 
L 183.660788 295.488 
L 183.670223 284.491636 
L 183.996423 295.488 
L 184.005858 284.491636 
L 184.33071 295.488 
L 184.348233 284.491636 
L 184.674432 295.488 
L 184.677128 284.491636 
L 185.003327 295.488 
L 185.02085 284.491636 
L 185.347049 295.488 
L 185.361877 284.491636 
L 185.688076 295.488 
L 185.696164 284.491636 
L 186.022363 295.488 
L 186.033146 284.491636 
L 186.359346 295.488 
L 186.371477 284.491636 
L 186.696328 295.488 
L 186.70846 284.491636 
L 187.033311 295.488 
L 187.049486 284.491636 
L 187.375685 295.488 
L 187.387817 284.491636 
L 187.714016 295.488 
L 187.722104 284.491636 
L 188.048303 295.488 
L 188.060434 284.491636 
L 188.386634 295.488 
L 188.402809 284.491636 
L 188.72766 295.488 
L 188.739791 284.491636 
L 189.064643 295.488 
L 189.07947 284.491636 
L 189.405669 295.488 
L 189.417801 284.491636 
L 189.744 295.488 
L 189.754783 284.491636 
L 190.080983 295.488 
L 190.08907 284.491636 
L 190.41527 295.488 
L 190.424705 284.491636 
L 190.749556 295.488 
L 190.756296 284.491636 
L 191.082495 295.488 
L 191.094627 284.491636 
L 191.420826 295.488 
L 191.428914 284.491636 
L 191.755113 295.488 
L 191.759157 284.491636 
L 192.085356 295.488 
L 192.105575 284.491636 
L 192.431774 295.488 
L 192.439862 284.491636 
L 192.766061 295.488 
L 192.784932 284.491636 
L 193.111131 295.488 
L 193.115175 284.491636 
L 193.441374 295.488 
L 193.456202 284.491636 
L 193.782401 295.488 
L 193.79588 284.491636 
L 194.122079 295.488 
L 194.123427 284.491636 
L 194.449627 295.488 
L 194.457714 284.491636 
L 195.099329 273.495273 
L 202.825669 262.498909 
L 203.147825 108.549818 
L 203.192306 130.542545 
L 203.500983 284.491636 
L 203.823138 295.488 
L 203.831226 284.491636 
L 204.157425 295.488 
L 204.1736 284.491636 
L 204.498451 295.488 
L 204.507887 284.491636 
L 204.834086 295.488 
L 204.843522 284.491636 
L 205.169721 295.488 
L 205.187244 284.491636 
L 205.513443 295.488 
L 205.524227 284.491636 
L 205.850426 295.488 
L 205.85447 284.491636 
L 206.180669 295.488 
L 206.195496 284.491636 
L 206.521696 295.488 
L 206.529783 284.491636 
L 206.855983 295.488 
L 206.86407 284.491636 
L 207.188921 295.488 
L 207.199705 284.491636 
L 207.525904 295.488 
L 207.533992 284.491636 
L 207.860191 295.488 
L 207.877714 284.491636 
L 208.203913 295.488 
L 208.216045 284.491636 
L 208.540896 295.488 
L 208.546288 284.491636 
L 208.872487 295.488 
L 208.876531 284.491636 
L 209.20273 295.488 
L 209.214862 284.491636 
L 209.541061 295.488 
L 209.549148 284.491636 
L 209.875348 295.488 
L 209.892871 284.491636 
L 210.21907 295.488 
L 210.22581 284.491636 
L 210.552009 295.488 
L 210.558749 284.491636 
L 210.884948 295.488 
L 210.891688 284.491636 
L 211.217887 295.488 
L 211.230018 284.491636 
L 211.556218 295.488 
L 211.561609 284.491636 
L 211.887809 295.488 
L 211.908028 284.491636 
L 212.234227 295.488 
L 212.242314 284.491636 
L 212.567166 295.488 
L 212.573905 284.491636 
L 212.900105 295.488 
L 212.910888 284.491636 
L 213.237087 295.488 
L 213.247871 284.491636 
L 213.57407 295.488 
L 213.587549 284.491636 
L 213.912401 295.488 
L 213.927228 284.491636 
L 214.253427 295.488 
L 214.257471 284.491636 
L 214.58367 295.488 
L 214.59715 284.491636 
L 214.922001 295.488 
L 214.94222 284.491636 
L 215.267071 295.488 
L 215.283246 284.491636 
L 215.609446 295.488 
L 215.621577 284.491636 
L 215.947776 295.488 
L 215.965299 284.491636 
L 216.291499 295.488 
L 216.300934 284.491636 
L 216.627134 295.488 
L 216.635221 284.491636 
L 216.960072 295.488 
L 216.964116 284.491636 
L 217.288968 295.488 
L 217.298403 284.491636 
L 217.623254 295.488 
L 217.631342 284.491636 
L 217.957541 295.488 
L 217.964281 284.491636 
L 218.289132 295.488 
L 218.299916 284.491636 
L 218.626115 295.488 
L 218.638246 284.491636 
L 218.964446 295.488 
L 218.983317 284.491636 
L 219.308168 295.488 
L 219.321647 284.491636 
L 219.647847 295.488 
L 219.653238 284.491636 
L 219.979438 295.488 
L 219.987525 284.491636 
L 220.313725 295.488 
L 220.320464 284.491636 
L 220.646663 295.488 
L 220.656099 284.491636 
L 220.982298 295.488 
L 220.995778 284.491636 
L 221.321977 295.488 
L 221.334108 284.491636 
L 221.660307 295.488 
L 221.671091 284.491636 
L 221.99729 295.488 
L 222.010769 284.491636 
L 222.336969 295.488 
L 222.3491 284.491636 
L 222.675299 295.488 
L 222.684735 284.491636 
L 223.009586 295.488 
L 223.014978 284.491636 
L 223.339829 295.488 
L 223.356005 284.491636 
L 223.682204 295.488 
L 223.686248 284.491636 
L 224.012447 295.488 
L 224.020534 284.491636 
L 224.346734 295.488 
L 224.361561 284.491636 
L 224.68776 295.488 
L 224.698544 284.491636 
L 225.024743 295.488 
L 225.04631 284.491636 
L 225.372509 295.488 
L 225.390032 284.491636 
L 225.716232 295.488 
L 225.731059 284.491636 
L 226.05591 295.488 
L 226.063998 284.491636 
L 226.390197 295.488 
L 226.399632 284.491636 
L 226.724484 295.488 
L 226.733919 284.491636 
L 227.060119 295.488 
L 227.068206 284.491636 
L 227.713865 273.495273 
L 235.177358 262.498909 
L 235.480643 108.549818 
L 235.522429 130.542545 
L 235.725966 240.506182 
L 235.883674 229.509818 
L 239.269677 119.546182 
L 239.908596 108.549818 
L 243.459046 119.546182 
L 243.570924 108.549818 
L 243.680106 119.546182 
L 243.698977 108.549818 
L 243.742111 141.538909 
L 244.025177 284.491636 
L 244.304198 295.488 
L 244.313634 284.491636 
L 244.638485 295.488 
L 244.646573 284.491636 
L 244.972772 295.488 
L 244.984904 284.491636 
L 245.311103 295.488 
L 245.328626 284.491636 
L 245.654825 295.488 
L 245.664261 284.491636 
L 245.989112 295.488 
L 245.998548 284.491636 
L 246.323399 295.488 
L 246.343618 284.491636 
L 246.669817 295.488 
L 246.671165 284.491636 
L 246.997364 295.488 
L 247.005452 284.491636 
L 247.330303 295.488 
L 247.34513 284.491636 
L 247.67133 295.488 
L 247.676721 284.491636 
L 248.002921 295.488 
L 248.00966 284.491636 
L 248.33586 295.488 
L 248.347991 284.491636 
L 248.67419 295.488 
L 250.248574 284.491636 
L 250.573425 295.488 
L 250.723045 284.491636 
L 251.049245 295.488 
L 251.186734 284.491636 
L 251.512933 295.488 
L 251.662553 284.491636 
L 251.987404 295.488 
L 252.145112 284.491636 
L 252.471312 295.488 
L 252.624976 284.491636 
L 252.951175 295.488 
L 253.099447 284.491636 
L 253.425647 295.488 
L 253.568527 284.491636 
L 253.894727 295.488 
L 254.025476 284.491636 
L 254.350327 295.488 
L 254.489164 284.491636 
L 254.815363 295.488 
L 254.963636 284.491636 
L 255.289835 295.488 
L 255.43002 284.491636 
L 255.756219 295.488 
L 255.884273 284.491636 
L 256.210472 295.488 
L 256.354701 284.491636 
L 256.6809 295.488 
L 256.82378 284.491636 
L 257.14998 295.488 
L 257.294208 284.491636 
L 257.620408 295.488 
L 257.770028 284.491636 
L 258.096227 295.488 
L 258.233716 284.491636 
L 258.559915 295.488 
L 258.714928 284.491636 
L 259.041127 295.488 
L 259.194791 284.491636 
L 259.52099 295.488 
L 259.653087 284.491636 
L 259.977939 295.488 
L 260.122167 284.491636 
L 260.448367 295.488 
L 260.595291 284.491636 
L 260.92149 295.488 
L 261.072459 284.491636 
L 261.39731 295.488 
L 261.542887 284.491636 
L 261.869086 295.488 
L 262.002531 284.491636 
L 262.32873 295.488 
L 262.471611 284.491636 
L 265.764606 207.517091 
L 267.516916 196.520727 
L 267.612619 207.517091 
L 267.651709 196.520727 
L 267.653057 207.517091 
L 267.976561 295.488 
L 268.10731 284.491636 
L 268.433509 295.488 
L 268.579086 284.491636 
L 268.905285 295.488 
L 269.04547 284.491636 
L 269.371669 295.488 
L 269.522637 284.491636 
L 269.847489 295.488 
L 269.986326 284.491636 
L 270.311177 295.488 
L 270.456753 284.491636 
L 270.781605 295.488 
L 270.92179 284.491636 
L 271.247989 295.488 
L 271.397609 284.491636 
L 271.723808 295.488 
L 271.862645 284.491636 
L 272.188845 295.488 
L 272.338465 284.491636 
L 272.664664 295.488 
L 272.800805 284.491636 
L 273.127005 295.488 
L 273.272581 284.491636 
L 273.59878 295.488 
L 273.75514 284.491636 
L 274.08134 295.488 
L 274.216133 284.491636 
L 274.542332 295.488 
L 274.685213 284.491636 
L 275.010064 295.488 
L 275.16238 284.491636 
L 275.488579 295.488 
L 275.630112 284.491636 
L 275.956311 295.488 
L 276.10054 284.491636 
L 276.426739 295.488 
L 276.577708 284.491636 
L 276.903907 295.488 
L 277.053527 284.491636 
L 277.379726 295.488 
L 277.533391 284.491636 
L 277.85959 295.488 
L 277.995731 284.491636 
L 278.320582 295.488 
L 278.472898 284.491636 
L 278.799098 295.488 
L 278.933891 284.491636 
L 279.26009 295.488 
L 279.393535 284.491636 
L 279.719734 295.488 
L 279.872051 284.491636 
L 280.19825 295.488 
L 280.345174 284.491636 
L 280.671374 295.488 
L 280.814254 284.491636 
L 281.140454 295.488 
L 281.294118 284.491636 
L 281.618969 295.488 
L 281.757806 284.491636 
L 282.084005 295.488 
L 282.236321 284.491636 
L 282.562521 295.488 
L 282.713489 284.491636 
L 283.03834 295.488 
L 283.181221 284.491636 
L 283.50742 295.488 
L 283.655693 284.491636 
L 291.779672 273.495273 
L 292.101828 196.520727 
L 292.105871 207.517091 
L 292.348499 262.498909 
L 292.626173 251.502545 
L 294.515972 207.517091 
L 307.953495 196.520727 
L 332.217599 163.531636 
L 332.306562 174.528 
L 332.419788 163.531636 
L 332.543798 196.520727 
L 332.74464 240.506182 
L 332.794513 229.509818 
L 334.219276 196.520727 
L 340.516809 185.524364 
L 340.607121 196.520727 
L 340.806614 119.546182 
L 340.843008 141.538909 
L 341.060025 229.509818 
L 341.228517 273.495273 
L 341.442838 262.498909 
L 341.498103 273.495273 
L 341.711076 262.498909 
L 341.767689 273.495273 
L 341.973922 262.498909 
L 342.037275 273.495273 
L 342.246204 262.498909 
L 342.300122 273.495273 
L 342.507703 262.498909 
L 342.572404 273.495273 
L 342.773245 262.498909 
L 342.833902 273.495273 
L 343.041484 262.498909 
L 343.099445 273.495273 
L 343.305678 262.498909 
L 343.367683 273.495273 
L 343.576612 262.498909 
L 343.631877 273.495273 
L 343.840807 262.498909 
L 343.902812 273.495273 
L 344.113089 262.498909 
L 344.167006 273.495273 
L 344.378631 262.498909 
L 344.439288 273.495273 
L 344.644174 262.498909 
L 344.70483 273.495273 
L 344.908368 262.498909 
L 344.970373 273.495273 
L 345.181998 262.498909 
L 345.234567 273.495273 
L 345.459672 262.498909 
L 345.508197 273.495273 
L 345.723866 262.498909 
L 345.784523 273.495273 
L 345.989409 262.498909 
L 346.050065 273.495273 
L 346.263039 262.498909 
L 346.315608 273.495273 
L 346.529929 262.498909 
L 346.589238 273.495273 
L 346.792775 262.498909 
L 346.85478 273.495273 
L 347.063709 262.498909 
L 347.117627 273.495273 
L 347.335991 262.498909 
L 347.389909 273.495273 
L 347.60423 262.498909 
L 347.662191 273.495273 
L 347.876512 262.498909 
L 347.930429 273.495273 
L 348.150142 262.498909 
L 348.202711 273.495273 
L 348.427816 262.498909 
L 348.476341 273.495273 
L 348.696054 262.498909 
L 348.752667 273.495273 
L 348.971032 262.498909 
L 349.022253 273.495273 
L 349.236574 262.498909 
L 349.297231 273.495273 
L 349.510204 262.498909 
L 349.562773 273.495273 
L 349.783834 262.498909 
L 349.836403 273.495273 
L 350.057464 262.498909 
L 350.110033 273.495273 
L 350.331094 262.498909 
L 350.382315 273.495273 
L 350.596636 262.498909 
L 350.657293 273.495273 
L 350.86757 262.498909 
L 350.922836 273.495273 
L 351.133113 262.498909 
L 351.192422 273.495273 
L 351.405395 262.498909 
L 351.459312 273.495273 
L 351.673633 262.498909 
L 351.731594 273.495273 
L 351.937828 262.498909 
L 351.999832 273.495273 
L 352.204718 262.498909 
L 352.264027 273.495273 
L 352.475652 262.498909 
L 352.529569 273.495273 
L 352.745238 262.498909 
L 352.800503 273.495273 
L 353.006737 262.498909 
L 353.071437 273.495273 
L 353.283063 262.498909 
L 353.332936 273.495273 
L 353.553997 262.498909 
L 353.609262 273.495273 
L 353.820887 262.498909 
L 353.880196 273.495273 
L 354.089125 262.498909 
L 354.147086 273.495273 
L 354.356016 262.498909 
L 354.413977 273.495273 
L 354.632341 262.498909 
L 354.682215 273.495273 
L 354.903275 262.498909 
L 354.958541 273.495273 
L 355.168818 262.498909 
L 355.228127 273.495273 
L 355.4411 262.498909 
L 355.495017 273.495273 
L 355.717426 262.498909 
L 355.767299 273.495273 
L 355.987012 262.498909 
L 356.042277 273.495273 
L 356.26199 262.498909 
L 356.313211 273.495273 
L 356.786335 262.498909 
L 364.571984 251.502545 
L 364.892791 53.568 
L 364.929185 75.560727 
L 365.15429 218.513455 
L 368.915017 64.564364 
L 369.432622 53.568 
L 380.957432 64.564364 
L 381.055831 53.568 
L 381.166361 64.564364 
L 381.266108 53.568 
L 381.268804 64.564364 
L 381.283631 53.568 
L 381.332156 86.557091 
L 381.632745 273.495273 
L 381.85111 262.498909 
L 381.906375 273.495273 
L 382.115304 262.498909 
L 382.177309 273.495273 
L 382.382195 262.498909 
L 382.441503 273.495273 
L 382.657172 262.498909 
L 382.708394 273.495273 
L 382.930802 262.498909 
L 382.983372 273.495273 
L 383.197693 262.498909 
L 383.257002 273.495273 
L 383.465931 262.498909 
L 383.523892 273.495273 
L 383.738213 262.498909 
L 383.79213 273.495273 
L 384.009147 262.498909 
L 384.064412 273.495273 
L 384.278733 262.498909 
L 384.335346 273.495273 
L 384.548319 262.498909 
L 384.604933 273.495273 
L 384.813862 262.498909 
L 384.874519 273.495273 
L 385.0821 262.498909 
L 385.140061 273.495273 
L 385.351686 262.498909 
L 385.406951 273.495273 
L 385.618577 262.498909 
L 385.677886 273.495273 
L 385.881423 262.498909 
L 385.944776 273.495273 
L 386.149661 262.498909 
L 386.207622 273.495273 
L 386.416552 262.498909 
L 386.474513 273.495273 
L 386.686138 262.498909 
L 386.741403 273.495273 
L 386.954376 262.498909 
L 387.012337 273.495273 
L 387.222614 262.498909 
L 387.280575 273.495273 
L 387.49894 262.498909 
L 387.548814 273.495273 
L 387.760439 262.498909 
L 387.823791 273.495273 
L 388.031373 262.498909 
L 388.086638 273.495273 
L 388.303655 262.498909 
L 388.357572 273.495273 
L 388.567849 262.498909 
L 388.629854 273.495273 
L 388.830696 262.498909 
L 388.894049 273.495273 
L 389.098934 262.498909 
L 389.156895 273.495273 
L 389.36852 262.498909 
L 389.423785 273.495273 
L 389.632715 262.498909 
L 389.69472 273.495273 
L 389.904997 262.498909 
L 389.958914 273.495273 
L 390.175931 262.498909 
L 390.231196 273.495273 
L 390.446865 262.498909 
L 390.50213 273.495273 
L 390.711059 262.498909 
L 390.771716 273.495273 
L 390.986037 262.498909 
L 391.037259 273.495273 
L 391.258319 262.498909 
L 391.310889 273.495273 
L 391.529253 262.498909 
L 391.583171 273.495273 
L 391.794796 262.498909 
L 391.855453 273.495273 
L 392.05899 262.498909 
L 392.119647 273.495273 
L 392.33262 262.498909 
L 392.38519 273.495273 
L 392.604902 262.498909 
L 392.65882 273.495273 
L 392.881228 262.498909 
L 392.931102 273.495273 
L 393.687291 240.506182 
L 397.975059 64.564364 
L 398.487273 53.568 
L 398.487273 53.568 
" clip-path="url(#pc96bd35cff)" style="fill: none; stroke: #1f77b4; stroke-width: 1.5; stroke-linecap: square"/>
   </g>
   <g id="patch_3">
    <path d="M 57.6 307.584 
L 57.6 41.472 
" style="fill: none; stroke: #000000; stroke-width: 0.8; stroke-linejoin: miter; stroke-linecap: square"/>
   </g>
   <g id="patch_4">
    <path d="M 414.72 307.584 
L 414.72 41.472 
" style="fill: none; stroke: #000000; stroke-width: 0.8; stroke-linejoin: miter; stroke-linecap: square"/>
   </g>
   <g id="patch_5">
    <path d="M 57.6 307.584 
L 414.72 307.584 
" style="fill: none; stroke: #000000; stroke-width: 0.8; stroke-linejoin: miter; stroke-linecap: square"/>
   </g>
   <g id="patch_6">
    <path d="M 57.6 41.472 
L 414.72 41.472 
" style="fill: none; stroke: #000000; stroke-width: 0.8; stroke-linejoin: miter; stroke-linecap: square"/>
   </g>
   <g id="text_13">
    <!-- Queue size (y-axis) between S2 and sensors that follow at a time (x-axis). -->
    <g transform="translate(14.282813 35.472) scale(0.12 -0.12)">
     <defs>
      <path id="DejaVuSans-51" d="M 2522 4238 
Q 1834 4238 1429 3725 
Q 1025 3213 1025 2328 
Q 1025 1447 1429 934 
Q 1834 422 2522 422 
Q 3209 422 3611 934 
Q 4013 1447 4013 2328 
Q 4013 3213 3611 3725 
Q 3209 4238 2522 4238 
z
M 3406 84 
L 4238 -825 
L 3475 -825 
L 2784 -78 
Q 2681 -84 2626 -87 
Q 2572 -91 2522 -91 
Q 1538 -91 948 567 
Q 359 1225 359 2328 
Q 359 3434 948 4092 
Q 1538 4750 2522 4750 
Q 3503 4750 4090 4092 
Q 4678 3434 4678 2328 
Q 4678 1516 4351 937 
Q 4025 359 3406 84 
z
" transform="scale(0.015625)"/>
      <path id="DejaVuSans-75" d="M 544 1381 
L 544 3500 
L 1119 3500 
L 1119 1403 
Q 1119 906 1312 657 
Q 1506 409 1894 409 
Q 2359 409 2629 706 
Q 2900 1003 2900 1516 
L 2900 3500 
L 3475 3500 
L 3475 0 
L 2900 0 
L 2900 538 
Q 2691 219 2414 64 
Q 2138 -91 1772 -91 
Q 1169 -91 856 284 
Q 544 659 544 1381 
z
M 1991 3584 
L 1991 3584 
z
" transform="scale(0.015625)"/>
      <path id="DejaVuSans-20" transform="scale(0.015625)"/>
      <path id="DejaVuSans-73" d="M 2834 3397 
L 2834 2853 
Q 2591 2978 2328 3040 
Q 2066 3103 1784 3103 
Q 1356 3103 1142 2972 
Q 928 2841 928 2578 
Q 928 2378 1081 2264 
Q 1234 2150 1697 2047 
L 1894 2003 
Q 2506 1872 2764 1633 
Q 3022 1394 3022 966 
Q 3022 478 2636 193 
Q 2250 -91 1575 -91 
Q 1294 -91 989 -36 
Q 684 19 347 128 
L 347 722 
Q 666 556 975 473 
Q 1284 391 1588 391 
Q 1994 391 2212 530 
Q 2431 669 2431 922 
Q 2431 1156 2273 1281 
Q 2116 1406 1581 1522 
L 1381 1569 
Q 847 1681 609 1914 
Q 372 2147 372 2553 
Q 372 3047 722 3315 
Q 1072 3584 1716 3584 
Q 2034 3584 2315 3537 
Q 2597 3491 2834 3397 
z
" transform="scale(0.015625)"/>
      <path id="DejaVuSans-69" d="M 603 3500 
L 1178 3500 
L 1178 0 
L 603 0 
L 603 3500 
z
M 603 4863 
L 1178 4863 
L 1178 4134 
L 603 4134 
L 603 4863 
z
" transform="scale(0.015625)"/>
      <path id="DejaVuSans-7a" d="M 353 3500 
L 3084 3500 
L 3084 2975 
L 922 459 
L 3084 459 
L 3084 0 
L 275 0 
L 275 525 
L 2438 3041 
L 353 3041 
L 353 3500 
z
" transform="scale(0.015625)"/>
      <path id="DejaVuSans-28" d="M 1984 4856 
Q 1566 4138 1362 3434 
Q 1159 2731 1159 2009 
Q 1159 1288 1364 580 
Q 1569 -128 1984 -844 
L 1484 -844 
Q 1016 -109 783 600 
Q 550 1309 550 2009 
Q 550 2706 781 3412 
Q 1013 4119 1484 4856 
L 1984 4856 
z
" transform="scale(0.015625)"/>
      <path id="DejaVuSans-79" d="M 2059 -325 
Q 1816 -950 1584 -1140 
Q 1353 -1331 966 -1331 
L 506 -1331 
L 506 -850 
L 844 -850 
Q 1081 -850 1212 -737 
Q 1344 -625 1503 -206 
L 1606 56 
L 191 3500 
L 800 3500 
L 1894 763 
L 2988 3500 
L 3597 3500 
L 2059 -325 
z
" transform="scale(0.015625)"/>
      <path id="DejaVuSans-2d" d="M 313 2009 
L 1997 2009 
L 1997 1497 
L 313 1497 
L 313 2009 
z
" transform="scale(0.015625)"/>
      <path id="DejaVuSans-61" d="M 2194 1759 
Q 1497 1759 1228 1600 
Q 959 1441 959 1056 
Q 959 750 1161 570 
Q 1363 391 1709 391 
Q 2188 391 2477 730 
Q 2766 1069 2766 1631 
L 2766 1759 
L 2194 1759 
z
M 3341 1997 
L 3341 0 
L 2766 0 
L 2766 531 
Q 2569 213 2275 61 
Q 1981 -91 1556 -91 
Q 1019 -91 701 211 
Q 384 513 384 1019 
Q 384 1609 779 1909 
Q 1175 2209 1959 2209 
L 2766 2209 
L 2766 2266 
Q 2766 2663 2505 2880 
Q 2244 3097 1772 3097 
Q 1472 3097 1187 3025 
Q 903 2953 641 2809 
L 641 3341 
Q 956 3463 1253 3523 
Q 1550 3584 1831 3584 
Q 2591 3584 2966 3190 
Q 3341 2797 3341 1997 
z
" transform="scale(0.015625)"/>
      <path id="DejaVuSans-78" d="M 3513 3500 
L 2247 1797 
L 3578 0 
L 2900 0 
L 1881 1375 
L 863 0 
L 184 0 
L 1544 1831 
L 300 3500 
L 978 3500 
L 1906 2253 
L 2834 3500 
L 3513 3500 
z
" transform="scale(0.015625)"/>
      <path id="DejaVuSans-29" d="M 513 4856 
L 1013 4856 
Q 1481 4119 1714 3412 
Q 1947 2706 1947 2009 
Q 1947 1309 1714 600 
Q 1481 -109 1013 -844 
L 513 -844 
Q 928 -128 1133 580 
Q 1338 1288 1338 2009 
Q 1338 2731 1133 3434 
Q 928 4138 513 4856 
z
" transform="scale(0.015625)"/>
      <path id="DejaVuSans-62" d="M 3116 1747 
Q 3116 2381 2855 2742 
Q 2594 3103 2138 3103 
Q 1681 3103 1420 2742 
Q 1159 2381 1159 1747 
Q 1159 1113 1420 752 
Q 1681 391 2138 391 
Q 2594 391 2855 752 
Q 3116 1113 3116 1747 
z
M 1159 2969 
Q 1341 3281 1617 3432 
Q 1894 3584 2278 3584 
Q 2916 3584 3314 3078 
Q 3713 2572 3713 1747 
Q 3713 922 3314 415 
Q 2916 -91 2278 -91 
Q 1894 -91 1617 61 
Q 1341 213 1159 525 
L 1159 0 
L 581 0 
L 581 4863 
L 1159 4863 
L 1159 2969 
z
" transform="scale(0.015625)"/>
      <path id="DejaVuSans-74" d="M 1172 4494 
L 1172 3500 
L 2356 3500 
L 2356 3053 
L 1172 3053 
L 1172 1153 
Q 1172 725 1289 603 
Q 1406 481 1766 481 
L 2356 481 
L 2356 0 
L 1766 0 
Q 1100 0 847 248 
Q 594 497 594 1153 
L 594 3053 
L 172 3053 
L 172 3500 
L 594 3500 
L 594 4494 
L 1172 4494 
z
" transform="scale(0.015625)"/>
      <path id="DejaVuSans-77" d="M 269 3500 
L 844 3500 
L 1563 769 
L 2278 3500 
L 2956 3500 
L 3675 769 
L 4391 3500 
L 4966 3500 
L 4050 0 
L 3372 0 
L 2619 2869 
L 1863 0 
L 1184 0 
L 269 3500 
z
" transform="scale(0.015625)"/>
      <path id="DejaVuSans-6e" d="M 3513 2113 
L 3513 0 
L 2938 0 
L 2938 2094 
Q 2938 2591 2744 2837 
Q 2550 3084 2163 3084 
Q 1697 3084 1428 2787 
Q 1159 2491 1159 1978 
L 1159 0 
L 581 0 
L 581 3500 
L 1159 3500 
L 1159 2956 
Q 1366 3272 1645 3428 
Q 1925 3584 2291 3584 
Q 2894 3584 3203 3211 
Q 3513 2838 3513 2113 
z
" transform="scale(0.015625)"/>
      <path id="DejaVuSans-53" d="M 3425 4513 
L 3425 3897 
Q 3066 4069 2747 4153 
Q 2428 4238 2131 4238 
Q 1616 4238 1336 4038 
Q 1056 3838 1056 3469 
Q 1056 3159 1242 3001 
Q 1428 2844 1947 2747 
L 2328 2669 
Q 3034 2534 3370 2195 
Q 3706 1856 3706 1288 
Q 3706 609 3251 259 
Q 2797 -91 1919 -91 
Q 1588 -91 1214 -16 
Q 841 59 441 206 
L 441 856 
Q 825 641 1194 531 
Q 1563 422 1919 422 
Q 2459 422 2753 634 
Q 3047 847 3047 1241 
Q 3047 1584 2836 1778 
Q 2625 1972 2144 2069 
L 1759 2144 
Q 1053 2284 737 2584 
Q 422 2884 422 3419 
Q 422 4038 858 4394 
Q 1294 4750 2059 4750 
Q 2388 4750 2728 4690 
Q 3069 4631 3425 4513 
z
" transform="scale(0.015625)"/>
      <path id="DejaVuSans-64" d="M 2906 2969 
L 2906 4863 
L 3481 4863 
L 3481 0 
L 2906 0 
L 2906 525 
Q 2725 213 2448 61 
Q 2172 -91 1784 -91 
Q 1150 -91 751 415 
Q 353 922 353 1747 
Q 353 2572 751 3078 
Q 1150 3584 1784 3584 
Q 2172 3584 2448 3432 
Q 2725 3281 2906 2969 
z
M 947 1747 
Q 947 1113 1208 752 
Q 1469 391 1925 391 
Q 2381 391 2643 752 
Q 2906 1113 2906 1747 
Q 2906 2381 2643 2742 
Q 2381 3103 1925 3103 
Q 1469 3103 1208 2742 
Q 947 2381 947 1747 
z
" transform="scale(0.015625)"/>
      <path id="DejaVuSans-6f" d="M 1959 3097 
Q 1497 3097 1228 2736 
Q 959 2375 959 1747 
Q 959 1119 1226 758 
Q 1494 397 1959 397 
Q 2419 397 2687 759 
Q 2956 1122 2956 1747 
Q 2956 2369 2687 2733 
Q 2419 3097 1959 3097 
z
M 1959 3584 
Q 2709 3584 3137 3096 
Q 3566 2609 3566 1747 
Q 3566 888 3137 398 
Q 2709 -91 1959 -91 
Q 1206 -91 779 398 
Q 353 888 353 1747 
Q 353 2609 779 3096 
Q 1206 3584 1959 3584 
z
" transform="scale(0.015625)"/>
      <path id="DejaVuSans-72" d="M 2631 2963 
Q 2534 3019 2420 3045 
Q 2306 3072 2169 3072 
Q 1681 3072 1420 2755 
Q 1159 2438 1159 1844 
L 1159 0 
L 581 0 
L 581 3500 
L 1159 3500 
L 1159 2956 
Q 1341 3275 1631 3429 
Q 1922 3584 2338 3584 
Q 2397 3584 2469 3576 
Q 2541 3569 2628 3553 
L 2631 2963 
z
" transform="scale(0.015625)"/>
      <path id="DejaVuSans-68" d="M 3513 2113 
L 3513 0 
L 2938 0 
L 2938 2094 
Q 2938 2591 2744 2837 
Q 2550 3084 2163 3084 
Q 1697 3084 1428 2787 
Q 1159 2491 1159 1978 
L 1159 0 
L 581 0 
L 581 4863 
L 1159 4863 
L 1159 2956 
Q 1366 3272 1645 3428 
Q 1925 3584 2291 3584 
Q 2894 3584 3203 3211 
Q 3513 2838 3513 2113 
z
" transform="scale(0.015625)"/>
      <path id="DejaVuSans-66" d="M 2375 4863 
L 2375 4384 
L 1825 4384 
Q 1516 4384 1395 4259 
Q 1275 4134 1275 3809 
L 1275 3500 
L 2222 3500 
L 2222 3053 
L 1275 3053 
L 1275 0 
L 697 0 
L 697 3053 
L 147 3053 
L 147 3500 
L 697 3500 
L 697 3744 
Q 697 4328 969 4595 
Q 1241 4863 1831 4863 
L 2375 4863 
z
" transform="scale(0.015625)"/>
      <path id="DejaVuSans-6c" d="M 603 4863 
L 1178 4863 
L 1178 0 
L 603 0 
L 603 4863 
z
" transform="scale(0.015625)"/>
      <path id="DejaVuSans-6d" d="M 3328 2828 
Q 3544 3216 3844 3400 
Q 4144 3584 4550 3584 
Q 5097 3584 5394 3201 
Q 5691 2819 5691 2113 
L 5691 0 
L 5113 0 
L 5113 2094 
Q 5113 2597 4934 2840 
Q 4756 3084 4391 3084 
Q 3944 3084 3684 2787 
Q 3425 2491 3425 1978 
L 3425 0 
L 2847 0 
L 2847 2094 
Q 2847 2600 2669 2842 
Q 2491 3084 2119 3084 
Q 1678 3084 1418 2786 
Q 1159 2488 1159 1978 
L 1159 0 
L 581 0 
L 581 3500 
L 1159 3500 
L 1159 2956 
Q 1356 3278 1631 3431 
Q 1906 3584 2284 3584 
Q 2666 3584 2933 3390 
Q 3200 3197 3328 2828 
z
" transform="scale(0.015625)"/>
     </defs>
     <use xlink:href="#DejaVuSans-51"/>
     <use xlink:href="#DejaVuSans-75" x="78.710938"/>
     <use xlink:href="#DejaVuSans-65" x="142.089844"/>
     <use xlink:href="#DejaVuSans-75" x="203.613281"/>
     <use xlink:href="#DejaVuSans-65" x="266.992188"/>
     <use xlink:href="#DejaVuSans-20" x="328.515625"/>
     <use xlink:href="#DejaVuSans-73" x="360.302734"/>
     <use xlink:href="#DejaVuSans-69" x="412.402344"/>
     <use xlink:href="#DejaVuSans-7a" x="440.185547"/>
     <use xlink:href="#DejaVuSans-65" x="492.675781"/>
     <use xlink:href="#DejaVuSans-20" x="554.199219"/>
     <use xlink:href="#DejaVuSans-28" x="585.986328"/>
     <use xlink:href="#DejaVuSans-79" x="625"/>
     <use xlink:href="#DejaVuSans-2d" x="682.429688"/>
     <use xlink:href="#DejaVuSans-61" x="718.513672"/>
     <use xlink:href="#DejaVuSans-78" x="779.792969"/>
     <use xlink:href="#DejaVuSans-69" x="838.972656"/>
     <use xlink:href="#DejaVuSans-73" x="866.755859"/>
     <use xlink:href="#DejaVuSans-29" x="918.855469"/>
     <use xlink:href="#DejaVuSans-20" x="957.869141"/>
     <use xlink:href="#DejaVuSans-62" x="989.65625"/>
     <use xlink:href="#DejaVuSans-65" x="1053.132812"/>
     <use xlink:href="#DejaVuSans-74" x="1114.65625"/>
     <use xlink:href="#DejaVuSans-77" x="1153.865234"/>
     <use xlink:href="#DejaVuSans-65" x="1235.652344"/>
     <use xlink:href="#DejaVuSans-65" x="1297.175781"/>
     <use xlink:href="#DejaVuSans-6e" x="1358.699219"/>
     <use xlink:href="#DejaVuSans-20" x="1422.078125"/>
     <use xlink:href="#DejaVuSans-53" x="1453.865234"/>
     <use xlink:href="#DejaVuSans-32" x="1517.341797"/>
     <use xlink:href="#DejaVuSans-20" x="1580.964844"/>
     <use xlink:href="#DejaVuSans-61" x="1612.751953"/>
     <use xlink:href="#DejaVuSans-6e" x="1674.03125"/>
     <use xlink:href="#DejaVuSans-64" x="1737.410156"/>
     <use xlink:href="#DejaVuSans-20" x="1800.886719"/>
     <use xlink:href="#DejaVuSans-73" x="1832.673828"/>
     <use xlink:href="#DejaVuSans-65" x="1884.773438"/>
     <use xlink:href="#DejaVuSans-6e" x="1946.296875"/>
     <use xlink:href="#DejaVuSans-73" x="2009.675781"/>
     <use xlink:href="#DejaVuSans-6f" x="2061.775391"/>
     <use xlink:href="#DejaVuSans-72" x="2122.957031"/>
     <use xlink:href="#DejaVuSans-73" x="2164.070312"/>
     <use xlink:href="#DejaVuSans-20" x="2216.169922"/>
     <use xlink:href="#DejaVuSans-74" x="2247.957031"/>
     <use xlink:href="#DejaVuSans-68" x="2287.166016"/>
     <use xlink:href="#DejaVuSans-61" x="2350.544922"/>
     <use xlink:href="#DejaVuSans-74" x="2411.824219"/>
     <use xlink:href="#DejaVuSans-20" x="2451.033203"/>
     <use xlink:href="#DejaVuSans-66" x="2482.820312"/>
     <use xlink:href="#DejaVuSans-6f" x="2518.025391"/>
     <use xlink:href="#DejaVuSans-6c" x="2579.207031"/>
     <use xlink:href="#DejaVuSans-6c" x="2606.990234"/>
     <use xlink:href="#DejaVuSans-6f" x="2634.773438"/>
     <use xlink:href="#DejaVuSans-77" x="2695.955078"/>
     <use xlink:href="#DejaVuSans-20" x="2777.742188"/>
     <use xlink:href="#DejaVuSans-61" x="2809.529297"/>
     <use xlink:href="#DejaVuSans-74" x="2870.808594"/>
     <use xlink:href="#DejaVuSans-20" x="2910.017578"/>
     <use xlink:href="#DejaVuSans-61" x="2941.804688"/>
     <use xlink:href="#DejaVuSans-20" x="3003.083984"/>
     <use xlink:href="#DejaVuSans-74" x="3034.871094"/>
     <use xlink:href="#DejaVuSans-69" x="3074.080078"/>
     <use xlink:href="#DejaVuSans-6d" x="3101.863281"/>
     <use xlink:href="#DejaVuSans-65" x="3199.275391"/>
     <use xlink:href="#DejaVuSans-20" x="3260.798828"/>
     <use xlink:href="#DejaVuSans-28" x="3292.585938"/>
     <use xlink:href="#DejaVuSans-78" x="3331.599609"/>
     <use xlink:href="#DejaVuSans-2d" x="3390.779297"/>
     <use xlink:href="#DejaVuSans-61" x="3426.863281"/>
     <use xlink:href="#DejaVuSans-78" x="3488.142578"/>
     <use xlink:href="#DejaVuSans-69" x="3547.322266"/>
     <use xlink:href="#DejaVuSans-73" x="3575.105469"/>
     <use xlink:href="#DejaVuSans-29" x="3627.205078"/>
     <use xlink:href="#DejaVuSans-2e" x="3666.21875"/>
    </g>
   </g>
  </g>
 </g>
 <defs>
  <clipPath id="pc96bd35cff">
   <rect x="57.6" y="41.472" width="357.12" height="266.112"/>
  </clipPath>
 </defs>
</svg>
