<?xml version="1.0" encoding="utf-8" standalone="no"?>
<!DOCTYPE svg PUBLIC "-//W3C//DTD SVG 1.1//EN"
  "http://www.w3.org/Graphics/SVG/1.1/DTD/svg11.dtd">
<svg xmlns:xlink="http://www.w3.org/1999/xlink" width="460.8pt" height="345.6pt" viewBox="0 0 460.8 345.6" xmlns="http://www.w3.org/2000/svg" version="1.1">
 <metadata>
  <rdf:RDF xmlns:dc="http://purl.org/dc/elements/1.1/" xmlns:cc="http://creativecommons.org/ns#" xmlns:rdf="http://www.w3.org/1999/02/22-rdf-syntax-ns#">
   <cc:Work>
    <dc:type rdf:resource="http://purl.org/dc/dcmitype/StillImage"/>
    <dc:date>2024-03-08T11:43:58.489731</dc:date>
    <dc:format>image/svg+xml</dc:format>
    <dc:creator>
     <cc:Agent>
      <dc:title>Matplotlib v3.8.2, https://matplotlib.org/</dc:title>
     </cc:Agent>
    </dc:creator>
   </cc:Work>
  </rdf:RDF>
 </metadata>
 <defs>
  <style type="text/css">*{stroke-linejoin: round; stroke-linecap: butt}</style>
 </defs>
 <g id="figure_1">
  <g id="patch_1">
   <path d="M 0 345.6 
L 460.8 345.6 
L 460.8 0 
L 0 0 
z
" style="fill: #ffffff"/>
  </g>
  <g id="axes_1">
   <g id="patch_2">
    <path d="M 57.6 307.584 
L 414.72 307.584 
L 414.72 41.472 
L 57.6 41.472 
z
" style="fill: #ffffff"/>
   </g>
   <g id="matplotlib.axis_1">
    <g id="xtick_1">
     <g id="line2d_1">
      <defs>
       <path id="m5fe0c6e403" d="M 0 0 
L 0 3.5 
" style="stroke: #000000; stroke-width: 0.8"/>
      </defs>
      <g>
       <use xlink:href="#m5fe0c6e403" x="73.06533" y="307.584" style="stroke: #000000; stroke-width: 0.8"/>
      </g>
     </g>
     <g id="text_1">
      <!-- 0.0 -->
      <g transform="translate(65.113767 322.182437) scale(0.1 -0.1)">
       <defs>
        <path id="DejaVuSans-30" d="M 2034 4250 
Q 1547 4250 1301 3770 
Q 1056 3291 1056 2328 
Q 1056 1369 1301 889 
Q 1547 409 2034 409 
Q 2525 409 2770 889 
Q 3016 1369 3016 2328 
Q 3016 3291 2770 3770 
Q 2525 4250 2034 4250 
z
M 2034 4750 
Q 2819 4750 3233 4129 
Q 3647 3509 3647 2328 
Q 3647 1150 3233 529 
Q 2819 -91 2034 -91 
Q 1250 -91 836 529 
Q 422 1150 422 2328 
Q 422 3509 836 4129 
Q 1250 4750 2034 4750 
z
" transform="scale(0.015625)"/>
        <path id="DejaVuSans-2e" d="M 684 794 
L 1344 794 
L 1344 0 
L 684 0 
L 684 794 
z
" transform="scale(0.015625)"/>
       </defs>
       <use xlink:href="#DejaVuSans-30"/>
       <use xlink:href="#DejaVuSans-2e" x="63.623047"/>
       <use xlink:href="#DejaVuSans-30" x="95.410156"/>
      </g>
     </g>
    </g>
    <g id="xtick_2">
     <g id="line2d_2">
      <g>
       <use xlink:href="#m5fe0c6e403" x="141.705556" y="307.584" style="stroke: #000000; stroke-width: 0.8"/>
      </g>
     </g>
     <g id="text_2">
      <!-- 0.5 -->
      <g transform="translate(133.753994 322.182437) scale(0.1 -0.1)">
       <defs>
        <path id="DejaVuSans-35" d="M 691 4666 
L 3169 4666 
L 3169 4134 
L 1269 4134 
L 1269 2991 
Q 1406 3038 1543 3061 
Q 1681 3084 1819 3084 
Q 2600 3084 3056 2656 
Q 3513 2228 3513 1497 
Q 3513 744 3044 326 
Q 2575 -91 1722 -91 
Q 1428 -91 1123 -41 
Q 819 9 494 109 
L 494 744 
Q 775 591 1075 516 
Q 1375 441 1709 441 
Q 2250 441 2565 725 
Q 2881 1009 2881 1497 
Q 2881 1984 2565 2268 
Q 2250 2553 1709 2553 
Q 1456 2553 1204 2497 
Q 953 2441 691 2322 
L 691 4666 
z
" transform="scale(0.015625)"/>
       </defs>
       <use xlink:href="#DejaVuSans-30"/>
       <use xlink:href="#DejaVuSans-2e" x="63.623047"/>
       <use xlink:href="#DejaVuSans-35" x="95.410156"/>
      </g>
     </g>
    </g>
    <g id="xtick_3">
     <g id="line2d_3">
      <g>
       <use xlink:href="#m5fe0c6e403" x="210.345783" y="307.584" style="stroke: #000000; stroke-width: 0.8"/>
      </g>
     </g>
     <g id="text_3">
      <!-- 1.0 -->
      <g transform="translate(202.394221 322.182437) scale(0.1 -0.1)">
       <defs>
        <path id="DejaVuSans-31" d="M 794 531 
L 1825 531 
L 1825 4091 
L 703 3866 
L 703 4441 
L 1819 4666 
L 2450 4666 
L 2450 531 
L 3481 531 
L 3481 0 
L 794 0 
L 794 531 
z
" transform="scale(0.015625)"/>
       </defs>
       <use xlink:href="#DejaVuSans-31"/>
       <use xlink:href="#DejaVuSans-2e" x="63.623047"/>
       <use xlink:href="#DejaVuSans-30" x="95.410156"/>
      </g>
     </g>
    </g>
    <g id="xtick_4">
     <g id="line2d_4">
      <g>
       <use xlink:href="#m5fe0c6e403" x="278.98601" y="307.584" style="stroke: #000000; stroke-width: 0.8"/>
      </g>
     </g>
     <g id="text_4">
      <!-- 1.5 -->
      <g transform="translate(271.034448 322.182437) scale(0.1 -0.1)">
       <use xlink:href="#DejaVuSans-31"/>
       <use xlink:href="#DejaVuSans-2e" x="63.623047"/>
       <use xlink:href="#DejaVuSans-35" x="95.410156"/>
      </g>
     </g>
    </g>
    <g id="xtick_5">
     <g id="line2d_5">
      <g>
       <use xlink:href="#m5fe0c6e403" x="347.626237" y="307.584" style="stroke: #000000; stroke-width: 0.8"/>
      </g>
     </g>
     <g id="text_5">
      <!-- 2.0 -->
      <g transform="translate(339.674675 322.182437) scale(0.1 -0.1)">
       <defs>
        <path id="DejaVuSans-32" d="M 1228 531 
L 3431 531 
L 3431 0 
L 469 0 
L 469 531 
Q 828 903 1448 1529 
Q 2069 2156 2228 2338 
Q 2531 2678 2651 2914 
Q 2772 3150 2772 3378 
Q 2772 3750 2511 3984 
Q 2250 4219 1831 4219 
Q 1534 4219 1204 4116 
Q 875 4013 500 3803 
L 500 4441 
Q 881 4594 1212 4672 
Q 1544 4750 1819 4750 
Q 2544 4750 2975 4387 
Q 3406 4025 3406 3419 
Q 3406 3131 3298 2873 
Q 3191 2616 2906 2266 
Q 2828 2175 2409 1742 
Q 1991 1309 1228 531 
z
" transform="scale(0.015625)"/>
       </defs>
       <use xlink:href="#DejaVuSans-32"/>
       <use xlink:href="#DejaVuSans-2e" x="63.623047"/>
       <use xlink:href="#DejaVuSans-30" x="95.410156"/>
      </g>
     </g>
    </g>
    <g id="text_6">
     <!-- 1e6 -->
     <g transform="translate(395.841875 334.860562) scale(0.1 -0.1)">
      <defs>
       <path id="DejaVuSans-65" d="M 3597 1894 
L 3597 1613 
L 953 1613 
Q 991 1019 1311 708 
Q 1631 397 2203 397 
Q 2534 397 2845 478 
Q 3156 559 3463 722 
L 3463 178 
Q 3153 47 2828 -22 
Q 2503 -91 2169 -91 
Q 1331 -91 842 396 
Q 353 884 353 1716 
Q 353 2575 817 3079 
Q 1281 3584 2069 3584 
Q 2775 3584 3186 3129 
Q 3597 2675 3597 1894 
z
M 3022 2063 
Q 3016 2534 2758 2815 
Q 2500 3097 2075 3097 
Q 1594 3097 1305 2825 
Q 1016 2553 972 2059 
L 3022 2063 
z
" transform="scale(0.015625)"/>
       <path id="DejaVuSans-36" d="M 2113 2584 
Q 1688 2584 1439 2293 
Q 1191 2003 1191 1497 
Q 1191 994 1439 701 
Q 1688 409 2113 409 
Q 2538 409 2786 701 
Q 3034 994 3034 1497 
Q 3034 2003 2786 2293 
Q 2538 2584 2113 2584 
z
M 3366 4563 
L 3366 3988 
Q 3128 4100 2886 4159 
Q 2644 4219 2406 4219 
Q 1781 4219 1451 3797 
Q 1122 3375 1075 2522 
Q 1259 2794 1537 2939 
Q 1816 3084 2150 3084 
Q 2853 3084 3261 2657 
Q 3669 2231 3669 1497 
Q 3669 778 3244 343 
Q 2819 -91 2113 -91 
Q 1303 -91 875 529 
Q 447 1150 447 2328 
Q 447 3434 972 4092 
Q 1497 4750 2381 4750 
Q 2619 4750 2861 4703 
Q 3103 4656 3366 4563 
z
" transform="scale(0.015625)"/>
      </defs>
      <use xlink:href="#DejaVuSans-31"/>
      <use xlink:href="#DejaVuSans-65" x="63.623047"/>
      <use xlink:href="#DejaVuSans-36" x="125.146484"/>
     </g>
    </g>
   </g>
   <g id="matplotlib.axis_2">
    <g id="ytick_1">
     <g id="line2d_6">
      <defs>
       <path id="m6fe9cca3ea" d="M 0 0 
L -3.5 0 
" style="stroke: #000000; stroke-width: 0.8"/>
      </defs>
      <g>
       <use xlink:href="#m6fe9cca3ea" x="57.6" y="295.488" style="stroke: #000000; stroke-width: 0.8"/>
      </g>
     </g>
     <g id="text_7">
      <!-- 0 -->
      <g transform="translate(44.2375 299.287219) scale(0.1 -0.1)">
       <use xlink:href="#DejaVuSans-30"/>
      </g>
     </g>
    </g>
    <g id="ytick_2">
     <g id="line2d_7">
      <g>
       <use xlink:href="#m6fe9cca3ea" x="57.6" y="255.168" style="stroke: #000000; stroke-width: 0.8"/>
      </g>
     </g>
     <g id="text_8">
      <!-- 5 -->
      <g transform="translate(44.2375 258.967219) scale(0.1 -0.1)">
       <use xlink:href="#DejaVuSans-35"/>
      </g>
     </g>
    </g>
    <g id="ytick_3">
     <g id="line2d_8">
      <g>
       <use xlink:href="#m6fe9cca3ea" x="57.6" y="214.848" style="stroke: #000000; stroke-width: 0.8"/>
      </g>
     </g>
     <g id="text_9">
      <!-- 10 -->
      <g transform="translate(37.875 218.647219) scale(0.1 -0.1)">
       <use xlink:href="#DejaVuSans-31"/>
       <use xlink:href="#DejaVuSans-30" x="63.623047"/>
      </g>
     </g>
    </g>
    <g id="ytick_4">
     <g id="line2d_9">
      <g>
       <use xlink:href="#m6fe9cca3ea" x="57.6" y="174.528" style="stroke: #000000; stroke-width: 0.8"/>
      </g>
     </g>
     <g id="text_10">
      <!-- 15 -->
      <g transform="translate(37.875 178.327219) scale(0.1 -0.1)">
       <use xlink:href="#DejaVuSans-31"/>
       <use xlink:href="#DejaVuSans-35" x="63.623047"/>
      </g>
     </g>
    </g>
    <g id="ytick_5">
     <g id="line2d_10">
      <g>
       <use xlink:href="#m6fe9cca3ea" x="57.6" y="134.208" style="stroke: #000000; stroke-width: 0.8"/>
      </g>
     </g>
     <g id="text_11">
      <!-- 20 -->
      <g transform="translate(37.875 138.007219) scale(0.1 -0.1)">
       <use xlink:href="#DejaVuSans-32"/>
       <use xlink:href="#DejaVuSans-30" x="63.623047"/>
      </g>
     </g>
    </g>
    <g id="ytick_6">
     <g id="line2d_11">
      <g>
       <use xlink:href="#m6fe9cca3ea" x="57.6" y="93.888" style="stroke: #000000; stroke-width: 0.8"/>
      </g>
     </g>
     <g id="text_12">
      <!-- 25 -->
      <g transform="translate(37.875 97.687219) scale(0.1 -0.1)">
       <use xlink:href="#DejaVuSans-32"/>
       <use xlink:href="#DejaVuSans-35" x="63.623047"/>
      </g>
     </g>
    </g>
    <g id="ytick_7">
     <g id="line2d_12">
      <g>
       <use xlink:href="#m6fe9cca3ea" x="57.6" y="53.568" style="stroke: #000000; stroke-width: 0.8"/>
      </g>
     </g>
     <g id="text_13">
      <!-- 30 -->
      <g transform="translate(37.875 57.367219) scale(0.1 -0.1)">
       <defs>
        <path id="DejaVuSans-33" d="M 2597 2516 
Q 3050 2419 3304 2112 
Q 3559 1806 3559 1356 
Q 3559 666 3084 287 
Q 2609 -91 1734 -91 
Q 1441 -91 1130 -33 
Q 819 25 488 141 
L 488 750 
Q 750 597 1062 519 
Q 1375 441 1716 441 
Q 2309 441 2620 675 
Q 2931 909 2931 1356 
Q 2931 1769 2642 2001 
Q 2353 2234 1838 2234 
L 1294 2234 
L 1294 2753 
L 1863 2753 
Q 2328 2753 2575 2939 
Q 2822 3125 2822 3475 
Q 2822 3834 2567 4026 
Q 2313 4219 1838 4219 
Q 1578 4219 1281 4162 
Q 984 4106 628 3988 
L 628 4550 
Q 988 4650 1302 4700 
Q 1616 4750 1894 4750 
Q 2613 4750 3031 4423 
Q 3450 4097 3450 3541 
Q 3450 3153 3228 2886 
Q 3006 2619 2597 2516 
z
" transform="scale(0.015625)"/>
       </defs>
       <use xlink:href="#DejaVuSans-33"/>
       <use xlink:href="#DejaVuSans-30" x="63.623047"/>
      </g>
     </g>
    </g>
   </g>
   <g id="line2d_13">
    <path d="M 73.832727 287.424 
L 74.121016 295.488 
L 74.311836 287.424 
L 74.601498 295.488 
L 74.789572 287.424 
L 75.079234 295.488 
L 75.268681 287.424 
L 75.558343 295.488 
L 75.757399 287.424 
L 76.047061 295.488 
L 76.236508 287.424 
L 76.524797 295.488 
L 76.712871 287.424 
L 77.002533 295.488 
L 77.190607 287.424 
L 77.478896 295.488 
L 77.677953 287.424 
L 77.967615 295.488 
L 78.162553 287.424 
L 78.450842 295.488 
L 78.643034 287.424 
L 78.932696 295.488 
L 79.124889 287.424 
L 79.414551 295.488 
L 79.609489 287.424 
L 79.899151 295.488 
L 80.095462 287.424 
L 80.385123 295.488 
L 80.581434 287.424 
L 80.871096 295.488 
L 81.055052 287.424 
L 81.344714 295.488 
L 89.777852 287.424 
L 89.921996 271.296 
L 90.169101 230.976 
L 90.546623 295.488 
L 90.674293 287.424 
L 90.962582 295.488 
L 91.14242 287.424 
L 91.432081 295.488 
L 91.622901 287.424 
L 91.912563 295.488 
L 92.096519 287.424 
L 92.386181 295.488 
L 92.581119 287.424 
L 92.870781 295.488 
L 93.060228 287.424 
L 93.349889 295.488 
L 93.539336 287.424 
L 93.828998 295.488 
L 94.026682 287.424 
L 94.316344 295.488 
L 94.511282 287.424 
L 94.800944 295.488 
L 94.991764 287.424 
L 95.281425 295.488 
L 95.476364 287.424 
L 95.766025 295.488 
L 95.963709 287.424 
L 96.253371 295.488 
L 96.435954 287.424 
L 96.725616 295.488 
L 96.906826 287.424 
L 97.196488 295.488 
L 97.390053 287.424 
L 97.678342 295.488 
L 97.867789 287.424 
L 98.156078 295.488 
L 98.341407 287.424 
L 98.631068 295.488 
L 98.828752 287.424 
L 99.118414 295.488 
L 99.296879 287.424 
L 99.58654 295.488 
L 99.774615 287.424 
L 100.064276 295.488 
L 100.255096 287.424 
L 100.544758 295.488 
L 100.74656 287.424 
L 101.036222 295.488 
L 101.224296 287.424 
L 101.513958 295.488 
L 101.699287 287.424 
L 101.988948 295.488 
L 102.171531 287.424 
L 102.461193 295.488 
L 102.65064 287.424 
L 102.938929 295.488 
L 103.129749 287.424 
L 103.418038 295.488 
L 103.601994 287.424 
L 103.891655 295.488 
L 104.07973 287.424 
L 104.369391 295.488 
L 104.565702 287.424 
L 104.855364 295.488 
L 105.050302 287.424 
L 105.339964 295.488 
L 105.526666 287.424 
L 105.814955 295.488 
L 106.011266 287.424 
L 106.300927 295.488 
L 106.490374 287.424 
L 106.780036 295.488 
L 106.974974 287.424 
L 107.264636 295.488 
L 107.451338 287.424 
L 107.934565 279.36 
L 108.023797 287.424 
L 108.224227 295.488 
L 108.42191 287.424 
L 108.711572 295.488 
L 108.894155 287.424 
L 109.183817 295.488 
L 109.370518 287.424 
L 109.658807 295.488 
L 109.849627 287.424 
L 110.139289 295.488 
L 110.330109 287.424 
L 110.619771 295.488 
L 110.811963 287.424 
L 111.101625 295.488 
L 111.3048 287.424 
L 111.594462 295.488 
L 111.793518 287.424 
L 112.08318 295.488 
L 112.274 287.424 
L 112.563662 295.488 
L 112.743499 287.424 
L 113.033161 295.488 
L 113.225354 287.424 
L 113.515015 295.488 
L 113.708581 287.424 
L 113.998242 295.488 
L 114.182198 287.424 
L 114.47186 295.488 
L 114.665425 287.424 
L 114.955087 295.488 
L 115.143161 287.424 
L 115.432823 295.488 
L 115.63188 287.424 
L 115.921542 295.488 
L 116.115107 287.424 
L 116.404769 295.488 
L 116.595589 287.424 
L 116.88525 295.488 
L 117.07607 287.424 
L 117.365732 295.488 
L 117.557925 287.424 
L 117.846214 295.488 
L 118.043897 287.424 
L 118.333559 295.488 
L 118.518888 287.424 
L 118.80855 295.488 
L 118.999369 287.424 
L 119.289031 295.488 
L 119.490833 287.424 
L 119.780495 295.488 
L 119.976806 287.424 
L 120.265095 295.488 
L 120.453169 287.424 
L 120.742831 295.488 
L 120.924041 287.424 
L 121.213703 295.488 
L 121.408641 287.424 
L 121.698303 295.488 
L 121.88775 287.424 
L 122.176039 295.488 
L 122.357249 287.424 
L 122.646911 295.488 
L 122.839104 287.424 
L 123.128765 295.488 
L 123.308603 287.424 
L 123.598265 295.488 
L 123.783593 287.424 
L 124.073255 295.488 
L 124.259956 287.424 
L 124.549618 295.488 
L 124.739065 287.424 
L 125.028727 295.488 
L 125.212683 287.424 
L 125.502345 295.488 
L 125.689046 287.424 
L 125.978708 295.488 
L 126.173646 287.424 
L 126.463308 295.488 
L 126.656873 287.424 
L 126.946535 295.488 
L 127.129118 287.424 
L 127.41878 295.488 
L 127.620582 287.424 
L 127.910244 295.488 
L 128.101064 287.424 
L 128.390725 295.488 
L 128.591155 287.424 
L 128.880816 295.488 
L 129.070264 287.424 
L 129.359925 295.488 
L 130.809607 287.424 
L 131.096523 295.488 
L 131.152808 287.424 
L 131.438351 295.488 
L 131.500128 287.424 
L 131.787044 295.488 
L 131.840583 287.424 
L 132.126126 295.488 
L 132.181039 287.424 
L 132.466582 295.488 
L 132.526985 287.424 
L 132.813901 295.488 
L 132.875678 287.424 
L 133.162594 295.488 
L 133.217506 287.424 
L 133.503049 295.488 
L 133.553843 287.424 
L 133.839386 295.488 
L 133.895671 287.424 
L 134.182588 295.488 
L 134.242991 287.424 
L 134.528534 295.488 
L 134.579328 287.424 
L 134.864871 295.488 
L 134.929393 287.424 
L 135.214937 295.488 
L 135.272594 287.424 
L 135.558138 295.488 
L 135.621287 287.424 
L 135.908203 295.488 
L 135.969979 287.424 
L 136.255522 295.488 
L 136.311807 287.424 
L 136.598724 295.488 
L 136.656381 287.424 
L 136.941925 295.488 
L 137.000955 287.424 
L 137.286499 295.488 
L 137.35102 287.424 
L 137.636564 295.488 
L 137.692849 287.424 
L 137.979765 295.488 
L 138.047032 287.424 
L 138.332576 295.488 
L 138.397098 287.424 
L 138.682641 295.488 
L 138.73618 287.424 
L 143.182694 182.592 
L 171.926476 190.656 
L 172.135142 182.592 
L 172.255949 190.656 
L 172.360282 182.592 
L 172.592286 110.016 
L 172.674654 101.952 
L 172.695246 110.016 
L 172.715838 110.016 
L 173.111206 287.424 
L 173.295162 295.488 
L 173.347328 287.424 
L 173.634244 295.488 
L 173.689157 287.424 
L 173.976073 295.488 
L 174.040595 287.424 
L 174.327511 295.488 
L 174.382423 287.424 
L 174.669339 295.488 
L 174.722878 287.424 
L 175.009795 295.488 
L 175.064707 287.424 
L 175.351623 295.488 
L 175.410654 287.424 
L 175.696197 295.488 
L 175.752482 287.424 
L 176.038025 295.488 
L 176.099801 287.424 
L 176.385345 295.488 
L 176.44163 287.424 
L 176.727173 295.488 
L 176.783458 287.424 
L 177.069001 295.488 
L 177.123914 287.424 
L 177.41083 295.488 
L 177.462996 287.424 
L 177.749912 295.488 
L 177.804825 287.424 
L 178.090368 295.488 
L 178.14528 287.424 
L 178.430824 295.488 
L 178.487109 287.424 
L 178.772652 295.488 
L 178.827564 287.424 
L 179.113107 295.488 
L 179.170765 287.424 
L 179.457681 295.488 
L 179.515339 287.424 
L 179.800882 295.488 
L 179.857167 287.424 
L 180.142711 295.488 
L 180.198996 287.424 
L 180.485912 295.488 
L 180.54357 287.424 
L 180.829113 295.488 
L 180.885398 287.424 
L 181.172314 295.488 
L 181.223108 287.424 
L 181.510024 295.488 
L 181.570428 287.424 
L 181.857344 295.488 
L 181.905392 287.424 
L 182.192308 295.488 
L 182.245847 287.424 
L 182.531391 295.488 
L 182.59454 287.424 
L 182.880083 295.488 
L 182.937741 287.424 
L 183.224657 295.488 
L 183.282315 287.424 
L 183.569231 295.488 
L 183.624143 287.424 
L 183.909686 295.488 
L 183.965971 287.424 
L 184.252888 295.488 
L 184.316037 287.424 
L 184.602953 295.488 
L 184.657865 287.424 
L 184.944781 295.488 
L 185.00793 287.424 
L 185.293473 295.488 
L 185.35525 287.424 
L 185.697078 279.36 
L 185.937319 287.424 
L 185.983994 295.488 
L 186.037533 287.424 
L 186.32445 295.488 
L 186.387599 287.424 
L 186.674515 295.488 
L 186.722563 287.424 
L 187.009479 295.488 
L 187.072628 287.424 
L 187.358171 295.488 
L 187.419948 287.424 
L 187.705491 295.488 
L 187.760403 287.424 
L 188.045947 295.488 
L 188.103604 287.424 
L 188.389148 295.488 
L 188.446805 287.424 
L 188.733722 295.488 
L 188.790007 287.424 
L 189.076923 295.488 
L 189.138699 287.424 
L 189.425615 295.488 
L 189.483273 287.424 
L 189.770189 295.488 
L 189.823728 287.424 
L 190.109272 295.488 
L 190.168302 287.424 
L 190.453846 295.488 
L 190.515622 287.424 
L 190.802538 295.488 
L 190.858823 287.424 
L 191.145739 295.488 
L 191.206143 287.424 
L 191.491686 295.488 
L 191.550717 287.424 
L 191.83626 295.488 
L 191.893918 287.424 
L 192.180834 295.488 
L 192.234373 287.424 
L 192.519917 295.488 
L 192.574829 287.424 
L 192.861745 295.488 
L 192.913911 287.424 
L 193.200828 295.488 
L 193.258485 287.424 
L 193.544029 295.488 
L 193.598941 287.424 
L 193.884484 295.488 
L 193.935278 287.424 
L 194.220821 295.488 
L 194.288089 287.424 
L 194.573632 295.488 
L 194.628544 287.424 
L 194.914088 295.488 
L 194.979982 287.424 
L 195.265526 295.488 
L 195.316319 287.424 
L 195.601863 295.488 
L 195.663639 287.424 
L 195.950555 295.488 
L 196.009586 287.424 
L 196.295129 295.488 
L 196.343177 287.424 
L 196.630093 295.488 
L 204.92046 287.424 
L 205.185411 279.36 
L 205.492919 174.528 
L 205.513511 182.592 
L 205.847103 295.488 
L 205.88966 287.424 
L 206.175203 295.488 
L 206.230115 287.424 
L 206.515659 295.488 
L 206.577435 287.424 
L 206.864351 295.488 
L 206.919263 287.424 
L 207.204807 295.488 
L 207.261092 287.424 
L 207.546635 295.488 
L 207.611157 287.424 
L 207.8967 295.488 
L 207.954358 287.424 
L 208.239901 295.488 
L 208.290695 287.424 
L 208.576238 295.488 
L 208.638015 287.424 
L 208.923558 295.488 
L 208.97847 287.424 
L 209.265386 295.488 
L 209.317553 287.424 
L 209.604469 295.488 
L 209.660754 287.424 
L 209.946297 295.488 
L 210.00121 287.424 
L 210.286753 295.488 
L 210.351275 287.424 
L 210.636818 295.488 
L 210.694476 287.424 
L 210.981392 295.488 
L 211.032186 287.424 
L 211.319102 295.488 
L 211.368523 287.424 
L 211.655439 295.488 
L 211.713097 287.424 
L 212.000013 295.488 
L 212.053552 287.424 
L 212.340468 295.488 
L 212.403617 287.424 
L 212.689161 295.488 
L 212.7427 287.424 
L 213.029616 295.488 
L 213.081783 287.424 
L 213.367326 295.488 
L 213.420866 287.424 
L 213.707782 295.488 
L 213.76544 287.424 
L 214.050983 295.488 
L 214.103149 287.424 
L 214.390066 295.488 
L 214.45596 287.424 
L 214.742876 295.488 
L 214.795043 287.424 
L 215.081959 295.488 
L 215.134126 287.424 
L 215.419669 295.488 
L 215.477327 287.424 
L 215.76287 295.488 
L 215.820528 287.424 
L 216.106071 295.488 
L 216.165102 287.424 
L 216.452018 295.488 
L 216.512421 287.424 
L 216.799338 295.488 
L 216.848759 287.424 
L 217.134302 295.488 
L 217.193332 287.424 
L 217.480249 295.488 
L 217.54477 287.424 
L 217.831687 295.488 
L 217.893463 287.424 
L 218.180379 295.488 
L 218.238037 287.424 
L 218.52358 295.488 
L 218.588102 287.424 
L 218.873645 295.488 
L 218.92993 287.424 
L 219.215474 295.488 
L 219.269013 287.424 
L 219.555929 295.488 
L 219.603977 287.424 
L 219.890893 295.488 
L 219.944433 287.424 
L 220.231349 295.488 
L 220.284888 287.424 
L 220.571804 295.488 
L 220.622598 287.424 
L 220.909514 295.488 
L 220.965799 287.424 
L 221.251343 295.488 
L 221.310373 287.424 
L 221.595917 295.488 
L 221.660438 287.424 
L 221.947355 295.488 
L 222.006385 287.424 
L 222.291929 295.488 
L 222.344095 287.424 
L 222.629638 295.488 
L 222.684551 287.424 
L 222.970094 295.488 
L 223.023633 287.424 
L 223.309177 295.488 
L 223.365462 287.424 
L 223.651005 295.488 
L 223.711408 287.424 
L 223.998325 295.488 
L 224.055982 287.424 
L 224.341526 295.488 
L 224.399184 287.424 
L 224.684727 295.488 
L 224.74513 287.424 
L 225.032046 295.488 
L 225.089704 287.424 
L 225.375248 295.488 
L 225.43016 287.424 
L 225.717076 295.488 
L 225.766497 287.424 
L 226.053413 295.488 
L 226.115189 287.424 
L 226.402105 295.488 
L 226.451526 287.424 
L 226.73707 295.488 
L 226.791982 287.424 
L 227.078898 295.488 
L 227.139301 287.424 
L 227.424845 295.488 
L 227.482503 287.424 
L 227.769419 295.488 
L 227.836686 287.424 
L 228.123602 295.488 
L 228.186751 287.424 
L 228.472295 295.488 
L 228.532698 287.424 
L 228.819614 295.488 
L 228.873154 287.424 
L 229.158697 295.488 
L 229.213609 287.424 
L 229.500525 295.488 
L 229.555437 287.424 
L 229.842354 295.488 
L 238.118992 287.424 
L 238.381198 182.592 
L 246.057921 190.656 
L 246.256977 182.592 
L 246.376411 190.656 
L 246.482117 182.592 
L 246.521929 190.656 
L 246.545266 174.528 
L 246.565858 174.528 
L 246.764915 110.016 
L 247.119099 279.36 
L 247.154792 287.424 
L 247.404642 295.488 
L 247.458181 287.424 
L 247.745098 295.488 
L 247.798637 287.424 
L 248.085553 295.488 
L 248.143211 287.424 
L 248.430127 295.488 
L 248.493276 287.424 
L 248.778819 295.488 
L 248.833732 287.424 
L 249.120648 295.488 
L 249.174187 287.424 
L 249.461103 295.488 
L 249.526998 287.424 
L 249.812541 295.488 
L 249.860589 287.424 
L 250.146133 295.488 
L 250.199672 287.424 
L 250.486588 295.488 
L 250.546992 287.424 
L 250.832535 295.488 
L 250.884701 287.424 
L 251.171618 295.488 
L 251.223784 287.424 
L 251.5107 295.488 
L 251.568358 287.424 
L 251.855274 295.488 
L 253.50264 287.424 
L 253.792302 295.488 
L 253.98724 287.424 
L 254.275529 295.488 
L 254.459485 287.424 
L 254.749146 295.488 
L 254.942712 287.424 
L 255.232373 295.488 
L 255.435549 287.424 
L 255.723837 295.488 
L 255.924267 287.424 
L 256.213929 295.488 
L 256.407494 287.424 
L 256.695783 295.488 
L 256.88523 287.424 
L 257.173519 295.488 
L 257.349238 287.424 
L 257.6389 295.488 
L 257.822856 287.424 
L 258.112517 295.488 
L 258.306083 287.424 
L 258.595745 295.488 
L 258.781073 287.424 
L 259.069362 295.488 
L 259.243708 287.424 
L 259.53337 295.488 
L 259.722817 287.424 
L 260.012479 295.488 
L 260.200553 287.424 
L 260.490215 295.488 
L 260.679662 287.424 
L 260.967951 295.488 
L 261.164262 287.424 
L 261.453924 295.488 
L 261.636507 287.424 
L 261.926168 295.488 
L 262.126598 287.424 
L 262.414887 295.488 
L 262.615316 287.424 
L 265.474868 239.04 
L 270.771148 247.104 
L 270.856262 239.04 
L 270.977069 247.104 
L 271.091011 230.976 
L 271.226919 206.784 
L 271.273595 214.848 
L 271.464414 271.296 
L 271.516581 287.424 
L 271.641506 295.488 
L 271.6923 287.424 
L 271.980589 295.488 
L 272.172781 287.424 
L 272.462443 295.488 
L 272.647772 287.424 
L 272.937434 295.488 
L 273.132372 287.424 
L 273.422034 295.488 
L 273.604617 287.424 
L 273.894278 295.488 
L 274.083725 287.424 
L 274.373387 295.488 
L 274.558716 287.424 
L 274.848378 295.488 
L 275.043316 287.424 
L 275.332978 295.488 
L 275.516933 287.424 
L 275.805222 295.488 
L 276.001533 287.424 
L 276.291195 295.488 
L 276.472405 287.424 
L 276.762067 295.488 
L 276.952887 287.424 
L 277.242549 295.488 
L 277.444351 287.424 
L 277.73264 295.488 
L 277.91385 287.424 
L 278.202139 295.488 
L 278.390213 287.424 
L 278.679875 295.488 
L 278.877559 287.424 
L 279.167221 295.488 
L 279.353922 287.424 
L 279.643584 295.488 
L 279.833031 287.424 
L 280.122693 295.488 
L 280.319004 287.424 
L 280.803604 279.36 
L 280.891463 287.424 
L 281.093265 295.488 
L 281.292322 287.424 
L 281.581984 295.488 
L 281.761821 287.424 
L 282.051483 295.488 
L 282.249167 287.424 
L 282.538829 295.488 
L 282.718666 287.424 
L 283.008328 295.488 
L 283.186792 287.424 
L 283.475081 295.488 
L 283.674138 287.424 
L 283.9638 295.488 
L 284.155992 287.424 
L 284.445654 295.488 
L 284.633728 287.424 
L 284.92339 295.488 
L 285.121074 287.424 
L 285.410736 295.488 
L 285.594691 287.424 
L 285.884353 295.488 
L 286.082037 287.424 
L 286.371699 295.488 
L 286.566637 287.424 
L 286.856299 295.488 
L 287.044373 287.424 
L 287.332662 295.488 
L 295.764427 287.424 
L 296.048598 230.976 
L 296.336887 239.04 
L 303.729439 247.104 
L 303.968307 255.168 
L 304.185211 295.488 
L 336.661648 287.424 
L 337.190177 174.528 
L 337.243717 190.656 
L 337.367269 214.848 
L 337.527887 222.912 
L 344.913576 230.976 
L 345.115378 222.912 
L 345.195001 239.04 
L 345.197746 230.976 
L 345.318553 239.04 
L 345.403667 222.912 
L 345.411904 230.976 
L 345.731767 150.336 
L 345.738631 158.4 
L 345.993973 271.296 
L 346.018683 279.36 
L 346.10517 271.296 
L 346.117525 279.36 
L 346.379731 271.296 
L 346.390713 279.36 
L 346.654292 271.296 
L 346.666647 279.36 
L 346.921989 271.296 
L 346.939835 279.36 
L 347.199295 271.296 
L 347.207532 279.36 
L 347.465619 271.296 
L 347.484838 279.36 
L 347.736062 271.296 
L 347.751163 279.36 
L 348.00925 271.296 
L 348.021605 279.36 
L 348.27832 271.296 
L 348.294793 279.36 
L 348.554253 271.296 
L 348.563863 279.36 
L 348.823323 271.296 
L 348.839797 279.36 
L 349.100629 271.296 
L 349.108866 279.36 
L 349.371072 271.296 
L 349.386173 279.36 
L 349.641514 271.296 
L 349.656615 279.36 
L 349.910584 271.296 
L 349.927058 279.36 
L 350.189263 271.296 
L 350.196127 279.36 
L 350.470688 271.296 
L 350.474807 279.36 
L 350.741131 271.296 
L 350.757605 279.36 
L 351.011573 271.296 
L 351.026674 279.36 
L 351.290253 271.296 
L 351.297117 279.36 
L 351.560695 271.296 
L 351.575796 279.36 
L 351.828392 271.296 
L 351.847611 279.36 
L 352.383005 263.232 
L 352.413207 279.36 
L 352.656193 271.296 
L 352.668548 279.36 
L 352.9335 271.296 
L 352.941737 279.36 
L 353.212179 271.296 
L 353.219043 279.36 
L 353.493604 271.296 
L 353.497722 279.36 
L 353.768165 271.296 
L 353.78052 279.36 
L 354.048217 271.296 
L 354.053708 279.36 
L 354.318659 271.296 
L 354.33376 279.36 
L 354.597339 271.296 
L 354.604203 279.36 
L 354.876018 271.296 
L 354.882882 279.36 
L 355.153325 271.296 
L 355.161561 279.36 
L 355.433377 271.296 
L 355.440241 279.36 
L 355.703819 271.296 
L 355.71892 279.36 
L 355.97838 271.296 
L 355.989363 279.36 
L 356.250195 271.296 
L 356.265296 279.36 
L 356.527502 271.296 
L 356.535739 279.36 
L 356.80069 271.296 
L 356.813045 279.36 
L 357.06976 271.296 
L 357.086233 279.36 
L 357.340202 271.296 
L 357.355303 279.36 
L 357.616136 271.296 
L 357.627118 279.36 
L 357.89207 271.296 
L 357.903052 279.36 
L 358.158394 271.296 
L 358.177613 279.36 
L 358.439819 271.296 
L 358.443937 279.36 
L 358.715752 271.296 
L 358.725362 279.36 
L 358.987568 271.296 
L 359.001296 279.36 
L 359.259383 271.296 
L 359.273111 279.36 
L 359.532571 271.296 
L 359.546299 279.36 
L 359.813996 271.296 
L 359.818114 279.36 
L 360.088557 271.296 
L 360.099539 279.36 
L 360.360372 271.296 
L 360.375473 279.36 
L 360.637679 271.296 
L 360.645916 279.36 
L 360.917731 271.296 
L 360.923222 279.36 
L 361.193665 271.296 
L 361.204647 279.36 
L 361.479208 287.424 
L 369.710544 279.36 
L 369.920583 271.296 
L 370.19789 134.208 
L 370.295359 142.272 
L 386.081238 150.336 
L 386.29265 142.272 
L 386.398356 150.336 
L 386.505435 142.272 
L 386.58643 150.336 
L 386.600158 134.208 
L 386.790978 53.568 
L 386.948851 101.952 
L 386.955715 93.888 
L 387.013372 150.336 
L 387.265968 279.36 
L 387.535038 271.296 
L 387.544648 279.36 
L 387.804108 271.296 
L 387.820581 279.36 
L 388.075923 271.296 
L 388.089651 279.36 
L 388.355975 271.296 
L 388.361466 279.36 
L 388.634655 271.296 
L 388.641519 279.36 
L 388.90647 271.296 
L 388.920198 279.36 
L 389.179658 271.296 
L 389.192013 279.36 
L 389.456964 271.296 
L 389.465201 279.36 
L 389.732898 271.296 
L 389.742508 279.36 
L 390.007459 271.296 
L 390.018442 279.36 
L 390.28202 271.296 
L 390.293002 279.36 
L 390.552462 271.296 
L 390.567563 279.36 
L 390.824278 271.296 
L 390.838006 279.36 
L 391.100212 271.296 
L 391.111194 279.36 
L 391.372027 271.296 
L 391.385755 279.36 
L 391.639724 271.296 
L 391.65757 279.36 
L 391.911539 271.296 
L 391.925267 279.36 
L 392.183354 271.296 
L 392.197082 279.36 
L 392.459288 271.296 
L 392.468898 279.36 
L 392.732476 271.296 
L 392.744831 279.36 
L 393.005664 271.296 
L 393.018019 279.36 
L 393.285716 271.296 
L 393.291208 279.36 
L 393.553413 271.296 
L 393.572632 279.36 
L 393.829347 271.296 
L 393.838957 279.36 
L 394.106653 271.296 
L 394.11489 279.36 
L 396.558482 206.784 
L 398.487273 150.336 
L 398.487273 150.336 
" clip-path="url(#p6043580a58)" style="fill: none; stroke: #1f77b4; stroke-width: 1.5; stroke-linecap: square"/>
   </g>
   <g id="patch_3">
    <path d="M 57.6 307.584 
L 57.6 41.472 
" style="fill: none; stroke: #000000; stroke-width: 0.8; stroke-linejoin: miter; stroke-linecap: square"/>
   </g>
   <g id="patch_4">
    <path d="M 414.72 307.584 
L 414.72 41.472 
" style="fill: none; stroke: #000000; stroke-width: 0.8; stroke-linejoin: miter; stroke-linecap: square"/>
   </g>
   <g id="patch_5">
    <path d="M 57.6 307.584 
L 414.72 307.584 
" style="fill: none; stroke: #000000; stroke-width: 0.8; stroke-linejoin: miter; stroke-linecap: square"/>
   </g>
   <g id="patch_6">
    <path d="M 57.6 41.472 
L 414.72 41.472 
" style="fill: none; stroke: #000000; stroke-width: 0.8; stroke-linejoin: miter; stroke-linecap: square"/>
   </g>
   <g id="text_14">
    <!-- Queue size (y-axis) between S3 and sensors that follow at a time (x-axis). -->
    <g transform="translate(14.282813 35.472) scale(0.12 -0.12)">
     <defs>
      <path id="DejaVuSans-51" d="M 2522 4238 
Q 1834 4238 1429 3725 
Q 1025 3213 1025 2328 
Q 1025 1447 1429 934 
Q 1834 422 2522 422 
Q 3209 422 3611 934 
Q 4013 1447 4013 2328 
Q 4013 3213 3611 3725 
Q 3209 4238 2522 4238 
z
M 3406 84 
L 4238 -825 
L 3475 -825 
L 2784 -78 
Q 2681 -84 2626 -87 
Q 2572 -91 2522 -91 
Q 1538 -91 948 567 
Q 359 1225 359 2328 
Q 359 3434 948 4092 
Q 1538 4750 2522 4750 
Q 3503 4750 4090 4092 
Q 4678 3434 4678 2328 
Q 4678 1516 4351 937 
Q 4025 359 3406 84 
z
" transform="scale(0.015625)"/>
      <path id="DejaVuSans-75" d="M 544 1381 
L 544 3500 
L 1119 3500 
L 1119 1403 
Q 1119 906 1312 657 
Q 1506 409 1894 409 
Q 2359 409 2629 706 
Q 2900 1003 2900 1516 
L 2900 3500 
L 3475 3500 
L 3475 0 
L 2900 0 
L 2900 538 
Q 2691 219 2414 64 
Q 2138 -91 1772 -91 
Q 1169 -91 856 284 
Q 544 659 544 1381 
z
M 1991 3584 
L 1991 3584 
z
" transform="scale(0.015625)"/>
      <path id="DejaVuSans-20" transform="scale(0.015625)"/>
      <path id="DejaVuSans-73" d="M 2834 3397 
L 2834 2853 
Q 2591 2978 2328 3040 
Q 2066 3103 1784 3103 
Q 1356 3103 1142 2972 
Q 928 2841 928 2578 
Q 928 2378 1081 2264 
Q 1234 2150 1697 2047 
L 1894 2003 
Q 2506 1872 2764 1633 
Q 3022 1394 3022 966 
Q 3022 478 2636 193 
Q 2250 -91 1575 -91 
Q 1294 -91 989 -36 
Q 684 19 347 128 
L 347 722 
Q 666 556 975 473 
Q 1284 391 1588 391 
Q 1994 391 2212 530 
Q 2431 669 2431 922 
Q 2431 1156 2273 1281 
Q 2116 1406 1581 1522 
L 1381 1569 
Q 847 1681 609 1914 
Q 372 2147 372 2553 
Q 372 3047 722 3315 
Q 1072 3584 1716 3584 
Q 2034 3584 2315 3537 
Q 2597 3491 2834 3397 
z
" transform="scale(0.015625)"/>
      <path id="DejaVuSans-69" d="M 603 3500 
L 1178 3500 
L 1178 0 
L 603 0 
L 603 3500 
z
M 603 4863 
L 1178 4863 
L 1178 4134 
L 603 4134 
L 603 4863 
z
" transform="scale(0.015625)"/>
      <path id="DejaVuSans-7a" d="M 353 3500 
L 3084 3500 
L 3084 2975 
L 922 459 
L 3084 459 
L 3084 0 
L 275 0 
L 275 525 
L 2438 3041 
L 353 3041 
L 353 3500 
z
" transform="scale(0.015625)"/>
      <path id="DejaVuSans-28" d="M 1984 4856 
Q 1566 4138 1362 3434 
Q 1159 2731 1159 2009 
Q 1159 1288 1364 580 
Q 1569 -128 1984 -844 
L 1484 -844 
Q 1016 -109 783 600 
Q 550 1309 550 2009 
Q 550 2706 781 3412 
Q 1013 4119 1484 4856 
L 1984 4856 
z
" transform="scale(0.015625)"/>
      <path id="DejaVuSans-79" d="M 2059 -325 
Q 1816 -950 1584 -1140 
Q 1353 -1331 966 -1331 
L 506 -1331 
L 506 -850 
L 844 -850 
Q 1081 -850 1212 -737 
Q 1344 -625 1503 -206 
L 1606 56 
L 191 3500 
L 800 3500 
L 1894 763 
L 2988 3500 
L 3597 3500 
L 2059 -325 
z
" transform="scale(0.015625)"/>
      <path id="DejaVuSans-2d" d="M 313 2009 
L 1997 2009 
L 1997 1497 
L 313 1497 
L 313 2009 
z
" transform="scale(0.015625)"/>
      <path id="DejaVuSans-61" d="M 2194 1759 
Q 1497 1759 1228 1600 
Q 959 1441 959 1056 
Q 959 750 1161 570 
Q 1363 391 1709 391 
Q 2188 391 2477 730 
Q 2766 1069 2766 1631 
L 2766 1759 
L 2194 1759 
z
M 3341 1997 
L 3341 0 
L 2766 0 
L 2766 531 
Q 2569 213 2275 61 
Q 1981 -91 1556 -91 
Q 1019 -91 701 211 
Q 384 513 384 1019 
Q 384 1609 779 1909 
Q 1175 2209 1959 2209 
L 2766 2209 
L 2766 2266 
Q 2766 2663 2505 2880 
Q 2244 3097 1772 3097 
Q 1472 3097 1187 3025 
Q 903 2953 641 2809 
L 641 3341 
Q 956 3463 1253 3523 
Q 1550 3584 1831 3584 
Q 2591 3584 2966 3190 
Q 3341 2797 3341 1997 
z
" transform="scale(0.015625)"/>
      <path id="DejaVuSans-78" d="M 3513 3500 
L 2247 1797 
L 3578 0 
L 2900 0 
L 1881 1375 
L 863 0 
L 184 0 
L 1544 1831 
L 300 3500 
L 978 3500 
L 1906 2253 
L 2834 3500 
L 3513 3500 
z
" transform="scale(0.015625)"/>
      <path id="DejaVuSans-29" d="M 513 4856 
L 1013 4856 
Q 1481 4119 1714 3412 
Q 1947 2706 1947 2009 
Q 1947 1309 1714 600 
Q 1481 -109 1013 -844 
L 513 -844 
Q 928 -128 1133 580 
Q 1338 1288 1338 2009 
Q 1338 2731 1133 3434 
Q 928 4138 513 4856 
z
" transform="scale(0.015625)"/>
      <path id="DejaVuSans-62" d="M 3116 1747 
Q 3116 2381 2855 2742 
Q 2594 3103 2138 3103 
Q 1681 3103 1420 2742 
Q 1159 2381 1159 1747 
Q 1159 1113 1420 752 
Q 1681 391 2138 391 
Q 2594 391 2855 752 
Q 3116 1113 3116 1747 
z
M 1159 2969 
Q 1341 3281 1617 3432 
Q 1894 3584 2278 3584 
Q 2916 3584 3314 3078 
Q 3713 2572 3713 1747 
Q 3713 922 3314 415 
Q 2916 -91 2278 -91 
Q 1894 -91 1617 61 
Q 1341 213 1159 525 
L 1159 0 
L 581 0 
L 581 4863 
L 1159 4863 
L 1159 2969 
z
" transform="scale(0.015625)"/>
      <path id="DejaVuSans-74" d="M 1172 4494 
L 1172 3500 
L 2356 3500 
L 2356 3053 
L 1172 3053 
L 1172 1153 
Q 1172 725 1289 603 
Q 1406 481 1766 481 
L 2356 481 
L 2356 0 
L 1766 0 
Q 1100 0 847 248 
Q 594 497 594 1153 
L 594 3053 
L 172 3053 
L 172 3500 
L 594 3500 
L 594 4494 
L 1172 4494 
z
" transform="scale(0.015625)"/>
      <path id="DejaVuSans-77" d="M 269 3500 
L 844 3500 
L 1563 769 
L 2278 3500 
L 2956 3500 
L 3675 769 
L 4391 3500 
L 4966 3500 
L 4050 0 
L 3372 0 
L 2619 2869 
L 1863 0 
L 1184 0 
L 269 3500 
z
" transform="scale(0.015625)"/>
      <path id="DejaVuSans-6e" d="M 3513 2113 
L 3513 0 
L 2938 0 
L 2938 2094 
Q 2938 2591 2744 2837 
Q 2550 3084 2163 3084 
Q 1697 3084 1428 2787 
Q 1159 2491 1159 1978 
L 1159 0 
L 581 0 
L 581 3500 
L 1159 3500 
L 1159 2956 
Q 1366 3272 1645 3428 
Q 1925 3584 2291 3584 
Q 2894 3584 3203 3211 
Q 3513 2838 3513 2113 
z
" transform="scale(0.015625)"/>
      <path id="DejaVuSans-53" d="M 3425 4513 
L 3425 3897 
Q 3066 4069 2747 4153 
Q 2428 4238 2131 4238 
Q 1616 4238 1336 4038 
Q 1056 3838 1056 3469 
Q 1056 3159 1242 3001 
Q 1428 2844 1947 2747 
L 2328 2669 
Q 3034 2534 3370 2195 
Q 3706 1856 3706 1288 
Q 3706 609 3251 259 
Q 2797 -91 1919 -91 
Q 1588 -91 1214 -16 
Q 841 59 441 206 
L 441 856 
Q 825 641 1194 531 
Q 1563 422 1919 422 
Q 2459 422 2753 634 
Q 3047 847 3047 1241 
Q 3047 1584 2836 1778 
Q 2625 1972 2144 2069 
L 1759 2144 
Q 1053 2284 737 2584 
Q 422 2884 422 3419 
Q 422 4038 858 4394 
Q 1294 4750 2059 4750 
Q 2388 4750 2728 4690 
Q 3069 4631 3425 4513 
z
" transform="scale(0.015625)"/>
      <path id="DejaVuSans-64" d="M 2906 2969 
L 2906 4863 
L 3481 4863 
L 3481 0 
L 2906 0 
L 2906 525 
Q 2725 213 2448 61 
Q 2172 -91 1784 -91 
Q 1150 -91 751 415 
Q 353 922 353 1747 
Q 353 2572 751 3078 
Q 1150 3584 1784 3584 
Q 2172 3584 2448 3432 
Q 2725 3281 2906 2969 
z
M 947 1747 
Q 947 1113 1208 752 
Q 1469 391 1925 391 
Q 2381 391 2643 752 
Q 2906 1113 2906 1747 
Q 2906 2381 2643 2742 
Q 2381 3103 1925 3103 
Q 1469 3103 1208 2742 
Q 947 2381 947 1747 
z
" transform="scale(0.015625)"/>
      <path id="DejaVuSans-6f" d="M 1959 3097 
Q 1497 3097 1228 2736 
Q 959 2375 959 1747 
Q 959 1119 1226 758 
Q 1494 397 1959 397 
Q 2419 397 2687 759 
Q 2956 1122 2956 1747 
Q 2956 2369 2687 2733 
Q 2419 3097 1959 3097 
z
M 1959 3584 
Q 2709 3584 3137 3096 
Q 3566 2609 3566 1747 
Q 3566 888 3137 398 
Q 2709 -91 1959 -91 
Q 1206 -91 779 398 
Q 353 888 353 1747 
Q 353 2609 779 3096 
Q 1206 3584 1959 3584 
z
" transform="scale(0.015625)"/>
      <path id="DejaVuSans-72" d="M 2631 2963 
Q 2534 3019 2420 3045 
Q 2306 3072 2169 3072 
Q 1681 3072 1420 2755 
Q 1159 2438 1159 1844 
L 1159 0 
L 581 0 
L 581 3500 
L 1159 3500 
L 1159 2956 
Q 1341 3275 1631 3429 
Q 1922 3584 2338 3584 
Q 2397 3584 2469 3576 
Q 2541 3569 2628 3553 
L 2631 2963 
z
" transform="scale(0.015625)"/>
      <path id="DejaVuSans-68" d="M 3513 2113 
L 3513 0 
L 2938 0 
L 2938 2094 
Q 2938 2591 2744 2837 
Q 2550 3084 2163 3084 
Q 1697 3084 1428 2787 
Q 1159 2491 1159 1978 
L 1159 0 
L 581 0 
L 581 4863 
L 1159 4863 
L 1159 2956 
Q 1366 3272 1645 3428 
Q 1925 3584 2291 3584 
Q 2894 3584 3203 3211 
Q 3513 2838 3513 2113 
z
" transform="scale(0.015625)"/>
      <path id="DejaVuSans-66" d="M 2375 4863 
L 2375 4384 
L 1825 4384 
Q 1516 4384 1395 4259 
Q 1275 4134 1275 3809 
L 1275 3500 
L 2222 3500 
L 2222 3053 
L 1275 3053 
L 1275 0 
L 697 0 
L 697 3053 
L 147 3053 
L 147 3500 
L 697 3500 
L 697 3744 
Q 697 4328 969 4595 
Q 1241 4863 1831 4863 
L 2375 4863 
z
" transform="scale(0.015625)"/>
      <path id="DejaVuSans-6c" d="M 603 4863 
L 1178 4863 
L 1178 0 
L 603 0 
L 603 4863 
z
" transform="scale(0.015625)"/>
      <path id="DejaVuSans-6d" d="M 3328 2828 
Q 3544 3216 3844 3400 
Q 4144 3584 4550 3584 
Q 5097 3584 5394 3201 
Q 5691 2819 5691 2113 
L 5691 0 
L 5113 0 
L 5113 2094 
Q 5113 2597 4934 2840 
Q 4756 3084 4391 3084 
Q 3944 3084 3684 2787 
Q 3425 2491 3425 1978 
L 3425 0 
L 2847 0 
L 2847 2094 
Q 2847 2600 2669 2842 
Q 2491 3084 2119 3084 
Q 1678 3084 1418 2786 
Q 1159 2488 1159 1978 
L 1159 0 
L 581 0 
L 581 3500 
L 1159 3500 
L 1159 2956 
Q 1356 3278 1631 3431 
Q 1906 3584 2284 3584 
Q 2666 3584 2933 3390 
Q 3200 3197 3328 2828 
z
" transform="scale(0.015625)"/>
     </defs>
     <use xlink:href="#DejaVuSans-51"/>
     <use xlink:href="#DejaVuSans-75" x="78.710938"/>
     <use xlink:href="#DejaVuSans-65" x="142.089844"/>
     <use xlink:href="#DejaVuSans-75" x="203.613281"/>
     <use xlink:href="#DejaVuSans-65" x="266.992188"/>
     <use xlink:href="#DejaVuSans-20" x="328.515625"/>
     <use xlink:href="#DejaVuSans-73" x="360.302734"/>
     <use xlink:href="#DejaVuSans-69" x="412.402344"/>
     <use xlink:href="#DejaVuSans-7a" x="440.185547"/>
     <use xlink:href="#DejaVuSans-65" x="492.675781"/>
     <use xlink:href="#DejaVuSans-20" x="554.199219"/>
     <use xlink:href="#DejaVuSans-28" x="585.986328"/>
     <use xlink:href="#DejaVuSans-79" x="625"/>
     <use xlink:href="#DejaVuSans-2d" x="682.429688"/>
     <use xlink:href="#DejaVuSans-61" x="718.513672"/>
     <use xlink:href="#DejaVuSans-78" x="779.792969"/>
     <use xlink:href="#DejaVuSans-69" x="838.972656"/>
     <use xlink:href="#DejaVuSans-73" x="866.755859"/>
     <use xlink:href="#DejaVuSans-29" x="918.855469"/>
     <use xlink:href="#DejaVuSans-20" x="957.869141"/>
     <use xlink:href="#DejaVuSans-62" x="989.65625"/>
     <use xlink:href="#DejaVuSans-65" x="1053.132812"/>
     <use xlink:href="#DejaVuSans-74" x="1114.65625"/>
     <use xlink:href="#DejaVuSans-77" x="1153.865234"/>
     <use xlink:href="#DejaVuSans-65" x="1235.652344"/>
     <use xlink:href="#DejaVuSans-65" x="1297.175781"/>
     <use xlink:href="#DejaVuSans-6e" x="1358.699219"/>
     <use xlink:href="#DejaVuSans-20" x="1422.078125"/>
     <use xlink:href="#DejaVuSans-53" x="1453.865234"/>
     <use xlink:href="#DejaVuSans-33" x="1517.341797"/>
     <use xlink:href="#DejaVuSans-20" x="1580.964844"/>
     <use xlink:href="#DejaVuSans-61" x="1612.751953"/>
     <use xlink:href="#DejaVuSans-6e" x="1674.03125"/>
     <use xlink:href="#DejaVuSans-64" x="1737.410156"/>
     <use xlink:href="#DejaVuSans-20" x="1800.886719"/>
     <use xlink:href="#DejaVuSans-73" x="1832.673828"/>
     <use xlink:href="#DejaVuSans-65" x="1884.773438"/>
     <use xlink:href="#DejaVuSans-6e" x="1946.296875"/>
     <use xlink:href="#DejaVuSans-73" x="2009.675781"/>
     <use xlink:href="#DejaVuSans-6f" x="2061.775391"/>
     <use xlink:href="#DejaVuSans-72" x="2122.957031"/>
     <use xlink:href="#DejaVuSans-73" x="2164.070312"/>
     <use xlink:href="#DejaVuSans-20" x="2216.169922"/>
     <use xlink:href="#DejaVuSans-74" x="2247.957031"/>
     <use xlink:href="#DejaVuSans-68" x="2287.166016"/>
     <use xlink:href="#DejaVuSans-61" x="2350.544922"/>
     <use xlink:href="#DejaVuSans-74" x="2411.824219"/>
     <use xlink:href="#DejaVuSans-20" x="2451.033203"/>
     <use xlink:href="#DejaVuSans-66" x="2482.820312"/>
     <use xlink:href="#DejaVuSans-6f" x="2518.025391"/>
     <use xlink:href="#DejaVuSans-6c" x="2579.207031"/>
     <use xlink:href="#DejaVuSans-6c" x="2606.990234"/>
     <use xlink:href="#DejaVuSans-6f" x="2634.773438"/>
     <use xlink:href="#DejaVuSans-77" x="2695.955078"/>
     <use xlink:href="#DejaVuSans-20" x="2777.742188"/>
     <use xlink:href="#DejaVuSans-61" x="2809.529297"/>
     <use xlink:href="#DejaVuSans-74" x="2870.808594"/>
     <use xlink:href="#DejaVuSans-20" x="2910.017578"/>
     <use xlink:href="#DejaVuSans-61" x="2941.804688"/>
     <use xlink:href="#DejaVuSans-20" x="3003.083984"/>
     <use xlink:href="#DejaVuSans-74" x="3034.871094"/>
     <use xlink:href="#DejaVuSans-69" x="3074.080078"/>
     <use xlink:href="#DejaVuSans-6d" x="3101.863281"/>
     <use xlink:href="#DejaVuSans-65" x="3199.275391"/>
     <use xlink:href="#DejaVuSans-20" x="3260.798828"/>
     <use xlink:href="#DejaVuSans-28" x="3292.585938"/>
     <use xlink:href="#DejaVuSans-78" x="3331.599609"/>
     <use xlink:href="#DejaVuSans-2d" x="3390.779297"/>
     <use xlink:href="#DejaVuSans-61" x="3426.863281"/>
     <use xlink:href="#DejaVuSans-78" x="3488.142578"/>
     <use xlink:href="#DejaVuSans-69" x="3547.322266"/>
     <use xlink:href="#DejaVuSans-73" x="3575.105469"/>
     <use xlink:href="#DejaVuSans-29" x="3627.205078"/>
     <use xlink:href="#DejaVuSans-2e" x="3666.21875"/>
    </g>
   </g>
  </g>
 </g>
 <defs>
  <clipPath id="p6043580a58">
   <rect x="57.6" y="41.472" width="357.12" height="266.112"/>
  </clipPath>
 </defs>
</svg>
