<?xml version="1.0" encoding="utf-8" standalone="no"?>
<!DOCTYPE svg PUBLIC "-//W3C//DTD SVG 1.1//EN"
  "http://www.w3.org/Graphics/SVG/1.1/DTD/svg11.dtd">
<svg xmlns:xlink="http://www.w3.org/1999/xlink" width="460.8pt" height="345.6pt" viewBox="0 0 460.8 345.6" xmlns="http://www.w3.org/2000/svg" version="1.1">
 <metadata>
  <rdf:RDF xmlns:dc="http://purl.org/dc/elements/1.1/" xmlns:cc="http://creativecommons.org/ns#" xmlns:rdf="http://www.w3.org/1999/02/22-rdf-syntax-ns#">
   <cc:Work>
    <dc:type rdf:resource="http://purl.org/dc/dcmitype/StillImage"/>
    <dc:date>2024-03-08T11:43:58.542731</dc:date>
    <dc:format>image/svg+xml</dc:format>
    <dc:creator>
     <cc:Agent>
      <dc:title>Matplotlib v3.8.2, https://matplotlib.org/</dc:title>
     </cc:Agent>
    </dc:creator>
   </cc:Work>
  </rdf:RDF>
 </metadata>
 <defs>
  <style type="text/css">*{stroke-linejoin: round; stroke-linecap: butt}</style>
 </defs>
 <g id="figure_1">
  <g id="patch_1">
   <path d="M 0 345.6 
L 460.8 345.6 
L 460.8 0 
L 0 0 
z
" style="fill: #ffffff"/>
  </g>
  <g id="axes_1">
   <g id="patch_2">
    <path d="M 57.6 307.584 
L 414.72 307.584 
L 414.72 41.472 
L 57.6 41.472 
z
" style="fill: #ffffff"/>
   </g>
   <g id="matplotlib.axis_1">
    <g id="xtick_1">
     <g id="line2d_1">
      <defs>
       <path id="m1f7b32acb4" d="M 0 0 
L 0 3.5 
" style="stroke: #000000; stroke-width: 0.8"/>
      </defs>
      <g>
       <use xlink:href="#m1f7b32acb4" x="72.761665" y="307.584" style="stroke: #000000; stroke-width: 0.8"/>
      </g>
     </g>
     <g id="text_1">
      <!-- 0.0 -->
      <g transform="translate(64.810102 322.182437) scale(0.1 -0.1)">
       <defs>
        <path id="DejaVuSans-30" d="M 2034 4250 
Q 1547 4250 1301 3770 
Q 1056 3291 1056 2328 
Q 1056 1369 1301 889 
Q 1547 409 2034 409 
Q 2525 409 2770 889 
Q 3016 1369 3016 2328 
Q 3016 3291 2770 3770 
Q 2525 4250 2034 4250 
z
M 2034 4750 
Q 2819 4750 3233 4129 
Q 3647 3509 3647 2328 
Q 3647 1150 3233 529 
Q 2819 -91 2034 -91 
Q 1250 -91 836 529 
Q 422 1150 422 2328 
Q 422 3509 836 4129 
Q 1250 4750 2034 4750 
z
" transform="scale(0.015625)"/>
        <path id="DejaVuSans-2e" d="M 684 794 
L 1344 794 
L 1344 0 
L 684 0 
L 684 794 
z
" transform="scale(0.015625)"/>
       </defs>
       <use xlink:href="#DejaVuSans-30"/>
       <use xlink:href="#DejaVuSans-2e" x="63.623047"/>
       <use xlink:href="#DejaVuSans-30" x="95.410156"/>
      </g>
     </g>
    </g>
    <g id="xtick_2">
     <g id="line2d_2">
      <g>
       <use xlink:href="#m1f7b32acb4" x="142.401628" y="307.584" style="stroke: #000000; stroke-width: 0.8"/>
      </g>
     </g>
     <g id="text_2">
      <!-- 0.5 -->
      <g transform="translate(134.450066 322.182437) scale(0.1 -0.1)">
       <defs>
        <path id="DejaVuSans-35" d="M 691 4666 
L 3169 4666 
L 3169 4134 
L 1269 4134 
L 1269 2991 
Q 1406 3038 1543 3061 
Q 1681 3084 1819 3084 
Q 2600 3084 3056 2656 
Q 3513 2228 3513 1497 
Q 3513 744 3044 326 
Q 2575 -91 1722 -91 
Q 1428 -91 1123 -41 
Q 819 9 494 109 
L 494 744 
Q 775 591 1075 516 
Q 1375 441 1709 441 
Q 2250 441 2565 725 
Q 2881 1009 2881 1497 
Q 2881 1984 2565 2268 
Q 2250 2553 1709 2553 
Q 1456 2553 1204 2497 
Q 953 2441 691 2322 
L 691 4666 
z
" transform="scale(0.015625)"/>
       </defs>
       <use xlink:href="#DejaVuSans-30"/>
       <use xlink:href="#DejaVuSans-2e" x="63.623047"/>
       <use xlink:href="#DejaVuSans-35" x="95.410156"/>
      </g>
     </g>
    </g>
    <g id="xtick_3">
     <g id="line2d_3">
      <g>
       <use xlink:href="#m1f7b32acb4" x="212.041591" y="307.584" style="stroke: #000000; stroke-width: 0.8"/>
      </g>
     </g>
     <g id="text_3">
      <!-- 1.0 -->
      <g transform="translate(204.090029 322.182437) scale(0.1 -0.1)">
       <defs>
        <path id="DejaVuSans-31" d="M 794 531 
L 1825 531 
L 1825 4091 
L 703 3866 
L 703 4441 
L 1819 4666 
L 2450 4666 
L 2450 531 
L 3481 531 
L 3481 0 
L 794 0 
L 794 531 
z
" transform="scale(0.015625)"/>
       </defs>
       <use xlink:href="#DejaVuSans-31"/>
       <use xlink:href="#DejaVuSans-2e" x="63.623047"/>
       <use xlink:href="#DejaVuSans-30" x="95.410156"/>
      </g>
     </g>
    </g>
    <g id="xtick_4">
     <g id="line2d_4">
      <g>
       <use xlink:href="#m1f7b32acb4" x="281.681555" y="307.584" style="stroke: #000000; stroke-width: 0.8"/>
      </g>
     </g>
     <g id="text_4">
      <!-- 1.5 -->
      <g transform="translate(273.729992 322.182437) scale(0.1 -0.1)">
       <use xlink:href="#DejaVuSans-31"/>
       <use xlink:href="#DejaVuSans-2e" x="63.623047"/>
       <use xlink:href="#DejaVuSans-35" x="95.410156"/>
      </g>
     </g>
    </g>
    <g id="xtick_5">
     <g id="line2d_5">
      <g>
       <use xlink:href="#m1f7b32acb4" x="351.321518" y="307.584" style="stroke: #000000; stroke-width: 0.8"/>
      </g>
     </g>
     <g id="text_5">
      <!-- 2.0 -->
      <g transform="translate(343.369956 322.182437) scale(0.1 -0.1)">
       <defs>
        <path id="DejaVuSans-32" d="M 1228 531 
L 3431 531 
L 3431 0 
L 469 0 
L 469 531 
Q 828 903 1448 1529 
Q 2069 2156 2228 2338 
Q 2531 2678 2651 2914 
Q 2772 3150 2772 3378 
Q 2772 3750 2511 3984 
Q 2250 4219 1831 4219 
Q 1534 4219 1204 4116 
Q 875 4013 500 3803 
L 500 4441 
Q 881 4594 1212 4672 
Q 1544 4750 1819 4750 
Q 2544 4750 2975 4387 
Q 3406 4025 3406 3419 
Q 3406 3131 3298 2873 
Q 3191 2616 2906 2266 
Q 2828 2175 2409 1742 
Q 1991 1309 1228 531 
z
" transform="scale(0.015625)"/>
       </defs>
       <use xlink:href="#DejaVuSans-32"/>
       <use xlink:href="#DejaVuSans-2e" x="63.623047"/>
       <use xlink:href="#DejaVuSans-30" x="95.410156"/>
      </g>
     </g>
    </g>
    <g id="text_6">
     <!-- 1e6 -->
     <g transform="translate(395.841875 334.860562) scale(0.1 -0.1)">
      <defs>
       <path id="DejaVuSans-65" d="M 3597 1894 
L 3597 1613 
L 953 1613 
Q 991 1019 1311 708 
Q 1631 397 2203 397 
Q 2534 397 2845 478 
Q 3156 559 3463 722 
L 3463 178 
Q 3153 47 2828 -22 
Q 2503 -91 2169 -91 
Q 1331 -91 842 396 
Q 353 884 353 1716 
Q 353 2575 817 3079 
Q 1281 3584 2069 3584 
Q 2775 3584 3186 3129 
Q 3597 2675 3597 1894 
z
M 3022 2063 
Q 3016 2534 2758 2815 
Q 2500 3097 2075 3097 
Q 1594 3097 1305 2825 
Q 1016 2553 972 2059 
L 3022 2063 
z
" transform="scale(0.015625)"/>
       <path id="DejaVuSans-36" d="M 2113 2584 
Q 1688 2584 1439 2293 
Q 1191 2003 1191 1497 
Q 1191 994 1439 701 
Q 1688 409 2113 409 
Q 2538 409 2786 701 
Q 3034 994 3034 1497 
Q 3034 2003 2786 2293 
Q 2538 2584 2113 2584 
z
M 3366 4563 
L 3366 3988 
Q 3128 4100 2886 4159 
Q 2644 4219 2406 4219 
Q 1781 4219 1451 3797 
Q 1122 3375 1075 2522 
Q 1259 2794 1537 2939 
Q 1816 3084 2150 3084 
Q 2853 3084 3261 2657 
Q 3669 2231 3669 1497 
Q 3669 778 3244 343 
Q 2819 -91 2113 -91 
Q 1303 -91 875 529 
Q 447 1150 447 2328 
Q 447 3434 972 4092 
Q 1497 4750 2381 4750 
Q 2619 4750 2861 4703 
Q 3103 4656 3366 4563 
z
" transform="scale(0.015625)"/>
      </defs>
      <use xlink:href="#DejaVuSans-31"/>
      <use xlink:href="#DejaVuSans-65" x="63.623047"/>
      <use xlink:href="#DejaVuSans-36" x="125.146484"/>
     </g>
    </g>
   </g>
   <g id="matplotlib.axis_2">
    <g id="ytick_1">
     <g id="line2d_6">
      <defs>
       <path id="m2314567ecc" d="M 0 0 
L -3.5 0 
" style="stroke: #000000; stroke-width: 0.8"/>
      </defs>
      <g>
       <use xlink:href="#m2314567ecc" x="57.6" y="295.488" style="stroke: #000000; stroke-width: 0.8"/>
      </g>
     </g>
     <g id="text_7">
      <!-- 0 -->
      <g transform="translate(44.2375 299.287219) scale(0.1 -0.1)">
       <use xlink:href="#DejaVuSans-30"/>
      </g>
     </g>
    </g>
    <g id="ytick_2">
     <g id="line2d_7">
      <g>
       <use xlink:href="#m2314567ecc" x="57.6" y="259.648" style="stroke: #000000; stroke-width: 0.8"/>
      </g>
     </g>
     <g id="text_8">
      <!-- 20 -->
      <g transform="translate(37.875 263.447219) scale(0.1 -0.1)">
       <use xlink:href="#DejaVuSans-32"/>
       <use xlink:href="#DejaVuSans-30" x="63.623047"/>
      </g>
     </g>
    </g>
    <g id="ytick_3">
     <g id="line2d_8">
      <g>
       <use xlink:href="#m2314567ecc" x="57.6" y="223.808" style="stroke: #000000; stroke-width: 0.8"/>
      </g>
     </g>
     <g id="text_9">
      <!-- 40 -->
      <g transform="translate(37.875 227.607219) scale(0.1 -0.1)">
       <defs>
        <path id="DejaVuSans-34" d="M 2419 4116 
L 825 1625 
L 2419 1625 
L 2419 4116 
z
M 2253 4666 
L 3047 4666 
L 3047 1625 
L 3713 1625 
L 3713 1100 
L 3047 1100 
L 3047 0 
L 2419 0 
L 2419 1100 
L 313 1100 
L 313 1709 
L 2253 4666 
z
" transform="scale(0.015625)"/>
       </defs>
       <use xlink:href="#DejaVuSans-34"/>
       <use xlink:href="#DejaVuSans-30" x="63.623047"/>
      </g>
     </g>
    </g>
    <g id="ytick_4">
     <g id="line2d_9">
      <g>
       <use xlink:href="#m2314567ecc" x="57.6" y="187.968" style="stroke: #000000; stroke-width: 0.8"/>
      </g>
     </g>
     <g id="text_10">
      <!-- 60 -->
      <g transform="translate(37.875 191.767219) scale(0.1 -0.1)">
       <use xlink:href="#DejaVuSans-36"/>
       <use xlink:href="#DejaVuSans-30" x="63.623047"/>
      </g>
     </g>
    </g>
    <g id="ytick_5">
     <g id="line2d_10">
      <g>
       <use xlink:href="#m2314567ecc" x="57.6" y="152.128" style="stroke: #000000; stroke-width: 0.8"/>
      </g>
     </g>
     <g id="text_11">
      <!-- 80 -->
      <g transform="translate(37.875 155.927219) scale(0.1 -0.1)">
       <defs>
        <path id="DejaVuSans-38" d="M 2034 2216 
Q 1584 2216 1326 1975 
Q 1069 1734 1069 1313 
Q 1069 891 1326 650 
Q 1584 409 2034 409 
Q 2484 409 2743 651 
Q 3003 894 3003 1313 
Q 3003 1734 2745 1975 
Q 2488 2216 2034 2216 
z
M 1403 2484 
Q 997 2584 770 2862 
Q 544 3141 544 3541 
Q 544 4100 942 4425 
Q 1341 4750 2034 4750 
Q 2731 4750 3128 4425 
Q 3525 4100 3525 3541 
Q 3525 3141 3298 2862 
Q 3072 2584 2669 2484 
Q 3125 2378 3379 2068 
Q 3634 1759 3634 1313 
Q 3634 634 3220 271 
Q 2806 -91 2034 -91 
Q 1263 -91 848 271 
Q 434 634 434 1313 
Q 434 1759 690 2068 
Q 947 2378 1403 2484 
z
M 1172 3481 
Q 1172 3119 1398 2916 
Q 1625 2713 2034 2713 
Q 2441 2713 2670 2916 
Q 2900 3119 2900 3481 
Q 2900 3844 2670 4047 
Q 2441 4250 2034 4250 
Q 1625 4250 1398 4047 
Q 1172 3844 1172 3481 
z
" transform="scale(0.015625)"/>
       </defs>
       <use xlink:href="#DejaVuSans-38"/>
       <use xlink:href="#DejaVuSans-30" x="63.623047"/>
      </g>
     </g>
    </g>
    <g id="ytick_6">
     <g id="line2d_11">
      <g>
       <use xlink:href="#m2314567ecc" x="57.6" y="116.288" style="stroke: #000000; stroke-width: 0.8"/>
      </g>
     </g>
     <g id="text_12">
      <!-- 100 -->
      <g transform="translate(31.5125 120.087219) scale(0.1 -0.1)">
       <use xlink:href="#DejaVuSans-31"/>
       <use xlink:href="#DejaVuSans-30" x="63.623047"/>
       <use xlink:href="#DejaVuSans-30" x="127.246094"/>
      </g>
     </g>
    </g>
    <g id="ytick_7">
     <g id="line2d_12">
      <g>
       <use xlink:href="#m2314567ecc" x="57.6" y="80.448" style="stroke: #000000; stroke-width: 0.8"/>
      </g>
     </g>
     <g id="text_13">
      <!-- 120 -->
      <g transform="translate(31.5125 84.247219) scale(0.1 -0.1)">
       <use xlink:href="#DejaVuSans-31"/>
       <use xlink:href="#DejaVuSans-32" x="63.623047"/>
       <use xlink:href="#DejaVuSans-30" x="127.246094"/>
      </g>
     </g>
    </g>
    <g id="ytick_8">
     <g id="line2d_13">
      <g>
       <use xlink:href="#m2314567ecc" x="57.6" y="44.608" style="stroke: #000000; stroke-width: 0.8"/>
      </g>
     </g>
     <g id="text_14">
      <!-- 140 -->
      <g transform="translate(31.5125 48.407219) scale(0.1 -0.1)">
       <use xlink:href="#DejaVuSans-31"/>
       <use xlink:href="#DejaVuSans-34" x="63.623047"/>
       <use xlink:href="#DejaVuSans-30" x="127.246094"/>
      </g>
     </g>
    </g>
   </g>
   <g id="line2d_14">
    <path d="M 73.832727 293.696 
L 75.786825 286.528 
L 76.097419 288.32 
L 76.271519 286.528 
L 76.583506 288.32 
L 76.756213 286.528 
L 77.0682 288.32 
L 77.239514 286.528 
L 77.554287 288.32 
L 77.735351 286.528 
L 78.050123 288.32 
L 78.225616 286.528 
L 78.53621 288.32 
L 78.714489 286.528 
L 79.019512 288.32 
L 79.203361 286.528 
L 79.504206 288.32 
L 79.695019 286.528 
L 79.99865 288.32 
L 80.18807 286.528 
L 80.490308 288.32 
L 80.681121 286.528 
L 80.977788 288.32 
L 81.161637 286.528 
L 81.46666 288.32 
L 83.424936 295.488 
L 90.111765 293.696 
L 90.497571 277.568 
L 91.395926 273.984 
L 92.363922 270.4 
L 92.501809 277.568 
L 92.760869 288.32 
L 92.85558 286.528 
L 93.18428 288.32 
L 93.341667 286.528 
L 93.659225 288.32 
L 93.827754 286.528 
L 94.146705 288.32 
L 94.322197 286.528 
L 94.62722 288.32 
L 94.813855 286.528 
L 95.118878 288.32 
L 95.301335 286.528 
L 95.604965 288.32 
L 95.792993 286.528 
L 96.092445 288.32 
L 96.287437 286.528 
L 96.585496 288.32 
L 96.76656 286.528 
L 97.078547 288.32 
L 97.24429 286.528 
L 97.564634 288.32 
L 97.733163 286.528 
L 98.057685 288.32 
L 98.217857 286.528 
L 98.550736 288.32 
L 98.699765 286.528 
L 99.031252 288.32 
L 99.194209 286.528 
L 99.507589 288.32 
L 99.669154 286.528 
L 99.997854 288.32 
L 100.153848 286.528 
L 100.482548 288.32 
L 100.641328 286.528 
L 100.963064 288.32 
L 101.13995 286.528 
L 101.457508 288.32 
L 101.624644 286.528 
L 101.932453 288.32 
L 102.106552 286.528 
L 102.417147 288.32 
L 102.585675 286.528 
L 102.904626 288.32 
L 103.07037 286.528 
L 103.403249 288.32 
L 103.556456 286.528 
L 103.887943 288.32 
L 104.036972 286.528 
L 104.369851 288.32 
L 104.521666 286.528 
L 104.850367 288.32 
L 105.014717 286.528 
L 105.335061 288.32 
L 105.506375 286.528 
L 105.821148 288.32 
L 105.988284 286.528 
L 106.300271 288.32 
L 106.481335 286.528 
L 106.786358 288.32 
L 106.967422 286.528 
L 107.278016 288.32 
L 107.45908 286.528 
L 107.769674 288.32 
L 108.252976 290.112 
L 108.432647 288.32 
L 108.744634 290.112 
L 108.92709 288.32 
L 109.230721 290.112 
L 109.406213 288.32 
L 109.722379 290.112 
L 109.888122 288.32 
L 110.375602 286.528 
L 110.695946 288.32 
L 110.863081 286.528 
L 111.190389 288.32 
L 111.351954 286.528 
L 111.669512 288.32 
L 111.851969 286.528 
L 112.152814 288.32 
L 112.347805 286.528 
L 112.6389 288.32 
L 112.835285 286.528 
L 113.127773 288.32 
L 113.311623 286.528 
L 113.615253 288.32 
L 113.800495 286.528 
L 114.115268 288.32 
L 114.29076 286.528 
L 114.611104 288.32 
L 114.771276 286.528 
L 115.098584 288.32 
L 115.261542 286.528 
L 115.574921 288.32 
L 115.746236 286.528 
L 116.063794 288.32 
L 116.242072 286.528 
L 116.554059 288.32 
L 116.732338 286.528 
L 117.034575 288.32 
L 117.219817 286.528 
L 117.526233 288.32 
L 117.707297 286.528 
L 118.009534 288.32 
L 118.194777 286.528 
L 118.505371 288.32 
L 118.689221 286.528 
L 118.995636 288.32 
L 119.171129 286.528 
L 119.483116 288.32 
L 119.658609 286.528 
L 119.970596 288.32 
L 120.157231 286.528 
L 120.459468 288.32 
L 120.648889 286.528 
L 120.952519 288.32 
L 121.133583 286.528 
L 121.434428 288.32 
L 121.611313 286.528 
L 121.9233 288.32 
L 122.102972 286.528 
L 122.42053 288.32 
L 122.587666 286.528 
L 122.913581 288.32 
L 123.065396 286.528 
L 123.398275 288.32 
L 123.554268 286.528 
L 123.874612 288.32 
L 124.030606 286.528 
L 124.367663 288.32 
L 124.512514 286.528 
L 124.852357 288.32 
L 124.995816 286.528 
L 125.328695 288.32 
L 125.481903 286.528 
L 125.817567 288.32 
L 125.962418 286.528 
L 126.293905 288.32 
L 126.44572 286.528 
L 126.775813 288.32 
L 126.937378 286.528 
L 127.259114 288.32 
L 127.427643 286.528 
L 127.745201 288.32 
L 127.906766 286.528 
L 128.225717 288.32 
L 128.405388 286.528 
L 128.709018 288.32 
L 128.892868 286.528 
L 129.200677 288.32 
L 129.390097 286.528 
L 129.690942 288.32 
L 129.876184 286.528 
L 130.171458 288.32 
L 131.156167 291.904 
L 131.638075 290.112 
L 131.653396 291.904 
L 131.984882 290.112 
L 132.140876 291.904 
L 132.338653 290.112 
L 133.734238 282.944 
L 133.905553 284.736 
L 134.079652 282.944 
L 134.25236 284.736 
L 134.420888 282.944 
L 134.604738 284.736 
L 134.769088 282.944 
L 134.950152 284.736 
L 135.120073 282.944 
L 135.295566 284.736 
L 135.461309 282.944 
L 135.646552 284.736 
L 135.816473 282.944 
L 136.000323 284.736 
L 136.164673 282.944 
L 136.34713 284.736 
L 136.519837 282.944 
L 136.688365 284.736 
L 136.872215 282.944 
L 137.035172 284.736 
L 137.220415 282.944 
L 137.387551 284.736 
L 137.568615 282.944 
L 137.728787 284.736 
L 137.918207 282.944 
L 138.08395 284.736 
L 138.273371 282.944 
L 138.43215 284.736 
L 138.621571 282.944 
L 138.785921 284.736 
L 138.97952 282.944 
L 139.139692 284.736 
L 139.334684 282.944 
L 139.486499 284.736 
L 173.062711 282.944 
L 173.263274 284.736 
L 173.520942 263.232 
L 173.572476 259.648 
L 173.612867 261.44 
L 173.88307 259.648 
L 174.264697 229.184 
L 174.31623 230.976 
L 174.451332 229.184 
L 174.67418 230.976 
L 174.795353 229.184 
L 175.029344 230.976 
L 175.14216 229.184 
L 175.330188 230.976 
L 175.498717 229.184 
L 175.603177 234.56 
L 175.83856 254.272 
L 175.845524 252.48 
L 176.150547 254.272 
L 176.314897 266.816 
L 176.537745 265.024 
L 176.739701 266.816 
L 176.80377 272.192 
L 176.887338 270.4 
L 177.234145 268.608 
L 177.328855 275.776 
L 177.586523 273.984 
L 177.780122 275.776 
L 177.842798 281.152 
L 177.93333 279.36 
L 178.280137 277.568 
L 178.457023 284.736 
L 178.626944 282.944 
L 178.844221 284.736 
L 178.970966 282.944 
L 179.154815 284.736 
L 179.31638 282.944 
L 179.501622 284.736 
L 179.661794 282.944 
L 179.854 284.736 
L 180.008601 282.944 
L 180.200807 284.736 
L 180.354015 282.944 
L 180.547614 284.736 
L 180.703608 282.944 
L 180.894421 284.736 
L 181.051808 282.944 
L 181.23705 284.736 
L 181.398615 282.944 
L 181.583857 284.736 
L 181.746815 282.944 
L 181.929271 284.736 
L 182.095014 282.944 
L 182.276078 284.736 
L 182.443214 282.944 
L 182.621493 284.736 
L 182.785843 282.944 
L 182.969692 284.736 
L 183.138221 282.944 
L 183.319285 284.736 
L 183.478064 282.944 
L 183.666092 284.736 
L 183.822085 282.944 
L 184.012899 284.736 
L 184.175857 282.944 
L 184.362492 284.736 
L 184.525449 282.944 
L 184.709299 284.736 
L 184.875042 282.944 
L 185.05332 284.736 
L 185.220456 282.944 
L 185.404305 284.736 
L 185.568656 282.944 
L 185.744148 284.736 
L 185.92382 282.944 
L 186.089563 284.736 
L 186.270627 282.944 
L 186.443334 284.736 
L 186.624398 282.944 
L 186.791534 284.736 
L 187.141126 286.528 
L 187.324976 284.736 
L 187.487933 286.528 
L 187.67039 284.736 
L 187.83474 286.528 
L 188.025554 284.736 
L 188.189904 286.528 
L 188.365397 284.736 
L 188.536711 286.528 
L 188.719168 284.736 
L 188.891875 286.528 
L 189.071546 284.736 
L 189.41696 282.944 
L 189.59106 284.736 
L 189.76516 282.944 
L 189.936474 284.736 
L 190.114753 282.944 
L 190.291638 284.736 
L 190.462952 282.944 
L 190.631481 284.736 
L 190.816723 282.944 
L 190.986645 284.736 
L 191.166316 282.944 
L 191.339023 284.736 
L 191.510337 282.944 
L 191.684437 284.736 
L 191.85993 282.944 
L 192.032637 284.736 
L 192.213701 282.944 
L 192.38223 284.736 
L 192.561901 282.944 
L 192.729037 284.736 
L 192.912886 282.944 
L 193.082808 284.736 
L 193.262479 282.944 
L 193.4324 284.736 
L 193.612072 282.944 
L 193.777815 284.736 
L 193.956093 282.944 
L 194.127407 284.736 
L 194.3029 282.944 
L 194.481178 284.736 
L 194.646921 282.944 
L 194.827985 284.736 
L 194.995121 282.944 
L 195.180364 284.736 
L 195.340535 282.944 
L 195.529956 284.736 
L 195.681771 282.944 
L 195.878156 284.736 
L 196.039721 282.944 
L 196.22357 284.736 
L 196.385135 282.944 
L 196.570377 284.736 
L 196.741692 282.944 
L 196.913006 284.736 
L 197.082927 282.944 
L 197.262598 284.736 
L 197.436698 282.944 
L 197.608013 284.736 
L 197.786291 282.944 
L 197.949248 284.736 
L 198.126134 282.944 
L 198.307198 284.736 
L 200.392218 295.488 
L 207.095761 293.696 
L 207.477388 261.44 
L 209.201674 252.48 
L 209.363238 254.272 
L 209.744865 284.736 
L 209.905037 282.944 
L 210.077745 284.736 
L 210.246273 282.944 
L 210.423159 284.736 
L 210.598651 282.944 
L 210.77693 284.736 
L 210.945458 282.944 
L 211.122344 284.736 
L 211.28948 282.944 
L 211.469151 284.736 
L 211.636287 282.944 
L 211.824315 284.736 
L 211.981701 282.944 
L 212.172515 284.736 
L 212.336865 282.944 
L 212.51375 284.736 
L 212.686458 282.944 
L 212.866129 284.736 
L 213.029086 282.944 
L 213.211543 284.736 
L 213.370322 282.944 
L 213.555564 284.736 
L 213.719915 282.944 
L 213.903764 284.736 
L 214.065329 282.944 
L 214.249178 284.736 
L 214.4191 282.944 
L 214.604342 284.736 
L 214.764514 282.944 
L 214.953935 284.736 
L 215.107143 282.944 
L 215.295171 284.736 
L 215.452557 282.944 
L 215.636406 284.736 
L 215.800757 282.944 
L 215.985999 284.736 
L 216.144778 282.944 
L 216.331413 284.736 
L 216.502728 282.944 
L 216.686577 284.736 
L 216.846749 282.944 
L 217.030598 284.736 
L 217.189378 282.944 
L 217.37462 284.736 
L 217.537577 282.944 
L 217.718641 284.736 
L 217.885777 282.944 
L 218.068234 284.736 
L 218.236763 282.944 
L 218.410863 284.736 
L 218.589141 282.944 
L 218.768812 284.736 
L 218.928984 282.944 
L 219.114226 284.736 
L 219.279969 282.944 
L 219.456855 284.736 
L 219.636526 282.944 
L 219.805055 284.736 
L 219.990297 282.944 
L 220.153254 284.736 
L 220.338497 282.944 
L 220.50424 284.736 
L 220.693661 282.944 
L 220.855225 284.736 
L 221.040468 282.944 
L 221.196461 284.736 
L 221.385882 282.944 
L 221.546054 284.736 
L 221.725725 282.944 
L 221.90261 284.736 
L 222.071139 282.944 
L 222.256381 284.736 
L 222.416553 282.944 
L 222.605974 284.736 
L 222.759182 282.944 
L 222.961138 284.736 
L 223.105989 282.944 
L 223.307945 284.736 
L 223.455581 282.944 
L 223.653359 284.736 
L 223.812138 282.944 
L 223.991809 284.736 
L 224.161731 282.944 
L 224.337223 284.736 
L 224.504359 282.944 
L 224.682638 284.736 
L 224.849774 282.944 
L 225.026659 284.736 
L 225.193795 282.944 
L 225.373466 284.736 
L 225.540602 282.944 
L 225.723059 284.736 
L 225.89298 282.944 
L 226.078222 284.736 
L 226.24118 282.944 
L 226.429208 284.736 
L 226.58938 282.944 
L 226.771837 284.736 
L 226.941758 282.944 
L 227.117251 284.736 
L 227.289958 282.944 
L 227.461272 284.736 
L 227.636765 282.944 
L 227.808079 284.736 
L 227.978001 282.944 
L 228.159065 284.736 
L 228.331772 282.944 
L 228.508657 284.736 
L 228.671615 282.944 
L 228.856857 284.736 
L 229.018422 282.944 
L 229.207842 284.736 
L 229.369407 282.944 
L 229.557435 284.736 
L 229.719 282.944 
L 229.904242 284.736 
L 230.078342 282.944 
L 230.244085 284.736 
L 230.432113 282.944 
L 230.597856 284.736 
L 230.784491 282.944 
L 230.939092 284.736 
L 231.128513 282.944 
L 231.284506 284.736 
L 231.47532 282.944 
L 231.636884 284.736 
L 231.822127 282.944 
L 231.985084 284.736 
L 234.088211 295.488 
L 248.273872 293.696 
L 248.492541 291.904 
L 248.773887 268.608 
L 249.092838 266.816 
L 249.350505 245.312 
L 250.331036 239.936 
L 250.541349 241.728 
L 250.680629 239.936 
L 250.78091 243.52 
L 251.039971 263.232 
L 251.381207 265.024 
L 251.463382 272.192 
L 251.611019 273.984 
L 251.673695 279.36 
L 251.726621 277.568 
L 252.083178 275.776 
L 252.184852 279.36 
L 252.225243 282.944 
L 252.421628 281.152 
L 252.704366 282.944 
L 252.733615 284.736 
L 252.767042 282.944 
L 252.946713 284.736 
L 253.118027 282.944 
L 253.301877 284.736 
L 253.462049 282.944 
L 253.647291 284.736 
L 253.80607 282.944 
L 253.994098 284.736 
L 254.155663 282.944 
L 254.350655 284.736 
L 256.072155 293.696 
L 256.120903 291.904 
L 256.421747 293.696 
L 256.611168 291.904 
L 258.080571 286.528 
L 258.384202 288.32 
L 258.577801 286.528 
L 258.87586 288.32 
L 259.066673 286.528 
L 259.354983 288.32 
L 259.551367 286.528 
L 259.845248 288.32 
L 260.023526 286.528 
L 260.345263 288.32 
L 260.504042 286.528 
L 260.841099 288.32 
L 260.994307 286.528 
L 261.331365 288.32 
L 261.474823 286.528 
L 261.816059 288.32 
L 261.945589 286.528 
L 262.288218 288.32 
L 262.431676 286.528 
L 262.767341 288.32 
L 262.91637 286.528 
L 263.257606 288.32 
L 263.401064 286.528 
L 263.739515 288.32 
L 263.894115 286.528 
L 264.208888 288.32 
L 264.373238 286.528 
L 264.694975 288.32 
L 264.869075 286.528 
L 273.347044 284.736 
L 273.650674 273.984 
L 273.959876 272.192 
L 274.103334 268.608 
L 274.51421 270.4 
L 274.5741 268.608 
L 274.993333 270.4 
L 275.062973 268.608 
L 275.490562 270.4 
L 275.544881 268.608 
L 275.778872 277.568 
L 275.915366 282.944 
L 276.036539 281.152 
L 276.224567 282.944 
L 276.384739 288.32 
L 276.515662 286.528 
L 276.838792 288.32 
L 277.001749 286.528 
L 277.326272 288.32 
L 277.483658 286.528 
L 277.80818 288.32 
L 277.975316 286.528 
L 278.301231 288.32 
L 278.454439 286.528 
L 278.778961 288.32 
L 278.94749 286.528 
L 279.266441 288.32 
L 279.42522 286.528 
L 279.746957 288.32 
L 279.9127 286.528 
L 280.238615 288.32 
L 280.409929 286.528 
L 280.719131 288.32 
L 280.886267 286.528 
L 281.210789 288.32 
L 281.370961 286.528 
L 281.688519 288.32 
L 281.865404 286.528 
L 282.175999 288.32 
L 282.348706 286.528 
L 282.674621 288.32 
L 282.834793 286.528 
L 283.150958 288.32 
L 283.635652 290.112 
L 283.819502 288.32 
L 284.128703 290.112 
L 284.315338 288.32 
L 284.612005 290.112 
L 284.791676 288.32 
L 285.098091 290.112 
L 285.286119 288.32 
L 285.762457 286.528 
L 286.082801 288.32 
L 286.236008 286.528 
L 286.578637 288.32 
L 286.731845 286.528 
L 287.054974 288.32 
L 287.220718 286.528 
L 287.549418 288.32 
L 287.705412 286.528 
L 288.025756 288.32 
L 288.199855 286.528 
L 288.5007 288.32 
L 288.680371 286.528 
L 288.995144 288.32 
L 289.174815 286.528 
L 289.484016 288.32 
L 289.666473 286.528 
L 289.968711 288.32 
L 290.149774 286.528 
L 290.464547 288.32 
L 292.414466 295.488 
L 306.785369 293.696 
L 307.027716 291.904 
L 307.247778 282.944 
L 309.048668 284.736 
L 309.2938 286.528 
L 309.51247 295.488 
L 348.569347 293.696 
L 348.778267 291.904 
L 349.074933 279.36 
L 349.391099 277.568 
L 349.580519 265.024 
L 349.790832 252.48 
L 350.625119 247.104 
L 350.832646 248.896 
L 350.896715 247.104 
L 351.079171 250.688 
L 351.339625 259.648 
L 351.448263 257.856 
L 351.65579 259.648 
L 351.739358 261.44 
L 353.928839 247.104 
L 355.604376 236.352 
L 356.155925 234.56 
L 365.376256 175.424 
L 390.336611 173.632 
L 390.558066 171.84 
L 390.849162 141.376 
L 391.151399 139.584 
L 391.411852 110.912 
L 391.538597 98.368 
L 397.937117 57.152 
L 398.487273 53.568 
L 398.487273 53.568 
" clip-path="url(#p87048f67a9)" style="fill: none; stroke: #1f77b4; stroke-width: 1.5; stroke-linecap: square"/>
   </g>
   <g id="patch_3">
    <path d="M 57.6 307.584 
L 57.6 41.472 
" style="fill: none; stroke: #000000; stroke-width: 0.8; stroke-linejoin: miter; stroke-linecap: square"/>
   </g>
   <g id="patch_4">
    <path d="M 414.72 307.584 
L 414.72 41.472 
" style="fill: none; stroke: #000000; stroke-width: 0.8; stroke-linejoin: miter; stroke-linecap: square"/>
   </g>
   <g id="patch_5">
    <path d="M 57.6 307.584 
L 414.72 307.584 
" style="fill: none; stroke: #000000; stroke-width: 0.8; stroke-linejoin: miter; stroke-linecap: square"/>
   </g>
   <g id="patch_6">
    <path d="M 57.6 41.472 
L 414.72 41.472 
" style="fill: none; stroke: #000000; stroke-width: 0.8; stroke-linejoin: miter; stroke-linecap: square"/>
   </g>
   <g id="text_15">
    <!-- Queue size (y-axis) between S4 and sensors that follow at a time (x-axis). -->
    <g transform="translate(14.282813 35.472) scale(0.12 -0.12)">
     <defs>
      <path id="DejaVuSans-51" d="M 2522 4238 
Q 1834 4238 1429 3725 
Q 1025 3213 1025 2328 
Q 1025 1447 1429 934 
Q 1834 422 2522 422 
Q 3209 422 3611 934 
Q 4013 1447 4013 2328 
Q 4013 3213 3611 3725 
Q 3209 4238 2522 4238 
z
M 3406 84 
L 4238 -825 
L 3475 -825 
L 2784 -78 
Q 2681 -84 2626 -87 
Q 2572 -91 2522 -91 
Q 1538 -91 948 567 
Q 359 1225 359 2328 
Q 359 3434 948 4092 
Q 1538 4750 2522 4750 
Q 3503 4750 4090 4092 
Q 4678 3434 4678 2328 
Q 4678 1516 4351 937 
Q 4025 359 3406 84 
z
" transform="scale(0.015625)"/>
      <path id="DejaVuSans-75" d="M 544 1381 
L 544 3500 
L 1119 3500 
L 1119 1403 
Q 1119 906 1312 657 
Q 1506 409 1894 409 
Q 2359 409 2629 706 
Q 2900 1003 2900 1516 
L 2900 3500 
L 3475 3500 
L 3475 0 
L 2900 0 
L 2900 538 
Q 2691 219 2414 64 
Q 2138 -91 1772 -91 
Q 1169 -91 856 284 
Q 544 659 544 1381 
z
M 1991 3584 
L 1991 3584 
z
" transform="scale(0.015625)"/>
      <path id="DejaVuSans-20" transform="scale(0.015625)"/>
      <path id="DejaVuSans-73" d="M 2834 3397 
L 2834 2853 
Q 2591 2978 2328 3040 
Q 2066 3103 1784 3103 
Q 1356 3103 1142 2972 
Q 928 2841 928 2578 
Q 928 2378 1081 2264 
Q 1234 2150 1697 2047 
L 1894 2003 
Q 2506 1872 2764 1633 
Q 3022 1394 3022 966 
Q 3022 478 2636 193 
Q 2250 -91 1575 -91 
Q 1294 -91 989 -36 
Q 684 19 347 128 
L 347 722 
Q 666 556 975 473 
Q 1284 391 1588 391 
Q 1994 391 2212 530 
Q 2431 669 2431 922 
Q 2431 1156 2273 1281 
Q 2116 1406 1581 1522 
L 1381 1569 
Q 847 1681 609 1914 
Q 372 2147 372 2553 
Q 372 3047 722 3315 
Q 1072 3584 1716 3584 
Q 2034 3584 2315 3537 
Q 2597 3491 2834 3397 
z
" transform="scale(0.015625)"/>
      <path id="DejaVuSans-69" d="M 603 3500 
L 1178 3500 
L 1178 0 
L 603 0 
L 603 3500 
z
M 603 4863 
L 1178 4863 
L 1178 4134 
L 603 4134 
L 603 4863 
z
" transform="scale(0.015625)"/>
      <path id="DejaVuSans-7a" d="M 353 3500 
L 3084 3500 
L 3084 2975 
L 922 459 
L 3084 459 
L 3084 0 
L 275 0 
L 275 525 
L 2438 3041 
L 353 3041 
L 353 3500 
z
" transform="scale(0.015625)"/>
      <path id="DejaVuSans-28" d="M 1984 4856 
Q 1566 4138 1362 3434 
Q 1159 2731 1159 2009 
Q 1159 1288 1364 580 
Q 1569 -128 1984 -844 
L 1484 -844 
Q 1016 -109 783 600 
Q 550 1309 550 2009 
Q 550 2706 781 3412 
Q 1013 4119 1484 4856 
L 1984 4856 
z
" transform="scale(0.015625)"/>
      <path id="DejaVuSans-79" d="M 2059 -325 
Q 1816 -950 1584 -1140 
Q 1353 -1331 966 -1331 
L 506 -1331 
L 506 -850 
L 844 -850 
Q 1081 -850 1212 -737 
Q 1344 -625 1503 -206 
L 1606 56 
L 191 3500 
L 800 3500 
L 1894 763 
L 2988 3500 
L 3597 3500 
L 2059 -325 
z
" transform="scale(0.015625)"/>
      <path id="DejaVuSans-2d" d="M 313 2009 
L 1997 2009 
L 1997 1497 
L 313 1497 
L 313 2009 
z
" transform="scale(0.015625)"/>
      <path id="DejaVuSans-61" d="M 2194 1759 
Q 1497 1759 1228 1600 
Q 959 1441 959 1056 
Q 959 750 1161 570 
Q 1363 391 1709 391 
Q 2188 391 2477 730 
Q 2766 1069 2766 1631 
L 2766 1759 
L 2194 1759 
z
M 3341 1997 
L 3341 0 
L 2766 0 
L 2766 531 
Q 2569 213 2275 61 
Q 1981 -91 1556 -91 
Q 1019 -91 701 211 
Q 384 513 384 1019 
Q 384 1609 779 1909 
Q 1175 2209 1959 2209 
L 2766 2209 
L 2766 2266 
Q 2766 2663 2505 2880 
Q 2244 3097 1772 3097 
Q 1472 3097 1187 3025 
Q 903 2953 641 2809 
L 641 3341 
Q 956 3463 1253 3523 
Q 1550 3584 1831 3584 
Q 2591 3584 2966 3190 
Q 3341 2797 3341 1997 
z
" transform="scale(0.015625)"/>
      <path id="DejaVuSans-78" d="M 3513 3500 
L 2247 1797 
L 3578 0 
L 2900 0 
L 1881 1375 
L 863 0 
L 184 0 
L 1544 1831 
L 300 3500 
L 978 3500 
L 1906 2253 
L 2834 3500 
L 3513 3500 
z
" transform="scale(0.015625)"/>
      <path id="DejaVuSans-29" d="M 513 4856 
L 1013 4856 
Q 1481 4119 1714 3412 
Q 1947 2706 1947 2009 
Q 1947 1309 1714 600 
Q 1481 -109 1013 -844 
L 513 -844 
Q 928 -128 1133 580 
Q 1338 1288 1338 2009 
Q 1338 2731 1133 3434 
Q 928 4138 513 4856 
z
" transform="scale(0.015625)"/>
      <path id="DejaVuSans-62" d="M 3116 1747 
Q 3116 2381 2855 2742 
Q 2594 3103 2138 3103 
Q 1681 3103 1420 2742 
Q 1159 2381 1159 1747 
Q 1159 1113 1420 752 
Q 1681 391 2138 391 
Q 2594 391 2855 752 
Q 3116 1113 3116 1747 
z
M 1159 2969 
Q 1341 3281 1617 3432 
Q 1894 3584 2278 3584 
Q 2916 3584 3314 3078 
Q 3713 2572 3713 1747 
Q 3713 922 3314 415 
Q 2916 -91 2278 -91 
Q 1894 -91 1617 61 
Q 1341 213 1159 525 
L 1159 0 
L 581 0 
L 581 4863 
L 1159 4863 
L 1159 2969 
z
" transform="scale(0.015625)"/>
      <path id="DejaVuSans-74" d="M 1172 4494 
L 1172 3500 
L 2356 3500 
L 2356 3053 
L 1172 3053 
L 1172 1153 
Q 1172 725 1289 603 
Q 1406 481 1766 481 
L 2356 481 
L 2356 0 
L 1766 0 
Q 1100 0 847 248 
Q 594 497 594 1153 
L 594 3053 
L 172 3053 
L 172 3500 
L 594 3500 
L 594 4494 
L 1172 4494 
z
" transform="scale(0.015625)"/>
      <path id="DejaVuSans-77" d="M 269 3500 
L 844 3500 
L 1563 769 
L 2278 3500 
L 2956 3500 
L 3675 769 
L 4391 3500 
L 4966 3500 
L 4050 0 
L 3372 0 
L 2619 2869 
L 1863 0 
L 1184 0 
L 269 3500 
z
" transform="scale(0.015625)"/>
      <path id="DejaVuSans-6e" d="M 3513 2113 
L 3513 0 
L 2938 0 
L 2938 2094 
Q 2938 2591 2744 2837 
Q 2550 3084 2163 3084 
Q 1697 3084 1428 2787 
Q 1159 2491 1159 1978 
L 1159 0 
L 581 0 
L 581 3500 
L 1159 3500 
L 1159 2956 
Q 1366 3272 1645 3428 
Q 1925 3584 2291 3584 
Q 2894 3584 3203 3211 
Q 3513 2838 3513 2113 
z
" transform="scale(0.015625)"/>
      <path id="DejaVuSans-53" d="M 3425 4513 
L 3425 3897 
Q 3066 4069 2747 4153 
Q 2428 4238 2131 4238 
Q 1616 4238 1336 4038 
Q 1056 3838 1056 3469 
Q 1056 3159 1242 3001 
Q 1428 2844 1947 2747 
L 2328 2669 
Q 3034 2534 3370 2195 
Q 3706 1856 3706 1288 
Q 3706 609 3251 259 
Q 2797 -91 1919 -91 
Q 1588 -91 1214 -16 
Q 841 59 441 206 
L 441 856 
Q 825 641 1194 531 
Q 1563 422 1919 422 
Q 2459 422 2753 634 
Q 3047 847 3047 1241 
Q 3047 1584 2836 1778 
Q 2625 1972 2144 2069 
L 1759 2144 
Q 1053 2284 737 2584 
Q 422 2884 422 3419 
Q 422 4038 858 4394 
Q 1294 4750 2059 4750 
Q 2388 4750 2728 4690 
Q 3069 4631 3425 4513 
z
" transform="scale(0.015625)"/>
      <path id="DejaVuSans-64" d="M 2906 2969 
L 2906 4863 
L 3481 4863 
L 3481 0 
L 2906 0 
L 2906 525 
Q 2725 213 2448 61 
Q 2172 -91 1784 -91 
Q 1150 -91 751 415 
Q 353 922 353 1747 
Q 353 2572 751 3078 
Q 1150 3584 1784 3584 
Q 2172 3584 2448 3432 
Q 2725 3281 2906 2969 
z
M 947 1747 
Q 947 1113 1208 752 
Q 1469 391 1925 391 
Q 2381 391 2643 752 
Q 2906 1113 2906 1747 
Q 2906 2381 2643 2742 
Q 2381 3103 1925 3103 
Q 1469 3103 1208 2742 
Q 947 2381 947 1747 
z
" transform="scale(0.015625)"/>
      <path id="DejaVuSans-6f" d="M 1959 3097 
Q 1497 3097 1228 2736 
Q 959 2375 959 1747 
Q 959 1119 1226 758 
Q 1494 397 1959 397 
Q 2419 397 2687 759 
Q 2956 1122 2956 1747 
Q 2956 2369 2687 2733 
Q 2419 3097 1959 3097 
z
M 1959 3584 
Q 2709 3584 3137 3096 
Q 3566 2609 3566 1747 
Q 3566 888 3137 398 
Q 2709 -91 1959 -91 
Q 1206 -91 779 398 
Q 353 888 353 1747 
Q 353 2609 779 3096 
Q 1206 3584 1959 3584 
z
" transform="scale(0.015625)"/>
      <path id="DejaVuSans-72" d="M 2631 2963 
Q 2534 3019 2420 3045 
Q 2306 3072 2169 3072 
Q 1681 3072 1420 2755 
Q 1159 2438 1159 1844 
L 1159 0 
L 581 0 
L 581 3500 
L 1159 3500 
L 1159 2956 
Q 1341 3275 1631 3429 
Q 1922 3584 2338 3584 
Q 2397 3584 2469 3576 
Q 2541 3569 2628 3553 
L 2631 2963 
z
" transform="scale(0.015625)"/>
      <path id="DejaVuSans-68" d="M 3513 2113 
L 3513 0 
L 2938 0 
L 2938 2094 
Q 2938 2591 2744 2837 
Q 2550 3084 2163 3084 
Q 1697 3084 1428 2787 
Q 1159 2491 1159 1978 
L 1159 0 
L 581 0 
L 581 4863 
L 1159 4863 
L 1159 2956 
Q 1366 3272 1645 3428 
Q 1925 3584 2291 3584 
Q 2894 3584 3203 3211 
Q 3513 2838 3513 2113 
z
" transform="scale(0.015625)"/>
      <path id="DejaVuSans-66" d="M 2375 4863 
L 2375 4384 
L 1825 4384 
Q 1516 4384 1395 4259 
Q 1275 4134 1275 3809 
L 1275 3500 
L 2222 3500 
L 2222 3053 
L 1275 3053 
L 1275 0 
L 697 0 
L 697 3053 
L 147 3053 
L 147 3500 
L 697 3500 
L 697 3744 
Q 697 4328 969 4595 
Q 1241 4863 1831 4863 
L 2375 4863 
z
" transform="scale(0.015625)"/>
      <path id="DejaVuSans-6c" d="M 603 4863 
L 1178 4863 
L 1178 0 
L 603 0 
L 603 4863 
z
" transform="scale(0.015625)"/>
      <path id="DejaVuSans-6d" d="M 3328 2828 
Q 3544 3216 3844 3400 
Q 4144 3584 4550 3584 
Q 5097 3584 5394 3201 
Q 5691 2819 5691 2113 
L 5691 0 
L 5113 0 
L 5113 2094 
Q 5113 2597 4934 2840 
Q 4756 3084 4391 3084 
Q 3944 3084 3684 2787 
Q 3425 2491 3425 1978 
L 3425 0 
L 2847 0 
L 2847 2094 
Q 2847 2600 2669 2842 
Q 2491 3084 2119 3084 
Q 1678 3084 1418 2786 
Q 1159 2488 1159 1978 
L 1159 0 
L 581 0 
L 581 3500 
L 1159 3500 
L 1159 2956 
Q 1356 3278 1631 3431 
Q 1906 3584 2284 3584 
Q 2666 3584 2933 3390 
Q 3200 3197 3328 2828 
z
" transform="scale(0.015625)"/>
     </defs>
     <use xlink:href="#DejaVuSans-51"/>
     <use xlink:href="#DejaVuSans-75" x="78.710938"/>
     <use xlink:href="#DejaVuSans-65" x="142.089844"/>
     <use xlink:href="#DejaVuSans-75" x="203.613281"/>
     <use xlink:href="#DejaVuSans-65" x="266.992188"/>
     <use xlink:href="#DejaVuSans-20" x="328.515625"/>
     <use xlink:href="#DejaVuSans-73" x="360.302734"/>
     <use xlink:href="#DejaVuSans-69" x="412.402344"/>
     <use xlink:href="#DejaVuSans-7a" x="440.185547"/>
     <use xlink:href="#DejaVuSans-65" x="492.675781"/>
     <use xlink:href="#DejaVuSans-20" x="554.199219"/>
     <use xlink:href="#DejaVuSans-28" x="585.986328"/>
     <use xlink:href="#DejaVuSans-79" x="625"/>
     <use xlink:href="#DejaVuSans-2d" x="682.429688"/>
     <use xlink:href="#DejaVuSans-61" x="718.513672"/>
     <use xlink:href="#DejaVuSans-78" x="779.792969"/>
     <use xlink:href="#DejaVuSans-69" x="838.972656"/>
     <use xlink:href="#DejaVuSans-73" x="866.755859"/>
     <use xlink:href="#DejaVuSans-29" x="918.855469"/>
     <use xlink:href="#DejaVuSans-20" x="957.869141"/>
     <use xlink:href="#DejaVuSans-62" x="989.65625"/>
     <use xlink:href="#DejaVuSans-65" x="1053.132812"/>
     <use xlink:href="#DejaVuSans-74" x="1114.65625"/>
     <use xlink:href="#DejaVuSans-77" x="1153.865234"/>
     <use xlink:href="#DejaVuSans-65" x="1235.652344"/>
     <use xlink:href="#DejaVuSans-65" x="1297.175781"/>
     <use xlink:href="#DejaVuSans-6e" x="1358.699219"/>
     <use xlink:href="#DejaVuSans-20" x="1422.078125"/>
     <use xlink:href="#DejaVuSans-53" x="1453.865234"/>
     <use xlink:href="#DejaVuSans-34" x="1517.341797"/>
     <use xlink:href="#DejaVuSans-20" x="1580.964844"/>
     <use xlink:href="#DejaVuSans-61" x="1612.751953"/>
     <use xlink:href="#DejaVuSans-6e" x="1674.03125"/>
     <use xlink:href="#DejaVuSans-64" x="1737.410156"/>
     <use xlink:href="#DejaVuSans-20" x="1800.886719"/>
     <use xlink:href="#DejaVuSans-73" x="1832.673828"/>
     <use xlink:href="#DejaVuSans-65" x="1884.773438"/>
     <use xlink:href="#DejaVuSans-6e" x="1946.296875"/>
     <use xlink:href="#DejaVuSans-73" x="2009.675781"/>
     <use xlink:href="#DejaVuSans-6f" x="2061.775391"/>
     <use xlink:href="#DejaVuSans-72" x="2122.957031"/>
     <use xlink:href="#DejaVuSans-73" x="2164.070312"/>
     <use xlink:href="#DejaVuSans-20" x="2216.169922"/>
     <use xlink:href="#DejaVuSans-74" x="2247.957031"/>
     <use xlink:href="#DejaVuSans-68" x="2287.166016"/>
     <use xlink:href="#DejaVuSans-61" x="2350.544922"/>
     <use xlink:href="#DejaVuSans-74" x="2411.824219"/>
     <use xlink:href="#DejaVuSans-20" x="2451.033203"/>
     <use xlink:href="#DejaVuSans-66" x="2482.820312"/>
     <use xlink:href="#DejaVuSans-6f" x="2518.025391"/>
     <use xlink:href="#DejaVuSans-6c" x="2579.207031"/>
     <use xlink:href="#DejaVuSans-6c" x="2606.990234"/>
     <use xlink:href="#DejaVuSans-6f" x="2634.773438"/>
     <use xlink:href="#DejaVuSans-77" x="2695.955078"/>
     <use xlink:href="#DejaVuSans-20" x="2777.742188"/>
     <use xlink:href="#DejaVuSans-61" x="2809.529297"/>
     <use xlink:href="#DejaVuSans-74" x="2870.808594"/>
     <use xlink:href="#DejaVuSans-20" x="2910.017578"/>
     <use xlink:href="#DejaVuSans-61" x="2941.804688"/>
     <use xlink:href="#DejaVuSans-20" x="3003.083984"/>
     <use xlink:href="#DejaVuSans-74" x="3034.871094"/>
     <use xlink:href="#DejaVuSans-69" x="3074.080078"/>
     <use xlink:href="#DejaVuSans-6d" x="3101.863281"/>
     <use xlink:href="#DejaVuSans-65" x="3199.275391"/>
     <use xlink:href="#DejaVuSans-20" x="3260.798828"/>
     <use xlink:href="#DejaVuSans-28" x="3292.585938"/>
     <use xlink:href="#DejaVuSans-78" x="3331.599609"/>
     <use xlink:href="#DejaVuSans-2d" x="3390.779297"/>
     <use xlink:href="#DejaVuSans-61" x="3426.863281"/>
     <use xlink:href="#DejaVuSans-78" x="3488.142578"/>
     <use xlink:href="#DejaVuSans-69" x="3547.322266"/>
     <use xlink:href="#DejaVuSans-73" x="3575.105469"/>
     <use xlink:href="#DejaVuSans-29" x="3627.205078"/>
     <use xlink:href="#DejaVuSans-2e" x="3666.21875"/>
    </g>
   </g>
  </g>
 </g>
 <defs>
  <clipPath id="p87048f67a9">
   <rect x="57.6" y="41.472" width="357.12" height="266.112"/>
  </clipPath>
 </defs>
</svg>
