<?xml version="1.0" encoding="utf-8" standalone="no"?>
<!DOCTYPE svg PUBLIC "-//W3C//DTD SVG 1.1//EN"
  "http://www.w3.org/Graphics/SVG/1.1/DTD/svg11.dtd">
<svg xmlns:xlink="http://www.w3.org/1999/xlink" width="460.8pt" height="345.6pt" viewBox="0 0 460.8 345.6" xmlns="http://www.w3.org/2000/svg" version="1.1">
 <metadata>
  <rdf:RDF xmlns:dc="http://purl.org/dc/elements/1.1/" xmlns:cc="http://creativecommons.org/ns#" xmlns:rdf="http://www.w3.org/1999/02/22-rdf-syntax-ns#">
   <cc:Work>
    <dc:type rdf:resource="http://purl.org/dc/dcmitype/StillImage"/>
    <dc:date>2024-03-08T12:31:36.992231</dc:date>
    <dc:format>image/svg+xml</dc:format>
    <dc:creator>
     <cc:Agent>
      <dc:title>Matplotlib v3.8.2, https://matplotlib.org/</dc:title>
     </cc:Agent>
    </dc:creator>
   </cc:Work>
  </rdf:RDF>
 </metadata>
 <defs>
  <style type="text/css">*{stroke-linejoin: round; stroke-linecap: butt}</style>
 </defs>
 <g id="figure_1">
  <g id="patch_1">
   <path d="M 0 345.6 
L 460.8 345.6 
L 460.8 0 
L 0 0 
z
" style="fill: #ffffff"/>
  </g>
  <g id="axes_1">
   <g id="patch_2">
    <path d="M 57.6 307.584 
L 414.72 307.584 
L 414.72 41.472 
L 57.6 41.472 
z
" style="fill: #ffffff"/>
   </g>
   <g id="matplotlib.axis_1">
    <g id="xtick_1">
     <g id="line2d_1">
      <defs>
       <path id="mefa43422f9" d="M 0 0 
L 0 3.5 
" style="stroke: #000000; stroke-width: 0.8"/>
      </defs>
      <g>
       <use xlink:href="#mefa43422f9" x="73.832727" y="307.584" style="stroke: #000000; stroke-width: 0.8"/>
      </g>
     </g>
     <g id="text_1">
      <!-- 0.0 -->
      <g transform="translate(65.881165 322.182437) scale(0.1 -0.1)">
       <defs>
        <path id="DejaVuSans-30" d="M 2034 4250 
Q 1547 4250 1301 3770 
Q 1056 3291 1056 2328 
Q 1056 1369 1301 889 
Q 1547 409 2034 409 
Q 2525 409 2770 889 
Q 3016 1369 3016 2328 
Q 3016 3291 2770 3770 
Q 2525 4250 2034 4250 
z
M 2034 4750 
Q 2819 4750 3233 4129 
Q 3647 3509 3647 2328 
Q 3647 1150 3233 529 
Q 2819 -91 2034 -91 
Q 1250 -91 836 529 
Q 422 1150 422 2328 
Q 422 3509 836 4129 
Q 1250 4750 2034 4750 
z
" transform="scale(0.015625)"/>
        <path id="DejaVuSans-2e" d="M 684 794 
L 1344 794 
L 1344 0 
L 684 0 
L 684 794 
z
" transform="scale(0.015625)"/>
       </defs>
       <use xlink:href="#DejaVuSans-30"/>
       <use xlink:href="#DejaVuSans-2e" x="63.623047"/>
       <use xlink:href="#DejaVuSans-30" x="95.410156"/>
      </g>
     </g>
    </g>
    <g id="xtick_2">
     <g id="line2d_2">
      <g>
       <use xlink:href="#mefa43422f9" x="116.412327" y="307.584" style="stroke: #000000; stroke-width: 0.8"/>
      </g>
     </g>
     <g id="text_2">
      <!-- 0.2 -->
      <g transform="translate(108.460765 322.182437) scale(0.1 -0.1)">
       <defs>
        <path id="DejaVuSans-32" d="M 1228 531 
L 3431 531 
L 3431 0 
L 469 0 
L 469 531 
Q 828 903 1448 1529 
Q 2069 2156 2228 2338 
Q 2531 2678 2651 2914 
Q 2772 3150 2772 3378 
Q 2772 3750 2511 3984 
Q 2250 4219 1831 4219 
Q 1534 4219 1204 4116 
Q 875 4013 500 3803 
L 500 4441 
Q 881 4594 1212 4672 
Q 1544 4750 1819 4750 
Q 2544 4750 2975 4387 
Q 3406 4025 3406 3419 
Q 3406 3131 3298 2873 
Q 3191 2616 2906 2266 
Q 2828 2175 2409 1742 
Q 1991 1309 1228 531 
z
" transform="scale(0.015625)"/>
       </defs>
       <use xlink:href="#DejaVuSans-30"/>
       <use xlink:href="#DejaVuSans-2e" x="63.623047"/>
       <use xlink:href="#DejaVuSans-32" x="95.410156"/>
      </g>
     </g>
    </g>
    <g id="xtick_3">
     <g id="line2d_3">
      <g>
       <use xlink:href="#mefa43422f9" x="158.991927" y="307.584" style="stroke: #000000; stroke-width: 0.8"/>
      </g>
     </g>
     <g id="text_3">
      <!-- 0.4 -->
      <g transform="translate(151.040364 322.182437) scale(0.1 -0.1)">
       <defs>
        <path id="DejaVuSans-34" d="M 2419 4116 
L 825 1625 
L 2419 1625 
L 2419 4116 
z
M 2253 4666 
L 3047 4666 
L 3047 1625 
L 3713 1625 
L 3713 1100 
L 3047 1100 
L 3047 0 
L 2419 0 
L 2419 1100 
L 313 1100 
L 313 1709 
L 2253 4666 
z
" transform="scale(0.015625)"/>
       </defs>
       <use xlink:href="#DejaVuSans-30"/>
       <use xlink:href="#DejaVuSans-2e" x="63.623047"/>
       <use xlink:href="#DejaVuSans-34" x="95.410156"/>
      </g>
     </g>
    </g>
    <g id="xtick_4">
     <g id="line2d_4">
      <g>
       <use xlink:href="#mefa43422f9" x="201.571527" y="307.584" style="stroke: #000000; stroke-width: 0.8"/>
      </g>
     </g>
     <g id="text_4">
      <!-- 0.6 -->
      <g transform="translate(193.619964 322.182437) scale(0.1 -0.1)">
       <defs>
        <path id="DejaVuSans-36" d="M 2113 2584 
Q 1688 2584 1439 2293 
Q 1191 2003 1191 1497 
Q 1191 994 1439 701 
Q 1688 409 2113 409 
Q 2538 409 2786 701 
Q 3034 994 3034 1497 
Q 3034 2003 2786 2293 
Q 2538 2584 2113 2584 
z
M 3366 4563 
L 3366 3988 
Q 3128 4100 2886 4159 
Q 2644 4219 2406 4219 
Q 1781 4219 1451 3797 
Q 1122 3375 1075 2522 
Q 1259 2794 1537 2939 
Q 1816 3084 2150 3084 
Q 2853 3084 3261 2657 
Q 3669 2231 3669 1497 
Q 3669 778 3244 343 
Q 2819 -91 2113 -91 
Q 1303 -91 875 529 
Q 447 1150 447 2328 
Q 447 3434 972 4092 
Q 1497 4750 2381 4750 
Q 2619 4750 2861 4703 
Q 3103 4656 3366 4563 
z
" transform="scale(0.015625)"/>
       </defs>
       <use xlink:href="#DejaVuSans-30"/>
       <use xlink:href="#DejaVuSans-2e" x="63.623047"/>
       <use xlink:href="#DejaVuSans-36" x="95.410156"/>
      </g>
     </g>
    </g>
    <g id="xtick_5">
     <g id="line2d_5">
      <g>
       <use xlink:href="#mefa43422f9" x="244.151126" y="307.584" style="stroke: #000000; stroke-width: 0.8"/>
      </g>
     </g>
     <g id="text_5">
      <!-- 0.8 -->
      <g transform="translate(236.199564 322.182437) scale(0.1 -0.1)">
       <defs>
        <path id="DejaVuSans-38" d="M 2034 2216 
Q 1584 2216 1326 1975 
Q 1069 1734 1069 1313 
Q 1069 891 1326 650 
Q 1584 409 2034 409 
Q 2484 409 2743 651 
Q 3003 894 3003 1313 
Q 3003 1734 2745 1975 
Q 2488 2216 2034 2216 
z
M 1403 2484 
Q 997 2584 770 2862 
Q 544 3141 544 3541 
Q 544 4100 942 4425 
Q 1341 4750 2034 4750 
Q 2731 4750 3128 4425 
Q 3525 4100 3525 3541 
Q 3525 3141 3298 2862 
Q 3072 2584 2669 2484 
Q 3125 2378 3379 2068 
Q 3634 1759 3634 1313 
Q 3634 634 3220 271 
Q 2806 -91 2034 -91 
Q 1263 -91 848 271 
Q 434 634 434 1313 
Q 434 1759 690 2068 
Q 947 2378 1403 2484 
z
M 1172 3481 
Q 1172 3119 1398 2916 
Q 1625 2713 2034 2713 
Q 2441 2713 2670 2916 
Q 2900 3119 2900 3481 
Q 2900 3844 2670 4047 
Q 2441 4250 2034 4250 
Q 1625 4250 1398 4047 
Q 1172 3844 1172 3481 
z
" transform="scale(0.015625)"/>
       </defs>
       <use xlink:href="#DejaVuSans-30"/>
       <use xlink:href="#DejaVuSans-2e" x="63.623047"/>
       <use xlink:href="#DejaVuSans-38" x="95.410156"/>
      </g>
     </g>
    </g>
    <g id="xtick_6">
     <g id="line2d_6">
      <g>
       <use xlink:href="#mefa43422f9" x="286.730726" y="307.584" style="stroke: #000000; stroke-width: 0.8"/>
      </g>
     </g>
     <g id="text_6">
      <!-- 1.0 -->
      <g transform="translate(278.779164 322.182437) scale(0.1 -0.1)">
       <defs>
        <path id="DejaVuSans-31" d="M 794 531 
L 1825 531 
L 1825 4091 
L 703 3866 
L 703 4441 
L 1819 4666 
L 2450 4666 
L 2450 531 
L 3481 531 
L 3481 0 
L 794 0 
L 794 531 
z
" transform="scale(0.015625)"/>
       </defs>
       <use xlink:href="#DejaVuSans-31"/>
       <use xlink:href="#DejaVuSans-2e" x="63.623047"/>
       <use xlink:href="#DejaVuSans-30" x="95.410156"/>
      </g>
     </g>
    </g>
    <g id="xtick_7">
     <g id="line2d_7">
      <g>
       <use xlink:href="#mefa43422f9" x="329.310326" y="307.584" style="stroke: #000000; stroke-width: 0.8"/>
      </g>
     </g>
     <g id="text_7">
      <!-- 1.2 -->
      <g transform="translate(321.358763 322.182437) scale(0.1 -0.1)">
       <use xlink:href="#DejaVuSans-31"/>
       <use xlink:href="#DejaVuSans-2e" x="63.623047"/>
       <use xlink:href="#DejaVuSans-32" x="95.410156"/>
      </g>
     </g>
    </g>
    <g id="xtick_8">
     <g id="line2d_8">
      <g>
       <use xlink:href="#mefa43422f9" x="371.889926" y="307.584" style="stroke: #000000; stroke-width: 0.8"/>
      </g>
     </g>
     <g id="text_8">
      <!-- 1.4 -->
      <g transform="translate(363.938363 322.182437) scale(0.1 -0.1)">
       <use xlink:href="#DejaVuSans-31"/>
       <use xlink:href="#DejaVuSans-2e" x="63.623047"/>
       <use xlink:href="#DejaVuSans-34" x="95.410156"/>
      </g>
     </g>
    </g>
    <g id="xtick_9">
     <g id="line2d_9">
      <g>
       <use xlink:href="#mefa43422f9" x="414.469526" y="307.584" style="stroke: #000000; stroke-width: 0.8"/>
      </g>
     </g>
     <g id="text_9">
      <!-- 1.6 -->
      <g transform="translate(406.517963 322.182437) scale(0.1 -0.1)">
       <use xlink:href="#DejaVuSans-31"/>
       <use xlink:href="#DejaVuSans-2e" x="63.623047"/>
       <use xlink:href="#DejaVuSans-36" x="95.410156"/>
      </g>
     </g>
    </g>
    <g id="text_10">
     <!-- 1e6 -->
     <g transform="translate(395.841875 334.860562) scale(0.1 -0.1)">
      <defs>
       <path id="DejaVuSans-65" d="M 3597 1894 
L 3597 1613 
L 953 1613 
Q 991 1019 1311 708 
Q 1631 397 2203 397 
Q 2534 397 2845 478 
Q 3156 559 3463 722 
L 3463 178 
Q 3153 47 2828 -22 
Q 2503 -91 2169 -91 
Q 1331 -91 842 396 
Q 353 884 353 1716 
Q 353 2575 817 3079 
Q 1281 3584 2069 3584 
Q 2775 3584 3186 3129 
Q 3597 2675 3597 1894 
z
M 3022 2063 
Q 3016 2534 2758 2815 
Q 2500 3097 2075 3097 
Q 1594 3097 1305 2825 
Q 1016 2553 972 2059 
L 3022 2063 
z
" transform="scale(0.015625)"/>
      </defs>
      <use xlink:href="#DejaVuSans-31"/>
      <use xlink:href="#DejaVuSans-65" x="63.623047"/>
      <use xlink:href="#DejaVuSans-36" x="125.146484"/>
     </g>
    </g>
   </g>
   <g id="matplotlib.axis_2">
    <g id="ytick_1">
     <g id="line2d_10">
      <defs>
       <path id="m8553d52516" d="M 0 0 
L -3.5 0 
" style="stroke: #000000; stroke-width: 0.8"/>
      </defs>
      <g>
       <use xlink:href="#m8553d52516" x="57.6" y="295.488" style="stroke: #000000; stroke-width: 0.8"/>
      </g>
     </g>
     <g id="text_11">
      <!-- 0.0 -->
      <g transform="translate(34.696875 299.287219) scale(0.1 -0.1)">
       <use xlink:href="#DejaVuSans-30"/>
       <use xlink:href="#DejaVuSans-2e" x="63.623047"/>
       <use xlink:href="#DejaVuSans-30" x="95.410156"/>
      </g>
     </g>
    </g>
    <g id="ytick_2">
     <g id="line2d_11">
      <g>
       <use xlink:href="#m8553d52516" x="57.6" y="247.104" style="stroke: #000000; stroke-width: 0.8"/>
      </g>
     </g>
     <g id="text_12">
      <!-- 0.2 -->
      <g transform="translate(34.696875 250.903219) scale(0.1 -0.1)">
       <use xlink:href="#DejaVuSans-30"/>
       <use xlink:href="#DejaVuSans-2e" x="63.623047"/>
       <use xlink:href="#DejaVuSans-32" x="95.410156"/>
      </g>
     </g>
    </g>
    <g id="ytick_3">
     <g id="line2d_12">
      <g>
       <use xlink:href="#m8553d52516" x="57.6" y="198.72" style="stroke: #000000; stroke-width: 0.8"/>
      </g>
     </g>
     <g id="text_13">
      <!-- 0.4 -->
      <g transform="translate(34.696875 202.519219) scale(0.1 -0.1)">
       <use xlink:href="#DejaVuSans-30"/>
       <use xlink:href="#DejaVuSans-2e" x="63.623047"/>
       <use xlink:href="#DejaVuSans-34" x="95.410156"/>
      </g>
     </g>
    </g>
    <g id="ytick_4">
     <g id="line2d_13">
      <g>
       <use xlink:href="#m8553d52516" x="57.6" y="150.336" style="stroke: #000000; stroke-width: 0.8"/>
      </g>
     </g>
     <g id="text_14">
      <!-- 0.6 -->
      <g transform="translate(34.696875 154.135219) scale(0.1 -0.1)">
       <use xlink:href="#DejaVuSans-30"/>
       <use xlink:href="#DejaVuSans-2e" x="63.623047"/>
       <use xlink:href="#DejaVuSans-36" x="95.410156"/>
      </g>
     </g>
    </g>
    <g id="ytick_5">
     <g id="line2d_14">
      <g>
       <use xlink:href="#m8553d52516" x="57.6" y="101.952" style="stroke: #000000; stroke-width: 0.8"/>
      </g>
     </g>
     <g id="text_15">
      <!-- 0.8 -->
      <g transform="translate(34.696875 105.751219) scale(0.1 -0.1)">
       <use xlink:href="#DejaVuSans-30"/>
       <use xlink:href="#DejaVuSans-2e" x="63.623047"/>
       <use xlink:href="#DejaVuSans-38" x="95.410156"/>
      </g>
     </g>
    </g>
    <g id="ytick_6">
     <g id="line2d_15">
      <g>
       <use xlink:href="#m8553d52516" x="57.6" y="53.568" style="stroke: #000000; stroke-width: 0.8"/>
      </g>
     </g>
     <g id="text_16">
      <!-- 1.0 -->
      <g transform="translate(34.696875 57.367219) scale(0.1 -0.1)">
       <use xlink:href="#DejaVuSans-31"/>
       <use xlink:href="#DejaVuSans-2e" x="63.623047"/>
       <use xlink:href="#DejaVuSans-30" x="95.410156"/>
      </g>
     </g>
    </g>
   </g>
   <g id="line2d_16">
    <path d="M 73.832727 295.488 
L 116.778512 295.488 
L 116.778512 294.699987 
L 117.206437 294.699987 
L 117.206437 293.911974 
L 121.49846 293.911974 
L 121.49846 293.123961 
L 122.230829 293.123961 
L 122.230829 292.335948 
L 122.971714 292.335948 
L 122.971714 291.547935 
L 123.718986 291.547935 
L 123.718986 290.759922 
L 129.686517 290.759922 
L 129.686517 289.971909 
L 131.168287 289.971909 
L 131.168287 289.183896 
L 131.909172 289.183896 
L 131.909172 288.395883 
L 132.64367 288.395883 
L 132.64367 287.60787 
L 133.3952 287.60787 
L 133.3952 286.819857 
L 134.153117 286.819857 
L 134.153117 286.031844 
L 134.915292 286.031844 
L 134.915292 285.243831 
L 135.67108 285.243831 
L 135.67108 284.455818 
L 136.411965 284.455818 
L 136.411965 283.667805 
L 139.843881 283.667805 
L 139.843881 282.879792 
L 140.593282 282.879792 
L 140.593282 282.091779 
L 141.329909 282.091779 
L 141.329909 281.303765 
L 142.066536 281.303765 
L 142.066536 280.515752 
L 142.815937 280.515752 
L 142.815937 279.727739 
L 143.558951 279.727739 
L 143.558951 278.939726 
L 144.284933 278.939726 
L 144.284933 278.151713 
L 145.013044 278.151713 
L 145.013044 277.3637 
L 145.764574 277.3637 
L 145.764574 276.575687 
L 146.52462 276.575687 
L 146.52462 275.787674 
L 147.278279 275.787674 
L 147.278279 274.999661 
L 148.046841 274.999661 
L 148.046841 274.211648 
L 148.785597 274.211648 
L 148.785597 273.423635 
L 149.545643 273.423635 
L 149.545643 272.635622 
L 150.305688 272.635622 
L 150.305688 271.847609 
L 151.05296 271.847609 
L 151.05296 271.059596 
L 151.793845 271.059596 
L 151.793845 270.271583 
L 152.545375 270.271583 
L 152.545375 269.48357 
L 153.290518 269.48357 
L 153.290518 268.695557 
L 154.046306 268.695557 
L 154.046306 267.907544 
L 154.793578 267.907544 
L 154.793578 267.119531 
L 155.551495 267.119531 
L 155.551495 266.331518 
L 156.303025 266.331518 
L 156.303025 265.543505 
L 157.039652 265.543505 
L 157.039652 264.755492 
L 157.79544 264.755492 
L 157.79544 263.967479 
L 158.561873 263.967479 
L 158.561873 263.179466 
L 159.307016 263.179466 
L 159.307016 262.391453 
L 160.058546 262.391453 
L 160.058546 261.60344 
L 160.812205 261.60344 
L 160.812205 260.815427 
L 161.559477 260.815427 
L 161.559477 260.027414 
L 162.293975 260.027414 
L 162.293975 259.239401 
L 163.036989 259.239401 
L 163.036989 258.451388 
L 163.7651 258.451388 
L 163.7651 257.663375 
L 164.505985 257.663375 
L 164.505985 256.875362 
L 165.257515 256.875362 
L 165.257515 256.087349 
L 165.983497 256.087349 
L 165.983497 255.299336 
L 166.70735 255.299336 
L 166.70735 254.511322 
L 167.456751 254.511322 
L 167.456751 253.723309 
L 168.193378 253.723309 
L 168.193378 252.935296 
L 168.938521 252.935296 
L 168.938521 252.147283 
L 169.67089 252.147283 
L 169.67089 251.35927 
L 170.401131 251.35927 
L 170.401131 250.571257 
L 198.614373 250.571257 
L 198.614373 249.783244 
L 199.363774 249.783244 
L 199.363774 248.995231 
L 200.098272 248.995231 
L 200.098272 248.207218 
L 200.837029 248.207218 
L 200.837029 247.419205 
L 201.580043 247.419205 
L 201.580043 246.631192 
L 202.329443 246.631192 
L 202.329443 245.843179 
L 203.08736 245.843179 
L 203.08736 245.055166 
L 203.809085 245.055166 
L 203.809085 244.267153 
L 204.560615 244.267153 
L 204.560615 243.47914 
L 205.299371 243.47914 
L 205.299371 242.691127 
L 206.038127 242.691127 
L 206.038127 241.903114 
L 206.772625 241.903114 
L 206.772625 241.115101 
L 207.522026 241.115101 
L 207.522026 240.327088 
L 208.258653 240.327088 
L 208.258653 239.539075 
L 209.014441 239.539075 
L 209.014441 238.751062 
L 209.761713 238.751062 
L 209.761713 237.963049 
L 210.506856 237.963049 
L 210.506856 237.175036 
L 211.262644 237.175036 
L 211.262644 236.387023 
L 212.003529 236.387023 
L 212.003529 235.59901 
L 213.172339 235.59901 
L 213.172339 234.810997 
L 213.48317 234.810997 
L 213.48317 234.022984 
L 213.906837 234.022984 
L 213.906837 233.234971 
L 214.654109 233.234971 
L 214.654109 232.446958 
L 215.412026 232.446958 
L 215.412026 231.658945 
L 226.071828 231.658945 
L 226.071828 230.870932 
L 226.48485 230.870932 
L 226.48485 230.082919 
L 226.904259 230.082919 
L 226.904259 229.294906 
L 227.323669 229.294906 
L 227.323669 228.506893 
L 227.740949 228.506893 
L 227.740949 227.718879 
L 228.164616 227.718879 
L 228.164616 226.930866 
L 228.588283 226.930866 
L 228.588283 226.142853 
L 229.009821 226.142853 
L 229.009821 225.35484 
L 229.431359 225.35484 
L 229.431359 224.566827 
L 229.857155 224.566827 
L 229.857155 223.778814 
L 230.291467 223.778814 
L 230.291467 222.990801 
L 230.719392 222.990801 
L 230.719392 222.202788 
L 242.205239 222.202788 
L 242.205239 221.414775 
L 242.943995 221.414775 
L 242.943995 220.626762 
L 243.693396 220.626762 
L 243.693396 219.838749 
L 244.425765 219.838749 
L 244.425765 219.050736 
L 245.164521 219.050736 
L 245.164521 218.262723 
L 245.901148 218.262723 
L 245.901148 217.47471 
L 246.652678 217.47471 
L 246.652678 216.686697 
L 247.395692 216.686697 
L 247.395692 215.898684 
L 248.13019 215.898684 
L 248.13019 215.110671 
L 248.875333 215.110671 
L 248.875333 214.322658 
L 249.628992 214.322658 
L 249.628992 213.534645 
L 250.378393 213.534645 
L 250.378393 212.746632 
L 251.134181 212.746632 
L 251.134181 211.958619 
L 251.875066 211.958619 
L 251.875066 211.170606 
L 252.626596 211.170606 
L 252.626596 210.382593 
L 253.375997 210.382593 
L 253.375997 209.59458 
L 254.112624 209.59458 
L 254.112624 208.806567 
L 254.855638 208.806567 
L 254.855638 208.018554 
L 255.611426 208.018554 
L 255.611426 207.230541 
L 256.356569 207.230541 
L 256.356569 206.442528 
L 257.10597 206.442528 
L 257.10597 205.654515 
L 257.851113 205.654515 
L 257.851113 204.866502 
L 258.613287 204.866502 
L 258.613287 204.078489 
L 259.356301 204.078489 
L 259.356301 203.290476 
L 260.101444 203.290476 
L 260.101444 202.502463 
L 260.829556 202.502463 
L 260.829556 201.71445 
L 261.564054 201.71445 
L 261.564054 200.926436 
L 262.315584 200.926436 
L 262.315584 200.138423 
L 263.818644 200.138423 
L 263.818644 199.35041 
L 264.565916 199.35041 
L 264.565916 198.562397 
L 265.304672 198.562397 
L 265.304672 197.774384 
L 266.062588 197.774384 
L 266.062588 196.986371 
L 266.820505 196.986371 
L 266.820505 196.198358 
L 267.580551 196.198358 
L 267.580551 195.410345 
L 268.342726 195.410345 
L 268.342726 194.622332 
L 269.070837 194.622332 
L 269.070837 193.834319 
L 270.556865 193.834319 
L 270.556865 193.046306 
L 271.299879 193.046306 
L 271.299879 192.258293 
L 272.038635 192.258293 
L 272.038635 191.47028 
L 272.771004 191.47028 
L 272.771004 190.682267 
L 273.526792 190.682267 
L 273.526792 189.894254 
L 274.276193 189.894254 
L 274.276193 189.106241 
L 275.014949 189.106241 
L 275.014949 188.318228 
L 275.766479 188.318228 
L 275.766479 187.530215 
L 276.509493 187.530215 
L 276.509493 186.742202 
L 277.261023 186.742202 
L 277.261023 185.954189 
L 277.999779 185.954189 
L 277.999779 185.166176 
L 278.751309 185.166176 
L 278.751309 184.378163 
L 295.849147 184.378163 
L 295.849147 183.59015 
L 296.59429 183.59015 
L 296.59429 182.802137 
L 297.335175 182.802137 
L 297.335175 182.014124 
L 297.918516 182.014124 
L 297.918516 181.226111 
L 298.086705 181.226111 
L 298.086705 180.438098 
L 298.346441 180.438098 
L 298.346441 179.650085 
L 298.770108 179.650085 
L 298.821204 178.074059 
L 299.198033 178.074059 
L 299.198033 177.286046 
L 299.566347 177.286046 
L 299.625958 175.71002 
L 300.058141 175.71002 
L 300.058141 174.922007 
L 300.294458 174.922007 
L 300.294458 174.133993 
L 300.492453 174.133993 
L 300.492453 173.34598 
L 300.91612 173.34598 
L 300.91612 172.557967 
L 301.335529 172.557967 
L 301.335529 171.769954 
L 301.757067 171.769954 
L 301.757067 170.981941 
L 302.184992 170.981941 
L 302.184992 170.193928 
L 302.608659 170.193928 
L 302.608659 169.405915 
L 303.032326 169.405915 
L 303.032326 168.617902 
L 303.455993 168.617902 
L 303.455993 167.829889 
L 303.87966 167.829889 
L 303.87966 167.041876 
L 304.299069 167.041876 
L 304.299069 166.253863 
L 304.722736 166.253863 
L 304.722736 165.46585 
L 305.137887 165.46585 
L 305.137887 164.677837 
L 305.565812 164.677837 
L 305.565812 163.889824 
L 305.993737 163.889824 
L 305.993737 163.101811 
L 306.417404 163.101811 
L 306.417404 162.313798 
L 306.849587 162.313798 
L 306.849587 161.525785 
L 307.264738 161.525785 
L 307.264738 160.737772 
L 307.679889 160.737772 
L 307.679889 159.949759 
L 308.11633 159.949759 
L 308.11633 159.161746 
L 308.535739 159.161746 
L 308.535739 158.373733 
L 308.955148 158.373733 
L 308.955148 157.58572 
L 309.385202 157.58572 
L 309.385202 156.797707 
L 309.813127 156.797707 
L 309.813127 156.009694 
L 310.228278 156.009694 
L 310.228278 155.221681 
L 310.664719 155.221681 
L 310.664719 154.433668 
L 311.094773 154.433668 
L 311.094773 153.645655 
L 311.51844 153.645655 
L 311.51844 152.857642 
L 311.946365 152.857642 
L 311.946365 152.069629 
L 312.376419 152.069629 
L 312.376419 151.281616 
L 312.793699 151.281616 
L 312.793699 150.493603 
L 313.225882 150.493603 
L 313.225882 149.70559 
L 313.660194 149.70559 
L 313.660194 148.917577 
L 314.081732 148.917577 
L 314.081732 148.129564 
L 314.511786 148.129564 
L 314.511786 147.34155 
L 314.946098 147.34155 
L 314.946098 146.553537 
L 315.376152 146.553537 
L 315.376152 145.765524 
L 315.793432 145.765524 
L 315.793432 144.977511 
L 316.210712 144.977511 
L 316.210712 144.189498 
L 316.636508 144.189498 
L 316.636508 143.401485 
L 317.068691 143.401485 
L 317.068691 142.613472 
L 317.451907 142.613472 
L 317.496616 141.037446 
L 317.637129 141.037446 
L 317.637129 140.249433 
L 317.916025 140.249433 
L 317.916025 139.46142 
L 318.169374 139.46142 
L 318.205566 137.885394 
L 318.335434 137.885394 
L 318.335434 137.097381 
L 318.765488 137.097381 
L 318.765488 136.309368 
L 318.952838 136.309368 
L 318.952838 135.521355 
L 319.189155 135.521355 
L 319.189155 134.733342 
L 319.61708 134.733342 
L 319.697981 133.157316 
L 320.047134 133.157316 
L 320.047134 132.369303 
L 320.449511 132.369303 
L 320.470801 130.793277 
L 320.896597 130.793277 
L 320.896597 130.005264 
L 321.205299 130.005264 
L 321.205299 129.217251 
L 321.326651 129.217251 
L 321.326651 128.429238 
L 321.754576 128.429238 
L 321.754576 127.641225 
L 321.944055 127.641225 
L 321.944055 126.853212 
L 322.173985 126.853212 
L 322.173985 126.065199 
L 322.604039 126.065199 
L 322.68494 124.489173 
L 323.025577 124.489173 
L 323.025577 123.70116 
L 323.427954 123.70116 
L 323.444986 122.125134 
L 323.870782 122.125134 
L 323.870782 121.337121 
L 324.183742 121.337121 
L 324.294449 119.761094 
L 324.722374 119.761094 
L 324.722374 118.973081 
L 324.926756 118.973081 
L 324.926756 118.185068 
L 325.152428 118.185068 
L 325.152428 117.397055 
L 325.578224 117.397055 
L 325.667641 115.821029 
L 325.999762 115.821029 
L 325.999762 115.033016 
L 326.412784 115.033016 
L 326.423429 113.45699 
L 326.853483 113.45699 
L 326.853483 112.668977 
L 327.279279 112.668977 
L 327.279279 111.880964 
L 327.713591 111.880964 
L 327.713591 111.092951 
L 328.143645 111.092951 
L 328.143645 110.304938 
L 328.569441 110.304938 
L 328.569441 109.516925 
L 328.995237 109.516925 
L 328.995237 108.728912 
L 329.42742 108.728912 
L 329.42742 107.940899 
L 329.846829 107.940899 
L 329.846829 107.152886 
L 330.276883 107.152886 
L 330.276883 106.364873 
L 330.423782 106.364873 
L 330.423782 105.57686 
L 330.709066 105.57686 
L 330.709066 104.788847 
L 330.953898 104.788847 
L 330.953898 104.000834 
L 331.134862 104.000834 
L 331.134862 103.212821 
L 331.494659 103.212821 
L 331.564916 101.636795 
L 332.001357 101.636795 
L 332.03542 100.060769 
L 332.420766 100.060769 
L 332.420766 99.272756 
L 332.559149 99.272756 
L 332.559149 98.484743 
L 332.848691 98.484743 
L 332.848691 97.69673 
L 333.08075 97.69673 
L 333.08075 96.908717 
L 333.283003 96.908717 
L 333.283003 96.120704 
L 333.619381 96.120704 
L 333.715186 94.544678 
L 334.134595 94.544678 
L 334.14524 92.968651 
L 334.571035 92.968651 
L 334.571035 92.180638 
L 334.683871 92.180638 
L 334.683871 91.392625 
L 334.99896 91.392625 
L 334.99896 90.604612 
L 335.205472 90.604612 
L 335.205472 89.816599 
L 335.426885 89.816599 
L 335.426885 89.028586 
L 335.737717 89.028586 
L 335.846295 87.45256 
L 336.280606 87.45256 
L 336.282735 85.876534 
L 336.712789 85.876534 
L 336.808593 84.300508 
L 337.138585 84.300508 
L 337.138585 83.512495 
L 337.338709 83.512495 
L 337.338709 82.724482 
L 337.562252 82.724482 
L 337.562252 81.936469 
L 337.877341 81.936469 
L 337.981661 80.360443 
L 338.415973 80.360443 
L 338.418102 78.784417 
L 338.852414 78.784417 
L 338.852414 77.996404 
L 339.288855 77.996404 
L 339.288855 77.208391 
L 339.718909 77.208391 
L 339.718909 76.420378 
L 340.142576 76.420378 
L 340.142576 75.632365 
L 340.564114 75.632365 
L 340.564114 74.844352 
L 340.985652 74.844352 
L 340.985652 74.056339 
L 341.415706 74.056339 
L 341.415706 73.268326 
L 341.847889 73.268326 
L 341.847889 72.480313 
L 342.280072 72.480313 
L 342.280072 71.6923 
L 342.710126 71.6923 
L 342.710126 70.904287 
L 343.14018 70.904287 
L 343.14018 70.116274 
L 343.559589 70.116274 
L 343.559589 69.328261 
L 343.985385 69.328261 
L 343.985385 68.540248 
L 344.411181 68.540248 
L 344.411181 67.752235 
L 344.836977 67.752235 
L 344.836977 66.964221 
L 345.267031 66.964221 
L 345.267031 66.176208 
L 345.68644 66.176208 
L 345.68644 65.388195 
L 346.10372 65.388195 
L 346.10372 64.600182 
L 346.538032 64.600182 
L 346.538032 63.812169 
L 346.961699 63.812169 
L 346.961699 63.024156 
L 347.381108 63.024156 
L 347.381108 62.236143 
L 347.809033 62.236143 
L 347.809033 61.44813 
L 348.243345 61.44813 
L 348.243345 60.660117 
L 348.664883 60.660117 
L 348.664883 59.872104 
L 349.08855 59.872104 
L 349.08855 59.084091 
L 395.289545 59.084091 
L 395.289545 58.296078 
L 395.832435 58.296078 
L 395.832435 57.508065 
L 396.366809 57.508065 
L 396.366809 56.720052 
L 396.911828 56.720052 
L 396.911828 55.932039 
L 397.437686 55.932039 
L 397.437686 55.144026 
L 397.961415 55.144026 
L 397.961415 54.356013 
L 398.487273 54.356013 
L 398.487273 53.568 
L 398.487273 53.568 
" clip-path="url(#pc703078cf5)" style="fill: none; stroke: #1f77b4; stroke-width: 1.5; stroke-linecap: square"/>
   </g>
   <g id="patch_3">
    <path d="M 57.6 307.584 
L 57.6 41.472 
" style="fill: none; stroke: #000000; stroke-width: 0.8; stroke-linejoin: miter; stroke-linecap: square"/>
   </g>
   <g id="patch_4">
    <path d="M 414.72 307.584 
L 414.72 41.472 
" style="fill: none; stroke: #000000; stroke-width: 0.8; stroke-linejoin: miter; stroke-linecap: square"/>
   </g>
   <g id="patch_5">
    <path d="M 57.6 307.584 
L 414.72 307.584 
" style="fill: none; stroke: #000000; stroke-width: 0.8; stroke-linejoin: miter; stroke-linecap: square"/>
   </g>
   <g id="patch_6">
    <path d="M 57.6 41.472 
L 414.72 41.472 
" style="fill: none; stroke: #000000; stroke-width: 0.8; stroke-linejoin: miter; stroke-linecap: square"/>
   </g>
   <g id="text_17">
    <!-- Execution time between S1 S15 (xx1xx2xx0yyy45xx0yyy45xx0yyy3xx1xx0yyy45xx0yyy45xx0yyy45) -->
    <g transform="translate(-70.264688 35.472) scale(0.12 -0.12)">
     <defs>
      <path id="DejaVuSans-45" d="M 628 4666 
L 3578 4666 
L 3578 4134 
L 1259 4134 
L 1259 2753 
L 3481 2753 
L 3481 2222 
L 1259 2222 
L 1259 531 
L 3634 531 
L 3634 0 
L 628 0 
L 628 4666 
z
" transform="scale(0.015625)"/>
      <path id="DejaVuSans-78" d="M 3513 3500 
L 2247 1797 
L 3578 0 
L 2900 0 
L 1881 1375 
L 863 0 
L 184 0 
L 1544 1831 
L 300 3500 
L 978 3500 
L 1906 2253 
L 2834 3500 
L 3513 3500 
z
" transform="scale(0.015625)"/>
      <path id="DejaVuSans-63" d="M 3122 3366 
L 3122 2828 
Q 2878 2963 2633 3030 
Q 2388 3097 2138 3097 
Q 1578 3097 1268 2742 
Q 959 2388 959 1747 
Q 959 1106 1268 751 
Q 1578 397 2138 397 
Q 2388 397 2633 464 
Q 2878 531 3122 666 
L 3122 134 
Q 2881 22 2623 -34 
Q 2366 -91 2075 -91 
Q 1284 -91 818 406 
Q 353 903 353 1747 
Q 353 2603 823 3093 
Q 1294 3584 2113 3584 
Q 2378 3584 2631 3529 
Q 2884 3475 3122 3366 
z
" transform="scale(0.015625)"/>
      <path id="DejaVuSans-75" d="M 544 1381 
L 544 3500 
L 1119 3500 
L 1119 1403 
Q 1119 906 1312 657 
Q 1506 409 1894 409 
Q 2359 409 2629 706 
Q 2900 1003 2900 1516 
L 2900 3500 
L 3475 3500 
L 3475 0 
L 2900 0 
L 2900 538 
Q 2691 219 2414 64 
Q 2138 -91 1772 -91 
Q 1169 -91 856 284 
Q 544 659 544 1381 
z
M 1991 3584 
L 1991 3584 
z
" transform="scale(0.015625)"/>
      <path id="DejaVuSans-74" d="M 1172 4494 
L 1172 3500 
L 2356 3500 
L 2356 3053 
L 1172 3053 
L 1172 1153 
Q 1172 725 1289 603 
Q 1406 481 1766 481 
L 2356 481 
L 2356 0 
L 1766 0 
Q 1100 0 847 248 
Q 594 497 594 1153 
L 594 3053 
L 172 3053 
L 172 3500 
L 594 3500 
L 594 4494 
L 1172 4494 
z
" transform="scale(0.015625)"/>
      <path id="DejaVuSans-69" d="M 603 3500 
L 1178 3500 
L 1178 0 
L 603 0 
L 603 3500 
z
M 603 4863 
L 1178 4863 
L 1178 4134 
L 603 4134 
L 603 4863 
z
" transform="scale(0.015625)"/>
      <path id="DejaVuSans-6f" d="M 1959 3097 
Q 1497 3097 1228 2736 
Q 959 2375 959 1747 
Q 959 1119 1226 758 
Q 1494 397 1959 397 
Q 2419 397 2687 759 
Q 2956 1122 2956 1747 
Q 2956 2369 2687 2733 
Q 2419 3097 1959 3097 
z
M 1959 3584 
Q 2709 3584 3137 3096 
Q 3566 2609 3566 1747 
Q 3566 888 3137 398 
Q 2709 -91 1959 -91 
Q 1206 -91 779 398 
Q 353 888 353 1747 
Q 353 2609 779 3096 
Q 1206 3584 1959 3584 
z
" transform="scale(0.015625)"/>
      <path id="DejaVuSans-6e" d="M 3513 2113 
L 3513 0 
L 2938 0 
L 2938 2094 
Q 2938 2591 2744 2837 
Q 2550 3084 2163 3084 
Q 1697 3084 1428 2787 
Q 1159 2491 1159 1978 
L 1159 0 
L 581 0 
L 581 3500 
L 1159 3500 
L 1159 2956 
Q 1366 3272 1645 3428 
Q 1925 3584 2291 3584 
Q 2894 3584 3203 3211 
Q 3513 2838 3513 2113 
z
" transform="scale(0.015625)"/>
      <path id="DejaVuSans-20" transform="scale(0.015625)"/>
      <path id="DejaVuSans-6d" d="M 3328 2828 
Q 3544 3216 3844 3400 
Q 4144 3584 4550 3584 
Q 5097 3584 5394 3201 
Q 5691 2819 5691 2113 
L 5691 0 
L 5113 0 
L 5113 2094 
Q 5113 2597 4934 2840 
Q 4756 3084 4391 3084 
Q 3944 3084 3684 2787 
Q 3425 2491 3425 1978 
L 3425 0 
L 2847 0 
L 2847 2094 
Q 2847 2600 2669 2842 
Q 2491 3084 2119 3084 
Q 1678 3084 1418 2786 
Q 1159 2488 1159 1978 
L 1159 0 
L 581 0 
L 581 3500 
L 1159 3500 
L 1159 2956 
Q 1356 3278 1631 3431 
Q 1906 3584 2284 3584 
Q 2666 3584 2933 3390 
Q 3200 3197 3328 2828 
z
" transform="scale(0.015625)"/>
      <path id="DejaVuSans-62" d="M 3116 1747 
Q 3116 2381 2855 2742 
Q 2594 3103 2138 3103 
Q 1681 3103 1420 2742 
Q 1159 2381 1159 1747 
Q 1159 1113 1420 752 
Q 1681 391 2138 391 
Q 2594 391 2855 752 
Q 3116 1113 3116 1747 
z
M 1159 2969 
Q 1341 3281 1617 3432 
Q 1894 3584 2278 3584 
Q 2916 3584 3314 3078 
Q 3713 2572 3713 1747 
Q 3713 922 3314 415 
Q 2916 -91 2278 -91 
Q 1894 -91 1617 61 
Q 1341 213 1159 525 
L 1159 0 
L 581 0 
L 581 4863 
L 1159 4863 
L 1159 2969 
z
" transform="scale(0.015625)"/>
      <path id="DejaVuSans-77" d="M 269 3500 
L 844 3500 
L 1563 769 
L 2278 3500 
L 2956 3500 
L 3675 769 
L 4391 3500 
L 4966 3500 
L 4050 0 
L 3372 0 
L 2619 2869 
L 1863 0 
L 1184 0 
L 269 3500 
z
" transform="scale(0.015625)"/>
      <path id="DejaVuSans-53" d="M 3425 4513 
L 3425 3897 
Q 3066 4069 2747 4153 
Q 2428 4238 2131 4238 
Q 1616 4238 1336 4038 
Q 1056 3838 1056 3469 
Q 1056 3159 1242 3001 
Q 1428 2844 1947 2747 
L 2328 2669 
Q 3034 2534 3370 2195 
Q 3706 1856 3706 1288 
Q 3706 609 3251 259 
Q 2797 -91 1919 -91 
Q 1588 -91 1214 -16 
Q 841 59 441 206 
L 441 856 
Q 825 641 1194 531 
Q 1563 422 1919 422 
Q 2459 422 2753 634 
Q 3047 847 3047 1241 
Q 3047 1584 2836 1778 
Q 2625 1972 2144 2069 
L 1759 2144 
Q 1053 2284 737 2584 
Q 422 2884 422 3419 
Q 422 4038 858 4394 
Q 1294 4750 2059 4750 
Q 2388 4750 2728 4690 
Q 3069 4631 3425 4513 
z
" transform="scale(0.015625)"/>
      <path id="DejaVuSans-35" d="M 691 4666 
L 3169 4666 
L 3169 4134 
L 1269 4134 
L 1269 2991 
Q 1406 3038 1543 3061 
Q 1681 3084 1819 3084 
Q 2600 3084 3056 2656 
Q 3513 2228 3513 1497 
Q 3513 744 3044 326 
Q 2575 -91 1722 -91 
Q 1428 -91 1123 -41 
Q 819 9 494 109 
L 494 744 
Q 775 591 1075 516 
Q 1375 441 1709 441 
Q 2250 441 2565 725 
Q 2881 1009 2881 1497 
Q 2881 1984 2565 2268 
Q 2250 2553 1709 2553 
Q 1456 2553 1204 2497 
Q 953 2441 691 2322 
L 691 4666 
z
" transform="scale(0.015625)"/>
      <path id="DejaVuSans-28" d="M 1984 4856 
Q 1566 4138 1362 3434 
Q 1159 2731 1159 2009 
Q 1159 1288 1364 580 
Q 1569 -128 1984 -844 
L 1484 -844 
Q 1016 -109 783 600 
Q 550 1309 550 2009 
Q 550 2706 781 3412 
Q 1013 4119 1484 4856 
L 1984 4856 
z
" transform="scale(0.015625)"/>
      <path id="DejaVuSans-79" d="M 2059 -325 
Q 1816 -950 1584 -1140 
Q 1353 -1331 966 -1331 
L 506 -1331 
L 506 -850 
L 844 -850 
Q 1081 -850 1212 -737 
Q 1344 -625 1503 -206 
L 1606 56 
L 191 3500 
L 800 3500 
L 1894 763 
L 2988 3500 
L 3597 3500 
L 2059 -325 
z
" transform="scale(0.015625)"/>
      <path id="DejaVuSans-33" d="M 2597 2516 
Q 3050 2419 3304 2112 
Q 3559 1806 3559 1356 
Q 3559 666 3084 287 
Q 2609 -91 1734 -91 
Q 1441 -91 1130 -33 
Q 819 25 488 141 
L 488 750 
Q 750 597 1062 519 
Q 1375 441 1716 441 
Q 2309 441 2620 675 
Q 2931 909 2931 1356 
Q 2931 1769 2642 2001 
Q 2353 2234 1838 2234 
L 1294 2234 
L 1294 2753 
L 1863 2753 
Q 2328 2753 2575 2939 
Q 2822 3125 2822 3475 
Q 2822 3834 2567 4026 
Q 2313 4219 1838 4219 
Q 1578 4219 1281 4162 
Q 984 4106 628 3988 
L 628 4550 
Q 988 4650 1302 4700 
Q 1616 4750 1894 4750 
Q 2613 4750 3031 4423 
Q 3450 4097 3450 3541 
Q 3450 3153 3228 2886 
Q 3006 2619 2597 2516 
z
" transform="scale(0.015625)"/>
      <path id="DejaVuSans-29" d="M 513 4856 
L 1013 4856 
Q 1481 4119 1714 3412 
Q 1947 2706 1947 2009 
Q 1947 1309 1714 600 
Q 1481 -109 1013 -844 
L 513 -844 
Q 928 -128 1133 580 
Q 1338 1288 1338 2009 
Q 1338 2731 1133 3434 
Q 928 4138 513 4856 
z
" transform="scale(0.015625)"/>
     </defs>
     <use xlink:href="#DejaVuSans-45"/>
     <use xlink:href="#DejaVuSans-78" x="63.183594"/>
     <use xlink:href="#DejaVuSans-65" x="119.238281"/>
     <use xlink:href="#DejaVuSans-63" x="180.761719"/>
     <use xlink:href="#DejaVuSans-75" x="235.742188"/>
     <use xlink:href="#DejaVuSans-74" x="299.121094"/>
     <use xlink:href="#DejaVuSans-69" x="338.330078"/>
     <use xlink:href="#DejaVuSans-6f" x="366.113281"/>
     <use xlink:href="#DejaVuSans-6e" x="427.294922"/>
     <use xlink:href="#DejaVuSans-20" x="490.673828"/>
     <use xlink:href="#DejaVuSans-74" x="522.460938"/>
     <use xlink:href="#DejaVuSans-69" x="561.669922"/>
     <use xlink:href="#DejaVuSans-6d" x="589.453125"/>
     <use xlink:href="#DejaVuSans-65" x="686.865234"/>
     <use xlink:href="#DejaVuSans-20" x="748.388672"/>
     <use xlink:href="#DejaVuSans-62" x="780.175781"/>
     <use xlink:href="#DejaVuSans-65" x="843.652344"/>
     <use xlink:href="#DejaVuSans-74" x="905.175781"/>
     <use xlink:href="#DejaVuSans-77" x="944.384766"/>
     <use xlink:href="#DejaVuSans-65" x="1026.171875"/>
     <use xlink:href="#DejaVuSans-65" x="1087.695312"/>
     <use xlink:href="#DejaVuSans-6e" x="1149.21875"/>
     <use xlink:href="#DejaVuSans-20" x="1212.597656"/>
     <use xlink:href="#DejaVuSans-53" x="1244.384766"/>
     <use xlink:href="#DejaVuSans-31" x="1307.861328"/>
     <use xlink:href="#DejaVuSans-20" x="1371.484375"/>
     <use xlink:href="#DejaVuSans-53" x="1403.271484"/>
     <use xlink:href="#DejaVuSans-31" x="1466.748047"/>
     <use xlink:href="#DejaVuSans-35" x="1530.371094"/>
     <use xlink:href="#DejaVuSans-20" x="1593.994141"/>
     <use xlink:href="#DejaVuSans-28" x="1625.78125"/>
     <use xlink:href="#DejaVuSans-78" x="1664.794922"/>
     <use xlink:href="#DejaVuSans-78" x="1723.974609"/>
     <use xlink:href="#DejaVuSans-31" x="1783.154297"/>
     <use xlink:href="#DejaVuSans-78" x="1846.777344"/>
     <use xlink:href="#DejaVuSans-78" x="1905.957031"/>
     <use xlink:href="#DejaVuSans-32" x="1965.136719"/>
     <use xlink:href="#DejaVuSans-78" x="2028.759766"/>
     <use xlink:href="#DejaVuSans-78" x="2087.939453"/>
     <use xlink:href="#DejaVuSans-30" x="2147.119141"/>
     <use xlink:href="#DejaVuSans-79" x="2210.742188"/>
     <use xlink:href="#DejaVuSans-79" x="2269.921875"/>
     <use xlink:href="#DejaVuSans-79" x="2329.101562"/>
     <use xlink:href="#DejaVuSans-34" x="2388.28125"/>
     <use xlink:href="#DejaVuSans-35" x="2451.904297"/>
     <use xlink:href="#DejaVuSans-78" x="2515.527344"/>
     <use xlink:href="#DejaVuSans-78" x="2574.707031"/>
     <use xlink:href="#DejaVuSans-30" x="2633.886719"/>
     <use xlink:href="#DejaVuSans-79" x="2697.509766"/>
     <use xlink:href="#DejaVuSans-79" x="2756.689453"/>
     <use xlink:href="#DejaVuSans-79" x="2815.869141"/>
     <use xlink:href="#DejaVuSans-34" x="2875.048828"/>
     <use xlink:href="#DejaVuSans-35" x="2938.671875"/>
     <use xlink:href="#DejaVuSans-78" x="3002.294922"/>
     <use xlink:href="#DejaVuSans-78" x="3061.474609"/>
     <use xlink:href="#DejaVuSans-30" x="3120.654297"/>
     <use xlink:href="#DejaVuSans-79" x="3184.277344"/>
     <use xlink:href="#DejaVuSans-79" x="3243.457031"/>
     <use xlink:href="#DejaVuSans-79" x="3302.636719"/>
     <use xlink:href="#DejaVuSans-33" x="3361.816406"/>
     <use xlink:href="#DejaVuSans-78" x="3425.439453"/>
     <use xlink:href="#DejaVuSans-78" x="3484.619141"/>
     <use xlink:href="#DejaVuSans-31" x="3543.798828"/>
     <use xlink:href="#DejaVuSans-78" x="3607.421875"/>
     <use xlink:href="#DejaVuSans-78" x="3666.601562"/>
     <use xlink:href="#DejaVuSans-30" x="3725.78125"/>
     <use xlink:href="#DejaVuSans-79" x="3789.404297"/>
     <use xlink:href="#DejaVuSans-79" x="3848.583984"/>
     <use xlink:href="#DejaVuSans-79" x="3907.763672"/>
     <use xlink:href="#DejaVuSans-34" x="3966.943359"/>
     <use xlink:href="#DejaVuSans-35" x="4030.566406"/>
     <use xlink:href="#DejaVuSans-78" x="4094.189453"/>
     <use xlink:href="#DejaVuSans-78" x="4153.369141"/>
     <use xlink:href="#DejaVuSans-30" x="4212.548828"/>
     <use xlink:href="#DejaVuSans-79" x="4276.171875"/>
     <use xlink:href="#DejaVuSans-79" x="4335.351562"/>
     <use xlink:href="#DejaVuSans-79" x="4394.53125"/>
     <use xlink:href="#DejaVuSans-34" x="4453.710938"/>
     <use xlink:href="#DejaVuSans-35" x="4517.333984"/>
     <use xlink:href="#DejaVuSans-78" x="4580.957031"/>
     <use xlink:href="#DejaVuSans-78" x="4640.136719"/>
     <use xlink:href="#DejaVuSans-30" x="4699.316406"/>
     <use xlink:href="#DejaVuSans-79" x="4762.939453"/>
     <use xlink:href="#DejaVuSans-79" x="4822.119141"/>
     <use xlink:href="#DejaVuSans-79" x="4881.298828"/>
     <use xlink:href="#DejaVuSans-34" x="4940.478516"/>
     <use xlink:href="#DejaVuSans-35" x="5004.101562"/>
     <use xlink:href="#DejaVuSans-29" x="5067.724609"/>
    </g>
   </g>
   <g id="legend_1">
    <g id="patch_7">
     <path d="M 84.895313 304.584 
L 410.52 304.584 
Q 411.72 304.584 411.72 303.384 
L 411.72 295.177125 
Q 411.72 293.977125 410.52 293.977125 
L 84.895313 293.977125 
Q 83.695313 293.977125 83.695313 295.177125 
L 83.695313 303.384 
Q 83.695313 304.584 84.895313 304.584 
z
" style="fill: #ffffff; opacity: 0.8; stroke: #cccccc; stroke-linejoin: miter"/>
    </g>
    <g id="line2d_17">
     <path d="M 86.095313 298.836187 
L 92.095313 298.836187 
L 98.095313 298.836187 
" style="fill: none; stroke: #1f77b4; stroke-width: 1.5; stroke-linecap: square"/>
    </g>
    <g id="text_18">
     <!-- Execution time between S1 S15 (xx1xx2xx0yyy45xx0yyy45xx0yyy3xx1xx0yyy45xx0yyy45xx0yyy45) -->
     <g transform="translate(102.895313 300.936187) scale(0.06 -0.06)">
      <use xlink:href="#DejaVuSans-45"/>
      <use xlink:href="#DejaVuSans-78" x="63.183594"/>
      <use xlink:href="#DejaVuSans-65" x="119.238281"/>
      <use xlink:href="#DejaVuSans-63" x="180.761719"/>
      <use xlink:href="#DejaVuSans-75" x="235.742188"/>
      <use xlink:href="#DejaVuSans-74" x="299.121094"/>
      <use xlink:href="#DejaVuSans-69" x="338.330078"/>
      <use xlink:href="#DejaVuSans-6f" x="366.113281"/>
      <use xlink:href="#DejaVuSans-6e" x="427.294922"/>
      <use xlink:href="#DejaVuSans-20" x="490.673828"/>
      <use xlink:href="#DejaVuSans-74" x="522.460938"/>
      <use xlink:href="#DejaVuSans-69" x="561.669922"/>
      <use xlink:href="#DejaVuSans-6d" x="589.453125"/>
      <use xlink:href="#DejaVuSans-65" x="686.865234"/>
      <use xlink:href="#DejaVuSans-20" x="748.388672"/>
      <use xlink:href="#DejaVuSans-62" x="780.175781"/>
      <use xlink:href="#DejaVuSans-65" x="843.652344"/>
      <use xlink:href="#DejaVuSans-74" x="905.175781"/>
      <use xlink:href="#DejaVuSans-77" x="944.384766"/>
      <use xlink:href="#DejaVuSans-65" x="1026.171875"/>
      <use xlink:href="#DejaVuSans-65" x="1087.695312"/>
      <use xlink:href="#DejaVuSans-6e" x="1149.21875"/>
      <use xlink:href="#DejaVuSans-20" x="1212.597656"/>
      <use xlink:href="#DejaVuSans-53" x="1244.384766"/>
      <use xlink:href="#DejaVuSans-31" x="1307.861328"/>
      <use xlink:href="#DejaVuSans-20" x="1371.484375"/>
      <use xlink:href="#DejaVuSans-53" x="1403.271484"/>
      <use xlink:href="#DejaVuSans-31" x="1466.748047"/>
      <use xlink:href="#DejaVuSans-35" x="1530.371094"/>
      <use xlink:href="#DejaVuSans-20" x="1593.994141"/>
      <use xlink:href="#DejaVuSans-28" x="1625.78125"/>
      <use xlink:href="#DejaVuSans-78" x="1664.794922"/>
      <use xlink:href="#DejaVuSans-78" x="1723.974609"/>
      <use xlink:href="#DejaVuSans-31" x="1783.154297"/>
      <use xlink:href="#DejaVuSans-78" x="1846.777344"/>
      <use xlink:href="#DejaVuSans-78" x="1905.957031"/>
      <use xlink:href="#DejaVuSans-32" x="1965.136719"/>
      <use xlink:href="#DejaVuSans-78" x="2028.759766"/>
      <use xlink:href="#DejaVuSans-78" x="2087.939453"/>
      <use xlink:href="#DejaVuSans-30" x="2147.119141"/>
      <use xlink:href="#DejaVuSans-79" x="2210.742188"/>
      <use xlink:href="#DejaVuSans-79" x="2269.921875"/>
      <use xlink:href="#DejaVuSans-79" x="2329.101562"/>
      <use xlink:href="#DejaVuSans-34" x="2388.28125"/>
      <use xlink:href="#DejaVuSans-35" x="2451.904297"/>
      <use xlink:href="#DejaVuSans-78" x="2515.527344"/>
      <use xlink:href="#DejaVuSans-78" x="2574.707031"/>
      <use xlink:href="#DejaVuSans-30" x="2633.886719"/>
      <use xlink:href="#DejaVuSans-79" x="2697.509766"/>
      <use xlink:href="#DejaVuSans-79" x="2756.689453"/>
      <use xlink:href="#DejaVuSans-79" x="2815.869141"/>
      <use xlink:href="#DejaVuSans-34" x="2875.048828"/>
      <use xlink:href="#DejaVuSans-35" x="2938.671875"/>
      <use xlink:href="#DejaVuSans-78" x="3002.294922"/>
      <use xlink:href="#DejaVuSans-78" x="3061.474609"/>
      <use xlink:href="#DejaVuSans-30" x="3120.654297"/>
      <use xlink:href="#DejaVuSans-79" x="3184.277344"/>
      <use xlink:href="#DejaVuSans-79" x="3243.457031"/>
      <use xlink:href="#DejaVuSans-79" x="3302.636719"/>
      <use xlink:href="#DejaVuSans-33" x="3361.816406"/>
      <use xlink:href="#DejaVuSans-78" x="3425.439453"/>
      <use xlink:href="#DejaVuSans-78" x="3484.619141"/>
      <use xlink:href="#DejaVuSans-31" x="3543.798828"/>
      <use xlink:href="#DejaVuSans-78" x="3607.421875"/>
      <use xlink:href="#DejaVuSans-78" x="3666.601562"/>
      <use xlink:href="#DejaVuSans-30" x="3725.78125"/>
      <use xlink:href="#DejaVuSans-79" x="3789.404297"/>
      <use xlink:href="#DejaVuSans-79" x="3848.583984"/>
      <use xlink:href="#DejaVuSans-79" x="3907.763672"/>
      <use xlink:href="#DejaVuSans-34" x="3966.943359"/>
      <use xlink:href="#DejaVuSans-35" x="4030.566406"/>
      <use xlink:href="#DejaVuSans-78" x="4094.189453"/>
      <use xlink:href="#DejaVuSans-78" x="4153.369141"/>
      <use xlink:href="#DejaVuSans-30" x="4212.548828"/>
      <use xlink:href="#DejaVuSans-79" x="4276.171875"/>
      <use xlink:href="#DejaVuSans-79" x="4335.351562"/>
      <use xlink:href="#DejaVuSans-79" x="4394.53125"/>
      <use xlink:href="#DejaVuSans-34" x="4453.710938"/>
      <use xlink:href="#DejaVuSans-35" x="4517.333984"/>
      <use xlink:href="#DejaVuSans-78" x="4580.957031"/>
      <use xlink:href="#DejaVuSans-78" x="4640.136719"/>
      <use xlink:href="#DejaVuSans-30" x="4699.316406"/>
      <use xlink:href="#DejaVuSans-79" x="4762.939453"/>
      <use xlink:href="#DejaVuSans-79" x="4822.119141"/>
      <use xlink:href="#DejaVuSans-79" x="4881.298828"/>
      <use xlink:href="#DejaVuSans-34" x="4940.478516"/>
      <use xlink:href="#DejaVuSans-35" x="5004.101562"/>
      <use xlink:href="#DejaVuSans-29" x="5067.724609"/>
     </g>
    </g>
   </g>
  </g>
 </g>
 <defs>
  <clipPath id="pc703078cf5">
   <rect x="57.6" y="41.472" width="357.12" height="266.112"/>
  </clipPath>
 </defs>
</svg>
