<?xml version="1.0" encoding="utf-8" standalone="no"?>
<!DOCTYPE svg PUBLIC "-//W3C//DTD SVG 1.1//EN"
  "http://www.w3.org/Graphics/SVG/1.1/DTD/svg11.dtd">
<svg xmlns:xlink="http://www.w3.org/1999/xlink" width="460.8pt" height="345.6pt" viewBox="0 0 460.8 345.6" xmlns="http://www.w3.org/2000/svg" version="1.1">
 <metadata>
  <rdf:RDF xmlns:dc="http://purl.org/dc/elements/1.1/" xmlns:cc="http://creativecommons.org/ns#" xmlns:rdf="http://www.w3.org/1999/02/22-rdf-syntax-ns#">
   <cc:Work>
    <dc:type rdf:resource="http://purl.org/dc/dcmitype/StillImage"/>
    <dc:date>2024-03-08T12:31:37.068679</dc:date>
    <dc:format>image/svg+xml</dc:format>
    <dc:creator>
     <cc:Agent>
      <dc:title>Matplotlib v3.8.2, https://matplotlib.org/</dc:title>
     </cc:Agent>
    </dc:creator>
   </cc:Work>
  </rdf:RDF>
 </metadata>
 <defs>
  <style type="text/css">*{stroke-linejoin: round; stroke-linecap: butt}</style>
 </defs>
 <g id="figure_1">
  <g id="patch_1">
   <path d="M 0 345.6 
L 460.8 345.6 
L 460.8 0 
L 0 0 
z
" style="fill: #ffffff"/>
  </g>
  <g id="axes_1">
   <g id="patch_2">
    <path d="M 57.6 307.584 
L 414.72 307.584 
L 414.72 41.472 
L 57.6 41.472 
z
" style="fill: #ffffff"/>
   </g>
   <g id="matplotlib.axis_1">
    <g id="xtick_1">
     <g id="line2d_1">
      <defs>
       <path id="maddfa92101" d="M 0 0 
L 0 3.5 
" style="stroke: #000000; stroke-width: 0.8"/>
      </defs>
      <g>
       <use xlink:href="#maddfa92101" x="73.832727" y="307.584" style="stroke: #000000; stroke-width: 0.8"/>
      </g>
     </g>
     <g id="text_1">
      <!-- 0 -->
      <g transform="translate(70.651477 322.182437) scale(0.1 -0.1)">
       <defs>
        <path id="DejaVuSans-30" d="M 2034 4250 
Q 1547 4250 1301 3770 
Q 1056 3291 1056 2328 
Q 1056 1369 1301 889 
Q 1547 409 2034 409 
Q 2525 409 2770 889 
Q 3016 1369 3016 2328 
Q 3016 3291 2770 3770 
Q 2525 4250 2034 4250 
z
M 2034 4750 
Q 2819 4750 3233 4129 
Q 3647 3509 3647 2328 
Q 3647 1150 3233 529 
Q 2819 -91 2034 -91 
Q 1250 -91 836 529 
Q 422 1150 422 2328 
Q 422 3509 836 4129 
Q 1250 4750 2034 4750 
z
" transform="scale(0.015625)"/>
       </defs>
       <use xlink:href="#DejaVuSans-30"/>
      </g>
     </g>
    </g>
    <g id="xtick_2">
     <g id="line2d_2">
      <g>
       <use xlink:href="#maddfa92101" x="145.124268" y="307.584" style="stroke: #000000; stroke-width: 0.8"/>
      </g>
     </g>
     <g id="text_2">
      <!-- 100000 -->
      <g transform="translate(126.036768 322.182437) scale(0.1 -0.1)">
       <defs>
        <path id="DejaVuSans-31" d="M 794 531 
L 1825 531 
L 1825 4091 
L 703 3866 
L 703 4441 
L 1819 4666 
L 2450 4666 
L 2450 531 
L 3481 531 
L 3481 0 
L 794 0 
L 794 531 
z
" transform="scale(0.015625)"/>
       </defs>
       <use xlink:href="#DejaVuSans-31"/>
       <use xlink:href="#DejaVuSans-30" x="63.623047"/>
       <use xlink:href="#DejaVuSans-30" x="127.246094"/>
       <use xlink:href="#DejaVuSans-30" x="190.869141"/>
       <use xlink:href="#DejaVuSans-30" x="254.492188"/>
       <use xlink:href="#DejaVuSans-30" x="318.115234"/>
      </g>
     </g>
    </g>
    <g id="xtick_3">
     <g id="line2d_3">
      <g>
       <use xlink:href="#maddfa92101" x="216.415808" y="307.584" style="stroke: #000000; stroke-width: 0.8"/>
      </g>
     </g>
     <g id="text_3">
      <!-- 200000 -->
      <g transform="translate(197.328308 322.182437) scale(0.1 -0.1)">
       <defs>
        <path id="DejaVuSans-32" d="M 1228 531 
L 3431 531 
L 3431 0 
L 469 0 
L 469 531 
Q 828 903 1448 1529 
Q 2069 2156 2228 2338 
Q 2531 2678 2651 2914 
Q 2772 3150 2772 3378 
Q 2772 3750 2511 3984 
Q 2250 4219 1831 4219 
Q 1534 4219 1204 4116 
Q 875 4013 500 3803 
L 500 4441 
Q 881 4594 1212 4672 
Q 1544 4750 1819 4750 
Q 2544 4750 2975 4387 
Q 3406 4025 3406 3419 
Q 3406 3131 3298 2873 
Q 3191 2616 2906 2266 
Q 2828 2175 2409 1742 
Q 1991 1309 1228 531 
z
" transform="scale(0.015625)"/>
       </defs>
       <use xlink:href="#DejaVuSans-32"/>
       <use xlink:href="#DejaVuSans-30" x="63.623047"/>
       <use xlink:href="#DejaVuSans-30" x="127.246094"/>
       <use xlink:href="#DejaVuSans-30" x="190.869141"/>
       <use xlink:href="#DejaVuSans-30" x="254.492188"/>
       <use xlink:href="#DejaVuSans-30" x="318.115234"/>
      </g>
     </g>
    </g>
    <g id="xtick_4">
     <g id="line2d_4">
      <g>
       <use xlink:href="#maddfa92101" x="287.707348" y="307.584" style="stroke: #000000; stroke-width: 0.8"/>
      </g>
     </g>
     <g id="text_4">
      <!-- 300000 -->
      <g transform="translate(268.619848 322.182437) scale(0.1 -0.1)">
       <defs>
        <path id="DejaVuSans-33" d="M 2597 2516 
Q 3050 2419 3304 2112 
Q 3559 1806 3559 1356 
Q 3559 666 3084 287 
Q 2609 -91 1734 -91 
Q 1441 -91 1130 -33 
Q 819 25 488 141 
L 488 750 
Q 750 597 1062 519 
Q 1375 441 1716 441 
Q 2309 441 2620 675 
Q 2931 909 2931 1356 
Q 2931 1769 2642 2001 
Q 2353 2234 1838 2234 
L 1294 2234 
L 1294 2753 
L 1863 2753 
Q 2328 2753 2575 2939 
Q 2822 3125 2822 3475 
Q 2822 3834 2567 4026 
Q 2313 4219 1838 4219 
Q 1578 4219 1281 4162 
Q 984 4106 628 3988 
L 628 4550 
Q 988 4650 1302 4700 
Q 1616 4750 1894 4750 
Q 2613 4750 3031 4423 
Q 3450 4097 3450 3541 
Q 3450 3153 3228 2886 
Q 3006 2619 2597 2516 
z
" transform="scale(0.015625)"/>
       </defs>
       <use xlink:href="#DejaVuSans-33"/>
       <use xlink:href="#DejaVuSans-30" x="63.623047"/>
       <use xlink:href="#DejaVuSans-30" x="127.246094"/>
       <use xlink:href="#DejaVuSans-30" x="190.869141"/>
       <use xlink:href="#DejaVuSans-30" x="254.492188"/>
       <use xlink:href="#DejaVuSans-30" x="318.115234"/>
      </g>
     </g>
    </g>
    <g id="xtick_5">
     <g id="line2d_5">
      <g>
       <use xlink:href="#maddfa92101" x="358.998889" y="307.584" style="stroke: #000000; stroke-width: 0.8"/>
      </g>
     </g>
     <g id="text_5">
      <!-- 400000 -->
      <g transform="translate(339.911389 322.182437) scale(0.1 -0.1)">
       <defs>
        <path id="DejaVuSans-34" d="M 2419 4116 
L 825 1625 
L 2419 1625 
L 2419 4116 
z
M 2253 4666 
L 3047 4666 
L 3047 1625 
L 3713 1625 
L 3713 1100 
L 3047 1100 
L 3047 0 
L 2419 0 
L 2419 1100 
L 313 1100 
L 313 1709 
L 2253 4666 
z
" transform="scale(0.015625)"/>
       </defs>
       <use xlink:href="#DejaVuSans-34"/>
       <use xlink:href="#DejaVuSans-30" x="63.623047"/>
       <use xlink:href="#DejaVuSans-30" x="127.246094"/>
       <use xlink:href="#DejaVuSans-30" x="190.869141"/>
       <use xlink:href="#DejaVuSans-30" x="254.492188"/>
       <use xlink:href="#DejaVuSans-30" x="318.115234"/>
      </g>
     </g>
    </g>
   </g>
   <g id="matplotlib.axis_2">
    <g id="ytick_1">
     <g id="line2d_6">
      <defs>
       <path id="m318bd51a20" d="M 0 0 
L -3.5 0 
" style="stroke: #000000; stroke-width: 0.8"/>
      </defs>
      <g>
       <use xlink:href="#m318bd51a20" x="57.6" y="295.488" style="stroke: #000000; stroke-width: 0.8"/>
      </g>
     </g>
     <g id="text_6">
      <!-- 0.0 -->
      <g transform="translate(34.696875 299.287219) scale(0.1 -0.1)">
       <defs>
        <path id="DejaVuSans-2e" d="M 684 794 
L 1344 794 
L 1344 0 
L 684 0 
L 684 794 
z
" transform="scale(0.015625)"/>
       </defs>
       <use xlink:href="#DejaVuSans-30"/>
       <use xlink:href="#DejaVuSans-2e" x="63.623047"/>
       <use xlink:href="#DejaVuSans-30" x="95.410156"/>
      </g>
     </g>
    </g>
    <g id="ytick_2">
     <g id="line2d_7">
      <g>
       <use xlink:href="#m318bd51a20" x="57.6" y="247.104" style="stroke: #000000; stroke-width: 0.8"/>
      </g>
     </g>
     <g id="text_7">
      <!-- 0.2 -->
      <g transform="translate(34.696875 250.903219) scale(0.1 -0.1)">
       <use xlink:href="#DejaVuSans-30"/>
       <use xlink:href="#DejaVuSans-2e" x="63.623047"/>
       <use xlink:href="#DejaVuSans-32" x="95.410156"/>
      </g>
     </g>
    </g>
    <g id="ytick_3">
     <g id="line2d_8">
      <g>
       <use xlink:href="#m318bd51a20" x="57.6" y="198.72" style="stroke: #000000; stroke-width: 0.8"/>
      </g>
     </g>
     <g id="text_8">
      <!-- 0.4 -->
      <g transform="translate(34.696875 202.519219) scale(0.1 -0.1)">
       <use xlink:href="#DejaVuSans-30"/>
       <use xlink:href="#DejaVuSans-2e" x="63.623047"/>
       <use xlink:href="#DejaVuSans-34" x="95.410156"/>
      </g>
     </g>
    </g>
    <g id="ytick_4">
     <g id="line2d_9">
      <g>
       <use xlink:href="#m318bd51a20" x="57.6" y="150.336" style="stroke: #000000; stroke-width: 0.8"/>
      </g>
     </g>
     <g id="text_9">
      <!-- 0.6 -->
      <g transform="translate(34.696875 154.135219) scale(0.1 -0.1)">
       <defs>
        <path id="DejaVuSans-36" d="M 2113 2584 
Q 1688 2584 1439 2293 
Q 1191 2003 1191 1497 
Q 1191 994 1439 701 
Q 1688 409 2113 409 
Q 2538 409 2786 701 
Q 3034 994 3034 1497 
Q 3034 2003 2786 2293 
Q 2538 2584 2113 2584 
z
M 3366 4563 
L 3366 3988 
Q 3128 4100 2886 4159 
Q 2644 4219 2406 4219 
Q 1781 4219 1451 3797 
Q 1122 3375 1075 2522 
Q 1259 2794 1537 2939 
Q 1816 3084 2150 3084 
Q 2853 3084 3261 2657 
Q 3669 2231 3669 1497 
Q 3669 778 3244 343 
Q 2819 -91 2113 -91 
Q 1303 -91 875 529 
Q 447 1150 447 2328 
Q 447 3434 972 4092 
Q 1497 4750 2381 4750 
Q 2619 4750 2861 4703 
Q 3103 4656 3366 4563 
z
" transform="scale(0.015625)"/>
       </defs>
       <use xlink:href="#DejaVuSans-30"/>
       <use xlink:href="#DejaVuSans-2e" x="63.623047"/>
       <use xlink:href="#DejaVuSans-36" x="95.410156"/>
      </g>
     </g>
    </g>
    <g id="ytick_5">
     <g id="line2d_10">
      <g>
       <use xlink:href="#m318bd51a20" x="57.6" y="101.952" style="stroke: #000000; stroke-width: 0.8"/>
      </g>
     </g>
     <g id="text_10">
      <!-- 0.8 -->
      <g transform="translate(34.696875 105.751219) scale(0.1 -0.1)">
       <defs>
        <path id="DejaVuSans-38" d="M 2034 2216 
Q 1584 2216 1326 1975 
Q 1069 1734 1069 1313 
Q 1069 891 1326 650 
Q 1584 409 2034 409 
Q 2484 409 2743 651 
Q 3003 894 3003 1313 
Q 3003 1734 2745 1975 
Q 2488 2216 2034 2216 
z
M 1403 2484 
Q 997 2584 770 2862 
Q 544 3141 544 3541 
Q 544 4100 942 4425 
Q 1341 4750 2034 4750 
Q 2731 4750 3128 4425 
Q 3525 4100 3525 3541 
Q 3525 3141 3298 2862 
Q 3072 2584 2669 2484 
Q 3125 2378 3379 2068 
Q 3634 1759 3634 1313 
Q 3634 634 3220 271 
Q 2806 -91 2034 -91 
Q 1263 -91 848 271 
Q 434 634 434 1313 
Q 434 1759 690 2068 
Q 947 2378 1403 2484 
z
M 1172 3481 
Q 1172 3119 1398 2916 
Q 1625 2713 2034 2713 
Q 2441 2713 2670 2916 
Q 2900 3119 2900 3481 
Q 2900 3844 2670 4047 
Q 2441 4250 2034 4250 
Q 1625 4250 1398 4047 
Q 1172 3844 1172 3481 
z
" transform="scale(0.015625)"/>
       </defs>
       <use xlink:href="#DejaVuSans-30"/>
       <use xlink:href="#DejaVuSans-2e" x="63.623047"/>
       <use xlink:href="#DejaVuSans-38" x="95.410156"/>
      </g>
     </g>
    </g>
    <g id="ytick_6">
     <g id="line2d_11">
      <g>
       <use xlink:href="#m318bd51a20" x="57.6" y="53.568" style="stroke: #000000; stroke-width: 0.8"/>
      </g>
     </g>
     <g id="text_11">
      <!-- 1.0 -->
      <g transform="translate(34.696875 57.367219) scale(0.1 -0.1)">
       <use xlink:href="#DejaVuSans-31"/>
       <use xlink:href="#DejaVuSans-2e" x="63.623047"/>
       <use xlink:href="#DejaVuSans-30" x="95.410156"/>
      </g>
     </g>
    </g>
   </g>
   <g id="line2d_12">
    <path d="M 73.832727 295.488 
L 130.915864 295.488 
L 130.915864 294.774372 
L 132.313178 294.774372 
L 132.313178 294.060743 
L 133.64633 294.060743 
L 133.731879 292.633487 
L 133.845946 292.633487 
L 133.845946 291.919858 
L 135.136323 291.919858 
L 135.207614 290.492602 
L 135.457135 290.492602 
L 135.471393 289.065345 
L 136.355408 289.065345 
L 136.355408 288.351717 
L 136.540766 288.351717 
L 136.612058 286.92446 
L 137.945209 286.92446 
L 138.052147 284.783575 
L 138.822095 284.783575 
L 138.822095 284.069947 
L 139.363911 284.069947 
L 139.470848 282.64269 
L 140.440413 282.64269 
L 140.440413 281.929062 
L 140.818259 281.929062 
L 140.896679 280.501805 
L 141.295912 280.501805 
L 141.295912 279.788177 
L 142.258348 279.788177 
L 142.351027 278.36092 
L 142.964134 278.36092 
L 142.964134 277.647292 
L 143.655662 277.647292 
L 143.655662 276.933664 
L 143.769728 276.933664 
L 143.769728 276.220035 
L 145.195559 276.220035 
L 145.216947 274.792779 
L 145.43795 274.792779 
L 145.43795 274.07915 
L 146.279191 274.07915 
L 146.279191 273.365522 
L 146.471678 273.365522 
L 146.471678 272.651894 
L 146.62139 272.651894 
L 146.62139 271.938265 
L 147.705021 271.938265 
L 147.705021 271.224637 
L 147.897509 271.224637 
L 147.926025 269.797381 
L 148.047221 269.797381 
L 148.047221 269.083752 
L 148.760136 269.083752 
L 148.760136 268.370124 
L 149.309081 268.370124 
L 149.309081 267.656496 
L 149.444535 267.656496 
L 149.444535 266.942867 
L 150.15745 266.942867 
L 150.15745 266.229239 
L 150.734912 266.229239 
L 150.734912 265.515611 
L 150.891753 265.515611 
L 150.891753 264.801982 
L 151.198307 264.801982 
L 151.262469 263.374726 
L 152.167872 263.374726 
L 152.167872 262.661097 
L 152.317584 262.661097 
L 152.317584 261.947469 
L 152.645525 261.947469 
L 152.645525 261.233841 
L 152.966337 261.233841 
L 152.966337 260.520212 
L 153.579444 260.520212 
L 153.579444 259.806584 
L 153.729157 259.806584 
L 153.729157 257.665699 
L 153.729157 257.665699 
L 154.983888 257.665699 
L 154.983888 256.952071 
L 155.126471 256.952071 
L 155.154987 255.524814 
L 155.425895 255.524814 
L 155.425895 254.811186 
L 155.867903 254.811186 
L 155.867903 254.097558 
L 156.22436 254.097558 
L 156.23149 252.670301 
L 157.193925 252.670301 
L 157.193925 251.956673 
L 157.5789 251.956673 
L 157.5789 251.243044 
L 157.82842 251.243044 
L 157.82842 250.529416 
L 157.956745 250.529416 
L 157.956745 249.815788 
L 158.377365 249.815788 
L 158.377365 249.102159 
L 158.748081 249.102159 
L 158.748081 248.388531 
L 159.674871 248.388531 
L 159.674871 247.674903 
L 160.844052 247.674903 
L 160.844052 246.961274 
L 161.20051 246.961274 
L 161.20051 246.247646 
L 162.227108 246.247646 
L 162.227108 245.534018 
L 162.897249 245.534018 
L 162.897249 244.820389 
L 163.324998 244.820389 
L 163.324998 244.106761 
L 163.667197 244.106761 
L 163.702843 242.679504 
L 164.016526 242.679504 
L 164.016526 241.965876 
L 164.708054 241.965876 
L 164.708054 241.252248 
L 165.392453 241.252248 
L 165.485132 239.111363 
L 165.784556 239.111363 
L 165.784556 238.397735 
L 166.247951 238.397735 
L 166.247951 237.684106 
L 167.260291 237.684106 
L 167.260291 236.25685 
L 167.260291 236.25685 
L 167.609619 236.25685 
L 167.609619 235.543221 
L 167.866269 235.543221 
L 167.866269 234.829593 
L 168.008852 234.829593 
L 168.065885 233.402336 
L 169.063967 233.402336 
L 169.063967 232.688708 
L 169.37765 232.688708 
L 169.384779 231.261451 
L 169.698462 231.261451 
L 169.698462 230.547823 
L 169.862432 230.547823 
L 169.862432 229.834195 
L 170.475539 229.834195 
L 170.475539 229.120566 
L 170.853384 229.120566 
L 170.853384 228.406938 
L 171.124292 228.406938 
L 171.124292 227.69331 
L 171.65185 227.69331 
L 171.65185 226.979681 
L 171.90137 226.979681 
L 171.90137 226.266053 
L 172.628544 226.266053 
L 172.628544 225.552425 
L 172.91371 225.552425 
L 172.91371 224.838796 
L 173.034906 224.838796 
L 173.034906 224.125168 
L 173.427009 224.125168 
L 173.427009 223.41154 
L 174.43222 223.41154 
L 174.446478 221.984283 
L 174.674611 221.984283 
L 174.674611 221.270655 
L 175.095231 221.270655 
L 175.095231 220.557027 
L 175.223556 220.557027 
L 175.223556 219.843398 
L 175.487335 219.843398 
L 175.487335 219.12977 
L 175.907955 219.12977 
L 175.907955 218.416142 
L 176.243025 218.416142 
L 176.271542 216.988885 
L 176.435512 216.988885 
L 176.435512 216.275257 
L 176.884649 216.275257 
L 176.970199 214.848 
L 177.583306 214.848 
L 177.583306 214.134372 
L 177.697372 214.134372 
L 177.697372 213.420743 
L 178.011055 213.420743 
L 178.039572 211.993487 
L 178.246317 211.993487 
L 178.246317 211.279858 
L 179.344207 211.279858 
L 179.344207 210.56623 
L 179.48679 210.56623 
L 179.48679 209.852602 
L 179.607986 209.852602 
L 179.607986 209.138973 
L 179.779085 209.138973 
L 179.786214 207.711717 
L 180.014347 207.711717 
L 180.057122 206.28446 
L 181.290466 206.28446 
L 181.383145 204.857204 
L 181.497211 204.857204 
L 181.59702 202.716319 
L 181.875057 202.716319 
L 181.889315 201.289062 
L 182.52381 201.289062 
L 182.60223 199.861805 
L 183.079884 199.861805 
L 183.144046 198.434549 
L 183.322275 198.434549 
L 183.414954 197.007292 
L 183.671603 197.007292 
L 183.671603 196.293664 
L 183.942511 196.293664 
L 183.942511 195.580035 
L 184.334615 195.580035 
L 184.334615 194.866407 
L 184.897818 194.866407 
L 184.969109 192.725522 
L 185.154467 192.725522 
L 185.168726 191.298265 
L 186.330778 191.298265 
L 186.437715 189.871009 
L 186.65159 189.871009 
L 186.708623 188.443752 
L 186.943885 188.443752 
L 186.951014 187.016496 
L 187.093597 187.016496 
L 187.093597 186.302867 
L 187.507088 186.302867 
L 187.507088 185.589239 
L 187.756609 185.589239 
L 187.756609 184.875611 
L 188.433878 184.875611 
L 188.462395 183.448354 
L 188.719044 183.448354 
L 188.726174 182.021097 
L 188.890144 182.021097 
L 188.890144 181.307469 
L 189.210956 181.307469 
L 189.210956 180.593841 
L 189.60306 180.593841 
L 189.60306 179.880212 
L 189.731384 179.880212 
L 189.731384 179.166584 
L 190.223296 179.166584 
L 190.223296 178.452956 
L 190.465687 178.452956 
L 190.494204 177.025699 
L 190.636787 177.025699 
L 190.636787 176.312071 
L 191.192861 176.312071 
L 191.192861 175.598442 
L 191.413865 175.598442 
L 191.506544 174.171186 
L 191.96281 174.171186 
L 192.062618 172.743929 
L 192.12678 172.743929 
L 192.233717 171.316673 
L 192.269363 171.316673 
L 192.269363 170.603044 
L 192.953762 170.603044 
L 192.953762 169.889416 
L 193.167637 169.889416 
L 193.167637 169.175788 
L 193.303091 169.175788 
L 193.303091 168.462159 
L 193.47419 168.462159 
L 193.47419 167.748531 
L 193.723711 167.748531 
L 193.723711 167.034903 
L 194.037393 167.034903 
L 194.037393 166.321274 
L 194.65763 166.321274 
L 194.73605 164.894018 
L 194.900021 164.894018 
L 194.985571 163.466761 
L 195.07825 163.466761 
L 195.07825 162.753133 
L 195.520257 162.753133 
L 195.520257 162.039504 
L 195.848199 162.039504 
L 195.848199 161.325876 
L 196.318723 161.325876 
L 196.318723 160.612248 
L 196.525468 160.612248 
L 196.525468 159.898619 
L 196.867668 159.898619 
L 196.867668 159.184991 
L 197.159963 159.184991 
L 197.159963 158.471363 
L 197.281158 158.471363 
L 197.281158 157.757735 
L 197.630487 157.757735 
L 197.630487 157.044106 
L 197.77307 157.044106 
L 197.77307 156.330478 
L 198.272111 156.330478 
L 198.272111 155.61685 
L 198.507373 155.61685 
L 198.507373 154.903221 
L 198.649956 154.903221 
L 198.649956 154.189593 
L 199.049189 154.189593 
L 199.049189 153.475965 
L 199.198901 153.475965 
L 199.198901 152.762336 
L 199.398517 152.762336 
L 199.398517 152.048708 
L 199.640908 152.048708 
L 199.640908 151.33508 
L 200.011624 151.33508 
L 200.011624 150.621451 
L 200.268274 150.621451 
L 200.268274 149.907823 
L 200.653248 149.907823 
L 200.745927 148.480566 
L 200.824348 148.480566 
L 200.859994 147.05331 
L 201.180806 147.05331 
L 201.180806 146.339681 
L 201.786784 146.339681 
L 201.786784 145.626053 
L 202.057692 145.626053 
L 202.064821 144.198796 
L 202.521087 144.198796 
L 202.628024 142.057912 
L 202.955965 142.057912 
L 202.955965 141.344283 
L 203.490652 141.344283 
L 203.490652 140.630655 
L 203.868497 140.630655 
L 203.868497 139.917027 
L 204.267729 139.917027 
L 204.267729 139.203398 
L 204.4317 139.203398 
L 204.4317 138.48977 
L 204.723995 138.48977 
L 204.723995 137.776142 
L 204.887966 137.776142 
L 204.887966 137.062513 
L 205.130357 137.062513 
L 205.130357 136.348885 
L 205.679302 136.348885 
L 205.679302 135.635257 
L 206.042889 135.635257 
L 206.042889 134.921628 
L 206.206859 134.921628 
L 206.206859 134.208 
L 206.948291 134.208 
L 206.948291 133.494372 
L 207.447332 133.494372 
L 207.447332 132.780743 
L 207.725369 132.780743 
L 207.825177 131.353487 
L 208.174506 131.353487 
L 208.174506 130.639858 
L 208.723451 130.639858 
L 208.723451 129.92623 
L 209.229621 129.92623 
L 209.229621 129.212602 
L 209.578949 129.212602 
L 209.578949 128.498973 
L 209.963924 128.498973 
L 209.963924 127.785345 
L 210.24909 127.785345 
L 210.24909 127.071717 
L 210.462964 127.071717 
L 210.462964 126.358088 
L 211.753341 126.358088 
L 211.753341 125.64446 
L 212.223865 125.64446 
L 212.323673 124.217204 
L 212.701519 124.217204 
L 212.701519 123.503575 
L 213.557017 123.503575 
L 213.557017 122.789947 
L 213.977637 122.789947 
L 214.084575 121.36269 
L 215.032752 121.36269 
L 215.032752 120.649062 
L 215.189593 120.649062 
L 215.189593 119.935434 
L 215.367822 119.935434 
L 215.367822 119.221805 
L 215.745667 119.221805 
L 215.745667 118.508177 
L 215.873992 118.508177 
L 215.873992 117.794549 
L 216.815041 117.794549 
L 216.815041 117.08092 
L 217.192886 117.08092 
L 217.192886 116.367292 
L 217.499439 116.367292 
L 217.499439 115.653664 
L 217.670539 115.653664 
L 217.734701 114.226407 
L 218.640104 114.226407 
L 218.640104 113.512779 
L 218.975174 113.512779 
L 218.975174 112.79915 
L 219.310244 112.79915 
L 219.310244 112.085522 
L 219.459957 112.085522 
L 219.459957 111.371894 
L 220.237034 111.371894 
L 220.237034 110.658265 
L 220.408134 110.658265 
L 220.408134 109.944637 
L 220.793108 109.944637 
L 220.793108 109.231009 
L 221.071145 109.231009 
L 221.071145 108.517381 
L 221.192341 108.517381 
L 221.192341 107.803752 
L 222.169035 107.803752 
L 222.176164 106.376496 
L 222.361522 106.376496 
L 222.361522 105.662867 
L 222.817788 105.662867 
L 222.817788 104.949239 
L 222.9675 104.949239 
L 222.9675 104.235611 
L 223.965582 104.235611 
L 223.972711 102.808354 
L 224.614335 102.808354 
L 224.614335 102.094726 
L 224.778306 102.094726 
L 224.849597 100.667469 
L 225.755 100.667469 
L 225.755 99.953841 
L 226.42514 99.953841 
L 226.532077 98.526584 
L 227.302026 98.526584 
L 227.302026 97.812956 
L 227.537288 97.812956 
L 227.537288 97.099327 
L 228.186041 97.099327 
L 228.186041 96.385699 
L 228.335753 96.385699 
L 228.335753 95.672071 
L 229.319577 95.672071 
L 229.319577 94.958442 
L 229.996846 94.958442 
L 230.068138 93.531186 
L 231.094736 93.531186 
L 231.094736 92.817558 
L 231.857556 92.817558 
L 231.857556 92.103929 
L 232.898412 92.103929 
L 232.898412 91.390301 
L 233.540036 91.390301 
L 233.625586 89.963044 
L 234.694959 89.963044 
L 234.694959 89.249416 
L 235.300937 89.249416 
L 235.407874 87.822159 
L 236.477247 87.822159 
L 236.477247 87.108531 
L 237.111742 87.108531 
L 237.111742 86.394903 
L 238.266665 86.394903 
L 238.266665 85.681274 
L 240.056083 85.681274 
L 240.056083 84.967646 
L 241.816984 84.967646 
L 241.816984 84.254018 
L 243.62066 84.254018 
L 243.62066 83.540389 
L 245.381561 83.540389 
L 245.381561 82.826761 
L 247.627244 82.826761 
L 247.627244 82.113133 
L 249.445179 82.113133 
L 249.445179 81.399504 
L 251.227467 81.399504 
L 251.227467 80.685876 
L 251.954641 80.685876 
L 251.954641 79.972248 
L 253.002626 79.972248 
L 253.002626 79.258619 
L 253.744058 79.258619 
L 253.744058 78.544991 
L 255.49783 78.544991 
L 255.49783 77.831363 
L 257.258731 77.831363 
L 257.258731 77.117735 
L 259.026762 77.117735 
L 259.026762 76.404106 
L 260.816179 76.404106 
L 260.816179 75.690478 
L 262.142202 75.690478 
L 262.142202 74.97685 
L 262.619855 74.97685 
L 262.619855 74.263221 
L 264.416402 74.263221 
L 264.416402 73.549593 
L 266.177303 73.549593 
L 266.177303 72.835965 
L 267.966721 72.835965 
L 267.966721 72.122336 
L 269.756138 72.122336 
L 269.756138 71.408708 
L 271.531298 71.408708 
L 271.531298 70.69508 
L 272.885837 70.69508 
L 272.885837 69.981451 
L 273.36349 69.981451 
L 273.36349 69.267823 
L 274.311668 69.267823 
L 274.318797 67.840566 
L 275.117262 67.840566 
L 275.117262 67.126938 
L 275.744628 67.126938 
L 275.758886 65.699681 
L 276.928067 65.699681 
L 276.928067 64.986053 
L 277.1562 64.986053 
L 277.1562 64.272425 
L 278.582031 64.272425 
L 278.667581 62.845168 
L 280.014991 62.845168 
L 280.014991 62.13154 
L 280.449869 62.13154 
L 280.449869 61.417912 
L 281.447951 61.417912 
L 281.447951 60.704283 
L 282.232158 60.704283 
L 282.232158 59.990655 
L 282.845265 59.990655 
L 282.845265 59.277027 
L 284.278225 59.277027 
L 284.278225 58.563398 
L 285.711185 58.563398 
L 285.711185 57.84977 
L 287.137016 57.84977 
L 287.137016 57.136142 
L 288.562847 57.136142 
L 288.562847 56.422513 
L 289.96729 56.422513 
L 289.96729 55.708885 
L 291.40025 55.708885 
L 291.40025 54.995257 
L 292.811823 54.995257 
L 292.811823 54.281628 
L 294.223395 54.281628 
L 294.223395 53.568 
L 294.223395 53.568 
" clip-path="url(#p35f9035bd6)" style="fill: none; stroke: #1f77b4; stroke-width: 1.5; stroke-linecap: square"/>
   </g>
   <g id="line2d_13">
    <path d="M 73.832727 295.488 
L 108.573095 295.488 
L 108.573095 294.929293 
L 122.624657 294.929293 
L 122.624657 294.370587 
L 124.392688 294.370587 
L 124.392688 293.81188 
L 126.189234 293.81188 
L 126.189234 293.253173 
L 126.830858 293.253173 
L 126.830858 292.694467 
L 127.864586 292.694467 
L 127.864586 292.13576 
L 128.00004 292.13576 
L 128.00004 291.577053 
L 129.318933 291.577053 
L 129.318933 291.018346 
L 129.654003 291.018346 
L 129.654003 290.45964 
L 129.76807 290.45964 
L 129.76807 289.900933 
L 130.530889 289.900933 
L 130.530889 289.342226 
L 131.45055 289.342226 
L 131.543229 288.224813 
L 131.821266 288.224813 
L 131.821266 287.666106 
L 132.29179 287.666106 
L 132.29179 287.1074 
L 133.197193 287.1074 
L 133.197193 286.548693 
L 133.311259 286.548693 
L 133.311259 285.989986 
L 134.095466 285.989986 
L 134.095466 285.431279 
L 134.366374 285.431279 
L 134.366374 284.872573 
L 134.972352 284.872573 
L 135.07216 283.755159 
L 135.842109 283.755159 
L 135.842109 283.196453 
L 136.754641 283.196453 
L 136.854449 282.079039 
L 136.918611 282.079039 
L 136.918611 281.520333 
L 137.624398 281.520333 
L 137.624398 280.961626 
L 138.522671 280.961626 
L 138.629608 279.844212 
L 139.199941 279.844212 
L 139.199941 279.285506 
L 139.413815 279.285506 
L 139.420944 278.168092 
L 140.283572 278.168092 
L 140.376251 277.050679 
L 140.982229 277.050679 
L 141.074908 275.933266 
L 141.217491 275.933266 
L 141.217491 275.374559 
L 141.90189 275.374559 
L 141.90189 274.815852 
L 142.15141 274.815852 
L 142.15141 274.257145 
L 142.757388 274.257145 
L 142.835809 273.139732 
L 143.014038 273.139732 
L 143.014038 272.581025 
L 143.570112 272.581025 
L 143.570112 272.022319 
L 144.42561 272.022319 
L 144.42561 271.463612 
L 144.582452 271.463612 
L 144.610969 270.346199 
L 144.803456 270.346199 
L 144.803456 269.787492 
L 146.058187 269.787492 
L 146.058187 269.228785 
L 146.357611 269.228785 
L 146.37187 268.111372 
L 146.607132 268.111372 
L 146.607132 267.552665 
L 146.899427 267.552665 
L 146.899427 266.993958 
L 148.111383 266.993958 
L 148.168416 265.876545 
L 148.38942 265.876545 
L 148.38942 265.317838 
L 148.510616 265.317838 
L 148.510616 264.759132 
L 149.387502 264.759132 
L 149.387502 264.200425 
L 149.850897 264.200425 
L 149.90793 263.083012 
L 150.150321 263.083012 
L 150.150321 262.524305 
L 150.998691 262.524305 
L 151.027207 261.406891 
L 151.155532 261.406891 
L 151.155532 260.848185 
L 151.618927 260.848185 
L 151.661702 259.730771 
L 151.925481 259.730771 
L 151.925481 259.172065 
L 152.310455 259.172065 
L 152.310455 258.613358 
L 153.401215 258.613358 
L 153.479636 256.937238 
L 153.657865 256.937238 
L 153.764802 255.261118 
L 154.427814 255.261118 
L 154.427814 254.702411 
L 155.154987 254.702411 
L 155.21915 253.026291 
L 155.504316 253.026291 
L 155.55422 251.908878 
L 155.939194 251.908878 
L 155.939194 251.350171 
L 156.637851 251.350171 
L 156.637851 250.791464 
L 156.887372 250.791464 
L 156.994309 249.115344 
L 157.293734 249.115344 
L 157.293734 248.556637 
L 157.593158 248.556637 
L 157.593158 247.997931 
L 158.035166 247.997931 
L 158.042295 246.880517 
L 158.662531 246.880517 
L 158.75521 245.763104 
L 159.076022 245.763104 
L 159.076022 245.204397 
L 159.34693 245.204397 
L 159.425351 243.528277 
L 160.558886 243.528277 
L 160.587403 242.410864 
L 160.844052 242.410864 
L 160.893956 241.29345 
L 161.086443 241.29345 
L 161.086443 240.734744 
L 162.219979 240.734744 
L 162.262754 239.61733 
L 162.348304 239.61733 
L 162.348304 239.058624 
L 162.63347 239.058624 
L 162.63347 238.499917 
L 162.868732 238.499917 
L 162.868732 237.94121 
L 163.082607 237.94121 
L 163.082607 237.382503 
L 163.695714 237.382503 
L 163.695714 236.823797 
L 164.045042 236.823797 
L 164.045042 236.26509 
L 164.159109 236.26509 
L 164.159109 235.706383 
L 164.422888 235.706383 
L 164.422888 235.147677 
L 164.693795 235.147677 
L 164.693795 234.58897 
L 164.829249 234.58897 
L 164.829249 234.030263 
L 165.114415 234.030263 
L 165.114415 233.471557 
L 165.563552 233.471557 
L 165.563552 232.91285 
L 165.791685 232.91285 
L 165.791685 232.354143 
L 165.927139 232.354143 
L 165.927139 231.795436 
L 166.183789 231.795436 
L 166.183789 231.23673 
L 166.440438 231.23673 
L 166.51173 230.119316 
L 166.554505 230.119316 
L 166.640054 229.001903 
L 167.559715 229.001903 
L 167.559715 228.443196 
L 167.673782 228.443196 
L 167.673782 227.88449 
L 167.94469 227.88449 
L 167.994594 225.649663 
L 168.229856 225.649663 
L 168.229856 225.090956 
L 168.372439 225.090956 
L 168.372439 224.532249 
L 169.363391 224.532249 
L 169.37052 223.414836 
L 170.005015 223.414836 
L 170.005015 222.856129 
L 170.13334 222.856129 
L 170.154727 221.738716 
L 170.782093 221.738716 
L 170.782093 221.180009 
L 171.124292 221.180009 
L 171.124292 220.621303 
L 171.288263 220.621303 
L 171.288263 220.062596 
L 171.765916 220.062596 
L 171.765916 219.503889 
L 171.944145 219.503889 
L 171.944145 218.945182 
L 172.193665 218.945182 
L 172.193665 218.386476 
L 172.614286 218.386476 
L 172.614286 217.827769 
L 172.74261 217.827769 
L 172.74261 217.269062 
L 172.906581 217.269062 
L 172.906581 216.710356 
L 173.241651 216.710356 
L 173.241651 216.151649 
L 173.58385 216.151649 
L 173.655142 215.034236 
L 173.740692 215.034236 
L 173.740692 214.475529 
L 174.204087 214.475529 
L 174.204087 213.916822 
L 174.467866 213.916822 
L 174.467866 213.358115 
L 174.646094 213.358115 
L 174.646094 212.799409 
L 175.080973 212.799409 
L 175.116619 211.681995 
L 175.380397 211.681995 
L 175.380397 211.123289 
L 175.544368 211.123289 
L 175.615659 210.005875 
L 175.736855 210.005875 
L 175.736855 209.447169 
L 176.292929 209.447169 
L 176.292929 208.888462 
L 176.428383 208.888462 
L 176.528191 207.771048 
L 177.048619 207.771048 
L 177.148428 206.653635 
L 177.561918 206.653635 
L 177.561918 206.094928 
L 177.975409 206.094928 
L 177.975409 205.536222 
L 178.089476 205.536222 
L 178.089476 204.977515 
L 178.232059 204.977515 
L 178.289092 203.860102 
L 178.438804 203.860102 
L 178.438804 203.301395 
L 178.930716 203.301395 
L 178.930716 202.742688 
L 179.187366 202.742688 
L 179.187366 202.183982 
L 179.415498 202.183982 
L 179.415498 201.625275 
L 179.693535 201.625275 
L 179.693535 201.066568 
L 179.836119 201.066568 
L 179.850377 199.949155 
L 180.049993 199.949155 
L 180.057122 198.831741 
L 180.549034 198.831741 
L 180.549034 198.273035 
L 180.67023 198.273035 
L 180.727263 197.155621 
L 180.848458 197.155621 
L 180.869846 196.038208 
L 181.012429 196.038208 
L 181.012429 195.479501 
L 181.261949 195.479501 
L 181.261949 194.920794 
L 181.625536 194.920794 
L 181.625536 194.362088 
L 181.860798 194.362088 
L 181.860798 193.803381 
L 182.010511 193.803381 
L 182.010511 193.244674 
L 182.210127 193.244674 
L 182.288548 191.568554 
L 182.445389 191.568554 
L 182.445389 191.009848 
L 182.702038 191.009848 
L 182.801847 189.892434 
L 183.094142 189.892434 
L 183.094142 189.333727 
L 183.215338 189.333727 
L 183.215338 188.775021 
L 183.422083 188.775021 
L 183.429212 187.657607 
L 183.714378 187.657607 
L 183.714378 187.098901 
L 184.134998 187.098901 
L 184.199161 185.981487 
L 184.634039 185.981487 
L 184.705331 184.864074 
L 184.833656 184.864074 
L 184.897818 183.746661 
L 185.168726 183.746661 
L 185.211501 182.629247 
L 185.5537 182.629247 
L 185.660637 181.511834 
L 186.238099 181.511834 
L 186.238099 180.953127 
L 186.423457 180.953127 
L 186.423457 180.39442 
L 186.615944 180.39442 
L 186.708623 179.277007 
L 186.972402 179.277007 
L 186.972402 178.159594 
L 186.972402 178.159594 
L 187.221922 178.159594 
L 187.221922 177.600887 
L 187.642542 177.600887 
L 187.685317 176.483473 
L 188.070291 176.483473 
L 188.16297 175.36606 
L 188.255649 175.36606 
L 188.255649 174.807353 
L 188.726174 174.807353 
L 188.726174 174.248647 
L 189.046986 174.248647 
L 189.09689 173.131233 
L 189.510381 173.131233 
L 189.510381 172.572527 
L 190.045067 172.572527 
L 190.045067 172.01382 
L 190.244683 172.01382 
L 190.244683 171.455113 
L 190.465687 171.455113 
L 190.52272 169.778993 
L 190.708078 169.778993 
L 190.793628 168.66158 
L 190.829274 168.66158 
L 190.829274 168.102873 
L 190.943341 168.102873 
L 190.943341 167.544166 
L 191.813097 167.544166 
L 191.87726 166.426753 
L 192.026972 166.426753 
L 192.026972 165.868046 
L 192.312138 165.868046 
L 192.340655 164.750633 
L 193.039312 164.750633 
L 193.146249 163.633219 
L 193.331607 163.633219 
L 193.352995 161.957099 
L 193.609644 161.957099 
L 193.609644 161.398393 
L 193.787873 161.398393 
L 193.80926 160.280979 
L 194.137202 160.280979 
L 194.137202 159.722273 
L 194.721792 159.722273 
L 194.721792 159.163566 
L 194.857246 159.163566 
L 194.857246 158.604859 
L 195.220833 158.604859 
L 195.220833 158.046152 
L 195.356287 158.046152 
L 195.356287 157.487446 
L 195.598678 157.487446 
L 195.598678 156.928739 
L 195.83394 156.928739 
L 195.83394 155.811326 
L 195.83394 155.811326 
L 195.976523 155.811326 
L 195.976523 155.252619 
L 196.161881 155.252619 
L 196.161881 154.693912 
L 196.354368 154.693912 
L 196.354368 154.135206 
L 196.625276 154.135206 
L 196.632405 153.017792 
L 197.131446 153.017792 
L 197.131446 152.459085 
L 197.402354 152.459085 
L 197.402354 151.900379 
L 197.623358 151.900379 
L 197.623358 151.341672 
L 197.744553 151.341672 
L 197.744553 150.782965 
L 198.086753 150.782965 
L 198.129528 149.665552 
L 198.286369 149.665552 
L 198.350532 148.548139 
L 198.414694 148.548139 
L 198.414694 147.989432 
L 198.949381 147.989432 
L 198.949381 147.430725 
L 199.491196 147.430725 
L 199.491196 146.872018 
L 199.869041 146.872018 
L 199.869041 146.313312 
L 200.147078 146.313312 
L 200.147078 145.754605 
L 200.503536 145.754605 
L 200.503536 145.195898 
L 200.881381 145.195898 
L 200.881381 144.637192 
L 201.294872 144.637192 
L 201.294872 144.078485 
L 201.629942 144.078485 
L 201.629942 143.519778 
L 201.907979 143.519778 
L 201.907979 142.961072 
L 203.055773 142.961072 
L 203.055773 142.402365 
L 203.326681 142.402365 
L 203.412231 141.284952 
L 203.711655 141.284952 
L 203.711655 140.726245 
L 204.752512 140.726245 
L 204.809545 139.608831 
L 205.173132 139.608831 
L 205.173132 139.050125 
L 205.501073 139.050125 
L 205.501073 138.491418 
L 206.192601 138.491418 
L 206.192601 137.932711 
L 206.598963 137.932711 
L 206.598963 137.374005 
L 206.976808 137.374005 
L 206.976808 136.815298 
L 207.276232 136.815298 
L 207.276232 136.256591 
L 207.611303 136.256591 
L 207.611303 135.697885 
L 208.345606 135.697885 
L 208.345606 135.139178 
L 208.737709 135.139178 
L 208.773355 134.021764 
L 209.015746 134.021764 
L 209.058521 132.904351 
L 210.127894 132.904351 
L 210.127894 132.345644 
L 210.448706 132.345644 
L 210.527127 131.228231 
L 211.924441 131.228231 
L 211.924441 130.669524 
L 212.316544 130.669524 
L 212.316544 130.110818 
L 213.706729 130.110818 
L 213.706729 129.552111 
L 214.098833 129.552111 
L 214.098833 128.993404 
L 214.826007 128.993404 
L 214.826007 128.434697 
L 215.489018 128.434697 
L 215.489018 127.875991 
L 215.873992 127.875991 
L 215.873992 127.317284 
L 216.572649 127.317284 
L 216.572649 126.758577 
L 217.264177 126.758577 
L 217.278436 125.641164 
L 218.376325 125.641164 
L 218.376325 125.082457 
L 218.690008 125.082457 
L 218.690008 124.523751 
L 219.082112 124.523751 
L 219.082112 123.965044 
L 220.094451 123.965044 
L 220.137226 122.84763 
L 220.572105 122.84763 
L 220.572105 122.288924 
L 220.878658 122.288924 
L 220.878658 121.730217 
L 221.534541 121.730217 
L 221.534541 121.17151 
L 221.926644 121.17151 
L 221.926644 120.612804 
L 222.333006 120.612804 
L 222.333006 120.054097 
L 222.561139 120.054097 
L 222.561139 119.49539 
L 222.675205 119.49539 
L 222.675205 118.936684 
L 222.960371 118.936684 
L 222.960371 118.377977 
L 223.751707 118.377977 
L 223.751707 117.81927 
L 223.986969 117.81927 
L 224.06539 116.701857 
L 224.40046 116.701857 
L 224.471752 115.584443 
L 225.384284 115.584443 
L 225.384284 115.025737 
L 225.569642 115.025737 
L 225.569642 114.46703 
L 225.83342 114.46703 
L 225.861937 113.349617 
L 226.246911 113.349617 
L 226.246911 112.79091 
L 226.810114 112.79091 
L 226.810114 112.232203 
L 227.344801 112.232203 
L 227.344801 111.673497 
L 227.665613 111.673497 
L 227.665613 111.11479 
L 228.014942 111.11479 
L 228.014942 110.556083 
L 228.250204 110.556083 
L 228.250204 109.997376 
L 229.134219 109.997376 
L 229.134219 109.43867 
L 229.419385 109.43867 
L 229.419385 108.879963 
L 229.683164 108.879963 
L 229.775843 107.76255 
L 231.130382 107.76255 
L 231.201673 106.645136 
L 232.556213 106.645136 
L 232.556213 106.08643 
L 232.962574 106.08643 
L 232.962574 105.527723 
L 233.974914 105.527723 
L 233.974914 104.969016 
L 234.759121 104.969016 
L 234.759121 104.410309 
L 235.136966 104.410309 
L 235.136966 103.851603 
L 235.407874 103.851603 
L 235.407874 103.292896 
L 236.548539 103.292896 
L 236.555668 102.175483 
L 236.812318 102.175483 
L 236.812318 101.616776 
L 237.967241 101.616776 
L 237.967241 101.058069 
L 238.209632 101.058069 
L 238.209632 100.499363 
L 238.330827 100.499363 
L 238.330827 99.940656 
L 239.385942 99.940656 
L 239.385942 99.381949 
L 240.113116 99.381949 
L 240.113116 98.823242 
L 241.902534 98.823242 
L 241.902534 98.264536 
L 249.894315 98.264536 
L 249.894315 97.705829 
L 251.669475 97.705829 
L 251.669475 97.147122 
L 252.368132 97.147122 
L 252.368132 96.588416 
L 253.430376 96.588416 
L 253.430376 96.029709 
L 254.15042 96.029709 
L 254.15042 95.471002 
L 255.932709 95.471002 
L 255.932709 94.912296 
L 257.729256 94.912296 
L 257.729256 94.353589 
L 259.525802 94.353589 
L 259.525802 93.794882 
L 261.336607 93.794882 
L 261.336607 93.236176 
L 261.507707 93.236176 
L 261.507707 92.677469 
L 263.140283 92.677469 
L 263.140283 92.118762 
L 264.908314 92.118762 
L 264.908314 91.560055 
L 266.690602 91.560055 
L 266.690602 91.001349 
L 267.859783 91.001349 
L 267.859783 90.442642 
L 269.285614 90.442642 
L 269.285614 89.883935 
L 270.24805 89.883935 
L 270.24805 89.325229 
L 270.718574 89.325229 
L 270.718574 88.766522 
L 272.037468 88.766522 
L 272.037468 88.207815 
L 272.165792 88.207815 
L 272.165792 87.649109 
L 273.584494 87.649109 
L 273.584494 87.090402 
L 274.497026 87.090402 
L 274.497026 86.531695 
L 275.003196 86.531695 
L 275.003196 85.972988 
L 275.594916 85.972988 
L 275.594916 85.414282 
L 275.89434 85.414282 
L 275.89434 84.855575 
L 276.436156 84.855575 
L 276.436156 84.296868 
L 277.313042 84.296868 
L 277.355817 83.179455 
L 277.83347 83.179455 
L 277.83347 82.620748 
L 278.753131 82.620748 
L 278.753131 82.062042 
L 279.173751 82.062042 
L 279.173751 81.503335 
L 280.19322 81.503335 
L 280.19322 80.944628 
L 280.956039 80.944628 
L 280.956039 80.385921 
L 281.619051 80.385921 
L 281.619051 79.827215 
L 282.72407 79.827215 
L 282.72407 79.268508 
L 283.052011 79.268508 
L 283.052011 78.709801 
L 284.449325 78.709801 
L 284.513487 77.592388 
L 285.889414 77.592388 
L 285.889414 77.033681 
L 286.310034 77.033681 
L 286.310034 76.474975 
L 287.308116 76.474975 
L 287.308116 75.916268 
L 288.092323 75.916268 
L 288.092323 75.357561 
L 288.70543 75.357561 
L 288.70543 74.798855 
L 289.88174 74.798855 
L 289.88174 74.240148 
L 290.131261 74.240148 
L 290.131261 73.681441 
L 291.564221 73.681441 
L 291.6569 72.564028 
L 292.990051 72.564028 
L 292.990051 72.005321 
L 293.467705 72.005321 
L 293.467705 71.446614 
L 294.408753 71.446614 
L 294.408753 70.887908 
L 295.27851 70.887908 
L 295.27851 70.329201 
L 295.798938 70.329201 
L 295.798938 69.770494 
L 295.984296 69.770494 
L 295.984296 69.211788 
L 297.196252 69.211788 
L 297.196252 68.653081 
L 298.508017 68.653081 
L 298.614954 67.535667 
L 300.047914 67.535667 
L 300.047914 66.976961 
L 300.988962 66.976961 
L 300.988962 66.418254 
L 301.488003 66.418254 
L 301.488003 65.859547 
L 302.899575 65.859547 
L 302.899575 65.300841 
L 304.339665 65.300841 
L 304.339665 64.742134 
L 305.758366 64.742134 
L 305.758366 64.183427 
L 307.16281 64.183427 
L 307.16281 63.624721 
L 308.567253 63.624721 
L 308.567253 63.066014 
L 309.993084 63.066014 
L 309.993084 62.507307 
L 311.404656 62.507307 
L 311.404656 61.9486 
L 332.421402 61.9486 
L 332.421402 61.389894 
L 334.253595 61.389894 
L 334.253595 60.831187 
L 336.078658 60.831187 
L 336.078658 60.27248 
L 337.853818 60.27248 
L 337.853818 59.713774 
L 339.643235 59.713774 
L 339.643235 59.155067 
L 341.432653 59.155067 
L 341.432653 58.59636 
L 343.193554 58.59636 
L 343.193554 58.037654 
L 345.025747 58.037654 
L 345.025747 57.478947 
L 346.829423 57.478947 
L 346.829423 56.92024 
L 348.604582 56.92024 
L 348.604582 56.361533 
L 350.379741 56.361533 
L 350.379741 55.802827 
L 352.16203 55.802827 
L 352.16203 55.24412 
L 353.93006 55.24412 
L 353.93006 54.685413 
L 355.712349 54.685413 
L 355.712349 54.126707 
L 398.487273 54.126707 
L 398.487273 53.568 
L 398.487273 53.568 
" clip-path="url(#p35f9035bd6)" style="fill: none; stroke: #ff7f0e; stroke-width: 1.5; stroke-linecap: square"/>
   </g>
   <g id="patch_3">
    <path d="M 57.6 307.584 
L 57.6 41.472 
" style="fill: none; stroke: #000000; stroke-width: 0.8; stroke-linejoin: miter; stroke-linecap: square"/>
   </g>
   <g id="patch_4">
    <path d="M 414.72 307.584 
L 414.72 41.472 
" style="fill: none; stroke: #000000; stroke-width: 0.8; stroke-linejoin: miter; stroke-linecap: square"/>
   </g>
   <g id="patch_5">
    <path d="M 57.6 307.584 
L 414.72 307.584 
" style="fill: none; stroke: #000000; stroke-width: 0.8; stroke-linejoin: miter; stroke-linecap: square"/>
   </g>
   <g id="patch_6">
    <path d="M 57.6 41.472 
L 414.72 41.472 
" style="fill: none; stroke: #000000; stroke-width: 0.8; stroke-linejoin: miter; stroke-linecap: square"/>
   </g>
   <g id="text_12">
    <!-- S1 S103 -->
    <g transform="translate(211.365 35.472) scale(0.12 -0.12)">
     <defs>
      <path id="DejaVuSans-53" d="M 3425 4513 
L 3425 3897 
Q 3066 4069 2747 4153 
Q 2428 4238 2131 4238 
Q 1616 4238 1336 4038 
Q 1056 3838 1056 3469 
Q 1056 3159 1242 3001 
Q 1428 2844 1947 2747 
L 2328 2669 
Q 3034 2534 3370 2195 
Q 3706 1856 3706 1288 
Q 3706 609 3251 259 
Q 2797 -91 1919 -91 
Q 1588 -91 1214 -16 
Q 841 59 441 206 
L 441 856 
Q 825 641 1194 531 
Q 1563 422 1919 422 
Q 2459 422 2753 634 
Q 3047 847 3047 1241 
Q 3047 1584 2836 1778 
Q 2625 1972 2144 2069 
L 1759 2144 
Q 1053 2284 737 2584 
Q 422 2884 422 3419 
Q 422 4038 858 4394 
Q 1294 4750 2059 4750 
Q 2388 4750 2728 4690 
Q 3069 4631 3425 4513 
z
" transform="scale(0.015625)"/>
      <path id="DejaVuSans-20" transform="scale(0.015625)"/>
     </defs>
     <use xlink:href="#DejaVuSans-53"/>
     <use xlink:href="#DejaVuSans-31" x="63.476562"/>
     <use xlink:href="#DejaVuSans-20" x="127.099609"/>
     <use xlink:href="#DejaVuSans-53" x="158.886719"/>
     <use xlink:href="#DejaVuSans-31" x="222.363281"/>
     <use xlink:href="#DejaVuSans-30" x="285.986328"/>
     <use xlink:href="#DejaVuSans-33" x="349.609375"/>
    </g>
   </g>
   <g id="legend_1">
    <g id="patch_7">
     <path d="M 81.077813 304.584 
L 410.52 304.584 
Q 411.72 304.584 411.72 303.384 
L 411.72 286.37025 
Q 411.72 285.17025 410.52 285.17025 
L 81.077813 285.17025 
Q 79.877813 285.17025 79.877813 286.37025 
L 79.877813 303.384 
Q 79.877813 304.584 81.077813 304.584 
z
" style="fill: #ffffff; opacity: 0.8; stroke: #cccccc; stroke-linejoin: miter"/>
    </g>
    <g id="line2d_14">
     <path d="M 82.277813 290.029312 
L 88.277813 290.029312 
L 94.277813 290.029312 
" style="fill: none; stroke: #1f77b4; stroke-width: 1.5; stroke-linecap: square"/>
    </g>
    <g id="text_13">
     <!-- Execution time between S1 S103 (xx1xx1xx1xx0yyy8xx0yyy8xx0yyy8xx0yyy8xx1xx1) -->
     <g transform="translate(99.077813 292.129312) scale(0.06 -0.06)">
      <defs>
       <path id="DejaVuSans-45" d="M 628 4666 
L 3578 4666 
L 3578 4134 
L 1259 4134 
L 1259 2753 
L 3481 2753 
L 3481 2222 
L 1259 2222 
L 1259 531 
L 3634 531 
L 3634 0 
L 628 0 
L 628 4666 
z
" transform="scale(0.015625)"/>
       <path id="DejaVuSans-78" d="M 3513 3500 
L 2247 1797 
L 3578 0 
L 2900 0 
L 1881 1375 
L 863 0 
L 184 0 
L 1544 1831 
L 300 3500 
L 978 3500 
L 1906 2253 
L 2834 3500 
L 3513 3500 
z
" transform="scale(0.015625)"/>
       <path id="DejaVuSans-65" d="M 3597 1894 
L 3597 1613 
L 953 1613 
Q 991 1019 1311 708 
Q 1631 397 2203 397 
Q 2534 397 2845 478 
Q 3156 559 3463 722 
L 3463 178 
Q 3153 47 2828 -22 
Q 2503 -91 2169 -91 
Q 1331 -91 842 396 
Q 353 884 353 1716 
Q 353 2575 817 3079 
Q 1281 3584 2069 3584 
Q 2775 3584 3186 3129 
Q 3597 2675 3597 1894 
z
M 3022 2063 
Q 3016 2534 2758 2815 
Q 2500 3097 2075 3097 
Q 1594 3097 1305 2825 
Q 1016 2553 972 2059 
L 3022 2063 
z
" transform="scale(0.015625)"/>
       <path id="DejaVuSans-63" d="M 3122 3366 
L 3122 2828 
Q 2878 2963 2633 3030 
Q 2388 3097 2138 3097 
Q 1578 3097 1268 2742 
Q 959 2388 959 1747 
Q 959 1106 1268 751 
Q 1578 397 2138 397 
Q 2388 397 2633 464 
Q 2878 531 3122 666 
L 3122 134 
Q 2881 22 2623 -34 
Q 2366 -91 2075 -91 
Q 1284 -91 818 406 
Q 353 903 353 1747 
Q 353 2603 823 3093 
Q 1294 3584 2113 3584 
Q 2378 3584 2631 3529 
Q 2884 3475 3122 3366 
z
" transform="scale(0.015625)"/>
       <path id="DejaVuSans-75" d="M 544 1381 
L 544 3500 
L 1119 3500 
L 1119 1403 
Q 1119 906 1312 657 
Q 1506 409 1894 409 
Q 2359 409 2629 706 
Q 2900 1003 2900 1516 
L 2900 3500 
L 3475 3500 
L 3475 0 
L 2900 0 
L 2900 538 
Q 2691 219 2414 64 
Q 2138 -91 1772 -91 
Q 1169 -91 856 284 
Q 544 659 544 1381 
z
M 1991 3584 
L 1991 3584 
z
" transform="scale(0.015625)"/>
       <path id="DejaVuSans-74" d="M 1172 4494 
L 1172 3500 
L 2356 3500 
L 2356 3053 
L 1172 3053 
L 1172 1153 
Q 1172 725 1289 603 
Q 1406 481 1766 481 
L 2356 481 
L 2356 0 
L 1766 0 
Q 1100 0 847 248 
Q 594 497 594 1153 
L 594 3053 
L 172 3053 
L 172 3500 
L 594 3500 
L 594 4494 
L 1172 4494 
z
" transform="scale(0.015625)"/>
       <path id="DejaVuSans-69" d="M 603 3500 
L 1178 3500 
L 1178 0 
L 603 0 
L 603 3500 
z
M 603 4863 
L 1178 4863 
L 1178 4134 
L 603 4134 
L 603 4863 
z
" transform="scale(0.015625)"/>
       <path id="DejaVuSans-6f" d="M 1959 3097 
Q 1497 3097 1228 2736 
Q 959 2375 959 1747 
Q 959 1119 1226 758 
Q 1494 397 1959 397 
Q 2419 397 2687 759 
Q 2956 1122 2956 1747 
Q 2956 2369 2687 2733 
Q 2419 3097 1959 3097 
z
M 1959 3584 
Q 2709 3584 3137 3096 
Q 3566 2609 3566 1747 
Q 3566 888 3137 398 
Q 2709 -91 1959 -91 
Q 1206 -91 779 398 
Q 353 888 353 1747 
Q 353 2609 779 3096 
Q 1206 3584 1959 3584 
z
" transform="scale(0.015625)"/>
       <path id="DejaVuSans-6e" d="M 3513 2113 
L 3513 0 
L 2938 0 
L 2938 2094 
Q 2938 2591 2744 2837 
Q 2550 3084 2163 3084 
Q 1697 3084 1428 2787 
Q 1159 2491 1159 1978 
L 1159 0 
L 581 0 
L 581 3500 
L 1159 3500 
L 1159 2956 
Q 1366 3272 1645 3428 
Q 1925 3584 2291 3584 
Q 2894 3584 3203 3211 
Q 3513 2838 3513 2113 
z
" transform="scale(0.015625)"/>
       <path id="DejaVuSans-6d" d="M 3328 2828 
Q 3544 3216 3844 3400 
Q 4144 3584 4550 3584 
Q 5097 3584 5394 3201 
Q 5691 2819 5691 2113 
L 5691 0 
L 5113 0 
L 5113 2094 
Q 5113 2597 4934 2840 
Q 4756 3084 4391 3084 
Q 3944 3084 3684 2787 
Q 3425 2491 3425 1978 
L 3425 0 
L 2847 0 
L 2847 2094 
Q 2847 2600 2669 2842 
Q 2491 3084 2119 3084 
Q 1678 3084 1418 2786 
Q 1159 2488 1159 1978 
L 1159 0 
L 581 0 
L 581 3500 
L 1159 3500 
L 1159 2956 
Q 1356 3278 1631 3431 
Q 1906 3584 2284 3584 
Q 2666 3584 2933 3390 
Q 3200 3197 3328 2828 
z
" transform="scale(0.015625)"/>
       <path id="DejaVuSans-62" d="M 3116 1747 
Q 3116 2381 2855 2742 
Q 2594 3103 2138 3103 
Q 1681 3103 1420 2742 
Q 1159 2381 1159 1747 
Q 1159 1113 1420 752 
Q 1681 391 2138 391 
Q 2594 391 2855 752 
Q 3116 1113 3116 1747 
z
M 1159 2969 
Q 1341 3281 1617 3432 
Q 1894 3584 2278 3584 
Q 2916 3584 3314 3078 
Q 3713 2572 3713 1747 
Q 3713 922 3314 415 
Q 2916 -91 2278 -91 
Q 1894 -91 1617 61 
Q 1341 213 1159 525 
L 1159 0 
L 581 0 
L 581 4863 
L 1159 4863 
L 1159 2969 
z
" transform="scale(0.015625)"/>
       <path id="DejaVuSans-77" d="M 269 3500 
L 844 3500 
L 1563 769 
L 2278 3500 
L 2956 3500 
L 3675 769 
L 4391 3500 
L 4966 3500 
L 4050 0 
L 3372 0 
L 2619 2869 
L 1863 0 
L 1184 0 
L 269 3500 
z
" transform="scale(0.015625)"/>
       <path id="DejaVuSans-28" d="M 1984 4856 
Q 1566 4138 1362 3434 
Q 1159 2731 1159 2009 
Q 1159 1288 1364 580 
Q 1569 -128 1984 -844 
L 1484 -844 
Q 1016 -109 783 600 
Q 550 1309 550 2009 
Q 550 2706 781 3412 
Q 1013 4119 1484 4856 
L 1984 4856 
z
" transform="scale(0.015625)"/>
       <path id="DejaVuSans-79" d="M 2059 -325 
Q 1816 -950 1584 -1140 
Q 1353 -1331 966 -1331 
L 506 -1331 
L 506 -850 
L 844 -850 
Q 1081 -850 1212 -737 
Q 1344 -625 1503 -206 
L 1606 56 
L 191 3500 
L 800 3500 
L 1894 763 
L 2988 3500 
L 3597 3500 
L 2059 -325 
z
" transform="scale(0.015625)"/>
       <path id="DejaVuSans-29" d="M 513 4856 
L 1013 4856 
Q 1481 4119 1714 3412 
Q 1947 2706 1947 2009 
Q 1947 1309 1714 600 
Q 1481 -109 1013 -844 
L 513 -844 
Q 928 -128 1133 580 
Q 1338 1288 1338 2009 
Q 1338 2731 1133 3434 
Q 928 4138 513 4856 
z
" transform="scale(0.015625)"/>
      </defs>
      <use xlink:href="#DejaVuSans-45"/>
      <use xlink:href="#DejaVuSans-78" x="63.183594"/>
      <use xlink:href="#DejaVuSans-65" x="119.238281"/>
      <use xlink:href="#DejaVuSans-63" x="180.761719"/>
      <use xlink:href="#DejaVuSans-75" x="235.742188"/>
      <use xlink:href="#DejaVuSans-74" x="299.121094"/>
      <use xlink:href="#DejaVuSans-69" x="338.330078"/>
      <use xlink:href="#DejaVuSans-6f" x="366.113281"/>
      <use xlink:href="#DejaVuSans-6e" x="427.294922"/>
      <use xlink:href="#DejaVuSans-20" x="490.673828"/>
      <use xlink:href="#DejaVuSans-74" x="522.460938"/>
      <use xlink:href="#DejaVuSans-69" x="561.669922"/>
      <use xlink:href="#DejaVuSans-6d" x="589.453125"/>
      <use xlink:href="#DejaVuSans-65" x="686.865234"/>
      <use xlink:href="#DejaVuSans-20" x="748.388672"/>
      <use xlink:href="#DejaVuSans-62" x="780.175781"/>
      <use xlink:href="#DejaVuSans-65" x="843.652344"/>
      <use xlink:href="#DejaVuSans-74" x="905.175781"/>
      <use xlink:href="#DejaVuSans-77" x="944.384766"/>
      <use xlink:href="#DejaVuSans-65" x="1026.171875"/>
      <use xlink:href="#DejaVuSans-65" x="1087.695312"/>
      <use xlink:href="#DejaVuSans-6e" x="1149.21875"/>
      <use xlink:href="#DejaVuSans-20" x="1212.597656"/>
      <use xlink:href="#DejaVuSans-53" x="1244.384766"/>
      <use xlink:href="#DejaVuSans-31" x="1307.861328"/>
      <use xlink:href="#DejaVuSans-20" x="1371.484375"/>
      <use xlink:href="#DejaVuSans-53" x="1403.271484"/>
      <use xlink:href="#DejaVuSans-31" x="1466.748047"/>
      <use xlink:href="#DejaVuSans-30" x="1530.371094"/>
      <use xlink:href="#DejaVuSans-33" x="1593.994141"/>
      <use xlink:href="#DejaVuSans-20" x="1657.617188"/>
      <use xlink:href="#DejaVuSans-28" x="1689.404297"/>
      <use xlink:href="#DejaVuSans-78" x="1728.417969"/>
      <use xlink:href="#DejaVuSans-78" x="1787.597656"/>
      <use xlink:href="#DejaVuSans-31" x="1846.777344"/>
      <use xlink:href="#DejaVuSans-78" x="1910.400391"/>
      <use xlink:href="#DejaVuSans-78" x="1969.580078"/>
      <use xlink:href="#DejaVuSans-31" x="2028.759766"/>
      <use xlink:href="#DejaVuSans-78" x="2092.382812"/>
      <use xlink:href="#DejaVuSans-78" x="2151.5625"/>
      <use xlink:href="#DejaVuSans-31" x="2210.742188"/>
      <use xlink:href="#DejaVuSans-78" x="2274.365234"/>
      <use xlink:href="#DejaVuSans-78" x="2333.544922"/>
      <use xlink:href="#DejaVuSans-30" x="2392.724609"/>
      <use xlink:href="#DejaVuSans-79" x="2456.347656"/>
      <use xlink:href="#DejaVuSans-79" x="2515.527344"/>
      <use xlink:href="#DejaVuSans-79" x="2574.707031"/>
      <use xlink:href="#DejaVuSans-38" x="2633.886719"/>
      <use xlink:href="#DejaVuSans-78" x="2697.509766"/>
      <use xlink:href="#DejaVuSans-78" x="2756.689453"/>
      <use xlink:href="#DejaVuSans-30" x="2815.869141"/>
      <use xlink:href="#DejaVuSans-79" x="2879.492188"/>
      <use xlink:href="#DejaVuSans-79" x="2938.671875"/>
      <use xlink:href="#DejaVuSans-79" x="2997.851562"/>
      <use xlink:href="#DejaVuSans-38" x="3057.03125"/>
      <use xlink:href="#DejaVuSans-78" x="3120.654297"/>
      <use xlink:href="#DejaVuSans-78" x="3179.833984"/>
      <use xlink:href="#DejaVuSans-30" x="3239.013672"/>
      <use xlink:href="#DejaVuSans-79" x="3302.636719"/>
      <use xlink:href="#DejaVuSans-79" x="3361.816406"/>
      <use xlink:href="#DejaVuSans-79" x="3420.996094"/>
      <use xlink:href="#DejaVuSans-38" x="3480.175781"/>
      <use xlink:href="#DejaVuSans-78" x="3543.798828"/>
      <use xlink:href="#DejaVuSans-78" x="3602.978516"/>
      <use xlink:href="#DejaVuSans-30" x="3662.158203"/>
      <use xlink:href="#DejaVuSans-79" x="3725.78125"/>
      <use xlink:href="#DejaVuSans-79" x="3784.960938"/>
      <use xlink:href="#DejaVuSans-79" x="3844.140625"/>
      <use xlink:href="#DejaVuSans-38" x="3903.320312"/>
      <use xlink:href="#DejaVuSans-78" x="3966.943359"/>
      <use xlink:href="#DejaVuSans-78" x="4026.123047"/>
      <use xlink:href="#DejaVuSans-31" x="4085.302734"/>
      <use xlink:href="#DejaVuSans-78" x="4148.925781"/>
      <use xlink:href="#DejaVuSans-78" x="4208.105469"/>
      <use xlink:href="#DejaVuSans-31" x="4267.285156"/>
      <use xlink:href="#DejaVuSans-29" x="4330.908203"/>
     </g>
    </g>
    <g id="line2d_15">
     <path d="M 82.277813 298.836187 
L 88.277813 298.836187 
L 94.277813 298.836187 
" style="fill: none; stroke: #ff7f0e; stroke-width: 1.5; stroke-linecap: square"/>
    </g>
    <g id="text_14">
     <!-- Execution time between S1 S103 (xx1xx2xx0yyy45xx0yyy45xx0yyy3xx1xx0yyy45xx0yyy45xx0yyy45) -->
     <g transform="translate(99.077813 300.936187) scale(0.06 -0.06)">
      <defs>
       <path id="DejaVuSans-35" d="M 691 4666 
L 3169 4666 
L 3169 4134 
L 1269 4134 
L 1269 2991 
Q 1406 3038 1543 3061 
Q 1681 3084 1819 3084 
Q 2600 3084 3056 2656 
Q 3513 2228 3513 1497 
Q 3513 744 3044 326 
Q 2575 -91 1722 -91 
Q 1428 -91 1123 -41 
Q 819 9 494 109 
L 494 744 
Q 775 591 1075 516 
Q 1375 441 1709 441 
Q 2250 441 2565 725 
Q 2881 1009 2881 1497 
Q 2881 1984 2565 2268 
Q 2250 2553 1709 2553 
Q 1456 2553 1204 2497 
Q 953 2441 691 2322 
L 691 4666 
z
" transform="scale(0.015625)"/>
      </defs>
      <use xlink:href="#DejaVuSans-45"/>
      <use xlink:href="#DejaVuSans-78" x="63.183594"/>
      <use xlink:href="#DejaVuSans-65" x="119.238281"/>
      <use xlink:href="#DejaVuSans-63" x="180.761719"/>
      <use xlink:href="#DejaVuSans-75" x="235.742188"/>
      <use xlink:href="#DejaVuSans-74" x="299.121094"/>
      <use xlink:href="#DejaVuSans-69" x="338.330078"/>
      <use xlink:href="#DejaVuSans-6f" x="366.113281"/>
      <use xlink:href="#DejaVuSans-6e" x="427.294922"/>
      <use xlink:href="#DejaVuSans-20" x="490.673828"/>
      <use xlink:href="#DejaVuSans-74" x="522.460938"/>
      <use xlink:href="#DejaVuSans-69" x="561.669922"/>
      <use xlink:href="#DejaVuSans-6d" x="589.453125"/>
      <use xlink:href="#DejaVuSans-65" x="686.865234"/>
      <use xlink:href="#DejaVuSans-20" x="748.388672"/>
      <use xlink:href="#DejaVuSans-62" x="780.175781"/>
      <use xlink:href="#DejaVuSans-65" x="843.652344"/>
      <use xlink:href="#DejaVuSans-74" x="905.175781"/>
      <use xlink:href="#DejaVuSans-77" x="944.384766"/>
      <use xlink:href="#DejaVuSans-65" x="1026.171875"/>
      <use xlink:href="#DejaVuSans-65" x="1087.695312"/>
      <use xlink:href="#DejaVuSans-6e" x="1149.21875"/>
      <use xlink:href="#DejaVuSans-20" x="1212.597656"/>
      <use xlink:href="#DejaVuSans-53" x="1244.384766"/>
      <use xlink:href="#DejaVuSans-31" x="1307.861328"/>
      <use xlink:href="#DejaVuSans-20" x="1371.484375"/>
      <use xlink:href="#DejaVuSans-53" x="1403.271484"/>
      <use xlink:href="#DejaVuSans-31" x="1466.748047"/>
      <use xlink:href="#DejaVuSans-30" x="1530.371094"/>
      <use xlink:href="#DejaVuSans-33" x="1593.994141"/>
      <use xlink:href="#DejaVuSans-20" x="1657.617188"/>
      <use xlink:href="#DejaVuSans-28" x="1689.404297"/>
      <use xlink:href="#DejaVuSans-78" x="1728.417969"/>
      <use xlink:href="#DejaVuSans-78" x="1787.597656"/>
      <use xlink:href="#DejaVuSans-31" x="1846.777344"/>
      <use xlink:href="#DejaVuSans-78" x="1910.400391"/>
      <use xlink:href="#DejaVuSans-78" x="1969.580078"/>
      <use xlink:href="#DejaVuSans-32" x="2028.759766"/>
      <use xlink:href="#DejaVuSans-78" x="2092.382812"/>
      <use xlink:href="#DejaVuSans-78" x="2151.5625"/>
      <use xlink:href="#DejaVuSans-30" x="2210.742188"/>
      <use xlink:href="#DejaVuSans-79" x="2274.365234"/>
      <use xlink:href="#DejaVuSans-79" x="2333.544922"/>
      <use xlink:href="#DejaVuSans-79" x="2392.724609"/>
      <use xlink:href="#DejaVuSans-34" x="2451.904297"/>
      <use xlink:href="#DejaVuSans-35" x="2515.527344"/>
      <use xlink:href="#DejaVuSans-78" x="2579.150391"/>
      <use xlink:href="#DejaVuSans-78" x="2638.330078"/>
      <use xlink:href="#DejaVuSans-30" x="2697.509766"/>
      <use xlink:href="#DejaVuSans-79" x="2761.132812"/>
      <use xlink:href="#DejaVuSans-79" x="2820.3125"/>
      <use xlink:href="#DejaVuSans-79" x="2879.492188"/>
      <use xlink:href="#DejaVuSans-34" x="2938.671875"/>
      <use xlink:href="#DejaVuSans-35" x="3002.294922"/>
      <use xlink:href="#DejaVuSans-78" x="3065.917969"/>
      <use xlink:href="#DejaVuSans-78" x="3125.097656"/>
      <use xlink:href="#DejaVuSans-30" x="3184.277344"/>
      <use xlink:href="#DejaVuSans-79" x="3247.900391"/>
      <use xlink:href="#DejaVuSans-79" x="3307.080078"/>
      <use xlink:href="#DejaVuSans-79" x="3366.259766"/>
      <use xlink:href="#DejaVuSans-33" x="3425.439453"/>
      <use xlink:href="#DejaVuSans-78" x="3489.0625"/>
      <use xlink:href="#DejaVuSans-78" x="3548.242188"/>
      <use xlink:href="#DejaVuSans-31" x="3607.421875"/>
      <use xlink:href="#DejaVuSans-78" x="3671.044922"/>
      <use xlink:href="#DejaVuSans-78" x="3730.224609"/>
      <use xlink:href="#DejaVuSans-30" x="3789.404297"/>
      <use xlink:href="#DejaVuSans-79" x="3853.027344"/>
      <use xlink:href="#DejaVuSans-79" x="3912.207031"/>
      <use xlink:href="#DejaVuSans-79" x="3971.386719"/>
      <use xlink:href="#DejaVuSans-34" x="4030.566406"/>
      <use xlink:href="#DejaVuSans-35" x="4094.189453"/>
      <use xlink:href="#DejaVuSans-78" x="4157.8125"/>
      <use xlink:href="#DejaVuSans-78" x="4216.992188"/>
      <use xlink:href="#DejaVuSans-30" x="4276.171875"/>
      <use xlink:href="#DejaVuSans-79" x="4339.794922"/>
      <use xlink:href="#DejaVuSans-79" x="4398.974609"/>
      <use xlink:href="#DejaVuSans-79" x="4458.154297"/>
      <use xlink:href="#DejaVuSans-34" x="4517.333984"/>
      <use xlink:href="#DejaVuSans-35" x="4580.957031"/>
      <use xlink:href="#DejaVuSans-78" x="4644.580078"/>
      <use xlink:href="#DejaVuSans-78" x="4703.759766"/>
      <use xlink:href="#DejaVuSans-30" x="4762.939453"/>
      <use xlink:href="#DejaVuSans-79" x="4826.5625"/>
      <use xlink:href="#DejaVuSans-79" x="4885.742188"/>
      <use xlink:href="#DejaVuSans-79" x="4944.921875"/>
      <use xlink:href="#DejaVuSans-34" x="5004.101562"/>
      <use xlink:href="#DejaVuSans-35" x="5067.724609"/>
      <use xlink:href="#DejaVuSans-29" x="5131.347656"/>
     </g>
    </g>
   </g>
  </g>
 </g>
 <defs>
  <clipPath id="p35f9035bd6">
   <rect x="57.6" y="41.472" width="357.12" height="266.112"/>
  </clipPath>
 </defs>
</svg>
