<?xml version="1.0" encoding="utf-8" standalone="no"?>
<!DOCTYPE svg PUBLIC "-//W3C//DTD SVG 1.1//EN"
  "http://www.w3.org/Graphics/SVG/1.1/DTD/svg11.dtd">
<svg xmlns:xlink="http://www.w3.org/1999/xlink" width="460.8pt" height="345.6pt" viewBox="0 0 460.8 345.6" xmlns="http://www.w3.org/2000/svg" version="1.1">
 <metadata>
  <rdf:RDF xmlns:dc="http://purl.org/dc/elements/1.1/" xmlns:cc="http://creativecommons.org/ns#" xmlns:rdf="http://www.w3.org/1999/02/22-rdf-syntax-ns#">
   <cc:Work>
    <dc:type rdf:resource="http://purl.org/dc/dcmitype/StillImage"/>
    <dc:date>2024-03-08T12:26:06.026363</dc:date>
    <dc:format>image/svg+xml</dc:format>
    <dc:creator>
     <cc:Agent>
      <dc:title>Matplotlib v3.8.2, https://matplotlib.org/</dc:title>
     </cc:Agent>
    </dc:creator>
   </cc:Work>
  </rdf:RDF>
 </metadata>
 <defs>
  <style type="text/css">*{stroke-linejoin: round; stroke-linecap: butt}</style>
 </defs>
 <g id="figure_1">
  <g id="patch_1">
   <path d="M 0 345.6 
L 460.8 345.6 
L 460.8 0 
L 0 0 
z
" style="fill: #ffffff"/>
  </g>
  <g id="axes_1">
   <g id="patch_2">
    <path d="M 57.6 307.584 
L 414.72 307.584 
L 414.72 41.472 
L 57.6 41.472 
z
" style="fill: #ffffff"/>
   </g>
   <g id="matplotlib.axis_1">
    <g id="xtick_1">
     <g id="line2d_1">
      <defs>
       <path id="m2e2c0c4cbf" d="M 0 0 
L 0 3.5 
" style="stroke: #000000; stroke-width: 0.8"/>
      </defs>
      <g>
       <use xlink:href="#m2e2c0c4cbf" x="71.657976" y="307.584" style="stroke: #000000; stroke-width: 0.8"/>
      </g>
     </g>
     <g id="text_1">
      <!-- 0.0 -->
      <g transform="translate(63.706413 322.182437) scale(0.1 -0.1)">
       <defs>
        <path id="DejaVuSans-30" d="M 2034 4250 
Q 1547 4250 1301 3770 
Q 1056 3291 1056 2328 
Q 1056 1369 1301 889 
Q 1547 409 2034 409 
Q 2525 409 2770 889 
Q 3016 1369 3016 2328 
Q 3016 3291 2770 3770 
Q 2525 4250 2034 4250 
z
M 2034 4750 
Q 2819 4750 3233 4129 
Q 3647 3509 3647 2328 
Q 3647 1150 3233 529 
Q 2819 -91 2034 -91 
Q 1250 -91 836 529 
Q 422 1150 422 2328 
Q 422 3509 836 4129 
Q 1250 4750 2034 4750 
z
" transform="scale(0.015625)"/>
        <path id="DejaVuSans-2e" d="M 684 794 
L 1344 794 
L 1344 0 
L 684 0 
L 684 794 
z
" transform="scale(0.015625)"/>
       </defs>
       <use xlink:href="#DejaVuSans-30"/>
       <use xlink:href="#DejaVuSans-2e" x="63.623047"/>
       <use xlink:href="#DejaVuSans-30" x="95.410156"/>
      </g>
     </g>
    </g>
    <g id="xtick_2">
     <g id="line2d_2">
      <g>
       <use xlink:href="#m2e2c0c4cbf" x="117.059888" y="307.584" style="stroke: #000000; stroke-width: 0.8"/>
      </g>
     </g>
     <g id="text_2">
      <!-- 0.5 -->
      <g transform="translate(109.108325 322.182437) scale(0.1 -0.1)">
       <defs>
        <path id="DejaVuSans-35" d="M 691 4666 
L 3169 4666 
L 3169 4134 
L 1269 4134 
L 1269 2991 
Q 1406 3038 1543 3061 
Q 1681 3084 1819 3084 
Q 2600 3084 3056 2656 
Q 3513 2228 3513 1497 
Q 3513 744 3044 326 
Q 2575 -91 1722 -91 
Q 1428 -91 1123 -41 
Q 819 9 494 109 
L 494 744 
Q 775 591 1075 516 
Q 1375 441 1709 441 
Q 2250 441 2565 725 
Q 2881 1009 2881 1497 
Q 2881 1984 2565 2268 
Q 2250 2553 1709 2553 
Q 1456 2553 1204 2497 
Q 953 2441 691 2322 
L 691 4666 
z
" transform="scale(0.015625)"/>
       </defs>
       <use xlink:href="#DejaVuSans-30"/>
       <use xlink:href="#DejaVuSans-2e" x="63.623047"/>
       <use xlink:href="#DejaVuSans-35" x="95.410156"/>
      </g>
     </g>
    </g>
    <g id="xtick_3">
     <g id="line2d_3">
      <g>
       <use xlink:href="#m2e2c0c4cbf" x="162.4618" y="307.584" style="stroke: #000000; stroke-width: 0.8"/>
      </g>
     </g>
     <g id="text_3">
      <!-- 1.0 -->
      <g transform="translate(154.510238 322.182437) scale(0.1 -0.1)">
       <defs>
        <path id="DejaVuSans-31" d="M 794 531 
L 1825 531 
L 1825 4091 
L 703 3866 
L 703 4441 
L 1819 4666 
L 2450 4666 
L 2450 531 
L 3481 531 
L 3481 0 
L 794 0 
L 794 531 
z
" transform="scale(0.015625)"/>
       </defs>
       <use xlink:href="#DejaVuSans-31"/>
       <use xlink:href="#DejaVuSans-2e" x="63.623047"/>
       <use xlink:href="#DejaVuSans-30" x="95.410156"/>
      </g>
     </g>
    </g>
    <g id="xtick_4">
     <g id="line2d_4">
      <g>
       <use xlink:href="#m2e2c0c4cbf" x="207.863712" y="307.584" style="stroke: #000000; stroke-width: 0.8"/>
      </g>
     </g>
     <g id="text_4">
      <!-- 1.5 -->
      <g transform="translate(199.91215 322.182437) scale(0.1 -0.1)">
       <use xlink:href="#DejaVuSans-31"/>
       <use xlink:href="#DejaVuSans-2e" x="63.623047"/>
       <use xlink:href="#DejaVuSans-35" x="95.410156"/>
      </g>
     </g>
    </g>
    <g id="xtick_5">
     <g id="line2d_5">
      <g>
       <use xlink:href="#m2e2c0c4cbf" x="253.265624" y="307.584" style="stroke: #000000; stroke-width: 0.8"/>
      </g>
     </g>
     <g id="text_5">
      <!-- 2.0 -->
      <g transform="translate(245.314062 322.182437) scale(0.1 -0.1)">
       <defs>
        <path id="DejaVuSans-32" d="M 1228 531 
L 3431 531 
L 3431 0 
L 469 0 
L 469 531 
Q 828 903 1448 1529 
Q 2069 2156 2228 2338 
Q 2531 2678 2651 2914 
Q 2772 3150 2772 3378 
Q 2772 3750 2511 3984 
Q 2250 4219 1831 4219 
Q 1534 4219 1204 4116 
Q 875 4013 500 3803 
L 500 4441 
Q 881 4594 1212 4672 
Q 1544 4750 1819 4750 
Q 2544 4750 2975 4387 
Q 3406 4025 3406 3419 
Q 3406 3131 3298 2873 
Q 3191 2616 2906 2266 
Q 2828 2175 2409 1742 
Q 1991 1309 1228 531 
z
" transform="scale(0.015625)"/>
       </defs>
       <use xlink:href="#DejaVuSans-32"/>
       <use xlink:href="#DejaVuSans-2e" x="63.623047"/>
       <use xlink:href="#DejaVuSans-30" x="95.410156"/>
      </g>
     </g>
    </g>
    <g id="xtick_6">
     <g id="line2d_6">
      <g>
       <use xlink:href="#m2e2c0c4cbf" x="298.667537" y="307.584" style="stroke: #000000; stroke-width: 0.8"/>
      </g>
     </g>
     <g id="text_6">
      <!-- 2.5 -->
      <g transform="translate(290.715974 322.182437) scale(0.1 -0.1)">
       <use xlink:href="#DejaVuSans-32"/>
       <use xlink:href="#DejaVuSans-2e" x="63.623047"/>
       <use xlink:href="#DejaVuSans-35" x="95.410156"/>
      </g>
     </g>
    </g>
    <g id="xtick_7">
     <g id="line2d_7">
      <g>
       <use xlink:href="#m2e2c0c4cbf" x="344.069449" y="307.584" style="stroke: #000000; stroke-width: 0.8"/>
      </g>
     </g>
     <g id="text_7">
      <!-- 3.0 -->
      <g transform="translate(336.117886 322.182437) scale(0.1 -0.1)">
       <defs>
        <path id="DejaVuSans-33" d="M 2597 2516 
Q 3050 2419 3304 2112 
Q 3559 1806 3559 1356 
Q 3559 666 3084 287 
Q 2609 -91 1734 -91 
Q 1441 -91 1130 -33 
Q 819 25 488 141 
L 488 750 
Q 750 597 1062 519 
Q 1375 441 1716 441 
Q 2309 441 2620 675 
Q 2931 909 2931 1356 
Q 2931 1769 2642 2001 
Q 2353 2234 1838 2234 
L 1294 2234 
L 1294 2753 
L 1863 2753 
Q 2328 2753 2575 2939 
Q 2822 3125 2822 3475 
Q 2822 3834 2567 4026 
Q 2313 4219 1838 4219 
Q 1578 4219 1281 4162 
Q 984 4106 628 3988 
L 628 4550 
Q 988 4650 1302 4700 
Q 1616 4750 1894 4750 
Q 2613 4750 3031 4423 
Q 3450 4097 3450 3541 
Q 3450 3153 3228 2886 
Q 3006 2619 2597 2516 
z
" transform="scale(0.015625)"/>
       </defs>
       <use xlink:href="#DejaVuSans-33"/>
       <use xlink:href="#DejaVuSans-2e" x="63.623047"/>
       <use xlink:href="#DejaVuSans-30" x="95.410156"/>
      </g>
     </g>
    </g>
    <g id="xtick_8">
     <g id="line2d_8">
      <g>
       <use xlink:href="#m2e2c0c4cbf" x="389.471361" y="307.584" style="stroke: #000000; stroke-width: 0.8"/>
      </g>
     </g>
     <g id="text_8">
      <!-- 3.5 -->
      <g transform="translate(381.519799 322.182437) scale(0.1 -0.1)">
       <use xlink:href="#DejaVuSans-33"/>
       <use xlink:href="#DejaVuSans-2e" x="63.623047"/>
       <use xlink:href="#DejaVuSans-35" x="95.410156"/>
      </g>
     </g>
    </g>
    <g id="text_9">
     <!-- 1e6 -->
     <g transform="translate(395.841875 334.860562) scale(0.1 -0.1)">
      <defs>
       <path id="DejaVuSans-65" d="M 3597 1894 
L 3597 1613 
L 953 1613 
Q 991 1019 1311 708 
Q 1631 397 2203 397 
Q 2534 397 2845 478 
Q 3156 559 3463 722 
L 3463 178 
Q 3153 47 2828 -22 
Q 2503 -91 2169 -91 
Q 1331 -91 842 396 
Q 353 884 353 1716 
Q 353 2575 817 3079 
Q 1281 3584 2069 3584 
Q 2775 3584 3186 3129 
Q 3597 2675 3597 1894 
z
M 3022 2063 
Q 3016 2534 2758 2815 
Q 2500 3097 2075 3097 
Q 1594 3097 1305 2825 
Q 1016 2553 972 2059 
L 3022 2063 
z
" transform="scale(0.015625)"/>
       <path id="DejaVuSans-36" d="M 2113 2584 
Q 1688 2584 1439 2293 
Q 1191 2003 1191 1497 
Q 1191 994 1439 701 
Q 1688 409 2113 409 
Q 2538 409 2786 701 
Q 3034 994 3034 1497 
Q 3034 2003 2786 2293 
Q 2538 2584 2113 2584 
z
M 3366 4563 
L 3366 3988 
Q 3128 4100 2886 4159 
Q 2644 4219 2406 4219 
Q 1781 4219 1451 3797 
Q 1122 3375 1075 2522 
Q 1259 2794 1537 2939 
Q 1816 3084 2150 3084 
Q 2853 3084 3261 2657 
Q 3669 2231 3669 1497 
Q 3669 778 3244 343 
Q 2819 -91 2113 -91 
Q 1303 -91 875 529 
Q 447 1150 447 2328 
Q 447 3434 972 4092 
Q 1497 4750 2381 4750 
Q 2619 4750 2861 4703 
Q 3103 4656 3366 4563 
z
" transform="scale(0.015625)"/>
      </defs>
      <use xlink:href="#DejaVuSans-31"/>
      <use xlink:href="#DejaVuSans-65" x="63.623047"/>
      <use xlink:href="#DejaVuSans-36" x="125.146484"/>
     </g>
    </g>
   </g>
   <g id="matplotlib.axis_2">
    <g id="ytick_1">
     <g id="line2d_9">
      <defs>
       <path id="mcac3f7dd8a" d="M 0 0 
L -3.5 0 
" style="stroke: #000000; stroke-width: 0.8"/>
      </defs>
      <g>
       <use xlink:href="#mcac3f7dd8a" x="57.6" y="295.488" style="stroke: #000000; stroke-width: 0.8"/>
      </g>
     </g>
     <g id="text_10">
      <!-- 0.0 -->
      <g transform="translate(34.696875 299.287219) scale(0.1 -0.1)">
       <use xlink:href="#DejaVuSans-30"/>
       <use xlink:href="#DejaVuSans-2e" x="63.623047"/>
       <use xlink:href="#DejaVuSans-30" x="95.410156"/>
      </g>
     </g>
    </g>
    <g id="ytick_2">
     <g id="line2d_10">
      <g>
       <use xlink:href="#mcac3f7dd8a" x="57.6" y="265.248" style="stroke: #000000; stroke-width: 0.8"/>
      </g>
     </g>
     <g id="text_11">
      <!-- 2.5 -->
      <g transform="translate(34.696875 269.047219) scale(0.1 -0.1)">
       <use xlink:href="#DejaVuSans-32"/>
       <use xlink:href="#DejaVuSans-2e" x="63.623047"/>
       <use xlink:href="#DejaVuSans-35" x="95.410156"/>
      </g>
     </g>
    </g>
    <g id="ytick_3">
     <g id="line2d_11">
      <g>
       <use xlink:href="#mcac3f7dd8a" x="57.6" y="235.008" style="stroke: #000000; stroke-width: 0.8"/>
      </g>
     </g>
     <g id="text_12">
      <!-- 5.0 -->
      <g transform="translate(34.696875 238.807219) scale(0.1 -0.1)">
       <use xlink:href="#DejaVuSans-35"/>
       <use xlink:href="#DejaVuSans-2e" x="63.623047"/>
       <use xlink:href="#DejaVuSans-30" x="95.410156"/>
      </g>
     </g>
    </g>
    <g id="ytick_4">
     <g id="line2d_12">
      <g>
       <use xlink:href="#mcac3f7dd8a" x="57.6" y="204.768" style="stroke: #000000; stroke-width: 0.8"/>
      </g>
     </g>
     <g id="text_13">
      <!-- 7.5 -->
      <g transform="translate(34.696875 208.567219) scale(0.1 -0.1)">
       <defs>
        <path id="DejaVuSans-37" d="M 525 4666 
L 3525 4666 
L 3525 4397 
L 1831 0 
L 1172 0 
L 2766 4134 
L 525 4134 
L 525 4666 
z
" transform="scale(0.015625)"/>
       </defs>
       <use xlink:href="#DejaVuSans-37"/>
       <use xlink:href="#DejaVuSans-2e" x="63.623047"/>
       <use xlink:href="#DejaVuSans-35" x="95.410156"/>
      </g>
     </g>
    </g>
    <g id="ytick_5">
     <g id="line2d_13">
      <g>
       <use xlink:href="#mcac3f7dd8a" x="57.6" y="174.528" style="stroke: #000000; stroke-width: 0.8"/>
      </g>
     </g>
     <g id="text_14">
      <!-- 10.0 -->
      <g transform="translate(28.334375 178.327219) scale(0.1 -0.1)">
       <use xlink:href="#DejaVuSans-31"/>
       <use xlink:href="#DejaVuSans-30" x="63.623047"/>
       <use xlink:href="#DejaVuSans-2e" x="127.246094"/>
       <use xlink:href="#DejaVuSans-30" x="159.033203"/>
      </g>
     </g>
    </g>
    <g id="ytick_6">
     <g id="line2d_14">
      <g>
       <use xlink:href="#mcac3f7dd8a" x="57.6" y="144.288" style="stroke: #000000; stroke-width: 0.8"/>
      </g>
     </g>
     <g id="text_15">
      <!-- 12.5 -->
      <g transform="translate(28.334375 148.087219) scale(0.1 -0.1)">
       <use xlink:href="#DejaVuSans-31"/>
       <use xlink:href="#DejaVuSans-32" x="63.623047"/>
       <use xlink:href="#DejaVuSans-2e" x="127.246094"/>
       <use xlink:href="#DejaVuSans-35" x="159.033203"/>
      </g>
     </g>
    </g>
    <g id="ytick_7">
     <g id="line2d_15">
      <g>
       <use xlink:href="#mcac3f7dd8a" x="57.6" y="114.048" style="stroke: #000000; stroke-width: 0.8"/>
      </g>
     </g>
     <g id="text_16">
      <!-- 15.0 -->
      <g transform="translate(28.334375 117.847219) scale(0.1 -0.1)">
       <use xlink:href="#DejaVuSans-31"/>
       <use xlink:href="#DejaVuSans-35" x="63.623047"/>
       <use xlink:href="#DejaVuSans-2e" x="127.246094"/>
       <use xlink:href="#DejaVuSans-30" x="159.033203"/>
      </g>
     </g>
    </g>
    <g id="ytick_8">
     <g id="line2d_16">
      <g>
       <use xlink:href="#mcac3f7dd8a" x="57.6" y="83.808" style="stroke: #000000; stroke-width: 0.8"/>
      </g>
     </g>
     <g id="text_17">
      <!-- 17.5 -->
      <g transform="translate(28.334375 87.607219) scale(0.1 -0.1)">
       <use xlink:href="#DejaVuSans-31"/>
       <use xlink:href="#DejaVuSans-37" x="63.623047"/>
       <use xlink:href="#DejaVuSans-2e" x="127.246094"/>
       <use xlink:href="#DejaVuSans-35" x="159.033203"/>
      </g>
     </g>
    </g>
    <g id="ytick_9">
     <g id="line2d_17">
      <g>
       <use xlink:href="#mcac3f7dd8a" x="57.6" y="53.568" style="stroke: #000000; stroke-width: 0.8"/>
      </g>
     </g>
     <g id="text_18">
      <!-- 20.0 -->
      <g transform="translate(28.334375 57.367219) scale(0.1 -0.1)">
       <use xlink:href="#DejaVuSans-32"/>
       <use xlink:href="#DejaVuSans-30" x="63.623047"/>
       <use xlink:href="#DejaVuSans-2e" x="127.246094"/>
       <use xlink:href="#DejaVuSans-30" x="159.033203"/>
      </g>
     </g>
    </g>
   </g>
   <g id="line2d_18">
    <path d="M 73.832727 283.392 
L 74.037036 295.488 
L 74.149633 283.392 
L 74.353941 295.488 
L 74.46563 283.392 
L 74.669939 295.488 
L 74.782535 283.392 
L 74.986844 295.488 
L 75.105797 283.392 
L 75.310105 295.488 
L 75.422702 283.392 
L 75.627011 295.488 
L 75.737792 283.392 
L 75.9421 295.488 
L 76.053789 283.392 
L 76.258097 295.488 
L 76.376142 283.392 
L 76.580451 295.488 
L 76.69668 283.392 
L 76.900988 295.488 
L 77.014493 283.392 
L 77.218802 295.488 
L 77.333215 283.392 
L 77.537523 295.488 
L 77.653752 283.392 
L 77.858061 295.488 
L 77.975198 283.392 
L 78.179506 295.488 
L 78.297551 283.392 
L 78.50186 295.488 
L 78.609916 283.392 
L 78.814225 295.488 
L 84.445878 283.392 
L 84.696497 198.72 
L 84.706485 210.816 
L 84.733726 222.912 
L 84.97254 210.816 
L 85.066068 235.008 
L 85.282181 222.912 
L 85.434732 235.008 
L 85.461973 247.104 
L 85.599995 235.008 
L 85.774338 247.104 
L 85.800671 259.2 
L 85.913268 247.104 
L 86.140278 259.2 
L 86.167519 271.296 
L 86.233806 259.2 
L 86.497137 271.296 
L 86.524378 283.392 
L 86.550711 271.296 
L 86.858536 283.392 
L 86.868524 271.296 
L 87.041052 283.392 
L 87.18997 271.296 
L 87.234464 283.392 
L 87.503243 271.296 
L 87.707552 295.488 
L 87.820148 283.392 
L 88.024457 295.488 
L 88.131605 283.392 
L 88.335914 295.488 
L 88.447603 283.392 
L 88.651911 295.488 
L 88.769956 283.392 
L 88.974265 295.488 
L 89.082322 283.392 
L 89.28663 295.488 
L 89.395595 283.392 
L 89.599903 295.488 
L 89.717948 283.392 
L 89.922257 295.488 
L 90.039394 283.392 
L 90.243702 295.488 
L 90.361747 283.392 
L 90.566056 295.488 
L 90.671388 283.392 
L 90.875697 295.488 
L 90.987386 283.392 
L 91.191694 295.488 
L 91.304291 283.392 
L 91.5086 295.488 
L 91.629369 283.392 
L 91.833677 295.488 
L 91.945366 283.392 
L 92.149675 295.488 
L 92.258639 283.392 
L 92.462948 295.488 
L 92.571913 283.392 
L 92.776221 295.488 
L 92.88791 283.392 
L 93.092218 295.488 
L 93.204815 283.392 
L 93.409124 295.488 
L 93.51718 283.392 
L 93.721489 295.488 
L 93.834086 283.392 
L 94.038394 295.488 
L 94.154623 283.392 
L 94.358932 295.488 
L 94.475161 283.392 
L 94.679469 295.488 
L 94.79025 283.392 
L 94.994559 295.488 
L 95.106247 283.392 
L 95.310556 295.488 
L 95.423153 283.392 
L 95.627461 295.488 
L 95.74369 283.392 
L 95.947999 295.488 
L 96.058779 283.392 
L 96.263088 295.488 
L 96.379317 283.392 
L 96.583625 295.488 
L 96.700762 283.392 
L 96.905071 295.488 
L 97.013128 283.392 
L 97.217436 295.488 
L 97.331849 283.392 
L 97.536158 295.488 
L 97.653295 283.392 
L 97.857603 295.488 
L 98.282565 283.392 
L 98.486874 295.488 
L 98.600378 283.392 
L 98.804687 295.488 
L 98.916376 283.392 
L 99.120684 295.488 
L 99.228741 283.392 
L 99.461199 295.488 
L 99.547462 283.392 
L 99.790817 295.488 
L 99.86346 283.392 
L 100.067768 295.488 
L 100.184905 283.392 
L 100.389214 295.488 
L 100.507259 283.392 
L 100.711567 295.488 
L 100.82144 283.392 
L 101.025749 295.488 
L 101.144702 283.392 
L 101.34901 295.488 
L 101.460699 283.392 
L 101.665007 295.488 
L 101.777604 283.392 
L 101.981913 295.488 
L 102.092693 283.392 
L 102.297002 295.488 
L 102.405059 283.392 
L 102.609367 295.488 
L 102.730136 283.392 
L 102.934445 295.488 
L 103.047042 283.392 
L 103.25135 295.488 
L 103.363039 283.392 
L 103.567348 295.488 
L 103.684485 283.392 
L 103.888793 295.488 
L 104.004114 283.392 
L 104.208423 295.488 
L 104.324651 283.392 
L 104.52896 295.488 
L 104.640649 283.392 
L 104.844957 295.488 
L 104.95483 283.392 
L 105.159139 295.488 
L 105.275368 283.392 
L 105.479676 295.488 
L 105.591365 283.392 
L 105.795673 295.488 
L 105.902822 283.392 
L 106.107131 295.488 
L 106.220635 283.392 
L 106.424944 295.488 
L 106.531184 283.392 
L 106.735493 295.488 
L 106.851722 283.392 
L 107.056031 295.488 
L 107.166811 283.392 
L 107.37112 295.488 
L 107.483717 283.392 
L 107.688025 295.488 
L 107.79699 283.392 
L 108.001298 295.488 
L 108.112079 283.392 
L 108.316388 295.488 
L 108.432617 283.392 
L 108.636925 295.488 
L 108.747706 283.392 
L 108.952014 295.488 
L 109.060979 283.392 
L 109.265288 295.488 
L 109.385149 283.392 
L 109.589457 295.488 
L 109.702962 283.392 
L 109.907271 295.488 
L 110.027132 283.392 
L 110.23144 295.488 
L 110.344945 283.392 
L 110.549254 295.488 
L 111.49543 283.392 
L 111.699738 295.488 
L 111.721531 283.392 
L 111.92584 295.488 
L 111.951265 283.392 
L 112.155573 295.488 
L 112.183722 283.392 
L 112.388031 295.488 
L 112.408916 283.392 
L 112.613225 295.488 
L 112.636834 283.392 
L 112.841142 295.488 
L 112.862027 283.392 
L 113.066336 295.488 
L 113.087221 283.392 
L 113.291529 295.488 
L 113.315138 283.392 
L 113.519447 295.488 
L 113.540332 283.392 
L 113.74464 295.488 
L 113.767341 283.392 
L 113.97165 295.488 
L 113.996167 283.392 
L 114.200475 295.488 
L 114.223176 283.392 
L 114.427485 295.488 
L 114.455634 283.392 
L 114.659943 295.488 
L 114.682644 283.392 
L 114.886952 295.488 
L 114.910561 283.392 
L 115.11487 295.488 
L 115.136663 283.392 
L 115.340971 295.488 
L 126.255591 283.392 
L 126.4599 295.488 
L 126.485325 283.392 
L 126.689633 295.488 
L 126.708702 283.392 
L 126.913011 295.488 
L 126.942976 283.392 
L 127.147285 295.488 
L 127.169078 283.392 
L 127.373386 295.488 
L 127.396087 283.392 
L 127.600396 295.488 
L 127.624005 283.392 
L 127.767475 271.296 
L 127.949991 126.144 
L 127.999933 162.432 
L 128.013553 174.528 
L 128.104357 162.432 
L 128.167012 101.952 
L 128.355884 114.048 
L 128.400377 101.952 
L 128.872557 114.048 
L 128.917959 101.952 
L 129.335657 114.048 
L 129.380151 101.952 
L 129.796032 114.048 
L 129.830538 101.952 
L 129.832354 114.048 
L 130.307258 101.952 
L 130.349028 114.048 
L 130.799415 101.952 
L 130.842092 114.048 
L 131.327893 101.952 
L 131.369663 126.144 
L 131.474087 114.048 
L 131.852739 126.144 
L 131.856371 114.048 
L 131.893601 150.336 
L 131.927198 138.24 
L 132.154208 126.144 
L 132.333091 138.24 
L 132.373953 174.528 
L 132.383941 162.432 
L 132.607319 150.336 
L 132.817984 162.432 
L 132.858845 186.624 
L 133.282899 162.432 
L 133.367347 186.624 
L 133.394588 210.816 
L 133.506277 198.72 
L 133.730562 186.624 
L 133.83771 210.816 
L 133.864952 235.008 
L 133.955755 222.912 
L 134.181857 210.816 
L 134.368913 222.912 
L 134.409775 247.104 
L 134.862886 222.912 
L 134.905563 271.296 
L 135.312365 247.104 
L 135.420421 271.296 
L 135.516673 295.488 
L 135.539374 283.392 
L 135.769108 271.296 
L 135.973416 295.488 
L 135.996117 283.392 
L 136.200426 295.488 
L 136.224943 283.392 
L 136.429252 295.488 
L 136.455585 283.392 
L 136.659893 295.488 
L 136.682594 283.392 
L 136.886903 295.488 
L 136.910512 283.392 
L 137.114821 295.488 
L 137.136613 283.392 
L 137.340922 295.488 
L 137.360899 283.392 
L 137.565207 295.488 
L 137.591541 283.392 
L 137.795849 295.488 
L 137.81855 283.392 
L 138.022859 295.488 
L 138.041928 283.392 
L 138.246236 295.488 
L 138.269845 283.392 
L 138.474154 295.488 
L 138.495039 283.392 
L 138.699347 295.488 
L 138.724772 283.392 
L 138.929081 295.488 
L 138.956322 283.392 
L 139.160631 295.488 
L 139.185148 283.392 
L 139.389456 295.488 
L 139.409433 283.392 
L 139.613742 295.488 
L 139.633719 283.392 
L 139.838027 295.488 
L 139.858004 283.392 
L 140.062313 295.488 
L 140.079565 283.392 
L 140.283874 295.488 
L 140.304759 283.392 
L 140.509067 295.488 
L 140.529044 283.392 
L 140.733353 295.488 
L 140.754238 283.392 
L 140.958546 295.488 
L 140.985788 283.392 
L 141.190096 295.488 
L 141.212797 283.392 
L 141.417106 295.488 
L 141.437083 283.392 
L 141.641391 295.488 
L 141.66046 283.392 
L 141.864769 295.488 
L 141.884745 283.392 
L 142.089054 295.488 
L 142.115387 283.392 
L 142.319696 295.488 
L 142.342397 283.392 
L 142.546705 295.488 
L 142.574854 283.392 
L 142.779163 295.488 
L 142.805496 283.392 
L 143.009805 295.488 
L 143.034322 283.392 
L 143.23863 295.488 
L 143.259515 283.392 
L 143.463824 295.488 
L 143.484709 283.392 
L 143.689017 295.488 
L 143.709902 283.392 
L 143.914211 295.488 
L 143.934188 283.392 
L 144.138496 295.488 
L 144.164829 283.392 
L 144.369138 295.488 
L 144.392747 283.392 
L 144.597056 295.488 
L 144.618849 283.392 
L 144.823157 295.488 
L 144.845858 283.392 
L 145.050167 295.488 
L 145.079224 283.392 
L 145.283533 295.488 
L 145.306234 283.392 
L 145.510542 295.488 
L 145.535059 283.392 
L 145.739368 295.488 
L 145.761161 283.392 
L 145.965469 295.488 
L 145.986354 283.392 
L 146.190663 295.488 
L 146.216088 283.392 
L 146.420396 295.488 
L 146.444913 283.392 
L 146.649222 295.488 
L 146.676463 283.392 
L 146.880772 295.488 
L 146.902565 283.392 
L 147.106873 295.488 
L 147.127758 283.392 
L 147.332067 295.488 
L 147.3584 283.392 
L 147.562709 295.488 
L 147.58541 283.392 
L 147.789718 295.488 
L 147.812419 283.392 
L 148.016728 295.488 
L 148.041245 283.392 
L 148.245553 295.488 
L 148.272794 283.392 
L 148.477103 295.488 
L 148.496172 283.392 
L 148.70048 295.488 
L 148.725906 283.392 
L 148.930214 295.488 
L 148.958363 283.392 
L 149.162672 295.488 
L 149.191729 283.392 
L 149.396038 295.488 
L 149.415107 283.392 
L 149.619415 295.488 
L 149.638484 283.392 
L 149.842793 295.488 
L 149.859137 283.392 
L 150.063446 295.488 
L 150.081607 283.392 
L 150.285915 295.488 
L 150.307708 283.392 
L 150.512017 295.488 
L 150.527453 283.392 
L 150.731762 295.488 
L 150.757187 283.392 
L 150.961496 295.488 
L 150.986921 283.392 
L 151.191229 295.488 
L 151.219379 283.392 
L 151.423687 295.488 
L 151.444572 283.392 
L 151.648881 295.488 
L 151.668857 283.392 
L 151.873166 295.488 
L 151.891327 283.392 
L 152.095635 295.488 
L 152.117428 283.392 
L 152.321737 295.488 
L 152.34353 283.392 
L 152.547839 295.488 
L 152.571448 283.392 
L 152.775756 295.488 
L 152.797549 283.392 
L 153.001858 295.488 
L 153.023651 283.392 
L 153.227959 295.488 
L 153.247936 283.392 
L 153.452245 295.488 
L 153.478578 283.392 
L 153.682886 295.488 
L 153.703771 283.392 
L 153.90808 295.488 
L 153.931689 283.392 
L 154.135997 295.488 
L 154.161422 283.392 
L 154.365731 295.488 
L 154.382984 283.392 
L 154.587292 295.488 
L 154.605453 283.392 
L 154.809762 295.488 
L 154.827923 283.392 
L 155.032231 295.488 
L 155.058564 283.392 
L 155.262873 295.488 
L 155.286482 283.392 
L 155.49079 295.488 
L 155.518032 283.392 
L 155.72234 295.488 
L 155.749581 283.392 
L 155.95389 295.488 
L 155.975683 283.392 
L 156.179991 295.488 
L 156.206325 283.392 
L 156.410633 295.488 
L 156.433334 283.392 
L 156.637643 295.488 
L 156.661252 283.392 
L 156.86556 295.488 
L 156.884629 283.392 
L 157.088938 295.488 
L 157.113455 283.392 
L 157.317763 295.488 
L 157.336832 283.392 
L 157.541141 295.488 
L 157.562934 283.392 
L 157.767242 295.488 
L 157.793575 283.392 
L 157.997884 295.488 
L 158.018769 283.392 
L 158.223078 295.488 
L 158.243962 283.392 
L 158.448271 295.488 
L 158.47188 283.392 
L 158.676189 295.488 
L 158.701614 283.392 
L 158.905922 295.488 
L 158.926807 283.392 
L 159.131116 295.488 
L 159.149277 283.392 
L 159.353585 295.488 
L 159.377194 283.392 
L 159.581503 295.488 
L 159.605112 283.392 
L 159.80942 295.488 
L 159.833937 283.392 
L 160.038246 295.488 
L 160.057315 283.392 
L 160.261623 295.488 
L 160.289773 283.392 
L 160.494081 295.488 
L 160.519506 283.392 
L 160.723815 295.488 
L 160.741068 283.392 
L 160.945376 295.488 
L 160.966261 283.392 
L 161.17057 295.488 
L 161.189638 283.392 
L 161.417556 271.296 
L 161.603704 283.392 
L 161.648198 271.296 
L 162.100401 259.2 
L 164.597506 126.144 
L 165.036088 114.048 
L 172.229567 114.048 
L 172.243188 126.144 
L 172.244096 114.048 
L 172.680862 114.048 
L 172.694483 126.144 
L 172.695391 114.048 
L 173.649739 114.048 
L 173.689693 101.952 
L 173.690601 114.048 
L 174.164597 101.952 
L 174.206367 114.048 
L 174.71396 101.952 
L 174.75573 138.24 
L 175.235174 150.336 
L 175.275128 186.624 
L 175.768192 198.72 
L 175.809054 235.008 
L 176.286682 247.104 
L 176.327544 283.392 
L 176.783379 295.488 
L 177.066687 283.392 
L 177.270996 295.488 
L 177.506178 101.952 
L 177.562476 150.336 
L 177.976541 126.144 
L 178.055541 174.528 
L 178.435101 150.336 
L 178.526813 186.624 
L 178.540433 198.72 
L 178.895476 174.528 
L 179.009889 198.72 
L 179.036222 222.912 
L 179.121578 210.816 
L 179.352219 198.72 
L 179.507494 210.816 
L 179.548356 247.104 
L 179.576505 235.008 
L 179.80079 222.912 
L 179.984214 235.008 
L 180.025076 271.296 
L 180.028708 259.2 
L 180.532669 271.296 
L 180.563542 295.488 
L 186.404952 283.392 
L 186.609261 295.488 
L 186.72095 283.392 
L 186.925258 295.488 
L 187.039671 283.392 
L 187.24398 295.488 
L 187.352944 283.392 
L 187.557253 295.488 
L 187.569057 283.392 
L 187.731596 271.296 
L 187.901399 210.816 
L 187.937721 222.912 
L 187.992203 247.104 
L 188.131133 222.912 
L 188.288224 198.72 
L 188.329086 222.912 
L 188.570624 210.816 
L 188.691393 235.008 
L 188.888437 222.912 
L 189.030091 235.008 
L 189.057332 247.104 
L 189.203526 235.008 
L 189.383318 247.104 
L 189.410559 259.2 
L 189.5168 247.104 
L 189.734729 259.2 
L 189.76197 271.296 
L 189.832797 259.2 
L 190.096128 271.296 
L 190.123369 283.392 
L 190.156058 271.296 
L 190.452079 283.392 
L 190.475688 271.296 
L 190.648215 283.392 
L 190.788053 271.296 
L 190.81711 283.392 
L 190.992362 295.488 
L 191.109499 283.392 
L 191.313807 295.488 
L 191.425496 283.392 
L 191.629805 295.488 
L 191.743309 283.392 
L 191.947618 295.488 
L 192.059307 283.392 
L 192.263615 295.488 
L 192.384384 283.392 
L 192.588693 295.488 
L 192.693117 283.392 
L 192.897426 295.488 
L 193.006391 283.392 
L 193.210699 295.488 
L 198.858697 283.392 
L 199.109316 198.72 
L 199.119304 210.816 
L 199.464358 198.72 
L 199.501588 222.912 
L 199.679564 210.816 
L 199.819401 222.912 
L 199.846643 235.008 
L 199.997377 222.912 
L 200.188065 235.008 
L 200.215306 247.104 
L 200.307018 235.008 
L 200.535844 247.104 
L 200.563085 259.2 
L 200.627555 247.104 
L 200.889979 259.2 
L 200.91722 271.296 
L 200.947185 259.2 
L 201.271355 271.296 
L 201.272263 259.2 
L 201.298596 271.296 
L 201.585536 259.2 
L 201.758063 283.392 
L 201.907889 271.296 
L 201.979624 283.392 
L 202.222071 271.296 
L 202.426379 295.488 
L 202.539884 283.392 
L 202.744193 295.488 
L 202.862238 283.392 
L 203.066546 295.488 
L 203.186407 283.392 
L 203.390716 295.488 
L 203.494232 283.392 
L 203.698541 295.488 
L 203.808413 283.392 
L 204.012722 295.488 
L 204.127135 283.392 
L 204.331443 295.488 
L 204.437684 283.392 
L 204.641993 295.488 
L 204.746417 283.392 
L 204.950726 295.488 
L 205.066954 283.392 
L 205.271263 295.488 
L 205.37932 283.392 
L 205.583628 295.488 
L 205.700765 283.392 
L 205.905074 295.488 
L 206.024935 283.392 
L 206.229243 295.488 
L 206.34638 283.392 
L 206.550689 295.488 
L 206.656929 283.392 
L 206.861238 295.488 
L 206.974743 283.392 
L 207.179051 295.488 
L 207.291648 283.392 
L 207.495957 295.488 
L 207.608554 283.392 
L 207.812862 295.488 
L 207.925459 283.392 
L 208.129767 295.488 
L 208.246904 283.392 
L 208.451213 295.488 
L 208.566534 283.392 
L 208.770842 295.488 
L 208.883439 283.392 
L 209.087748 295.488 
L 209.205793 283.392 
L 209.410101 295.488 
L 209.51725 283.392 
L 209.721558 295.488 
L 209.832339 283.392 
L 210.036648 295.488 
L 210.159233 283.392 
L 210.363542 295.488 
L 210.471598 283.392 
L 210.675907 295.488 
L 210.786687 283.392 
L 210.990996 295.488 
L 211.108133 283.392 
L 211.312441 295.488 
L 211.42867 283.392 
L 211.632979 295.488 
L 211.7483 283.392 
L 211.952608 295.488 
L 212.061573 283.392 
L 212.265882 295.488 
L 212.387559 283.392 
L 212.591867 295.488 
L 212.713545 283.392 
L 212.917853 295.488 
L 213.03045 283.392 
L 213.234758 295.488 
L 213.336459 283.392 
L 213.540767 295.488 
L 213.656088 283.392 
L 213.860397 295.488 
L 213.967545 283.392 
L 214.171854 295.488 
L 214.602264 283.392 
L 214.806573 295.488 
L 214.924618 283.392 
L 215.128926 295.488 
L 215.241523 283.392 
L 215.445832 295.488 
L 215.561152 283.392 
L 215.765461 295.488 
L 215.874426 283.392 
L 216.078734 295.488 
L 216.194963 283.392 
L 216.399272 295.488 
L 216.518225 283.392 
L 216.722533 295.488 
L 216.836946 283.392 
L 217.041255 295.488 
L 217.161116 283.392 
L 217.365424 295.488 
L 217.484377 283.392 
L 217.688686 295.488 
L 218.949951 283.392 
L 219.130651 271.296 
L 219.15426 283.392 
L 219.314983 271.296 
L 219.334959 283.392 
L 219.49659 271.296 
L 219.519291 283.392 
L 219.67729 271.296 
L 219.700899 283.392 
L 219.857081 271.296 
L 219.881598 283.392 
L 220.041413 271.296 
L 220.06139 283.392 
L 220.218481 271.296 
L 220.245722 283.392 
L 220.397364 271.296 
L 220.422789 283.392 
L 220.578064 271.296 
L 220.601673 283.392 
L 220.758763 271.296 
L 220.782372 283.392 
L 220.940371 271.296 
L 220.963072 283.392 
L 221.121071 271.296 
L 221.14468 283.392 
L 221.308126 271.296 
L 221.325379 283.392 
L 221.487918 271.296 
L 221.512435 283.392 
L 221.671342 271.296 
L 221.692227 283.392 
L 221.848409 271.296 
L 221.87565 283.392 
L 222.030017 271.296 
L 222.052718 283.392 
L 222.211625 271.296 
L 222.234325 283.392 
L 222.393232 271.296 
L 222.415933 283.392 
L 222.573024 271.296 
L 222.597541 283.392 
L 222.752815 271.296 
L 222.777332 283.392 
L 222.934423 271.296 
L 222.957124 283.392 
L 223.116031 271.296 
L 223.138732 283.392 
L 223.297638 271.296 
L 223.320339 283.392 
L 223.480154 271.296 
L 223.501947 283.392 
L 223.659037 271.296 
L 223.684463 283.392 
L 223.841553 271.296 
L 223.863346 283.392 
L 224.020437 271.296 
L 224.045862 283.392 
L 224.202952 271.296 
L 224.224745 283.392 
L 224.386376 271.296 
L 224.407261 283.392 
L 224.566168 271.296 
L 224.590685 283.392 
L 224.748683 271.296 
L 224.770476 283.392 
L 224.931199 271.296 
L 224.952992 283.392 
L 225.114623 271.296 
L 225.135508 283.392 
L 225.294414 271.296 
L 225.318931 283.392 
L 225.47693 271.296 
L 225.498723 283.392 
L 225.661262 271.296 
L 225.681239 283.392 
L 225.841961 271.296 
L 225.86557 283.392 
L 226.028109 271.296 
L 226.04627 283.392 
L 226.212441 271.296 
L 226.232418 283.392 
L 226.392233 271.296 
L 226.41675 283.392 
L 226.576564 271.296 
L 226.596541 283.392 
L 226.756356 271.296 
L 226.780873 283.392 
L 226.93978 271.296 
L 226.960665 283.392 
L 227.117755 271.296 
L 227.144088 283.392 
L 227.302087 271.296 
L 227.322064 283.392 
L 227.485511 271.296 
L 227.506396 283.392 
L 227.667118 271.296 
L 227.689819 283.392 
L 227.846002 271.296 
L 227.871427 283.392 
L 228.026701 271.296 
L 228.05031 283.392 
L 228.209217 271.296 
L 228.23101 283.392 
L 228.389917 271.296 
L 228.413526 283.392 
L 228.567892 271.296 
L 228.594225 283.392 
L 228.7495 271.296 
L 228.772201 283.392 
L 228.932924 271.296 
L 228.953808 283.392 
L 229.113623 271.296 
L 229.137232 283.392 
L 229.317932 295.488 
L 243.836555 283.392 
L 244.018163 271.296 
L 244.040864 283.392 
L 244.198863 271.296 
L 244.222472 283.392 
L 244.379562 271.296 
L 244.403171 283.392 
L 244.562078 271.296 
L 244.583871 283.392 
L 244.743686 271.296 
L 244.766386 283.392 
L 244.928017 271.296 
L 244.947994 283.392 
L 245.108717 271.296 
L 245.132326 283.392 
L 245.285784 271.296 
L 245.313025 283.392 
L 245.466484 271.296 
L 245.490093 283.392 
L 245.648092 271.296 
L 245.670793 283.392 
L 245.834239 271.296 
L 245.8524 283.392 
L 246.038548 295.488 
L 273.260627 283.392 
L 273.444958 271.296 
L 273.464935 283.392 
L 273.628382 271.296 
L 273.649267 283.392 
L 273.810898 271.296 
L 273.832691 283.392 
L 273.99523 271.296 
L 274.015206 283.392 
L 274.181377 271.296 
L 274.199538 283.392 
L 274.364801 271.296 
L 274.385686 283.392 
L 274.549133 271.296 
L 274.56911 283.392 
L 274.732557 271.296 
L 274.753441 283.392 
L 274.880567 271.296 
L 275.05945 89.856 
L 275.107576 126.144 
L 275.151162 174.528 
L 275.280104 150.336 
L 275.356379 65.664 
L 275.566136 53.568 
L 275.601549 65.664 
L 276.031051 53.568 
L 276.066465 65.664 
L 276.535921 53.568 
L 276.566794 77.76 
L 276.56861 65.664 
L 277.067123 77.76 
L 277.101628 65.664 
L 277.585613 77.76 
L 277.620118 65.664 
L 278.075953 77.76 
L 278.110459 65.664 
L 278.552673 77.76 
L 278.588087 65.664 
L 279.037566 77.76 
L 279.072979 65.664 
L 279.535171 77.76 
L 279.584205 65.664 
L 280.020063 77.76 
L 280.04912 65.664 
L 280.052753 77.76 
L 280.312452 65.664 
L 280.486795 77.76 
L 280.505864 65.664 
L 280.519484 89.856 
L 280.682931 77.76 
L 280.977136 65.664 
L 281.014365 114.048 
L 281.04433 101.952 
L 281.403914 77.76 
L 281.468384 126.144 
L 281.588245 114.048 
L 281.768945 101.952 
L 281.9333 114.048 
L 281.965989 138.24 
L 282.311044 114.048 
L 282.440893 126.144 
L 282.472675 162.432 
L 282.489019 150.336 
L 282.850418 126.144 
L 282.973912 150.336 
L 282.995705 174.528 
L 283.032934 162.432 
L 283.396149 138.24 
L 283.484229 174.528 
L 283.495126 186.624 
L 283.575033 174.528 
L 283.758457 162.432 
L 283.920996 174.528 
L 283.954593 198.72 
L 284.30328 174.528 
L 284.398624 198.72 
L 284.420417 222.912 
L 284.483979 210.816 
L 284.847195 186.624 
L 284.882608 235.008 
L 285.214042 210.816 
L 285.354788 222.912 
L 285.386569 259.2 
L 285.39565 247.104 
L 285.757049 222.912 
L 285.836048 247.104 
L 285.857841 271.296 
L 285.935024 259.2 
L 286.297332 235.008 
L 286.342734 271.296 
L 286.478939 259.2 
L 286.486204 271.296 
L 286.660547 259.2 
L 286.833074 271.296 
L 286.83943 259.2 
L 286.864856 283.392 
L 287.019222 271.296 
L 287.043739 283.392 
L 287.197198 271.296 
L 287.287093 283.392 
L 287.380621 271.296 
L 287.401506 283.392 
L 287.562229 271.296 
L 287.58493 283.392 
L 287.741112 271.296 
L 287.777434 283.392 
L 287.921812 271.296 
L 287.945421 283.392 
L 288.106144 271.296 
L 288.126121 283.392 
L 288.285935 271.296 
L 288.310452 283.392 
L 288.471175 271.296 
L 288.490244 283.392 
L 288.650059 271.296 
L 288.675484 283.392 
L 288.830758 271.296 
L 288.854367 283.392 
L 289.007826 271.296 
L 289.035067 283.392 
L 289.189433 271.296 
L 289.212134 283.392 
L 289.371949 271.296 
L 289.393742 283.392 
L 289.550833 271.296 
L 289.576258 283.392 
L 289.729716 271.296 
L 289.755141 283.392 
L 289.912232 271.296 
L 289.934025 283.392 
L 290.094748 271.296 
L 290.11654 283.392 
L 290.277263 271.296 
L 290.299056 283.392 
L 290.457055 271.296 
L 290.481572 283.392 
L 290.639571 271.296 
L 290.661363 283.392 
L 290.822994 271.296 
L 290.843879 283.392 
L 291.00551 271.296 
L 291.027303 283.392 
L 291.19075 271.296 
L 291.209819 283.392 
L 291.377806 271.296 
L 291.395058 283.392 
L 291.556689 271.296 
L 291.582114 283.392 
L 291.741929 271.296 
L 291.760998 283.392 
L 291.920812 271.296 
L 291.946238 283.392 
L 292.104236 271.296 
L 292.125121 283.392 
L 292.28312 271.296 
L 292.308545 283.392 
L 292.465635 271.296 
L 292.487428 283.392 
L 292.650875 271.296 
L 292.669944 283.392 
L 292.830667 271.296 
L 292.855184 283.392 
L 293.011366 271.296 
L 293.034975 283.392 
L 293.193882 271.296 
L 293.215675 283.392 
L 293.374582 271.296 
L 293.398191 283.392 
L 293.556189 271.296 
L 293.57889 283.392 
L 293.742337 271.296 
L 293.760498 283.392 
L 293.925761 271.296 
L 293.946646 283.392 
L 294.10192 271.296 
L 294.13007 283.392 
L 294.281712 271.296 
L 294.306229 283.392 
L 294.460595 271.296 
L 294.486021 283.392 
L 294.643111 271.296 
L 294.664904 283.392 
L 294.826535 271.296 
L 294.84742 283.392 
L 295.011775 271.296 
L 295.030843 283.392 
L 295.191566 271.296 
L 295.216083 283.392 
L 295.378622 271.296 
L 295.395875 283.392 
L 295.561138 271.296 
L 295.582931 283.392 
L 295.740021 271.296 
L 295.765446 283.392 
L 295.920721 271.296 
L 295.94433 283.392 
L 296.104145 271.296 
L 296.12503 283.392 
L 296.283028 271.296 
L 296.308453 283.392 
L 296.463728 271.296 
L 296.487337 283.392 
L 296.640795 271.296 
L 296.668036 283.392 
L 296.845104 295.488 
L 312.869255 283.392 
L 313.013633 271.296 
L 313.201597 89.856 
L 313.239734 126.144 
L 313.261527 150.336 
L 313.400457 138.24 
L 313.472192 53.568 
L 313.580249 65.664 
L 313.617478 53.568 
L 314.057877 65.664 
L 314.095106 53.568 
L 314.575459 65.664 
L 314.601792 53.568 
L 314.608148 65.664 
L 315.108477 53.568 
L 315.151155 65.664 
L 315.586105 77.76 
L 315.608806 65.664 
L 316.086434 77.76 
L 316.120032 65.664 
L 316.599476 77.76 
L 316.633981 65.664 
L 317.062575 77.76 
L 317.096173 65.664 
L 317.522043 77.76 
L 317.55564 65.664 
L 318.010567 65.664 
L 318.042349 77.76 
L 318.043257 65.664 
L 318.498184 65.664 
L 318.519069 77.76 
L 318.938582 89.856 
L 318.971272 126.144 
L 319.430739 138.24 
L 319.46252 174.528 
L 319.949229 186.624 
L 319.981918 222.912 
L 320.465903 235.008 
L 320.498592 271.296 
L 320.922646 283.392 
L 320.938083 295.488 
L 324.161618 283.392 
L 324.365927 114.048 
L 324.398616 138.24 
L 324.419501 162.432 
L 324.426766 150.336 
L 324.839923 162.432 
L 324.87352 186.624 
L 325.326631 174.528 
L 325.363861 210.816 
L 325.809708 198.72 
L 325.819696 210.816 
L 325.993131 198.72 
L 326.312761 210.816 
L 326.330922 198.72 
L 326.339094 210.816 
L 326.430806 222.912 
L 326.620586 210.816 
L 326.769504 235.008 
L 326.931135 222.912 
L 327.080961 235.008 
L 327.108202 247.104 
L 327.2435 235.008 
L 327.411487 247.104 
L 327.439636 259.2 
L 327.557681 247.104 
L 327.76199 259.2 
L 327.789231 271.296 
L 327.86823 259.2 
L 328.113401 271.296 
L 328.140642 283.392 
L 328.177872 271.296 
L 328.467536 283.392 
L 328.493869 271.296 
L 328.666396 283.392 
L 328.81259 271.296 
L 328.836199 283.392 
L 329.130404 271.296 
L 329.152197 283.392 
L 329.334712 295.488 
L 329.442769 283.392 
L 329.647077 295.488 
L 329.76149 283.392 
L 329.965799 295.488 
L 330.082936 283.392 
L 330.287244 295.488 
L 330.397117 283.392 
L 330.601426 295.488 
L 331.037284 283.392 
L 331.241593 295.488 
L 331.358729 283.392 
L 331.563038 295.488 
L 331.677451 283.392 
L 331.88176 295.488 
L 331.988 283.392 
L 332.192309 295.488 
L 332.307629 283.392 
L 332.511938 295.488 
L 332.618179 283.392 
L 332.822487 295.488 
L 332.935992 283.392 
L 333.140301 295.488 
L 333.249265 283.392 
L 333.453574 295.488 
L 333.567987 283.392 
L 333.772295 295.488 
L 333.89034 283.392 
L 334.094649 295.488 
L 334.205429 283.392 
L 334.409738 295.488 
L 334.520519 283.392 
L 334.724827 295.488 
L 334.83924 283.392 
L 335.043549 295.488 
L 335.159778 283.392 
L 335.364086 295.488 
L 335.469419 283.392 
L 335.673727 295.488 
L 335.786324 283.392 
L 335.990633 295.488 
L 336.105953 283.392 
L 336.310262 295.488 
L 336.424675 283.392 
L 336.628983 295.488 
L 336.747936 283.392 
L 336.952245 295.488 
L 337.063934 283.392 
L 337.268242 295.488 
L 337.380839 283.392 
L 337.585148 295.488 
L 337.699561 283.392 
L 337.903869 295.488 
L 338.022822 283.392 
L 338.227131 295.488 
L 338.345176 283.392 
L 338.549484 295.488 
L 338.657541 283.392 
L 338.861849 295.488 
L 338.973538 283.392 
L 339.177847 295.488 
L 339.285903 283.392 
L 339.490212 295.488 
L 339.609165 283.392 
L 339.813474 295.488 
L 339.925162 283.392 
L 340.129471 295.488 
L 340.242068 283.392 
L 340.446376 295.488 
L 340.559881 283.392 
L 340.76419 295.488 
L 340.87497 283.392 
L 341.079279 295.488 
L 341.187335 283.392 
L 341.391644 295.488 
L 341.509689 283.392 
L 341.713998 295.488 
L 341.821146 283.392 
L 342.025455 295.488 
L 342.134419 283.392 
L 342.338728 295.488 
L 342.454049 283.392 
L 342.658357 295.488 
L 342.766414 283.392 
L 342.970723 295.488 
L 343.084227 283.392 
L 343.288536 295.488 
L 343.403857 283.392 
L 343.608165 295.488 
L 343.723486 283.392 
L 343.927795 295.488 
L 344.034943 283.392 
L 344.239252 295.488 
L 344.3464 283.392 
L 344.550709 295.488 
L 344.667846 283.392 
L 344.872155 295.488 
L 344.991108 283.392 
L 345.195416 295.488 
L 345.314369 283.392 
L 345.518678 295.488 
L 345.633091 283.392 
L 345.837399 295.488 
L 345.951812 283.392 
L 346.156121 295.488 
L 346.265993 283.392 
L 346.470302 295.488 
L 346.586531 283.392 
L 346.790839 295.488 
L 346.904344 283.392 
L 347.108653 295.488 
L 347.226698 283.392 
L 347.431006 295.488 
L 347.543603 283.392 
L 347.747912 295.488 
L 347.868681 283.392 
L 348.072989 295.488 
L 348.189218 283.392 
L 348.393527 295.488 
L 348.509756 283.392 
L 348.714064 295.488 
L 348.829385 283.392 
L 349.033694 295.488 
L 349.149923 283.392 
L 349.354231 295.488 
L 349.47046 283.392 
L 349.674769 295.488 
L 371.5821 283.392 
L 371.786408 295.488 
L 371.897189 283.392 
L 372.101497 295.488 
L 372.212278 283.392 
L 372.416587 295.488 
L 372.528275 283.392 
L 372.732584 295.488 
L 372.994099 259.2 
L 373.01226 271.296 
L 373.048581 247.104 
L 373.136661 210.816 
L 373.172983 222.912 
L 373.227465 247.104 
L 373.370935 222.912 
L 373.514405 198.72 
L 373.53529 210.816 
L 373.557083 186.624 
L 373.562531 198.72 
L 373.897597 186.624 
L 373.937551 162.432 
L 373.942999 174.528 
L 374.234479 162.432 
L 374.275341 138.24 
L 374.277157 150.336 
L 374.602235 138.24 
L 374.643096 114.048 
L 374.644913 126.144 
L 374.946381 114.048 
L 374.989059 138.24 
L 375.108012 126.144 
L 375.278723 138.24 
L 375.414021 186.624 
L 375.783593 162.432 
L 375.902546 186.624 
L 375.929787 210.816 
L 376.013326 198.72 
L 376.235796 186.624 
L 376.358381 210.816 
L 376.385622 235.008 
L 376.464621 222.912 
L 376.689815 210.816 
L 376.827836 235.008 
L 376.855078 259.2 
L 376.915008 247.104 
L 377.142926 235.008 
L 377.348142 247.104 
L 377.388096 271.296 
L 377.823046 247.104 
L 377.87208 283.392 
L 378.04824 271.296 
L 378.234388 283.392 
L 378.272525 271.296 
L 378.476834 295.488 
L 378.496811 283.392 
L 378.701119 295.488 
L 378.725636 283.392 
L 378.929945 295.488 
L 378.949922 283.392 
L 379.15423 295.488 
L 379.180564 283.392 
L 379.384872 295.488 
L 379.406665 283.392 
L 379.610974 295.488 
L 379.631859 283.392 
L 379.836167 295.488 
L 379.859776 283.392 
L 380.064085 295.488 
L 380.088602 283.392 
L 380.29291 295.488 
L 380.318336 283.392 
L 380.522644 295.488 
L 380.548977 283.392 
L 380.753286 295.488 
L 380.775987 283.392 
L 380.980295 295.488 
L 381.008445 283.392 
L 381.212753 295.488 
L 381.238178 283.392 
L 381.442487 295.488 
L 381.46428 283.392 
L 381.668588 295.488 
L 381.688565 283.392 
L 381.892874 295.488 
L 381.917391 283.392 
L 382.121699 295.488 
L 382.147125 283.392 
L 382.351433 295.488 
L 382.374134 283.392 
L 382.578443 295.488 
L 382.6075 283.392 
L 382.811809 295.488 
L 382.830877 283.392 
L 383.035186 295.488 
L 383.056071 283.392 
L 383.260379 295.488 
L 383.282172 283.392 
L 383.486481 295.488 
L 383.503734 283.392 
L 383.708042 295.488 
L 383.965017 283.392 
L 384.169326 295.488 
L 384.195659 283.392 
L 384.399967 295.488 
L 384.423576 283.392 
L 384.627885 295.488 
L 384.646046 283.392 
L 384.850354 295.488 
L 384.875779 283.392 
L 385.080088 295.488 
L 385.102789 283.392 
L 385.307098 295.488 
L 385.323442 283.392 
L 385.527751 295.488 
L 385.544096 283.392 
L 385.748404 295.488 
L 385.769289 283.392 
L 385.973598 295.488 
L 385.991758 283.392 
L 386.196067 295.488 
L 386.219676 283.392 
L 386.423985 295.488 
L 386.44941 283.392 
L 386.653718 295.488 
L 386.680959 283.392 
L 386.885268 295.488 
L 386.908877 283.392 
L 387.113186 295.488 
L 387.138611 283.392 
L 387.342919 295.488 
L 387.360172 283.392 
L 387.564481 295.488 
L 387.581733 283.392 
L 387.786042 295.488 
L 387.805111 283.392 
L 388.009419 295.488 
L 388.034845 283.392 
L 388.239153 295.488 
L 388.258222 283.392 
L 388.462531 295.488 
L 388.487956 283.392 
L 388.692264 295.488 
L 388.710425 283.392 
L 388.914734 295.488 
L 388.938343 283.392 
L 389.142651 295.488 
L 389.16172 283.392 
L 389.366029 295.488 
L 389.392362 283.392 
L 389.59667 295.488 
L 389.623003 283.392 
L 389.827312 295.488 
L 389.850013 283.392 
L 390.054322 295.488 
L 390.079747 283.392 
L 390.284055 295.488 
L 390.303124 283.392 
L 390.507433 295.488 
L 390.531042 283.392 
L 390.73535 295.488 
L 390.754419 283.392 
L 390.958728 295.488 
L 390.985061 283.392 
L 391.189369 295.488 
L 391.214794 283.392 
L 391.419103 295.488 
L 391.441804 283.392 
L 391.646113 295.488 
L 391.668814 283.392 
L 391.873122 295.488 
L 391.897639 283.392 
L 392.101948 295.488 
L 392.122833 283.392 
L 392.327141 295.488 
L 392.349842 283.392 
L 392.554151 295.488 
L 392.575944 283.392 
L 392.780252 295.488 
L 392.797505 283.392 
L 393.001814 295.488 
L 393.023607 283.392 
L 393.227915 295.488 
L 393.249708 283.392 
L 393.454017 295.488 
L 393.47581 283.392 
L 393.680118 295.488 
L 393.705543 283.392 
L 393.909852 295.488 
L 393.936185 283.392 
L 394.140494 295.488 
L 394.157746 283.392 
L 394.362055 295.488 
L 394.38294 283.392 
L 394.587248 295.488 
L 394.608133 283.392 
L 394.812442 295.488 
L 394.838775 283.392 
L 395.043084 295.488 
L 395.062152 283.392 
L 395.266461 295.488 
L 395.290978 283.392 
L 395.495287 295.488 
L 395.52162 283.392 
L 395.725928 295.488 
L 395.743181 283.392 
L 395.94749 295.488 
L 395.971099 283.392 
L 396.175407 295.488 
L 396.200832 283.392 
L 396.405141 295.488 
L 396.429658 283.392 
L 396.633967 295.488 
L 396.662116 283.392 
L 396.866424 295.488 
L 396.890941 283.392 
L 397.09525 295.488 
L 397.120675 283.392 
L 397.324984 295.488 
L 397.352225 283.392 
L 397.556534 295.488 
L 397.579234 283.392 
L 397.783543 295.488 
L 397.806244 283.392 
L 398.010553 295.488 
L 398.036886 283.392 
L 398.241194 295.488 
L 398.260263 283.392 
L 398.464572 295.488 
L 398.487273 283.392 
L 398.487273 283.392 
" clip-path="url(#pbf830597c6)" style="fill: none; stroke: #1f77b4; stroke-width: 1.5; stroke-linecap: square"/>
   </g>
   <g id="patch_3">
    <path d="M 57.6 307.584 
L 57.6 41.472 
" style="fill: none; stroke: #000000; stroke-width: 0.8; stroke-linejoin: miter; stroke-linecap: square"/>
   </g>
   <g id="patch_4">
    <path d="M 414.72 307.584 
L 414.72 41.472 
" style="fill: none; stroke: #000000; stroke-width: 0.8; stroke-linejoin: miter; stroke-linecap: square"/>
   </g>
   <g id="patch_5">
    <path d="M 57.6 307.584 
L 414.72 307.584 
" style="fill: none; stroke: #000000; stroke-width: 0.8; stroke-linejoin: miter; stroke-linecap: square"/>
   </g>
   <g id="patch_6">
    <path d="M 57.6 41.472 
L 414.72 41.472 
" style="fill: none; stroke: #000000; stroke-width: 0.8; stroke-linejoin: miter; stroke-linecap: square"/>
   </g>
   <g id="text_19">
    <!-- Queue size (y-axis) between S5 and sensors that follow at a time (x-axis). -->
    <g transform="translate(14.282813 35.472) scale(0.12 -0.12)">
     <defs>
      <path id="DejaVuSans-51" d="M 2522 4238 
Q 1834 4238 1429 3725 
Q 1025 3213 1025 2328 
Q 1025 1447 1429 934 
Q 1834 422 2522 422 
Q 3209 422 3611 934 
Q 4013 1447 4013 2328 
Q 4013 3213 3611 3725 
Q 3209 4238 2522 4238 
z
M 3406 84 
L 4238 -825 
L 3475 -825 
L 2784 -78 
Q 2681 -84 2626 -87 
Q 2572 -91 2522 -91 
Q 1538 -91 948 567 
Q 359 1225 359 2328 
Q 359 3434 948 4092 
Q 1538 4750 2522 4750 
Q 3503 4750 4090 4092 
Q 4678 3434 4678 2328 
Q 4678 1516 4351 937 
Q 4025 359 3406 84 
z
" transform="scale(0.015625)"/>
      <path id="DejaVuSans-75" d="M 544 1381 
L 544 3500 
L 1119 3500 
L 1119 1403 
Q 1119 906 1312 657 
Q 1506 409 1894 409 
Q 2359 409 2629 706 
Q 2900 1003 2900 1516 
L 2900 3500 
L 3475 3500 
L 3475 0 
L 2900 0 
L 2900 538 
Q 2691 219 2414 64 
Q 2138 -91 1772 -91 
Q 1169 -91 856 284 
Q 544 659 544 1381 
z
M 1991 3584 
L 1991 3584 
z
" transform="scale(0.015625)"/>
      <path id="DejaVuSans-20" transform="scale(0.015625)"/>
      <path id="DejaVuSans-73" d="M 2834 3397 
L 2834 2853 
Q 2591 2978 2328 3040 
Q 2066 3103 1784 3103 
Q 1356 3103 1142 2972 
Q 928 2841 928 2578 
Q 928 2378 1081 2264 
Q 1234 2150 1697 2047 
L 1894 2003 
Q 2506 1872 2764 1633 
Q 3022 1394 3022 966 
Q 3022 478 2636 193 
Q 2250 -91 1575 -91 
Q 1294 -91 989 -36 
Q 684 19 347 128 
L 347 722 
Q 666 556 975 473 
Q 1284 391 1588 391 
Q 1994 391 2212 530 
Q 2431 669 2431 922 
Q 2431 1156 2273 1281 
Q 2116 1406 1581 1522 
L 1381 1569 
Q 847 1681 609 1914 
Q 372 2147 372 2553 
Q 372 3047 722 3315 
Q 1072 3584 1716 3584 
Q 2034 3584 2315 3537 
Q 2597 3491 2834 3397 
z
" transform="scale(0.015625)"/>
      <path id="DejaVuSans-69" d="M 603 3500 
L 1178 3500 
L 1178 0 
L 603 0 
L 603 3500 
z
M 603 4863 
L 1178 4863 
L 1178 4134 
L 603 4134 
L 603 4863 
z
" transform="scale(0.015625)"/>
      <path id="DejaVuSans-7a" d="M 353 3500 
L 3084 3500 
L 3084 2975 
L 922 459 
L 3084 459 
L 3084 0 
L 275 0 
L 275 525 
L 2438 3041 
L 353 3041 
L 353 3500 
z
" transform="scale(0.015625)"/>
      <path id="DejaVuSans-28" d="M 1984 4856 
Q 1566 4138 1362 3434 
Q 1159 2731 1159 2009 
Q 1159 1288 1364 580 
Q 1569 -128 1984 -844 
L 1484 -844 
Q 1016 -109 783 600 
Q 550 1309 550 2009 
Q 550 2706 781 3412 
Q 1013 4119 1484 4856 
L 1984 4856 
z
" transform="scale(0.015625)"/>
      <path id="DejaVuSans-79" d="M 2059 -325 
Q 1816 -950 1584 -1140 
Q 1353 -1331 966 -1331 
L 506 -1331 
L 506 -850 
L 844 -850 
Q 1081 -850 1212 -737 
Q 1344 -625 1503 -206 
L 1606 56 
L 191 3500 
L 800 3500 
L 1894 763 
L 2988 3500 
L 3597 3500 
L 2059 -325 
z
" transform="scale(0.015625)"/>
      <path id="DejaVuSans-2d" d="M 313 2009 
L 1997 2009 
L 1997 1497 
L 313 1497 
L 313 2009 
z
" transform="scale(0.015625)"/>
      <path id="DejaVuSans-61" d="M 2194 1759 
Q 1497 1759 1228 1600 
Q 959 1441 959 1056 
Q 959 750 1161 570 
Q 1363 391 1709 391 
Q 2188 391 2477 730 
Q 2766 1069 2766 1631 
L 2766 1759 
L 2194 1759 
z
M 3341 1997 
L 3341 0 
L 2766 0 
L 2766 531 
Q 2569 213 2275 61 
Q 1981 -91 1556 -91 
Q 1019 -91 701 211 
Q 384 513 384 1019 
Q 384 1609 779 1909 
Q 1175 2209 1959 2209 
L 2766 2209 
L 2766 2266 
Q 2766 2663 2505 2880 
Q 2244 3097 1772 3097 
Q 1472 3097 1187 3025 
Q 903 2953 641 2809 
L 641 3341 
Q 956 3463 1253 3523 
Q 1550 3584 1831 3584 
Q 2591 3584 2966 3190 
Q 3341 2797 3341 1997 
z
" transform="scale(0.015625)"/>
      <path id="DejaVuSans-78" d="M 3513 3500 
L 2247 1797 
L 3578 0 
L 2900 0 
L 1881 1375 
L 863 0 
L 184 0 
L 1544 1831 
L 300 3500 
L 978 3500 
L 1906 2253 
L 2834 3500 
L 3513 3500 
z
" transform="scale(0.015625)"/>
      <path id="DejaVuSans-29" d="M 513 4856 
L 1013 4856 
Q 1481 4119 1714 3412 
Q 1947 2706 1947 2009 
Q 1947 1309 1714 600 
Q 1481 -109 1013 -844 
L 513 -844 
Q 928 -128 1133 580 
Q 1338 1288 1338 2009 
Q 1338 2731 1133 3434 
Q 928 4138 513 4856 
z
" transform="scale(0.015625)"/>
      <path id="DejaVuSans-62" d="M 3116 1747 
Q 3116 2381 2855 2742 
Q 2594 3103 2138 3103 
Q 1681 3103 1420 2742 
Q 1159 2381 1159 1747 
Q 1159 1113 1420 752 
Q 1681 391 2138 391 
Q 2594 391 2855 752 
Q 3116 1113 3116 1747 
z
M 1159 2969 
Q 1341 3281 1617 3432 
Q 1894 3584 2278 3584 
Q 2916 3584 3314 3078 
Q 3713 2572 3713 1747 
Q 3713 922 3314 415 
Q 2916 -91 2278 -91 
Q 1894 -91 1617 61 
Q 1341 213 1159 525 
L 1159 0 
L 581 0 
L 581 4863 
L 1159 4863 
L 1159 2969 
z
" transform="scale(0.015625)"/>
      <path id="DejaVuSans-74" d="M 1172 4494 
L 1172 3500 
L 2356 3500 
L 2356 3053 
L 1172 3053 
L 1172 1153 
Q 1172 725 1289 603 
Q 1406 481 1766 481 
L 2356 481 
L 2356 0 
L 1766 0 
Q 1100 0 847 248 
Q 594 497 594 1153 
L 594 3053 
L 172 3053 
L 172 3500 
L 594 3500 
L 594 4494 
L 1172 4494 
z
" transform="scale(0.015625)"/>
      <path id="DejaVuSans-77" d="M 269 3500 
L 844 3500 
L 1563 769 
L 2278 3500 
L 2956 3500 
L 3675 769 
L 4391 3500 
L 4966 3500 
L 4050 0 
L 3372 0 
L 2619 2869 
L 1863 0 
L 1184 0 
L 269 3500 
z
" transform="scale(0.015625)"/>
      <path id="DejaVuSans-6e" d="M 3513 2113 
L 3513 0 
L 2938 0 
L 2938 2094 
Q 2938 2591 2744 2837 
Q 2550 3084 2163 3084 
Q 1697 3084 1428 2787 
Q 1159 2491 1159 1978 
L 1159 0 
L 581 0 
L 581 3500 
L 1159 3500 
L 1159 2956 
Q 1366 3272 1645 3428 
Q 1925 3584 2291 3584 
Q 2894 3584 3203 3211 
Q 3513 2838 3513 2113 
z
" transform="scale(0.015625)"/>
      <path id="DejaVuSans-53" d="M 3425 4513 
L 3425 3897 
Q 3066 4069 2747 4153 
Q 2428 4238 2131 4238 
Q 1616 4238 1336 4038 
Q 1056 3838 1056 3469 
Q 1056 3159 1242 3001 
Q 1428 2844 1947 2747 
L 2328 2669 
Q 3034 2534 3370 2195 
Q 3706 1856 3706 1288 
Q 3706 609 3251 259 
Q 2797 -91 1919 -91 
Q 1588 -91 1214 -16 
Q 841 59 441 206 
L 441 856 
Q 825 641 1194 531 
Q 1563 422 1919 422 
Q 2459 422 2753 634 
Q 3047 847 3047 1241 
Q 3047 1584 2836 1778 
Q 2625 1972 2144 2069 
L 1759 2144 
Q 1053 2284 737 2584 
Q 422 2884 422 3419 
Q 422 4038 858 4394 
Q 1294 4750 2059 4750 
Q 2388 4750 2728 4690 
Q 3069 4631 3425 4513 
z
" transform="scale(0.015625)"/>
      <path id="DejaVuSans-64" d="M 2906 2969 
L 2906 4863 
L 3481 4863 
L 3481 0 
L 2906 0 
L 2906 525 
Q 2725 213 2448 61 
Q 2172 -91 1784 -91 
Q 1150 -91 751 415 
Q 353 922 353 1747 
Q 353 2572 751 3078 
Q 1150 3584 1784 3584 
Q 2172 3584 2448 3432 
Q 2725 3281 2906 2969 
z
M 947 1747 
Q 947 1113 1208 752 
Q 1469 391 1925 391 
Q 2381 391 2643 752 
Q 2906 1113 2906 1747 
Q 2906 2381 2643 2742 
Q 2381 3103 1925 3103 
Q 1469 3103 1208 2742 
Q 947 2381 947 1747 
z
" transform="scale(0.015625)"/>
      <path id="DejaVuSans-6f" d="M 1959 3097 
Q 1497 3097 1228 2736 
Q 959 2375 959 1747 
Q 959 1119 1226 758 
Q 1494 397 1959 397 
Q 2419 397 2687 759 
Q 2956 1122 2956 1747 
Q 2956 2369 2687 2733 
Q 2419 3097 1959 3097 
z
M 1959 3584 
Q 2709 3584 3137 3096 
Q 3566 2609 3566 1747 
Q 3566 888 3137 398 
Q 2709 -91 1959 -91 
Q 1206 -91 779 398 
Q 353 888 353 1747 
Q 353 2609 779 3096 
Q 1206 3584 1959 3584 
z
" transform="scale(0.015625)"/>
      <path id="DejaVuSans-72" d="M 2631 2963 
Q 2534 3019 2420 3045 
Q 2306 3072 2169 3072 
Q 1681 3072 1420 2755 
Q 1159 2438 1159 1844 
L 1159 0 
L 581 0 
L 581 3500 
L 1159 3500 
L 1159 2956 
Q 1341 3275 1631 3429 
Q 1922 3584 2338 3584 
Q 2397 3584 2469 3576 
Q 2541 3569 2628 3553 
L 2631 2963 
z
" transform="scale(0.015625)"/>
      <path id="DejaVuSans-68" d="M 3513 2113 
L 3513 0 
L 2938 0 
L 2938 2094 
Q 2938 2591 2744 2837 
Q 2550 3084 2163 3084 
Q 1697 3084 1428 2787 
Q 1159 2491 1159 1978 
L 1159 0 
L 581 0 
L 581 4863 
L 1159 4863 
L 1159 2956 
Q 1366 3272 1645 3428 
Q 1925 3584 2291 3584 
Q 2894 3584 3203 3211 
Q 3513 2838 3513 2113 
z
" transform="scale(0.015625)"/>
      <path id="DejaVuSans-66" d="M 2375 4863 
L 2375 4384 
L 1825 4384 
Q 1516 4384 1395 4259 
Q 1275 4134 1275 3809 
L 1275 3500 
L 2222 3500 
L 2222 3053 
L 1275 3053 
L 1275 0 
L 697 0 
L 697 3053 
L 147 3053 
L 147 3500 
L 697 3500 
L 697 3744 
Q 697 4328 969 4595 
Q 1241 4863 1831 4863 
L 2375 4863 
z
" transform="scale(0.015625)"/>
      <path id="DejaVuSans-6c" d="M 603 4863 
L 1178 4863 
L 1178 0 
L 603 0 
L 603 4863 
z
" transform="scale(0.015625)"/>
      <path id="DejaVuSans-6d" d="M 3328 2828 
Q 3544 3216 3844 3400 
Q 4144 3584 4550 3584 
Q 5097 3584 5394 3201 
Q 5691 2819 5691 2113 
L 5691 0 
L 5113 0 
L 5113 2094 
Q 5113 2597 4934 2840 
Q 4756 3084 4391 3084 
Q 3944 3084 3684 2787 
Q 3425 2491 3425 1978 
L 3425 0 
L 2847 0 
L 2847 2094 
Q 2847 2600 2669 2842 
Q 2491 3084 2119 3084 
Q 1678 3084 1418 2786 
Q 1159 2488 1159 1978 
L 1159 0 
L 581 0 
L 581 3500 
L 1159 3500 
L 1159 2956 
Q 1356 3278 1631 3431 
Q 1906 3584 2284 3584 
Q 2666 3584 2933 3390 
Q 3200 3197 3328 2828 
z
" transform="scale(0.015625)"/>
     </defs>
     <use xlink:href="#DejaVuSans-51"/>
     <use xlink:href="#DejaVuSans-75" x="78.710938"/>
     <use xlink:href="#DejaVuSans-65" x="142.089844"/>
     <use xlink:href="#DejaVuSans-75" x="203.613281"/>
     <use xlink:href="#DejaVuSans-65" x="266.992188"/>
     <use xlink:href="#DejaVuSans-20" x="328.515625"/>
     <use xlink:href="#DejaVuSans-73" x="360.302734"/>
     <use xlink:href="#DejaVuSans-69" x="412.402344"/>
     <use xlink:href="#DejaVuSans-7a" x="440.185547"/>
     <use xlink:href="#DejaVuSans-65" x="492.675781"/>
     <use xlink:href="#DejaVuSans-20" x="554.199219"/>
     <use xlink:href="#DejaVuSans-28" x="585.986328"/>
     <use xlink:href="#DejaVuSans-79" x="625"/>
     <use xlink:href="#DejaVuSans-2d" x="682.429688"/>
     <use xlink:href="#DejaVuSans-61" x="718.513672"/>
     <use xlink:href="#DejaVuSans-78" x="779.792969"/>
     <use xlink:href="#DejaVuSans-69" x="838.972656"/>
     <use xlink:href="#DejaVuSans-73" x="866.755859"/>
     <use xlink:href="#DejaVuSans-29" x="918.855469"/>
     <use xlink:href="#DejaVuSans-20" x="957.869141"/>
     <use xlink:href="#DejaVuSans-62" x="989.65625"/>
     <use xlink:href="#DejaVuSans-65" x="1053.132812"/>
     <use xlink:href="#DejaVuSans-74" x="1114.65625"/>
     <use xlink:href="#DejaVuSans-77" x="1153.865234"/>
     <use xlink:href="#DejaVuSans-65" x="1235.652344"/>
     <use xlink:href="#DejaVuSans-65" x="1297.175781"/>
     <use xlink:href="#DejaVuSans-6e" x="1358.699219"/>
     <use xlink:href="#DejaVuSans-20" x="1422.078125"/>
     <use xlink:href="#DejaVuSans-53" x="1453.865234"/>
     <use xlink:href="#DejaVuSans-35" x="1517.341797"/>
     <use xlink:href="#DejaVuSans-20" x="1580.964844"/>
     <use xlink:href="#DejaVuSans-61" x="1612.751953"/>
     <use xlink:href="#DejaVuSans-6e" x="1674.03125"/>
     <use xlink:href="#DejaVuSans-64" x="1737.410156"/>
     <use xlink:href="#DejaVuSans-20" x="1800.886719"/>
     <use xlink:href="#DejaVuSans-73" x="1832.673828"/>
     <use xlink:href="#DejaVuSans-65" x="1884.773438"/>
     <use xlink:href="#DejaVuSans-6e" x="1946.296875"/>
     <use xlink:href="#DejaVuSans-73" x="2009.675781"/>
     <use xlink:href="#DejaVuSans-6f" x="2061.775391"/>
     <use xlink:href="#DejaVuSans-72" x="2122.957031"/>
     <use xlink:href="#DejaVuSans-73" x="2164.070312"/>
     <use xlink:href="#DejaVuSans-20" x="2216.169922"/>
     <use xlink:href="#DejaVuSans-74" x="2247.957031"/>
     <use xlink:href="#DejaVuSans-68" x="2287.166016"/>
     <use xlink:href="#DejaVuSans-61" x="2350.544922"/>
     <use xlink:href="#DejaVuSans-74" x="2411.824219"/>
     <use xlink:href="#DejaVuSans-20" x="2451.033203"/>
     <use xlink:href="#DejaVuSans-66" x="2482.820312"/>
     <use xlink:href="#DejaVuSans-6f" x="2518.025391"/>
     <use xlink:href="#DejaVuSans-6c" x="2579.207031"/>
     <use xlink:href="#DejaVuSans-6c" x="2606.990234"/>
     <use xlink:href="#DejaVuSans-6f" x="2634.773438"/>
     <use xlink:href="#DejaVuSans-77" x="2695.955078"/>
     <use xlink:href="#DejaVuSans-20" x="2777.742188"/>
     <use xlink:href="#DejaVuSans-61" x="2809.529297"/>
     <use xlink:href="#DejaVuSans-74" x="2870.808594"/>
     <use xlink:href="#DejaVuSans-20" x="2910.017578"/>
     <use xlink:href="#DejaVuSans-61" x="2941.804688"/>
     <use xlink:href="#DejaVuSans-20" x="3003.083984"/>
     <use xlink:href="#DejaVuSans-74" x="3034.871094"/>
     <use xlink:href="#DejaVuSans-69" x="3074.080078"/>
     <use xlink:href="#DejaVuSans-6d" x="3101.863281"/>
     <use xlink:href="#DejaVuSans-65" x="3199.275391"/>
     <use xlink:href="#DejaVuSans-20" x="3260.798828"/>
     <use xlink:href="#DejaVuSans-28" x="3292.585938"/>
     <use xlink:href="#DejaVuSans-78" x="3331.599609"/>
     <use xlink:href="#DejaVuSans-2d" x="3390.779297"/>
     <use xlink:href="#DejaVuSans-61" x="3426.863281"/>
     <use xlink:href="#DejaVuSans-78" x="3488.142578"/>
     <use xlink:href="#DejaVuSans-69" x="3547.322266"/>
     <use xlink:href="#DejaVuSans-73" x="3575.105469"/>
     <use xlink:href="#DejaVuSans-29" x="3627.205078"/>
     <use xlink:href="#DejaVuSans-2e" x="3666.21875"/>
    </g>
   </g>
  </g>
 </g>
 <defs>
  <clipPath id="pbf830597c6">
   <rect x="57.6" y="41.472" width="357.12" height="266.112"/>
  </clipPath>
 </defs>
</svg>
