<?xml version="1.0" encoding="utf-8" standalone="no"?>
<!DOCTYPE svg PUBLIC "-//W3C//DTD SVG 1.1//EN"
  "http://www.w3.org/Graphics/SVG/1.1/DTD/svg11.dtd">
<svg xmlns:xlink="http://www.w3.org/1999/xlink" width="460.8pt" height="345.6pt" viewBox="0 0 460.8 345.6" xmlns="http://www.w3.org/2000/svg" version="1.1">
 <metadata>
  <rdf:RDF xmlns:dc="http://purl.org/dc/elements/1.1/" xmlns:cc="http://creativecommons.org/ns#" xmlns:rdf="http://www.w3.org/1999/02/22-rdf-syntax-ns#">
   <cc:Work>
    <dc:type rdf:resource="http://purl.org/dc/dcmitype/StillImage"/>
    <dc:date>2024-03-08T14:34:43.508583</dc:date>
    <dc:format>image/svg+xml</dc:format>
    <dc:creator>
     <cc:Agent>
      <dc:title>Matplotlib v3.8.2, https://matplotlib.org/</dc:title>
     </cc:Agent>
    </dc:creator>
   </cc:Work>
  </rdf:RDF>
 </metadata>
 <defs>
  <style type="text/css">*{stroke-linejoin: round; stroke-linecap: butt}</style>
 </defs>
 <g id="figure_1">
  <g id="patch_1">
   <path d="M 0 345.6 
L 460.8 345.6 
L 460.8 0 
L 0 0 
z
" style="fill: #ffffff"/>
  </g>
  <g id="axes_1">
   <g id="patch_2">
    <path d="M 57.6 307.584 
L 414.72 307.584 
L 414.72 41.472 
L 57.6 41.472 
z
" style="fill: #ffffff"/>
   </g>
   <g id="matplotlib.axis_1">
    <g id="xtick_1">
     <g id="line2d_1">
      <defs>
       <path id="m460d203c0f" d="M 0 0 
L 0 3.5 
" style="stroke: #000000; stroke-width: 0.8"/>
      </defs>
      <g>
       <use xlink:href="#m460d203c0f" x="70.680132" y="307.584" style="stroke: #000000; stroke-width: 0.8"/>
      </g>
     </g>
     <g id="text_1">
      <!-- 0.0 -->
      <g transform="translate(62.728569 322.182437) scale(0.1 -0.1)">
       <defs>
        <path id="DejaVuSans-30" d="M 2034 4250 
Q 1547 4250 1301 3770 
Q 1056 3291 1056 2328 
Q 1056 1369 1301 889 
Q 1547 409 2034 409 
Q 2525 409 2770 889 
Q 3016 1369 3016 2328 
Q 3016 3291 2770 3770 
Q 2525 4250 2034 4250 
z
M 2034 4750 
Q 2819 4750 3233 4129 
Q 3647 3509 3647 2328 
Q 3647 1150 3233 529 
Q 2819 -91 2034 -91 
Q 1250 -91 836 529 
Q 422 1150 422 2328 
Q 422 3509 836 4129 
Q 1250 4750 2034 4750 
z
" transform="scale(0.015625)"/>
        <path id="DejaVuSans-2e" d="M 684 794 
L 1344 794 
L 1344 0 
L 684 0 
L 684 794 
z
" transform="scale(0.015625)"/>
       </defs>
       <use xlink:href="#DejaVuSans-30"/>
       <use xlink:href="#DejaVuSans-2e" x="63.623047"/>
       <use xlink:href="#DejaVuSans-30" x="95.410156"/>
      </g>
     </g>
    </g>
    <g id="xtick_2">
     <g id="line2d_2">
      <g>
       <use xlink:href="#m460d203c0f" x="116.865243" y="307.584" style="stroke: #000000; stroke-width: 0.8"/>
      </g>
     </g>
     <g id="text_2">
      <!-- 0.5 -->
      <g transform="translate(108.91368 322.182437) scale(0.1 -0.1)">
       <defs>
        <path id="DejaVuSans-35" d="M 691 4666 
L 3169 4666 
L 3169 4134 
L 1269 4134 
L 1269 2991 
Q 1406 3038 1543 3061 
Q 1681 3084 1819 3084 
Q 2600 3084 3056 2656 
Q 3513 2228 3513 1497 
Q 3513 744 3044 326 
Q 2575 -91 1722 -91 
Q 1428 -91 1123 -41 
Q 819 9 494 109 
L 494 744 
Q 775 591 1075 516 
Q 1375 441 1709 441 
Q 2250 441 2565 725 
Q 2881 1009 2881 1497 
Q 2881 1984 2565 2268 
Q 2250 2553 1709 2553 
Q 1456 2553 1204 2497 
Q 953 2441 691 2322 
L 691 4666 
z
" transform="scale(0.015625)"/>
       </defs>
       <use xlink:href="#DejaVuSans-30"/>
       <use xlink:href="#DejaVuSans-2e" x="63.623047"/>
       <use xlink:href="#DejaVuSans-35" x="95.410156"/>
      </g>
     </g>
    </g>
    <g id="xtick_3">
     <g id="line2d_3">
      <g>
       <use xlink:href="#m460d203c0f" x="163.050354" y="307.584" style="stroke: #000000; stroke-width: 0.8"/>
      </g>
     </g>
     <g id="text_3">
      <!-- 1.0 -->
      <g transform="translate(155.098792 322.182437) scale(0.1 -0.1)">
       <defs>
        <path id="DejaVuSans-31" d="M 794 531 
L 1825 531 
L 1825 4091 
L 703 3866 
L 703 4441 
L 1819 4666 
L 2450 4666 
L 2450 531 
L 3481 531 
L 3481 0 
L 794 0 
L 794 531 
z
" transform="scale(0.015625)"/>
       </defs>
       <use xlink:href="#DejaVuSans-31"/>
       <use xlink:href="#DejaVuSans-2e" x="63.623047"/>
       <use xlink:href="#DejaVuSans-30" x="95.410156"/>
      </g>
     </g>
    </g>
    <g id="xtick_4">
     <g id="line2d_4">
      <g>
       <use xlink:href="#m460d203c0f" x="209.235466" y="307.584" style="stroke: #000000; stroke-width: 0.8"/>
      </g>
     </g>
     <g id="text_4">
      <!-- 1.5 -->
      <g transform="translate(201.283903 322.182437) scale(0.1 -0.1)">
       <use xlink:href="#DejaVuSans-31"/>
       <use xlink:href="#DejaVuSans-2e" x="63.623047"/>
       <use xlink:href="#DejaVuSans-35" x="95.410156"/>
      </g>
     </g>
    </g>
    <g id="xtick_5">
     <g id="line2d_5">
      <g>
       <use xlink:href="#m460d203c0f" x="255.420577" y="307.584" style="stroke: #000000; stroke-width: 0.8"/>
      </g>
     </g>
     <g id="text_5">
      <!-- 2.0 -->
      <g transform="translate(247.469014 322.182437) scale(0.1 -0.1)">
       <defs>
        <path id="DejaVuSans-32" d="M 1228 531 
L 3431 531 
L 3431 0 
L 469 0 
L 469 531 
Q 828 903 1448 1529 
Q 2069 2156 2228 2338 
Q 2531 2678 2651 2914 
Q 2772 3150 2772 3378 
Q 2772 3750 2511 3984 
Q 2250 4219 1831 4219 
Q 1534 4219 1204 4116 
Q 875 4013 500 3803 
L 500 4441 
Q 881 4594 1212 4672 
Q 1544 4750 1819 4750 
Q 2544 4750 2975 4387 
Q 3406 4025 3406 3419 
Q 3406 3131 3298 2873 
Q 3191 2616 2906 2266 
Q 2828 2175 2409 1742 
Q 1991 1309 1228 531 
z
" transform="scale(0.015625)"/>
       </defs>
       <use xlink:href="#DejaVuSans-32"/>
       <use xlink:href="#DejaVuSans-2e" x="63.623047"/>
       <use xlink:href="#DejaVuSans-30" x="95.410156"/>
      </g>
     </g>
    </g>
    <g id="xtick_6">
     <g id="line2d_6">
      <g>
       <use xlink:href="#m460d203c0f" x="301.605688" y="307.584" style="stroke: #000000; stroke-width: 0.8"/>
      </g>
     </g>
     <g id="text_6">
      <!-- 2.5 -->
      <g transform="translate(293.654126 322.182437) scale(0.1 -0.1)">
       <use xlink:href="#DejaVuSans-32"/>
       <use xlink:href="#DejaVuSans-2e" x="63.623047"/>
       <use xlink:href="#DejaVuSans-35" x="95.410156"/>
      </g>
     </g>
    </g>
    <g id="xtick_7">
     <g id="line2d_7">
      <g>
       <use xlink:href="#m460d203c0f" x="347.7908" y="307.584" style="stroke: #000000; stroke-width: 0.8"/>
      </g>
     </g>
     <g id="text_7">
      <!-- 3.0 -->
      <g transform="translate(339.839237 322.182437) scale(0.1 -0.1)">
       <defs>
        <path id="DejaVuSans-33" d="M 2597 2516 
Q 3050 2419 3304 2112 
Q 3559 1806 3559 1356 
Q 3559 666 3084 287 
Q 2609 -91 1734 -91 
Q 1441 -91 1130 -33 
Q 819 25 488 141 
L 488 750 
Q 750 597 1062 519 
Q 1375 441 1716 441 
Q 2309 441 2620 675 
Q 2931 909 2931 1356 
Q 2931 1769 2642 2001 
Q 2353 2234 1838 2234 
L 1294 2234 
L 1294 2753 
L 1863 2753 
Q 2328 2753 2575 2939 
Q 2822 3125 2822 3475 
Q 2822 3834 2567 4026 
Q 2313 4219 1838 4219 
Q 1578 4219 1281 4162 
Q 984 4106 628 3988 
L 628 4550 
Q 988 4650 1302 4700 
Q 1616 4750 1894 4750 
Q 2613 4750 3031 4423 
Q 3450 4097 3450 3541 
Q 3450 3153 3228 2886 
Q 3006 2619 2597 2516 
z
" transform="scale(0.015625)"/>
       </defs>
       <use xlink:href="#DejaVuSans-33"/>
       <use xlink:href="#DejaVuSans-2e" x="63.623047"/>
       <use xlink:href="#DejaVuSans-30" x="95.410156"/>
      </g>
     </g>
    </g>
    <g id="xtick_8">
     <g id="line2d_8">
      <g>
       <use xlink:href="#m460d203c0f" x="393.975911" y="307.584" style="stroke: #000000; stroke-width: 0.8"/>
      </g>
     </g>
     <g id="text_8">
      <!-- 3.5 -->
      <g transform="translate(386.024349 322.182437) scale(0.1 -0.1)">
       <use xlink:href="#DejaVuSans-33"/>
       <use xlink:href="#DejaVuSans-2e" x="63.623047"/>
       <use xlink:href="#DejaVuSans-35" x="95.410156"/>
      </g>
     </g>
    </g>
    <g id="text_9">
     <!-- 1e6 -->
     <g transform="translate(395.841875 334.860562) scale(0.1 -0.1)">
      <defs>
       <path id="DejaVuSans-65" d="M 3597 1894 
L 3597 1613 
L 953 1613 
Q 991 1019 1311 708 
Q 1631 397 2203 397 
Q 2534 397 2845 478 
Q 3156 559 3463 722 
L 3463 178 
Q 3153 47 2828 -22 
Q 2503 -91 2169 -91 
Q 1331 -91 842 396 
Q 353 884 353 1716 
Q 353 2575 817 3079 
Q 1281 3584 2069 3584 
Q 2775 3584 3186 3129 
Q 3597 2675 3597 1894 
z
M 3022 2063 
Q 3016 2534 2758 2815 
Q 2500 3097 2075 3097 
Q 1594 3097 1305 2825 
Q 1016 2553 972 2059 
L 3022 2063 
z
" transform="scale(0.015625)"/>
       <path id="DejaVuSans-36" d="M 2113 2584 
Q 1688 2584 1439 2293 
Q 1191 2003 1191 1497 
Q 1191 994 1439 701 
Q 1688 409 2113 409 
Q 2538 409 2786 701 
Q 3034 994 3034 1497 
Q 3034 2003 2786 2293 
Q 2538 2584 2113 2584 
z
M 3366 4563 
L 3366 3988 
Q 3128 4100 2886 4159 
Q 2644 4219 2406 4219 
Q 1781 4219 1451 3797 
Q 1122 3375 1075 2522 
Q 1259 2794 1537 2939 
Q 1816 3084 2150 3084 
Q 2853 3084 3261 2657 
Q 3669 2231 3669 1497 
Q 3669 778 3244 343 
Q 2819 -91 2113 -91 
Q 1303 -91 875 529 
Q 447 1150 447 2328 
Q 447 3434 972 4092 
Q 1497 4750 2381 4750 
Q 2619 4750 2861 4703 
Q 3103 4656 3366 4563 
z
" transform="scale(0.015625)"/>
      </defs>
      <use xlink:href="#DejaVuSans-31"/>
      <use xlink:href="#DejaVuSans-65" x="63.623047"/>
      <use xlink:href="#DejaVuSans-36" x="125.146484"/>
     </g>
    </g>
   </g>
   <g id="matplotlib.axis_2">
    <g id="ytick_1">
     <g id="line2d_9">
      <defs>
       <path id="m4334eca8ae" d="M 0 0 
L -3.5 0 
" style="stroke: #000000; stroke-width: 0.8"/>
      </defs>
      <g>
       <use xlink:href="#m4334eca8ae" x="57.6" y="295.488" style="stroke: #000000; stroke-width: 0.8"/>
      </g>
     </g>
     <g id="text_10">
      <!-- 0 -->
      <g transform="translate(44.2375 299.287219) scale(0.1 -0.1)">
       <use xlink:href="#DejaVuSans-30"/>
      </g>
     </g>
    </g>
    <g id="ytick_2">
     <g id="line2d_10">
      <g>
       <use xlink:href="#m4334eca8ae" x="57.6" y="247.104" style="stroke: #000000; stroke-width: 0.8"/>
      </g>
     </g>
     <g id="text_11">
      <!-- 5 -->
      <g transform="translate(44.2375 250.903219) scale(0.1 -0.1)">
       <use xlink:href="#DejaVuSans-35"/>
      </g>
     </g>
    </g>
    <g id="ytick_3">
     <g id="line2d_11">
      <g>
       <use xlink:href="#m4334eca8ae" x="57.6" y="198.72" style="stroke: #000000; stroke-width: 0.8"/>
      </g>
     </g>
     <g id="text_12">
      <!-- 10 -->
      <g transform="translate(37.875 202.519219) scale(0.1 -0.1)">
       <use xlink:href="#DejaVuSans-31"/>
       <use xlink:href="#DejaVuSans-30" x="63.623047"/>
      </g>
     </g>
    </g>
    <g id="ytick_4">
     <g id="line2d_12">
      <g>
       <use xlink:href="#m4334eca8ae" x="57.6" y="150.336" style="stroke: #000000; stroke-width: 0.8"/>
      </g>
     </g>
     <g id="text_13">
      <!-- 15 -->
      <g transform="translate(37.875 154.135219) scale(0.1 -0.1)">
       <use xlink:href="#DejaVuSans-31"/>
       <use xlink:href="#DejaVuSans-35" x="63.623047"/>
      </g>
     </g>
    </g>
    <g id="ytick_5">
     <g id="line2d_13">
      <g>
       <use xlink:href="#m4334eca8ae" x="57.6" y="101.952" style="stroke: #000000; stroke-width: 0.8"/>
      </g>
     </g>
     <g id="text_14">
      <!-- 20 -->
      <g transform="translate(37.875 105.751219) scale(0.1 -0.1)">
       <use xlink:href="#DejaVuSans-32"/>
       <use xlink:href="#DejaVuSans-30" x="63.623047"/>
      </g>
     </g>
    </g>
    <g id="ytick_6">
     <g id="line2d_14">
      <g>
       <use xlink:href="#m4334eca8ae" x="57.6" y="53.568" style="stroke: #000000; stroke-width: 0.8"/>
      </g>
     </g>
     <g id="text_15">
      <!-- 25 -->
      <g transform="translate(37.875 57.367219) scale(0.1 -0.1)">
       <use xlink:href="#DejaVuSans-32"/>
       <use xlink:href="#DejaVuSans-35" x="63.623047"/>
      </g>
     </g>
    </g>
   </g>
   <g id="line2d_15">
    <path d="M 73.832727 266.4576 
L 74.194819 295.488 
L 74.509801 276.1344 
L 74.871892 295.488 
L 75.102818 276.1344 
L 75.464909 295.488 
L 75.779892 276.1344 
L 76.141983 295.488 
L 76.420941 276.1344 
L 76.783032 295.488 
L 77.097091 276.1344 
L 77.459182 295.488 
L 77.728903 276.1344 
L 78.090071 295.488 
L 78.375495 285.8112 
L 78.736662 295.488 
L 84.33245 237.4272 
L 84.694542 295.488 
L 84.737032 276.1344 
L 85.082497 256.7808 
L 85.0982 276.1344 
L 85.443664 295.488 
L 85.454749 276.1344 
L 85.81684 276.1344 
L 86.178931 295.488 
L 86.185397 285.8112 
L 86.547488 295.488 
L 86.562268 276.1344 
L 86.924359 295.488 
L 86.939138 285.8112 
L 87.301229 295.488 
L 87.322475 285.8112 
L 87.683642 295.488 
L 87.761233 276.1344 
L 88.123324 295.488 
L 88.357021 276.1344 
L 88.719112 295.488 
L 89.052569 276.1344 
L 89.41466 295.488 
L 89.653899 276.1344 
L 90.01599 295.488 
L 90.299567 276.1344 
L 90.661658 295.488 
L 91.018207 276.1344 
L 91.380298 295.488 
L 91.623232 276.1344 
L 91.985323 295.488 
L 92.309543 276.1344 
L 92.671634 295.488 
L 92.954287 276.1344 
L 93.316378 295.488 
L 93.547304 276.1344 
L 93.909395 295.488 
L 94.239157 276.1344 
L 94.601248 295.488 
L 94.846953 276.1344 
L 95.496316 256.7808 
L 95.826077 276.1344 
L 96.140136 256.7808 
L 97.473962 218.0736 
L 98.433689 198.72 
L 98.80317 218.0736 
L 98.858592 256.7808 
L 99.036866 237.4272 
L 99.202209 256.7808 
L 99.234539 276.1344 
L 99.618799 295.488 
L 99.755507 276.1344 
L 100.117598 295.488 
L 100.354989 276.1344 
L 100.717081 295.488 
L 101.028368 276.1344 
L 101.39046 295.488 
L 101.680502 276.1344 
L 102.042593 295.488 
L 102.302154 276.1344 
L 102.664245 295.488 
L 102.916416 276.1344 
L 103.277583 295.488 
L 103.604574 276.1344 
L 103.966665 295.488 
L 104.234539 276.1344 
L 104.59663 295.488 
L 104.876512 276.1344 
L 105.238603 295.488 
L 105.545272 276.1344 
L 105.907363 295.488 
L 106.196482 276.1344 
L 106.558573 295.488 
L 106.808897 276.1344 
L 107.170064 295.488 
L 107.445328 276.1344 
L 107.807419 295.488 
L 108.065132 276.1344 
L 108.427223 295.488 
L 108.776383 276.1344 
L 109.138474 295.488 
L 109.378636 276.1344 
L 109.739804 295.488 
L 110.054786 276.1344 
L 110.416878 295.488 
L 110.66443 285.8112 
L 111.026521 295.488 
L 113.310837 237.4272 
L 113.672928 295.488 
L 114.213294 256.7808 
L 114.575385 295.488 
L 115.168402 256.7808 
L 115.530493 295.488 
L 127.220869 256.7808 
L 127.58296 295.488 
L 128.041116 198.72 
L 128.403207 295.488 
L 128.526984 256.7808 
L 128.889075 295.488 
L 129.03502 256.7808 
L 129.397111 295.488 
L 129.563377 256.7808 
L 129.925469 295.488 
L 130.043703 256.7808 
L 130.405794 295.488 
L 130.526799 256.7808 
L 130.88889 295.488 
L 131.026522 256.7808 
L 131.388613 295.488 
L 131.558574 256.7808 
L 131.920666 295.488 
L 132.061068 256.7808 
L 132.42316 295.488 
L 132.594044 256.7808 
L 132.956136 295.488 
L 133.089149 256.7808 
L 133.45124 295.488 
L 144.22715 237.4272 
L 144.589242 295.488 
L 145.036313 198.72 
L 145.397481 295.488 
L 145.582221 256.7808 
L 145.944313 295.488 
L 146.105037 256.7808 
L 146.467128 295.488 
L 146.613073 256.7808 
L 146.975164 295.488 
L 147.108178 256.7808 
L 147.470269 295.488 
L 147.64023 256.7808 
L 148.001398 295.488 
L 148.143648 256.7808 
L 148.505739 295.488 
L 148.682166 256.7808 
L 149.044257 295.488 
L 149.192973 256.7808 
L 149.555065 295.488 
L 149.706552 256.7808 
L 150.068643 295.488 
L 150.192419 266.4576 
L 150.554511 295.488 
L 154.607716 256.7808 
L 154.969807 295.488 
L 155.371618 266.4576 
L 155.732785 295.488 
L 156.117045 198.72 
L 156.479137 295.488 
L 156.631548 256.7808 
L 156.993639 295.488 
L 157.140507 256.7808 
L 157.502599 295.488 
L 157.653162 256.7808 
L 158.01433 295.488 
L 158.189833 256.7808 
L 158.551924 295.488 
L 158.681243 266.4576 
L 159.168958 237.4272 
L 159.498719 266.4576 
L 159.663138 256.7808 
L 161.31287 285.8112 
L 161.3452 295.488 
L 165.734633 266.4576 
L 166.096724 295.488 
L 166.638937 247.104 
L 167.001029 295.488 
L 167.616214 208.3968 
L 167.978306 295.488 
L 168.138106 256.7808 
L 168.500197 295.488 
L 168.650761 256.7808 
L 169.012852 295.488 
L 169.173576 256.7808 
L 169.534744 295.488 
L 169.732416 256.7808 
L 170.094507 295.488 
L 170.245995 256.7808 
L 170.608086 295.488 
L 170.772505 256.7808 
L 171.134596 295.488 
L 171.306405 266.4576 
L 171.668496 295.488 
L 171.859702 266.4576 
L 172.221794 295.488 
L 172.372357 276.1344 
L 172.733525 295.488 
L 172.838827 276.1344 
L 173.200918 295.488 
L 173.779156 256.7808 
L 174.141247 295.488 
L 174.730569 256.7808 
L 175.09266 295.488 
L 175.669974 256.7808 
L 176.032065 295.488 
L 176.606608 256.7808 
L 176.968699 295.488 
L 177.570953 256.7808 
L 177.933045 295.488 
L 178.446623 256.7808 
L 178.807791 295.488 
L 179.380486 256.7808 
L 179.741654 295.488 
L 180.297722 256.7808 
L 180.659814 295.488 
L 181.194637 276.1344 
L 181.555805 295.488 
L 183.041118 276.1344 
L 183.402285 295.488 
L 183.74036 276.1344 
L 184.102452 295.488 
L 184.366631 276.1344 
L 184.728722 295.488 
L 184.986435 276.1344 
L 185.348526 295.488 
L 185.637645 276.1344 
L 185.999736 295.488 
L 186.282389 276.1344 
L 186.64448 295.488 
L 186.979784 276.1344 
L 187.341875 295.488 
L 187.593122 276.1344 
L 187.95429 295.488 
L 188.542688 276.1344 
L 188.90478 295.488 
L 189.21422 276.1344 
L 189.576311 295.488 
L 189.869125 276.1344 
L 190.231216 295.488 
L 190.517564 276.1344 
L 190.879655 295.488 
L 191.187248 276.1344 
L 191.548415 295.488 
L 191.793196 285.8112 
L 192.155288 295.488 
L 192.770473 266.4576 
L 193.131641 295.488 
L 204.519966 285.8112 
L 204.882057 295.488 
L 205.455676 247.104 
L 205.817767 295.488 
L 205.864876 266.4576 
L 206.219578 247.104 
L 206.226967 276.1344 
L 206.578898 256.7808 
L 206.580745 276.1344 
L 206.940989 295.488 
L 206.966853 276.1344 
L 207.328021 295.488 
L 207.36035 276.1344 
L 207.722441 295.488 
L 207.724289 276.1344 
L 208.044813 256.7808 
L 208.08638 276.1344 
L 208.405057 256.7808 
L 208.406905 276.1344 
L 208.735743 256.7808 
L 208.767149 276.1344 
L 209.097834 295.488 
L 209.124621 276.1344 
L 209.470086 256.7808 
L 209.486713 276.1344 
L 209.817398 256.7808 
L 209.832177 276.1344 
L 210.179489 295.488 
L 210.196116 276.1344 
L 210.558207 295.488 
L 210.575758 276.1344 
L 210.906443 266.4576 
L 210.936925 285.8112 
L 211.262068 276.1344 
L 211.267611 285.8112 
L 211.622312 276.1344 
L 211.62416 285.8112 
L 211.984403 295.488 
L 212.19316 276.1344 
L 212.555251 295.488 
L 212.82682 276.1344 
L 213.188911 295.488 
L 213.450319 276.1344 
L 213.81241 295.488 
L 214.077513 276.1344 
L 214.439604 295.488 
L 214.765671 276.1344 
L 215.127762 295.488 
L 215.401178 276.1344 
L 215.763269 295.488 
L 216.089336 276.1344 
L 216.451427 295.488 
L 216.690666 276.1344 
L 217.052758 295.488 
L 217.362198 276.1344 
L 217.724289 295.488 
L 217.985697 276.1344 
L 218.655381 256.7808 
L 218.985143 276.1344 
L 219.333378 256.7808 
L 219.958725 237.4272 
L 220.557284 227.7504 
L 223.388431 179.3664 
L 224.895913 92.2752 
L 225.628409 53.568 
L 227.528465 72.9216 
L 227.583887 111.6288 
L 227.946902 121.3056 
L 228.002324 218.0736 
L 228.066059 121.3056 
L 228.404134 160.0128 
L 228.431845 198.72 
L 228.563011 160.0128 
L 228.925102 295.488 
L 229.102453 256.7808 
L 229.463621 295.488 
L 229.614184 266.4576 
L 229.976275 295.488 
L 230.142542 266.4576 
L 230.503709 295.488 
L 230.651502 266.4576 
L 231.013593 295.488 
L 231.114277 276.1344 
L 231.476368 295.488 
L 231.662032 266.4576 
L 232.0232 295.488 
L 232.284607 256.7808 
L 232.646699 295.488 
L 233.036501 256.7808 
L 233.398592 295.488 
L 233.756989 256.7808 
L 234.11908 295.488 
L 234.491332 256.7808 
L 234.852499 295.488 
L 235.2968 256.7808 
L 235.658892 295.488 
L 235.996043 256.7808 
L 236.358134 295.488 
L 236.73131 256.7808 
L 237.093401 295.488 
L 237.467501 256.7808 
L 237.829592 295.488 
L 238.180599 256.7808 
L 238.54269 295.488 
L 238.897392 266.4576 
L 239.259483 295.488 
L 239.678844 247.104 
L 240.040935 295.488 
L 240.381781 266.4576 
L 240.743872 295.488 
L 241.162309 247.104 
L 241.524401 295.488 
L 241.859705 266.4576 
L 242.220872 295.488 
L 242.591277 256.7808 
L 242.953368 295.488 
L 243.357026 247.104 
L 243.719117 295.488 
L 244.10153 256.7808 
L 244.463621 295.488 
L 244.900532 285.8112 
L 245.262624 295.488 
L 250.790058 169.6896 
L 251.152149 295.488 
L 251.311026 256.7808 
L 251.673117 295.488 
L 251.83846 256.7808 
L 252.200551 295.488 
L 252.342801 256.7808 
L 252.704892 295.488 
L 252.844371 256.7808 
L 253.206463 295.488 
L 253.341323 256.7808 
L 253.702491 295.488 
L 253.868757 256.7808 
L 254.230849 295.488 
L 254.409123 256.7808 
L 254.771214 295.488 
L 260.389171 237.4272 
L 260.751263 295.488 
L 261.085643 198.72 
L 261.447734 295.488 
L 261.564121 256.7808 
L 261.926212 295.488 
L 262.04814 256.7808 
L 262.409308 295.488 
L 262.56449 256.7808 
L 262.926581 295.488 
L 263.12333 256.7808 
L 263.485421 295.488 
L 263.670162 256.7808 
L 264.032253 295.488 
L 264.224383 256.7808 
L 264.58555 295.488 
L 264.722258 256.7808 
L 265.08435 295.488 
L 265.209049 256.7808 
L 265.571141 295.488 
L 277.052759 237.4272 
L 277.414851 295.488 
L 277.803729 198.72 
L 278.164897 295.488 
L 278.299757 256.7808 
L 278.661849 295.488 
L 278.75699 256.7808 
L 279.119081 295.488 
L 279.291814 256.7808 
L 279.653905 295.488 
L 279.801697 256.7808 
L 280.163789 295.488 
L 280.330055 256.7808 
L 280.692146 295.488 
L 280.863031 256.7808 
L 281.225122 295.488 
L 281.39416 256.7808 
L 281.756251 295.488 
L 281.86063 256.7808 
L 282.222721 295.488 
L 282.332641 256.7808 
L 282.694733 295.488 
L 282.835135 256.7808 
L 283.197227 295.488 
L 283.349638 256.7808 
L 283.711729 295.488 
L 283.884461 256.7808 
L 284.246552 295.488 
L 284.34816 256.7808 
L 284.709327 295.488 
L 284.848806 256.7808 
L 285.210898 295.488 
L 285.332826 256.7808 
L 285.694917 295.488 
L 285.802067 256.7808 
L 286.164158 295.488 
L 286.349822 256.7808 
L 286.711914 295.488 
L 286.815368 256.7808 
L 287.17746 295.488 
L 287.355734 256.7808 
L 287.717825 295.488 
L 287.840678 256.7808 
L 288.201845 295.488 
L 288.338553 256.7808 
L 288.700645 295.488 
L 288.817031 256.7808 
L 289.179122 295.488 
L 289.274264 256.7808 
L 289.636355 295.488 
L 289.791537 256.7808 
L 290.153628 295.488 
L 290.30881 266.4576 
L 290.670901 295.488 
L 290.818694 276.1344 
L 291.180785 295.488 
L 291.312874 266.4576 
L 291.674966 295.488 
L 291.846774 266.4576 
L 292.208866 295.488 
L 294.281653 276.1344 
L 294.643745 295.488 
L 300.454755 247.104 
L 300.80761 227.7504 
L 300.816847 276.1344 
L 301.161388 256.7808 
L 301.169701 276.1344 
L 301.523479 295.488 
L 301.555808 276.1344 
L 301.89296 256.7808 
L 301.9179 276.1344 
L 302.254127 295.488 
L 302.263364 276.1344 
L 302.625456 295.488 
L 302.627303 285.8112 
L 302.96076 266.4576 
L 302.988471 276.1344 
L 303.321927 295.488 
L 303.334859 285.8112 
L 303.69695 295.488 
L 315.621022 266.4576 
L 315.983114 295.488 
L 316.257453 276.1344 
L 316.619544 295.488 
L 316.682356 247.104 
L 317.044447 295.488 
L 317.068464 276.1344 
L 317.430555 295.488 
L 317.449953 276.1344 
L 317.774172 256.7808 
L 317.812044 276.1344 
L 318.136263 295.488 
L 318.140882 276.1344 
L 318.497431 256.7808 
L 318.502049 276.1344 
L 318.859522 295.488 
L 318.882615 276.1344 
L 319.233622 256.7808 
L 319.244706 276.1344 
L 319.595713 295.488 
L 319.601255 276.1344 
L 319.963346 295.488 
L 319.977202 276.1344 
L 320.339293 295.488 
L 320.366081 276.1344 
L 320.712469 256.7808 
L 320.728172 276.1344 
L 321.07456 295.488 
L 321.093034 285.8112 
L 321.455125 295.488 
L 321.470828 276.1344 
L 321.83292 295.488 
L 321.836615 285.8112 
L 322.198706 285.8112 
L 322.560797 295.488 
L 322.682726 276.1344 
L 323.044817 295.488 
L 323.323775 276.1344 
L 323.685866 295.488 
L 323.97868 276.1344 
L 324.340771 295.488 
L 324.585552 276.1344 
L 324.94672 295.488 
L 325.218288 276.1344 
L 325.58038 295.488 
L 325.855643 285.8112 
L 326.217734 295.488 
L 326.844004 266.4576 
L 327.206096 295.488 
L 327.469351 276.1344 
L 327.831442 295.488 
L 333.774542 247.104 
L 334.108922 227.7504 
L 334.13571 276.1344 
L 334.47009 295.488 
L 334.478403 276.1344 
L 334.832181 256.7808 
L 334.840494 276.1344 
L 335.194272 295.488 
L 335.200738 285.8112 
L 335.559135 266.4576 
L 335.56283 276.1344 
L 335.919379 266.4576 
L 335.921226 285.8112 
L 336.28147 295.488 
L 336.307334 285.8112 
L 336.669425 295.488 
L 337.147903 285.8112 
L 337.509994 295.488 
L 366.706374 198.72 
L 367.068465 295.488 
L 367.241197 256.7808 
L 367.603289 295.488 
L 367.703049 285.8112 
L 368.06514 295.488 
L 372.646703 189.0432 
L 373.151968 150.336 
L 373.480806 256.7808 
L 373.640607 218.0736 
L 375.704157 72.9216 
L 375.878737 111.6288 
L 375.934159 189.0432 
L 376.227896 169.6896 
L 376.32858 247.104 
L 376.760873 295.488 
L 376.776576 276.1344 
L 377.138667 295.488 
L 377.39638 276.1344 
L 377.758471 295.488 
L 378.553779 247.104 
L 378.91587 295.488 
L 379.473786 256.7808 
L 379.835877 295.488 
L 380.424276 256.7808 
L 380.786367 295.488 
L 381.341512 256.7808 
L 381.703603 295.488 
L 382.236579 256.7808 
L 382.598671 295.488 
L 383.14735 256.7808 
L 383.509441 295.488 
L 384.08306 266.4576 
L 384.445151 295.488 
L 385.226604 247.104 
L 385.588695 295.488 
L 386.18633 256.7808 
L 386.548421 295.488 
L 387.132201 256.7808 
L 387.494293 295.488 
L 388.003252 256.7808 
L 388.365344 295.488 
L 388.942658 256.7808 
L 389.303825 295.488 
L 389.837725 256.7808 
L 390.199816 295.488 
L 390.780825 256.7808 
L 391.141993 295.488 
L 391.761797 256.7808 
L 392.123888 295.488 
L 392.659635 256.7808 
L 393.021727 295.488 
L 393.579643 256.7808 
L 393.941734 295.488 
L 394.459931 256.7808 
L 394.822022 295.488 
L 395.426124 256.7808 
L 395.788215 295.488 
L 396.405248 256.7808 
L 396.767339 295.488 
L 397.273528 256.7808 
L 397.635619 295.488 
L 398.125181 266.4576 
L 398.487273 295.488 
L 398.487273 295.488 
" clip-path="url(#p52083106f7)" style="fill: none; stroke: #1f77b4; stroke-width: 1.5; stroke-linecap: square"/>
   </g>
   <g id="patch_3">
    <path d="M 57.6 307.584 
L 57.6 41.472 
" style="fill: none; stroke: #000000; stroke-width: 0.8; stroke-linejoin: miter; stroke-linecap: square"/>
   </g>
   <g id="patch_4">
    <path d="M 414.72 307.584 
L 414.72 41.472 
" style="fill: none; stroke: #000000; stroke-width: 0.8; stroke-linejoin: miter; stroke-linecap: square"/>
   </g>
   <g id="patch_5">
    <path d="M 57.6 307.584 
L 414.72 307.584 
" style="fill: none; stroke: #000000; stroke-width: 0.8; stroke-linejoin: miter; stroke-linecap: square"/>
   </g>
   <g id="patch_6">
    <path d="M 57.6 41.472 
L 414.72 41.472 
" style="fill: none; stroke: #000000; stroke-width: 0.8; stroke-linejoin: miter; stroke-linecap: square"/>
   </g>
   <g id="text_16">
    <!-- Queue size (y-axis) between S7 and sensors that follow at a time (x-axis). -->
    <g transform="translate(14.282813 35.472) scale(0.12 -0.12)">
     <defs>
      <path id="DejaVuSans-51" d="M 2522 4238 
Q 1834 4238 1429 3725 
Q 1025 3213 1025 2328 
Q 1025 1447 1429 934 
Q 1834 422 2522 422 
Q 3209 422 3611 934 
Q 4013 1447 4013 2328 
Q 4013 3213 3611 3725 
Q 3209 4238 2522 4238 
z
M 3406 84 
L 4238 -825 
L 3475 -825 
L 2784 -78 
Q 2681 -84 2626 -87 
Q 2572 -91 2522 -91 
Q 1538 -91 948 567 
Q 359 1225 359 2328 
Q 359 3434 948 4092 
Q 1538 4750 2522 4750 
Q 3503 4750 4090 4092 
Q 4678 3434 4678 2328 
Q 4678 1516 4351 937 
Q 4025 359 3406 84 
z
" transform="scale(0.015625)"/>
      <path id="DejaVuSans-75" d="M 544 1381 
L 544 3500 
L 1119 3500 
L 1119 1403 
Q 1119 906 1312 657 
Q 1506 409 1894 409 
Q 2359 409 2629 706 
Q 2900 1003 2900 1516 
L 2900 3500 
L 3475 3500 
L 3475 0 
L 2900 0 
L 2900 538 
Q 2691 219 2414 64 
Q 2138 -91 1772 -91 
Q 1169 -91 856 284 
Q 544 659 544 1381 
z
M 1991 3584 
L 1991 3584 
z
" transform="scale(0.015625)"/>
      <path id="DejaVuSans-20" transform="scale(0.015625)"/>
      <path id="DejaVuSans-73" d="M 2834 3397 
L 2834 2853 
Q 2591 2978 2328 3040 
Q 2066 3103 1784 3103 
Q 1356 3103 1142 2972 
Q 928 2841 928 2578 
Q 928 2378 1081 2264 
Q 1234 2150 1697 2047 
L 1894 2003 
Q 2506 1872 2764 1633 
Q 3022 1394 3022 966 
Q 3022 478 2636 193 
Q 2250 -91 1575 -91 
Q 1294 -91 989 -36 
Q 684 19 347 128 
L 347 722 
Q 666 556 975 473 
Q 1284 391 1588 391 
Q 1994 391 2212 530 
Q 2431 669 2431 922 
Q 2431 1156 2273 1281 
Q 2116 1406 1581 1522 
L 1381 1569 
Q 847 1681 609 1914 
Q 372 2147 372 2553 
Q 372 3047 722 3315 
Q 1072 3584 1716 3584 
Q 2034 3584 2315 3537 
Q 2597 3491 2834 3397 
z
" transform="scale(0.015625)"/>
      <path id="DejaVuSans-69" d="M 603 3500 
L 1178 3500 
L 1178 0 
L 603 0 
L 603 3500 
z
M 603 4863 
L 1178 4863 
L 1178 4134 
L 603 4134 
L 603 4863 
z
" transform="scale(0.015625)"/>
      <path id="DejaVuSans-7a" d="M 353 3500 
L 3084 3500 
L 3084 2975 
L 922 459 
L 3084 459 
L 3084 0 
L 275 0 
L 275 525 
L 2438 3041 
L 353 3041 
L 353 3500 
z
" transform="scale(0.015625)"/>
      <path id="DejaVuSans-28" d="M 1984 4856 
Q 1566 4138 1362 3434 
Q 1159 2731 1159 2009 
Q 1159 1288 1364 580 
Q 1569 -128 1984 -844 
L 1484 -844 
Q 1016 -109 783 600 
Q 550 1309 550 2009 
Q 550 2706 781 3412 
Q 1013 4119 1484 4856 
L 1984 4856 
z
" transform="scale(0.015625)"/>
      <path id="DejaVuSans-79" d="M 2059 -325 
Q 1816 -950 1584 -1140 
Q 1353 -1331 966 -1331 
L 506 -1331 
L 506 -850 
L 844 -850 
Q 1081 -850 1212 -737 
Q 1344 -625 1503 -206 
L 1606 56 
L 191 3500 
L 800 3500 
L 1894 763 
L 2988 3500 
L 3597 3500 
L 2059 -325 
z
" transform="scale(0.015625)"/>
      <path id="DejaVuSans-2d" d="M 313 2009 
L 1997 2009 
L 1997 1497 
L 313 1497 
L 313 2009 
z
" transform="scale(0.015625)"/>
      <path id="DejaVuSans-61" d="M 2194 1759 
Q 1497 1759 1228 1600 
Q 959 1441 959 1056 
Q 959 750 1161 570 
Q 1363 391 1709 391 
Q 2188 391 2477 730 
Q 2766 1069 2766 1631 
L 2766 1759 
L 2194 1759 
z
M 3341 1997 
L 3341 0 
L 2766 0 
L 2766 531 
Q 2569 213 2275 61 
Q 1981 -91 1556 -91 
Q 1019 -91 701 211 
Q 384 513 384 1019 
Q 384 1609 779 1909 
Q 1175 2209 1959 2209 
L 2766 2209 
L 2766 2266 
Q 2766 2663 2505 2880 
Q 2244 3097 1772 3097 
Q 1472 3097 1187 3025 
Q 903 2953 641 2809 
L 641 3341 
Q 956 3463 1253 3523 
Q 1550 3584 1831 3584 
Q 2591 3584 2966 3190 
Q 3341 2797 3341 1997 
z
" transform="scale(0.015625)"/>
      <path id="DejaVuSans-78" d="M 3513 3500 
L 2247 1797 
L 3578 0 
L 2900 0 
L 1881 1375 
L 863 0 
L 184 0 
L 1544 1831 
L 300 3500 
L 978 3500 
L 1906 2253 
L 2834 3500 
L 3513 3500 
z
" transform="scale(0.015625)"/>
      <path id="DejaVuSans-29" d="M 513 4856 
L 1013 4856 
Q 1481 4119 1714 3412 
Q 1947 2706 1947 2009 
Q 1947 1309 1714 600 
Q 1481 -109 1013 -844 
L 513 -844 
Q 928 -128 1133 580 
Q 1338 1288 1338 2009 
Q 1338 2731 1133 3434 
Q 928 4138 513 4856 
z
" transform="scale(0.015625)"/>
      <path id="DejaVuSans-62" d="M 3116 1747 
Q 3116 2381 2855 2742 
Q 2594 3103 2138 3103 
Q 1681 3103 1420 2742 
Q 1159 2381 1159 1747 
Q 1159 1113 1420 752 
Q 1681 391 2138 391 
Q 2594 391 2855 752 
Q 3116 1113 3116 1747 
z
M 1159 2969 
Q 1341 3281 1617 3432 
Q 1894 3584 2278 3584 
Q 2916 3584 3314 3078 
Q 3713 2572 3713 1747 
Q 3713 922 3314 415 
Q 2916 -91 2278 -91 
Q 1894 -91 1617 61 
Q 1341 213 1159 525 
L 1159 0 
L 581 0 
L 581 4863 
L 1159 4863 
L 1159 2969 
z
" transform="scale(0.015625)"/>
      <path id="DejaVuSans-74" d="M 1172 4494 
L 1172 3500 
L 2356 3500 
L 2356 3053 
L 1172 3053 
L 1172 1153 
Q 1172 725 1289 603 
Q 1406 481 1766 481 
L 2356 481 
L 2356 0 
L 1766 0 
Q 1100 0 847 248 
Q 594 497 594 1153 
L 594 3053 
L 172 3053 
L 172 3500 
L 594 3500 
L 594 4494 
L 1172 4494 
z
" transform="scale(0.015625)"/>
      <path id="DejaVuSans-77" d="M 269 3500 
L 844 3500 
L 1563 769 
L 2278 3500 
L 2956 3500 
L 3675 769 
L 4391 3500 
L 4966 3500 
L 4050 0 
L 3372 0 
L 2619 2869 
L 1863 0 
L 1184 0 
L 269 3500 
z
" transform="scale(0.015625)"/>
      <path id="DejaVuSans-6e" d="M 3513 2113 
L 3513 0 
L 2938 0 
L 2938 2094 
Q 2938 2591 2744 2837 
Q 2550 3084 2163 3084 
Q 1697 3084 1428 2787 
Q 1159 2491 1159 1978 
L 1159 0 
L 581 0 
L 581 3500 
L 1159 3500 
L 1159 2956 
Q 1366 3272 1645 3428 
Q 1925 3584 2291 3584 
Q 2894 3584 3203 3211 
Q 3513 2838 3513 2113 
z
" transform="scale(0.015625)"/>
      <path id="DejaVuSans-53" d="M 3425 4513 
L 3425 3897 
Q 3066 4069 2747 4153 
Q 2428 4238 2131 4238 
Q 1616 4238 1336 4038 
Q 1056 3838 1056 3469 
Q 1056 3159 1242 3001 
Q 1428 2844 1947 2747 
L 2328 2669 
Q 3034 2534 3370 2195 
Q 3706 1856 3706 1288 
Q 3706 609 3251 259 
Q 2797 -91 1919 -91 
Q 1588 -91 1214 -16 
Q 841 59 441 206 
L 441 856 
Q 825 641 1194 531 
Q 1563 422 1919 422 
Q 2459 422 2753 634 
Q 3047 847 3047 1241 
Q 3047 1584 2836 1778 
Q 2625 1972 2144 2069 
L 1759 2144 
Q 1053 2284 737 2584 
Q 422 2884 422 3419 
Q 422 4038 858 4394 
Q 1294 4750 2059 4750 
Q 2388 4750 2728 4690 
Q 3069 4631 3425 4513 
z
" transform="scale(0.015625)"/>
      <path id="DejaVuSans-37" d="M 525 4666 
L 3525 4666 
L 3525 4397 
L 1831 0 
L 1172 0 
L 2766 4134 
L 525 4134 
L 525 4666 
z
" transform="scale(0.015625)"/>
      <path id="DejaVuSans-64" d="M 2906 2969 
L 2906 4863 
L 3481 4863 
L 3481 0 
L 2906 0 
L 2906 525 
Q 2725 213 2448 61 
Q 2172 -91 1784 -91 
Q 1150 -91 751 415 
Q 353 922 353 1747 
Q 353 2572 751 3078 
Q 1150 3584 1784 3584 
Q 2172 3584 2448 3432 
Q 2725 3281 2906 2969 
z
M 947 1747 
Q 947 1113 1208 752 
Q 1469 391 1925 391 
Q 2381 391 2643 752 
Q 2906 1113 2906 1747 
Q 2906 2381 2643 2742 
Q 2381 3103 1925 3103 
Q 1469 3103 1208 2742 
Q 947 2381 947 1747 
z
" transform="scale(0.015625)"/>
      <path id="DejaVuSans-6f" d="M 1959 3097 
Q 1497 3097 1228 2736 
Q 959 2375 959 1747 
Q 959 1119 1226 758 
Q 1494 397 1959 397 
Q 2419 397 2687 759 
Q 2956 1122 2956 1747 
Q 2956 2369 2687 2733 
Q 2419 3097 1959 3097 
z
M 1959 3584 
Q 2709 3584 3137 3096 
Q 3566 2609 3566 1747 
Q 3566 888 3137 398 
Q 2709 -91 1959 -91 
Q 1206 -91 779 398 
Q 353 888 353 1747 
Q 353 2609 779 3096 
Q 1206 3584 1959 3584 
z
" transform="scale(0.015625)"/>
      <path id="DejaVuSans-72" d="M 2631 2963 
Q 2534 3019 2420 3045 
Q 2306 3072 2169 3072 
Q 1681 3072 1420 2755 
Q 1159 2438 1159 1844 
L 1159 0 
L 581 0 
L 581 3500 
L 1159 3500 
L 1159 2956 
Q 1341 3275 1631 3429 
Q 1922 3584 2338 3584 
Q 2397 3584 2469 3576 
Q 2541 3569 2628 3553 
L 2631 2963 
z
" transform="scale(0.015625)"/>
      <path id="DejaVuSans-68" d="M 3513 2113 
L 3513 0 
L 2938 0 
L 2938 2094 
Q 2938 2591 2744 2837 
Q 2550 3084 2163 3084 
Q 1697 3084 1428 2787 
Q 1159 2491 1159 1978 
L 1159 0 
L 581 0 
L 581 4863 
L 1159 4863 
L 1159 2956 
Q 1366 3272 1645 3428 
Q 1925 3584 2291 3584 
Q 2894 3584 3203 3211 
Q 3513 2838 3513 2113 
z
" transform="scale(0.015625)"/>
      <path id="DejaVuSans-66" d="M 2375 4863 
L 2375 4384 
L 1825 4384 
Q 1516 4384 1395 4259 
Q 1275 4134 1275 3809 
L 1275 3500 
L 2222 3500 
L 2222 3053 
L 1275 3053 
L 1275 0 
L 697 0 
L 697 3053 
L 147 3053 
L 147 3500 
L 697 3500 
L 697 3744 
Q 697 4328 969 4595 
Q 1241 4863 1831 4863 
L 2375 4863 
z
" transform="scale(0.015625)"/>
      <path id="DejaVuSans-6c" d="M 603 4863 
L 1178 4863 
L 1178 0 
L 603 0 
L 603 4863 
z
" transform="scale(0.015625)"/>
      <path id="DejaVuSans-6d" d="M 3328 2828 
Q 3544 3216 3844 3400 
Q 4144 3584 4550 3584 
Q 5097 3584 5394 3201 
Q 5691 2819 5691 2113 
L 5691 0 
L 5113 0 
L 5113 2094 
Q 5113 2597 4934 2840 
Q 4756 3084 4391 3084 
Q 3944 3084 3684 2787 
Q 3425 2491 3425 1978 
L 3425 0 
L 2847 0 
L 2847 2094 
Q 2847 2600 2669 2842 
Q 2491 3084 2119 3084 
Q 1678 3084 1418 2786 
Q 1159 2488 1159 1978 
L 1159 0 
L 581 0 
L 581 3500 
L 1159 3500 
L 1159 2956 
Q 1356 3278 1631 3431 
Q 1906 3584 2284 3584 
Q 2666 3584 2933 3390 
Q 3200 3197 3328 2828 
z
" transform="scale(0.015625)"/>
     </defs>
     <use xlink:href="#DejaVuSans-51"/>
     <use xlink:href="#DejaVuSans-75" x="78.710938"/>
     <use xlink:href="#DejaVuSans-65" x="142.089844"/>
     <use xlink:href="#DejaVuSans-75" x="203.613281"/>
     <use xlink:href="#DejaVuSans-65" x="266.992188"/>
     <use xlink:href="#DejaVuSans-20" x="328.515625"/>
     <use xlink:href="#DejaVuSans-73" x="360.302734"/>
     <use xlink:href="#DejaVuSans-69" x="412.402344"/>
     <use xlink:href="#DejaVuSans-7a" x="440.185547"/>
     <use xlink:href="#DejaVuSans-65" x="492.675781"/>
     <use xlink:href="#DejaVuSans-20" x="554.199219"/>
     <use xlink:href="#DejaVuSans-28" x="585.986328"/>
     <use xlink:href="#DejaVuSans-79" x="625"/>
     <use xlink:href="#DejaVuSans-2d" x="682.429688"/>
     <use xlink:href="#DejaVuSans-61" x="718.513672"/>
     <use xlink:href="#DejaVuSans-78" x="779.792969"/>
     <use xlink:href="#DejaVuSans-69" x="838.972656"/>
     <use xlink:href="#DejaVuSans-73" x="866.755859"/>
     <use xlink:href="#DejaVuSans-29" x="918.855469"/>
     <use xlink:href="#DejaVuSans-20" x="957.869141"/>
     <use xlink:href="#DejaVuSans-62" x="989.65625"/>
     <use xlink:href="#DejaVuSans-65" x="1053.132812"/>
     <use xlink:href="#DejaVuSans-74" x="1114.65625"/>
     <use xlink:href="#DejaVuSans-77" x="1153.865234"/>
     <use xlink:href="#DejaVuSans-65" x="1235.652344"/>
     <use xlink:href="#DejaVuSans-65" x="1297.175781"/>
     <use xlink:href="#DejaVuSans-6e" x="1358.699219"/>
     <use xlink:href="#DejaVuSans-20" x="1422.078125"/>
     <use xlink:href="#DejaVuSans-53" x="1453.865234"/>
     <use xlink:href="#DejaVuSans-37" x="1517.341797"/>
     <use xlink:href="#DejaVuSans-20" x="1580.964844"/>
     <use xlink:href="#DejaVuSans-61" x="1612.751953"/>
     <use xlink:href="#DejaVuSans-6e" x="1674.03125"/>
     <use xlink:href="#DejaVuSans-64" x="1737.410156"/>
     <use xlink:href="#DejaVuSans-20" x="1800.886719"/>
     <use xlink:href="#DejaVuSans-73" x="1832.673828"/>
     <use xlink:href="#DejaVuSans-65" x="1884.773438"/>
     <use xlink:href="#DejaVuSans-6e" x="1946.296875"/>
     <use xlink:href="#DejaVuSans-73" x="2009.675781"/>
     <use xlink:href="#DejaVuSans-6f" x="2061.775391"/>
     <use xlink:href="#DejaVuSans-72" x="2122.957031"/>
     <use xlink:href="#DejaVuSans-73" x="2164.070312"/>
     <use xlink:href="#DejaVuSans-20" x="2216.169922"/>
     <use xlink:href="#DejaVuSans-74" x="2247.957031"/>
     <use xlink:href="#DejaVuSans-68" x="2287.166016"/>
     <use xlink:href="#DejaVuSans-61" x="2350.544922"/>
     <use xlink:href="#DejaVuSans-74" x="2411.824219"/>
     <use xlink:href="#DejaVuSans-20" x="2451.033203"/>
     <use xlink:href="#DejaVuSans-66" x="2482.820312"/>
     <use xlink:href="#DejaVuSans-6f" x="2518.025391"/>
     <use xlink:href="#DejaVuSans-6c" x="2579.207031"/>
     <use xlink:href="#DejaVuSans-6c" x="2606.990234"/>
     <use xlink:href="#DejaVuSans-6f" x="2634.773438"/>
     <use xlink:href="#DejaVuSans-77" x="2695.955078"/>
     <use xlink:href="#DejaVuSans-20" x="2777.742188"/>
     <use xlink:href="#DejaVuSans-61" x="2809.529297"/>
     <use xlink:href="#DejaVuSans-74" x="2870.808594"/>
     <use xlink:href="#DejaVuSans-20" x="2910.017578"/>
     <use xlink:href="#DejaVuSans-61" x="2941.804688"/>
     <use xlink:href="#DejaVuSans-20" x="3003.083984"/>
     <use xlink:href="#DejaVuSans-74" x="3034.871094"/>
     <use xlink:href="#DejaVuSans-69" x="3074.080078"/>
     <use xlink:href="#DejaVuSans-6d" x="3101.863281"/>
     <use xlink:href="#DejaVuSans-65" x="3199.275391"/>
     <use xlink:href="#DejaVuSans-20" x="3260.798828"/>
     <use xlink:href="#DejaVuSans-28" x="3292.585938"/>
     <use xlink:href="#DejaVuSans-78" x="3331.599609"/>
     <use xlink:href="#DejaVuSans-2d" x="3390.779297"/>
     <use xlink:href="#DejaVuSans-61" x="3426.863281"/>
     <use xlink:href="#DejaVuSans-78" x="3488.142578"/>
     <use xlink:href="#DejaVuSans-69" x="3547.322266"/>
     <use xlink:href="#DejaVuSans-73" x="3575.105469"/>
     <use xlink:href="#DejaVuSans-29" x="3627.205078"/>
     <use xlink:href="#DejaVuSans-2e" x="3666.21875"/>
    </g>
   </g>
  </g>
 </g>
 <defs>
  <clipPath id="p52083106f7">
   <rect x="57.6" y="41.472" width="357.12" height="266.112"/>
  </clipPath>
 </defs>
</svg>
