<?xml version="1.0" encoding="utf-8" standalone="no"?>
<!DOCTYPE svg PUBLIC "-//W3C//DTD SVG 1.1//EN"
  "http://www.w3.org/Graphics/SVG/1.1/DTD/svg11.dtd">
<svg xmlns:xlink="http://www.w3.org/1999/xlink" width="460.8pt" height="345.6pt" viewBox="0 0 460.8 345.6" xmlns="http://www.w3.org/2000/svg" version="1.1">
 <metadata>
  <rdf:RDF xmlns:dc="http://purl.org/dc/elements/1.1/" xmlns:cc="http://creativecommons.org/ns#" xmlns:rdf="http://www.w3.org/1999/02/22-rdf-syntax-ns#">
   <cc:Work>
    <dc:type rdf:resource="http://purl.org/dc/dcmitype/StillImage"/>
    <dc:date>2024-03-08T14:20:37.318756</dc:date>
    <dc:format>image/svg+xml</dc:format>
    <dc:creator>
     <cc:Agent>
      <dc:title>Matplotlib v3.8.2, https://matplotlib.org/</dc:title>
     </cc:Agent>
    </dc:creator>
   </cc:Work>
  </rdf:RDF>
 </metadata>
 <defs>
  <style type="text/css">*{stroke-linejoin: round; stroke-linecap: butt}</style>
 </defs>
 <g id="figure_1">
  <g id="patch_1">
   <path d="M 0 345.6 
L 460.8 345.6 
L 460.8 0 
L 0 0 
z
" style="fill: #ffffff"/>
  </g>
  <g id="axes_1">
   <g id="patch_2">
    <path d="M 57.6 307.584 
L 414.72 307.584 
L 414.72 41.472 
L 57.6 41.472 
z
" style="fill: #ffffff"/>
   </g>
   <g id="matplotlib.axis_1">
    <g id="xtick_1">
     <g id="line2d_1">
      <defs>
       <path id="m453c76daa7" d="M 0 0 
L 0 3.5 
" style="stroke: #000000; stroke-width: 0.8"/>
      </defs>
      <g>
       <use xlink:href="#m453c76daa7" x="73.541929" y="307.584" style="stroke: #000000; stroke-width: 0.8"/>
      </g>
     </g>
     <g id="text_1">
      <!-- 0.0 -->
      <g transform="translate(65.590367 322.182437) scale(0.1 -0.1)">
       <defs>
        <path id="DejaVuSans-30" d="M 2034 4250 
Q 1547 4250 1301 3770 
Q 1056 3291 1056 2328 
Q 1056 1369 1301 889 
Q 1547 409 2034 409 
Q 2525 409 2770 889 
Q 3016 1369 3016 2328 
Q 3016 3291 2770 3770 
Q 2525 4250 2034 4250 
z
M 2034 4750 
Q 2819 4750 3233 4129 
Q 3647 3509 3647 2328 
Q 3647 1150 3233 529 
Q 2819 -91 2034 -91 
Q 1250 -91 836 529 
Q 422 1150 422 2328 
Q 422 3509 836 4129 
Q 1250 4750 2034 4750 
z
" transform="scale(0.015625)"/>
        <path id="DejaVuSans-2e" d="M 684 794 
L 1344 794 
L 1344 0 
L 684 0 
L 684 794 
z
" transform="scale(0.015625)"/>
       </defs>
       <use xlink:href="#DejaVuSans-30"/>
       <use xlink:href="#DejaVuSans-2e" x="63.623047"/>
       <use xlink:href="#DejaVuSans-30" x="95.410156"/>
      </g>
     </g>
    </g>
    <g id="xtick_2">
     <g id="line2d_2">
      <g>
       <use xlink:href="#m453c76daa7" x="119.409141" y="307.584" style="stroke: #000000; stroke-width: 0.8"/>
      </g>
     </g>
     <g id="text_2">
      <!-- 0.5 -->
      <g transform="translate(111.457578 322.182437) scale(0.1 -0.1)">
       <defs>
        <path id="DejaVuSans-35" d="M 691 4666 
L 3169 4666 
L 3169 4134 
L 1269 4134 
L 1269 2991 
Q 1406 3038 1543 3061 
Q 1681 3084 1819 3084 
Q 2600 3084 3056 2656 
Q 3513 2228 3513 1497 
Q 3513 744 3044 326 
Q 2575 -91 1722 -91 
Q 1428 -91 1123 -41 
Q 819 9 494 109 
L 494 744 
Q 775 591 1075 516 
Q 1375 441 1709 441 
Q 2250 441 2565 725 
Q 2881 1009 2881 1497 
Q 2881 1984 2565 2268 
Q 2250 2553 1709 2553 
Q 1456 2553 1204 2497 
Q 953 2441 691 2322 
L 691 4666 
z
" transform="scale(0.015625)"/>
       </defs>
       <use xlink:href="#DejaVuSans-30"/>
       <use xlink:href="#DejaVuSans-2e" x="63.623047"/>
       <use xlink:href="#DejaVuSans-35" x="95.410156"/>
      </g>
     </g>
    </g>
    <g id="xtick_3">
     <g id="line2d_3">
      <g>
       <use xlink:href="#m453c76daa7" x="165.276352" y="307.584" style="stroke: #000000; stroke-width: 0.8"/>
      </g>
     </g>
     <g id="text_3">
      <!-- 1.0 -->
      <g transform="translate(157.32479 322.182437) scale(0.1 -0.1)">
       <defs>
        <path id="DejaVuSans-31" d="M 794 531 
L 1825 531 
L 1825 4091 
L 703 3866 
L 703 4441 
L 1819 4666 
L 2450 4666 
L 2450 531 
L 3481 531 
L 3481 0 
L 794 0 
L 794 531 
z
" transform="scale(0.015625)"/>
       </defs>
       <use xlink:href="#DejaVuSans-31"/>
       <use xlink:href="#DejaVuSans-2e" x="63.623047"/>
       <use xlink:href="#DejaVuSans-30" x="95.410156"/>
      </g>
     </g>
    </g>
    <g id="xtick_4">
     <g id="line2d_4">
      <g>
       <use xlink:href="#m453c76daa7" x="211.143564" y="307.584" style="stroke: #000000; stroke-width: 0.8"/>
      </g>
     </g>
     <g id="text_4">
      <!-- 1.5 -->
      <g transform="translate(203.192002 322.182437) scale(0.1 -0.1)">
       <use xlink:href="#DejaVuSans-31"/>
       <use xlink:href="#DejaVuSans-2e" x="63.623047"/>
       <use xlink:href="#DejaVuSans-35" x="95.410156"/>
      </g>
     </g>
    </g>
    <g id="xtick_5">
     <g id="line2d_5">
      <g>
       <use xlink:href="#m453c76daa7" x="257.010776" y="307.584" style="stroke: #000000; stroke-width: 0.8"/>
      </g>
     </g>
     <g id="text_5">
      <!-- 2.0 -->
      <g transform="translate(249.059213 322.182437) scale(0.1 -0.1)">
       <defs>
        <path id="DejaVuSans-32" d="M 1228 531 
L 3431 531 
L 3431 0 
L 469 0 
L 469 531 
Q 828 903 1448 1529 
Q 2069 2156 2228 2338 
Q 2531 2678 2651 2914 
Q 2772 3150 2772 3378 
Q 2772 3750 2511 3984 
Q 2250 4219 1831 4219 
Q 1534 4219 1204 4116 
Q 875 4013 500 3803 
L 500 4441 
Q 881 4594 1212 4672 
Q 1544 4750 1819 4750 
Q 2544 4750 2975 4387 
Q 3406 4025 3406 3419 
Q 3406 3131 3298 2873 
Q 3191 2616 2906 2266 
Q 2828 2175 2409 1742 
Q 1991 1309 1228 531 
z
" transform="scale(0.015625)"/>
       </defs>
       <use xlink:href="#DejaVuSans-32"/>
       <use xlink:href="#DejaVuSans-2e" x="63.623047"/>
       <use xlink:href="#DejaVuSans-30" x="95.410156"/>
      </g>
     </g>
    </g>
    <g id="xtick_6">
     <g id="line2d_6">
      <g>
       <use xlink:href="#m453c76daa7" x="302.877987" y="307.584" style="stroke: #000000; stroke-width: 0.8"/>
      </g>
     </g>
     <g id="text_6">
      <!-- 2.5 -->
      <g transform="translate(294.926425 322.182437) scale(0.1 -0.1)">
       <use xlink:href="#DejaVuSans-32"/>
       <use xlink:href="#DejaVuSans-2e" x="63.623047"/>
       <use xlink:href="#DejaVuSans-35" x="95.410156"/>
      </g>
     </g>
    </g>
    <g id="xtick_7">
     <g id="line2d_7">
      <g>
       <use xlink:href="#m453c76daa7" x="348.745199" y="307.584" style="stroke: #000000; stroke-width: 0.8"/>
      </g>
     </g>
     <g id="text_7">
      <!-- 3.0 -->
      <g transform="translate(340.793637 322.182437) scale(0.1 -0.1)">
       <defs>
        <path id="DejaVuSans-33" d="M 2597 2516 
Q 3050 2419 3304 2112 
Q 3559 1806 3559 1356 
Q 3559 666 3084 287 
Q 2609 -91 1734 -91 
Q 1441 -91 1130 -33 
Q 819 25 488 141 
L 488 750 
Q 750 597 1062 519 
Q 1375 441 1716 441 
Q 2309 441 2620 675 
Q 2931 909 2931 1356 
Q 2931 1769 2642 2001 
Q 2353 2234 1838 2234 
L 1294 2234 
L 1294 2753 
L 1863 2753 
Q 2328 2753 2575 2939 
Q 2822 3125 2822 3475 
Q 2822 3834 2567 4026 
Q 2313 4219 1838 4219 
Q 1578 4219 1281 4162 
Q 984 4106 628 3988 
L 628 4550 
Q 988 4650 1302 4700 
Q 1616 4750 1894 4750 
Q 2613 4750 3031 4423 
Q 3450 4097 3450 3541 
Q 3450 3153 3228 2886 
Q 3006 2619 2597 2516 
z
" transform="scale(0.015625)"/>
       </defs>
       <use xlink:href="#DejaVuSans-33"/>
       <use xlink:href="#DejaVuSans-2e" x="63.623047"/>
       <use xlink:href="#DejaVuSans-30" x="95.410156"/>
      </g>
     </g>
    </g>
    <g id="xtick_8">
     <g id="line2d_8">
      <g>
       <use xlink:href="#m453c76daa7" x="394.612411" y="307.584" style="stroke: #000000; stroke-width: 0.8"/>
      </g>
     </g>
     <g id="text_8">
      <!-- 3.5 -->
      <g transform="translate(386.660848 322.182437) scale(0.1 -0.1)">
       <use xlink:href="#DejaVuSans-33"/>
       <use xlink:href="#DejaVuSans-2e" x="63.623047"/>
       <use xlink:href="#DejaVuSans-35" x="95.410156"/>
      </g>
     </g>
    </g>
    <g id="text_9">
     <!-- 1e6 -->
     <g transform="translate(395.841875 334.860562) scale(0.1 -0.1)">
      <defs>
       <path id="DejaVuSans-65" d="M 3597 1894 
L 3597 1613 
L 953 1613 
Q 991 1019 1311 708 
Q 1631 397 2203 397 
Q 2534 397 2845 478 
Q 3156 559 3463 722 
L 3463 178 
Q 3153 47 2828 -22 
Q 2503 -91 2169 -91 
Q 1331 -91 842 396 
Q 353 884 353 1716 
Q 353 2575 817 3079 
Q 1281 3584 2069 3584 
Q 2775 3584 3186 3129 
Q 3597 2675 3597 1894 
z
M 3022 2063 
Q 3016 2534 2758 2815 
Q 2500 3097 2075 3097 
Q 1594 3097 1305 2825 
Q 1016 2553 972 2059 
L 3022 2063 
z
" transform="scale(0.015625)"/>
       <path id="DejaVuSans-36" d="M 2113 2584 
Q 1688 2584 1439 2293 
Q 1191 2003 1191 1497 
Q 1191 994 1439 701 
Q 1688 409 2113 409 
Q 2538 409 2786 701 
Q 3034 994 3034 1497 
Q 3034 2003 2786 2293 
Q 2538 2584 2113 2584 
z
M 3366 4563 
L 3366 3988 
Q 3128 4100 2886 4159 
Q 2644 4219 2406 4219 
Q 1781 4219 1451 3797 
Q 1122 3375 1075 2522 
Q 1259 2794 1537 2939 
Q 1816 3084 2150 3084 
Q 2853 3084 3261 2657 
Q 3669 2231 3669 1497 
Q 3669 778 3244 343 
Q 2819 -91 2113 -91 
Q 1303 -91 875 529 
Q 447 1150 447 2328 
Q 447 3434 972 4092 
Q 1497 4750 2381 4750 
Q 2619 4750 2861 4703 
Q 3103 4656 3366 4563 
z
" transform="scale(0.015625)"/>
      </defs>
      <use xlink:href="#DejaVuSans-31"/>
      <use xlink:href="#DejaVuSans-65" x="63.623047"/>
      <use xlink:href="#DejaVuSans-36" x="125.146484"/>
     </g>
    </g>
   </g>
   <g id="matplotlib.axis_2">
    <g id="ytick_1">
     <g id="line2d_9">
      <defs>
       <path id="mb48b633137" d="M 0 0 
L -3.5 0 
" style="stroke: #000000; stroke-width: 0.8"/>
      </defs>
      <g>
       <use xlink:href="#mb48b633137" x="57.6" y="295.488" style="stroke: #000000; stroke-width: 0.8"/>
      </g>
     </g>
     <g id="text_10">
      <!-- 0 -->
      <g transform="translate(44.2375 299.287219) scale(0.1 -0.1)">
       <use xlink:href="#DejaVuSans-30"/>
      </g>
     </g>
    </g>
    <g id="ytick_2">
     <g id="line2d_10">
      <g>
       <use xlink:href="#mb48b633137" x="57.6" y="237.888" style="stroke: #000000; stroke-width: 0.8"/>
      </g>
     </g>
     <g id="text_11">
      <!-- 5 -->
      <g transform="translate(44.2375 241.687219) scale(0.1 -0.1)">
       <use xlink:href="#DejaVuSans-35"/>
      </g>
     </g>
    </g>
    <g id="ytick_3">
     <g id="line2d_11">
      <g>
       <use xlink:href="#mb48b633137" x="57.6" y="180.288" style="stroke: #000000; stroke-width: 0.8"/>
      </g>
     </g>
     <g id="text_12">
      <!-- 10 -->
      <g transform="translate(37.875 184.087219) scale(0.1 -0.1)">
       <use xlink:href="#DejaVuSans-31"/>
       <use xlink:href="#DejaVuSans-30" x="63.623047"/>
      </g>
     </g>
    </g>
    <g id="ytick_4">
     <g id="line2d_12">
      <g>
       <use xlink:href="#mb48b633137" x="57.6" y="122.688" style="stroke: #000000; stroke-width: 0.8"/>
      </g>
     </g>
     <g id="text_13">
      <!-- 15 -->
      <g transform="translate(37.875 126.487219) scale(0.1 -0.1)">
       <use xlink:href="#DejaVuSans-31"/>
       <use xlink:href="#DejaVuSans-35" x="63.623047"/>
      </g>
     </g>
    </g>
    <g id="ytick_5">
     <g id="line2d_13">
      <g>
       <use xlink:href="#mb48b633137" x="57.6" y="65.088" style="stroke: #000000; stroke-width: 0.8"/>
      </g>
     </g>
     <g id="text_14">
      <!-- 20 -->
      <g transform="translate(37.875 68.887219) scale(0.1 -0.1)">
       <use xlink:href="#DejaVuSans-32"/>
       <use xlink:href="#DejaVuSans-30" x="63.623047"/>
      </g>
     </g>
    </g>
   </g>
   <g id="line2d_14">
    <path d="M 73.832727 283.968 
L 74.054725 295.488 
L 74.15288 283.968 
L 74.374878 295.488 
L 74.472116 283.968 
L 74.694114 295.488 
L 74.792269 283.968 
L 75.014267 295.488 
L 75.118844 283.968 
L 75.340841 295.488 
L 75.438997 283.968 
L 75.660994 295.488 
L 75.757315 283.968 
L 75.979313 295.488 
L 76.076551 283.968 
L 76.298549 295.488 
L 76.402208 283.968 
L 76.624206 295.488 
L 76.726031 283.968 
L 76.948028 295.488 
L 77.047101 283.968 
L 77.269099 295.488 
L 77.369089 283.968 
L 77.591087 295.488 
L 77.692912 283.968 
L 77.914909 295.488 
L 78.017652 283.968 
L 78.239649 295.488 
L 78.343309 283.968 
L 78.564389 295.488 
L 78.658875 283.968 
L 78.880873 295.488 
L 78.983615 283.968 
L 84.556481 272.448 
L 84.776644 191.808 
L 84.778479 203.328 
L 85.029831 295.488 
L 85.086706 283.968 
L 85.308704 295.488 
L 85.399521 283.968 
L 85.621518 295.488 
L 85.720591 283.968 
L 85.942588 295.488 
L 86.037992 283.968 
L 86.259072 295.488 
L 86.360897 283.968 
L 86.582895 295.488 
L 86.681051 283.968 
L 86.903048 295.488 
L 87.002121 283.968 
L 87.223201 295.488 
L 87.326861 283.968 
L 87.548858 295.488 
L 87.643345 283.968 
L 87.865342 295.488 
L 87.964415 283.968 
L 88.185495 295.488 
L 88.278147 283.968 
L 88.500144 295.488 
L 88.597383 283.968 
L 88.81938 295.488 
L 88.92304 283.968 
L 89.145037 295.488 
L 89.238606 283.968 
L 89.460604 295.488 
L 89.55509 283.968 
L 89.777087 295.488 
L 89.880747 283.968 
L 90.102745 295.488 
L 90.205487 283.968 
L 90.427484 295.488 
L 90.531144 283.968 
L 90.753142 295.488 
L 90.843959 283.968 
L 91.065956 295.488 
L 91.172368 283.968 
L 91.394365 295.488 
L 91.492521 283.968 
L 91.713601 295.488 
L 91.82093 283.968 
L 92.04201 295.488 
L 92.140166 283.968 
L 92.361246 295.488 
L 92.45665 283.968 
L 92.678647 295.488 
L 92.773134 283.968 
L 92.994214 295.488 
L 93.092369 283.968 
L 93.314367 295.488 
L 93.412523 283.968 
L 93.63452 295.488 
L 93.728089 283.968 
L 93.950086 295.488 
L 94.048242 283.968 
L 94.269322 295.488 
L 94.372065 283.968 
L 94.594062 295.488 
L 94.695887 283.968 
L 94.917884 295.488 
L 95.014206 283.968 
L 95.236203 295.488 
L 95.333441 283.968 
L 95.555439 295.488 
L 95.653595 283.968 
L 95.875592 295.488 
L 95.977417 283.968 
L 96.199414 295.488 
L 96.295736 283.968 
L 96.517733 295.488 
L 96.619558 283.968 
L 96.840638 295.488 
L 96.944298 283.968 
L 97.166295 295.488 
L 97.259864 283.968 
L 97.481862 295.488 
L 97.578183 283.968 
L 97.80018 295.488 
L 97.898336 283.968 
L 98.120333 295.488 
L 98.212068 283.968 
L 98.434065 295.488 
L 98.539559 283.968 
L 98.760639 295.488 
L 98.852374 283.968 
L 99.074371 295.488 
L 99.180783 283.968 
L 99.40278 295.488 
L 99.508275 283.968 
L 99.730272 295.488 
L 99.83485 283.968 
L 100.056847 295.488 
L 100.161424 283.968 
L 100.383421 295.488 
L 100.48066 283.968 
L 100.70174 295.488 
L 100.80173 283.968 
L 101.023728 295.488 
L 101.127388 283.968 
L 101.349385 295.488 
L 101.450293 283.968 
L 101.671373 295.488 
L 101.769529 283.968 
L 101.991526 295.488 
L 102.08326 283.968 
L 102.305258 295.488 
L 102.397909 283.968 
L 102.618989 295.488 
L 102.71898 283.968 
L 102.940977 295.488 
L 103.038216 283.968 
L 103.260213 295.488 
L 103.360203 283.968 
L 103.582201 295.488 
L 103.681274 283.968 
L 103.902354 295.488 
L 104.003262 283.968 
L 104.225259 295.488 
L 104.324332 283.968 
L 104.54633 295.488 
L 104.649072 283.968 
L 104.870152 295.488 
L 104.969225 283.968 
L 105.191223 295.488 
L 105.284792 283.968 
L 105.505872 295.488 
L 105.607697 283.968 
L 105.829694 295.488 
L 105.930602 283.968 
L 106.151682 295.488 
L 106.24892 283.968 
L 106.470918 295.488 
L 106.561735 283.968 
L 106.783732 295.488 
L 106.885557 283.968 
L 107.107555 295.488 
L 107.202958 283.968 
L 107.424956 295.488 
L 107.523112 283.968 
L 107.745109 295.488 
L 107.847851 283.968 
L 108.068931 295.488 
L 108.167087 283.968 
L 108.389085 295.488 
L 108.49091 283.968 
L 108.712907 295.488 
L 108.808311 283.968 
L 109.030308 295.488 
L 109.125712 283.968 
L 109.346792 295.488 
L 109.441278 283.968 
L 109.663276 295.488 
L 109.761432 283.968 
L 109.983429 295.488 
L 110.07975 283.968 
L 110.301747 295.488 
L 110.399903 283.968 
L 110.6219 295.488 
L 110.723726 283.968 
L 110.944806 295.488 
L 112.506125 283.968 
L 112.727205 295.488 
L 112.735462 283.968 
L 112.957459 295.488 
L 112.958376 283.968 
L 113.180373 295.488 
L 113.185878 283.968 
L 113.407875 295.488 
L 113.413379 283.968 
L 113.635376 295.488 
L 113.64455 283.968 
L 113.86563 295.488 
L 113.87572 283.968 
L 114.0968 295.488 
L 114.102304 283.968 
L 114.324302 295.488 
L 114.333475 283.968 
L 114.555472 295.488 
L 114.560977 283.968 
L 114.782974 295.488 
L 114.790313 283.968 
L 115.011393 295.488 
L 115.021483 283.968 
L 115.242563 295.488 
L 115.249902 283.968 
L 115.471899 295.488 
L 115.48566 283.968 
L 115.706739 295.488 
L 115.714996 283.968 
L 115.936993 295.488 
L 115.944332 283.968 
L 116.166329 295.488 
L 116.173668 283.968 
L 116.394748 295.488 
L 116.3975 283.968 
L 116.619497 295.488 
L 116.630505 283.968 
L 116.851585 295.488 
L 116.856172 283.968 
L 117.078169 295.488 
L 117.091929 283.968 
L 117.313927 295.488 
L 117.320348 283.968 
L 117.542345 295.488 
L 117.550601 283.968 
L 117.771681 295.488 
L 117.780855 283.968 
L 118.001935 295.488 
L 118.007439 283.968 
L 118.228519 295.488 
L 118.23861 283.968 
L 118.45969 295.488 
L 118.470698 283.968 
L 118.692695 295.488 
L 118.700951 283.968 
L 118.922948 295.488 
L 118.928452 283.968 
L 119.15045 295.488 
L 119.155036 283.968 
L 119.377034 295.488 
L 119.380703 283.968 
L 119.6027 295.488 
L 119.610957 283.968 
L 119.832954 295.488 
L 119.843045 283.968 
L 120.065042 295.488 
L 120.071463 283.968 
L 120.292543 295.488 
L 120.300799 283.968 
L 120.534722 272.448 
L 120.738373 283.968 
L 120.763141 272.448 
L 123.983019 111.168 
L 128.58717 99.648 
L 128.703673 111.168 
L 128.805498 99.648 
L 128.809167 111.168 
L 129.046759 283.968 
L 129.23298 295.488 
L 129.233898 283.968 
L 129.454977 295.488 
L 129.461399 283.968 
L 129.683396 295.488 
L 129.690735 283.968 
L 129.912732 295.488 
L 129.926492 283.968 
L 130.14849 295.488 
L 130.159498 283.968 
L 130.381495 295.488 
L 130.392503 283.968 
L 130.614501 295.488 
L 130.619087 283.968 
L 130.841085 295.488 
L 130.845671 283.968 
L 131.067669 295.488 
L 131.075925 283.968 
L 131.297005 295.488 
L 131.299757 283.968 
L 131.521754 295.488 
L 131.528175 283.968 
L 131.750173 295.488 
L 131.763016 283.968 
L 131.985013 295.488 
L 131.990517 283.968 
L 132.212514 295.488 
L 132.22077 283.968 
L 132.442768 295.488 
L 132.450106 283.968 
L 132.672104 295.488 
L 132.68036 283.968 
L 132.902357 295.488 
L 132.908779 283.968 
L 133.130776 295.488 
L 133.139949 283.968 
L 133.361947 295.488 
L 133.362864 283.968 
L 133.584861 295.488 
L 133.593117 283.968 
L 133.814197 295.488 
L 133.823371 283.968 
L 134.045368 295.488 
L 134.056376 283.968 
L 134.277456 295.488 
L 134.290299 283.968 
L 134.511379 295.488 
L 134.522387 283.968 
L 134.743467 295.488 
L 134.746219 283.968 
L 134.968216 295.488 
L 134.97739 283.968 
L 135.199387 295.488 
L 135.21223 283.968 
L 135.434227 295.488 
L 135.442483 283.968 
L 135.664481 295.488 
L 135.674571 283.968 
L 135.896569 295.488 
L 135.901155 283.968 
L 136.122235 295.488 
L 136.134161 283.968 
L 136.356158 295.488 
L 136.36258 283.968 
L 136.58366 295.488 
L 136.592833 283.968 
L 136.81483 295.488 
L 136.820334 283.968 
L 137.051505 272.448 
L 137.255156 283.968 
L 137.284511 272.448 
L 140.490629 111.168 
L 140.930954 99.648 
L 145.10487 111.168 
L 145.217703 99.648 
L 145.344297 122.688 
L 145.345214 111.168 
L 145.439701 191.808 
L 145.567212 283.968 
L 145.767193 295.488 
L 145.771779 283.968 
L 145.992859 295.488 
L 145.993777 283.968 
L 146.215774 295.488 
L 146.222195 283.968 
L 146.444193 295.488 
L 146.446945 283.968 
L 146.668942 295.488 
L 146.676281 283.968 
L 146.897361 295.488 
L 146.908369 283.968 
L 147.130366 295.488 
L 147.136788 283.968 
L 147.358785 295.488 
L 147.36062 283.968 
L 147.582617 295.488 
L 147.585369 283.968 
L 147.807366 295.488 
L 147.815622 283.968 
L 148.03762 295.488 
L 148.044958 283.968 
L 148.266956 295.488 
L 148.271542 283.968 
L 148.49354 295.488 
L 148.500878 283.968 
L 148.721958 295.488 
L 148.72838 283.968 
L 148.950377 295.488 
L 148.956799 283.968 
L 149.178796 295.488 
L 149.1843 283.968 
L 149.406297 295.488 
L 149.413636 283.968 
L 149.635633 295.488 
L 149.639303 283.968 
L 149.8613 295.488 
L 149.873225 283.968 
L 150.095223 295.488 
L 150.106231 283.968 
L 150.328228 295.488 
L 150.33465 283.968 
L 150.556647 295.488 
L 150.563068 283.968 
L 150.785066 295.488 
L 150.794239 283.968 
L 151.015319 295.488 
L 151.028162 283.968 
L 151.249242 295.488 
L 151.255663 283.968 
L 151.47766 295.488 
L 151.486834 283.968 
L 151.707914 295.488 
L 151.718005 283.968 
L 151.940002 295.488 
L 151.949175 283.968 
L 152.171173 295.488 
L 152.173925 283.968 
L 152.395922 295.488 
L 152.405096 283.968 
L 152.626175 295.488 
L 152.637184 283.968 
L 152.859181 295.488 
L 152.86652 283.968 
L 153.088517 295.488 
L 153.095856 283.968 
L 153.317853 295.488 
L 153.323357 283.968 
L 153.545354 295.488 
L 153.551776 283.968 
L 156.059795 157.248 
L 156.139604 191.808 
L 156.281792 295.488 
L 156.289131 283.968 
L 156.511128 295.488 
L 156.519384 283.968 
L 156.741382 295.488 
L 156.750555 283.968 
L 156.971635 295.488 
L 156.978974 283.968 
L 157.200971 295.488 
L 157.202806 283.968 
L 157.424803 295.488 
L 157.425721 283.968 
L 157.647718 295.488 
L 157.656891 283.968 
L 157.878889 295.488 
L 157.888979 283.968 
L 158.110977 295.488 
L 158.121067 283.968 
L 158.343065 295.488 
L 158.350403 283.968 
L 158.572401 295.488 
L 158.583409 283.968 
L 158.805406 295.488 
L 158.815497 283.968 
L 159.036577 295.488 
L 159.042998 283.968 
L 159.264078 295.488 
L 159.273252 283.968 
L 159.494332 295.488 
L 159.503505 283.968 
L 159.725502 295.488 
L 159.733759 283.968 
L 159.955756 295.488 
L 159.96126 283.968 
L 160.18234 295.488 
L 160.192431 283.968 
L 160.414428 295.488 
L 160.419015 283.968 
L 160.641012 295.488 
L 160.649268 283.968 
L 160.871265 295.488 
L 160.883191 283.968 
L 161.105188 295.488 
L 161.112527 283.968 
L 161.334524 295.488 
L 161.343698 283.968 
L 161.565695 295.488 
L 161.575786 283.968 
L 161.797783 295.488 
L 161.805122 283.968 
L 162.026202 295.488 
L 162.034458 283.968 
L 162.256455 295.488 
L 162.266546 283.968 
L 162.488543 295.488 
L 162.499551 283.968 
L 162.721549 295.488 
L 162.72797 283.968 
L 162.94905 295.488 
L 162.961893 283.968 
L 163.18389 295.488 
L 163.195816 283.968 
L 163.417813 295.488 
L 163.4224 283.968 
L 163.64348 295.488 
L 163.649901 283.968 
L 163.871898 295.488 
L 163.87832 283.968 
L 164.100317 295.488 
L 164.109491 283.968 
L 164.331488 295.488 
L 164.337909 283.968 
L 164.559907 295.488 
L 164.56908 283.968 
L 168.021046 111.168 
L 168.462289 99.648 
L 172.619693 111.168 
L 172.627032 99.648 
L 178.128345 111.168 
L 178.241178 99.648 
L 178.366855 122.688 
L 178.369607 111.168 
L 178.448498 180.288 
L 178.591604 283.968 
L 178.763147 295.488 
L 178.771403 283.968 
L 178.992483 295.488 
L 178.998905 283.968 
L 179.220902 295.488 
L 179.226406 283.968 
L 179.448404 295.488 
L 179.460329 283.968 
L 179.682326 295.488 
L 179.689665 283.968 
L 179.911662 295.488 
L 179.919001 283.968 
L 180.140998 295.488 
L 180.152924 283.968 
L 180.374921 295.488 
L 180.383177 283.968 
L 180.605175 295.488 
L 180.611596 283.968 
L 180.832676 295.488 
L 180.840015 283.968 
L 181.062012 295.488 
L 181.067516 283.968 
L 181.289513 295.488 
L 181.298687 283.968 
L 181.519767 295.488 
L 181.528023 283.968 
L 181.749103 295.488 
L 181.757359 283.968 
L 181.978439 295.488 
L 181.986695 283.968 
L 182.208692 295.488 
L 182.210527 283.968 
L 182.432524 295.488 
L 182.436194 283.968 
L 182.658191 295.488 
L 182.660943 283.968 
L 182.882023 295.488 
L 182.893031 283.968 
L 183.115028 295.488 
L 183.120532 283.968 
L 183.34253 295.488 
L 183.353538 283.968 
L 183.575535 295.488 
L 183.583791 283.968 
L 183.805789 295.488 
L 183.814962 283.968 
L 184.036959 295.488 
L 184.045215 283.968 
L 184.266295 295.488 
L 184.274552 283.968 
L 184.496549 295.488 
L 184.508474 283.968 
L 184.730472 295.488 
L 184.739645 283.968 
L 184.961642 295.488 
L 184.971733 283.968 
L 185.19373 295.488 
L 185.205656 283.968 
L 185.427653 295.488 
L 186.421137 283.968 
L 186.643134 295.488 
L 186.739455 283.968 
L 186.961453 295.488 
L 187.057774 283.968 
L 187.278854 295.488 
L 187.381596 283.968 
L 187.603594 295.488 
L 187.704502 283.968 
L 187.926499 295.488 
L 188.021903 283.968 
L 188.2439 295.488 
L 188.34756 283.968 
L 188.569557 295.488 
L 188.671382 283.968 
L 188.89338 295.488 
L 188.988784 283.968 
L 189.210781 295.488 
L 189.308937 283.968 
L 189.530934 295.488 
L 189.630924 283.968 
L 189.852004 295.488 
L 189.955664 283.968 
L 190.177662 295.488 
L 190.269396 283.968 
L 190.490476 295.488 
L 190.58588 283.968 
L 190.807877 295.488 
L 190.906033 283.968 
L 191.12803 295.488 
L 191.238112 283.968 
L 191.460109 295.488 
L 191.552761 283.968 
L 191.774758 295.488 
L 191.871996 283.968 
L 192.093994 295.488 
L 192.190315 283.968 
L 192.411395 295.488 
L 192.51322 283.968 
L 192.735217 295.488 
L 192.826952 283.968 
L 193.048032 295.488 
L 193.148022 283.968 
L 193.369102 295.488 
L 193.468175 283.968 
L 193.689255 295.488 
L 193.785577 283.968 
L 194.006656 295.488 
L 194.106647 283.968 
L 194.328644 295.488 
L 194.423131 283.968 
L 194.645128 295.488 
L 194.742367 283.968 
L 194.964364 295.488 
L 195.055181 283.968 
L 195.277178 295.488 
L 195.376251 283.968 
L 195.597331 295.488 
L 195.700991 283.968 
L 195.922989 295.488 
L 196.023896 283.968 
L 196.245894 295.488 
L 196.339463 283.968 
L 196.56146 295.488 
L 196.652277 283.968 
L 198.886928 203.328 
L 200.141855 191.808 
L 200.262027 214.848 
L 200.451 295.488 
L 200.476685 283.968 
L 200.698683 295.488 
L 200.796838 283.968 
L 201.018836 295.488 
L 201.118826 283.968 
L 201.340824 295.488 
L 201.439897 283.968 
L 201.661894 295.488 
L 201.752711 283.968 
L 201.973791 295.488 
L 202.075616 283.968 
L 202.297614 295.488 
L 202.402191 283.968 
L 202.624188 295.488 
L 202.71684 283.968 
L 202.93792 295.488 
L 203.038828 283.968 
L 203.259908 295.488 
L 203.354394 283.968 
L 203.576392 295.488 
L 203.675465 283.968 
L 203.897462 295.488 
L 204.000205 283.968 
L 204.222202 295.488 
L 204.321275 283.968 
L 204.543272 295.488 
L 204.636841 283.968 
L 204.858839 295.488 
L 204.956077 283.968 
L 205.178075 295.488 
L 205.270726 283.968 
L 205.492724 295.488 
L 205.590879 283.968 
L 205.811959 295.488 
L 205.911033 283.968 
L 206.132113 295.488 
L 206.231186 283.968 
L 206.453183 295.488 
L 206.560512 283.968 
L 206.78251 295.488 
L 206.874244 283.968 
L 207.096241 295.488 
L 207.197149 283.968 
L 207.418229 295.488 
L 207.509964 283.968 
L 207.731961 295.488 
L 207.828282 283.968 
L 208.050279 295.488 
L 208.149353 283.968 
L 208.370432 295.488 
L 208.466754 283.968 
L 208.687834 295.488 
L 208.790576 283.968 
L 209.012573 295.488 
L 209.109812 283.968 
L 209.331809 295.488 
L 209.434552 283.968 
L 209.655632 295.488 
L 209.760209 283.968 
L 209.981289 295.488 
L 210.076693 283.968 
L 210.29869 295.488 
L 210.395011 283.968 
L 210.616091 295.488 
L 210.714247 283.968 
L 210.936244 295.488 
L 211.042656 283.968 
L 211.264654 295.488 
L 211.370148 283.968 
L 211.592145 295.488 
L 211.681128 283.968 
L 211.903125 295.488 
L 212.005868 283.968 
L 212.226948 295.488 
L 212.334277 283.968 
L 212.556274 295.488 
L 212.651678 283.968 
L 212.872758 295.488 
L 212.966327 283.968 
L 213.187407 295.488 
L 213.282811 283.968 
L 213.504808 295.488 
L 213.595625 283.968 
L 213.817623 295.488 
L 213.919448 283.968 
L 214.140528 295.488 
L 214.244188 283.968 
L 214.466185 295.488 
L 214.566175 283.968 
L 214.788173 295.488 
L 214.885411 283.968 
L 215.107409 295.488 
L 215.199143 283.968 
L 215.420223 295.488 
L 215.515627 283.968 
L 215.736707 295.488 
L 215.83578 283.968 
L 216.057777 295.488 
L 216.166024 283.968 
L 216.387104 295.488 
L 216.483425 283.968 
L 216.705422 295.488 
L 216.80633 283.968 
L 217.02741 295.488 
L 217.13107 283.968 
L 217.35215 295.488 
L 217.456727 283.968 
L 217.678724 295.488 
L 217.775046 283.968 
L 217.997043 295.488 
L 218.10162 283.968 
L 218.3227 295.488 
L 218.419021 283.968 
L 218.641019 295.488 
L 218.739174 283.968 
L 218.961172 295.488 
L 219.070336 283.968 
L 219.292333 295.488 
L 219.395993 283.968 
L 219.61799 295.488 
L 219.72165 283.968 
L 219.943647 295.488 
L 220.031712 283.968 
L 220.25371 295.488 
L 220.355535 283.968 
L 220.577532 295.488 
L 220.675688 283.968 
L 220.897685 295.488 
L 221.625139 283.968 
L 221.808608 272.448 
L 221.847137 283.968 
L 221.992077 272.448 
L 222.030605 283.968 
L 222.337916 272.448 
L 227.664934 260.928 
L 227.883262 53.568 
L 227.919955 88.128 
L 228.062144 226.368 
L 229.129932 157.248 
L 230.595849 65.088 
L 230.951778 53.568 
L 238.81617 65.088 
L 238.927169 53.568 
L 239.050093 76.608 
L 239.052845 65.088 
L 239.137241 157.248 
L 239.273925 283.968 
L 239.417031 272.448 
L 239.45189 283.968 
L 239.603252 272.448 
L 239.639028 283.968 
L 239.783968 272.448 
L 239.825249 283.968 
L 239.967437 272.448 
L 240.005966 283.968 
L 240.151823 272.448 
L 240.189435 283.968 
L 240.330706 272.448 
L 240.373821 283.968 
L 240.516926 272.448 
L 240.551786 283.968 
L 240.701313 272.448 
L 240.738924 283.968 
L 240.882947 272.448 
L 240.922393 283.968 
L 241.065498 272.448 
L 241.104027 283.968 
L 241.251719 272.448 
L 241.286578 283.968 
L 241.43794 272.448 
L 241.473716 283.968 
L 241.615905 272.448 
L 241.659937 283.968 
L 241.799374 272.448 
L 241.837902 283.968 
L 241.988347 272.448 
L 242.021371 283.968 
L 242.175485 272.448 
L 242.210344 283.968 
L 242.358954 272.448 
L 242.397482 283.968 
L 242.54334 272.448 
L 242.580951 283.968 
L 242.724057 272.448 
L 242.765337 283.968 
L 242.90936 272.448 
L 242.946054 283.968 
L 243.092829 272.448 
L 243.13044 283.968 
L 243.278133 272.448 
L 243.313909 283.968 
L 243.462519 272.448 
L 243.50013 283.968 
L 243.647822 272.448 
L 243.684516 283.968 
L 243.834043 272.448 
L 243.868902 283.968 
L 244.017512 272.448 
L 244.05604 283.968 
L 244.201898 272.448 
L 244.239509 283.968 
L 244.383532 272.448 
L 244.423896 283.968 
L 244.570671 272.448 
L 244.60553 283.968 
L 244.754139 272.448 
L 244.792668 283.968 
L 244.933939 272.448 
L 244.976137 283.968 
L 245.11649 272.448 
L 245.155936 283.968 
L 245.299959 272.448 
L 245.33757 283.968 
L 245.477924 272.448 
L 245.521039 283.968 
L 245.658641 272.448 
L 245.699004 283.968 
L 245.841192 272.448 
L 245.879721 283.968 
L 246.025579 272.448 
L 246.06319 283.968 
L 246.206295 272.448 
L 246.247576 283.968 
L 246.391599 272.448 
L 246.428293 283.968 
L 246.57415 272.448 
L 246.612679 283.968 
L 246.759454 272.448 
L 246.796148 283.968 
L 246.94384 272.448 
L 246.981451 283.968 
L 247.126392 272.448 
L 247.165837 283.968 
L 247.308026 272.448 
L 247.347472 283.968 
L 247.48966 272.448 
L 247.530023 283.968 
L 247.673129 272.448 
L 247.711657 283.968 
L 247.85568 272.448 
L 247.895126 283.968 
L 248.039149 272.448 
L 248.077678 283.968 
L 248.224453 272.448 
L 248.261146 283.968 
L 248.409756 272.448 
L 248.44645 283.968 
L 248.593225 272.448 
L 248.631754 283.968 
L 248.775777 272.448 
L 248.815222 283.968 
L 248.958328 272.448 
L 248.996857 283.968 
L 249.14088 272.448 
L 249.179408 283.968 
L 249.328935 272.448 
L 249.362877 283.968 
L 249.509652 272.448 
L 249.550015 283.968 
L 249.694955 272.448 
L 249.731649 283.968 
L 249.878424 272.448 
L 249.916953 283.968 
L 250.057306 272.448 
L 250.099504 283.968 
L 250.238023 272.448 
L 250.278386 283.968 
L 250.422409 272.448 
L 250.460021 283.968 
L 250.605878 272.448 
L 250.644407 283.968 
L 250.789347 272.448 
L 250.827876 283.968 
L 250.968229 272.448 
L 251.010427 283.968 
L 251.151698 272.448 
L 251.189309 283.968 
L 251.333332 272.448 
L 251.372778 283.968 
L 251.520471 272.448 
L 251.554412 283.968 
L 251.706691 272.448 
L 251.742468 283.968 
L 251.89383 272.448 
L 251.928689 283.968 
L 252.076381 272.448 
L 252.115827 283.968 
L 252.256181 272.448 
L 252.298378 283.968 
L 252.444236 272.448 
L 252.478178 283.968 
L 252.627705 272.448 
L 252.666233 283.968 
L 252.80567 272.448 
L 252.849702 283.968 
L 252.990973 272.448 
L 253.027667 283.968 
L 253.177194 272.448 
L 253.212971 283.968 
L 253.359746 272.448 
L 253.399191 283.968 
L 253.546884 272.448 
L 253.581743 283.968 
L 253.729435 272.448 
L 253.767964 283.968 
L 253.912904 272.448 
L 253.951433 283.968 
L 254.09729 272.448 
L 254.134902 283.968 
L 254.281677 272.448 
L 254.31837 283.968 
L 254.464228 272.448 
L 254.503674 283.968 
L 254.650449 272.448 
L 254.686225 283.968 
L 254.835753 272.448 
L 254.871529 283.968 
L 255.021973 272.448 
L 255.056833 283.968 
L 255.375151 272.448 
L 260.689326 260.928 
L 260.907654 53.568 
L 260.954439 99.648 
L 261.145246 283.968 
L 261.256245 272.448 
L 261.291104 283.968 
L 261.436044 272.448 
L 261.478242 283.968 
L 261.623183 272.448 
L 261.657124 283.968 
L 261.806651 272.448 
L 261.844263 283.968 
L 261.987368 272.448 
L 262.027731 283.968 
L 262.170837 272.448 
L 262.209366 283.968 
L 262.354306 272.448 
L 262.392834 283.968 
L 262.534105 272.448 
L 262.576303 283.968 
L 262.719409 272.448 
L 262.756103 283.968 
L 262.907464 272.448 
L 262.941406 283.968 
L 263.088181 272.448 
L 263.129462 283.968 
L 263.27532 272.448 
L 263.310179 283.968 
L 263.457871 272.448 
L 263.496399 283.968 
L 263.645927 272.448 
L 263.678951 283.968 
L 263.829395 272.448 
L 263.867924 283.968 
L 264.011947 272.448 
L 264.051393 283.968 
L 264.191746 272.448 
L 264.233027 283.968 
L 264.377967 272.448 
L 264.413744 283.968 
L 264.561436 272.448 
L 264.599965 283.968 
L 264.748574 272.448 
L 264.783433 283.968 
L 264.932961 272.448 
L 264.969654 283.968 
L 265.114595 272.448 
L 265.154958 283.968 
L 265.296229 272.448 
L 265.336592 283.968 
L 265.475111 272.448 
L 265.518226 283.968 
L 265.65491 272.448 
L 265.697108 283.968 
L 265.83471 272.448 
L 265.876908 283.968 
L 266.019096 272.448 
L 266.056707 283.968 
L 266.202565 272.448 
L 266.241093 283.968 
L 266.388786 272.448 
L 266.424562 283.968 
L 266.571337 272.448 
L 266.610783 283.968 
L 266.753889 272.448 
L 266.793335 283.968 
L 266.939192 272.448 
L 266.974969 283.968 
L 267.118075 272.448 
L 267.160272 283.968 
L 267.300626 272.448 
L 267.339154 283.968 
L 267.483178 272.448 
L 267.522623 283.968 
L 267.664812 272.448 
L 267.705175 283.968 
L 267.848281 272.448 
L 267.886809 283.968 
L 268.034501 272.448 
L 268.070278 283.968 
L 268.222557 272.448 
L 268.255581 283.968 
L 268.41153 272.448 
L 268.444554 283.968 
L 268.595916 272.448 
L 268.63261 283.968 
L 268.77755 272.448 
L 268.817913 283.968 
L 268.961019 272.448 
L 268.999548 283.968 
L 269.144488 272.448 
L 269.183016 283.968 
L 269.327039 272.448 
L 269.366485 283.968 
L 269.510508 272.448 
L 269.549037 283.968 
L 269.697646 272.448 
L 269.731588 283.968 
L 269.88295 272.448 
L 269.919644 283.968 
L 270.064584 272.448 
L 270.10403 283.968 
L 270.245301 272.448 
L 270.286581 283.968 
L 270.4251 272.448 
L 270.467298 283.968 
L 270.607652 272.448 
L 270.647098 283.968 
L 270.786534 272.448 
L 270.829649 283.968 
L 270.970003 272.448 
L 271.008531 283.968 
L 271.157141 272.448 
L 271.192 283.968 
L 271.343362 272.448 
L 271.379138 283.968 
L 271.529583 272.448 
L 271.565359 283.968 
L 271.713052 272.448 
L 271.75158 283.968 
L 271.898355 272.448 
L 271.935049 283.968 
L 272.080907 272.448 
L 272.120353 283.968 
L 272.267128 272.448 
L 272.301987 283.968 
L 272.450597 272.448 
L 272.489125 283.968 
L 272.637735 272.448 
L 272.672594 283.968 
L 272.819369 272.448 
L 272.859732 283.968 
L 273.003755 272.448 
L 273.041366 283.968 
L 273.184472 272.448 
L 273.225752 283.968 
L 273.368858 272.448 
L 273.405552 283.968 
L 273.548658 272.448 
L 273.589938 283.968 
L 273.732126 272.448 
L 273.770655 283.968 
L 273.918347 272.448 
L 273.953206 283.968 
L 274.103651 272.448 
L 274.140345 283.968 
L 274.286202 272.448 
L 274.324731 283.968 
L 274.471506 272.448 
L 274.5082 283.968 
L 274.652223 272.448 
L 274.693503 283.968 
L 274.836609 272.448 
L 274.873303 283.968 
L 275.02283 272.448 
L 275.058606 283.968 
L 275.203547 272.448 
L 275.244827 283.968 
L 275.38885 272.448 
L 275.425544 283.968 
L 275.56865 272.448 
L 275.610847 283.968 
L 275.753036 272.448 
L 275.790647 283.968 
L 275.933753 272.448 
L 275.975033 283.968 
L 276.120891 272.448 
L 276.15575 283.968 
L 276.298856 272.448 
L 276.342888 283.968 
L 276.48049 272.448 
L 276.520853 283.968 
L 276.665793 272.448 
L 276.702487 283.968 
L 276.851097 272.448 
L 276.886873 283.968 
L 277.029062 272.448 
L 277.073094 283.968 
L 277.215282 272.448 
L 277.251059 283.968 
L 277.398751 272.448 
L 277.436362 283.968 
L 277.580385 272.448 
L 277.620749 283.968 
L 277.761102 272.448 
L 277.802383 283.968 
L 277.946406 272.448 
L 277.982182 283.968 
L 278.131709 272.448 
L 278.168403 283.968 
L 278.316096 272.448 
L 278.353707 283.968 
L 278.501399 272.448 
L 278.538093 283.968 
L 278.683951 272.448 
L 278.723396 283.968 
L 278.862833 272.448 
L 278.905031 283.968 
L 279.051806 272.448 
L 279.08483 283.968 
L 279.235274 272.448 
L 279.272886 283.968 
L 279.414157 272.448 
L 279.457272 283.968 
L 279.597625 272.448 
L 279.636154 283.968 
L 279.776508 272.448 
L 279.819623 283.968 
L 279.959976 272.448 
L 279.998505 283.968 
L 280.143445 272.448 
L 280.181974 283.968 
L 280.331501 272.448 
L 280.365443 283.968 
L 280.519556 272.448 
L 280.553498 283.968 
L 280.701191 272.448 
L 280.741554 283.968 
L 280.881907 272.448 
L 280.923188 283.968 
L 281.065376 272.448 
L 281.103905 283.968 
L 281.246093 272.448 
L 281.287374 283.968 
L 281.428645 272.448 
L 281.46809 283.968 
L 281.608444 272.448 
L 281.650642 283.968 
L 281.79283 272.448 
L 281.830441 283.968 
L 281.981803 272.448 
L 282.01391 283.968 
L 282.163437 272.448 
L 282.202883 283.968 
L 282.343237 272.448 
L 282.385435 283.968 
L 282.52854 272.448 
L 282.565234 283.968 
L 282.710174 272.448 
L 282.750538 283.968 
L 282.894561 272.448 
L 282.932172 283.968 
L 283.076195 272.448 
L 283.115641 283.968 
L 283.259664 272.448 
L 283.298192 283.968 
L 283.445885 272.448 
L 283.481661 283.968 
L 283.625684 272.448 
L 283.666964 283.968 
L 283.809153 272.448 
L 283.847681 283.968 
L 283.992622 272.448 
L 284.03115 283.968 
L 284.172421 272.448 
L 284.214619 283.968 
L 284.354973 272.448 
L 284.394418 283.968 
L 284.539359 272.448 
L 284.57697 283.968 
L 284.72191 272.448 
L 284.761356 283.968 
L 284.906297 272.448 
L 284.943908 283.968 
L 285.089765 272.448 
L 285.128294 283.968 
L 285.274152 272.448 
L 285.311763 283.968 
L 285.463124 272.448 
L 285.496149 283.968 
L 285.643841 272.448 
L 285.685122 283.968 
L 285.826393 272.448 
L 285.865839 283.968 
L 286.008944 272.448 
L 286.04839 283.968 
L 286.194248 272.448 
L 286.230942 283.968 
L 286.375882 272.448 
L 286.415328 283.968 
L 286.561186 272.448 
L 286.597879 283.968 
L 286.740985 272.448 
L 286.783183 283.968 
L 286.923536 272.448 
L 286.962982 283.968 
L 287.109757 272.448 
L 287.145534 283.968 
L 287.297813 272.448 
L 287.330837 283.968 
L 287.480364 272.448 
L 287.51981 283.968 
L 287.663833 272.448 
L 287.702362 283.968 
L 287.852806 272.448 
L 287.885831 283.968 
L 288.03811 272.448 
L 288.073886 283.968 
L 288.222496 272.448 
L 288.25919 283.968 
L 288.400461 272.448 
L 288.444493 283.968 
L 288.583012 272.448 
L 288.622458 283.968 
L 288.766481 272.448 
L 288.804092 283.968 
L 288.951785 272.448 
L 288.988478 283.968 
L 289.137088 272.448 
L 289.173782 283.968 
L 289.316888 272.448 
L 289.359085 283.968 
L 289.499439 272.448 
L 289.538885 283.968 
L 289.681991 272.448 
L 289.721436 283.968 
L 289.867294 272.448 
L 289.903988 283.968 
L 290.050763 272.448 
L 290.088374 283.968 
L 290.233314 272.448 
L 290.27276 283.968 
L 290.420453 272.448 
L 290.455312 283.968 
L 290.600252 272.448 
L 290.64245 283.968 
L 290.782804 272.448 
L 290.822249 283.968 
L 290.96352 272.448 
L 291.004801 283.968 
L 291.150659 272.448 
L 291.185518 283.968 
L 291.331376 272.448 
L 291.372656 283.968 
L 291.513927 272.448 
L 291.553373 283.968 
L 291.693727 272.448 
L 291.735007 283.968 
L 291.87903 272.448 
L 291.914806 283.968 
L 292.062499 272.448 
L 292.101027 283.968 
L 292.241381 272.448 
L 292.284496 283.968 
L 292.425767 272.448 
L 292.462461 283.968 
L 292.610153 272.448 
L 292.646847 283.968 
L 292.79087 272.448 
L 292.832151 283.968 
L 292.975256 272.448 
L 293.012868 283.968 
L 293.155056 272.448 
L 293.196336 283.968 
L 293.341277 272.448 
L 293.377053 283.968 
L 293.522911 272.448 
L 293.563274 283.968 
L 293.712801 272.448 
L 293.744908 283.968 
L 293.897187 272.448 
L 293.933881 283.968 
L 294.084326 272.448 
L 294.119185 283.968 
L 294.264125 272.448 
L 294.306323 283.968 
L 294.452181 272.448 
L 294.486122 283.968 
L 294.636567 272.448 
L 294.674178 283.968 
L 294.820036 272.448 
L 294.858564 283.968 
L 295.002587 272.448 
L 295.041116 283.968 
L 295.224584 295.488 
L 296.229076 283.968 
L 296.451074 295.488 
L 296.54556 283.968 
L 296.76664 295.488 
L 296.861127 283.968 
L 297.17761 272.448 
L 297.367501 283.968 
L 297.493177 272.448 
L 299.41593 203.328 
L 321.243219 191.808 
L 321.359722 203.328 
L 321.463382 191.808 
L 321.465216 203.328 
L 321.575298 237.888 
L 322.138547 214.848 
L 322.453196 203.328 
L 326.878465 191.808 
L 326.994967 203.328 
L 327.098627 191.808 
L 327.099545 203.328 
L 327.352732 283.968 
L 327.499507 295.488 
L 327.596745 283.968 
L 327.818742 295.488 
L 327.918733 283.968 
L 328.14073 295.488 
L 328.240721 283.968 
L 328.462718 295.488 
L 328.558122 283.968 
L 328.780119 295.488 
L 328.872771 283.968 
L 329.094768 295.488 
L 329.193841 283.968 
L 329.414921 295.488 
L 329.517664 283.968 
L 329.739661 295.488 
L 329.837817 283.968 
L 330.059814 295.488 
L 330.159805 283.968 
L 330.381802 295.488 
L 330.474454 283.968 
L 330.696451 295.488 
L 330.789103 283.968 
L 331.0111 295.488 
L 331.111091 283.968 
L 331.333088 295.488 
L 331.436748 283.968 
L 331.658745 295.488 
L 331.762405 283.968 
L 331.983485 295.488 
L 332.076137 283.968 
L 332.298134 295.488 
L 332.388951 283.968 
L 332.610949 295.488 
L 332.708187 283.968 
L 332.930184 295.488 
L 333.03201 283.968 
L 333.25309 295.488 
L 333.360419 283.968 
L 333.582416 295.488 
L 333.682407 283.968 
L 333.904404 295.488 
L 334.000725 283.968 
L 334.221805 295.488 
L 334.322713 283.968 
L 334.54471 295.488 
L 334.645618 283.968 
L 334.867615 295.488 
L 334.965771 283.968 
L 335.187769 295.488 
L 335.282255 283.968 
L 335.504252 295.488 
L 335.60883 283.968 
L 335.830827 295.488 
L 335.931735 283.968 
L 336.153732 295.488 
L 336.257392 283.968 
L 336.479389 295.488 
L 336.583967 283.968 
L 336.805964 295.488 
L 336.909624 283.968 
L 337.130704 295.488 
L 337.22886 283.968 
L 337.450857 295.488 
L 337.552682 283.968 
L 337.773762 295.488 
L 337.881091 283.968 
L 338.103089 295.488 
L 338.203079 283.968 
L 338.424159 295.488 
L 338.526902 283.968 
L 338.748899 295.488 
L 338.846137 283.968 
L 339.068135 295.488 
L 339.167208 283.968 
L 339.389205 295.488 
L 339.491948 283.968 
L 339.713945 295.488 
L 339.811184 283.968 
L 340.033181 295.488 
L 340.138675 283.968 
L 340.359755 295.488 
L 340.45149 283.968 
L 340.673487 295.488 
L 340.767974 283.968 
L 340.989054 295.488 
L 341.089044 283.968 
L 341.310124 295.488 
L 341.411949 283.968 
L 341.633947 295.488 
L 341.740358 283.968 
L 341.962356 295.488 
L 342.066933 283.968 
L 342.28893 295.488 
L 342.385251 283.968 
L 342.607249 295.488 
L 342.704487 283.968 
L 342.926485 295.488 
L 343.029227 283.968 
L 343.251224 295.488 
L 343.345711 283.968 
L 343.567708 295.488 
L 343.662195 283.968 
L 343.884192 295.488 
L 343.986017 283.968 
L 344.208014 295.488 
L 344.308922 283.968 
L 344.53092 295.488 
L 344.63091 283.968 
L 344.852907 295.488 
L 344.954733 283.968 
L 345.17673 295.488 
L 345.278555 283.968 
L 347.522379 203.328 
L 348.75162 191.808 
L 354.255686 180.288 
L 354.375858 191.808 
L 354.494195 180.288 
L 354.670325 249.408 
L 354.862968 283.968 
L 354.869389 272.448 
L 355.091386 283.968 
L 355.095056 272.448 
L 355.316136 283.968 
L 355.320723 272.448 
L 355.541802 283.968 
L 355.555563 272.448 
L 355.77756 283.968 
L 355.783981 272.448 
L 356.005979 283.968 
L 356.017904 272.448 
L 356.239901 283.968 
L 356.248158 272.448 
L 356.470155 283.968 
L 356.479328 272.448 
L 356.701326 283.968 
L 356.707747 272.448 
L 356.928827 283.968 
L 356.933414 272.448 
L 357.155411 283.968 
L 357.161832 272.448 
L 357.38383 283.968 
L 357.392086 272.448 
L 357.613166 283.968 
L 357.622339 272.448 
L 357.844336 283.968 
L 357.85351 272.448 
L 358.07459 283.968 
L 358.084681 272.448 
L 358.306678 283.968 
L 358.319521 272.448 
L 358.540601 283.968 
L 358.551609 272.448 
L 358.773606 283.968 
L 358.783697 272.448 
L 359.005694 283.968 
L 359.009364 272.448 
L 359.231361 283.968 
L 359.240534 272.448 
L 359.462532 283.968 
L 359.466201 272.448 
L 359.688198 283.968 
L 359.698289 272.448 
L 359.920286 283.968 
L 359.926708 272.448 
L 360.147788 283.968 
L 360.156044 272.448 
L 360.378041 283.968 
L 360.389967 272.448 
L 360.611964 283.968 
L 360.613799 272.448 
L 360.834879 283.968 
L 360.840383 272.448 
L 361.061463 283.968 
L 361.072471 272.448 
L 361.293551 283.968 
L 361.303642 272.448 
L 361.524722 283.968 
L 361.53206 272.448 
L 361.75314 283.968 
L 361.757727 272.448 
L 361.979724 283.968 
L 361.98798 272.448 
L 362.209978 283.968 
L 362.214564 272.448 
L 362.436562 283.968 
L 362.4439 272.448 
L 362.665898 283.968 
L 362.673237 272.448 
L 362.895234 283.968 
L 362.901655 272.448 
L 363.123653 283.968 
L 363.130074 272.448 
L 363.352071 283.968 
L 363.357575 272.448 
L 363.579573 283.968 
L 363.585077 272.448 
L 363.806157 283.968 
L 363.819917 272.448 
L 364.040997 283.968 
L 364.045584 272.448 
L 364.267581 283.968 
L 364.27125 272.448 
L 364.493247 283.968 
L 364.497834 272.448 
L 364.719832 283.968 
L 364.72717 272.448 
L 364.94825 283.968 
L 364.958341 272.448 
L 365.180338 283.968 
L 365.184008 272.448 
L 365.406005 283.968 
L 365.416096 272.448 
L 365.638093 283.968 
L 365.647267 272.448 
L 365.869264 283.968 
L 365.875685 272.448 
L 366.097683 283.968 
L 366.103187 272.448 
L 366.325184 283.968 
L 366.335275 272.448 
L 366.557272 283.968 
L 366.560024 272.448 
L 366.781104 283.968 
L 366.791195 272.448 
L 367.013192 283.968 
L 367.026035 272.448 
L 367.248032 283.968 
L 367.254454 272.448 
L 367.476451 283.968 
L 367.485624 272.448 
L 367.707622 283.968 
L 367.716795 272.448 
L 367.938792 283.968 
L 367.948883 272.448 
L 368.170881 283.968 
L 368.179137 272.448 
L 368.401134 283.968 
L 368.408473 272.448 
L 368.63047 283.968 
L 368.635057 272.448 
L 368.857054 283.968 
L 368.857971 272.448 
L 369.079969 283.968 
L 369.085473 272.448 
L 369.30747 283.968 
L 369.311139 272.448 
L 369.533137 283.968 
L 369.540475 272.448 
L 369.762473 283.968 
L 369.767059 272.448 
L 369.989057 283.968 
L 369.995478 272.448 
L 370.217476 283.968 
L 370.224814 272.448 
L 370.445894 283.968 
L 370.451398 272.448 
L 370.673396 283.968 
L 370.6789 272.448 
L 370.900897 283.968 
L 370.906401 272.448 
L 371.128398 283.968 
L 371.13482 272.448 
L 371.356817 283.968 
L 371.362321 272.448 
L 371.584318 283.968 
L 371.594409 272.448 
L 371.816406 283.968 
L 371.820993 272.448 
L 372.042991 283.968 
L 372.049412 272.448 
L 372.271409 283.968 
L 372.275996 272.448 
L 372.497993 283.968 
L 372.50258 272.448 
L 372.724577 283.968 
L 372.730999 272.448 
L 372.952996 283.968 
L 372.964004 272.448 
L 373.186001 283.968 
L 373.197927 272.448 
L 373.419007 283.968 
L 373.424511 272.448 
L 373.646508 283.968 
L 373.651095 272.448 
L 377.078293 99.648 
L 377.52137 88.128 
L 381.777848 99.648 
L 381.892516 88.128 
L 382.018192 111.168 
L 382.019109 99.648 
L 382.113596 180.288 
L 382.241106 272.448 
L 382.354857 283.968 
L 382.364948 272.448 
L 382.586945 283.968 
L 382.597036 272.448 
L 382.818116 283.968 
L 382.827289 272.448 
L 383.049287 283.968 
L 383.052956 272.448 
L 383.274036 283.968 
L 383.284127 272.448 
L 383.506124 283.968 
L 383.513463 272.448 
L 383.734543 283.968 
L 383.745551 272.448 
L 383.966631 283.968 
L 383.977639 272.448 
L 384.198719 283.968 
L 384.206058 272.448 
L 384.428055 283.968 
L 384.432642 272.448 
L 384.654639 283.968 
L 384.66473 272.448 
L 384.886727 283.968 
L 384.896818 272.448 
L 385.118815 283.968 
L 385.127989 272.448 
L 385.349986 283.968 
L 385.363746 272.448 
L 385.584826 283.968 
L 385.593082 272.448 
L 385.815079 283.968 
L 385.827005 272.448 
L 386.049002 283.968 
L 386.055424 272.448 
L 386.276504 283.968 
L 386.280173 272.448 
L 386.501253 283.968 
L 386.513178 272.448 
L 386.735176 283.968 
L 386.739762 272.448 
L 386.960842 283.968 
L 386.965429 272.448 
L 387.187426 283.968 
L 387.192013 272.448 
L 387.632338 260.928 
L 392.791482 249.408 
L 398.295548 237.888 
L 398.487273 76.608 
L 398.487273 76.608 
" clip-path="url(#pb3cb5014e6)" style="fill: none; stroke: #1f77b4; stroke-width: 1.5; stroke-linecap: square"/>
   </g>
   <g id="patch_3">
    <path d="M 57.6 307.584 
L 57.6 41.472 
" style="fill: none; stroke: #000000; stroke-width: 0.8; stroke-linejoin: miter; stroke-linecap: square"/>
   </g>
   <g id="patch_4">
    <path d="M 414.72 307.584 
L 414.72 41.472 
" style="fill: none; stroke: #000000; stroke-width: 0.8; stroke-linejoin: miter; stroke-linecap: square"/>
   </g>
   <g id="patch_5">
    <path d="M 57.6 307.584 
L 414.72 307.584 
" style="fill: none; stroke: #000000; stroke-width: 0.8; stroke-linejoin: miter; stroke-linecap: square"/>
   </g>
   <g id="patch_6">
    <path d="M 57.6 41.472 
L 414.72 41.472 
" style="fill: none; stroke: #000000; stroke-width: 0.8; stroke-linejoin: miter; stroke-linecap: square"/>
   </g>
   <g id="text_15">
    <!-- Queue size (y-axis) between S2 and sensors that follow at a time (x-axis). -->
    <g transform="translate(14.282813 35.472) scale(0.12 -0.12)">
     <defs>
      <path id="DejaVuSans-51" d="M 2522 4238 
Q 1834 4238 1429 3725 
Q 1025 3213 1025 2328 
Q 1025 1447 1429 934 
Q 1834 422 2522 422 
Q 3209 422 3611 934 
Q 4013 1447 4013 2328 
Q 4013 3213 3611 3725 
Q 3209 4238 2522 4238 
z
M 3406 84 
L 4238 -825 
L 3475 -825 
L 2784 -78 
Q 2681 -84 2626 -87 
Q 2572 -91 2522 -91 
Q 1538 -91 948 567 
Q 359 1225 359 2328 
Q 359 3434 948 4092 
Q 1538 4750 2522 4750 
Q 3503 4750 4090 4092 
Q 4678 3434 4678 2328 
Q 4678 1516 4351 937 
Q 4025 359 3406 84 
z
" transform="scale(0.015625)"/>
      <path id="DejaVuSans-75" d="M 544 1381 
L 544 3500 
L 1119 3500 
L 1119 1403 
Q 1119 906 1312 657 
Q 1506 409 1894 409 
Q 2359 409 2629 706 
Q 2900 1003 2900 1516 
L 2900 3500 
L 3475 3500 
L 3475 0 
L 2900 0 
L 2900 538 
Q 2691 219 2414 64 
Q 2138 -91 1772 -91 
Q 1169 -91 856 284 
Q 544 659 544 1381 
z
M 1991 3584 
L 1991 3584 
z
" transform="scale(0.015625)"/>
      <path id="DejaVuSans-20" transform="scale(0.015625)"/>
      <path id="DejaVuSans-73" d="M 2834 3397 
L 2834 2853 
Q 2591 2978 2328 3040 
Q 2066 3103 1784 3103 
Q 1356 3103 1142 2972 
Q 928 2841 928 2578 
Q 928 2378 1081 2264 
Q 1234 2150 1697 2047 
L 1894 2003 
Q 2506 1872 2764 1633 
Q 3022 1394 3022 966 
Q 3022 478 2636 193 
Q 2250 -91 1575 -91 
Q 1294 -91 989 -36 
Q 684 19 347 128 
L 347 722 
Q 666 556 975 473 
Q 1284 391 1588 391 
Q 1994 391 2212 530 
Q 2431 669 2431 922 
Q 2431 1156 2273 1281 
Q 2116 1406 1581 1522 
L 1381 1569 
Q 847 1681 609 1914 
Q 372 2147 372 2553 
Q 372 3047 722 3315 
Q 1072 3584 1716 3584 
Q 2034 3584 2315 3537 
Q 2597 3491 2834 3397 
z
" transform="scale(0.015625)"/>
      <path id="DejaVuSans-69" d="M 603 3500 
L 1178 3500 
L 1178 0 
L 603 0 
L 603 3500 
z
M 603 4863 
L 1178 4863 
L 1178 4134 
L 603 4134 
L 603 4863 
z
" transform="scale(0.015625)"/>
      <path id="DejaVuSans-7a" d="M 353 3500 
L 3084 3500 
L 3084 2975 
L 922 459 
L 3084 459 
L 3084 0 
L 275 0 
L 275 525 
L 2438 3041 
L 353 3041 
L 353 3500 
z
" transform="scale(0.015625)"/>
      <path id="DejaVuSans-28" d="M 1984 4856 
Q 1566 4138 1362 3434 
Q 1159 2731 1159 2009 
Q 1159 1288 1364 580 
Q 1569 -128 1984 -844 
L 1484 -844 
Q 1016 -109 783 600 
Q 550 1309 550 2009 
Q 550 2706 781 3412 
Q 1013 4119 1484 4856 
L 1984 4856 
z
" transform="scale(0.015625)"/>
      <path id="DejaVuSans-79" d="M 2059 -325 
Q 1816 -950 1584 -1140 
Q 1353 -1331 966 -1331 
L 506 -1331 
L 506 -850 
L 844 -850 
Q 1081 -850 1212 -737 
Q 1344 -625 1503 -206 
L 1606 56 
L 191 3500 
L 800 3500 
L 1894 763 
L 2988 3500 
L 3597 3500 
L 2059 -325 
z
" transform="scale(0.015625)"/>
      <path id="DejaVuSans-2d" d="M 313 2009 
L 1997 2009 
L 1997 1497 
L 313 1497 
L 313 2009 
z
" transform="scale(0.015625)"/>
      <path id="DejaVuSans-61" d="M 2194 1759 
Q 1497 1759 1228 1600 
Q 959 1441 959 1056 
Q 959 750 1161 570 
Q 1363 391 1709 391 
Q 2188 391 2477 730 
Q 2766 1069 2766 1631 
L 2766 1759 
L 2194 1759 
z
M 3341 1997 
L 3341 0 
L 2766 0 
L 2766 531 
Q 2569 213 2275 61 
Q 1981 -91 1556 -91 
Q 1019 -91 701 211 
Q 384 513 384 1019 
Q 384 1609 779 1909 
Q 1175 2209 1959 2209 
L 2766 2209 
L 2766 2266 
Q 2766 2663 2505 2880 
Q 2244 3097 1772 3097 
Q 1472 3097 1187 3025 
Q 903 2953 641 2809 
L 641 3341 
Q 956 3463 1253 3523 
Q 1550 3584 1831 3584 
Q 2591 3584 2966 3190 
Q 3341 2797 3341 1997 
z
" transform="scale(0.015625)"/>
      <path id="DejaVuSans-78" d="M 3513 3500 
L 2247 1797 
L 3578 0 
L 2900 0 
L 1881 1375 
L 863 0 
L 184 0 
L 1544 1831 
L 300 3500 
L 978 3500 
L 1906 2253 
L 2834 3500 
L 3513 3500 
z
" transform="scale(0.015625)"/>
      <path id="DejaVuSans-29" d="M 513 4856 
L 1013 4856 
Q 1481 4119 1714 3412 
Q 1947 2706 1947 2009 
Q 1947 1309 1714 600 
Q 1481 -109 1013 -844 
L 513 -844 
Q 928 -128 1133 580 
Q 1338 1288 1338 2009 
Q 1338 2731 1133 3434 
Q 928 4138 513 4856 
z
" transform="scale(0.015625)"/>
      <path id="DejaVuSans-62" d="M 3116 1747 
Q 3116 2381 2855 2742 
Q 2594 3103 2138 3103 
Q 1681 3103 1420 2742 
Q 1159 2381 1159 1747 
Q 1159 1113 1420 752 
Q 1681 391 2138 391 
Q 2594 391 2855 752 
Q 3116 1113 3116 1747 
z
M 1159 2969 
Q 1341 3281 1617 3432 
Q 1894 3584 2278 3584 
Q 2916 3584 3314 3078 
Q 3713 2572 3713 1747 
Q 3713 922 3314 415 
Q 2916 -91 2278 -91 
Q 1894 -91 1617 61 
Q 1341 213 1159 525 
L 1159 0 
L 581 0 
L 581 4863 
L 1159 4863 
L 1159 2969 
z
" transform="scale(0.015625)"/>
      <path id="DejaVuSans-74" d="M 1172 4494 
L 1172 3500 
L 2356 3500 
L 2356 3053 
L 1172 3053 
L 1172 1153 
Q 1172 725 1289 603 
Q 1406 481 1766 481 
L 2356 481 
L 2356 0 
L 1766 0 
Q 1100 0 847 248 
Q 594 497 594 1153 
L 594 3053 
L 172 3053 
L 172 3500 
L 594 3500 
L 594 4494 
L 1172 4494 
z
" transform="scale(0.015625)"/>
      <path id="DejaVuSans-77" d="M 269 3500 
L 844 3500 
L 1563 769 
L 2278 3500 
L 2956 3500 
L 3675 769 
L 4391 3500 
L 4966 3500 
L 4050 0 
L 3372 0 
L 2619 2869 
L 1863 0 
L 1184 0 
L 269 3500 
z
" transform="scale(0.015625)"/>
      <path id="DejaVuSans-6e" d="M 3513 2113 
L 3513 0 
L 2938 0 
L 2938 2094 
Q 2938 2591 2744 2837 
Q 2550 3084 2163 3084 
Q 1697 3084 1428 2787 
Q 1159 2491 1159 1978 
L 1159 0 
L 581 0 
L 581 3500 
L 1159 3500 
L 1159 2956 
Q 1366 3272 1645 3428 
Q 1925 3584 2291 3584 
Q 2894 3584 3203 3211 
Q 3513 2838 3513 2113 
z
" transform="scale(0.015625)"/>
      <path id="DejaVuSans-53" d="M 3425 4513 
L 3425 3897 
Q 3066 4069 2747 4153 
Q 2428 4238 2131 4238 
Q 1616 4238 1336 4038 
Q 1056 3838 1056 3469 
Q 1056 3159 1242 3001 
Q 1428 2844 1947 2747 
L 2328 2669 
Q 3034 2534 3370 2195 
Q 3706 1856 3706 1288 
Q 3706 609 3251 259 
Q 2797 -91 1919 -91 
Q 1588 -91 1214 -16 
Q 841 59 441 206 
L 441 856 
Q 825 641 1194 531 
Q 1563 422 1919 422 
Q 2459 422 2753 634 
Q 3047 847 3047 1241 
Q 3047 1584 2836 1778 
Q 2625 1972 2144 2069 
L 1759 2144 
Q 1053 2284 737 2584 
Q 422 2884 422 3419 
Q 422 4038 858 4394 
Q 1294 4750 2059 4750 
Q 2388 4750 2728 4690 
Q 3069 4631 3425 4513 
z
" transform="scale(0.015625)"/>
      <path id="DejaVuSans-64" d="M 2906 2969 
L 2906 4863 
L 3481 4863 
L 3481 0 
L 2906 0 
L 2906 525 
Q 2725 213 2448 61 
Q 2172 -91 1784 -91 
Q 1150 -91 751 415 
Q 353 922 353 1747 
Q 353 2572 751 3078 
Q 1150 3584 1784 3584 
Q 2172 3584 2448 3432 
Q 2725 3281 2906 2969 
z
M 947 1747 
Q 947 1113 1208 752 
Q 1469 391 1925 391 
Q 2381 391 2643 752 
Q 2906 1113 2906 1747 
Q 2906 2381 2643 2742 
Q 2381 3103 1925 3103 
Q 1469 3103 1208 2742 
Q 947 2381 947 1747 
z
" transform="scale(0.015625)"/>
      <path id="DejaVuSans-6f" d="M 1959 3097 
Q 1497 3097 1228 2736 
Q 959 2375 959 1747 
Q 959 1119 1226 758 
Q 1494 397 1959 397 
Q 2419 397 2687 759 
Q 2956 1122 2956 1747 
Q 2956 2369 2687 2733 
Q 2419 3097 1959 3097 
z
M 1959 3584 
Q 2709 3584 3137 3096 
Q 3566 2609 3566 1747 
Q 3566 888 3137 398 
Q 2709 -91 1959 -91 
Q 1206 -91 779 398 
Q 353 888 353 1747 
Q 353 2609 779 3096 
Q 1206 3584 1959 3584 
z
" transform="scale(0.015625)"/>
      <path id="DejaVuSans-72" d="M 2631 2963 
Q 2534 3019 2420 3045 
Q 2306 3072 2169 3072 
Q 1681 3072 1420 2755 
Q 1159 2438 1159 1844 
L 1159 0 
L 581 0 
L 581 3500 
L 1159 3500 
L 1159 2956 
Q 1341 3275 1631 3429 
Q 1922 3584 2338 3584 
Q 2397 3584 2469 3576 
Q 2541 3569 2628 3553 
L 2631 2963 
z
" transform="scale(0.015625)"/>
      <path id="DejaVuSans-68" d="M 3513 2113 
L 3513 0 
L 2938 0 
L 2938 2094 
Q 2938 2591 2744 2837 
Q 2550 3084 2163 3084 
Q 1697 3084 1428 2787 
Q 1159 2491 1159 1978 
L 1159 0 
L 581 0 
L 581 4863 
L 1159 4863 
L 1159 2956 
Q 1366 3272 1645 3428 
Q 1925 3584 2291 3584 
Q 2894 3584 3203 3211 
Q 3513 2838 3513 2113 
z
" transform="scale(0.015625)"/>
      <path id="DejaVuSans-66" d="M 2375 4863 
L 2375 4384 
L 1825 4384 
Q 1516 4384 1395 4259 
Q 1275 4134 1275 3809 
L 1275 3500 
L 2222 3500 
L 2222 3053 
L 1275 3053 
L 1275 0 
L 697 0 
L 697 3053 
L 147 3053 
L 147 3500 
L 697 3500 
L 697 3744 
Q 697 4328 969 4595 
Q 1241 4863 1831 4863 
L 2375 4863 
z
" transform="scale(0.015625)"/>
      <path id="DejaVuSans-6c" d="M 603 4863 
L 1178 4863 
L 1178 0 
L 603 0 
L 603 4863 
z
" transform="scale(0.015625)"/>
      <path id="DejaVuSans-6d" d="M 3328 2828 
Q 3544 3216 3844 3400 
Q 4144 3584 4550 3584 
Q 5097 3584 5394 3201 
Q 5691 2819 5691 2113 
L 5691 0 
L 5113 0 
L 5113 2094 
Q 5113 2597 4934 2840 
Q 4756 3084 4391 3084 
Q 3944 3084 3684 2787 
Q 3425 2491 3425 1978 
L 3425 0 
L 2847 0 
L 2847 2094 
Q 2847 2600 2669 2842 
Q 2491 3084 2119 3084 
Q 1678 3084 1418 2786 
Q 1159 2488 1159 1978 
L 1159 0 
L 581 0 
L 581 3500 
L 1159 3500 
L 1159 2956 
Q 1356 3278 1631 3431 
Q 1906 3584 2284 3584 
Q 2666 3584 2933 3390 
Q 3200 3197 3328 2828 
z
" transform="scale(0.015625)"/>
     </defs>
     <use xlink:href="#DejaVuSans-51"/>
     <use xlink:href="#DejaVuSans-75" x="78.710938"/>
     <use xlink:href="#DejaVuSans-65" x="142.089844"/>
     <use xlink:href="#DejaVuSans-75" x="203.613281"/>
     <use xlink:href="#DejaVuSans-65" x="266.992188"/>
     <use xlink:href="#DejaVuSans-20" x="328.515625"/>
     <use xlink:href="#DejaVuSans-73" x="360.302734"/>
     <use xlink:href="#DejaVuSans-69" x="412.402344"/>
     <use xlink:href="#DejaVuSans-7a" x="440.185547"/>
     <use xlink:href="#DejaVuSans-65" x="492.675781"/>
     <use xlink:href="#DejaVuSans-20" x="554.199219"/>
     <use xlink:href="#DejaVuSans-28" x="585.986328"/>
     <use xlink:href="#DejaVuSans-79" x="625"/>
     <use xlink:href="#DejaVuSans-2d" x="682.429688"/>
     <use xlink:href="#DejaVuSans-61" x="718.513672"/>
     <use xlink:href="#DejaVuSans-78" x="779.792969"/>
     <use xlink:href="#DejaVuSans-69" x="838.972656"/>
     <use xlink:href="#DejaVuSans-73" x="866.755859"/>
     <use xlink:href="#DejaVuSans-29" x="918.855469"/>
     <use xlink:href="#DejaVuSans-20" x="957.869141"/>
     <use xlink:href="#DejaVuSans-62" x="989.65625"/>
     <use xlink:href="#DejaVuSans-65" x="1053.132812"/>
     <use xlink:href="#DejaVuSans-74" x="1114.65625"/>
     <use xlink:href="#DejaVuSans-77" x="1153.865234"/>
     <use xlink:href="#DejaVuSans-65" x="1235.652344"/>
     <use xlink:href="#DejaVuSans-65" x="1297.175781"/>
     <use xlink:href="#DejaVuSans-6e" x="1358.699219"/>
     <use xlink:href="#DejaVuSans-20" x="1422.078125"/>
     <use xlink:href="#DejaVuSans-53" x="1453.865234"/>
     <use xlink:href="#DejaVuSans-32" x="1517.341797"/>
     <use xlink:href="#DejaVuSans-20" x="1580.964844"/>
     <use xlink:href="#DejaVuSans-61" x="1612.751953"/>
     <use xlink:href="#DejaVuSans-6e" x="1674.03125"/>
     <use xlink:href="#DejaVuSans-64" x="1737.410156"/>
     <use xlink:href="#DejaVuSans-20" x="1800.886719"/>
     <use xlink:href="#DejaVuSans-73" x="1832.673828"/>
     <use xlink:href="#DejaVuSans-65" x="1884.773438"/>
     <use xlink:href="#DejaVuSans-6e" x="1946.296875"/>
     <use xlink:href="#DejaVuSans-73" x="2009.675781"/>
     <use xlink:href="#DejaVuSans-6f" x="2061.775391"/>
     <use xlink:href="#DejaVuSans-72" x="2122.957031"/>
     <use xlink:href="#DejaVuSans-73" x="2164.070312"/>
     <use xlink:href="#DejaVuSans-20" x="2216.169922"/>
     <use xlink:href="#DejaVuSans-74" x="2247.957031"/>
     <use xlink:href="#DejaVuSans-68" x="2287.166016"/>
     <use xlink:href="#DejaVuSans-61" x="2350.544922"/>
     <use xlink:href="#DejaVuSans-74" x="2411.824219"/>
     <use xlink:href="#DejaVuSans-20" x="2451.033203"/>
     <use xlink:href="#DejaVuSans-66" x="2482.820312"/>
     <use xlink:href="#DejaVuSans-6f" x="2518.025391"/>
     <use xlink:href="#DejaVuSans-6c" x="2579.207031"/>
     <use xlink:href="#DejaVuSans-6c" x="2606.990234"/>
     <use xlink:href="#DejaVuSans-6f" x="2634.773438"/>
     <use xlink:href="#DejaVuSans-77" x="2695.955078"/>
     <use xlink:href="#DejaVuSans-20" x="2777.742188"/>
     <use xlink:href="#DejaVuSans-61" x="2809.529297"/>
     <use xlink:href="#DejaVuSans-74" x="2870.808594"/>
     <use xlink:href="#DejaVuSans-20" x="2910.017578"/>
     <use xlink:href="#DejaVuSans-61" x="2941.804688"/>
     <use xlink:href="#DejaVuSans-20" x="3003.083984"/>
     <use xlink:href="#DejaVuSans-74" x="3034.871094"/>
     <use xlink:href="#DejaVuSans-69" x="3074.080078"/>
     <use xlink:href="#DejaVuSans-6d" x="3101.863281"/>
     <use xlink:href="#DejaVuSans-65" x="3199.275391"/>
     <use xlink:href="#DejaVuSans-20" x="3260.798828"/>
     <use xlink:href="#DejaVuSans-28" x="3292.585938"/>
     <use xlink:href="#DejaVuSans-78" x="3331.599609"/>
     <use xlink:href="#DejaVuSans-2d" x="3390.779297"/>
     <use xlink:href="#DejaVuSans-61" x="3426.863281"/>
     <use xlink:href="#DejaVuSans-78" x="3488.142578"/>
     <use xlink:href="#DejaVuSans-69" x="3547.322266"/>
     <use xlink:href="#DejaVuSans-73" x="3575.105469"/>
     <use xlink:href="#DejaVuSans-29" x="3627.205078"/>
     <use xlink:href="#DejaVuSans-2e" x="3666.21875"/>
    </g>
   </g>
  </g>
 </g>
 <defs>
  <clipPath id="pb3cb5014e6">
   <rect x="57.6" y="41.472" width="357.12" height="266.112"/>
  </clipPath>
 </defs>
</svg>
