<?xml version="1.0" encoding="utf-8" standalone="no"?>
<!DOCTYPE svg PUBLIC "-//W3C//DTD SVG 1.1//EN"
  "http://www.w3.org/Graphics/SVG/1.1/DTD/svg11.dtd">
<svg xmlns:xlink="http://www.w3.org/1999/xlink" width="460.8pt" height="345.6pt" viewBox="0 0 460.8 345.6" xmlns="http://www.w3.org/2000/svg" version="1.1">
 <metadata>
  <rdf:RDF xmlns:dc="http://purl.org/dc/elements/1.1/" xmlns:cc="http://creativecommons.org/ns#" xmlns:rdf="http://www.w3.org/1999/02/22-rdf-syntax-ns#">
   <cc:Work>
    <dc:type rdf:resource="http://purl.org/dc/dcmitype/StillImage"/>
    <dc:date>2024-03-08T14:20:37.440013</dc:date>
    <dc:format>image/svg+xml</dc:format>
    <dc:creator>
     <cc:Agent>
      <dc:title>Matplotlib v3.8.2, https://matplotlib.org/</dc:title>
     </cc:Agent>
    </dc:creator>
   </cc:Work>
  </rdf:RDF>
 </metadata>
 <defs>
  <style type="text/css">*{stroke-linejoin: round; stroke-linecap: butt}</style>
 </defs>
 <g id="figure_1">
  <g id="patch_1">
   <path d="M 0 345.6 
L 460.8 345.6 
L 460.8 0 
L 0 0 
z
" style="fill: #ffffff"/>
  </g>
  <g id="axes_1">
   <g id="patch_2">
    <path d="M 57.6 307.584 
L 414.72 307.584 
L 414.72 41.472 
L 57.6 41.472 
z
" style="fill: #ffffff"/>
   </g>
   <g id="matplotlib.axis_1">
    <g id="xtick_1">
     <g id="line2d_1">
      <defs>
       <path id="mbab806e259" d="M 0 0 
L 0 3.5 
" style="stroke: #000000; stroke-width: 0.8"/>
      </defs>
      <g>
       <use xlink:href="#mbab806e259" x="73.09478" y="307.584" style="stroke: #000000; stroke-width: 0.8"/>
      </g>
     </g>
     <g id="text_1">
      <!-- 0.0 -->
      <g transform="translate(65.143218 322.182437) scale(0.1 -0.1)">
       <defs>
        <path id="DejaVuSans-30" d="M 2034 4250 
Q 1547 4250 1301 3770 
Q 1056 3291 1056 2328 
Q 1056 1369 1301 889 
Q 1547 409 2034 409 
Q 2525 409 2770 889 
Q 3016 1369 3016 2328 
Q 3016 3291 2770 3770 
Q 2525 4250 2034 4250 
z
M 2034 4750 
Q 2819 4750 3233 4129 
Q 3647 3509 3647 2328 
Q 3647 1150 3233 529 
Q 2819 -91 2034 -91 
Q 1250 -91 836 529 
Q 422 1150 422 2328 
Q 422 3509 836 4129 
Q 1250 4750 2034 4750 
z
" transform="scale(0.015625)"/>
        <path id="DejaVuSans-2e" d="M 684 794 
L 1344 794 
L 1344 0 
L 684 0 
L 684 794 
z
" transform="scale(0.015625)"/>
       </defs>
       <use xlink:href="#DejaVuSans-30"/>
       <use xlink:href="#DejaVuSans-2e" x="63.623047"/>
       <use xlink:href="#DejaVuSans-30" x="95.410156"/>
      </g>
     </g>
    </g>
    <g id="xtick_2">
     <g id="line2d_2">
      <g>
       <use xlink:href="#mbab806e259" x="121.075742" y="307.584" style="stroke: #000000; stroke-width: 0.8"/>
      </g>
     </g>
     <g id="text_2">
      <!-- 0.5 -->
      <g transform="translate(113.12418 322.182437) scale(0.1 -0.1)">
       <defs>
        <path id="DejaVuSans-35" d="M 691 4666 
L 3169 4666 
L 3169 4134 
L 1269 4134 
L 1269 2991 
Q 1406 3038 1543 3061 
Q 1681 3084 1819 3084 
Q 2600 3084 3056 2656 
Q 3513 2228 3513 1497 
Q 3513 744 3044 326 
Q 2575 -91 1722 -91 
Q 1428 -91 1123 -41 
Q 819 9 494 109 
L 494 744 
Q 775 591 1075 516 
Q 1375 441 1709 441 
Q 2250 441 2565 725 
Q 2881 1009 2881 1497 
Q 2881 1984 2565 2268 
Q 2250 2553 1709 2553 
Q 1456 2553 1204 2497 
Q 953 2441 691 2322 
L 691 4666 
z
" transform="scale(0.015625)"/>
       </defs>
       <use xlink:href="#DejaVuSans-30"/>
       <use xlink:href="#DejaVuSans-2e" x="63.623047"/>
       <use xlink:href="#DejaVuSans-35" x="95.410156"/>
      </g>
     </g>
    </g>
    <g id="xtick_3">
     <g id="line2d_3">
      <g>
       <use xlink:href="#mbab806e259" x="169.056705" y="307.584" style="stroke: #000000; stroke-width: 0.8"/>
      </g>
     </g>
     <g id="text_3">
      <!-- 1.0 -->
      <g transform="translate(161.105142 322.182437) scale(0.1 -0.1)">
       <defs>
        <path id="DejaVuSans-31" d="M 794 531 
L 1825 531 
L 1825 4091 
L 703 3866 
L 703 4441 
L 1819 4666 
L 2450 4666 
L 2450 531 
L 3481 531 
L 3481 0 
L 794 0 
L 794 531 
z
" transform="scale(0.015625)"/>
       </defs>
       <use xlink:href="#DejaVuSans-31"/>
       <use xlink:href="#DejaVuSans-2e" x="63.623047"/>
       <use xlink:href="#DejaVuSans-30" x="95.410156"/>
      </g>
     </g>
    </g>
    <g id="xtick_4">
     <g id="line2d_4">
      <g>
       <use xlink:href="#mbab806e259" x="217.037667" y="307.584" style="stroke: #000000; stroke-width: 0.8"/>
      </g>
     </g>
     <g id="text_4">
      <!-- 1.5 -->
      <g transform="translate(209.086105 322.182437) scale(0.1 -0.1)">
       <use xlink:href="#DejaVuSans-31"/>
       <use xlink:href="#DejaVuSans-2e" x="63.623047"/>
       <use xlink:href="#DejaVuSans-35" x="95.410156"/>
      </g>
     </g>
    </g>
    <g id="xtick_5">
     <g id="line2d_5">
      <g>
       <use xlink:href="#mbab806e259" x="265.01863" y="307.584" style="stroke: #000000; stroke-width: 0.8"/>
      </g>
     </g>
     <g id="text_5">
      <!-- 2.0 -->
      <g transform="translate(257.067067 322.182437) scale(0.1 -0.1)">
       <defs>
        <path id="DejaVuSans-32" d="M 1228 531 
L 3431 531 
L 3431 0 
L 469 0 
L 469 531 
Q 828 903 1448 1529 
Q 2069 2156 2228 2338 
Q 2531 2678 2651 2914 
Q 2772 3150 2772 3378 
Q 2772 3750 2511 3984 
Q 2250 4219 1831 4219 
Q 1534 4219 1204 4116 
Q 875 4013 500 3803 
L 500 4441 
Q 881 4594 1212 4672 
Q 1544 4750 1819 4750 
Q 2544 4750 2975 4387 
Q 3406 4025 3406 3419 
Q 3406 3131 3298 2873 
Q 3191 2616 2906 2266 
Q 2828 2175 2409 1742 
Q 1991 1309 1228 531 
z
" transform="scale(0.015625)"/>
       </defs>
       <use xlink:href="#DejaVuSans-32"/>
       <use xlink:href="#DejaVuSans-2e" x="63.623047"/>
       <use xlink:href="#DejaVuSans-30" x="95.410156"/>
      </g>
     </g>
    </g>
    <g id="xtick_6">
     <g id="line2d_6">
      <g>
       <use xlink:href="#mbab806e259" x="312.999592" y="307.584" style="stroke: #000000; stroke-width: 0.8"/>
      </g>
     </g>
     <g id="text_6">
      <!-- 2.5 -->
      <g transform="translate(305.04803 322.182437) scale(0.1 -0.1)">
       <use xlink:href="#DejaVuSans-32"/>
       <use xlink:href="#DejaVuSans-2e" x="63.623047"/>
       <use xlink:href="#DejaVuSans-35" x="95.410156"/>
      </g>
     </g>
    </g>
    <g id="xtick_7">
     <g id="line2d_7">
      <g>
       <use xlink:href="#mbab806e259" x="360.980554" y="307.584" style="stroke: #000000; stroke-width: 0.8"/>
      </g>
     </g>
     <g id="text_7">
      <!-- 3.0 -->
      <g transform="translate(353.028992 322.182437) scale(0.1 -0.1)">
       <defs>
        <path id="DejaVuSans-33" d="M 2597 2516 
Q 3050 2419 3304 2112 
Q 3559 1806 3559 1356 
Q 3559 666 3084 287 
Q 2609 -91 1734 -91 
Q 1441 -91 1130 -33 
Q 819 25 488 141 
L 488 750 
Q 750 597 1062 519 
Q 1375 441 1716 441 
Q 2309 441 2620 675 
Q 2931 909 2931 1356 
Q 2931 1769 2642 2001 
Q 2353 2234 1838 2234 
L 1294 2234 
L 1294 2753 
L 1863 2753 
Q 2328 2753 2575 2939 
Q 2822 3125 2822 3475 
Q 2822 3834 2567 4026 
Q 2313 4219 1838 4219 
Q 1578 4219 1281 4162 
Q 984 4106 628 3988 
L 628 4550 
Q 988 4650 1302 4700 
Q 1616 4750 1894 4750 
Q 2613 4750 3031 4423 
Q 3450 4097 3450 3541 
Q 3450 3153 3228 2886 
Q 3006 2619 2597 2516 
z
" transform="scale(0.015625)"/>
       </defs>
       <use xlink:href="#DejaVuSans-33"/>
       <use xlink:href="#DejaVuSans-2e" x="63.623047"/>
       <use xlink:href="#DejaVuSans-30" x="95.410156"/>
      </g>
     </g>
    </g>
    <g id="xtick_8">
     <g id="line2d_8">
      <g>
       <use xlink:href="#mbab806e259" x="408.961517" y="307.584" style="stroke: #000000; stroke-width: 0.8"/>
      </g>
     </g>
     <g id="text_8">
      <!-- 3.5 -->
      <g transform="translate(401.009954 322.182437) scale(0.1 -0.1)">
       <use xlink:href="#DejaVuSans-33"/>
       <use xlink:href="#DejaVuSans-2e" x="63.623047"/>
       <use xlink:href="#DejaVuSans-35" x="95.410156"/>
      </g>
     </g>
    </g>
    <g id="text_9">
     <!-- 1e6 -->
     <g transform="translate(395.841875 334.860562) scale(0.1 -0.1)">
      <defs>
       <path id="DejaVuSans-65" d="M 3597 1894 
L 3597 1613 
L 953 1613 
Q 991 1019 1311 708 
Q 1631 397 2203 397 
Q 2534 397 2845 478 
Q 3156 559 3463 722 
L 3463 178 
Q 3153 47 2828 -22 
Q 2503 -91 2169 -91 
Q 1331 -91 842 396 
Q 353 884 353 1716 
Q 353 2575 817 3079 
Q 1281 3584 2069 3584 
Q 2775 3584 3186 3129 
Q 3597 2675 3597 1894 
z
M 3022 2063 
Q 3016 2534 2758 2815 
Q 2500 3097 2075 3097 
Q 1594 3097 1305 2825 
Q 1016 2553 972 2059 
L 3022 2063 
z
" transform="scale(0.015625)"/>
       <path id="DejaVuSans-36" d="M 2113 2584 
Q 1688 2584 1439 2293 
Q 1191 2003 1191 1497 
Q 1191 994 1439 701 
Q 1688 409 2113 409 
Q 2538 409 2786 701 
Q 3034 994 3034 1497 
Q 3034 2003 2786 2293 
Q 2538 2584 2113 2584 
z
M 3366 4563 
L 3366 3988 
Q 3128 4100 2886 4159 
Q 2644 4219 2406 4219 
Q 1781 4219 1451 3797 
Q 1122 3375 1075 2522 
Q 1259 2794 1537 2939 
Q 1816 3084 2150 3084 
Q 2853 3084 3261 2657 
Q 3669 2231 3669 1497 
Q 3669 778 3244 343 
Q 2819 -91 2113 -91 
Q 1303 -91 875 529 
Q 447 1150 447 2328 
Q 447 3434 972 4092 
Q 1497 4750 2381 4750 
Q 2619 4750 2861 4703 
Q 3103 4656 3366 4563 
z
" transform="scale(0.015625)"/>
      </defs>
      <use xlink:href="#DejaVuSans-31"/>
      <use xlink:href="#DejaVuSans-65" x="63.623047"/>
      <use xlink:href="#DejaVuSans-36" x="125.146484"/>
     </g>
    </g>
   </g>
   <g id="matplotlib.axis_2">
    <g id="ytick_1">
     <g id="line2d_9">
      <defs>
       <path id="m6aba9aea6a" d="M 0 0 
L -3.5 0 
" style="stroke: #000000; stroke-width: 0.8"/>
      </defs>
      <g>
       <use xlink:href="#m6aba9aea6a" x="57.6" y="295.488" style="stroke: #000000; stroke-width: 0.8"/>
      </g>
     </g>
     <g id="text_10">
      <!-- 0 -->
      <g transform="translate(44.2375 299.287219) scale(0.1 -0.1)">
       <use xlink:href="#DejaVuSans-30"/>
      </g>
     </g>
    </g>
    <g id="ytick_2">
     <g id="line2d_10">
      <g>
       <use xlink:href="#m6aba9aea6a" x="57.6" y="251.898811" style="stroke: #000000; stroke-width: 0.8"/>
      </g>
     </g>
     <g id="text_11">
      <!-- 20 -->
      <g transform="translate(37.875 255.69803) scale(0.1 -0.1)">
       <use xlink:href="#DejaVuSans-32"/>
       <use xlink:href="#DejaVuSans-30" x="63.623047"/>
      </g>
     </g>
    </g>
    <g id="ytick_3">
     <g id="line2d_11">
      <g>
       <use xlink:href="#m6aba9aea6a" x="57.6" y="208.309622" style="stroke: #000000; stroke-width: 0.8"/>
      </g>
     </g>
     <g id="text_12">
      <!-- 40 -->
      <g transform="translate(37.875 212.10884) scale(0.1 -0.1)">
       <defs>
        <path id="DejaVuSans-34" d="M 2419 4116 
L 825 1625 
L 2419 1625 
L 2419 4116 
z
M 2253 4666 
L 3047 4666 
L 3047 1625 
L 3713 1625 
L 3713 1100 
L 3047 1100 
L 3047 0 
L 2419 0 
L 2419 1100 
L 313 1100 
L 313 1709 
L 2253 4666 
z
" transform="scale(0.015625)"/>
       </defs>
       <use xlink:href="#DejaVuSans-34"/>
       <use xlink:href="#DejaVuSans-30" x="63.623047"/>
      </g>
     </g>
    </g>
    <g id="ytick_4">
     <g id="line2d_12">
      <g>
       <use xlink:href="#m6aba9aea6a" x="57.6" y="164.720432" style="stroke: #000000; stroke-width: 0.8"/>
      </g>
     </g>
     <g id="text_13">
      <!-- 60 -->
      <g transform="translate(37.875 168.519651) scale(0.1 -0.1)">
       <use xlink:href="#DejaVuSans-36"/>
       <use xlink:href="#DejaVuSans-30" x="63.623047"/>
      </g>
     </g>
    </g>
    <g id="ytick_5">
     <g id="line2d_13">
      <g>
       <use xlink:href="#m6aba9aea6a" x="57.6" y="121.131243" style="stroke: #000000; stroke-width: 0.8"/>
      </g>
     </g>
     <g id="text_14">
      <!-- 80 -->
      <g transform="translate(37.875 124.930462) scale(0.1 -0.1)">
       <defs>
        <path id="DejaVuSans-38" d="M 2034 2216 
Q 1584 2216 1326 1975 
Q 1069 1734 1069 1313 
Q 1069 891 1326 650 
Q 1584 409 2034 409 
Q 2484 409 2743 651 
Q 3003 894 3003 1313 
Q 3003 1734 2745 1975 
Q 2488 2216 2034 2216 
z
M 1403 2484 
Q 997 2584 770 2862 
Q 544 3141 544 3541 
Q 544 4100 942 4425 
Q 1341 4750 2034 4750 
Q 2731 4750 3128 4425 
Q 3525 4100 3525 3541 
Q 3525 3141 3298 2862 
Q 3072 2584 2669 2484 
Q 3125 2378 3379 2068 
Q 3634 1759 3634 1313 
Q 3634 634 3220 271 
Q 2806 -91 2034 -91 
Q 1263 -91 848 271 
Q 434 634 434 1313 
Q 434 1759 690 2068 
Q 947 2378 1403 2484 
z
M 1172 3481 
Q 1172 3119 1398 2916 
Q 1625 2713 2034 2713 
Q 2441 2713 2670 2916 
Q 2900 3119 2900 3481 
Q 2900 3844 2670 4047 
Q 2441 4250 2034 4250 
Q 1625 4250 1398 4047 
Q 1172 3844 1172 3481 
z
" transform="scale(0.015625)"/>
       </defs>
       <use xlink:href="#DejaVuSans-38"/>
       <use xlink:href="#DejaVuSans-30" x="63.623047"/>
      </g>
     </g>
    </g>
    <g id="ytick_6">
     <g id="line2d_14">
      <g>
       <use xlink:href="#m6aba9aea6a" x="57.6" y="77.542054" style="stroke: #000000; stroke-width: 0.8"/>
      </g>
     </g>
     <g id="text_15">
      <!-- 100 -->
      <g transform="translate(31.5125 81.341273) scale(0.1 -0.1)">
       <use xlink:href="#DejaVuSans-31"/>
       <use xlink:href="#DejaVuSans-30" x="63.623047"/>
       <use xlink:href="#DejaVuSans-30" x="127.246094"/>
      </g>
     </g>
    </g>
   </g>
   <g id="line2d_15">
    <path d="M 73.832727 293.308541 
L 75.179073 284.590703 
L 75.393068 286.770162 
L 75.513021 284.590703 
L 75.727975 286.770162 
L 75.846968 284.590703 
L 76.061923 286.770162 
L 76.179956 284.590703 
L 76.39683 286.770162 
L 76.52158 284.590703 
L 76.738454 286.770162 
L 76.859366 284.590703 
L 77.073361 286.770162 
L 77.196193 284.590703 
L 77.406349 286.770162 
L 77.533019 284.590703 
L 77.740297 286.770162 
L 77.871765 284.590703 
L 78.080962 286.770162 
L 78.21147 284.590703 
L 78.419707 286.770162 
L 78.551175 284.590703 
L 78.755574 286.770162 
L 78.882244 284.590703 
L 79.0924 286.770162 
L 80.441625 295.488 
L 85.048757 293.308541 
L 85.314572 273.693405 
L 86.269393 267.155027 
L 86.600461 264.975568 
L 86.753041 278.052324 
L 86.873953 286.770162 
L 86.939207 284.590703 
L 87.165677 286.770162 
L 87.274114 284.590703 
L 87.492907 286.770162 
L 87.609021 284.590703 
L 87.828774 286.770162 
L 87.949686 284.590703 
L 88.159843 286.770162 
L 88.279795 284.590703 
L 88.498588 286.770162 
L 88.615662 284.590703 
L 88.833495 286.770162 
L 88.944811 284.590703 
L 89.169362 286.770162 
L 89.278759 284.590703 
L 89.509067 286.770162 
L 89.619424 284.590703 
L 89.840136 286.770162 
L 89.949533 284.590703 
L 90.175043 286.770162 
L 90.280601 284.590703 
L 90.504192 286.770162 
L 90.621266 284.590703 
L 90.83814 286.770162 
L 90.960971 284.590703 
L 91.178805 286.770162 
L 91.301636 284.590703 
L 91.508914 286.770162 
L 91.628866 284.590703 
L 91.839982 286.770162 
L 91.97241 284.590703 
L 92.180647 286.770162 
L 92.306357 284.590703 
L 92.520353 286.770162 
L 92.649901 284.590703 
L 92.861017 286.770162 
L 92.983849 284.590703 
L 93.188248 286.770162 
L 93.315877 284.590703 
L 93.531791 286.770162 
L 93.645986 284.590703 
L 93.865739 286.770162 
L 93.979933 284.590703 
L 94.209282 286.770162 
L 94.31484 284.590703 
L 94.54323 286.770162 
L 94.645909 284.590703 
L 94.875258 286.770162 
L 94.979857 284.590703 
L 95.206327 286.770162 
L 95.319562 284.590703 
L 95.540274 286.770162 
L 95.658307 284.590703 
L 95.875181 286.770162 
L 95.991295 284.590703 
L 96.20529 286.770162 
L 96.325243 284.590703 
L 96.540198 286.770162 
L 96.66015 284.590703 
L 96.878943 286.770162 
L 96.998896 284.590703 
L 97.217689 286.770162 
L 97.331883 284.590703 
L 97.550677 286.770162 
L 97.669669 284.590703 
L 97.884624 286.770162 
L 98.010334 284.590703 
L 98.219531 286.770162 
L 98.340443 284.590703 
L 98.558277 286.770162 
L 98.672472 284.590703 
L 98.891265 286.770162 
L 99.008338 284.590703 
L 99.229051 286.770162 
L 99.569715 288.949622 
L 99.678152 286.770162 
L 99.899825 288.949622 
L 100.006342 286.770162 
L 100.232812 288.949622 
L 100.349886 286.770162 
L 100.56772 288.949622 
L 100.69247 286.770162 
L 101.034094 284.590703 
L 101.237534 286.770162 
L 101.375719 284.590703 
L 101.565724 286.770162 
L 101.708707 284.590703 
L 101.909267 286.770162 
L 102.044574 284.590703 
L 102.251851 286.770162 
L 102.386198 284.590703 
L 102.593476 286.770162 
L 102.723024 284.590703 
L 102.9351 286.770162 
L 103.057931 284.590703 
L 103.268088 286.770162 
L 103.386121 284.590703 
L 103.604914 286.770162 
L 103.714311 284.590703 
L 103.945579 286.770162 
L 104.051137 284.590703 
L 104.283365 286.770162 
L 104.385085 284.590703 
L 104.617313 286.770162 
L 104.721911 284.590703 
L 104.945503 286.770162 
L 105.056818 284.590703 
L 105.273692 286.770162 
L 105.394604 284.590703 
L 105.610519 286.770162 
L 105.730471 284.590703 
L 105.944466 286.770162 
L 106.069217 284.590703 
L 106.281293 286.770162 
L 106.405083 284.590703 
L 106.617159 286.770162 
L 106.734233 284.590703 
L 106.953986 286.770162 
L 107.072978 284.590703 
L 107.289852 286.770162 
L 107.409805 284.590703 
L 107.629558 286.770162 
L 107.743752 284.590703 
L 107.964465 286.770162 
L 108.070982 284.590703 
L 108.293614 286.770162 
L 108.408768 284.590703 
L 108.63236 286.770162 
L 108.740797 284.590703 
L 108.969186 286.770162 
L 109.076663 284.590703 
L 109.303134 286.770162 
L 109.415409 284.590703 
L 109.630364 286.770162 
L 109.750316 284.590703 
L 109.969109 286.770162 
L 110.089062 284.590703 
L 110.301138 286.770162 
L 110.42109 284.590703 
L 110.636045 286.770162 
L 110.752159 284.590703 
L 110.97575 286.770162 
L 111.083227 284.590703 
L 111.309697 286.770162 
L 111.418134 284.590703 
L 111.648443 286.770162 
L 111.750163 284.590703 
L 111.980471 286.770162 
L 112.086029 284.590703 
L 112.312499 286.770162 
L 112.423815 284.590703 
L 112.642609 286.770162 
L 113.984156 295.488 
L 114.526341 291.129081 
L 115.719148 280.231784 
L 115.847737 282.411243 
L 115.957133 280.231784 
L 116.088601 282.411243 
L 116.197998 280.231784 
L 116.321789 282.411243 
L 116.435983 280.231784 
L 116.559774 282.411243 
L 116.675888 280.231784 
L 116.79776 282.411243 
L 116.917712 280.231784 
L 117.038624 282.411243 
L 117.157617 280.231784 
L 117.281408 282.411243 
L 117.40328 280.231784 
L 117.518434 282.411243 
L 117.643184 280.231784 
L 117.760258 282.411243 
L 117.884049 280.231784 
L 117.998244 282.411243 
L 118.122994 280.231784 
L 118.238148 282.411243 
L 118.358101 280.231784 
L 118.479972 282.411243 
L 118.600884 280.231784 
L 118.718918 282.411243 
L 118.836951 280.231784 
L 118.96554 282.411243 
L 119.084533 280.231784 
L 130.679612 278.052324 
L 130.887849 249.719351 
L 130.96078 251.898811 
L 131.093208 249.719351 
L 131.357103 214.848 
L 131.434832 217.027459 
L 131.551906 214.848 
L 131.678576 217.027459 
L 131.785093 214.848 
L 131.914642 217.027459 
L 132.023079 214.848 
L 132.241872 219.206919 
L 132.44915 247.539892 
L 132.509606 245.360432 
L 132.655468 247.539892 
L 132.741834 260.616649 
L 132.753349 258.437189 
L 132.998052 256.25773 
L 133.127601 258.437189 
L 133.170783 264.975568 
L 133.235078 262.796108 
L 133.472104 260.616649 
L 133.655391 262.796108 
L 133.697614 269.334486 
L 133.712009 267.155027 
L 134.185101 262.796108 
L 134.246517 271.513946 
L 134.669709 267.155027 
L 134.746478 275.872865 
L 135.150478 271.513946 
L 135.237803 278.052324 
L 135.254117 280.231784 
L 135.630288 275.872865 
L 135.756957 280.231784 
L 135.77615 282.411243 
L 135.872112 280.231784 
L 135.993024 282.411243 
L 136.10434 280.231784 
L 136.301061 282.411243 
L 136.345204 280.231784 
L 147.952758 278.052324 
L 148.160036 249.719351 
L 148.227209 251.898811 
L 148.366354 249.719351 
L 148.638886 210.489081 
L 148.707019 212.668541 
L 148.849043 210.489081 
L 148.948843 212.668541 
L 149.085109 210.489081 
L 149.182031 212.668541 
L 149.318297 210.489081 
L 149.530372 217.027459 
L 149.722296 243.180973 
L 149.791389 241.001514 
L 149.928614 243.180973 
L 149.981393 251.898811 
L 150.031294 249.719351 
L 150.275037 247.539892 
L 150.31822 256.25773 
L 150.748129 251.898811 
L 150.856566 256.25773 
L 150.898789 262.796108 
L 150.982276 260.616649 
L 151.2241 258.437189 
L 151.398751 260.616649 
L 151.440974 267.155027 
L 151.464005 264.975568 
L 151.700072 262.796108 
L 151.926542 264.975568 
L 151.939976 262.796108 
L 151.95533 267.155027 
L 152.177962 264.975568 
L 152.40923 267.155027 
L 152.417867 264.975568 
L 152.452413 271.513946 
L 152.894797 267.155027 
L 152.9898 273.693405 
L 153.004194 275.872865 
L 153.131823 273.693405 
L 153.376526 271.513946 
L 153.498398 275.872865 
L 153.527187 280.231784 
L 153.61931 278.052324 
L 159.468189 275.872865 
L 159.473947 278.052324 
L 159.553595 267.155027 
L 159.675467 249.719351 
L 159.736883 251.898811 
L 159.848199 247.539892 
L 159.974868 249.719351 
L 160.087144 247.539892 
L 160.214773 249.719351 
L 160.328008 247.539892 
L 160.450839 249.719351 
L 160.569832 247.539892 
L 160.695542 249.719351 
L 160.808777 247.539892 
L 161.044844 251.898811 
L 161.237727 280.231784 
L 161.277072 278.052324 
L 161.409499 282.411243 
L 161.518896 280.231784 
L 161.649404 282.411243 
L 161.76072 280.231784 
L 161.890268 282.411243 
L 162.003503 280.231784 
L 162.131133 282.411243 
L 162.243408 280.231784 
L 162.371038 282.411243 
L 162.488111 280.231784 
L 162.605185 282.411243 
L 162.729935 280.231784 
L 162.838372 282.411243 
L 162.967921 280.231784 
L 163.080196 282.411243 
L 163.208785 280.231784 
L 163.32298 282.411243 
L 163.565764 284.590703 
L 163.691474 282.411243 
L 163.805668 284.590703 
L 163.9285 282.411243 
L 164.049412 284.590703 
L 164.170324 282.411243 
L 164.291236 284.590703 
L 164.408309 282.411243 
L 164.530181 284.590703 
L 164.649174 282.411243 
L 164.771045 284.590703 
L 164.892917 282.411243 
L 165.132822 280.231784 
L 176.736538 278.052324 
L 182.499051 275.872865 
L 182.691935 251.898811 
L 182.763906 254.07827 
L 182.911688 251.898811 
L 183.185179 212.668541 
L 183.242756 214.848 
L 183.364628 212.668541 
L 183.483621 214.848 
L 183.605492 212.668541 
L 183.728324 214.848 
L 183.843478 212.668541 
L 184.061311 217.027459 
L 184.254195 241.001514 
L 184.327126 238.822054 
L 184.473948 241.001514 
L 184.583344 256.25773 
L 184.805976 254.07827 
L 184.975829 256.25773 
L 185.019011 262.796108 
L 185.051638 260.616649 
L 185.530488 256.25773 
L 185.578469 264.975568 
L 186.008379 260.616649 
L 186.050602 267.155027 
L 186.489148 262.796108 
L 186.567837 271.513946 
L 186.968958 267.155027 
L 187.054364 271.513946 
L 187.082193 275.872865 
L 187.204064 273.693405 
L 187.439171 271.513946 
L 187.56872 275.872865 
L 187.584074 278.052324 
L 187.674278 275.872865 
L 187.791351 278.052324 
L 187.917062 275.872865 
L 188.049489 278.052324 
L 188.068681 280.231784 
L 188.155047 278.052324 
L 188.290353 280.231784 
L 188.39975 278.052324 
L 188.599351 280.231784 
L 188.639655 278.052324 
L 188.765365 280.231784 
L 188.882439 278.052324 
L 189.001431 280.231784 
L 189.122343 278.052324 
L 189.236538 280.231784 
L 189.363208 278.052324 
L 189.479322 280.231784 
L 189.606951 278.052324 
L 189.717307 280.231784 
L 189.849735 278.052324 
L 189.961051 280.231784 
L 190.092518 278.052324 
L 190.201915 280.231784 
L 190.337221 278.052324 
L 190.443739 280.231784 
L 191.411035 288.949622 
L 191.610636 286.770162 
L 191.653819 288.949622 
L 191.898522 291.129081 
L 191.943624 288.949622 
L 192.953143 282.411243 
L 193.170017 284.590703 
L 193.285172 282.411243 
L 193.503005 284.590703 
L 193.624877 282.411243 
L 193.835993 284.590703 
L 193.964582 282.411243 
L 194.174739 284.590703 
L 194.29661 282.411243 
L 194.512525 284.590703 
L 194.631517 282.411243 
L 194.844553 284.590703 
L 194.967384 282.411243 
L 195.185218 284.590703 
L 195.308049 282.411243 
L 195.523963 284.590703 
L 195.635279 282.411243 
L 195.855992 284.590703 
L 195.966348 282.411243 
L 196.190899 284.590703 
L 196.302215 282.411243 
L 196.527725 284.590703 
L 196.649597 282.411243 
L 196.86743 284.590703 
L 196.978746 282.411243 
L 197.19562 284.590703 
L 197.311734 282.411243 
L 197.526689 284.590703 
L 197.644722 282.411243 
L 197.861596 284.590703 
L 197.983467 282.411243 
L 198.208978 284.590703 
L 198.310698 282.411243 
L 198.538127 284.590703 
L 198.646564 282.411243 
L 198.872075 284.590703 
L 198.981471 282.411243 
L 199.204103 284.590703 
L 199.3135 282.411243 
L 199.542849 284.590703 
L 199.650326 282.411243 
L 205.53759 280.231784 
L 205.746787 267.155027 
L 205.959823 264.975568 
L 205.963661 267.155027 
L 206.054825 260.616649 
L 206.298568 262.796108 
L 206.313922 260.616649 
L 206.631556 262.796108 
L 206.648829 260.616649 
L 206.967423 262.796108 
L 206.985656 260.616649 
L 207.12672 264.975568 
L 207.307128 278.052324 
L 207.320563 275.872865 
L 207.521123 278.052324 
L 207.549912 280.231784 
L 207.647793 278.052324 
L 207.740876 282.411243 
L 207.986539 280.231784 
L 208.208211 284.590703 
L 208.328163 282.411243 
L 208.545037 284.590703 
L 208.656353 282.411243 
L 208.880904 284.590703 
L 208.993179 282.411243 
L 209.208134 284.590703 
L 209.323288 282.411243 
L 209.54592 284.590703 
L 209.660114 282.411243 
L 209.887544 284.590703 
L 209.99982 282.411243 
L 210.216694 284.590703 
L 210.334727 282.411243 
L 210.55256 284.590703 
L 210.665795 282.411243 
L 210.883629 284.590703 
L 210.998783 282.411243 
L 211.219496 284.590703 
L 211.328892 282.411243 
L 211.559201 284.590703 
L 211.66284 282.411243 
L 211.895068 284.590703 
L 211.997747 282.411243 
L 212.225177 284.590703 
L 212.333614 282.411243 
L 212.559124 284.590703 
L 212.678117 282.411243 
L 212.888274 284.590703 
L 213.006307 282.411243 
L 213.223181 284.590703 
L 213.343133 282.411243 
L 213.558088 284.590703 
L 213.671323 282.411243 
L 213.892995 284.590703 
L 214.004311 282.411243 
L 214.237498 284.590703 
L 214.339218 282.411243 
L 214.565688 284.590703 
L 214.671246 282.411243 
L 214.902514 284.590703 
L 215.010951 282.411243 
L 215.230704 284.590703 
L 215.344899 282.411243 
L 215.563692 284.590703 
L 215.683644 282.411243 
L 215.899559 284.590703 
L 216.024309 282.411243 
L 216.230627 284.590703 
L 216.356338 282.411243 
L 216.570333 284.590703 
L 216.688366 282.411243 
L 216.90428 284.590703 
L 217.023273 282.411243 
L 217.243026 284.590703 
L 217.366817 282.411243 
L 217.58465 284.590703 
L 217.709401 282.411243 
L 217.915719 284.590703 
L 218.033752 282.411243 
L 218.247747 284.590703 
L 218.373457 282.411243 
L 218.582654 284.590703 
L 218.717961 282.411243 
L 218.926198 284.590703 
L 219.049029 282.411243 
L 219.268782 284.590703 
L 219.378179 282.411243 
L 224.075515 251.898811 
L 224.404664 254.07827 
L 224.409462 251.898811 
L 224.750127 249.719351 
L 224.800987 254.07827 
L 225.083115 251.898811 
L 225.180996 256.25773 
L 225.418022 254.07827 
L 225.556207 258.437189 
L 225.764445 256.25773 
L 225.922782 260.616649 
L 226.10511 258.437189 
L 226.296074 260.616649 
L 226.324862 262.796108 
L 226.444815 260.616649 
L 226.693356 262.796108 
L 226.723104 264.975568 
L 226.769166 262.796108 
L 227.057052 264.975568 
L 227.084881 267.155027 
L 227.108871 264.975568 
L 227.38908 267.155027 
L 227.417869 269.334486 
L 227.443778 267.155027 
L 227.753735 269.334486 
L 227.782524 271.513946 
L 228.103037 273.693405 
L 228.131825 275.872865 
L 228.434105 273.693405 
L 228.500319 278.052324 
L 228.626029 275.872865 
L 228.854419 278.052324 
L 228.883207 280.231784 
L 229.190285 282.411243 
L 229.218114 284.590703 
L 229.573173 286.770162 
L 229.608679 288.949622 
L 229.996366 291.129081 
L 230.188289 293.308541 
L 245.83872 291.129081 
L 245.99034 288.949622 
L 246.18994 251.898811 
L 246.399137 249.719351 
L 246.647679 201.771243 
L 246.664952 199.591784 
L 247.240723 193.053405 
L 247.40002 195.232865 
L 247.429768 193.053405 
L 247.565075 197.412324 
L 247.752201 230.104216 
L 247.814576 227.924757 
L 247.962357 230.104216 
L 248.037207 243.180973 
L 248.196504 241.001514 
L 248.329891 245.360432 
L 248.352922 249.719351 
L 248.389388 247.539892 
L 248.770357 243.180973 
L 248.855763 249.719351 
L 248.867278 251.898811 
L 248.965159 249.719351 
L 249.346128 245.360432 
L 249.402746 251.898811 
L 249.735733 247.539892 
L 249.919021 249.719351 
L 249.953567 254.07827 
L 250.316303 249.719351 
L 250.444892 251.898811 
L 250.479438 258.437189 
L 250.505348 256.25773 
L 250.891115 251.898811 
L 250.996673 256.25773 
L 251.019704 260.616649 
L 251.084958 258.437189 
L 251.277842 256.25773 
L 251.45921 258.437189 
L 251.492796 262.796108 
L 251.858411 258.437189 
L 252.033062 260.616649 
L 252.066649 264.975568 
L 252.437062 260.616649 
L 252.519589 264.975568 
L 252.54262 269.334486 
L 252.628986 267.155027 
L 253.008035 262.796108 
L 253.12223 267.155027 
L 253.145261 271.513946 
L 253.199959 269.334486 
L 253.57517 264.975568 
L 253.649061 271.513946 
L 253.660576 273.693405 
L 253.959018 269.334486 
L 254.148063 267.155027 
L 254.190286 273.693405 
L 254.341906 271.513946 
L 254.363018 273.693405 
L 254.53287 271.513946 
L 254.68353 273.693405 
L 254.76126 275.872865 
L 255.110561 271.513946 
L 255.232433 275.872865 
L 255.300566 273.693405 
L 255.328394 275.872865 
L 255.49057 273.693405 
L 255.521278 275.872865 
L 255.682494 273.693405 
L 255.732394 275.872865 
L 255.873458 273.693405 
L 255.904166 275.872865 
L 256.065382 273.693405 
L 256.09513 275.872865 
L 256.259225 273.693405 
L 256.288973 275.872865 
L 256.453068 273.693405 
L 256.481857 275.872865 
L 256.644992 273.693405 
L 256.672821 275.872865 
L 256.835956 273.693405 
L 256.862826 275.872865 
L 257.026921 273.693405 
L 257.05283 275.872865 
L 257.217885 273.693405 
L 257.244754 275.872865 
L 257.414607 273.693405 
L 257.435718 275.872865 
L 257.603652 273.693405 
L 257.627642 275.872865 
L 257.797495 273.693405 
L 257.821485 275.872865 
L 257.989419 273.693405 
L 258.015328 275.872865 
L 258.176544 273.693405 
L 258.207252 275.872865 
L 258.365589 273.693405 
L 258.398216 275.872865 
L 258.558473 273.693405 
L 258.588221 275.872865 
L 258.750397 273.693405 
L 258.780145 275.872865 
L 258.942321 273.693405 
L 258.975907 275.872865 
L 259.129446 273.693405 
L 259.165912 275.872865 
L 259.32137 273.693405 
L 259.359755 275.872865 
L 259.511375 273.693405 
L 259.551679 275.872865 
L 259.707137 273.693405 
L 259.738805 275.872865 
L 259.90194 273.693405 
L 259.92785 275.872865 
L 260.097702 273.693405 
L 260.120733 275.872865 
L 260.288666 273.693405 
L 260.312657 275.872865 
L 260.476752 273.693405 
L 260.504581 275.872865 
L 260.673474 273.693405 
L 260.690747 275.872865 
L 260.865398 273.693405 
L 260.88363 275.872865 
L 261.051564 273.693405 
L 261.073635 275.872865 
L 261.245407 273.693405 
L 261.269397 275.872865 
L 261.440209 273.693405 
L 261.4642 275.872865 
L 261.631174 273.693405 
L 261.659962 275.872865 
L 261.826936 273.693405 
L 261.850927 275.872865 
L 262.0179 273.693405 
L 262.039012 275.872865 
L 262.209824 273.693405 
L 262.235734 275.872865 
L 262.402708 273.693405 
L 262.427658 275.872865 
L 262.595591 273.693405 
L 262.613824 275.872865 
L 262.786555 273.693405 
L 262.807667 275.872865 
L 262.981358 273.693405 
L 263.00247 275.872865 
L 263.175201 273.693405 
L 263.193434 275.872865 
L 264.736502 293.308541 
L 269.286056 291.129081 
L 269.543234 245.360432 
L 270.079662 238.822054 
L 270.848317 230.104216 
L 270.962511 254.07827 
L 271.105495 275.872865 
L 271.228326 273.693405 
L 271.258074 275.872865 
L 271.422169 273.693405 
L 271.453836 275.872865 
L 271.618891 273.693405 
L 271.641922 275.872865 
L 271.807936 273.693405 
L 271.836724 275.872865 
L 272.003698 273.693405 
L 272.029608 275.872865 
L 272.194662 273.693405 
L 272.218653 275.872865 
L 272.391384 273.693405 
L 272.410577 275.872865 
L 272.583308 273.693405 
L 272.602501 275.872865 
L 272.774272 273.693405 
L 272.790586 275.872865 
L 272.962358 273.693405 
L 272.984429 275.872865 
L 273.15716 273.693405 
L 273.181151 275.872865 
L 273.349084 273.693405 
L 273.370196 275.872865 
L 273.544847 273.693405 
L 273.565958 275.872865 
L 273.73773 273.693405 
L 273.755963 275.872865 
L 273.927735 273.693405 
L 273.953644 275.872865 
L 274.117739 273.693405 
L 274.145568 275.872865 
L 274.304865 273.693405 
L 274.336533 275.872865 
L 274.49295 273.693405 
L 274.524618 275.872865 
L 274.681036 273.693405 
L 274.719421 275.872865 
L 274.873919 273.693405 
L 274.911344 275.872865 
L 275.065843 273.693405 
L 275.107107 275.872865 
L 275.260646 273.693405 
L 275.29999 275.872865 
L 275.45161 273.693405 
L 275.489995 275.872865 
L 275.642574 273.693405 
L 275.679999 275.872865 
L 275.836417 273.693405 
L 275.867125 275.872865 
L 276.023543 273.693405 
L 276.055211 275.872865 
L 276.214507 273.693405 
L 276.243296 275.872865 
L 276.405472 273.693405 
L 276.436179 275.872865 
L 276.595476 273.693405 
L 276.628103 275.872865 
L 276.7874 273.693405 
L 276.822906 275.872865 
L 276.982203 273.693405 
L 277.01387 275.872865 
L 277.178925 273.693405 
L 277.204834 275.872865 
L 277.376606 273.693405 
L 277.398678 275.872865 
L 277.56949 273.693405 
L 277.585803 275.872865 
L 277.759494 273.693405 
L 277.776768 275.872865 
L 277.951418 273.693405 
L 277.967732 275.872865 
L 278.143342 273.693405 
L 278.157736 275.872865 
L 278.334306 273.693405 
L 278.34966 275.872865 
L 278.52623 273.693405 
L 278.544463 275.872865 
L 278.721992 273.693405 
L 278.741185 275.872865 
L 278.915836 273.693405 
L 278.938866 275.872865 
L 279.10584 273.693405 
L 279.13175 275.872865 
L 279.294885 273.693405 
L 279.321755 275.872865 
L 279.482971 273.693405 
L 279.513678 275.872865 
L 279.673935 273.693405 
L 279.705602 275.872865 
L 279.861061 273.693405 
L 279.896566 275.872865 
L 280.052984 273.693405 
L 280.08849 275.872865 
L 280.248747 273.693405 
L 280.284253 275.872865 
L 280.443549 273.693405 
L 280.478096 275.872865 
L 280.638352 273.693405 
L 280.6681 275.872865 
L 280.830276 273.693405 
L 280.857145 275.872865 
L 281.024119 273.693405 
L 281.045231 275.872865 
L 281.215083 273.693405 
L 281.236195 275.872865 
L 281.409886 273.693405 
L 281.423321 275.872865 
L 281.60181 273.693405 
L 281.615245 275.872865 
L 281.797572 273.693405 
L 281.811007 275.872865 
L 281.987577 273.693405 
L 282.00581 275.872865 
L 282.18046 273.693405 
L 282.200612 275.872865 
L 282.369505 273.693405 
L 282.392536 275.872865 
L 282.561429 273.693405 
L 282.586379 275.872865 
L 282.750474 273.693405 
L 282.777343 275.872865 
L 282.942398 273.693405 
L 282.972146 275.872865 
L 283.137201 273.693405 
L 283.16407 275.872865 
L 283.331044 273.693405 
L 283.359832 275.872865 
L 283.522008 273.693405 
L 283.549837 275.872865 
L 283.715851 273.693405 
L 283.74272 275.872865 
L 283.904896 273.693405 
L 283.930806 275.872865 
L 284.09778 273.693405 
L 284.123689 275.872865 
L 284.292582 273.693405 
L 284.312734 275.872865 
L 284.481627 273.693405 
L 284.504658 275.872865 
L 284.67547 273.693405 
L 284.699461 275.872865 
L 284.863556 273.693405 
L 284.893304 275.872865 
L 285.056439 273.693405 
L 285.084268 275.872865 
L 285.245484 273.693405 
L 285.278111 275.872865 
L 285.441246 273.693405 
L 285.467156 275.872865 
L 285.627413 273.693405 
L 285.66004 275.872865 
L 285.817417 273.693405 
L 285.854842 275.872865 
L 286.01126 273.693405 
L 286.043887 275.872865 
L 286.205103 273.693405 
L 286.23773 275.872865 
L 286.39127 273.693405 
L 286.425816 275.872865 
L 286.586072 273.693405 
L 286.618699 275.872865 
L 286.777996 273.693405 
L 286.807744 275.872865 
L 286.968001 273.693405 
L 287.003507 275.872865 
L 287.157046 273.693405 
L 287.189673 275.872865 
L 287.350889 273.693405 
L 287.379677 275.872865 
L 287.544732 273.693405 
L 287.57352 275.872865 
L 287.737615 273.693405 
L 287.767364 275.872865 
L 287.931458 273.693405 
L 287.95353 275.872865 
L 288.122423 273.693405 
L 288.147373 275.872865 
L 288.309548 273.693405 
L 288.340256 275.872865 
L 288.50723 273.693405 
L 288.530261 275.872865 
L 288.699154 273.693405 
L 288.719306 275.872865 
L 288.88628 273.693405 
L 288.913149 275.872865 
L 289.078203 273.693405 
L 289.106992 275.872865 
L 289.265329 273.693405 
L 289.299875 275.872865 
L 289.457253 273.693405 
L 289.493719 275.872865 
L 289.649177 273.693405 
L 289.684683 275.872865 
L 289.845899 273.693405 
L 289.871809 275.872865 
L 290.042621 273.693405 
L 290.06949 275.872865 
L 290.232625 273.693405 
L 290.261414 275.872865 
L 290.42167 273.693405 
L 290.44854 275.872865 
L 290.613594 273.693405 
L 290.640464 275.872865 
L 290.802639 273.693405 
L 290.827589 275.872865 
L 290.994563 273.693405 
L 291.019513 275.872865 
L 291.181689 273.693405 
L 291.211437 275.872865 
L 291.374572 273.693405 
L 291.408159 275.872865 
L 291.572254 273.693405 
L 291.604881 275.872865 
L 291.762258 273.693405 
L 291.794886 275.872865 
L 291.950344 273.693405 
L 291.983931 275.872865 
L 292.144187 273.693405 
L 292.175854 275.872865 
L 292.334192 273.693405 
L 292.364899 275.872865 
L 292.527075 273.693405 
L 292.555864 275.872865 
L 292.743949 278.052324 
L 292.909003 275.872865 
L 292.936832 278.052324 
L 293.103806 275.872865 
L 293.134514 278.052324 
L 293.291892 275.872865 
L 293.324519 278.052324 
L 293.483815 275.872865 
L 293.512604 278.052324 
L 293.675739 275.872865 
L 293.706447 278.052324 
L 293.863825 275.872865 
L 293.896452 278.052324 
L 294.054789 275.872865 
L 294.089335 278.052324 
L 294.438637 273.693405 
L 294.471264 275.872865 
L 294.63152 273.693405 
L 294.666066 275.872865 
L 294.823444 273.693405 
L 294.854152 275.872865 
L 295.016327 273.693405 
L 295.046076 275.872865 
L 295.214009 273.693405 
L 295.237999 275.872865 
L 295.403054 273.693405 
L 295.426085 275.872865 
L 295.594018 273.693405 
L 295.617049 275.872865 
L 295.784982 273.693405 
L 295.809932 275.872865 
L 295.978825 273.693405 
L 296.000897 275.872865 
L 296.16883 273.693405 
L 296.19378 275.872865 
L 296.362673 273.693405 
L 296.385704 275.872865 
L 296.550759 273.693405 
L 296.578587 275.872865 
L 296.741723 273.693405 
L 296.776269 275.872865 
L 296.936525 273.693405 
L 296.965314 275.872865 
L 297.133247 273.693405 
L 297.156278 275.872865 
L 297.324212 273.693405 
L 297.347242 275.872865 
L 297.516135 273.693405 
L 297.541086 275.872865 
L 297.713817 273.693405 
L 297.73109 275.872865 
L 297.90766 273.693405 
L 297.924933 275.872865 
L 298.100544 273.693405 
L 298.113019 275.872865 
L 298.28671 273.693405 
L 298.303983 275.872865 
L 298.477674 273.693405 
L 298.498786 275.872865 
L 298.669598 273.693405 
L 298.695508 275.872865 
L 298.863441 273.693405 
L 298.886472 275.872865 
L 299.057284 273.693405 
L 299.078396 275.872865 
L 299.245369 273.693405 
L 299.275118 275.872865 
L 299.436334 273.693405 
L 299.46992 275.872865 
L 299.627298 273.693405 
L 299.662804 275.872865 
L 299.821141 273.693405 
L 299.84897 275.872865 
L 300.013065 273.693405 
L 300.038974 275.872865 
L 300.204029 273.693405 
L 300.231858 275.872865 
L 300.399791 273.693405 
L 300.425701 275.872865 
L 300.587877 273.693405 
L 300.619544 275.872865 
L 300.778841 273.693405 
L 300.807629 275.872865 
L 300.967886 273.693405 
L 300.998594 275.872865 
L 301.163648 273.693405 
L 301.189558 275.872865 
L 301.352693 273.693405 
L 301.382441 275.872865 
L 301.543657 273.693405 
L 301.575325 275.872865 
L 301.731743 273.693405 
L 301.766289 275.872865 
L 301.925586 273.693405 
L 301.962051 275.872865 
L 302.11751 273.693405 
L 302.150137 275.872865 
L 302.304636 273.693405 
L 302.341101 275.872865 
L 302.497519 273.693405 
L 302.530146 275.872865 
L 302.690402 273.693405 
L 302.725908 275.872865 
L 302.879447 273.693405 
L 302.914953 275.872865 
L 303.072331 273.693405 
L 303.105918 275.872865 
L 303.260416 273.693405 
L 303.294003 275.872865 
L 326.446737 273.693405 
L 326.518708 275.872865 
L 326.61467 271.513946 
L 326.79028 251.898811 
L 327.090641 256.25773 
L 328.165415 269.334486 
L 328.349662 293.308541 
L 337.972723 291.129081 
L 338.139697 288.949622 
L 338.320106 275.872865 
L 338.536979 273.693405 
L 338.803754 254.07827 
L 338.958252 251.898811 
L 339.2922 249.719351 
L 339.532105 251.898811 
L 339.629026 249.719351 
L 339.757615 256.25773 
L 339.879487 264.975568 
L 339.964893 262.796108 
L 340.126109 267.155027 
L 340.183686 271.513946 
L 340.485966 273.693405 
L 340.514755 275.872865 
L 340.62703 273.693405 
L 340.890925 275.872865 
L 340.919714 278.052324 
L 340.961937 275.872865 
L 341.265177 278.052324 
L 341.293966 280.231784 
L 341.301643 278.052324 
L 341.63655 275.872865 
L 341.689329 280.231784 
L 341.973376 278.052324 
L 342.102925 282.411243 
L 342.302525 280.231784 
L 342.522278 284.590703 
L 342.631675 282.411243 
L 342.861024 284.590703 
L 342.968501 282.411243 
L 343.195931 284.590703 
L 343.309166 282.411243 
L 343.532757 284.590703 
L 343.648871 282.411243 
L 343.861907 284.590703 
L 343.978021 282.411243 
L 344.191056 284.590703 
L 344.305251 282.411243 
L 344.527882 284.590703 
L 344.639198 282.411243 
L 344.868547 284.590703 
L 344.976984 282.411243 
L 345.209212 284.590703 
L 345.320528 282.411243 
L 345.537402 284.590703 
L 345.658314 282.411243 
L 345.864632 284.590703 
L 345.990342 282.411243 
L 346.19858 284.590703 
L 346.327169 282.411243 
L 346.537325 284.590703 
L 346.665914 282.411243 
L 346.880869 284.590703 
L 346.999862 282.411243 
L 347.217695 284.590703 
L 347.33189 282.411243 
L 347.550683 284.590703 
L 347.673514 282.411243 
L 347.887509 284.590703 
L 348.0113 282.411243 
L 348.225295 284.590703 
L 348.351965 282.411243 
L 348.560203 284.590703 
L 348.69359 282.411243 
L 348.891271 284.590703 
L 349.033295 282.411243 
L 349.232896 284.590703 
L 349.368202 282.411243 
L 349.570682 284.590703 
L 349.705988 282.411243 
L 349.911346 284.590703 
L 350.049532 282.411243 
L 350.252971 284.590703 
L 350.386358 282.411243 
L 350.592676 284.590703 
L 350.726063 282.411243 
L 350.927583 284.590703 
L 351.265369 286.770162 
L 351.395877 284.590703 
L 351.609872 286.770162 
L 351.735583 284.590703 
L 351.945739 286.770162 
L 352.06953 284.590703 
L 352.285444 286.770162 
L 352.411155 284.590703 
L 352.739344 282.411243 
L 352.955259 284.590703 
L 353.069453 282.411243 
L 353.294964 284.590703 
L 353.40532 282.411243 
L 353.628911 284.590703 
L 353.744066 282.411243 
L 353.971495 284.590703 
L 354.087609 282.411243 
L 354.298726 284.590703 
L 354.428274 282.411243 
L 354.629794 284.590703 
L 354.762222 282.411243 
L 354.964701 284.590703 
L 355.096169 282.411243 
L 360.995908 280.231784 
L 361.176317 269.334486 
L 361.404706 271.513946 
L 362.413266 278.052324 
L 362.556249 280.231784 
L 362.736658 293.308541 
L 366.96378 291.129081 
L 367.176816 288.949622 
L 367.426317 271.513946 
L 367.818801 267.155027 
L 368.290934 262.796108 
L 368.523162 264.975568 
L 368.537556 262.796108 
L 368.737157 264.975568 
L 368.988577 280.231784 
L 369.020244 278.052324 
L 369.142116 280.231784 
L 369.261109 278.052324 
L 369.381061 280.231784 
L 369.503893 278.052324 
L 383.881868 147.284757 
L 395.534524 145.105297 
L 395.740842 114.592865 
L 395.94812 112.413405 
L 396.220652 73.183135 
L 396.339645 71.003676 
L 398.025696 55.747459 
L 398.487273 53.568 
L 398.487273 53.568 
" clip-path="url(#p3eb1545482)" style="fill: none; stroke: #1f77b4; stroke-width: 1.5; stroke-linecap: square"/>
   </g>
   <g id="patch_3">
    <path d="M 57.6 307.584 
L 57.6 41.472 
" style="fill: none; stroke: #000000; stroke-width: 0.8; stroke-linejoin: miter; stroke-linecap: square"/>
   </g>
   <g id="patch_4">
    <path d="M 414.72 307.584 
L 414.72 41.472 
" style="fill: none; stroke: #000000; stroke-width: 0.8; stroke-linejoin: miter; stroke-linecap: square"/>
   </g>
   <g id="patch_5">
    <path d="M 57.6 307.584 
L 414.72 307.584 
" style="fill: none; stroke: #000000; stroke-width: 0.8; stroke-linejoin: miter; stroke-linecap: square"/>
   </g>
   <g id="patch_6">
    <path d="M 57.6 41.472 
L 414.72 41.472 
" style="fill: none; stroke: #000000; stroke-width: 0.8; stroke-linejoin: miter; stroke-linecap: square"/>
   </g>
   <g id="text_16">
    <!-- Queue size (y-axis) between S4 and sensors that follow at a time (x-axis). -->
    <g transform="translate(14.282813 35.472) scale(0.12 -0.12)">
     <defs>
      <path id="DejaVuSans-51" d="M 2522 4238 
Q 1834 4238 1429 3725 
Q 1025 3213 1025 2328 
Q 1025 1447 1429 934 
Q 1834 422 2522 422 
Q 3209 422 3611 934 
Q 4013 1447 4013 2328 
Q 4013 3213 3611 3725 
Q 3209 4238 2522 4238 
z
M 3406 84 
L 4238 -825 
L 3475 -825 
L 2784 -78 
Q 2681 -84 2626 -87 
Q 2572 -91 2522 -91 
Q 1538 -91 948 567 
Q 359 1225 359 2328 
Q 359 3434 948 4092 
Q 1538 4750 2522 4750 
Q 3503 4750 4090 4092 
Q 4678 3434 4678 2328 
Q 4678 1516 4351 937 
Q 4025 359 3406 84 
z
" transform="scale(0.015625)"/>
      <path id="DejaVuSans-75" d="M 544 1381 
L 544 3500 
L 1119 3500 
L 1119 1403 
Q 1119 906 1312 657 
Q 1506 409 1894 409 
Q 2359 409 2629 706 
Q 2900 1003 2900 1516 
L 2900 3500 
L 3475 3500 
L 3475 0 
L 2900 0 
L 2900 538 
Q 2691 219 2414 64 
Q 2138 -91 1772 -91 
Q 1169 -91 856 284 
Q 544 659 544 1381 
z
M 1991 3584 
L 1991 3584 
z
" transform="scale(0.015625)"/>
      <path id="DejaVuSans-20" transform="scale(0.015625)"/>
      <path id="DejaVuSans-73" d="M 2834 3397 
L 2834 2853 
Q 2591 2978 2328 3040 
Q 2066 3103 1784 3103 
Q 1356 3103 1142 2972 
Q 928 2841 928 2578 
Q 928 2378 1081 2264 
Q 1234 2150 1697 2047 
L 1894 2003 
Q 2506 1872 2764 1633 
Q 3022 1394 3022 966 
Q 3022 478 2636 193 
Q 2250 -91 1575 -91 
Q 1294 -91 989 -36 
Q 684 19 347 128 
L 347 722 
Q 666 556 975 473 
Q 1284 391 1588 391 
Q 1994 391 2212 530 
Q 2431 669 2431 922 
Q 2431 1156 2273 1281 
Q 2116 1406 1581 1522 
L 1381 1569 
Q 847 1681 609 1914 
Q 372 2147 372 2553 
Q 372 3047 722 3315 
Q 1072 3584 1716 3584 
Q 2034 3584 2315 3537 
Q 2597 3491 2834 3397 
z
" transform="scale(0.015625)"/>
      <path id="DejaVuSans-69" d="M 603 3500 
L 1178 3500 
L 1178 0 
L 603 0 
L 603 3500 
z
M 603 4863 
L 1178 4863 
L 1178 4134 
L 603 4134 
L 603 4863 
z
" transform="scale(0.015625)"/>
      <path id="DejaVuSans-7a" d="M 353 3500 
L 3084 3500 
L 3084 2975 
L 922 459 
L 3084 459 
L 3084 0 
L 275 0 
L 275 525 
L 2438 3041 
L 353 3041 
L 353 3500 
z
" transform="scale(0.015625)"/>
      <path id="DejaVuSans-28" d="M 1984 4856 
Q 1566 4138 1362 3434 
Q 1159 2731 1159 2009 
Q 1159 1288 1364 580 
Q 1569 -128 1984 -844 
L 1484 -844 
Q 1016 -109 783 600 
Q 550 1309 550 2009 
Q 550 2706 781 3412 
Q 1013 4119 1484 4856 
L 1984 4856 
z
" transform="scale(0.015625)"/>
      <path id="DejaVuSans-79" d="M 2059 -325 
Q 1816 -950 1584 -1140 
Q 1353 -1331 966 -1331 
L 506 -1331 
L 506 -850 
L 844 -850 
Q 1081 -850 1212 -737 
Q 1344 -625 1503 -206 
L 1606 56 
L 191 3500 
L 800 3500 
L 1894 763 
L 2988 3500 
L 3597 3500 
L 2059 -325 
z
" transform="scale(0.015625)"/>
      <path id="DejaVuSans-2d" d="M 313 2009 
L 1997 2009 
L 1997 1497 
L 313 1497 
L 313 2009 
z
" transform="scale(0.015625)"/>
      <path id="DejaVuSans-61" d="M 2194 1759 
Q 1497 1759 1228 1600 
Q 959 1441 959 1056 
Q 959 750 1161 570 
Q 1363 391 1709 391 
Q 2188 391 2477 730 
Q 2766 1069 2766 1631 
L 2766 1759 
L 2194 1759 
z
M 3341 1997 
L 3341 0 
L 2766 0 
L 2766 531 
Q 2569 213 2275 61 
Q 1981 -91 1556 -91 
Q 1019 -91 701 211 
Q 384 513 384 1019 
Q 384 1609 779 1909 
Q 1175 2209 1959 2209 
L 2766 2209 
L 2766 2266 
Q 2766 2663 2505 2880 
Q 2244 3097 1772 3097 
Q 1472 3097 1187 3025 
Q 903 2953 641 2809 
L 641 3341 
Q 956 3463 1253 3523 
Q 1550 3584 1831 3584 
Q 2591 3584 2966 3190 
Q 3341 2797 3341 1997 
z
" transform="scale(0.015625)"/>
      <path id="DejaVuSans-78" d="M 3513 3500 
L 2247 1797 
L 3578 0 
L 2900 0 
L 1881 1375 
L 863 0 
L 184 0 
L 1544 1831 
L 300 3500 
L 978 3500 
L 1906 2253 
L 2834 3500 
L 3513 3500 
z
" transform="scale(0.015625)"/>
      <path id="DejaVuSans-29" d="M 513 4856 
L 1013 4856 
Q 1481 4119 1714 3412 
Q 1947 2706 1947 2009 
Q 1947 1309 1714 600 
Q 1481 -109 1013 -844 
L 513 -844 
Q 928 -128 1133 580 
Q 1338 1288 1338 2009 
Q 1338 2731 1133 3434 
Q 928 4138 513 4856 
z
" transform="scale(0.015625)"/>
      <path id="DejaVuSans-62" d="M 3116 1747 
Q 3116 2381 2855 2742 
Q 2594 3103 2138 3103 
Q 1681 3103 1420 2742 
Q 1159 2381 1159 1747 
Q 1159 1113 1420 752 
Q 1681 391 2138 391 
Q 2594 391 2855 752 
Q 3116 1113 3116 1747 
z
M 1159 2969 
Q 1341 3281 1617 3432 
Q 1894 3584 2278 3584 
Q 2916 3584 3314 3078 
Q 3713 2572 3713 1747 
Q 3713 922 3314 415 
Q 2916 -91 2278 -91 
Q 1894 -91 1617 61 
Q 1341 213 1159 525 
L 1159 0 
L 581 0 
L 581 4863 
L 1159 4863 
L 1159 2969 
z
" transform="scale(0.015625)"/>
      <path id="DejaVuSans-74" d="M 1172 4494 
L 1172 3500 
L 2356 3500 
L 2356 3053 
L 1172 3053 
L 1172 1153 
Q 1172 725 1289 603 
Q 1406 481 1766 481 
L 2356 481 
L 2356 0 
L 1766 0 
Q 1100 0 847 248 
Q 594 497 594 1153 
L 594 3053 
L 172 3053 
L 172 3500 
L 594 3500 
L 594 4494 
L 1172 4494 
z
" transform="scale(0.015625)"/>
      <path id="DejaVuSans-77" d="M 269 3500 
L 844 3500 
L 1563 769 
L 2278 3500 
L 2956 3500 
L 3675 769 
L 4391 3500 
L 4966 3500 
L 4050 0 
L 3372 0 
L 2619 2869 
L 1863 0 
L 1184 0 
L 269 3500 
z
" transform="scale(0.015625)"/>
      <path id="DejaVuSans-6e" d="M 3513 2113 
L 3513 0 
L 2938 0 
L 2938 2094 
Q 2938 2591 2744 2837 
Q 2550 3084 2163 3084 
Q 1697 3084 1428 2787 
Q 1159 2491 1159 1978 
L 1159 0 
L 581 0 
L 581 3500 
L 1159 3500 
L 1159 2956 
Q 1366 3272 1645 3428 
Q 1925 3584 2291 3584 
Q 2894 3584 3203 3211 
Q 3513 2838 3513 2113 
z
" transform="scale(0.015625)"/>
      <path id="DejaVuSans-53" d="M 3425 4513 
L 3425 3897 
Q 3066 4069 2747 4153 
Q 2428 4238 2131 4238 
Q 1616 4238 1336 4038 
Q 1056 3838 1056 3469 
Q 1056 3159 1242 3001 
Q 1428 2844 1947 2747 
L 2328 2669 
Q 3034 2534 3370 2195 
Q 3706 1856 3706 1288 
Q 3706 609 3251 259 
Q 2797 -91 1919 -91 
Q 1588 -91 1214 -16 
Q 841 59 441 206 
L 441 856 
Q 825 641 1194 531 
Q 1563 422 1919 422 
Q 2459 422 2753 634 
Q 3047 847 3047 1241 
Q 3047 1584 2836 1778 
Q 2625 1972 2144 2069 
L 1759 2144 
Q 1053 2284 737 2584 
Q 422 2884 422 3419 
Q 422 4038 858 4394 
Q 1294 4750 2059 4750 
Q 2388 4750 2728 4690 
Q 3069 4631 3425 4513 
z
" transform="scale(0.015625)"/>
      <path id="DejaVuSans-64" d="M 2906 2969 
L 2906 4863 
L 3481 4863 
L 3481 0 
L 2906 0 
L 2906 525 
Q 2725 213 2448 61 
Q 2172 -91 1784 -91 
Q 1150 -91 751 415 
Q 353 922 353 1747 
Q 353 2572 751 3078 
Q 1150 3584 1784 3584 
Q 2172 3584 2448 3432 
Q 2725 3281 2906 2969 
z
M 947 1747 
Q 947 1113 1208 752 
Q 1469 391 1925 391 
Q 2381 391 2643 752 
Q 2906 1113 2906 1747 
Q 2906 2381 2643 2742 
Q 2381 3103 1925 3103 
Q 1469 3103 1208 2742 
Q 947 2381 947 1747 
z
" transform="scale(0.015625)"/>
      <path id="DejaVuSans-6f" d="M 1959 3097 
Q 1497 3097 1228 2736 
Q 959 2375 959 1747 
Q 959 1119 1226 758 
Q 1494 397 1959 397 
Q 2419 397 2687 759 
Q 2956 1122 2956 1747 
Q 2956 2369 2687 2733 
Q 2419 3097 1959 3097 
z
M 1959 3584 
Q 2709 3584 3137 3096 
Q 3566 2609 3566 1747 
Q 3566 888 3137 398 
Q 2709 -91 1959 -91 
Q 1206 -91 779 398 
Q 353 888 353 1747 
Q 353 2609 779 3096 
Q 1206 3584 1959 3584 
z
" transform="scale(0.015625)"/>
      <path id="DejaVuSans-72" d="M 2631 2963 
Q 2534 3019 2420 3045 
Q 2306 3072 2169 3072 
Q 1681 3072 1420 2755 
Q 1159 2438 1159 1844 
L 1159 0 
L 581 0 
L 581 3500 
L 1159 3500 
L 1159 2956 
Q 1341 3275 1631 3429 
Q 1922 3584 2338 3584 
Q 2397 3584 2469 3576 
Q 2541 3569 2628 3553 
L 2631 2963 
z
" transform="scale(0.015625)"/>
      <path id="DejaVuSans-68" d="M 3513 2113 
L 3513 0 
L 2938 0 
L 2938 2094 
Q 2938 2591 2744 2837 
Q 2550 3084 2163 3084 
Q 1697 3084 1428 2787 
Q 1159 2491 1159 1978 
L 1159 0 
L 581 0 
L 581 4863 
L 1159 4863 
L 1159 2956 
Q 1366 3272 1645 3428 
Q 1925 3584 2291 3584 
Q 2894 3584 3203 3211 
Q 3513 2838 3513 2113 
z
" transform="scale(0.015625)"/>
      <path id="DejaVuSans-66" d="M 2375 4863 
L 2375 4384 
L 1825 4384 
Q 1516 4384 1395 4259 
Q 1275 4134 1275 3809 
L 1275 3500 
L 2222 3500 
L 2222 3053 
L 1275 3053 
L 1275 0 
L 697 0 
L 697 3053 
L 147 3053 
L 147 3500 
L 697 3500 
L 697 3744 
Q 697 4328 969 4595 
Q 1241 4863 1831 4863 
L 2375 4863 
z
" transform="scale(0.015625)"/>
      <path id="DejaVuSans-6c" d="M 603 4863 
L 1178 4863 
L 1178 0 
L 603 0 
L 603 4863 
z
" transform="scale(0.015625)"/>
      <path id="DejaVuSans-6d" d="M 3328 2828 
Q 3544 3216 3844 3400 
Q 4144 3584 4550 3584 
Q 5097 3584 5394 3201 
Q 5691 2819 5691 2113 
L 5691 0 
L 5113 0 
L 5113 2094 
Q 5113 2597 4934 2840 
Q 4756 3084 4391 3084 
Q 3944 3084 3684 2787 
Q 3425 2491 3425 1978 
L 3425 0 
L 2847 0 
L 2847 2094 
Q 2847 2600 2669 2842 
Q 2491 3084 2119 3084 
Q 1678 3084 1418 2786 
Q 1159 2488 1159 1978 
L 1159 0 
L 581 0 
L 581 3500 
L 1159 3500 
L 1159 2956 
Q 1356 3278 1631 3431 
Q 1906 3584 2284 3584 
Q 2666 3584 2933 3390 
Q 3200 3197 3328 2828 
z
" transform="scale(0.015625)"/>
     </defs>
     <use xlink:href="#DejaVuSans-51"/>
     <use xlink:href="#DejaVuSans-75" x="78.710938"/>
     <use xlink:href="#DejaVuSans-65" x="142.089844"/>
     <use xlink:href="#DejaVuSans-75" x="203.613281"/>
     <use xlink:href="#DejaVuSans-65" x="266.992188"/>
     <use xlink:href="#DejaVuSans-20" x="328.515625"/>
     <use xlink:href="#DejaVuSans-73" x="360.302734"/>
     <use xlink:href="#DejaVuSans-69" x="412.402344"/>
     <use xlink:href="#DejaVuSans-7a" x="440.185547"/>
     <use xlink:href="#DejaVuSans-65" x="492.675781"/>
     <use xlink:href="#DejaVuSans-20" x="554.199219"/>
     <use xlink:href="#DejaVuSans-28" x="585.986328"/>
     <use xlink:href="#DejaVuSans-79" x="625"/>
     <use xlink:href="#DejaVuSans-2d" x="682.429688"/>
     <use xlink:href="#DejaVuSans-61" x="718.513672"/>
     <use xlink:href="#DejaVuSans-78" x="779.792969"/>
     <use xlink:href="#DejaVuSans-69" x="838.972656"/>
     <use xlink:href="#DejaVuSans-73" x="866.755859"/>
     <use xlink:href="#DejaVuSans-29" x="918.855469"/>
     <use xlink:href="#DejaVuSans-20" x="957.869141"/>
     <use xlink:href="#DejaVuSans-62" x="989.65625"/>
     <use xlink:href="#DejaVuSans-65" x="1053.132812"/>
     <use xlink:href="#DejaVuSans-74" x="1114.65625"/>
     <use xlink:href="#DejaVuSans-77" x="1153.865234"/>
     <use xlink:href="#DejaVuSans-65" x="1235.652344"/>
     <use xlink:href="#DejaVuSans-65" x="1297.175781"/>
     <use xlink:href="#DejaVuSans-6e" x="1358.699219"/>
     <use xlink:href="#DejaVuSans-20" x="1422.078125"/>
     <use xlink:href="#DejaVuSans-53" x="1453.865234"/>
     <use xlink:href="#DejaVuSans-34" x="1517.341797"/>
     <use xlink:href="#DejaVuSans-20" x="1580.964844"/>
     <use xlink:href="#DejaVuSans-61" x="1612.751953"/>
     <use xlink:href="#DejaVuSans-6e" x="1674.03125"/>
     <use xlink:href="#DejaVuSans-64" x="1737.410156"/>
     <use xlink:href="#DejaVuSans-20" x="1800.886719"/>
     <use xlink:href="#DejaVuSans-73" x="1832.673828"/>
     <use xlink:href="#DejaVuSans-65" x="1884.773438"/>
     <use xlink:href="#DejaVuSans-6e" x="1946.296875"/>
     <use xlink:href="#DejaVuSans-73" x="2009.675781"/>
     <use xlink:href="#DejaVuSans-6f" x="2061.775391"/>
     <use xlink:href="#DejaVuSans-72" x="2122.957031"/>
     <use xlink:href="#DejaVuSans-73" x="2164.070312"/>
     <use xlink:href="#DejaVuSans-20" x="2216.169922"/>
     <use xlink:href="#DejaVuSans-74" x="2247.957031"/>
     <use xlink:href="#DejaVuSans-68" x="2287.166016"/>
     <use xlink:href="#DejaVuSans-61" x="2350.544922"/>
     <use xlink:href="#DejaVuSans-74" x="2411.824219"/>
     <use xlink:href="#DejaVuSans-20" x="2451.033203"/>
     <use xlink:href="#DejaVuSans-66" x="2482.820312"/>
     <use xlink:href="#DejaVuSans-6f" x="2518.025391"/>
     <use xlink:href="#DejaVuSans-6c" x="2579.207031"/>
     <use xlink:href="#DejaVuSans-6c" x="2606.990234"/>
     <use xlink:href="#DejaVuSans-6f" x="2634.773438"/>
     <use xlink:href="#DejaVuSans-77" x="2695.955078"/>
     <use xlink:href="#DejaVuSans-20" x="2777.742188"/>
     <use xlink:href="#DejaVuSans-61" x="2809.529297"/>
     <use xlink:href="#DejaVuSans-74" x="2870.808594"/>
     <use xlink:href="#DejaVuSans-20" x="2910.017578"/>
     <use xlink:href="#DejaVuSans-61" x="2941.804688"/>
     <use xlink:href="#DejaVuSans-20" x="3003.083984"/>
     <use xlink:href="#DejaVuSans-74" x="3034.871094"/>
     <use xlink:href="#DejaVuSans-69" x="3074.080078"/>
     <use xlink:href="#DejaVuSans-6d" x="3101.863281"/>
     <use xlink:href="#DejaVuSans-65" x="3199.275391"/>
     <use xlink:href="#DejaVuSans-20" x="3260.798828"/>
     <use xlink:href="#DejaVuSans-28" x="3292.585938"/>
     <use xlink:href="#DejaVuSans-78" x="3331.599609"/>
     <use xlink:href="#DejaVuSans-2d" x="3390.779297"/>
     <use xlink:href="#DejaVuSans-61" x="3426.863281"/>
     <use xlink:href="#DejaVuSans-78" x="3488.142578"/>
     <use xlink:href="#DejaVuSans-69" x="3547.322266"/>
     <use xlink:href="#DejaVuSans-73" x="3575.105469"/>
     <use xlink:href="#DejaVuSans-29" x="3627.205078"/>
     <use xlink:href="#DejaVuSans-2e" x="3666.21875"/>
    </g>
   </g>
  </g>
 </g>
 <defs>
  <clipPath id="p3eb1545482">
   <rect x="57.6" y="41.472" width="357.12" height="266.112"/>
  </clipPath>
 </defs>
</svg>
