<?xml version="1.0" encoding="utf-8" standalone="no"?>
<!DOCTYPE svg PUBLIC "-//W3C//DTD SVG 1.1//EN"
  "http://www.w3.org/Graphics/SVG/1.1/DTD/svg11.dtd">
<svg xmlns:xlink="http://www.w3.org/1999/xlink" width="460.8pt" height="345.6pt" viewBox="0 0 460.8 345.6" xmlns="http://www.w3.org/2000/svg" version="1.1">
 <metadata>
  <rdf:RDF xmlns:dc="http://purl.org/dc/elements/1.1/" xmlns:cc="http://creativecommons.org/ns#" xmlns:rdf="http://www.w3.org/1999/02/22-rdf-syntax-ns#">
   <cc:Work>
    <dc:type rdf:resource="http://purl.org/dc/dcmitype/StillImage"/>
    <dc:date>2024-03-08T13:28:51.817368</dc:date>
    <dc:format>image/svg+xml</dc:format>
    <dc:creator>
     <cc:Agent>
      <dc:title>Matplotlib v3.8.2, https://matplotlib.org/</dc:title>
     </cc:Agent>
    </dc:creator>
   </cc:Work>
  </rdf:RDF>
 </metadata>
 <defs>
  <style type="text/css">*{stroke-linejoin: round; stroke-linecap: butt}</style>
 </defs>
 <g id="figure_1">
  <g id="patch_1">
   <path d="M 0 345.6 
L 460.8 345.6 
L 460.8 0 
L 0 0 
z
" style="fill: #ffffff"/>
  </g>
  <g id="axes_1">
   <g id="patch_2">
    <path d="M 57.6 307.584 
L 414.72 307.584 
L 414.72 41.472 
L 57.6 41.472 
z
" style="fill: #ffffff"/>
   </g>
   <g id="matplotlib.axis_1">
    <g id="xtick_1">
     <g id="line2d_1">
      <defs>
       <path id="mb7744c6317" d="M 0 0 
L 0 3.5 
" style="stroke: #000000; stroke-width: 0.8"/>
      </defs>
      <g>
       <use xlink:href="#mb7744c6317" x="72.376274" y="307.584" style="stroke: #000000; stroke-width: 0.8"/>
      </g>
     </g>
     <g id="text_1">
      <!-- 0.00 -->
      <g transform="translate(61.243462 322.182437) scale(0.1 -0.1)">
       <defs>
        <path id="DejaVuSans-30" d="M 2034 4250 
Q 1547 4250 1301 3770 
Q 1056 3291 1056 2328 
Q 1056 1369 1301 889 
Q 1547 409 2034 409 
Q 2525 409 2770 889 
Q 3016 1369 3016 2328 
Q 3016 3291 2770 3770 
Q 2525 4250 2034 4250 
z
M 2034 4750 
Q 2819 4750 3233 4129 
Q 3647 3509 3647 2328 
Q 3647 1150 3233 529 
Q 2819 -91 2034 -91 
Q 1250 -91 836 529 
Q 422 1150 422 2328 
Q 422 3509 836 4129 
Q 1250 4750 2034 4750 
z
" transform="scale(0.015625)"/>
        <path id="DejaVuSans-2e" d="M 684 794 
L 1344 794 
L 1344 0 
L 684 0 
L 684 794 
z
" transform="scale(0.015625)"/>
       </defs>
       <use xlink:href="#DejaVuSans-30"/>
       <use xlink:href="#DejaVuSans-2e" x="63.623047"/>
       <use xlink:href="#DejaVuSans-30" x="95.410156"/>
       <use xlink:href="#DejaVuSans-30" x="159.033203"/>
      </g>
     </g>
    </g>
    <g id="xtick_2">
     <g id="line2d_2">
      <g>
       <use xlink:href="#mb7744c6317" x="119.725201" y="307.584" style="stroke: #000000; stroke-width: 0.8"/>
      </g>
     </g>
     <g id="text_2">
      <!-- 0.25 -->
      <g transform="translate(108.592389 322.182437) scale(0.1 -0.1)">
       <defs>
        <path id="DejaVuSans-32" d="M 1228 531 
L 3431 531 
L 3431 0 
L 469 0 
L 469 531 
Q 828 903 1448 1529 
Q 2069 2156 2228 2338 
Q 2531 2678 2651 2914 
Q 2772 3150 2772 3378 
Q 2772 3750 2511 3984 
Q 2250 4219 1831 4219 
Q 1534 4219 1204 4116 
Q 875 4013 500 3803 
L 500 4441 
Q 881 4594 1212 4672 
Q 1544 4750 1819 4750 
Q 2544 4750 2975 4387 
Q 3406 4025 3406 3419 
Q 3406 3131 3298 2873 
Q 3191 2616 2906 2266 
Q 2828 2175 2409 1742 
Q 1991 1309 1228 531 
z
" transform="scale(0.015625)"/>
        <path id="DejaVuSans-35" d="M 691 4666 
L 3169 4666 
L 3169 4134 
L 1269 4134 
L 1269 2991 
Q 1406 3038 1543 3061 
Q 1681 3084 1819 3084 
Q 2600 3084 3056 2656 
Q 3513 2228 3513 1497 
Q 3513 744 3044 326 
Q 2575 -91 1722 -91 
Q 1428 -91 1123 -41 
Q 819 9 494 109 
L 494 744 
Q 775 591 1075 516 
Q 1375 441 1709 441 
Q 2250 441 2565 725 
Q 2881 1009 2881 1497 
Q 2881 1984 2565 2268 
Q 2250 2553 1709 2553 
Q 1456 2553 1204 2497 
Q 953 2441 691 2322 
L 691 4666 
z
" transform="scale(0.015625)"/>
       </defs>
       <use xlink:href="#DejaVuSans-30"/>
       <use xlink:href="#DejaVuSans-2e" x="63.623047"/>
       <use xlink:href="#DejaVuSans-32" x="95.410156"/>
       <use xlink:href="#DejaVuSans-35" x="159.033203"/>
      </g>
     </g>
    </g>
    <g id="xtick_3">
     <g id="line2d_3">
      <g>
       <use xlink:href="#mb7744c6317" x="167.074128" y="307.584" style="stroke: #000000; stroke-width: 0.8"/>
      </g>
     </g>
     <g id="text_3">
      <!-- 0.50 -->
      <g transform="translate(155.941315 322.182437) scale(0.1 -0.1)">
       <use xlink:href="#DejaVuSans-30"/>
       <use xlink:href="#DejaVuSans-2e" x="63.623047"/>
       <use xlink:href="#DejaVuSans-35" x="95.410156"/>
       <use xlink:href="#DejaVuSans-30" x="159.033203"/>
      </g>
     </g>
    </g>
    <g id="xtick_4">
     <g id="line2d_4">
      <g>
       <use xlink:href="#mb7744c6317" x="214.423055" y="307.584" style="stroke: #000000; stroke-width: 0.8"/>
      </g>
     </g>
     <g id="text_4">
      <!-- 0.75 -->
      <g transform="translate(203.290242 322.182437) scale(0.1 -0.1)">
       <defs>
        <path id="DejaVuSans-37" d="M 525 4666 
L 3525 4666 
L 3525 4397 
L 1831 0 
L 1172 0 
L 2766 4134 
L 525 4134 
L 525 4666 
z
" transform="scale(0.015625)"/>
       </defs>
       <use xlink:href="#DejaVuSans-30"/>
       <use xlink:href="#DejaVuSans-2e" x="63.623047"/>
       <use xlink:href="#DejaVuSans-37" x="95.410156"/>
       <use xlink:href="#DejaVuSans-35" x="159.033203"/>
      </g>
     </g>
    </g>
    <g id="xtick_5">
     <g id="line2d_5">
      <g>
       <use xlink:href="#mb7744c6317" x="261.771981" y="307.584" style="stroke: #000000; stroke-width: 0.8"/>
      </g>
     </g>
     <g id="text_5">
      <!-- 1.00 -->
      <g transform="translate(250.639169 322.182437) scale(0.1 -0.1)">
       <defs>
        <path id="DejaVuSans-31" d="M 794 531 
L 1825 531 
L 1825 4091 
L 703 3866 
L 703 4441 
L 1819 4666 
L 2450 4666 
L 2450 531 
L 3481 531 
L 3481 0 
L 794 0 
L 794 531 
z
" transform="scale(0.015625)"/>
       </defs>
       <use xlink:href="#DejaVuSans-31"/>
       <use xlink:href="#DejaVuSans-2e" x="63.623047"/>
       <use xlink:href="#DejaVuSans-30" x="95.410156"/>
       <use xlink:href="#DejaVuSans-30" x="159.033203"/>
      </g>
     </g>
    </g>
    <g id="xtick_6">
     <g id="line2d_6">
      <g>
       <use xlink:href="#mb7744c6317" x="309.120908" y="307.584" style="stroke: #000000; stroke-width: 0.8"/>
      </g>
     </g>
     <g id="text_6">
      <!-- 1.25 -->
      <g transform="translate(297.988096 322.182437) scale(0.1 -0.1)">
       <use xlink:href="#DejaVuSans-31"/>
       <use xlink:href="#DejaVuSans-2e" x="63.623047"/>
       <use xlink:href="#DejaVuSans-32" x="95.410156"/>
       <use xlink:href="#DejaVuSans-35" x="159.033203"/>
      </g>
     </g>
    </g>
    <g id="xtick_7">
     <g id="line2d_7">
      <g>
       <use xlink:href="#mb7744c6317" x="356.469835" y="307.584" style="stroke: #000000; stroke-width: 0.8"/>
      </g>
     </g>
     <g id="text_7">
      <!-- 1.50 -->
      <g transform="translate(345.337023 322.182437) scale(0.1 -0.1)">
       <use xlink:href="#DejaVuSans-31"/>
       <use xlink:href="#DejaVuSans-2e" x="63.623047"/>
       <use xlink:href="#DejaVuSans-35" x="95.410156"/>
       <use xlink:href="#DejaVuSans-30" x="159.033203"/>
      </g>
     </g>
    </g>
    <g id="xtick_8">
     <g id="line2d_8">
      <g>
       <use xlink:href="#mb7744c6317" x="403.818762" y="307.584" style="stroke: #000000; stroke-width: 0.8"/>
      </g>
     </g>
     <g id="text_8">
      <!-- 1.75 -->
      <g transform="translate(392.685949 322.182437) scale(0.1 -0.1)">
       <use xlink:href="#DejaVuSans-31"/>
       <use xlink:href="#DejaVuSans-2e" x="63.623047"/>
       <use xlink:href="#DejaVuSans-37" x="95.410156"/>
       <use xlink:href="#DejaVuSans-35" x="159.033203"/>
      </g>
     </g>
    </g>
    <g id="text_9">
     <!-- 1e6 -->
     <g transform="translate(395.841875 334.860562) scale(0.1 -0.1)">
      <defs>
       <path id="DejaVuSans-65" d="M 3597 1894 
L 3597 1613 
L 953 1613 
Q 991 1019 1311 708 
Q 1631 397 2203 397 
Q 2534 397 2845 478 
Q 3156 559 3463 722 
L 3463 178 
Q 3153 47 2828 -22 
Q 2503 -91 2169 -91 
Q 1331 -91 842 396 
Q 353 884 353 1716 
Q 353 2575 817 3079 
Q 1281 3584 2069 3584 
Q 2775 3584 3186 3129 
Q 3597 2675 3597 1894 
z
M 3022 2063 
Q 3016 2534 2758 2815 
Q 2500 3097 2075 3097 
Q 1594 3097 1305 2825 
Q 1016 2553 972 2059 
L 3022 2063 
z
" transform="scale(0.015625)"/>
       <path id="DejaVuSans-36" d="M 2113 2584 
Q 1688 2584 1439 2293 
Q 1191 2003 1191 1497 
Q 1191 994 1439 701 
Q 1688 409 2113 409 
Q 2538 409 2786 701 
Q 3034 994 3034 1497 
Q 3034 2003 2786 2293 
Q 2538 2584 2113 2584 
z
M 3366 4563 
L 3366 3988 
Q 3128 4100 2886 4159 
Q 2644 4219 2406 4219 
Q 1781 4219 1451 3797 
Q 1122 3375 1075 2522 
Q 1259 2794 1537 2939 
Q 1816 3084 2150 3084 
Q 2853 3084 3261 2657 
Q 3669 2231 3669 1497 
Q 3669 778 3244 343 
Q 2819 -91 2113 -91 
Q 1303 -91 875 529 
Q 447 1150 447 2328 
Q 447 3434 972 4092 
Q 1497 4750 2381 4750 
Q 2619 4750 2861 4703 
Q 3103 4656 3366 4563 
z
" transform="scale(0.015625)"/>
      </defs>
      <use xlink:href="#DejaVuSans-31"/>
      <use xlink:href="#DejaVuSans-65" x="63.623047"/>
      <use xlink:href="#DejaVuSans-36" x="125.146484"/>
     </g>
    </g>
   </g>
   <g id="matplotlib.axis_2">
    <g id="ytick_1">
     <g id="line2d_9">
      <defs>
       <path id="mdfd8c50e26" d="M 0 0 
L -3.5 0 
" style="stroke: #000000; stroke-width: 0.8"/>
      </defs>
      <g>
       <use xlink:href="#mdfd8c50e26" x="57.6" y="295.488" style="stroke: #000000; stroke-width: 0.8"/>
      </g>
     </g>
     <g id="text_10">
      <!-- 0 -->
      <g transform="translate(44.2375 299.287219) scale(0.1 -0.1)">
       <use xlink:href="#DejaVuSans-30"/>
      </g>
     </g>
    </g>
    <g id="ytick_2">
     <g id="line2d_10">
      <g>
       <use xlink:href="#mdfd8c50e26" x="57.6" y="251.502545" style="stroke: #000000; stroke-width: 0.8"/>
      </g>
     </g>
     <g id="text_11">
      <!-- 10 -->
      <g transform="translate(37.875 255.301764) scale(0.1 -0.1)">
       <use xlink:href="#DejaVuSans-31"/>
       <use xlink:href="#DejaVuSans-30" x="63.623047"/>
      </g>
     </g>
    </g>
    <g id="ytick_3">
     <g id="line2d_11">
      <g>
       <use xlink:href="#mdfd8c50e26" x="57.6" y="207.517091" style="stroke: #000000; stroke-width: 0.8"/>
      </g>
     </g>
     <g id="text_12">
      <!-- 20 -->
      <g transform="translate(37.875 211.31631) scale(0.1 -0.1)">
       <use xlink:href="#DejaVuSans-32"/>
       <use xlink:href="#DejaVuSans-30" x="63.623047"/>
      </g>
     </g>
    </g>
    <g id="ytick_4">
     <g id="line2d_12">
      <g>
       <use xlink:href="#mdfd8c50e26" x="57.6" y="163.531636" style="stroke: #000000; stroke-width: 0.8"/>
      </g>
     </g>
     <g id="text_13">
      <!-- 30 -->
      <g transform="translate(37.875 167.330855) scale(0.1 -0.1)">
       <defs>
        <path id="DejaVuSans-33" d="M 2597 2516 
Q 3050 2419 3304 2112 
Q 3559 1806 3559 1356 
Q 3559 666 3084 287 
Q 2609 -91 1734 -91 
Q 1441 -91 1130 -33 
Q 819 25 488 141 
L 488 750 
Q 750 597 1062 519 
Q 1375 441 1716 441 
Q 2309 441 2620 675 
Q 2931 909 2931 1356 
Q 2931 1769 2642 2001 
Q 2353 2234 1838 2234 
L 1294 2234 
L 1294 2753 
L 1863 2753 
Q 2328 2753 2575 2939 
Q 2822 3125 2822 3475 
Q 2822 3834 2567 4026 
Q 2313 4219 1838 4219 
Q 1578 4219 1281 4162 
Q 984 4106 628 3988 
L 628 4550 
Q 988 4650 1302 4700 
Q 1616 4750 1894 4750 
Q 2613 4750 3031 4423 
Q 3450 4097 3450 3541 
Q 3450 3153 3228 2886 
Q 3006 2619 2597 2516 
z
" transform="scale(0.015625)"/>
       </defs>
       <use xlink:href="#DejaVuSans-33"/>
       <use xlink:href="#DejaVuSans-30" x="63.623047"/>
      </g>
     </g>
    </g>
    <g id="ytick_5">
     <g id="line2d_13">
      <g>
       <use xlink:href="#mdfd8c50e26" x="57.6" y="119.546182" style="stroke: #000000; stroke-width: 0.8"/>
      </g>
     </g>
     <g id="text_14">
      <!-- 40 -->
      <g transform="translate(37.875 123.345401) scale(0.1 -0.1)">
       <defs>
        <path id="DejaVuSans-34" d="M 2419 4116 
L 825 1625 
L 2419 1625 
L 2419 4116 
z
M 2253 4666 
L 3047 4666 
L 3047 1625 
L 3713 1625 
L 3713 1100 
L 3047 1100 
L 3047 0 
L 2419 0 
L 2419 1100 
L 313 1100 
L 313 1709 
L 2253 4666 
z
" transform="scale(0.015625)"/>
       </defs>
       <use xlink:href="#DejaVuSans-34"/>
       <use xlink:href="#DejaVuSans-30" x="63.623047"/>
      </g>
     </g>
    </g>
    <g id="ytick_6">
     <g id="line2d_14">
      <g>
       <use xlink:href="#mdfd8c50e26" x="57.6" y="75.560727" style="stroke: #000000; stroke-width: 0.8"/>
      </g>
     </g>
     <g id="text_15">
      <!-- 50 -->
      <g transform="translate(37.875 79.359946) scale(0.1 -0.1)">
       <use xlink:href="#DejaVuSans-35"/>
       <use xlink:href="#DejaVuSans-30" x="63.623047"/>
      </g>
     </g>
    </g>
   </g>
   <g id="line2d_15">
    <path d="M 73.832727 291.089455 
L 76.489949 273.495273 
L 76.912301 277.893818 
L 77.149046 273.495273 
L 77.573292 277.893818 
L 77.808143 273.495273 
L 78.23239 277.893818 
L 78.465346 273.495273 
L 78.893381 277.893818 
L 79.139595 273.495273 
L 79.567629 277.893818 
L 79.806268 273.495273 
L 80.22862 277.893818 
L 80.471047 273.495273 
L 80.885823 277.893818 
L 81.135826 273.495273 
L 81.54492 277.893818 
L 81.804393 273.495273 
L 82.217275 277.893818 
L 82.474853 273.495273 
L 82.885842 277.893818 
L 83.145314 273.495273 
L 83.548727 277.893818 
L 83.798729 273.495273 
L 84.213506 277.893818 
L 86.87641 295.488 
L 95.969298 291.089455 
L 96.493924 251.502545 
L 97.715526 242.705455 
L 99.031826 233.908364 
L 99.162509 247.104 
L 99.571604 277.893818 
L 99.700393 273.495273 
L 100.147367 277.893818 
L 100.361384 273.495273 
L 100.793206 277.893818 
L 101.022375 273.495273 
L 101.456091 277.893818 
L 101.69473 273.495273 
L 102.109506 277.893818 
L 102.346251 273.495273 
L 102.778073 277.893818 
L 103.009136 273.495273 
L 103.439064 277.893818 
L 103.658763 273.495273 
L 104.101949 277.893818 
L 104.31786 273.495273 
L 104.77241 277.893818 
L 104.990215 273.495273 
L 105.425825 277.893818 
L 105.641736 273.495273 
L 106.086816 277.893818 
L 106.295151 273.495273 
L 106.736443 277.893818 
L 106.967506 273.495273 
L 107.395541 277.893818 
L 107.637967 273.495273 
L 108.067895 277.893818 
L 108.310322 273.495273 
L 108.719417 277.893818 
L 108.956161 273.495273 
L 109.372832 277.893818 
L 109.634198 273.495273 
L 110.045186 277.893818 
L 110.293295 273.495273 
L 110.715647 277.893818 
L 110.971331 273.495273 
L 111.388002 277.893818 
L 111.630429 273.495273 
L 112.033841 277.893818 
L 112.285738 273.495273 
L 112.711878 277.893818 
L 112.937259 273.495273 
L 113.370975 277.893818 
L 113.596356 273.495273 
L 114.049012 277.893818 
L 114.257347 273.495273 
L 114.708109 277.893818 
L 114.910762 273.495273 
L 115.363418 277.893818 
L 115.569859 273.495273 
L 116.016833 277.893818 
L 116.24032 273.495273 
L 116.67593 277.893818 
L 116.908887 273.495273 
L 117.336921 277.893818 
L 117.56609 273.495273 
L 117.988442 277.893818 
L 118.225187 273.495273 
L 118.649433 277.893818 
L 118.886178 273.495273 
L 119.318 277.893818 
L 119.554745 273.495273 
L 119.986567 277.893818 
L 120.211948 273.495273 
L 120.64377 277.893818 
L 120.878621 273.495273 
L 121.302867 277.893818 
L 121.550976 273.495273 
L 121.963858 277.893818 
L 122.202497 273.495273 
L 122.632425 277.893818 
L 122.857806 273.495273 
L 123.289628 277.893818 
L 123.520691 273.495273 
L 123.956301 277.893818 
L 124.628656 282.292364 
L 124.842673 277.893818 
L 125.280177 282.292364 
L 125.490406 277.893818 
L 125.93738 282.292364 
L 126.168443 277.893818 
L 126.598371 282.292364 
L 126.844586 277.893818 
L 127.518834 273.495273 
L 127.920353 277.893818 
L 128.193083 273.495273 
L 128.568087 277.893818 
L 128.850286 273.495273 
L 129.246123 277.893818 
L 129.513171 273.495273 
L 129.922266 277.893818 
L 130.18742 273.495273 
L 130.596515 277.893818 
L 130.852199 273.495273 
L 131.270763 277.893818 
L 131.51319 273.495273 
L 131.927966 277.893818 
L 132.170393 273.495273 
L 132.592745 277.893818 
L 132.835172 273.495273 
L 133.2651 277.893818 
L 133.513209 273.495273 
L 133.931773 277.893818 
L 134.1742 273.495273 
L 134.59087 277.893818 
L 134.837085 273.495273 
L 135.248073 277.893818 
L 135.49997 273.495273 
L 135.914746 277.893818 
L 136.166642 273.495273 
L 136.592783 277.893818 
L 136.827633 273.495273 
L 137.25188 277.893818 
L 137.498094 273.495273 
L 137.914765 277.893818 
L 138.159085 273.495273 
L 138.57765 277.893818 
L 138.810606 273.495273 
L 139.244323 277.893818 
L 139.477279 273.495273 
L 139.907208 277.893818 
L 140.143952 273.495273 
L 140.575774 277.893818 
L 140.803049 273.495273 
L 141.238659 277.893818 
L 141.446995 273.495273 
L 141.888287 277.893818 
L 142.115562 273.495273 
L 142.556854 277.893818 
L 142.770871 273.495273 
L 143.221633 277.893818 
L 143.433756 273.495273 
L 143.88073 277.893818 
L 144.102323 273.495273 
L 144.526569 277.893818 
L 144.76142 273.495273 
L 145.193242 277.893818 
L 145.429986 273.495273 
L 145.848551 277.893818 
L 146.085296 273.495273 
L 146.511436 277.893818 
L 146.740605 273.495273 
L 147.180003 277.893818 
L 147.392126 273.495273 
L 147.840994 277.893818 
L 148.053117 273.495273 
L 148.507667 277.893818 
L 148.71032 273.495273 
L 149.16487 277.893818 
L 149.371311 273.495273 
L 149.818285 277.893818 
L 150.039878 273.495273 
L 150.4717 277.893818 
L 153.117558 295.488 
L 153.714155 291.089455 
L 156.541833 264.698182 
L 156.797517 269.096727 
L 157.011534 264.698182 
L 157.271006 269.096727 
L 157.488811 264.698182 
L 157.731238 269.096727 
L 157.958512 264.698182 
L 158.200939 269.096727 
L 158.430108 264.698182 
L 158.67064 269.096727 
L 158.907385 264.698182 
L 159.147918 269.096727 
L 159.380874 264.698182 
L 159.625195 269.096727 
L 159.867621 264.698182 
L 160.094896 269.096727 
L 160.34111 264.698182 
L 160.570279 269.096727 
L 160.8146 264.698182 
L 161.039981 269.096727 
L 161.286195 264.698182 
L 161.51347 269.096727 
L 161.750215 264.698182 
L 161.990747 269.096727 
L 162.23128 264.698182 
L 162.464236 269.096727 
L 162.697193 264.698182 
L 162.949089 269.096727 
L 163.18394 264.698182 
L 186.02885 260.299636 
L 186.439839 203.118545 
L 186.625447 207.517091 
L 186.845146 203.118545 
L 187.365984 132.741818 
L 187.561062 137.140364 
L 187.864095 132.741818 
L 188.040233 137.140364 
L 188.324326 132.741818 
L 188.506146 137.140364 
L 188.794028 132.741818 
L 189.112212 141.538909 
L 189.521307 198.72 
L 189.75237 194.321455 
L 189.928508 198.72 
L 190.098964 225.111273 
L 190.235329 220.712727 
L 190.716394 216.314182 
L 190.902002 220.712727 
L 190.985336 233.908364 
L 191.184201 229.509818 
L 191.652009 225.111273 
L 191.941784 229.509818 
L 192.027012 242.705455 
L 192.125498 238.306909 
L 192.589518 233.908364 
L 193.023234 238.306909 
L 193.110356 247.104 
L 193.545966 242.705455 
L 194.011879 247.104 
L 194.015667 242.705455 
L 194.097107 255.901091 
L 194.96454 247.104 
L 195.106587 264.698182 
L 195.439923 260.299636 
L 195.911518 255.901091 
L 196.074399 264.698182 
L 196.142581 269.096727 
L 196.388795 264.698182 
L 196.627434 269.096727 
L 196.860391 264.698182 
L 197.136908 269.096727 
L 197.335774 264.698182 
L 220.120078 260.299636 
L 220.529172 203.118545 
L 220.775387 207.517091 
L 220.936373 203.118545 
L 221.237512 154.734545 
L 221.248876 159.133091 
L 221.32274 145.937455 
L 221.474257 123.944727 
L 221.722365 128.343273 
L 222.000777 123.944727 
L 222.199642 128.343273 
L 222.468584 123.944727 
L 222.671238 128.343273 
L 222.934498 123.944727 
L 223.144727 128.343273 
L 223.290562 145.937455 
L 223.612534 189.922909 
L 223.870113 185.524364 
L 224.019735 189.922909 
L 224.123903 207.517091 
L 224.341708 203.118545 
L 224.705348 207.517091 
L 224.788682 220.712727 
L 224.822773 216.314182 
L 225.756494 207.517091 
L 225.879601 220.712727 
L 225.934526 229.509818 
L 226.220513 225.111273 
L 226.695897 220.712727 
L 226.885292 225.111273 
L 226.97052 238.306909 
L 227.169386 233.908364 
L 227.637193 229.509818 
L 227.926969 233.908364 
L 227.983787 242.705455 
L 228.108788 238.306909 
L 228.580384 233.908364 
L 228.930766 238.306909 
L 229.015994 251.502545 
L 229.051979 247.104 
L 229.52168 242.705455 
L 229.978124 247.104 
L 229.99517 242.705455 
L 230.033049 251.502545 
L 230.061458 255.901091 
L 230.932678 247.104 
L 231.070937 255.901091 
L 231.13912 264.698182 
L 231.413744 260.299636 
L 242.847562 255.901091 
L 242.86082 260.299636 
L 242.904381 251.502545 
L 243.256657 203.118545 
L 243.499084 207.517091 
L 243.690373 198.72 
L 243.968785 203.118545 
L 244.163863 198.72 
L 244.44038 203.118545 
L 244.629776 198.72 
L 244.906294 203.118545 
L 245.105159 198.72 
L 245.379783 203.118545 
L 245.590012 198.72 
L 245.860848 203.118545 
L 245.987743 216.314182 
L 246.338125 264.698182 
L 246.542673 260.299636 
L 246.773735 269.096727 
L 247.016162 264.698182 
L 247.247225 269.096727 
L 247.482075 264.698182 
L 247.713138 269.096727 
L 247.96314 264.698182 
L 248.186627 269.096727 
L 248.438524 264.698182 
L 248.673374 269.096727 
L 248.921483 264.698182 
L 249.141182 269.096727 
L 249.385502 264.698182 
L 249.626035 269.096727 
L 249.855204 264.698182 
L 250.099524 269.096727 
L 250.330587 264.698182 
L 250.565437 269.096727 
L 251.044609 273.495273 
L 251.281353 269.096727 
L 251.521886 273.495273 
L 251.751055 269.096727 
L 252.002951 273.495273 
L 252.228332 269.096727 
L 252.468864 273.495273 
L 252.696139 269.096727 
L 252.938566 273.495273 
L 253.171522 269.096727 
L 253.412055 273.495273 
L 253.646906 269.096727 
L 254.120395 264.698182 
L 265.586411 260.299636 
L 265.728458 264.698182 
L 266.196265 269.096727 
L 266.431116 264.698182 
L 266.675436 269.096727 
L 266.904605 264.698182 
L 267.368625 198.72 
L 267.618627 203.118545 
L 267.847796 198.72 
L 268.09401 203.118545 
L 268.328861 198.72 
L 268.565606 203.118545 
L 268.669773 207.517091 
L 268.798562 203.118545 
L 269.272051 198.72 
L 269.512584 203.118545 
L 269.745541 198.72 
L 269.987967 203.118545 
L 270.451987 269.096727 
L 270.686837 264.698182 
L 270.931158 269.096727 
L 271.158433 264.698182 
L 271.410329 269.096727 
L 271.628134 264.698182 
L 271.881924 269.096727 
L 272.107305 264.698182 
L 272.355414 269.096727 
L 272.580794 264.698182 
L 272.828903 269.096727 
L 273.046708 264.698182 
L 273.292922 269.096727 
L 273.531561 264.698182 
L 273.7702 269.096727 
L 273.999368 264.698182 
L 274.239901 269.096727 
L 274.470964 264.698182 
L 274.711496 269.096727 
L 274.948241 264.698182 
L 275.190667 269.096727 
L 275.414154 264.698182 
L 275.664157 269.096727 
L 275.893325 264.698182 
L 276.128176 269.096727 
L 276.364921 264.698182 
L 276.613029 269.096727 
L 276.832728 264.698182 
L 277.08273 269.096727 
L 277.310005 264.698182 
L 277.554326 269.096727 
L 277.777813 264.698182 
L 278.031603 269.096727 
L 278.249408 264.698182 
L 278.497516 269.096727 
L 278.713427 264.698182 
L 278.976688 269.096727 
L 279.185023 264.698182 
L 279.446389 269.096727 
L 279.654724 264.698182 
L 279.914196 269.096727 
L 280.124426 264.698182 
L 280.393367 269.096727 
L 280.592233 264.698182 
L 280.859281 269.096727 
L 281.067616 264.698182 
L 281.33277 269.096727 
L 281.53353 264.698182 
L 281.794896 269.096727 
L 282.016489 264.698182 
L 282.266491 269.096727 
L 282.48619 264.698182 
L 282.738086 269.096727 
L 282.961573 264.698182 
L 283.205894 269.096727 
L 283.446426 264.698182 
L 283.675595 269.096727 
L 283.914234 264.698182 
L 284.149084 269.096727 
L 284.385829 264.698182 
L 284.614998 269.096727 
L 284.849848 264.698182 
L 285.099851 269.096727 
L 285.313868 264.698182 
L 285.569552 269.096727 
L 285.785463 264.698182 
L 286.043041 269.096727 
L 286.264634 264.698182 
L 286.529788 269.096727 
L 286.728654 264.698182 
L 286.997596 269.096727 
L 287.198355 264.698182 
L 287.469191 269.096727 
L 287.683208 264.698182 
L 287.933211 269.096727 
L 288.151016 264.698182 
L 288.39723 269.096727 
L 288.630187 264.698182 
L 288.868825 269.096727 
L 289.097994 264.698182 
L 289.346102 269.096727 
L 289.580953 264.698182 
L 289.812016 269.096727 
L 290.056336 264.698182 
L 290.279823 269.096727 
L 290.526038 264.698182 
L 290.76657 269.096727 
L 291.008997 264.698182 
L 291.234378 269.096727 
L 291.478698 264.698182 
L 291.711655 269.096727 
L 291.950293 264.698182 
L 292.179462 269.096727 
L 292.419995 264.698182 
L 292.662421 269.096727 
L 292.895378 264.698182 
L 293.137805 269.096727 
L 293.363185 264.698182 
L 293.6094 269.096727 
L 293.848038 264.698182 
L 294.092359 269.096727 
L 294.312058 264.698182 
L 294.560166 269.096727 
L 294.787441 264.698182 
L 295.031762 269.096727 
L 295.264718 264.698182 
L 295.503357 269.096727 
L 295.745783 264.698182 
L 295.97874 269.096727 
L 296.211697 264.698182 
L 296.444654 269.096727 
L 299.295059 295.488 
L 299.69279 291.089455 
L 302.772364 295.488 
L 333.763184 291.089455 
L 334.119248 264.698182 
L 336.842758 269.096727 
L 337.196928 295.488 
L 356.903551 291.089455 
L 357.335373 286.690909 
L 357.86 247.104 
L 359.259634 238.306909 
L 359.930095 233.908364 
L 359.981231 238.306909 
L 360.414948 242.705455 
L 360.867603 273.495273 
L 361.27291 269.096727 
L 367.276754 229.509818 
L 379.242775 225.111273 
L 379.581793 220.712727 
L 379.937857 194.321455 
L 380.358316 189.922909 
L 380.600742 172.328727 
L 383.900015 150.336 
L 398.487273 53.568 
L 398.487273 53.568 
" clip-path="url(#p20d0bff156)" style="fill: none; stroke: #1f77b4; stroke-width: 1.5; stroke-linecap: square"/>
   </g>
   <g id="patch_3">
    <path d="M 57.6 307.584 
L 57.6 41.472 
" style="fill: none; stroke: #000000; stroke-width: 0.8; stroke-linejoin: miter; stroke-linecap: square"/>
   </g>
   <g id="patch_4">
    <path d="M 414.72 307.584 
L 414.72 41.472 
" style="fill: none; stroke: #000000; stroke-width: 0.8; stroke-linejoin: miter; stroke-linecap: square"/>
   </g>
   <g id="patch_5">
    <path d="M 57.6 307.584 
L 414.72 307.584 
" style="fill: none; stroke: #000000; stroke-width: 0.8; stroke-linejoin: miter; stroke-linecap: square"/>
   </g>
   <g id="patch_6">
    <path d="M 57.6 41.472 
L 414.72 41.472 
" style="fill: none; stroke: #000000; stroke-width: 0.8; stroke-linejoin: miter; stroke-linecap: square"/>
   </g>
   <g id="text_16">
    <!-- Queue size (y-axis) between S4 and sensors that follow at a time (x-axis). -->
    <g transform="translate(14.282813 35.472) scale(0.12 -0.12)">
     <defs>
      <path id="DejaVuSans-51" d="M 2522 4238 
Q 1834 4238 1429 3725 
Q 1025 3213 1025 2328 
Q 1025 1447 1429 934 
Q 1834 422 2522 422 
Q 3209 422 3611 934 
Q 4013 1447 4013 2328 
Q 4013 3213 3611 3725 
Q 3209 4238 2522 4238 
z
M 3406 84 
L 4238 -825 
L 3475 -825 
L 2784 -78 
Q 2681 -84 2626 -87 
Q 2572 -91 2522 -91 
Q 1538 -91 948 567 
Q 359 1225 359 2328 
Q 359 3434 948 4092 
Q 1538 4750 2522 4750 
Q 3503 4750 4090 4092 
Q 4678 3434 4678 2328 
Q 4678 1516 4351 937 
Q 4025 359 3406 84 
z
" transform="scale(0.015625)"/>
      <path id="DejaVuSans-75" d="M 544 1381 
L 544 3500 
L 1119 3500 
L 1119 1403 
Q 1119 906 1312 657 
Q 1506 409 1894 409 
Q 2359 409 2629 706 
Q 2900 1003 2900 1516 
L 2900 3500 
L 3475 3500 
L 3475 0 
L 2900 0 
L 2900 538 
Q 2691 219 2414 64 
Q 2138 -91 1772 -91 
Q 1169 -91 856 284 
Q 544 659 544 1381 
z
M 1991 3584 
L 1991 3584 
z
" transform="scale(0.015625)"/>
      <path id="DejaVuSans-20" transform="scale(0.015625)"/>
      <path id="DejaVuSans-73" d="M 2834 3397 
L 2834 2853 
Q 2591 2978 2328 3040 
Q 2066 3103 1784 3103 
Q 1356 3103 1142 2972 
Q 928 2841 928 2578 
Q 928 2378 1081 2264 
Q 1234 2150 1697 2047 
L 1894 2003 
Q 2506 1872 2764 1633 
Q 3022 1394 3022 966 
Q 3022 478 2636 193 
Q 2250 -91 1575 -91 
Q 1294 -91 989 -36 
Q 684 19 347 128 
L 347 722 
Q 666 556 975 473 
Q 1284 391 1588 391 
Q 1994 391 2212 530 
Q 2431 669 2431 922 
Q 2431 1156 2273 1281 
Q 2116 1406 1581 1522 
L 1381 1569 
Q 847 1681 609 1914 
Q 372 2147 372 2553 
Q 372 3047 722 3315 
Q 1072 3584 1716 3584 
Q 2034 3584 2315 3537 
Q 2597 3491 2834 3397 
z
" transform="scale(0.015625)"/>
      <path id="DejaVuSans-69" d="M 603 3500 
L 1178 3500 
L 1178 0 
L 603 0 
L 603 3500 
z
M 603 4863 
L 1178 4863 
L 1178 4134 
L 603 4134 
L 603 4863 
z
" transform="scale(0.015625)"/>
      <path id="DejaVuSans-7a" d="M 353 3500 
L 3084 3500 
L 3084 2975 
L 922 459 
L 3084 459 
L 3084 0 
L 275 0 
L 275 525 
L 2438 3041 
L 353 3041 
L 353 3500 
z
" transform="scale(0.015625)"/>
      <path id="DejaVuSans-28" d="M 1984 4856 
Q 1566 4138 1362 3434 
Q 1159 2731 1159 2009 
Q 1159 1288 1364 580 
Q 1569 -128 1984 -844 
L 1484 -844 
Q 1016 -109 783 600 
Q 550 1309 550 2009 
Q 550 2706 781 3412 
Q 1013 4119 1484 4856 
L 1984 4856 
z
" transform="scale(0.015625)"/>
      <path id="DejaVuSans-79" d="M 2059 -325 
Q 1816 -950 1584 -1140 
Q 1353 -1331 966 -1331 
L 506 -1331 
L 506 -850 
L 844 -850 
Q 1081 -850 1212 -737 
Q 1344 -625 1503 -206 
L 1606 56 
L 191 3500 
L 800 3500 
L 1894 763 
L 2988 3500 
L 3597 3500 
L 2059 -325 
z
" transform="scale(0.015625)"/>
      <path id="DejaVuSans-2d" d="M 313 2009 
L 1997 2009 
L 1997 1497 
L 313 1497 
L 313 2009 
z
" transform="scale(0.015625)"/>
      <path id="DejaVuSans-61" d="M 2194 1759 
Q 1497 1759 1228 1600 
Q 959 1441 959 1056 
Q 959 750 1161 570 
Q 1363 391 1709 391 
Q 2188 391 2477 730 
Q 2766 1069 2766 1631 
L 2766 1759 
L 2194 1759 
z
M 3341 1997 
L 3341 0 
L 2766 0 
L 2766 531 
Q 2569 213 2275 61 
Q 1981 -91 1556 -91 
Q 1019 -91 701 211 
Q 384 513 384 1019 
Q 384 1609 779 1909 
Q 1175 2209 1959 2209 
L 2766 2209 
L 2766 2266 
Q 2766 2663 2505 2880 
Q 2244 3097 1772 3097 
Q 1472 3097 1187 3025 
Q 903 2953 641 2809 
L 641 3341 
Q 956 3463 1253 3523 
Q 1550 3584 1831 3584 
Q 2591 3584 2966 3190 
Q 3341 2797 3341 1997 
z
" transform="scale(0.015625)"/>
      <path id="DejaVuSans-78" d="M 3513 3500 
L 2247 1797 
L 3578 0 
L 2900 0 
L 1881 1375 
L 863 0 
L 184 0 
L 1544 1831 
L 300 3500 
L 978 3500 
L 1906 2253 
L 2834 3500 
L 3513 3500 
z
" transform="scale(0.015625)"/>
      <path id="DejaVuSans-29" d="M 513 4856 
L 1013 4856 
Q 1481 4119 1714 3412 
Q 1947 2706 1947 2009 
Q 1947 1309 1714 600 
Q 1481 -109 1013 -844 
L 513 -844 
Q 928 -128 1133 580 
Q 1338 1288 1338 2009 
Q 1338 2731 1133 3434 
Q 928 4138 513 4856 
z
" transform="scale(0.015625)"/>
      <path id="DejaVuSans-62" d="M 3116 1747 
Q 3116 2381 2855 2742 
Q 2594 3103 2138 3103 
Q 1681 3103 1420 2742 
Q 1159 2381 1159 1747 
Q 1159 1113 1420 752 
Q 1681 391 2138 391 
Q 2594 391 2855 752 
Q 3116 1113 3116 1747 
z
M 1159 2969 
Q 1341 3281 1617 3432 
Q 1894 3584 2278 3584 
Q 2916 3584 3314 3078 
Q 3713 2572 3713 1747 
Q 3713 922 3314 415 
Q 2916 -91 2278 -91 
Q 1894 -91 1617 61 
Q 1341 213 1159 525 
L 1159 0 
L 581 0 
L 581 4863 
L 1159 4863 
L 1159 2969 
z
" transform="scale(0.015625)"/>
      <path id="DejaVuSans-74" d="M 1172 4494 
L 1172 3500 
L 2356 3500 
L 2356 3053 
L 1172 3053 
L 1172 1153 
Q 1172 725 1289 603 
Q 1406 481 1766 481 
L 2356 481 
L 2356 0 
L 1766 0 
Q 1100 0 847 248 
Q 594 497 594 1153 
L 594 3053 
L 172 3053 
L 172 3500 
L 594 3500 
L 594 4494 
L 1172 4494 
z
" transform="scale(0.015625)"/>
      <path id="DejaVuSans-77" d="M 269 3500 
L 844 3500 
L 1563 769 
L 2278 3500 
L 2956 3500 
L 3675 769 
L 4391 3500 
L 4966 3500 
L 4050 0 
L 3372 0 
L 2619 2869 
L 1863 0 
L 1184 0 
L 269 3500 
z
" transform="scale(0.015625)"/>
      <path id="DejaVuSans-6e" d="M 3513 2113 
L 3513 0 
L 2938 0 
L 2938 2094 
Q 2938 2591 2744 2837 
Q 2550 3084 2163 3084 
Q 1697 3084 1428 2787 
Q 1159 2491 1159 1978 
L 1159 0 
L 581 0 
L 581 3500 
L 1159 3500 
L 1159 2956 
Q 1366 3272 1645 3428 
Q 1925 3584 2291 3584 
Q 2894 3584 3203 3211 
Q 3513 2838 3513 2113 
z
" transform="scale(0.015625)"/>
      <path id="DejaVuSans-53" d="M 3425 4513 
L 3425 3897 
Q 3066 4069 2747 4153 
Q 2428 4238 2131 4238 
Q 1616 4238 1336 4038 
Q 1056 3838 1056 3469 
Q 1056 3159 1242 3001 
Q 1428 2844 1947 2747 
L 2328 2669 
Q 3034 2534 3370 2195 
Q 3706 1856 3706 1288 
Q 3706 609 3251 259 
Q 2797 -91 1919 -91 
Q 1588 -91 1214 -16 
Q 841 59 441 206 
L 441 856 
Q 825 641 1194 531 
Q 1563 422 1919 422 
Q 2459 422 2753 634 
Q 3047 847 3047 1241 
Q 3047 1584 2836 1778 
Q 2625 1972 2144 2069 
L 1759 2144 
Q 1053 2284 737 2584 
Q 422 2884 422 3419 
Q 422 4038 858 4394 
Q 1294 4750 2059 4750 
Q 2388 4750 2728 4690 
Q 3069 4631 3425 4513 
z
" transform="scale(0.015625)"/>
      <path id="DejaVuSans-64" d="M 2906 2969 
L 2906 4863 
L 3481 4863 
L 3481 0 
L 2906 0 
L 2906 525 
Q 2725 213 2448 61 
Q 2172 -91 1784 -91 
Q 1150 -91 751 415 
Q 353 922 353 1747 
Q 353 2572 751 3078 
Q 1150 3584 1784 3584 
Q 2172 3584 2448 3432 
Q 2725 3281 2906 2969 
z
M 947 1747 
Q 947 1113 1208 752 
Q 1469 391 1925 391 
Q 2381 391 2643 752 
Q 2906 1113 2906 1747 
Q 2906 2381 2643 2742 
Q 2381 3103 1925 3103 
Q 1469 3103 1208 2742 
Q 947 2381 947 1747 
z
" transform="scale(0.015625)"/>
      <path id="DejaVuSans-6f" d="M 1959 3097 
Q 1497 3097 1228 2736 
Q 959 2375 959 1747 
Q 959 1119 1226 758 
Q 1494 397 1959 397 
Q 2419 397 2687 759 
Q 2956 1122 2956 1747 
Q 2956 2369 2687 2733 
Q 2419 3097 1959 3097 
z
M 1959 3584 
Q 2709 3584 3137 3096 
Q 3566 2609 3566 1747 
Q 3566 888 3137 398 
Q 2709 -91 1959 -91 
Q 1206 -91 779 398 
Q 353 888 353 1747 
Q 353 2609 779 3096 
Q 1206 3584 1959 3584 
z
" transform="scale(0.015625)"/>
      <path id="DejaVuSans-72" d="M 2631 2963 
Q 2534 3019 2420 3045 
Q 2306 3072 2169 3072 
Q 1681 3072 1420 2755 
Q 1159 2438 1159 1844 
L 1159 0 
L 581 0 
L 581 3500 
L 1159 3500 
L 1159 2956 
Q 1341 3275 1631 3429 
Q 1922 3584 2338 3584 
Q 2397 3584 2469 3576 
Q 2541 3569 2628 3553 
L 2631 2963 
z
" transform="scale(0.015625)"/>
      <path id="DejaVuSans-68" d="M 3513 2113 
L 3513 0 
L 2938 0 
L 2938 2094 
Q 2938 2591 2744 2837 
Q 2550 3084 2163 3084 
Q 1697 3084 1428 2787 
Q 1159 2491 1159 1978 
L 1159 0 
L 581 0 
L 581 4863 
L 1159 4863 
L 1159 2956 
Q 1366 3272 1645 3428 
Q 1925 3584 2291 3584 
Q 2894 3584 3203 3211 
Q 3513 2838 3513 2113 
z
" transform="scale(0.015625)"/>
      <path id="DejaVuSans-66" d="M 2375 4863 
L 2375 4384 
L 1825 4384 
Q 1516 4384 1395 4259 
Q 1275 4134 1275 3809 
L 1275 3500 
L 2222 3500 
L 2222 3053 
L 1275 3053 
L 1275 0 
L 697 0 
L 697 3053 
L 147 3053 
L 147 3500 
L 697 3500 
L 697 3744 
Q 697 4328 969 4595 
Q 1241 4863 1831 4863 
L 2375 4863 
z
" transform="scale(0.015625)"/>
      <path id="DejaVuSans-6c" d="M 603 4863 
L 1178 4863 
L 1178 0 
L 603 0 
L 603 4863 
z
" transform="scale(0.015625)"/>
      <path id="DejaVuSans-6d" d="M 3328 2828 
Q 3544 3216 3844 3400 
Q 4144 3584 4550 3584 
Q 5097 3584 5394 3201 
Q 5691 2819 5691 2113 
L 5691 0 
L 5113 0 
L 5113 2094 
Q 5113 2597 4934 2840 
Q 4756 3084 4391 3084 
Q 3944 3084 3684 2787 
Q 3425 2491 3425 1978 
L 3425 0 
L 2847 0 
L 2847 2094 
Q 2847 2600 2669 2842 
Q 2491 3084 2119 3084 
Q 1678 3084 1418 2786 
Q 1159 2488 1159 1978 
L 1159 0 
L 581 0 
L 581 3500 
L 1159 3500 
L 1159 2956 
Q 1356 3278 1631 3431 
Q 1906 3584 2284 3584 
Q 2666 3584 2933 3390 
Q 3200 3197 3328 2828 
z
" transform="scale(0.015625)"/>
     </defs>
     <use xlink:href="#DejaVuSans-51"/>
     <use xlink:href="#DejaVuSans-75" x="78.710938"/>
     <use xlink:href="#DejaVuSans-65" x="142.089844"/>
     <use xlink:href="#DejaVuSans-75" x="203.613281"/>
     <use xlink:href="#DejaVuSans-65" x="266.992188"/>
     <use xlink:href="#DejaVuSans-20" x="328.515625"/>
     <use xlink:href="#DejaVuSans-73" x="360.302734"/>
     <use xlink:href="#DejaVuSans-69" x="412.402344"/>
     <use xlink:href="#DejaVuSans-7a" x="440.185547"/>
     <use xlink:href="#DejaVuSans-65" x="492.675781"/>
     <use xlink:href="#DejaVuSans-20" x="554.199219"/>
     <use xlink:href="#DejaVuSans-28" x="585.986328"/>
     <use xlink:href="#DejaVuSans-79" x="625"/>
     <use xlink:href="#DejaVuSans-2d" x="682.429688"/>
     <use xlink:href="#DejaVuSans-61" x="718.513672"/>
     <use xlink:href="#DejaVuSans-78" x="779.792969"/>
     <use xlink:href="#DejaVuSans-69" x="838.972656"/>
     <use xlink:href="#DejaVuSans-73" x="866.755859"/>
     <use xlink:href="#DejaVuSans-29" x="918.855469"/>
     <use xlink:href="#DejaVuSans-20" x="957.869141"/>
     <use xlink:href="#DejaVuSans-62" x="989.65625"/>
     <use xlink:href="#DejaVuSans-65" x="1053.132812"/>
     <use xlink:href="#DejaVuSans-74" x="1114.65625"/>
     <use xlink:href="#DejaVuSans-77" x="1153.865234"/>
     <use xlink:href="#DejaVuSans-65" x="1235.652344"/>
     <use xlink:href="#DejaVuSans-65" x="1297.175781"/>
     <use xlink:href="#DejaVuSans-6e" x="1358.699219"/>
     <use xlink:href="#DejaVuSans-20" x="1422.078125"/>
     <use xlink:href="#DejaVuSans-53" x="1453.865234"/>
     <use xlink:href="#DejaVuSans-34" x="1517.341797"/>
     <use xlink:href="#DejaVuSans-20" x="1580.964844"/>
     <use xlink:href="#DejaVuSans-61" x="1612.751953"/>
     <use xlink:href="#DejaVuSans-6e" x="1674.03125"/>
     <use xlink:href="#DejaVuSans-64" x="1737.410156"/>
     <use xlink:href="#DejaVuSans-20" x="1800.886719"/>
     <use xlink:href="#DejaVuSans-73" x="1832.673828"/>
     <use xlink:href="#DejaVuSans-65" x="1884.773438"/>
     <use xlink:href="#DejaVuSans-6e" x="1946.296875"/>
     <use xlink:href="#DejaVuSans-73" x="2009.675781"/>
     <use xlink:href="#DejaVuSans-6f" x="2061.775391"/>
     <use xlink:href="#DejaVuSans-72" x="2122.957031"/>
     <use xlink:href="#DejaVuSans-73" x="2164.070312"/>
     <use xlink:href="#DejaVuSans-20" x="2216.169922"/>
     <use xlink:href="#DejaVuSans-74" x="2247.957031"/>
     <use xlink:href="#DejaVuSans-68" x="2287.166016"/>
     <use xlink:href="#DejaVuSans-61" x="2350.544922"/>
     <use xlink:href="#DejaVuSans-74" x="2411.824219"/>
     <use xlink:href="#DejaVuSans-20" x="2451.033203"/>
     <use xlink:href="#DejaVuSans-66" x="2482.820312"/>
     <use xlink:href="#DejaVuSans-6f" x="2518.025391"/>
     <use xlink:href="#DejaVuSans-6c" x="2579.207031"/>
     <use xlink:href="#DejaVuSans-6c" x="2606.990234"/>
     <use xlink:href="#DejaVuSans-6f" x="2634.773438"/>
     <use xlink:href="#DejaVuSans-77" x="2695.955078"/>
     <use xlink:href="#DejaVuSans-20" x="2777.742188"/>
     <use xlink:href="#DejaVuSans-61" x="2809.529297"/>
     <use xlink:href="#DejaVuSans-74" x="2870.808594"/>
     <use xlink:href="#DejaVuSans-20" x="2910.017578"/>
     <use xlink:href="#DejaVuSans-61" x="2941.804688"/>
     <use xlink:href="#DejaVuSans-20" x="3003.083984"/>
     <use xlink:href="#DejaVuSans-74" x="3034.871094"/>
     <use xlink:href="#DejaVuSans-69" x="3074.080078"/>
     <use xlink:href="#DejaVuSans-6d" x="3101.863281"/>
     <use xlink:href="#DejaVuSans-65" x="3199.275391"/>
     <use xlink:href="#DejaVuSans-20" x="3260.798828"/>
     <use xlink:href="#DejaVuSans-28" x="3292.585938"/>
     <use xlink:href="#DejaVuSans-78" x="3331.599609"/>
     <use xlink:href="#DejaVuSans-2d" x="3390.779297"/>
     <use xlink:href="#DejaVuSans-61" x="3426.863281"/>
     <use xlink:href="#DejaVuSans-78" x="3488.142578"/>
     <use xlink:href="#DejaVuSans-69" x="3547.322266"/>
     <use xlink:href="#DejaVuSans-73" x="3575.105469"/>
     <use xlink:href="#DejaVuSans-29" x="3627.205078"/>
     <use xlink:href="#DejaVuSans-2e" x="3666.21875"/>
    </g>
   </g>
  </g>
 </g>
 <defs>
  <clipPath id="p20d0bff156">
   <rect x="57.6" y="41.472" width="357.12" height="266.112"/>
  </clipPath>
 </defs>
</svg>
