<?xml version="1.0" encoding="utf-8" standalone="no"?>
<!DOCTYPE svg PUBLIC "-//W3C//DTD SVG 1.1//EN"
  "http://www.w3.org/Graphics/SVG/1.1/DTD/svg11.dtd">
<svg xmlns:xlink="http://www.w3.org/1999/xlink" width="460.8pt" height="345.6pt" viewBox="0 0 460.8 345.6" xmlns="http://www.w3.org/2000/svg" version="1.1">
 <metadata>
  <rdf:RDF xmlns:dc="http://purl.org/dc/elements/1.1/" xmlns:cc="http://creativecommons.org/ns#" xmlns:rdf="http://www.w3.org/1999/02/22-rdf-syntax-ns#">
   <cc:Work>
    <dc:type rdf:resource="http://purl.org/dc/dcmitype/StillImage"/>
    <dc:date>2024-03-08T12:57:16.723743</dc:date>
    <dc:format>image/svg+xml</dc:format>
    <dc:creator>
     <cc:Agent>
      <dc:title>Matplotlib v3.8.2, https://matplotlib.org/</dc:title>
     </cc:Agent>
    </dc:creator>
   </cc:Work>
  </rdf:RDF>
 </metadata>
 <defs>
  <style type="text/css">*{stroke-linejoin: round; stroke-linecap: butt}</style>
 </defs>
 <g id="figure_1">
  <g id="patch_1">
   <path d="M 0 345.6 
L 460.8 345.6 
L 460.8 0 
L 0 0 
z
" style="fill: #ffffff"/>
  </g>
  <g id="axes_1">
   <g id="patch_2">
    <path d="M 57.6 307.584 
L 414.72 307.584 
L 414.72 41.472 
L 57.6 41.472 
z
" style="fill: #ffffff"/>
   </g>
   <g id="matplotlib.axis_1">
    <g id="xtick_1">
     <g id="line2d_1">
      <defs>
       <path id="mcf7f44d929" d="M 0 0 
L 0 3.5 
" style="stroke: #000000; stroke-width: 0.8"/>
      </defs>
      <g>
       <use xlink:href="#mcf7f44d929" x="71.657179" y="307.584" style="stroke: #000000; stroke-width: 0.8"/>
      </g>
     </g>
     <g id="text_1">
      <!-- 0.0 -->
      <g transform="translate(63.705616 322.182437) scale(0.1 -0.1)">
       <defs>
        <path id="DejaVuSans-30" d="M 2034 4250 
Q 1547 4250 1301 3770 
Q 1056 3291 1056 2328 
Q 1056 1369 1301 889 
Q 1547 409 2034 409 
Q 2525 409 2770 889 
Q 3016 1369 3016 2328 
Q 3016 3291 2770 3770 
Q 2525 4250 2034 4250 
z
M 2034 4750 
Q 2819 4750 3233 4129 
Q 3647 3509 3647 2328 
Q 3647 1150 3233 529 
Q 2819 -91 2034 -91 
Q 1250 -91 836 529 
Q 422 1150 422 2328 
Q 422 3509 836 4129 
Q 1250 4750 2034 4750 
z
" transform="scale(0.015625)"/>
        <path id="DejaVuSans-2e" d="M 684 794 
L 1344 794 
L 1344 0 
L 684 0 
L 684 794 
z
" transform="scale(0.015625)"/>
       </defs>
       <use xlink:href="#DejaVuSans-30"/>
       <use xlink:href="#DejaVuSans-2e" x="63.623047"/>
       <use xlink:href="#DejaVuSans-30" x="95.410156"/>
      </g>
     </g>
    </g>
    <g id="xtick_2">
     <g id="line2d_2">
      <g>
       <use xlink:href="#mcf7f44d929" x="117.075732" y="307.584" style="stroke: #000000; stroke-width: 0.8"/>
      </g>
     </g>
     <g id="text_2">
      <!-- 0.5 -->
      <g transform="translate(109.12417 322.182437) scale(0.1 -0.1)">
       <defs>
        <path id="DejaVuSans-35" d="M 691 4666 
L 3169 4666 
L 3169 4134 
L 1269 4134 
L 1269 2991 
Q 1406 3038 1543 3061 
Q 1681 3084 1819 3084 
Q 2600 3084 3056 2656 
Q 3513 2228 3513 1497 
Q 3513 744 3044 326 
Q 2575 -91 1722 -91 
Q 1428 -91 1123 -41 
Q 819 9 494 109 
L 494 744 
Q 775 591 1075 516 
Q 1375 441 1709 441 
Q 2250 441 2565 725 
Q 2881 1009 2881 1497 
Q 2881 1984 2565 2268 
Q 2250 2553 1709 2553 
Q 1456 2553 1204 2497 
Q 953 2441 691 2322 
L 691 4666 
z
" transform="scale(0.015625)"/>
       </defs>
       <use xlink:href="#DejaVuSans-30"/>
       <use xlink:href="#DejaVuSans-2e" x="63.623047"/>
       <use xlink:href="#DejaVuSans-35" x="95.410156"/>
      </g>
     </g>
    </g>
    <g id="xtick_3">
     <g id="line2d_3">
      <g>
       <use xlink:href="#mcf7f44d929" x="162.494286" y="307.584" style="stroke: #000000; stroke-width: 0.8"/>
      </g>
     </g>
     <g id="text_3">
      <!-- 1.0 -->
      <g transform="translate(154.542723 322.182437) scale(0.1 -0.1)">
       <defs>
        <path id="DejaVuSans-31" d="M 794 531 
L 1825 531 
L 1825 4091 
L 703 3866 
L 703 4441 
L 1819 4666 
L 2450 4666 
L 2450 531 
L 3481 531 
L 3481 0 
L 794 0 
L 794 531 
z
" transform="scale(0.015625)"/>
       </defs>
       <use xlink:href="#DejaVuSans-31"/>
       <use xlink:href="#DejaVuSans-2e" x="63.623047"/>
       <use xlink:href="#DejaVuSans-30" x="95.410156"/>
      </g>
     </g>
    </g>
    <g id="xtick_4">
     <g id="line2d_4">
      <g>
       <use xlink:href="#mcf7f44d929" x="207.912839" y="307.584" style="stroke: #000000; stroke-width: 0.8"/>
      </g>
     </g>
     <g id="text_4">
      <!-- 1.5 -->
      <g transform="translate(199.961277 322.182437) scale(0.1 -0.1)">
       <use xlink:href="#DejaVuSans-31"/>
       <use xlink:href="#DejaVuSans-2e" x="63.623047"/>
       <use xlink:href="#DejaVuSans-35" x="95.410156"/>
      </g>
     </g>
    </g>
    <g id="xtick_5">
     <g id="line2d_5">
      <g>
       <use xlink:href="#mcf7f44d929" x="253.331393" y="307.584" style="stroke: #000000; stroke-width: 0.8"/>
      </g>
     </g>
     <g id="text_5">
      <!-- 2.0 -->
      <g transform="translate(245.37983 322.182437) scale(0.1 -0.1)">
       <defs>
        <path id="DejaVuSans-32" d="M 1228 531 
L 3431 531 
L 3431 0 
L 469 0 
L 469 531 
Q 828 903 1448 1529 
Q 2069 2156 2228 2338 
Q 2531 2678 2651 2914 
Q 2772 3150 2772 3378 
Q 2772 3750 2511 3984 
Q 2250 4219 1831 4219 
Q 1534 4219 1204 4116 
Q 875 4013 500 3803 
L 500 4441 
Q 881 4594 1212 4672 
Q 1544 4750 1819 4750 
Q 2544 4750 2975 4387 
Q 3406 4025 3406 3419 
Q 3406 3131 3298 2873 
Q 3191 2616 2906 2266 
Q 2828 2175 2409 1742 
Q 1991 1309 1228 531 
z
" transform="scale(0.015625)"/>
       </defs>
       <use xlink:href="#DejaVuSans-32"/>
       <use xlink:href="#DejaVuSans-2e" x="63.623047"/>
       <use xlink:href="#DejaVuSans-30" x="95.410156"/>
      </g>
     </g>
    </g>
    <g id="xtick_6">
     <g id="line2d_6">
      <g>
       <use xlink:href="#mcf7f44d929" x="298.749946" y="307.584" style="stroke: #000000; stroke-width: 0.8"/>
      </g>
     </g>
     <g id="text_6">
      <!-- 2.5 -->
      <g transform="translate(290.798384 322.182437) scale(0.1 -0.1)">
       <use xlink:href="#DejaVuSans-32"/>
       <use xlink:href="#DejaVuSans-2e" x="63.623047"/>
       <use xlink:href="#DejaVuSans-35" x="95.410156"/>
      </g>
     </g>
    </g>
    <g id="xtick_7">
     <g id="line2d_7">
      <g>
       <use xlink:href="#mcf7f44d929" x="344.168499" y="307.584" style="stroke: #000000; stroke-width: 0.8"/>
      </g>
     </g>
     <g id="text_7">
      <!-- 3.0 -->
      <g transform="translate(336.216937 322.182437) scale(0.1 -0.1)">
       <defs>
        <path id="DejaVuSans-33" d="M 2597 2516 
Q 3050 2419 3304 2112 
Q 3559 1806 3559 1356 
Q 3559 666 3084 287 
Q 2609 -91 1734 -91 
Q 1441 -91 1130 -33 
Q 819 25 488 141 
L 488 750 
Q 750 597 1062 519 
Q 1375 441 1716 441 
Q 2309 441 2620 675 
Q 2931 909 2931 1356 
Q 2931 1769 2642 2001 
Q 2353 2234 1838 2234 
L 1294 2234 
L 1294 2753 
L 1863 2753 
Q 2328 2753 2575 2939 
Q 2822 3125 2822 3475 
Q 2822 3834 2567 4026 
Q 2313 4219 1838 4219 
Q 1578 4219 1281 4162 
Q 984 4106 628 3988 
L 628 4550 
Q 988 4650 1302 4700 
Q 1616 4750 1894 4750 
Q 2613 4750 3031 4423 
Q 3450 4097 3450 3541 
Q 3450 3153 3228 2886 
Q 3006 2619 2597 2516 
z
" transform="scale(0.015625)"/>
       </defs>
       <use xlink:href="#DejaVuSans-33"/>
       <use xlink:href="#DejaVuSans-2e" x="63.623047"/>
       <use xlink:href="#DejaVuSans-30" x="95.410156"/>
      </g>
     </g>
    </g>
    <g id="xtick_8">
     <g id="line2d_8">
      <g>
       <use xlink:href="#mcf7f44d929" x="389.587053" y="307.584" style="stroke: #000000; stroke-width: 0.8"/>
      </g>
     </g>
     <g id="text_8">
      <!-- 3.5 -->
      <g transform="translate(381.63549 322.182437) scale(0.1 -0.1)">
       <use xlink:href="#DejaVuSans-33"/>
       <use xlink:href="#DejaVuSans-2e" x="63.623047"/>
       <use xlink:href="#DejaVuSans-35" x="95.410156"/>
      </g>
     </g>
    </g>
    <g id="text_9">
     <!-- 1e6 -->
     <g transform="translate(395.841875 334.860562) scale(0.1 -0.1)">
      <defs>
       <path id="DejaVuSans-65" d="M 3597 1894 
L 3597 1613 
L 953 1613 
Q 991 1019 1311 708 
Q 1631 397 2203 397 
Q 2534 397 2845 478 
Q 3156 559 3463 722 
L 3463 178 
Q 3153 47 2828 -22 
Q 2503 -91 2169 -91 
Q 1331 -91 842 396 
Q 353 884 353 1716 
Q 353 2575 817 3079 
Q 1281 3584 2069 3584 
Q 2775 3584 3186 3129 
Q 3597 2675 3597 1894 
z
M 3022 2063 
Q 3016 2534 2758 2815 
Q 2500 3097 2075 3097 
Q 1594 3097 1305 2825 
Q 1016 2553 972 2059 
L 3022 2063 
z
" transform="scale(0.015625)"/>
       <path id="DejaVuSans-36" d="M 2113 2584 
Q 1688 2584 1439 2293 
Q 1191 2003 1191 1497 
Q 1191 994 1439 701 
Q 1688 409 2113 409 
Q 2538 409 2786 701 
Q 3034 994 3034 1497 
Q 3034 2003 2786 2293 
Q 2538 2584 2113 2584 
z
M 3366 4563 
L 3366 3988 
Q 3128 4100 2886 4159 
Q 2644 4219 2406 4219 
Q 1781 4219 1451 3797 
Q 1122 3375 1075 2522 
Q 1259 2794 1537 2939 
Q 1816 3084 2150 3084 
Q 2853 3084 3261 2657 
Q 3669 2231 3669 1497 
Q 3669 778 3244 343 
Q 2819 -91 2113 -91 
Q 1303 -91 875 529 
Q 447 1150 447 2328 
Q 447 3434 972 4092 
Q 1497 4750 2381 4750 
Q 2619 4750 2861 4703 
Q 3103 4656 3366 4563 
z
" transform="scale(0.015625)"/>
      </defs>
      <use xlink:href="#DejaVuSans-31"/>
      <use xlink:href="#DejaVuSans-65" x="63.623047"/>
      <use xlink:href="#DejaVuSans-36" x="125.146484"/>
     </g>
    </g>
   </g>
   <g id="matplotlib.axis_2">
    <g id="ytick_1">
     <g id="line2d_9">
      <defs>
       <path id="mb7a7b0201e" d="M 0 0 
L -3.5 0 
" style="stroke: #000000; stroke-width: 0.8"/>
      </defs>
      <g>
       <use xlink:href="#mb7a7b0201e" x="57.6" y="295.488" style="stroke: #000000; stroke-width: 0.8"/>
      </g>
     </g>
     <g id="text_10">
      <!-- 0.0 -->
      <g transform="translate(34.696875 299.287219) scale(0.1 -0.1)">
       <use xlink:href="#DejaVuSans-30"/>
       <use xlink:href="#DejaVuSans-2e" x="63.623047"/>
       <use xlink:href="#DejaVuSans-30" x="95.410156"/>
      </g>
     </g>
    </g>
    <g id="ytick_2">
     <g id="line2d_10">
      <g>
       <use xlink:href="#mb7a7b0201e" x="57.6" y="265.248" style="stroke: #000000; stroke-width: 0.8"/>
      </g>
     </g>
     <g id="text_11">
      <!-- 2.5 -->
      <g transform="translate(34.696875 269.047219) scale(0.1 -0.1)">
       <use xlink:href="#DejaVuSans-32"/>
       <use xlink:href="#DejaVuSans-2e" x="63.623047"/>
       <use xlink:href="#DejaVuSans-35" x="95.410156"/>
      </g>
     </g>
    </g>
    <g id="ytick_3">
     <g id="line2d_11">
      <g>
       <use xlink:href="#mb7a7b0201e" x="57.6" y="235.008" style="stroke: #000000; stroke-width: 0.8"/>
      </g>
     </g>
     <g id="text_12">
      <!-- 5.0 -->
      <g transform="translate(34.696875 238.807219) scale(0.1 -0.1)">
       <use xlink:href="#DejaVuSans-35"/>
       <use xlink:href="#DejaVuSans-2e" x="63.623047"/>
       <use xlink:href="#DejaVuSans-30" x="95.410156"/>
      </g>
     </g>
    </g>
    <g id="ytick_4">
     <g id="line2d_12">
      <g>
       <use xlink:href="#mb7a7b0201e" x="57.6" y="204.768" style="stroke: #000000; stroke-width: 0.8"/>
      </g>
     </g>
     <g id="text_13">
      <!-- 7.5 -->
      <g transform="translate(34.696875 208.567219) scale(0.1 -0.1)">
       <defs>
        <path id="DejaVuSans-37" d="M 525 4666 
L 3525 4666 
L 3525 4397 
L 1831 0 
L 1172 0 
L 2766 4134 
L 525 4134 
L 525 4666 
z
" transform="scale(0.015625)"/>
       </defs>
       <use xlink:href="#DejaVuSans-37"/>
       <use xlink:href="#DejaVuSans-2e" x="63.623047"/>
       <use xlink:href="#DejaVuSans-35" x="95.410156"/>
      </g>
     </g>
    </g>
    <g id="ytick_5">
     <g id="line2d_13">
      <g>
       <use xlink:href="#mb7a7b0201e" x="57.6" y="174.528" style="stroke: #000000; stroke-width: 0.8"/>
      </g>
     </g>
     <g id="text_14">
      <!-- 10.0 -->
      <g transform="translate(28.334375 178.327219) scale(0.1 -0.1)">
       <use xlink:href="#DejaVuSans-31"/>
       <use xlink:href="#DejaVuSans-30" x="63.623047"/>
       <use xlink:href="#DejaVuSans-2e" x="127.246094"/>
       <use xlink:href="#DejaVuSans-30" x="159.033203"/>
      </g>
     </g>
    </g>
    <g id="ytick_6">
     <g id="line2d_14">
      <g>
       <use xlink:href="#mb7a7b0201e" x="57.6" y="144.288" style="stroke: #000000; stroke-width: 0.8"/>
      </g>
     </g>
     <g id="text_15">
      <!-- 12.5 -->
      <g transform="translate(28.334375 148.087219) scale(0.1 -0.1)">
       <use xlink:href="#DejaVuSans-31"/>
       <use xlink:href="#DejaVuSans-32" x="63.623047"/>
       <use xlink:href="#DejaVuSans-2e" x="127.246094"/>
       <use xlink:href="#DejaVuSans-35" x="159.033203"/>
      </g>
     </g>
    </g>
    <g id="ytick_7">
     <g id="line2d_15">
      <g>
       <use xlink:href="#mb7a7b0201e" x="57.6" y="114.048" style="stroke: #000000; stroke-width: 0.8"/>
      </g>
     </g>
     <g id="text_16">
      <!-- 15.0 -->
      <g transform="translate(28.334375 117.847219) scale(0.1 -0.1)">
       <use xlink:href="#DejaVuSans-31"/>
       <use xlink:href="#DejaVuSans-35" x="63.623047"/>
       <use xlink:href="#DejaVuSans-2e" x="127.246094"/>
       <use xlink:href="#DejaVuSans-30" x="159.033203"/>
      </g>
     </g>
    </g>
    <g id="ytick_8">
     <g id="line2d_16">
      <g>
       <use xlink:href="#mb7a7b0201e" x="57.6" y="83.808" style="stroke: #000000; stroke-width: 0.8"/>
      </g>
     </g>
     <g id="text_17">
      <!-- 17.5 -->
      <g transform="translate(28.334375 87.607219) scale(0.1 -0.1)">
       <use xlink:href="#DejaVuSans-31"/>
       <use xlink:href="#DejaVuSans-37" x="63.623047"/>
       <use xlink:href="#DejaVuSans-2e" x="127.246094"/>
       <use xlink:href="#DejaVuSans-35" x="159.033203"/>
      </g>
     </g>
    </g>
    <g id="ytick_9">
     <g id="line2d_17">
      <g>
       <use xlink:href="#mb7a7b0201e" x="57.6" y="53.568" style="stroke: #000000; stroke-width: 0.8"/>
      </g>
     </g>
     <g id="text_18">
      <!-- 20.0 -->
      <g transform="translate(28.334375 57.367219) scale(0.1 -0.1)">
       <use xlink:href="#DejaVuSans-32"/>
       <use xlink:href="#DejaVuSans-30" x="63.623047"/>
       <use xlink:href="#DejaVuSans-2e" x="127.246094"/>
       <use xlink:href="#DejaVuSans-30" x="159.033203"/>
      </g>
     </g>
    </g>
   </g>
   <g id="line2d_18">
    <path d="M 73.832727 283.392 
L 74.037111 295.488 
L 74.149749 283.392 
L 74.354132 295.488 
L 74.465862 283.392 
L 74.670245 295.488 
L 74.782883 283.392 
L 74.987267 295.488 
L 75.106264 283.392 
L 75.310647 295.488 
L 75.423285 283.392 
L 75.627669 295.488 
L 75.73849 283.392 
L 75.942873 295.488 
L 76.054603 283.392 
L 76.258986 295.488 
L 76.377075 283.392 
L 76.581458 295.488 
L 76.69773 283.392 
L 76.902113 295.488 
L 77.01566 283.392 
L 77.220043 295.488 
L 77.334498 283.392 
L 77.538881 295.488 
L 77.655153 283.392 
L 77.859536 295.488 
L 77.976716 283.392 
L 78.1811 295.488 
L 78.299188 283.392 
L 78.503571 295.488 
L 78.611667 283.392 
L 78.816051 295.488 
L 84.449768 283.392 
L 84.700479 198.72 
L 84.710471 210.816 
L 84.737722 222.912 
L 84.976624 210.816 
L 85.070186 235.008 
L 85.286378 222.912 
L 85.438984 235.008 
L 85.466236 247.104 
L 85.604308 235.008 
L 85.778715 247.104 
L 85.805058 259.2 
L 85.917696 247.104 
L 86.144789 259.2 
L 86.17204 271.296 
L 86.238351 259.2 
L 86.501779 271.296 
L 86.52903 283.392 
L 86.555372 271.296 
L 86.86331 283.392 
L 86.873302 271.296 
L 87.045893 283.392 
L 87.194866 271.296 
L 87.239376 283.392 
L 87.508254 271.296 
L 87.712637 295.488 
L 87.825275 283.392 
L 88.029659 295.488 
L 88.136847 283.392 
L 88.34123 295.488 
L 88.45296 283.392 
L 88.657343 295.488 
L 88.775431 283.392 
L 88.979815 295.488 
L 89.087911 283.392 
L 89.292295 295.488 
L 89.401299 283.392 
L 89.605683 295.488 
L 89.723771 283.392 
L 89.928154 295.488 
L 90.045334 283.392 
L 90.249718 295.488 
L 90.367806 283.392 
L 90.572189 295.488 
L 90.67756 283.392 
L 90.881944 295.488 
L 91.002757 283.392 
L 91.207141 295.488 
L 91.31887 283.392 
L 91.523254 295.488 
L 91.644067 283.392 
L 91.848451 295.488 
L 91.96018 283.392 
L 92.164564 295.488 
L 92.274477 283.392 
L 92.47886 295.488 
L 92.587865 283.392 
L 92.792248 295.488 
L 92.903978 283.392 
L 93.108361 295.488 
L 93.220999 283.392 
L 93.425383 295.488 
L 93.533479 283.392 
L 93.737863 295.488 
L 93.850501 283.392 
L 94.054884 295.488 
L 94.171156 283.392 
L 94.375539 295.488 
L 94.491811 283.392 
L 94.696194 295.488 
L 94.807015 283.392 
L 95.011399 295.488 
L 95.123128 283.392 
L 95.327512 295.488 
L 95.44015 283.392 
L 95.644533 295.488 
L 95.760805 283.392 
L 95.965188 295.488 
L 96.07601 283.392 
L 96.280393 295.488 
L 96.395756 283.392 
L 96.60014 295.488 
L 96.718228 283.392 
L 96.922611 295.488 
L 97.030708 283.392 
L 97.235091 295.488 
L 97.345912 283.392 
L 97.550296 295.488 
L 97.662934 283.392 
L 97.867317 295.488 
L 98.296977 283.392 
L 98.50136 295.488 
L 98.60764 283.392 
L 98.812023 295.488 
L 98.932837 283.392 
L 99.13722 295.488 
L 99.257125 283.392 
L 99.461509 295.488 
L 99.580505 283.392 
L 99.784889 295.488 
L 99.903885 283.392 
L 100.108269 295.488 
L 100.21909 283.392 
L 100.423474 295.488 
L 100.537928 283.392 
L 100.742312 295.488 
L 100.8604 283.392 
L 101.064784 295.488 
L 101.180147 283.392 
L 101.38453 295.488 
L 101.49626 283.392 
L 101.700643 295.488 
L 101.808739 283.392 
L 102.013123 295.488 
L 102.124853 283.392 
L 102.329236 295.488 
L 102.443691 283.392 
L 102.648074 295.488 
L 102.759804 283.392 
L 102.964187 295.488 
L 103.077734 283.392 
L 103.282117 295.488 
L 103.395664 283.392 
L 103.600047 295.488 
L 103.71541 283.392 
L 103.919794 295.488 
L 104.03334 283.392 
L 104.237724 295.488 
L 104.353995 283.392 
L 104.558379 295.488 
L 104.671925 283.392 
L 104.876309 295.488 
L 104.983496 283.392 
L 105.18788 295.488 
L 105.304151 283.392 
L 105.508535 295.488 
L 105.62299 283.392 
L 105.827373 295.488 
L 105.939103 283.392 
L 106.143486 295.488 
L 106.248857 283.392 
L 106.453241 295.488 
L 106.568604 283.392 
L 106.772987 295.488 
L 106.8829 283.392 
L 107.087284 295.488 
L 107.20083 283.392 
L 107.405214 295.488 
L 107.521485 283.392 
L 107.725869 295.488 
L 107.838507 283.392 
L 108.04289 295.488 
L 108.159162 283.392 
L 108.363545 295.488 
L 108.473458 283.392 
L 108.677842 295.488 
L 108.786846 283.392 
L 108.99123 295.488 
L 109.100234 283.392 
L 109.304618 295.488 
L 109.417256 283.392 
L 109.621639 295.488 
L 109.731552 283.392 
L 109.935935 295.488 
L 110.049482 283.392 
L 110.253865 295.488 
L 110.369228 283.392 
L 110.573612 295.488 
L 112.134193 283.392 
L 112.338577 295.488 
L 112.362195 283.392 
L 112.566578 295.488 
L 112.582929 283.392 
L 112.787312 295.488 
L 112.808205 283.392 
L 113.012588 295.488 
L 113.033481 283.392 
L 113.237864 295.488 
L 113.261482 283.392 
L 113.465865 295.488 
L 113.490391 283.392 
L 113.694775 295.488 
L 113.715667 283.392 
L 113.920051 295.488 
L 113.944577 283.392 
L 114.14896 295.488 
L 114.169853 283.392 
L 114.374236 295.488 
L 114.396037 283.392 
L 114.600421 295.488 
L 114.624947 283.392 
L 114.82933 295.488 
L 114.85204 283.392 
L 115.056423 295.488 
L 115.084583 283.392 
L 115.288966 295.488 
L 126.212128 283.392 
L 126.416512 295.488 
L 126.440129 283.392 
L 126.644513 295.488 
L 126.666314 283.392 
L 126.870697 295.488 
L 126.888865 283.392 
L 127.093248 295.488 
L 127.118683 283.392 
L 127.323066 295.488 
L 127.342142 283.392 
L 127.546525 295.488 
L 127.796327 150.336 
L 127.841746 114.048 
L 127.878081 150.336 
L 128.037046 138.24 
L 128.118799 114.048 
L 128.608411 101.952 
L 128.654738 114.048 
L 129.115282 101.952 
L 129.161609 114.048 
L 129.638504 101.952 
L 129.681197 114.048 
L 130.084514 101.952 
L 130.127208 114.048 
L 130.560501 101.952 
L 130.602286 114.048 
L 131.078272 101.952 
L 131.120057 126.144 
L 131.204536 114.048 
L 131.549717 126.144 
L 131.55335 114.048 
L 131.590593 150.336 
L 131.87673 138.24 
L 132.052046 150.336 
L 132.092923 186.624 
L 132.106548 174.528 
L 132.56255 150.336 
L 132.614328 198.72 
L 133.018553 186.624 
L 133.100306 210.816 
L 133.127557 235.008 
L 133.480914 210.816 
L 133.585376 235.008 
L 133.612627 259.2 
L 133.708915 247.104 
L 133.936007 235.008 
L 134.096789 247.104 
L 134.137666 283.392 
L 134.166734 271.296 
L 134.616377 247.104 
L 134.693589 283.392 
L 135.062388 271.296 
L 135.266771 295.488 
L 135.292205 283.392 
L 135.496589 295.488 
L 135.515665 283.392 
L 135.720048 295.488 
L 135.742758 283.392 
L 135.947141 295.488 
L 135.968034 283.392 
L 136.172417 295.488 
L 136.197851 283.392 
L 136.402235 295.488 
L 136.428578 283.392 
L 136.632961 295.488 
L 136.65567 283.392 
L 136.860054 295.488 
L 136.887305 283.392 
L 137.091689 295.488 
L 137.116215 283.392 
L 137.320598 295.488 
L 137.342399 283.392 
L 137.546782 295.488 
L 137.565858 283.392 
L 137.770242 295.488 
L 137.789318 283.392 
L 137.993701 295.488 
L 138.01641 283.392 
L 138.220794 295.488 
L 138.241686 283.392 
L 138.44607 295.488 
L 138.468779 283.392 
L 138.673163 295.488 
L 138.694964 283.392 
L 138.899347 295.488 
L 138.921148 283.392 
L 139.125531 295.488 
L 139.152783 283.392 
L 139.357166 295.488 
L 139.376242 283.392 
L 139.580625 295.488 
L 139.607876 283.392 
L 139.81226 295.488 
L 140.06297 283.392 
L 140.267354 295.488 
L 140.287338 283.392 
L 140.491721 295.488 
L 140.518973 283.392 
L 140.723356 295.488 
L 140.750607 283.392 
L 140.954991 295.488 
L 140.981333 283.392 
L 141.185717 295.488 
L 141.208426 283.392 
L 141.41281 295.488 
L 141.440969 283.392 
L 141.645353 295.488 
L 141.66352 283.392 
L 141.867904 295.488 
L 141.891521 283.392 
L 142.095905 295.488 
L 142.118614 283.392 
L 142.322998 295.488 
L 142.341165 283.392 
L 142.545548 295.488 
L 142.570074 283.392 
L 142.774458 295.488 
L 142.798076 283.392 
L 143.002459 295.488 
L 143.02971 283.392 
L 143.234094 295.488 
L 143.260437 283.392 
L 143.46482 295.488 
L 143.483896 283.392 
L 143.688279 295.488 
L 143.709172 283.392 
L 143.913555 295.488 
L 143.936265 283.392 
L 144.140648 295.488 
L 144.162449 283.392 
L 144.366832 295.488 
L 144.393175 283.392 
L 144.597559 295.488 
L 144.622993 283.392 
L 144.827377 295.488 
L 144.849178 283.392 
L 145.053561 295.488 
L 145.073545 283.392 
L 145.277929 295.488 
L 145.302455 283.392 
L 145.506838 295.488 
L 145.530456 283.392 
L 145.734839 295.488 
L 145.762999 283.392 
L 145.967382 295.488 
L 145.991 283.392 
L 146.195383 295.488 
L 146.217184 283.392 
L 146.421568 295.488 
L 146.449727 283.392 
L 146.654111 295.488 
L 146.670462 283.392 
L 146.874845 295.488 
L 146.894829 283.392 
L 147.099213 295.488 
L 147.115563 283.392 
L 147.319947 295.488 
L 147.344473 283.392 
L 147.548856 295.488 
L 147.577016 283.392 
L 147.781399 295.488 
L 147.801383 283.392 
L 148.005767 295.488 
L 148.027568 283.392 
L 148.231951 295.488 
L 148.259203 283.392 
L 148.463586 295.488 
L 148.487204 283.392 
L 148.691587 295.488 
L 148.715205 283.392 
L 148.919588 295.488 
L 148.945931 283.392 
L 149.150315 295.488 
L 149.174841 283.392 
L 149.379224 295.488 
L 149.401933 283.392 
L 149.606317 295.488 
L 149.629934 283.392 
L 149.834318 295.488 
L 149.856119 283.392 
L 150.060502 295.488 
L 150.087753 283.392 
L 150.292137 295.488 
L 150.317571 283.392 
L 150.521955 295.488 
L 150.545572 283.392 
L 150.749956 295.488 
L 150.776299 283.392 
L 150.980682 295.488 
L 151.007025 283.392 
L 151.211408 295.488 
L 151.234118 283.392 
L 151.438501 295.488 
L 151.457577 283.392 
L 151.661961 295.488 
L 151.682853 283.392 
L 151.887237 295.488 
L 151.907221 283.392 
L 152.111604 295.488 
L 152.138855 283.392 
L 152.343239 295.488 
L 152.367765 283.392 
L 152.572148 295.488 
L 152.587591 283.392 
L 152.791974 295.488 
L 152.818317 283.392 
L 153.0227 295.488 
L 153.044501 283.392 
L 153.248885 295.488 
L 153.270686 283.392 
L 153.475069 295.488 
L 153.504137 283.392 
L 153.708521 295.488 
L 153.728505 283.392 
L 153.932888 295.488 
L 153.954689 283.392 
L 154.159073 295.488 
L 154.40615 283.392 
L 154.610533 295.488 
L 154.635059 283.392 
L 154.839443 295.488 
L 154.864877 283.392 
L 155.06926 295.488 
L 160.747488 283.392 
L 160.965497 101.952 
L 161.007282 138.24 
L 161.020908 150.336 
L 161.431491 126.144 
L 161.475093 174.528 
L 161.890219 150.336 
L 161.981964 174.528 
L 162.009215 198.72 
L 162.11277 186.624 
L 162.341679 174.528 
L 162.515178 186.624 
L 162.556055 222.912 
L 162.565138 210.816 
L 162.79859 198.72 
L 162.983898 210.816 
L 163.025683 247.104 
L 163.027499 235.008 
L 163.252775 222.912 
L 163.460792 235.008 
L 163.501669 259.2 
L 163.925878 235.008 
L 164.112094 283.392 
L 164.155696 271.296 
L 164.380064 259.2 
L 164.506327 283.392 
L 164.584447 295.488 
L 164.608973 283.392 
L 164.832433 271.296 
L 165.036816 295.488 
L 165.054984 283.392 
L 165.259367 295.488 
L 165.28571 283.392 
L 165.490093 295.488 
L 165.512803 283.392 
L 165.717186 295.488 
L 165.739895 283.392 
L 165.944279 295.488 
L 165.966988 283.392 
L 166.171372 295.488 
L 171.647941 283.392 
L 171.885026 114.048 
L 171.907735 138.24 
L 171.921361 150.336 
L 172.341936 126.144 
L 172.400072 174.528 
L 172.797939 150.336 
L 172.888776 174.528 
L 172.916027 198.72 
L 173.026848 186.624 
L 173.250307 174.528 
L 173.391105 186.624 
L 173.431073 222.912 
L 173.478309 210.816 
L 173.705401 198.72 
L 173.841657 210.816 
L 173.882534 247.104 
L 173.937036 235.008 
L 174.170487 222.912 
L 174.332177 235.008 
L 174.373054 271.296 
L 174.398488 259.2 
L 174.621039 247.104 
L 174.820881 259.2 
L 174.865391 283.392 
L 175.297776 259.2 
L 175.502159 295.488 
L 175.525777 283.392 
L 175.753778 271.296 
L 175.958162 295.488 
L 175.976329 283.392 
L 176.180712 295.488 
L 176.203422 283.392 
L 176.407805 295.488 
L 176.434148 283.392 
L 176.638531 295.488 
L 176.662149 283.392 
L 176.866533 295.488 
L 182.34401 283.392 
L 182.548394 283.392 
L 182.77912 101.952 
L 182.820905 138.24 
L 182.982595 126.144 
L 183.284174 138.24 
L 183.325959 174.528 
L 183.831922 186.624 
L 183.87189 222.912 
L 184.222522 210.816 
L 184.362411 222.912 
L 184.402379 259.2 
L 184.543177 247.104 
L 184.85929 235.008 
L 184.941951 271.296 
L 185.179945 259.2 
L 185.445189 271.296 
L 185.496058 259.2 
L 185.668648 283.392 
L 185.815804 271.296 
L 185.927534 283.392 
L 186.136459 271.296 
L 186.340843 295.488 
L 186.464381 283.392 
L 186.668765 295.488 
L 186.785945 283.392 
L 186.990328 295.488 
L 187.100241 283.392 
L 187.304625 295.488 
L 187.416354 283.392 
L 187.620738 295.488 
L 187.730651 283.392 
L 187.935034 295.488 
L 188.042222 283.392 
L 188.246605 295.488 
L 188.360152 283.392 
L 188.564535 295.488 
L 188.67354 283.392 
L 188.877923 295.488 
L 188.993286 283.392 
L 189.19767 295.488 
L 189.315758 283.392 
L 189.520142 295.488 
L 189.625513 283.392 
L 189.829896 295.488 
L 189.939809 283.392 
L 190.144193 295.488 
L 190.265006 283.392 
L 190.469389 295.488 
L 190.580211 283.392 
L 190.784594 295.488 
L 190.898141 283.392 
L 191.102524 295.488 
L 191.214254 283.392 
L 191.418637 295.488 
L 191.534909 283.392 
L 191.739292 295.488 
L 191.861922 283.392 
L 192.066306 295.488 
L 192.178944 283.392 
L 192.383327 295.488 
L 192.495965 283.392 
L 192.700349 295.488 
L 192.809353 283.392 
L 193.013737 295.488 
L 193.122741 283.392 
L 193.327125 295.488 
L 193.44703 283.392 
L 193.651413 295.488 
L 193.768593 283.392 
L 193.972977 295.488 
L 194.081073 283.392 
L 194.285456 295.488 
L 194.399003 283.392 
L 194.603386 295.488 
L 194.716024 283.392 
L 194.920408 295.488 
L 195.033954 283.392 
L 195.238337 295.488 
L 195.357334 283.392 
L 195.561718 295.488 
L 195.677081 283.392 
L 195.881464 295.488 
L 195.985019 283.392 
L 196.189402 295.488 
L 196.303857 283.392 
L 196.50824 295.488 
L 196.624512 283.392 
L 196.828895 295.488 
L 196.939717 283.392 
L 197.1441 295.488 
L 197.263097 283.392 
L 197.46748 295.488 
L 197.58466 283.392 
L 197.789043 295.488 
L 197.90804 283.392 
L 198.112424 295.488 
L 198.223245 283.392 
L 198.427628 295.488 
L 198.534816 283.392 
L 198.7392 295.488 
L 198.860921 283.392 
L 199.065305 295.488 
L 199.183393 283.392 
L 199.387777 295.488 
L 199.499506 283.392 
L 199.70389 295.488 
L 199.817436 283.392 
L 200.02182 295.488 
L 200.142633 283.392 
L 200.347016 295.488 
L 200.46238 283.392 
L 200.666763 295.488 
L 200.778493 283.392 
L 200.982876 295.488 
L 201.099148 283.392 
L 201.303531 295.488 
L 201.42707 283.392 
L 201.631453 295.488 
L 201.745908 283.392 
L 201.950291 295.488 
L 202.057479 283.392 
L 202.261863 295.488 
L 202.380859 283.392 
L 202.585243 295.488 
L 202.689705 283.392 
L 202.894089 295.488 
L 203.006727 283.392 
L 203.21111 295.488 
L 203.332832 283.392 
L 203.537216 295.488 
L 203.64622 283.392 
L 203.850604 295.488 
L 203.96415 283.392 
L 204.168533 295.488 
L 204.281171 283.392 
L 204.485555 295.488 
L 204.60001 283.392 
L 204.804393 295.488 
L 204.914306 283.392 
L 205.11869 295.488 
L 205.235869 283.392 
L 205.440253 295.488 
L 205.55925 283.392 
L 205.763633 295.488 
L 205.881721 283.392 
L 206.086105 295.488 
L 206.190567 283.392 
L 206.394951 295.488 
L 206.507589 283.392 
L 206.711972 295.488 
L 206.830969 283.392 
L 207.035353 295.488 
L 207.149807 283.392 
L 207.354191 295.488 
L 207.458653 283.392 
L 207.663037 295.488 
L 207.772042 283.392 
L 207.976425 295.488 
L 208.087246 283.392 
L 208.29163 295.488 
L 208.401543 283.392 
L 208.605926 295.488 
L 208.714931 283.392 
L 208.919314 295.488 
L 209.028319 283.392 
L 209.232702 295.488 
L 209.349882 283.392 
L 209.554266 295.488 
L 209.666904 283.392 
L 209.871287 295.488 
L 209.984833 283.392 
L 210.189217 295.488 
L 210.295496 283.392 
L 210.49988 295.488 
L 210.621602 283.392 
L 210.825985 295.488 
L 210.936806 283.392 
L 211.14119 295.488 
L 211.262003 283.392 
L 211.466387 295.488 
L 211.579933 283.392 
L 211.784317 295.488 
L 211.893321 283.392 
L 212.097705 295.488 
L 212.207617 283.392 
L 212.412001 295.488 
L 212.530089 283.392 
L 212.734473 295.488 
L 212.849836 283.392 
L 213.054219 295.488 
L 213.162315 283.392 
L 213.366699 295.488 
L 213.476612 283.392 
L 213.680995 295.488 
L 213.793633 283.392 
L 213.998017 295.488 
L 214.112472 283.392 
L 214.316855 295.488 
L 214.423134 283.392 
L 214.627518 295.488 
L 214.739248 283.392 
L 214.943631 295.488 
L 215.054452 283.392 
L 215.258836 295.488 
L 215.374199 283.392 
L 215.578582 295.488 
L 215.701213 283.392 
L 215.905596 295.488 
L 216.012784 283.392 
L 216.217167 295.488 
L 216.337072 283.392 
L 216.541456 295.488 
L 216.655911 283.392 
L 216.860294 295.488 
L 216.97384 283.392 
L 217.178224 295.488 
L 217.297221 283.392 
L 217.501604 295.488 
L 217.618784 283.392 
L 217.823167 295.488 
L 217.92763 283.392 
L 218.132014 295.488 
L 218.254644 283.392 
L 218.627984 295.488 
L 225.42805 283.392 
L 225.606999 271.296 
L 225.632433 283.392 
L 225.753247 271.296 
L 225.811383 283.392 
L 225.91312 259.2 
L 226.082077 89.856 
L 226.128404 126.144 
L 226.161105 162.432 
L 226.244676 138.24 
L 226.508103 114.048 
L 226.584406 150.336 
L 226.595307 162.432 
L 226.684327 150.336 
L 226.86146 138.24 
L 227.016791 150.336 
L 227.049492 174.528 
L 227.407391 150.336 
L 227.535471 174.528 
L 227.557272 198.72 
L 227.584523 186.624 
L 227.951505 162.432 
L 228.0378 198.72 
L 228.048701 210.816 
L 228.134996 198.72 
L 228.507428 174.528 
L 228.563747 222.912 
L 228.871685 198.72 
L 229.023383 210.816 
L 229.056084 235.008 
L 229.415799 210.816 
L 229.542063 235.008 
L 229.563863 259.2 
L 229.596565 247.104 
L 229.99534 259.2 
L 230.017141 283.392 
L 230.496761 295.488 
L 246.132552 283.392 
L 246.314226 271.296 
L 246.336935 283.392 
L 246.496809 271.296 
L 246.518609 283.392 
L 246.673941 271.296 
L 246.701192 283.392 
L 246.856524 271.296 
L 246.878324 283.392 
L 247.04274 271.296 
L 247.060907 283.392 
L 247.226231 271.296 
L 247.247123 283.392 
L 247.411538 271.296 
L 247.430614 283.392 
L 247.554153 271.296 
L 247.615922 283.392 
L 247.714026 259.2 
L 247.882074 89.856 
L 247.92931 126.144 
L 248.003796 162.432 
L 248.014697 174.528 
L 248.100084 150.336 
L 248.177295 65.664 
L 248.445265 53.568 
L 248.479783 65.664 
L 248.886733 53.568 
L 248.920343 65.664 
L 249.382703 53.568 
L 249.41268 77.76 
L 249.414496 65.664 
L 249.875041 77.76 
L 249.910467 65.664 
L 250.346485 77.76 
L 250.380095 65.664 
L 250.868799 77.76 
L 250.9015 65.664 
L 251.316625 77.76 
L 251.350235 65.664 
L 251.85529 65.664 
L 251.887083 77.76 
L 251.887991 65.664 
L 252.325826 77.76 
L 252.383053 65.664 
L 252.854498 77.76 
L 252.882657 65.664 
L 252.887199 77.76 
L 253.107025 65.664 
L 255.163577 77.76 
L 255.196278 65.664 
L 255.633205 77.76 
L 255.666815 65.664 
L 256.127359 77.76 
L 256.160968 65.664 
L 256.624238 77.76 
L 256.657847 65.664 
L 257.141101 77.76 
L 257.175619 65.664 
L 257.636163 77.76 
L 257.670681 65.664 
L 258.118508 77.76 
L 258.20117 65.664 
L 258.619021 77.76 
L 258.64718 65.664 
L 258.651722 77.76 
L 258.927867 65.664 
L 259.097732 77.76 
L 259.104091 65.664 
L 259.119533 89.856 
L 259.130433 89.856 
L 259.300299 77.76 
L 259.590069 65.664 
L 259.627312 114.048 
L 259.663647 101.952 
L 260.026996 77.76 
L 260.14145 101.952 
L 260.163251 126.144 
L 260.210487 114.048 
L 260.57656 89.856 
L 260.653772 126.144 
L 260.664672 138.24 
L 260.757326 126.144 
L 260.937183 114.048 
L 261.104324 126.144 
L 261.137025 150.336 
L 261.480389 126.144 
L 261.576677 150.336 
L 261.598478 174.528 
L 261.660247 162.432 
L 262.02087 138.24 
L 262.112616 162.432 
L 262.134417 186.624 
L 262.204361 174.528 
L 262.570435 162.432 
L 262.622212 210.816 
L 262.934691 186.624 
L 263.057322 198.72 
L 263.090023 235.008 
L 263.118182 222.912 
L 263.481531 198.72 
L 263.551475 247.104 
L 263.662297 235.008 
L 264.026553 210.816 
L 264.082872 259.2 
L 264.391719 235.008 
L 264.542508 247.104 
L 264.58066 271.296 
L 264.93765 247.104 
L 265.038479 271.296 
L 265.142033 283.392 
L 265.483581 259.2 
L 265.512649 283.392 
L 265.664347 271.296 
L 265.687964 283.392 
L 265.850563 271.296 
L 265.86873 283.392 
L 266.03042 271.296 
L 266.054946 283.392 
L 266.213911 271.296 
L 266.234804 283.392 
L 266.393769 271.296 
L 266.418295 283.392 
L 266.575443 271.296 
L 266.598152 283.392 
L 266.757117 271.296 
L 266.779826 283.392 
L 266.936974 271.296 
L 266.9615 283.392 
L 267.120465 271.296 
L 267.141358 283.392 
L 267.303048 271.296 
L 267.324849 283.392 
L 267.485631 271.296 
L 267.507431 283.392 
L 267.667305 271.296 
L 267.690014 283.392 
L 267.845345 271.296 
L 267.871688 283.392 
L 268.049729 295.488 
L 278.927473 283.392 
L 279.110055 271.296 
L 279.131856 283.392 
L 279.292638 271.296 
L 279.314439 283.392 
L 279.473404 271.296 
L 279.497021 283.392 
L 279.655986 271.296 
L 279.677787 283.392 
L 279.834935 271.296 
L 279.86037 283.392 
L 280.021151 271.296 
L 280.039319 283.392 
L 280.203734 271.296 
L 280.225535 283.392 
L 280.26187 259.2 
L 280.440819 77.76 
L 280.488054 126.144 
L 280.647927 114.048 
L 280.784183 53.568 
L 280.786 65.664 
L 281.248361 53.568 
L 281.282879 65.664 
L 281.751598 53.568 
L 281.787025 65.664 
L 282.259378 53.568 
L 282.290262 77.76 
L 282.291171 65.664 
L 282.737181 77.76 
L 282.770791 65.664 
L 283.190458 77.76 
L 283.224068 65.664 
L 283.694604 77.76 
L 283.728214 65.664 
L 284.1933 77.76 
L 284.226909 65.664 
L 284.668378 77.76 
L 284.731055 65.664 
L 285.183424 77.76 
L 285.212492 65.664 
L 285.216125 77.76 
L 285.458661 65.664 
L 285.69302 77.76 
L 285.711188 65.664 
L 285.725722 89.856 
L 285.833818 77.76 
L 286.149023 65.664 
L 286.185357 114.048 
L 286.198075 101.952 
L 286.55779 77.76 
L 286.65771 101.952 
L 286.68042 126.144 
L 286.738555 114.048 
L 287.103721 89.856 
L 287.196374 114.048 
L 287.217267 138.24 
L 287.285395 126.144 
L 287.641476 101.952 
L 287.687803 150.336 
L 288.005733 126.144 
L 288.183774 138.24 
L 288.191041 126.144 
L 288.216475 162.432 
L 288.554389 138.24 
L 288.675202 162.432 
L 288.696095 186.624 
L 288.735155 174.528 
L 289.09487 150.336 
L 289.216592 174.528 
L 289.238393 198.72 
L 289.278361 186.624 
L 289.642618 162.432 
L 289.707112 210.816 
L 290.165839 222.912 
L 290.198541 259.2 
L 290.668169 271.296 
L 290.694511 295.488 
L 306.17588 283.392 
L 306.356645 271.296 
L 306.380263 283.392 
L 306.539228 271.296 
L 306.561029 283.392 
L 306.717269 271.296 
L 306.743611 283.392 
L 306.897126 271.296 
L 306.921652 283.392 
L 307.0788 271.296 
L 307.10151 283.392 
L 307.262291 271.296 
L 307.283184 283.392 
L 307.445782 271.296 
L 307.466675 283.392 
L 307.514818 247.104 
L 307.688317 162.432 
L 307.751903 235.008 
L 307.895426 222.912 
L 307.922677 210.816 
L 308.126152 198.72 
L 308.146136 210.816 
L 308.153403 198.72 
L 308.64574 210.816 
L 308.653916 198.72 
L 308.810156 210.816 
L 308.817423 198.72 
L 308.838315 210.816 
L 309.146253 198.72 
L 309.189855 210.816 
L 309.4769 198.72 
L 309.52141 210.816 
L 309.793013 198.72 
L 309.836615 210.816 
L 310.15727 198.72 
L 310.200872 210.816 
L 310.503359 198.72 
L 310.546961 210.816 
L 310.845815 198.72 
L 310.890325 210.816 
L 311.190088 198.72 
L 311.23369 210.816 
L 311.547986 198.72 
L 311.585229 210.816 
L 311.8968 198.72 
L 311.927685 222.912 
L 312.21473 210.816 
L 312.310109 235.008 
L 312.539019 222.912 
L 312.668916 247.104 
L 312.857857 235.008 
L 313.000471 259.2 
L 313.17397 247.104 
L 313.327485 259.2 
L 313.354736 271.296 
L 313.492808 259.2 
L 314.767253 210.816 
L 322.225888 198.72 
L 322.26949 210.816 
L 322.562894 198.72 
L 322.599228 222.912 
L 322.899899 235.008 
L 322.92715 247.104 
L 323.255981 259.2 
L 323.283232 271.296 
L 323.934534 295.488 
L 327.852338 283.392 
L 328.123941 198.72 
L 328.1412 210.816 
L 328.455497 198.72 
L 328.500007 210.816 
L 328.828837 198.72 
L 328.872439 210.816 
L 329.172202 198.72 
L 329.215803 210.816 
L 329.520108 198.72 
L 329.563709 210.816 
L 329.90344 198.72 
L 329.946134 210.816 
L 330.229545 198.72 
L 330.273147 210.816 
L 330.597436 198.72 
L 330.640129 210.816 
L 330.928083 198.72 
L 330.970776 210.816 
L 331.26963 198.72 
L 331.313232 210.816 
L 331.643879 198.72 
L 331.687481 210.816 
L 332.002686 198.72 
L 332.046288 210.816 
L 332.321524 198.72 
L 332.368759 210.816 
L 332.659438 198.72 
L 332.707582 210.816 
L 332.984635 198.72 
L 333.033687 210.816 
L 333.329816 198.72 
L 333.373418 210.816 
L 333.707698 198.72 
L 333.7513 210.816 
L 334.081947 198.72 
L 334.124641 210.816 
L 334.456196 198.72 
L 334.499798 210.816 
L 334.825903 198.72 
L 334.869505 210.816 
L 335.189251 198.72 
L 335.232853 210.816 
L 335.571676 198.72 
L 335.608011 222.912 
L 335.896873 235.008 
L 335.924124 247.104 
L 336.256587 259.2 
L 336.283839 271.296 
L 336.89063 295.488 
L 340.61041 283.392 
L 340.814794 295.488 
L 341.034619 114.048 
L 341.058237 138.24 
L 341.172692 198.72 
L 341.583275 210.816 
L 341.623244 247.104 
L 342.102864 259.2 
L 342.130115 283.392 
L 342.576125 295.488 
L 343.312814 283.392 
L 343.517197 295.488 
L 344.216643 283.392 
L 344.421027 295.488 
L 353.313979 283.392 
L 353.518363 295.488 
L 353.538347 283.392 
L 353.742731 295.488 
L 353.766348 283.392 
L 353.970732 295.488 
L 353.994349 283.392 
L 354.198733 295.488 
L 354.220534 283.392 
L 354.424917 295.488 
L 354.449443 283.392 
L 354.653827 295.488 
L 354.672903 283.392 
L 354.877286 295.488 
L 354.904537 283.392 
L 355.108921 295.488 
L 355.129813 283.392 
L 355.334197 295.488 
L 355.355998 283.392 
L 355.560381 295.488 
L 355.583999 283.392 
L 355.788382 295.488 
L 355.811091 283.392 
L 356.015475 295.488 
L 356.037276 283.392 
L 356.241659 295.488 
L 356.260735 283.392 
L 356.465119 295.488 
L 356.491461 283.392 
L 356.695845 295.488 
L 356.723096 283.392 
L 356.92748 295.488 
L 383.801638 283.392 
L 383.997846 114.048 
L 384.046898 162.432 
L 384.061432 174.528 
L 384.205863 162.432 
L 384.260365 114.048 
L 384.578295 101.952 
L 384.624622 114.048 
L 385.019763 101.952 
L 385.066999 114.048 
L 385.535718 101.952 
L 385.578411 114.048 
L 386.03623 101.952 
L 386.078016 114.048 
L 386.523117 101.952 
L 386.564902 114.048 
L 386.996379 101.952 
L 387.037255 114.048 
L 387.47509 101.952 
L 387.518692 126.144 
L 387.578645 114.048 
L 387.942901 126.144 
L 387.945626 114.048 
L 387.983778 150.336 
L 388.025563 138.24 
L 388.255381 126.144 
L 388.46794 138.24 
L 388.508817 162.432 
L 388.940293 138.24 
L 389.032947 174.528 
L 389.046572 186.624 
L 389.399929 162.432 
L 389.551627 174.528 
L 389.592503 210.816 
L 390.053047 222.912 
L 390.093016 259.2 
L 390.56991 271.296 
L 390.601703 295.488 
L 395.107224 283.392 
L 395.33795 101.952 
L 395.36611 126.144 
L 395.523258 114.048 
L 395.824837 126.144 
L 395.829379 114.048 
L 395.865714 150.336 
L 395.977443 138.24 
L 396.201811 126.144 
L 396.326258 150.336 
L 396.353509 174.528 
L 396.428904 162.432 
L 396.655088 150.336 
L 396.822229 162.432 
L 396.863105 198.72 
L 396.882181 186.624 
L 397.111999 174.528 
L 397.305482 186.624 
L 397.346359 210.816 
L 397.795094 186.624 
L 397.86413 235.008 
L 398.259272 210.816 
L 398.383718 235.008 
L 398.41097 259.2 
L 398.487273 247.104 
" clip-path="url(#p2180c66213)" style="fill: none; stroke: #1f77b4; stroke-width: 1.5; stroke-linecap: square"/>
   </g>
   <g id="patch_3">
    <path d="M 57.6 307.584 
L 57.6 41.472 
" style="fill: none; stroke: #000000; stroke-width: 0.8; stroke-linejoin: miter; stroke-linecap: square"/>
   </g>
   <g id="patch_4">
    <path d="M 414.72 307.584 
L 414.72 41.472 
" style="fill: none; stroke: #000000; stroke-width: 0.8; stroke-linejoin: miter; stroke-linecap: square"/>
   </g>
   <g id="patch_5">
    <path d="M 57.6 307.584 
L 414.72 307.584 
" style="fill: none; stroke: #000000; stroke-width: 0.8; stroke-linejoin: miter; stroke-linecap: square"/>
   </g>
   <g id="patch_6">
    <path d="M 57.6 41.472 
L 414.72 41.472 
" style="fill: none; stroke: #000000; stroke-width: 0.8; stroke-linejoin: miter; stroke-linecap: square"/>
   </g>
   <g id="text_19">
    <!-- Queue size (y-axis) between S5 and sensors that follow at a time (x-axis). -->
    <g transform="translate(14.282813 35.472) scale(0.12 -0.12)">
     <defs>
      <path id="DejaVuSans-51" d="M 2522 4238 
Q 1834 4238 1429 3725 
Q 1025 3213 1025 2328 
Q 1025 1447 1429 934 
Q 1834 422 2522 422 
Q 3209 422 3611 934 
Q 4013 1447 4013 2328 
Q 4013 3213 3611 3725 
Q 3209 4238 2522 4238 
z
M 3406 84 
L 4238 -825 
L 3475 -825 
L 2784 -78 
Q 2681 -84 2626 -87 
Q 2572 -91 2522 -91 
Q 1538 -91 948 567 
Q 359 1225 359 2328 
Q 359 3434 948 4092 
Q 1538 4750 2522 4750 
Q 3503 4750 4090 4092 
Q 4678 3434 4678 2328 
Q 4678 1516 4351 937 
Q 4025 359 3406 84 
z
" transform="scale(0.015625)"/>
      <path id="DejaVuSans-75" d="M 544 1381 
L 544 3500 
L 1119 3500 
L 1119 1403 
Q 1119 906 1312 657 
Q 1506 409 1894 409 
Q 2359 409 2629 706 
Q 2900 1003 2900 1516 
L 2900 3500 
L 3475 3500 
L 3475 0 
L 2900 0 
L 2900 538 
Q 2691 219 2414 64 
Q 2138 -91 1772 -91 
Q 1169 -91 856 284 
Q 544 659 544 1381 
z
M 1991 3584 
L 1991 3584 
z
" transform="scale(0.015625)"/>
      <path id="DejaVuSans-20" transform="scale(0.015625)"/>
      <path id="DejaVuSans-73" d="M 2834 3397 
L 2834 2853 
Q 2591 2978 2328 3040 
Q 2066 3103 1784 3103 
Q 1356 3103 1142 2972 
Q 928 2841 928 2578 
Q 928 2378 1081 2264 
Q 1234 2150 1697 2047 
L 1894 2003 
Q 2506 1872 2764 1633 
Q 3022 1394 3022 966 
Q 3022 478 2636 193 
Q 2250 -91 1575 -91 
Q 1294 -91 989 -36 
Q 684 19 347 128 
L 347 722 
Q 666 556 975 473 
Q 1284 391 1588 391 
Q 1994 391 2212 530 
Q 2431 669 2431 922 
Q 2431 1156 2273 1281 
Q 2116 1406 1581 1522 
L 1381 1569 
Q 847 1681 609 1914 
Q 372 2147 372 2553 
Q 372 3047 722 3315 
Q 1072 3584 1716 3584 
Q 2034 3584 2315 3537 
Q 2597 3491 2834 3397 
z
" transform="scale(0.015625)"/>
      <path id="DejaVuSans-69" d="M 603 3500 
L 1178 3500 
L 1178 0 
L 603 0 
L 603 3500 
z
M 603 4863 
L 1178 4863 
L 1178 4134 
L 603 4134 
L 603 4863 
z
" transform="scale(0.015625)"/>
      <path id="DejaVuSans-7a" d="M 353 3500 
L 3084 3500 
L 3084 2975 
L 922 459 
L 3084 459 
L 3084 0 
L 275 0 
L 275 525 
L 2438 3041 
L 353 3041 
L 353 3500 
z
" transform="scale(0.015625)"/>
      <path id="DejaVuSans-28" d="M 1984 4856 
Q 1566 4138 1362 3434 
Q 1159 2731 1159 2009 
Q 1159 1288 1364 580 
Q 1569 -128 1984 -844 
L 1484 -844 
Q 1016 -109 783 600 
Q 550 1309 550 2009 
Q 550 2706 781 3412 
Q 1013 4119 1484 4856 
L 1984 4856 
z
" transform="scale(0.015625)"/>
      <path id="DejaVuSans-79" d="M 2059 -325 
Q 1816 -950 1584 -1140 
Q 1353 -1331 966 -1331 
L 506 -1331 
L 506 -850 
L 844 -850 
Q 1081 -850 1212 -737 
Q 1344 -625 1503 -206 
L 1606 56 
L 191 3500 
L 800 3500 
L 1894 763 
L 2988 3500 
L 3597 3500 
L 2059 -325 
z
" transform="scale(0.015625)"/>
      <path id="DejaVuSans-2d" d="M 313 2009 
L 1997 2009 
L 1997 1497 
L 313 1497 
L 313 2009 
z
" transform="scale(0.015625)"/>
      <path id="DejaVuSans-61" d="M 2194 1759 
Q 1497 1759 1228 1600 
Q 959 1441 959 1056 
Q 959 750 1161 570 
Q 1363 391 1709 391 
Q 2188 391 2477 730 
Q 2766 1069 2766 1631 
L 2766 1759 
L 2194 1759 
z
M 3341 1997 
L 3341 0 
L 2766 0 
L 2766 531 
Q 2569 213 2275 61 
Q 1981 -91 1556 -91 
Q 1019 -91 701 211 
Q 384 513 384 1019 
Q 384 1609 779 1909 
Q 1175 2209 1959 2209 
L 2766 2209 
L 2766 2266 
Q 2766 2663 2505 2880 
Q 2244 3097 1772 3097 
Q 1472 3097 1187 3025 
Q 903 2953 641 2809 
L 641 3341 
Q 956 3463 1253 3523 
Q 1550 3584 1831 3584 
Q 2591 3584 2966 3190 
Q 3341 2797 3341 1997 
z
" transform="scale(0.015625)"/>
      <path id="DejaVuSans-78" d="M 3513 3500 
L 2247 1797 
L 3578 0 
L 2900 0 
L 1881 1375 
L 863 0 
L 184 0 
L 1544 1831 
L 300 3500 
L 978 3500 
L 1906 2253 
L 2834 3500 
L 3513 3500 
z
" transform="scale(0.015625)"/>
      <path id="DejaVuSans-29" d="M 513 4856 
L 1013 4856 
Q 1481 4119 1714 3412 
Q 1947 2706 1947 2009 
Q 1947 1309 1714 600 
Q 1481 -109 1013 -844 
L 513 -844 
Q 928 -128 1133 580 
Q 1338 1288 1338 2009 
Q 1338 2731 1133 3434 
Q 928 4138 513 4856 
z
" transform="scale(0.015625)"/>
      <path id="DejaVuSans-62" d="M 3116 1747 
Q 3116 2381 2855 2742 
Q 2594 3103 2138 3103 
Q 1681 3103 1420 2742 
Q 1159 2381 1159 1747 
Q 1159 1113 1420 752 
Q 1681 391 2138 391 
Q 2594 391 2855 752 
Q 3116 1113 3116 1747 
z
M 1159 2969 
Q 1341 3281 1617 3432 
Q 1894 3584 2278 3584 
Q 2916 3584 3314 3078 
Q 3713 2572 3713 1747 
Q 3713 922 3314 415 
Q 2916 -91 2278 -91 
Q 1894 -91 1617 61 
Q 1341 213 1159 525 
L 1159 0 
L 581 0 
L 581 4863 
L 1159 4863 
L 1159 2969 
z
" transform="scale(0.015625)"/>
      <path id="DejaVuSans-74" d="M 1172 4494 
L 1172 3500 
L 2356 3500 
L 2356 3053 
L 1172 3053 
L 1172 1153 
Q 1172 725 1289 603 
Q 1406 481 1766 481 
L 2356 481 
L 2356 0 
L 1766 0 
Q 1100 0 847 248 
Q 594 497 594 1153 
L 594 3053 
L 172 3053 
L 172 3500 
L 594 3500 
L 594 4494 
L 1172 4494 
z
" transform="scale(0.015625)"/>
      <path id="DejaVuSans-77" d="M 269 3500 
L 844 3500 
L 1563 769 
L 2278 3500 
L 2956 3500 
L 3675 769 
L 4391 3500 
L 4966 3500 
L 4050 0 
L 3372 0 
L 2619 2869 
L 1863 0 
L 1184 0 
L 269 3500 
z
" transform="scale(0.015625)"/>
      <path id="DejaVuSans-6e" d="M 3513 2113 
L 3513 0 
L 2938 0 
L 2938 2094 
Q 2938 2591 2744 2837 
Q 2550 3084 2163 3084 
Q 1697 3084 1428 2787 
Q 1159 2491 1159 1978 
L 1159 0 
L 581 0 
L 581 3500 
L 1159 3500 
L 1159 2956 
Q 1366 3272 1645 3428 
Q 1925 3584 2291 3584 
Q 2894 3584 3203 3211 
Q 3513 2838 3513 2113 
z
" transform="scale(0.015625)"/>
      <path id="DejaVuSans-53" d="M 3425 4513 
L 3425 3897 
Q 3066 4069 2747 4153 
Q 2428 4238 2131 4238 
Q 1616 4238 1336 4038 
Q 1056 3838 1056 3469 
Q 1056 3159 1242 3001 
Q 1428 2844 1947 2747 
L 2328 2669 
Q 3034 2534 3370 2195 
Q 3706 1856 3706 1288 
Q 3706 609 3251 259 
Q 2797 -91 1919 -91 
Q 1588 -91 1214 -16 
Q 841 59 441 206 
L 441 856 
Q 825 641 1194 531 
Q 1563 422 1919 422 
Q 2459 422 2753 634 
Q 3047 847 3047 1241 
Q 3047 1584 2836 1778 
Q 2625 1972 2144 2069 
L 1759 2144 
Q 1053 2284 737 2584 
Q 422 2884 422 3419 
Q 422 4038 858 4394 
Q 1294 4750 2059 4750 
Q 2388 4750 2728 4690 
Q 3069 4631 3425 4513 
z
" transform="scale(0.015625)"/>
      <path id="DejaVuSans-64" d="M 2906 2969 
L 2906 4863 
L 3481 4863 
L 3481 0 
L 2906 0 
L 2906 525 
Q 2725 213 2448 61 
Q 2172 -91 1784 -91 
Q 1150 -91 751 415 
Q 353 922 353 1747 
Q 353 2572 751 3078 
Q 1150 3584 1784 3584 
Q 2172 3584 2448 3432 
Q 2725 3281 2906 2969 
z
M 947 1747 
Q 947 1113 1208 752 
Q 1469 391 1925 391 
Q 2381 391 2643 752 
Q 2906 1113 2906 1747 
Q 2906 2381 2643 2742 
Q 2381 3103 1925 3103 
Q 1469 3103 1208 2742 
Q 947 2381 947 1747 
z
" transform="scale(0.015625)"/>
      <path id="DejaVuSans-6f" d="M 1959 3097 
Q 1497 3097 1228 2736 
Q 959 2375 959 1747 
Q 959 1119 1226 758 
Q 1494 397 1959 397 
Q 2419 397 2687 759 
Q 2956 1122 2956 1747 
Q 2956 2369 2687 2733 
Q 2419 3097 1959 3097 
z
M 1959 3584 
Q 2709 3584 3137 3096 
Q 3566 2609 3566 1747 
Q 3566 888 3137 398 
Q 2709 -91 1959 -91 
Q 1206 -91 779 398 
Q 353 888 353 1747 
Q 353 2609 779 3096 
Q 1206 3584 1959 3584 
z
" transform="scale(0.015625)"/>
      <path id="DejaVuSans-72" d="M 2631 2963 
Q 2534 3019 2420 3045 
Q 2306 3072 2169 3072 
Q 1681 3072 1420 2755 
Q 1159 2438 1159 1844 
L 1159 0 
L 581 0 
L 581 3500 
L 1159 3500 
L 1159 2956 
Q 1341 3275 1631 3429 
Q 1922 3584 2338 3584 
Q 2397 3584 2469 3576 
Q 2541 3569 2628 3553 
L 2631 2963 
z
" transform="scale(0.015625)"/>
      <path id="DejaVuSans-68" d="M 3513 2113 
L 3513 0 
L 2938 0 
L 2938 2094 
Q 2938 2591 2744 2837 
Q 2550 3084 2163 3084 
Q 1697 3084 1428 2787 
Q 1159 2491 1159 1978 
L 1159 0 
L 581 0 
L 581 4863 
L 1159 4863 
L 1159 2956 
Q 1366 3272 1645 3428 
Q 1925 3584 2291 3584 
Q 2894 3584 3203 3211 
Q 3513 2838 3513 2113 
z
" transform="scale(0.015625)"/>
      <path id="DejaVuSans-66" d="M 2375 4863 
L 2375 4384 
L 1825 4384 
Q 1516 4384 1395 4259 
Q 1275 4134 1275 3809 
L 1275 3500 
L 2222 3500 
L 2222 3053 
L 1275 3053 
L 1275 0 
L 697 0 
L 697 3053 
L 147 3053 
L 147 3500 
L 697 3500 
L 697 3744 
Q 697 4328 969 4595 
Q 1241 4863 1831 4863 
L 2375 4863 
z
" transform="scale(0.015625)"/>
      <path id="DejaVuSans-6c" d="M 603 4863 
L 1178 4863 
L 1178 0 
L 603 0 
L 603 4863 
z
" transform="scale(0.015625)"/>
      <path id="DejaVuSans-6d" d="M 3328 2828 
Q 3544 3216 3844 3400 
Q 4144 3584 4550 3584 
Q 5097 3584 5394 3201 
Q 5691 2819 5691 2113 
L 5691 0 
L 5113 0 
L 5113 2094 
Q 5113 2597 4934 2840 
Q 4756 3084 4391 3084 
Q 3944 3084 3684 2787 
Q 3425 2491 3425 1978 
L 3425 0 
L 2847 0 
L 2847 2094 
Q 2847 2600 2669 2842 
Q 2491 3084 2119 3084 
Q 1678 3084 1418 2786 
Q 1159 2488 1159 1978 
L 1159 0 
L 581 0 
L 581 3500 
L 1159 3500 
L 1159 2956 
Q 1356 3278 1631 3431 
Q 1906 3584 2284 3584 
Q 2666 3584 2933 3390 
Q 3200 3197 3328 2828 
z
" transform="scale(0.015625)"/>
     </defs>
     <use xlink:href="#DejaVuSans-51"/>
     <use xlink:href="#DejaVuSans-75" x="78.710938"/>
     <use xlink:href="#DejaVuSans-65" x="142.089844"/>
     <use xlink:href="#DejaVuSans-75" x="203.613281"/>
     <use xlink:href="#DejaVuSans-65" x="266.992188"/>
     <use xlink:href="#DejaVuSans-20" x="328.515625"/>
     <use xlink:href="#DejaVuSans-73" x="360.302734"/>
     <use xlink:href="#DejaVuSans-69" x="412.402344"/>
     <use xlink:href="#DejaVuSans-7a" x="440.185547"/>
     <use xlink:href="#DejaVuSans-65" x="492.675781"/>
     <use xlink:href="#DejaVuSans-20" x="554.199219"/>
     <use xlink:href="#DejaVuSans-28" x="585.986328"/>
     <use xlink:href="#DejaVuSans-79" x="625"/>
     <use xlink:href="#DejaVuSans-2d" x="682.429688"/>
     <use xlink:href="#DejaVuSans-61" x="718.513672"/>
     <use xlink:href="#DejaVuSans-78" x="779.792969"/>
     <use xlink:href="#DejaVuSans-69" x="838.972656"/>
     <use xlink:href="#DejaVuSans-73" x="866.755859"/>
     <use xlink:href="#DejaVuSans-29" x="918.855469"/>
     <use xlink:href="#DejaVuSans-20" x="957.869141"/>
     <use xlink:href="#DejaVuSans-62" x="989.65625"/>
     <use xlink:href="#DejaVuSans-65" x="1053.132812"/>
     <use xlink:href="#DejaVuSans-74" x="1114.65625"/>
     <use xlink:href="#DejaVuSans-77" x="1153.865234"/>
     <use xlink:href="#DejaVuSans-65" x="1235.652344"/>
     <use xlink:href="#DejaVuSans-65" x="1297.175781"/>
     <use xlink:href="#DejaVuSans-6e" x="1358.699219"/>
     <use xlink:href="#DejaVuSans-20" x="1422.078125"/>
     <use xlink:href="#DejaVuSans-53" x="1453.865234"/>
     <use xlink:href="#DejaVuSans-35" x="1517.341797"/>
     <use xlink:href="#DejaVuSans-20" x="1580.964844"/>
     <use xlink:href="#DejaVuSans-61" x="1612.751953"/>
     <use xlink:href="#DejaVuSans-6e" x="1674.03125"/>
     <use xlink:href="#DejaVuSans-64" x="1737.410156"/>
     <use xlink:href="#DejaVuSans-20" x="1800.886719"/>
     <use xlink:href="#DejaVuSans-73" x="1832.673828"/>
     <use xlink:href="#DejaVuSans-65" x="1884.773438"/>
     <use xlink:href="#DejaVuSans-6e" x="1946.296875"/>
     <use xlink:href="#DejaVuSans-73" x="2009.675781"/>
     <use xlink:href="#DejaVuSans-6f" x="2061.775391"/>
     <use xlink:href="#DejaVuSans-72" x="2122.957031"/>
     <use xlink:href="#DejaVuSans-73" x="2164.070312"/>
     <use xlink:href="#DejaVuSans-20" x="2216.169922"/>
     <use xlink:href="#DejaVuSans-74" x="2247.957031"/>
     <use xlink:href="#DejaVuSans-68" x="2287.166016"/>
     <use xlink:href="#DejaVuSans-61" x="2350.544922"/>
     <use xlink:href="#DejaVuSans-74" x="2411.824219"/>
     <use xlink:href="#DejaVuSans-20" x="2451.033203"/>
     <use xlink:href="#DejaVuSans-66" x="2482.820312"/>
     <use xlink:href="#DejaVuSans-6f" x="2518.025391"/>
     <use xlink:href="#DejaVuSans-6c" x="2579.207031"/>
     <use xlink:href="#DejaVuSans-6c" x="2606.990234"/>
     <use xlink:href="#DejaVuSans-6f" x="2634.773438"/>
     <use xlink:href="#DejaVuSans-77" x="2695.955078"/>
     <use xlink:href="#DejaVuSans-20" x="2777.742188"/>
     <use xlink:href="#DejaVuSans-61" x="2809.529297"/>
     <use xlink:href="#DejaVuSans-74" x="2870.808594"/>
     <use xlink:href="#DejaVuSans-20" x="2910.017578"/>
     <use xlink:href="#DejaVuSans-61" x="2941.804688"/>
     <use xlink:href="#DejaVuSans-20" x="3003.083984"/>
     <use xlink:href="#DejaVuSans-74" x="3034.871094"/>
     <use xlink:href="#DejaVuSans-69" x="3074.080078"/>
     <use xlink:href="#DejaVuSans-6d" x="3101.863281"/>
     <use xlink:href="#DejaVuSans-65" x="3199.275391"/>
     <use xlink:href="#DejaVuSans-20" x="3260.798828"/>
     <use xlink:href="#DejaVuSans-28" x="3292.585938"/>
     <use xlink:href="#DejaVuSans-78" x="3331.599609"/>
     <use xlink:href="#DejaVuSans-2d" x="3390.779297"/>
     <use xlink:href="#DejaVuSans-61" x="3426.863281"/>
     <use xlink:href="#DejaVuSans-78" x="3488.142578"/>
     <use xlink:href="#DejaVuSans-69" x="3547.322266"/>
     <use xlink:href="#DejaVuSans-73" x="3575.105469"/>
     <use xlink:href="#DejaVuSans-29" x="3627.205078"/>
     <use xlink:href="#DejaVuSans-2e" x="3666.21875"/>
    </g>
   </g>
  </g>
 </g>
 <defs>
  <clipPath id="p2180c66213">
   <rect x="57.6" y="41.472" width="357.12" height="266.112"/>
  </clipPath>
 </defs>
</svg>
