<?xml version="1.0" encoding="utf-8" standalone="no"?>
<!DOCTYPE svg PUBLIC "-//W3C//DTD SVG 1.1//EN"
  "http://www.w3.org/Graphics/SVG/1.1/DTD/svg11.dtd">
<svg xmlns:xlink="http://www.w3.org/1999/xlink" width="460.8pt" height="345.6pt" viewBox="0 0 460.8 345.6" xmlns="http://www.w3.org/2000/svg" version="1.1">
 <metadata>
  <rdf:RDF xmlns:dc="http://purl.org/dc/elements/1.1/" xmlns:cc="http://creativecommons.org/ns#" xmlns:rdf="http://www.w3.org/1999/02/22-rdf-syntax-ns#">
   <cc:Work>
    <dc:type rdf:resource="http://purl.org/dc/dcmitype/StillImage"/>
    <dc:date>2024-03-08T12:57:16.788961</dc:date>
    <dc:format>image/svg+xml</dc:format>
    <dc:creator>
     <cc:Agent>
      <dc:title>Matplotlib v3.8.2, https://matplotlib.org/</dc:title>
     </cc:Agent>
    </dc:creator>
   </cc:Work>
  </rdf:RDF>
 </metadata>
 <defs>
  <style type="text/css">*{stroke-linejoin: round; stroke-linecap: butt}</style>
 </defs>
 <g id="figure_1">
  <g id="patch_1">
   <path d="M 0 345.6 
L 460.8 345.6 
L 460.8 0 
L 0 0 
z
" style="fill: #ffffff"/>
  </g>
  <g id="axes_1">
   <g id="patch_2">
    <path d="M 57.6 307.584 
L 414.72 307.584 
L 414.72 41.472 
L 57.6 41.472 
z
" style="fill: #ffffff"/>
   </g>
   <g id="matplotlib.axis_1">
    <g id="xtick_1">
     <g id="line2d_1">
      <defs>
       <path id="mf3266437f0" d="M 0 0 
L 0 3.5 
" style="stroke: #000000; stroke-width: 0.8"/>
      </defs>
      <g>
       <use xlink:href="#mf3266437f0" x="71.450842" y="307.584" style="stroke: #000000; stroke-width: 0.8"/>
      </g>
     </g>
     <g id="text_1">
      <!-- 0.0 -->
      <g transform="translate(63.49928 322.182437) scale(0.1 -0.1)">
       <defs>
        <path id="DejaVuSans-30" d="M 2034 4250 
Q 1547 4250 1301 3770 
Q 1056 3291 1056 2328 
Q 1056 1369 1301 889 
Q 1547 409 2034 409 
Q 2525 409 2770 889 
Q 3016 1369 3016 2328 
Q 3016 3291 2770 3770 
Q 2525 4250 2034 4250 
z
M 2034 4750 
Q 2819 4750 3233 4129 
Q 3647 3509 3647 2328 
Q 3647 1150 3233 529 
Q 2819 -91 2034 -91 
Q 1250 -91 836 529 
Q 422 1150 422 2328 
Q 422 3509 836 4129 
Q 1250 4750 2034 4750 
z
" transform="scale(0.015625)"/>
        <path id="DejaVuSans-2e" d="M 684 794 
L 1344 794 
L 1344 0 
L 684 0 
L 684 794 
z
" transform="scale(0.015625)"/>
       </defs>
       <use xlink:href="#DejaVuSans-30"/>
       <use xlink:href="#DejaVuSans-2e" x="63.623047"/>
       <use xlink:href="#DejaVuSans-30" x="95.410156"/>
      </g>
     </g>
    </g>
    <g id="xtick_2">
     <g id="line2d_2">
      <g>
       <use xlink:href="#mf3266437f0" x="116.906661" y="307.584" style="stroke: #000000; stroke-width: 0.8"/>
      </g>
     </g>
     <g id="text_2">
      <!-- 0.5 -->
      <g transform="translate(108.955098 322.182437) scale(0.1 -0.1)">
       <defs>
        <path id="DejaVuSans-35" d="M 691 4666 
L 3169 4666 
L 3169 4134 
L 1269 4134 
L 1269 2991 
Q 1406 3038 1543 3061 
Q 1681 3084 1819 3084 
Q 2600 3084 3056 2656 
Q 3513 2228 3513 1497 
Q 3513 744 3044 326 
Q 2575 -91 1722 -91 
Q 1428 -91 1123 -41 
Q 819 9 494 109 
L 494 744 
Q 775 591 1075 516 
Q 1375 441 1709 441 
Q 2250 441 2565 725 
Q 2881 1009 2881 1497 
Q 2881 1984 2565 2268 
Q 2250 2553 1709 2553 
Q 1456 2553 1204 2497 
Q 953 2441 691 2322 
L 691 4666 
z
" transform="scale(0.015625)"/>
       </defs>
       <use xlink:href="#DejaVuSans-30"/>
       <use xlink:href="#DejaVuSans-2e" x="63.623047"/>
       <use xlink:href="#DejaVuSans-35" x="95.410156"/>
      </g>
     </g>
    </g>
    <g id="xtick_3">
     <g id="line2d_3">
      <g>
       <use xlink:href="#mf3266437f0" x="162.362479" y="307.584" style="stroke: #000000; stroke-width: 0.8"/>
      </g>
     </g>
     <g id="text_3">
      <!-- 1.0 -->
      <g transform="translate(154.410916 322.182437) scale(0.1 -0.1)">
       <defs>
        <path id="DejaVuSans-31" d="M 794 531 
L 1825 531 
L 1825 4091 
L 703 3866 
L 703 4441 
L 1819 4666 
L 2450 4666 
L 2450 531 
L 3481 531 
L 3481 0 
L 794 0 
L 794 531 
z
" transform="scale(0.015625)"/>
       </defs>
       <use xlink:href="#DejaVuSans-31"/>
       <use xlink:href="#DejaVuSans-2e" x="63.623047"/>
       <use xlink:href="#DejaVuSans-30" x="95.410156"/>
      </g>
     </g>
    </g>
    <g id="xtick_4">
     <g id="line2d_4">
      <g>
       <use xlink:href="#mf3266437f0" x="207.818297" y="307.584" style="stroke: #000000; stroke-width: 0.8"/>
      </g>
     </g>
     <g id="text_4">
      <!-- 1.5 -->
      <g transform="translate(199.866735 322.182437) scale(0.1 -0.1)">
       <use xlink:href="#DejaVuSans-31"/>
       <use xlink:href="#DejaVuSans-2e" x="63.623047"/>
       <use xlink:href="#DejaVuSans-35" x="95.410156"/>
      </g>
     </g>
    </g>
    <g id="xtick_5">
     <g id="line2d_5">
      <g>
       <use xlink:href="#mf3266437f0" x="253.274116" y="307.584" style="stroke: #000000; stroke-width: 0.8"/>
      </g>
     </g>
     <g id="text_5">
      <!-- 2.0 -->
      <g transform="translate(245.322553 322.182437) scale(0.1 -0.1)">
       <defs>
        <path id="DejaVuSans-32" d="M 1228 531 
L 3431 531 
L 3431 0 
L 469 0 
L 469 531 
Q 828 903 1448 1529 
Q 2069 2156 2228 2338 
Q 2531 2678 2651 2914 
Q 2772 3150 2772 3378 
Q 2772 3750 2511 3984 
Q 2250 4219 1831 4219 
Q 1534 4219 1204 4116 
Q 875 4013 500 3803 
L 500 4441 
Q 881 4594 1212 4672 
Q 1544 4750 1819 4750 
Q 2544 4750 2975 4387 
Q 3406 4025 3406 3419 
Q 3406 3131 3298 2873 
Q 3191 2616 2906 2266 
Q 2828 2175 2409 1742 
Q 1991 1309 1228 531 
z
" transform="scale(0.015625)"/>
       </defs>
       <use xlink:href="#DejaVuSans-32"/>
       <use xlink:href="#DejaVuSans-2e" x="63.623047"/>
       <use xlink:href="#DejaVuSans-30" x="95.410156"/>
      </g>
     </g>
    </g>
    <g id="xtick_6">
     <g id="line2d_6">
      <g>
       <use xlink:href="#mf3266437f0" x="298.729934" y="307.584" style="stroke: #000000; stroke-width: 0.8"/>
      </g>
     </g>
     <g id="text_6">
      <!-- 2.5 -->
      <g transform="translate(290.778371 322.182437) scale(0.1 -0.1)">
       <use xlink:href="#DejaVuSans-32"/>
       <use xlink:href="#DejaVuSans-2e" x="63.623047"/>
       <use xlink:href="#DejaVuSans-35" x="95.410156"/>
      </g>
     </g>
    </g>
    <g id="xtick_7">
     <g id="line2d_7">
      <g>
       <use xlink:href="#mf3266437f0" x="344.185752" y="307.584" style="stroke: #000000; stroke-width: 0.8"/>
      </g>
     </g>
     <g id="text_7">
      <!-- 3.0 -->
      <g transform="translate(336.23419 322.182437) scale(0.1 -0.1)">
       <defs>
        <path id="DejaVuSans-33" d="M 2597 2516 
Q 3050 2419 3304 2112 
Q 3559 1806 3559 1356 
Q 3559 666 3084 287 
Q 2609 -91 1734 -91 
Q 1441 -91 1130 -33 
Q 819 25 488 141 
L 488 750 
Q 750 597 1062 519 
Q 1375 441 1716 441 
Q 2309 441 2620 675 
Q 2931 909 2931 1356 
Q 2931 1769 2642 2001 
Q 2353 2234 1838 2234 
L 1294 2234 
L 1294 2753 
L 1863 2753 
Q 2328 2753 2575 2939 
Q 2822 3125 2822 3475 
Q 2822 3834 2567 4026 
Q 2313 4219 1838 4219 
Q 1578 4219 1281 4162 
Q 984 4106 628 3988 
L 628 4550 
Q 988 4650 1302 4700 
Q 1616 4750 1894 4750 
Q 2613 4750 3031 4423 
Q 3450 4097 3450 3541 
Q 3450 3153 3228 2886 
Q 3006 2619 2597 2516 
z
" transform="scale(0.015625)"/>
       </defs>
       <use xlink:href="#DejaVuSans-33"/>
       <use xlink:href="#DejaVuSans-2e" x="63.623047"/>
       <use xlink:href="#DejaVuSans-30" x="95.410156"/>
      </g>
     </g>
    </g>
    <g id="xtick_8">
     <g id="line2d_8">
      <g>
       <use xlink:href="#mf3266437f0" x="389.64157" y="307.584" style="stroke: #000000; stroke-width: 0.8"/>
      </g>
     </g>
     <g id="text_8">
      <!-- 3.5 -->
      <g transform="translate(381.690008 322.182437) scale(0.1 -0.1)">
       <use xlink:href="#DejaVuSans-33"/>
       <use xlink:href="#DejaVuSans-2e" x="63.623047"/>
       <use xlink:href="#DejaVuSans-35" x="95.410156"/>
      </g>
     </g>
    </g>
    <g id="text_9">
     <!-- 1e6 -->
     <g transform="translate(395.841875 334.860562) scale(0.1 -0.1)">
      <defs>
       <path id="DejaVuSans-65" d="M 3597 1894 
L 3597 1613 
L 953 1613 
Q 991 1019 1311 708 
Q 1631 397 2203 397 
Q 2534 397 2845 478 
Q 3156 559 3463 722 
L 3463 178 
Q 3153 47 2828 -22 
Q 2503 -91 2169 -91 
Q 1331 -91 842 396 
Q 353 884 353 1716 
Q 353 2575 817 3079 
Q 1281 3584 2069 3584 
Q 2775 3584 3186 3129 
Q 3597 2675 3597 1894 
z
M 3022 2063 
Q 3016 2534 2758 2815 
Q 2500 3097 2075 3097 
Q 1594 3097 1305 2825 
Q 1016 2553 972 2059 
L 3022 2063 
z
" transform="scale(0.015625)"/>
       <path id="DejaVuSans-36" d="M 2113 2584 
Q 1688 2584 1439 2293 
Q 1191 2003 1191 1497 
Q 1191 994 1439 701 
Q 1688 409 2113 409 
Q 2538 409 2786 701 
Q 3034 994 3034 1497 
Q 3034 2003 2786 2293 
Q 2538 2584 2113 2584 
z
M 3366 4563 
L 3366 3988 
Q 3128 4100 2886 4159 
Q 2644 4219 2406 4219 
Q 1781 4219 1451 3797 
Q 1122 3375 1075 2522 
Q 1259 2794 1537 2939 
Q 1816 3084 2150 3084 
Q 2853 3084 3261 2657 
Q 3669 2231 3669 1497 
Q 3669 778 3244 343 
Q 2819 -91 2113 -91 
Q 1303 -91 875 529 
Q 447 1150 447 2328 
Q 447 3434 972 4092 
Q 1497 4750 2381 4750 
Q 2619 4750 2861 4703 
Q 3103 4656 3366 4563 
z
" transform="scale(0.015625)"/>
      </defs>
      <use xlink:href="#DejaVuSans-31"/>
      <use xlink:href="#DejaVuSans-65" x="63.623047"/>
      <use xlink:href="#DejaVuSans-36" x="125.146484"/>
     </g>
    </g>
   </g>
   <g id="matplotlib.axis_2">
    <g id="ytick_1">
     <g id="line2d_9">
      <defs>
       <path id="me02243ea64" d="M 0 0 
L -3.5 0 
" style="stroke: #000000; stroke-width: 0.8"/>
      </defs>
      <g>
       <use xlink:href="#me02243ea64" x="57.6" y="295.488" style="stroke: #000000; stroke-width: 0.8"/>
      </g>
     </g>
     <g id="text_10">
      <!-- 0 -->
      <g transform="translate(44.2375 299.287219) scale(0.1 -0.1)">
       <use xlink:href="#DejaVuSans-30"/>
      </g>
     </g>
    </g>
    <g id="ytick_2">
     <g id="line2d_10">
      <g>
       <use xlink:href="#me02243ea64" x="57.6" y="258.269538" style="stroke: #000000; stroke-width: 0.8"/>
      </g>
     </g>
     <g id="text_11">
      <!-- 2 -->
      <g transform="translate(44.2375 262.068757) scale(0.1 -0.1)">
       <use xlink:href="#DejaVuSans-32"/>
      </g>
     </g>
    </g>
    <g id="ytick_3">
     <g id="line2d_11">
      <g>
       <use xlink:href="#me02243ea64" x="57.6" y="221.051077" style="stroke: #000000; stroke-width: 0.8"/>
      </g>
     </g>
     <g id="text_12">
      <!-- 4 -->
      <g transform="translate(44.2375 224.850296) scale(0.1 -0.1)">
       <defs>
        <path id="DejaVuSans-34" d="M 2419 4116 
L 825 1625 
L 2419 1625 
L 2419 4116 
z
M 2253 4666 
L 3047 4666 
L 3047 1625 
L 3713 1625 
L 3713 1100 
L 3047 1100 
L 3047 0 
L 2419 0 
L 2419 1100 
L 313 1100 
L 313 1709 
L 2253 4666 
z
" transform="scale(0.015625)"/>
       </defs>
       <use xlink:href="#DejaVuSans-34"/>
      </g>
     </g>
    </g>
    <g id="ytick_4">
     <g id="line2d_12">
      <g>
       <use xlink:href="#me02243ea64" x="57.6" y="183.832615" style="stroke: #000000; stroke-width: 0.8"/>
      </g>
     </g>
     <g id="text_13">
      <!-- 6 -->
      <g transform="translate(44.2375 187.631834) scale(0.1 -0.1)">
       <use xlink:href="#DejaVuSans-36"/>
      </g>
     </g>
    </g>
    <g id="ytick_5">
     <g id="line2d_13">
      <g>
       <use xlink:href="#me02243ea64" x="57.6" y="146.614154" style="stroke: #000000; stroke-width: 0.8"/>
      </g>
     </g>
     <g id="text_14">
      <!-- 8 -->
      <g transform="translate(44.2375 150.413373) scale(0.1 -0.1)">
       <defs>
        <path id="DejaVuSans-38" d="M 2034 2216 
Q 1584 2216 1326 1975 
Q 1069 1734 1069 1313 
Q 1069 891 1326 650 
Q 1584 409 2034 409 
Q 2484 409 2743 651 
Q 3003 894 3003 1313 
Q 3003 1734 2745 1975 
Q 2488 2216 2034 2216 
z
M 1403 2484 
Q 997 2584 770 2862 
Q 544 3141 544 3541 
Q 544 4100 942 4425 
Q 1341 4750 2034 4750 
Q 2731 4750 3128 4425 
Q 3525 4100 3525 3541 
Q 3525 3141 3298 2862 
Q 3072 2584 2669 2484 
Q 3125 2378 3379 2068 
Q 3634 1759 3634 1313 
Q 3634 634 3220 271 
Q 2806 -91 2034 -91 
Q 1263 -91 848 271 
Q 434 634 434 1313 
Q 434 1759 690 2068 
Q 947 2378 1403 2484 
z
M 1172 3481 
Q 1172 3119 1398 2916 
Q 1625 2713 2034 2713 
Q 2441 2713 2670 2916 
Q 2900 3119 2900 3481 
Q 2900 3844 2670 4047 
Q 2441 4250 2034 4250 
Q 1625 4250 1398 4047 
Q 1172 3844 1172 3481 
z
" transform="scale(0.015625)"/>
       </defs>
       <use xlink:href="#DejaVuSans-38"/>
      </g>
     </g>
    </g>
    <g id="ytick_6">
     <g id="line2d_14">
      <g>
       <use xlink:href="#me02243ea64" x="57.6" y="109.395692" style="stroke: #000000; stroke-width: 0.8"/>
      </g>
     </g>
     <g id="text_15">
      <!-- 10 -->
      <g transform="translate(37.875 113.194911) scale(0.1 -0.1)">
       <use xlink:href="#DejaVuSans-31"/>
       <use xlink:href="#DejaVuSans-30" x="63.623047"/>
      </g>
     </g>
    </g>
    <g id="ytick_7">
     <g id="line2d_15">
      <g>
       <use xlink:href="#me02243ea64" x="57.6" y="72.177231" style="stroke: #000000; stroke-width: 0.8"/>
      </g>
     </g>
     <g id="text_16">
      <!-- 12 -->
      <g transform="translate(37.875 75.97645) scale(0.1 -0.1)">
       <use xlink:href="#DejaVuSans-31"/>
       <use xlink:href="#DejaVuSans-32" x="63.623047"/>
      </g>
     </g>
    </g>
   </g>
   <g id="line2d_16">
    <path d="M 73.832727 276.878769 
L 74.466381 239.660308 
L 74.553657 295.488 
L 75.107308 258.269538 
L 75.220039 295.488 
L 75.740053 258.269538 
L 75.803692 295.488 
L 76.379162 258.269538 
L 76.470074 295.488 
L 77.018271 258.269538 
L 77.101001 295.488 
L 77.658289 258.269538 
L 77.766474 295.488 
L 78.302852 258.269538 
L 78.388309 295.488 
L 78.615588 276.878769 
L 79.024691 295.488 
L 84.460298 276.878769 
L 84.542118 221.051077 
L 84.847581 202.441846 
L 84.874855 183.832615 
L 84.887582 295.488 
L 85.243956 276.878769 
L 85.271229 258.269538 
L 85.285775 295.488 
L 85.583965 276.878769 
L 85.61033 258.269538 
L 85.625785 295.488 
L 85.950339 276.878769 
L 85.977613 258.269538 
L 85.992159 295.488 
L 86.307622 276.878769 
L 86.334896 258.269538 
L 86.348532 295.488 
L 86.66945 276.878769 
L 86.71127 295.488 
L 87.045825 258.269538 
L 87.082189 295.488 
L 87.389471 276.878769 
L 87.453109 295.488 
L 87.519474 276.878769 
L 87.830392 295.488 
L 87.836756 276.878769 
L 88.148583 258.269538 
L 88.262222 295.488 
L 88.464955 276.878769 
L 88.787691 258.269538 
L 88.848602 295.488 
L 89.414073 258.269538 
L 89.533167 295.488 
L 89.736809 276.878769 
L 90.058636 258.269538 
L 90.125002 295.488 
L 90.691381 258.269538 
L 90.760474 295.488 
L 91.333217 258.269538 
L 91.467767 295.488 
L 91.658681 276.878769 
L 91.975053 258.269538 
L 92.063238 295.488 
L 92.603253 258.269538 
L 92.738711 295.488 
L 92.919625 276.878769 
L 93.236907 258.269538 
L 93.373274 295.488 
L 93.549643 276.878769 
L 93.866925 258.269538 
L 93.956927 295.488 
L 94.508761 258.269538 
L 94.637855 295.488 
L 94.824224 276.878769 
L 95.140597 258.269538 
L 95.236054 295.488 
L 95.778796 258.269538 
L 95.875163 295.488 
L 96.414269 258.269538 
L 96.508817 295.488 
L 97.049741 258.269538 
L 97.158835 295.488 
L 97.682486 258.269538 
L 97.821581 295.488 
L 98.317049 276.878769 
L 98.627967 258.269538 
L 98.766153 295.488 
L 98.953431 276.878769 
L 99.277985 258.269538 
L 99.354351 295.488 
L 99.925276 258.269538 
L 100.067098 295.488 
L 100.240739 276.878769 
L 100.559839 258.269538 
L 100.657115 295.488 
L 101.202585 258.269538 
L 101.319861 295.488 
L 101.518957 276.878769 
L 101.831693 258.269538 
L 101.961697 295.488 
L 102.148066 276.878769 
L 102.467165 258.269538 
L 102.580805 295.488 
L 102.783538 276.878769 
L 103.101729 258.269538 
L 103.184458 295.488 
L 103.739928 258.269538 
L 103.862659 295.488 
L 104.058119 276.878769 
L 104.379037 258.269538 
L 104.482676 295.488 
L 105.009055 258.269538 
L 105.114512 295.488 
L 105.649073 258.269538 
L 105.771803 295.488 
L 105.965445 276.878769 
L 106.275454 258.269538 
L 106.41364 295.488 
L 106.595463 276.878769 
L 106.910017 258.269538 
L 107.015475 295.488 
L 107.549126 258.269538 
L 107.642765 295.488 
L 108.187326 258.269538 
L 108.252782 295.488 
L 108.815525 258.269538 
L 108.952802 295.488 
L 109.12917 276.878769 
L 109.446452 258.269538 
L 109.544636 295.488 
L 110.079197 258.269538 
L 110.21011 295.488 
L 110.399206 276.878769 
L 110.810126 295.488 
L 112.165619 276.878769 
L 113.293832 183.832615 
L 113.415654 295.488 
L 113.52293 276.878769 
L 114.202949 221.051077 
L 114.303861 295.488 
L 114.658416 258.269538 
L 115.118429 221.051077 
L 115.243887 295.488 
L 126.255104 276.878769 
L 126.932396 221.051077 
L 127.067854 295.488 
L 127.162402 276.878769 
L 127.620597 239.660308 
L 127.704236 202.441846 
L 127.717873 183.832615 
L 127.907878 165.223385 
L 127.948788 109.395692 
L 127.962425 295.488 
L 128.453348 276.878769 
L 128.495167 221.051077 
L 128.508804 295.488 
L 128.961544 276.878769 
L 129.002454 221.051077 
L 129.016091 295.488 
L 129.481558 276.878769 
L 129.522469 221.051077 
L 129.540651 295.488 
L 129.927934 276.878769 
L 129.968845 221.051077 
L 129.987027 295.488 
L 130.404311 276.878769 
L 130.444312 221.051077 
L 130.458858 295.488 
L 130.921599 276.878769 
L 130.962509 221.051077 
L 130.977055 295.488 
L 131.392521 276.878769 
L 131.433431 221.051077 
L 131.447977 295.488 
L 131.895262 276.878769 
L 131.936172 221.051077 
L 131.950718 295.488 
L 132.417095 276.878769 
L 132.458005 221.051077 
L 132.471642 295.488 
L 132.931655 276.878769 
L 132.971656 221.051077 
L 132.986202 295.488 
L 133.416214 276.878769 
L 133.457124 221.051077 
L 133.470761 295.488 
L 133.941683 276.878769 
L 133.982593 221.051077 
L 133.99623 295.488 
L 134.507154 276.878769 
L 134.538973 239.660308 
L 134.560791 295.488 
L 135.012622 276.878769 
L 135.075351 295.488 
L 135.112625 276.878769 
L 135.566274 239.660308 
L 135.640822 295.488 
L 136.019014 258.269538 
L 136.24902 239.660308 
L 136.338114 295.488 
L 136.707215 258.269538 
L 137.168137 221.051077 
L 137.285413 295.488 
L 137.394507 276.878769 
L 138.069071 221.051077 
L 138.206348 295.488 
L 138.294532 276.878769 
L 138.974551 221.051077 
L 139.086373 295.488 
L 139.430019 258.269538 
L 139.661843 239.660308 
L 139.945488 295.488 
L 140.341862 258.269538 
L 141.036427 202.441846 
L 141.197341 295.488 
L 141.263706 276.878769 
L 141.947362 221.051077 
L 142.089184 295.488 
L 142.174641 276.878769 
L 142.85466 221.051077 
L 142.923753 295.488 
L 143.3174 258.269538 
L 143.766504 221.051077 
L 143.871961 295.488 
L 144.220153 258.269538 
L 144.681075 221.051077 
L 144.804715 295.488 
L 144.907445 276.878769 
L 145.589282 221.051077 
L 145.705649 295.488 
L 145.822016 276.878769 
L 146.509308 221.051077 
L 146.614765 295.488 
L 146.954775 258.269538 
L 147.404787 221.051077 
L 147.557519 295.488 
L 147.637521 276.878769 
L 148.320268 221.051077 
L 148.435725 295.488 
L 148.548456 276.878769 
L 149.236657 221.051077 
L 149.297568 295.488 
L 149.692124 258.269538 
L 150.150319 221.051077 
L 150.279413 295.488 
L 150.380325 276.878769 
L 151.070345 221.051077 
L 151.139437 295.488 
L 151.521266 258.269538 
L 151.971279 221.051077 
L 152.033099 295.488 
L 152.652207 239.660308 
L 152.883123 221.051077 
L 153.018581 295.488 
L 153.109493 276.878769 
L 153.794057 221.051077 
L 153.916788 295.488 
L 154.020427 276.878769 
L 154.472258 258.269538 
L 154.931362 221.051077 
L 155.040456 295.488 
L 160.818799 276.878769 
L 160.887892 183.832615 
L 161.30154 165.223385 
L 161.34245 109.395692 
L 161.356996 295.488 
L 161.836101 276.878769 
L 161.877011 221.051077 
L 161.891557 295.488 
L 162.383389 276.878769 
L 162.424299 221.051077 
L 162.437936 295.488 
L 162.852493 276.878769 
L 162.894312 221.051077 
L 162.907949 295.488 
L 163.329779 276.878769 
L 163.370689 221.051077 
L 163.384326 295.488 
L 163.824338 276.878769 
L 163.851612 239.660308 
L 163.878885 295.488 
L 163.981615 276.878769 
L 164.357989 258.269538 
L 164.376172 239.660308 
L 164.412536 295.488 
L 164.454356 276.878769 
L 164.859822 258.269538 
L 164.907096 239.660308 
L 164.924369 295.488 
L 165.360745 258.269538 
L 165.43802 295.488 
L 165.815303 258.269538 
L 166.042582 239.660308 
L 166.14804 295.488 
L 171.729105 276.878769 
L 171.797289 183.832615 
L 172.234574 165.223385 
L 172.276393 109.395692 
L 172.289121 295.488 
L 172.751861 276.878769 
L 172.792771 221.051077 
L 172.806408 295.488 
L 173.268239 276.878769 
L 173.30824 221.051077 
L 173.322786 295.488 
L 173.719161 276.878769 
L 173.760071 221.051077 
L 173.774617 295.488 
L 174.210083 276.878769 
L 174.250994 221.051077 
L 174.26554 295.488 
L 174.699188 276.878769 
L 174.743735 221.051077 
L 174.753735 295.488 
L 175.235567 276.878769 
L 175.253749 258.269538 
L 175.291023 295.488 
L 175.381025 276.878769 
L 175.753763 258.269538 
L 175.817401 295.488 
L 175.837402 276.878769 
L 176.287414 239.660308 
L 176.330143 295.488 
L 176.746518 258.269538 
L 177.055618 295.488 
L 182.433041 276.878769 
L 182.638501 258.269538 
L 182.705776 165.223385 
L 183.169425 146.614154 
L 183.211245 90.786462 
L 183.224881 295.488 
L 183.717622 276.878769 
L 183.757624 221.051077 
L 183.77126 295.488 
L 184.248546 276.878769 
L 184.288548 221.051077 
L 184.303093 295.488 
L 184.787652 276.878769 
L 184.828563 239.660308 
L 184.843108 258.269538 
L 185.332213 239.660308 
L 185.464035 295.488 
L 185.555856 276.878769 
L 185.814954 258.269538 
L 185.851319 295.488 
L 186.126781 276.878769 
L 186.190419 295.488 
L 186.228602 276.878769 
L 186.537701 295.488 
L 186.556793 276.878769 
L 186.87862 258.269538 
L 186.958622 295.488 
L 187.509547 258.269538 
L 187.612277 295.488 
L 188.135928 258.269538 
L 188.25775 295.488 
L 188.454119 276.878769 
L 188.767764 258.269538 
L 188.867767 295.488 
L 189.410509 258.269538 
L 189.50233 295.488 
L 190.035072 258.269538 
L 190.15053 295.488 
L 190.675999 258.269538 
L 190.803275 295.488 
L 190.99419 276.878769 
L 191.310562 258.269538 
L 191.377837 295.488 
L 191.958762 258.269538 
L 192.047856 295.488 
L 192.593326 258.269538 
L 192.682419 295.488 
L 193.220616 258.269538 
L 193.331528 295.488 
L 193.866998 258.269538 
L 193.993365 295.488 
L 194.179734 276.878769 
L 194.497924 258.269538 
L 194.614291 295.488 
L 194.815206 276.878769 
L 195.133397 258.269538 
L 195.267946 295.488 
L 195.457042 276.878769 
L 195.777051 258.269538 
L 195.881599 295.488 
L 196.085241 276.878769 
L 196.404341 258.269538 
L 196.525254 295.488 
L 196.725259 276.878769 
L 197.040723 258.269538 
L 197.171636 295.488 
L 197.364368 276.878769 
L 197.686195 258.269538 
L 197.775289 295.488 
L 198.325304 258.269538 
L 198.446217 295.488 
L 198.637131 276.878769 
L 198.963504 258.269538 
L 199.040779 295.488 
L 199.602613 258.269538 
L 199.728071 295.488 
L 199.920803 276.878769 
L 200.246267 258.269538 
L 200.362634 295.488 
L 200.566276 276.878769 
L 200.882649 258.269538 
L 201.005379 295.488 
L 201.203567 276.878769 
L 201.531758 258.269538 
L 201.622669 295.488 
L 202.162684 258.269538 
L 202.230868 295.488 
L 202.795429 258.269538 
L 202.891796 295.488 
L 203.439084 258.269538 
L 203.550905 295.488 
L 203.752729 276.878769 
L 204.07092 258.269538 
L 204.13274 295.488 
L 204.707301 258.269538 
L 204.789122 295.488 
L 205.343683 258.269538 
L 205.467322 295.488 
L 205.667328 276.878769 
L 205.990064 258.269538 
L 206.069157 295.488 
L 206.616445 258.269538 
L 206.69372 295.488 
L 207.259191 258.269538 
L 207.340102 295.488 
L 207.881935 258.269538 
L 207.996484 295.488 
L 208.197399 276.878769 
L 208.511953 258.269538 
L 208.611047 295.488 
L 209.139243 258.269538 
L 209.258338 295.488 
L 209.461071 276.878769 
L 209.778352 258.269538 
L 209.855627 295.488 
L 210.407461 258.269538 
L 210.5011 295.488 
L 211.049297 258.269538 
L 211.141118 295.488 
L 211.692951 258.269538 
L 211.782954 295.488 
L 212.321151 258.269538 
L 212.462973 295.488 
L 212.643887 276.878769 
L 212.963896 258.269538 
L 213.031171 295.488 
L 213.591186 258.269538 
L 213.667552 295.488 
L 214.227568 258.269538 
L 214.296661 295.488 
L 214.854858 258.269538 
L 214.957588 295.488 
L 215.49033 258.269538 
L 215.567605 295.488 
L 216.129439 258.269538 
L 216.232169 295.488 
L 216.773093 258.269538 
L 216.861278 295.488 
L 217.41493 258.269538 
L 217.540388 295.488 
L 217.736757 276.878769 
L 218.045856 258.269538 
L 218.542234 239.660308 
L 218.605872 295.488 
L 225.55243 276.878769 
L 226.026989 221.051077 
L 226.081536 128.004923 
L 226.483365 109.395692 
L 226.516094 53.568 
L 226.54064 295.488 
L 226.937924 276.878769 
L 226.970652 221.051077 
L 226.995198 295.488 
L 227.44612 276.878769 
L 227.478848 221.051077 
L 227.503394 295.488 
L 227.937952 276.878769 
L 227.97068 221.051077 
L 227.995226 295.488 
L 228.453421 276.878769 
L 228.486149 221.051077 
L 228.511604 295.488 
L 228.946162 276.878769 
L 228.97889 221.051077 
L 229.004345 295.488 
L 229.454358 276.878769 
L 229.487086 221.051077 
L 229.511632 295.488 
L 229.918916 276.878769 
L 229.940735 239.660308 
L 229.9771 295.488 
L 230.420748 276.878769 
L 230.484387 295.488 
L 246.27392 276.878769 
L 247.184854 183.832615 
L 247.1994 295.488 
L 247.845782 221.051077 
L 247.953057 109.395692 
L 247.977604 295.488 
L 248.385797 276.878769 
L 248.418525 221.051077 
L 248.443071 295.488 
L 248.827627 276.878769 
L 248.859447 221.051077 
L 248.884902 295.488 
L 249.323096 276.878769 
L 249.352188 221.051077 
L 249.381279 295.488 
L 249.814928 276.878769 
L 249.847656 221.051077 
L 249.877657 295.488 
L 250.286759 276.878769 
L 250.319487 221.051077 
L 250.344034 295.488 
L 250.809501 276.878769 
L 250.842229 221.051077 
L 250.865866 295.488 
L 251.257695 276.878769 
L 251.290424 221.051077 
L 251.31497 295.488 
L 251.796801 276.878769 
L 251.828621 221.051077 
L 251.854985 295.488 
L 252.267724 276.878769 
L 252.299543 221.051077 
L 252.325907 295.488 
L 252.796829 276.878769 
L 252.829558 221.051077 
L 252.855922 295.488 
L 255.107803 276.878769 
L 255.139622 221.051077 
L 255.577816 202.441846 
L 255.609636 146.614154 
L 255.635091 295.488 
L 256.072376 276.878769 
L 256.105104 221.051077 
L 256.130559 295.488 
L 256.569662 276.878769 
L 256.601481 221.051077 
L 256.627846 295.488 
L 257.08695 276.878769 
L 257.119678 221.051077 
L 257.145133 295.488 
L 257.582418 276.878769 
L 257.615146 221.051077 
L 257.639692 295.488 
L 258.065159 276.878769 
L 258.097887 221.051077 
L 258.122433 295.488 
L 258.566082 276.878769 
L 258.59881 221.051077 
L 258.623356 295.488 
L 259.045186 276.878769 
L 259.077914 221.051077 
L 259.10337 295.488 
L 259.542473 276.878769 
L 259.575201 221.051077 
L 259.599747 295.488 
L 260.078852 276.878769 
L 260.11158 221.051077 
L 260.136126 295.488 
L 260.580684 276.878769 
L 260.613412 221.051077 
L 260.637958 295.488 
L 261.053424 276.878769 
L 261.086153 221.051077 
L 261.111608 295.488 
L 261.515255 276.878769 
L 261.547984 221.051077 
L 261.57253 295.488 
L 262.050725 276.878769 
L 262.084362 221.051077 
L 262.108908 295.488 
L 262.53983 276.878769 
L 262.572558 221.051077 
L 262.597104 295.488 
L 263.008025 276.878769 
L 263.040753 221.051077 
L 263.065299 295.488 
L 263.469856 276.878769 
L 263.502584 221.051077 
L 263.528039 295.488 
L 264.001689 276.878769 
L 264.034417 221.051077 
L 264.058963 295.488 
L 264.49443 276.878769 
L 264.532613 221.051077 
L 264.551704 295.488 
L 264.979898 276.878769 
L 265.006262 239.660308 
L 265.037172 295.488 
L 265.094447 276.878769 
L 265.449911 258.269538 
L 265.465366 239.660308 
L 265.507185 295.488 
L 265.82174 258.269538 
L 265.994472 295.488 
L 266.008109 276.878769 
L 266.371755 239.660308 
L 266.54176 295.488 
L 266.55176 276.878769 
L 266.915407 239.660308 
L 267.028137 295.488 
L 267.095412 276.878769 
L 267.644518 221.051077 
L 267.647245 295.488 
L 268.004528 258.269538 
L 268.426358 295.488 
L 279.095748 276.878769 
L 280.003955 183.832615 
L 280.010319 295.488 
L 280.373056 258.269538 
L 280.751249 109.395692 
L 280.774886 295.488 
L 281.215807 276.878769 
L 281.248535 221.051077 
L 281.273991 295.488 
L 281.719458 276.878769 
L 281.753095 221.051077 
L 281.777641 295.488 
L 282.227654 276.878769 
L 282.256745 221.051077 
L 282.285837 295.488 
L 282.704031 276.878769 
L 282.736759 221.051077 
L 282.764941 295.488 
L 283.15768 276.878769 
L 283.190408 221.051077 
L 283.214954 295.488 
L 283.662239 276.878769 
L 283.694967 221.051077 
L 283.719514 295.488 
L 284.161344 276.878769 
L 284.193163 221.051077 
L 284.218618 295.488 
L 284.636812 276.878769 
L 284.668631 221.051077 
L 284.694086 295.488 
L 285.152281 276.878769 
L 285.185009 221.051077 
L 285.210464 295.488 
L 285.662295 276.878769 
L 285.695023 221.051077 
L 285.720479 295.488 
L 286.122308 276.878769 
L 286.155036 221.051077 
L 286.179582 295.488 
L 286.616867 276.878769 
L 286.650505 221.051077 
L 286.674142 295.488 
L 287.155973 276.878769 
L 287.187793 221.051077 
L 287.213248 295.488 
L 287.625987 276.878769 
L 287.658715 221.051077 
L 287.683261 295.488 
L 288.155092 276.878769 
L 288.187821 221.051077 
L 288.212367 295.488 
L 288.636015 276.878769 
L 288.667834 221.051077 
L 288.693289 295.488 
L 289.177848 276.878769 
L 289.210576 221.051077 
L 289.236032 295.488 
L 289.646952 276.878769 
L 289.67968 221.051077 
L 289.704227 295.488 
L 290.138784 276.878769 
L 290.171512 221.051077 
L 290.196968 295.488 
L 290.641526 276.878769 
L 290.66789 239.660308 
L 290.6988 295.488 
L 306.366511 276.878769 
L 307.270173 183.832615 
L 307.441087 295.488 
L 307.453815 276.878769 
L 307.637456 258.269538 
L 307.717458 183.832615 
L 307.739277 146.614154 
L 308.133834 128.004923 
L 308.173835 258.269538 
L 308.633848 239.660308 
L 308.727487 276.878769 
L 308.798398 258.269538 
L 308.803852 295.488 
L 308.82658 276.878769 
L 309.15568 258.269538 
L 309.178408 239.660308 
L 309.195681 295.488 
L 309.482962 276.878769 
L 309.510236 258.269538 
L 309.527509 295.488 
L 309.798426 276.878769 
L 309.825699 258.269538 
L 309.840245 295.488 
L 310.16389 276.878769 
L 310.190255 258.269538 
L 310.204801 295.488 
L 310.510264 276.878769 
L 310.536628 258.269538 
L 310.551174 295.488 
L 310.852092 276.878769 
L 310.880274 258.269538 
L 310.893911 295.488 
L 311.196647 276.878769 
L 311.22392 258.269538 
L 311.237557 295.488 
L 311.548475 276.878769 
L 311.575748 258.269538 
L 311.590294 295.488 
L 311.891212 276.878769 
L 311.918485 258.269538 
L 311.932122 295.488 
L 312.27395 276.878769 
L 312.301223 258.269538 
L 312.31486 295.488 
L 312.63305 276.878769 
L 312.660324 258.269538 
L 312.673961 295.488 
L 312.964878 276.878769 
L 312.992151 258.269538 
L 313.005788 295.488 
L 313.319433 276.878769 
L 313.346707 258.269538 
L 313.360344 295.488 
L 322.240592 276.878769 
L 322.268775 258.269538 
L 322.282412 295.488 
L 322.571511 276.878769 
L 322.598784 258.269538 
L 322.612421 295.488 
L 322.899702 276.878769 
L 322.926975 258.269538 
L 322.940612 295.488 
L 323.256075 276.878769 
L 323.283349 258.269538 
L 323.296985 295.488 
L 323.591539 276.878769 
L 323.632449 295.488 
L 323.935185 276.878769 
L 323.999732 295.488 
L 328.063483 276.878769 
L 328.145303 221.051077 
L 328.47713 202.441846 
L 328.504404 183.832615 
L 328.518041 295.488 
L 328.849868 276.878769 
L 328.877142 258.269538 
L 328.891688 295.488 
L 329.193514 276.878769 
L 329.220788 258.269538 
L 329.235334 295.488 
L 329.541706 276.878769 
L 329.568979 258.269538 
L 329.582616 295.488 
L 329.924444 276.878769 
L 329.951717 258.269538 
L 329.966263 295.488 
L 330.251726 276.878769 
L 330.278999 258.269538 
L 330.292636 295.488 
L 330.619009 276.878769 
L 330.646282 258.269538 
L 330.659919 295.488 
L 330.949927 276.878769 
L 330.977201 258.269538 
L 330.990837 295.488 
L 331.292664 276.878769 
L 331.319937 258.269538 
L 331.333574 295.488 
L 331.66722 276.878769 
L 331.694493 258.269538 
L 331.70813 295.488 
L 332.026321 276.878769 
L 332.053594 258.269538 
L 332.067231 295.488 
L 332.349057 276.878769 
L 332.376331 258.269538 
L 332.389967 295.488 
L 332.688158 276.878769 
L 332.715431 258.269538 
L 332.729068 295.488 
L 333.01453 276.878769 
L 333.041804 258.269538 
L 333.054531 295.488 
L 333.359085 276.878769 
L 333.381813 258.269538 
L 333.399996 295.488 
L 333.733641 276.878769 
L 333.760006 258.269538 
L 333.779097 295.488 
L 334.107288 276.878769 
L 334.133653 258.269538 
L 334.148198 295.488 
L 334.481844 276.878769 
L 334.509118 258.269538 
L 334.522754 295.488 
L 334.851854 276.878769 
L 334.879128 258.269538 
L 334.892765 295.488 
L 335.215501 276.878769 
L 335.242774 258.269538 
L 335.256411 295.488 
L 335.590966 276.878769 
L 335.61824 258.269538 
L 335.631876 295.488 
L 335.907339 276.878769 
L 335.934612 258.269538 
L 335.949158 295.488 
L 336.267349 276.878769 
L 336.294622 258.269538 
L 336.308259 295.488 
L 336.585539 276.878769 
L 336.62645 295.488 
L 336.901912 276.878769 
L 336.966459 295.488 
L 340.829295 276.878769 
L 341.045664 258.269538 
L 341.160213 165.223385 
L 341.164759 295.488 
L 341.187486 258.269538 
L 341.598407 239.660308 
L 341.638408 183.832615 
L 341.652954 295.488 
L 342.118422 276.878769 
L 342.145695 239.660308 
L 342.173878 295.488 
L 342.592071 276.878769 
L 342.655709 295.488 
L 344.438487 258.269538 
L 353.543287 239.660308 
L 354.224215 183.832615 
L 354.359673 295.488 
L 354.450585 276.878769 
L 355.13515 221.051077 
L 355.269699 295.488 
L 355.360611 276.878769 
L 356.042448 221.051077 
L 356.151542 295.488 
L 356.49246 258.269538 
L 356.955201 221.051077 
L 357.035203 295.488 
L 384.056869 276.878769 
L 384.111416 202.441846 
L 384.634158 183.832615 
L 384.675068 128.004923 
L 384.688705 295.488 
L 385.075988 276.878769 
L 385.117807 221.051077 
L 385.131444 295.488 
L 385.593275 276.878769 
L 385.62964 221.051077 
L 385.647822 295.488 
L 386.088744 276.878769 
L 386.129654 221.051077 
L 386.147836 295.488 
L 386.57603 276.878769 
L 386.61694 221.051077 
L 386.631486 295.488 
L 387.04968 276.878769 
L 387.089681 221.051077 
L 387.104227 295.488 
L 387.530602 276.878769 
L 387.571513 221.051077 
L 387.58424 295.488 
L 387.99607 276.878769 
L 388.03698 221.051077 
L 388.050617 295.488 
L 388.521539 276.878769 
L 388.562449 221.051077 
L 388.576995 295.488 
L 389.060645 276.878769 
L 389.100646 221.051077 
L 389.116101 295.488 
L 389.606115 276.878769 
L 389.647025 221.051077 
L 389.661571 295.488 
L 390.107947 276.878769 
L 390.147948 221.051077 
L 390.161585 295.488 
L 390.625234 276.878769 
L 390.657053 239.660308 
L 390.679781 295.488 
L 395.370822 276.878769 
L 395.425369 202.441846 
L 395.884473 183.832615 
L 395.925383 128.004923 
L 395.939929 295.488 
L 396.372668 276.878769 
L 396.413578 221.051077 
L 396.428124 295.488 
L 396.882682 276.878769 
L 396.923593 221.051077 
L 396.937229 295.488 
L 397.366332 276.878769 
L 397.407242 221.051077 
L 397.420879 295.488 
L 397.884529 276.878769 
L 397.925439 221.051077 
L 397.939985 295.488 
L 398.431817 276.878769 
L 398.472727 221.051077 
L 398.487273 295.488 
L 398.487273 295.488 
" clip-path="url(#p17b53d67a4)" style="fill: none; stroke: #1f77b4; stroke-width: 1.5; stroke-linecap: square"/>
   </g>
   <g id="patch_3">
    <path d="M 57.6 307.584 
L 57.6 41.472 
" style="fill: none; stroke: #000000; stroke-width: 0.8; stroke-linejoin: miter; stroke-linecap: square"/>
   </g>
   <g id="patch_4">
    <path d="M 414.72 307.584 
L 414.72 41.472 
" style="fill: none; stroke: #000000; stroke-width: 0.8; stroke-linejoin: miter; stroke-linecap: square"/>
   </g>
   <g id="patch_5">
    <path d="M 57.6 307.584 
L 414.72 307.584 
" style="fill: none; stroke: #000000; stroke-width: 0.8; stroke-linejoin: miter; stroke-linecap: square"/>
   </g>
   <g id="patch_6">
    <path d="M 57.6 41.472 
L 414.72 41.472 
" style="fill: none; stroke: #000000; stroke-width: 0.8; stroke-linejoin: miter; stroke-linecap: square"/>
   </g>
   <g id="text_17">
    <!-- Queue size (y-axis) between S6 and sensors that follow at a time (x-axis). -->
    <g transform="translate(14.282813 35.472) scale(0.12 -0.12)">
     <defs>
      <path id="DejaVuSans-51" d="M 2522 4238 
Q 1834 4238 1429 3725 
Q 1025 3213 1025 2328 
Q 1025 1447 1429 934 
Q 1834 422 2522 422 
Q 3209 422 3611 934 
Q 4013 1447 4013 2328 
Q 4013 3213 3611 3725 
Q 3209 4238 2522 4238 
z
M 3406 84 
L 4238 -825 
L 3475 -825 
L 2784 -78 
Q 2681 -84 2626 -87 
Q 2572 -91 2522 -91 
Q 1538 -91 948 567 
Q 359 1225 359 2328 
Q 359 3434 948 4092 
Q 1538 4750 2522 4750 
Q 3503 4750 4090 4092 
Q 4678 3434 4678 2328 
Q 4678 1516 4351 937 
Q 4025 359 3406 84 
z
" transform="scale(0.015625)"/>
      <path id="DejaVuSans-75" d="M 544 1381 
L 544 3500 
L 1119 3500 
L 1119 1403 
Q 1119 906 1312 657 
Q 1506 409 1894 409 
Q 2359 409 2629 706 
Q 2900 1003 2900 1516 
L 2900 3500 
L 3475 3500 
L 3475 0 
L 2900 0 
L 2900 538 
Q 2691 219 2414 64 
Q 2138 -91 1772 -91 
Q 1169 -91 856 284 
Q 544 659 544 1381 
z
M 1991 3584 
L 1991 3584 
z
" transform="scale(0.015625)"/>
      <path id="DejaVuSans-20" transform="scale(0.015625)"/>
      <path id="DejaVuSans-73" d="M 2834 3397 
L 2834 2853 
Q 2591 2978 2328 3040 
Q 2066 3103 1784 3103 
Q 1356 3103 1142 2972 
Q 928 2841 928 2578 
Q 928 2378 1081 2264 
Q 1234 2150 1697 2047 
L 1894 2003 
Q 2506 1872 2764 1633 
Q 3022 1394 3022 966 
Q 3022 478 2636 193 
Q 2250 -91 1575 -91 
Q 1294 -91 989 -36 
Q 684 19 347 128 
L 347 722 
Q 666 556 975 473 
Q 1284 391 1588 391 
Q 1994 391 2212 530 
Q 2431 669 2431 922 
Q 2431 1156 2273 1281 
Q 2116 1406 1581 1522 
L 1381 1569 
Q 847 1681 609 1914 
Q 372 2147 372 2553 
Q 372 3047 722 3315 
Q 1072 3584 1716 3584 
Q 2034 3584 2315 3537 
Q 2597 3491 2834 3397 
z
" transform="scale(0.015625)"/>
      <path id="DejaVuSans-69" d="M 603 3500 
L 1178 3500 
L 1178 0 
L 603 0 
L 603 3500 
z
M 603 4863 
L 1178 4863 
L 1178 4134 
L 603 4134 
L 603 4863 
z
" transform="scale(0.015625)"/>
      <path id="DejaVuSans-7a" d="M 353 3500 
L 3084 3500 
L 3084 2975 
L 922 459 
L 3084 459 
L 3084 0 
L 275 0 
L 275 525 
L 2438 3041 
L 353 3041 
L 353 3500 
z
" transform="scale(0.015625)"/>
      <path id="DejaVuSans-28" d="M 1984 4856 
Q 1566 4138 1362 3434 
Q 1159 2731 1159 2009 
Q 1159 1288 1364 580 
Q 1569 -128 1984 -844 
L 1484 -844 
Q 1016 -109 783 600 
Q 550 1309 550 2009 
Q 550 2706 781 3412 
Q 1013 4119 1484 4856 
L 1984 4856 
z
" transform="scale(0.015625)"/>
      <path id="DejaVuSans-79" d="M 2059 -325 
Q 1816 -950 1584 -1140 
Q 1353 -1331 966 -1331 
L 506 -1331 
L 506 -850 
L 844 -850 
Q 1081 -850 1212 -737 
Q 1344 -625 1503 -206 
L 1606 56 
L 191 3500 
L 800 3500 
L 1894 763 
L 2988 3500 
L 3597 3500 
L 2059 -325 
z
" transform="scale(0.015625)"/>
      <path id="DejaVuSans-2d" d="M 313 2009 
L 1997 2009 
L 1997 1497 
L 313 1497 
L 313 2009 
z
" transform="scale(0.015625)"/>
      <path id="DejaVuSans-61" d="M 2194 1759 
Q 1497 1759 1228 1600 
Q 959 1441 959 1056 
Q 959 750 1161 570 
Q 1363 391 1709 391 
Q 2188 391 2477 730 
Q 2766 1069 2766 1631 
L 2766 1759 
L 2194 1759 
z
M 3341 1997 
L 3341 0 
L 2766 0 
L 2766 531 
Q 2569 213 2275 61 
Q 1981 -91 1556 -91 
Q 1019 -91 701 211 
Q 384 513 384 1019 
Q 384 1609 779 1909 
Q 1175 2209 1959 2209 
L 2766 2209 
L 2766 2266 
Q 2766 2663 2505 2880 
Q 2244 3097 1772 3097 
Q 1472 3097 1187 3025 
Q 903 2953 641 2809 
L 641 3341 
Q 956 3463 1253 3523 
Q 1550 3584 1831 3584 
Q 2591 3584 2966 3190 
Q 3341 2797 3341 1997 
z
" transform="scale(0.015625)"/>
      <path id="DejaVuSans-78" d="M 3513 3500 
L 2247 1797 
L 3578 0 
L 2900 0 
L 1881 1375 
L 863 0 
L 184 0 
L 1544 1831 
L 300 3500 
L 978 3500 
L 1906 2253 
L 2834 3500 
L 3513 3500 
z
" transform="scale(0.015625)"/>
      <path id="DejaVuSans-29" d="M 513 4856 
L 1013 4856 
Q 1481 4119 1714 3412 
Q 1947 2706 1947 2009 
Q 1947 1309 1714 600 
Q 1481 -109 1013 -844 
L 513 -844 
Q 928 -128 1133 580 
Q 1338 1288 1338 2009 
Q 1338 2731 1133 3434 
Q 928 4138 513 4856 
z
" transform="scale(0.015625)"/>
      <path id="DejaVuSans-62" d="M 3116 1747 
Q 3116 2381 2855 2742 
Q 2594 3103 2138 3103 
Q 1681 3103 1420 2742 
Q 1159 2381 1159 1747 
Q 1159 1113 1420 752 
Q 1681 391 2138 391 
Q 2594 391 2855 752 
Q 3116 1113 3116 1747 
z
M 1159 2969 
Q 1341 3281 1617 3432 
Q 1894 3584 2278 3584 
Q 2916 3584 3314 3078 
Q 3713 2572 3713 1747 
Q 3713 922 3314 415 
Q 2916 -91 2278 -91 
Q 1894 -91 1617 61 
Q 1341 213 1159 525 
L 1159 0 
L 581 0 
L 581 4863 
L 1159 4863 
L 1159 2969 
z
" transform="scale(0.015625)"/>
      <path id="DejaVuSans-74" d="M 1172 4494 
L 1172 3500 
L 2356 3500 
L 2356 3053 
L 1172 3053 
L 1172 1153 
Q 1172 725 1289 603 
Q 1406 481 1766 481 
L 2356 481 
L 2356 0 
L 1766 0 
Q 1100 0 847 248 
Q 594 497 594 1153 
L 594 3053 
L 172 3053 
L 172 3500 
L 594 3500 
L 594 4494 
L 1172 4494 
z
" transform="scale(0.015625)"/>
      <path id="DejaVuSans-77" d="M 269 3500 
L 844 3500 
L 1563 769 
L 2278 3500 
L 2956 3500 
L 3675 769 
L 4391 3500 
L 4966 3500 
L 4050 0 
L 3372 0 
L 2619 2869 
L 1863 0 
L 1184 0 
L 269 3500 
z
" transform="scale(0.015625)"/>
      <path id="DejaVuSans-6e" d="M 3513 2113 
L 3513 0 
L 2938 0 
L 2938 2094 
Q 2938 2591 2744 2837 
Q 2550 3084 2163 3084 
Q 1697 3084 1428 2787 
Q 1159 2491 1159 1978 
L 1159 0 
L 581 0 
L 581 3500 
L 1159 3500 
L 1159 2956 
Q 1366 3272 1645 3428 
Q 1925 3584 2291 3584 
Q 2894 3584 3203 3211 
Q 3513 2838 3513 2113 
z
" transform="scale(0.015625)"/>
      <path id="DejaVuSans-53" d="M 3425 4513 
L 3425 3897 
Q 3066 4069 2747 4153 
Q 2428 4238 2131 4238 
Q 1616 4238 1336 4038 
Q 1056 3838 1056 3469 
Q 1056 3159 1242 3001 
Q 1428 2844 1947 2747 
L 2328 2669 
Q 3034 2534 3370 2195 
Q 3706 1856 3706 1288 
Q 3706 609 3251 259 
Q 2797 -91 1919 -91 
Q 1588 -91 1214 -16 
Q 841 59 441 206 
L 441 856 
Q 825 641 1194 531 
Q 1563 422 1919 422 
Q 2459 422 2753 634 
Q 3047 847 3047 1241 
Q 3047 1584 2836 1778 
Q 2625 1972 2144 2069 
L 1759 2144 
Q 1053 2284 737 2584 
Q 422 2884 422 3419 
Q 422 4038 858 4394 
Q 1294 4750 2059 4750 
Q 2388 4750 2728 4690 
Q 3069 4631 3425 4513 
z
" transform="scale(0.015625)"/>
      <path id="DejaVuSans-64" d="M 2906 2969 
L 2906 4863 
L 3481 4863 
L 3481 0 
L 2906 0 
L 2906 525 
Q 2725 213 2448 61 
Q 2172 -91 1784 -91 
Q 1150 -91 751 415 
Q 353 922 353 1747 
Q 353 2572 751 3078 
Q 1150 3584 1784 3584 
Q 2172 3584 2448 3432 
Q 2725 3281 2906 2969 
z
M 947 1747 
Q 947 1113 1208 752 
Q 1469 391 1925 391 
Q 2381 391 2643 752 
Q 2906 1113 2906 1747 
Q 2906 2381 2643 2742 
Q 2381 3103 1925 3103 
Q 1469 3103 1208 2742 
Q 947 2381 947 1747 
z
" transform="scale(0.015625)"/>
      <path id="DejaVuSans-6f" d="M 1959 3097 
Q 1497 3097 1228 2736 
Q 959 2375 959 1747 
Q 959 1119 1226 758 
Q 1494 397 1959 397 
Q 2419 397 2687 759 
Q 2956 1122 2956 1747 
Q 2956 2369 2687 2733 
Q 2419 3097 1959 3097 
z
M 1959 3584 
Q 2709 3584 3137 3096 
Q 3566 2609 3566 1747 
Q 3566 888 3137 398 
Q 2709 -91 1959 -91 
Q 1206 -91 779 398 
Q 353 888 353 1747 
Q 353 2609 779 3096 
Q 1206 3584 1959 3584 
z
" transform="scale(0.015625)"/>
      <path id="DejaVuSans-72" d="M 2631 2963 
Q 2534 3019 2420 3045 
Q 2306 3072 2169 3072 
Q 1681 3072 1420 2755 
Q 1159 2438 1159 1844 
L 1159 0 
L 581 0 
L 581 3500 
L 1159 3500 
L 1159 2956 
Q 1341 3275 1631 3429 
Q 1922 3584 2338 3584 
Q 2397 3584 2469 3576 
Q 2541 3569 2628 3553 
L 2631 2963 
z
" transform="scale(0.015625)"/>
      <path id="DejaVuSans-68" d="M 3513 2113 
L 3513 0 
L 2938 0 
L 2938 2094 
Q 2938 2591 2744 2837 
Q 2550 3084 2163 3084 
Q 1697 3084 1428 2787 
Q 1159 2491 1159 1978 
L 1159 0 
L 581 0 
L 581 4863 
L 1159 4863 
L 1159 2956 
Q 1366 3272 1645 3428 
Q 1925 3584 2291 3584 
Q 2894 3584 3203 3211 
Q 3513 2838 3513 2113 
z
" transform="scale(0.015625)"/>
      <path id="DejaVuSans-66" d="M 2375 4863 
L 2375 4384 
L 1825 4384 
Q 1516 4384 1395 4259 
Q 1275 4134 1275 3809 
L 1275 3500 
L 2222 3500 
L 2222 3053 
L 1275 3053 
L 1275 0 
L 697 0 
L 697 3053 
L 147 3053 
L 147 3500 
L 697 3500 
L 697 3744 
Q 697 4328 969 4595 
Q 1241 4863 1831 4863 
L 2375 4863 
z
" transform="scale(0.015625)"/>
      <path id="DejaVuSans-6c" d="M 603 4863 
L 1178 4863 
L 1178 0 
L 603 0 
L 603 4863 
z
" transform="scale(0.015625)"/>
      <path id="DejaVuSans-6d" d="M 3328 2828 
Q 3544 3216 3844 3400 
Q 4144 3584 4550 3584 
Q 5097 3584 5394 3201 
Q 5691 2819 5691 2113 
L 5691 0 
L 5113 0 
L 5113 2094 
Q 5113 2597 4934 2840 
Q 4756 3084 4391 3084 
Q 3944 3084 3684 2787 
Q 3425 2491 3425 1978 
L 3425 0 
L 2847 0 
L 2847 2094 
Q 2847 2600 2669 2842 
Q 2491 3084 2119 3084 
Q 1678 3084 1418 2786 
Q 1159 2488 1159 1978 
L 1159 0 
L 581 0 
L 581 3500 
L 1159 3500 
L 1159 2956 
Q 1356 3278 1631 3431 
Q 1906 3584 2284 3584 
Q 2666 3584 2933 3390 
Q 3200 3197 3328 2828 
z
" transform="scale(0.015625)"/>
     </defs>
     <use xlink:href="#DejaVuSans-51"/>
     <use xlink:href="#DejaVuSans-75" x="78.710938"/>
     <use xlink:href="#DejaVuSans-65" x="142.089844"/>
     <use xlink:href="#DejaVuSans-75" x="203.613281"/>
     <use xlink:href="#DejaVuSans-65" x="266.992188"/>
     <use xlink:href="#DejaVuSans-20" x="328.515625"/>
     <use xlink:href="#DejaVuSans-73" x="360.302734"/>
     <use xlink:href="#DejaVuSans-69" x="412.402344"/>
     <use xlink:href="#DejaVuSans-7a" x="440.185547"/>
     <use xlink:href="#DejaVuSans-65" x="492.675781"/>
     <use xlink:href="#DejaVuSans-20" x="554.199219"/>
     <use xlink:href="#DejaVuSans-28" x="585.986328"/>
     <use xlink:href="#DejaVuSans-79" x="625"/>
     <use xlink:href="#DejaVuSans-2d" x="682.429688"/>
     <use xlink:href="#DejaVuSans-61" x="718.513672"/>
     <use xlink:href="#DejaVuSans-78" x="779.792969"/>
     <use xlink:href="#DejaVuSans-69" x="838.972656"/>
     <use xlink:href="#DejaVuSans-73" x="866.755859"/>
     <use xlink:href="#DejaVuSans-29" x="918.855469"/>
     <use xlink:href="#DejaVuSans-20" x="957.869141"/>
     <use xlink:href="#DejaVuSans-62" x="989.65625"/>
     <use xlink:href="#DejaVuSans-65" x="1053.132812"/>
     <use xlink:href="#DejaVuSans-74" x="1114.65625"/>
     <use xlink:href="#DejaVuSans-77" x="1153.865234"/>
     <use xlink:href="#DejaVuSans-65" x="1235.652344"/>
     <use xlink:href="#DejaVuSans-65" x="1297.175781"/>
     <use xlink:href="#DejaVuSans-6e" x="1358.699219"/>
     <use xlink:href="#DejaVuSans-20" x="1422.078125"/>
     <use xlink:href="#DejaVuSans-53" x="1453.865234"/>
     <use xlink:href="#DejaVuSans-36" x="1517.341797"/>
     <use xlink:href="#DejaVuSans-20" x="1580.964844"/>
     <use xlink:href="#DejaVuSans-61" x="1612.751953"/>
     <use xlink:href="#DejaVuSans-6e" x="1674.03125"/>
     <use xlink:href="#DejaVuSans-64" x="1737.410156"/>
     <use xlink:href="#DejaVuSans-20" x="1800.886719"/>
     <use xlink:href="#DejaVuSans-73" x="1832.673828"/>
     <use xlink:href="#DejaVuSans-65" x="1884.773438"/>
     <use xlink:href="#DejaVuSans-6e" x="1946.296875"/>
     <use xlink:href="#DejaVuSans-73" x="2009.675781"/>
     <use xlink:href="#DejaVuSans-6f" x="2061.775391"/>
     <use xlink:href="#DejaVuSans-72" x="2122.957031"/>
     <use xlink:href="#DejaVuSans-73" x="2164.070312"/>
     <use xlink:href="#DejaVuSans-20" x="2216.169922"/>
     <use xlink:href="#DejaVuSans-74" x="2247.957031"/>
     <use xlink:href="#DejaVuSans-68" x="2287.166016"/>
     <use xlink:href="#DejaVuSans-61" x="2350.544922"/>
     <use xlink:href="#DejaVuSans-74" x="2411.824219"/>
     <use xlink:href="#DejaVuSans-20" x="2451.033203"/>
     <use xlink:href="#DejaVuSans-66" x="2482.820312"/>
     <use xlink:href="#DejaVuSans-6f" x="2518.025391"/>
     <use xlink:href="#DejaVuSans-6c" x="2579.207031"/>
     <use xlink:href="#DejaVuSans-6c" x="2606.990234"/>
     <use xlink:href="#DejaVuSans-6f" x="2634.773438"/>
     <use xlink:href="#DejaVuSans-77" x="2695.955078"/>
     <use xlink:href="#DejaVuSans-20" x="2777.742188"/>
     <use xlink:href="#DejaVuSans-61" x="2809.529297"/>
     <use xlink:href="#DejaVuSans-74" x="2870.808594"/>
     <use xlink:href="#DejaVuSans-20" x="2910.017578"/>
     <use xlink:href="#DejaVuSans-61" x="2941.804688"/>
     <use xlink:href="#DejaVuSans-20" x="3003.083984"/>
     <use xlink:href="#DejaVuSans-74" x="3034.871094"/>
     <use xlink:href="#DejaVuSans-69" x="3074.080078"/>
     <use xlink:href="#DejaVuSans-6d" x="3101.863281"/>
     <use xlink:href="#DejaVuSans-65" x="3199.275391"/>
     <use xlink:href="#DejaVuSans-20" x="3260.798828"/>
     <use xlink:href="#DejaVuSans-28" x="3292.585938"/>
     <use xlink:href="#DejaVuSans-78" x="3331.599609"/>
     <use xlink:href="#DejaVuSans-2d" x="3390.779297"/>
     <use xlink:href="#DejaVuSans-61" x="3426.863281"/>
     <use xlink:href="#DejaVuSans-78" x="3488.142578"/>
     <use xlink:href="#DejaVuSans-69" x="3547.322266"/>
     <use xlink:href="#DejaVuSans-73" x="3575.105469"/>
     <use xlink:href="#DejaVuSans-29" x="3627.205078"/>
     <use xlink:href="#DejaVuSans-2e" x="3666.21875"/>
    </g>
   </g>
  </g>
 </g>
 <defs>
  <clipPath id="p17b53d67a4">
   <rect x="57.6" y="41.472" width="357.12" height="266.112"/>
  </clipPath>
 </defs>
</svg>
