<?xml version="1.0" encoding="utf-8" standalone="no"?>
<!DOCTYPE svg PUBLIC "-//W3C//DTD SVG 1.1//EN"
  "http://www.w3.org/Graphics/SVG/1.1/DTD/svg11.dtd">
<svg xmlns:xlink="http://www.w3.org/1999/xlink" width="460.8pt" height="345.6pt" viewBox="0 0 460.8 345.6" xmlns="http://www.w3.org/2000/svg" version="1.1">
 <metadata>
  <rdf:RDF xmlns:dc="http://purl.org/dc/elements/1.1/" xmlns:cc="http://creativecommons.org/ns#" xmlns:rdf="http://www.w3.org/1999/02/22-rdf-syntax-ns#">
   <cc:Work>
    <dc:type rdf:resource="http://purl.org/dc/dcmitype/StillImage"/>
    <dc:date>2024-03-08T12:57:09.684012</dc:date>
    <dc:format>image/svg+xml</dc:format>
    <dc:creator>
     <cc:Agent>
      <dc:title>Matplotlib v3.8.2, https://matplotlib.org/</dc:title>
     </cc:Agent>
    </dc:creator>
   </cc:Work>
  </rdf:RDF>
 </metadata>
 <defs>
  <style type="text/css">*{stroke-linejoin: round; stroke-linecap: butt}</style>
 </defs>
 <g id="figure_1">
  <g id="patch_1">
   <path d="M 0 345.6 
L 460.8 345.6 
L 460.8 0 
L 0 0 
z
" style="fill: #ffffff"/>
  </g>
  <g id="axes_1">
   <g id="patch_2">
    <path d="M 57.6 307.584 
L 414.72 307.584 
L 414.72 41.472 
L 57.6 41.472 
z
" style="fill: #ffffff"/>
   </g>
   <g id="matplotlib.axis_1">
    <g id="xtick_1">
     <g id="line2d_1">
      <defs>
       <path id="m59c11291c9" d="M 0 0 
L 0 3.5 
" style="stroke: #000000; stroke-width: 0.8"/>
      </defs>
      <g>
       <use xlink:href="#m59c11291c9" x="73.832727" y="307.584" style="stroke: #000000; stroke-width: 0.8"/>
      </g>
     </g>
     <g id="text_1">
      <!-- 0 -->
      <g transform="translate(70.651477 322.182437) scale(0.1 -0.1)">
       <defs>
        <path id="DejaVuSans-30" d="M 2034 4250 
Q 1547 4250 1301 3770 
Q 1056 3291 1056 2328 
Q 1056 1369 1301 889 
Q 1547 409 2034 409 
Q 2525 409 2770 889 
Q 3016 1369 3016 2328 
Q 3016 3291 2770 3770 
Q 2525 4250 2034 4250 
z
M 2034 4750 
Q 2819 4750 3233 4129 
Q 3647 3509 3647 2328 
Q 3647 1150 3233 529 
Q 2819 -91 2034 -91 
Q 1250 -91 836 529 
Q 422 1150 422 2328 
Q 422 3509 836 4129 
Q 1250 4750 2034 4750 
z
" transform="scale(0.015625)"/>
       </defs>
       <use xlink:href="#DejaVuSans-30"/>
      </g>
     </g>
    </g>
    <g id="xtick_2">
     <g id="line2d_2">
      <g>
       <use xlink:href="#m59c11291c9" x="136.689367" y="307.584" style="stroke: #000000; stroke-width: 0.8"/>
      </g>
     </g>
     <g id="text_2">
      <!-- 20000 -->
      <g transform="translate(120.783117 322.182437) scale(0.1 -0.1)">
       <defs>
        <path id="DejaVuSans-32" d="M 1228 531 
L 3431 531 
L 3431 0 
L 469 0 
L 469 531 
Q 828 903 1448 1529 
Q 2069 2156 2228 2338 
Q 2531 2678 2651 2914 
Q 2772 3150 2772 3378 
Q 2772 3750 2511 3984 
Q 2250 4219 1831 4219 
Q 1534 4219 1204 4116 
Q 875 4013 500 3803 
L 500 4441 
Q 881 4594 1212 4672 
Q 1544 4750 1819 4750 
Q 2544 4750 2975 4387 
Q 3406 4025 3406 3419 
Q 3406 3131 3298 2873 
Q 3191 2616 2906 2266 
Q 2828 2175 2409 1742 
Q 1991 1309 1228 531 
z
" transform="scale(0.015625)"/>
       </defs>
       <use xlink:href="#DejaVuSans-32"/>
       <use xlink:href="#DejaVuSans-30" x="63.623047"/>
       <use xlink:href="#DejaVuSans-30" x="127.246094"/>
       <use xlink:href="#DejaVuSans-30" x="190.869141"/>
       <use xlink:href="#DejaVuSans-30" x="254.492188"/>
      </g>
     </g>
    </g>
    <g id="xtick_3">
     <g id="line2d_3">
      <g>
       <use xlink:href="#m59c11291c9" x="199.546007" y="307.584" style="stroke: #000000; stroke-width: 0.8"/>
      </g>
     </g>
     <g id="text_3">
      <!-- 40000 -->
      <g transform="translate(183.639757 322.182437) scale(0.1 -0.1)">
       <defs>
        <path id="DejaVuSans-34" d="M 2419 4116 
L 825 1625 
L 2419 1625 
L 2419 4116 
z
M 2253 4666 
L 3047 4666 
L 3047 1625 
L 3713 1625 
L 3713 1100 
L 3047 1100 
L 3047 0 
L 2419 0 
L 2419 1100 
L 313 1100 
L 313 1709 
L 2253 4666 
z
" transform="scale(0.015625)"/>
       </defs>
       <use xlink:href="#DejaVuSans-34"/>
       <use xlink:href="#DejaVuSans-30" x="63.623047"/>
       <use xlink:href="#DejaVuSans-30" x="127.246094"/>
       <use xlink:href="#DejaVuSans-30" x="190.869141"/>
       <use xlink:href="#DejaVuSans-30" x="254.492188"/>
      </g>
     </g>
    </g>
    <g id="xtick_4">
     <g id="line2d_4">
      <g>
       <use xlink:href="#m59c11291c9" x="262.402647" y="307.584" style="stroke: #000000; stroke-width: 0.8"/>
      </g>
     </g>
     <g id="text_4">
      <!-- 60000 -->
      <g transform="translate(246.496397 322.182437) scale(0.1 -0.1)">
       <defs>
        <path id="DejaVuSans-36" d="M 2113 2584 
Q 1688 2584 1439 2293 
Q 1191 2003 1191 1497 
Q 1191 994 1439 701 
Q 1688 409 2113 409 
Q 2538 409 2786 701 
Q 3034 994 3034 1497 
Q 3034 2003 2786 2293 
Q 2538 2584 2113 2584 
z
M 3366 4563 
L 3366 3988 
Q 3128 4100 2886 4159 
Q 2644 4219 2406 4219 
Q 1781 4219 1451 3797 
Q 1122 3375 1075 2522 
Q 1259 2794 1537 2939 
Q 1816 3084 2150 3084 
Q 2853 3084 3261 2657 
Q 3669 2231 3669 1497 
Q 3669 778 3244 343 
Q 2819 -91 2113 -91 
Q 1303 -91 875 529 
Q 447 1150 447 2328 
Q 447 3434 972 4092 
Q 1497 4750 2381 4750 
Q 2619 4750 2861 4703 
Q 3103 4656 3366 4563 
z
" transform="scale(0.015625)"/>
       </defs>
       <use xlink:href="#DejaVuSans-36"/>
       <use xlink:href="#DejaVuSans-30" x="63.623047"/>
       <use xlink:href="#DejaVuSans-30" x="127.246094"/>
       <use xlink:href="#DejaVuSans-30" x="190.869141"/>
       <use xlink:href="#DejaVuSans-30" x="254.492188"/>
      </g>
     </g>
    </g>
    <g id="xtick_5">
     <g id="line2d_5">
      <g>
       <use xlink:href="#m59c11291c9" x="325.259287" y="307.584" style="stroke: #000000; stroke-width: 0.8"/>
      </g>
     </g>
     <g id="text_5">
      <!-- 80000 -->
      <g transform="translate(309.353037 322.182437) scale(0.1 -0.1)">
       <defs>
        <path id="DejaVuSans-38" d="M 2034 2216 
Q 1584 2216 1326 1975 
Q 1069 1734 1069 1313 
Q 1069 891 1326 650 
Q 1584 409 2034 409 
Q 2484 409 2743 651 
Q 3003 894 3003 1313 
Q 3003 1734 2745 1975 
Q 2488 2216 2034 2216 
z
M 1403 2484 
Q 997 2584 770 2862 
Q 544 3141 544 3541 
Q 544 4100 942 4425 
Q 1341 4750 2034 4750 
Q 2731 4750 3128 4425 
Q 3525 4100 3525 3541 
Q 3525 3141 3298 2862 
Q 3072 2584 2669 2484 
Q 3125 2378 3379 2068 
Q 3634 1759 3634 1313 
Q 3634 634 3220 271 
Q 2806 -91 2034 -91 
Q 1263 -91 848 271 
Q 434 634 434 1313 
Q 434 1759 690 2068 
Q 947 2378 1403 2484 
z
M 1172 3481 
Q 1172 3119 1398 2916 
Q 1625 2713 2034 2713 
Q 2441 2713 2670 2916 
Q 2900 3119 2900 3481 
Q 2900 3844 2670 4047 
Q 2441 4250 2034 4250 
Q 1625 4250 1398 4047 
Q 1172 3844 1172 3481 
z
" transform="scale(0.015625)"/>
       </defs>
       <use xlink:href="#DejaVuSans-38"/>
       <use xlink:href="#DejaVuSans-30" x="63.623047"/>
       <use xlink:href="#DejaVuSans-30" x="127.246094"/>
       <use xlink:href="#DejaVuSans-30" x="190.869141"/>
       <use xlink:href="#DejaVuSans-30" x="254.492188"/>
      </g>
     </g>
    </g>
    <g id="xtick_6">
     <g id="line2d_6">
      <g>
       <use xlink:href="#m59c11291c9" x="388.115927" y="307.584" style="stroke: #000000; stroke-width: 0.8"/>
      </g>
     </g>
     <g id="text_6">
      <!-- 100000 -->
      <g transform="translate(369.028427 322.182437) scale(0.1 -0.1)">
       <defs>
        <path id="DejaVuSans-31" d="M 794 531 
L 1825 531 
L 1825 4091 
L 703 3866 
L 703 4441 
L 1819 4666 
L 2450 4666 
L 2450 531 
L 3481 531 
L 3481 0 
L 794 0 
L 794 531 
z
" transform="scale(0.015625)"/>
       </defs>
       <use xlink:href="#DejaVuSans-31"/>
       <use xlink:href="#DejaVuSans-30" x="63.623047"/>
       <use xlink:href="#DejaVuSans-30" x="127.246094"/>
       <use xlink:href="#DejaVuSans-30" x="190.869141"/>
       <use xlink:href="#DejaVuSans-30" x="254.492188"/>
       <use xlink:href="#DejaVuSans-30" x="318.115234"/>
      </g>
     </g>
    </g>
   </g>
   <g id="matplotlib.axis_2">
    <g id="ytick_1">
     <g id="line2d_7">
      <defs>
       <path id="m67374baf45" d="M 0 0 
L -3.5 0 
" style="stroke: #000000; stroke-width: 0.8"/>
      </defs>
      <g>
       <use xlink:href="#m67374baf45" x="57.6" y="295.488" style="stroke: #000000; stroke-width: 0.8"/>
      </g>
     </g>
     <g id="text_7">
      <!-- 0.0 -->
      <g transform="translate(34.696875 299.287219) scale(0.1 -0.1)">
       <defs>
        <path id="DejaVuSans-2e" d="M 684 794 
L 1344 794 
L 1344 0 
L 684 0 
L 684 794 
z
" transform="scale(0.015625)"/>
       </defs>
       <use xlink:href="#DejaVuSans-30"/>
       <use xlink:href="#DejaVuSans-2e" x="63.623047"/>
       <use xlink:href="#DejaVuSans-30" x="95.410156"/>
      </g>
     </g>
    </g>
    <g id="ytick_2">
     <g id="line2d_8">
      <g>
       <use xlink:href="#m67374baf45" x="57.6" y="247.104" style="stroke: #000000; stroke-width: 0.8"/>
      </g>
     </g>
     <g id="text_8">
      <!-- 0.2 -->
      <g transform="translate(34.696875 250.903219) scale(0.1 -0.1)">
       <use xlink:href="#DejaVuSans-30"/>
       <use xlink:href="#DejaVuSans-2e" x="63.623047"/>
       <use xlink:href="#DejaVuSans-32" x="95.410156"/>
      </g>
     </g>
    </g>
    <g id="ytick_3">
     <g id="line2d_9">
      <g>
       <use xlink:href="#m67374baf45" x="57.6" y="198.72" style="stroke: #000000; stroke-width: 0.8"/>
      </g>
     </g>
     <g id="text_9">
      <!-- 0.4 -->
      <g transform="translate(34.696875 202.519219) scale(0.1 -0.1)">
       <use xlink:href="#DejaVuSans-30"/>
       <use xlink:href="#DejaVuSans-2e" x="63.623047"/>
       <use xlink:href="#DejaVuSans-34" x="95.410156"/>
      </g>
     </g>
    </g>
    <g id="ytick_4">
     <g id="line2d_10">
      <g>
       <use xlink:href="#m67374baf45" x="57.6" y="150.336" style="stroke: #000000; stroke-width: 0.8"/>
      </g>
     </g>
     <g id="text_10">
      <!-- 0.6 -->
      <g transform="translate(34.696875 154.135219) scale(0.1 -0.1)">
       <use xlink:href="#DejaVuSans-30"/>
       <use xlink:href="#DejaVuSans-2e" x="63.623047"/>
       <use xlink:href="#DejaVuSans-36" x="95.410156"/>
      </g>
     </g>
    </g>
    <g id="ytick_5">
     <g id="line2d_11">
      <g>
       <use xlink:href="#m67374baf45" x="57.6" y="101.952" style="stroke: #000000; stroke-width: 0.8"/>
      </g>
     </g>
     <g id="text_11">
      <!-- 0.8 -->
      <g transform="translate(34.696875 105.751219) scale(0.1 -0.1)">
       <use xlink:href="#DejaVuSans-30"/>
       <use xlink:href="#DejaVuSans-2e" x="63.623047"/>
       <use xlink:href="#DejaVuSans-38" x="95.410156"/>
      </g>
     </g>
    </g>
    <g id="ytick_6">
     <g id="line2d_12">
      <g>
       <use xlink:href="#m67374baf45" x="57.6" y="53.568" style="stroke: #000000; stroke-width: 0.8"/>
      </g>
     </g>
     <g id="text_12">
      <!-- 1.0 -->
      <g transform="translate(34.696875 57.367219) scale(0.1 -0.1)">
       <use xlink:href="#DejaVuSans-31"/>
       <use xlink:href="#DejaVuSans-2e" x="63.623047"/>
       <use xlink:href="#DejaVuSans-30" x="95.410156"/>
      </g>
     </g>
    </g>
   </g>
   <g id="line2d_13">
    <path d="M 73.832727 295.488 
L 80.904099 295.488 
L 80.998384 190.041908 
L 80.998384 190.041908 
L 81.124098 190.041908 
L 81.124098 189.799503 
L 82.286945 189.799503 
L 82.349802 188.587479 
L 82.349802 188.587479 
L 82.538372 188.587479 
L 82.538372 187.860265 
L 82.538372 187.860265 
L 84.141216 187.860265 
L 84.235501 187.375455 
L 84.329786 187.375455 
L 84.329786 187.13305 
L 85.901202 187.13305 
L 85.964059 186.64824 
L 86.49834 186.64824 
L 86.529769 186.163431 
L 86.749767 186.163431 
L 86.749767 185.921026 
L 86.87548 185.921026 
L 86.87548 185.678621 
L 87.001193 185.678621 
L 87.032622 184.466597 
L 87.032622 184.466597 
L 87.25262 184.466597 
L 87.25262 184.224192 
L 88.038328 184.224192 
L 88.038328 183.981788 
L 88.478324 183.981788 
L 88.478324 183.739383 
L 88.666894 183.739383 
L 88.761179 183.254573 
L 89.389746 183.254573 
L 89.389746 183.012168 
L 89.704029 183.012168 
L 89.704029 182.042549 
L 89.704029 182.042549 
L 89.86117 182.042549 
L 89.86117 181.800144 
L 90.584022 181.800144 
L 90.584022 181.315335 
L 90.584022 181.315335 
L 90.741163 181.315335 
L 90.80402 180.830525 
L 91.275445 180.830525 
L 91.275445 180.58812 
L 91.432586 180.58812 
L 91.526871 179.860906 
L 91.526871 179.860906 
L 91.589728 179.860906 
L 91.589728 179.618501 
L 92.438293 179.618501 
L 92.438293 179.376096 
L 92.878289 179.376096 
L 92.878289 179.133691 
L 93.286857 179.133691 
L 93.286857 178.891287 
L 93.695426 178.891287 
L 93.695426 178.648882 
L 94.418277 178.648882 
L 94.418277 177.679263 
L 94.418277 177.679263 
L 94.638275 177.679263 
L 94.638275 177.194453 
L 94.638275 177.194453 
L 94.763988 177.194453 
L 94.763988 176.224834 
L 94.763988 176.224834 
L 94.983987 176.224834 
L 94.983987 175.982429 
L 95.455411 175.982429 
L 95.455411 175.740024 
L 95.581125 175.740024 
L 95.612553 174.770405 
L 95.832551 174.770405 
L 95.832551 174.528 
L 96.083978 174.528 
L 96.083978 174.285595 
L 96.241119 174.285595 
L 96.335404 172.346357 
L 96.335404 172.346357 
L 96.492546 172.346357 
L 96.492546 171.376737 
L 96.492546 171.376737 
L 96.806829 171.376737 
L 96.806829 171.134333 
L 96.932542 171.134333 
L 96.932542 169.922309 
L 96.932542 169.922309 
L 97.781107 169.922309 
L 97.781107 169.679904 
L 98.158247 169.679904 
L 98.158247 169.437499 
L 98.28396 169.437499 
L 98.28396 169.195094 
L 98.47253 169.195094 
L 98.535387 167.98307 
L 98.535387 167.98307 
L 98.598243 167.98307 
L 98.598243 167.740665 
L 98.723957 167.740665 
L 98.723957 167.498261 
L 98.943955 167.498261 
L 98.943955 167.255856 
L 100.515371 167.255856 
L 100.515371 166.771046 
L 100.515371 166.771046 
L 101.458221 166.771046 
L 101.458221 166.528641 
L 102.055359 166.528641 
L 102.055359 166.286236 
L 102.40107 166.286236 
L 102.40107 165.801427 
L 102.40107 165.801427 
L 102.526783 165.801427 
L 102.526783 165.316617 
L 102.526783 165.316617 
L 102.841067 165.316617 
L 102.841067 165.074212 
L 103.53249 165.074212 
L 103.53249 164.831808 
L 103.689631 164.831808 
L 103.689631 164.589403 
L 104.003914 164.589403 
L 104.003914 163.619784 
L 104.003914 163.619784 
L 104.286769 163.619784 
L 104.318198 163.134974 
L 104.412483 163.134974 
L 104.475339 162.650164 
L 104.883907 162.650164 
L 104.978192 162.165355 
L 105.041049 162.165355 
L 105.041049 161.92295 
L 105.386761 161.92295 
L 105.418189 160.953331 
L 105.701044 160.953331 
L 105.7639 160.468521 
L 105.921042 160.468521 
L 105.921042 160.226116 
L 106.455323 160.226116 
L 106.549608 159.741307 
L 107.398173 159.741307 
L 107.398173 159.498902 
L 108.623877 159.498902 
L 108.655306 158.529283 
L 109.50387 158.529283 
L 109.50387 158.286878 
L 109.629584 158.286878 
L 109.629584 158.044473 
L 110.038152 158.044473 
L 110.038152 157.802068 
L 110.163865 157.802068 
L 110.25815 156.832449 
L 110.321007 156.832449 
L 110.415292 156.347639 
L 110.63529 156.347639 
L 110.698147 155.135615 
L 110.761003 155.135615 
L 110.855288 154.650806 
L 111.075286 154.650806 
L 111.138143 154.165996 
L 111.263856 154.165996 
L 111.358141 151.257138 
L 111.358141 151.257138 
L 111.546711 151.257138 
L 111.609568 149.802709 
L 111.672425 149.802709 
L 111.735281 149.075495 
L 111.798138 149.075495 
L 111.860994 148.348281 
L 111.923851 148.348281 
L 112.018136 146.651447 
L 112.018136 146.651447 
L 112.049564 146.651447 
L 112.049564 146.409042 
L 112.175278 146.409042 
L 112.175278 146.166637 
L 112.300991 146.166637 
L 112.395276 144.954613 
L 112.395276 144.954613 
L 112.426704 144.954613 
L 112.520989 144.227399 
L 112.552417 144.227399 
L 112.615274 143.015375 
L 113.023842 143.015375 
L 113.118127 142.530565 
L 113.275269 142.530565 
L 113.275269 142.28816 
L 113.495267 142.28816 
L 113.526695 141.318541 
L 113.526695 141.318541 
L 113.652409 141.318541 
L 113.683837 140.833731 
L 113.840979 140.833731 
L 113.840979 140.591327 
L 114.029549 140.591327 
L 114.029549 140.348922 
L 114.249547 140.348922 
L 114.312403 139.864112 
L 114.7524 139.864112 
L 114.815257 139.136898 
L 115.412395 139.136898 
L 115.412395 138.894493 
L 115.663821 138.894493 
L 115.695249 138.409683 
L 115.946676 138.409683 
L 115.946676 138.167279 
L 117.172381 138.167279 
L 117.172381 137.924874 
L 117.486664 137.924874 
L 117.486664 137.682469 
L 117.643805 137.682469 
L 117.643805 137.440064 
L 117.832375 137.440064 
L 117.832375 136.955255 
L 117.832375 136.955255 
L 118.618083 136.955255 
L 118.618083 136.71285 
L 118.743797 136.71285 
L 118.743797 136.470445 
L 118.995223 136.470445 
L 118.995223 136.22804 
L 119.215221 136.22804 
L 119.24665 135.74323 
L 119.466648 135.74323 
L 119.529505 135.016016 
L 119.655218 135.016016 
L 119.686646 134.046397 
L 119.686646 134.046397 
L 119.780931 134.046397 
L 119.780931 133.561587 
L 119.780931 133.561587 
L 120.000929 133.561587 
L 120.032358 133.076778 
L 120.126643 133.076778 
L 120.126643 132.834373 
L 120.440926 132.834373 
L 120.535211 132.107158 
L 120.723781 132.107158 
L 120.818066 131.137539 
L 120.818066 131.137539 
L 120.849494 131.137539 
L 120.849494 130.652729 
L 120.849494 130.652729 
L 121.038064 130.652729 
L 121.038064 130.410325 
L 121.226634 130.410325 
L 121.320919 128.955896 
L 121.320919 128.955896 
L 121.352347 128.955896 
L 121.446632 128.471086 
L 121.635202 128.471086 
L 121.698059 127.986277 
L 121.792344 127.986277 
L 121.792344 127.501467 
L 121.792344 127.501467 
L 121.918057 127.501467 
L 121.949485 126.774253 
L 122.075198 126.774253 
L 122.138055 126.047038 
L 122.389482 126.047038 
L 122.389482 125.562228 
L 122.389482 125.562228 
L 122.60948 125.562228 
L 122.703765 124.835014 
L 122.735193 124.835014 
L 122.766621 124.1078 
L 122.860906 124.1078 
L 122.923763 123.62299 
L 123.018048 123.62299 
L 123.018048 123.380585 
L 123.520901 123.380585 
L 123.615186 122.895776 
L 123.709471 122.895776 
L 123.709471 122.653371 
L 124.338037 122.653371 
L 124.369466 122.168561 
L 124.495179 122.168561 
L 124.495179 121.926156 
L 124.683749 121.926156 
L 124.746606 120.956537 
L 124.998032 120.956537 
L 125.092317 120.229323 
L 125.123745 120.229323 
L 125.21803 119.744513 
L 125.280887 119.744513 
L 125.312315 119.259703 
L 125.658027 119.259703 
L 125.720884 118.532489 
L 125.78374 118.532489 
L 125.846597 118.047679 
L 125.909453 118.047679 
L 125.940882 117.56287 
L 126.16088 117.56287 
L 126.192308 116.835655 
L 126.318022 116.835655 
L 126.380878 116.108441 
L 126.758018 116.108441 
L 126.852303 115.623631 
L 126.978016 115.623631 
L 127.072301 114.411607 
L 127.072301 114.411607 
L 127.166586 114.411607 
L 127.166586 114.169202 
L 127.2923 114.169202 
L 127.323728 113.684393 
L 127.512298 113.684393 
L 127.512298 112.957178 
L 127.512298 112.957178 
L 127.732296 112.957178 
L 127.732296 112.714774 
L 127.889438 112.714774 
L 127.889438 112.472369 
L 128.015151 112.472369 
L 128.015151 112.229964 
L 128.203721 112.229964 
L 128.298006 111.260345 
L 128.392291 111.260345 
L 128.392291 110.53313 
L 128.392291 110.53313 
L 128.769431 110.53313 
L 128.769431 110.290725 
L 129.052285 110.290725 
L 129.083714 109.805916 
L 129.303712 109.805916 
L 129.303712 108.836297 
L 129.303712 108.836297 
L 129.586567 108.836297 
L 129.586567 108.593892 
L 129.995135 108.593892 
L 130.026563 107.624273 
L 130.215133 107.624273 
L 130.27799 106.897058 
L 130.27799 106.897058 
L 130.403703 106.897058 
L 130.403703 106.654653 
L 130.812271 106.654653 
L 130.812271 106.412248 
L 131.126555 106.412248 
L 131.126555 106.169844 
L 131.597979 106.169844 
L 131.597979 105.927439 
L 131.786549 105.927439 
L 131.786549 105.685034 
L 131.943691 105.685034 
L 131.943691 105.442629 
L 132.477972 105.442629 
L 132.477972 105.200224 
L 132.729399 105.200224 
L 132.729399 104.95782 
L 133.45225 104.95782 
L 133.45225 104.715415 
L 134.080817 104.715415 
L 134.080817 104.47301 
L 134.77224 104.47301 
L 134.866525 103.018581 
L 134.866525 103.018581 
L 135.117951 103.018581 
L 135.117951 102.776176 
L 135.337949 102.776176 
L 135.337949 102.533772 
L 135.495091 102.533772 
L 135.495091 102.291367 
L 136.249371 102.291367 
L 136.249371 101.564152 
L 136.249371 101.564152 
L 136.406512 101.564152 
L 136.500797 101.079343 
L 137.19222 101.079343 
L 137.19222 100.836938 
L 137.349362 100.836938 
L 137.349362 100.594533 
L 137.600789 100.594533 
L 137.695073 100.109723 
L 137.883643 100.109723 
L 137.883643 99.867319 
L 139.329346 99.867319 
L 139.329346 99.140104 
L 139.329346 99.140104 
L 139.486488 99.140104 
L 139.486488 98.41289 
L 139.486488 98.41289 
L 139.895056 98.41289 
L 139.895056 98.170485 
L 140.020769 98.170485 
L 140.020769 97.92808 
L 140.523622 97.92808 
L 140.555051 97.200866 
L 140.649336 97.200866 
L 140.743621 95.019222 
L 140.775049 95.019222 
L 140.775049 94.776818 
L 140.963619 94.776818 
L 140.963619 94.049603 
L 140.963619 94.049603 
L 141.183617 94.049603 
L 141.183617 93.807198 
L 141.340759 93.807198 
L 141.435044 92.595174 
L 141.435044 92.595174 
L 141.466472 92.595174 
L 141.466472 92.35277 
L 141.717898 92.35277 
L 141.780755 91.140745 
L 141.843612 91.140745 
L 141.906468 90.413531 
L 142.157895 90.413531 
L 142.189323 89.928721 
L 142.597891 89.928721 
L 142.692176 89.201507 
L 142.723605 89.201507 
L 142.81789 88.231888 
L 142.81789 88.231888 
L 142.849318 88.231888 
L 142.943603 86.777459 
L 142.943603 86.777459 
L 143.00646 86.777459 
L 143.037888 85.80784 
L 143.352171 85.80784 
L 143.383599 84.83822 
L 143.477884 84.83822 
L 143.540741 84.353411 
L 143.635026 84.353411 
L 143.666454 83.626196 
L 143.666454 83.626196 
L 143.792168 83.626196 
L 143.886453 83.141387 
L 143.917881 83.141387 
L 143.980737 82.656577 
L 144.075022 82.656577 
L 144.169307 81.929363 
L 144.232164 81.929363 
L 144.232164 81.686958 
L 144.515019 81.686958 
L 144.546447 81.202148 
L 144.986444 81.202148 
L 145.017872 80.717339 
L 145.206442 80.717339 
L 145.206442 80.474934 
L 145.332155 80.474934 
L 145.363584 79.747719 
L 145.363584 79.747719 
L 145.99215 79.747719 
L 145.99215 79.505315 
L 146.55786 79.505315 
L 146.620716 79.020505 
L 147.092141 79.020505 
L 147.092141 78.7781 
L 149.637835 78.7781 
L 149.637835 78.050886 
L 149.637835 78.050886 
L 149.889262 78.050886 
L 149.889262 77.808481 
L 150.580685 77.808481 
L 150.580685 77.566076 
L 151.837817 77.566076 
L 151.837817 77.323671 
L 152.592097 77.323671 
L 152.592097 77.081267 
L 153.032094 77.081267 
L 153.032094 76.838862 
L 155.514931 76.838862 
L 155.514931 76.596457 
L 156.803492 76.596457 
L 156.803492 75.869242 
L 156.803492 75.869242 
L 157.306345 75.869242 
L 157.306345 75.142028 
L 157.306345 75.142028 
L 157.526343 75.142028 
L 157.557772 74.414814 
L 157.840627 74.414814 
L 157.934912 72.960385 
L 157.934912 72.960385 
L 158.060625 72.960385 
L 158.15491 70.778741 
L 158.15491 70.778741 
L 158.249195 70.778741 
L 158.34348 69.081908 
L 158.34348 69.081908 
L 158.469193 69.081908 
L 158.469193 68.354693 
L 158.469193 68.354693 
L 158.689191 68.354693 
L 158.72062 67.869884 
L 158.909189 67.869884 
L 159.003474 65.445836 
L 159.003474 65.445836 
L 159.223473 65.445836 
L 159.223473 65.203431 
L 159.380614 65.203431 
L 159.474899 63.749002 
L 159.600613 63.749002 
L 159.694897 62.294573 
L 159.694897 62.294573 
L 160.009181 62.294573 
L 160.040609 61.567359 
L 160.197751 61.567359 
L 160.197751 60.840144 
L 160.197751 60.840144 
L 160.354892 60.840144 
L 160.386321 60.355335 
L 160.480605 60.355335 
L 160.512034 59.870525 
L 205.328818 59.870525 
L 205.328818 59.62812 
L 205.643101 59.62812 
L 205.643101 59.385715 
L 206.460238 59.385715 
L 206.460238 59.143311 
L 208.000225 59.143311 
L 208.000225 58.900906 
L 214.160176 58.900906 
L 214.160176 58.658501 
L 221.262976 58.658501 
L 221.294405 57.688882 
L 221.545831 57.688882 
L 221.545831 57.446477 
L 221.734401 57.446477 
L 221.734401 57.204072 
L 222.017256 57.204072 
L 222.017256 56.476858 
L 222.017256 56.476858 
L 222.174398 56.476858 
L 222.174398 55.992048 
L 222.174398 55.992048 
L 222.771536 55.992048 
L 222.771536 55.264834 
L 222.771536 55.264834 
L 366.996096 55.264834 
L 366.996096 55.022429 
L 367.530378 55.022429 
L 367.530378 54.780024 
L 377.116015 54.780024 
L 377.116015 54.537619 
L 377.838866 54.537619 
L 377.838866 54.295214 
L 387.958786 54.295214 
L 387.958786 54.05281 
L 388.524495 54.05281 
L 388.524495 53.810405 
L 398.487273 53.810405 
L 398.487273 53.568 
L 398.487273 53.568 
" clip-path="url(#pca44282dd2)" style="fill: none; stroke: #1f77b4; stroke-width: 1.5; stroke-linecap: square"/>
   </g>
   <g id="patch_3">
    <path d="M 57.6 307.584 
L 57.6 41.472 
" style="fill: none; stroke: #000000; stroke-width: 0.8; stroke-linejoin: miter; stroke-linecap: square"/>
   </g>
   <g id="patch_4">
    <path d="M 414.72 307.584 
L 414.72 41.472 
" style="fill: none; stroke: #000000; stroke-width: 0.8; stroke-linejoin: miter; stroke-linecap: square"/>
   </g>
   <g id="patch_5">
    <path d="M 57.6 307.584 
L 414.72 307.584 
" style="fill: none; stroke: #000000; stroke-width: 0.8; stroke-linejoin: miter; stroke-linecap: square"/>
   </g>
   <g id="patch_6">
    <path d="M 57.6 41.472 
L 414.72 41.472 
" style="fill: none; stroke: #000000; stroke-width: 0.8; stroke-linejoin: miter; stroke-linecap: square"/>
   </g>
   <g id="text_13">
    <!-- S5 S6 -->
    <g transform="translate(219 35.472) scale(0.12 -0.12)">
     <defs>
      <path id="DejaVuSans-53" d="M 3425 4513 
L 3425 3897 
Q 3066 4069 2747 4153 
Q 2428 4238 2131 4238 
Q 1616 4238 1336 4038 
Q 1056 3838 1056 3469 
Q 1056 3159 1242 3001 
Q 1428 2844 1947 2747 
L 2328 2669 
Q 3034 2534 3370 2195 
Q 3706 1856 3706 1288 
Q 3706 609 3251 259 
Q 2797 -91 1919 -91 
Q 1588 -91 1214 -16 
Q 841 59 441 206 
L 441 856 
Q 825 641 1194 531 
Q 1563 422 1919 422 
Q 2459 422 2753 634 
Q 3047 847 3047 1241 
Q 3047 1584 2836 1778 
Q 2625 1972 2144 2069 
L 1759 2144 
Q 1053 2284 737 2584 
Q 422 2884 422 3419 
Q 422 4038 858 4394 
Q 1294 4750 2059 4750 
Q 2388 4750 2728 4690 
Q 3069 4631 3425 4513 
z
" transform="scale(0.015625)"/>
      <path id="DejaVuSans-35" d="M 691 4666 
L 3169 4666 
L 3169 4134 
L 1269 4134 
L 1269 2991 
Q 1406 3038 1543 3061 
Q 1681 3084 1819 3084 
Q 2600 3084 3056 2656 
Q 3513 2228 3513 1497 
Q 3513 744 3044 326 
Q 2575 -91 1722 -91 
Q 1428 -91 1123 -41 
Q 819 9 494 109 
L 494 744 
Q 775 591 1075 516 
Q 1375 441 1709 441 
Q 2250 441 2565 725 
Q 2881 1009 2881 1497 
Q 2881 1984 2565 2268 
Q 2250 2553 1709 2553 
Q 1456 2553 1204 2497 
Q 953 2441 691 2322 
L 691 4666 
z
" transform="scale(0.015625)"/>
      <path id="DejaVuSans-20" transform="scale(0.015625)"/>
     </defs>
     <use xlink:href="#DejaVuSans-53"/>
     <use xlink:href="#DejaVuSans-35" x="63.476562"/>
     <use xlink:href="#DejaVuSans-20" x="127.099609"/>
     <use xlink:href="#DejaVuSans-53" x="158.886719"/>
     <use xlink:href="#DejaVuSans-36" x="222.363281"/>
    </g>
   </g>
   <g id="legend_1">
    <g id="patch_7">
     <path d="M 299.496562 304.584 
L 410.52 304.584 
Q 411.72 304.584 411.72 303.384 
L 411.72 295.177125 
Q 411.72 293.977125 410.52 293.977125 
L 299.496562 293.977125 
Q 298.296562 293.977125 298.296562 295.177125 
L 298.296562 303.384 
Q 298.296562 304.584 299.496562 304.584 
z
" style="fill: #ffffff; opacity: 0.8; stroke: #cccccc; stroke-linejoin: miter"/>
    </g>
    <g id="line2d_14">
     <path d="M 300.696562 298.836187 
L 306.696562 298.836187 
L 312.696562 298.836187 
" style="fill: none; stroke: #1f77b4; stroke-width: 1.5; stroke-linecap: square"/>
    </g>
    <g id="text_14">
     <!-- Execution time between S5 S6 -->
     <g transform="translate(317.496562 300.936187) scale(0.06 -0.06)">
      <defs>
       <path id="DejaVuSans-45" d="M 628 4666 
L 3578 4666 
L 3578 4134 
L 1259 4134 
L 1259 2753 
L 3481 2753 
L 3481 2222 
L 1259 2222 
L 1259 531 
L 3634 531 
L 3634 0 
L 628 0 
L 628 4666 
z
" transform="scale(0.015625)"/>
       <path id="DejaVuSans-78" d="M 3513 3500 
L 2247 1797 
L 3578 0 
L 2900 0 
L 1881 1375 
L 863 0 
L 184 0 
L 1544 1831 
L 300 3500 
L 978 3500 
L 1906 2253 
L 2834 3500 
L 3513 3500 
z
" transform="scale(0.015625)"/>
       <path id="DejaVuSans-65" d="M 3597 1894 
L 3597 1613 
L 953 1613 
Q 991 1019 1311 708 
Q 1631 397 2203 397 
Q 2534 397 2845 478 
Q 3156 559 3463 722 
L 3463 178 
Q 3153 47 2828 -22 
Q 2503 -91 2169 -91 
Q 1331 -91 842 396 
Q 353 884 353 1716 
Q 353 2575 817 3079 
Q 1281 3584 2069 3584 
Q 2775 3584 3186 3129 
Q 3597 2675 3597 1894 
z
M 3022 2063 
Q 3016 2534 2758 2815 
Q 2500 3097 2075 3097 
Q 1594 3097 1305 2825 
Q 1016 2553 972 2059 
L 3022 2063 
z
" transform="scale(0.015625)"/>
       <path id="DejaVuSans-63" d="M 3122 3366 
L 3122 2828 
Q 2878 2963 2633 3030 
Q 2388 3097 2138 3097 
Q 1578 3097 1268 2742 
Q 959 2388 959 1747 
Q 959 1106 1268 751 
Q 1578 397 2138 397 
Q 2388 397 2633 464 
Q 2878 531 3122 666 
L 3122 134 
Q 2881 22 2623 -34 
Q 2366 -91 2075 -91 
Q 1284 -91 818 406 
Q 353 903 353 1747 
Q 353 2603 823 3093 
Q 1294 3584 2113 3584 
Q 2378 3584 2631 3529 
Q 2884 3475 3122 3366 
z
" transform="scale(0.015625)"/>
       <path id="DejaVuSans-75" d="M 544 1381 
L 544 3500 
L 1119 3500 
L 1119 1403 
Q 1119 906 1312 657 
Q 1506 409 1894 409 
Q 2359 409 2629 706 
Q 2900 1003 2900 1516 
L 2900 3500 
L 3475 3500 
L 3475 0 
L 2900 0 
L 2900 538 
Q 2691 219 2414 64 
Q 2138 -91 1772 -91 
Q 1169 -91 856 284 
Q 544 659 544 1381 
z
M 1991 3584 
L 1991 3584 
z
" transform="scale(0.015625)"/>
       <path id="DejaVuSans-74" d="M 1172 4494 
L 1172 3500 
L 2356 3500 
L 2356 3053 
L 1172 3053 
L 1172 1153 
Q 1172 725 1289 603 
Q 1406 481 1766 481 
L 2356 481 
L 2356 0 
L 1766 0 
Q 1100 0 847 248 
Q 594 497 594 1153 
L 594 3053 
L 172 3053 
L 172 3500 
L 594 3500 
L 594 4494 
L 1172 4494 
z
" transform="scale(0.015625)"/>
       <path id="DejaVuSans-69" d="M 603 3500 
L 1178 3500 
L 1178 0 
L 603 0 
L 603 3500 
z
M 603 4863 
L 1178 4863 
L 1178 4134 
L 603 4134 
L 603 4863 
z
" transform="scale(0.015625)"/>
       <path id="DejaVuSans-6f" d="M 1959 3097 
Q 1497 3097 1228 2736 
Q 959 2375 959 1747 
Q 959 1119 1226 758 
Q 1494 397 1959 397 
Q 2419 397 2687 759 
Q 2956 1122 2956 1747 
Q 2956 2369 2687 2733 
Q 2419 3097 1959 3097 
z
M 1959 3584 
Q 2709 3584 3137 3096 
Q 3566 2609 3566 1747 
Q 3566 888 3137 398 
Q 2709 -91 1959 -91 
Q 1206 -91 779 398 
Q 353 888 353 1747 
Q 353 2609 779 3096 
Q 1206 3584 1959 3584 
z
" transform="scale(0.015625)"/>
       <path id="DejaVuSans-6e" d="M 3513 2113 
L 3513 0 
L 2938 0 
L 2938 2094 
Q 2938 2591 2744 2837 
Q 2550 3084 2163 3084 
Q 1697 3084 1428 2787 
Q 1159 2491 1159 1978 
L 1159 0 
L 581 0 
L 581 3500 
L 1159 3500 
L 1159 2956 
Q 1366 3272 1645 3428 
Q 1925 3584 2291 3584 
Q 2894 3584 3203 3211 
Q 3513 2838 3513 2113 
z
" transform="scale(0.015625)"/>
       <path id="DejaVuSans-6d" d="M 3328 2828 
Q 3544 3216 3844 3400 
Q 4144 3584 4550 3584 
Q 5097 3584 5394 3201 
Q 5691 2819 5691 2113 
L 5691 0 
L 5113 0 
L 5113 2094 
Q 5113 2597 4934 2840 
Q 4756 3084 4391 3084 
Q 3944 3084 3684 2787 
Q 3425 2491 3425 1978 
L 3425 0 
L 2847 0 
L 2847 2094 
Q 2847 2600 2669 2842 
Q 2491 3084 2119 3084 
Q 1678 3084 1418 2786 
Q 1159 2488 1159 1978 
L 1159 0 
L 581 0 
L 581 3500 
L 1159 3500 
L 1159 2956 
Q 1356 3278 1631 3431 
Q 1906 3584 2284 3584 
Q 2666 3584 2933 3390 
Q 3200 3197 3328 2828 
z
" transform="scale(0.015625)"/>
       <path id="DejaVuSans-62" d="M 3116 1747 
Q 3116 2381 2855 2742 
Q 2594 3103 2138 3103 
Q 1681 3103 1420 2742 
Q 1159 2381 1159 1747 
Q 1159 1113 1420 752 
Q 1681 391 2138 391 
Q 2594 391 2855 752 
Q 3116 1113 3116 1747 
z
M 1159 2969 
Q 1341 3281 1617 3432 
Q 1894 3584 2278 3584 
Q 2916 3584 3314 3078 
Q 3713 2572 3713 1747 
Q 3713 922 3314 415 
Q 2916 -91 2278 -91 
Q 1894 -91 1617 61 
Q 1341 213 1159 525 
L 1159 0 
L 581 0 
L 581 4863 
L 1159 4863 
L 1159 2969 
z
" transform="scale(0.015625)"/>
       <path id="DejaVuSans-77" d="M 269 3500 
L 844 3500 
L 1563 769 
L 2278 3500 
L 2956 3500 
L 3675 769 
L 4391 3500 
L 4966 3500 
L 4050 0 
L 3372 0 
L 2619 2869 
L 1863 0 
L 1184 0 
L 269 3500 
z
" transform="scale(0.015625)"/>
      </defs>
      <use xlink:href="#DejaVuSans-45"/>
      <use xlink:href="#DejaVuSans-78" x="63.183594"/>
      <use xlink:href="#DejaVuSans-65" x="119.238281"/>
      <use xlink:href="#DejaVuSans-63" x="180.761719"/>
      <use xlink:href="#DejaVuSans-75" x="235.742188"/>
      <use xlink:href="#DejaVuSans-74" x="299.121094"/>
      <use xlink:href="#DejaVuSans-69" x="338.330078"/>
      <use xlink:href="#DejaVuSans-6f" x="366.113281"/>
      <use xlink:href="#DejaVuSans-6e" x="427.294922"/>
      <use xlink:href="#DejaVuSans-20" x="490.673828"/>
      <use xlink:href="#DejaVuSans-74" x="522.460938"/>
      <use xlink:href="#DejaVuSans-69" x="561.669922"/>
      <use xlink:href="#DejaVuSans-6d" x="589.453125"/>
      <use xlink:href="#DejaVuSans-65" x="686.865234"/>
      <use xlink:href="#DejaVuSans-20" x="748.388672"/>
      <use xlink:href="#DejaVuSans-62" x="780.175781"/>
      <use xlink:href="#DejaVuSans-65" x="843.652344"/>
      <use xlink:href="#DejaVuSans-74" x="905.175781"/>
      <use xlink:href="#DejaVuSans-77" x="944.384766"/>
      <use xlink:href="#DejaVuSans-65" x="1026.171875"/>
      <use xlink:href="#DejaVuSans-65" x="1087.695312"/>
      <use xlink:href="#DejaVuSans-6e" x="1149.21875"/>
      <use xlink:href="#DejaVuSans-20" x="1212.597656"/>
      <use xlink:href="#DejaVuSans-53" x="1244.384766"/>
      <use xlink:href="#DejaVuSans-35" x="1307.861328"/>
      <use xlink:href="#DejaVuSans-20" x="1371.484375"/>
      <use xlink:href="#DejaVuSans-53" x="1403.271484"/>
      <use xlink:href="#DejaVuSans-36" x="1466.748047"/>
     </g>
    </g>
   </g>
  </g>
 </g>
 <defs>
  <clipPath id="pca44282dd2">
   <rect x="57.6" y="41.472" width="357.12" height="266.112"/>
  </clipPath>
 </defs>
</svg>
