<?xml version="1.0" encoding="utf-8" standalone="no"?>
<!DOCTYPE svg PUBLIC "-//W3C//DTD SVG 1.1//EN"
  "http://www.w3.org/Graphics/SVG/1.1/DTD/svg11.dtd">
<svg xmlns:xlink="http://www.w3.org/1999/xlink" width="460.8pt" height="345.6pt" viewBox="0 0 460.8 345.6" xmlns="http://www.w3.org/2000/svg" version="1.1">
 <metadata>
  <rdf:RDF xmlns:dc="http://purl.org/dc/elements/1.1/" xmlns:cc="http://creativecommons.org/ns#" xmlns:rdf="http://www.w3.org/1999/02/22-rdf-syntax-ns#">
   <cc:Work>
    <dc:type rdf:resource="http://purl.org/dc/dcmitype/StillImage"/>
    <dc:date>2024-03-08T12:01:51.918887</dc:date>
    <dc:format>image/svg+xml</dc:format>
    <dc:creator>
     <cc:Agent>
      <dc:title>Matplotlib v3.8.2, https://matplotlib.org/</dc:title>
     </cc:Agent>
    </dc:creator>
   </cc:Work>
  </rdf:RDF>
 </metadata>
 <defs>
  <style type="text/css">*{stroke-linejoin: round; stroke-linecap: butt}</style>
 </defs>
 <g id="figure_1">
  <g id="patch_1">
   <path d="M 0 345.6 
L 460.8 345.6 
L 460.8 0 
L 0 0 
z
" style="fill: #ffffff"/>
  </g>
  <g id="axes_1">
   <g id="patch_2">
    <path d="M 57.6 307.584 
L 414.72 307.584 
L 414.72 41.472 
L 57.6 41.472 
z
" style="fill: #ffffff"/>
   </g>
   <g id="matplotlib.axis_1">
    <g id="xtick_1">
     <g id="line2d_1">
      <defs>
       <path id="mb1890bd75a" d="M 0 0 
L 0 3.5 
" style="stroke: #000000; stroke-width: 0.8"/>
      </defs>
      <g>
       <use xlink:href="#mb1890bd75a" x="73.817385" y="307.584" style="stroke: #000000; stroke-width: 0.8"/>
      </g>
     </g>
     <g id="text_1">
      <!-- 0.0 -->
      <g transform="translate(65.865822 322.182437) scale(0.1 -0.1)">
       <defs>
        <path id="DejaVuSans-30" d="M 2034 4250 
Q 1547 4250 1301 3770 
Q 1056 3291 1056 2328 
Q 1056 1369 1301 889 
Q 1547 409 2034 409 
Q 2525 409 2770 889 
Q 3016 1369 3016 2328 
Q 3016 3291 2770 3770 
Q 2525 4250 2034 4250 
z
M 2034 4750 
Q 2819 4750 3233 4129 
Q 3647 3509 3647 2328 
Q 3647 1150 3233 529 
Q 2819 -91 2034 -91 
Q 1250 -91 836 529 
Q 422 1150 422 2328 
Q 422 3509 836 4129 
Q 1250 4750 2034 4750 
z
" transform="scale(0.015625)"/>
        <path id="DejaVuSans-2e" d="M 684 794 
L 1344 794 
L 1344 0 
L 684 0 
L 684 794 
z
" transform="scale(0.015625)"/>
       </defs>
       <use xlink:href="#DejaVuSans-30"/>
       <use xlink:href="#DejaVuSans-2e" x="63.623047"/>
       <use xlink:href="#DejaVuSans-30" x="95.410156"/>
      </g>
     </g>
    </g>
    <g id="xtick_2">
     <g id="line2d_2">
      <g>
       <use xlink:href="#mb1890bd75a" x="118.941887" y="307.584" style="stroke: #000000; stroke-width: 0.8"/>
      </g>
     </g>
     <g id="text_2">
      <!-- 0.5 -->
      <g transform="translate(110.990324 322.182437) scale(0.1 -0.1)">
       <defs>
        <path id="DejaVuSans-35" d="M 691 4666 
L 3169 4666 
L 3169 4134 
L 1269 4134 
L 1269 2991 
Q 1406 3038 1543 3061 
Q 1681 3084 1819 3084 
Q 2600 3084 3056 2656 
Q 3513 2228 3513 1497 
Q 3513 744 3044 326 
Q 2575 -91 1722 -91 
Q 1428 -91 1123 -41 
Q 819 9 494 109 
L 494 744 
Q 775 591 1075 516 
Q 1375 441 1709 441 
Q 2250 441 2565 725 
Q 2881 1009 2881 1497 
Q 2881 1984 2565 2268 
Q 2250 2553 1709 2553 
Q 1456 2553 1204 2497 
Q 953 2441 691 2322 
L 691 4666 
z
" transform="scale(0.015625)"/>
       </defs>
       <use xlink:href="#DejaVuSans-30"/>
       <use xlink:href="#DejaVuSans-2e" x="63.623047"/>
       <use xlink:href="#DejaVuSans-35" x="95.410156"/>
      </g>
     </g>
    </g>
    <g id="xtick_3">
     <g id="line2d_3">
      <g>
       <use xlink:href="#mb1890bd75a" x="164.066388" y="307.584" style="stroke: #000000; stroke-width: 0.8"/>
      </g>
     </g>
     <g id="text_3">
      <!-- 1.0 -->
      <g transform="translate(156.114826 322.182437) scale(0.1 -0.1)">
       <defs>
        <path id="DejaVuSans-31" d="M 794 531 
L 1825 531 
L 1825 4091 
L 703 3866 
L 703 4441 
L 1819 4666 
L 2450 4666 
L 2450 531 
L 3481 531 
L 3481 0 
L 794 0 
L 794 531 
z
" transform="scale(0.015625)"/>
       </defs>
       <use xlink:href="#DejaVuSans-31"/>
       <use xlink:href="#DejaVuSans-2e" x="63.623047"/>
       <use xlink:href="#DejaVuSans-30" x="95.410156"/>
      </g>
     </g>
    </g>
    <g id="xtick_4">
     <g id="line2d_4">
      <g>
       <use xlink:href="#mb1890bd75a" x="209.19089" y="307.584" style="stroke: #000000; stroke-width: 0.8"/>
      </g>
     </g>
     <g id="text_4">
      <!-- 1.5 -->
      <g transform="translate(201.239328 322.182437) scale(0.1 -0.1)">
       <use xlink:href="#DejaVuSans-31"/>
       <use xlink:href="#DejaVuSans-2e" x="63.623047"/>
       <use xlink:href="#DejaVuSans-35" x="95.410156"/>
      </g>
     </g>
    </g>
    <g id="xtick_5">
     <g id="line2d_5">
      <g>
       <use xlink:href="#mb1890bd75a" x="254.315392" y="307.584" style="stroke: #000000; stroke-width: 0.8"/>
      </g>
     </g>
     <g id="text_5">
      <!-- 2.0 -->
      <g transform="translate(246.36383 322.182437) scale(0.1 -0.1)">
       <defs>
        <path id="DejaVuSans-32" d="M 1228 531 
L 3431 531 
L 3431 0 
L 469 0 
L 469 531 
Q 828 903 1448 1529 
Q 2069 2156 2228 2338 
Q 2531 2678 2651 2914 
Q 2772 3150 2772 3378 
Q 2772 3750 2511 3984 
Q 2250 4219 1831 4219 
Q 1534 4219 1204 4116 
Q 875 4013 500 3803 
L 500 4441 
Q 881 4594 1212 4672 
Q 1544 4750 1819 4750 
Q 2544 4750 2975 4387 
Q 3406 4025 3406 3419 
Q 3406 3131 3298 2873 
Q 3191 2616 2906 2266 
Q 2828 2175 2409 1742 
Q 1991 1309 1228 531 
z
" transform="scale(0.015625)"/>
       </defs>
       <use xlink:href="#DejaVuSans-32"/>
       <use xlink:href="#DejaVuSans-2e" x="63.623047"/>
       <use xlink:href="#DejaVuSans-30" x="95.410156"/>
      </g>
     </g>
    </g>
    <g id="xtick_6">
     <g id="line2d_6">
      <g>
       <use xlink:href="#mb1890bd75a" x="299.439894" y="307.584" style="stroke: #000000; stroke-width: 0.8"/>
      </g>
     </g>
     <g id="text_6">
      <!-- 2.5 -->
      <g transform="translate(291.488331 322.182437) scale(0.1 -0.1)">
       <use xlink:href="#DejaVuSans-32"/>
       <use xlink:href="#DejaVuSans-2e" x="63.623047"/>
       <use xlink:href="#DejaVuSans-35" x="95.410156"/>
      </g>
     </g>
    </g>
    <g id="xtick_7">
     <g id="line2d_7">
      <g>
       <use xlink:href="#mb1890bd75a" x="344.564396" y="307.584" style="stroke: #000000; stroke-width: 0.8"/>
      </g>
     </g>
     <g id="text_7">
      <!-- 3.0 -->
      <g transform="translate(336.612833 322.182437) scale(0.1 -0.1)">
       <defs>
        <path id="DejaVuSans-33" d="M 2597 2516 
Q 3050 2419 3304 2112 
Q 3559 1806 3559 1356 
Q 3559 666 3084 287 
Q 2609 -91 1734 -91 
Q 1441 -91 1130 -33 
Q 819 25 488 141 
L 488 750 
Q 750 597 1062 519 
Q 1375 441 1716 441 
Q 2309 441 2620 675 
Q 2931 909 2931 1356 
Q 2931 1769 2642 2001 
Q 2353 2234 1838 2234 
L 1294 2234 
L 1294 2753 
L 1863 2753 
Q 2328 2753 2575 2939 
Q 2822 3125 2822 3475 
Q 2822 3834 2567 4026 
Q 2313 4219 1838 4219 
Q 1578 4219 1281 4162 
Q 984 4106 628 3988 
L 628 4550 
Q 988 4650 1302 4700 
Q 1616 4750 1894 4750 
Q 2613 4750 3031 4423 
Q 3450 4097 3450 3541 
Q 3450 3153 3228 2886 
Q 3006 2619 2597 2516 
z
" transform="scale(0.015625)"/>
       </defs>
       <use xlink:href="#DejaVuSans-33"/>
       <use xlink:href="#DejaVuSans-2e" x="63.623047"/>
       <use xlink:href="#DejaVuSans-30" x="95.410156"/>
      </g>
     </g>
    </g>
    <g id="xtick_8">
     <g id="line2d_8">
      <g>
       <use xlink:href="#mb1890bd75a" x="389.688897" y="307.584" style="stroke: #000000; stroke-width: 0.8"/>
      </g>
     </g>
     <g id="text_8">
      <!-- 3.5 -->
      <g transform="translate(381.737335 322.182437) scale(0.1 -0.1)">
       <use xlink:href="#DejaVuSans-33"/>
       <use xlink:href="#DejaVuSans-2e" x="63.623047"/>
       <use xlink:href="#DejaVuSans-35" x="95.410156"/>
      </g>
     </g>
    </g>
    <g id="text_9">
     <!-- 1e6 -->
     <g transform="translate(395.841875 334.860562) scale(0.1 -0.1)">
      <defs>
       <path id="DejaVuSans-65" d="M 3597 1894 
L 3597 1613 
L 953 1613 
Q 991 1019 1311 708 
Q 1631 397 2203 397 
Q 2534 397 2845 478 
Q 3156 559 3463 722 
L 3463 178 
Q 3153 47 2828 -22 
Q 2503 -91 2169 -91 
Q 1331 -91 842 396 
Q 353 884 353 1716 
Q 353 2575 817 3079 
Q 1281 3584 2069 3584 
Q 2775 3584 3186 3129 
Q 3597 2675 3597 1894 
z
M 3022 2063 
Q 3016 2534 2758 2815 
Q 2500 3097 2075 3097 
Q 1594 3097 1305 2825 
Q 1016 2553 972 2059 
L 3022 2063 
z
" transform="scale(0.015625)"/>
       <path id="DejaVuSans-36" d="M 2113 2584 
Q 1688 2584 1439 2293 
Q 1191 2003 1191 1497 
Q 1191 994 1439 701 
Q 1688 409 2113 409 
Q 2538 409 2786 701 
Q 3034 994 3034 1497 
Q 3034 2003 2786 2293 
Q 2538 2584 2113 2584 
z
M 3366 4563 
L 3366 3988 
Q 3128 4100 2886 4159 
Q 2644 4219 2406 4219 
Q 1781 4219 1451 3797 
Q 1122 3375 1075 2522 
Q 1259 2794 1537 2939 
Q 1816 3084 2150 3084 
Q 2853 3084 3261 2657 
Q 3669 2231 3669 1497 
Q 3669 778 3244 343 
Q 2819 -91 2113 -91 
Q 1303 -91 875 529 
Q 447 1150 447 2328 
Q 447 3434 972 4092 
Q 1497 4750 2381 4750 
Q 2619 4750 2861 4703 
Q 3103 4656 3366 4563 
z
" transform="scale(0.015625)"/>
      </defs>
      <use xlink:href="#DejaVuSans-31"/>
      <use xlink:href="#DejaVuSans-65" x="63.623047"/>
      <use xlink:href="#DejaVuSans-36" x="125.146484"/>
     </g>
    </g>
   </g>
   <g id="matplotlib.axis_2">
    <g id="ytick_1">
     <g id="line2d_9">
      <defs>
       <path id="m124c27a8cf" d="M 0 0 
L -3.5 0 
" style="stroke: #000000; stroke-width: 0.8"/>
      </defs>
      <g>
       <use xlink:href="#m124c27a8cf" x="57.6" y="295.488" style="stroke: #000000; stroke-width: 0.8"/>
      </g>
     </g>
     <g id="text_10">
      <!-- 0 -->
      <g transform="translate(44.2375 299.287219) scale(0.1 -0.1)">
       <use xlink:href="#DejaVuSans-30"/>
      </g>
     </g>
    </g>
    <g id="ytick_2">
     <g id="line2d_10">
      <g>
       <use xlink:href="#m124c27a8cf" x="57.6" y="240.506182" style="stroke: #000000; stroke-width: 0.8"/>
      </g>
     </g>
     <g id="text_11">
      <!-- 5 -->
      <g transform="translate(44.2375 244.305401) scale(0.1 -0.1)">
       <use xlink:href="#DejaVuSans-35"/>
      </g>
     </g>
    </g>
    <g id="ytick_3">
     <g id="line2d_11">
      <g>
       <use xlink:href="#m124c27a8cf" x="57.6" y="185.524364" style="stroke: #000000; stroke-width: 0.8"/>
      </g>
     </g>
     <g id="text_12">
      <!-- 10 -->
      <g transform="translate(37.875 189.323582) scale(0.1 -0.1)">
       <use xlink:href="#DejaVuSans-31"/>
       <use xlink:href="#DejaVuSans-30" x="63.623047"/>
      </g>
     </g>
    </g>
    <g id="ytick_4">
     <g id="line2d_12">
      <g>
       <use xlink:href="#m124c27a8cf" x="57.6" y="130.542545" style="stroke: #000000; stroke-width: 0.8"/>
      </g>
     </g>
     <g id="text_13">
      <!-- 15 -->
      <g transform="translate(37.875 134.341764) scale(0.1 -0.1)">
       <use xlink:href="#DejaVuSans-31"/>
       <use xlink:href="#DejaVuSans-35" x="63.623047"/>
      </g>
     </g>
    </g>
    <g id="ytick_5">
     <g id="line2d_13">
      <g>
       <use xlink:href="#m124c27a8cf" x="57.6" y="75.560727" style="stroke: #000000; stroke-width: 0.8"/>
      </g>
     </g>
     <g id="text_14">
      <!-- 20 -->
      <g transform="translate(37.875 79.359946) scale(0.1 -0.1)">
       <use xlink:href="#DejaVuSans-32"/>
       <use xlink:href="#DejaVuSans-30" x="63.623047"/>
      </g>
     </g>
    </g>
   </g>
   <g id="line2d_14">
    <path d="M 73.832727 284.491636 
L 74.103474 295.488 
L 74.148599 284.491636 
L 74.418443 295.488 
L 74.462665 284.491636 
L 74.73251 295.488 
L 74.777634 284.491636 
L 75.047479 295.488 
L 75.098018 284.491636 
L 75.368765 295.488 
L 75.412987 284.491636 
L 75.683734 295.488 
L 75.727054 284.491636 
L 75.996898 295.488 
L 76.040218 284.491636 
L 76.310965 295.488 
L 76.360602 284.491636 
L 76.631349 295.488 
L 76.679181 284.491636 
L 76.949928 295.488 
L 76.995052 284.491636 
L 77.265799 295.488 
L 77.311826 284.491636 
L 77.582573 295.488 
L 77.631308 284.491636 
L 77.901152 295.488 
L 77.949887 284.491636 
L 78.220634 295.488 
L 78.270271 284.491636 
L 78.541018 295.488 
L 78.58163 284.491636 
L 78.851474 295.488 
L 78.901111 284.491636 
L 79.170956 295.488 
L 79.21969 284.491636 
L 82.075169 185.524364 
L 84.653583 196.520727 
L 84.900865 295.488 
L 84.904475 284.491636 
L 85.175222 295.488 
L 85.213127 284.491636 
L 85.482971 295.488 
L 85.528998 284.491636 
L 85.798843 295.488 
L 85.840357 284.491636 
L 86.111104 295.488 
L 86.158936 284.491636 
L 86.428781 295.488 
L 86.473003 284.491636 
L 86.74375 295.488 
L 86.788874 284.491636 
L 87.059621 295.488 
L 87.109258 284.491636 
L 87.379103 295.488 
L 87.419715 284.491636 
L 87.690462 295.488 
L 87.735586 284.491636 
L 88.006333 295.488 
L 88.04514 284.491636 
L 88.314985 295.488 
L 88.358304 284.491636 
L 88.629051 295.488 
L 88.678688 284.491636 
L 88.949435 295.488 
L 88.990047 284.491636 
L 89.259892 295.488 
L 89.300504 284.491636 
L 89.571251 295.488 
L 89.620888 284.491636 
L 89.891635 295.488 
L 89.940369 284.491636 
L 90.211116 295.488 
L 90.260753 284.491636 
L 90.5315 295.488 
L 90.569405 284.491636 
L 90.83925 295.488 
L 90.883472 284.491636 
L 91.153316 295.488 
L 91.197538 284.491636 
L 91.468285 295.488 
L 91.520629 284.491636 
L 91.791376 295.488 
L 91.834696 284.491636 
L 92.105443 295.488 
L 92.146958 284.491636 
L 92.416802 295.488 
L 92.457414 284.491636 
L 92.728161 295.488 
L 92.771481 284.491636 
L 93.042228 295.488 
L 93.08645 284.491636 
L 93.357197 295.488 
L 93.396906 284.491636 
L 93.667653 295.488 
L 93.711875 284.491636 
L 93.982622 295.488 
L 94.030454 284.491636 
L 94.301201 295.488 
L 94.349033 284.491636 
L 94.61978 295.488 
L 94.662197 284.491636 
L 94.932944 295.488 
L 94.977166 284.491636 
L 95.247011 295.488 
L 95.292135 284.491636 
L 95.56198 295.488 
L 95.610714 284.491636 
L 95.881461 295.488 
L 95.923878 284.491636 
L 96.193723 295.488 
L 96.241555 284.491636 
L 96.512302 295.488 
L 96.561036 284.491636 
L 96.831783 295.488 
L 96.871493 284.491636 
L 97.14224 295.488 
L 97.189169 284.491636 
L 97.459014 295.488 
L 97.507748 284.491636 
L 97.778495 295.488 
L 97.821815 284.491636 
L 98.091659 295.488 
L 98.134076 284.491636 
L 98.403921 295.488 
L 98.449045 284.491636 
L 98.719792 295.488 
L 98.763112 284.491636 
L 99.033859 295.488 
L 99.073569 284.491636 
L 99.344316 295.488 
L 99.391245 284.491636 
L 99.66109 295.488 
L 99.704409 284.491636 
L 99.975156 295.488 
L 100.023891 284.491636 
L 100.294638 295.488 
L 100.344275 284.491636 
L 100.615022 295.488 
L 100.656536 284.491636 
L 100.927283 295.488 
L 100.977823 284.491636 
L 101.24857 295.488 
L 101.291889 284.491636 
L 101.562636 295.488 
L 101.606858 284.491636 
L 101.877605 295.488 
L 101.920925 284.491636 
L 102.190769 295.488 
L 102.230479 284.491636 
L 102.501226 295.488 
L 102.554473 284.491636 
L 102.82522 295.488 
L 102.869442 284.491636 
L 103.139286 295.488 
L 103.183508 284.491636 
L 103.453353 295.488 
L 103.50299 284.491636 
L 103.772834 295.488 
L 103.819764 284.491636 
L 104.090511 295.488 
L 104.139245 284.491636 
L 104.409992 295.488 
L 104.453312 284.491636 
L 104.723156 295.488 
L 104.764671 284.491636 
L 105.035418 295.488 
L 105.08325 284.491636 
L 105.353997 295.488 
L 105.398219 284.491636 
L 105.668063 295.488 
L 105.70687 284.491636 
L 105.977617 295.488 
L 106.023644 284.491636 
L 106.294391 295.488 
L 106.332296 284.491636 
L 106.603043 295.488 
L 106.649972 284.491636 
L 106.920719 295.488 
L 106.963136 284.491636 
L 107.233883 295.488 
L 107.279008 284.491636 
L 107.548853 295.488 
L 107.590367 284.491636 
L 107.860212 295.488 
L 107.903531 284.491636 
L 108.174278 295.488 
L 108.22211 284.491636 
L 108.492857 295.488 
L 108.535274 284.491636 
L 108.805119 295.488 
L 108.845731 284.491636 
L 109.116478 295.488 
L 109.16792 284.491636 
L 109.438667 295.488 
L 109.483791 284.491636 
L 109.754538 295.488 
L 109.80598 284.491636 
L 110.076727 295.488 
L 110.121852 284.491636 
L 110.392599 295.488 
L 111.265306 284.491636 
L 111.490026 273.495273 
L 111.536053 284.491636 
L 111.719259 273.495273 
L 111.760774 284.491636 
L 111.950296 273.495273 
L 111.989103 284.491636 
L 112.174114 273.495273 
L 112.220141 284.491636 
L 112.399736 273.495273 
L 112.443958 284.491636 
L 112.623554 273.495273 
L 112.670483 284.491636 
L 112.847372 273.495273 
L 112.894301 284.491636 
L 113.074799 273.495273 
L 113.118119 284.491636 
L 113.298617 273.495273 
L 113.345546 284.491636 
L 113.523337 273.495273 
L 113.568461 284.491636 
L 113.750764 273.495273 
L 113.794084 284.491636 
L 113.976387 273.495273 
L 114.021511 284.491636 
L 114.207424 273.495273 
L 114.247134 284.491636 
L 114.433949 273.495273 
L 114.478171 284.491636 
L 114.659571 273.495273 
L 114.703794 284.491636 
L 114.884292 273.495273 
L 114.930319 284.491636 
L 115.105402 273.495273 
L 115.155039 284.491636 
L 115.333732 273.495273 
L 115.376149 284.491636 
L 115.556647 273.495273 
L 115.604479 284.491636 
L 115.788587 273.495273 
L 115.826491 284.491636 
L 116.013307 273.495273 
L 116.059334 284.491636 
L 116.238929 273.495273 
L 116.284054 284.491636 
L 116.465454 273.495273 
L 116.509676 284.491636 
L 116.688369 273.495273 
L 116.736201 284.491636 
L 116.915797 273.495273 
L 116.959116 284.491636 
L 117.145029 273.495273 
L 117.186544 284.491636 
L 117.374262 273.495273 
L 117.414874 284.491636 
L 117.597177 273.495273 
L 117.645009 284.491636 
L 117.820092 273.495273 
L 117.867924 284.491636 
L 118.044812 273.495273 
L 118.090839 284.491636 
L 118.272239 273.495273 
L 118.315559 284.491636 
L 118.501472 273.495273 
L 118.542084 284.491636 
L 118.723484 273.495273 
L 118.771316 284.491636 
L 118.953619 273.495273 
L 118.994231 284.491636 
L 119.181047 273.495273 
L 119.224366 284.491636 
L 119.404864 273.495273 
L 119.451794 284.491636 
L 119.628682 273.495273 
L 119.675611 284.491636 
L 119.853402 273.495273 
L 119.899429 284.491636 
L 120.074512 273.495273 
L 120.124149 284.491636 
L 120.301037 273.495273 
L 120.345259 284.491636 
L 120.528464 273.495273 
L 120.571784 284.491636 
L 120.753184 273.495273 
L 120.799211 284.491636 
L 120.977002 273.495273 
L 121.023931 284.491636 
L 121.208039 273.495273 
L 121.247749 284.491636 
L 121.432759 273.495273 
L 121.478786 284.491636 
L 121.660187 273.495273 
L 121.703506 284.491636 
L 121.879492 273.495273 
L 121.930934 284.491636 
L 122.111432 273.495273 
L 122.150239 284.491636 
L 122.341567 273.495273 
L 122.381276 284.491636 
L 122.798227 262.498909 
L 122.824399 273.495273 
L 123.688984 229.509818 
L 126.382917 97.553455 
L 127.980324 108.549818 
L 128.286269 284.491636 
L 128.422545 273.495273 
L 128.470377 284.491636 
L 128.64907 273.495273 
L 128.693292 284.491636 
L 128.869277 273.495273 
L 128.919817 284.491636 
L 129.090387 273.495273 
L 129.140024 284.491636 
L 129.320522 273.495273 
L 129.361134 284.491636 
L 129.54434 273.495273 
L 129.591269 284.491636 
L 129.76906 273.495273 
L 129.814184 284.491636 
L 129.991975 273.495273 
L 130.039807 284.491636 
L 130.215792 273.495273 
L 130.261819 284.491636 
L 130.444122 273.495273 
L 130.486539 284.491636 
L 130.67155 273.495273 
L 130.714869 284.491636 
L 130.89266 273.495273 
L 130.941394 284.491636 
L 131.121892 273.495273 
L 131.163407 284.491636 
L 131.346612 273.495273 
L 131.392639 284.491636 
L 131.572235 273.495273 
L 131.617359 284.491636 
L 131.797857 273.495273 
L 131.842982 284.491636 
L 132.02709 273.495273 
L 132.068604 284.491636 
L 132.249102 273.495273 
L 132.296934 284.491636 
L 132.473822 273.495273 
L 132.518947 284.491636 
L 132.695835 273.495273 
L 132.743667 284.491636 
L 132.920555 273.495273 
L 132.965679 284.491636 
L 133.141665 273.495273 
L 133.190399 284.491636 
L 133.36458 273.495273 
L 133.412412 284.491636 
L 133.588398 273.495273 
L 133.635327 284.491636 
L 133.813118 273.495273 
L 133.859145 284.491636 
L 134.037838 273.495273 
L 134.083865 284.491636 
L 134.264363 273.495273 
L 134.308585 284.491636 
L 134.489985 273.495273 
L 134.534207 284.491636 
L 134.715608 273.495273 
L 134.760732 284.491636 
L 134.936718 273.495273 
L 134.986355 284.491636 
L 135.163243 273.495273 
L 135.207465 284.491636 
L 135.391573 273.495273 
L 135.433087 284.491636 
L 135.617195 273.495273 
L 135.661417 284.491636 
L 135.844623 273.495273 
L 135.88704 284.491636 
L 136.072953 273.495273 
L 136.114467 284.491636 
L 136.299478 273.495273 
L 136.3437 284.491636 
L 136.526003 273.495273 
L 136.570225 284.491636 
L 136.74982 273.495273 
L 136.79675 284.491636 
L 136.972735 273.495273 
L 137.020567 284.491636 
L 137.201968 273.495273 
L 137.243482 284.491636 
L 137.428493 273.495273 
L 137.472715 284.491636 
L 137.649603 273.495273 
L 137.69924 284.491636 
L 137.876128 273.495273 
L 137.92035 284.491636 
L 138.100848 273.495273 
L 138.146875 284.491636 
L 138.328275 273.495273 
L 138.371595 284.491636 
L 138.55841 273.495273 
L 138.599022 284.491636 
L 138.78674 273.495273 
L 138.829157 284.491636 
L 139.008753 273.495273 
L 139.057487 284.491636 
L 139.23257 273.495273 
L 139.2795 284.491636 
L 139.454583 273.495273 
L 139.502415 284.491636 
L 139.67479 273.495273 
L 139.72533 284.491636 
L 139.898608 273.495273 
L 139.945537 284.491636 
L 140.121523 273.495273 
L 140.169355 284.491636 
L 140.34534 273.495273 
L 140.39227 284.491636 
L 140.576378 273.495273 
L 140.616087 284.491636 
L 140.802 273.495273 
L 140.847125 284.491636 
L 141.024013 273.495273 
L 141.072747 284.491636 
L 141.246928 273.495273 
L 141.29476 284.491636 
L 141.46894 273.495273 
L 141.516772 284.491636 
L 141.698173 273.495273 
L 141.739688 284.491636 
L 141.924698 273.495273 
L 141.96892 284.491636 
L 142.154833 273.495273 
L 142.194542 284.491636 
L 142.384968 273.495273 
L 142.42558 284.491636 
L 142.612395 273.495273 
L 142.655715 284.491636 
L 142.83531 273.495273 
L 142.883142 284.491636 
L 143.059128 273.495273 
L 143.106057 284.491636 
L 143.283848 273.495273 
L 143.329875 284.491636 
L 143.505861 273.495273 
L 143.553692 284.491636 
L 143.735093 273.495273 
L 143.776608 284.491636 
L 143.961618 273.495273 
L 144.00584 284.491636 
L 144.18724 273.495273 
L 144.232365 284.491636 
L 144.412863 273.495273 
L 144.457085 284.491636 
L 144.644803 273.495273 
L 144.682708 284.491636 
L 144.869523 273.495273 
L 144.914647 284.491636 
L 145.09695 273.495273 
L 145.14027 284.491636 
L 145.32167 273.495273 
L 145.367697 284.491636 
L 145.54639 273.495273 
L 145.592417 284.491636 
L 145.773818 273.495273 
L 145.816235 284.491636 
L 146.001245 273.495273 
L 146.044565 284.491636 
L 146.23138 273.495273 
L 146.271992 284.491636 
L 146.457003 273.495273 
L 146.502127 284.491636 
L 146.68082 273.495273 
L 146.726847 284.491636 
L 146.90915 273.495273 
L 146.950665 284.491636 
L 147.135675 273.495273 
L 147.179897 284.491636 
L 147.360395 273.495273 
L 147.406422 284.491636 
L 147.587823 273.495273 
L 147.631142 284.491636 
L 147.817958 273.495273 
L 147.85857 284.491636 
L 148.03997 273.495273 
L 148.088705 284.491636 
L 148.2683 273.495273 
L 148.310717 284.491636 
L 148.499338 273.495273 
L 148.539047 284.491636 
L 148.731278 273.495273 
L 148.770085 284.491636 
L 148.95329 273.495273 
L 149.002025 284.491636 
L 149.176205 273.495273 
L 149.224037 284.491636 
L 149.39551 273.495273 
L 149.44605 284.491636 
L 149.615718 273.495273 
L 149.666257 284.491636 
L 149.840438 273.495273 
L 149.886465 284.491636 
L 150.058841 273.495273 
L 150.111185 284.491636 
L 150.287171 273.495273 
L 150.329588 284.491636 
L 150.516403 273.495273 
L 150.557918 284.491636 
L 150.746538 273.495273 
L 150.786248 284.491636 
L 150.971258 273.495273 
L 151.017285 284.491636 
L 151.194173 273.495273 
L 151.241103 284.491636 
L 151.415283 273.495273 
L 151.464018 284.491636 
L 151.640003 273.495273 
L 151.685128 284.491636 
L 151.863821 273.495273 
L 151.91075 284.491636 
L 152.091248 273.495273 
L 152.134568 284.491636 
L 152.315968 273.495273 
L 152.361093 284.491636 
L 152.539786 273.495273 
L 152.586715 284.491636 
L 152.762701 273.495273 
L 152.810533 284.491636 
L 152.991933 273.495273 
L 153.033448 284.491636 
L 153.215751 273.495273 
L 153.26268 284.491636 
L 153.443178 273.495273 
L 153.486498 284.491636 
L 153.670606 273.495273 
L 153.713023 284.491636 
L 153.895326 273.495273 
L 153.941353 284.491636 
L 154.121851 273.495273 
L 154.166073 284.491636 
L 154.342058 273.495273 
L 154.392598 284.491636 
L 154.571291 273.495273 
L 154.612805 284.491636 
L 154.797816 273.495273 
L 154.841135 284.491636 
L 155.024341 273.495273 
L 155.06766 284.491636 
L 155.248158 273.495273 
L 155.295088 284.491636 
L 155.471073 273.495273 
L 155.518905 284.491636 
L 155.695793 273.495273 
L 155.74182 284.491636 
L 155.923221 273.495273 
L 155.96654 284.491636 
L 156.146136 273.495273 
L 156.193968 284.491636 
L 156.370856 273.495273 
L 156.41598 284.491636 
L 156.595576 273.495273 
L 156.641603 284.491636 
L 156.823906 273.495273 
L 156.866323 284.491636 
L 157.050431 273.495273 
L 157.094653 284.491636 
L 157.275151 273.495273 
L 157.320275 284.491636 
L 157.495359 273.495273 
L 157.545898 284.491636 
L 157.722786 273.495273 
L 157.765203 284.491636 
L 157.948409 273.495273 
L 157.993533 284.491636 
L 158.174934 273.495273 
L 158.218253 284.491636 
L 158.404166 273.495273 
L 158.445681 284.491636 
L 158.633398 273.495273 
L 158.674011 284.491636 
L 158.857216 273.495273 
L 158.904145 284.491636 
L 159.087351 273.495273 
L 159.127963 284.491636 
L 159.314778 273.495273 
L 159.358098 284.491636 
L 159.537693 273.495273 
L 159.584623 284.491636 
L 159.758804 273.495273 
L 159.808441 284.491636 
L 159.982621 273.495273 
L 160.029551 284.491636 
L 160.203731 273.495273 
L 160.253368 284.491636 
L 160.426646 273.495273 
L 160.474478 284.491636 
L 160.654976 273.495273 
L 160.696491 284.491636 
L 160.881501 273.495273 
L 160.925723 284.491636 
L 161.101709 273.495273 
L 161.151346 284.491636 
L 161.329136 273.495273 
L 161.371553 284.491636 
L 161.554759 273.495273 
L 161.598981 284.491636 
L 161.778576 273.495273 
L 161.825506 284.491636 
L 161.999686 273.495273 
L 162.049323 284.491636 
L 162.228016 273.495273 
L 162.269531 284.491636 
L 162.454541 273.495273 
L 162.498763 284.491636 
L 162.681066 273.495273 
L 162.725288 284.491636 
L 162.907591 273.495273 
L 162.951813 284.491636 
L 163.131409 273.495273 
L 163.177436 284.491636 
L 163.357031 273.495273 
L 163.402156 284.491636 
L 163.585361 273.495273 
L 163.627778 284.491636 
L 163.815496 273.495273 
L 163.856108 284.491636 
L 164.047436 273.495273 
L 164.086243 284.491636 
L 164.270351 273.495273 
L 164.317281 284.491636 
L 164.499584 273.495273 
L 164.540196 284.491636 
L 164.727011 273.495273 
L 164.770331 284.491636 
L 164.951731 273.495273 
L 164.996856 284.491636 
L 165.171939 273.495273 
L 165.221576 284.491636 
L 165.391244 273.495273 
L 165.442686 284.491636 
L 165.618671 273.495273 
L 165.661991 284.491636 
L 165.847904 273.495273 
L 165.889418 284.491636 
L 166.073526 273.495273 
L 166.117748 284.491636 
L 166.300051 273.495273 
L 166.343371 284.491636 
L 166.528381 273.495273 
L 166.569896 284.491636 
L 166.753101 273.495273 
L 166.799128 284.491636 
L 166.984139 273.495273 
L 167.023848 284.491636 
L 167.208859 273.495273 
L 167.253983 284.491636 
L 167.437189 273.495273 
L 167.479606 284.491636 
L 167.662811 273.495273 
L 167.707936 284.491636 
L 167.886629 273.495273 
L 167.932656 284.491636 
L 168.113154 273.495273 
L 168.157376 284.491636 
L 168.338776 273.495273 
L 168.383901 284.491636 
L 168.565301 273.495273 
L 168.609523 284.491636 
L 168.795436 273.495273 
L 168.836048 284.491636 
L 169.018351 273.495273 
L 169.066183 284.491636 
L 169.241266 273.495273 
L 169.289098 284.491636 
L 169.469596 273.495273 
L 169.512013 284.491636 
L 169.690706 273.495273 
L 169.740343 284.491636 
L 169.911816 273.495273 
L 169.961453 284.491636 
L 170.136536 273.495273 
L 170.182563 284.491636 
L 170.356744 273.495273 
L 170.406381 284.491636 
L 170.580562 273.495273 
L 170.627491 284.491636 
L 170.800769 273.495273 
L 170.851309 284.491636 
L 171.026392 273.495273 
L 171.071516 284.491636 
L 171.481247 262.498909 
L 171.502906 273.495273 
L 172.837689 207.517091 
L 175.102939 97.553455 
L 176.935896 108.549818 
L 177.170544 284.491636 
L 177.362774 273.495273 
L 177.406094 284.491636 
L 177.590202 273.495273 
L 177.632619 284.491636 
L 177.814019 273.495273 
L 177.860046 284.491636 
L 178.036032 273.495273 
L 178.084766 284.491636 
L 178.258947 273.495273 
L 178.306779 284.491636 
L 178.487277 273.495273 
L 178.529694 284.491636 
L 178.710192 273.495273 
L 178.757121 284.491636 
L 178.939424 273.495273 
L 178.980036 284.491636 
L 179.161437 273.495273 
L 179.209269 284.491636 
L 179.385254 273.495273 
L 179.431281 284.491636 
L 179.656001 295.488 
L 180.849996 284.491636 
L 181.120743 295.488 
L 181.173087 284.491636 
L 181.443834 295.488 
L 181.492569 284.491636 
L 181.763316 295.488 
L 181.811148 284.491636 
L 182.081895 295.488 
L 182.123409 284.491636 
L 182.394156 295.488 
L 182.439281 284.491636 
L 182.709125 295.488 
L 182.753347 284.491636 
L 183.024094 295.488 
L 183.079146 284.491636 
L 183.348991 295.488 
L 183.391408 284.491636 
L 183.662155 295.488 
L 183.708182 284.491636 
L 183.978929 295.488 
L 184.024956 284.491636 
L 184.295703 295.488 
L 184.340827 284.491636 
L 184.611574 295.488 
L 184.655796 284.491636 
L 184.926543 295.488 
L 184.971668 284.491636 
L 185.242415 295.488 
L 185.289344 284.491636 
L 185.560091 295.488 
L 185.600703 284.491636 
L 185.87145 295.488 
L 185.912062 284.491636 
L 186.182809 295.488 
L 186.225226 284.491636 
L 186.495973 295.488 
L 186.537488 284.491636 
L 187.488712 251.502545 
L 187.679138 262.498909 
L 187.764874 295.488 
L 187.805486 284.491636 
L 188.076233 295.488 
L 188.121358 284.491636 
L 188.391202 295.488 
L 188.430009 284.491636 
L 188.699854 295.488 
L 188.748588 284.491636 
L 189.018433 295.488 
L 189.05724 284.491636 
L 189.327085 295.488 
L 189.364989 284.491636 
L 189.635736 295.488 
L 189.682666 284.491636 
L 189.95251 295.488 
L 190.007562 284.491636 
L 190.277407 295.488 
L 190.318921 284.491636 
L 190.589668 295.488 
L 190.6375 284.491636 
L 190.908247 295.488 
L 190.959689 284.491636 
L 191.230436 295.488 
L 191.273756 284.491636 
L 191.544503 295.488 
L 191.588725 284.491636 
L 191.859472 295.488 
L 191.911816 284.491636 
L 192.182563 295.488 
L 192.2322 284.491636 
L 192.502947 295.488 
L 192.541754 284.491636 
L 192.812501 295.488 
L 192.864846 284.491636 
L 193.135593 295.488 
L 193.175302 284.491636 
L 193.446049 295.488 
L 193.495686 284.491636 
L 193.765531 295.488 
L 193.807045 284.491636 
L 194.077792 295.488 
L 194.120209 284.491636 
L 194.390956 295.488 
L 194.436983 284.491636 
L 194.70773 295.488 
L 194.75827 284.491636 
L 195.029017 295.488 
L 195.082264 284.491636 
L 195.352108 295.488 
L 195.39633 284.491636 
L 195.667077 295.488 
L 195.704982 284.491636 
L 195.975729 295.488 
L 196.015438 284.491636 
L 196.286185 295.488 
L 196.33492 284.491636 
L 196.604764 295.488 
L 196.645376 284.491636 
L 196.916123 295.488 
L 196.963955 284.491636 
L 197.234702 295.488 
L 197.276217 284.491636 
L 197.546964 295.488 
L 197.592991 284.491636 
L 197.863738 295.488 
L 197.90074 284.491636 
L 198.171487 295.488 
L 198.215709 284.491636 
L 198.486456 295.488 
L 198.530678 284.491636 
L 198.801425 295.488 
L 198.847452 284.491636 
L 199.117296 295.488 
L 199.171446 284.491636 
L 199.442193 295.488 
L 199.492732 284.491636 
L 199.762577 295.488 
L 199.805896 284.491636 
L 200.075741 295.488 
L 200.128085 284.491636 
L 200.398832 295.488 
L 200.435834 284.491636 
L 200.705679 295.488 
L 200.751706 284.491636 
L 201.02155 295.488 
L 201.071187 284.491636 
L 201.341934 295.488 
L 201.381644 284.491636 
L 201.652391 295.488 
L 201.698418 284.491636 
L 201.969165 295.488 
L 202.013387 284.491636 
L 202.284134 295.488 
L 202.322941 284.491636 
L 202.593688 295.488 
L 202.640618 284.491636 
L 202.911365 295.488 
L 202.951977 284.491636 
L 203.222724 295.488 
L 203.260628 284.491636 
L 203.530473 295.488 
L 203.567475 284.491636 
L 203.838222 295.488 
L 203.877029 284.491636 
L 204.146873 295.488 
L 204.183876 284.491636 
L 204.45372 295.488 
L 204.501552 284.491636 
L 204.771397 295.488 
L 204.812911 284.491636 
L 205.082756 295.488 
L 205.12788 284.491636 
L 205.397725 295.488 
L 205.450069 284.491636 
L 205.719914 295.488 
L 205.767746 284.491636 
L 206.038493 295.488 
L 206.091739 284.491636 
L 206.362486 295.488 
L 206.404001 284.491636 
L 206.674748 295.488 
L 206.71897 284.491636 
L 206.988815 295.488 
L 207.044769 284.491636 
L 207.315516 295.488 
L 207.362445 284.491636 
L 207.63229 295.488 
L 207.675609 284.491636 
L 207.946357 295.488 
L 207.987871 284.491636 
L 208.258618 295.488 
L 208.300133 284.491636 
L 208.57088 295.488 
L 208.616004 284.491636 
L 208.886751 295.488 
L 208.925558 284.491636 
L 209.196305 295.488 
L 209.235112 284.491636 
L 209.504957 295.488 
L 209.554594 284.491636 
L 209.825341 295.488 
L 209.876783 284.491636 
L 210.14753 295.488 
L 210.196264 284.491636 
L 210.466109 295.488 
L 210.511233 284.491636 
L 210.78198 295.488 
L 210.822592 284.491636 
L 211.092437 295.488 
L 211.133049 284.491636 
L 211.403796 295.488 
L 211.45253 284.491636 
L 211.723277 295.488 
L 211.771109 284.491636 
L 212.041856 295.488 
L 212.087883 284.491636 
L 212.35863 295.488 
L 212.407365 284.491636 
L 212.678112 295.488 
L 212.722334 284.491636 
L 212.993081 295.488 
L 213.045425 284.491636 
L 213.31527 295.488 
L 213.357687 284.491636 
L 213.627531 295.488 
L 213.679876 284.491636 
L 213.950623 295.488 
L 213.999357 284.491636 
L 214.270104 295.488 
L 214.323351 284.491636 
L 214.594098 295.488 
L 214.63832 284.491636 
L 214.909067 295.488 
L 215.834119 284.491636 
L 216.016422 273.495273 
L 216.104866 284.491636 
L 216.201433 273.495273 
L 216.287169 284.491636 
L 216.379223 273.495273 
L 216.471277 284.491636 
L 216.557916 273.495273 
L 216.64997 284.491636 
L 216.734804 273.495273 
L 216.828663 284.491636 
L 216.912595 273.495273 
L 217.005551 284.491636 
L 217.0958 273.495273 
L 217.183342 284.491636 
L 217.273591 273.495273 
L 217.366548 284.491636 
L 217.458601 273.495273 
L 217.544338 284.491636 
L 217.634587 273.495273 
L 217.729348 284.491636 
L 217.815988 273.495273 
L 217.905334 284.491636 
L 217.997388 273.495273 
L 218.085832 284.491636 
L 218.180594 273.495273 
L 218.267233 284.491636 
L 218.361994 273.495273 
L 218.451341 284.491636 
L 218.546102 273.495273 
L 218.631839 284.491636 
L 218.728405 273.495273 
L 218.815946 284.491636 
L 218.906196 273.495273 
L 218.999152 284.491636 
L 219.083986 273.495273 
L 219.17604 284.491636 
L 219.263582 273.495273 
L 219.354733 284.491636 
L 219.445885 273.495273 
L 219.534329 284.491636 
L 219.623675 273.495273 
L 219.716632 284.491636 
L 219.804173 273.495273 
L 219.89352 284.491636 
L 219.986476 273.495273 
L 220.07492 284.491636 
L 220.166974 273.495273 
L 220.257223 284.491636 
L 220.351082 273.495273 
L 220.437721 284.491636 
L 220.53519 273.495273 
L 220.621829 284.491636 
L 220.717493 273.495273 
L 220.805937 284.491636 
L 220.902503 273.495273 
L 220.987338 284.491636 
L 221.083001 273.495273 
L 221.17325 284.491636 
L 221.265304 273.495273 
L 221.353748 284.491636 
L 221.443997 273.495273 
L 221.536051 284.491636 
L 221.621788 273.495273 
L 221.713842 284.491636 
L 221.800481 273.495273 
L 221.892535 284.491636 
L 221.978272 273.495273 
L 222.071228 284.491636 
L 222.163282 273.495273 
L 222.249019 284.491636 
L 222.338365 273.495273 
L 222.434029 284.491636 
L 222.521571 273.495273 
L 222.60821 284.491636 
L 222.698459 273.495273 
L 222.792318 284.491636 
L 222.881664 273.495273 
L 222.968303 284.491636 
L 223.062162 273.495273 
L 223.152411 284.491636 
L 223.238148 273.495273 
L 223.332909 284.491636 
L 223.420451 273.495273 
L 223.508895 284.491636 
L 223.606364 273.495273 
L 223.691198 284.491636 
L 223.784154 273.495273 
L 223.876208 284.491636 
L 223.961945 273.495273 
L 224.054901 284.491636 
L 224.140638 273.495273 
L 224.231789 284.491636 
L 224.324746 273.495273 
L 224.411385 284.491636 
L 224.510659 273.495273 
L 224.595493 284.491636 
L 224.688449 273.495273 
L 224.780503 284.491636 
L 224.867142 273.495273 
L 224.958294 284.491636 
L 225.050348 273.495273 
L 225.137889 284.491636 
L 225.228138 273.495273 
L 225.321095 284.491636 
L 225.408636 273.495273 
L 225.498885 284.491636 
L 225.587329 273.495273 
L 225.679383 284.491636 
L 225.769632 273.495273 
L 225.857174 284.491636 
L 225.948325 273.495273 
L 226.040379 284.491636 
L 226.127018 273.495273 
L 226.219072 284.491636 
L 226.486209 262.498909 
L 226.562921 273.495273 
L 226.839985 251.502545 
L 230.06007 53.568 
L 230.856066 64.564364 
L 231.088908 284.491636 
L 231.144863 273.495273 
L 231.233307 284.491636 
L 231.328971 273.495273 
L 231.41561 284.491636 
L 231.511274 273.495273 
L 231.599718 284.491636 
L 231.691772 273.495273 
L 231.782021 284.491636 
L 231.874075 273.495273 
L 231.962519 284.491636 
L 232.055475 273.495273 
L 232.144822 284.491636 
L 232.235071 273.495273 
L 232.326222 284.491636 
L 232.419179 273.495273 
L 232.504915 284.491636 
L 232.601482 273.495273 
L 232.689926 284.491636 
L 232.784687 273.495273 
L 232.872229 284.491636 
L 232.964283 273.495273 
L 233.055434 284.491636 
L 233.143878 273.495273 
L 233.234127 284.491636 
L 233.320766 273.495273 
L 233.414625 284.491636 
L 233.498557 273.495273 
L 233.590611 284.491636 
L 233.67725 273.495273 
L 233.769304 284.491636 
L 233.857748 273.495273 
L 233.947094 284.491636 
L 234.036441 273.495273 
L 234.128495 284.491636 
L 234.216939 273.495273 
L 234.306285 284.491636 
L 234.397437 273.495273 
L 234.487686 284.491636 
L 234.57974 273.495273 
L 234.668184 284.491636 
L 234.765653 273.495273 
L 234.850487 284.491636 
L 234.947956 273.495273 
L 235.035497 284.491636 
L 235.127551 273.495273 
L 235.218703 284.491636 
L 235.306244 273.495273 
L 235.398298 284.491636 
L 235.484937 273.495273 
L 235.576991 284.491636 
L 235.66363 273.495273 
L 235.755684 284.491636 
L 235.847738 273.495273 
L 235.933475 284.491636 
L 236.031846 273.495273 
L 236.118485 284.491636 
L 236.211442 273.495273 
L 236.301691 284.491636 
L 236.38833 273.495273 
L 236.482189 284.491636 
L 236.568828 273.495273 
L 236.659077 284.491636 
L 236.752033 273.495273 
L 236.839575 284.491636 
L 236.931629 273.495273 
L 237.021878 284.491636 
L 237.113932 273.495273 
L 237.202376 284.491636 
L 237.297137 273.495273 
L 237.384679 284.491636 
L 237.478538 273.495273 
L 237.567884 284.491636 
L 237.663548 273.495273 
L 237.748382 284.491636 
L 237.839534 273.495273 
L 237.933393 284.491636 
L 238.020032 273.495273 
L 238.110281 284.491636 
L 238.198725 273.495273 
L 238.290779 284.491636 
L 238.375613 273.495273 
L 238.46857 284.491636 
L 238.558819 273.495273 
L 238.645458 284.491636 
L 238.741122 273.495273 
L 238.829566 284.491636 
L 238.922522 273.495273 
L 239.010966 284.491636 
L 239.098508 273.495273 
L 239.192367 284.491636 
L 239.281713 273.495273 
L 239.369255 284.491636 
L 239.460406 273.495273 
L 239.55246 284.491636 
L 239.643612 273.495273 
L 239.731153 284.491636 
L 239.821402 273.495273 
L 239.914359 284.491636 
L 239.999193 273.495273 
L 240.092149 284.491636 
L 240.183301 273.495273 
L 240.26994 284.491636 
L 240.362896 273.495273 
L 240.454048 284.491636 
L 240.545199 273.495273 
L 240.633643 284.491636 
L 240.723892 273.495273 
L 240.815946 284.491636 
L 240.903488 273.495273 
L 240.994639 284.491636 
L 241.081278 273.495273 
L 241.174235 284.491636 
L 241.260874 273.495273 
L 241.352025 284.491636 
L 241.443177 273.495273 
L 241.531621 284.491636 
L 241.623675 273.495273 
L 241.713021 284.491636 
L 241.800563 273.495273 
L 241.894422 284.491636 
L 241.981963 273.495273 
L 242.07131 284.491636 
L 242.161559 273.495273 
L 242.25271 284.491636 
L 242.340252 273.495273 
L 242.431403 284.491636 
L 242.519847 273.495273 
L 242.610999 284.491636 
L 242.704858 273.495273 
L 242.789692 284.491636 
L 242.887161 273.495273 
L 242.975605 284.491636 
L 243.064049 273.495273 
L 243.157908 284.491636 
L 243.243644 273.495273 
L 243.334796 284.491636 
L 243.424142 273.495273 
L 243.513489 284.491636 
L 243.60103 273.495273 
L 243.693987 284.491636 
L 243.783333 273.495273 
L 243.871777 284.491636 
L 243.959319 273.495273 
L 244.05408 284.491636 
L 244.138012 273.495273 
L 244.230066 284.491636 
L 244.32212 273.495273 
L 244.408759 284.491636 
L 244.506228 273.495273 
L 244.591964 284.491636 
L 244.688531 273.495273 
L 244.776975 284.491636 
L 244.866321 273.495273 
L 244.958375 284.491636 
L 245.045014 273.495273 
L 245.137068 284.491636 
L 245.229122 273.495273 
L 245.315761 284.491636 
L 245.408718 273.495273 
L 245.499869 284.491636 
L 245.585606 273.495273 
L 245.679465 284.491636 
L 245.768811 273.495273 
L 245.856353 284.491636 
L 245.949309 273.495273 
L 246.039558 284.491636 
L 246.13071 273.495273 
L 246.220056 284.491636 
L 246.31211 273.495273 
L 246.400554 284.491636 
L 246.496218 273.495273 
L 246.582857 284.491636 
L 246.677619 273.495273 
L 246.766965 284.491636 
L 246.859922 273.495273 
L 246.947463 284.491636 
L 247.039517 273.495273 
L 247.130669 284.491636 
L 247.222723 273.495273 
L 247.310264 284.491636 
L 247.403221 273.495273 
L 247.49347 284.491636 
L 247.580109 273.495273 
L 247.673065 284.491636 
L 247.763314 273.495273 
L 247.849953 284.491636 
L 247.944715 273.495273 
L 248.034061 284.491636 
L 248.121603 273.495273 
L 248.215462 284.491636 
L 248.297588 273.495273 
L 248.39235 284.491636 
L 248.474477 273.495273 
L 248.568335 284.491636 
L 248.654072 273.495273 
L 248.745224 284.491636 
L 248.83457 273.495273 
L 248.924819 284.491636 
L 249.009653 273.495273 
L 249.105317 284.491636 
L 249.189249 273.495273 
L 249.279498 284.491636 
L 249.368844 273.495273 
L 249.459093 284.491636 
L 249.546635 273.495273 
L 249.638689 284.491636 
L 249.728035 273.495273 
L 249.816479 284.491636 
L 249.906728 273.495273 
L 249.998782 284.491636 
L 250.089031 273.495273 
L 250.177475 284.491636 
L 250.268627 273.495273 
L 250.358876 284.491636 
L 250.44732 273.495273 
L 250.539374 284.491636 
L 250.629623 273.495273 
L 250.718067 284.491636 
L 250.810121 273.495273 
L 250.90037 284.491636 
L 250.992424 273.495273 
L 251.079965 284.491636 
L 251.171117 273.495273 
L 251.263171 284.491636 
L 251.350712 273.495273 
L 251.441864 284.491636 
L 251.53121 273.495273 
L 251.621459 284.491636 
L 251.708098 273.495273 
L 251.801957 284.491636 
L 251.890401 273.495273 
L 251.977943 284.491636 
L 252.072704 273.495273 
L 252.160246 284.491636 
L 252.24869 273.495273 
L 252.343451 284.491636 
L 252.427383 273.495273 
L 252.519437 284.491636 
L 252.612393 273.495273 
L 252.69813 284.491636 
L 252.792891 273.495273 
L 252.88314 284.491636 
L 252.971584 273.495273 
L 253.063638 284.491636 
L 253.149375 273.495273 
L 253.242331 284.491636 
L 253.331678 273.495273 
L 253.420122 284.491636 
L 253.510371 273.495273 
L 253.602425 284.491636 
L 253.692674 273.495273 
L 253.781118 284.491636 
L 253.873172 273.495273 
L 253.963421 284.491636 
L 254.05728 273.495273 
L 254.143919 284.491636 
L 254.240485 273.495273 
L 254.328027 284.491636 
L 254.418276 273.495273 
L 254.511232 284.491636 
L 254.596969 273.495273 
L 254.68812 284.491636 
L 254.780174 273.495273 
L 254.867716 284.491636 
L 254.95977 273.495273 
L 255.050921 284.491636 
L 255.138463 273.495273 
L 255.230517 284.491636 
L 255.318961 273.495273 
L 255.40921 284.491636 
L 255.499459 273.495273 
L 255.588805 284.491636 
L 255.682664 273.495273 
L 255.770206 284.491636 
L 255.86226 273.495273 
L 255.953411 284.491636 
L 256.040953 273.495273 
L 256.132104 284.491636 
L 256.218744 273.495273 
L 256.3117 284.491636 
L 256.399242 273.495273 
L 256.488588 284.491636 
L 256.57974 273.495273 
L 256.669989 284.491636 
L 256.75753 273.495273 
L 256.849584 284.491636 
L 256.942541 273.495273 
L 257.028277 284.491636 
L 257.119429 273.495273 
L 257.213288 284.491636 
L 257.301732 273.495273 
L 257.390176 284.491636 
L 257.481327 273.495273 
L 257.572479 284.491636 
L 257.661825 273.495273 
L 257.752074 284.491636 
L 257.845933 273.495273 
L 257.932572 284.491636 
L 258.027334 273.495273 
L 258.11668 284.491636 
L 258.207832 273.495273 
L 258.298081 284.491636 
L 258.391037 273.495273 
L 258.478579 284.491636 
L 258.572438 273.495273 
L 258.661784 284.491636 
L 258.751131 273.495273 
L 258.843185 284.491636 
L 258.928921 273.495273 
L 259.021878 284.491636 
L 259.109419 273.495273 
L 259.199668 284.491636 
L 259.29082 273.495273 
L 259.379264 284.491636 
L 259.469513 273.495273 
L 259.561567 284.491636 
L 259.653621 273.495273 
L 259.74026 284.491636 
L 259.832314 273.495273 
L 259.924368 284.491636 
L 260.011909 273.495273 
L 260.102158 284.491636 
L 260.186992 273.495273 
L 260.282656 284.491636 
L 260.368393 273.495273 
L 260.457739 284.491636 
L 260.546183 273.495273 
L 260.638237 284.491636 
L 260.730291 273.495273 
L 260.816028 284.491636 
L 260.909887 273.495273 
L 261.001038 284.491636 
L 261.090385 273.495273 
L 261.180634 284.491636 
L 261.270883 273.495273 
L 261.360229 284.491636 
L 261.455893 273.495273 
L 261.540727 284.491636 
L 261.638196 273.495273 
L 261.72664 284.491636 
L 261.817792 273.495273 
L 261.908041 284.491636 
L 261.999192 273.495273 
L 262.088539 284.491636 
L 262.180593 273.495273 
L 262.269939 284.491636 
L 262.362896 273.495273 
L 262.45134 284.491636 
L 262.545199 273.495273 
L 262.633643 284.491636 
L 262.724794 273.495273 
L 262.815043 284.491636 
L 262.909805 273.495273 
L 262.995541 284.491636 
L 263.091205 273.495273 
L 263.179649 284.491636 
L 263.272606 273.495273 
L 263.361952 284.491636 
L 263.454006 273.495273 
L 263.543353 284.491636 
L 263.638114 273.495273 
L 263.724753 284.491636 
L 263.815905 273.495273 
L 263.907959 284.491636 
L 263.997305 273.495273 
L 264.086652 284.491636 
L 264.181413 273.495273 
L 264.268052 284.491636 
L 264.360106 273.495273 
L 264.451258 284.491636 
L 264.539702 273.495273 
L 264.629951 284.491636 
L 264.719297 273.495273 
L 264.810449 284.491636 
L 264.899795 273.495273 
L 264.990044 284.491636 
L 265.079391 273.495273 
L 265.170542 284.491636 
L 265.262596 273.495273 
L 265.350138 284.491636 
L 265.443094 273.495273 
L 265.533343 284.491636 
L 265.61908 273.495273 
L 265.713841 284.491636 
L 265.797773 273.495273 
L 265.889827 284.491636 
L 265.978271 273.495273 
L 266.06852 284.491636 
L 266.159671 273.495273 
L 266.249018 284.491636 
L 266.336559 273.495273 
L 266.430418 284.491636 
L 266.520667 273.495273 
L 266.606404 284.491636 
L 266.700263 273.495273 
L 266.790512 284.491636 
L 266.878956 273.495273 
L 266.970107 284.491636 
L 267.063966 273.495273 
L 267.149703 284.491636 
L 267.245367 273.495273 
L 267.334713 284.491636 
L 267.426767 273.495273 
L 267.516114 284.491636 
L 267.607265 273.495273 
L 267.697514 284.491636 
L 267.785056 273.495273 
L 267.878012 284.491636 
L 267.966456 273.495273 
L 268.0549 284.491636 
L 268.146954 273.495273 
L 268.236301 284.491636 
L 268.324745 273.495273 
L 268.416799 284.491636 
L 268.503438 273.495273 
L 268.595492 284.491636 
L 268.685741 273.495273 
L 268.774185 284.491636 
L 268.866239 273.495273 
L 268.955585 284.491636 
L 269.050347 273.495273 
L 269.136083 284.491636 
L 269.231747 273.495273 
L 269.321094 284.491636 
L 269.412245 273.495273 
L 269.502494 284.491636 
L 269.591841 273.495273 
L 269.682992 284.491636 
L 269.776851 273.495273 
L 269.862588 284.491636 
L 269.957349 273.495273 
L 270.046696 284.491636 
L 270.140555 273.495273 
L 270.228096 284.491636 
L 270.324663 273.495273 
L 270.410399 284.491636 
L 270.506966 273.495273 
L 270.594507 284.491636 
L 270.692879 273.495273 
L 270.777713 284.491636 
L 270.875182 273.495273 
L 270.962723 284.491636 
L 271.05929 273.495273 
L 271.145929 284.491636 
L 271.243398 273.495273 
L 271.330037 284.491636 
L 271.427506 273.495273 
L 271.514145 284.491636 
L 271.608906 273.495273 
L 271.698253 284.491636 
L 271.783989 273.495273 
L 271.878751 284.491636 
L 271.963585 273.495273 
L 272.054736 284.491636 
L 272.14318 273.495273 
L 272.234332 284.491636 
L 272.323678 273.495273 
L 272.413927 284.491636 
L 272.499664 273.495273 
L 272.593523 284.491636 
L 272.679259 273.495273 
L 272.769508 284.491636 
L 272.86066 273.495273 
L 272.949104 284.491636 
L 273.040255 273.495273 
L 273.131407 284.491636 
L 273.218948 273.495273 
L 273.311002 284.491636 
L 273.403056 273.495273 
L 273.489695 284.491636 
L 273.580847 273.495273 
L 273.673803 284.491636 
L 273.758637 273.495273 
L 273.851594 284.491636 
L 273.939135 273.495273 
L 274.029384 284.491636 
L 274.120536 273.495273 
L 274.20898 284.491636 
L 274.305546 273.495273 
L 274.39038 284.491636 
L 274.486044 273.495273 
L 274.576293 284.491636 
L 274.671957 273.495273 
L 274.756791 284.491636 
L 274.85065 273.495273 
L 274.941802 284.491636 
L 275.032051 273.495273 
L 275.121397 284.491636 
L 275.212549 273.495273 
L 275.302798 284.491636 
L 275.393047 273.495273 
L 275.483296 284.491636 
L 275.574447 273.495273 
L 275.662891 284.491636 
L 275.757653 273.495273 
L 275.845194 284.491636 
L 275.935443 273.495273 
L 276.0284 284.491636 
L 276.116844 273.495273 
L 276.20619 284.491636 
L 276.296439 273.495273 
L 276.387591 284.491636 
L 276.476035 273.495273 
L 276.567186 284.491636 
L 276.657435 273.495273 
L 276.746782 284.491636 
L 276.838836 273.495273 
L 276.928182 284.491636 
L 277.019334 273.495273 
L 277.10868 284.491636 
L 277.202539 273.495273 
L 277.289178 284.491636 
L 277.38033 273.495273 
L 277.472384 284.491636 
L 277.56173 273.495273 
L 277.651077 284.491636 
L 277.743131 273.495273 
L 277.831575 284.491636 
L 277.922726 273.495273 
L 278.013878 284.491636 
L 278.103224 273.495273 
L 278.193473 284.491636 
L 278.28282 273.495273 
L 278.373971 284.491636 
L 278.463318 273.495273 
L 278.553567 284.491636 
L 278.646523 273.495273 
L 278.734065 284.491636 
L 278.830631 273.495273 
L 278.91727 284.491636 
L 279.007519 273.495273 
L 279.101378 284.491636 
L 279.188017 273.495273 
L 279.277364 284.491636 
L 279.36671 273.495273 
L 279.458764 284.491636 
L 279.543598 273.495273 
L 279.637457 284.491636 
L 279.724999 273.495273 
L 279.813443 284.491636 
L 279.905497 273.495273 
L 279.995746 284.491636 
L 280.0878 273.495273 
L 280.175342 284.491636 
L 280.264688 273.495273 
L 280.358547 284.491636 
L 280.445186 273.495273 
L 280.534533 284.491636 
L 280.623879 273.495273 
L 280.715933 284.491636 
L 280.800767 273.495273 
L 280.894626 284.491636 
L 280.982168 273.495273 
L 281.070612 284.491636 
L 281.163568 273.495273 
L 281.252915 284.491636 
L 281.343164 273.495273 
L 281.613911 295.488 
L 282.922521 284.491636 
L 283.192366 295.488 
L 283.242003 284.491636 
L 283.51275 295.488 
L 283.554264 284.491636 
L 283.825011 295.488 
L 283.869233 284.491636 
L 284.139078 295.488 
L 284.187812 284.491636 
L 284.458559 295.488 
L 284.505489 284.491636 
L 284.775333 295.488 
L 284.818653 284.491636 
L 285.0894 295.488 
L 285.136329 284.491636 
L 285.407076 295.488 
L 285.446786 284.491636 
L 285.717533 295.488 
L 285.764462 284.491636 
L 286.035209 295.488 
L 286.080334 284.491636 
L 286.351081 295.488 
L 286.397108 284.491636 
L 286.667855 295.488 
L 286.719297 284.491636 
L 286.989141 295.488 
L 287.033363 284.491636 
L 287.30411 295.488 
L 301.81976 284.491636 
L 302.089605 295.488 
L 302.132022 284.491636 
L 302.401866 295.488 
L 352.921453 284.491636 
L 353.191298 295.488 
L 353.229202 284.491636 
L 353.499949 295.488 
L 353.545074 284.491636 
L 353.814918 295.488 
L 353.85914 284.491636 
L 354.129887 295.488 
L 354.176817 284.491636 
L 354.447564 295.488 
L 354.485469 284.491636 
L 354.756216 295.488 
L 354.802243 284.491636 
L 355.07299 295.488 
L 355.127139 284.491636 
L 355.397886 295.488 
L 355.442108 284.491636 
L 355.712855 295.488 
L 355.761589 284.491636 
L 356.031434 295.488 
L 356.075656 284.491636 
L 356.346403 295.488 
L 356.396942 284.491636 
L 356.667689 295.488 
L 356.717326 284.491636 
L 356.987171 295.488 
L 357.032295 284.491636 
L 357.30214 295.488 
L 357.349069 284.491636 
L 357.619816 295.488 
L 357.671258 284.491636 
L 357.942005 295.488 
L 357.989837 284.491636 
L 358.260584 295.488 
L 358.302099 284.491636 
L 358.572846 295.488 
L 358.619775 284.491636 
L 358.88962 295.488 
L 358.932939 284.491636 
L 359.202784 295.488 
L 359.247006 284.491636 
L 359.517753 295.488 
L 359.559268 284.491636 
L 359.829112 295.488 
L 359.876042 284.491636 
L 360.146789 295.488 
L 360.188303 284.491636 
L 360.45905 295.488 
L 360.510492 284.491636 
L 360.781239 295.488 
L 360.823656 284.491636 
L 361.093501 295.488 
L 361.142235 284.491636 
L 361.412982 295.488 
L 361.454497 284.491636 
L 361.725244 295.488 
L 361.774881 284.491636 
L 362.044725 295.488 
L 362.088947 284.491636 
L 362.359694 295.488 
L 362.405721 284.491636 
L 362.676468 295.488 
L 362.72791 284.491636 
L 362.998657 295.488 
L 363.044684 284.491636 
L 363.315431 295.488 
L 363.357848 284.491636 
L 363.628595 295.488 
L 363.67733 284.491636 
L 363.948077 295.488 
L 363.994104 284.491636 
L 364.264851 295.488 
L 364.314488 284.491636 
L 364.585235 295.488 
L 364.624944 284.491636 
L 364.895691 295.488 
L 364.944426 284.491636 
L 365.215173 295.488 
L 365.266615 284.491636 
L 365.537362 295.488 
L 365.589706 284.491636 
L 365.860453 295.488 
L 365.908285 284.491636 
L 366.179032 295.488 
L 366.221449 284.491636 
L 366.492196 295.488 
L 366.540028 284.491636 
L 366.810775 295.488 
L 366.862217 284.491636 
L 367.132061 295.488 
L 367.175381 284.491636 
L 367.446128 295.488 
L 367.495765 284.491636 
L 367.766512 295.488 
L 367.815246 284.491636 
L 368.085993 295.488 
L 368.129313 284.491636 
L 368.40006 295.488 
L 368.445184 284.491636 
L 368.715931 295.488 
L 368.761958 284.491636 
L 369.032705 295.488 
L 369.079635 284.491636 
L 369.349479 295.488 
L 369.391896 284.491636 
L 369.662643 295.488 
L 369.703256 284.491636 
L 369.9731 295.488 
L 370.021835 284.491636 
L 370.292582 295.488 
L 370.344023 284.491636 
L 370.61477 295.488 
L 370.65809 284.491636 
L 370.928837 295.488 
L 370.971254 284.491636 
L 371.241099 295.488 
L 371.290736 284.491636 
L 371.56058 295.488 
L 371.606607 284.491636 
L 371.876452 295.488 
L 371.918869 284.491636 
L 372.189616 295.488 
L 372.232033 284.491636 
L 372.50278 295.488 
L 372.548807 284.491636 
L 372.819554 295.488 
L 372.861068 284.491636 
L 373.130913 295.488 
L 373.179647 284.491636 
L 373.449492 295.488 
L 373.490104 284.491636 
L 373.760851 295.488 
L 373.802365 284.491636 
L 374.07221 295.488 
L 374.125457 284.491636 
L 374.395301 295.488 
L 374.442231 284.491636 
L 374.712075 295.488 
L 374.7572 284.491636 
L 375.027947 295.488 
L 375.072169 284.491636 
L 375.342013 295.488 
L 375.386235 284.491636 
L 375.65608 295.488 
L 375.699399 284.491636 
L 375.970146 295.488 
L 376.016173 284.491636 
L 376.28692 295.488 
L 376.33746 284.491636 
L 376.607304 295.488 
L 376.652429 284.491636 
L 376.923176 295.488 
L 376.97191 284.491636 
L 377.242657 295.488 
L 377.284172 284.491636 
L 377.554919 295.488 
L 377.601848 284.491636 
L 377.871693 295.488 
L 377.91411 284.491636 
L 378.183954 295.488 
L 378.229981 284.491636 
L 378.500728 295.488 
L 378.539535 284.491636 
L 378.810282 295.488 
L 378.851797 284.491636 
L 379.122544 295.488 
L 379.173986 284.491636 
L 379.44383 295.488 
L 379.48715 284.491636 
L 379.757897 295.488 
L 379.796704 284.491636 
L 380.066549 295.488 
L 380.110771 284.491636 
L 380.381518 295.488 
L 380.43296 284.491636 
L 380.702804 295.488 
L 380.746124 284.491636 
L 381.016871 295.488 
L 381.061093 284.491636 
L 381.33184 295.488 
L 381.373354 284.491636 
L 381.694641 273.495273 
L 382.645865 262.498909 
L 385.799165 108.549818 
L 387.890235 119.546182 
L 388.025608 218.513455 
L 388.124882 284.491636 
L 388.279208 273.495273 
L 388.326137 284.491636 
L 388.511148 273.495273 
L 388.549955 284.491636 
L 388.734063 273.495273 
L 388.781895 284.491636 
L 388.95788 273.495273 
L 389.00481 284.491636 
L 389.1826 273.495273 
L 389.228627 284.491636 
L 389.408223 273.495273 
L 389.453347 284.491636 
L 389.634748 273.495273 
L 389.678067 284.491636 
L 389.862175 273.495273 
L 389.905495 284.491636 
L 390.086895 273.495273 
L 390.132922 284.491636 
L 390.315225 273.495273 
L 390.357642 284.491636 
L 390.535433 273.495273 
L 390.585972 284.491636 
L 390.761056 273.495273 
L 390.80618 284.491636 
L 390.987581 273.495273 
L 391.0309 284.491636 
L 391.206886 273.495273 
L 391.257425 284.491636 
L 391.431606 273.495273 
L 391.477633 284.491636 
L 391.659936 273.495273 
L 391.702353 284.491636 
L 391.880143 273.495273 
L 391.92978 284.491636 
L 392.111181 273.495273 
L 392.15089 284.491636 
L 392.335901 273.495273 
L 392.381928 284.491636 
L 392.563328 273.495273 
L 392.606648 284.491636 
L 392.787146 273.495273 
L 392.833173 284.491636 
L 393.015476 273.495273 
L 393.05699 284.491636 
L 393.240196 273.495273 
L 393.286223 284.491636 
L 393.464916 273.495273 
L 393.510943 284.491636 
L 393.695051 273.495273 
L 393.73476 284.491636 
L 393.922478 273.495273 
L 393.965798 284.491636 
L 394.152613 273.495273 
L 394.193225 284.491636 
L 394.380943 273.495273 
L 394.42336 284.491636 
L 394.607468 273.495273 
L 394.65169 284.491636 
L 394.838506 273.495273 
L 394.878215 284.491636 
L 395.069543 273.495273 
L 395.109253 284.491636 
L 395.294263 273.495273 
L 395.34029 284.491636 
L 395.517178 273.495273 
L 395.56501 284.491636 
L 395.747313 273.495273 
L 395.787925 284.491636 
L 395.973838 273.495273 
L 396.017158 284.491636 
L 396.19946 273.495273 
L 396.244585 284.491636 
L 396.420571 273.495273 
L 396.470207 284.491636 
L 396.643486 273.495273 
L 396.691318 284.491636 
L 396.868206 273.495273 
L 396.914233 284.491636 
L 397.089316 273.495273 
L 397.13805 284.491636 
L 397.315841 273.495273 
L 397.360063 284.491636 
L 397.545976 273.495273 
L 397.586588 284.491636 
L 397.769793 273.495273 
L 397.816723 284.491636 
L 397.991806 273.495273 
L 398.04054 284.491636 
L 398.216526 273.495273 
L 398.262553 284.491636 
L 398.487273 295.488 
L 398.487273 295.488 
" clip-path="url(#pdc9f7a277e)" style="fill: none; stroke: #1f77b4; stroke-width: 1.5; stroke-linecap: square"/>
   </g>
   <g id="patch_3">
    <path d="M 57.6 307.584 
L 57.6 41.472 
" style="fill: none; stroke: #000000; stroke-width: 0.8; stroke-linejoin: miter; stroke-linecap: square"/>
   </g>
   <g id="patch_4">
    <path d="M 414.72 307.584 
L 414.72 41.472 
" style="fill: none; stroke: #000000; stroke-width: 0.8; stroke-linejoin: miter; stroke-linecap: square"/>
   </g>
   <g id="patch_5">
    <path d="M 57.6 307.584 
L 414.72 307.584 
" style="fill: none; stroke: #000000; stroke-width: 0.8; stroke-linejoin: miter; stroke-linecap: square"/>
   </g>
   <g id="patch_6">
    <path d="M 57.6 41.472 
L 414.72 41.472 
" style="fill: none; stroke: #000000; stroke-width: 0.8; stroke-linejoin: miter; stroke-linecap: square"/>
   </g>
   <g id="text_15">
    <!-- Queue size (y-axis) between S1 and sensors that follow at a time (x-axis). -->
    <g transform="translate(14.282813 35.472) scale(0.12 -0.12)">
     <defs>
      <path id="DejaVuSans-51" d="M 2522 4238 
Q 1834 4238 1429 3725 
Q 1025 3213 1025 2328 
Q 1025 1447 1429 934 
Q 1834 422 2522 422 
Q 3209 422 3611 934 
Q 4013 1447 4013 2328 
Q 4013 3213 3611 3725 
Q 3209 4238 2522 4238 
z
M 3406 84 
L 4238 -825 
L 3475 -825 
L 2784 -78 
Q 2681 -84 2626 -87 
Q 2572 -91 2522 -91 
Q 1538 -91 948 567 
Q 359 1225 359 2328 
Q 359 3434 948 4092 
Q 1538 4750 2522 4750 
Q 3503 4750 4090 4092 
Q 4678 3434 4678 2328 
Q 4678 1516 4351 937 
Q 4025 359 3406 84 
z
" transform="scale(0.015625)"/>
      <path id="DejaVuSans-75" d="M 544 1381 
L 544 3500 
L 1119 3500 
L 1119 1403 
Q 1119 906 1312 657 
Q 1506 409 1894 409 
Q 2359 409 2629 706 
Q 2900 1003 2900 1516 
L 2900 3500 
L 3475 3500 
L 3475 0 
L 2900 0 
L 2900 538 
Q 2691 219 2414 64 
Q 2138 -91 1772 -91 
Q 1169 -91 856 284 
Q 544 659 544 1381 
z
M 1991 3584 
L 1991 3584 
z
" transform="scale(0.015625)"/>
      <path id="DejaVuSans-20" transform="scale(0.015625)"/>
      <path id="DejaVuSans-73" d="M 2834 3397 
L 2834 2853 
Q 2591 2978 2328 3040 
Q 2066 3103 1784 3103 
Q 1356 3103 1142 2972 
Q 928 2841 928 2578 
Q 928 2378 1081 2264 
Q 1234 2150 1697 2047 
L 1894 2003 
Q 2506 1872 2764 1633 
Q 3022 1394 3022 966 
Q 3022 478 2636 193 
Q 2250 -91 1575 -91 
Q 1294 -91 989 -36 
Q 684 19 347 128 
L 347 722 
Q 666 556 975 473 
Q 1284 391 1588 391 
Q 1994 391 2212 530 
Q 2431 669 2431 922 
Q 2431 1156 2273 1281 
Q 2116 1406 1581 1522 
L 1381 1569 
Q 847 1681 609 1914 
Q 372 2147 372 2553 
Q 372 3047 722 3315 
Q 1072 3584 1716 3584 
Q 2034 3584 2315 3537 
Q 2597 3491 2834 3397 
z
" transform="scale(0.015625)"/>
      <path id="DejaVuSans-69" d="M 603 3500 
L 1178 3500 
L 1178 0 
L 603 0 
L 603 3500 
z
M 603 4863 
L 1178 4863 
L 1178 4134 
L 603 4134 
L 603 4863 
z
" transform="scale(0.015625)"/>
      <path id="DejaVuSans-7a" d="M 353 3500 
L 3084 3500 
L 3084 2975 
L 922 459 
L 3084 459 
L 3084 0 
L 275 0 
L 275 525 
L 2438 3041 
L 353 3041 
L 353 3500 
z
" transform="scale(0.015625)"/>
      <path id="DejaVuSans-28" d="M 1984 4856 
Q 1566 4138 1362 3434 
Q 1159 2731 1159 2009 
Q 1159 1288 1364 580 
Q 1569 -128 1984 -844 
L 1484 -844 
Q 1016 -109 783 600 
Q 550 1309 550 2009 
Q 550 2706 781 3412 
Q 1013 4119 1484 4856 
L 1984 4856 
z
" transform="scale(0.015625)"/>
      <path id="DejaVuSans-79" d="M 2059 -325 
Q 1816 -950 1584 -1140 
Q 1353 -1331 966 -1331 
L 506 -1331 
L 506 -850 
L 844 -850 
Q 1081 -850 1212 -737 
Q 1344 -625 1503 -206 
L 1606 56 
L 191 3500 
L 800 3500 
L 1894 763 
L 2988 3500 
L 3597 3500 
L 2059 -325 
z
" transform="scale(0.015625)"/>
      <path id="DejaVuSans-2d" d="M 313 2009 
L 1997 2009 
L 1997 1497 
L 313 1497 
L 313 2009 
z
" transform="scale(0.015625)"/>
      <path id="DejaVuSans-61" d="M 2194 1759 
Q 1497 1759 1228 1600 
Q 959 1441 959 1056 
Q 959 750 1161 570 
Q 1363 391 1709 391 
Q 2188 391 2477 730 
Q 2766 1069 2766 1631 
L 2766 1759 
L 2194 1759 
z
M 3341 1997 
L 3341 0 
L 2766 0 
L 2766 531 
Q 2569 213 2275 61 
Q 1981 -91 1556 -91 
Q 1019 -91 701 211 
Q 384 513 384 1019 
Q 384 1609 779 1909 
Q 1175 2209 1959 2209 
L 2766 2209 
L 2766 2266 
Q 2766 2663 2505 2880 
Q 2244 3097 1772 3097 
Q 1472 3097 1187 3025 
Q 903 2953 641 2809 
L 641 3341 
Q 956 3463 1253 3523 
Q 1550 3584 1831 3584 
Q 2591 3584 2966 3190 
Q 3341 2797 3341 1997 
z
" transform="scale(0.015625)"/>
      <path id="DejaVuSans-78" d="M 3513 3500 
L 2247 1797 
L 3578 0 
L 2900 0 
L 1881 1375 
L 863 0 
L 184 0 
L 1544 1831 
L 300 3500 
L 978 3500 
L 1906 2253 
L 2834 3500 
L 3513 3500 
z
" transform="scale(0.015625)"/>
      <path id="DejaVuSans-29" d="M 513 4856 
L 1013 4856 
Q 1481 4119 1714 3412 
Q 1947 2706 1947 2009 
Q 1947 1309 1714 600 
Q 1481 -109 1013 -844 
L 513 -844 
Q 928 -128 1133 580 
Q 1338 1288 1338 2009 
Q 1338 2731 1133 3434 
Q 928 4138 513 4856 
z
" transform="scale(0.015625)"/>
      <path id="DejaVuSans-62" d="M 3116 1747 
Q 3116 2381 2855 2742 
Q 2594 3103 2138 3103 
Q 1681 3103 1420 2742 
Q 1159 2381 1159 1747 
Q 1159 1113 1420 752 
Q 1681 391 2138 391 
Q 2594 391 2855 752 
Q 3116 1113 3116 1747 
z
M 1159 2969 
Q 1341 3281 1617 3432 
Q 1894 3584 2278 3584 
Q 2916 3584 3314 3078 
Q 3713 2572 3713 1747 
Q 3713 922 3314 415 
Q 2916 -91 2278 -91 
Q 1894 -91 1617 61 
Q 1341 213 1159 525 
L 1159 0 
L 581 0 
L 581 4863 
L 1159 4863 
L 1159 2969 
z
" transform="scale(0.015625)"/>
      <path id="DejaVuSans-74" d="M 1172 4494 
L 1172 3500 
L 2356 3500 
L 2356 3053 
L 1172 3053 
L 1172 1153 
Q 1172 725 1289 603 
Q 1406 481 1766 481 
L 2356 481 
L 2356 0 
L 1766 0 
Q 1100 0 847 248 
Q 594 497 594 1153 
L 594 3053 
L 172 3053 
L 172 3500 
L 594 3500 
L 594 4494 
L 1172 4494 
z
" transform="scale(0.015625)"/>
      <path id="DejaVuSans-77" d="M 269 3500 
L 844 3500 
L 1563 769 
L 2278 3500 
L 2956 3500 
L 3675 769 
L 4391 3500 
L 4966 3500 
L 4050 0 
L 3372 0 
L 2619 2869 
L 1863 0 
L 1184 0 
L 269 3500 
z
" transform="scale(0.015625)"/>
      <path id="DejaVuSans-6e" d="M 3513 2113 
L 3513 0 
L 2938 0 
L 2938 2094 
Q 2938 2591 2744 2837 
Q 2550 3084 2163 3084 
Q 1697 3084 1428 2787 
Q 1159 2491 1159 1978 
L 1159 0 
L 581 0 
L 581 3500 
L 1159 3500 
L 1159 2956 
Q 1366 3272 1645 3428 
Q 1925 3584 2291 3584 
Q 2894 3584 3203 3211 
Q 3513 2838 3513 2113 
z
" transform="scale(0.015625)"/>
      <path id="DejaVuSans-53" d="M 3425 4513 
L 3425 3897 
Q 3066 4069 2747 4153 
Q 2428 4238 2131 4238 
Q 1616 4238 1336 4038 
Q 1056 3838 1056 3469 
Q 1056 3159 1242 3001 
Q 1428 2844 1947 2747 
L 2328 2669 
Q 3034 2534 3370 2195 
Q 3706 1856 3706 1288 
Q 3706 609 3251 259 
Q 2797 -91 1919 -91 
Q 1588 -91 1214 -16 
Q 841 59 441 206 
L 441 856 
Q 825 641 1194 531 
Q 1563 422 1919 422 
Q 2459 422 2753 634 
Q 3047 847 3047 1241 
Q 3047 1584 2836 1778 
Q 2625 1972 2144 2069 
L 1759 2144 
Q 1053 2284 737 2584 
Q 422 2884 422 3419 
Q 422 4038 858 4394 
Q 1294 4750 2059 4750 
Q 2388 4750 2728 4690 
Q 3069 4631 3425 4513 
z
" transform="scale(0.015625)"/>
      <path id="DejaVuSans-64" d="M 2906 2969 
L 2906 4863 
L 3481 4863 
L 3481 0 
L 2906 0 
L 2906 525 
Q 2725 213 2448 61 
Q 2172 -91 1784 -91 
Q 1150 -91 751 415 
Q 353 922 353 1747 
Q 353 2572 751 3078 
Q 1150 3584 1784 3584 
Q 2172 3584 2448 3432 
Q 2725 3281 2906 2969 
z
M 947 1747 
Q 947 1113 1208 752 
Q 1469 391 1925 391 
Q 2381 391 2643 752 
Q 2906 1113 2906 1747 
Q 2906 2381 2643 2742 
Q 2381 3103 1925 3103 
Q 1469 3103 1208 2742 
Q 947 2381 947 1747 
z
" transform="scale(0.015625)"/>
      <path id="DejaVuSans-6f" d="M 1959 3097 
Q 1497 3097 1228 2736 
Q 959 2375 959 1747 
Q 959 1119 1226 758 
Q 1494 397 1959 397 
Q 2419 397 2687 759 
Q 2956 1122 2956 1747 
Q 2956 2369 2687 2733 
Q 2419 3097 1959 3097 
z
M 1959 3584 
Q 2709 3584 3137 3096 
Q 3566 2609 3566 1747 
Q 3566 888 3137 398 
Q 2709 -91 1959 -91 
Q 1206 -91 779 398 
Q 353 888 353 1747 
Q 353 2609 779 3096 
Q 1206 3584 1959 3584 
z
" transform="scale(0.015625)"/>
      <path id="DejaVuSans-72" d="M 2631 2963 
Q 2534 3019 2420 3045 
Q 2306 3072 2169 3072 
Q 1681 3072 1420 2755 
Q 1159 2438 1159 1844 
L 1159 0 
L 581 0 
L 581 3500 
L 1159 3500 
L 1159 2956 
Q 1341 3275 1631 3429 
Q 1922 3584 2338 3584 
Q 2397 3584 2469 3576 
Q 2541 3569 2628 3553 
L 2631 2963 
z
" transform="scale(0.015625)"/>
      <path id="DejaVuSans-68" d="M 3513 2113 
L 3513 0 
L 2938 0 
L 2938 2094 
Q 2938 2591 2744 2837 
Q 2550 3084 2163 3084 
Q 1697 3084 1428 2787 
Q 1159 2491 1159 1978 
L 1159 0 
L 581 0 
L 581 4863 
L 1159 4863 
L 1159 2956 
Q 1366 3272 1645 3428 
Q 1925 3584 2291 3584 
Q 2894 3584 3203 3211 
Q 3513 2838 3513 2113 
z
" transform="scale(0.015625)"/>
      <path id="DejaVuSans-66" d="M 2375 4863 
L 2375 4384 
L 1825 4384 
Q 1516 4384 1395 4259 
Q 1275 4134 1275 3809 
L 1275 3500 
L 2222 3500 
L 2222 3053 
L 1275 3053 
L 1275 0 
L 697 0 
L 697 3053 
L 147 3053 
L 147 3500 
L 697 3500 
L 697 3744 
Q 697 4328 969 4595 
Q 1241 4863 1831 4863 
L 2375 4863 
z
" transform="scale(0.015625)"/>
      <path id="DejaVuSans-6c" d="M 603 4863 
L 1178 4863 
L 1178 0 
L 603 0 
L 603 4863 
z
" transform="scale(0.015625)"/>
      <path id="DejaVuSans-6d" d="M 3328 2828 
Q 3544 3216 3844 3400 
Q 4144 3584 4550 3584 
Q 5097 3584 5394 3201 
Q 5691 2819 5691 2113 
L 5691 0 
L 5113 0 
L 5113 2094 
Q 5113 2597 4934 2840 
Q 4756 3084 4391 3084 
Q 3944 3084 3684 2787 
Q 3425 2491 3425 1978 
L 3425 0 
L 2847 0 
L 2847 2094 
Q 2847 2600 2669 2842 
Q 2491 3084 2119 3084 
Q 1678 3084 1418 2786 
Q 1159 2488 1159 1978 
L 1159 0 
L 581 0 
L 581 3500 
L 1159 3500 
L 1159 2956 
Q 1356 3278 1631 3431 
Q 1906 3584 2284 3584 
Q 2666 3584 2933 3390 
Q 3200 3197 3328 2828 
z
" transform="scale(0.015625)"/>
     </defs>
     <use xlink:href="#DejaVuSans-51"/>
     <use xlink:href="#DejaVuSans-75" x="78.710938"/>
     <use xlink:href="#DejaVuSans-65" x="142.089844"/>
     <use xlink:href="#DejaVuSans-75" x="203.613281"/>
     <use xlink:href="#DejaVuSans-65" x="266.992188"/>
     <use xlink:href="#DejaVuSans-20" x="328.515625"/>
     <use xlink:href="#DejaVuSans-73" x="360.302734"/>
     <use xlink:href="#DejaVuSans-69" x="412.402344"/>
     <use xlink:href="#DejaVuSans-7a" x="440.185547"/>
     <use xlink:href="#DejaVuSans-65" x="492.675781"/>
     <use xlink:href="#DejaVuSans-20" x="554.199219"/>
     <use xlink:href="#DejaVuSans-28" x="585.986328"/>
     <use xlink:href="#DejaVuSans-79" x="625"/>
     <use xlink:href="#DejaVuSans-2d" x="682.429688"/>
     <use xlink:href="#DejaVuSans-61" x="718.513672"/>
     <use xlink:href="#DejaVuSans-78" x="779.792969"/>
     <use xlink:href="#DejaVuSans-69" x="838.972656"/>
     <use xlink:href="#DejaVuSans-73" x="866.755859"/>
     <use xlink:href="#DejaVuSans-29" x="918.855469"/>
     <use xlink:href="#DejaVuSans-20" x="957.869141"/>
     <use xlink:href="#DejaVuSans-62" x="989.65625"/>
     <use xlink:href="#DejaVuSans-65" x="1053.132812"/>
     <use xlink:href="#DejaVuSans-74" x="1114.65625"/>
     <use xlink:href="#DejaVuSans-77" x="1153.865234"/>
     <use xlink:href="#DejaVuSans-65" x="1235.652344"/>
     <use xlink:href="#DejaVuSans-65" x="1297.175781"/>
     <use xlink:href="#DejaVuSans-6e" x="1358.699219"/>
     <use xlink:href="#DejaVuSans-20" x="1422.078125"/>
     <use xlink:href="#DejaVuSans-53" x="1453.865234"/>
     <use xlink:href="#DejaVuSans-31" x="1517.341797"/>
     <use xlink:href="#DejaVuSans-20" x="1580.964844"/>
     <use xlink:href="#DejaVuSans-61" x="1612.751953"/>
     <use xlink:href="#DejaVuSans-6e" x="1674.03125"/>
     <use xlink:href="#DejaVuSans-64" x="1737.410156"/>
     <use xlink:href="#DejaVuSans-20" x="1800.886719"/>
     <use xlink:href="#DejaVuSans-73" x="1832.673828"/>
     <use xlink:href="#DejaVuSans-65" x="1884.773438"/>
     <use xlink:href="#DejaVuSans-6e" x="1946.296875"/>
     <use xlink:href="#DejaVuSans-73" x="2009.675781"/>
     <use xlink:href="#DejaVuSans-6f" x="2061.775391"/>
     <use xlink:href="#DejaVuSans-72" x="2122.957031"/>
     <use xlink:href="#DejaVuSans-73" x="2164.070312"/>
     <use xlink:href="#DejaVuSans-20" x="2216.169922"/>
     <use xlink:href="#DejaVuSans-74" x="2247.957031"/>
     <use xlink:href="#DejaVuSans-68" x="2287.166016"/>
     <use xlink:href="#DejaVuSans-61" x="2350.544922"/>
     <use xlink:href="#DejaVuSans-74" x="2411.824219"/>
     <use xlink:href="#DejaVuSans-20" x="2451.033203"/>
     <use xlink:href="#DejaVuSans-66" x="2482.820312"/>
     <use xlink:href="#DejaVuSans-6f" x="2518.025391"/>
     <use xlink:href="#DejaVuSans-6c" x="2579.207031"/>
     <use xlink:href="#DejaVuSans-6c" x="2606.990234"/>
     <use xlink:href="#DejaVuSans-6f" x="2634.773438"/>
     <use xlink:href="#DejaVuSans-77" x="2695.955078"/>
     <use xlink:href="#DejaVuSans-20" x="2777.742188"/>
     <use xlink:href="#DejaVuSans-61" x="2809.529297"/>
     <use xlink:href="#DejaVuSans-74" x="2870.808594"/>
     <use xlink:href="#DejaVuSans-20" x="2910.017578"/>
     <use xlink:href="#DejaVuSans-61" x="2941.804688"/>
     <use xlink:href="#DejaVuSans-20" x="3003.083984"/>
     <use xlink:href="#DejaVuSans-74" x="3034.871094"/>
     <use xlink:href="#DejaVuSans-69" x="3074.080078"/>
     <use xlink:href="#DejaVuSans-6d" x="3101.863281"/>
     <use xlink:href="#DejaVuSans-65" x="3199.275391"/>
     <use xlink:href="#DejaVuSans-20" x="3260.798828"/>
     <use xlink:href="#DejaVuSans-28" x="3292.585938"/>
     <use xlink:href="#DejaVuSans-78" x="3331.599609"/>
     <use xlink:href="#DejaVuSans-2d" x="3390.779297"/>
     <use xlink:href="#DejaVuSans-61" x="3426.863281"/>
     <use xlink:href="#DejaVuSans-78" x="3488.142578"/>
     <use xlink:href="#DejaVuSans-69" x="3547.322266"/>
     <use xlink:href="#DejaVuSans-73" x="3575.105469"/>
     <use xlink:href="#DejaVuSans-29" x="3627.205078"/>
     <use xlink:href="#DejaVuSans-2e" x="3666.21875"/>
    </g>
   </g>
  </g>
 </g>
 <defs>
  <clipPath id="pdc9f7a277e">
   <rect x="57.6" y="41.472" width="357.12" height="266.112"/>
  </clipPath>
 </defs>
</svg>
