<?xml version="1.0" encoding="utf-8" standalone="no"?>
<!DOCTYPE svg PUBLIC "-//W3C//DTD SVG 1.1//EN"
  "http://www.w3.org/Graphics/SVG/1.1/DTD/svg11.dtd">
<svg xmlns:xlink="http://www.w3.org/1999/xlink" width="460.8pt" height="345.6pt" viewBox="0 0 460.8 345.6" xmlns="http://www.w3.org/2000/svg" version="1.1">
 <metadata>
  <rdf:RDF xmlns:dc="http://purl.org/dc/elements/1.1/" xmlns:cc="http://creativecommons.org/ns#" xmlns:rdf="http://www.w3.org/1999/02/22-rdf-syntax-ns#">
   <cc:Work>
    <dc:type rdf:resource="http://purl.org/dc/dcmitype/StillImage"/>
    <dc:date>2024-03-08T11:05:09.666715</dc:date>
    <dc:format>image/svg+xml</dc:format>
    <dc:creator>
     <cc:Agent>
      <dc:title>Matplotlib v3.8.2, https://matplotlib.org/</dc:title>
     </cc:Agent>
    </dc:creator>
   </cc:Work>
  </rdf:RDF>
 </metadata>
 <defs>
  <style type="text/css">*{stroke-linejoin: round; stroke-linecap: butt}</style>
 </defs>
 <g id="figure_1">
  <g id="patch_1">
   <path d="M 0 345.6 
L 460.8 345.6 
L 460.8 0 
L 0 0 
z
" style="fill: #ffffff"/>
  </g>
  <g id="axes_1">
   <g id="patch_2">
    <path d="M 57.6 307.584 
L 414.72 307.584 
L 414.72 41.472 
L 57.6 41.472 
z
" style="fill: #ffffff"/>
   </g>
   <g id="matplotlib.axis_1">
    <g id="xtick_1">
     <g id="line2d_1">
      <defs>
       <path id="m6aafadcce8" d="M 0 0 
L 0 3.5 
" style="stroke: #000000; stroke-width: 0.8"/>
      </defs>
      <g>
       <use xlink:href="#m6aafadcce8" x="73.832727" y="307.584" style="stroke: #000000; stroke-width: 0.8"/>
      </g>
     </g>
     <g id="text_1">
      <!-- 0 -->
      <g transform="translate(70.651477 322.182437) scale(0.1 -0.1)">
       <defs>
        <path id="DejaVuSans-30" d="M 2034 4250 
Q 1547 4250 1301 3770 
Q 1056 3291 1056 2328 
Q 1056 1369 1301 889 
Q 1547 409 2034 409 
Q 2525 409 2770 889 
Q 3016 1369 3016 2328 
Q 3016 3291 2770 3770 
Q 2525 4250 2034 4250 
z
M 2034 4750 
Q 2819 4750 3233 4129 
Q 3647 3509 3647 2328 
Q 3647 1150 3233 529 
Q 2819 -91 2034 -91 
Q 1250 -91 836 529 
Q 422 1150 422 2328 
Q 422 3509 836 4129 
Q 1250 4750 2034 4750 
z
" transform="scale(0.015625)"/>
       </defs>
       <use xlink:href="#DejaVuSans-30"/>
      </g>
     </g>
    </g>
    <g id="xtick_2">
     <g id="line2d_2">
      <g>
       <use xlink:href="#m6aafadcce8" x="130.198321" y="307.584" style="stroke: #000000; stroke-width: 0.8"/>
      </g>
     </g>
     <g id="text_2">
      <!-- 50000 -->
      <g transform="translate(114.292071 322.182437) scale(0.1 -0.1)">
       <defs>
        <path id="DejaVuSans-35" d="M 691 4666 
L 3169 4666 
L 3169 4134 
L 1269 4134 
L 1269 2991 
Q 1406 3038 1543 3061 
Q 1681 3084 1819 3084 
Q 2600 3084 3056 2656 
Q 3513 2228 3513 1497 
Q 3513 744 3044 326 
Q 2575 -91 1722 -91 
Q 1428 -91 1123 -41 
Q 819 9 494 109 
L 494 744 
Q 775 591 1075 516 
Q 1375 441 1709 441 
Q 2250 441 2565 725 
Q 2881 1009 2881 1497 
Q 2881 1984 2565 2268 
Q 2250 2553 1709 2553 
Q 1456 2553 1204 2497 
Q 953 2441 691 2322 
L 691 4666 
z
" transform="scale(0.015625)"/>
       </defs>
       <use xlink:href="#DejaVuSans-35"/>
       <use xlink:href="#DejaVuSans-30" x="63.623047"/>
       <use xlink:href="#DejaVuSans-30" x="127.246094"/>
       <use xlink:href="#DejaVuSans-30" x="190.869141"/>
       <use xlink:href="#DejaVuSans-30" x="254.492188"/>
      </g>
     </g>
    </g>
    <g id="xtick_3">
     <g id="line2d_3">
      <g>
       <use xlink:href="#m6aafadcce8" x="186.563914" y="307.584" style="stroke: #000000; stroke-width: 0.8"/>
      </g>
     </g>
     <g id="text_3">
      <!-- 100000 -->
      <g transform="translate(167.476414 322.182437) scale(0.1 -0.1)">
       <defs>
        <path id="DejaVuSans-31" d="M 794 531 
L 1825 531 
L 1825 4091 
L 703 3866 
L 703 4441 
L 1819 4666 
L 2450 4666 
L 2450 531 
L 3481 531 
L 3481 0 
L 794 0 
L 794 531 
z
" transform="scale(0.015625)"/>
       </defs>
       <use xlink:href="#DejaVuSans-31"/>
       <use xlink:href="#DejaVuSans-30" x="63.623047"/>
       <use xlink:href="#DejaVuSans-30" x="127.246094"/>
       <use xlink:href="#DejaVuSans-30" x="190.869141"/>
       <use xlink:href="#DejaVuSans-30" x="254.492188"/>
       <use xlink:href="#DejaVuSans-30" x="318.115234"/>
      </g>
     </g>
    </g>
    <g id="xtick_4">
     <g id="line2d_4">
      <g>
       <use xlink:href="#m6aafadcce8" x="242.929508" y="307.584" style="stroke: #000000; stroke-width: 0.8"/>
      </g>
     </g>
     <g id="text_4">
      <!-- 150000 -->
      <g transform="translate(223.842008 322.182437) scale(0.1 -0.1)">
       <use xlink:href="#DejaVuSans-31"/>
       <use xlink:href="#DejaVuSans-35" x="63.623047"/>
       <use xlink:href="#DejaVuSans-30" x="127.246094"/>
       <use xlink:href="#DejaVuSans-30" x="190.869141"/>
       <use xlink:href="#DejaVuSans-30" x="254.492188"/>
       <use xlink:href="#DejaVuSans-30" x="318.115234"/>
      </g>
     </g>
    </g>
    <g id="xtick_5">
     <g id="line2d_5">
      <g>
       <use xlink:href="#m6aafadcce8" x="299.295101" y="307.584" style="stroke: #000000; stroke-width: 0.8"/>
      </g>
     </g>
     <g id="text_5">
      <!-- 200000 -->
      <g transform="translate(280.207601 322.182437) scale(0.1 -0.1)">
       <defs>
        <path id="DejaVuSans-32" d="M 1228 531 
L 3431 531 
L 3431 0 
L 469 0 
L 469 531 
Q 828 903 1448 1529 
Q 2069 2156 2228 2338 
Q 2531 2678 2651 2914 
Q 2772 3150 2772 3378 
Q 2772 3750 2511 3984 
Q 2250 4219 1831 4219 
Q 1534 4219 1204 4116 
Q 875 4013 500 3803 
L 500 4441 
Q 881 4594 1212 4672 
Q 1544 4750 1819 4750 
Q 2544 4750 2975 4387 
Q 3406 4025 3406 3419 
Q 3406 3131 3298 2873 
Q 3191 2616 2906 2266 
Q 2828 2175 2409 1742 
Q 1991 1309 1228 531 
z
" transform="scale(0.015625)"/>
       </defs>
       <use xlink:href="#DejaVuSans-32"/>
       <use xlink:href="#DejaVuSans-30" x="63.623047"/>
       <use xlink:href="#DejaVuSans-30" x="127.246094"/>
       <use xlink:href="#DejaVuSans-30" x="190.869141"/>
       <use xlink:href="#DejaVuSans-30" x="254.492188"/>
       <use xlink:href="#DejaVuSans-30" x="318.115234"/>
      </g>
     </g>
    </g>
    <g id="xtick_6">
     <g id="line2d_6">
      <g>
       <use xlink:href="#m6aafadcce8" x="355.660695" y="307.584" style="stroke: #000000; stroke-width: 0.8"/>
      </g>
     </g>
     <g id="text_6">
      <!-- 250000 -->
      <g transform="translate(336.573195 322.182437) scale(0.1 -0.1)">
       <use xlink:href="#DejaVuSans-32"/>
       <use xlink:href="#DejaVuSans-35" x="63.623047"/>
       <use xlink:href="#DejaVuSans-30" x="127.246094"/>
       <use xlink:href="#DejaVuSans-30" x="190.869141"/>
       <use xlink:href="#DejaVuSans-30" x="254.492188"/>
       <use xlink:href="#DejaVuSans-30" x="318.115234"/>
      </g>
     </g>
    </g>
    <g id="xtick_7">
     <g id="line2d_7">
      <g>
       <use xlink:href="#m6aafadcce8" x="412.026288" y="307.584" style="stroke: #000000; stroke-width: 0.8"/>
      </g>
     </g>
     <g id="text_7">
      <!-- 300000 -->
      <g transform="translate(392.938788 322.182437) scale(0.1 -0.1)">
       <defs>
        <path id="DejaVuSans-33" d="M 2597 2516 
Q 3050 2419 3304 2112 
Q 3559 1806 3559 1356 
Q 3559 666 3084 287 
Q 2609 -91 1734 -91 
Q 1441 -91 1130 -33 
Q 819 25 488 141 
L 488 750 
Q 750 597 1062 519 
Q 1375 441 1716 441 
Q 2309 441 2620 675 
Q 2931 909 2931 1356 
Q 2931 1769 2642 2001 
Q 2353 2234 1838 2234 
L 1294 2234 
L 1294 2753 
L 1863 2753 
Q 2328 2753 2575 2939 
Q 2822 3125 2822 3475 
Q 2822 3834 2567 4026 
Q 2313 4219 1838 4219 
Q 1578 4219 1281 4162 
Q 984 4106 628 3988 
L 628 4550 
Q 988 4650 1302 4700 
Q 1616 4750 1894 4750 
Q 2613 4750 3031 4423 
Q 3450 4097 3450 3541 
Q 3450 3153 3228 2886 
Q 3006 2619 2597 2516 
z
" transform="scale(0.015625)"/>
       </defs>
       <use xlink:href="#DejaVuSans-33"/>
       <use xlink:href="#DejaVuSans-30" x="63.623047"/>
       <use xlink:href="#DejaVuSans-30" x="127.246094"/>
       <use xlink:href="#DejaVuSans-30" x="190.869141"/>
       <use xlink:href="#DejaVuSans-30" x="254.492188"/>
       <use xlink:href="#DejaVuSans-30" x="318.115234"/>
      </g>
     </g>
    </g>
   </g>
   <g id="matplotlib.axis_2">
    <g id="ytick_1">
     <g id="line2d_8">
      <defs>
       <path id="m227a022473" d="M 0 0 
L -3.5 0 
" style="stroke: #000000; stroke-width: 0.8"/>
      </defs>
      <g>
       <use xlink:href="#m227a022473" x="57.6" y="295.488" style="stroke: #000000; stroke-width: 0.8"/>
      </g>
     </g>
     <g id="text_8">
      <!-- 0.0 -->
      <g transform="translate(34.696875 299.287219) scale(0.1 -0.1)">
       <defs>
        <path id="DejaVuSans-2e" d="M 684 794 
L 1344 794 
L 1344 0 
L 684 0 
L 684 794 
z
" transform="scale(0.015625)"/>
       </defs>
       <use xlink:href="#DejaVuSans-30"/>
       <use xlink:href="#DejaVuSans-2e" x="63.623047"/>
       <use xlink:href="#DejaVuSans-30" x="95.410156"/>
      </g>
     </g>
    </g>
    <g id="ytick_2">
     <g id="line2d_9">
      <g>
       <use xlink:href="#m227a022473" x="57.6" y="247.104" style="stroke: #000000; stroke-width: 0.8"/>
      </g>
     </g>
     <g id="text_9">
      <!-- 0.2 -->
      <g transform="translate(34.696875 250.903219) scale(0.1 -0.1)">
       <use xlink:href="#DejaVuSans-30"/>
       <use xlink:href="#DejaVuSans-2e" x="63.623047"/>
       <use xlink:href="#DejaVuSans-32" x="95.410156"/>
      </g>
     </g>
    </g>
    <g id="ytick_3">
     <g id="line2d_10">
      <g>
       <use xlink:href="#m227a022473" x="57.6" y="198.72" style="stroke: #000000; stroke-width: 0.8"/>
      </g>
     </g>
     <g id="text_10">
      <!-- 0.4 -->
      <g transform="translate(34.696875 202.519219) scale(0.1 -0.1)">
       <defs>
        <path id="DejaVuSans-34" d="M 2419 4116 
L 825 1625 
L 2419 1625 
L 2419 4116 
z
M 2253 4666 
L 3047 4666 
L 3047 1625 
L 3713 1625 
L 3713 1100 
L 3047 1100 
L 3047 0 
L 2419 0 
L 2419 1100 
L 313 1100 
L 313 1709 
L 2253 4666 
z
" transform="scale(0.015625)"/>
       </defs>
       <use xlink:href="#DejaVuSans-30"/>
       <use xlink:href="#DejaVuSans-2e" x="63.623047"/>
       <use xlink:href="#DejaVuSans-34" x="95.410156"/>
      </g>
     </g>
    </g>
    <g id="ytick_4">
     <g id="line2d_11">
      <g>
       <use xlink:href="#m227a022473" x="57.6" y="150.336" style="stroke: #000000; stroke-width: 0.8"/>
      </g>
     </g>
     <g id="text_11">
      <!-- 0.6 -->
      <g transform="translate(34.696875 154.135219) scale(0.1 -0.1)">
       <defs>
        <path id="DejaVuSans-36" d="M 2113 2584 
Q 1688 2584 1439 2293 
Q 1191 2003 1191 1497 
Q 1191 994 1439 701 
Q 1688 409 2113 409 
Q 2538 409 2786 701 
Q 3034 994 3034 1497 
Q 3034 2003 2786 2293 
Q 2538 2584 2113 2584 
z
M 3366 4563 
L 3366 3988 
Q 3128 4100 2886 4159 
Q 2644 4219 2406 4219 
Q 1781 4219 1451 3797 
Q 1122 3375 1075 2522 
Q 1259 2794 1537 2939 
Q 1816 3084 2150 3084 
Q 2853 3084 3261 2657 
Q 3669 2231 3669 1497 
Q 3669 778 3244 343 
Q 2819 -91 2113 -91 
Q 1303 -91 875 529 
Q 447 1150 447 2328 
Q 447 3434 972 4092 
Q 1497 4750 2381 4750 
Q 2619 4750 2861 4703 
Q 3103 4656 3366 4563 
z
" transform="scale(0.015625)"/>
       </defs>
       <use xlink:href="#DejaVuSans-30"/>
       <use xlink:href="#DejaVuSans-2e" x="63.623047"/>
       <use xlink:href="#DejaVuSans-36" x="95.410156"/>
      </g>
     </g>
    </g>
    <g id="ytick_5">
     <g id="line2d_12">
      <g>
       <use xlink:href="#m227a022473" x="57.6" y="101.952" style="stroke: #000000; stroke-width: 0.8"/>
      </g>
     </g>
     <g id="text_12">
      <!-- 0.8 -->
      <g transform="translate(34.696875 105.751219) scale(0.1 -0.1)">
       <defs>
        <path id="DejaVuSans-38" d="M 2034 2216 
Q 1584 2216 1326 1975 
Q 1069 1734 1069 1313 
Q 1069 891 1326 650 
Q 1584 409 2034 409 
Q 2484 409 2743 651 
Q 3003 894 3003 1313 
Q 3003 1734 2745 1975 
Q 2488 2216 2034 2216 
z
M 1403 2484 
Q 997 2584 770 2862 
Q 544 3141 544 3541 
Q 544 4100 942 4425 
Q 1341 4750 2034 4750 
Q 2731 4750 3128 4425 
Q 3525 4100 3525 3541 
Q 3525 3141 3298 2862 
Q 3072 2584 2669 2484 
Q 3125 2378 3379 2068 
Q 3634 1759 3634 1313 
Q 3634 634 3220 271 
Q 2806 -91 2034 -91 
Q 1263 -91 848 271 
Q 434 634 434 1313 
Q 434 1759 690 2068 
Q 947 2378 1403 2484 
z
M 1172 3481 
Q 1172 3119 1398 2916 
Q 1625 2713 2034 2713 
Q 2441 2713 2670 2916 
Q 2900 3119 2900 3481 
Q 2900 3844 2670 4047 
Q 2441 4250 2034 4250 
Q 1625 4250 1398 4047 
Q 1172 3844 1172 3481 
z
" transform="scale(0.015625)"/>
       </defs>
       <use xlink:href="#DejaVuSans-30"/>
       <use xlink:href="#DejaVuSans-2e" x="63.623047"/>
       <use xlink:href="#DejaVuSans-38" x="95.410156"/>
      </g>
     </g>
    </g>
    <g id="ytick_6">
     <g id="line2d_13">
      <g>
       <use xlink:href="#m227a022473" x="57.6" y="53.568" style="stroke: #000000; stroke-width: 0.8"/>
      </g>
     </g>
     <g id="text_13">
      <!-- 1.0 -->
      <g transform="translate(34.696875 57.367219) scale(0.1 -0.1)">
       <use xlink:href="#DejaVuSans-31"/>
       <use xlink:href="#DejaVuSans-2e" x="63.623047"/>
       <use xlink:href="#DejaVuSans-30" x="95.410156"/>
      </g>
     </g>
    </g>
   </g>
   <g id="line2d_14">
    <path d="M 73.832727 295.488 
L 73.855274 295.488 
L 73.945458 294.23062 
L 73.945458 294.23062 
L 74.013097 294.23062 
L 74.103282 292.721763 
L 74.103282 292.721763 
L 74.317471 292.721763 
L 74.328744 291.715859 
L 74.328744 291.715859 
L 74.430203 291.715859 
L 74.509114 290.709954 
L 74.509114 290.709954 
L 77.721953 290.709954 
L 77.721953 290.207002 
L 77.721953 290.207002 
L 78.804173 290.207002 
L 78.804173 289.955526 
L 79.029635 289.955526 
L 79.11982 287.943717 
L 79.11982 287.943717 
L 79.142366 287.943717 
L 79.142366 287.189289 
L 79.142366 287.189289 
L 79.288917 287.189289 
L 79.288917 286.183385 
L 79.288917 286.183385 
L 79.401648 286.183385 
L 79.503106 280.147958 
L 79.503106 280.147958 
L 79.514379 280.147958 
L 79.593291 271.597771 
L 79.593291 271.597771 
L 79.638383 271.597771 
L 79.739841 264.053489 
L 79.739841 264.053489 
L 79.751115 264.053489 
L 79.852573 254.245921 
L 79.852573 254.245921 
L 79.863846 254.245921 
L 79.965304 243.180973 
L 79.965304 243.180973 
L 79.98785 243.180973 
L 80.078035 231.613073 
L 80.078035 231.613073 
L 80.111854 231.613073 
L 80.213312 222.308457 
L 80.213312 222.308457 
L 80.247132 222.308457 
L 80.337317 217.781888 
L 80.337317 217.781888 
L 80.359863 217.781888 
L 80.461321 208.477272 
L 80.461321 208.477272 
L 80.472594 208.477272 
L 80.551506 206.465464 
L 80.551506 206.465464 
L 80.596598 206.465464 
L 80.686783 204.453655 
L 80.686783 204.453655 
L 80.70933 204.453655 
L 80.765695 201.938894 
L 80.765695 201.938894 
L 85.26367 201.938894 
L 85.26367 201.435942 
L 85.26367 201.435942 
L 85.41022 201.435942 
L 85.41022 200.93299 
L 85.41022 200.93299 
L 85.872418 200.93299 
L 85.883691 199.927085 
L 85.883691 199.927085 
L 86.052788 199.927085 
L 86.142973 197.915277 
L 86.142973 197.915277 
L 86.176792 197.915277 
L 86.27825 196.154944 
L 86.27825 196.154944 
L 86.481166 196.154944 
L 86.571351 194.143135 
L 86.571351 194.143135 
L 86.605171 194.143135 
L 86.695356 192.131326 
L 86.695356 192.131326 
L 86.717902 192.131326 
L 86.785541 190.62247 
L 86.785541 190.62247 
L 86.920818 190.62247 
L 87.022276 189.616565 
L 87.022276 189.616565 
L 87.067369 189.616565 
L 87.067369 189.365089 
L 87.383016 189.365089 
L 87.428108 187.856233 
L 87.428108 187.856233 
L 87.574659 187.856233 
L 87.574659 187.353281 
L 87.574659 187.353281 
L 87.68739 187.353281 
L 87.766302 185.844424 
L 87.766302 185.844424 
L 87.833941 185.844424 
L 87.856487 184.83852 
L 87.856487 184.83852 
L 87.957945 184.83852 
L 88.036857 183.329663 
L 88.036857 183.329663 
L 88.205954 183.329663 
L 88.284865 180.31195 
L 88.284865 180.31195 
L 88.577967 180.31195 
L 88.668151 175.78538 
L 88.668151 175.78538 
L 88.690698 175.78538 
L 88.780883 171.258811 
L 88.780883 171.258811 
L 88.848521 171.258811 
L 88.91616 165.223385 
L 88.91616 165.223385 
L 89.028891 165.223385 
L 89.119076 162.205672 
L 89.119076 162.205672 
L 89.220534 162.205672 
L 89.321992 156.421721 
L 89.321992 156.421721 
L 89.389631 156.421721 
L 89.468543 150.386295 
L 89.468543 150.386295 
L 89.739098 150.386295 
L 89.840556 144.853821 
L 89.840556 144.853821 
L 89.874375 144.853821 
L 89.896921 141.584632 
L 89.896921 141.584632 
L 90.054745 141.584632 
L 90.156203 139.572823 
L 90.156203 139.572823 
L 90.268934 139.572823 
L 90.268934 138.566919 
L 90.268934 138.566919 
L 90.945321 138.566919 
L 90.945321 138.315443 
L 91.362427 138.315443 
L 91.362427 137.309538 
L 91.362427 137.309538 
L 91.542797 137.309538 
L 91.565343 135.800682 
L 91.565343 135.800682 
L 91.802078 135.800682 
L 91.813352 134.794778 
L 91.813352 134.794778 
L 91.91481 134.794778 
L 91.959902 132.782969 
L 91.959902 132.782969 
L 92.106453 132.782969 
L 92.140272 130.77116 
L 92.140272 130.77116 
L 92.275549 130.77116 
L 92.309369 129.765256 
L 92.309369 129.765256 
L 92.467192 129.765256 
L 92.467192 129.262304 
L 92.467192 129.262304 
L 92.794113 129.262304 
L 92.895571 128.256399 
L 92.895571 128.256399 
L 93.256311 128.256399 
L 93.29013 126.747543 
L 93.29013 126.747543 
L 93.369042 126.747543 
L 93.402861 125.490162 
L 93.402861 125.490162 
L 93.639597 125.490162 
L 93.639597 124.98721 
L 93.639597 124.98721 
L 94.169433 124.98721 
L 94.169433 124.484258 
L 94.169433 124.484258 
L 94.609085 124.484258 
L 94.609085 123.981306 
L 94.609085 123.981306 
L 94.924732 123.981306 
L 94.958552 122.723925 
L 94.958552 122.723925 
L 95.082556 122.723925 
L 95.082556 122.220973 
L 95.082556 122.220973 
L 95.409476 122.220973 
L 95.409476 121.718021 
L 95.409476 121.718021 
L 95.668758 121.718021 
L 95.668758 121.215069 
L 95.668758 121.215069 
L 95.826582 121.215069 
L 95.826582 120.712116 
L 95.826582 120.712116 
L 96.029498 120.712116 
L 96.07459 119.706212 
L 96.07459 119.706212 
L 96.153502 119.706212 
L 96.153502 118.700308 
L 96.153502 118.700308 
L 96.28878 118.700308 
L 96.28878 118.197356 
L 96.28878 118.197356 
L 96.43533 118.197356 
L 96.525515 116.688499 
L 96.525515 116.688499 
L 96.762251 116.688499 
L 96.762251 115.682595 
L 96.762251 115.682595 
L 96.897528 115.682595 
L 96.897528 113.670786 
L 96.897528 113.670786 
L 97.111717 113.670786 
L 97.111717 112.664881 
L 97.111717 112.664881 
L 97.224449 112.664881 
L 97.224449 111.658977 
L 97.224449 111.658977 
L 97.404818 111.658977 
L 97.438638 109.647168 
L 97.438638 109.647168 
L 97.551369 109.647168 
L 97.607735 106.629455 
L 97.607735 106.629455 
L 97.686646 106.629455 
L 97.69792 104.617647 
L 97.69792 104.617647 
L 97.810651 104.617647 
L 97.889563 102.605838 
L 97.889563 102.605838 
L 97.979748 102.605838 
L 98.047386 97.827792 
L 98.047386 97.827792 
L 98.137571 97.827792 
L 98.137571 96.570412 
L 98.137571 96.570412 
L 98.250302 96.570412 
L 98.261575 94.558603 
L 98.261575 94.558603 
L 98.363034 94.558603 
L 98.464492 91.54089 
L 98.464492 91.54089 
L 98.520857 91.54089 
L 98.520857 89.529081 
L 98.520857 89.529081 
L 98.633588 89.529081 
L 98.735046 83.745131 
L 98.735046 83.745131 
L 98.802685 83.745131 
L 98.870324 81.733322 
L 98.870324 81.733322 
L 98.971782 81.733322 
L 99.07324 79.721514 
L 99.07324 79.721514 
L 99.084513 79.721514 
L 99.084513 78.715609 
L 99.084513 78.715609 
L 99.219791 78.715609 
L 99.219791 77.709705 
L 99.219791 77.709705 
L 99.366341 77.709705 
L 99.366341 76.7038 
L 99.366341 76.7038 
L 99.625623 76.7038 
L 99.625623 75.697896 
L 99.625623 75.697896 
L 102.331171 75.697896 
L 102.331171 74.440516 
L 102.331171 74.440516 
L 102.545361 74.440516 
L 102.612999 72.428707 
L 102.612999 72.428707 
L 102.669365 72.428707 
L 102.669365 71.422802 
L 102.669365 71.422802 
L 103.097743 71.422802 
L 103.097743 70.416898 
L 103.097743 70.416898 
L 103.289386 70.416898 
L 103.289386 69.410994 
L 103.289386 69.410994 
L 103.593761 69.410994 
L 103.593761 68.405089 
L 103.593761 68.405089 
L 104.867623 68.405089 
L 104.867623 67.399185 
L 104.867623 67.399185 
L 124.753404 67.399185 
L 124.753404 66.896233 
L 124.753404 66.896233 
L 126.57965 66.896233 
L 126.57965 64.129996 
L 126.57965 64.129996 
L 137.108743 64.129996 
L 137.108743 63.124091 
L 137.108743 63.124091 
L 137.311659 63.124091 
L 137.311659 62.621139 
L 137.311659 62.621139 
L 137.492029 62.621139 
L 137.492029 62.118187 
L 137.492029 62.118187 
L 152.507823 62.118187 
L 152.507823 61.866711 
L 155.078094 61.866711 
L 155.078094 60.860807 
L 155.078094 60.860807 
L 160.399006 60.860807 
L 160.399006 60.357854 
L 160.399006 60.357854 
L 163.769668 60.357854 
L 163.769668 59.35195 
L 163.769668 59.35195 
L 173.069991 59.35195 
L 173.069991 58.346046 
L 173.069991 58.346046 
L 181.479738 58.346046 
L 181.479738 55.076857 
L 181.479738 55.076857 
L 334.681421 55.076857 
L 334.681421 54.573904 
L 334.681421 54.573904 
L 344.917413 54.573904 
L 344.917413 53.568 
L 344.917413 53.568 
" clip-path="url(#p91382b1934)" style="fill: none; stroke: #1f77b4; stroke-width: 1.5; stroke-linecap: square"/>
   </g>
   <g id="line2d_15">
    <path d="M 73.832727 295.488 
L 73.844 295.488 
L 73.945458 294.249924 
L 73.945458 294.249924 
L 74.035643 294.249924 
L 74.114555 288.802391 
L 74.114555 288.802391 
L 74.193467 288.802391 
L 74.193467 288.554776 
L 75.095317 288.554776 
L 75.095317 287.81193 
L 75.095317 287.81193 
L 75.399691 287.81193 
L 75.399691 287.069085 
L 75.399691 287.069085 
L 75.580061 287.069085 
L 75.580061 286.078624 
L 75.580061 286.078624 
L 75.760431 286.078624 
L 75.839342 283.107243 
L 75.839342 283.107243 
L 75.906981 283.107243 
L 75.929527 281.126321 
L 75.929527 281.126321 
L 76.12117 281.126321 
L 76.15499 278.65017 
L 76.15499 278.65017 
L 76.245175 278.65017 
L 76.245175 277.659709 
L 76.245175 277.659709 
L 76.572095 277.659709 
L 76.605914 276.174018 
L 76.605914 276.174018 
L 76.707373 276.174018 
L 76.707373 275.183558 
L 76.707373 275.183558 
L 76.977927 275.183558 
L 77.000474 274.193097 
L 77.000474 274.193097 
L 77.20339 274.193097 
L 77.20339 273.697867 
L 77.20339 273.697867 
L 77.316121 273.697867 
L 77.316121 272.707406 
L 77.316121 272.707406 
L 77.473945 272.707406 
L 77.485218 271.221715 
L 77.485218 271.221715 
L 77.665588 271.221715 
L 77.744499 269.98364 
L 77.868504 269.98364 
L 77.947416 269.240794 
L 77.947416 269.240794 
L 78.319429 269.240794 
L 78.319429 268.745564 
L 78.319429 268.745564 
L 78.43216 268.745564 
L 78.43216 268.250334 
L 78.43216 268.250334 
L 78.871811 268.250334 
L 78.871811 267.259873 
L 78.871811 267.259873 
L 79.976577 267.259873 
L 79.976577 264.783722 
L 79.976577 264.783722 
L 80.213312 264.783722 
L 80.314771 261.81234 
L 80.314771 261.81234 
L 80.337317 261.81234 
L 80.438775 258.098113 
L 80.438775 258.098113 
L 80.450048 258.098113 
L 80.551506 253.393425 
L 80.551506 253.393425 
L 80.574052 253.393425 
L 80.652964 245.222125 
L 80.652964 245.222125 
L 80.686783 245.222125 
L 80.788242 237.79367 
L 80.788242 237.79367 
L 80.822061 237.79367 
L 80.912246 223.431992 
L 80.912246 223.431992 
L 80.934792 223.431992 
L 81.03625 211.29885 
L 81.03625 211.29885 
L 81.058796 211.29885 
L 81.160254 205.851316 
L 81.160254 205.851316 
L 81.182801 205.851316 
L 81.272986 192.975329 
L 81.272986 192.975329 
L 81.306805 192.975329 
L 81.408263 183.813568 
L 81.408263 183.813568 
L 81.419536 183.813568 
L 81.487175 174.651808 
L 81.532267 174.651808 
L 81.622452 168.709044 
L 81.622452 168.709044 
L 81.644999 168.709044 
L 81.678818 166.232893 
L 81.678818 166.232893 
L 81.75773 166.232893 
L 81.802822 164.251971 
L 81.802822 164.251971 
L 83.798164 164.251971 
L 83.798164 164.004356 
L 84.012353 164.004356 
L 84.012353 162.76628 
L 84.012353 162.76628 
L 84.508371 162.76628 
L 84.508371 162.27105 
L 84.508371 162.27105 
L 84.72256 162.27105 
L 84.72256 161.77582 
L 84.72256 161.77582 
L 84.959295 161.77582 
L 85.060753 161.032974 
L 85.060753 161.032974 
L 85.218577 161.032974 
L 85.218577 160.537744 
L 85.218577 160.537744 
L 85.342581 160.537744 
L 85.342581 159.547284 
L 85.342581 159.547284 
L 85.522951 159.547284 
L 85.522951 158.556823 
L 85.522951 158.556823 
L 85.737141 158.556823 
L 85.816052 155.337826 
L 85.816052 155.337826 
L 85.940057 155.337826 
L 85.940057 154.347365 
L 85.940057 154.347365 
L 86.221885 154.347365 
L 86.289523 151.375984 
L 86.289523 151.375984 
L 86.413528 151.375984 
L 86.49244 149.642678 
L 86.49244 149.642678 
L 86.886999 149.642678 
L 86.932091 147.909372 
L 86.932091 147.909372 
L 87.033549 147.909372 
L 87.033549 147.166526 
L 87.033549 147.166526 
L 87.709936 147.166526 
L 87.709936 146.176066 
L 87.709936 146.176066 
L 88.093222 146.176066 
L 88.093222 145.680835 
L 88.093222 145.680835 
L 88.239773 145.680835 
L 88.318685 143.699914 
L 88.318685 143.699914 
L 88.431416 143.699914 
L 88.510328 142.709453 
L 88.510328 142.709453 
L 88.577967 142.709453 
L 88.577967 142.214223 
L 88.577967 142.214223 
L 88.690698 142.214223 
L 88.792156 140.233302 
L 88.792156 140.233302 
L 88.848521 140.233302 
L 88.949979 136.023844 
L 88.949979 136.023844 
L 88.961253 136.023844 
L 88.961253 135.528614 
L 88.961253 135.528614 
L 89.107803 135.528614 
L 89.186715 134.042923 
L 89.186715 134.042923 
L 89.254354 134.042923 
L 89.2769 132.557232 
L 89.2769 132.557232 
L 89.445997 132.557232 
L 89.536182 131.566772 
L 89.536182 131.566772 
L 89.558728 131.566772 
L 89.558728 131.071541 
L 89.558728 131.071541 
L 89.682732 131.071541 
L 89.78419 128.59539 
L 89.78419 128.59539 
L 89.919468 128.59539 
L 89.919468 128.10016 
L 89.919468 128.10016 
L 90.223842 128.10016 
L 90.223842 127.109699 
L 90.223842 127.109699 
L 90.392939 127.109699 
L 90.438031 125.128778 
L 90.438031 125.128778 
L 90.539489 125.128778 
L 90.539489 123.147857 
L 90.539489 123.147857 
L 90.663493 123.147857 
L 90.764952 121.166936 
L 90.764952 121.166936 
L 90.911502 121.166936 
L 90.911502 120.176475 
L 90.911502 120.176475 
L 91.328607 120.176475 
L 91.328607 119.186014 
L 91.328607 119.186014 
L 91.565343 119.186014 
L 91.666801 115.719402 
L 91.666801 115.719402 
L 91.689347 115.719402 
L 91.689347 114.728942 
L 91.689347 114.728942 
L 91.869717 114.728942 
L 91.926083 112.74802 
L 91.926083 112.74802 
L 92.219184 112.74802 
L 92.275549 110.767099 
L 92.275549 110.767099 
L 92.343188 110.767099 
L 92.343188 109.529024 
L 92.343188 109.529024 
L 92.692655 109.529024 
L 92.726474 107.300487 
L 92.726474 107.300487 
L 95.916767 107.300487 
L 95.916767 106.805257 
L 95.916767 106.805257 
L 96.085864 106.805257 
L 96.119683 105.319566 
L 96.119683 105.319566 
L 96.457877 105.319566 
L 96.559335 103.58626 
L 96.559335 103.58626 
L 96.570608 103.58626 
L 96.638246 102.595799 
L 96.638246 102.595799 
L 96.705885 102.595799 
L 96.79607 101.605339 
L 96.79607 101.605339 
L 96.841163 101.605339 
L 96.874982 100.614878 
L 96.874982 100.614878 
L 97.010259 100.614878 
L 97.010259 100.119648 
L 97.010259 100.119648 
L 97.122991 100.119648 
L 97.15681 99.129187 
L 97.15681 99.129187 
L 97.280814 99.129187 
L 97.292087 97.891112 
L 97.292087 97.891112 
L 97.416092 97.891112 
L 97.416092 97.395881 
L 97.416092 97.395881 
L 97.585188 97.395881 
L 97.675373 96.405421 
L 97.675373 96.405421 
L 97.912109 96.405421 
L 97.912109 95.91019 
L 97.912109 95.91019 
L 98.667408 95.91019 
L 98.74632 93.929269 
L 98.74632 93.929269 
L 99.174698 93.929269 
L 99.174698 92.938809 
L 99.174698 92.938809 
L 99.298702 92.938809 
L 99.298702 91.948348 
L 99.298702 91.948348 
L 99.512892 91.948348 
L 99.546711 89.967427 
L 99.546711 89.967427 
L 99.636896 89.967427 
L 99.681988 87.986506 
L 99.681988 87.986506 
L 99.828539 87.986506 
L 99.828539 86.996045 
L 99.828539 86.996045 
L 99.952543 86.996045 
L 99.952543 86.005584 
L 99.952543 86.005584 
L 100.234371 86.005584 
L 100.234371 85.015124 
L 100.234371 85.015124 
L 101.079855 85.015124 
L 101.079855 84.519894 
L 101.079855 84.519894 
L 103.26684 84.519894 
L 103.26684 83.529433 
L 103.26684 83.529433 
L 103.503576 83.529433 
L 103.503576 82.538972 
L 103.503576 82.538972 
L 103.841769 82.538972 
L 103.841769 81.548512 
L 103.841769 81.548512 
L 104.033412 81.548512 
L 104.033412 80.558051 
L 104.033412 80.558051 
L 104.326513 80.558051 
L 104.326513 79.815206 
L 104.326513 79.815206 
L 107.032062 79.815206 
L 107.032062 78.57713 
L 107.032062 78.57713 
L 114.799241 78.57713 
L 114.799241 78.0819 
L 114.799241 78.0819 
L 120.897998 78.0819 
L 120.897998 77.091439 
L 120.897998 77.091439 
L 129.893947 77.091439 
L 129.893947 76.596209 
L 129.893947 76.596209 
L 141.268523 76.596209 
L 141.268523 75.853363 
L 141.268523 75.853363 
L 154.176244 75.853363 
L 154.176244 75.605748 
L 162.067427 75.605748 
L 162.067427 75.110518 
L 162.067427 75.110518 
L 162.360528 75.110518 
L 162.360528 74.120057 
L 162.360528 74.120057 
L 163.284924 74.120057 
L 163.284924 73.377212 
L 163.284924 73.377212 
L 171.480481 73.377212 
L 171.480481 72.634366 
L 171.480481 72.634366 
L 172.066684 72.634366 
L 172.066684 71.643906 
L 172.066684 71.643906 
L 177.105768 71.643906 
L 177.105768 70.653445 
L 177.105768 70.653445 
L 181.660108 70.653445 
L 181.660108 67.682063 
L 181.660108 67.682063 
L 201.940448 67.682063 
L 201.940448 66.691603 
L 201.940448 66.691603 
L 211.342229 66.691603 
L 211.342229 65.701142 
L 211.342229 65.701142 
L 213.010651 65.701142 
L 213.010651 64.710682 
L 213.010651 64.710682 
L 215.952935 64.710682 
L 215.952935 61.986915 
L 215.952935 61.986915 
L 223.641202 61.986915 
L 223.641202 61.491685 
L 223.641202 61.491685 
L 235.241241 61.491685 
L 235.241241 60.501224 
L 235.241241 60.501224 
L 238.149705 60.501224 
L 238.149705 59.263148 
L 238.149705 59.263148 
L 245.950704 59.263148 
L 245.950704 58.272688 
L 245.950704 58.272688 
L 257.595835 58.272688 
L 257.595835 57.282227 
L 257.595835 57.282227 
L 268.947866 57.282227 
L 268.947866 56.291767 
L 268.947866 56.291767 
L 310.06093 56.291767 
L 310.06093 56.044151 
L 318.12121 56.044151 
L 318.12121 55.548921 
L 318.12121 55.548921 
L 389.175677 55.548921 
L 389.175677 54.558461 
L 389.175677 54.558461 
L 398.487273 54.558461 
L 398.487273 53.568 
L 398.487273 53.568 
" clip-path="url(#p91382b1934)" style="fill: none; stroke: #ff7f0e; stroke-width: 1.5; stroke-linecap: square"/>
   </g>
   <g id="patch_3">
    <path d="M 57.6 307.584 
L 57.6 41.472 
" style="fill: none; stroke: #000000; stroke-width: 0.8; stroke-linejoin: miter; stroke-linecap: square"/>
   </g>
   <g id="patch_4">
    <path d="M 414.72 307.584 
L 414.72 41.472 
" style="fill: none; stroke: #000000; stroke-width: 0.8; stroke-linejoin: miter; stroke-linecap: square"/>
   </g>
   <g id="patch_5">
    <path d="M 57.6 307.584 
L 414.72 307.584 
" style="fill: none; stroke: #000000; stroke-width: 0.8; stroke-linejoin: miter; stroke-linecap: square"/>
   </g>
   <g id="patch_6">
    <path d="M 57.6 41.472 
L 414.72 41.472 
" style="fill: none; stroke: #000000; stroke-width: 0.8; stroke-linejoin: miter; stroke-linecap: square"/>
   </g>
   <g id="text_14">
    <!-- S8 S9 -->
    <g transform="translate(219 35.472) scale(0.12 -0.12)">
     <defs>
      <path id="DejaVuSans-53" d="M 3425 4513 
L 3425 3897 
Q 3066 4069 2747 4153 
Q 2428 4238 2131 4238 
Q 1616 4238 1336 4038 
Q 1056 3838 1056 3469 
Q 1056 3159 1242 3001 
Q 1428 2844 1947 2747 
L 2328 2669 
Q 3034 2534 3370 2195 
Q 3706 1856 3706 1288 
Q 3706 609 3251 259 
Q 2797 -91 1919 -91 
Q 1588 -91 1214 -16 
Q 841 59 441 206 
L 441 856 
Q 825 641 1194 531 
Q 1563 422 1919 422 
Q 2459 422 2753 634 
Q 3047 847 3047 1241 
Q 3047 1584 2836 1778 
Q 2625 1972 2144 2069 
L 1759 2144 
Q 1053 2284 737 2584 
Q 422 2884 422 3419 
Q 422 4038 858 4394 
Q 1294 4750 2059 4750 
Q 2388 4750 2728 4690 
Q 3069 4631 3425 4513 
z
" transform="scale(0.015625)"/>
      <path id="DejaVuSans-20" transform="scale(0.015625)"/>
      <path id="DejaVuSans-39" d="M 703 97 
L 703 672 
Q 941 559 1184 500 
Q 1428 441 1663 441 
Q 2288 441 2617 861 
Q 2947 1281 2994 2138 
Q 2813 1869 2534 1725 
Q 2256 1581 1919 1581 
Q 1219 1581 811 2004 
Q 403 2428 403 3163 
Q 403 3881 828 4315 
Q 1253 4750 1959 4750 
Q 2769 4750 3195 4129 
Q 3622 3509 3622 2328 
Q 3622 1225 3098 567 
Q 2575 -91 1691 -91 
Q 1453 -91 1209 -44 
Q 966 3 703 97 
z
M 1959 2075 
Q 2384 2075 2632 2365 
Q 2881 2656 2881 3163 
Q 2881 3666 2632 3958 
Q 2384 4250 1959 4250 
Q 1534 4250 1286 3958 
Q 1038 3666 1038 3163 
Q 1038 2656 1286 2365 
Q 1534 2075 1959 2075 
z
" transform="scale(0.015625)"/>
     </defs>
     <use xlink:href="#DejaVuSans-53"/>
     <use xlink:href="#DejaVuSans-38" x="63.476562"/>
     <use xlink:href="#DejaVuSans-20" x="127.099609"/>
     <use xlink:href="#DejaVuSans-53" x="158.886719"/>
     <use xlink:href="#DejaVuSans-39" x="222.363281"/>
    </g>
   </g>
   <g id="legend_1">
    <g id="patch_7">
     <path d="M 114.636563 304.584 
L 410.52 304.584 
Q 411.72 304.584 411.72 303.384 
L 411.72 286.37025 
Q 411.72 285.17025 410.52 285.17025 
L 114.636563 285.17025 
Q 113.436563 285.17025 113.436563 286.37025 
L 113.436563 303.384 
Q 113.436563 304.584 114.636563 304.584 
z
" style="fill: #ffffff; opacity: 0.8; stroke: #cccccc; stroke-linejoin: miter"/>
    </g>
    <g id="line2d_16">
     <path d="M 115.836563 290.029312 
L 121.836563 290.029312 
L 127.836563 290.029312 
" style="fill: none; stroke: #1f77b4; stroke-width: 1.5; stroke-linecap: square"/>
    </g>
    <g id="text_15">
     <!-- Execution time between S8 S9 (xx1xx1xx1xx0yyy8xx0yyy8xx0yyy8xx0yyy8xx1xx1) -->
     <g transform="translate(132.636563 292.129312) scale(0.06 -0.06)">
      <defs>
       <path id="DejaVuSans-45" d="M 628 4666 
L 3578 4666 
L 3578 4134 
L 1259 4134 
L 1259 2753 
L 3481 2753 
L 3481 2222 
L 1259 2222 
L 1259 531 
L 3634 531 
L 3634 0 
L 628 0 
L 628 4666 
z
" transform="scale(0.015625)"/>
       <path id="DejaVuSans-78" d="M 3513 3500 
L 2247 1797 
L 3578 0 
L 2900 0 
L 1881 1375 
L 863 0 
L 184 0 
L 1544 1831 
L 300 3500 
L 978 3500 
L 1906 2253 
L 2834 3500 
L 3513 3500 
z
" transform="scale(0.015625)"/>
       <path id="DejaVuSans-65" d="M 3597 1894 
L 3597 1613 
L 953 1613 
Q 991 1019 1311 708 
Q 1631 397 2203 397 
Q 2534 397 2845 478 
Q 3156 559 3463 722 
L 3463 178 
Q 3153 47 2828 -22 
Q 2503 -91 2169 -91 
Q 1331 -91 842 396 
Q 353 884 353 1716 
Q 353 2575 817 3079 
Q 1281 3584 2069 3584 
Q 2775 3584 3186 3129 
Q 3597 2675 3597 1894 
z
M 3022 2063 
Q 3016 2534 2758 2815 
Q 2500 3097 2075 3097 
Q 1594 3097 1305 2825 
Q 1016 2553 972 2059 
L 3022 2063 
z
" transform="scale(0.015625)"/>
       <path id="DejaVuSans-63" d="M 3122 3366 
L 3122 2828 
Q 2878 2963 2633 3030 
Q 2388 3097 2138 3097 
Q 1578 3097 1268 2742 
Q 959 2388 959 1747 
Q 959 1106 1268 751 
Q 1578 397 2138 397 
Q 2388 397 2633 464 
Q 2878 531 3122 666 
L 3122 134 
Q 2881 22 2623 -34 
Q 2366 -91 2075 -91 
Q 1284 -91 818 406 
Q 353 903 353 1747 
Q 353 2603 823 3093 
Q 1294 3584 2113 3584 
Q 2378 3584 2631 3529 
Q 2884 3475 3122 3366 
z
" transform="scale(0.015625)"/>
       <path id="DejaVuSans-75" d="M 544 1381 
L 544 3500 
L 1119 3500 
L 1119 1403 
Q 1119 906 1312 657 
Q 1506 409 1894 409 
Q 2359 409 2629 706 
Q 2900 1003 2900 1516 
L 2900 3500 
L 3475 3500 
L 3475 0 
L 2900 0 
L 2900 538 
Q 2691 219 2414 64 
Q 2138 -91 1772 -91 
Q 1169 -91 856 284 
Q 544 659 544 1381 
z
M 1991 3584 
L 1991 3584 
z
" transform="scale(0.015625)"/>
       <path id="DejaVuSans-74" d="M 1172 4494 
L 1172 3500 
L 2356 3500 
L 2356 3053 
L 1172 3053 
L 1172 1153 
Q 1172 725 1289 603 
Q 1406 481 1766 481 
L 2356 481 
L 2356 0 
L 1766 0 
Q 1100 0 847 248 
Q 594 497 594 1153 
L 594 3053 
L 172 3053 
L 172 3500 
L 594 3500 
L 594 4494 
L 1172 4494 
z
" transform="scale(0.015625)"/>
       <path id="DejaVuSans-69" d="M 603 3500 
L 1178 3500 
L 1178 0 
L 603 0 
L 603 3500 
z
M 603 4863 
L 1178 4863 
L 1178 4134 
L 603 4134 
L 603 4863 
z
" transform="scale(0.015625)"/>
       <path id="DejaVuSans-6f" d="M 1959 3097 
Q 1497 3097 1228 2736 
Q 959 2375 959 1747 
Q 959 1119 1226 758 
Q 1494 397 1959 397 
Q 2419 397 2687 759 
Q 2956 1122 2956 1747 
Q 2956 2369 2687 2733 
Q 2419 3097 1959 3097 
z
M 1959 3584 
Q 2709 3584 3137 3096 
Q 3566 2609 3566 1747 
Q 3566 888 3137 398 
Q 2709 -91 1959 -91 
Q 1206 -91 779 398 
Q 353 888 353 1747 
Q 353 2609 779 3096 
Q 1206 3584 1959 3584 
z
" transform="scale(0.015625)"/>
       <path id="DejaVuSans-6e" d="M 3513 2113 
L 3513 0 
L 2938 0 
L 2938 2094 
Q 2938 2591 2744 2837 
Q 2550 3084 2163 3084 
Q 1697 3084 1428 2787 
Q 1159 2491 1159 1978 
L 1159 0 
L 581 0 
L 581 3500 
L 1159 3500 
L 1159 2956 
Q 1366 3272 1645 3428 
Q 1925 3584 2291 3584 
Q 2894 3584 3203 3211 
Q 3513 2838 3513 2113 
z
" transform="scale(0.015625)"/>
       <path id="DejaVuSans-6d" d="M 3328 2828 
Q 3544 3216 3844 3400 
Q 4144 3584 4550 3584 
Q 5097 3584 5394 3201 
Q 5691 2819 5691 2113 
L 5691 0 
L 5113 0 
L 5113 2094 
Q 5113 2597 4934 2840 
Q 4756 3084 4391 3084 
Q 3944 3084 3684 2787 
Q 3425 2491 3425 1978 
L 3425 0 
L 2847 0 
L 2847 2094 
Q 2847 2600 2669 2842 
Q 2491 3084 2119 3084 
Q 1678 3084 1418 2786 
Q 1159 2488 1159 1978 
L 1159 0 
L 581 0 
L 581 3500 
L 1159 3500 
L 1159 2956 
Q 1356 3278 1631 3431 
Q 1906 3584 2284 3584 
Q 2666 3584 2933 3390 
Q 3200 3197 3328 2828 
z
" transform="scale(0.015625)"/>
       <path id="DejaVuSans-62" d="M 3116 1747 
Q 3116 2381 2855 2742 
Q 2594 3103 2138 3103 
Q 1681 3103 1420 2742 
Q 1159 2381 1159 1747 
Q 1159 1113 1420 752 
Q 1681 391 2138 391 
Q 2594 391 2855 752 
Q 3116 1113 3116 1747 
z
M 1159 2969 
Q 1341 3281 1617 3432 
Q 1894 3584 2278 3584 
Q 2916 3584 3314 3078 
Q 3713 2572 3713 1747 
Q 3713 922 3314 415 
Q 2916 -91 2278 -91 
Q 1894 -91 1617 61 
Q 1341 213 1159 525 
L 1159 0 
L 581 0 
L 581 4863 
L 1159 4863 
L 1159 2969 
z
" transform="scale(0.015625)"/>
       <path id="DejaVuSans-77" d="M 269 3500 
L 844 3500 
L 1563 769 
L 2278 3500 
L 2956 3500 
L 3675 769 
L 4391 3500 
L 4966 3500 
L 4050 0 
L 3372 0 
L 2619 2869 
L 1863 0 
L 1184 0 
L 269 3500 
z
" transform="scale(0.015625)"/>
       <path id="DejaVuSans-28" d="M 1984 4856 
Q 1566 4138 1362 3434 
Q 1159 2731 1159 2009 
Q 1159 1288 1364 580 
Q 1569 -128 1984 -844 
L 1484 -844 
Q 1016 -109 783 600 
Q 550 1309 550 2009 
Q 550 2706 781 3412 
Q 1013 4119 1484 4856 
L 1984 4856 
z
" transform="scale(0.015625)"/>
       <path id="DejaVuSans-79" d="M 2059 -325 
Q 1816 -950 1584 -1140 
Q 1353 -1331 966 -1331 
L 506 -1331 
L 506 -850 
L 844 -850 
Q 1081 -850 1212 -737 
Q 1344 -625 1503 -206 
L 1606 56 
L 191 3500 
L 800 3500 
L 1894 763 
L 2988 3500 
L 3597 3500 
L 2059 -325 
z
" transform="scale(0.015625)"/>
       <path id="DejaVuSans-29" d="M 513 4856 
L 1013 4856 
Q 1481 4119 1714 3412 
Q 1947 2706 1947 2009 
Q 1947 1309 1714 600 
Q 1481 -109 1013 -844 
L 513 -844 
Q 928 -128 1133 580 
Q 1338 1288 1338 2009 
Q 1338 2731 1133 3434 
Q 928 4138 513 4856 
z
" transform="scale(0.015625)"/>
      </defs>
      <use xlink:href="#DejaVuSans-45"/>
      <use xlink:href="#DejaVuSans-78" x="63.183594"/>
      <use xlink:href="#DejaVuSans-65" x="119.238281"/>
      <use xlink:href="#DejaVuSans-63" x="180.761719"/>
      <use xlink:href="#DejaVuSans-75" x="235.742188"/>
      <use xlink:href="#DejaVuSans-74" x="299.121094"/>
      <use xlink:href="#DejaVuSans-69" x="338.330078"/>
      <use xlink:href="#DejaVuSans-6f" x="366.113281"/>
      <use xlink:href="#DejaVuSans-6e" x="427.294922"/>
      <use xlink:href="#DejaVuSans-20" x="490.673828"/>
      <use xlink:href="#DejaVuSans-74" x="522.460938"/>
      <use xlink:href="#DejaVuSans-69" x="561.669922"/>
      <use xlink:href="#DejaVuSans-6d" x="589.453125"/>
      <use xlink:href="#DejaVuSans-65" x="686.865234"/>
      <use xlink:href="#DejaVuSans-20" x="748.388672"/>
      <use xlink:href="#DejaVuSans-62" x="780.175781"/>
      <use xlink:href="#DejaVuSans-65" x="843.652344"/>
      <use xlink:href="#DejaVuSans-74" x="905.175781"/>
      <use xlink:href="#DejaVuSans-77" x="944.384766"/>
      <use xlink:href="#DejaVuSans-65" x="1026.171875"/>
      <use xlink:href="#DejaVuSans-65" x="1087.695312"/>
      <use xlink:href="#DejaVuSans-6e" x="1149.21875"/>
      <use xlink:href="#DejaVuSans-20" x="1212.597656"/>
      <use xlink:href="#DejaVuSans-53" x="1244.384766"/>
      <use xlink:href="#DejaVuSans-38" x="1307.861328"/>
      <use xlink:href="#DejaVuSans-20" x="1371.484375"/>
      <use xlink:href="#DejaVuSans-53" x="1403.271484"/>
      <use xlink:href="#DejaVuSans-39" x="1466.748047"/>
      <use xlink:href="#DejaVuSans-20" x="1530.371094"/>
      <use xlink:href="#DejaVuSans-28" x="1562.158203"/>
      <use xlink:href="#DejaVuSans-78" x="1601.171875"/>
      <use xlink:href="#DejaVuSans-78" x="1660.351562"/>
      <use xlink:href="#DejaVuSans-31" x="1719.53125"/>
      <use xlink:href="#DejaVuSans-78" x="1783.154297"/>
      <use xlink:href="#DejaVuSans-78" x="1842.333984"/>
      <use xlink:href="#DejaVuSans-31" x="1901.513672"/>
      <use xlink:href="#DejaVuSans-78" x="1965.136719"/>
      <use xlink:href="#DejaVuSans-78" x="2024.316406"/>
      <use xlink:href="#DejaVuSans-31" x="2083.496094"/>
      <use xlink:href="#DejaVuSans-78" x="2147.119141"/>
      <use xlink:href="#DejaVuSans-78" x="2206.298828"/>
      <use xlink:href="#DejaVuSans-30" x="2265.478516"/>
      <use xlink:href="#DejaVuSans-79" x="2329.101562"/>
      <use xlink:href="#DejaVuSans-79" x="2388.28125"/>
      <use xlink:href="#DejaVuSans-79" x="2447.460938"/>
      <use xlink:href="#DejaVuSans-38" x="2506.640625"/>
      <use xlink:href="#DejaVuSans-78" x="2570.263672"/>
      <use xlink:href="#DejaVuSans-78" x="2629.443359"/>
      <use xlink:href="#DejaVuSans-30" x="2688.623047"/>
      <use xlink:href="#DejaVuSans-79" x="2752.246094"/>
      <use xlink:href="#DejaVuSans-79" x="2811.425781"/>
      <use xlink:href="#DejaVuSans-79" x="2870.605469"/>
      <use xlink:href="#DejaVuSans-38" x="2929.785156"/>
      <use xlink:href="#DejaVuSans-78" x="2993.408203"/>
      <use xlink:href="#DejaVuSans-78" x="3052.587891"/>
      <use xlink:href="#DejaVuSans-30" x="3111.767578"/>
      <use xlink:href="#DejaVuSans-79" x="3175.390625"/>
      <use xlink:href="#DejaVuSans-79" x="3234.570312"/>
      <use xlink:href="#DejaVuSans-79" x="3293.75"/>
      <use xlink:href="#DejaVuSans-38" x="3352.929688"/>
      <use xlink:href="#DejaVuSans-78" x="3416.552734"/>
      <use xlink:href="#DejaVuSans-78" x="3475.732422"/>
      <use xlink:href="#DejaVuSans-30" x="3534.912109"/>
      <use xlink:href="#DejaVuSans-79" x="3598.535156"/>
      <use xlink:href="#DejaVuSans-79" x="3657.714844"/>
      <use xlink:href="#DejaVuSans-79" x="3716.894531"/>
      <use xlink:href="#DejaVuSans-38" x="3776.074219"/>
      <use xlink:href="#DejaVuSans-78" x="3839.697266"/>
      <use xlink:href="#DejaVuSans-78" x="3898.876953"/>
      <use xlink:href="#DejaVuSans-31" x="3958.056641"/>
      <use xlink:href="#DejaVuSans-78" x="4021.679688"/>
      <use xlink:href="#DejaVuSans-78" x="4080.859375"/>
      <use xlink:href="#DejaVuSans-31" x="4140.039062"/>
      <use xlink:href="#DejaVuSans-29" x="4203.662109"/>
     </g>
    </g>
    <g id="line2d_17">
     <path d="M 115.836563 298.836187 
L 121.836563 298.836187 
L 127.836563 298.836187 
" style="fill: none; stroke: #ff7f0e; stroke-width: 1.5; stroke-linecap: square"/>
    </g>
    <g id="text_16">
     <!-- Execution time between S8 S9 (xx1xx1xx2xx0yyy66xx0yyy66xx1yyy5xx0yyy3xx1xx1yyy5) -->
     <g transform="translate(132.636563 300.936187) scale(0.06 -0.06)">
      <use xlink:href="#DejaVuSans-45"/>
      <use xlink:href="#DejaVuSans-78" x="63.183594"/>
      <use xlink:href="#DejaVuSans-65" x="119.238281"/>
      <use xlink:href="#DejaVuSans-63" x="180.761719"/>
      <use xlink:href="#DejaVuSans-75" x="235.742188"/>
      <use xlink:href="#DejaVuSans-74" x="299.121094"/>
      <use xlink:href="#DejaVuSans-69" x="338.330078"/>
      <use xlink:href="#DejaVuSans-6f" x="366.113281"/>
      <use xlink:href="#DejaVuSans-6e" x="427.294922"/>
      <use xlink:href="#DejaVuSans-20" x="490.673828"/>
      <use xlink:href="#DejaVuSans-74" x="522.460938"/>
      <use xlink:href="#DejaVuSans-69" x="561.669922"/>
      <use xlink:href="#DejaVuSans-6d" x="589.453125"/>
      <use xlink:href="#DejaVuSans-65" x="686.865234"/>
      <use xlink:href="#DejaVuSans-20" x="748.388672"/>
      <use xlink:href="#DejaVuSans-62" x="780.175781"/>
      <use xlink:href="#DejaVuSans-65" x="843.652344"/>
      <use xlink:href="#DejaVuSans-74" x="905.175781"/>
      <use xlink:href="#DejaVuSans-77" x="944.384766"/>
      <use xlink:href="#DejaVuSans-65" x="1026.171875"/>
      <use xlink:href="#DejaVuSans-65" x="1087.695312"/>
      <use xlink:href="#DejaVuSans-6e" x="1149.21875"/>
      <use xlink:href="#DejaVuSans-20" x="1212.597656"/>
      <use xlink:href="#DejaVuSans-53" x="1244.384766"/>
      <use xlink:href="#DejaVuSans-38" x="1307.861328"/>
      <use xlink:href="#DejaVuSans-20" x="1371.484375"/>
      <use xlink:href="#DejaVuSans-53" x="1403.271484"/>
      <use xlink:href="#DejaVuSans-39" x="1466.748047"/>
      <use xlink:href="#DejaVuSans-20" x="1530.371094"/>
      <use xlink:href="#DejaVuSans-28" x="1562.158203"/>
      <use xlink:href="#DejaVuSans-78" x="1601.171875"/>
      <use xlink:href="#DejaVuSans-78" x="1660.351562"/>
      <use xlink:href="#DejaVuSans-31" x="1719.53125"/>
      <use xlink:href="#DejaVuSans-78" x="1783.154297"/>
      <use xlink:href="#DejaVuSans-78" x="1842.333984"/>
      <use xlink:href="#DejaVuSans-31" x="1901.513672"/>
      <use xlink:href="#DejaVuSans-78" x="1965.136719"/>
      <use xlink:href="#DejaVuSans-78" x="2024.316406"/>
      <use xlink:href="#DejaVuSans-32" x="2083.496094"/>
      <use xlink:href="#DejaVuSans-78" x="2147.119141"/>
      <use xlink:href="#DejaVuSans-78" x="2206.298828"/>
      <use xlink:href="#DejaVuSans-30" x="2265.478516"/>
      <use xlink:href="#DejaVuSans-79" x="2329.101562"/>
      <use xlink:href="#DejaVuSans-79" x="2388.28125"/>
      <use xlink:href="#DejaVuSans-79" x="2447.460938"/>
      <use xlink:href="#DejaVuSans-36" x="2506.640625"/>
      <use xlink:href="#DejaVuSans-36" x="2570.263672"/>
      <use xlink:href="#DejaVuSans-78" x="2633.886719"/>
      <use xlink:href="#DejaVuSans-78" x="2693.066406"/>
      <use xlink:href="#DejaVuSans-30" x="2752.246094"/>
      <use xlink:href="#DejaVuSans-79" x="2815.869141"/>
      <use xlink:href="#DejaVuSans-79" x="2875.048828"/>
      <use xlink:href="#DejaVuSans-79" x="2934.228516"/>
      <use xlink:href="#DejaVuSans-36" x="2993.408203"/>
      <use xlink:href="#DejaVuSans-36" x="3057.03125"/>
      <use xlink:href="#DejaVuSans-78" x="3120.654297"/>
      <use xlink:href="#DejaVuSans-78" x="3179.833984"/>
      <use xlink:href="#DejaVuSans-31" x="3239.013672"/>
      <use xlink:href="#DejaVuSans-79" x="3302.636719"/>
      <use xlink:href="#DejaVuSans-79" x="3361.816406"/>
      <use xlink:href="#DejaVuSans-79" x="3420.996094"/>
      <use xlink:href="#DejaVuSans-35" x="3480.175781"/>
      <use xlink:href="#DejaVuSans-78" x="3543.798828"/>
      <use xlink:href="#DejaVuSans-78" x="3602.978516"/>
      <use xlink:href="#DejaVuSans-30" x="3662.158203"/>
      <use xlink:href="#DejaVuSans-79" x="3725.78125"/>
      <use xlink:href="#DejaVuSans-79" x="3784.960938"/>
      <use xlink:href="#DejaVuSans-79" x="3844.140625"/>
      <use xlink:href="#DejaVuSans-33" x="3903.320312"/>
      <use xlink:href="#DejaVuSans-78" x="3966.943359"/>
      <use xlink:href="#DejaVuSans-78" x="4026.123047"/>
      <use xlink:href="#DejaVuSans-31" x="4085.302734"/>
      <use xlink:href="#DejaVuSans-78" x="4148.925781"/>
      <use xlink:href="#DejaVuSans-78" x="4208.105469"/>
      <use xlink:href="#DejaVuSans-31" x="4267.285156"/>
      <use xlink:href="#DejaVuSans-79" x="4330.908203"/>
      <use xlink:href="#DejaVuSans-79" x="4390.087891"/>
      <use xlink:href="#DejaVuSans-79" x="4449.267578"/>
      <use xlink:href="#DejaVuSans-35" x="4508.447266"/>
      <use xlink:href="#DejaVuSans-29" x="4572.070312"/>
     </g>
    </g>
   </g>
  </g>
 </g>
 <defs>
  <clipPath id="p91382b1934">
   <rect x="57.6" y="41.472" width="357.12" height="266.112"/>
  </clipPath>
 </defs>
</svg>
