<?xml version="1.0" encoding="utf-8" standalone="no"?>
<!DOCTYPE svg PUBLIC "-//W3C//DTD SVG 1.1//EN"
  "http://www.w3.org/Graphics/SVG/1.1/DTD/svg11.dtd">
<svg xmlns:xlink="http://www.w3.org/1999/xlink" width="460.8pt" height="345.6pt" viewBox="0 0 460.8 345.6" xmlns="http://www.w3.org/2000/svg" version="1.1">
 <metadata>
  <rdf:RDF xmlns:dc="http://purl.org/dc/elements/1.1/" xmlns:cc="http://creativecommons.org/ns#" xmlns:rdf="http://www.w3.org/1999/02/22-rdf-syntax-ns#">
   <cc:Work>
    <dc:type rdf:resource="http://purl.org/dc/dcmitype/StillImage"/>
    <dc:date>2024-03-08T11:04:52.854743</dc:date>
    <dc:format>image/svg+xml</dc:format>
    <dc:creator>
     <cc:Agent>
      <dc:title>Matplotlib v3.8.2, https://matplotlib.org/</dc:title>
     </cc:Agent>
    </dc:creator>
   </cc:Work>
  </rdf:RDF>
 </metadata>
 <defs>
  <style type="text/css">*{stroke-linejoin: round; stroke-linecap: butt}</style>
 </defs>
 <g id="figure_1">
  <g id="patch_1">
   <path d="M 0 345.6 
L 460.8 345.6 
L 460.8 0 
L 0 0 
z
" style="fill: #ffffff"/>
  </g>
  <g id="axes_1">
   <g id="patch_2">
    <path d="M 57.6 307.584 
L 414.72 307.584 
L 414.72 41.472 
L 57.6 41.472 
z
" style="fill: #ffffff"/>
   </g>
   <g id="matplotlib.axis_1">
    <g id="xtick_1">
     <g id="line2d_1">
      <defs>
       <path id="m881027a3ed" d="M 0 0 
L 0 3.5 
" style="stroke: #000000; stroke-width: 0.8"/>
      </defs>
      <g>
       <use xlink:href="#m881027a3ed" x="73.54659" y="307.584" style="stroke: #000000; stroke-width: 0.8"/>
      </g>
     </g>
     <g id="text_1">
      <!-- 0.0 -->
      <g transform="translate(65.595028 322.182437) scale(0.1 -0.1)">
       <defs>
        <path id="DejaVuSans-30" d="M 2034 4250 
Q 1547 4250 1301 3770 
Q 1056 3291 1056 2328 
Q 1056 1369 1301 889 
Q 1547 409 2034 409 
Q 2525 409 2770 889 
Q 3016 1369 3016 2328 
Q 3016 3291 2770 3770 
Q 2525 4250 2034 4250 
z
M 2034 4750 
Q 2819 4750 3233 4129 
Q 3647 3509 3647 2328 
Q 3647 1150 3233 529 
Q 2819 -91 2034 -91 
Q 1250 -91 836 529 
Q 422 1150 422 2328 
Q 422 3509 836 4129 
Q 1250 4750 2034 4750 
z
" transform="scale(0.015625)"/>
        <path id="DejaVuSans-2e" d="M 684 794 
L 1344 794 
L 1344 0 
L 684 0 
L 684 794 
z
" transform="scale(0.015625)"/>
       </defs>
       <use xlink:href="#DejaVuSans-30"/>
       <use xlink:href="#DejaVuSans-2e" x="63.623047"/>
       <use xlink:href="#DejaVuSans-30" x="95.410156"/>
      </g>
     </g>
    </g>
    <g id="xtick_2">
     <g id="line2d_2">
      <g>
       <use xlink:href="#m881027a3ed" x="118.67862" y="307.584" style="stroke: #000000; stroke-width: 0.8"/>
      </g>
     </g>
     <g id="text_2">
      <!-- 0.5 -->
      <g transform="translate(110.727057 322.182437) scale(0.1 -0.1)">
       <defs>
        <path id="DejaVuSans-35" d="M 691 4666 
L 3169 4666 
L 3169 4134 
L 1269 4134 
L 1269 2991 
Q 1406 3038 1543 3061 
Q 1681 3084 1819 3084 
Q 2600 3084 3056 2656 
Q 3513 2228 3513 1497 
Q 3513 744 3044 326 
Q 2575 -91 1722 -91 
Q 1428 -91 1123 -41 
Q 819 9 494 109 
L 494 744 
Q 775 591 1075 516 
Q 1375 441 1709 441 
Q 2250 441 2565 725 
Q 2881 1009 2881 1497 
Q 2881 1984 2565 2268 
Q 2250 2553 1709 2553 
Q 1456 2553 1204 2497 
Q 953 2441 691 2322 
L 691 4666 
z
" transform="scale(0.015625)"/>
       </defs>
       <use xlink:href="#DejaVuSans-30"/>
       <use xlink:href="#DejaVuSans-2e" x="63.623047"/>
       <use xlink:href="#DejaVuSans-35" x="95.410156"/>
      </g>
     </g>
    </g>
    <g id="xtick_3">
     <g id="line2d_3">
      <g>
       <use xlink:href="#m881027a3ed" x="163.810649" y="307.584" style="stroke: #000000; stroke-width: 0.8"/>
      </g>
     </g>
     <g id="text_3">
      <!-- 1.0 -->
      <g transform="translate(155.859086 322.182437) scale(0.1 -0.1)">
       <defs>
        <path id="DejaVuSans-31" d="M 794 531 
L 1825 531 
L 1825 4091 
L 703 3866 
L 703 4441 
L 1819 4666 
L 2450 4666 
L 2450 531 
L 3481 531 
L 3481 0 
L 794 0 
L 794 531 
z
" transform="scale(0.015625)"/>
       </defs>
       <use xlink:href="#DejaVuSans-31"/>
       <use xlink:href="#DejaVuSans-2e" x="63.623047"/>
       <use xlink:href="#DejaVuSans-30" x="95.410156"/>
      </g>
     </g>
    </g>
    <g id="xtick_4">
     <g id="line2d_4">
      <g>
       <use xlink:href="#m881027a3ed" x="208.942678" y="307.584" style="stroke: #000000; stroke-width: 0.8"/>
      </g>
     </g>
     <g id="text_4">
      <!-- 1.5 -->
      <g transform="translate(200.991116 322.182437) scale(0.1 -0.1)">
       <use xlink:href="#DejaVuSans-31"/>
       <use xlink:href="#DejaVuSans-2e" x="63.623047"/>
       <use xlink:href="#DejaVuSans-35" x="95.410156"/>
      </g>
     </g>
    </g>
    <g id="xtick_5">
     <g id="line2d_5">
      <g>
       <use xlink:href="#m881027a3ed" x="254.074708" y="307.584" style="stroke: #000000; stroke-width: 0.8"/>
      </g>
     </g>
     <g id="text_5">
      <!-- 2.0 -->
      <g transform="translate(246.123145 322.182437) scale(0.1 -0.1)">
       <defs>
        <path id="DejaVuSans-32" d="M 1228 531 
L 3431 531 
L 3431 0 
L 469 0 
L 469 531 
Q 828 903 1448 1529 
Q 2069 2156 2228 2338 
Q 2531 2678 2651 2914 
Q 2772 3150 2772 3378 
Q 2772 3750 2511 3984 
Q 2250 4219 1831 4219 
Q 1534 4219 1204 4116 
Q 875 4013 500 3803 
L 500 4441 
Q 881 4594 1212 4672 
Q 1544 4750 1819 4750 
Q 2544 4750 2975 4387 
Q 3406 4025 3406 3419 
Q 3406 3131 3298 2873 
Q 3191 2616 2906 2266 
Q 2828 2175 2409 1742 
Q 1991 1309 1228 531 
z
" transform="scale(0.015625)"/>
       </defs>
       <use xlink:href="#DejaVuSans-32"/>
       <use xlink:href="#DejaVuSans-2e" x="63.623047"/>
       <use xlink:href="#DejaVuSans-30" x="95.410156"/>
      </g>
     </g>
    </g>
    <g id="xtick_6">
     <g id="line2d_6">
      <g>
       <use xlink:href="#m881027a3ed" x="299.206737" y="307.584" style="stroke: #000000; stroke-width: 0.8"/>
      </g>
     </g>
     <g id="text_6">
      <!-- 2.5 -->
      <g transform="translate(291.255175 322.182437) scale(0.1 -0.1)">
       <use xlink:href="#DejaVuSans-32"/>
       <use xlink:href="#DejaVuSans-2e" x="63.623047"/>
       <use xlink:href="#DejaVuSans-35" x="95.410156"/>
      </g>
     </g>
    </g>
    <g id="xtick_7">
     <g id="line2d_7">
      <g>
       <use xlink:href="#m881027a3ed" x="344.338767" y="307.584" style="stroke: #000000; stroke-width: 0.8"/>
      </g>
     </g>
     <g id="text_7">
      <!-- 3.0 -->
      <g transform="translate(336.387204 322.182437) scale(0.1 -0.1)">
       <defs>
        <path id="DejaVuSans-33" d="M 2597 2516 
Q 3050 2419 3304 2112 
Q 3559 1806 3559 1356 
Q 3559 666 3084 287 
Q 2609 -91 1734 -91 
Q 1441 -91 1130 -33 
Q 819 25 488 141 
L 488 750 
Q 750 597 1062 519 
Q 1375 441 1716 441 
Q 2309 441 2620 675 
Q 2931 909 2931 1356 
Q 2931 1769 2642 2001 
Q 2353 2234 1838 2234 
L 1294 2234 
L 1294 2753 
L 1863 2753 
Q 2328 2753 2575 2939 
Q 2822 3125 2822 3475 
Q 2822 3834 2567 4026 
Q 2313 4219 1838 4219 
Q 1578 4219 1281 4162 
Q 984 4106 628 3988 
L 628 4550 
Q 988 4650 1302 4700 
Q 1616 4750 1894 4750 
Q 2613 4750 3031 4423 
Q 3450 4097 3450 3541 
Q 3450 3153 3228 2886 
Q 3006 2619 2597 2516 
z
" transform="scale(0.015625)"/>
       </defs>
       <use xlink:href="#DejaVuSans-33"/>
       <use xlink:href="#DejaVuSans-2e" x="63.623047"/>
       <use xlink:href="#DejaVuSans-30" x="95.410156"/>
      </g>
     </g>
    </g>
    <g id="xtick_8">
     <g id="line2d_8">
      <g>
       <use xlink:href="#m881027a3ed" x="389.470796" y="307.584" style="stroke: #000000; stroke-width: 0.8"/>
      </g>
     </g>
     <g id="text_8">
      <!-- 3.5 -->
      <g transform="translate(381.519233 322.182437) scale(0.1 -0.1)">
       <use xlink:href="#DejaVuSans-33"/>
       <use xlink:href="#DejaVuSans-2e" x="63.623047"/>
       <use xlink:href="#DejaVuSans-35" x="95.410156"/>
      </g>
     </g>
    </g>
    <g id="text_9">
     <!-- 1e6 -->
     <g transform="translate(395.841875 334.860562) scale(0.1 -0.1)">
      <defs>
       <path id="DejaVuSans-65" d="M 3597 1894 
L 3597 1613 
L 953 1613 
Q 991 1019 1311 708 
Q 1631 397 2203 397 
Q 2534 397 2845 478 
Q 3156 559 3463 722 
L 3463 178 
Q 3153 47 2828 -22 
Q 2503 -91 2169 -91 
Q 1331 -91 842 396 
Q 353 884 353 1716 
Q 353 2575 817 3079 
Q 1281 3584 2069 3584 
Q 2775 3584 3186 3129 
Q 3597 2675 3597 1894 
z
M 3022 2063 
Q 3016 2534 2758 2815 
Q 2500 3097 2075 3097 
Q 1594 3097 1305 2825 
Q 1016 2553 972 2059 
L 3022 2063 
z
" transform="scale(0.015625)"/>
       <path id="DejaVuSans-36" d="M 2113 2584 
Q 1688 2584 1439 2293 
Q 1191 2003 1191 1497 
Q 1191 994 1439 701 
Q 1688 409 2113 409 
Q 2538 409 2786 701 
Q 3034 994 3034 1497 
Q 3034 2003 2786 2293 
Q 2538 2584 2113 2584 
z
M 3366 4563 
L 3366 3988 
Q 3128 4100 2886 4159 
Q 2644 4219 2406 4219 
Q 1781 4219 1451 3797 
Q 1122 3375 1075 2522 
Q 1259 2794 1537 2939 
Q 1816 3084 2150 3084 
Q 2853 3084 3261 2657 
Q 3669 2231 3669 1497 
Q 3669 778 3244 343 
Q 2819 -91 2113 -91 
Q 1303 -91 875 529 
Q 447 1150 447 2328 
Q 447 3434 972 4092 
Q 1497 4750 2381 4750 
Q 2619 4750 2861 4703 
Q 3103 4656 3366 4563 
z
" transform="scale(0.015625)"/>
      </defs>
      <use xlink:href="#DejaVuSans-31"/>
      <use xlink:href="#DejaVuSans-65" x="63.623047"/>
      <use xlink:href="#DejaVuSans-36" x="125.146484"/>
     </g>
    </g>
   </g>
   <g id="matplotlib.axis_2">
    <g id="ytick_1">
     <g id="line2d_9">
      <defs>
       <path id="m477e425650" d="M 0 0 
L -3.5 0 
" style="stroke: #000000; stroke-width: 0.8"/>
      </defs>
      <g>
       <use xlink:href="#m477e425650" x="57.6" y="295.488" style="stroke: #000000; stroke-width: 0.8"/>
      </g>
     </g>
     <g id="text_10">
      <!-- 0 -->
      <g transform="translate(44.2375 299.287219) scale(0.1 -0.1)">
       <use xlink:href="#DejaVuSans-30"/>
      </g>
     </g>
    </g>
    <g id="ytick_2">
     <g id="line2d_10">
      <g>
       <use xlink:href="#m477e425650" x="57.6" y="240.506182" style="stroke: #000000; stroke-width: 0.8"/>
      </g>
     </g>
     <g id="text_11">
      <!-- 5 -->
      <g transform="translate(44.2375 244.305401) scale(0.1 -0.1)">
       <use xlink:href="#DejaVuSans-35"/>
      </g>
     </g>
    </g>
    <g id="ytick_3">
     <g id="line2d_11">
      <g>
       <use xlink:href="#m477e425650" x="57.6" y="185.524364" style="stroke: #000000; stroke-width: 0.8"/>
      </g>
     </g>
     <g id="text_12">
      <!-- 10 -->
      <g transform="translate(37.875 189.323582) scale(0.1 -0.1)">
       <use xlink:href="#DejaVuSans-31"/>
       <use xlink:href="#DejaVuSans-30" x="63.623047"/>
      </g>
     </g>
    </g>
    <g id="ytick_4">
     <g id="line2d_12">
      <g>
       <use xlink:href="#m477e425650" x="57.6" y="130.542545" style="stroke: #000000; stroke-width: 0.8"/>
      </g>
     </g>
     <g id="text_13">
      <!-- 15 -->
      <g transform="translate(37.875 134.341764) scale(0.1 -0.1)">
       <use xlink:href="#DejaVuSans-31"/>
       <use xlink:href="#DejaVuSans-35" x="63.623047"/>
      </g>
     </g>
    </g>
    <g id="ytick_5">
     <g id="line2d_13">
      <g>
       <use xlink:href="#m477e425650" x="57.6" y="75.560727" style="stroke: #000000; stroke-width: 0.8"/>
      </g>
     </g>
     <g id="text_14">
      <!-- 20 -->
      <g transform="translate(37.875 79.359946) scale(0.1 -0.1)">
       <use xlink:href="#DejaVuSans-32"/>
       <use xlink:href="#DejaVuSans-30" x="63.623047"/>
      </g>
     </g>
    </g>
   </g>
   <g id="line2d_14">
    <path d="M 73.832727 284.491636 
L 74.051166 295.488 
L 74.147749 284.491636 
L 74.366188 295.488 
L 74.461868 284.491636 
L 74.680307 295.488 
L 74.776889 284.491636 
L 74.995328 295.488 
L 75.098229 284.491636 
L 75.316668 295.488 
L 75.413251 284.491636 
L 75.63169 295.488 
L 75.726467 284.491636 
L 75.944906 295.488 
L 76.040586 284.491636 
L 76.259025 295.488 
L 76.361024 284.491636 
L 76.579463 295.488 
L 76.679656 284.491636 
L 76.898095 295.488 
L 76.99558 284.491636 
L 77.214019 295.488 
L 77.312407 284.491636 
L 77.530846 295.488 
L 77.631039 284.491636 
L 77.849478 295.488 
L 77.950574 284.491636 
L 78.169013 295.488 
L 78.271011 284.491636 
L 78.488547 295.488 
L 78.581519 284.491636 
L 78.799958 295.488 
L 78.901054 284.491636 
L 84.384596 273.495273 
L 84.601229 196.520727 
L 84.631919 207.517091 
L 84.850358 295.488 
L 84.906322 284.491636 
L 85.124761 295.488 
L 85.214122 284.491636 
L 85.432561 295.488 
L 85.530047 284.491636 
L 85.748486 295.488 
L 85.84236 284.491636 
L 86.059897 295.488 
L 86.16009 284.491636 
L 86.378529 295.488 
L 86.475111 284.491636 
L 86.69355 295.488 
L 86.791036 284.491636 
L 87.008572 295.488 
L 87.11057 284.491636 
L 87.329009 295.488 
L 87.430105 284.491636 
L 87.647641 295.488 
L 87.746029 284.491636 
L 87.963566 295.488 
L 88.064661 284.491636 
L 88.282198 295.488 
L 88.379683 284.491636 
L 88.597219 295.488 
L 88.695607 284.491636 
L 88.914046 295.488 
L 89.005213 284.491636 
L 89.223652 295.488 
L 89.32204 284.491636 
L 89.539576 295.488 
L 89.635256 284.491636 
L 89.853695 295.488 
L 89.94757 284.491636 
L 90.166009 295.488 
L 90.268007 284.491636 
L 90.485543 295.488 
L 90.575808 284.491636 
L 90.794247 295.488 
L 90.889926 284.491636 
L 91.108365 295.488 
L 91.205851 284.491636 
L 91.42429 295.488 
L 91.528996 284.491636 
L 91.747435 295.488 
L 91.843115 284.491636 
L 92.061554 295.488 
L 92.155429 284.491636 
L 92.373868 295.488 
L 92.465937 284.491636 
L 92.684376 295.488 
L 92.780056 284.491636 
L 92.998495 295.488 
L 93.095077 284.491636 
L 93.313516 295.488 
L 93.406488 284.491636 
L 93.624025 295.488 
L 93.720607 284.491636 
L 93.939046 295.488 
L 94.039239 284.491636 
L 94.257678 295.488 
L 94.358774 284.491636 
L 94.576311 295.488 
L 94.671991 284.491636 
L 94.889527 295.488 
L 94.990623 284.491636 
L 95.209062 295.488 
L 95.305644 284.491636 
L 95.524083 295.488 
L 95.624276 284.491636 
L 95.842715 295.488 
L 95.937493 284.491636 
L 96.155932 295.488 
L 96.255222 284.491636 
L 96.473661 295.488 
L 96.57566 284.491636 
L 96.793196 295.488 
L 96.886168 284.491636 
L 97.103704 295.488 
L 97.198482 284.491636 
L 97.416921 295.488 
L 97.514406 284.491636 
L 97.731942 295.488 
L 97.822206 284.491636 
L 98.040645 295.488 
L 98.144449 284.491636 
L 98.362888 295.488 
L 98.453152 284.491636 
L 98.671591 295.488 
L 98.776297 284.491636 
L 98.993834 295.488 
L 99.09854 284.491636 
L 99.316979 295.488 
L 99.41988 284.491636 
L 99.637416 295.488 
L 99.74122 284.491636 
L 99.958756 295.488 
L 100.054436 284.491636 
L 100.272875 295.488 
L 100.370361 284.491636 
L 100.5888 295.488 
L 100.691701 284.491636 
L 100.909237 295.488 
L 101.008527 284.491636 
L 101.226966 295.488 
L 101.32716 284.491636 
L 101.545599 295.488 
L 101.637668 284.491636 
L 101.856107 295.488 
L 101.947274 284.491636 
L 102.16481 295.488 
L 102.263198 284.491636 
L 102.481637 295.488 
L 102.577317 284.491636 
L 102.795756 295.488 
L 102.901365 284.491636 
L 103.119804 295.488 
L 103.217289 284.491636 
L 103.435728 295.488 
L 103.535018 284.491636 
L 103.753457 295.488 
L 103.850943 284.491636 
L 104.069382 295.488 
L 104.170477 284.491636 
L 104.388916 295.488 
L 104.486402 284.491636 
L 104.704841 295.488 
L 104.797813 284.491636 
L 105.016252 295.488 
L 105.116445 284.491636 
L 105.334884 295.488 
L 105.435077 284.491636 
L 105.653516 295.488 
L 105.749196 284.491636 
L 105.967635 295.488 
L 106.068731 284.491636 
L 106.28717 295.488 
L 106.387363 284.491636 
L 106.605802 295.488 
L 106.706897 284.491636 
L 106.925336 295.488 
L 107.021919 284.491636 
L 107.240358 295.488 
L 107.334233 284.491636 
L 107.552672 295.488 
L 107.648352 284.491636 
L 107.866791 295.488 
L 107.967886 284.491636 
L 108.185423 295.488 
L 108.2802 284.491636 
L 108.498639 295.488 
L 108.593416 284.491636 
L 108.810953 295.488 
L 108.903925 284.491636 
L 109.122364 295.488 
L 109.221654 284.491636 
L 109.440093 295.488 
L 109.53487 284.491636 
L 109.753309 295.488 
L 109.854405 284.491636 
L 110.072844 295.488 
L 110.172135 284.491636 
L 110.390574 295.488 
L 111.066652 284.491636 
L 111.284188 295.488 
L 111.287798 284.491636 
L 111.506237 295.488 
L 111.516167 284.491636 
L 111.734606 295.488 
L 111.739119 284.491636 
L 111.957558 295.488 
L 111.962974 284.491636 
L 112.181413 295.488 
L 112.186828 284.491636 
L 112.405268 295.488 
L 112.407073 284.491636 
L 112.625512 295.488 
L 112.630928 284.491636 
L 112.848464 295.488 
L 112.852977 284.491636 
L 113.070514 295.488 
L 113.075929 284.491636 
L 113.294368 295.488 
L 113.306103 284.491636 
L 113.524542 295.488 
L 113.533568 284.491636 
L 113.752007 295.488 
L 113.763742 284.491636 
L 113.981278 295.488 
L 113.989402 284.491636 
L 114.206938 295.488 
L 114.218672 284.491636 
L 114.437111 295.488 
L 114.447943 284.491636 
L 114.66548 295.488 
L 114.672701 284.491636 
L 114.89114 295.488 
L 114.899263 284.491636 
L 115.1168 295.488 
L 115.124021 284.491636 
L 115.34246 295.488 
L 115.352389 284.491636 
L 115.570828 295.488 
L 115.578952 284.491636 
L 115.796488 295.488 
L 115.802807 284.491636 
L 116.021246 295.488 
L 116.027564 284.491636 
L 116.246003 295.488 
L 116.257738 284.491636 
L 116.476177 295.488 
L 116.481592 284.491636 
L 116.700031 295.488 
L 116.705447 284.491636 
L 117.14052 273.495273 
L 122.302722 262.498909 
L 122.516647 108.549818 
L 122.547337 130.542545 
L 122.681831 240.506182 
L 123.027542 218.513455 
L 125.044041 119.546182 
L 125.474601 108.549818 
L 127.850351 119.546182 
L 127.966791 108.549818 
L 128.130169 218.513455 
L 128.22946 284.491636 
L 128.420819 295.488 
L 128.42443 284.491636 
L 128.641966 295.488 
L 128.647382 284.491636 
L 128.865821 295.488 
L 128.873042 284.491636 
L 129.090579 295.488 
L 129.10141 284.491636 
L 129.319849 295.488 
L 129.327973 284.491636 
L 129.546412 295.488 
L 129.54912 284.491636 
L 129.767559 295.488 
L 129.776586 284.491636 
L 129.995025 295.488 
L 130.007662 284.491636 
L 130.225198 295.488 
L 130.232419 284.491636 
L 130.449955 295.488 
L 130.460787 284.491636 
L 130.679226 295.488 
L 130.688253 284.491636 
L 130.905789 295.488 
L 130.914815 284.491636 
L 131.132352 295.488 
L 131.140476 284.491636 
L 131.358915 295.488 
L 131.359817 284.491636 
L 131.578256 295.488 
L 131.588185 284.491636 
L 131.806624 295.488 
L 131.811138 284.491636 
L 132.028674 295.488 
L 132.03409 284.491636 
L 132.252529 295.488 
L 132.26336 284.491636 
L 132.481799 295.488 
L 132.490826 284.491636 
L 132.709265 295.488 
L 132.718291 284.491636 
L 132.93673 295.488 
L 132.942146 284.491636 
L 133.160585 295.488 
L 133.166904 284.491636 
L 133.38444 295.488 
L 133.392564 284.491636 
L 133.6101 295.488 
L 133.617321 284.491636 
L 133.834858 295.488 
L 133.839371 284.491636 
L 134.056907 295.488 
L 134.059615 284.491636 
L 134.278054 295.488 
L 134.287983 284.491636 
L 134.506422 295.488 
L 134.50913 284.491636 
L 134.727569 295.488 
L 134.73479 284.491636 
L 134.953229 295.488 
L 134.957743 284.491636 
L 135.176182 295.488 
L 135.1825 284.491636 
L 135.400939 295.488 
L 135.407258 284.491636 
L 135.624794 295.488 
L 135.628405 284.491636 
L 135.846844 295.488 
L 135.853162 284.491636 
L 136.071601 295.488 
L 136.07792 284.491636 
L 136.296359 295.488 
L 136.301774 284.491636 
L 136.519311 295.488 
L 136.525629 284.491636 
L 136.744068 295.488 
L 136.750387 284.491636 
L 136.967923 295.488 
L 136.974242 284.491636 
L 137.191778 295.488 
L 137.203512 284.491636 
L 137.421951 295.488 
L 137.430978 284.491636 
L 137.648514 295.488 
L 137.654833 284.491636 
L 137.872369 295.488 
L 137.87598 284.491636 
L 138.094419 295.488 
L 138.104348 284.491636 
L 138.322787 295.488 
L 138.333618 284.491636 
L 138.552057 295.488 
L 138.558376 284.491636 
L 138.775912 295.488 
L 138.782231 284.491636 
L 138.999767 295.488 
L 139.012404 284.491636 
L 139.230843 295.488 
L 139.238064 284.491636 
L 139.456503 295.488 
L 139.458309 284.491636 
L 139.676748 295.488 
L 139.687579 284.491636 
L 139.906018 295.488 
L 139.910531 284.491636 
L 140.128068 295.488 
L 140.137997 284.491636 
L 140.356436 295.488 
L 140.359144 284.491636 
L 140.577583 295.488 
L 140.581193 284.491636 
L 140.799632 295.488 
L 140.811367 284.491636 
L 141.028903 295.488 
L 141.040638 284.491636 
L 141.259077 295.488 
L 141.264492 284.491636 
L 141.482931 295.488 
L 141.495568 284.491636 
L 141.714007 295.488 
L 141.723034 284.491636 
L 141.94057 295.488 
L 141.945986 284.491636 
L 142.164425 295.488 
L 142.171646 284.491636 
L 142.390085 295.488 
L 142.392793 284.491636 
L 142.611232 295.488 
L 142.622966 284.491636 
L 142.841405 295.488 
L 142.848627 284.491636 
L 143.067066 295.488 
L 143.075189 284.491636 
L 143.293628 295.488 
L 143.30446 284.491636 
L 143.521996 295.488 
L 143.528315 284.491636 
L 143.745851 295.488 
L 143.753072 284.491636 
L 143.970609 295.488 
L 143.975122 284.491636 
L 144.193561 295.488 
L 144.201685 284.491636 
L 144.420124 295.488 
L 144.42915 284.491636 
L 144.647589 295.488 
L 144.655713 284.491636 
L 144.874152 295.488 
L 144.884081 284.491636 
L 145.10252 295.488 
L 145.111547 284.491636 
L 145.329083 295.488 
L 145.338109 284.491636 
L 145.556548 295.488 
L 145.563769 284.491636 
L 145.782209 295.488 
L 145.785819 284.491636 
L 146.004258 295.488 
L 146.013285 284.491636 
L 146.231724 295.488 
L 146.237139 284.491636 
L 146.454676 295.488 
L 146.460994 284.491636 
L 146.679433 295.488 
L 146.686654 284.491636 
L 146.911412 273.495273 
L 147.110895 284.491636 
L 147.136169 273.495273 
L 149.169819 174.528 
L 149.602183 163.531636 
L 154.794172 174.528 
L 154.9061 163.531636 
L 154.915126 174.528 
L 154.973798 130.542545 
L 155.000877 108.549818 
L 155.056841 152.535273 
L 155.165157 240.506182 
L 155.24459 229.509818 
L 157.508412 119.546182 
L 157.938972 108.549818 
L 171.03719 119.546182 
L 171.152728 108.549818 
L 171.276389 130.542545 
L 171.279097 119.546182 
L 171.371167 196.520727 
L 171.411785 229.509818 
L 171.513784 218.513455 
L 173.535699 119.546182 
L 173.965356 108.549818 
L 176.593845 119.546182 
L 176.710286 108.549818 
L 176.873664 207.517091 
L 176.986494 284.491636 
L 177.14265 295.488 
L 177.151677 284.491636 
L 177.370116 295.488 
L 177.375532 284.491636 
L 177.593971 295.488 
L 177.600289 284.491636 
L 177.818728 295.488 
L 177.824144 284.491636 
L 178.042583 295.488 
L 178.044388 284.491636 
L 178.261925 295.488 
L 178.268243 284.491636 
L 178.486682 295.488 
L 178.497514 284.491636 
L 178.71505 295.488 
L 178.724979 284.491636 
L 178.943418 295.488 
L 178.951542 284.491636 
L 179.169981 295.488 
L 179.178105 284.491636 
L 179.395641 295.488 
L 179.403765 284.491636 
L 179.622204 295.488 
L 179.62762 284.491636 
L 179.845156 295.488 
L 179.851475 284.491636 
L 180.069011 295.488 
L 180.080746 284.491636 
L 180.299185 295.488 
L 180.308211 284.491636 
L 180.52665 295.488 
L 180.530261 284.491636 
L 180.747797 295.488 
L 180.75231 284.491636 
L 180.969847 295.488 
L 180.976165 284.491636 
L 181.194604 295.488 
L 181.197312 284.491636 
L 181.415751 295.488 
L 181.422069 284.491636 
L 181.640509 295.488 
L 181.646827 284.491636 
L 181.865266 295.488 
L 181.87339 284.491636 
L 182.091829 295.488 
L 182.104466 284.491636 
L 182.322905 295.488 
L 182.327418 284.491636 
L 182.544954 295.488 
L 182.552175 284.491636 
L 182.769712 295.488 
L 182.777836 284.491636 
L 182.996275 295.488 
L 182.999885 284.491636 
L 183.217422 295.488 
L 183.230059 284.491636 
L 183.448498 295.488 
L 183.456621 284.491636 
L 183.67506 295.488 
L 183.676866 284.491636 
L 183.895305 295.488 
L 183.898915 284.491636 
L 184.117354 295.488 
L 184.124575 284.491636 
L 184.343014 295.488 
L 184.347528 284.491636 
L 184.565967 295.488 
L 184.568675 284.491636 
L 184.786211 295.488 
L 184.789822 284.491636 
L 185.008261 295.488 
L 185.016384 284.491636 
L 185.233921 295.488 
L 185.239337 284.491636 
L 185.457776 295.488 
L 185.460483 284.491636 
L 185.678922 295.488 
L 185.680728 284.491636 
L 185.898264 295.488 
L 185.907291 284.491636 
L 186.12573 295.488 
L 186.138367 284.491636 
L 186.355903 295.488 
L 186.363124 284.491636 
L 186.58066 295.488 
L 186.587882 284.491636 
L 186.806321 295.488 
L 186.811736 284.491636 
L 187.030175 295.488 
L 187.035591 284.491636 
L 187.253128 295.488 
L 187.259446 284.491636 
L 187.477885 295.488 
L 187.485106 284.491636 
L 187.703545 295.488 
L 187.709864 284.491636 
L 187.928303 295.488 
L 187.931011 284.491636 
L 188.14945 295.488 
L 188.158476 284.491636 
L 188.376013 295.488 
L 188.385039 284.491636 
L 188.603478 295.488 
L 188.608894 284.491636 
L 188.827333 295.488 
L 189.711921 284.491636 
L 189.929457 295.488 
L 190.027845 284.491636 
L 190.246284 295.488 
L 190.348282 284.491636 
L 190.566721 295.488 
L 190.666012 284.491636 
L 190.884451 295.488 
L 190.977423 284.491636 
L 191.194959 295.488 
L 191.296958 284.491636 
L 191.515397 295.488 
L 191.611076 284.491636 
L 191.829515 295.488 
L 191.924293 284.491636 
L 192.141829 295.488 
L 192.238412 284.491636 
L 192.455948 295.488 
L 192.558849 284.491636 
L 192.777288 295.488 
L 192.874773 284.491636 
L 193.09231 295.488 
L 193.1916 284.491636 
L 193.410039 295.488 
L 193.512038 284.491636 
L 193.730477 295.488 
L 193.824351 284.491636 
L 194.04279 295.488 
L 194.142081 284.491636 
L 194.36052 295.488 
L 194.452589 284.491636 
L 194.671028 295.488 
L 194.766708 284.491636 
L 194.985147 295.488 
L 195.079924 284.491636 
L 195.297461 295.488 
L 195.398556 284.491636 
L 195.616995 295.488 
L 195.704552 284.491636 
L 195.922088 295.488 
L 196.024989 284.491636 
L 196.243428 295.488 
L 196.342718 284.491636 
L 196.561157 295.488 
L 196.65774 284.491636 
L 196.876179 295.488 
L 196.971859 284.491636 
L 197.189395 295.488 
L 197.282367 284.491636 
L 197.500806 295.488 
L 197.600999 284.491636 
L 197.819438 295.488 
L 197.916924 284.491636 
L 203.533153 273.495273 
L 208.948997 262.498909 
L 208.96705 273.495273 
L 209.004058 251.502545 
L 209.165631 185.524364 
L 209.197223 196.520727 
L 209.468918 284.491636 
L 209.562792 273.495273 
L 209.780329 284.491636 
L 209.872398 273.495273 
L 210.090837 284.491636 
L 210.182907 273.495273 
L 210.400443 284.491636 
L 210.498831 273.495273 
L 210.71727 284.491636 
L 210.810242 273.495273 
L 211.028681 284.491636 
L 211.128874 273.495273 
L 211.347313 284.491636 
L 211.435772 273.495273 
L 211.654211 284.491636 
L 211.743572 273.495273 
L 211.962011 284.491636 
L 212.061302 273.495273 
L 212.279741 284.491636 
L 212.376323 273.495273 
L 212.594762 284.491636 
L 212.685026 273.495273 
L 212.902563 284.491636 
L 213.000048 273.495273 
L 213.217584 284.491636 
L 213.311459 273.495273 
L 213.529898 284.491636 
L 213.628286 273.495273 
L 213.846725 284.491636 
L 213.946918 273.495273 
L 214.165357 284.491636 
L 214.266453 273.495273 
L 214.483989 284.491636 
L 214.582377 273.495273 
L 214.799913 284.491636 
L 214.907327 273.495273 
L 215.124864 284.491636 
L 215.226862 273.495273 
L 215.445301 284.491636 
L 215.540078 273.495273 
L 215.758517 284.491636 
L 215.857808 273.495273 
L 216.076247 284.491636 
L 216.179148 273.495273 
L 216.397587 284.491636 
L 216.496877 273.495273 
L 216.714414 284.491636 
L 216.817315 273.495273 
L 217.035754 284.491636 
L 217.132336 273.495273 
L 217.350775 284.491636 
L 217.451871 273.495273 
L 217.669408 284.491636 
L 217.76599 273.495273 
L 217.984429 284.491636 
L 218.082817 273.495273 
L 218.300353 284.491636 
L 218.404157 273.495273 
L 218.622596 284.491636 
L 218.727302 273.495273 
L 218.945741 284.491636 
L 219.040519 273.495273 
L 219.258958 284.491636 
L 219.366372 273.495273 
L 219.584811 284.491636 
L 219.685907 273.495273 
L 219.904346 284.491636 
L 220.008149 273.495273 
L 220.226588 284.491636 
L 220.325879 273.495273 
L 220.544318 284.491636 
L 220.635485 273.495273 
L 220.853021 284.491636 
L 220.942382 273.495273 
L 221.160821 284.491636 
L 221.258307 273.495273 
L 221.475843 284.491636 
L 221.576036 273.495273 
L 221.793572 284.491636 
L 221.887447 273.495273 
L 222.105886 284.491636 
L 222.200663 273.495273 
L 222.4182 284.491636 
L 222.518393 273.495273 
L 222.735929 284.491636 
L 222.841538 273.495273 
L 223.059075 284.491636 
L 223.161976 273.495273 
L 223.380415 284.491636 
L 223.479705 273.495273 
L 223.698144 284.491636 
L 223.794727 273.495273 
L 224.013166 284.491636 
L 224.113359 273.495273 
L 224.331798 284.491636 
L 224.423867 273.495273 
L 224.642306 284.491636 
L 224.737986 273.495273 
L 224.956425 284.491636 
L 225.058423 273.495273 
L 225.276862 284.491636 
L 225.382471 273.495273 
L 225.600008 284.491636 
L 225.702909 273.495273 
L 225.921348 284.491636 
L 226.022444 273.495273 
L 226.240883 284.491636 
L 226.332952 273.495273 
L 226.551391 284.491636 
L 226.647973 273.495273 
L 226.86551 284.491636 
L 226.965703 273.495273 
L 227.183239 284.491636 
L 227.276211 273.495273 
L 229.488583 196.520727 
L 236.028214 185.524364 
L 236.14646 196.520727 
L 236.261096 119.546182 
L 236.479535 273.495273 
L 236.535498 262.498909 
L 236.572507 273.495273 
L 236.711513 262.498909 
L 236.753938 273.495273 
L 236.891139 262.498909 
L 236.929952 273.495273 
L 237.069862 262.498909 
L 237.108675 273.495273 
L 237.253098 262.498909 
L 237.288301 273.495273 
L 237.435431 262.498909 
L 237.471537 273.495273 
L 237.613251 262.498909 
L 237.65387 273.495273 
L 237.791974 262.498909 
L 237.830788 273.495273 
L 237.977016 262.498909 
L 238.010413 273.495273 
L 238.153933 262.498909 
L 238.195455 273.495273 
L 238.331753 262.498909 
L 238.371469 273.495273 
L 238.514087 262.498909 
L 238.550192 273.495273 
L 238.694615 262.498909 
L 238.732526 273.495273 
L 238.875143 262.498909 
L 238.913054 273.495273 
L 239.055671 262.498909 
L 239.093582 273.495273 
L 239.233491 262.498909 
L 239.273207 273.495273 
L 239.415825 262.498909 
L 239.451028 273.495273 
L 239.598158 262.498909 
L 239.634264 273.495273 
L 239.781394 262.498909 
L 239.816597 273.495273 
L 239.96463 262.498909 
L 239.999833 273.495273 
L 240.146061 262.498909 
L 240.183069 273.495273 
L 240.325686 262.498909 
L 240.3645 273.495273 
L 240.504409 262.498909 
L 240.544125 273.495273 
L 240.684035 262.498909 
L 240.722848 273.495273 
L 240.865465 262.498909 
L 240.902474 273.495273 
L 241.051409 262.498909 
L 241.083904 273.495273 
L 241.236451 262.498909 
L 241.268946 273.495273 
L 241.420589 262.498909 
L 241.45489 273.495273 
L 241.59841 262.498909 
L 241.638126 273.495273 
L 241.778035 262.498909 
L 241.816849 273.495273 
L 241.958563 262.498909 
L 241.995571 273.495273 
L 242.140897 262.498909 
L 242.177002 273.495273 
L 242.325035 262.498909 
L 242.359336 273.495273 
L 242.502855 262.498909 
L 242.543474 273.495273 
L 242.684286 262.498909 
L 242.721294 273.495273 
L 242.86662 262.498909 
L 242.902725 273.495273 
L 243.050758 262.498909 
L 243.085059 273.495273 
L 243.229481 262.498909 
L 243.269197 273.495273 
L 243.412717 262.498909 
L 243.44792 273.495273 
L 243.595953 262.498909 
L 243.631156 273.495273 
L 243.778287 262.498909 
L 243.814392 273.495273 
L 243.956107 262.498909 
L 243.996726 273.495273 
L 244.141148 262.498909 
L 244.174546 273.495273 
L 244.322579 262.498909 
L 244.359587 273.495273 
L 244.503107 262.498909 
L 244.541018 273.495273 
L 244.687246 262.498909 
L 244.721546 273.495273 
L 244.868676 262.498909 
L 244.905685 273.495273 
L 245.046497 262.498909 
L 245.087115 273.495273 
L 245.230635 262.498909 
L 245.264936 273.495273 
L 245.411163 262.498909 
L 245.449074 273.495273 
L 245.590789 262.498909 
L 245.629602 273.495273 
L 245.773122 262.498909 
L 245.809228 273.495273 
L 245.958164 262.498909 
L 245.991561 273.495273 
L 246.138692 262.498909 
L 246.1757 273.495273 
L 246.320122 262.498909 
L 246.356228 273.495273 
L 246.499748 262.498909 
L 246.538561 273.495273 
L 246.678471 262.498909 
L 246.718187 273.495273 
L 246.859902 262.498909 
L 246.89691 273.495273 
L 247.042235 262.498909 
L 247.077438 273.495273 
L 247.223666 262.498909 
L 247.259771 273.495273 
L 247.403291 262.498909 
L 247.442105 273.495273 
L 247.582917 262.498909 
L 247.62173 273.495273 
L 247.760737 262.498909 
L 247.801356 273.495273 
L 247.940362 262.498909 
L 247.979176 273.495273 
L 248.122696 262.498909 
L 248.157899 273.495273 
L 248.299613 262.498909 
L 248.341135 273.495273 
L 248.481044 262.498909 
L 248.518052 273.495273 
L 248.66428 262.498909 
L 248.699483 273.495273 
L 248.844808 262.498909 
L 248.881816 273.495273 
L 249.023531 262.498909 
L 249.063247 273.495273 
L 249.205864 262.498909 
L 249.24197 273.495273 
L 249.387295 262.498909 
L 249.424303 273.495273 
L 249.567823 262.498909 
L 249.605734 273.495273 
L 249.750157 262.498909 
L 249.786262 273.495273 
L 249.927977 262.498909 
L 249.968596 273.495273 
L 250.105797 262.498909 
L 250.146416 273.495273 
L 250.286325 262.498909 
L 250.324236 273.495273 
L 250.470464 262.498909 
L 250.504764 273.495273 
L 250.650089 262.498909 
L 250.688 273.495273 
L 250.82791 262.498909 
L 250.868528 273.495273 
L 251.004827 262.498909 
L 251.045446 273.495273 
L 251.187161 262.498909 
L 251.223266 273.495273 
L 251.371299 262.498909 
L 251.4056 273.495273 
L 251.55273 262.498909 
L 251.589738 273.495273 
L 251.732355 262.498909 
L 251.771169 273.495273 
L 251.916494 262.498909 
L 251.950794 273.495273 
L 252.098827 262.498909 
L 252.13403 273.495273 
L 252.275745 262.498909 
L 252.317267 273.495273 
L 252.458078 262.498909 
L 252.494184 273.495273 
L 252.640412 262.498909 
L 252.676517 273.495273 
L 252.820037 262.498909 
L 252.857948 273.495273 
L 253.002371 262.498909 
L 253.037574 273.495273 
L 253.186509 262.498909 
L 253.22081 273.495273 
L 253.363427 262.498909 
L 253.404948 273.495273 
L 253.544858 262.498909 
L 253.581866 273.495273 
L 253.726288 262.498909 
L 253.763297 273.495273 
L 253.905011 262.498909 
L 253.944727 273.495273 
L 254.082832 262.498909 
L 254.12345 273.495273 
L 254.26697 262.498909 
L 254.301271 273.495273 
L 254.442985 262.498909 
L 254.485409 273.495273 
L 254.619 262.498909 
L 254.661424 273.495273 
L 254.803139 262.498909 
L 254.837439 273.495273 
L 254.982764 262.498909 
L 255.021578 273.495273 
L 255.164195 262.498909 
L 255.201203 273.495273 
L 255.345626 262.498909 
L 255.381731 273.495273 
L 255.521641 262.498909 
L 255.563162 273.495273 
L 255.701266 262.498909 
L 255.74008 273.495273 
L 255.878184 262.498909 
L 255.919705 273.495273 
L 256.057809 262.498909 
L 256.096623 273.495273 
L 256.238337 262.498909 
L 256.276248 273.495273 
L 256.417963 262.498909 
L 256.456776 273.495273 
L 256.597588 262.498909 
L 256.635499 273.495273 
L 256.779019 262.498909 
L 256.816027 273.495273 
L 256.957742 262.498909 
L 256.997458 273.495273 
L 257.135562 262.498909 
L 257.176181 273.495273 
L 257.314285 262.498909 
L 257.354001 273.495273 
L 257.499326 262.498909 
L 257.532724 273.495273 
L 257.68166 262.498909 
L 257.717765 273.495273 
L 257.863993 262.498909 
L 257.900099 273.495273 
L 258.045424 262.498909 
L 258.082432 273.495273 
L 258.224147 262.498909 
L 258.26296 273.495273 
L 258.40648 262.498909 
L 258.442586 273.495273 
L 258.582495 262.498909 
L 258.624919 273.495273 
L 258.760315 262.498909 
L 258.800031 273.495273 
L 258.941746 262.498909 
L 258.977851 273.495273 
L 259.124982 262.498909 
L 259.160185 273.495273 
L 259.301899 262.498909 
L 259.343421 273.495273 
L 259.48333 262.498909 
L 259.520338 273.495273 
L 259.665664 262.498909 
L 259.701769 273.495273 
L 259.849802 262.498909 
L 259.884103 273.495273 
L 260.033038 262.498909 
L 260.068241 273.495273 
L 260.217177 262.498909 
L 260.250575 273.495273 
L 260.400413 262.498909 
L 260.435616 273.495273 
L 260.577331 262.498909 
L 260.618852 273.495273 
L 260.757859 262.498909 
L 260.79577 273.495273 
L 260.940192 262.498909 
L 260.976298 273.495273 
L 261.122525 262.498909 
L 261.158631 273.495273 
L 261.304859 262.498909 
L 261.340964 273.495273 
L 261.487192 262.498909 
L 261.523298 273.495273 
L 261.671331 262.498909 
L 261.705631 273.495273 
L 261.851859 262.498909 
L 261.88977 273.495273 
L 262.0369 262.498909 
L 262.070298 273.495273 
L 262.215623 262.498909 
L 262.254437 273.495273 
L 262.394346 262.498909 
L 262.434062 273.495273 
L 262.574874 262.498909 
L 262.612785 273.495273 
L 262.755402 262.498909 
L 262.793313 273.495273 
L 262.935028 262.498909 
L 262.973841 273.495273 
L 263.111945 262.498909 
L 263.152564 273.495273 
L 263.294279 262.498909 
L 263.330384 273.495273 
L 263.473904 262.498909 
L 263.512718 273.495273 
L 263.654432 262.498909 
L 263.692343 273.495273 
L 263.83496 262.498909 
L 263.872871 273.495273 
L 264.014586 262.498909 
L 264.052497 273.495273 
L 264.189698 262.498909 
L 264.233025 273.495273 
L 264.367518 262.498909 
L 264.408137 273.495273 
L 264.548046 262.498909 
L 264.585957 273.495273 
L 264.731283 262.498909 
L 264.766486 273.495273 
L 264.915421 262.498909 
L 264.948819 273.495273 
L 265.097755 262.498909 
L 265.13386 273.495273 
L 265.276477 262.498909 
L 265.316194 273.495273 
L 265.457006 262.498909 
L 265.494014 273.495273 
L 265.633923 262.498909 
L 265.675445 273.495273 
L 265.812646 262.498909 
L 265.852362 273.495273 
L 265.992271 262.498909 
L 266.030182 273.495273 
L 266.174605 262.498909 
L 266.21071 273.495273 
L 266.353328 262.498909 
L 266.393044 273.495273 
L 266.535661 262.498909 
L 266.570864 273.495273 
L 266.717092 262.498909 
L 266.753197 273.495273 
L 266.896717 262.498909 
L 266.935531 273.495273 
L 267.073635 262.498909 
L 267.114254 273.495273 
L 267.24965 262.498909 
L 267.291171 273.495273 
L 267.429275 262.498909 
L 267.467186 273.495273 
L 267.609803 262.498909 
L 267.646812 273.495273 
L 267.791234 262.498909 
L 267.82734 273.495273 
L 267.971762 262.498909 
L 268.009673 273.495273 
L 268.147777 262.498909 
L 268.190201 273.495273 
L 268.328305 262.498909 
L 268.366216 273.495273 
L 268.509736 262.498909 
L 268.545842 273.495273 
L 268.686654 262.498909 
L 268.728175 273.495273 
L 268.868084 262.498909 
L 268.905093 273.495273 
L 269.049515 262.498909 
L 269.086523 273.495273 
L 269.230946 262.498909 
L 269.267051 273.495273 
L 269.414182 262.498909 
L 269.449385 273.495273 
L 269.593807 262.498909 
L 269.631718 273.495273 
L 269.770725 262.498909 
L 269.812246 273.495273 
L 269.954864 262.498909 
L 269.989164 273.495273 
L 270.131781 262.498909 
L 270.1724 273.495273 
L 270.312309 262.498909 
L 270.349318 273.495273 
L 270.492837 262.498909 
L 270.530748 273.495273 
L 270.672463 262.498909 
L 270.710374 273.495273 
L 270.855699 262.498909 
L 270.889999 273.495273 
L 271.036227 262.498909 
L 271.074138 273.495273 
L 271.216755 262.498909 
L 271.254666 273.495273 
L 271.758339 240.506182 
L 274.641374 64.564364 
L 274.987085 53.568 
L 279.492164 64.564364 
L 279.604994 53.568 
L 279.725045 75.560727 
L 279.728656 64.564364 
L 279.800867 141.538909 
L 279.946192 273.495273 
L 280.043677 262.498909 
L 280.080686 273.495273 
L 280.219692 262.498909 
L 280.261214 273.495273 
L 280.402026 262.498909 
L 280.438131 273.495273 
L 280.579846 262.498909 
L 280.619562 273.495273 
L 280.759471 262.498909 
L 280.798285 273.495273 
L 280.941805 262.498909 
L 280.97791 273.495273 
L 281.122333 262.498909 
L 281.159341 273.495273 
L 281.301958 262.498909 
L 281.339869 273.495273 
L 281.479779 262.498909 
L 281.520397 273.495273 
L 281.661209 262.498909 
L 281.698218 273.495273 
L 281.843543 262.498909 
L 281.879648 273.495273 
L 282.029487 262.498909 
L 282.061982 273.495273 
L 282.21182 262.498909 
L 282.247023 273.495273 
L 282.386932 262.498909 
L 282.430259 273.495273 
L 282.571974 262.498909 
L 282.605371 273.495273 
L 282.750697 262.498909 
L 282.78951 273.495273 
L 282.930322 262.498909 
L 282.969136 273.495273 
L 283.108142 262.498909 
L 283.147858 273.495273 
L 283.287768 262.498909 
L 283.325679 273.495273 
L 283.469198 262.498909 
L 283.506207 273.495273 
L 283.647019 262.498909 
L 283.686735 273.495273 
L 283.831157 262.498909 
L 283.865458 273.495273 
L 284.008978 262.498909 
L 284.049596 273.495273 
L 284.1877 262.498909 
L 284.227417 273.495273 
L 284.366423 262.498909 
L 284.406139 273.495273 
L 284.551465 262.498909 
L 284.584862 273.495273 
L 284.732895 262.498909 
L 284.769001 273.495273 
L 284.913423 262.498909 
L 284.951334 273.495273 
L 285.092146 262.498909 
L 285.131862 273.495273 
L 285.273577 262.498909 
L 285.310585 273.495273 
L 285.456813 262.498909 
L 285.492016 273.495273 
L 285.634633 262.498909 
L 285.675252 273.495273 
L 285.813356 262.498909 
L 285.853072 273.495273 
L 285.990274 262.498909 
L 286.031795 273.495273 
L 286.171704 262.498909 
L 286.20781 273.495273 
L 286.350427 262.498909 
L 286.390143 273.495273 
L 286.534566 262.498909 
L 286.568866 273.495273 
L 286.719607 262.498909 
L 286.753005 273.495273 
L 286.897427 262.498909 
L 286.937144 273.495273 
L 287.078858 262.498909 
L 287.115866 273.495273 
L 287.262997 262.498909 
L 287.297297 273.495273 
L 287.443525 262.498909 
L 287.480533 273.495273 
L 287.621345 262.498909 
L 287.661964 273.495273 
L 287.800971 262.498909 
L 287.839784 273.495273 
L 287.979693 262.498909 
L 288.018507 273.495273 
L 288.160222 262.498909 
L 288.198133 273.495273 
L 288.337139 262.498909 
L 288.378661 273.495273 
L 288.514057 262.498909 
L 288.555578 273.495273 
L 288.69278 262.498909 
L 288.732496 273.495273 
L 288.867892 262.498909 
L 288.910316 273.495273 
L 289.049323 262.498909 
L 289.086331 273.495273 
L 289.230753 262.498909 
L 289.266859 273.495273 
L 289.412184 262.498909 
L 289.449192 273.495273 
L 289.593615 262.498909 
L 289.62972 273.495273 
L 289.777754 262.498909 
L 289.811151 273.495273 
L 289.956476 262.498909 
L 289.996193 273.495273 
L 290.134297 262.498909 
L 290.174013 273.495273 
L 290.312117 262.498909 
L 290.352736 273.495273 
L 290.489034 262.498909 
L 290.530556 273.495273 
L 290.674076 262.498909 
L 290.707473 273.495273 
L 290.858214 262.498909 
L 290.892515 273.495273 
L 291.038742 262.498909 
L 291.076653 273.495273 
L 291.223784 262.498909 
L 291.257181 273.495273 
L 291.404312 262.498909 
L 291.442223 273.495273 
L 291.581229 262.498909 
L 291.622751 273.495273 
L 291.763563 262.498909 
L 291.799668 273.495273 
L 291.941383 262.498909 
L 291.982002 273.495273 
L 292.125522 262.498909 
L 292.158919 273.495273 
L 292.306952 262.498909 
L 292.343961 273.495273 
L 292.490189 262.498909 
L 292.525391 273.495273 
L 292.669814 262.498909 
L 292.708628 273.495273 
L 292.846732 262.498909 
L 292.888253 273.495273 
L 293.031773 262.498909 
L 293.065171 273.495273 
L 293.212301 262.498909 
L 293.250212 273.495273 
L 293.395537 262.498909 
L 293.43074 273.495273 
L 293.573357 262.498909 
L 293.613976 273.495273 
L 293.757496 262.498909 
L 293.791796 273.495273 
L 293.940732 262.498909 
L 293.975032 273.495273 
L 294.116747 262.498909 
L 294.159171 273.495273 
L 294.297275 262.498909 
L 294.335186 273.495273 
L 294.481414 262.498909 
L 294.514811 273.495273 
L 294.658331 262.498909 
L 294.699853 273.495273 
L 294.839762 262.498909 
L 294.87677 273.495273 
L 295.02029 262.498909 
L 295.058201 273.495273 
L 295.200818 262.498909 
L 295.238729 273.495273 
L 295.383152 262.498909 
L 295.419257 273.495273 
L 295.562777 262.498909 
L 295.601591 273.495273 
L 295.7415 262.498909 
L 295.780313 273.495273 
L 295.923833 262.498909 
L 295.959939 273.495273 
L 296.105264 262.498909 
L 296.142272 273.495273 
L 296.283987 262.498909 
L 296.323703 273.495273 
L 296.468126 262.498909 
L 296.502426 273.495273 
L 296.650459 262.498909 
L 296.685662 273.495273 
L 296.830987 262.498909 
L 296.867995 273.495273 
L 297.013321 262.498909 
L 297.048523 273.495273 
L 297.192946 262.498909 
L 297.23176 273.495273 
L 297.375279 262.498909 
L 297.411385 273.495273 
L 297.552197 262.498909 
L 297.593718 273.495273 
L 297.731822 262.498909 
L 297.770636 273.495273 
L 297.915058 262.498909 
L 297.950261 273.495273 
L 298.093781 262.498909 
L 298.133497 273.495273 
L 298.278823 262.498909 
L 298.31222 273.495273 
L 298.462961 262.498909 
L 298.496359 273.495273 
L 298.646197 262.498909 
L 298.6814 273.495273 
L 298.826725 262.498909 
L 298.864636 273.495273 
L 299.009961 262.498909 
L 299.045164 273.495273 
L 299.193198 262.498909 
L 299.227498 273.495273 
L 299.378239 262.498909 
L 299.411637 273.495273 
L 299.562378 262.498909 
L 299.596678 273.495273 
L 299.745614 262.498909 
L 299.779914 273.495273 
L 299.923434 262.498909 
L 299.96315 273.495273 
L 300.100351 262.498909 
L 300.141873 273.495273 
L 300.31879 284.491636 
L 301.827103 273.495273 
L 302.045542 284.491636 
L 302.139416 273.495273 
L 302.356953 284.491636 
L 302.458049 273.495273 
L 302.676488 284.491636 
L 302.782999 273.495273 
L 303.000536 284.491636 
L 303.105242 273.495273 
L 303.323681 284.491636 
L 303.421166 273.495273 
L 303.639605 284.491636 
L 303.735285 273.495273 
L 303.952821 284.491636 
L 304.051209 273.495273 
L 304.269648 284.491636 
L 304.369841 273.495273 
L 304.58828 284.491636 
L 304.689376 273.495273 
L 304.906912 284.491636 
L 304.999884 273.495273 
L 305.217421 284.491636 
L 305.316711 273.495273 
L 305.534248 284.491636 
L 305.638051 273.495273 
L 305.85649 284.491636 
L 305.951268 273.495273 
L 306.169707 284.491636 
L 306.264484 273.495273 
L 306.482923 284.491636 
L 306.584921 273.495273 
L 306.80336 284.491636 
L 306.896332 273.495273 
L 307.114771 284.491636 
L 307.214062 273.495273 
L 307.431598 284.491636 
L 307.531791 273.495273 
L 307.749328 284.491636 
L 307.84591 273.495273 
L 308.063447 284.491636 
L 308.158224 273.495273 
L 308.376663 284.491636 
L 308.472343 273.495273 
L 308.690782 284.491636 
L 308.794585 273.495273 
L 311.006958 196.520727 
L 317.265867 185.524364 
L 317.384113 196.520727 
L 317.482501 185.524364 
L 317.484306 196.520727 
L 317.732533 273.495273 
L 317.867026 284.491636 
L 317.966316 273.495273 
L 318.183853 284.491636 
L 318.283143 273.495273 
L 318.501582 284.491636 
L 318.597262 273.495273 
L 318.815701 284.491636 
L 318.912284 273.495273 
L 319.130723 284.491636 
L 319.230013 273.495273 
L 319.448452 284.491636 
L 319.541424 273.495273 
L 319.758961 284.491636 
L 319.859154 273.495273 
L 320.077593 284.491636 
L 320.177786 273.495273 
L 320.396225 284.491636 
L 320.49371 273.495273 
L 320.712149 284.491636 
L 320.810537 273.495273 
L 321.028976 284.491636 
L 321.130072 273.495273 
L 321.347608 284.491636 
L 321.445996 273.495273 
L 321.664435 284.491636 
L 321.765531 273.495273 
L 321.983067 284.491636 
L 322.076039 273.495273 
L 322.294478 284.491636 
L 322.389255 273.495273 
L 322.607694 284.491636 
L 322.700666 273.495273 
L 322.919105 284.491636 
L 323.01298 273.495273 
L 323.230516 284.491636 
L 323.329807 273.495273 
L 323.547343 284.491636 
L 323.641218 273.495273 
L 323.859657 284.491636 
L 323.957142 273.495273 
L 324.175581 284.491636 
L 324.271261 273.495273 
L 324.4897 284.491636 
L 324.58899 273.495273 
L 324.807429 284.491636 
L 324.904915 273.495273 
L 325.122451 284.491636 
L 325.224449 273.495273 
L 325.442888 284.491636 
L 325.543082 273.495273 
L 325.761521 284.491636 
L 325.855395 273.495273 
L 326.073834 284.491636 
L 326.175833 273.495273 
L 326.394272 284.491636 
L 326.49627 273.495273 
L 326.713806 284.491636 
L 326.818513 273.495273 
L 327.036049 284.491636 
L 327.129021 273.495273 
L 327.34746 284.491636 
L 327.453069 273.495273 
L 327.671508 284.491636 
L 327.774409 273.495273 
L 327.991945 284.491636 
L 328.095749 273.495273 
L 328.314188 284.491636 
L 328.40716 273.495273 
L 328.625599 284.491636 
L 328.720376 273.495273 
L 328.938815 284.491636 
L 329.041716 273.495273 
L 329.259253 284.491636 
L 329.357641 273.495273 
L 329.57608 284.491636 
L 329.672662 273.495273 
L 329.891101 284.491636 
L 329.994905 273.495273 
L 330.213344 284.491636 
L 330.310829 273.495273 
L 330.529268 284.491636 
L 330.621338 273.495273 
L 330.839777 284.491636 
L 330.932749 273.495273 
L 331.150285 284.491636 
L 331.250478 273.495273 
L 331.468917 284.491636 
L 331.568207 273.495273 
L 331.786647 284.491636 
L 331.88684 273.495273 
L 332.104376 284.491636 
L 332.209985 273.495273 
L 332.428424 284.491636 
L 332.525909 273.495273 
L 332.743446 284.491636 
L 332.839125 273.495273 
L 333.057564 284.491636 
L 333.161368 273.495273 
L 333.379807 284.491636 
L 333.480903 273.495273 
L 333.698439 284.491636 
L 333.795924 273.495273 
L 334.013461 284.491636 
L 334.114557 273.495273 
L 334.332996 284.491636 
L 334.434994 273.495273 
L 334.65253 284.491636 
L 334.749113 273.495273 
L 334.967552 284.491636 
L 335.064134 273.495273 
L 335.282573 284.491636 
L 335.383669 273.495273 
L 335.602108 284.491636 
L 353.403083 273.495273 
L 353.621522 284.491636 
L 353.720813 273.495273 
L 353.939252 284.491636 
L 354.043055 273.495273 
L 354.261494 284.491636 
L 354.359882 273.495273 
L 354.578321 284.491636 
L 354.679417 273.495273 
L 354.897856 284.491636 
L 354.995341 273.495273 
L 355.21378 284.491636 
L 355.312168 273.495273 
L 355.530607 284.491636 
L 355.631703 273.495273 
L 355.849239 284.491636 
L 355.947627 273.495273 
L 356.165163 284.491636 
L 356.267162 273.495273 
L 356.485601 284.491636 
L 356.583086 273.495273 
L 356.801525 284.491636 
L 357.860323 273.495273 
L 358.077859 284.491636 
L 358.084177 273.495273 
L 358.302616 284.491636 
L 358.309838 273.495273 
L 358.528277 284.491636 
L 358.541816 273.495273 
L 358.760255 284.491636 
L 358.768379 273.495273 
L 358.985915 284.491636 
L 358.995844 273.495273 
L 359.214283 284.491636 
L 359.226018 273.495273 
L 359.444457 284.491636 
L 359.44897 273.495273 
L 359.667409 284.491636 
L 359.673727 273.495273 
L 359.892166 284.491636 
L 359.898485 273.495273 
L 360.116924 284.491636 
L 360.125048 273.495273 
L 360.342584 284.491636 
L 360.353416 273.495273 
L 360.571855 284.491636 
L 360.581784 273.495273 
L 360.800223 284.491636 
L 360.802028 273.495273 
L 361.019565 284.491636 
L 361.027688 273.495273 
L 361.245225 284.491636 
L 361.253348 273.495273 
L 361.470885 284.491636 
L 361.485327 273.495273 
L 361.703766 284.491636 
L 361.7155 273.495273 
L 361.933037 284.491636 
L 361.942966 273.495273 
L 362.161405 284.491636 
L 362.173139 273.495273 
L 362.391578 284.491636 
L 362.40241 273.495273 
L 362.620849 284.491636 
L 362.62807 273.495273 
L 362.845606 284.491636 
L 362.852828 273.495273 
L 363.071267 284.491636 
L 363.07939 273.495273 
L 363.297829 284.491636 
L 363.305953 273.495273 
L 363.524392 284.491636 
L 363.530711 273.495273 
L 363.74915 284.491636 
L 363.754566 273.495273 
L 363.973005 284.491636 
L 363.982934 273.495273 
L 364.201373 284.491636 
L 364.212204 273.495273 
L 364.430643 284.491636 
L 364.440572 273.495273 
L 364.659011 284.491636 
L 364.664427 273.495273 
L 364.881964 284.491636 
L 364.891893 273.495273 
L 365.109429 284.491636 
L 365.117553 273.495273 
L 365.335992 284.491636 
L 365.336895 273.495273 
L 365.555334 284.491636 
L 365.557139 273.495273 
L 365.775578 284.491636 
L 365.780994 273.495273 
L 365.999433 284.491636 
L 366.009362 273.495273 
L 366.227801 284.491636 
L 366.234119 273.495273 
L 366.452558 284.491636 
L 366.453461 273.495273 
L 366.6719 284.491636 
L 366.679121 273.495273 
L 366.89756 284.491636 
L 366.908392 273.495273 
L 367.125928 284.491636 
L 367.129539 273.495273 
L 367.347978 284.491636 
L 367.350686 273.495273 
L 367.569125 284.491636 
L 367.577248 273.495273 
L 367.794785 284.491636 
L 367.801103 273.495273 
L 368.01864 284.491636 
L 368.023153 273.495273 
L 368.241592 284.491636 
L 368.243397 273.495273 
L 368.461836 284.491636 
L 368.469057 273.495273 
L 368.687496 284.491636 
L 368.688399 273.495273 
L 368.906838 284.491636 
L 368.910449 273.495273 
L 369.127985 284.491636 
L 369.138817 273.495273 
L 369.356353 284.491636 
L 369.363574 273.495273 
L 369.582013 284.491636 
L 369.59465 273.495273 
L 369.813089 284.491636 
L 369.819408 273.495273 
L 370.037847 284.491636 
L 370.046873 273.495273 
L 370.265312 284.491636 
L 370.274339 273.495273 
L 370.492778 284.491636 
L 370.49368 273.495273 
L 370.712119 284.491636 
L 370.722951 273.495273 
L 370.94139 284.491636 
L 370.951319 273.495273 
L 371.169758 284.491636 
L 371.173369 273.495273 
L 371.391808 284.491636 
L 371.397223 273.495273 
L 371.615662 284.491636 
L 371.628299 273.495273 
L 371.846738 284.491636 
L 371.853057 273.495273 
L 372.071496 284.491636 
L 372.08323 273.495273 
L 372.300767 284.491636 
L 372.301669 273.495273 
L 372.520108 284.491636 
L 372.528232 273.495273 
L 372.745768 284.491636 
L 372.754795 273.495273 
L 372.973234 284.491636 
L 372.97865 273.495273 
L 373.197089 284.491636 
L 373.201602 273.495273 
L 373.420041 284.491636 
L 373.42997 273.495273 
L 373.648409 284.491636 
L 373.654728 273.495273 
L 373.872264 284.491636 
L 373.879485 273.495273 
L 374.097924 284.491636 
L 374.102437 273.495273 
L 374.320876 284.491636 
L 374.326292 273.495273 
L 374.544731 284.491636 
L 374.552855 273.495273 
L 374.770391 284.491636 
L 374.774904 273.495273 
L 374.992441 284.491636 
L 375.005078 273.495273 
L 375.223517 284.491636 
L 375.227127 273.495273 
L 375.444664 284.491636 
L 375.454593 273.495273 
L 375.673032 284.491636 
L 375.682058 273.495273 
L 375.899595 284.491636 
L 375.908621 273.495273 
L 376.12706 284.491636 
L 376.133379 273.495273 
L 376.351818 284.491636 
L 376.354526 273.495273 
L 376.572062 284.491636 
L 376.581088 273.495273 
L 376.798625 284.491636 
L 376.806748 273.495273 
L 377.025187 284.491636 
L 377.029701 273.495273 
L 377.24814 284.491636 
L 377.254458 273.495273 
L 377.472897 284.491636 
L 377.476508 273.495273 
L 377.694947 284.491636 
L 377.703071 273.495273 
L 377.92151 284.491636 
L 377.92512 273.495273 
L 378.143559 284.491636 
L 378.149878 273.495273 
L 378.368317 284.491636 
L 378.374635 273.495273 
L 378.593074 284.491636 
L 378.601198 273.495273 
L 378.819637 284.491636 
L 378.828663 273.495273 
L 379.047102 284.491636 
L 379.056129 273.495273 
L 379.274568 284.491636 
L 379.287205 273.495273 
L 379.504741 284.491636 
L 379.51106 273.495273 
L 379.729499 284.491636 
L 379.73672 273.495273 
L 379.955159 284.491636 
L 379.963283 273.495273 
L 380.181722 284.491636 
L 380.189845 273.495273 
L 380.408284 284.491636 
L 380.415506 273.495273 
L 380.633945 284.491636 
L 380.636652 273.495273 
L 380.855091 284.491636 
L 380.864118 273.495273 
L 381.081654 284.491636 
L 381.086167 273.495273 
L 381.304607 284.491636 
L 381.308217 273.495273 
L 381.526656 284.491636 
L 381.537488 273.495273 
L 381.755927 284.491636 
L 381.757732 273.495273 
L 381.976171 284.491636 
L 381.98249 273.495273 
L 382.200026 284.491636 
L 382.206344 273.495273 
L 382.424783 284.491636 
L 382.435615 273.495273 
L 382.654054 284.491636 
L 382.660373 273.495273 
L 382.878812 284.491636 
L 382.882422 273.495273 
L 383.100861 284.491636 
L 383.109888 273.495273 
L 383.327424 284.491636 
L 383.333743 273.495273 
L 383.552182 284.491636 
L 383.560305 273.495273 
L 383.777842 284.491636 
L 383.792284 273.495273 
L 384.010723 284.491636 
L 384.018847 273.495273 
L 384.237286 284.491636 
L 384.250825 273.495273 
L 384.469264 284.491636 
L 384.477388 273.495273 
L 384.695827 284.491636 
L 384.707562 273.495273 
L 384.926001 284.491636 
L 384.935027 273.495273 
L 385.153466 284.491636 
L 385.163395 273.495273 
L 385.381834 284.491636 
L 385.393568 273.495273 
L 385.612007 284.491636 
L 385.621936 273.495273 
L 385.840375 284.491636 
L 385.848499 273.495273 
L 386.066036 284.491636 
L 386.067841 273.495273 
L 386.28628 284.491636 
L 386.294404 273.495273 
L 386.512843 284.491636 
L 386.517356 273.495273 
L 386.734892 284.491636 
L 386.745724 273.495273 
L 386.964163 284.491636 
L 386.968676 273.495273 
L 387.187115 284.491636 
L 387.190726 273.495273 
L 387.408262 284.491636 
L 387.421802 273.495273 
L 387.639338 284.491636 
L 387.647462 273.495273 
L 387.865901 284.491636 
L 387.878538 273.495273 
L 388.096074 284.491636 
L 388.099685 273.495273 
L 388.318124 284.491636 
L 388.32354 273.495273 
L 388.541979 284.491636 
L 388.551908 273.495273 
L 388.770347 284.491636 
L 388.778471 273.495273 
L 388.99691 284.491636 
L 388.998715 273.495273 
L 389.217154 284.491636 
L 389.224375 273.495273 
L 389.441911 284.491636 
L 389.450938 273.495273 
L 389.669377 284.491636 
L 389.676598 273.495273 
L 389.894134 284.491636 
L 389.901355 273.495273 
L 390.118892 284.491636 
L 397.356264 273.495273 
L 397.574703 284.491636 
L 397.582827 273.495273 
L 397.801266 284.491636 
L 397.806682 273.495273 
L 398.024218 284.491636 
L 398.033245 273.495273 
L 398.250781 284.491636 
L 398.259807 273.495273 
L 398.478246 284.491636 
L 398.487273 273.495273 
L 398.487273 273.495273 
" clip-path="url(#p111374f266)" style="fill: none; stroke: #1f77b4; stroke-width: 1.5; stroke-linecap: square"/>
   </g>
   <g id="patch_3">
    <path d="M 57.6 307.584 
L 57.6 41.472 
" style="fill: none; stroke: #000000; stroke-width: 0.8; stroke-linejoin: miter; stroke-linecap: square"/>
   </g>
   <g id="patch_4">
    <path d="M 414.72 307.584 
L 414.72 41.472 
" style="fill: none; stroke: #000000; stroke-width: 0.8; stroke-linejoin: miter; stroke-linecap: square"/>
   </g>
   <g id="patch_5">
    <path d="M 57.6 307.584 
L 414.72 307.584 
" style="fill: none; stroke: #000000; stroke-width: 0.8; stroke-linejoin: miter; stroke-linecap: square"/>
   </g>
   <g id="patch_6">
    <path d="M 57.6 41.472 
L 414.72 41.472 
" style="fill: none; stroke: #000000; stroke-width: 0.8; stroke-linejoin: miter; stroke-linecap: square"/>
   </g>
   <g id="text_15">
    <!-- Queue size (y-axis) between S2 and sensors that follow at a time (x-axis). -->
    <g transform="translate(14.282813 35.472) scale(0.12 -0.12)">
     <defs>
      <path id="DejaVuSans-51" d="M 2522 4238 
Q 1834 4238 1429 3725 
Q 1025 3213 1025 2328 
Q 1025 1447 1429 934 
Q 1834 422 2522 422 
Q 3209 422 3611 934 
Q 4013 1447 4013 2328 
Q 4013 3213 3611 3725 
Q 3209 4238 2522 4238 
z
M 3406 84 
L 4238 -825 
L 3475 -825 
L 2784 -78 
Q 2681 -84 2626 -87 
Q 2572 -91 2522 -91 
Q 1538 -91 948 567 
Q 359 1225 359 2328 
Q 359 3434 948 4092 
Q 1538 4750 2522 4750 
Q 3503 4750 4090 4092 
Q 4678 3434 4678 2328 
Q 4678 1516 4351 937 
Q 4025 359 3406 84 
z
" transform="scale(0.015625)"/>
      <path id="DejaVuSans-75" d="M 544 1381 
L 544 3500 
L 1119 3500 
L 1119 1403 
Q 1119 906 1312 657 
Q 1506 409 1894 409 
Q 2359 409 2629 706 
Q 2900 1003 2900 1516 
L 2900 3500 
L 3475 3500 
L 3475 0 
L 2900 0 
L 2900 538 
Q 2691 219 2414 64 
Q 2138 -91 1772 -91 
Q 1169 -91 856 284 
Q 544 659 544 1381 
z
M 1991 3584 
L 1991 3584 
z
" transform="scale(0.015625)"/>
      <path id="DejaVuSans-20" transform="scale(0.015625)"/>
      <path id="DejaVuSans-73" d="M 2834 3397 
L 2834 2853 
Q 2591 2978 2328 3040 
Q 2066 3103 1784 3103 
Q 1356 3103 1142 2972 
Q 928 2841 928 2578 
Q 928 2378 1081 2264 
Q 1234 2150 1697 2047 
L 1894 2003 
Q 2506 1872 2764 1633 
Q 3022 1394 3022 966 
Q 3022 478 2636 193 
Q 2250 -91 1575 -91 
Q 1294 -91 989 -36 
Q 684 19 347 128 
L 347 722 
Q 666 556 975 473 
Q 1284 391 1588 391 
Q 1994 391 2212 530 
Q 2431 669 2431 922 
Q 2431 1156 2273 1281 
Q 2116 1406 1581 1522 
L 1381 1569 
Q 847 1681 609 1914 
Q 372 2147 372 2553 
Q 372 3047 722 3315 
Q 1072 3584 1716 3584 
Q 2034 3584 2315 3537 
Q 2597 3491 2834 3397 
z
" transform="scale(0.015625)"/>
      <path id="DejaVuSans-69" d="M 603 3500 
L 1178 3500 
L 1178 0 
L 603 0 
L 603 3500 
z
M 603 4863 
L 1178 4863 
L 1178 4134 
L 603 4134 
L 603 4863 
z
" transform="scale(0.015625)"/>
      <path id="DejaVuSans-7a" d="M 353 3500 
L 3084 3500 
L 3084 2975 
L 922 459 
L 3084 459 
L 3084 0 
L 275 0 
L 275 525 
L 2438 3041 
L 353 3041 
L 353 3500 
z
" transform="scale(0.015625)"/>
      <path id="DejaVuSans-28" d="M 1984 4856 
Q 1566 4138 1362 3434 
Q 1159 2731 1159 2009 
Q 1159 1288 1364 580 
Q 1569 -128 1984 -844 
L 1484 -844 
Q 1016 -109 783 600 
Q 550 1309 550 2009 
Q 550 2706 781 3412 
Q 1013 4119 1484 4856 
L 1984 4856 
z
" transform="scale(0.015625)"/>
      <path id="DejaVuSans-79" d="M 2059 -325 
Q 1816 -950 1584 -1140 
Q 1353 -1331 966 -1331 
L 506 -1331 
L 506 -850 
L 844 -850 
Q 1081 -850 1212 -737 
Q 1344 -625 1503 -206 
L 1606 56 
L 191 3500 
L 800 3500 
L 1894 763 
L 2988 3500 
L 3597 3500 
L 2059 -325 
z
" transform="scale(0.015625)"/>
      <path id="DejaVuSans-2d" d="M 313 2009 
L 1997 2009 
L 1997 1497 
L 313 1497 
L 313 2009 
z
" transform="scale(0.015625)"/>
      <path id="DejaVuSans-61" d="M 2194 1759 
Q 1497 1759 1228 1600 
Q 959 1441 959 1056 
Q 959 750 1161 570 
Q 1363 391 1709 391 
Q 2188 391 2477 730 
Q 2766 1069 2766 1631 
L 2766 1759 
L 2194 1759 
z
M 3341 1997 
L 3341 0 
L 2766 0 
L 2766 531 
Q 2569 213 2275 61 
Q 1981 -91 1556 -91 
Q 1019 -91 701 211 
Q 384 513 384 1019 
Q 384 1609 779 1909 
Q 1175 2209 1959 2209 
L 2766 2209 
L 2766 2266 
Q 2766 2663 2505 2880 
Q 2244 3097 1772 3097 
Q 1472 3097 1187 3025 
Q 903 2953 641 2809 
L 641 3341 
Q 956 3463 1253 3523 
Q 1550 3584 1831 3584 
Q 2591 3584 2966 3190 
Q 3341 2797 3341 1997 
z
" transform="scale(0.015625)"/>
      <path id="DejaVuSans-78" d="M 3513 3500 
L 2247 1797 
L 3578 0 
L 2900 0 
L 1881 1375 
L 863 0 
L 184 0 
L 1544 1831 
L 300 3500 
L 978 3500 
L 1906 2253 
L 2834 3500 
L 3513 3500 
z
" transform="scale(0.015625)"/>
      <path id="DejaVuSans-29" d="M 513 4856 
L 1013 4856 
Q 1481 4119 1714 3412 
Q 1947 2706 1947 2009 
Q 1947 1309 1714 600 
Q 1481 -109 1013 -844 
L 513 -844 
Q 928 -128 1133 580 
Q 1338 1288 1338 2009 
Q 1338 2731 1133 3434 
Q 928 4138 513 4856 
z
" transform="scale(0.015625)"/>
      <path id="DejaVuSans-62" d="M 3116 1747 
Q 3116 2381 2855 2742 
Q 2594 3103 2138 3103 
Q 1681 3103 1420 2742 
Q 1159 2381 1159 1747 
Q 1159 1113 1420 752 
Q 1681 391 2138 391 
Q 2594 391 2855 752 
Q 3116 1113 3116 1747 
z
M 1159 2969 
Q 1341 3281 1617 3432 
Q 1894 3584 2278 3584 
Q 2916 3584 3314 3078 
Q 3713 2572 3713 1747 
Q 3713 922 3314 415 
Q 2916 -91 2278 -91 
Q 1894 -91 1617 61 
Q 1341 213 1159 525 
L 1159 0 
L 581 0 
L 581 4863 
L 1159 4863 
L 1159 2969 
z
" transform="scale(0.015625)"/>
      <path id="DejaVuSans-74" d="M 1172 4494 
L 1172 3500 
L 2356 3500 
L 2356 3053 
L 1172 3053 
L 1172 1153 
Q 1172 725 1289 603 
Q 1406 481 1766 481 
L 2356 481 
L 2356 0 
L 1766 0 
Q 1100 0 847 248 
Q 594 497 594 1153 
L 594 3053 
L 172 3053 
L 172 3500 
L 594 3500 
L 594 4494 
L 1172 4494 
z
" transform="scale(0.015625)"/>
      <path id="DejaVuSans-77" d="M 269 3500 
L 844 3500 
L 1563 769 
L 2278 3500 
L 2956 3500 
L 3675 769 
L 4391 3500 
L 4966 3500 
L 4050 0 
L 3372 0 
L 2619 2869 
L 1863 0 
L 1184 0 
L 269 3500 
z
" transform="scale(0.015625)"/>
      <path id="DejaVuSans-6e" d="M 3513 2113 
L 3513 0 
L 2938 0 
L 2938 2094 
Q 2938 2591 2744 2837 
Q 2550 3084 2163 3084 
Q 1697 3084 1428 2787 
Q 1159 2491 1159 1978 
L 1159 0 
L 581 0 
L 581 3500 
L 1159 3500 
L 1159 2956 
Q 1366 3272 1645 3428 
Q 1925 3584 2291 3584 
Q 2894 3584 3203 3211 
Q 3513 2838 3513 2113 
z
" transform="scale(0.015625)"/>
      <path id="DejaVuSans-53" d="M 3425 4513 
L 3425 3897 
Q 3066 4069 2747 4153 
Q 2428 4238 2131 4238 
Q 1616 4238 1336 4038 
Q 1056 3838 1056 3469 
Q 1056 3159 1242 3001 
Q 1428 2844 1947 2747 
L 2328 2669 
Q 3034 2534 3370 2195 
Q 3706 1856 3706 1288 
Q 3706 609 3251 259 
Q 2797 -91 1919 -91 
Q 1588 -91 1214 -16 
Q 841 59 441 206 
L 441 856 
Q 825 641 1194 531 
Q 1563 422 1919 422 
Q 2459 422 2753 634 
Q 3047 847 3047 1241 
Q 3047 1584 2836 1778 
Q 2625 1972 2144 2069 
L 1759 2144 
Q 1053 2284 737 2584 
Q 422 2884 422 3419 
Q 422 4038 858 4394 
Q 1294 4750 2059 4750 
Q 2388 4750 2728 4690 
Q 3069 4631 3425 4513 
z
" transform="scale(0.015625)"/>
      <path id="DejaVuSans-64" d="M 2906 2969 
L 2906 4863 
L 3481 4863 
L 3481 0 
L 2906 0 
L 2906 525 
Q 2725 213 2448 61 
Q 2172 -91 1784 -91 
Q 1150 -91 751 415 
Q 353 922 353 1747 
Q 353 2572 751 3078 
Q 1150 3584 1784 3584 
Q 2172 3584 2448 3432 
Q 2725 3281 2906 2969 
z
M 947 1747 
Q 947 1113 1208 752 
Q 1469 391 1925 391 
Q 2381 391 2643 752 
Q 2906 1113 2906 1747 
Q 2906 2381 2643 2742 
Q 2381 3103 1925 3103 
Q 1469 3103 1208 2742 
Q 947 2381 947 1747 
z
" transform="scale(0.015625)"/>
      <path id="DejaVuSans-6f" d="M 1959 3097 
Q 1497 3097 1228 2736 
Q 959 2375 959 1747 
Q 959 1119 1226 758 
Q 1494 397 1959 397 
Q 2419 397 2687 759 
Q 2956 1122 2956 1747 
Q 2956 2369 2687 2733 
Q 2419 3097 1959 3097 
z
M 1959 3584 
Q 2709 3584 3137 3096 
Q 3566 2609 3566 1747 
Q 3566 888 3137 398 
Q 2709 -91 1959 -91 
Q 1206 -91 779 398 
Q 353 888 353 1747 
Q 353 2609 779 3096 
Q 1206 3584 1959 3584 
z
" transform="scale(0.015625)"/>
      <path id="DejaVuSans-72" d="M 2631 2963 
Q 2534 3019 2420 3045 
Q 2306 3072 2169 3072 
Q 1681 3072 1420 2755 
Q 1159 2438 1159 1844 
L 1159 0 
L 581 0 
L 581 3500 
L 1159 3500 
L 1159 2956 
Q 1341 3275 1631 3429 
Q 1922 3584 2338 3584 
Q 2397 3584 2469 3576 
Q 2541 3569 2628 3553 
L 2631 2963 
z
" transform="scale(0.015625)"/>
      <path id="DejaVuSans-68" d="M 3513 2113 
L 3513 0 
L 2938 0 
L 2938 2094 
Q 2938 2591 2744 2837 
Q 2550 3084 2163 3084 
Q 1697 3084 1428 2787 
Q 1159 2491 1159 1978 
L 1159 0 
L 581 0 
L 581 4863 
L 1159 4863 
L 1159 2956 
Q 1366 3272 1645 3428 
Q 1925 3584 2291 3584 
Q 2894 3584 3203 3211 
Q 3513 2838 3513 2113 
z
" transform="scale(0.015625)"/>
      <path id="DejaVuSans-66" d="M 2375 4863 
L 2375 4384 
L 1825 4384 
Q 1516 4384 1395 4259 
Q 1275 4134 1275 3809 
L 1275 3500 
L 2222 3500 
L 2222 3053 
L 1275 3053 
L 1275 0 
L 697 0 
L 697 3053 
L 147 3053 
L 147 3500 
L 697 3500 
L 697 3744 
Q 697 4328 969 4595 
Q 1241 4863 1831 4863 
L 2375 4863 
z
" transform="scale(0.015625)"/>
      <path id="DejaVuSans-6c" d="M 603 4863 
L 1178 4863 
L 1178 0 
L 603 0 
L 603 4863 
z
" transform="scale(0.015625)"/>
      <path id="DejaVuSans-6d" d="M 3328 2828 
Q 3544 3216 3844 3400 
Q 4144 3584 4550 3584 
Q 5097 3584 5394 3201 
Q 5691 2819 5691 2113 
L 5691 0 
L 5113 0 
L 5113 2094 
Q 5113 2597 4934 2840 
Q 4756 3084 4391 3084 
Q 3944 3084 3684 2787 
Q 3425 2491 3425 1978 
L 3425 0 
L 2847 0 
L 2847 2094 
Q 2847 2600 2669 2842 
Q 2491 3084 2119 3084 
Q 1678 3084 1418 2786 
Q 1159 2488 1159 1978 
L 1159 0 
L 581 0 
L 581 3500 
L 1159 3500 
L 1159 2956 
Q 1356 3278 1631 3431 
Q 1906 3584 2284 3584 
Q 2666 3584 2933 3390 
Q 3200 3197 3328 2828 
z
" transform="scale(0.015625)"/>
     </defs>
     <use xlink:href="#DejaVuSans-51"/>
     <use xlink:href="#DejaVuSans-75" x="78.710938"/>
     <use xlink:href="#DejaVuSans-65" x="142.089844"/>
     <use xlink:href="#DejaVuSans-75" x="203.613281"/>
     <use xlink:href="#DejaVuSans-65" x="266.992188"/>
     <use xlink:href="#DejaVuSans-20" x="328.515625"/>
     <use xlink:href="#DejaVuSans-73" x="360.302734"/>
     <use xlink:href="#DejaVuSans-69" x="412.402344"/>
     <use xlink:href="#DejaVuSans-7a" x="440.185547"/>
     <use xlink:href="#DejaVuSans-65" x="492.675781"/>
     <use xlink:href="#DejaVuSans-20" x="554.199219"/>
     <use xlink:href="#DejaVuSans-28" x="585.986328"/>
     <use xlink:href="#DejaVuSans-79" x="625"/>
     <use xlink:href="#DejaVuSans-2d" x="682.429688"/>
     <use xlink:href="#DejaVuSans-61" x="718.513672"/>
     <use xlink:href="#DejaVuSans-78" x="779.792969"/>
     <use xlink:href="#DejaVuSans-69" x="838.972656"/>
     <use xlink:href="#DejaVuSans-73" x="866.755859"/>
     <use xlink:href="#DejaVuSans-29" x="918.855469"/>
     <use xlink:href="#DejaVuSans-20" x="957.869141"/>
     <use xlink:href="#DejaVuSans-62" x="989.65625"/>
     <use xlink:href="#DejaVuSans-65" x="1053.132812"/>
     <use xlink:href="#DejaVuSans-74" x="1114.65625"/>
     <use xlink:href="#DejaVuSans-77" x="1153.865234"/>
     <use xlink:href="#DejaVuSans-65" x="1235.652344"/>
     <use xlink:href="#DejaVuSans-65" x="1297.175781"/>
     <use xlink:href="#DejaVuSans-6e" x="1358.699219"/>
     <use xlink:href="#DejaVuSans-20" x="1422.078125"/>
     <use xlink:href="#DejaVuSans-53" x="1453.865234"/>
     <use xlink:href="#DejaVuSans-32" x="1517.341797"/>
     <use xlink:href="#DejaVuSans-20" x="1580.964844"/>
     <use xlink:href="#DejaVuSans-61" x="1612.751953"/>
     <use xlink:href="#DejaVuSans-6e" x="1674.03125"/>
     <use xlink:href="#DejaVuSans-64" x="1737.410156"/>
     <use xlink:href="#DejaVuSans-20" x="1800.886719"/>
     <use xlink:href="#DejaVuSans-73" x="1832.673828"/>
     <use xlink:href="#DejaVuSans-65" x="1884.773438"/>
     <use xlink:href="#DejaVuSans-6e" x="1946.296875"/>
     <use xlink:href="#DejaVuSans-73" x="2009.675781"/>
     <use xlink:href="#DejaVuSans-6f" x="2061.775391"/>
     <use xlink:href="#DejaVuSans-72" x="2122.957031"/>
     <use xlink:href="#DejaVuSans-73" x="2164.070312"/>
     <use xlink:href="#DejaVuSans-20" x="2216.169922"/>
     <use xlink:href="#DejaVuSans-74" x="2247.957031"/>
     <use xlink:href="#DejaVuSans-68" x="2287.166016"/>
     <use xlink:href="#DejaVuSans-61" x="2350.544922"/>
     <use xlink:href="#DejaVuSans-74" x="2411.824219"/>
     <use xlink:href="#DejaVuSans-20" x="2451.033203"/>
     <use xlink:href="#DejaVuSans-66" x="2482.820312"/>
     <use xlink:href="#DejaVuSans-6f" x="2518.025391"/>
     <use xlink:href="#DejaVuSans-6c" x="2579.207031"/>
     <use xlink:href="#DejaVuSans-6c" x="2606.990234"/>
     <use xlink:href="#DejaVuSans-6f" x="2634.773438"/>
     <use xlink:href="#DejaVuSans-77" x="2695.955078"/>
     <use xlink:href="#DejaVuSans-20" x="2777.742188"/>
     <use xlink:href="#DejaVuSans-61" x="2809.529297"/>
     <use xlink:href="#DejaVuSans-74" x="2870.808594"/>
     <use xlink:href="#DejaVuSans-20" x="2910.017578"/>
     <use xlink:href="#DejaVuSans-61" x="2941.804688"/>
     <use xlink:href="#DejaVuSans-20" x="3003.083984"/>
     <use xlink:href="#DejaVuSans-74" x="3034.871094"/>
     <use xlink:href="#DejaVuSans-69" x="3074.080078"/>
     <use xlink:href="#DejaVuSans-6d" x="3101.863281"/>
     <use xlink:href="#DejaVuSans-65" x="3199.275391"/>
     <use xlink:href="#DejaVuSans-20" x="3260.798828"/>
     <use xlink:href="#DejaVuSans-28" x="3292.585938"/>
     <use xlink:href="#DejaVuSans-78" x="3331.599609"/>
     <use xlink:href="#DejaVuSans-2d" x="3390.779297"/>
     <use xlink:href="#DejaVuSans-61" x="3426.863281"/>
     <use xlink:href="#DejaVuSans-78" x="3488.142578"/>
     <use xlink:href="#DejaVuSans-69" x="3547.322266"/>
     <use xlink:href="#DejaVuSans-73" x="3575.105469"/>
     <use xlink:href="#DejaVuSans-29" x="3627.205078"/>
     <use xlink:href="#DejaVuSans-2e" x="3666.21875"/>
    </g>
   </g>
  </g>
 </g>
 <defs>
  <clipPath id="p111374f266">
   <rect x="57.6" y="41.472" width="357.12" height="266.112"/>
  </clipPath>
 </defs>
</svg>
