<?xml version="1.0" encoding="utf-8" standalone="no"?>
<!DOCTYPE svg PUBLIC "-//W3C//DTD SVG 1.1//EN"
  "http://www.w3.org/Graphics/SVG/1.1/DTD/svg11.dtd">
<svg xmlns:xlink="http://www.w3.org/1999/xlink" width="460.8pt" height="345.6pt" viewBox="0 0 460.8 345.6" xmlns="http://www.w3.org/2000/svg" version="1.1">
 <metadata>
  <rdf:RDF xmlns:dc="http://purl.org/dc/elements/1.1/" xmlns:cc="http://creativecommons.org/ns#" xmlns:rdf="http://www.w3.org/1999/02/22-rdf-syntax-ns#">
   <cc:Work>
    <dc:type rdf:resource="http://purl.org/dc/dcmitype/StillImage"/>
    <dc:date>2024-03-08T11:04:52.917324</dc:date>
    <dc:format>image/svg+xml</dc:format>
    <dc:creator>
     <cc:Agent>
      <dc:title>Matplotlib v3.8.2, https://matplotlib.org/</dc:title>
     </cc:Agent>
    </dc:creator>
   </cc:Work>
  </rdf:RDF>
 </metadata>
 <defs>
  <style type="text/css">*{stroke-linejoin: round; stroke-linecap: butt}</style>
 </defs>
 <g id="figure_1">
  <g id="patch_1">
   <path d="M 0 345.6 
L 460.8 345.6 
L 460.8 0 
L 0 0 
z
" style="fill: #ffffff"/>
  </g>
  <g id="axes_1">
   <g id="patch_2">
    <path d="M 57.6 307.584 
L 414.72 307.584 
L 414.72 41.472 
L 57.6 41.472 
z
" style="fill: #ffffff"/>
   </g>
   <g id="matplotlib.axis_1">
    <g id="xtick_1">
     <g id="line2d_1">
      <defs>
       <path id="m49bc193cf4" d="M 0 0 
L 0 3.5 
" style="stroke: #000000; stroke-width: 0.8"/>
      </defs>
      <g>
       <use xlink:href="#m49bc193cf4" x="73.327797" y="307.584" style="stroke: #000000; stroke-width: 0.8"/>
      </g>
     </g>
     <g id="text_1">
      <!-- 0.0 -->
      <g transform="translate(65.376235 322.182437) scale(0.1 -0.1)">
       <defs>
        <path id="DejaVuSans-30" d="M 2034 4250 
Q 1547 4250 1301 3770 
Q 1056 3291 1056 2328 
Q 1056 1369 1301 889 
Q 1547 409 2034 409 
Q 2525 409 2770 889 
Q 3016 1369 3016 2328 
Q 3016 3291 2770 3770 
Q 2525 4250 2034 4250 
z
M 2034 4750 
Q 2819 4750 3233 4129 
Q 3647 3509 3647 2328 
Q 3647 1150 3233 529 
Q 2819 -91 2034 -91 
Q 1250 -91 836 529 
Q 422 1150 422 2328 
Q 422 3509 836 4129 
Q 1250 4750 2034 4750 
z
" transform="scale(0.015625)"/>
        <path id="DejaVuSans-2e" d="M 684 794 
L 1344 794 
L 1344 0 
L 684 0 
L 684 794 
z
" transform="scale(0.015625)"/>
       </defs>
       <use xlink:href="#DejaVuSans-30"/>
       <use xlink:href="#DejaVuSans-2e" x="63.623047"/>
       <use xlink:href="#DejaVuSans-30" x="95.410156"/>
      </g>
     </g>
    </g>
    <g id="xtick_2">
     <g id="line2d_2">
      <g>
       <use xlink:href="#m49bc193cf4" x="118.49147" y="307.584" style="stroke: #000000; stroke-width: 0.8"/>
      </g>
     </g>
     <g id="text_2">
      <!-- 0.5 -->
      <g transform="translate(110.539908 322.182437) scale(0.1 -0.1)">
       <defs>
        <path id="DejaVuSans-35" d="M 691 4666 
L 3169 4666 
L 3169 4134 
L 1269 4134 
L 1269 2991 
Q 1406 3038 1543 3061 
Q 1681 3084 1819 3084 
Q 2600 3084 3056 2656 
Q 3513 2228 3513 1497 
Q 3513 744 3044 326 
Q 2575 -91 1722 -91 
Q 1428 -91 1123 -41 
Q 819 9 494 109 
L 494 744 
Q 775 591 1075 516 
Q 1375 441 1709 441 
Q 2250 441 2565 725 
Q 2881 1009 2881 1497 
Q 2881 1984 2565 2268 
Q 2250 2553 1709 2553 
Q 1456 2553 1204 2497 
Q 953 2441 691 2322 
L 691 4666 
z
" transform="scale(0.015625)"/>
       </defs>
       <use xlink:href="#DejaVuSans-30"/>
       <use xlink:href="#DejaVuSans-2e" x="63.623047"/>
       <use xlink:href="#DejaVuSans-35" x="95.410156"/>
      </g>
     </g>
    </g>
    <g id="xtick_3">
     <g id="line2d_3">
      <g>
       <use xlink:href="#m49bc193cf4" x="163.655143" y="307.584" style="stroke: #000000; stroke-width: 0.8"/>
      </g>
     </g>
     <g id="text_3">
      <!-- 1.0 -->
      <g transform="translate(155.70358 322.182437) scale(0.1 -0.1)">
       <defs>
        <path id="DejaVuSans-31" d="M 794 531 
L 1825 531 
L 1825 4091 
L 703 3866 
L 703 4441 
L 1819 4666 
L 2450 4666 
L 2450 531 
L 3481 531 
L 3481 0 
L 794 0 
L 794 531 
z
" transform="scale(0.015625)"/>
       </defs>
       <use xlink:href="#DejaVuSans-31"/>
       <use xlink:href="#DejaVuSans-2e" x="63.623047"/>
       <use xlink:href="#DejaVuSans-30" x="95.410156"/>
      </g>
     </g>
    </g>
    <g id="xtick_4">
     <g id="line2d_4">
      <g>
       <use xlink:href="#m49bc193cf4" x="208.818816" y="307.584" style="stroke: #000000; stroke-width: 0.8"/>
      </g>
     </g>
     <g id="text_4">
      <!-- 1.5 -->
      <g transform="translate(200.867253 322.182437) scale(0.1 -0.1)">
       <use xlink:href="#DejaVuSans-31"/>
       <use xlink:href="#DejaVuSans-2e" x="63.623047"/>
       <use xlink:href="#DejaVuSans-35" x="95.410156"/>
      </g>
     </g>
    </g>
    <g id="xtick_5">
     <g id="line2d_5">
      <g>
       <use xlink:href="#m49bc193cf4" x="253.982489" y="307.584" style="stroke: #000000; stroke-width: 0.8"/>
      </g>
     </g>
     <g id="text_5">
      <!-- 2.0 -->
      <g transform="translate(246.030926 322.182437) scale(0.1 -0.1)">
       <defs>
        <path id="DejaVuSans-32" d="M 1228 531 
L 3431 531 
L 3431 0 
L 469 0 
L 469 531 
Q 828 903 1448 1529 
Q 2069 2156 2228 2338 
Q 2531 2678 2651 2914 
Q 2772 3150 2772 3378 
Q 2772 3750 2511 3984 
Q 2250 4219 1831 4219 
Q 1534 4219 1204 4116 
Q 875 4013 500 3803 
L 500 4441 
Q 881 4594 1212 4672 
Q 1544 4750 1819 4750 
Q 2544 4750 2975 4387 
Q 3406 4025 3406 3419 
Q 3406 3131 3298 2873 
Q 3191 2616 2906 2266 
Q 2828 2175 2409 1742 
Q 1991 1309 1228 531 
z
" transform="scale(0.015625)"/>
       </defs>
       <use xlink:href="#DejaVuSans-32"/>
       <use xlink:href="#DejaVuSans-2e" x="63.623047"/>
       <use xlink:href="#DejaVuSans-30" x="95.410156"/>
      </g>
     </g>
    </g>
    <g id="xtick_6">
     <g id="line2d_6">
      <g>
       <use xlink:href="#m49bc193cf4" x="299.146161" y="307.584" style="stroke: #000000; stroke-width: 0.8"/>
      </g>
     </g>
     <g id="text_6">
      <!-- 2.5 -->
      <g transform="translate(291.194599 322.182437) scale(0.1 -0.1)">
       <use xlink:href="#DejaVuSans-32"/>
       <use xlink:href="#DejaVuSans-2e" x="63.623047"/>
       <use xlink:href="#DejaVuSans-35" x="95.410156"/>
      </g>
     </g>
    </g>
    <g id="xtick_7">
     <g id="line2d_7">
      <g>
       <use xlink:href="#m49bc193cf4" x="344.309834" y="307.584" style="stroke: #000000; stroke-width: 0.8"/>
      </g>
     </g>
     <g id="text_7">
      <!-- 3.0 -->
      <g transform="translate(336.358272 322.182437) scale(0.1 -0.1)">
       <defs>
        <path id="DejaVuSans-33" d="M 2597 2516 
Q 3050 2419 3304 2112 
Q 3559 1806 3559 1356 
Q 3559 666 3084 287 
Q 2609 -91 1734 -91 
Q 1441 -91 1130 -33 
Q 819 25 488 141 
L 488 750 
Q 750 597 1062 519 
Q 1375 441 1716 441 
Q 2309 441 2620 675 
Q 2931 909 2931 1356 
Q 2931 1769 2642 2001 
Q 2353 2234 1838 2234 
L 1294 2234 
L 1294 2753 
L 1863 2753 
Q 2328 2753 2575 2939 
Q 2822 3125 2822 3475 
Q 2822 3834 2567 4026 
Q 2313 4219 1838 4219 
Q 1578 4219 1281 4162 
Q 984 4106 628 3988 
L 628 4550 
Q 988 4650 1302 4700 
Q 1616 4750 1894 4750 
Q 2613 4750 3031 4423 
Q 3450 4097 3450 3541 
Q 3450 3153 3228 2886 
Q 3006 2619 2597 2516 
z
" transform="scale(0.015625)"/>
       </defs>
       <use xlink:href="#DejaVuSans-33"/>
       <use xlink:href="#DejaVuSans-2e" x="63.623047"/>
       <use xlink:href="#DejaVuSans-30" x="95.410156"/>
      </g>
     </g>
    </g>
    <g id="xtick_8">
     <g id="line2d_8">
      <g>
       <use xlink:href="#m49bc193cf4" x="389.473507" y="307.584" style="stroke: #000000; stroke-width: 0.8"/>
      </g>
     </g>
     <g id="text_8">
      <!-- 3.5 -->
      <g transform="translate(381.521944 322.182437) scale(0.1 -0.1)">
       <use xlink:href="#DejaVuSans-33"/>
       <use xlink:href="#DejaVuSans-2e" x="63.623047"/>
       <use xlink:href="#DejaVuSans-35" x="95.410156"/>
      </g>
     </g>
    </g>
    <g id="text_9">
     <!-- 1e6 -->
     <g transform="translate(395.841875 334.860562) scale(0.1 -0.1)">
      <defs>
       <path id="DejaVuSans-65" d="M 3597 1894 
L 3597 1613 
L 953 1613 
Q 991 1019 1311 708 
Q 1631 397 2203 397 
Q 2534 397 2845 478 
Q 3156 559 3463 722 
L 3463 178 
Q 3153 47 2828 -22 
Q 2503 -91 2169 -91 
Q 1331 -91 842 396 
Q 353 884 353 1716 
Q 353 2575 817 3079 
Q 1281 3584 2069 3584 
Q 2775 3584 3186 3129 
Q 3597 2675 3597 1894 
z
M 3022 2063 
Q 3016 2534 2758 2815 
Q 2500 3097 2075 3097 
Q 1594 3097 1305 2825 
Q 1016 2553 972 2059 
L 3022 2063 
z
" transform="scale(0.015625)"/>
       <path id="DejaVuSans-36" d="M 2113 2584 
Q 1688 2584 1439 2293 
Q 1191 2003 1191 1497 
Q 1191 994 1439 701 
Q 1688 409 2113 409 
Q 2538 409 2786 701 
Q 3034 994 3034 1497 
Q 3034 2003 2786 2293 
Q 2538 2584 2113 2584 
z
M 3366 4563 
L 3366 3988 
Q 3128 4100 2886 4159 
Q 2644 4219 2406 4219 
Q 1781 4219 1451 3797 
Q 1122 3375 1075 2522 
Q 1259 2794 1537 2939 
Q 1816 3084 2150 3084 
Q 2853 3084 3261 2657 
Q 3669 2231 3669 1497 
Q 3669 778 3244 343 
Q 2819 -91 2113 -91 
Q 1303 -91 875 529 
Q 447 1150 447 2328 
Q 447 3434 972 4092 
Q 1497 4750 2381 4750 
Q 2619 4750 2861 4703 
Q 3103 4656 3366 4563 
z
" transform="scale(0.015625)"/>
      </defs>
      <use xlink:href="#DejaVuSans-31"/>
      <use xlink:href="#DejaVuSans-65" x="63.623047"/>
      <use xlink:href="#DejaVuSans-36" x="125.146484"/>
     </g>
    </g>
   </g>
   <g id="matplotlib.axis_2">
    <g id="ytick_1">
     <g id="line2d_9">
      <defs>
       <path id="m07029d2554" d="M 0 0 
L -3.5 0 
" style="stroke: #000000; stroke-width: 0.8"/>
      </defs>
      <g>
       <use xlink:href="#m07029d2554" x="57.6" y="295.488" style="stroke: #000000; stroke-width: 0.8"/>
      </g>
     </g>
     <g id="text_10">
      <!-- 0 -->
      <g transform="translate(44.2375 299.287219) scale(0.1 -0.1)">
       <use xlink:href="#DejaVuSans-30"/>
      </g>
     </g>
    </g>
    <g id="ytick_2">
     <g id="line2d_10">
      <g>
       <use xlink:href="#m07029d2554" x="57.6" y="253.777655" style="stroke: #000000; stroke-width: 0.8"/>
      </g>
     </g>
     <g id="text_11">
      <!-- 5 -->
      <g transform="translate(44.2375 257.576874) scale(0.1 -0.1)">
       <use xlink:href="#DejaVuSans-35"/>
      </g>
     </g>
    </g>
    <g id="ytick_3">
     <g id="line2d_11">
      <g>
       <use xlink:href="#m07029d2554" x="57.6" y="212.06731" style="stroke: #000000; stroke-width: 0.8"/>
      </g>
     </g>
     <g id="text_12">
      <!-- 10 -->
      <g transform="translate(37.875 215.866529) scale(0.1 -0.1)">
       <use xlink:href="#DejaVuSans-31"/>
       <use xlink:href="#DejaVuSans-30" x="63.623047"/>
      </g>
     </g>
    </g>
    <g id="ytick_4">
     <g id="line2d_12">
      <g>
       <use xlink:href="#m07029d2554" x="57.6" y="170.356966" style="stroke: #000000; stroke-width: 0.8"/>
      </g>
     </g>
     <g id="text_13">
      <!-- 15 -->
      <g transform="translate(37.875 174.156184) scale(0.1 -0.1)">
       <use xlink:href="#DejaVuSans-31"/>
       <use xlink:href="#DejaVuSans-35" x="63.623047"/>
      </g>
     </g>
    </g>
    <g id="ytick_5">
     <g id="line2d_13">
      <g>
       <use xlink:href="#m07029d2554" x="57.6" y="128.646621" style="stroke: #000000; stroke-width: 0.8"/>
      </g>
     </g>
     <g id="text_14">
      <!-- 20 -->
      <g transform="translate(37.875 132.445839) scale(0.1 -0.1)">
       <use xlink:href="#DejaVuSans-32"/>
       <use xlink:href="#DejaVuSans-30" x="63.623047"/>
      </g>
     </g>
    </g>
    <g id="ytick_6">
     <g id="line2d_14">
      <g>
       <use xlink:href="#m07029d2554" x="57.6" y="86.936276" style="stroke: #000000; stroke-width: 0.8"/>
      </g>
     </g>
     <g id="text_15">
      <!-- 25 -->
      <g transform="translate(37.875 90.735495) scale(0.1 -0.1)">
       <use xlink:href="#DejaVuSans-32"/>
       <use xlink:href="#DejaVuSans-35" x="63.623047"/>
      </g>
     </g>
    </g>
    <g id="ytick_7">
     <g id="line2d_15">
      <g>
       <use xlink:href="#m07029d2554" x="57.6" y="45.225931" style="stroke: #000000; stroke-width: 0.8"/>
      </g>
     </g>
     <g id="text_16">
      <!-- 30 -->
      <g transform="translate(37.875 49.02515) scale(0.1 -0.1)">
       <use xlink:href="#DejaVuSans-33"/>
       <use xlink:href="#DejaVuSans-30" x="63.623047"/>
      </g>
     </g>
    </g>
   </g>
   <g id="line2d_16">
    <path d="M 73.832727 287.145931 
L 74.022415 295.488 
L 74.14797 287.145931 
L 74.33856 295.488 
L 74.462309 287.145931 
L 74.6529 295.488 
L 74.777551 287.145931 
L 74.968142 295.488 
L 75.099117 287.145931 
L 75.289707 295.488 
L 75.414359 287.145931 
L 75.604047 295.488 
L 75.727795 287.145931 
L 75.918386 295.488 
L 76.042134 287.145931 
L 76.231822 295.488 
L 76.362796 287.145931 
L 76.553387 295.488 
L 76.681652 287.145931 
L 76.871339 295.488 
L 76.997797 287.145931 
L 77.188388 295.488 
L 77.314846 287.145931 
L 77.505437 295.488 
L 77.633702 287.145931 
L 77.824293 295.488 
L 77.953461 287.145931 
L 78.144051 295.488 
L 78.27322 287.145931 
L 78.46381 295.488 
L 78.584849 287.145931 
L 78.77544 295.488 
L 84.324248 287.145931 
L 84.44619 262.119724 
L 84.639491 228.751448 
L 84.830082 295.488 
L 84.914086 287.145931 
L 85.103773 295.488 
L 85.222102 287.145931 
L 85.412693 295.488 
L 85.538248 287.145931 
L 85.728839 295.488 
L 85.849877 287.145931 
L 86.040468 295.488 
L 86.168733 287.145931 
L 86.359324 295.488 
L 86.483975 287.145931 
L 86.674566 295.488 
L 86.799218 287.145931 
L 86.989808 295.488 
L 87.11988 287.145931 
L 87.310471 295.488 
L 87.438735 287.145931 
L 87.629326 295.488 
L 87.754881 287.145931 
L 87.945472 295.488 
L 88.073737 287.145931 
L 88.264327 295.488 
L 88.388979 287.145931 
L 88.57957 295.488 
L 88.706028 287.145931 
L 88.896619 295.488 
L 89.015851 287.145931 
L 89.206441 295.488 
L 89.331996 287.145931 
L 89.522587 295.488 
L 89.646336 287.145931 
L 89.836926 295.488 
L 89.958868 287.145931 
L 90.148556 295.488 
L 90.278627 287.145931 
L 90.469218 295.488 
L 90.587547 287.145931 
L 90.778137 295.488 
L 90.901886 287.145931 
L 91.091573 295.488 
L 91.218031 287.145931 
L 91.408622 295.488 
L 91.541403 287.145931 
L 91.731994 295.488 
L 91.855743 287.145931 
L 92.046333 295.488 
L 92.168275 287.145931 
L 92.358866 295.488 
L 92.479001 287.145931 
L 92.669592 295.488 
L 92.79334 287.145931 
L 92.983931 295.488 
L 93.108583 287.145931 
L 93.299174 295.488 
L 93.419309 287.145931 
L 93.6099 295.488 
L 93.734551 287.145931 
L 93.925142 295.488 
L 94.053407 287.145931 
L 94.243998 295.488 
L 94.372262 287.145931 
L 94.562853 295.488 
L 94.685698 287.145931 
L 94.876289 295.488 
L 95.005457 287.145931 
L 95.196048 295.488 
L 95.3207 287.145931 
L 95.51129 295.488 
L 95.639555 287.145931 
L 95.830146 295.488 
L 95.952991 287.145931 
L 96.142678 295.488 
L 96.270943 287.145931 
L 96.461534 295.488 
L 96.590702 287.145931 
L 96.781293 295.488 
L 96.901428 287.145931 
L 97.092019 295.488 
L 97.214864 287.145931 
L 97.405455 295.488 
L 97.530106 287.145931 
L 97.720697 295.488 
L 97.839026 287.145931 
L 98.161495 278.803862 
L 98.352085 295.488 
L 98.470414 287.145931 
L 98.661005 295.488 
L 98.792883 287.145931 
L 98.983473 295.488 
L 99.116255 287.145931 
L 99.306845 295.488 
L 99.436917 287.145931 
L 99.627507 295.488 
L 99.758482 287.145931 
L 99.949073 295.488 
L 100.072821 287.145931 
L 100.263412 295.488 
L 100.388967 287.145931 
L 100.579558 295.488 
L 100.709629 287.145931 
L 101.027581 278.803862 
L 101.218172 295.488 
L 101.346437 287.145931 
L 101.537027 295.488 
L 101.657163 287.145931 
L 101.847754 295.488 
L 101.966082 287.145931 
L 102.156673 295.488 
L 102.283131 287.145931 
L 102.473722 295.488 
L 102.59747 287.145931 
L 102.788061 295.488 
L 102.921746 287.145931 
L 103.112336 295.488 
L 103.237891 287.145931 
L 103.427579 295.488 
L 103.555844 287.145931 
L 103.746434 295.488 
L 103.871989 287.145931 
L 104.061677 295.488 
L 104.191748 287.145931 
L 104.382339 295.488 
L 104.507894 287.145931 
L 104.697581 295.488 
L 104.819523 287.145931 
L 105.010114 295.488 
L 105.138379 287.145931 
L 105.328969 295.488 
L 105.457234 287.145931 
L 105.647825 295.488 
L 105.771573 287.145931 
L 105.962164 295.488 
L 106.091332 287.145931 
L 106.281923 295.488 
L 106.410188 287.145931 
L 106.600778 295.488 
L 106.729947 287.145931 
L 106.919634 295.488 
L 107.045189 287.145931 
L 107.23578 295.488 
L 107.357722 287.145931 
L 107.547409 295.488 
L 107.672061 287.145931 
L 107.862651 295.488 
L 107.990916 287.145931 
L 108.181507 295.488 
L 108.304352 287.145931 
L 108.494943 295.488 
L 108.616885 287.145931 
L 108.807475 295.488 
L 108.928514 287.145931 
L 109.119105 295.488 
L 109.246466 287.145931 
L 109.437057 295.488 
L 109.559902 287.145931 
L 109.750493 295.488 
L 109.879661 287.145931 
L 110.069348 295.488 
L 110.197613 287.145931 
L 110.388204 295.488 
L 111.091854 287.145931 
L 111.280638 295.488 
L 111.314059 287.145931 
L 111.502843 295.488 
L 111.542588 287.145931 
L 111.730468 295.488 
L 111.765696 287.145931 
L 111.953577 295.488 
L 111.989708 287.145931 
L 112.177589 295.488 
L 112.21372 287.145931 
L 112.401601 295.488 
L 112.434118 287.145931 
L 112.622903 295.488 
L 112.657227 287.145931 
L 112.846011 295.488 
L 112.879432 287.145931 
L 113.068216 295.488 
L 113.103444 287.145931 
L 113.291325 295.488 
L 113.333779 287.145931 
L 113.522563 295.488 
L 113.561404 287.145931 
L 113.749285 295.488 
L 113.790835 287.145931 
L 113.979619 295.488 
L 114.016653 287.145931 
L 114.205438 295.488 
L 114.246988 287.145931 
L 114.434869 295.488 
L 114.475516 287.145931 
L 114.664301 295.488 
L 114.701335 287.145931 
L 114.889216 295.488 
L 114.927153 287.145931 
L 115.115937 295.488 
L 115.152972 287.145931 
L 115.341756 295.488 
L 115.3815 287.145931 
L 115.569381 295.488 
L 115.607318 287.145931 
L 115.796102 295.488 
L 115.832233 287.145931 
L 116.020114 295.488 
L 116.057148 287.145931 
L 116.245932 295.488 
L 116.287483 287.145931 
L 116.476267 295.488 
L 116.511495 287.145931 
L 122.155147 278.803862 
L 122.322253 270.461793 
L 122.497488 162.014897 
L 122.538135 170.356966 
L 122.737759 178.699034 
L 127.536851 187.041103 
L 127.683181 178.699034 
L 127.80422 187.041103 
L 127.908999 145.330759 
L 128.049007 103.620414 
L 128.05262 111.962483 
L 128.428381 295.488 
L 128.461803 287.145931 
L 128.650587 295.488 
L 128.685814 287.145931 
L 128.873695 295.488 
L 128.91073 287.145931 
L 129.099514 295.488 
L 129.140161 287.145931 
L 129.328042 295.488 
L 129.366883 287.145931 
L 129.554763 295.488 
L 129.588185 287.145931 
L 129.776065 295.488 
L 129.81581 287.145931 
L 130.00369 295.488 
L 130.046144 287.145931 
L 130.234928 295.488 
L 130.271059 287.145931 
L 130.459843 295.488 
L 130.500491 287.145931 
L 130.688372 295.488 
L 130.727212 287.145931 
L 130.915997 295.488 
L 130.953934 287.145931 
L 131.142718 295.488 
L 131.180656 287.145931 
L 131.368537 295.488 
L 131.400151 287.145931 
L 131.588032 295.488 
L 131.628679 287.145931 
L 131.817463 295.488 
L 131.850885 287.145931 
L 132.039669 295.488 
L 132.074896 287.145931 
L 132.263681 295.488 
L 132.304328 287.145931 
L 132.493112 295.488 
L 132.531953 287.145931 
L 132.719834 295.488 
L 132.759578 287.145931 
L 132.948362 295.488 
L 132.98359 287.145931 
L 133.17147 295.488 
L 133.207601 287.145931 
L 133.396385 295.488 
L 133.43342 287.145931 
L 133.622204 295.488 
L 133.658335 287.145931 
L 133.847119 295.488 
L 133.88054 287.145931 
L 134.069324 295.488 
L 134.101842 287.145931 
L 134.289723 295.488 
L 134.33037 287.145931 
L 134.519154 295.488 
L 134.551672 287.145931 
L 134.740456 295.488 
L 134.777491 287.145931 
L 134.965371 295.488 
L 135.000599 287.145931 
L 135.18848 295.488 
L 135.225514 287.145931 
L 135.413395 295.488 
L 135.449526 287.145931 
L 135.63831 295.488 
L 135.671731 287.145931 
L 135.859612 295.488 
L 135.896646 287.145931 
L 136.084527 295.488 
L 136.121562 287.145931 
L 136.310346 295.488 
L 136.34467 287.145931 
L 136.533454 295.488 
L 136.569585 287.145931 
L 136.757466 295.488 
L 136.793597 287.145931 
L 136.982381 295.488 
L 137.017609 287.145931 
L 137.206393 295.488 
L 137.247944 287.145931 
L 137.435824 295.488 
L 137.474665 287.145931 
L 137.663449 295.488 
L 137.698677 287.145931 
L 137.887461 295.488 
L 137.920882 287.145931 
L 138.108763 295.488 
L 138.14941 287.145931 
L 138.338195 295.488 
L 138.378842 287.145931 
L 138.566723 295.488 
L 138.602854 287.145931 
L 138.791638 295.488 
L 138.826866 287.145931 
L 139.01565 295.488 
L 139.058104 287.145931 
L 139.245984 295.488 
L 139.283922 287.145931 
L 139.471803 295.488 
L 139.504321 287.145931 
L 139.693105 295.488 
L 139.733752 287.145931 
L 139.921633 295.488 
L 139.955957 287.145931 
L 140.144741 295.488 
L 140.184486 287.145931 
L 140.37327 295.488 
L 140.405788 287.145931 
L 140.594572 295.488 
L 140.627993 287.145931 
L 140.816777 295.488 
L 140.857424 287.145931 
L 141.046208 295.488 
L 141.087759 287.145931 
L 141.27564 295.488 
L 141.311771 287.145931 
L 141.500555 295.488 
L 141.543009 287.145931 
L 141.73089 295.488 
L 141.76973 287.145931 
L 141.958515 295.488 
L 141.993742 287.145931 
L 142.181623 295.488 
L 142.219561 287.145931 
L 142.407441 295.488 
L 142.440863 287.145931 
L 142.628743 295.488 
L 142.671197 287.145931 
L 142.859078 295.488 
L 142.897016 287.145931 
L 143.084897 295.488 
L 143.123737 287.145931 
L 143.311618 295.488 
L 143.352266 287.145931 
L 143.54105 295.488 
L 143.576277 287.145931 
L 143.765061 295.488 
L 143.801192 287.145931 
L 146.511916 187.041103 
L 146.943681 178.699034 
L 149.209994 187.041103 
L 149.391552 295.488 
L 154.632344 287.145931 
L 154.976492 136.98869 
L 155.055076 170.356966 
L 155.154436 178.699034 
L 165.474336 187.041103 
L 165.620666 195.383172 
L 165.789578 295.488 
L 170.88675 287.145931 
L 171.261609 95.278345 
L 171.270641 103.620414 
L 171.478394 178.699034 
L 176.313617 187.041103 
L 176.459947 178.699034 
L 176.580986 187.041103 
L 176.701122 136.98869 
L 176.840226 103.620414 
L 176.844742 111.962483 
L 177.010041 270.461793 
L 177.038946 287.145931 
L 177.184373 295.488 
L 177.224117 287.145931 
L 177.412901 295.488 
L 177.448129 287.145931 
L 177.63601 295.488 
L 177.673044 287.145931 
L 177.861828 295.488 
L 177.897056 287.145931 
L 178.084936 295.488 
L 178.116551 287.145931 
L 178.305335 295.488 
L 178.341466 287.145931 
L 178.53025 295.488 
L 178.569994 287.145931 
L 178.758778 295.488 
L 178.798522 287.145931 
L 178.987307 295.488 
L 179.025244 287.145931 
L 179.214028 295.488 
L 179.251062 287.145931 
L 179.439847 295.488 
L 179.477784 287.145931 
L 179.665665 295.488 
L 179.700893 287.145931 
L 179.924904 278.803862 
L 180.084784 287.145931 
L 180.113689 295.488 
L 180.155239 287.145931 
L 180.34312 295.488 
L 180.382864 287.145931 
L 180.571648 295.488 
L 180.604166 287.145931 
L 180.79295 295.488 
L 180.826371 287.145931 
L 181.015156 295.488 
L 181.051286 287.145931 
L 181.240071 295.488 
L 181.272588 287.145931 
L 181.460469 295.488 
L 181.497504 287.145931 
L 181.686288 295.488 
L 181.722419 287.145931 
L 181.9103 295.488 
L 181.94914 287.145931 
L 182.137924 295.488 
L 182.180378 287.145931 
L 182.368259 295.488 
L 182.402584 287.145931 
L 182.591368 295.488 
L 182.627499 287.145931 
L 182.816283 295.488 
L 182.85422 287.145931 
L 183.043004 295.488 
L 183.075522 287.145931 
L 183.264306 295.488 
L 183.30676 287.145931 
L 183.495544 295.488 
L 183.533482 287.145931 
L 183.721363 295.488 
L 183.753881 287.145931 
L 183.941762 295.488 
L 183.976086 287.145931 
L 184.16487 295.488 
L 184.201904 287.145931 
L 184.389785 295.488 
L 184.425013 287.145931 
L 184.613797 295.488 
L 184.645412 287.145931 
L 184.834196 295.488 
L 184.867617 287.145931 
L 185.056401 295.488 
L 185.093435 287.145931 
L 185.282219 295.488 
L 185.317447 287.145931 
L 185.506231 295.488 
L 185.538749 287.145931 
L 185.72663 295.488 
L 185.758244 287.145931 
L 185.947029 295.488 
L 185.985869 287.145931 
L 186.17375 295.488 
L 186.216204 287.145931 
L 186.404988 295.488 
L 186.441119 287.145931 
L 186.629903 295.488 
L 186.666938 287.145931 
L 186.855722 295.488 
L 186.890949 287.145931 
L 187.079734 295.488 
L 187.114058 287.145931 
L 187.302842 295.488 
L 187.338973 287.145931 
L 187.526854 295.488 
L 187.564791 287.145931 
L 187.752672 295.488 
L 187.789706 287.145931 
L 187.977587 295.488 
L 188.011008 287.145931 
L 188.198889 295.488 
L 188.23773 287.145931 
L 188.426514 295.488 
L 188.465355 287.145931 
L 188.653236 295.488 
L 188.689367 287.145931 
L 188.877248 295.488 
L 189.792264 287.145931 
L 189.982854 295.488 
L 190.109313 287.145931 
L 190.299 295.488 
L 190.429975 287.145931 
L 190.620565 295.488 
L 190.747927 287.145931 
L 190.938518 295.488 
L 191.058653 287.145931 
L 191.249244 295.488 
L 191.379315 287.145931 
L 191.569906 295.488 
L 191.693654 287.145931 
L 192.006187 278.803862 
L 192.196778 295.488 
L 192.320526 287.145931 
L 192.511117 295.488 
L 192.642091 287.145931 
L 192.832682 295.488 
L 192.957334 287.145931 
L 193.147925 295.488 
L 193.275286 287.145931 
L 193.465877 295.488 
L 193.595948 287.145931 
L 193.785636 295.488 
L 193.908481 287.145931 
L 194.099072 295.488 
L 194.226433 287.145931 
L 194.417024 295.488 
L 194.537159 287.145931 
L 194.72775 295.488 
L 194.851498 287.145931 
L 195.042089 295.488 
L 195.164031 287.145931 
L 195.354622 295.488 
L 195.48379 287.145931 
L 195.673477 295.488 
L 195.789096 287.145931 
L 195.979687 295.488 
L 196.110662 287.145931 
L 196.301252 295.488 
L 196.428614 287.145931 
L 196.619204 295.488 
L 196.743856 287.145931 
L 196.934447 295.488 
L 197.057292 287.145931 
L 197.247883 295.488 
L 197.368921 287.145931 
L 197.559512 295.488 
L 197.687777 287.145931 
L 197.877464 295.488 
L 208.843204 287.145931 
L 209.033795 295.488 
L 209.20632 237.093517 
L 209.340005 253.777655 
L 209.345424 245.435586 
L 209.420396 270.461793 
L 209.536015 295.488 
L 209.657054 287.145931 
L 209.847644 295.488 
L 209.96778 287.145931 
L 210.15837 295.488 
L 210.277602 287.145931 
L 210.468193 295.488 
L 210.594651 287.145931 
L 210.784339 295.488 
L 210.906281 287.145931 
L 211.096871 295.488 
L 211.225136 287.145931 
L 211.415727 295.488 
L 211.532249 287.145931 
L 211.72284 295.488 
L 211.840265 287.145931 
L 212.029953 295.488 
L 212.158218 287.145931 
L 212.348808 295.488 
L 212.47346 287.145931 
L 212.664051 295.488 
L 212.781476 287.145931 
L 212.972067 295.488 
L 213.096719 287.145931 
L 213.28731 295.488 
L 213.409251 287.145931 
L 213.598939 295.488 
L 213.7263 287.145931 
L 213.916891 295.488 
L 214.045156 287.145931 
L 214.235747 295.488 
L 214.364012 287.145931 
L 214.554602 295.488 
L 214.680157 287.145931 
L 214.870748 295.488 
L 215.005336 287.145931 
L 215.195926 295.488 
L 215.325998 287.145931 
L 215.516588 295.488 
L 215.639434 287.145931 
L 215.830024 295.488 
L 215.957386 287.145931 
L 216.147977 295.488 
L 216.278951 287.145931 
L 216.469542 295.488 
L 216.596 287.145931 
L 216.786591 295.488 
L 216.917566 287.145931 
L 217.108156 295.488 
L 217.232808 287.145931 
L 217.423399 295.488 
L 217.551664 287.145931 
L 217.742254 295.488 
L 217.866906 287.145931 
L 218.057497 295.488 
L 218.183052 287.145931 
L 218.373642 295.488 
L 218.50552 287.145931 
L 218.696111 295.488 
L 218.828892 287.145931 
L 219.019483 295.488 
L 219.142328 287.145931 
L 219.332919 295.488 
L 219.46841 287.145931 
L 219.659001 295.488 
L 219.788169 287.145931 
L 219.977856 295.488 
L 220.110637 287.145931 
L 220.300325 295.488 
L 220.428589 287.145931 
L 220.61918 295.488 
L 220.737509 287.145931 
L 220.9281 295.488 
L 221.045525 287.145931 
L 221.236116 295.488 
L 221.360768 287.145931 
L 221.551358 295.488 
L 221.67872 287.145931 
L 221.869311 295.488 
L 221.991253 287.145931 
L 222.181843 295.488 
L 222.303785 287.145931 
L 222.494376 295.488 
L 222.621737 287.145931 
L 222.812328 295.488 
L 222.945109 287.145931 
L 223.1357 295.488 
L 223.266675 287.145931 
L 223.456362 295.488 
L 223.584627 287.145931 
L 223.775218 295.488 
L 223.899869 287.145931 
L 224.089557 295.488 
L 224.218725 287.145931 
L 224.409316 295.488 
L 224.529451 287.145931 
L 224.720042 295.488 
L 224.84379 287.145931 
L 225.034381 295.488 
L 225.164452 287.145931 
L 227.072166 237.093517 
L 235.931472 245.435586 
L 236.041671 237.093517 
L 236.359623 162.014897 
L 236.56286 287.145931 
L 236.649574 278.803862 
L 236.655897 287.145931 
L 236.825713 278.803862 
L 236.837455 287.145931 
L 237.004561 278.803862 
L 237.013593 287.145931 
L 237.184312 278.803862 
L 237.193345 287.145931 
L 237.367677 278.803862 
L 237.372193 287.145931 
L 237.550138 278.803862 
L 237.555557 287.145931 
L 237.727179 278.803862 
L 237.738019 287.145931 
L 237.906931 278.803862 
L 237.915964 287.145931 
L 238.092102 278.803862 
L 238.094812 287.145931 
L 238.26824 278.803862 
L 238.279983 287.145931 
L 238.447088 278.803862 
L 238.457024 287.145931 
L 238.62955 278.803862 
L 238.634969 287.145931 
L 238.810204 278.803862 
L 238.817431 287.145931 
L 238.990859 278.803862 
L 238.998085 287.145931 
L 239.17061 278.803862 
L 239.17874 287.145931 
L 239.348555 278.803862 
L 239.359395 287.145931 
L 239.53192 278.803862 
L 239.537339 287.145931 
L 239.714381 278.803862 
L 239.719801 287.145931 
L 239.897746 278.803862 
L 239.902262 287.145931 
L 240.08111 278.803862 
L 240.085626 287.145931 
L 240.262668 278.803862 
L 240.268991 287.145931 
L 240.442419 278.803862 
L 240.450549 287.145931 
L 240.621268 278.803862 
L 240.6303 287.145931 
L 240.801019 278.803862 
L 240.809148 287.145931 
L 240.982577 278.803862 
L 240.9889 287.145931 
L 241.167748 278.803862 
L 241.170458 287.145931 
L 241.353822 278.803862 
L 241.356532 287.145931 
L 241.537187 278.803862 
L 241.541703 287.145931 
L 241.716035 278.803862 
L 241.725971 287.145931 
L 241.894883 278.803862 
L 241.903916 287.145931 
L 242.076441 278.803862 
L 242.083667 287.145931 
L 242.258902 278.803862 
L 242.264322 287.145931 
L 242.44317 278.803862 
L 242.446783 287.145931 
L 242.621115 278.803862 
L 242.631051 287.145931 
L 242.802673 278.803862 
L 242.808996 287.145931 
L 242.985134 278.803862 
L 242.990554 287.145931 
L 243.169402 278.803862 
L 243.173015 287.145931 
L 243.34825 278.803862 
L 243.357283 287.145931 
L 243.531615 278.803862 
L 243.536131 287.145931 
L 243.714979 278.803862 
L 243.719496 287.145931 
L 243.89744 278.803862 
L 243.90286 287.145931 
L 244.075385 278.803862 
L 244.085321 287.145931 
L 244.260556 278.803862 
L 244.263266 287.145931 
L 244.442114 278.803862 
L 244.448437 287.145931 
L 244.622769 278.803862 
L 244.629995 287.145931 
L 244.807037 278.803862 
L 244.81065 287.145931 
L 244.988595 278.803862 
L 244.994918 287.145931 
L 245.16654 278.803862 
L 245.176476 287.145931 
L 245.350807 278.803862 
L 245.354421 287.145931 
L 245.531462 278.803862 
L 245.538688 287.145931 
L 245.711214 278.803862 
L 245.719343 287.145931 
L 245.893675 278.803862 
L 245.899094 287.145931 
L 246.077943 278.803862 
L 246.081556 287.145931 
L 246.258597 278.803862 
L 246.266727 287.145931 
L 246.441058 278.803862 
L 246.447381 287.145931 
L 246.62081 278.803862 
L 246.628939 287.145931 
L 246.799658 278.803862 
L 246.808691 287.145931 
L 246.980313 278.803862 
L 246.987539 287.145931 
L 247.162774 278.803862 
L 247.169097 287.145931 
L 247.345235 278.803862 
L 247.351558 287.145931 
L 247.524987 278.803862 
L 247.533116 287.145931 
L 247.704738 278.803862 
L 247.712867 287.145931 
L 247.882683 278.803862 
L 247.892619 287.145931 
L 248.061531 278.803862 
L 248.070564 287.145931 
L 248.244896 278.803862 
L 248.250315 287.145931 
L 248.421937 278.803862 
L 248.432776 287.145931 
L 248.603495 278.803862 
L 248.609818 287.145931 
L 248.785956 278.803862 
L 248.791376 287.145931 
L 248.967514 278.803862 
L 248.973837 287.145931 
L 249.146362 278.803862 
L 249.155395 287.145931 
L 249.328824 278.803862 
L 249.334243 287.145931 
L 249.510382 278.803862 
L 249.516705 287.145931 
L 249.691036 278.803862 
L 249.698263 287.145931 
L 249.873498 278.803862 
L 249.878917 287.145931 
L 250.051442 278.803862 
L 250.061378 287.145931 
L 250.229387 278.803862 
L 250.239323 287.145931 
L 250.410042 278.803862 
L 250.417268 287.145931 
L 250.593407 278.803862 
L 250.597923 287.145931 
L 250.774061 278.803862 
L 250.782191 287.145931 
L 250.951103 278.803862 
L 250.961942 287.145931 
L 251.129048 278.803862 
L 251.139887 287.145931 
L 251.311509 278.803862 
L 251.316929 287.145931 
L 251.495777 278.803862 
L 251.49939 287.145931 
L 251.677335 278.803862 
L 251.683658 287.145931 
L 251.857086 278.803862 
L 251.865216 287.145931 
L 252.040451 278.803862 
L 252.044967 287.145931 
L 252.223815 278.803862 
L 252.229235 287.145931 
L 252.400857 278.803862 
L 252.411696 287.145931 
L 252.583318 278.803862 
L 252.588738 287.145931 
L 252.764876 278.803862 
L 252.771199 287.145931 
L 252.944627 278.803862 
L 252.95366 287.145931 
L 253.127992 278.803862 
L 253.133412 287.145931 
L 253.31226 278.803862 
L 253.315873 287.145931 
L 253.489301 278.803862 
L 253.500141 287.145931 
L 253.670859 278.803862 
L 253.677182 287.145931 
L 253.852417 278.803862 
L 253.85874 287.145931 
L 254.031265 278.803862 
L 254.040298 287.145931 
L 254.20921 278.803862 
L 254.219146 287.145931 
L 254.393478 278.803862 
L 254.397091 287.145931 
L 254.569616 278.803862 
L 254.581359 287.145931 
L 254.745755 278.803862 
L 254.757497 287.145931 
L 254.930022 278.803862 
L 254.933636 287.145931 
L 255.109774 278.803862 
L 255.117903 287.145931 
L 255.290429 278.803862 
L 255.297655 287.145931 
L 255.471986 278.803862 
L 255.479213 287.145931 
L 255.649028 278.803862 
L 255.660771 287.145931 
L 255.828779 278.803862 
L 255.836909 287.145931 
L 256.005821 278.803862 
L 256.01666 287.145931 
L 256.185573 278.803862 
L 256.193702 287.145931 
L 256.366227 278.803862 
L 256.373453 287.145931 
L 256.545075 278.803862 
L 256.554108 287.145931 
L 256.72573 278.803862 
L 256.73386 287.145931 
L 256.907288 278.803862 
L 256.913611 287.145931 
L 257.086136 278.803862 
L 257.095169 287.145931 
L 257.264081 278.803862 
L 257.274017 287.145931 
L 257.442929 278.803862 
L 257.451962 287.145931 
L 257.6281 278.803862 
L 257.63081 287.145931 
L 257.810561 278.803862 
L 257.815981 287.145931 
L 257.993023 278.803862 
L 257.998442 287.145931 
L 258.173677 278.803862 
L 258.180904 287.145931 
L 258.353429 278.803862 
L 258.362462 287.145931 
L 258.53589 278.803862 
L 258.54131 287.145931 
L 258.711125 278.803862 
L 258.723771 287.145931 
L 258.88907 278.803862 
L 258.899909 287.145931 
L 259.071531 278.803862 
L 259.077854 287.145931 
L 259.254896 278.803862 
L 259.259412 287.145931 
L 259.431937 278.803862 
L 259.442777 287.145931 
L 259.613495 278.803862 
L 259.619818 287.145931 
L 259.795957 278.803862 
L 259.801376 287.145931 
L 259.980224 278.803862 
L 259.983837 287.145931 
L 260.162686 278.803862 
L 260.168105 287.145931 
L 260.347857 278.803862 
L 260.35147 287.145931 
L 260.531221 278.803862 
L 260.535737 287.145931 
L 260.708263 278.803862 
L 260.719102 287.145931 
L 260.888917 278.803862 
L 260.896144 287.145931 
L 261.071379 278.803862 
L 261.076798 287.145931 
L 261.25384 278.803862 
L 261.25926 287.145931 
L 261.436301 278.803862 
L 261.441721 287.145931 
L 261.618762 278.803862 
L 261.624182 287.145931 
L 261.80303 278.803862 
L 261.806643 287.145931 
L 261.983685 278.803862 
L 261.990911 287.145931 
L 262.167953 278.803862 
L 262.171566 287.145931 
L 262.347704 278.803862 
L 262.356737 287.145931 
L 262.526552 278.803862 
L 262.535585 287.145931 
L 262.707207 278.803862 
L 262.714433 287.145931 
L 262.887862 278.803862 
L 262.895088 287.145931 
L 263.06671 278.803862 
L 263.075742 287.145931 
L 263.244655 278.803862 
L 263.255494 287.145931 
L 263.427116 278.803862 
L 263.432535 287.145931 
L 263.606867 278.803862 
L 263.614997 287.145931 
L 263.787522 278.803862 
L 263.794748 287.145931 
L 263.967273 278.803862 
L 263.975403 287.145931 
L 264.147928 278.803862 
L 264.156057 287.145931 
L 264.323163 278.803862 
L 264.335809 287.145931 
L 264.501108 278.803862 
L 264.511044 287.145931 
L 264.681763 278.803862 
L 264.688989 287.145931 
L 264.864224 278.803862 
L 264.869644 287.145931 
L 265.049395 278.803862 
L 265.053008 287.145931 
L 265.231856 278.803862 
L 265.237276 287.145931 
L 265.409801 278.803862 
L 265.419737 287.145931 
L 265.591359 278.803862 
L 265.598585 287.145931 
L 265.768401 278.803862 
L 265.77924 287.145931 
L 265.946345 278.803862 
L 265.956281 287.145931 
L 266.127 278.803862 
L 266.13513 287.145931 
L 266.309461 278.803862 
L 266.314881 287.145931 
L 266.487406 278.803862 
L 266.497342 287.145931 
L 266.669868 278.803862 
L 266.67619 287.145931 
L 266.852329 278.803862 
L 266.858652 287.145931 
L 267.031177 278.803862 
L 267.04021 287.145931 
L 267.208218 278.803862 
L 267.219961 287.145931 
L 267.384357 278.803862 
L 267.397003 287.145931 
L 267.564108 278.803862 
L 267.573141 287.145931 
L 267.744763 278.803862 
L 267.752892 287.145931 
L 267.927224 278.803862 
L 267.933547 287.145931 
L 268.107879 278.803862 
L 268.115105 287.145931 
L 268.284017 278.803862 
L 268.29576 287.145931 
L 269.908103 212.06731 
L 271.174492 153.672828 
L 279.284985 162.014897 
L 279.417766 153.672828 
L 279.527062 145.330759 
L 279.611066 153.672828 
L 279.630035 128.646621 
L 279.8134 53.568 
L 279.817013 61.910069 
L 279.936245 195.383172 
L 280.060896 287.145931 
L 280.187355 278.803862 
L 280.194581 287.145931 
L 280.545954 270.461793 
L 280.572149 287.145931 
L 280.724802 278.803862 
L 280.734738 287.145931 
L 280.904554 278.803862 
L 280.912683 287.145931 
L 281.086112 278.803862 
L 281.092435 287.145931 
L 281.266767 278.803862 
L 281.274896 287.145931 
L 281.447421 278.803862 
L 281.455551 287.145931 
L 281.625366 278.803862 
L 281.635302 287.145931 
L 281.806924 278.803862 
L 281.813247 287.145931 
L 282.174556 270.461793 
L 282.191719 287.145931 
L 282.357921 278.803862 
L 282.363341 287.145931 
L 282.533156 278.803862 
L 282.545802 287.145931 
L 282.717424 278.803862 
L 282.721037 287.145931 
L 282.897175 278.803862 
L 282.906208 287.145931 
L 283.076023 278.803862 
L 283.085056 287.145931 
L 283.253968 278.803862 
L 283.264807 287.145931 
L 283.434623 278.803862 
L 283.442752 287.145931 
L 283.615278 278.803862 
L 283.622504 287.145931 
L 283.794126 278.803862 
L 283.804062 287.145931 
L 283.978393 278.803862 
L 283.982007 287.145931 
L 284.156338 278.803862 
L 284.166274 287.145931 
L 284.335186 278.803862 
L 284.344219 287.145931 
L 284.514035 278.803862 
L 284.523067 287.145931 
L 284.698302 278.803862 
L 284.701916 287.145931 
L 284.880764 278.803862 
L 284.887087 287.145931 
L 285.061418 278.803862 
L 285.068645 287.145931 
L 285.240266 278.803862 
L 285.249299 287.145931 
L 285.421824 278.803862 
L 285.428147 287.145931 
L 285.605189 278.803862 
L 285.609705 287.145931 
L 285.783134 278.803862 
L 285.79307 287.145931 
L 285.961982 278.803862 
L 285.971015 287.145931 
L 286.13812 278.803862 
L 286.149863 287.145931 
L 286.320582 278.803862 
L 286.326904 287.145931 
L 286.49943 278.803862 
L 286.508462 287.145931 
L 286.683697 278.803862 
L 286.687311 287.145931 
L 286.867965 278.803862 
L 286.871578 287.145931 
L 287.046813 278.803862 
L 287.056749 287.145931 
L 287.228371 278.803862 
L 287.234694 287.145931 
L 287.411736 278.803862 
L 287.416252 287.145931 
L 287.593294 278.803862 
L 287.60052 287.145931 
L 287.771239 278.803862 
L 287.781175 287.145931 
L 287.950087 278.803862 
L 287.95912 287.145931 
L 288.129838 278.803862 
L 288.138871 287.145931 
L 288.310493 278.803862 
L 288.317719 287.145931 
L 288.487535 278.803862 
L 288.498374 287.145931 
L 288.664576 278.803862 
L 288.675415 287.145931 
L 288.842521 278.803862 
L 288.852457 287.145931 
L 289.018659 278.803862 
L 289.031305 287.145931 
L 289.199314 278.803862 
L 289.20654 287.145931 
L 289.381775 278.803862 
L 289.388098 287.145931 
L 289.56243 278.803862 
L 289.569656 287.145931 
L 289.743988 278.803862 
L 289.751214 287.145931 
L 289.929159 278.803862 
L 289.931869 287.145931 
L 290.107104 278.803862 
L 290.11704 287.145931 
L 290.285952 278.803862 
L 290.295888 287.145931 
L 290.463897 278.803862 
L 290.473833 287.145931 
L 290.640938 278.803862 
L 290.651778 287.145931 
L 290.82611 278.803862 
L 290.828819 287.145931 
L 291.010377 278.803862 
L 291.01399 287.145931 
L 291.191032 278.803862 
L 291.198258 287.145931 
L 291.376203 278.803862 
L 291.378913 287.145931 
L 291.556858 278.803862 
L 291.564084 287.145931 
L 291.733899 278.803862 
L 291.744739 287.145931 
L 291.916361 278.803862 
L 291.92178 287.145931 
L 292.093402 278.803862 
L 292.104241 287.145931 
L 292.278573 278.803862 
L 292.282186 287.145931 
L 292.460131 278.803862 
L 292.466454 287.145931 
L 292.643496 278.803862 
L 292.648012 287.145931 
L 292.823247 278.803862 
L 292.831377 287.145931 
L 293.000289 278.803862 
L 293.011128 287.145931 
L 293.18546 278.803862 
L 293.18817 287.145931 
L 293.366114 278.803862 
L 293.373341 287.145931 
L 293.549479 278.803862 
L 293.553995 287.145931 
L 293.727424 278.803862 
L 293.73736 287.145931 
L 293.910788 278.803862 
L 293.915305 287.145931 
L 294.095056 278.803862 
L 294.099573 287.145931 
L 294.271195 278.803862 
L 294.282937 287.145931 
L 294.450946 278.803862 
L 294.459075 287.145931 
L 294.636117 278.803862 
L 294.63973 287.145931 
L 294.813159 278.803862 
L 294.823998 287.145931 
L 294.994717 278.803862 
L 295.001039 287.145931 
L 295.175371 278.803862 
L 295.182597 287.145931 
L 295.356026 278.803862 
L 295.363252 287.145931 
L 295.538487 278.803862 
L 295.543907 287.145931 
L 295.717335 278.803862 
L 295.726368 287.145931 
L 295.897087 278.803862 
L 295.906119 287.145931 
L 296.079548 278.803862 
L 296.084968 287.145931 
L 296.261106 278.803862 
L 296.267429 287.145931 
L 296.439954 278.803862 
L 296.448987 287.145931 
L 296.623319 278.803862 
L 296.627835 287.145931 
L 296.80578 278.803862 
L 296.812103 287.145931 
L 296.986435 278.803862 
L 296.994564 287.145931 
L 297.169799 278.803862 
L 297.175219 287.145931 
L 297.34955 278.803862 
L 297.35768 287.145931 
L 297.532012 278.803862 
L 297.537431 287.145931 
L 297.709053 278.803862 
L 297.719893 287.145931 
L 297.888805 278.803862 
L 297.896934 287.145931 
L 298.072169 278.803862 
L 298.076686 287.145931 
L 298.251017 278.803862 
L 298.26005 287.145931 
L 298.435285 278.803862 
L 298.438898 287.145931 
L 298.620456 278.803862 
L 298.624069 287.145931 
L 298.803821 278.803862 
L 298.808337 287.145931 
L 298.984475 278.803862 
L 298.991702 287.145931 
L 299.166937 278.803862 
L 299.172356 287.145931 
L 299.351204 278.803862 
L 299.354818 287.145931 
L 299.536375 278.803862 
L 299.539085 287.145931 
L 299.71974 278.803862 
L 299.724256 287.145931 
L 299.903104 278.803862 
L 299.908524 287.145931 
L 300.081953 278.803862 
L 300.091889 287.145931 
L 300.258994 278.803862 
L 300.269834 287.145931 
L 300.446875 295.488 
L 301.986956 287.145931 
L 302.177547 295.488 
L 302.298586 287.145931 
L 302.489176 295.488 
L 302.618345 287.145931 
L 302.808935 295.488 
L 302.94262 287.145931 
L 303.13321 295.488 
L 303.265992 287.145931 
L 303.456582 295.488 
L 303.582137 287.145931 
L 303.772728 295.488 
L 303.895573 287.145931 
L 304.086164 295.488 
L 304.212622 287.145931 
L 304.403213 295.488 
L 304.531478 287.145931 
L 304.722068 295.488 
L 304.850333 287.145931 
L 305.040924 295.488 
L 305.161059 287.145931 
L 305.35165 295.488 
L 305.478108 287.145931 
L 305.668699 295.488 
L 305.800577 287.145931 
L 305.991168 295.488 
L 306.114013 287.145931 
L 306.304603 295.488 
L 306.427449 287.145931 
L 308.00908 245.435586 
L 308.071406 253.777655 
L 308.636856 237.093517 
L 317.226083 245.435586 
L 317.336282 237.093517 
L 317.388672 245.435586 
L 317.413964 228.751448 
L 317.422996 237.093517 
L 317.599135 195.383172 
L 317.813211 278.803862 
L 317.819533 270.461793 
L 317.875536 287.145931 
L 318.010124 295.488 
L 318.136582 287.145931 
L 318.327173 295.488 
L 318.454535 287.145931 
L 318.645125 295.488 
L 318.768874 287.145931 
L 318.959465 295.488 
L 319.084116 287.145931 
L 319.274707 295.488 
L 319.402069 287.145931 
L 319.592659 295.488 
L 319.712795 287.145931 
L 319.903385 295.488 
L 320.03165 287.145931 
L 320.221338 295.488 
L 320.350506 287.145931 
L 320.541096 295.488 
L 320.666651 287.145931 
L 320.857242 295.488 
L 320.9837 287.145931 
L 321.174291 295.488 
L 321.302556 287.145931 
L 321.493147 295.488 
L 321.619605 287.145931 
L 321.810196 295.488 
L 321.93846 287.145931 
L 322.129051 295.488 
L 322.25009 287.145931 
L 322.44068 295.488 
L 322.563526 287.145931 
L 322.754116 295.488 
L 322.875155 287.145931 
L 323.065746 295.488 
L 323.186784 287.145931 
L 323.377375 295.488 
L 323.503833 287.145931 
L 323.694424 295.488 
L 323.816366 287.145931 
L 324.006957 295.488 
L 324.132512 287.145931 
L 324.323102 295.488 
L 324.446851 287.145931 
L 324.637442 295.488 
L 324.764803 287.145931 
L 324.955394 295.488 
L 325.080046 287.145931 
L 325.270636 295.488 
L 325.400708 287.145931 
L 325.591298 295.488 
L 325.719563 287.145931 
L 325.910154 295.488 
L 326.032096 287.145931 
L 326.222686 295.488 
L 326.352758 287.145931 
L 326.542445 295.488 
L 326.672517 287.145931 
L 326.863107 295.488 
L 326.994985 287.145931 
L 327.185576 295.488 
L 327.306615 287.145931 
L 327.497205 295.488 
L 327.63089 287.145931 
L 327.82148 295.488 
L 327.951552 287.145931 
L 328.142143 295.488 
L 328.27402 287.145931 
L 328.464611 295.488 
L 328.58565 287.145931 
L 328.775337 295.488 
L 328.899086 287.145931 
L 329.089676 295.488 
L 329.219748 287.145931 
L 329.410338 295.488 
L 329.536797 287.145931 
L 329.727387 295.488 
L 329.852039 287.145931 
L 330.041727 295.488 
L 330.174508 287.145931 
L 330.365099 295.488 
L 330.490654 287.145931 
L 330.681244 295.488 
L 330.80138 287.145931 
L 330.99197 295.488 
L 331.112106 287.145931 
L 331.302696 295.488 
L 331.430961 287.145931 
L 331.621552 295.488 
L 331.748913 287.145931 
L 331.939504 295.488 
L 332.066866 287.145931 
L 332.257456 295.488 
L 332.391141 287.145931 
L 332.581732 295.488 
L 332.706383 287.145931 
L 332.896974 295.488 
L 333.020722 287.145931 
L 333.211313 295.488 
L 333.343191 287.145931 
L 333.533782 295.488 
L 333.662047 287.145931 
L 333.852637 295.488 
L 333.977289 287.145931 
L 334.16788 295.488 
L 334.297048 287.145931 
L 334.487639 295.488 
L 334.616807 287.145931 
L 334.932049 278.803862 
L 335.12264 295.488 
L 335.247292 287.145931 
L 335.437882 295.488 
L 335.56705 287.145931 
L 335.757641 295.488 
L 353.599098 287.145931 
L 353.789689 295.488 
L 353.917051 287.145931 
L 354.107641 295.488 
L 354.239519 287.145931 
L 354.43011 295.488 
L 354.556568 287.145931 
L 354.746256 295.488 
L 354.876327 287.145931 
L 355.066918 295.488 
L 355.192473 287.145931 
L 355.383063 295.488 
L 355.509522 287.145931 
L 355.700112 295.488 
L 355.828377 287.145931 
L 356.018968 295.488 
L 356.144523 287.145931 
L 356.335114 295.488 
L 356.465185 287.145931 
L 356.654872 295.488 
L 356.781331 287.145931 
L 356.971921 295.488 
L 358.058559 287.145931 
L 358.247344 295.488 
L 358.283474 287.145931 
L 358.471355 295.488 
L 358.509293 287.145931 
L 358.697174 295.488 
L 358.741434 287.145931 
L 358.929315 295.488 
L 358.967252 287.145931 
L 359.156037 295.488 
L 359.195781 287.145931 
L 359.383662 295.488 
L 359.426115 287.145931 
L 359.6149 295.488 
L 359.649224 287.145931 
L 359.838008 295.488 
L 359.874139 287.145931 
L 360.06202 295.488 
L 360.099054 287.145931 
L 360.286935 295.488 
L 360.324872 287.145931 
L 360.513657 295.488 
L 360.554304 287.145931 
L 360.742185 295.488 
L 360.782832 287.145931 
L 360.970713 295.488 
L 361.002328 287.145931 
L 361.191112 295.488 
L 361.228146 287.145931 
L 361.41693 295.488 
L 361.453964 287.145931 
L 361.642748 295.488 
L 361.687009 287.145931 
L 361.87489 295.488 
L 361.91644 287.145931 
L 362.105224 295.488 
L 362.144969 287.145931 
L 362.332849 295.488 
L 362.375303 287.145931 
L 362.564087 295.488 
L 362.604735 287.145931 
L 362.793519 295.488 
L 362.82965 287.145931 
L 363.018434 295.488 
L 363.055468 287.145931 
L 363.243349 295.488 
L 363.28219 287.145931 
L 363.470974 295.488 
L 363.508911 287.145931 
L 363.696792 295.488 
L 363.733827 287.145931 
L 363.922611 295.488 
L 363.957838 287.145931 
L 364.145719 295.488 
L 364.186367 287.145931 
L 364.374247 295.488 
L 364.415798 287.145931 
L 364.604582 295.488 
L 364.644326 287.145931 
L 364.832207 295.488 
L 364.867435 287.145931 
L 365.056219 295.488 
L 365.09506 287.145931 
L 365.283844 295.488 
L 365.321781 287.145931 
L 365.541277 278.803862 
L 365.704769 287.145931 
L 365.729158 295.488 
L 365.761675 287.145931 
L 365.95046 295.488 
L 365.985687 287.145931 
L 366.173568 295.488 
L 366.214215 287.145931 
L 366.402096 295.488 
L 366.439131 287.145931 
L 366.627011 295.488 
L 366.658626 287.145931 
L 366.846507 295.488 
L 366.884444 287.145931 
L 367.072325 295.488 
L 367.112973 287.145931 
L 367.301757 295.488 
L 367.335178 287.145931 
L 367.523059 295.488 
L 367.55648 287.145931 
L 367.744361 295.488 
L 367.782298 287.145931 
L 367.971082 295.488 
L 368.00631 287.145931 
L 368.195094 295.488 
L 368.229419 287.145931 
L 368.418203 295.488 
L 368.449817 287.145931 
L 368.637698 295.488 
L 368.675636 287.145931 
L 368.86442 295.488 
L 368.895131 287.145931 
L 369.083915 295.488 
L 369.116433 287.145931 
L 369.305217 295.488 
L 369.344961 287.145931 
L 369.533745 295.488 
L 369.57078 287.145931 
L 369.802018 278.803862 
L 369.953768 287.145931 
L 369.989898 295.488 
L 370.026933 287.145931 
L 370.214814 295.488 
L 370.254558 287.145931 
L 370.442438 295.488 
L 370.482183 287.145931 
L 370.670063 295.488 
L 370.701678 287.145931 
L 370.889559 295.488 
L 370.931109 287.145931 
L 371.11899 295.488 
L 371.159638 287.145931 
L 371.348422 295.488 
L 371.381843 287.145931 
L 371.569724 295.488 
L 371.605855 287.145931 
L 371.793736 295.488 
L 371.837093 287.145931 
L 372.024974 295.488 
L 372.062008 287.145931 
L 372.250792 295.488 
L 372.291439 287.145931 
L 372.480223 295.488 
L 372.510935 287.145931 
L 372.698816 295.488 
L 372.736753 287.145931 
L 372.925537 295.488 
L 372.964378 287.145931 
L 373.152259 295.488 
L 373.18839 287.145931 
L 373.376271 295.488 
L 373.411498 287.145931 
L 373.599379 295.488 
L 373.640027 287.145931 
L 373.827907 295.488 
L 373.864038 287.145931 
L 374.052822 295.488 
L 374.089857 287.145931 
L 374.278641 295.488 
L 374.312965 287.145931 
L 374.500846 295.488 
L 374.536977 287.145931 
L 374.724858 295.488 
L 374.762795 287.145931 
L 374.95158 295.488 
L 374.985001 287.145931 
L 375.173785 295.488 
L 375.216239 287.145931 
L 375.405023 295.488 
L 375.437541 287.145931 
L 375.626325 295.488 
L 375.666069 287.145931 
L 375.854853 295.488 
L 375.892791 287.145931 
L 376.081575 295.488 
L 376.120415 287.145931 
L 376.308296 295.488 
L 376.345331 287.145931 
L 376.534115 295.488 
L 376.565729 287.145931 
L 376.754513 295.488 
L 376.792451 287.145931 
L 376.981235 295.488 
L 377.019173 287.145931 
L 377.207053 295.488 
L 377.242281 287.145931 
L 377.430162 295.488 
L 377.467196 287.145931 
L 377.655077 295.488 
L 377.689401 287.145931 
L 377.878186 295.488 
L 377.916123 287.145931 
L 378.104004 295.488 
L 378.138328 287.145931 
L 378.327112 295.488 
L 378.363243 287.145931 
L 378.551124 295.488 
L 378.588158 287.145931 
L 378.776039 295.488 
L 378.81488 287.145931 
L 379.003664 295.488 
L 379.042505 287.145931 
L 379.231289 295.488 
L 379.27013 287.145931 
L 379.458914 295.488 
L 379.500465 287.145931 
L 379.689249 295.488 
L 379.72538 287.145931 
L 379.914164 295.488 
L 379.951198 287.145931 
L 380.139982 295.488 
L 380.17792 287.145931 
L 380.365801 295.488 
L 380.404641 287.145931 
L 380.593426 295.488 
L 380.63046 287.145931 
L 380.819244 295.488 
L 380.851762 287.145931 
L 381.040546 295.488 
L 381.078483 287.145931 
L 381.267268 295.488 
L 381.301592 287.145931 
L 381.489473 295.488 
L 381.523797 287.145931 
L 381.712581 295.488 
L 381.753229 287.145931 
L 381.94111 295.488 
L 381.973627 287.145931 
L 382.162412 295.488 
L 382.197639 287.145931 
L 382.386423 295.488 
L 382.422554 287.145931 
L 382.610435 295.488 
L 382.651986 287.145931 
L 382.84077 295.488 
L 382.876901 287.145931 
L 383.065685 295.488 
L 383.099106 287.145931 
L 383.286987 295.488 
L 383.325828 287.145931 
L 383.514612 295.488 
L 383.550743 287.145931 
L 383.738624 295.488 
L 383.776561 287.145931 
L 383.965345 295.488 
L 384.009606 287.145931 
L 384.197487 295.488 
L 384.236327 287.145931 
L 384.424208 295.488 
L 384.468469 287.145931 
L 384.65635 295.488 
L 384.69519 287.145931 
L 384.883071 295.488 
L 384.925525 287.145931 
L 385.114309 295.488 
L 385.15315 287.145931 
L 385.341031 295.488 
L 385.381678 287.145931 
L 385.570462 295.488 
L 385.612013 287.145931 
L 385.800797 295.488 
L 385.840541 287.145931 
L 386.029325 295.488 
L 386.066359 287.145931 
L 386.255144 295.488 
L 386.286758 287.145931 
L 386.475542 295.488 
L 386.51348 287.145931 
L 386.701361 295.488 
L 386.735685 287.145931 
L 386.924469 295.488 
L 386.965117 287.145931 
L 387.152997 295.488 
L 387.188225 287.145931 
L 387.377009 295.488 
L 387.409527 287.145931 
L 387.598311 295.488 
L 387.640765 287.145931 
L 387.829549 295.488 
L 387.867487 287.145931 
L 388.056271 295.488 
L 388.097821 287.145931 
L 388.286606 295.488 
L 388.320027 287.145931 
L 388.507908 295.488 
L 388.544039 287.145931 
L 388.732823 295.488 
L 388.772567 287.145931 
L 388.961351 295.488 
L 388.999288 287.145931 
L 389.187169 295.488 
L 389.219687 287.145931 
L 389.407568 295.488 
L 389.444602 287.145931 
L 389.633386 295.488 
L 389.672227 287.145931 
L 389.861011 295.488 
L 389.897142 287.145931 
L 390.085926 295.488 
L 390.122057 287.145931 
L 390.310841 295.488 
L 397.583096 287.145931 
L 397.77188 295.488 
L 397.809818 287.145931 
L 397.998602 295.488 
L 398.032926 287.145931 
L 398.22171 295.488 
L 398.259648 287.145931 
L 398.448432 295.488 
L 398.487273 287.145931 
L 398.487273 287.145931 
" clip-path="url(#p1e042f7719)" style="fill: none; stroke: #1f77b4; stroke-width: 1.5; stroke-linecap: square"/>
   </g>
   <g id="patch_3">
    <path d="M 57.6 307.584 
L 57.6 41.472 
" style="fill: none; stroke: #000000; stroke-width: 0.8; stroke-linejoin: miter; stroke-linecap: square"/>
   </g>
   <g id="patch_4">
    <path d="M 414.72 307.584 
L 414.72 41.472 
" style="fill: none; stroke: #000000; stroke-width: 0.8; stroke-linejoin: miter; stroke-linecap: square"/>
   </g>
   <g id="patch_5">
    <path d="M 57.6 307.584 
L 414.72 307.584 
" style="fill: none; stroke: #000000; stroke-width: 0.8; stroke-linejoin: miter; stroke-linecap: square"/>
   </g>
   <g id="patch_6">
    <path d="M 57.6 41.472 
L 414.72 41.472 
" style="fill: none; stroke: #000000; stroke-width: 0.8; stroke-linejoin: miter; stroke-linecap: square"/>
   </g>
   <g id="text_17">
    <!-- Queue size (y-axis) between S3 and sensors that follow at a time (x-axis). -->
    <g transform="translate(14.282813 35.472) scale(0.12 -0.12)">
     <defs>
      <path id="DejaVuSans-51" d="M 2522 4238 
Q 1834 4238 1429 3725 
Q 1025 3213 1025 2328 
Q 1025 1447 1429 934 
Q 1834 422 2522 422 
Q 3209 422 3611 934 
Q 4013 1447 4013 2328 
Q 4013 3213 3611 3725 
Q 3209 4238 2522 4238 
z
M 3406 84 
L 4238 -825 
L 3475 -825 
L 2784 -78 
Q 2681 -84 2626 -87 
Q 2572 -91 2522 -91 
Q 1538 -91 948 567 
Q 359 1225 359 2328 
Q 359 3434 948 4092 
Q 1538 4750 2522 4750 
Q 3503 4750 4090 4092 
Q 4678 3434 4678 2328 
Q 4678 1516 4351 937 
Q 4025 359 3406 84 
z
" transform="scale(0.015625)"/>
      <path id="DejaVuSans-75" d="M 544 1381 
L 544 3500 
L 1119 3500 
L 1119 1403 
Q 1119 906 1312 657 
Q 1506 409 1894 409 
Q 2359 409 2629 706 
Q 2900 1003 2900 1516 
L 2900 3500 
L 3475 3500 
L 3475 0 
L 2900 0 
L 2900 538 
Q 2691 219 2414 64 
Q 2138 -91 1772 -91 
Q 1169 -91 856 284 
Q 544 659 544 1381 
z
M 1991 3584 
L 1991 3584 
z
" transform="scale(0.015625)"/>
      <path id="DejaVuSans-20" transform="scale(0.015625)"/>
      <path id="DejaVuSans-73" d="M 2834 3397 
L 2834 2853 
Q 2591 2978 2328 3040 
Q 2066 3103 1784 3103 
Q 1356 3103 1142 2972 
Q 928 2841 928 2578 
Q 928 2378 1081 2264 
Q 1234 2150 1697 2047 
L 1894 2003 
Q 2506 1872 2764 1633 
Q 3022 1394 3022 966 
Q 3022 478 2636 193 
Q 2250 -91 1575 -91 
Q 1294 -91 989 -36 
Q 684 19 347 128 
L 347 722 
Q 666 556 975 473 
Q 1284 391 1588 391 
Q 1994 391 2212 530 
Q 2431 669 2431 922 
Q 2431 1156 2273 1281 
Q 2116 1406 1581 1522 
L 1381 1569 
Q 847 1681 609 1914 
Q 372 2147 372 2553 
Q 372 3047 722 3315 
Q 1072 3584 1716 3584 
Q 2034 3584 2315 3537 
Q 2597 3491 2834 3397 
z
" transform="scale(0.015625)"/>
      <path id="DejaVuSans-69" d="M 603 3500 
L 1178 3500 
L 1178 0 
L 603 0 
L 603 3500 
z
M 603 4863 
L 1178 4863 
L 1178 4134 
L 603 4134 
L 603 4863 
z
" transform="scale(0.015625)"/>
      <path id="DejaVuSans-7a" d="M 353 3500 
L 3084 3500 
L 3084 2975 
L 922 459 
L 3084 459 
L 3084 0 
L 275 0 
L 275 525 
L 2438 3041 
L 353 3041 
L 353 3500 
z
" transform="scale(0.015625)"/>
      <path id="DejaVuSans-28" d="M 1984 4856 
Q 1566 4138 1362 3434 
Q 1159 2731 1159 2009 
Q 1159 1288 1364 580 
Q 1569 -128 1984 -844 
L 1484 -844 
Q 1016 -109 783 600 
Q 550 1309 550 2009 
Q 550 2706 781 3412 
Q 1013 4119 1484 4856 
L 1984 4856 
z
" transform="scale(0.015625)"/>
      <path id="DejaVuSans-79" d="M 2059 -325 
Q 1816 -950 1584 -1140 
Q 1353 -1331 966 -1331 
L 506 -1331 
L 506 -850 
L 844 -850 
Q 1081 -850 1212 -737 
Q 1344 -625 1503 -206 
L 1606 56 
L 191 3500 
L 800 3500 
L 1894 763 
L 2988 3500 
L 3597 3500 
L 2059 -325 
z
" transform="scale(0.015625)"/>
      <path id="DejaVuSans-2d" d="M 313 2009 
L 1997 2009 
L 1997 1497 
L 313 1497 
L 313 2009 
z
" transform="scale(0.015625)"/>
      <path id="DejaVuSans-61" d="M 2194 1759 
Q 1497 1759 1228 1600 
Q 959 1441 959 1056 
Q 959 750 1161 570 
Q 1363 391 1709 391 
Q 2188 391 2477 730 
Q 2766 1069 2766 1631 
L 2766 1759 
L 2194 1759 
z
M 3341 1997 
L 3341 0 
L 2766 0 
L 2766 531 
Q 2569 213 2275 61 
Q 1981 -91 1556 -91 
Q 1019 -91 701 211 
Q 384 513 384 1019 
Q 384 1609 779 1909 
Q 1175 2209 1959 2209 
L 2766 2209 
L 2766 2266 
Q 2766 2663 2505 2880 
Q 2244 3097 1772 3097 
Q 1472 3097 1187 3025 
Q 903 2953 641 2809 
L 641 3341 
Q 956 3463 1253 3523 
Q 1550 3584 1831 3584 
Q 2591 3584 2966 3190 
Q 3341 2797 3341 1997 
z
" transform="scale(0.015625)"/>
      <path id="DejaVuSans-78" d="M 3513 3500 
L 2247 1797 
L 3578 0 
L 2900 0 
L 1881 1375 
L 863 0 
L 184 0 
L 1544 1831 
L 300 3500 
L 978 3500 
L 1906 2253 
L 2834 3500 
L 3513 3500 
z
" transform="scale(0.015625)"/>
      <path id="DejaVuSans-29" d="M 513 4856 
L 1013 4856 
Q 1481 4119 1714 3412 
Q 1947 2706 1947 2009 
Q 1947 1309 1714 600 
Q 1481 -109 1013 -844 
L 513 -844 
Q 928 -128 1133 580 
Q 1338 1288 1338 2009 
Q 1338 2731 1133 3434 
Q 928 4138 513 4856 
z
" transform="scale(0.015625)"/>
      <path id="DejaVuSans-62" d="M 3116 1747 
Q 3116 2381 2855 2742 
Q 2594 3103 2138 3103 
Q 1681 3103 1420 2742 
Q 1159 2381 1159 1747 
Q 1159 1113 1420 752 
Q 1681 391 2138 391 
Q 2594 391 2855 752 
Q 3116 1113 3116 1747 
z
M 1159 2969 
Q 1341 3281 1617 3432 
Q 1894 3584 2278 3584 
Q 2916 3584 3314 3078 
Q 3713 2572 3713 1747 
Q 3713 922 3314 415 
Q 2916 -91 2278 -91 
Q 1894 -91 1617 61 
Q 1341 213 1159 525 
L 1159 0 
L 581 0 
L 581 4863 
L 1159 4863 
L 1159 2969 
z
" transform="scale(0.015625)"/>
      <path id="DejaVuSans-74" d="M 1172 4494 
L 1172 3500 
L 2356 3500 
L 2356 3053 
L 1172 3053 
L 1172 1153 
Q 1172 725 1289 603 
Q 1406 481 1766 481 
L 2356 481 
L 2356 0 
L 1766 0 
Q 1100 0 847 248 
Q 594 497 594 1153 
L 594 3053 
L 172 3053 
L 172 3500 
L 594 3500 
L 594 4494 
L 1172 4494 
z
" transform="scale(0.015625)"/>
      <path id="DejaVuSans-77" d="M 269 3500 
L 844 3500 
L 1563 769 
L 2278 3500 
L 2956 3500 
L 3675 769 
L 4391 3500 
L 4966 3500 
L 4050 0 
L 3372 0 
L 2619 2869 
L 1863 0 
L 1184 0 
L 269 3500 
z
" transform="scale(0.015625)"/>
      <path id="DejaVuSans-6e" d="M 3513 2113 
L 3513 0 
L 2938 0 
L 2938 2094 
Q 2938 2591 2744 2837 
Q 2550 3084 2163 3084 
Q 1697 3084 1428 2787 
Q 1159 2491 1159 1978 
L 1159 0 
L 581 0 
L 581 3500 
L 1159 3500 
L 1159 2956 
Q 1366 3272 1645 3428 
Q 1925 3584 2291 3584 
Q 2894 3584 3203 3211 
Q 3513 2838 3513 2113 
z
" transform="scale(0.015625)"/>
      <path id="DejaVuSans-53" d="M 3425 4513 
L 3425 3897 
Q 3066 4069 2747 4153 
Q 2428 4238 2131 4238 
Q 1616 4238 1336 4038 
Q 1056 3838 1056 3469 
Q 1056 3159 1242 3001 
Q 1428 2844 1947 2747 
L 2328 2669 
Q 3034 2534 3370 2195 
Q 3706 1856 3706 1288 
Q 3706 609 3251 259 
Q 2797 -91 1919 -91 
Q 1588 -91 1214 -16 
Q 841 59 441 206 
L 441 856 
Q 825 641 1194 531 
Q 1563 422 1919 422 
Q 2459 422 2753 634 
Q 3047 847 3047 1241 
Q 3047 1584 2836 1778 
Q 2625 1972 2144 2069 
L 1759 2144 
Q 1053 2284 737 2584 
Q 422 2884 422 3419 
Q 422 4038 858 4394 
Q 1294 4750 2059 4750 
Q 2388 4750 2728 4690 
Q 3069 4631 3425 4513 
z
" transform="scale(0.015625)"/>
      <path id="DejaVuSans-64" d="M 2906 2969 
L 2906 4863 
L 3481 4863 
L 3481 0 
L 2906 0 
L 2906 525 
Q 2725 213 2448 61 
Q 2172 -91 1784 -91 
Q 1150 -91 751 415 
Q 353 922 353 1747 
Q 353 2572 751 3078 
Q 1150 3584 1784 3584 
Q 2172 3584 2448 3432 
Q 2725 3281 2906 2969 
z
M 947 1747 
Q 947 1113 1208 752 
Q 1469 391 1925 391 
Q 2381 391 2643 752 
Q 2906 1113 2906 1747 
Q 2906 2381 2643 2742 
Q 2381 3103 1925 3103 
Q 1469 3103 1208 2742 
Q 947 2381 947 1747 
z
" transform="scale(0.015625)"/>
      <path id="DejaVuSans-6f" d="M 1959 3097 
Q 1497 3097 1228 2736 
Q 959 2375 959 1747 
Q 959 1119 1226 758 
Q 1494 397 1959 397 
Q 2419 397 2687 759 
Q 2956 1122 2956 1747 
Q 2956 2369 2687 2733 
Q 2419 3097 1959 3097 
z
M 1959 3584 
Q 2709 3584 3137 3096 
Q 3566 2609 3566 1747 
Q 3566 888 3137 398 
Q 2709 -91 1959 -91 
Q 1206 -91 779 398 
Q 353 888 353 1747 
Q 353 2609 779 3096 
Q 1206 3584 1959 3584 
z
" transform="scale(0.015625)"/>
      <path id="DejaVuSans-72" d="M 2631 2963 
Q 2534 3019 2420 3045 
Q 2306 3072 2169 3072 
Q 1681 3072 1420 2755 
Q 1159 2438 1159 1844 
L 1159 0 
L 581 0 
L 581 3500 
L 1159 3500 
L 1159 2956 
Q 1341 3275 1631 3429 
Q 1922 3584 2338 3584 
Q 2397 3584 2469 3576 
Q 2541 3569 2628 3553 
L 2631 2963 
z
" transform="scale(0.015625)"/>
      <path id="DejaVuSans-68" d="M 3513 2113 
L 3513 0 
L 2938 0 
L 2938 2094 
Q 2938 2591 2744 2837 
Q 2550 3084 2163 3084 
Q 1697 3084 1428 2787 
Q 1159 2491 1159 1978 
L 1159 0 
L 581 0 
L 581 4863 
L 1159 4863 
L 1159 2956 
Q 1366 3272 1645 3428 
Q 1925 3584 2291 3584 
Q 2894 3584 3203 3211 
Q 3513 2838 3513 2113 
z
" transform="scale(0.015625)"/>
      <path id="DejaVuSans-66" d="M 2375 4863 
L 2375 4384 
L 1825 4384 
Q 1516 4384 1395 4259 
Q 1275 4134 1275 3809 
L 1275 3500 
L 2222 3500 
L 2222 3053 
L 1275 3053 
L 1275 0 
L 697 0 
L 697 3053 
L 147 3053 
L 147 3500 
L 697 3500 
L 697 3744 
Q 697 4328 969 4595 
Q 1241 4863 1831 4863 
L 2375 4863 
z
" transform="scale(0.015625)"/>
      <path id="DejaVuSans-6c" d="M 603 4863 
L 1178 4863 
L 1178 0 
L 603 0 
L 603 4863 
z
" transform="scale(0.015625)"/>
      <path id="DejaVuSans-6d" d="M 3328 2828 
Q 3544 3216 3844 3400 
Q 4144 3584 4550 3584 
Q 5097 3584 5394 3201 
Q 5691 2819 5691 2113 
L 5691 0 
L 5113 0 
L 5113 2094 
Q 5113 2597 4934 2840 
Q 4756 3084 4391 3084 
Q 3944 3084 3684 2787 
Q 3425 2491 3425 1978 
L 3425 0 
L 2847 0 
L 2847 2094 
Q 2847 2600 2669 2842 
Q 2491 3084 2119 3084 
Q 1678 3084 1418 2786 
Q 1159 2488 1159 1978 
L 1159 0 
L 581 0 
L 581 3500 
L 1159 3500 
L 1159 2956 
Q 1356 3278 1631 3431 
Q 1906 3584 2284 3584 
Q 2666 3584 2933 3390 
Q 3200 3197 3328 2828 
z
" transform="scale(0.015625)"/>
     </defs>
     <use xlink:href="#DejaVuSans-51"/>
     <use xlink:href="#DejaVuSans-75" x="78.710938"/>
     <use xlink:href="#DejaVuSans-65" x="142.089844"/>
     <use xlink:href="#DejaVuSans-75" x="203.613281"/>
     <use xlink:href="#DejaVuSans-65" x="266.992188"/>
     <use xlink:href="#DejaVuSans-20" x="328.515625"/>
     <use xlink:href="#DejaVuSans-73" x="360.302734"/>
     <use xlink:href="#DejaVuSans-69" x="412.402344"/>
     <use xlink:href="#DejaVuSans-7a" x="440.185547"/>
     <use xlink:href="#DejaVuSans-65" x="492.675781"/>
     <use xlink:href="#DejaVuSans-20" x="554.199219"/>
     <use xlink:href="#DejaVuSans-28" x="585.986328"/>
     <use xlink:href="#DejaVuSans-79" x="625"/>
     <use xlink:href="#DejaVuSans-2d" x="682.429688"/>
     <use xlink:href="#DejaVuSans-61" x="718.513672"/>
     <use xlink:href="#DejaVuSans-78" x="779.792969"/>
     <use xlink:href="#DejaVuSans-69" x="838.972656"/>
     <use xlink:href="#DejaVuSans-73" x="866.755859"/>
     <use xlink:href="#DejaVuSans-29" x="918.855469"/>
     <use xlink:href="#DejaVuSans-20" x="957.869141"/>
     <use xlink:href="#DejaVuSans-62" x="989.65625"/>
     <use xlink:href="#DejaVuSans-65" x="1053.132812"/>
     <use xlink:href="#DejaVuSans-74" x="1114.65625"/>
     <use xlink:href="#DejaVuSans-77" x="1153.865234"/>
     <use xlink:href="#DejaVuSans-65" x="1235.652344"/>
     <use xlink:href="#DejaVuSans-65" x="1297.175781"/>
     <use xlink:href="#DejaVuSans-6e" x="1358.699219"/>
     <use xlink:href="#DejaVuSans-20" x="1422.078125"/>
     <use xlink:href="#DejaVuSans-53" x="1453.865234"/>
     <use xlink:href="#DejaVuSans-33" x="1517.341797"/>
     <use xlink:href="#DejaVuSans-20" x="1580.964844"/>
     <use xlink:href="#DejaVuSans-61" x="1612.751953"/>
     <use xlink:href="#DejaVuSans-6e" x="1674.03125"/>
     <use xlink:href="#DejaVuSans-64" x="1737.410156"/>
     <use xlink:href="#DejaVuSans-20" x="1800.886719"/>
     <use xlink:href="#DejaVuSans-73" x="1832.673828"/>
     <use xlink:href="#DejaVuSans-65" x="1884.773438"/>
     <use xlink:href="#DejaVuSans-6e" x="1946.296875"/>
     <use xlink:href="#DejaVuSans-73" x="2009.675781"/>
     <use xlink:href="#DejaVuSans-6f" x="2061.775391"/>
     <use xlink:href="#DejaVuSans-72" x="2122.957031"/>
     <use xlink:href="#DejaVuSans-73" x="2164.070312"/>
     <use xlink:href="#DejaVuSans-20" x="2216.169922"/>
     <use xlink:href="#DejaVuSans-74" x="2247.957031"/>
     <use xlink:href="#DejaVuSans-68" x="2287.166016"/>
     <use xlink:href="#DejaVuSans-61" x="2350.544922"/>
     <use xlink:href="#DejaVuSans-74" x="2411.824219"/>
     <use xlink:href="#DejaVuSans-20" x="2451.033203"/>
     <use xlink:href="#DejaVuSans-66" x="2482.820312"/>
     <use xlink:href="#DejaVuSans-6f" x="2518.025391"/>
     <use xlink:href="#DejaVuSans-6c" x="2579.207031"/>
     <use xlink:href="#DejaVuSans-6c" x="2606.990234"/>
     <use xlink:href="#DejaVuSans-6f" x="2634.773438"/>
     <use xlink:href="#DejaVuSans-77" x="2695.955078"/>
     <use xlink:href="#DejaVuSans-20" x="2777.742188"/>
     <use xlink:href="#DejaVuSans-61" x="2809.529297"/>
     <use xlink:href="#DejaVuSans-74" x="2870.808594"/>
     <use xlink:href="#DejaVuSans-20" x="2910.017578"/>
     <use xlink:href="#DejaVuSans-61" x="2941.804688"/>
     <use xlink:href="#DejaVuSans-20" x="3003.083984"/>
     <use xlink:href="#DejaVuSans-74" x="3034.871094"/>
     <use xlink:href="#DejaVuSans-69" x="3074.080078"/>
     <use xlink:href="#DejaVuSans-6d" x="3101.863281"/>
     <use xlink:href="#DejaVuSans-65" x="3199.275391"/>
     <use xlink:href="#DejaVuSans-20" x="3260.798828"/>
     <use xlink:href="#DejaVuSans-28" x="3292.585938"/>
     <use xlink:href="#DejaVuSans-78" x="3331.599609"/>
     <use xlink:href="#DejaVuSans-2d" x="3390.779297"/>
     <use xlink:href="#DejaVuSans-61" x="3426.863281"/>
     <use xlink:href="#DejaVuSans-78" x="3488.142578"/>
     <use xlink:href="#DejaVuSans-69" x="3547.322266"/>
     <use xlink:href="#DejaVuSans-73" x="3575.105469"/>
     <use xlink:href="#DejaVuSans-29" x="3627.205078"/>
     <use xlink:href="#DejaVuSans-2e" x="3666.21875"/>
    </g>
   </g>
  </g>
 </g>
 <defs>
  <clipPath id="p1e042f7719">
   <rect x="57.6" y="41.472" width="357.12" height="266.112"/>
  </clipPath>
 </defs>
</svg>
