<?xml version="1.0" encoding="utf-8" standalone="no"?>
<!DOCTYPE svg PUBLIC "-//W3C//DTD SVG 1.1//EN"
  "http://www.w3.org/Graphics/SVG/1.1/DTD/svg11.dtd">
<svg xmlns:xlink="http://www.w3.org/1999/xlink" width="460.8pt" height="345.6pt" viewBox="0 0 460.8 345.6" xmlns="http://www.w3.org/2000/svg" version="1.1">
 <metadata>
  <rdf:RDF xmlns:dc="http://purl.org/dc/elements/1.1/" xmlns:cc="http://creativecommons.org/ns#" xmlns:rdf="http://www.w3.org/1999/02/22-rdf-syntax-ns#">
   <cc:Work>
    <dc:type rdf:resource="http://purl.org/dc/dcmitype/StillImage"/>
    <dc:date>2024-03-08T11:04:53.257019</dc:date>
    <dc:format>image/svg+xml</dc:format>
    <dc:creator>
     <cc:Agent>
      <dc:title>Matplotlib v3.8.2, https://matplotlib.org/</dc:title>
     </cc:Agent>
    </dc:creator>
   </cc:Work>
  </rdf:RDF>
 </metadata>
 <defs>
  <style type="text/css">*{stroke-linejoin: round; stroke-linecap: butt}</style>
 </defs>
 <g id="figure_1">
  <g id="patch_1">
   <path d="M 0 345.6 
L 460.8 345.6 
L 460.8 0 
L 0 0 
z
" style="fill: #ffffff"/>
  </g>
  <g id="axes_1">
   <g id="patch_2">
    <path d="M 57.6 307.584 
L 414.72 307.584 
L 414.72 41.472 
L 57.6 41.472 
z
" style="fill: #ffffff"/>
   </g>
   <g id="matplotlib.axis_1">
    <g id="xtick_1">
     <g id="line2d_1">
      <defs>
       <path id="m1c50e71df5" d="M 0 0 
L 0 3.5 
" style="stroke: #000000; stroke-width: 0.8"/>
      </defs>
      <g>
       <use xlink:href="#m1c50e71df5" x="70.785705" y="307.584" style="stroke: #000000; stroke-width: 0.8"/>
      </g>
     </g>
     <g id="text_1">
      <!-- 0.0 -->
      <g transform="translate(62.834143 322.182437) scale(0.1 -0.1)">
       <defs>
        <path id="DejaVuSans-30" d="M 2034 4250 
Q 1547 4250 1301 3770 
Q 1056 3291 1056 2328 
Q 1056 1369 1301 889 
Q 1547 409 2034 409 
Q 2525 409 2770 889 
Q 3016 1369 3016 2328 
Q 3016 3291 2770 3770 
Q 2525 4250 2034 4250 
z
M 2034 4750 
Q 2819 4750 3233 4129 
Q 3647 3509 3647 2328 
Q 3647 1150 3233 529 
Q 2819 -91 2034 -91 
Q 1250 -91 836 529 
Q 422 1150 422 2328 
Q 422 3509 836 4129 
Q 1250 4750 2034 4750 
z
" transform="scale(0.015625)"/>
        <path id="DejaVuSans-2e" d="M 684 794 
L 1344 794 
L 1344 0 
L 684 0 
L 684 794 
z
" transform="scale(0.015625)"/>
       </defs>
       <use xlink:href="#DejaVuSans-30"/>
       <use xlink:href="#DejaVuSans-2e" x="63.623047"/>
       <use xlink:href="#DejaVuSans-30" x="95.410156"/>
      </g>
     </g>
    </g>
    <g id="xtick_2">
     <g id="line2d_2">
      <g>
       <use xlink:href="#m1c50e71df5" x="116.345245" y="307.584" style="stroke: #000000; stroke-width: 0.8"/>
      </g>
     </g>
     <g id="text_2">
      <!-- 0.5 -->
      <g transform="translate(108.393682 322.182437) scale(0.1 -0.1)">
       <defs>
        <path id="DejaVuSans-35" d="M 691 4666 
L 3169 4666 
L 3169 4134 
L 1269 4134 
L 1269 2991 
Q 1406 3038 1543 3061 
Q 1681 3084 1819 3084 
Q 2600 3084 3056 2656 
Q 3513 2228 3513 1497 
Q 3513 744 3044 326 
Q 2575 -91 1722 -91 
Q 1428 -91 1123 -41 
Q 819 9 494 109 
L 494 744 
Q 775 591 1075 516 
Q 1375 441 1709 441 
Q 2250 441 2565 725 
Q 2881 1009 2881 1497 
Q 2881 1984 2565 2268 
Q 2250 2553 1709 2553 
Q 1456 2553 1204 2497 
Q 953 2441 691 2322 
L 691 4666 
z
" transform="scale(0.015625)"/>
       </defs>
       <use xlink:href="#DejaVuSans-30"/>
       <use xlink:href="#DejaVuSans-2e" x="63.623047"/>
       <use xlink:href="#DejaVuSans-35" x="95.410156"/>
      </g>
     </g>
    </g>
    <g id="xtick_3">
     <g id="line2d_3">
      <g>
       <use xlink:href="#m1c50e71df5" x="161.904784" y="307.584" style="stroke: #000000; stroke-width: 0.8"/>
      </g>
     </g>
     <g id="text_3">
      <!-- 1.0 -->
      <g transform="translate(153.953222 322.182437) scale(0.1 -0.1)">
       <defs>
        <path id="DejaVuSans-31" d="M 794 531 
L 1825 531 
L 1825 4091 
L 703 3866 
L 703 4441 
L 1819 4666 
L 2450 4666 
L 2450 531 
L 3481 531 
L 3481 0 
L 794 0 
L 794 531 
z
" transform="scale(0.015625)"/>
       </defs>
       <use xlink:href="#DejaVuSans-31"/>
       <use xlink:href="#DejaVuSans-2e" x="63.623047"/>
       <use xlink:href="#DejaVuSans-30" x="95.410156"/>
      </g>
     </g>
    </g>
    <g id="xtick_4">
     <g id="line2d_4">
      <g>
       <use xlink:href="#m1c50e71df5" x="207.464324" y="307.584" style="stroke: #000000; stroke-width: 0.8"/>
      </g>
     </g>
     <g id="text_4">
      <!-- 1.5 -->
      <g transform="translate(199.512761 322.182437) scale(0.1 -0.1)">
       <use xlink:href="#DejaVuSans-31"/>
       <use xlink:href="#DejaVuSans-2e" x="63.623047"/>
       <use xlink:href="#DejaVuSans-35" x="95.410156"/>
      </g>
     </g>
    </g>
    <g id="xtick_5">
     <g id="line2d_5">
      <g>
       <use xlink:href="#m1c50e71df5" x="253.023864" y="307.584" style="stroke: #000000; stroke-width: 0.8"/>
      </g>
     </g>
     <g id="text_5">
      <!-- 2.0 -->
      <g transform="translate(245.072301 322.182437) scale(0.1 -0.1)">
       <defs>
        <path id="DejaVuSans-32" d="M 1228 531 
L 3431 531 
L 3431 0 
L 469 0 
L 469 531 
Q 828 903 1448 1529 
Q 2069 2156 2228 2338 
Q 2531 2678 2651 2914 
Q 2772 3150 2772 3378 
Q 2772 3750 2511 3984 
Q 2250 4219 1831 4219 
Q 1534 4219 1204 4116 
Q 875 4013 500 3803 
L 500 4441 
Q 881 4594 1212 4672 
Q 1544 4750 1819 4750 
Q 2544 4750 2975 4387 
Q 3406 4025 3406 3419 
Q 3406 3131 3298 2873 
Q 3191 2616 2906 2266 
Q 2828 2175 2409 1742 
Q 1991 1309 1228 531 
z
" transform="scale(0.015625)"/>
       </defs>
       <use xlink:href="#DejaVuSans-32"/>
       <use xlink:href="#DejaVuSans-2e" x="63.623047"/>
       <use xlink:href="#DejaVuSans-30" x="95.410156"/>
      </g>
     </g>
    </g>
    <g id="xtick_6">
     <g id="line2d_6">
      <g>
       <use xlink:href="#m1c50e71df5" x="298.583403" y="307.584" style="stroke: #000000; stroke-width: 0.8"/>
      </g>
     </g>
     <g id="text_6">
      <!-- 2.5 -->
      <g transform="translate(290.631841 322.182437) scale(0.1 -0.1)">
       <use xlink:href="#DejaVuSans-32"/>
       <use xlink:href="#DejaVuSans-2e" x="63.623047"/>
       <use xlink:href="#DejaVuSans-35" x="95.410156"/>
      </g>
     </g>
    </g>
    <g id="xtick_7">
     <g id="line2d_7">
      <g>
       <use xlink:href="#m1c50e71df5" x="344.142943" y="307.584" style="stroke: #000000; stroke-width: 0.8"/>
      </g>
     </g>
     <g id="text_7">
      <!-- 3.0 -->
      <g transform="translate(336.19138 322.182437) scale(0.1 -0.1)">
       <defs>
        <path id="DejaVuSans-33" d="M 2597 2516 
Q 3050 2419 3304 2112 
Q 3559 1806 3559 1356 
Q 3559 666 3084 287 
Q 2609 -91 1734 -91 
Q 1441 -91 1130 -33 
Q 819 25 488 141 
L 488 750 
Q 750 597 1062 519 
Q 1375 441 1716 441 
Q 2309 441 2620 675 
Q 2931 909 2931 1356 
Q 2931 1769 2642 2001 
Q 2353 2234 1838 2234 
L 1294 2234 
L 1294 2753 
L 1863 2753 
Q 2328 2753 2575 2939 
Q 2822 3125 2822 3475 
Q 2822 3834 2567 4026 
Q 2313 4219 1838 4219 
Q 1578 4219 1281 4162 
Q 984 4106 628 3988 
L 628 4550 
Q 988 4650 1302 4700 
Q 1616 4750 1894 4750 
Q 2613 4750 3031 4423 
Q 3450 4097 3450 3541 
Q 3450 3153 3228 2886 
Q 3006 2619 2597 2516 
z
" transform="scale(0.015625)"/>
       </defs>
       <use xlink:href="#DejaVuSans-33"/>
       <use xlink:href="#DejaVuSans-2e" x="63.623047"/>
       <use xlink:href="#DejaVuSans-30" x="95.410156"/>
      </g>
     </g>
    </g>
    <g id="xtick_8">
     <g id="line2d_8">
      <g>
       <use xlink:href="#m1c50e71df5" x="389.702482" y="307.584" style="stroke: #000000; stroke-width: 0.8"/>
      </g>
     </g>
     <g id="text_8">
      <!-- 3.5 -->
      <g transform="translate(381.75092 322.182437) scale(0.1 -0.1)">
       <use xlink:href="#DejaVuSans-33"/>
       <use xlink:href="#DejaVuSans-2e" x="63.623047"/>
       <use xlink:href="#DejaVuSans-35" x="95.410156"/>
      </g>
     </g>
    </g>
    <g id="text_9">
     <!-- 1e6 -->
     <g transform="translate(395.841875 334.860562) scale(0.1 -0.1)">
      <defs>
       <path id="DejaVuSans-65" d="M 3597 1894 
L 3597 1613 
L 953 1613 
Q 991 1019 1311 708 
Q 1631 397 2203 397 
Q 2534 397 2845 478 
Q 3156 559 3463 722 
L 3463 178 
Q 3153 47 2828 -22 
Q 2503 -91 2169 -91 
Q 1331 -91 842 396 
Q 353 884 353 1716 
Q 353 2575 817 3079 
Q 1281 3584 2069 3584 
Q 2775 3584 3186 3129 
Q 3597 2675 3597 1894 
z
M 3022 2063 
Q 3016 2534 2758 2815 
Q 2500 3097 2075 3097 
Q 1594 3097 1305 2825 
Q 1016 2553 972 2059 
L 3022 2063 
z
" transform="scale(0.015625)"/>
       <path id="DejaVuSans-36" d="M 2113 2584 
Q 1688 2584 1439 2293 
Q 1191 2003 1191 1497 
Q 1191 994 1439 701 
Q 1688 409 2113 409 
Q 2538 409 2786 701 
Q 3034 994 3034 1497 
Q 3034 2003 2786 2293 
Q 2538 2584 2113 2584 
z
M 3366 4563 
L 3366 3988 
Q 3128 4100 2886 4159 
Q 2644 4219 2406 4219 
Q 1781 4219 1451 3797 
Q 1122 3375 1075 2522 
Q 1259 2794 1537 2939 
Q 1816 3084 2150 3084 
Q 2853 3084 3261 2657 
Q 3669 2231 3669 1497 
Q 3669 778 3244 343 
Q 2819 -91 2113 -91 
Q 1303 -91 875 529 
Q 447 1150 447 2328 
Q 447 3434 972 4092 
Q 1497 4750 2381 4750 
Q 2619 4750 2861 4703 
Q 3103 4656 3366 4563 
z
" transform="scale(0.015625)"/>
      </defs>
      <use xlink:href="#DejaVuSans-31"/>
      <use xlink:href="#DejaVuSans-65" x="63.623047"/>
      <use xlink:href="#DejaVuSans-36" x="125.146484"/>
     </g>
    </g>
   </g>
   <g id="matplotlib.axis_2">
    <g id="ytick_1">
     <g id="line2d_9">
      <defs>
       <path id="mb89848e965" d="M 0 0 
L -3.5 0 
" style="stroke: #000000; stroke-width: 0.8"/>
      </defs>
      <g>
       <use xlink:href="#mb89848e965" x="57.6" y="295.488" style="stroke: #000000; stroke-width: 0.8"/>
      </g>
     </g>
     <g id="text_10">
      <!-- 0 -->
      <g transform="translate(44.2375 299.287219) scale(0.1 -0.1)">
       <use xlink:href="#DejaVuSans-30"/>
      </g>
     </g>
    </g>
    <g id="ytick_2">
     <g id="line2d_10">
      <g>
       <use xlink:href="#mb89848e965" x="57.6" y="257.688" style="stroke: #000000; stroke-width: 0.8"/>
      </g>
     </g>
     <g id="text_11">
      <!-- 5 -->
      <g transform="translate(44.2375 261.487219) scale(0.1 -0.1)">
       <use xlink:href="#DejaVuSans-35"/>
      </g>
     </g>
    </g>
    <g id="ytick_3">
     <g id="line2d_11">
      <g>
       <use xlink:href="#mb89848e965" x="57.6" y="219.888" style="stroke: #000000; stroke-width: 0.8"/>
      </g>
     </g>
     <g id="text_12">
      <!-- 10 -->
      <g transform="translate(37.875 223.687219) scale(0.1 -0.1)">
       <use xlink:href="#DejaVuSans-31"/>
       <use xlink:href="#DejaVuSans-30" x="63.623047"/>
      </g>
     </g>
    </g>
    <g id="ytick_4">
     <g id="line2d_12">
      <g>
       <use xlink:href="#mb89848e965" x="57.6" y="182.088" style="stroke: #000000; stroke-width: 0.8"/>
      </g>
     </g>
     <g id="text_13">
      <!-- 15 -->
      <g transform="translate(37.875 185.887219) scale(0.1 -0.1)">
       <use xlink:href="#DejaVuSans-31"/>
       <use xlink:href="#DejaVuSans-35" x="63.623047"/>
      </g>
     </g>
    </g>
    <g id="ytick_5">
     <g id="line2d_13">
      <g>
       <use xlink:href="#mb89848e965" x="57.6" y="144.288" style="stroke: #000000; stroke-width: 0.8"/>
      </g>
     </g>
     <g id="text_14">
      <!-- 20 -->
      <g transform="translate(37.875 148.087219) scale(0.1 -0.1)">
       <use xlink:href="#DejaVuSans-32"/>
       <use xlink:href="#DejaVuSans-30" x="63.623047"/>
      </g>
     </g>
    </g>
    <g id="ytick_6">
     <g id="line2d_14">
      <g>
       <use xlink:href="#mb89848e965" x="57.6" y="106.488" style="stroke: #000000; stroke-width: 0.8"/>
      </g>
     </g>
     <g id="text_15">
      <!-- 25 -->
      <g transform="translate(37.875 110.287219) scale(0.1 -0.1)">
       <use xlink:href="#DejaVuSans-32"/>
       <use xlink:href="#DejaVuSans-35" x="63.623047"/>
      </g>
     </g>
    </g>
    <g id="ytick_7">
     <g id="line2d_15">
      <g>
       <use xlink:href="#mb89848e965" x="57.6" y="68.688" style="stroke: #000000; stroke-width: 0.8"/>
      </g>
     </g>
     <g id="text_16">
      <!-- 30 -->
      <g transform="translate(37.875 72.487219) scale(0.1 -0.1)">
       <use xlink:href="#DejaVuSans-33"/>
       <use xlink:href="#DejaVuSans-30" x="63.623047"/>
      </g>
     </g>
    </g>
   </g>
   <g id="line2d_16">
    <path d="M 73.832727 272.808 
L 74.189914 295.488 
L 74.494252 280.368 
L 74.851439 295.488 
L 75.091082 280.368 
L 75.448269 295.488 
L 75.751695 280.368 
L 76.108882 295.488 
L 76.386795 280.368 
L 76.743982 295.488 
L 77.047408 280.368 
L 77.404595 295.488 
L 77.675219 280.368 
L 78.032406 295.488 
L 78.313052 287.928 
L 78.670239 295.488 
L 84.192055 250.128 
L 84.494571 235.008 
L 84.549242 280.368 
L 84.782507 265.248 
L 84.851758 280.368 
L 85.06771 265.248 
L 85.142427 280.368 
L 85.338333 265.248 
L 85.423985 280.368 
L 85.629003 272.808 
L 85.69552 287.928 
L 86.036306 295.488 
L 86.30784 280.368 
L 86.665027 295.488 
L 86.907404 280.368 
L 87.264591 295.488 
L 87.576218 280.368 
L 87.933405 295.488 
L 88.183982 280.368 
L 88.540258 295.488 
L 88.854619 280.368 
L 89.210894 295.488 
L 89.455093 280.368 
L 89.81228 295.488 
L 90.085637 280.368 
L 90.442824 295.488 
L 90.771764 280.368 
L 91.128951 295.488 
L 91.379528 280.368 
L 91.736715 295.488 
L 92.047431 280.368 
L 92.404618 295.488 
L 92.682531 280.368 
L 93.039718 295.488 
L 93.276628 280.368 
L 93.633814 295.488 
L 93.950909 280.368 
L 94.307184 295.488 
L 94.557762 280.368 
L 95.201974 265.248 
L 95.527269 280.368 
L 95.837074 265.248 
L 97.144632 235.008 
L 98.092271 219.888 
L 98.248996 235.008 
L 98.303667 265.248 
L 98.698213 250.128 
L 98.870428 280.368 
L 99.393451 265.248 
L 99.422609 280.368 
L 99.750638 295.488 
L 99.994837 280.368 
L 100.352024 295.488 
L 100.975279 280.368 
L 101.332465 295.488 
L 101.603089 280.368 
L 101.960276 295.488 
L 102.203564 280.368 
L 102.559839 295.488 
L 102.865999 280.368 
L 103.223186 295.488 
L 103.485609 280.368 
L 103.842796 295.488 
L 104.137111 280.368 
L 104.494297 295.488 
L 104.792257 280.368 
L 105.149444 295.488 
L 105.417334 280.368 
L 105.77452 295.488 
L 106.044233 280.368 
L 106.40142 295.488 
L 106.731271 280.368 
L 107.088458 295.488 
L 107.340857 280.368 
L 107.698044 295.488 
L 107.992359 280.368 
L 108.349546 295.488 
L 108.607413 280.368 
L 108.964599 295.488 
L 109.228845 280.368 
L 109.586032 295.488 
L 109.89128 287.928 
L 110.248467 295.488 
L 111.914124 257.688 
L 112.271311 295.488 
L 112.815292 265.248 
L 113.172479 295.488 
L 113.700969 272.808 
L 114.058156 295.488 
L 114.6887 257.688 
L 115.045887 295.488 
L 126.528713 265.248 
L 126.8859 295.488 
L 127.412568 219.888 
L 127.769755 295.488 
L 127.814403 265.248 
L 128.17159 295.488 
L 128.221706 265.248 
L 128.578892 295.488 
L 128.649965 265.248 
L 129.007152 295.488 
L 129.029932 265.248 
L 129.387119 295.488 
L 129.453636 265.248 
L 129.810822 295.488 
L 129.856382 265.248 
L 130.213569 295.488 
L 130.280997 265.248 
L 130.638184 295.488 
L 130.704701 272.808 
L 131.061887 295.488 
L 131.147539 280.368 
L 131.503815 295.488 
L 131.572154 280.368 
L 131.929341 295.488 
L 132.201787 272.808 
L 132.558974 295.488 
L 134.013234 235.008 
L 134.338529 257.688 
L 134.880688 227.448 
L 138.522718 106.488 
L 139.192443 144.288 
L 139.219778 174.528 
L 139.429352 144.288 
L 139.790184 174.528 
L 139.844855 235.008 
L 140.374257 204.768 
L 140.427106 265.248 
L 140.937373 295.488 
L 141.257201 265.248 
L 141.614388 295.488 
L 142.156546 272.808 
L 142.512822 295.488 
L 148.553106 257.688 
L 148.909381 295.488 
L 149.45154 219.888 
L 149.807815 295.488 
L 149.888911 265.248 
L 150.246098 295.488 
L 150.288013 280.368 
L 150.6452 295.488 
L 166.036123 219.888 
L 166.39331 295.488 
L 166.446159 272.808 
L 166.803346 295.488 
L 166.85984 287.928 
L 167.217027 295.488 
L 177.006861 204.768 
L 177.364047 295.488 
L 177.374982 265.248 
L 177.732168 295.488 
L 177.782284 265.248 
L 178.139471 295.488 
L 178.170451 265.248 
L 178.598711 235.008 
L 178.924006 265.248 
L 178.985056 235.008 
L 179.848865 174.528 
L 181.123621 129.168 
L 182.01112 98.928 
L 186.080499 129.168 
L 186.13517 189.648 
L 186.551584 114.048 
L 186.732911 174.528 
L 186.972554 144.288 
L 187.293293 159.408 
L 187.347965 265.248 
L 187.388968 235.008 
L 187.788981 204.768 
L 187.845475 235.008 
L 188.168037 204.768 
L 188.588096 182.088 
L 188.964417 174.528 
L 190.825069 159.408 
L 191.072913 189.648 
L 191.100249 219.888 
L 191.484771 204.768 
L 191.677944 257.688 
L 191.705279 265.248 
L 192.104381 257.688 
L 192.429676 287.928 
L 192.806909 295.488 
L 193.059309 272.808 
L 193.416496 295.488 
L 193.702609 280.368 
L 194.059796 295.488 
L 194.325864 280.368 
L 194.683051 295.488 
L 194.978277 280.368 
L 195.335463 295.488 
L 195.636156 280.368 
L 195.993343 295.488 
L 196.233897 280.368 
L 196.591084 295.488 
L 196.858063 280.368 
L 197.21525 295.488 
L 197.491341 280.368 
L 197.848528 295.488 
L 198.139197 280.368 
L 198.496384 295.488 
L 209.731367 265.248 
L 209.990145 250.128 
L 210.088553 280.368 
L 210.268058 265.248 
L 210.347332 280.368 
L 210.580597 265.248 
L 210.625245 280.368 
L 210.852131 265.248 
L 210.937783 280.368 
L 211.129133 265.248 
L 211.209318 280.368 
L 211.428915 265.248 
L 211.48632 280.368 
L 211.72323 272.808 
L 211.785191 287.928 
L 212.015722 280.368 
L 212.080417 287.928 
L 212.307303 280.368 
L 212.372909 287.928 
L 212.663579 295.488 
L 212.754698 280.368 
L 213.111885 295.488 
L 213.399821 280.368 
L 213.757008 295.488 
L 214.023987 280.368 
L 214.381173 295.488 
L 214.649975 280.368 
L 215.007161 295.488 
L 215.301476 280.368 
L 215.658663 295.488 
L 215.935665 280.368 
L 216.292852 295.488 
L 216.572587 280.368 
L 216.929774 295.488 
L 217.197664 280.368 
L 217.55394 295.488 
L 217.87559 280.368 
L 218.232777 295.488 
L 218.517979 280.368 
L 218.875166 295.488 
L 219.16128 280.368 
L 219.518467 295.488 
L 219.778156 280.368 
L 220.135343 295.488 
L 220.417812 280.368 
L 220.774088 295.488 
L 221.122163 280.368 
L 221.47935 295.488 
L 221.737217 280.368 
L 222.093492 295.488 
L 222.349537 280.368 
L 222.706724 295.488 
L 223.001949 280.368 
L 223.359136 295.488 
L 223.589667 287.928 
L 223.946854 295.488 
L 224.261215 280.368 
L 224.618402 295.488 
L 235.836072 272.808 
L 236.193258 295.488 
L 236.476639 280.368 
L 236.832914 295.488 
L 236.855694 257.688 
L 237.119028 242.568 
L 237.212881 280.368 
L 237.383274 265.248 
L 237.476215 280.368 
L 237.660276 265.248 
L 237.74046 280.368 
L 237.943656 265.248 
L 238.017462 280.368 
L 238.223392 250.128 
L 238.300843 265.248 
L 238.580578 295.488 
L 238.723635 250.128 
L 239.080822 295.488 
L 239.127293 265.248 
L 239.48448 295.488 
L 239.521838 265.248 
L 239.879025 295.488 
L 239.948276 265.248 
L 240.305463 295.488 
L 240.386558 272.808 
L 240.743745 295.488 
L 240.84671 272.808 
L 241.203897 295.488 
L 241.232144 280.368 
L 241.58933 295.488 
L 241.640357 272.808 
L 241.997544 295.488 
L 242.076817 280.368 
L 242.434004 295.488 
L 242.808504 265.248 
L 243.164779 295.488 
L 243.528344 265.248 
L 243.885531 295.488 
L 244.279166 265.248 
L 244.636352 295.488 
L 244.993539 265.248 
L 245.350726 295.488 
L 245.747094 265.248 
L 246.104281 295.488 
L 246.531629 265.248 
L 246.888816 295.488 
L 247.225045 265.248 
L 247.582232 295.488 
L 247.953087 265.248 
L 248.310274 295.488 
L 248.686595 265.248 
L 249.043782 295.488 
L 249.431038 265.248 
L 249.788225 295.488 
L 250.139034 265.248 
L 250.49622 295.488 
L 250.860697 265.248 
L 251.216972 295.488 
L 251.614251 265.248 
L 251.971438 295.488 
L 252.357783 265.248 
L 252.71497 295.488 
L 253.068512 265.248 
L 253.425699 295.488 
L 253.76375 265.248 
L 254.120937 295.488 
L 254.514572 265.248 
L 254.871758 295.488 
L 255.273594 265.248 
L 255.63078 295.488 
L 255.977944 265.248 
L 256.335131 295.488 
L 256.664982 265.248 
L 257.022169 295.488 
L 257.465919 265.248 
L 257.822194 295.488 
L 258.169358 265.248 
L 258.526545 295.488 
L 258.888288 265.248 
L 259.244563 295.488 
L 259.630908 265.248 
L 259.988095 295.488 
L 260.375351 265.248 
L 260.732538 295.488 
L 261.050543 265.248 
L 261.40773 295.488 
L 261.782229 265.248 
L 262.139416 295.488 
L 262.534873 265.248 
L 262.89206 295.488 
L 263.285694 265.248 
L 263.642881 295.488 
L 264.003713 265.248 
L 264.360899 295.488 
L 264.706241 265.248 
L 265.063428 295.488 
L 265.467996 265.248 
L 265.824272 295.488 
L 266.188748 265.248 
L 266.545935 295.488 
L 266.911322 265.248 
L 267.268509 295.488 
L 267.663966 265.248 
L 268.021153 295.488 
L 281.665324 212.328 
L 282.022511 295.488 
L 282.038001 265.248 
L 282.395188 295.488 
L 282.420701 265.248 
L 282.830737 235.008 
L 283.155121 265.248 
L 283.253529 235.008 
L 285.699165 53.568 
L 293.510804 83.808 
L 293.565475 144.288 
L 294.017426 83.808 
L 294.15046 144.288 
L 294.177796 174.528 
L 294.436574 144.288 
L 294.694441 174.528 
L 294.721777 204.768 
L 294.833853 174.528 
L 295.253001 144.288 
L 295.32134 235.008 
L 295.578296 265.248 
L 295.659392 235.008 
L 296.016579 295.488 
L 296.069428 265.248 
L 296.426615 295.488 
L 296.456684 265.248 
L 296.813871 295.488 
L 296.885855 265.248 
L 297.243041 295.488 
L 297.302269 265.248 
L 297.659456 295.488 
L 297.709571 265.248 
L 298.065847 295.488 
L 298.119607 265.248 
L 298.475883 295.488 
L 298.515975 265.248 
L 298.873162 295.488 
L 298.909609 265.248 
L 299.266796 295.488 
L 299.30051 265.248 
L 299.657697 295.488 
L 299.722392 265.248 
L 300.079578 295.488 
L 300.180721 265.248 
L 300.537907 295.488 
L 300.557954 265.248 
L 300.914229 295.488 
L 300.932453 265.248 
L 301.28964 295.488 
L 301.306041 265.248 
L 301.663228 295.488 
L 301.707876 265.248 
L 302.065063 295.488 
L 302.117912 265.248 
L 302.475099 295.488 
L 302.506991 265.248 
L 302.864177 295.488 
L 302.914293 265.248 
L 303.27148 295.488 
L 303.30246 265.248 
L 303.659647 295.488 
L 303.697006 265.248 
L 304.054193 295.488 
L 304.107042 272.808 
L 304.463317 295.488 
L 304.948982 280.368 
L 305.305258 295.488 
L 305.400021 272.808 
L 305.691603 265.248 
L 305.757208 287.928 
L 305.96496 272.808 
L 306.322147 295.488 
L 317.509747 280.368 
L 317.866934 295.488 
L 318.117511 280.368 
L 318.473787 295.488 
L 318.759901 257.688 
L 319.056949 242.568 
L 319.117088 280.368 
L 319.36402 265.248 
L 319.413225 280.368 
L 319.644667 265.248 
L 319.721207 280.368 
L 319.908912 265.248 
L 320.000943 280.368 
L 320.191382 265.248 
L 320.311659 280.368 
L 320.479318 265.248 
L 320.548568 280.368 
L 320.784567 265.248 
L 320.836505 280.368 
L 321.098928 265.248 
L 321.141754 280.368 
L 321.408732 265.248 
L 321.456114 280.368 
L 321.715804 265.248 
L 321.765919 280.368 
L 322.01923 265.248 
L 322.072991 280.368 
L 322.313545 265.248 
L 322.376417 280.368 
L 322.60057 272.808 
L 322.670732 287.928 
L 322.899441 280.368 
L 322.958668 287.928 
L 323.17462 280.368 
L 323.256627 287.928 
L 323.531807 295.488 
L 323.806987 280.368 
L 324.164173 295.488 
L 324.435708 280.368 
L 324.792895 295.488 
L 325.089943 280.368 
L 325.44713 295.488 
L 325.720487 280.368 
L 326.077674 295.488 
L 326.344653 280.368 
L 326.700929 295.488 
L 326.98522 280.368 
L 327.342407 295.488 
L 327.636722 280.368 
L 327.992997 295.488 
L 328.245397 280.368 
L 328.602584 295.488 
L 328.919678 280.368 
L 329.276865 295.488 
L 329.535643 280.368 
L 329.89283 295.488 
L 330.170743 280.368 
L 330.52793 295.488 
L 330.855047 280.368 
L 331.212234 295.488 
L 331.464634 280.368 
L 331.821821 295.488 
L 332.100645 280.368 
L 332.457832 295.488 
L 332.720255 280.368 
L 333.077442 295.488 
L 333.366289 280.368 
L 333.723476 295.488 
L 334.034192 280.368 
L 334.391379 295.488 
L 334.647423 280.368 
L 335.003699 295.488 
L 335.290724 280.368 
L 335.647911 295.488 
L 335.961361 280.368 
L 336.317636 295.488 
L 336.914466 280.368 
L 337.270742 295.488 
L 337.565056 287.928 
L 337.922243 295.488 
L 356.036716 280.368 
L 356.393903 295.488 
L 356.701885 272.808 
L 357.059072 295.488 
L 357.349742 280.368 
L 357.706018 295.488 
L 357.981197 280.368 
L 358.338384 295.488 
L 358.624498 287.928 
L 358.981685 295.488 
L 361.071956 257.688 
L 361.429143 295.488 
L 362.024151 265.248 
L 362.381338 295.488 
L 362.897072 265.248 
L 363.254258 295.488 
L 363.789127 265.248 
L 364.146314 295.488 
L 364.72492 265.248 
L 365.082107 295.488 
L 365.59693 272.808 
L 365.954117 295.488 
L 366.54548 257.688 
L 366.902666 295.488 
L 367.431157 280.368 
L 367.787433 295.488 
L 368.584725 250.128 
L 368.941911 295.488 
L 369.495004 265.248 
L 369.852191 295.488 
L 370.434442 265.248 
L 370.791629 295.488 
L 371.291872 265.248 
L 371.649059 295.488 
L 372.451818 265.248 
L 372.809005 295.488 
L 373.368476 265.248 
L 373.725663 295.488 
L 374.269644 265.248 
L 374.626831 295.488 
L 375.162611 265.248 
L 375.519798 295.488 
L 376.098404 265.248 
L 376.455591 295.488 
L 376.978614 265.248 
L 377.335801 295.488 
L 377.873403 272.808 
L 378.23059 295.488 
L 378.811019 257.688 
L 379.168206 295.488 
L 379.740433 265.248 
L 380.09762 295.488 
L 380.620644 265.248 
L 380.97783 295.488 
L 381.539124 265.248 
L 381.8954 295.488 
L 382.479473 265.248 
L 382.83666 295.488 
L 383.345104 265.248 
L 383.702291 295.488 
L 384.278164 265.248 
L 385.173864 235.008 
L 385.499159 265.248 
L 387.003535 204.768 
L 391.542177 61.128 
L 396.749632 91.368 
L 396.804303 151.848 
L 397.210694 121.608 
L 397.355574 151.848 
L 397.410245 212.328 
L 397.92689 242.568 
L 397.954226 265.248 
L 398.487273 295.488 
L 398.487273 295.488 
" clip-path="url(#p61232dc138)" style="fill: none; stroke: #1f77b4; stroke-width: 1.5; stroke-linecap: square"/>
   </g>
   <g id="patch_3">
    <path d="M 57.6 307.584 
L 57.6 41.472 
" style="fill: none; stroke: #000000; stroke-width: 0.8; stroke-linejoin: miter; stroke-linecap: square"/>
   </g>
   <g id="patch_4">
    <path d="M 414.72 307.584 
L 414.72 41.472 
" style="fill: none; stroke: #000000; stroke-width: 0.8; stroke-linejoin: miter; stroke-linecap: square"/>
   </g>
   <g id="patch_5">
    <path d="M 57.6 307.584 
L 414.72 307.584 
" style="fill: none; stroke: #000000; stroke-width: 0.8; stroke-linejoin: miter; stroke-linecap: square"/>
   </g>
   <g id="patch_6">
    <path d="M 57.6 41.472 
L 414.72 41.472 
" style="fill: none; stroke: #000000; stroke-width: 0.8; stroke-linejoin: miter; stroke-linecap: square"/>
   </g>
   <g id="text_17">
    <!-- Queue size (y-axis) between S7 and sensors that follow at a time (x-axis). -->
    <g transform="translate(14.282813 35.472) scale(0.12 -0.12)">
     <defs>
      <path id="DejaVuSans-51" d="M 2522 4238 
Q 1834 4238 1429 3725 
Q 1025 3213 1025 2328 
Q 1025 1447 1429 934 
Q 1834 422 2522 422 
Q 3209 422 3611 934 
Q 4013 1447 4013 2328 
Q 4013 3213 3611 3725 
Q 3209 4238 2522 4238 
z
M 3406 84 
L 4238 -825 
L 3475 -825 
L 2784 -78 
Q 2681 -84 2626 -87 
Q 2572 -91 2522 -91 
Q 1538 -91 948 567 
Q 359 1225 359 2328 
Q 359 3434 948 4092 
Q 1538 4750 2522 4750 
Q 3503 4750 4090 4092 
Q 4678 3434 4678 2328 
Q 4678 1516 4351 937 
Q 4025 359 3406 84 
z
" transform="scale(0.015625)"/>
      <path id="DejaVuSans-75" d="M 544 1381 
L 544 3500 
L 1119 3500 
L 1119 1403 
Q 1119 906 1312 657 
Q 1506 409 1894 409 
Q 2359 409 2629 706 
Q 2900 1003 2900 1516 
L 2900 3500 
L 3475 3500 
L 3475 0 
L 2900 0 
L 2900 538 
Q 2691 219 2414 64 
Q 2138 -91 1772 -91 
Q 1169 -91 856 284 
Q 544 659 544 1381 
z
M 1991 3584 
L 1991 3584 
z
" transform="scale(0.015625)"/>
      <path id="DejaVuSans-20" transform="scale(0.015625)"/>
      <path id="DejaVuSans-73" d="M 2834 3397 
L 2834 2853 
Q 2591 2978 2328 3040 
Q 2066 3103 1784 3103 
Q 1356 3103 1142 2972 
Q 928 2841 928 2578 
Q 928 2378 1081 2264 
Q 1234 2150 1697 2047 
L 1894 2003 
Q 2506 1872 2764 1633 
Q 3022 1394 3022 966 
Q 3022 478 2636 193 
Q 2250 -91 1575 -91 
Q 1294 -91 989 -36 
Q 684 19 347 128 
L 347 722 
Q 666 556 975 473 
Q 1284 391 1588 391 
Q 1994 391 2212 530 
Q 2431 669 2431 922 
Q 2431 1156 2273 1281 
Q 2116 1406 1581 1522 
L 1381 1569 
Q 847 1681 609 1914 
Q 372 2147 372 2553 
Q 372 3047 722 3315 
Q 1072 3584 1716 3584 
Q 2034 3584 2315 3537 
Q 2597 3491 2834 3397 
z
" transform="scale(0.015625)"/>
      <path id="DejaVuSans-69" d="M 603 3500 
L 1178 3500 
L 1178 0 
L 603 0 
L 603 3500 
z
M 603 4863 
L 1178 4863 
L 1178 4134 
L 603 4134 
L 603 4863 
z
" transform="scale(0.015625)"/>
      <path id="DejaVuSans-7a" d="M 353 3500 
L 3084 3500 
L 3084 2975 
L 922 459 
L 3084 459 
L 3084 0 
L 275 0 
L 275 525 
L 2438 3041 
L 353 3041 
L 353 3500 
z
" transform="scale(0.015625)"/>
      <path id="DejaVuSans-28" d="M 1984 4856 
Q 1566 4138 1362 3434 
Q 1159 2731 1159 2009 
Q 1159 1288 1364 580 
Q 1569 -128 1984 -844 
L 1484 -844 
Q 1016 -109 783 600 
Q 550 1309 550 2009 
Q 550 2706 781 3412 
Q 1013 4119 1484 4856 
L 1984 4856 
z
" transform="scale(0.015625)"/>
      <path id="DejaVuSans-79" d="M 2059 -325 
Q 1816 -950 1584 -1140 
Q 1353 -1331 966 -1331 
L 506 -1331 
L 506 -850 
L 844 -850 
Q 1081 -850 1212 -737 
Q 1344 -625 1503 -206 
L 1606 56 
L 191 3500 
L 800 3500 
L 1894 763 
L 2988 3500 
L 3597 3500 
L 2059 -325 
z
" transform="scale(0.015625)"/>
      <path id="DejaVuSans-2d" d="M 313 2009 
L 1997 2009 
L 1997 1497 
L 313 1497 
L 313 2009 
z
" transform="scale(0.015625)"/>
      <path id="DejaVuSans-61" d="M 2194 1759 
Q 1497 1759 1228 1600 
Q 959 1441 959 1056 
Q 959 750 1161 570 
Q 1363 391 1709 391 
Q 2188 391 2477 730 
Q 2766 1069 2766 1631 
L 2766 1759 
L 2194 1759 
z
M 3341 1997 
L 3341 0 
L 2766 0 
L 2766 531 
Q 2569 213 2275 61 
Q 1981 -91 1556 -91 
Q 1019 -91 701 211 
Q 384 513 384 1019 
Q 384 1609 779 1909 
Q 1175 2209 1959 2209 
L 2766 2209 
L 2766 2266 
Q 2766 2663 2505 2880 
Q 2244 3097 1772 3097 
Q 1472 3097 1187 3025 
Q 903 2953 641 2809 
L 641 3341 
Q 956 3463 1253 3523 
Q 1550 3584 1831 3584 
Q 2591 3584 2966 3190 
Q 3341 2797 3341 1997 
z
" transform="scale(0.015625)"/>
      <path id="DejaVuSans-78" d="M 3513 3500 
L 2247 1797 
L 3578 0 
L 2900 0 
L 1881 1375 
L 863 0 
L 184 0 
L 1544 1831 
L 300 3500 
L 978 3500 
L 1906 2253 
L 2834 3500 
L 3513 3500 
z
" transform="scale(0.015625)"/>
      <path id="DejaVuSans-29" d="M 513 4856 
L 1013 4856 
Q 1481 4119 1714 3412 
Q 1947 2706 1947 2009 
Q 1947 1309 1714 600 
Q 1481 -109 1013 -844 
L 513 -844 
Q 928 -128 1133 580 
Q 1338 1288 1338 2009 
Q 1338 2731 1133 3434 
Q 928 4138 513 4856 
z
" transform="scale(0.015625)"/>
      <path id="DejaVuSans-62" d="M 3116 1747 
Q 3116 2381 2855 2742 
Q 2594 3103 2138 3103 
Q 1681 3103 1420 2742 
Q 1159 2381 1159 1747 
Q 1159 1113 1420 752 
Q 1681 391 2138 391 
Q 2594 391 2855 752 
Q 3116 1113 3116 1747 
z
M 1159 2969 
Q 1341 3281 1617 3432 
Q 1894 3584 2278 3584 
Q 2916 3584 3314 3078 
Q 3713 2572 3713 1747 
Q 3713 922 3314 415 
Q 2916 -91 2278 -91 
Q 1894 -91 1617 61 
Q 1341 213 1159 525 
L 1159 0 
L 581 0 
L 581 4863 
L 1159 4863 
L 1159 2969 
z
" transform="scale(0.015625)"/>
      <path id="DejaVuSans-74" d="M 1172 4494 
L 1172 3500 
L 2356 3500 
L 2356 3053 
L 1172 3053 
L 1172 1153 
Q 1172 725 1289 603 
Q 1406 481 1766 481 
L 2356 481 
L 2356 0 
L 1766 0 
Q 1100 0 847 248 
Q 594 497 594 1153 
L 594 3053 
L 172 3053 
L 172 3500 
L 594 3500 
L 594 4494 
L 1172 4494 
z
" transform="scale(0.015625)"/>
      <path id="DejaVuSans-77" d="M 269 3500 
L 844 3500 
L 1563 769 
L 2278 3500 
L 2956 3500 
L 3675 769 
L 4391 3500 
L 4966 3500 
L 4050 0 
L 3372 0 
L 2619 2869 
L 1863 0 
L 1184 0 
L 269 3500 
z
" transform="scale(0.015625)"/>
      <path id="DejaVuSans-6e" d="M 3513 2113 
L 3513 0 
L 2938 0 
L 2938 2094 
Q 2938 2591 2744 2837 
Q 2550 3084 2163 3084 
Q 1697 3084 1428 2787 
Q 1159 2491 1159 1978 
L 1159 0 
L 581 0 
L 581 3500 
L 1159 3500 
L 1159 2956 
Q 1366 3272 1645 3428 
Q 1925 3584 2291 3584 
Q 2894 3584 3203 3211 
Q 3513 2838 3513 2113 
z
" transform="scale(0.015625)"/>
      <path id="DejaVuSans-53" d="M 3425 4513 
L 3425 3897 
Q 3066 4069 2747 4153 
Q 2428 4238 2131 4238 
Q 1616 4238 1336 4038 
Q 1056 3838 1056 3469 
Q 1056 3159 1242 3001 
Q 1428 2844 1947 2747 
L 2328 2669 
Q 3034 2534 3370 2195 
Q 3706 1856 3706 1288 
Q 3706 609 3251 259 
Q 2797 -91 1919 -91 
Q 1588 -91 1214 -16 
Q 841 59 441 206 
L 441 856 
Q 825 641 1194 531 
Q 1563 422 1919 422 
Q 2459 422 2753 634 
Q 3047 847 3047 1241 
Q 3047 1584 2836 1778 
Q 2625 1972 2144 2069 
L 1759 2144 
Q 1053 2284 737 2584 
Q 422 2884 422 3419 
Q 422 4038 858 4394 
Q 1294 4750 2059 4750 
Q 2388 4750 2728 4690 
Q 3069 4631 3425 4513 
z
" transform="scale(0.015625)"/>
      <path id="DejaVuSans-37" d="M 525 4666 
L 3525 4666 
L 3525 4397 
L 1831 0 
L 1172 0 
L 2766 4134 
L 525 4134 
L 525 4666 
z
" transform="scale(0.015625)"/>
      <path id="DejaVuSans-64" d="M 2906 2969 
L 2906 4863 
L 3481 4863 
L 3481 0 
L 2906 0 
L 2906 525 
Q 2725 213 2448 61 
Q 2172 -91 1784 -91 
Q 1150 -91 751 415 
Q 353 922 353 1747 
Q 353 2572 751 3078 
Q 1150 3584 1784 3584 
Q 2172 3584 2448 3432 
Q 2725 3281 2906 2969 
z
M 947 1747 
Q 947 1113 1208 752 
Q 1469 391 1925 391 
Q 2381 391 2643 752 
Q 2906 1113 2906 1747 
Q 2906 2381 2643 2742 
Q 2381 3103 1925 3103 
Q 1469 3103 1208 2742 
Q 947 2381 947 1747 
z
" transform="scale(0.015625)"/>
      <path id="DejaVuSans-6f" d="M 1959 3097 
Q 1497 3097 1228 2736 
Q 959 2375 959 1747 
Q 959 1119 1226 758 
Q 1494 397 1959 397 
Q 2419 397 2687 759 
Q 2956 1122 2956 1747 
Q 2956 2369 2687 2733 
Q 2419 3097 1959 3097 
z
M 1959 3584 
Q 2709 3584 3137 3096 
Q 3566 2609 3566 1747 
Q 3566 888 3137 398 
Q 2709 -91 1959 -91 
Q 1206 -91 779 398 
Q 353 888 353 1747 
Q 353 2609 779 3096 
Q 1206 3584 1959 3584 
z
" transform="scale(0.015625)"/>
      <path id="DejaVuSans-72" d="M 2631 2963 
Q 2534 3019 2420 3045 
Q 2306 3072 2169 3072 
Q 1681 3072 1420 2755 
Q 1159 2438 1159 1844 
L 1159 0 
L 581 0 
L 581 3500 
L 1159 3500 
L 1159 2956 
Q 1341 3275 1631 3429 
Q 1922 3584 2338 3584 
Q 2397 3584 2469 3576 
Q 2541 3569 2628 3553 
L 2631 2963 
z
" transform="scale(0.015625)"/>
      <path id="DejaVuSans-68" d="M 3513 2113 
L 3513 0 
L 2938 0 
L 2938 2094 
Q 2938 2591 2744 2837 
Q 2550 3084 2163 3084 
Q 1697 3084 1428 2787 
Q 1159 2491 1159 1978 
L 1159 0 
L 581 0 
L 581 4863 
L 1159 4863 
L 1159 2956 
Q 1366 3272 1645 3428 
Q 1925 3584 2291 3584 
Q 2894 3584 3203 3211 
Q 3513 2838 3513 2113 
z
" transform="scale(0.015625)"/>
      <path id="DejaVuSans-66" d="M 2375 4863 
L 2375 4384 
L 1825 4384 
Q 1516 4384 1395 4259 
Q 1275 4134 1275 3809 
L 1275 3500 
L 2222 3500 
L 2222 3053 
L 1275 3053 
L 1275 0 
L 697 0 
L 697 3053 
L 147 3053 
L 147 3500 
L 697 3500 
L 697 3744 
Q 697 4328 969 4595 
Q 1241 4863 1831 4863 
L 2375 4863 
z
" transform="scale(0.015625)"/>
      <path id="DejaVuSans-6c" d="M 603 4863 
L 1178 4863 
L 1178 0 
L 603 0 
L 603 4863 
z
" transform="scale(0.015625)"/>
      <path id="DejaVuSans-6d" d="M 3328 2828 
Q 3544 3216 3844 3400 
Q 4144 3584 4550 3584 
Q 5097 3584 5394 3201 
Q 5691 2819 5691 2113 
L 5691 0 
L 5113 0 
L 5113 2094 
Q 5113 2597 4934 2840 
Q 4756 3084 4391 3084 
Q 3944 3084 3684 2787 
Q 3425 2491 3425 1978 
L 3425 0 
L 2847 0 
L 2847 2094 
Q 2847 2600 2669 2842 
Q 2491 3084 2119 3084 
Q 1678 3084 1418 2786 
Q 1159 2488 1159 1978 
L 1159 0 
L 581 0 
L 581 3500 
L 1159 3500 
L 1159 2956 
Q 1356 3278 1631 3431 
Q 1906 3584 2284 3584 
Q 2666 3584 2933 3390 
Q 3200 3197 3328 2828 
z
" transform="scale(0.015625)"/>
     </defs>
     <use xlink:href="#DejaVuSans-51"/>
     <use xlink:href="#DejaVuSans-75" x="78.710938"/>
     <use xlink:href="#DejaVuSans-65" x="142.089844"/>
     <use xlink:href="#DejaVuSans-75" x="203.613281"/>
     <use xlink:href="#DejaVuSans-65" x="266.992188"/>
     <use xlink:href="#DejaVuSans-20" x="328.515625"/>
     <use xlink:href="#DejaVuSans-73" x="360.302734"/>
     <use xlink:href="#DejaVuSans-69" x="412.402344"/>
     <use xlink:href="#DejaVuSans-7a" x="440.185547"/>
     <use xlink:href="#DejaVuSans-65" x="492.675781"/>
     <use xlink:href="#DejaVuSans-20" x="554.199219"/>
     <use xlink:href="#DejaVuSans-28" x="585.986328"/>
     <use xlink:href="#DejaVuSans-79" x="625"/>
     <use xlink:href="#DejaVuSans-2d" x="682.429688"/>
     <use xlink:href="#DejaVuSans-61" x="718.513672"/>
     <use xlink:href="#DejaVuSans-78" x="779.792969"/>
     <use xlink:href="#DejaVuSans-69" x="838.972656"/>
     <use xlink:href="#DejaVuSans-73" x="866.755859"/>
     <use xlink:href="#DejaVuSans-29" x="918.855469"/>
     <use xlink:href="#DejaVuSans-20" x="957.869141"/>
     <use xlink:href="#DejaVuSans-62" x="989.65625"/>
     <use xlink:href="#DejaVuSans-65" x="1053.132812"/>
     <use xlink:href="#DejaVuSans-74" x="1114.65625"/>
     <use xlink:href="#DejaVuSans-77" x="1153.865234"/>
     <use xlink:href="#DejaVuSans-65" x="1235.652344"/>
     <use xlink:href="#DejaVuSans-65" x="1297.175781"/>
     <use xlink:href="#DejaVuSans-6e" x="1358.699219"/>
     <use xlink:href="#DejaVuSans-20" x="1422.078125"/>
     <use xlink:href="#DejaVuSans-53" x="1453.865234"/>
     <use xlink:href="#DejaVuSans-37" x="1517.341797"/>
     <use xlink:href="#DejaVuSans-20" x="1580.964844"/>
     <use xlink:href="#DejaVuSans-61" x="1612.751953"/>
     <use xlink:href="#DejaVuSans-6e" x="1674.03125"/>
     <use xlink:href="#DejaVuSans-64" x="1737.410156"/>
     <use xlink:href="#DejaVuSans-20" x="1800.886719"/>
     <use xlink:href="#DejaVuSans-73" x="1832.673828"/>
     <use xlink:href="#DejaVuSans-65" x="1884.773438"/>
     <use xlink:href="#DejaVuSans-6e" x="1946.296875"/>
     <use xlink:href="#DejaVuSans-73" x="2009.675781"/>
     <use xlink:href="#DejaVuSans-6f" x="2061.775391"/>
     <use xlink:href="#DejaVuSans-72" x="2122.957031"/>
     <use xlink:href="#DejaVuSans-73" x="2164.070312"/>
     <use xlink:href="#DejaVuSans-20" x="2216.169922"/>
     <use xlink:href="#DejaVuSans-74" x="2247.957031"/>
     <use xlink:href="#DejaVuSans-68" x="2287.166016"/>
     <use xlink:href="#DejaVuSans-61" x="2350.544922"/>
     <use xlink:href="#DejaVuSans-74" x="2411.824219"/>
     <use xlink:href="#DejaVuSans-20" x="2451.033203"/>
     <use xlink:href="#DejaVuSans-66" x="2482.820312"/>
     <use xlink:href="#DejaVuSans-6f" x="2518.025391"/>
     <use xlink:href="#DejaVuSans-6c" x="2579.207031"/>
     <use xlink:href="#DejaVuSans-6c" x="2606.990234"/>
     <use xlink:href="#DejaVuSans-6f" x="2634.773438"/>
     <use xlink:href="#DejaVuSans-77" x="2695.955078"/>
     <use xlink:href="#DejaVuSans-20" x="2777.742188"/>
     <use xlink:href="#DejaVuSans-61" x="2809.529297"/>
     <use xlink:href="#DejaVuSans-74" x="2870.808594"/>
     <use xlink:href="#DejaVuSans-20" x="2910.017578"/>
     <use xlink:href="#DejaVuSans-61" x="2941.804688"/>
     <use xlink:href="#DejaVuSans-20" x="3003.083984"/>
     <use xlink:href="#DejaVuSans-74" x="3034.871094"/>
     <use xlink:href="#DejaVuSans-69" x="3074.080078"/>
     <use xlink:href="#DejaVuSans-6d" x="3101.863281"/>
     <use xlink:href="#DejaVuSans-65" x="3199.275391"/>
     <use xlink:href="#DejaVuSans-20" x="3260.798828"/>
     <use xlink:href="#DejaVuSans-28" x="3292.585938"/>
     <use xlink:href="#DejaVuSans-78" x="3331.599609"/>
     <use xlink:href="#DejaVuSans-2d" x="3390.779297"/>
     <use xlink:href="#DejaVuSans-61" x="3426.863281"/>
     <use xlink:href="#DejaVuSans-78" x="3488.142578"/>
     <use xlink:href="#DejaVuSans-69" x="3547.322266"/>
     <use xlink:href="#DejaVuSans-73" x="3575.105469"/>
     <use xlink:href="#DejaVuSans-29" x="3627.205078"/>
     <use xlink:href="#DejaVuSans-2e" x="3666.21875"/>
    </g>
   </g>
  </g>
 </g>
 <defs>
  <clipPath id="p61232dc138">
   <rect x="57.6" y="41.472" width="357.12" height="266.112"/>
  </clipPath>
 </defs>
</svg>
