<?xml version="1.0" encoding="utf-8" standalone="no"?>
<!DOCTYPE svg PUBLIC "-//W3C//DTD SVG 1.1//EN"
  "http://www.w3.org/Graphics/SVG/1.1/DTD/svg11.dtd">
<svg xmlns:xlink="http://www.w3.org/1999/xlink" width="460.8pt" height="345.6pt" viewBox="0 0 460.8 345.6" xmlns="http://www.w3.org/2000/svg" version="1.1">
 <metadata>
  <rdf:RDF xmlns:dc="http://purl.org/dc/elements/1.1/" xmlns:cc="http://creativecommons.org/ns#" xmlns:rdf="http://www.w3.org/1999/02/22-rdf-syntax-ns#">
   <cc:Work>
    <dc:type rdf:resource="http://purl.org/dc/dcmitype/StillImage"/>
    <dc:date>2024-03-08T11:55:55.248886</dc:date>
    <dc:format>image/svg+xml</dc:format>
    <dc:creator>
     <cc:Agent>
      <dc:title>Matplotlib v3.8.2, https://matplotlib.org/</dc:title>
     </cc:Agent>
    </dc:creator>
   </cc:Work>
  </rdf:RDF>
 </metadata>
 <defs>
  <style type="text/css">*{stroke-linejoin: round; stroke-linecap: butt}</style>
 </defs>
 <g id="figure_1">
  <g id="patch_1">
   <path d="M 0 345.6 
L 460.8 345.6 
L 460.8 0 
L 0 0 
z
" style="fill: #ffffff"/>
  </g>
  <g id="axes_1">
   <g id="patch_2">
    <path d="M 57.6 307.584 
L 414.72 307.584 
L 414.72 41.472 
L 57.6 41.472 
z
" style="fill: #ffffff"/>
   </g>
   <g id="matplotlib.axis_1">
    <g id="xtick_1">
     <g id="line2d_1">
      <defs>
       <path id="m29147305a3" d="M 0 0 
L 0 3.5 
" style="stroke: #000000; stroke-width: 0.8"/>
      </defs>
      <g>
       <use xlink:href="#m29147305a3" x="73.832727" y="307.584" style="stroke: #000000; stroke-width: 0.8"/>
      </g>
     </g>
     <g id="text_1">
      <!-- 0 -->
      <g transform="translate(70.651477 322.182437) scale(0.1 -0.1)">
       <defs>
        <path id="DejaVuSans-30" d="M 2034 4250 
Q 1547 4250 1301 3770 
Q 1056 3291 1056 2328 
Q 1056 1369 1301 889 
Q 1547 409 2034 409 
Q 2525 409 2770 889 
Q 3016 1369 3016 2328 
Q 3016 3291 2770 3770 
Q 2525 4250 2034 4250 
z
M 2034 4750 
Q 2819 4750 3233 4129 
Q 3647 3509 3647 2328 
Q 3647 1150 3233 529 
Q 2819 -91 2034 -91 
Q 1250 -91 836 529 
Q 422 1150 422 2328 
Q 422 3509 836 4129 
Q 1250 4750 2034 4750 
z
" transform="scale(0.015625)"/>
       </defs>
       <use xlink:href="#DejaVuSans-30"/>
      </g>
     </g>
    </g>
    <g id="xtick_2">
     <g id="line2d_2">
      <g>
       <use xlink:href="#m29147305a3" x="117.068118" y="307.584" style="stroke: #000000; stroke-width: 0.8"/>
      </g>
     </g>
     <g id="text_2">
      <!-- 10000 -->
      <g transform="translate(101.161868 322.182437) scale(0.1 -0.1)">
       <defs>
        <path id="DejaVuSans-31" d="M 794 531 
L 1825 531 
L 1825 4091 
L 703 3866 
L 703 4441 
L 1819 4666 
L 2450 4666 
L 2450 531 
L 3481 531 
L 3481 0 
L 794 0 
L 794 531 
z
" transform="scale(0.015625)"/>
       </defs>
       <use xlink:href="#DejaVuSans-31"/>
       <use xlink:href="#DejaVuSans-30" x="63.623047"/>
       <use xlink:href="#DejaVuSans-30" x="127.246094"/>
       <use xlink:href="#DejaVuSans-30" x="190.869141"/>
       <use xlink:href="#DejaVuSans-30" x="254.492188"/>
      </g>
     </g>
    </g>
    <g id="xtick_3">
     <g id="line2d_3">
      <g>
       <use xlink:href="#m29147305a3" x="160.303508" y="307.584" style="stroke: #000000; stroke-width: 0.8"/>
      </g>
     </g>
     <g id="text_3">
      <!-- 20000 -->
      <g transform="translate(144.397258 322.182437) scale(0.1 -0.1)">
       <defs>
        <path id="DejaVuSans-32" d="M 1228 531 
L 3431 531 
L 3431 0 
L 469 0 
L 469 531 
Q 828 903 1448 1529 
Q 2069 2156 2228 2338 
Q 2531 2678 2651 2914 
Q 2772 3150 2772 3378 
Q 2772 3750 2511 3984 
Q 2250 4219 1831 4219 
Q 1534 4219 1204 4116 
Q 875 4013 500 3803 
L 500 4441 
Q 881 4594 1212 4672 
Q 1544 4750 1819 4750 
Q 2544 4750 2975 4387 
Q 3406 4025 3406 3419 
Q 3406 3131 3298 2873 
Q 3191 2616 2906 2266 
Q 2828 2175 2409 1742 
Q 1991 1309 1228 531 
z
" transform="scale(0.015625)"/>
       </defs>
       <use xlink:href="#DejaVuSans-32"/>
       <use xlink:href="#DejaVuSans-30" x="63.623047"/>
       <use xlink:href="#DejaVuSans-30" x="127.246094"/>
       <use xlink:href="#DejaVuSans-30" x="190.869141"/>
       <use xlink:href="#DejaVuSans-30" x="254.492188"/>
      </g>
     </g>
    </g>
    <g id="xtick_4">
     <g id="line2d_4">
      <g>
       <use xlink:href="#m29147305a3" x="203.538898" y="307.584" style="stroke: #000000; stroke-width: 0.8"/>
      </g>
     </g>
     <g id="text_4">
      <!-- 30000 -->
      <g transform="translate(187.632648 322.182437) scale(0.1 -0.1)">
       <defs>
        <path id="DejaVuSans-33" d="M 2597 2516 
Q 3050 2419 3304 2112 
Q 3559 1806 3559 1356 
Q 3559 666 3084 287 
Q 2609 -91 1734 -91 
Q 1441 -91 1130 -33 
Q 819 25 488 141 
L 488 750 
Q 750 597 1062 519 
Q 1375 441 1716 441 
Q 2309 441 2620 675 
Q 2931 909 2931 1356 
Q 2931 1769 2642 2001 
Q 2353 2234 1838 2234 
L 1294 2234 
L 1294 2753 
L 1863 2753 
Q 2328 2753 2575 2939 
Q 2822 3125 2822 3475 
Q 2822 3834 2567 4026 
Q 2313 4219 1838 4219 
Q 1578 4219 1281 4162 
Q 984 4106 628 3988 
L 628 4550 
Q 988 4650 1302 4700 
Q 1616 4750 1894 4750 
Q 2613 4750 3031 4423 
Q 3450 4097 3450 3541 
Q 3450 3153 3228 2886 
Q 3006 2619 2597 2516 
z
" transform="scale(0.015625)"/>
       </defs>
       <use xlink:href="#DejaVuSans-33"/>
       <use xlink:href="#DejaVuSans-30" x="63.623047"/>
       <use xlink:href="#DejaVuSans-30" x="127.246094"/>
       <use xlink:href="#DejaVuSans-30" x="190.869141"/>
       <use xlink:href="#DejaVuSans-30" x="254.492188"/>
      </g>
     </g>
    </g>
    <g id="xtick_5">
     <g id="line2d_5">
      <g>
       <use xlink:href="#m29147305a3" x="246.774288" y="307.584" style="stroke: #000000; stroke-width: 0.8"/>
      </g>
     </g>
     <g id="text_5">
      <!-- 40000 -->
      <g transform="translate(230.868038 322.182437) scale(0.1 -0.1)">
       <defs>
        <path id="DejaVuSans-34" d="M 2419 4116 
L 825 1625 
L 2419 1625 
L 2419 4116 
z
M 2253 4666 
L 3047 4666 
L 3047 1625 
L 3713 1625 
L 3713 1100 
L 3047 1100 
L 3047 0 
L 2419 0 
L 2419 1100 
L 313 1100 
L 313 1709 
L 2253 4666 
z
" transform="scale(0.015625)"/>
       </defs>
       <use xlink:href="#DejaVuSans-34"/>
       <use xlink:href="#DejaVuSans-30" x="63.623047"/>
       <use xlink:href="#DejaVuSans-30" x="127.246094"/>
       <use xlink:href="#DejaVuSans-30" x="190.869141"/>
       <use xlink:href="#DejaVuSans-30" x="254.492188"/>
      </g>
     </g>
    </g>
    <g id="xtick_6">
     <g id="line2d_6">
      <g>
       <use xlink:href="#m29147305a3" x="290.009679" y="307.584" style="stroke: #000000; stroke-width: 0.8"/>
      </g>
     </g>
     <g id="text_6">
      <!-- 50000 -->
      <g transform="translate(274.103429 322.182437) scale(0.1 -0.1)">
       <defs>
        <path id="DejaVuSans-35" d="M 691 4666 
L 3169 4666 
L 3169 4134 
L 1269 4134 
L 1269 2991 
Q 1406 3038 1543 3061 
Q 1681 3084 1819 3084 
Q 2600 3084 3056 2656 
Q 3513 2228 3513 1497 
Q 3513 744 3044 326 
Q 2575 -91 1722 -91 
Q 1428 -91 1123 -41 
Q 819 9 494 109 
L 494 744 
Q 775 591 1075 516 
Q 1375 441 1709 441 
Q 2250 441 2565 725 
Q 2881 1009 2881 1497 
Q 2881 1984 2565 2268 
Q 2250 2553 1709 2553 
Q 1456 2553 1204 2497 
Q 953 2441 691 2322 
L 691 4666 
z
" transform="scale(0.015625)"/>
       </defs>
       <use xlink:href="#DejaVuSans-35"/>
       <use xlink:href="#DejaVuSans-30" x="63.623047"/>
       <use xlink:href="#DejaVuSans-30" x="127.246094"/>
       <use xlink:href="#DejaVuSans-30" x="190.869141"/>
       <use xlink:href="#DejaVuSans-30" x="254.492188"/>
      </g>
     </g>
    </g>
    <g id="xtick_7">
     <g id="line2d_7">
      <g>
       <use xlink:href="#m29147305a3" x="333.245069" y="307.584" style="stroke: #000000; stroke-width: 0.8"/>
      </g>
     </g>
     <g id="text_7">
      <!-- 60000 -->
      <g transform="translate(317.338819 322.182437) scale(0.1 -0.1)">
       <defs>
        <path id="DejaVuSans-36" d="M 2113 2584 
Q 1688 2584 1439 2293 
Q 1191 2003 1191 1497 
Q 1191 994 1439 701 
Q 1688 409 2113 409 
Q 2538 409 2786 701 
Q 3034 994 3034 1497 
Q 3034 2003 2786 2293 
Q 2538 2584 2113 2584 
z
M 3366 4563 
L 3366 3988 
Q 3128 4100 2886 4159 
Q 2644 4219 2406 4219 
Q 1781 4219 1451 3797 
Q 1122 3375 1075 2522 
Q 1259 2794 1537 2939 
Q 1816 3084 2150 3084 
Q 2853 3084 3261 2657 
Q 3669 2231 3669 1497 
Q 3669 778 3244 343 
Q 2819 -91 2113 -91 
Q 1303 -91 875 529 
Q 447 1150 447 2328 
Q 447 3434 972 4092 
Q 1497 4750 2381 4750 
Q 2619 4750 2861 4703 
Q 3103 4656 3366 4563 
z
" transform="scale(0.015625)"/>
       </defs>
       <use xlink:href="#DejaVuSans-36"/>
       <use xlink:href="#DejaVuSans-30" x="63.623047"/>
       <use xlink:href="#DejaVuSans-30" x="127.246094"/>
       <use xlink:href="#DejaVuSans-30" x="190.869141"/>
       <use xlink:href="#DejaVuSans-30" x="254.492188"/>
      </g>
     </g>
    </g>
    <g id="xtick_8">
     <g id="line2d_8">
      <g>
       <use xlink:href="#m29147305a3" x="376.480459" y="307.584" style="stroke: #000000; stroke-width: 0.8"/>
      </g>
     </g>
     <g id="text_8">
      <!-- 70000 -->
      <g transform="translate(360.574209 322.182437) scale(0.1 -0.1)">
       <defs>
        <path id="DejaVuSans-37" d="M 525 4666 
L 3525 4666 
L 3525 4397 
L 1831 0 
L 1172 0 
L 2766 4134 
L 525 4134 
L 525 4666 
z
" transform="scale(0.015625)"/>
       </defs>
       <use xlink:href="#DejaVuSans-37"/>
       <use xlink:href="#DejaVuSans-30" x="63.623047"/>
       <use xlink:href="#DejaVuSans-30" x="127.246094"/>
       <use xlink:href="#DejaVuSans-30" x="190.869141"/>
       <use xlink:href="#DejaVuSans-30" x="254.492188"/>
      </g>
     </g>
    </g>
   </g>
   <g id="matplotlib.axis_2">
    <g id="ytick_1">
     <g id="line2d_9">
      <defs>
       <path id="m1c9eee7534" d="M 0 0 
L -3.5 0 
" style="stroke: #000000; stroke-width: 0.8"/>
      </defs>
      <g>
       <use xlink:href="#m1c9eee7534" x="57.6" y="295.488" style="stroke: #000000; stroke-width: 0.8"/>
      </g>
     </g>
     <g id="text_9">
      <!-- 0.0 -->
      <g transform="translate(34.696875 299.287219) scale(0.1 -0.1)">
       <defs>
        <path id="DejaVuSans-2e" d="M 684 794 
L 1344 794 
L 1344 0 
L 684 0 
L 684 794 
z
" transform="scale(0.015625)"/>
       </defs>
       <use xlink:href="#DejaVuSans-30"/>
       <use xlink:href="#DejaVuSans-2e" x="63.623047"/>
       <use xlink:href="#DejaVuSans-30" x="95.410156"/>
      </g>
     </g>
    </g>
    <g id="ytick_2">
     <g id="line2d_10">
      <g>
       <use xlink:href="#m1c9eee7534" x="57.6" y="247.104" style="stroke: #000000; stroke-width: 0.8"/>
      </g>
     </g>
     <g id="text_10">
      <!-- 0.2 -->
      <g transform="translate(34.696875 250.903219) scale(0.1 -0.1)">
       <use xlink:href="#DejaVuSans-30"/>
       <use xlink:href="#DejaVuSans-2e" x="63.623047"/>
       <use xlink:href="#DejaVuSans-32" x="95.410156"/>
      </g>
     </g>
    </g>
    <g id="ytick_3">
     <g id="line2d_11">
      <g>
       <use xlink:href="#m1c9eee7534" x="57.6" y="198.72" style="stroke: #000000; stroke-width: 0.8"/>
      </g>
     </g>
     <g id="text_11">
      <!-- 0.4 -->
      <g transform="translate(34.696875 202.519219) scale(0.1 -0.1)">
       <use xlink:href="#DejaVuSans-30"/>
       <use xlink:href="#DejaVuSans-2e" x="63.623047"/>
       <use xlink:href="#DejaVuSans-34" x="95.410156"/>
      </g>
     </g>
    </g>
    <g id="ytick_4">
     <g id="line2d_12">
      <g>
       <use xlink:href="#m1c9eee7534" x="57.6" y="150.336" style="stroke: #000000; stroke-width: 0.8"/>
      </g>
     </g>
     <g id="text_12">
      <!-- 0.6 -->
      <g transform="translate(34.696875 154.135219) scale(0.1 -0.1)">
       <use xlink:href="#DejaVuSans-30"/>
       <use xlink:href="#DejaVuSans-2e" x="63.623047"/>
       <use xlink:href="#DejaVuSans-36" x="95.410156"/>
      </g>
     </g>
    </g>
    <g id="ytick_5">
     <g id="line2d_13">
      <g>
       <use xlink:href="#m1c9eee7534" x="57.6" y="101.952" style="stroke: #000000; stroke-width: 0.8"/>
      </g>
     </g>
     <g id="text_13">
      <!-- 0.8 -->
      <g transform="translate(34.696875 105.751219) scale(0.1 -0.1)">
       <defs>
        <path id="DejaVuSans-38" d="M 2034 2216 
Q 1584 2216 1326 1975 
Q 1069 1734 1069 1313 
Q 1069 891 1326 650 
Q 1584 409 2034 409 
Q 2484 409 2743 651 
Q 3003 894 3003 1313 
Q 3003 1734 2745 1975 
Q 2488 2216 2034 2216 
z
M 1403 2484 
Q 997 2584 770 2862 
Q 544 3141 544 3541 
Q 544 4100 942 4425 
Q 1341 4750 2034 4750 
Q 2731 4750 3128 4425 
Q 3525 4100 3525 3541 
Q 3525 3141 3298 2862 
Q 3072 2584 2669 2484 
Q 3125 2378 3379 2068 
Q 3634 1759 3634 1313 
Q 3634 634 3220 271 
Q 2806 -91 2034 -91 
Q 1263 -91 848 271 
Q 434 634 434 1313 
Q 434 1759 690 2068 
Q 947 2378 1403 2484 
z
M 1172 3481 
Q 1172 3119 1398 2916 
Q 1625 2713 2034 2713 
Q 2441 2713 2670 2916 
Q 2900 3119 2900 3481 
Q 2900 3844 2670 4047 
Q 2441 4250 2034 4250 
Q 1625 4250 1398 4047 
Q 1172 3844 1172 3481 
z
" transform="scale(0.015625)"/>
       </defs>
       <use xlink:href="#DejaVuSans-30"/>
       <use xlink:href="#DejaVuSans-2e" x="63.623047"/>
       <use xlink:href="#DejaVuSans-38" x="95.410156"/>
      </g>
     </g>
    </g>
    <g id="ytick_6">
     <g id="line2d_14">
      <g>
       <use xlink:href="#m1c9eee7534" x="57.6" y="53.568" style="stroke: #000000; stroke-width: 0.8"/>
      </g>
     </g>
     <g id="text_14">
      <!-- 1.0 -->
      <g transform="translate(34.696875 57.367219) scale(0.1 -0.1)">
       <use xlink:href="#DejaVuSans-31"/>
       <use xlink:href="#DejaVuSans-2e" x="63.623047"/>
       <use xlink:href="#DejaVuSans-30" x="95.410156"/>
      </g>
     </g>
    </g>
   </g>
   <g id="line2d_15">
    <path d="M 73.832727 295.488 
L 73.919198 295.488 
L 74.005669 294.593105 
L 74.005669 294.593105 
L 74.09214 294.593105 
L 74.17861 293.399911 
L 74.221846 293.399911 
L 74.308317 290.416927 
L 74.308317 290.416927 
L 74.351552 290.416927 
L 74.438023 287.433943 
L 74.438023 287.433943 
L 74.481258 287.433943 
L 74.567729 275.800306 
L 74.567729 275.800306 
L 74.610964 275.800306 
L 74.697435 273.712217 
L 74.697435 273.712217 
L 74.74067 273.712217 
L 74.827141 270.729233 
L 74.827141 270.729233 
L 74.870377 270.729233 
L 74.956847 267.746249 
L 74.956847 267.746249 
L 75.000083 267.746249 
L 75.086554 259.692192 
L 75.086554 259.692192 
L 75.129789 259.692192 
L 75.21626 253.726224 
L 75.21626 253.726224 
L 75.259495 253.726224 
L 75.345966 251.339837 
L 75.345966 251.339837 
L 75.389201 251.339837 
L 75.475672 248.058555 
L 75.475672 248.058555 
L 75.518907 248.058555 
L 75.605378 239.109603 
L 75.605378 239.109603 
L 75.648614 239.109603 
L 75.735084 235.530022 
L 75.735084 235.530022 
L 75.77832 235.530022 
L 75.864791 221.808296 
L 75.864791 221.808296 
L 75.908026 221.808296 
L 75.994497 217.930417 
L 75.994497 217.930417 
L 76.037732 217.930417 
L 76.124203 209.578062 
L 76.124203 209.578062 
L 76.167438 209.578062 
L 76.253909 208.384868 
L 76.253909 208.384868 
L 76.297145 208.384868 
L 76.383615 205.401884 
L 76.383615 205.401884 
L 76.426851 205.401884 
L 76.513321 197.646126 
L 76.513321 197.646126 
L 76.556557 197.646126 
L 76.643028 188.995472 
L 76.643028 188.995472 
L 76.686263 188.995472 
L 76.729498 187.205682 
L 76.729498 187.205682 
L 76.859205 187.205682 
L 76.945675 184.520996 
L 76.988911 184.520996 
L 76.988911 183.9244 
L 76.988911 183.9244 
L 77.378029 183.9244 
L 77.378029 183.626101 
L 77.550971 183.626101 
L 77.594206 182.731206 
L 77.767148 182.731206 
L 77.767148 182.432908 
L 77.896854 182.432908 
L 77.896854 182.134609 
L 78.02656 182.134609 
L 78.02656 181.538012 
L 78.02656 181.538012 
L 78.242737 181.538012 
L 78.242737 181.239714 
L 78.372443 181.239714 
L 78.415679 180.643117 
L 78.545385 180.643117 
L 78.545385 180.344819 
L 78.718326 180.344819 
L 78.761562 178.853327 
L 78.761562 178.853327 
L 78.891268 178.853327 
L 78.891268 178.25673 
L 78.891268 178.25673 
L 79.064209 178.25673 
L 79.15068 177.063536 
L 79.15068 177.063536 
L 79.193916 177.063536 
L 79.280386 176.168641 
L 79.410093 176.168641 
L 79.496563 175.273746 
L 79.583034 175.273746 
L 79.583034 174.975448 
L 79.71274 174.975448 
L 79.799211 173.782254 
L 79.799211 173.782254 
L 79.842447 173.782254 
L 79.885682 173.185657 
L 80.058623 173.185657 
L 80.058623 172.887359 
L 80.231565 172.887359 
L 80.318036 171.992464 
L 80.361271 171.992464 
L 80.361271 171.694165 
L 80.490977 171.694165 
L 80.490977 171.395867 
L 80.620684 171.395867 
L 80.707154 170.500972 
L 80.75039 170.500972 
L 80.83686 169.904375 
L 80.880096 169.904375 
L 80.923331 169.307778 
L 81.182744 169.307778 
L 81.182744 169.00948 
L 81.355685 169.00948 
L 81.398921 168.412883 
L 81.528627 168.412883 
L 81.571862 167.816286 
L 81.917745 167.816286 
L 81.917745 167.517988 
L 82.090687 167.517988 
L 82.090687 167.219689 
L 84.165986 167.219689 
L 84.252456 166.623092 
L 84.425398 166.623092 
L 84.511869 166.026496 
L 84.555104 166.026496 
L 84.555104 165.728197 
L 84.68481 165.728197 
L 84.68481 165.429899 
L 84.814516 165.429899 
L 84.814516 165.1316 
L 85.030693 165.1316 
L 85.117164 163.640109 
L 85.117164 163.640109 
L 85.203635 163.640109 
L 85.24687 163.043512 
L 85.376576 163.043512 
L 85.376576 162.745213 
L 85.679224 162.745213 
L 85.679224 162.446915 
L 85.852166 162.446915 
L 85.895401 161.850318 
L 86.025107 161.850318 
L 86.025107 161.253721 
L 86.025107 161.253721 
L 86.198049 161.253721 
L 86.28452 160.060528 
L 86.37099 160.060528 
L 86.414226 158.867334 
L 86.543932 158.867334 
L 86.587167 157.972439 
L 86.673638 157.972439 
L 86.673638 157.674141 
L 86.803344 157.674141 
L 86.84658 156.779245 
L 86.933051 156.779245 
L 86.933051 156.480947 
L 87.149227 156.480947 
L 87.235698 155.586052 
L 87.278934 155.586052 
L 87.365404 154.09456 
L 87.365404 154.09456 
L 87.451875 154.09456 
L 87.538346 152.901366 
L 87.581581 152.901366 
L 87.668052 152.006471 
L 87.711288 152.006471 
L 87.797758 151.409874 
L 87.840994 151.409874 
L 87.927464 150.514979 
L 87.9707 150.514979 
L 88.013935 149.620084 
L 88.186877 149.620084 
L 88.230112 148.42689 
L 88.230112 148.42689 
L 88.359818 148.42689 
L 88.446289 147.830293 
L 88.53276 147.830293 
L 88.619231 146.935398 
L 88.662466 146.935398 
L 88.662466 146.040503 
L 88.662466 146.040503 
L 88.878643 146.040503 
L 88.921878 144.847309 
L 88.921878 144.847309 
L 89.008349 144.847309 
L 89.09482 143.654116 
L 89.09482 143.654116 
L 89.138055 143.654116 
L 89.224526 142.162624 
L 89.224526 142.162624 
L 89.267762 142.162624 
L 89.354232 140.671132 
L 89.354232 140.671132 
L 89.440703 140.671132 
L 89.527174 138.284745 
L 89.527174 138.284745 
L 89.570409 138.284745 
L 89.613645 137.688148 
L 89.743351 137.688148 
L 89.829822 136.196656 
L 89.829822 136.196656 
L 89.873057 136.196656 
L 89.959528 133.51197 
L 89.959528 133.51197 
L 90.002763 133.51197 
L 90.089234 132.020478 
L 90.089234 132.020478 
L 90.175705 132.020478 
L 90.262176 129.335793 
L 90.262176 129.335793 
L 90.348646 129.335793 
L 90.435117 126.05451 
L 90.435117 126.05451 
L 90.521588 126.05451 
L 90.608059 124.563018 
L 90.694529 124.563018 
L 90.737765 122.773228 
L 90.737765 122.773228 
L 90.867471 122.773228 
L 90.953942 121.878333 
L 90.953942 121.878333 
L 90.997177 121.878333 
L 91.083648 120.088543 
L 91.083648 120.088543 
L 91.126883 120.088543 
L 91.213354 118.000454 
L 91.25659 118.000454 
L 91.34306 116.80726 
L 91.34306 116.80726 
L 91.386296 116.80726 
L 91.472766 115.614067 
L 91.472766 115.614067 
L 91.516002 115.614067 
L 91.559237 114.122575 
L 91.559237 114.122575 
L 91.732179 114.122575 
L 91.81865 112.929381 
L 91.861885 112.929381 
L 91.861885 112.332784 
L 91.861885 112.332784 
L 91.991591 112.332784 
L 92.078062 111.736187 
L 92.251004 111.736187 
L 92.251004 111.437889 
L 92.38071 111.437889 
L 92.38071 111.139591 
L 92.899534 111.139591 
L 92.899534 110.841292 
L 93.029241 110.841292 
L 93.029241 110.542994 
L 93.418359 110.542994 
L 93.418359 110.244695 
L 93.548065 110.244695 
L 93.548065 109.648099 
L 93.548065 109.648099 
L 93.677771 109.648099 
L 93.677771 109.3498 
L 93.937184 109.3498 
L 94.023655 108.753203 
L 94.153361 108.753203 
L 94.196596 108.156607 
L 94.283067 108.156607 
L 94.369538 107.56001 
L 94.412773 107.56001 
L 94.412773 107.261711 
L 94.801892 107.261711 
L 94.888362 106.665115 
L 94.931598 106.665115 
L 95.018068 105.770219 
L 95.018068 105.770219 
L 95.104539 105.770219 
L 95.19101 104.577026 
L 95.19101 104.577026 
L 95.234245 104.577026 
L 95.320716 103.682131 
L 95.363952 103.682131 
L 95.450422 103.085534 
L 95.493658 103.085534 
L 95.493658 102.190639 
L 95.493658 102.190639 
L 95.623364 102.190639 
L 95.709835 100.699147 
L 95.969247 100.699147 
L 96.055718 99.207655 
L 96.098953 99.207655 
L 96.185424 98.31276 
L 96.228659 98.31276 
L 96.271895 97.119566 
L 96.271895 97.119566 
L 96.358366 97.119566 
L 96.444836 96.224671 
L 96.488072 96.224671 
L 96.531307 95.031477 
L 96.531307 95.031477 
L 96.617778 95.031477 
L 96.661013 94.136582 
L 96.661013 94.136582 
L 96.747484 94.136582 
L 96.833955 92.346792 
L 96.833955 92.346792 
L 96.920426 92.346792 
L 97.006896 90.8553 
L 97.006896 90.8553 
L 97.050132 90.8553 
L 97.136603 89.662106 
L 97.179838 89.662106 
L 97.266309 88.767211 
L 97.309544 88.767211 
L 97.396015 87.574017 
L 97.43925 87.574017 
L 97.525721 86.97742 
L 97.568957 86.97742 
L 97.655427 85.784227 
L 97.785133 85.784227 
L 97.871604 84.889332 
L 97.91484 84.889332 
L 97.958075 84.292735 
L 98.131017 84.292735 
L 98.131017 83.994436 
L 98.347194 83.994436 
L 98.433664 83.099541 
L 98.4769 83.099541 
L 98.4769 82.801243 
L 98.649841 82.801243 
L 98.649841 82.502945 
L 102.151908 82.502945 
L 102.151908 82.204646 
L 102.670733 82.204646 
L 102.670733 81.906348 
L 103.751617 81.906348 
L 103.838088 81.011453 
L 103.881324 81.011453 
L 103.967794 80.116557 
L 104.313677 80.116557 
L 104.400148 79.519961 
L 104.443384 79.519961 
L 104.529854 78.625065 
L 104.529854 78.625065 
L 104.659561 78.625065 
L 104.746031 77.73017 
L 104.746031 77.73017 
L 104.789267 77.73017 
L 104.875737 76.835275 
L 104.918973 76.835275 
L 105.005444 76.238678 
L 105.048679 76.238678 
L 105.13515 74.747186 
L 105.178385 74.747186 
L 105.264856 73.553993 
L 105.264856 73.553993 
L 105.351327 73.553993 
L 105.394562 72.659097 
L 105.567504 72.659097 
L 105.653975 71.465904 
L 105.653975 71.465904 
L 105.783681 71.465904 
L 105.870151 70.571009 
L 105.956622 70.571009 
L 106.043093 69.377815 
L 106.043093 69.377815 
L 106.086328 69.377815 
L 106.172799 67.886323 
L 106.216035 67.886323 
L 106.25927 66.991428 
L 106.25927 66.991428 
L 106.345741 66.991428 
L 106.432212 65.499936 
L 106.432212 65.499936 
L 106.648388 65.499936 
L 106.648388 64.903339 
L 106.648388 64.903339 
L 106.82133 64.903339 
L 106.82133 64.605041 
L 107.037507 64.605041 
L 107.123978 63.411847 
L 107.167213 63.411847 
L 107.210449 62.218654 
L 107.210449 62.218654 
L 107.296919 62.218654 
L 107.296919 61.920355 
L 107.426626 61.920355 
L 107.426626 61.622057 
L 107.556332 61.622057 
L 107.556332 61.02546 
L 107.556332 61.02546 
L 107.815744 61.02546 
L 107.815744 60.428863 
L 107.815744 60.428863 
L 107.988686 60.428863 
L 108.075156 59.533968 
L 108.118392 59.533968 
L 108.118392 59.23567 
L 108.896629 59.23567 
L 108.896629 58.937371 
L 109.112806 58.937371 
L 109.112806 58.639073 
L 109.285747 58.639073 
L 109.285747 58.340774 
L 113.522816 58.340774 
L 113.522816 58.042476 
L 113.652522 58.042476 
L 113.652522 57.744178 
L 113.825463 57.744178 
L 113.825463 57.445879 
L 114.949583 57.445879 
L 114.949583 57.147581 
L 117.803119 57.147581 
L 117.803119 56.849282 
L 118.019296 56.849282 
L 118.019296 56.550984 
L 118.494885 56.550984 
L 118.494885 56.252686 
L 118.624592 56.252686 
L 118.624592 55.954387 
L 120.267536 55.954387 
L 120.267536 55.656089 
L 122.169894 55.656089 
L 122.169894 55.35779 
L 128.784908 55.35779 
L 128.784908 55.059492 
L 352.787465 55.059492 
L 352.787465 54.761194 
L 368.092793 54.761194 
L 368.092793 54.462895 
L 370.124857 54.462895 
L 370.124857 54.164597 
L 382.965768 54.164597 
L 382.965768 53.866298 
L 398.487273 53.866298 
L 398.487273 53.568 
L 398.487273 53.568 
" clip-path="url(#p300da3f998)" style="fill: none; stroke: #1f77b4; stroke-width: 1.5; stroke-linecap: square"/>
   </g>
   <g id="patch_3">
    <path d="M 57.6 307.584 
L 57.6 41.472 
" style="fill: none; stroke: #000000; stroke-width: 0.8; stroke-linejoin: miter; stroke-linecap: square"/>
   </g>
   <g id="patch_4">
    <path d="M 414.72 307.584 
L 414.72 41.472 
" style="fill: none; stroke: #000000; stroke-width: 0.8; stroke-linejoin: miter; stroke-linecap: square"/>
   </g>
   <g id="patch_5">
    <path d="M 57.6 307.584 
L 414.72 307.584 
" style="fill: none; stroke: #000000; stroke-width: 0.8; stroke-linejoin: miter; stroke-linecap: square"/>
   </g>
   <g id="patch_6">
    <path d="M 57.6 41.472 
L 414.72 41.472 
" style="fill: none; stroke: #000000; stroke-width: 0.8; stroke-linejoin: miter; stroke-linecap: square"/>
   </g>
   <g id="text_15">
    <!-- Execution time between S6 S7 -->
    <g transform="translate(144.336563 35.472) scale(0.12 -0.12)">
     <defs>
      <path id="DejaVuSans-45" d="M 628 4666 
L 3578 4666 
L 3578 4134 
L 1259 4134 
L 1259 2753 
L 3481 2753 
L 3481 2222 
L 1259 2222 
L 1259 531 
L 3634 531 
L 3634 0 
L 628 0 
L 628 4666 
z
" transform="scale(0.015625)"/>
      <path id="DejaVuSans-78" d="M 3513 3500 
L 2247 1797 
L 3578 0 
L 2900 0 
L 1881 1375 
L 863 0 
L 184 0 
L 1544 1831 
L 300 3500 
L 978 3500 
L 1906 2253 
L 2834 3500 
L 3513 3500 
z
" transform="scale(0.015625)"/>
      <path id="DejaVuSans-65" d="M 3597 1894 
L 3597 1613 
L 953 1613 
Q 991 1019 1311 708 
Q 1631 397 2203 397 
Q 2534 397 2845 478 
Q 3156 559 3463 722 
L 3463 178 
Q 3153 47 2828 -22 
Q 2503 -91 2169 -91 
Q 1331 -91 842 396 
Q 353 884 353 1716 
Q 353 2575 817 3079 
Q 1281 3584 2069 3584 
Q 2775 3584 3186 3129 
Q 3597 2675 3597 1894 
z
M 3022 2063 
Q 3016 2534 2758 2815 
Q 2500 3097 2075 3097 
Q 1594 3097 1305 2825 
Q 1016 2553 972 2059 
L 3022 2063 
z
" transform="scale(0.015625)"/>
      <path id="DejaVuSans-63" d="M 3122 3366 
L 3122 2828 
Q 2878 2963 2633 3030 
Q 2388 3097 2138 3097 
Q 1578 3097 1268 2742 
Q 959 2388 959 1747 
Q 959 1106 1268 751 
Q 1578 397 2138 397 
Q 2388 397 2633 464 
Q 2878 531 3122 666 
L 3122 134 
Q 2881 22 2623 -34 
Q 2366 -91 2075 -91 
Q 1284 -91 818 406 
Q 353 903 353 1747 
Q 353 2603 823 3093 
Q 1294 3584 2113 3584 
Q 2378 3584 2631 3529 
Q 2884 3475 3122 3366 
z
" transform="scale(0.015625)"/>
      <path id="DejaVuSans-75" d="M 544 1381 
L 544 3500 
L 1119 3500 
L 1119 1403 
Q 1119 906 1312 657 
Q 1506 409 1894 409 
Q 2359 409 2629 706 
Q 2900 1003 2900 1516 
L 2900 3500 
L 3475 3500 
L 3475 0 
L 2900 0 
L 2900 538 
Q 2691 219 2414 64 
Q 2138 -91 1772 -91 
Q 1169 -91 856 284 
Q 544 659 544 1381 
z
M 1991 3584 
L 1991 3584 
z
" transform="scale(0.015625)"/>
      <path id="DejaVuSans-74" d="M 1172 4494 
L 1172 3500 
L 2356 3500 
L 2356 3053 
L 1172 3053 
L 1172 1153 
Q 1172 725 1289 603 
Q 1406 481 1766 481 
L 2356 481 
L 2356 0 
L 1766 0 
Q 1100 0 847 248 
Q 594 497 594 1153 
L 594 3053 
L 172 3053 
L 172 3500 
L 594 3500 
L 594 4494 
L 1172 4494 
z
" transform="scale(0.015625)"/>
      <path id="DejaVuSans-69" d="M 603 3500 
L 1178 3500 
L 1178 0 
L 603 0 
L 603 3500 
z
M 603 4863 
L 1178 4863 
L 1178 4134 
L 603 4134 
L 603 4863 
z
" transform="scale(0.015625)"/>
      <path id="DejaVuSans-6f" d="M 1959 3097 
Q 1497 3097 1228 2736 
Q 959 2375 959 1747 
Q 959 1119 1226 758 
Q 1494 397 1959 397 
Q 2419 397 2687 759 
Q 2956 1122 2956 1747 
Q 2956 2369 2687 2733 
Q 2419 3097 1959 3097 
z
M 1959 3584 
Q 2709 3584 3137 3096 
Q 3566 2609 3566 1747 
Q 3566 888 3137 398 
Q 2709 -91 1959 -91 
Q 1206 -91 779 398 
Q 353 888 353 1747 
Q 353 2609 779 3096 
Q 1206 3584 1959 3584 
z
" transform="scale(0.015625)"/>
      <path id="DejaVuSans-6e" d="M 3513 2113 
L 3513 0 
L 2938 0 
L 2938 2094 
Q 2938 2591 2744 2837 
Q 2550 3084 2163 3084 
Q 1697 3084 1428 2787 
Q 1159 2491 1159 1978 
L 1159 0 
L 581 0 
L 581 3500 
L 1159 3500 
L 1159 2956 
Q 1366 3272 1645 3428 
Q 1925 3584 2291 3584 
Q 2894 3584 3203 3211 
Q 3513 2838 3513 2113 
z
" transform="scale(0.015625)"/>
      <path id="DejaVuSans-20" transform="scale(0.015625)"/>
      <path id="DejaVuSans-6d" d="M 3328 2828 
Q 3544 3216 3844 3400 
Q 4144 3584 4550 3584 
Q 5097 3584 5394 3201 
Q 5691 2819 5691 2113 
L 5691 0 
L 5113 0 
L 5113 2094 
Q 5113 2597 4934 2840 
Q 4756 3084 4391 3084 
Q 3944 3084 3684 2787 
Q 3425 2491 3425 1978 
L 3425 0 
L 2847 0 
L 2847 2094 
Q 2847 2600 2669 2842 
Q 2491 3084 2119 3084 
Q 1678 3084 1418 2786 
Q 1159 2488 1159 1978 
L 1159 0 
L 581 0 
L 581 3500 
L 1159 3500 
L 1159 2956 
Q 1356 3278 1631 3431 
Q 1906 3584 2284 3584 
Q 2666 3584 2933 3390 
Q 3200 3197 3328 2828 
z
" transform="scale(0.015625)"/>
      <path id="DejaVuSans-62" d="M 3116 1747 
Q 3116 2381 2855 2742 
Q 2594 3103 2138 3103 
Q 1681 3103 1420 2742 
Q 1159 2381 1159 1747 
Q 1159 1113 1420 752 
Q 1681 391 2138 391 
Q 2594 391 2855 752 
Q 3116 1113 3116 1747 
z
M 1159 2969 
Q 1341 3281 1617 3432 
Q 1894 3584 2278 3584 
Q 2916 3584 3314 3078 
Q 3713 2572 3713 1747 
Q 3713 922 3314 415 
Q 2916 -91 2278 -91 
Q 1894 -91 1617 61 
Q 1341 213 1159 525 
L 1159 0 
L 581 0 
L 581 4863 
L 1159 4863 
L 1159 2969 
z
" transform="scale(0.015625)"/>
      <path id="DejaVuSans-77" d="M 269 3500 
L 844 3500 
L 1563 769 
L 2278 3500 
L 2956 3500 
L 3675 769 
L 4391 3500 
L 4966 3500 
L 4050 0 
L 3372 0 
L 2619 2869 
L 1863 0 
L 1184 0 
L 269 3500 
z
" transform="scale(0.015625)"/>
      <path id="DejaVuSans-53" d="M 3425 4513 
L 3425 3897 
Q 3066 4069 2747 4153 
Q 2428 4238 2131 4238 
Q 1616 4238 1336 4038 
Q 1056 3838 1056 3469 
Q 1056 3159 1242 3001 
Q 1428 2844 1947 2747 
L 2328 2669 
Q 3034 2534 3370 2195 
Q 3706 1856 3706 1288 
Q 3706 609 3251 259 
Q 2797 -91 1919 -91 
Q 1588 -91 1214 -16 
Q 841 59 441 206 
L 441 856 
Q 825 641 1194 531 
Q 1563 422 1919 422 
Q 2459 422 2753 634 
Q 3047 847 3047 1241 
Q 3047 1584 2836 1778 
Q 2625 1972 2144 2069 
L 1759 2144 
Q 1053 2284 737 2584 
Q 422 2884 422 3419 
Q 422 4038 858 4394 
Q 1294 4750 2059 4750 
Q 2388 4750 2728 4690 
Q 3069 4631 3425 4513 
z
" transform="scale(0.015625)"/>
     </defs>
     <use xlink:href="#DejaVuSans-45"/>
     <use xlink:href="#DejaVuSans-78" x="63.183594"/>
     <use xlink:href="#DejaVuSans-65" x="119.238281"/>
     <use xlink:href="#DejaVuSans-63" x="180.761719"/>
     <use xlink:href="#DejaVuSans-75" x="235.742188"/>
     <use xlink:href="#DejaVuSans-74" x="299.121094"/>
     <use xlink:href="#DejaVuSans-69" x="338.330078"/>
     <use xlink:href="#DejaVuSans-6f" x="366.113281"/>
     <use xlink:href="#DejaVuSans-6e" x="427.294922"/>
     <use xlink:href="#DejaVuSans-20" x="490.673828"/>
     <use xlink:href="#DejaVuSans-74" x="522.460938"/>
     <use xlink:href="#DejaVuSans-69" x="561.669922"/>
     <use xlink:href="#DejaVuSans-6d" x="589.453125"/>
     <use xlink:href="#DejaVuSans-65" x="686.865234"/>
     <use xlink:href="#DejaVuSans-20" x="748.388672"/>
     <use xlink:href="#DejaVuSans-62" x="780.175781"/>
     <use xlink:href="#DejaVuSans-65" x="843.652344"/>
     <use xlink:href="#DejaVuSans-74" x="905.175781"/>
     <use xlink:href="#DejaVuSans-77" x="944.384766"/>
     <use xlink:href="#DejaVuSans-65" x="1026.171875"/>
     <use xlink:href="#DejaVuSans-65" x="1087.695312"/>
     <use xlink:href="#DejaVuSans-6e" x="1149.21875"/>
     <use xlink:href="#DejaVuSans-20" x="1212.597656"/>
     <use xlink:href="#DejaVuSans-53" x="1244.384766"/>
     <use xlink:href="#DejaVuSans-36" x="1307.861328"/>
     <use xlink:href="#DejaVuSans-20" x="1371.484375"/>
     <use xlink:href="#DejaVuSans-53" x="1403.271484"/>
     <use xlink:href="#DejaVuSans-37" x="1466.748047"/>
    </g>
   </g>
   <g id="legend_1">
    <g id="patch_7">
     <path d="M 299.496562 304.584 
L 410.52 304.584 
Q 411.72 304.584 411.72 303.384 
L 411.72 295.177125 
Q 411.72 293.977125 410.52 293.977125 
L 299.496562 293.977125 
Q 298.296562 293.977125 298.296562 295.177125 
L 298.296562 303.384 
Q 298.296562 304.584 299.496562 304.584 
z
" style="fill: #ffffff; opacity: 0.8; stroke: #cccccc; stroke-linejoin: miter"/>
    </g>
    <g id="line2d_16">
     <path d="M 300.696562 298.836187 
L 306.696562 298.836187 
L 312.696562 298.836187 
" style="fill: none; stroke: #1f77b4; stroke-width: 1.5; stroke-linecap: square"/>
    </g>
    <g id="text_16">
     <!-- Execution time between S6 S7 -->
     <g transform="translate(317.496562 300.936187) scale(0.06 -0.06)">
      <use xlink:href="#DejaVuSans-45"/>
      <use xlink:href="#DejaVuSans-78" x="63.183594"/>
      <use xlink:href="#DejaVuSans-65" x="119.238281"/>
      <use xlink:href="#DejaVuSans-63" x="180.761719"/>
      <use xlink:href="#DejaVuSans-75" x="235.742188"/>
      <use xlink:href="#DejaVuSans-74" x="299.121094"/>
      <use xlink:href="#DejaVuSans-69" x="338.330078"/>
      <use xlink:href="#DejaVuSans-6f" x="366.113281"/>
      <use xlink:href="#DejaVuSans-6e" x="427.294922"/>
      <use xlink:href="#DejaVuSans-20" x="490.673828"/>
      <use xlink:href="#DejaVuSans-74" x="522.460938"/>
      <use xlink:href="#DejaVuSans-69" x="561.669922"/>
      <use xlink:href="#DejaVuSans-6d" x="589.453125"/>
      <use xlink:href="#DejaVuSans-65" x="686.865234"/>
      <use xlink:href="#DejaVuSans-20" x="748.388672"/>
      <use xlink:href="#DejaVuSans-62" x="780.175781"/>
      <use xlink:href="#DejaVuSans-65" x="843.652344"/>
      <use xlink:href="#DejaVuSans-74" x="905.175781"/>
      <use xlink:href="#DejaVuSans-77" x="944.384766"/>
      <use xlink:href="#DejaVuSans-65" x="1026.171875"/>
      <use xlink:href="#DejaVuSans-65" x="1087.695312"/>
      <use xlink:href="#DejaVuSans-6e" x="1149.21875"/>
      <use xlink:href="#DejaVuSans-20" x="1212.597656"/>
      <use xlink:href="#DejaVuSans-53" x="1244.384766"/>
      <use xlink:href="#DejaVuSans-36" x="1307.861328"/>
      <use xlink:href="#DejaVuSans-20" x="1371.484375"/>
      <use xlink:href="#DejaVuSans-53" x="1403.271484"/>
      <use xlink:href="#DejaVuSans-37" x="1466.748047"/>
     </g>
    </g>
   </g>
  </g>
 </g>
 <defs>
  <clipPath id="p300da3f998">
   <rect x="57.6" y="41.472" width="357.12" height="266.112"/>
  </clipPath>
 </defs>
</svg>
