<?xml version="1.0" encoding="utf-8" standalone="no"?>
<!DOCTYPE svg PUBLIC "-//W3C//DTD SVG 1.1//EN"
  "http://www.w3.org/Graphics/SVG/1.1/DTD/svg11.dtd">
<svg xmlns:xlink="http://www.w3.org/1999/xlink" width="460.8pt" height="345.6pt" viewBox="0 0 460.8 345.6" xmlns="http://www.w3.org/2000/svg" version="1.1">
 <metadata>
  <rdf:RDF xmlns:dc="http://purl.org/dc/elements/1.1/" xmlns:cc="http://creativecommons.org/ns#" xmlns:rdf="http://www.w3.org/1999/02/22-rdf-syntax-ns#">
   <cc:Work>
    <dc:type rdf:resource="http://purl.org/dc/dcmitype/StillImage"/>
    <dc:date>2024-03-08T11:56:01.065716</dc:date>
    <dc:format>image/svg+xml</dc:format>
    <dc:creator>
     <cc:Agent>
      <dc:title>Matplotlib v3.8.2, https://matplotlib.org/</dc:title>
     </cc:Agent>
    </dc:creator>
   </cc:Work>
  </rdf:RDF>
 </metadata>
 <defs>
  <style type="text/css">*{stroke-linejoin: round; stroke-linecap: butt}</style>
 </defs>
 <g id="figure_1">
  <g id="patch_1">
   <path d="M 0 345.6 
L 460.8 345.6 
L 460.8 0 
L 0 0 
z
" style="fill: #ffffff"/>
  </g>
  <g id="axes_1">
   <g id="patch_2">
    <path d="M 57.6 307.584 
L 414.72 307.584 
L 414.72 41.472 
L 57.6 41.472 
z
" style="fill: #ffffff"/>
   </g>
   <g id="matplotlib.axis_1">
    <g id="xtick_1">
     <g id="line2d_1">
      <defs>
       <path id="mbea328c186" d="M 0 0 
L 0 3.5 
" style="stroke: #000000; stroke-width: 0.8"/>
      </defs>
      <g>
       <use xlink:href="#mbea328c186" x="73.327772" y="307.584" style="stroke: #000000; stroke-width: 0.8"/>
      </g>
     </g>
     <g id="text_1">
      <!-- 0.0 -->
      <g transform="translate(65.37621 322.182437) scale(0.1 -0.1)">
       <defs>
        <path id="DejaVuSans-30" d="M 2034 4250 
Q 1547 4250 1301 3770 
Q 1056 3291 1056 2328 
Q 1056 1369 1301 889 
Q 1547 409 2034 409 
Q 2525 409 2770 889 
Q 3016 1369 3016 2328 
Q 3016 3291 2770 3770 
Q 2525 4250 2034 4250 
z
M 2034 4750 
Q 2819 4750 3233 4129 
Q 3647 3509 3647 2328 
Q 3647 1150 3233 529 
Q 2819 -91 2034 -91 
Q 1250 -91 836 529 
Q 422 1150 422 2328 
Q 422 3509 836 4129 
Q 1250 4750 2034 4750 
z
" transform="scale(0.015625)"/>
        <path id="DejaVuSans-2e" d="M 684 794 
L 1344 794 
L 1344 0 
L 684 0 
L 684 794 
z
" transform="scale(0.015625)"/>
       </defs>
       <use xlink:href="#DejaVuSans-30"/>
       <use xlink:href="#DejaVuSans-2e" x="63.623047"/>
       <use xlink:href="#DejaVuSans-30" x="95.410156"/>
      </g>
     </g>
    </g>
    <g id="xtick_2">
     <g id="line2d_2">
      <g>
       <use xlink:href="#mbea328c186" x="118.493707" y="307.584" style="stroke: #000000; stroke-width: 0.8"/>
      </g>
     </g>
     <g id="text_2">
      <!-- 0.5 -->
      <g transform="translate(110.542144 322.182437) scale(0.1 -0.1)">
       <defs>
        <path id="DejaVuSans-35" d="M 691 4666 
L 3169 4666 
L 3169 4134 
L 1269 4134 
L 1269 2991 
Q 1406 3038 1543 3061 
Q 1681 3084 1819 3084 
Q 2600 3084 3056 2656 
Q 3513 2228 3513 1497 
Q 3513 744 3044 326 
Q 2575 -91 1722 -91 
Q 1428 -91 1123 -41 
Q 819 9 494 109 
L 494 744 
Q 775 591 1075 516 
Q 1375 441 1709 441 
Q 2250 441 2565 725 
Q 2881 1009 2881 1497 
Q 2881 1984 2565 2268 
Q 2250 2553 1709 2553 
Q 1456 2553 1204 2497 
Q 953 2441 691 2322 
L 691 4666 
z
" transform="scale(0.015625)"/>
       </defs>
       <use xlink:href="#DejaVuSans-30"/>
       <use xlink:href="#DejaVuSans-2e" x="63.623047"/>
       <use xlink:href="#DejaVuSans-35" x="95.410156"/>
      </g>
     </g>
    </g>
    <g id="xtick_3">
     <g id="line2d_3">
      <g>
       <use xlink:href="#mbea328c186" x="163.659642" y="307.584" style="stroke: #000000; stroke-width: 0.8"/>
      </g>
     </g>
     <g id="text_3">
      <!-- 1.0 -->
      <g transform="translate(155.708079 322.182437) scale(0.1 -0.1)">
       <defs>
        <path id="DejaVuSans-31" d="M 794 531 
L 1825 531 
L 1825 4091 
L 703 3866 
L 703 4441 
L 1819 4666 
L 2450 4666 
L 2450 531 
L 3481 531 
L 3481 0 
L 794 0 
L 794 531 
z
" transform="scale(0.015625)"/>
       </defs>
       <use xlink:href="#DejaVuSans-31"/>
       <use xlink:href="#DejaVuSans-2e" x="63.623047"/>
       <use xlink:href="#DejaVuSans-30" x="95.410156"/>
      </g>
     </g>
    </g>
    <g id="xtick_4">
     <g id="line2d_4">
      <g>
       <use xlink:href="#mbea328c186" x="208.825576" y="307.584" style="stroke: #000000; stroke-width: 0.8"/>
      </g>
     </g>
     <g id="text_4">
      <!-- 1.5 -->
      <g transform="translate(200.874014 322.182437) scale(0.1 -0.1)">
       <use xlink:href="#DejaVuSans-31"/>
       <use xlink:href="#DejaVuSans-2e" x="63.623047"/>
       <use xlink:href="#DejaVuSans-35" x="95.410156"/>
      </g>
     </g>
    </g>
    <g id="xtick_5">
     <g id="line2d_5">
      <g>
       <use xlink:href="#mbea328c186" x="253.991511" y="307.584" style="stroke: #000000; stroke-width: 0.8"/>
      </g>
     </g>
     <g id="text_5">
      <!-- 2.0 -->
      <g transform="translate(246.039949 322.182437) scale(0.1 -0.1)">
       <defs>
        <path id="DejaVuSans-32" d="M 1228 531 
L 3431 531 
L 3431 0 
L 469 0 
L 469 531 
Q 828 903 1448 1529 
Q 2069 2156 2228 2338 
Q 2531 2678 2651 2914 
Q 2772 3150 2772 3378 
Q 2772 3750 2511 3984 
Q 2250 4219 1831 4219 
Q 1534 4219 1204 4116 
Q 875 4013 500 3803 
L 500 4441 
Q 881 4594 1212 4672 
Q 1544 4750 1819 4750 
Q 2544 4750 2975 4387 
Q 3406 4025 3406 3419 
Q 3406 3131 3298 2873 
Q 3191 2616 2906 2266 
Q 2828 2175 2409 1742 
Q 1991 1309 1228 531 
z
" transform="scale(0.015625)"/>
       </defs>
       <use xlink:href="#DejaVuSans-32"/>
       <use xlink:href="#DejaVuSans-2e" x="63.623047"/>
       <use xlink:href="#DejaVuSans-30" x="95.410156"/>
      </g>
     </g>
    </g>
    <g id="xtick_6">
     <g id="line2d_6">
      <g>
       <use xlink:href="#mbea328c186" x="299.157446" y="307.584" style="stroke: #000000; stroke-width: 0.8"/>
      </g>
     </g>
     <g id="text_6">
      <!-- 2.5 -->
      <g transform="translate(291.205883 322.182437) scale(0.1 -0.1)">
       <use xlink:href="#DejaVuSans-32"/>
       <use xlink:href="#DejaVuSans-2e" x="63.623047"/>
       <use xlink:href="#DejaVuSans-35" x="95.410156"/>
      </g>
     </g>
    </g>
    <g id="xtick_7">
     <g id="line2d_7">
      <g>
       <use xlink:href="#mbea328c186" x="344.32338" y="307.584" style="stroke: #000000; stroke-width: 0.8"/>
      </g>
     </g>
     <g id="text_7">
      <!-- 3.0 -->
      <g transform="translate(336.371818 322.182437) scale(0.1 -0.1)">
       <defs>
        <path id="DejaVuSans-33" d="M 2597 2516 
Q 3050 2419 3304 2112 
Q 3559 1806 3559 1356 
Q 3559 666 3084 287 
Q 2609 -91 1734 -91 
Q 1441 -91 1130 -33 
Q 819 25 488 141 
L 488 750 
Q 750 597 1062 519 
Q 1375 441 1716 441 
Q 2309 441 2620 675 
Q 2931 909 2931 1356 
Q 2931 1769 2642 2001 
Q 2353 2234 1838 2234 
L 1294 2234 
L 1294 2753 
L 1863 2753 
Q 2328 2753 2575 2939 
Q 2822 3125 2822 3475 
Q 2822 3834 2567 4026 
Q 2313 4219 1838 4219 
Q 1578 4219 1281 4162 
Q 984 4106 628 3988 
L 628 4550 
Q 988 4650 1302 4700 
Q 1616 4750 1894 4750 
Q 2613 4750 3031 4423 
Q 3450 4097 3450 3541 
Q 3450 3153 3228 2886 
Q 3006 2619 2597 2516 
z
" transform="scale(0.015625)"/>
       </defs>
       <use xlink:href="#DejaVuSans-33"/>
       <use xlink:href="#DejaVuSans-2e" x="63.623047"/>
       <use xlink:href="#DejaVuSans-30" x="95.410156"/>
      </g>
     </g>
    </g>
    <g id="xtick_8">
     <g id="line2d_8">
      <g>
       <use xlink:href="#mbea328c186" x="389.489315" y="307.584" style="stroke: #000000; stroke-width: 0.8"/>
      </g>
     </g>
     <g id="text_8">
      <!-- 3.5 -->
      <g transform="translate(381.537753 322.182437) scale(0.1 -0.1)">
       <use xlink:href="#DejaVuSans-33"/>
       <use xlink:href="#DejaVuSans-2e" x="63.623047"/>
       <use xlink:href="#DejaVuSans-35" x="95.410156"/>
      </g>
     </g>
    </g>
    <g id="text_9">
     <!-- 1e6 -->
     <g transform="translate(395.841875 334.860562) scale(0.1 -0.1)">
      <defs>
       <path id="DejaVuSans-65" d="M 3597 1894 
L 3597 1613 
L 953 1613 
Q 991 1019 1311 708 
Q 1631 397 2203 397 
Q 2534 397 2845 478 
Q 3156 559 3463 722 
L 3463 178 
Q 3153 47 2828 -22 
Q 2503 -91 2169 -91 
Q 1331 -91 842 396 
Q 353 884 353 1716 
Q 353 2575 817 3079 
Q 1281 3584 2069 3584 
Q 2775 3584 3186 3129 
Q 3597 2675 3597 1894 
z
M 3022 2063 
Q 3016 2534 2758 2815 
Q 2500 3097 2075 3097 
Q 1594 3097 1305 2825 
Q 1016 2553 972 2059 
L 3022 2063 
z
" transform="scale(0.015625)"/>
       <path id="DejaVuSans-36" d="M 2113 2584 
Q 1688 2584 1439 2293 
Q 1191 2003 1191 1497 
Q 1191 994 1439 701 
Q 1688 409 2113 409 
Q 2538 409 2786 701 
Q 3034 994 3034 1497 
Q 3034 2003 2786 2293 
Q 2538 2584 2113 2584 
z
M 3366 4563 
L 3366 3988 
Q 3128 4100 2886 4159 
Q 2644 4219 2406 4219 
Q 1781 4219 1451 3797 
Q 1122 3375 1075 2522 
Q 1259 2794 1537 2939 
Q 1816 3084 2150 3084 
Q 2853 3084 3261 2657 
Q 3669 2231 3669 1497 
Q 3669 778 3244 343 
Q 2819 -91 2113 -91 
Q 1303 -91 875 529 
Q 447 1150 447 2328 
Q 447 3434 972 4092 
Q 1497 4750 2381 4750 
Q 2619 4750 2861 4703 
Q 3103 4656 3366 4563 
z
" transform="scale(0.015625)"/>
      </defs>
      <use xlink:href="#DejaVuSans-31"/>
      <use xlink:href="#DejaVuSans-65" x="63.623047"/>
      <use xlink:href="#DejaVuSans-36" x="125.146484"/>
     </g>
    </g>
   </g>
   <g id="matplotlib.axis_2">
    <g id="ytick_1">
     <g id="line2d_9">
      <defs>
       <path id="mc1b23d155d" d="M 0 0 
L -3.5 0 
" style="stroke: #000000; stroke-width: 0.8"/>
      </defs>
      <g>
       <use xlink:href="#mc1b23d155d" x="57.6" y="295.488" style="stroke: #000000; stroke-width: 0.8"/>
      </g>
     </g>
     <g id="text_10">
      <!-- 0 -->
      <g transform="translate(44.2375 299.287219) scale(0.1 -0.1)">
       <use xlink:href="#DejaVuSans-30"/>
      </g>
     </g>
    </g>
    <g id="ytick_2">
     <g id="line2d_10">
      <g>
       <use xlink:href="#mc1b23d155d" x="57.6" y="253.777655" style="stroke: #000000; stroke-width: 0.8"/>
      </g>
     </g>
     <g id="text_11">
      <!-- 5 -->
      <g transform="translate(44.2375 257.576874) scale(0.1 -0.1)">
       <use xlink:href="#DejaVuSans-35"/>
      </g>
     </g>
    </g>
    <g id="ytick_3">
     <g id="line2d_11">
      <g>
       <use xlink:href="#mc1b23d155d" x="57.6" y="212.06731" style="stroke: #000000; stroke-width: 0.8"/>
      </g>
     </g>
     <g id="text_12">
      <!-- 10 -->
      <g transform="translate(37.875 215.866529) scale(0.1 -0.1)">
       <use xlink:href="#DejaVuSans-31"/>
       <use xlink:href="#DejaVuSans-30" x="63.623047"/>
      </g>
     </g>
    </g>
    <g id="ytick_4">
     <g id="line2d_12">
      <g>
       <use xlink:href="#mc1b23d155d" x="57.6" y="170.356966" style="stroke: #000000; stroke-width: 0.8"/>
      </g>
     </g>
     <g id="text_13">
      <!-- 15 -->
      <g transform="translate(37.875 174.156184) scale(0.1 -0.1)">
       <use xlink:href="#DejaVuSans-31"/>
       <use xlink:href="#DejaVuSans-35" x="63.623047"/>
      </g>
     </g>
    </g>
    <g id="ytick_5">
     <g id="line2d_13">
      <g>
       <use xlink:href="#mc1b23d155d" x="57.6" y="128.646621" style="stroke: #000000; stroke-width: 0.8"/>
      </g>
     </g>
     <g id="text_14">
      <!-- 20 -->
      <g transform="translate(37.875 132.445839) scale(0.1 -0.1)">
       <use xlink:href="#DejaVuSans-32"/>
       <use xlink:href="#DejaVuSans-30" x="63.623047"/>
      </g>
     </g>
    </g>
    <g id="ytick_6">
     <g id="line2d_14">
      <g>
       <use xlink:href="#mc1b23d155d" x="57.6" y="86.936276" style="stroke: #000000; stroke-width: 0.8"/>
      </g>
     </g>
     <g id="text_15">
      <!-- 25 -->
      <g transform="translate(37.875 90.735495) scale(0.1 -0.1)">
       <use xlink:href="#DejaVuSans-32"/>
       <use xlink:href="#DejaVuSans-35" x="63.623047"/>
      </g>
     </g>
    </g>
    <g id="ytick_7">
     <g id="line2d_15">
      <g>
       <use xlink:href="#mc1b23d155d" x="57.6" y="45.225931" style="stroke: #000000; stroke-width: 0.8"/>
      </g>
     </g>
     <g id="text_16">
      <!-- 30 -->
      <g transform="translate(37.875 49.02515) scale(0.1 -0.1)">
       <use xlink:href="#DejaVuSans-33"/>
       <use xlink:href="#DejaVuSans-30" x="63.623047"/>
      </g>
     </g>
    </g>
   </g>
   <g id="line2d_16">
    <path d="M 73.832727 287.145931 
L 74.022424 295.488 
L 74.147985 287.145931 
L 74.338586 295.488 
L 74.46234 287.145931 
L 74.652941 295.488 
L 74.777599 287.145931 
L 74.968199 295.488 
L 75.09918 287.145931 
L 75.28978 295.488 
L 75.414438 287.145931 
L 75.604135 295.488 
L 75.72789 287.145931 
L 75.91849 295.488 
L 76.042245 287.145931 
L 76.231942 295.488 
L 76.362923 287.145931 
L 76.553523 295.488 
L 76.681794 287.145931 
L 76.871491 295.488 
L 76.997956 287.145931 
L 77.188556 295.488 
L 77.315021 287.145931 
L 77.505621 295.488 
L 77.633892 287.145931 
L 77.824493 295.488 
L 77.953667 287.145931 
L 78.144267 295.488 
L 78.273442 287.145931 
L 78.464042 295.488 
L 78.585087 287.145931 
L 78.775687 295.488 
L 84.324774 287.145931 
L 84.446722 262.119724 
L 84.640032 228.751448 
L 84.830632 295.488 
L 84.914641 287.145931 
L 85.104338 295.488 
L 85.222673 287.145931 
L 85.413273 295.488 
L 85.538834 287.145931 
L 85.729434 295.488 
L 85.850479 287.145931 
L 86.041079 295.488 
L 86.169351 287.145931 
L 86.359951 295.488 
L 86.484609 287.145931 
L 86.675209 295.488 
L 86.799867 287.145931 
L 86.990467 295.488 
L 87.120545 287.145931 
L 87.311146 295.488 
L 87.439417 287.145931 
L 87.630017 295.488 
L 87.755578 287.145931 
L 87.946179 295.488 
L 88.07445 287.145931 
L 88.26505 295.488 
L 88.389708 287.145931 
L 88.580308 295.488 
L 88.706773 287.145931 
L 88.897373 295.488 
L 89.016611 287.145931 
L 89.207211 295.488 
L 89.332773 287.145931 
L 89.523373 295.488 
L 89.647128 287.145931 
L 89.837728 295.488 
L 89.959676 287.145931 
L 90.149373 295.488 
L 90.279451 287.145931 
L 90.470051 295.488 
L 90.588386 287.145931 
L 90.778986 295.488 
L 90.902741 287.145931 
L 91.092438 295.488 
L 91.218902 287.145931 
L 91.409502 295.488 
L 91.54229 287.145931 
L 91.732891 295.488 
L 91.856645 287.145931 
L 92.047245 295.488 
L 92.169193 287.145931 
L 92.359794 295.488 
L 92.479935 287.145931 
L 92.670535 295.488 
L 92.79429 287.145931 
L 92.98489 295.488 
L 93.109548 287.145931 
L 93.300148 295.488 
L 93.42029 287.145931 
L 93.61089 295.488 
L 93.735548 287.145931 
L 93.926148 295.488 
L 94.05442 287.145931 
L 94.24502 295.488 
L 94.373291 287.145931 
L 94.563891 295.488 
L 94.686743 287.145931 
L 94.877343 295.488 
L 95.006517 287.145931 
L 95.197118 295.488 
L 95.321776 287.145931 
L 95.512376 295.488 
L 95.640647 287.145931 
L 95.831247 295.488 
L 95.954099 287.145931 
L 96.143796 295.488 
L 96.272067 287.145931 
L 96.462667 295.488 
L 96.591842 287.145931 
L 96.782442 295.488 
L 96.902583 287.145931 
L 97.093184 295.488 
L 97.216035 287.145931 
L 97.406635 295.488 
L 97.531293 287.145931 
L 97.721893 295.488 
L 97.840228 287.145931 
L 98.162713 278.803862 
L 98.353313 295.488 
L 98.471648 287.145931 
L 98.662248 295.488 
L 98.794133 287.145931 
L 98.984733 295.488 
L 99.117521 287.145931 
L 99.308121 295.488 
L 99.438199 287.145931 
L 99.628799 295.488 
L 99.75978 287.145931 
L 99.950381 295.488 
L 100.074135 287.145931 
L 100.264736 295.488 
L 100.390297 287.145931 
L 100.580897 295.488 
L 100.710975 287.145931 
L 101.028943 278.803862 
L 101.219543 295.488 
L 101.347815 287.145931 
L 101.538415 295.488 
L 101.658556 287.145931 
L 101.849157 295.488 
L 101.967491 287.145931 
L 102.158092 295.488 
L 102.284556 287.145931 
L 102.475156 295.488 
L 102.598911 287.145931 
L 102.789511 295.488 
L 102.923203 287.145931 
L 103.113803 295.488 
L 103.239364 287.145931 
L 103.429061 295.488 
L 103.557332 287.145931 
L 103.747932 295.488 
L 103.873494 287.145931 
L 104.063191 295.488 
L 104.193269 287.145931 
L 104.383869 295.488 
L 104.50943 287.145931 
L 104.699127 295.488 
L 104.821075 287.145931 
L 105.011675 295.488 
L 105.139947 287.145931 
L 105.330547 295.488 
L 105.458818 287.145931 
L 105.649418 295.488 
L 105.773173 287.145931 
L 105.963773 295.488 
L 106.092948 287.145931 
L 106.283548 295.488 
L 106.411819 287.145931 
L 106.60242 295.488 
L 106.731594 287.145931 
L 106.921291 295.488 
L 107.046852 287.145931 
L 107.237453 295.488 
L 107.359401 287.145931 
L 107.549098 295.488 
L 107.673756 287.145931 
L 107.864356 295.488 
L 107.992627 287.145931 
L 108.183227 295.488 
L 108.306079 287.145931 
L 108.496679 295.488 
L 108.618627 287.145931 
L 108.809227 295.488 
L 108.930272 287.145931 
L 109.120872 295.488 
L 109.24824 287.145931 
L 109.43884 295.488 
L 109.561692 287.145931 
L 109.752292 295.488 
L 109.881466 287.145931 
L 110.071163 295.488 
L 110.199435 287.145931 
L 110.390035 295.488 
L 111.09372 287.145931 
L 111.282514 295.488 
L 111.315937 287.145931 
L 111.50473 295.488 
L 111.544476 287.145931 
L 111.732366 295.488 
L 111.767596 287.145931 
L 111.955486 295.488 
L 111.991619 287.145931 
L 112.179509 295.488 
L 112.215642 287.145931 
L 112.403532 295.488 
L 112.436052 287.145931 
L 112.624845 295.488 
L 112.659171 287.145931 
L 112.847965 295.488 
L 112.881388 287.145931 
L 113.070181 295.488 
L 113.105411 287.145931 
L 113.293301 295.488 
L 113.335757 287.145931 
L 113.524551 295.488 
L 113.563393 287.145931 
L 113.751284 295.488 
L 113.792836 287.145931 
L 113.98163 295.488 
L 114.018666 287.145931 
L 114.20746 295.488 
L 114.249012 287.145931 
L 114.436903 295.488 
L 114.477552 287.145931 
L 114.666346 295.488 
L 114.703382 287.145931 
L 114.891272 295.488 
L 114.929211 287.145931 
L 115.118005 295.488 
L 115.155041 287.145931 
L 115.343835 295.488 
L 115.383581 287.145931 
L 115.571471 295.488 
L 115.60941 287.145931 
L 115.798204 295.488 
L 115.834337 287.145931 
L 116.022227 295.488 
L 116.059263 287.145931 
L 116.248057 295.488 
L 116.289609 287.145931 
L 116.478403 295.488 
L 116.513632 287.145931 
L 122.157567 278.803862 
L 122.324681 270.461793 
L 122.499925 162.014897 
L 122.540575 170.356966 
L 122.740208 178.699034 
L 127.53954 187.041103 
L 127.685878 178.699034 
L 127.806923 187.041103 
L 127.911708 145.330759 
L 128.051722 103.620414 
L 128.055335 111.962483 
L 128.431116 295.488 
L 128.464539 287.145931 
L 128.653332 295.488 
L 128.688562 287.145931 
L 128.876452 295.488 
L 128.913488 287.145931 
L 129.102282 295.488 
L 129.142931 287.145931 
L 129.330821 295.488 
L 129.369664 287.145931 
L 129.557554 295.488 
L 129.590977 287.145931 
L 129.778867 295.488 
L 129.818613 287.145931 
L 130.006504 295.488 
L 130.04896 287.145931 
L 130.237753 295.488 
L 130.273886 287.145931 
L 130.46268 295.488 
L 130.503329 287.145931 
L 130.691219 295.488 
L 130.730062 287.145931 
L 130.918855 295.488 
L 130.956795 287.145931 
L 131.145588 295.488 
L 131.183528 287.145931 
L 131.371418 295.488 
L 131.403034 287.145931 
L 131.590925 295.488 
L 131.631574 287.145931 
L 131.820368 295.488 
L 131.85379 287.145931 
L 132.042584 295.488 
L 132.077813 287.145931 
L 132.266607 295.488 
L 132.307256 287.145931 
L 132.49605 295.488 
L 132.534893 287.145931 
L 132.722783 295.488 
L 132.762529 287.145931 
L 132.951323 295.488 
L 132.986552 287.145931 
L 133.174442 295.488 
L 133.210575 287.145931 
L 133.399369 295.488 
L 133.436405 287.145931 
L 133.625198 295.488 
L 133.661331 287.145931 
L 133.850125 295.488 
L 133.883547 287.145931 
L 134.072341 295.488 
L 134.104861 287.145931 
L 134.292751 295.488 
L 134.3334 287.145931 
L 134.522194 295.488 
L 134.554713 287.145931 
L 134.743507 295.488 
L 134.780543 287.145931 
L 134.968433 295.488 
L 135.003663 287.145931 
L 135.191553 295.488 
L 135.228589 287.145931 
L 135.416479 295.488 
L 135.452612 287.145931 
L 135.641406 295.488 
L 135.674828 287.145931 
L 135.862719 295.488 
L 135.899755 287.145931 
L 136.087645 295.488 
L 136.124681 287.145931 
L 136.313475 295.488 
L 136.347801 287.145931 
L 136.536594 295.488 
L 136.572727 287.145931 
L 136.760617 295.488 
L 136.79675 287.145931 
L 136.985544 295.488 
L 137.020773 287.145931 
L 137.209567 295.488 
L 137.25112 287.145931 
L 137.43901 295.488 
L 137.477853 287.145931 
L 137.666646 295.488 
L 137.701876 287.145931 
L 137.890669 295.488 
L 137.924092 287.145931 
L 138.111982 295.488 
L 138.152632 287.145931 
L 138.341425 295.488 
L 138.382075 287.145931 
L 138.569965 295.488 
L 138.606098 287.145931 
L 138.794891 295.488 
L 138.830121 287.145931 
L 139.018914 295.488 
L 139.06137 287.145931 
L 139.24926 295.488 
L 139.2872 287.145931 
L 139.47509 295.488 
L 139.50761 287.145931 
L 139.696403 295.488 
L 139.737053 287.145931 
L 139.924943 295.488 
L 139.959269 287.145931 
L 140.148063 295.488 
L 140.187809 287.145931 
L 140.376602 295.488 
L 140.409122 287.145931 
L 140.597915 295.488 
L 140.631338 287.145931 
L 140.820132 295.488 
L 140.860781 287.145931 
L 141.049575 295.488 
L 141.091127 287.145931 
L 141.279018 295.488 
L 141.31515 287.145931 
L 141.503944 295.488 
L 141.5464 287.145931 
L 141.73429 295.488 
L 141.773133 287.145931 
L 141.961927 295.488 
L 141.997156 287.145931 
L 142.185046 295.488 
L 142.222986 287.145931 
L 142.410876 295.488 
L 142.444299 287.145931 
L 142.632189 295.488 
L 142.674645 287.145931 
L 142.862535 295.488 
L 142.900475 287.145931 
L 143.088365 295.488 
L 143.127208 287.145931 
L 143.315098 295.488 
L 143.355747 287.145931 
L 143.544541 295.488 
L 143.57977 287.145931 
L 143.768564 295.488 
L 143.804697 287.145931 
L 146.515556 187.041103 
L 146.947342 178.699034 
L 149.213769 187.041103 
L 149.395336 295.488 
L 154.636391 287.145931 
L 154.980556 136.98869 
L 155.059144 170.356966 
L 155.158509 178.699034 
L 165.478925 187.041103 
L 165.625263 195.383172 
L 165.794184 295.488 
L 170.891611 287.145931 
L 171.266488 95.278345 
L 171.275521 103.620414 
L 171.483285 178.699034 
L 176.31875 187.041103 
L 176.465087 178.699034 
L 176.586132 187.041103 
L 176.706273 136.98869 
L 176.845385 103.620414 
L 176.849901 111.962483 
L 177.015208 270.461793 
L 177.044115 287.145931 
L 177.189549 295.488 
L 177.229295 287.145931 
L 177.418089 295.488 
L 177.453318 287.145931 
L 177.641208 295.488 
L 177.678244 287.145931 
L 177.867038 295.488 
L 177.902267 287.145931 
L 178.090158 295.488 
L 178.121774 287.145931 
L 178.310567 295.488 
L 178.3467 287.145931 
L 178.535494 295.488 
L 178.57524 287.145931 
L 178.764033 295.488 
L 178.803779 287.145931 
L 178.992573 295.488 
L 179.030512 287.145931 
L 179.219306 295.488 
L 179.256342 287.145931 
L 179.445136 295.488 
L 179.483075 287.145931 
L 179.670965 295.488 
L 179.706195 287.145931 
L 179.894988 295.488 
L 179.930218 287.145931 
L 180.119012 295.488 
L 180.151531 287.145931 
L 180.339421 295.488 
L 180.380071 287.145931 
L 180.568864 295.488 
L 180.610417 287.145931 
L 180.798307 295.488 
L 180.83444 287.145931 
L 181.02233 295.488 
L 181.062076 287.145931 
L 181.25087 295.488 
L 181.288809 287.145931 
L 181.477603 295.488 
L 181.509219 287.145931 
L 181.698013 295.488 
L 181.735049 287.145931 
L 181.922939 295.488 
L 181.963588 287.145931 
L 182.152382 295.488 
L 182.187611 287.145931 
L 182.376405 295.488 
L 182.415248 287.145931 
L 182.603138 295.488 
L 182.643787 287.145931 
L 182.831678 295.488 
L 182.8651 287.145931 
L 183.052991 295.488 
L 183.09364 287.145931 
L 183.28153 295.488 
L 183.320373 287.145931 
L 183.542589 278.803862 
L 183.70338 287.145931 
L 183.73048 295.488 
L 183.765709 287.145931 
L 183.991539 278.803862 
L 184.148716 287.145931 
L 184.179429 295.488 
L 184.211949 287.145931 
L 184.399839 295.488 
L 184.435972 287.145931 
L 184.623862 295.488 
L 184.655478 287.145931 
L 184.843368 295.488 
L 184.883114 287.145931 
L 185.071005 295.488 
L 185.106234 287.145931 
L 185.294124 295.488 
L 185.324837 287.145931 
L 185.513631 295.488 
L 185.550667 287.145931 
L 185.738557 295.488 
L 185.78011 287.145931 
L 185.968 295.488 
L 186.002326 287.145931 
L 186.19112 295.488 
L 186.225446 287.145931 
L 186.414239 295.488 
L 186.451276 287.145931 
L 186.640069 295.488 
L 186.679815 287.145931 
L 186.867705 295.488 
L 186.906548 287.145931 
L 187.094438 295.488 
L 187.133281 287.145931 
L 187.322075 295.488 
L 187.361821 287.145931 
L 187.550614 295.488 
L 187.589457 287.145931 
L 187.777347 295.488 
L 187.81348 287.145931 
L 188.002274 295.488 
L 188.037503 287.145931 
L 188.225393 295.488 
L 188.26243 287.145931 
L 188.45032 295.488 
L 188.492776 287.145931 
L 188.681569 295.488 
L 188.712282 287.145931 
L 188.900173 295.488 
L 190.387938 287.145931 
L 190.578539 295.488 
L 190.699583 287.145931 
L 190.890184 295.488 
L 191.014842 287.145931 
L 191.205442 295.488 
L 191.33552 287.145931 
L 191.52612 295.488 
L 191.651681 287.145931 
L 191.842282 295.488 
L 191.962423 287.145931 
L 192.153023 295.488 
L 192.284004 287.145931 
L 192.474605 295.488 
L 192.597456 287.145931 
L 192.788056 295.488 
L 192.912714 287.145931 
L 193.103314 295.488 
L 193.235199 287.145931 
L 193.425799 295.488 
L 193.545037 287.145931 
L 193.735638 295.488 
L 193.858489 287.145931 
L 194.048186 295.488 
L 194.17736 287.145931 
L 194.367057 295.488 
L 194.491715 287.145931 
L 194.682316 295.488 
L 194.813297 287.145931 
L 195.002994 295.488 
L 195.132168 287.145931 
L 195.322768 295.488 
L 195.45104 287.145931 
L 195.64164 295.488 
L 195.765395 287.145931 
L 195.955995 295.488 
L 196.083363 287.145931 
L 196.273963 295.488 
L 196.398621 287.145931 
L 196.588318 295.488 
L 196.708459 287.145931 
L 196.898156 295.488 
L 197.018298 287.145931 
L 197.208898 295.488 
L 197.329943 287.145931 
L 197.51964 295.488 
L 197.642491 287.145931 
L 197.833091 295.488 
L 197.954136 287.145931 
L 198.144736 295.488 
L 203.639624 287.145931 
L 203.879003 278.803862 
L 204.100316 237.093517 
L 204.290916 287.145931 
L 204.46616 295.488 
L 204.590818 287.145931 
L 204.781419 295.488 
L 204.907883 287.145931 
L 205.098483 295.488 
L 205.224045 287.145931 
L 205.413742 295.488 
L 205.534786 287.145931 
L 205.725387 295.488 
L 205.848238 287.145931 
L 206.038838 295.488 
L 206.168916 287.145931 
L 206.359516 295.488 
L 206.484174 287.145931 
L 206.674774 295.488 
L 206.801239 287.145931 
L 206.991839 295.488 
L 207.114691 287.145931 
L 207.305291 295.488 
L 207.432659 287.145931 
L 207.623259 295.488 
L 207.74882 287.145931 
L 207.938517 295.488 
L 208.061369 287.145931 
L 208.251969 295.488 
L 208.373014 287.145931 
L 208.563614 295.488 
L 208.695498 287.145931 
L 208.886099 295.488 
L 214.436992 287.145931 
L 214.717924 228.751448 
L 214.7387 237.093517 
L 214.908524 295.488 
L 215.061185 287.145931 
L 215.251785 295.488 
L 215.384573 287.145931 
L 215.57427 295.488 
L 215.710671 287.145931 
L 215.901272 295.488 
L 216.01509 287.145931 
L 216.20569 295.488 
L 216.323121 287.145931 
L 216.513722 295.488 
L 216.64109 287.145931 
L 216.83169 295.488 
L 216.967188 287.145931 
L 217.157788 295.488 
L 217.277026 287.145931 
L 217.467626 295.488 
L 217.590478 287.145931 
L 217.780175 295.488 
L 217.914769 287.145931 
L 218.105369 295.488 
L 218.230931 287.145931 
L 218.421531 295.488 
L 218.543479 287.145931 
L 218.734079 295.488 
L 218.865964 287.145931 
L 219.056564 295.488 
L 219.187545 287.145931 
L 219.378145 295.488 
L 219.50732 287.145931 
L 219.69792 295.488 
L 219.818965 287.145931 
L 220.134223 278.803862 
L 220.324823 295.488 
L 220.445868 287.145931 
L 220.636468 295.488 
L 220.75661 287.145931 
L 220.94721 295.488 
L 221.072771 287.145931 
L 221.263371 295.488 
L 221.397063 287.145931 
L 221.587663 295.488 
L 221.719547 287.145931 
L 221.909244 295.488 
L 222.032096 287.145931 
L 222.222696 295.488 
L 222.348257 287.145931 
L 222.538857 295.488 
L 222.670742 287.145931 
L 222.861342 295.488 
L 222.986903 287.145931 
L 223.177504 295.488 
L 223.305775 287.145931 
L 223.496375 295.488 
L 223.61742 287.145931 
L 223.80802 295.488 
L 223.922742 287.145931 
L 224.113342 295.488 
L 224.242516 287.145931 
L 224.433117 295.488 
L 224.555065 287.145931 
L 224.745665 295.488 
L 224.875743 287.145931 
L 225.06544 295.488 
L 230.613623 287.145931 
L 230.757251 270.461793 
L 230.919848 220.409379 
L 230.990307 228.751448 
L 231.165551 237.093517 
L 235.935074 245.435586 
L 236.045279 237.093517 
L 236.070571 245.435586 
L 236.094961 220.409379 
L 236.105801 220.409379 
L 236.233169 128.646621 
L 236.292788 145.330759 
L 236.37228 203.725241 
L 236.421059 278.803862 
L 236.515908 287.145931 
L 236.534877 278.803862 
L 236.543007 287.145931 
L 236.713734 278.803862 
L 236.722768 287.145931 
L 236.892591 278.803862 
L 236.902528 287.145931 
L 237.073255 278.803862 
L 237.081385 287.145931 
L 237.253016 278.803862 
L 237.261145 287.145931 
L 237.431873 278.803862 
L 237.441809 287.145931 
L 237.611633 278.803862 
L 237.619763 287.145931 
L 237.794104 278.803862 
L 237.799523 287.145931 
L 237.973864 278.803862 
L 237.981994 287.145931 
L 238.152721 278.803862 
L 238.161754 287.145931 
L 238.335191 278.803862 
L 238.340611 287.145931 
L 238.511339 278.803862 
L 238.523082 287.145931 
L 238.689292 278.803862 
L 238.700132 287.145931 
L 238.869956 278.803862 
L 238.877183 287.145931 
L 239.049717 278.803862 
L 239.057846 287.145931 
L 239.22767 278.803862 
L 239.23851 287.145931 
L 239.408334 278.803862 
L 239.415561 287.145931 
L 239.587191 278.803862 
L 239.596224 287.145931 
L 239.770565 278.803862 
L 239.775081 287.145931 
L 239.947615 278.803862 
L 239.958455 287.145931 
L 240.133699 278.803862 
L 240.136409 287.145931 
L 240.314363 278.803862 
L 240.321589 287.145931 
L 240.49322 278.803862 
L 240.502253 287.145931 
L 240.671174 278.803862 
L 240.682013 287.145931 
L 240.849127 278.803862 
L 240.859967 287.145931 
L 241.034308 278.803862 
L 241.037018 287.145931 
L 241.214068 278.803862 
L 241.222198 287.145931 
L 241.398345 278.803862 
L 241.401958 287.145931 
L 241.582622 278.803862 
L 241.587139 287.145931 
L 241.767802 278.803862 
L 241.770512 287.145931 
L 241.952983 278.803862 
L 241.955693 287.145931 
L 242.135453 278.803862 
L 242.140873 287.145931 
L 242.315214 278.803862 
L 242.323343 287.145931 
L 242.495877 278.803862 
L 242.503104 287.145931 
L 242.674734 278.803862 
L 242.683768 287.145931 
L 242.853592 278.803862 
L 242.863528 287.145931 
L 243.036062 278.803862 
L 243.041482 287.145931 
L 243.220339 278.803862 
L 243.224856 287.145931 
L 243.402809 278.803862 
L 243.408229 287.145931 
L 243.58257 278.803862 
L 243.5907 287.145931 
L 243.76233 278.803862 
L 243.77046 287.145931 
L 243.942994 278.803862 
L 243.951124 287.145931 
L 244.124561 278.803862 
L 244.131787 287.145931 
L 244.302515 278.803862 
L 244.312451 287.145931 
L 244.484985 278.803862 
L 244.491308 287.145931 
L 244.662939 278.803862 
L 244.672875 287.145931 
L 244.841796 278.803862 
L 244.850829 287.145931 
L 245.023363 278.803862 
L 245.029686 287.145931 
L 245.376561 270.461793 
L 245.407273 287.145931 
L 245.557224 278.803862 
L 245.564451 287.145931 
L 245.735178 278.803862 
L 245.745115 287.145931 
L 245.913132 278.803862 
L 245.923068 287.145931 
L 246.093796 278.803862 
L 246.101926 287.145931 
L 246.278976 278.803862 
L 246.282589 287.145931 
L 246.458736 278.803862 
L 246.466866 287.145931 
L 246.640303 278.803862 
L 246.646627 287.145931 
L 246.822774 278.803862 
L 246.828194 287.145931 
L 247.007051 278.803862 
L 247.010664 287.145931 
L 247.187715 278.803862 
L 247.194941 287.145931 
L 247.371992 278.803862 
L 247.375605 287.145931 
L 247.549042 278.803862 
L 247.560785 287.145931 
L 247.730609 278.803862 
L 247.736932 287.145931 
L 247.909466 278.803862 
L 247.918499 287.145931 
L 248.085613 278.803862 
L 248.097357 287.145931 
L 248.26718 278.803862 
L 248.273504 287.145931 
L 248.446941 278.803862 
L 248.455071 287.145931 
L 248.627605 278.803862 
L 248.634831 287.145931 
L 248.807365 278.803862 
L 248.816398 287.145931 
L 248.991642 278.803862 
L 248.995255 287.145931 
L 249.169596 278.803862 
L 249.180436 287.145931 
L 249.354776 278.803862 
L 249.358389 287.145931 
L 249.533633 278.803862 
L 249.542666 287.145931 
L 249.717007 278.803862 
L 249.721524 287.145931 
L 249.896767 278.803862 
L 249.904897 287.145931 
L 250.074721 278.803862 
L 250.084658 287.145931 
L 250.255385 278.803862 
L 250.263515 287.145931 
L 250.437855 278.803862 
L 250.444179 287.145931 
L 250.618519 278.803862 
L 250.625746 287.145931 
L 250.798279 278.803862 
L 250.806409 287.145931 
L 250.981653 278.803862 
L 250.98617 287.145931 
L 251.165027 278.803862 
L 251.169543 287.145931 
L 251.343884 278.803862 
L 251.352917 287.145931 
L 251.522741 278.803862 
L 251.531774 287.145931 
L 251.699792 278.803862 
L 251.710631 287.145931 
L 251.882262 278.803862 
L 251.888585 287.145931 
L 252.062022 278.803862 
L 252.070152 287.145931 
L 252.248106 278.803862 
L 252.249913 287.145931 
L 252.609433 270.461793 
L 252.63292 287.145931 
L 252.786484 278.803862 
L 252.797324 287.145931 
L 252.968051 278.803862 
L 252.974374 287.145931 
L 253.147811 278.803862 
L 253.155941 287.145931 
L 253.327572 278.803862 
L 253.336605 287.145931 
L 253.509139 278.803862 
L 253.516365 287.145931 
L 253.688899 278.803862 
L 253.697029 287.145931 
L 253.86866 278.803862 
L 253.877693 287.145931 
L 254.052033 278.803862 
L 254.05655 287.145931 
L 254.228181 278.803862 
L 254.240827 287.145931 
L 254.409748 278.803862 
L 254.416071 287.145931 
L 254.587701 278.803862 
L 254.597638 287.145931 
L 254.765655 278.803862 
L 254.775592 287.145931 
L 254.941802 278.803862 
L 254.953545 287.145931 
L 255.120659 278.803862 
L 255.130596 287.145931 
L 255.304033 278.803862 
L 255.30855 287.145931 
L 255.48289 278.803862 
L 255.491923 287.145931 
L 255.662651 278.803862 
L 255.67078 287.145931 
L 255.838798 278.803862 
L 255.850541 287.145931 
L 256.015848 278.803862 
L 256.027591 287.145931 
L 256.194705 278.803862 
L 256.203739 287.145931 
L 256.372659 278.803862 
L 256.383499 287.145931 
L 256.54971 278.803862 
L 256.560549 287.145931 
L 256.731277 278.803862 
L 256.738503 287.145931 
L 256.91194 278.803862 
L 256.919167 287.145931 
L 257.088088 278.803862 
L 257.099831 287.145931 
L 257.267848 278.803862 
L 257.275978 287.145931 
L 257.446705 278.803862 
L 257.455738 287.145931 
L 263.043668 278.803862 
L 263.222525 270.461793 
L 263.381509 153.672828 
L 263.414028 128.646621 
L 263.427578 136.98869 
L 263.607339 145.330759 
L 279.296178 153.672828 
L 279.435289 145.330759 
L 279.546397 153.672828 
L 279.739707 53.568 
L 280.051352 295.488 
L 280.422616 278.803862 
L 280.426229 287.145931 
L 280.599666 278.803862 
L 280.610506 287.145931 
L 280.779427 278.803862 
L 280.787557 287.145931 
L 280.962801 278.803862 
L 280.967317 287.145931 
L 281.145271 278.803862 
L 281.151594 287.145931 
L 281.327741 278.803862 
L 281.333161 287.145931 
L 281.507502 278.803862 
L 281.515632 287.145931 
L 281.693585 278.803862 
L 281.695392 287.145931 
L 281.870636 278.803862 
L 281.881476 287.145931 
L 282.052203 278.803862 
L 282.058526 287.145931 
L 282.234673 278.803862 
L 282.240997 287.145931 
L 282.418047 278.803862 
L 282.423467 287.145931 
L 282.599614 278.803862 
L 282.605937 287.145931 
L 282.776665 278.803862 
L 282.787504 287.145931 
L 282.952812 278.803862 
L 282.965458 287.145931 
L 283.132572 278.803862 
L 283.141605 287.145931 
L 283.311429 278.803862 
L 283.320462 287.145931 
L 283.49932 295.488 
L 284.034084 287.145931 
L 284.213845 278.803862 
L 284.221974 287.145931 
L 284.396315 278.803862 
L 284.402638 287.145931 
L 284.574269 278.803862 
L 284.585109 287.145931 
L 284.758546 278.803862 
L 284.762159 287.145931 
L 284.940113 278.803862 
L 284.946436 287.145931 
L 285.12168 278.803862 
L 285.128003 287.145931 
L 285.299634 278.803862 
L 285.30957 287.145931 
L 285.477587 278.803862 
L 285.488427 287.145931 
L 285.658251 278.803862 
L 285.665478 287.145931 
L 285.837108 278.803862 
L 285.846141 287.145931 
L 286.014159 278.803862 
L 286.024999 287.145931 
L 286.202049 295.488 
L 286.552537 278.803862 
L 286.560667 287.145931 
L 286.729587 278.803862 
L 286.740427 287.145931 
L 286.910251 278.803862 
L 286.917477 287.145931 
L 287.091818 278.803862 
L 287.098141 287.145931 
L 287.272482 278.803862 
L 287.279708 287.145931 
L 287.453145 278.803862 
L 287.460372 287.145931 
L 287.633809 278.803862 
L 287.641036 287.145931 
L 287.81086 278.803862 
L 287.821699 287.145931 
L 287.992427 278.803862 
L 287.99875 287.145931 
L 288.17038 278.803862 
L 288.180317 287.145931 
L 288.348334 278.803862 
L 288.359174 287.145931 
L 288.528095 278.803862 
L 288.537128 287.145931 
L 288.708758 278.803862 
L 288.716888 287.145931 
L 288.892132 278.803862 
L 288.896649 287.145931 
L 289.070086 278.803862 
L 289.080022 287.145931 
L 289.248943 278.803862 
L 289.257976 287.145931 
L 289.426897 278.803862 
L 289.437737 287.145931 
L 289.606657 278.803862 
L 289.614787 287.145931 
L 289.785514 278.803862 
L 289.795451 287.145931 
L 289.964371 278.803862 
L 289.973405 287.145931 
L 291.773719 203.725241 
L 292.861314 153.672828 
L 295.555011 162.014897 
L 295.686895 153.672828 
L 295.804327 145.330759 
L 295.879302 170.356966 
L 295.944341 162.014897 
L 296.021123 187.041103 
L 296.132231 278.803862 
L 296.214433 287.145931 
L 296.302959 278.803862 
L 296.309282 287.145931 
L 296.484526 278.803862 
L 296.490849 287.145931 
L 296.664286 278.803862 
L 296.672416 287.145931 
L 296.844047 278.803862 
L 296.85308 287.145931 
L 297.022904 278.803862 
L 297.03284 287.145931 
L 297.200857 278.803862 
L 297.210794 287.145931 
L 297.378811 278.803862 
L 297.388748 287.145931 
L 297.560378 278.803862 
L 297.566702 287.145931 
L 297.741042 278.803862 
L 297.748269 287.145931 
L 297.920802 278.803862 
L 297.928932 287.145931 
L 298.10237 278.803862 
L 298.108693 287.145931 
L 298.28755 278.803862 
L 298.29026 287.145931 
L 298.469117 278.803862 
L 298.47544 287.145931 
L 298.652491 278.803862 
L 298.657007 287.145931 
L 298.834058 278.803862 
L 298.841284 287.145931 
L 299.018335 278.803862 
L 299.022851 287.145931 
L 299.202612 278.803862 
L 299.206225 287.145931 
L 299.377856 278.803862 
L 299.390502 287.145931 
L 299.558519 278.803862 
L 299.565746 287.145931 
L 299.736473 278.803862 
L 299.74641 287.145931 
L 299.917137 278.803862 
L 299.925267 287.145931 
L 300.095091 278.803862 
L 300.105027 287.145931 
L 300.280271 278.803862 
L 300.282981 287.145931 
L 300.463645 278.803862 
L 300.469065 287.145931 
L 300.643405 278.803862 
L 300.651535 287.145931 
L 300.823165 278.803862 
L 300.831295 287.145931 
L 301.007442 278.803862 
L 301.011959 287.145931 
L 301.18901 278.803862 
L 301.195333 287.145931 
L 301.37148 278.803862 
L 301.3769 287.145931 
L 301.55395 278.803862 
L 301.55937 287.145931 
L 301.736421 278.803862 
L 301.741841 287.145931 
L 301.919794 278.803862 
L 301.925214 287.145931 
L 302.101361 278.803862 
L 302.107685 287.145931 
L 302.282025 278.803862 
L 302.290155 287.145931 
L 302.460882 278.803862 
L 302.469915 287.145931 
L 302.639739 278.803862 
L 302.648773 287.145931 
L 302.814983 278.803862 
L 302.82763 287.145931 
L 302.992034 278.803862 
L 303.002873 287.145931 
L 303.175407 278.803862 
L 303.179924 287.145931 
L 303.355168 278.803862 
L 303.364201 287.145931 
L 303.536735 278.803862 
L 303.543961 287.145931 
L 303.717399 278.803862 
L 303.724625 287.145931 
L 303.896256 278.803862 
L 303.905289 287.145931 
L 304.075113 278.803862 
L 304.085049 287.145931 
L 304.257583 278.803862 
L 304.263906 287.145931 
L 304.43915 278.803862 
L 304.446377 287.145931 
L 304.619814 278.803862 
L 304.627944 287.145931 
L 304.801381 278.803862 
L 304.807704 287.145931 
L 304.983851 278.803862 
L 304.989271 287.145931 
L 305.166322 278.803862 
L 305.172645 287.145931 
L 305.341566 278.803862 
L 305.354212 287.145931 
L 305.518616 278.803862 
L 305.529456 287.145931 
L 305.700183 278.803862 
L 305.706506 287.145931 
L 305.882653 278.803862 
L 305.888073 287.145931 
L 306.059704 278.803862 
L 306.071447 287.145931 
L 306.240368 278.803862 
L 306.247594 287.145931 
L 306.420128 278.803862 
L 306.428258 287.145931 
L 306.604405 278.803862 
L 306.608018 287.145931 
L 306.780552 278.803862 
L 306.792295 287.145931 
L 306.963926 278.803862 
L 306.968443 287.145931 
L 307.143686 278.803862 
L 307.15272 287.145931 
L 307.328867 278.803862 
L 307.33248 287.145931 
L 307.505917 278.803862 
L 307.516757 287.145931 
L 307.687484 278.803862 
L 307.693807 287.145931 
L 307.865438 278.803862 
L 307.875374 287.145931 
L 308.044295 278.803862 
L 308.053328 287.145931 
L 308.224055 278.803862 
L 308.232185 287.145931 
L 308.401106 278.803862 
L 308.411946 287.145931 
L 308.58448 278.803862 
L 308.5899 287.145931 
L 308.767853 278.803862 
L 308.77237 287.145931 
L 308.943097 278.803862 
L 308.955744 287.145931 
L 309.126471 278.803862 
L 309.130987 287.145931 
L 309.305328 278.803862 
L 309.314361 287.145931 
L 309.485992 278.803862 
L 309.493218 287.145931 
L 309.667559 278.803862 
L 309.673882 287.145931 
L 309.848223 278.803862 
L 309.855449 287.145931 
L 310.030693 278.803862 
L 310.036113 287.145931 
L 310.210453 278.803862 
L 310.219486 287.145931 
L 310.393827 278.803862 
L 310.398344 287.145931 
L 310.570877 278.803862 
L 310.582621 287.145931 
L 310.756961 278.803862 
L 310.759671 287.145931 
L 310.937625 278.803862 
L 310.944851 287.145931 
L 311.125515 295.488 
L 317.456876 287.145931 
L 317.647476 295.488 
L 317.702579 287.145931 
L 317.893179 295.488 
L 320.992465 287.145931 
L 321.183065 295.488 
L 321.30682 287.145931 
L 321.49742 295.488 
L 370.000214 287.145931 
L 370.190815 295.488 
L 370.309149 287.145931 
L 370.498846 295.488 
L 370.619891 287.145931 
L 370.810491 295.488 
L 370.933343 287.145931 
L 371.123943 295.488 
L 371.248601 287.145931 
L 371.439201 295.488 
L 376.985578 287.145931 
L 377.121979 262.119724 
L 377.316192 212.06731 
L 377.317096 220.409379 
L 377.444464 262.119724 
L 377.611578 287.145931 
L 377.744366 295.488 
L 377.87083 287.145931 
L 378.06143 295.488 
L 378.187895 287.145931 
L 378.378495 295.488 
L 378.49683 287.145931 
L 378.68743 295.488 
L 378.813895 287.145931 
L 379.004495 295.488 
L 379.121927 287.145931 
L 379.312527 295.488 
L 379.438991 287.145931 
L 379.629592 295.488 
L 379.752443 287.145931 
L 379.943043 295.488 
L 380.066798 287.145931 
L 380.256495 295.488 
L 380.383863 287.145931 
L 380.574463 295.488 
L 380.695508 287.145931 
L 380.886108 295.488 
L 381.010766 287.145931 
L 381.201366 295.488 
L 381.332347 287.145931 
L 381.522948 295.488 
L 381.653929 287.145931 
L 381.844529 295.488 
L 381.969187 287.145931 
L 382.159787 295.488 
L 382.289865 287.145931 
L 382.480465 295.488 
L 382.610543 287.145931 
L 382.801144 295.488 
L 382.931221 287.145931 
L 383.121822 295.488 
L 383.24377 287.145931 
L 383.43437 295.488 
L 383.560835 287.145931 
L 383.874286 278.803862 
L 384.064886 295.488 
L 384.191351 287.145931 
L 384.381951 295.488 
L 384.509319 287.145931 
L 384.699919 295.488 
L 384.822771 287.145931 
L 385.013371 295.488 
L 385.143449 287.145931 
L 385.333146 295.488 
L 385.463224 287.145931 
L 385.653824 295.488 
L 385.777579 287.145931 
L 385.968179 295.488 
L 386.100063 287.145931 
L 386.290664 295.488 
L 386.418032 287.145931 
L 386.608632 295.488 
L 386.728773 287.145931 
L 386.919374 295.488 
L 387.044032 287.145931 
L 387.234632 295.488 
L 387.363806 287.145931 
L 387.677258 278.803862 
L 387.867858 295.488 
L 387.990709 287.145931 
L 388.18131 295.488 
L 388.299644 287.145931 
L 388.490245 295.488 
L 388.614903 287.145931 
L 388.805503 295.488 
L 388.936484 287.145931 
L 389.127084 295.488 
L 389.258969 287.145931 
L 389.449569 295.488 
L 389.569711 287.145931 
L 389.760311 295.488 
L 389.889485 287.145931 
L 390.079182 295.488 
L 390.208357 287.145931 
L 390.398957 295.488 
L 390.521808 287.145931 
L 390.712409 295.488 
L 390.83255 287.145931 
L 391.02315 295.488 
L 391.152325 287.145931 
L 391.342925 295.488 
L 391.467583 287.145931 
L 391.658183 295.488 
L 391.781938 287.145931 
L 391.972538 295.488 
L 392.101713 287.145931 
L 392.29141 295.488 
L 392.412455 287.145931 
L 392.603055 295.488 
L 392.729519 287.145931 
L 392.92012 295.488 
L 393.042068 287.145931 
L 393.232668 295.488 
L 393.361842 287.145931 
L 393.552443 295.488 
L 393.675294 287.145931 
L 393.865894 295.488 
L 393.986036 287.145931 
L 394.176636 295.488 
L 394.306714 287.145931 
L 394.497314 295.488 
L 394.621972 287.145931 
L 394.812572 295.488 
L 394.943553 287.145931 
L 395.264232 278.803862 
L 395.454832 295.488 
L 395.581296 287.145931 
L 395.771897 295.488 
L 395.896555 287.145931 
L 396.087155 295.488 
L 396.207296 287.145931 
L 396.397897 295.488 
L 396.520748 287.145931 
L 396.839619 278.803862 
L 397.03022 295.488 
L 397.159394 287.145931 
L 397.349994 295.488 
L 397.474652 287.145931 
L 397.665253 295.488 
L 397.792621 287.145931 
L 397.983221 295.488 
L 398.111492 287.145931 
L 398.425847 278.803862 
L 398.487273 287.145931 
L 398.487273 287.145931 
" clip-path="url(#pd4016f66f5)" style="fill: none; stroke: #1f77b4; stroke-width: 1.5; stroke-linecap: square"/>
   </g>
   <g id="patch_3">
    <path d="M 57.6 307.584 
L 57.6 41.472 
" style="fill: none; stroke: #000000; stroke-width: 0.8; stroke-linejoin: miter; stroke-linecap: square"/>
   </g>
   <g id="patch_4">
    <path d="M 414.72 307.584 
L 414.72 41.472 
" style="fill: none; stroke: #000000; stroke-width: 0.8; stroke-linejoin: miter; stroke-linecap: square"/>
   </g>
   <g id="patch_5">
    <path d="M 57.6 307.584 
L 414.72 307.584 
" style="fill: none; stroke: #000000; stroke-width: 0.8; stroke-linejoin: miter; stroke-linecap: square"/>
   </g>
   <g id="patch_6">
    <path d="M 57.6 41.472 
L 414.72 41.472 
" style="fill: none; stroke: #000000; stroke-width: 0.8; stroke-linejoin: miter; stroke-linecap: square"/>
   </g>
   <g id="text_17">
    <!-- Queue size (y-axis) between S3 and sensors that follow at a time (x-axis). -->
    <g transform="translate(14.282813 35.472) scale(0.12 -0.12)">
     <defs>
      <path id="DejaVuSans-51" d="M 2522 4238 
Q 1834 4238 1429 3725 
Q 1025 3213 1025 2328 
Q 1025 1447 1429 934 
Q 1834 422 2522 422 
Q 3209 422 3611 934 
Q 4013 1447 4013 2328 
Q 4013 3213 3611 3725 
Q 3209 4238 2522 4238 
z
M 3406 84 
L 4238 -825 
L 3475 -825 
L 2784 -78 
Q 2681 -84 2626 -87 
Q 2572 -91 2522 -91 
Q 1538 -91 948 567 
Q 359 1225 359 2328 
Q 359 3434 948 4092 
Q 1538 4750 2522 4750 
Q 3503 4750 4090 4092 
Q 4678 3434 4678 2328 
Q 4678 1516 4351 937 
Q 4025 359 3406 84 
z
" transform="scale(0.015625)"/>
      <path id="DejaVuSans-75" d="M 544 1381 
L 544 3500 
L 1119 3500 
L 1119 1403 
Q 1119 906 1312 657 
Q 1506 409 1894 409 
Q 2359 409 2629 706 
Q 2900 1003 2900 1516 
L 2900 3500 
L 3475 3500 
L 3475 0 
L 2900 0 
L 2900 538 
Q 2691 219 2414 64 
Q 2138 -91 1772 -91 
Q 1169 -91 856 284 
Q 544 659 544 1381 
z
M 1991 3584 
L 1991 3584 
z
" transform="scale(0.015625)"/>
      <path id="DejaVuSans-20" transform="scale(0.015625)"/>
      <path id="DejaVuSans-73" d="M 2834 3397 
L 2834 2853 
Q 2591 2978 2328 3040 
Q 2066 3103 1784 3103 
Q 1356 3103 1142 2972 
Q 928 2841 928 2578 
Q 928 2378 1081 2264 
Q 1234 2150 1697 2047 
L 1894 2003 
Q 2506 1872 2764 1633 
Q 3022 1394 3022 966 
Q 3022 478 2636 193 
Q 2250 -91 1575 -91 
Q 1294 -91 989 -36 
Q 684 19 347 128 
L 347 722 
Q 666 556 975 473 
Q 1284 391 1588 391 
Q 1994 391 2212 530 
Q 2431 669 2431 922 
Q 2431 1156 2273 1281 
Q 2116 1406 1581 1522 
L 1381 1569 
Q 847 1681 609 1914 
Q 372 2147 372 2553 
Q 372 3047 722 3315 
Q 1072 3584 1716 3584 
Q 2034 3584 2315 3537 
Q 2597 3491 2834 3397 
z
" transform="scale(0.015625)"/>
      <path id="DejaVuSans-69" d="M 603 3500 
L 1178 3500 
L 1178 0 
L 603 0 
L 603 3500 
z
M 603 4863 
L 1178 4863 
L 1178 4134 
L 603 4134 
L 603 4863 
z
" transform="scale(0.015625)"/>
      <path id="DejaVuSans-7a" d="M 353 3500 
L 3084 3500 
L 3084 2975 
L 922 459 
L 3084 459 
L 3084 0 
L 275 0 
L 275 525 
L 2438 3041 
L 353 3041 
L 353 3500 
z
" transform="scale(0.015625)"/>
      <path id="DejaVuSans-28" d="M 1984 4856 
Q 1566 4138 1362 3434 
Q 1159 2731 1159 2009 
Q 1159 1288 1364 580 
Q 1569 -128 1984 -844 
L 1484 -844 
Q 1016 -109 783 600 
Q 550 1309 550 2009 
Q 550 2706 781 3412 
Q 1013 4119 1484 4856 
L 1984 4856 
z
" transform="scale(0.015625)"/>
      <path id="DejaVuSans-79" d="M 2059 -325 
Q 1816 -950 1584 -1140 
Q 1353 -1331 966 -1331 
L 506 -1331 
L 506 -850 
L 844 -850 
Q 1081 -850 1212 -737 
Q 1344 -625 1503 -206 
L 1606 56 
L 191 3500 
L 800 3500 
L 1894 763 
L 2988 3500 
L 3597 3500 
L 2059 -325 
z
" transform="scale(0.015625)"/>
      <path id="DejaVuSans-2d" d="M 313 2009 
L 1997 2009 
L 1997 1497 
L 313 1497 
L 313 2009 
z
" transform="scale(0.015625)"/>
      <path id="DejaVuSans-61" d="M 2194 1759 
Q 1497 1759 1228 1600 
Q 959 1441 959 1056 
Q 959 750 1161 570 
Q 1363 391 1709 391 
Q 2188 391 2477 730 
Q 2766 1069 2766 1631 
L 2766 1759 
L 2194 1759 
z
M 3341 1997 
L 3341 0 
L 2766 0 
L 2766 531 
Q 2569 213 2275 61 
Q 1981 -91 1556 -91 
Q 1019 -91 701 211 
Q 384 513 384 1019 
Q 384 1609 779 1909 
Q 1175 2209 1959 2209 
L 2766 2209 
L 2766 2266 
Q 2766 2663 2505 2880 
Q 2244 3097 1772 3097 
Q 1472 3097 1187 3025 
Q 903 2953 641 2809 
L 641 3341 
Q 956 3463 1253 3523 
Q 1550 3584 1831 3584 
Q 2591 3584 2966 3190 
Q 3341 2797 3341 1997 
z
" transform="scale(0.015625)"/>
      <path id="DejaVuSans-78" d="M 3513 3500 
L 2247 1797 
L 3578 0 
L 2900 0 
L 1881 1375 
L 863 0 
L 184 0 
L 1544 1831 
L 300 3500 
L 978 3500 
L 1906 2253 
L 2834 3500 
L 3513 3500 
z
" transform="scale(0.015625)"/>
      <path id="DejaVuSans-29" d="M 513 4856 
L 1013 4856 
Q 1481 4119 1714 3412 
Q 1947 2706 1947 2009 
Q 1947 1309 1714 600 
Q 1481 -109 1013 -844 
L 513 -844 
Q 928 -128 1133 580 
Q 1338 1288 1338 2009 
Q 1338 2731 1133 3434 
Q 928 4138 513 4856 
z
" transform="scale(0.015625)"/>
      <path id="DejaVuSans-62" d="M 3116 1747 
Q 3116 2381 2855 2742 
Q 2594 3103 2138 3103 
Q 1681 3103 1420 2742 
Q 1159 2381 1159 1747 
Q 1159 1113 1420 752 
Q 1681 391 2138 391 
Q 2594 391 2855 752 
Q 3116 1113 3116 1747 
z
M 1159 2969 
Q 1341 3281 1617 3432 
Q 1894 3584 2278 3584 
Q 2916 3584 3314 3078 
Q 3713 2572 3713 1747 
Q 3713 922 3314 415 
Q 2916 -91 2278 -91 
Q 1894 -91 1617 61 
Q 1341 213 1159 525 
L 1159 0 
L 581 0 
L 581 4863 
L 1159 4863 
L 1159 2969 
z
" transform="scale(0.015625)"/>
      <path id="DejaVuSans-74" d="M 1172 4494 
L 1172 3500 
L 2356 3500 
L 2356 3053 
L 1172 3053 
L 1172 1153 
Q 1172 725 1289 603 
Q 1406 481 1766 481 
L 2356 481 
L 2356 0 
L 1766 0 
Q 1100 0 847 248 
Q 594 497 594 1153 
L 594 3053 
L 172 3053 
L 172 3500 
L 594 3500 
L 594 4494 
L 1172 4494 
z
" transform="scale(0.015625)"/>
      <path id="DejaVuSans-77" d="M 269 3500 
L 844 3500 
L 1563 769 
L 2278 3500 
L 2956 3500 
L 3675 769 
L 4391 3500 
L 4966 3500 
L 4050 0 
L 3372 0 
L 2619 2869 
L 1863 0 
L 1184 0 
L 269 3500 
z
" transform="scale(0.015625)"/>
      <path id="DejaVuSans-6e" d="M 3513 2113 
L 3513 0 
L 2938 0 
L 2938 2094 
Q 2938 2591 2744 2837 
Q 2550 3084 2163 3084 
Q 1697 3084 1428 2787 
Q 1159 2491 1159 1978 
L 1159 0 
L 581 0 
L 581 3500 
L 1159 3500 
L 1159 2956 
Q 1366 3272 1645 3428 
Q 1925 3584 2291 3584 
Q 2894 3584 3203 3211 
Q 3513 2838 3513 2113 
z
" transform="scale(0.015625)"/>
      <path id="DejaVuSans-53" d="M 3425 4513 
L 3425 3897 
Q 3066 4069 2747 4153 
Q 2428 4238 2131 4238 
Q 1616 4238 1336 4038 
Q 1056 3838 1056 3469 
Q 1056 3159 1242 3001 
Q 1428 2844 1947 2747 
L 2328 2669 
Q 3034 2534 3370 2195 
Q 3706 1856 3706 1288 
Q 3706 609 3251 259 
Q 2797 -91 1919 -91 
Q 1588 -91 1214 -16 
Q 841 59 441 206 
L 441 856 
Q 825 641 1194 531 
Q 1563 422 1919 422 
Q 2459 422 2753 634 
Q 3047 847 3047 1241 
Q 3047 1584 2836 1778 
Q 2625 1972 2144 2069 
L 1759 2144 
Q 1053 2284 737 2584 
Q 422 2884 422 3419 
Q 422 4038 858 4394 
Q 1294 4750 2059 4750 
Q 2388 4750 2728 4690 
Q 3069 4631 3425 4513 
z
" transform="scale(0.015625)"/>
      <path id="DejaVuSans-64" d="M 2906 2969 
L 2906 4863 
L 3481 4863 
L 3481 0 
L 2906 0 
L 2906 525 
Q 2725 213 2448 61 
Q 2172 -91 1784 -91 
Q 1150 -91 751 415 
Q 353 922 353 1747 
Q 353 2572 751 3078 
Q 1150 3584 1784 3584 
Q 2172 3584 2448 3432 
Q 2725 3281 2906 2969 
z
M 947 1747 
Q 947 1113 1208 752 
Q 1469 391 1925 391 
Q 2381 391 2643 752 
Q 2906 1113 2906 1747 
Q 2906 2381 2643 2742 
Q 2381 3103 1925 3103 
Q 1469 3103 1208 2742 
Q 947 2381 947 1747 
z
" transform="scale(0.015625)"/>
      <path id="DejaVuSans-6f" d="M 1959 3097 
Q 1497 3097 1228 2736 
Q 959 2375 959 1747 
Q 959 1119 1226 758 
Q 1494 397 1959 397 
Q 2419 397 2687 759 
Q 2956 1122 2956 1747 
Q 2956 2369 2687 2733 
Q 2419 3097 1959 3097 
z
M 1959 3584 
Q 2709 3584 3137 3096 
Q 3566 2609 3566 1747 
Q 3566 888 3137 398 
Q 2709 -91 1959 -91 
Q 1206 -91 779 398 
Q 353 888 353 1747 
Q 353 2609 779 3096 
Q 1206 3584 1959 3584 
z
" transform="scale(0.015625)"/>
      <path id="DejaVuSans-72" d="M 2631 2963 
Q 2534 3019 2420 3045 
Q 2306 3072 2169 3072 
Q 1681 3072 1420 2755 
Q 1159 2438 1159 1844 
L 1159 0 
L 581 0 
L 581 3500 
L 1159 3500 
L 1159 2956 
Q 1341 3275 1631 3429 
Q 1922 3584 2338 3584 
Q 2397 3584 2469 3576 
Q 2541 3569 2628 3553 
L 2631 2963 
z
" transform="scale(0.015625)"/>
      <path id="DejaVuSans-68" d="M 3513 2113 
L 3513 0 
L 2938 0 
L 2938 2094 
Q 2938 2591 2744 2837 
Q 2550 3084 2163 3084 
Q 1697 3084 1428 2787 
Q 1159 2491 1159 1978 
L 1159 0 
L 581 0 
L 581 4863 
L 1159 4863 
L 1159 2956 
Q 1366 3272 1645 3428 
Q 1925 3584 2291 3584 
Q 2894 3584 3203 3211 
Q 3513 2838 3513 2113 
z
" transform="scale(0.015625)"/>
      <path id="DejaVuSans-66" d="M 2375 4863 
L 2375 4384 
L 1825 4384 
Q 1516 4384 1395 4259 
Q 1275 4134 1275 3809 
L 1275 3500 
L 2222 3500 
L 2222 3053 
L 1275 3053 
L 1275 0 
L 697 0 
L 697 3053 
L 147 3053 
L 147 3500 
L 697 3500 
L 697 3744 
Q 697 4328 969 4595 
Q 1241 4863 1831 4863 
L 2375 4863 
z
" transform="scale(0.015625)"/>
      <path id="DejaVuSans-6c" d="M 603 4863 
L 1178 4863 
L 1178 0 
L 603 0 
L 603 4863 
z
" transform="scale(0.015625)"/>
      <path id="DejaVuSans-6d" d="M 3328 2828 
Q 3544 3216 3844 3400 
Q 4144 3584 4550 3584 
Q 5097 3584 5394 3201 
Q 5691 2819 5691 2113 
L 5691 0 
L 5113 0 
L 5113 2094 
Q 5113 2597 4934 2840 
Q 4756 3084 4391 3084 
Q 3944 3084 3684 2787 
Q 3425 2491 3425 1978 
L 3425 0 
L 2847 0 
L 2847 2094 
Q 2847 2600 2669 2842 
Q 2491 3084 2119 3084 
Q 1678 3084 1418 2786 
Q 1159 2488 1159 1978 
L 1159 0 
L 581 0 
L 581 3500 
L 1159 3500 
L 1159 2956 
Q 1356 3278 1631 3431 
Q 1906 3584 2284 3584 
Q 2666 3584 2933 3390 
Q 3200 3197 3328 2828 
z
" transform="scale(0.015625)"/>
     </defs>
     <use xlink:href="#DejaVuSans-51"/>
     <use xlink:href="#DejaVuSans-75" x="78.710938"/>
     <use xlink:href="#DejaVuSans-65" x="142.089844"/>
     <use xlink:href="#DejaVuSans-75" x="203.613281"/>
     <use xlink:href="#DejaVuSans-65" x="266.992188"/>
     <use xlink:href="#DejaVuSans-20" x="328.515625"/>
     <use xlink:href="#DejaVuSans-73" x="360.302734"/>
     <use xlink:href="#DejaVuSans-69" x="412.402344"/>
     <use xlink:href="#DejaVuSans-7a" x="440.185547"/>
     <use xlink:href="#DejaVuSans-65" x="492.675781"/>
     <use xlink:href="#DejaVuSans-20" x="554.199219"/>
     <use xlink:href="#DejaVuSans-28" x="585.986328"/>
     <use xlink:href="#DejaVuSans-79" x="625"/>
     <use xlink:href="#DejaVuSans-2d" x="682.429688"/>
     <use xlink:href="#DejaVuSans-61" x="718.513672"/>
     <use xlink:href="#DejaVuSans-78" x="779.792969"/>
     <use xlink:href="#DejaVuSans-69" x="838.972656"/>
     <use xlink:href="#DejaVuSans-73" x="866.755859"/>
     <use xlink:href="#DejaVuSans-29" x="918.855469"/>
     <use xlink:href="#DejaVuSans-20" x="957.869141"/>
     <use xlink:href="#DejaVuSans-62" x="989.65625"/>
     <use xlink:href="#DejaVuSans-65" x="1053.132812"/>
     <use xlink:href="#DejaVuSans-74" x="1114.65625"/>
     <use xlink:href="#DejaVuSans-77" x="1153.865234"/>
     <use xlink:href="#DejaVuSans-65" x="1235.652344"/>
     <use xlink:href="#DejaVuSans-65" x="1297.175781"/>
     <use xlink:href="#DejaVuSans-6e" x="1358.699219"/>
     <use xlink:href="#DejaVuSans-20" x="1422.078125"/>
     <use xlink:href="#DejaVuSans-53" x="1453.865234"/>
     <use xlink:href="#DejaVuSans-33" x="1517.341797"/>
     <use xlink:href="#DejaVuSans-20" x="1580.964844"/>
     <use xlink:href="#DejaVuSans-61" x="1612.751953"/>
     <use xlink:href="#DejaVuSans-6e" x="1674.03125"/>
     <use xlink:href="#DejaVuSans-64" x="1737.410156"/>
     <use xlink:href="#DejaVuSans-20" x="1800.886719"/>
     <use xlink:href="#DejaVuSans-73" x="1832.673828"/>
     <use xlink:href="#DejaVuSans-65" x="1884.773438"/>
     <use xlink:href="#DejaVuSans-6e" x="1946.296875"/>
     <use xlink:href="#DejaVuSans-73" x="2009.675781"/>
     <use xlink:href="#DejaVuSans-6f" x="2061.775391"/>
     <use xlink:href="#DejaVuSans-72" x="2122.957031"/>
     <use xlink:href="#DejaVuSans-73" x="2164.070312"/>
     <use xlink:href="#DejaVuSans-20" x="2216.169922"/>
     <use xlink:href="#DejaVuSans-74" x="2247.957031"/>
     <use xlink:href="#DejaVuSans-68" x="2287.166016"/>
     <use xlink:href="#DejaVuSans-61" x="2350.544922"/>
     <use xlink:href="#DejaVuSans-74" x="2411.824219"/>
     <use xlink:href="#DejaVuSans-20" x="2451.033203"/>
     <use xlink:href="#DejaVuSans-66" x="2482.820312"/>
     <use xlink:href="#DejaVuSans-6f" x="2518.025391"/>
     <use xlink:href="#DejaVuSans-6c" x="2579.207031"/>
     <use xlink:href="#DejaVuSans-6c" x="2606.990234"/>
     <use xlink:href="#DejaVuSans-6f" x="2634.773438"/>
     <use xlink:href="#DejaVuSans-77" x="2695.955078"/>
     <use xlink:href="#DejaVuSans-20" x="2777.742188"/>
     <use xlink:href="#DejaVuSans-61" x="2809.529297"/>
     <use xlink:href="#DejaVuSans-74" x="2870.808594"/>
     <use xlink:href="#DejaVuSans-20" x="2910.017578"/>
     <use xlink:href="#DejaVuSans-61" x="2941.804688"/>
     <use xlink:href="#DejaVuSans-20" x="3003.083984"/>
     <use xlink:href="#DejaVuSans-74" x="3034.871094"/>
     <use xlink:href="#DejaVuSans-69" x="3074.080078"/>
     <use xlink:href="#DejaVuSans-6d" x="3101.863281"/>
     <use xlink:href="#DejaVuSans-65" x="3199.275391"/>
     <use xlink:href="#DejaVuSans-20" x="3260.798828"/>
     <use xlink:href="#DejaVuSans-28" x="3292.585938"/>
     <use xlink:href="#DejaVuSans-78" x="3331.599609"/>
     <use xlink:href="#DejaVuSans-2d" x="3390.779297"/>
     <use xlink:href="#DejaVuSans-61" x="3426.863281"/>
     <use xlink:href="#DejaVuSans-78" x="3488.142578"/>
     <use xlink:href="#DejaVuSans-69" x="3547.322266"/>
     <use xlink:href="#DejaVuSans-73" x="3575.105469"/>
     <use xlink:href="#DejaVuSans-29" x="3627.205078"/>
     <use xlink:href="#DejaVuSans-2e" x="3666.21875"/>
    </g>
   </g>
  </g>
 </g>
 <defs>
  <clipPath id="pd4016f66f5">
   <rect x="57.6" y="41.472" width="357.12" height="266.112"/>
  </clipPath>
 </defs>
</svg>
