<?xml version="1.0" encoding="utf-8" standalone="no"?>
<!DOCTYPE svg PUBLIC "-//W3C//DTD SVG 1.1//EN"
  "http://www.w3.org/Graphics/SVG/1.1/DTD/svg11.dtd">
<svg xmlns:xlink="http://www.w3.org/1999/xlink" width="460.8pt" height="345.6pt" viewBox="0 0 460.8 345.6" xmlns="http://www.w3.org/2000/svg" version="1.1">
 <metadata>
  <rdf:RDF xmlns:dc="http://purl.org/dc/elements/1.1/" xmlns:cc="http://creativecommons.org/ns#" xmlns:rdf="http://www.w3.org/1999/02/22-rdf-syntax-ns#">
   <cc:Work>
    <dc:type rdf:resource="http://purl.org/dc/dcmitype/StillImage"/>
    <dc:date>2024-03-08T11:56:01.126299</dc:date>
    <dc:format>image/svg+xml</dc:format>
    <dc:creator>
     <cc:Agent>
      <dc:title>Matplotlib v3.8.2, https://matplotlib.org/</dc:title>
     </cc:Agent>
    </dc:creator>
   </cc:Work>
  </rdf:RDF>
 </metadata>
 <defs>
  <style type="text/css">*{stroke-linejoin: round; stroke-linecap: butt}</style>
 </defs>
 <g id="figure_1">
  <g id="patch_1">
   <path d="M 0 345.6 
L 460.8 345.6 
L 460.8 0 
L 0 0 
z
" style="fill: #ffffff"/>
  </g>
  <g id="axes_1">
   <g id="patch_2">
    <path d="M 57.6 307.584 
L 414.72 307.584 
L 414.72 41.472 
L 57.6 41.472 
z
" style="fill: #ffffff"/>
   </g>
   <g id="matplotlib.axis_1">
    <g id="xtick_1">
     <g id="line2d_1">
      <defs>
       <path id="m6bd5685cb7" d="M 0 0 
L 0 3.5 
" style="stroke: #000000; stroke-width: 0.8"/>
      </defs>
      <g>
       <use xlink:href="#m6bd5685cb7" x="73.137536" y="307.584" style="stroke: #000000; stroke-width: 0.8"/>
      </g>
     </g>
     <g id="text_1">
      <!-- 0.0 -->
      <g transform="translate(65.185973 322.182437) scale(0.1 -0.1)">
       <defs>
        <path id="DejaVuSans-30" d="M 2034 4250 
Q 1547 4250 1301 3770 
Q 1056 3291 1056 2328 
Q 1056 1369 1301 889 
Q 1547 409 2034 409 
Q 2525 409 2770 889 
Q 3016 1369 3016 2328 
Q 3016 3291 2770 3770 
Q 2525 4250 2034 4250 
z
M 2034 4750 
Q 2819 4750 3233 4129 
Q 3647 3509 3647 2328 
Q 3647 1150 3233 529 
Q 2819 -91 2034 -91 
Q 1250 -91 836 529 
Q 422 1150 422 2328 
Q 422 3509 836 4129 
Q 1250 4750 2034 4750 
z
" transform="scale(0.015625)"/>
        <path id="DejaVuSans-2e" d="M 684 794 
L 1344 794 
L 1344 0 
L 684 0 
L 684 794 
z
" transform="scale(0.015625)"/>
       </defs>
       <use xlink:href="#DejaVuSans-30"/>
       <use xlink:href="#DejaVuSans-2e" x="63.623047"/>
       <use xlink:href="#DejaVuSans-30" x="95.410156"/>
      </g>
     </g>
    </g>
    <g id="xtick_2">
     <g id="line2d_2">
      <g>
       <use xlink:href="#m6bd5685cb7" x="118.338559" y="307.584" style="stroke: #000000; stroke-width: 0.8"/>
      </g>
     </g>
     <g id="text_2">
      <!-- 0.5 -->
      <g transform="translate(110.386997 322.182437) scale(0.1 -0.1)">
       <defs>
        <path id="DejaVuSans-35" d="M 691 4666 
L 3169 4666 
L 3169 4134 
L 1269 4134 
L 1269 2991 
Q 1406 3038 1543 3061 
Q 1681 3084 1819 3084 
Q 2600 3084 3056 2656 
Q 3513 2228 3513 1497 
Q 3513 744 3044 326 
Q 2575 -91 1722 -91 
Q 1428 -91 1123 -41 
Q 819 9 494 109 
L 494 744 
Q 775 591 1075 516 
Q 1375 441 1709 441 
Q 2250 441 2565 725 
Q 2881 1009 2881 1497 
Q 2881 1984 2565 2268 
Q 2250 2553 1709 2553 
Q 1456 2553 1204 2497 
Q 953 2441 691 2322 
L 691 4666 
z
" transform="scale(0.015625)"/>
       </defs>
       <use xlink:href="#DejaVuSans-30"/>
       <use xlink:href="#DejaVuSans-2e" x="63.623047"/>
       <use xlink:href="#DejaVuSans-35" x="95.410156"/>
      </g>
     </g>
    </g>
    <g id="xtick_3">
     <g id="line2d_3">
      <g>
       <use xlink:href="#m6bd5685cb7" x="163.539583" y="307.584" style="stroke: #000000; stroke-width: 0.8"/>
      </g>
     </g>
     <g id="text_3">
      <!-- 1.0 -->
      <g transform="translate(155.588021 322.182437) scale(0.1 -0.1)">
       <defs>
        <path id="DejaVuSans-31" d="M 794 531 
L 1825 531 
L 1825 4091 
L 703 3866 
L 703 4441 
L 1819 4666 
L 2450 4666 
L 2450 531 
L 3481 531 
L 3481 0 
L 794 0 
L 794 531 
z
" transform="scale(0.015625)"/>
       </defs>
       <use xlink:href="#DejaVuSans-31"/>
       <use xlink:href="#DejaVuSans-2e" x="63.623047"/>
       <use xlink:href="#DejaVuSans-30" x="95.410156"/>
      </g>
     </g>
    </g>
    <g id="xtick_4">
     <g id="line2d_4">
      <g>
       <use xlink:href="#m6bd5685cb7" x="208.740607" y="307.584" style="stroke: #000000; stroke-width: 0.8"/>
      </g>
     </g>
     <g id="text_4">
      <!-- 1.5 -->
      <g transform="translate(200.789044 322.182437) scale(0.1 -0.1)">
       <use xlink:href="#DejaVuSans-31"/>
       <use xlink:href="#DejaVuSans-2e" x="63.623047"/>
       <use xlink:href="#DejaVuSans-35" x="95.410156"/>
      </g>
     </g>
    </g>
    <g id="xtick_5">
     <g id="line2d_5">
      <g>
       <use xlink:href="#m6bd5685cb7" x="253.941631" y="307.584" style="stroke: #000000; stroke-width: 0.8"/>
      </g>
     </g>
     <g id="text_5">
      <!-- 2.0 -->
      <g transform="translate(245.990068 322.182437) scale(0.1 -0.1)">
       <defs>
        <path id="DejaVuSans-32" d="M 1228 531 
L 3431 531 
L 3431 0 
L 469 0 
L 469 531 
Q 828 903 1448 1529 
Q 2069 2156 2228 2338 
Q 2531 2678 2651 2914 
Q 2772 3150 2772 3378 
Q 2772 3750 2511 3984 
Q 2250 4219 1831 4219 
Q 1534 4219 1204 4116 
Q 875 4013 500 3803 
L 500 4441 
Q 881 4594 1212 4672 
Q 1544 4750 1819 4750 
Q 2544 4750 2975 4387 
Q 3406 4025 3406 3419 
Q 3406 3131 3298 2873 
Q 3191 2616 2906 2266 
Q 2828 2175 2409 1742 
Q 1991 1309 1228 531 
z
" transform="scale(0.015625)"/>
       </defs>
       <use xlink:href="#DejaVuSans-32"/>
       <use xlink:href="#DejaVuSans-2e" x="63.623047"/>
       <use xlink:href="#DejaVuSans-30" x="95.410156"/>
      </g>
     </g>
    </g>
    <g id="xtick_6">
     <g id="line2d_6">
      <g>
       <use xlink:href="#m6bd5685cb7" x="299.142655" y="307.584" style="stroke: #000000; stroke-width: 0.8"/>
      </g>
     </g>
     <g id="text_6">
      <!-- 2.5 -->
      <g transform="translate(291.191092 322.182437) scale(0.1 -0.1)">
       <use xlink:href="#DejaVuSans-32"/>
       <use xlink:href="#DejaVuSans-2e" x="63.623047"/>
       <use xlink:href="#DejaVuSans-35" x="95.410156"/>
      </g>
     </g>
    </g>
    <g id="xtick_7">
     <g id="line2d_7">
      <g>
       <use xlink:href="#m6bd5685cb7" x="344.343678" y="307.584" style="stroke: #000000; stroke-width: 0.8"/>
      </g>
     </g>
     <g id="text_7">
      <!-- 3.0 -->
      <g transform="translate(336.392116 322.182437) scale(0.1 -0.1)">
       <defs>
        <path id="DejaVuSans-33" d="M 2597 2516 
Q 3050 2419 3304 2112 
Q 3559 1806 3559 1356 
Q 3559 666 3084 287 
Q 2609 -91 1734 -91 
Q 1441 -91 1130 -33 
Q 819 25 488 141 
L 488 750 
Q 750 597 1062 519 
Q 1375 441 1716 441 
Q 2309 441 2620 675 
Q 2931 909 2931 1356 
Q 2931 1769 2642 2001 
Q 2353 2234 1838 2234 
L 1294 2234 
L 1294 2753 
L 1863 2753 
Q 2328 2753 2575 2939 
Q 2822 3125 2822 3475 
Q 2822 3834 2567 4026 
Q 2313 4219 1838 4219 
Q 1578 4219 1281 4162 
Q 984 4106 628 3988 
L 628 4550 
Q 988 4650 1302 4700 
Q 1616 4750 1894 4750 
Q 2613 4750 3031 4423 
Q 3450 4097 3450 3541 
Q 3450 3153 3228 2886 
Q 3006 2619 2597 2516 
z
" transform="scale(0.015625)"/>
       </defs>
       <use xlink:href="#DejaVuSans-33"/>
       <use xlink:href="#DejaVuSans-2e" x="63.623047"/>
       <use xlink:href="#DejaVuSans-30" x="95.410156"/>
      </g>
     </g>
    </g>
    <g id="xtick_8">
     <g id="line2d_8">
      <g>
       <use xlink:href="#m6bd5685cb7" x="389.544702" y="307.584" style="stroke: #000000; stroke-width: 0.8"/>
      </g>
     </g>
     <g id="text_8">
      <!-- 3.5 -->
      <g transform="translate(381.59314 322.182437) scale(0.1 -0.1)">
       <use xlink:href="#DejaVuSans-33"/>
       <use xlink:href="#DejaVuSans-2e" x="63.623047"/>
       <use xlink:href="#DejaVuSans-35" x="95.410156"/>
      </g>
     </g>
    </g>
    <g id="text_9">
     <!-- 1e6 -->
     <g transform="translate(395.841875 334.860562) scale(0.1 -0.1)">
      <defs>
       <path id="DejaVuSans-65" d="M 3597 1894 
L 3597 1613 
L 953 1613 
Q 991 1019 1311 708 
Q 1631 397 2203 397 
Q 2534 397 2845 478 
Q 3156 559 3463 722 
L 3463 178 
Q 3153 47 2828 -22 
Q 2503 -91 2169 -91 
Q 1331 -91 842 396 
Q 353 884 353 1716 
Q 353 2575 817 3079 
Q 1281 3584 2069 3584 
Q 2775 3584 3186 3129 
Q 3597 2675 3597 1894 
z
M 3022 2063 
Q 3016 2534 2758 2815 
Q 2500 3097 2075 3097 
Q 1594 3097 1305 2825 
Q 1016 2553 972 2059 
L 3022 2063 
z
" transform="scale(0.015625)"/>
       <path id="DejaVuSans-36" d="M 2113 2584 
Q 1688 2584 1439 2293 
Q 1191 2003 1191 1497 
Q 1191 994 1439 701 
Q 1688 409 2113 409 
Q 2538 409 2786 701 
Q 3034 994 3034 1497 
Q 3034 2003 2786 2293 
Q 2538 2584 2113 2584 
z
M 3366 4563 
L 3366 3988 
Q 3128 4100 2886 4159 
Q 2644 4219 2406 4219 
Q 1781 4219 1451 3797 
Q 1122 3375 1075 2522 
Q 1259 2794 1537 2939 
Q 1816 3084 2150 3084 
Q 2853 3084 3261 2657 
Q 3669 2231 3669 1497 
Q 3669 778 3244 343 
Q 2819 -91 2113 -91 
Q 1303 -91 875 529 
Q 447 1150 447 2328 
Q 447 3434 972 4092 
Q 1497 4750 2381 4750 
Q 2619 4750 2861 4703 
Q 3103 4656 3366 4563 
z
" transform="scale(0.015625)"/>
      </defs>
      <use xlink:href="#DejaVuSans-31"/>
      <use xlink:href="#DejaVuSans-65" x="63.623047"/>
      <use xlink:href="#DejaVuSans-36" x="125.146484"/>
     </g>
    </g>
   </g>
   <g id="matplotlib.axis_2">
    <g id="ytick_1">
     <g id="line2d_9">
      <defs>
       <path id="m3146919edc" d="M 0 0 
L -3.5 0 
" style="stroke: #000000; stroke-width: 0.8"/>
      </defs>
      <g>
       <use xlink:href="#m3146919edc" x="57.6" y="295.488" style="stroke: #000000; stroke-width: 0.8"/>
      </g>
     </g>
     <g id="text_10">
      <!-- 0 -->
      <g transform="translate(44.2375 299.287219) scale(0.1 -0.1)">
       <use xlink:href="#DejaVuSans-30"/>
      </g>
     </g>
    </g>
    <g id="ytick_2">
     <g id="line2d_10">
      <g>
       <use xlink:href="#m3146919edc" x="57.6" y="241.728" style="stroke: #000000; stroke-width: 0.8"/>
      </g>
     </g>
     <g id="text_11">
      <!-- 10 -->
      <g transform="translate(37.875 245.527219) scale(0.1 -0.1)">
       <use xlink:href="#DejaVuSans-31"/>
       <use xlink:href="#DejaVuSans-30" x="63.623047"/>
      </g>
     </g>
    </g>
    <g id="ytick_3">
     <g id="line2d_11">
      <g>
       <use xlink:href="#m3146919edc" x="57.6" y="187.968" style="stroke: #000000; stroke-width: 0.8"/>
      </g>
     </g>
     <g id="text_12">
      <!-- 20 -->
      <g transform="translate(37.875 191.767219) scale(0.1 -0.1)">
       <use xlink:href="#DejaVuSans-32"/>
       <use xlink:href="#DejaVuSans-30" x="63.623047"/>
      </g>
     </g>
    </g>
    <g id="ytick_4">
     <g id="line2d_12">
      <g>
       <use xlink:href="#m3146919edc" x="57.6" y="134.208" style="stroke: #000000; stroke-width: 0.8"/>
      </g>
     </g>
     <g id="text_13">
      <!-- 30 -->
      <g transform="translate(37.875 138.007219) scale(0.1 -0.1)">
       <use xlink:href="#DejaVuSans-33"/>
       <use xlink:href="#DejaVuSans-30" x="63.623047"/>
      </g>
     </g>
    </g>
    <g id="ytick_5">
     <g id="line2d_13">
      <g>
       <use xlink:href="#m3146919edc" x="57.6" y="80.448" style="stroke: #000000; stroke-width: 0.8"/>
      </g>
     </g>
     <g id="text_14">
      <!-- 40 -->
      <g transform="translate(37.875 84.247219) scale(0.1 -0.1)">
       <defs>
        <path id="DejaVuSans-34" d="M 2419 4116 
L 825 1625 
L 2419 1625 
L 2419 4116 
z
M 2253 4666 
L 3047 4666 
L 3047 1625 
L 3713 1625 
L 3713 1100 
L 3047 1100 
L 3047 0 
L 2419 0 
L 2419 1100 
L 313 1100 
L 313 1709 
L 2253 4666 
z
" transform="scale(0.015625)"/>
       </defs>
       <use xlink:href="#DejaVuSans-34"/>
       <use xlink:href="#DejaVuSans-30" x="63.623047"/>
      </g>
     </g>
    </g>
   </g>
   <g id="line2d_14">
    <path d="M 73.832727 290.112 
L 75.101068 268.608 
L 75.302665 273.984 
L 75.415667 268.608 
L 75.618168 273.984 
L 75.730266 268.608 
L 75.932767 273.984 
L 76.043961 268.608 
L 76.24827 273.984 
L 76.365793 268.608 
L 76.570101 273.984 
L 76.684008 268.608 
L 76.885604 273.984 
L 77.001319 268.608 
L 77.1993 273.984 
L 77.31863 268.608 
L 77.513899 273.984 
L 77.637749 268.608 
L 77.834826 273.984 
L 77.957773 268.608 
L 78.153945 273.984 
L 78.277796 268.608 
L 78.470352 273.984 
L 78.589683 268.608 
L 78.787664 273.984 
L 80.058716 295.488 
L 84.398919 290.112 
L 84.649332 241.728 
L 85.548833 225.6 
L 85.86072 220.224 
L 86.004459 252.48 
L 86.118366 273.984 
L 86.179839 268.608 
L 86.393188 273.984 
L 86.495342 268.608 
L 86.701459 273.984 
L 86.810845 268.608 
L 87.017866 273.984 
L 87.131772 268.608 
L 87.329753 273.984 
L 87.450892 268.608 
L 87.648872 273.984 
L 87.767299 268.608 
L 87.964375 273.984 
L 88.086418 268.608 
L 88.280783 273.984 
L 88.401921 268.608 
L 88.600806 273.984 
L 88.719232 268.608 
L 88.920829 273.984 
L 89.029311 268.608 
L 89.236332 273.984 
L 89.345719 268.608 
L 89.556355 273.984 
L 89.660318 268.608 
L 89.870955 273.984 
L 89.972205 268.608 
L 90.188266 273.984 
L 90.293132 268.608 
L 90.498345 273.984 
L 90.602307 268.608 
L 90.814752 273.984 
L 90.916002 268.608 
L 91.129351 273.984 
L 91.233313 268.608 
L 91.442142 273.984 
L 91.556953 268.608 
L 91.763069 273.984 
L 91.871552 268.608 
L 92.07134 273.984 
L 92.184343 268.608 
L 92.38594 273.984 
L 92.495326 268.608 
L 92.702347 273.984 
L 92.809925 268.608 
L 93.025986 273.984 
L 93.125428 268.608 
L 93.340585 273.984 
L 93.436411 268.608 
L 93.653376 273.984 
L 93.751914 268.608 
L 93.964359 273.984 
L 94.071034 268.608 
L 94.278958 273.984 
L 94.390153 268.608 
L 94.594462 273.984 
L 94.703848 268.608 
L 94.906349 273.984 
L 95.023871 268.608 
L 95.220948 273.984 
L 95.339374 268.608 
L 95.540067 273.984 
L 95.658494 268.608 
L 95.859186 273.984 
L 95.971285 268.608 
L 96.172881 273.984 
L 96.290404 268.608 
L 96.492905 273.984 
L 96.610427 268.608 
L 96.808408 273.984 
L 96.92141 268.608 
L 97.127527 273.984 
L 97.235105 268.608 
L 97.441222 273.984 
L 97.550608 268.608 
L 97.759437 273.984 
L 98.080364 279.36 
L 98.182519 273.984 
L 98.391348 279.36 
L 98.491694 273.984 
L 98.704139 279.36 
L 98.814429 273.984 
L 99.019642 279.36 
L 99.138068 273.984 
L 99.458996 268.608 
L 99.651552 273.984 
L 99.780827 268.608 
L 99.960727 273.984 
L 100.095426 268.608 
L 100.283462 273.984 
L 100.411833 268.608 
L 100.607102 273.984 
L 100.928933 279.36 
L 101.050976 273.984 
L 101.250764 279.36 
L 101.370095 273.984 
L 101.564459 279.36 
L 101.681078 273.984 
L 101.880867 279.36 
L 101.990253 273.984 
L 102.307564 268.608 
L 102.520009 273.984 
L 102.622163 268.608 
L 102.839128 273.984 
L 102.946707 268.608 
L 103.150111 273.984 
L 103.26221 268.608 
L 103.459286 273.984 
L 103.581329 268.608 
L 103.776598 273.984 
L 103.896832 268.608 
L 104.091197 273.984 
L 104.217759 268.608 
L 104.41574 273.984 
L 104.533263 268.608 
L 104.732147 273.984 
L 104.846054 268.608 
L 105.050362 273.984 
L 105.165173 268.608 
L 105.36677 273.984 
L 105.484292 268.608 
L 105.686793 273.984 
L 105.798891 268.608 
L 106.0032 273.984 
L 106.118915 268.608 
L 106.315087 273.984 
L 106.438034 268.608 
L 106.634206 273.984 
L 106.757153 268.608 
L 106.953325 273.984 
L 107.07356 268.608 
L 107.267925 273.984 
L 107.385447 268.608 
L 107.587948 273.984 
L 107.70095 268.608 
L 107.907067 273.984 
L 108.02007 268.608 
L 108.22709 273.984 
L 108.333765 268.608 
L 108.542593 273.984 
L 108.646556 268.608 
L 108.855385 273.984 
L 108.958443 268.608 
L 109.169984 273.984 
L 109.276658 268.608 
L 109.490007 273.984 
L 109.590353 268.608 
L 109.802798 273.984 
L 109.909472 268.608 
L 110.115589 273.984 
L 110.228592 268.608 
L 110.427476 273.984 
L 111.059386 284.736 
L 111.121764 279.36 
L 111.344153 273.984 
L 111.37941 279.36 
L 111.571966 273.984 
L 111.697625 279.36 
L 111.795259 273.984 
L 112.465138 257.856 
L 112.592605 263.232 
L 112.688431 257.856 
L 112.814994 263.232 
L 112.91082 257.856 
L 113.043711 263.232 
L 113.134113 257.856 
L 113.267004 263.232 
L 113.365543 257.856 
L 113.491202 263.232 
L 113.592452 257.856 
L 113.715399 263.232 
L 113.822977 257.856 
L 113.93598 263.232 
L 114.048982 257.856 
L 114.159273 263.232 
L 114.278603 257.856 
L 114.381662 263.232 
L 114.508225 257.856 
L 114.605859 263.232 
L 114.733326 257.856 
L 114.836384 263.232 
L 114.960235 257.856 
L 115.064197 263.232 
L 115.18624 257.856 
L 115.293818 263.232 
L 115.414053 257.856 
L 115.520728 263.232 
L 115.640962 257.856 
L 115.750349 263.232 
L 115.865159 257.856 
L 115.979066 263.232 
L 116.091164 257.856 
L 116.205071 263.232 
L 116.32169 257.856 
L 116.431076 263.232 
L 127.39142 257.856 
L 127.505327 263.232 
L 127.604769 230.976 
L 127.717772 187.968 
L 127.734044 193.344 
L 127.923888 187.968 
L 128.09294 134.208 
L 128.18515 139.584 
L 128.283689 134.208 
L 128.410251 139.584 
L 128.506078 134.208 
L 128.640777 139.584 
L 128.729371 134.208 
L 128.863166 139.584 
L 128.955376 134.208 
L 129.036738 150.336 
L 129.188613 204.096 
L 129.395634 209.472 
L 129.50502 241.728 
L 129.632487 236.352 
L 129.703001 257.856 
L 129.8603 252.48 
L 130.060993 257.856 
L 130.079977 263.232 
L 130.09173 257.856 
L 130.201116 263.232 
L 130.316831 257.856 
L 130.426217 263.232 
L 130.545548 257.856 
L 130.655838 263.232 
L 130.773361 257.856 
L 130.882747 263.232 
L 131.00027 257.856 
L 131.104232 263.232 
L 131.226275 257.856 
L 131.332046 263.232 
L 131.445952 257.856 
L 131.562571 263.232 
L 131.675573 257.856 
L 131.788576 263.232 
L 131.897962 257.856 
L 132.017293 263.232 
L 132.12216 257.856 
L 132.244202 263.232 
L 132.351781 257.856 
L 132.472015 263.232 
L 132.57869 257.856 
L 132.698021 263.232 
L 132.807407 257.856 
L 132.917698 263.232 
L 133.0307 257.856 
L 133.146415 263.232 
L 133.255801 257.856 
L 133.368804 263.232 
L 133.481806 257.856 
L 133.593001 263.232 
L 133.706907 257.856 
L 133.822622 263.232 
L 133.929296 257.856 
L 134.050435 263.232 
L 134.149877 257.856 
L 134.278248 263.232 
L 134.379499 257.856 
L 134.502445 263.232 
L 134.600984 257.856 
L 134.727547 263.232 
L 134.826085 257.856 
L 134.953552 263.232 
L 135.049378 257.856 
L 135.178653 263.232 
L 135.274479 257.856 
L 135.401042 263.232 
L 135.49958 257.856 
L 135.621623 263.232 
L 135.721065 257.856 
L 135.85034 263.232 
L 135.946166 257.856 
L 136.071825 263.232 
L 136.172171 257.856 
L 136.29783 263.232 
L 136.395464 257.856 
L 136.521123 263.232 
L 136.619661 257.856 
L 136.746224 263.232 
L 136.844763 257.856 
L 136.971325 263.232 
L 137.06896 257.856 
L 137.19281 263.232 
L 137.298581 257.856 
L 137.417911 263.232 
L 137.526394 257.856 
L 137.643013 263.232 
L 137.750591 257.856 
L 137.866306 263.232 
L 137.972076 257.856 
L 138.091407 263.232 
L 138.201697 257.856 
L 138.315604 263.232 
L 138.430414 257.856 
L 138.540705 263.232 
L 138.655516 257.856 
L 138.770326 263.232 
L 138.879713 257.856 
L 138.997235 263.232 
L 139.110238 257.856 
L 139.222336 263.232 
L 139.336243 257.856 
L 139.443821 263.232 
L 139.557728 257.856 
L 139.672539 263.232 
L 139.786445 257.856 
L 139.90216 263.232 
L 140.009738 257.856 
L 140.127261 263.232 
L 140.238455 257.856 
L 140.351458 263.232 
L 140.45994 257.856 
L 140.581983 263.232 
L 140.682329 257.856 
L 140.807988 263.232 
L 140.911951 257.856 
L 141.028569 263.232 
L 141.141572 257.856 
L 141.25819 263.232 
L 141.366673 257.856 
L 141.481484 263.232 
L 141.597198 257.856 
L 141.709297 263.232 
L 141.825011 257.856 
L 141.930782 263.232 
L 142.048304 257.856 
L 142.153171 263.232 
L 142.274309 257.856 
L 142.382792 263.232 
L 142.495794 257.856 
L 142.613317 263.232 
L 142.72632 257.856 
L 142.837514 263.232 
L 142.952325 257.856 
L 143.068943 263.232 
L 143.179234 257.856 
L 143.295853 263.232 
L 143.408855 257.856 
L 143.52005 263.232 
L 143.633052 257.856 
L 149.082488 252.48 
L 149.264196 187.968 
L 149.622188 198.72 
L 150.528016 220.224 
L 150.662715 268.608 
L 150.735941 295.488 
L 165.36028 290.112 
L 165.506732 284.736 
L 165.675784 220.224 
L 166.832026 225.6 
L 166.978477 230.976 
L 167.146625 295.488 
L 176.208526 290.112 
L 176.354977 284.736 
L 176.535782 214.848 
L 176.743706 209.472 
L 176.92451 139.584 
L 177.308719 128.832 
L 177.532012 123.456 
L 177.680271 128.832 
L 177.758017 123.456 
L 177.839379 134.208 
L 178.006623 193.344 
L 178.201891 187.968 
L 178.30947 230.976 
L 178.426992 225.6 
L 178.50293 247.104 
L 178.65571 241.728 
L 178.828377 247.104 
L 178.873578 263.232 
L 178.884427 257.856 
L 179.111336 252.48 
L 179.453056 263.232 
L 179.563346 257.856 
L 179.673637 263.232 
L 179.787543 257.856 
L 179.897834 263.232 
L 180.01174 257.856 
L 180.126551 263.232 
L 180.232321 257.856 
L 180.355268 263.232 
L 180.461942 257.856 
L 180.582177 263.232 
L 180.691564 257.856 
L 180.808182 263.232 
L 180.915761 257.856 
L 181.035091 263.232 
L 181.144478 257.856 
L 181.258384 263.232 
L 181.371387 257.856 
L 181.483486 263.232 
L 181.591968 257.856 
L 181.704067 263.232 
L 181.817069 257.856 
L 181.932784 263.232 
L 182.04669 257.856 
L 182.163309 263.232 
L 182.270887 257.856 
L 182.387506 263.232 
L 182.497797 257.856 
L 182.615319 263.232 
L 182.726514 257.856 
L 182.842228 263.232 
L 182.947999 257.856 
L 183.062809 263.232 
L 183.176716 257.856 
L 183.288814 263.232 
L 183.517532 268.608 
L 183.626014 263.232 
L 183.741729 268.608 
L 183.969542 273.984 
L 184.075312 268.608 
L 184.198259 273.984 
L 184.295893 268.608 
L 184.419744 273.984 
L 184.52009 268.608 
L 184.648461 273.984 
L 184.739767 268.608 
L 184.96758 263.232 
L 185.097759 268.608 
L 185.190874 263.232 
L 185.410551 257.856 
L 185.547058 263.232 
L 185.635652 257.856 
L 185.767639 263.232 
L 185.865273 257.856 
L 185.991836 263.232 
L 186.088566 257.856 
L 186.211513 263.232 
L 186.311859 257.856 
L 186.439326 263.232 
L 186.537864 257.856 
L 186.662619 263.232 
L 186.765677 257.856 
L 186.882296 263.232 
L 186.992586 257.856 
L 187.107397 263.232 
L 187.2204 257.856 
L 187.337018 263.232 
L 187.449117 257.856 
L 187.559407 263.232 
L 187.676026 257.856 
L 187.7827 263.232 
L 187.901127 257.856 
L 188.008705 263.232 
L 188.12442 257.856 
L 188.237423 263.232 
L 188.349521 257.856 
L 188.464332 263.232 
L 188.58095 257.856 
L 188.691241 263.232 
L 188.799723 257.856 
L 189.147771 268.608 
L 190.271469 295.488 
L 190.79128 284.736 
L 191.744118 268.608 
L 191.948427 273.984 
L 192.055101 268.608 
L 192.260314 273.984 
L 192.376932 268.608 
L 192.576721 273.984 
L 192.690627 268.608 
L 192.897648 273.984 
L 193.006131 268.608 
L 193.213151 273.984 
L 193.328866 268.608 
L 193.524134 273.984 
L 193.638945 268.608 
L 193.84687 273.984 
L 193.951736 268.608 
L 194.160565 273.984 
L 194.270855 268.608 
L 194.475164 273.984 
L 194.586358 268.608 
L 194.797899 273.984 
L 194.907286 268.608 
L 195.107978 273.984 
L 195.227309 268.608 
L 195.421673 273.984 
L 195.546428 268.608 
L 195.740793 273.984 
L 195.861027 268.608 
L 196.055392 273.984 
L 196.179242 268.608 
L 196.377223 273.984 
L 196.493842 268.608 
L 196.696342 273.984 
L 196.803921 268.608 
L 197.015461 273.984 
L 197.114904 268.608 
L 197.33006 273.984 
L 197.425887 268.608 
L 197.648276 273.984 
L 197.739582 268.608 
L 197.963779 273.984 
L 198.051469 268.608 
L 198.583937 279.36 
L 199.520502 295.488 
L 203.977323 290.112 
L 204.202424 247.104 
L 204.377804 241.728 
L 205.326122 225.6 
L 205.475285 236.352 
L 205.637105 268.608 
L 205.638009 263.232 
L 205.820621 268.608 
L 205.854974 273.984 
L 205.951704 268.608 
L 206.162341 273.984 
L 206.272631 268.608 
L 206.480556 273.984 
L 206.588134 268.608 
L 206.796059 273.984 
L 206.905445 268.608 
L 207.107946 273.984 
L 207.21914 268.608 
L 207.420737 273.984 
L 207.537356 268.608 
L 207.741664 273.984 
L 207.852859 268.608 
L 208.058071 273.984 
L 208.166554 268.608 
L 208.374479 273.984 
L 208.478441 268.608 
L 208.689078 273.984 
L 208.801176 268.608 
L 209.006389 273.984 
L 210.27021 295.488 
L 214.577867 290.112 
L 214.828281 241.728 
L 215.821799 225.6 
L 216.047804 230.976 
L 216.297314 273.984 
L 216.434725 268.608 
L 216.641746 273.984 
L 216.75294 268.608 
L 216.964481 273.984 
L 217.079292 268.608 
L 217.290833 273.984 
L 217.389371 268.608 
L 217.596392 273.984 
L 217.702162 268.608 
L 217.903758 273.984 
L 218.027609 268.608 
L 218.222878 273.984 
L 218.344016 268.608 
L 218.549229 273.984 
L 218.656808 268.608 
L 218.858404 273.984 
L 218.979543 268.608 
L 219.172099 273.984 
L 219.301374 268.608 
L 219.496643 273.984 
L 219.621397 268.608 
L 219.81305 273.984 
L 220.125841 279.36 
L 220.248788 273.984 
L 220.448576 279.36 
L 220.560675 273.984 
L 220.771311 279.36 
L 220.871658 273.984 
L 221.090431 279.36 
L 221.188065 273.984 
L 221.512608 268.608 
L 221.717821 273.984 
L 221.83444 268.608 
L 222.029708 273.984 
L 222.148135 268.608 
L 222.340691 273.984 
L 222.464542 268.608 
L 222.657098 273.984 
L 222.787277 268.608 
L 222.982546 273.984 
L 223.103684 268.608 
L 223.304377 273.984 
L 223.422804 268.608 
L 223.617168 273.984 
L 223.734691 268.608 
L 223.934479 273.984 
L 224.040249 268.608 
L 224.257214 273.984 
L 224.360273 268.608 
L 224.572718 273.984 
L 224.673064 268.608 
L 224.891837 273.984 
L 224.993087 268.608 
L 235.871165 263.232 
L 236.068242 230.976 
L 236.25899 225.6 
L 236.357528 182.592 
L 236.659471 171.84 
L 236.677552 177.216 
L 236.839371 171.84 
L 236.990343 177.216 
L 237.018367 171.84 
L 237.198268 166.464 
L 237.341103 177.216 
L 237.537275 209.472 
L 237.557164 204.096 
L 237.730736 209.472 
L 237.737064 204.096 
L 237.801249 230.976 
L 237.833794 247.104 
L 237.919676 241.728 
L 238.065223 247.104 
L 238.131217 252.48 
L 238.278572 247.104 
L 238.310213 252.48 
L 238.461184 247.104 
L 238.490113 252.48 
L 238.638372 247.104 
L 238.670013 252.48 
L 238.81556 247.104 
L 238.850817 252.48 
L 238.996364 247.104 
L 239.028909 252.48 
L 239.177168 247.104 
L 239.208809 252.48 
L 239.354356 247.104 
L 239.391421 252.48 
L 239.53516 247.104 
L 239.571321 252.48 
L 239.714157 247.104 
L 239.750317 252.48 
L 239.897673 247.104 
L 239.932929 252.48 
L 240.075765 247.104 
L 240.110117 252.48 
L 240.261089 247.104 
L 240.287305 252.48 
L 240.441893 247.104 
L 240.46811 252.48 
L 240.621793 247.104 
L 240.648914 252.48 
L 240.799885 247.104 
L 240.826102 252.48 
L 240.977073 247.104 
L 241.006906 252.48 
L 241.162397 247.104 
L 241.185902 252.48 
L 241.342297 247.104 
L 241.369418 252.48 
L 241.527622 247.104 
L 241.54751 252.48 
L 241.711138 247.104 
L 241.732834 252.48 
L 241.896462 247.104 
L 241.913638 252.48 
L 242.081786 247.104 
L 242.093538 252.48 
L 242.264398 247.104 
L 242.270726 252.48 
L 242.444298 247.104 
L 242.448818 252.48 
L 242.625102 247.104 
L 242.634143 252.48 
L 242.805003 247.104 
L 242.814043 252.48 
L 242.983095 247.104 
L 242.999367 252.48 
L 243.166611 247.104 
L 243.182883 252.48 
L 243.350127 247.104 
L 243.368207 252.48 
L 243.532739 247.104 
L 243.553531 252.48 
L 243.712639 247.104 
L 243.736144 252.48 
L 243.893443 247.104 
L 243.916044 252.48 
L 244.074247 247.104 
L 244.096848 252.48 
L 244.255051 247.104 
L 244.275844 252.48 
L 244.434047 247.104 
L 244.45484 252.48 
L 244.615756 247.104 
L 244.637452 252.48 
L 244.793848 247.104 
L 244.821872 252.48 
L 244.972844 247.104 
L 245.004484 252.48 
L 245.184384 257.856 
L 245.33174 252.48 
L 245.364284 257.856 
L 245.508024 252.48 
L 245.545993 257.856 
L 245.688828 252.48 
L 245.726797 257.856 
L 245.86692 252.48 
L 245.905793 257.856 
L 246.045916 252.48 
L 246.087501 257.856 
L 246.22672 252.48 
L 246.265593 257.856 
L 246.41114 252.48 
L 246.444589 257.856 
L 246.772748 247.104 
L 246.803485 252.48 
L 246.955361 247.104 
L 246.979769 252.48 
L 247.139781 247.104 
L 247.160573 252.48 
L 247.320585 247.104 
L 247.338665 252.48 
L 247.505909 247.104 
L 247.516757 252.48 
L 247.682193 247.104 
L 247.697561 252.48 
L 247.863901 247.104 
L 247.882886 252.48 
L 248.042897 247.104 
L 248.062786 252.48 
L 248.219181 247.104 
L 248.244494 252.48 
L 248.400889 247.104 
L 248.427106 252.48 
L 248.580789 247.104 
L 248.611526 252.48 
L 248.762497 247.104 
L 248.79233 252.48 
L 248.941494 247.104 
L 248.977654 252.48 
L 249.126818 247.104 
L 249.153938 252.48 
L 249.30491 247.104 
L 249.335646 252.48 
L 249.48933 247.104 
L 249.514642 252.48 
L 249.668326 247.104 
L 249.690926 252.48 
L 249.851842 247.104 
L 249.872635 252.48 
L 250.031742 247.104 
L 250.052535 252.48 
L 250.210738 247.104 
L 250.233339 252.48 
L 250.391542 247.104 
L 250.413239 252.48 
L 250.57325 247.104 
L 250.598563 252.48 
L 250.754055 247.104 
L 250.775751 252.48 
L 250.933955 247.104 
L 250.961075 252.48 
L 251.117471 247.104 
L 251.140071 252.48 
L 251.300987 247.104 
L 251.323587 252.48 
L 251.479983 247.104 
L 251.503488 252.48 
L 251.658979 247.104 
L 251.68158 252.48 
L 251.837071 247.104 
L 251.862384 252.48 
L 252.018779 247.104 
L 252.044996 252.48 
L 252.198679 247.104 
L 252.2258 252.48 
L 252.4057 257.856 
L 252.56752 252.48 
L 252.589216 257.856 
L 252.746516 252.48 
L 252.772732 257.856 
L 252.923704 252.48 
L 252.951728 257.856 
L 253.105412 252.48 
L 253.130724 257.856 
L 253.286216 252.48 
L 253.307912 257.856 
L 253.466116 252.48 
L 253.490525 257.856 
L 253.64692 252.48 
L 253.670425 257.856 
L 254.00672 247.104 
L 254.039265 252.48 
L 254.19114 247.104 
L 254.218261 252.48 
L 254.36652 247.104 
L 254.395449 252.48 
L 254.548228 247.104 
L 254.577157 252.48 
L 254.726321 247.104 
L 254.757057 252.48 
L 254.904413 247.104 
L 254.936957 252.48 
L 255.081601 247.104 
L 255.118665 252.48 
L 255.259693 247.104 
L 255.29947 252.48 
L 255.443209 247.104 
L 255.478466 252.48 
L 255.622205 247.104 
L 255.661982 252.48 
L 255.802105 247.104 
L 255.838266 252.48 
L 255.979293 247.104 
L 256.019974 252.48 
L 256.155577 247.104 
L 256.198066 252.48 
L 256.335477 247.104 
L 256.376158 252.48 
L 256.512665 247.104 
L 256.553346 252.48 
L 256.690757 247.104 
L 256.731438 252.48 
L 256.871561 247.104 
L 256.914954 252.48 
L 257.052365 247.104 
L 257.09395 252.48 
L 257.228649 247.104 
L 257.27385 252.48 
L 257.408549 247.104 
L 257.450134 252.48 
L 279.265956 247.104 
L 279.323814 252.48 
L 279.41964 241.728 
L 279.598636 161.088 
L 279.680902 166.464 
L 279.801136 155.712 
L 280.021717 53.568 
L 280.039798 58.944 
L 280.220602 64.32 
L 280.396886 64.32 
L 280.576786 69.696 
L 280.581306 64.32 
L 280.736798 69.696 
L 280.758494 64.32 
L 280.881441 69.696 
L 281.069477 155.712 
L 281.122814 150.336 
L 281.26565 155.712 
L 281.337971 187.968 
L 281.487135 182.592 
L 281.527816 204.096 
L 281.853263 193.344 
L 281.933721 209.472 
L 281.944569 214.848 
L 282.030451 209.472 
L 282.213063 204.096 
L 282.307081 214.848 
L 282.339626 230.976 
L 282.395675 225.6 
L 282.578287 220.224 
L 282.699426 230.976 
L 282.721123 241.728 
L 282.759995 236.352 
L 282.938088 230.976 
L 283.087251 236.352 
L 283.108043 247.104 
L 283.114372 241.728 
L 283.472364 230.976 
L 283.500388 247.104 
L 283.847532 257.856 
L 283.867421 263.232 
L 284.050033 268.608 
L 284.19558 263.232 
L 284.280558 268.608 
L 284.376384 263.232 
L 284.409833 268.608 
L 284.558996 263.232 
L 284.585213 268.608 
L 284.736184 263.232 
L 284.765113 268.608 
L 284.920604 263.232 
L 284.944109 268.608 
L 285.640205 247.104 
L 285.667325 252.48 
L 285.821009 247.104 
L 285.848129 252.48 
L 286.000005 247.104 
L 286.030742 252.48 
L 286.177193 247.104 
L 286.20793 252.48 
L 286.39235 257.856 
L 286.536089 252.48 
L 286.574058 257.856 
L 286.715989 252.48 
L 286.755766 257.856 
L 286.893177 252.48 
L 286.934762 257.856 
L 287.073981 252.48 
L 287.11195 257.856 
L 287.255689 252.48 
L 287.292754 257.856 
L 287.436493 252.48 
L 287.47175 257.856 
L 287.617298 252.48 
L 287.648938 257.856 
L 287.97529 247.104 
L 288.007834 252.48 
L 288.156998 247.104 
L 288.187734 252.48 
L 288.335994 247.104 
L 288.364922 252.48 
L 288.514086 247.104 
L 288.545727 252.48 
L 288.693986 247.104 
L 288.727435 252.48 
L 288.873886 247.104 
L 288.908239 252.48 
L 289.057402 247.104 
L 289.089043 252.48 
L 289.235494 247.104 
L 289.269847 252.48 
L 289.415394 247.104 
L 289.447035 252.48 
L 289.592582 247.104 
L 289.628743 252.48 
L 289.773386 247.104 
L 289.806835 252.48 
L 289.951478 247.104 
L 289.984927 252.48 
L 295.537421 247.104 
L 295.58895 252.48 
L 295.695624 241.728 
L 295.861964 166.464 
L 295.95327 171.84 
L 296.11509 155.712 
L 296.131362 161.088 
L 296.292278 155.712 
L 296.310358 161.088 
L 296.473986 155.712 
L 296.48845 161.088 
L 296.655694 155.712 
L 296.669255 161.088 
L 296.836498 155.712 
L 296.847347 161.088 
L 297.009166 166.464 
L 297.016398 161.088 
L 297.157426 166.464 
L 297.33371 247.104 
L 297.372582 241.728 
L 297.586835 252.48 
L 297.732383 247.104 
L 297.764023 252.48 
L 297.913187 247.104 
L 297.945731 252.48 
L 298.093087 247.104 
L 298.12744 252.48 
L 298.274795 247.104 
L 298.30734 252.48 
L 298.460119 247.104 
L 298.488144 252.48 
L 298.641827 247.104 
L 298.666236 252.48 
L 298.826247 247.104 
L 298.844328 252.48 
L 299.007956 247.104 
L 299.02242 252.48 
L 299.191472 247.104 
L 299.204128 252.48 
L 299.375892 247.104 
L 299.384932 252.48 
L 299.551272 247.104 
L 299.564832 252.48 
L 299.732076 247.104 
L 299.74654 252.48 
L 299.911072 247.104 
L 299.931864 252.48 
L 300.090972 247.104 
L 300.113573 252.48 
L 300.269064 247.104 
L 300.297993 252.48 
L 300.455292 247.104 
L 300.478797 252.48 
L 300.637904 247.104 
L 300.663217 252.48 
L 300.817805 247.104 
L 300.847637 252.48 
L 300.998609 247.104 
L 301.023017 252.48 
L 301.182125 247.104 
L 301.203821 252.48 
L 301.363833 247.104 
L 301.382817 252.48 
L 301.546445 247.104 
L 301.562717 252.48 
L 301.729057 247.104 
L 301.740809 252.48 
L 301.912573 247.104 
L 301.927038 252.48 
L 302.095185 247.104 
L 302.10965 252.48 
L 302.277798 247.104 
L 302.28955 252.48 
L 302.457698 247.104 
L 302.46945 252.48 
L 302.636694 247.104 
L 302.65387 252.48 
L 302.81569 247.104 
L 302.835578 252.48 
L 302.99107 247.104 
L 303.01819 252.48 
L 303.168258 247.104 
L 303.200802 252.48 
L 303.352678 247.104 
L 303.383415 252.48 
L 303.532578 247.104 
L 303.566931 252.48 
L 303.713382 247.104 
L 303.749543 252.48 
L 303.894186 247.104 
L 303.929443 252.48 
L 304.074086 247.104 
L 304.108439 252.48 
L 304.253082 247.104 
L 304.287435 252.48 
L 304.435694 247.104 
L 304.462815 252.48 
L 304.617403 247.104 
L 304.640003 252.48 
L 304.797303 247.104 
L 304.823519 252.48 
L 304.979011 247.104 
L 305.004323 252.48 
L 305.162527 247.104 
L 305.185127 252.48 
L 305.344235 247.104 
L 305.365932 252.48 
L 305.519615 247.104 
L 305.544928 252.48 
L 305.696803 247.104 
L 305.724828 252.48 
L 305.878511 247.104 
L 305.906536 252.48 
L 306.062027 247.104 
L 306.089148 252.48 
L 306.238311 247.104 
L 306.269048 252.48 
L 306.419115 247.104 
L 306.450756 252.48 
L 306.599015 247.104 
L 306.634272 252.48 
L 306.783436 247.104 
L 306.81598 252.48 
L 306.95972 247.104 
L 306.99136 252.48 
L 307.14414 247.104 
L 307.168548 252.48 
L 307.32404 247.104 
L 307.350256 252.48 
L 307.50846 247.104 
L 307.533773 252.48 
L 307.685648 247.104 
L 307.710057 252.48 
L 307.867356 247.104 
L 307.890861 252.48 
L 308.045448 247.104 
L 308.070761 252.48 
L 308.224444 247.104 
L 308.255181 252.48 
L 308.404344 247.104 
L 308.431465 252.48 
L 308.582436 247.104 
L 308.615885 252.48 
L 308.765049 247.104 
L 308.795785 252.48 
L 308.948565 247.104 
L 308.980205 252.48 
L 309.123945 247.104 
L 309.157393 252.48 
L 309.307461 247.104 
L 309.339102 252.48 
L 309.486457 247.104 
L 309.517194 252.48 
L 309.667261 247.104 
L 309.69619 252.48 
L 309.848969 247.104 
L 309.87609 252.48 
L 310.029773 247.104 
L 310.054182 252.48 
L 310.213289 247.104 
L 310.236794 252.48 
L 310.392285 247.104 
L 310.42031 252.48 
L 310.576706 247.104 
L 310.59569 252.48 
L 310.753894 247.104 
L 310.779206 252.48 
L 310.939218 247.104 
L 310.958202 252.48 
L 311.120022 247.104 
L 311.139006 252.48 
L 312.591767 295.488 
L 317.64705 290.112 
L 317.892943 284.736 
L 319.116987 290.112 
L 319.361977 295.488 
L 321.185386 290.112 
L 321.499985 284.736 
L 322.654419 290.112 
L 322.969922 295.488 
L 370.231209 290.112 
L 371.480565 268.608 
L 372.009417 279.36 
L 372.949598 295.488 
L 377.313305 290.112 
L 377.552871 257.856 
L 378.107939 247.104 
L 378.734425 236.352 
L 379.021904 273.984 
L 379.051737 268.608 
L 379.260565 273.984 
L 379.360007 268.608 
L 379.576972 273.984 
L 379.677319 268.608 
L 379.894284 273.984 
L 379.991014 268.608 
L 380.203459 273.984 
L 380.304709 268.608 
L 380.52077 273.984 
L 380.622924 268.608 
L 380.829041 273.984 
L 380.934811 268.608 
L 381.146352 273.984 
L 381.250314 268.608 
L 381.460047 273.984 
L 381.572146 268.608 
L 381.774646 273.984 
L 381.893977 268.608 
L 382.091957 273.984 
L 382.20948 268.608 
L 382.403844 273.984 
L 382.530407 268.608 
L 382.719348 273.984 
L 382.851335 268.608 
L 383.041179 273.984 
L 383.172262 268.608 
L 383.36301 273.984 
L 383.485053 268.608 
L 383.678513 273.984 
L 383.999441 279.36 
L 384.116059 273.984 
L 384.320368 279.36 
L 384.43337 273.984 
L 384.641295 279.36 
L 384.751586 273.984 
L 384.954086 279.36 
L 385.065281 273.984 
L 385.385304 268.608 
L 385.585997 273.984 
L 385.706231 268.608 
L 385.902404 273.984 
L 386.02083 268.608 
L 386.220619 273.984 
L 386.343566 268.608 
L 386.535218 273.984 
L 386.661781 268.608 
L 386.855241 273.984 
L 386.972764 268.608 
L 387.175265 273.984 
L 387.288267 268.608 
L 387.489864 273.984 
L 387.812599 279.36 
L 387.921985 273.984 
L 388.130814 279.36 
L 388.235681 273.984 
L 388.441797 279.36 
L 388.544856 273.984 
L 388.7573 279.36 
L 388.860359 273.984 
L 389.18219 268.608 
L 389.391019 273.984 
L 389.504925 268.608 
L 389.704714 273.984 
L 389.815908 268.608 
L 390.013889 273.984 
L 390.135028 268.608 
L 390.330296 273.984 
L 390.455051 268.608 
L 390.651223 273.984 
L 390.768746 268.608 
L 390.973959 273.984 
L 391.079729 268.608 
L 391.284942 273.984 
L 391.399752 268.608 
L 391.604965 273.984 
L 391.715255 268.608 
L 391.924084 273.984 
L 392.029854 268.608 
L 392.237779 273.984 
L 392.348974 268.608 
L 392.548762 273.984 
L 392.660861 268.608 
L 392.869689 273.984 
L 392.978172 268.608 
L 393.185193 273.984 
L 393.290963 268.608 
L 393.499792 273.984 
L 393.610986 268.608 
L 393.818911 273.984 
L 393.924681 268.608 
L 394.872095 252.48 
L 395.514853 247.104 
L 396.458651 230.976 
L 397.091465 225.6 
L 397.411488 220.224 
L 397.583252 225.6 
L 397.610373 230.976 
L 397.726992 225.6 
L 397.905084 230.976 
L 397.932204 236.352 
L 398.045207 230.976 
L 398.487273 252.48 
L 398.487273 252.48 
" clip-path="url(#p33bc3869d7)" style="fill: none; stroke: #1f77b4; stroke-width: 1.5; stroke-linecap: square"/>
   </g>
   <g id="patch_3">
    <path d="M 57.6 307.584 
L 57.6 41.472 
" style="fill: none; stroke: #000000; stroke-width: 0.8; stroke-linejoin: miter; stroke-linecap: square"/>
   </g>
   <g id="patch_4">
    <path d="M 414.72 307.584 
L 414.72 41.472 
" style="fill: none; stroke: #000000; stroke-width: 0.8; stroke-linejoin: miter; stroke-linecap: square"/>
   </g>
   <g id="patch_5">
    <path d="M 57.6 307.584 
L 414.72 307.584 
" style="fill: none; stroke: #000000; stroke-width: 0.8; stroke-linejoin: miter; stroke-linecap: square"/>
   </g>
   <g id="patch_6">
    <path d="M 57.6 41.472 
L 414.72 41.472 
" style="fill: none; stroke: #000000; stroke-width: 0.8; stroke-linejoin: miter; stroke-linecap: square"/>
   </g>
   <g id="text_15">
    <!-- Queue size (y-axis) between S4 and sensors that follow at a time (x-axis). -->
    <g transform="translate(14.282813 35.472) scale(0.12 -0.12)">
     <defs>
      <path id="DejaVuSans-51" d="M 2522 4238 
Q 1834 4238 1429 3725 
Q 1025 3213 1025 2328 
Q 1025 1447 1429 934 
Q 1834 422 2522 422 
Q 3209 422 3611 934 
Q 4013 1447 4013 2328 
Q 4013 3213 3611 3725 
Q 3209 4238 2522 4238 
z
M 3406 84 
L 4238 -825 
L 3475 -825 
L 2784 -78 
Q 2681 -84 2626 -87 
Q 2572 -91 2522 -91 
Q 1538 -91 948 567 
Q 359 1225 359 2328 
Q 359 3434 948 4092 
Q 1538 4750 2522 4750 
Q 3503 4750 4090 4092 
Q 4678 3434 4678 2328 
Q 4678 1516 4351 937 
Q 4025 359 3406 84 
z
" transform="scale(0.015625)"/>
      <path id="DejaVuSans-75" d="M 544 1381 
L 544 3500 
L 1119 3500 
L 1119 1403 
Q 1119 906 1312 657 
Q 1506 409 1894 409 
Q 2359 409 2629 706 
Q 2900 1003 2900 1516 
L 2900 3500 
L 3475 3500 
L 3475 0 
L 2900 0 
L 2900 538 
Q 2691 219 2414 64 
Q 2138 -91 1772 -91 
Q 1169 -91 856 284 
Q 544 659 544 1381 
z
M 1991 3584 
L 1991 3584 
z
" transform="scale(0.015625)"/>
      <path id="DejaVuSans-20" transform="scale(0.015625)"/>
      <path id="DejaVuSans-73" d="M 2834 3397 
L 2834 2853 
Q 2591 2978 2328 3040 
Q 2066 3103 1784 3103 
Q 1356 3103 1142 2972 
Q 928 2841 928 2578 
Q 928 2378 1081 2264 
Q 1234 2150 1697 2047 
L 1894 2003 
Q 2506 1872 2764 1633 
Q 3022 1394 3022 966 
Q 3022 478 2636 193 
Q 2250 -91 1575 -91 
Q 1294 -91 989 -36 
Q 684 19 347 128 
L 347 722 
Q 666 556 975 473 
Q 1284 391 1588 391 
Q 1994 391 2212 530 
Q 2431 669 2431 922 
Q 2431 1156 2273 1281 
Q 2116 1406 1581 1522 
L 1381 1569 
Q 847 1681 609 1914 
Q 372 2147 372 2553 
Q 372 3047 722 3315 
Q 1072 3584 1716 3584 
Q 2034 3584 2315 3537 
Q 2597 3491 2834 3397 
z
" transform="scale(0.015625)"/>
      <path id="DejaVuSans-69" d="M 603 3500 
L 1178 3500 
L 1178 0 
L 603 0 
L 603 3500 
z
M 603 4863 
L 1178 4863 
L 1178 4134 
L 603 4134 
L 603 4863 
z
" transform="scale(0.015625)"/>
      <path id="DejaVuSans-7a" d="M 353 3500 
L 3084 3500 
L 3084 2975 
L 922 459 
L 3084 459 
L 3084 0 
L 275 0 
L 275 525 
L 2438 3041 
L 353 3041 
L 353 3500 
z
" transform="scale(0.015625)"/>
      <path id="DejaVuSans-28" d="M 1984 4856 
Q 1566 4138 1362 3434 
Q 1159 2731 1159 2009 
Q 1159 1288 1364 580 
Q 1569 -128 1984 -844 
L 1484 -844 
Q 1016 -109 783 600 
Q 550 1309 550 2009 
Q 550 2706 781 3412 
Q 1013 4119 1484 4856 
L 1984 4856 
z
" transform="scale(0.015625)"/>
      <path id="DejaVuSans-79" d="M 2059 -325 
Q 1816 -950 1584 -1140 
Q 1353 -1331 966 -1331 
L 506 -1331 
L 506 -850 
L 844 -850 
Q 1081 -850 1212 -737 
Q 1344 -625 1503 -206 
L 1606 56 
L 191 3500 
L 800 3500 
L 1894 763 
L 2988 3500 
L 3597 3500 
L 2059 -325 
z
" transform="scale(0.015625)"/>
      <path id="DejaVuSans-2d" d="M 313 2009 
L 1997 2009 
L 1997 1497 
L 313 1497 
L 313 2009 
z
" transform="scale(0.015625)"/>
      <path id="DejaVuSans-61" d="M 2194 1759 
Q 1497 1759 1228 1600 
Q 959 1441 959 1056 
Q 959 750 1161 570 
Q 1363 391 1709 391 
Q 2188 391 2477 730 
Q 2766 1069 2766 1631 
L 2766 1759 
L 2194 1759 
z
M 3341 1997 
L 3341 0 
L 2766 0 
L 2766 531 
Q 2569 213 2275 61 
Q 1981 -91 1556 -91 
Q 1019 -91 701 211 
Q 384 513 384 1019 
Q 384 1609 779 1909 
Q 1175 2209 1959 2209 
L 2766 2209 
L 2766 2266 
Q 2766 2663 2505 2880 
Q 2244 3097 1772 3097 
Q 1472 3097 1187 3025 
Q 903 2953 641 2809 
L 641 3341 
Q 956 3463 1253 3523 
Q 1550 3584 1831 3584 
Q 2591 3584 2966 3190 
Q 3341 2797 3341 1997 
z
" transform="scale(0.015625)"/>
      <path id="DejaVuSans-78" d="M 3513 3500 
L 2247 1797 
L 3578 0 
L 2900 0 
L 1881 1375 
L 863 0 
L 184 0 
L 1544 1831 
L 300 3500 
L 978 3500 
L 1906 2253 
L 2834 3500 
L 3513 3500 
z
" transform="scale(0.015625)"/>
      <path id="DejaVuSans-29" d="M 513 4856 
L 1013 4856 
Q 1481 4119 1714 3412 
Q 1947 2706 1947 2009 
Q 1947 1309 1714 600 
Q 1481 -109 1013 -844 
L 513 -844 
Q 928 -128 1133 580 
Q 1338 1288 1338 2009 
Q 1338 2731 1133 3434 
Q 928 4138 513 4856 
z
" transform="scale(0.015625)"/>
      <path id="DejaVuSans-62" d="M 3116 1747 
Q 3116 2381 2855 2742 
Q 2594 3103 2138 3103 
Q 1681 3103 1420 2742 
Q 1159 2381 1159 1747 
Q 1159 1113 1420 752 
Q 1681 391 2138 391 
Q 2594 391 2855 752 
Q 3116 1113 3116 1747 
z
M 1159 2969 
Q 1341 3281 1617 3432 
Q 1894 3584 2278 3584 
Q 2916 3584 3314 3078 
Q 3713 2572 3713 1747 
Q 3713 922 3314 415 
Q 2916 -91 2278 -91 
Q 1894 -91 1617 61 
Q 1341 213 1159 525 
L 1159 0 
L 581 0 
L 581 4863 
L 1159 4863 
L 1159 2969 
z
" transform="scale(0.015625)"/>
      <path id="DejaVuSans-74" d="M 1172 4494 
L 1172 3500 
L 2356 3500 
L 2356 3053 
L 1172 3053 
L 1172 1153 
Q 1172 725 1289 603 
Q 1406 481 1766 481 
L 2356 481 
L 2356 0 
L 1766 0 
Q 1100 0 847 248 
Q 594 497 594 1153 
L 594 3053 
L 172 3053 
L 172 3500 
L 594 3500 
L 594 4494 
L 1172 4494 
z
" transform="scale(0.015625)"/>
      <path id="DejaVuSans-77" d="M 269 3500 
L 844 3500 
L 1563 769 
L 2278 3500 
L 2956 3500 
L 3675 769 
L 4391 3500 
L 4966 3500 
L 4050 0 
L 3372 0 
L 2619 2869 
L 1863 0 
L 1184 0 
L 269 3500 
z
" transform="scale(0.015625)"/>
      <path id="DejaVuSans-6e" d="M 3513 2113 
L 3513 0 
L 2938 0 
L 2938 2094 
Q 2938 2591 2744 2837 
Q 2550 3084 2163 3084 
Q 1697 3084 1428 2787 
Q 1159 2491 1159 1978 
L 1159 0 
L 581 0 
L 581 3500 
L 1159 3500 
L 1159 2956 
Q 1366 3272 1645 3428 
Q 1925 3584 2291 3584 
Q 2894 3584 3203 3211 
Q 3513 2838 3513 2113 
z
" transform="scale(0.015625)"/>
      <path id="DejaVuSans-53" d="M 3425 4513 
L 3425 3897 
Q 3066 4069 2747 4153 
Q 2428 4238 2131 4238 
Q 1616 4238 1336 4038 
Q 1056 3838 1056 3469 
Q 1056 3159 1242 3001 
Q 1428 2844 1947 2747 
L 2328 2669 
Q 3034 2534 3370 2195 
Q 3706 1856 3706 1288 
Q 3706 609 3251 259 
Q 2797 -91 1919 -91 
Q 1588 -91 1214 -16 
Q 841 59 441 206 
L 441 856 
Q 825 641 1194 531 
Q 1563 422 1919 422 
Q 2459 422 2753 634 
Q 3047 847 3047 1241 
Q 3047 1584 2836 1778 
Q 2625 1972 2144 2069 
L 1759 2144 
Q 1053 2284 737 2584 
Q 422 2884 422 3419 
Q 422 4038 858 4394 
Q 1294 4750 2059 4750 
Q 2388 4750 2728 4690 
Q 3069 4631 3425 4513 
z
" transform="scale(0.015625)"/>
      <path id="DejaVuSans-64" d="M 2906 2969 
L 2906 4863 
L 3481 4863 
L 3481 0 
L 2906 0 
L 2906 525 
Q 2725 213 2448 61 
Q 2172 -91 1784 -91 
Q 1150 -91 751 415 
Q 353 922 353 1747 
Q 353 2572 751 3078 
Q 1150 3584 1784 3584 
Q 2172 3584 2448 3432 
Q 2725 3281 2906 2969 
z
M 947 1747 
Q 947 1113 1208 752 
Q 1469 391 1925 391 
Q 2381 391 2643 752 
Q 2906 1113 2906 1747 
Q 2906 2381 2643 2742 
Q 2381 3103 1925 3103 
Q 1469 3103 1208 2742 
Q 947 2381 947 1747 
z
" transform="scale(0.015625)"/>
      <path id="DejaVuSans-6f" d="M 1959 3097 
Q 1497 3097 1228 2736 
Q 959 2375 959 1747 
Q 959 1119 1226 758 
Q 1494 397 1959 397 
Q 2419 397 2687 759 
Q 2956 1122 2956 1747 
Q 2956 2369 2687 2733 
Q 2419 3097 1959 3097 
z
M 1959 3584 
Q 2709 3584 3137 3096 
Q 3566 2609 3566 1747 
Q 3566 888 3137 398 
Q 2709 -91 1959 -91 
Q 1206 -91 779 398 
Q 353 888 353 1747 
Q 353 2609 779 3096 
Q 1206 3584 1959 3584 
z
" transform="scale(0.015625)"/>
      <path id="DejaVuSans-72" d="M 2631 2963 
Q 2534 3019 2420 3045 
Q 2306 3072 2169 3072 
Q 1681 3072 1420 2755 
Q 1159 2438 1159 1844 
L 1159 0 
L 581 0 
L 581 3500 
L 1159 3500 
L 1159 2956 
Q 1341 3275 1631 3429 
Q 1922 3584 2338 3584 
Q 2397 3584 2469 3576 
Q 2541 3569 2628 3553 
L 2631 2963 
z
" transform="scale(0.015625)"/>
      <path id="DejaVuSans-68" d="M 3513 2113 
L 3513 0 
L 2938 0 
L 2938 2094 
Q 2938 2591 2744 2837 
Q 2550 3084 2163 3084 
Q 1697 3084 1428 2787 
Q 1159 2491 1159 1978 
L 1159 0 
L 581 0 
L 581 4863 
L 1159 4863 
L 1159 2956 
Q 1366 3272 1645 3428 
Q 1925 3584 2291 3584 
Q 2894 3584 3203 3211 
Q 3513 2838 3513 2113 
z
" transform="scale(0.015625)"/>
      <path id="DejaVuSans-66" d="M 2375 4863 
L 2375 4384 
L 1825 4384 
Q 1516 4384 1395 4259 
Q 1275 4134 1275 3809 
L 1275 3500 
L 2222 3500 
L 2222 3053 
L 1275 3053 
L 1275 0 
L 697 0 
L 697 3053 
L 147 3053 
L 147 3500 
L 697 3500 
L 697 3744 
Q 697 4328 969 4595 
Q 1241 4863 1831 4863 
L 2375 4863 
z
" transform="scale(0.015625)"/>
      <path id="DejaVuSans-6c" d="M 603 4863 
L 1178 4863 
L 1178 0 
L 603 0 
L 603 4863 
z
" transform="scale(0.015625)"/>
      <path id="DejaVuSans-6d" d="M 3328 2828 
Q 3544 3216 3844 3400 
Q 4144 3584 4550 3584 
Q 5097 3584 5394 3201 
Q 5691 2819 5691 2113 
L 5691 0 
L 5113 0 
L 5113 2094 
Q 5113 2597 4934 2840 
Q 4756 3084 4391 3084 
Q 3944 3084 3684 2787 
Q 3425 2491 3425 1978 
L 3425 0 
L 2847 0 
L 2847 2094 
Q 2847 2600 2669 2842 
Q 2491 3084 2119 3084 
Q 1678 3084 1418 2786 
Q 1159 2488 1159 1978 
L 1159 0 
L 581 0 
L 581 3500 
L 1159 3500 
L 1159 2956 
Q 1356 3278 1631 3431 
Q 1906 3584 2284 3584 
Q 2666 3584 2933 3390 
Q 3200 3197 3328 2828 
z
" transform="scale(0.015625)"/>
     </defs>
     <use xlink:href="#DejaVuSans-51"/>
     <use xlink:href="#DejaVuSans-75" x="78.710938"/>
     <use xlink:href="#DejaVuSans-65" x="142.089844"/>
     <use xlink:href="#DejaVuSans-75" x="203.613281"/>
     <use xlink:href="#DejaVuSans-65" x="266.992188"/>
     <use xlink:href="#DejaVuSans-20" x="328.515625"/>
     <use xlink:href="#DejaVuSans-73" x="360.302734"/>
     <use xlink:href="#DejaVuSans-69" x="412.402344"/>
     <use xlink:href="#DejaVuSans-7a" x="440.185547"/>
     <use xlink:href="#DejaVuSans-65" x="492.675781"/>
     <use xlink:href="#DejaVuSans-20" x="554.199219"/>
     <use xlink:href="#DejaVuSans-28" x="585.986328"/>
     <use xlink:href="#DejaVuSans-79" x="625"/>
     <use xlink:href="#DejaVuSans-2d" x="682.429688"/>
     <use xlink:href="#DejaVuSans-61" x="718.513672"/>
     <use xlink:href="#DejaVuSans-78" x="779.792969"/>
     <use xlink:href="#DejaVuSans-69" x="838.972656"/>
     <use xlink:href="#DejaVuSans-73" x="866.755859"/>
     <use xlink:href="#DejaVuSans-29" x="918.855469"/>
     <use xlink:href="#DejaVuSans-20" x="957.869141"/>
     <use xlink:href="#DejaVuSans-62" x="989.65625"/>
     <use xlink:href="#DejaVuSans-65" x="1053.132812"/>
     <use xlink:href="#DejaVuSans-74" x="1114.65625"/>
     <use xlink:href="#DejaVuSans-77" x="1153.865234"/>
     <use xlink:href="#DejaVuSans-65" x="1235.652344"/>
     <use xlink:href="#DejaVuSans-65" x="1297.175781"/>
     <use xlink:href="#DejaVuSans-6e" x="1358.699219"/>
     <use xlink:href="#DejaVuSans-20" x="1422.078125"/>
     <use xlink:href="#DejaVuSans-53" x="1453.865234"/>
     <use xlink:href="#DejaVuSans-34" x="1517.341797"/>
     <use xlink:href="#DejaVuSans-20" x="1580.964844"/>
     <use xlink:href="#DejaVuSans-61" x="1612.751953"/>
     <use xlink:href="#DejaVuSans-6e" x="1674.03125"/>
     <use xlink:href="#DejaVuSans-64" x="1737.410156"/>
     <use xlink:href="#DejaVuSans-20" x="1800.886719"/>
     <use xlink:href="#DejaVuSans-73" x="1832.673828"/>
     <use xlink:href="#DejaVuSans-65" x="1884.773438"/>
     <use xlink:href="#DejaVuSans-6e" x="1946.296875"/>
     <use xlink:href="#DejaVuSans-73" x="2009.675781"/>
     <use xlink:href="#DejaVuSans-6f" x="2061.775391"/>
     <use xlink:href="#DejaVuSans-72" x="2122.957031"/>
     <use xlink:href="#DejaVuSans-73" x="2164.070312"/>
     <use xlink:href="#DejaVuSans-20" x="2216.169922"/>
     <use xlink:href="#DejaVuSans-74" x="2247.957031"/>
     <use xlink:href="#DejaVuSans-68" x="2287.166016"/>
     <use xlink:href="#DejaVuSans-61" x="2350.544922"/>
     <use xlink:href="#DejaVuSans-74" x="2411.824219"/>
     <use xlink:href="#DejaVuSans-20" x="2451.033203"/>
     <use xlink:href="#DejaVuSans-66" x="2482.820312"/>
     <use xlink:href="#DejaVuSans-6f" x="2518.025391"/>
     <use xlink:href="#DejaVuSans-6c" x="2579.207031"/>
     <use xlink:href="#DejaVuSans-6c" x="2606.990234"/>
     <use xlink:href="#DejaVuSans-6f" x="2634.773438"/>
     <use xlink:href="#DejaVuSans-77" x="2695.955078"/>
     <use xlink:href="#DejaVuSans-20" x="2777.742188"/>
     <use xlink:href="#DejaVuSans-61" x="2809.529297"/>
     <use xlink:href="#DejaVuSans-74" x="2870.808594"/>
     <use xlink:href="#DejaVuSans-20" x="2910.017578"/>
     <use xlink:href="#DejaVuSans-61" x="2941.804688"/>
     <use xlink:href="#DejaVuSans-20" x="3003.083984"/>
     <use xlink:href="#DejaVuSans-74" x="3034.871094"/>
     <use xlink:href="#DejaVuSans-69" x="3074.080078"/>
     <use xlink:href="#DejaVuSans-6d" x="3101.863281"/>
     <use xlink:href="#DejaVuSans-65" x="3199.275391"/>
     <use xlink:href="#DejaVuSans-20" x="3260.798828"/>
     <use xlink:href="#DejaVuSans-28" x="3292.585938"/>
     <use xlink:href="#DejaVuSans-78" x="3331.599609"/>
     <use xlink:href="#DejaVuSans-2d" x="3390.779297"/>
     <use xlink:href="#DejaVuSans-61" x="3426.863281"/>
     <use xlink:href="#DejaVuSans-78" x="3488.142578"/>
     <use xlink:href="#DejaVuSans-69" x="3547.322266"/>
     <use xlink:href="#DejaVuSans-73" x="3575.105469"/>
     <use xlink:href="#DejaVuSans-29" x="3627.205078"/>
     <use xlink:href="#DejaVuSans-2e" x="3666.21875"/>
    </g>
   </g>
  </g>
 </g>
 <defs>
  <clipPath id="p33bc3869d7">
   <rect x="57.6" y="41.472" width="357.12" height="266.112"/>
  </clipPath>
 </defs>
</svg>
