<?xml version="1.0" encoding="utf-8" standalone="no"?>
<!DOCTYPE svg PUBLIC "-//W3C//DTD SVG 1.1//EN"
  "http://www.w3.org/Graphics/SVG/1.1/DTD/svg11.dtd">
<svg xmlns:xlink="http://www.w3.org/1999/xlink" width="460.8pt" height="345.6pt" viewBox="0 0 460.8 345.6" xmlns="http://www.w3.org/2000/svg" version="1.1">
 <metadata>
  <rdf:RDF xmlns:dc="http://purl.org/dc/elements/1.1/" xmlns:cc="http://creativecommons.org/ns#" xmlns:rdf="http://www.w3.org/1999/02/22-rdf-syntax-ns#">
   <cc:Work>
    <dc:type rdf:resource="http://purl.org/dc/dcmitype/StillImage"/>
    <dc:date>2024-03-08T13:29:07.676870</dc:date>
    <dc:format>image/svg+xml</dc:format>
    <dc:creator>
     <cc:Agent>
      <dc:title>Matplotlib v3.8.2, https://matplotlib.org/</dc:title>
     </cc:Agent>
    </dc:creator>
   </cc:Work>
  </rdf:RDF>
 </metadata>
 <defs>
  <style type="text/css">*{stroke-linejoin: round; stroke-linecap: butt}</style>
 </defs>
 <g id="figure_1">
  <g id="patch_1">
   <path d="M 0 345.6 
L 460.8 345.6 
L 460.8 0 
L 0 0 
z
" style="fill: #ffffff"/>
  </g>
  <g id="axes_1">
   <g id="patch_2">
    <path d="M 57.6 307.584 
L 414.72 307.584 
L 414.72 41.472 
L 57.6 41.472 
z
" style="fill: #ffffff"/>
   </g>
   <g id="matplotlib.axis_1">
    <g id="xtick_1">
     <g id="line2d_1">
      <defs>
       <path id="m96b4579294" d="M 0 0 
L 0 3.5 
" style="stroke: #000000; stroke-width: 0.8"/>
      </defs>
      <g>
       <use xlink:href="#m96b4579294" x="73.832727" y="307.584" style="stroke: #000000; stroke-width: 0.8"/>
      </g>
     </g>
     <g id="text_1">
      <!-- 0.0 -->
      <g transform="translate(65.881165 322.182437) scale(0.1 -0.1)">
       <defs>
        <path id="DejaVuSans-30" d="M 2034 4250 
Q 1547 4250 1301 3770 
Q 1056 3291 1056 2328 
Q 1056 1369 1301 889 
Q 1547 409 2034 409 
Q 2525 409 2770 889 
Q 3016 1369 3016 2328 
Q 3016 3291 2770 3770 
Q 2525 4250 2034 4250 
z
M 2034 4750 
Q 2819 4750 3233 4129 
Q 3647 3509 3647 2328 
Q 3647 1150 3233 529 
Q 2819 -91 2034 -91 
Q 1250 -91 836 529 
Q 422 1150 422 2328 
Q 422 3509 836 4129 
Q 1250 4750 2034 4750 
z
" transform="scale(0.015625)"/>
        <path id="DejaVuSans-2e" d="M 684 794 
L 1344 794 
L 1344 0 
L 684 0 
L 684 794 
z
" transform="scale(0.015625)"/>
       </defs>
       <use xlink:href="#DejaVuSans-30"/>
       <use xlink:href="#DejaVuSans-2e" x="63.623047"/>
       <use xlink:href="#DejaVuSans-30" x="95.410156"/>
      </g>
     </g>
    </g>
    <g id="xtick_2">
     <g id="line2d_2">
      <g>
       <use xlink:href="#m96b4579294" x="127.698524" y="307.584" style="stroke: #000000; stroke-width: 0.8"/>
      </g>
     </g>
     <g id="text_2">
      <!-- 0.2 -->
      <g transform="translate(119.746962 322.182437) scale(0.1 -0.1)">
       <defs>
        <path id="DejaVuSans-32" d="M 1228 531 
L 3431 531 
L 3431 0 
L 469 0 
L 469 531 
Q 828 903 1448 1529 
Q 2069 2156 2228 2338 
Q 2531 2678 2651 2914 
Q 2772 3150 2772 3378 
Q 2772 3750 2511 3984 
Q 2250 4219 1831 4219 
Q 1534 4219 1204 4116 
Q 875 4013 500 3803 
L 500 4441 
Q 881 4594 1212 4672 
Q 1544 4750 1819 4750 
Q 2544 4750 2975 4387 
Q 3406 4025 3406 3419 
Q 3406 3131 3298 2873 
Q 3191 2616 2906 2266 
Q 2828 2175 2409 1742 
Q 1991 1309 1228 531 
z
" transform="scale(0.015625)"/>
       </defs>
       <use xlink:href="#DejaVuSans-30"/>
       <use xlink:href="#DejaVuSans-2e" x="63.623047"/>
       <use xlink:href="#DejaVuSans-32" x="95.410156"/>
      </g>
     </g>
    </g>
    <g id="xtick_3">
     <g id="line2d_3">
      <g>
       <use xlink:href="#m96b4579294" x="181.564321" y="307.584" style="stroke: #000000; stroke-width: 0.8"/>
      </g>
     </g>
     <g id="text_3">
      <!-- 0.4 -->
      <g transform="translate(173.612759 322.182437) scale(0.1 -0.1)">
       <defs>
        <path id="DejaVuSans-34" d="M 2419 4116 
L 825 1625 
L 2419 1625 
L 2419 4116 
z
M 2253 4666 
L 3047 4666 
L 3047 1625 
L 3713 1625 
L 3713 1100 
L 3047 1100 
L 3047 0 
L 2419 0 
L 2419 1100 
L 313 1100 
L 313 1709 
L 2253 4666 
z
" transform="scale(0.015625)"/>
       </defs>
       <use xlink:href="#DejaVuSans-30"/>
       <use xlink:href="#DejaVuSans-2e" x="63.623047"/>
       <use xlink:href="#DejaVuSans-34" x="95.410156"/>
      </g>
     </g>
    </g>
    <g id="xtick_4">
     <g id="line2d_4">
      <g>
       <use xlink:href="#m96b4579294" x="235.430118" y="307.584" style="stroke: #000000; stroke-width: 0.8"/>
      </g>
     </g>
     <g id="text_4">
      <!-- 0.6 -->
      <g transform="translate(227.478556 322.182437) scale(0.1 -0.1)">
       <defs>
        <path id="DejaVuSans-36" d="M 2113 2584 
Q 1688 2584 1439 2293 
Q 1191 2003 1191 1497 
Q 1191 994 1439 701 
Q 1688 409 2113 409 
Q 2538 409 2786 701 
Q 3034 994 3034 1497 
Q 3034 2003 2786 2293 
Q 2538 2584 2113 2584 
z
M 3366 4563 
L 3366 3988 
Q 3128 4100 2886 4159 
Q 2644 4219 2406 4219 
Q 1781 4219 1451 3797 
Q 1122 3375 1075 2522 
Q 1259 2794 1537 2939 
Q 1816 3084 2150 3084 
Q 2853 3084 3261 2657 
Q 3669 2231 3669 1497 
Q 3669 778 3244 343 
Q 2819 -91 2113 -91 
Q 1303 -91 875 529 
Q 447 1150 447 2328 
Q 447 3434 972 4092 
Q 1497 4750 2381 4750 
Q 2619 4750 2861 4703 
Q 3103 4656 3366 4563 
z
" transform="scale(0.015625)"/>
       </defs>
       <use xlink:href="#DejaVuSans-30"/>
       <use xlink:href="#DejaVuSans-2e" x="63.623047"/>
       <use xlink:href="#DejaVuSans-36" x="95.410156"/>
      </g>
     </g>
    </g>
    <g id="xtick_5">
     <g id="line2d_5">
      <g>
       <use xlink:href="#m96b4579294" x="289.295916" y="307.584" style="stroke: #000000; stroke-width: 0.8"/>
      </g>
     </g>
     <g id="text_5">
      <!-- 0.8 -->
      <g transform="translate(281.344353 322.182437) scale(0.1 -0.1)">
       <defs>
        <path id="DejaVuSans-38" d="M 2034 2216 
Q 1584 2216 1326 1975 
Q 1069 1734 1069 1313 
Q 1069 891 1326 650 
Q 1584 409 2034 409 
Q 2484 409 2743 651 
Q 3003 894 3003 1313 
Q 3003 1734 2745 1975 
Q 2488 2216 2034 2216 
z
M 1403 2484 
Q 997 2584 770 2862 
Q 544 3141 544 3541 
Q 544 4100 942 4425 
Q 1341 4750 2034 4750 
Q 2731 4750 3128 4425 
Q 3525 4100 3525 3541 
Q 3525 3141 3298 2862 
Q 3072 2584 2669 2484 
Q 3125 2378 3379 2068 
Q 3634 1759 3634 1313 
Q 3634 634 3220 271 
Q 2806 -91 2034 -91 
Q 1263 -91 848 271 
Q 434 634 434 1313 
Q 434 1759 690 2068 
Q 947 2378 1403 2484 
z
M 1172 3481 
Q 1172 3119 1398 2916 
Q 1625 2713 2034 2713 
Q 2441 2713 2670 2916 
Q 2900 3119 2900 3481 
Q 2900 3844 2670 4047 
Q 2441 4250 2034 4250 
Q 1625 4250 1398 4047 
Q 1172 3844 1172 3481 
z
" transform="scale(0.015625)"/>
       </defs>
       <use xlink:href="#DejaVuSans-30"/>
       <use xlink:href="#DejaVuSans-2e" x="63.623047"/>
       <use xlink:href="#DejaVuSans-38" x="95.410156"/>
      </g>
     </g>
    </g>
    <g id="xtick_6">
     <g id="line2d_6">
      <g>
       <use xlink:href="#m96b4579294" x="343.161713" y="307.584" style="stroke: #000000; stroke-width: 0.8"/>
      </g>
     </g>
     <g id="text_6">
      <!-- 1.0 -->
      <g transform="translate(335.21015 322.182437) scale(0.1 -0.1)">
       <defs>
        <path id="DejaVuSans-31" d="M 794 531 
L 1825 531 
L 1825 4091 
L 703 3866 
L 703 4441 
L 1819 4666 
L 2450 4666 
L 2450 531 
L 3481 531 
L 3481 0 
L 794 0 
L 794 531 
z
" transform="scale(0.015625)"/>
       </defs>
       <use xlink:href="#DejaVuSans-31"/>
       <use xlink:href="#DejaVuSans-2e" x="63.623047"/>
       <use xlink:href="#DejaVuSans-30" x="95.410156"/>
      </g>
     </g>
    </g>
    <g id="xtick_7">
     <g id="line2d_7">
      <g>
       <use xlink:href="#m96b4579294" x="397.02751" y="307.584" style="stroke: #000000; stroke-width: 0.8"/>
      </g>
     </g>
     <g id="text_7">
      <!-- 1.2 -->
      <g transform="translate(389.075947 322.182437) scale(0.1 -0.1)">
       <use xlink:href="#DejaVuSans-31"/>
       <use xlink:href="#DejaVuSans-2e" x="63.623047"/>
       <use xlink:href="#DejaVuSans-32" x="95.410156"/>
      </g>
     </g>
    </g>
    <g id="text_8">
     <!-- 1e6 -->
     <g transform="translate(395.841875 334.860562) scale(0.1 -0.1)">
      <defs>
       <path id="DejaVuSans-65" d="M 3597 1894 
L 3597 1613 
L 953 1613 
Q 991 1019 1311 708 
Q 1631 397 2203 397 
Q 2534 397 2845 478 
Q 3156 559 3463 722 
L 3463 178 
Q 3153 47 2828 -22 
Q 2503 -91 2169 -91 
Q 1331 -91 842 396 
Q 353 884 353 1716 
Q 353 2575 817 3079 
Q 1281 3584 2069 3584 
Q 2775 3584 3186 3129 
Q 3597 2675 3597 1894 
z
M 3022 2063 
Q 3016 2534 2758 2815 
Q 2500 3097 2075 3097 
Q 1594 3097 1305 2825 
Q 1016 2553 972 2059 
L 3022 2063 
z
" transform="scale(0.015625)"/>
      </defs>
      <use xlink:href="#DejaVuSans-31"/>
      <use xlink:href="#DejaVuSans-65" x="63.623047"/>
      <use xlink:href="#DejaVuSans-36" x="125.146484"/>
     </g>
    </g>
   </g>
   <g id="matplotlib.axis_2">
    <g id="ytick_1">
     <g id="line2d_8">
      <defs>
       <path id="m7dc8b1dbfc" d="M 0 0 
L -3.5 0 
" style="stroke: #000000; stroke-width: 0.8"/>
      </defs>
      <g>
       <use xlink:href="#m7dc8b1dbfc" x="57.6" y="295.488" style="stroke: #000000; stroke-width: 0.8"/>
      </g>
     </g>
     <g id="text_9">
      <!-- 0.0 -->
      <g transform="translate(34.696875 299.287219) scale(0.1 -0.1)">
       <use xlink:href="#DejaVuSans-30"/>
       <use xlink:href="#DejaVuSans-2e" x="63.623047"/>
       <use xlink:href="#DejaVuSans-30" x="95.410156"/>
      </g>
     </g>
    </g>
    <g id="ytick_2">
     <g id="line2d_9">
      <g>
       <use xlink:href="#m7dc8b1dbfc" x="57.6" y="247.104" style="stroke: #000000; stroke-width: 0.8"/>
      </g>
     </g>
     <g id="text_10">
      <!-- 0.2 -->
      <g transform="translate(34.696875 250.903219) scale(0.1 -0.1)">
       <use xlink:href="#DejaVuSans-30"/>
       <use xlink:href="#DejaVuSans-2e" x="63.623047"/>
       <use xlink:href="#DejaVuSans-32" x="95.410156"/>
      </g>
     </g>
    </g>
    <g id="ytick_3">
     <g id="line2d_10">
      <g>
       <use xlink:href="#m7dc8b1dbfc" x="57.6" y="198.72" style="stroke: #000000; stroke-width: 0.8"/>
      </g>
     </g>
     <g id="text_11">
      <!-- 0.4 -->
      <g transform="translate(34.696875 202.519219) scale(0.1 -0.1)">
       <use xlink:href="#DejaVuSans-30"/>
       <use xlink:href="#DejaVuSans-2e" x="63.623047"/>
       <use xlink:href="#DejaVuSans-34" x="95.410156"/>
      </g>
     </g>
    </g>
    <g id="ytick_4">
     <g id="line2d_11">
      <g>
       <use xlink:href="#m7dc8b1dbfc" x="57.6" y="150.336" style="stroke: #000000; stroke-width: 0.8"/>
      </g>
     </g>
     <g id="text_12">
      <!-- 0.6 -->
      <g transform="translate(34.696875 154.135219) scale(0.1 -0.1)">
       <use xlink:href="#DejaVuSans-30"/>
       <use xlink:href="#DejaVuSans-2e" x="63.623047"/>
       <use xlink:href="#DejaVuSans-36" x="95.410156"/>
      </g>
     </g>
    </g>
    <g id="ytick_5">
     <g id="line2d_12">
      <g>
       <use xlink:href="#m7dc8b1dbfc" x="57.6" y="101.952" style="stroke: #000000; stroke-width: 0.8"/>
      </g>
     </g>
     <g id="text_13">
      <!-- 0.8 -->
      <g transform="translate(34.696875 105.751219) scale(0.1 -0.1)">
       <use xlink:href="#DejaVuSans-30"/>
       <use xlink:href="#DejaVuSans-2e" x="63.623047"/>
       <use xlink:href="#DejaVuSans-38" x="95.410156"/>
      </g>
     </g>
    </g>
    <g id="ytick_6">
     <g id="line2d_13">
      <g>
       <use xlink:href="#m7dc8b1dbfc" x="57.6" y="53.568" style="stroke: #000000; stroke-width: 0.8"/>
      </g>
     </g>
     <g id="text_14">
      <!-- 1.0 -->
      <g transform="translate(34.696875 57.367219) scale(0.1 -0.1)">
       <use xlink:href="#DejaVuSans-31"/>
       <use xlink:href="#DejaVuSans-2e" x="63.623047"/>
       <use xlink:href="#DejaVuSans-30" x="95.410156"/>
      </g>
     </g>
    </g>
   </g>
   <g id="line2d_14">
    <path d="M 73.832727 295.488 
L 112.904283 295.488 
L 112.904283 295.085471 
L 113.249024 295.085471 
L 113.249024 294.682942 
L 113.844241 294.682942 
L 113.844241 294.280413 
L 114.207835 294.280413 
L 114.207835 293.877884 
L 114.770733 293.877884 
L 114.770733 293.475354 
L 115.155873 293.475354 
L 115.155873 293.072825 
L 115.702611 293.072825 
L 115.702611 292.670296 
L 116.095832 292.670296 
L 116.095832 292.267767 
L 116.63449 292.267767 
L 116.63449 291.865238 
L 117.046563 291.865238 
L 117.046563 291.462709 
L 117.585221 291.462709 
L 117.585221 291.06018 
L 118.010761 291.06018 
L 118.010761 290.657651 
L 118.522486 290.657651 
L 118.522486 290.255121 
L 118.972265 290.255121 
L 118.972265 289.852592 
L 119.47591 289.852592 
L 119.47591 289.450063 
L 119.90145 289.450063 
L 119.90145 289.047534 
L 120.415869 289.047534 
L 120.415869 288.645005 
L 120.827942 288.645005 
L 120.827942 288.242476 
L 121.347747 288.242476 
L 121.347747 287.839947 
L 121.757127 287.839947 
L 121.757127 287.437418 
L 122.298478 287.437418 
L 122.298478 287.034889 
L 122.702472 287.034889 
L 122.702472 286.632359 
L 123.21689 286.632359 
L 123.21689 286.22983 
L 123.63435 286.22983 
L 123.63435 285.827301 
L 124.151462 285.827301 
L 124.151462 285.424772 
L 124.568922 285.424772 
L 124.568922 285.022243 
L 125.0995 285.022243 
L 125.0995 284.619714 
L 125.525039 284.619714 
L 125.525039 284.217185 
L 126.047538 284.217185 
L 126.047538 283.814656 
L 126.486544 283.814656 
L 126.486544 283.412126 
L 126.974029 283.412126 
L 126.974029 283.009597 
L 127.445355 283.009597 
L 127.445355 282.607068 
L 127.913988 282.607068 
L 127.913988 282.204539 
L 128.401473 282.204539 
L 128.401473 281.80201 
L 128.867412 281.80201 
L 128.867412 281.399481 
L 129.349511 281.399481 
L 129.349511 280.996952 
L 129.810064 280.996952 
L 129.810064 280.594423 
L 130.305629 280.594423 
L 130.305629 280.191894 
L 130.755408 280.191894 
L 130.755408 279.789364 
L 131.259054 279.789364 
L 131.259054 279.386835 
L 131.69806 279.386835 
L 131.69806 278.984306 
L 132.204398 278.984306 
L 132.204398 278.581777 
L 132.643405 278.581777 
L 132.643405 278.179248 
L 133.141663 278.179248 
L 133.141663 277.776719 
L 133.580669 277.776719 
L 133.580669 277.37419 
L 134.523321 277.37419 
L 134.523321 276.971661 
L 135.010806 276.971661 
L 135.010806 276.569131 
L 135.463279 276.569131 
L 135.463279 276.166602 
L 135.950764 276.166602 
L 135.950764 275.764073 
L 136.389771 275.764073 
L 136.389771 275.361544 
L 136.882643 275.361544 
L 136.882643 274.959015 
L 137.04424 274.959015 
L 137.04424 274.556486 
L 137.327036 274.556486 
L 137.327036 274.153957 
L 137.809134 274.153957 
L 137.809134 273.751428 
L 137.984198 273.751428 
L 137.984198 273.348899 
L 138.275074 273.348899 
L 138.275074 272.946369 
L 138.617121 272.946369 
L 138.617121 272.54384 
L 138.749093 272.54384 
L 138.749093 272.141311 
L 138.921463 272.141311 
L 138.921463 271.738782 
L 139.169246 271.738782 
L 139.231191 270.933724 
L 139.691744 270.933724 
L 139.70521 270.128666 
L 139.880274 270.128666 
L 139.880274 269.726136 
L 140.173843 269.726136 
L 140.233095 268.921078 
L 140.650555 268.921078 
L 140.650555 268.518549 
L 140.774447 268.518549 
L 140.795993 267.713491 
L 141.111108 267.713491 
L 141.111108 267.310962 
L 141.323878 267.310962 
L 141.323878 266.908433 
L 141.609366 266.908433 
L 141.609366 266.505903 
L 141.765577 266.505903 
L 141.849069 265.700845 
L 142.069919 265.700845 
L 142.069919 265.298316 
L 142.374261 265.298316 
L 142.374261 264.895787 
L 142.708229 264.895787 
L 142.708229 264.493258 
L 142.910225 264.493258 
L 142.910225 264.090729 
L 143.026037 264.090729 
L 143.026037 263.6882 
L 143.451577 263.6882 
L 143.508136 262.883141 
L 143.65088 262.883141 
L 143.65088 262.480612 
L 143.990235 262.480612 
L 143.990235 261.675554 
L 143.990235 261.675554 
L 144.456174 261.675554 
L 144.531586 260.870496 
L 144.604305 260.870496 
L 144.604305 260.467967 
L 144.951739 260.467967 
L 145.062164 259.662908 
L 145.404212 259.662908 
L 145.404212 259.260379 
L 145.557729 259.260379 
L 145.592742 258.455321 
L 145.872844 258.455321 
L 145.872844 258.052792 
L 146.128707 258.052792 
L 146.128707 257.650263 
L 146.36033 257.650263 
L 146.36033 257.247734 
L 146.505767 257.247734 
L 146.505767 256.845205 
L 146.670058 256.845205 
L 146.670058 256.442676 
L 147.200636 256.442676 
L 147.294901 255.637617 
L 147.464579 255.637617 
L 147.464579 255.235088 
L 147.733908 255.235088 
L 147.755454 254.43003 
L 148.237553 254.43003 
L 148.286032 253.624972 
L 148.401843 253.624972 
L 148.401843 253.222443 
L 148.695412 253.222443 
L 148.695412 252.819913 
L 148.835463 252.819913 
L 148.835463 252.417384 
L 149.172124 252.417384 
L 149.172124 252.014855 
L 149.347188 252.014855 
L 149.374121 251.209797 
L 149.629984 251.209797 
L 149.629984 250.807268 
L 149.896619 250.807268 
L 149.907392 250.00221 
L 150.122856 250.00221 
L 150.122856 249.599681 
L 150.295226 249.599681 
L 150.295226 249.197151 
L 150.45413 249.197151 
L 150.564555 247.989564 
L 151.000868 247.989564 
L 151.08436 247.184506 
L 151.227104 247.184506 
L 151.240571 246.379448 
L 151.5099 246.379448 
L 151.544913 245.574389 
L 151.9112 245.574389 
L 152.005465 244.769331 
L 152.083571 244.769331 
L 152.153596 243.964273 
L 152.457938 243.964273 
L 152.457938 243.561744 
L 152.592602 243.561744 
L 152.697641 242.354156 
L 152.961583 242.354156 
L 152.961583 241.951627 
L 153.088168 241.951627 
L 153.144727 241.146569 
L 153.271311 241.146569 
L 153.271311 240.74404 
L 153.39251 240.74404 
L 153.39251 240.341511 
L 153.616053 240.341511 
L 153.675305 239.536453 
L 153.912314 239.536453 
L 153.939247 238.731394 
L 154.227429 238.731394 
L 154.227429 238.328865 
L 154.343241 238.328865 
L 154.343241 237.926336 
L 154.58833 237.926336 
L 154.615263 237.121278 
L 154.766087 237.121278 
L 154.766087 236.718749 
L 155.283199 236.718749 
L 155.318212 235.511161 
L 155.533675 235.511161 
L 155.533675 235.108632 
L 155.794924 235.108632 
L 155.84879 234.303574 
L 155.961908 234.303574 
L 155.961908 233.901045 
L 156.223157 233.901045 
L 156.223157 233.498516 
L 156.382061 233.498516 
L 156.45478 232.693458 
L 156.632537 232.693458 
L 156.721416 231.888399 
L 156.936879 231.888399 
L 156.936879 231.48587 
L 157.157729 231.48587 
L 157.157729 231.083341 
L 157.29778 231.083341 
L 157.381272 230.278283 
L 157.472844 230.278283 
L 157.472844 229.875754 
L 157.664067 229.875754 
L 157.664067 229.473225 
L 157.963022 229.473225 
L 158.008808 228.668166 
L 158.10846 228.668166 
L 158.10846 228.265637 
L 158.315843 228.265637 
L 158.315843 227.863108 
L 158.552853 227.863108 
L 158.641731 226.655521 
L 159.091511 226.655521 
L 159.091511 226.252992 
L 159.266575 226.252992 
L 159.298894 225.447933 
L 159.58169 225.447933 
L 159.635555 224.642875 
L 159.988376 224.642875 
L 159.988376 224.240346 
L 160.168827 224.240346 
L 160.184987 223.435288 
L 160.537808 223.435288 
L 160.648232 222.63023 
L 160.710178 222.63023 
L 160.710178 222.2277 
L 161.103398 222.2277 
L 161.103398 221.825171 
L 161.246143 221.825171 
L 161.326941 221.020113 
L 161.493925 221.020113 
L 161.493925 220.617584 
L 161.792881 220.617584 
L 161.792881 220.215055 
L 162.002957 220.215055 
L 162.059516 219.409997 
L 162.339618 219.409997 
L 162.339618 219.007468 
L 162.452737 219.007468 
L 162.452737 218.604938 
L 162.68436 218.604938 
L 162.68436 218.202409 
L 162.886356 218.202409 
L 162.886356 217.79988 
L 163.010248 217.79988 
L 163.010248 217.397351 
L 163.363069 217.397351 
L 163.427708 216.189764 
L 163.952899 216.189764 
L 164.036391 214.982176 
L 164.319186 214.982176 
L 164.319186 214.579647 
L 164.488864 214.579647 
L 164.488864 214.177118 
L 164.712407 214.177118 
L 164.712407 213.774589 
L 164.900937 213.774589 
L 164.900937 213.37206 
L 165.027522 213.37206 
L 165.027522 212.969531 
L 165.267224 212.969531 
L 165.267224 212.567002 
L 165.391116 212.567002 
L 165.391116 212.164473 
L 165.5581 212.164473 
L 165.5581 211.761943 
L 165.822042 211.761943 
L 165.822042 211.359414 
L 166.059052 211.359414 
L 166.094064 210.554356 
L 166.191023 210.554356 
L 166.191023 210.151827 
L 166.632722 210.151827 
L 166.632722 209.749298 
L 166.751227 209.749298 
L 166.780853 208.94424 
L 167.136368 208.94424 
L 167.168687 208.139181 
L 167.42455 208.139181 
L 167.42455 207.736652 
L 167.699265 207.736652 
L 167.707345 206.931594 
L 168.081712 206.931594 
L 168.111339 206.126536 
L 168.22715 206.126536 
L 168.22715 205.724007 
L 168.63653 205.724007 
L 168.63653 205.321478 
L 168.755035 205.321478 
L 168.800821 204.516419 
L 169.02975 204.516419 
L 169.02975 204.11389 
L 169.299079 204.11389 
L 169.299079 203.711361 
L 169.587261 203.711361 
L 169.587261 203.308832 
L 169.840431 203.308832 
L 169.840431 202.906303 
L 169.980482 202.906303 
L 169.980482 202.503774 
L 170.389862 202.503774 
L 170.389862 202.101245 
L 170.543379 202.101245 
L 170.543379 201.698715 
L 170.92044 201.698715 
L 170.92852 200.893657 
L 171.456405 200.893657 
L 171.461791 200.088599 
L 171.844238 200.088599 
L 171.844238 199.68607 
L 171.986983 199.68607 
L 171.986983 199.283541 
L 172.517561 199.283541 
L 172.517561 198.881012 
L 172.784196 198.881012 
L 172.784196 198.478483 
L 173.064299 198.478483 
L 173.064299 198.075953 
L 173.59757 198.075953 
L 173.59757 197.673424 
L 173.726848 197.673424 
L 173.726848 197.270895 
L 174.144308 197.270895 
L 174.144308 196.868366 
L 174.674886 196.868366 
L 174.691046 196.063308 
L 175.237784 196.063308 
L 175.237784 195.660779 
L 175.609458 195.660779 
L 175.609458 195.25825 
L 176.317793 195.25825 
L 176.317793 194.85572 
L 176.568269 194.85572 
L 176.568269 194.453191 
L 176.859144 194.453191 
L 176.859144 194.050662 
L 177.387029 194.050662 
L 177.387029 193.648133 
L 177.508227 193.648133 
L 177.508227 193.245604 
L 177.93646 193.245604 
L 177.93646 192.843075 
L 179.013776 192.843075 
L 179.013776 192.440546 
L 179.55782 192.440546 
L 179.55782 192.038017 
L 179.746351 192.038017 
L 179.746351 191.635488 
L 180.096478 191.635488 
L 180.096478 191.232958 
L 180.627057 191.232958 
L 180.689002 190.4279 
L 180.926012 190.4279 
L 180.926012 190.025371 
L 181.163021 190.025371 
L 181.163021 189.622842 
L 181.626267 189.622842 
L 181.709759 188.817784 
L 181.887516 188.817784 
L 181.887516 188.415255 
L 182.237644 188.415255 
L 182.253804 187.610196 
L 182.576998 187.610196 
L 182.576998 187.207667 
L 182.789768 187.207667 
L 182.840941 186.402609 
L 182.90558 186.402609 
L 182.90558 186.00008 
L 183.33112 186.00008 
L 183.33112 185.597551 
L 183.506183 185.597551 
L 183.586982 184.792493 
L 183.759353 184.792493 
L 183.869778 183.987434 
L 184.244145 183.987434 
L 184.244145 183.584905 
L 184.416515 183.584905 
L 184.448835 182.779847 
L 184.688538 182.779847 
L 184.688538 182.377318 
L 184.92824 182.377318 
L 184.971333 181.57226 
L 185.36994 181.57226 
L 185.36994 181.16973 
L 185.507298 181.16973 
L 185.588096 180.364672 
L 185.631189 180.364672 
L 185.631189 179.962143 
L 186.032489 179.962143 
L 186.032489 179.559614 
L 186.253339 179.559614 
L 186.253339 179.157085 
L 186.568454 179.157085 
L 186.58192 178.352027 
L 186.921275 178.352027 
L 186.921275 177.949498 
L 187.099032 177.949498 
L 187.099032 177.546968 
L 187.505719 177.546968 
L 187.583824 176.74191 
L 187.632303 176.74191 
L 187.632303 176.339381 
L 188.170961 176.339381 
L 188.25176 175.534323 
L 188.46453 175.534323 
L 188.46453 175.131794 
L 188.723086 175.131794 
L 188.723086 174.729265 
L 188.933162 174.729265 
L 188.933162 174.326735 
L 189.259051 174.326735 
L 189.259051 173.924206 
L 189.385635 173.924206 
L 189.385635 173.521677 
L 189.603792 173.521677 
L 189.603792 173.119148 
L 189.797708 173.119148 
L 189.797708 172.716619 
L 190.266341 172.716619 
L 190.328287 171.509032 
L 190.861558 171.509032 
L 190.934277 170.703973 
L 191.265551 170.703973 
L 191.265551 170.301444 
L 191.386749 170.301444 
L 191.386749 169.898915 
L 191.607599 169.898915 
L 191.607599 169.496386 
L 191.925407 169.496386 
L 191.925407 169.093857 
L 192.221669 169.093857 
L 192.294388 168.288799 
L 192.466759 168.288799 
L 192.466759 167.88627 
L 192.954244 167.88627 
L 192.994644 167.081211 
L 193.156241 167.081211 
L 193.156241 166.678682 
L 193.538688 166.678682 
L 193.635647 165.873624 
L 193.813404 165.873624 
L 193.813404 165.471095 
L 194.082733 165.471095 
L 194.098892 164.666037 
L 194.306276 164.666037 
L 194.306276 164.263507 
L 194.605231 164.263507 
L 194.605231 163.860978 
L 194.753362 163.860978 
L 194.753362 163.458449 
L 195.025384 163.458449 
L 195.135809 162.653391 
L 195.666387 162.653391 
L 195.698707 161.848333 
L 195.954569 161.848333 
L 195.954569 161.445804 
L 196.207738 161.445804 
L 196.207738 161.043275 
L 196.660211 161.043275 
L 196.74101 160.238216 
L 196.9053 160.238216 
L 196.9053 159.835687 
L 197.276974 159.835687 
L 197.276974 159.433158 
L 197.815632 159.433158 
L 197.872191 158.6281 
L 198.817536 158.6281 
L 198.817536 158.225571 
L 199.754801 158.225571 
L 199.754801 157.823042 
L 200.708226 157.823042 
L 200.708226 157.420512 
L 201.667037 157.420512 
L 201.667037 157.017983 
L 202.593529 157.017983 
L 202.593529 156.615454 
L 203.180666 156.615454 
L 203.180666 156.212925 
L 203.52002 156.212925 
L 203.52002 155.810396 
L 203.722017 155.810396 
L 203.722017 155.407867 
L 204.257982 155.407867 
L 204.257982 155.005338 
L 204.438432 155.005338 
L 204.438432 154.602809 
L 204.79664 154.602809 
L 204.79664 154.20028 
L 205.324524 154.20028 
L 205.375697 153.395221 
L 206.312962 153.395221 
L 206.312962 152.992692 
L 207.075163 152.992692 
L 207.075163 152.590163 
L 207.25292 152.590163 
L 207.25292 152.187634 
L 208.028587 152.187634 
L 208.028587 151.785105 
L 208.206345 151.785105 
L 208.206345 151.382576 
L 208.973932 151.382576 
L 208.973932 150.980047 
L 209.162463 150.980047 
L 209.162463 150.577517 
L 209.827705 150.577517 
L 209.916584 149.772459 
L 210.110501 149.772459 
L 210.110501 149.36993 
L 210.511801 149.36993 
L 210.511801 148.967401 
L 210.867315 148.967401 
L 210.867315 148.564872 
L 211.058539 148.564872 
L 211.058539 148.162343 
L 211.179737 148.162343 
L 211.179737 147.759814 
L 211.823433 147.759814 
L 211.834206 146.954755 
L 211.990417 146.954755 
L 211.990417 146.552226 
L 212.499449 146.552226 
L 212.499449 146.149697 
L 212.758004 146.149697 
L 212.758004 145.747168 
L 212.943841 145.747168 
L 212.943841 145.344639 
L 213.180851 145.344639 
L 213.180851 144.94211 
L 213.695269 144.94211 
L 213.695269 144.539581 
L 213.864947 144.539581 
L 213.873026 143.734522 
L 214.522109 143.734522 
L 214.522109 143.331993 
L 214.635227 143.331993 
L 214.635227 142.929464 
L 214.829144 142.929464 
L 214.829144 142.526935 
L 215.591345 142.526935 
L 215.591345 142.124406 
L 215.755636 142.124406 
L 215.755636 141.721877 
L 216.531304 141.721877 
L 216.558236 140.916819 
L 216.703674 140.916819 
L 216.703674 140.51429 
L 217.096894 140.51429 
L 217.096894 140.11176 
L 217.468568 140.11176 
L 217.468568 139.709231 
L 217.640939 139.709231 
L 217.675952 138.904173 
L 218.16613 138.904173 
L 218.16613 138.501644 
L 218.41122 138.501644 
L 218.41122 138.099115 
L 218.613217 138.099115 
L 218.710175 137.294057 
L 219.24614 137.294057 
L 219.24614 136.891527 
L 219.566641 136.891527 
L 219.566641 136.488998 
L 219.782104 136.488998 
L 219.782104 136.086469 
L 220.323456 136.086469 
L 220.323456 135.68394 
L 220.511986 135.68394 
L 220.511986 135.281411 
L 220.854034 135.281411 
L 220.854034 134.878882 
L 221.400772 134.878882 
L 221.443864 134.073824 
L 221.950203 134.073824 
L 221.950203 133.671295 
L 222.364969 133.671295 
L 222.364969 133.268765 
L 222.494247 133.268765 
L 222.494247 132.866236 
L 223.030212 132.866236 
L 223.030212 132.463707 
L 223.294154 132.463707 
L 223.294154 132.061178 
L 223.555403 132.061178 
L 223.555403 131.658649 
L 224.094061 131.658649 
L 224.094061 131.25612 
L 224.244886 131.25612 
L 224.244886 130.853591 
L 224.632719 130.853591 
L 224.632719 130.451062 
L 225.155218 130.451062 
L 225.192924 129.646003 
L 225.314122 129.646003 
L 225.314122 129.243474 
L 225.696569 129.243474 
L 225.696569 128.840945 
L 225.987444 128.840945 
L 225.987444 128.438416 
L 226.124802 128.438416 
L 226.124802 128.035887 
L 226.23792 128.035887 
L 226.23792 127.633358 
L 226.65538 127.633358 
L 226.65538 127.230829 
L 226.787351 127.230829 
L 226.787351 126.8283 
L 227.317929 126.8283 
L 227.317929 126.023241 
L 227.317929 126.023241 
L 227.851201 126.023241 
L 227.851201 125.620712 
L 228.002025 125.620712 
L 228.002025 125.218183 
L 228.395245 125.218183 
L 228.395245 124.815654 
L 228.680734 124.815654 
L 228.680734 124.413125 
L 228.936597 124.413125 
L 228.936597 124.010596 
L 229.362136 124.010596 
L 229.362136 123.608067 
L 230.024686 123.608067 
L 230.024686 123.205537 
L 230.698008 123.205537 
L 230.698008 122.803008 
L 231.38749 122.803008 
L 231.38749 122.400479 
L 232.052733 122.400479 
L 232.052733 121.99795 
L 232.744908 121.99795 
L 232.744908 121.595421 
L 233.418231 121.595421 
L 233.418231 121.192892 
L 234.08078 121.192892 
L 234.08078 120.790363 
L 234.754103 120.790363 
L 234.754103 120.387834 
L 235.435505 120.387834 
L 235.435505 119.985304 
L 242.157957 119.985304 
L 242.157957 119.582775 
L 242.809733 119.582775 
L 242.809733 119.180246 
L 243.087142 119.180246 
L 243.087142 118.777717 
L 243.483055 118.777717 
L 243.483055 118.375188 
L 243.620413 118.375188 
L 243.620413 117.972659 
L 244.140218 117.972659 
L 244.159071 117.167601 
L 244.703115 117.167601 
L 244.703115 116.765072 
L 244.824313 116.765072 
L 244.824313 116.362542 
L 245.23908 116.362542 
L 245.23908 115.960013 
L 245.486863 115.960013 
L 245.486863 115.557484 
L 245.766965 115.557484 
L 245.766965 115.154955 
L 246.300236 115.154955 
L 246.300236 114.752426 
L 246.849667 114.752426 
L 246.849667 114.349897 
L 247.388325 114.349897 
L 247.388325 113.947368 
L 247.921597 113.947368 
L 247.921597 113.544839 
L 248.460255 113.544839 
L 248.460255 113.142309 
L 248.993526 113.142309 
L 248.993526 112.73978 
L 249.534877 112.73978 
L 249.534877 112.337251 
L 250.070842 112.337251 
L 250.070842 111.934722 
L 250.606807 111.934722 
L 250.606807 111.532193 
L 251.129305 111.532193 
L 251.129305 111.129664 
L 251.670656 111.129664 
L 251.670656 110.727135 
L 252.217394 110.727135 
L 252.217394 110.324606 
L 252.753359 110.324606 
L 252.753359 109.922077 
L 253.305483 109.922077 
L 253.305483 109.519547 
L 253.852221 109.519547 
L 253.852221 109.117018 
L 254.388186 109.117018 
L 254.388186 108.714489 
L 254.92415 108.714489 
L 254.92415 108.31196 
L 255.478968 108.31196 
L 255.478968 107.909431 
L 256.020319 107.909431 
L 256.020319 107.506902 
L 256.564364 107.506902 
L 256.564364 107.104373 
L 257.092249 107.104373 
L 257.092249 106.701844 
L 257.6336 106.701844 
L 257.6336 106.299314 
L 258.161485 106.299314 
L 258.161485 105.896785 
L 258.713609 105.896785 
L 258.713609 105.494256 
L 259.25496 105.494256 
L 259.25496 105.091727 
L 259.796312 105.091727 
L 259.796312 104.689198 
L 260.32689 104.689198 
L 260.32689 104.286669 
L 260.868241 104.286669 
L 260.868241 103.88414 
L 261.393433 103.88414 
L 261.393433 103.481611 
L 261.924011 103.481611 
L 261.924011 103.079082 
L 262.470749 103.079082 
L 262.470749 102.676552 
L 263.017486 102.676552 
L 263.017486 102.274023 
L 263.548065 102.274023 
L 263.548065 101.871494 
L 264.094802 101.871494 
L 264.094802 101.468965 
L 264.636154 101.468965 
L 264.636154 101.066436 
L 265.174812 101.066436 
L 265.174812 100.663907 
L 265.71347 100.663907 
L 265.71347 100.261378 
L 266.249434 100.261378 
L 266.249434 99.858849 
L 266.788092 99.858849 
L 266.788092 99.456319 
L 267.329443 99.456319 
L 267.329443 99.05379 
L 267.857328 99.05379 
L 267.857328 98.651261 
L 268.401373 98.651261 
L 268.401373 98.248732 
L 268.945417 98.248732 
L 268.945417 97.846203 
L 269.497542 97.846203 
L 269.497542 97.443674 
L 270.038893 97.443674 
L 270.038893 97.041145 
L 270.577551 97.041145 
L 270.577551 96.638616 
L 271.108129 96.638616 
L 271.108129 96.236087 
L 271.644094 96.236087 
L 271.644094 95.833557 
L 271.757212 95.833557 
L 271.757212 95.431028 
L 272.182752 95.431028 
L 272.182752 95.028499 
L 272.422455 95.028499 
L 272.422455 94.62597 
L 272.72141 94.62597 
L 272.72141 94.223441 
L 273.103857 94.223441 
L 273.103857 93.820912 
L 273.254681 93.820912 
L 273.254681 93.418383 
L 273.787953 93.418383 
L 273.787953 92.613324 
L 273.787953 92.613324 
L 274.453195 92.613324 
L 274.453195 92.210795 
L 275.123824 92.210795 
L 275.123824 91.808266 
L 275.789067 91.808266 
L 275.789067 91.405737 
L 275.958744 91.405737 
L 275.958744 91.003208 
L 276.465083 91.003208 
L 276.492016 90.19815 
L 277.025287 90.19815 
L 277.130325 89.393092 
L 277.561252 89.393092 
L 277.561252 88.990562 
L 277.800954 88.990562 
L 277.800954 88.588033 
L 278.097216 88.588033 
L 278.097216 88.185504 
L 278.471584 88.185504 
L 278.471584 87.782975 
L 278.638568 87.782975 
L 278.638568 87.380446 
L 279.142213 87.380446 
L 279.174532 86.575388 
L 279.707804 86.575388 
L 279.707804 86.172859 
L 279.820922 86.172859 
L 279.820922 85.770329 
L 280.243768 85.770329 
L 280.243768 85.3678 
L 280.488858 85.3678 
L 280.488858 84.965271 
L 280.782426 84.965271 
L 280.782426 84.562742 
L 281.313004 84.562742 
L 281.313004 84.160213 
L 281.854356 84.160213 
L 281.854356 83.757684 
L 282.393014 83.757684 
L 282.393014 83.355155 
L 282.928978 83.355155 
L 282.928978 82.952626 
L 283.473023 82.952626 
L 283.473023 82.550097 
L 284.017067 82.550097 
L 284.017067 82.147567 
L 284.547645 82.147567 
L 284.547645 81.745038 
L 285.086303 81.745038 
L 285.086303 81.342509 
L 285.616882 81.342509 
L 285.616882 80.93998 
L 286.15554 80.93998 
L 286.15554 80.537451 
L 286.702277 80.537451 
L 286.702277 80.134922 
L 287.238242 80.134922 
L 287.238242 79.732393 
L 287.76882 79.732393 
L 287.76882 79.329864 
L 290.586001 79.329864 
L 290.586001 78.927334 
L 291.26471 78.927334 
L 291.26471 78.524805 
L 291.932646 78.524805 
L 291.932646 78.122276 
L 292.608662 78.122276 
L 292.608662 77.719747 
L 293.279291 77.719747 
L 293.279291 77.317218 
L 293.963387 77.317218 
L 293.963387 76.914689 
L 294.625936 76.914689 
L 294.625936 76.51216 
L 295.310032 76.51216 
L 295.310032 76.109631 
L 295.986048 76.109631 
L 295.986048 75.707101 
L 296.67553 75.707101 
L 296.67553 75.304572 
L 297.338079 75.304572 
L 297.338079 74.902043 
L 297.995242 74.902043 
L 297.995242 74.499514 
L 298.506967 74.499514 
L 298.506967 74.096985 
L 298.676644 74.096985 
L 298.676644 73.694456 
L 299.034852 73.694456 
L 299.034852 73.291927 
L 299.363433 73.291927 
L 299.363433 72.889398 
L 299.570816 72.889398 
L 299.570816 72.486869 
L 300.047529 72.486869 
L 300.106781 71.68181 
L 300.637359 71.68181 
L 300.723544 70.876752 
L 301.17871 70.876752 
L 301.17871 70.474223 
L 301.725448 70.474223 
L 301.725448 70.071694 
L 302.269493 70.071694 
L 302.269493 69.669165 
L 302.794684 69.669165 
L 302.794684 69.266636 
L 303.327956 69.266636 
L 303.327956 68.864106 
L 303.85584 68.864106 
L 303.85584 68.461577 
L 304.397192 68.461577 
L 304.397192 68.059048 
L 304.93585 68.059048 
L 304.93585 67.656519 
L 305.477201 67.656519 
L 305.477201 67.25399 
L 306.018552 67.25399 
L 306.018552 66.851461 
L 306.551824 66.851461 
L 306.551824 66.448932 
L 314.64516 66.448932 
L 314.64516 66.046403 
L 315.186511 66.046403 
L 315.186511 65.643874 
L 315.730555 65.643874 
L 315.730555 65.241344 
L 316.285373 65.241344 
L 316.285373 64.838815 
L 316.824031 64.838815 
L 316.824031 64.436286 
L 317.373462 64.436286 
L 317.373462 64.033757 
L 317.906734 64.033757 
L 317.906734 63.631228 
L 318.453471 63.631228 
L 318.453471 63.228699 
L 318.986743 63.228699 
L 318.986743 62.82617 
L 319.522708 62.82617 
L 319.522708 62.423641 
L 320.069445 62.423641 
L 320.069445 62.021111 
L 320.600023 62.021111 
L 320.600023 61.618582 
L 321.152148 61.618582 
L 321.152148 61.216053 
L 321.688113 61.216053 
L 321.688113 60.813524 
L 322.218691 60.813524 
L 322.218691 60.410995 
L 322.757349 60.410995 
L 322.757349 60.008466 
L 323.29062 60.008466 
L 323.29062 59.605937 
L 323.829278 59.605937 
L 323.829278 59.203408 
L 324.367936 59.203408 
L 324.367936 58.800879 
L 324.895821 58.800879 
L 324.895821 58.398349 
L 325.439865 58.398349 
L 325.439865 57.99582 
L 325.970443 57.99582 
L 325.970443 57.593291 
L 326.506408 57.593291 
L 326.506408 57.190762 
L 327.0316 57.190762 
L 327.0316 56.788233 
L 354.010284 56.788233 
L 354.010284 56.385704 
L 354.70246 56.385704 
L 354.70246 55.983175 
L 355.373089 55.983175 
L 355.373089 55.580646 
L 356.051798 55.580646 
L 356.051798 55.178116 
L 356.72512 55.178116 
L 356.72512 54.775587 
L 357.393056 54.775587 
L 357.393056 54.373058 
L 358.071765 54.373058 
L 358.071765 53.970529 
L 358.737008 53.970529 
L 358.737008 53.568 
L 358.737008 53.568 
" clip-path="url(#p2985411637)" style="fill: none; stroke: #1f77b4; stroke-width: 1.5; stroke-linecap: square"/>
   </g>
   <g id="line2d_15">
    <path d="M 73.832727 295.488 
L 112.866577 295.488 
L 112.866577 294.12122 
L 113.806535 294.12122 
L 113.806535 292.754441 
L 114.73572 292.754441 
L 114.73572 291.387661 
L 115.664905 291.387661 
L 115.664905 290.020881 
L 116.596784 290.020881 
L 116.596784 288.654102 
L 117.547515 288.654102 
L 117.547515 287.287322 
L 118.487473 287.287322 
L 118.487473 285.920542 
L 119.438204 285.920542 
L 119.438204 284.553763 
L 120.378163 284.553763 
L 120.378163 283.186983 
L 121.310041 283.186983 
L 121.310041 281.820203 
L 122.260772 281.820203 
L 122.260772 280.453424 
L 123.179184 280.453424 
L 123.179184 279.086644 
L 124.116449 279.086644 
L 124.116449 277.719864 
L 125.061794 277.719864 
L 125.061794 276.353085 
L 126.012525 276.353085 
L 126.012525 274.986305 
L 126.936323 274.986305 
L 126.936323 273.619525 
L 127.876281 273.619525 
L 127.876281 272.252746 
L 128.829706 272.252746 
L 128.829706 270.885966 
L 129.772358 270.885966 
L 129.772358 269.519186 
L 130.720396 269.519186 
L 130.720396 268.152407 
L 131.660354 268.152407 
L 131.660354 266.785627 
L 132.605698 266.785627 
L 132.605698 265.418847 
L 133.542963 265.418847 
L 133.542963 264.052068 
L 134.507161 264.052068 
L 134.507161 262.685288 
L 135.455199 262.685288 
L 135.455199 261.318508 
L 136.389771 261.318508 
L 136.389771 259.951729 
L 137.327036 259.951729 
L 137.327036 258.584949 
L 138.275074 258.584949 
L 138.275074 257.218169 
L 139.231191 257.218169 
L 139.231191 255.85139 
L 140.173843 255.85139 
L 140.173843 254.48461 
L 141.111108 254.48461 
L 141.111108 253.117831 
L 142.069919 253.117831 
L 142.069919 251.751051 
L 143.026037 251.751051 
L 143.026037 250.384271 
L 143.990235 250.384271 
L 143.990235 249.017492 
L 144.951739 249.017492 
L 144.951739 247.650712 
L 145.872844 247.650712 
L 145.872844 246.283932 
L 147.755454 246.283932 
L 147.755454 244.917153 
L 148.695412 244.917153 
L 148.695412 243.550373 
L 178.790233 243.550373 
L 178.790233 242.183593 
L 179.746351 242.183593 
L 179.746351 240.816814 
L 180.689002 240.816814 
L 180.689002 239.450034 
L 181.626267 239.450034 
L 181.626267 238.083254 
L 182.576998 238.083254 
L 182.576998 236.716475 
L 183.506183 236.716475 
L 183.506183 235.349695 
L 184.448835 235.349695 
L 184.448835 233.982915 
L 185.36994 233.982915 
L 185.36994 232.616136 
L 193.813404 232.616136 
L 193.813404 231.249356 
L 194.753362 231.249356 
L 194.753362 229.882576 
L 207.075163 229.882576 
L 207.075163 228.515797 
L 208.028587 228.515797 
L 208.028587 227.149017 
L 208.973932 227.149017 
L 208.973932 225.782237 
L 209.916584 225.782237 
L 209.916584 224.415458 
L 210.867315 224.415458 
L 210.867315 223.048678 
L 211.823433 223.048678 
L 211.823433 221.681898 
L 212.687979 221.681898 
L 212.758004 218.948339 
L 213.355915 218.948339 
L 213.355915 217.581559 
L 213.695269 217.581559 
L 213.695269 216.21478 
L 214.015771 216.21478 
L 214.015771 214.848 
L 214.635227 214.848 
L 214.697173 212.114441 
L 215.367802 212.114441 
L 215.367802 210.747661 
L 215.591345 210.747661 
L 215.591345 209.380881 
L 216.027658 209.380881 
L 216.027658 208.014102 
L 216.531304 208.014102 
L 216.531304 206.647322 
L 216.687514 206.647322 
L 216.687514 205.280542 
L 217.358144 205.280542 
L 217.468568 202.546983 
L 218.023386 202.546983 
L 218.023386 201.180203 
L 218.41122 201.180203 
L 218.41122 199.813424 
L 218.712868 199.813424 
L 218.712868 198.446644 
L 219.388884 198.446644 
L 219.388884 197.079864 
L 220.05682 197.079864 
L 220.05682 195.713085 
L 220.743609 195.713085 
L 220.743609 194.346305 
L 221.406158 194.346305 
L 221.406158 192.979525 
L 222.082174 192.979525 
L 222.082174 191.612746 
L 222.747417 191.612746 
L 222.747417 190.245966 
L 223.415352 190.245966 
L 223.415352 188.879186 
L 224.083288 188.879186 
L 224.083288 187.512407 
L 224.753917 187.512407 
L 224.753917 186.145627 
L 225.413773 186.145627 
L 225.413773 184.778847 
L 226.084403 184.778847 
L 226.084403 183.412068 
L 226.749645 183.412068 
L 226.749645 182.045288 
L 227.428354 182.045288 
L 227.428354 180.678508 
L 228.093597 180.678508 
L 228.093597 179.311729 
L 228.764226 179.311729 
L 228.764226 177.944949 
L 229.445628 177.944949 
L 229.445628 176.578169 
L 230.108178 176.578169 
L 230.108178 175.21139 
L 230.786887 175.21139 
L 230.786887 173.84461 
L 231.457516 173.84461 
L 231.457516 172.477831 
L 232.122759 172.477831 
L 232.122759 171.111051 
L 232.812241 171.111051 
L 232.812241 169.744271 
L 233.47479 169.744271 
L 233.47479 168.377492 
L 234.148112 168.377492 
L 234.148112 167.010712 
L 234.829515 167.010712 
L 234.829515 165.643932 
L 235.497451 165.643932 
L 235.497451 164.277153 
L 236.16808 164.277153 
L 236.16808 162.910373 
L 236.846789 162.910373 
L 236.846789 161.543593 
L 237.506645 161.543593 
L 237.506645 160.176814 
L 238.179967 160.176814 
L 238.179967 158.810034 
L 238.85329 158.810034 
L 238.85329 157.443254 
L 239.521226 157.443254 
L 239.521226 156.076475 
L 240.205321 156.076475 
L 240.205321 154.709695 
L 246.927773 154.709695 
L 246.927773 153.342915 
L 247.593015 153.342915 
L 247.593015 151.976136 
L 248.266338 151.976136 
L 248.266338 150.609356 
L 248.936967 150.609356 
L 248.936967 149.242576 
L 249.599516 149.242576 
L 249.599516 147.875797 
L 250.291692 147.875797 
L 250.291692 146.509017 
L 250.967708 146.509017 
L 250.967708 145.142237 
L 251.627564 145.142237 
L 251.627564 143.775458 
L 252.306273 143.775458 
L 252.306273 142.408678 
L 252.966129 142.408678 
L 252.966129 141.041898 
L 253.636758 141.041898 
L 253.636758 139.675119 
L 254.312774 139.675119 
L 254.312774 138.308339 
L 254.991483 138.308339 
L 254.991483 136.941559 
L 255.662112 136.941559 
L 255.662112 135.57478 
L 256.338128 135.57478 
L 256.338128 134.208 
L 257.01953 134.208 
L 257.01953 132.84122 
L 257.692852 132.84122 
L 257.692852 131.474441 
L 258.366175 131.474441 
L 258.366175 130.107661 
L 265.115559 130.107661 
L 265.115559 128.740881 
L 265.791575 128.740881 
L 265.791575 127.374102 
L 266.459511 127.374102 
L 266.459511 126.007322 
L 267.119367 126.007322 
L 267.119367 124.640542 
L 267.806156 124.640542 
L 267.806156 123.273763 
L 268.482172 123.273763 
L 268.482172 121.906983 
L 269.166267 121.906983 
L 269.166267 120.540203 
L 269.828816 120.540203 
L 269.828816 119.173424 
L 270.502139 119.173424 
L 270.502139 117.806644 
L 271.191621 117.806644 
L 271.191621 116.439864 
L 271.856864 116.439864 
L 271.856864 115.073085 
L 272.546346 115.073085 
L 272.546346 113.706305 
L 273.222362 113.706305 
L 273.222362 112.339525 
L 273.884911 112.339525 
L 273.884911 110.972746 
L 274.558233 110.972746 
L 274.558233 109.605966 
L 275.236942 109.605966 
L 275.236942 108.239186 
L 281.962087 108.239186 
L 281.962087 106.872407 
L 282.613863 106.872407 
L 282.613863 105.505627 
L 311.51017 105.505627 
L 311.51017 104.138847 
L 312.178106 104.138847 
L 312.178106 102.772068 
L 312.856815 102.772068 
L 312.856815 101.405288 
L 313.540911 101.405288 
L 313.540911 100.038508 
L 314.206153 100.038508 
L 314.206153 98.671729 
L 314.876783 98.671729 
L 314.876783 97.304949 
L 315.544718 97.304949 
L 315.544718 95.938169 
L 316.218041 95.938169 
L 316.218041 94.57139 
L 316.883283 94.57139 
L 316.883283 93.20461 
L 317.553913 93.20461 
L 317.553913 91.837831 
L 318.227235 91.837831 
L 318.227235 90.471051 
L 318.895171 90.471051 
L 318.895171 89.104271 
L 319.57388 89.104271 
L 319.57388 87.737492 
L 320.241816 87.737492 
L 320.241816 86.370712 
L 330.33896 86.370712 
L 330.33896 85.003932 
L 331.017669 85.003932 
L 331.017669 83.637153 
L 331.685605 83.637153 
L 331.685605 82.270373 
L 332.36162 82.270373 
L 332.36162 80.903593 
L 333.032249 80.903593 
L 333.032249 79.536814 
L 333.719038 79.536814 
L 333.719038 78.170034 
L 334.381588 78.170034 
L 334.381588 76.803254 
L 335.06299 76.803254 
L 335.06299 75.436475 
L 335.739006 75.436475 
L 335.739006 74.069695 
L 336.428488 74.069695 
L 336.428488 72.702915 
L 337.091037 72.702915 
L 337.091037 71.336136 
L 337.7482 71.336136 
L 337.7482 69.969356 
L 338.429602 69.969356 
L 338.429602 68.602576 
L 339.116391 68.602576 
L 339.116391 67.235797 
L 339.800487 67.235797 
L 339.800487 65.869017 
L 340.476503 65.869017 
L 340.476503 64.502237 
L 393.760549 64.502237 
L 393.760549 63.135458 
L 394.450031 63.135458 
L 394.450031 61.768678 
L 395.123354 61.768678 
L 395.123354 60.401898 
L 395.802063 60.401898 
L 395.802063 59.035119 
L 396.472692 59.035119 
L 396.472692 57.668339 
L 397.140628 57.668339 
L 397.140628 56.301559 
L 397.819337 56.301559 
L 397.819337 54.93478 
L 398.487273 54.93478 
L 398.487273 53.568 
L 398.487273 53.568 
" clip-path="url(#p2985411637)" style="fill: none; stroke: #ff7f0e; stroke-width: 1.5; stroke-linecap: square"/>
   </g>
   <g id="patch_3">
    <path d="M 57.6 307.584 
L 57.6 41.472 
" style="fill: none; stroke: #000000; stroke-width: 0.8; stroke-linejoin: miter; stroke-linecap: square"/>
   </g>
   <g id="patch_4">
    <path d="M 414.72 307.584 
L 414.72 41.472 
" style="fill: none; stroke: #000000; stroke-width: 0.8; stroke-linejoin: miter; stroke-linecap: square"/>
   </g>
   <g id="patch_5">
    <path d="M 57.6 307.584 
L 414.72 307.584 
" style="fill: none; stroke: #000000; stroke-width: 0.8; stroke-linejoin: miter; stroke-linecap: square"/>
   </g>
   <g id="patch_6">
    <path d="M 57.6 41.472 
L 414.72 41.472 
" style="fill: none; stroke: #000000; stroke-width: 0.8; stroke-linejoin: miter; stroke-linecap: square"/>
   </g>
   <g id="text_15">
    <!-- S1 S15 -->
    <g transform="translate(215.1825 35.472) scale(0.12 -0.12)">
     <defs>
      <path id="DejaVuSans-53" d="M 3425 4513 
L 3425 3897 
Q 3066 4069 2747 4153 
Q 2428 4238 2131 4238 
Q 1616 4238 1336 4038 
Q 1056 3838 1056 3469 
Q 1056 3159 1242 3001 
Q 1428 2844 1947 2747 
L 2328 2669 
Q 3034 2534 3370 2195 
Q 3706 1856 3706 1288 
Q 3706 609 3251 259 
Q 2797 -91 1919 -91 
Q 1588 -91 1214 -16 
Q 841 59 441 206 
L 441 856 
Q 825 641 1194 531 
Q 1563 422 1919 422 
Q 2459 422 2753 634 
Q 3047 847 3047 1241 
Q 3047 1584 2836 1778 
Q 2625 1972 2144 2069 
L 1759 2144 
Q 1053 2284 737 2584 
Q 422 2884 422 3419 
Q 422 4038 858 4394 
Q 1294 4750 2059 4750 
Q 2388 4750 2728 4690 
Q 3069 4631 3425 4513 
z
" transform="scale(0.015625)"/>
      <path id="DejaVuSans-20" transform="scale(0.015625)"/>
      <path id="DejaVuSans-35" d="M 691 4666 
L 3169 4666 
L 3169 4134 
L 1269 4134 
L 1269 2991 
Q 1406 3038 1543 3061 
Q 1681 3084 1819 3084 
Q 2600 3084 3056 2656 
Q 3513 2228 3513 1497 
Q 3513 744 3044 326 
Q 2575 -91 1722 -91 
Q 1428 -91 1123 -41 
Q 819 9 494 109 
L 494 744 
Q 775 591 1075 516 
Q 1375 441 1709 441 
Q 2250 441 2565 725 
Q 2881 1009 2881 1497 
Q 2881 1984 2565 2268 
Q 2250 2553 1709 2553 
Q 1456 2553 1204 2497 
Q 953 2441 691 2322 
L 691 4666 
z
" transform="scale(0.015625)"/>
     </defs>
     <use xlink:href="#DejaVuSans-53"/>
     <use xlink:href="#DejaVuSans-31" x="63.476562"/>
     <use xlink:href="#DejaVuSans-20" x="127.099609"/>
     <use xlink:href="#DejaVuSans-53" x="158.886719"/>
     <use xlink:href="#DejaVuSans-31" x="222.363281"/>
     <use xlink:href="#DejaVuSans-35" x="285.986328"/>
    </g>
   </g>
   <g id="legend_1">
    <g id="patch_7">
     <path d="M 84.895313 304.584 
L 410.52 304.584 
Q 411.72 304.584 411.72 303.384 
L 411.72 286.37025 
Q 411.72 285.17025 410.52 285.17025 
L 84.895313 285.17025 
Q 83.695313 285.17025 83.695313 286.37025 
L 83.695313 303.384 
Q 83.695313 304.584 84.895313 304.584 
z
" style="fill: #ffffff; opacity: 0.8; stroke: #cccccc; stroke-linejoin: miter"/>
    </g>
    <g id="line2d_16">
     <path d="M 86.095313 290.029312 
L 92.095313 290.029312 
L 98.095313 290.029312 
" style="fill: none; stroke: #1f77b4; stroke-width: 1.5; stroke-linecap: square"/>
    </g>
    <g id="text_16">
     <!-- Execution time between S1 S15 (xx1xx1xx1xx0yyy66xx0yyy45xx1xx0yyy66xx0yyy45xx1) -->
     <g transform="translate(102.895313 292.129312) scale(0.06 -0.06)">
      <defs>
       <path id="DejaVuSans-45" d="M 628 4666 
L 3578 4666 
L 3578 4134 
L 1259 4134 
L 1259 2753 
L 3481 2753 
L 3481 2222 
L 1259 2222 
L 1259 531 
L 3634 531 
L 3634 0 
L 628 0 
L 628 4666 
z
" transform="scale(0.015625)"/>
       <path id="DejaVuSans-78" d="M 3513 3500 
L 2247 1797 
L 3578 0 
L 2900 0 
L 1881 1375 
L 863 0 
L 184 0 
L 1544 1831 
L 300 3500 
L 978 3500 
L 1906 2253 
L 2834 3500 
L 3513 3500 
z
" transform="scale(0.015625)"/>
       <path id="DejaVuSans-63" d="M 3122 3366 
L 3122 2828 
Q 2878 2963 2633 3030 
Q 2388 3097 2138 3097 
Q 1578 3097 1268 2742 
Q 959 2388 959 1747 
Q 959 1106 1268 751 
Q 1578 397 2138 397 
Q 2388 397 2633 464 
Q 2878 531 3122 666 
L 3122 134 
Q 2881 22 2623 -34 
Q 2366 -91 2075 -91 
Q 1284 -91 818 406 
Q 353 903 353 1747 
Q 353 2603 823 3093 
Q 1294 3584 2113 3584 
Q 2378 3584 2631 3529 
Q 2884 3475 3122 3366 
z
" transform="scale(0.015625)"/>
       <path id="DejaVuSans-75" d="M 544 1381 
L 544 3500 
L 1119 3500 
L 1119 1403 
Q 1119 906 1312 657 
Q 1506 409 1894 409 
Q 2359 409 2629 706 
Q 2900 1003 2900 1516 
L 2900 3500 
L 3475 3500 
L 3475 0 
L 2900 0 
L 2900 538 
Q 2691 219 2414 64 
Q 2138 -91 1772 -91 
Q 1169 -91 856 284 
Q 544 659 544 1381 
z
M 1991 3584 
L 1991 3584 
z
" transform="scale(0.015625)"/>
       <path id="DejaVuSans-74" d="M 1172 4494 
L 1172 3500 
L 2356 3500 
L 2356 3053 
L 1172 3053 
L 1172 1153 
Q 1172 725 1289 603 
Q 1406 481 1766 481 
L 2356 481 
L 2356 0 
L 1766 0 
Q 1100 0 847 248 
Q 594 497 594 1153 
L 594 3053 
L 172 3053 
L 172 3500 
L 594 3500 
L 594 4494 
L 1172 4494 
z
" transform="scale(0.015625)"/>
       <path id="DejaVuSans-69" d="M 603 3500 
L 1178 3500 
L 1178 0 
L 603 0 
L 603 3500 
z
M 603 4863 
L 1178 4863 
L 1178 4134 
L 603 4134 
L 603 4863 
z
" transform="scale(0.015625)"/>
       <path id="DejaVuSans-6f" d="M 1959 3097 
Q 1497 3097 1228 2736 
Q 959 2375 959 1747 
Q 959 1119 1226 758 
Q 1494 397 1959 397 
Q 2419 397 2687 759 
Q 2956 1122 2956 1747 
Q 2956 2369 2687 2733 
Q 2419 3097 1959 3097 
z
M 1959 3584 
Q 2709 3584 3137 3096 
Q 3566 2609 3566 1747 
Q 3566 888 3137 398 
Q 2709 -91 1959 -91 
Q 1206 -91 779 398 
Q 353 888 353 1747 
Q 353 2609 779 3096 
Q 1206 3584 1959 3584 
z
" transform="scale(0.015625)"/>
       <path id="DejaVuSans-6e" d="M 3513 2113 
L 3513 0 
L 2938 0 
L 2938 2094 
Q 2938 2591 2744 2837 
Q 2550 3084 2163 3084 
Q 1697 3084 1428 2787 
Q 1159 2491 1159 1978 
L 1159 0 
L 581 0 
L 581 3500 
L 1159 3500 
L 1159 2956 
Q 1366 3272 1645 3428 
Q 1925 3584 2291 3584 
Q 2894 3584 3203 3211 
Q 3513 2838 3513 2113 
z
" transform="scale(0.015625)"/>
       <path id="DejaVuSans-6d" d="M 3328 2828 
Q 3544 3216 3844 3400 
Q 4144 3584 4550 3584 
Q 5097 3584 5394 3201 
Q 5691 2819 5691 2113 
L 5691 0 
L 5113 0 
L 5113 2094 
Q 5113 2597 4934 2840 
Q 4756 3084 4391 3084 
Q 3944 3084 3684 2787 
Q 3425 2491 3425 1978 
L 3425 0 
L 2847 0 
L 2847 2094 
Q 2847 2600 2669 2842 
Q 2491 3084 2119 3084 
Q 1678 3084 1418 2786 
Q 1159 2488 1159 1978 
L 1159 0 
L 581 0 
L 581 3500 
L 1159 3500 
L 1159 2956 
Q 1356 3278 1631 3431 
Q 1906 3584 2284 3584 
Q 2666 3584 2933 3390 
Q 3200 3197 3328 2828 
z
" transform="scale(0.015625)"/>
       <path id="DejaVuSans-62" d="M 3116 1747 
Q 3116 2381 2855 2742 
Q 2594 3103 2138 3103 
Q 1681 3103 1420 2742 
Q 1159 2381 1159 1747 
Q 1159 1113 1420 752 
Q 1681 391 2138 391 
Q 2594 391 2855 752 
Q 3116 1113 3116 1747 
z
M 1159 2969 
Q 1341 3281 1617 3432 
Q 1894 3584 2278 3584 
Q 2916 3584 3314 3078 
Q 3713 2572 3713 1747 
Q 3713 922 3314 415 
Q 2916 -91 2278 -91 
Q 1894 -91 1617 61 
Q 1341 213 1159 525 
L 1159 0 
L 581 0 
L 581 4863 
L 1159 4863 
L 1159 2969 
z
" transform="scale(0.015625)"/>
       <path id="DejaVuSans-77" d="M 269 3500 
L 844 3500 
L 1563 769 
L 2278 3500 
L 2956 3500 
L 3675 769 
L 4391 3500 
L 4966 3500 
L 4050 0 
L 3372 0 
L 2619 2869 
L 1863 0 
L 1184 0 
L 269 3500 
z
" transform="scale(0.015625)"/>
       <path id="DejaVuSans-28" d="M 1984 4856 
Q 1566 4138 1362 3434 
Q 1159 2731 1159 2009 
Q 1159 1288 1364 580 
Q 1569 -128 1984 -844 
L 1484 -844 
Q 1016 -109 783 600 
Q 550 1309 550 2009 
Q 550 2706 781 3412 
Q 1013 4119 1484 4856 
L 1984 4856 
z
" transform="scale(0.015625)"/>
       <path id="DejaVuSans-79" d="M 2059 -325 
Q 1816 -950 1584 -1140 
Q 1353 -1331 966 -1331 
L 506 -1331 
L 506 -850 
L 844 -850 
Q 1081 -850 1212 -737 
Q 1344 -625 1503 -206 
L 1606 56 
L 191 3500 
L 800 3500 
L 1894 763 
L 2988 3500 
L 3597 3500 
L 2059 -325 
z
" transform="scale(0.015625)"/>
       <path id="DejaVuSans-29" d="M 513 4856 
L 1013 4856 
Q 1481 4119 1714 3412 
Q 1947 2706 1947 2009 
Q 1947 1309 1714 600 
Q 1481 -109 1013 -844 
L 513 -844 
Q 928 -128 1133 580 
Q 1338 1288 1338 2009 
Q 1338 2731 1133 3434 
Q 928 4138 513 4856 
z
" transform="scale(0.015625)"/>
      </defs>
      <use xlink:href="#DejaVuSans-45"/>
      <use xlink:href="#DejaVuSans-78" x="63.183594"/>
      <use xlink:href="#DejaVuSans-65" x="119.238281"/>
      <use xlink:href="#DejaVuSans-63" x="180.761719"/>
      <use xlink:href="#DejaVuSans-75" x="235.742188"/>
      <use xlink:href="#DejaVuSans-74" x="299.121094"/>
      <use xlink:href="#DejaVuSans-69" x="338.330078"/>
      <use xlink:href="#DejaVuSans-6f" x="366.113281"/>
      <use xlink:href="#DejaVuSans-6e" x="427.294922"/>
      <use xlink:href="#DejaVuSans-20" x="490.673828"/>
      <use xlink:href="#DejaVuSans-74" x="522.460938"/>
      <use xlink:href="#DejaVuSans-69" x="561.669922"/>
      <use xlink:href="#DejaVuSans-6d" x="589.453125"/>
      <use xlink:href="#DejaVuSans-65" x="686.865234"/>
      <use xlink:href="#DejaVuSans-20" x="748.388672"/>
      <use xlink:href="#DejaVuSans-62" x="780.175781"/>
      <use xlink:href="#DejaVuSans-65" x="843.652344"/>
      <use xlink:href="#DejaVuSans-74" x="905.175781"/>
      <use xlink:href="#DejaVuSans-77" x="944.384766"/>
      <use xlink:href="#DejaVuSans-65" x="1026.171875"/>
      <use xlink:href="#DejaVuSans-65" x="1087.695312"/>
      <use xlink:href="#DejaVuSans-6e" x="1149.21875"/>
      <use xlink:href="#DejaVuSans-20" x="1212.597656"/>
      <use xlink:href="#DejaVuSans-53" x="1244.384766"/>
      <use xlink:href="#DejaVuSans-31" x="1307.861328"/>
      <use xlink:href="#DejaVuSans-20" x="1371.484375"/>
      <use xlink:href="#DejaVuSans-53" x="1403.271484"/>
      <use xlink:href="#DejaVuSans-31" x="1466.748047"/>
      <use xlink:href="#DejaVuSans-35" x="1530.371094"/>
      <use xlink:href="#DejaVuSans-20" x="1593.994141"/>
      <use xlink:href="#DejaVuSans-28" x="1625.78125"/>
      <use xlink:href="#DejaVuSans-78" x="1664.794922"/>
      <use xlink:href="#DejaVuSans-78" x="1723.974609"/>
      <use xlink:href="#DejaVuSans-31" x="1783.154297"/>
      <use xlink:href="#DejaVuSans-78" x="1846.777344"/>
      <use xlink:href="#DejaVuSans-78" x="1905.957031"/>
      <use xlink:href="#DejaVuSans-31" x="1965.136719"/>
      <use xlink:href="#DejaVuSans-78" x="2028.759766"/>
      <use xlink:href="#DejaVuSans-78" x="2087.939453"/>
      <use xlink:href="#DejaVuSans-31" x="2147.119141"/>
      <use xlink:href="#DejaVuSans-78" x="2210.742188"/>
      <use xlink:href="#DejaVuSans-78" x="2269.921875"/>
      <use xlink:href="#DejaVuSans-30" x="2329.101562"/>
      <use xlink:href="#DejaVuSans-79" x="2392.724609"/>
      <use xlink:href="#DejaVuSans-79" x="2451.904297"/>
      <use xlink:href="#DejaVuSans-79" x="2511.083984"/>
      <use xlink:href="#DejaVuSans-36" x="2570.263672"/>
      <use xlink:href="#DejaVuSans-36" x="2633.886719"/>
      <use xlink:href="#DejaVuSans-78" x="2697.509766"/>
      <use xlink:href="#DejaVuSans-78" x="2756.689453"/>
      <use xlink:href="#DejaVuSans-30" x="2815.869141"/>
      <use xlink:href="#DejaVuSans-79" x="2879.492188"/>
      <use xlink:href="#DejaVuSans-79" x="2938.671875"/>
      <use xlink:href="#DejaVuSans-79" x="2997.851562"/>
      <use xlink:href="#DejaVuSans-34" x="3057.03125"/>
      <use xlink:href="#DejaVuSans-35" x="3120.654297"/>
      <use xlink:href="#DejaVuSans-78" x="3184.277344"/>
      <use xlink:href="#DejaVuSans-78" x="3243.457031"/>
      <use xlink:href="#DejaVuSans-31" x="3302.636719"/>
      <use xlink:href="#DejaVuSans-78" x="3366.259766"/>
      <use xlink:href="#DejaVuSans-78" x="3425.439453"/>
      <use xlink:href="#DejaVuSans-30" x="3484.619141"/>
      <use xlink:href="#DejaVuSans-79" x="3548.242188"/>
      <use xlink:href="#DejaVuSans-79" x="3607.421875"/>
      <use xlink:href="#DejaVuSans-79" x="3666.601562"/>
      <use xlink:href="#DejaVuSans-36" x="3725.78125"/>
      <use xlink:href="#DejaVuSans-36" x="3789.404297"/>
      <use xlink:href="#DejaVuSans-78" x="3853.027344"/>
      <use xlink:href="#DejaVuSans-78" x="3912.207031"/>
      <use xlink:href="#DejaVuSans-30" x="3971.386719"/>
      <use xlink:href="#DejaVuSans-79" x="4035.009766"/>
      <use xlink:href="#DejaVuSans-79" x="4094.189453"/>
      <use xlink:href="#DejaVuSans-79" x="4153.369141"/>
      <use xlink:href="#DejaVuSans-34" x="4212.548828"/>
      <use xlink:href="#DejaVuSans-35" x="4276.171875"/>
      <use xlink:href="#DejaVuSans-78" x="4339.794922"/>
      <use xlink:href="#DejaVuSans-78" x="4398.974609"/>
      <use xlink:href="#DejaVuSans-31" x="4458.154297"/>
      <use xlink:href="#DejaVuSans-29" x="4521.777344"/>
     </g>
    </g>
    <g id="line2d_17">
     <path d="M 86.095313 298.836187 
L 92.095313 298.836187 
L 98.095313 298.836187 
" style="fill: none; stroke: #ff7f0e; stroke-width: 1.5; stroke-linecap: square"/>
    </g>
    <g id="text_17">
     <!-- Execution time between S1 S15 (xx1xx2xx0yyy45xx0yyy45xx0yyy3xx1xx0yyy45xx0yyy45xx0yyy45) -->
     <g transform="translate(102.895313 300.936187) scale(0.06 -0.06)">
      <defs>
       <path id="DejaVuSans-33" d="M 2597 2516 
Q 3050 2419 3304 2112 
Q 3559 1806 3559 1356 
Q 3559 666 3084 287 
Q 2609 -91 1734 -91 
Q 1441 -91 1130 -33 
Q 819 25 488 141 
L 488 750 
Q 750 597 1062 519 
Q 1375 441 1716 441 
Q 2309 441 2620 675 
Q 2931 909 2931 1356 
Q 2931 1769 2642 2001 
Q 2353 2234 1838 2234 
L 1294 2234 
L 1294 2753 
L 1863 2753 
Q 2328 2753 2575 2939 
Q 2822 3125 2822 3475 
Q 2822 3834 2567 4026 
Q 2313 4219 1838 4219 
Q 1578 4219 1281 4162 
Q 984 4106 628 3988 
L 628 4550 
Q 988 4650 1302 4700 
Q 1616 4750 1894 4750 
Q 2613 4750 3031 4423 
Q 3450 4097 3450 3541 
Q 3450 3153 3228 2886 
Q 3006 2619 2597 2516 
z
" transform="scale(0.015625)"/>
      </defs>
      <use xlink:href="#DejaVuSans-45"/>
      <use xlink:href="#DejaVuSans-78" x="63.183594"/>
      <use xlink:href="#DejaVuSans-65" x="119.238281"/>
      <use xlink:href="#DejaVuSans-63" x="180.761719"/>
      <use xlink:href="#DejaVuSans-75" x="235.742188"/>
      <use xlink:href="#DejaVuSans-74" x="299.121094"/>
      <use xlink:href="#DejaVuSans-69" x="338.330078"/>
      <use xlink:href="#DejaVuSans-6f" x="366.113281"/>
      <use xlink:href="#DejaVuSans-6e" x="427.294922"/>
      <use xlink:href="#DejaVuSans-20" x="490.673828"/>
      <use xlink:href="#DejaVuSans-74" x="522.460938"/>
      <use xlink:href="#DejaVuSans-69" x="561.669922"/>
      <use xlink:href="#DejaVuSans-6d" x="589.453125"/>
      <use xlink:href="#DejaVuSans-65" x="686.865234"/>
      <use xlink:href="#DejaVuSans-20" x="748.388672"/>
      <use xlink:href="#DejaVuSans-62" x="780.175781"/>
      <use xlink:href="#DejaVuSans-65" x="843.652344"/>
      <use xlink:href="#DejaVuSans-74" x="905.175781"/>
      <use xlink:href="#DejaVuSans-77" x="944.384766"/>
      <use xlink:href="#DejaVuSans-65" x="1026.171875"/>
      <use xlink:href="#DejaVuSans-65" x="1087.695312"/>
      <use xlink:href="#DejaVuSans-6e" x="1149.21875"/>
      <use xlink:href="#DejaVuSans-20" x="1212.597656"/>
      <use xlink:href="#DejaVuSans-53" x="1244.384766"/>
      <use xlink:href="#DejaVuSans-31" x="1307.861328"/>
      <use xlink:href="#DejaVuSans-20" x="1371.484375"/>
      <use xlink:href="#DejaVuSans-53" x="1403.271484"/>
      <use xlink:href="#DejaVuSans-31" x="1466.748047"/>
      <use xlink:href="#DejaVuSans-35" x="1530.371094"/>
      <use xlink:href="#DejaVuSans-20" x="1593.994141"/>
      <use xlink:href="#DejaVuSans-28" x="1625.78125"/>
      <use xlink:href="#DejaVuSans-78" x="1664.794922"/>
      <use xlink:href="#DejaVuSans-78" x="1723.974609"/>
      <use xlink:href="#DejaVuSans-31" x="1783.154297"/>
      <use xlink:href="#DejaVuSans-78" x="1846.777344"/>
      <use xlink:href="#DejaVuSans-78" x="1905.957031"/>
      <use xlink:href="#DejaVuSans-32" x="1965.136719"/>
      <use xlink:href="#DejaVuSans-78" x="2028.759766"/>
      <use xlink:href="#DejaVuSans-78" x="2087.939453"/>
      <use xlink:href="#DejaVuSans-30" x="2147.119141"/>
      <use xlink:href="#DejaVuSans-79" x="2210.742188"/>
      <use xlink:href="#DejaVuSans-79" x="2269.921875"/>
      <use xlink:href="#DejaVuSans-79" x="2329.101562"/>
      <use xlink:href="#DejaVuSans-34" x="2388.28125"/>
      <use xlink:href="#DejaVuSans-35" x="2451.904297"/>
      <use xlink:href="#DejaVuSans-78" x="2515.527344"/>
      <use xlink:href="#DejaVuSans-78" x="2574.707031"/>
      <use xlink:href="#DejaVuSans-30" x="2633.886719"/>
      <use xlink:href="#DejaVuSans-79" x="2697.509766"/>
      <use xlink:href="#DejaVuSans-79" x="2756.689453"/>
      <use xlink:href="#DejaVuSans-79" x="2815.869141"/>
      <use xlink:href="#DejaVuSans-34" x="2875.048828"/>
      <use xlink:href="#DejaVuSans-35" x="2938.671875"/>
      <use xlink:href="#DejaVuSans-78" x="3002.294922"/>
      <use xlink:href="#DejaVuSans-78" x="3061.474609"/>
      <use xlink:href="#DejaVuSans-30" x="3120.654297"/>
      <use xlink:href="#DejaVuSans-79" x="3184.277344"/>
      <use xlink:href="#DejaVuSans-79" x="3243.457031"/>
      <use xlink:href="#DejaVuSans-79" x="3302.636719"/>
      <use xlink:href="#DejaVuSans-33" x="3361.816406"/>
      <use xlink:href="#DejaVuSans-78" x="3425.439453"/>
      <use xlink:href="#DejaVuSans-78" x="3484.619141"/>
      <use xlink:href="#DejaVuSans-31" x="3543.798828"/>
      <use xlink:href="#DejaVuSans-78" x="3607.421875"/>
      <use xlink:href="#DejaVuSans-78" x="3666.601562"/>
      <use xlink:href="#DejaVuSans-30" x="3725.78125"/>
      <use xlink:href="#DejaVuSans-79" x="3789.404297"/>
      <use xlink:href="#DejaVuSans-79" x="3848.583984"/>
      <use xlink:href="#DejaVuSans-79" x="3907.763672"/>
      <use xlink:href="#DejaVuSans-34" x="3966.943359"/>
      <use xlink:href="#DejaVuSans-35" x="4030.566406"/>
      <use xlink:href="#DejaVuSans-78" x="4094.189453"/>
      <use xlink:href="#DejaVuSans-78" x="4153.369141"/>
      <use xlink:href="#DejaVuSans-30" x="4212.548828"/>
      <use xlink:href="#DejaVuSans-79" x="4276.171875"/>
      <use xlink:href="#DejaVuSans-79" x="4335.351562"/>
      <use xlink:href="#DejaVuSans-79" x="4394.53125"/>
      <use xlink:href="#DejaVuSans-34" x="4453.710938"/>
      <use xlink:href="#DejaVuSans-35" x="4517.333984"/>
      <use xlink:href="#DejaVuSans-78" x="4580.957031"/>
      <use xlink:href="#DejaVuSans-78" x="4640.136719"/>
      <use xlink:href="#DejaVuSans-30" x="4699.316406"/>
      <use xlink:href="#DejaVuSans-79" x="4762.939453"/>
      <use xlink:href="#DejaVuSans-79" x="4822.119141"/>
      <use xlink:href="#DejaVuSans-79" x="4881.298828"/>
      <use xlink:href="#DejaVuSans-34" x="4940.478516"/>
      <use xlink:href="#DejaVuSans-35" x="5004.101562"/>
      <use xlink:href="#DejaVuSans-29" x="5067.724609"/>
     </g>
    </g>
   </g>
  </g>
 </g>
 <defs>
  <clipPath id="p2985411637">
   <rect x="57.6" y="41.472" width="357.12" height="266.112"/>
  </clipPath>
 </defs>
</svg>
