<?xml version="1.0" encoding="utf-8" standalone="no"?>
<!DOCTYPE svg PUBLIC "-//W3C//DTD SVG 1.1//EN"
  "http://www.w3.org/Graphics/SVG/1.1/DTD/svg11.dtd">
<svg xmlns:xlink="http://www.w3.org/1999/xlink" width="460.8pt" height="345.6pt" viewBox="0 0 460.8 345.6" xmlns="http://www.w3.org/2000/svg" version="1.1">
 <metadata>
  <rdf:RDF xmlns:dc="http://purl.org/dc/elements/1.1/" xmlns:cc="http://creativecommons.org/ns#" xmlns:rdf="http://www.w3.org/1999/02/22-rdf-syntax-ns#">
   <cc:Work>
    <dc:type rdf:resource="http://purl.org/dc/dcmitype/StillImage"/>
    <dc:date>2024-03-08T12:07:44.560134</dc:date>
    <dc:format>image/svg+xml</dc:format>
    <dc:creator>
     <cc:Agent>
      <dc:title>Matplotlib v3.8.2, https://matplotlib.org/</dc:title>
     </cc:Agent>
    </dc:creator>
   </cc:Work>
  </rdf:RDF>
 </metadata>
 <defs>
  <style type="text/css">*{stroke-linejoin: round; stroke-linecap: butt}</style>
 </defs>
 <g id="figure_1">
  <g id="patch_1">
   <path d="M 0 345.6 
L 460.8 345.6 
L 460.8 0 
L 0 0 
z
" style="fill: #ffffff"/>
  </g>
  <g id="axes_1">
   <g id="patch_2">
    <path d="M 57.6 307.584 
L 414.72 307.584 
L 414.72 41.472 
L 57.6 41.472 
z
" style="fill: #ffffff"/>
   </g>
   <g id="matplotlib.axis_1">
    <g id="xtick_1">
     <g id="line2d_1">
      <defs>
       <path id="meab5b0fcaf" d="M 0 0 
L 0 3.5 
" style="stroke: #000000; stroke-width: 0.8"/>
      </defs>
      <g>
       <use xlink:href="#meab5b0fcaf" x="73.832727" y="307.584" style="stroke: #000000; stroke-width: 0.8"/>
      </g>
     </g>
     <g id="text_1">
      <!-- 0.0 -->
      <g transform="translate(65.881165 322.182437) scale(0.1 -0.1)">
       <defs>
        <path id="DejaVuSans-30" d="M 2034 4250 
Q 1547 4250 1301 3770 
Q 1056 3291 1056 2328 
Q 1056 1369 1301 889 
Q 1547 409 2034 409 
Q 2525 409 2770 889 
Q 3016 1369 3016 2328 
Q 3016 3291 2770 3770 
Q 2525 4250 2034 4250 
z
M 2034 4750 
Q 2819 4750 3233 4129 
Q 3647 3509 3647 2328 
Q 3647 1150 3233 529 
Q 2819 -91 2034 -91 
Q 1250 -91 836 529 
Q 422 1150 422 2328 
Q 422 3509 836 4129 
Q 1250 4750 2034 4750 
z
" transform="scale(0.015625)"/>
        <path id="DejaVuSans-2e" d="M 684 794 
L 1344 794 
L 1344 0 
L 684 0 
L 684 794 
z
" transform="scale(0.015625)"/>
       </defs>
       <use xlink:href="#DejaVuSans-30"/>
       <use xlink:href="#DejaVuSans-2e" x="63.623047"/>
       <use xlink:href="#DejaVuSans-30" x="95.410156"/>
      </g>
     </g>
    </g>
    <g id="xtick_2">
     <g id="line2d_2">
      <g>
       <use xlink:href="#meab5b0fcaf" x="128.332399" y="307.584" style="stroke: #000000; stroke-width: 0.8"/>
      </g>
     </g>
     <g id="text_2">
      <!-- 0.2 -->
      <g transform="translate(120.380837 322.182437) scale(0.1 -0.1)">
       <defs>
        <path id="DejaVuSans-32" d="M 1228 531 
L 3431 531 
L 3431 0 
L 469 0 
L 469 531 
Q 828 903 1448 1529 
Q 2069 2156 2228 2338 
Q 2531 2678 2651 2914 
Q 2772 3150 2772 3378 
Q 2772 3750 2511 3984 
Q 2250 4219 1831 4219 
Q 1534 4219 1204 4116 
Q 875 4013 500 3803 
L 500 4441 
Q 881 4594 1212 4672 
Q 1544 4750 1819 4750 
Q 2544 4750 2975 4387 
Q 3406 4025 3406 3419 
Q 3406 3131 3298 2873 
Q 3191 2616 2906 2266 
Q 2828 2175 2409 1742 
Q 1991 1309 1228 531 
z
" transform="scale(0.015625)"/>
       </defs>
       <use xlink:href="#DejaVuSans-30"/>
       <use xlink:href="#DejaVuSans-2e" x="63.623047"/>
       <use xlink:href="#DejaVuSans-32" x="95.410156"/>
      </g>
     </g>
    </g>
    <g id="xtick_3">
     <g id="line2d_3">
      <g>
       <use xlink:href="#meab5b0fcaf" x="182.832071" y="307.584" style="stroke: #000000; stroke-width: 0.8"/>
      </g>
     </g>
     <g id="text_3">
      <!-- 0.4 -->
      <g transform="translate(174.880509 322.182437) scale(0.1 -0.1)">
       <defs>
        <path id="DejaVuSans-34" d="M 2419 4116 
L 825 1625 
L 2419 1625 
L 2419 4116 
z
M 2253 4666 
L 3047 4666 
L 3047 1625 
L 3713 1625 
L 3713 1100 
L 3047 1100 
L 3047 0 
L 2419 0 
L 2419 1100 
L 313 1100 
L 313 1709 
L 2253 4666 
z
" transform="scale(0.015625)"/>
       </defs>
       <use xlink:href="#DejaVuSans-30"/>
       <use xlink:href="#DejaVuSans-2e" x="63.623047"/>
       <use xlink:href="#DejaVuSans-34" x="95.410156"/>
      </g>
     </g>
    </g>
    <g id="xtick_4">
     <g id="line2d_4">
      <g>
       <use xlink:href="#meab5b0fcaf" x="237.331743" y="307.584" style="stroke: #000000; stroke-width: 0.8"/>
      </g>
     </g>
     <g id="text_4">
      <!-- 0.6 -->
      <g transform="translate(229.38018 322.182437) scale(0.1 -0.1)">
       <defs>
        <path id="DejaVuSans-36" d="M 2113 2584 
Q 1688 2584 1439 2293 
Q 1191 2003 1191 1497 
Q 1191 994 1439 701 
Q 1688 409 2113 409 
Q 2538 409 2786 701 
Q 3034 994 3034 1497 
Q 3034 2003 2786 2293 
Q 2538 2584 2113 2584 
z
M 3366 4563 
L 3366 3988 
Q 3128 4100 2886 4159 
Q 2644 4219 2406 4219 
Q 1781 4219 1451 3797 
Q 1122 3375 1075 2522 
Q 1259 2794 1537 2939 
Q 1816 3084 2150 3084 
Q 2853 3084 3261 2657 
Q 3669 2231 3669 1497 
Q 3669 778 3244 343 
Q 2819 -91 2113 -91 
Q 1303 -91 875 529 
Q 447 1150 447 2328 
Q 447 3434 972 4092 
Q 1497 4750 2381 4750 
Q 2619 4750 2861 4703 
Q 3103 4656 3366 4563 
z
" transform="scale(0.015625)"/>
       </defs>
       <use xlink:href="#DejaVuSans-30"/>
       <use xlink:href="#DejaVuSans-2e" x="63.623047"/>
       <use xlink:href="#DejaVuSans-36" x="95.410156"/>
      </g>
     </g>
    </g>
    <g id="xtick_5">
     <g id="line2d_5">
      <g>
       <use xlink:href="#meab5b0fcaf" x="291.831415" y="307.584" style="stroke: #000000; stroke-width: 0.8"/>
      </g>
     </g>
     <g id="text_5">
      <!-- 0.8 -->
      <g transform="translate(283.879852 322.182437) scale(0.1 -0.1)">
       <defs>
        <path id="DejaVuSans-38" d="M 2034 2216 
Q 1584 2216 1326 1975 
Q 1069 1734 1069 1313 
Q 1069 891 1326 650 
Q 1584 409 2034 409 
Q 2484 409 2743 651 
Q 3003 894 3003 1313 
Q 3003 1734 2745 1975 
Q 2488 2216 2034 2216 
z
M 1403 2484 
Q 997 2584 770 2862 
Q 544 3141 544 3541 
Q 544 4100 942 4425 
Q 1341 4750 2034 4750 
Q 2731 4750 3128 4425 
Q 3525 4100 3525 3541 
Q 3525 3141 3298 2862 
Q 3072 2584 2669 2484 
Q 3125 2378 3379 2068 
Q 3634 1759 3634 1313 
Q 3634 634 3220 271 
Q 2806 -91 2034 -91 
Q 1263 -91 848 271 
Q 434 634 434 1313 
Q 434 1759 690 2068 
Q 947 2378 1403 2484 
z
M 1172 3481 
Q 1172 3119 1398 2916 
Q 1625 2713 2034 2713 
Q 2441 2713 2670 2916 
Q 2900 3119 2900 3481 
Q 2900 3844 2670 4047 
Q 2441 4250 2034 4250 
Q 1625 4250 1398 4047 
Q 1172 3844 1172 3481 
z
" transform="scale(0.015625)"/>
       </defs>
       <use xlink:href="#DejaVuSans-30"/>
       <use xlink:href="#DejaVuSans-2e" x="63.623047"/>
       <use xlink:href="#DejaVuSans-38" x="95.410156"/>
      </g>
     </g>
    </g>
    <g id="xtick_6">
     <g id="line2d_6">
      <g>
       <use xlink:href="#meab5b0fcaf" x="346.331087" y="307.584" style="stroke: #000000; stroke-width: 0.8"/>
      </g>
     </g>
     <g id="text_6">
      <!-- 1.0 -->
      <g transform="translate(338.379524 322.182437) scale(0.1 -0.1)">
       <defs>
        <path id="DejaVuSans-31" d="M 794 531 
L 1825 531 
L 1825 4091 
L 703 3866 
L 703 4441 
L 1819 4666 
L 2450 4666 
L 2450 531 
L 3481 531 
L 3481 0 
L 794 0 
L 794 531 
z
" transform="scale(0.015625)"/>
       </defs>
       <use xlink:href="#DejaVuSans-31"/>
       <use xlink:href="#DejaVuSans-2e" x="63.623047"/>
       <use xlink:href="#DejaVuSans-30" x="95.410156"/>
      </g>
     </g>
    </g>
    <g id="xtick_7">
     <g id="line2d_7">
      <g>
       <use xlink:href="#meab5b0fcaf" x="400.830759" y="307.584" style="stroke: #000000; stroke-width: 0.8"/>
      </g>
     </g>
     <g id="text_7">
      <!-- 1.2 -->
      <g transform="translate(392.879196 322.182437) scale(0.1 -0.1)">
       <use xlink:href="#DejaVuSans-31"/>
       <use xlink:href="#DejaVuSans-2e" x="63.623047"/>
       <use xlink:href="#DejaVuSans-32" x="95.410156"/>
      </g>
     </g>
    </g>
    <g id="text_8">
     <!-- 1e6 -->
     <g transform="translate(395.841875 334.860562) scale(0.1 -0.1)">
      <defs>
       <path id="DejaVuSans-65" d="M 3597 1894 
L 3597 1613 
L 953 1613 
Q 991 1019 1311 708 
Q 1631 397 2203 397 
Q 2534 397 2845 478 
Q 3156 559 3463 722 
L 3463 178 
Q 3153 47 2828 -22 
Q 2503 -91 2169 -91 
Q 1331 -91 842 396 
Q 353 884 353 1716 
Q 353 2575 817 3079 
Q 1281 3584 2069 3584 
Q 2775 3584 3186 3129 
Q 3597 2675 3597 1894 
z
M 3022 2063 
Q 3016 2534 2758 2815 
Q 2500 3097 2075 3097 
Q 1594 3097 1305 2825 
Q 1016 2553 972 2059 
L 3022 2063 
z
" transform="scale(0.015625)"/>
      </defs>
      <use xlink:href="#DejaVuSans-31"/>
      <use xlink:href="#DejaVuSans-65" x="63.623047"/>
      <use xlink:href="#DejaVuSans-36" x="125.146484"/>
     </g>
    </g>
   </g>
   <g id="matplotlib.axis_2">
    <g id="ytick_1">
     <g id="line2d_8">
      <defs>
       <path id="m9ad3c0e135" d="M 0 0 
L -3.5 0 
" style="stroke: #000000; stroke-width: 0.8"/>
      </defs>
      <g>
       <use xlink:href="#m9ad3c0e135" x="57.6" y="295.488" style="stroke: #000000; stroke-width: 0.8"/>
      </g>
     </g>
     <g id="text_9">
      <!-- 0.0 -->
      <g transform="translate(34.696875 299.287219) scale(0.1 -0.1)">
       <use xlink:href="#DejaVuSans-30"/>
       <use xlink:href="#DejaVuSans-2e" x="63.623047"/>
       <use xlink:href="#DejaVuSans-30" x="95.410156"/>
      </g>
     </g>
    </g>
    <g id="ytick_2">
     <g id="line2d_9">
      <g>
       <use xlink:href="#m9ad3c0e135" x="57.6" y="247.104" style="stroke: #000000; stroke-width: 0.8"/>
      </g>
     </g>
     <g id="text_10">
      <!-- 0.2 -->
      <g transform="translate(34.696875 250.903219) scale(0.1 -0.1)">
       <use xlink:href="#DejaVuSans-30"/>
       <use xlink:href="#DejaVuSans-2e" x="63.623047"/>
       <use xlink:href="#DejaVuSans-32" x="95.410156"/>
      </g>
     </g>
    </g>
    <g id="ytick_3">
     <g id="line2d_10">
      <g>
       <use xlink:href="#m9ad3c0e135" x="57.6" y="198.72" style="stroke: #000000; stroke-width: 0.8"/>
      </g>
     </g>
     <g id="text_11">
      <!-- 0.4 -->
      <g transform="translate(34.696875 202.519219) scale(0.1 -0.1)">
       <use xlink:href="#DejaVuSans-30"/>
       <use xlink:href="#DejaVuSans-2e" x="63.623047"/>
       <use xlink:href="#DejaVuSans-34" x="95.410156"/>
      </g>
     </g>
    </g>
    <g id="ytick_4">
     <g id="line2d_11">
      <g>
       <use xlink:href="#m9ad3c0e135" x="57.6" y="150.336" style="stroke: #000000; stroke-width: 0.8"/>
      </g>
     </g>
     <g id="text_12">
      <!-- 0.6 -->
      <g transform="translate(34.696875 154.135219) scale(0.1 -0.1)">
       <use xlink:href="#DejaVuSans-30"/>
       <use xlink:href="#DejaVuSans-2e" x="63.623047"/>
       <use xlink:href="#DejaVuSans-36" x="95.410156"/>
      </g>
     </g>
    </g>
    <g id="ytick_5">
     <g id="line2d_12">
      <g>
       <use xlink:href="#m9ad3c0e135" x="57.6" y="101.952" style="stroke: #000000; stroke-width: 0.8"/>
      </g>
     </g>
     <g id="text_13">
      <!-- 0.8 -->
      <g transform="translate(34.696875 105.751219) scale(0.1 -0.1)">
       <use xlink:href="#DejaVuSans-30"/>
       <use xlink:href="#DejaVuSans-2e" x="63.623047"/>
       <use xlink:href="#DejaVuSans-38" x="95.410156"/>
      </g>
     </g>
    </g>
    <g id="ytick_6">
     <g id="line2d_13">
      <g>
       <use xlink:href="#m9ad3c0e135" x="57.6" y="53.568" style="stroke: #000000; stroke-width: 0.8"/>
      </g>
     </g>
     <g id="text_14">
      <!-- 1.0 -->
      <g transform="translate(34.696875 57.367219) scale(0.1 -0.1)">
       <use xlink:href="#DejaVuSans-31"/>
       <use xlink:href="#DejaVuSans-2e" x="63.623047"/>
       <use xlink:href="#DejaVuSans-30" x="95.410156"/>
      </g>
     </g>
    </g>
   </g>
   <g id="line2d_14">
    <path d="M 73.832727 295.488 
L 115.854699 295.488 
L 115.854699 294.966621 
L 116.54412 294.966621 
L 116.54412 294.445241 
L 117.222641 294.445241 
L 117.222641 293.923862 
L 117.920237 293.923862 
L 117.920237 293.402483 
L 118.598758 293.402483 
L 118.598758 292.881103 
L 119.288179 292.881103 
L 119.288179 292.359724 
L 119.972149 292.359724 
L 119.972149 291.838345 
L 120.653395 291.838345 
L 120.653395 291.316966 
L 121.345541 291.316966 
L 121.345541 290.795586 
L 122.032237 290.795586 
L 122.032237 290.274207 
L 122.694408 290.274207 
L 122.694408 289.752828 
L 123.359304 289.752828 
L 123.359304 289.231448 
L 124.037825 289.231448 
L 124.037825 288.710069 
L 124.724521 288.710069 
L 124.724521 288.18869 
L 125.416667 288.18869 
L 125.416667 287.66731 
L 126.089738 287.66731 
L 126.089738 287.145931 
L 126.790058 287.145931 
L 126.790058 286.624552 
L 127.484929 286.624552 
L 127.484929 286.103172 
L 128.17435 286.103172 
L 128.17435 285.581793 
L 128.855596 285.581793 
L 128.855596 285.060414 
L 129.531392 285.060414 
L 129.531392 284.539034 
L 130.215363 284.539034 
L 130.215363 284.017655 
L 130.899334 284.017655 
L 130.899334 283.496276 
L 131.583305 283.496276 
L 131.583305 282.974897 
L 132.272725 282.974897 
L 132.272725 282.453517 
L 133.616142 282.453517 
L 133.616142 281.932138 
L 134.297388 281.932138 
L 134.297388 281.410759 
L 134.984084 281.410759 
L 134.984084 280.889379 
L 136.332951 280.889379 
L 136.332951 280.368 
L 137.022372 280.368 
L 137.022372 279.846621 
L 137.695443 279.846621 
L 137.695443 279.325241 
L 138.363064 279.325241 
L 138.363064 278.803862 
L 139.03886 278.803862 
L 139.03886 278.282483 
L 139.706481 278.282483 
L 139.706481 277.761103 
L 140.379552 277.761103 
L 140.379552 277.239724 
L 141.066248 277.239724 
L 141.066248 276.718345 
L 149.780745 276.718345 
L 149.780745 276.196966 
L 150.720864 276.196966 
L 150.720864 275.675586 
L 158.394418 275.675586 
L 158.394418 275.154207 
L 159.348162 275.154207 
L 159.348162 274.632828 
L 166.250546 274.632828 
L 166.250546 274.111448 
L 166.945417 274.111448 
L 166.945417 273.590069 
L 167.637563 273.590069 
L 167.637563 273.06869 
L 168.326983 273.06869 
L 168.326983 272.54731 
L 168.986429 272.54731 
L 168.986429 272.025931 
L 169.392452 272.025931 
L 169.392452 271.504552 
L 169.66495 271.504552 
L 169.66495 270.983172 
L 170.329846 270.983172 
L 170.357096 269.940414 
L 170.992017 269.940414 
L 170.992017 269.419034 
L 171.308115 269.419034 
L 171.308115 268.897655 
L 171.665088 268.897655 
L 171.665088 268.376276 
L 172.275485 268.376276 
L 172.335434 267.333517 
L 173.035755 267.333517 
L 173.035755 266.812138 
L 173.223779 266.812138 
L 173.223779 266.290759 
L 173.733351 266.290759 
L 173.733351 265.769379 
L 174.188423 265.769379 
L 174.188423 265.248 
L 175.142167 265.248 
L 175.142167 264.726621 
L 176.104087 264.726621 
L 176.104087 264.205241 
L 177.071456 264.205241 
L 177.071456 263.683862 
L 178.049725 263.683862 
L 178.049725 263.162483 
L 179.011644 263.162483 
L 179.011644 262.641103 
L 179.951763 262.641103 
L 179.951763 262.119724 
L 180.916408 262.119724 
L 180.916408 261.598345 
L 181.870152 261.598345 
L 181.870152 261.076966 
L 182.810271 261.076966 
L 182.810271 260.555586 
L 183.753116 260.555586 
L 183.753116 260.034207 
L 184.720485 260.034207 
L 184.720485 259.512828 
L 185.666054 259.512828 
L 185.666054 258.991448 
L 186.633423 258.991448 
L 186.633423 258.470069 
L 187.587167 258.470069 
L 187.587167 257.94869 
L 188.530012 257.94869 
L 188.530012 257.42731 
L 189.464681 257.42731 
L 189.464681 256.905931 
L 190.412975 256.905931 
L 190.412975 256.384552 
L 191.36127 256.384552 
L 191.36127 255.863172 
L 192.295939 255.863172 
L 192.295939 255.341793 
L 193.222434 255.341793 
L 193.222434 254.820414 
L 194.206153 254.820414 
L 194.206153 254.299034 
L 195.146272 254.299034 
L 195.146272 253.777655 
L 196.100016 253.777655 
L 196.100016 253.256276 
L 197.061935 253.256276 
L 197.061935 252.734897 
L 198.023855 252.734897 
L 198.023855 252.213517 
L 198.983049 252.213517 
L 199.004849 251.170759 
L 199.680645 251.170759 
L 199.680645 250.649379 
L 199.934068 250.649379 
L 199.934068 250.128 
L 200.345541 250.128 
L 200.345541 249.606621 
L 200.882362 249.606621 
L 200.882362 249.085241 
L 201.015887 249.085241 
L 201.015887 248.563862 
L 201.691683 248.563862 
L 201.691683 248.042483 
L 201.847007 248.042483 
L 201.847007 247.521103 
L 202.362028 247.521103 
L 202.362028 246.999724 
L 202.800751 246.999724 
L 202.800751 246.478345 
L 203.051449 246.478345 
L 203.051449 245.956966 
L 203.743595 245.956966 
L 203.74632 244.914207 
L 204.433016 244.914207 
L 204.433016 244.392828 
L 204.672815 244.392828 
L 204.672815 243.871448 
L 205.111537 243.871448 
L 205.111537 243.350069 
L 205.621109 243.350069 
L 205.621109 242.82869 
L 205.795508 242.82869 
L 205.795508 242.30731 
L 206.463129 242.30731 
L 206.553053 241.264552 
L 207.1471 241.264552 
L 207.1471 240.743172 
L 207.528597 240.743172 
L 207.528597 240.221793 
L 207.839246 240.221793 
L 207.839246 239.700414 
L 208.512316 239.700414 
L 208.512316 239.179034 
L 209.188112 239.179034 
L 209.188112 238.657655 
L 209.872083 238.657655 
L 209.872083 238.136276 
L 210.556054 238.136276 
L 210.556054 237.614897 
L 211.245475 237.614897 
L 211.245475 237.093517 
L 211.932171 237.093517 
L 211.932171 236.572138 
L 212.613417 236.572138 
L 212.613417 236.050759 
L 213.302838 236.050759 
L 213.302838 235.529379 
L 213.986808 235.529379 
L 213.986808 235.008 
L 214.654429 235.008 
L 214.654429 234.486621 
L 215.335675 234.486621 
L 215.335675 233.965241 
L 216.016921 233.965241 
L 216.016921 233.443862 
L 216.700892 233.443862 
L 216.700892 232.922483 
L 217.379413 232.922483 
L 217.379413 232.401103 
L 218.057934 232.401103 
L 218.057934 231.879724 
L 218.73373 231.879724 
L 218.73373 231.358345 
L 219.406801 231.358345 
L 219.406801 230.836966 
L 220.074422 230.836966 
L 220.074422 230.315586 
L 220.752943 230.315586 
L 220.752943 229.794207 
L 221.423289 229.794207 
L 221.423289 229.272828 
L 222.10181 229.272828 
L 222.10181 228.751448 
L 222.772156 228.751448 
L 222.772156 228.230069 
L 223.464301 228.230069 
L 223.464301 227.70869 
L 224.145547 227.70869 
L 224.145547 227.18731 
L 224.826793 227.18731 
L 224.826793 226.665931 
L 225.505314 226.665931 
L 225.505314 226.144552 
L 226.19746 226.144552 
L 226.19746 225.623172 
L 226.865081 225.623172 
L 226.865081 225.101793 
L 227.551777 225.101793 
L 227.551777 224.580414 
L 228.241198 224.580414 
L 228.241198 224.059034 
L 228.916994 224.059034 
L 228.916994 223.537655 
L 229.271241 223.537655 
L 229.271241 223.016276 
L 229.491965 223.016276 
L 229.590065 221.973517 
L 229.821688 221.973517 
L 229.821688 221.452138 
L 230.268585 221.452138 
L 230.36941 220.409379 
L 230.42936 220.409379 
L 230.42936 219.888 
L 230.917132 219.888 
L 230.944381 218.845241 
L 231.394004 218.845241 
L 231.470303 217.802483 
L 231.639252 217.802483 
L 231.639252 217.281103 
L 232.001675 217.281103 
L 232.001675 216.759724 
L 232.306873 216.759724 
L 232.320498 215.716966 
L 232.543947 215.716966 
L 232.543947 215.195586 
L 232.971769 215.195586 
L 233.080769 214.152828 
L 233.296042 214.152828 
L 233.296042 213.631448 
L 233.625765 213.631448 
L 233.65574 212.58869 
L 234.170762 212.58869 
L 234.241612 211.545931 
L 234.328811 211.545931 
L 234.328811 211.024552 
L 234.710309 211.024552 
L 234.710309 210.503172 
L 235.198081 210.503172 
L 235.244406 209.460414 
L 235.794852 209.460414 
L 235.794852 208.939034 
L 236.12185 208.939034 
L 236.12185 208.417655 
L 236.337124 208.417655 
L 236.337124 207.896276 
L 236.876671 207.896276 
L 236.876671 207.374897 
L 237.086494 207.374897 
L 237.086494 206.853517 
L 237.408042 206.853517 
L 237.408042 206.332138 
L 237.955764 206.332138 
L 238.023889 205.289379 
L 238.492586 205.289379 
L 238.492586 204.768 
L 238.980358 204.768 
L 239.037583 203.725241 
L 239.579854 203.725241 
L 239.579854 203.203862 
L 239.814203 203.203862 
L 239.814203 202.682483 
L 239.925927 202.682483 
L 239.925927 202.161103 
L 240.111226 202.161103 
L 240.111226 201.639724 
L 240.484549 201.639724 
L 240.484549 201.118345 
L 240.667123 201.118345 
L 240.667123 200.596966 
L 240.874222 200.596966 
L 240.874222 200.075586 
L 241.165795 200.075586 
L 241.214845 199.032828 
L 241.768016 199.032828 
L 241.852491 197.46869 
L 242.302113 197.46869 
L 242.302113 196.94731 
L 242.517387 196.94731 
L 242.517387 196.425931 
L 242.789885 196.425931 
L 242.844385 195.383172 
L 243.179558 195.383172 
L 243.179558 194.861793 
L 243.389381 194.861793 
L 243.389381 194.340414 
L 243.751804 194.340414 
L 243.849904 193.297655 
L 243.942553 193.297655 
L 243.942553 192.776276 
L 244.5366 192.776276 
L 244.5366 192.254897 
L 245.223295 192.254897 
L 245.223295 191.733517 
L 245.901816 191.733517 
L 245.901816 191.212138 
L 246.11164 191.212138 
L 246.11164 190.690759 
L 246.577612 190.690759 
L 246.656637 189.648 
L 247.209808 189.648 
L 247.250683 188.605241 
L 247.74663 188.605241 
L 247.74663 188.083862 
L 247.948279 188.083862 
L 247.948279 187.562483 
L 248.286177 187.562483 
L 248.286177 187.041103 
L 248.618625 187.041103 
L 248.618625 186.519724 
L 248.820274 186.519724 
L 248.820274 185.998345 
L 249.288971 185.998345 
L 249.37617 184.955586 
L 249.910267 184.955586 
L 249.970217 183.912828 
L 250.449814 183.912828 
L 250.449814 183.391448 
L 250.637838 183.391448 
L 250.637838 182.870069 
L 250.986636 182.870069 
L 250.986636 182.34869 
L 251.321809 182.34869 
L 251.321809 181.82731 
L 251.528907 181.82731 
L 251.528907 181.305931 
L 252.01668 181.305931 
L 252.060279 180.263172 
L 252.608001 180.263172 
L 252.608001 179.741793 
L 253.152998 179.741793 
L 253.152998 179.220414 
L 253.695269 179.220414 
L 253.695269 178.699034 
L 254.234816 178.699034 
L 254.234816 178.177655 
L 254.796163 178.177655 
L 254.796163 177.656276 
L 255.346609 177.656276 
L 255.346609 177.134897 
L 255.902506 177.134897 
L 255.902506 176.613517 
L 256.450228 176.613517 
L 256.450228 176.092138 
L 257.006124 176.092138 
L 257.006124 175.570759 
L 257.556571 175.570759 
L 257.556571 175.049379 
L 258.093393 175.049379 
L 258.093393 174.528 
L 259.878257 174.528 
L 259.878257 174.006621 
L 260.20798 174.006621 
L 260.20798 173.485241 
L 260.883776 173.485241 
L 260.883776 172.963862 
L 268.380206 172.963862 
L 268.380206 172.442483 
L 269.064177 172.442483 
L 269.064177 171.921103 
L 269.3285 171.921103 
L 269.3285 171.399724 
L 269.611899 171.399724 
L 269.611899 170.878345 
L 270.167795 170.878345 
L 270.167795 170.356966 
L 270.704617 170.356966 
L 270.704617 169.835586 
L 271.244164 169.835586 
L 271.244164 169.314207 
L 271.791885 169.314207 
L 271.791885 168.792828 
L 272.347782 168.792828 
L 272.347782 168.271448 
L 272.892779 168.271448 
L 272.892779 167.750069 
L 273.429601 167.750069 
L 273.429601 167.22869 
L 273.966422 167.22869 
L 273.966422 166.70731 
L 274.519594 166.70731 
L 274.519594 166.185931 
L 275.067316 166.185931 
L 275.067316 165.664552 
L 275.623212 165.664552 
L 275.623212 165.143172 
L 276.168209 165.143172 
L 276.168209 164.621793 
L 276.576957 164.621793 
L 276.576957 164.100414 
L 276.710481 164.100414 
L 276.710481 163.579034 
L 277.263653 163.579034 
L 277.274552 162.536276 
L 277.808649 162.536276 
L 277.808649 162.014897 
L 277.955798 162.014897 
L 277.955798 161.493517 
L 278.350921 161.493517 
L 278.350921 160.972138 
L 278.642494 160.972138 
L 278.642494 160.450759 
L 279.321015 160.450759 
L 279.321015 159.929379 
L 279.996811 159.929379 
L 279.996811 159.408 
L 280.683507 159.408 
L 280.683507 158.886621 
L 281.359303 158.886621 
L 281.359303 158.365241 
L 290.430773 158.365241 
L 290.430773 157.843862 
L 291.403592 157.843862 
L 291.403592 157.322483 
L 292.340987 157.322483 
L 292.340987 156.801103 
L 292.545361 156.801103 
L 292.545361 156.279724 
L 293.090357 156.279724 
L 293.090357 155.758345 
L 293.286556 155.758345 
L 293.286556 155.236966 
L 293.646254 155.236966 
L 293.646254 154.715586 
L 294.196701 154.715586 
L 294.248475 153.672828 
L 294.736247 153.672828 
L 294.736247 153.151448 
L 295.194045 153.151448 
L 295.283969 152.10869 
L 295.826241 152.10869 
L 295.826241 151.58731 
L 296.134164 151.58731 
L 296.134164 151.065931 
L 296.363063 151.065931 
L 296.363063 150.544552 
L 296.899884 150.544552 
L 296.899884 150.023172 
L 297.087908 150.023172 
L 297.087908 149.501793 
L 297.439431 149.501793 
L 297.439431 148.980414 
L 298.000778 148.980414 
L 298.033477 147.937655 
L 298.532149 147.937655 
L 298.532149 147.416276 
L 298.992672 147.416276 
L 298.992672 146.894897 
L 299.613968 146.894897 
L 299.613968 146.373517 
L 299.924616 146.373517 
L 299.924616 145.852138 
L 300.15624 145.852138 
L 300.15624 145.330759 
L 300.698511 145.330759 
L 300.698511 144.809379 
L 300.881085 144.809379 
L 300.881085 144.288 
L 301.229883 144.288 
L 301.229883 143.766621 
L 301.777605 143.766621 
L 301.81303 142.723862 
L 302.308977 142.723862 
L 302.308977 142.202483 
L 302.764049 142.202483 
L 302.843074 141.159724 
L 303.333571 141.159724 
L 303.390795 140.116966 
L 303.725968 140.116966 
L 303.725968 139.595586 
L 303.867667 139.595586 
L 303.927617 138.552828 
L 304.399039 138.552828 
L 304.464439 137.510069 
L 304.666088 137.510069 
L 304.666088 136.98869 
L 304.938586 136.98869 
L 305.01761 135.945931 
L 305.480858 135.945931 
L 305.559882 134.903172 
L 305.614382 134.903172 
L 305.614382 134.381793 
L 306.028579 134.381793 
L 306.104879 133.339034 
L 306.576301 133.339034 
L 306.652601 131.774897 
L 307.189422 131.774897 
L 307.189422 131.253517 
L 307.535495 131.253517 
L 307.535495 130.732138 
L 307.660845 130.732138 
L 307.739869 129.689379 
L 308.197666 129.689379 
L 308.273966 128.646621 
L 308.500139 128.646621 
L 308.500139 128.125241 
L 308.731763 128.125241 
L 308.816238 127.082483 
L 309.268585 127.082483 
L 309.347609 126.039724 
L 309.448434 126.039724 
L 309.448434 125.518345 
L 309.821757 125.518345 
L 309.892606 124.475586 
L 310.355853 124.475586 
L 310.429428 122.911448 
L 310.8954 122.911448 
L 310.9717 121.86869 
L 311.377722 121.86869 
L 311.434947 120.825931 
L 311.508521 120.825931 
L 311.508521 120.304552 
L 311.990843 120.304552 
L 312.058968 119.261793 
L 312.312392 119.261793 
L 312.312392 118.740414 
L 312.53039 118.740414 
L 312.60124 117.697655 
L 313.075387 117.697655 
L 313.143512 116.654897 
L 313.260686 116.654897 
L 313.260686 116.133517 
L 313.628559 116.133517 
L 313.677608 115.090759 
L 314.15993 115.090759 
L 314.222605 113.526621 
L 314.694027 113.526621 
L 314.762152 112.483862 
L 315.159999 112.483862 
L 315.239024 111.441103 
L 315.312598 111.441103 
L 315.312598 110.919724 
L 315.781296 110.919724 
L 315.852145 109.876966 
L 316.130094 109.876966 
L 316.130094 109.355586 
L 316.315392 109.355586 
L 316.405317 108.312828 
L 316.852214 108.312828 
L 316.939414 107.270069 
L 317.072938 107.270069 
L 317.072938 106.74869 
L 317.402661 106.74869 
L 317.48441 105.705931 
L 317.934033 105.705931 
L 318.040307 104.141793 
L 318.487204 104.141793 
L 318.574404 103.099034 
L 319.004951 103.099034 
L 319.037651 102.056276 
L 319.122126 102.056276 
L 319.122126 101.534897 
L 319.571748 101.534897 
L 319.669847 100.492138 
L 319.950521 100.492138 
L 319.950521 99.970759 
L 320.111295 99.970759 
L 320.209394 98.928 
L 320.648116 98.928 
L 320.751666 97.885241 
L 320.909715 97.885241 
L 320.909715 97.363862 
L 321.184938 97.363862 
L 321.184938 96.842483 
L 321.299387 96.842483 
L 321.299387 96.321103 
L 321.740835 96.321103 
L 321.847109 94.756966 
L 321.847109 94.756966 
L 322.280382 94.756966 
L 322.280382 94.235586 
L 322.403006 94.235586 
L 322.403006 93.714207 
L 322.795403 93.714207 
L 322.833553 92.671448 
L 322.934378 92.671448 
L 322.934378 92.150069 
L 323.370375 92.150069 
L 323.370375 91.62869 
L 323.487549 91.62869 
L 323.487549 91.10731 
L 323.746423 91.10731 
L 323.746423 90.585931 
L 323.915372 90.585931 
L 323.915372 90.064552 
L 324.035271 90.064552 
L 324.035271 89.543172 
L 324.449468 89.543172 
L 324.449468 89.021793 
L 324.580268 89.021793 
L 324.580268 88.500414 
L 324.989015 88.500414 
L 324.989015 87.979034 
L 325.122539 87.979034 
L 325.122539 87.457655 
L 325.637561 87.457655 
L 325.675711 86.414897 
L 326.084459 86.414897 
L 326.084459 85.893517 
L 326.599481 85.893517 
L 326.629455 84.850759 
L 327.163552 84.850759 
L 327.163552 84.329379 
L 331.70065 84.329379 
L 331.70065 83.808 
L 332.234747 83.808 
L 332.234747 83.286621 
L 332.785193 83.286621 
L 332.785193 82.765241 
L 333.31929 82.765241 
L 333.31929 82.243862 
L 333.864287 82.243862 
L 333.864287 81.722483 
L 343.437154 81.722483 
L 343.437154 81.201103 
L 348.922546 81.201103 
L 348.922546 80.679724 
L 349.464818 80.679724 
L 349.464818 80.158345 
L 350.009815 80.158345 
L 350.009815 79.636966 
L 350.560261 79.636966 
L 350.560261 79.115586 
L 351.118883 79.115586 
L 351.118883 78.594207 
L 351.650255 78.594207 
L 351.650255 78.072828 
L 352.195251 78.072828 
L 352.195251 77.551448 
L 352.751148 77.551448 
L 352.751148 77.030069 
L 353.312495 77.030069 
L 353.312495 76.50869 
L 353.843866 76.50869 
L 353.843866 75.98731 
L 360.866149 75.98731 
L 360.866149 75.465931 
L 361.806269 75.465931 
L 361.806269 74.944552 
L 362.760013 74.944552 
L 362.760013 74.423172 
L 363.691957 74.423172 
L 363.691957 73.901793 
L 381.082803 73.901793 
L 381.082803 73.380414 
L 381.630524 73.380414 
L 381.630524 72.859034 
L 382.164621 72.859034 
L 382.164621 72.337655 
L 382.715068 72.337655 
L 382.715068 71.816276 
L 383.260064 71.816276 
L 383.260064 71.294897 
L 383.723312 71.294897 
L 383.799611 70.252138 
L 384.352783 70.252138 
L 384.352783 69.730759 
L 384.690681 69.730759 
L 384.690681 69.209379 
L 384.90323 69.209379 
L 384.90323 68.688 
L 385.445501 68.688 
L 385.445501 68.166621 
L 385.6526 68.166621 
L 385.6526 67.645241 
L 386.001398 67.645241 
L 386.001398 67.123862 
L 386.546395 67.123862 
L 386.617244 66.081103 
L 387.080491 66.081103 
L 387.080491 65.559724 
L 387.573713 65.559724 
L 387.617313 64.516966 
L 388.159585 64.516966 
L 388.159585 63.995586 
L 388.527458 63.995586 
L 388.527458 63.474207 
L 388.707307 63.474207 
L 388.707307 62.952828 
L 389.260478 62.952828 
L 389.260478 62.431448 
L 389.489377 62.431448 
L 389.489377 61.910069 
L 389.805475 61.910069 
L 389.805475 61.38869 
L 390.353197 61.38869 
L 390.456746 60.345931 
L 390.887293 60.345931 
L 390.887293 59.824552 
L 391.402315 59.824552 
L 391.429565 58.781793 
L 391.974562 58.781793 
L 391.974562 58.260414 
L 392.35061 58.260414 
L 392.35061 57.739034 
L 392.508659 57.739034 
L 392.508659 57.217655 
L 393.301629 57.217655 
L 393.301629 56.696276 
L 394.268998 56.696276 
L 394.268998 56.174897 
L 395.220017 56.174897 
L 395.220017 55.653517 
L 396.168312 55.653517 
L 396.168312 55.132138 
L 397.122056 55.132138 
L 397.122056 54.610759 
L 397.936826 54.610759 
L 397.936826 54.089379 
L 398.487273 54.089379 
L 398.487273 53.568 
L 398.487273 53.568 
" clip-path="url(#pb82ee461e9)" style="fill: none; stroke: #1f77b4; stroke-width: 1.5; stroke-linecap: square"/>
   </g>
   <g id="patch_3">
    <path d="M 57.6 307.584 
L 57.6 41.472 
" style="fill: none; stroke: #000000; stroke-width: 0.8; stroke-linejoin: miter; stroke-linecap: square"/>
   </g>
   <g id="patch_4">
    <path d="M 414.72 307.584 
L 414.72 41.472 
" style="fill: none; stroke: #000000; stroke-width: 0.8; stroke-linejoin: miter; stroke-linecap: square"/>
   </g>
   <g id="patch_5">
    <path d="M 57.6 307.584 
L 414.72 307.584 
" style="fill: none; stroke: #000000; stroke-width: 0.8; stroke-linejoin: miter; stroke-linecap: square"/>
   </g>
   <g id="patch_6">
    <path d="M 57.6 41.472 
L 414.72 41.472 
" style="fill: none; stroke: #000000; stroke-width: 0.8; stroke-linejoin: miter; stroke-linecap: square"/>
   </g>
   <g id="text_15">
    <!-- Execution time between S1 S15 -->
    <g transform="translate(140.519063 35.472) scale(0.12 -0.12)">
     <defs>
      <path id="DejaVuSans-45" d="M 628 4666 
L 3578 4666 
L 3578 4134 
L 1259 4134 
L 1259 2753 
L 3481 2753 
L 3481 2222 
L 1259 2222 
L 1259 531 
L 3634 531 
L 3634 0 
L 628 0 
L 628 4666 
z
" transform="scale(0.015625)"/>
      <path id="DejaVuSans-78" d="M 3513 3500 
L 2247 1797 
L 3578 0 
L 2900 0 
L 1881 1375 
L 863 0 
L 184 0 
L 1544 1831 
L 300 3500 
L 978 3500 
L 1906 2253 
L 2834 3500 
L 3513 3500 
z
" transform="scale(0.015625)"/>
      <path id="DejaVuSans-63" d="M 3122 3366 
L 3122 2828 
Q 2878 2963 2633 3030 
Q 2388 3097 2138 3097 
Q 1578 3097 1268 2742 
Q 959 2388 959 1747 
Q 959 1106 1268 751 
Q 1578 397 2138 397 
Q 2388 397 2633 464 
Q 2878 531 3122 666 
L 3122 134 
Q 2881 22 2623 -34 
Q 2366 -91 2075 -91 
Q 1284 -91 818 406 
Q 353 903 353 1747 
Q 353 2603 823 3093 
Q 1294 3584 2113 3584 
Q 2378 3584 2631 3529 
Q 2884 3475 3122 3366 
z
" transform="scale(0.015625)"/>
      <path id="DejaVuSans-75" d="M 544 1381 
L 544 3500 
L 1119 3500 
L 1119 1403 
Q 1119 906 1312 657 
Q 1506 409 1894 409 
Q 2359 409 2629 706 
Q 2900 1003 2900 1516 
L 2900 3500 
L 3475 3500 
L 3475 0 
L 2900 0 
L 2900 538 
Q 2691 219 2414 64 
Q 2138 -91 1772 -91 
Q 1169 -91 856 284 
Q 544 659 544 1381 
z
M 1991 3584 
L 1991 3584 
z
" transform="scale(0.015625)"/>
      <path id="DejaVuSans-74" d="M 1172 4494 
L 1172 3500 
L 2356 3500 
L 2356 3053 
L 1172 3053 
L 1172 1153 
Q 1172 725 1289 603 
Q 1406 481 1766 481 
L 2356 481 
L 2356 0 
L 1766 0 
Q 1100 0 847 248 
Q 594 497 594 1153 
L 594 3053 
L 172 3053 
L 172 3500 
L 594 3500 
L 594 4494 
L 1172 4494 
z
" transform="scale(0.015625)"/>
      <path id="DejaVuSans-69" d="M 603 3500 
L 1178 3500 
L 1178 0 
L 603 0 
L 603 3500 
z
M 603 4863 
L 1178 4863 
L 1178 4134 
L 603 4134 
L 603 4863 
z
" transform="scale(0.015625)"/>
      <path id="DejaVuSans-6f" d="M 1959 3097 
Q 1497 3097 1228 2736 
Q 959 2375 959 1747 
Q 959 1119 1226 758 
Q 1494 397 1959 397 
Q 2419 397 2687 759 
Q 2956 1122 2956 1747 
Q 2956 2369 2687 2733 
Q 2419 3097 1959 3097 
z
M 1959 3584 
Q 2709 3584 3137 3096 
Q 3566 2609 3566 1747 
Q 3566 888 3137 398 
Q 2709 -91 1959 -91 
Q 1206 -91 779 398 
Q 353 888 353 1747 
Q 353 2609 779 3096 
Q 1206 3584 1959 3584 
z
" transform="scale(0.015625)"/>
      <path id="DejaVuSans-6e" d="M 3513 2113 
L 3513 0 
L 2938 0 
L 2938 2094 
Q 2938 2591 2744 2837 
Q 2550 3084 2163 3084 
Q 1697 3084 1428 2787 
Q 1159 2491 1159 1978 
L 1159 0 
L 581 0 
L 581 3500 
L 1159 3500 
L 1159 2956 
Q 1366 3272 1645 3428 
Q 1925 3584 2291 3584 
Q 2894 3584 3203 3211 
Q 3513 2838 3513 2113 
z
" transform="scale(0.015625)"/>
      <path id="DejaVuSans-20" transform="scale(0.015625)"/>
      <path id="DejaVuSans-6d" d="M 3328 2828 
Q 3544 3216 3844 3400 
Q 4144 3584 4550 3584 
Q 5097 3584 5394 3201 
Q 5691 2819 5691 2113 
L 5691 0 
L 5113 0 
L 5113 2094 
Q 5113 2597 4934 2840 
Q 4756 3084 4391 3084 
Q 3944 3084 3684 2787 
Q 3425 2491 3425 1978 
L 3425 0 
L 2847 0 
L 2847 2094 
Q 2847 2600 2669 2842 
Q 2491 3084 2119 3084 
Q 1678 3084 1418 2786 
Q 1159 2488 1159 1978 
L 1159 0 
L 581 0 
L 581 3500 
L 1159 3500 
L 1159 2956 
Q 1356 3278 1631 3431 
Q 1906 3584 2284 3584 
Q 2666 3584 2933 3390 
Q 3200 3197 3328 2828 
z
" transform="scale(0.015625)"/>
      <path id="DejaVuSans-62" d="M 3116 1747 
Q 3116 2381 2855 2742 
Q 2594 3103 2138 3103 
Q 1681 3103 1420 2742 
Q 1159 2381 1159 1747 
Q 1159 1113 1420 752 
Q 1681 391 2138 391 
Q 2594 391 2855 752 
Q 3116 1113 3116 1747 
z
M 1159 2969 
Q 1341 3281 1617 3432 
Q 1894 3584 2278 3584 
Q 2916 3584 3314 3078 
Q 3713 2572 3713 1747 
Q 3713 922 3314 415 
Q 2916 -91 2278 -91 
Q 1894 -91 1617 61 
Q 1341 213 1159 525 
L 1159 0 
L 581 0 
L 581 4863 
L 1159 4863 
L 1159 2969 
z
" transform="scale(0.015625)"/>
      <path id="DejaVuSans-77" d="M 269 3500 
L 844 3500 
L 1563 769 
L 2278 3500 
L 2956 3500 
L 3675 769 
L 4391 3500 
L 4966 3500 
L 4050 0 
L 3372 0 
L 2619 2869 
L 1863 0 
L 1184 0 
L 269 3500 
z
" transform="scale(0.015625)"/>
      <path id="DejaVuSans-53" d="M 3425 4513 
L 3425 3897 
Q 3066 4069 2747 4153 
Q 2428 4238 2131 4238 
Q 1616 4238 1336 4038 
Q 1056 3838 1056 3469 
Q 1056 3159 1242 3001 
Q 1428 2844 1947 2747 
L 2328 2669 
Q 3034 2534 3370 2195 
Q 3706 1856 3706 1288 
Q 3706 609 3251 259 
Q 2797 -91 1919 -91 
Q 1588 -91 1214 -16 
Q 841 59 441 206 
L 441 856 
Q 825 641 1194 531 
Q 1563 422 1919 422 
Q 2459 422 2753 634 
Q 3047 847 3047 1241 
Q 3047 1584 2836 1778 
Q 2625 1972 2144 2069 
L 1759 2144 
Q 1053 2284 737 2584 
Q 422 2884 422 3419 
Q 422 4038 858 4394 
Q 1294 4750 2059 4750 
Q 2388 4750 2728 4690 
Q 3069 4631 3425 4513 
z
" transform="scale(0.015625)"/>
      <path id="DejaVuSans-35" d="M 691 4666 
L 3169 4666 
L 3169 4134 
L 1269 4134 
L 1269 2991 
Q 1406 3038 1543 3061 
Q 1681 3084 1819 3084 
Q 2600 3084 3056 2656 
Q 3513 2228 3513 1497 
Q 3513 744 3044 326 
Q 2575 -91 1722 -91 
Q 1428 -91 1123 -41 
Q 819 9 494 109 
L 494 744 
Q 775 591 1075 516 
Q 1375 441 1709 441 
Q 2250 441 2565 725 
Q 2881 1009 2881 1497 
Q 2881 1984 2565 2268 
Q 2250 2553 1709 2553 
Q 1456 2553 1204 2497 
Q 953 2441 691 2322 
L 691 4666 
z
" transform="scale(0.015625)"/>
     </defs>
     <use xlink:href="#DejaVuSans-45"/>
     <use xlink:href="#DejaVuSans-78" x="63.183594"/>
     <use xlink:href="#DejaVuSans-65" x="119.238281"/>
     <use xlink:href="#DejaVuSans-63" x="180.761719"/>
     <use xlink:href="#DejaVuSans-75" x="235.742188"/>
     <use xlink:href="#DejaVuSans-74" x="299.121094"/>
     <use xlink:href="#DejaVuSans-69" x="338.330078"/>
     <use xlink:href="#DejaVuSans-6f" x="366.113281"/>
     <use xlink:href="#DejaVuSans-6e" x="427.294922"/>
     <use xlink:href="#DejaVuSans-20" x="490.673828"/>
     <use xlink:href="#DejaVuSans-74" x="522.460938"/>
     <use xlink:href="#DejaVuSans-69" x="561.669922"/>
     <use xlink:href="#DejaVuSans-6d" x="589.453125"/>
     <use xlink:href="#DejaVuSans-65" x="686.865234"/>
     <use xlink:href="#DejaVuSans-20" x="748.388672"/>
     <use xlink:href="#DejaVuSans-62" x="780.175781"/>
     <use xlink:href="#DejaVuSans-65" x="843.652344"/>
     <use xlink:href="#DejaVuSans-74" x="905.175781"/>
     <use xlink:href="#DejaVuSans-77" x="944.384766"/>
     <use xlink:href="#DejaVuSans-65" x="1026.171875"/>
     <use xlink:href="#DejaVuSans-65" x="1087.695312"/>
     <use xlink:href="#DejaVuSans-6e" x="1149.21875"/>
     <use xlink:href="#DejaVuSans-20" x="1212.597656"/>
     <use xlink:href="#DejaVuSans-53" x="1244.384766"/>
     <use xlink:href="#DejaVuSans-31" x="1307.861328"/>
     <use xlink:href="#DejaVuSans-20" x="1371.484375"/>
     <use xlink:href="#DejaVuSans-53" x="1403.271484"/>
     <use xlink:href="#DejaVuSans-31" x="1466.748047"/>
     <use xlink:href="#DejaVuSans-35" x="1530.371094"/>
    </g>
   </g>
   <g id="legend_1">
    <g id="patch_7">
     <path d="M 295.679062 304.584 
L 410.52 304.584 
Q 411.72 304.584 411.72 303.384 
L 411.72 295.177125 
Q 411.72 293.977125 410.52 293.977125 
L 295.679062 293.977125 
Q 294.479062 293.977125 294.479062 295.177125 
L 294.479062 303.384 
Q 294.479062 304.584 295.679062 304.584 
z
" style="fill: #ffffff; opacity: 0.8; stroke: #cccccc; stroke-linejoin: miter"/>
    </g>
    <g id="line2d_15">
     <path d="M 296.879062 298.836187 
L 302.879062 298.836187 
L 308.879062 298.836187 
" style="fill: none; stroke: #1f77b4; stroke-width: 1.5; stroke-linecap: square"/>
    </g>
    <g id="text_16">
     <!-- Execution time between S1 S15 -->
     <g transform="translate(313.679062 300.936187) scale(0.06 -0.06)">
      <use xlink:href="#DejaVuSans-45"/>
      <use xlink:href="#DejaVuSans-78" x="63.183594"/>
      <use xlink:href="#DejaVuSans-65" x="119.238281"/>
      <use xlink:href="#DejaVuSans-63" x="180.761719"/>
      <use xlink:href="#DejaVuSans-75" x="235.742188"/>
      <use xlink:href="#DejaVuSans-74" x="299.121094"/>
      <use xlink:href="#DejaVuSans-69" x="338.330078"/>
      <use xlink:href="#DejaVuSans-6f" x="366.113281"/>
      <use xlink:href="#DejaVuSans-6e" x="427.294922"/>
      <use xlink:href="#DejaVuSans-20" x="490.673828"/>
      <use xlink:href="#DejaVuSans-74" x="522.460938"/>
      <use xlink:href="#DejaVuSans-69" x="561.669922"/>
      <use xlink:href="#DejaVuSans-6d" x="589.453125"/>
      <use xlink:href="#DejaVuSans-65" x="686.865234"/>
      <use xlink:href="#DejaVuSans-20" x="748.388672"/>
      <use xlink:href="#DejaVuSans-62" x="780.175781"/>
      <use xlink:href="#DejaVuSans-65" x="843.652344"/>
      <use xlink:href="#DejaVuSans-74" x="905.175781"/>
      <use xlink:href="#DejaVuSans-77" x="944.384766"/>
      <use xlink:href="#DejaVuSans-65" x="1026.171875"/>
      <use xlink:href="#DejaVuSans-65" x="1087.695312"/>
      <use xlink:href="#DejaVuSans-6e" x="1149.21875"/>
      <use xlink:href="#DejaVuSans-20" x="1212.597656"/>
      <use xlink:href="#DejaVuSans-53" x="1244.384766"/>
      <use xlink:href="#DejaVuSans-31" x="1307.861328"/>
      <use xlink:href="#DejaVuSans-20" x="1371.484375"/>
      <use xlink:href="#DejaVuSans-53" x="1403.271484"/>
      <use xlink:href="#DejaVuSans-31" x="1466.748047"/>
      <use xlink:href="#DejaVuSans-35" x="1530.371094"/>
     </g>
    </g>
   </g>
  </g>
 </g>
 <defs>
  <clipPath id="pb82ee461e9">
   <rect x="57.6" y="41.472" width="357.12" height="266.112"/>
  </clipPath>
 </defs>
</svg>
