<?xml version="1.0" encoding="utf-8" standalone="no"?>
<!DOCTYPE svg PUBLIC "-//W3C//DTD SVG 1.1//EN"
  "http://www.w3.org/Graphics/SVG/1.1/DTD/svg11.dtd">
<svg xmlns:xlink="http://www.w3.org/1999/xlink" width="460.8pt" height="345.6pt" viewBox="0 0 460.8 345.6" xmlns="http://www.w3.org/2000/svg" version="1.1">
 <metadata>
  <rdf:RDF xmlns:dc="http://purl.org/dc/elements/1.1/" xmlns:cc="http://creativecommons.org/ns#" xmlns:rdf="http://www.w3.org/1999/02/22-rdf-syntax-ns#">
   <cc:Work>
    <dc:type rdf:resource="http://purl.org/dc/dcmitype/StillImage"/>
    <dc:date>2024-03-08T12:07:49.631446</dc:date>
    <dc:format>image/svg+xml</dc:format>
    <dc:creator>
     <cc:Agent>
      <dc:title>Matplotlib v3.8.2, https://matplotlib.org/</dc:title>
     </cc:Agent>
    </dc:creator>
   </cc:Work>
  </rdf:RDF>
 </metadata>
 <defs>
  <style type="text/css">*{stroke-linejoin: round; stroke-linecap: butt}</style>
 </defs>
 <g id="figure_1">
  <g id="patch_1">
   <path d="M 0 345.6 
L 460.8 345.6 
L 460.8 0 
L 0 0 
z
" style="fill: #ffffff"/>
  </g>
  <g id="axes_1">
   <g id="patch_2">
    <path d="M 57.6 307.584 
L 414.72 307.584 
L 414.72 41.472 
L 57.6 41.472 
z
" style="fill: #ffffff"/>
   </g>
   <g id="matplotlib.axis_1">
    <g id="xtick_1">
     <g id="line2d_1">
      <defs>
       <path id="mf74ec612ee" d="M 0 0 
L 0 3.5 
" style="stroke: #000000; stroke-width: 0.8"/>
      </defs>
      <g>
       <use xlink:href="#mf74ec612ee" x="73.81687" y="307.584" style="stroke: #000000; stroke-width: 0.8"/>
      </g>
     </g>
     <g id="text_1">
      <!-- 0.0 -->
      <g transform="translate(65.865307 322.182437) scale(0.1 -0.1)">
       <defs>
        <path id="DejaVuSans-30" d="M 2034 4250 
Q 1547 4250 1301 3770 
Q 1056 3291 1056 2328 
Q 1056 1369 1301 889 
Q 1547 409 2034 409 
Q 2525 409 2770 889 
Q 3016 1369 3016 2328 
Q 3016 3291 2770 3770 
Q 2525 4250 2034 4250 
z
M 2034 4750 
Q 2819 4750 3233 4129 
Q 3647 3509 3647 2328 
Q 3647 1150 3233 529 
Q 2819 -91 2034 -91 
Q 1250 -91 836 529 
Q 422 1150 422 2328 
Q 422 3509 836 4129 
Q 1250 4750 2034 4750 
z
" transform="scale(0.015625)"/>
        <path id="DejaVuSans-2e" d="M 684 794 
L 1344 794 
L 1344 0 
L 684 0 
L 684 794 
z
" transform="scale(0.015625)"/>
       </defs>
       <use xlink:href="#DejaVuSans-30"/>
       <use xlink:href="#DejaVuSans-2e" x="63.623047"/>
       <use xlink:href="#DejaVuSans-30" x="95.410156"/>
      </g>
     </g>
    </g>
    <g id="xtick_2">
     <g id="line2d_2">
      <g>
       <use xlink:href="#mf74ec612ee" x="120.457009" y="307.584" style="stroke: #000000; stroke-width: 0.8"/>
      </g>
     </g>
     <g id="text_2">
      <!-- 0.5 -->
      <g transform="translate(112.505446 322.182437) scale(0.1 -0.1)">
       <defs>
        <path id="DejaVuSans-35" d="M 691 4666 
L 3169 4666 
L 3169 4134 
L 1269 4134 
L 1269 2991 
Q 1406 3038 1543 3061 
Q 1681 3084 1819 3084 
Q 2600 3084 3056 2656 
Q 3513 2228 3513 1497 
Q 3513 744 3044 326 
Q 2575 -91 1722 -91 
Q 1428 -91 1123 -41 
Q 819 9 494 109 
L 494 744 
Q 775 591 1075 516 
Q 1375 441 1709 441 
Q 2250 441 2565 725 
Q 2881 1009 2881 1497 
Q 2881 1984 2565 2268 
Q 2250 2553 1709 2553 
Q 1456 2553 1204 2497 
Q 953 2441 691 2322 
L 691 4666 
z
" transform="scale(0.015625)"/>
       </defs>
       <use xlink:href="#DejaVuSans-30"/>
       <use xlink:href="#DejaVuSans-2e" x="63.623047"/>
       <use xlink:href="#DejaVuSans-35" x="95.410156"/>
      </g>
     </g>
    </g>
    <g id="xtick_3">
     <g id="line2d_3">
      <g>
       <use xlink:href="#mf74ec612ee" x="167.097148" y="307.584" style="stroke: #000000; stroke-width: 0.8"/>
      </g>
     </g>
     <g id="text_3">
      <!-- 1.0 -->
      <g transform="translate(159.145585 322.182437) scale(0.1 -0.1)">
       <defs>
        <path id="DejaVuSans-31" d="M 794 531 
L 1825 531 
L 1825 4091 
L 703 3866 
L 703 4441 
L 1819 4666 
L 2450 4666 
L 2450 531 
L 3481 531 
L 3481 0 
L 794 0 
L 794 531 
z
" transform="scale(0.015625)"/>
       </defs>
       <use xlink:href="#DejaVuSans-31"/>
       <use xlink:href="#DejaVuSans-2e" x="63.623047"/>
       <use xlink:href="#DejaVuSans-30" x="95.410156"/>
      </g>
     </g>
    </g>
    <g id="xtick_4">
     <g id="line2d_4">
      <g>
       <use xlink:href="#mf74ec612ee" x="213.737287" y="307.584" style="stroke: #000000; stroke-width: 0.8"/>
      </g>
     </g>
     <g id="text_4">
      <!-- 1.5 -->
      <g transform="translate(205.785724 322.182437) scale(0.1 -0.1)">
       <use xlink:href="#DejaVuSans-31"/>
       <use xlink:href="#DejaVuSans-2e" x="63.623047"/>
       <use xlink:href="#DejaVuSans-35" x="95.410156"/>
      </g>
     </g>
    </g>
    <g id="xtick_5">
     <g id="line2d_5">
      <g>
       <use xlink:href="#mf74ec612ee" x="260.377426" y="307.584" style="stroke: #000000; stroke-width: 0.8"/>
      </g>
     </g>
     <g id="text_5">
      <!-- 2.0 -->
      <g transform="translate(252.425863 322.182437) scale(0.1 -0.1)">
       <defs>
        <path id="DejaVuSans-32" d="M 1228 531 
L 3431 531 
L 3431 0 
L 469 0 
L 469 531 
Q 828 903 1448 1529 
Q 2069 2156 2228 2338 
Q 2531 2678 2651 2914 
Q 2772 3150 2772 3378 
Q 2772 3750 2511 3984 
Q 2250 4219 1831 4219 
Q 1534 4219 1204 4116 
Q 875 4013 500 3803 
L 500 4441 
Q 881 4594 1212 4672 
Q 1544 4750 1819 4750 
Q 2544 4750 2975 4387 
Q 3406 4025 3406 3419 
Q 3406 3131 3298 2873 
Q 3191 2616 2906 2266 
Q 2828 2175 2409 1742 
Q 1991 1309 1228 531 
z
" transform="scale(0.015625)"/>
       </defs>
       <use xlink:href="#DejaVuSans-32"/>
       <use xlink:href="#DejaVuSans-2e" x="63.623047"/>
       <use xlink:href="#DejaVuSans-30" x="95.410156"/>
      </g>
     </g>
    </g>
    <g id="xtick_6">
     <g id="line2d_6">
      <g>
       <use xlink:href="#mf74ec612ee" x="307.017565" y="307.584" style="stroke: #000000; stroke-width: 0.8"/>
      </g>
     </g>
     <g id="text_6">
      <!-- 2.5 -->
      <g transform="translate(299.066002 322.182437) scale(0.1 -0.1)">
       <use xlink:href="#DejaVuSans-32"/>
       <use xlink:href="#DejaVuSans-2e" x="63.623047"/>
       <use xlink:href="#DejaVuSans-35" x="95.410156"/>
      </g>
     </g>
    </g>
    <g id="xtick_7">
     <g id="line2d_7">
      <g>
       <use xlink:href="#mf74ec612ee" x="353.657704" y="307.584" style="stroke: #000000; stroke-width: 0.8"/>
      </g>
     </g>
     <g id="text_7">
      <!-- 3.0 -->
      <g transform="translate(345.706141 322.182437) scale(0.1 -0.1)">
       <defs>
        <path id="DejaVuSans-33" d="M 2597 2516 
Q 3050 2419 3304 2112 
Q 3559 1806 3559 1356 
Q 3559 666 3084 287 
Q 2609 -91 1734 -91 
Q 1441 -91 1130 -33 
Q 819 25 488 141 
L 488 750 
Q 750 597 1062 519 
Q 1375 441 1716 441 
Q 2309 441 2620 675 
Q 2931 909 2931 1356 
Q 2931 1769 2642 2001 
Q 2353 2234 1838 2234 
L 1294 2234 
L 1294 2753 
L 1863 2753 
Q 2328 2753 2575 2939 
Q 2822 3125 2822 3475 
Q 2822 3834 2567 4026 
Q 2313 4219 1838 4219 
Q 1578 4219 1281 4162 
Q 984 4106 628 3988 
L 628 4550 
Q 988 4650 1302 4700 
Q 1616 4750 1894 4750 
Q 2613 4750 3031 4423 
Q 3450 4097 3450 3541 
Q 3450 3153 3228 2886 
Q 3006 2619 2597 2516 
z
" transform="scale(0.015625)"/>
       </defs>
       <use xlink:href="#DejaVuSans-33"/>
       <use xlink:href="#DejaVuSans-2e" x="63.623047"/>
       <use xlink:href="#DejaVuSans-30" x="95.410156"/>
      </g>
     </g>
    </g>
    <g id="xtick_8">
     <g id="line2d_8">
      <g>
       <use xlink:href="#mf74ec612ee" x="400.297843" y="307.584" style="stroke: #000000; stroke-width: 0.8"/>
      </g>
     </g>
     <g id="text_8">
      <!-- 3.5 -->
      <g transform="translate(392.34628 322.182437) scale(0.1 -0.1)">
       <use xlink:href="#DejaVuSans-33"/>
       <use xlink:href="#DejaVuSans-2e" x="63.623047"/>
       <use xlink:href="#DejaVuSans-35" x="95.410156"/>
      </g>
     </g>
    </g>
    <g id="text_9">
     <!-- 1e6 -->
     <g transform="translate(395.841875 334.860562) scale(0.1 -0.1)">
      <defs>
       <path id="DejaVuSans-65" d="M 3597 1894 
L 3597 1613 
L 953 1613 
Q 991 1019 1311 708 
Q 1631 397 2203 397 
Q 2534 397 2845 478 
Q 3156 559 3463 722 
L 3463 178 
Q 3153 47 2828 -22 
Q 2503 -91 2169 -91 
Q 1331 -91 842 396 
Q 353 884 353 1716 
Q 353 2575 817 3079 
Q 1281 3584 2069 3584 
Q 2775 3584 3186 3129 
Q 3597 2675 3597 1894 
z
M 3022 2063 
Q 3016 2534 2758 2815 
Q 2500 3097 2075 3097 
Q 1594 3097 1305 2825 
Q 1016 2553 972 2059 
L 3022 2063 
z
" transform="scale(0.015625)"/>
       <path id="DejaVuSans-36" d="M 2113 2584 
Q 1688 2584 1439 2293 
Q 1191 2003 1191 1497 
Q 1191 994 1439 701 
Q 1688 409 2113 409 
Q 2538 409 2786 701 
Q 3034 994 3034 1497 
Q 3034 2003 2786 2293 
Q 2538 2584 2113 2584 
z
M 3366 4563 
L 3366 3988 
Q 3128 4100 2886 4159 
Q 2644 4219 2406 4219 
Q 1781 4219 1451 3797 
Q 1122 3375 1075 2522 
Q 1259 2794 1537 2939 
Q 1816 3084 2150 3084 
Q 2853 3084 3261 2657 
Q 3669 2231 3669 1497 
Q 3669 778 3244 343 
Q 2819 -91 2113 -91 
Q 1303 -91 875 529 
Q 447 1150 447 2328 
Q 447 3434 972 4092 
Q 1497 4750 2381 4750 
Q 2619 4750 2861 4703 
Q 3103 4656 3366 4563 
z
" transform="scale(0.015625)"/>
      </defs>
      <use xlink:href="#DejaVuSans-31"/>
      <use xlink:href="#DejaVuSans-65" x="63.623047"/>
      <use xlink:href="#DejaVuSans-36" x="125.146484"/>
     </g>
    </g>
   </g>
   <g id="matplotlib.axis_2">
    <g id="ytick_1">
     <g id="line2d_9">
      <defs>
       <path id="m4fba0c1270" d="M 0 0 
L -3.5 0 
" style="stroke: #000000; stroke-width: 0.8"/>
      </defs>
      <g>
       <use xlink:href="#m4fba0c1270" x="57.6" y="295.488" style="stroke: #000000; stroke-width: 0.8"/>
      </g>
     </g>
     <g id="text_10">
      <!-- 0 -->
      <g transform="translate(44.2375 299.287219) scale(0.1 -0.1)">
       <use xlink:href="#DejaVuSans-30"/>
      </g>
     </g>
    </g>
    <g id="ytick_2">
     <g id="line2d_10">
      <g>
       <use xlink:href="#m4fba0c1270" x="57.6" y="240.506182" style="stroke: #000000; stroke-width: 0.8"/>
      </g>
     </g>
     <g id="text_11">
      <!-- 5 -->
      <g transform="translate(44.2375 244.305401) scale(0.1 -0.1)">
       <use xlink:href="#DejaVuSans-35"/>
      </g>
     </g>
    </g>
    <g id="ytick_3">
     <g id="line2d_11">
      <g>
       <use xlink:href="#m4fba0c1270" x="57.6" y="185.524364" style="stroke: #000000; stroke-width: 0.8"/>
      </g>
     </g>
     <g id="text_12">
      <!-- 10 -->
      <g transform="translate(37.875 189.323582) scale(0.1 -0.1)">
       <use xlink:href="#DejaVuSans-31"/>
       <use xlink:href="#DejaVuSans-30" x="63.623047"/>
      </g>
     </g>
    </g>
    <g id="ytick_4">
     <g id="line2d_12">
      <g>
       <use xlink:href="#m4fba0c1270" x="57.6" y="130.542545" style="stroke: #000000; stroke-width: 0.8"/>
      </g>
     </g>
     <g id="text_13">
      <!-- 15 -->
      <g transform="translate(37.875 134.341764) scale(0.1 -0.1)">
       <use xlink:href="#DejaVuSans-31"/>
       <use xlink:href="#DejaVuSans-35" x="63.623047"/>
      </g>
     </g>
    </g>
    <g id="ytick_5">
     <g id="line2d_13">
      <g>
       <use xlink:href="#m4fba0c1270" x="57.6" y="75.560727" style="stroke: #000000; stroke-width: 0.8"/>
      </g>
     </g>
     <g id="text_14">
      <!-- 20 -->
      <g transform="translate(37.875 79.359946) scale(0.1 -0.1)">
       <use xlink:href="#DejaVuSans-32"/>
       <use xlink:href="#DejaVuSans-30" x="63.623047"/>
      </g>
     </g>
    </g>
   </g>
   <g id="line2d_14">
    <path d="M 73.832727 284.491636 
L 74.112568 295.488 
L 74.159208 284.491636 
L 74.438116 295.488 
L 74.483824 284.491636 
L 74.762732 295.488 
L 74.809372 284.491636 
L 75.08828 295.488 
L 75.140517 284.491636 
L 75.420358 295.488 
L 75.466065 284.491636 
L 75.745906 295.488 
L 75.79068 284.491636 
L 76.069588 295.488 
L 76.114363 284.491636 
L 76.394204 295.488 
L 76.445508 284.491636 
L 76.725349 295.488 
L 76.774787 284.491636 
L 77.054628 295.488 
L 77.101268 284.491636 
L 77.381109 295.488 
L 77.428682 284.491636 
L 77.708523 295.488 
L 77.758894 284.491636 
L 78.037802 295.488 
L 78.088174 284.491636 
L 78.368014 295.488 
L 78.419319 284.491636 
L 78.699159 295.488 
L 78.741136 284.491636 
L 79.020044 295.488 
L 79.071348 284.491636 
L 79.350256 295.488 
L 79.400627 284.491636 
L 82.352015 185.524364 
L 85.017033 196.520727 
L 85.272621 295.488 
L 85.276352 284.491636 
L 85.556193 295.488 
L 85.59537 284.491636 
L 85.874278 295.488 
L 85.921851 284.491636 
L 86.200759 295.488 
L 86.243668 284.491636 
L 86.523509 295.488 
L 86.572948 284.491636 
L 86.851856 295.488 
L 86.897563 284.491636 
L 87.177404 295.488 
L 87.224044 284.491636 
L 87.503885 295.488 
L 87.555189 284.491636 
L 87.834097 295.488 
L 87.876073 284.491636 
L 88.155914 295.488 
L 88.202554 284.491636 
L 88.482395 295.488 
L 88.522505 284.491636 
L 88.801413 295.488 
L 88.846188 284.491636 
L 89.126029 295.488 
L 89.177333 284.491636 
L 89.457174 295.488 
L 89.49915 284.491636 
L 89.778058 295.488 
L 89.820034 284.491636 
L 90.099875 295.488 
L 90.151179 284.491636 
L 90.43102 295.488 
L 90.481391 284.491636 
L 90.761232 295.488 
L 90.812536 284.491636 
L 91.092377 295.488 
L 91.131555 284.491636 
L 91.410463 295.488 
L 91.45617 284.491636 
L 91.735078 295.488 
L 91.780786 284.491636 
L 92.060626 295.488 
L 92.114729 284.491636 
L 92.39457 295.488 
L 92.439344 284.491636 
L 92.719185 295.488 
L 92.762094 284.491636 
L 93.041002 295.488 
L 93.082978 284.491636 
L 93.362819 295.488 
L 93.407594 284.491636 
L 93.687434 295.488 
L 93.733142 284.491636 
L 94.012983 295.488 
L 94.054026 284.491636 
L 94.333867 295.488 
L 94.379574 284.491636 
L 94.659415 295.488 
L 94.708854 284.491636 
L 94.988694 295.488 
L 95.038133 284.491636 
L 95.317974 295.488 
L 95.361815 284.491636 
L 95.641656 295.488 
L 95.687364 284.491636 
L 95.966272 295.488 
L 96.012912 284.491636 
L 96.29182 295.488 
L 96.342191 284.491636 
L 96.622032 295.488 
L 96.665874 284.491636 
L 96.944782 295.488 
L 96.99422 284.491636 
L 97.274061 295.488 
L 97.324433 284.491636 
L 97.604273 295.488 
L 97.645317 284.491636 
L 97.925157 295.488 
L 97.973663 284.491636 
L 98.252571 295.488 
L 98.302943 284.491636 
L 98.582783 295.488 
L 98.627558 284.491636 
L 98.906466 295.488 
L 98.950308 284.491636 
L 99.229216 295.488 
L 99.275856 284.491636 
L 99.555697 295.488 
L 99.600471 284.491636 
L 99.880312 295.488 
L 99.921355 284.491636 
L 100.201196 295.488 
L 100.249702 284.491636 
L 100.52861 295.488 
L 100.573385 284.491636 
L 100.853225 295.488 
L 100.903597 284.491636 
L 101.183438 295.488 
L 101.234742 284.491636 
L 101.514583 295.488 
L 101.557492 284.491636 
L 101.837332 295.488 
L 101.889569 284.491636 
L 102.16941 295.488 
L 102.214185 284.491636 
L 102.494026 295.488 
L 102.539733 284.491636 
L 102.819574 295.488 
L 102.864348 284.491636 
L 103.143256 295.488 
L 103.1843 284.491636 
L 103.46414 295.488 
L 103.519176 284.491636 
L 103.799017 295.488 
L 103.844724 284.491636 
L 104.123632 295.488 
L 104.169339 284.491636 
L 104.448247 295.488 
L 104.499551 284.491636 
L 104.77846 295.488 
L 104.826965 284.491636 
L 105.106806 295.488 
L 105.157177 284.491636 
L 105.437018 295.488 
L 105.481793 284.491636 
L 105.760701 295.488 
L 105.80361 284.491636 
L 106.083451 295.488 
L 106.132889 284.491636 
L 106.41273 295.488 
L 106.458437 284.491636 
L 106.737345 295.488 
L 106.777456 284.491636 
L 107.057297 295.488 
L 107.10487 284.491636 
L 107.38471 295.488 
L 107.423888 284.491636 
L 107.703729 295.488 
L 107.752235 284.491636 
L 108.032076 295.488 
L 108.075917 284.491636 
L 108.355758 295.488 
L 108.402398 284.491636 
L 108.681306 295.488 
L 108.724215 284.491636 
L 109.003123 295.488 
L 109.047898 284.491636 
L 109.327739 295.488 
L 109.377177 284.491636 
L 109.657018 295.488 
L 109.70086 284.491636 
L 109.979768 295.488 
L 110.021744 284.491636 
L 110.301585 295.488 
L 110.354755 284.491636 
L 110.634595 295.488 
L 110.681236 284.491636 
L 110.961076 295.488 
L 111.014246 284.491636 
L 111.294087 295.488 
L 111.340727 284.491636 
L 111.620568 295.488 
L 112.522588 284.491636 
L 112.754856 273.495273 
L 112.802429 284.491636 
L 112.991788 273.495273 
L 113.034697 284.491636 
L 113.230586 273.495273 
L 113.270696 284.491636 
L 113.461921 273.495273 
L 113.509494 284.491636 
L 113.695121 273.495273 
L 113.740829 284.491636 
L 113.926456 273.495273 
L 113.974962 284.491636 
L 114.157791 273.495273 
L 114.206297 284.491636 
L 114.392858 273.495273 
L 114.437632 284.491636 
L 114.624193 273.495273 
L 114.672699 284.491636 
L 114.856461 273.495273 
L 114.903101 284.491636 
L 115.091527 273.495273 
L 115.136302 284.491636 
L 115.324728 273.495273 
L 115.371368 284.491636 
L 115.563525 273.495273 
L 115.604569 284.491636 
L 115.797659 273.495273 
L 115.843366 284.491636 
L 116.030859 273.495273 
L 116.076567 284.491636 
L 116.263127 273.495273 
L 116.3107 284.491636 
L 116.491664 273.495273 
L 116.542968 284.491636 
L 116.727663 273.495273 
L 116.771505 284.491636 
L 116.958065 273.495273 
L 117.007504 284.491636 
L 117.197796 273.495273 
L 117.236973 284.491636 
L 117.430064 273.495273 
L 117.477637 284.491636 
L 117.663264 273.495273 
L 117.709904 284.491636 
L 117.897398 273.495273 
L 117.943105 284.491636 
L 118.1278 273.495273 
L 118.177239 284.491636 
L 118.362866 273.495273 
L 118.407641 284.491636 
L 118.599798 273.495273 
L 118.642707 284.491636 
L 118.83673 273.495273 
L 118.878706 284.491636 
L 119.067133 273.495273 
L 119.116571 284.491636 
L 119.297535 273.495273 
L 119.346973 284.491636 
L 119.529803 273.495273 
L 119.577376 284.491636 
L 119.764869 273.495273 
L 119.809644 284.491636 
L 120.001801 273.495273 
L 120.043777 284.491636 
L 120.23127 273.495273 
L 120.280709 284.491636 
L 120.469135 273.495273 
L 120.511111 284.491636 
L 120.704201 273.495273 
L 120.748976 284.491636 
L 120.935536 273.495273 
L 120.984042 284.491636 
L 121.166872 273.495273 
L 121.215377 284.491636 
L 121.399139 273.495273 
L 121.446712 284.491636 
L 121.627676 273.495273 
L 121.67898 284.491636 
L 121.86181 273.495273 
L 121.907517 284.491636 
L 122.096876 273.495273 
L 122.14165 284.491636 
L 122.329144 273.495273 
L 122.376717 284.491636 
L 122.560479 273.495273 
L 122.608985 284.491636 
L 122.799276 273.495273 
L 122.84032 284.491636 
L 123.031544 273.495273 
L 123.079117 284.491636 
L 123.266611 273.495273 
L 123.311385 284.491636 
L 123.493282 273.495273 
L 123.546451 284.491636 
L 123.733012 273.495273 
L 123.773123 284.491636 
L 123.970877 273.495273 
L 124.01192 284.491636 
L 124.442875 262.498909 
L 124.469926 273.495273 
L 125.363551 229.509818 
L 128.147968 97.553455 
L 129.799029 108.549818 
L 130.115249 284.491636 
L 130.256102 273.495273 
L 130.30554 284.491636 
L 130.490235 273.495273 
L 130.535943 284.491636 
L 130.717839 273.495273 
L 130.770076 284.491636 
L 130.946376 273.495273 
L 130.99768 284.491636 
L 131.184241 273.495273 
L 131.226217 284.491636 
L 131.415576 273.495273 
L 131.464081 284.491636 
L 131.647844 273.495273 
L 131.694484 284.491636 
L 131.878246 273.495273 
L 131.927684 284.491636 
L 132.109581 273.495273 
L 132.157154 284.491636 
L 132.34558 273.495273 
L 132.389422 284.491636 
L 132.580646 273.495273 
L 132.625421 284.491636 
L 132.809183 273.495273 
L 132.859554 284.491636 
L 133.046115 273.495273 
L 133.089024 284.491636 
L 133.278383 273.495273 
L 133.325956 284.491636 
L 133.511584 273.495273 
L 133.558224 284.491636 
L 133.744784 273.495273 
L 133.791424 284.491636 
L 133.981716 273.495273 
L 134.024625 284.491636 
L 134.211186 273.495273 
L 134.260624 284.491636 
L 134.443454 273.495273 
L 134.490094 284.491636 
L 134.672923 273.495273 
L 134.722362 284.491636 
L 134.905191 273.495273 
L 134.951831 284.491636 
L 135.133728 273.495273 
L 135.184099 284.491636 
L 135.36413 273.495273 
L 135.413568 284.491636 
L 135.595465 273.495273 
L 135.643971 284.491636 
L 135.827733 273.495273 
L 135.875306 284.491636 
L 136.060001 273.495273 
L 136.107574 284.491636 
L 136.294134 273.495273 
L 136.339842 284.491636 
L 136.527335 273.495273 
L 136.573042 284.491636 
L 136.760536 273.495273 
L 136.807176 284.491636 
L 136.989072 273.495273 
L 137.040377 284.491636 
L 137.223206 273.495273 
L 137.268913 284.491636 
L 137.459205 273.495273 
L 137.502114 284.491636 
L 137.692406 273.495273 
L 137.738113 284.491636 
L 137.927472 273.495273 
L 137.971314 284.491636 
L 138.163471 273.495273 
L 138.20638 284.491636 
L 138.397605 273.495273 
L 138.443312 284.491636 
L 138.631738 273.495273 
L 138.677445 284.491636 
L 138.863073 273.495273 
L 138.911579 284.491636 
L 139.093475 273.495273 
L 139.142914 284.491636 
L 139.330407 273.495273 
L 139.373316 284.491636 
L 139.564541 273.495273 
L 139.610248 284.491636 
L 139.793078 273.495273 
L 139.844382 284.491636 
L 140.027211 273.495273 
L 140.072918 284.491636 
L 140.259479 273.495273 
L 140.307052 284.491636 
L 140.494545 273.495273 
L 140.53932 284.491636 
L 140.73241 273.495273 
L 140.774386 284.491636 
L 140.968409 273.495273 
L 141.012251 284.491636 
L 141.197879 273.495273 
L 141.24825 284.491636 
L 141.429214 273.495273 
L 141.477719 284.491636 
L 141.658683 273.495273 
L 141.708122 284.491636 
L 141.886287 273.495273 
L 141.938524 284.491636 
L 142.117622 273.495273 
L 142.166128 284.491636 
L 142.348024 273.495273 
L 142.397463 284.491636 
L 142.579359 273.495273 
L 142.627865 284.491636 
L 142.818157 273.495273 
L 142.8592 284.491636 
L 143.051358 273.495273 
L 143.097998 284.491636 
L 143.280827 273.495273 
L 143.331198 284.491636 
L 143.511229 273.495273 
L 143.560668 284.491636 
L 143.740699 273.495273 
L 143.790137 284.491636 
L 143.977631 273.495273 
L 144.02054 284.491636 
L 144.211764 273.495273 
L 144.257472 284.491636 
L 144.449629 273.495273 
L 144.490672 284.491636 
L 144.687494 273.495273 
L 144.72947 284.491636 
L 144.92256 273.495273 
L 144.967335 284.491636 
L 145.152962 273.495273 
L 145.202401 284.491636 
L 145.384297 273.495273 
L 145.432803 284.491636 
L 145.616565 273.495273 
L 145.664138 284.491636 
L 145.846035 273.495273 
L 145.895473 284.491636 
L 146.082967 273.495273 
L 146.125876 284.491636 
L 146.3171 273.495273 
L 146.362807 284.491636 
L 146.550301 273.495273 
L 146.596941 284.491636 
L 146.783502 273.495273 
L 146.829209 284.491636 
L 147.023232 273.495273 
L 147.06241 284.491636 
L 147.2555 273.495273 
L 147.30214 284.491636 
L 147.490566 273.495273 
L 147.535341 284.491636 
L 147.722834 273.495273 
L 147.770407 284.491636 
L 147.955102 273.495273 
L 148.002675 284.491636 
L 148.190168 273.495273 
L 148.23401 284.491636 
L 148.425234 273.495273 
L 148.470009 284.491636 
L 148.663099 273.495273 
L 148.705075 284.491636 
L 148.8963 273.495273 
L 148.94294 284.491636 
L 149.127635 273.495273 
L 149.175208 284.491636 
L 149.363634 273.495273 
L 149.406543 284.491636 
L 149.597768 273.495273 
L 149.643475 284.491636 
L 149.830035 273.495273 
L 149.877608 284.491636 
L 150.065102 273.495273 
L 150.109876 284.491636 
L 150.302966 273.495273 
L 150.344943 284.491636 
L 150.532436 273.495273 
L 150.582807 284.491636 
L 150.768435 273.495273 
L 150.812277 284.491636 
L 151.007233 273.495273 
L 151.048276 284.491636 
L 151.246963 273.495273 
L 151.287073 284.491636 
L 151.476432 273.495273 
L 151.526804 284.491636 
L 151.706835 273.495273 
L 151.756273 284.491636 
L 151.933506 273.495273 
L 151.985743 284.491636 
L 152.16111 273.495273 
L 152.213347 284.491636 
L 152.393377 273.495273 
L 152.44095 284.491636 
L 152.619116 273.495273 
L 152.673218 284.491636 
L 152.855115 273.495273 
L 152.898957 284.491636 
L 153.092047 273.495273 
L 153.134956 284.491636 
L 153.329911 273.495273 
L 153.370955 284.491636 
L 153.562179 273.495273 
L 153.609752 284.491636 
L 153.792582 273.495273 
L 153.841087 284.491636 
L 154.021118 273.495273 
L 154.07149 284.491636 
L 154.253386 273.495273 
L 154.300026 284.491636 
L 154.484721 273.495273 
L 154.533227 284.491636 
L 154.719788 273.495273 
L 154.764562 284.491636 
L 154.952056 273.495273 
L 154.998696 284.491636 
L 155.183391 273.495273 
L 155.231896 284.491636 
L 155.413793 273.495273 
L 155.463231 284.491636 
L 155.650725 273.495273 
L 155.693634 284.491636 
L 155.88206 273.495273 
L 155.930566 284.491636 
L 156.117126 273.495273 
L 156.161901 284.491636 
L 156.352192 273.495273 
L 156.396034 284.491636 
L 156.58446 273.495273 
L 156.632033 284.491636 
L 156.818594 273.495273 
L 156.864301 284.491636 
L 157.046198 273.495273 
L 157.098435 284.491636 
L 157.28313 273.495273 
L 157.326039 284.491636 
L 157.517263 273.495273 
L 157.562038 284.491636 
L 157.751397 273.495273 
L 157.796171 284.491636 
L 157.982732 273.495273 
L 158.031237 284.491636 
L 158.213134 273.495273 
L 158.262573 284.491636 
L 158.445402 273.495273 
L 158.492975 284.491636 
L 158.680468 273.495273 
L 158.725243 284.491636 
L 158.910871 273.495273 
L 158.960309 284.491636 
L 159.143138 273.495273 
L 159.189779 284.491636 
L 159.375406 273.495273 
L 159.422979 284.491636 
L 159.611405 273.495273 
L 159.655247 284.491636 
L 159.845539 273.495273 
L 159.891246 284.491636 
L 160.077807 273.495273 
L 160.124447 284.491636 
L 160.305411 273.495273 
L 160.357648 284.491636 
L 160.540477 273.495273 
L 160.584319 284.491636 
L 160.773678 273.495273 
L 160.820318 284.491636 
L 161.007811 273.495273 
L 161.052586 284.491636 
L 161.244743 273.495273 
L 161.287652 284.491636 
L 161.481675 273.495273 
L 161.523651 284.491636 
L 161.71301 273.495273 
L 161.761516 284.491636 
L 161.950875 273.495273 
L 161.992851 284.491636 
L 162.185941 273.495273 
L 162.230716 284.491636 
L 162.416343 273.495273 
L 162.464849 284.491636 
L 162.64488 273.495273 
L 162.696184 284.491636 
L 162.876215 273.495273 
L 162.924721 284.491636 
L 163.104752 273.495273 
L 163.156056 284.491636 
L 163.335154 273.495273 
L 163.384593 284.491636 
L 163.571153 273.495273 
L 163.614062 284.491636 
L 163.805287 273.495273 
L 163.850994 284.491636 
L 164.032891 273.495273 
L 164.084195 284.491636 
L 164.267957 273.495273 
L 164.311799 284.491636 
L 164.501158 273.495273 
L 164.546865 284.491636 
L 164.732493 273.495273 
L 164.780998 284.491636 
L 164.961029 273.495273 
L 165.012333 284.491636 
L 165.197028 273.495273 
L 165.239937 284.491636 
L 165.431162 273.495273 
L 165.476869 284.491636 
L 165.665295 273.495273 
L 165.711003 284.491636 
L 165.899429 273.495273 
L 165.945136 284.491636 
L 166.130764 273.495273 
L 166.178337 284.491636 
L 166.363965 273.495273 
L 166.410605 284.491636 
L 166.599964 273.495273 
L 166.643806 284.491636 
L 166.837829 273.495273 
L 166.879805 284.491636 
L 167.077559 273.495273 
L 167.117669 284.491636 
L 167.307961 273.495273 
L 167.356467 284.491636 
L 167.544893 273.495273 
L 167.586869 284.491636 
L 167.779959 273.495273 
L 167.824734 284.491636 
L 168.012227 273.495273 
L 168.058867 284.491636 
L 168.239831 273.495273 
L 168.291135 284.491636 
L 168.466502 273.495273 
L 168.519672 284.491636 
L 168.701568 273.495273 
L 168.746343 284.491636 
L 168.9385 273.495273 
L 168.981409 284.491636 
L 169.171701 273.495273 
L 169.217408 284.491636 
L 169.405835 273.495273 
L 169.450609 284.491636 
L 169.641834 273.495273 
L 169.684743 284.491636 
L 169.874102 273.495273 
L 169.921675 284.491636 
L 170.112899 273.495273 
L 170.153942 284.491636 
L 170.345167 273.495273 
L 170.391807 284.491636 
L 170.581166 273.495273 
L 170.625008 284.491636 
L 170.814367 273.495273 
L 170.861007 284.491636 
L 171.045702 273.495273 
L 171.093275 284.491636 
L 171.279835 273.495273 
L 171.325543 284.491636 
L 171.513036 273.495273 
L 171.559676 284.491636 
L 171.74717 273.495273 
L 171.792877 284.491636 
L 171.985034 273.495273 
L 172.02701 284.491636 
L 172.215437 273.495273 
L 172.264875 284.491636 
L 172.445839 273.495273 
L 172.495277 284.491636 
L 172.681838 273.495273 
L 172.72568 284.491636 
L 172.910375 273.495273 
L 172.961679 284.491636 
L 173.138911 273.495273 
L 173.190215 284.491636 
L 173.371179 273.495273 
L 173.418752 284.491636 
L 173.598783 273.495273 
L 173.650087 284.491636 
L 173.830118 273.495273 
L 173.878624 284.491636 
L 174.057722 273.495273 
L 174.109959 284.491636 
L 174.290923 273.495273 
L 174.337563 284.491636 
L 174.761055 262.498909 
L 174.783443 273.495273 
L 175.932656 218.513455 
L 178.265595 108.549818 
L 180.398915 119.546182 
L 180.627452 284.491636 
L 180.82987 273.495273 
L 180.875578 284.491636 
L 181.062138 273.495273 
L 181.109711 284.491636 
L 181.293473 273.495273 
L 181.341979 284.491636 
L 181.525741 273.495273 
L 181.573314 284.491636 
L 181.752412 273.495273 
L 181.805582 284.491636 
L 181.982814 273.495273 
L 182.032253 284.491636 
L 182.213217 273.495273 
L 182.261723 284.491636 
L 182.446417 273.495273 
L 182.492125 284.491636 
L 182.679618 273.495273 
L 182.725326 284.491636 
L 182.917483 273.495273 
L 182.959459 284.491636 
L 183.151616 273.495273 
L 183.197324 284.491636 
L 183.431457 295.488 
L 184.131992 284.491636 
L 184.411833 295.488 
L 184.451011 284.491636 
L 184.730851 295.488 
L 184.784021 284.491636 
L 185.063862 295.488 
L 185.111435 284.491636 
L 185.391276 295.488 
L 185.440714 284.491636 
L 185.720555 295.488 
L 185.770927 284.491636 
L 188.698062 185.524364 
L 191.35655 196.520727 
L 191.608406 185.524364 
L 196.953366 196.520727 
L 197.208954 284.491636 
L 197.408574 295.488 
L 197.458013 284.491636 
L 197.737853 295.488 
L 197.778897 284.491636 
L 198.058738 295.488 
L 198.113773 284.491636 
L 198.393614 295.488 
L 198.438388 284.491636 
L 198.718229 295.488 
L 198.762071 284.491636 
L 199.040979 295.488 
L 199.089485 284.491636 
L 199.369326 295.488 
L 199.410369 284.491636 
L 199.69021 295.488 
L 199.740581 284.491636 
L 200.020422 295.488 
L 200.056801 284.491636 
L 200.336642 295.488 
L 200.384215 284.491636 
L 200.663123 295.488 
L 200.707898 284.491636 
L 200.987738 295.488 
L 201.041841 284.491636 
L 201.320749 295.488 
L 201.358994 284.491636 
L 201.638835 295.488 
L 201.689206 284.491636 
L 201.969047 295.488 
L 202.01009 284.491636 
L 202.288998 295.488 
L 202.331907 284.491636 
L 205.284228 185.524364 
L 208.156328 196.520727 
L 208.40352 207.517091 
L 208.63299 284.491636 
L 208.807424 295.488 
L 208.859661 284.491636 
L 209.139502 295.488 
L 209.193604 284.491636 
L 209.473445 295.488 
L 209.528481 284.491636 
L 209.808321 295.488 
L 209.862424 284.491636 
L 210.142265 295.488 
L 210.181443 284.491636 
L 210.460351 295.488 
L 210.506058 284.491636 
L 210.784966 295.488 
L 210.824144 284.491636 
L 211.103985 295.488 
L 211.146893 284.491636 
L 211.426734 295.488 
L 211.473374 284.491636 
L 211.753215 295.488 
L 211.803587 284.491636 
L 212.083427 295.488 
L 212.128202 284.491636 
L 212.408043 295.488 
L 212.45375 284.491636 
L 212.733591 295.488 
L 212.782097 284.491636 
L 213.061938 295.488 
L 213.111376 284.491636 
L 213.391217 295.488 
L 213.440655 284.491636 
L 213.719564 295.488 
L 213.767136 284.491636 
L 214.046044 295.488 
L 214.088953 284.491636 
L 214.368794 295.488 
L 214.425695 284.491636 
L 214.705536 295.488 
L 214.742848 284.491636 
L 215.022689 295.488 
L 215.0628 284.491636 
L 215.34264 295.488 
L 215.387415 284.491636 
L 215.667256 295.488 
L 215.71203 284.491636 
L 215.991871 295.488 
L 216.031982 284.491636 
L 216.31089 295.488 
L 216.354731 284.491636 
L 216.634572 295.488 
L 216.681212 284.491636 
L 216.961053 295.488 
L 217.012357 284.491636 
L 217.292198 295.488 
L 217.33604 284.491636 
L 217.615881 295.488 
L 217.667185 284.491636 
L 217.946093 295.488 
L 217.989935 284.491636 
L 218.269775 295.488 
L 218.311752 284.491636 
L 218.591592 295.488 
L 218.638233 284.491636 
L 218.918073 295.488 
L 218.968445 284.491636 
L 219.248286 295.488 
L 219.290262 284.491636 
L 219.570103 295.488 
L 219.619541 284.491636 
L 219.898449 295.488 
L 219.954417 284.491636 
L 220.233325 295.488 
L 220.285562 284.491636 
L 220.565403 295.488 
L 220.614842 284.491636 
L 220.894682 295.488 
L 220.941323 284.491636 
L 221.220231 295.488 
L 221.271535 284.491636 
L 221.551376 295.488 
L 221.59615 284.491636 
L 221.875058 295.488 
L 221.927295 284.491636 
L 222.207136 295.488 
L 222.252843 284.491636 
L 222.531751 295.488 
L 222.583056 284.491636 
L 222.862896 295.488 
L 222.902074 284.491636 
L 223.181915 295.488 
L 223.222958 284.491636 
L 223.502799 295.488 
L 223.549439 284.491636 
L 223.82928 295.488 
L 223.877786 284.491636 
L 224.157627 295.488 
L 224.207065 284.491636 
L 224.486906 295.488 
L 224.529815 284.491636 
L 224.809656 295.488 
L 224.85443 284.491636 
L 225.134271 295.488 
L 225.182777 284.491636 
L 225.462618 295.488 
L 225.513922 284.491636 
L 225.793763 295.488 
L 225.830142 284.491636 
L 226.109983 295.488 
L 226.16222 284.491636 
L 226.442061 295.488 
L 226.487768 284.491636 
L 226.766676 295.488 
L 226.814249 284.491636 
L 227.09409 295.488 
L 227.146327 284.491636 
L 227.425235 295.488 
L 227.478405 284.491636 
L 227.758245 295.488 
L 227.795557 284.491636 
L 228.075398 295.488 
L 228.127635 284.491636 
L 228.407476 295.488 
L 228.456915 284.491636 
L 228.736755 295.488 
L 228.78153 284.491636 
L 229.060438 295.488 
L 229.106145 284.491636 
L 229.385986 295.488 
L 229.441022 284.491636 
L 229.762839 273.495273 
L 230.932573 262.498909 
L 234.084514 75.560727 
L 236.135747 86.557091 
L 236.146941 75.560727 
L 236.197312 119.546182 
L 236.426782 284.491636 
L 236.521927 273.495273 
L 236.616141 284.491636 
L 236.708488 273.495273 
L 236.801768 284.491636 
L 236.895981 273.495273 
L 236.988329 284.491636 
L 237.08534 273.495273 
L 237.174889 284.491636 
L 237.267237 273.495273 
L 237.364248 284.491636 
L 237.457529 273.495273 
L 237.547078 284.491636 
L 237.645022 273.495273 
L 237.73737 284.491636 
L 237.832515 273.495273 
L 237.924863 284.491636 
L 238.018143 273.495273 
L 238.112356 284.491636 
L 238.202838 273.495273 
L 238.297984 284.491636 
L 238.390331 273.495273 
L 238.482679 284.491636 
L 238.577825 273.495273 
L 238.670172 284.491636 
L 238.764385 273.495273 
L 238.857666 284.491636 
L 238.950946 273.495273 
L 239.044226 284.491636 
L 239.137506 273.495273 
L 239.230787 284.491636 
L 239.320336 273.495273 
L 239.417347 284.491636 
L 239.509695 273.495273 
L 239.599244 284.491636 
L 239.69439 273.495273 
L 239.788603 284.491636 
L 239.882816 273.495273 
L 239.974231 284.491636 
L 240.067511 273.495273 
L 240.162657 284.491636 
L 240.254071 273.495273 
L 240.347352 284.491636 
L 240.436901 273.495273 
L 240.533912 284.491636 
L 240.622529 273.495273 
L 240.716742 284.491636 
L 240.808156 273.495273 
L 240.902369 284.491636 
L 240.996582 273.495273 
L 241.087997 284.491636 
L 241.180345 273.495273 
L 241.27549 284.491636 
L 241.365972 273.495273 
L 241.460185 284.491636 
L 241.549734 273.495273 
L 241.645813 284.491636 
L 241.736295 273.495273 
L 241.829575 284.491636 
L 241.918192 273.495273 
L 242.016136 284.491636 
L 242.103819 273.495273 
L 242.1971 284.491636 
L 242.286649 273.495273 
L 242.38366 284.491636 
L 242.475075 273.495273 
L 242.566489 284.491636 
L 242.658837 273.495273 
L 242.754916 284.491636 
L 242.84633 273.495273 
L 242.938678 284.491636 
L 243.032891 273.495273 
L 243.125238 284.491636 
L 243.218519 273.495273 
L 243.312732 284.491636 
L 243.407878 273.495273 
L 243.498359 284.491636 
L 243.59164 273.495273 
L 243.686786 284.491636 
L 243.775402 273.495273 
L 243.871481 284.491636 
L 243.962895 273.495273 
L 244.055243 284.491636 
L 244.145725 273.495273 
L 244.242736 284.491636 
L 244.327621 273.495273 
L 244.425565 284.491636 
L 244.515115 273.495273 
L 244.607462 284.491636 
L 244.697011 273.495273 
L 244.794023 284.491636 
L 244.882639 273.495273 
L 244.976852 284.491636 
L 245.068267 273.495273 
L 245.161547 284.491636 
L 245.251096 273.495273 
L 245.347175 284.491636 
L 245.438589 273.495273 
L 245.530004 284.491636 
L 245.620486 273.495273 
L 245.71843 284.491636 
L 245.812643 273.495273 
L 245.900327 284.491636 
L 245.997338 273.495273 
L 246.092484 284.491636 
L 246.1811 273.495273 
L 246.277179 284.491636 
L 246.364862 273.495273 
L 246.460008 284.491636 
L 246.55049 273.495273 
L 246.64377 284.491636 
L 246.737984 273.495273 
L 246.829398 284.491636 
L 246.922678 273.495273 
L 247.016892 284.491636 
L 247.111105 273.495273 
L 247.202519 284.491636 
L 247.301396 273.495273 
L 247.390945 284.491636 
L 247.487957 273.495273 
L 247.581237 284.491636 
L 247.67545 273.495273 
L 247.767798 284.491636 
L 247.862011 273.495273 
L 247.955291 284.491636 
L 248.047639 273.495273 
L 248.141852 284.491636 
L 248.233266 273.495273 
L 248.327479 284.491636 
L 248.424491 273.495273 
L 248.512174 284.491636 
L 248.61385 273.495273 
L 248.704332 284.491636 
L 248.799478 273.495273 
L 248.893691 284.491636 
L 248.982307 273.495273 
L 249.078386 284.491636 
L 249.164204 273.495273 
L 249.262148 284.491636 
L 249.354495 273.495273 
L 249.444044 284.491636 
L 249.540123 273.495273 
L 249.634336 284.491636 
L 249.725751 273.495273 
L 249.819964 284.491636 
L 249.913244 273.495273 
L 250.005592 284.491636 
L 250.10167 273.495273 
L 250.193085 284.491636 
L 250.287298 273.495273 
L 250.381511 284.491636 
L 250.473859 273.495273 
L 250.566206 284.491636 
L 250.661352 273.495273 
L 250.7537 284.491636 
L 250.848845 273.495273 
L 250.941193 284.491636 
L 251.036339 273.495273 
L 251.128686 284.491636 
L 251.221967 273.495273 
L 251.31618 284.491636 
L 251.408527 273.495273 
L 251.501807 284.491636 
L 251.596953 273.495273 
L 251.687435 284.491636 
L 251.785379 273.495273 
L 251.875861 284.491636 
L 251.97194 273.495273 
L 252.064287 284.491636 
L 252.159433 273.495273 
L 252.250848 284.491636 
L 252.346927 273.495273 
L 252.438341 284.491636 
L 252.532554 273.495273 
L 252.625835 284.491636 
L 252.719115 273.495273 
L 252.811462 284.491636 
L 252.908474 273.495273 
L 252.998023 284.491636 
L 253.094102 273.495273 
L 253.188315 284.491636 
L 253.280662 273.495273 
L 253.373943 284.491636 
L 253.470954 273.495273 
L 253.55957 284.491636 
L 253.658447 273.495273 
L 253.749862 284.491636 
L 253.847806 273.495273 
L 253.938288 284.491636 
L 254.031568 273.495273 
L 254.126714 284.491636 
L 254.215331 273.495273 
L 254.311409 284.491636 
L 254.401891 273.495273 
L 254.495171 284.491636 
L 254.592183 273.495273 
L 254.681732 284.491636 
L 254.779676 273.495273 
L 254.872024 284.491636 
L 254.964371 273.495273 
L 255.059517 284.491636 
L 255.148133 273.495273 
L 255.244212 284.491636 
L 255.338425 273.495273 
L 255.427041 284.491636 
L 255.525919 273.495273 
L 255.618266 284.491636 
L 255.711546 273.495273 
L 255.805759 284.491636 
L 255.897174 273.495273 
L 255.991387 284.491636 
L 256.086533 273.495273 
L 256.177015 284.491636 
L 256.274959 273.495273 
L 256.366374 284.491636 
L 256.455923 273.495273 
L 256.5548 284.491636 
L 256.644349 273.495273 
L 256.735764 284.491636 
L 256.835574 273.495273 
L 256.923257 284.491636 
L 257.024 273.495273 
L 257.115414 284.491636 
L 257.21056 273.495273 
L 257.303841 284.491636 
L 257.398987 273.495273 
L 257.490401 284.491636 
L 257.587413 273.495273 
L 257.677895 284.491636 
L 257.776772 273.495273 
L 257.867254 284.491636 
L 257.964265 273.495273 
L 258.056612 284.491636 
L 258.152691 273.495273 
L 258.244106 284.491636 
L 258.342983 273.495273 
L 258.431599 284.491636 
L 258.531409 273.495273 
L 258.621891 284.491636 
L 258.721701 273.495273 
L 258.81125 284.491636 
L 258.90453 273.495273 
L 259.000609 284.491636 
L 259.094822 273.495273 
L 259.184371 284.491636 
L 259.281383 273.495273 
L 259.374663 284.491636 
L 259.653571 262.498909 
L 259.729128 273.495273 
L 260.031356 251.502545 
L 263.382916 53.568 
L 264.113301 64.564364 
L 264.405268 284.491636 
L 264.501347 273.495273 
L 264.593694 284.491636 
L 264.686975 273.495273 
L 264.780255 284.491636 
L 264.869804 273.495273 
L 264.965883 284.491636 
L 265.059163 273.495273 
L 265.149645 284.491636 
L 265.246656 273.495273 
L 265.339004 284.491636 
L 265.436948 273.495273 
L 265.525564 284.491636 
L 265.618845 273.495273 
L 265.716789 284.491636 
L 265.804472 273.495273 
L 265.898685 284.491636 
L 265.991033 273.495273 
L 266.084313 284.491636 
L 266.174795 273.495273 
L 266.270874 284.491636 
L 266.362288 273.495273 
L 266.454636 284.491636 
L 266.544185 273.495273 
L 266.642129 284.491636 
L 266.72888 273.495273 
L 266.823093 284.491636 
L 266.914508 273.495273 
L 267.008721 284.491636 
L 267.102934 273.495273 
L 267.193416 284.491636 
L 267.285763 273.495273 
L 267.381842 284.491636 
L 267.470458 273.495273 
L 267.564671 284.491636 
L 267.657019 273.495273 
L 267.750299 284.491636 
L 267.843579 273.495273 
L 267.93686 284.491636 
L 268.027341 273.495273 
L 268.12342 284.491636 
L 268.212969 273.495273 
L 268.307182 284.491636 
L 268.394866 273.495273 
L 268.49281 284.491636 
L 268.584225 273.495273 
L 268.674707 284.491636 
L 268.771718 273.495273 
L 268.864065 284.491636 
L 268.959211 273.495273 
L 269.051559 284.491636 
L 269.147638 273.495273 
L 269.238119 284.491636 
L 269.332332 273.495273 
L 269.426546 284.491636 
L 269.522624 273.495273 
L 269.612173 284.491636 
L 269.900409 262.498909 
L 269.972235 273.495273 
L 270.274463 251.502545 
L 273.633486 53.568 
L 275.311598 64.564364 
L 275.550396 284.491636 
L 275.674459 273.495273 
L 275.77147 284.491636 
L 275.861019 273.495273 
L 275.954299 284.491636 
L 276.046647 273.495273 
L 276.14086 284.491636 
L 276.229476 273.495273 
L 276.326488 284.491636 
L 276.41697 273.495273 
L 276.509317 284.491636 
L 276.60353 273.495273 
L 276.69681 284.491636 
L 276.792889 273.495273 
L 276.883371 284.491636 
L 276.980382 273.495273 
L 277.071797 284.491636 
L 277.16601 273.495273 
L 277.260223 284.491636 
L 277.349772 273.495273 
L 277.445851 284.491636 
L 277.532602 273.495273 
L 277.62868 284.491636 
L 277.719162 273.495273 
L 277.812443 284.491636 
L 277.909454 273.495273 
L 277.999003 284.491636 
L 278.095082 273.495273 
L 278.189295 284.491636 
L 278.283508 273.495273 
L 278.374923 284.491636 
L 278.472867 273.495273 
L 278.563349 284.491636 
L 278.657562 273.495273 
L 278.752708 284.491636 
L 278.844122 273.495273 
L 278.937403 284.491636 
L 279.032549 273.495273 
L 279.123963 284.491636 
L 279.215378 273.495273 
L 279.312389 284.491636 
L 279.402871 273.495273 
L 279.495219 284.491636 
L 279.591297 273.495273 
L 279.682712 284.491636 
L 279.772261 273.495273 
L 279.870206 284.491636 
L 279.956023 273.495273 
L 280.051169 284.491636 
L 280.143517 273.495273 
L 280.235864 284.491636 
L 280.331943 273.495273 
L 280.423358 284.491636 
L 280.515705 273.495273 
L 280.611784 284.491636 
L 280.702266 273.495273 
L 280.795546 284.491636 
L 280.886961 273.495273 
L 280.982106 284.491636 
L 281.073521 273.495273 
L 281.166801 284.491636 
L 281.265678 273.495273 
L 281.353362 284.491636 
L 281.453172 273.495273 
L 281.544586 284.491636 
L 281.641598 273.495273 
L 281.733013 284.491636 
L 281.827226 273.495273 
L 281.920506 284.491636 
L 282.012853 273.495273 
L 282.107067 284.491636 
L 282.198481 273.495273 
L 282.292694 284.491636 
L 282.382243 273.495273 
L 282.478322 284.491636 
L 282.568804 273.495273 
L 282.662084 284.491636 
L 282.756297 273.495273 
L 282.848645 284.491636 
L 282.942858 273.495273 
L 283.036138 284.491636 
L 283.125687 273.495273 
L 283.221766 284.491636 
L 283.308517 273.495273 
L 283.404595 284.491636 
L 283.493212 273.495273 
L 283.588357 284.491636 
L 283.675108 273.495273 
L 283.77212 284.491636 
L 283.867265 273.495273 
L 283.954949 284.491636 
L 284.053826 273.495273 
L 284.146173 284.491636 
L 284.239454 273.495273 
L 284.332734 284.491636 
L 284.429746 273.495273 
L 284.519295 284.491636 
L 284.617239 273.495273 
L 284.708654 284.491636 
L 284.802867 273.495273 
L 284.89708 284.491636 
L 284.988494 273.495273 
L 285.082707 284.491636 
L 285.171324 273.495273 
L 285.268335 284.491636 
L 285.361615 273.495273 
L 285.451165 284.491636 
L 285.547243 273.495273 
L 285.641456 284.491636 
L 285.733804 273.495273 
L 285.827084 284.491636 
L 285.920364 273.495273 
L 286.012712 284.491636 
L 286.107858 273.495273 
L 286.200205 284.491636 
L 286.289754 273.495273 
L 286.386766 284.491636 
L 286.667539 262.498909 
L 286.743096 273.495273 
L 287.04719 251.502545 
L 290.41181 53.568 
L 292.102048 64.564364 
L 292.289542 53.568 
L 297.698865 64.564364 
L 297.937663 284.491636 
L 298.043069 273.495273 
L 298.139148 284.491636 
L 298.22963 273.495273 
L 298.321977 284.491636 
L 298.417123 273.495273 
L 298.509471 284.491636 
L 298.604617 273.495273 
L 298.696964 284.491636 
L 298.789312 273.495273 
L 298.883525 284.491636 
L 298.972141 273.495273 
L 299.069152 284.491636 
L 299.158701 273.495273 
L 299.251982 284.491636 
L 299.342464 273.495273 
L 299.438542 284.491636 
L 299.531823 273.495273 
L 299.622304 284.491636 
L 299.716517 273.495273 
L 299.810731 284.491636 
L 299.906809 273.495273 
L 299.995426 284.491636 
L 300.090571 273.495273 
L 300.185717 284.491636 
L 300.274334 273.495273 
L 300.370412 284.491636 
L 300.459028 273.495273 
L 300.554174 284.491636 
L 300.641858 273.495273 
L 300.737937 284.491636 
L 300.830284 273.495273 
L 300.921699 284.491636 
L 301.019643 273.495273 
L 301.109192 284.491636 
L 301.20154 273.495273 
L 301.298551 284.491636 
L 301.389966 273.495273 
L 301.48138 284.491636 
L 301.573728 273.495273 
L 301.669806 284.491636 
L 301.756557 273.495273 
L 301.853569 284.491636 
L 301.942185 273.495273 
L 302.035465 284.491636 
L 302.128745 273.495273 
L 302.222026 284.491636 
L 302.311575 273.495273 
L 302.408586 284.491636 
L 302.493471 273.495273 
L 302.590483 284.491636 
L 302.68283 273.495273 
L 302.773312 284.491636 
L 302.869391 273.495273 
L 302.962671 284.491636 
L 303.054086 273.495273 
L 303.148299 284.491636 
L 303.244378 273.495273 
L 303.332994 284.491636 
L 303.429073 273.495273 
L 303.524218 284.491636 
L 303.613767 273.495273 
L 303.708913 284.491636 
L 303.796597 273.495273 
L 303.892676 284.491636 
L 303.985956 273.495273 
L 304.076438 284.491636 
L 304.169718 273.495273 
L 304.265797 284.491636 
L 304.352547 273.495273 
L 304.449559 284.491636 
L 304.536309 273.495273 
L 304.632388 284.491636 
L 304.726601 273.495273 
L 304.81615 284.491636 
L 304.907565 273.495273 
L 305.006442 284.491636 
L 305.095058 273.495273 
L 305.187406 284.491636 
L 305.282552 273.495273 
L 305.374899 284.491636 
L 305.468179 273.495273 
L 305.562393 284.491636 
L 305.652874 273.495273 
L 305.74802 284.491636 
L 305.834771 273.495273 
L 305.932715 284.491636 
L 306.0176 273.495273 
L 306.113679 284.491636 
L 306.208825 273.495273 
L 306.296508 284.491636 
L 306.390721 273.495273 
L 306.487733 284.491636 
L 306.577282 273.495273 
L 306.670562 284.491636 
L 306.760111 273.495273 
L 306.85619 284.491636 
L 306.944806 273.495273 
L 307.039952 284.491636 
L 307.1323 273.495273 
L 307.224647 284.491636 
L 307.316062 273.495273 
L 307.411208 284.491636 
L 307.498891 273.495273 
L 307.595903 284.491636 
L 307.686384 273.495273 
L 307.778732 284.491636 
L 307.872945 273.495273 
L 307.966225 284.491636 
L 308.054842 273.495273 
L 308.152786 284.491636 
L 308.238604 273.495273 
L 308.334682 284.491636 
L 308.423299 273.495273 
L 308.518445 284.491636 
L 308.612658 273.495273 
L 308.703139 284.491636 
L 308.803882 273.495273 
L 308.892498 284.491636 
L 308.98951 273.495273 
L 309.268418 295.488 
L 310.471734 284.491636 
L 310.751574 295.488 
L 310.797282 284.491636 
L 311.077123 295.488 
L 311.125628 284.491636 
L 311.405469 295.488 
L 311.450244 284.491636 
L 311.730084 295.488 
L 311.773926 284.491636 
L 312.053767 295.488 
L 312.098542 284.491636 
L 312.378382 295.488 
L 312.430619 284.491636 
L 312.71046 295.488 
L 312.758966 284.491636 
L 313.038807 295.488 
L 313.090111 284.491636 
L 313.369019 295.488 
L 313.412861 284.491636 
L 313.691769 295.488 
L 313.738409 284.491636 
L 314.017317 295.488 
L 314.059293 284.491636 
L 314.339134 295.488 
L 314.38764 284.491636 
L 314.66748 295.488 
L 314.713188 284.491636 
L 314.993029 295.488 
L 315.044333 284.491636 
L 315.324174 295.488 
L 315.368015 284.491636 
L 315.647856 295.488 
L 315.698228 284.491636 
L 315.977136 295.488 
L 316.026574 284.491636 
L 316.306415 295.488 
L 316.349324 284.491636 
L 316.628232 295.488 
L 316.673939 284.491636 
L 316.952847 295.488 
L 316.996689 284.491636 
L 317.27653 295.488 
L 317.325968 284.491636 
L 317.605809 295.488 
L 317.652449 284.491636 
L 317.93229 295.488 
L 317.981729 284.491636 
L 318.26157 295.488 
L 318.30168 284.491636 
L 318.581521 295.488 
L 318.625363 284.491636 
L 318.905203 295.488 
L 318.954642 284.491636 
L 319.234483 295.488 
L 319.282056 284.491636 
L 319.561897 295.488 
L 319.60947 284.491636 
L 319.88931 295.488 
L 319.938749 284.491636 
L 320.21859 295.488 
L 320.273625 284.491636 
L 320.553466 295.488 
L 320.607569 284.491636 
L 320.886477 295.488 
L 320.934982 284.491636 
L 321.214823 295.488 
L 321.266127 284.491636 
L 321.545968 295.488 
L 321.594474 284.491636 
L 321.874315 295.488 
L 321.920955 284.491636 
L 322.199863 295.488 
L 322.241839 284.491636 
L 322.520747 295.488 
L 322.559925 284.491636 
L 322.839766 295.488 
L 322.888271 284.491636 
L 323.168112 295.488 
L 323.216618 284.491636 
L 323.496459 295.488 
L 323.549629 284.491636 
L 323.829469 295.488 
L 323.879841 284.491636 
L 324.159682 295.488 
L 324.214717 284.491636 
L 324.494558 295.488 
L 324.546795 284.491636 
L 324.826636 295.488 
L 324.876074 284.491636 
L 325.154982 295.488 
L 325.197891 284.491636 
L 325.477732 295.488 
L 325.526238 284.491636 
L 328.47576 185.524364 
L 331.276967 196.520727 
L 331.532555 284.491636 
L 331.69393 295.488 
L 331.74057 284.491636 
L 332.020411 295.488 
L 332.071715 284.491636 
L 332.351556 295.488 
L 332.39633 284.491636 
L 332.675238 295.488 
L 332.720013 284.491636 
L 332.999853 295.488 
L 333.044628 284.491636 
L 333.324469 295.488 
L 333.379504 284.491636 
L 333.658412 295.488 
L 333.707851 284.491636 
L 333.987692 295.488 
L 334.028735 284.491636 
L 334.308576 295.488 
L 334.355216 284.491636 
L 334.634124 295.488 
L 334.681697 284.491636 
L 334.960605 295.488 
L 335.01564 284.491636 
L 335.294548 295.488 
L 335.339323 284.491636 
L 335.619164 295.488 
L 335.671401 284.491636 
L 335.950309 295.488 
L 335.991352 284.491636 
L 336.271193 295.488 
L 336.321564 284.491636 
L 336.600472 295.488 
L 336.648978 284.491636 
L 336.928819 295.488 
L 336.980123 284.491636 
L 337.259964 295.488 
L 337.301007 284.491636 
L 337.580848 295.488 
L 337.62469 284.491636 
L 337.904531 295.488 
L 337.950238 284.491636 
L 338.230079 295.488 
L 338.282316 284.491636 
L 338.561224 295.488 
L 338.607864 284.491636 
L 338.887705 295.488 
L 338.932479 284.491636 
L 339.21232 295.488 
L 339.261759 284.491636 
L 339.541599 295.488 
L 339.583576 284.491636 
L 339.863416 295.488 
L 339.906325 284.491636 
L 340.186166 295.488 
L 340.234672 284.491636 
L 340.51358 295.488 
L 340.561153 284.491636 
L 340.840994 295.488 
L 340.883903 284.491636 
L 341.163743 295.488 
L 341.209451 284.491636 
L 341.489292 295.488 
L 341.542461 284.491636 
L 341.821369 295.488 
L 341.871741 284.491636 
L 342.151582 295.488 
L 342.20102 284.491636 
L 342.480861 295.488 
L 342.529367 284.491636 
L 342.809208 295.488 
L 342.85678 284.491636 
L 343.136621 295.488 
L 343.177665 284.491636 
L 343.457505 295.488 
L 343.50228 284.491636 
L 343.782121 295.488 
L 343.835291 284.491636 
L 344.115131 295.488 
L 344.16457 284.491636 
L 344.444411 295.488 
L 344.489185 284.491636 
L 344.769026 295.488 
L 344.812868 284.491636 
L 345.092709 295.488 
L 345.134685 284.491636 
L 345.414526 295.488 
L 345.454636 284.491636 
L 345.734477 295.488 
L 345.787647 284.491636 
L 346.067488 295.488 
L 346.115993 284.491636 
L 346.394901 295.488 
L 346.449004 284.491636 
L 346.727912 295.488 
L 346.773619 284.491636 
L 347.05346 295.488 
L 347.1001 284.491636 
L 347.379941 295.488 
L 347.42938 284.491636 
L 347.708288 295.488 
L 347.759592 284.491636 
L 348.039433 295.488 
L 348.089804 284.491636 
L 348.369645 295.488 
L 349.585087 284.491636 
L 349.816422 273.495273 
L 349.863995 284.491636 
L 350.049623 273.495273 
L 350.096263 284.491636 
L 350.287487 273.495273 
L 350.328531 284.491636 
L 350.521621 273.495273 
L 350.567328 284.491636 
L 350.752023 273.495273 
L 350.800529 284.491636 
L 350.979627 273.495273 
L 351.030931 284.491636 
L 351.210029 273.495273 
L 351.259468 284.491636 
L 351.44323 273.495273 
L 351.48987 284.491636 
L 351.676431 273.495273 
L 351.723071 284.491636 
L 351.908699 273.495273 
L 351.956272 284.491636 
L 352.13537 273.495273 
L 352.18854 284.491636 
L 352.363906 273.495273 
L 352.414278 284.491636 
L 352.590578 273.495273 
L 352.642814 284.491636 
L 352.82098 273.495273 
L 352.869486 284.491636 
L 353.056046 273.495273 
L 353.100821 284.491636 
L 353.29018 273.495273 
L 353.334954 284.491636 
L 353.517783 273.495273 
L 353.57002 284.491636 
L 353.751917 273.495273 
L 353.797624 284.491636 
L 353.989782 273.495273 
L 354.031758 284.491636 
L 354.225781 273.495273 
L 354.269623 284.491636 
L 354.459914 273.495273 
L 354.505622 284.491636 
L 354.689384 273.495273 
L 354.738822 284.491636 
L 354.925383 273.495273 
L 354.969225 284.491636 
L 355.152054 273.495273 
L 355.205224 284.491636 
L 355.378725 273.495273 
L 355.430962 284.491636 
L 355.605396 273.495273 
L 355.658566 284.491636 
L 355.837664 273.495273 
L 355.885237 284.491636 
L 356.073663 273.495273 
L 356.116572 284.491636 
L 356.312461 273.495273 
L 356.353504 284.491636 
L 356.540064 273.495273 
L 356.592301 284.491636 
L 356.770467 273.495273 
L 356.819905 284.491636 
L 356.999936 273.495273 
L 357.050308 284.491636 
L 357.230339 273.495273 
L 357.278844 284.491636 
L 357.45701 273.495273 
L 357.510179 284.491636 
L 357.693942 273.495273 
L 357.73685 284.491636 
L 357.923411 273.495273 
L 357.973782 284.491636 
L 358.15941 273.495273 
L 358.203252 284.491636 
L 358.392611 273.495273 
L 358.438318 284.491636 
L 358.623946 273.495273 
L 358.672452 284.491636 
L 358.862743 273.495273 
L 358.903787 284.491636 
L 359.098743 273.495273 
L 359.141651 284.491636 
L 359.336607 273.495273 
L 359.378583 284.491636 
L 359.572606 273.495273 
L 359.616448 284.491636 
L 359.804874 273.495273 
L 359.852447 284.491636 
L 360.031545 273.495273 
L 360.083782 284.491636 
L 360.266612 273.495273 
L 360.311386 284.491636 
L 360.498879 273.495273 
L 360.546452 284.491636 
L 360.735811 273.495273 
L 360.77872 284.491636 
L 360.966214 273.495273 
L 361.015652 284.491636 
L 361.195683 273.495273 
L 361.246055 284.491636 
L 361.426085 273.495273 
L 361.475524 284.491636 
L 361.653689 273.495273 
L 361.704993 284.491636 
L 361.891554 273.495273 
L 361.93353 284.491636 
L 362.124755 273.495273 
L 362.171395 284.491636 
L 362.360754 273.495273 
L 362.403663 284.491636 
L 362.596753 273.495273 
L 362.640595 284.491636 
L 362.826222 273.495273 
L 362.876594 284.491636 
L 363.060356 273.495273 
L 363.106063 284.491636 
L 363.288893 273.495273 
L 363.340197 284.491636 
L 363.523026 273.495273 
L 363.568733 284.491636 
L 363.753428 273.495273 
L 363.801934 284.491636 
L 363.981965 273.495273 
L 364.033269 284.491636 
L 364.217031 273.495273 
L 364.261806 284.491636 
L 364.450232 273.495273 
L 364.496872 284.491636 
L 364.684366 273.495273 
L 364.730073 284.491636 
L 364.913835 273.495273 
L 364.964206 284.491636 
L 365.146103 273.495273 
L 365.192743 284.491636 
L 365.381169 273.495273 
L 365.425944 284.491636 
L 365.613437 273.495273 
L 365.66101 284.491636 
L 365.851302 273.495273 
L 365.892345 284.491636 
L 366.08357 273.495273 
L 366.131143 284.491636 
L 366.320502 273.495273 
L 366.363411 284.491636 
L 366.550904 273.495273 
L 366.600342 284.491636 
L 366.782239 273.495273 
L 366.830745 284.491636 
L 367.012641 273.495273 
L 367.061147 284.491636 
L 367.241178 273.495273 
L 367.292482 284.491636 
L 367.473446 273.495273 
L 367.521019 284.491636 
L 367.705714 273.495273 
L 367.753287 284.491636 
L 367.943578 273.495273 
L 367.985555 284.491636 
L 368.173981 273.495273 
L 368.223419 284.491636 
L 368.407181 273.495273 
L 368.452889 284.491636 
L 368.640382 273.495273 
L 368.686089 284.491636 
L 368.873583 273.495273 
L 368.920223 284.491636 
L 369.108649 273.495273 
L 369.153424 284.491636 
L 369.34185 273.495273 
L 369.38849 284.491636 
L 369.575051 273.495273 
L 369.621691 284.491636 
L 369.811982 273.495273 
L 369.854891 284.491636 
L 370.049847 273.495273 
L 370.091823 284.491636 
L 370.283981 273.495273 
L 370.329688 284.491636 
L 370.510652 273.495273 
L 370.563821 284.491636 
L 370.739188 273.495273 
L 370.790493 284.491636 
L 370.975188 273.495273 
L 371.019029 284.491636 
L 371.211187 273.495273 
L 371.255028 284.491636 
L 371.450917 273.495273 
L 371.491027 284.491636 
L 371.679454 273.495273 
L 371.729825 284.491636 
L 371.916386 273.495273 
L 371.958362 284.491636 
L 372.151452 273.495273 
L 372.196226 284.491636 
L 372.384653 273.495273 
L 372.431293 284.491636 
L 372.613189 273.495273 
L 372.664493 284.491636 
L 372.848255 273.495273 
L 372.892097 284.491636 
L 373.080523 273.495273 
L 373.128096 284.491636 
L 373.30906 273.495273 
L 373.359431 284.491636 
L 373.540395 273.495273 
L 373.588901 284.491636 
L 373.773596 273.495273 
L 373.819303 284.491636 
L 374.006797 273.495273 
L 374.053437 284.491636 
L 374.2344 273.495273 
L 374.286637 284.491636 
L 374.469467 273.495273 
L 374.514241 284.491636 
L 374.697071 273.495273 
L 374.749308 284.491636 
L 374.931204 273.495273 
L 374.976911 284.491636 
L 375.163472 273.495273 
L 375.211045 284.491636 
L 375.397605 273.495273 
L 375.443313 284.491636 
L 375.631739 273.495273 
L 375.677446 284.491636 
L 375.86494 273.495273 
L 375.91158 284.491636 
L 376.099073 273.495273 
L 376.144781 284.491636 
L 376.330408 273.495273 
L 376.378914 284.491636 
L 376.561743 273.495273 
L 376.610249 284.491636 
L 376.798675 273.495273 
L 376.841584 284.491636 
L 377.029078 273.495273 
L 377.078516 284.491636 
L 377.263211 273.495273 
L 377.308918 284.491636 
L 377.495479 273.495273 
L 377.542119 284.491636 
L 377.72868 273.495273 
L 377.77532 284.491636 
L 377.957216 273.495273 
L 378.00852 284.491636 
L 378.192283 273.495273 
L 378.237057 284.491636 
L 378.426416 273.495273 
L 378.472123 284.491636 
L 378.658684 273.495273 
L 378.706257 284.491636 
L 378.891885 273.495273 
L 378.938525 284.491636 
L 379.126951 273.495273 
L 379.171726 284.491636 
L 379.357353 273.495273 
L 379.405859 284.491636 
L 379.590554 273.495273 
L 379.637194 284.491636 
L 379.82562 273.495273 
L 379.870395 284.491636 
L 380.054157 273.495273 
L 380.105461 284.491636 
L 380.289223 273.495273 
L 380.333998 284.491636 
L 380.52429 273.495273 
L 380.569064 284.491636 
L 380.756557 273.495273 
L 380.803198 284.491636 
L 380.98696 273.495273 
L 381.036398 284.491636 
L 381.213631 273.495273 
L 381.265868 284.491636 
L 381.44963 273.495273 
L 381.493472 284.491636 
L 381.683763 273.495273 
L 381.729471 284.491636 
L 381.917897 273.495273 
L 381.963604 284.491636 
L 382.155762 273.495273 
L 382.196805 284.491636 
L 382.388962 273.495273 
L 382.43467 284.491636 
L 382.620297 273.495273 
L 382.668803 284.491636 
L 382.852565 273.495273 
L 382.900138 284.491636 
L 383.081102 273.495273 
L 383.132406 284.491636 
L 383.314303 273.495273 
L 383.360943 284.491636 
L 383.594144 295.488 
L 384.470045 284.491636 
L 384.702313 273.495273 
L 384.749886 284.491636 
L 384.933648 273.495273 
L 384.981221 284.491636 
L 385.164983 273.495273 
L 385.213489 284.491636 
L 385.402848 273.495273 
L 385.444824 284.491636 
L 385.63325 273.495273 
L 385.681756 284.491636 
L 385.861787 273.495273 
L 385.912158 284.491636 
L 386.095921 273.495273 
L 386.141628 284.491636 
L 386.32539 273.495273 
L 386.374829 284.491636 
L 386.553927 273.495273 
L 386.605231 284.491636 
L 386.789926 273.495273 
L 386.833768 284.491636 
L 387.019395 273.495273 
L 387.069767 284.491636 
L 387.246999 273.495273 
L 387.299236 284.491636 
L 387.483931 273.495273 
L 387.52684 284.491636 
L 387.713401 273.495273 
L 387.762839 284.491636 
L 387.948467 273.495273 
L 387.993241 284.491636 
L 388.181668 273.495273 
L 388.228308 284.491636 
L 388.413935 273.495273 
L 388.461508 284.491636 
L 388.645271 273.495273 
L 388.692844 284.491636 
L 388.876606 273.495273 
L 388.925111 284.491636 
L 389.107941 273.495273 
L 389.155514 284.491636 
L 389.344873 273.495273 
L 389.387782 284.491636 
L 389.579939 273.495273 
L 389.624714 284.491636 
L 389.811274 273.495273 
L 389.858847 284.491636 
L 390.049139 273.495273 
L 390.091115 284.491636 
L 390.286071 273.495273 
L 390.328047 284.491636 
L 390.518339 273.495273 
L 390.565912 284.491636 
L 390.754338 273.495273 
L 390.798179 284.491636 
L 390.990337 273.495273 
L 391.034179 284.491636 
L 391.221672 273.495273 
L 391.270178 284.491636 
L 391.454873 273.495273 
L 391.501513 284.491636 
L 391.682476 273.495273 
L 391.733781 284.491636 
L 391.913812 273.495273 
L 391.962317 284.491636 
L 392.149811 273.495273 
L 392.19272 284.491636 
L 392.38581 273.495273 
L 392.429651 284.491636 
L 392.616212 273.495273 
L 392.665651 284.491636 
L 393.080748 262.498909 
L 393.107799 273.495273 
L 393.554612 251.502545 
L 398.446229 262.498909 
L 398.487273 295.488 
L 398.487273 295.488 
" clip-path="url(#p7b3f09448c)" style="fill: none; stroke: #1f77b4; stroke-width: 1.5; stroke-linecap: square"/>
   </g>
   <g id="patch_3">
    <path d="M 57.6 307.584 
L 57.6 41.472 
" style="fill: none; stroke: #000000; stroke-width: 0.8; stroke-linejoin: miter; stroke-linecap: square"/>
   </g>
   <g id="patch_4">
    <path d="M 414.72 307.584 
L 414.72 41.472 
" style="fill: none; stroke: #000000; stroke-width: 0.8; stroke-linejoin: miter; stroke-linecap: square"/>
   </g>
   <g id="patch_5">
    <path d="M 57.6 307.584 
L 414.72 307.584 
" style="fill: none; stroke: #000000; stroke-width: 0.8; stroke-linejoin: miter; stroke-linecap: square"/>
   </g>
   <g id="patch_6">
    <path d="M 57.6 41.472 
L 414.72 41.472 
" style="fill: none; stroke: #000000; stroke-width: 0.8; stroke-linejoin: miter; stroke-linecap: square"/>
   </g>
   <g id="text_15">
    <!-- Queue size (y-axis) between S1 and sensors that follow at a time (x-axis). -->
    <g transform="translate(14.282813 35.472) scale(0.12 -0.12)">
     <defs>
      <path id="DejaVuSans-51" d="M 2522 4238 
Q 1834 4238 1429 3725 
Q 1025 3213 1025 2328 
Q 1025 1447 1429 934 
Q 1834 422 2522 422 
Q 3209 422 3611 934 
Q 4013 1447 4013 2328 
Q 4013 3213 3611 3725 
Q 3209 4238 2522 4238 
z
M 3406 84 
L 4238 -825 
L 3475 -825 
L 2784 -78 
Q 2681 -84 2626 -87 
Q 2572 -91 2522 -91 
Q 1538 -91 948 567 
Q 359 1225 359 2328 
Q 359 3434 948 4092 
Q 1538 4750 2522 4750 
Q 3503 4750 4090 4092 
Q 4678 3434 4678 2328 
Q 4678 1516 4351 937 
Q 4025 359 3406 84 
z
" transform="scale(0.015625)"/>
      <path id="DejaVuSans-75" d="M 544 1381 
L 544 3500 
L 1119 3500 
L 1119 1403 
Q 1119 906 1312 657 
Q 1506 409 1894 409 
Q 2359 409 2629 706 
Q 2900 1003 2900 1516 
L 2900 3500 
L 3475 3500 
L 3475 0 
L 2900 0 
L 2900 538 
Q 2691 219 2414 64 
Q 2138 -91 1772 -91 
Q 1169 -91 856 284 
Q 544 659 544 1381 
z
M 1991 3584 
L 1991 3584 
z
" transform="scale(0.015625)"/>
      <path id="DejaVuSans-20" transform="scale(0.015625)"/>
      <path id="DejaVuSans-73" d="M 2834 3397 
L 2834 2853 
Q 2591 2978 2328 3040 
Q 2066 3103 1784 3103 
Q 1356 3103 1142 2972 
Q 928 2841 928 2578 
Q 928 2378 1081 2264 
Q 1234 2150 1697 2047 
L 1894 2003 
Q 2506 1872 2764 1633 
Q 3022 1394 3022 966 
Q 3022 478 2636 193 
Q 2250 -91 1575 -91 
Q 1294 -91 989 -36 
Q 684 19 347 128 
L 347 722 
Q 666 556 975 473 
Q 1284 391 1588 391 
Q 1994 391 2212 530 
Q 2431 669 2431 922 
Q 2431 1156 2273 1281 
Q 2116 1406 1581 1522 
L 1381 1569 
Q 847 1681 609 1914 
Q 372 2147 372 2553 
Q 372 3047 722 3315 
Q 1072 3584 1716 3584 
Q 2034 3584 2315 3537 
Q 2597 3491 2834 3397 
z
" transform="scale(0.015625)"/>
      <path id="DejaVuSans-69" d="M 603 3500 
L 1178 3500 
L 1178 0 
L 603 0 
L 603 3500 
z
M 603 4863 
L 1178 4863 
L 1178 4134 
L 603 4134 
L 603 4863 
z
" transform="scale(0.015625)"/>
      <path id="DejaVuSans-7a" d="M 353 3500 
L 3084 3500 
L 3084 2975 
L 922 459 
L 3084 459 
L 3084 0 
L 275 0 
L 275 525 
L 2438 3041 
L 353 3041 
L 353 3500 
z
" transform="scale(0.015625)"/>
      <path id="DejaVuSans-28" d="M 1984 4856 
Q 1566 4138 1362 3434 
Q 1159 2731 1159 2009 
Q 1159 1288 1364 580 
Q 1569 -128 1984 -844 
L 1484 -844 
Q 1016 -109 783 600 
Q 550 1309 550 2009 
Q 550 2706 781 3412 
Q 1013 4119 1484 4856 
L 1984 4856 
z
" transform="scale(0.015625)"/>
      <path id="DejaVuSans-79" d="M 2059 -325 
Q 1816 -950 1584 -1140 
Q 1353 -1331 966 -1331 
L 506 -1331 
L 506 -850 
L 844 -850 
Q 1081 -850 1212 -737 
Q 1344 -625 1503 -206 
L 1606 56 
L 191 3500 
L 800 3500 
L 1894 763 
L 2988 3500 
L 3597 3500 
L 2059 -325 
z
" transform="scale(0.015625)"/>
      <path id="DejaVuSans-2d" d="M 313 2009 
L 1997 2009 
L 1997 1497 
L 313 1497 
L 313 2009 
z
" transform="scale(0.015625)"/>
      <path id="DejaVuSans-61" d="M 2194 1759 
Q 1497 1759 1228 1600 
Q 959 1441 959 1056 
Q 959 750 1161 570 
Q 1363 391 1709 391 
Q 2188 391 2477 730 
Q 2766 1069 2766 1631 
L 2766 1759 
L 2194 1759 
z
M 3341 1997 
L 3341 0 
L 2766 0 
L 2766 531 
Q 2569 213 2275 61 
Q 1981 -91 1556 -91 
Q 1019 -91 701 211 
Q 384 513 384 1019 
Q 384 1609 779 1909 
Q 1175 2209 1959 2209 
L 2766 2209 
L 2766 2266 
Q 2766 2663 2505 2880 
Q 2244 3097 1772 3097 
Q 1472 3097 1187 3025 
Q 903 2953 641 2809 
L 641 3341 
Q 956 3463 1253 3523 
Q 1550 3584 1831 3584 
Q 2591 3584 2966 3190 
Q 3341 2797 3341 1997 
z
" transform="scale(0.015625)"/>
      <path id="DejaVuSans-78" d="M 3513 3500 
L 2247 1797 
L 3578 0 
L 2900 0 
L 1881 1375 
L 863 0 
L 184 0 
L 1544 1831 
L 300 3500 
L 978 3500 
L 1906 2253 
L 2834 3500 
L 3513 3500 
z
" transform="scale(0.015625)"/>
      <path id="DejaVuSans-29" d="M 513 4856 
L 1013 4856 
Q 1481 4119 1714 3412 
Q 1947 2706 1947 2009 
Q 1947 1309 1714 600 
Q 1481 -109 1013 -844 
L 513 -844 
Q 928 -128 1133 580 
Q 1338 1288 1338 2009 
Q 1338 2731 1133 3434 
Q 928 4138 513 4856 
z
" transform="scale(0.015625)"/>
      <path id="DejaVuSans-62" d="M 3116 1747 
Q 3116 2381 2855 2742 
Q 2594 3103 2138 3103 
Q 1681 3103 1420 2742 
Q 1159 2381 1159 1747 
Q 1159 1113 1420 752 
Q 1681 391 2138 391 
Q 2594 391 2855 752 
Q 3116 1113 3116 1747 
z
M 1159 2969 
Q 1341 3281 1617 3432 
Q 1894 3584 2278 3584 
Q 2916 3584 3314 3078 
Q 3713 2572 3713 1747 
Q 3713 922 3314 415 
Q 2916 -91 2278 -91 
Q 1894 -91 1617 61 
Q 1341 213 1159 525 
L 1159 0 
L 581 0 
L 581 4863 
L 1159 4863 
L 1159 2969 
z
" transform="scale(0.015625)"/>
      <path id="DejaVuSans-74" d="M 1172 4494 
L 1172 3500 
L 2356 3500 
L 2356 3053 
L 1172 3053 
L 1172 1153 
Q 1172 725 1289 603 
Q 1406 481 1766 481 
L 2356 481 
L 2356 0 
L 1766 0 
Q 1100 0 847 248 
Q 594 497 594 1153 
L 594 3053 
L 172 3053 
L 172 3500 
L 594 3500 
L 594 4494 
L 1172 4494 
z
" transform="scale(0.015625)"/>
      <path id="DejaVuSans-77" d="M 269 3500 
L 844 3500 
L 1563 769 
L 2278 3500 
L 2956 3500 
L 3675 769 
L 4391 3500 
L 4966 3500 
L 4050 0 
L 3372 0 
L 2619 2869 
L 1863 0 
L 1184 0 
L 269 3500 
z
" transform="scale(0.015625)"/>
      <path id="DejaVuSans-6e" d="M 3513 2113 
L 3513 0 
L 2938 0 
L 2938 2094 
Q 2938 2591 2744 2837 
Q 2550 3084 2163 3084 
Q 1697 3084 1428 2787 
Q 1159 2491 1159 1978 
L 1159 0 
L 581 0 
L 581 3500 
L 1159 3500 
L 1159 2956 
Q 1366 3272 1645 3428 
Q 1925 3584 2291 3584 
Q 2894 3584 3203 3211 
Q 3513 2838 3513 2113 
z
" transform="scale(0.015625)"/>
      <path id="DejaVuSans-53" d="M 3425 4513 
L 3425 3897 
Q 3066 4069 2747 4153 
Q 2428 4238 2131 4238 
Q 1616 4238 1336 4038 
Q 1056 3838 1056 3469 
Q 1056 3159 1242 3001 
Q 1428 2844 1947 2747 
L 2328 2669 
Q 3034 2534 3370 2195 
Q 3706 1856 3706 1288 
Q 3706 609 3251 259 
Q 2797 -91 1919 -91 
Q 1588 -91 1214 -16 
Q 841 59 441 206 
L 441 856 
Q 825 641 1194 531 
Q 1563 422 1919 422 
Q 2459 422 2753 634 
Q 3047 847 3047 1241 
Q 3047 1584 2836 1778 
Q 2625 1972 2144 2069 
L 1759 2144 
Q 1053 2284 737 2584 
Q 422 2884 422 3419 
Q 422 4038 858 4394 
Q 1294 4750 2059 4750 
Q 2388 4750 2728 4690 
Q 3069 4631 3425 4513 
z
" transform="scale(0.015625)"/>
      <path id="DejaVuSans-64" d="M 2906 2969 
L 2906 4863 
L 3481 4863 
L 3481 0 
L 2906 0 
L 2906 525 
Q 2725 213 2448 61 
Q 2172 -91 1784 -91 
Q 1150 -91 751 415 
Q 353 922 353 1747 
Q 353 2572 751 3078 
Q 1150 3584 1784 3584 
Q 2172 3584 2448 3432 
Q 2725 3281 2906 2969 
z
M 947 1747 
Q 947 1113 1208 752 
Q 1469 391 1925 391 
Q 2381 391 2643 752 
Q 2906 1113 2906 1747 
Q 2906 2381 2643 2742 
Q 2381 3103 1925 3103 
Q 1469 3103 1208 2742 
Q 947 2381 947 1747 
z
" transform="scale(0.015625)"/>
      <path id="DejaVuSans-6f" d="M 1959 3097 
Q 1497 3097 1228 2736 
Q 959 2375 959 1747 
Q 959 1119 1226 758 
Q 1494 397 1959 397 
Q 2419 397 2687 759 
Q 2956 1122 2956 1747 
Q 2956 2369 2687 2733 
Q 2419 3097 1959 3097 
z
M 1959 3584 
Q 2709 3584 3137 3096 
Q 3566 2609 3566 1747 
Q 3566 888 3137 398 
Q 2709 -91 1959 -91 
Q 1206 -91 779 398 
Q 353 888 353 1747 
Q 353 2609 779 3096 
Q 1206 3584 1959 3584 
z
" transform="scale(0.015625)"/>
      <path id="DejaVuSans-72" d="M 2631 2963 
Q 2534 3019 2420 3045 
Q 2306 3072 2169 3072 
Q 1681 3072 1420 2755 
Q 1159 2438 1159 1844 
L 1159 0 
L 581 0 
L 581 3500 
L 1159 3500 
L 1159 2956 
Q 1341 3275 1631 3429 
Q 1922 3584 2338 3584 
Q 2397 3584 2469 3576 
Q 2541 3569 2628 3553 
L 2631 2963 
z
" transform="scale(0.015625)"/>
      <path id="DejaVuSans-68" d="M 3513 2113 
L 3513 0 
L 2938 0 
L 2938 2094 
Q 2938 2591 2744 2837 
Q 2550 3084 2163 3084 
Q 1697 3084 1428 2787 
Q 1159 2491 1159 1978 
L 1159 0 
L 581 0 
L 581 4863 
L 1159 4863 
L 1159 2956 
Q 1366 3272 1645 3428 
Q 1925 3584 2291 3584 
Q 2894 3584 3203 3211 
Q 3513 2838 3513 2113 
z
" transform="scale(0.015625)"/>
      <path id="DejaVuSans-66" d="M 2375 4863 
L 2375 4384 
L 1825 4384 
Q 1516 4384 1395 4259 
Q 1275 4134 1275 3809 
L 1275 3500 
L 2222 3500 
L 2222 3053 
L 1275 3053 
L 1275 0 
L 697 0 
L 697 3053 
L 147 3053 
L 147 3500 
L 697 3500 
L 697 3744 
Q 697 4328 969 4595 
Q 1241 4863 1831 4863 
L 2375 4863 
z
" transform="scale(0.015625)"/>
      <path id="DejaVuSans-6c" d="M 603 4863 
L 1178 4863 
L 1178 0 
L 603 0 
L 603 4863 
z
" transform="scale(0.015625)"/>
      <path id="DejaVuSans-6d" d="M 3328 2828 
Q 3544 3216 3844 3400 
Q 4144 3584 4550 3584 
Q 5097 3584 5394 3201 
Q 5691 2819 5691 2113 
L 5691 0 
L 5113 0 
L 5113 2094 
Q 5113 2597 4934 2840 
Q 4756 3084 4391 3084 
Q 3944 3084 3684 2787 
Q 3425 2491 3425 1978 
L 3425 0 
L 2847 0 
L 2847 2094 
Q 2847 2600 2669 2842 
Q 2491 3084 2119 3084 
Q 1678 3084 1418 2786 
Q 1159 2488 1159 1978 
L 1159 0 
L 581 0 
L 581 3500 
L 1159 3500 
L 1159 2956 
Q 1356 3278 1631 3431 
Q 1906 3584 2284 3584 
Q 2666 3584 2933 3390 
Q 3200 3197 3328 2828 
z
" transform="scale(0.015625)"/>
     </defs>
     <use xlink:href="#DejaVuSans-51"/>
     <use xlink:href="#DejaVuSans-75" x="78.710938"/>
     <use xlink:href="#DejaVuSans-65" x="142.089844"/>
     <use xlink:href="#DejaVuSans-75" x="203.613281"/>
     <use xlink:href="#DejaVuSans-65" x="266.992188"/>
     <use xlink:href="#DejaVuSans-20" x="328.515625"/>
     <use xlink:href="#DejaVuSans-73" x="360.302734"/>
     <use xlink:href="#DejaVuSans-69" x="412.402344"/>
     <use xlink:href="#DejaVuSans-7a" x="440.185547"/>
     <use xlink:href="#DejaVuSans-65" x="492.675781"/>
     <use xlink:href="#DejaVuSans-20" x="554.199219"/>
     <use xlink:href="#DejaVuSans-28" x="585.986328"/>
     <use xlink:href="#DejaVuSans-79" x="625"/>
     <use xlink:href="#DejaVuSans-2d" x="682.429688"/>
     <use xlink:href="#DejaVuSans-61" x="718.513672"/>
     <use xlink:href="#DejaVuSans-78" x="779.792969"/>
     <use xlink:href="#DejaVuSans-69" x="838.972656"/>
     <use xlink:href="#DejaVuSans-73" x="866.755859"/>
     <use xlink:href="#DejaVuSans-29" x="918.855469"/>
     <use xlink:href="#DejaVuSans-20" x="957.869141"/>
     <use xlink:href="#DejaVuSans-62" x="989.65625"/>
     <use xlink:href="#DejaVuSans-65" x="1053.132812"/>
     <use xlink:href="#DejaVuSans-74" x="1114.65625"/>
     <use xlink:href="#DejaVuSans-77" x="1153.865234"/>
     <use xlink:href="#DejaVuSans-65" x="1235.652344"/>
     <use xlink:href="#DejaVuSans-65" x="1297.175781"/>
     <use xlink:href="#DejaVuSans-6e" x="1358.699219"/>
     <use xlink:href="#DejaVuSans-20" x="1422.078125"/>
     <use xlink:href="#DejaVuSans-53" x="1453.865234"/>
     <use xlink:href="#DejaVuSans-31" x="1517.341797"/>
     <use xlink:href="#DejaVuSans-20" x="1580.964844"/>
     <use xlink:href="#DejaVuSans-61" x="1612.751953"/>
     <use xlink:href="#DejaVuSans-6e" x="1674.03125"/>
     <use xlink:href="#DejaVuSans-64" x="1737.410156"/>
     <use xlink:href="#DejaVuSans-20" x="1800.886719"/>
     <use xlink:href="#DejaVuSans-73" x="1832.673828"/>
     <use xlink:href="#DejaVuSans-65" x="1884.773438"/>
     <use xlink:href="#DejaVuSans-6e" x="1946.296875"/>
     <use xlink:href="#DejaVuSans-73" x="2009.675781"/>
     <use xlink:href="#DejaVuSans-6f" x="2061.775391"/>
     <use xlink:href="#DejaVuSans-72" x="2122.957031"/>
     <use xlink:href="#DejaVuSans-73" x="2164.070312"/>
     <use xlink:href="#DejaVuSans-20" x="2216.169922"/>
     <use xlink:href="#DejaVuSans-74" x="2247.957031"/>
     <use xlink:href="#DejaVuSans-68" x="2287.166016"/>
     <use xlink:href="#DejaVuSans-61" x="2350.544922"/>
     <use xlink:href="#DejaVuSans-74" x="2411.824219"/>
     <use xlink:href="#DejaVuSans-20" x="2451.033203"/>
     <use xlink:href="#DejaVuSans-66" x="2482.820312"/>
     <use xlink:href="#DejaVuSans-6f" x="2518.025391"/>
     <use xlink:href="#DejaVuSans-6c" x="2579.207031"/>
     <use xlink:href="#DejaVuSans-6c" x="2606.990234"/>
     <use xlink:href="#DejaVuSans-6f" x="2634.773438"/>
     <use xlink:href="#DejaVuSans-77" x="2695.955078"/>
     <use xlink:href="#DejaVuSans-20" x="2777.742188"/>
     <use xlink:href="#DejaVuSans-61" x="2809.529297"/>
     <use xlink:href="#DejaVuSans-74" x="2870.808594"/>
     <use xlink:href="#DejaVuSans-20" x="2910.017578"/>
     <use xlink:href="#DejaVuSans-61" x="2941.804688"/>
     <use xlink:href="#DejaVuSans-20" x="3003.083984"/>
     <use xlink:href="#DejaVuSans-74" x="3034.871094"/>
     <use xlink:href="#DejaVuSans-69" x="3074.080078"/>
     <use xlink:href="#DejaVuSans-6d" x="3101.863281"/>
     <use xlink:href="#DejaVuSans-65" x="3199.275391"/>
     <use xlink:href="#DejaVuSans-20" x="3260.798828"/>
     <use xlink:href="#DejaVuSans-28" x="3292.585938"/>
     <use xlink:href="#DejaVuSans-78" x="3331.599609"/>
     <use xlink:href="#DejaVuSans-2d" x="3390.779297"/>
     <use xlink:href="#DejaVuSans-61" x="3426.863281"/>
     <use xlink:href="#DejaVuSans-78" x="3488.142578"/>
     <use xlink:href="#DejaVuSans-69" x="3547.322266"/>
     <use xlink:href="#DejaVuSans-73" x="3575.105469"/>
     <use xlink:href="#DejaVuSans-29" x="3627.205078"/>
     <use xlink:href="#DejaVuSans-2e" x="3666.21875"/>
    </g>
   </g>
  </g>
 </g>
 <defs>
  <clipPath id="p7b3f09448c">
   <rect x="57.6" y="41.472" width="357.12" height="266.112"/>
  </clipPath>
 </defs>
</svg>
