<?xml version="1.0" encoding="utf-8" standalone="no"?>
<!DOCTYPE svg PUBLIC "-//W3C//DTD SVG 1.1//EN"
  "http://www.w3.org/Graphics/SVG/1.1/DTD/svg11.dtd">
<svg xmlns:xlink="http://www.w3.org/1999/xlink" width="460.8pt" height="345.6pt" viewBox="0 0 460.8 345.6" xmlns="http://www.w3.org/2000/svg" version="1.1">
 <metadata>
  <rdf:RDF xmlns:dc="http://purl.org/dc/elements/1.1/" xmlns:cc="http://creativecommons.org/ns#" xmlns:rdf="http://www.w3.org/1999/02/22-rdf-syntax-ns#">
   <cc:Work>
    <dc:type rdf:resource="http://purl.org/dc/dcmitype/StillImage"/>
    <dc:date>2024-03-08T12:07:41.167811</dc:date>
    <dc:format>image/svg+xml</dc:format>
    <dc:creator>
     <cc:Agent>
      <dc:title>Matplotlib v3.8.2, https://matplotlib.org/</dc:title>
     </cc:Agent>
    </dc:creator>
   </cc:Work>
  </rdf:RDF>
 </metadata>
 <defs>
  <style type="text/css">*{stroke-linejoin: round; stroke-linecap: butt}</style>
 </defs>
 <g id="figure_1">
  <g id="patch_1">
   <path d="M 0 345.6 
L 460.8 345.6 
L 460.8 0 
L 0 0 
z
" style="fill: #ffffff"/>
  </g>
  <g id="axes_1">
   <g id="patch_2">
    <path d="M 57.6 307.584 
L 414.72 307.584 
L 414.72 41.472 
L 57.6 41.472 
z
" style="fill: #ffffff"/>
   </g>
   <g id="matplotlib.axis_1">
    <g id="xtick_1">
     <g id="line2d_1">
      <defs>
       <path id="m77cd9599ec" d="M 0 0 
L 0 3.5 
" style="stroke: #000000; stroke-width: 0.8"/>
      </defs>
      <g>
       <use xlink:href="#m77cd9599ec" x="73.832727" y="307.584" style="stroke: #000000; stroke-width: 0.8"/>
      </g>
     </g>
     <g id="text_1">
      <!-- 0 -->
      <g transform="translate(70.651477 322.182437) scale(0.1 -0.1)">
       <defs>
        <path id="DejaVuSans-30" d="M 2034 4250 
Q 1547 4250 1301 3770 
Q 1056 3291 1056 2328 
Q 1056 1369 1301 889 
Q 1547 409 2034 409 
Q 2525 409 2770 889 
Q 3016 1369 3016 2328 
Q 3016 3291 2770 3770 
Q 2525 4250 2034 4250 
z
M 2034 4750 
Q 2819 4750 3233 4129 
Q 3647 3509 3647 2328 
Q 3647 1150 3233 529 
Q 2819 -91 2034 -91 
Q 1250 -91 836 529 
Q 422 1150 422 2328 
Q 422 3509 836 4129 
Q 1250 4750 2034 4750 
z
" transform="scale(0.015625)"/>
       </defs>
       <use xlink:href="#DejaVuSans-30"/>
      </g>
     </g>
    </g>
    <g id="xtick_2">
     <g id="line2d_2">
      <g>
       <use xlink:href="#m77cd9599ec" x="132.839369" y="307.584" style="stroke: #000000; stroke-width: 0.8"/>
      </g>
     </g>
     <g id="text_2">
      <!-- 5000 -->
      <g transform="translate(120.114369 322.182437) scale(0.1 -0.1)">
       <defs>
        <path id="DejaVuSans-35" d="M 691 4666 
L 3169 4666 
L 3169 4134 
L 1269 4134 
L 1269 2991 
Q 1406 3038 1543 3061 
Q 1681 3084 1819 3084 
Q 2600 3084 3056 2656 
Q 3513 2228 3513 1497 
Q 3513 744 3044 326 
Q 2575 -91 1722 -91 
Q 1428 -91 1123 -41 
Q 819 9 494 109 
L 494 744 
Q 775 591 1075 516 
Q 1375 441 1709 441 
Q 2250 441 2565 725 
Q 2881 1009 2881 1497 
Q 2881 1984 2565 2268 
Q 2250 2553 1709 2553 
Q 1456 2553 1204 2497 
Q 953 2441 691 2322 
L 691 4666 
z
" transform="scale(0.015625)"/>
       </defs>
       <use xlink:href="#DejaVuSans-35"/>
       <use xlink:href="#DejaVuSans-30" x="63.623047"/>
       <use xlink:href="#DejaVuSans-30" x="127.246094"/>
       <use xlink:href="#DejaVuSans-30" x="190.869141"/>
      </g>
     </g>
    </g>
    <g id="xtick_3">
     <g id="line2d_3">
      <g>
       <use xlink:href="#m77cd9599ec" x="191.846012" y="307.584" style="stroke: #000000; stroke-width: 0.8"/>
      </g>
     </g>
     <g id="text_3">
      <!-- 10000 -->
      <g transform="translate(175.939762 322.182437) scale(0.1 -0.1)">
       <defs>
        <path id="DejaVuSans-31" d="M 794 531 
L 1825 531 
L 1825 4091 
L 703 3866 
L 703 4441 
L 1819 4666 
L 2450 4666 
L 2450 531 
L 3481 531 
L 3481 0 
L 794 0 
L 794 531 
z
" transform="scale(0.015625)"/>
       </defs>
       <use xlink:href="#DejaVuSans-31"/>
       <use xlink:href="#DejaVuSans-30" x="63.623047"/>
       <use xlink:href="#DejaVuSans-30" x="127.246094"/>
       <use xlink:href="#DejaVuSans-30" x="190.869141"/>
       <use xlink:href="#DejaVuSans-30" x="254.492188"/>
      </g>
     </g>
    </g>
    <g id="xtick_4">
     <g id="line2d_4">
      <g>
       <use xlink:href="#m77cd9599ec" x="250.852654" y="307.584" style="stroke: #000000; stroke-width: 0.8"/>
      </g>
     </g>
     <g id="text_4">
      <!-- 15000 -->
      <g transform="translate(234.946404 322.182437) scale(0.1 -0.1)">
       <use xlink:href="#DejaVuSans-31"/>
       <use xlink:href="#DejaVuSans-35" x="63.623047"/>
       <use xlink:href="#DejaVuSans-30" x="127.246094"/>
       <use xlink:href="#DejaVuSans-30" x="190.869141"/>
       <use xlink:href="#DejaVuSans-30" x="254.492188"/>
      </g>
     </g>
    </g>
    <g id="xtick_5">
     <g id="line2d_5">
      <g>
       <use xlink:href="#m77cd9599ec" x="309.859296" y="307.584" style="stroke: #000000; stroke-width: 0.8"/>
      </g>
     </g>
     <g id="text_5">
      <!-- 20000 -->
      <g transform="translate(293.953046 322.182437) scale(0.1 -0.1)">
       <defs>
        <path id="DejaVuSans-32" d="M 1228 531 
L 3431 531 
L 3431 0 
L 469 0 
L 469 531 
Q 828 903 1448 1529 
Q 2069 2156 2228 2338 
Q 2531 2678 2651 2914 
Q 2772 3150 2772 3378 
Q 2772 3750 2511 3984 
Q 2250 4219 1831 4219 
Q 1534 4219 1204 4116 
Q 875 4013 500 3803 
L 500 4441 
Q 881 4594 1212 4672 
Q 1544 4750 1819 4750 
Q 2544 4750 2975 4387 
Q 3406 4025 3406 3419 
Q 3406 3131 3298 2873 
Q 3191 2616 2906 2266 
Q 2828 2175 2409 1742 
Q 1991 1309 1228 531 
z
" transform="scale(0.015625)"/>
       </defs>
       <use xlink:href="#DejaVuSans-32"/>
       <use xlink:href="#DejaVuSans-30" x="63.623047"/>
       <use xlink:href="#DejaVuSans-30" x="127.246094"/>
       <use xlink:href="#DejaVuSans-30" x="190.869141"/>
       <use xlink:href="#DejaVuSans-30" x="254.492188"/>
      </g>
     </g>
    </g>
    <g id="xtick_6">
     <g id="line2d_6">
      <g>
       <use xlink:href="#m77cd9599ec" x="368.865938" y="307.584" style="stroke: #000000; stroke-width: 0.8"/>
      </g>
     </g>
     <g id="text_6">
      <!-- 25000 -->
      <g transform="translate(352.959688 322.182437) scale(0.1 -0.1)">
       <use xlink:href="#DejaVuSans-32"/>
       <use xlink:href="#DejaVuSans-35" x="63.623047"/>
       <use xlink:href="#DejaVuSans-30" x="127.246094"/>
       <use xlink:href="#DejaVuSans-30" x="190.869141"/>
       <use xlink:href="#DejaVuSans-30" x="254.492188"/>
      </g>
     </g>
    </g>
   </g>
   <g id="matplotlib.axis_2">
    <g id="ytick_1">
     <g id="line2d_7">
      <defs>
       <path id="ma127e79979" d="M 0 0 
L -3.5 0 
" style="stroke: #000000; stroke-width: 0.8"/>
      </defs>
      <g>
       <use xlink:href="#ma127e79979" x="57.6" y="295.488" style="stroke: #000000; stroke-width: 0.8"/>
      </g>
     </g>
     <g id="text_7">
      <!-- 0.0 -->
      <g transform="translate(34.696875 299.287219) scale(0.1 -0.1)">
       <defs>
        <path id="DejaVuSans-2e" d="M 684 794 
L 1344 794 
L 1344 0 
L 684 0 
L 684 794 
z
" transform="scale(0.015625)"/>
       </defs>
       <use xlink:href="#DejaVuSans-30"/>
       <use xlink:href="#DejaVuSans-2e" x="63.623047"/>
       <use xlink:href="#DejaVuSans-30" x="95.410156"/>
      </g>
     </g>
    </g>
    <g id="ytick_2">
     <g id="line2d_8">
      <g>
       <use xlink:href="#ma127e79979" x="57.6" y="247.104" style="stroke: #000000; stroke-width: 0.8"/>
      </g>
     </g>
     <g id="text_8">
      <!-- 0.2 -->
      <g transform="translate(34.696875 250.903219) scale(0.1 -0.1)">
       <use xlink:href="#DejaVuSans-30"/>
       <use xlink:href="#DejaVuSans-2e" x="63.623047"/>
       <use xlink:href="#DejaVuSans-32" x="95.410156"/>
      </g>
     </g>
    </g>
    <g id="ytick_3">
     <g id="line2d_9">
      <g>
       <use xlink:href="#ma127e79979" x="57.6" y="198.72" style="stroke: #000000; stroke-width: 0.8"/>
      </g>
     </g>
     <g id="text_9">
      <!-- 0.4 -->
      <g transform="translate(34.696875 202.519219) scale(0.1 -0.1)">
       <defs>
        <path id="DejaVuSans-34" d="M 2419 4116 
L 825 1625 
L 2419 1625 
L 2419 4116 
z
M 2253 4666 
L 3047 4666 
L 3047 1625 
L 3713 1625 
L 3713 1100 
L 3047 1100 
L 3047 0 
L 2419 0 
L 2419 1100 
L 313 1100 
L 313 1709 
L 2253 4666 
z
" transform="scale(0.015625)"/>
       </defs>
       <use xlink:href="#DejaVuSans-30"/>
       <use xlink:href="#DejaVuSans-2e" x="63.623047"/>
       <use xlink:href="#DejaVuSans-34" x="95.410156"/>
      </g>
     </g>
    </g>
    <g id="ytick_4">
     <g id="line2d_10">
      <g>
       <use xlink:href="#ma127e79979" x="57.6" y="150.336" style="stroke: #000000; stroke-width: 0.8"/>
      </g>
     </g>
     <g id="text_10">
      <!-- 0.6 -->
      <g transform="translate(34.696875 154.135219) scale(0.1 -0.1)">
       <defs>
        <path id="DejaVuSans-36" d="M 2113 2584 
Q 1688 2584 1439 2293 
Q 1191 2003 1191 1497 
Q 1191 994 1439 701 
Q 1688 409 2113 409 
Q 2538 409 2786 701 
Q 3034 994 3034 1497 
Q 3034 2003 2786 2293 
Q 2538 2584 2113 2584 
z
M 3366 4563 
L 3366 3988 
Q 3128 4100 2886 4159 
Q 2644 4219 2406 4219 
Q 1781 4219 1451 3797 
Q 1122 3375 1075 2522 
Q 1259 2794 1537 2939 
Q 1816 3084 2150 3084 
Q 2853 3084 3261 2657 
Q 3669 2231 3669 1497 
Q 3669 778 3244 343 
Q 2819 -91 2113 -91 
Q 1303 -91 875 529 
Q 447 1150 447 2328 
Q 447 3434 972 4092 
Q 1497 4750 2381 4750 
Q 2619 4750 2861 4703 
Q 3103 4656 3366 4563 
z
" transform="scale(0.015625)"/>
       </defs>
       <use xlink:href="#DejaVuSans-30"/>
       <use xlink:href="#DejaVuSans-2e" x="63.623047"/>
       <use xlink:href="#DejaVuSans-36" x="95.410156"/>
      </g>
     </g>
    </g>
    <g id="ytick_5">
     <g id="line2d_11">
      <g>
       <use xlink:href="#ma127e79979" x="57.6" y="101.952" style="stroke: #000000; stroke-width: 0.8"/>
      </g>
     </g>
     <g id="text_11">
      <!-- 0.8 -->
      <g transform="translate(34.696875 105.751219) scale(0.1 -0.1)">
       <defs>
        <path id="DejaVuSans-38" d="M 2034 2216 
Q 1584 2216 1326 1975 
Q 1069 1734 1069 1313 
Q 1069 891 1326 650 
Q 1584 409 2034 409 
Q 2484 409 2743 651 
Q 3003 894 3003 1313 
Q 3003 1734 2745 1975 
Q 2488 2216 2034 2216 
z
M 1403 2484 
Q 997 2584 770 2862 
Q 544 3141 544 3541 
Q 544 4100 942 4425 
Q 1341 4750 2034 4750 
Q 2731 4750 3128 4425 
Q 3525 4100 3525 3541 
Q 3525 3141 3298 2862 
Q 3072 2584 2669 2484 
Q 3125 2378 3379 2068 
Q 3634 1759 3634 1313 
Q 3634 634 3220 271 
Q 2806 -91 2034 -91 
Q 1263 -91 848 271 
Q 434 634 434 1313 
Q 434 1759 690 2068 
Q 947 2378 1403 2484 
z
M 1172 3481 
Q 1172 3119 1398 2916 
Q 1625 2713 2034 2713 
Q 2441 2713 2670 2916 
Q 2900 3119 2900 3481 
Q 2900 3844 2670 4047 
Q 2441 4250 2034 4250 
Q 1625 4250 1398 4047 
Q 1172 3844 1172 3481 
z
" transform="scale(0.015625)"/>
       </defs>
       <use xlink:href="#DejaVuSans-30"/>
       <use xlink:href="#DejaVuSans-2e" x="63.623047"/>
       <use xlink:href="#DejaVuSans-38" x="95.410156"/>
      </g>
     </g>
    </g>
    <g id="ytick_6">
     <g id="line2d_12">
      <g>
       <use xlink:href="#ma127e79979" x="57.6" y="53.568" style="stroke: #000000; stroke-width: 0.8"/>
      </g>
     </g>
     <g id="text_12">
      <!-- 1.0 -->
      <g transform="translate(34.696875 57.367219) scale(0.1 -0.1)">
       <use xlink:href="#DejaVuSans-31"/>
       <use xlink:href="#DejaVuSans-2e" x="63.623047"/>
       <use xlink:href="#DejaVuSans-30" x="95.410156"/>
      </g>
     </g>
    </g>
   </g>
   <g id="line2d_13">
    <path d="M 73.832727 295.488 
L 100.385716 295.488 
L 100.385716 149.654535 
L 100.385716 149.654535 
L 100.50373 149.654535 
L 100.50373 147.610141 
L 100.50373 147.610141 
L 100.621743 147.610141 
L 100.621743 145.338592 
L 100.621743 145.338592 
L 100.739756 145.338592 
L 100.739756 144.429972 
L 100.739756 144.429972 
L 100.975783 144.429972 
L 100.975783 144.202817 
L 101.093796 144.202817 
L 101.093796 143.975662 
L 101.683862 143.975662 
L 101.683862 143.748507 
L 102.509955 143.748507 
L 102.509955 143.521352 
L 103.100022 143.521352 
L 103.100022 143.294197 
L 104.044128 143.294197 
L 104.044128 142.839887 
L 104.044128 142.839887 
L 105.460287 142.839887 
L 105.460287 142.612732 
L 106.28638 142.612732 
L 106.28638 142.385577 
L 107.230487 142.385577 
L 107.230487 142.158423 
L 107.70254 142.158423 
L 107.70254 141.931268 
L 108.528633 141.931268 
L 108.528633 141.249803 
L 108.528633 141.249803 
L 110.180819 141.249803 
L 110.180819 140.795493 
L 110.180819 140.795493 
L 111.242938 140.795493 
L 111.242938 140.568338 
L 111.478965 140.568338 
L 111.478965 140.341183 
L 114.90135 140.341183 
L 114.90135 140.114028 
L 119.149828 140.114028 
L 119.149828 139.886873 
L 119.739895 139.886873 
L 119.739895 139.659718 
L 121.392081 139.659718 
L 121.392081 139.432563 
L 121.510094 139.432563 
L 121.510094 139.205408 
L 121.628107 139.205408 
L 121.628107 138.978254 
L 121.746121 138.978254 
L 121.746121 138.751099 
L 122.100161 138.751099 
L 122.100161 138.523944 
L 123.752347 138.523944 
L 123.752347 138.296789 
L 124.2244 138.296789 
L 124.2244 138.069634 
L 124.696453 138.069634 
L 124.696453 137.842479 
L 125.050493 137.842479 
L 125.050493 137.615324 
L 129.062944 137.615324 
L 129.062944 137.388169 
L 129.180958 137.388169 
L 129.180958 137.161014 
L 129.534998 137.161014 
L 129.534998 136.933859 
L 130.361091 136.933859 
L 130.361091 136.706704 
L 130.951157 136.706704 
L 130.951157 136.479549 
L 131.06917 136.479549 
L 131.06917 136.252394 
L 131.541223 136.252394 
L 131.541223 136.025239 
L 132.249303 136.025239 
L 132.249303 135.798085 
L 132.603343 135.798085 
L 132.603343 135.57093 
L 132.839369 135.57093 
L 132.839369 135.343775 
L 134.727582 135.343775 
L 134.727582 135.11662 
L 135.081622 135.11662 
L 135.081622 134.889465 
L 136.615795 134.889465 
L 136.615795 134.66231 
L 136.733808 134.66231 
L 136.733808 134.208 
L 136.733808 134.208 
L 136.851821 134.208 
L 136.851821 133.980845 
L 136.969834 133.980845 
L 136.969834 133.75369 
L 137.323874 133.75369 
L 137.323874 133.526535 
L 137.559901 133.526535 
L 137.559901 133.29938 
L 137.913941 133.29938 
L 137.913941 133.072225 
L 138.267981 133.072225 
L 138.267981 132.84507 
L 138.504007 132.84507 
L 138.504007 132.617915 
L 141.100299 132.617915 
L 141.100299 132.390761 
L 141.218313 132.390761 
L 141.218313 131.936451 
L 141.218313 131.936451 
L 141.690366 131.936451 
L 141.690366 131.482141 
L 141.690366 131.482141 
L 142.870499 131.482141 
L 142.870499 131.027831 
L 142.870499 131.027831 
L 143.224539 131.027831 
L 143.224539 130.119211 
L 143.224539 130.119211 
L 143.814605 130.119211 
L 143.814605 129.892056 
L 145.584804 129.892056 
L 145.584804 129.664901 
L 146.292884 129.664901 
L 146.292884 129.437746 
L 146.52891 129.437746 
L 146.52891 129.210592 
L 147.23699 129.210592 
L 147.23699 128.756282 
L 147.23699 128.756282 
L 151.131429 128.756282 
L 151.131429 128.529127 
L 151.839508 128.529127 
L 151.839508 128.301972 
L 153.255668 128.301972 
L 153.255668 128.074817 
L 154.78984 128.074817 
L 154.78984 127.620507 
L 154.78984 127.620507 
L 155.025867 127.620507 
L 155.025867 127.393352 
L 156.324013 127.393352 
L 156.324013 126.484732 
L 156.324013 126.484732 
L 156.442026 126.484732 
L 156.442026 126.257577 
L 156.91408 126.257577 
L 156.91408 125.348958 
L 156.91408 125.348958 
L 159.274345 125.348958 
L 159.274345 124.894648 
L 159.274345 124.894648 
L 159.982425 124.894648 
L 159.982425 124.440338 
L 159.982425 124.440338 
L 161.988651 124.440338 
L 161.988651 124.213183 
L 162.460704 124.213183 
L 162.460704 123.531718 
L 162.460704 123.531718 
L 162.578717 123.531718 
L 162.578717 123.304563 
L 163.40481 123.304563 
L 163.40481 123.077408 
L 163.522823 123.077408 
L 163.522823 122.850254 
L 164.348916 122.850254 
L 164.348916 122.623099 
L 164.46693 122.623099 
L 164.46693 122.395944 
L 165.411036 122.395944 
L 165.411036 122.168789 
L 166.119116 122.168789 
L 166.119116 121.941634 
L 166.237129 121.941634 
L 166.237129 121.714479 
L 167.063222 121.714479 
L 167.063222 121.487324 
L 168.361368 121.487324 
L 168.361368 121.260169 
L 170.013554 121.260169 
L 170.013554 120.578704 
L 170.013554 120.578704 
L 170.131567 120.578704 
L 170.131567 120.351549 
L 170.95766 120.351549 
L 170.95766 120.124394 
L 173.199913 120.124394 
L 173.199913 119.897239 
L 174.144019 119.897239 
L 174.144019 119.670085 
L 176.268258 119.670085 
L 176.268258 119.215775 
L 176.268258 119.215775 
L 176.504285 119.215775 
L 176.504285 118.98862 
L 177.920444 118.98862 
L 177.920444 118.761465 
L 179.100577 118.761465 
L 179.100577 118.307155 
L 179.100577 118.307155 
L 179.336604 118.307155 
L 179.336604 118.08 
L 180.162697 118.08 
L 180.162697 117.62569 
L 180.162697 117.62569 
L 180.63475 117.62569 
L 180.63475 117.17138 
L 180.63475 117.17138 
L 180.98879 117.17138 
L 180.98879 116.944225 
L 181.106803 116.944225 
L 181.106803 116.489915 
L 181.106803 116.489915 
L 182.286936 116.489915 
L 182.286936 116.035606 
L 182.286936 116.035606 
L 182.640976 116.035606 
L 182.640976 115.808451 
L 183.939122 115.808451 
L 183.939122 115.581296 
L 186.063361 115.581296 
L 186.063361 115.354141 
L 186.653427 115.354141 
L 186.653427 115.126986 
L 187.007467 115.126986 
L 187.007467 114.672676 
L 187.007467 114.672676 
L 187.12548 114.672676 
L 187.12548 114.445521 
L 188.069587 114.445521 
L 188.069587 113.991211 
L 188.069587 113.991211 
L 188.89568 113.991211 
L 188.89568 113.764056 
L 190.429852 113.764056 
L 190.429852 113.536901 
L 191.019919 113.536901 
L 191.019919 113.309746 
L 191.255945 113.309746 
L 191.255945 113.082592 
L 193.734224 113.082592 
L 193.734224 112.855437 
L 198.454756 112.855437 
L 198.454756 112.628282 
L 200.106942 112.628282 
L 200.106942 112.401127 
L 201.641114 112.401127 
L 201.641114 112.173972 
L 203.057274 112.173972 
L 203.057274 111.946817 
L 203.2933 111.946817 
L 203.2933 111.492507 
L 203.2933 111.492507 
L 203.411314 111.492507 
L 203.411314 110.811042 
L 203.411314 110.811042 
L 203.765353 110.811042 
L 203.765353 110.583887 
L 204.591446 110.583887 
L 204.591446 110.356732 
L 206.479659 110.356732 
L 206.479659 110.129577 
L 207.895818 110.129577 
L 207.895818 109.902423 
L 208.013832 109.902423 
L 208.013832 109.448113 
L 208.013832 109.448113 
L 208.131845 109.448113 
L 208.131845 108.993803 
L 208.131845 108.993803 
L 209.193965 108.993803 
L 209.193965 108.766648 
L 209.666018 108.766648 
L 209.666018 108.539493 
L 209.784031 108.539493 
L 209.784031 108.085183 
L 209.784031 108.085183 
L 209.902044 108.085183 
L 209.902044 107.858028 
L 212.61635 107.858028 
L 212.61635 107.403718 
L 212.61635 107.403718 
L 212.734363 107.403718 
L 212.734363 106.949408 
L 212.734363 106.949408 
L 213.560456 106.949408 
L 213.560456 106.722254 
L 214.032509 106.722254 
L 214.032509 106.495099 
L 214.740589 106.495099 
L 214.740589 106.267944 
L 215.684695 106.267944 
L 215.684695 106.040789 
L 216.156748 106.040789 
L 216.156748 105.813634 
L 216.392775 105.813634 
L 216.392775 105.586479 
L 216.982841 105.586479 
L 216.982841 105.359324 
L 217.336881 105.359324 
L 217.336881 105.132169 
L 217.926948 105.132169 
L 217.926948 104.677859 
L 217.926948 104.677859 
L 218.044961 104.677859 
L 218.044961 103.769239 
L 218.044961 103.769239 
L 218.280987 103.769239 
L 218.280987 103.542085 
L 218.517014 103.542085 
L 218.517014 103.31493 
L 219.81516 103.31493 
L 219.81516 103.087775 
L 219.933173 103.087775 
L 219.933173 102.86062 
L 220.641253 102.86062 
L 220.641253 102.633465 
L 220.995293 102.633465 
L 220.995293 102.40631 
L 221.23132 102.40631 
L 221.23132 102.179155 
L 221.585359 102.179155 
L 221.585359 101.952 
L 221.939399 101.952 
L 221.939399 101.724845 
L 222.411452 101.724845 
L 222.411452 101.49769 
L 222.529466 101.49769 
L 222.529466 101.270535 
L 222.883506 101.270535 
L 222.883506 101.04338 
L 223.473572 101.04338 
L 223.473572 100.816225 
L 225.007745 100.816225 
L 225.007745 100.58907 
L 225.597811 100.58907 
L 225.597811 100.361915 
L 228.194103 100.361915 
L 228.194103 100.134761 
L 228.902183 100.134761 
L 228.902183 99.907606 
L 230.318342 99.907606 
L 230.318342 99.680451 
L 231.734502 99.680451 
L 231.734502 99.453296 
L 231.970528 99.453296 
L 231.970528 99.226141 
L 233.386688 99.226141 
L 233.386688 98.771831 
L 233.386688 98.771831 
L 233.504701 98.771831 
L 233.504701 98.317521 
L 233.504701 98.317521 
L 235.864967 98.317521 
L 235.864967 98.090366 
L 236.69106 98.090366 
L 236.69106 97.863211 
L 236.927086 97.863211 
L 236.927086 97.636056 
L 237.0451 97.636056 
L 237.0451 97.408901 
L 237.281126 97.408901 
L 237.281126 97.181746 
L 238.225232 97.181746 
L 238.225232 96.954592 
L 238.815299 96.954592 
L 238.815299 96.727437 
L 239.523379 96.727437 
L 239.523379 96.500282 
L 240.113445 96.500282 
L 240.113445 96.273127 
L 242.001658 96.273127 
L 242.001658 96.045972 
L 242.119671 96.045972 
L 242.119671 95.818817 
L 242.827751 95.818817 
L 242.827751 95.591662 
L 243.18179 95.591662 
L 243.18179 95.364507 
L 244.361923 95.364507 
L 244.361923 95.137352 
L 244.715963 95.137352 
L 244.715963 94.910197 
L 246.132123 94.910197 
L 246.132123 94.683042 
L 249.790534 94.683042 
L 249.790534 94.455887 
L 253.330933 94.455887 
L 253.330933 94.228732 
L 253.802986 94.228732 
L 253.802986 94.001577 
L 255.691199 94.001577 
L 255.691199 93.774423 
L 256.399278 93.774423 
L 256.399278 93.547268 
L 257.579411 93.547268 
L 257.579411 93.320113 
L 257.697424 93.320113 
L 257.697424 93.092958 
L 258.287491 93.092958 
L 258.287491 92.865803 
L 259.231597 92.865803 
L 259.231597 92.638648 
L 260.175703 92.638648 
L 260.175703 92.411493 
L 261.709876 92.411493 
L 261.709876 92.184338 
L 261.945903 92.184338 
L 261.945903 91.275718 
L 261.945903 91.275718 
L 263.716102 91.275718 
L 263.716102 91.048563 
L 263.834115 91.048563 
L 263.834115 90.139944 
L 263.834115 90.139944 
L 264.306168 90.139944 
L 264.306168 89.458479 
L 264.306168 89.458479 
L 264.660208 89.458479 
L 264.660208 89.231324 
L 265.132261 89.231324 
L 265.132261 89.004169 
L 266.784447 89.004169 
L 266.784447 88.777014 
L 267.020474 88.777014 
L 267.020474 88.549859 
L 269.0267 88.549859 
L 269.0267 87.641239 
L 269.0267 87.641239 
L 269.734779 87.641239 
L 269.734779 87.414085 
L 270.324846 87.414085 
L 270.324846 86.959775 
L 270.324846 86.959775 
L 270.796899 86.959775 
L 270.796899 86.73262 
L 272.803125 86.73262 
L 272.803125 86.505465 
L 273.393191 86.505465 
L 273.393191 86.27831 
L 273.747231 86.27831 
L 273.747231 86.051155 
L 275.045377 86.051155 
L 275.045377 85.824 
L 275.51743 85.824 
L 275.51743 85.596845 
L 276.343523 85.596845 
L 276.343523 85.36969 
L 278.467762 85.36969 
L 278.467762 85.142535 
L 280.001935 85.142535 
L 280.001935 84.91538 
L 281.654121 84.91538 
L 281.654121 84.688225 
L 282.834254 84.688225 
L 282.834254 84.46107 
L 283.542334 84.46107 
L 283.542334 83.552451 
L 283.542334 83.552451 
L 283.660347 83.552451 
L 283.660347 83.325296 
L 287.436772 83.325296 
L 287.436772 83.098141 
L 288.616905 83.098141 
L 288.616905 82.870986 
L 288.734918 82.870986 
L 288.734918 82.643831 
L 290.151078 82.643831 
L 290.151078 82.416676 
L 290.269091 82.416676 
L 290.269091 81.735211 
L 290.269091 81.735211 
L 292.629357 81.735211 
L 292.629357 81.508056 
L 294.635582 81.508056 
L 294.635582 80.826592 
L 294.635582 80.826592 
L 294.753596 80.826592 
L 294.753596 80.599437 
L 297.113861 80.599437 
L 297.113861 80.372282 
L 298.057968 80.372282 
L 298.057968 80.145127 
L 298.293994 80.145127 
L 298.293994 79.463662 
L 298.293994 79.463662 
L 298.412008 79.463662 
L 298.412008 79.009352 
L 298.412008 79.009352 
L 305.492805 79.009352 
L 305.492805 78.327887 
L 305.492805 78.327887 
L 305.610818 78.327887 
L 305.610818 78.100732 
L 309.505256 78.100732 
L 309.505256 77.873577 
L 310.803402 77.873577 
L 310.803402 77.646423 
L 311.039429 77.646423 
L 311.039429 77.419268 
L 320.362478 77.419268 
L 320.362478 77.192113 
L 320.598505 77.192113 
L 320.598505 76.964958 
L 321.660625 76.964958 
L 321.660625 76.737803 
L 323.902877 76.737803 
L 323.902877 75.829183 
L 323.902877 75.829183 
L 324.610957 75.829183 
L 324.610957 75.602028 
L 325.201023 75.602028 
L 325.201023 75.374873 
L 326.381156 75.374873 
L 326.381156 74.920563 
L 326.381156 74.920563 
L 327.089236 74.920563 
L 327.089236 74.011944 
L 327.089236 74.011944 
L 327.443276 74.011944 
L 327.443276 73.784789 
L 327.679302 73.784789 
L 327.679302 73.557634 
L 328.505395 73.557634 
L 328.505395 73.330479 
L 329.213475 73.330479 
L 329.213475 73.103324 
L 329.331488 73.103324 
L 329.331488 72.876169 
L 329.567515 72.876169 
L 329.567515 72.421859 
L 329.567515 72.421859 
L 330.983674 72.421859 
L 330.983674 72.194704 
L 331.219701 72.194704 
L 331.219701 71.967549 
L 331.337714 71.967549 
L 331.337714 71.740394 
L 331.57374 71.740394 
L 331.57374 71.513239 
L 332.399833 71.513239 
L 332.399833 71.05893 
L 332.399833 71.05893 
L 332.517847 71.05893 
L 332.517847 70.60462 
L 332.517847 70.60462 
L 332.753873 70.60462 
L 332.753873 70.377465 
L 333.225926 70.377465 
L 333.225926 70.15031 
L 333.934006 70.15031 
L 333.934006 69.923155 
L 334.052019 69.923155 
L 334.052019 69.696 
L 334.288046 69.696 
L 334.288046 69.24169 
L 334.288046 69.24169 
L 334.406059 69.24169 
L 334.406059 69.014535 
L 334.760099 69.014535 
L 334.760099 68.78738 
L 335.350166 68.78738 
L 335.350166 68.105915 
L 335.350166 68.105915 
L 335.468179 68.105915 
L 335.468179 67.878761 
L 336.058245 67.878761 
L 336.058245 67.651606 
L 337.828445 67.651606 
L 337.828445 67.424451 
L 340.070697 67.424451 
L 340.070697 66.970141 
L 340.070697 66.970141 
L 340.18871 66.970141 
L 340.18871 66.742986 
L 341.132816 66.742986 
L 341.132816 66.515831 
L 341.25083 66.515831 
L 341.25083 66.288676 
L 342.548976 66.288676 
L 342.548976 66.061521 
L 343.021029 66.061521 
L 343.021029 65.834366 
L 348.921693 65.834366 
L 348.921693 65.607211 
L 355.294411 65.607211 
L 355.294411 65.380056 
L 356.00249 65.380056 
L 356.00249 64.925746 
L 356.00249 64.925746 
L 356.946597 64.925746 
L 356.946597 64.698592 
L 359.188849 64.698592 
L 359.188849 64.017127 
L 359.188849 64.017127 
L 363.201301 64.017127 
L 363.201301 63.562817 
L 363.201301 63.562817 
L 364.9715 63.562817 
L 364.9715 63.335662 
L 365.32554 63.335662 
L 365.32554 63.108507 
L 373.58647 63.108507 
L 373.58647 62.881352 
L 381.49336 62.881352 
L 381.49336 62.199887 
L 381.49336 62.199887 
L 385.741838 62.199887 
L 385.741838 61.972732 
L 386.567931 61.972732 
L 386.567931 61.291268 
L 386.567931 61.291268 
L 386.685944 61.291268 
L 386.685944 60.609803 
L 386.685944 60.609803 
L 387.157997 60.609803 
L 387.157997 60.382648 
L 387.276011 60.382648 
L 387.276011 59.928338 
L 387.276011 59.928338 
L 388.102104 59.928338 
L 388.102104 59.474028 
L 388.102104 59.474028 
L 388.220117 59.474028 
L 388.220117 59.246873 
L 388.574157 59.246873 
L 388.574157 59.019718 
L 389.164223 59.019718 
L 389.164223 58.565408 
L 389.164223 58.565408 
L 390.816409 58.565408 
L 390.816409 57.883944 
L 390.816409 57.883944 
L 390.934423 57.883944 
L 390.934423 57.202479 
L 390.934423 57.202479 
L 391.170449 57.202479 
L 391.170449 56.748169 
L 391.170449 56.748169 
L 391.288462 56.748169 
L 391.288462 56.521014 
L 392.586609 56.521014 
L 392.586609 56.293859 
L 393.176675 56.293859 
L 393.176675 56.066704 
L 394.828861 56.066704 
L 394.828861 55.612394 
L 394.828861 55.612394 
L 394.946874 55.612394 
L 394.946874 55.385239 
L 395.654954 55.385239 
L 395.654954 55.158085 
L 395.772967 55.158085 
L 395.772967 54.93093 
L 397.425153 54.93093 
L 397.425153 54.703775 
L 397.543166 54.703775 
L 397.543166 54.249465 
L 397.543166 54.249465 
L 398.369259 54.249465 
L 398.369259 53.795155 
L 398.369259 53.795155 
L 398.487273 53.795155 
L 398.487273 53.568 
L 398.487273 53.568 
" clip-path="url(#p43fc9b1c5f)" style="fill: none; stroke: #1f77b4; stroke-width: 1.5; stroke-linecap: square"/>
   </g>
   <g id="patch_3">
    <path d="M 57.6 307.584 
L 57.6 41.472 
" style="fill: none; stroke: #000000; stroke-width: 0.8; stroke-linejoin: miter; stroke-linecap: square"/>
   </g>
   <g id="patch_4">
    <path d="M 414.72 307.584 
L 414.72 41.472 
" style="fill: none; stroke: #000000; stroke-width: 0.8; stroke-linejoin: miter; stroke-linecap: square"/>
   </g>
   <g id="patch_5">
    <path d="M 57.6 307.584 
L 414.72 307.584 
" style="fill: none; stroke: #000000; stroke-width: 0.8; stroke-linejoin: miter; stroke-linecap: square"/>
   </g>
   <g id="patch_6">
    <path d="M 57.6 41.472 
L 414.72 41.472 
" style="fill: none; stroke: #000000; stroke-width: 0.8; stroke-linejoin: miter; stroke-linecap: square"/>
   </g>
   <g id="text_13">
    <!-- S5 S6 -->
    <g transform="translate(219 35.472) scale(0.12 -0.12)">
     <defs>
      <path id="DejaVuSans-53" d="M 3425 4513 
L 3425 3897 
Q 3066 4069 2747 4153 
Q 2428 4238 2131 4238 
Q 1616 4238 1336 4038 
Q 1056 3838 1056 3469 
Q 1056 3159 1242 3001 
Q 1428 2844 1947 2747 
L 2328 2669 
Q 3034 2534 3370 2195 
Q 3706 1856 3706 1288 
Q 3706 609 3251 259 
Q 2797 -91 1919 -91 
Q 1588 -91 1214 -16 
Q 841 59 441 206 
L 441 856 
Q 825 641 1194 531 
Q 1563 422 1919 422 
Q 2459 422 2753 634 
Q 3047 847 3047 1241 
Q 3047 1584 2836 1778 
Q 2625 1972 2144 2069 
L 1759 2144 
Q 1053 2284 737 2584 
Q 422 2884 422 3419 
Q 422 4038 858 4394 
Q 1294 4750 2059 4750 
Q 2388 4750 2728 4690 
Q 3069 4631 3425 4513 
z
" transform="scale(0.015625)"/>
      <path id="DejaVuSans-20" transform="scale(0.015625)"/>
     </defs>
     <use xlink:href="#DejaVuSans-53"/>
     <use xlink:href="#DejaVuSans-35" x="63.476562"/>
     <use xlink:href="#DejaVuSans-20" x="127.099609"/>
     <use xlink:href="#DejaVuSans-53" x="158.886719"/>
     <use xlink:href="#DejaVuSans-36" x="222.363281"/>
    </g>
   </g>
   <g id="legend_1">
    <g id="patch_7">
     <path d="M 299.496562 304.584 
L 410.52 304.584 
Q 411.72 304.584 411.72 303.384 
L 411.72 295.177125 
Q 411.72 293.977125 410.52 293.977125 
L 299.496562 293.977125 
Q 298.296562 293.977125 298.296562 295.177125 
L 298.296562 303.384 
Q 298.296562 304.584 299.496562 304.584 
z
" style="fill: #ffffff; opacity: 0.8; stroke: #cccccc; stroke-linejoin: miter"/>
    </g>
    <g id="line2d_14">
     <path d="M 300.696562 298.836187 
L 306.696562 298.836187 
L 312.696562 298.836187 
" style="fill: none; stroke: #1f77b4; stroke-width: 1.5; stroke-linecap: square"/>
    </g>
    <g id="text_14">
     <!-- Execution time between S5 S6 -->
     <g transform="translate(317.496562 300.936187) scale(0.06 -0.06)">
      <defs>
       <path id="DejaVuSans-45" d="M 628 4666 
L 3578 4666 
L 3578 4134 
L 1259 4134 
L 1259 2753 
L 3481 2753 
L 3481 2222 
L 1259 2222 
L 1259 531 
L 3634 531 
L 3634 0 
L 628 0 
L 628 4666 
z
" transform="scale(0.015625)"/>
       <path id="DejaVuSans-78" d="M 3513 3500 
L 2247 1797 
L 3578 0 
L 2900 0 
L 1881 1375 
L 863 0 
L 184 0 
L 1544 1831 
L 300 3500 
L 978 3500 
L 1906 2253 
L 2834 3500 
L 3513 3500 
z
" transform="scale(0.015625)"/>
       <path id="DejaVuSans-65" d="M 3597 1894 
L 3597 1613 
L 953 1613 
Q 991 1019 1311 708 
Q 1631 397 2203 397 
Q 2534 397 2845 478 
Q 3156 559 3463 722 
L 3463 178 
Q 3153 47 2828 -22 
Q 2503 -91 2169 -91 
Q 1331 -91 842 396 
Q 353 884 353 1716 
Q 353 2575 817 3079 
Q 1281 3584 2069 3584 
Q 2775 3584 3186 3129 
Q 3597 2675 3597 1894 
z
M 3022 2063 
Q 3016 2534 2758 2815 
Q 2500 3097 2075 3097 
Q 1594 3097 1305 2825 
Q 1016 2553 972 2059 
L 3022 2063 
z
" transform="scale(0.015625)"/>
       <path id="DejaVuSans-63" d="M 3122 3366 
L 3122 2828 
Q 2878 2963 2633 3030 
Q 2388 3097 2138 3097 
Q 1578 3097 1268 2742 
Q 959 2388 959 1747 
Q 959 1106 1268 751 
Q 1578 397 2138 397 
Q 2388 397 2633 464 
Q 2878 531 3122 666 
L 3122 134 
Q 2881 22 2623 -34 
Q 2366 -91 2075 -91 
Q 1284 -91 818 406 
Q 353 903 353 1747 
Q 353 2603 823 3093 
Q 1294 3584 2113 3584 
Q 2378 3584 2631 3529 
Q 2884 3475 3122 3366 
z
" transform="scale(0.015625)"/>
       <path id="DejaVuSans-75" d="M 544 1381 
L 544 3500 
L 1119 3500 
L 1119 1403 
Q 1119 906 1312 657 
Q 1506 409 1894 409 
Q 2359 409 2629 706 
Q 2900 1003 2900 1516 
L 2900 3500 
L 3475 3500 
L 3475 0 
L 2900 0 
L 2900 538 
Q 2691 219 2414 64 
Q 2138 -91 1772 -91 
Q 1169 -91 856 284 
Q 544 659 544 1381 
z
M 1991 3584 
L 1991 3584 
z
" transform="scale(0.015625)"/>
       <path id="DejaVuSans-74" d="M 1172 4494 
L 1172 3500 
L 2356 3500 
L 2356 3053 
L 1172 3053 
L 1172 1153 
Q 1172 725 1289 603 
Q 1406 481 1766 481 
L 2356 481 
L 2356 0 
L 1766 0 
Q 1100 0 847 248 
Q 594 497 594 1153 
L 594 3053 
L 172 3053 
L 172 3500 
L 594 3500 
L 594 4494 
L 1172 4494 
z
" transform="scale(0.015625)"/>
       <path id="DejaVuSans-69" d="M 603 3500 
L 1178 3500 
L 1178 0 
L 603 0 
L 603 3500 
z
M 603 4863 
L 1178 4863 
L 1178 4134 
L 603 4134 
L 603 4863 
z
" transform="scale(0.015625)"/>
       <path id="DejaVuSans-6f" d="M 1959 3097 
Q 1497 3097 1228 2736 
Q 959 2375 959 1747 
Q 959 1119 1226 758 
Q 1494 397 1959 397 
Q 2419 397 2687 759 
Q 2956 1122 2956 1747 
Q 2956 2369 2687 2733 
Q 2419 3097 1959 3097 
z
M 1959 3584 
Q 2709 3584 3137 3096 
Q 3566 2609 3566 1747 
Q 3566 888 3137 398 
Q 2709 -91 1959 -91 
Q 1206 -91 779 398 
Q 353 888 353 1747 
Q 353 2609 779 3096 
Q 1206 3584 1959 3584 
z
" transform="scale(0.015625)"/>
       <path id="DejaVuSans-6e" d="M 3513 2113 
L 3513 0 
L 2938 0 
L 2938 2094 
Q 2938 2591 2744 2837 
Q 2550 3084 2163 3084 
Q 1697 3084 1428 2787 
Q 1159 2491 1159 1978 
L 1159 0 
L 581 0 
L 581 3500 
L 1159 3500 
L 1159 2956 
Q 1366 3272 1645 3428 
Q 1925 3584 2291 3584 
Q 2894 3584 3203 3211 
Q 3513 2838 3513 2113 
z
" transform="scale(0.015625)"/>
       <path id="DejaVuSans-6d" d="M 3328 2828 
Q 3544 3216 3844 3400 
Q 4144 3584 4550 3584 
Q 5097 3584 5394 3201 
Q 5691 2819 5691 2113 
L 5691 0 
L 5113 0 
L 5113 2094 
Q 5113 2597 4934 2840 
Q 4756 3084 4391 3084 
Q 3944 3084 3684 2787 
Q 3425 2491 3425 1978 
L 3425 0 
L 2847 0 
L 2847 2094 
Q 2847 2600 2669 2842 
Q 2491 3084 2119 3084 
Q 1678 3084 1418 2786 
Q 1159 2488 1159 1978 
L 1159 0 
L 581 0 
L 581 3500 
L 1159 3500 
L 1159 2956 
Q 1356 3278 1631 3431 
Q 1906 3584 2284 3584 
Q 2666 3584 2933 3390 
Q 3200 3197 3328 2828 
z
" transform="scale(0.015625)"/>
       <path id="DejaVuSans-62" d="M 3116 1747 
Q 3116 2381 2855 2742 
Q 2594 3103 2138 3103 
Q 1681 3103 1420 2742 
Q 1159 2381 1159 1747 
Q 1159 1113 1420 752 
Q 1681 391 2138 391 
Q 2594 391 2855 752 
Q 3116 1113 3116 1747 
z
M 1159 2969 
Q 1341 3281 1617 3432 
Q 1894 3584 2278 3584 
Q 2916 3584 3314 3078 
Q 3713 2572 3713 1747 
Q 3713 922 3314 415 
Q 2916 -91 2278 -91 
Q 1894 -91 1617 61 
Q 1341 213 1159 525 
L 1159 0 
L 581 0 
L 581 4863 
L 1159 4863 
L 1159 2969 
z
" transform="scale(0.015625)"/>
       <path id="DejaVuSans-77" d="M 269 3500 
L 844 3500 
L 1563 769 
L 2278 3500 
L 2956 3500 
L 3675 769 
L 4391 3500 
L 4966 3500 
L 4050 0 
L 3372 0 
L 2619 2869 
L 1863 0 
L 1184 0 
L 269 3500 
z
" transform="scale(0.015625)"/>
      </defs>
      <use xlink:href="#DejaVuSans-45"/>
      <use xlink:href="#DejaVuSans-78" x="63.183594"/>
      <use xlink:href="#DejaVuSans-65" x="119.238281"/>
      <use xlink:href="#DejaVuSans-63" x="180.761719"/>
      <use xlink:href="#DejaVuSans-75" x="235.742188"/>
      <use xlink:href="#DejaVuSans-74" x="299.121094"/>
      <use xlink:href="#DejaVuSans-69" x="338.330078"/>
      <use xlink:href="#DejaVuSans-6f" x="366.113281"/>
      <use xlink:href="#DejaVuSans-6e" x="427.294922"/>
      <use xlink:href="#DejaVuSans-20" x="490.673828"/>
      <use xlink:href="#DejaVuSans-74" x="522.460938"/>
      <use xlink:href="#DejaVuSans-69" x="561.669922"/>
      <use xlink:href="#DejaVuSans-6d" x="589.453125"/>
      <use xlink:href="#DejaVuSans-65" x="686.865234"/>
      <use xlink:href="#DejaVuSans-20" x="748.388672"/>
      <use xlink:href="#DejaVuSans-62" x="780.175781"/>
      <use xlink:href="#DejaVuSans-65" x="843.652344"/>
      <use xlink:href="#DejaVuSans-74" x="905.175781"/>
      <use xlink:href="#DejaVuSans-77" x="944.384766"/>
      <use xlink:href="#DejaVuSans-65" x="1026.171875"/>
      <use xlink:href="#DejaVuSans-65" x="1087.695312"/>
      <use xlink:href="#DejaVuSans-6e" x="1149.21875"/>
      <use xlink:href="#DejaVuSans-20" x="1212.597656"/>
      <use xlink:href="#DejaVuSans-53" x="1244.384766"/>
      <use xlink:href="#DejaVuSans-35" x="1307.861328"/>
      <use xlink:href="#DejaVuSans-20" x="1371.484375"/>
      <use xlink:href="#DejaVuSans-53" x="1403.271484"/>
      <use xlink:href="#DejaVuSans-36" x="1466.748047"/>
     </g>
    </g>
   </g>
  </g>
 </g>
 <defs>
  <clipPath id="p43fc9b1c5f">
   <rect x="57.6" y="41.472" width="357.12" height="266.112"/>
  </clipPath>
 </defs>
</svg>
