<?xml version="1.0" encoding="utf-8" standalone="no"?>
<!DOCTYPE svg PUBLIC "-//W3C//DTD SVG 1.1//EN"
  "http://www.w3.org/Graphics/SVG/1.1/DTD/svg11.dtd">
<svg xmlns:xlink="http://www.w3.org/1999/xlink" width="460.8pt" height="345.6pt" viewBox="0 0 460.8 345.6" xmlns="http://www.w3.org/2000/svg" version="1.1">
 <metadata>
  <rdf:RDF xmlns:dc="http://purl.org/dc/elements/1.1/" xmlns:cc="http://creativecommons.org/ns#" xmlns:rdf="http://www.w3.org/1999/02/22-rdf-syntax-ns#">
   <cc:Work>
    <dc:type rdf:resource="http://purl.org/dc/dcmitype/StillImage"/>
    <dc:date>2024-03-08T13:21:09.239053</dc:date>
    <dc:format>image/svg+xml</dc:format>
    <dc:creator>
     <cc:Agent>
      <dc:title>Matplotlib v3.8.2, https://matplotlib.org/</dc:title>
     </cc:Agent>
    </dc:creator>
   </cc:Work>
  </rdf:RDF>
 </metadata>
 <defs>
  <style type="text/css">*{stroke-linejoin: round; stroke-linecap: butt}</style>
 </defs>
 <g id="figure_1">
  <g id="patch_1">
   <path d="M 0 345.6 
L 460.8 345.6 
L 460.8 0 
L 0 0 
z
" style="fill: #ffffff"/>
  </g>
  <g id="axes_1">
   <g id="patch_2">
    <path d="M 57.6 307.584 
L 414.72 307.584 
L 414.72 41.472 
L 57.6 41.472 
z
" style="fill: #ffffff"/>
   </g>
   <g id="matplotlib.axis_1">
    <g id="xtick_1">
     <g id="line2d_1">
      <defs>
       <path id="m3ce9d8a9ff" d="M 0 0 
L 0 3.5 
" style="stroke: #000000; stroke-width: 0.8"/>
      </defs>
      <g>
       <use xlink:href="#m3ce9d8a9ff" x="73.546511" y="307.584" style="stroke: #000000; stroke-width: 0.8"/>
      </g>
     </g>
     <g id="text_1">
      <!-- 0.0 -->
      <g transform="translate(65.594949 322.182437) scale(0.1 -0.1)">
       <defs>
        <path id="DejaVuSans-30" d="M 2034 4250 
Q 1547 4250 1301 3770 
Q 1056 3291 1056 2328 
Q 1056 1369 1301 889 
Q 1547 409 2034 409 
Q 2525 409 2770 889 
Q 3016 1369 3016 2328 
Q 3016 3291 2770 3770 
Q 2525 4250 2034 4250 
z
M 2034 4750 
Q 2819 4750 3233 4129 
Q 3647 3509 3647 2328 
Q 3647 1150 3233 529 
Q 2819 -91 2034 -91 
Q 1250 -91 836 529 
Q 422 1150 422 2328 
Q 422 3509 836 4129 
Q 1250 4750 2034 4750 
z
" transform="scale(0.015625)"/>
        <path id="DejaVuSans-2e" d="M 684 794 
L 1344 794 
L 1344 0 
L 684 0 
L 684 794 
z
" transform="scale(0.015625)"/>
       </defs>
       <use xlink:href="#DejaVuSans-30"/>
       <use xlink:href="#DejaVuSans-2e" x="63.623047"/>
       <use xlink:href="#DejaVuSans-30" x="95.410156"/>
      </g>
     </g>
    </g>
    <g id="xtick_2">
     <g id="line2d_2">
      <g>
       <use xlink:href="#m3ce9d8a9ff" x="118.690967" y="307.584" style="stroke: #000000; stroke-width: 0.8"/>
      </g>
     </g>
     <g id="text_2">
      <!-- 0.5 -->
      <g transform="translate(110.739404 322.182437) scale(0.1 -0.1)">
       <defs>
        <path id="DejaVuSans-35" d="M 691 4666 
L 3169 4666 
L 3169 4134 
L 1269 4134 
L 1269 2991 
Q 1406 3038 1543 3061 
Q 1681 3084 1819 3084 
Q 2600 3084 3056 2656 
Q 3513 2228 3513 1497 
Q 3513 744 3044 326 
Q 2575 -91 1722 -91 
Q 1428 -91 1123 -41 
Q 819 9 494 109 
L 494 744 
Q 775 591 1075 516 
Q 1375 441 1709 441 
Q 2250 441 2565 725 
Q 2881 1009 2881 1497 
Q 2881 1984 2565 2268 
Q 2250 2553 1709 2553 
Q 1456 2553 1204 2497 
Q 953 2441 691 2322 
L 691 4666 
z
" transform="scale(0.015625)"/>
       </defs>
       <use xlink:href="#DejaVuSans-30"/>
       <use xlink:href="#DejaVuSans-2e" x="63.623047"/>
       <use xlink:href="#DejaVuSans-35" x="95.410156"/>
      </g>
     </g>
    </g>
    <g id="xtick_3">
     <g id="line2d_3">
      <g>
       <use xlink:href="#m3ce9d8a9ff" x="163.835422" y="307.584" style="stroke: #000000; stroke-width: 0.8"/>
      </g>
     </g>
     <g id="text_3">
      <!-- 1.0 -->
      <g transform="translate(155.88386 322.182437) scale(0.1 -0.1)">
       <defs>
        <path id="DejaVuSans-31" d="M 794 531 
L 1825 531 
L 1825 4091 
L 703 3866 
L 703 4441 
L 1819 4666 
L 2450 4666 
L 2450 531 
L 3481 531 
L 3481 0 
L 794 0 
L 794 531 
z
" transform="scale(0.015625)"/>
       </defs>
       <use xlink:href="#DejaVuSans-31"/>
       <use xlink:href="#DejaVuSans-2e" x="63.623047"/>
       <use xlink:href="#DejaVuSans-30" x="95.410156"/>
      </g>
     </g>
    </g>
    <g id="xtick_4">
     <g id="line2d_4">
      <g>
       <use xlink:href="#m3ce9d8a9ff" x="208.979878" y="307.584" style="stroke: #000000; stroke-width: 0.8"/>
      </g>
     </g>
     <g id="text_4">
      <!-- 1.5 -->
      <g transform="translate(201.028315 322.182437) scale(0.1 -0.1)">
       <use xlink:href="#DejaVuSans-31"/>
       <use xlink:href="#DejaVuSans-2e" x="63.623047"/>
       <use xlink:href="#DejaVuSans-35" x="95.410156"/>
      </g>
     </g>
    </g>
    <g id="xtick_5">
     <g id="line2d_5">
      <g>
       <use xlink:href="#m3ce9d8a9ff" x="254.124333" y="307.584" style="stroke: #000000; stroke-width: 0.8"/>
      </g>
     </g>
     <g id="text_5">
      <!-- 2.0 -->
      <g transform="translate(246.172771 322.182437) scale(0.1 -0.1)">
       <defs>
        <path id="DejaVuSans-32" d="M 1228 531 
L 3431 531 
L 3431 0 
L 469 0 
L 469 531 
Q 828 903 1448 1529 
Q 2069 2156 2228 2338 
Q 2531 2678 2651 2914 
Q 2772 3150 2772 3378 
Q 2772 3750 2511 3984 
Q 2250 4219 1831 4219 
Q 1534 4219 1204 4116 
Q 875 4013 500 3803 
L 500 4441 
Q 881 4594 1212 4672 
Q 1544 4750 1819 4750 
Q 2544 4750 2975 4387 
Q 3406 4025 3406 3419 
Q 3406 3131 3298 2873 
Q 3191 2616 2906 2266 
Q 2828 2175 2409 1742 
Q 1991 1309 1228 531 
z
" transform="scale(0.015625)"/>
       </defs>
       <use xlink:href="#DejaVuSans-32"/>
       <use xlink:href="#DejaVuSans-2e" x="63.623047"/>
       <use xlink:href="#DejaVuSans-30" x="95.410156"/>
      </g>
     </g>
    </g>
    <g id="xtick_6">
     <g id="line2d_6">
      <g>
       <use xlink:href="#m3ce9d8a9ff" x="299.268789" y="307.584" style="stroke: #000000; stroke-width: 0.8"/>
      </g>
     </g>
     <g id="text_6">
      <!-- 2.5 -->
      <g transform="translate(291.317226 322.182437) scale(0.1 -0.1)">
       <use xlink:href="#DejaVuSans-32"/>
       <use xlink:href="#DejaVuSans-2e" x="63.623047"/>
       <use xlink:href="#DejaVuSans-35" x="95.410156"/>
      </g>
     </g>
    </g>
    <g id="xtick_7">
     <g id="line2d_7">
      <g>
       <use xlink:href="#m3ce9d8a9ff" x="344.413244" y="307.584" style="stroke: #000000; stroke-width: 0.8"/>
      </g>
     </g>
     <g id="text_7">
      <!-- 3.0 -->
      <g transform="translate(336.461682 322.182437) scale(0.1 -0.1)">
       <defs>
        <path id="DejaVuSans-33" d="M 2597 2516 
Q 3050 2419 3304 2112 
Q 3559 1806 3559 1356 
Q 3559 666 3084 287 
Q 2609 -91 1734 -91 
Q 1441 -91 1130 -33 
Q 819 25 488 141 
L 488 750 
Q 750 597 1062 519 
Q 1375 441 1716 441 
Q 2309 441 2620 675 
Q 2931 909 2931 1356 
Q 2931 1769 2642 2001 
Q 2353 2234 1838 2234 
L 1294 2234 
L 1294 2753 
L 1863 2753 
Q 2328 2753 2575 2939 
Q 2822 3125 2822 3475 
Q 2822 3834 2567 4026 
Q 2313 4219 1838 4219 
Q 1578 4219 1281 4162 
Q 984 4106 628 3988 
L 628 4550 
Q 988 4650 1302 4700 
Q 1616 4750 1894 4750 
Q 2613 4750 3031 4423 
Q 3450 4097 3450 3541 
Q 3450 3153 3228 2886 
Q 3006 2619 2597 2516 
z
" transform="scale(0.015625)"/>
       </defs>
       <use xlink:href="#DejaVuSans-33"/>
       <use xlink:href="#DejaVuSans-2e" x="63.623047"/>
       <use xlink:href="#DejaVuSans-30" x="95.410156"/>
      </g>
     </g>
    </g>
    <g id="xtick_8">
     <g id="line2d_8">
      <g>
       <use xlink:href="#m3ce9d8a9ff" x="389.557699" y="307.584" style="stroke: #000000; stroke-width: 0.8"/>
      </g>
     </g>
     <g id="text_8">
      <!-- 3.5 -->
      <g transform="translate(381.606137 322.182437) scale(0.1 -0.1)">
       <use xlink:href="#DejaVuSans-33"/>
       <use xlink:href="#DejaVuSans-2e" x="63.623047"/>
       <use xlink:href="#DejaVuSans-35" x="95.410156"/>
      </g>
     </g>
    </g>
    <g id="text_9">
     <!-- 1e6 -->
     <g transform="translate(395.841875 334.860562) scale(0.1 -0.1)">
      <defs>
       <path id="DejaVuSans-65" d="M 3597 1894 
L 3597 1613 
L 953 1613 
Q 991 1019 1311 708 
Q 1631 397 2203 397 
Q 2534 397 2845 478 
Q 3156 559 3463 722 
L 3463 178 
Q 3153 47 2828 -22 
Q 2503 -91 2169 -91 
Q 1331 -91 842 396 
Q 353 884 353 1716 
Q 353 2575 817 3079 
Q 1281 3584 2069 3584 
Q 2775 3584 3186 3129 
Q 3597 2675 3597 1894 
z
M 3022 2063 
Q 3016 2534 2758 2815 
Q 2500 3097 2075 3097 
Q 1594 3097 1305 2825 
Q 1016 2553 972 2059 
L 3022 2063 
z
" transform="scale(0.015625)"/>
       <path id="DejaVuSans-36" d="M 2113 2584 
Q 1688 2584 1439 2293 
Q 1191 2003 1191 1497 
Q 1191 994 1439 701 
Q 1688 409 2113 409 
Q 2538 409 2786 701 
Q 3034 994 3034 1497 
Q 3034 2003 2786 2293 
Q 2538 2584 2113 2584 
z
M 3366 4563 
L 3366 3988 
Q 3128 4100 2886 4159 
Q 2644 4219 2406 4219 
Q 1781 4219 1451 3797 
Q 1122 3375 1075 2522 
Q 1259 2794 1537 2939 
Q 1816 3084 2150 3084 
Q 2853 3084 3261 2657 
Q 3669 2231 3669 1497 
Q 3669 778 3244 343 
Q 2819 -91 2113 -91 
Q 1303 -91 875 529 
Q 447 1150 447 2328 
Q 447 3434 972 4092 
Q 1497 4750 2381 4750 
Q 2619 4750 2861 4703 
Q 3103 4656 3366 4563 
z
" transform="scale(0.015625)"/>
      </defs>
      <use xlink:href="#DejaVuSans-31"/>
      <use xlink:href="#DejaVuSans-65" x="63.623047"/>
      <use xlink:href="#DejaVuSans-36" x="125.146484"/>
     </g>
    </g>
   </g>
   <g id="matplotlib.axis_2">
    <g id="ytick_1">
     <g id="line2d_9">
      <defs>
       <path id="meca181e26b" d="M 0 0 
L -3.5 0 
" style="stroke: #000000; stroke-width: 0.8"/>
      </defs>
      <g>
       <use xlink:href="#meca181e26b" x="57.6" y="295.488" style="stroke: #000000; stroke-width: 0.8"/>
      </g>
     </g>
     <g id="text_10">
      <!-- 0 -->
      <g transform="translate(44.2375 299.287219) scale(0.1 -0.1)">
       <use xlink:href="#DejaVuSans-30"/>
      </g>
     </g>
    </g>
    <g id="ytick_2">
     <g id="line2d_10">
      <g>
       <use xlink:href="#meca181e26b" x="57.6" y="237.888" style="stroke: #000000; stroke-width: 0.8"/>
      </g>
     </g>
     <g id="text_11">
      <!-- 5 -->
      <g transform="translate(44.2375 241.687219) scale(0.1 -0.1)">
       <use xlink:href="#DejaVuSans-35"/>
      </g>
     </g>
    </g>
    <g id="ytick_3">
     <g id="line2d_11">
      <g>
       <use xlink:href="#meca181e26b" x="57.6" y="180.288" style="stroke: #000000; stroke-width: 0.8"/>
      </g>
     </g>
     <g id="text_12">
      <!-- 10 -->
      <g transform="translate(37.875 184.087219) scale(0.1 -0.1)">
       <use xlink:href="#DejaVuSans-31"/>
       <use xlink:href="#DejaVuSans-30" x="63.623047"/>
      </g>
     </g>
    </g>
    <g id="ytick_4">
     <g id="line2d_12">
      <g>
       <use xlink:href="#meca181e26b" x="57.6" y="122.688" style="stroke: #000000; stroke-width: 0.8"/>
      </g>
     </g>
     <g id="text_13">
      <!-- 15 -->
      <g transform="translate(37.875 126.487219) scale(0.1 -0.1)">
       <use xlink:href="#DejaVuSans-31"/>
       <use xlink:href="#DejaVuSans-35" x="63.623047"/>
      </g>
     </g>
    </g>
    <g id="ytick_5">
     <g id="line2d_13">
      <g>
       <use xlink:href="#meca181e26b" x="57.6" y="65.088" style="stroke: #000000; stroke-width: 0.8"/>
      </g>
     </g>
     <g id="text_14">
      <!-- 20 -->
      <g transform="translate(37.875 68.887219) scale(0.1 -0.1)">
       <use xlink:href="#DejaVuSans-32"/>
       <use xlink:href="#DejaVuSans-30" x="63.623047"/>
      </g>
     </g>
    </g>
   </g>
   <g id="line2d_14">
    <path d="M 73.832727 283.968 
L 74.051226 295.488 
L 74.147836 283.968 
L 74.366335 295.488 
L 74.462041 283.968 
L 74.68054 295.488 
L 74.777149 283.968 
L 74.995648 295.488 
L 75.098578 283.968 
L 75.317077 295.488 
L 75.413686 283.968 
L 75.632185 295.488 
L 75.726989 283.968 
L 75.945488 295.488 
L 76.041194 283.968 
L 76.259693 295.488 
L 76.36172 283.968 
L 76.580219 295.488 
L 76.68044 283.968 
L 76.898939 295.488 
L 76.996451 283.968 
L 77.21495 295.488 
L 77.313365 283.968 
L 77.531864 295.488 
L 77.632085 283.968 
L 77.850584 295.488 
L 77.951707 283.968 
L 78.170207 295.488 
L 78.272233 283.968 
L 78.489829 295.488 
L 78.582827 283.968 
L 78.801326 295.488 
L 78.90245 283.968 
L 84.387501 272.448 
L 84.604194 191.808 
L 84.634893 203.328 
L 84.853392 295.488 
L 84.909371 283.968 
L 85.12787 295.488 
L 85.217256 283.968 
L 85.435755 295.488 
L 85.533267 283.968 
L 85.751766 295.488 
L 85.845667 283.968 
L 86.063263 295.488 
L 86.163484 283.968 
L 86.381983 295.488 
L 86.478592 283.968 
L 86.697091 295.488 
L 86.794603 283.968 
L 87.0122 295.488 
L 87.114226 283.968 
L 87.332725 295.488 
L 87.425723 283.968 
L 87.644222 295.488 
L 87.741734 283.968 
L 87.95933 295.488 
L 88.050522 283.968 
L 88.269021 295.488 
L 88.364727 283.968 
L 88.583227 295.488 
L 88.685253 283.968 
L 88.903752 295.488 
L 88.995847 283.968 
L 89.214346 295.488 
L 89.307344 283.968 
L 89.525843 295.488 
L 89.627869 283.968 
L 89.846369 295.488 
L 89.947492 283.968 
L 90.165991 295.488 
L 90.268018 283.968 
L 90.486517 295.488 
L 90.575903 283.968 
L 90.794402 295.488 
L 90.899137 283.968 
L 91.117636 295.488 
L 91.214246 283.968 
L 91.431842 295.488 
L 91.53748 283.968 
L 91.755076 295.488 
L 91.851685 283.968 
L 92.069281 295.488 
L 92.163182 283.968 
L 92.381681 295.488 
L 92.474679 283.968 
L 92.692275 295.488 
L 92.788884 283.968 
L 93.007383 295.488 
L 93.103992 283.968 
L 93.322492 295.488 
L 93.414586 283.968 
L 93.633085 295.488 
L 93.729695 283.968 
L 93.947291 295.488 
L 94.048414 283.968 
L 94.266914 295.488 
L 94.367134 283.968 
L 94.585633 295.488 
L 94.680437 283.968 
L 94.898936 295.488 
L 94.994642 283.968 
L 95.213141 295.488 
L 95.30975 283.968 
L 95.52825 295.488 
L 95.62847 283.968 
L 95.84697 295.488 
L 95.941773 283.968 
L 96.160272 295.488 
L 96.260493 283.968 
L 96.478089 295.488 
L 96.580115 283.968 
L 96.798615 295.488 
L 96.890709 283.968 
L 97.109208 295.488 
L 97.204012 283.968 
L 97.422511 295.488 
L 97.51912 283.968 
L 97.737619 295.488 
L 97.827908 283.968 
L 98.046407 295.488 
L 98.15024 283.968 
L 98.367836 295.488 
L 98.458125 283.968 
L 98.676624 295.488 
L 98.781359 283.968 
L 98.999858 295.488 
L 99.103691 283.968 
L 99.32219 295.488 
L 99.425119 283.968 
L 99.643618 295.488 
L 99.746548 283.968 
L 99.965047 295.488 
L 100.060753 283.968 
L 100.278349 295.488 
L 100.376764 283.968 
L 100.595263 295.488 
L 100.69729 283.968 
L 100.915789 295.488 
L 101.015107 283.968 
L 101.232703 295.488 
L 101.329312 283.968 
L 101.547811 295.488 
L 101.639906 283.968 
L 101.858405 295.488 
L 101.954111 283.968 
L 102.172611 295.488 
L 102.271026 283.968 
L 102.488622 295.488 
L 102.585231 283.968 
L 102.80373 295.488 
L 102.902145 283.968 
L 103.119741 295.488 
L 103.217253 283.968 
L 103.435752 295.488 
L 103.53507 283.968 
L 103.753569 295.488 
L 103.851081 283.968 
L 104.069581 295.488 
L 104.169801 283.968 
L 104.3883 295.488 
L 104.485813 283.968 
L 104.704312 295.488 
L 104.795503 283.968 
L 105.014003 295.488 
L 105.114223 283.968 
L 105.332722 295.488 
L 105.431137 283.968 
L 105.649637 295.488 
L 105.745343 283.968 
L 105.963842 295.488 
L 106.053228 283.968 
L 106.271727 295.488 
L 106.371948 283.968 
L 106.589544 295.488 
L 106.683445 283.968 
L 106.901944 295.488 
L 106.999456 283.968 
L 107.217955 295.488 
L 107.318176 283.968 
L 107.536675 295.488 
L 107.633284 283.968 
L 107.851783 295.488 
L 107.952004 283.968 
L 108.1696 295.488 
L 108.264403 283.968 
L 108.482903 295.488 
L 108.5759 283.968 
L 108.794399 295.488 
L 108.887397 283.968 
L 109.105896 295.488 
L 109.202505 283.968 
L 109.421004 295.488 
L 109.515808 283.968 
L 109.733404 295.488 
L 109.830916 283.968 
L 110.049415 295.488 
L 110.148733 283.968 
L 110.367232 295.488 
L 111.903047 283.968 
L 112.121546 295.488 
L 112.129672 283.968 
L 112.347268 295.488 
L 112.349074 283.968 
L 112.56667 295.488 
L 112.57299 283.968 
L 112.790587 295.488 
L 112.796907 283.968 
L 113.014503 295.488 
L 113.023532 283.968 
L 113.242031 295.488 
L 113.25106 283.968 
L 113.469559 295.488 
L 113.474976 283.968 
L 113.693476 295.488 
L 113.702505 283.968 
L 113.921004 295.488 
L 113.926421 283.968 
L 114.144017 295.488 
L 114.15124 283.968 
L 114.36974 295.488 
L 114.378768 283.968 
L 114.597268 295.488 
L 114.604491 283.968 
L 114.82299 295.488 
L 114.83563 283.968 
L 115.05413 295.488 
L 115.062256 283.968 
L 115.279852 295.488 
L 115.287978 283.968 
L 115.506477 295.488 
L 115.512797 283.968 
L 115.731296 295.488 
L 115.734005 283.968 
L 115.952504 295.488 
L 115.962436 283.968 
L 116.180935 295.488 
L 116.18545 283.968 
L 116.403046 295.488 
L 116.417492 283.968 
L 116.635991 295.488 
L 116.642311 283.968 
L 116.860811 295.488 
L 116.868034 283.968 
L 117.086533 295.488 
L 117.094659 283.968 
L 117.313158 295.488 
L 117.317673 283.968 
L 117.536172 295.488 
L 117.545201 283.968 
L 117.7637 295.488 
L 117.774534 283.968 
L 117.992131 295.488 
L 118.00116 283.968 
L 118.218756 295.488 
L 118.225076 283.968 
L 118.443575 295.488 
L 118.44809 283.968 
L 118.666589 295.488 
L 118.6702 283.968 
L 118.8887 295.488 
L 118.896826 283.968 
L 119.114422 295.488 
L 119.125257 283.968 
L 119.343756 295.488 
L 119.349173 283.968 
L 119.567672 295.488 
L 119.575798 283.968 
L 119.806035 272.448 
L 120.005573 283.968 
L 120.030854 272.448 
L 123.20451 111.168 
L 127.724372 99.648 
L 127.838136 111.168 
L 127.93926 99.648 
L 127.941969 111.168 
L 128.175817 295.488 
L 128.18304 283.968 
L 128.401539 295.488 
L 128.402442 283.968 
L 128.620038 295.488 
L 128.628164 283.968 
L 128.846664 295.488 
L 128.853887 283.968 
L 129.072386 295.488 
L 129.085929 283.968 
L 129.303525 295.488 
L 129.315263 283.968 
L 129.533762 295.488 
L 129.544597 283.968 
L 129.763096 295.488 
L 129.76761 283.968 
L 129.98611 295.488 
L 129.990624 283.968 
L 130.209123 295.488 
L 130.216346 283.968 
L 130.434845 295.488 
L 130.437554 283.968 
L 130.656053 295.488 
L 130.662374 283.968 
L 130.880873 295.488 
L 130.893513 283.968 
L 131.111109 295.488 
L 131.11743 283.968 
L 131.335929 295.488 
L 131.344055 283.968 
L 131.561651 295.488 
L 131.569777 283.968 
L 131.788276 295.488 
L 131.796402 283.968 
L 132.014901 295.488 
L 132.021222 283.968 
L 132.239721 295.488 
L 132.24875 283.968 
L 132.467249 295.488 
L 132.473569 283.968 
L 132.692068 295.488 
L 132.700194 283.968 
L 132.917791 295.488 
L 132.926819 283.968 
L 133.145319 295.488 
L 133.156153 283.968 
L 133.37375 295.488 
L 133.38639 283.968 
L 133.603986 295.488 
L 133.614821 283.968 
L 133.832417 295.488 
L 133.835126 283.968 
L 134.053625 295.488 
L 134.057237 283.968 
L 134.275736 295.488 
L 134.288376 283.968 
L 134.505972 295.488 
L 134.515001 283.968 
L 134.733501 295.488 
L 134.743432 283.968 
L 134.961931 295.488 
L 134.965543 283.968 
L 135.184042 295.488 
L 135.19578 283.968 
L 135.414279 295.488 
L 135.420599 283.968 
L 135.638195 295.488 
L 135.647224 283.968 
L 135.865723 295.488 
L 135.871141 283.968 
L 136.098669 272.448 
L 136.29911 283.968 
L 136.328003 272.448 
L 139.4836 111.168 
L 139.916987 99.648 
L 143.981794 111.168 
L 144.092849 99.648 
L 144.217448 122.688 
L 144.218351 111.168 
L 144.311348 191.808 
L 144.43685 295.488 
L 144.458519 283.968 
L 144.677018 295.488 
L 144.681533 283.968 
L 144.899129 295.488 
L 144.907255 283.968 
L 145.125754 295.488 
L 145.131172 283.968 
L 145.349671 295.488 
L 145.353282 283.968 
L 145.570879 295.488 
L 145.578102 283.968 
L 145.796601 295.488 
L 145.807435 283.968 
L 146.025935 295.488 
L 146.032255 283.968 
L 146.249851 295.488 
L 146.25256 283.968 
L 146.471059 295.488 
L 146.473768 283.968 
L 146.691364 295.488 
L 146.700393 283.968 
L 146.918892 295.488 
L 146.926115 283.968 
L 147.144614 295.488 
L 147.149129 283.968 
L 147.366725 295.488 
L 147.373948 283.968 
L 147.592447 295.488 
L 147.598767 283.968 
L 147.816364 295.488 
L 147.823587 283.968 
L 148.042086 295.488 
L 148.047503 283.968 
L 148.266002 295.488 
L 148.272323 283.968 
L 148.490822 295.488 
L 148.495336 283.968 
L 148.712933 295.488 
L 148.725573 283.968 
L 148.943169 295.488 
L 148.954004 283.968 
L 149.172503 295.488 
L 149.178823 283.968 
L 149.397323 295.488 
L 149.403643 283.968 
L 149.622142 295.488 
L 149.631171 283.968 
L 149.84967 295.488 
L 149.861408 283.968 
L 150.079907 295.488 
L 150.086227 283.968 
L 150.303823 295.488 
L 150.312852 283.968 
L 150.531351 295.488 
L 150.541283 283.968 
L 150.758879 295.488 
L 150.767005 283.968 
L 150.984602 295.488 
L 150.996339 283.968 
L 151.213935 295.488 
L 151.216644 283.968 
L 151.435143 295.488 
L 151.438755 283.968 
L 151.657254 295.488 
L 151.668089 283.968 
L 151.886588 295.488 
L 151.889296 283.968 
L 152.107796 295.488 
L 152.115019 283.968 
L 152.332615 295.488 
L 152.333518 283.968 
L 154.587129 168.768 
L 154.81556 168.768 
L 155.034059 295.488 
L 155.041282 283.968 
L 155.258879 295.488 
L 155.263393 283.968 
L 155.480989 295.488 
L 155.489115 283.968 
L 155.707615 295.488 
L 155.721158 283.968 
L 155.939657 295.488 
L 155.944171 283.968 
L 156.161768 295.488 
L 156.175311 283.968 
L 156.392907 295.488 
L 156.401033 283.968 
L 156.61863 295.488 
L 156.623144 283.968 
L 156.841643 295.488 
L 156.851575 283.968 
L 157.070074 295.488 
L 157.079103 283.968 
L 157.296699 295.488 
L 157.308437 283.968 
L 157.526936 295.488 
L 157.530548 283.968 
L 157.748144 295.488 
L 157.754464 283.968 
L 157.972963 295.488 
L 157.980186 283.968 
L 158.198686 295.488 
L 158.206812 283.968 
L 158.425311 295.488 
L 158.43434 283.968 
L 158.651936 295.488 
L 158.657353 283.968 
L 158.875852 295.488 
L 158.885784 283.968 
L 159.10338 295.488 
L 159.108798 283.968 
L 159.327297 295.488 
L 159.335423 283.968 
L 159.553922 295.488 
L 159.561145 283.968 
L 159.779644 295.488 
L 159.786868 283.968 
L 160.005367 295.488 
L 160.015298 283.968 
L 160.450491 272.448 
L 165.650229 283.968 
L 165.816361 134.208 
L 165.869631 99.648 
L 165.91297 134.208 
L 166.020414 226.368 
L 166.126955 214.848 
L 168.153941 111.168 
L 168.58191 99.648 
L 176.480384 111.168 
L 176.594148 99.648 
L 176.717844 122.688 
L 176.720553 111.168 
L 176.812647 191.808 
L 176.939052 283.968 
L 177.143105 295.488 
L 177.155745 283.968 
L 177.374244 295.488 
L 177.385982 283.968 
L 177.604481 295.488 
L 177.612607 283.968 
L 177.831106 295.488 
L 177.84465 283.968 
L 178.062246 295.488 
L 178.067663 283.968 
L 178.286162 295.488 
L 178.296094 283.968 
L 178.514593 295.488 
L 178.521817 283.968 
L 178.740316 295.488 
L 178.747539 283.968 
L 178.966038 295.488 
L 178.97597 283.968 
L 179.194469 295.488 
L 179.204401 283.968 
L 179.4229 295.488 
L 179.431026 283.968 
L 179.648622 295.488 
L 179.658554 283.968 
L 179.877053 295.488 
L 179.879762 283.968 
L 180.098261 295.488 
L 180.110901 283.968 
L 180.329401 295.488 
L 180.331206 283.968 
L 180.549705 295.488 
L 180.558734 283.968 
L 180.776331 295.488 
L 180.781748 283.968 
L 181.000247 295.488 
L 181.004762 283.968 
L 181.222358 295.488 
L 181.229581 283.968 
L 181.44808 295.488 
L 181.455303 283.968 
L 181.673802 295.488 
L 181.681026 283.968 
L 181.898622 295.488 
L 181.906748 283.968 
L 182.125247 295.488 
L 182.131567 283.968 
L 182.350066 295.488 
L 182.358192 283.968 
L 182.576692 295.488 
L 182.587526 283.968 
L 182.806025 295.488 
L 182.812346 283.968 
L 183.030845 295.488 
L 183.038971 283.968 
L 183.25747 295.488 
L 183.262887 283.968 
L 183.481386 295.488 
L 183.486804 283.968 
L 183.705303 295.488 
L 183.713429 283.968 
L 183.931928 295.488 
L 184.967542 283.968 
L 185.186041 295.488 
L 185.279039 283.968 
L 185.497538 295.488 
L 185.598661 283.968 
L 185.817161 295.488 
L 185.91377 283.968 
L 186.132269 295.488 
L 186.227072 283.968 
L 186.444668 295.488 
L 186.544889 283.968 
L 186.762485 295.488 
L 186.863609 283.968 
L 187.082108 295.488 
L 187.175106 283.968 
L 187.393605 295.488 
L 187.482991 283.968 
L 187.70149 295.488 
L 187.796293 283.968 
L 188.014793 295.488 
L 188.113208 283.968 
L 188.330804 295.488 
L 188.431927 283.968 
L 188.650427 295.488 
L 188.747036 283.968 
L 188.965535 295.488 
L 189.072979 283.968 
L 189.291478 295.488 
L 189.390796 283.968 
L 189.608392 295.488 
L 189.701389 283.968 
L 189.919889 295.488 
L 190.021012 283.968 
L 190.239511 295.488 
L 190.333412 283.968 
L 190.551911 295.488 
L 190.653035 283.968 
L 190.871534 295.488 
L 190.965434 283.968 
L 191.183933 295.488 
L 191.283251 283.968 
L 191.50175 295.488 
L 191.601068 283.968 
L 191.819567 295.488 
L 191.921594 283.968 
L 192.13919 295.488 
L 192.241217 283.968 
L 192.459716 295.488 
L 192.556325 283.968 
L 192.774824 295.488 
L 192.869627 283.968 
L 193.088127 295.488 
L 193.184736 283.968 
L 193.403235 295.488 
L 193.491718 283.968 
L 193.710217 295.488 
L 193.803215 283.968 
L 194.020811 295.488 
L 194.112906 283.968 
L 194.331405 295.488 
L 194.435237 283.968 
L 194.652833 295.488 
L 194.753957 283.968 
L 194.972456 295.488 
L 195.069065 283.968 
L 195.286661 295.488 
L 195.385979 283.968 
L 195.603576 295.488 
L 195.710116 283.968 
L 195.928616 295.488 
L 196.028836 283.968 
L 196.246433 295.488 
L 196.340333 283.968 
L 196.557929 295.488 
L 196.650927 283.968 
L 196.868523 295.488 
L 196.966938 283.968 
L 197.185437 295.488 
L 197.280241 283.968 
L 197.49874 295.488 
L 197.600766 283.968 
L 197.819265 295.488 
L 197.916777 283.968 
L 198.135277 295.488 
L 203.577892 283.968 
L 203.796391 295.488 
L 204.038366 203.328 
L 204.255962 283.968 
L 204.457306 295.488 
L 204.546692 283.968 
L 204.765191 295.488 
L 204.868121 283.968 
L 205.08662 295.488 
L 205.185938 283.968 
L 205.404437 295.488 
L 205.498337 283.968 
L 205.716836 295.488 
L 205.808931 283.968 
L 206.02743 295.488 
L 206.13036 283.968 
L 206.347956 295.488 
L 206.439148 283.968 
L 206.657647 295.488 
L 206.756965 283.968 
L 206.975464 295.488 
L 207.072976 283.968 
L 207.291475 295.488 
L 207.390793 283.968 
L 207.609292 295.488 
L 207.711319 283.968 
L 207.929818 295.488 
L 208.020107 283.968 
L 208.237703 295.488 
L 208.327089 283.968 
L 208.545588 295.488 
L 208.645809 283.968 
L 208.864308 295.488 
L 208.960014 283.968 
L 209.178513 295.488 
L 209.270608 283.968 
L 209.489107 295.488 
L 209.578493 283.968 
L 209.796992 295.488 
L 209.89631 283.968 
L 210.114809 295.488 
L 210.222253 283.968 
L 210.439849 295.488 
L 210.530138 283.968 
L 210.747735 295.488 
L 210.850664 283.968 
L 211.069163 295.488 
L 211.163966 283.968 
L 211.382466 295.488 
L 211.47456 283.968 
L 211.692157 295.488 
L 211.786057 283.968 
L 212.004556 295.488 
L 212.104777 283.968 
L 212.322373 295.488 
L 212.420788 283.968 
L 212.639287 295.488 
L 212.734994 283.968 
L 212.953493 295.488 
L 213.056422 283.968 
L 213.274921 295.488 
L 213.374239 283.968 
L 213.592738 295.488 
L 213.694765 283.968 
L 213.912361 295.488 
L 214.014387 283.968 
L 214.231984 295.488 
L 214.330399 283.968 
L 214.548898 295.488 
L 214.64641 283.968 
L 214.864909 295.488 
L 214.97145 283.968 
L 215.189046 295.488 
L 215.278432 283.968 
L 215.496931 295.488 
L 215.599861 283.968 
L 215.817457 295.488 
L 215.913163 283.968 
L 216.131662 295.488 
L 216.229174 283.968 
L 216.447674 295.488 
L 216.544283 283.968 
L 216.761879 295.488 
L 216.858488 283.968 
L 217.076987 295.488 
L 217.175402 283.968 
L 217.392998 295.488 
L 217.495928 283.968 
L 217.713524 295.488 
L 217.814648 283.968 
L 218.033147 295.488 
L 218.133368 283.968 
L 218.351867 295.488 
L 218.442156 283.968 
L 218.660655 295.488 
L 218.762681 283.968 
L 218.98118 295.488 
L 219.073275 283.968 
L 219.290871 295.488 
L 219.391092 283.968 
L 219.609591 295.488 
L 219.698977 283.968 
L 219.917476 295.488 
L 220.014086 283.968 
L 220.232585 295.488 
L 220.325582 283.968 
L 220.544081 295.488 
L 220.636176 283.968 
L 220.853772 295.488 
L 220.960313 283.968 
L 221.178812 295.488 
L 221.27181 283.968 
L 221.490309 295.488 
L 221.592336 283.968 
L 221.810835 295.488 
L 223.260875 283.968 
L 223.442355 272.448 
L 223.479374 283.968 
L 223.621128 272.448 
L 223.660855 283.968 
L 223.801705 272.448 
L 223.839627 283.968 
L 223.984089 272.448 
L 224.020204 283.968 
L 224.161958 272.448 
L 224.202588 283.968 
L 224.342536 272.448 
L 224.380457 283.968 
L 224.522211 272.448 
L 224.561035 283.968 
L 224.703692 272.448 
L 224.74071 283.968 
L 224.882464 272.448 
L 224.921288 283.968 
L 225.066653 272.448 
L 225.100963 283.968 
L 225.248134 272.448 
L 225.285152 283.968 
L 225.427809 272.448 
L 225.466633 283.968 
L 225.610192 272.448 
L 225.646308 283.968 
L 225.787158 272.448 
L 225.827788 283.968 
L 225.966833 272.448 
L 226.005658 283.968 
L 226.148314 272.448 
L 226.185333 283.968 
L 226.330698 272.448 
L 226.36591 283.968 
L 226.50947 272.448 
L 226.548294 283.968 
L 226.687339 272.448 
L 226.727969 283.968 
L 226.871528 272.448 
L 226.905838 283.968 
L 227.053009 272.448 
L 227.089125 283.968 
L 227.233587 272.448 
L 227.271508 283.968 
L 227.40965 272.448 
L 227.452086 283.968 
L 227.589325 272.448 
L 227.628149 283.968 
L 227.770806 272.448 
L 227.807824 283.968 
L 227.946869 272.448 
L 227.989305 283.968 
L 228.126544 272.448 
L 228.164465 283.968 
L 228.308928 272.448 
L 228.345043 283.968 
L 228.492214 272.448 
L 228.527427 283.968 
L 228.676404 272.448 
L 228.710713 283.968 
L 228.85337 272.448 
L 228.894903 283.968 
L 229.034851 272.448 
L 229.071869 283.968 
L 229.215428 272.448 
L 229.25335 283.968 
L 229.395103 272.448 
L 229.433928 283.968 
L 229.577487 272.448 
L 229.613603 283.968 
L 229.75355 272.448 
L 229.795083 283.968 
L 229.935934 272.448 
L 229.972049 283.968 
L 230.116512 272.448 
L 230.15353 283.968 
L 230.297992 272.448 
L 230.335011 283.968 
L 230.474959 272.448 
L 230.516492 283.968 
L 230.820765 272.448 
L 236.076483 260.928 
L 236.292273 53.568 
L 236.337418 99.648 
L 236.617313 283.968 
L 236.75997 272.448 
L 236.798794 283.968 
L 236.937839 272.448 
L 236.978469 283.968 
L 237.11932 272.448 
L 237.156338 283.968 
L 237.298092 272.448 
L 237.337819 283.968 
L 237.475058 272.448 
L 237.516591 283.968 
L 237.651121 272.448 
L 237.693557 283.968 
L 237.833505 272.448 
L 237.869621 283.968 
L 238.015889 272.448 
L 238.052004 283.968 
L 238.191952 272.448 
L 238.233485 283.968 
L 238.374336 272.448 
L 238.410451 283.968 
L 238.554913 272.448 
L 238.592835 283.968 
L 238.730074 272.448 
L 238.77251 283.968 
L 238.909749 272.448 
L 238.948573 283.968 
L 239.087618 272.448 
L 239.128248 283.968 
L 239.268196 272.448 
L 239.305214 283.968 
L 239.447871 272.448 
L 239.485792 283.968 
L 239.632963 272.448 
L 239.665467 283.968 
L 239.813541 272.448 
L 239.851462 283.968 
L 239.992313 272.448 
L 240.03204 283.968 
L 240.170182 272.448 
L 240.210812 283.968 
L 240.349857 272.448 
L 240.387778 283.968 
L 240.52592 272.448 
L 240.567453 283.968 
L 240.705595 272.448 
L 240.743517 283.968 
L 240.890687 272.448 
L 240.923191 283.968 
L 241.074877 272.448 
L 241.109187 283.968 
L 241.255455 272.448 
L 241.293376 283.968 
L 241.436033 272.448 
L 241.473954 283.968 
L 241.61661 272.448 
L 241.654532 283.968 
L 241.798994 272.448 
L 241.835109 283.968 
L 241.98228 272.448 
L 242.017493 283.968 
L 242.161955 272.448 
L 242.20078 283.968 
L 242.339825 272.448 
L 242.380455 283.968 
L 242.520402 272.448 
L 242.557421 283.968 
L 242.702786 272.448 
L 242.738901 283.968 
L 242.884267 272.448 
L 242.920382 283.968 
L 243.063942 272.448 
L 243.101863 283.968 
L 243.248131 272.448 
L 243.282441 283.968 
L 243.425097 272.448 
L 243.465727 283.968 
L 243.606578 272.448 
L 243.642693 283.968 
L 243.788962 272.448 
L 243.824174 283.968 
L 243.968636 272.448 
L 244.007461 283.968 
L 244.151923 272.448 
L 244.186233 283.968 
L 244.335209 272.448 
L 244.370422 283.968 
L 244.518496 272.448 
L 244.552806 283.968 
L 244.696365 272.448 
L 244.736092 283.968 
L 244.880554 272.448 
L 244.914864 283.968 
L 245.058424 272.448 
L 245.099054 283.968 
L 245.236293 272.448 
L 245.276923 283.968 
L 245.412356 272.448 
L 245.454792 283.968 
L 245.593837 272.448 
L 245.630855 283.968 
L 245.777123 272.448 
L 245.811433 283.968 
L 245.958604 272.448 
L 245.995623 283.968 
L 246.141891 272.448 
L 246.177103 283.968 
L 246.318857 272.448 
L 246.36039 283.968 
L 246.495823 272.448 
L 246.536453 283.968 
L 246.672789 272.448 
L 246.713419 283.968 
L 246.853367 272.448 
L 246.891289 283.968 
L 247.033042 272.448 
L 247.071866 283.968 
L 247.21362 272.448 
L 247.251541 283.968 
L 247.391489 272.448 
L 247.432119 283.968 
L 247.572067 272.448 
L 247.609085 283.968 
L 247.749936 272.448 
L 247.789663 283.968 
L 247.926902 272.448 
L 247.968435 283.968 
L 248.109286 272.448 
L 248.145401 283.968 
L 248.29167 272.448 
L 248.326882 283.968 
L 248.475859 272.448 
L 248.510169 283.968 
L 248.658242 272.448 
L 248.694358 283.968 
L 248.83882 272.448 
L 248.876742 283.968 
L 249.019398 272.448 
L 249.056417 283.968 
L 249.199073 272.448 
L 249.237897 283.968 
L 249.380554 272.448 
L 249.416669 283.968 
L 249.562034 272.448 
L 249.599053 283.968 
L 249.744418 272.448 
L 249.780534 283.968 
L 249.92319 272.448 
L 249.962014 283.968 
L 250.102865 272.448 
L 250.141689 283.968 
L 250.28886 272.448 
L 250.321364 283.968 
L 250.468535 272.448 
L 250.507359 283.968 
L 250.646404 272.448 
L 250.686131 283.968 
L 250.831497 272.448 
L 250.864903 283.968 
L 251.012074 272.448 
L 251.049093 283.968 
L 251.197167 272.448 
L 251.230574 283.968 
L 251.375036 272.448 
L 251.414763 283.968 
L 251.552002 272.448 
L 251.593535 283.968 
L 251.730774 272.448 
L 251.770501 283.968 
L 251.911352 272.448 
L 251.949273 283.968 
L 252.093736 272.448 
L 252.128948 283.968 
L 252.276119 272.448 
L 252.312235 283.968 
L 252.460309 272.448 
L 252.494618 283.968 
L 252.639081 272.448 
L 252.678808 283.968 
L 252.818755 272.448 
L 252.856677 283.968 
L 253.003848 272.448 
L 253.037255 283.968 
L 253.18894 272.448 
L 253.222347 283.968 
L 253.367712 272.448 
L 253.406536 283.968 
L 253.545581 272.448 
L 253.585308 283.968 
L 253.726159 272.448 
L 253.76408 283.968 
L 253.906737 272.448 
L 253.944658 283.968 
L 254.083703 272.448 
L 254.125236 283.968 
L 254.262475 272.448 
L 254.302202 283.968 
L 254.443956 272.448 
L 254.480071 283.968 
L 254.623631 272.448 
L 254.662455 283.968 
L 254.805112 272.448 
L 254.84213 283.968 
L 254.984786 272.448 
L 255.023611 283.968 
L 255.161753 272.448 
L 255.203286 283.968 
L 255.337816 272.448 
L 255.380252 283.968 
L 255.521103 272.448 
L 255.556315 283.968 
L 255.703486 272.448 
L 255.739602 283.968 
L 255.884967 272.448 
L 255.921985 283.968 
L 256.060127 272.448 
L 256.103466 283.968 
L 256.244317 272.448 
L 256.278627 283.968 
L 256.425797 272.448 
L 256.462816 283.968 
L 256.600958 272.448 
L 256.644297 283.968 
L 256.780633 272.448 
L 256.819457 283.968 
L 256.959405 272.448 
L 256.999132 283.968 
L 257.141789 272.448 
L 257.177001 283.968 
L 257.318755 272.448 
L 257.359385 283.968 
L 257.499333 272.448 
L 257.536351 283.968 
L 257.67991 272.448 
L 257.716929 283.968 
L 257.858683 272.448 
L 257.897507 283.968 
L 258.03926 272.448 
L 258.077182 283.968 
L 258.216227 272.448 
L 258.256857 283.968 
L 258.396804 272.448 
L 258.434726 283.968 
L 258.580994 272.448 
L 258.615304 283.968 
L 258.759766 272.448 
L 258.799493 283.968 
L 258.943052 272.448 
L 258.978265 283.968 
L 259.121824 272.448 
L 259.161551 283.968 
L 259.301499 272.448 
L 259.340324 283.968 
L 259.483883 272.448 
L 259.519998 283.968 
L 259.663558 272.448 
L 259.702382 283.968 
L 259.847747 272.448 
L 259.882057 283.968 
L 260.028325 272.448 
L 260.066246 283.968 
L 260.213417 272.448 
L 260.246824 283.968 
L 260.395801 272.448 
L 260.431916 283.968 
L 260.578184 272.448 
L 260.6143 283.968 
L 260.761471 272.448 
L 260.796684 283.968 
L 260.938437 272.448 
L 260.97997 283.968 
L 261.119918 272.448 
L 261.156936 283.968 
L 261.297787 272.448 
L 261.337514 283.968 
L 261.481976 272.448 
L 261.516286 283.968 
L 261.662554 272.448 
L 261.699573 283.968 
L 261.846744 272.448 
L 261.880151 283.968 
L 262.025516 272.448 
L 262.065243 283.968 
L 262.206996 272.448 
L 262.244015 283.968 
L 262.385768 272.448 
L 262.425496 283.968 
L 262.566346 272.448 
L 262.604268 283.968 
L 262.746924 272.448 
L 262.783943 283.968 
L 262.931114 272.448 
L 262.965423 283.968 
L 263.111691 272.448 
L 263.149613 283.968 
L 263.291366 272.448 
L 263.329288 283.968 
L 263.470138 272.448 
L 263.508963 283.968 
L 263.650716 272.448 
L 263.688637 283.968 
L 263.832197 272.448 
L 263.869215 283.968 
L 264.012775 272.448 
L 264.050696 283.968 
L 264.195158 272.448 
L 264.231274 283.968 
L 264.372125 272.448 
L 264.413657 283.968 
L 264.549994 272.448 
L 264.590624 283.968 
L 264.72696 272.448 
L 264.768493 283.968 
L 264.909344 272.448 
L 264.944556 283.968 
L 265.09263 272.448 
L 265.127843 283.968 
L 265.274111 272.448 
L 265.311129 283.968 
L 265.451077 272.448 
L 265.49261 283.968 
L 265.630752 272.448 
L 265.669576 283.968 
L 265.81133 272.448 
L 265.849251 283.968 
L 265.987393 272.448 
L 266.029829 283.968 
L 266.522806 249.408 
L 269.406634 65.088 
L 269.749732 53.568 
L 273.990602 65.088 
L 274.101658 53.568 
L 274.222645 76.608 
L 274.22445 65.088 
L 274.319254 157.248 
L 274.493511 283.968 
L 274.632556 272.448 
L 274.672283 283.968 
L 274.812231 272.448 
L 274.851056 283.968 
L 274.993712 272.448 
L 275.03073 283.968 
L 275.173387 272.448 
L 275.212211 283.968 
L 275.351256 272.448 
L 275.391886 283.968 
L 275.531834 272.448 
L 275.569755 283.968 
L 275.712412 272.448 
L 275.750333 283.968 
L 275.898407 272.448 
L 275.930911 283.968 
L 276.08079 272.448 
L 276.116003 283.968 
L 276.263174 272.448 
L 276.29929 283.968 
L 276.44014 272.448 
L 276.481673 283.968 
L 276.620718 272.448 
L 276.65864 283.968 
L 276.801296 272.448 
L 276.839217 283.968 
L 276.981874 272.448 
L 277.019795 283.968 
L 277.162452 272.448 
L 277.200373 283.968 
L 277.342127 272.448 
L 277.380951 283.968 
L 277.52451 272.448 
L 277.560626 283.968 
L 277.706894 272.448 
L 277.742106 283.968 
L 277.884763 272.448 
L 277.925393 283.968 
L 278.068049 272.448 
L 278.103262 283.968 
L 278.251336 272.448 
L 278.286549 283.968 
L 278.430108 272.448 
L 278.469835 283.968 
L 278.606171 272.448 
L 278.648607 283.968 
L 278.787652 272.448 
L 278.82467 283.968 
L 278.964618 272.448 
L 279.005248 283.968 
L 279.147002 272.448 
L 279.183117 283.968 
L 279.328483 272.448 
L 279.365501 283.968 
L 279.513575 272.448 
L 279.546982 283.968 
L 279.690541 272.448 
L 279.732074 283.968 
L 279.871119 272.448 
L 279.90904 283.968 
L 280.048085 272.448 
L 280.089618 283.968 
L 280.230469 272.448 
L 280.266584 283.968 
L 280.412852 272.448 
L 280.448968 283.968 
L 280.598848 272.448 
L 280.631352 283.968 
L 280.778523 272.448 
L 280.817347 283.968 
L 280.958197 272.448 
L 280.997022 283.968 
L 281.141484 272.448 
L 281.176697 283.968 
L 281.325673 272.448 
L 281.35908 283.968 
L 281.505348 272.448 
L 281.544172 283.968 
L 281.688635 272.448 
L 281.723847 283.968 
L 281.870115 272.448 
L 281.907134 283.968 
L 282.046179 272.448 
L 282.088615 283.968 
L 282.225854 272.448 
L 282.264678 283.968 
L 282.405529 272.448 
L 282.444353 283.968 
L 282.587009 272.448 
L 282.624028 283.968 
L 282.765781 272.448 
L 282.805509 283.968 
L 282.946359 272.448 
L 282.984281 283.968 
L 283.125131 272.448 
L 283.163956 283.968 
L 283.305709 272.448 
L 283.34363 283.968 
L 283.489899 272.448 
L 283.524208 283.968 
L 283.668671 272.448 
L 283.708398 283.968 
L 283.844734 272.448 
L 283.886267 283.968 
L 284.025312 272.448 
L 284.063233 283.968 
L 284.206792 272.448 
L 284.243811 283.968 
L 284.388273 272.448 
L 284.425292 283.968 
L 284.567045 272.448 
L 284.605869 283.968 
L 284.74672 272.448 
L 284.784642 283.968 
L 285.091624 272.448 
L 290.248926 260.928 
L 290.464717 53.568 
L 290.510764 99.648 
L 290.638974 237.888 
L 290.704885 226.368 
L 291.782032 157.248 
L 292.818549 145.728 
L 293.445154 122.688 
L 301.224446 134.208 
L 301.230767 122.688 
L 301.300289 180.288 
L 301.422179 203.328 
L 301.44746 191.808 
L 301.476352 214.848 
L 301.502536 214.848 
L 301.69756 283.968 
L 301.870915 295.488 
L 301.966621 283.968 
L 302.184218 295.488 
L 302.28173 283.968 
L 302.500229 295.488 
L 302.589615 283.968 
L 302.808114 295.488 
L 302.90382 283.968 
L 303.122319 295.488 
L 303.21622 283.968 
L 303.434719 295.488 
L 303.534037 283.968 
L 303.752536 295.488 
L 303.849145 283.968 
L 304.067644 295.488 
L 304.166059 283.968 
L 304.384558 295.488 
L 304.478459 283.968 
L 304.696958 295.488 
L 304.795373 283.968 
L 305.013872 295.488 
L 305.108675 283.968 
L 305.327174 295.488 
L 305.417463 283.968 
L 305.635963 295.488 
L 305.740698 283.968 
L 305.958294 295.488 
L 306.053097 283.968 
L 306.271597 295.488 
L 306.365497 283.968 
L 306.583996 295.488 
L 306.683314 283.968 
L 306.901813 295.488 
L 307.002937 283.968 
L 307.221436 295.488 
L 307.318045 283.968 
L 307.535641 295.488 
L 307.639474 283.968 
L 307.857973 295.488 
L 307.952776 283.968 
L 308.171275 295.488 
L 308.26969 283.968 
L 308.488189 295.488 
L 308.585701 283.968 
L 308.8042 295.488 
L 308.90081 283.968 
L 309.119309 295.488 
L 309.211403 283.968 
L 309.429 295.488 
L 309.526512 283.968 
L 309.745011 295.488 
L 309.844329 283.968 
L 310.062828 295.488 
L 310.163049 283.968 
L 310.380645 295.488 
L 310.479963 283.968 
L 310.698462 295.488 
L 310.796877 283.968 
L 311.015376 295.488 
L 311.106568 283.968 
L 311.325067 295.488 
L 311.423482 283.968 
L 311.641981 295.488 
L 311.733173 283.968 
L 311.951672 295.488 
L 312.050087 283.968 
L 312.268586 295.488 
L 312.370612 283.968 
L 312.589112 295.488 
L 312.691138 283.968 
L 312.909637 295.488 
L 313.012567 283.968 
L 313.230163 295.488 
L 313.336704 283.968 
L 313.555203 295.488 
L 313.655424 283.968 
L 313.873923 295.488 
L 313.971435 283.968 
L 314.189934 295.488 
L 314.281126 283.968 
L 314.499625 295.488 
L 314.599846 283.968 
L 314.817442 295.488 
L 314.912245 283.968 
L 315.130744 295.488 
L 315.231868 283.968 
L 315.450367 295.488 
L 315.552394 283.968 
L 315.770893 295.488 
L 315.861182 283.968 
L 316.079681 295.488 
L 316.183513 283.968 
L 316.402012 295.488 
L 316.502233 283.968 
L 316.720732 295.488 
L 316.815536 283.968 
L 317.033132 295.488 
L 317.131547 283.968 
L 317.350046 295.488 
L 317.443946 283.968 
L 317.662446 295.488 
L 317.765375 283.968 
L 317.983874 295.488 
L 318.082289 283.968 
L 318.300788 295.488 
L 318.401009 283.968 
L 318.619508 295.488 
L 318.721534 283.968 
L 318.939131 295.488 
L 319.037546 283.968 
L 319.255142 295.488 
L 319.358974 283.968 
L 319.57657 295.488 
L 319.675888 283.968 
L 319.893484 295.488 
L 319.996414 283.968 
L 320.21401 295.488 
L 320.310619 283.968 
L 320.529118 295.488 
L 320.622116 283.968 
L 320.840615 295.488 
L 320.933613 283.968 
L 321.152112 295.488 
L 321.249624 283.968 
L 321.468123 295.488 
L 321.564732 283.968 
L 321.782329 295.488 
L 321.876229 283.968 
L 322.094728 295.488 
L 322.189531 283.968 
L 322.408031 295.488 
L 322.506446 283.968 
L 322.724945 295.488 
L 322.826971 283.968 
L 323.04547 295.488 
L 323.147497 283.968 
L 323.365093 295.488 
L 323.465314 283.968 
L 323.683813 295.488 
L 323.785839 283.968 
L 324.003436 295.488 
L 324.107268 283.968 
L 324.324864 295.488 
L 324.429599 283.968 
L 324.647196 295.488 
L 324.750125 283.968 
L 324.968624 295.488 
L 325.063428 283.968 
L 325.281024 295.488 
L 325.375827 283.968 
L 325.594326 295.488 
L 325.692741 283.968 
L 325.91124 295.488 
L 326.004238 283.968 
L 326.221834 295.488 
L 326.313929 283.968 
L 326.532428 295.488 
L 326.626329 283.968 
L 326.844828 295.488 
L 326.94866 283.968 
L 327.167159 295.488 
L 327.270991 283.968 
L 327.489491 295.488 
L 327.590614 283.968 
L 327.809113 295.488 
L 327.905722 283.968 
L 328.124222 295.488 
L 328.222637 283.968 
L 328.441136 295.488 
L 328.544968 283.968 
L 328.762564 295.488 
L 328.864591 283.968 
L 329.082187 295.488 
L 329.180602 283.968 
L 329.399101 295.488 
L 329.492099 283.968 
L 329.710598 295.488 
L 329.810818 283.968 
L 330.029318 295.488 
L 330.127733 283.968 
L 330.346232 295.488 
L 330.447355 283.968 
L 330.665854 295.488 
L 330.767881 283.968 
L 330.98638 295.488 
L 331.082086 283.968 
L 331.299683 295.488 
L 331.398098 283.968 
L 331.616597 295.488 
L 333.047676 283.968 
L 333.266175 295.488 
L 333.274301 283.968 
L 333.4928 295.488 
L 333.502732 283.968 
L 333.721231 295.488 
L 333.727551 283.968 
L 333.946051 295.488 
L 333.952371 283.968 
L 334.169967 295.488 
L 334.181705 283.968 
L 334.400204 295.488 
L 334.407427 283.968 
L 334.625926 295.488 
L 334.637664 283.968 
L 334.856163 295.488 
L 334.859774 283.968 
L 335.078274 295.488 
L 335.084594 283.968 
L 335.30219 295.488 
L 335.311219 283.968 
L 335.529718 295.488 
L 335.537844 283.968 
L 335.756343 295.488 
L 335.761761 283.968 
L 335.98026 295.488 
L 335.989289 283.968 
L 336.206885 295.488 
L 336.215914 283.968 
L 336.434413 295.488 
L 336.441636 283.968 
L 336.659232 295.488 
L 336.667358 283.968 
L 336.885858 295.488 
L 336.890372 283.968 
L 337.108871 295.488 
L 337.1179 283.968 
L 337.335496 295.488 
L 337.340914 283.968 
L 337.55851 295.488 
L 337.56483 283.968 
L 337.783329 295.488 
L 337.78965 283.968 
L 338.008149 295.488 
L 338.012663 283.968 
L 338.231162 295.488 
L 338.239288 283.968 
L 338.457787 295.488 
L 338.463205 283.968 
L 338.681704 295.488 
L 338.68351 283.968 
L 338.902009 295.488 
L 338.906523 283.968 
L 339.125023 295.488 
L 339.128634 283.968 
L 339.347133 295.488 
L 339.352551 283.968 
L 339.570147 295.488 
L 339.579176 283.968 
L 339.797675 295.488 
L 339.802189 283.968 
L 340.020688 295.488 
L 340.027009 283.968 
L 340.245508 295.488 
L 340.250022 283.968 
L 340.468521 295.488 
L 340.476647 283.968 
L 340.694244 295.488 
L 340.698758 283.968 
L 340.917257 295.488 
L 340.927189 283.968 
L 341.145688 295.488 
L 341.147494 283.968 
L 341.365993 295.488 
L 341.376828 283.968 
L 341.595327 295.488 
L 341.601647 283.968 
L 341.826467 272.448 
L 342.026908 283.968 
L 342.04948 272.448 
L 345.211398 111.168 
L 345.643882 99.648 
L 355.257845 111.168 
L 355.369803 99.648 
L 355.520586 145.728 
L 355.615389 214.848 
L 357.645084 111.168 
L 358.082082 99.648 
L 360.808807 111.168 
L 360.924377 99.648 
L 361.07516 180.288 
L 361.258446 295.488 
L 361.267475 283.968 
L 361.485974 295.488 
L 361.491392 283.968 
L 361.709891 295.488 
L 361.723434 283.968 
L 361.941933 295.488 
L 361.946448 283.968 
L 362.164947 295.488 
L 362.169461 283.968 
L 362.38796 295.488 
L 362.399698 283.968 
L 362.617294 295.488 
L 362.624517 283.968 
L 362.843016 295.488 
L 362.849337 283.968 
L 363.067836 295.488 
L 363.076865 283.968 
L 363.294461 295.488 
L 363.296267 283.968 
L 363.514766 295.488 
L 363.516572 283.968 
L 363.735071 295.488 
L 363.743197 283.968 
L 363.961696 295.488 
L 363.967113 283.968 
L 364.18471 295.488 
L 364.190127 283.968 
L 364.408626 295.488 
L 364.414946 283.968 
L 364.632543 295.488 
L 364.640669 283.968 
L 364.859168 295.488 
L 364.864585 283.968 
L 365.083084 295.488 
L 365.093919 283.968 
L 365.311515 295.488 
L 365.319641 283.968 
L 365.537238 295.488 
L 365.547169 283.968 
L 365.765669 295.488 
L 365.772892 283.968 
L 365.991391 295.488 
L 365.997711 283.968 
L 366.21621 295.488 
L 366.226142 283.968 
L 366.444641 295.488 
L 366.450961 283.968 
L 366.669461 295.488 
L 366.680295 283.968 
L 366.898794 295.488 
L 366.906017 283.968 
L 367.124517 295.488 
L 367.127225 283.968 
L 367.345724 295.488 
L 367.357462 283.968 
L 367.575961 295.488 
L 367.580476 283.968 
L 367.798975 295.488 
L 367.800781 283.968 
L 368.01928 295.488 
L 368.030114 283.968 
L 368.248614 295.488 
L 368.257642 283.968 
L 368.475239 295.488 
L 368.484268 283.968 
L 368.702767 295.488 
L 368.715407 283.968 
L 368.933906 295.488 
L 368.936615 283.968 
L 369.155114 295.488 
L 369.161434 283.968 
L 369.379031 295.488 
L 369.384448 283.968 
L 369.602947 295.488 
L 369.61017 283.968 
L 369.82867 295.488 
L 369.83499 283.968 
L 370.052586 295.488 
L 370.062518 283.968 
L 370.281017 295.488 
L 370.290046 283.968 
L 370.507642 295.488 
L 370.515768 283.968 
L 370.733364 295.488 
L 370.742393 283.968 
L 370.960892 295.488 
L 370.971727 283.968 
L 371.190226 295.488 
L 371.195644 283.968 
L 371.41324 295.488 
L 371.420463 283.968 
L 371.855656 272.448 
L 376.929892 260.928 
L 377.14478 99.648 
L 377.188119 134.208 
L 377.487878 295.488 
L 377.495101 283.968 
L 377.712697 295.488 
L 377.717212 283.968 
L 377.935711 295.488 
L 377.947448 283.968 
L 378.165045 295.488 
L 378.173171 283.968 
L 378.39167 295.488 
L 378.401602 283.968 
L 378.620101 295.488 
L 378.62913 283.968 
L 378.847629 295.488 
L 378.855755 283.968 
L 379.074254 295.488 
L 379.08238 283.968 
L 379.300879 295.488 
L 379.303588 283.968 
L 379.522087 295.488 
L 379.531116 283.968 
L 379.748712 295.488 
L 379.755032 283.968 
L 379.973532 295.488 
L 379.981658 283.968 
L 380.200157 295.488 
L 380.210089 283.968 
L 380.428588 295.488 
L 380.439422 283.968 
L 380.657921 295.488 
L 380.66695 283.968 
L 380.88545 295.488 
L 380.89177 283.968 
L 381.109366 295.488 
L 381.115686 283.968 
L 381.334185 295.488 
L 381.342311 283.968 
L 381.560811 295.488 
L 381.566228 283.968 
L 381.784727 295.488 
L 381.79195 283.968 
L 382.010449 295.488 
L 382.021284 283.968 
L 382.239783 295.488 
L 382.248812 283.968 
L 382.467311 295.488 
L 382.473631 283.968 
L 382.691228 295.488 
L 382.693936 283.968 
L 382.911533 295.488 
L 382.919659 283.968 
L 383.138158 295.488 
L 383.146284 283.968 
L 383.364783 295.488 
L 383.378326 283.968 
L 383.595923 295.488 
L 383.604049 283.968 
L 383.822548 295.488 
L 383.826159 283.968 
L 384.044659 295.488 
L 384.046464 283.968 
L 384.264963 295.488 
L 384.270381 283.968 
L 384.48888 295.488 
L 384.4952 283.968 
L 384.713699 295.488 
L 384.724534 283.968 
L 384.943033 295.488 
L 384.947548 283.968 
L 385.166047 295.488 
L 385.175979 283.968 
L 388.557298 111.168 
L 388.993394 99.648 
L 393.320941 111.168 
L 393.432899 99.648 
L 393.569236 134.208 
L 393.76426 283.968 
L 393.962895 295.488 
L 393.968313 283.968 
L 394.185909 295.488 
L 394.195841 283.968 
L 394.41434 295.488 
L 394.421563 283.968 
L 394.639159 295.488 
L 394.647285 283.968 
L 394.865785 295.488 
L 394.874813 283.968 
L 395.093313 295.488 
L 395.104147 283.968 
L 395.322646 295.488 
L 395.331675 283.968 
L 395.549272 295.488 
L 395.561009 283.968 
L 395.779508 295.488 
L 395.786731 283.968 
L 396.004328 295.488 
L 396.013357 283.968 
L 396.231856 295.488 
L 396.239982 283.968 
L 396.457578 295.488 
L 396.46751 283.968 
L 396.686009 295.488 
L 396.690523 283.968 
L 396.909023 295.488 
L 396.916246 283.968 
L 397.134745 295.488 
L 397.14558 283.968 
L 397.364079 295.488 
L 397.368593 283.968 
L 397.587092 295.488 
L 397.59251 283.968 
L 397.810106 295.488 
L 397.818232 283.968 
L 398.036731 295.488 
L 398.03944 283.968 
L 398.257939 295.488 
L 398.266968 283.968 
L 398.485467 295.488 
L 398.487273 283.968 
L 398.487273 283.968 
" clip-path="url(#p99d0d3bae6)" style="fill: none; stroke: #1f77b4; stroke-width: 1.5; stroke-linecap: square"/>
   </g>
   <g id="patch_3">
    <path d="M 57.6 307.584 
L 57.6 41.472 
" style="fill: none; stroke: #000000; stroke-width: 0.8; stroke-linejoin: miter; stroke-linecap: square"/>
   </g>
   <g id="patch_4">
    <path d="M 414.72 307.584 
L 414.72 41.472 
" style="fill: none; stroke: #000000; stroke-width: 0.8; stroke-linejoin: miter; stroke-linecap: square"/>
   </g>
   <g id="patch_5">
    <path d="M 57.6 307.584 
L 414.72 307.584 
" style="fill: none; stroke: #000000; stroke-width: 0.8; stroke-linejoin: miter; stroke-linecap: square"/>
   </g>
   <g id="patch_6">
    <path d="M 57.6 41.472 
L 414.72 41.472 
" style="fill: none; stroke: #000000; stroke-width: 0.8; stroke-linejoin: miter; stroke-linecap: square"/>
   </g>
   <g id="text_15">
    <!-- Queue size (y-axis) between S2 and sensors that follow at a time (x-axis). -->
    <g transform="translate(14.282813 35.472) scale(0.12 -0.12)">
     <defs>
      <path id="DejaVuSans-51" d="M 2522 4238 
Q 1834 4238 1429 3725 
Q 1025 3213 1025 2328 
Q 1025 1447 1429 934 
Q 1834 422 2522 422 
Q 3209 422 3611 934 
Q 4013 1447 4013 2328 
Q 4013 3213 3611 3725 
Q 3209 4238 2522 4238 
z
M 3406 84 
L 4238 -825 
L 3475 -825 
L 2784 -78 
Q 2681 -84 2626 -87 
Q 2572 -91 2522 -91 
Q 1538 -91 948 567 
Q 359 1225 359 2328 
Q 359 3434 948 4092 
Q 1538 4750 2522 4750 
Q 3503 4750 4090 4092 
Q 4678 3434 4678 2328 
Q 4678 1516 4351 937 
Q 4025 359 3406 84 
z
" transform="scale(0.015625)"/>
      <path id="DejaVuSans-75" d="M 544 1381 
L 544 3500 
L 1119 3500 
L 1119 1403 
Q 1119 906 1312 657 
Q 1506 409 1894 409 
Q 2359 409 2629 706 
Q 2900 1003 2900 1516 
L 2900 3500 
L 3475 3500 
L 3475 0 
L 2900 0 
L 2900 538 
Q 2691 219 2414 64 
Q 2138 -91 1772 -91 
Q 1169 -91 856 284 
Q 544 659 544 1381 
z
M 1991 3584 
L 1991 3584 
z
" transform="scale(0.015625)"/>
      <path id="DejaVuSans-20" transform="scale(0.015625)"/>
      <path id="DejaVuSans-73" d="M 2834 3397 
L 2834 2853 
Q 2591 2978 2328 3040 
Q 2066 3103 1784 3103 
Q 1356 3103 1142 2972 
Q 928 2841 928 2578 
Q 928 2378 1081 2264 
Q 1234 2150 1697 2047 
L 1894 2003 
Q 2506 1872 2764 1633 
Q 3022 1394 3022 966 
Q 3022 478 2636 193 
Q 2250 -91 1575 -91 
Q 1294 -91 989 -36 
Q 684 19 347 128 
L 347 722 
Q 666 556 975 473 
Q 1284 391 1588 391 
Q 1994 391 2212 530 
Q 2431 669 2431 922 
Q 2431 1156 2273 1281 
Q 2116 1406 1581 1522 
L 1381 1569 
Q 847 1681 609 1914 
Q 372 2147 372 2553 
Q 372 3047 722 3315 
Q 1072 3584 1716 3584 
Q 2034 3584 2315 3537 
Q 2597 3491 2834 3397 
z
" transform="scale(0.015625)"/>
      <path id="DejaVuSans-69" d="M 603 3500 
L 1178 3500 
L 1178 0 
L 603 0 
L 603 3500 
z
M 603 4863 
L 1178 4863 
L 1178 4134 
L 603 4134 
L 603 4863 
z
" transform="scale(0.015625)"/>
      <path id="DejaVuSans-7a" d="M 353 3500 
L 3084 3500 
L 3084 2975 
L 922 459 
L 3084 459 
L 3084 0 
L 275 0 
L 275 525 
L 2438 3041 
L 353 3041 
L 353 3500 
z
" transform="scale(0.015625)"/>
      <path id="DejaVuSans-28" d="M 1984 4856 
Q 1566 4138 1362 3434 
Q 1159 2731 1159 2009 
Q 1159 1288 1364 580 
Q 1569 -128 1984 -844 
L 1484 -844 
Q 1016 -109 783 600 
Q 550 1309 550 2009 
Q 550 2706 781 3412 
Q 1013 4119 1484 4856 
L 1984 4856 
z
" transform="scale(0.015625)"/>
      <path id="DejaVuSans-79" d="M 2059 -325 
Q 1816 -950 1584 -1140 
Q 1353 -1331 966 -1331 
L 506 -1331 
L 506 -850 
L 844 -850 
Q 1081 -850 1212 -737 
Q 1344 -625 1503 -206 
L 1606 56 
L 191 3500 
L 800 3500 
L 1894 763 
L 2988 3500 
L 3597 3500 
L 2059 -325 
z
" transform="scale(0.015625)"/>
      <path id="DejaVuSans-2d" d="M 313 2009 
L 1997 2009 
L 1997 1497 
L 313 1497 
L 313 2009 
z
" transform="scale(0.015625)"/>
      <path id="DejaVuSans-61" d="M 2194 1759 
Q 1497 1759 1228 1600 
Q 959 1441 959 1056 
Q 959 750 1161 570 
Q 1363 391 1709 391 
Q 2188 391 2477 730 
Q 2766 1069 2766 1631 
L 2766 1759 
L 2194 1759 
z
M 3341 1997 
L 3341 0 
L 2766 0 
L 2766 531 
Q 2569 213 2275 61 
Q 1981 -91 1556 -91 
Q 1019 -91 701 211 
Q 384 513 384 1019 
Q 384 1609 779 1909 
Q 1175 2209 1959 2209 
L 2766 2209 
L 2766 2266 
Q 2766 2663 2505 2880 
Q 2244 3097 1772 3097 
Q 1472 3097 1187 3025 
Q 903 2953 641 2809 
L 641 3341 
Q 956 3463 1253 3523 
Q 1550 3584 1831 3584 
Q 2591 3584 2966 3190 
Q 3341 2797 3341 1997 
z
" transform="scale(0.015625)"/>
      <path id="DejaVuSans-78" d="M 3513 3500 
L 2247 1797 
L 3578 0 
L 2900 0 
L 1881 1375 
L 863 0 
L 184 0 
L 1544 1831 
L 300 3500 
L 978 3500 
L 1906 2253 
L 2834 3500 
L 3513 3500 
z
" transform="scale(0.015625)"/>
      <path id="DejaVuSans-29" d="M 513 4856 
L 1013 4856 
Q 1481 4119 1714 3412 
Q 1947 2706 1947 2009 
Q 1947 1309 1714 600 
Q 1481 -109 1013 -844 
L 513 -844 
Q 928 -128 1133 580 
Q 1338 1288 1338 2009 
Q 1338 2731 1133 3434 
Q 928 4138 513 4856 
z
" transform="scale(0.015625)"/>
      <path id="DejaVuSans-62" d="M 3116 1747 
Q 3116 2381 2855 2742 
Q 2594 3103 2138 3103 
Q 1681 3103 1420 2742 
Q 1159 2381 1159 1747 
Q 1159 1113 1420 752 
Q 1681 391 2138 391 
Q 2594 391 2855 752 
Q 3116 1113 3116 1747 
z
M 1159 2969 
Q 1341 3281 1617 3432 
Q 1894 3584 2278 3584 
Q 2916 3584 3314 3078 
Q 3713 2572 3713 1747 
Q 3713 922 3314 415 
Q 2916 -91 2278 -91 
Q 1894 -91 1617 61 
Q 1341 213 1159 525 
L 1159 0 
L 581 0 
L 581 4863 
L 1159 4863 
L 1159 2969 
z
" transform="scale(0.015625)"/>
      <path id="DejaVuSans-74" d="M 1172 4494 
L 1172 3500 
L 2356 3500 
L 2356 3053 
L 1172 3053 
L 1172 1153 
Q 1172 725 1289 603 
Q 1406 481 1766 481 
L 2356 481 
L 2356 0 
L 1766 0 
Q 1100 0 847 248 
Q 594 497 594 1153 
L 594 3053 
L 172 3053 
L 172 3500 
L 594 3500 
L 594 4494 
L 1172 4494 
z
" transform="scale(0.015625)"/>
      <path id="DejaVuSans-77" d="M 269 3500 
L 844 3500 
L 1563 769 
L 2278 3500 
L 2956 3500 
L 3675 769 
L 4391 3500 
L 4966 3500 
L 4050 0 
L 3372 0 
L 2619 2869 
L 1863 0 
L 1184 0 
L 269 3500 
z
" transform="scale(0.015625)"/>
      <path id="DejaVuSans-6e" d="M 3513 2113 
L 3513 0 
L 2938 0 
L 2938 2094 
Q 2938 2591 2744 2837 
Q 2550 3084 2163 3084 
Q 1697 3084 1428 2787 
Q 1159 2491 1159 1978 
L 1159 0 
L 581 0 
L 581 3500 
L 1159 3500 
L 1159 2956 
Q 1366 3272 1645 3428 
Q 1925 3584 2291 3584 
Q 2894 3584 3203 3211 
Q 3513 2838 3513 2113 
z
" transform="scale(0.015625)"/>
      <path id="DejaVuSans-53" d="M 3425 4513 
L 3425 3897 
Q 3066 4069 2747 4153 
Q 2428 4238 2131 4238 
Q 1616 4238 1336 4038 
Q 1056 3838 1056 3469 
Q 1056 3159 1242 3001 
Q 1428 2844 1947 2747 
L 2328 2669 
Q 3034 2534 3370 2195 
Q 3706 1856 3706 1288 
Q 3706 609 3251 259 
Q 2797 -91 1919 -91 
Q 1588 -91 1214 -16 
Q 841 59 441 206 
L 441 856 
Q 825 641 1194 531 
Q 1563 422 1919 422 
Q 2459 422 2753 634 
Q 3047 847 3047 1241 
Q 3047 1584 2836 1778 
Q 2625 1972 2144 2069 
L 1759 2144 
Q 1053 2284 737 2584 
Q 422 2884 422 3419 
Q 422 4038 858 4394 
Q 1294 4750 2059 4750 
Q 2388 4750 2728 4690 
Q 3069 4631 3425 4513 
z
" transform="scale(0.015625)"/>
      <path id="DejaVuSans-64" d="M 2906 2969 
L 2906 4863 
L 3481 4863 
L 3481 0 
L 2906 0 
L 2906 525 
Q 2725 213 2448 61 
Q 2172 -91 1784 -91 
Q 1150 -91 751 415 
Q 353 922 353 1747 
Q 353 2572 751 3078 
Q 1150 3584 1784 3584 
Q 2172 3584 2448 3432 
Q 2725 3281 2906 2969 
z
M 947 1747 
Q 947 1113 1208 752 
Q 1469 391 1925 391 
Q 2381 391 2643 752 
Q 2906 1113 2906 1747 
Q 2906 2381 2643 2742 
Q 2381 3103 1925 3103 
Q 1469 3103 1208 2742 
Q 947 2381 947 1747 
z
" transform="scale(0.015625)"/>
      <path id="DejaVuSans-6f" d="M 1959 3097 
Q 1497 3097 1228 2736 
Q 959 2375 959 1747 
Q 959 1119 1226 758 
Q 1494 397 1959 397 
Q 2419 397 2687 759 
Q 2956 1122 2956 1747 
Q 2956 2369 2687 2733 
Q 2419 3097 1959 3097 
z
M 1959 3584 
Q 2709 3584 3137 3096 
Q 3566 2609 3566 1747 
Q 3566 888 3137 398 
Q 2709 -91 1959 -91 
Q 1206 -91 779 398 
Q 353 888 353 1747 
Q 353 2609 779 3096 
Q 1206 3584 1959 3584 
z
" transform="scale(0.015625)"/>
      <path id="DejaVuSans-72" d="M 2631 2963 
Q 2534 3019 2420 3045 
Q 2306 3072 2169 3072 
Q 1681 3072 1420 2755 
Q 1159 2438 1159 1844 
L 1159 0 
L 581 0 
L 581 3500 
L 1159 3500 
L 1159 2956 
Q 1341 3275 1631 3429 
Q 1922 3584 2338 3584 
Q 2397 3584 2469 3576 
Q 2541 3569 2628 3553 
L 2631 2963 
z
" transform="scale(0.015625)"/>
      <path id="DejaVuSans-68" d="M 3513 2113 
L 3513 0 
L 2938 0 
L 2938 2094 
Q 2938 2591 2744 2837 
Q 2550 3084 2163 3084 
Q 1697 3084 1428 2787 
Q 1159 2491 1159 1978 
L 1159 0 
L 581 0 
L 581 4863 
L 1159 4863 
L 1159 2956 
Q 1366 3272 1645 3428 
Q 1925 3584 2291 3584 
Q 2894 3584 3203 3211 
Q 3513 2838 3513 2113 
z
" transform="scale(0.015625)"/>
      <path id="DejaVuSans-66" d="M 2375 4863 
L 2375 4384 
L 1825 4384 
Q 1516 4384 1395 4259 
Q 1275 4134 1275 3809 
L 1275 3500 
L 2222 3500 
L 2222 3053 
L 1275 3053 
L 1275 0 
L 697 0 
L 697 3053 
L 147 3053 
L 147 3500 
L 697 3500 
L 697 3744 
Q 697 4328 969 4595 
Q 1241 4863 1831 4863 
L 2375 4863 
z
" transform="scale(0.015625)"/>
      <path id="DejaVuSans-6c" d="M 603 4863 
L 1178 4863 
L 1178 0 
L 603 0 
L 603 4863 
z
" transform="scale(0.015625)"/>
      <path id="DejaVuSans-6d" d="M 3328 2828 
Q 3544 3216 3844 3400 
Q 4144 3584 4550 3584 
Q 5097 3584 5394 3201 
Q 5691 2819 5691 2113 
L 5691 0 
L 5113 0 
L 5113 2094 
Q 5113 2597 4934 2840 
Q 4756 3084 4391 3084 
Q 3944 3084 3684 2787 
Q 3425 2491 3425 1978 
L 3425 0 
L 2847 0 
L 2847 2094 
Q 2847 2600 2669 2842 
Q 2491 3084 2119 3084 
Q 1678 3084 1418 2786 
Q 1159 2488 1159 1978 
L 1159 0 
L 581 0 
L 581 3500 
L 1159 3500 
L 1159 2956 
Q 1356 3278 1631 3431 
Q 1906 3584 2284 3584 
Q 2666 3584 2933 3390 
Q 3200 3197 3328 2828 
z
" transform="scale(0.015625)"/>
     </defs>
     <use xlink:href="#DejaVuSans-51"/>
     <use xlink:href="#DejaVuSans-75" x="78.710938"/>
     <use xlink:href="#DejaVuSans-65" x="142.089844"/>
     <use xlink:href="#DejaVuSans-75" x="203.613281"/>
     <use xlink:href="#DejaVuSans-65" x="266.992188"/>
     <use xlink:href="#DejaVuSans-20" x="328.515625"/>
     <use xlink:href="#DejaVuSans-73" x="360.302734"/>
     <use xlink:href="#DejaVuSans-69" x="412.402344"/>
     <use xlink:href="#DejaVuSans-7a" x="440.185547"/>
     <use xlink:href="#DejaVuSans-65" x="492.675781"/>
     <use xlink:href="#DejaVuSans-20" x="554.199219"/>
     <use xlink:href="#DejaVuSans-28" x="585.986328"/>
     <use xlink:href="#DejaVuSans-79" x="625"/>
     <use xlink:href="#DejaVuSans-2d" x="682.429688"/>
     <use xlink:href="#DejaVuSans-61" x="718.513672"/>
     <use xlink:href="#DejaVuSans-78" x="779.792969"/>
     <use xlink:href="#DejaVuSans-69" x="838.972656"/>
     <use xlink:href="#DejaVuSans-73" x="866.755859"/>
     <use xlink:href="#DejaVuSans-29" x="918.855469"/>
     <use xlink:href="#DejaVuSans-20" x="957.869141"/>
     <use xlink:href="#DejaVuSans-62" x="989.65625"/>
     <use xlink:href="#DejaVuSans-65" x="1053.132812"/>
     <use xlink:href="#DejaVuSans-74" x="1114.65625"/>
     <use xlink:href="#DejaVuSans-77" x="1153.865234"/>
     <use xlink:href="#DejaVuSans-65" x="1235.652344"/>
     <use xlink:href="#DejaVuSans-65" x="1297.175781"/>
     <use xlink:href="#DejaVuSans-6e" x="1358.699219"/>
     <use xlink:href="#DejaVuSans-20" x="1422.078125"/>
     <use xlink:href="#DejaVuSans-53" x="1453.865234"/>
     <use xlink:href="#DejaVuSans-32" x="1517.341797"/>
     <use xlink:href="#DejaVuSans-20" x="1580.964844"/>
     <use xlink:href="#DejaVuSans-61" x="1612.751953"/>
     <use xlink:href="#DejaVuSans-6e" x="1674.03125"/>
     <use xlink:href="#DejaVuSans-64" x="1737.410156"/>
     <use xlink:href="#DejaVuSans-20" x="1800.886719"/>
     <use xlink:href="#DejaVuSans-73" x="1832.673828"/>
     <use xlink:href="#DejaVuSans-65" x="1884.773438"/>
     <use xlink:href="#DejaVuSans-6e" x="1946.296875"/>
     <use xlink:href="#DejaVuSans-73" x="2009.675781"/>
     <use xlink:href="#DejaVuSans-6f" x="2061.775391"/>
     <use xlink:href="#DejaVuSans-72" x="2122.957031"/>
     <use xlink:href="#DejaVuSans-73" x="2164.070312"/>
     <use xlink:href="#DejaVuSans-20" x="2216.169922"/>
     <use xlink:href="#DejaVuSans-74" x="2247.957031"/>
     <use xlink:href="#DejaVuSans-68" x="2287.166016"/>
     <use xlink:href="#DejaVuSans-61" x="2350.544922"/>
     <use xlink:href="#DejaVuSans-74" x="2411.824219"/>
     <use xlink:href="#DejaVuSans-20" x="2451.033203"/>
     <use xlink:href="#DejaVuSans-66" x="2482.820312"/>
     <use xlink:href="#DejaVuSans-6f" x="2518.025391"/>
     <use xlink:href="#DejaVuSans-6c" x="2579.207031"/>
     <use xlink:href="#DejaVuSans-6c" x="2606.990234"/>
     <use xlink:href="#DejaVuSans-6f" x="2634.773438"/>
     <use xlink:href="#DejaVuSans-77" x="2695.955078"/>
     <use xlink:href="#DejaVuSans-20" x="2777.742188"/>
     <use xlink:href="#DejaVuSans-61" x="2809.529297"/>
     <use xlink:href="#DejaVuSans-74" x="2870.808594"/>
     <use xlink:href="#DejaVuSans-20" x="2910.017578"/>
     <use xlink:href="#DejaVuSans-61" x="2941.804688"/>
     <use xlink:href="#DejaVuSans-20" x="3003.083984"/>
     <use xlink:href="#DejaVuSans-74" x="3034.871094"/>
     <use xlink:href="#DejaVuSans-69" x="3074.080078"/>
     <use xlink:href="#DejaVuSans-6d" x="3101.863281"/>
     <use xlink:href="#DejaVuSans-65" x="3199.275391"/>
     <use xlink:href="#DejaVuSans-20" x="3260.798828"/>
     <use xlink:href="#DejaVuSans-28" x="3292.585938"/>
     <use xlink:href="#DejaVuSans-78" x="3331.599609"/>
     <use xlink:href="#DejaVuSans-2d" x="3390.779297"/>
     <use xlink:href="#DejaVuSans-61" x="3426.863281"/>
     <use xlink:href="#DejaVuSans-78" x="3488.142578"/>
     <use xlink:href="#DejaVuSans-69" x="3547.322266"/>
     <use xlink:href="#DejaVuSans-73" x="3575.105469"/>
     <use xlink:href="#DejaVuSans-29" x="3627.205078"/>
     <use xlink:href="#DejaVuSans-2e" x="3666.21875"/>
    </g>
   </g>
  </g>
 </g>
 <defs>
  <clipPath id="p99d0d3bae6">
   <rect x="57.6" y="41.472" width="357.12" height="266.112"/>
  </clipPath>
 </defs>
</svg>
