<?xml version="1.0" encoding="utf-8" standalone="no"?>
<!DOCTYPE svg PUBLIC "-//W3C//DTD SVG 1.1//EN"
  "http://www.w3.org/Graphics/SVG/1.1/DTD/svg11.dtd">
<svg xmlns:xlink="http://www.w3.org/1999/xlink" width="460.8pt" height="345.6pt" viewBox="0 0 460.8 345.6" xmlns="http://www.w3.org/2000/svg" version="1.1">
 <metadata>
  <rdf:RDF xmlns:dc="http://purl.org/dc/elements/1.1/" xmlns:cc="http://creativecommons.org/ns#" xmlns:rdf="http://www.w3.org/1999/02/22-rdf-syntax-ns#">
   <cc:Work>
    <dc:type rdf:resource="http://purl.org/dc/dcmitype/StillImage"/>
    <dc:date>2024-03-08T11:13:25.078106</dc:date>
    <dc:format>image/svg+xml</dc:format>
    <dc:creator>
     <cc:Agent>
      <dc:title>Matplotlib v3.8.2, https://matplotlib.org/</dc:title>
     </cc:Agent>
    </dc:creator>
   </cc:Work>
  </rdf:RDF>
 </metadata>
 <defs>
  <style type="text/css">*{stroke-linejoin: round; stroke-linecap: butt}</style>
 </defs>
 <g id="figure_1">
  <g id="patch_1">
   <path d="M 0 345.6 
L 460.8 345.6 
L 460.8 0 
L 0 0 
z
" style="fill: #ffffff"/>
  </g>
  <g id="axes_1">
   <g id="patch_2">
    <path d="M 57.6 307.584 
L 414.72 307.584 
L 414.72 41.472 
L 57.6 41.472 
z
" style="fill: #ffffff"/>
   </g>
   <g id="matplotlib.axis_1">
    <g id="xtick_1">
     <g id="line2d_1">
      <defs>
       <path id="m004b9369f6" d="M 0 0 
L 0 3.5 
" style="stroke: #000000; stroke-width: 0.8"/>
      </defs>
      <g>
       <use xlink:href="#m004b9369f6" x="73.832727" y="307.584" style="stroke: #000000; stroke-width: 0.8"/>
      </g>
     </g>
     <g id="text_1">
      <!-- 0.0 -->
      <g transform="translate(65.881165 322.182437) scale(0.1 -0.1)">
       <defs>
        <path id="DejaVuSans-30" d="M 2034 4250 
Q 1547 4250 1301 3770 
Q 1056 3291 1056 2328 
Q 1056 1369 1301 889 
Q 1547 409 2034 409 
Q 2525 409 2770 889 
Q 3016 1369 3016 2328 
Q 3016 3291 2770 3770 
Q 2525 4250 2034 4250 
z
M 2034 4750 
Q 2819 4750 3233 4129 
Q 3647 3509 3647 2328 
Q 3647 1150 3233 529 
Q 2819 -91 2034 -91 
Q 1250 -91 836 529 
Q 422 1150 422 2328 
Q 422 3509 836 4129 
Q 1250 4750 2034 4750 
z
" transform="scale(0.015625)"/>
        <path id="DejaVuSans-2e" d="M 684 794 
L 1344 794 
L 1344 0 
L 684 0 
L 684 794 
z
" transform="scale(0.015625)"/>
       </defs>
       <use xlink:href="#DejaVuSans-30"/>
       <use xlink:href="#DejaVuSans-2e" x="63.623047"/>
       <use xlink:href="#DejaVuSans-30" x="95.410156"/>
      </g>
     </g>
    </g>
    <g id="xtick_2">
     <g id="line2d_2">
      <g>
       <use xlink:href="#m004b9369f6" x="135.724739" y="307.584" style="stroke: #000000; stroke-width: 0.8"/>
      </g>
     </g>
     <g id="text_2">
      <!-- 0.2 -->
      <g transform="translate(127.773176 322.182437) scale(0.1 -0.1)">
       <defs>
        <path id="DejaVuSans-32" d="M 1228 531 
L 3431 531 
L 3431 0 
L 469 0 
L 469 531 
Q 828 903 1448 1529 
Q 2069 2156 2228 2338 
Q 2531 2678 2651 2914 
Q 2772 3150 2772 3378 
Q 2772 3750 2511 3984 
Q 2250 4219 1831 4219 
Q 1534 4219 1204 4116 
Q 875 4013 500 3803 
L 500 4441 
Q 881 4594 1212 4672 
Q 1544 4750 1819 4750 
Q 2544 4750 2975 4387 
Q 3406 4025 3406 3419 
Q 3406 3131 3298 2873 
Q 3191 2616 2906 2266 
Q 2828 2175 2409 1742 
Q 1991 1309 1228 531 
z
" transform="scale(0.015625)"/>
       </defs>
       <use xlink:href="#DejaVuSans-30"/>
       <use xlink:href="#DejaVuSans-2e" x="63.623047"/>
       <use xlink:href="#DejaVuSans-32" x="95.410156"/>
      </g>
     </g>
    </g>
    <g id="xtick_3">
     <g id="line2d_3">
      <g>
       <use xlink:href="#m004b9369f6" x="197.61675" y="307.584" style="stroke: #000000; stroke-width: 0.8"/>
      </g>
     </g>
     <g id="text_3">
      <!-- 0.4 -->
      <g transform="translate(189.665187 322.182437) scale(0.1 -0.1)">
       <defs>
        <path id="DejaVuSans-34" d="M 2419 4116 
L 825 1625 
L 2419 1625 
L 2419 4116 
z
M 2253 4666 
L 3047 4666 
L 3047 1625 
L 3713 1625 
L 3713 1100 
L 3047 1100 
L 3047 0 
L 2419 0 
L 2419 1100 
L 313 1100 
L 313 1709 
L 2253 4666 
z
" transform="scale(0.015625)"/>
       </defs>
       <use xlink:href="#DejaVuSans-30"/>
       <use xlink:href="#DejaVuSans-2e" x="63.623047"/>
       <use xlink:href="#DejaVuSans-34" x="95.410156"/>
      </g>
     </g>
    </g>
    <g id="xtick_4">
     <g id="line2d_4">
      <g>
       <use xlink:href="#m004b9369f6" x="259.508761" y="307.584" style="stroke: #000000; stroke-width: 0.8"/>
      </g>
     </g>
     <g id="text_4">
      <!-- 0.6 -->
      <g transform="translate(251.557199 322.182437) scale(0.1 -0.1)">
       <defs>
        <path id="DejaVuSans-36" d="M 2113 2584 
Q 1688 2584 1439 2293 
Q 1191 2003 1191 1497 
Q 1191 994 1439 701 
Q 1688 409 2113 409 
Q 2538 409 2786 701 
Q 3034 994 3034 1497 
Q 3034 2003 2786 2293 
Q 2538 2584 2113 2584 
z
M 3366 4563 
L 3366 3988 
Q 3128 4100 2886 4159 
Q 2644 4219 2406 4219 
Q 1781 4219 1451 3797 
Q 1122 3375 1075 2522 
Q 1259 2794 1537 2939 
Q 1816 3084 2150 3084 
Q 2853 3084 3261 2657 
Q 3669 2231 3669 1497 
Q 3669 778 3244 343 
Q 2819 -91 2113 -91 
Q 1303 -91 875 529 
Q 447 1150 447 2328 
Q 447 3434 972 4092 
Q 1497 4750 2381 4750 
Q 2619 4750 2861 4703 
Q 3103 4656 3366 4563 
z
" transform="scale(0.015625)"/>
       </defs>
       <use xlink:href="#DejaVuSans-30"/>
       <use xlink:href="#DejaVuSans-2e" x="63.623047"/>
       <use xlink:href="#DejaVuSans-36" x="95.410156"/>
      </g>
     </g>
    </g>
    <g id="xtick_5">
     <g id="line2d_5">
      <g>
       <use xlink:href="#m004b9369f6" x="321.400773" y="307.584" style="stroke: #000000; stroke-width: 0.8"/>
      </g>
     </g>
     <g id="text_5">
      <!-- 0.8 -->
      <g transform="translate(313.44921 322.182437) scale(0.1 -0.1)">
       <defs>
        <path id="DejaVuSans-38" d="M 2034 2216 
Q 1584 2216 1326 1975 
Q 1069 1734 1069 1313 
Q 1069 891 1326 650 
Q 1584 409 2034 409 
Q 2484 409 2743 651 
Q 3003 894 3003 1313 
Q 3003 1734 2745 1975 
Q 2488 2216 2034 2216 
z
M 1403 2484 
Q 997 2584 770 2862 
Q 544 3141 544 3541 
Q 544 4100 942 4425 
Q 1341 4750 2034 4750 
Q 2731 4750 3128 4425 
Q 3525 4100 3525 3541 
Q 3525 3141 3298 2862 
Q 3072 2584 2669 2484 
Q 3125 2378 3379 2068 
Q 3634 1759 3634 1313 
Q 3634 634 3220 271 
Q 2806 -91 2034 -91 
Q 1263 -91 848 271 
Q 434 634 434 1313 
Q 434 1759 690 2068 
Q 947 2378 1403 2484 
z
M 1172 3481 
Q 1172 3119 1398 2916 
Q 1625 2713 2034 2713 
Q 2441 2713 2670 2916 
Q 2900 3119 2900 3481 
Q 2900 3844 2670 4047 
Q 2441 4250 2034 4250 
Q 1625 4250 1398 4047 
Q 1172 3844 1172 3481 
z
" transform="scale(0.015625)"/>
       </defs>
       <use xlink:href="#DejaVuSans-30"/>
       <use xlink:href="#DejaVuSans-2e" x="63.623047"/>
       <use xlink:href="#DejaVuSans-38" x="95.410156"/>
      </g>
     </g>
    </g>
    <g id="xtick_6">
     <g id="line2d_6">
      <g>
       <use xlink:href="#m004b9369f6" x="383.292784" y="307.584" style="stroke: #000000; stroke-width: 0.8"/>
      </g>
     </g>
     <g id="text_6">
      <!-- 1.0 -->
      <g transform="translate(375.341221 322.182437) scale(0.1 -0.1)">
       <defs>
        <path id="DejaVuSans-31" d="M 794 531 
L 1825 531 
L 1825 4091 
L 703 3866 
L 703 4441 
L 1819 4666 
L 2450 4666 
L 2450 531 
L 3481 531 
L 3481 0 
L 794 0 
L 794 531 
z
" transform="scale(0.015625)"/>
       </defs>
       <use xlink:href="#DejaVuSans-31"/>
       <use xlink:href="#DejaVuSans-2e" x="63.623047"/>
       <use xlink:href="#DejaVuSans-30" x="95.410156"/>
      </g>
     </g>
    </g>
    <g id="text_7">
     <!-- 1e6 -->
     <g transform="translate(395.841875 334.860562) scale(0.1 -0.1)">
      <defs>
       <path id="DejaVuSans-65" d="M 3597 1894 
L 3597 1613 
L 953 1613 
Q 991 1019 1311 708 
Q 1631 397 2203 397 
Q 2534 397 2845 478 
Q 3156 559 3463 722 
L 3463 178 
Q 3153 47 2828 -22 
Q 2503 -91 2169 -91 
Q 1331 -91 842 396 
Q 353 884 353 1716 
Q 353 2575 817 3079 
Q 1281 3584 2069 3584 
Q 2775 3584 3186 3129 
Q 3597 2675 3597 1894 
z
M 3022 2063 
Q 3016 2534 2758 2815 
Q 2500 3097 2075 3097 
Q 1594 3097 1305 2825 
Q 1016 2553 972 2059 
L 3022 2063 
z
" transform="scale(0.015625)"/>
      </defs>
      <use xlink:href="#DejaVuSans-31"/>
      <use xlink:href="#DejaVuSans-65" x="63.623047"/>
      <use xlink:href="#DejaVuSans-36" x="125.146484"/>
     </g>
    </g>
   </g>
   <g id="matplotlib.axis_2">
    <g id="ytick_1">
     <g id="line2d_7">
      <defs>
       <path id="m82453ddb81" d="M 0 0 
L -3.5 0 
" style="stroke: #000000; stroke-width: 0.8"/>
      </defs>
      <g>
       <use xlink:href="#m82453ddb81" x="57.6" y="295.488" style="stroke: #000000; stroke-width: 0.8"/>
      </g>
     </g>
     <g id="text_8">
      <!-- 0.0 -->
      <g transform="translate(34.696875 299.287219) scale(0.1 -0.1)">
       <use xlink:href="#DejaVuSans-30"/>
       <use xlink:href="#DejaVuSans-2e" x="63.623047"/>
       <use xlink:href="#DejaVuSans-30" x="95.410156"/>
      </g>
     </g>
    </g>
    <g id="ytick_2">
     <g id="line2d_8">
      <g>
       <use xlink:href="#m82453ddb81" x="57.6" y="247.104" style="stroke: #000000; stroke-width: 0.8"/>
      </g>
     </g>
     <g id="text_9">
      <!-- 0.2 -->
      <g transform="translate(34.696875 250.903219) scale(0.1 -0.1)">
       <use xlink:href="#DejaVuSans-30"/>
       <use xlink:href="#DejaVuSans-2e" x="63.623047"/>
       <use xlink:href="#DejaVuSans-32" x="95.410156"/>
      </g>
     </g>
    </g>
    <g id="ytick_3">
     <g id="line2d_9">
      <g>
       <use xlink:href="#m82453ddb81" x="57.6" y="198.72" style="stroke: #000000; stroke-width: 0.8"/>
      </g>
     </g>
     <g id="text_10">
      <!-- 0.4 -->
      <g transform="translate(34.696875 202.519219) scale(0.1 -0.1)">
       <use xlink:href="#DejaVuSans-30"/>
       <use xlink:href="#DejaVuSans-2e" x="63.623047"/>
       <use xlink:href="#DejaVuSans-34" x="95.410156"/>
      </g>
     </g>
    </g>
    <g id="ytick_4">
     <g id="line2d_10">
      <g>
       <use xlink:href="#m82453ddb81" x="57.6" y="150.336" style="stroke: #000000; stroke-width: 0.8"/>
      </g>
     </g>
     <g id="text_11">
      <!-- 0.6 -->
      <g transform="translate(34.696875 154.135219) scale(0.1 -0.1)">
       <use xlink:href="#DejaVuSans-30"/>
       <use xlink:href="#DejaVuSans-2e" x="63.623047"/>
       <use xlink:href="#DejaVuSans-36" x="95.410156"/>
      </g>
     </g>
    </g>
    <g id="ytick_5">
     <g id="line2d_11">
      <g>
       <use xlink:href="#m82453ddb81" x="57.6" y="101.952" style="stroke: #000000; stroke-width: 0.8"/>
      </g>
     </g>
     <g id="text_12">
      <!-- 0.8 -->
      <g transform="translate(34.696875 105.751219) scale(0.1 -0.1)">
       <use xlink:href="#DejaVuSans-30"/>
       <use xlink:href="#DejaVuSans-2e" x="63.623047"/>
       <use xlink:href="#DejaVuSans-38" x="95.410156"/>
      </g>
     </g>
    </g>
    <g id="ytick_6">
     <g id="line2d_12">
      <g>
       <use xlink:href="#m82453ddb81" x="57.6" y="53.568" style="stroke: #000000; stroke-width: 0.8"/>
      </g>
     </g>
     <g id="text_13">
      <!-- 1.0 -->
      <g transform="translate(34.696875 57.367219) scale(0.1 -0.1)">
       <use xlink:href="#DejaVuSans-31"/>
       <use xlink:href="#DejaVuSans-2e" x="63.623047"/>
       <use xlink:href="#DejaVuSans-30" x="95.410156"/>
      </g>
     </g>
    </g>
   </g>
   <g id="line2d_13">
    <path d="M 73.832727 295.488 
L 75.383122 295.488 
L 75.383122 284.599233 
L 75.383122 284.599233 
L 80.31901 284.599233 
L 80.31901 280.811836 
L 80.31901 280.811836 
L 82.135541 280.811836 
L 82.135541 277.971288 
L 82.135541 277.971288 
L 83.18461 277.971288 
L 83.18461 272.290192 
L 83.18461 272.290192 
L 86.062589 272.290192 
L 86.062589 270.869918 
L 86.062589 270.869918 
L 88.429958 270.869918 
L 88.429958 268.02937 
L 88.429958 268.02937 
L 89.714217 268.02937 
L 89.714217 265.662247 
L 89.714217 265.662247 
L 91.341977 265.662247 
L 91.341977 262.821699 
L 91.341977 262.821699 
L 95.021457 262.821699 
L 95.021457 259.981151 
L 95.021457 259.981151 
L 96.497582 259.981151 
L 96.497582 257.614027 
L 96.497582 257.614027 
L 96.612082 257.614027 
L 96.612082 253.82663 
L 96.612082 253.82663 
L 100.347265 253.82663 
L 100.347265 252.406356 
L 100.347265 252.406356 
L 101.371578 252.406356 
L 101.371578 250.986082 
L 101.371578 250.986082 
L 101.999782 250.986082 
L 101.999782 248.145534 
L 101.999782 248.145534 
L 102.494918 248.145534 
L 102.494918 245.304986 
L 102.494918 245.304986 
L 105.583329 245.304986 
L 105.583329 242.464438 
L 105.583329 242.464438 
L 106.610736 242.464438 
L 106.610736 239.150466 
L 106.610736 239.150466 
L 107.307022 239.150466 
L 107.307022 236.309918 
L 107.307022 236.309918 
L 109.145214 236.309918 
L 109.145214 233.46937 
L 109.145214 233.46937 
L 110.652285 233.46937 
L 110.652285 230.628822 
L 110.652285 230.628822 
L 111.688976 230.628822 
L 111.688976 229.208548 
L 111.688976 229.208548 
L 112.957762 229.208548 
L 112.957762 227.314849 
L 112.957762 227.314849 
L 113.409574 227.314849 
L 113.409574 224.474301 
L 113.409574 224.474301 
L 115.640781 224.474301 
L 115.640781 221.633753 
L 115.640781 221.633753 
L 116.547499 221.633753 
L 116.547499 217.846356 
L 116.547499 217.846356 
L 118.100988 217.846356 
L 118.100988 214.058959 
L 118.100988 214.058959 
L 119.886573 214.058959 
L 119.886573 211.218411 
L 119.886573 211.218411 
L 121.950671 211.218411 
L 121.950671 209.324712 
L 121.950671 209.324712 
L 123.547485 209.324712 
L 123.547485 207.431014 
L 123.547485 207.431014 
L 126.332626 207.431014 
L 126.332626 204.590466 
L 126.332626 204.590466 
L 126.963924 204.590466 
L 127.059857 199.856219 
L 127.059857 199.856219 
L 128.665955 199.856219 
L 128.665955 197.015671 
L 128.665955 197.015671 
L 132.159759 197.015671 
L 132.159759 194.175123 
L 132.159759 194.175123 
L 132.348529 194.175123 
L 132.348529 190.861151 
L 132.348529 190.861151 
L 132.930314 190.861151 
L 132.930314 188.020603 
L 132.930314 188.020603 
L 134.867534 188.020603 
L 134.867534 186.126904 
L 134.867534 186.126904 
L 139.398029 186.126904 
L 139.398029 185.180055 
L 139.398029 185.180055 
L 139.617746 185.180055 
L 139.617746 179.498959 
L 139.617746 179.498959 
L 141.462128 179.498959 
L 141.462128 176.658411 
L 141.462128 176.658411 
L 143.213672 176.658411 
L 143.213672 173.817863 
L 143.213672 173.817863 
L 147.001463 173.817863 
L 147.001463 168.136767 
L 147.001463 168.136767 
L 151.807378 168.136767 
L 151.807378 163.402521 
L 151.807378 163.402521 
L 154.100477 163.402521 
L 154.100477 157.721425 
L 154.100477 157.721425 
L 159.686231 157.721425 
L 159.686231 152.987178 
L 159.686231 152.987178 
L 161.877208 152.987178 
L 161.877208 147.306082 
L 161.877208 147.306082 
L 167.233962 147.306082 
L 167.233962 142.098411 
L 167.233962 142.098411 
L 169.598236 142.098411 
L 169.598236 136.417315 
L 169.598236 136.417315 
L 174.555787 136.417315 
L 174.555787 130.736219 
L 174.555787 130.736219 
L 177.158346 130.736219 
L 177.158346 125.055123 
L 177.158346 125.055123 
L 182.193261 125.055123 
L 182.193261 119.374027 
L 182.193261 119.374027 
L 184.214035 119.374027 
L 184.214035 113.692932 
L 184.214035 113.692932 
L 185.693254 113.692932 
L 185.693254 110.852384 
L 185.693254 110.852384 
L 189.957614 110.852384 
L 189.957614 105.171288 
L 189.957614 105.171288 
L 192.105266 105.171288 
L 192.105266 99.490192 
L 192.105266 99.490192 
L 199.529213 99.490192 
L 199.529213 93.809096 
L 199.529213 93.809096 
L 215.141473 93.809096 
L 215.141473 90.968548 
L 215.141473 90.968548 
L 221.977446 90.968548 
L 221.977446 87.654575 
L 221.977446 87.654575 
L 222.181689 87.654575 
L 222.181689 81.973479 
L 222.181689 81.973479 
L 229.853204 81.973479 
L 229.853204 76.292384 
L 229.853204 76.292384 
L 255.448645 76.292384 
L 255.448645 70.611288 
L 255.448645 70.611288 
L 262.798322 70.611288 
L 262.798322 64.930192 
L 262.798322 64.930192 
L 270.370809 64.930192 
L 270.370809 59.249096 
L 270.370809 59.249096 
L 275.71209 59.249096 
L 275.71209 53.568 
L 275.71209 53.568 
" clip-path="url(#p629c0fba0e)" style="fill: none; stroke: #1f77b4; stroke-width: 1.5; stroke-linecap: square"/>
   </g>
   <g id="line2d_14">
    <path d="M 73.832727 295.488 
L 75.383122 295.488 
L 75.383122 283.0464 
L 75.383122 283.0464 
L 77.134666 283.0464 
L 77.134666 279.8208 
L 77.134666 279.8208 
L 78.836696 279.8208 
L 78.836696 275.2128 
L 78.836696 275.2128 
L 82.200527 275.2128 
L 82.200527 272.448 
L 82.200527 272.448 
L 84.574086 272.448 
L 84.574086 266.9184 
L 84.574086 266.9184 
L 88.597067 266.9184 
L 88.597067 264.1536 
L 88.597067 264.1536 
L 94.07451 264.1536 
L 94.07451 258.624 
L 94.07451 258.624 
L 94.900768 258.624 
L 94.900768 255.8592 
L 94.900768 255.8592 
L 97.670435 255.8592 
L 97.670435 251.712 
L 97.670435 251.712 
L 101.325159 251.712 
L 101.325159 248.9472 
L 101.325159 248.9472 
L 103.349027 248.9472 
L 103.349027 243.4176 
L 103.349027 243.4176 
L 105.493586 243.4176 
L 105.493586 242.496 
L 105.493586 242.496 
L 105.830897 242.496 
L 105.830897 241.5744 
L 105.830897 241.5744 
L 105.957776 241.5744 
L 105.957776 239.7312 
L 105.957776 239.7312 
L 107.24513 239.7312 
L 107.24513 236.9664 
L 107.24513 236.9664 
L 108.913119 236.9664 
L 108.94716 230.976 
L 108.94716 230.976 
L 109.460864 230.976 
L 109.460864 225.9072 
L 109.460864 225.9072 
L 111.283583 225.9072 
L 111.283583 219.456 
L 111.283583 219.456 
L 112.549275 219.456 
L 112.549275 213.9264 
L 112.549275 213.9264 
L 118.608503 213.9264 
L 118.608503 212.0832 
L 118.608503 212.0832 
L 120.069154 212.0832 
L 120.069154 209.7792 
L 120.069154 209.7792 
L 120.363141 209.7792 
L 120.363141 205.632 
L 120.363141 205.632 
L 123.358715 205.632 
L 123.358715 200.1024 
L 123.358715 200.1024 
L 124.615123 200.1024 
L 124.615123 197.3376 
L 124.615123 197.3376 
L 132.30211 197.3376 
L 132.30211 194.5728 
L 132.30211 194.5728 
L 137.606256 194.5728 
L 137.606256 191.808 
L 137.606256 191.808 
L 138.754353 191.808 
L 138.754353 189.504 
L 138.754353 189.504 
L 140.589451 189.504 
L 140.589451 188.5824 
L 140.589451 188.5824 
L 140.815357 188.5824 
L 140.815357 183.0528 
L 140.815357 183.0528 
L 142.64736 183.0528 
L 142.64736 178.9056 
L 142.64736 178.9056 
L 144.494837 178.9056 
L 144.494837 177.0624 
L 144.494837 177.0624 
L 145.144703 177.0624 
L 145.144703 173.8368 
L 145.144703 173.8368 
L 146.134975 173.8368 
L 146.134975 168.3072 
L 146.134975 168.3072 
L 149.69686 168.3072 
L 149.69686 162.7776 
L 149.69686 162.7776 
L 152.834785 162.7776 
L 152.834785 160.0128 
L 152.834785 160.0128 
L 153.333016 160.0128 
L 153.333016 154.4832 
L 153.333016 154.4832 
L 154.573951 154.4832 
L 154.573951 154.0224 
L 156.78659 154.0224 
L 156.78659 143.424 
L 156.78659 143.424 
L 156.972266 143.424 
L 156.972266 142.0416 
L 156.972266 142.0416 
L 159.22823 142.0416 
L 159.22823 139.2768 
L 159.22823 139.2768 
L 165.794972 139.2768 
L 165.794972 137.4336 
L 165.794972 137.4336 
L 167.447489 137.4336 
L 167.447489 126.8352 
L 167.447489 126.8352 
L 169.226884 126.8352 
L 169.226884 124.992 
L 169.226884 124.992 
L 169.41875 124.992 
L 169.41875 124.0704 
L 169.41875 124.0704 
L 170.978428 124.0704 
L 170.978428 119.9232 
L 170.978428 119.9232 
L 171.12078 119.9232 
L 171.12078 117.1584 
L 171.12078 117.1584 
L 172.872324 117.1584 
L 172.872324 115.3152 
L 172.872324 115.3152 
L 183.619872 115.3152 
L 183.619872 112.5504 
L 183.619872 112.5504 
L 190.353722 112.5504 
L 190.353722 109.7856 
L 190.353722 109.7856 
L 196.422234 109.7856 
L 196.422234 105.6384 
L 196.422234 105.6384 
L 200.166701 105.6384 
L 200.166701 100.1088 
L 200.166701 100.1088 
L 203.614086 100.1088 
L 203.614086 94.5792 
L 203.614086 94.5792 
L 224.26745 94.5792 
L 224.26745 89.0496 
L 224.26745 89.0496 
L 231.771856 89.0496 
L 231.771856 83.52 
L 231.771856 83.52 
L 237.490678 83.52 
L 237.490678 77.5296 
L 237.490678 77.5296 
L 253.499047 77.5296 
L 253.499047 73.8432 
L 253.499047 73.8432 
L 386.978453 73.8432 
L 386.978453 70.6176 
L 386.978453 70.6176 
L 392.168098 70.6176 
L 392.168098 67.8528 
L 392.168098 67.8528 
L 395.844484 67.8528 
L 395.844484 62.3232 
L 395.844484 62.3232 
L 398.487273 62.3232 
L 398.487273 53.568 
L 398.487273 53.568 
" clip-path="url(#p629c0fba0e)" style="fill: none; stroke: #ff7f0e; stroke-width: 1.5; stroke-linecap: square"/>
   </g>
   <g id="patch_3">
    <path d="M 57.6 307.584 
L 57.6 41.472 
" style="fill: none; stroke: #000000; stroke-width: 0.8; stroke-linejoin: miter; stroke-linecap: square"/>
   </g>
   <g id="patch_4">
    <path d="M 414.72 307.584 
L 414.72 41.472 
" style="fill: none; stroke: #000000; stroke-width: 0.8; stroke-linejoin: miter; stroke-linecap: square"/>
   </g>
   <g id="patch_5">
    <path d="M 57.6 307.584 
L 414.72 307.584 
" style="fill: none; stroke: #000000; stroke-width: 0.8; stroke-linejoin: miter; stroke-linecap: square"/>
   </g>
   <g id="patch_6">
    <path d="M 57.6 41.472 
L 414.72 41.472 
" style="fill: none; stroke: #000000; stroke-width: 0.8; stroke-linejoin: miter; stroke-linecap: square"/>
   </g>
   <g id="text_14">
    <!-- S10 S12 -->
    <g transform="translate(211.365 35.472) scale(0.12 -0.12)">
     <defs>
      <path id="DejaVuSans-53" d="M 3425 4513 
L 3425 3897 
Q 3066 4069 2747 4153 
Q 2428 4238 2131 4238 
Q 1616 4238 1336 4038 
Q 1056 3838 1056 3469 
Q 1056 3159 1242 3001 
Q 1428 2844 1947 2747 
L 2328 2669 
Q 3034 2534 3370 2195 
Q 3706 1856 3706 1288 
Q 3706 609 3251 259 
Q 2797 -91 1919 -91 
Q 1588 -91 1214 -16 
Q 841 59 441 206 
L 441 856 
Q 825 641 1194 531 
Q 1563 422 1919 422 
Q 2459 422 2753 634 
Q 3047 847 3047 1241 
Q 3047 1584 2836 1778 
Q 2625 1972 2144 2069 
L 1759 2144 
Q 1053 2284 737 2584 
Q 422 2884 422 3419 
Q 422 4038 858 4394 
Q 1294 4750 2059 4750 
Q 2388 4750 2728 4690 
Q 3069 4631 3425 4513 
z
" transform="scale(0.015625)"/>
      <path id="DejaVuSans-20" transform="scale(0.015625)"/>
     </defs>
     <use xlink:href="#DejaVuSans-53"/>
     <use xlink:href="#DejaVuSans-31" x="63.476562"/>
     <use xlink:href="#DejaVuSans-30" x="127.099609"/>
     <use xlink:href="#DejaVuSans-20" x="190.722656"/>
     <use xlink:href="#DejaVuSans-53" x="222.509766"/>
     <use xlink:href="#DejaVuSans-31" x="285.986328"/>
     <use xlink:href="#DejaVuSans-32" x="349.609375"/>
    </g>
   </g>
   <g id="legend_1">
    <g id="patch_7">
     <path d="M 99.366563 304.584 
L 410.52 304.584 
Q 411.72 304.584 411.72 303.384 
L 411.72 286.37025 
Q 411.72 285.17025 410.52 285.17025 
L 99.366563 285.17025 
Q 98.166563 285.17025 98.166563 286.37025 
L 98.166563 303.384 
Q 98.166563 304.584 99.366563 304.584 
z
" style="fill: #ffffff; opacity: 0.8; stroke: #cccccc; stroke-linejoin: miter"/>
    </g>
    <g id="line2d_15">
     <path d="M 100.566563 290.029312 
L 106.566563 290.029312 
L 112.566563 290.029312 
" style="fill: none; stroke: #1f77b4; stroke-width: 1.5; stroke-linecap: square"/>
    </g>
    <g id="text_15">
     <!-- Execution time between S10 S12 (xx1xx1xx1xx0yyy66xx0yyy66xx0yyy66xx0yyy66xx1yyy2xx1) -->
     <g transform="translate(117.366563 292.129312) scale(0.06 -0.06)">
      <defs>
       <path id="DejaVuSans-45" d="M 628 4666 
L 3578 4666 
L 3578 4134 
L 1259 4134 
L 1259 2753 
L 3481 2753 
L 3481 2222 
L 1259 2222 
L 1259 531 
L 3634 531 
L 3634 0 
L 628 0 
L 628 4666 
z
" transform="scale(0.015625)"/>
       <path id="DejaVuSans-78" d="M 3513 3500 
L 2247 1797 
L 3578 0 
L 2900 0 
L 1881 1375 
L 863 0 
L 184 0 
L 1544 1831 
L 300 3500 
L 978 3500 
L 1906 2253 
L 2834 3500 
L 3513 3500 
z
" transform="scale(0.015625)"/>
       <path id="DejaVuSans-63" d="M 3122 3366 
L 3122 2828 
Q 2878 2963 2633 3030 
Q 2388 3097 2138 3097 
Q 1578 3097 1268 2742 
Q 959 2388 959 1747 
Q 959 1106 1268 751 
Q 1578 397 2138 397 
Q 2388 397 2633 464 
Q 2878 531 3122 666 
L 3122 134 
Q 2881 22 2623 -34 
Q 2366 -91 2075 -91 
Q 1284 -91 818 406 
Q 353 903 353 1747 
Q 353 2603 823 3093 
Q 1294 3584 2113 3584 
Q 2378 3584 2631 3529 
Q 2884 3475 3122 3366 
z
" transform="scale(0.015625)"/>
       <path id="DejaVuSans-75" d="M 544 1381 
L 544 3500 
L 1119 3500 
L 1119 1403 
Q 1119 906 1312 657 
Q 1506 409 1894 409 
Q 2359 409 2629 706 
Q 2900 1003 2900 1516 
L 2900 3500 
L 3475 3500 
L 3475 0 
L 2900 0 
L 2900 538 
Q 2691 219 2414 64 
Q 2138 -91 1772 -91 
Q 1169 -91 856 284 
Q 544 659 544 1381 
z
M 1991 3584 
L 1991 3584 
z
" transform="scale(0.015625)"/>
       <path id="DejaVuSans-74" d="M 1172 4494 
L 1172 3500 
L 2356 3500 
L 2356 3053 
L 1172 3053 
L 1172 1153 
Q 1172 725 1289 603 
Q 1406 481 1766 481 
L 2356 481 
L 2356 0 
L 1766 0 
Q 1100 0 847 248 
Q 594 497 594 1153 
L 594 3053 
L 172 3053 
L 172 3500 
L 594 3500 
L 594 4494 
L 1172 4494 
z
" transform="scale(0.015625)"/>
       <path id="DejaVuSans-69" d="M 603 3500 
L 1178 3500 
L 1178 0 
L 603 0 
L 603 3500 
z
M 603 4863 
L 1178 4863 
L 1178 4134 
L 603 4134 
L 603 4863 
z
" transform="scale(0.015625)"/>
       <path id="DejaVuSans-6f" d="M 1959 3097 
Q 1497 3097 1228 2736 
Q 959 2375 959 1747 
Q 959 1119 1226 758 
Q 1494 397 1959 397 
Q 2419 397 2687 759 
Q 2956 1122 2956 1747 
Q 2956 2369 2687 2733 
Q 2419 3097 1959 3097 
z
M 1959 3584 
Q 2709 3584 3137 3096 
Q 3566 2609 3566 1747 
Q 3566 888 3137 398 
Q 2709 -91 1959 -91 
Q 1206 -91 779 398 
Q 353 888 353 1747 
Q 353 2609 779 3096 
Q 1206 3584 1959 3584 
z
" transform="scale(0.015625)"/>
       <path id="DejaVuSans-6e" d="M 3513 2113 
L 3513 0 
L 2938 0 
L 2938 2094 
Q 2938 2591 2744 2837 
Q 2550 3084 2163 3084 
Q 1697 3084 1428 2787 
Q 1159 2491 1159 1978 
L 1159 0 
L 581 0 
L 581 3500 
L 1159 3500 
L 1159 2956 
Q 1366 3272 1645 3428 
Q 1925 3584 2291 3584 
Q 2894 3584 3203 3211 
Q 3513 2838 3513 2113 
z
" transform="scale(0.015625)"/>
       <path id="DejaVuSans-6d" d="M 3328 2828 
Q 3544 3216 3844 3400 
Q 4144 3584 4550 3584 
Q 5097 3584 5394 3201 
Q 5691 2819 5691 2113 
L 5691 0 
L 5113 0 
L 5113 2094 
Q 5113 2597 4934 2840 
Q 4756 3084 4391 3084 
Q 3944 3084 3684 2787 
Q 3425 2491 3425 1978 
L 3425 0 
L 2847 0 
L 2847 2094 
Q 2847 2600 2669 2842 
Q 2491 3084 2119 3084 
Q 1678 3084 1418 2786 
Q 1159 2488 1159 1978 
L 1159 0 
L 581 0 
L 581 3500 
L 1159 3500 
L 1159 2956 
Q 1356 3278 1631 3431 
Q 1906 3584 2284 3584 
Q 2666 3584 2933 3390 
Q 3200 3197 3328 2828 
z
" transform="scale(0.015625)"/>
       <path id="DejaVuSans-62" d="M 3116 1747 
Q 3116 2381 2855 2742 
Q 2594 3103 2138 3103 
Q 1681 3103 1420 2742 
Q 1159 2381 1159 1747 
Q 1159 1113 1420 752 
Q 1681 391 2138 391 
Q 2594 391 2855 752 
Q 3116 1113 3116 1747 
z
M 1159 2969 
Q 1341 3281 1617 3432 
Q 1894 3584 2278 3584 
Q 2916 3584 3314 3078 
Q 3713 2572 3713 1747 
Q 3713 922 3314 415 
Q 2916 -91 2278 -91 
Q 1894 -91 1617 61 
Q 1341 213 1159 525 
L 1159 0 
L 581 0 
L 581 4863 
L 1159 4863 
L 1159 2969 
z
" transform="scale(0.015625)"/>
       <path id="DejaVuSans-77" d="M 269 3500 
L 844 3500 
L 1563 769 
L 2278 3500 
L 2956 3500 
L 3675 769 
L 4391 3500 
L 4966 3500 
L 4050 0 
L 3372 0 
L 2619 2869 
L 1863 0 
L 1184 0 
L 269 3500 
z
" transform="scale(0.015625)"/>
       <path id="DejaVuSans-28" d="M 1984 4856 
Q 1566 4138 1362 3434 
Q 1159 2731 1159 2009 
Q 1159 1288 1364 580 
Q 1569 -128 1984 -844 
L 1484 -844 
Q 1016 -109 783 600 
Q 550 1309 550 2009 
Q 550 2706 781 3412 
Q 1013 4119 1484 4856 
L 1984 4856 
z
" transform="scale(0.015625)"/>
       <path id="DejaVuSans-79" d="M 2059 -325 
Q 1816 -950 1584 -1140 
Q 1353 -1331 966 -1331 
L 506 -1331 
L 506 -850 
L 844 -850 
Q 1081 -850 1212 -737 
Q 1344 -625 1503 -206 
L 1606 56 
L 191 3500 
L 800 3500 
L 1894 763 
L 2988 3500 
L 3597 3500 
L 2059 -325 
z
" transform="scale(0.015625)"/>
       <path id="DejaVuSans-29" d="M 513 4856 
L 1013 4856 
Q 1481 4119 1714 3412 
Q 1947 2706 1947 2009 
Q 1947 1309 1714 600 
Q 1481 -109 1013 -844 
L 513 -844 
Q 928 -128 1133 580 
Q 1338 1288 1338 2009 
Q 1338 2731 1133 3434 
Q 928 4138 513 4856 
z
" transform="scale(0.015625)"/>
      </defs>
      <use xlink:href="#DejaVuSans-45"/>
      <use xlink:href="#DejaVuSans-78" x="63.183594"/>
      <use xlink:href="#DejaVuSans-65" x="119.238281"/>
      <use xlink:href="#DejaVuSans-63" x="180.761719"/>
      <use xlink:href="#DejaVuSans-75" x="235.742188"/>
      <use xlink:href="#DejaVuSans-74" x="299.121094"/>
      <use xlink:href="#DejaVuSans-69" x="338.330078"/>
      <use xlink:href="#DejaVuSans-6f" x="366.113281"/>
      <use xlink:href="#DejaVuSans-6e" x="427.294922"/>
      <use xlink:href="#DejaVuSans-20" x="490.673828"/>
      <use xlink:href="#DejaVuSans-74" x="522.460938"/>
      <use xlink:href="#DejaVuSans-69" x="561.669922"/>
      <use xlink:href="#DejaVuSans-6d" x="589.453125"/>
      <use xlink:href="#DejaVuSans-65" x="686.865234"/>
      <use xlink:href="#DejaVuSans-20" x="748.388672"/>
      <use xlink:href="#DejaVuSans-62" x="780.175781"/>
      <use xlink:href="#DejaVuSans-65" x="843.652344"/>
      <use xlink:href="#DejaVuSans-74" x="905.175781"/>
      <use xlink:href="#DejaVuSans-77" x="944.384766"/>
      <use xlink:href="#DejaVuSans-65" x="1026.171875"/>
      <use xlink:href="#DejaVuSans-65" x="1087.695312"/>
      <use xlink:href="#DejaVuSans-6e" x="1149.21875"/>
      <use xlink:href="#DejaVuSans-20" x="1212.597656"/>
      <use xlink:href="#DejaVuSans-53" x="1244.384766"/>
      <use xlink:href="#DejaVuSans-31" x="1307.861328"/>
      <use xlink:href="#DejaVuSans-30" x="1371.484375"/>
      <use xlink:href="#DejaVuSans-20" x="1435.107422"/>
      <use xlink:href="#DejaVuSans-53" x="1466.894531"/>
      <use xlink:href="#DejaVuSans-31" x="1530.371094"/>
      <use xlink:href="#DejaVuSans-32" x="1593.994141"/>
      <use xlink:href="#DejaVuSans-20" x="1657.617188"/>
      <use xlink:href="#DejaVuSans-28" x="1689.404297"/>
      <use xlink:href="#DejaVuSans-78" x="1728.417969"/>
      <use xlink:href="#DejaVuSans-78" x="1787.597656"/>
      <use xlink:href="#DejaVuSans-31" x="1846.777344"/>
      <use xlink:href="#DejaVuSans-78" x="1910.400391"/>
      <use xlink:href="#DejaVuSans-78" x="1969.580078"/>
      <use xlink:href="#DejaVuSans-31" x="2028.759766"/>
      <use xlink:href="#DejaVuSans-78" x="2092.382812"/>
      <use xlink:href="#DejaVuSans-78" x="2151.5625"/>
      <use xlink:href="#DejaVuSans-31" x="2210.742188"/>
      <use xlink:href="#DejaVuSans-78" x="2274.365234"/>
      <use xlink:href="#DejaVuSans-78" x="2333.544922"/>
      <use xlink:href="#DejaVuSans-30" x="2392.724609"/>
      <use xlink:href="#DejaVuSans-79" x="2456.347656"/>
      <use xlink:href="#DejaVuSans-79" x="2515.527344"/>
      <use xlink:href="#DejaVuSans-79" x="2574.707031"/>
      <use xlink:href="#DejaVuSans-36" x="2633.886719"/>
      <use xlink:href="#DejaVuSans-36" x="2697.509766"/>
      <use xlink:href="#DejaVuSans-78" x="2761.132812"/>
      <use xlink:href="#DejaVuSans-78" x="2820.3125"/>
      <use xlink:href="#DejaVuSans-30" x="2879.492188"/>
      <use xlink:href="#DejaVuSans-79" x="2943.115234"/>
      <use xlink:href="#DejaVuSans-79" x="3002.294922"/>
      <use xlink:href="#DejaVuSans-79" x="3061.474609"/>
      <use xlink:href="#DejaVuSans-36" x="3120.654297"/>
      <use xlink:href="#DejaVuSans-36" x="3184.277344"/>
      <use xlink:href="#DejaVuSans-78" x="3247.900391"/>
      <use xlink:href="#DejaVuSans-78" x="3307.080078"/>
      <use xlink:href="#DejaVuSans-30" x="3366.259766"/>
      <use xlink:href="#DejaVuSans-79" x="3429.882812"/>
      <use xlink:href="#DejaVuSans-79" x="3489.0625"/>
      <use xlink:href="#DejaVuSans-79" x="3548.242188"/>
      <use xlink:href="#DejaVuSans-36" x="3607.421875"/>
      <use xlink:href="#DejaVuSans-36" x="3671.044922"/>
      <use xlink:href="#DejaVuSans-78" x="3734.667969"/>
      <use xlink:href="#DejaVuSans-78" x="3793.847656"/>
      <use xlink:href="#DejaVuSans-30" x="3853.027344"/>
      <use xlink:href="#DejaVuSans-79" x="3916.650391"/>
      <use xlink:href="#DejaVuSans-79" x="3975.830078"/>
      <use xlink:href="#DejaVuSans-79" x="4035.009766"/>
      <use xlink:href="#DejaVuSans-36" x="4094.189453"/>
      <use xlink:href="#DejaVuSans-36" x="4157.8125"/>
      <use xlink:href="#DejaVuSans-78" x="4221.435547"/>
      <use xlink:href="#DejaVuSans-78" x="4280.615234"/>
      <use xlink:href="#DejaVuSans-31" x="4339.794922"/>
      <use xlink:href="#DejaVuSans-79" x="4403.417969"/>
      <use xlink:href="#DejaVuSans-79" x="4462.597656"/>
      <use xlink:href="#DejaVuSans-79" x="4521.777344"/>
      <use xlink:href="#DejaVuSans-32" x="4580.957031"/>
      <use xlink:href="#DejaVuSans-78" x="4644.580078"/>
      <use xlink:href="#DejaVuSans-78" x="4703.759766"/>
      <use xlink:href="#DejaVuSans-31" x="4762.939453"/>
      <use xlink:href="#DejaVuSans-29" x="4826.5625"/>
     </g>
    </g>
    <g id="line2d_16">
     <path d="M 100.566563 298.836187 
L 106.566563 298.836187 
L 112.566563 298.836187 
" style="fill: none; stroke: #ff7f0e; stroke-width: 1.5; stroke-linecap: square"/>
    </g>
    <g id="text_16">
     <!-- Execution time between S10 S12 (xx1xx1xx2xx0yyy66xx0yyy66xx1yyy5xx0yyy3xx1xx1yyy5) -->
     <g transform="translate(117.366563 300.936187) scale(0.06 -0.06)">
      <defs>
       <path id="DejaVuSans-35" d="M 691 4666 
L 3169 4666 
L 3169 4134 
L 1269 4134 
L 1269 2991 
Q 1406 3038 1543 3061 
Q 1681 3084 1819 3084 
Q 2600 3084 3056 2656 
Q 3513 2228 3513 1497 
Q 3513 744 3044 326 
Q 2575 -91 1722 -91 
Q 1428 -91 1123 -41 
Q 819 9 494 109 
L 494 744 
Q 775 591 1075 516 
Q 1375 441 1709 441 
Q 2250 441 2565 725 
Q 2881 1009 2881 1497 
Q 2881 1984 2565 2268 
Q 2250 2553 1709 2553 
Q 1456 2553 1204 2497 
Q 953 2441 691 2322 
L 691 4666 
z
" transform="scale(0.015625)"/>
       <path id="DejaVuSans-33" d="M 2597 2516 
Q 3050 2419 3304 2112 
Q 3559 1806 3559 1356 
Q 3559 666 3084 287 
Q 2609 -91 1734 -91 
Q 1441 -91 1130 -33 
Q 819 25 488 141 
L 488 750 
Q 750 597 1062 519 
Q 1375 441 1716 441 
Q 2309 441 2620 675 
Q 2931 909 2931 1356 
Q 2931 1769 2642 2001 
Q 2353 2234 1838 2234 
L 1294 2234 
L 1294 2753 
L 1863 2753 
Q 2328 2753 2575 2939 
Q 2822 3125 2822 3475 
Q 2822 3834 2567 4026 
Q 2313 4219 1838 4219 
Q 1578 4219 1281 4162 
Q 984 4106 628 3988 
L 628 4550 
Q 988 4650 1302 4700 
Q 1616 4750 1894 4750 
Q 2613 4750 3031 4423 
Q 3450 4097 3450 3541 
Q 3450 3153 3228 2886 
Q 3006 2619 2597 2516 
z
" transform="scale(0.015625)"/>
      </defs>
      <use xlink:href="#DejaVuSans-45"/>
      <use xlink:href="#DejaVuSans-78" x="63.183594"/>
      <use xlink:href="#DejaVuSans-65" x="119.238281"/>
      <use xlink:href="#DejaVuSans-63" x="180.761719"/>
      <use xlink:href="#DejaVuSans-75" x="235.742188"/>
      <use xlink:href="#DejaVuSans-74" x="299.121094"/>
      <use xlink:href="#DejaVuSans-69" x="338.330078"/>
      <use xlink:href="#DejaVuSans-6f" x="366.113281"/>
      <use xlink:href="#DejaVuSans-6e" x="427.294922"/>
      <use xlink:href="#DejaVuSans-20" x="490.673828"/>
      <use xlink:href="#DejaVuSans-74" x="522.460938"/>
      <use xlink:href="#DejaVuSans-69" x="561.669922"/>
      <use xlink:href="#DejaVuSans-6d" x="589.453125"/>
      <use xlink:href="#DejaVuSans-65" x="686.865234"/>
      <use xlink:href="#DejaVuSans-20" x="748.388672"/>
      <use xlink:href="#DejaVuSans-62" x="780.175781"/>
      <use xlink:href="#DejaVuSans-65" x="843.652344"/>
      <use xlink:href="#DejaVuSans-74" x="905.175781"/>
      <use xlink:href="#DejaVuSans-77" x="944.384766"/>
      <use xlink:href="#DejaVuSans-65" x="1026.171875"/>
      <use xlink:href="#DejaVuSans-65" x="1087.695312"/>
      <use xlink:href="#DejaVuSans-6e" x="1149.21875"/>
      <use xlink:href="#DejaVuSans-20" x="1212.597656"/>
      <use xlink:href="#DejaVuSans-53" x="1244.384766"/>
      <use xlink:href="#DejaVuSans-31" x="1307.861328"/>
      <use xlink:href="#DejaVuSans-30" x="1371.484375"/>
      <use xlink:href="#DejaVuSans-20" x="1435.107422"/>
      <use xlink:href="#DejaVuSans-53" x="1466.894531"/>
      <use xlink:href="#DejaVuSans-31" x="1530.371094"/>
      <use xlink:href="#DejaVuSans-32" x="1593.994141"/>
      <use xlink:href="#DejaVuSans-20" x="1657.617188"/>
      <use xlink:href="#DejaVuSans-28" x="1689.404297"/>
      <use xlink:href="#DejaVuSans-78" x="1728.417969"/>
      <use xlink:href="#DejaVuSans-78" x="1787.597656"/>
      <use xlink:href="#DejaVuSans-31" x="1846.777344"/>
      <use xlink:href="#DejaVuSans-78" x="1910.400391"/>
      <use xlink:href="#DejaVuSans-78" x="1969.580078"/>
      <use xlink:href="#DejaVuSans-31" x="2028.759766"/>
      <use xlink:href="#DejaVuSans-78" x="2092.382812"/>
      <use xlink:href="#DejaVuSans-78" x="2151.5625"/>
      <use xlink:href="#DejaVuSans-32" x="2210.742188"/>
      <use xlink:href="#DejaVuSans-78" x="2274.365234"/>
      <use xlink:href="#DejaVuSans-78" x="2333.544922"/>
      <use xlink:href="#DejaVuSans-30" x="2392.724609"/>
      <use xlink:href="#DejaVuSans-79" x="2456.347656"/>
      <use xlink:href="#DejaVuSans-79" x="2515.527344"/>
      <use xlink:href="#DejaVuSans-79" x="2574.707031"/>
      <use xlink:href="#DejaVuSans-36" x="2633.886719"/>
      <use xlink:href="#DejaVuSans-36" x="2697.509766"/>
      <use xlink:href="#DejaVuSans-78" x="2761.132812"/>
      <use xlink:href="#DejaVuSans-78" x="2820.3125"/>
      <use xlink:href="#DejaVuSans-30" x="2879.492188"/>
      <use xlink:href="#DejaVuSans-79" x="2943.115234"/>
      <use xlink:href="#DejaVuSans-79" x="3002.294922"/>
      <use xlink:href="#DejaVuSans-79" x="3061.474609"/>
      <use xlink:href="#DejaVuSans-36" x="3120.654297"/>
      <use xlink:href="#DejaVuSans-36" x="3184.277344"/>
      <use xlink:href="#DejaVuSans-78" x="3247.900391"/>
      <use xlink:href="#DejaVuSans-78" x="3307.080078"/>
      <use xlink:href="#DejaVuSans-31" x="3366.259766"/>
      <use xlink:href="#DejaVuSans-79" x="3429.882812"/>
      <use xlink:href="#DejaVuSans-79" x="3489.0625"/>
      <use xlink:href="#DejaVuSans-79" x="3548.242188"/>
      <use xlink:href="#DejaVuSans-35" x="3607.421875"/>
      <use xlink:href="#DejaVuSans-78" x="3671.044922"/>
      <use xlink:href="#DejaVuSans-78" x="3730.224609"/>
      <use xlink:href="#DejaVuSans-30" x="3789.404297"/>
      <use xlink:href="#DejaVuSans-79" x="3853.027344"/>
      <use xlink:href="#DejaVuSans-79" x="3912.207031"/>
      <use xlink:href="#DejaVuSans-79" x="3971.386719"/>
      <use xlink:href="#DejaVuSans-33" x="4030.566406"/>
      <use xlink:href="#DejaVuSans-78" x="4094.189453"/>
      <use xlink:href="#DejaVuSans-78" x="4153.369141"/>
      <use xlink:href="#DejaVuSans-31" x="4212.548828"/>
      <use xlink:href="#DejaVuSans-78" x="4276.171875"/>
      <use xlink:href="#DejaVuSans-78" x="4335.351562"/>
      <use xlink:href="#DejaVuSans-31" x="4394.53125"/>
      <use xlink:href="#DejaVuSans-79" x="4458.154297"/>
      <use xlink:href="#DejaVuSans-79" x="4517.333984"/>
      <use xlink:href="#DejaVuSans-79" x="4576.513672"/>
      <use xlink:href="#DejaVuSans-35" x="4635.693359"/>
      <use xlink:href="#DejaVuSans-29" x="4699.316406"/>
     </g>
    </g>
   </g>
  </g>
 </g>
 <defs>
  <clipPath id="p629c0fba0e">
   <rect x="57.6" y="41.472" width="357.12" height="266.112"/>
  </clipPath>
 </defs>
</svg>
