<?xml version="1.0" encoding="utf-8" standalone="no"?>
<!DOCTYPE svg PUBLIC "-//W3C//DTD SVG 1.1//EN"
  "http://www.w3.org/Graphics/SVG/1.1/DTD/svg11.dtd">
<svg xmlns:xlink="http://www.w3.org/1999/xlink" width="460.8pt" height="345.6pt" viewBox="0 0 460.8 345.6" xmlns="http://www.w3.org/2000/svg" version="1.1">
 <metadata>
  <rdf:RDF xmlns:dc="http://purl.org/dc/elements/1.1/" xmlns:cc="http://creativecommons.org/ns#" xmlns:rdf="http://www.w3.org/1999/02/22-rdf-syntax-ns#">
   <cc:Work>
    <dc:type rdf:resource="http://purl.org/dc/dcmitype/StillImage"/>
    <dc:date>2024-03-08T12:51:14.169210</dc:date>
    <dc:format>image/svg+xml</dc:format>
    <dc:creator>
     <cc:Agent>
      <dc:title>Matplotlib v3.8.2, https://matplotlib.org/</dc:title>
     </cc:Agent>
    </dc:creator>
   </cc:Work>
  </rdf:RDF>
 </metadata>
 <defs>
  <style type="text/css">*{stroke-linejoin: round; stroke-linecap: butt}</style>
 </defs>
 <g id="figure_1">
  <g id="patch_1">
   <path d="M 0 345.6 
L 460.8 345.6 
L 460.8 0 
L 0 0 
z
" style="fill: #ffffff"/>
  </g>
  <g id="axes_1">
   <g id="patch_2">
    <path d="M 57.6 307.584 
L 414.72 307.584 
L 414.72 41.472 
L 57.6 41.472 
z
" style="fill: #ffffff"/>
   </g>
   <g id="matplotlib.axis_1">
    <g id="xtick_1">
     <g id="line2d_1">
      <defs>
       <path id="m46924f8520" d="M 0 0 
L 0 3.5 
" style="stroke: #000000; stroke-width: 0.8"/>
      </defs>
      <g>
       <use xlink:href="#m46924f8520" x="73.327811" y="307.584" style="stroke: #000000; stroke-width: 0.8"/>
      </g>
     </g>
     <g id="text_1">
      <!-- 0.0 -->
      <g transform="translate(65.376249 322.182437) scale(0.1 -0.1)">
       <defs>
        <path id="DejaVuSans-30" d="M 2034 4250 
Q 1547 4250 1301 3770 
Q 1056 3291 1056 2328 
Q 1056 1369 1301 889 
Q 1547 409 2034 409 
Q 2525 409 2770 889 
Q 3016 1369 3016 2328 
Q 3016 3291 2770 3770 
Q 2525 4250 2034 4250 
z
M 2034 4750 
Q 2819 4750 3233 4129 
Q 3647 3509 3647 2328 
Q 3647 1150 3233 529 
Q 2819 -91 2034 -91 
Q 1250 -91 836 529 
Q 422 1150 422 2328 
Q 422 3509 836 4129 
Q 1250 4750 2034 4750 
z
" transform="scale(0.015625)"/>
        <path id="DejaVuSans-2e" d="M 684 794 
L 1344 794 
L 1344 0 
L 684 0 
L 684 794 
z
" transform="scale(0.015625)"/>
       </defs>
       <use xlink:href="#DejaVuSans-30"/>
       <use xlink:href="#DejaVuSans-2e" x="63.623047"/>
       <use xlink:href="#DejaVuSans-30" x="95.410156"/>
      </g>
     </g>
    </g>
    <g id="xtick_2">
     <g id="line2d_2">
      <g>
       <use xlink:href="#m46924f8520" x="118.490228" y="307.584" style="stroke: #000000; stroke-width: 0.8"/>
      </g>
     </g>
     <g id="text_2">
      <!-- 0.5 -->
      <g transform="translate(110.538665 322.182437) scale(0.1 -0.1)">
       <defs>
        <path id="DejaVuSans-35" d="M 691 4666 
L 3169 4666 
L 3169 4134 
L 1269 4134 
L 1269 2991 
Q 1406 3038 1543 3061 
Q 1681 3084 1819 3084 
Q 2600 3084 3056 2656 
Q 3513 2228 3513 1497 
Q 3513 744 3044 326 
Q 2575 -91 1722 -91 
Q 1428 -91 1123 -41 
Q 819 9 494 109 
L 494 744 
Q 775 591 1075 516 
Q 1375 441 1709 441 
Q 2250 441 2565 725 
Q 2881 1009 2881 1497 
Q 2881 1984 2565 2268 
Q 2250 2553 1709 2553 
Q 1456 2553 1204 2497 
Q 953 2441 691 2322 
L 691 4666 
z
" transform="scale(0.015625)"/>
       </defs>
       <use xlink:href="#DejaVuSans-30"/>
       <use xlink:href="#DejaVuSans-2e" x="63.623047"/>
       <use xlink:href="#DejaVuSans-35" x="95.410156"/>
      </g>
     </g>
    </g>
    <g id="xtick_3">
     <g id="line2d_3">
      <g>
       <use xlink:href="#m46924f8520" x="163.652644" y="307.584" style="stroke: #000000; stroke-width: 0.8"/>
      </g>
     </g>
     <g id="text_3">
      <!-- 1.0 -->
      <g transform="translate(155.701081 322.182437) scale(0.1 -0.1)">
       <defs>
        <path id="DejaVuSans-31" d="M 794 531 
L 1825 531 
L 1825 4091 
L 703 3866 
L 703 4441 
L 1819 4666 
L 2450 4666 
L 2450 531 
L 3481 531 
L 3481 0 
L 794 0 
L 794 531 
z
" transform="scale(0.015625)"/>
       </defs>
       <use xlink:href="#DejaVuSans-31"/>
       <use xlink:href="#DejaVuSans-2e" x="63.623047"/>
       <use xlink:href="#DejaVuSans-30" x="95.410156"/>
      </g>
     </g>
    </g>
    <g id="xtick_4">
     <g id="line2d_4">
      <g>
       <use xlink:href="#m46924f8520" x="208.81506" y="307.584" style="stroke: #000000; stroke-width: 0.8"/>
      </g>
     </g>
     <g id="text_4">
      <!-- 1.5 -->
      <g transform="translate(200.863498 322.182437) scale(0.1 -0.1)">
       <use xlink:href="#DejaVuSans-31"/>
       <use xlink:href="#DejaVuSans-2e" x="63.623047"/>
       <use xlink:href="#DejaVuSans-35" x="95.410156"/>
      </g>
     </g>
    </g>
    <g id="xtick_5">
     <g id="line2d_5">
      <g>
       <use xlink:href="#m46924f8520" x="253.977476" y="307.584" style="stroke: #000000; stroke-width: 0.8"/>
      </g>
     </g>
     <g id="text_5">
      <!-- 2.0 -->
      <g transform="translate(246.025914 322.182437) scale(0.1 -0.1)">
       <defs>
        <path id="DejaVuSans-32" d="M 1228 531 
L 3431 531 
L 3431 0 
L 469 0 
L 469 531 
Q 828 903 1448 1529 
Q 2069 2156 2228 2338 
Q 2531 2678 2651 2914 
Q 2772 3150 2772 3378 
Q 2772 3750 2511 3984 
Q 2250 4219 1831 4219 
Q 1534 4219 1204 4116 
Q 875 4013 500 3803 
L 500 4441 
Q 881 4594 1212 4672 
Q 1544 4750 1819 4750 
Q 2544 4750 2975 4387 
Q 3406 4025 3406 3419 
Q 3406 3131 3298 2873 
Q 3191 2616 2906 2266 
Q 2828 2175 2409 1742 
Q 1991 1309 1228 531 
z
" transform="scale(0.015625)"/>
       </defs>
       <use xlink:href="#DejaVuSans-32"/>
       <use xlink:href="#DejaVuSans-2e" x="63.623047"/>
       <use xlink:href="#DejaVuSans-30" x="95.410156"/>
      </g>
     </g>
    </g>
    <g id="xtick_6">
     <g id="line2d_6">
      <g>
       <use xlink:href="#m46924f8520" x="299.139893" y="307.584" style="stroke: #000000; stroke-width: 0.8"/>
      </g>
     </g>
     <g id="text_6">
      <!-- 2.5 -->
      <g transform="translate(291.18833 322.182437) scale(0.1 -0.1)">
       <use xlink:href="#DejaVuSans-32"/>
       <use xlink:href="#DejaVuSans-2e" x="63.623047"/>
       <use xlink:href="#DejaVuSans-35" x="95.410156"/>
      </g>
     </g>
    </g>
    <g id="xtick_7">
     <g id="line2d_7">
      <g>
       <use xlink:href="#m46924f8520" x="344.302309" y="307.584" style="stroke: #000000; stroke-width: 0.8"/>
      </g>
     </g>
     <g id="text_7">
      <!-- 3.0 -->
      <g transform="translate(336.350746 322.182437) scale(0.1 -0.1)">
       <defs>
        <path id="DejaVuSans-33" d="M 2597 2516 
Q 3050 2419 3304 2112 
Q 3559 1806 3559 1356 
Q 3559 666 3084 287 
Q 2609 -91 1734 -91 
Q 1441 -91 1130 -33 
Q 819 25 488 141 
L 488 750 
Q 750 597 1062 519 
Q 1375 441 1716 441 
Q 2309 441 2620 675 
Q 2931 909 2931 1356 
Q 2931 1769 2642 2001 
Q 2353 2234 1838 2234 
L 1294 2234 
L 1294 2753 
L 1863 2753 
Q 2328 2753 2575 2939 
Q 2822 3125 2822 3475 
Q 2822 3834 2567 4026 
Q 2313 4219 1838 4219 
Q 1578 4219 1281 4162 
Q 984 4106 628 3988 
L 628 4550 
Q 988 4650 1302 4700 
Q 1616 4750 1894 4750 
Q 2613 4750 3031 4423 
Q 3450 4097 3450 3541 
Q 3450 3153 3228 2886 
Q 3006 2619 2597 2516 
z
" transform="scale(0.015625)"/>
       </defs>
       <use xlink:href="#DejaVuSans-33"/>
       <use xlink:href="#DejaVuSans-2e" x="63.623047"/>
       <use xlink:href="#DejaVuSans-30" x="95.410156"/>
      </g>
     </g>
    </g>
    <g id="xtick_8">
     <g id="line2d_8">
      <g>
       <use xlink:href="#m46924f8520" x="389.464725" y="307.584" style="stroke: #000000; stroke-width: 0.8"/>
      </g>
     </g>
     <g id="text_8">
      <!-- 3.5 -->
      <g transform="translate(381.513163 322.182437) scale(0.1 -0.1)">
       <use xlink:href="#DejaVuSans-33"/>
       <use xlink:href="#DejaVuSans-2e" x="63.623047"/>
       <use xlink:href="#DejaVuSans-35" x="95.410156"/>
      </g>
     </g>
    </g>
    <g id="text_9">
     <!-- 1e6 -->
     <g transform="translate(395.841875 334.860562) scale(0.1 -0.1)">
      <defs>
       <path id="DejaVuSans-65" d="M 3597 1894 
L 3597 1613 
L 953 1613 
Q 991 1019 1311 708 
Q 1631 397 2203 397 
Q 2534 397 2845 478 
Q 3156 559 3463 722 
L 3463 178 
Q 3153 47 2828 -22 
Q 2503 -91 2169 -91 
Q 1331 -91 842 396 
Q 353 884 353 1716 
Q 353 2575 817 3079 
Q 1281 3584 2069 3584 
Q 2775 3584 3186 3129 
Q 3597 2675 3597 1894 
z
M 3022 2063 
Q 3016 2534 2758 2815 
Q 2500 3097 2075 3097 
Q 1594 3097 1305 2825 
Q 1016 2553 972 2059 
L 3022 2063 
z
" transform="scale(0.015625)"/>
       <path id="DejaVuSans-36" d="M 2113 2584 
Q 1688 2584 1439 2293 
Q 1191 2003 1191 1497 
Q 1191 994 1439 701 
Q 1688 409 2113 409 
Q 2538 409 2786 701 
Q 3034 994 3034 1497 
Q 3034 2003 2786 2293 
Q 2538 2584 2113 2584 
z
M 3366 4563 
L 3366 3988 
Q 3128 4100 2886 4159 
Q 2644 4219 2406 4219 
Q 1781 4219 1451 3797 
Q 1122 3375 1075 2522 
Q 1259 2794 1537 2939 
Q 1816 3084 2150 3084 
Q 2853 3084 3261 2657 
Q 3669 2231 3669 1497 
Q 3669 778 3244 343 
Q 2819 -91 2113 -91 
Q 1303 -91 875 529 
Q 447 1150 447 2328 
Q 447 3434 972 4092 
Q 1497 4750 2381 4750 
Q 2619 4750 2861 4703 
Q 3103 4656 3366 4563 
z
" transform="scale(0.015625)"/>
      </defs>
      <use xlink:href="#DejaVuSans-31"/>
      <use xlink:href="#DejaVuSans-65" x="63.623047"/>
      <use xlink:href="#DejaVuSans-36" x="125.146484"/>
     </g>
    </g>
   </g>
   <g id="matplotlib.axis_2">
    <g id="ytick_1">
     <g id="line2d_9">
      <defs>
       <path id="m0d4c07aa3a" d="M 0 0 
L -3.5 0 
" style="stroke: #000000; stroke-width: 0.8"/>
      </defs>
      <g>
       <use xlink:href="#m0d4c07aa3a" x="57.6" y="295.488" style="stroke: #000000; stroke-width: 0.8"/>
      </g>
     </g>
     <g id="text_10">
      <!-- 0.0 -->
      <g transform="translate(34.696875 299.287219) scale(0.1 -0.1)">
       <use xlink:href="#DejaVuSans-30"/>
       <use xlink:href="#DejaVuSans-2e" x="63.623047"/>
       <use xlink:href="#DejaVuSans-30" x="95.410156"/>
      </g>
     </g>
    </g>
    <g id="ytick_2">
     <g id="line2d_10">
      <g>
       <use xlink:href="#m0d4c07aa3a" x="57.6" y="261.888" style="stroke: #000000; stroke-width: 0.8"/>
      </g>
     </g>
     <g id="text_11">
      <!-- 2.5 -->
      <g transform="translate(34.696875 265.687219) scale(0.1 -0.1)">
       <use xlink:href="#DejaVuSans-32"/>
       <use xlink:href="#DejaVuSans-2e" x="63.623047"/>
       <use xlink:href="#DejaVuSans-35" x="95.410156"/>
      </g>
     </g>
    </g>
    <g id="ytick_3">
     <g id="line2d_11">
      <g>
       <use xlink:href="#m0d4c07aa3a" x="57.6" y="228.288" style="stroke: #000000; stroke-width: 0.8"/>
      </g>
     </g>
     <g id="text_12">
      <!-- 5.0 -->
      <g transform="translate(34.696875 232.087219) scale(0.1 -0.1)">
       <use xlink:href="#DejaVuSans-35"/>
       <use xlink:href="#DejaVuSans-2e" x="63.623047"/>
       <use xlink:href="#DejaVuSans-30" x="95.410156"/>
      </g>
     </g>
    </g>
    <g id="ytick_4">
     <g id="line2d_12">
      <g>
       <use xlink:href="#m0d4c07aa3a" x="57.6" y="194.688" style="stroke: #000000; stroke-width: 0.8"/>
      </g>
     </g>
     <g id="text_13">
      <!-- 7.5 -->
      <g transform="translate(34.696875 198.487219) scale(0.1 -0.1)">
       <defs>
        <path id="DejaVuSans-37" d="M 525 4666 
L 3525 4666 
L 3525 4397 
L 1831 0 
L 1172 0 
L 2766 4134 
L 525 4134 
L 525 4666 
z
" transform="scale(0.015625)"/>
       </defs>
       <use xlink:href="#DejaVuSans-37"/>
       <use xlink:href="#DejaVuSans-2e" x="63.623047"/>
       <use xlink:href="#DejaVuSans-35" x="95.410156"/>
      </g>
     </g>
    </g>
    <g id="ytick_5">
     <g id="line2d_13">
      <g>
       <use xlink:href="#m0d4c07aa3a" x="57.6" y="161.088" style="stroke: #000000; stroke-width: 0.8"/>
      </g>
     </g>
     <g id="text_14">
      <!-- 10.0 -->
      <g transform="translate(28.334375 164.887219) scale(0.1 -0.1)">
       <use xlink:href="#DejaVuSans-31"/>
       <use xlink:href="#DejaVuSans-30" x="63.623047"/>
       <use xlink:href="#DejaVuSans-2e" x="127.246094"/>
       <use xlink:href="#DejaVuSans-30" x="159.033203"/>
      </g>
     </g>
    </g>
    <g id="ytick_6">
     <g id="line2d_14">
      <g>
       <use xlink:href="#m0d4c07aa3a" x="57.6" y="127.488" style="stroke: #000000; stroke-width: 0.8"/>
      </g>
     </g>
     <g id="text_15">
      <!-- 12.5 -->
      <g transform="translate(28.334375 131.287219) scale(0.1 -0.1)">
       <use xlink:href="#DejaVuSans-31"/>
       <use xlink:href="#DejaVuSans-32" x="63.623047"/>
       <use xlink:href="#DejaVuSans-2e" x="127.246094"/>
       <use xlink:href="#DejaVuSans-35" x="159.033203"/>
      </g>
     </g>
    </g>
    <g id="ytick_7">
     <g id="line2d_15">
      <g>
       <use xlink:href="#m0d4c07aa3a" x="57.6" y="93.888" style="stroke: #000000; stroke-width: 0.8"/>
      </g>
     </g>
     <g id="text_16">
      <!-- 15.0 -->
      <g transform="translate(28.334375 97.687219) scale(0.1 -0.1)">
       <use xlink:href="#DejaVuSans-31"/>
       <use xlink:href="#DejaVuSans-35" x="63.623047"/>
       <use xlink:href="#DejaVuSans-2e" x="127.246094"/>
       <use xlink:href="#DejaVuSans-30" x="159.033203"/>
      </g>
     </g>
    </g>
    <g id="ytick_8">
     <g id="line2d_16">
      <g>
       <use xlink:href="#m0d4c07aa3a" x="57.6" y="60.288" style="stroke: #000000; stroke-width: 0.8"/>
      </g>
     </g>
     <g id="text_17">
      <!-- 17.5 -->
      <g transform="translate(28.334375 64.087219) scale(0.1 -0.1)">
       <use xlink:href="#DejaVuSans-31"/>
       <use xlink:href="#DejaVuSans-37" x="63.623047"/>
       <use xlink:href="#DejaVuSans-2e" x="127.246094"/>
       <use xlink:href="#DejaVuSans-35" x="159.033203"/>
      </g>
     </g>
    </g>
   </g>
   <g id="line2d_17">
    <path d="M 73.832727 282.048 
L 74.022409 295.488 
L 74.147961 282.048 
L 74.338546 295.488 
L 74.462291 282.048 
L 74.652877 295.488 
L 74.777525 282.048 
L 74.96811 295.488 
L 75.099081 282.048 
L 75.289667 295.488 
L 75.414315 282.048 
L 75.603997 295.488 
L 75.727742 282.048 
L 75.918328 295.488 
L 76.042073 282.048 
L 76.231755 295.488 
L 76.362726 282.048 
L 76.553311 295.488 
L 76.681572 282.048 
L 76.871255 295.488 
L 76.997709 282.048 
L 77.188295 295.488 
L 77.31475 282.048 
L 77.505335 295.488 
L 77.633596 282.048 
L 77.824182 295.488 
L 77.953346 282.048 
L 78.143932 295.488 
L 78.273096 282.048 
L 78.463681 295.488 
L 78.584717 282.048 
L 78.775302 295.488 
L 84.323957 282.048 
L 84.445895 241.728 
L 84.63919 187.968 
L 84.829776 295.488 
L 84.913778 282.048 
L 85.10346 295.488 
L 85.221785 282.048 
L 85.412371 295.488 
L 85.537922 282.048 
L 85.728508 295.488 
L 85.849543 282.048 
L 86.040128 295.488 
L 86.16839 282.048 
L 86.358975 295.488 
L 86.483623 282.048 
L 86.674209 295.488 
L 86.798857 282.048 
L 86.989442 295.488 
L 87.11951 282.048 
L 87.310096 295.488 
L 87.431131 282.048 
L 87.620813 295.488 
L 87.746364 282.048 
L 87.93695 295.488 
L 88.056179 282.048 
L 88.246764 295.488 
L 88.370509 282.048 
L 88.561094 295.488 
L 88.691162 282.048 
L 88.881748 295.488 
L 89.00188 282.048 
L 89.192465 295.488 
L 89.3135 282.048 
L 89.504086 295.488 
L 89.634153 282.048 
L 89.824739 295.488 
L 89.953903 282.048 
L 90.144489 295.488 
L 90.274557 282.048 
L 90.465142 295.488 
L 90.582564 282.048 
L 90.77315 295.488 
L 90.905927 282.048 
L 91.096513 295.488 
L 91.220258 282.048 
L 91.410843 295.488 
L 91.54362 282.048 
L 91.734206 295.488 
L 91.857951 282.048 
L 92.048536 295.488 
L 92.170475 282.048 
L 92.36106 295.488 
L 92.481192 282.048 
L 92.671778 295.488 
L 92.796426 282.048 
L 92.986108 295.488 
L 93.11166 282.048 
L 93.301342 295.488 
L 93.422377 282.048 
L 93.612962 295.488 
L 93.736707 282.048 
L 93.927293 295.488 
L 94.056457 282.048 
L 94.247043 295.488 
L 94.375304 282.048 
L 94.565889 295.488 
L 94.688731 282.048 
L 94.879316 295.488 
L 95.003062 282.048 
L 95.193647 295.488 
L 95.318295 282.048 
L 95.508881 295.488 
L 95.637142 282.048 
L 95.827727 295.488 
L 95.950569 282.048 
L 96.141154 295.488 
L 96.268512 282.048 
L 96.459098 295.488 
L 96.589166 282.048 
L 96.779751 295.488 
L 96.899883 282.048 
L 97.090468 295.488 
L 97.21331 282.048 
L 97.402992 295.488 
L 97.528544 282.048 
L 97.719129 295.488 
L 97.837455 282.048 
L 98.159011 268.608 
L 98.349597 295.488 
L 98.467922 282.048 
L 98.658507 295.488 
L 98.791285 282.048 
L 98.98187 295.488 
L 99.113745 282.048 
L 99.30433 295.488 
L 99.435301 282.048 
L 99.625886 295.488 
L 99.756857 282.048 
L 99.947443 295.488 
L 100.070285 282.048 
L 100.26087 295.488 
L 100.387325 282.048 
L 100.577007 295.488 
L 100.707978 282.048 
L 101.025018 268.608 
L 101.215603 295.488 
L 101.340252 282.048 
L 101.530837 295.488 
L 101.650969 282.048 
L 101.841555 295.488 
L 101.9653 282.048 
L 102.155885 295.488 
L 102.281437 282.048 
L 102.472022 295.488 
L 102.59667 282.048 
L 102.787256 295.488 
L 102.912807 282.048 
L 103.103392 295.488 
L 103.228944 282.048 
L 103.419529 295.488 
L 103.546887 282.048 
L 103.737473 295.488 
L 103.863024 282.048 
L 104.05361 295.488 
L 104.183677 282.048 
L 104.37336 295.488 
L 104.498911 282.048 
L 104.689497 295.488 
L 104.810532 282.048 
L 105.001117 295.488 
L 105.119443 282.048 
L 105.310028 295.488 
L 105.438289 282.048 
L 105.627972 295.488 
L 105.751717 282.048 
L 105.942302 295.488 
L 106.07237 282.048 
L 106.262955 295.488 
L 106.390313 282.048 
L 106.580899 295.488 
L 106.710063 282.048 
L 106.900648 295.488 
L 107.0262 282.048 
L 107.216785 295.488 
L 107.337821 282.048 
L 107.528406 295.488 
L 107.653054 282.048 
L 107.84364 295.488 
L 107.971901 282.048 
L 108.162486 295.488 
L 108.285328 282.048 
L 108.47501 295.488 
L 108.597852 282.048 
L 108.788437 295.488 
L 108.908569 282.048 
L 109.099155 295.488 
L 109.227416 282.048 
L 109.417098 295.488 
L 109.53994 282.048 
L 109.730525 295.488 
L 109.85969 282.048 
L 110.050275 295.488 
L 110.177633 282.048 
L 110.368219 295.488 
L 111.072752 282.048 
L 111.261531 295.488 
L 111.294952 282.048 
L 111.482827 295.488 
L 111.52257 282.048 
L 111.711349 295.488 
L 111.745672 282.048 
L 111.934451 295.488 
L 111.973291 282.048 
L 112.161167 295.488 
L 112.197297 282.048 
L 112.386076 295.488 
L 112.418592 282.048 
L 112.606468 295.488 
L 112.641695 282.048 
L 112.82957 295.488 
L 112.863894 282.048 
L 113.05177 295.488 
L 113.086996 282.048 
L 113.275775 295.488 
L 113.318228 282.048 
L 113.506103 295.488 
L 113.544943 282.048 
L 113.733722 295.488 
L 113.775271 282.048 
L 113.963147 295.488 
L 114.001084 282.048 
L 114.188959 295.488 
L 114.230509 282.048 
L 114.419288 295.488 
L 114.459934 282.048 
L 114.647809 295.488 
L 114.684843 282.048 
L 114.873621 295.488 
L 114.911558 282.048 
L 115.099433 295.488 
L 115.136467 282.048 
L 115.325246 295.488 
L 115.364989 282.048 
L 115.553767 295.488 
L 115.591704 282.048 
L 115.779579 295.488 
L 115.815709 282.048 
L 116.004488 295.488 
L 116.041521 282.048 
L 116.229397 295.488 
L 116.27185 282.048 
L 116.459725 295.488 
L 116.494952 282.048 
L 116.682828 295.488 
L 116.718958 282.048 
L 119.659031 107.328 
L 127.529937 120.768 
L 127.638327 107.328 
L 127.723232 161.088 
L 127.753943 134.208 
L 127.915624 53.568 
L 127.927366 67.008 
L 128.035756 134.208 
L 128.040272 120.768 
L 128.228148 295.488 
L 128.265181 282.048 
L 128.453057 295.488 
L 128.489187 282.048 
L 128.677062 295.488 
L 128.714999 282.048 
L 128.902874 295.488 
L 128.939908 282.048 
L 129.128686 295.488 
L 129.170236 282.048 
L 129.359015 295.488 
L 129.395145 282.048 
L 129.583924 295.488 
L 129.620957 282.048 
L 129.808832 295.488 
L 129.846769 282.048 
L 130.035548 295.488 
L 130.070774 282.048 
L 130.259553 295.488 
L 130.295683 282.048 
L 130.484462 295.488 
L 130.516076 282.048 
L 130.704855 295.488 
L 130.741888 282.048 
L 130.929764 295.488 
L 130.96499 282.048 
L 131.153769 295.488 
L 131.191706 282.048 
L 131.380485 295.488 
L 131.419324 282.048 
L 131.6072 295.488 
L 131.644233 282.048 
L 131.833012 295.488 
L 131.872755 282.048 
L 132.061534 295.488 
L 132.092244 282.048 
L 132.28012 295.488 
L 132.317153 282.048 
L 132.505932 295.488 
L 132.544772 282.048 
L 132.768777 268.608 
L 132.927749 282.048 
L 132.956653 295.488 
L 132.999106 282.048 
L 133.187884 295.488 
L 133.220401 282.048 
L 133.408277 295.488 
L 133.440794 282.048 
L 133.629573 295.488 
L 133.66209 282.048 
L 133.850869 295.488 
L 133.893321 282.048 
L 134.081197 295.488 
L 134.119133 282.048 
L 134.307912 295.488 
L 134.347655 282.048 
L 134.536434 295.488 
L 134.57708 282.048 
L 134.765859 295.488 
L 134.807409 282.048 
L 134.995284 295.488 
L 135.028705 282.048 
L 135.217483 295.488 
L 135.256323 282.048 
L 135.444199 295.488 
L 135.488458 282.048 
L 135.677237 295.488 
L 135.71698 282.048 
L 135.905759 295.488 
L 135.940985 282.048 
L 136.129764 295.488 
L 136.169507 282.048 
L 136.357383 295.488 
L 136.397126 282.048 
L 136.585905 295.488 
L 136.618422 282.048 
L 136.806297 295.488 
L 136.841524 282.048 
L 137.030303 295.488 
L 137.066433 282.048 
L 137.254308 295.488 
L 137.287729 282.048 
L 137.476508 295.488 
L 137.512637 282.048 
L 137.700513 295.488 
L 137.739353 282.048 
L 137.927228 295.488 
L 137.966971 282.048 
L 138.154847 295.488 
L 138.192783 282.048 
L 138.381562 295.488 
L 138.418596 282.048 
L 138.607374 295.488 
L 138.644408 282.048 
L 138.833186 295.488 
L 138.872929 282.048 
L 139.061708 295.488 
L 139.098741 282.048 
L 139.28752 295.488 
L 139.32907 282.048 
L 139.517849 295.488 
L 139.554882 282.048 
L 139.742758 295.488 
L 139.786113 282.048 
L 139.974892 295.488 
L 140.010119 282.048 
L 140.198898 295.488 
L 140.233221 282.048 
L 140.421097 295.488 
L 140.46355 282.048 
L 140.651425 295.488 
L 140.686652 282.048 
L 140.874528 295.488 
L 140.908851 282.048 
L 141.09763 295.488 
L 141.130147 282.048 
L 141.318926 295.488 
L 141.359572 282.048 
L 141.548351 295.488 
L 141.585384 282.048 
L 141.774163 295.488 
L 141.813906 282.048 
L 142.001782 295.488 
L 142.035202 282.048 
L 142.223981 295.488 
L 142.258304 282.048 
L 142.447083 295.488 
L 142.484116 282.048 
L 142.671992 295.488 
L 142.708122 282.048 
L 142.895997 295.488 
L 142.937547 282.048 
L 143.125423 295.488 
L 143.166972 282.048 
L 143.355751 295.488 
L 143.390978 282.048 
L 143.578853 295.488 
L 143.620403 282.048 
L 143.809182 295.488 
L 143.848021 282.048 
L 144.0368 295.488 
L 144.074737 282.048 
L 144.263515 295.488 
L 144.305968 282.048 
L 144.493844 295.488 
L 144.52907 282.048 
L 144.717849 295.488 
L 144.753979 282.048 
L 144.942758 295.488 
L 144.986114 282.048 
L 145.17399 295.488 
L 145.2047 282.048 
L 145.393479 295.488 
L 145.434125 282.048 
L 145.622001 295.488 
L 145.665357 282.048 
L 145.853232 295.488 
L 145.894782 282.048 
L 146.083561 295.488 
L 146.119691 282.048 
L 146.30847 295.488 
L 146.345503 282.048 
L 146.533378 295.488 
L 146.570412 282.048 
L 146.758287 295.488 
L 146.799837 282.048 
L 146.988616 295.488 
L 147.026552 282.048 
L 147.215331 295.488 
L 147.253267 282.048 
L 147.441143 295.488 
L 147.482692 282.048 
L 147.670568 295.488 
L 147.710311 282.048 
L 147.89909 295.488 
L 147.936123 282.048 
L 148.124902 295.488 
L 148.161032 282.048 
L 148.349811 295.488 
L 148.383231 282.048 
L 148.57201 295.488 
L 148.607237 282.048 
L 148.795112 295.488 
L 148.833049 282.048 
L 149.021828 295.488 
L 149.061571 282.048 
L 149.249446 295.488 
L 149.290996 282.048 
L 149.478871 295.488 
L 149.520421 282.048 
L 149.7092 295.488 
L 149.746233 282.048 
L 149.935012 295.488 
L 149.970238 282.048 
L 150.158114 295.488 
L 150.194244 282.048 
L 150.383023 295.488 
L 150.417346 282.048 
L 150.605222 295.488 
L 150.647675 282.048 
L 150.836453 295.488 
L 150.8771 282.048 
L 151.065879 295.488 
L 151.108331 282.048 
L 151.29711 295.488 
L 151.332337 282.048 
L 151.520212 295.488 
L 151.556342 282.048 
L 151.745121 295.488 
L 151.780348 282.048 
L 151.969127 295.488 
L 152.012483 282.048 
L 152.201262 295.488 
L 152.235585 282.048 
L 152.423461 295.488 
L 152.460494 282.048 
L 152.649273 295.488 
L 152.68179 282.048 
L 152.908505 268.608 
L 153.064767 282.048 
L 153.096381 295.488 
L 153.136124 282.048 
L 153.323999 295.488 
L 153.363742 282.048 
L 153.552521 295.488 
L 153.593167 282.048 
L 153.781946 295.488 
L 153.822592 282.048 
L 154.011371 295.488 
L 154.052921 282.048 
L 154.240796 295.488 
L 154.276926 282.048 
L 154.464802 295.488 
L 154.508158 282.048 
L 154.696937 295.488 
L 154.73668 282.048 
L 154.924555 295.488 
L 154.961589 282.048 
L 155.149464 295.488 
L 155.183788 282.048 
L 155.371663 295.488 
L 155.411406 282.048 
L 155.600185 295.488 
L 155.636315 282.048 
L 155.825094 295.488 
L 155.859417 282.048 
L 156.048196 295.488 
L 156.083423 282.048 
L 156.271299 295.488 
L 156.307429 282.048 
L 156.496207 295.488 
L 156.531434 282.048 
L 156.720213 295.488 
L 156.759956 282.048 
L 156.948735 295.488 
L 156.988478 282.048 
L 157.176353 295.488 
L 157.21429 282.048 
L 157.403069 295.488 
L 157.438295 282.048 
L 157.626171 295.488 
L 157.656882 282.048 
L 157.84566 295.488 
L 157.882694 282.048 
L 158.070569 295.488 
L 158.103989 282.048 
L 158.292768 295.488 
L 158.330705 282.048 
L 158.51858 295.488 
L 158.551097 282.048 
L 158.738973 295.488 
L 158.779619 282.048 
L 158.968398 295.488 
L 159.003625 282.048 
L 159.192404 295.488 
L 159.228534 282.048 
L 159.417313 295.488 
L 159.448926 282.048 
L 159.637705 295.488 
L 159.672029 282.048 
L 159.859904 295.488 
L 159.90055 282.048 
L 160.088426 295.488 
L 160.125459 282.048 
L 160.314238 295.488 
L 160.357594 282.048 
L 160.546373 295.488 
L 160.579793 282.048 
L 160.768572 295.488 
L 160.807412 282.048 
L 160.996191 295.488 
L 161.030514 282.048 
L 161.219293 295.488 
L 161.25452 282.048 
L 161.443299 295.488 
L 161.475815 282.048 
L 161.664594 295.488 
L 161.703434 282.048 
L 161.892213 295.488 
L 161.92473 282.048 
L 162.113509 295.488 
L 162.145123 282.048 
L 162.332998 295.488 
L 162.371838 282.048 
L 162.559713 295.488 
L 162.59765 282.048 
L 162.786429 295.488 
L 162.827075 282.048 
L 163.015854 295.488 
L 163.051081 282.048 
L 163.239859 295.488 
L 163.27328 282.048 
L 163.462059 295.488 
L 163.502705 282.048 
L 163.69058 295.488 
L 163.724904 282.048 
L 163.912779 295.488 
L 163.956135 282.048 
L 164.144914 295.488 
L 164.181947 282.048 
L 164.369823 295.488 
L 164.411373 282.048 
L 164.600151 295.488 
L 164.637185 282.048 
L 164.825964 295.488 
L 164.867513 282.048 
L 165.056292 295.488 
L 165.096035 282.048 
L 165.28391 295.488 
L 165.319137 282.048 
L 165.507013 295.488 
L 165.544046 282.048 
L 165.731922 295.488 
L 165.768955 282.048 
L 165.95683 295.488 
L 165.992057 282.048 
L 166.180836 295.488 
L 166.216966 282.048 
L 166.405745 295.488 
L 166.444585 282.048 
L 166.63246 295.488 
L 166.6713 282.048 
L 166.859176 295.488 
L 166.891692 282.048 
L 167.080471 295.488 
L 167.117505 282.048 
L 167.306283 295.488 
L 167.343317 282.048 
L 167.532096 295.488 
L 167.567322 282.048 
L 167.755198 295.488 
L 167.789521 282.048 
L 167.977397 295.488 
L 168.009914 282.048 
L 168.19779 295.488 
L 168.238436 282.048 
L 168.426311 295.488 
L 168.466958 282.048 
L 168.655736 295.488 
L 168.694576 282.048 
L 168.882452 295.488 
L 168.923098 282.048 
L 169.111877 295.488 
L 169.150717 282.048 
L 169.339495 295.488 
L 169.371109 282.048 
L 169.559888 295.488 
L 169.599631 282.048 
L 169.78841 295.488 
L 169.826346 282.048 
L 170.015125 295.488 
L 170.055771 282.048 
L 170.24455 295.488 
L 170.28339 282.048 
L 170.471266 295.488 
L 170.505589 282.048 
L 170.693465 295.488 
L 170.731401 282.048 
L 170.954503 268.608 
L 171.114378 282.048 
L 171.143282 295.488 
L 171.184832 282.048 
L 171.372707 295.488 
L 171.408837 282.048 
L 171.596713 295.488 
L 171.632843 282.048 
L 171.821622 295.488 
L 171.853236 282.048 
L 172.041111 295.488 
L 172.076338 282.048 
L 172.264213 295.488 
L 172.300343 282.048 
L 172.488219 295.488 
L 172.524349 282.048 
L 172.713128 295.488 
L 172.751064 282.048 
L 172.939843 295.488 
L 172.982296 282.048 
L 173.170172 295.488 
L 173.206301 282.048 
L 173.39508 295.488 
L 173.43663 282.048 
L 173.624505 295.488 
L 173.662442 282.048 
L 173.850318 295.488 
L 173.890964 282.048 
L 174.078839 295.488 
L 174.114066 282.048 
L 174.301942 295.488 
L 174.341685 282.048 
L 174.52956 295.488 
L 174.5684 282.048 
L 174.756276 295.488 
L 174.789696 282.048 
L 174.978475 295.488 
L 175.016411 282.048 
L 175.20519 295.488 
L 175.237707 282.048 
L 175.426486 295.488 
L 175.460809 282.048 
L 175.649588 295.488 
L 175.689331 282.048 
L 175.877207 295.488 
L 175.909724 282.048 
L 176.097599 295.488 
L 176.132826 282.048 
L 176.320702 295.488 
L 176.359541 282.048 
L 176.547417 295.488 
L 176.582644 282.048 
L 176.770519 295.488 
L 176.807553 282.048 
L 176.995428 295.488 
L 177.037881 282.048 
L 177.22666 295.488 
L 177.259177 282.048 
L 177.447956 295.488 
L 178.577016 282.048 
L 178.766698 295.488 
L 178.885927 282.048 
L 179.076512 295.488 
L 179.196644 282.048 
L 179.386327 295.488 
L 179.511878 282.048 
L 179.702463 295.488 
L 179.829821 282.048 
L 180.020407 295.488 
L 180.145055 282.048 
L 180.335641 295.488 
L 180.471128 282.048 
L 180.661713 295.488 
L 180.782748 282.048 
L 180.973334 295.488 
L 181.104305 282.048 
L 181.29489 295.488 
L 181.420442 282.048 
L 181.611027 295.488 
L 181.729353 282.048 
L 181.919938 295.488 
L 187.371042 282.048 
L 187.560724 295.488 
L 187.719696 228.288 
L 187.832602 201.408 
L 187.853376 214.848 
L 188.023187 295.488 
L 188.052994 282.048 
L 188.24358 295.488 
L 188.364615 282.048 
L 188.678945 268.608 
L 188.869531 295.488 
L 188.988759 282.048 
L 189.178442 295.488 
L 189.313929 282.048 
L 189.503611 295.488 
L 189.621937 282.048 
L 189.812522 295.488 
L 189.930847 282.048 
L 190.121433 295.488 
L 190.245178 282.048 
L 190.43486 295.488 
L 190.558605 282.048 
L 190.74919 295.488 
L 190.866613 282.048 
L 191.056295 295.488 
L 191.184556 282.048 
L 191.375142 295.488 
L 191.49979 282.048 
L 191.690375 295.488 
L 191.823153 282.048 
L 192.013738 295.488 
L 192.143806 282.048 
L 192.334391 295.488 
L 192.45904 282.048 
L 192.649625 295.488 
L 192.768854 282.048 
L 192.959439 295.488 
L 193.081378 282.048 
L 193.271963 295.488 
L 193.394805 282.048 
L 193.58539 295.488 
L 193.711845 282.048 
L 193.90243 295.488 
L 194.033401 282.048 
L 194.223987 295.488 
L 194.347732 282.048 
L 194.538317 295.488 
L 194.654836 282.048 
L 194.845422 295.488 
L 194.969167 282.048 
L 195.159752 295.488 
L 195.291626 282.048 
L 195.482212 295.488 
L 195.600537 282.048 
L 195.791123 295.488 
L 195.914868 282.048 
L 196.105453 295.488 
L 196.221069 282.048 
L 196.411654 295.488 
L 196.529076 282.048 
L 196.719662 295.488 
L 196.84431 282.048 
L 197.034896 295.488 
L 197.160447 282.048 
L 197.350129 295.488 
L 197.470261 282.048 
L 197.659943 295.488 
L 197.788205 282.048 
L 197.97879 295.488 
L 198.108858 282.048 
L 198.29854 295.488 
L 198.423188 282.048 
L 198.613774 295.488 
L 198.748358 282.048 
L 198.938943 295.488 
L 199.057269 282.048 
L 199.247854 295.488 
L 199.373405 282.048 
L 199.563088 295.488 
L 199.682316 282.048 
L 199.872902 295.488 
L 199.993937 282.048 
L 200.184522 295.488 
L 200.306461 282.048 
L 200.497046 295.488 
L 200.624404 282.048 
L 200.81499 295.488 
L 200.947767 282.048 
L 201.138353 295.488 
L 201.260291 282.048 
L 201.450877 295.488 
L 201.575525 282.048 
L 201.76611 295.488 
L 201.896178 282.048 
L 202.086763 295.488 
L 202.215928 282.048 
L 202.406513 295.488 
L 202.528452 282.048 
L 202.719037 295.488 
L 202.83646 282.048 
L 203.027045 295.488 
L 203.158016 282.048 
L 203.348601 295.488 
L 208.896353 282.048 
L 209.039969 268.608 
L 209.255845 187.968 
L 209.272104 201.408 
L 209.41572 268.608 
L 209.477141 295.488 
L 209.480754 282.048 
L 209.67134 295.488 
L 209.792375 282.048 
L 209.98296 295.488 
L 210.105802 282.048 
L 210.296387 295.488 
L 210.420132 282.048 
L 210.610718 295.488 
L 210.737173 282.048 
L 210.926855 295.488 
L 211.051503 282.048 
L 211.241185 295.488 
L 211.372156 282.048 
L 211.562742 295.488 
L 211.691003 282.048 
L 211.881588 295.488 
L 212.00172 282.048 
L 212.192306 295.488 
L 212.316954 282.048 
L 212.506636 295.488 
L 212.635801 282.048 
L 212.826386 295.488 
L 212.953744 282.048 
L 213.144329 295.488 
L 213.269881 282.048 
L 213.460466 295.488 
L 213.585115 282.048 
L 213.7757 295.488 
L 213.908478 282.048 
L 214.099063 295.488 
L 214.221001 282.048 
L 214.410684 295.488 
L 214.543461 282.048 
L 214.734046 295.488 
L 214.852372 282.048 
L 215.042957 295.488 
L 215.176638 282.048 
L 215.367224 295.488 
L 215.491872 282.048 
L 215.682457 295.488 
L 215.806202 282.048 
L 215.996788 295.488 
L 216.122339 282.048 
L 216.312925 295.488 
L 216.438476 282.048 
L 216.628158 295.488 
L 216.747387 282.048 
L 216.937972 295.488 
L 217.071653 282.048 
L 217.262239 295.488 
L 217.38779 282.048 
L 217.578375 295.488 
L 217.705733 282.048 
L 217.896319 295.488 
L 218.881763 282.048 
L 219.064219 268.608 
L 219.070542 282.048 
L 219.242159 268.608 
L 219.252095 282.048 
L 219.422809 268.608 
L 219.430938 282.048 
L 219.603458 268.608 
L 219.610684 282.048 
L 219.788624 268.608 
L 219.791334 282.048 
L 219.968371 268.608 
L 219.9765 282.048 
L 220.149923 268.608 
L 220.156246 282.048 
L 220.330573 268.608 
L 220.337799 282.048 
L 220.508513 268.608 
L 220.518449 282.048 
L 220.688259 268.608 
L 220.696389 282.048 
L 220.868909 268.608 
L 220.877038 282.048 
L 221.047752 268.608 
L 221.056785 282.048 
L 221.227499 268.608 
L 221.235628 282.048 
L 221.408148 268.608 
L 221.415374 282.048 
L 221.588798 268.608 
L 221.596927 282.048 
L 221.769448 268.608 
L 221.777577 282.048 
L 221.951904 268.608 
L 221.957323 282.048 
L 222.136167 268.608 
L 222.139779 282.048 
L 222.315913 268.608 
L 222.324042 282.048 
L 222.500176 268.608 
L 222.503789 282.048 
L 222.686245 268.608 
L 222.688954 282.048 
L 222.866894 268.608 
L 222.87412 282.048 
L 223.049351 268.608 
L 223.05477 282.048 
L 223.23 268.608 
L 223.237226 282.048 
L 223.408843 268.608 
L 223.417876 282.048 
L 223.58588 268.608 
L 223.596719 282.048 
L 223.769239 268.608 
L 223.773756 282.048 
L 223.955309 268.608 
L 223.957115 282.048 
L 224.138668 268.608 
L 224.143184 282.048 
L 224.319318 268.608 
L 224.327447 282.048 
L 224.498161 268.608 
L 224.507193 282.048 
L 224.677907 268.608 
L 224.68694 282.048 
L 224.857654 268.608 
L 224.865783 282.048 
L 225.041013 268.608 
L 225.045529 282.048 
L 225.221663 268.608 
L 225.228889 282.048 
L 225.401409 268.608 
L 225.410442 282.048 
L 225.580252 268.608 
L 225.589285 282.048 
L 225.757289 268.608 
L 225.769031 282.048 
L 225.937035 268.608 
L 225.946068 282.048 
L 226.115879 268.608 
L 226.124911 282.048 
L 226.297432 268.608 
L 226.303754 282.048 
L 226.477178 268.608 
L 226.485307 282.048 
L 226.656924 268.608 
L 226.665054 282.048 
L 226.838477 268.608 
L 226.8448 282.048 
L 227.01732 268.608 
L 227.026353 282.048 
L 227.197067 268.608 
L 227.205196 282.048 
L 227.37591 268.608 
L 227.385846 282.048 
L 227.560173 268.608 
L 227.563786 282.048 
L 227.736306 268.608 
L 227.748048 282.048 
L 227.919666 268.608 
L 227.924182 282.048 
L 228.103025 268.608 
L 228.108444 282.048 
L 228.284578 268.608 
L 228.290901 282.048 
L 228.468841 268.608 
L 228.472454 282.048 
L 228.653103 268.608 
L 228.656716 282.048 
L 228.831043 268.608 
L 228.840979 282.048 
L 229.00808 268.608 
L 229.018919 282.048 
L 229.190536 268.608 
L 229.195955 282.048 
L 229.370282 268.608 
L 229.378412 282.048 
L 229.553642 268.608 
L 229.558158 282.048 
L 229.739711 268.608 
L 229.742421 282.048 
L 229.923974 268.608 
L 229.927587 282.048 
L 230.10372 268.608 
L 230.111849 282.048 
L 230.285273 268.608 
L 230.291596 282.048 
L 230.463213 268.608 
L 230.473149 282.048 
L 230.646572 268.608 
L 230.651088 282.048 
L 230.826319 268.608 
L 230.834448 282.048 
L 231.006968 268.608 
L 231.014194 282.048 
L 231.187618 268.608 
L 231.194844 282.048 
L 231.371881 268.608 
L 231.375494 282.048 
L 231.556143 268.608 
L 231.559756 282.048 
L 231.734083 268.608 
L 231.744922 282.048 
L 231.914733 268.608 
L 231.921959 282.048 
L 232.099899 268.608 
L 232.102609 282.048 
L 232.280548 268.608 
L 232.287774 282.048 
L 232.461198 268.608 
L 232.468424 282.048 
L 232.645461 268.608 
L 232.649074 282.048 
L 232.825207 268.608 
L 232.833336 282.048 
L 233.005857 268.608 
L 233.013083 282.048 
L 233.186507 268.608 
L 233.193733 282.048 
L 233.368059 268.608 
L 233.374382 282.048 
L 233.548709 268.608 
L 233.555935 282.048 
L 233.728456 268.608 
L 233.736585 282.048 
L 233.907299 268.608 
L 233.916331 282.048 
L 234.090658 268.608 
L 234.096078 282.048 
L 234.271308 268.608 
L 234.278534 282.048 
L 234.448344 268.608 
L 234.459183 282.048 
L 234.628091 268.608 
L 234.63622 282.048 
L 234.807837 268.608 
L 234.815966 282.048 
L 234.991197 268.608 
L 234.995713 282.048 
L 235.175459 268.608 
L 235.179976 282.048 
L 235.356109 268.608 
L 235.364238 282.048 
L 235.535855 268.608 
L 235.544888 282.048 
L 235.712892 268.608 
L 235.723731 282.048 
L 235.892638 268.608 
L 235.900768 282.048 
L 236.075998 268.608 
L 236.081417 282.048 
L 236.253938 268.608 
L 236.263874 282.048 
L 236.435491 268.608 
L 236.441813 282.048 
L 236.614334 268.608 
L 236.623366 282.048 
L 236.790467 268.608 
L 236.80221 282.048 
L 236.968407 268.608 
L 236.978343 282.048 
L 237.146347 268.608 
L 237.156283 282.048 
L 237.33061 268.608 
L 237.334223 282.048 
L 237.511259 268.608 
L 237.519389 282.048 
L 237.691909 268.608 
L 237.700038 282.048 
L 237.872559 268.608 
L 237.880688 282.048 
L 238.048692 268.608 
L 238.061338 282.048 
L 238.230245 268.608 
L 238.236568 282.048 
L 238.410895 268.608 
L 238.418121 282.048 
L 238.587028 268.608 
L 238.59877 282.048 
L 238.766775 268.608 
L 238.774904 282.048 
L 238.943811 268.608 
L 238.95465 282.048 
L 239.125364 268.608 
L 239.131687 282.048 
L 239.305111 268.608 
L 239.31324 282.048 
L 239.49118 268.608 
L 239.492986 282.048 
L 239.670926 268.608 
L 239.679055 282.048 
L 239.855189 268.608 
L 239.858802 282.048 
L 240.032226 268.608 
L 240.043065 282.048 
L 240.211972 268.608 
L 240.220101 282.048 
L 240.393525 268.608 
L 240.399848 282.048 
L 240.577788 268.608 
L 240.581401 282.048 
L 240.763857 268.608 
L 240.766566 282.048 
L 240.943603 268.608 
L 240.951732 282.048 
L 241.127866 268.608 
L 241.131479 282.048 
L 241.303999 268.608 
L 241.315741 282.048 
L 241.485552 268.608 
L 241.491875 282.048 
L 241.668008 268.608 
L 241.673428 282.048 
L 241.847755 268.608 
L 241.855884 282.048 
L 242.032017 268.608 
L 242.03563 282.048 
L 242.210861 268.608 
L 242.219893 282.048 
L 242.39151 268.608 
L 242.398736 282.048 
L 242.571257 268.608 
L 242.580289 282.048 
L 242.751003 268.608 
L 242.759132 282.048 
L 242.931653 268.608 
L 242.938879 282.048 
L 243.110496 268.608 
L 243.120432 282.048 
L 243.292049 268.608 
L 243.298372 282.048 
L 243.477215 268.608 
L 243.479924 282.048 
L 243.658768 268.608 
L 243.66509 282.048 
L 243.837611 268.608 
L 243.846643 282.048 
L 244.019164 268.608 
L 244.025486 282.048 
L 244.203426 268.608 
L 244.207039 282.048 
L 244.380463 268.608 
L 244.391302 282.048 
L 244.562016 268.608 
L 244.568339 282.048 
L 244.743569 268.608 
L 244.750795 282.048 
L 244.920606 268.608 
L 244.932348 282.048 
L 245.103062 268.608 
L 245.109384 282.048 
L 245.279195 268.608 
L 245.290937 282.048 
L 245.458038 268.608 
L 245.467974 282.048 
L 245.638688 268.608 
L 245.646817 282.048 
L 245.820241 268.608 
L 245.827467 282.048 
L 245.999987 268.608 
L 246.008116 282.048 
L 246.179734 268.608 
L 246.188766 282.048 
L 246.358577 268.608 
L 246.367609 282.048 
L 246.53742 268.608 
L 246.546452 282.048 
L 246.719876 268.608 
L 246.726199 282.048 
L 246.896913 268.608 
L 246.907752 282.048 
L 247.081175 268.608 
L 247.085692 282.048 
L 247.261825 268.608 
L 247.269051 282.048 
L 247.443378 268.608 
L 247.449701 282.048 
L 247.619511 268.608 
L 247.631254 282.048 
L 247.798355 268.608 
L 247.807387 282.048 
L 247.979908 268.608 
L 247.987134 282.048 
L 248.160557 268.608 
L 248.167783 282.048 
L 248.34211 268.608 
L 248.348433 282.048 
L 248.518244 268.608 
L 248.529986 282.048 
L 248.694377 268.608 
L 248.706119 282.048 
L 248.87322 268.608 
L 248.882253 282.048 
L 249.050257 268.608 
L 249.061999 282.048 
L 249.228197 268.608 
L 249.238132 282.048 
L 249.405233 268.608 
L 249.416072 282.048 
L 249.58769 268.608 
L 249.593109 282.048 
L 249.768339 268.608 
L 249.776468 282.048 
L 249.949892 268.608 
L 249.956215 282.048 
L 250.128735 268.608 
L 250.137768 282.048 
L 250.308482 268.608 
L 250.316611 282.048 
L 250.490035 268.608 
L 250.496357 282.048 
L 250.672491 268.608 
L 250.67791 282.048 
L 250.85585 268.608 
L 250.86127 282.048 
L 251.034693 268.608 
L 251.043726 282.048 
L 251.213537 268.608 
L 251.222569 282.048 
L 251.399606 268.608 
L 251.402315 282.048 
L 251.582965 268.608 
L 251.588385 282.048 
L 251.766325 268.608 
L 251.770841 282.048 
L 251.942458 268.608 
L 251.9542 282.048 
L 252.124011 268.608 
L 252.130334 282.048 
L 252.303757 268.608 
L 252.311887 282.048 
L 252.480794 268.608 
L 252.491633 282.048 
L 252.665057 268.608 
L 252.669573 282.048 
L 252.842997 268.608 
L 252.852932 282.048 
L 253.020033 268.608 
L 253.031775 282.048 
L 253.201586 268.608 
L 253.208812 282.048 
L 253.381333 268.608 
L 253.389462 282.048 
L 253.564692 268.608 
L 253.570111 282.048 
L 253.744438 268.608 
L 253.752568 282.048 
L 253.925991 268.608 
L 253.932314 282.048 
L 254.11477 295.488 
L 284.913732 282.048 
L 285.101607 295.488 
L 285.18019 228.288 
L 285.353614 53.568 
L 285.38884 93.888 
L 285.557748 282.048 
L 285.699558 268.608 
L 285.709493 282.048 
L 285.881111 268.608 
L 285.887433 282.048 
L 286.060857 268.608 
L 286.068986 282.048 
L 286.243313 268.608 
L 286.248733 282.048 
L 286.425769 268.608 
L 286.431189 282.048 
L 286.602806 268.608 
L 286.614548 282.048 
L 286.784359 268.608 
L 286.791585 282.048 
L 286.962299 268.608 
L 286.972235 282.048 
L 287.139335 268.608 
L 287.150174 282.048 
L 287.319985 268.608 
L 287.327211 282.048 
L 287.505151 268.608 
L 287.507861 282.048 
L 287.682188 268.608 
L 287.693027 282.048 
L 287.863741 268.608 
L 287.870967 282.048 
L 288.04439 268.608 
L 288.05252 282.048 
L 288.22233 268.608 
L 288.232266 282.048 
L 288.404786 268.608 
L 288.410206 282.048 
L 288.584533 268.608 
L 288.592662 282.048 
L 288.766989 268.608 
L 288.772408 282.048 
L 288.946735 268.608 
L 288.954865 282.048 
L 289.127385 268.608 
L 289.135514 282.048 
L 289.308035 268.608 
L 289.316164 282.048 
L 289.485975 268.608 
L 289.49591 282.048 
L 289.666624 268.608 
L 289.67385 282.048 
L 289.844564 268.608 
L 289.8545 282.048 
L 290.023407 268.608 
L 290.03244 282.048 
L 290.203154 268.608 
L 290.211283 282.048 
L 290.379287 268.608 
L 290.391029 282.048 
L 290.556324 268.608 
L 290.567163 282.048 
L 290.73607 268.608 
L 290.745103 282.048 
L 290.918526 268.608 
L 290.923946 282.048 
L 291.098273 268.608 
L 291.106402 282.048 
L 291.279826 268.608 
L 291.286149 282.048 
L 291.464088 268.608 
L 291.467701 282.048 
L 291.642932 268.608 
L 291.651964 282.048 
L 291.822678 268.608 
L 291.830807 282.048 
L 292.001521 268.608 
L 292.011457 282.048 
L 292.181268 268.608 
L 292.189397 282.048 
L 292.360111 268.608 
L 292.369143 282.048 
L 292.54347 268.608 
L 292.547986 282.048 
L 292.719604 268.608 
L 292.731346 282.048 
L 292.905673 268.608 
L 292.908383 282.048 
L 293.083613 268.608 
L 293.093548 282.048 
L 293.267875 268.608 
L 293.271488 282.048 
L 293.449428 268.608 
L 293.455751 282.048 
L 293.625562 268.608 
L 293.637304 282.048 
L 293.807115 268.608 
L 293.814341 282.048 
L 293.987764 268.608 
L 293.99499 282.048 
L 294.164801 268.608 
L 294.17564 282.048 
L 294.344547 268.608 
L 294.352677 282.048 
L 294.523391 268.608 
L 294.532423 282.048 
L 294.702234 268.608 
L 294.712169 282.048 
L 294.88469 268.608 
L 294.890109 282.048 
L 295.06534 268.608 
L 295.073469 282.048 
L 295.244183 268.608 
L 295.253215 282.048 
L 295.429349 268.608 
L 295.432962 282.048 
L 295.609095 268.608 
L 295.617224 282.048 
L 295.786132 268.608 
L 295.796971 282.048 
L 295.971298 268.608 
L 295.974007 282.048 
L 296.147431 268.608 
L 296.159173 282.048 
L 296.512343 255.168 
L 296.532215 282.048 
L 296.692993 268.608 
L 296.700219 282.048 
L 296.871836 268.608 
L 296.880869 282.048 
L 297.055196 268.608 
L 297.059712 282.048 
L 297.234942 268.608 
L 297.243071 282.048 
L 297.420108 268.608 
L 297.422818 282.048 
L 297.605274 268.608 
L 297.607984 282.048 
L 297.785923 268.608 
L 297.793149 282.048 
L 297.969283 268.608 
L 297.974702 282.048 
L 298.149933 268.608 
L 298.158062 282.048 
L 298.333292 268.608 
L 298.337808 282.048 
L 298.512135 268.608 
L 298.521168 282.048 
L 298.696398 268.608 
L 298.700914 282.048 
L 298.874338 268.608 
L 298.884273 282.048 
L 299.054084 268.608 
L 299.062213 282.048 
L 299.237444 268.608 
L 299.24196 282.048 
L 299.418996 268.608 
L 299.426222 282.048 
L 299.596033 268.608 
L 299.606872 282.048 
L 299.77578 268.608 
L 299.784812 282.048 
L 299.958236 268.608 
L 299.963655 282.048 
L 300.138885 268.608 
L 300.146111 282.048 
L 300.320438 268.608 
L 300.327664 282.048 
L 300.504701 268.608 
L 300.509217 282.048 
L 300.68806 268.608 
L 300.692577 282.048 
L 300.866 268.608 
L 300.875936 282.048 
L 301.043037 268.608 
L 301.053876 282.048 
L 301.220977 268.608 
L 301.230913 282.048 
L 301.39982 268.608 
L 301.408853 282.048 
L 301.579566 268.608 
L 301.588599 282.048 
L 301.763829 268.608 
L 301.767442 282.048 
L 301.946285 268.608 
L 301.951705 282.048 
L 302.128741 268.608 
L 302.134161 282.048 
L 302.308488 268.608 
L 302.316617 282.048 
L 302.489137 268.608 
L 302.496363 282.048 
L 302.667981 268.608 
L 302.677013 282.048 
L 302.845017 268.608 
L 302.855856 282.048 
L 303.021151 268.608 
L 303.032893 282.048 
L 303.203607 268.608 
L 303.20993 282.048 
L 303.38516 268.608 
L 303.392386 282.048 
L 303.56581 268.608 
L 303.573939 282.048 
L 303.749169 268.608 
L 303.753685 282.048 
L 303.928012 268.608 
L 303.937045 282.048 
L 304.108662 268.608 
L 304.115888 282.048 
L 304.288408 268.608 
L 304.296537 282.048 
L 304.469961 268.608 
L 304.476284 282.048 
L 304.647901 268.608 
L 304.657837 282.048 
L 304.833067 268.608 
L 304.83668 282.048 
L 305.01462 268.608 
L 305.021846 282.048 
L 305.195269 268.608 
L 305.202495 282.048 
L 305.376822 268.608 
L 305.384048 282.048 
L 305.559279 268.608 
L 305.564698 282.048 
L 305.736315 268.608 
L 305.747154 282.048 
L 305.912449 268.608 
L 305.924191 282.048 
L 306.092195 268.608 
L 306.100324 282.048 
L 306.273748 268.608 
L 306.280974 282.048 
L 306.455301 268.608 
L 306.461624 282.048 
L 306.635951 268.608 
L 306.643177 282.048 
L 306.8166 268.608 
L 306.823826 282.048 
L 306.993637 268.608 
L 307.004476 282.048 
L 307.17519 268.608 
L 307.181513 282.048 
L 307.358549 268.608 
L 307.363065 282.048 
L 307.536489 268.608 
L 307.547328 282.048 
L 307.722558 268.608 
L 307.725268 282.048 
L 307.900498 268.608 
L 307.911337 282.048 
L 308.083858 268.608 
L 308.088374 282.048 
L 308.265411 268.608 
L 308.271733 282.048 
L 308.44877 268.608 
L 308.454189 282.048 
L 308.625807 268.608 
L 308.636646 282.048 
L 308.810069 268.608 
L 308.814586 282.048 
L 309.172272 255.168 
L 309.194853 282.048 
L 309.357438 268.608 
L 309.360148 282.048 
L 309.536281 268.608 
L 309.545313 282.048 
L 309.717834 268.608 
L 309.724157 282.048 
L 309.898484 268.608 
L 309.905709 282.048 
L 310.083649 268.608 
L 310.086359 282.048 
L 310.267009 268.608 
L 310.271525 282.048 
L 310.445852 268.608 
L 310.454884 282.048 
L 310.628308 268.608 
L 310.634631 282.048 
L 310.812571 268.608 
L 310.816184 282.048 
L 310.994124 268.608 
L 311.00135 282.048 
L 311.181999 295.488 
L 312.765394 282.048 
L 312.955979 295.488 
L 313.081531 282.048 
L 313.272116 295.488 
L 313.396764 282.048 
L 313.586446 295.488 
L 313.714708 282.048 
L 313.905293 295.488 
L 314.023619 282.048 
L 314.213301 295.488 
L 314.336143 282.048 
L 314.526728 295.488 
L 314.647763 282.048 
L 314.838349 295.488 
L 314.959384 282.048 
L 315.149969 295.488 
L 315.277327 282.048 
L 315.467913 295.488 
L 315.592561 282.048 
L 315.782243 295.488 
L 315.904182 282.048 
L 316.094767 295.488 
L 316.213996 282.048 
L 316.404581 295.488 
L 316.531036 282.048 
L 316.721621 295.488 
L 316.851689 282.048 
L 317.042275 295.488 
L 317.162407 282.048 
L 319.072777 201.408 
L 333.485007 214.848 
L 333.621398 201.408 
L 333.754175 214.848 
L 333.857145 174.528 
L 333.991729 134.208 
L 334.004375 147.648 
L 334.206702 255.168 
L 334.241026 268.608 
L 334.454192 295.488 
L 334.512904 282.048 
L 334.703489 295.488 
L 334.836267 282.048 
L 335.026852 295.488 
L 335.155113 282.048 
L 335.345699 295.488 
L 335.469444 282.048 
L 335.660029 295.488 
L 335.780161 282.048 
L 335.970746 295.488 
L 336.099911 282.048 
L 336.290496 295.488 
L 336.416951 282.048 
L 336.607536 295.488 
L 336.736701 282.048 
L 336.927286 295.488 
L 337.059161 282.048 
L 337.249746 295.488 
L 337.380717 282.048 
L 337.570399 295.488 
L 337.695047 282.048 
L 337.885633 295.488 
L 338.014797 282.048 
L 338.205383 295.488 
L 338.337257 282.048 
L 338.527842 295.488 
L 338.649781 282.048 
L 338.840366 295.488 
L 338.960498 282.048 
L 339.272119 268.608 
L 339.461801 295.488 
L 339.590062 282.048 
L 339.780648 295.488 
L 339.90349 282.048 
L 340.094075 295.488 
L 340.225949 282.048 
L 340.416535 295.488 
L 340.542989 282.048 
L 340.733575 295.488 
L 340.862739 282.048 
L 341.053325 295.488 
L 341.179779 282.048 
L 341.370365 295.488 
L 341.495916 282.048 
L 341.685599 295.488 
L 341.810247 282.048 
L 342.000832 295.488 
L 342.129093 282.048 
L 342.319679 295.488 
L 342.444327 282.048 
L 342.634913 295.488 
L 342.762271 282.048 
L 342.952856 295.488 
L 343.078407 282.048 
L 343.268993 295.488 
L 343.394544 282.048 
L 343.58513 295.488 
L 343.709778 282.048 
L 343.900363 295.488 
L 344.030431 282.048 
L 344.221017 295.488 
L 344.351084 282.048 
L 344.540767 295.488 
L 344.667221 282.048 
L 344.857807 295.488 
L 344.985165 282.048 
L 345.17575 295.488 
L 345.303108 282.048 
L 345.493693 295.488 
L 345.615632 282.048 
L 345.806217 295.488 
L 345.929962 282.048 
L 346.120548 295.488 
L 346.248809 282.048 
L 346.438491 295.488 
L 346.569462 282.048 
L 346.882889 268.608 
L 347.073475 295.488 
L 347.19722 282.048 
L 347.510647 268.608 
L 347.701232 295.488 
L 347.824977 282.048 
L 348.015563 295.488 
L 348.147437 282.048 
L 348.338022 295.488 
L 348.46809 282.048 
L 348.658676 295.488 
L 348.786937 282.048 
L 348.976619 295.488 
L 349.10488 282.048 
L 349.295466 295.488 
L 349.419211 282.048 
L 349.609796 295.488 
L 349.734444 282.048 
L 349.924127 295.488 
L 350.050581 282.048 
L 350.241167 295.488 
L 350.371234 282.048 
L 350.560917 295.488 
L 350.686468 282.048 
L 350.877054 295.488 
L 351.001702 282.048 
L 351.191384 295.488 
L 351.314226 282.048 
L 351.504811 295.488 
L 351.629459 282.048 
L 351.820045 295.488 
L 351.949209 282.048 
L 352.139795 295.488 
L 352.26354 282.048 
L 352.454125 295.488 
L 352.578773 282.048 
L 352.769359 295.488 
L 352.898523 282.048 
L 353.089109 295.488 
L 353.219176 282.048 
L 353.409762 295.488 
L 353.53712 282.048 
L 353.727705 295.488 
L 353.849644 282.048 
L 354.040229 295.488 
L 354.169394 282.048 
L 354.359979 295.488 
L 354.484627 282.048 
L 354.675213 295.488 
L 354.803474 282.048 
L 354.994059 295.488 
L 355.117804 282.048 
L 355.30839 295.488 
L 355.429425 282.048 
L 355.62001 295.488 
L 355.740142 282.048 
L 355.930728 295.488 
L 357.205211 282.048 
L 357.39399 295.488 
L 357.43012 282.048 
L 357.618899 295.488 
L 357.655029 282.048 
L 357.842905 295.488 
L 357.881744 282.048 
L 358.070523 295.488 
L 358.102137 282.048 
L 358.290916 295.488 
L 358.327949 282.048 
L 358.516728 295.488 
L 358.555568 282.048 
L 358.744346 295.488 
L 358.783186 282.048 
L 358.971965 295.488 
L 359.011708 282.048 
L 359.200487 295.488 
L 359.233907 282.048 
L 359.421783 295.488 
L 359.459719 282.048 
L 359.648498 295.488 
L 359.689144 282.048 
L 359.877923 295.488 
L 359.914053 282.048 
L 360.102832 295.488 
L 360.138059 282.048 
L 360.326837 295.488 
L 360.364774 282.048 
L 360.553553 295.488 
L 360.58878 282.048 
L 360.777558 295.488 
L 360.820011 282.048 
L 361.00879 295.488 
L 361.049436 282.048 
L 361.237312 295.488 
L 361.278861 282.048 
L 361.46764 295.488 
L 361.508286 282.048 
L 361.696162 295.488 
L 361.732292 282.048 
L 361.921071 295.488 
L 361.952684 282.048 
L 362.14056 295.488 
L 362.1794 282.048 
L 362.368179 295.488 
L 362.405212 282.048 
L 362.593088 295.488 
L 362.634637 282.048 
L 362.822513 295.488 
L 362.857739 282.048 
L 363.045615 295.488 
L 363.079035 282.048 
L 363.267814 295.488 
L 363.302137 282.048 
L 363.490916 295.488 
L 363.523433 282.048 
L 363.711309 295.488 
L 363.753762 282.048 
L 363.941637 295.488 
L 363.97867 282.048 
L 364.167449 295.488 
L 364.208096 282.048 
L 364.395971 295.488 
L 364.436617 282.048 
L 364.624493 295.488 
L 364.658816 282.048 
L 364.846692 295.488 
L 364.884629 282.048 
L 365.073407 295.488 
L 365.105924 282.048 
L 365.294703 295.488 
L 365.33264 282.048 
L 365.521419 295.488 
L 365.556645 282.048 
L 365.744521 295.488 
L 365.777038 282.048 
L 365.965817 295.488 
L 366.004656 282.048 
L 366.193435 295.488 
L 366.231372 282.048 
L 366.419247 295.488 
L 366.457184 282.048 
L 366.645963 295.488 
L 366.679383 282.048 
L 366.868162 295.488 
L 366.905195 282.048 
L 367.093071 295.488 
L 367.132814 282.048 
L 367.320689 295.488 
L 367.356819 282.048 
L 367.545598 295.488 
L 367.588051 282.048 
L 367.775926 295.488 
L 367.81296 282.048 
L 368.000835 295.488 
L 368.041481 282.048 
L 368.23026 295.488 
L 368.265487 282.048 
L 368.453363 295.488 
L 368.488589 282.048 
L 368.677368 295.488 
L 368.711692 282.048 
L 368.900471 295.488 
L 368.933891 282.048 
L 369.12267 295.488 
L 369.157896 282.048 
L 369.346675 295.488 
L 369.383708 282.048 
L 369.571584 295.488 
L 369.614037 282.048 
L 369.801912 295.488 
L 369.836236 282.048 
L 370.025015 295.488 
L 370.062048 282.048 
L 370.250827 295.488 
L 370.288763 282.048 
L 370.476639 295.488 
L 370.513672 282.048 
L 370.702451 295.488 
L 370.742194 282.048 
L 370.93007 295.488 
L 370.968006 282.048 
L 371.155882 295.488 
L 371.192915 282.048 
L 371.381694 295.488 
L 371.423243 282.048 
L 371.611119 295.488 
L 371.653571 282.048 
L 371.841447 295.488 
L 371.879384 282.048 
L 372.068162 295.488 
L 372.099776 282.048 
L 372.287652 295.488 
L 372.323782 282.048 
L 372.512561 295.488 
L 372.5514 282.048 
L 372.740179 295.488 
L 372.774503 282.048 
L 372.963282 295.488 
L 372.994895 282.048 
L 373.183674 295.488 
L 373.220707 282.048 
L 373.408583 295.488 
L 373.44381 282.048 
L 373.631685 295.488 
L 373.670525 282.048 
L 373.859304 295.488 
L 373.894531 282.048 
L 374.083309 295.488 
L 374.122149 282.048 
L 374.310025 295.488 
L 374.351574 282.048 
L 374.540353 295.488 
L 374.576483 282.048 
L 374.765262 295.488 
L 374.798682 282.048 
L 374.987461 295.488 
L 375.020881 282.048 
L 375.20966 295.488 
L 375.24579 282.048 
L 375.433666 295.488 
L 375.468892 282.048 
L 375.657671 295.488 
L 375.701027 282.048 
L 375.889806 295.488 
L 375.92142 282.048 
L 376.110199 295.488 
L 376.154458 282.048 
L 376.342334 295.488 
L 376.38027 282.048 
L 376.569049 295.488 
L 376.610598 282.048 
L 376.799377 295.488 
L 376.83912 282.048 
L 377.026996 295.488 
L 377.064029 282.048 
L 377.252808 295.488 
L 377.290744 282.048 
L 377.47862 295.488 
L 377.519266 282.048 
L 377.708045 295.488 
L 377.745078 282.048 
L 377.933857 295.488 
L 377.97631 282.048 
L 378.164185 295.488 
L 378.202122 282.048 
L 378.390901 295.488 
L 378.430644 282.048 
L 378.618519 295.488 
L 378.650133 282.048 
L 378.838912 295.488 
L 378.871429 282.048 
L 379.059305 295.488 
L 379.091821 282.048 
L 379.2806 295.488 
L 379.32486 282.048 
L 379.512735 295.488 
L 379.547059 282.048 
L 379.734934 295.488 
L 379.77558 282.048 
L 379.963456 295.488 
L 379.998683 282.048 
L 380.186558 295.488 
L 380.229914 282.048 
L 380.41779 295.488 
L 380.457533 282.048 
L 380.645409 295.488 
L 380.680635 282.048 
L 380.869414 295.488 
L 380.906447 282.048 
L 381.095226 295.488 
L 381.133163 282.048 
L 381.321038 295.488 
L 381.363491 282.048 
L 381.55227 295.488 
L 381.590206 282.048 
L 381.778985 295.488 
L 381.816018 282.048 
L 382.003894 295.488 
L 382.04183 282.048 
L 382.229706 295.488 
L 382.264933 282.048 
L 382.452808 295.488 
L 382.488035 282.048 
L 382.676814 295.488 
L 382.713847 282.048 
L 382.901723 295.488 
L 382.93695 282.048 
L 383.125728 295.488 
L 383.158245 282.048 
L 383.347024 295.488 
L 383.384057 282.048 
L 383.572836 295.488 
L 383.611676 282.048 
L 383.800455 295.488 
L 383.835682 282.048 
L 384.023557 295.488 
L 384.061494 282.048 
L 384.249369 295.488 
L 384.289112 282.048 
L 384.476988 295.488 
L 384.518537 282.048 
L 384.707316 295.488 
L 384.73893 282.048 
L 384.927709 295.488 
L 384.963839 282.048 
L 385.152618 295.488 
L 385.186038 282.048 
L 385.374817 295.488 
L 385.40914 282.048 
L 385.597919 295.488 
L 385.638565 282.048 
L 385.826441 295.488 
L 385.863474 282.048 
L 386.05135 295.488 
L 386.08477 282.048 
L 386.272646 295.488 
L 386.308776 282.048 
L 386.497554 295.488 
L 386.530975 282.048 
L 386.719754 295.488 
L 386.751367 282.048 
L 386.940146 295.488 
L 386.972663 282.048 
L 387.161442 295.488 
L 387.197572 282.048 
L 387.385448 295.488 
L 387.419771 282.048 
L 387.60855 295.488 
L 387.643777 282.048 
L 387.831652 295.488 
L 393.286369 282.048 
L 393.511278 93.888 
L 393.730767 295.488 
L 393.746122 282.048 
L 393.933998 295.488 
L 393.968321 282.048 
L 394.1571 295.488 
L 394.19594 282.048 
L 394.384719 295.488 
L 394.416333 282.048 
L 394.604208 295.488 
L 394.642145 282.048 
L 394.830924 295.488 
L 394.870666 282.048 
L 395.058542 295.488 
L 395.097382 282.048 
L 395.286161 295.488 
L 395.32771 282.048 
L 395.516489 295.488 
L 395.553522 282.048 
L 395.742301 295.488 
L 395.777528 282.048 
L 395.966307 295.488 
L 396.005146 282.048 
L 396.193925 295.488 
L 396.233668 282.048 
L 396.422447 295.488 
L 396.455867 282.048 
L 396.644646 295.488 
L 396.678066 282.048 
L 396.865942 295.488 
L 396.903878 282.048 
L 397.091754 295.488 
L 397.124271 282.048 
L 397.312147 295.488 
L 397.350986 282.048 
L 397.539765 295.488 
L 397.583121 282.048 
L 397.770997 295.488 
L 397.811643 282.048 
L 398.000422 295.488 
L 398.035649 282.048 
L 398.223524 295.488 
L 398.256041 282.048 
L 398.44482 295.488 
L 398.487273 282.048 
L 398.487273 282.048 
" clip-path="url(#p0b8d8dbfbc)" style="fill: none; stroke: #1f77b4; stroke-width: 1.5; stroke-linecap: square"/>
   </g>
   <g id="patch_3">
    <path d="M 57.6 307.584 
L 57.6 41.472 
" style="fill: none; stroke: #000000; stroke-width: 0.8; stroke-linejoin: miter; stroke-linecap: square"/>
   </g>
   <g id="patch_4">
    <path d="M 414.72 307.584 
L 414.72 41.472 
" style="fill: none; stroke: #000000; stroke-width: 0.8; stroke-linejoin: miter; stroke-linecap: square"/>
   </g>
   <g id="patch_5">
    <path d="M 57.6 307.584 
L 414.72 307.584 
" style="fill: none; stroke: #000000; stroke-width: 0.8; stroke-linejoin: miter; stroke-linecap: square"/>
   </g>
   <g id="patch_6">
    <path d="M 57.6 41.472 
L 414.72 41.472 
" style="fill: none; stroke: #000000; stroke-width: 0.8; stroke-linejoin: miter; stroke-linecap: square"/>
   </g>
   <g id="text_18">
    <!-- Queue size (y-axis) between S3 and sensors that follow at a time (x-axis). -->
    <g transform="translate(14.282813 35.472) scale(0.12 -0.12)">
     <defs>
      <path id="DejaVuSans-51" d="M 2522 4238 
Q 1834 4238 1429 3725 
Q 1025 3213 1025 2328 
Q 1025 1447 1429 934 
Q 1834 422 2522 422 
Q 3209 422 3611 934 
Q 4013 1447 4013 2328 
Q 4013 3213 3611 3725 
Q 3209 4238 2522 4238 
z
M 3406 84 
L 4238 -825 
L 3475 -825 
L 2784 -78 
Q 2681 -84 2626 -87 
Q 2572 -91 2522 -91 
Q 1538 -91 948 567 
Q 359 1225 359 2328 
Q 359 3434 948 4092 
Q 1538 4750 2522 4750 
Q 3503 4750 4090 4092 
Q 4678 3434 4678 2328 
Q 4678 1516 4351 937 
Q 4025 359 3406 84 
z
" transform="scale(0.015625)"/>
      <path id="DejaVuSans-75" d="M 544 1381 
L 544 3500 
L 1119 3500 
L 1119 1403 
Q 1119 906 1312 657 
Q 1506 409 1894 409 
Q 2359 409 2629 706 
Q 2900 1003 2900 1516 
L 2900 3500 
L 3475 3500 
L 3475 0 
L 2900 0 
L 2900 538 
Q 2691 219 2414 64 
Q 2138 -91 1772 -91 
Q 1169 -91 856 284 
Q 544 659 544 1381 
z
M 1991 3584 
L 1991 3584 
z
" transform="scale(0.015625)"/>
      <path id="DejaVuSans-20" transform="scale(0.015625)"/>
      <path id="DejaVuSans-73" d="M 2834 3397 
L 2834 2853 
Q 2591 2978 2328 3040 
Q 2066 3103 1784 3103 
Q 1356 3103 1142 2972 
Q 928 2841 928 2578 
Q 928 2378 1081 2264 
Q 1234 2150 1697 2047 
L 1894 2003 
Q 2506 1872 2764 1633 
Q 3022 1394 3022 966 
Q 3022 478 2636 193 
Q 2250 -91 1575 -91 
Q 1294 -91 989 -36 
Q 684 19 347 128 
L 347 722 
Q 666 556 975 473 
Q 1284 391 1588 391 
Q 1994 391 2212 530 
Q 2431 669 2431 922 
Q 2431 1156 2273 1281 
Q 2116 1406 1581 1522 
L 1381 1569 
Q 847 1681 609 1914 
Q 372 2147 372 2553 
Q 372 3047 722 3315 
Q 1072 3584 1716 3584 
Q 2034 3584 2315 3537 
Q 2597 3491 2834 3397 
z
" transform="scale(0.015625)"/>
      <path id="DejaVuSans-69" d="M 603 3500 
L 1178 3500 
L 1178 0 
L 603 0 
L 603 3500 
z
M 603 4863 
L 1178 4863 
L 1178 4134 
L 603 4134 
L 603 4863 
z
" transform="scale(0.015625)"/>
      <path id="DejaVuSans-7a" d="M 353 3500 
L 3084 3500 
L 3084 2975 
L 922 459 
L 3084 459 
L 3084 0 
L 275 0 
L 275 525 
L 2438 3041 
L 353 3041 
L 353 3500 
z
" transform="scale(0.015625)"/>
      <path id="DejaVuSans-28" d="M 1984 4856 
Q 1566 4138 1362 3434 
Q 1159 2731 1159 2009 
Q 1159 1288 1364 580 
Q 1569 -128 1984 -844 
L 1484 -844 
Q 1016 -109 783 600 
Q 550 1309 550 2009 
Q 550 2706 781 3412 
Q 1013 4119 1484 4856 
L 1984 4856 
z
" transform="scale(0.015625)"/>
      <path id="DejaVuSans-79" d="M 2059 -325 
Q 1816 -950 1584 -1140 
Q 1353 -1331 966 -1331 
L 506 -1331 
L 506 -850 
L 844 -850 
Q 1081 -850 1212 -737 
Q 1344 -625 1503 -206 
L 1606 56 
L 191 3500 
L 800 3500 
L 1894 763 
L 2988 3500 
L 3597 3500 
L 2059 -325 
z
" transform="scale(0.015625)"/>
      <path id="DejaVuSans-2d" d="M 313 2009 
L 1997 2009 
L 1997 1497 
L 313 1497 
L 313 2009 
z
" transform="scale(0.015625)"/>
      <path id="DejaVuSans-61" d="M 2194 1759 
Q 1497 1759 1228 1600 
Q 959 1441 959 1056 
Q 959 750 1161 570 
Q 1363 391 1709 391 
Q 2188 391 2477 730 
Q 2766 1069 2766 1631 
L 2766 1759 
L 2194 1759 
z
M 3341 1997 
L 3341 0 
L 2766 0 
L 2766 531 
Q 2569 213 2275 61 
Q 1981 -91 1556 -91 
Q 1019 -91 701 211 
Q 384 513 384 1019 
Q 384 1609 779 1909 
Q 1175 2209 1959 2209 
L 2766 2209 
L 2766 2266 
Q 2766 2663 2505 2880 
Q 2244 3097 1772 3097 
Q 1472 3097 1187 3025 
Q 903 2953 641 2809 
L 641 3341 
Q 956 3463 1253 3523 
Q 1550 3584 1831 3584 
Q 2591 3584 2966 3190 
Q 3341 2797 3341 1997 
z
" transform="scale(0.015625)"/>
      <path id="DejaVuSans-78" d="M 3513 3500 
L 2247 1797 
L 3578 0 
L 2900 0 
L 1881 1375 
L 863 0 
L 184 0 
L 1544 1831 
L 300 3500 
L 978 3500 
L 1906 2253 
L 2834 3500 
L 3513 3500 
z
" transform="scale(0.015625)"/>
      <path id="DejaVuSans-29" d="M 513 4856 
L 1013 4856 
Q 1481 4119 1714 3412 
Q 1947 2706 1947 2009 
Q 1947 1309 1714 600 
Q 1481 -109 1013 -844 
L 513 -844 
Q 928 -128 1133 580 
Q 1338 1288 1338 2009 
Q 1338 2731 1133 3434 
Q 928 4138 513 4856 
z
" transform="scale(0.015625)"/>
      <path id="DejaVuSans-62" d="M 3116 1747 
Q 3116 2381 2855 2742 
Q 2594 3103 2138 3103 
Q 1681 3103 1420 2742 
Q 1159 2381 1159 1747 
Q 1159 1113 1420 752 
Q 1681 391 2138 391 
Q 2594 391 2855 752 
Q 3116 1113 3116 1747 
z
M 1159 2969 
Q 1341 3281 1617 3432 
Q 1894 3584 2278 3584 
Q 2916 3584 3314 3078 
Q 3713 2572 3713 1747 
Q 3713 922 3314 415 
Q 2916 -91 2278 -91 
Q 1894 -91 1617 61 
Q 1341 213 1159 525 
L 1159 0 
L 581 0 
L 581 4863 
L 1159 4863 
L 1159 2969 
z
" transform="scale(0.015625)"/>
      <path id="DejaVuSans-74" d="M 1172 4494 
L 1172 3500 
L 2356 3500 
L 2356 3053 
L 1172 3053 
L 1172 1153 
Q 1172 725 1289 603 
Q 1406 481 1766 481 
L 2356 481 
L 2356 0 
L 1766 0 
Q 1100 0 847 248 
Q 594 497 594 1153 
L 594 3053 
L 172 3053 
L 172 3500 
L 594 3500 
L 594 4494 
L 1172 4494 
z
" transform="scale(0.015625)"/>
      <path id="DejaVuSans-77" d="M 269 3500 
L 844 3500 
L 1563 769 
L 2278 3500 
L 2956 3500 
L 3675 769 
L 4391 3500 
L 4966 3500 
L 4050 0 
L 3372 0 
L 2619 2869 
L 1863 0 
L 1184 0 
L 269 3500 
z
" transform="scale(0.015625)"/>
      <path id="DejaVuSans-6e" d="M 3513 2113 
L 3513 0 
L 2938 0 
L 2938 2094 
Q 2938 2591 2744 2837 
Q 2550 3084 2163 3084 
Q 1697 3084 1428 2787 
Q 1159 2491 1159 1978 
L 1159 0 
L 581 0 
L 581 3500 
L 1159 3500 
L 1159 2956 
Q 1366 3272 1645 3428 
Q 1925 3584 2291 3584 
Q 2894 3584 3203 3211 
Q 3513 2838 3513 2113 
z
" transform="scale(0.015625)"/>
      <path id="DejaVuSans-53" d="M 3425 4513 
L 3425 3897 
Q 3066 4069 2747 4153 
Q 2428 4238 2131 4238 
Q 1616 4238 1336 4038 
Q 1056 3838 1056 3469 
Q 1056 3159 1242 3001 
Q 1428 2844 1947 2747 
L 2328 2669 
Q 3034 2534 3370 2195 
Q 3706 1856 3706 1288 
Q 3706 609 3251 259 
Q 2797 -91 1919 -91 
Q 1588 -91 1214 -16 
Q 841 59 441 206 
L 441 856 
Q 825 641 1194 531 
Q 1563 422 1919 422 
Q 2459 422 2753 634 
Q 3047 847 3047 1241 
Q 3047 1584 2836 1778 
Q 2625 1972 2144 2069 
L 1759 2144 
Q 1053 2284 737 2584 
Q 422 2884 422 3419 
Q 422 4038 858 4394 
Q 1294 4750 2059 4750 
Q 2388 4750 2728 4690 
Q 3069 4631 3425 4513 
z
" transform="scale(0.015625)"/>
      <path id="DejaVuSans-64" d="M 2906 2969 
L 2906 4863 
L 3481 4863 
L 3481 0 
L 2906 0 
L 2906 525 
Q 2725 213 2448 61 
Q 2172 -91 1784 -91 
Q 1150 -91 751 415 
Q 353 922 353 1747 
Q 353 2572 751 3078 
Q 1150 3584 1784 3584 
Q 2172 3584 2448 3432 
Q 2725 3281 2906 2969 
z
M 947 1747 
Q 947 1113 1208 752 
Q 1469 391 1925 391 
Q 2381 391 2643 752 
Q 2906 1113 2906 1747 
Q 2906 2381 2643 2742 
Q 2381 3103 1925 3103 
Q 1469 3103 1208 2742 
Q 947 2381 947 1747 
z
" transform="scale(0.015625)"/>
      <path id="DejaVuSans-6f" d="M 1959 3097 
Q 1497 3097 1228 2736 
Q 959 2375 959 1747 
Q 959 1119 1226 758 
Q 1494 397 1959 397 
Q 2419 397 2687 759 
Q 2956 1122 2956 1747 
Q 2956 2369 2687 2733 
Q 2419 3097 1959 3097 
z
M 1959 3584 
Q 2709 3584 3137 3096 
Q 3566 2609 3566 1747 
Q 3566 888 3137 398 
Q 2709 -91 1959 -91 
Q 1206 -91 779 398 
Q 353 888 353 1747 
Q 353 2609 779 3096 
Q 1206 3584 1959 3584 
z
" transform="scale(0.015625)"/>
      <path id="DejaVuSans-72" d="M 2631 2963 
Q 2534 3019 2420 3045 
Q 2306 3072 2169 3072 
Q 1681 3072 1420 2755 
Q 1159 2438 1159 1844 
L 1159 0 
L 581 0 
L 581 3500 
L 1159 3500 
L 1159 2956 
Q 1341 3275 1631 3429 
Q 1922 3584 2338 3584 
Q 2397 3584 2469 3576 
Q 2541 3569 2628 3553 
L 2631 2963 
z
" transform="scale(0.015625)"/>
      <path id="DejaVuSans-68" d="M 3513 2113 
L 3513 0 
L 2938 0 
L 2938 2094 
Q 2938 2591 2744 2837 
Q 2550 3084 2163 3084 
Q 1697 3084 1428 2787 
Q 1159 2491 1159 1978 
L 1159 0 
L 581 0 
L 581 4863 
L 1159 4863 
L 1159 2956 
Q 1366 3272 1645 3428 
Q 1925 3584 2291 3584 
Q 2894 3584 3203 3211 
Q 3513 2838 3513 2113 
z
" transform="scale(0.015625)"/>
      <path id="DejaVuSans-66" d="M 2375 4863 
L 2375 4384 
L 1825 4384 
Q 1516 4384 1395 4259 
Q 1275 4134 1275 3809 
L 1275 3500 
L 2222 3500 
L 2222 3053 
L 1275 3053 
L 1275 0 
L 697 0 
L 697 3053 
L 147 3053 
L 147 3500 
L 697 3500 
L 697 3744 
Q 697 4328 969 4595 
Q 1241 4863 1831 4863 
L 2375 4863 
z
" transform="scale(0.015625)"/>
      <path id="DejaVuSans-6c" d="M 603 4863 
L 1178 4863 
L 1178 0 
L 603 0 
L 603 4863 
z
" transform="scale(0.015625)"/>
      <path id="DejaVuSans-6d" d="M 3328 2828 
Q 3544 3216 3844 3400 
Q 4144 3584 4550 3584 
Q 5097 3584 5394 3201 
Q 5691 2819 5691 2113 
L 5691 0 
L 5113 0 
L 5113 2094 
Q 5113 2597 4934 2840 
Q 4756 3084 4391 3084 
Q 3944 3084 3684 2787 
Q 3425 2491 3425 1978 
L 3425 0 
L 2847 0 
L 2847 2094 
Q 2847 2600 2669 2842 
Q 2491 3084 2119 3084 
Q 1678 3084 1418 2786 
Q 1159 2488 1159 1978 
L 1159 0 
L 581 0 
L 581 3500 
L 1159 3500 
L 1159 2956 
Q 1356 3278 1631 3431 
Q 1906 3584 2284 3584 
Q 2666 3584 2933 3390 
Q 3200 3197 3328 2828 
z
" transform="scale(0.015625)"/>
     </defs>
     <use xlink:href="#DejaVuSans-51"/>
     <use xlink:href="#DejaVuSans-75" x="78.710938"/>
     <use xlink:href="#DejaVuSans-65" x="142.089844"/>
     <use xlink:href="#DejaVuSans-75" x="203.613281"/>
     <use xlink:href="#DejaVuSans-65" x="266.992188"/>
     <use xlink:href="#DejaVuSans-20" x="328.515625"/>
     <use xlink:href="#DejaVuSans-73" x="360.302734"/>
     <use xlink:href="#DejaVuSans-69" x="412.402344"/>
     <use xlink:href="#DejaVuSans-7a" x="440.185547"/>
     <use xlink:href="#DejaVuSans-65" x="492.675781"/>
     <use xlink:href="#DejaVuSans-20" x="554.199219"/>
     <use xlink:href="#DejaVuSans-28" x="585.986328"/>
     <use xlink:href="#DejaVuSans-79" x="625"/>
     <use xlink:href="#DejaVuSans-2d" x="682.429688"/>
     <use xlink:href="#DejaVuSans-61" x="718.513672"/>
     <use xlink:href="#DejaVuSans-78" x="779.792969"/>
     <use xlink:href="#DejaVuSans-69" x="838.972656"/>
     <use xlink:href="#DejaVuSans-73" x="866.755859"/>
     <use xlink:href="#DejaVuSans-29" x="918.855469"/>
     <use xlink:href="#DejaVuSans-20" x="957.869141"/>
     <use xlink:href="#DejaVuSans-62" x="989.65625"/>
     <use xlink:href="#DejaVuSans-65" x="1053.132812"/>
     <use xlink:href="#DejaVuSans-74" x="1114.65625"/>
     <use xlink:href="#DejaVuSans-77" x="1153.865234"/>
     <use xlink:href="#DejaVuSans-65" x="1235.652344"/>
     <use xlink:href="#DejaVuSans-65" x="1297.175781"/>
     <use xlink:href="#DejaVuSans-6e" x="1358.699219"/>
     <use xlink:href="#DejaVuSans-20" x="1422.078125"/>
     <use xlink:href="#DejaVuSans-53" x="1453.865234"/>
     <use xlink:href="#DejaVuSans-33" x="1517.341797"/>
     <use xlink:href="#DejaVuSans-20" x="1580.964844"/>
     <use xlink:href="#DejaVuSans-61" x="1612.751953"/>
     <use xlink:href="#DejaVuSans-6e" x="1674.03125"/>
     <use xlink:href="#DejaVuSans-64" x="1737.410156"/>
     <use xlink:href="#DejaVuSans-20" x="1800.886719"/>
     <use xlink:href="#DejaVuSans-73" x="1832.673828"/>
     <use xlink:href="#DejaVuSans-65" x="1884.773438"/>
     <use xlink:href="#DejaVuSans-6e" x="1946.296875"/>
     <use xlink:href="#DejaVuSans-73" x="2009.675781"/>
     <use xlink:href="#DejaVuSans-6f" x="2061.775391"/>
     <use xlink:href="#DejaVuSans-72" x="2122.957031"/>
     <use xlink:href="#DejaVuSans-73" x="2164.070312"/>
     <use xlink:href="#DejaVuSans-20" x="2216.169922"/>
     <use xlink:href="#DejaVuSans-74" x="2247.957031"/>
     <use xlink:href="#DejaVuSans-68" x="2287.166016"/>
     <use xlink:href="#DejaVuSans-61" x="2350.544922"/>
     <use xlink:href="#DejaVuSans-74" x="2411.824219"/>
     <use xlink:href="#DejaVuSans-20" x="2451.033203"/>
     <use xlink:href="#DejaVuSans-66" x="2482.820312"/>
     <use xlink:href="#DejaVuSans-6f" x="2518.025391"/>
     <use xlink:href="#DejaVuSans-6c" x="2579.207031"/>
     <use xlink:href="#DejaVuSans-6c" x="2606.990234"/>
     <use xlink:href="#DejaVuSans-6f" x="2634.773438"/>
     <use xlink:href="#DejaVuSans-77" x="2695.955078"/>
     <use xlink:href="#DejaVuSans-20" x="2777.742188"/>
     <use xlink:href="#DejaVuSans-61" x="2809.529297"/>
     <use xlink:href="#DejaVuSans-74" x="2870.808594"/>
     <use xlink:href="#DejaVuSans-20" x="2910.017578"/>
     <use xlink:href="#DejaVuSans-61" x="2941.804688"/>
     <use xlink:href="#DejaVuSans-20" x="3003.083984"/>
     <use xlink:href="#DejaVuSans-74" x="3034.871094"/>
     <use xlink:href="#DejaVuSans-69" x="3074.080078"/>
     <use xlink:href="#DejaVuSans-6d" x="3101.863281"/>
     <use xlink:href="#DejaVuSans-65" x="3199.275391"/>
     <use xlink:href="#DejaVuSans-20" x="3260.798828"/>
     <use xlink:href="#DejaVuSans-28" x="3292.585938"/>
     <use xlink:href="#DejaVuSans-78" x="3331.599609"/>
     <use xlink:href="#DejaVuSans-2d" x="3390.779297"/>
     <use xlink:href="#DejaVuSans-61" x="3426.863281"/>
     <use xlink:href="#DejaVuSans-78" x="3488.142578"/>
     <use xlink:href="#DejaVuSans-69" x="3547.322266"/>
     <use xlink:href="#DejaVuSans-73" x="3575.105469"/>
     <use xlink:href="#DejaVuSans-29" x="3627.205078"/>
     <use xlink:href="#DejaVuSans-2e" x="3666.21875"/>
    </g>
   </g>
  </g>
 </g>
 <defs>
  <clipPath id="p0b8d8dbfbc">
   <rect x="57.6" y="41.472" width="357.12" height="266.112"/>
  </clipPath>
 </defs>
</svg>
