<?xml version="1.0" encoding="utf-8" standalone="no"?>
<!DOCTYPE svg PUBLIC "-//W3C//DTD SVG 1.1//EN"
  "http://www.w3.org/Graphics/SVG/1.1/DTD/svg11.dtd">
<svg xmlns:xlink="http://www.w3.org/1999/xlink" width="460.8pt" height="345.6pt" viewBox="0 0 460.8 345.6" xmlns="http://www.w3.org/2000/svg" version="1.1">
 <metadata>
  <rdf:RDF xmlns:dc="http://purl.org/dc/elements/1.1/" xmlns:cc="http://creativecommons.org/ns#" xmlns:rdf="http://www.w3.org/1999/02/22-rdf-syntax-ns#">
   <cc:Work>
    <dc:type rdf:resource="http://purl.org/dc/dcmitype/StillImage"/>
    <dc:date>2024-03-08T12:51:14.304235</dc:date>
    <dc:format>image/svg+xml</dc:format>
    <dc:creator>
     <cc:Agent>
      <dc:title>Matplotlib v3.8.2, https://matplotlib.org/</dc:title>
     </cc:Agent>
    </dc:creator>
   </cc:Work>
  </rdf:RDF>
 </metadata>
 <defs>
  <style type="text/css">*{stroke-linejoin: round; stroke-linecap: butt}</style>
 </defs>
 <g id="figure_1">
  <g id="patch_1">
   <path d="M 0 345.6 
L 460.8 345.6 
L 460.8 0 
L 0 0 
z
" style="fill: #ffffff"/>
  </g>
  <g id="axes_1">
   <g id="patch_2">
    <path d="M 57.6 307.584 
L 414.72 307.584 
L 414.72 41.472 
L 57.6 41.472 
z
" style="fill: #ffffff"/>
   </g>
   <g id="matplotlib.axis_1">
    <g id="xtick_1">
     <g id="line2d_1">
      <defs>
       <path id="m8c46e3d635" d="M 0 0 
L 0 3.5 
" style="stroke: #000000; stroke-width: 0.8"/>
      </defs>
      <g>
       <use xlink:href="#m8c46e3d635" x="71.657325" y="307.584" style="stroke: #000000; stroke-width: 0.8"/>
      </g>
     </g>
     <g id="text_1">
      <!-- 0.0 -->
      <g transform="translate(63.705762 322.182437) scale(0.1 -0.1)">
       <defs>
        <path id="DejaVuSans-30" d="M 2034 4250 
Q 1547 4250 1301 3770 
Q 1056 3291 1056 2328 
Q 1056 1369 1301 889 
Q 1547 409 2034 409 
Q 2525 409 2770 889 
Q 3016 1369 3016 2328 
Q 3016 3291 2770 3770 
Q 2525 4250 2034 4250 
z
M 2034 4750 
Q 2819 4750 3233 4129 
Q 3647 3509 3647 2328 
Q 3647 1150 3233 529 
Q 2819 -91 2034 -91 
Q 1250 -91 836 529 
Q 422 1150 422 2328 
Q 422 3509 836 4129 
Q 1250 4750 2034 4750 
z
" transform="scale(0.015625)"/>
        <path id="DejaVuSans-2e" d="M 684 794 
L 1344 794 
L 1344 0 
L 684 0 
L 684 794 
z
" transform="scale(0.015625)"/>
       </defs>
       <use xlink:href="#DejaVuSans-30"/>
       <use xlink:href="#DejaVuSans-2e" x="63.623047"/>
       <use xlink:href="#DejaVuSans-30" x="95.410156"/>
      </g>
     </g>
    </g>
    <g id="xtick_2">
     <g id="line2d_2">
      <g>
       <use xlink:href="#m8c46e3d635" x="117.072828" y="307.584" style="stroke: #000000; stroke-width: 0.8"/>
      </g>
     </g>
     <g id="text_2">
      <!-- 0.5 -->
      <g transform="translate(109.121266 322.182437) scale(0.1 -0.1)">
       <defs>
        <path id="DejaVuSans-35" d="M 691 4666 
L 3169 4666 
L 3169 4134 
L 1269 4134 
L 1269 2991 
Q 1406 3038 1543 3061 
Q 1681 3084 1819 3084 
Q 2600 3084 3056 2656 
Q 3513 2228 3513 1497 
Q 3513 744 3044 326 
Q 2575 -91 1722 -91 
Q 1428 -91 1123 -41 
Q 819 9 494 109 
L 494 744 
Q 775 591 1075 516 
Q 1375 441 1709 441 
Q 2250 441 2565 725 
Q 2881 1009 2881 1497 
Q 2881 1984 2565 2268 
Q 2250 2553 1709 2553 
Q 1456 2553 1204 2497 
Q 953 2441 691 2322 
L 691 4666 
z
" transform="scale(0.015625)"/>
       </defs>
       <use xlink:href="#DejaVuSans-30"/>
       <use xlink:href="#DejaVuSans-2e" x="63.623047"/>
       <use xlink:href="#DejaVuSans-35" x="95.410156"/>
      </g>
     </g>
    </g>
    <g id="xtick_3">
     <g id="line2d_3">
      <g>
       <use xlink:href="#m8c46e3d635" x="162.488332" y="307.584" style="stroke: #000000; stroke-width: 0.8"/>
      </g>
     </g>
     <g id="text_3">
      <!-- 1.0 -->
      <g transform="translate(154.53677 322.182437) scale(0.1 -0.1)">
       <defs>
        <path id="DejaVuSans-31" d="M 794 531 
L 1825 531 
L 1825 4091 
L 703 3866 
L 703 4441 
L 1819 4666 
L 2450 4666 
L 2450 531 
L 3481 531 
L 3481 0 
L 794 0 
L 794 531 
z
" transform="scale(0.015625)"/>
       </defs>
       <use xlink:href="#DejaVuSans-31"/>
       <use xlink:href="#DejaVuSans-2e" x="63.623047"/>
       <use xlink:href="#DejaVuSans-30" x="95.410156"/>
      </g>
     </g>
    </g>
    <g id="xtick_4">
     <g id="line2d_4">
      <g>
       <use xlink:href="#m8c46e3d635" x="207.903836" y="307.584" style="stroke: #000000; stroke-width: 0.8"/>
      </g>
     </g>
     <g id="text_4">
      <!-- 1.5 -->
      <g transform="translate(199.952274 322.182437) scale(0.1 -0.1)">
       <use xlink:href="#DejaVuSans-31"/>
       <use xlink:href="#DejaVuSans-2e" x="63.623047"/>
       <use xlink:href="#DejaVuSans-35" x="95.410156"/>
      </g>
     </g>
    </g>
    <g id="xtick_5">
     <g id="line2d_5">
      <g>
       <use xlink:href="#m8c46e3d635" x="253.31934" y="307.584" style="stroke: #000000; stroke-width: 0.8"/>
      </g>
     </g>
     <g id="text_5">
      <!-- 2.0 -->
      <g transform="translate(245.367777 322.182437) scale(0.1 -0.1)">
       <defs>
        <path id="DejaVuSans-32" d="M 1228 531 
L 3431 531 
L 3431 0 
L 469 0 
L 469 531 
Q 828 903 1448 1529 
Q 2069 2156 2228 2338 
Q 2531 2678 2651 2914 
Q 2772 3150 2772 3378 
Q 2772 3750 2511 3984 
Q 2250 4219 1831 4219 
Q 1534 4219 1204 4116 
Q 875 4013 500 3803 
L 500 4441 
Q 881 4594 1212 4672 
Q 1544 4750 1819 4750 
Q 2544 4750 2975 4387 
Q 3406 4025 3406 3419 
Q 3406 3131 3298 2873 
Q 3191 2616 2906 2266 
Q 2828 2175 2409 1742 
Q 1991 1309 1228 531 
z
" transform="scale(0.015625)"/>
       </defs>
       <use xlink:href="#DejaVuSans-32"/>
       <use xlink:href="#DejaVuSans-2e" x="63.623047"/>
       <use xlink:href="#DejaVuSans-30" x="95.410156"/>
      </g>
     </g>
    </g>
    <g id="xtick_6">
     <g id="line2d_6">
      <g>
       <use xlink:href="#m8c46e3d635" x="298.734844" y="307.584" style="stroke: #000000; stroke-width: 0.8"/>
      </g>
     </g>
     <g id="text_6">
      <!-- 2.5 -->
      <g transform="translate(290.783281 322.182437) scale(0.1 -0.1)">
       <use xlink:href="#DejaVuSans-32"/>
       <use xlink:href="#DejaVuSans-2e" x="63.623047"/>
       <use xlink:href="#DejaVuSans-35" x="95.410156"/>
      </g>
     </g>
    </g>
    <g id="xtick_7">
     <g id="line2d_7">
      <g>
       <use xlink:href="#m8c46e3d635" x="344.150347" y="307.584" style="stroke: #000000; stroke-width: 0.8"/>
      </g>
     </g>
     <g id="text_7">
      <!-- 3.0 -->
      <g transform="translate(336.198785 322.182437) scale(0.1 -0.1)">
       <defs>
        <path id="DejaVuSans-33" d="M 2597 2516 
Q 3050 2419 3304 2112 
Q 3559 1806 3559 1356 
Q 3559 666 3084 287 
Q 2609 -91 1734 -91 
Q 1441 -91 1130 -33 
Q 819 25 488 141 
L 488 750 
Q 750 597 1062 519 
Q 1375 441 1716 441 
Q 2309 441 2620 675 
Q 2931 909 2931 1356 
Q 2931 1769 2642 2001 
Q 2353 2234 1838 2234 
L 1294 2234 
L 1294 2753 
L 1863 2753 
Q 2328 2753 2575 2939 
Q 2822 3125 2822 3475 
Q 2822 3834 2567 4026 
Q 2313 4219 1838 4219 
Q 1578 4219 1281 4162 
Q 984 4106 628 3988 
L 628 4550 
Q 988 4650 1302 4700 
Q 1616 4750 1894 4750 
Q 2613 4750 3031 4423 
Q 3450 4097 3450 3541 
Q 3450 3153 3228 2886 
Q 3006 2619 2597 2516 
z
" transform="scale(0.015625)"/>
       </defs>
       <use xlink:href="#DejaVuSans-33"/>
       <use xlink:href="#DejaVuSans-2e" x="63.623047"/>
       <use xlink:href="#DejaVuSans-30" x="95.410156"/>
      </g>
     </g>
    </g>
    <g id="xtick_8">
     <g id="line2d_8">
      <g>
       <use xlink:href="#m8c46e3d635" x="389.565851" y="307.584" style="stroke: #000000; stroke-width: 0.8"/>
      </g>
     </g>
     <g id="text_8">
      <!-- 3.5 -->
      <g transform="translate(381.614289 322.182437) scale(0.1 -0.1)">
       <use xlink:href="#DejaVuSans-33"/>
       <use xlink:href="#DejaVuSans-2e" x="63.623047"/>
       <use xlink:href="#DejaVuSans-35" x="95.410156"/>
      </g>
     </g>
    </g>
    <g id="text_9">
     <!-- 1e6 -->
     <g transform="translate(395.841875 334.860562) scale(0.1 -0.1)">
      <defs>
       <path id="DejaVuSans-65" d="M 3597 1894 
L 3597 1613 
L 953 1613 
Q 991 1019 1311 708 
Q 1631 397 2203 397 
Q 2534 397 2845 478 
Q 3156 559 3463 722 
L 3463 178 
Q 3153 47 2828 -22 
Q 2503 -91 2169 -91 
Q 1331 -91 842 396 
Q 353 884 353 1716 
Q 353 2575 817 3079 
Q 1281 3584 2069 3584 
Q 2775 3584 3186 3129 
Q 3597 2675 3597 1894 
z
M 3022 2063 
Q 3016 2534 2758 2815 
Q 2500 3097 2075 3097 
Q 1594 3097 1305 2825 
Q 1016 2553 972 2059 
L 3022 2063 
z
" transform="scale(0.015625)"/>
       <path id="DejaVuSans-36" d="M 2113 2584 
Q 1688 2584 1439 2293 
Q 1191 2003 1191 1497 
Q 1191 994 1439 701 
Q 1688 409 2113 409 
Q 2538 409 2786 701 
Q 3034 994 3034 1497 
Q 3034 2003 2786 2293 
Q 2538 2584 2113 2584 
z
M 3366 4563 
L 3366 3988 
Q 3128 4100 2886 4159 
Q 2644 4219 2406 4219 
Q 1781 4219 1451 3797 
Q 1122 3375 1075 2522 
Q 1259 2794 1537 2939 
Q 1816 3084 2150 3084 
Q 2853 3084 3261 2657 
Q 3669 2231 3669 1497 
Q 3669 778 3244 343 
Q 2819 -91 2113 -91 
Q 1303 -91 875 529 
Q 447 1150 447 2328 
Q 447 3434 972 4092 
Q 1497 4750 2381 4750 
Q 2619 4750 2861 4703 
Q 3103 4656 3366 4563 
z
" transform="scale(0.015625)"/>
      </defs>
      <use xlink:href="#DejaVuSans-31"/>
      <use xlink:href="#DejaVuSans-65" x="63.623047"/>
      <use xlink:href="#DejaVuSans-36" x="125.146484"/>
     </g>
    </g>
   </g>
   <g id="matplotlib.axis_2">
    <g id="ytick_1">
     <g id="line2d_9">
      <defs>
       <path id="mb4bba70ea2" d="M 0 0 
L -3.5 0 
" style="stroke: #000000; stroke-width: 0.8"/>
      </defs>
      <g>
       <use xlink:href="#mb4bba70ea2" x="57.6" y="295.488" style="stroke: #000000; stroke-width: 0.8"/>
      </g>
     </g>
     <g id="text_10">
      <!-- 0.0 -->
      <g transform="translate(34.696875 299.287219) scale(0.1 -0.1)">
       <use xlink:href="#DejaVuSans-30"/>
       <use xlink:href="#DejaVuSans-2e" x="63.623047"/>
       <use xlink:href="#DejaVuSans-30" x="95.410156"/>
      </g>
     </g>
    </g>
    <g id="ytick_2">
     <g id="line2d_10">
      <g>
       <use xlink:href="#mb4bba70ea2" x="57.6" y="263.656421" style="stroke: #000000; stroke-width: 0.8"/>
      </g>
     </g>
     <g id="text_11">
      <!-- 2.5 -->
      <g transform="translate(34.696875 267.45564) scale(0.1 -0.1)">
       <use xlink:href="#DejaVuSans-32"/>
       <use xlink:href="#DejaVuSans-2e" x="63.623047"/>
       <use xlink:href="#DejaVuSans-35" x="95.410156"/>
      </g>
     </g>
    </g>
    <g id="ytick_3">
     <g id="line2d_11">
      <g>
       <use xlink:href="#mb4bba70ea2" x="57.6" y="231.824842" style="stroke: #000000; stroke-width: 0.8"/>
      </g>
     </g>
     <g id="text_12">
      <!-- 5.0 -->
      <g transform="translate(34.696875 235.624061) scale(0.1 -0.1)">
       <use xlink:href="#DejaVuSans-35"/>
       <use xlink:href="#DejaVuSans-2e" x="63.623047"/>
       <use xlink:href="#DejaVuSans-30" x="95.410156"/>
      </g>
     </g>
    </g>
    <g id="ytick_4">
     <g id="line2d_12">
      <g>
       <use xlink:href="#mb4bba70ea2" x="57.6" y="199.993263" style="stroke: #000000; stroke-width: 0.8"/>
      </g>
     </g>
     <g id="text_13">
      <!-- 7.5 -->
      <g transform="translate(34.696875 203.792482) scale(0.1 -0.1)">
       <defs>
        <path id="DejaVuSans-37" d="M 525 4666 
L 3525 4666 
L 3525 4397 
L 1831 0 
L 1172 0 
L 2766 4134 
L 525 4134 
L 525 4666 
z
" transform="scale(0.015625)"/>
       </defs>
       <use xlink:href="#DejaVuSans-37"/>
       <use xlink:href="#DejaVuSans-2e" x="63.623047"/>
       <use xlink:href="#DejaVuSans-35" x="95.410156"/>
      </g>
     </g>
    </g>
    <g id="ytick_5">
     <g id="line2d_13">
      <g>
       <use xlink:href="#mb4bba70ea2" x="57.6" y="168.161684" style="stroke: #000000; stroke-width: 0.8"/>
      </g>
     </g>
     <g id="text_14">
      <!-- 10.0 -->
      <g transform="translate(28.334375 171.960903) scale(0.1 -0.1)">
       <use xlink:href="#DejaVuSans-31"/>
       <use xlink:href="#DejaVuSans-30" x="63.623047"/>
       <use xlink:href="#DejaVuSans-2e" x="127.246094"/>
       <use xlink:href="#DejaVuSans-30" x="159.033203"/>
      </g>
     </g>
    </g>
    <g id="ytick_6">
     <g id="line2d_14">
      <g>
       <use xlink:href="#mb4bba70ea2" x="57.6" y="136.330105" style="stroke: #000000; stroke-width: 0.8"/>
      </g>
     </g>
     <g id="text_15">
      <!-- 12.5 -->
      <g transform="translate(28.334375 140.129324) scale(0.1 -0.1)">
       <use xlink:href="#DejaVuSans-31"/>
       <use xlink:href="#DejaVuSans-32" x="63.623047"/>
       <use xlink:href="#DejaVuSans-2e" x="127.246094"/>
       <use xlink:href="#DejaVuSans-35" x="159.033203"/>
      </g>
     </g>
    </g>
    <g id="ytick_7">
     <g id="line2d_15">
      <g>
       <use xlink:href="#mb4bba70ea2" x="57.6" y="104.498526" style="stroke: #000000; stroke-width: 0.8"/>
      </g>
     </g>
     <g id="text_16">
      <!-- 15.0 -->
      <g transform="translate(28.334375 108.297745) scale(0.1 -0.1)">
       <use xlink:href="#DejaVuSans-31"/>
       <use xlink:href="#DejaVuSans-35" x="63.623047"/>
       <use xlink:href="#DejaVuSans-2e" x="127.246094"/>
       <use xlink:href="#DejaVuSans-30" x="159.033203"/>
      </g>
     </g>
    </g>
    <g id="ytick_8">
     <g id="line2d_16">
      <g>
       <use xlink:href="#mb4bba70ea2" x="57.6" y="72.666947" style="stroke: #000000; stroke-width: 0.8"/>
      </g>
     </g>
     <g id="text_17">
      <!-- 17.5 -->
      <g transform="translate(28.334375 76.466166) scale(0.1 -0.1)">
       <use xlink:href="#DejaVuSans-31"/>
       <use xlink:href="#DejaVuSans-37" x="63.623047"/>
       <use xlink:href="#DejaVuSans-2e" x="127.246094"/>
       <use xlink:href="#DejaVuSans-35" x="159.033203"/>
      </g>
     </g>
    </g>
   </g>
   <g id="line2d_17">
    <path d="M 73.832727 282.755368 
L 74.037097 295.488 
L 74.149727 282.755368 
L 74.354097 295.488 
L 74.465819 282.755368 
L 74.670189 295.488 
L 74.78282 282.755368 
L 74.987189 295.488 
L 75.106178 282.755368 
L 75.310548 295.488 
L 75.423178 282.755368 
L 75.627548 295.488 
L 75.738362 282.755368 
L 75.942732 295.488 
L 76.054454 282.755368 
L 76.258823 295.488 
L 76.376904 282.755368 
L 76.581274 295.488 
L 76.697537 282.755368 
L 76.901907 295.488 
L 77.015446 282.755368 
L 77.219816 295.488 
L 77.334263 282.755368 
L 77.538632 295.488 
L 77.654896 282.755368 
L 77.859266 295.488 
L 77.976438 282.755368 
L 78.180808 295.488 
L 78.298888 282.755368 
L 78.503258 295.488 
L 78.611347 282.755368 
L 78.815716 295.488 
L 84.449055 282.755368 
L 84.699749 193.626947 
L 84.70974 206.359579 
L 84.73699 219.092211 
L 84.975875 206.359579 
L 85.069431 231.824842 
L 85.285609 219.092211 
L 85.438205 231.824842 
L 85.465454 244.557474 
L 85.603518 231.824842 
L 85.777913 244.557474 
L 85.804254 257.290105 
L 85.916885 244.557474 
L 86.143962 257.290105 
L 86.171211 270.022737 
L 86.237518 257.290105 
L 86.500928 270.022737 
L 86.528177 282.755368 
L 86.554518 270.022737 
L 86.862435 282.755368 
L 86.872427 270.022737 
L 87.045006 282.755368 
L 87.193968 270.022737 
L 87.238476 282.755368 
L 87.507335 270.022737 
L 87.711705 295.488 
L 87.824336 282.755368 
L 88.028705 295.488 
L 88.135886 282.755368 
L 88.340256 295.488 
L 88.451978 282.755368 
L 88.656348 295.488 
L 88.774428 282.755368 
L 88.978798 295.488 
L 89.086887 282.755368 
L 89.291256 295.488 
L 89.400254 282.755368 
L 89.604623 295.488 
L 89.722704 282.755368 
L 89.927074 295.488 
L 90.044246 282.755368 
L 90.248615 295.488 
L 90.366696 282.755368 
L 90.571065 295.488 
L 90.676429 282.755368 
L 90.880799 295.488 
L 91.001604 282.755368 
L 91.205974 295.488 
L 91.317696 282.755368 
L 91.522066 295.488 
L 91.642871 282.755368 
L 91.847241 295.488 
L 91.958963 282.755368 
L 92.163333 295.488 
L 92.273238 282.755368 
L 92.477608 295.488 
L 92.586605 282.755368 
L 92.790975 295.488 
L 92.902697 282.755368 
L 93.107067 295.488 
L 93.219698 282.755368 
L 93.424067 295.488 
L 93.532156 282.755368 
L 93.736526 295.488 
L 93.849156 282.755368 
L 94.053526 295.488 
L 94.16979 282.755368 
L 94.37416 295.488 
L 94.490423 282.755368 
L 94.694793 295.488 
L 94.805607 282.755368 
L 95.009977 295.488 
L 95.121699 282.755368 
L 95.326069 295.488 
L 95.438699 282.755368 
L 95.643069 295.488 
L 95.759333 282.755368 
L 95.963702 295.488 
L 96.074516 282.755368 
L 96.278886 295.488 
L 96.394241 282.755368 
L 96.598611 295.488 
L 96.716691 282.755368 
L 96.921061 295.488 
L 97.02915 282.755368 
L 97.23352 295.488 
L 97.344334 282.755368 
L 97.548703 295.488 
L 97.661334 282.755368 
L 97.865704 295.488 
L 98.295334 282.755368 
L 98.499704 295.488 
L 98.605976 282.755368 
L 98.810346 295.488 
L 98.931151 282.755368 
L 99.135521 295.488 
L 99.255418 282.755368 
L 99.459788 295.488 
L 99.578776 282.755368 
L 99.783146 295.488 
L 99.902135 282.755368 
L 100.106505 295.488 
L 100.217318 282.755368 
L 100.421688 295.488 
L 100.536135 282.755368 
L 100.740505 295.488 
L 101.17831 282.755368 
L 101.38268 295.488 
L 101.494402 282.755368 
L 101.698772 295.488 
L 101.806861 282.755368 
L 102.011231 295.488 
L 102.122953 282.755368 
L 102.327323 295.488 
L 102.44177 282.755368 
L 102.646139 295.488 
L 102.757862 282.755368 
L 102.962231 295.488 
L 103.07577 282.755368 
L 103.28014 295.488 
L 103.393679 282.755368 
L 103.598048 295.488 
L 103.713404 282.755368 
L 103.917774 295.488 
L 104.031312 282.755368 
L 104.235682 295.488 
L 104.353762 282.755368 
L 104.558132 295.488 
L 104.670763 282.755368 
L 104.875132 295.488 
L 104.985038 282.755368 
L 105.189408 295.488 
L 105.294772 282.755368 
L 105.499141 295.488 
L 105.615405 282.755368 
L 105.819775 295.488 
L 105.931497 282.755368 
L 106.135867 295.488 
L 106.253039 282.755368 
L 106.457409 295.488 
L 106.573672 282.755368 
L 106.778042 295.488 
L 106.894306 282.755368 
L 107.098675 295.488 
L 107.212214 282.755368 
L 107.416584 295.488 
L 107.525581 282.755368 
L 107.729951 295.488 
L 107.842581 282.755368 
L 108.046951 295.488 
L 108.163215 282.755368 
L 108.367585 295.488 
L 108.478398 282.755368 
L 108.682768 295.488 
L 108.792674 282.755368 
L 108.997044 295.488 
L 109.106041 282.755368 
L 109.310411 295.488 
L 109.425766 282.755368 
L 109.630136 295.488 
L 109.740949 282.755368 
L 109.945319 295.488 
L 110.061583 282.755368 
L 110.265953 295.488 
L 110.382216 282.755368 
L 110.586586 295.488 
L 111.281443 282.755368 
L 111.485813 295.488 
L 111.504888 282.755368 
L 111.709257 295.488 
L 111.73469 282.755368 
L 111.93906 295.488 
L 111.959043 282.755368 
L 112.163412 295.488 
L 112.187029 282.755368 
L 112.391398 295.488 
L 112.412289 282.755368 
L 112.616659 295.488 
L 112.634825 282.755368 
L 112.839195 295.488 
L 112.859178 282.755368 
L 113.063548 295.488 
L 113.082622 282.755368 
L 113.286992 295.488 
L 113.306975 282.755368 
L 113.511345 295.488 
L 113.539502 282.755368 
L 113.743872 295.488 
L 113.767488 282.755368 
L 113.971858 295.488 
L 113.999107 282.755368 
L 114.203477 295.488 
L 114.226185 282.755368 
L 114.430554 295.488 
L 114.456895 282.755368 
L 114.661265 295.488 
L 114.687606 282.755368 
L 114.891976 295.488 
L 114.913775 282.755368 
L 115.118145 295.488 
L 115.141761 282.755368 
L 115.346131 295.488 
L 126.26856 282.755368 
L 126.472929 295.488 
L 126.497454 282.755368 
L 126.701824 295.488 
L 126.72544 282.755368 
L 126.929809 295.488 
L 126.950701 282.755368 
L 127.15507 295.488 
L 127.177778 282.755368 
L 127.382148 295.488 
L 127.409397 282.755368 
L 127.613767 295.488 
L 127.836303 104.498526 
L 127.873544 142.696421 
L 128.042489 129.963789 
L 128.174194 91.765895 
L 128.181461 104.498526 
L 128.661048 91.765895 
L 128.708281 104.498526 
L 129.16516 91.765895 
L 129.212393 104.498526 
L 129.639298 91.765895 
L 129.681081 104.498526 
L 130.119794 91.765895 
L 130.160668 104.498526 
L 130.652064 104.498526 
L 130.665689 117.231158 
L 130.666597 104.498526 
L 131.148001 117.231158 
L 131.176159 104.498526 
L 131.189784 117.231158 
L 131.26699 104.498526 
L 131.608515 91.765895 
L 131.650297 129.963789 
L 131.742036 117.231158 
L 132.118077 104.498526 
L 132.167125 155.429053 
L 132.198008 142.696421 
L 132.418727 129.963789 
L 132.640355 142.696421 
L 132.645805 129.963789 
L 132.682137 168.161684 
L 133.099051 155.429053 
L 133.15355 206.359579 
L 133.553206 180.894316 
L 133.644037 231.824842 
L 133.774834 219.092211 
L 133.99737 206.359579 
L 134.141791 219.092211 
L 134.182665 257.290105 
L 134.229897 244.557474 
L 134.456975 231.824842 
L 134.652262 244.557474 
L 134.693136 270.022737 
L 135.149107 244.557474 
L 135.235397 282.755368 
L 135.372552 270.022737 
L 135.558755 282.755368 
L 135.600537 270.022737 
L 135.804907 295.488 
L 135.833973 282.755368 
L 136.038343 295.488 
L 136.063775 282.755368 
L 136.268145 295.488 
L 136.289036 282.755368 
L 136.493406 295.488 
L 136.518839 282.755368 
L 136.723209 295.488 
L 136.748641 282.755368 
L 136.953011 295.488 
L 136.970269 282.755368 
L 137.174639 295.488 
L 137.194622 282.755368 
L 137.398991 295.488 
L 137.420791 282.755368 
L 137.625161 295.488 
L 137.643327 282.755368 
L 137.847696 295.488 
L 137.869496 282.755368 
L 138.073866 295.488 
L 138.097482 282.755368 
L 138.301852 295.488 
L 138.326376 282.755368 
L 138.530746 295.488 
L 138.553453 282.755368 
L 138.757823 295.488 
L 138.780531 282.755368 
L 138.984901 295.488 
L 139.007608 282.755368 
L 139.211978 295.488 
L 139.237411 282.755368 
L 139.441781 295.488 
L 139.465397 282.755368 
L 139.669766 295.488 
L 139.697016 282.755368 
L 139.923185 270.022737 
L 140.127555 295.488 
L 140.155712 282.755368 
L 140.360082 295.488 
L 140.380973 282.755368 
L 140.585343 295.488 
L 140.605326 282.755368 
L 140.809696 295.488 
L 140.836945 282.755368 
L 141.041315 295.488 
L 141.061298 282.755368 
L 141.265667 295.488 
L 141.284742 282.755368 
L 141.489112 295.488 
L 141.507278 282.755368 
L 141.711648 295.488 
L 141.737989 282.755368 
L 141.942358 295.488 
L 141.965066 282.755368 
L 142.169436 295.488 
L 142.194869 282.755368 
L 142.399238 295.488 
L 142.418313 282.755368 
L 142.622683 295.488 
L 142.641757 282.755368 
L 142.846127 295.488 
L 142.868835 282.755368 
L 143.073204 295.488 
L 143.094095 282.755368 
L 143.298465 295.488 
L 143.324806 282.755368 
L 143.529176 295.488 
L 143.555517 282.755368 
L 143.759887 295.488 
L 143.780778 282.755368 
L 143.985148 295.488 
L 144.012397 282.755368 
L 144.216767 295.488 
L 144.240383 282.755368 
L 144.444753 295.488 
L 144.468369 282.755368 
L 144.672738 295.488 
L 144.700896 282.755368 
L 144.905266 295.488 
L 144.925249 282.755368 
L 145.129618 295.488 
L 145.151418 282.755368 
L 145.355788 295.488 
L 145.384853 282.755368 
L 145.589223 295.488 
L 145.605573 282.755368 
L 145.809943 295.488 
L 145.835375 282.755368 
L 146.039745 295.488 
L 146.067903 282.755368 
L 146.272272 295.488 
L 146.298613 282.755368 
L 146.502983 295.488 
L 146.525691 282.755368 
L 146.730061 295.488 
L 146.75186 282.755368 
L 146.95623 295.488 
L 146.978029 282.755368 
L 147.182399 295.488 
L 147.20874 282.755368 
L 147.41311 295.488 
L 147.436726 282.755368 
L 147.641096 295.488 
L 147.664712 282.755368 
L 147.869082 295.488 
L 147.895423 282.755368 
L 148.099792 295.488 
L 148.124317 282.755368 
L 148.328686 295.488 
L 148.351394 282.755368 
L 148.555764 295.488 
L 148.577563 282.755368 
L 148.781933 295.488 
L 148.801916 282.755368 
L 149.006286 295.488 
L 149.026269 282.755368 
L 149.230638 295.488 
L 149.253346 282.755368 
L 149.457716 295.488 
L 149.483149 282.755368 
L 149.687518 295.488 
L 149.713859 282.755368 
L 149.918229 295.488 
L 149.945478 282.755368 
L 150.149848 295.488 
L 150.171648 282.755368 
L 150.376017 295.488 
L 150.396908 282.755368 
L 150.601278 295.488 
L 150.622169 282.755368 
L 150.826539 295.488 
L 150.846522 282.755368 
L 151.050892 295.488 
L 151.078141 282.755368 
L 151.282511 295.488 
L 151.308852 282.755368 
L 151.513222 295.488 
L 151.541379 282.755368 
L 151.745749 295.488 
L 151.76664 282.755368 
L 151.97101 295.488 
L 151.992809 282.755368 
L 152.197179 295.488 
L 152.21807 282.755368 
L 152.42244 295.488 
L 152.450598 282.755368 
L 152.654967 295.488 
L 152.67495 282.755368 
L 152.87932 295.488 
L 152.901119 282.755368 
L 153.105489 295.488 
L 153.351641 282.755368 
L 153.556011 295.488 
L 153.580535 282.755368 
L 153.784905 295.488 
L 153.810338 282.755368 
L 154.014708 295.488 
L 154.04014 282.755368 
L 154.24451 295.488 
L 154.270851 282.755368 
L 154.475221 295.488 
L 154.50247 282.755368 
L 154.70684 295.488 
L 154.727731 282.755368 
L 154.932101 295.488 
L 154.960258 282.755368 
L 155.164628 295.488 
L 155.190061 282.755368 
L 155.394431 295.488 
L 155.41623 282.755368 
L 155.6206 295.488 
L 155.639674 282.755368 
L 155.844044 295.488 
L 155.868568 282.755368 
L 156.072938 295.488 
L 156.094738 282.755368 
L 156.299107 295.488 
L 156.31909 282.755368 
L 156.52346 295.488 
L 156.544351 282.755368 
L 156.748721 295.488 
L 156.769612 282.755368 
L 156.973982 295.488 
L 156.995781 282.755368 
L 157.200151 295.488 
L 157.224675 282.755368 
L 157.429045 295.488 
L 157.454478 282.755368 
L 157.658848 295.488 
L 157.681555 282.755368 
L 157.885925 295.488 
L 157.906816 282.755368 
L 158.111186 295.488 
L 158.127536 282.755368 
L 158.331905 295.488 
L 158.353705 282.755368 
L 158.558075 295.488 
L 158.576241 282.755368 
L 158.78061 295.488 
L 158.804227 282.755368 
L 159.008596 295.488 
L 159.025854 282.755368 
L 159.230224 295.488 
L 159.255657 282.755368 
L 159.460026 295.488 
L 159.480918 282.755368 
L 159.685287 295.488 
L 159.707087 282.755368 
L 159.911457 295.488 
L 159.928714 282.755368 
L 160.133084 295.488 
L 160.153067 282.755368 
L 160.357437 295.488 
L 160.382869 282.755368 
L 160.587239 295.488 
L 160.609039 282.755368 
L 160.813408 295.488 
L 160.842474 282.755368 
L 161.046844 295.488 
L 161.065919 282.755368 
L 161.270288 295.488 
L 161.294813 282.755368 
L 161.499183 295.488 
L 161.519165 282.755368 
L 161.723535 295.488 
L 161.744426 282.755368 
L 161.948796 295.488 
L 161.966962 282.755368 
L 162.171332 295.488 
L 162.195856 282.755368 
L 162.400226 295.488 
L 162.419301 282.755368 
L 162.62367 295.488 
L 162.64002 282.755368 
L 162.84439 295.488 
L 162.868006 282.755368 
L 163.072376 295.488 
L 163.095083 282.755368 
L 163.299453 295.488 
L 163.325794 282.755368 
L 163.530164 295.488 
L 163.551055 282.755368 
L 163.755425 295.488 
L 163.775408 282.755368 
L 163.979777 295.488 
L 164.00521 282.755368 
L 164.20958 295.488 
L 164.228654 282.755368 
L 164.433024 295.488 
L 164.461182 282.755368 
L 164.665551 295.488 
L 164.688259 282.755368 
L 164.892629 295.488 
L 164.91897 282.755368 
L 165.12334 295.488 
L 165.146048 282.755368 
L 165.350417 295.488 
L 165.378575 282.755368 
L 165.582945 295.488 
L 165.607469 282.755368 
L 165.811839 295.488 
L 165.831822 282.755368 
L 166.036191 295.488 
L 166.057991 282.755368 
L 166.262361 295.488 
L 166.28416 282.755368 
L 166.48853 295.488 
L 166.508513 282.755368 
L 166.712882 295.488 
L 166.734682 282.755368 
L 166.939052 295.488 
L 166.963576 282.755368 
L 167.167946 295.488 
L 167.191562 282.755368 
L 167.395932 295.488 
L 167.413189 282.755368 
L 167.617559 295.488 
L 167.640267 282.755368 
L 167.844637 295.488 
L 167.867344 282.755368 
L 168.071714 295.488 
L 168.092605 282.755368 
L 168.296975 295.488 
L 168.31605 282.755368 
L 168.520419 295.488 
L 168.537677 282.755368 
L 168.742047 295.488 
L 168.76748 282.755368 
L 168.97185 295.488 
L 168.997282 282.755368 
L 169.201652 295.488 
L 169.226176 282.755368 
L 169.430546 295.488 
L 169.455979 282.755368 
L 169.660349 295.488 
L 169.684873 282.755368 
L 169.889243 295.488 
L 169.906501 282.755368 
L 170.11087 295.488 
L 170.136303 282.755368 
L 170.340673 295.488 
L 170.364289 282.755368 
L 170.568659 295.488 
L 170.595 282.755368 
L 170.799369 295.488 
L 170.823894 282.755368 
L 171.028264 295.488 
L 171.047338 282.755368 
L 171.251708 295.488 
L 171.498768 282.755368 
L 171.703138 295.488 
L 171.730387 282.755368 
L 171.934757 295.488 
L 171.955648 282.755368 
L 172.160018 295.488 
L 172.180909 282.755368 
L 172.385279 295.488 
L 172.402537 282.755368 
L 172.606906 295.488 
L 172.626889 282.755368 
L 172.831259 295.488 
L 172.85215 282.755368 
L 173.05652 295.488 
L 173.077411 282.755368 
L 173.281781 295.488 
L 173.305397 282.755368 
L 173.509767 295.488 
L 173.537924 282.755368 
L 173.742294 295.488 
L 173.764093 282.755368 
L 173.968463 295.488 
L 173.994804 282.755368 
L 174.199174 295.488 
L 174.221882 282.755368 
L 174.426252 295.488 
L 174.451684 282.755368 
L 174.656054 295.488 
L 174.676037 282.755368 
L 174.880407 295.488 
L 174.904931 282.755368 
L 175.109301 295.488 
L 175.132917 282.755368 
L 175.337287 295.488 
L 175.355453 282.755368 
L 175.559823 295.488 
L 175.583439 282.755368 
L 175.787808 295.488 
L 175.806883 282.755368 
L 176.011253 295.488 
L 176.030327 282.755368 
L 176.234697 295.488 
L 176.26013 282.755368 
L 176.464499 295.488 
L 176.481757 282.755368 
L 176.686127 295.488 
L 176.70611 282.755368 
L 176.91048 295.488 
L 176.934096 282.755368 
L 177.138465 295.488 
L 177.158448 282.755368 
L 177.362818 295.488 
L 177.384617 282.755368 
L 177.588987 295.488 
L 177.616237 282.755368 
L 177.820606 295.488 
L 177.838772 282.755368 
L 178.043142 295.488 
L 179.163997 282.755368 
L 179.368367 295.488 
L 179.475547 282.755368 
L 179.679917 295.488 
L 179.787098 282.755368 
L 179.991467 295.488 
L 180.104098 282.755368 
L 180.308468 295.488 
L 180.423823 282.755368 
L 180.628193 295.488 
L 180.740823 282.755368 
L 180.945193 295.488 
L 181.068723 282.755368 
L 181.273093 295.488 
L 181.382998 282.755368 
L 181.587368 295.488 
L 181.705448 282.755368 
L 181.909818 295.488 
L 182.023357 282.755368 
L 182.227727 295.488 
L 182.333999 282.755368 
L 182.538369 295.488 
L 188.007304 282.755368 
L 188.211674 295.488 
L 188.47145 193.626947 
L 188.480533 206.359579 
L 188.643121 231.824842 
L 188.693078 219.092211 
L 188.964663 231.824842 
L 188.991004 244.557474 
L 189.311637 257.290105 
L 189.322537 244.557474 
L 189.338886 257.290105 
L 189.634087 244.557474 
L 189.715835 270.022737 
L 189.961079 257.290105 
L 190.133658 282.755368 
L 190.270813 270.022737 
L 190.395251 282.755368 
L 190.581455 270.022737 
L 190.785824 295.488 
L 190.897546 282.755368 
L 191.101916 295.488 
L 191.21273 282.755368 
L 191.4171 295.488 
L 191.522464 282.755368 
L 191.726834 295.488 
L 191.842189 282.755368 
L 192.046559 295.488 
L 192.159189 282.755368 
L 192.363559 295.488 
L 192.484364 282.755368 
L 192.688734 295.488 
L 192.806814 282.755368 
L 193.011184 295.488 
L 193.124723 282.755368 
L 193.329093 295.488 
L 193.435365 282.755368 
L 193.639735 295.488 
L 193.74964 282.755368 
L 193.95401 295.488 
L 194.064824 282.755368 
L 194.269193 295.488 
L 194.383641 282.755368 
L 194.58801 295.488 
L 194.706999 282.755368 
L 194.911369 295.488 
L 195.023091 282.755368 
L 195.227461 295.488 
L 195.332825 282.755368 
L 195.537194 295.488 
L 195.648008 282.755368 
L 195.852378 295.488 
L 195.972275 282.755368 
L 196.176645 295.488 
L 196.283825 282.755368 
L 196.488195 295.488 
L 196.599009 282.755368 
L 196.803379 295.488 
L 196.906926 282.755368 
L 197.111296 295.488 
L 197.217568 282.755368 
L 197.421938 295.488 
L 197.53366 282.755368 
L 197.73803 295.488 
L 197.851568 282.755368 
L 198.055938 295.488 
L 198.163119 282.755368 
L 198.367489 295.488 
L 198.482844 282.755368 
L 198.687214 295.488 
L 198.805294 282.755368 
L 199.009664 295.488 
L 199.121386 282.755368 
L 199.325756 295.488 
L 199.449286 282.755368 
L 199.653656 295.488 
L 199.759928 282.755368 
L 199.964298 295.488 
L 200.076928 282.755368 
L 200.281298 295.488 
L 200.38757 282.755368 
L 200.59194 295.488 
L 200.700937 282.755368 
L 200.905307 295.488 
L 201.015212 282.755368 
L 201.219582 295.488 
L 201.335846 282.755368 
L 201.540216 295.488 
L 201.660113 282.755368 
L 201.864482 295.488 
L 201.974388 282.755368 
L 202.178758 295.488 
L 202.291388 282.755368 
L 202.495758 295.488 
L 202.613838 282.755368 
L 202.818208 295.488 
L 202.936288 282.755368 
L 203.140658 295.488 
L 203.249655 282.755368 
L 203.454025 295.488 
L 203.559389 282.755368 
L 203.763759 295.488 
L 203.882747 282.755368 
L 204.087117 295.488 
L 209.795846 282.755368 
L 210.046539 193.626947 
L 210.056531 206.359579 
L 210.368081 193.626947 
L 210.40623 219.092211 
L 210.554285 206.359579 
L 210.755021 219.092211 
L 210.782271 231.824842 
L 210.869468 219.092211 
L 211.124704 231.824842 
L 211.151953 244.557474 
L 211.18556 231.824842 
L 211.504377 219.092211 
L 211.543434 244.557474 
L 211.820469 231.824842 
L 211.904942 257.290105 
L 212.143827 244.557474 
L 212.273716 270.022737 
L 212.463553 257.290105 
L 212.636132 282.755368 
L 212.776011 270.022737 
L 212.919524 282.755368 
L 213.093011 270.022737 
L 213.26559 282.755368 
L 213.307373 295.488 
L 213.413645 282.755368 
L 213.618015 295.488 
L 213.73337 282.755368 
L 213.93774 295.488 
L 214.051279 282.755368 
L 214.255648 295.488 
L 214.368279 282.755368 
L 214.572649 295.488 
L 214.693454 282.755368 
L 214.897824 295.488 
L 215.007729 282.755368 
L 215.212099 295.488 
L 215.332904 282.755368 
L 215.537274 295.488 
L 215.642638 282.755368 
L 215.847008 295.488 
L 215.968721 282.755368 
L 216.173091 295.488 
L 216.285721 282.755368 
L 216.490091 295.488 
L 216.601813 282.755368 
L 216.806183 295.488 
L 216.919722 282.755368 
L 217.124092 295.488 
L 217.23763 282.755368 
L 217.442 295.488 
L 217.548272 282.755368 
L 217.752642 295.488 
L 217.874356 282.755368 
L 218.078725 295.488 
L 218.192264 282.755368 
L 218.396634 295.488 
L 218.511989 282.755368 
L 218.716359 295.488 
L 219.695517 282.755368 
L 219.878088 270.022737 
L 219.899887 282.755368 
L 220.057933 270.022737 
L 220.082458 282.755368 
L 220.238687 270.022737 
L 220.262303 282.755368 
L 220.420349 270.022737 
L 220.443057 282.755368 
L 220.606552 270.022737 
L 220.624719 282.755368 
L 220.787306 270.022737 
L 220.810922 282.755368 
L 220.969876 270.022737 
L 220.991676 282.755368 
L 221.151538 270.022737 
L 221.174246 282.755368 
L 221.330476 270.022737 
L 221.355908 282.755368 
L 221.512138 270.022737 
L 221.534845 282.755368 
L 221.692891 270.022737 
L 221.716507 282.755368 
L 221.872737 270.022737 
L 221.897261 282.755368 
L 222.05349 270.022737 
L 222.077106 282.755368 
L 222.235152 270.022737 
L 222.25786 282.755368 
L 222.416814 270.022737 
L 222.439522 282.755368 
L 222.598476 270.022737 
L 222.621184 282.755368 
L 222.781955 270.022737 
L 222.802846 282.755368 
L 222.96725 270.022737 
L 222.986325 282.755368 
L 223.148004 270.022737 
L 223.17162 282.755368 
L 223.334208 270.022737 
L 223.352374 282.755368 
L 223.520411 270.022737 
L 223.538577 282.755368 
L 223.702073 270.022737 
L 223.724781 282.755368 
L 223.885552 270.022737 
L 223.906443 282.755368 
L 224.067214 270.022737 
L 224.089922 282.755368 
L 224.247059 270.022737 
L 224.271584 282.755368 
L 224.425088 270.022737 
L 224.451429 282.755368 
L 224.609475 270.022737 
L 224.629458 282.755368 
L 224.796587 270.022737 
L 224.813845 282.755368 
L 224.980974 270.022737 
L 225.000957 282.755368 
L 225.162636 270.022737 
L 225.185344 282.755368 
L 225.343389 270.022737 
L 225.367006 282.755368 
L 225.523235 270.022737 
L 225.547759 282.755368 
L 225.703989 270.022737 
L 225.727605 282.755368 
L 225.888376 270.022737 
L 225.908358 282.755368 
L 226.070038 270.022737 
L 226.092745 282.755368 
L 226.250791 270.022737 
L 226.274407 282.755368 
L 226.431545 270.022737 
L 226.455161 282.755368 
L 226.609574 270.022737 
L 226.635915 282.755368 
L 226.789419 270.022737 
L 226.813943 282.755368 
L 226.969264 270.022737 
L 226.993789 282.755368 
L 227.151835 270.022737 
L 227.173634 282.755368 
L 227.332589 270.022737 
L 227.356205 282.755368 
L 227.513342 270.022737 
L 227.536958 282.755368 
L 227.695913 270.022737 
L 227.717712 282.755368 
L 227.875758 270.022737 
L 227.900282 282.755368 
L 228.056512 270.022737 
L 228.080128 282.755368 
L 228.236357 270.022737 
L 228.260881 282.755368 
L 228.421652 270.022737 
L 228.440727 282.755368 
L 228.598773 270.022737 
L 228.626022 282.755368 
L 228.784068 270.022737 
L 228.803143 282.755368 
L 228.967547 270.022737 
L 228.988438 282.755368 
L 229.150117 270.022737 
L 229.171916 282.755368 
L 229.335412 270.022737 
L 229.354487 282.755368 
L 229.520708 270.022737 
L 229.539782 282.755368 
L 229.699645 270.022737 
L 229.725077 282.755368 
L 229.877673 270.022737 
L 229.904014 282.755368 
L 230.061152 270.022737 
L 230.082043 282.755368 
L 230.241906 270.022737 
L 230.265522 282.755368 
L 230.427201 270.022737 
L 230.446275 282.755368 
L 230.613405 270.022737 
L 230.631571 282.755368 
L 230.7987 270.022737 
L 230.817774 282.755368 
L 230.979453 270.022737 
L 231.00307 282.755368 
L 231.162024 270.022737 
L 231.183823 282.755368 
L 231.340961 270.022737 
L 231.366394 282.755368 
L 231.525348 270.022737 
L 231.545331 282.755368 
L 231.706102 270.022737 
L 231.729718 282.755368 
L 231.887764 270.022737 
L 231.910471 282.755368 
L 232.069426 270.022737 
L 232.092133 282.755368 
L 232.254721 270.022737 
L 232.273795 282.755368 
L 232.440924 270.022737 
L 232.459091 282.755368 
L 232.618953 270.022737 
L 232.645294 282.755368 
L 232.800615 270.022737 
L 232.823323 282.755368 
L 232.986819 270.022737 
L 233.004985 282.755368 
L 233.168481 270.022737 
L 233.191189 282.755368 
L 233.350143 270.022737 
L 233.372851 282.755368 
L 233.535438 270.022737 
L 233.554513 282.755368 
L 233.716192 270.022737 
L 233.739808 282.755368 
L 233.897854 270.022737 
L 233.920562 282.755368 
L 234.079516 270.022737 
L 234.102224 282.755368 
L 234.262086 270.022737 
L 234.283886 282.755368 
L 234.443748 270.022737 
L 234.466456 282.755368 
L 234.624502 270.022737 
L 234.648118 282.755368 
L 234.805256 270.022737 
L 234.828872 282.755368 
L 234.988734 270.022737 
L 235.009625 282.755368 
L 235.170396 270.022737 
L 235.193104 282.755368 
L 235.348425 270.022737 
L 235.374766 282.755368 
L 235.529179 270.022737 
L 235.552795 282.755368 
L 235.709932 270.022737 
L 235.733548 282.755368 
L 235.895228 270.022737 
L 235.914302 282.755368 
L 236.080523 270.022737 
L 236.099597 282.755368 
L 236.262185 270.022737 
L 236.284893 282.755368 
L 236.44203 270.022737 
L 236.466555 282.755368 
L 236.620059 270.022737 
L 236.6464 282.755368 
L 236.800813 270.022737 
L 236.824429 282.755368 
L 236.9852 270.022737 
L 237.005183 282.755368 
L 237.164137 270.022737 
L 237.189569 282.755368 
L 237.346707 270.022737 
L 237.368507 282.755368 
L 237.526553 270.022737 
L 237.551077 282.755368 
L 237.703673 270.022737 
L 237.730922 282.755368 
L 237.88261 270.022737 
L 237.908043 282.755368 
L 238.061547 270.022737 
L 238.08698 282.755368 
L 238.246842 270.022737 
L 238.265917 282.755368 
L 238.429413 270.022737 
L 238.451212 282.755368 
L 238.611075 270.022737 
L 238.633782 282.755368 
L 238.791828 270.022737 
L 238.815445 282.755368 
L 238.968949 270.022737 
L 238.996198 282.755368 
L 239.151519 270.022737 
L 239.173319 282.755368 
L 239.333181 270.022737 
L 239.355889 282.755368 
L 239.510302 270.022737 
L 239.537551 282.755368 
L 239.691055 270.022737 
L 239.714671 282.755368 
L 239.869084 270.022737 
L 239.895425 282.755368 
L 240.051655 270.022737 
L 240.073454 282.755368 
L 240.232408 270.022737 
L 240.256024 282.755368 
L 240.41952 270.022737 
L 240.436778 282.755368 
L 240.600274 270.022737 
L 240.62389 282.755368 
L 240.785569 270.022737 
L 240.804644 282.755368 
L 240.963598 270.022737 
L 240.989939 282.755368 
L 241.144352 270.022737 
L 241.167968 282.755368 
L 241.326922 270.022737 
L 241.348721 282.755368 
L 241.512217 270.022737 
L 241.531292 282.755368 
L 241.699329 270.022737 
L 241.716587 282.755368 
L 241.880083 270.022737 
L 241.903699 282.755368 
L 242.065378 270.022737 
L 242.084452 282.755368 
L 242.242498 270.022737 
L 242.269748 282.755368 
L 242.425069 270.022737 
L 242.446868 282.755368 
L 242.608547 270.022737 
L 242.629439 282.755368 
L 242.789301 270.022737 
L 242.812917 282.755368 
L 242.974596 270.022737 
L 242.993671 282.755368 
L 243.154442 270.022737 
L 243.178966 282.755368 
L 243.337012 270.022737 
L 243.358812 282.755368 
L 243.516857 270.022737 
L 243.541382 282.755368 
L 243.697611 270.022737 
L 243.721227 282.755368 
L 243.879273 270.022737 
L 243.901981 282.755368 
L 244.059119 270.022737 
L 244.083643 282.755368 
L 244.241689 270.022737 
L 244.263488 282.755368 
L 244.427892 270.022737 
L 244.446059 282.755368 
L 244.610463 270.022737 
L 244.632262 282.755368 
L 244.790308 270.022737 
L 244.814833 282.755368 
L 244.972879 270.022737 
L 244.994678 282.755368 
L 245.158174 270.022737 
L 245.177248 282.755368 
L 245.336203 270.022737 
L 245.362544 282.755368 
L 245.518773 270.022737 
L 245.540572 282.755368 
L 245.701343 270.022737 
L 245.723143 282.755368 
L 245.88028 270.022737 
L 245.905713 282.755368 
L 246.062851 270.022737 
L 246.08465 282.755368 
L 246.239971 270.022737 
L 246.26722 282.755368 
L 246.419816 270.022737 
L 246.444341 282.755368 
L 246.601478 270.022737 
L 246.624186 282.755368 
L 246.784049 270.022737 
L 246.805848 282.755368 
L 246.965711 270.022737 
L 246.988419 282.755368 
L 247.145556 270.022737 
L 247.170081 282.755368 
L 247.325402 270.022737 
L 247.349926 282.755368 
L 247.506155 270.022737 
L 247.529771 282.755368 
L 247.688726 270.022737 
L 247.710525 282.755368 
L 247.867663 270.022737 
L 247.893095 282.755368 
L 248.05205 270.022737 
L 248.072032 282.755368 
L 248.233712 270.022737 
L 248.256419 282.755368 
L 248.416282 270.022737 
L 248.438081 282.755368 
L 248.593402 270.022737 
L 248.620652 282.755368 
L 248.774156 270.022737 
L 248.797772 282.755368 
L 248.955818 270.022737 
L 248.978526 282.755368 
L 249.13748 270.022737 
L 249.160188 282.755368 
L 249.320051 270.022737 
L 249.34185 282.755368 
L 249.497171 270.022737 
L 249.52442 282.755368 
L 249.674291 270.022737 
L 249.701541 282.755368 
L 249.855045 270.022737 
L 249.878661 282.755368 
L 250.032166 270.022737 
L 250.059415 282.755368 
L 250.211103 270.022737 
L 250.236535 282.755368 
L 250.389131 270.022737 
L 250.415472 282.755368 
L 250.57261 270.022737 
L 250.593501 282.755368 
L 250.754272 270.022737 
L 250.77698 282.755368 
L 250.936842 270.022737 
L 250.958642 282.755368 
L 251.116688 270.022737 
L 251.141212 282.755368 
L 251.297442 270.022737 
L 251.321058 282.755368 
L 251.480012 270.022737 
L 251.501811 282.755368 
L 251.663491 270.022737 
L 251.684382 282.755368 
L 251.847877 270.022737 
L 251.86786 282.755368 
L 252.027723 270.022737 
L 252.052247 282.755368 
L 252.208477 270.022737 
L 252.232093 282.755368 
L 252.395588 270.022737 
L 252.412846 282.755368 
L 252.579067 270.022737 
L 252.599958 282.755368 
L 252.763454 270.022737 
L 252.783437 282.755368 
L 252.940574 270.022737 
L 252.967824 282.755368 
L 253.123145 270.022737 
L 253.144944 282.755368 
L 253.303899 270.022737 
L 253.327515 282.755368 
L 253.481927 270.022737 
L 253.508268 282.755368 
L 253.667223 270.022737 
L 253.686297 282.755368 
L 253.847068 270.022737 
L 253.871592 282.755368 
L 254.025097 270.022737 
L 254.051438 282.755368 
L 254.206759 270.022737 
L 254.229466 282.755368 
L 254.387512 270.022737 
L 254.411129 282.755368 
L 254.571899 270.022737 
L 254.591882 282.755368 
L 254.752653 270.022737 
L 254.776269 282.755368 
L 254.936132 270.022737 
L 254.957023 282.755368 
L 255.140501 295.488 
L 286.096617 282.755368 
L 286.300987 295.488 
L 286.451766 129.963789 
L 286.555314 53.568 
L 286.568938 79.033263 
L 286.70791 66.300632 
L 286.813274 91.765895 
L 286.835073 117.231158 
L 286.886847 104.498526 
L 287.250171 79.033263 
L 287.328286 104.498526 
L 287.350085 129.963789 
L 287.43365 117.231158 
L 287.618037 104.498526 
L 287.777899 117.231158 
L 287.810598 142.696421 
L 288.156664 117.231158 
L 288.26112 142.696421 
L 288.28292 168.161684 
L 288.334693 155.429053 
L 288.702559 129.963789 
L 288.773407 168.161684 
L 288.784307 180.894316 
L 288.881496 168.161684 
L 289.24482 142.696421 
L 289.281152 193.626947 
L 289.607236 168.161684 
L 289.715325 193.626947 
L 289.737124 219.092211 
L 289.787989 206.359579 
L 290.15313 180.894316 
L 290.223978 219.092211 
L 290.234878 231.824842 
L 290.334792 219.092211 
L 290.515546 206.359579 
L 290.661784 219.092211 
L 290.694483 244.557474 
L 291.055082 219.092211 
L 291.184062 231.824842 
L 291.216761 270.022737 
L 291.234927 257.290105 
L 291.592801 231.824842 
L 291.739948 244.557474 
L 291.78173 270.022737 
L 292.135063 244.557474 
L 292.264043 270.022737 
L 292.279484 282.755368 
L 292.315816 270.022737 
L 292.498387 257.290105 
L 292.504745 270.022737 
L 292.683682 257.290105 
L 292.888052 282.755368 
L 293.044281 270.022737 
L 293.067897 282.755368 
L 293.224126 270.022737 
L 293.285891 282.755368 
L 293.40488 270.022737 
L 293.428496 282.755368 
L 293.584725 270.022737 
L 293.60925 282.755368 
L 293.769112 270.022737 
L 293.789095 282.755368 
L 293.947141 270.022737 
L 293.973482 282.755368 
L 294.133345 270.022737 
L 294.151511 282.755368 
L 294.312282 270.022737 
L 294.337715 282.755368 
L 294.497577 270.022737 
L 294.516652 282.755368 
L 294.680147 270.022737 
L 294.701947 282.755368 
L 294.857268 270.022737 
L 294.884517 282.755368 
L 295.039838 270.022737 
L 295.061638 282.755368 
L 295.2215 270.022737 
L 295.244208 282.755368 
L 295.399529 270.022737 
L 295.42587 282.755368 
L 295.580283 270.022737 
L 295.603899 282.755368 
L 295.760128 270.022737 
L 295.784652 282.755368 
L 295.939973 270.022737 
L 295.964498 282.755368 
L 296.12436 270.022737 
L 296.144343 282.755368 
L 296.305114 270.022737 
L 296.32873 282.755368 
L 296.485868 270.022737 
L 296.509484 282.755368 
L 296.671163 270.022737 
L 296.690238 282.755368 
L 296.851917 270.022737 
L 296.875533 282.755368 
L 297.029946 270.022737 
L 297.056287 282.755368 
L 297.216149 270.022737 
L 297.234315 282.755368 
L 297.420519 295.488 
L 297.760227 270.022737 
L 297.782026 282.755368 
L 297.941889 270.022737 
L 297.964597 282.755368 
L 298.121734 270.022737 
L 298.146259 282.755368 
L 298.306121 270.022737 
L 298.326104 282.755368 
L 298.486875 270.022737 
L 298.510491 282.755368 
L 298.673079 270.022737 
L 298.691245 282.755368 
L 298.859282 270.022737 
L 298.877448 282.755368 
L 299.040944 270.022737 
L 299.063652 282.755368 
L 299.226239 270.022737 
L 299.245314 282.755368 
L 299.406993 270.022737 
L 299.430609 282.755368 
L 299.59138 270.022737 
L 299.611363 282.755368 
L 299.772134 270.022737 
L 299.79575 282.755368 
L 299.956521 270.022737 
L 299.976503 282.755368 
L 300.135458 270.022737 
L 300.16089 282.755368 
L 300.316211 270.022737 
L 300.339827 282.755368 
L 300.500598 270.022737 
L 300.520581 282.755368 
L 300.683169 270.022737 
L 300.704968 282.755368 
L 300.862106 270.022737 
L 300.887538 282.755368 
L 301.041951 270.022737 
L 301.066476 282.755368 
L 301.22543 270.022737 
L 301.246321 282.755368 
L 301.408 270.022737 
L 301.4298 282.755368 
L 301.59057 270.022737 
L 301.61237 282.755368 
L 301.774957 270.022737 
L 301.79494 282.755368 
L 301.959344 270.022737 
L 301.979327 282.755368 
L 302.138281 270.022737 
L 302.163714 282.755368 
L 302.31631 270.022737 
L 302.342651 282.755368 
L 302.495247 270.022737 
L 302.52068 282.755368 
L 302.676001 270.022737 
L 302.699617 282.755368 
L 302.855846 270.022737 
L 302.880371 282.755368 
L 303.041142 270.022737 
L 303.060216 282.755368 
L 303.22462 270.022737 
L 303.245511 282.755368 
L 303.408099 270.022737 
L 303.42899 282.755368 
L 303.588853 270.022737 
L 303.612469 282.755368 
L 303.770515 270.022737 
L 303.793222 282.755368 
L 303.95036 270.022737 
L 303.974884 282.755368 
L 304.128389 270.022737 
L 304.15473 282.755368 
L 304.305509 270.022737 
L 304.332759 282.755368 
L 304.489896 270.022737 
L 304.509879 282.755368 
L 304.672467 270.022737 
L 304.694266 282.755368 
L 304.85322 270.022737 
L 304.876836 282.755368 
L 305.037607 270.022737 
L 305.05759 282.755368 
L 305.217453 270.022737 
L 305.241977 282.755368 
L 305.399115 270.022737 
L 305.421822 282.755368 
L 305.579868 270.022737 
L 305.603484 282.755368 
L 305.762439 270.022737 
L 305.784238 282.755368 
L 305.941376 270.022737 
L 305.966808 282.755368 
L 306.127579 270.022737 
L 306.145745 282.755368 
L 306.31015 270.022737 
L 306.331949 282.755368 
L 306.49272 270.022737 
L 306.514519 282.755368 
L 306.674382 270.022737 
L 306.69709 282.755368 
L 306.857861 270.022737 
L 306.878752 282.755368 
L 307.035889 270.022737 
L 307.06223 282.755368 
L 307.21301 270.022737 
L 307.240259 282.755368 
L 307.393764 270.022737 
L 307.41738 282.755368 
L 307.576334 270.022737 
L 307.598133 282.755368 
L 307.758904 270.022737 
L 307.780704 282.755368 
L 307.940566 270.022737 
L 307.963274 282.755368 
L 308.122228 270.022737 
L 308.144936 282.755368 
L 308.300257 270.022737 
L 308.326598 282.755368 
L 308.482827 270.022737 
L 308.504627 282.755368 
L 308.668123 270.022737 
L 308.687197 282.755368 
L 308.84706 270.022737 
L 308.872492 282.755368 
L 309.034172 270.022737 
L 309.051429 282.755368 
L 309.2122 270.022737 
L 309.238541 282.755368 
L 309.396587 270.022737 
L 309.41657 282.755368 
L 309.580066 270.022737 
L 309.600957 282.755368 
L 309.763545 270.022737 
L 309.784436 282.755368 
L 309.942482 270.022737 
L 309.967914 282.755368 
L 310.146851 295.488 
L 310.491101 270.022737 
L 310.5129 282.755368 
L 310.677304 270.022737 
L 310.695471 282.755368 
L 310.85715 270.022737 
L 310.881674 282.755368 
L 311.03972 270.022737 
L 311.06152 282.755368 
L 311.221382 270.022737 
L 311.24409 282.755368 
L 311.407586 270.022737 
L 311.425752 282.755368 
L 311.591973 270.022737 
L 311.611956 282.755368 
L 311.771818 270.022737 
L 311.796342 282.755368 
L 311.955297 270.022737 
L 311.976188 282.755368 
L 312.1415 270.022737 
L 312.159667 282.755368 
L 312.323162 270.022737 
L 312.34587 282.755368 
L 312.527532 295.488 
L 314.104358 282.755368 
L 314.308728 295.488 
L 314.422267 282.755368 
L 314.626637 295.488 
L 314.739267 282.755368 
L 314.943637 295.488 
L 315.058992 282.755368 
L 315.263362 295.488 
L 315.369634 282.755368 
L 315.574004 295.488 
L 315.684818 282.755368 
L 315.889188 295.488 
L 315.997277 282.755368 
L 316.201646 295.488 
L 316.310644 282.755368 
L 316.515013 295.488 
L 316.630369 282.755368 
L 316.834738 295.488 
L 333.29695 282.755368 
L 333.50132 295.488 
L 333.610317 282.755368 
L 333.814687 295.488 
L 333.922776 282.755368 
L 334.127146 295.488 
L 334.240684 282.755368 
L 334.445054 295.488 
L 334.74843 270.022737 
L 334.767504 282.755368 
L 334.911926 270.022737 
L 335.08178 206.359579 
L 335.118112 219.092211 
L 335.172611 244.557474 
L 335.311582 219.092211 
L 335.33974 206.359579 
L 335.505052 193.626947 
L 335.553193 206.359579 
L 335.862926 193.626947 
L 335.910158 206.359579 
L 336.203543 193.626947 
L 336.247141 206.359579 
L 336.561417 193.626947 
L 336.605016 206.359579 
L 336.89295 193.626947 
L 336.936549 206.359579 
L 337.245374 193.626947 
L 337.288065 206.359579 
L 337.575091 193.626947 
L 337.610515 219.092211 
L 337.889366 206.359579 
L 337.964756 231.824842 
L 338.210908 219.092211 
L 338.347154 244.557474 
L 338.534266 231.824842 
L 338.857625 219.092211 
L 338.954814 244.557474 
L 339.173716 231.824842 
L 339.299972 257.290105 
L 339.495258 244.557474 
L 339.644221 257.290105 
L 339.67147 270.022737 
L 339.819525 257.290105 
L 339.980296 270.022737 
L 340.007545 282.755368 
L 340.1338 270.022737 
L 340.355428 282.755368 
L 340.387219 295.488 
L 340.759626 282.755368 
L 340.963996 295.488 
L 341.079351 282.755368 
L 341.283721 295.488 
L 341.395443 282.755368 
L 341.599813 295.488 
L 341.718801 282.755368 
L 341.923171 295.488 
L 342.037618 282.755368 
L 342.241988 295.488 
L 342.35916 282.755368 
L 342.56353 295.488 
L 342.677977 282.755368 
L 342.882347 295.488 
L 342.995885 282.755368 
L 343.200255 295.488 
L 343.312885 282.755368 
L 343.517255 295.488 
L 343.632611 282.755368 
L 343.83698 295.488 
L 343.949611 282.755368 
L 344.153981 295.488 
L 344.269336 282.755368 
L 344.473706 295.488 
L 344.587245 282.755368 
L 344.791614 295.488 
L 344.905153 282.755368 
L 345.109523 295.488 
L 345.222153 282.755368 
L 345.426523 295.488 
L 345.544603 282.755368 
L 345.748973 295.488 
L 345.867053 282.755368 
L 346.071423 295.488 
L 346.184962 282.755368 
L 346.389332 295.488 
L 346.504687 282.755368 
L 346.709057 295.488 
L 346.824412 282.755368 
L 347.028782 295.488 
L 347.138688 282.755368 
L 347.343057 295.488 
L 347.454779 282.755368 
L 347.659149 295.488 
L 347.775413 282.755368 
L 347.979783 295.488 
L 348.413955 282.755368 
L 348.618325 295.488 
L 349.044322 282.755368 
L 349.248692 295.488 
L 349.360414 282.755368 
L 349.564784 295.488 
L 349.684681 282.755368 
L 349.88905 295.488 
L 350.007131 282.755368 
L 350.211501 295.488 
L 350.327764 282.755368 
L 350.532134 295.488 
L 350.647489 282.755368 
L 350.851859 295.488 
L 350.963581 282.755368 
L 351.167951 295.488 
L 351.280581 282.755368 
L 351.484951 295.488 
L 351.59849 282.755368 
L 351.80286 295.488 
L 351.92094 282.755368 
L 352.12531 295.488 
L 352.238849 282.755368 
L 352.443218 295.488 
L 352.554941 282.755368 
L 352.75931 295.488 
L 352.869216 282.755368 
L 353.073586 295.488 
L 353.186216 282.755368 
L 353.390586 295.488 
L 353.507758 282.755368 
L 353.712128 295.488 
L 353.82385 282.755368 
L 354.028219 295.488 
L 354.14085 282.755368 
L 354.34522 295.488 
L 354.462392 282.755368 
L 354.666761 295.488 
L 354.784842 282.755368 
L 354.989212 295.488 
L 355.104567 282.755368 
L 355.308937 295.488 
L 355.418842 282.755368 
L 355.623212 295.488 
L 355.740384 282.755368 
L 355.944754 295.488 
L 356.058292 282.755368 
L 356.262662 295.488 
L 356.378926 282.755368 
L 356.583296 295.488 
L 356.69411 282.755368 
L 356.898479 295.488 
L 357.008385 282.755368 
L 357.212755 295.488 
L 357.320843 282.755368 
L 357.525213 295.488 
L 358.793214 282.755368 
L 358.997584 295.488 
L 359.019383 282.755368 
L 359.223753 295.488 
L 359.245553 282.755368 
L 359.449922 295.488 
L 359.474447 282.755368 
L 359.678816 295.488 
L 359.695166 282.755368 
L 359.899536 295.488 
L 359.922244 282.755368 
L 360.126613 295.488 
L 360.151138 282.755368 
L 360.355507 295.488 
L 360.380032 282.755368 
L 360.584402 295.488 
L 360.609834 282.755368 
L 360.814204 295.488 
L 360.833279 282.755368 
L 361.037648 295.488 
L 361.060356 282.755368 
L 361.264726 295.488 
L 361.291067 282.755368 
L 361.495437 295.488 
L 361.517236 282.755368 
L 361.721606 295.488 
L 361.742497 282.755368 
L 361.946867 295.488 
L 361.970483 282.755368 
L 362.174853 295.488 
L 362.196652 282.755368 
L 362.401022 295.488 
L 362.428271 282.755368 
L 362.632641 295.488 
L 362.658982 282.755368 
L 362.863352 295.488 
L 362.890601 282.755368 
L 363.094971 295.488 
L 363.120403 282.755368 
L 363.324773 295.488 
L 363.345664 282.755368 
L 363.550034 295.488 
L 363.567292 282.755368 
L 363.771662 295.488 
L 363.796186 282.755368 
L 364.000556 295.488 
L 364.022355 282.755368 
L 364.226725 295.488 
L 364.253066 282.755368 
L 364.457436 295.488 
L 364.477419 282.755368 
L 364.681788 295.488 
L 364.700863 282.755368 
L 364.905233 295.488 
L 364.924307 282.755368 
L 365.128677 295.488 
L 365.146843 282.755368 
L 365.351213 295.488 
L 365.378462 282.755368 
L 365.582832 295.488 
L 365.604631 282.755368 
L 365.809001 295.488 
L 365.835342 282.755368 
L 366.039712 295.488 
L 366.065145 282.755368 
L 366.269514 295.488 
L 366.288589 282.755368 
L 366.492959 295.488 
L 366.516575 282.755368 
L 366.720944 295.488 
L 366.739111 282.755368 
L 366.94348 295.488 
L 366.966188 282.755368 
L 367.170558 295.488 
L 367.191449 282.755368 
L 367.395819 295.488 
L 367.413077 282.755368 
L 367.617446 295.488 
L 367.642879 282.755368 
L 367.847249 295.488 
L 367.869957 282.755368 
L 368.074326 295.488 
L 368.097034 282.755368 
L 368.301404 295.488 
L 368.320478 282.755368 
L 368.524848 295.488 
L 368.547556 282.755368 
L 368.751926 295.488 
L 368.77645 282.755368 
L 368.98082 295.488 
L 369.001711 282.755368 
L 369.206081 295.488 
L 369.234238 282.755368 
L 369.438608 295.488 
L 369.460408 282.755368 
L 369.664777 295.488 
L 369.69021 282.755368 
L 369.89458 295.488 
L 369.915471 282.755368 
L 370.119841 295.488 
L 370.139824 282.755368 
L 370.344193 295.488 
L 370.365084 282.755368 
L 370.569454 295.488 
L 370.58762 282.755368 
L 370.79199 295.488 
L 370.81379 282.755368 
L 371.018159 295.488 
L 371.039959 282.755368 
L 371.244329 295.488 
L 371.271578 282.755368 
L 371.475948 295.488 
L 371.495022 282.755368 
L 371.699392 295.488 
L 371.7221 282.755368 
L 371.926469 295.488 
L 371.950086 282.755368 
L 372.154455 295.488 
L 372.176255 282.755368 
L 372.380625 295.488 
L 372.406057 282.755368 
L 372.610427 295.488 
L 372.633135 282.755368 
L 372.837504 295.488 
L 372.860212 282.755368 
L 373.064582 295.488 
L 373.090923 282.755368 
L 373.295293 295.488 
L 373.322542 282.755368 
L 373.526912 295.488 
L 373.54962 282.755368 
L 373.753989 295.488 
L 373.771247 282.755368 
L 373.975617 295.488 
L 373.996508 282.755368 
L 374.200878 295.488 
L 374.225402 282.755368 
L 374.429772 295.488 
L 374.450663 282.755368 
L 374.655033 295.488 
L 374.672291 282.755368 
L 374.876661 295.488 
L 374.89846 282.755368 
L 375.10283 295.488 
L 375.122813 282.755368 
L 375.327182 295.488 
L 375.350798 282.755368 
L 375.555168 295.488 
L 375.576059 282.755368 
L 375.780429 295.488 
L 375.804954 282.755368 
L 376.009323 295.488 
L 376.035664 282.755368 
L 376.240034 295.488 
L 376.262742 282.755368 
L 376.467112 295.488 
L 376.485278 282.755368 
L 376.689648 295.488 
L 376.70963 282.755368 
L 376.914 295.488 
L 376.934891 282.755368 
L 377.139261 295.488 
L 377.159244 282.755368 
L 377.363614 295.488 
L 377.393588 282.755368 
L 377.597958 295.488 
L 377.615215 282.755368 
L 377.819585 295.488 
L 377.848651 282.755368 
L 378.053021 295.488 
L 378.075729 282.755368 
L 378.280098 295.488 
L 378.308256 282.755368 
L 378.512626 295.488 
L 378.53715 282.755368 
L 378.74152 295.488 
L 378.763319 282.755368 
L 378.967689 295.488 
L 378.991305 282.755368 
L 379.195675 295.488 
L 379.221108 282.755368 
L 379.425477 295.488 
L 379.448185 282.755368 
L 379.652555 295.488 
L 379.680713 282.755368 
L 379.885082 295.488 
L 379.90779 282.755368 
L 380.11216 295.488 
L 380.137593 282.755368 
L 380.341962 295.488 
L 380.358312 282.755368 
L 380.562682 295.488 
L 380.580848 282.755368 
L 380.785218 295.488 
L 380.803384 282.755368 
L 381.007754 295.488 
L 381.03682 282.755368 
L 381.241189 295.488 
L 381.260264 282.755368 
L 381.464634 295.488 
L 381.490066 282.755368 
L 381.694436 295.488 
L 381.714419 282.755368 
L 381.918789 295.488 
L 381.946946 282.755368 
L 382.151316 295.488 
L 382.17584 282.755368 
L 382.38021 295.488 
L 382.400193 282.755368 
L 382.604563 295.488 
L 382.62727 282.755368 
L 382.83164 295.488 
L 382.855256 282.755368 
L 383.059626 295.488 
L 383.086875 282.755368 
L 383.291245 295.488 
L 383.314861 282.755368 
L 383.519231 295.488 
L 383.541939 282.755368 
L 383.746309 295.488 
L 383.769016 282.755368 
L 383.973386 295.488 
L 383.993369 282.755368 
L 384.197739 295.488 
L 384.21863 282.755368 
L 384.423 295.488 
L 384.444799 282.755368 
L 384.649169 295.488 
L 384.67006 282.755368 
L 384.87443 295.488 
L 384.891688 282.755368 
L 385.096057 295.488 
L 385.119673 282.755368 
L 385.324043 295.488 
L 385.347659 282.755368 
L 385.552029 295.488 
L 385.57292 282.755368 
L 385.77729 295.488 
L 385.799998 282.755368 
L 386.004367 295.488 
L 386.028892 282.755368 
L 386.233261 295.488 
L 386.259602 282.755368 
L 386.463972 295.488 
L 386.48123 282.755368 
L 386.6856 295.488 
L 386.708308 282.755368 
L 386.912677 295.488 
L 386.930844 282.755368 
L 387.135213 295.488 
L 387.155196 282.755368 
L 387.359566 295.488 
L 387.385907 282.755368 
L 387.590277 295.488 
L 387.612076 282.755368 
L 387.816446 295.488 
L 387.834612 282.755368 
L 388.038982 295.488 
L 388.059873 282.755368 
L 388.264243 295.488 
L 388.283317 282.755368 
L 388.487687 295.488 
L 388.504945 282.755368 
L 388.709315 295.488 
L 388.727481 282.755368 
L 388.931851 295.488 
L 388.95365 282.755368 
L 389.15802 295.488 
L 389.177094 282.755368 
L 389.381464 295.488 
L 389.402355 282.755368 
L 389.606725 295.488 
L 395.085651 282.755368 
L 395.316362 91.765895 
L 395.358145 129.963789 
L 395.385394 155.429053 
L 395.762342 129.963789 
L 395.84954 155.429053 
L 395.875881 180.894316 
L 396.212864 155.429053 
L 396.340936 168.161684 
L 396.38181 206.359579 
L 396.44085 193.626947 
L 396.669744 180.894316 
L 396.835057 193.626947 
L 396.875931 231.824842 
L 396.89773 219.092211 
L 397.129349 206.359579 
L 397.316461 219.092211 
L 397.357335 244.557474 
L 397.581688 231.824842 
L 397.789691 244.557474 
L 397.830565 270.022737 
L 398.040384 257.290105 
L 398.263828 257.290105 
L 398.295619 282.755368 
L 398.468198 295.488 
L 398.487273 282.755368 
L 398.487273 282.755368 
" clip-path="url(#p50d982ba05)" style="fill: none; stroke: #1f77b4; stroke-width: 1.5; stroke-linecap: square"/>
   </g>
   <g id="patch_3">
    <path d="M 57.6 307.584 
L 57.6 41.472 
" style="fill: none; stroke: #000000; stroke-width: 0.8; stroke-linejoin: miter; stroke-linecap: square"/>
   </g>
   <g id="patch_4">
    <path d="M 414.72 307.584 
L 414.72 41.472 
" style="fill: none; stroke: #000000; stroke-width: 0.8; stroke-linejoin: miter; stroke-linecap: square"/>
   </g>
   <g id="patch_5">
    <path d="M 57.6 307.584 
L 414.72 307.584 
" style="fill: none; stroke: #000000; stroke-width: 0.8; stroke-linejoin: miter; stroke-linecap: square"/>
   </g>
   <g id="patch_6">
    <path d="M 57.6 41.472 
L 414.72 41.472 
" style="fill: none; stroke: #000000; stroke-width: 0.8; stroke-linejoin: miter; stroke-linecap: square"/>
   </g>
   <g id="text_18">
    <!-- Queue size (y-axis) between S5 and sensors that follow at a time (x-axis). -->
    <g transform="translate(14.282813 35.472) scale(0.12 -0.12)">
     <defs>
      <path id="DejaVuSans-51" d="M 2522 4238 
Q 1834 4238 1429 3725 
Q 1025 3213 1025 2328 
Q 1025 1447 1429 934 
Q 1834 422 2522 422 
Q 3209 422 3611 934 
Q 4013 1447 4013 2328 
Q 4013 3213 3611 3725 
Q 3209 4238 2522 4238 
z
M 3406 84 
L 4238 -825 
L 3475 -825 
L 2784 -78 
Q 2681 -84 2626 -87 
Q 2572 -91 2522 -91 
Q 1538 -91 948 567 
Q 359 1225 359 2328 
Q 359 3434 948 4092 
Q 1538 4750 2522 4750 
Q 3503 4750 4090 4092 
Q 4678 3434 4678 2328 
Q 4678 1516 4351 937 
Q 4025 359 3406 84 
z
" transform="scale(0.015625)"/>
      <path id="DejaVuSans-75" d="M 544 1381 
L 544 3500 
L 1119 3500 
L 1119 1403 
Q 1119 906 1312 657 
Q 1506 409 1894 409 
Q 2359 409 2629 706 
Q 2900 1003 2900 1516 
L 2900 3500 
L 3475 3500 
L 3475 0 
L 2900 0 
L 2900 538 
Q 2691 219 2414 64 
Q 2138 -91 1772 -91 
Q 1169 -91 856 284 
Q 544 659 544 1381 
z
M 1991 3584 
L 1991 3584 
z
" transform="scale(0.015625)"/>
      <path id="DejaVuSans-20" transform="scale(0.015625)"/>
      <path id="DejaVuSans-73" d="M 2834 3397 
L 2834 2853 
Q 2591 2978 2328 3040 
Q 2066 3103 1784 3103 
Q 1356 3103 1142 2972 
Q 928 2841 928 2578 
Q 928 2378 1081 2264 
Q 1234 2150 1697 2047 
L 1894 2003 
Q 2506 1872 2764 1633 
Q 3022 1394 3022 966 
Q 3022 478 2636 193 
Q 2250 -91 1575 -91 
Q 1294 -91 989 -36 
Q 684 19 347 128 
L 347 722 
Q 666 556 975 473 
Q 1284 391 1588 391 
Q 1994 391 2212 530 
Q 2431 669 2431 922 
Q 2431 1156 2273 1281 
Q 2116 1406 1581 1522 
L 1381 1569 
Q 847 1681 609 1914 
Q 372 2147 372 2553 
Q 372 3047 722 3315 
Q 1072 3584 1716 3584 
Q 2034 3584 2315 3537 
Q 2597 3491 2834 3397 
z
" transform="scale(0.015625)"/>
      <path id="DejaVuSans-69" d="M 603 3500 
L 1178 3500 
L 1178 0 
L 603 0 
L 603 3500 
z
M 603 4863 
L 1178 4863 
L 1178 4134 
L 603 4134 
L 603 4863 
z
" transform="scale(0.015625)"/>
      <path id="DejaVuSans-7a" d="M 353 3500 
L 3084 3500 
L 3084 2975 
L 922 459 
L 3084 459 
L 3084 0 
L 275 0 
L 275 525 
L 2438 3041 
L 353 3041 
L 353 3500 
z
" transform="scale(0.015625)"/>
      <path id="DejaVuSans-28" d="M 1984 4856 
Q 1566 4138 1362 3434 
Q 1159 2731 1159 2009 
Q 1159 1288 1364 580 
Q 1569 -128 1984 -844 
L 1484 -844 
Q 1016 -109 783 600 
Q 550 1309 550 2009 
Q 550 2706 781 3412 
Q 1013 4119 1484 4856 
L 1984 4856 
z
" transform="scale(0.015625)"/>
      <path id="DejaVuSans-79" d="M 2059 -325 
Q 1816 -950 1584 -1140 
Q 1353 -1331 966 -1331 
L 506 -1331 
L 506 -850 
L 844 -850 
Q 1081 -850 1212 -737 
Q 1344 -625 1503 -206 
L 1606 56 
L 191 3500 
L 800 3500 
L 1894 763 
L 2988 3500 
L 3597 3500 
L 2059 -325 
z
" transform="scale(0.015625)"/>
      <path id="DejaVuSans-2d" d="M 313 2009 
L 1997 2009 
L 1997 1497 
L 313 1497 
L 313 2009 
z
" transform="scale(0.015625)"/>
      <path id="DejaVuSans-61" d="M 2194 1759 
Q 1497 1759 1228 1600 
Q 959 1441 959 1056 
Q 959 750 1161 570 
Q 1363 391 1709 391 
Q 2188 391 2477 730 
Q 2766 1069 2766 1631 
L 2766 1759 
L 2194 1759 
z
M 3341 1997 
L 3341 0 
L 2766 0 
L 2766 531 
Q 2569 213 2275 61 
Q 1981 -91 1556 -91 
Q 1019 -91 701 211 
Q 384 513 384 1019 
Q 384 1609 779 1909 
Q 1175 2209 1959 2209 
L 2766 2209 
L 2766 2266 
Q 2766 2663 2505 2880 
Q 2244 3097 1772 3097 
Q 1472 3097 1187 3025 
Q 903 2953 641 2809 
L 641 3341 
Q 956 3463 1253 3523 
Q 1550 3584 1831 3584 
Q 2591 3584 2966 3190 
Q 3341 2797 3341 1997 
z
" transform="scale(0.015625)"/>
      <path id="DejaVuSans-78" d="M 3513 3500 
L 2247 1797 
L 3578 0 
L 2900 0 
L 1881 1375 
L 863 0 
L 184 0 
L 1544 1831 
L 300 3500 
L 978 3500 
L 1906 2253 
L 2834 3500 
L 3513 3500 
z
" transform="scale(0.015625)"/>
      <path id="DejaVuSans-29" d="M 513 4856 
L 1013 4856 
Q 1481 4119 1714 3412 
Q 1947 2706 1947 2009 
Q 1947 1309 1714 600 
Q 1481 -109 1013 -844 
L 513 -844 
Q 928 -128 1133 580 
Q 1338 1288 1338 2009 
Q 1338 2731 1133 3434 
Q 928 4138 513 4856 
z
" transform="scale(0.015625)"/>
      <path id="DejaVuSans-62" d="M 3116 1747 
Q 3116 2381 2855 2742 
Q 2594 3103 2138 3103 
Q 1681 3103 1420 2742 
Q 1159 2381 1159 1747 
Q 1159 1113 1420 752 
Q 1681 391 2138 391 
Q 2594 391 2855 752 
Q 3116 1113 3116 1747 
z
M 1159 2969 
Q 1341 3281 1617 3432 
Q 1894 3584 2278 3584 
Q 2916 3584 3314 3078 
Q 3713 2572 3713 1747 
Q 3713 922 3314 415 
Q 2916 -91 2278 -91 
Q 1894 -91 1617 61 
Q 1341 213 1159 525 
L 1159 0 
L 581 0 
L 581 4863 
L 1159 4863 
L 1159 2969 
z
" transform="scale(0.015625)"/>
      <path id="DejaVuSans-74" d="M 1172 4494 
L 1172 3500 
L 2356 3500 
L 2356 3053 
L 1172 3053 
L 1172 1153 
Q 1172 725 1289 603 
Q 1406 481 1766 481 
L 2356 481 
L 2356 0 
L 1766 0 
Q 1100 0 847 248 
Q 594 497 594 1153 
L 594 3053 
L 172 3053 
L 172 3500 
L 594 3500 
L 594 4494 
L 1172 4494 
z
" transform="scale(0.015625)"/>
      <path id="DejaVuSans-77" d="M 269 3500 
L 844 3500 
L 1563 769 
L 2278 3500 
L 2956 3500 
L 3675 769 
L 4391 3500 
L 4966 3500 
L 4050 0 
L 3372 0 
L 2619 2869 
L 1863 0 
L 1184 0 
L 269 3500 
z
" transform="scale(0.015625)"/>
      <path id="DejaVuSans-6e" d="M 3513 2113 
L 3513 0 
L 2938 0 
L 2938 2094 
Q 2938 2591 2744 2837 
Q 2550 3084 2163 3084 
Q 1697 3084 1428 2787 
Q 1159 2491 1159 1978 
L 1159 0 
L 581 0 
L 581 3500 
L 1159 3500 
L 1159 2956 
Q 1366 3272 1645 3428 
Q 1925 3584 2291 3584 
Q 2894 3584 3203 3211 
Q 3513 2838 3513 2113 
z
" transform="scale(0.015625)"/>
      <path id="DejaVuSans-53" d="M 3425 4513 
L 3425 3897 
Q 3066 4069 2747 4153 
Q 2428 4238 2131 4238 
Q 1616 4238 1336 4038 
Q 1056 3838 1056 3469 
Q 1056 3159 1242 3001 
Q 1428 2844 1947 2747 
L 2328 2669 
Q 3034 2534 3370 2195 
Q 3706 1856 3706 1288 
Q 3706 609 3251 259 
Q 2797 -91 1919 -91 
Q 1588 -91 1214 -16 
Q 841 59 441 206 
L 441 856 
Q 825 641 1194 531 
Q 1563 422 1919 422 
Q 2459 422 2753 634 
Q 3047 847 3047 1241 
Q 3047 1584 2836 1778 
Q 2625 1972 2144 2069 
L 1759 2144 
Q 1053 2284 737 2584 
Q 422 2884 422 3419 
Q 422 4038 858 4394 
Q 1294 4750 2059 4750 
Q 2388 4750 2728 4690 
Q 3069 4631 3425 4513 
z
" transform="scale(0.015625)"/>
      <path id="DejaVuSans-64" d="M 2906 2969 
L 2906 4863 
L 3481 4863 
L 3481 0 
L 2906 0 
L 2906 525 
Q 2725 213 2448 61 
Q 2172 -91 1784 -91 
Q 1150 -91 751 415 
Q 353 922 353 1747 
Q 353 2572 751 3078 
Q 1150 3584 1784 3584 
Q 2172 3584 2448 3432 
Q 2725 3281 2906 2969 
z
M 947 1747 
Q 947 1113 1208 752 
Q 1469 391 1925 391 
Q 2381 391 2643 752 
Q 2906 1113 2906 1747 
Q 2906 2381 2643 2742 
Q 2381 3103 1925 3103 
Q 1469 3103 1208 2742 
Q 947 2381 947 1747 
z
" transform="scale(0.015625)"/>
      <path id="DejaVuSans-6f" d="M 1959 3097 
Q 1497 3097 1228 2736 
Q 959 2375 959 1747 
Q 959 1119 1226 758 
Q 1494 397 1959 397 
Q 2419 397 2687 759 
Q 2956 1122 2956 1747 
Q 2956 2369 2687 2733 
Q 2419 3097 1959 3097 
z
M 1959 3584 
Q 2709 3584 3137 3096 
Q 3566 2609 3566 1747 
Q 3566 888 3137 398 
Q 2709 -91 1959 -91 
Q 1206 -91 779 398 
Q 353 888 353 1747 
Q 353 2609 779 3096 
Q 1206 3584 1959 3584 
z
" transform="scale(0.015625)"/>
      <path id="DejaVuSans-72" d="M 2631 2963 
Q 2534 3019 2420 3045 
Q 2306 3072 2169 3072 
Q 1681 3072 1420 2755 
Q 1159 2438 1159 1844 
L 1159 0 
L 581 0 
L 581 3500 
L 1159 3500 
L 1159 2956 
Q 1341 3275 1631 3429 
Q 1922 3584 2338 3584 
Q 2397 3584 2469 3576 
Q 2541 3569 2628 3553 
L 2631 2963 
z
" transform="scale(0.015625)"/>
      <path id="DejaVuSans-68" d="M 3513 2113 
L 3513 0 
L 2938 0 
L 2938 2094 
Q 2938 2591 2744 2837 
Q 2550 3084 2163 3084 
Q 1697 3084 1428 2787 
Q 1159 2491 1159 1978 
L 1159 0 
L 581 0 
L 581 4863 
L 1159 4863 
L 1159 2956 
Q 1366 3272 1645 3428 
Q 1925 3584 2291 3584 
Q 2894 3584 3203 3211 
Q 3513 2838 3513 2113 
z
" transform="scale(0.015625)"/>
      <path id="DejaVuSans-66" d="M 2375 4863 
L 2375 4384 
L 1825 4384 
Q 1516 4384 1395 4259 
Q 1275 4134 1275 3809 
L 1275 3500 
L 2222 3500 
L 2222 3053 
L 1275 3053 
L 1275 0 
L 697 0 
L 697 3053 
L 147 3053 
L 147 3500 
L 697 3500 
L 697 3744 
Q 697 4328 969 4595 
Q 1241 4863 1831 4863 
L 2375 4863 
z
" transform="scale(0.015625)"/>
      <path id="DejaVuSans-6c" d="M 603 4863 
L 1178 4863 
L 1178 0 
L 603 0 
L 603 4863 
z
" transform="scale(0.015625)"/>
      <path id="DejaVuSans-6d" d="M 3328 2828 
Q 3544 3216 3844 3400 
Q 4144 3584 4550 3584 
Q 5097 3584 5394 3201 
Q 5691 2819 5691 2113 
L 5691 0 
L 5113 0 
L 5113 2094 
Q 5113 2597 4934 2840 
Q 4756 3084 4391 3084 
Q 3944 3084 3684 2787 
Q 3425 2491 3425 1978 
L 3425 0 
L 2847 0 
L 2847 2094 
Q 2847 2600 2669 2842 
Q 2491 3084 2119 3084 
Q 1678 3084 1418 2786 
Q 1159 2488 1159 1978 
L 1159 0 
L 581 0 
L 581 3500 
L 1159 3500 
L 1159 2956 
Q 1356 3278 1631 3431 
Q 1906 3584 2284 3584 
Q 2666 3584 2933 3390 
Q 3200 3197 3328 2828 
z
" transform="scale(0.015625)"/>
     </defs>
     <use xlink:href="#DejaVuSans-51"/>
     <use xlink:href="#DejaVuSans-75" x="78.710938"/>
     <use xlink:href="#DejaVuSans-65" x="142.089844"/>
     <use xlink:href="#DejaVuSans-75" x="203.613281"/>
     <use xlink:href="#DejaVuSans-65" x="266.992188"/>
     <use xlink:href="#DejaVuSans-20" x="328.515625"/>
     <use xlink:href="#DejaVuSans-73" x="360.302734"/>
     <use xlink:href="#DejaVuSans-69" x="412.402344"/>
     <use xlink:href="#DejaVuSans-7a" x="440.185547"/>
     <use xlink:href="#DejaVuSans-65" x="492.675781"/>
     <use xlink:href="#DejaVuSans-20" x="554.199219"/>
     <use xlink:href="#DejaVuSans-28" x="585.986328"/>
     <use xlink:href="#DejaVuSans-79" x="625"/>
     <use xlink:href="#DejaVuSans-2d" x="682.429688"/>
     <use xlink:href="#DejaVuSans-61" x="718.513672"/>
     <use xlink:href="#DejaVuSans-78" x="779.792969"/>
     <use xlink:href="#DejaVuSans-69" x="838.972656"/>
     <use xlink:href="#DejaVuSans-73" x="866.755859"/>
     <use xlink:href="#DejaVuSans-29" x="918.855469"/>
     <use xlink:href="#DejaVuSans-20" x="957.869141"/>
     <use xlink:href="#DejaVuSans-62" x="989.65625"/>
     <use xlink:href="#DejaVuSans-65" x="1053.132812"/>
     <use xlink:href="#DejaVuSans-74" x="1114.65625"/>
     <use xlink:href="#DejaVuSans-77" x="1153.865234"/>
     <use xlink:href="#DejaVuSans-65" x="1235.652344"/>
     <use xlink:href="#DejaVuSans-65" x="1297.175781"/>
     <use xlink:href="#DejaVuSans-6e" x="1358.699219"/>
     <use xlink:href="#DejaVuSans-20" x="1422.078125"/>
     <use xlink:href="#DejaVuSans-53" x="1453.865234"/>
     <use xlink:href="#DejaVuSans-35" x="1517.341797"/>
     <use xlink:href="#DejaVuSans-20" x="1580.964844"/>
     <use xlink:href="#DejaVuSans-61" x="1612.751953"/>
     <use xlink:href="#DejaVuSans-6e" x="1674.03125"/>
     <use xlink:href="#DejaVuSans-64" x="1737.410156"/>
     <use xlink:href="#DejaVuSans-20" x="1800.886719"/>
     <use xlink:href="#DejaVuSans-73" x="1832.673828"/>
     <use xlink:href="#DejaVuSans-65" x="1884.773438"/>
     <use xlink:href="#DejaVuSans-6e" x="1946.296875"/>
     <use xlink:href="#DejaVuSans-73" x="2009.675781"/>
     <use xlink:href="#DejaVuSans-6f" x="2061.775391"/>
     <use xlink:href="#DejaVuSans-72" x="2122.957031"/>
     <use xlink:href="#DejaVuSans-73" x="2164.070312"/>
     <use xlink:href="#DejaVuSans-20" x="2216.169922"/>
     <use xlink:href="#DejaVuSans-74" x="2247.957031"/>
     <use xlink:href="#DejaVuSans-68" x="2287.166016"/>
     <use xlink:href="#DejaVuSans-61" x="2350.544922"/>
     <use xlink:href="#DejaVuSans-74" x="2411.824219"/>
     <use xlink:href="#DejaVuSans-20" x="2451.033203"/>
     <use xlink:href="#DejaVuSans-66" x="2482.820312"/>
     <use xlink:href="#DejaVuSans-6f" x="2518.025391"/>
     <use xlink:href="#DejaVuSans-6c" x="2579.207031"/>
     <use xlink:href="#DejaVuSans-6c" x="2606.990234"/>
     <use xlink:href="#DejaVuSans-6f" x="2634.773438"/>
     <use xlink:href="#DejaVuSans-77" x="2695.955078"/>
     <use xlink:href="#DejaVuSans-20" x="2777.742188"/>
     <use xlink:href="#DejaVuSans-61" x="2809.529297"/>
     <use xlink:href="#DejaVuSans-74" x="2870.808594"/>
     <use xlink:href="#DejaVuSans-20" x="2910.017578"/>
     <use xlink:href="#DejaVuSans-61" x="2941.804688"/>
     <use xlink:href="#DejaVuSans-20" x="3003.083984"/>
     <use xlink:href="#DejaVuSans-74" x="3034.871094"/>
     <use xlink:href="#DejaVuSans-69" x="3074.080078"/>
     <use xlink:href="#DejaVuSans-6d" x="3101.863281"/>
     <use xlink:href="#DejaVuSans-65" x="3199.275391"/>
     <use xlink:href="#DejaVuSans-20" x="3260.798828"/>
     <use xlink:href="#DejaVuSans-28" x="3292.585938"/>
     <use xlink:href="#DejaVuSans-78" x="3331.599609"/>
     <use xlink:href="#DejaVuSans-2d" x="3390.779297"/>
     <use xlink:href="#DejaVuSans-61" x="3426.863281"/>
     <use xlink:href="#DejaVuSans-78" x="3488.142578"/>
     <use xlink:href="#DejaVuSans-69" x="3547.322266"/>
     <use xlink:href="#DejaVuSans-73" x="3575.105469"/>
     <use xlink:href="#DejaVuSans-29" x="3627.205078"/>
     <use xlink:href="#DejaVuSans-2e" x="3666.21875"/>
    </g>
   </g>
  </g>
 </g>
 <defs>
  <clipPath id="p50d982ba05">
   <rect x="57.6" y="41.472" width="357.12" height="266.112"/>
  </clipPath>
 </defs>
</svg>
