<?xml version="1.0" encoding="utf-8" standalone="no"?>
<!DOCTYPE svg PUBLIC "-//W3C//DTD SVG 1.1//EN"
  "http://www.w3.org/Graphics/SVG/1.1/DTD/svg11.dtd">
<svg xmlns:xlink="http://www.w3.org/1999/xlink" width="460.8pt" height="345.6pt" viewBox="0 0 460.8 345.6" xmlns="http://www.w3.org/2000/svg" version="1.1">
 <metadata>
  <rdf:RDF xmlns:dc="http://purl.org/dc/elements/1.1/" xmlns:cc="http://creativecommons.org/ns#" xmlns:rdf="http://www.w3.org/1999/02/22-rdf-syntax-ns#">
   <cc:Work>
    <dc:type rdf:resource="http://purl.org/dc/dcmitype/StillImage"/>
    <dc:date>2024-03-08T12:51:09.505353</dc:date>
    <dc:format>image/svg+xml</dc:format>
    <dc:creator>
     <cc:Agent>
      <dc:title>Matplotlib v3.8.2, https://matplotlib.org/</dc:title>
     </cc:Agent>
    </dc:creator>
   </cc:Work>
  </rdf:RDF>
 </metadata>
 <defs>
  <style type="text/css">*{stroke-linejoin: round; stroke-linecap: butt}</style>
 </defs>
 <g id="figure_1">
  <g id="patch_1">
   <path d="M 0 345.6 
L 460.8 345.6 
L 460.8 0 
L 0 0 
z
" style="fill: #ffffff"/>
  </g>
  <g id="axes_1">
   <g id="patch_2">
    <path d="M 57.6 307.584 
L 414.72 307.584 
L 414.72 41.472 
L 57.6 41.472 
z
" style="fill: #ffffff"/>
   </g>
   <g id="matplotlib.axis_1">
    <g id="xtick_1">
     <g id="line2d_1">
      <defs>
       <path id="mfa13219a84" d="M 0 0 
L 0 3.5 
" style="stroke: #000000; stroke-width: 0.8"/>
      </defs>
      <g>
       <use xlink:href="#mfa13219a84" x="73.832727" y="307.584" style="stroke: #000000; stroke-width: 0.8"/>
      </g>
     </g>
     <g id="text_1">
      <!-- 0 -->
      <g transform="translate(70.651477 322.182437) scale(0.1 -0.1)">
       <defs>
        <path id="DejaVuSans-30" d="M 2034 4250 
Q 1547 4250 1301 3770 
Q 1056 3291 1056 2328 
Q 1056 1369 1301 889 
Q 1547 409 2034 409 
Q 2525 409 2770 889 
Q 3016 1369 3016 2328 
Q 3016 3291 2770 3770 
Q 2525 4250 2034 4250 
z
M 2034 4750 
Q 2819 4750 3233 4129 
Q 3647 3509 3647 2328 
Q 3647 1150 3233 529 
Q 2819 -91 2034 -91 
Q 1250 -91 836 529 
Q 422 1150 422 2328 
Q 422 3509 836 4129 
Q 1250 4750 2034 4750 
z
" transform="scale(0.015625)"/>
       </defs>
       <use xlink:href="#DejaVuSans-30"/>
      </g>
     </g>
    </g>
    <g id="xtick_2">
     <g id="line2d_2">
      <g>
       <use xlink:href="#mfa13219a84" x="127.018164" y="307.584" style="stroke: #000000; stroke-width: 0.8"/>
      </g>
     </g>
     <g id="text_2">
      <!-- 50000 -->
      <g transform="translate(111.111914 322.182437) scale(0.1 -0.1)">
       <defs>
        <path id="DejaVuSans-35" d="M 691 4666 
L 3169 4666 
L 3169 4134 
L 1269 4134 
L 1269 2991 
Q 1406 3038 1543 3061 
Q 1681 3084 1819 3084 
Q 2600 3084 3056 2656 
Q 3513 2228 3513 1497 
Q 3513 744 3044 326 
Q 2575 -91 1722 -91 
Q 1428 -91 1123 -41 
Q 819 9 494 109 
L 494 744 
Q 775 591 1075 516 
Q 1375 441 1709 441 
Q 2250 441 2565 725 
Q 2881 1009 2881 1497 
Q 2881 1984 2565 2268 
Q 2250 2553 1709 2553 
Q 1456 2553 1204 2497 
Q 953 2441 691 2322 
L 691 4666 
z
" transform="scale(0.015625)"/>
       </defs>
       <use xlink:href="#DejaVuSans-35"/>
       <use xlink:href="#DejaVuSans-30" x="63.623047"/>
       <use xlink:href="#DejaVuSans-30" x="127.246094"/>
       <use xlink:href="#DejaVuSans-30" x="190.869141"/>
       <use xlink:href="#DejaVuSans-30" x="254.492188"/>
      </g>
     </g>
    </g>
    <g id="xtick_3">
     <g id="line2d_3">
      <g>
       <use xlink:href="#mfa13219a84" x="180.203602" y="307.584" style="stroke: #000000; stroke-width: 0.8"/>
      </g>
     </g>
     <g id="text_3">
      <!-- 100000 -->
      <g transform="translate(161.116102 322.182437) scale(0.1 -0.1)">
       <defs>
        <path id="DejaVuSans-31" d="M 794 531 
L 1825 531 
L 1825 4091 
L 703 3866 
L 703 4441 
L 1819 4666 
L 2450 4666 
L 2450 531 
L 3481 531 
L 3481 0 
L 794 0 
L 794 531 
z
" transform="scale(0.015625)"/>
       </defs>
       <use xlink:href="#DejaVuSans-31"/>
       <use xlink:href="#DejaVuSans-30" x="63.623047"/>
       <use xlink:href="#DejaVuSans-30" x="127.246094"/>
       <use xlink:href="#DejaVuSans-30" x="190.869141"/>
       <use xlink:href="#DejaVuSans-30" x="254.492188"/>
       <use xlink:href="#DejaVuSans-30" x="318.115234"/>
      </g>
     </g>
    </g>
    <g id="xtick_4">
     <g id="line2d_4">
      <g>
       <use xlink:href="#mfa13219a84" x="233.389039" y="307.584" style="stroke: #000000; stroke-width: 0.8"/>
      </g>
     </g>
     <g id="text_4">
      <!-- 150000 -->
      <g transform="translate(214.301539 322.182437) scale(0.1 -0.1)">
       <use xlink:href="#DejaVuSans-31"/>
       <use xlink:href="#DejaVuSans-35" x="63.623047"/>
       <use xlink:href="#DejaVuSans-30" x="127.246094"/>
       <use xlink:href="#DejaVuSans-30" x="190.869141"/>
       <use xlink:href="#DejaVuSans-30" x="254.492188"/>
       <use xlink:href="#DejaVuSans-30" x="318.115234"/>
      </g>
     </g>
    </g>
    <g id="xtick_5">
     <g id="line2d_5">
      <g>
       <use xlink:href="#mfa13219a84" x="286.574476" y="307.584" style="stroke: #000000; stroke-width: 0.8"/>
      </g>
     </g>
     <g id="text_5">
      <!-- 200000 -->
      <g transform="translate(267.486976 322.182437) scale(0.1 -0.1)">
       <defs>
        <path id="DejaVuSans-32" d="M 1228 531 
L 3431 531 
L 3431 0 
L 469 0 
L 469 531 
Q 828 903 1448 1529 
Q 2069 2156 2228 2338 
Q 2531 2678 2651 2914 
Q 2772 3150 2772 3378 
Q 2772 3750 2511 3984 
Q 2250 4219 1831 4219 
Q 1534 4219 1204 4116 
Q 875 4013 500 3803 
L 500 4441 
Q 881 4594 1212 4672 
Q 1544 4750 1819 4750 
Q 2544 4750 2975 4387 
Q 3406 4025 3406 3419 
Q 3406 3131 3298 2873 
Q 3191 2616 2906 2266 
Q 2828 2175 2409 1742 
Q 1991 1309 1228 531 
z
" transform="scale(0.015625)"/>
       </defs>
       <use xlink:href="#DejaVuSans-32"/>
       <use xlink:href="#DejaVuSans-30" x="63.623047"/>
       <use xlink:href="#DejaVuSans-30" x="127.246094"/>
       <use xlink:href="#DejaVuSans-30" x="190.869141"/>
       <use xlink:href="#DejaVuSans-30" x="254.492188"/>
       <use xlink:href="#DejaVuSans-30" x="318.115234"/>
      </g>
     </g>
    </g>
    <g id="xtick_6">
     <g id="line2d_6">
      <g>
       <use xlink:href="#mfa13219a84" x="339.759913" y="307.584" style="stroke: #000000; stroke-width: 0.8"/>
      </g>
     </g>
     <g id="text_6">
      <!-- 250000 -->
      <g transform="translate(320.672413 322.182437) scale(0.1 -0.1)">
       <use xlink:href="#DejaVuSans-32"/>
       <use xlink:href="#DejaVuSans-35" x="63.623047"/>
       <use xlink:href="#DejaVuSans-30" x="127.246094"/>
       <use xlink:href="#DejaVuSans-30" x="190.869141"/>
       <use xlink:href="#DejaVuSans-30" x="254.492188"/>
       <use xlink:href="#DejaVuSans-30" x="318.115234"/>
      </g>
     </g>
    </g>
    <g id="xtick_7">
     <g id="line2d_7">
      <g>
       <use xlink:href="#mfa13219a84" x="392.94535" y="307.584" style="stroke: #000000; stroke-width: 0.8"/>
      </g>
     </g>
     <g id="text_7">
      <!-- 300000 -->
      <g transform="translate(373.85785 322.182437) scale(0.1 -0.1)">
       <defs>
        <path id="DejaVuSans-33" d="M 2597 2516 
Q 3050 2419 3304 2112 
Q 3559 1806 3559 1356 
Q 3559 666 3084 287 
Q 2609 -91 1734 -91 
Q 1441 -91 1130 -33 
Q 819 25 488 141 
L 488 750 
Q 750 597 1062 519 
Q 1375 441 1716 441 
Q 2309 441 2620 675 
Q 2931 909 2931 1356 
Q 2931 1769 2642 2001 
Q 2353 2234 1838 2234 
L 1294 2234 
L 1294 2753 
L 1863 2753 
Q 2328 2753 2575 2939 
Q 2822 3125 2822 3475 
Q 2822 3834 2567 4026 
Q 2313 4219 1838 4219 
Q 1578 4219 1281 4162 
Q 984 4106 628 3988 
L 628 4550 
Q 988 4650 1302 4700 
Q 1616 4750 1894 4750 
Q 2613 4750 3031 4423 
Q 3450 4097 3450 3541 
Q 3450 3153 3228 2886 
Q 3006 2619 2597 2516 
z
" transform="scale(0.015625)"/>
       </defs>
       <use xlink:href="#DejaVuSans-33"/>
       <use xlink:href="#DejaVuSans-30" x="63.623047"/>
       <use xlink:href="#DejaVuSans-30" x="127.246094"/>
       <use xlink:href="#DejaVuSans-30" x="190.869141"/>
       <use xlink:href="#DejaVuSans-30" x="254.492188"/>
       <use xlink:href="#DejaVuSans-30" x="318.115234"/>
      </g>
     </g>
    </g>
   </g>
   <g id="matplotlib.axis_2">
    <g id="ytick_1">
     <g id="line2d_8">
      <defs>
       <path id="mf39bfd07ba" d="M 0 0 
L -3.5 0 
" style="stroke: #000000; stroke-width: 0.8"/>
      </defs>
      <g>
       <use xlink:href="#mf39bfd07ba" x="57.6" y="295.488" style="stroke: #000000; stroke-width: 0.8"/>
      </g>
     </g>
     <g id="text_8">
      <!-- 0.0 -->
      <g transform="translate(34.696875 299.287219) scale(0.1 -0.1)">
       <defs>
        <path id="DejaVuSans-2e" d="M 684 794 
L 1344 794 
L 1344 0 
L 684 0 
L 684 794 
z
" transform="scale(0.015625)"/>
       </defs>
       <use xlink:href="#DejaVuSans-30"/>
       <use xlink:href="#DejaVuSans-2e" x="63.623047"/>
       <use xlink:href="#DejaVuSans-30" x="95.410156"/>
      </g>
     </g>
    </g>
    <g id="ytick_2">
     <g id="line2d_9">
      <g>
       <use xlink:href="#mf39bfd07ba" x="57.6" y="247.104" style="stroke: #000000; stroke-width: 0.8"/>
      </g>
     </g>
     <g id="text_9">
      <!-- 0.2 -->
      <g transform="translate(34.696875 250.903219) scale(0.1 -0.1)">
       <use xlink:href="#DejaVuSans-30"/>
       <use xlink:href="#DejaVuSans-2e" x="63.623047"/>
       <use xlink:href="#DejaVuSans-32" x="95.410156"/>
      </g>
     </g>
    </g>
    <g id="ytick_3">
     <g id="line2d_10">
      <g>
       <use xlink:href="#mf39bfd07ba" x="57.6" y="198.72" style="stroke: #000000; stroke-width: 0.8"/>
      </g>
     </g>
     <g id="text_10">
      <!-- 0.4 -->
      <g transform="translate(34.696875 202.519219) scale(0.1 -0.1)">
       <defs>
        <path id="DejaVuSans-34" d="M 2419 4116 
L 825 1625 
L 2419 1625 
L 2419 4116 
z
M 2253 4666 
L 3047 4666 
L 3047 1625 
L 3713 1625 
L 3713 1100 
L 3047 1100 
L 3047 0 
L 2419 0 
L 2419 1100 
L 313 1100 
L 313 1709 
L 2253 4666 
z
" transform="scale(0.015625)"/>
       </defs>
       <use xlink:href="#DejaVuSans-30"/>
       <use xlink:href="#DejaVuSans-2e" x="63.623047"/>
       <use xlink:href="#DejaVuSans-34" x="95.410156"/>
      </g>
     </g>
    </g>
    <g id="ytick_4">
     <g id="line2d_11">
      <g>
       <use xlink:href="#mf39bfd07ba" x="57.6" y="150.336" style="stroke: #000000; stroke-width: 0.8"/>
      </g>
     </g>
     <g id="text_11">
      <!-- 0.6 -->
      <g transform="translate(34.696875 154.135219) scale(0.1 -0.1)">
       <defs>
        <path id="DejaVuSans-36" d="M 2113 2584 
Q 1688 2584 1439 2293 
Q 1191 2003 1191 1497 
Q 1191 994 1439 701 
Q 1688 409 2113 409 
Q 2538 409 2786 701 
Q 3034 994 3034 1497 
Q 3034 2003 2786 2293 
Q 2538 2584 2113 2584 
z
M 3366 4563 
L 3366 3988 
Q 3128 4100 2886 4159 
Q 2644 4219 2406 4219 
Q 1781 4219 1451 3797 
Q 1122 3375 1075 2522 
Q 1259 2794 1537 2939 
Q 1816 3084 2150 3084 
Q 2853 3084 3261 2657 
Q 3669 2231 3669 1497 
Q 3669 778 3244 343 
Q 2819 -91 2113 -91 
Q 1303 -91 875 529 
Q 447 1150 447 2328 
Q 447 3434 972 4092 
Q 1497 4750 2381 4750 
Q 2619 4750 2861 4703 
Q 3103 4656 3366 4563 
z
" transform="scale(0.015625)"/>
       </defs>
       <use xlink:href="#DejaVuSans-30"/>
       <use xlink:href="#DejaVuSans-2e" x="63.623047"/>
       <use xlink:href="#DejaVuSans-36" x="95.410156"/>
      </g>
     </g>
    </g>
    <g id="ytick_5">
     <g id="line2d_12">
      <g>
       <use xlink:href="#mf39bfd07ba" x="57.6" y="101.952" style="stroke: #000000; stroke-width: 0.8"/>
      </g>
     </g>
     <g id="text_12">
      <!-- 0.8 -->
      <g transform="translate(34.696875 105.751219) scale(0.1 -0.1)">
       <defs>
        <path id="DejaVuSans-38" d="M 2034 2216 
Q 1584 2216 1326 1975 
Q 1069 1734 1069 1313 
Q 1069 891 1326 650 
Q 1584 409 2034 409 
Q 2484 409 2743 651 
Q 3003 894 3003 1313 
Q 3003 1734 2745 1975 
Q 2488 2216 2034 2216 
z
M 1403 2484 
Q 997 2584 770 2862 
Q 544 3141 544 3541 
Q 544 4100 942 4425 
Q 1341 4750 2034 4750 
Q 2731 4750 3128 4425 
Q 3525 4100 3525 3541 
Q 3525 3141 3298 2862 
Q 3072 2584 2669 2484 
Q 3125 2378 3379 2068 
Q 3634 1759 3634 1313 
Q 3634 634 3220 271 
Q 2806 -91 2034 -91 
Q 1263 -91 848 271 
Q 434 634 434 1313 
Q 434 1759 690 2068 
Q 947 2378 1403 2484 
z
M 1172 3481 
Q 1172 3119 1398 2916 
Q 1625 2713 2034 2713 
Q 2441 2713 2670 2916 
Q 2900 3119 2900 3481 
Q 2900 3844 2670 4047 
Q 2441 4250 2034 4250 
Q 1625 4250 1398 4047 
Q 1172 3844 1172 3481 
z
" transform="scale(0.015625)"/>
       </defs>
       <use xlink:href="#DejaVuSans-30"/>
       <use xlink:href="#DejaVuSans-2e" x="63.623047"/>
       <use xlink:href="#DejaVuSans-38" x="95.410156"/>
      </g>
     </g>
    </g>
    <g id="ytick_6">
     <g id="line2d_13">
      <g>
       <use xlink:href="#mf39bfd07ba" x="57.6" y="53.568" style="stroke: #000000; stroke-width: 0.8"/>
      </g>
     </g>
     <g id="text_13">
      <!-- 1.0 -->
      <g transform="translate(34.696875 57.367219) scale(0.1 -0.1)">
       <use xlink:href="#DejaVuSans-31"/>
       <use xlink:href="#DejaVuSans-2e" x="63.623047"/>
       <use xlink:href="#DejaVuSans-30" x="95.410156"/>
      </g>
     </g>
    </g>
   </g>
   <g id="line2d_14">
    <path d="M 73.832727 295.488 
L 161.407868 295.488 
L 161.407868 294.550326 
L 164.088414 294.550326 
L 164.088414 293.612651 
L 164.545809 293.612651 
L 164.545809 292.674977 
L 165.822259 292.674977 
L 165.822259 291.737302 
L 166.726412 291.737302 
L 166.726412 290.799628 
L 168.268789 290.799628 
L 168.268789 289.861953 
L 169.417595 289.861953 
L 169.417595 288.924279 
L 169.555877 288.924279 
L 169.555877 287.986605 
L 171.491827 287.986605 
L 171.491827 287.04893 
L 171.981133 287.04893 
L 171.981133 286.111256 
L 172.151326 286.111256 
L 172.151326 285.173581 
L 173.374591 285.173581 
L 173.374591 284.235907 
L 174.831872 284.235907 
L 174.831872 283.298233 
L 175.20417 283.298233 
L 175.20417 282.360558 
L 175.746662 282.360558 
L 175.746662 281.422884 
L 175.895581 281.422884 
L 175.895581 280.485209 
L 177.118846 280.485209 
L 177.118846 279.547535 
L 177.448596 279.547535 
L 177.448596 278.60986 
L 178.597401 278.60986 
L 178.597401 277.672186 
L 178.831417 277.672186 
L 178.831417 276.734512 
L 179.193078 276.734512 
L 179.193078 275.796837 
L 179.33136 275.796837 
L 179.437731 273.921488 
L 180.799278 273.921488 
L 180.799278 272.983814 
L 181.288584 272.983814 
L 181.288584 272.04614 
L 182.043818 272.04614 
L 182.043818 271.108465 
L 182.448027 271.108465 
L 182.448027 270.170791 
L 182.905422 270.170791 
L 182.905422 269.233116 
L 183.150075 269.233116 
L 183.150075 268.295442 
L 183.958493 268.295442 
L 183.958493 267.357767 
L 184.617993 267.357767 
L 184.724364 265.482419 
L 186.139096 265.482419 
L 186.139096 264.544744 
L 186.56458 264.544744 
L 186.670951 262.669395 
L 187.383636 262.669395 
L 187.383636 261.731721 
L 188.277151 261.731721 
L 188.277151 260.794047 
L 189.277037 260.794047 
L 189.319586 258.918698 
L 189.77698 258.918698 
L 189.77698 257.981023 
L 190.010996 257.981023 
L 190.010996 257.043349 
L 190.276923 257.043349 
L 190.276923 256.105674 
L 190.670496 256.105674 
L 190.670496 255.168 
L 191.883124 255.168 
L 191.883124 254.230326 
L 192.691542 254.230326 
L 192.691542 253.292651 
L 193.021292 253.292651 
L 193.021292 252.354977 
L 193.97863 252.354977 
L 193.97863 251.417302 
L 194.340291 251.417302 
L 194.340291 250.479628 
L 194.478573 250.479628 
L 194.478573 249.541953 
L 195.201895 249.541953 
L 195.201895 248.604279 
L 195.350814 248.604279 
L 195.350814 247.666605 
L 195.648653 247.666605 
L 195.648653 246.72893 
L 196.648539 246.72893 
L 196.648539 245.791256 
L 196.914466 245.791256 
L 196.914466 244.853581 
L 197.063385 244.853581 
L 197.063385 243.915907 
L 197.201667 243.915907 
L 197.201667 242.978233 
L 197.637788 242.978233 
L 197.637788 242.040558 
L 197.9569 242.040558 
L 197.9569 241.102884 
L 198.116457 241.102884 
L 198.116457 240.165209 
L 198.935513 240.165209 
L 198.935513 239.227535 
L 199.424819 239.227535 
L 199.424819 238.28986 
L 200.350245 238.28986 
L 200.350245 237.352186 
L 200.562987 237.352186 
L 200.594898 235.476837 
L 200.765092 235.476837 
L 200.765092 234.539163 
L 202.509574 234.539163 
L 202.509574 233.601488 
L 202.679767 233.601488 
L 202.679767 232.663814 
L 203.243533 232.663814 
L 203.243533 231.72614 
L 204.137048 231.72614 
L 204.137048 230.788465 
L 204.285968 230.788465 
L 204.285968 229.850791 
L 204.573169 229.850791 
L 204.573169 228.913116 
L 205.168846 228.913116 
L 205.168846 227.975442 
L 205.881531 227.975442 
L 205.881531 227.037767 
L 206.402748 227.037767 
L 206.434659 225.162419 
L 206.828231 225.162419 
L 206.913328 223.28707 
L 207.3069 223.28707 
L 207.3069 222.349395 
L 207.743021 222.349395 
L 207.743021 221.411721 
L 207.860029 221.411721 
L 207.860029 220.474047 
L 208.008948 220.474047 
L 208.008948 219.536372 
L 208.274875 219.536372 
L 208.274875 218.598698 
L 208.508891 218.598698 
L 208.530165 216.723349 
L 208.966286 216.723349 
L 208.966286 215.785674 
L 209.561963 215.785674 
L 209.561963 214.848 
L 210.210825 214.848 
L 210.210825 213.910326 
L 210.434204 213.910326 
L 210.434204 212.972651 
L 210.721405 212.972651 
L 210.721405 212.034977 
L 210.976696 212.034977 
L 211.083066 210.159628 
L 211.700017 210.159628 
L 211.700017 209.221953 
L 212.082953 209.221953 
L 212.082953 208.284279 
L 212.231872 208.284279 
L 212.231872 207.346605 
L 212.848823 207.346605 
L 212.848823 206.40893 
L 213.093476 206.40893 
L 213.093476 205.471256 
L 213.210484 205.471256 
L 213.210484 204.533581 
L 213.891257 204.533581 
L 213.891257 203.595907 
L 214.625216 203.595907 
L 214.625216 202.658233 
L 214.954966 202.658233 
L 214.986877 200.782884 
L 215.242168 200.782884 
L 215.348538 198.907535 
L 215.412361 198.907535 
L 215.412361 197.96986 
L 215.720837 197.96986 
L 215.763385 196.094512 
L 217.146206 196.094512 
L 217.146206 195.156837 
L 217.465319 195.156837 
L 217.539778 193.281488 
L 217.614238 193.281488 
L 217.614238 192.343814 
L 218.33756 192.343814 
L 218.433294 190.468465 
L 218.614124 190.468465 
L 218.614124 189.530791 
L 219.007697 189.530791 
L 219.007697 188.593116 
L 219.241712 188.593116 
L 219.241712 187.655442 
L 219.571462 187.655442 
L 219.571462 186.717767 
L 220.27351 186.717767 
L 220.27351 185.780093 
L 221.071291 185.780093 
L 221.071291 184.842419 
L 221.252122 184.842419 
L 221.252122 183.904744 
L 221.390404 183.904744 
L 221.390404 182.96707 
L 221.677605 182.96707 
L 221.677605 182.029395 
L 222.113726 182.029395 
L 222.113726 181.091721 
L 222.422202 181.091721 
L 222.422202 180.154047 
L 222.783863 180.154047 
L 222.783863 179.216372 
L 222.900871 179.216372 
L 222.900871 178.278698 
L 223.539096 178.278698 
L 223.539096 177.341023 
L 223.719926 177.341023 
L 223.81566 175.465674 
L 224.464522 175.465674 
L 224.464522 174.528 
L 224.709175 174.528 
L 224.709175 173.590326 
L 225.038925 173.590326 
L 225.038925 172.652651 
L 225.592054 172.652651 
L 225.687787 170.777302 
L 225.921803 170.777302 
L 225.93244 168.901953 
L 226.091997 168.901953 
L 226.091997 167.964279 
L 226.315376 167.964279 
L 226.315376 167.026605 
L 226.443021 167.026605 
L 226.443021 166.08893 
L 227.347173 166.08893 
L 227.347173 165.151256 
L 227.783294 165.151256 
L 227.815205 163.275907 
L 228.102406 163.275907 
L 228.102406 162.338233 
L 228.293874 162.338233 
L 228.315148 160.462884 
L 229.900074 160.462884 
L 229.974534 157.64986 
L 229.974534 157.64986 
L 230.017082 157.64986 
L 230.112816 155.774512 
L 230.251098 155.774512 
L 230.251098 154.836837 
L 230.942509 154.836837 
L 230.942509 153.899163 
L 232.006217 153.899163 
L 232.006217 152.961488 
L 232.123225 152.961488 
L 232.123225 152.023814 
L 232.335967 152.023814 
L 232.335967 151.08614 
L 232.665717 151.08614 
L 232.665717 150.148465 
L 233.080563 150.148465 
L 233.080563 149.210791 
L 233.325216 149.210791 
L 233.325216 148.273116 
L 233.612418 148.273116 
L 233.633692 146.397767 
L 233.888982 146.397767 
L 233.888982 145.460093 
L 234.208094 145.460093 
L 234.208094 144.522419 
L 234.44211 144.522419 
L 234.44211 143.584744 
L 234.729312 143.584744 
L 234.729312 142.64707 
L 235.324989 142.64707 
L 235.324989 141.709395 
L 235.761109 141.709395 
L 235.761109 140.771721 
L 236.250415 140.771721 
L 236.335512 138.896372 
L 236.569528 138.896372 
L 236.569528 137.958698 
L 236.835455 137.958698 
L 236.835455 137.021023 
L 236.973737 137.021023 
L 236.973737 136.083349 
L 237.335398 136.083349 
L 237.335398 135.145674 
L 238.037446 135.145674 
L 238.037446 134.208 
L 238.452292 134.208 
L 238.452292 133.270326 
L 238.686308 133.270326 
L 238.686308 132.332651 
L 239.930847 132.332651 
L 239.930847 131.394977 
L 240.590347 131.394977 
L 240.696718 127.644279 
L 240.856274 127.644279 
L 240.856274 126.706605 
L 242.526297 126.706605 
L 242.526297 125.76893 
L 242.728401 125.76893 
L 242.728401 124.831256 
L 242.973054 124.831256 
L 242.973054 123.893581 
L 243.345353 123.893581 
L 243.345353 122.955907 
L 244.292053 122.955907 
L 244.355876 121.080558 
L 244.855819 121.080558 
L 244.855819 120.142884 
L 245.206843 120.142884 
L 245.206843 119.205209 
L 245.98335 119.205209 
L 245.98335 118.267535 
L 246.930051 118.267535 
L 246.930051 117.32986 
L 247.876752 117.32986 
L 247.876752 116.392186 
L 248.631985 116.392186 
L 248.631985 115.454512 
L 249.004283 115.454512 
L 249.004283 114.516837 
L 250.589209 114.516837 
L 250.589209 113.579163 
L 251.152975 113.579163 
L 251.152975 112.641488 
L 253.259118 112.641488 
L 253.291029 110.76614 
L 255.950301 110.76614 
L 255.950301 109.828465 
L 258.609573 109.828465 
L 258.609573 108.890791 
L 261.268845 108.890791 
L 261.268845 107.953116 
L 263.949391 107.953116 
L 263.949391 107.015442 
L 267.278799 107.015442 
L 267.278799 106.077767 
L 268.246774 106.077767 
L 268.246774 105.140093 
L 269.863612 105.140093 
L 269.863612 104.202419 
L 270.959232 104.202419 
L 270.959232 103.264744 
L 273.650415 103.264744 
L 273.650415 102.32707 
L 276.277775 102.32707 
L 276.277775 101.389395 
L 278.894499 101.389395 
L 278.894499 100.451721 
L 281.575045 100.451721 
L 281.575045 99.514047 
L 284.234317 99.514047 
L 284.234317 98.576372 
L 286.936137 98.576372 
L 286.936137 97.638698 
L 289.595409 97.638698 
L 289.595409 96.701023 
L 292.254681 96.701023 
L 292.254681 95.763349 
L 294.913952 95.763349 
L 294.913952 94.825674 
L 296.009572 94.825674 
L 296.009572 93.888 
L 297.594498 93.888 
L 297.594498 92.950326 
L 298.711393 92.950326 
L 298.711393 92.012651 
L 304.083122 92.012651 
L 304.083122 91.074977 
L 306.784942 91.074977 
L 306.784942 90.137302 
L 327.399617 90.137302 
L 327.399617 89.199628 
L 331.197058 89.199628 
L 331.197058 88.261953 
L 334.888127 88.261953 
L 334.888127 87.324279 
L 336.207126 87.324279 
L 336.207126 86.386605 
L 338.664293 86.386605 
L 338.664293 85.44893 
L 338.823849 85.44893 
L 338.823849 84.511256 
L 341.483121 84.511256 
L 341.483121 83.573581 
L 342.408548 83.573581 
L 342.408548 82.635907 
L 344.15303 82.635907 
L 344.15303 81.698233 
L 346.120891 81.698233 
L 346.120891 80.760558 
L 346.85485 80.760558 
L 346.85485 79.822884 
L 349.503485 79.822884 
L 349.503485 78.885209 
L 349.790686 78.885209 
L 349.790686 77.947535 
L 352.173394 77.947535 
L 352.173394 77.00986 
L 353.226466 77.00986 
L 353.226466 76.072186 
L 353.556215 76.072186 
L 353.556215 75.134512 
L 354.85394 75.134512 
L 354.85394 74.196837 
L 355.864463 74.196837 
L 355.864463 73.259163 
L 357.289833 73.259163 
L 357.289833 72.321488 
L 358.598195 72.321488 
L 358.598195 71.383814 
L 360.948991 71.383814 
L 360.948991 70.44614 
L 361.214918 70.44614 
L 361.214918 69.508465 
L 363.852916 69.508465 
L 363.852916 68.570791 
L 364.618786 68.570791 
L 364.618786 67.633116 
L 366.522825 67.633116 
L 366.522825 66.695442 
L 368.320493 66.695442 
L 368.320493 65.757767 
L 369.182097 65.757767 
L 369.182097 64.820093 
L 371.830732 64.820093 
L 371.830732 63.882419 
L 372.075385 63.882419 
L 372.075385 62.944744 
L 374.458092 62.944744 
L 374.458092 62.00707 
L 377.17055 62.00707 
L 377.17055 61.069395 
L 379.819184 61.069395 
L 379.819184 60.131721 
L 382.467819 60.131721 
L 382.467819 59.194047 
L 385.127091 59.194047 
L 385.127091 58.256372 
L 387.818274 58.256372 
L 387.818274 57.318698 
L 390.477546 57.318698 
L 390.477546 56.381023 
L 393.136818 56.381023 
L 393.136818 55.443349 
L 395.79609 55.443349 
L 395.79609 54.505674 
L 398.487273 54.505674 
L 398.487273 53.568 
L 398.487273 53.568 
" clip-path="url(#p8faadc6291)" style="fill: none; stroke: #1f77b4; stroke-width: 1.5; stroke-linecap: square"/>
   </g>
   <g id="patch_3">
    <path d="M 57.6 307.584 
L 57.6 41.472 
" style="fill: none; stroke: #000000; stroke-width: 0.8; stroke-linejoin: miter; stroke-linecap: square"/>
   </g>
   <g id="patch_4">
    <path d="M 414.72 307.584 
L 414.72 41.472 
" style="fill: none; stroke: #000000; stroke-width: 0.8; stroke-linejoin: miter; stroke-linecap: square"/>
   </g>
   <g id="patch_5">
    <path d="M 57.6 307.584 
L 414.72 307.584 
" style="fill: none; stroke: #000000; stroke-width: 0.8; stroke-linejoin: miter; stroke-linecap: square"/>
   </g>
   <g id="patch_6">
    <path d="M 57.6 41.472 
L 414.72 41.472 
" style="fill: none; stroke: #000000; stroke-width: 0.8; stroke-linejoin: miter; stroke-linecap: square"/>
   </g>
   <g id="text_14">
    <!-- S1 S103 -->
    <g transform="translate(211.365 35.472) scale(0.12 -0.12)">
     <defs>
      <path id="DejaVuSans-53" d="M 3425 4513 
L 3425 3897 
Q 3066 4069 2747 4153 
Q 2428 4238 2131 4238 
Q 1616 4238 1336 4038 
Q 1056 3838 1056 3469 
Q 1056 3159 1242 3001 
Q 1428 2844 1947 2747 
L 2328 2669 
Q 3034 2534 3370 2195 
Q 3706 1856 3706 1288 
Q 3706 609 3251 259 
Q 2797 -91 1919 -91 
Q 1588 -91 1214 -16 
Q 841 59 441 206 
L 441 856 
Q 825 641 1194 531 
Q 1563 422 1919 422 
Q 2459 422 2753 634 
Q 3047 847 3047 1241 
Q 3047 1584 2836 1778 
Q 2625 1972 2144 2069 
L 1759 2144 
Q 1053 2284 737 2584 
Q 422 2884 422 3419 
Q 422 4038 858 4394 
Q 1294 4750 2059 4750 
Q 2388 4750 2728 4690 
Q 3069 4631 3425 4513 
z
" transform="scale(0.015625)"/>
      <path id="DejaVuSans-20" transform="scale(0.015625)"/>
     </defs>
     <use xlink:href="#DejaVuSans-53"/>
     <use xlink:href="#DejaVuSans-31" x="63.476562"/>
     <use xlink:href="#DejaVuSans-20" x="127.099609"/>
     <use xlink:href="#DejaVuSans-53" x="158.886719"/>
     <use xlink:href="#DejaVuSans-31" x="222.363281"/>
     <use xlink:href="#DejaVuSans-30" x="285.986328"/>
     <use xlink:href="#DejaVuSans-33" x="349.609375"/>
    </g>
   </g>
   <g id="legend_1">
    <g id="patch_7">
     <path d="M 291.861562 304.584 
L 410.52 304.584 
Q 411.72 304.584 411.72 303.384 
L 411.72 295.177125 
Q 411.72 293.977125 410.52 293.977125 
L 291.861562 293.977125 
Q 290.661563 293.977125 290.661563 295.177125 
L 290.661563 303.384 
Q 290.661563 304.584 291.861562 304.584 
z
" style="fill: #ffffff; opacity: 0.8; stroke: #cccccc; stroke-linejoin: miter"/>
    </g>
    <g id="line2d_15">
     <path d="M 293.061562 298.836187 
L 299.061562 298.836187 
L 305.061562 298.836187 
" style="fill: none; stroke: #1f77b4; stroke-width: 1.5; stroke-linecap: square"/>
    </g>
    <g id="text_15">
     <!-- Execution time between S1 S103 -->
     <g transform="translate(309.861562 300.936187) scale(0.06 -0.06)">
      <defs>
       <path id="DejaVuSans-45" d="M 628 4666 
L 3578 4666 
L 3578 4134 
L 1259 4134 
L 1259 2753 
L 3481 2753 
L 3481 2222 
L 1259 2222 
L 1259 531 
L 3634 531 
L 3634 0 
L 628 0 
L 628 4666 
z
" transform="scale(0.015625)"/>
       <path id="DejaVuSans-78" d="M 3513 3500 
L 2247 1797 
L 3578 0 
L 2900 0 
L 1881 1375 
L 863 0 
L 184 0 
L 1544 1831 
L 300 3500 
L 978 3500 
L 1906 2253 
L 2834 3500 
L 3513 3500 
z
" transform="scale(0.015625)"/>
       <path id="DejaVuSans-65" d="M 3597 1894 
L 3597 1613 
L 953 1613 
Q 991 1019 1311 708 
Q 1631 397 2203 397 
Q 2534 397 2845 478 
Q 3156 559 3463 722 
L 3463 178 
Q 3153 47 2828 -22 
Q 2503 -91 2169 -91 
Q 1331 -91 842 396 
Q 353 884 353 1716 
Q 353 2575 817 3079 
Q 1281 3584 2069 3584 
Q 2775 3584 3186 3129 
Q 3597 2675 3597 1894 
z
M 3022 2063 
Q 3016 2534 2758 2815 
Q 2500 3097 2075 3097 
Q 1594 3097 1305 2825 
Q 1016 2553 972 2059 
L 3022 2063 
z
" transform="scale(0.015625)"/>
       <path id="DejaVuSans-63" d="M 3122 3366 
L 3122 2828 
Q 2878 2963 2633 3030 
Q 2388 3097 2138 3097 
Q 1578 3097 1268 2742 
Q 959 2388 959 1747 
Q 959 1106 1268 751 
Q 1578 397 2138 397 
Q 2388 397 2633 464 
Q 2878 531 3122 666 
L 3122 134 
Q 2881 22 2623 -34 
Q 2366 -91 2075 -91 
Q 1284 -91 818 406 
Q 353 903 353 1747 
Q 353 2603 823 3093 
Q 1294 3584 2113 3584 
Q 2378 3584 2631 3529 
Q 2884 3475 3122 3366 
z
" transform="scale(0.015625)"/>
       <path id="DejaVuSans-75" d="M 544 1381 
L 544 3500 
L 1119 3500 
L 1119 1403 
Q 1119 906 1312 657 
Q 1506 409 1894 409 
Q 2359 409 2629 706 
Q 2900 1003 2900 1516 
L 2900 3500 
L 3475 3500 
L 3475 0 
L 2900 0 
L 2900 538 
Q 2691 219 2414 64 
Q 2138 -91 1772 -91 
Q 1169 -91 856 284 
Q 544 659 544 1381 
z
M 1991 3584 
L 1991 3584 
z
" transform="scale(0.015625)"/>
       <path id="DejaVuSans-74" d="M 1172 4494 
L 1172 3500 
L 2356 3500 
L 2356 3053 
L 1172 3053 
L 1172 1153 
Q 1172 725 1289 603 
Q 1406 481 1766 481 
L 2356 481 
L 2356 0 
L 1766 0 
Q 1100 0 847 248 
Q 594 497 594 1153 
L 594 3053 
L 172 3053 
L 172 3500 
L 594 3500 
L 594 4494 
L 1172 4494 
z
" transform="scale(0.015625)"/>
       <path id="DejaVuSans-69" d="M 603 3500 
L 1178 3500 
L 1178 0 
L 603 0 
L 603 3500 
z
M 603 4863 
L 1178 4863 
L 1178 4134 
L 603 4134 
L 603 4863 
z
" transform="scale(0.015625)"/>
       <path id="DejaVuSans-6f" d="M 1959 3097 
Q 1497 3097 1228 2736 
Q 959 2375 959 1747 
Q 959 1119 1226 758 
Q 1494 397 1959 397 
Q 2419 397 2687 759 
Q 2956 1122 2956 1747 
Q 2956 2369 2687 2733 
Q 2419 3097 1959 3097 
z
M 1959 3584 
Q 2709 3584 3137 3096 
Q 3566 2609 3566 1747 
Q 3566 888 3137 398 
Q 2709 -91 1959 -91 
Q 1206 -91 779 398 
Q 353 888 353 1747 
Q 353 2609 779 3096 
Q 1206 3584 1959 3584 
z
" transform="scale(0.015625)"/>
       <path id="DejaVuSans-6e" d="M 3513 2113 
L 3513 0 
L 2938 0 
L 2938 2094 
Q 2938 2591 2744 2837 
Q 2550 3084 2163 3084 
Q 1697 3084 1428 2787 
Q 1159 2491 1159 1978 
L 1159 0 
L 581 0 
L 581 3500 
L 1159 3500 
L 1159 2956 
Q 1366 3272 1645 3428 
Q 1925 3584 2291 3584 
Q 2894 3584 3203 3211 
Q 3513 2838 3513 2113 
z
" transform="scale(0.015625)"/>
       <path id="DejaVuSans-6d" d="M 3328 2828 
Q 3544 3216 3844 3400 
Q 4144 3584 4550 3584 
Q 5097 3584 5394 3201 
Q 5691 2819 5691 2113 
L 5691 0 
L 5113 0 
L 5113 2094 
Q 5113 2597 4934 2840 
Q 4756 3084 4391 3084 
Q 3944 3084 3684 2787 
Q 3425 2491 3425 1978 
L 3425 0 
L 2847 0 
L 2847 2094 
Q 2847 2600 2669 2842 
Q 2491 3084 2119 3084 
Q 1678 3084 1418 2786 
Q 1159 2488 1159 1978 
L 1159 0 
L 581 0 
L 581 3500 
L 1159 3500 
L 1159 2956 
Q 1356 3278 1631 3431 
Q 1906 3584 2284 3584 
Q 2666 3584 2933 3390 
Q 3200 3197 3328 2828 
z
" transform="scale(0.015625)"/>
       <path id="DejaVuSans-62" d="M 3116 1747 
Q 3116 2381 2855 2742 
Q 2594 3103 2138 3103 
Q 1681 3103 1420 2742 
Q 1159 2381 1159 1747 
Q 1159 1113 1420 752 
Q 1681 391 2138 391 
Q 2594 391 2855 752 
Q 3116 1113 3116 1747 
z
M 1159 2969 
Q 1341 3281 1617 3432 
Q 1894 3584 2278 3584 
Q 2916 3584 3314 3078 
Q 3713 2572 3713 1747 
Q 3713 922 3314 415 
Q 2916 -91 2278 -91 
Q 1894 -91 1617 61 
Q 1341 213 1159 525 
L 1159 0 
L 581 0 
L 581 4863 
L 1159 4863 
L 1159 2969 
z
" transform="scale(0.015625)"/>
       <path id="DejaVuSans-77" d="M 269 3500 
L 844 3500 
L 1563 769 
L 2278 3500 
L 2956 3500 
L 3675 769 
L 4391 3500 
L 4966 3500 
L 4050 0 
L 3372 0 
L 2619 2869 
L 1863 0 
L 1184 0 
L 269 3500 
z
" transform="scale(0.015625)"/>
      </defs>
      <use xlink:href="#DejaVuSans-45"/>
      <use xlink:href="#DejaVuSans-78" x="63.183594"/>
      <use xlink:href="#DejaVuSans-65" x="119.238281"/>
      <use xlink:href="#DejaVuSans-63" x="180.761719"/>
      <use xlink:href="#DejaVuSans-75" x="235.742188"/>
      <use xlink:href="#DejaVuSans-74" x="299.121094"/>
      <use xlink:href="#DejaVuSans-69" x="338.330078"/>
      <use xlink:href="#DejaVuSans-6f" x="366.113281"/>
      <use xlink:href="#DejaVuSans-6e" x="427.294922"/>
      <use xlink:href="#DejaVuSans-20" x="490.673828"/>
      <use xlink:href="#DejaVuSans-74" x="522.460938"/>
      <use xlink:href="#DejaVuSans-69" x="561.669922"/>
      <use xlink:href="#DejaVuSans-6d" x="589.453125"/>
      <use xlink:href="#DejaVuSans-65" x="686.865234"/>
      <use xlink:href="#DejaVuSans-20" x="748.388672"/>
      <use xlink:href="#DejaVuSans-62" x="780.175781"/>
      <use xlink:href="#DejaVuSans-65" x="843.652344"/>
      <use xlink:href="#DejaVuSans-74" x="905.175781"/>
      <use xlink:href="#DejaVuSans-77" x="944.384766"/>
      <use xlink:href="#DejaVuSans-65" x="1026.171875"/>
      <use xlink:href="#DejaVuSans-65" x="1087.695312"/>
      <use xlink:href="#DejaVuSans-6e" x="1149.21875"/>
      <use xlink:href="#DejaVuSans-20" x="1212.597656"/>
      <use xlink:href="#DejaVuSans-53" x="1244.384766"/>
      <use xlink:href="#DejaVuSans-31" x="1307.861328"/>
      <use xlink:href="#DejaVuSans-20" x="1371.484375"/>
      <use xlink:href="#DejaVuSans-53" x="1403.271484"/>
      <use xlink:href="#DejaVuSans-31" x="1466.748047"/>
      <use xlink:href="#DejaVuSans-30" x="1530.371094"/>
      <use xlink:href="#DejaVuSans-33" x="1593.994141"/>
     </g>
    </g>
   </g>
  </g>
 </g>
 <defs>
  <clipPath id="p8faadc6291">
   <rect x="57.6" y="41.472" width="357.12" height="266.112"/>
  </clipPath>
 </defs>
</svg>
