<?xml version="1.0" encoding="utf-8" standalone="no"?>
<!DOCTYPE svg PUBLIC "-//W3C//DTD SVG 1.1//EN"
  "http://www.w3.org/Graphics/SVG/1.1/DTD/svg11.dtd">
<svg xmlns:xlink="http://www.w3.org/1999/xlink" width="460.8pt" height="345.6pt" viewBox="0 0 460.8 345.6" xmlns="http://www.w3.org/2000/svg" version="1.1">
 <metadata>
  <rdf:RDF xmlns:dc="http://purl.org/dc/elements/1.1/" xmlns:cc="http://creativecommons.org/ns#" xmlns:rdf="http://www.w3.org/1999/02/22-rdf-syntax-ns#">
   <cc:Work>
    <dc:type rdf:resource="http://purl.org/dc/dcmitype/StillImage"/>
    <dc:date>2024-03-08T12:57:29.783962</dc:date>
    <dc:format>image/svg+xml</dc:format>
    <dc:creator>
     <cc:Agent>
      <dc:title>Matplotlib v3.8.2, https://matplotlib.org/</dc:title>
     </cc:Agent>
    </dc:creator>
   </cc:Work>
  </rdf:RDF>
 </metadata>
 <defs>
  <style type="text/css">*{stroke-linejoin: round; stroke-linecap: butt}</style>
 </defs>
 <g id="figure_1">
  <g id="patch_1">
   <path d="M 0 345.6 
L 460.8 345.6 
L 460.8 0 
L 0 0 
z
" style="fill: #ffffff"/>
  </g>
  <g id="axes_1">
   <g id="patch_2">
    <path d="M 57.6 307.584 
L 414.72 307.584 
L 414.72 41.472 
L 57.6 41.472 
z
" style="fill: #ffffff"/>
   </g>
   <g id="matplotlib.axis_1">
    <g id="xtick_1">
     <g id="line2d_1">
      <defs>
       <path id="m161c7ce973" d="M 0 0 
L 0 3.5 
" style="stroke: #000000; stroke-width: 0.8"/>
      </defs>
      <g>
       <use xlink:href="#m161c7ce973" x="73.832727" y="307.584" style="stroke: #000000; stroke-width: 0.8"/>
      </g>
     </g>
     <g id="text_1">
      <!-- 0 -->
      <g transform="translate(70.651477 322.182437) scale(0.1 -0.1)">
       <defs>
        <path id="DejaVuSans-30" d="M 2034 4250 
Q 1547 4250 1301 3770 
Q 1056 3291 1056 2328 
Q 1056 1369 1301 889 
Q 1547 409 2034 409 
Q 2525 409 2770 889 
Q 3016 1369 3016 2328 
Q 3016 3291 2770 3770 
Q 2525 4250 2034 4250 
z
M 2034 4750 
Q 2819 4750 3233 4129 
Q 3647 3509 3647 2328 
Q 3647 1150 3233 529 
Q 2819 -91 2034 -91 
Q 1250 -91 836 529 
Q 422 1150 422 2328 
Q 422 3509 836 4129 
Q 1250 4750 2034 4750 
z
" transform="scale(0.015625)"/>
       </defs>
       <use xlink:href="#DejaVuSans-30"/>
      </g>
     </g>
    </g>
    <g id="xtick_2">
     <g id="line2d_2">
      <g>
       <use xlink:href="#m161c7ce973" x="118.382236" y="307.584" style="stroke: #000000; stroke-width: 0.8"/>
      </g>
     </g>
     <g id="text_2">
      <!-- 20000 -->
      <g transform="translate(102.475986 322.182437) scale(0.1 -0.1)">
       <defs>
        <path id="DejaVuSans-32" d="M 1228 531 
L 3431 531 
L 3431 0 
L 469 0 
L 469 531 
Q 828 903 1448 1529 
Q 2069 2156 2228 2338 
Q 2531 2678 2651 2914 
Q 2772 3150 2772 3378 
Q 2772 3750 2511 3984 
Q 2250 4219 1831 4219 
Q 1534 4219 1204 4116 
Q 875 4013 500 3803 
L 500 4441 
Q 881 4594 1212 4672 
Q 1544 4750 1819 4750 
Q 2544 4750 2975 4387 
Q 3406 4025 3406 3419 
Q 3406 3131 3298 2873 
Q 3191 2616 2906 2266 
Q 2828 2175 2409 1742 
Q 1991 1309 1228 531 
z
" transform="scale(0.015625)"/>
       </defs>
       <use xlink:href="#DejaVuSans-32"/>
       <use xlink:href="#DejaVuSans-30" x="63.623047"/>
       <use xlink:href="#DejaVuSans-30" x="127.246094"/>
       <use xlink:href="#DejaVuSans-30" x="190.869141"/>
       <use xlink:href="#DejaVuSans-30" x="254.492188"/>
      </g>
     </g>
    </g>
    <g id="xtick_3">
     <g id="line2d_3">
      <g>
       <use xlink:href="#m161c7ce973" x="162.931745" y="307.584" style="stroke: #000000; stroke-width: 0.8"/>
      </g>
     </g>
     <g id="text_3">
      <!-- 40000 -->
      <g transform="translate(147.025495 322.182437) scale(0.1 -0.1)">
       <defs>
        <path id="DejaVuSans-34" d="M 2419 4116 
L 825 1625 
L 2419 1625 
L 2419 4116 
z
M 2253 4666 
L 3047 4666 
L 3047 1625 
L 3713 1625 
L 3713 1100 
L 3047 1100 
L 3047 0 
L 2419 0 
L 2419 1100 
L 313 1100 
L 313 1709 
L 2253 4666 
z
" transform="scale(0.015625)"/>
       </defs>
       <use xlink:href="#DejaVuSans-34"/>
       <use xlink:href="#DejaVuSans-30" x="63.623047"/>
       <use xlink:href="#DejaVuSans-30" x="127.246094"/>
       <use xlink:href="#DejaVuSans-30" x="190.869141"/>
       <use xlink:href="#DejaVuSans-30" x="254.492188"/>
      </g>
     </g>
    </g>
    <g id="xtick_4">
     <g id="line2d_4">
      <g>
       <use xlink:href="#m161c7ce973" x="207.481254" y="307.584" style="stroke: #000000; stroke-width: 0.8"/>
      </g>
     </g>
     <g id="text_4">
      <!-- 60000 -->
      <g transform="translate(191.575004 322.182437) scale(0.1 -0.1)">
       <defs>
        <path id="DejaVuSans-36" d="M 2113 2584 
Q 1688 2584 1439 2293 
Q 1191 2003 1191 1497 
Q 1191 994 1439 701 
Q 1688 409 2113 409 
Q 2538 409 2786 701 
Q 3034 994 3034 1497 
Q 3034 2003 2786 2293 
Q 2538 2584 2113 2584 
z
M 3366 4563 
L 3366 3988 
Q 3128 4100 2886 4159 
Q 2644 4219 2406 4219 
Q 1781 4219 1451 3797 
Q 1122 3375 1075 2522 
Q 1259 2794 1537 2939 
Q 1816 3084 2150 3084 
Q 2853 3084 3261 2657 
Q 3669 2231 3669 1497 
Q 3669 778 3244 343 
Q 2819 -91 2113 -91 
Q 1303 -91 875 529 
Q 447 1150 447 2328 
Q 447 3434 972 4092 
Q 1497 4750 2381 4750 
Q 2619 4750 2861 4703 
Q 3103 4656 3366 4563 
z
" transform="scale(0.015625)"/>
       </defs>
       <use xlink:href="#DejaVuSans-36"/>
       <use xlink:href="#DejaVuSans-30" x="63.623047"/>
       <use xlink:href="#DejaVuSans-30" x="127.246094"/>
       <use xlink:href="#DejaVuSans-30" x="190.869141"/>
       <use xlink:href="#DejaVuSans-30" x="254.492188"/>
      </g>
     </g>
    </g>
    <g id="xtick_5">
     <g id="line2d_5">
      <g>
       <use xlink:href="#m161c7ce973" x="252.030763" y="307.584" style="stroke: #000000; stroke-width: 0.8"/>
      </g>
     </g>
     <g id="text_5">
      <!-- 80000 -->
      <g transform="translate(236.124513 322.182437) scale(0.1 -0.1)">
       <defs>
        <path id="DejaVuSans-38" d="M 2034 2216 
Q 1584 2216 1326 1975 
Q 1069 1734 1069 1313 
Q 1069 891 1326 650 
Q 1584 409 2034 409 
Q 2484 409 2743 651 
Q 3003 894 3003 1313 
Q 3003 1734 2745 1975 
Q 2488 2216 2034 2216 
z
M 1403 2484 
Q 997 2584 770 2862 
Q 544 3141 544 3541 
Q 544 4100 942 4425 
Q 1341 4750 2034 4750 
Q 2731 4750 3128 4425 
Q 3525 4100 3525 3541 
Q 3525 3141 3298 2862 
Q 3072 2584 2669 2484 
Q 3125 2378 3379 2068 
Q 3634 1759 3634 1313 
Q 3634 634 3220 271 
Q 2806 -91 2034 -91 
Q 1263 -91 848 271 
Q 434 634 434 1313 
Q 434 1759 690 2068 
Q 947 2378 1403 2484 
z
M 1172 3481 
Q 1172 3119 1398 2916 
Q 1625 2713 2034 2713 
Q 2441 2713 2670 2916 
Q 2900 3119 2900 3481 
Q 2900 3844 2670 4047 
Q 2441 4250 2034 4250 
Q 1625 4250 1398 4047 
Q 1172 3844 1172 3481 
z
" transform="scale(0.015625)"/>
       </defs>
       <use xlink:href="#DejaVuSans-38"/>
       <use xlink:href="#DejaVuSans-30" x="63.623047"/>
       <use xlink:href="#DejaVuSans-30" x="127.246094"/>
       <use xlink:href="#DejaVuSans-30" x="190.869141"/>
       <use xlink:href="#DejaVuSans-30" x="254.492188"/>
      </g>
     </g>
    </g>
    <g id="xtick_6">
     <g id="line2d_6">
      <g>
       <use xlink:href="#m161c7ce973" x="296.580271" y="307.584" style="stroke: #000000; stroke-width: 0.8"/>
      </g>
     </g>
     <g id="text_6">
      <!-- 100000 -->
      <g transform="translate(277.492771 322.182437) scale(0.1 -0.1)">
       <defs>
        <path id="DejaVuSans-31" d="M 794 531 
L 1825 531 
L 1825 4091 
L 703 3866 
L 703 4441 
L 1819 4666 
L 2450 4666 
L 2450 531 
L 3481 531 
L 3481 0 
L 794 0 
L 794 531 
z
" transform="scale(0.015625)"/>
       </defs>
       <use xlink:href="#DejaVuSans-31"/>
       <use xlink:href="#DejaVuSans-30" x="63.623047"/>
       <use xlink:href="#DejaVuSans-30" x="127.246094"/>
       <use xlink:href="#DejaVuSans-30" x="190.869141"/>
       <use xlink:href="#DejaVuSans-30" x="254.492188"/>
       <use xlink:href="#DejaVuSans-30" x="318.115234"/>
      </g>
     </g>
    </g>
    <g id="xtick_7">
     <g id="line2d_7">
      <g>
       <use xlink:href="#m161c7ce973" x="341.12978" y="307.584" style="stroke: #000000; stroke-width: 0.8"/>
      </g>
     </g>
     <g id="text_7">
      <!-- 120000 -->
      <g transform="translate(322.04228 322.182437) scale(0.1 -0.1)">
       <use xlink:href="#DejaVuSans-31"/>
       <use xlink:href="#DejaVuSans-32" x="63.623047"/>
       <use xlink:href="#DejaVuSans-30" x="127.246094"/>
       <use xlink:href="#DejaVuSans-30" x="190.869141"/>
       <use xlink:href="#DejaVuSans-30" x="254.492188"/>
       <use xlink:href="#DejaVuSans-30" x="318.115234"/>
      </g>
     </g>
    </g>
    <g id="xtick_8">
     <g id="line2d_8">
      <g>
       <use xlink:href="#m161c7ce973" x="385.679289" y="307.584" style="stroke: #000000; stroke-width: 0.8"/>
      </g>
     </g>
     <g id="text_8">
      <!-- 140000 -->
      <g transform="translate(366.591789 322.182437) scale(0.1 -0.1)">
       <use xlink:href="#DejaVuSans-31"/>
       <use xlink:href="#DejaVuSans-34" x="63.623047"/>
       <use xlink:href="#DejaVuSans-30" x="127.246094"/>
       <use xlink:href="#DejaVuSans-30" x="190.869141"/>
       <use xlink:href="#DejaVuSans-30" x="254.492188"/>
       <use xlink:href="#DejaVuSans-30" x="318.115234"/>
      </g>
     </g>
    </g>
   </g>
   <g id="matplotlib.axis_2">
    <g id="ytick_1">
     <g id="line2d_9">
      <defs>
       <path id="m10c890db28" d="M 0 0 
L -3.5 0 
" style="stroke: #000000; stroke-width: 0.8"/>
      </defs>
      <g>
       <use xlink:href="#m10c890db28" x="57.6" y="295.488" style="stroke: #000000; stroke-width: 0.8"/>
      </g>
     </g>
     <g id="text_9">
      <!-- 0.0 -->
      <g transform="translate(34.696875 299.287219) scale(0.1 -0.1)">
       <defs>
        <path id="DejaVuSans-2e" d="M 684 794 
L 1344 794 
L 1344 0 
L 684 0 
L 684 794 
z
" transform="scale(0.015625)"/>
       </defs>
       <use xlink:href="#DejaVuSans-30"/>
       <use xlink:href="#DejaVuSans-2e" x="63.623047"/>
       <use xlink:href="#DejaVuSans-30" x="95.410156"/>
      </g>
     </g>
    </g>
    <g id="ytick_2">
     <g id="line2d_10">
      <g>
       <use xlink:href="#m10c890db28" x="57.6" y="247.104" style="stroke: #000000; stroke-width: 0.8"/>
      </g>
     </g>
     <g id="text_10">
      <!-- 0.2 -->
      <g transform="translate(34.696875 250.903219) scale(0.1 -0.1)">
       <use xlink:href="#DejaVuSans-30"/>
       <use xlink:href="#DejaVuSans-2e" x="63.623047"/>
       <use xlink:href="#DejaVuSans-32" x="95.410156"/>
      </g>
     </g>
    </g>
    <g id="ytick_3">
     <g id="line2d_11">
      <g>
       <use xlink:href="#m10c890db28" x="57.6" y="198.72" style="stroke: #000000; stroke-width: 0.8"/>
      </g>
     </g>
     <g id="text_11">
      <!-- 0.4 -->
      <g transform="translate(34.696875 202.519219) scale(0.1 -0.1)">
       <use xlink:href="#DejaVuSans-30"/>
       <use xlink:href="#DejaVuSans-2e" x="63.623047"/>
       <use xlink:href="#DejaVuSans-34" x="95.410156"/>
      </g>
     </g>
    </g>
    <g id="ytick_4">
     <g id="line2d_12">
      <g>
       <use xlink:href="#m10c890db28" x="57.6" y="150.336" style="stroke: #000000; stroke-width: 0.8"/>
      </g>
     </g>
     <g id="text_12">
      <!-- 0.6 -->
      <g transform="translate(34.696875 154.135219) scale(0.1 -0.1)">
       <use xlink:href="#DejaVuSans-30"/>
       <use xlink:href="#DejaVuSans-2e" x="63.623047"/>
       <use xlink:href="#DejaVuSans-36" x="95.410156"/>
      </g>
     </g>
    </g>
    <g id="ytick_5">
     <g id="line2d_13">
      <g>
       <use xlink:href="#m10c890db28" x="57.6" y="101.952" style="stroke: #000000; stroke-width: 0.8"/>
      </g>
     </g>
     <g id="text_13">
      <!-- 0.8 -->
      <g transform="translate(34.696875 105.751219) scale(0.1 -0.1)">
       <use xlink:href="#DejaVuSans-30"/>
       <use xlink:href="#DejaVuSans-2e" x="63.623047"/>
       <use xlink:href="#DejaVuSans-38" x="95.410156"/>
      </g>
     </g>
    </g>
    <g id="ytick_6">
     <g id="line2d_14">
      <g>
       <use xlink:href="#m10c890db28" x="57.6" y="53.568" style="stroke: #000000; stroke-width: 0.8"/>
      </g>
     </g>
     <g id="text_14">
      <!-- 1.0 -->
      <g transform="translate(34.696875 57.367219) scale(0.1 -0.1)">
       <use xlink:href="#DejaVuSans-31"/>
       <use xlink:href="#DejaVuSans-2e" x="63.623047"/>
       <use xlink:href="#DejaVuSans-30" x="95.410156"/>
      </g>
     </g>
    </g>
   </g>
   <g id="line2d_15">
    <path d="M 73.832727 295.488 
L 80.492879 295.488 
L 80.515154 100.356449 
L 80.515154 100.356449 
L 84.413236 100.356449 
L 84.48006 99.925219 
L 84.569159 99.925219 
L 84.569159 99.709604 
L 85.549248 99.709604 
L 85.638347 98.847144 
L 85.682897 98.847144 
L 85.682897 98.631529 
L 85.79427 98.631529 
L 85.79427 98.415914 
L 91.585707 98.415914 
L 91.585707 98.200299 
L 97.332593 98.200299 
L 97.332593 97.984684 
L 97.956286 97.984684 
L 97.956286 97.76907 
L 98.691353 97.76907 
L 98.691353 97.553455 
L 101.453423 97.553455 
L 101.453423 97.33784 
L 103.190854 97.33784 
L 103.190854 97.122225 
L 105.507428 97.122225 
L 105.507428 96.90661 
L 107.957651 96.90661 
L 107.957651 96.690995 
L 108.380871 96.690995 
L 108.380871 96.47538 
L 109.695082 96.47538 
L 109.695082 96.259765 
L 113.147669 96.259765 
L 113.147669 96.04415 
L 113.348142 96.04415 
L 113.348142 95.828535 
L 113.548614 95.828535 
L 113.548614 95.61292 
L 113.860461 95.61292 
L 113.860461 95.397305 
L 114.929649 95.397305 
L 114.929649 95.18169 
L 118.048115 95.18169 
L 118.048115 94.966075 
L 118.315412 94.966075 
L 118.315412 94.75046 
L 118.850006 94.75046 
L 118.850006 94.534845 
L 119.585073 94.534845 
L 119.585073 94.31923 
L 119.986018 94.31923 
L 119.986018 94.103615 
L 120.164216 94.103615 
L 120.164216 93.888 
L 122.168944 93.888 
L 122.168944 93.672385 
L 123.416331 93.672385 
L 123.416331 93.45677 
L 124.084573 93.45677 
L 124.084573 93.241155 
L 124.86419 93.241155 
L 124.86419 93.02554 
L 124.975563 93.02554 
L 124.975563 92.809925 
L 125.198311 92.809925 
L 125.198311 92.59431 
L 125.309685 92.59431 
L 125.309685 92.378695 
L 126.356598 92.378695 
L 126.356598 92.16308 
L 128.584074 92.16308 
L 128.584074 91.947465 
L 129.230041 91.947465 
L 129.230041 91.73185 
L 129.987383 91.73185 
L 129.987383 91.516235 
L 130.121032 91.516235 
L 130.121032 91.30062 
L 130.366054 91.30062 
L 130.366054 91.085005 
L 130.477428 91.085005 
L 130.544252 90.653775 
L 133.840916 90.653775 
L 133.840916 90.43816 
L 134.486884 90.43816 
L 134.486884 90.222545 
L 134.665082 90.222545 
L 134.665082 90.00693 
L 135.288775 90.00693 
L 135.311049 89.575701 
L 135.600621 89.575701 
L 135.645171 89.144471 
L 138.808186 89.144471 
L 138.808186 88.928856 
L 139.053208 88.928856 
L 139.053208 88.713241 
L 139.587802 88.713241 
L 139.587802 88.497626 
L 140.567891 88.497626 
L 140.634716 88.066396 
L 140.723815 88.066396 
L 140.768364 87.635166 
L 143.107213 87.635166 
L 143.107213 87.419551 
L 143.574983 87.419551 
L 143.574983 87.203936 
L 144.376874 87.203936 
L 144.376874 86.988321 
L 144.733271 86.988321 
L 144.733271 86.772706 
L 145.66881 86.772706 
L 145.66881 86.557091 
L 145.891558 86.557091 
L 145.980657 85.910246 
L 147.294867 85.910246 
L 147.294867 85.694631 
L 149.589167 85.694631 
L 149.589167 85.479016 
L 150.012387 85.479016 
L 150.012387 85.263401 
L 150.591531 85.263401 
L 150.591531 85.047786 
L 150.970202 85.047786 
L 151.014751 84.616556 
L 151.192949 84.616556 
L 151.237499 84.185326 
L 151.482521 84.185326 
L 151.482521 83.969711 
L 154.846009 83.969711 
L 154.846009 83.754096 
L 155.113306 83.754096 
L 155.113306 83.538481 
L 155.670175 83.538481 
L 155.670175 83.322866 
L 156.137945 83.322866 
L 156.227044 82.891636 
L 156.405242 82.891636 
L 156.405242 82.676021 
L 156.58344 82.676021 
L 156.58344 82.460406 
L 157.741727 82.460406 
L 157.741727 82.244791 
L 159.857829 82.244791 
L 159.857829 82.029176 
L 160.125126 82.029176 
L 160.125126 81.813561 
L 160.303324 81.813561 
L 160.303324 81.597947 
L 161.439336 81.597947 
L 161.506161 81.166717 
L 161.572985 81.166717 
L 161.572985 80.951102 
L 161.884831 80.951102 
L 161.884831 80.735487 
L 164.000933 80.735487 
L 164.000933 80.519872 
L 165.025572 80.519872 
L 165.025572 80.304257 
L 165.315144 80.304257 
L 165.315144 80.088642 
L 165.67154 80.088642 
L 165.67154 79.873027 
L 166.651629 79.873027 
L 166.696178 79.441797 
L 166.852102 79.441797 
L 166.852102 79.226182 
L 167.141673 79.226182 
L 167.141673 79.010567 
L 168.144037 79.010567 
L 168.144037 78.794952 
L 170.571986 78.794952 
L 170.571986 78.579337 
L 170.861557 78.579337 
L 170.861557 78.363722 
L 171.774822 78.363722 
L 171.774822 78.148107 
L 171.95302 78.148107 
L 171.95302 77.716877 
L 171.95302 77.716877 
L 172.353966 77.716877 
L 172.376241 77.285647 
L 172.487615 77.285647 
L 172.487615 77.070032 
L 175.784278 77.070032 
L 175.784278 76.854417 
L 176.1184 76.854417 
L 176.1184 76.638802 
L 176.586169 76.638802 
L 176.586169 76.423187 
L 177.098489 76.423187 
L 177.143038 75.776342 
L 177.143038 75.776342 
L 177.766731 75.776342 
L 177.766731 75.560727 
L 179.481887 75.560727 
L 179.481887 75.345112 
L 180.796098 75.345112 
L 180.862922 74.913882 
L 181.352967 74.913882 
L 181.352967 74.698267 
L 182.288506 74.698267 
L 182.288506 74.482652 
L 182.39988 74.482652 
L 182.39988 74.267037 
L 182.533529 74.267037 
L 182.533529 74.051422 
L 183.045848 74.051422 
L 183.045848 73.835807 
L 184.983752 73.835807 
L 184.983752 73.620193 
L 186.186588 73.620193 
L 186.186588 73.404578 
L 186.52071 73.404578 
L 186.565259 72.973348 
L 187.389425 72.973348 
L 187.389425 72.757733 
L 187.612173 72.757733 
L 187.612173 72.542118 
L 187.790371 72.542118 
L 187.790371 72.326503 
L 188.235866 72.326503 
L 188.235866 72.110888 
L 192.690817 72.110888 
L 192.757641 71.679658 
L 193.091762 71.679658 
L 193.091762 71.464043 
L 193.626356 71.464043 
L 193.626356 71.248428 
L 193.78228 71.248428 
L 193.78228 71.032813 
L 197.85856 71.032813 
L 197.85856 70.817198 
L 198.125857 70.817198 
L 198.125857 70.601583 
L 198.259505 70.601583 
L 198.259505 70.385968 
L 198.794099 70.385968 
L 198.794099 70.170353 
L 200.843377 70.170353 
L 200.843377 69.954738 
L 203.070852 69.954738 
L 203.070852 69.739123 
L 203.338149 69.739123 
L 203.338149 69.523508 
L 203.516347 69.523508 
L 203.538622 69.092278 
L 204.028667 69.092278 
L 204.028667 68.876663 
L 206.322966 68.876663 
L 206.412065 68.445433 
L 207.949024 68.445433 
L 207.949024 68.229818 
L 208.439068 68.229818 
L 208.483618 67.798588 
L 209.062761 67.798588 
L 209.062761 67.582973 
L 235.146499 67.582973 
L 235.146499 67.367358 
L 239.289603 67.367358 
L 239.289603 67.151743 
L 243.521806 67.151743 
L 243.521806 66.936128 
L 247.75401 66.936128 
L 247.75401 66.720513 
L 251.963938 66.720513 
L 251.963938 66.504898 
L 253.278149 66.504898 
L 253.278149 66.289283 
L 256.062493 66.289283 
L 256.062493 66.073668 
L 258.512716 66.073668 
L 258.512716 65.858053 
L 260.294696 65.858053 
L 260.294696 65.642439 
L 263.702734 65.642439 
L 263.702734 65.426824 
L 264.571449 65.426824 
L 264.571449 65.211209 
L 268.781378 65.211209 
L 268.781378 64.995594 
L 268.937301 64.995594 
L 268.937301 64.779979 
L 272.969032 64.779979 
L 272.969032 64.564364 
L 274.283242 64.564364 
L 274.283242 64.348749 
L 275.486079 64.348749 
L 275.486079 64.133134 
L 277.22351 64.133134 
L 277.22351 63.917519 
L 279.651458 63.917519 
L 279.651458 63.701904 
L 281.500263 63.701904 
L 281.500263 63.486289 
L 282.636275 63.486289 
L 282.636275 63.270674 
L 284.886025 63.270674 
L 284.886025 63.055059 
L 285.576543 63.055059 
L 285.576543 62.839444 
L 289.697372 62.839444 
L 289.764196 62.408214 
L 290.076043 62.408214 
L 290.076043 62.192599 
L 294.040949 62.192599 
L 294.040949 61.976984 
L 295.288336 61.976984 
L 295.288336 61.761369 
L 296.981217 61.761369 
L 296.981217 61.545754 
L 298.117229 61.545754 
L 298.117229 61.330139 
L 300.522903 61.330139 
L 300.522903 61.114524 
L 302.371707 61.114524 
L 302.371707 60.898909 
L 304.086864 60.898909 
L 304.086864 60.683294 
L 305.623822 60.683294 
L 305.623822 60.467679 
L 306.64846 60.467679 
L 306.64846 60.252064 
L 310.412894 60.252064 
L 310.412894 60.036449 
L 310.76929 60.036449 
L 310.76929 59.820834 
L 310.947488 59.820834 
L 310.947488 59.605219 
L 311.214785 59.605219 
L 311.214785 59.389604 
L 315.135142 59.389604 
L 315.135142 59.173989 
L 315.536087 59.173989 
L 315.536087 58.958374 
L 315.892483 58.958374 
L 315.892483 58.742759 
L 318.320432 58.742759 
L 318.320432 58.527144 
L 319.367345 58.527144 
L 319.367345 58.311529 
L 320.637006 58.311529 
L 320.637006 58.095914 
L 321.060226 58.095914 
L 321.060226 57.880299 
L 323.577274 57.880299 
L 323.577274 57.664684 
L 325.448353 57.664684 
L 325.448353 57.44907 
L 325.849299 57.44907 
L 325.849299 57.233455 
L 326.339343 57.233455 
L 326.339343 57.01784 
L 331.039316 57.01784 
L 331.039316 56.802225 
L 331.61846 56.802225 
L 331.61846 56.58661 
L 332.50945 56.58661 
L 332.50945 56.370995 
L 336.184785 56.370995 
L 336.184785 56.15538 
L 341.374802 56.15538 
L 341.374802 55.939765 
L 346.542545 55.939765 
L 346.542545 55.72415 
L 351.732563 55.72415 
L 351.732563 55.508535 
L 356.967131 55.508535 
L 356.967131 55.29292 
L 362.157148 55.29292 
L 362.157148 55.077305 
L 367.324891 55.077305 
L 367.324891 54.86169 
L 372.448085 54.86169 
L 372.448085 54.646075 
L 377.682652 54.646075 
L 377.682652 54.43046 
L 382.805846 54.43046 
L 382.805846 54.214845 
L 388.107237 54.214845 
L 388.107237 53.99923 
L 393.341804 53.99923 
L 393.341804 53.783615 
L 398.487273 53.783615 
L 398.487273 53.568 
L 398.487273 53.568 
" clip-path="url(#p61930557cd)" style="fill: none; stroke: #1f77b4; stroke-width: 1.5; stroke-linecap: square"/>
   </g>
   <g id="patch_3">
    <path d="M 57.6 307.584 
L 57.6 41.472 
" style="fill: none; stroke: #000000; stroke-width: 0.8; stroke-linejoin: miter; stroke-linecap: square"/>
   </g>
   <g id="patch_4">
    <path d="M 414.72 307.584 
L 414.72 41.472 
" style="fill: none; stroke: #000000; stroke-width: 0.8; stroke-linejoin: miter; stroke-linecap: square"/>
   </g>
   <g id="patch_5">
    <path d="M 57.6 307.584 
L 414.72 307.584 
" style="fill: none; stroke: #000000; stroke-width: 0.8; stroke-linejoin: miter; stroke-linecap: square"/>
   </g>
   <g id="patch_6">
    <path d="M 57.6 41.472 
L 414.72 41.472 
" style="fill: none; stroke: #000000; stroke-width: 0.8; stroke-linejoin: miter; stroke-linecap: square"/>
   </g>
   <g id="text_15">
    <!-- Execution time between S1 S2 (xx1xx2xx0yyy45xx0yyy45xx0yyy3xx1xx0yyy45xx0yyy45xx0yyy45) -->
    <g transform="translate(-66.447188 35.472) scale(0.12 -0.12)">
     <defs>
      <path id="DejaVuSans-45" d="M 628 4666 
L 3578 4666 
L 3578 4134 
L 1259 4134 
L 1259 2753 
L 3481 2753 
L 3481 2222 
L 1259 2222 
L 1259 531 
L 3634 531 
L 3634 0 
L 628 0 
L 628 4666 
z
" transform="scale(0.015625)"/>
      <path id="DejaVuSans-78" d="M 3513 3500 
L 2247 1797 
L 3578 0 
L 2900 0 
L 1881 1375 
L 863 0 
L 184 0 
L 1544 1831 
L 300 3500 
L 978 3500 
L 1906 2253 
L 2834 3500 
L 3513 3500 
z
" transform="scale(0.015625)"/>
      <path id="DejaVuSans-65" d="M 3597 1894 
L 3597 1613 
L 953 1613 
Q 991 1019 1311 708 
Q 1631 397 2203 397 
Q 2534 397 2845 478 
Q 3156 559 3463 722 
L 3463 178 
Q 3153 47 2828 -22 
Q 2503 -91 2169 -91 
Q 1331 -91 842 396 
Q 353 884 353 1716 
Q 353 2575 817 3079 
Q 1281 3584 2069 3584 
Q 2775 3584 3186 3129 
Q 3597 2675 3597 1894 
z
M 3022 2063 
Q 3016 2534 2758 2815 
Q 2500 3097 2075 3097 
Q 1594 3097 1305 2825 
Q 1016 2553 972 2059 
L 3022 2063 
z
" transform="scale(0.015625)"/>
      <path id="DejaVuSans-63" d="M 3122 3366 
L 3122 2828 
Q 2878 2963 2633 3030 
Q 2388 3097 2138 3097 
Q 1578 3097 1268 2742 
Q 959 2388 959 1747 
Q 959 1106 1268 751 
Q 1578 397 2138 397 
Q 2388 397 2633 464 
Q 2878 531 3122 666 
L 3122 134 
Q 2881 22 2623 -34 
Q 2366 -91 2075 -91 
Q 1284 -91 818 406 
Q 353 903 353 1747 
Q 353 2603 823 3093 
Q 1294 3584 2113 3584 
Q 2378 3584 2631 3529 
Q 2884 3475 3122 3366 
z
" transform="scale(0.015625)"/>
      <path id="DejaVuSans-75" d="M 544 1381 
L 544 3500 
L 1119 3500 
L 1119 1403 
Q 1119 906 1312 657 
Q 1506 409 1894 409 
Q 2359 409 2629 706 
Q 2900 1003 2900 1516 
L 2900 3500 
L 3475 3500 
L 3475 0 
L 2900 0 
L 2900 538 
Q 2691 219 2414 64 
Q 2138 -91 1772 -91 
Q 1169 -91 856 284 
Q 544 659 544 1381 
z
M 1991 3584 
L 1991 3584 
z
" transform="scale(0.015625)"/>
      <path id="DejaVuSans-74" d="M 1172 4494 
L 1172 3500 
L 2356 3500 
L 2356 3053 
L 1172 3053 
L 1172 1153 
Q 1172 725 1289 603 
Q 1406 481 1766 481 
L 2356 481 
L 2356 0 
L 1766 0 
Q 1100 0 847 248 
Q 594 497 594 1153 
L 594 3053 
L 172 3053 
L 172 3500 
L 594 3500 
L 594 4494 
L 1172 4494 
z
" transform="scale(0.015625)"/>
      <path id="DejaVuSans-69" d="M 603 3500 
L 1178 3500 
L 1178 0 
L 603 0 
L 603 3500 
z
M 603 4863 
L 1178 4863 
L 1178 4134 
L 603 4134 
L 603 4863 
z
" transform="scale(0.015625)"/>
      <path id="DejaVuSans-6f" d="M 1959 3097 
Q 1497 3097 1228 2736 
Q 959 2375 959 1747 
Q 959 1119 1226 758 
Q 1494 397 1959 397 
Q 2419 397 2687 759 
Q 2956 1122 2956 1747 
Q 2956 2369 2687 2733 
Q 2419 3097 1959 3097 
z
M 1959 3584 
Q 2709 3584 3137 3096 
Q 3566 2609 3566 1747 
Q 3566 888 3137 398 
Q 2709 -91 1959 -91 
Q 1206 -91 779 398 
Q 353 888 353 1747 
Q 353 2609 779 3096 
Q 1206 3584 1959 3584 
z
" transform="scale(0.015625)"/>
      <path id="DejaVuSans-6e" d="M 3513 2113 
L 3513 0 
L 2938 0 
L 2938 2094 
Q 2938 2591 2744 2837 
Q 2550 3084 2163 3084 
Q 1697 3084 1428 2787 
Q 1159 2491 1159 1978 
L 1159 0 
L 581 0 
L 581 3500 
L 1159 3500 
L 1159 2956 
Q 1366 3272 1645 3428 
Q 1925 3584 2291 3584 
Q 2894 3584 3203 3211 
Q 3513 2838 3513 2113 
z
" transform="scale(0.015625)"/>
      <path id="DejaVuSans-20" transform="scale(0.015625)"/>
      <path id="DejaVuSans-6d" d="M 3328 2828 
Q 3544 3216 3844 3400 
Q 4144 3584 4550 3584 
Q 5097 3584 5394 3201 
Q 5691 2819 5691 2113 
L 5691 0 
L 5113 0 
L 5113 2094 
Q 5113 2597 4934 2840 
Q 4756 3084 4391 3084 
Q 3944 3084 3684 2787 
Q 3425 2491 3425 1978 
L 3425 0 
L 2847 0 
L 2847 2094 
Q 2847 2600 2669 2842 
Q 2491 3084 2119 3084 
Q 1678 3084 1418 2786 
Q 1159 2488 1159 1978 
L 1159 0 
L 581 0 
L 581 3500 
L 1159 3500 
L 1159 2956 
Q 1356 3278 1631 3431 
Q 1906 3584 2284 3584 
Q 2666 3584 2933 3390 
Q 3200 3197 3328 2828 
z
" transform="scale(0.015625)"/>
      <path id="DejaVuSans-62" d="M 3116 1747 
Q 3116 2381 2855 2742 
Q 2594 3103 2138 3103 
Q 1681 3103 1420 2742 
Q 1159 2381 1159 1747 
Q 1159 1113 1420 752 
Q 1681 391 2138 391 
Q 2594 391 2855 752 
Q 3116 1113 3116 1747 
z
M 1159 2969 
Q 1341 3281 1617 3432 
Q 1894 3584 2278 3584 
Q 2916 3584 3314 3078 
Q 3713 2572 3713 1747 
Q 3713 922 3314 415 
Q 2916 -91 2278 -91 
Q 1894 -91 1617 61 
Q 1341 213 1159 525 
L 1159 0 
L 581 0 
L 581 4863 
L 1159 4863 
L 1159 2969 
z
" transform="scale(0.015625)"/>
      <path id="DejaVuSans-77" d="M 269 3500 
L 844 3500 
L 1563 769 
L 2278 3500 
L 2956 3500 
L 3675 769 
L 4391 3500 
L 4966 3500 
L 4050 0 
L 3372 0 
L 2619 2869 
L 1863 0 
L 1184 0 
L 269 3500 
z
" transform="scale(0.015625)"/>
      <path id="DejaVuSans-53" d="M 3425 4513 
L 3425 3897 
Q 3066 4069 2747 4153 
Q 2428 4238 2131 4238 
Q 1616 4238 1336 4038 
Q 1056 3838 1056 3469 
Q 1056 3159 1242 3001 
Q 1428 2844 1947 2747 
L 2328 2669 
Q 3034 2534 3370 2195 
Q 3706 1856 3706 1288 
Q 3706 609 3251 259 
Q 2797 -91 1919 -91 
Q 1588 -91 1214 -16 
Q 841 59 441 206 
L 441 856 
Q 825 641 1194 531 
Q 1563 422 1919 422 
Q 2459 422 2753 634 
Q 3047 847 3047 1241 
Q 3047 1584 2836 1778 
Q 2625 1972 2144 2069 
L 1759 2144 
Q 1053 2284 737 2584 
Q 422 2884 422 3419 
Q 422 4038 858 4394 
Q 1294 4750 2059 4750 
Q 2388 4750 2728 4690 
Q 3069 4631 3425 4513 
z
" transform="scale(0.015625)"/>
      <path id="DejaVuSans-28" d="M 1984 4856 
Q 1566 4138 1362 3434 
Q 1159 2731 1159 2009 
Q 1159 1288 1364 580 
Q 1569 -128 1984 -844 
L 1484 -844 
Q 1016 -109 783 600 
Q 550 1309 550 2009 
Q 550 2706 781 3412 
Q 1013 4119 1484 4856 
L 1984 4856 
z
" transform="scale(0.015625)"/>
      <path id="DejaVuSans-79" d="M 2059 -325 
Q 1816 -950 1584 -1140 
Q 1353 -1331 966 -1331 
L 506 -1331 
L 506 -850 
L 844 -850 
Q 1081 -850 1212 -737 
Q 1344 -625 1503 -206 
L 1606 56 
L 191 3500 
L 800 3500 
L 1894 763 
L 2988 3500 
L 3597 3500 
L 2059 -325 
z
" transform="scale(0.015625)"/>
      <path id="DejaVuSans-35" d="M 691 4666 
L 3169 4666 
L 3169 4134 
L 1269 4134 
L 1269 2991 
Q 1406 3038 1543 3061 
Q 1681 3084 1819 3084 
Q 2600 3084 3056 2656 
Q 3513 2228 3513 1497 
Q 3513 744 3044 326 
Q 2575 -91 1722 -91 
Q 1428 -91 1123 -41 
Q 819 9 494 109 
L 494 744 
Q 775 591 1075 516 
Q 1375 441 1709 441 
Q 2250 441 2565 725 
Q 2881 1009 2881 1497 
Q 2881 1984 2565 2268 
Q 2250 2553 1709 2553 
Q 1456 2553 1204 2497 
Q 953 2441 691 2322 
L 691 4666 
z
" transform="scale(0.015625)"/>
      <path id="DejaVuSans-33" d="M 2597 2516 
Q 3050 2419 3304 2112 
Q 3559 1806 3559 1356 
Q 3559 666 3084 287 
Q 2609 -91 1734 -91 
Q 1441 -91 1130 -33 
Q 819 25 488 141 
L 488 750 
Q 750 597 1062 519 
Q 1375 441 1716 441 
Q 2309 441 2620 675 
Q 2931 909 2931 1356 
Q 2931 1769 2642 2001 
Q 2353 2234 1838 2234 
L 1294 2234 
L 1294 2753 
L 1863 2753 
Q 2328 2753 2575 2939 
Q 2822 3125 2822 3475 
Q 2822 3834 2567 4026 
Q 2313 4219 1838 4219 
Q 1578 4219 1281 4162 
Q 984 4106 628 3988 
L 628 4550 
Q 988 4650 1302 4700 
Q 1616 4750 1894 4750 
Q 2613 4750 3031 4423 
Q 3450 4097 3450 3541 
Q 3450 3153 3228 2886 
Q 3006 2619 2597 2516 
z
" transform="scale(0.015625)"/>
      <path id="DejaVuSans-29" d="M 513 4856 
L 1013 4856 
Q 1481 4119 1714 3412 
Q 1947 2706 1947 2009 
Q 1947 1309 1714 600 
Q 1481 -109 1013 -844 
L 513 -844 
Q 928 -128 1133 580 
Q 1338 1288 1338 2009 
Q 1338 2731 1133 3434 
Q 928 4138 513 4856 
z
" transform="scale(0.015625)"/>
     </defs>
     <use xlink:href="#DejaVuSans-45"/>
     <use xlink:href="#DejaVuSans-78" x="63.183594"/>
     <use xlink:href="#DejaVuSans-65" x="119.238281"/>
     <use xlink:href="#DejaVuSans-63" x="180.761719"/>
     <use xlink:href="#DejaVuSans-75" x="235.742188"/>
     <use xlink:href="#DejaVuSans-74" x="299.121094"/>
     <use xlink:href="#DejaVuSans-69" x="338.330078"/>
     <use xlink:href="#DejaVuSans-6f" x="366.113281"/>
     <use xlink:href="#DejaVuSans-6e" x="427.294922"/>
     <use xlink:href="#DejaVuSans-20" x="490.673828"/>
     <use xlink:href="#DejaVuSans-74" x="522.460938"/>
     <use xlink:href="#DejaVuSans-69" x="561.669922"/>
     <use xlink:href="#DejaVuSans-6d" x="589.453125"/>
     <use xlink:href="#DejaVuSans-65" x="686.865234"/>
     <use xlink:href="#DejaVuSans-20" x="748.388672"/>
     <use xlink:href="#DejaVuSans-62" x="780.175781"/>
     <use xlink:href="#DejaVuSans-65" x="843.652344"/>
     <use xlink:href="#DejaVuSans-74" x="905.175781"/>
     <use xlink:href="#DejaVuSans-77" x="944.384766"/>
     <use xlink:href="#DejaVuSans-65" x="1026.171875"/>
     <use xlink:href="#DejaVuSans-65" x="1087.695312"/>
     <use xlink:href="#DejaVuSans-6e" x="1149.21875"/>
     <use xlink:href="#DejaVuSans-20" x="1212.597656"/>
     <use xlink:href="#DejaVuSans-53" x="1244.384766"/>
     <use xlink:href="#DejaVuSans-31" x="1307.861328"/>
     <use xlink:href="#DejaVuSans-20" x="1371.484375"/>
     <use xlink:href="#DejaVuSans-53" x="1403.271484"/>
     <use xlink:href="#DejaVuSans-32" x="1466.748047"/>
     <use xlink:href="#DejaVuSans-20" x="1530.371094"/>
     <use xlink:href="#DejaVuSans-28" x="1562.158203"/>
     <use xlink:href="#DejaVuSans-78" x="1601.171875"/>
     <use xlink:href="#DejaVuSans-78" x="1660.351562"/>
     <use xlink:href="#DejaVuSans-31" x="1719.53125"/>
     <use xlink:href="#DejaVuSans-78" x="1783.154297"/>
     <use xlink:href="#DejaVuSans-78" x="1842.333984"/>
     <use xlink:href="#DejaVuSans-32" x="1901.513672"/>
     <use xlink:href="#DejaVuSans-78" x="1965.136719"/>
     <use xlink:href="#DejaVuSans-78" x="2024.316406"/>
     <use xlink:href="#DejaVuSans-30" x="2083.496094"/>
     <use xlink:href="#DejaVuSans-79" x="2147.119141"/>
     <use xlink:href="#DejaVuSans-79" x="2206.298828"/>
     <use xlink:href="#DejaVuSans-79" x="2265.478516"/>
     <use xlink:href="#DejaVuSans-34" x="2324.658203"/>
     <use xlink:href="#DejaVuSans-35" x="2388.28125"/>
     <use xlink:href="#DejaVuSans-78" x="2451.904297"/>
     <use xlink:href="#DejaVuSans-78" x="2511.083984"/>
     <use xlink:href="#DejaVuSans-30" x="2570.263672"/>
     <use xlink:href="#DejaVuSans-79" x="2633.886719"/>
     <use xlink:href="#DejaVuSans-79" x="2693.066406"/>
     <use xlink:href="#DejaVuSans-79" x="2752.246094"/>
     <use xlink:href="#DejaVuSans-34" x="2811.425781"/>
     <use xlink:href="#DejaVuSans-35" x="2875.048828"/>
     <use xlink:href="#DejaVuSans-78" x="2938.671875"/>
     <use xlink:href="#DejaVuSans-78" x="2997.851562"/>
     <use xlink:href="#DejaVuSans-30" x="3057.03125"/>
     <use xlink:href="#DejaVuSans-79" x="3120.654297"/>
     <use xlink:href="#DejaVuSans-79" x="3179.833984"/>
     <use xlink:href="#DejaVuSans-79" x="3239.013672"/>
     <use xlink:href="#DejaVuSans-33" x="3298.193359"/>
     <use xlink:href="#DejaVuSans-78" x="3361.816406"/>
     <use xlink:href="#DejaVuSans-78" x="3420.996094"/>
     <use xlink:href="#DejaVuSans-31" x="3480.175781"/>
     <use xlink:href="#DejaVuSans-78" x="3543.798828"/>
     <use xlink:href="#DejaVuSans-78" x="3602.978516"/>
     <use xlink:href="#DejaVuSans-30" x="3662.158203"/>
     <use xlink:href="#DejaVuSans-79" x="3725.78125"/>
     <use xlink:href="#DejaVuSans-79" x="3784.960938"/>
     <use xlink:href="#DejaVuSans-79" x="3844.140625"/>
     <use xlink:href="#DejaVuSans-34" x="3903.320312"/>
     <use xlink:href="#DejaVuSans-35" x="3966.943359"/>
     <use xlink:href="#DejaVuSans-78" x="4030.566406"/>
     <use xlink:href="#DejaVuSans-78" x="4089.746094"/>
     <use xlink:href="#DejaVuSans-30" x="4148.925781"/>
     <use xlink:href="#DejaVuSans-79" x="4212.548828"/>
     <use xlink:href="#DejaVuSans-79" x="4271.728516"/>
     <use xlink:href="#DejaVuSans-79" x="4330.908203"/>
     <use xlink:href="#DejaVuSans-34" x="4390.087891"/>
     <use xlink:href="#DejaVuSans-35" x="4453.710938"/>
     <use xlink:href="#DejaVuSans-78" x="4517.333984"/>
     <use xlink:href="#DejaVuSans-78" x="4576.513672"/>
     <use xlink:href="#DejaVuSans-30" x="4635.693359"/>
     <use xlink:href="#DejaVuSans-79" x="4699.316406"/>
     <use xlink:href="#DejaVuSans-79" x="4758.496094"/>
     <use xlink:href="#DejaVuSans-79" x="4817.675781"/>
     <use xlink:href="#DejaVuSans-34" x="4876.855469"/>
     <use xlink:href="#DejaVuSans-35" x="4940.478516"/>
     <use xlink:href="#DejaVuSans-29" x="5004.101562"/>
    </g>
   </g>
   <g id="legend_1">
    <g id="patch_7">
     <path d="M 88.712813 304.584 
L 410.52 304.584 
Q 411.72 304.584 411.72 303.384 
L 411.72 295.177125 
Q 411.72 293.977125 410.52 293.977125 
L 88.712813 293.977125 
Q 87.512813 293.977125 87.512813 295.177125 
L 87.512813 303.384 
Q 87.512813 304.584 88.712813 304.584 
z
" style="fill: #ffffff; opacity: 0.8; stroke: #cccccc; stroke-linejoin: miter"/>
    </g>
    <g id="line2d_16">
     <path d="M 89.912813 298.836187 
L 95.912813 298.836187 
L 101.912813 298.836187 
" style="fill: none; stroke: #1f77b4; stroke-width: 1.5; stroke-linecap: square"/>
    </g>
    <g id="text_16">
     <!-- Execution time between S1 S2 (xx1xx2xx0yyy45xx0yyy45xx0yyy3xx1xx0yyy45xx0yyy45xx0yyy45) -->
     <g transform="translate(106.712813 300.936187) scale(0.06 -0.06)">
      <use xlink:href="#DejaVuSans-45"/>
      <use xlink:href="#DejaVuSans-78" x="63.183594"/>
      <use xlink:href="#DejaVuSans-65" x="119.238281"/>
      <use xlink:href="#DejaVuSans-63" x="180.761719"/>
      <use xlink:href="#DejaVuSans-75" x="235.742188"/>
      <use xlink:href="#DejaVuSans-74" x="299.121094"/>
      <use xlink:href="#DejaVuSans-69" x="338.330078"/>
      <use xlink:href="#DejaVuSans-6f" x="366.113281"/>
      <use xlink:href="#DejaVuSans-6e" x="427.294922"/>
      <use xlink:href="#DejaVuSans-20" x="490.673828"/>
      <use xlink:href="#DejaVuSans-74" x="522.460938"/>
      <use xlink:href="#DejaVuSans-69" x="561.669922"/>
      <use xlink:href="#DejaVuSans-6d" x="589.453125"/>
      <use xlink:href="#DejaVuSans-65" x="686.865234"/>
      <use xlink:href="#DejaVuSans-20" x="748.388672"/>
      <use xlink:href="#DejaVuSans-62" x="780.175781"/>
      <use xlink:href="#DejaVuSans-65" x="843.652344"/>
      <use xlink:href="#DejaVuSans-74" x="905.175781"/>
      <use xlink:href="#DejaVuSans-77" x="944.384766"/>
      <use xlink:href="#DejaVuSans-65" x="1026.171875"/>
      <use xlink:href="#DejaVuSans-65" x="1087.695312"/>
      <use xlink:href="#DejaVuSans-6e" x="1149.21875"/>
      <use xlink:href="#DejaVuSans-20" x="1212.597656"/>
      <use xlink:href="#DejaVuSans-53" x="1244.384766"/>
      <use xlink:href="#DejaVuSans-31" x="1307.861328"/>
      <use xlink:href="#DejaVuSans-20" x="1371.484375"/>
      <use xlink:href="#DejaVuSans-53" x="1403.271484"/>
      <use xlink:href="#DejaVuSans-32" x="1466.748047"/>
      <use xlink:href="#DejaVuSans-20" x="1530.371094"/>
      <use xlink:href="#DejaVuSans-28" x="1562.158203"/>
      <use xlink:href="#DejaVuSans-78" x="1601.171875"/>
      <use xlink:href="#DejaVuSans-78" x="1660.351562"/>
      <use xlink:href="#DejaVuSans-31" x="1719.53125"/>
      <use xlink:href="#DejaVuSans-78" x="1783.154297"/>
      <use xlink:href="#DejaVuSans-78" x="1842.333984"/>
      <use xlink:href="#DejaVuSans-32" x="1901.513672"/>
      <use xlink:href="#DejaVuSans-78" x="1965.136719"/>
      <use xlink:href="#DejaVuSans-78" x="2024.316406"/>
      <use xlink:href="#DejaVuSans-30" x="2083.496094"/>
      <use xlink:href="#DejaVuSans-79" x="2147.119141"/>
      <use xlink:href="#DejaVuSans-79" x="2206.298828"/>
      <use xlink:href="#DejaVuSans-79" x="2265.478516"/>
      <use xlink:href="#DejaVuSans-34" x="2324.658203"/>
      <use xlink:href="#DejaVuSans-35" x="2388.28125"/>
      <use xlink:href="#DejaVuSans-78" x="2451.904297"/>
      <use xlink:href="#DejaVuSans-78" x="2511.083984"/>
      <use xlink:href="#DejaVuSans-30" x="2570.263672"/>
      <use xlink:href="#DejaVuSans-79" x="2633.886719"/>
      <use xlink:href="#DejaVuSans-79" x="2693.066406"/>
      <use xlink:href="#DejaVuSans-79" x="2752.246094"/>
      <use xlink:href="#DejaVuSans-34" x="2811.425781"/>
      <use xlink:href="#DejaVuSans-35" x="2875.048828"/>
      <use xlink:href="#DejaVuSans-78" x="2938.671875"/>
      <use xlink:href="#DejaVuSans-78" x="2997.851562"/>
      <use xlink:href="#DejaVuSans-30" x="3057.03125"/>
      <use xlink:href="#DejaVuSans-79" x="3120.654297"/>
      <use xlink:href="#DejaVuSans-79" x="3179.833984"/>
      <use xlink:href="#DejaVuSans-79" x="3239.013672"/>
      <use xlink:href="#DejaVuSans-33" x="3298.193359"/>
      <use xlink:href="#DejaVuSans-78" x="3361.816406"/>
      <use xlink:href="#DejaVuSans-78" x="3420.996094"/>
      <use xlink:href="#DejaVuSans-31" x="3480.175781"/>
      <use xlink:href="#DejaVuSans-78" x="3543.798828"/>
      <use xlink:href="#DejaVuSans-78" x="3602.978516"/>
      <use xlink:href="#DejaVuSans-30" x="3662.158203"/>
      <use xlink:href="#DejaVuSans-79" x="3725.78125"/>
      <use xlink:href="#DejaVuSans-79" x="3784.960938"/>
      <use xlink:href="#DejaVuSans-79" x="3844.140625"/>
      <use xlink:href="#DejaVuSans-34" x="3903.320312"/>
      <use xlink:href="#DejaVuSans-35" x="3966.943359"/>
      <use xlink:href="#DejaVuSans-78" x="4030.566406"/>
      <use xlink:href="#DejaVuSans-78" x="4089.746094"/>
      <use xlink:href="#DejaVuSans-30" x="4148.925781"/>
      <use xlink:href="#DejaVuSans-79" x="4212.548828"/>
      <use xlink:href="#DejaVuSans-79" x="4271.728516"/>
      <use xlink:href="#DejaVuSans-79" x="4330.908203"/>
      <use xlink:href="#DejaVuSans-34" x="4390.087891"/>
      <use xlink:href="#DejaVuSans-35" x="4453.710938"/>
      <use xlink:href="#DejaVuSans-78" x="4517.333984"/>
      <use xlink:href="#DejaVuSans-78" x="4576.513672"/>
      <use xlink:href="#DejaVuSans-30" x="4635.693359"/>
      <use xlink:href="#DejaVuSans-79" x="4699.316406"/>
      <use xlink:href="#DejaVuSans-79" x="4758.496094"/>
      <use xlink:href="#DejaVuSans-79" x="4817.675781"/>
      <use xlink:href="#DejaVuSans-34" x="4876.855469"/>
      <use xlink:href="#DejaVuSans-35" x="4940.478516"/>
      <use xlink:href="#DejaVuSans-29" x="5004.101562"/>
     </g>
    </g>
   </g>
  </g>
 </g>
 <defs>
  <clipPath id="p61930557cd">
   <rect x="57.6" y="41.472" width="357.12" height="266.112"/>
  </clipPath>
 </defs>
</svg>
