<?xml version="1.0" encoding="utf-8" standalone="no"?>
<!DOCTYPE svg PUBLIC "-//W3C//DTD SVG 1.1//EN"
  "http://www.w3.org/Graphics/SVG/1.1/DTD/svg11.dtd">
<svg xmlns:xlink="http://www.w3.org/1999/xlink" width="460.8pt" height="345.6pt" viewBox="0 0 460.8 345.6" xmlns="http://www.w3.org/2000/svg" version="1.1">
 <metadata>
  <rdf:RDF xmlns:dc="http://purl.org/dc/elements/1.1/" xmlns:cc="http://creativecommons.org/ns#" xmlns:rdf="http://www.w3.org/1999/02/22-rdf-syntax-ns#">
   <cc:Work>
    <dc:type rdf:resource="http://purl.org/dc/dcmitype/StillImage"/>
    <dc:date>2024-03-08T12:57:36.612170</dc:date>
    <dc:format>image/svg+xml</dc:format>
    <dc:creator>
     <cc:Agent>
      <dc:title>Matplotlib v3.8.2, https://matplotlib.org/</dc:title>
     </cc:Agent>
    </dc:creator>
   </cc:Work>
  </rdf:RDF>
 </metadata>
 <defs>
  <style type="text/css">*{stroke-linejoin: round; stroke-linecap: butt}</style>
 </defs>
 <g id="figure_1">
  <g id="patch_1">
   <path d="M 0 345.6 
L 460.8 345.6 
L 460.8 0 
L 0 0 
z
" style="fill: #ffffff"/>
  </g>
  <g id="axes_1">
   <g id="patch_2">
    <path d="M 57.6 307.584 
L 414.72 307.584 
L 414.72 41.472 
L 57.6 41.472 
z
" style="fill: #ffffff"/>
   </g>
   <g id="matplotlib.axis_1">
    <g id="xtick_1">
     <g id="line2d_1">
      <defs>
       <path id="m6763dce321" d="M 0 0 
L 0 3.5 
" style="stroke: #000000; stroke-width: 0.8"/>
      </defs>
      <g>
       <use xlink:href="#m6763dce321" x="73.832727" y="307.584" style="stroke: #000000; stroke-width: 0.8"/>
      </g>
     </g>
     <g id="text_1">
      <!-- 0.0 -->
      <g transform="translate(65.881165 322.182437) scale(0.1 -0.1)">
       <defs>
        <path id="DejaVuSans-30" d="M 2034 4250 
Q 1547 4250 1301 3770 
Q 1056 3291 1056 2328 
Q 1056 1369 1301 889 
Q 1547 409 2034 409 
Q 2525 409 2770 889 
Q 3016 1369 3016 2328 
Q 3016 3291 2770 3770 
Q 2525 4250 2034 4250 
z
M 2034 4750 
Q 2819 4750 3233 4129 
Q 3647 3509 3647 2328 
Q 3647 1150 3233 529 
Q 2819 -91 2034 -91 
Q 1250 -91 836 529 
Q 422 1150 422 2328 
Q 422 3509 836 4129 
Q 1250 4750 2034 4750 
z
" transform="scale(0.015625)"/>
        <path id="DejaVuSans-2e" d="M 684 794 
L 1344 794 
L 1344 0 
L 684 0 
L 684 794 
z
" transform="scale(0.015625)"/>
       </defs>
       <use xlink:href="#DejaVuSans-30"/>
       <use xlink:href="#DejaVuSans-2e" x="63.623047"/>
       <use xlink:href="#DejaVuSans-30" x="95.410156"/>
      </g>
     </g>
    </g>
    <g id="xtick_2">
     <g id="line2d_2">
      <g>
       <use xlink:href="#m6763dce321" x="117.979388" y="307.584" style="stroke: #000000; stroke-width: 0.8"/>
      </g>
     </g>
     <g id="text_2">
      <!-- 0.2 -->
      <g transform="translate(110.027826 322.182437) scale(0.1 -0.1)">
       <defs>
        <path id="DejaVuSans-32" d="M 1228 531 
L 3431 531 
L 3431 0 
L 469 0 
L 469 531 
Q 828 903 1448 1529 
Q 2069 2156 2228 2338 
Q 2531 2678 2651 2914 
Q 2772 3150 2772 3378 
Q 2772 3750 2511 3984 
Q 2250 4219 1831 4219 
Q 1534 4219 1204 4116 
Q 875 4013 500 3803 
L 500 4441 
Q 881 4594 1212 4672 
Q 1544 4750 1819 4750 
Q 2544 4750 2975 4387 
Q 3406 4025 3406 3419 
Q 3406 3131 3298 2873 
Q 3191 2616 2906 2266 
Q 2828 2175 2409 1742 
Q 1991 1309 1228 531 
z
" transform="scale(0.015625)"/>
       </defs>
       <use xlink:href="#DejaVuSans-30"/>
       <use xlink:href="#DejaVuSans-2e" x="63.623047"/>
       <use xlink:href="#DejaVuSans-32" x="95.410156"/>
      </g>
     </g>
    </g>
    <g id="xtick_3">
     <g id="line2d_3">
      <g>
       <use xlink:href="#m6763dce321" x="162.126049" y="307.584" style="stroke: #000000; stroke-width: 0.8"/>
      </g>
     </g>
     <g id="text_3">
      <!-- 0.4 -->
      <g transform="translate(154.174487 322.182437) scale(0.1 -0.1)">
       <defs>
        <path id="DejaVuSans-34" d="M 2419 4116 
L 825 1625 
L 2419 1625 
L 2419 4116 
z
M 2253 4666 
L 3047 4666 
L 3047 1625 
L 3713 1625 
L 3713 1100 
L 3047 1100 
L 3047 0 
L 2419 0 
L 2419 1100 
L 313 1100 
L 313 1709 
L 2253 4666 
z
" transform="scale(0.015625)"/>
       </defs>
       <use xlink:href="#DejaVuSans-30"/>
       <use xlink:href="#DejaVuSans-2e" x="63.623047"/>
       <use xlink:href="#DejaVuSans-34" x="95.410156"/>
      </g>
     </g>
    </g>
    <g id="xtick_4">
     <g id="line2d_4">
      <g>
       <use xlink:href="#m6763dce321" x="206.27271" y="307.584" style="stroke: #000000; stroke-width: 0.8"/>
      </g>
     </g>
     <g id="text_4">
      <!-- 0.6 -->
      <g transform="translate(198.321148 322.182437) scale(0.1 -0.1)">
       <defs>
        <path id="DejaVuSans-36" d="M 2113 2584 
Q 1688 2584 1439 2293 
Q 1191 2003 1191 1497 
Q 1191 994 1439 701 
Q 1688 409 2113 409 
Q 2538 409 2786 701 
Q 3034 994 3034 1497 
Q 3034 2003 2786 2293 
Q 2538 2584 2113 2584 
z
M 3366 4563 
L 3366 3988 
Q 3128 4100 2886 4159 
Q 2644 4219 2406 4219 
Q 1781 4219 1451 3797 
Q 1122 3375 1075 2522 
Q 1259 2794 1537 2939 
Q 1816 3084 2150 3084 
Q 2853 3084 3261 2657 
Q 3669 2231 3669 1497 
Q 3669 778 3244 343 
Q 2819 -91 2113 -91 
Q 1303 -91 875 529 
Q 447 1150 447 2328 
Q 447 3434 972 4092 
Q 1497 4750 2381 4750 
Q 2619 4750 2861 4703 
Q 3103 4656 3366 4563 
z
" transform="scale(0.015625)"/>
       </defs>
       <use xlink:href="#DejaVuSans-30"/>
       <use xlink:href="#DejaVuSans-2e" x="63.623047"/>
       <use xlink:href="#DejaVuSans-36" x="95.410156"/>
      </g>
     </g>
    </g>
    <g id="xtick_5">
     <g id="line2d_5">
      <g>
       <use xlink:href="#m6763dce321" x="250.419372" y="307.584" style="stroke: #000000; stroke-width: 0.8"/>
      </g>
     </g>
     <g id="text_5">
      <!-- 0.8 -->
      <g transform="translate(242.467809 322.182437) scale(0.1 -0.1)">
       <defs>
        <path id="DejaVuSans-38" d="M 2034 2216 
Q 1584 2216 1326 1975 
Q 1069 1734 1069 1313 
Q 1069 891 1326 650 
Q 1584 409 2034 409 
Q 2484 409 2743 651 
Q 3003 894 3003 1313 
Q 3003 1734 2745 1975 
Q 2488 2216 2034 2216 
z
M 1403 2484 
Q 997 2584 770 2862 
Q 544 3141 544 3541 
Q 544 4100 942 4425 
Q 1341 4750 2034 4750 
Q 2731 4750 3128 4425 
Q 3525 4100 3525 3541 
Q 3525 3141 3298 2862 
Q 3072 2584 2669 2484 
Q 3125 2378 3379 2068 
Q 3634 1759 3634 1313 
Q 3634 634 3220 271 
Q 2806 -91 2034 -91 
Q 1263 -91 848 271 
Q 434 634 434 1313 
Q 434 1759 690 2068 
Q 947 2378 1403 2484 
z
M 1172 3481 
Q 1172 3119 1398 2916 
Q 1625 2713 2034 2713 
Q 2441 2713 2670 2916 
Q 2900 3119 2900 3481 
Q 2900 3844 2670 4047 
Q 2441 4250 2034 4250 
Q 1625 4250 1398 4047 
Q 1172 3844 1172 3481 
z
" transform="scale(0.015625)"/>
       </defs>
       <use xlink:href="#DejaVuSans-30"/>
       <use xlink:href="#DejaVuSans-2e" x="63.623047"/>
       <use xlink:href="#DejaVuSans-38" x="95.410156"/>
      </g>
     </g>
    </g>
    <g id="xtick_6">
     <g id="line2d_6">
      <g>
       <use xlink:href="#m6763dce321" x="294.566033" y="307.584" style="stroke: #000000; stroke-width: 0.8"/>
      </g>
     </g>
     <g id="text_6">
      <!-- 1.0 -->
      <g transform="translate(286.61447 322.182437) scale(0.1 -0.1)">
       <defs>
        <path id="DejaVuSans-31" d="M 794 531 
L 1825 531 
L 1825 4091 
L 703 3866 
L 703 4441 
L 1819 4666 
L 2450 4666 
L 2450 531 
L 3481 531 
L 3481 0 
L 794 0 
L 794 531 
z
" transform="scale(0.015625)"/>
       </defs>
       <use xlink:href="#DejaVuSans-31"/>
       <use xlink:href="#DejaVuSans-2e" x="63.623047"/>
       <use xlink:href="#DejaVuSans-30" x="95.410156"/>
      </g>
     </g>
    </g>
    <g id="xtick_7">
     <g id="line2d_7">
      <g>
       <use xlink:href="#m6763dce321" x="338.712694" y="307.584" style="stroke: #000000; stroke-width: 0.8"/>
      </g>
     </g>
     <g id="text_7">
      <!-- 1.2 -->
      <g transform="translate(330.761131 322.182437) scale(0.1 -0.1)">
       <use xlink:href="#DejaVuSans-31"/>
       <use xlink:href="#DejaVuSans-2e" x="63.623047"/>
       <use xlink:href="#DejaVuSans-32" x="95.410156"/>
      </g>
     </g>
    </g>
    <g id="xtick_8">
     <g id="line2d_8">
      <g>
       <use xlink:href="#m6763dce321" x="382.859355" y="307.584" style="stroke: #000000; stroke-width: 0.8"/>
      </g>
     </g>
     <g id="text_8">
      <!-- 1.4 -->
      <g transform="translate(374.907792 322.182437) scale(0.1 -0.1)">
       <use xlink:href="#DejaVuSans-31"/>
       <use xlink:href="#DejaVuSans-2e" x="63.623047"/>
       <use xlink:href="#DejaVuSans-34" x="95.410156"/>
      </g>
     </g>
    </g>
    <g id="text_9">
     <!-- 1e6 -->
     <g transform="translate(395.841875 334.860562) scale(0.1 -0.1)">
      <defs>
       <path id="DejaVuSans-65" d="M 3597 1894 
L 3597 1613 
L 953 1613 
Q 991 1019 1311 708 
Q 1631 397 2203 397 
Q 2534 397 2845 478 
Q 3156 559 3463 722 
L 3463 178 
Q 3153 47 2828 -22 
Q 2503 -91 2169 -91 
Q 1331 -91 842 396 
Q 353 884 353 1716 
Q 353 2575 817 3079 
Q 1281 3584 2069 3584 
Q 2775 3584 3186 3129 
Q 3597 2675 3597 1894 
z
M 3022 2063 
Q 3016 2534 2758 2815 
Q 2500 3097 2075 3097 
Q 1594 3097 1305 2825 
Q 1016 2553 972 2059 
L 3022 2063 
z
" transform="scale(0.015625)"/>
      </defs>
      <use xlink:href="#DejaVuSans-31"/>
      <use xlink:href="#DejaVuSans-65" x="63.623047"/>
      <use xlink:href="#DejaVuSans-36" x="125.146484"/>
     </g>
    </g>
   </g>
   <g id="matplotlib.axis_2">
    <g id="ytick_1">
     <g id="line2d_9">
      <defs>
       <path id="m47abd17a6c" d="M 0 0 
L -3.5 0 
" style="stroke: #000000; stroke-width: 0.8"/>
      </defs>
      <g>
       <use xlink:href="#m47abd17a6c" x="57.6" y="295.488" style="stroke: #000000; stroke-width: 0.8"/>
      </g>
     </g>
     <g id="text_10">
      <!-- 0.0 -->
      <g transform="translate(34.696875 299.287219) scale(0.1 -0.1)">
       <use xlink:href="#DejaVuSans-30"/>
       <use xlink:href="#DejaVuSans-2e" x="63.623047"/>
       <use xlink:href="#DejaVuSans-30" x="95.410156"/>
      </g>
     </g>
    </g>
    <g id="ytick_2">
     <g id="line2d_10">
      <g>
       <use xlink:href="#m47abd17a6c" x="57.6" y="247.104" style="stroke: #000000; stroke-width: 0.8"/>
      </g>
     </g>
     <g id="text_11">
      <!-- 0.2 -->
      <g transform="translate(34.696875 250.903219) scale(0.1 -0.1)">
       <use xlink:href="#DejaVuSans-30"/>
       <use xlink:href="#DejaVuSans-2e" x="63.623047"/>
       <use xlink:href="#DejaVuSans-32" x="95.410156"/>
      </g>
     </g>
    </g>
    <g id="ytick_3">
     <g id="line2d_11">
      <g>
       <use xlink:href="#m47abd17a6c" x="57.6" y="198.72" style="stroke: #000000; stroke-width: 0.8"/>
      </g>
     </g>
     <g id="text_12">
      <!-- 0.4 -->
      <g transform="translate(34.696875 202.519219) scale(0.1 -0.1)">
       <use xlink:href="#DejaVuSans-30"/>
       <use xlink:href="#DejaVuSans-2e" x="63.623047"/>
       <use xlink:href="#DejaVuSans-34" x="95.410156"/>
      </g>
     </g>
    </g>
    <g id="ytick_4">
     <g id="line2d_12">
      <g>
       <use xlink:href="#m47abd17a6c" x="57.6" y="150.336" style="stroke: #000000; stroke-width: 0.8"/>
      </g>
     </g>
     <g id="text_13">
      <!-- 0.6 -->
      <g transform="translate(34.696875 154.135219) scale(0.1 -0.1)">
       <use xlink:href="#DejaVuSans-30"/>
       <use xlink:href="#DejaVuSans-2e" x="63.623047"/>
       <use xlink:href="#DejaVuSans-36" x="95.410156"/>
      </g>
     </g>
    </g>
    <g id="ytick_5">
     <g id="line2d_13">
      <g>
       <use xlink:href="#m47abd17a6c" x="57.6" y="101.952" style="stroke: #000000; stroke-width: 0.8"/>
      </g>
     </g>
     <g id="text_14">
      <!-- 0.8 -->
      <g transform="translate(34.696875 105.751219) scale(0.1 -0.1)">
       <use xlink:href="#DejaVuSans-30"/>
       <use xlink:href="#DejaVuSans-2e" x="63.623047"/>
       <use xlink:href="#DejaVuSans-38" x="95.410156"/>
      </g>
     </g>
    </g>
    <g id="ytick_6">
     <g id="line2d_14">
      <g>
       <use xlink:href="#m47abd17a6c" x="57.6" y="53.568" style="stroke: #000000; stroke-width: 0.8"/>
      </g>
     </g>
     <g id="text_15">
      <!-- 1.0 -->
      <g transform="translate(34.696875 57.367219) scale(0.1 -0.1)">
       <use xlink:href="#DejaVuSans-31"/>
       <use xlink:href="#DejaVuSans-2e" x="63.623047"/>
       <use xlink:href="#DejaVuSans-30" x="95.410156"/>
      </g>
     </g>
    </g>
   </g>
   <g id="line2d_15">
    <path d="M 73.832727 295.488 
L 91.897541 295.488 
L 91.897541 294.912 
L 92.43613 294.912 
L 92.43613 294.336 
L 92.992378 294.336 
L 92.992378 293.76 
L 93.559663 293.76 
L 93.559663 293.184 
L 94.122533 293.184 
L 94.122533 292.608 
L 94.674366 292.608 
L 94.674366 292.032 
L 95.228407 292.032 
L 95.228407 291.456 
L 95.77141 291.456 
L 95.77141 290.88 
L 96.325451 290.88 
L 96.325451 290.304 
L 96.879492 290.304 
L 96.879492 289.728 
L 97.43574 289.728 
L 97.43574 289.152 
L 97.978744 289.152 
L 97.978744 288.576 
L 112.926803 288.576 
L 112.926803 288 
L 113.476429 288 
L 113.476429 287.424 
L 114.03047 287.424 
L 114.03047 286.848 
L 114.582303 286.848 
L 114.582303 286.272 
L 115.140758 286.272 
L 115.140758 285.696 
L 115.681555 285.696 
L 115.681555 285.12 
L 116.226766 285.12 
L 116.226766 284.544 
L 116.780806 284.544 
L 116.780806 283.968 
L 117.326018 283.968 
L 117.326018 283.392 
L 117.88668 283.392 
L 117.88668 282.816 
L 118.429684 282.816 
L 118.429684 282.24 
L 118.972688 282.24 
L 118.972688 281.664 
L 119.520107 281.664 
L 119.520107 281.088 
L 120.069733 281.088 
L 120.069733 280.512 
L 120.625981 280.512 
L 120.625981 279.936 
L 121.193265 279.936 
L 121.193265 279.36 
L 121.734062 279.36 
L 121.734062 278.784 
L 122.29031 278.784 
L 122.29031 278.208 
L 122.833314 278.208 
L 122.833314 277.632 
L 123.387354 277.632 
L 123.387354 277.056 
L 123.948017 277.056 
L 123.948017 276.48 
L 124.506472 276.48 
L 124.506472 275.904 
L 129.439862 275.904 
L 129.439862 275.328 
L 129.982865 275.328 
L 129.982865 274.752 
L 130.541321 274.752 
L 130.541321 274.176 
L 131.104191 274.176 
L 131.104191 273.6 
L 131.667061 273.6 
L 131.667061 273.024 
L 132.214479 273.024 
L 132.214479 272.448 
L 132.766312 272.448 
L 132.766312 271.872 
L 133.311524 271.872 
L 133.311524 271.296 
L 144.877949 271.296 
L 144.877949 270.72 
L 145.436404 270.72 
L 145.436404 270.144 
L 145.972786 270.144 
L 145.972786 269.568 
L 146.526827 269.568 
L 146.526827 268.992 
L 147.091904 268.992 
L 147.091904 268.416 
L 147.634908 268.416 
L 147.634908 267.84 
L 148.184534 267.84 
L 148.184534 267.264 
L 148.72533 267.264 
L 148.72533 266.688 
L 149.277164 266.688 
L 149.277164 266.112 
L 149.840034 266.112 
L 149.840034 265.536 
L 150.400696 265.536 
L 150.400696 264.96 
L 150.954737 264.96 
L 150.954737 264.384 
L 151.513192 264.384 
L 151.513192 263.808 
L 152.073855 263.808 
L 152.073855 263.232 
L 152.625688 263.232 
L 152.625688 262.656 
L 153.177521 262.656 
L 153.177521 262.08 
L 153.729354 262.08 
L 153.729354 261.504 
L 154.28781 261.504 
L 154.28781 260.928 
L 154.848472 260.928 
L 154.848472 260.352 
L 155.402513 260.352 
L 155.402513 259.776 
L 155.956554 259.776 
L 155.956554 259.2 
L 156.517216 259.2 
L 156.517216 258.624 
L 157.066842 258.624 
L 157.066842 258.048 
L 157.612053 258.048 
L 157.612053 257.472 
L 158.179338 257.472 
L 158.179338 256.896 
L 158.735586 256.896 
L 158.735586 256.32 
L 159.271968 256.32 
L 159.271968 255.744 
L 159.814972 255.744 
L 159.814972 255.168 
L 160.351354 255.168 
L 160.351354 254.592 
L 160.918638 254.592 
L 160.918638 254.016 
L 161.468264 254.016 
L 161.468264 253.44 
L 162.022305 253.44 
L 162.022305 252.864 
L 162.587382 252.864 
L 162.587382 252.288 
L 163.139215 252.288 
L 163.139215 251.712 
L 163.695463 251.712 
L 163.695463 251.136 
L 164.242882 251.136 
L 164.242882 250.56 
L 164.792508 250.56 
L 164.792508 249.984 
L 165.348756 249.984 
L 165.348756 249.408 
L 165.911626 249.408 
L 165.911626 248.832 
L 166.459044 248.832 
L 166.459044 248.256 
L 167.010877 248.256 
L 167.010877 247.68 
L 167.560503 247.68 
L 167.560503 247.104 
L 168.103507 247.104 
L 168.103507 246.528 
L 168.66417 246.528 
L 168.66417 245.952 
L 169.22704 245.952 
L 169.22704 245.376 
L 169.78108 245.376 
L 169.78108 244.8 
L 170.337328 244.8 
L 170.337328 244.224 
L 170.875918 244.224 
L 170.875918 243.648 
L 171.429958 243.648 
L 171.429958 243.072 
L 171.981791 243.072 
L 171.981791 242.496 
L 172.524795 242.496 
L 172.524795 241.92 
L 173.089873 241.92 
L 173.089873 241.344 
L 173.639499 241.344 
L 173.639499 240.768 
L 174.202369 240.768 
L 174.202369 240.192 
L 174.765238 240.192 
L 174.765238 239.616 
L 175.325901 239.616 
L 175.325901 239.04 
L 175.87332 239.04 
L 175.87332 238.464 
L 176.979194 238.464 
L 176.979194 237.888 
L 177.542063 237.888 
L 177.542063 237.312 
L 178.085067 237.312 
L 178.085067 236.736 
L 178.64573 236.736 
L 178.64573 236.16 
L 179.197563 236.16 
L 179.197563 235.584 
L 179.744982 235.584 
L 179.744982 235.008 
L 180.296815 235.008 
L 180.296815 234.432 
L 180.846441 234.432 
L 180.846441 233.856 
L 181.396067 233.856 
L 181.396067 233.28 
L 181.941278 233.28 
L 181.941278 232.704 
L 182.484282 232.704 
L 182.484282 232.128 
L 183.033908 232.128 
L 183.033908 231.552 
L 183.587949 231.552 
L 183.587949 230.976 
L 184.153026 230.976 
L 184.153026 230.4 
L 184.704859 230.4 
L 184.704859 229.824 
L 185.263314 229.824 
L 185.263314 229.248 
L 185.823977 229.248 
L 185.823977 228.672 
L 186.369188 228.672 
L 186.369188 228.096 
L 202.058912 228.096 
L 202.058912 227.52 
L 202.853552 227.52 
L 202.853552 226.944 
L 203.604045 226.944 
L 203.604045 226.368 
L 204.383233 226.368 
L 204.383233 225.792 
L 205.171251 225.792 
L 205.171251 225.216 
L 205.943818 225.216 
L 205.943818 224.64 
L 206.718592 224.64 
L 206.718592 224.064 
L 207.504402 224.064 
L 207.504402 223.488 
L 208.261518 223.488 
L 208.261518 222.912 
L 209.058365 222.912 
L 209.058365 222.336 
L 209.833139 222.336 
L 209.833139 221.76 
L 210.601291 221.76 
L 210.601291 221.184 
L 211.369442 221.184 
L 211.369442 220.608 
L 236.568357 220.608 
L 236.568357 220.032 
L 237.135641 220.032 
L 237.135641 219.456 
L 237.685267 219.456 
L 237.685267 218.88 
L 238.241515 218.88 
L 238.316564 217.728 
L 238.793348 217.728 
L 238.793348 217.152 
L 239.111204 217.152 
L 239.111204 216.576 
L 239.340767 216.576 
L 239.340767 216 
L 239.881564 216 
L 239.897015 214.848 
L 240.442226 214.848 
L 240.442226 214.272 
L 240.632057 214.272 
L 240.632057 213.696 
L 241.417867 213.696 
L 241.417867 213.12 
L 242.172775 213.12 
L 242.172775 212.544 
L 242.949756 212.544 
L 242.949756 211.968 
L 243.744396 211.968 
L 243.744396 211.392 
L 244.525792 211.392 
L 244.525792 210.816 
L 245.293944 210.816 
L 245.293944 210.24 
L 246.070925 210.24 
L 246.070925 209.664 
L 246.858943 209.664 
L 246.858943 209.088 
L 247.63151 209.088 
L 247.63151 208.512 
L 248.401869 208.512 
L 248.401869 207.936 
L 249.183265 207.936 
L 249.238448 206.784 
L 249.975698 206.784 
L 250.008808 205.632 
L 250.732813 205.632 
L 250.76813 204.48 
L 251.498757 204.48 
L 251.531867 203.328 
L 252.284568 203.328 
L 252.295605 202.176 
L 253.065964 202.176 
L 253.074793 201.024 
L 253.842945 201.024 
L 253.851774 199.872 
L 254.617719 199.872 
L 254.624341 198.72 
L 255.3947 198.72 
L 255.399115 197.568 
L 256.158437 197.568 
L 256.173889 196.416 
L 256.922175 196.416 
L 256.937626 195.264 
L 257.690327 195.264 
L 257.699156 194.112 
L 258.456271 194.112 
L 258.482759 192.96 
L 259.233252 192.96 
L 259.257533 191.808 
L 260.010234 191.808 
L 260.025685 190.656 
L 260.769556 190.656 
L 260.800459 189.504 
L 261.383195 189.504 
L 261.383195 188.928 
L 261.539915 188.928 
L 261.559781 187.776 
L 261.822454 187.776 
L 261.822454 187.2 
L 262.321311 187.2 
L 262.33897 186.048 
L 263.093878 186.048 
L 263.129195 184.896 
L 263.868652 184.896 
L 263.890725 183.744 
L 264.641218 183.744 
L 264.652255 182.592 
L 265.415992 182.592 
L 265.422614 181.44 
L 266.184144 181.44 
L 266.192974 180.288 
L 266.956711 180.288 
L 266.985406 179.136 
L 267.72707 179.136 
L 267.764595 177.984 
L 268.486393 177.984 
L 268.532747 176.832 
L 269.254544 176.832 
L 269.30752 175.68 
L 270.031526 175.68 
L 270.073465 174.528 
L 270.651786 174.528 
L 270.651786 173.952 
L 270.815129 173.952 
L 270.86369 172.8 
L 271.091046 172.8 
L 271.091046 172.224 
L 271.539134 172.224 
L 271.627427 170.496 
L 271.978393 170.496 
L 271.978393 169.92 
L 272.355847 169.92 
L 272.424275 168.192 
L 272.863534 168.192 
L 272.863534 167.616 
L 273.141658 167.616 
L 273.163731 166.464 
L 273.307208 166.464 
L 273.307208 165.888 
L 273.742053 165.888 
L 273.742053 165.312 
L 273.925261 165.312 
L 273.940713 164.16 
L 274.179105 164.16 
L 274.179105 163.584 
L 274.624986 163.584 
L 274.715486 161.856 
L 275.474809 161.856 
L 275.503504 160.704 
L 276.231924 160.704 
L 276.258412 159.552 
L 276.995661 159.552 
L 276.995661 158.976 
L 277.763813 158.976 
L 277.801338 157.824 
L 278.527551 157.824 
L 278.571697 156.672 
L 279.308947 156.672 
L 279.337642 155.52 
L 280.096964 155.52 
L 280.105794 154.368 
L 280.87836 154.368 
L 280.882775 153.216 
L 281.655342 153.216 
L 281.661964 152.064 
L 282.421286 152.064 
L 282.427908 150.912 
L 282.871582 150.912 
L 282.871582 150.336 
L 283.041547 150.336 
L 283.041547 149.76 
L 283.200475 149.76 
L 283.200475 149.184 
L 283.485221 149.184 
L 283.485221 148.608 
L 283.652978 148.608 
L 283.652978 148.032 
L 283.928895 148.032 
L 283.970834 146.88 
L 284.374776 146.88 
L 284.374776 146.304 
L 284.741193 146.304 
L 284.814035 145.152 
L 285.253294 145.152 
L 285.253294 144.576 
L 285.507138 144.576 
L 285.507138 144 
L 285.696968 144 
L 285.696968 143.424 
L 286.13402 143.424 
L 286.13402 142.848 
L 286.286326 142.848 
L 286.286326 142.272 
L 286.579902 142.272 
L 286.579902 141.696 
L 287.016954 141.696 
L 287.016954 141.12 
L 287.467249 141.12 
L 287.467249 140.544 
L 287.906509 140.544 
L 287.906509 139.968 
L 288.350183 139.968 
L 288.350183 139.392 
L 288.789442 139.392 
L 288.789442 138.816 
L 289.235323 138.816 
L 289.235323 138.24 
L 289.67679 138.24 
L 289.67679 137.664 
L 290.116049 137.664 
L 290.116049 137.088 
L 290.559723 137.088 
L 290.559723 136.512 
L 290.994568 136.512 
L 290.994568 135.936 
L 291.447071 135.936 
L 291.447071 135.36 
L 291.59717 135.36 
L 291.59717 134.784 
L 291.88633 134.784 
L 291.88633 134.208 
L 292.142381 134.208 
L 292.142381 133.632 
L 292.332212 133.632 
L 292.332212 133.056 
L 292.683177 133.056 
L 292.773678 131.904 
L 293.212937 131.904 
L 293.228389 130.752 
L 293.656611 130.752 
L 293.656611 130.176 
L 294.102493 130.176 
L 294.102493 129.6 
L 294.541752 129.6 
L 294.541752 129.024 
L 294.987633 129.024 
L 294.987633 128.448 
L 295.874981 128.448 
L 295.874981 127.872 
L 296.320862 127.872 
L 296.320862 127.296 
L 296.766744 127.296 
L 296.766744 126.72 
L 297.197174 126.72 
L 297.197174 126.144 
L 297.636433 126.144 
L 297.636433 125.568 
L 298.082314 125.568 
L 298.082314 124.992 
L 298.514951 124.992 
L 298.514951 124.416 
L 298.956418 124.416 
L 298.956418 123.84 
L 299.39347 123.84 
L 299.39347 123.264 
L 299.832729 123.264 
L 299.832729 122.688 
L 300.278611 122.688 
L 300.278611 122.112 
L 300.722284 122.112 
L 300.722284 121.536 
L 301.168166 121.536 
L 301.168166 120.96 
L 301.605218 120.96 
L 301.605218 120.384 
L 302.051099 120.384 
L 302.051099 119.808 
L 302.49698 119.808 
L 302.49698 119.232 
L 302.931825 119.232 
L 302.931825 118.656 
L 303.137107 118.656 
L 303.137107 118.08 
L 303.364462 118.08 
L 303.364462 117.504 
L 303.68894 117.504 
L 303.799307 116.352 
L 304.02004 116.352 
L 304.02004 115.776 
L 304.231944 115.776 
L 304.238566 114.624 
L 304.668996 114.624 
L 304.668996 114.048 
L 304.785985 114.048 
L 304.792607 112.896 
L 305.110463 112.896 
L 305.110463 112.32 
L 305.340025 112.32 
L 305.340025 111.744 
L 305.560759 111.744 
L 305.565173 110.592 
L 305.889651 110.592 
L 305.889651 110.016 
L 306.00664 110.016 
L 306.00664 109.44 
L 306.339947 109.44 
L 306.443692 107.712 
L 306.887366 107.712 
L 306.887366 107.136 
L 307.101477 107.136 
L 307.101477 106.56 
L 307.317796 106.56 
L 307.317796 105.984 
L 307.763677 105.984 
L 307.874044 104.832 
L 308.207351 104.832 
L 308.207351 104.256 
L 308.628951 104.256 
L 308.64661 103.104 
L 309.085869 103.104 
L 309.085869 102.528 
L 309.533958 102.528 
L 309.533958 101.952 
L 309.984254 101.952 
L 309.984254 101.376 
L 310.427928 101.376 
L 310.427928 100.8 
L 310.880431 100.8 
L 310.880431 100.224 
L 311.317483 100.224 
L 311.317483 99.648 
L 311.752328 99.648 
L 311.752328 99.072 
L 312.202624 99.072 
L 312.202624 98.496 
L 312.648505 98.496 
L 312.648505 97.92 
L 313.092179 97.92 
L 313.092179 97.344 
L 313.531438 97.344 
L 313.531438 96.768 
L 313.975112 96.768 
L 313.975112 96.192 
L 314.405542 96.192 
L 314.405542 95.616 
L 314.847009 95.616 
L 314.847009 95.04 
L 315.290683 95.04 
L 315.290683 94.464 
L 315.548941 94.464 
L 315.548941 93.888 
L 315.738771 93.888 
L 315.738771 93.312 
L 316.182445 93.312 
L 316.182445 92.736 
L 316.3193 92.736 
L 316.3193 92.16 
L 316.61729 92.16 
L 316.61729 91.584 
L 317.063171 91.584 
L 317.094074 90.432 
L 317.495808 90.432 
L 317.495808 89.856 
L 317.882092 89.856 
L 317.943897 88.704 
L 318.394193 88.704 
L 318.394193 88.128 
L 318.831245 88.128 
L 318.831245 87.552 
L 319.263882 87.552 
L 319.263882 86.976 
L 319.703141 86.976 
L 319.703141 86.4 
L 320.146815 86.4 
L 320.146815 85.824 
L 320.592697 85.824 
L 320.592697 85.248 
L 321.027541 85.248 
L 321.027541 84.672 
L 326.417849 84.672 
L 326.417849 84.096 
L 327.199244 84.096 
L 327.199244 83.52 
L 327.974018 83.52 
L 327.974018 82.944 
L 328.746585 82.944 
L 328.746585 82.368 
L 329.525773 82.368 
L 329.525773 81.792 
L 330.309377 81.792 
L 330.309377 81.216 
L 331.075321 81.216 
L 331.075321 80.64 
L 331.843473 80.64 
L 331.843473 80.064 
L 332.613832 80.064 
L 332.613832 79.488 
L 333.397436 79.488 
L 333.397436 78.912 
L 334.167795 78.912 
L 334.167795 78.336 
L 334.935947 78.336 
L 334.935947 77.76 
L 335.708513 77.76 
L 335.708513 77.184 
L 375.111616 77.184 
L 375.111616 76.608 
L 375.550875 76.608 
L 375.550875 76.032 
L 375.992342 76.032 
L 375.992342 75.456 
L 376.442638 75.456 
L 376.442638 74.88 
L 376.875275 74.88 
L 376.875275 74.304 
L 377.316741 74.304 
L 377.316741 73.728 
L 377.760415 73.728 
L 377.760415 73.152 
L 378.212919 73.152 
L 378.212919 72.576 
L 378.665422 72.576 
L 378.665422 72 
L 379.109096 72 
L 379.109096 71.424 
L 379.557184 71.424 
L 379.557184 70.848 
L 380.003066 70.848 
L 380.003066 70.272 
L 380.433496 70.272 
L 380.433496 69.696 
L 380.87717 69.696 
L 380.87717 69.12 
L 381.314222 69.12 
L 381.314222 68.544 
L 381.757896 68.544 
L 381.757896 67.968 
L 382.190533 67.968 
L 382.190533 67.392 
L 382.616548 67.392 
L 382.616548 66.816 
L 383.062429 66.816 
L 383.062429 66.24 
L 383.508311 66.24 
L 383.508311 65.664 
L 383.943155 65.664 
L 383.943155 65.088 
L 390.119273 65.088 
L 390.119273 64.512 
L 390.549703 64.512 
L 390.549703 63.936 
L 390.995584 63.936 
L 390.995584 63.36 
L 391.439258 63.36 
L 391.439258 62.784 
L 391.882932 62.784 
L 391.882932 62.208 
L 392.322192 62.208 
L 392.322192 61.632 
L 392.752621 61.632 
L 392.752621 61.056 
L 393.191881 61.056 
L 393.191881 60.48 
L 393.637762 60.48 
L 393.637762 59.904 
L 394.070399 59.904 
L 394.070399 59.328 
L 394.514073 59.328 
L 394.514073 58.752 
L 394.962162 58.752 
L 394.962162 58.176 
L 395.408043 58.176 
L 395.408043 57.6 
L 395.84951 57.6 
L 395.84951 57.024 
L 396.286562 57.024 
L 396.286562 56.448 
L 396.725821 56.448 
L 396.725821 55.872 
L 397.17391 55.872 
L 397.17391 55.296 
L 397.613169 55.296 
L 397.613169 54.72 
L 398.050221 54.72 
L 398.050221 54.144 
L 398.487273 54.144 
L 398.487273 53.568 
L 398.487273 53.568 
" clip-path="url(#pf01b676cdc)" style="fill: none; stroke: #1f77b4; stroke-width: 1.5; stroke-linecap: square"/>
   </g>
   <g id="patch_3">
    <path d="M 57.6 307.584 
L 57.6 41.472 
" style="fill: none; stroke: #000000; stroke-width: 0.8; stroke-linejoin: miter; stroke-linecap: square"/>
   </g>
   <g id="patch_4">
    <path d="M 414.72 307.584 
L 414.72 41.472 
" style="fill: none; stroke: #000000; stroke-width: 0.8; stroke-linejoin: miter; stroke-linecap: square"/>
   </g>
   <g id="patch_5">
    <path d="M 57.6 307.584 
L 414.72 307.584 
" style="fill: none; stroke: #000000; stroke-width: 0.8; stroke-linejoin: miter; stroke-linecap: square"/>
   </g>
   <g id="patch_6">
    <path d="M 57.6 41.472 
L 414.72 41.472 
" style="fill: none; stroke: #000000; stroke-width: 0.8; stroke-linejoin: miter; stroke-linecap: square"/>
   </g>
   <g id="text_16">
    <!-- Execution time between S1 S15 (xx1xx2xx0yyy45xx0yyy45xx0yyy3xx1xx0yyy45xx0yyy45xx0yyy45) -->
    <g transform="translate(-70.264688 35.472) scale(0.12 -0.12)">
     <defs>
      <path id="DejaVuSans-45" d="M 628 4666 
L 3578 4666 
L 3578 4134 
L 1259 4134 
L 1259 2753 
L 3481 2753 
L 3481 2222 
L 1259 2222 
L 1259 531 
L 3634 531 
L 3634 0 
L 628 0 
L 628 4666 
z
" transform="scale(0.015625)"/>
      <path id="DejaVuSans-78" d="M 3513 3500 
L 2247 1797 
L 3578 0 
L 2900 0 
L 1881 1375 
L 863 0 
L 184 0 
L 1544 1831 
L 300 3500 
L 978 3500 
L 1906 2253 
L 2834 3500 
L 3513 3500 
z
" transform="scale(0.015625)"/>
      <path id="DejaVuSans-63" d="M 3122 3366 
L 3122 2828 
Q 2878 2963 2633 3030 
Q 2388 3097 2138 3097 
Q 1578 3097 1268 2742 
Q 959 2388 959 1747 
Q 959 1106 1268 751 
Q 1578 397 2138 397 
Q 2388 397 2633 464 
Q 2878 531 3122 666 
L 3122 134 
Q 2881 22 2623 -34 
Q 2366 -91 2075 -91 
Q 1284 -91 818 406 
Q 353 903 353 1747 
Q 353 2603 823 3093 
Q 1294 3584 2113 3584 
Q 2378 3584 2631 3529 
Q 2884 3475 3122 3366 
z
" transform="scale(0.015625)"/>
      <path id="DejaVuSans-75" d="M 544 1381 
L 544 3500 
L 1119 3500 
L 1119 1403 
Q 1119 906 1312 657 
Q 1506 409 1894 409 
Q 2359 409 2629 706 
Q 2900 1003 2900 1516 
L 2900 3500 
L 3475 3500 
L 3475 0 
L 2900 0 
L 2900 538 
Q 2691 219 2414 64 
Q 2138 -91 1772 -91 
Q 1169 -91 856 284 
Q 544 659 544 1381 
z
M 1991 3584 
L 1991 3584 
z
" transform="scale(0.015625)"/>
      <path id="DejaVuSans-74" d="M 1172 4494 
L 1172 3500 
L 2356 3500 
L 2356 3053 
L 1172 3053 
L 1172 1153 
Q 1172 725 1289 603 
Q 1406 481 1766 481 
L 2356 481 
L 2356 0 
L 1766 0 
Q 1100 0 847 248 
Q 594 497 594 1153 
L 594 3053 
L 172 3053 
L 172 3500 
L 594 3500 
L 594 4494 
L 1172 4494 
z
" transform="scale(0.015625)"/>
      <path id="DejaVuSans-69" d="M 603 3500 
L 1178 3500 
L 1178 0 
L 603 0 
L 603 3500 
z
M 603 4863 
L 1178 4863 
L 1178 4134 
L 603 4134 
L 603 4863 
z
" transform="scale(0.015625)"/>
      <path id="DejaVuSans-6f" d="M 1959 3097 
Q 1497 3097 1228 2736 
Q 959 2375 959 1747 
Q 959 1119 1226 758 
Q 1494 397 1959 397 
Q 2419 397 2687 759 
Q 2956 1122 2956 1747 
Q 2956 2369 2687 2733 
Q 2419 3097 1959 3097 
z
M 1959 3584 
Q 2709 3584 3137 3096 
Q 3566 2609 3566 1747 
Q 3566 888 3137 398 
Q 2709 -91 1959 -91 
Q 1206 -91 779 398 
Q 353 888 353 1747 
Q 353 2609 779 3096 
Q 1206 3584 1959 3584 
z
" transform="scale(0.015625)"/>
      <path id="DejaVuSans-6e" d="M 3513 2113 
L 3513 0 
L 2938 0 
L 2938 2094 
Q 2938 2591 2744 2837 
Q 2550 3084 2163 3084 
Q 1697 3084 1428 2787 
Q 1159 2491 1159 1978 
L 1159 0 
L 581 0 
L 581 3500 
L 1159 3500 
L 1159 2956 
Q 1366 3272 1645 3428 
Q 1925 3584 2291 3584 
Q 2894 3584 3203 3211 
Q 3513 2838 3513 2113 
z
" transform="scale(0.015625)"/>
      <path id="DejaVuSans-20" transform="scale(0.015625)"/>
      <path id="DejaVuSans-6d" d="M 3328 2828 
Q 3544 3216 3844 3400 
Q 4144 3584 4550 3584 
Q 5097 3584 5394 3201 
Q 5691 2819 5691 2113 
L 5691 0 
L 5113 0 
L 5113 2094 
Q 5113 2597 4934 2840 
Q 4756 3084 4391 3084 
Q 3944 3084 3684 2787 
Q 3425 2491 3425 1978 
L 3425 0 
L 2847 0 
L 2847 2094 
Q 2847 2600 2669 2842 
Q 2491 3084 2119 3084 
Q 1678 3084 1418 2786 
Q 1159 2488 1159 1978 
L 1159 0 
L 581 0 
L 581 3500 
L 1159 3500 
L 1159 2956 
Q 1356 3278 1631 3431 
Q 1906 3584 2284 3584 
Q 2666 3584 2933 3390 
Q 3200 3197 3328 2828 
z
" transform="scale(0.015625)"/>
      <path id="DejaVuSans-62" d="M 3116 1747 
Q 3116 2381 2855 2742 
Q 2594 3103 2138 3103 
Q 1681 3103 1420 2742 
Q 1159 2381 1159 1747 
Q 1159 1113 1420 752 
Q 1681 391 2138 391 
Q 2594 391 2855 752 
Q 3116 1113 3116 1747 
z
M 1159 2969 
Q 1341 3281 1617 3432 
Q 1894 3584 2278 3584 
Q 2916 3584 3314 3078 
Q 3713 2572 3713 1747 
Q 3713 922 3314 415 
Q 2916 -91 2278 -91 
Q 1894 -91 1617 61 
Q 1341 213 1159 525 
L 1159 0 
L 581 0 
L 581 4863 
L 1159 4863 
L 1159 2969 
z
" transform="scale(0.015625)"/>
      <path id="DejaVuSans-77" d="M 269 3500 
L 844 3500 
L 1563 769 
L 2278 3500 
L 2956 3500 
L 3675 769 
L 4391 3500 
L 4966 3500 
L 4050 0 
L 3372 0 
L 2619 2869 
L 1863 0 
L 1184 0 
L 269 3500 
z
" transform="scale(0.015625)"/>
      <path id="DejaVuSans-53" d="M 3425 4513 
L 3425 3897 
Q 3066 4069 2747 4153 
Q 2428 4238 2131 4238 
Q 1616 4238 1336 4038 
Q 1056 3838 1056 3469 
Q 1056 3159 1242 3001 
Q 1428 2844 1947 2747 
L 2328 2669 
Q 3034 2534 3370 2195 
Q 3706 1856 3706 1288 
Q 3706 609 3251 259 
Q 2797 -91 1919 -91 
Q 1588 -91 1214 -16 
Q 841 59 441 206 
L 441 856 
Q 825 641 1194 531 
Q 1563 422 1919 422 
Q 2459 422 2753 634 
Q 3047 847 3047 1241 
Q 3047 1584 2836 1778 
Q 2625 1972 2144 2069 
L 1759 2144 
Q 1053 2284 737 2584 
Q 422 2884 422 3419 
Q 422 4038 858 4394 
Q 1294 4750 2059 4750 
Q 2388 4750 2728 4690 
Q 3069 4631 3425 4513 
z
" transform="scale(0.015625)"/>
      <path id="DejaVuSans-35" d="M 691 4666 
L 3169 4666 
L 3169 4134 
L 1269 4134 
L 1269 2991 
Q 1406 3038 1543 3061 
Q 1681 3084 1819 3084 
Q 2600 3084 3056 2656 
Q 3513 2228 3513 1497 
Q 3513 744 3044 326 
Q 2575 -91 1722 -91 
Q 1428 -91 1123 -41 
Q 819 9 494 109 
L 494 744 
Q 775 591 1075 516 
Q 1375 441 1709 441 
Q 2250 441 2565 725 
Q 2881 1009 2881 1497 
Q 2881 1984 2565 2268 
Q 2250 2553 1709 2553 
Q 1456 2553 1204 2497 
Q 953 2441 691 2322 
L 691 4666 
z
" transform="scale(0.015625)"/>
      <path id="DejaVuSans-28" d="M 1984 4856 
Q 1566 4138 1362 3434 
Q 1159 2731 1159 2009 
Q 1159 1288 1364 580 
Q 1569 -128 1984 -844 
L 1484 -844 
Q 1016 -109 783 600 
Q 550 1309 550 2009 
Q 550 2706 781 3412 
Q 1013 4119 1484 4856 
L 1984 4856 
z
" transform="scale(0.015625)"/>
      <path id="DejaVuSans-79" d="M 2059 -325 
Q 1816 -950 1584 -1140 
Q 1353 -1331 966 -1331 
L 506 -1331 
L 506 -850 
L 844 -850 
Q 1081 -850 1212 -737 
Q 1344 -625 1503 -206 
L 1606 56 
L 191 3500 
L 800 3500 
L 1894 763 
L 2988 3500 
L 3597 3500 
L 2059 -325 
z
" transform="scale(0.015625)"/>
      <path id="DejaVuSans-33" d="M 2597 2516 
Q 3050 2419 3304 2112 
Q 3559 1806 3559 1356 
Q 3559 666 3084 287 
Q 2609 -91 1734 -91 
Q 1441 -91 1130 -33 
Q 819 25 488 141 
L 488 750 
Q 750 597 1062 519 
Q 1375 441 1716 441 
Q 2309 441 2620 675 
Q 2931 909 2931 1356 
Q 2931 1769 2642 2001 
Q 2353 2234 1838 2234 
L 1294 2234 
L 1294 2753 
L 1863 2753 
Q 2328 2753 2575 2939 
Q 2822 3125 2822 3475 
Q 2822 3834 2567 4026 
Q 2313 4219 1838 4219 
Q 1578 4219 1281 4162 
Q 984 4106 628 3988 
L 628 4550 
Q 988 4650 1302 4700 
Q 1616 4750 1894 4750 
Q 2613 4750 3031 4423 
Q 3450 4097 3450 3541 
Q 3450 3153 3228 2886 
Q 3006 2619 2597 2516 
z
" transform="scale(0.015625)"/>
      <path id="DejaVuSans-29" d="M 513 4856 
L 1013 4856 
Q 1481 4119 1714 3412 
Q 1947 2706 1947 2009 
Q 1947 1309 1714 600 
Q 1481 -109 1013 -844 
L 513 -844 
Q 928 -128 1133 580 
Q 1338 1288 1338 2009 
Q 1338 2731 1133 3434 
Q 928 4138 513 4856 
z
" transform="scale(0.015625)"/>
     </defs>
     <use xlink:href="#DejaVuSans-45"/>
     <use xlink:href="#DejaVuSans-78" x="63.183594"/>
     <use xlink:href="#DejaVuSans-65" x="119.238281"/>
     <use xlink:href="#DejaVuSans-63" x="180.761719"/>
     <use xlink:href="#DejaVuSans-75" x="235.742188"/>
     <use xlink:href="#DejaVuSans-74" x="299.121094"/>
     <use xlink:href="#DejaVuSans-69" x="338.330078"/>
     <use xlink:href="#DejaVuSans-6f" x="366.113281"/>
     <use xlink:href="#DejaVuSans-6e" x="427.294922"/>
     <use xlink:href="#DejaVuSans-20" x="490.673828"/>
     <use xlink:href="#DejaVuSans-74" x="522.460938"/>
     <use xlink:href="#DejaVuSans-69" x="561.669922"/>
     <use xlink:href="#DejaVuSans-6d" x="589.453125"/>
     <use xlink:href="#DejaVuSans-65" x="686.865234"/>
     <use xlink:href="#DejaVuSans-20" x="748.388672"/>
     <use xlink:href="#DejaVuSans-62" x="780.175781"/>
     <use xlink:href="#DejaVuSans-65" x="843.652344"/>
     <use xlink:href="#DejaVuSans-74" x="905.175781"/>
     <use xlink:href="#DejaVuSans-77" x="944.384766"/>
     <use xlink:href="#DejaVuSans-65" x="1026.171875"/>
     <use xlink:href="#DejaVuSans-65" x="1087.695312"/>
     <use xlink:href="#DejaVuSans-6e" x="1149.21875"/>
     <use xlink:href="#DejaVuSans-20" x="1212.597656"/>
     <use xlink:href="#DejaVuSans-53" x="1244.384766"/>
     <use xlink:href="#DejaVuSans-31" x="1307.861328"/>
     <use xlink:href="#DejaVuSans-20" x="1371.484375"/>
     <use xlink:href="#DejaVuSans-53" x="1403.271484"/>
     <use xlink:href="#DejaVuSans-31" x="1466.748047"/>
     <use xlink:href="#DejaVuSans-35" x="1530.371094"/>
     <use xlink:href="#DejaVuSans-20" x="1593.994141"/>
     <use xlink:href="#DejaVuSans-28" x="1625.78125"/>
     <use xlink:href="#DejaVuSans-78" x="1664.794922"/>
     <use xlink:href="#DejaVuSans-78" x="1723.974609"/>
     <use xlink:href="#DejaVuSans-31" x="1783.154297"/>
     <use xlink:href="#DejaVuSans-78" x="1846.777344"/>
     <use xlink:href="#DejaVuSans-78" x="1905.957031"/>
     <use xlink:href="#DejaVuSans-32" x="1965.136719"/>
     <use xlink:href="#DejaVuSans-78" x="2028.759766"/>
     <use xlink:href="#DejaVuSans-78" x="2087.939453"/>
     <use xlink:href="#DejaVuSans-30" x="2147.119141"/>
     <use xlink:href="#DejaVuSans-79" x="2210.742188"/>
     <use xlink:href="#DejaVuSans-79" x="2269.921875"/>
     <use xlink:href="#DejaVuSans-79" x="2329.101562"/>
     <use xlink:href="#DejaVuSans-34" x="2388.28125"/>
     <use xlink:href="#DejaVuSans-35" x="2451.904297"/>
     <use xlink:href="#DejaVuSans-78" x="2515.527344"/>
     <use xlink:href="#DejaVuSans-78" x="2574.707031"/>
     <use xlink:href="#DejaVuSans-30" x="2633.886719"/>
     <use xlink:href="#DejaVuSans-79" x="2697.509766"/>
     <use xlink:href="#DejaVuSans-79" x="2756.689453"/>
     <use xlink:href="#DejaVuSans-79" x="2815.869141"/>
     <use xlink:href="#DejaVuSans-34" x="2875.048828"/>
     <use xlink:href="#DejaVuSans-35" x="2938.671875"/>
     <use xlink:href="#DejaVuSans-78" x="3002.294922"/>
     <use xlink:href="#DejaVuSans-78" x="3061.474609"/>
     <use xlink:href="#DejaVuSans-30" x="3120.654297"/>
     <use xlink:href="#DejaVuSans-79" x="3184.277344"/>
     <use xlink:href="#DejaVuSans-79" x="3243.457031"/>
     <use xlink:href="#DejaVuSans-79" x="3302.636719"/>
     <use xlink:href="#DejaVuSans-33" x="3361.816406"/>
     <use xlink:href="#DejaVuSans-78" x="3425.439453"/>
     <use xlink:href="#DejaVuSans-78" x="3484.619141"/>
     <use xlink:href="#DejaVuSans-31" x="3543.798828"/>
     <use xlink:href="#DejaVuSans-78" x="3607.421875"/>
     <use xlink:href="#DejaVuSans-78" x="3666.601562"/>
     <use xlink:href="#DejaVuSans-30" x="3725.78125"/>
     <use xlink:href="#DejaVuSans-79" x="3789.404297"/>
     <use xlink:href="#DejaVuSans-79" x="3848.583984"/>
     <use xlink:href="#DejaVuSans-79" x="3907.763672"/>
     <use xlink:href="#DejaVuSans-34" x="3966.943359"/>
     <use xlink:href="#DejaVuSans-35" x="4030.566406"/>
     <use xlink:href="#DejaVuSans-78" x="4094.189453"/>
     <use xlink:href="#DejaVuSans-78" x="4153.369141"/>
     <use xlink:href="#DejaVuSans-30" x="4212.548828"/>
     <use xlink:href="#DejaVuSans-79" x="4276.171875"/>
     <use xlink:href="#DejaVuSans-79" x="4335.351562"/>
     <use xlink:href="#DejaVuSans-79" x="4394.53125"/>
     <use xlink:href="#DejaVuSans-34" x="4453.710938"/>
     <use xlink:href="#DejaVuSans-35" x="4517.333984"/>
     <use xlink:href="#DejaVuSans-78" x="4580.957031"/>
     <use xlink:href="#DejaVuSans-78" x="4640.136719"/>
     <use xlink:href="#DejaVuSans-30" x="4699.316406"/>
     <use xlink:href="#DejaVuSans-79" x="4762.939453"/>
     <use xlink:href="#DejaVuSans-79" x="4822.119141"/>
     <use xlink:href="#DejaVuSans-79" x="4881.298828"/>
     <use xlink:href="#DejaVuSans-34" x="4940.478516"/>
     <use xlink:href="#DejaVuSans-35" x="5004.101562"/>
     <use xlink:href="#DejaVuSans-29" x="5067.724609"/>
    </g>
   </g>
   <g id="legend_1">
    <g id="patch_7">
     <path d="M 84.895313 304.584 
L 410.52 304.584 
Q 411.72 304.584 411.72 303.384 
L 411.72 295.177125 
Q 411.72 293.977125 410.52 293.977125 
L 84.895313 293.977125 
Q 83.695313 293.977125 83.695313 295.177125 
L 83.695313 303.384 
Q 83.695313 304.584 84.895313 304.584 
z
" style="fill: #ffffff; opacity: 0.8; stroke: #cccccc; stroke-linejoin: miter"/>
    </g>
    <g id="line2d_16">
     <path d="M 86.095313 298.836187 
L 92.095313 298.836187 
L 98.095313 298.836187 
" style="fill: none; stroke: #1f77b4; stroke-width: 1.5; stroke-linecap: square"/>
    </g>
    <g id="text_17">
     <!-- Execution time between S1 S15 (xx1xx2xx0yyy45xx0yyy45xx0yyy3xx1xx0yyy45xx0yyy45xx0yyy45) -->
     <g transform="translate(102.895313 300.936187) scale(0.06 -0.06)">
      <use xlink:href="#DejaVuSans-45"/>
      <use xlink:href="#DejaVuSans-78" x="63.183594"/>
      <use xlink:href="#DejaVuSans-65" x="119.238281"/>
      <use xlink:href="#DejaVuSans-63" x="180.761719"/>
      <use xlink:href="#DejaVuSans-75" x="235.742188"/>
      <use xlink:href="#DejaVuSans-74" x="299.121094"/>
      <use xlink:href="#DejaVuSans-69" x="338.330078"/>
      <use xlink:href="#DejaVuSans-6f" x="366.113281"/>
      <use xlink:href="#DejaVuSans-6e" x="427.294922"/>
      <use xlink:href="#DejaVuSans-20" x="490.673828"/>
      <use xlink:href="#DejaVuSans-74" x="522.460938"/>
      <use xlink:href="#DejaVuSans-69" x="561.669922"/>
      <use xlink:href="#DejaVuSans-6d" x="589.453125"/>
      <use xlink:href="#DejaVuSans-65" x="686.865234"/>
      <use xlink:href="#DejaVuSans-20" x="748.388672"/>
      <use xlink:href="#DejaVuSans-62" x="780.175781"/>
      <use xlink:href="#DejaVuSans-65" x="843.652344"/>
      <use xlink:href="#DejaVuSans-74" x="905.175781"/>
      <use xlink:href="#DejaVuSans-77" x="944.384766"/>
      <use xlink:href="#DejaVuSans-65" x="1026.171875"/>
      <use xlink:href="#DejaVuSans-65" x="1087.695312"/>
      <use xlink:href="#DejaVuSans-6e" x="1149.21875"/>
      <use xlink:href="#DejaVuSans-20" x="1212.597656"/>
      <use xlink:href="#DejaVuSans-53" x="1244.384766"/>
      <use xlink:href="#DejaVuSans-31" x="1307.861328"/>
      <use xlink:href="#DejaVuSans-20" x="1371.484375"/>
      <use xlink:href="#DejaVuSans-53" x="1403.271484"/>
      <use xlink:href="#DejaVuSans-31" x="1466.748047"/>
      <use xlink:href="#DejaVuSans-35" x="1530.371094"/>
      <use xlink:href="#DejaVuSans-20" x="1593.994141"/>
      <use xlink:href="#DejaVuSans-28" x="1625.78125"/>
      <use xlink:href="#DejaVuSans-78" x="1664.794922"/>
      <use xlink:href="#DejaVuSans-78" x="1723.974609"/>
      <use xlink:href="#DejaVuSans-31" x="1783.154297"/>
      <use xlink:href="#DejaVuSans-78" x="1846.777344"/>
      <use xlink:href="#DejaVuSans-78" x="1905.957031"/>
      <use xlink:href="#DejaVuSans-32" x="1965.136719"/>
      <use xlink:href="#DejaVuSans-78" x="2028.759766"/>
      <use xlink:href="#DejaVuSans-78" x="2087.939453"/>
      <use xlink:href="#DejaVuSans-30" x="2147.119141"/>
      <use xlink:href="#DejaVuSans-79" x="2210.742188"/>
      <use xlink:href="#DejaVuSans-79" x="2269.921875"/>
      <use xlink:href="#DejaVuSans-79" x="2329.101562"/>
      <use xlink:href="#DejaVuSans-34" x="2388.28125"/>
      <use xlink:href="#DejaVuSans-35" x="2451.904297"/>
      <use xlink:href="#DejaVuSans-78" x="2515.527344"/>
      <use xlink:href="#DejaVuSans-78" x="2574.707031"/>
      <use xlink:href="#DejaVuSans-30" x="2633.886719"/>
      <use xlink:href="#DejaVuSans-79" x="2697.509766"/>
      <use xlink:href="#DejaVuSans-79" x="2756.689453"/>
      <use xlink:href="#DejaVuSans-79" x="2815.869141"/>
      <use xlink:href="#DejaVuSans-34" x="2875.048828"/>
      <use xlink:href="#DejaVuSans-35" x="2938.671875"/>
      <use xlink:href="#DejaVuSans-78" x="3002.294922"/>
      <use xlink:href="#DejaVuSans-78" x="3061.474609"/>
      <use xlink:href="#DejaVuSans-30" x="3120.654297"/>
      <use xlink:href="#DejaVuSans-79" x="3184.277344"/>
      <use xlink:href="#DejaVuSans-79" x="3243.457031"/>
      <use xlink:href="#DejaVuSans-79" x="3302.636719"/>
      <use xlink:href="#DejaVuSans-33" x="3361.816406"/>
      <use xlink:href="#DejaVuSans-78" x="3425.439453"/>
      <use xlink:href="#DejaVuSans-78" x="3484.619141"/>
      <use xlink:href="#DejaVuSans-31" x="3543.798828"/>
      <use xlink:href="#DejaVuSans-78" x="3607.421875"/>
      <use xlink:href="#DejaVuSans-78" x="3666.601562"/>
      <use xlink:href="#DejaVuSans-30" x="3725.78125"/>
      <use xlink:href="#DejaVuSans-79" x="3789.404297"/>
      <use xlink:href="#DejaVuSans-79" x="3848.583984"/>
      <use xlink:href="#DejaVuSans-79" x="3907.763672"/>
      <use xlink:href="#DejaVuSans-34" x="3966.943359"/>
      <use xlink:href="#DejaVuSans-35" x="4030.566406"/>
      <use xlink:href="#DejaVuSans-78" x="4094.189453"/>
      <use xlink:href="#DejaVuSans-78" x="4153.369141"/>
      <use xlink:href="#DejaVuSans-30" x="4212.548828"/>
      <use xlink:href="#DejaVuSans-79" x="4276.171875"/>
      <use xlink:href="#DejaVuSans-79" x="4335.351562"/>
      <use xlink:href="#DejaVuSans-79" x="4394.53125"/>
      <use xlink:href="#DejaVuSans-34" x="4453.710938"/>
      <use xlink:href="#DejaVuSans-35" x="4517.333984"/>
      <use xlink:href="#DejaVuSans-78" x="4580.957031"/>
      <use xlink:href="#DejaVuSans-78" x="4640.136719"/>
      <use xlink:href="#DejaVuSans-30" x="4699.316406"/>
      <use xlink:href="#DejaVuSans-79" x="4762.939453"/>
      <use xlink:href="#DejaVuSans-79" x="4822.119141"/>
      <use xlink:href="#DejaVuSans-79" x="4881.298828"/>
      <use xlink:href="#DejaVuSans-34" x="4940.478516"/>
      <use xlink:href="#DejaVuSans-35" x="5004.101562"/>
      <use xlink:href="#DejaVuSans-29" x="5067.724609"/>
     </g>
    </g>
   </g>
  </g>
 </g>
 <defs>
  <clipPath id="pf01b676cdc">
   <rect x="57.6" y="41.472" width="357.12" height="266.112"/>
  </clipPath>
 </defs>
</svg>
