<?xml version="1.0" encoding="utf-8" standalone="no"?>
<!DOCTYPE svg PUBLIC "-//W3C//DTD SVG 1.1//EN"
  "http://www.w3.org/Graphics/SVG/1.1/DTD/svg11.dtd">
<svg xmlns:xlink="http://www.w3.org/1999/xlink" width="460.8pt" height="345.6pt" viewBox="0 0 460.8 345.6" xmlns="http://www.w3.org/2000/svg" version="1.1">
 <metadata>
  <rdf:RDF xmlns:dc="http://purl.org/dc/elements/1.1/" xmlns:cc="http://creativecommons.org/ns#" xmlns:rdf="http://www.w3.org/1999/02/22-rdf-syntax-ns#">
   <cc:Work>
    <dc:type rdf:resource="http://purl.org/dc/dcmitype/StillImage"/>
    <dc:date>2024-03-08T12:57:36.237798</dc:date>
    <dc:format>image/svg+xml</dc:format>
    <dc:creator>
     <cc:Agent>
      <dc:title>Matplotlib v3.8.2, https://matplotlib.org/</dc:title>
     </cc:Agent>
    </dc:creator>
   </cc:Work>
  </rdf:RDF>
 </metadata>
 <defs>
  <style type="text/css">*{stroke-linejoin: round; stroke-linecap: butt}</style>
 </defs>
 <g id="figure_1">
  <g id="patch_1">
   <path d="M 0 345.6 
L 460.8 345.6 
L 460.8 0 
L 0 0 
z
" style="fill: #ffffff"/>
  </g>
  <g id="axes_1">
   <g id="patch_2">
    <path d="M 57.6 307.584 
L 414.72 307.584 
L 414.72 41.472 
L 57.6 41.472 
z
" style="fill: #ffffff"/>
   </g>
   <g id="matplotlib.axis_1">
    <g id="xtick_1">
     <g id="line2d_1">
      <defs>
       <path id="me786708f44" d="M 0 0 
L 0 3.5 
" style="stroke: #000000; stroke-width: 0.8"/>
      </defs>
      <g>
       <use xlink:href="#me786708f44" x="73.832727" y="307.584" style="stroke: #000000; stroke-width: 0.8"/>
      </g>
     </g>
     <g id="text_1">
      <!-- 0 -->
      <g transform="translate(70.651477 322.182437) scale(0.1 -0.1)">
       <defs>
        <path id="DejaVuSans-30" d="M 2034 4250 
Q 1547 4250 1301 3770 
Q 1056 3291 1056 2328 
Q 1056 1369 1301 889 
Q 1547 409 2034 409 
Q 2525 409 2770 889 
Q 3016 1369 3016 2328 
Q 3016 3291 2770 3770 
Q 2525 4250 2034 4250 
z
M 2034 4750 
Q 2819 4750 3233 4129 
Q 3647 3509 3647 2328 
Q 3647 1150 3233 529 
Q 2819 -91 2034 -91 
Q 1250 -91 836 529 
Q 422 1150 422 2328 
Q 422 3509 836 4129 
Q 1250 4750 2034 4750 
z
" transform="scale(0.015625)"/>
       </defs>
       <use xlink:href="#DejaVuSans-30"/>
      </g>
     </g>
    </g>
    <g id="xtick_2">
     <g id="line2d_2">
      <g>
       <use xlink:href="#me786708f44" x="145.891711" y="307.584" style="stroke: #000000; stroke-width: 0.8"/>
      </g>
     </g>
     <g id="text_2">
      <!-- 100000 -->
      <g transform="translate(126.804211 322.182437) scale(0.1 -0.1)">
       <defs>
        <path id="DejaVuSans-31" d="M 794 531 
L 1825 531 
L 1825 4091 
L 703 3866 
L 703 4441 
L 1819 4666 
L 2450 4666 
L 2450 531 
L 3481 531 
L 3481 0 
L 794 0 
L 794 531 
z
" transform="scale(0.015625)"/>
       </defs>
       <use xlink:href="#DejaVuSans-31"/>
       <use xlink:href="#DejaVuSans-30" x="63.623047"/>
       <use xlink:href="#DejaVuSans-30" x="127.246094"/>
       <use xlink:href="#DejaVuSans-30" x="190.869141"/>
       <use xlink:href="#DejaVuSans-30" x="254.492188"/>
       <use xlink:href="#DejaVuSans-30" x="318.115234"/>
      </g>
     </g>
    </g>
    <g id="xtick_3">
     <g id="line2d_3">
      <g>
       <use xlink:href="#me786708f44" x="217.950695" y="307.584" style="stroke: #000000; stroke-width: 0.8"/>
      </g>
     </g>
     <g id="text_3">
      <!-- 200000 -->
      <g transform="translate(198.863195 322.182437) scale(0.1 -0.1)">
       <defs>
        <path id="DejaVuSans-32" d="M 1228 531 
L 3431 531 
L 3431 0 
L 469 0 
L 469 531 
Q 828 903 1448 1529 
Q 2069 2156 2228 2338 
Q 2531 2678 2651 2914 
Q 2772 3150 2772 3378 
Q 2772 3750 2511 3984 
Q 2250 4219 1831 4219 
Q 1534 4219 1204 4116 
Q 875 4013 500 3803 
L 500 4441 
Q 881 4594 1212 4672 
Q 1544 4750 1819 4750 
Q 2544 4750 2975 4387 
Q 3406 4025 3406 3419 
Q 3406 3131 3298 2873 
Q 3191 2616 2906 2266 
Q 2828 2175 2409 1742 
Q 1991 1309 1228 531 
z
" transform="scale(0.015625)"/>
       </defs>
       <use xlink:href="#DejaVuSans-32"/>
       <use xlink:href="#DejaVuSans-30" x="63.623047"/>
       <use xlink:href="#DejaVuSans-30" x="127.246094"/>
       <use xlink:href="#DejaVuSans-30" x="190.869141"/>
       <use xlink:href="#DejaVuSans-30" x="254.492188"/>
       <use xlink:href="#DejaVuSans-30" x="318.115234"/>
      </g>
     </g>
    </g>
    <g id="xtick_4">
     <g id="line2d_4">
      <g>
       <use xlink:href="#me786708f44" x="290.009679" y="307.584" style="stroke: #000000; stroke-width: 0.8"/>
      </g>
     </g>
     <g id="text_4">
      <!-- 300000 -->
      <g transform="translate(270.922179 322.182437) scale(0.1 -0.1)">
       <defs>
        <path id="DejaVuSans-33" d="M 2597 2516 
Q 3050 2419 3304 2112 
Q 3559 1806 3559 1356 
Q 3559 666 3084 287 
Q 2609 -91 1734 -91 
Q 1441 -91 1130 -33 
Q 819 25 488 141 
L 488 750 
Q 750 597 1062 519 
Q 1375 441 1716 441 
Q 2309 441 2620 675 
Q 2931 909 2931 1356 
Q 2931 1769 2642 2001 
Q 2353 2234 1838 2234 
L 1294 2234 
L 1294 2753 
L 1863 2753 
Q 2328 2753 2575 2939 
Q 2822 3125 2822 3475 
Q 2822 3834 2567 4026 
Q 2313 4219 1838 4219 
Q 1578 4219 1281 4162 
Q 984 4106 628 3988 
L 628 4550 
Q 988 4650 1302 4700 
Q 1616 4750 1894 4750 
Q 2613 4750 3031 4423 
Q 3450 4097 3450 3541 
Q 3450 3153 3228 2886 
Q 3006 2619 2597 2516 
z
" transform="scale(0.015625)"/>
       </defs>
       <use xlink:href="#DejaVuSans-33"/>
       <use xlink:href="#DejaVuSans-30" x="63.623047"/>
       <use xlink:href="#DejaVuSans-30" x="127.246094"/>
       <use xlink:href="#DejaVuSans-30" x="190.869141"/>
       <use xlink:href="#DejaVuSans-30" x="254.492188"/>
       <use xlink:href="#DejaVuSans-30" x="318.115234"/>
      </g>
     </g>
    </g>
    <g id="xtick_5">
     <g id="line2d_5">
      <g>
       <use xlink:href="#me786708f44" x="362.068662" y="307.584" style="stroke: #000000; stroke-width: 0.8"/>
      </g>
     </g>
     <g id="text_5">
      <!-- 400000 -->
      <g transform="translate(342.981162 322.182437) scale(0.1 -0.1)">
       <defs>
        <path id="DejaVuSans-34" d="M 2419 4116 
L 825 1625 
L 2419 1625 
L 2419 4116 
z
M 2253 4666 
L 3047 4666 
L 3047 1625 
L 3713 1625 
L 3713 1100 
L 3047 1100 
L 3047 0 
L 2419 0 
L 2419 1100 
L 313 1100 
L 313 1709 
L 2253 4666 
z
" transform="scale(0.015625)"/>
       </defs>
       <use xlink:href="#DejaVuSans-34"/>
       <use xlink:href="#DejaVuSans-30" x="63.623047"/>
       <use xlink:href="#DejaVuSans-30" x="127.246094"/>
       <use xlink:href="#DejaVuSans-30" x="190.869141"/>
       <use xlink:href="#DejaVuSans-30" x="254.492188"/>
       <use xlink:href="#DejaVuSans-30" x="318.115234"/>
      </g>
     </g>
    </g>
   </g>
   <g id="matplotlib.axis_2">
    <g id="ytick_1">
     <g id="line2d_6">
      <defs>
       <path id="med8d763da4" d="M 0 0 
L -3.5 0 
" style="stroke: #000000; stroke-width: 0.8"/>
      </defs>
      <g>
       <use xlink:href="#med8d763da4" x="57.6" y="295.488" style="stroke: #000000; stroke-width: 0.8"/>
      </g>
     </g>
     <g id="text_6">
      <!-- 0.0 -->
      <g transform="translate(34.696875 299.287219) scale(0.1 -0.1)">
       <defs>
        <path id="DejaVuSans-2e" d="M 684 794 
L 1344 794 
L 1344 0 
L 684 0 
L 684 794 
z
" transform="scale(0.015625)"/>
       </defs>
       <use xlink:href="#DejaVuSans-30"/>
       <use xlink:href="#DejaVuSans-2e" x="63.623047"/>
       <use xlink:href="#DejaVuSans-30" x="95.410156"/>
      </g>
     </g>
    </g>
    <g id="ytick_2">
     <g id="line2d_7">
      <g>
       <use xlink:href="#med8d763da4" x="57.6" y="247.104" style="stroke: #000000; stroke-width: 0.8"/>
      </g>
     </g>
     <g id="text_7">
      <!-- 0.2 -->
      <g transform="translate(34.696875 250.903219) scale(0.1 -0.1)">
       <use xlink:href="#DejaVuSans-30"/>
       <use xlink:href="#DejaVuSans-2e" x="63.623047"/>
       <use xlink:href="#DejaVuSans-32" x="95.410156"/>
      </g>
     </g>
    </g>
    <g id="ytick_3">
     <g id="line2d_8">
      <g>
       <use xlink:href="#med8d763da4" x="57.6" y="198.72" style="stroke: #000000; stroke-width: 0.8"/>
      </g>
     </g>
     <g id="text_8">
      <!-- 0.4 -->
      <g transform="translate(34.696875 202.519219) scale(0.1 -0.1)">
       <use xlink:href="#DejaVuSans-30"/>
       <use xlink:href="#DejaVuSans-2e" x="63.623047"/>
       <use xlink:href="#DejaVuSans-34" x="95.410156"/>
      </g>
     </g>
    </g>
    <g id="ytick_4">
     <g id="line2d_9">
      <g>
       <use xlink:href="#med8d763da4" x="57.6" y="150.336" style="stroke: #000000; stroke-width: 0.8"/>
      </g>
     </g>
     <g id="text_9">
      <!-- 0.6 -->
      <g transform="translate(34.696875 154.135219) scale(0.1 -0.1)">
       <defs>
        <path id="DejaVuSans-36" d="M 2113 2584 
Q 1688 2584 1439 2293 
Q 1191 2003 1191 1497 
Q 1191 994 1439 701 
Q 1688 409 2113 409 
Q 2538 409 2786 701 
Q 3034 994 3034 1497 
Q 3034 2003 2786 2293 
Q 2538 2584 2113 2584 
z
M 3366 4563 
L 3366 3988 
Q 3128 4100 2886 4159 
Q 2644 4219 2406 4219 
Q 1781 4219 1451 3797 
Q 1122 3375 1075 2522 
Q 1259 2794 1537 2939 
Q 1816 3084 2150 3084 
Q 2853 3084 3261 2657 
Q 3669 2231 3669 1497 
Q 3669 778 3244 343 
Q 2819 -91 2113 -91 
Q 1303 -91 875 529 
Q 447 1150 447 2328 
Q 447 3434 972 4092 
Q 1497 4750 2381 4750 
Q 2619 4750 2861 4703 
Q 3103 4656 3366 4563 
z
" transform="scale(0.015625)"/>
       </defs>
       <use xlink:href="#DejaVuSans-30"/>
       <use xlink:href="#DejaVuSans-2e" x="63.623047"/>
       <use xlink:href="#DejaVuSans-36" x="95.410156"/>
      </g>
     </g>
    </g>
    <g id="ytick_5">
     <g id="line2d_10">
      <g>
       <use xlink:href="#med8d763da4" x="57.6" y="101.952" style="stroke: #000000; stroke-width: 0.8"/>
      </g>
     </g>
     <g id="text_10">
      <!-- 0.8 -->
      <g transform="translate(34.696875 105.751219) scale(0.1 -0.1)">
       <defs>
        <path id="DejaVuSans-38" d="M 2034 2216 
Q 1584 2216 1326 1975 
Q 1069 1734 1069 1313 
Q 1069 891 1326 650 
Q 1584 409 2034 409 
Q 2484 409 2743 651 
Q 3003 894 3003 1313 
Q 3003 1734 2745 1975 
Q 2488 2216 2034 2216 
z
M 1403 2484 
Q 997 2584 770 2862 
Q 544 3141 544 3541 
Q 544 4100 942 4425 
Q 1341 4750 2034 4750 
Q 2731 4750 3128 4425 
Q 3525 4100 3525 3541 
Q 3525 3141 3298 2862 
Q 3072 2584 2669 2484 
Q 3125 2378 3379 2068 
Q 3634 1759 3634 1313 
Q 3634 634 3220 271 
Q 2806 -91 2034 -91 
Q 1263 -91 848 271 
Q 434 634 434 1313 
Q 434 1759 690 2068 
Q 947 2378 1403 2484 
z
M 1172 3481 
Q 1172 3119 1398 2916 
Q 1625 2713 2034 2713 
Q 2441 2713 2670 2916 
Q 2900 3119 2900 3481 
Q 2900 3844 2670 4047 
Q 2441 4250 2034 4250 
Q 1625 4250 1398 4047 
Q 1172 3844 1172 3481 
z
" transform="scale(0.015625)"/>
       </defs>
       <use xlink:href="#DejaVuSans-30"/>
       <use xlink:href="#DejaVuSans-2e" x="63.623047"/>
       <use xlink:href="#DejaVuSans-38" x="95.410156"/>
      </g>
     </g>
    </g>
    <g id="ytick_6">
     <g id="line2d_11">
      <g>
       <use xlink:href="#med8d763da4" x="57.6" y="53.568" style="stroke: #000000; stroke-width: 0.8"/>
      </g>
     </g>
     <g id="text_11">
      <!-- 1.0 -->
      <g transform="translate(34.696875 57.367219) scale(0.1 -0.1)">
       <use xlink:href="#DejaVuSans-31"/>
       <use xlink:href="#DejaVuSans-2e" x="63.623047"/>
       <use xlink:href="#DejaVuSans-30" x="95.410156"/>
      </g>
     </g>
    </g>
   </g>
   <g id="line2d_12">
    <path d="M 73.832727 295.488 
L 131.530356 295.488 
L 131.530356 294.774372 
L 132.942712 294.774372 
L 132.942712 294.060743 
L 134.290215 294.060743 
L 134.376685 292.633487 
L 134.49198 292.633487 
L 134.49198 291.919858 
L 135.796247 291.919858 
L 135.868306 290.492602 
L 136.120513 290.492602 
L 136.134925 289.065345 
L 137.028456 289.065345 
L 137.028456 288.351717 
L 137.215809 288.351717 
L 137.287868 286.92446 
L 138.635371 286.92446 
L 138.74346 284.783575 
L 139.521697 284.783575 
L 139.521697 284.069947 
L 140.069345 284.069947 
L 140.177434 282.64269 
L 141.157436 282.64269 
L 141.157436 281.929062 
L 141.539348 281.929062 
L 141.618613 280.501805 
L 142.022144 280.501805 
L 142.022144 279.788177 
L 142.99494 279.788177 
L 143.088617 278.36092 
L 143.708324 278.36092 
L 143.708324 277.647292 
L 144.407296 277.647292 
L 144.407296 276.933664 
L 144.52259 276.933664 
L 144.52259 276.220035 
L 145.96377 276.220035 
L 145.985388 274.792779 
L 146.208771 274.792779 
L 146.208771 274.07915 
L 147.059067 274.07915 
L 147.059067 273.365522 
L 147.253626 273.365522 
L 147.253626 272.651894 
L 147.40495 272.651894 
L 147.40495 271.938265 
L 148.500246 271.938265 
L 148.500246 271.224637 
L 148.694806 271.224637 
L 148.723629 269.797381 
L 148.846129 269.797381 
L 148.846129 269.083752 
L 149.566719 269.083752 
L 149.566719 268.370124 
L 150.121573 268.370124 
L 150.121573 267.656496 
L 150.258485 267.656496 
L 150.258485 266.942867 
L 150.979075 266.942867 
L 150.979075 266.229239 
L 151.562753 266.229239 
L 151.562753 265.515611 
L 151.721283 265.515611 
L 151.721283 264.801982 
L 152.031136 264.801982 
L 152.09599 263.374726 
L 153.011139 263.374726 
L 153.011139 262.661097 
L 153.162462 262.661097 
L 153.162462 261.947469 
L 153.493934 261.947469 
L 153.493934 261.233841 
L 153.818199 261.233841 
L 153.818199 260.520212 
L 154.437907 260.520212 
L 154.437907 259.806584 
L 154.58923 259.806584 
L 154.58923 257.665699 
L 154.58923 257.665699 
L 155.857468 257.665699 
L 155.857468 256.952071 
L 156.001586 256.952071 
L 156.03041 255.524814 
L 156.304234 255.524814 
L 156.304234 254.811186 
L 156.751 254.811186 
L 156.751 254.097558 
L 157.111295 254.097558 
L 157.118501 252.670301 
L 158.091297 252.670301 
L 158.091297 251.956673 
L 158.480416 251.956673 
L 158.480416 251.243044 
L 158.732622 251.243044 
L 158.732622 250.529416 
L 158.862328 250.529416 
L 158.862328 249.815788 
L 159.287476 249.815788 
L 159.287476 249.102159 
L 159.662183 249.102159 
L 159.662183 248.388531 
L 160.59895 248.388531 
L 160.59895 247.674903 
L 161.780717 247.674903 
L 161.780717 246.961274 
L 162.141012 246.961274 
L 162.141012 246.247646 
L 163.178661 246.247646 
L 163.178661 245.534018 
L 163.856016 245.534018 
L 163.856016 244.820389 
L 164.28837 244.820389 
L 164.28837 244.106761 
L 164.634253 244.106761 
L 164.670282 242.679504 
L 164.987342 242.679504 
L 164.987342 241.965876 
L 165.686314 241.965876 
L 165.686314 241.252248 
L 166.37808 241.252248 
L 166.471757 239.111363 
L 166.774405 239.111363 
L 166.774405 238.397735 
L 167.242788 238.397735 
L 167.242788 237.684106 
L 168.266025 237.684106 
L 168.266025 236.25685 
L 168.266025 236.25685 
L 168.619115 236.25685 
L 168.619115 235.543221 
L 168.878527 235.543221 
L 168.878527 234.829593 
L 169.022645 234.829593 
L 169.080292 233.402336 
L 170.089118 233.402336 
L 170.089118 232.688708 
L 170.406177 232.688708 
L 170.413383 231.261451 
L 170.730443 231.261451 
L 170.730443 230.547823 
L 170.896178 230.547823 
L 170.896178 229.834195 
L 171.515886 229.834195 
L 171.515886 229.120566 
L 171.897798 229.120566 
L 171.897798 228.406938 
L 172.171622 228.406938 
L 172.171622 227.69331 
L 172.704859 227.69331 
L 172.704859 226.979681 
L 172.957065 226.979681 
L 172.957065 226.266053 
L 173.692067 226.266053 
L 173.692067 225.552425 
L 173.980303 225.552425 
L 173.980303 224.838796 
L 174.102803 224.838796 
L 174.102803 224.125168 
L 174.499128 224.125168 
L 174.499128 223.41154 
L 175.515159 223.41154 
L 175.529571 221.984283 
L 175.76016 221.984283 
L 175.76016 221.270655 
L 176.185308 221.270655 
L 176.185308 220.557027 
L 176.315014 220.557027 
L 176.315014 219.843398 
L 176.581632 219.843398 
L 176.581632 219.12977 
L 177.00678 219.12977 
L 177.00678 218.416142 
L 177.345457 218.416142 
L 177.374281 216.988885 
L 177.540017 216.988885 
L 177.540017 216.275257 
L 177.993988 216.275257 
L 178.080459 214.848 
L 178.700166 214.848 
L 178.700166 214.134372 
L 178.815461 214.134372 
L 178.815461 213.420743 
L 179.13252 213.420743 
L 179.161344 211.993487 
L 179.370315 211.993487 
L 179.370315 211.279858 
L 180.480023 211.279858 
L 180.480023 210.56623 
L 180.624141 210.56623 
L 180.624141 209.852602 
L 180.746641 209.852602 
L 180.746641 209.138973 
L 180.919583 209.138973 
L 180.926789 207.711717 
L 181.157378 207.711717 
L 181.200613 206.28446 
L 182.447234 206.28446 
L 182.54091 204.857204 
L 182.656205 204.857204 
L 182.757087 202.716319 
L 183.038117 202.716319 
L 183.052529 201.289062 
L 183.693854 201.289062 
L 183.773119 199.861805 
L 184.255914 199.861805 
L 184.320767 198.434549 
L 184.500915 198.434549 
L 184.594591 197.007292 
L 184.854004 197.007292 
L 184.854004 196.293664 
L 185.127828 196.293664 
L 185.127828 195.580035 
L 185.524152 195.580035 
L 185.524152 194.866407 
L 186.093418 194.866407 
L 186.165477 192.725522 
L 186.35283 192.725522 
L 186.367242 191.298265 
L 187.541804 191.298265 
L 187.649892 189.871009 
L 187.866069 189.871009 
L 187.923716 188.443752 
L 188.161511 188.443752 
L 188.168717 187.016496 
L 188.312835 187.016496 
L 188.312835 186.302867 
L 188.730777 186.302867 
L 188.730777 185.589239 
L 188.982983 185.589239 
L 188.982983 184.875611 
L 189.667544 184.875611 
L 189.696367 183.448354 
L 189.95578 183.448354 
L 189.962986 182.021097 
L 190.128721 182.021097 
L 190.128721 181.307469 
L 190.452987 181.307469 
L 190.452987 180.593841 
L 190.849311 180.593841 
L 190.849311 179.880212 
L 190.979017 179.880212 
L 190.979017 179.166584 
L 191.476224 179.166584 
L 191.476224 178.452956 
L 191.721225 178.452956 
L 191.750048 177.025699 
L 191.894166 177.025699 
L 191.894166 176.312071 
L 192.456226 176.312071 
L 192.456226 175.598442 
L 192.679609 175.598442 
L 192.773286 174.171186 
L 193.234463 174.171186 
L 193.335346 172.743929 
L 193.400199 172.743929 
L 193.508288 171.316673 
L 193.544317 171.316673 
L 193.544317 170.603044 
L 194.236083 170.603044 
L 194.236083 169.889416 
L 194.45226 169.889416 
L 194.45226 169.175788 
L 194.589172 169.175788 
L 194.589172 168.462159 
L 194.762114 168.462159 
L 194.762114 167.748531 
L 195.01432 167.748531 
L 195.01432 167.034903 
L 195.33138 167.034903 
L 195.33138 166.321274 
L 195.958293 166.321274 
L 196.037558 164.894018 
L 196.203294 164.894018 
L 196.289764 163.466761 
L 196.383441 163.466761 
L 196.383441 162.753133 
L 196.830207 162.753133 
L 196.830207 162.039504 
L 197.161678 162.039504 
L 197.161678 161.325876 
L 197.637267 161.325876 
L 197.637267 160.612248 
L 197.846238 160.612248 
L 197.846238 159.898619 
L 198.192121 159.898619 
L 198.192121 159.184991 
L 198.487563 159.184991 
L 198.487563 158.471363 
L 198.610064 158.471363 
L 198.610064 157.757735 
L 198.963153 157.757735 
L 198.963153 157.044106 
L 199.107271 157.044106 
L 199.107271 156.330478 
L 199.611683 156.330478 
L 199.611683 155.61685 
L 199.849478 155.61685 
L 199.849478 154.903221 
L 199.993596 154.903221 
L 199.993596 154.189593 
L 200.397126 154.189593 
L 200.397126 153.475965 
L 200.54845 153.475965 
L 200.54845 152.762336 
L 200.750215 152.762336 
L 200.750215 152.048708 
L 200.995216 152.048708 
L 200.995216 151.33508 
L 201.369923 151.33508 
L 201.369923 150.621451 
L 201.629335 150.621451 
L 201.629335 149.907823 
L 202.018453 149.907823 
L 202.11213 148.480566 
L 202.191395 148.480566 
L 202.227425 147.05331 
L 202.55169 147.05331 
L 202.55169 146.339681 
L 203.164191 146.339681 
L 203.164191 145.626053 
L 203.438015 145.626053 
L 203.445221 144.198796 
L 203.906399 144.198796 
L 204.014487 142.057912 
L 204.345959 142.057912 
L 204.345959 141.344283 
L 204.886401 141.344283 
L 204.886401 140.630655 
L 205.268314 140.630655 
L 205.268314 139.917027 
L 205.671844 139.917027 
L 205.671844 139.203398 
L 205.83758 139.203398 
L 205.83758 138.48977 
L 206.133021 138.48977 
L 206.133021 137.776142 
L 206.298757 137.776142 
L 206.298757 137.062513 
L 206.543758 137.062513 
L 206.543758 136.348885 
L 207.098612 136.348885 
L 207.098612 135.635257 
L 207.466113 135.635257 
L 207.466113 134.921628 
L 207.631848 134.921628 
L 207.631848 134.208 
L 208.381262 134.208 
L 208.381262 133.494372 
L 208.885675 133.494372 
L 208.885675 132.780743 
L 209.166705 132.780743 
L 209.267587 131.353487 
L 209.620676 131.353487 
L 209.620676 130.639858 
L 210.17553 130.639858 
L 210.17553 129.92623 
L 210.687149 129.92623 
L 210.687149 129.212602 
L 211.040238 129.212602 
L 211.040238 128.498973 
L 211.429357 128.498973 
L 211.429357 127.785345 
L 211.717593 127.785345 
L 211.717593 127.071717 
L 211.93377 127.071717 
L 211.93377 126.358088 
L 213.238037 126.358088 
L 213.238037 125.64446 
L 213.713627 125.64446 
L 213.814509 124.217204 
L 214.196422 124.217204 
L 214.196422 123.503575 
L 215.06113 123.503575 
L 215.06113 122.789947 
L 215.486278 122.789947 
L 215.594366 121.36269 
L 216.552751 121.36269 
L 216.552751 120.649062 
L 216.71128 120.649062 
L 216.71128 119.935434 
L 216.891428 119.935434 
L 216.891428 119.221805 
L 217.27334 119.221805 
L 217.27334 118.508177 
L 217.403047 118.508177 
L 217.403047 117.794549 
L 218.354225 117.794549 
L 218.354225 117.08092 
L 218.736138 117.08092 
L 218.736138 116.367292 
L 219.045991 116.367292 
L 219.045991 115.653664 
L 219.218933 115.653664 
L 219.283786 114.226407 
L 220.198935 114.226407 
L 220.198935 113.512779 
L 220.537612 113.512779 
L 220.537612 112.79915 
L 220.87629 112.79915 
L 220.87629 112.085522 
L 221.027613 112.085522 
L 221.027613 111.371894 
L 221.813056 111.371894 
L 221.813056 110.658265 
L 221.985998 110.658265 
L 221.985998 109.944637 
L 222.375116 109.944637 
L 222.375116 109.231009 
L 222.656146 109.231009 
L 222.656146 108.517381 
L 222.778647 108.517381 
L 222.778647 107.803752 
L 223.765855 107.803752 
L 223.773061 106.376496 
L 223.960414 106.376496 
L 223.960414 105.662867 
L 224.421592 105.662867 
L 224.421592 104.949239 
L 224.572915 104.949239 
L 224.572915 104.235611 
L 225.581741 104.235611 
L 225.588947 102.808354 
L 226.237478 102.808354 
L 226.237478 102.094726 
L 226.403214 102.094726 
L 226.475273 100.667469 
L 227.390422 100.667469 
L 227.390422 99.953841 
L 228.067776 99.953841 
L 228.175865 98.526584 
L 228.954102 98.526584 
L 228.954102 97.812956 
L 229.191896 97.812956 
L 229.191896 97.099327 
L 229.847633 97.099327 
L 229.847633 96.385699 
L 229.998957 96.385699 
L 229.998957 95.672071 
L 230.993371 95.672071 
L 230.993371 94.958442 
L 231.677931 94.958442 
L 231.74999 93.531186 
L 232.78764 93.531186 
L 232.78764 92.817558 
L 233.558671 92.817558 
L 233.558671 92.103929 
L 234.610732 92.103929 
L 234.610732 91.390301 
L 235.259263 91.390301 
L 235.345733 89.963044 
L 236.426618 89.963044 
L 236.426618 89.249416 
L 237.03912 89.249416 
L 237.147208 87.822159 
L 238.228093 87.822159 
L 238.228093 87.108531 
L 238.869418 87.108531 
L 238.869418 86.394903 
L 240.036773 86.394903 
L 240.036773 85.681274 
L 241.845454 85.681274 
L 241.845454 84.967646 
L 243.625311 84.967646 
L 243.625311 84.254018 
L 245.448403 84.254018 
L 245.448403 83.540389 
L 247.22826 83.540389 
L 247.22826 82.826761 
L 249.498118 82.826761 
L 249.498118 82.113133 
L 251.335622 82.113133 
L 251.335622 81.399504 
L 253.137097 81.399504 
L 253.137097 80.685876 
L 253.872098 80.685876 
L 253.872098 79.972248 
L 254.931365 79.972248 
L 254.931365 79.258619 
L 255.680779 79.258619 
L 255.680779 78.544991 
L 257.45343 78.544991 
L 257.45343 77.831363 
L 259.233287 77.831363 
L 259.233287 77.117735 
L 261.020349 77.117735 
L 261.020349 76.404106 
L 262.82903 76.404106 
L 262.82903 75.690478 
L 264.169327 75.690478 
L 264.169327 74.97685 
L 264.652122 74.97685 
L 264.652122 74.263221 
L 266.468009 74.263221 
L 266.468009 73.549593 
L 268.247865 73.549593 
L 268.247865 72.835965 
L 270.056546 72.835965 
L 270.056546 72.122336 
L 271.865226 72.122336 
L 271.865226 71.408708 
L 273.659495 71.408708 
L 273.659495 70.69508 
L 275.028616 70.69508 
L 275.028616 69.981451 
L 275.511411 69.981451 
L 275.511411 69.267823 
L 276.469796 69.267823 
L 276.477001 67.840566 
L 277.284062 67.840566 
L 277.284062 67.126938 
L 277.918181 67.126938 
L 277.932593 65.699681 
L 279.11436 65.699681 
L 279.11436 64.986053 
L 279.344949 64.986053 
L 279.344949 64.272425 
L 280.786129 64.272425 
L 280.872599 62.845168 
L 282.234514 62.845168 
L 282.234514 62.13154 
L 282.674074 62.13154 
L 282.674074 61.417912 
L 283.6829 61.417912 
L 283.6829 60.704283 
L 284.475549 60.704283 
L 284.475549 59.990655 
L 285.095256 59.990655 
L 285.095256 59.277027 
L 286.543641 59.277027 
L 286.543641 58.563398 
L 287.992027 58.563398 
L 287.992027 57.84977 
L 289.433207 57.84977 
L 289.433207 57.136142 
L 290.874386 57.136142 
L 290.874386 56.422513 
L 292.293948 56.422513 
L 292.293948 55.708885 
L 293.742334 55.708885 
L 293.742334 54.995257 
L 295.169102 54.995257 
L 295.169102 54.281628 
L 296.59587 54.281628 
L 296.59587 53.568 
L 296.59587 53.568 
" clip-path="url(#p990ca678f1)" style="fill: none; stroke: #1f77b4; stroke-width: 1.5; stroke-linecap: square"/>
   </g>
   <g id="line2d_13">
    <path d="M 73.832727 295.488 
L 105.048679 295.488 
L 105.048679 294.880161 
L 106.886183 294.880161 
L 106.886183 294.272322 
L 108.658834 294.272322 
L 108.658834 293.664482 
L 110.474721 293.664482 
L 110.474721 293.056643 
L 112.268989 293.056643 
L 112.268989 292.448804 
L 114.07767 292.448804 
L 114.07767 291.840965 
L 115.88635 291.840965 
L 115.88635 291.233126 
L 117.666207 291.233126 
L 117.666207 290.625286 
L 127.314905 290.625286 
L 127.314905 290.017447 
L 129.159615 290.017447 
L 129.159615 289.409608 
L 129.426233 289.409608 
L 129.426233 288.801769 
L 130.968295 288.801769 
L 130.968295 288.19393 
L 131.198884 288.19393 
L 131.198884 287.58609 
L 132.36624 287.58609 
L 132.36624 286.978251 
L 132.748152 286.978251 
L 132.748152 286.370412 
L 132.89227 286.370412 
L 132.89227 285.762573 
L 133.021977 285.762573 
L 133.021977 285.154734 
L 134.189332 285.154734 
L 134.189332 284.546894 
L 134.564039 284.546894 
L 134.657715 283.331216 
L 134.967569 283.331216 
L 134.967569 282.723377 
L 135.810659 282.723377 
L 135.810659 282.115538 
L 136.026836 282.115538 
L 136.120513 280.899859 
L 136.322278 280.899859 
L 136.322278 280.29202 
L 136.444778 280.29202 
L 136.552867 279.076342 
L 136.725808 279.076342 
L 136.725808 278.468503 
L 137.237427 278.468503 
L 137.237427 277.860663 
L 137.849928 277.860663 
L 137.849928 277.252824 
L 138.152576 277.252824 
L 138.260665 275.429307 
L 138.325518 275.429307 
L 138.325518 274.821467 
L 138.498459 274.821467 
L 138.498459 274.213628 
L 138.642577 274.213628 
L 138.671401 272.99795 
L 139.528903 272.99795 
L 139.528903 272.390111 
L 139.658609 272.390111 
L 139.658609 271.782271 
L 139.932433 271.782271 
L 139.99008 270.566593 
L 140.054933 270.566593 
L 140.141404 268.743075 
L 140.314346 268.743075 
L 140.314346 268.135236 
L 141.157436 268.135236 
L 141.157436 267.527397 
L 141.496113 267.527397 
L 141.496113 266.919558 
L 141.611407 266.919558 
L 141.611407 266.311719 
L 141.755525 266.311719 
L 141.805967 264.488201 
L 141.805967 264.488201 
L 141.950085 264.488201 
L 142.058173 263.272523 
L 142.108614 263.272523 
L 142.108614 262.664683 
L 143.052587 262.664683 
L 143.052587 262.056844 
L 143.311999 262.056844 
L 143.311999 261.449005 
L 143.549794 261.449005 
L 143.650677 259.625487 
L 143.708324 259.625487 
L 143.758765 258.409809 
L 143.881265 258.409809 
L 143.881265 257.80197 
L 144.500973 257.80197 
L 144.580238 256.586291 
L 145.127886 256.586291 
L 145.127886 255.978452 
L 145.372886 255.978452 
L 145.423328 254.154935 
L 145.567446 254.154935 
L 145.567446 253.547095 
L 145.725975 253.547095 
L 145.725975 252.939256 
L 145.913329 252.939256 
L 145.985388 251.723578 
L 146.208771 251.723578 
L 146.208771 251.115739 
L 146.907743 251.115739 
L 146.907743 250.507899 
L 147.066272 250.507899 
L 147.159949 249.292221 
L 147.181567 249.292221 
L 147.239214 248.076543 
L 147.383332 248.076543 
L 147.383332 246.860864 
L 147.383332 246.860864 
L 147.520244 246.860864 
L 147.520244 246.253025 
L 148.500246 246.253025 
L 148.500246 245.645186 
L 148.723629 245.645186 
L 148.817306 243.821668 
L 149.004659 243.821668 
L 149.062306 241.998151 
L 149.228042 241.998151 
L 149.292895 240.782472 
L 149.545102 240.782472 
L 149.545102 240.174633 
L 150.244074 240.174633 
L 150.244074 238.958955 
L 150.244074 238.958955 
L 150.546721 238.958955 
L 150.546721 238.351116 
L 150.784516 238.351116 
L 150.834957 236.527598 
L 150.979075 236.527598 
L 151.087164 235.31192 
L 151.685253 235.31192 
L 151.706871 234.096241 
L 152.081578 234.096241 
L 152.081578 233.488402 
L 152.348196 233.488402 
L 152.348196 232.880563 
L 152.578785 232.880563 
L 152.643638 231.057045 
L 152.852609 231.057045 
L 152.852609 230.449206 
L 153.090404 230.449206 
L 153.090404 229.841367 
L 153.493934 229.841367 
L 153.493934 229.233528 
L 153.818199 229.233528 
L 153.818199 228.625688 
L 154.128053 228.625688 
L 154.128053 228.017849 
L 154.394671 228.017849 
L 154.423495 226.194332 
L 154.423495 226.194332 
L 154.538789 226.194332 
L 154.646878 224.370814 
L 154.675701 224.370814 
L 154.675701 223.762975 
L 155.043202 223.762975 
L 155.043202 223.155136 
L 155.994381 223.155136 
L 156.001586 221.939457 
L 156.15291 221.939457 
L 156.239381 220.11594 
L 156.304234 220.11594 
L 156.304234 219.508101 
L 156.46997 219.508101 
L 156.491588 218.292422 
L 156.851882 218.292422 
L 156.851882 217.684583 
L 157.132913 217.684583 
L 157.132913 217.076744 
L 157.43556 217.076744 
L 157.43556 216.468905 
L 158.004826 216.468905 
L 158.091297 214.645387 
L 158.293062 214.645387 
L 158.307474 213.429709 
L 158.480416 213.429709 
L 158.480416 212.821869 
L 158.646151 212.821869 
L 158.646151 212.21403 
L 158.862328 212.21403 
L 158.941593 210.390513 
L 159.626153 210.390513 
L 159.626153 209.782673 
L 159.84233 209.782673 
L 159.84233 209.174834 
L 160.426008 209.174834 
L 160.426008 208.566995 
L 160.59895 208.566995 
L 160.59895 207.959156 
L 160.743068 207.959156 
L 160.743068 207.351317 
L 161.651011 207.351317 
L 161.651011 206.743477 
L 161.84557 206.743477 
L 161.896011 205.527799 
L 162.141012 205.527799 
L 162.227483 204.312121 
L 162.537336 204.312121 
L 162.537336 203.704281 
L 163.178661 203.704281 
L 163.178661 203.096442 
L 163.69028 203.096442 
L 163.69028 202.488603 
L 164.079399 202.488603 
L 164.079399 201.880764 
L 164.338811 201.880764 
L 164.346017 200.665085 
L 165.470137 200.665085 
L 165.470137 200.057246 
L 165.686314 200.057246 
L 165.686314 199.449407 
L 165.895285 199.449407 
L 165.895285 198.841568 
L 166.154697 198.841568 
L 166.154697 198.233729 
L 166.932934 198.233729 
L 166.932934 197.625889 
L 167.314847 197.625889 
L 167.314847 197.01805 
L 167.718377 197.01805 
L 167.718377 196.410211 
L 167.97779 196.410211 
L 167.97779 195.802372 
L 168.266025 195.802372 
L 168.266025 195.194533 
L 169.109116 195.194533 
L 169.109116 194.586693 
L 169.390146 194.586693 
L 169.390146 193.978854 
L 169.54147 193.978854 
L 169.54147 193.371015 
L 169.764852 193.371015 
L 169.764852 192.763176 
L 170.406177 192.763176 
L 170.406177 192.155337 
L 170.730443 192.155337 
L 170.730443 191.547497 
L 171.35015 191.547497 
L 171.35015 190.939658 
L 171.573533 190.939658 
L 171.573533 190.331819 
L 171.919416 190.331819 
L 171.919416 189.72398 
L 172.957065 189.72398 
L 172.957065 189.116141 
L 173.101183 189.116141 
L 173.101183 188.508302 
L 173.382213 188.508302 
L 173.382213 187.900462 
L 174.095597 187.900462 
L 174.095597 187.292623 
L 174.427069 187.292623 
L 174.427069 186.684784 
L 175.176482 186.684784 
L 175.176482 186.076945 
L 175.515159 186.076945 
L 175.515159 185.469106 
L 176.588838 185.469106 
L 176.588838 184.861266 
L 176.941927 184.861266 
L 176.941927 184.253427 
L 177.72737 184.253427 
L 177.72737 183.645588 
L 177.993988 183.645588 
L 177.993988 183.037749 
L 178.772225 183.037749 
L 178.772225 182.42991 
L 179.074873 182.42991 
L 179.074873 181.82207 
L 179.507227 181.82207 
L 179.507227 181.214231 
L 180.480023 181.214231 
L 180.480023 180.606392 
L 181.560908 180.606392 
L 181.560908 179.998553 
L 182.252674 179.998553 
L 182.252674 179.390714 
L 182.656205 179.390714 
L 182.656205 178.782874 
L 183.038117 178.782874 
L 183.038117 178.175035 
L 183.686648 178.175035 
L 183.686648 177.567196 
L 184.068561 177.567196 
L 184.068561 176.959357 
L 185.127828 176.959357 
L 185.156651 175.743678 
L 186.115036 175.743678 
L 186.115036 175.135839 
L 186.54739 175.135839 
L 186.619449 173.920161 
L 187.649892 173.920161 
L 187.649892 173.312322 
L 188.096658 173.312322 
L 188.096658 172.704482 
L 188.276805 172.704482 
L 188.276805 172.096643 
L 188.492982 172.096643 
L 188.492982 171.488804 
L 188.651512 171.488804 
L 188.651512 170.880965 
L 189.552249 170.880965 
L 189.552249 170.273126 
L 189.710779 170.273126 
L 189.710779 169.665286 
L 189.833279 169.665286 
L 189.833279 169.057447 
L 190.128721 169.057447 
L 190.128721 168.449608 
L 190.280045 168.449608 
L 190.280045 167.841769 
L 191.000635 167.841769 
L 191.000635 167.23393 
L 191.159165 167.23393 
L 191.216812 166.018251 
L 192.052696 166.018251 
L 192.052696 165.410412 
L 192.412991 165.410412 
L 192.412991 164.802573 
L 192.621962 164.802573 
L 192.621962 164.194734 
L 193.724464 164.194734 
L 193.724464 163.586894 
L 193.854171 163.586894 
L 193.875788 162.371216 
L 194.034318 162.371216 
L 194.034318 161.763377 
L 195.302556 161.763377 
L 195.302556 161.155538 
L 195.475498 161.155538 
L 195.475498 160.547698 
L 195.677263 160.547698 
L 195.677263 159.939859 
L 196.181676 159.939859 
L 196.181676 159.33202 
L 196.772559 159.33202 
L 196.772559 158.724181 
L 196.909472 158.724181 
L 197.003148 157.508503 
L 197.449914 157.508503 
L 197.449914 156.900663 
L 198.192121 156.900663 
L 198.192121 156.292824 
L 198.415504 156.292824 
L 198.415504 155.684985 
L 198.73977 155.684985 
L 198.73977 155.077146 
L 199.258594 155.077146 
L 199.258594 154.469307 
L 199.647713 154.469307 
L 199.647713 153.861467 
L 200.973598 153.861467 
L 201.074481 152.03795 
L 202.530072 152.03795 
L 202.530072 151.430111 
L 202.789485 151.430111 
L 202.789485 150.822271 
L 203.466839 150.822271 
L 203.474045 149.606593 
L 203.978458 149.606593 
L 203.978458 148.998754 
L 204.598165 148.998754 
L 204.598165 148.390915 
L 205.268314 148.390915 
L 205.268314 147.783075 
L 205.419638 147.783075 
L 205.419638 147.175236 
L 205.988903 147.175236 
L 205.988903 146.567397 
L 206.831994 146.567397 
L 206.831994 145.959558 
L 207.113024 145.959558 
L 207.113024 145.351719 
L 207.999349 145.351719 
L 207.999349 144.743879 
L 208.381262 144.743879 
L 208.381262 144.13604 
L 208.510968 144.13604 
L 208.510968 143.528201 
L 208.892881 143.528201 
L 208.892881 142.920362 
L 209.418911 142.920362 
L 209.454941 141.704683 
L 210.701561 141.704683 
L 210.701561 141.096844 
L 210.910532 141.096844 
L 210.910532 139.881166 
L 210.910532 139.881166 
L 211.025826 139.881166 
L 211.025826 139.273327 
L 212.358918 139.273327 
L 212.358918 138.665487 
L 212.503036 138.665487 
L 212.503036 138.057648 
L 213.389361 138.057648 
L 213.389361 137.449809 
L 213.764068 137.449809 
L 213.764068 136.84197 
L 214.282893 136.84197 
L 214.282893 136.234131 
L 215.226865 136.234131 
L 215.226865 135.626291 
L 215.933043 135.626291 
L 215.933043 135.018452 
L 216.098779 135.018452 
L 216.098779 134.410613 
L 216.689663 134.410613 
L 216.689663 133.802774 
L 218.138048 133.802774 
L 218.138048 133.194935 
L 218.404666 133.194935 
L 218.404666 132.587095 
L 218.606432 132.587095 
L 218.606432 131.979256 
L 219.579228 131.979256 
L 219.579228 131.371417 
L 220.926731 131.371417 
L 220.926731 130.763578 
L 221.042025 130.763578 
L 221.042025 130.155739 
L 222.475999 130.155739 
L 222.512028 128.94006 
L 223.12453 128.94006 
L 223.12453 128.332221 
L 223.463207 128.332221 
L 223.463207 127.724382 
L 223.917179 127.724382 
L 223.953208 126.508704 
L 225.351152 126.508704 
L 225.351152 125.900864 
L 225.632182 125.900864 
L 225.632182 125.293025 
L 226.821156 125.293025 
L 226.821156 124.685186 
L 227.707481 124.685186 
L 227.707481 124.077347 
L 228.103806 124.077347 
L 228.103806 123.469508 
L 228.291159 123.469508 
L 228.291159 122.861668 
L 229.768368 122.861668 
L 229.768368 122.253829 
L 230.236752 122.253829 
L 230.236752 121.64599 
L 231.209548 121.64599 
L 231.209548 121.038151 
L 232.095873 121.038151 
L 232.095873 120.430312 
L 232.665139 120.430312 
L 232.665139 119.822472 
L 232.78764 119.822472 
L 232.78764 119.214633 
L 233.522641 119.214633 
L 233.522641 118.606794 
L 234.113525 118.606794 
L 234.113525 117.998955 
L 234.963821 117.998955 
L 234.963821 117.391116 
L 235.324116 117.391116 
L 235.324116 116.783276 
L 235.525881 116.783276 
L 235.525881 116.175437 
L 236.44103 116.175437 
L 236.44103 115.567598 
L 237.860592 115.567598 
L 237.896622 114.35192 
L 239.352213 114.35192 
L 239.352213 113.74408 
L 240.368245 113.74408 
L 240.368245 113.136241 
L 240.81501 113.136241 
L 240.81501 112.528402 
L 242.248984 112.528402 
L 242.248984 111.920563 
L 242.897515 111.920563 
L 242.897515 111.312724 
L 243.185751 111.312724 
L 243.185751 110.704884 
L 243.682958 110.704884 
L 243.682958 110.097045 
L 245.023255 110.097045 
L 245.088108 108.881367 
L 245.470021 108.881367 
L 245.470021 108.273528 
L 246.536494 108.273528 
L 246.536494 107.665688 
L 246.82473 107.665688 
L 246.82473 107.057849 
L 247.559731 107.057849 
L 247.559731 106.45001 
L 247.783114 106.45001 
L 247.783114 105.842171 
L 247.977673 105.842171 
L 247.977673 105.234332 
L 248.618998 105.234332 
L 248.618998 104.626492 
L 248.871205 104.626492 
L 248.871205 104.018653 
L 249.368412 104.018653 
L 249.368412 103.410814 
L 249.548559 103.410814 
L 249.548559 102.802975 
L 251.141063 102.802975 
L 251.141063 102.195136 
L 251.342828 102.195136 
L 251.342828 101.587296 
L 252.92092 101.587296 
L 252.92092 100.979457 
L 253.129891 100.979457 
L 253.129891 100.371618 
L 254.707982 100.371618 
L 254.707982 99.763779 
L 254.902542 99.763779 
L 254.902542 99.15594 
L 256.516663 99.15594 
L 256.516663 98.548101 
L 256.689604 98.548101 
L 256.689604 97.940261 
L 258.339755 97.940261 
L 258.339755 97.332422 
L 258.469461 97.332422 
L 258.469461 96.724583 
L 260.155642 96.724583 
L 260.256524 95.508905 
L 261.935498 95.508905 
L 261.935498 94.901065 
L 262.057999 94.901065 
L 262.057999 94.293226 
L 263.744179 94.293226 
L 263.845062 93.077548 
L 264.565651 93.077548 
L 264.580063 91.861869 
L 265.552859 91.861869 
L 265.624918 90.646191 
L 266.021243 90.646191 
L 266.050066 89.430513 
L 266.302273 89.430513 
L 266.302273 88.822673 
L 267.347128 88.822673 
L 267.383158 87.606995 
L 267.491246 87.606995 
L 267.491246 86.999156 
L 268.067718 86.999156 
L 268.067718 86.391317 
L 268.910808 86.391317 
L 268.910808 85.783477 
L 269.199044 85.783477 
L 269.199044 85.175638 
L 269.89081 85.175638 
L 269.89081 84.567799 
L 270.33037 84.567799 
L 270.33037 83.95996 
L 270.971695 83.95996 
L 270.971695 83.352121 
L 271.692285 83.352121 
L 271.785962 82.136442 
L 272.801993 82.136442 
L 272.801993 81.528603 
L 273.219935 81.528603 
L 273.219935 80.920764 
L 273.464936 80.920764 
L 273.464936 80.312925 
L 274.560232 80.312925 
L 274.560232 79.705085 
L 274.697145 79.705085 
L 274.697145 79.097246 
L 275.316852 79.097246 
L 275.316852 78.489407 
L 276.18156 78.489407 
L 276.18156 77.881568 
L 276.361707 77.881568 
L 276.361707 77.273729 
L 277.651563 77.273729 
L 277.651563 76.665889 
L 278.163182 76.665889 
L 278.163182 76.05805 
L 279.099948 76.05805 
L 279.099948 75.450211 
L 280.55554 75.450211 
L 280.55554 74.842372 
L 281.967896 74.842372 
L 281.967896 74.234533 
L 283.416282 74.234533 
L 283.416282 73.626693 
L 284.850255 73.626693 
L 284.850255 73.018854 
L 286.320259 73.018854 
L 286.320259 72.411015 
L 287.768644 72.411015 
L 287.768644 71.803176 
L 289.238647 71.803176 
L 289.238647 71.195337 
L 290.701445 71.195337 
L 290.701445 70.587497 
L 292.178654 70.587497 
L 292.178654 69.979658 
L 293.62704 69.979658 
L 293.62704 69.371819 
L 295.03219 69.371819 
L 295.03219 68.76398 
L 296.480575 68.76398 
L 296.480575 68.156141 
L 297.914549 68.156141 
L 297.914549 67.548302 
L 358.15586 67.548302 
L 358.15586 66.940462 
L 359.957334 66.940462 
L 359.957334 66.332623 
L 361.794838 66.332623 
L 361.794838 65.724784 
L 363.639548 65.724784 
L 363.639548 65.116945 
L 365.441023 65.116945 
L 365.441023 64.509106 
L 366.139995 64.509106 
L 366.139995 63.901266 
L 367.235291 63.901266 
L 367.235291 63.293427 
L 367.94147 63.293427 
L 367.94147 62.685588 
L 369.699709 62.685588 
L 369.699709 62.077749 
L 371.47236 62.077749 
L 371.47236 61.46991 
L 373.237805 61.46991 
L 373.237805 60.86207 
L 375.024868 60.86207 
L 375.024868 60.254231 
L 376.840754 60.254231 
L 376.840754 59.646392 
L 378.649434 59.646392 
L 378.649434 59.038553 
L 380.450909 59.038553 
L 380.450909 58.430714 
L 385.840921 58.430714 
L 385.840921 57.822874 
L 387.678425 57.822874 
L 387.678425 57.215035 
L 389.515929 57.215035 
L 389.515929 56.607196 
L 391.281374 56.607196 
L 391.281374 55.999357 
L 393.075643 55.999357 
L 393.075643 55.391518 
L 394.877118 55.391518 
L 394.877118 54.783678 
L 396.693004 54.783678 
L 396.693004 54.175839 
L 398.487273 54.175839 
L 398.487273 53.568 
L 398.487273 53.568 
" clip-path="url(#p990ca678f1)" style="fill: none; stroke: #ff7f0e; stroke-width: 1.5; stroke-linecap: square"/>
   </g>
   <g id="patch_3">
    <path d="M 57.6 307.584 
L 57.6 41.472 
" style="fill: none; stroke: #000000; stroke-width: 0.8; stroke-linejoin: miter; stroke-linecap: square"/>
   </g>
   <g id="patch_4">
    <path d="M 414.72 307.584 
L 414.72 41.472 
" style="fill: none; stroke: #000000; stroke-width: 0.8; stroke-linejoin: miter; stroke-linecap: square"/>
   </g>
   <g id="patch_5">
    <path d="M 57.6 307.584 
L 414.72 307.584 
" style="fill: none; stroke: #000000; stroke-width: 0.8; stroke-linejoin: miter; stroke-linecap: square"/>
   </g>
   <g id="patch_6">
    <path d="M 57.6 41.472 
L 414.72 41.472 
" style="fill: none; stroke: #000000; stroke-width: 0.8; stroke-linejoin: miter; stroke-linecap: square"/>
   </g>
   <g id="text_12">
    <!-- S1 S103 -->
    <g transform="translate(211.365 35.472) scale(0.12 -0.12)">
     <defs>
      <path id="DejaVuSans-53" d="M 3425 4513 
L 3425 3897 
Q 3066 4069 2747 4153 
Q 2428 4238 2131 4238 
Q 1616 4238 1336 4038 
Q 1056 3838 1056 3469 
Q 1056 3159 1242 3001 
Q 1428 2844 1947 2747 
L 2328 2669 
Q 3034 2534 3370 2195 
Q 3706 1856 3706 1288 
Q 3706 609 3251 259 
Q 2797 -91 1919 -91 
Q 1588 -91 1214 -16 
Q 841 59 441 206 
L 441 856 
Q 825 641 1194 531 
Q 1563 422 1919 422 
Q 2459 422 2753 634 
Q 3047 847 3047 1241 
Q 3047 1584 2836 1778 
Q 2625 1972 2144 2069 
L 1759 2144 
Q 1053 2284 737 2584 
Q 422 2884 422 3419 
Q 422 4038 858 4394 
Q 1294 4750 2059 4750 
Q 2388 4750 2728 4690 
Q 3069 4631 3425 4513 
z
" transform="scale(0.015625)"/>
      <path id="DejaVuSans-20" transform="scale(0.015625)"/>
     </defs>
     <use xlink:href="#DejaVuSans-53"/>
     <use xlink:href="#DejaVuSans-31" x="63.476562"/>
     <use xlink:href="#DejaVuSans-20" x="127.099609"/>
     <use xlink:href="#DejaVuSans-53" x="158.886719"/>
     <use xlink:href="#DejaVuSans-31" x="222.363281"/>
     <use xlink:href="#DejaVuSans-30" x="285.986328"/>
     <use xlink:href="#DejaVuSans-33" x="349.609375"/>
    </g>
   </g>
   <g id="legend_1">
    <g id="patch_7">
     <path d="M 81.077813 304.584 
L 410.52 304.584 
Q 411.72 304.584 411.72 303.384 
L 411.72 286.37025 
Q 411.72 285.17025 410.52 285.17025 
L 81.077813 285.17025 
Q 79.877813 285.17025 79.877813 286.37025 
L 79.877813 303.384 
Q 79.877813 304.584 81.077813 304.584 
z
" style="fill: #ffffff; opacity: 0.8; stroke: #cccccc; stroke-linejoin: miter"/>
    </g>
    <g id="line2d_14">
     <path d="M 82.277813 290.029312 
L 88.277813 290.029312 
L 94.277813 290.029312 
" style="fill: none; stroke: #1f77b4; stroke-width: 1.5; stroke-linecap: square"/>
    </g>
    <g id="text_13">
     <!-- Execution time between S1 S103 (xx1xx1xx1xx0yyy45xx0yyy45xx1xx0yyy66xx1xx1) -->
     <g transform="translate(99.077813 292.129312) scale(0.06 -0.06)">
      <defs>
       <path id="DejaVuSans-45" d="M 628 4666 
L 3578 4666 
L 3578 4134 
L 1259 4134 
L 1259 2753 
L 3481 2753 
L 3481 2222 
L 1259 2222 
L 1259 531 
L 3634 531 
L 3634 0 
L 628 0 
L 628 4666 
z
" transform="scale(0.015625)"/>
       <path id="DejaVuSans-78" d="M 3513 3500 
L 2247 1797 
L 3578 0 
L 2900 0 
L 1881 1375 
L 863 0 
L 184 0 
L 1544 1831 
L 300 3500 
L 978 3500 
L 1906 2253 
L 2834 3500 
L 3513 3500 
z
" transform="scale(0.015625)"/>
       <path id="DejaVuSans-65" d="M 3597 1894 
L 3597 1613 
L 953 1613 
Q 991 1019 1311 708 
Q 1631 397 2203 397 
Q 2534 397 2845 478 
Q 3156 559 3463 722 
L 3463 178 
Q 3153 47 2828 -22 
Q 2503 -91 2169 -91 
Q 1331 -91 842 396 
Q 353 884 353 1716 
Q 353 2575 817 3079 
Q 1281 3584 2069 3584 
Q 2775 3584 3186 3129 
Q 3597 2675 3597 1894 
z
M 3022 2063 
Q 3016 2534 2758 2815 
Q 2500 3097 2075 3097 
Q 1594 3097 1305 2825 
Q 1016 2553 972 2059 
L 3022 2063 
z
" transform="scale(0.015625)"/>
       <path id="DejaVuSans-63" d="M 3122 3366 
L 3122 2828 
Q 2878 2963 2633 3030 
Q 2388 3097 2138 3097 
Q 1578 3097 1268 2742 
Q 959 2388 959 1747 
Q 959 1106 1268 751 
Q 1578 397 2138 397 
Q 2388 397 2633 464 
Q 2878 531 3122 666 
L 3122 134 
Q 2881 22 2623 -34 
Q 2366 -91 2075 -91 
Q 1284 -91 818 406 
Q 353 903 353 1747 
Q 353 2603 823 3093 
Q 1294 3584 2113 3584 
Q 2378 3584 2631 3529 
Q 2884 3475 3122 3366 
z
" transform="scale(0.015625)"/>
       <path id="DejaVuSans-75" d="M 544 1381 
L 544 3500 
L 1119 3500 
L 1119 1403 
Q 1119 906 1312 657 
Q 1506 409 1894 409 
Q 2359 409 2629 706 
Q 2900 1003 2900 1516 
L 2900 3500 
L 3475 3500 
L 3475 0 
L 2900 0 
L 2900 538 
Q 2691 219 2414 64 
Q 2138 -91 1772 -91 
Q 1169 -91 856 284 
Q 544 659 544 1381 
z
M 1991 3584 
L 1991 3584 
z
" transform="scale(0.015625)"/>
       <path id="DejaVuSans-74" d="M 1172 4494 
L 1172 3500 
L 2356 3500 
L 2356 3053 
L 1172 3053 
L 1172 1153 
Q 1172 725 1289 603 
Q 1406 481 1766 481 
L 2356 481 
L 2356 0 
L 1766 0 
Q 1100 0 847 248 
Q 594 497 594 1153 
L 594 3053 
L 172 3053 
L 172 3500 
L 594 3500 
L 594 4494 
L 1172 4494 
z
" transform="scale(0.015625)"/>
       <path id="DejaVuSans-69" d="M 603 3500 
L 1178 3500 
L 1178 0 
L 603 0 
L 603 3500 
z
M 603 4863 
L 1178 4863 
L 1178 4134 
L 603 4134 
L 603 4863 
z
" transform="scale(0.015625)"/>
       <path id="DejaVuSans-6f" d="M 1959 3097 
Q 1497 3097 1228 2736 
Q 959 2375 959 1747 
Q 959 1119 1226 758 
Q 1494 397 1959 397 
Q 2419 397 2687 759 
Q 2956 1122 2956 1747 
Q 2956 2369 2687 2733 
Q 2419 3097 1959 3097 
z
M 1959 3584 
Q 2709 3584 3137 3096 
Q 3566 2609 3566 1747 
Q 3566 888 3137 398 
Q 2709 -91 1959 -91 
Q 1206 -91 779 398 
Q 353 888 353 1747 
Q 353 2609 779 3096 
Q 1206 3584 1959 3584 
z
" transform="scale(0.015625)"/>
       <path id="DejaVuSans-6e" d="M 3513 2113 
L 3513 0 
L 2938 0 
L 2938 2094 
Q 2938 2591 2744 2837 
Q 2550 3084 2163 3084 
Q 1697 3084 1428 2787 
Q 1159 2491 1159 1978 
L 1159 0 
L 581 0 
L 581 3500 
L 1159 3500 
L 1159 2956 
Q 1366 3272 1645 3428 
Q 1925 3584 2291 3584 
Q 2894 3584 3203 3211 
Q 3513 2838 3513 2113 
z
" transform="scale(0.015625)"/>
       <path id="DejaVuSans-6d" d="M 3328 2828 
Q 3544 3216 3844 3400 
Q 4144 3584 4550 3584 
Q 5097 3584 5394 3201 
Q 5691 2819 5691 2113 
L 5691 0 
L 5113 0 
L 5113 2094 
Q 5113 2597 4934 2840 
Q 4756 3084 4391 3084 
Q 3944 3084 3684 2787 
Q 3425 2491 3425 1978 
L 3425 0 
L 2847 0 
L 2847 2094 
Q 2847 2600 2669 2842 
Q 2491 3084 2119 3084 
Q 1678 3084 1418 2786 
Q 1159 2488 1159 1978 
L 1159 0 
L 581 0 
L 581 3500 
L 1159 3500 
L 1159 2956 
Q 1356 3278 1631 3431 
Q 1906 3584 2284 3584 
Q 2666 3584 2933 3390 
Q 3200 3197 3328 2828 
z
" transform="scale(0.015625)"/>
       <path id="DejaVuSans-62" d="M 3116 1747 
Q 3116 2381 2855 2742 
Q 2594 3103 2138 3103 
Q 1681 3103 1420 2742 
Q 1159 2381 1159 1747 
Q 1159 1113 1420 752 
Q 1681 391 2138 391 
Q 2594 391 2855 752 
Q 3116 1113 3116 1747 
z
M 1159 2969 
Q 1341 3281 1617 3432 
Q 1894 3584 2278 3584 
Q 2916 3584 3314 3078 
Q 3713 2572 3713 1747 
Q 3713 922 3314 415 
Q 2916 -91 2278 -91 
Q 1894 -91 1617 61 
Q 1341 213 1159 525 
L 1159 0 
L 581 0 
L 581 4863 
L 1159 4863 
L 1159 2969 
z
" transform="scale(0.015625)"/>
       <path id="DejaVuSans-77" d="M 269 3500 
L 844 3500 
L 1563 769 
L 2278 3500 
L 2956 3500 
L 3675 769 
L 4391 3500 
L 4966 3500 
L 4050 0 
L 3372 0 
L 2619 2869 
L 1863 0 
L 1184 0 
L 269 3500 
z
" transform="scale(0.015625)"/>
       <path id="DejaVuSans-28" d="M 1984 4856 
Q 1566 4138 1362 3434 
Q 1159 2731 1159 2009 
Q 1159 1288 1364 580 
Q 1569 -128 1984 -844 
L 1484 -844 
Q 1016 -109 783 600 
Q 550 1309 550 2009 
Q 550 2706 781 3412 
Q 1013 4119 1484 4856 
L 1984 4856 
z
" transform="scale(0.015625)"/>
       <path id="DejaVuSans-79" d="M 2059 -325 
Q 1816 -950 1584 -1140 
Q 1353 -1331 966 -1331 
L 506 -1331 
L 506 -850 
L 844 -850 
Q 1081 -850 1212 -737 
Q 1344 -625 1503 -206 
L 1606 56 
L 191 3500 
L 800 3500 
L 1894 763 
L 2988 3500 
L 3597 3500 
L 2059 -325 
z
" transform="scale(0.015625)"/>
       <path id="DejaVuSans-35" d="M 691 4666 
L 3169 4666 
L 3169 4134 
L 1269 4134 
L 1269 2991 
Q 1406 3038 1543 3061 
Q 1681 3084 1819 3084 
Q 2600 3084 3056 2656 
Q 3513 2228 3513 1497 
Q 3513 744 3044 326 
Q 2575 -91 1722 -91 
Q 1428 -91 1123 -41 
Q 819 9 494 109 
L 494 744 
Q 775 591 1075 516 
Q 1375 441 1709 441 
Q 2250 441 2565 725 
Q 2881 1009 2881 1497 
Q 2881 1984 2565 2268 
Q 2250 2553 1709 2553 
Q 1456 2553 1204 2497 
Q 953 2441 691 2322 
L 691 4666 
z
" transform="scale(0.015625)"/>
       <path id="DejaVuSans-29" d="M 513 4856 
L 1013 4856 
Q 1481 4119 1714 3412 
Q 1947 2706 1947 2009 
Q 1947 1309 1714 600 
Q 1481 -109 1013 -844 
L 513 -844 
Q 928 -128 1133 580 
Q 1338 1288 1338 2009 
Q 1338 2731 1133 3434 
Q 928 4138 513 4856 
z
" transform="scale(0.015625)"/>
      </defs>
      <use xlink:href="#DejaVuSans-45"/>
      <use xlink:href="#DejaVuSans-78" x="63.183594"/>
      <use xlink:href="#DejaVuSans-65" x="119.238281"/>
      <use xlink:href="#DejaVuSans-63" x="180.761719"/>
      <use xlink:href="#DejaVuSans-75" x="235.742188"/>
      <use xlink:href="#DejaVuSans-74" x="299.121094"/>
      <use xlink:href="#DejaVuSans-69" x="338.330078"/>
      <use xlink:href="#DejaVuSans-6f" x="366.113281"/>
      <use xlink:href="#DejaVuSans-6e" x="427.294922"/>
      <use xlink:href="#DejaVuSans-20" x="490.673828"/>
      <use xlink:href="#DejaVuSans-74" x="522.460938"/>
      <use xlink:href="#DejaVuSans-69" x="561.669922"/>
      <use xlink:href="#DejaVuSans-6d" x="589.453125"/>
      <use xlink:href="#DejaVuSans-65" x="686.865234"/>
      <use xlink:href="#DejaVuSans-20" x="748.388672"/>
      <use xlink:href="#DejaVuSans-62" x="780.175781"/>
      <use xlink:href="#DejaVuSans-65" x="843.652344"/>
      <use xlink:href="#DejaVuSans-74" x="905.175781"/>
      <use xlink:href="#DejaVuSans-77" x="944.384766"/>
      <use xlink:href="#DejaVuSans-65" x="1026.171875"/>
      <use xlink:href="#DejaVuSans-65" x="1087.695312"/>
      <use xlink:href="#DejaVuSans-6e" x="1149.21875"/>
      <use xlink:href="#DejaVuSans-20" x="1212.597656"/>
      <use xlink:href="#DejaVuSans-53" x="1244.384766"/>
      <use xlink:href="#DejaVuSans-31" x="1307.861328"/>
      <use xlink:href="#DejaVuSans-20" x="1371.484375"/>
      <use xlink:href="#DejaVuSans-53" x="1403.271484"/>
      <use xlink:href="#DejaVuSans-31" x="1466.748047"/>
      <use xlink:href="#DejaVuSans-30" x="1530.371094"/>
      <use xlink:href="#DejaVuSans-33" x="1593.994141"/>
      <use xlink:href="#DejaVuSans-20" x="1657.617188"/>
      <use xlink:href="#DejaVuSans-28" x="1689.404297"/>
      <use xlink:href="#DejaVuSans-78" x="1728.417969"/>
      <use xlink:href="#DejaVuSans-78" x="1787.597656"/>
      <use xlink:href="#DejaVuSans-31" x="1846.777344"/>
      <use xlink:href="#DejaVuSans-78" x="1910.400391"/>
      <use xlink:href="#DejaVuSans-78" x="1969.580078"/>
      <use xlink:href="#DejaVuSans-31" x="2028.759766"/>
      <use xlink:href="#DejaVuSans-78" x="2092.382812"/>
      <use xlink:href="#DejaVuSans-78" x="2151.5625"/>
      <use xlink:href="#DejaVuSans-31" x="2210.742188"/>
      <use xlink:href="#DejaVuSans-78" x="2274.365234"/>
      <use xlink:href="#DejaVuSans-78" x="2333.544922"/>
      <use xlink:href="#DejaVuSans-30" x="2392.724609"/>
      <use xlink:href="#DejaVuSans-79" x="2456.347656"/>
      <use xlink:href="#DejaVuSans-79" x="2515.527344"/>
      <use xlink:href="#DejaVuSans-79" x="2574.707031"/>
      <use xlink:href="#DejaVuSans-34" x="2633.886719"/>
      <use xlink:href="#DejaVuSans-35" x="2697.509766"/>
      <use xlink:href="#DejaVuSans-78" x="2761.132812"/>
      <use xlink:href="#DejaVuSans-78" x="2820.3125"/>
      <use xlink:href="#DejaVuSans-30" x="2879.492188"/>
      <use xlink:href="#DejaVuSans-79" x="2943.115234"/>
      <use xlink:href="#DejaVuSans-79" x="3002.294922"/>
      <use xlink:href="#DejaVuSans-79" x="3061.474609"/>
      <use xlink:href="#DejaVuSans-34" x="3120.654297"/>
      <use xlink:href="#DejaVuSans-35" x="3184.277344"/>
      <use xlink:href="#DejaVuSans-78" x="3247.900391"/>
      <use xlink:href="#DejaVuSans-78" x="3307.080078"/>
      <use xlink:href="#DejaVuSans-31" x="3366.259766"/>
      <use xlink:href="#DejaVuSans-78" x="3429.882812"/>
      <use xlink:href="#DejaVuSans-78" x="3489.0625"/>
      <use xlink:href="#DejaVuSans-30" x="3548.242188"/>
      <use xlink:href="#DejaVuSans-79" x="3611.865234"/>
      <use xlink:href="#DejaVuSans-79" x="3671.044922"/>
      <use xlink:href="#DejaVuSans-79" x="3730.224609"/>
      <use xlink:href="#DejaVuSans-36" x="3789.404297"/>
      <use xlink:href="#DejaVuSans-36" x="3853.027344"/>
      <use xlink:href="#DejaVuSans-78" x="3916.650391"/>
      <use xlink:href="#DejaVuSans-78" x="3975.830078"/>
      <use xlink:href="#DejaVuSans-31" x="4035.009766"/>
      <use xlink:href="#DejaVuSans-78" x="4098.632812"/>
      <use xlink:href="#DejaVuSans-78" x="4157.8125"/>
      <use xlink:href="#DejaVuSans-31" x="4216.992188"/>
      <use xlink:href="#DejaVuSans-29" x="4280.615234"/>
     </g>
    </g>
    <g id="line2d_15">
     <path d="M 82.277813 298.836187 
L 88.277813 298.836187 
L 94.277813 298.836187 
" style="fill: none; stroke: #ff7f0e; stroke-width: 1.5; stroke-linecap: square"/>
    </g>
    <g id="text_14">
     <!-- Execution time between S1 S103 (xx1xx2xx0yyy45xx0yyy45xx0yyy3xx1xx0yyy45xx0yyy45xx0yyy45) -->
     <g transform="translate(99.077813 300.936187) scale(0.06 -0.06)">
      <use xlink:href="#DejaVuSans-45"/>
      <use xlink:href="#DejaVuSans-78" x="63.183594"/>
      <use xlink:href="#DejaVuSans-65" x="119.238281"/>
      <use xlink:href="#DejaVuSans-63" x="180.761719"/>
      <use xlink:href="#DejaVuSans-75" x="235.742188"/>
      <use xlink:href="#DejaVuSans-74" x="299.121094"/>
      <use xlink:href="#DejaVuSans-69" x="338.330078"/>
      <use xlink:href="#DejaVuSans-6f" x="366.113281"/>
      <use xlink:href="#DejaVuSans-6e" x="427.294922"/>
      <use xlink:href="#DejaVuSans-20" x="490.673828"/>
      <use xlink:href="#DejaVuSans-74" x="522.460938"/>
      <use xlink:href="#DejaVuSans-69" x="561.669922"/>
      <use xlink:href="#DejaVuSans-6d" x="589.453125"/>
      <use xlink:href="#DejaVuSans-65" x="686.865234"/>
      <use xlink:href="#DejaVuSans-20" x="748.388672"/>
      <use xlink:href="#DejaVuSans-62" x="780.175781"/>
      <use xlink:href="#DejaVuSans-65" x="843.652344"/>
      <use xlink:href="#DejaVuSans-74" x="905.175781"/>
      <use xlink:href="#DejaVuSans-77" x="944.384766"/>
      <use xlink:href="#DejaVuSans-65" x="1026.171875"/>
      <use xlink:href="#DejaVuSans-65" x="1087.695312"/>
      <use xlink:href="#DejaVuSans-6e" x="1149.21875"/>
      <use xlink:href="#DejaVuSans-20" x="1212.597656"/>
      <use xlink:href="#DejaVuSans-53" x="1244.384766"/>
      <use xlink:href="#DejaVuSans-31" x="1307.861328"/>
      <use xlink:href="#DejaVuSans-20" x="1371.484375"/>
      <use xlink:href="#DejaVuSans-53" x="1403.271484"/>
      <use xlink:href="#DejaVuSans-31" x="1466.748047"/>
      <use xlink:href="#DejaVuSans-30" x="1530.371094"/>
      <use xlink:href="#DejaVuSans-33" x="1593.994141"/>
      <use xlink:href="#DejaVuSans-20" x="1657.617188"/>
      <use xlink:href="#DejaVuSans-28" x="1689.404297"/>
      <use xlink:href="#DejaVuSans-78" x="1728.417969"/>
      <use xlink:href="#DejaVuSans-78" x="1787.597656"/>
      <use xlink:href="#DejaVuSans-31" x="1846.777344"/>
      <use xlink:href="#DejaVuSans-78" x="1910.400391"/>
      <use xlink:href="#DejaVuSans-78" x="1969.580078"/>
      <use xlink:href="#DejaVuSans-32" x="2028.759766"/>
      <use xlink:href="#DejaVuSans-78" x="2092.382812"/>
      <use xlink:href="#DejaVuSans-78" x="2151.5625"/>
      <use xlink:href="#DejaVuSans-30" x="2210.742188"/>
      <use xlink:href="#DejaVuSans-79" x="2274.365234"/>
      <use xlink:href="#DejaVuSans-79" x="2333.544922"/>
      <use xlink:href="#DejaVuSans-79" x="2392.724609"/>
      <use xlink:href="#DejaVuSans-34" x="2451.904297"/>
      <use xlink:href="#DejaVuSans-35" x="2515.527344"/>
      <use xlink:href="#DejaVuSans-78" x="2579.150391"/>
      <use xlink:href="#DejaVuSans-78" x="2638.330078"/>
      <use xlink:href="#DejaVuSans-30" x="2697.509766"/>
      <use xlink:href="#DejaVuSans-79" x="2761.132812"/>
      <use xlink:href="#DejaVuSans-79" x="2820.3125"/>
      <use xlink:href="#DejaVuSans-79" x="2879.492188"/>
      <use xlink:href="#DejaVuSans-34" x="2938.671875"/>
      <use xlink:href="#DejaVuSans-35" x="3002.294922"/>
      <use xlink:href="#DejaVuSans-78" x="3065.917969"/>
      <use xlink:href="#DejaVuSans-78" x="3125.097656"/>
      <use xlink:href="#DejaVuSans-30" x="3184.277344"/>
      <use xlink:href="#DejaVuSans-79" x="3247.900391"/>
      <use xlink:href="#DejaVuSans-79" x="3307.080078"/>
      <use xlink:href="#DejaVuSans-79" x="3366.259766"/>
      <use xlink:href="#DejaVuSans-33" x="3425.439453"/>
      <use xlink:href="#DejaVuSans-78" x="3489.0625"/>
      <use xlink:href="#DejaVuSans-78" x="3548.242188"/>
      <use xlink:href="#DejaVuSans-31" x="3607.421875"/>
      <use xlink:href="#DejaVuSans-78" x="3671.044922"/>
      <use xlink:href="#DejaVuSans-78" x="3730.224609"/>
      <use xlink:href="#DejaVuSans-30" x="3789.404297"/>
      <use xlink:href="#DejaVuSans-79" x="3853.027344"/>
      <use xlink:href="#DejaVuSans-79" x="3912.207031"/>
      <use xlink:href="#DejaVuSans-79" x="3971.386719"/>
      <use xlink:href="#DejaVuSans-34" x="4030.566406"/>
      <use xlink:href="#DejaVuSans-35" x="4094.189453"/>
      <use xlink:href="#DejaVuSans-78" x="4157.8125"/>
      <use xlink:href="#DejaVuSans-78" x="4216.992188"/>
      <use xlink:href="#DejaVuSans-30" x="4276.171875"/>
      <use xlink:href="#DejaVuSans-79" x="4339.794922"/>
      <use xlink:href="#DejaVuSans-79" x="4398.974609"/>
      <use xlink:href="#DejaVuSans-79" x="4458.154297"/>
      <use xlink:href="#DejaVuSans-34" x="4517.333984"/>
      <use xlink:href="#DejaVuSans-35" x="4580.957031"/>
      <use xlink:href="#DejaVuSans-78" x="4644.580078"/>
      <use xlink:href="#DejaVuSans-78" x="4703.759766"/>
      <use xlink:href="#DejaVuSans-30" x="4762.939453"/>
      <use xlink:href="#DejaVuSans-79" x="4826.5625"/>
      <use xlink:href="#DejaVuSans-79" x="4885.742188"/>
      <use xlink:href="#DejaVuSans-79" x="4944.921875"/>
      <use xlink:href="#DejaVuSans-34" x="5004.101562"/>
      <use xlink:href="#DejaVuSans-35" x="5067.724609"/>
      <use xlink:href="#DejaVuSans-29" x="5131.347656"/>
     </g>
    </g>
   </g>
  </g>
 </g>
 <defs>
  <clipPath id="p990ca678f1">
   <rect x="57.6" y="41.472" width="357.12" height="266.112"/>
  </clipPath>
 </defs>
</svg>
