<?xml version="1.0" encoding="utf-8" standalone="no"?>
<!DOCTYPE svg PUBLIC "-//W3C//DTD SVG 1.1//EN"
  "http://www.w3.org/Graphics/SVG/1.1/DTD/svg11.dtd">
<svg xmlns:xlink="http://www.w3.org/1999/xlink" width="460.8pt" height="345.6pt" viewBox="0 0 460.8 345.6" xmlns="http://www.w3.org/2000/svg" version="1.1">
 <metadata>
  <rdf:RDF xmlns:dc="http://purl.org/dc/elements/1.1/" xmlns:cc="http://creativecommons.org/ns#" xmlns:rdf="http://www.w3.org/1999/02/22-rdf-syntax-ns#">
   <cc:Work>
    <dc:type rdf:resource="http://purl.org/dc/dcmitype/StillImage"/>
    <dc:date>2024-03-08T12:57:31.802769</dc:date>
    <dc:format>image/svg+xml</dc:format>
    <dc:creator>
     <cc:Agent>
      <dc:title>Matplotlib v3.8.2, https://matplotlib.org/</dc:title>
     </cc:Agent>
    </dc:creator>
   </cc:Work>
  </rdf:RDF>
 </metadata>
 <defs>
  <style type="text/css">*{stroke-linejoin: round; stroke-linecap: butt}</style>
 </defs>
 <g id="figure_1">
  <g id="patch_1">
   <path d="M 0 345.6 
L 460.8 345.6 
L 460.8 0 
L 0 0 
z
" style="fill: #ffffff"/>
  </g>
  <g id="axes_1">
   <g id="patch_2">
    <path d="M 57.6 307.584 
L 414.72 307.584 
L 414.72 41.472 
L 57.6 41.472 
z
" style="fill: #ffffff"/>
   </g>
   <g id="matplotlib.axis_1">
    <g id="xtick_1">
     <g id="line2d_1">
      <defs>
       <path id="m84e0f94648" d="M 0 0 
L 0 3.5 
" style="stroke: #000000; stroke-width: 0.8"/>
      </defs>
      <g>
       <use xlink:href="#m84e0f94648" x="73.832727" y="307.584" style="stroke: #000000; stroke-width: 0.8"/>
      </g>
     </g>
     <g id="text_1">
      <!-- 0 -->
      <g transform="translate(70.651477 322.182437) scale(0.1 -0.1)">
       <defs>
        <path id="DejaVuSans-30" d="M 2034 4250 
Q 1547 4250 1301 3770 
Q 1056 3291 1056 2328 
Q 1056 1369 1301 889 
Q 1547 409 2034 409 
Q 2525 409 2770 889 
Q 3016 1369 3016 2328 
Q 3016 3291 2770 3770 
Q 2525 4250 2034 4250 
z
M 2034 4750 
Q 2819 4750 3233 4129 
Q 3647 3509 3647 2328 
Q 3647 1150 3233 529 
Q 2819 -91 2034 -91 
Q 1250 -91 836 529 
Q 422 1150 422 2328 
Q 422 3509 836 4129 
Q 1250 4750 2034 4750 
z
" transform="scale(0.015625)"/>
       </defs>
       <use xlink:href="#DejaVuSans-30"/>
      </g>
     </g>
    </g>
    <g id="xtick_2">
     <g id="line2d_2">
      <g>
       <use xlink:href="#m84e0f94648" x="124.508532" y="307.584" style="stroke: #000000; stroke-width: 0.8"/>
      </g>
     </g>
     <g id="text_2">
      <!-- 20000 -->
      <g transform="translate(108.602282 322.182437) scale(0.1 -0.1)">
       <defs>
        <path id="DejaVuSans-32" d="M 1228 531 
L 3431 531 
L 3431 0 
L 469 0 
L 469 531 
Q 828 903 1448 1529 
Q 2069 2156 2228 2338 
Q 2531 2678 2651 2914 
Q 2772 3150 2772 3378 
Q 2772 3750 2511 3984 
Q 2250 4219 1831 4219 
Q 1534 4219 1204 4116 
Q 875 4013 500 3803 
L 500 4441 
Q 881 4594 1212 4672 
Q 1544 4750 1819 4750 
Q 2544 4750 2975 4387 
Q 3406 4025 3406 3419 
Q 3406 3131 3298 2873 
Q 3191 2616 2906 2266 
Q 2828 2175 2409 1742 
Q 1991 1309 1228 531 
z
" transform="scale(0.015625)"/>
       </defs>
       <use xlink:href="#DejaVuSans-32"/>
       <use xlink:href="#DejaVuSans-30" x="63.623047"/>
       <use xlink:href="#DejaVuSans-30" x="127.246094"/>
       <use xlink:href="#DejaVuSans-30" x="190.869141"/>
       <use xlink:href="#DejaVuSans-30" x="254.492188"/>
      </g>
     </g>
    </g>
    <g id="xtick_3">
     <g id="line2d_3">
      <g>
       <use xlink:href="#m84e0f94648" x="175.184337" y="307.584" style="stroke: #000000; stroke-width: 0.8"/>
      </g>
     </g>
     <g id="text_3">
      <!-- 40000 -->
      <g transform="translate(159.278087 322.182437) scale(0.1 -0.1)">
       <defs>
        <path id="DejaVuSans-34" d="M 2419 4116 
L 825 1625 
L 2419 1625 
L 2419 4116 
z
M 2253 4666 
L 3047 4666 
L 3047 1625 
L 3713 1625 
L 3713 1100 
L 3047 1100 
L 3047 0 
L 2419 0 
L 2419 1100 
L 313 1100 
L 313 1709 
L 2253 4666 
z
" transform="scale(0.015625)"/>
       </defs>
       <use xlink:href="#DejaVuSans-34"/>
       <use xlink:href="#DejaVuSans-30" x="63.623047"/>
       <use xlink:href="#DejaVuSans-30" x="127.246094"/>
       <use xlink:href="#DejaVuSans-30" x="190.869141"/>
       <use xlink:href="#DejaVuSans-30" x="254.492188"/>
      </g>
     </g>
    </g>
    <g id="xtick_4">
     <g id="line2d_4">
      <g>
       <use xlink:href="#m84e0f94648" x="225.860143" y="307.584" style="stroke: #000000; stroke-width: 0.8"/>
      </g>
     </g>
     <g id="text_4">
      <!-- 60000 -->
      <g transform="translate(209.953893 322.182437) scale(0.1 -0.1)">
       <defs>
        <path id="DejaVuSans-36" d="M 2113 2584 
Q 1688 2584 1439 2293 
Q 1191 2003 1191 1497 
Q 1191 994 1439 701 
Q 1688 409 2113 409 
Q 2538 409 2786 701 
Q 3034 994 3034 1497 
Q 3034 2003 2786 2293 
Q 2538 2584 2113 2584 
z
M 3366 4563 
L 3366 3988 
Q 3128 4100 2886 4159 
Q 2644 4219 2406 4219 
Q 1781 4219 1451 3797 
Q 1122 3375 1075 2522 
Q 1259 2794 1537 2939 
Q 1816 3084 2150 3084 
Q 2853 3084 3261 2657 
Q 3669 2231 3669 1497 
Q 3669 778 3244 343 
Q 2819 -91 2113 -91 
Q 1303 -91 875 529 
Q 447 1150 447 2328 
Q 447 3434 972 4092 
Q 1497 4750 2381 4750 
Q 2619 4750 2861 4703 
Q 3103 4656 3366 4563 
z
" transform="scale(0.015625)"/>
       </defs>
       <use xlink:href="#DejaVuSans-36"/>
       <use xlink:href="#DejaVuSans-30" x="63.623047"/>
       <use xlink:href="#DejaVuSans-30" x="127.246094"/>
       <use xlink:href="#DejaVuSans-30" x="190.869141"/>
       <use xlink:href="#DejaVuSans-30" x="254.492188"/>
      </g>
     </g>
    </g>
    <g id="xtick_5">
     <g id="line2d_5">
      <g>
       <use xlink:href="#m84e0f94648" x="276.535948" y="307.584" style="stroke: #000000; stroke-width: 0.8"/>
      </g>
     </g>
     <g id="text_5">
      <!-- 80000 -->
      <g transform="translate(260.629698 322.182437) scale(0.1 -0.1)">
       <defs>
        <path id="DejaVuSans-38" d="M 2034 2216 
Q 1584 2216 1326 1975 
Q 1069 1734 1069 1313 
Q 1069 891 1326 650 
Q 1584 409 2034 409 
Q 2484 409 2743 651 
Q 3003 894 3003 1313 
Q 3003 1734 2745 1975 
Q 2488 2216 2034 2216 
z
M 1403 2484 
Q 997 2584 770 2862 
Q 544 3141 544 3541 
Q 544 4100 942 4425 
Q 1341 4750 2034 4750 
Q 2731 4750 3128 4425 
Q 3525 4100 3525 3541 
Q 3525 3141 3298 2862 
Q 3072 2584 2669 2484 
Q 3125 2378 3379 2068 
Q 3634 1759 3634 1313 
Q 3634 634 3220 271 
Q 2806 -91 2034 -91 
Q 1263 -91 848 271 
Q 434 634 434 1313 
Q 434 1759 690 2068 
Q 947 2378 1403 2484 
z
M 1172 3481 
Q 1172 3119 1398 2916 
Q 1625 2713 2034 2713 
Q 2441 2713 2670 2916 
Q 2900 3119 2900 3481 
Q 2900 3844 2670 4047 
Q 2441 4250 2034 4250 
Q 1625 4250 1398 4047 
Q 1172 3844 1172 3481 
z
" transform="scale(0.015625)"/>
       </defs>
       <use xlink:href="#DejaVuSans-38"/>
       <use xlink:href="#DejaVuSans-30" x="63.623047"/>
       <use xlink:href="#DejaVuSans-30" x="127.246094"/>
       <use xlink:href="#DejaVuSans-30" x="190.869141"/>
       <use xlink:href="#DejaVuSans-30" x="254.492188"/>
      </g>
     </g>
    </g>
    <g id="xtick_6">
     <g id="line2d_6">
      <g>
       <use xlink:href="#m84e0f94648" x="327.211753" y="307.584" style="stroke: #000000; stroke-width: 0.8"/>
      </g>
     </g>
     <g id="text_6">
      <!-- 100000 -->
      <g transform="translate(308.124253 322.182437) scale(0.1 -0.1)">
       <defs>
        <path id="DejaVuSans-31" d="M 794 531 
L 1825 531 
L 1825 4091 
L 703 3866 
L 703 4441 
L 1819 4666 
L 2450 4666 
L 2450 531 
L 3481 531 
L 3481 0 
L 794 0 
L 794 531 
z
" transform="scale(0.015625)"/>
       </defs>
       <use xlink:href="#DejaVuSans-31"/>
       <use xlink:href="#DejaVuSans-30" x="63.623047"/>
       <use xlink:href="#DejaVuSans-30" x="127.246094"/>
       <use xlink:href="#DejaVuSans-30" x="190.869141"/>
       <use xlink:href="#DejaVuSans-30" x="254.492188"/>
       <use xlink:href="#DejaVuSans-30" x="318.115234"/>
      </g>
     </g>
    </g>
    <g id="xtick_7">
     <g id="line2d_7">
      <g>
       <use xlink:href="#m84e0f94648" x="377.887558" y="307.584" style="stroke: #000000; stroke-width: 0.8"/>
      </g>
     </g>
     <g id="text_7">
      <!-- 120000 -->
      <g transform="translate(358.800058 322.182437) scale(0.1 -0.1)">
       <use xlink:href="#DejaVuSans-31"/>
       <use xlink:href="#DejaVuSans-32" x="63.623047"/>
       <use xlink:href="#DejaVuSans-30" x="127.246094"/>
       <use xlink:href="#DejaVuSans-30" x="190.869141"/>
       <use xlink:href="#DejaVuSans-30" x="254.492188"/>
       <use xlink:href="#DejaVuSans-30" x="318.115234"/>
      </g>
     </g>
    </g>
   </g>
   <g id="matplotlib.axis_2">
    <g id="ytick_1">
     <g id="line2d_8">
      <defs>
       <path id="m445b7a4add" d="M 0 0 
L -3.5 0 
" style="stroke: #000000; stroke-width: 0.8"/>
      </defs>
      <g>
       <use xlink:href="#m445b7a4add" x="57.6" y="295.488" style="stroke: #000000; stroke-width: 0.8"/>
      </g>
     </g>
     <g id="text_8">
      <!-- 0.0 -->
      <g transform="translate(34.696875 299.287219) scale(0.1 -0.1)">
       <defs>
        <path id="DejaVuSans-2e" d="M 684 794 
L 1344 794 
L 1344 0 
L 684 0 
L 684 794 
z
" transform="scale(0.015625)"/>
       </defs>
       <use xlink:href="#DejaVuSans-30"/>
       <use xlink:href="#DejaVuSans-2e" x="63.623047"/>
       <use xlink:href="#DejaVuSans-30" x="95.410156"/>
      </g>
     </g>
    </g>
    <g id="ytick_2">
     <g id="line2d_9">
      <g>
       <use xlink:href="#m445b7a4add" x="57.6" y="247.104" style="stroke: #000000; stroke-width: 0.8"/>
      </g>
     </g>
     <g id="text_9">
      <!-- 0.2 -->
      <g transform="translate(34.696875 250.903219) scale(0.1 -0.1)">
       <use xlink:href="#DejaVuSans-30"/>
       <use xlink:href="#DejaVuSans-2e" x="63.623047"/>
       <use xlink:href="#DejaVuSans-32" x="95.410156"/>
      </g>
     </g>
    </g>
    <g id="ytick_3">
     <g id="line2d_10">
      <g>
       <use xlink:href="#m445b7a4add" x="57.6" y="198.72" style="stroke: #000000; stroke-width: 0.8"/>
      </g>
     </g>
     <g id="text_10">
      <!-- 0.4 -->
      <g transform="translate(34.696875 202.519219) scale(0.1 -0.1)">
       <use xlink:href="#DejaVuSans-30"/>
       <use xlink:href="#DejaVuSans-2e" x="63.623047"/>
       <use xlink:href="#DejaVuSans-34" x="95.410156"/>
      </g>
     </g>
    </g>
    <g id="ytick_4">
     <g id="line2d_11">
      <g>
       <use xlink:href="#m445b7a4add" x="57.6" y="150.336" style="stroke: #000000; stroke-width: 0.8"/>
      </g>
     </g>
     <g id="text_11">
      <!-- 0.6 -->
      <g transform="translate(34.696875 154.135219) scale(0.1 -0.1)">
       <use xlink:href="#DejaVuSans-30"/>
       <use xlink:href="#DejaVuSans-2e" x="63.623047"/>
       <use xlink:href="#DejaVuSans-36" x="95.410156"/>
      </g>
     </g>
    </g>
    <g id="ytick_5">
     <g id="line2d_12">
      <g>
       <use xlink:href="#m445b7a4add" x="57.6" y="101.952" style="stroke: #000000; stroke-width: 0.8"/>
      </g>
     </g>
     <g id="text_12">
      <!-- 0.8 -->
      <g transform="translate(34.696875 105.751219) scale(0.1 -0.1)">
       <use xlink:href="#DejaVuSans-30"/>
       <use xlink:href="#DejaVuSans-2e" x="63.623047"/>
       <use xlink:href="#DejaVuSans-38" x="95.410156"/>
      </g>
     </g>
    </g>
    <g id="ytick_6">
     <g id="line2d_13">
      <g>
       <use xlink:href="#m445b7a4add" x="57.6" y="53.568" style="stroke: #000000; stroke-width: 0.8"/>
      </g>
     </g>
     <g id="text_13">
      <!-- 1.0 -->
      <g transform="translate(34.696875 57.367219) scale(0.1 -0.1)">
       <use xlink:href="#DejaVuSans-31"/>
       <use xlink:href="#DejaVuSans-2e" x="63.623047"/>
       <use xlink:href="#DejaVuSans-30" x="95.410156"/>
      </g>
     </g>
    </g>
   </g>
   <g id="line2d_14">
    <path d="M 73.832727 295.488 
L 73.883403 295.488 
L 73.984755 294.109538 
L 74.111444 294.109538 
L 74.212796 284.230564 
L 74.212796 284.230564 
L 74.238134 284.230564 
L 74.339485 272.973128 
L 74.339485 272.973128 
L 74.364823 272.973128 
L 74.466175 270.216205 
L 74.466175 270.216205 
L 74.491513 270.216205 
L 74.592864 254.823385 
L 74.592864 254.823385 
L 74.618202 254.823385 
L 74.719554 245.633641 
L 74.719554 245.633641 
L 74.744892 245.633641 
L 74.846243 235.98441 
L 74.846243 235.98441 
L 74.871581 235.98441 
L 74.972933 224.037744 
L 74.972933 224.037744 
L 74.998271 224.037744 
L 75.099622 211.861333 
L 75.099622 211.861333 
L 75.12496 211.861333 
L 75.226312 202.901333 
L 75.25165 202.901333 
L 75.353001 193.941333 
L 75.353001 193.941333 
L 75.378339 193.941333 
L 75.479691 176.710564 
L 75.479691 176.710564 
L 75.505029 176.710564 
L 75.60638 172.804923 
L 75.60638 172.804923 
L 75.657056 172.804923 
L 75.758408 172.115692 
L 75.809084 172.115692 
L 75.910435 170.966974 
L 75.935773 170.966974 
L 76.037125 168.899282 
L 76.037125 168.899282 
L 76.062463 168.899282 
L 76.163814 167.520821 
L 76.21449 167.520821 
L 76.315842 164.763897 
L 76.315842 164.763897 
L 76.34118 164.763897 
L 76.442531 162.006974 
L 76.442531 162.006974 
L 76.467869 162.006974 
L 76.569221 158.790564 
L 76.569221 158.790564 
L 76.594559 158.790564 
L 76.670572 156.952615 
L 76.721248 156.952615 
L 76.8226 154.425436 
L 76.8226 154.425436 
L 76.847938 154.425436 
L 76.949289 152.128 
L 76.974627 152.128 
L 77.025303 150.979282 
L 77.101317 150.979282 
L 77.202668 148.681846 
L 77.228006 148.681846 
L 77.329358 146.614154 
L 77.329358 146.614154 
L 77.354696 146.614154 
L 77.456047 145.695179 
L 77.481385 145.695179 
L 77.582737 145.005949 
L 77.608075 145.005949 
L 77.709426 143.397744 
L 77.78544 143.397744 
L 77.78544 143.168 
L 78.190847 143.168 
L 78.190847 142.938256 
L 78.418888 142.938256 
L 78.418888 142.708513 
L 78.672267 142.708513 
L 78.722942 142.249026 
L 78.900308 142.249026 
L 79.001659 141.789538 
L 79.052335 141.789538 
L 79.153687 140.640821 
L 79.255038 140.640821 
L 79.35639 139.262359 
L 79.381728 139.262359 
L 79.48308 138.343385 
L 79.508417 138.343385 
L 79.559093 137.654154 
L 79.559093 137.654154 
L 79.635107 137.654154 
L 79.711121 136.505436 
L 79.711121 136.505436 
L 79.787134 136.505436 
L 79.888486 135.586462 
L 79.913824 135.586462 
L 80.015175 134.667487 
L 80.040513 134.667487 
L 80.040513 134.437744 
L 80.243217 134.437744 
L 80.344568 133.748513 
L 80.420582 133.748513 
L 80.521934 133.059282 
L 80.92734 133.059282 
L 80.952678 132.599795 
L 81.05403 132.599795 
L 81.05403 132.370051 
L 81.180719 132.370051 
L 81.206057 131.910564 
L 81.712815 131.910564 
L 81.712815 131.680821 
L 81.839504 131.680821 
L 81.89018 131.221333 
L 81.966194 131.221333 
L 82.067546 130.761846 
L 82.092884 130.761846 
L 82.118221 130.302359 
L 82.346263 130.302359 
L 82.422276 129.383385 
L 82.422276 129.383385 
L 82.49829 129.383385 
L 82.49829 129.153641 
L 82.929034 129.153641 
L 82.97971 128.694154 
L 83.055724 128.694154 
L 83.157075 128.004923 
L 83.233089 128.004923 
L 83.334441 127.315692 
L 83.410454 127.315692 
L 83.511806 126.166974 
L 83.562482 126.166974 
L 83.58782 125.707487 
L 83.815861 125.707487 
L 83.815861 125.248 
L 83.815861 125.248 
L 83.993226 125.248 
L 84.06924 124.099282 
L 84.170592 124.099282 
L 84.246605 122.950564 
L 84.297281 122.950564 
L 84.398633 121.342359 
L 84.398633 121.342359 
L 84.449308 121.342359 
L 84.55066 119.50441 
L 84.601336 119.50441 
L 84.702687 118.585436 
L 84.753363 118.585436 
L 84.854715 116.288 
L 84.854715 116.288 
L 84.880053 116.288 
L 84.981404 114.450051 
L 84.981404 114.450051 
L 85.006742 114.450051 
L 85.108094 112.612103 
L 85.133432 112.612103 
L 85.234783 109.165949 
L 85.234783 109.165949 
L 85.260121 109.165949 
L 85.361473 106.638769 
L 85.361473 106.638769 
L 85.386811 106.638769 
L 85.488162 102.733128 
L 85.488162 102.733128 
L 85.5135 102.733128 
L 85.614852 98.597744 
L 85.64019 98.597744 
L 85.741541 96.300308 
L 85.766879 96.300308 
L 85.868231 94.232615 
L 85.893569 94.232615 
L 85.99492 91.935179 
L 85.99492 91.935179 
L 86.020258 91.935179 
L 86.12161 90.556718 
L 86.146948 90.556718 
L 86.222962 88.948513 
L 86.222962 88.948513 
L 86.273637 88.948513 
L 86.374989 87.340308 
L 86.400327 87.340308 
L 86.476341 86.19159 
L 86.527016 86.19159 
L 86.552354 85.732103 
L 86.805733 85.732103 
L 86.881747 85.272615 
L 87.540533 85.272615 
L 87.540533 85.042872 
L 87.717898 85.042872 
L 87.819249 84.583385 
L 87.945939 84.583385 
L 88.021953 84.123897 
L 88.097966 84.123897 
L 88.199318 83.434667 
L 88.199318 83.434667 
L 88.224656 83.434667 
L 88.326008 82.745436 
L 88.326008 82.745436 
L 88.351345 82.745436 
L 88.427359 81.366974 
L 88.427359 81.366974 
L 88.503373 81.366974 
L 88.503373 81.137231 
L 88.630062 81.137231 
L 88.706076 79.988513 
L 88.706076 79.988513 
L 88.756752 79.988513 
L 88.78209 79.529026 
L 88.883441 79.529026 
L 88.959455 78.839795 
L 89.060807 78.839795 
L 89.111483 78.150564 
L 89.187496 78.150564 
L 89.288848 76.772103 
L 89.314186 76.772103 
L 89.364862 75.393641 
L 89.364862 75.393641 
L 89.440875 75.393641 
L 89.542227 73.325949 
L 89.542227 73.325949 
L 89.567565 73.325949 
L 89.618241 72.177231 
L 89.618241 72.177231 
L 89.719592 72.177231 
L 89.820944 70.339282 
L 89.846282 70.339282 
L 89.947633 68.041846 
L 89.998309 68.041846 
L 90.048985 67.582359 
L 90.150337 67.582359 
L 90.251688 65.974154 
L 90.251688 65.974154 
L 90.302364 65.974154 
L 90.302364 65.514667 
L 90.302364 65.514667 
L 90.429053 65.514667 
L 90.505067 64.136205 
L 90.581081 64.136205 
L 90.631757 63.676718 
L 90.83446 63.676718 
L 90.935811 63.217231 
L 91.037163 63.217231 
L 91.113177 62.528 
L 91.189191 62.528 
L 91.189191 62.298256 
L 91.31588 62.298256 
L 91.31588 62.068513 
L 93.266899 62.068513 
L 93.266899 61.838769 
L 93.925684 61.838769 
L 93.925684 61.609026 
L 94.45778 61.609026 
L 94.533794 60.919795 
L 94.736497 60.919795 
L 94.736497 60.460308 
L 94.736497 60.460308 
L 95.015214 60.460308 
L 95.116565 59.541333 
L 95.116565 59.541333 
L 95.167241 59.541333 
L 95.167241 59.31159 
L 95.471296 59.31159 
L 95.572648 58.852103 
L 95.597986 58.852103 
L 95.699337 58.162872 
L 95.750013 58.162872 
L 95.750013 57.933128 
L 95.952716 57.933128 
L 96.054068 57.243897 
L 96.054068 57.243897 
L 96.104744 57.243897 
L 96.155419 56.78441 
L 96.256771 56.78441 
L 96.256771 56.554667 
L 96.535488 56.554667 
L 96.535488 56.324923 
L 96.662177 56.324923 
L 96.662177 56.095179 
L 97.549004 56.095179 
L 97.549004 55.865436 
L 99.753402 55.865436 
L 99.753402 55.635692 
L 100.13347 55.635692 
L 100.13347 55.405949 
L 100.893607 55.405949 
L 100.893607 55.176205 
L 101.425703 55.176205 
L 101.425703 54.946462 
L 102.31253 54.946462 
L 102.31253 54.716718 
L 105.226389 54.716718 
L 105.226389 54.486974 
L 107.228083 54.486974 
L 107.228083 54.257231 
L 107.785517 54.257231 
L 107.785517 54.027487 
L 108.672343 54.027487 
L 108.672343 53.797744 
L 398.487273 53.797744 
L 398.487273 53.568 
L 398.487273 53.568 
" clip-path="url(#p5cc0c48fd3)" style="fill: none; stroke: #1f77b4; stroke-width: 1.5; stroke-linecap: square"/>
   </g>
   <g id="line2d_15">
    <path d="M 73.832727 295.488 
L 73.908741 295.488 
L 74.010093 294.996792 
L 74.111444 294.996792 
L 74.212796 282.716589 
L 74.212796 282.716589 
L 74.238134 282.716589 
L 74.339485 272.155614 
L 74.339485 272.155614 
L 74.364823 272.155614 
L 74.466175 271.173198 
L 74.491513 271.173198 
L 74.592864 253.244102 
L 74.592864 253.244102 
L 74.618202 253.244102 
L 74.719554 245.384772 
L 74.719554 245.384772 
L 74.744892 245.384772 
L 74.846243 231.876548 
L 74.846243 231.876548 
L 74.871581 231.876548 
L 74.972933 215.421076 
L 74.972933 215.421076 
L 74.998271 215.421076 
L 75.099622 204.614497 
L 75.099622 204.614497 
L 75.12496 204.614497 
L 75.226312 190.123858 
L 75.25165 190.123858 
L 75.353001 183.00134 
L 75.353001 183.00134 
L 75.378339 183.00134 
L 75.479691 162.616203 
L 75.479691 162.616203 
L 75.530367 162.616203 
L 75.631718 158.440934 
L 75.631718 158.440934 
L 75.657056 158.440934 
L 75.758408 156.230497 
L 75.758408 156.230497 
L 75.910435 156.230497 
L 75.986449 154.265665 
L 75.986449 154.265665 
L 76.037125 154.265665 
L 76.138476 152.546437 
L 76.138476 152.546437 
L 76.21449 152.546437 
L 76.315842 150.581604 
L 76.315842 150.581604 
L 76.34118 150.581604 
L 76.442531 148.616772 
L 76.442531 148.616772 
L 76.467869 148.616772 
L 76.569221 147.143147 
L 76.594559 147.143147 
L 76.69591 145.669523 
L 76.69591 145.669523 
L 76.721248 145.669523 
L 76.771924 143.950294 
L 76.771924 143.950294 
L 76.847938 143.950294 
L 76.949289 141.985462 
L 76.949289 141.985462 
L 76.974627 141.985462 
L 77.075979 139.529421 
L 77.075979 139.529421 
L 77.101317 139.529421 
L 77.202668 137.810193 
L 77.202668 137.810193 
L 77.228006 137.810193 
L 77.329358 135.108548 
L 77.329358 135.108548 
L 77.354696 135.108548 
L 77.456047 133.880528 
L 77.481385 133.880528 
L 77.582737 132.406904 
L 77.582737 132.406904 
L 77.608075 132.406904 
L 77.709426 129.950863 
L 77.78544 129.950863 
L 77.78544 129.214051 
L 77.78544 129.214051 
L 78.089495 129.214051 
L 78.089495 128.968447 
L 78.317536 128.968447 
L 78.317536 128.722843 
L 78.570915 128.722843 
L 78.646929 127.98603 
L 79.001659 127.98603 
L 79.001659 127.494822 
L 79.001659 127.494822 
L 79.432404 127.494822 
L 79.432404 127.249218 
L 80.243217 127.249218 
L 80.243217 127.003614 
L 80.648623 127.003614 
L 80.648623 126.75801 
L 81.028692 126.75801 
L 81.028692 126.512406 
L 81.358084 126.512406 
L 81.40876 126.021198 
L 81.662139 126.021198 
L 81.738153 125.52999 
L 81.814167 125.52999 
L 81.915518 125.038782 
L 82.042208 125.038782 
L 82.143559 124.056365 
L 82.194235 124.056365 
L 82.194235 123.810761 
L 82.422276 123.810761 
L 82.523628 122.582741 
L 82.726331 122.582741 
L 82.802345 122.091533 
L 82.929034 122.091533 
L 82.929034 121.845929 
L 83.055724 121.845929 
L 83.1064 121.109117 
L 83.1064 121.109117 
L 83.207751 121.109117 
L 83.283765 120.126701 
L 83.359779 120.126701 
L 83.46113 119.144284 
L 83.486468 119.144284 
L 83.58782 118.161868 
L 83.663833 118.161868 
L 83.714509 116.933848 
L 83.815861 116.933848 
L 83.891875 116.197036 
L 83.967888 116.197036 
L 84.043902 115.214619 
L 84.043902 115.214619 
L 84.094578 115.214619 
L 84.145254 114.232203 
L 84.221267 114.232203 
L 84.221267 113.740995 
L 84.221267 113.740995 
L 84.398633 113.740995 
L 84.474646 112.512975 
L 84.525322 112.512975 
L 84.626674 111.284954 
L 84.652012 111.284954 
L 84.753363 110.302538 
L 84.829377 110.302538 
L 84.905391 109.565726 
L 84.981404 109.565726 
L 85.082756 106.618477 
L 85.082756 106.618477 
L 85.108094 106.618477 
L 85.209446 104.408041 
L 85.209446 104.408041 
L 85.234783 104.408041 
L 85.336135 103.18002 
L 85.361473 103.18002 
L 85.462825 100.232772 
L 85.462825 100.232772 
L 85.5135 100.232772 
L 85.589514 98.759147 
L 85.589514 98.759147 
L 85.64019 98.759147 
L 85.741541 97.039919 
L 85.741541 97.039919 
L 85.766879 97.039919 
L 85.842893 96.057503 
L 85.893569 96.057503 
L 85.99492 94.09267 
L 85.99492 94.09267 
L 86.020258 94.09267 
L 86.096272 93.110254 
L 86.146948 93.110254 
L 86.2483 91.391025 
L 86.273637 91.391025 
L 86.374989 89.426193 
L 86.400327 89.426193 
L 86.501679 88.198173 
L 86.552354 88.198173 
L 86.628368 87.215756 
L 86.805733 87.215756 
L 86.907085 86.23334 
L 86.932423 86.23334 
L 86.932423 85.742132 
L 86.932423 85.742132 
L 87.109788 85.742132 
L 87.185802 85.00532 
L 87.236478 85.00532 
L 87.287154 84.514112 
L 87.464519 84.514112 
L 87.56587 83.531695 
L 87.641884 83.531695 
L 87.667222 83.040487 
L 87.844587 83.040487 
L 87.945939 82.303675 
L 88.047291 82.303675 
L 88.148642 81.566863 
L 88.17398 81.566863 
L 88.224656 80.830051 
L 88.30067 80.830051 
L 88.351345 80.093239 
L 88.427359 80.093239 
L 88.528711 79.110822 
L 88.528711 79.110822 
L 88.554049 79.110822 
L 88.630062 78.619614 
L 88.680738 78.619614 
L 88.78209 77.391594 
L 88.807428 77.391594 
L 88.832766 76.900386 
L 88.934117 76.900386 
L 89.010131 76.163574 
L 89.060807 76.163574 
L 89.13682 75.426761 
L 89.212834 75.426761 
L 89.314186 74.444345 
L 89.314186 74.444345 
L 89.440875 74.444345 
L 89.466213 73.216325 
L 89.567565 73.216325 
L 89.668916 72.233909 
L 89.694254 72.233909 
L 89.694254 71.988305 
L 89.820944 71.988305 
L 89.922295 70.51468 
L 89.947633 70.51468 
L 90.023647 70.023472 
L 90.124999 70.023472 
L 90.22635 68.05864 
L 90.277026 68.05864 
L 90.35304 67.076223 
L 90.555743 67.076223 
L 90.631757 66.585015 
L 90.682432 66.585015 
L 90.682432 66.339411 
L 90.809122 66.339411 
L 90.809122 66.093807 
L 91.062501 66.093807 
L 91.062501 65.848203 
L 91.214528 65.848203 
L 91.214528 65.602599 
L 91.44257 65.602599 
L 91.44257 65.356995 
L 92.304058 65.356995 
L 92.304058 65.111391 
L 93.646967 65.111391 
L 93.646967 64.865787 
L 93.900346 64.865787 
L 93.925684 64.374579 
L 94.229739 64.374579 
L 94.33109 63.883371 
L 94.432442 63.883371 
L 94.432442 63.637766 
L 94.559132 63.637766 
L 94.559132 63.392162 
L 94.711159 63.392162 
L 94.711159 62.900954 
L 94.711159 62.900954 
L 94.989876 62.900954 
L 94.989876 62.65535 
L 95.192579 62.65535 
L 95.192579 62.409746 
L 95.597986 62.409746 
L 95.597986 62.164142 
L 95.724675 62.164142 
L 95.724675 61.918538 
L 95.876702 61.918538 
L 95.927378 60.936122 
L 96.079406 60.936122 
L 96.155419 59.953706 
L 96.282109 59.953706 
L 96.383461 59.216893 
L 96.434136 59.216893 
L 96.535488 58.234477 
L 96.560826 58.234477 
L 96.662177 57.252061 
L 96.839543 57.252061 
L 96.890219 56.760853 
L 97.675694 56.760853 
L 97.675694 56.515249 
L 98.055762 56.515249 
L 98.055762 56.269645 
L 98.739885 56.269645 
L 98.739885 56.024041 
L 99.322657 56.024041 
L 99.322657 55.778437 
L 99.626712 55.778437 
L 99.626712 55.532832 
L 101.375027 55.532832 
L 101.375027 55.287228 
L 102.261854 55.287228 
L 102.31253 54.79602 
L 103.782128 54.79602 
L 103.782128 54.550416 
L 103.934156 54.550416 
L 103.934156 54.304812 
L 108.672343 54.304812 
L 108.672343 54.059208 
L 350.345258 54.059208 
L 350.345258 53.813604 
L 375.556471 53.813604 
L 375.556471 53.568 
L 375.556471 53.568 
" clip-path="url(#p5cc0c48fd3)" style="fill: none; stroke: #ff7f0e; stroke-width: 1.5; stroke-linecap: square"/>
   </g>
   <g id="patch_3">
    <path d="M 57.6 307.584 
L 57.6 41.472 
" style="fill: none; stroke: #000000; stroke-width: 0.8; stroke-linejoin: miter; stroke-linecap: square"/>
   </g>
   <g id="patch_4">
    <path d="M 414.72 307.584 
L 414.72 41.472 
" style="fill: none; stroke: #000000; stroke-width: 0.8; stroke-linejoin: miter; stroke-linecap: square"/>
   </g>
   <g id="patch_5">
    <path d="M 57.6 307.584 
L 414.72 307.584 
" style="fill: none; stroke: #000000; stroke-width: 0.8; stroke-linejoin: miter; stroke-linecap: square"/>
   </g>
   <g id="patch_6">
    <path d="M 57.6 41.472 
L 414.72 41.472 
" style="fill: none; stroke: #000000; stroke-width: 0.8; stroke-linejoin: miter; stroke-linecap: square"/>
   </g>
   <g id="text_14">
    <!-- S6 S7 -->
    <g transform="translate(219 35.472) scale(0.12 -0.12)">
     <defs>
      <path id="DejaVuSans-53" d="M 3425 4513 
L 3425 3897 
Q 3066 4069 2747 4153 
Q 2428 4238 2131 4238 
Q 1616 4238 1336 4038 
Q 1056 3838 1056 3469 
Q 1056 3159 1242 3001 
Q 1428 2844 1947 2747 
L 2328 2669 
Q 3034 2534 3370 2195 
Q 3706 1856 3706 1288 
Q 3706 609 3251 259 
Q 2797 -91 1919 -91 
Q 1588 -91 1214 -16 
Q 841 59 441 206 
L 441 856 
Q 825 641 1194 531 
Q 1563 422 1919 422 
Q 2459 422 2753 634 
Q 3047 847 3047 1241 
Q 3047 1584 2836 1778 
Q 2625 1972 2144 2069 
L 1759 2144 
Q 1053 2284 737 2584 
Q 422 2884 422 3419 
Q 422 4038 858 4394 
Q 1294 4750 2059 4750 
Q 2388 4750 2728 4690 
Q 3069 4631 3425 4513 
z
" transform="scale(0.015625)"/>
      <path id="DejaVuSans-20" transform="scale(0.015625)"/>
      <path id="DejaVuSans-37" d="M 525 4666 
L 3525 4666 
L 3525 4397 
L 1831 0 
L 1172 0 
L 2766 4134 
L 525 4134 
L 525 4666 
z
" transform="scale(0.015625)"/>
     </defs>
     <use xlink:href="#DejaVuSans-53"/>
     <use xlink:href="#DejaVuSans-36" x="63.476562"/>
     <use xlink:href="#DejaVuSans-20" x="127.099609"/>
     <use xlink:href="#DejaVuSans-53" x="158.886719"/>
     <use xlink:href="#DejaVuSans-37" x="222.363281"/>
    </g>
   </g>
   <g id="legend_1">
    <g id="patch_7">
     <path d="M 88.712813 304.584 
L 410.52 304.584 
Q 411.72 304.584 411.72 303.384 
L 411.72 286.37025 
Q 411.72 285.17025 410.52 285.17025 
L 88.712813 285.17025 
Q 87.512813 285.17025 87.512813 286.37025 
L 87.512813 303.384 
Q 87.512813 304.584 88.712813 304.584 
z
" style="fill: #ffffff; opacity: 0.8; stroke: #cccccc; stroke-linejoin: miter"/>
    </g>
    <g id="line2d_16">
     <path d="M 89.912813 290.029312 
L 95.912813 290.029312 
L 101.912813 290.029312 
" style="fill: none; stroke: #1f77b4; stroke-width: 1.5; stroke-linecap: square"/>
    </g>
    <g id="text_15">
     <!-- Execution time between S6 S7 (xx1xx1xx1xx0yyy45xx0yyy45xx1xx0yyy66xx1xx1) -->
     <g transform="translate(106.712813 292.129312) scale(0.06 -0.06)">
      <defs>
       <path id="DejaVuSans-45" d="M 628 4666 
L 3578 4666 
L 3578 4134 
L 1259 4134 
L 1259 2753 
L 3481 2753 
L 3481 2222 
L 1259 2222 
L 1259 531 
L 3634 531 
L 3634 0 
L 628 0 
L 628 4666 
z
" transform="scale(0.015625)"/>
       <path id="DejaVuSans-78" d="M 3513 3500 
L 2247 1797 
L 3578 0 
L 2900 0 
L 1881 1375 
L 863 0 
L 184 0 
L 1544 1831 
L 300 3500 
L 978 3500 
L 1906 2253 
L 2834 3500 
L 3513 3500 
z
" transform="scale(0.015625)"/>
       <path id="DejaVuSans-65" d="M 3597 1894 
L 3597 1613 
L 953 1613 
Q 991 1019 1311 708 
Q 1631 397 2203 397 
Q 2534 397 2845 478 
Q 3156 559 3463 722 
L 3463 178 
Q 3153 47 2828 -22 
Q 2503 -91 2169 -91 
Q 1331 -91 842 396 
Q 353 884 353 1716 
Q 353 2575 817 3079 
Q 1281 3584 2069 3584 
Q 2775 3584 3186 3129 
Q 3597 2675 3597 1894 
z
M 3022 2063 
Q 3016 2534 2758 2815 
Q 2500 3097 2075 3097 
Q 1594 3097 1305 2825 
Q 1016 2553 972 2059 
L 3022 2063 
z
" transform="scale(0.015625)"/>
       <path id="DejaVuSans-63" d="M 3122 3366 
L 3122 2828 
Q 2878 2963 2633 3030 
Q 2388 3097 2138 3097 
Q 1578 3097 1268 2742 
Q 959 2388 959 1747 
Q 959 1106 1268 751 
Q 1578 397 2138 397 
Q 2388 397 2633 464 
Q 2878 531 3122 666 
L 3122 134 
Q 2881 22 2623 -34 
Q 2366 -91 2075 -91 
Q 1284 -91 818 406 
Q 353 903 353 1747 
Q 353 2603 823 3093 
Q 1294 3584 2113 3584 
Q 2378 3584 2631 3529 
Q 2884 3475 3122 3366 
z
" transform="scale(0.015625)"/>
       <path id="DejaVuSans-75" d="M 544 1381 
L 544 3500 
L 1119 3500 
L 1119 1403 
Q 1119 906 1312 657 
Q 1506 409 1894 409 
Q 2359 409 2629 706 
Q 2900 1003 2900 1516 
L 2900 3500 
L 3475 3500 
L 3475 0 
L 2900 0 
L 2900 538 
Q 2691 219 2414 64 
Q 2138 -91 1772 -91 
Q 1169 -91 856 284 
Q 544 659 544 1381 
z
M 1991 3584 
L 1991 3584 
z
" transform="scale(0.015625)"/>
       <path id="DejaVuSans-74" d="M 1172 4494 
L 1172 3500 
L 2356 3500 
L 2356 3053 
L 1172 3053 
L 1172 1153 
Q 1172 725 1289 603 
Q 1406 481 1766 481 
L 2356 481 
L 2356 0 
L 1766 0 
Q 1100 0 847 248 
Q 594 497 594 1153 
L 594 3053 
L 172 3053 
L 172 3500 
L 594 3500 
L 594 4494 
L 1172 4494 
z
" transform="scale(0.015625)"/>
       <path id="DejaVuSans-69" d="M 603 3500 
L 1178 3500 
L 1178 0 
L 603 0 
L 603 3500 
z
M 603 4863 
L 1178 4863 
L 1178 4134 
L 603 4134 
L 603 4863 
z
" transform="scale(0.015625)"/>
       <path id="DejaVuSans-6f" d="M 1959 3097 
Q 1497 3097 1228 2736 
Q 959 2375 959 1747 
Q 959 1119 1226 758 
Q 1494 397 1959 397 
Q 2419 397 2687 759 
Q 2956 1122 2956 1747 
Q 2956 2369 2687 2733 
Q 2419 3097 1959 3097 
z
M 1959 3584 
Q 2709 3584 3137 3096 
Q 3566 2609 3566 1747 
Q 3566 888 3137 398 
Q 2709 -91 1959 -91 
Q 1206 -91 779 398 
Q 353 888 353 1747 
Q 353 2609 779 3096 
Q 1206 3584 1959 3584 
z
" transform="scale(0.015625)"/>
       <path id="DejaVuSans-6e" d="M 3513 2113 
L 3513 0 
L 2938 0 
L 2938 2094 
Q 2938 2591 2744 2837 
Q 2550 3084 2163 3084 
Q 1697 3084 1428 2787 
Q 1159 2491 1159 1978 
L 1159 0 
L 581 0 
L 581 3500 
L 1159 3500 
L 1159 2956 
Q 1366 3272 1645 3428 
Q 1925 3584 2291 3584 
Q 2894 3584 3203 3211 
Q 3513 2838 3513 2113 
z
" transform="scale(0.015625)"/>
       <path id="DejaVuSans-6d" d="M 3328 2828 
Q 3544 3216 3844 3400 
Q 4144 3584 4550 3584 
Q 5097 3584 5394 3201 
Q 5691 2819 5691 2113 
L 5691 0 
L 5113 0 
L 5113 2094 
Q 5113 2597 4934 2840 
Q 4756 3084 4391 3084 
Q 3944 3084 3684 2787 
Q 3425 2491 3425 1978 
L 3425 0 
L 2847 0 
L 2847 2094 
Q 2847 2600 2669 2842 
Q 2491 3084 2119 3084 
Q 1678 3084 1418 2786 
Q 1159 2488 1159 1978 
L 1159 0 
L 581 0 
L 581 3500 
L 1159 3500 
L 1159 2956 
Q 1356 3278 1631 3431 
Q 1906 3584 2284 3584 
Q 2666 3584 2933 3390 
Q 3200 3197 3328 2828 
z
" transform="scale(0.015625)"/>
       <path id="DejaVuSans-62" d="M 3116 1747 
Q 3116 2381 2855 2742 
Q 2594 3103 2138 3103 
Q 1681 3103 1420 2742 
Q 1159 2381 1159 1747 
Q 1159 1113 1420 752 
Q 1681 391 2138 391 
Q 2594 391 2855 752 
Q 3116 1113 3116 1747 
z
M 1159 2969 
Q 1341 3281 1617 3432 
Q 1894 3584 2278 3584 
Q 2916 3584 3314 3078 
Q 3713 2572 3713 1747 
Q 3713 922 3314 415 
Q 2916 -91 2278 -91 
Q 1894 -91 1617 61 
Q 1341 213 1159 525 
L 1159 0 
L 581 0 
L 581 4863 
L 1159 4863 
L 1159 2969 
z
" transform="scale(0.015625)"/>
       <path id="DejaVuSans-77" d="M 269 3500 
L 844 3500 
L 1563 769 
L 2278 3500 
L 2956 3500 
L 3675 769 
L 4391 3500 
L 4966 3500 
L 4050 0 
L 3372 0 
L 2619 2869 
L 1863 0 
L 1184 0 
L 269 3500 
z
" transform="scale(0.015625)"/>
       <path id="DejaVuSans-28" d="M 1984 4856 
Q 1566 4138 1362 3434 
Q 1159 2731 1159 2009 
Q 1159 1288 1364 580 
Q 1569 -128 1984 -844 
L 1484 -844 
Q 1016 -109 783 600 
Q 550 1309 550 2009 
Q 550 2706 781 3412 
Q 1013 4119 1484 4856 
L 1984 4856 
z
" transform="scale(0.015625)"/>
       <path id="DejaVuSans-79" d="M 2059 -325 
Q 1816 -950 1584 -1140 
Q 1353 -1331 966 -1331 
L 506 -1331 
L 506 -850 
L 844 -850 
Q 1081 -850 1212 -737 
Q 1344 -625 1503 -206 
L 1606 56 
L 191 3500 
L 800 3500 
L 1894 763 
L 2988 3500 
L 3597 3500 
L 2059 -325 
z
" transform="scale(0.015625)"/>
       <path id="DejaVuSans-35" d="M 691 4666 
L 3169 4666 
L 3169 4134 
L 1269 4134 
L 1269 2991 
Q 1406 3038 1543 3061 
Q 1681 3084 1819 3084 
Q 2600 3084 3056 2656 
Q 3513 2228 3513 1497 
Q 3513 744 3044 326 
Q 2575 -91 1722 -91 
Q 1428 -91 1123 -41 
Q 819 9 494 109 
L 494 744 
Q 775 591 1075 516 
Q 1375 441 1709 441 
Q 2250 441 2565 725 
Q 2881 1009 2881 1497 
Q 2881 1984 2565 2268 
Q 2250 2553 1709 2553 
Q 1456 2553 1204 2497 
Q 953 2441 691 2322 
L 691 4666 
z
" transform="scale(0.015625)"/>
       <path id="DejaVuSans-29" d="M 513 4856 
L 1013 4856 
Q 1481 4119 1714 3412 
Q 1947 2706 1947 2009 
Q 1947 1309 1714 600 
Q 1481 -109 1013 -844 
L 513 -844 
Q 928 -128 1133 580 
Q 1338 1288 1338 2009 
Q 1338 2731 1133 3434 
Q 928 4138 513 4856 
z
" transform="scale(0.015625)"/>
      </defs>
      <use xlink:href="#DejaVuSans-45"/>
      <use xlink:href="#DejaVuSans-78" x="63.183594"/>
      <use xlink:href="#DejaVuSans-65" x="119.238281"/>
      <use xlink:href="#DejaVuSans-63" x="180.761719"/>
      <use xlink:href="#DejaVuSans-75" x="235.742188"/>
      <use xlink:href="#DejaVuSans-74" x="299.121094"/>
      <use xlink:href="#DejaVuSans-69" x="338.330078"/>
      <use xlink:href="#DejaVuSans-6f" x="366.113281"/>
      <use xlink:href="#DejaVuSans-6e" x="427.294922"/>
      <use xlink:href="#DejaVuSans-20" x="490.673828"/>
      <use xlink:href="#DejaVuSans-74" x="522.460938"/>
      <use xlink:href="#DejaVuSans-69" x="561.669922"/>
      <use xlink:href="#DejaVuSans-6d" x="589.453125"/>
      <use xlink:href="#DejaVuSans-65" x="686.865234"/>
      <use xlink:href="#DejaVuSans-20" x="748.388672"/>
      <use xlink:href="#DejaVuSans-62" x="780.175781"/>
      <use xlink:href="#DejaVuSans-65" x="843.652344"/>
      <use xlink:href="#DejaVuSans-74" x="905.175781"/>
      <use xlink:href="#DejaVuSans-77" x="944.384766"/>
      <use xlink:href="#DejaVuSans-65" x="1026.171875"/>
      <use xlink:href="#DejaVuSans-65" x="1087.695312"/>
      <use xlink:href="#DejaVuSans-6e" x="1149.21875"/>
      <use xlink:href="#DejaVuSans-20" x="1212.597656"/>
      <use xlink:href="#DejaVuSans-53" x="1244.384766"/>
      <use xlink:href="#DejaVuSans-36" x="1307.861328"/>
      <use xlink:href="#DejaVuSans-20" x="1371.484375"/>
      <use xlink:href="#DejaVuSans-53" x="1403.271484"/>
      <use xlink:href="#DejaVuSans-37" x="1466.748047"/>
      <use xlink:href="#DejaVuSans-20" x="1530.371094"/>
      <use xlink:href="#DejaVuSans-28" x="1562.158203"/>
      <use xlink:href="#DejaVuSans-78" x="1601.171875"/>
      <use xlink:href="#DejaVuSans-78" x="1660.351562"/>
      <use xlink:href="#DejaVuSans-31" x="1719.53125"/>
      <use xlink:href="#DejaVuSans-78" x="1783.154297"/>
      <use xlink:href="#DejaVuSans-78" x="1842.333984"/>
      <use xlink:href="#DejaVuSans-31" x="1901.513672"/>
      <use xlink:href="#DejaVuSans-78" x="1965.136719"/>
      <use xlink:href="#DejaVuSans-78" x="2024.316406"/>
      <use xlink:href="#DejaVuSans-31" x="2083.496094"/>
      <use xlink:href="#DejaVuSans-78" x="2147.119141"/>
      <use xlink:href="#DejaVuSans-78" x="2206.298828"/>
      <use xlink:href="#DejaVuSans-30" x="2265.478516"/>
      <use xlink:href="#DejaVuSans-79" x="2329.101562"/>
      <use xlink:href="#DejaVuSans-79" x="2388.28125"/>
      <use xlink:href="#DejaVuSans-79" x="2447.460938"/>
      <use xlink:href="#DejaVuSans-34" x="2506.640625"/>
      <use xlink:href="#DejaVuSans-35" x="2570.263672"/>
      <use xlink:href="#DejaVuSans-78" x="2633.886719"/>
      <use xlink:href="#DejaVuSans-78" x="2693.066406"/>
      <use xlink:href="#DejaVuSans-30" x="2752.246094"/>
      <use xlink:href="#DejaVuSans-79" x="2815.869141"/>
      <use xlink:href="#DejaVuSans-79" x="2875.048828"/>
      <use xlink:href="#DejaVuSans-79" x="2934.228516"/>
      <use xlink:href="#DejaVuSans-34" x="2993.408203"/>
      <use xlink:href="#DejaVuSans-35" x="3057.03125"/>
      <use xlink:href="#DejaVuSans-78" x="3120.654297"/>
      <use xlink:href="#DejaVuSans-78" x="3179.833984"/>
      <use xlink:href="#DejaVuSans-31" x="3239.013672"/>
      <use xlink:href="#DejaVuSans-78" x="3302.636719"/>
      <use xlink:href="#DejaVuSans-78" x="3361.816406"/>
      <use xlink:href="#DejaVuSans-30" x="3420.996094"/>
      <use xlink:href="#DejaVuSans-79" x="3484.619141"/>
      <use xlink:href="#DejaVuSans-79" x="3543.798828"/>
      <use xlink:href="#DejaVuSans-79" x="3602.978516"/>
      <use xlink:href="#DejaVuSans-36" x="3662.158203"/>
      <use xlink:href="#DejaVuSans-36" x="3725.78125"/>
      <use xlink:href="#DejaVuSans-78" x="3789.404297"/>
      <use xlink:href="#DejaVuSans-78" x="3848.583984"/>
      <use xlink:href="#DejaVuSans-31" x="3907.763672"/>
      <use xlink:href="#DejaVuSans-78" x="3971.386719"/>
      <use xlink:href="#DejaVuSans-78" x="4030.566406"/>
      <use xlink:href="#DejaVuSans-31" x="4089.746094"/>
      <use xlink:href="#DejaVuSans-29" x="4153.369141"/>
     </g>
    </g>
    <g id="line2d_17">
     <path d="M 89.912813 298.836187 
L 95.912813 298.836187 
L 101.912813 298.836187 
" style="fill: none; stroke: #ff7f0e; stroke-width: 1.5; stroke-linecap: square"/>
    </g>
    <g id="text_16">
     <!-- Execution time between S6 S7 (xx1xx2xx0yyy45xx0yyy45xx0yyy3xx1xx0yyy45xx0yyy45xx0yyy45) -->
     <g transform="translate(106.712813 300.936187) scale(0.06 -0.06)">
      <defs>
       <path id="DejaVuSans-33" d="M 2597 2516 
Q 3050 2419 3304 2112 
Q 3559 1806 3559 1356 
Q 3559 666 3084 287 
Q 2609 -91 1734 -91 
Q 1441 -91 1130 -33 
Q 819 25 488 141 
L 488 750 
Q 750 597 1062 519 
Q 1375 441 1716 441 
Q 2309 441 2620 675 
Q 2931 909 2931 1356 
Q 2931 1769 2642 2001 
Q 2353 2234 1838 2234 
L 1294 2234 
L 1294 2753 
L 1863 2753 
Q 2328 2753 2575 2939 
Q 2822 3125 2822 3475 
Q 2822 3834 2567 4026 
Q 2313 4219 1838 4219 
Q 1578 4219 1281 4162 
Q 984 4106 628 3988 
L 628 4550 
Q 988 4650 1302 4700 
Q 1616 4750 1894 4750 
Q 2613 4750 3031 4423 
Q 3450 4097 3450 3541 
Q 3450 3153 3228 2886 
Q 3006 2619 2597 2516 
z
" transform="scale(0.015625)"/>
      </defs>
      <use xlink:href="#DejaVuSans-45"/>
      <use xlink:href="#DejaVuSans-78" x="63.183594"/>
      <use xlink:href="#DejaVuSans-65" x="119.238281"/>
      <use xlink:href="#DejaVuSans-63" x="180.761719"/>
      <use xlink:href="#DejaVuSans-75" x="235.742188"/>
      <use xlink:href="#DejaVuSans-74" x="299.121094"/>
      <use xlink:href="#DejaVuSans-69" x="338.330078"/>
      <use xlink:href="#DejaVuSans-6f" x="366.113281"/>
      <use xlink:href="#DejaVuSans-6e" x="427.294922"/>
      <use xlink:href="#DejaVuSans-20" x="490.673828"/>
      <use xlink:href="#DejaVuSans-74" x="522.460938"/>
      <use xlink:href="#DejaVuSans-69" x="561.669922"/>
      <use xlink:href="#DejaVuSans-6d" x="589.453125"/>
      <use xlink:href="#DejaVuSans-65" x="686.865234"/>
      <use xlink:href="#DejaVuSans-20" x="748.388672"/>
      <use xlink:href="#DejaVuSans-62" x="780.175781"/>
      <use xlink:href="#DejaVuSans-65" x="843.652344"/>
      <use xlink:href="#DejaVuSans-74" x="905.175781"/>
      <use xlink:href="#DejaVuSans-77" x="944.384766"/>
      <use xlink:href="#DejaVuSans-65" x="1026.171875"/>
      <use xlink:href="#DejaVuSans-65" x="1087.695312"/>
      <use xlink:href="#DejaVuSans-6e" x="1149.21875"/>
      <use xlink:href="#DejaVuSans-20" x="1212.597656"/>
      <use xlink:href="#DejaVuSans-53" x="1244.384766"/>
      <use xlink:href="#DejaVuSans-36" x="1307.861328"/>
      <use xlink:href="#DejaVuSans-20" x="1371.484375"/>
      <use xlink:href="#DejaVuSans-53" x="1403.271484"/>
      <use xlink:href="#DejaVuSans-37" x="1466.748047"/>
      <use xlink:href="#DejaVuSans-20" x="1530.371094"/>
      <use xlink:href="#DejaVuSans-28" x="1562.158203"/>
      <use xlink:href="#DejaVuSans-78" x="1601.171875"/>
      <use xlink:href="#DejaVuSans-78" x="1660.351562"/>
      <use xlink:href="#DejaVuSans-31" x="1719.53125"/>
      <use xlink:href="#DejaVuSans-78" x="1783.154297"/>
      <use xlink:href="#DejaVuSans-78" x="1842.333984"/>
      <use xlink:href="#DejaVuSans-32" x="1901.513672"/>
      <use xlink:href="#DejaVuSans-78" x="1965.136719"/>
      <use xlink:href="#DejaVuSans-78" x="2024.316406"/>
      <use xlink:href="#DejaVuSans-30" x="2083.496094"/>
      <use xlink:href="#DejaVuSans-79" x="2147.119141"/>
      <use xlink:href="#DejaVuSans-79" x="2206.298828"/>
      <use xlink:href="#DejaVuSans-79" x="2265.478516"/>
      <use xlink:href="#DejaVuSans-34" x="2324.658203"/>
      <use xlink:href="#DejaVuSans-35" x="2388.28125"/>
      <use xlink:href="#DejaVuSans-78" x="2451.904297"/>
      <use xlink:href="#DejaVuSans-78" x="2511.083984"/>
      <use xlink:href="#DejaVuSans-30" x="2570.263672"/>
      <use xlink:href="#DejaVuSans-79" x="2633.886719"/>
      <use xlink:href="#DejaVuSans-79" x="2693.066406"/>
      <use xlink:href="#DejaVuSans-79" x="2752.246094"/>
      <use xlink:href="#DejaVuSans-34" x="2811.425781"/>
      <use xlink:href="#DejaVuSans-35" x="2875.048828"/>
      <use xlink:href="#DejaVuSans-78" x="2938.671875"/>
      <use xlink:href="#DejaVuSans-78" x="2997.851562"/>
      <use xlink:href="#DejaVuSans-30" x="3057.03125"/>
      <use xlink:href="#DejaVuSans-79" x="3120.654297"/>
      <use xlink:href="#DejaVuSans-79" x="3179.833984"/>
      <use xlink:href="#DejaVuSans-79" x="3239.013672"/>
      <use xlink:href="#DejaVuSans-33" x="3298.193359"/>
      <use xlink:href="#DejaVuSans-78" x="3361.816406"/>
      <use xlink:href="#DejaVuSans-78" x="3420.996094"/>
      <use xlink:href="#DejaVuSans-31" x="3480.175781"/>
      <use xlink:href="#DejaVuSans-78" x="3543.798828"/>
      <use xlink:href="#DejaVuSans-78" x="3602.978516"/>
      <use xlink:href="#DejaVuSans-30" x="3662.158203"/>
      <use xlink:href="#DejaVuSans-79" x="3725.78125"/>
      <use xlink:href="#DejaVuSans-79" x="3784.960938"/>
      <use xlink:href="#DejaVuSans-79" x="3844.140625"/>
      <use xlink:href="#DejaVuSans-34" x="3903.320312"/>
      <use xlink:href="#DejaVuSans-35" x="3966.943359"/>
      <use xlink:href="#DejaVuSans-78" x="4030.566406"/>
      <use xlink:href="#DejaVuSans-78" x="4089.746094"/>
      <use xlink:href="#DejaVuSans-30" x="4148.925781"/>
      <use xlink:href="#DejaVuSans-79" x="4212.548828"/>
      <use xlink:href="#DejaVuSans-79" x="4271.728516"/>
      <use xlink:href="#DejaVuSans-79" x="4330.908203"/>
      <use xlink:href="#DejaVuSans-34" x="4390.087891"/>
      <use xlink:href="#DejaVuSans-35" x="4453.710938"/>
      <use xlink:href="#DejaVuSans-78" x="4517.333984"/>
      <use xlink:href="#DejaVuSans-78" x="4576.513672"/>
      <use xlink:href="#DejaVuSans-30" x="4635.693359"/>
      <use xlink:href="#DejaVuSans-79" x="4699.316406"/>
      <use xlink:href="#DejaVuSans-79" x="4758.496094"/>
      <use xlink:href="#DejaVuSans-79" x="4817.675781"/>
      <use xlink:href="#DejaVuSans-34" x="4876.855469"/>
      <use xlink:href="#DejaVuSans-35" x="4940.478516"/>
      <use xlink:href="#DejaVuSans-29" x="5004.101562"/>
     </g>
    </g>
   </g>
  </g>
 </g>
 <defs>
  <clipPath id="p5cc0c48fd3">
   <rect x="57.6" y="41.472" width="357.12" height="266.112"/>
  </clipPath>
 </defs>
</svg>
