<?xml version="1.0" encoding="utf-8" standalone="no"?>
<!DOCTYPE svg PUBLIC "-//W3C//DTD SVG 1.1//EN"
  "http://www.w3.org/Graphics/SVG/1.1/DTD/svg11.dtd">
<svg xmlns:xlink="http://www.w3.org/1999/xlink" width="460.8pt" height="345.6pt" viewBox="0 0 460.8 345.6" xmlns="http://www.w3.org/2000/svg" version="1.1">
 <metadata>
  <rdf:RDF xmlns:dc="http://purl.org/dc/elements/1.1/" xmlns:cc="http://creativecommons.org/ns#" xmlns:rdf="http://www.w3.org/1999/02/22-rdf-syntax-ns#">
   <cc:Work>
    <dc:type rdf:resource="http://purl.org/dc/dcmitype/StillImage"/>
    <dc:date>2024-03-08T12:40:50.090962</dc:date>
    <dc:format>image/svg+xml</dc:format>
    <dc:creator>
     <cc:Agent>
      <dc:title>Matplotlib v3.8.2, https://matplotlib.org/</dc:title>
     </cc:Agent>
    </dc:creator>
   </cc:Work>
  </rdf:RDF>
 </metadata>
 <defs>
  <style type="text/css">*{stroke-linejoin: round; stroke-linecap: butt}</style>
 </defs>
 <g id="figure_1">
  <g id="patch_1">
   <path d="M 0 345.6 
L 460.8 345.6 
L 460.8 0 
L 0 0 
z
" style="fill: #ffffff"/>
  </g>
  <g id="axes_1">
   <g id="patch_2">
    <path d="M 57.6 307.584 
L 414.72 307.584 
L 414.72 41.472 
L 57.6 41.472 
z
" style="fill: #ffffff"/>
   </g>
   <g id="matplotlib.axis_1">
    <g id="xtick_1">
     <g id="line2d_1">
      <defs>
       <path id="ma05c1085d4" d="M 0 0 
L 0 3.5 
" style="stroke: #000000; stroke-width: 0.8"/>
      </defs>
      <g>
       <use xlink:href="#ma05c1085d4" x="73.319353" y="307.584" style="stroke: #000000; stroke-width: 0.8"/>
      </g>
     </g>
     <g id="text_1">
      <!-- 0.0 -->
      <g transform="translate(65.367791 322.182437) scale(0.1 -0.1)">
       <defs>
        <path id="DejaVuSans-30" d="M 2034 4250 
Q 1547 4250 1301 3770 
Q 1056 3291 1056 2328 
Q 1056 1369 1301 889 
Q 1547 409 2034 409 
Q 2525 409 2770 889 
Q 3016 1369 3016 2328 
Q 3016 3291 2770 3770 
Q 2525 4250 2034 4250 
z
M 2034 4750 
Q 2819 4750 3233 4129 
Q 3647 3509 3647 2328 
Q 3647 1150 3233 529 
Q 2819 -91 2034 -91 
Q 1250 -91 836 529 
Q 422 1150 422 2328 
Q 422 3509 836 4129 
Q 1250 4750 2034 4750 
z
" transform="scale(0.015625)"/>
        <path id="DejaVuSans-2e" d="M 684 794 
L 1344 794 
L 1344 0 
L 684 0 
L 684 794 
z
" transform="scale(0.015625)"/>
       </defs>
       <use xlink:href="#DejaVuSans-30"/>
       <use xlink:href="#DejaVuSans-2e" x="63.623047"/>
       <use xlink:href="#DejaVuSans-30" x="95.410156"/>
      </g>
     </g>
    </g>
    <g id="xtick_2">
     <g id="line2d_2">
      <g>
       <use xlink:href="#ma05c1085d4" x="119.238334" y="307.584" style="stroke: #000000; stroke-width: 0.8"/>
      </g>
     </g>
     <g id="text_2">
      <!-- 0.5 -->
      <g transform="translate(111.286772 322.182437) scale(0.1 -0.1)">
       <defs>
        <path id="DejaVuSans-35" d="M 691 4666 
L 3169 4666 
L 3169 4134 
L 1269 4134 
L 1269 2991 
Q 1406 3038 1543 3061 
Q 1681 3084 1819 3084 
Q 2600 3084 3056 2656 
Q 3513 2228 3513 1497 
Q 3513 744 3044 326 
Q 2575 -91 1722 -91 
Q 1428 -91 1123 -41 
Q 819 9 494 109 
L 494 744 
Q 775 591 1075 516 
Q 1375 441 1709 441 
Q 2250 441 2565 725 
Q 2881 1009 2881 1497 
Q 2881 1984 2565 2268 
Q 2250 2553 1709 2553 
Q 1456 2553 1204 2497 
Q 953 2441 691 2322 
L 691 4666 
z
" transform="scale(0.015625)"/>
       </defs>
       <use xlink:href="#DejaVuSans-30"/>
       <use xlink:href="#DejaVuSans-2e" x="63.623047"/>
       <use xlink:href="#DejaVuSans-35" x="95.410156"/>
      </g>
     </g>
    </g>
    <g id="xtick_3">
     <g id="line2d_3">
      <g>
       <use xlink:href="#ma05c1085d4" x="165.157316" y="307.584" style="stroke: #000000; stroke-width: 0.8"/>
      </g>
     </g>
     <g id="text_3">
      <!-- 1.0 -->
      <g transform="translate(157.205753 322.182437) scale(0.1 -0.1)">
       <defs>
        <path id="DejaVuSans-31" d="M 794 531 
L 1825 531 
L 1825 4091 
L 703 3866 
L 703 4441 
L 1819 4666 
L 2450 4666 
L 2450 531 
L 3481 531 
L 3481 0 
L 794 0 
L 794 531 
z
" transform="scale(0.015625)"/>
       </defs>
       <use xlink:href="#DejaVuSans-31"/>
       <use xlink:href="#DejaVuSans-2e" x="63.623047"/>
       <use xlink:href="#DejaVuSans-30" x="95.410156"/>
      </g>
     </g>
    </g>
    <g id="xtick_4">
     <g id="line2d_4">
      <g>
       <use xlink:href="#ma05c1085d4" x="211.076297" y="307.584" style="stroke: #000000; stroke-width: 0.8"/>
      </g>
     </g>
     <g id="text_4">
      <!-- 1.5 -->
      <g transform="translate(203.124735 322.182437) scale(0.1 -0.1)">
       <use xlink:href="#DejaVuSans-31"/>
       <use xlink:href="#DejaVuSans-2e" x="63.623047"/>
       <use xlink:href="#DejaVuSans-35" x="95.410156"/>
      </g>
     </g>
    </g>
    <g id="xtick_5">
     <g id="line2d_5">
      <g>
       <use xlink:href="#ma05c1085d4" x="256.995279" y="307.584" style="stroke: #000000; stroke-width: 0.8"/>
      </g>
     </g>
     <g id="text_5">
      <!-- 2.0 -->
      <g transform="translate(249.043716 322.182437) scale(0.1 -0.1)">
       <defs>
        <path id="DejaVuSans-32" d="M 1228 531 
L 3431 531 
L 3431 0 
L 469 0 
L 469 531 
Q 828 903 1448 1529 
Q 2069 2156 2228 2338 
Q 2531 2678 2651 2914 
Q 2772 3150 2772 3378 
Q 2772 3750 2511 3984 
Q 2250 4219 1831 4219 
Q 1534 4219 1204 4116 
Q 875 4013 500 3803 
L 500 4441 
Q 881 4594 1212 4672 
Q 1544 4750 1819 4750 
Q 2544 4750 2975 4387 
Q 3406 4025 3406 3419 
Q 3406 3131 3298 2873 
Q 3191 2616 2906 2266 
Q 2828 2175 2409 1742 
Q 1991 1309 1228 531 
z
" transform="scale(0.015625)"/>
       </defs>
       <use xlink:href="#DejaVuSans-32"/>
       <use xlink:href="#DejaVuSans-2e" x="63.623047"/>
       <use xlink:href="#DejaVuSans-30" x="95.410156"/>
      </g>
     </g>
    </g>
    <g id="xtick_6">
     <g id="line2d_6">
      <g>
       <use xlink:href="#ma05c1085d4" x="302.91426" y="307.584" style="stroke: #000000; stroke-width: 0.8"/>
      </g>
     </g>
     <g id="text_6">
      <!-- 2.5 -->
      <g transform="translate(294.962698 322.182437) scale(0.1 -0.1)">
       <use xlink:href="#DejaVuSans-32"/>
       <use xlink:href="#DejaVuSans-2e" x="63.623047"/>
       <use xlink:href="#DejaVuSans-35" x="95.410156"/>
      </g>
     </g>
    </g>
    <g id="xtick_7">
     <g id="line2d_7">
      <g>
       <use xlink:href="#ma05c1085d4" x="348.833241" y="307.584" style="stroke: #000000; stroke-width: 0.8"/>
      </g>
     </g>
     <g id="text_7">
      <!-- 3.0 -->
      <g transform="translate(340.881679 322.182437) scale(0.1 -0.1)">
       <defs>
        <path id="DejaVuSans-33" d="M 2597 2516 
Q 3050 2419 3304 2112 
Q 3559 1806 3559 1356 
Q 3559 666 3084 287 
Q 2609 -91 1734 -91 
Q 1441 -91 1130 -33 
Q 819 25 488 141 
L 488 750 
Q 750 597 1062 519 
Q 1375 441 1716 441 
Q 2309 441 2620 675 
Q 2931 909 2931 1356 
Q 2931 1769 2642 2001 
Q 2353 2234 1838 2234 
L 1294 2234 
L 1294 2753 
L 1863 2753 
Q 2328 2753 2575 2939 
Q 2822 3125 2822 3475 
Q 2822 3834 2567 4026 
Q 2313 4219 1838 4219 
Q 1578 4219 1281 4162 
Q 984 4106 628 3988 
L 628 4550 
Q 988 4650 1302 4700 
Q 1616 4750 1894 4750 
Q 2613 4750 3031 4423 
Q 3450 4097 3450 3541 
Q 3450 3153 3228 2886 
Q 3006 2619 2597 2516 
z
" transform="scale(0.015625)"/>
       </defs>
       <use xlink:href="#DejaVuSans-33"/>
       <use xlink:href="#DejaVuSans-2e" x="63.623047"/>
       <use xlink:href="#DejaVuSans-30" x="95.410156"/>
      </g>
     </g>
    </g>
    <g id="xtick_8">
     <g id="line2d_8">
      <g>
       <use xlink:href="#ma05c1085d4" x="394.752223" y="307.584" style="stroke: #000000; stroke-width: 0.8"/>
      </g>
     </g>
     <g id="text_8">
      <!-- 3.5 -->
      <g transform="translate(386.80066 322.182437) scale(0.1 -0.1)">
       <use xlink:href="#DejaVuSans-33"/>
       <use xlink:href="#DejaVuSans-2e" x="63.623047"/>
       <use xlink:href="#DejaVuSans-35" x="95.410156"/>
      </g>
     </g>
    </g>
    <g id="text_9">
     <!-- 1e6 -->
     <g transform="translate(395.841875 334.860562) scale(0.1 -0.1)">
      <defs>
       <path id="DejaVuSans-65" d="M 3597 1894 
L 3597 1613 
L 953 1613 
Q 991 1019 1311 708 
Q 1631 397 2203 397 
Q 2534 397 2845 478 
Q 3156 559 3463 722 
L 3463 178 
Q 3153 47 2828 -22 
Q 2503 -91 2169 -91 
Q 1331 -91 842 396 
Q 353 884 353 1716 
Q 353 2575 817 3079 
Q 1281 3584 2069 3584 
Q 2775 3584 3186 3129 
Q 3597 2675 3597 1894 
z
M 3022 2063 
Q 3016 2534 2758 2815 
Q 2500 3097 2075 3097 
Q 1594 3097 1305 2825 
Q 1016 2553 972 2059 
L 3022 2063 
z
" transform="scale(0.015625)"/>
       <path id="DejaVuSans-36" d="M 2113 2584 
Q 1688 2584 1439 2293 
Q 1191 2003 1191 1497 
Q 1191 994 1439 701 
Q 1688 409 2113 409 
Q 2538 409 2786 701 
Q 3034 994 3034 1497 
Q 3034 2003 2786 2293 
Q 2538 2584 2113 2584 
z
M 3366 4563 
L 3366 3988 
Q 3128 4100 2886 4159 
Q 2644 4219 2406 4219 
Q 1781 4219 1451 3797 
Q 1122 3375 1075 2522 
Q 1259 2794 1537 2939 
Q 1816 3084 2150 3084 
Q 2853 3084 3261 2657 
Q 3669 2231 3669 1497 
Q 3669 778 3244 343 
Q 2819 -91 2113 -91 
Q 1303 -91 875 529 
Q 447 1150 447 2328 
Q 447 3434 972 4092 
Q 1497 4750 2381 4750 
Q 2619 4750 2861 4703 
Q 3103 4656 3366 4563 
z
" transform="scale(0.015625)"/>
      </defs>
      <use xlink:href="#DejaVuSans-31"/>
      <use xlink:href="#DejaVuSans-65" x="63.623047"/>
      <use xlink:href="#DejaVuSans-36" x="125.146484"/>
     </g>
    </g>
   </g>
   <g id="matplotlib.axis_2">
    <g id="ytick_1">
     <g id="line2d_9">
      <defs>
       <path id="m9d99eab915" d="M 0 0 
L -3.5 0 
" style="stroke: #000000; stroke-width: 0.8"/>
      </defs>
      <g>
       <use xlink:href="#m9d99eab915" x="57.6" y="295.488" style="stroke: #000000; stroke-width: 0.8"/>
      </g>
     </g>
     <g id="text_10">
      <!-- 0 -->
      <g transform="translate(44.2375 299.287219) scale(0.1 -0.1)">
       <use xlink:href="#DejaVuSans-30"/>
      </g>
     </g>
    </g>
    <g id="ytick_2">
     <g id="line2d_10">
      <g>
       <use xlink:href="#m9d99eab915" x="57.6" y="253.777655" style="stroke: #000000; stroke-width: 0.8"/>
      </g>
     </g>
     <g id="text_11">
      <!-- 5 -->
      <g transform="translate(44.2375 257.576874) scale(0.1 -0.1)">
       <use xlink:href="#DejaVuSans-35"/>
      </g>
     </g>
    </g>
    <g id="ytick_3">
     <g id="line2d_11">
      <g>
       <use xlink:href="#m9d99eab915" x="57.6" y="212.06731" style="stroke: #000000; stroke-width: 0.8"/>
      </g>
     </g>
     <g id="text_12">
      <!-- 10 -->
      <g transform="translate(37.875 215.866529) scale(0.1 -0.1)">
       <use xlink:href="#DejaVuSans-31"/>
       <use xlink:href="#DejaVuSans-30" x="63.623047"/>
      </g>
     </g>
    </g>
    <g id="ytick_4">
     <g id="line2d_12">
      <g>
       <use xlink:href="#m9d99eab915" x="57.6" y="170.356966" style="stroke: #000000; stroke-width: 0.8"/>
      </g>
     </g>
     <g id="text_13">
      <!-- 15 -->
      <g transform="translate(37.875 174.156184) scale(0.1 -0.1)">
       <use xlink:href="#DejaVuSans-31"/>
       <use xlink:href="#DejaVuSans-35" x="63.623047"/>
      </g>
     </g>
    </g>
    <g id="ytick_5">
     <g id="line2d_13">
      <g>
       <use xlink:href="#m9d99eab915" x="57.6" y="128.646621" style="stroke: #000000; stroke-width: 0.8"/>
      </g>
     </g>
     <g id="text_14">
      <!-- 20 -->
      <g transform="translate(37.875 132.445839) scale(0.1 -0.1)">
       <use xlink:href="#DejaVuSans-32"/>
       <use xlink:href="#DejaVuSans-30" x="63.623047"/>
      </g>
     </g>
    </g>
    <g id="ytick_6">
     <g id="line2d_14">
      <g>
       <use xlink:href="#m9d99eab915" x="57.6" y="86.936276" style="stroke: #000000; stroke-width: 0.8"/>
      </g>
     </g>
     <g id="text_15">
      <!-- 25 -->
      <g transform="translate(37.875 90.735495) scale(0.1 -0.1)">
       <use xlink:href="#DejaVuSans-32"/>
       <use xlink:href="#DejaVuSans-35" x="63.623047"/>
      </g>
     </g>
    </g>
    <g id="ytick_7">
     <g id="line2d_15">
      <g>
       <use xlink:href="#m9d99eab915" x="57.6" y="45.225931" style="stroke: #000000; stroke-width: 0.8"/>
      </g>
     </g>
     <g id="text_16">
      <!-- 30 -->
      <g transform="translate(37.875 49.02515) scale(0.1 -0.1)">
       <use xlink:href="#DejaVuSans-33"/>
       <use xlink:href="#DejaVuSans-30" x="63.623047"/>
      </g>
     </g>
    </g>
   </g>
   <g id="line2d_16">
    <path d="M 73.832727 287.145931 
L 74.025587 295.488 
L 74.153242 287.145931 
L 74.34702 295.488 
L 74.472838 287.145931 
L 74.666616 295.488 
L 74.793352 287.145931 
L 74.98713 295.488 
L 75.120296 287.145931 
L 75.314074 295.488 
L 75.44081 287.145931 
L 75.63367 295.488 
L 75.759488 287.145931 
L 75.953266 295.488 
L 76.079084 287.145931 
L 76.271944 295.488 
L 76.405109 287.145931 
L 76.598887 295.488 
L 76.729297 287.145931 
L 76.922156 295.488 
L 77.050729 287.145931 
L 77.244508 295.488 
L 77.373081 287.145931 
L 77.566859 295.488 
L 77.697269 287.145931 
L 77.891047 295.488 
L 78.022375 287.145931 
L 78.216153 295.488 
L 78.347482 287.145931 
L 78.54126 295.488 
L 78.664322 287.145931 
L 78.858101 295.488 
L 84.499707 287.145931 
L 84.623688 262.119724 
L 84.820221 228.751448 
L 85.013999 295.488 
L 85.099409 287.145931 
L 85.292268 295.488 
L 85.412576 287.145931 
L 85.606354 295.488 
L 85.734009 287.145931 
L 85.927787 295.488 
L 86.05085 287.145931 
L 86.244628 295.488 
L 86.375038 287.145931 
L 86.568816 295.488 
L 86.695552 287.145931 
L 86.88933 295.488 
L 87.016067 287.145931 
L 87.209845 295.488 
L 87.342092 287.145931 
L 87.53587 295.488 
L 87.658933 287.145931 
L 87.851792 295.488 
L 87.979447 287.145931 
L 88.173225 295.488 
L 88.294451 287.145931 
L 88.488229 295.488 
L 88.614047 287.145931 
L 88.807825 295.488 
L 88.940072 287.145931 
L 89.13385 295.488 
L 89.255995 287.145931 
L 89.449773 295.488 
L 89.572836 287.145931 
L 89.766614 295.488 
L 89.89886 287.145931 
L 90.092639 295.488 
L 90.223967 287.145931 
L 90.417745 295.488 
L 90.549992 287.145931 
L 90.74377 295.488 
L 90.863159 287.145931 
L 91.056937 295.488 
L 91.191939 287.145931 
L 91.385717 295.488 
L 91.511535 287.145931 
L 91.705313 295.488 
L 91.840315 287.145931 
L 92.034093 295.488 
L 92.159911 287.145931 
L 92.353689 295.488 
L 92.47767 287.145931 
L 92.671449 295.488 
L 92.793593 287.145931 
L 92.987371 295.488 
L 93.114108 287.145931 
L 93.306967 295.488 
L 93.434622 287.145931 
L 93.627482 295.488 
L 93.750545 287.145931 
L 93.944323 295.488 
L 94.070141 287.145931 
L 94.263919 295.488 
L 94.395247 287.145931 
L 94.589025 295.488 
L 94.719435 287.145931 
L 94.913213 295.488 
L 95.038113 287.145931 
L 95.231891 295.488 
L 95.357709 287.145931 
L 95.551487 295.488 
L 95.678223 287.145931 
L 95.872002 295.488 
L 96.002411 287.145931 
L 96.19619 295.488 
L 96.321089 287.145931 
L 96.514867 295.488 
L 96.644359 287.145931 
L 96.838137 295.488 
L 96.970384 287.145931 
L 97.164162 295.488 
L 97.286306 287.145931 
L 97.480084 295.488 
L 97.604984 287.145931 
L 97.797844 295.488 
L 97.925498 287.145931 
L 98.119277 295.488 
L 98.239584 287.145931 
L 98.566527 278.803862 
L 98.760306 295.488 
L 98.880613 287.145931 
L 99.074391 295.488 
L 99.209393 287.145931 
L 99.403171 295.488 
L 99.537255 287.145931 
L 99.731033 295.488 
L 99.864198 287.145931 
L 100.057976 295.488 
L 100.191141 287.145931 
L 100.384919 295.488 
L 100.509819 287.145931 
L 100.703597 295.488 
L 100.83217 287.145931 
L 101.02503 295.488 
L 101.158195 287.145931 
L 101.351973 295.488 
L 101.480546 287.145931 
L 101.674324 295.488 
L 101.80106 287.145931 
L 101.994839 295.488 
L 102.119738 287.145931 
L 102.313516 295.488 
L 102.442089 287.145931 
L 102.635868 295.488 
L 102.770869 287.145931 
L 102.964647 295.488 
L 103.091384 287.145931 
L 103.285162 295.488 
L 103.412817 287.145931 
L 103.606595 295.488 
L 103.73425 287.145931 
L 103.928028 295.488 
L 104.057519 287.145931 
L 104.251297 295.488 
L 104.378952 287.145931 
L 104.571812 295.488 
L 104.70314 287.145931 
L 104.896918 295.488 
L 105.023655 287.145931 
L 105.217433 295.488 
L 105.339577 287.145931 
L 105.533355 295.488 
L 105.662847 287.145931 
L 105.856625 295.488 
L 105.986116 287.145931 
L 106.179895 295.488 
L 106.305713 287.145931 
L 106.499491 295.488 
L 106.61888 287.145931 
L 106.81174 295.488 
L 106.94215 287.145931 
L 107.135928 295.488 
L 107.259909 287.145931 
L 107.453687 295.488 
L 107.581342 287.145931 
L 107.77512 295.488 
L 107.90553 287.145931 
L 108.099308 295.488 
L 108.225126 287.145931 
L 108.418904 295.488 
L 108.549314 287.145931 
L 108.743092 295.488 
L 108.867992 287.145931 
L 109.060851 295.488 
L 109.184833 287.145931 
L 109.378611 295.488 
L 109.500755 287.145931 
L 109.694533 295.488 
L 109.82127 287.145931 
L 110.015048 295.488 
L 110.139947 287.145931 
L 110.333726 295.488 
L 110.46138 287.145931 
L 110.65424 295.488 
L 110.78465 287.145931 
L 110.978428 295.488 
L 112.569062 287.145931 
L 112.760085 295.488 
L 112.798656 287.145931 
L 112.990598 295.488 
L 113.021823 287.145931 
L 113.213764 295.488 
L 113.249581 287.145931 
L 113.441522 295.488 
L 113.477339 287.145931 
L 113.66928 295.488 
L 113.708771 287.145931 
L 113.899794 295.488 
L 113.940202 287.145931 
L 114.131225 295.488 
L 114.167961 287.145931 
L 114.358983 295.488 
L 114.398474 287.145931 
L 114.590415 295.488 
L 114.626232 287.145931 
L 114.818173 295.488 
L 114.855827 287.145931 
L 115.04685 295.488 
L 115.087259 287.145931 
L 115.278281 295.488 
L 115.316853 287.145931 
L 115.507876 295.488 
L 115.551959 287.145931 
L 115.7439 295.488 
L 115.781554 287.145931 
L 115.973495 295.488 
L 116.011148 287.145931 
L 116.20309 295.488 
L 116.240743 287.145931 
L 116.431766 295.488 
L 116.464828 287.145931 
L 116.656769 295.488 
L 116.698096 287.145931 
L 116.890038 295.488 
L 116.924018 287.145931 
L 117.115959 295.488 
L 117.16096 287.145931 
L 117.351983 295.488 
L 117.389636 287.145931 
L 120.142938 187.041103 
L 120.588353 178.699034 
L 128.429478 187.041103 
L 128.528663 178.699034 
L 128.608562 187.041103 
L 128.625093 170.356966 
L 128.628766 178.699034 
L 128.785809 103.620414 
L 129.064078 287.145931 
L 129.089793 278.803862 
L 129.276224 287.145931 
L 129.280816 295.488 
L 129.316632 287.145931 
L 129.508574 295.488 
L 129.549901 287.145931 
L 129.741842 295.488 
L 129.783169 287.145931 
L 129.975111 295.488 
L 130.008172 287.145931 
L 130.199195 295.488 
L 130.237767 287.145931 
L 130.42879 295.488 
L 130.467362 287.145931 
L 130.659304 295.488 
L 130.697875 287.145931 
L 130.889817 295.488 
L 130.925634 287.145931 
L 131.117575 295.488 
L 131.157984 287.145931 
L 131.349925 295.488 
L 131.389415 287.145931 
L 131.580438 295.488 
L 131.61901 287.145931 
L 131.810952 295.488 
L 131.847687 287.145931 
L 132.039628 295.488 
L 132.077282 287.145931 
L 132.269223 295.488 
L 132.301366 287.145931 
L 132.527288 278.803862 
L 132.690759 287.145931 
L 132.719229 295.488 
L 132.759638 287.145931 
L 132.951579 295.488 
L 132.993825 287.145931 
L 133.184847 295.488 
L 133.220664 287.145931 
L 133.412606 295.488 
L 133.453014 287.145931 
L 133.682609 278.803862 
L 133.842407 287.145931 
L 133.873632 295.488 
L 133.917714 287.145931 
L 134.109656 295.488 
L 134.149146 287.145931 
L 134.341087 295.488 
L 134.379659 287.145931 
L 134.571601 295.488 
L 134.610173 287.145931 
L 134.801196 295.488 
L 134.843441 287.145931 
L 135.034464 295.488 
L 135.072118 287.145931 
L 135.263141 295.488 
L 135.298039 287.145931 
L 135.489062 295.488 
L 135.522124 287.145931 
L 135.748045 278.803862 
L 135.911517 287.145931 
L 135.939986 295.488 
L 135.981313 287.145931 
L 136.172336 295.488 
L 136.207235 287.145931 
L 136.398258 295.488 
L 136.43683 287.145931 
L 136.627853 295.488 
L 136.66367 287.145931 
L 136.855611 295.488 
L 136.896938 287.145931 
L 137.087961 295.488 
L 137.129288 287.145931 
L 137.321229 295.488 
L 137.358883 287.145931 
L 137.550824 295.488 
L 137.593988 287.145931 
L 137.785011 295.488 
L 137.824501 287.145931 
L 138.016443 295.488 
L 138.053178 287.145931 
L 138.245119 295.488 
L 138.279099 287.145931 
L 138.471041 295.488 
L 138.505939 287.145931 
L 138.696962 295.488 
L 138.734616 287.145931 
L 138.926557 295.488 
L 138.963292 287.145931 
L 139.154315 295.488 
L 139.192887 287.145931 
L 139.38391 295.488 
L 139.420645 287.145931 
L 139.612586 295.488 
L 139.65024 287.145931 
L 139.841263 295.488 
L 139.883508 287.145931 
L 140.07545 295.488 
L 140.10943 287.145931 
L 140.301371 295.488 
L 140.343617 287.145931 
L 140.535558 295.488 
L 140.575048 287.145931 
L 140.803725 278.803862 
L 140.964441 287.145931 
L 140.995666 295.488 
L 141.031483 287.145931 
L 141.222506 295.488 
L 141.264751 287.145931 
L 141.456693 295.488 
L 141.498938 287.145931 
L 141.69088 295.488 
L 141.733125 287.145931 
L 141.924148 295.488 
L 141.96272 287.145931 
L 142.153743 295.488 
L 142.196907 287.145931 
L 142.388848 295.488 
L 142.422828 287.145931 
L 142.613851 295.488 
L 142.652423 287.145931 
L 142.844364 295.488 
L 142.882936 287.145931 
L 143.073959 295.488 
L 143.107021 287.145931 
L 143.298962 295.488 
L 143.338453 287.145931 
L 143.530394 295.488 
L 143.568966 287.145931 
L 143.760907 295.488 
L 143.803153 287.145931 
L 143.995094 295.488 
L 144.036421 287.145931 
L 144.228363 295.488 
L 144.263261 287.145931 
L 144.454284 295.488 
L 144.491019 287.145931 
L 144.682042 295.488 
L 144.720614 287.145931 
L 144.911637 295.488 
L 144.948372 287.145931 
L 145.140313 295.488 
L 145.182559 287.145931 
L 145.373582 295.488 
L 145.414909 287.145931 
L 145.605932 295.488 
L 145.642667 287.145931 
L 145.834608 295.488 
L 145.870425 287.145931 
L 146.061448 295.488 
L 146.101857 287.145931 
L 146.29288 295.488 
L 146.33237 287.145931 
L 146.523393 295.488 
L 146.566557 287.145931 
L 146.758498 295.488 
L 146.79707 287.145931 
L 146.989012 295.488 
L 147.025747 287.145931 
L 147.217688 295.488 
L 147.26177 287.145931 
L 147.452793 295.488 
L 147.484937 287.145931 
L 147.67596 295.488 
L 147.710858 287.145931 
L 147.902799 295.488 
L 147.934024 287.145931 
L 148.125966 295.488 
L 148.165456 287.145931 
L 148.357397 295.488 
L 148.40148 287.145931 
L 148.592502 295.488 
L 148.628319 287.145931 
L 148.819342 295.488 
L 148.856996 287.145931 
L 149.048019 295.488 
L 149.090264 287.145931 
L 149.282206 295.488 
L 149.320778 287.145931 
L 149.512719 295.488 
L 149.551291 287.145931 
L 149.743232 295.488 
L 149.784559 287.145931 
L 149.976501 295.488 
L 150.016909 287.145931 
L 150.207932 295.488 
L 150.246504 287.145931 
L 150.437527 295.488 
L 150.476099 287.145931 
L 150.66804 295.488 
L 150.705694 287.145931 
L 150.896717 295.488 
L 150.938962 287.145931 
L 151.130904 295.488 
L 151.172231 287.145931 
L 151.363254 295.488 
L 151.401826 287.145931 
L 151.593767 295.488 
L 151.635094 287.145931 
L 151.827036 295.488 
L 151.869281 287.145931 
L 152.060304 295.488 
L 152.098876 287.145931 
L 152.289899 295.488 
L 152.323879 287.145931 
L 152.51582 295.488 
L 152.552555 287.145931 
L 152.743578 295.488 
L 152.778477 287.145931 
L 152.970418 295.488 
L 153.013582 287.145931 
L 153.204605 295.488 
L 153.244095 287.145931 
L 153.436037 295.488 
L 153.467262 287.145931 
L 153.658285 295.488 
L 153.699612 287.145931 
L 153.891553 295.488 
L 153.929207 287.145931 
L 154.120229 295.488 
L 154.157883 287.145931 
L 154.348906 295.488 
L 154.392988 287.145931 
L 154.58493 295.488 
L 154.619828 287.145931 
L 154.811769 295.488 
L 154.848505 287.145931 
L 155.040446 295.488 
L 155.075344 287.145931 
L 155.305858 278.803862 
L 155.464737 287.145931 
L 155.496881 295.488 
L 155.537289 287.145931 
L 155.728312 295.488 
L 155.768721 287.145931 
L 155.960662 295.488 
L 161.512267 287.145931 
L 161.705127 278.803862 
L 161.897987 170.356966 
L 161.951253 187.041103 
L 162.135847 295.488 
L 162.175337 287.145931 
L 162.367279 295.488 
L 162.407687 287.145931 
L 162.599629 295.488 
L 162.640956 287.145931 
L 162.831979 295.488 
L 162.872387 287.145931 
L 163.06341 295.488 
L 163.09739 287.145931 
L 163.288413 295.488 
L 163.328822 287.145931 
L 163.519845 295.488 
L 163.553825 287.145931 
L 163.745766 295.488 
L 163.789849 287.145931 
L 163.98179 295.488 
L 164.02128 287.145931 
L 164.213222 295.488 
L 164.249957 287.145931 
L 164.44098 295.488 
L 164.477715 287.145931 
L 164.668738 295.488 
L 164.703636 287.145931 
L 164.894659 295.488 
L 164.929558 287.145931 
L 165.121499 295.488 
L 165.162826 287.145931 
L 165.353849 295.488 
L 165.389666 287.145931 
L 165.580689 295.488 
L 165.620179 287.145931 
L 165.812121 295.488 
L 165.847019 287.145931 
L 166.038042 295.488 
L 166.072022 287.145931 
L 166.263045 295.488 
L 166.304372 287.145931 
L 166.496313 295.488 
L 166.533967 287.145931 
L 166.725908 295.488 
L 166.76448 287.145931 
L 166.955503 295.488 
L 166.993157 287.145931 
L 167.185098 295.488 
L 172.729356 287.145931 
L 172.920379 295.488 
L 173.022319 245.435586 
L 173.192219 178.699034 
L 173.213342 195.383172 
L 173.384161 295.488 
L 173.442937 287.145931 
L 173.634878 295.488 
L 173.670695 287.145931 
L 173.862636 295.488 
L 173.899372 287.145931 
L 174.090394 295.488 
L 174.128048 287.145931 
L 174.319989 295.488 
L 174.352133 287.145931 
L 174.544074 295.488 
L 174.579891 287.145931 
L 174.770914 295.488 
L 174.812241 287.145931 
L 175.003264 295.488 
L 175.040917 287.145931 
L 175.232859 295.488 
L 175.272349 287.145931 
L 175.463372 295.488 
L 175.502862 287.145931 
L 175.694804 295.488 
L 175.729702 287.145931 
L 175.921643 295.488 
L 175.956542 287.145931 
L 176.148483 295.488 
L 176.187055 287.145931 
L 176.378078 295.488 
L 176.415732 287.145931 
L 176.607673 295.488 
L 176.650837 287.145931 
L 176.842778 295.488 
L 176.878595 287.145931 
L 177.070536 295.488 
L 177.109108 287.145931 
L 177.30105 295.488 
L 177.336866 287.145931 
L 177.527889 295.488 
L 177.56738 287.145931 
L 177.759321 295.488 
L 177.793301 287.145931 
L 177.985242 295.488 
L 183.531337 287.145931 
L 183.72236 295.488 
L 183.883995 203.725241 
L 183.997874 178.699034 
L 184.006139 187.041103 
L 184.189815 295.488 
L 184.221959 287.145931 
L 184.412981 295.488 
L 184.450635 287.145931 
L 184.641658 295.488 
L 185.712489 287.145931 
L 185.905348 295.488 
L 186.031166 287.145931 
L 186.224026 295.488 
L 186.351681 287.145931 
L 186.545459 295.488 
L 186.671277 287.145931 
L 186.865055 295.488 
L 187.000057 287.145931 
L 187.193835 295.488 
L 187.324245 287.145931 
L 187.518023 295.488 
L 187.642004 287.145931 
L 187.835782 295.488 
L 187.967111 287.145931 
L 188.160889 295.488 
L 188.286707 287.145931 
L 188.480485 295.488 
L 188.606303 287.145931 
L 188.800081 295.488 
L 188.928654 287.145931 
L 189.122432 295.488 
L 189.257434 287.145931 
L 189.451212 295.488 
L 189.580704 287.145931 
L 189.774482 295.488 
L 189.898463 287.145931 
L 190.092241 295.488 
L 190.219896 287.145931 
L 190.413674 295.488 
L 190.538574 287.145931 
L 190.731433 295.488 
L 190.857251 287.145931 
L 191.051029 295.488 
L 191.179603 287.145931 
L 191.373381 295.488 
L 191.49277 287.145931 
L 191.68563 295.488 
L 191.818795 287.145931 
L 192.012573 295.488 
L 192.142983 287.145931 
L 192.336761 295.488 
L 192.457069 287.145931 
L 192.650847 295.488 
L 192.781257 287.145931 
L 192.975035 295.488 
L 193.096261 287.145931 
L 193.290039 295.488 
L 193.418612 287.145931 
L 193.61239 295.488 
L 193.741882 287.145931 
L 193.93566 295.488 
L 194.067907 287.145931 
L 194.261685 295.488 
L 194.384747 287.145931 
L 194.578526 295.488 
L 194.707099 287.145931 
L 194.900877 295.488 
L 195.028532 287.145931 
L 195.22231 295.488 
L 195.357312 287.145931 
L 195.55109 295.488 
L 195.677826 287.145931 
L 195.871604 295.488 
L 196.002932 287.145931 
L 196.19671 295.488 
L 196.317937 287.145931 
L 196.511715 295.488 
L 196.640288 287.145931 
L 196.834066 295.488 
L 196.961721 287.145931 
L 197.155499 295.488 
L 197.290501 287.145931 
L 197.484279 295.488 
L 197.61377 287.145931 
L 197.807548 295.488 
L 197.941632 287.145931 
L 198.13541 295.488 
L 198.263983 287.145931 
L 198.457761 295.488 
L 198.576232 287.145931 
L 198.769092 295.488 
L 198.89491 287.145931 
L 199.088688 295.488 
L 199.217261 287.145931 
L 199.411039 295.488 
L 199.538694 287.145931 
L 199.732472 295.488 
L 199.853698 287.145931 
L 200.047476 295.488 
L 200.174213 287.145931 
L 200.367991 295.488 
L 200.506666 287.145931 
L 200.700444 295.488 
L 200.827181 287.145931 
L 201.020959 295.488 
L 201.151369 287.145931 
L 201.345147 295.488 
L 201.477393 287.145931 
L 201.671171 295.488 
L 201.799745 287.145931 
L 201.993523 295.488 
L 202.122096 287.145931 
L 202.315874 295.488 
L 202.439855 287.145931 
L 202.633633 295.488 
L 202.752104 287.145931 
L 202.945882 295.488 
L 203.079047 287.145931 
L 203.272826 295.488 
L 203.403235 287.145931 
L 203.597014 295.488 
L 203.72375 287.145931 
L 203.917528 295.488 
L 204.047938 287.145931 
L 204.241716 295.488 
L 204.369371 287.145931 
L 204.563149 295.488 
L 204.694477 287.145931 
L 204.888255 295.488 
L 205.02142 287.145931 
L 205.215198 295.488 
L 205.33918 287.145931 
L 205.532039 295.488 
L 211.177319 287.145931 
L 211.332525 270.461793 
L 211.55661 228.751448 
L 211.687938 278.803862 
L 211.750388 287.145931 
L 211.91937 295.488 
L 212.047943 287.145931 
L 212.241721 295.488 
L 212.365702 287.145931 
L 212.55948 295.488 
L 212.683462 287.145931 
L 212.87724 295.488 
L 213.000303 287.145931 
L 213.194081 295.488 
L 213.322654 287.145931 
L 213.516432 295.488 
L 213.65327 287.145931 
L 213.847049 295.488 
L 213.974703 287.145931 
L 214.168481 295.488 
L 214.306238 287.145931 
L 214.500016 295.488 
L 214.627671 287.145931 
L 214.821449 295.488 
L 214.953696 287.145931 
L 215.146556 295.488 
L 215.272374 287.145931 
L 215.466152 295.488 
L 215.59197 287.145931 
L 215.785748 295.488 
L 215.916158 287.145931 
L 216.109936 295.488 
L 216.236672 287.145931 
L 216.43045 295.488 
L 216.56086 287.145931 
L 216.754638 295.488 
L 216.890559 287.145931 
L 217.084337 295.488 
L 217.205563 287.145931 
L 217.399341 295.488 
L 217.515057 287.145931 
L 217.708835 295.488 
L 217.830061 287.145931 
L 218.023839 295.488 
L 218.156086 287.145931 
L 218.349864 295.488 
L 218.481192 287.145931 
L 218.67497 295.488 
L 218.813646 287.145931 
L 219.007424 295.488 
L 219.135997 287.145931 
L 219.329775 295.488 
L 219.449164 287.145931 
L 219.642942 295.488 
L 219.777944 287.145931 
L 219.971722 295.488 
L 220.107642 287.145931 
L 220.301421 295.488 
L 220.422647 287.145931 
L 220.616425 295.488 
L 220.740406 287.145931 
L 220.934184 295.488 
L 221.062757 287.145931 
L 221.256535 295.488 
L 221.375006 287.145931 
L 221.568784 295.488 
L 221.70195 287.145931 
L 221.895728 295.488 
L 222.027056 287.145931 
L 227.844991 278.803862 
L 228.088361 270.461793 
L 228.208669 178.699034 
L 238.649727 187.041103 
L 238.781974 178.699034 
L 238.926159 145.330759 
L 238.967487 153.672828 
L 239.009732 111.962483 
L 239.17504 53.568 
L 239.29994 195.383172 
L 239.425758 287.145931 
L 239.586474 278.803862 
L 239.592903 287.145931 
L 239.768314 278.803862 
L 239.777497 287.145931 
L 239.947398 278.803862 
L 239.959337 287.145931 
L 240.128318 278.803862 
L 240.139339 287.145931 
L 240.311994 278.803862 
L 240.319341 287.145931 
L 240.492915 278.803862 
L 240.503017 287.145931 
L 240.675673 278.803862 
L 240.683938 287.145931 
L 240.854757 278.803862 
L 240.867614 287.145931 
L 241.223027 270.461793 
L 241.245986 287.145931 
L 241.410376 278.803862 
L 241.41405 287.145931 
L 241.594052 278.803862 
L 241.602318 287.145931 
L 241.773136 278.803862 
L 241.785994 287.145931 
L 241.958649 278.803862 
L 241.965078 287.145931 
L 242.142325 278.803862 
L 242.149672 287.145931 
L 242.327838 278.803862 
L 242.333348 287.145931 
L 242.512432 278.803862 
L 242.518861 287.145931 
L 242.690598 278.803862 
L 242.704373 287.145931 
L 242.873355 278.803862 
L 242.882539 287.145931 
L 243.051521 278.803862 
L 243.064378 287.145931 
L 243.232442 278.803862 
L 243.243462 287.145931 
L 243.419791 278.803862 
L 243.424383 287.145931 
L 243.603467 278.803862 
L 243.610814 287.145931 
L 243.785306 278.803862 
L 243.79449 287.145931 
L 243.96439 278.803862 
L 243.976329 287.145931 
L 246.716774 162.014897 
L 246.903205 153.672828 
L 255.16954 162.014897 
L 255.30546 153.672828 
L 255.415666 145.330759 
L 255.501075 153.672828 
L 255.513932 136.98869 
L 255.69669 53.568 
L 255.876692 220.409379 
L 256.06496 287.145931 
L 256.246799 278.803862 
L 256.250473 287.145931 
L 256.432312 278.803862 
L 256.437822 287.145931 
L 256.614151 278.803862 
L 256.624253 287.145931 
L 256.798745 278.803862 
L 256.805174 287.145931 
L 256.984258 278.803862 
L 256.989768 287.145931 
L 257.348855 270.461793 
L 257.375488 287.145931 
L 257.531612 278.803862 
L 257.539878 287.145931 
L 257.711615 278.803862 
L 257.722635 287.145931 
L 257.898046 278.803862 
L 257.903556 287.145931 
L 258.084477 278.803862 
L 258.089069 287.145931 
L 258.268153 278.803862 
L 258.276418 287.145931 
L 258.455502 278.803862 
L 258.459176 287.145931 
L 258.641933 278.803862 
L 258.646525 287.145931 
L 258.829283 278.803862 
L 258.832956 287.145931 
L 259.012959 278.803862 
L 259.021224 287.145931 
L 259.200308 278.803862 
L 259.2049 287.145931 
L 259.383984 278.803862 
L 259.391331 287.145931 
L 259.569497 278.803862 
L 259.575925 287.145931 
L 259.753173 278.803862 
L 259.76052 287.145931 
L 259.940522 278.803862 
L 259.945114 287.145931 
L 260.124198 278.803862 
L 260.131545 287.145931 
L 260.309711 278.803862 
L 260.315221 287.145931 
L 260.492468 278.803862 
L 260.500734 287.145931 
L 260.678899 278.803862 
L 260.68441 287.145931 
L 260.86533 278.803862 
L 260.869922 287.145931 
L 261.051761 278.803862 
L 261.056353 287.145931 
L 261.239111 278.803862 
L 261.242784 287.145931 
L 261.421868 278.803862 
L 261.430134 287.145931 
L 261.606463 278.803862 
L 261.612891 287.145931 
L 261.791057 278.803862 
L 261.797486 287.145931 
L 261.973815 278.803862 
L 261.98208 287.145931 
L 262.153817 278.803862 
L 262.165756 287.145931 
L 262.333819 278.803862 
L 262.34484 287.145931 
L 262.522087 278.803862 
L 262.525761 287.145931 
L 262.706682 278.803862 
L 262.71311 287.145931 
L 262.890357 278.803862 
L 262.897704 287.145931 
L 263.074033 278.803862 
L 263.082299 287.145931 
L 263.256791 278.803862 
L 263.265056 287.145931 
L 263.439548 278.803862 
L 263.448732 287.145931 
L 263.62598 278.803862 
L 263.630571 287.145931 
L 263.811492 278.803862 
L 263.817002 287.145931 
L 263.991495 278.803862 
L 264.002515 287.145931 
L 264.175171 278.803862 
L 264.182518 287.145931 
L 264.356091 278.803862 
L 264.366194 287.145931 
L 264.539767 278.803862 
L 264.547114 287.145931 
L 264.722525 278.803862 
L 264.73079 287.145931 
L 264.903446 278.803862 
L 264.913548 287.145931 
L 265.088958 278.803862 
L 265.095387 287.145931 
L 265.274471 278.803862 
L 265.279981 287.145931 
L 265.459984 278.803862 
L 265.466412 287.145931 
L 265.644578 278.803862 
L 265.651007 287.145931 
L 265.827335 278.803862 
L 265.835601 287.145931 
L 266.010093 278.803862 
L 266.018358 287.145931 
L 266.191932 278.803862 
L 266.201116 287.145931 
L 266.371935 278.803862 
L 266.382955 287.145931 
L 266.558366 278.803862 
L 266.562958 287.145931 
L 266.73745 278.803862 
L 266.750307 287.145931 
L 266.923881 278.803862 
L 266.929391 287.145931 
L 267.106638 278.803862 
L 267.114904 287.145931 
L 267.292151 278.803862 
L 267.297661 287.145931 
L 267.472153 278.803862 
L 267.484092 287.145931 
L 267.654911 278.803862 
L 267.664095 287.145931 
L 267.833077 278.803862 
L 267.845934 287.145931 
L 268.016753 278.803862 
L 268.0241 287.145931 
L 268.19951 278.803862 
L 268.207775 287.145931 
L 268.385023 278.803862 
L 268.390533 287.145931 
L 268.566862 278.803862 
L 268.576046 287.145931 
L 268.749619 278.803862 
L 268.758803 287.145931 
L 268.935132 278.803862 
L 268.940642 287.145931 
L 269.11789 278.803862 
L 269.126155 287.145931 
L 269.304321 278.803862 
L 269.308913 287.145931 
L 269.490752 278.803862 
L 269.495344 287.145931 
L 269.673509 278.803862 
L 269.681775 287.145931 
L 269.853512 278.803862 
L 269.864532 287.145931 
L 270.033514 278.803862 
L 270.044535 287.145931 
L 270.215353 278.803862 
L 270.225456 287.145931 
L 270.399948 278.803862 
L 270.407295 287.145931 
L 270.581787 278.803862 
L 270.590971 287.145931 
L 270.764544 278.803862 
L 270.77281 287.145931 
L 270.950057 278.803862 
L 270.955567 287.145931 
L 271.130059 278.803862 
L 271.14108 287.145931 
L 271.312817 278.803862 
L 271.321082 287.145931 
L 271.493738 278.803862 
L 271.50384 287.145931 
L 271.674659 278.803862 
L 271.684761 287.145931 
L 277.210651 295.488 
L 277.420042 278.803862 
L 277.649636 136.98869 
L 277.676269 153.672828 
L 277.938008 278.803862 
L 277.968314 287.145931 
L 278.1125 278.803862 
L 278.121684 287.145931 
L 278.297094 278.803862 
L 278.303523 287.145931 
L 278.479852 278.803862 
L 278.488117 287.145931 
L 278.661691 278.803862 
L 278.670875 287.145931 
L 278.844448 278.803862 
L 278.852714 287.145931 
L 279.033635 278.803862 
L 279.03639 287.145931 
L 279.218229 278.803862 
L 279.224658 287.145931 
L 279.403742 278.803862 
L 279.409252 287.145931 
L 279.587417 278.803862 
L 279.594764 287.145931 
L 279.771093 278.803862 
L 279.779359 287.145931 
L 279.953851 278.803862 
L 279.962116 287.145931 
L 280.134772 278.803862 
L 280.144874 287.145931 
L 280.318448 278.803862 
L 280.325795 287.145931 
L 280.503042 278.803862 
L 280.509471 287.145931 
L 280.685799 278.803862 
L 280.694065 287.145931 
L 280.865802 278.803862 
L 280.876822 287.145931 
L 281.046723 278.803862 
L 281.056825 287.145931 
L 281.227643 278.803862 
L 281.237746 287.145931 
L 281.407646 278.803862 
L 281.418666 287.145931 
L 281.589485 278.803862 
L 281.598669 287.145931 
L 281.773161 278.803862 
L 281.780508 287.145931 
L 281.955 278.803862 
L 281.964184 287.145931 
L 282.135003 278.803862 
L 282.146023 287.145931 
L 282.31776 278.803862 
L 282.326026 287.145931 
L 282.502354 278.803862 
L 282.508783 287.145931 
L 282.68603 278.803862 
L 282.694296 287.145931 
L 282.865114 278.803862 
L 282.877053 287.145931 
L 283.046954 278.803862 
L 283.056137 287.145931 
L 283.229711 278.803862 
L 283.237976 287.145931 
L 283.417061 278.803862 
L 283.421652 287.145931 
L 283.597981 278.803862 
L 283.608083 287.145931 
L 283.782576 278.803862 
L 283.789004 287.145931 
L 283.96717 278.803862 
L 283.974517 287.145931 
L 284.149009 278.803862 
L 284.158193 287.145931 
L 284.333603 278.803862 
L 284.34095 287.145931 
L 284.514524 278.803862 
L 284.525545 287.145931 
L 284.696363 278.803862 
L 284.705547 287.145931 
L 284.880039 278.803862 
L 284.887386 287.145931 
L 285.060042 278.803862 
L 285.071062 287.145931 
L 285.240044 278.803862 
L 285.251065 287.145931 
L 285.425557 278.803862 
L 285.431067 287.145931 
L 285.614743 278.803862 
L 285.61658 287.145931 
L 285.794745 278.803862 
L 285.805766 287.145931 
L 285.978421 278.803862 
L 285.985768 287.145931 
L 286.162097 278.803862 
L 286.169444 287.145931 
L 286.34761 278.803862 
L 286.35312 287.145931 
L 286.535878 278.803862 
L 286.538633 287.145931 
L 286.716799 278.803862 
L 286.727819 287.145931 
L 286.900474 278.803862 
L 286.90874 287.145931 
L 287.081395 278.803862 
L 287.091497 287.145931 
L 287.264153 278.803862 
L 287.273337 287.145931 
L 287.445074 278.803862 
L 287.456094 287.145931 
L 287.632423 278.803862 
L 287.637015 287.145931 
L 287.816099 278.803862 
L 287.824364 287.145931 
L 287.998856 278.803862 
L 288.00804 287.145931 
L 288.183451 278.803862 
L 288.189879 287.145931 
L 288.368963 278.803862 
L 288.375392 287.145931 
L 288.554476 278.803862 
L 288.560905 287.145931 
L 288.73907 278.803862 
L 288.745499 287.145931 
L 288.919991 278.803862 
L 288.930093 287.145931 
L 289.102749 278.803862 
L 289.111014 287.145931 
L 289.28918 278.803862 
L 289.293772 287.145931 
L 289.474693 278.803862 
L 289.480203 287.145931 
L 289.661124 278.803862 
L 289.665715 287.145931 
L 289.842963 278.803862 
L 289.852147 287.145931 
L 290.022965 278.803862 
L 290.033986 287.145931 
L 290.211233 278.803862 
L 290.214907 287.145931 
L 290.397664 278.803862 
L 290.402256 287.145931 
L 290.579503 278.803862 
L 290.588687 287.145931 
L 290.764098 278.803862 
L 290.771445 287.145931 
L 290.9441 278.803862 
L 290.95512 287.145931 
L 291.130531 278.803862 
L 291.135123 287.145931 
L 291.316962 278.803862 
L 291.321554 287.145931 
L 291.49972 278.803862 
L 291.507985 287.145931 
L 291.683396 278.803862 
L 291.690743 287.145931 
L 291.865235 278.803862 
L 291.874418 287.145931 
L 292.049829 278.803862 
L 292.056258 287.145931 
L 292.23075 278.803862 
L 292.240852 287.145931 
L 292.416262 278.803862 
L 292.422691 287.145931 
L 292.599938 278.803862 
L 292.608204 287.145931 
L 292.788206 278.803862 
L 292.790961 287.145931 
L 292.979229 295.488 
L 327.889594 287.145931 
L 328.070515 278.803862 
L 328.080617 287.145931 
L 328.250517 278.803862 
L 328.261538 287.145931 
L 328.435111 278.803862 
L 328.44154 287.145931 
L 328.614196 278.803862 
L 328.626134 287.145931 
L 328.800627 278.803862 
L 328.805218 287.145931 
L 328.988894 278.803862 
L 328.99165 287.145931 
L 329.17257 278.803862 
L 329.180836 287.145931 
L 329.353491 278.803862 
L 329.364512 287.145931 
L 329.543596 278.803862 
L 329.544514 287.145931 
L 329.731864 278.803862 
L 329.734619 287.145931 
L 329.916458 278.803862 
L 329.922886 287.145931 
L 330.09646 278.803862 
L 330.107481 287.145931 
L 330.281055 278.803862 
L 330.287483 287.145931 
L 330.463812 278.803862 
L 330.472077 287.145931 
L 330.643814 278.803862 
L 330.654835 287.145931 
L 330.830246 278.803862 
L 330.835756 287.145931 
L 331.018513 278.803862 
L 331.021269 287.145931 
L 331.202189 278.803862 
L 331.209536 287.145931 
L 331.390457 278.803862 
L 331.393212 287.145931 
L 331.571378 278.803862 
L 331.58148 287.145931 
L 331.75138 278.803862 
L 331.762401 287.145931 
L 331.934138 278.803862 
L 331.942403 287.145931 
L 332.116895 278.803862 
L 332.125161 287.145931 
L 332.299653 278.803862 
L 332.307918 287.145931 
L 332.481492 278.803862 
L 332.491594 287.145931 
L 332.665168 278.803862 
L 332.673433 287.145931 
L 332.852517 278.803862 
L 332.856191 287.145931 
L 333.04354 295.488 
L 334.312741 287.145931 
L 334.506519 295.488 
L 334.636011 287.145931 
L 334.829789 295.488 
L 334.954688 287.145931 
L 335.148467 295.488 
L 335.273366 287.145931 
L 335.467144 295.488 
L 335.596636 287.145931 
L 335.790414 295.488 
L 335.926334 287.145931 
L 336.120112 295.488 
L 336.244093 287.145931 
L 336.437872 295.488 
L 336.568281 287.145931 
L 336.76206 295.488 
L 336.885122 287.145931 
L 337.077982 295.488 
L 337.207474 287.145931 
L 337.53258 278.803862 
L 337.726358 295.488 
L 337.858605 287.145931 
L 338.052383 295.488 
L 338.178201 287.145931 
L 338.371979 295.488 
L 338.495042 287.145931 
L 338.68882 295.488 
L 338.810965 287.145931 
L 339.004743 295.488 
L 339.127805 287.145931 
L 339.320665 295.488 
L 339.44281 287.145931 
L 339.635669 295.488 
L 339.764243 287.145931 
L 339.958021 295.488 
L 340.078328 287.145931 
L 340.272107 295.488 
L 340.401598 287.145931 
L 340.595376 295.488 
L 340.730378 287.145931 
L 340.924156 295.488 
L 341.048137 287.145931 
L 341.241915 295.488 
L 341.365897 287.145931 
L 341.559675 295.488 
L 341.691921 287.145931 
L 341.8857 295.488 
L 342.016109 287.145931 
L 342.209888 295.488 
L 342.336624 287.145931 
L 342.530402 295.488 
L 342.666322 287.145931 
L 342.8601 295.488 
L 342.989592 287.145931 
L 343.314698 278.803862 
L 343.507558 295.488 
L 343.637049 287.145931 
L 343.830828 295.488 
L 343.957564 287.145931 
L 344.151342 295.488 
L 344.285425 287.145931 
L 344.479204 295.488 
L 344.606858 287.145931 
L 344.800636 295.488 
L 344.926454 287.145931 
L 345.120233 295.488 
L 345.246969 287.145931 
L 345.440747 295.488 
L 345.565647 287.145931 
L 345.759425 295.488 
L 345.884324 287.145931 
L 346.078103 295.488 
L 346.203921 287.145931 
L 346.397699 295.488 
L 346.525353 287.145931 
L 346.719131 295.488 
L 346.843113 287.145931 
L 347.036891 295.488 
L 347.167301 287.145931 
L 347.361079 295.488 
L 347.483223 287.145931 
L 347.677001 295.488 
L 347.801901 287.145931 
L 347.995679 295.488 
L 348.121497 287.145931 
L 348.315275 295.488 
L 348.44293 287.145931 
L 348.768036 278.803862 
L 348.961815 295.488 
L 349.090388 287.145931 
L 349.284166 295.488 
L 349.410902 287.145931 
L 349.60468 295.488 
L 349.725906 287.145931 
L 349.919684 295.488 
L 350.040911 287.145931 
L 350.234689 295.488 
L 350.354078 287.145931 
L 350.547856 295.488 
L 350.679184 287.145931 
L 350.872044 295.488 
L 351.001536 287.145931 
L 351.195314 295.488 
L 351.324805 287.145931 
L 351.518583 295.488 
L 351.642565 287.145931 
L 351.836343 295.488 
L 351.965834 287.145931 
L 352.159612 295.488 
L 352.290941 287.145931 
L 352.484719 295.488 
L 352.615129 287.145931 
L 352.808907 295.488 
L 352.936562 287.145931 
L 353.13034 295.488 
L 353.258913 287.145931 
L 353.452691 295.488 
L 353.583101 287.145931 
L 353.776879 295.488 
L 353.904534 287.145931 
L 354.098312 295.488 
L 354.227803 287.145931 
L 354.421581 295.488 
L 360.058596 287.145931 
L 360.335028 220.409379 
L 360.528806 295.488 
L 360.658297 287.145931 
L 360.852076 295.488 
L 360.971465 287.145931 
L 361.165243 295.488 
L 361.294735 287.145931 
L 361.488513 295.488 
L 361.617086 287.145931 
L 361.809946 295.488 
L 361.936682 287.145931 
L 362.13046 295.488 
L 362.257196 287.145931 
L 362.450975 295.488 
L 362.585976 287.145931 
L 362.779754 295.488 
L 362.908328 287.145931 
L 363.102106 295.488 
L 363.227924 287.145931 
L 363.420783 295.488 
L 363.544765 287.145931 
L 363.738543 295.488 
L 363.871708 287.145931 
L 364.065486 295.488 
L 364.194977 287.145931 
L 364.388756 295.488 
L 364.518247 287.145931 
L 364.712025 295.488 
L 364.837843 287.145931 
L 365.031621 295.488 
L 365.16295 287.145931 
L 365.356728 295.488 
L 365.487138 287.145931 
L 365.680916 295.488 
L 365.80306 287.145931 
L 365.996838 295.488 
L 366.122656 287.145931 
L 366.43766 278.803862 
L 366.631439 295.488 
L 366.760012 287.145931 
L 366.95379 295.488 
L 367.081445 287.145931 
L 367.275223 295.488 
L 367.397367 287.145931 
L 367.591145 295.488 
L 367.716045 287.145931 
L 367.909823 295.488 
L 368.041151 287.145931 
L 368.234929 295.488 
L 368.361666 287.145931 
L 368.555444 295.488 
L 368.67667 287.145931 
L 368.870448 295.488 
L 369.000858 287.145931 
L 369.194636 295.488 
L 369.321373 287.145931 
L 369.515151 295.488 
L 369.640969 287.145931 
L 369.833828 295.488 
L 369.96332 287.145931 
L 370.157098 295.488 
L 370.285671 287.145931 
L 370.479449 295.488 
L 370.610778 287.145931 
L 370.804556 295.488 
L 370.930374 287.145931 
L 371.124152 295.488 
L 371.250888 287.145931 
L 371.444666 295.488 
L 372.337331 287.145931 
L 372.528354 295.488 
L 372.569681 287.145931 
L 372.760704 295.488 
L 372.799276 287.145931 
L 372.991218 295.488 
L 373.033463 287.145931 
L 373.224486 295.488 
L 373.262139 287.145931 
L 373.454081 295.488 
L 373.493571 287.145931 
L 373.684594 295.488 
L 373.722248 287.145931 
L 373.914189 295.488 
L 373.950924 287.145931 
L 374.141947 295.488 
L 374.184193 287.145931 
L 374.375216 295.488 
L 374.408277 287.145931 
L 374.5993 295.488 
L 374.640627 287.145931 
L 374.832569 295.488 
L 374.874814 287.145931 
L 375.065837 295.488 
L 375.099817 287.145931 
L 375.291758 295.488 
L 375.334004 287.145931 
L 375.525027 295.488 
L 375.558089 287.145931 
L 375.75003 295.488 
L 375.781255 287.145931 
L 375.973196 295.488 
L 376.009013 287.145931 
L 376.200036 295.488 
L 376.241363 287.145931 
L 376.433304 295.488 
L 376.470958 287.145931 
L 376.662899 295.488 
L 376.704226 287.145931 
L 376.895249 295.488 
L 376.935658 287.145931 
L 377.127599 295.488 
L 377.161579 287.145931 
L 377.352602 295.488 
L 377.385664 287.145931 
L 377.577605 295.488 
L 377.610667 287.145931 
L 377.80169 295.488 
L 377.843017 287.145931 
L 378.034958 295.488 
L 378.074449 287.145931 
L 378.26639 295.488 
L 378.30588 287.145931 
L 378.497822 295.488 
L 378.539149 287.145931 
L 378.730172 295.488 
L 378.77058 287.145931 
L 378.962522 295.488 
L 379.001094 287.145931 
L 379.192117 295.488 
L 379.228852 287.145931 
L 379.420793 295.488 
L 379.458447 287.145931 
L 379.64947 295.488 
L 379.688042 287.145931 
L 379.879065 295.488 
L 379.919473 287.145931 
L 380.111415 295.488 
L 380.15366 287.145931 
L 380.344683 295.488 
L 380.38601 287.145931 
L 380.577952 295.488 
L 380.616524 287.145931 
L 380.851629 278.803862 
L 381.005917 287.145931 
L 381.080305 278.803862 
L 381.241022 287.145931 
L 381.271328 295.488 
L 381.30439 287.145931 
L 381.495413 295.488 
L 381.535822 287.145931 
L 381.726845 295.488 
L 381.768172 287.145931 
L 381.959195 295.488 
L 387.505289 287.145931 
L 387.640291 270.461793 
L 387.878151 170.356966 
L 387.885498 178.699034 
L 388.070093 287.145931 
L 388.157339 295.488 
L 388.198666 287.145931 
L 388.390607 295.488 
L 388.431016 287.145931 
L 388.622957 295.488 
L 388.661529 287.145931 
L 388.852552 295.488 
L 388.892961 287.145931 
L 389.084902 295.488 
L 389.120719 287.145931 
L 389.355824 278.803862 
L 389.51103 287.145931 
L 389.546847 295.488 
L 389.589093 287.145931 
L 389.781034 295.488 
L 389.821443 287.145931 
L 390.012466 295.488 
L 390.046446 287.145931 
L 390.238387 295.488 
L 390.280632 287.145931 
L 390.472574 295.488 
L 390.508391 287.145931 
L 390.700332 295.488 
L 390.740741 287.145931 
L 390.932682 295.488 
L 390.968499 287.145931 
L 391.159522 295.488 
L 391.192583 287.145931 
L 391.383606 295.488 
L 391.42126 287.145931 
L 391.612283 295.488 
L 391.6481 287.145931 
L 391.839123 295.488 
L 391.879531 287.145931 
L 392.070554 295.488 
L 392.1128 287.145931 
L 392.304741 295.488 
L 392.344231 287.145931 
L 392.535254 295.488 
L 392.573826 287.145931 
L 392.765768 295.488 
L 392.807095 287.145931 
L 392.998118 295.488 
L 393.035771 287.145931 
L 393.226794 295.488 
L 393.265366 287.145931 
L 393.457308 295.488 
L 393.494043 287.145931 
L 393.685984 295.488 
L 393.718127 287.145931 
L 393.910069 295.488 
L 393.947722 287.145931 
L 394.139664 295.488 
L 394.174562 287.145931 
L 394.365585 295.488 
L 394.404157 287.145931 
L 394.596098 295.488 
L 394.638344 287.145931 
L 394.829367 295.488 
L 394.870694 287.145931 
L 395.062635 295.488 
L 395.097534 287.145931 
L 395.288556 295.488 
L 395.323455 287.145931 
L 395.515396 295.488 
L 395.550295 287.145931 
L 395.742236 295.488 
L 395.778053 287.145931 
L 395.969076 295.488 
L 396.003056 287.145931 
L 396.194079 295.488 
L 396.230814 287.145931 
L 396.422755 295.488 
L 396.462246 287.145931 
L 396.654187 295.488 
L 396.697351 287.145931 
L 396.889292 295.488 
L 396.923272 287.145931 
L 397.115214 295.488 
L 397.156541 287.145931 
L 397.348482 295.488 
L 397.387054 287.145931 
L 397.578077 295.488 
L 397.612975 287.145931 
L 397.804917 295.488 
L 397.837978 287.145931 
L 398.02992 295.488 
L 398.067573 287.145931 
L 398.258596 295.488 
L 398.29625 287.145931 
L 398.487273 295.488 
L 398.487273 295.488 
" clip-path="url(#pea5b728dcf)" style="fill: none; stroke: #1f77b4; stroke-width: 1.5; stroke-linecap: square"/>
   </g>
   <g id="patch_3">
    <path d="M 57.6 307.584 
L 57.6 41.472 
" style="fill: none; stroke: #000000; stroke-width: 0.8; stroke-linejoin: miter; stroke-linecap: square"/>
   </g>
   <g id="patch_4">
    <path d="M 414.72 307.584 
L 414.72 41.472 
" style="fill: none; stroke: #000000; stroke-width: 0.8; stroke-linejoin: miter; stroke-linecap: square"/>
   </g>
   <g id="patch_5">
    <path d="M 57.6 307.584 
L 414.72 307.584 
" style="fill: none; stroke: #000000; stroke-width: 0.8; stroke-linejoin: miter; stroke-linecap: square"/>
   </g>
   <g id="patch_6">
    <path d="M 57.6 41.472 
L 414.72 41.472 
" style="fill: none; stroke: #000000; stroke-width: 0.8; stroke-linejoin: miter; stroke-linecap: square"/>
   </g>
   <g id="text_17">
    <!-- Queue size (y-axis) between S3 and sensors that follow at a time (x-axis). -->
    <g transform="translate(14.282813 35.472) scale(0.12 -0.12)">
     <defs>
      <path id="DejaVuSans-51" d="M 2522 4238 
Q 1834 4238 1429 3725 
Q 1025 3213 1025 2328 
Q 1025 1447 1429 934 
Q 1834 422 2522 422 
Q 3209 422 3611 934 
Q 4013 1447 4013 2328 
Q 4013 3213 3611 3725 
Q 3209 4238 2522 4238 
z
M 3406 84 
L 4238 -825 
L 3475 -825 
L 2784 -78 
Q 2681 -84 2626 -87 
Q 2572 -91 2522 -91 
Q 1538 -91 948 567 
Q 359 1225 359 2328 
Q 359 3434 948 4092 
Q 1538 4750 2522 4750 
Q 3503 4750 4090 4092 
Q 4678 3434 4678 2328 
Q 4678 1516 4351 937 
Q 4025 359 3406 84 
z
" transform="scale(0.015625)"/>
      <path id="DejaVuSans-75" d="M 544 1381 
L 544 3500 
L 1119 3500 
L 1119 1403 
Q 1119 906 1312 657 
Q 1506 409 1894 409 
Q 2359 409 2629 706 
Q 2900 1003 2900 1516 
L 2900 3500 
L 3475 3500 
L 3475 0 
L 2900 0 
L 2900 538 
Q 2691 219 2414 64 
Q 2138 -91 1772 -91 
Q 1169 -91 856 284 
Q 544 659 544 1381 
z
M 1991 3584 
L 1991 3584 
z
" transform="scale(0.015625)"/>
      <path id="DejaVuSans-20" transform="scale(0.015625)"/>
      <path id="DejaVuSans-73" d="M 2834 3397 
L 2834 2853 
Q 2591 2978 2328 3040 
Q 2066 3103 1784 3103 
Q 1356 3103 1142 2972 
Q 928 2841 928 2578 
Q 928 2378 1081 2264 
Q 1234 2150 1697 2047 
L 1894 2003 
Q 2506 1872 2764 1633 
Q 3022 1394 3022 966 
Q 3022 478 2636 193 
Q 2250 -91 1575 -91 
Q 1294 -91 989 -36 
Q 684 19 347 128 
L 347 722 
Q 666 556 975 473 
Q 1284 391 1588 391 
Q 1994 391 2212 530 
Q 2431 669 2431 922 
Q 2431 1156 2273 1281 
Q 2116 1406 1581 1522 
L 1381 1569 
Q 847 1681 609 1914 
Q 372 2147 372 2553 
Q 372 3047 722 3315 
Q 1072 3584 1716 3584 
Q 2034 3584 2315 3537 
Q 2597 3491 2834 3397 
z
" transform="scale(0.015625)"/>
      <path id="DejaVuSans-69" d="M 603 3500 
L 1178 3500 
L 1178 0 
L 603 0 
L 603 3500 
z
M 603 4863 
L 1178 4863 
L 1178 4134 
L 603 4134 
L 603 4863 
z
" transform="scale(0.015625)"/>
      <path id="DejaVuSans-7a" d="M 353 3500 
L 3084 3500 
L 3084 2975 
L 922 459 
L 3084 459 
L 3084 0 
L 275 0 
L 275 525 
L 2438 3041 
L 353 3041 
L 353 3500 
z
" transform="scale(0.015625)"/>
      <path id="DejaVuSans-28" d="M 1984 4856 
Q 1566 4138 1362 3434 
Q 1159 2731 1159 2009 
Q 1159 1288 1364 580 
Q 1569 -128 1984 -844 
L 1484 -844 
Q 1016 -109 783 600 
Q 550 1309 550 2009 
Q 550 2706 781 3412 
Q 1013 4119 1484 4856 
L 1984 4856 
z
" transform="scale(0.015625)"/>
      <path id="DejaVuSans-79" d="M 2059 -325 
Q 1816 -950 1584 -1140 
Q 1353 -1331 966 -1331 
L 506 -1331 
L 506 -850 
L 844 -850 
Q 1081 -850 1212 -737 
Q 1344 -625 1503 -206 
L 1606 56 
L 191 3500 
L 800 3500 
L 1894 763 
L 2988 3500 
L 3597 3500 
L 2059 -325 
z
" transform="scale(0.015625)"/>
      <path id="DejaVuSans-2d" d="M 313 2009 
L 1997 2009 
L 1997 1497 
L 313 1497 
L 313 2009 
z
" transform="scale(0.015625)"/>
      <path id="DejaVuSans-61" d="M 2194 1759 
Q 1497 1759 1228 1600 
Q 959 1441 959 1056 
Q 959 750 1161 570 
Q 1363 391 1709 391 
Q 2188 391 2477 730 
Q 2766 1069 2766 1631 
L 2766 1759 
L 2194 1759 
z
M 3341 1997 
L 3341 0 
L 2766 0 
L 2766 531 
Q 2569 213 2275 61 
Q 1981 -91 1556 -91 
Q 1019 -91 701 211 
Q 384 513 384 1019 
Q 384 1609 779 1909 
Q 1175 2209 1959 2209 
L 2766 2209 
L 2766 2266 
Q 2766 2663 2505 2880 
Q 2244 3097 1772 3097 
Q 1472 3097 1187 3025 
Q 903 2953 641 2809 
L 641 3341 
Q 956 3463 1253 3523 
Q 1550 3584 1831 3584 
Q 2591 3584 2966 3190 
Q 3341 2797 3341 1997 
z
" transform="scale(0.015625)"/>
      <path id="DejaVuSans-78" d="M 3513 3500 
L 2247 1797 
L 3578 0 
L 2900 0 
L 1881 1375 
L 863 0 
L 184 0 
L 1544 1831 
L 300 3500 
L 978 3500 
L 1906 2253 
L 2834 3500 
L 3513 3500 
z
" transform="scale(0.015625)"/>
      <path id="DejaVuSans-29" d="M 513 4856 
L 1013 4856 
Q 1481 4119 1714 3412 
Q 1947 2706 1947 2009 
Q 1947 1309 1714 600 
Q 1481 -109 1013 -844 
L 513 -844 
Q 928 -128 1133 580 
Q 1338 1288 1338 2009 
Q 1338 2731 1133 3434 
Q 928 4138 513 4856 
z
" transform="scale(0.015625)"/>
      <path id="DejaVuSans-62" d="M 3116 1747 
Q 3116 2381 2855 2742 
Q 2594 3103 2138 3103 
Q 1681 3103 1420 2742 
Q 1159 2381 1159 1747 
Q 1159 1113 1420 752 
Q 1681 391 2138 391 
Q 2594 391 2855 752 
Q 3116 1113 3116 1747 
z
M 1159 2969 
Q 1341 3281 1617 3432 
Q 1894 3584 2278 3584 
Q 2916 3584 3314 3078 
Q 3713 2572 3713 1747 
Q 3713 922 3314 415 
Q 2916 -91 2278 -91 
Q 1894 -91 1617 61 
Q 1341 213 1159 525 
L 1159 0 
L 581 0 
L 581 4863 
L 1159 4863 
L 1159 2969 
z
" transform="scale(0.015625)"/>
      <path id="DejaVuSans-74" d="M 1172 4494 
L 1172 3500 
L 2356 3500 
L 2356 3053 
L 1172 3053 
L 1172 1153 
Q 1172 725 1289 603 
Q 1406 481 1766 481 
L 2356 481 
L 2356 0 
L 1766 0 
Q 1100 0 847 248 
Q 594 497 594 1153 
L 594 3053 
L 172 3053 
L 172 3500 
L 594 3500 
L 594 4494 
L 1172 4494 
z
" transform="scale(0.015625)"/>
      <path id="DejaVuSans-77" d="M 269 3500 
L 844 3500 
L 1563 769 
L 2278 3500 
L 2956 3500 
L 3675 769 
L 4391 3500 
L 4966 3500 
L 4050 0 
L 3372 0 
L 2619 2869 
L 1863 0 
L 1184 0 
L 269 3500 
z
" transform="scale(0.015625)"/>
      <path id="DejaVuSans-6e" d="M 3513 2113 
L 3513 0 
L 2938 0 
L 2938 2094 
Q 2938 2591 2744 2837 
Q 2550 3084 2163 3084 
Q 1697 3084 1428 2787 
Q 1159 2491 1159 1978 
L 1159 0 
L 581 0 
L 581 3500 
L 1159 3500 
L 1159 2956 
Q 1366 3272 1645 3428 
Q 1925 3584 2291 3584 
Q 2894 3584 3203 3211 
Q 3513 2838 3513 2113 
z
" transform="scale(0.015625)"/>
      <path id="DejaVuSans-53" d="M 3425 4513 
L 3425 3897 
Q 3066 4069 2747 4153 
Q 2428 4238 2131 4238 
Q 1616 4238 1336 4038 
Q 1056 3838 1056 3469 
Q 1056 3159 1242 3001 
Q 1428 2844 1947 2747 
L 2328 2669 
Q 3034 2534 3370 2195 
Q 3706 1856 3706 1288 
Q 3706 609 3251 259 
Q 2797 -91 1919 -91 
Q 1588 -91 1214 -16 
Q 841 59 441 206 
L 441 856 
Q 825 641 1194 531 
Q 1563 422 1919 422 
Q 2459 422 2753 634 
Q 3047 847 3047 1241 
Q 3047 1584 2836 1778 
Q 2625 1972 2144 2069 
L 1759 2144 
Q 1053 2284 737 2584 
Q 422 2884 422 3419 
Q 422 4038 858 4394 
Q 1294 4750 2059 4750 
Q 2388 4750 2728 4690 
Q 3069 4631 3425 4513 
z
" transform="scale(0.015625)"/>
      <path id="DejaVuSans-64" d="M 2906 2969 
L 2906 4863 
L 3481 4863 
L 3481 0 
L 2906 0 
L 2906 525 
Q 2725 213 2448 61 
Q 2172 -91 1784 -91 
Q 1150 -91 751 415 
Q 353 922 353 1747 
Q 353 2572 751 3078 
Q 1150 3584 1784 3584 
Q 2172 3584 2448 3432 
Q 2725 3281 2906 2969 
z
M 947 1747 
Q 947 1113 1208 752 
Q 1469 391 1925 391 
Q 2381 391 2643 752 
Q 2906 1113 2906 1747 
Q 2906 2381 2643 2742 
Q 2381 3103 1925 3103 
Q 1469 3103 1208 2742 
Q 947 2381 947 1747 
z
" transform="scale(0.015625)"/>
      <path id="DejaVuSans-6f" d="M 1959 3097 
Q 1497 3097 1228 2736 
Q 959 2375 959 1747 
Q 959 1119 1226 758 
Q 1494 397 1959 397 
Q 2419 397 2687 759 
Q 2956 1122 2956 1747 
Q 2956 2369 2687 2733 
Q 2419 3097 1959 3097 
z
M 1959 3584 
Q 2709 3584 3137 3096 
Q 3566 2609 3566 1747 
Q 3566 888 3137 398 
Q 2709 -91 1959 -91 
Q 1206 -91 779 398 
Q 353 888 353 1747 
Q 353 2609 779 3096 
Q 1206 3584 1959 3584 
z
" transform="scale(0.015625)"/>
      <path id="DejaVuSans-72" d="M 2631 2963 
Q 2534 3019 2420 3045 
Q 2306 3072 2169 3072 
Q 1681 3072 1420 2755 
Q 1159 2438 1159 1844 
L 1159 0 
L 581 0 
L 581 3500 
L 1159 3500 
L 1159 2956 
Q 1341 3275 1631 3429 
Q 1922 3584 2338 3584 
Q 2397 3584 2469 3576 
Q 2541 3569 2628 3553 
L 2631 2963 
z
" transform="scale(0.015625)"/>
      <path id="DejaVuSans-68" d="M 3513 2113 
L 3513 0 
L 2938 0 
L 2938 2094 
Q 2938 2591 2744 2837 
Q 2550 3084 2163 3084 
Q 1697 3084 1428 2787 
Q 1159 2491 1159 1978 
L 1159 0 
L 581 0 
L 581 4863 
L 1159 4863 
L 1159 2956 
Q 1366 3272 1645 3428 
Q 1925 3584 2291 3584 
Q 2894 3584 3203 3211 
Q 3513 2838 3513 2113 
z
" transform="scale(0.015625)"/>
      <path id="DejaVuSans-66" d="M 2375 4863 
L 2375 4384 
L 1825 4384 
Q 1516 4384 1395 4259 
Q 1275 4134 1275 3809 
L 1275 3500 
L 2222 3500 
L 2222 3053 
L 1275 3053 
L 1275 0 
L 697 0 
L 697 3053 
L 147 3053 
L 147 3500 
L 697 3500 
L 697 3744 
Q 697 4328 969 4595 
Q 1241 4863 1831 4863 
L 2375 4863 
z
" transform="scale(0.015625)"/>
      <path id="DejaVuSans-6c" d="M 603 4863 
L 1178 4863 
L 1178 0 
L 603 0 
L 603 4863 
z
" transform="scale(0.015625)"/>
      <path id="DejaVuSans-6d" d="M 3328 2828 
Q 3544 3216 3844 3400 
Q 4144 3584 4550 3584 
Q 5097 3584 5394 3201 
Q 5691 2819 5691 2113 
L 5691 0 
L 5113 0 
L 5113 2094 
Q 5113 2597 4934 2840 
Q 4756 3084 4391 3084 
Q 3944 3084 3684 2787 
Q 3425 2491 3425 1978 
L 3425 0 
L 2847 0 
L 2847 2094 
Q 2847 2600 2669 2842 
Q 2491 3084 2119 3084 
Q 1678 3084 1418 2786 
Q 1159 2488 1159 1978 
L 1159 0 
L 581 0 
L 581 3500 
L 1159 3500 
L 1159 2956 
Q 1356 3278 1631 3431 
Q 1906 3584 2284 3584 
Q 2666 3584 2933 3390 
Q 3200 3197 3328 2828 
z
" transform="scale(0.015625)"/>
     </defs>
     <use xlink:href="#DejaVuSans-51"/>
     <use xlink:href="#DejaVuSans-75" x="78.710938"/>
     <use xlink:href="#DejaVuSans-65" x="142.089844"/>
     <use xlink:href="#DejaVuSans-75" x="203.613281"/>
     <use xlink:href="#DejaVuSans-65" x="266.992188"/>
     <use xlink:href="#DejaVuSans-20" x="328.515625"/>
     <use xlink:href="#DejaVuSans-73" x="360.302734"/>
     <use xlink:href="#DejaVuSans-69" x="412.402344"/>
     <use xlink:href="#DejaVuSans-7a" x="440.185547"/>
     <use xlink:href="#DejaVuSans-65" x="492.675781"/>
     <use xlink:href="#DejaVuSans-20" x="554.199219"/>
     <use xlink:href="#DejaVuSans-28" x="585.986328"/>
     <use xlink:href="#DejaVuSans-79" x="625"/>
     <use xlink:href="#DejaVuSans-2d" x="682.429688"/>
     <use xlink:href="#DejaVuSans-61" x="718.513672"/>
     <use xlink:href="#DejaVuSans-78" x="779.792969"/>
     <use xlink:href="#DejaVuSans-69" x="838.972656"/>
     <use xlink:href="#DejaVuSans-73" x="866.755859"/>
     <use xlink:href="#DejaVuSans-29" x="918.855469"/>
     <use xlink:href="#DejaVuSans-20" x="957.869141"/>
     <use xlink:href="#DejaVuSans-62" x="989.65625"/>
     <use xlink:href="#DejaVuSans-65" x="1053.132812"/>
     <use xlink:href="#DejaVuSans-74" x="1114.65625"/>
     <use xlink:href="#DejaVuSans-77" x="1153.865234"/>
     <use xlink:href="#DejaVuSans-65" x="1235.652344"/>
     <use xlink:href="#DejaVuSans-65" x="1297.175781"/>
     <use xlink:href="#DejaVuSans-6e" x="1358.699219"/>
     <use xlink:href="#DejaVuSans-20" x="1422.078125"/>
     <use xlink:href="#DejaVuSans-53" x="1453.865234"/>
     <use xlink:href="#DejaVuSans-33" x="1517.341797"/>
     <use xlink:href="#DejaVuSans-20" x="1580.964844"/>
     <use xlink:href="#DejaVuSans-61" x="1612.751953"/>
     <use xlink:href="#DejaVuSans-6e" x="1674.03125"/>
     <use xlink:href="#DejaVuSans-64" x="1737.410156"/>
     <use xlink:href="#DejaVuSans-20" x="1800.886719"/>
     <use xlink:href="#DejaVuSans-73" x="1832.673828"/>
     <use xlink:href="#DejaVuSans-65" x="1884.773438"/>
     <use xlink:href="#DejaVuSans-6e" x="1946.296875"/>
     <use xlink:href="#DejaVuSans-73" x="2009.675781"/>
     <use xlink:href="#DejaVuSans-6f" x="2061.775391"/>
     <use xlink:href="#DejaVuSans-72" x="2122.957031"/>
     <use xlink:href="#DejaVuSans-73" x="2164.070312"/>
     <use xlink:href="#DejaVuSans-20" x="2216.169922"/>
     <use xlink:href="#DejaVuSans-74" x="2247.957031"/>
     <use xlink:href="#DejaVuSans-68" x="2287.166016"/>
     <use xlink:href="#DejaVuSans-61" x="2350.544922"/>
     <use xlink:href="#DejaVuSans-74" x="2411.824219"/>
     <use xlink:href="#DejaVuSans-20" x="2451.033203"/>
     <use xlink:href="#DejaVuSans-66" x="2482.820312"/>
     <use xlink:href="#DejaVuSans-6f" x="2518.025391"/>
     <use xlink:href="#DejaVuSans-6c" x="2579.207031"/>
     <use xlink:href="#DejaVuSans-6c" x="2606.990234"/>
     <use xlink:href="#DejaVuSans-6f" x="2634.773438"/>
     <use xlink:href="#DejaVuSans-77" x="2695.955078"/>
     <use xlink:href="#DejaVuSans-20" x="2777.742188"/>
     <use xlink:href="#DejaVuSans-61" x="2809.529297"/>
     <use xlink:href="#DejaVuSans-74" x="2870.808594"/>
     <use xlink:href="#DejaVuSans-20" x="2910.017578"/>
     <use xlink:href="#DejaVuSans-61" x="2941.804688"/>
     <use xlink:href="#DejaVuSans-20" x="3003.083984"/>
     <use xlink:href="#DejaVuSans-74" x="3034.871094"/>
     <use xlink:href="#DejaVuSans-69" x="3074.080078"/>
     <use xlink:href="#DejaVuSans-6d" x="3101.863281"/>
     <use xlink:href="#DejaVuSans-65" x="3199.275391"/>
     <use xlink:href="#DejaVuSans-20" x="3260.798828"/>
     <use xlink:href="#DejaVuSans-28" x="3292.585938"/>
     <use xlink:href="#DejaVuSans-78" x="3331.599609"/>
     <use xlink:href="#DejaVuSans-2d" x="3390.779297"/>
     <use xlink:href="#DejaVuSans-61" x="3426.863281"/>
     <use xlink:href="#DejaVuSans-78" x="3488.142578"/>
     <use xlink:href="#DejaVuSans-69" x="3547.322266"/>
     <use xlink:href="#DejaVuSans-73" x="3575.105469"/>
     <use xlink:href="#DejaVuSans-29" x="3627.205078"/>
     <use xlink:href="#DejaVuSans-2e" x="3666.21875"/>
    </g>
   </g>
  </g>
 </g>
 <defs>
  <clipPath id="pea5b728dcf">
   <rect x="57.6" y="41.472" width="357.12" height="266.112"/>
  </clipPath>
 </defs>
</svg>
