<?xml version="1.0" encoding="utf-8" standalone="no"?>
<!DOCTYPE svg PUBLIC "-//W3C//DTD SVG 1.1//EN"
  "http://www.w3.org/Graphics/SVG/1.1/DTD/svg11.dtd">
<svg xmlns:xlink="http://www.w3.org/1999/xlink" width="460.8pt" height="345.6pt" viewBox="0 0 460.8 345.6" xmlns="http://www.w3.org/2000/svg" version="1.1">
 <metadata>
  <rdf:RDF xmlns:dc="http://purl.org/dc/elements/1.1/" xmlns:cc="http://creativecommons.org/ns#" xmlns:rdf="http://www.w3.org/1999/02/22-rdf-syntax-ns#">
   <cc:Work>
    <dc:type rdf:resource="http://purl.org/dc/dcmitype/StillImage"/>
    <dc:date>2024-03-08T12:40:50.151938</dc:date>
    <dc:format>image/svg+xml</dc:format>
    <dc:creator>
     <cc:Agent>
      <dc:title>Matplotlib v3.8.2, https://matplotlib.org/</dc:title>
     </cc:Agent>
    </dc:creator>
   </cc:Work>
  </rdf:RDF>
 </metadata>
 <defs>
  <style type="text/css">*{stroke-linejoin: round; stroke-linecap: butt}</style>
 </defs>
 <g id="figure_1">
  <g id="patch_1">
   <path d="M 0 345.6 
L 460.8 345.6 
L 460.8 0 
L 0 0 
z
" style="fill: #ffffff"/>
  </g>
  <g id="axes_1">
   <g id="patch_2">
    <path d="M 57.6 307.584 
L 414.72 307.584 
L 414.72 41.472 
L 57.6 41.472 
z
" style="fill: #ffffff"/>
   </g>
   <g id="matplotlib.axis_1">
    <g id="xtick_1">
     <g id="line2d_1">
      <defs>
       <path id="m741bdbffe9" d="M 0 0 
L 0 3.5 
" style="stroke: #000000; stroke-width: 0.8"/>
      </defs>
      <g>
       <use xlink:href="#m741bdbffe9" x="73.129315" y="307.584" style="stroke: #000000; stroke-width: 0.8"/>
      </g>
     </g>
     <g id="text_1">
      <!-- 0.0 -->
      <g transform="translate(65.177752 322.182437) scale(0.1 -0.1)">
       <defs>
        <path id="DejaVuSans-30" d="M 2034 4250 
Q 1547 4250 1301 3770 
Q 1056 3291 1056 2328 
Q 1056 1369 1301 889 
Q 1547 409 2034 409 
Q 2525 409 2770 889 
Q 3016 1369 3016 2328 
Q 3016 3291 2770 3770 
Q 2525 4250 2034 4250 
z
M 2034 4750 
Q 2819 4750 3233 4129 
Q 3647 3509 3647 2328 
Q 3647 1150 3233 529 
Q 2819 -91 2034 -91 
Q 1250 -91 836 529 
Q 422 1150 422 2328 
Q 422 3509 836 4129 
Q 1250 4750 2034 4750 
z
" transform="scale(0.015625)"/>
        <path id="DejaVuSans-2e" d="M 684 794 
L 1344 794 
L 1344 0 
L 684 0 
L 684 794 
z
" transform="scale(0.015625)"/>
       </defs>
       <use xlink:href="#DejaVuSans-30"/>
       <use xlink:href="#DejaVuSans-2e" x="63.623047"/>
       <use xlink:href="#DejaVuSans-30" x="95.410156"/>
      </g>
     </g>
    </g>
    <g id="xtick_2">
     <g id="line2d_2">
      <g>
       <use xlink:href="#m741bdbffe9" x="118.864841" y="307.584" style="stroke: #000000; stroke-width: 0.8"/>
      </g>
     </g>
     <g id="text_2">
      <!-- 0.5 -->
      <g transform="translate(110.913278 322.182437) scale(0.1 -0.1)">
       <defs>
        <path id="DejaVuSans-35" d="M 691 4666 
L 3169 4666 
L 3169 4134 
L 1269 4134 
L 1269 2991 
Q 1406 3038 1543 3061 
Q 1681 3084 1819 3084 
Q 2600 3084 3056 2656 
Q 3513 2228 3513 1497 
Q 3513 744 3044 326 
Q 2575 -91 1722 -91 
Q 1428 -91 1123 -41 
Q 819 9 494 109 
L 494 744 
Q 775 591 1075 516 
Q 1375 441 1709 441 
Q 2250 441 2565 725 
Q 2881 1009 2881 1497 
Q 2881 1984 2565 2268 
Q 2250 2553 1709 2553 
Q 1456 2553 1204 2497 
Q 953 2441 691 2322 
L 691 4666 
z
" transform="scale(0.015625)"/>
       </defs>
       <use xlink:href="#DejaVuSans-30"/>
       <use xlink:href="#DejaVuSans-2e" x="63.623047"/>
       <use xlink:href="#DejaVuSans-35" x="95.410156"/>
      </g>
     </g>
    </g>
    <g id="xtick_3">
     <g id="line2d_3">
      <g>
       <use xlink:href="#m741bdbffe9" x="164.600367" y="307.584" style="stroke: #000000; stroke-width: 0.8"/>
      </g>
     </g>
     <g id="text_3">
      <!-- 1.0 -->
      <g transform="translate(156.648804 322.182437) scale(0.1 -0.1)">
       <defs>
        <path id="DejaVuSans-31" d="M 794 531 
L 1825 531 
L 1825 4091 
L 703 3866 
L 703 4441 
L 1819 4666 
L 2450 4666 
L 2450 531 
L 3481 531 
L 3481 0 
L 794 0 
L 794 531 
z
" transform="scale(0.015625)"/>
       </defs>
       <use xlink:href="#DejaVuSans-31"/>
       <use xlink:href="#DejaVuSans-2e" x="63.623047"/>
       <use xlink:href="#DejaVuSans-30" x="95.410156"/>
      </g>
     </g>
    </g>
    <g id="xtick_4">
     <g id="line2d_4">
      <g>
       <use xlink:href="#m741bdbffe9" x="210.335893" y="307.584" style="stroke: #000000; stroke-width: 0.8"/>
      </g>
     </g>
     <g id="text_4">
      <!-- 1.5 -->
      <g transform="translate(202.38433 322.182437) scale(0.1 -0.1)">
       <use xlink:href="#DejaVuSans-31"/>
       <use xlink:href="#DejaVuSans-2e" x="63.623047"/>
       <use xlink:href="#DejaVuSans-35" x="95.410156"/>
      </g>
     </g>
    </g>
    <g id="xtick_5">
     <g id="line2d_5">
      <g>
       <use xlink:href="#m741bdbffe9" x="256.071419" y="307.584" style="stroke: #000000; stroke-width: 0.8"/>
      </g>
     </g>
     <g id="text_5">
      <!-- 2.0 -->
      <g transform="translate(248.119856 322.182437) scale(0.1 -0.1)">
       <defs>
        <path id="DejaVuSans-32" d="M 1228 531 
L 3431 531 
L 3431 0 
L 469 0 
L 469 531 
Q 828 903 1448 1529 
Q 2069 2156 2228 2338 
Q 2531 2678 2651 2914 
Q 2772 3150 2772 3378 
Q 2772 3750 2511 3984 
Q 2250 4219 1831 4219 
Q 1534 4219 1204 4116 
Q 875 4013 500 3803 
L 500 4441 
Q 881 4594 1212 4672 
Q 1544 4750 1819 4750 
Q 2544 4750 2975 4387 
Q 3406 4025 3406 3419 
Q 3406 3131 3298 2873 
Q 3191 2616 2906 2266 
Q 2828 2175 2409 1742 
Q 1991 1309 1228 531 
z
" transform="scale(0.015625)"/>
       </defs>
       <use xlink:href="#DejaVuSans-32"/>
       <use xlink:href="#DejaVuSans-2e" x="63.623047"/>
       <use xlink:href="#DejaVuSans-30" x="95.410156"/>
      </g>
     </g>
    </g>
    <g id="xtick_6">
     <g id="line2d_6">
      <g>
       <use xlink:href="#m741bdbffe9" x="301.806944" y="307.584" style="stroke: #000000; stroke-width: 0.8"/>
      </g>
     </g>
     <g id="text_6">
      <!-- 2.5 -->
      <g transform="translate(293.855382 322.182437) scale(0.1 -0.1)">
       <use xlink:href="#DejaVuSans-32"/>
       <use xlink:href="#DejaVuSans-2e" x="63.623047"/>
       <use xlink:href="#DejaVuSans-35" x="95.410156"/>
      </g>
     </g>
    </g>
    <g id="xtick_7">
     <g id="line2d_7">
      <g>
       <use xlink:href="#m741bdbffe9" x="347.54247" y="307.584" style="stroke: #000000; stroke-width: 0.8"/>
      </g>
     </g>
     <g id="text_7">
      <!-- 3.0 -->
      <g transform="translate(339.590908 322.182437) scale(0.1 -0.1)">
       <defs>
        <path id="DejaVuSans-33" d="M 2597 2516 
Q 3050 2419 3304 2112 
Q 3559 1806 3559 1356 
Q 3559 666 3084 287 
Q 2609 -91 1734 -91 
Q 1441 -91 1130 -33 
Q 819 25 488 141 
L 488 750 
Q 750 597 1062 519 
Q 1375 441 1716 441 
Q 2309 441 2620 675 
Q 2931 909 2931 1356 
Q 2931 1769 2642 2001 
Q 2353 2234 1838 2234 
L 1294 2234 
L 1294 2753 
L 1863 2753 
Q 2328 2753 2575 2939 
Q 2822 3125 2822 3475 
Q 2822 3834 2567 4026 
Q 2313 4219 1838 4219 
Q 1578 4219 1281 4162 
Q 984 4106 628 3988 
L 628 4550 
Q 988 4650 1302 4700 
Q 1616 4750 1894 4750 
Q 2613 4750 3031 4423 
Q 3450 4097 3450 3541 
Q 3450 3153 3228 2886 
Q 3006 2619 2597 2516 
z
" transform="scale(0.015625)"/>
       </defs>
       <use xlink:href="#DejaVuSans-33"/>
       <use xlink:href="#DejaVuSans-2e" x="63.623047"/>
       <use xlink:href="#DejaVuSans-30" x="95.410156"/>
      </g>
     </g>
    </g>
    <g id="xtick_8">
     <g id="line2d_8">
      <g>
       <use xlink:href="#m741bdbffe9" x="393.277996" y="307.584" style="stroke: #000000; stroke-width: 0.8"/>
      </g>
     </g>
     <g id="text_8">
      <!-- 3.5 -->
      <g transform="translate(385.326434 322.182437) scale(0.1 -0.1)">
       <use xlink:href="#DejaVuSans-33"/>
       <use xlink:href="#DejaVuSans-2e" x="63.623047"/>
       <use xlink:href="#DejaVuSans-35" x="95.410156"/>
      </g>
     </g>
    </g>
    <g id="text_9">
     <!-- 1e6 -->
     <g transform="translate(395.841875 334.860562) scale(0.1 -0.1)">
      <defs>
       <path id="DejaVuSans-65" d="M 3597 1894 
L 3597 1613 
L 953 1613 
Q 991 1019 1311 708 
Q 1631 397 2203 397 
Q 2534 397 2845 478 
Q 3156 559 3463 722 
L 3463 178 
Q 3153 47 2828 -22 
Q 2503 -91 2169 -91 
Q 1331 -91 842 396 
Q 353 884 353 1716 
Q 353 2575 817 3079 
Q 1281 3584 2069 3584 
Q 2775 3584 3186 3129 
Q 3597 2675 3597 1894 
z
M 3022 2063 
Q 3016 2534 2758 2815 
Q 2500 3097 2075 3097 
Q 1594 3097 1305 2825 
Q 1016 2553 972 2059 
L 3022 2063 
z
" transform="scale(0.015625)"/>
       <path id="DejaVuSans-36" d="M 2113 2584 
Q 1688 2584 1439 2293 
Q 1191 2003 1191 1497 
Q 1191 994 1439 701 
Q 1688 409 2113 409 
Q 2538 409 2786 701 
Q 3034 994 3034 1497 
Q 3034 2003 2786 2293 
Q 2538 2584 2113 2584 
z
M 3366 4563 
L 3366 3988 
Q 3128 4100 2886 4159 
Q 2644 4219 2406 4219 
Q 1781 4219 1451 3797 
Q 1122 3375 1075 2522 
Q 1259 2794 1537 2939 
Q 1816 3084 2150 3084 
Q 2853 3084 3261 2657 
Q 3669 2231 3669 1497 
Q 3669 778 3244 343 
Q 2819 -91 2113 -91 
Q 1303 -91 875 529 
Q 447 1150 447 2328 
Q 447 3434 972 4092 
Q 1497 4750 2381 4750 
Q 2619 4750 2861 4703 
Q 3103 4656 3366 4563 
z
" transform="scale(0.015625)"/>
      </defs>
      <use xlink:href="#DejaVuSans-31"/>
      <use xlink:href="#DejaVuSans-65" x="63.623047"/>
      <use xlink:href="#DejaVuSans-36" x="125.146484"/>
     </g>
    </g>
   </g>
   <g id="matplotlib.axis_2">
    <g id="ytick_1">
     <g id="line2d_9">
      <defs>
       <path id="ma0f3eabb24" d="M 0 0 
L -3.5 0 
" style="stroke: #000000; stroke-width: 0.8"/>
      </defs>
      <g>
       <use xlink:href="#ma0f3eabb24" x="57.6" y="295.488" style="stroke: #000000; stroke-width: 0.8"/>
      </g>
     </g>
     <g id="text_10">
      <!-- 0 -->
      <g transform="translate(44.2375 299.287219) scale(0.1 -0.1)">
       <use xlink:href="#DejaVuSans-30"/>
      </g>
     </g>
    </g>
    <g id="ytick_2">
     <g id="line2d_10">
      <g>
       <use xlink:href="#ma0f3eabb24" x="57.6" y="241.728" style="stroke: #000000; stroke-width: 0.8"/>
      </g>
     </g>
     <g id="text_11">
      <!-- 10 -->
      <g transform="translate(37.875 245.527219) scale(0.1 -0.1)">
       <use xlink:href="#DejaVuSans-31"/>
       <use xlink:href="#DejaVuSans-30" x="63.623047"/>
      </g>
     </g>
    </g>
    <g id="ytick_3">
     <g id="line2d_11">
      <g>
       <use xlink:href="#ma0f3eabb24" x="57.6" y="187.968" style="stroke: #000000; stroke-width: 0.8"/>
      </g>
     </g>
     <g id="text_12">
      <!-- 20 -->
      <g transform="translate(37.875 191.767219) scale(0.1 -0.1)">
       <use xlink:href="#DejaVuSans-32"/>
       <use xlink:href="#DejaVuSans-30" x="63.623047"/>
      </g>
     </g>
    </g>
    <g id="ytick_4">
     <g id="line2d_12">
      <g>
       <use xlink:href="#ma0f3eabb24" x="57.6" y="134.208" style="stroke: #000000; stroke-width: 0.8"/>
      </g>
     </g>
     <g id="text_13">
      <!-- 30 -->
      <g transform="translate(37.875 138.007219) scale(0.1 -0.1)">
       <use xlink:href="#DejaVuSans-33"/>
       <use xlink:href="#DejaVuSans-30" x="63.623047"/>
      </g>
     </g>
    </g>
    <g id="ytick_5">
     <g id="line2d_13">
      <g>
       <use xlink:href="#ma0f3eabb24" x="57.6" y="80.448" style="stroke: #000000; stroke-width: 0.8"/>
      </g>
     </g>
     <g id="text_14">
      <!-- 40 -->
      <g transform="translate(37.875 84.247219) scale(0.1 -0.1)">
       <defs>
        <path id="DejaVuSans-34" d="M 2419 4116 
L 825 1625 
L 2419 1625 
L 2419 4116 
z
M 2253 4666 
L 3047 4666 
L 3047 1625 
L 3713 1625 
L 3713 1100 
L 3047 1100 
L 3047 0 
L 2419 0 
L 2419 1100 
L 313 1100 
L 313 1709 
L 2253 4666 
z
" transform="scale(0.015625)"/>
       </defs>
       <use xlink:href="#DejaVuSans-34"/>
       <use xlink:href="#DejaVuSans-30" x="63.623047"/>
      </g>
     </g>
    </g>
   </g>
   <g id="line2d_14">
    <path d="M 73.832727 290.112 
L 75.116066 268.608 
L 75.320047 273.984 
L 75.434385 268.608 
L 75.639281 273.984 
L 75.752705 268.608 
L 75.9576 273.984 
L 76.070109 268.608 
L 76.276834 273.984 
L 76.395746 268.608 
L 76.602471 273.984 
L 76.717724 268.608 
L 76.921705 273.984 
L 77.038788 268.608 
L 77.239109 273.984 
L 77.359851 268.608 
L 77.557429 273.984 
L 77.682744 268.608 
L 77.882151 273.984 
L 78.006551 268.608 
L 78.205044 273.984 
L 78.330359 268.608 
L 78.525192 273.984 
L 78.645934 268.608 
L 78.846256 273.984 
L 80.132339 295.488 
L 84.523864 290.112 
L 84.777239 241.728 
L 85.687376 225.6 
L 86.002951 220.224 
L 86.14839 252.48 
L 86.263643 273.984 
L 86.325844 268.608 
L 86.541715 273.984 
L 86.645078 268.608 
L 86.853632 273.984 
L 86.964311 268.608 
L 87.17378 273.984 
L 87.289034 268.608 
L 87.489355 273.984 
L 87.603694 268.608 
L 87.812248 273.984 
L 87.923843 268.608 
L 88.131482 273.984 
L 88.237589 268.608 
L 88.451631 273.984 
L 88.555908 268.608 
L 88.775438 273.984 
L 88.88063 268.608 
L 89.091013 273.984 
L 89.19529 268.608 
L 89.410247 273.984 
L 89.510866 268.608 
L 89.723993 273.984 
L 89.835588 268.608 
L 90.042312 273.984 
L 90.159395 268.608 
L 90.367035 273.984 
L 90.484118 268.608 
L 90.681695 273.984 
L 90.796034 268.608 
L 90.99727 273.984 
L 91.1235 268.608 
L 91.321992 273.984 
L 91.441819 268.608 
L 91.6458 273.984 
L 91.769286 268.608 
L 91.970522 273.984 
L 92.087605 268.608 
L 92.282438 273.984 
L 92.404095 268.608 
L 92.609905 273.984 
L 92.718755 268.608 
L 92.928224 273.984 
L 93.037075 268.608 
L 93.25569 273.984 
L 93.356309 268.608 
L 93.57401 273.984 
L 93.671884 268.608 
L 93.8905 273.984 
L 93.990203 268.608 
L 94.206075 273.984 
L 94.31401 268.608 
L 94.524394 273.984 
L 94.636903 268.608 
L 94.843628 273.984 
L 94.954308 268.608 
L 95.158288 273.984 
L 95.272627 268.608 
L 95.477522 273.984 
L 95.591861 268.608 
L 95.800415 273.984 
L 95.914754 268.608 
L 96.123308 273.984 
L 96.232158 268.608 
L 96.440712 273.984 
L 96.554137 268.608 
L 96.759032 273.984 
L 96.878859 268.608 
L 97.078266 273.984 
L 97.193519 268.608 
L 97.401158 273.984 
L 97.510009 268.608 
L 97.718563 273.984 
L 97.830158 268.608 
L 98.040541 273.984 
L 98.365263 279.36 
L 98.468626 273.984 
L 98.679924 279.36 
L 98.781457 273.984 
L 98.997328 279.36 
L 99.108923 273.984 
L 99.316562 279.36 
L 99.435475 273.984 
L 99.761112 268.608 
L 99.95503 273.984 
L 100.086749 268.608 
L 100.267861 273.984 
L 100.404153 268.608 
L 100.595328 273.984 
L 100.724302 268.608 
L 100.921879 273.984 
L 101.049939 268.608 
L 101.247516 273.984 
L 101.371002 268.608 
L 101.573153 273.984 
L 101.690236 268.608 
L 101.890558 273.984 
L 102.007641 268.608 
L 102.211621 273.984 
L 102.328704 268.608 
L 102.536343 273.984 
L 102.65617 268.608 
L 102.858321 273.984 
L 102.975404 268.608 
L 103.176641 273.984 
L 103.295553 268.608 
L 103.494045 273.984 
L 103.615702 268.608 
L 103.816023 273.984 
L 103.93768 268.608 
L 104.14349 273.984 
L 104.256914 268.608 
L 104.461809 273.984 
L 104.580721 268.608 
L 104.781958 273.984 
L 104.899955 268.608 
L 105.102106 273.984 
L 105.214616 268.608 
L 105.424084 273.984 
L 105.536594 268.608 
L 105.744233 273.984 
L 105.858572 268.608 
L 106.067126 273.984 
L 106.176891 268.608 
L 106.387275 273.984 
L 106.487893 268.608 
L 106.70102 273.984 
L 106.810786 268.608 
L 107.023913 273.984 
L 107.127275 268.608 
L 107.344977 273.984 
L 107.447424 268.608 
L 107.663296 273.984 
L 107.770317 268.608 
L 107.975212 273.984 
L 108.088636 268.608 
L 108.29719 273.984 
L 108.411529 268.608 
L 108.61368 273.984 
L 108.728019 268.608 
L 108.933829 273.984 
L 109.044509 268.608 
L 109.256722 273.984 
L 109.359169 268.608 
L 109.575955 273.984 
L 109.678403 268.608 
L 109.897934 273.984 
L 109.995808 268.608 
L 110.215338 273.984 
L 110.315042 268.608 
L 110.530913 273.984 
L 110.637934 268.608 
L 111.164808 279.36 
L 112.124339 295.488 
L 112.642065 284.736 
L 113.778136 257.856 
L 113.901622 263.232 
L 114.004984 257.856 
L 114.130299 263.232 
L 114.235491 257.856 
L 114.352574 263.232 
L 114.462339 257.856 
L 114.579422 263.232 
L 114.690102 257.856 
L 114.80627 263.232 
L 114.920609 257.856 
L 115.036777 263.232 
L 115.149287 257.856 
L 115.267284 263.232 
L 115.384367 257.856 
L 115.494133 263.232 
L 115.613045 257.856 
L 115.723725 263.232 
L 115.841723 257.856 
L 115.950573 263.232 
L 116.069485 257.856 
L 116.179251 263.232 
L 116.29359 257.856 
L 116.409758 263.232 
L 116.525926 257.856 
L 116.638435 263.232 
L 116.750945 257.856 
L 116.872601 263.232 
L 116.986025 257.856 
L 128.019264 252.48 
L 128.217756 182.592 
L 128.307397 187.968 
L 128.427225 177.216 
L 128.651329 96.576 
L 128.759264 101.952 
L 128.8672 96.576 
L 128.990686 101.952 
L 129.094049 96.576 
L 129.215705 101.952 
L 129.326385 96.576 
L 129.508412 107.328 
L 129.70599 177.216 
L 129.781911 171.84 
L 129.916373 182.592 
L 129.984977 209.472 
L 130.010588 204.096 
L 130.469773 193.344 
L 130.531059 214.848 
L 130.928043 204.096 
L 131.014026 214.848 
L 131.041467 225.6 
L 131.157635 220.224 
L 131.387228 214.848 
L 131.528093 220.224 
L 131.569255 236.352 
L 131.614991 230.976 
L 131.843668 225.6 
L 131.976301 230.976 
L 132.017463 247.104 
L 132.291877 241.728 
L 132.456524 247.104 
L 132.497686 263.232 
L 132.523298 257.856 
L 132.755635 252.48 
L 132.977909 257.856 
L 132.982483 252.48 
L 133.009924 263.232 
L 133.103225 268.608 
L 133.441668 263.232 
L 133.456303 268.608 
L 133.676748 263.232 
L 133.780111 268.608 
L 133.907255 263.232 
L 134.011532 268.608 
L 134.136848 263.232 
L 134.244783 268.608 
L 134.365525 263.232 
L 134.470717 268.608 
L 134.825625 257.856 
L 134.930816 263.232 
L 135.050643 257.856 
L 135.164982 263.232 
L 135.395489 268.608 
L 135.499766 263.232 
L 135.625082 268.608 
L 135.731188 263.232 
L 135.854674 268.608 
L 135.956207 263.232 
L 136.08701 268.608 
L 136.184884 263.232 
L 136.314773 268.608 
L 136.411733 263.232 
L 136.539792 268.608 
L 136.643154 263.232 
L 136.875491 257.856 
L 136.988915 263.232 
L 137.104169 257.856 
L 137.220337 263.232 
L 137.33742 257.856 
L 137.445356 263.232 
L 137.567927 257.856 
L 137.674033 263.232 
L 137.79569 257.856 
L 137.900881 263.232 
L 138.020708 257.856 
L 138.132303 263.232 
L 138.245727 257.856 
L 138.36464 263.232 
L 138.474405 257.856 
L 138.592403 263.232 
L 138.701253 257.856 
L 138.826568 263.232 
L 138.929931 257.856 
L 139.056161 263.232 
L 139.157694 257.856 
L 139.283924 263.232 
L 139.385457 257.856 
L 139.508942 263.232 
L 139.618708 257.856 
L 139.734876 263.232 
L 139.843727 257.856 
L 139.962639 263.232 
L 140.076978 257.856 
L 140.190402 263.232 
L 140.419079 268.608 
L 140.535248 263.232 
L 140.645928 268.608 
L 140.761181 263.232 
L 140.874605 268.608 
L 140.994432 263.232 
L 141.106942 268.608 
L 141.227684 263.232 
L 141.332875 268.608 
L 141.46002 263.232 
L 141.565212 268.608 
L 141.922864 257.856 
L 142.024396 263.232 
L 142.146968 257.856 
L 142.25033 263.232 
L 142.37656 257.856 
L 142.483581 263.232 
L 142.605238 257.856 
L 142.715918 263.232 
L 142.829342 257.856 
L 142.949169 263.232 
L 143.059849 257.856 
L 143.177846 263.232 
L 143.289441 257.856 
L 143.411098 263.232 
L 143.522692 257.856 
L 143.636116 263.232 
L 143.755029 257.856 
L 143.865709 263.232 
L 143.980048 257.856 
L 144.094386 263.232 
L 144.206896 257.856 
L 144.31849 263.232 
L 144.435573 257.856 
L 144.548997 263.232 
L 144.663336 257.856 
L 144.777675 263.232 
L 144.895673 257.856 
L 145.011841 263.232 
L 145.127094 257.856 
L 145.243263 263.232 
L 145.354857 257.856 
L 145.469196 263.232 
L 145.580791 257.856 
L 145.696044 263.232 
L 145.811298 257.856 
L 145.924722 263.232 
L 146.04089 257.856 
L 146.15157 263.232 
L 146.275056 257.856 
L 146.384821 263.232 
L 146.504649 257.856 
L 146.616243 263.232 
L 146.732411 257.856 
L 146.844006 263.232 
L 146.966577 257.856 
L 147.06994 263.232 
L 147.188852 257.856 
L 147.300447 263.232 
L 147.414786 257.856 
L 147.530039 263.232 
L 147.63706 257.856 
L 147.76329 263.232 
L 147.867567 257.856 
L 147.993797 263.232 
L 148.101733 257.856 
L 148.22156 263.232 
L 148.327667 257.856 
L 148.455726 263.232 
L 148.55543 257.856 
L 148.678001 263.232 
L 148.788681 257.856 
L 148.903934 263.232 
L 149.018273 257.856 
L 149.125294 263.232 
L 149.247865 257.856 
L 149.355801 263.232 
L 149.480202 257.856 
L 149.590882 263.232 
L 149.710709 257.856 
L 149.816815 263.232 
L 149.939387 257.856 
L 150.044578 263.232 
L 150.168979 257.856 
L 150.276915 263.232 
L 150.396742 257.856 
L 150.506507 263.232 
L 150.629993 257.856 
L 150.736099 263.232 
L 150.861415 257.856 
L 150.968436 263.232 
L 151.091007 257.856 
L 151.199858 263.232 
L 151.323344 257.856 
L 151.428535 263.232 
L 151.55568 257.856 
L 151.657213 263.232 
L 151.784358 257.856 
L 151.885891 263.232 
L 152.009376 257.856 
L 152.118227 263.232 
L 152.236225 257.856 
L 152.350563 263.232 
L 152.462158 257.856 
L 152.580156 263.232 
L 152.695409 257.856 
L 152.812492 263.232 
L 152.925916 257.856 
L 153.044829 263.232 
L 153.147276 257.856 
L 153.273506 263.232 
L 153.379613 257.856 
L 153.49761 263.232 
L 153.607376 257.856 
L 153.725373 263.232 
L 153.835139 257.856 
L 153.950392 263.232 
L 154.070219 257.856 
L 154.184558 263.232 
L 154.296153 257.856 
L 154.41415 263.232 
L 154.523916 257.856 
L 154.636425 263.232 
L 154.867847 268.608 
L 154.978527 263.232 
L 155.096524 268.608 
L 155.209034 263.232 
L 155.324287 268.608 
L 155.440456 263.232 
L 155.784387 273.984 
L 156.013064 279.36 
L 156.467676 284.736 
L 156.92869 295.488 
L 161.35223 290.112 
L 161.590969 198.72 
L 162.738931 171.84 
L 162.855099 182.592 
L 163.079203 263.232 
L 163.194457 257.856 
L 163.30971 263.232 
L 163.429537 257.856 
L 163.541132 263.232 
L 163.660044 257.856 
L 163.773468 263.232 
L 163.886893 257.856 
L 164.003975 263.232 
L 164.113741 257.856 
L 164.22808 263.232 
L 164.33876 257.856 
L 164.458587 263.232 
L 164.564693 257.856 
L 164.683605 263.232 
L 164.796115 257.856 
L 164.917771 263.232 
L 165.022048 257.856 
L 165.148278 263.232 
L 165.252555 257.856 
L 165.376041 263.232 
L 165.477574 257.856 
L 165.602889 263.232 
L 165.701678 257.856 
L 165.827908 263.232 
L 165.934015 257.856 
L 166.053842 263.232 
L 166.162692 257.856 
L 166.285263 263.232 
L 166.39137 257.856 
L 166.511197 263.232 
L 166.620048 257.856 
L 166.966723 268.608 
L 168.108282 295.488 
L 172.332415 290.112 
L 172.554689 284.736 
L 172.794344 193.344 
L 173.726434 171.84 
L 173.821563 177.216 
L 173.949623 171.84 
L 174.057559 182.592 
L 174.282578 263.232 
L 174.406978 257.856 
L 174.533208 263.232 
L 174.635656 257.856 
L 174.776521 263.232 
L 174.865248 257.856 
L 174.986905 263.232 
L 175.095755 257.856 
L 175.214668 263.232 
L 175.321689 257.856 
L 175.437857 263.232 
L 175.547622 257.856 
L 175.664705 263.232 
L 175.7763 257.856 
L 175.896127 263.232 
L 176.004977 257.856 
L 176.12389 263.232 
L 176.239143 257.856 
L 176.354397 263.232 
L 176.465992 257.856 
L 176.584904 263.232 
L 176.695584 257.856 
L 176.809923 263.232 
L 176.921517 257.856 
L 177.036771 263.232 
L 177.152024 257.856 
L 177.265449 263.232 
L 177.377043 257.856 
L 177.493211 263.232 
L 178.865277 295.488 
L 183.09124 290.112 
L 183.305282 284.736 
L 183.556828 187.968 
L 184.006865 177.216 
L 184.580389 182.592 
L 184.794431 187.968 
L 185.045062 284.736 
L 185.265507 279.36 
L 185.268251 284.736 
L 185.496014 290.112 
L 185.582911 284.736 
L 186.548846 268.608 
L 186.752826 273.984 
L 186.871738 268.608 
L 187.070231 273.984 
L 187.188228 268.608 
L 187.389465 273.984 
L 187.512036 268.608 
L 187.707784 273.984 
L 187.830355 268.608 
L 188.03525 273.984 
L 188.148674 268.608 
L 188.358143 273.984 
L 188.469738 268.608 
L 188.674633 273.984 
L 188.797204 268.608 
L 188.99844 273.984 
L 189.119182 268.608 
L 189.317674 273.984 
L 189.435672 268.608 
L 189.635994 273.984 
L 189.755821 268.608 
L 189.956142 273.984 
L 190.072311 268.608 
L 190.283609 273.984 
L 190.39063 268.608 
L 190.605587 273.984 
L 190.711693 268.608 
L 190.922077 273.984 
L 191.022695 268.608 
L 191.24314 273.984 
L 191.348332 268.608 
L 191.55963 273.984 
L 191.671225 268.608 
L 191.877034 273.984 
L 191.984056 268.608 
L 192.198098 273.984 
L 192.306948 268.608 
L 192.510014 273.984 
L 192.620694 268.608 
L 192.834736 273.984 
L 192.941757 268.608 
L 193.157629 273.984 
L 193.263736 268.608 
L 193.471375 273.984 
L 193.588458 268.608 
L 193.793353 273.984 
L 193.904033 268.608 
L 194.107099 273.984 
L 194.225096 268.608 
L 194.428162 273.984 
L 194.545245 268.608 
L 194.75014 273.984 
L 194.872711 268.608 
L 195.074862 273.984 
L 195.191945 268.608 
L 195.391352 273.984 
L 195.515753 268.608 
L 195.711501 273.984 
L 195.829499 268.608 
L 196.032564 273.984 
L 196.150562 268.608 
L 196.359116 273.984 
L 196.470711 268.608 
L 196.679265 273.984 
L 196.798177 268.608 
L 197.002157 273.984 
L 197.120155 268.608 
L 197.315903 273.984 
L 197.446707 268.608 
L 197.636967 273.984 
L 197.76777 268.608 
L 197.957115 273.984 
L 198.077857 268.608 
L 198.284582 273.984 
L 198.396176 268.608 
L 198.60656 273.984 
L 198.71724 268.608 
L 198.933111 273.984 
L 199.037388 268.608 
L 199.254175 273.984 
L 199.351134 268.608 
L 199.565176 273.984 
L 199.670368 268.608 
L 199.882581 273.984 
L 200.001493 268.608 
L 200.203644 273.984 
L 200.320727 268.608 
L 200.523793 273.984 
L 200.64362 268.608 
L 200.837539 273.984 
L 200.968342 268.608 
L 201.156773 273.984 
L 201.289406 268.608 
L 201.487898 273.984 
L 201.610469 268.608 
L 201.807132 273.984 
L 201.926959 268.608 
L 204.813785 220.224 
L 206.753886 225.6 
L 207.089585 230.976 
L 207.117026 236.352 
L 207.425284 241.728 
L 207.452725 247.104 
L 207.760068 252.48 
L 207.788424 257.856 
L 208.111317 263.232 
L 208.138758 268.608 
L 208.488177 273.984 
L 208.515619 279.36 
L 208.848573 284.736 
L 208.876015 290.112 
L 209.181528 295.488 
L 210.753001 290.112 
L 211.00729 241.728 
L 211.175597 236.352 
L 212.12964 220.224 
L 212.268676 230.976 
L 212.493695 268.608 
L 212.662916 273.984 
L 212.766278 268.608 
L 212.983065 273.984 
L 213.095574 268.608 
L 213.299555 273.984 
L 213.415723 268.608 
L 213.616045 273.984 
L 213.745933 268.608 
L 213.93162 273.984 
L 214.066082 268.608 
L 214.252683 273.984 
L 214.38989 268.608 
L 214.581979 273.984 
L 214.708209 268.608 
L 214.902128 273.984 
L 215.026528 268.608 
L 215.232338 273.984 
L 215.349421 268.608 
L 215.552487 273.984 
L 215.668655 268.608 
L 215.877209 273.984 
L 215.991548 268.608 
L 216.194614 273.984 
L 216.319929 268.608 
L 216.512933 273.984 
L 216.633675 268.608 
L 216.835826 273.984 
L 216.941932 268.608 
L 217.15506 273.984 
L 217.255678 268.608 
L 217.477952 273.984 
L 217.5804 268.608 
L 217.806333 273.984 
L 217.904207 268.608 
L 218.120079 273.984 
L 218.235333 268.608 
L 218.428337 273.984 
L 218.556396 268.608 
L 218.742997 273.984 
L 218.868312 268.608 
L 219.195779 263.232 
L 219.328412 268.608 
L 219.52416 263.232 
L 219.721737 273.984 
L 219.837906 268.608 
L 220.042801 273.984 
L 220.154395 268.608 
L 220.354717 273.984 
L 220.475459 268.608 
L 220.682183 273.984 
L 220.78646 268.608 
L 221.010564 273.984 
L 221.112097 268.608 
L 221.32431 273.984 
L 237.799161 268.608 
L 237.962894 263.232 
L 238.056195 225.6 
L 238.115651 204.096 
L 238.32512 198.72 
L 238.572092 85.824 
L 238.737654 91.2 
L 238.738569 85.824 
L 238.922426 80.448 
L 239.063291 85.824 
L 239.103538 80.448 
L 239.282822 75.072 
L 239.285566 80.448 
L 239.451128 85.824 
L 239.462105 80.448 
L 239.512414 101.952 
L 239.603885 144.96 
L 239.645047 139.584 
L 239.825245 144.96 
L 240.03197 204.096 
L 240.107891 220.224 
L 240.55244 209.472 
L 240.631105 230.976 
L 240.739956 225.6 
L 241.101266 214.848 
L 241.150661 236.352 
L 241.468065 225.6 
L 241.602528 230.976 
L 241.635457 247.104 
L 241.652837 241.728 
L 242.015062 230.976 
L 242.125742 241.728 
L 242.21264 247.104 
L 242.554741 236.352 
L 242.638895 247.104 
L 242.655359 252.48 
L 242.740427 247.104 
L 242.92337 241.728 
L 242.941664 247.104 
L 243.104482 241.728 
L 243.149303 252.48 
L 254.252974 247.104 
L 254.303283 252.48 
L 254.413963 241.728 
L 254.583185 166.464 
L 254.66185 171.84 
L 254.793568 166.464 
L 255.037796 58.944 
L 255.144817 53.568 
L 255.206102 58.944 
L 255.329588 53.568 
L 255.389045 58.944 
L 255.516189 53.568 
L 255.570157 58.944 
L 255.701876 53.568 
L 255.742123 58.944 
L 255.882073 53.568 
L 256.072333 139.584 
L 256.282717 144.96 
L 256.358638 182.592 
L 256.434559 177.216 
L 256.613842 171.84 
L 256.664151 193.344 
L 257.160839 177.216 
L 257.206574 198.72 
L 257.529467 187.968 
L 257.655697 198.72 
L 257.67765 209.472 
L 257.716068 204.096 
L 258.08927 193.344 
L 258.177082 209.472 
L 258.188059 214.848 
L 258.272212 209.472 
L 258.641755 198.72 
L 258.686576 220.224 
L 259.009469 209.472 
L 259.141187 220.224 
L 259.16314 230.976 
L 259.195155 225.6 
L 259.562869 214.848 
L 259.655254 225.6 
L 259.677207 236.352 
L 259.745811 230.976 
L 260.116268 220.224 
L 260.154686 241.728 
L 260.488556 230.976 
L 260.620274 236.352 
L 260.668754 252.48 
L 260.670583 247.104 
L 261.038297 236.352 
L 261.132512 252.48 
L 261.221239 247.104 
L 261.399607 241.728 
L 261.404181 247.104 
L 261.579805 241.728 
L 261.605417 252.48 
L 261.766406 247.104 
L 261.791103 252.48 
L 261.950263 247.104 
L 262.058199 252.48 
L 262.13412 247.104 
L 262.159732 252.48 
L 262.316147 247.104 
L 262.343589 252.48 
L 262.499089 247.104 
L 262.527445 252.48 
L 262.680202 247.104 
L 262.710388 252.48 
L 262.865888 247.104 
L 262.888756 252.48 
L 263.05066 247.104 
L 263.068954 252.48 
L 263.229943 247.104 
L 263.255555 252.48 
L 263.412885 247.104 
L 263.439412 252.48 
L 263.593083 247.104 
L 263.623269 252.48 
L 263.776025 247.104 
L 263.805296 252.48 
L 263.958053 247.104 
L 263.987323 252.48 
L 264.139165 247.104 
L 264.169351 252.48 
L 264.323022 247.104 
L 264.355037 252.48 
L 264.508708 247.104 
L 264.539809 252.48 
L 264.692565 247.104 
L 264.719092 252.48 
L 264.876422 247.104 
L 264.902034 252.48 
L 265.058449 247.104 
L 265.082232 252.48 
L 265.240477 247.104 
L 265.265174 252.48 
L 265.421589 247.104 
L 265.447201 252.48 
L 265.600873 247.104 
L 265.627399 252.48 
L 265.787474 247.104 
L 265.812171 252.48 
L 265.965842 247.104 
L 265.996942 252.48 
L 266.150614 247.104 
L 266.181714 252.48 
L 266.332641 247.104 
L 266.365571 252.48 
L 266.518327 247.104 
L 266.547598 252.48 
L 266.697611 247.104 
L 266.729626 252.48 
L 266.878723 247.104 
L 266.910738 252.48 
L 267.056177 247.104 
L 267.090021 252.48 
L 267.239119 247.104 
L 267.276622 252.48 
L 267.421147 247.104 
L 267.454076 252.48 
L 267.605918 247.104 
L 267.639762 252.48 
L 267.787946 247.104 
L 267.82179 252.48 
L 267.969058 247.104 
L 268.007476 252.48 
L 268.15383 247.104 
L 268.186759 252.48 
L 268.335857 247.104 
L 268.367872 252.48 
L 268.521543 247.104 
L 268.545326 252.48 
L 268.70723 247.104 
L 268.728268 252.48 
L 268.889257 247.104 
L 268.910295 252.48 
L 269.06854 247.104 
L 269.095067 252.48 
L 269.248738 247.104 
L 269.27618 252.48 
L 269.429851 247.104 
L 269.458207 252.48 
L 269.612793 247.104 
L 269.642979 252.48 
L 269.793906 247.104 
L 269.825006 252.48 
L 269.975933 247.104 
L 270.010692 252.48 
L 270.160705 247.104 
L 270.196378 252.48 
L 270.339988 247.104 
L 270.378406 252.48 
L 270.522015 247.104 
L 270.557689 252.48 
L 270.702213 247.104 
L 276.206026 241.728 
L 276.225235 247.104 
L 276.590205 257.856 
L 276.930477 139.584 
L 276.953345 144.96 
L 277.113419 139.584 
L 277.138117 144.96 
L 277.294532 139.584 
L 277.3174 144.96 
L 277.478389 139.584 
L 277.499427 144.96 
L 277.660416 139.584 
L 277.695175 150.336 
L 278.024471 139.584 
L 278.104966 150.336 
L 278.418711 252.48 
L 278.580615 247.104 
L 278.602568 252.48 
L 278.764472 247.104 
L 278.783681 252.48 
L 278.946499 247.104 
L 278.967538 252.48 
L 279.128527 247.104 
L 279.149565 252.48 
L 279.308725 247.104 
L 279.330678 252.48 
L 279.491667 247.104 
L 279.512705 252.48 
L 279.675523 247.104 
L 279.701135 252.48 
L 279.857551 247.104 
L 279.884992 252.48 
L 280.036834 247.104 
L 280.069764 252.48 
L 280.217032 247.104 
L 280.252706 252.48 
L 280.39723 247.104 
L 280.435648 252.48 
L 280.576513 247.104 
L 280.617675 252.48 
L 280.757626 247.104 
L 280.797873 252.48 
L 280.940568 247.104 
L 280.980815 252.48 
L 281.121681 247.104 
L 281.164672 252.48 
L 281.300964 247.104 
L 281.3467 252.48 
L 281.482991 247.104 
L 281.525983 252.48 
L 281.667763 247.104 
L 281.706181 252.48 
L 281.84979 247.104 
L 281.886379 252.48 
L 282.028159 247.104 
L 282.065662 252.48 
L 282.209272 247.104 
L 282.246775 252.48 
L 282.392214 247.104 
L 282.429717 252.48 
L 282.5779 247.104 
L 282.61083 252.48 
L 282.758098 247.104 
L 282.790113 252.48 
L 282.942869 247.104 
L 282.97214 252.48 
L 283.125812 247.104 
L 283.156912 252.48 
L 283.307839 247.104 
L 283.338939 252.48 
L 283.491696 247.104 
L 283.517308 252.48 
L 283.670979 247.104 
L 283.69842 252.48 
L 283.852092 247.104 
L 283.881362 252.48 
L 284.035034 247.104 
L 284.067049 252.48 
L 284.214317 247.104 
L 284.247247 252.48 
L 284.3936 247.104 
L 284.432018 252.48 
L 284.578372 247.104 
L 284.61496 252.48 
L 284.766802 247.104 
L 284.796988 252.48 
L 284.946085 247.104 
L 284.980844 252.48 
L 285.129028 247.104 
L 285.160128 252.48 
L 285.31197 247.104 
L 285.34124 252.48 
L 285.496741 247.104 
L 285.524183 252.48 
L 285.685172 247.104 
L 285.703466 252.48 
L 285.86537 247.104 
L 285.882749 252.48 
L 286.047397 247.104 
L 286.067521 252.48 
L 286.22851 247.104 
L 286.255951 252.48 
L 286.410537 247.104 
L 286.435234 252.48 
L 286.590735 247.104 
L 286.618176 252.48 
L 286.777336 247.104 
L 286.801118 252.48 
L 286.960278 247.104 
L 286.98589 252.48 
L 287.141391 247.104 
L 287.173406 252.48 
L 287.326162 247.104 
L 287.353604 252.48 
L 287.510934 247.104 
L 287.536546 252.48 
L 287.694791 247.104 
L 287.717658 252.48 
L 287.878647 247.104 
L 287.899686 252.48 
L 288.058845 247.104 
L 288.078969 252.48 
L 288.240873 247.104 
L 288.26557 252.48 
L 288.426559 247.104 
L 288.449427 252.48 
L 288.611331 247.104 
L 288.630539 252.48 
L 288.797017 247.104 
L 288.815311 252.48 
L 288.978129 247.104 
L 288.999168 252.48 
L 289.158327 247.104 
L 289.183939 252.48 
L 289.344928 247.104 
L 289.367796 252.48 
L 289.530615 247.104 
L 289.547994 252.48 
L 289.712642 247.104 
L 289.730022 252.48 
L 289.895584 247.104 
L 289.915708 252.48 
L 290.074867 247.104 
L 290.100479 252.48 
L 290.260554 247.104 
L 290.286166 252.48 
L 290.44624 247.104 
L 290.467278 252.48 
L 290.628267 247.104 
L 290.647476 252.48 
L 290.811209 247.104 
L 290.834077 252.48 
L 290.992322 247.104 
L 291.019763 252.48 
L 291.176179 247.104 
L 291.201791 252.48 
L 291.357292 247.104 
L 291.384733 252.48 
L 291.542063 247.104 
L 291.564016 252.48 
L 291.72409 247.104 
L 291.749702 252.48 
L 291.911606 247.104 
L 291.935389 252.48 
L 293.400755 295.488 
L 326.872757 290.112 
L 328.330805 247.104 
L 328.361906 252.48 
L 328.52015 247.104 
L 328.542104 252.48 
L 328.707666 247.104 
L 328.721387 252.48 
L 328.891523 247.104 
L 328.905244 252.48 
L 329.070806 247.104 
L 329.083612 252.48 
L 329.254663 247.104 
L 329.269298 252.48 
L 329.43669 247.104 
L 329.456814 252.48 
L 329.616888 247.104 
L 329.639756 252.48 
L 329.80166 247.104 
L 329.819954 252.48 
L 329.989176 247.104 
L 330.009299 252.48 
L 330.172118 247.104 
L 330.196815 252.48 
L 330.359633 247.104 
L 330.380672 252.48 
L 330.539831 247.104 
L 330.559955 252.48 
L 330.719115 247.104 
L 330.743812 252.48 
L 330.901142 247.104 
L 330.925839 252.48 
L 331.083169 247.104 
L 331.106037 252.48 
L 331.266111 247.104 
L 331.290809 252.48 
L 331.447224 247.104 
L 331.478324 252.48 
L 331.629252 247.104 
L 331.661266 252.48 
L 331.815852 247.104 
L 331.848782 252.48 
L 333.1184 290.112 
L 333.272986 284.736 
L 333.305001 290.112 
L 334.551752 268.608 
L 334.759391 273.984 
L 334.880133 268.608 
L 335.082284 273.984 
L 335.196623 268.608 
L 335.398774 273.984 
L 335.519515 268.608 
L 335.716178 273.984 
L 335.834176 268.608 
L 336.038156 273.984 
L 336.366537 279.36 
L 336.479961 273.984 
L 336.683942 279.36 
L 336.804684 273.984 
L 337.00592 279.36 
L 337.123003 273.984 
L 337.321495 279.36 
L 337.438578 273.984 
L 337.753238 268.608 
L 337.966366 273.984 
L 338.067899 268.608 
L 338.291088 273.984 
L 338.381645 268.608 
L 338.609407 273.984 
L 338.702708 268.608 
L 338.924983 273.984 
L 339.015539 268.608 
L 339.239643 273.984 
L 339.337517 268.608 
L 339.555218 273.984 
L 339.664983 268.608 
L 339.868964 273.984 
L 339.981473 268.608 
L 340.189113 273.984 
L 340.297963 268.608 
L 340.501944 273.984 
L 340.622685 268.608 
L 340.823922 273.984 
L 340.945578 268.608 
L 341.151388 273.984 
L 341.264812 268.608 
L 341.467878 273.984 
L 341.593193 268.608 
L 341.784368 273.984 
L 342.10909 279.36 
L 342.238064 273.984 
L 342.431983 279.36 
L 342.560042 273.984 
L 342.752131 279.36 
L 342.879276 273.984 
L 343.080512 279.36 
L 343.205828 273.984 
L 343.525977 268.608 
L 343.725383 273.984 
L 343.844296 268.608 
L 344.046447 273.984 
L 344.16353 268.608 
L 344.365681 273.984 
L 344.480934 268.608 
L 344.692232 273.984 
L 344.798339 268.608 
L 345.012381 273.984 
L 345.116658 268.608 
L 345.3307 273.984 
L 345.436807 268.608 
L 345.649934 273.984 
L 345.753297 268.608 
L 345.968254 273.984 
L 346.076189 268.608 
L 346.284743 273.984 
L 346.39085 268.608 
L 346.603063 273.984 
L 346.708254 268.608 
L 346.923211 273.984 
L 347.026574 268.608 
L 347.562594 279.36 
L 347.67053 273.984 
L 347.877254 279.36 
L 347.991593 273.984 
L 348.194659 279.36 
L 348.310827 273.984 
L 348.512978 279.36 
L 348.624573 273.984 
L 348.938319 268.608 
L 349.156934 273.984 
L 349.250235 268.608 
L 349.477998 273.984 
L 349.573128 268.608 
L 349.797232 273.984 
L 349.895106 268.608 
L 350.110978 273.984 
L 350.217084 268.608 
L 350.424723 273.984 
L 350.533574 268.608 
L 350.73664 273.984 
L 350.855552 268.608 
L 351.060447 273.984 
L 351.179359 268.608 
L 351.38151 273.984 
L 351.502252 268.608 
L 351.703489 273.984 
L 351.822401 268.608 
L 352.019978 273.984 
L 352.143464 268.608 
L 352.341956 273.984 
L 352.466357 268.608 
L 352.665764 273.984 
L 352.786506 268.608 
L 352.988657 273.984 
L 353.108484 268.608 
L 353.308806 273.984 
L 354.594889 295.488 
L 358.963546 290.112 
L 359.191309 247.104 
L 360.147181 230.976 
L 360.450865 236.352 
L 360.46733 230.976 
L 360.505748 241.728 
L 360.677713 273.984 
L 360.786564 268.608 
L 360.999692 273.984 
L 361.105798 268.608 
L 361.311608 273.984 
L 361.433264 268.608 
L 361.633586 273.984 
L 361.754328 268.608 
L 361.954649 273.984 
L 362.071732 268.608 
L 362.272969 273.984 
L 362.388222 268.608 
L 362.592203 273.984 
L 362.713859 268.608 
L 362.919669 273.984 
L 363.035837 268.608 
L 363.240732 273.984 
L 363.357815 268.608 
L 363.559052 273.984 
L 363.676135 268.608 
L 363.874627 273.984 
L 363.999942 268.608 
L 364.200264 273.984 
L 364.322835 268.608 
L 364.522242 273.984 
L 364.637495 268.608 
L 364.84422 273.984 
L 365.163454 279.36 
L 365.26956 273.984 
L 365.486347 279.36 
L 365.590624 273.984 
L 365.809239 279.36 
L 365.910772 273.984 
L 366.1239 279.36 
L 366.225433 273.984 
L 366.542837 268.608 
L 366.75688 273.984 
L 366.866645 268.608 
L 367.077943 273.984 
L 367.185879 268.608 
L 367.397177 273.984 
L 367.499624 268.608 
L 367.711837 273.984 
L 367.822517 268.608 
L 368.029242 273.984 
L 368.141751 268.608 
L 368.353964 273.984 
L 368.459156 268.608 
L 368.672283 273.984 
L 368.781134 268.608 
L 368.986029 273.984 
L 369.102197 268.608 
L 369.308922 273.984 
L 369.426005 268.608 
L 369.628156 273.984 
L 369.744324 268.608 
L 369.946475 273.984 
L 370.063558 268.608 
L 370.267539 273.984 
L 370.912409 284.736 
L 371.142916 279.36 
L 371.230729 284.736 
L 371.374338 279.36 
L 371.549963 284.736 
L 371.603931 279.36 
L 372.523215 257.856 
L 372.632065 263.232 
L 372.750063 257.856 
L 372.863487 263.232 
L 372.982399 257.856 
L 373.092165 263.232 
L 373.205589 257.856 
L 373.325416 263.232 
L 373.437925 257.856 
L 373.554093 263.232 
L 373.670262 257.856 
L 373.783686 263.232 
L 373.89528 257.856 
L 374.011449 263.232 
L 374.127617 257.856 
L 374.239212 263.232 
L 374.351721 257.856 
L 374.471548 263.232 
L 374.573996 257.856 
L 374.694737 263.232 
L 374.799929 257.856 
L 374.926159 263.232 
L 375.032266 257.856 
L 375.15941 263.232 
L 375.260943 257.856 
L 375.383514 263.232 
L 375.492365 257.856 
L 375.616766 263.232 
L 375.723787 257.856 
L 375.839955 263.232 
L 375.947891 257.856 
L 376.063144 263.232 
L 376.171995 257.856 
L 376.289078 263.232 
L 376.395184 257.856 
L 376.5205 263.232 
L 376.627521 257.856 
L 376.750092 263.232 
L 376.858028 257.856 
L 376.981514 263.232 
L 377.088535 257.856 
L 377.212935 263.232 
L 377.319957 257.856 
L 377.43704 263.232 
L 377.551378 257.856 
L 377.661144 263.232 
L 377.780056 257.856 
L 377.884333 263.232 
L 378.007819 257.856 
L 378.115755 263.232 
L 378.235582 257.856 
L 378.347177 263.232 
L 378.464259 257.856 
L 378.576769 263.232 
L 378.695681 257.856 
L 378.809105 263.232 
L 378.928018 257.856 
L 379.039612 263.232 
L 379.160354 257.856 
L 379.269205 263.232 
L 379.724731 273.984 
L 379.850961 268.608 
L 379.953408 273.984 
L 380.07415 268.608 
L 380.183915 273.984 
L 380.304657 268.608 
L 380.417166 273.984 
L 380.536079 268.608 
L 380.648588 273.984 
L 381.340109 279.36 
L 382.025228 295.488 
L 386.371017 290.112 
L 386.70946 187.968 
L 387.633318 166.464 
L 387.860166 171.84 
L 388.197694 268.608 
L 388.326668 263.232 
L 388.430945 268.608 
L 388.557175 263.232 
L 388.661452 268.608 
L 388.782194 263.232 
L 388.891045 268.608 
L 389.015445 263.232 
L 389.121552 268.608 
L 389.473715 257.856 
L 389.582566 263.232 
L 389.699649 257.856 
L 389.814902 263.232 
L 389.922838 257.856 
L 390.046324 263.232 
L 390.150601 257.856 
L 390.270428 263.232 
L 390.376535 257.856 
L 390.503679 263.232 
L 390.607042 257.856 
L 390.731442 263.232 
L 390.840293 257.856 
L 390.961949 263.232 
L 391.069885 257.856 
L 391.188798 263.232 
L 391.299477 257.856 
L 391.411987 263.232 
L 391.530899 257.856 
L 391.63975 263.232 
L 391.758662 257.856 
L 391.865683 263.232 
L 391.988254 257.856 
L 392.09619 263.232 
L 392.216017 257.856 
L 392.328527 263.232 
L 392.439207 257.856 
L 392.559034 263.232 
L 392.667884 257.856 
L 392.788626 263.232 
L 392.892903 257.856 
L 393.020048 263.232 
L 393.122496 257.856 
L 393.247811 263.232 
L 393.354832 257.856 
L 393.476489 263.232 
L 393.587168 257.856 
L 393.704251 263.232 
L 393.812187 257.856 
L 393.927441 263.232 
L 394.038121 257.856 
L 394.156118 263.232 
L 394.264054 257.856 
L 394.382052 263.232 
L 394.489988 257.856 
L 394.61073 263.232 
L 394.714092 257.856 
L 394.843981 263.232 
L 394.941855 257.856 
L 395.075402 263.232 
L 395.172362 257.856 
L 395.301336 263.232 
L 395.406528 257.856 
L 395.526355 263.232 
L 395.631546 257.856 
L 395.753203 263.232 
L 395.863883 257.856 
L 395.979136 263.232 
L 396.092561 257.856 
L 396.203241 263.232 
L 396.318494 257.856 
L 396.430089 263.232 
L 396.542598 257.856 
L 396.660596 263.232 
L 396.770361 257.856 
L 396.894762 263.232 
L 396.998124 257.856 
L 397.352117 268.608 
L 398.487273 295.488 
L 398.487273 295.488 
" clip-path="url(#p8c2d3da848)" style="fill: none; stroke: #1f77b4; stroke-width: 1.5; stroke-linecap: square"/>
   </g>
   <g id="patch_3">
    <path d="M 57.6 307.584 
L 57.6 41.472 
" style="fill: none; stroke: #000000; stroke-width: 0.8; stroke-linejoin: miter; stroke-linecap: square"/>
   </g>
   <g id="patch_4">
    <path d="M 414.72 307.584 
L 414.72 41.472 
" style="fill: none; stroke: #000000; stroke-width: 0.8; stroke-linejoin: miter; stroke-linecap: square"/>
   </g>
   <g id="patch_5">
    <path d="M 57.6 307.584 
L 414.72 307.584 
" style="fill: none; stroke: #000000; stroke-width: 0.8; stroke-linejoin: miter; stroke-linecap: square"/>
   </g>
   <g id="patch_6">
    <path d="M 57.6 41.472 
L 414.72 41.472 
" style="fill: none; stroke: #000000; stroke-width: 0.8; stroke-linejoin: miter; stroke-linecap: square"/>
   </g>
   <g id="text_15">
    <!-- Queue size (y-axis) between S4 and sensors that follow at a time (x-axis). -->
    <g transform="translate(14.282813 35.472) scale(0.12 -0.12)">
     <defs>
      <path id="DejaVuSans-51" d="M 2522 4238 
Q 1834 4238 1429 3725 
Q 1025 3213 1025 2328 
Q 1025 1447 1429 934 
Q 1834 422 2522 422 
Q 3209 422 3611 934 
Q 4013 1447 4013 2328 
Q 4013 3213 3611 3725 
Q 3209 4238 2522 4238 
z
M 3406 84 
L 4238 -825 
L 3475 -825 
L 2784 -78 
Q 2681 -84 2626 -87 
Q 2572 -91 2522 -91 
Q 1538 -91 948 567 
Q 359 1225 359 2328 
Q 359 3434 948 4092 
Q 1538 4750 2522 4750 
Q 3503 4750 4090 4092 
Q 4678 3434 4678 2328 
Q 4678 1516 4351 937 
Q 4025 359 3406 84 
z
" transform="scale(0.015625)"/>
      <path id="DejaVuSans-75" d="M 544 1381 
L 544 3500 
L 1119 3500 
L 1119 1403 
Q 1119 906 1312 657 
Q 1506 409 1894 409 
Q 2359 409 2629 706 
Q 2900 1003 2900 1516 
L 2900 3500 
L 3475 3500 
L 3475 0 
L 2900 0 
L 2900 538 
Q 2691 219 2414 64 
Q 2138 -91 1772 -91 
Q 1169 -91 856 284 
Q 544 659 544 1381 
z
M 1991 3584 
L 1991 3584 
z
" transform="scale(0.015625)"/>
      <path id="DejaVuSans-20" transform="scale(0.015625)"/>
      <path id="DejaVuSans-73" d="M 2834 3397 
L 2834 2853 
Q 2591 2978 2328 3040 
Q 2066 3103 1784 3103 
Q 1356 3103 1142 2972 
Q 928 2841 928 2578 
Q 928 2378 1081 2264 
Q 1234 2150 1697 2047 
L 1894 2003 
Q 2506 1872 2764 1633 
Q 3022 1394 3022 966 
Q 3022 478 2636 193 
Q 2250 -91 1575 -91 
Q 1294 -91 989 -36 
Q 684 19 347 128 
L 347 722 
Q 666 556 975 473 
Q 1284 391 1588 391 
Q 1994 391 2212 530 
Q 2431 669 2431 922 
Q 2431 1156 2273 1281 
Q 2116 1406 1581 1522 
L 1381 1569 
Q 847 1681 609 1914 
Q 372 2147 372 2553 
Q 372 3047 722 3315 
Q 1072 3584 1716 3584 
Q 2034 3584 2315 3537 
Q 2597 3491 2834 3397 
z
" transform="scale(0.015625)"/>
      <path id="DejaVuSans-69" d="M 603 3500 
L 1178 3500 
L 1178 0 
L 603 0 
L 603 3500 
z
M 603 4863 
L 1178 4863 
L 1178 4134 
L 603 4134 
L 603 4863 
z
" transform="scale(0.015625)"/>
      <path id="DejaVuSans-7a" d="M 353 3500 
L 3084 3500 
L 3084 2975 
L 922 459 
L 3084 459 
L 3084 0 
L 275 0 
L 275 525 
L 2438 3041 
L 353 3041 
L 353 3500 
z
" transform="scale(0.015625)"/>
      <path id="DejaVuSans-28" d="M 1984 4856 
Q 1566 4138 1362 3434 
Q 1159 2731 1159 2009 
Q 1159 1288 1364 580 
Q 1569 -128 1984 -844 
L 1484 -844 
Q 1016 -109 783 600 
Q 550 1309 550 2009 
Q 550 2706 781 3412 
Q 1013 4119 1484 4856 
L 1984 4856 
z
" transform="scale(0.015625)"/>
      <path id="DejaVuSans-79" d="M 2059 -325 
Q 1816 -950 1584 -1140 
Q 1353 -1331 966 -1331 
L 506 -1331 
L 506 -850 
L 844 -850 
Q 1081 -850 1212 -737 
Q 1344 -625 1503 -206 
L 1606 56 
L 191 3500 
L 800 3500 
L 1894 763 
L 2988 3500 
L 3597 3500 
L 2059 -325 
z
" transform="scale(0.015625)"/>
      <path id="DejaVuSans-2d" d="M 313 2009 
L 1997 2009 
L 1997 1497 
L 313 1497 
L 313 2009 
z
" transform="scale(0.015625)"/>
      <path id="DejaVuSans-61" d="M 2194 1759 
Q 1497 1759 1228 1600 
Q 959 1441 959 1056 
Q 959 750 1161 570 
Q 1363 391 1709 391 
Q 2188 391 2477 730 
Q 2766 1069 2766 1631 
L 2766 1759 
L 2194 1759 
z
M 3341 1997 
L 3341 0 
L 2766 0 
L 2766 531 
Q 2569 213 2275 61 
Q 1981 -91 1556 -91 
Q 1019 -91 701 211 
Q 384 513 384 1019 
Q 384 1609 779 1909 
Q 1175 2209 1959 2209 
L 2766 2209 
L 2766 2266 
Q 2766 2663 2505 2880 
Q 2244 3097 1772 3097 
Q 1472 3097 1187 3025 
Q 903 2953 641 2809 
L 641 3341 
Q 956 3463 1253 3523 
Q 1550 3584 1831 3584 
Q 2591 3584 2966 3190 
Q 3341 2797 3341 1997 
z
" transform="scale(0.015625)"/>
      <path id="DejaVuSans-78" d="M 3513 3500 
L 2247 1797 
L 3578 0 
L 2900 0 
L 1881 1375 
L 863 0 
L 184 0 
L 1544 1831 
L 300 3500 
L 978 3500 
L 1906 2253 
L 2834 3500 
L 3513 3500 
z
" transform="scale(0.015625)"/>
      <path id="DejaVuSans-29" d="M 513 4856 
L 1013 4856 
Q 1481 4119 1714 3412 
Q 1947 2706 1947 2009 
Q 1947 1309 1714 600 
Q 1481 -109 1013 -844 
L 513 -844 
Q 928 -128 1133 580 
Q 1338 1288 1338 2009 
Q 1338 2731 1133 3434 
Q 928 4138 513 4856 
z
" transform="scale(0.015625)"/>
      <path id="DejaVuSans-62" d="M 3116 1747 
Q 3116 2381 2855 2742 
Q 2594 3103 2138 3103 
Q 1681 3103 1420 2742 
Q 1159 2381 1159 1747 
Q 1159 1113 1420 752 
Q 1681 391 2138 391 
Q 2594 391 2855 752 
Q 3116 1113 3116 1747 
z
M 1159 2969 
Q 1341 3281 1617 3432 
Q 1894 3584 2278 3584 
Q 2916 3584 3314 3078 
Q 3713 2572 3713 1747 
Q 3713 922 3314 415 
Q 2916 -91 2278 -91 
Q 1894 -91 1617 61 
Q 1341 213 1159 525 
L 1159 0 
L 581 0 
L 581 4863 
L 1159 4863 
L 1159 2969 
z
" transform="scale(0.015625)"/>
      <path id="DejaVuSans-74" d="M 1172 4494 
L 1172 3500 
L 2356 3500 
L 2356 3053 
L 1172 3053 
L 1172 1153 
Q 1172 725 1289 603 
Q 1406 481 1766 481 
L 2356 481 
L 2356 0 
L 1766 0 
Q 1100 0 847 248 
Q 594 497 594 1153 
L 594 3053 
L 172 3053 
L 172 3500 
L 594 3500 
L 594 4494 
L 1172 4494 
z
" transform="scale(0.015625)"/>
      <path id="DejaVuSans-77" d="M 269 3500 
L 844 3500 
L 1563 769 
L 2278 3500 
L 2956 3500 
L 3675 769 
L 4391 3500 
L 4966 3500 
L 4050 0 
L 3372 0 
L 2619 2869 
L 1863 0 
L 1184 0 
L 269 3500 
z
" transform="scale(0.015625)"/>
      <path id="DejaVuSans-6e" d="M 3513 2113 
L 3513 0 
L 2938 0 
L 2938 2094 
Q 2938 2591 2744 2837 
Q 2550 3084 2163 3084 
Q 1697 3084 1428 2787 
Q 1159 2491 1159 1978 
L 1159 0 
L 581 0 
L 581 3500 
L 1159 3500 
L 1159 2956 
Q 1366 3272 1645 3428 
Q 1925 3584 2291 3584 
Q 2894 3584 3203 3211 
Q 3513 2838 3513 2113 
z
" transform="scale(0.015625)"/>
      <path id="DejaVuSans-53" d="M 3425 4513 
L 3425 3897 
Q 3066 4069 2747 4153 
Q 2428 4238 2131 4238 
Q 1616 4238 1336 4038 
Q 1056 3838 1056 3469 
Q 1056 3159 1242 3001 
Q 1428 2844 1947 2747 
L 2328 2669 
Q 3034 2534 3370 2195 
Q 3706 1856 3706 1288 
Q 3706 609 3251 259 
Q 2797 -91 1919 -91 
Q 1588 -91 1214 -16 
Q 841 59 441 206 
L 441 856 
Q 825 641 1194 531 
Q 1563 422 1919 422 
Q 2459 422 2753 634 
Q 3047 847 3047 1241 
Q 3047 1584 2836 1778 
Q 2625 1972 2144 2069 
L 1759 2144 
Q 1053 2284 737 2584 
Q 422 2884 422 3419 
Q 422 4038 858 4394 
Q 1294 4750 2059 4750 
Q 2388 4750 2728 4690 
Q 3069 4631 3425 4513 
z
" transform="scale(0.015625)"/>
      <path id="DejaVuSans-64" d="M 2906 2969 
L 2906 4863 
L 3481 4863 
L 3481 0 
L 2906 0 
L 2906 525 
Q 2725 213 2448 61 
Q 2172 -91 1784 -91 
Q 1150 -91 751 415 
Q 353 922 353 1747 
Q 353 2572 751 3078 
Q 1150 3584 1784 3584 
Q 2172 3584 2448 3432 
Q 2725 3281 2906 2969 
z
M 947 1747 
Q 947 1113 1208 752 
Q 1469 391 1925 391 
Q 2381 391 2643 752 
Q 2906 1113 2906 1747 
Q 2906 2381 2643 2742 
Q 2381 3103 1925 3103 
Q 1469 3103 1208 2742 
Q 947 2381 947 1747 
z
" transform="scale(0.015625)"/>
      <path id="DejaVuSans-6f" d="M 1959 3097 
Q 1497 3097 1228 2736 
Q 959 2375 959 1747 
Q 959 1119 1226 758 
Q 1494 397 1959 397 
Q 2419 397 2687 759 
Q 2956 1122 2956 1747 
Q 2956 2369 2687 2733 
Q 2419 3097 1959 3097 
z
M 1959 3584 
Q 2709 3584 3137 3096 
Q 3566 2609 3566 1747 
Q 3566 888 3137 398 
Q 2709 -91 1959 -91 
Q 1206 -91 779 398 
Q 353 888 353 1747 
Q 353 2609 779 3096 
Q 1206 3584 1959 3584 
z
" transform="scale(0.015625)"/>
      <path id="DejaVuSans-72" d="M 2631 2963 
Q 2534 3019 2420 3045 
Q 2306 3072 2169 3072 
Q 1681 3072 1420 2755 
Q 1159 2438 1159 1844 
L 1159 0 
L 581 0 
L 581 3500 
L 1159 3500 
L 1159 2956 
Q 1341 3275 1631 3429 
Q 1922 3584 2338 3584 
Q 2397 3584 2469 3576 
Q 2541 3569 2628 3553 
L 2631 2963 
z
" transform="scale(0.015625)"/>
      <path id="DejaVuSans-68" d="M 3513 2113 
L 3513 0 
L 2938 0 
L 2938 2094 
Q 2938 2591 2744 2837 
Q 2550 3084 2163 3084 
Q 1697 3084 1428 2787 
Q 1159 2491 1159 1978 
L 1159 0 
L 581 0 
L 581 4863 
L 1159 4863 
L 1159 2956 
Q 1366 3272 1645 3428 
Q 1925 3584 2291 3584 
Q 2894 3584 3203 3211 
Q 3513 2838 3513 2113 
z
" transform="scale(0.015625)"/>
      <path id="DejaVuSans-66" d="M 2375 4863 
L 2375 4384 
L 1825 4384 
Q 1516 4384 1395 4259 
Q 1275 4134 1275 3809 
L 1275 3500 
L 2222 3500 
L 2222 3053 
L 1275 3053 
L 1275 0 
L 697 0 
L 697 3053 
L 147 3053 
L 147 3500 
L 697 3500 
L 697 3744 
Q 697 4328 969 4595 
Q 1241 4863 1831 4863 
L 2375 4863 
z
" transform="scale(0.015625)"/>
      <path id="DejaVuSans-6c" d="M 603 4863 
L 1178 4863 
L 1178 0 
L 603 0 
L 603 4863 
z
" transform="scale(0.015625)"/>
      <path id="DejaVuSans-6d" d="M 3328 2828 
Q 3544 3216 3844 3400 
Q 4144 3584 4550 3584 
Q 5097 3584 5394 3201 
Q 5691 2819 5691 2113 
L 5691 0 
L 5113 0 
L 5113 2094 
Q 5113 2597 4934 2840 
Q 4756 3084 4391 3084 
Q 3944 3084 3684 2787 
Q 3425 2491 3425 1978 
L 3425 0 
L 2847 0 
L 2847 2094 
Q 2847 2600 2669 2842 
Q 2491 3084 2119 3084 
Q 1678 3084 1418 2786 
Q 1159 2488 1159 1978 
L 1159 0 
L 581 0 
L 581 3500 
L 1159 3500 
L 1159 2956 
Q 1356 3278 1631 3431 
Q 1906 3584 2284 3584 
Q 2666 3584 2933 3390 
Q 3200 3197 3328 2828 
z
" transform="scale(0.015625)"/>
     </defs>
     <use xlink:href="#DejaVuSans-51"/>
     <use xlink:href="#DejaVuSans-75" x="78.710938"/>
     <use xlink:href="#DejaVuSans-65" x="142.089844"/>
     <use xlink:href="#DejaVuSans-75" x="203.613281"/>
     <use xlink:href="#DejaVuSans-65" x="266.992188"/>
     <use xlink:href="#DejaVuSans-20" x="328.515625"/>
     <use xlink:href="#DejaVuSans-73" x="360.302734"/>
     <use xlink:href="#DejaVuSans-69" x="412.402344"/>
     <use xlink:href="#DejaVuSans-7a" x="440.185547"/>
     <use xlink:href="#DejaVuSans-65" x="492.675781"/>
     <use xlink:href="#DejaVuSans-20" x="554.199219"/>
     <use xlink:href="#DejaVuSans-28" x="585.986328"/>
     <use xlink:href="#DejaVuSans-79" x="625"/>
     <use xlink:href="#DejaVuSans-2d" x="682.429688"/>
     <use xlink:href="#DejaVuSans-61" x="718.513672"/>
     <use xlink:href="#DejaVuSans-78" x="779.792969"/>
     <use xlink:href="#DejaVuSans-69" x="838.972656"/>
     <use xlink:href="#DejaVuSans-73" x="866.755859"/>
     <use xlink:href="#DejaVuSans-29" x="918.855469"/>
     <use xlink:href="#DejaVuSans-20" x="957.869141"/>
     <use xlink:href="#DejaVuSans-62" x="989.65625"/>
     <use xlink:href="#DejaVuSans-65" x="1053.132812"/>
     <use xlink:href="#DejaVuSans-74" x="1114.65625"/>
     <use xlink:href="#DejaVuSans-77" x="1153.865234"/>
     <use xlink:href="#DejaVuSans-65" x="1235.652344"/>
     <use xlink:href="#DejaVuSans-65" x="1297.175781"/>
     <use xlink:href="#DejaVuSans-6e" x="1358.699219"/>
     <use xlink:href="#DejaVuSans-20" x="1422.078125"/>
     <use xlink:href="#DejaVuSans-53" x="1453.865234"/>
     <use xlink:href="#DejaVuSans-34" x="1517.341797"/>
     <use xlink:href="#DejaVuSans-20" x="1580.964844"/>
     <use xlink:href="#DejaVuSans-61" x="1612.751953"/>
     <use xlink:href="#DejaVuSans-6e" x="1674.03125"/>
     <use xlink:href="#DejaVuSans-64" x="1737.410156"/>
     <use xlink:href="#DejaVuSans-20" x="1800.886719"/>
     <use xlink:href="#DejaVuSans-73" x="1832.673828"/>
     <use xlink:href="#DejaVuSans-65" x="1884.773438"/>
     <use xlink:href="#DejaVuSans-6e" x="1946.296875"/>
     <use xlink:href="#DejaVuSans-73" x="2009.675781"/>
     <use xlink:href="#DejaVuSans-6f" x="2061.775391"/>
     <use xlink:href="#DejaVuSans-72" x="2122.957031"/>
     <use xlink:href="#DejaVuSans-73" x="2164.070312"/>
     <use xlink:href="#DejaVuSans-20" x="2216.169922"/>
     <use xlink:href="#DejaVuSans-74" x="2247.957031"/>
     <use xlink:href="#DejaVuSans-68" x="2287.166016"/>
     <use xlink:href="#DejaVuSans-61" x="2350.544922"/>
     <use xlink:href="#DejaVuSans-74" x="2411.824219"/>
     <use xlink:href="#DejaVuSans-20" x="2451.033203"/>
     <use xlink:href="#DejaVuSans-66" x="2482.820312"/>
     <use xlink:href="#DejaVuSans-6f" x="2518.025391"/>
     <use xlink:href="#DejaVuSans-6c" x="2579.207031"/>
     <use xlink:href="#DejaVuSans-6c" x="2606.990234"/>
     <use xlink:href="#DejaVuSans-6f" x="2634.773438"/>
     <use xlink:href="#DejaVuSans-77" x="2695.955078"/>
     <use xlink:href="#DejaVuSans-20" x="2777.742188"/>
     <use xlink:href="#DejaVuSans-61" x="2809.529297"/>
     <use xlink:href="#DejaVuSans-74" x="2870.808594"/>
     <use xlink:href="#DejaVuSans-20" x="2910.017578"/>
     <use xlink:href="#DejaVuSans-61" x="2941.804688"/>
     <use xlink:href="#DejaVuSans-20" x="3003.083984"/>
     <use xlink:href="#DejaVuSans-74" x="3034.871094"/>
     <use xlink:href="#DejaVuSans-69" x="3074.080078"/>
     <use xlink:href="#DejaVuSans-6d" x="3101.863281"/>
     <use xlink:href="#DejaVuSans-65" x="3199.275391"/>
     <use xlink:href="#DejaVuSans-20" x="3260.798828"/>
     <use xlink:href="#DejaVuSans-28" x="3292.585938"/>
     <use xlink:href="#DejaVuSans-78" x="3331.599609"/>
     <use xlink:href="#DejaVuSans-2d" x="3390.779297"/>
     <use xlink:href="#DejaVuSans-61" x="3426.863281"/>
     <use xlink:href="#DejaVuSans-78" x="3488.142578"/>
     <use xlink:href="#DejaVuSans-69" x="3547.322266"/>
     <use xlink:href="#DejaVuSans-73" x="3575.105469"/>
     <use xlink:href="#DejaVuSans-29" x="3627.205078"/>
     <use xlink:href="#DejaVuSans-2e" x="3666.21875"/>
    </g>
   </g>
  </g>
 </g>
 <defs>
  <clipPath id="p8c2d3da848">
   <rect x="57.6" y="41.472" width="357.12" height="266.112"/>
  </clipPath>
 </defs>
</svg>
