<?xml version="1.0" encoding="utf-8" standalone="no"?>
<!DOCTYPE svg PUBLIC "-//W3C//DTD SVG 1.1//EN"
  "http://www.w3.org/Graphics/SVG/1.1/DTD/svg11.dtd">
<svg xmlns:xlink="http://www.w3.org/1999/xlink" width="460.8pt" height="345.6pt" viewBox="0 0 460.8 345.6" xmlns="http://www.w3.org/2000/svg" version="1.1">
 <metadata>
  <rdf:RDF xmlns:dc="http://purl.org/dc/elements/1.1/" xmlns:cc="http://creativecommons.org/ns#" xmlns:rdf="http://www.w3.org/1999/02/22-rdf-syntax-ns#">
   <cc:Work>
    <dc:type rdf:resource="http://purl.org/dc/dcmitype/StillImage"/>
    <dc:date>2024-03-08T12:40:50.206611</dc:date>
    <dc:format>image/svg+xml</dc:format>
    <dc:creator>
     <cc:Agent>
      <dc:title>Matplotlib v3.8.2, https://matplotlib.org/</dc:title>
     </cc:Agent>
    </dc:creator>
   </cc:Work>
  </rdf:RDF>
 </metadata>
 <defs>
  <style type="text/css">*{stroke-linejoin: round; stroke-linecap: butt}</style>
 </defs>
 <g id="figure_1">
  <g id="patch_1">
   <path d="M 0 345.6 
L 460.8 345.6 
L 460.8 0 
L 0 0 
z
" style="fill: #ffffff"/>
  </g>
  <g id="axes_1">
   <g id="patch_2">
    <path d="M 57.6 307.584 
L 414.72 307.584 
L 414.72 41.472 
L 57.6 41.472 
z
" style="fill: #ffffff"/>
   </g>
   <g id="matplotlib.axis_1">
    <g id="xtick_1">
     <g id="line2d_1">
      <defs>
       <path id="m14b2428b32" d="M 0 0 
L 0 3.5 
" style="stroke: #000000; stroke-width: 0.8"/>
      </defs>
      <g>
       <use xlink:href="#m14b2428b32" x="71.633314" y="307.584" style="stroke: #000000; stroke-width: 0.8"/>
      </g>
     </g>
     <g id="text_1">
      <!-- 0.0 -->
      <g transform="translate(63.681751 322.182437) scale(0.1 -0.1)">
       <defs>
        <path id="DejaVuSans-30" d="M 2034 4250 
Q 1547 4250 1301 3770 
Q 1056 3291 1056 2328 
Q 1056 1369 1301 889 
Q 1547 409 2034 409 
Q 2525 409 2770 889 
Q 3016 1369 3016 2328 
Q 3016 3291 2770 3770 
Q 2525 4250 2034 4250 
z
M 2034 4750 
Q 2819 4750 3233 4129 
Q 3647 3509 3647 2328 
Q 3647 1150 3233 529 
Q 2819 -91 2034 -91 
Q 1250 -91 836 529 
Q 422 1150 422 2328 
Q 422 3509 836 4129 
Q 1250 4750 2034 4750 
z
" transform="scale(0.015625)"/>
        <path id="DejaVuSans-2e" d="M 684 794 
L 1344 794 
L 1344 0 
L 684 0 
L 684 794 
z
" transform="scale(0.015625)"/>
       </defs>
       <use xlink:href="#DejaVuSans-30"/>
       <use xlink:href="#DejaVuSans-2e" x="63.623047"/>
       <use xlink:href="#DejaVuSans-30" x="95.410156"/>
      </g>
     </g>
    </g>
    <g id="xtick_2">
     <g id="line2d_2">
      <g>
       <use xlink:href="#m14b2428b32" x="117.550087" y="307.584" style="stroke: #000000; stroke-width: 0.8"/>
      </g>
     </g>
     <g id="text_2">
      <!-- 0.5 -->
      <g transform="translate(109.598525 322.182437) scale(0.1 -0.1)">
       <defs>
        <path id="DejaVuSans-35" d="M 691 4666 
L 3169 4666 
L 3169 4134 
L 1269 4134 
L 1269 2991 
Q 1406 3038 1543 3061 
Q 1681 3084 1819 3084 
Q 2600 3084 3056 2656 
Q 3513 2228 3513 1497 
Q 3513 744 3044 326 
Q 2575 -91 1722 -91 
Q 1428 -91 1123 -41 
Q 819 9 494 109 
L 494 744 
Q 775 591 1075 516 
Q 1375 441 1709 441 
Q 2250 441 2565 725 
Q 2881 1009 2881 1497 
Q 2881 1984 2565 2268 
Q 2250 2553 1709 2553 
Q 1456 2553 1204 2497 
Q 953 2441 691 2322 
L 691 4666 
z
" transform="scale(0.015625)"/>
       </defs>
       <use xlink:href="#DejaVuSans-30"/>
       <use xlink:href="#DejaVuSans-2e" x="63.623047"/>
       <use xlink:href="#DejaVuSans-35" x="95.410156"/>
      </g>
     </g>
    </g>
    <g id="xtick_3">
     <g id="line2d_3">
      <g>
       <use xlink:href="#m14b2428b32" x="163.46686" y="307.584" style="stroke: #000000; stroke-width: 0.8"/>
      </g>
     </g>
     <g id="text_3">
      <!-- 1.0 -->
      <g transform="translate(155.515298 322.182437) scale(0.1 -0.1)">
       <defs>
        <path id="DejaVuSans-31" d="M 794 531 
L 1825 531 
L 1825 4091 
L 703 3866 
L 703 4441 
L 1819 4666 
L 2450 4666 
L 2450 531 
L 3481 531 
L 3481 0 
L 794 0 
L 794 531 
z
" transform="scale(0.015625)"/>
       </defs>
       <use xlink:href="#DejaVuSans-31"/>
       <use xlink:href="#DejaVuSans-2e" x="63.623047"/>
       <use xlink:href="#DejaVuSans-30" x="95.410156"/>
      </g>
     </g>
    </g>
    <g id="xtick_4">
     <g id="line2d_4">
      <g>
       <use xlink:href="#m14b2428b32" x="209.383634" y="307.584" style="stroke: #000000; stroke-width: 0.8"/>
      </g>
     </g>
     <g id="text_4">
      <!-- 1.5 -->
      <g transform="translate(201.432071 322.182437) scale(0.1 -0.1)">
       <use xlink:href="#DejaVuSans-31"/>
       <use xlink:href="#DejaVuSans-2e" x="63.623047"/>
       <use xlink:href="#DejaVuSans-35" x="95.410156"/>
      </g>
     </g>
    </g>
    <g id="xtick_5">
     <g id="line2d_5">
      <g>
       <use xlink:href="#m14b2428b32" x="255.300407" y="307.584" style="stroke: #000000; stroke-width: 0.8"/>
      </g>
     </g>
     <g id="text_5">
      <!-- 2.0 -->
      <g transform="translate(247.348844 322.182437) scale(0.1 -0.1)">
       <defs>
        <path id="DejaVuSans-32" d="M 1228 531 
L 3431 531 
L 3431 0 
L 469 0 
L 469 531 
Q 828 903 1448 1529 
Q 2069 2156 2228 2338 
Q 2531 2678 2651 2914 
Q 2772 3150 2772 3378 
Q 2772 3750 2511 3984 
Q 2250 4219 1831 4219 
Q 1534 4219 1204 4116 
Q 875 4013 500 3803 
L 500 4441 
Q 881 4594 1212 4672 
Q 1544 4750 1819 4750 
Q 2544 4750 2975 4387 
Q 3406 4025 3406 3419 
Q 3406 3131 3298 2873 
Q 3191 2616 2906 2266 
Q 2828 2175 2409 1742 
Q 1991 1309 1228 531 
z
" transform="scale(0.015625)"/>
       </defs>
       <use xlink:href="#DejaVuSans-32"/>
       <use xlink:href="#DejaVuSans-2e" x="63.623047"/>
       <use xlink:href="#DejaVuSans-30" x="95.410156"/>
      </g>
     </g>
    </g>
    <g id="xtick_6">
     <g id="line2d_6">
      <g>
       <use xlink:href="#m14b2428b32" x="301.21718" y="307.584" style="stroke: #000000; stroke-width: 0.8"/>
      </g>
     </g>
     <g id="text_6">
      <!-- 2.5 -->
      <g transform="translate(293.265618 322.182437) scale(0.1 -0.1)">
       <use xlink:href="#DejaVuSans-32"/>
       <use xlink:href="#DejaVuSans-2e" x="63.623047"/>
       <use xlink:href="#DejaVuSans-35" x="95.410156"/>
      </g>
     </g>
    </g>
    <g id="xtick_7">
     <g id="line2d_7">
      <g>
       <use xlink:href="#m14b2428b32" x="347.133953" y="307.584" style="stroke: #000000; stroke-width: 0.8"/>
      </g>
     </g>
     <g id="text_7">
      <!-- 3.0 -->
      <g transform="translate(339.182391 322.182437) scale(0.1 -0.1)">
       <defs>
        <path id="DejaVuSans-33" d="M 2597 2516 
Q 3050 2419 3304 2112 
Q 3559 1806 3559 1356 
Q 3559 666 3084 287 
Q 2609 -91 1734 -91 
Q 1441 -91 1130 -33 
Q 819 25 488 141 
L 488 750 
Q 750 597 1062 519 
Q 1375 441 1716 441 
Q 2309 441 2620 675 
Q 2931 909 2931 1356 
Q 2931 1769 2642 2001 
Q 2353 2234 1838 2234 
L 1294 2234 
L 1294 2753 
L 1863 2753 
Q 2328 2753 2575 2939 
Q 2822 3125 2822 3475 
Q 2822 3834 2567 4026 
Q 2313 4219 1838 4219 
Q 1578 4219 1281 4162 
Q 984 4106 628 3988 
L 628 4550 
Q 988 4650 1302 4700 
Q 1616 4750 1894 4750 
Q 2613 4750 3031 4423 
Q 3450 4097 3450 3541 
Q 3450 3153 3228 2886 
Q 3006 2619 2597 2516 
z
" transform="scale(0.015625)"/>
       </defs>
       <use xlink:href="#DejaVuSans-33"/>
       <use xlink:href="#DejaVuSans-2e" x="63.623047"/>
       <use xlink:href="#DejaVuSans-30" x="95.410156"/>
      </g>
     </g>
    </g>
    <g id="xtick_8">
     <g id="line2d_8">
      <g>
       <use xlink:href="#m14b2428b32" x="393.050727" y="307.584" style="stroke: #000000; stroke-width: 0.8"/>
      </g>
     </g>
     <g id="text_8">
      <!-- 3.5 -->
      <g transform="translate(385.099164 322.182437) scale(0.1 -0.1)">
       <use xlink:href="#DejaVuSans-33"/>
       <use xlink:href="#DejaVuSans-2e" x="63.623047"/>
       <use xlink:href="#DejaVuSans-35" x="95.410156"/>
      </g>
     </g>
    </g>
    <g id="text_9">
     <!-- 1e6 -->
     <g transform="translate(395.841875 334.860562) scale(0.1 -0.1)">
      <defs>
       <path id="DejaVuSans-65" d="M 3597 1894 
L 3597 1613 
L 953 1613 
Q 991 1019 1311 708 
Q 1631 397 2203 397 
Q 2534 397 2845 478 
Q 3156 559 3463 722 
L 3463 178 
Q 3153 47 2828 -22 
Q 2503 -91 2169 -91 
Q 1331 -91 842 396 
Q 353 884 353 1716 
Q 353 2575 817 3079 
Q 1281 3584 2069 3584 
Q 2775 3584 3186 3129 
Q 3597 2675 3597 1894 
z
M 3022 2063 
Q 3016 2534 2758 2815 
Q 2500 3097 2075 3097 
Q 1594 3097 1305 2825 
Q 1016 2553 972 2059 
L 3022 2063 
z
" transform="scale(0.015625)"/>
       <path id="DejaVuSans-36" d="M 2113 2584 
Q 1688 2584 1439 2293 
Q 1191 2003 1191 1497 
Q 1191 994 1439 701 
Q 1688 409 2113 409 
Q 2538 409 2786 701 
Q 3034 994 3034 1497 
Q 3034 2003 2786 2293 
Q 2538 2584 2113 2584 
z
M 3366 4563 
L 3366 3988 
Q 3128 4100 2886 4159 
Q 2644 4219 2406 4219 
Q 1781 4219 1451 3797 
Q 1122 3375 1075 2522 
Q 1259 2794 1537 2939 
Q 1816 3084 2150 3084 
Q 2853 3084 3261 2657 
Q 3669 2231 3669 1497 
Q 3669 778 3244 343 
Q 2819 -91 2113 -91 
Q 1303 -91 875 529 
Q 447 1150 447 2328 
Q 447 3434 972 4092 
Q 1497 4750 2381 4750 
Q 2619 4750 2861 4703 
Q 3103 4656 3366 4563 
z
" transform="scale(0.015625)"/>
      </defs>
      <use xlink:href="#DejaVuSans-31"/>
      <use xlink:href="#DejaVuSans-65" x="63.623047"/>
      <use xlink:href="#DejaVuSans-36" x="125.146484"/>
     </g>
    </g>
   </g>
   <g id="matplotlib.axis_2">
    <g id="ytick_1">
     <g id="line2d_9">
      <defs>
       <path id="md3fd6b8901" d="M 0 0 
L -3.5 0 
" style="stroke: #000000; stroke-width: 0.8"/>
      </defs>
      <g>
       <use xlink:href="#md3fd6b8901" x="57.6" y="295.488" style="stroke: #000000; stroke-width: 0.8"/>
      </g>
     </g>
     <g id="text_10">
      <!-- 0.0 -->
      <g transform="translate(34.696875 299.287219) scale(0.1 -0.1)">
       <use xlink:href="#DejaVuSans-30"/>
       <use xlink:href="#DejaVuSans-2e" x="63.623047"/>
       <use xlink:href="#DejaVuSans-30" x="95.410156"/>
      </g>
     </g>
    </g>
    <g id="ytick_2">
     <g id="line2d_10">
      <g>
       <use xlink:href="#md3fd6b8901" x="57.6" y="265.248" style="stroke: #000000; stroke-width: 0.8"/>
      </g>
     </g>
     <g id="text_11">
      <!-- 2.5 -->
      <g transform="translate(34.696875 269.047219) scale(0.1 -0.1)">
       <use xlink:href="#DejaVuSans-32"/>
       <use xlink:href="#DejaVuSans-2e" x="63.623047"/>
       <use xlink:href="#DejaVuSans-35" x="95.410156"/>
      </g>
     </g>
    </g>
    <g id="ytick_3">
     <g id="line2d_11">
      <g>
       <use xlink:href="#md3fd6b8901" x="57.6" y="235.008" style="stroke: #000000; stroke-width: 0.8"/>
      </g>
     </g>
     <g id="text_12">
      <!-- 5.0 -->
      <g transform="translate(34.696875 238.807219) scale(0.1 -0.1)">
       <use xlink:href="#DejaVuSans-35"/>
       <use xlink:href="#DejaVuSans-2e" x="63.623047"/>
       <use xlink:href="#DejaVuSans-30" x="95.410156"/>
      </g>
     </g>
    </g>
    <g id="ytick_4">
     <g id="line2d_12">
      <g>
       <use xlink:href="#md3fd6b8901" x="57.6" y="204.768" style="stroke: #000000; stroke-width: 0.8"/>
      </g>
     </g>
     <g id="text_13">
      <!-- 7.5 -->
      <g transform="translate(34.696875 208.567219) scale(0.1 -0.1)">
       <defs>
        <path id="DejaVuSans-37" d="M 525 4666 
L 3525 4666 
L 3525 4397 
L 1831 0 
L 1172 0 
L 2766 4134 
L 525 4134 
L 525 4666 
z
" transform="scale(0.015625)"/>
       </defs>
       <use xlink:href="#DejaVuSans-37"/>
       <use xlink:href="#DejaVuSans-2e" x="63.623047"/>
       <use xlink:href="#DejaVuSans-35" x="95.410156"/>
      </g>
     </g>
    </g>
    <g id="ytick_5">
     <g id="line2d_13">
      <g>
       <use xlink:href="#md3fd6b8901" x="57.6" y="174.528" style="stroke: #000000; stroke-width: 0.8"/>
      </g>
     </g>
     <g id="text_14">
      <!-- 10.0 -->
      <g transform="translate(28.334375 178.327219) scale(0.1 -0.1)">
       <use xlink:href="#DejaVuSans-31"/>
       <use xlink:href="#DejaVuSans-30" x="63.623047"/>
       <use xlink:href="#DejaVuSans-2e" x="127.246094"/>
       <use xlink:href="#DejaVuSans-30" x="159.033203"/>
      </g>
     </g>
    </g>
    <g id="ytick_6">
     <g id="line2d_14">
      <g>
       <use xlink:href="#md3fd6b8901" x="57.6" y="144.288" style="stroke: #000000; stroke-width: 0.8"/>
      </g>
     </g>
     <g id="text_15">
      <!-- 12.5 -->
      <g transform="translate(28.334375 148.087219) scale(0.1 -0.1)">
       <use xlink:href="#DejaVuSans-31"/>
       <use xlink:href="#DejaVuSans-32" x="63.623047"/>
       <use xlink:href="#DejaVuSans-2e" x="127.246094"/>
       <use xlink:href="#DejaVuSans-35" x="159.033203"/>
      </g>
     </g>
    </g>
    <g id="ytick_7">
     <g id="line2d_15">
      <g>
       <use xlink:href="#md3fd6b8901" x="57.6" y="114.048" style="stroke: #000000; stroke-width: 0.8"/>
      </g>
     </g>
     <g id="text_16">
      <!-- 15.0 -->
      <g transform="translate(28.334375 117.847219) scale(0.1 -0.1)">
       <use xlink:href="#DejaVuSans-31"/>
       <use xlink:href="#DejaVuSans-35" x="63.623047"/>
       <use xlink:href="#DejaVuSans-2e" x="127.246094"/>
       <use xlink:href="#DejaVuSans-30" x="159.033203"/>
      </g>
     </g>
    </g>
    <g id="ytick_8">
     <g id="line2d_16">
      <g>
       <use xlink:href="#md3fd6b8901" x="57.6" y="83.808" style="stroke: #000000; stroke-width: 0.8"/>
      </g>
     </g>
     <g id="text_17">
      <!-- 17.5 -->
      <g transform="translate(28.334375 87.607219) scale(0.1 -0.1)">
       <use xlink:href="#DejaVuSans-31"/>
       <use xlink:href="#DejaVuSans-37" x="63.623047"/>
       <use xlink:href="#DejaVuSans-2e" x="127.246094"/>
       <use xlink:href="#DejaVuSans-35" x="159.033203"/>
      </g>
     </g>
    </g>
    <g id="ytick_9">
     <g id="line2d_17">
      <g>
       <use xlink:href="#md3fd6b8901" x="57.6" y="53.568" style="stroke: #000000; stroke-width: 0.8"/>
      </g>
     </g>
     <g id="text_18">
      <!-- 20.0 -->
      <g transform="translate(28.334375 57.367219) scale(0.1 -0.1)">
       <use xlink:href="#DejaVuSans-32"/>
       <use xlink:href="#DejaVuSans-30" x="63.623047"/>
       <use xlink:href="#DejaVuSans-2e" x="127.246094"/>
       <use xlink:href="#DejaVuSans-30" x="159.033203"/>
      </g>
     </g>
    </g>
   </g>
   <g id="line2d_18">
    <path d="M 73.832727 283.392 
L 74.039353 295.488 
L 74.153226 283.392 
L 74.359852 295.488 
L 74.472807 283.392 
L 74.679433 295.488 
L 74.793306 283.392 
L 74.999932 295.488 
L 75.120234 283.392 
L 75.326859 295.488 
L 75.440733 283.392 
L 75.647358 295.488 
L 75.759395 283.392 
L 75.966021 295.488 
L 76.078976 283.392 
L 76.285601 295.488 
L 76.404985 283.392 
L 76.61161 295.488 
L 76.729157 283.392 
L 76.935783 295.488 
L 77.050575 283.392 
L 77.2572 295.488 
L 77.37291 283.392 
L 77.579536 295.488 
L 77.697083 283.392 
L 77.903708 295.488 
L 78.022174 283.392 
L 78.228799 295.488 
L 78.348183 283.392 
L 78.554808 295.488 
L 78.66409 283.392 
L 78.870716 295.488 
L 84.566232 283.392 
L 84.819693 198.72 
L 84.829794 210.816 
L 84.857345 222.912 
L 85.098867 210.816 
L 85.193455 235.008 
L 85.412019 222.912 
L 85.5663 235.008 
L 85.59385 247.104 
L 85.733437 235.008 
L 85.909757 247.104 
L 85.936389 259.2 
L 86.050262 247.104 
L 86.279846 259.2 
L 86.307396 271.296 
L 86.374435 259.2 
L 86.640752 271.296 
L 86.668302 283.392 
L 86.694934 271.296 
L 87.00625 283.392 
L 87.016351 271.296 
L 87.190835 283.392 
L 87.341442 271.296 
L 87.38644 283.392 
L 87.658268 271.296 
L 87.864893 295.488 
L 87.978767 283.392 
L 88.185392 295.488 
L 88.293756 283.392 
L 88.500381 295.488 
L 88.613337 283.392 
L 88.819962 295.488 
L 88.939346 283.392 
L 89.145971 295.488 
L 89.255253 283.392 
L 89.461879 295.488 
L 89.572079 283.392 
L 89.778704 295.488 
L 89.898088 283.392 
L 90.104713 295.488 
L 90.223179 283.392 
L 90.429804 295.488 
L 90.549188 283.392 
L 90.755813 295.488 
L 90.86234 283.392 
L 91.068966 295.488 
L 91.191104 283.392 
L 91.39773 295.488 
L 91.510685 283.392 
L 91.71731 295.488 
L 91.839449 283.392 
L 92.046075 295.488 
L 92.15903 283.392 
L 92.365655 295.488 
L 92.476774 283.392 
L 92.683399 295.488 
L 92.7936 283.392 
L 93.000225 295.488 
L 93.11318 283.392 
L 93.319806 295.488 
L 93.433679 283.392 
L 93.640305 295.488 
L 93.749587 283.392 
L 93.956212 295.488 
L 94.070086 283.392 
L 94.276711 295.488 
L 94.394258 283.392 
L 94.600884 295.488 
L 94.718431 283.392 
L 94.925056 295.488 
L 95.037093 283.392 
L 95.243719 295.488 
L 95.356674 283.392 
L 95.563299 295.488 
L 95.677173 283.392 
L 95.883798 295.488 
L 96.001345 283.392 
L 96.207971 295.488 
L 96.320008 283.392 
L 96.526633 295.488 
L 96.643262 283.392 
L 96.849887 295.488 
L 96.969271 283.392 
L 97.175896 295.488 
L 97.285178 283.392 
L 97.491804 295.488 
L 97.603841 283.392 
L 97.810466 295.488 
L 97.92434 283.392 
L 98.130965 295.488 
L 98.565338 283.392 
L 98.771964 295.488 
L 98.879409 283.392 
L 99.086034 295.488 
L 99.208173 283.392 
L 99.414798 295.488 
L 99.536019 283.392 
L 99.742644 295.488 
L 99.862946 283.392 
L 100.069572 295.488 
L 100.189873 283.392 
L 100.396499 295.488 
L 100.508536 283.392 
L 100.715161 295.488 
L 100.830872 283.392 
L 101.037497 295.488 
L 101.156881 283.392 
L 101.363506 295.488 
L 101.480135 283.392 
L 101.68676 295.488 
L 101.799716 283.392 
L 102.006341 295.488 
L 102.118378 283.392 
L 102.325003 295.488 
L 102.441632 283.392 
L 102.648258 295.488 
L 102.770396 283.392 
L 102.977022 295.488 
L 103.089977 283.392 
L 103.296602 295.488 
L 103.411394 283.392 
L 103.61802 295.488 
L 103.732812 283.392 
L 103.939437 295.488 
L 104.056066 283.392 
L 104.262691 295.488 
L 104.377483 283.392 
L 104.584109 295.488 
L 104.701656 283.392 
L 104.908281 295.488 
L 105.023073 283.392 
L 105.229699 295.488 
L 105.338062 283.392 
L 105.544688 295.488 
L 105.662235 283.392 
L 105.86886 295.488 
L 105.98457 283.392 
L 106.191196 295.488 
L 106.304151 283.392 
L 106.510776 295.488 
L 106.617303 283.392 
L 106.823929 295.488 
L 106.940557 283.392 
L 107.147183 295.488 
L 107.258302 283.392 
L 107.464927 295.488 
L 107.579719 283.392 
L 107.786344 295.488 
L 107.903891 283.392 
L 108.110517 295.488 
L 108.22439 283.392 
L 108.431016 295.488 
L 108.547645 283.392 
L 108.75427 295.488 
L 108.866307 283.392 
L 109.072932 295.488 
L 109.183133 283.392 
L 109.389758 295.488 
L 109.499958 283.392 
L 109.706584 295.488 
L 109.819539 283.392 
L 110.026165 295.488 
L 110.138202 283.392 
L 110.344827 295.488 
L 110.459619 283.392 
L 110.666244 295.488 
L 110.782873 283.392 
L 110.989499 295.488 
L 112.567199 283.392 
L 112.773824 295.488 
L 112.796783 283.392 
L 113.003408 295.488 
L 113.019938 283.392 
L 113.226564 295.488 
L 113.247685 283.392 
L 113.454311 295.488 
L 113.475433 283.392 
L 113.682058 295.488 
L 113.706853 283.392 
L 113.913479 295.488 
L 113.938274 283.392 
L 114.144899 295.488 
L 114.166021 283.392 
L 114.372646 295.488 
L 114.396523 283.392 
L 114.603149 295.488 
L 114.62427 283.392 
L 114.830896 295.488 
L 114.853854 283.392 
L 115.06048 295.488 
L 115.085275 283.392 
L 115.2919 295.488 
L 115.314859 283.392 
L 115.521484 295.488 
L 115.549952 283.392 
L 115.756578 295.488 
L 126.799562 283.392 
L 127.006187 295.488 
L 127.030064 283.392 
L 127.23669 295.488 
L 127.25873 283.392 
L 127.465355 295.488 
L 127.483722 283.392 
L 127.690347 295.488 
L 127.716061 283.392 
L 127.922686 295.488 
L 127.941971 283.392 
L 128.148597 295.488 
L 128.346957 174.528 
L 128.434199 114.048 
L 128.470932 150.336 
L 128.631641 138.24 
L 128.714291 101.952 
L 128.717046 114.048 
L 129.221213 101.952 
L 129.268966 114.048 
L 129.733644 101.952 
L 129.781397 114.048 
L 130.263523 101.952 
L 130.306685 114.048 
L 130.713508 101.952 
L 130.756669 114.048 
L 131.195634 101.952 
L 131.237877 114.048 
L 131.719085 101.952 
L 131.761328 126.144 
L 131.844897 114.048 
L 132.194783 126.144 
L 132.199374 114.048 
L 132.236108 150.336 
L 132.524465 138.24 
L 132.703541 150.336 
L 132.744866 186.624 
L 132.756804 174.528 
L 133.217808 150.336 
L 133.27199 198.72 
L 133.679731 186.624 
L 133.7633 210.816 
L 133.79085 235.008 
L 134.146246 210.816 
L 134.253691 235.008 
L 134.281241 259.2 
L 134.376748 247.104 
L 134.60725 235.008 
L 134.770714 247.104 
L 134.812039 283.392 
L 134.840507 271.296 
L 135.295083 247.104 
L 135.37406 283.392 
L 135.745986 271.296 
L 135.952612 295.488 
L 135.978325 283.392 
L 136.18495 295.488 
L 136.204235 283.392 
L 136.410861 295.488 
L 136.433819 283.392 
L 136.640445 295.488 
L 136.661566 283.392 
L 136.868192 295.488 
L 136.893905 283.392 
L 137.100531 295.488 
L 137.127163 283.392 
L 137.333788 295.488 
L 137.355828 283.392 
L 137.562454 295.488 
L 137.590922 283.392 
L 137.797547 295.488 
L 137.821424 283.392 
L 138.02805 295.488 
L 138.05009 283.392 
L 138.256715 295.488 
L 138.276 283.392 
L 138.482626 295.488 
L 138.502829 283.392 
L 138.709455 295.488 
L 138.731495 283.392 
L 138.93812 295.488 
L 138.96016 283.392 
L 139.166786 295.488 
L 139.189744 283.392 
L 139.396369 295.488 
L 139.417491 283.392 
L 139.624117 295.488 
L 139.647075 283.392 
L 139.853701 295.488 
L 139.880332 283.392 
L 140.086958 295.488 
L 140.107161 283.392 
L 140.313787 295.488 
L 140.340418 283.392 
L 140.547044 295.488 
L 140.801423 283.392 
L 141.008048 295.488 
L 141.028252 283.392 
L 141.234877 295.488 
L 141.262427 283.392 
L 141.469053 295.488 
L 141.495684 283.392 
L 141.70231 295.488 
L 141.72986 283.392 
L 141.936485 295.488 
L 141.959444 283.392 
L 142.166069 295.488 
L 142.193619 283.392 
L 142.400245 295.488 
L 142.41953 283.392 
L 142.626155 295.488 
L 142.650032 283.392 
L 142.856658 295.488 
L 142.879616 283.392 
L 143.086241 295.488 
L 143.104608 283.392 
L 143.311234 295.488 
L 143.336029 283.392 
L 143.542654 295.488 
L 143.565613 283.392 
L 143.772238 295.488 
L 143.800706 283.392 
L 144.007332 295.488 
L 144.033045 283.392 
L 144.239671 295.488 
L 144.259874 283.392 
L 144.4665 295.488 
L 144.487621 283.392 
L 144.694247 295.488 
L 144.717205 283.392 
L 144.923831 295.488 
L 144.944952 283.392 
L 145.151578 295.488 
L 145.179128 283.392 
L 145.385753 295.488 
L 145.411467 283.392 
L 145.618092 295.488 
L 145.640132 283.392 
L 145.846758 295.488 
L 145.866961 283.392 
L 146.073587 295.488 
L 146.098382 283.392 
L 146.305007 295.488 
L 146.328884 283.392 
L 146.535509 295.488 
L 146.563059 283.392 
L 146.769685 295.488 
L 146.79448 283.392 
L 147.001105 295.488 
L 147.023146 283.392 
L 147.229771 295.488 
L 147.258239 283.392 
L 147.464865 295.488 
L 147.481395 283.392 
L 147.68802 295.488 
L 147.708224 283.392 
L 147.914849 295.488 
L 147.930461 283.392 
L 148.137086 295.488 
L 148.161882 283.392 
L 148.368507 295.488 
L 148.397894 283.392 
L 148.604519 295.488 
L 148.624723 283.392 
L 148.831348 295.488 
L 148.853388 283.392 
L 149.060014 295.488 
L 149.086645 283.392 
L 149.293271 295.488 
L 149.317148 283.392 
L 149.523773 295.488 
L 149.54765 283.392 
L 149.754275 295.488 
L 149.780907 283.392 
L 149.987532 295.488 
L 150.013246 283.392 
L 150.219871 295.488 
L 150.24283 283.392 
L 150.449455 295.488 
L 150.472414 283.392 
L 150.679039 295.488 
L 150.701997 283.392 
L 150.908623 295.488 
L 150.935255 283.392 
L 151.14188 295.488 
L 151.168512 283.392 
L 151.375137 295.488 
L 151.399014 283.392 
L 151.60564 295.488 
L 151.632271 283.392 
L 151.838897 295.488 
L 151.865528 283.392 
L 152.072154 295.488 
L 152.095112 283.392 
L 152.301738 295.488 
L 152.320105 283.392 
L 152.52673 295.488 
L 152.54877 283.392 
L 152.755396 295.488 
L 152.774681 283.392 
L 152.981306 295.488 
L 153.009774 283.392 
L 153.2164 295.488 
L 153.240277 283.392 
L 153.446902 295.488 
L 153.463432 283.392 
L 153.670058 295.488 
L 153.695771 283.392 
L 153.902397 295.488 
L 153.925355 283.392 
L 154.13198 295.488 
L 154.15402 283.392 
L 154.360646 295.488 
L 154.389114 283.392 
L 154.59574 295.488 
L 154.615943 283.392 
L 154.822569 295.488 
L 154.845527 283.392 
L 155.052153 295.488 
L 155.30194 283.392 
L 155.508565 295.488 
L 155.53336 283.392 
L 155.739986 295.488 
L 155.764781 283.392 
L 155.971406 295.488 
L 161.700901 283.392 
L 161.921302 101.952 
L 161.963545 138.24 
L 161.97732 150.336 
L 162.171089 138.24 
L 162.395163 150.336 
L 162.403428 138.24 
L 162.436488 174.528 
L 162.868106 150.336 
L 162.962694 186.624 
L 162.976469 198.72 
L 163.093098 186.624 
L 163.324518 174.528 
L 163.487982 186.624 
L 163.529307 222.912 
L 163.550429 210.816 
L 163.785523 198.72 
L 163.961843 210.816 
L 164.004087 247.104 
L 164.016943 235.008 
L 164.245609 222.912 
L 164.443969 235.008 
L 164.485294 259.2 
L 164.926095 235.008 
L 164.971094 271.296 
L 165.113436 283.392 
L 165.158434 271.296 
L 165.385263 259.2 
L 165.591889 295.488 
L 165.615765 283.392 
L 165.842594 271.296 
L 166.04922 295.488 
L 166.067586 283.392 
L 166.274212 295.488 
L 166.299925 283.392 
L 166.506551 295.488 
L 166.529509 283.392 
L 166.736135 295.488 
L 166.760011 283.392 
L 166.966637 295.488 
L 166.988677 283.392 
L 167.195302 295.488 
L 172.7246 283.392 
L 172.931226 295.488 
L 173.187441 114.048 
L 173.2104 138.24 
L 173.683342 114.048 
L 173.733851 162.432 
L 174.123225 138.24 
L 174.272914 150.336 
L 174.314239 186.624 
L 174.347299 174.528 
L 174.575046 162.432 
L 174.792692 174.528 
L 174.834017 198.72 
L 175.267471 174.528 
L 175.326245 222.912 
L 175.724802 198.72 
L 175.820309 235.008 
L 175.834084 247.104 
L 175.952549 235.008 
L 176.182133 222.912 
L 176.302435 247.104 
L 176.329067 271.296 
L 176.410799 259.2 
L 176.645893 247.104 
L 176.782725 271.296 
L 176.80201 283.392 
L 176.87364 271.296 
L 177.061899 283.392 
L 177.10506 271.296 
L 177.291482 283.392 
L 177.311686 295.488 
L 177.331889 283.392 
L 177.538515 295.488 
L 177.56331 283.392 
L 177.78371 295.488 
L 177.788302 283.392 
L 177.994927 295.488 
L 183.526062 283.392 
L 183.732687 295.488 
L 183.97421 101.952 
L 184.017371 138.24 
L 184.445316 114.048 
L 184.533476 162.432 
L 184.985297 174.528 
L 185.025704 210.816 
L 185.521605 222.912 
L 185.56293 259.2 
L 185.707109 247.104 
L 186.025771 235.008 
L 186.093728 271.296 
L 186.34627 259.2 
L 186.602486 271.296 
L 186.630036 283.392 
L 186.665851 271.296 
L 186.808193 283.392 
L 186.994615 271.296 
L 187.20124 295.488 
L 187.318787 283.392 
L 187.525413 295.488 
L 187.636532 283.392 
L 187.843157 295.488 
L 187.961622 283.392 
L 188.168248 295.488 
L 188.282121 283.392 
L 188.488747 295.488 
L 188.601702 283.392 
L 188.808328 295.488 
L 188.923119 283.392 
L 189.129745 295.488 
L 189.251884 283.392 
L 189.458509 295.488 
L 189.575138 283.392 
L 189.781763 295.488 
L 189.892882 283.392 
L 190.099507 295.488 
L 190.215217 283.392 
L 190.421843 295.488 
L 190.532962 283.392 
L 190.739587 295.488 
L 190.851624 283.392 
L 191.058249 295.488 
L 191.17396 283.392 
L 191.380585 295.488 
L 191.487112 283.392 
L 191.693738 295.488 
L 191.813121 283.392 
L 192.019747 295.488 
L 192.137294 283.392 
L 192.343919 295.488 
L 192.452283 283.392 
L 192.658908 295.488 
L 192.775537 283.392 
L 192.982162 295.488 
L 193.090526 283.392 
L 193.297151 295.488 
L 193.412862 283.392 
L 193.619487 295.488 
L 193.736116 283.392 
L 193.942741 295.488 
L 194.062125 283.392 
L 194.26875 295.488 
L 194.379869 283.392 
L 194.586494 295.488 
L 194.701286 283.392 
L 194.907912 295.488 
L 195.023622 283.392 
L 195.230247 295.488 
L 195.351468 283.392 
L 195.558093 295.488 
L 195.672885 283.392 
L 195.879511 295.488 
L 195.997058 283.392 
L 196.203683 295.488 
L 196.312047 283.392 
L 196.518672 295.488 
L 196.634382 283.392 
L 196.841008 295.488 
L 196.9558 283.392 
L 197.162425 295.488 
L 197.284564 283.392 
L 197.491189 295.488 
L 197.607818 283.392 
L 197.814443 295.488 
L 197.935664 283.392 
L 198.142289 295.488 
L 198.257999 283.392 
L 198.464625 295.488 
L 198.570234 283.392 
L 198.888896 271.296 
L 199.06338 283.392 
L 199.211232 271.296 
L 200.821074 210.816 
L 205.787432 198.72 
L 205.803962 210.816 
L 206.124461 198.72 
L 206.168541 210.816 
L 206.46149 198.72 
L 206.504652 210.816 
L 206.797601 198.72 
L 206.841681 210.816 
L 207.150242 198.72 
L 207.193404 210.816 
L 207.528596 198.72 
L 207.571758 210.816 
L 207.89042 198.72 
L 207.933582 210.816 
L 208.224694 198.72 
L 208.261428 222.912 
L 208.5856 235.008 
L 208.61315 247.104 
L 208.949261 259.2 
L 208.976811 271.296 
L 209.656379 295.488 
L 211.296526 283.392 
L 211.549987 198.72 
L 211.560089 210.816 
L 211.587639 222.912 
L 211.719879 210.816 
L 211.911811 222.912 
L 211.939361 235.008 
L 212.041297 222.912 
L 212.261697 235.008 
L 212.289247 247.104 
L 212.359041 235.008 
L 212.604236 247.104 
L 212.631786 259.2 
L 212.676785 247.104 
L 212.967897 259.2 
L 212.99361 247.104 
L 212.995447 259.2 
L 213.297579 271.296 
L 213.315946 259.2 
L 213.325129 271.296 
L 213.607977 283.392 
L 213.646547 271.296 
L 213.821031 283.392 
L 213.967964 271.296 
L 213.980821 283.392 
L 214.293055 295.488 
L 214.299483 283.392 
L 214.506109 295.488 
L 214.620901 283.392 
L 214.827526 295.488 
L 214.94691 283.392 
L 215.153535 295.488 
L 215.265572 283.392 
L 215.472198 295.488 
L 215.585153 283.392 
L 215.909325 271.296 
L 216.083809 283.392 
L 216.229825 271.296 
L 217.824055 210.816 
L 218.41179 198.72 
L 218.420973 210.816 
L 218.722187 198.72 
L 218.759839 222.912 
L 218.806674 210.816 
L 219.078501 222.912 
L 219.106051 235.008 
L 219.12901 222.912 
L 219.442162 210.816 
L 219.483487 235.008 
L 219.770926 222.912 
L 219.844393 247.104 
L 220.100609 235.008 
L 220.179585 259.2 
L 220.415598 247.104 
L 220.545083 271.296 
L 220.870174 283.392 
L 220.902315 295.488 
L 237.26338 283.392 
L 237.470006 295.488 
L 237.586634 283.392 
L 237.79326 295.488 
L 237.89795 283.392 
L 238.104575 295.488 
L 238.224877 283.392 
L 238.431503 295.488 
L 238.448033 283.392 
L 238.614252 271.296 
L 238.71986 186.624 
L 238.767614 138.24 
L 238.850264 162.432 
L 238.871385 186.624 
L 238.989851 162.432 
L 239.186375 53.568 
L 239.275453 65.664 
L 239.765844 53.568 
L 239.796149 77.76 
L 239.798904 65.664 
L 240.284704 77.76 
L 240.320519 65.664 
L 240.77234 77.76 
L 240.807237 65.664 
L 241.287526 77.76 
L 241.386706 65.664 
L 241.814651 65.664 
L 241.836691 77.76 
L 242.11862 65.664 
L 242.310552 65.664 
L 242.342694 89.856 
L 242.789923 101.952 
L 242.822983 138.24 
L 243.257356 150.336 
L 243.289497 186.624 
L 243.772542 198.72 
L 243.803765 235.008 
L 244.294156 247.104 
L 244.326298 283.392 
L 244.778119 295.488 
L 253.525264 283.392 
L 253.703422 271.296 
L 253.73189 283.392 
L 253.885252 271.296 
L 253.910047 283.392 
L 254.064327 271.296 
L 254.091877 283.392 
L 254.245239 271.296 
L 254.270953 283.392 
L 254.431662 271.296 
L 254.451865 283.392 
L 254.615329 271.296 
L 254.638287 283.392 
L 254.797159 271.296 
L 254.821954 283.392 
L 254.969806 271.296 
L 255.003785 283.392 
L 255.131433 259.2 
L 255.301325 89.856 
L 255.349997 126.144 
L 255.383057 162.432 
L 255.512542 150.336 
L 255.588764 65.664 
L 255.862428 53.568 
L 255.898243 65.664 
L 256.40792 53.568 
L 256.442816 65.664 
L 256.879944 53.568 
L 256.911167 77.76 
L 256.913004 65.664 
L 257.391457 77.76 
L 257.425435 65.664 
L 257.892868 65.664 
L 257.92501 77.76 
L 257.925928 65.664 
L 258.370402 77.76 
L 258.404381 65.664 
L 258.920485 65.664 
L 259.365878 77.76 
L 259.399856 65.664 
L 259.865453 77.76 
L 259.915961 65.664 
L 260.353089 77.76 
L 260.381557 65.664 
L 260.38523 77.76 
L 260.654303 65.664 
L 260.827868 77.76 
L 260.835215 65.664 
L 260.84899 89.856 
L 260.86001 89.856 
L 261.310913 65.664 
L 261.348564 114.048 
L 261.412848 101.952 
L 261.782019 77.76 
L 261.879362 101.952 
L 261.901402 126.144 
L 261.965686 114.048 
L 262.325673 89.856 
L 262.402813 126.144 
L 262.413833 138.24 
L 262.513014 126.144 
L 262.697599 114.048 
L 262.841778 126.144 
L 262.874838 162.432 
L 262.882185 150.336 
L 263.247682 126.144 
L 263.345026 150.336 
L 263.367066 174.528 
L 263.430431 162.432 
L 263.802357 138.24 
L 263.856538 186.624 
L 264.166018 162.432 
L 264.34693 150.336 
L 264.409376 198.72 
L 264.530597 186.624 
L 264.713345 174.528 
L 264.882319 186.624 
L 264.915379 210.816 
L 265.265265 186.624 
L 265.37822 210.816 
L 265.40026 235.008 
L 265.450769 222.912 
L 265.818103 198.72 
L 265.876876 247.104 
L 266.000852 235.008 
L 266.182682 222.912 
L 266.355329 235.008 
L 266.362676 222.912 
L 266.387471 259.2 
L 266.728173 235.008 
L 266.84572 259.2 
L 266.872352 283.392 
L 266.914596 271.296 
L 267.283766 247.104 
L 267.361825 283.392 
L 267.46376 271.296 
L 267.645591 259.2 
L 267.654774 271.296 
L 267.810891 283.392 
L 267.823748 271.296 
L 267.852216 283.392 
L 268.007415 271.296 
L 268.030373 283.392 
L 268.190164 271.296 
L 268.303119 283.392 
L 268.375667 271.296 
L 268.396789 283.392 
L 268.557498 271.296 
L 268.582293 283.392 
L 268.740246 271.296 
L 268.764123 283.392 
L 268.92575 271.296 
L 268.946872 283.392 
L 269.108499 271.296 
L 269.132376 283.392 
L 269.294921 271.296 
L 269.315124 283.392 
L 269.481343 271.296 
L 269.501547 283.392 
L 269.664092 271.296 
L 269.687969 283.392 
L 269.844086 271.296 
L 269.870717 283.392 
L 270.050711 295.488 
L 275.534092 283.392 
L 275.715923 271.296 
L 275.740718 283.392 
L 275.900508 271.296 
L 275.922548 283.392 
L 276.082339 271.296 
L 276.107134 283.392 
L 276.265087 271.296 
L 276.288964 283.392 
L 276.450591 271.296 
L 276.471713 283.392 
L 276.630585 271.296 
L 276.657217 283.392 
L 276.813334 271.296 
L 276.83721 283.392 
L 276.994246 271.296 
L 277.009857 259.2 
L 277.019959 271.296 
L 277.200871 283.392 
L 277.216483 295.488 
L 277.410252 283.392 
L 277.655447 77.76 
L 277.682997 89.856 
L 277.715139 126.144 
L 277.736261 114.048 
L 278.102677 89.856 
L 278.217468 114.048 
L 278.23859 138.24 
L 278.287262 126.144 
L 278.651841 101.952 
L 278.726226 138.24 
L 278.737246 150.336 
L 278.83459 138.24 
L 279.208352 114.048 
L 279.269881 162.432 
L 279.393856 150.336 
L 279.577523 138.24 
L 279.729967 150.336 
L 279.763027 174.528 
L 280.124851 150.336 
L 280.240562 174.528 
L 280.262602 198.72 
L 280.308518 186.624 
L 280.675853 162.432 
L 280.768604 186.624 
L 280.790644 210.816 
L 280.855846 198.72 
L 281.21767 174.528 
L 281.266342 222.912 
L 281.579495 198.72 
L 281.711735 222.912 
L 281.733775 247.104 
L 281.763162 235.008 
L 282.124986 210.816 
L 282.243451 235.008 
L 282.265491 259.2 
L 282.307735 247.104 
L 282.675987 222.912 
L 282.754046 259.2 
L 282.765066 271.296 
L 282.855063 259.2 
L 283.22056 235.008 
L 283.278415 271.296 
L 283.406982 259.2 
L 283.411574 271.296 
L 283.773398 247.104 
L 283.813805 283.392 
L 283.957065 271.296 
L 283.980024 283.392 
L 284.139814 271.296 
L 284.315216 283.392 
L 284.324399 271.296 
L 284.346439 283.392 
L 284.504393 271.296 
L 284.531025 283.392 
L 284.686224 271.296 
L 284.711019 283.392 
L 284.869891 271.296 
L 284.892849 283.392 
L 285.049884 271.296 
L 285.076516 283.392 
L 285.229878 271.296 
L 285.25651 283.392 
L 285.415382 271.296 
L 285.436504 283.392 
L 285.604559 271.296 
L 285.622007 283.392 
L 285.784553 271.296 
L 285.811184 283.392 
L 285.96822 271.296 
L 285.991178 283.392 
L 286.151887 271.296 
L 286.174845 283.392 
L 286.337391 271.296 
L 286.358512 283.392 
L 286.525649 271.296 
L 286.544016 283.392 
L 286.706562 271.296 
L 286.732275 283.392 
L 286.890229 271.296 
L 286.913187 283.392 
L 287.072059 271.296 
L 287.096854 283.392 
L 287.254808 271.296 
L 287.278685 283.392 
L 287.434802 271.296 
L 287.461433 283.392 
L 287.622142 271.296 
L 287.641427 283.392 
L 287.806727 271.296 
L 287.828767 283.392 
L 287.988558 271.296 
L 288.013353 283.392 
L 288.174062 271.296 
L 288.195183 283.392 
L 288.358647 271.296 
L 288.380687 283.392 
L 288.544151 271.296 
L 288.565273 283.392 
L 288.728736 271.296 
L 288.750776 283.392 
L 288.909648 271.296 
L 288.935362 283.392 
L 289.092397 271.296 
L 289.116274 283.392 
L 289.278819 271.296 
L 289.299023 283.392 
L 289.464323 271.296 
L 289.485445 283.392 
L 289.650745 271.296 
L 289.670948 283.392 
L 289.832575 271.296 
L 289.857371 283.392 
L 290.013488 271.296 
L 290.039201 283.392 
L 290.200828 271.296 
L 290.220113 283.392 
L 290.38725 271.296 
L 290.407453 283.392 
L 290.569999 271.296 
L 290.593876 283.392 
L 290.753666 271.296 
L 290.776624 283.392 
L 290.93366 271.296 
L 290.960291 283.392 
L 291.120082 271.296 
L 291.140285 283.392 
L 291.306504 271.296 
L 291.326707 283.392 
L 291.489253 271.296 
L 291.513129 283.392 
L 291.67292 271.296 
L 291.695878 283.392 
L 291.85475 271.296 
L 291.879545 283.392 
L 292.039336 271.296 
L 292.061376 283.392 
L 292.220248 271.296 
L 292.245961 283.392 
L 292.40667 271.296 
L 292.426873 283.392 
L 292.589419 271.296 
L 292.613295 283.392 
L 292.777677 271.296 
L 292.796044 283.392 
L 292.984303 295.488 
L 327.877377 283.392 
L 328.058289 271.296 
L 328.084003 283.392 
L 328.238283 271.296 
L 328.264915 283.392 
L 328.422868 271.296 
L 328.444908 283.392 
L 328.601944 271.296 
L 328.629494 283.392 
L 328.788366 271.296 
L 328.808569 283.392 
L 328.976625 271.296 
L 328.994991 283.392 
L 329.160292 271.296 
L 329.18325 283.392 
L 329.341204 271.296 
L 329.366917 283.392 
L 329.531299 271.296 
L 329.547829 283.392 
L 329.719558 271.296 
L 329.737925 283.392 
L 329.904143 271.296 
L 329.926184 283.392 
L 330.084137 271.296 
L 330.110769 283.392 
L 330.268723 271.296 
L 330.290763 283.392 
L 330.451471 271.296 
L 330.475348 283.392 
L 330.632384 271.296 
L 330.658097 283.392 
L 330.817887 271.296 
L 330.839009 283.392 
L 331.006146 271.296 
L 331.024513 283.392 
L 331.189813 271.296 
L 331.212772 283.392 
L 331.378072 271.296 
L 331.396439 283.392 
L 331.558984 271.296 
L 331.584697 283.392 
L 331.738978 271.296 
L 331.765609 283.392 
L 331.921727 271.296 
L 331.945603 283.392 
L 332.104475 271.296 
L 332.128352 283.392 
L 332.288142 271.296 
L 332.311101 283.392 
L 332.469973 271.296 
L 332.494768 283.392 
L 332.652722 271.296 
L 332.676598 283.392 
L 332.840062 271.296 
L 332.859347 283.392 
L 333.046687 295.488 
L 334.300215 283.392 
L 334.506841 295.488 
L 334.624388 283.392 
L 334.831013 295.488 
L 334.942132 283.392 
L 335.148757 295.488 
L 335.260794 283.392 
L 335.46742 295.488 
L 335.584048 283.392 
L 335.790674 295.488 
L 335.913731 283.392 
L 336.120356 295.488 
L 336.232393 283.392 
L 336.439019 295.488 
L 336.555647 283.392 
L 336.762273 295.488 
L 336.872473 283.392 
L 337.079098 295.488 
L 337.5199 283.392 
L 337.726525 295.488 
L 337.845909 283.392 
L 338.052534 295.488 
L 338.165489 283.392 
L 338.372115 295.488 
L 338.482315 283.392 
L 338.688941 295.488 
L 338.798222 283.392 
L 339.004848 295.488 
L 339.115048 283.392 
L 339.321674 295.488 
L 339.430037 283.392 
L 339.636663 295.488 
L 339.751455 283.392 
L 339.95808 295.488 
L 340.065525 283.392 
L 340.272151 295.488 
L 340.388779 283.392 
L 340.595405 295.488 
L 340.717544 283.392 
L 340.924169 295.488 
L 341.035288 283.392 
L 341.241913 295.488 
L 341.353032 283.392 
L 341.559657 295.488 
L 341.679041 283.392 
L 341.885666 295.488 
L 342.003213 283.392 
L 342.209839 295.488 
L 342.324631 283.392 
L 342.531256 295.488 
L 342.654313 283.392 
L 342.860939 295.488 
L 343.30174 283.392 
L 343.508365 295.488 
L 343.624075 283.392 
L 343.830701 295.488 
L 343.944574 283.392 
L 344.1512 295.488 
L 344.27242 283.392 
L 344.479046 295.488 
L 344.593838 283.392 
L 344.800463 295.488 
L 344.913418 283.392 
L 345.120044 295.488 
L 345.233917 283.392 
L 345.440543 295.488 
L 345.553498 283.392 
L 345.760124 295.488 
L 345.871242 283.392 
L 346.077868 295.488 
L 346.190823 283.392 
L 346.397448 295.488 
L 346.51224 283.392 
L 346.718866 295.488 
L 346.829984 283.392 
L 347.03661 295.488 
L 347.154157 283.392 
L 347.360782 295.488 
L 347.470064 283.392 
L 347.67669 295.488 
L 347.788727 283.392 
L 347.995352 295.488 
L 348.108307 283.392 
L 348.314933 295.488 
L 348.754816 283.392 
L 348.961441 295.488 
L 349.077151 283.392 
L 349.283777 295.488 
L 349.39765 283.392 
L 349.604276 295.488 
L 349.712639 283.392 
L 349.919265 295.488 
L 350.027629 283.392 
L 350.234254 295.488 
L 350.340781 283.392 
L 350.547406 295.488 
L 350.665872 283.392 
L 350.872497 295.488 
L 350.988207 283.392 
L 351.194833 295.488 
L 351.311462 283.392 
L 351.518087 295.488 
L 351.629206 283.392 
L 351.835831 295.488 
L 351.95246 283.392 
L 352.159085 295.488 
L 352.27755 283.392 
L 352.484176 295.488 
L 352.601723 283.392 
L 352.808348 295.488 
L 352.92314 283.392 
L 353.129766 295.488 
L 353.245476 283.392 
L 353.452101 295.488 
L 353.569648 283.392 
L 353.776274 295.488 
L 353.891984 283.392 
L 354.09861 295.488 
L 354.21432 283.392 
L 354.420945 295.488 
L 360.093504 283.392 
L 360.321251 198.72 
L 360.330434 210.816 
L 360.385534 235.008 
L 360.644505 222.912 
L 360.71889 247.104 
L 360.957657 235.008 
L 361.069694 259.2 
L 361.280911 247.104 
L 361.434273 271.296 
L 361.603247 259.2 
L 361.770384 271.296 
L 361.797934 283.392 
L 361.922828 271.296 
L 362.143228 283.392 
L 362.174452 295.488 
L 362.243327 283.392 
L 362.497706 295.488 
L 362.572091 283.392 
L 362.838408 295.488 
L 362.894427 283.392 
L 363.101052 295.488 
L 363.214007 283.392 
L 363.420633 295.488 
L 363.530833 283.392 
L 363.737459 295.488 
L 363.857761 283.392 
L 364.064386 295.488 
L 364.181015 283.392 
L 364.38764 295.488 
L 364.504269 283.392 
L 364.710894 295.488 
L 364.824768 283.392 
L 365.031393 295.488 
L 365.14894 283.392 
L 365.355566 295.488 
L 365.473113 283.392 
L 365.679738 295.488 
L 365.78902 283.392 
L 365.995646 295.488 
L 366.424508 283.392 
L 366.631134 295.488 
L 366.746844 283.392 
L 366.95347 295.488 
L 367.067343 283.392 
L 367.273969 295.488 
L 367.383251 283.392 
L 367.589876 295.488 
L 367.701913 283.392 
L 367.908538 295.488 
L 368.027922 283.392 
L 368.234547 295.488 
L 368.347503 283.392 
L 368.554128 295.488 
L 368.662492 283.392 
L 368.869117 295.488 
L 368.986664 283.392 
L 369.19329 295.488 
L 369.307163 283.392 
L 369.513789 295.488 
L 369.626744 283.392 
L 369.83337 295.488 
L 369.94908 283.392 
L 370.155705 295.488 
L 370.271416 283.392 
L 370.478041 295.488 
L 370.596506 283.392 
L 370.803132 295.488 
L 370.916087 283.392 
L 371.122713 295.488 
L 371.236586 283.392 
L 371.443212 295.488 
L 372.322977 283.392 
L 372.529602 295.488 
L 372.555316 283.392 
L 372.761941 295.488 
L 372.7849 283.392 
L 372.991525 295.488 
L 373.019075 283.392 
L 373.225701 295.488 
L 373.248659 283.392 
L 373.455285 295.488 
L 373.479161 283.392 
L 373.685787 295.488 
L 373.707827 283.392 
L 373.914452 295.488 
L 373.936492 283.392 
L 374.143118 295.488 
L 374.16975 283.392 
L 374.376375 295.488 
L 374.393823 283.392 
L 374.600449 295.488 
L 374.626162 283.392 
L 374.832788 295.488 
L 374.860338 283.392 
L 375.066963 295.488 
L 375.08533 283.392 
L 375.291956 295.488 
L 375.319506 283.392 
L 375.526131 295.488 
L 375.543579 283.392 
L 375.750205 295.488 
L 375.767653 283.392 
L 375.974279 295.488 
L 375.994482 283.392 
L 376.201108 295.488 
L 376.226821 283.392 
L 376.433447 295.488 
L 376.457323 283.392 
L 376.663949 295.488 
L 376.689662 283.392 
L 376.896288 295.488 
L 376.922001 283.392 
L 377.128626 295.488 
L 377.146993 283.392 
L 377.353619 295.488 
L 377.371985 283.392 
L 377.578611 295.488 
L 377.596059 283.392 
L 377.802685 295.488 
L 377.828398 283.392 
L 378.035024 295.488 
L 378.060737 283.392 
L 378.267362 295.488 
L 378.291239 283.392 
L 378.497865 295.488 
L 378.524496 283.392 
L 378.731122 295.488 
L 378.755917 283.392 
L 378.962542 295.488 
L 378.986419 283.392 
L 379.193045 295.488 
L 379.214166 283.392 
L 379.420792 295.488 
L 379.44375 283.392 
L 379.650376 295.488 
L 379.673334 283.392 
L 379.87996 295.488 
L 379.904755 283.392 
L 380.11138 295.488 
L 380.13893 283.392 
L 380.345556 295.488 
L 380.371269 283.392 
L 380.577894 295.488 
L 381.065531 283.392 
L 381.272156 295.488 
L 381.289604 283.392 
L 381.49623 295.488 
L 381.521025 283.392 
L 381.72765 295.488 
L 381.753364 283.392 
L 381.959989 295.488 
L 387.611426 283.392 
L 387.844683 101.952 
L 387.886926 138.24 
L 387.914477 162.432 
L 387.950292 150.336 
L 388.184467 138.24 
L 388.344258 150.336 
L 388.384664 186.624 
L 388.415888 174.528 
L 388.64639 162.432 
L 388.853934 174.528 
L 388.895259 198.72 
L 389.340651 186.624 
L 389.404017 235.008 
L 389.806248 210.816 
L 389.902673 235.008 
L 389.931141 259.2 
L 390.03124 247.104 
L 390.265415 235.008 
L 390.440817 247.104 
L 390.483061 283.392 
L 390.494081 271.296 
L 390.953249 247.104 
L 391.001002 283.392 
L 391.177322 271.296 
L 391.365581 283.392 
L 391.405988 271.296 
L 391.462925 283.392 
L 391.612613 295.488 
L 391.632817 283.392 
L 391.839442 295.488 
L 391.864237 283.392 
L 392.070863 295.488 
L 392.097495 283.392 
L 392.30412 295.488 
L 392.328915 283.392 
L 392.535541 295.488 
L 392.559417 283.392 
L 392.766043 295.488 
L 392.791756 283.392 
L 392.998382 295.488 
L 393.020422 283.392 
L 393.227047 295.488 
L 393.250006 283.392 
L 393.456631 295.488 
L 393.478671 283.392 
L 393.685297 295.488 
L 393.702745 283.392 
L 393.90937 295.488 
L 393.932329 283.392 
L 394.138954 295.488 
L 394.159158 283.392 
L 394.365783 295.488 
L 394.388742 283.392 
L 394.595367 295.488 
L 394.622917 283.392 
L 394.829543 295.488 
L 394.855256 283.392 
L 395.061881 295.488 
L 395.082085 283.392 
L 395.28871 295.488 
L 395.307995 283.392 
L 395.514621 295.488 
L 395.535743 283.392 
L 395.742368 295.488 
L 395.762571 283.392 
L 395.969197 295.488 
L 395.987564 283.392 
L 396.194189 295.488 
L 396.215311 283.392 
L 396.421936 295.488 
L 396.446731 283.392 
L 396.653357 295.488 
L 396.681825 283.392 
L 396.888451 295.488 
L 396.908654 283.392 
L 397.11528 295.488 
L 397.140993 283.392 
L 397.347618 295.488 
L 397.371495 283.392 
L 397.578121 295.488 
L 397.597406 283.392 
L 397.804031 295.488 
L 397.822398 283.392 
L 398.029023 295.488 
L 398.051982 283.392 
L 398.258607 295.488 
L 398.280647 283.392 
L 398.487273 295.488 
L 398.487273 295.488 
" clip-path="url(#pbecf8f7344)" style="fill: none; stroke: #1f77b4; stroke-width: 1.5; stroke-linecap: square"/>
   </g>
   <g id="patch_3">
    <path d="M 57.6 307.584 
L 57.6 41.472 
" style="fill: none; stroke: #000000; stroke-width: 0.8; stroke-linejoin: miter; stroke-linecap: square"/>
   </g>
   <g id="patch_4">
    <path d="M 414.72 307.584 
L 414.72 41.472 
" style="fill: none; stroke: #000000; stroke-width: 0.8; stroke-linejoin: miter; stroke-linecap: square"/>
   </g>
   <g id="patch_5">
    <path d="M 57.6 307.584 
L 414.72 307.584 
" style="fill: none; stroke: #000000; stroke-width: 0.8; stroke-linejoin: miter; stroke-linecap: square"/>
   </g>
   <g id="patch_6">
    <path d="M 57.6 41.472 
L 414.72 41.472 
" style="fill: none; stroke: #000000; stroke-width: 0.8; stroke-linejoin: miter; stroke-linecap: square"/>
   </g>
   <g id="text_19">
    <!-- Queue size (y-axis) between S5 and sensors that follow at a time (x-axis). -->
    <g transform="translate(14.282813 35.472) scale(0.12 -0.12)">
     <defs>
      <path id="DejaVuSans-51" d="M 2522 4238 
Q 1834 4238 1429 3725 
Q 1025 3213 1025 2328 
Q 1025 1447 1429 934 
Q 1834 422 2522 422 
Q 3209 422 3611 934 
Q 4013 1447 4013 2328 
Q 4013 3213 3611 3725 
Q 3209 4238 2522 4238 
z
M 3406 84 
L 4238 -825 
L 3475 -825 
L 2784 -78 
Q 2681 -84 2626 -87 
Q 2572 -91 2522 -91 
Q 1538 -91 948 567 
Q 359 1225 359 2328 
Q 359 3434 948 4092 
Q 1538 4750 2522 4750 
Q 3503 4750 4090 4092 
Q 4678 3434 4678 2328 
Q 4678 1516 4351 937 
Q 4025 359 3406 84 
z
" transform="scale(0.015625)"/>
      <path id="DejaVuSans-75" d="M 544 1381 
L 544 3500 
L 1119 3500 
L 1119 1403 
Q 1119 906 1312 657 
Q 1506 409 1894 409 
Q 2359 409 2629 706 
Q 2900 1003 2900 1516 
L 2900 3500 
L 3475 3500 
L 3475 0 
L 2900 0 
L 2900 538 
Q 2691 219 2414 64 
Q 2138 -91 1772 -91 
Q 1169 -91 856 284 
Q 544 659 544 1381 
z
M 1991 3584 
L 1991 3584 
z
" transform="scale(0.015625)"/>
      <path id="DejaVuSans-20" transform="scale(0.015625)"/>
      <path id="DejaVuSans-73" d="M 2834 3397 
L 2834 2853 
Q 2591 2978 2328 3040 
Q 2066 3103 1784 3103 
Q 1356 3103 1142 2972 
Q 928 2841 928 2578 
Q 928 2378 1081 2264 
Q 1234 2150 1697 2047 
L 1894 2003 
Q 2506 1872 2764 1633 
Q 3022 1394 3022 966 
Q 3022 478 2636 193 
Q 2250 -91 1575 -91 
Q 1294 -91 989 -36 
Q 684 19 347 128 
L 347 722 
Q 666 556 975 473 
Q 1284 391 1588 391 
Q 1994 391 2212 530 
Q 2431 669 2431 922 
Q 2431 1156 2273 1281 
Q 2116 1406 1581 1522 
L 1381 1569 
Q 847 1681 609 1914 
Q 372 2147 372 2553 
Q 372 3047 722 3315 
Q 1072 3584 1716 3584 
Q 2034 3584 2315 3537 
Q 2597 3491 2834 3397 
z
" transform="scale(0.015625)"/>
      <path id="DejaVuSans-69" d="M 603 3500 
L 1178 3500 
L 1178 0 
L 603 0 
L 603 3500 
z
M 603 4863 
L 1178 4863 
L 1178 4134 
L 603 4134 
L 603 4863 
z
" transform="scale(0.015625)"/>
      <path id="DejaVuSans-7a" d="M 353 3500 
L 3084 3500 
L 3084 2975 
L 922 459 
L 3084 459 
L 3084 0 
L 275 0 
L 275 525 
L 2438 3041 
L 353 3041 
L 353 3500 
z
" transform="scale(0.015625)"/>
      <path id="DejaVuSans-28" d="M 1984 4856 
Q 1566 4138 1362 3434 
Q 1159 2731 1159 2009 
Q 1159 1288 1364 580 
Q 1569 -128 1984 -844 
L 1484 -844 
Q 1016 -109 783 600 
Q 550 1309 550 2009 
Q 550 2706 781 3412 
Q 1013 4119 1484 4856 
L 1984 4856 
z
" transform="scale(0.015625)"/>
      <path id="DejaVuSans-79" d="M 2059 -325 
Q 1816 -950 1584 -1140 
Q 1353 -1331 966 -1331 
L 506 -1331 
L 506 -850 
L 844 -850 
Q 1081 -850 1212 -737 
Q 1344 -625 1503 -206 
L 1606 56 
L 191 3500 
L 800 3500 
L 1894 763 
L 2988 3500 
L 3597 3500 
L 2059 -325 
z
" transform="scale(0.015625)"/>
      <path id="DejaVuSans-2d" d="M 313 2009 
L 1997 2009 
L 1997 1497 
L 313 1497 
L 313 2009 
z
" transform="scale(0.015625)"/>
      <path id="DejaVuSans-61" d="M 2194 1759 
Q 1497 1759 1228 1600 
Q 959 1441 959 1056 
Q 959 750 1161 570 
Q 1363 391 1709 391 
Q 2188 391 2477 730 
Q 2766 1069 2766 1631 
L 2766 1759 
L 2194 1759 
z
M 3341 1997 
L 3341 0 
L 2766 0 
L 2766 531 
Q 2569 213 2275 61 
Q 1981 -91 1556 -91 
Q 1019 -91 701 211 
Q 384 513 384 1019 
Q 384 1609 779 1909 
Q 1175 2209 1959 2209 
L 2766 2209 
L 2766 2266 
Q 2766 2663 2505 2880 
Q 2244 3097 1772 3097 
Q 1472 3097 1187 3025 
Q 903 2953 641 2809 
L 641 3341 
Q 956 3463 1253 3523 
Q 1550 3584 1831 3584 
Q 2591 3584 2966 3190 
Q 3341 2797 3341 1997 
z
" transform="scale(0.015625)"/>
      <path id="DejaVuSans-78" d="M 3513 3500 
L 2247 1797 
L 3578 0 
L 2900 0 
L 1881 1375 
L 863 0 
L 184 0 
L 1544 1831 
L 300 3500 
L 978 3500 
L 1906 2253 
L 2834 3500 
L 3513 3500 
z
" transform="scale(0.015625)"/>
      <path id="DejaVuSans-29" d="M 513 4856 
L 1013 4856 
Q 1481 4119 1714 3412 
Q 1947 2706 1947 2009 
Q 1947 1309 1714 600 
Q 1481 -109 1013 -844 
L 513 -844 
Q 928 -128 1133 580 
Q 1338 1288 1338 2009 
Q 1338 2731 1133 3434 
Q 928 4138 513 4856 
z
" transform="scale(0.015625)"/>
      <path id="DejaVuSans-62" d="M 3116 1747 
Q 3116 2381 2855 2742 
Q 2594 3103 2138 3103 
Q 1681 3103 1420 2742 
Q 1159 2381 1159 1747 
Q 1159 1113 1420 752 
Q 1681 391 2138 391 
Q 2594 391 2855 752 
Q 3116 1113 3116 1747 
z
M 1159 2969 
Q 1341 3281 1617 3432 
Q 1894 3584 2278 3584 
Q 2916 3584 3314 3078 
Q 3713 2572 3713 1747 
Q 3713 922 3314 415 
Q 2916 -91 2278 -91 
Q 1894 -91 1617 61 
Q 1341 213 1159 525 
L 1159 0 
L 581 0 
L 581 4863 
L 1159 4863 
L 1159 2969 
z
" transform="scale(0.015625)"/>
      <path id="DejaVuSans-74" d="M 1172 4494 
L 1172 3500 
L 2356 3500 
L 2356 3053 
L 1172 3053 
L 1172 1153 
Q 1172 725 1289 603 
Q 1406 481 1766 481 
L 2356 481 
L 2356 0 
L 1766 0 
Q 1100 0 847 248 
Q 594 497 594 1153 
L 594 3053 
L 172 3053 
L 172 3500 
L 594 3500 
L 594 4494 
L 1172 4494 
z
" transform="scale(0.015625)"/>
      <path id="DejaVuSans-77" d="M 269 3500 
L 844 3500 
L 1563 769 
L 2278 3500 
L 2956 3500 
L 3675 769 
L 4391 3500 
L 4966 3500 
L 4050 0 
L 3372 0 
L 2619 2869 
L 1863 0 
L 1184 0 
L 269 3500 
z
" transform="scale(0.015625)"/>
      <path id="DejaVuSans-6e" d="M 3513 2113 
L 3513 0 
L 2938 0 
L 2938 2094 
Q 2938 2591 2744 2837 
Q 2550 3084 2163 3084 
Q 1697 3084 1428 2787 
Q 1159 2491 1159 1978 
L 1159 0 
L 581 0 
L 581 3500 
L 1159 3500 
L 1159 2956 
Q 1366 3272 1645 3428 
Q 1925 3584 2291 3584 
Q 2894 3584 3203 3211 
Q 3513 2838 3513 2113 
z
" transform="scale(0.015625)"/>
      <path id="DejaVuSans-53" d="M 3425 4513 
L 3425 3897 
Q 3066 4069 2747 4153 
Q 2428 4238 2131 4238 
Q 1616 4238 1336 4038 
Q 1056 3838 1056 3469 
Q 1056 3159 1242 3001 
Q 1428 2844 1947 2747 
L 2328 2669 
Q 3034 2534 3370 2195 
Q 3706 1856 3706 1288 
Q 3706 609 3251 259 
Q 2797 -91 1919 -91 
Q 1588 -91 1214 -16 
Q 841 59 441 206 
L 441 856 
Q 825 641 1194 531 
Q 1563 422 1919 422 
Q 2459 422 2753 634 
Q 3047 847 3047 1241 
Q 3047 1584 2836 1778 
Q 2625 1972 2144 2069 
L 1759 2144 
Q 1053 2284 737 2584 
Q 422 2884 422 3419 
Q 422 4038 858 4394 
Q 1294 4750 2059 4750 
Q 2388 4750 2728 4690 
Q 3069 4631 3425 4513 
z
" transform="scale(0.015625)"/>
      <path id="DejaVuSans-64" d="M 2906 2969 
L 2906 4863 
L 3481 4863 
L 3481 0 
L 2906 0 
L 2906 525 
Q 2725 213 2448 61 
Q 2172 -91 1784 -91 
Q 1150 -91 751 415 
Q 353 922 353 1747 
Q 353 2572 751 3078 
Q 1150 3584 1784 3584 
Q 2172 3584 2448 3432 
Q 2725 3281 2906 2969 
z
M 947 1747 
Q 947 1113 1208 752 
Q 1469 391 1925 391 
Q 2381 391 2643 752 
Q 2906 1113 2906 1747 
Q 2906 2381 2643 2742 
Q 2381 3103 1925 3103 
Q 1469 3103 1208 2742 
Q 947 2381 947 1747 
z
" transform="scale(0.015625)"/>
      <path id="DejaVuSans-6f" d="M 1959 3097 
Q 1497 3097 1228 2736 
Q 959 2375 959 1747 
Q 959 1119 1226 758 
Q 1494 397 1959 397 
Q 2419 397 2687 759 
Q 2956 1122 2956 1747 
Q 2956 2369 2687 2733 
Q 2419 3097 1959 3097 
z
M 1959 3584 
Q 2709 3584 3137 3096 
Q 3566 2609 3566 1747 
Q 3566 888 3137 398 
Q 2709 -91 1959 -91 
Q 1206 -91 779 398 
Q 353 888 353 1747 
Q 353 2609 779 3096 
Q 1206 3584 1959 3584 
z
" transform="scale(0.015625)"/>
      <path id="DejaVuSans-72" d="M 2631 2963 
Q 2534 3019 2420 3045 
Q 2306 3072 2169 3072 
Q 1681 3072 1420 2755 
Q 1159 2438 1159 1844 
L 1159 0 
L 581 0 
L 581 3500 
L 1159 3500 
L 1159 2956 
Q 1341 3275 1631 3429 
Q 1922 3584 2338 3584 
Q 2397 3584 2469 3576 
Q 2541 3569 2628 3553 
L 2631 2963 
z
" transform="scale(0.015625)"/>
      <path id="DejaVuSans-68" d="M 3513 2113 
L 3513 0 
L 2938 0 
L 2938 2094 
Q 2938 2591 2744 2837 
Q 2550 3084 2163 3084 
Q 1697 3084 1428 2787 
Q 1159 2491 1159 1978 
L 1159 0 
L 581 0 
L 581 4863 
L 1159 4863 
L 1159 2956 
Q 1366 3272 1645 3428 
Q 1925 3584 2291 3584 
Q 2894 3584 3203 3211 
Q 3513 2838 3513 2113 
z
" transform="scale(0.015625)"/>
      <path id="DejaVuSans-66" d="M 2375 4863 
L 2375 4384 
L 1825 4384 
Q 1516 4384 1395 4259 
Q 1275 4134 1275 3809 
L 1275 3500 
L 2222 3500 
L 2222 3053 
L 1275 3053 
L 1275 0 
L 697 0 
L 697 3053 
L 147 3053 
L 147 3500 
L 697 3500 
L 697 3744 
Q 697 4328 969 4595 
Q 1241 4863 1831 4863 
L 2375 4863 
z
" transform="scale(0.015625)"/>
      <path id="DejaVuSans-6c" d="M 603 4863 
L 1178 4863 
L 1178 0 
L 603 0 
L 603 4863 
z
" transform="scale(0.015625)"/>
      <path id="DejaVuSans-6d" d="M 3328 2828 
Q 3544 3216 3844 3400 
Q 4144 3584 4550 3584 
Q 5097 3584 5394 3201 
Q 5691 2819 5691 2113 
L 5691 0 
L 5113 0 
L 5113 2094 
Q 5113 2597 4934 2840 
Q 4756 3084 4391 3084 
Q 3944 3084 3684 2787 
Q 3425 2491 3425 1978 
L 3425 0 
L 2847 0 
L 2847 2094 
Q 2847 2600 2669 2842 
Q 2491 3084 2119 3084 
Q 1678 3084 1418 2786 
Q 1159 2488 1159 1978 
L 1159 0 
L 581 0 
L 581 3500 
L 1159 3500 
L 1159 2956 
Q 1356 3278 1631 3431 
Q 1906 3584 2284 3584 
Q 2666 3584 2933 3390 
Q 3200 3197 3328 2828 
z
" transform="scale(0.015625)"/>
     </defs>
     <use xlink:href="#DejaVuSans-51"/>
     <use xlink:href="#DejaVuSans-75" x="78.710938"/>
     <use xlink:href="#DejaVuSans-65" x="142.089844"/>
     <use xlink:href="#DejaVuSans-75" x="203.613281"/>
     <use xlink:href="#DejaVuSans-65" x="266.992188"/>
     <use xlink:href="#DejaVuSans-20" x="328.515625"/>
     <use xlink:href="#DejaVuSans-73" x="360.302734"/>
     <use xlink:href="#DejaVuSans-69" x="412.402344"/>
     <use xlink:href="#DejaVuSans-7a" x="440.185547"/>
     <use xlink:href="#DejaVuSans-65" x="492.675781"/>
     <use xlink:href="#DejaVuSans-20" x="554.199219"/>
     <use xlink:href="#DejaVuSans-28" x="585.986328"/>
     <use xlink:href="#DejaVuSans-79" x="625"/>
     <use xlink:href="#DejaVuSans-2d" x="682.429688"/>
     <use xlink:href="#DejaVuSans-61" x="718.513672"/>
     <use xlink:href="#DejaVuSans-78" x="779.792969"/>
     <use xlink:href="#DejaVuSans-69" x="838.972656"/>
     <use xlink:href="#DejaVuSans-73" x="866.755859"/>
     <use xlink:href="#DejaVuSans-29" x="918.855469"/>
     <use xlink:href="#DejaVuSans-20" x="957.869141"/>
     <use xlink:href="#DejaVuSans-62" x="989.65625"/>
     <use xlink:href="#DejaVuSans-65" x="1053.132812"/>
     <use xlink:href="#DejaVuSans-74" x="1114.65625"/>
     <use xlink:href="#DejaVuSans-77" x="1153.865234"/>
     <use xlink:href="#DejaVuSans-65" x="1235.652344"/>
     <use xlink:href="#DejaVuSans-65" x="1297.175781"/>
     <use xlink:href="#DejaVuSans-6e" x="1358.699219"/>
     <use xlink:href="#DejaVuSans-20" x="1422.078125"/>
     <use xlink:href="#DejaVuSans-53" x="1453.865234"/>
     <use xlink:href="#DejaVuSans-35" x="1517.341797"/>
     <use xlink:href="#DejaVuSans-20" x="1580.964844"/>
     <use xlink:href="#DejaVuSans-61" x="1612.751953"/>
     <use xlink:href="#DejaVuSans-6e" x="1674.03125"/>
     <use xlink:href="#DejaVuSans-64" x="1737.410156"/>
     <use xlink:href="#DejaVuSans-20" x="1800.886719"/>
     <use xlink:href="#DejaVuSans-73" x="1832.673828"/>
     <use xlink:href="#DejaVuSans-65" x="1884.773438"/>
     <use xlink:href="#DejaVuSans-6e" x="1946.296875"/>
     <use xlink:href="#DejaVuSans-73" x="2009.675781"/>
     <use xlink:href="#DejaVuSans-6f" x="2061.775391"/>
     <use xlink:href="#DejaVuSans-72" x="2122.957031"/>
     <use xlink:href="#DejaVuSans-73" x="2164.070312"/>
     <use xlink:href="#DejaVuSans-20" x="2216.169922"/>
     <use xlink:href="#DejaVuSans-74" x="2247.957031"/>
     <use xlink:href="#DejaVuSans-68" x="2287.166016"/>
     <use xlink:href="#DejaVuSans-61" x="2350.544922"/>
     <use xlink:href="#DejaVuSans-74" x="2411.824219"/>
     <use xlink:href="#DejaVuSans-20" x="2451.033203"/>
     <use xlink:href="#DejaVuSans-66" x="2482.820312"/>
     <use xlink:href="#DejaVuSans-6f" x="2518.025391"/>
     <use xlink:href="#DejaVuSans-6c" x="2579.207031"/>
     <use xlink:href="#DejaVuSans-6c" x="2606.990234"/>
     <use xlink:href="#DejaVuSans-6f" x="2634.773438"/>
     <use xlink:href="#DejaVuSans-77" x="2695.955078"/>
     <use xlink:href="#DejaVuSans-20" x="2777.742188"/>
     <use xlink:href="#DejaVuSans-61" x="2809.529297"/>
     <use xlink:href="#DejaVuSans-74" x="2870.808594"/>
     <use xlink:href="#DejaVuSans-20" x="2910.017578"/>
     <use xlink:href="#DejaVuSans-61" x="2941.804688"/>
     <use xlink:href="#DejaVuSans-20" x="3003.083984"/>
     <use xlink:href="#DejaVuSans-74" x="3034.871094"/>
     <use xlink:href="#DejaVuSans-69" x="3074.080078"/>
     <use xlink:href="#DejaVuSans-6d" x="3101.863281"/>
     <use xlink:href="#DejaVuSans-65" x="3199.275391"/>
     <use xlink:href="#DejaVuSans-20" x="3260.798828"/>
     <use xlink:href="#DejaVuSans-28" x="3292.585938"/>
     <use xlink:href="#DejaVuSans-78" x="3331.599609"/>
     <use xlink:href="#DejaVuSans-2d" x="3390.779297"/>
     <use xlink:href="#DejaVuSans-61" x="3426.863281"/>
     <use xlink:href="#DejaVuSans-78" x="3488.142578"/>
     <use xlink:href="#DejaVuSans-69" x="3547.322266"/>
     <use xlink:href="#DejaVuSans-73" x="3575.105469"/>
     <use xlink:href="#DejaVuSans-29" x="3627.205078"/>
     <use xlink:href="#DejaVuSans-2e" x="3666.21875"/>
    </g>
   </g>
  </g>
 </g>
 <defs>
  <clipPath id="pbecf8f7344">
   <rect x="57.6" y="41.472" width="357.12" height="266.112"/>
  </clipPath>
 </defs>
</svg>
