<?xml version="1.0" encoding="utf-8" standalone="no"?>
<!DOCTYPE svg PUBLIC "-//W3C//DTD SVG 1.1//EN"
  "http://www.w3.org/Graphics/SVG/1.1/DTD/svg11.dtd">
<svg xmlns:xlink="http://www.w3.org/1999/xlink" width="460.8pt" height="345.6pt" viewBox="0 0 460.8 345.6" xmlns="http://www.w3.org/2000/svg" version="1.1">
 <metadata>
  <rdf:RDF xmlns:dc="http://purl.org/dc/elements/1.1/" xmlns:cc="http://creativecommons.org/ns#" xmlns:rdf="http://www.w3.org/1999/02/22-rdf-syntax-ns#">
   <cc:Work>
    <dc:type rdf:resource="http://purl.org/dc/dcmitype/StillImage"/>
    <dc:date>2024-03-08T12:40:50.270620</dc:date>
    <dc:format>image/svg+xml</dc:format>
    <dc:creator>
     <cc:Agent>
      <dc:title>Matplotlib v3.8.2, https://matplotlib.org/</dc:title>
     </cc:Agent>
    </dc:creator>
   </cc:Work>
  </rdf:RDF>
 </metadata>
 <defs>
  <style type="text/css">*{stroke-linejoin: round; stroke-linecap: butt}</style>
 </defs>
 <g id="figure_1">
  <g id="patch_1">
   <path d="M 0 345.6 
L 460.8 345.6 
L 460.8 0 
L 0 0 
z
" style="fill: #ffffff"/>
  </g>
  <g id="axes_1">
   <g id="patch_2">
    <path d="M 57.6 307.584 
L 414.72 307.584 
L 414.72 41.472 
L 57.6 41.472 
z
" style="fill: #ffffff"/>
   </g>
   <g id="matplotlib.axis_1">
    <g id="xtick_1">
     <g id="line2d_1">
      <defs>
       <path id="m9c32d4c7a8" d="M 0 0 
L 0 3.5 
" style="stroke: #000000; stroke-width: 0.8"/>
      </defs>
      <g>
       <use xlink:href="#m9c32d4c7a8" x="71.429469" y="307.584" style="stroke: #000000; stroke-width: 0.8"/>
      </g>
     </g>
     <g id="text_1">
      <!-- 0.0 -->
      <g transform="translate(63.477906 322.182437) scale(0.1 -0.1)">
       <defs>
        <path id="DejaVuSans-30" d="M 2034 4250 
Q 1547 4250 1301 3770 
Q 1056 3291 1056 2328 
Q 1056 1369 1301 889 
Q 1547 409 2034 409 
Q 2525 409 2770 889 
Q 3016 1369 3016 2328 
Q 3016 3291 2770 3770 
Q 2525 4250 2034 4250 
z
M 2034 4750 
Q 2819 4750 3233 4129 
Q 3647 3509 3647 2328 
Q 3647 1150 3233 529 
Q 2819 -91 2034 -91 
Q 1250 -91 836 529 
Q 422 1150 422 2328 
Q 422 3509 836 4129 
Q 1250 4750 2034 4750 
z
" transform="scale(0.015625)"/>
        <path id="DejaVuSans-2e" d="M 684 794 
L 1344 794 
L 1344 0 
L 684 0 
L 684 794 
z
" transform="scale(0.015625)"/>
       </defs>
       <use xlink:href="#DejaVuSans-30"/>
       <use xlink:href="#DejaVuSans-2e" x="63.623047"/>
       <use xlink:href="#DejaVuSans-30" x="95.410156"/>
      </g>
     </g>
    </g>
    <g id="xtick_2">
     <g id="line2d_2">
      <g>
       <use xlink:href="#m9c32d4c7a8" x="117.293181" y="307.584" style="stroke: #000000; stroke-width: 0.8"/>
      </g>
     </g>
     <g id="text_2">
      <!-- 0.5 -->
      <g transform="translate(109.341619 322.182437) scale(0.1 -0.1)">
       <defs>
        <path id="DejaVuSans-35" d="M 691 4666 
L 3169 4666 
L 3169 4134 
L 1269 4134 
L 1269 2991 
Q 1406 3038 1543 3061 
Q 1681 3084 1819 3084 
Q 2600 3084 3056 2656 
Q 3513 2228 3513 1497 
Q 3513 744 3044 326 
Q 2575 -91 1722 -91 
Q 1428 -91 1123 -41 
Q 819 9 494 109 
L 494 744 
Q 775 591 1075 516 
Q 1375 441 1709 441 
Q 2250 441 2565 725 
Q 2881 1009 2881 1497 
Q 2881 1984 2565 2268 
Q 2250 2553 1709 2553 
Q 1456 2553 1204 2497 
Q 953 2441 691 2322 
L 691 4666 
z
" transform="scale(0.015625)"/>
       </defs>
       <use xlink:href="#DejaVuSans-30"/>
       <use xlink:href="#DejaVuSans-2e" x="63.623047"/>
       <use xlink:href="#DejaVuSans-35" x="95.410156"/>
      </g>
     </g>
    </g>
    <g id="xtick_3">
     <g id="line2d_3">
      <g>
       <use xlink:href="#m9c32d4c7a8" x="163.156894" y="307.584" style="stroke: #000000; stroke-width: 0.8"/>
      </g>
     </g>
     <g id="text_3">
      <!-- 1.0 -->
      <g transform="translate(155.205332 322.182437) scale(0.1 -0.1)">
       <defs>
        <path id="DejaVuSans-31" d="M 794 531 
L 1825 531 
L 1825 4091 
L 703 3866 
L 703 4441 
L 1819 4666 
L 2450 4666 
L 2450 531 
L 3481 531 
L 3481 0 
L 794 0 
L 794 531 
z
" transform="scale(0.015625)"/>
       </defs>
       <use xlink:href="#DejaVuSans-31"/>
       <use xlink:href="#DejaVuSans-2e" x="63.623047"/>
       <use xlink:href="#DejaVuSans-30" x="95.410156"/>
      </g>
     </g>
    </g>
    <g id="xtick_4">
     <g id="line2d_4">
      <g>
       <use xlink:href="#m9c32d4c7a8" x="209.020607" y="307.584" style="stroke: #000000; stroke-width: 0.8"/>
      </g>
     </g>
     <g id="text_4">
      <!-- 1.5 -->
      <g transform="translate(201.069044 322.182437) scale(0.1 -0.1)">
       <use xlink:href="#DejaVuSans-31"/>
       <use xlink:href="#DejaVuSans-2e" x="63.623047"/>
       <use xlink:href="#DejaVuSans-35" x="95.410156"/>
      </g>
     </g>
    </g>
    <g id="xtick_5">
     <g id="line2d_5">
      <g>
       <use xlink:href="#m9c32d4c7a8" x="254.884319" y="307.584" style="stroke: #000000; stroke-width: 0.8"/>
      </g>
     </g>
     <g id="text_5">
      <!-- 2.0 -->
      <g transform="translate(246.932757 322.182437) scale(0.1 -0.1)">
       <defs>
        <path id="DejaVuSans-32" d="M 1228 531 
L 3431 531 
L 3431 0 
L 469 0 
L 469 531 
Q 828 903 1448 1529 
Q 2069 2156 2228 2338 
Q 2531 2678 2651 2914 
Q 2772 3150 2772 3378 
Q 2772 3750 2511 3984 
Q 2250 4219 1831 4219 
Q 1534 4219 1204 4116 
Q 875 4013 500 3803 
L 500 4441 
Q 881 4594 1212 4672 
Q 1544 4750 1819 4750 
Q 2544 4750 2975 4387 
Q 3406 4025 3406 3419 
Q 3406 3131 3298 2873 
Q 3191 2616 2906 2266 
Q 2828 2175 2409 1742 
Q 1991 1309 1228 531 
z
" transform="scale(0.015625)"/>
       </defs>
       <use xlink:href="#DejaVuSans-32"/>
       <use xlink:href="#DejaVuSans-2e" x="63.623047"/>
       <use xlink:href="#DejaVuSans-30" x="95.410156"/>
      </g>
     </g>
    </g>
    <g id="xtick_6">
     <g id="line2d_6">
      <g>
       <use xlink:href="#m9c32d4c7a8" x="300.748032" y="307.584" style="stroke: #000000; stroke-width: 0.8"/>
      </g>
     </g>
     <g id="text_6">
      <!-- 2.5 -->
      <g transform="translate(292.796469 322.182437) scale(0.1 -0.1)">
       <use xlink:href="#DejaVuSans-32"/>
       <use xlink:href="#DejaVuSans-2e" x="63.623047"/>
       <use xlink:href="#DejaVuSans-35" x="95.410156"/>
      </g>
     </g>
    </g>
    <g id="xtick_7">
     <g id="line2d_7">
      <g>
       <use xlink:href="#m9c32d4c7a8" x="346.611745" y="307.584" style="stroke: #000000; stroke-width: 0.8"/>
      </g>
     </g>
     <g id="text_7">
      <!-- 3.0 -->
      <g transform="translate(338.660182 322.182437) scale(0.1 -0.1)">
       <defs>
        <path id="DejaVuSans-33" d="M 2597 2516 
Q 3050 2419 3304 2112 
Q 3559 1806 3559 1356 
Q 3559 666 3084 287 
Q 2609 -91 1734 -91 
Q 1441 -91 1130 -33 
Q 819 25 488 141 
L 488 750 
Q 750 597 1062 519 
Q 1375 441 1716 441 
Q 2309 441 2620 675 
Q 2931 909 2931 1356 
Q 2931 1769 2642 2001 
Q 2353 2234 1838 2234 
L 1294 2234 
L 1294 2753 
L 1863 2753 
Q 2328 2753 2575 2939 
Q 2822 3125 2822 3475 
Q 2822 3834 2567 4026 
Q 2313 4219 1838 4219 
Q 1578 4219 1281 4162 
Q 984 4106 628 3988 
L 628 4550 
Q 988 4650 1302 4700 
Q 1616 4750 1894 4750 
Q 2613 4750 3031 4423 
Q 3450 4097 3450 3541 
Q 3450 3153 3228 2886 
Q 3006 2619 2597 2516 
z
" transform="scale(0.015625)"/>
       </defs>
       <use xlink:href="#DejaVuSans-33"/>
       <use xlink:href="#DejaVuSans-2e" x="63.623047"/>
       <use xlink:href="#DejaVuSans-30" x="95.410156"/>
      </g>
     </g>
    </g>
    <g id="xtick_8">
     <g id="line2d_8">
      <g>
       <use xlink:href="#m9c32d4c7a8" x="392.475457" y="307.584" style="stroke: #000000; stroke-width: 0.8"/>
      </g>
     </g>
     <g id="text_8">
      <!-- 3.5 -->
      <g transform="translate(384.523895 322.182437) scale(0.1 -0.1)">
       <use xlink:href="#DejaVuSans-33"/>
       <use xlink:href="#DejaVuSans-2e" x="63.623047"/>
       <use xlink:href="#DejaVuSans-35" x="95.410156"/>
      </g>
     </g>
    </g>
    <g id="text_9">
     <!-- 1e6 -->
     <g transform="translate(395.841875 334.860562) scale(0.1 -0.1)">
      <defs>
       <path id="DejaVuSans-65" d="M 3597 1894 
L 3597 1613 
L 953 1613 
Q 991 1019 1311 708 
Q 1631 397 2203 397 
Q 2534 397 2845 478 
Q 3156 559 3463 722 
L 3463 178 
Q 3153 47 2828 -22 
Q 2503 -91 2169 -91 
Q 1331 -91 842 396 
Q 353 884 353 1716 
Q 353 2575 817 3079 
Q 1281 3584 2069 3584 
Q 2775 3584 3186 3129 
Q 3597 2675 3597 1894 
z
M 3022 2063 
Q 3016 2534 2758 2815 
Q 2500 3097 2075 3097 
Q 1594 3097 1305 2825 
Q 1016 2553 972 2059 
L 3022 2063 
z
" transform="scale(0.015625)"/>
       <path id="DejaVuSans-36" d="M 2113 2584 
Q 1688 2584 1439 2293 
Q 1191 2003 1191 1497 
Q 1191 994 1439 701 
Q 1688 409 2113 409 
Q 2538 409 2786 701 
Q 3034 994 3034 1497 
Q 3034 2003 2786 2293 
Q 2538 2584 2113 2584 
z
M 3366 4563 
L 3366 3988 
Q 3128 4100 2886 4159 
Q 2644 4219 2406 4219 
Q 1781 4219 1451 3797 
Q 1122 3375 1075 2522 
Q 1259 2794 1537 2939 
Q 1816 3084 2150 3084 
Q 2853 3084 3261 2657 
Q 3669 2231 3669 1497 
Q 3669 778 3244 343 
Q 2819 -91 2113 -91 
Q 1303 -91 875 529 
Q 447 1150 447 2328 
Q 447 3434 972 4092 
Q 1497 4750 2381 4750 
Q 2619 4750 2861 4703 
Q 3103 4656 3366 4563 
z
" transform="scale(0.015625)"/>
      </defs>
      <use xlink:href="#DejaVuSans-31"/>
      <use xlink:href="#DejaVuSans-65" x="63.623047"/>
      <use xlink:href="#DejaVuSans-36" x="125.146484"/>
     </g>
    </g>
   </g>
   <g id="matplotlib.axis_2">
    <g id="ytick_1">
     <g id="line2d_9">
      <defs>
       <path id="m7f6559b9b0" d="M 0 0 
L -3.5 0 
" style="stroke: #000000; stroke-width: 0.8"/>
      </defs>
      <g>
       <use xlink:href="#m7f6559b9b0" x="57.6" y="295.488" style="stroke: #000000; stroke-width: 0.8"/>
      </g>
     </g>
     <g id="text_10">
      <!-- 0 -->
      <g transform="translate(44.2375 299.287219) scale(0.1 -0.1)">
       <use xlink:href="#DejaVuSans-30"/>
      </g>
     </g>
    </g>
    <g id="ytick_2">
     <g id="line2d_10">
      <g>
       <use xlink:href="#m7f6559b9b0" x="57.6" y="255.168" style="stroke: #000000; stroke-width: 0.8"/>
      </g>
     </g>
     <g id="text_11">
      <!-- 2 -->
      <g transform="translate(44.2375 258.967219) scale(0.1 -0.1)">
       <use xlink:href="#DejaVuSans-32"/>
      </g>
     </g>
    </g>
    <g id="ytick_3">
     <g id="line2d_11">
      <g>
       <use xlink:href="#m7f6559b9b0" x="57.6" y="214.848" style="stroke: #000000; stroke-width: 0.8"/>
      </g>
     </g>
     <g id="text_12">
      <!-- 4 -->
      <g transform="translate(44.2375 218.647219) scale(0.1 -0.1)">
       <defs>
        <path id="DejaVuSans-34" d="M 2419 4116 
L 825 1625 
L 2419 1625 
L 2419 4116 
z
M 2253 4666 
L 3047 4666 
L 3047 1625 
L 3713 1625 
L 3713 1100 
L 3047 1100 
L 3047 0 
L 2419 0 
L 2419 1100 
L 313 1100 
L 313 1709 
L 2253 4666 
z
" transform="scale(0.015625)"/>
       </defs>
       <use xlink:href="#DejaVuSans-34"/>
      </g>
     </g>
    </g>
    <g id="ytick_4">
     <g id="line2d_12">
      <g>
       <use xlink:href="#m7f6559b9b0" x="57.6" y="174.528" style="stroke: #000000; stroke-width: 0.8"/>
      </g>
     </g>
     <g id="text_13">
      <!-- 6 -->
      <g transform="translate(44.2375 178.327219) scale(0.1 -0.1)">
       <use xlink:href="#DejaVuSans-36"/>
      </g>
     </g>
    </g>
    <g id="ytick_5">
     <g id="line2d_13">
      <g>
       <use xlink:href="#m7f6559b9b0" x="57.6" y="134.208" style="stroke: #000000; stroke-width: 0.8"/>
      </g>
     </g>
     <g id="text_14">
      <!-- 8 -->
      <g transform="translate(44.2375 138.007219) scale(0.1 -0.1)">
       <defs>
        <path id="DejaVuSans-38" d="M 2034 2216 
Q 1584 2216 1326 1975 
Q 1069 1734 1069 1313 
Q 1069 891 1326 650 
Q 1584 409 2034 409 
Q 2484 409 2743 651 
Q 3003 894 3003 1313 
Q 3003 1734 2745 1975 
Q 2488 2216 2034 2216 
z
M 1403 2484 
Q 997 2584 770 2862 
Q 544 3141 544 3541 
Q 544 4100 942 4425 
Q 1341 4750 2034 4750 
Q 2731 4750 3128 4425 
Q 3525 4100 3525 3541 
Q 3525 3141 3298 2862 
Q 3072 2584 2669 2484 
Q 3125 2378 3379 2068 
Q 3634 1759 3634 1313 
Q 3634 634 3220 271 
Q 2806 -91 2034 -91 
Q 1263 -91 848 271 
Q 434 634 434 1313 
Q 434 1759 690 2068 
Q 947 2378 1403 2484 
z
M 1172 3481 
Q 1172 3119 1398 2916 
Q 1625 2713 2034 2713 
Q 2441 2713 2670 2916 
Q 2900 3119 2900 3481 
Q 2900 3844 2670 4047 
Q 2441 4250 2034 4250 
Q 1625 4250 1398 4047 
Q 1172 3844 1172 3481 
z
" transform="scale(0.015625)"/>
       </defs>
       <use xlink:href="#DejaVuSans-38"/>
      </g>
     </g>
    </g>
    <g id="ytick_6">
     <g id="line2d_14">
      <g>
       <use xlink:href="#m7f6559b9b0" x="57.6" y="93.888" style="stroke: #000000; stroke-width: 0.8"/>
      </g>
     </g>
     <g id="text_15">
      <!-- 10 -->
      <g transform="translate(37.875 97.687219) scale(0.1 -0.1)">
       <use xlink:href="#DejaVuSans-31"/>
       <use xlink:href="#DejaVuSans-30" x="63.623047"/>
      </g>
     </g>
    </g>
    <g id="ytick_7">
     <g id="line2d_15">
      <g>
       <use xlink:href="#m7f6559b9b0" x="57.6" y="53.568" style="stroke: #000000; stroke-width: 0.8"/>
      </g>
     </g>
     <g id="text_16">
      <!-- 12 -->
      <g transform="translate(37.875 57.367219) scale(0.1 -0.1)">
       <use xlink:href="#DejaVuSans-31"/>
       <use xlink:href="#DejaVuSans-32" x="63.623047"/>
      </g>
     </g>
    </g>
   </g>
   <g id="line2d_16">
    <path d="M 73.832727 275.328 
L 74.472067 235.008 
L 74.560126 295.488 
L 75.118746 255.168 
L 75.232488 295.488 
L 75.438874 275.328 
L 75.757169 255.168 
L 75.821378 295.488 
L 76.402012 255.168 
L 76.49374 295.488 
L 77.046856 255.168 
L 77.130328 295.488 
L 77.692617 255.168 
L 77.801773 295.488 
L 78.342965 255.168 
L 78.429189 295.488 
L 78.658507 275.328 
L 79.071281 295.488 
L 84.555663 275.328 
L 84.638218 214.848 
L 84.946422 194.688 
L 84.97394 174.528 
L 84.986782 295.488 
L 85.346354 275.328 
L 85.373872 255.168 
L 85.388548 295.488 
L 85.689414 275.328 
L 85.716015 255.168 
L 85.731609 295.488 
L 86.059076 275.328 
L 86.086594 255.168 
L 86.10127 295.488 
L 86.419565 275.328 
L 86.447083 255.168 
L 86.460842 295.488 
L 86.78464 275.328 
L 86.826834 295.488 
L 87.164391 255.168 
L 87.201082 295.488 
L 87.511121 275.328 
L 87.57533 295.488 
L 87.642291 275.328 
L 87.955999 295.488 
L 87.96242 275.328 
L 88.277045 255.168 
L 88.391704 295.488 
L 88.596256 275.328 
L 88.921889 255.168 
L 89.005361 295.488 
L 89.553891 255.168 
L 89.674054 295.488 
L 89.879523 275.328 
L 90.204238 255.168 
L 90.271199 295.488 
L 90.842661 255.168 
L 90.912374 295.488 
L 91.490257 255.168 
L 91.626013 295.488 
L 91.818641 275.328 
L 92.137852 255.168 
L 92.226828 295.488 
L 92.771689 255.168 
L 92.908363 295.488 
L 93.0909 275.328 
L 93.411029 255.168 
L 93.54862 295.488 
L 93.726571 275.328 
L 94.0467 255.168 
L 94.13751 295.488 
L 94.694296 255.168 
L 94.824549 295.488 
L 95.01259 275.328 
L 95.331801 255.168 
L 95.428115 295.488 
L 95.975728 255.168 
L 96.072959 295.488 
L 96.616902 255.168 
L 96.712299 295.488 
L 97.258077 255.168 
L 97.36815 295.488 
L 97.576371 275.328 
L 97.8965 255.168 
L 98.036843 295.488 
L 98.536757 275.328 
L 98.850465 255.168 
L 98.989891 295.488 
L 99.178849 275.328 
L 99.506316 255.168 
L 99.588871 295.488 
L 100.159416 255.168 
L 100.259399 295.488 
L 100.799673 255.168 
L 100.897821 295.488 
L 101.448186 255.168 
L 101.566514 295.488 
L 101.767397 275.328 
L 102.085692 255.168 
L 102.21411 295.488 
L 102.408572 275.328 
L 102.736956 255.168 
L 102.845195 295.488 
L 103.377214 255.168 
L 103.460686 295.488 
L 104.02114 255.168 
L 104.144972 295.488 
L 104.342186 275.328 
L 104.665984 255.168 
L 104.770553 295.488 
L 105.301655 255.168 
L 105.408059 295.488 
L 105.947416 255.168 
L 106.071248 295.488 
L 106.266628 275.328 
L 106.579418 255.168 
L 106.718844 295.488 
L 106.902299 275.328 
L 107.219676 255.168 
L 107.326079 295.488 
L 107.864519 255.168 
L 107.958081 295.488 
L 108.507529 255.168 
L 108.57449 295.488 
L 109.142282 255.168 
L 109.280791 295.488 
L 109.458742 275.328 
L 109.777953 255.168 
L 109.877936 295.488 
L 110.417294 255.168 
L 110.549381 295.488 
L 110.740174 275.328 
L 111.154782 295.488 
L 112.522438 275.328 
L 113.660775 174.528 
L 113.78369 295.488 
L 113.891928 275.328 
L 114.577132 214.848 
L 114.67895 295.488 
L 115.037604 255.168 
L 115.501745 214.848 
L 115.628329 295.488 
L 126.738354 275.328 
L 127.421724 214.848 
L 127.558398 295.488 
L 127.653794 275.328 
L 128.1161 235.008 
L 128.447236 93.888 
L 128.460995 295.488 
L 128.956324 275.328 
L 128.998518 214.848 
L 129.01136 295.488 
L 129.46908 275.328 
L 129.510357 214.848 
L 129.523199 295.488 
L 129.993761 275.328 
L 130.035038 214.848 
L 130.053384 295.488 
L 130.443225 275.328 
L 130.484502 214.848 
L 130.503765 295.488 
L 130.923877 275.328 
L 130.965154 214.848 
L 130.978913 295.488 
L 131.446723 275.328 
L 131.488 214.848 
L 131.502677 295.488 
L 131.920954 275.328 
L 131.962231 214.848 
L 131.976908 295.488 
L 132.429124 275.328 
L 132.470401 214.848 
L 132.48416 295.488 
L 132.955639 275.328 
L 132.996917 214.848 
L 133.010676 295.488 
L 133.474816 275.328 
L 133.515177 214.848 
L 133.529853 295.488 
L 133.963724 275.328 
L 134.005001 214.848 
L 134.01876 295.488 
L 134.493908 275.328 
L 134.535186 214.848 
L 134.548945 295.488 
L 135.064453 275.328 
L 135.096557 235.008 
L 135.118572 295.488 
L 135.574457 275.328 
L 135.637749 295.488 
L 135.67444 275.328 
L 136.13216 235.008 
L 136.208294 295.488 
L 136.588963 255.168 
L 136.821033 235.008 
L 136.910926 295.488 
L 137.282422 255.168 
L 137.74748 214.848 
L 137.866726 295.488 
L 137.975881 275.328 
L 138.656499 214.848 
L 138.795924 295.488 
L 138.8849 275.328 
L 139.571021 214.848 
L 139.682929 295.488 
L 140.030576 255.168 
L 140.263563 235.008 
L 140.549753 295.488 
L 140.950602 255.168 
L 141.651399 194.688 
L 141.813757 295.488 
L 141.880718 275.328 
L 142.570508 214.848 
L 142.713603 295.488 
L 142.799827 275.328 
L 143.48503 214.848 
L 143.554743 295.488 
L 143.951923 255.168 
L 144.405974 214.848 
L 144.512378 295.488 
L 144.862776 255.168 
L 145.328752 214.848 
L 145.452584 295.488 
L 145.557153 275.328 
L 146.245109 214.848 
L 146.361602 295.488 
L 146.479014 275.328 
L 147.17339 214.848 
L 147.279794 295.488 
L 147.622855 255.168 
L 148.075988 214.848 
L 148.231007 295.488 
L 148.311728 275.328 
L 148.999683 214.848 
L 149.117094 295.488 
L 149.229919 275.328 
L 149.925213 214.848 
L 149.98667 295.488 
L 150.38385 255.168 
L 150.846156 214.848 
L 150.977326 295.488 
L 151.079144 275.328 
L 151.775355 214.848 
L 151.844151 295.488 
L 152.229406 255.168 
L 152.683457 214.848 
L 152.745831 295.488 
L 153.371412 235.008 
L 153.603483 214.848 
L 153.740157 295.488 
L 153.832801 275.328 
L 154.522591 214.848 
L 154.646424 295.488 
L 154.75191 275.328 
L 155.207795 255.168 
L 155.670102 214.848 
L 155.780174 295.488 
L 161.599362 275.328 
L 161.669075 174.528 
L 162.086435 154.368 
L 162.127712 93.888 
L 162.142389 295.488 
L 162.625792 275.328 
L 162.66707 214.848 
L 162.681746 295.488 
L 163.177991 275.328 
L 163.219269 214.848 
L 163.233028 295.488 
L 163.651305 275.328 
L 163.693499 214.848 
L 163.707259 295.488 
L 164.132874 275.328 
L 164.174151 214.848 
L 164.18791 295.488 
L 164.631871 275.328 
L 164.659389 235.008 
L 164.686907 295.488 
L 164.801567 275.328 
L 165.170311 255.168 
L 165.188656 235.008 
L 165.225347 295.488 
L 165.279467 275.328 
L 165.676646 255.168 
L 165.736269 235.008 
L 165.741773 295.488 
L 166.193072 255.168 
L 166.260033 295.488 
L 166.652626 255.168 
L 166.881027 235.008 
L 166.988349 295.488 
L 172.610322 275.328 
L 172.834137 255.168 
L 172.889174 174.528 
L 173.370743 154.368 
L 173.41202 93.888 
L 173.425779 295.488 
L 173.95046 275.328 
L 173.991738 214.848 
L 174.005497 295.488 
L 174.469637 275.328 
L 174.510915 214.848 
L 174.524674 295.488 
L 174.961296 275.328 
L 175.002574 214.848 
L 175.01725 295.488 
L 175.468549 275.328 
L 175.509826 214.848 
L 175.524503 295.488 
L 175.963877 275.328 
L 176.004237 214.848 
L 176.018914 295.488 
L 176.443612 275.328 
L 176.476633 235.008 
L 176.499565 295.488 
L 176.965541 255.168 
L 176.985721 235.008 
L 177.015991 295.488 
L 177.4572 255.168 
L 177.521409 295.488 
L 177.668173 275.328 
L 178.054345 295.488 
L 183.399302 275.328 
L 183.614862 255.168 
L 183.683657 154.368 
L 184.158805 134.208 
L 184.199165 73.728 
L 184.213842 295.488 
L 184.650464 275.328 
L 184.690824 214.848 
L 184.705501 295.488 
L 185.186152 275.328 
L 185.22743 214.848 
L 185.241189 295.488 
L 185.730096 275.328 
L 185.757614 235.008 
L 186.265784 214.848 
L 186.293303 194.688 
L 186.321738 235.008 
L 186.401541 275.328 
L 186.471254 255.168 
L 186.473088 295.488 
L 186.791382 275.328 
L 186.855592 295.488 
L 186.863847 275.328 
L 187.187645 255.168 
L 187.220667 295.488 
L 187.505022 275.328 
L 187.607757 295.488 
L 188.149866 255.168 
L 188.243428 295.488 
L 188.790123 255.168 
L 188.911203 295.488 
L 189.118507 275.328 
L 189.441388 255.168 
L 189.549626 295.488 
L 189.758765 275.328 
L 190.080728 255.168 
L 190.139433 295.488 
L 190.716399 255.168 
L 190.810878 295.488 
L 191.351153 255.168 
L 191.435542 295.488 
L 192.000583 255.168 
L 192.097814 295.488 
L 192.638089 255.168 
L 192.734402 295.488 
L 193.274677 255.168 
L 193.38475 295.488 
L 193.597557 275.328 
L 193.92319 255.168 
L 194.014 295.488 
L 194.561613 255.168 
L 194.690031 295.488 
L 194.883576 275.328 
L 195.211043 255.168 
L 195.263327 295.488 
L 195.855887 255.168 
L 195.957704 295.488 
L 196.492475 255.168 
L 196.602548 295.488 
L 196.813521 275.328 
L 197.141905 255.168 
L 197.282248 295.488 
L 197.464786 275.328 
L 197.792253 255.168 
L 197.915167 295.488 
L 198.114216 275.328 
L 198.712279 255.168 
L 205.445072 235.008 
L 205.781711 214.848 
L 205.80923 194.688 
L 205.822989 295.488 
L 206.117434 275.328 
L 206.144952 255.168 
L 206.158711 295.488 
L 206.454073 275.328 
L 206.481592 255.168 
L 206.495351 295.488 
L 206.804472 275.328 
L 206.832908 255.168 
L 206.846667 295.488 
L 207.183306 275.328 
L 207.210825 255.168 
L 207.224584 295.488 
L 207.54563 275.328 
L 207.572231 255.168 
L 207.58599 295.488 
L 207.871262 275.328 
L 207.899698 255.168 
L 207.912539 295.488 
L 208.223495 275.328 
L 208.251014 255.168 
L 208.264773 295.488 
L 208.586736 275.328 
L 208.614254 255.168 
L 208.628013 295.488 
L 208.96557 275.328 
L 209.007765 295.488 
L 209.293037 275.328 
L 209.357246 295.488 
L 211.13951 275.328 
L 211.222065 214.848 
L 211.545863 194.688 
L 211.573381 174.528 
L 211.58714 295.488 
L 211.895344 275.328 
L 211.922862 255.168 
L 211.937539 295.488 
L 212.237487 275.328 
L 212.265006 255.168 
L 212.279682 295.488 
L 212.600728 275.328 
L 212.628246 255.168 
L 212.642923 295.488 
L 212.93003 275.328 
L 212.957548 255.168 
L 212.971307 295.488 
L 213.240068 275.328 
L 213.281346 295.488 
L 213.612482 255.168 
L 213.649173 295.488 
L 213.924355 275.328 
L 213.988564 295.488 
L 214.137162 275.328 
L 214.359143 295.488 
L 214.458208 275.328 
L 214.783841 255.168 
L 214.881072 295.488 
L 215.102135 275.328 
L 215.71304 255.168 
L 218.047503 235.008 
L 218.358459 214.848 
L 218.385977 194.688 
L 218.399736 295.488 
L 218.704271 275.328 
L 218.731789 255.168 
L 218.745548 295.488 
L 219.081271 275.328 
L 219.108789 255.168 
L 219.122548 295.488 
L 219.441759 275.328 
L 219.469278 255.168 
L 219.483954 295.488 
L 219.775647 275.328 
L 219.804083 255.168 
L 219.817842 295.488 
L 220.14164 275.328 
L 220.169158 255.168 
L 220.182917 295.488 
L 220.493873 275.328 
L 220.525978 255.168 
L 220.53515 295.488 
L 237.074522 275.328 
L 237.708359 235.008 
L 237.846867 295.488 
L 238.425667 235.008 
L 238.444013 295.488 
L 238.474283 235.008 
L 238.769645 214.848 
L 238.802667 154.368 
L 238.832937 275.328 
L 238.855869 255.168 
L 238.86229 295.488 
L 238.877884 255.168 
L 239.369543 235.008 
L 239.397978 174.528 
L 239.428248 295.488 
L 239.885968 275.328 
L 239.919907 214.848 
L 239.94926 295.488 
L 240.373041 275.328 
L 240.406063 214.848 
L 240.430829 295.488 
L 240.887631 275.328 
L 240.919736 214.848 
L 240.944503 295.488 
L 241.40314 275.328 
L 241.436162 214.848 
L 241.460928 295.488 
L 241.909475 275.328 
L 241.94158 214.848 
L 241.967263 295.488 
L 242.388292 275.328 
L 242.421314 214.848 
L 242.446998 295.488 
L 242.855185 275.328 
L 242.887289 214.848 
L 242.912973 295.488 
L 243.369776 275.328 
L 243.400963 214.848 
L 243.427564 295.488 
L 243.890787 275.328 
L 243.922892 214.848 
L 243.949493 295.488 
L 244.374191 275.328 
L 244.427393 295.488 
L 253.317615 275.328 
L 254.036758 194.688 
L 254.040427 295.488 
L 254.760487 214.848 
L 254.812772 295.488 
L 254.921928 255.168 
L 254.966874 174.528 
L 255.44936 154.368 
L 255.481465 93.888 
L 255.507149 295.488 
L 255.992387 275.328 
L 256.025408 214.848 
L 256.051092 295.488 
L 256.464783 275.328 
L 256.493218 214.848 
L 256.522571 295.488 
L 256.972953 275.328 
L 257.005975 214.848 
L 257.035327 295.488 
L 257.473785 275.328 
L 257.505889 214.848 
L 257.536159 295.488 
L 257.950767 275.328 
L 257.984706 214.848 
L 258.009473 295.488 
L 258.467193 275.328 
L 258.500214 214.848 
L 258.524981 295.488 
L 258.945092 275.328 
L 258.978114 214.848 
L 259.002881 295.488 
L 259.44409 275.328 
L 259.476194 214.848 
L 259.502795 295.488 
L 259.931162 275.328 
L 259.963267 214.848 
L 259.989868 295.488 
L 260.405393 275.328 
L 260.437498 214.848 
L 260.464099 295.488 
L 260.891548 275.328 
L 260.925488 214.848 
L 260.950254 295.488 
L 261.443748 275.328 
L 261.477687 214.848 
L 261.501536 295.488 
L 261.956504 275.328 
L 261.989526 214.848 
L 262.014292 295.488 
L 262.416975 275.328 
L 262.449997 214.848 
L 262.474764 295.488 
L 262.908634 275.328 
L 262.941656 214.848 
L 262.96734 295.488 
L 263.398459 275.328 
L 263.430564 214.848 
L 263.457164 295.488 
L 263.950658 275.328 
L 263.982763 214.848 
L 264.009364 295.488 
L 264.455159 275.328 
L 264.488181 214.848 
L 264.513864 295.488 
L 264.938562 275.328 
L 264.972502 214.848 
L 264.997268 295.488 
L 265.415545 275.328 
L 265.448567 214.848 
L 265.473333 295.488 
L 265.926467 275.328 
L 265.958571 214.848 
L 265.983338 295.488 
L 266.405284 275.328 
L 266.442892 214.848 
L 266.463989 295.488 
L 266.906116 275.328 
L 266.931799 235.008 
L 266.963904 295.488 
L 267.380346 255.168 
L 267.421624 235.008 
L 267.433548 295.488 
L 267.872005 255.168 
L 267.936215 295.488 
L 267.965567 275.328 
L 268.332477 235.008 
L 268.366416 295.488 
L 268.882842 235.008 
L 268.946134 295.488 
L 269.255255 255.168 
L 269.437793 235.008 
L 269.596481 295.488 
L 269.617578 275.328 
L 275.30101 255.168 
L 275.848622 194.688 
L 275.868802 295.488 
L 276.578773 214.848 
L 276.646651 295.488 
L 276.775069 255.168 
L 277.175001 235.008 
L 277.273149 93.888 
L 277.303419 295.488 
L 277.763891 275.328 
L 277.795996 214.848 
L 277.821679 295.488 
L 278.261054 275.328 
L 278.294076 214.848 
L 278.319759 295.488 
L 278.793073 275.328 
L 278.826095 214.848 
L 278.851778 295.488 
L 279.285649 275.328 
L 279.318671 214.848 
L 279.344355 295.488 
L 279.784646 275.328 
L 279.817668 214.848 
L 279.842434 295.488 
L 280.312079 275.328 
L 280.345101 214.848 
L 280.369867 295.488 
L 280.787227 275.328 
L 280.820249 214.848 
L 280.845015 295.488 
L 281.25412 275.328 
L 281.287141 214.848 
L 281.311908 295.488 
L 281.785221 275.328 
L 281.818243 214.848 
L 281.84301 295.488 
L 282.285136 275.328 
L 282.31724 214.848 
L 282.342924 295.488 
L 282.808899 275.328 
L 282.829997 235.008 
L 282.866688 295.488 
L 282.963001 275.328 
L 283.338167 255.168 
L 283.364768 214.848 
L 283.395955 295.488 
L 283.530794 275.328 
L 283.865599 255.168 
L 283.896787 235.008 
L 283.919719 295.488 
L 284.260945 255.168 
L 284.416881 295.488 
L 284.442565 275.328 
L 284.805805 235.008 
L 284.885608 295.488 
L 285.170881 255.168 
L 285.359839 235.008 
L 285.378185 295.488 
L 285.906535 235.008 
L 286.079899 295.488 
L 286.091824 275.328 
L 286.644023 214.848 
L 286.815553 295.488 
L 286.825643 275.328 
L 287.559463 194.688 
L 287.586981 295.488 
L 288.296034 214.848 
L 288.335477 295.488 
L 288.843647 235.008 
L 289.029853 214.848 
L 289.100484 295.488 
L 289.401349 255.168 
L 289.763673 214.848 
L 289.809537 295.488 
L 290.319541 235.008 
L 290.502996 214.848 
L 290.503913 295.488 
L 291.237733 214.848 
L 291.29919 295.488 
L 291.602808 255.168 
L 291.967883 214.848 
L 292.011912 295.488 
L 292.524668 235.008 
L 292.75307 295.488 
L 327.583808 275.328 
L 328.307537 194.688 
L 328.324965 295.488 
L 329.045943 214.848 
L 329.074378 295.488 
L 329.608232 235.008 
L 329.758665 295.488 
L 329.788018 275.328 
L 330.52092 194.688 
L 330.538348 295.488 
L 331.26116 214.848 
L 331.263912 295.488 
L 331.806021 235.008 
L 331.983055 295.488 
L 331.989476 275.328 
L 332.540758 214.848 
L 332.738889 255.168 
L 333.999224 235.008 
L 334.154243 295.488 
L 334.323021 275.328 
L 334.640398 255.168 
L 334.740381 295.488 
L 335.281573 255.168 
L 335.398067 295.488 
L 335.929169 255.168 
L 336.012641 295.488 
L 336.568509 255.168 
L 336.631801 295.488 
L 337.215187 275.328 
L 337.54082 255.168 
L 337.643554 295.488 
L 338.176491 255.168 
L 338.310413 295.488 
L 338.492033 275.328 
L 338.808493 255.168 
L 338.899303 295.488 
L 339.444164 255.168 
L 339.536808 295.488 
L 340.080752 255.168 
L 340.170645 295.488 
L 340.726513 255.168 
L 340.858601 295.488 
L 341.04389 275.328 
L 341.369522 255.168 
L 341.487851 295.488 
L 341.69332 275.328 
L 342.014366 255.168 
L 342.111597 295.488 
L 342.343668 275.328 
L 342.78029 295.488 
L 342.990346 275.328 
L 343.632438 235.008 
L 343.689309 295.488 
L 344.280951 255.168 
L 344.389189 295.488 
L 344.920291 255.168 
L 345.048709 295.488 
L 345.239502 275.328 
L 345.556879 255.168 
L 345.646772 295.488 
L 346.197137 255.168 
L 346.324638 295.488 
L 346.514514 275.328 
L 346.838311 255.168 
L 346.941046 295.488 
L 347.472148 255.168 
L 347.59598 295.488 
L 347.791359 275.328 
L 348.210554 295.488 
L 348.759084 255.168 
L 349.079212 235.008 
L 349.195706 295.488 
L 349.393837 275.328 
L 349.708463 255.168 
L 349.807528 295.488 
L 350.345968 255.168 
L 350.48998 295.488 
L 350.667931 275.328 
L 350.990812 255.168 
L 351.077953 295.488 
L 351.631069 255.168 
L 351.706286 295.488 
L 352.279582 255.168 
L 352.376813 295.488 
L 352.922591 255.168 
L 353.018905 295.488 
L 353.568353 255.168 
L 353.646321 295.488 
L 353.890316 275.328 
L 354.301255 295.488 
L 359.765457 275.328 
L 359.848012 214.848 
L 360.153464 194.688 
L 360.180983 174.528 
L 360.194742 295.488 
L 360.503863 275.328 
L 360.531381 255.168 
L 360.545141 295.488 
L 360.868021 275.328 
L 360.895539 255.168 
L 360.909298 295.488 
L 361.231262 275.328 
L 361.25878 255.168 
L 361.273456 295.488 
L 361.603675 275.328 
L 361.634862 255.168 
L 361.64587 295.488 
L 361.957743 275.328 
L 361.994434 295.488 
L 362.298052 275.328 
L 362.363178 295.488 
L 362.560392 275.328 
L 362.735591 295.488 
L 362.879604 275.328 
L 363.196063 255.168 
L 363.274031 295.488 
L 363.845493 255.168 
L 363.947311 295.488 
L 364.488503 255.168 
L 364.572892 295.488 
L 365.136098 255.168 
L 365.240667 295.488 
L 365.451641 275.328 
L 365.898353 295.488 
L 366.086394 275.328 
L 366.728486 235.008 
L 366.811958 295.488 
L 367.362323 255.168 
L 367.477899 295.488 
L 368.007167 255.168 
L 368.12733 295.488 
L 368.321792 275.328 
L 368.645589 255.168 
L 368.733648 295.488 
L 369.28493 255.168 
L 369.403258 295.488 
L 369.606893 275.328 
L 369.928856 255.168 
L 370.02517 295.488 
L 370.572783 255.168 
L 370.69478 295.488 
L 370.892911 275.328 
L 371.335955 295.488 
L 371.978047 275.328 
L 373.132895 174.528 
L 373.260396 295.488 
L 373.361296 275.328 
L 374.0465 214.848 
L 374.184091 295.488 
L 374.278571 275.328 
L 374.971113 214.848 
L 375.086689 295.488 
L 375.194928 275.328 
L 375.87738 214.848 
L 375.957183 295.488 
L 376.339686 255.168 
L 376.796488 214.848 
L 376.914817 295.488 
L 377.021221 275.328 
L 377.709176 214.848 
L 377.832091 295.488 
L 377.939412 275.328 
L 378.633789 214.848 
L 378.757621 295.488 
L 378.861273 275.328 
L 379.551063 214.848 
L 379.65288 295.488 
L 380.017038 255.168 
L 380.625191 295.488 
L 380.710498 275.328 
L 381.397536 214.848 
L 381.983674 295.488 
L 387.249746 275.328 
L 387.345142 134.208 
L 387.774427 114.048 
L 387.814787 53.568 
L 387.829463 295.488 
L 388.283514 275.328 
L 388.324791 214.848 
L 388.33855 295.488 
L 388.791684 275.328 
L 388.832961 214.848 
L 388.84672 295.488 
L 389.318199 275.328 
L 389.359477 214.848 
L 389.373236 295.488 
L 389.868564 275.328 
L 389.910758 214.848 
L 389.924518 295.488 
L 390.395079 275.328 
L 390.428101 235.008 
L 390.450116 295.488 
L 390.792259 275.328 
L 390.88949 255.168 
L 390.93994 295.488 
L 391.039006 275.328 
L 391.265573 255.168 
L 391.496726 275.328 
L 391.960866 235.008 
L 392.095706 295.488 
L 392.191102 275.328 
L 392.880892 214.848 
L 392.999221 295.488 
L 393.109294 275.328 
L 393.788994 214.848 
L 393.899984 295.488 
L 394.018313 275.328 
L 394.710855 214.848 
L 394.770477 295.488 
L 395.163988 255.168 
L 395.615287 214.848 
L 395.751961 295.488 
L 395.842771 275.328 
L 396.535313 214.848 
L 396.616951 295.488 
L 396.997619 255.168 
L 397.448001 214.848 
L 397.553488 295.488 
L 397.905721 255.168 
L 398.487273 295.488 
L 398.487273 295.488 
" clip-path="url(#p990cbf8ae2)" style="fill: none; stroke: #1f77b4; stroke-width: 1.5; stroke-linecap: square"/>
   </g>
   <g id="patch_3">
    <path d="M 57.6 307.584 
L 57.6 41.472 
" style="fill: none; stroke: #000000; stroke-width: 0.8; stroke-linejoin: miter; stroke-linecap: square"/>
   </g>
   <g id="patch_4">
    <path d="M 414.72 307.584 
L 414.72 41.472 
" style="fill: none; stroke: #000000; stroke-width: 0.8; stroke-linejoin: miter; stroke-linecap: square"/>
   </g>
   <g id="patch_5">
    <path d="M 57.6 307.584 
L 414.72 307.584 
" style="fill: none; stroke: #000000; stroke-width: 0.8; stroke-linejoin: miter; stroke-linecap: square"/>
   </g>
   <g id="patch_6">
    <path d="M 57.6 41.472 
L 414.72 41.472 
" style="fill: none; stroke: #000000; stroke-width: 0.8; stroke-linejoin: miter; stroke-linecap: square"/>
   </g>
   <g id="text_17">
    <!-- Queue size (y-axis) between S6 and sensors that follow at a time (x-axis). -->
    <g transform="translate(14.282813 35.472) scale(0.12 -0.12)">
     <defs>
      <path id="DejaVuSans-51" d="M 2522 4238 
Q 1834 4238 1429 3725 
Q 1025 3213 1025 2328 
Q 1025 1447 1429 934 
Q 1834 422 2522 422 
Q 3209 422 3611 934 
Q 4013 1447 4013 2328 
Q 4013 3213 3611 3725 
Q 3209 4238 2522 4238 
z
M 3406 84 
L 4238 -825 
L 3475 -825 
L 2784 -78 
Q 2681 -84 2626 -87 
Q 2572 -91 2522 -91 
Q 1538 -91 948 567 
Q 359 1225 359 2328 
Q 359 3434 948 4092 
Q 1538 4750 2522 4750 
Q 3503 4750 4090 4092 
Q 4678 3434 4678 2328 
Q 4678 1516 4351 937 
Q 4025 359 3406 84 
z
" transform="scale(0.015625)"/>
      <path id="DejaVuSans-75" d="M 544 1381 
L 544 3500 
L 1119 3500 
L 1119 1403 
Q 1119 906 1312 657 
Q 1506 409 1894 409 
Q 2359 409 2629 706 
Q 2900 1003 2900 1516 
L 2900 3500 
L 3475 3500 
L 3475 0 
L 2900 0 
L 2900 538 
Q 2691 219 2414 64 
Q 2138 -91 1772 -91 
Q 1169 -91 856 284 
Q 544 659 544 1381 
z
M 1991 3584 
L 1991 3584 
z
" transform="scale(0.015625)"/>
      <path id="DejaVuSans-20" transform="scale(0.015625)"/>
      <path id="DejaVuSans-73" d="M 2834 3397 
L 2834 2853 
Q 2591 2978 2328 3040 
Q 2066 3103 1784 3103 
Q 1356 3103 1142 2972 
Q 928 2841 928 2578 
Q 928 2378 1081 2264 
Q 1234 2150 1697 2047 
L 1894 2003 
Q 2506 1872 2764 1633 
Q 3022 1394 3022 966 
Q 3022 478 2636 193 
Q 2250 -91 1575 -91 
Q 1294 -91 989 -36 
Q 684 19 347 128 
L 347 722 
Q 666 556 975 473 
Q 1284 391 1588 391 
Q 1994 391 2212 530 
Q 2431 669 2431 922 
Q 2431 1156 2273 1281 
Q 2116 1406 1581 1522 
L 1381 1569 
Q 847 1681 609 1914 
Q 372 2147 372 2553 
Q 372 3047 722 3315 
Q 1072 3584 1716 3584 
Q 2034 3584 2315 3537 
Q 2597 3491 2834 3397 
z
" transform="scale(0.015625)"/>
      <path id="DejaVuSans-69" d="M 603 3500 
L 1178 3500 
L 1178 0 
L 603 0 
L 603 3500 
z
M 603 4863 
L 1178 4863 
L 1178 4134 
L 603 4134 
L 603 4863 
z
" transform="scale(0.015625)"/>
      <path id="DejaVuSans-7a" d="M 353 3500 
L 3084 3500 
L 3084 2975 
L 922 459 
L 3084 459 
L 3084 0 
L 275 0 
L 275 525 
L 2438 3041 
L 353 3041 
L 353 3500 
z
" transform="scale(0.015625)"/>
      <path id="DejaVuSans-28" d="M 1984 4856 
Q 1566 4138 1362 3434 
Q 1159 2731 1159 2009 
Q 1159 1288 1364 580 
Q 1569 -128 1984 -844 
L 1484 -844 
Q 1016 -109 783 600 
Q 550 1309 550 2009 
Q 550 2706 781 3412 
Q 1013 4119 1484 4856 
L 1984 4856 
z
" transform="scale(0.015625)"/>
      <path id="DejaVuSans-79" d="M 2059 -325 
Q 1816 -950 1584 -1140 
Q 1353 -1331 966 -1331 
L 506 -1331 
L 506 -850 
L 844 -850 
Q 1081 -850 1212 -737 
Q 1344 -625 1503 -206 
L 1606 56 
L 191 3500 
L 800 3500 
L 1894 763 
L 2988 3500 
L 3597 3500 
L 2059 -325 
z
" transform="scale(0.015625)"/>
      <path id="DejaVuSans-2d" d="M 313 2009 
L 1997 2009 
L 1997 1497 
L 313 1497 
L 313 2009 
z
" transform="scale(0.015625)"/>
      <path id="DejaVuSans-61" d="M 2194 1759 
Q 1497 1759 1228 1600 
Q 959 1441 959 1056 
Q 959 750 1161 570 
Q 1363 391 1709 391 
Q 2188 391 2477 730 
Q 2766 1069 2766 1631 
L 2766 1759 
L 2194 1759 
z
M 3341 1997 
L 3341 0 
L 2766 0 
L 2766 531 
Q 2569 213 2275 61 
Q 1981 -91 1556 -91 
Q 1019 -91 701 211 
Q 384 513 384 1019 
Q 384 1609 779 1909 
Q 1175 2209 1959 2209 
L 2766 2209 
L 2766 2266 
Q 2766 2663 2505 2880 
Q 2244 3097 1772 3097 
Q 1472 3097 1187 3025 
Q 903 2953 641 2809 
L 641 3341 
Q 956 3463 1253 3523 
Q 1550 3584 1831 3584 
Q 2591 3584 2966 3190 
Q 3341 2797 3341 1997 
z
" transform="scale(0.015625)"/>
      <path id="DejaVuSans-78" d="M 3513 3500 
L 2247 1797 
L 3578 0 
L 2900 0 
L 1881 1375 
L 863 0 
L 184 0 
L 1544 1831 
L 300 3500 
L 978 3500 
L 1906 2253 
L 2834 3500 
L 3513 3500 
z
" transform="scale(0.015625)"/>
      <path id="DejaVuSans-29" d="M 513 4856 
L 1013 4856 
Q 1481 4119 1714 3412 
Q 1947 2706 1947 2009 
Q 1947 1309 1714 600 
Q 1481 -109 1013 -844 
L 513 -844 
Q 928 -128 1133 580 
Q 1338 1288 1338 2009 
Q 1338 2731 1133 3434 
Q 928 4138 513 4856 
z
" transform="scale(0.015625)"/>
      <path id="DejaVuSans-62" d="M 3116 1747 
Q 3116 2381 2855 2742 
Q 2594 3103 2138 3103 
Q 1681 3103 1420 2742 
Q 1159 2381 1159 1747 
Q 1159 1113 1420 752 
Q 1681 391 2138 391 
Q 2594 391 2855 752 
Q 3116 1113 3116 1747 
z
M 1159 2969 
Q 1341 3281 1617 3432 
Q 1894 3584 2278 3584 
Q 2916 3584 3314 3078 
Q 3713 2572 3713 1747 
Q 3713 922 3314 415 
Q 2916 -91 2278 -91 
Q 1894 -91 1617 61 
Q 1341 213 1159 525 
L 1159 0 
L 581 0 
L 581 4863 
L 1159 4863 
L 1159 2969 
z
" transform="scale(0.015625)"/>
      <path id="DejaVuSans-74" d="M 1172 4494 
L 1172 3500 
L 2356 3500 
L 2356 3053 
L 1172 3053 
L 1172 1153 
Q 1172 725 1289 603 
Q 1406 481 1766 481 
L 2356 481 
L 2356 0 
L 1766 0 
Q 1100 0 847 248 
Q 594 497 594 1153 
L 594 3053 
L 172 3053 
L 172 3500 
L 594 3500 
L 594 4494 
L 1172 4494 
z
" transform="scale(0.015625)"/>
      <path id="DejaVuSans-77" d="M 269 3500 
L 844 3500 
L 1563 769 
L 2278 3500 
L 2956 3500 
L 3675 769 
L 4391 3500 
L 4966 3500 
L 4050 0 
L 3372 0 
L 2619 2869 
L 1863 0 
L 1184 0 
L 269 3500 
z
" transform="scale(0.015625)"/>
      <path id="DejaVuSans-6e" d="M 3513 2113 
L 3513 0 
L 2938 0 
L 2938 2094 
Q 2938 2591 2744 2837 
Q 2550 3084 2163 3084 
Q 1697 3084 1428 2787 
Q 1159 2491 1159 1978 
L 1159 0 
L 581 0 
L 581 3500 
L 1159 3500 
L 1159 2956 
Q 1366 3272 1645 3428 
Q 1925 3584 2291 3584 
Q 2894 3584 3203 3211 
Q 3513 2838 3513 2113 
z
" transform="scale(0.015625)"/>
      <path id="DejaVuSans-53" d="M 3425 4513 
L 3425 3897 
Q 3066 4069 2747 4153 
Q 2428 4238 2131 4238 
Q 1616 4238 1336 4038 
Q 1056 3838 1056 3469 
Q 1056 3159 1242 3001 
Q 1428 2844 1947 2747 
L 2328 2669 
Q 3034 2534 3370 2195 
Q 3706 1856 3706 1288 
Q 3706 609 3251 259 
Q 2797 -91 1919 -91 
Q 1588 -91 1214 -16 
Q 841 59 441 206 
L 441 856 
Q 825 641 1194 531 
Q 1563 422 1919 422 
Q 2459 422 2753 634 
Q 3047 847 3047 1241 
Q 3047 1584 2836 1778 
Q 2625 1972 2144 2069 
L 1759 2144 
Q 1053 2284 737 2584 
Q 422 2884 422 3419 
Q 422 4038 858 4394 
Q 1294 4750 2059 4750 
Q 2388 4750 2728 4690 
Q 3069 4631 3425 4513 
z
" transform="scale(0.015625)"/>
      <path id="DejaVuSans-64" d="M 2906 2969 
L 2906 4863 
L 3481 4863 
L 3481 0 
L 2906 0 
L 2906 525 
Q 2725 213 2448 61 
Q 2172 -91 1784 -91 
Q 1150 -91 751 415 
Q 353 922 353 1747 
Q 353 2572 751 3078 
Q 1150 3584 1784 3584 
Q 2172 3584 2448 3432 
Q 2725 3281 2906 2969 
z
M 947 1747 
Q 947 1113 1208 752 
Q 1469 391 1925 391 
Q 2381 391 2643 752 
Q 2906 1113 2906 1747 
Q 2906 2381 2643 2742 
Q 2381 3103 1925 3103 
Q 1469 3103 1208 2742 
Q 947 2381 947 1747 
z
" transform="scale(0.015625)"/>
      <path id="DejaVuSans-6f" d="M 1959 3097 
Q 1497 3097 1228 2736 
Q 959 2375 959 1747 
Q 959 1119 1226 758 
Q 1494 397 1959 397 
Q 2419 397 2687 759 
Q 2956 1122 2956 1747 
Q 2956 2369 2687 2733 
Q 2419 3097 1959 3097 
z
M 1959 3584 
Q 2709 3584 3137 3096 
Q 3566 2609 3566 1747 
Q 3566 888 3137 398 
Q 2709 -91 1959 -91 
Q 1206 -91 779 398 
Q 353 888 353 1747 
Q 353 2609 779 3096 
Q 1206 3584 1959 3584 
z
" transform="scale(0.015625)"/>
      <path id="DejaVuSans-72" d="M 2631 2963 
Q 2534 3019 2420 3045 
Q 2306 3072 2169 3072 
Q 1681 3072 1420 2755 
Q 1159 2438 1159 1844 
L 1159 0 
L 581 0 
L 581 3500 
L 1159 3500 
L 1159 2956 
Q 1341 3275 1631 3429 
Q 1922 3584 2338 3584 
Q 2397 3584 2469 3576 
Q 2541 3569 2628 3553 
L 2631 2963 
z
" transform="scale(0.015625)"/>
      <path id="DejaVuSans-68" d="M 3513 2113 
L 3513 0 
L 2938 0 
L 2938 2094 
Q 2938 2591 2744 2837 
Q 2550 3084 2163 3084 
Q 1697 3084 1428 2787 
Q 1159 2491 1159 1978 
L 1159 0 
L 581 0 
L 581 4863 
L 1159 4863 
L 1159 2956 
Q 1366 3272 1645 3428 
Q 1925 3584 2291 3584 
Q 2894 3584 3203 3211 
Q 3513 2838 3513 2113 
z
" transform="scale(0.015625)"/>
      <path id="DejaVuSans-66" d="M 2375 4863 
L 2375 4384 
L 1825 4384 
Q 1516 4384 1395 4259 
Q 1275 4134 1275 3809 
L 1275 3500 
L 2222 3500 
L 2222 3053 
L 1275 3053 
L 1275 0 
L 697 0 
L 697 3053 
L 147 3053 
L 147 3500 
L 697 3500 
L 697 3744 
Q 697 4328 969 4595 
Q 1241 4863 1831 4863 
L 2375 4863 
z
" transform="scale(0.015625)"/>
      <path id="DejaVuSans-6c" d="M 603 4863 
L 1178 4863 
L 1178 0 
L 603 0 
L 603 4863 
z
" transform="scale(0.015625)"/>
      <path id="DejaVuSans-6d" d="M 3328 2828 
Q 3544 3216 3844 3400 
Q 4144 3584 4550 3584 
Q 5097 3584 5394 3201 
Q 5691 2819 5691 2113 
L 5691 0 
L 5113 0 
L 5113 2094 
Q 5113 2597 4934 2840 
Q 4756 3084 4391 3084 
Q 3944 3084 3684 2787 
Q 3425 2491 3425 1978 
L 3425 0 
L 2847 0 
L 2847 2094 
Q 2847 2600 2669 2842 
Q 2491 3084 2119 3084 
Q 1678 3084 1418 2786 
Q 1159 2488 1159 1978 
L 1159 0 
L 581 0 
L 581 3500 
L 1159 3500 
L 1159 2956 
Q 1356 3278 1631 3431 
Q 1906 3584 2284 3584 
Q 2666 3584 2933 3390 
Q 3200 3197 3328 2828 
z
" transform="scale(0.015625)"/>
     </defs>
     <use xlink:href="#DejaVuSans-51"/>
     <use xlink:href="#DejaVuSans-75" x="78.710938"/>
     <use xlink:href="#DejaVuSans-65" x="142.089844"/>
     <use xlink:href="#DejaVuSans-75" x="203.613281"/>
     <use xlink:href="#DejaVuSans-65" x="266.992188"/>
     <use xlink:href="#DejaVuSans-20" x="328.515625"/>
     <use xlink:href="#DejaVuSans-73" x="360.302734"/>
     <use xlink:href="#DejaVuSans-69" x="412.402344"/>
     <use xlink:href="#DejaVuSans-7a" x="440.185547"/>
     <use xlink:href="#DejaVuSans-65" x="492.675781"/>
     <use xlink:href="#DejaVuSans-20" x="554.199219"/>
     <use xlink:href="#DejaVuSans-28" x="585.986328"/>
     <use xlink:href="#DejaVuSans-79" x="625"/>
     <use xlink:href="#DejaVuSans-2d" x="682.429688"/>
     <use xlink:href="#DejaVuSans-61" x="718.513672"/>
     <use xlink:href="#DejaVuSans-78" x="779.792969"/>
     <use xlink:href="#DejaVuSans-69" x="838.972656"/>
     <use xlink:href="#DejaVuSans-73" x="866.755859"/>
     <use xlink:href="#DejaVuSans-29" x="918.855469"/>
     <use xlink:href="#DejaVuSans-20" x="957.869141"/>
     <use xlink:href="#DejaVuSans-62" x="989.65625"/>
     <use xlink:href="#DejaVuSans-65" x="1053.132812"/>
     <use xlink:href="#DejaVuSans-74" x="1114.65625"/>
     <use xlink:href="#DejaVuSans-77" x="1153.865234"/>
     <use xlink:href="#DejaVuSans-65" x="1235.652344"/>
     <use xlink:href="#DejaVuSans-65" x="1297.175781"/>
     <use xlink:href="#DejaVuSans-6e" x="1358.699219"/>
     <use xlink:href="#DejaVuSans-20" x="1422.078125"/>
     <use xlink:href="#DejaVuSans-53" x="1453.865234"/>
     <use xlink:href="#DejaVuSans-36" x="1517.341797"/>
     <use xlink:href="#DejaVuSans-20" x="1580.964844"/>
     <use xlink:href="#DejaVuSans-61" x="1612.751953"/>
     <use xlink:href="#DejaVuSans-6e" x="1674.03125"/>
     <use xlink:href="#DejaVuSans-64" x="1737.410156"/>
     <use xlink:href="#DejaVuSans-20" x="1800.886719"/>
     <use xlink:href="#DejaVuSans-73" x="1832.673828"/>
     <use xlink:href="#DejaVuSans-65" x="1884.773438"/>
     <use xlink:href="#DejaVuSans-6e" x="1946.296875"/>
     <use xlink:href="#DejaVuSans-73" x="2009.675781"/>
     <use xlink:href="#DejaVuSans-6f" x="2061.775391"/>
     <use xlink:href="#DejaVuSans-72" x="2122.957031"/>
     <use xlink:href="#DejaVuSans-73" x="2164.070312"/>
     <use xlink:href="#DejaVuSans-20" x="2216.169922"/>
     <use xlink:href="#DejaVuSans-74" x="2247.957031"/>
     <use xlink:href="#DejaVuSans-68" x="2287.166016"/>
     <use xlink:href="#DejaVuSans-61" x="2350.544922"/>
     <use xlink:href="#DejaVuSans-74" x="2411.824219"/>
     <use xlink:href="#DejaVuSans-20" x="2451.033203"/>
     <use xlink:href="#DejaVuSans-66" x="2482.820312"/>
     <use xlink:href="#DejaVuSans-6f" x="2518.025391"/>
     <use xlink:href="#DejaVuSans-6c" x="2579.207031"/>
     <use xlink:href="#DejaVuSans-6c" x="2606.990234"/>
     <use xlink:href="#DejaVuSans-6f" x="2634.773438"/>
     <use xlink:href="#DejaVuSans-77" x="2695.955078"/>
     <use xlink:href="#DejaVuSans-20" x="2777.742188"/>
     <use xlink:href="#DejaVuSans-61" x="2809.529297"/>
     <use xlink:href="#DejaVuSans-74" x="2870.808594"/>
     <use xlink:href="#DejaVuSans-20" x="2910.017578"/>
     <use xlink:href="#DejaVuSans-61" x="2941.804688"/>
     <use xlink:href="#DejaVuSans-20" x="3003.083984"/>
     <use xlink:href="#DejaVuSans-74" x="3034.871094"/>
     <use xlink:href="#DejaVuSans-69" x="3074.080078"/>
     <use xlink:href="#DejaVuSans-6d" x="3101.863281"/>
     <use xlink:href="#DejaVuSans-65" x="3199.275391"/>
     <use xlink:href="#DejaVuSans-20" x="3260.798828"/>
     <use xlink:href="#DejaVuSans-28" x="3292.585938"/>
     <use xlink:href="#DejaVuSans-78" x="3331.599609"/>
     <use xlink:href="#DejaVuSans-2d" x="3390.779297"/>
     <use xlink:href="#DejaVuSans-61" x="3426.863281"/>
     <use xlink:href="#DejaVuSans-78" x="3488.142578"/>
     <use xlink:href="#DejaVuSans-69" x="3547.322266"/>
     <use xlink:href="#DejaVuSans-73" x="3575.105469"/>
     <use xlink:href="#DejaVuSans-29" x="3627.205078"/>
     <use xlink:href="#DejaVuSans-2e" x="3666.21875"/>
    </g>
   </g>
  </g>
 </g>
 <defs>
  <clipPath id="p990cbf8ae2">
   <rect x="57.6" y="41.472" width="357.12" height="266.112"/>
  </clipPath>
 </defs>
</svg>
