<?xml version="1.0" encoding="utf-8" standalone="no"?>
<!DOCTYPE svg PUBLIC "-//W3C//DTD SVG 1.1//EN"
  "http://www.w3.org/Graphics/SVG/1.1/DTD/svg11.dtd">
<svg xmlns:xlink="http://www.w3.org/1999/xlink" width="460.8pt" height="345.6pt" viewBox="0 0 460.8 345.6" xmlns="http://www.w3.org/2000/svg" version="1.1">
 <metadata>
  <rdf:RDF xmlns:dc="http://purl.org/dc/elements/1.1/" xmlns:cc="http://creativecommons.org/ns#" xmlns:rdf="http://www.w3.org/1999/02/22-rdf-syntax-ns#">
   <cc:Work>
    <dc:type rdf:resource="http://purl.org/dc/dcmitype/StillImage"/>
    <dc:date>2024-03-08T12:40:50.396117</dc:date>
    <dc:format>image/svg+xml</dc:format>
    <dc:creator>
     <cc:Agent>
      <dc:title>Matplotlib v3.8.2, https://matplotlib.org/</dc:title>
     </cc:Agent>
    </dc:creator>
   </cc:Work>
  </rdf:RDF>
 </metadata>
 <defs>
  <style type="text/css">*{stroke-linejoin: round; stroke-linecap: butt}</style>
 </defs>
 <g id="figure_1">
  <g id="patch_1">
   <path d="M 0 345.6 
L 460.8 345.6 
L 460.8 0 
L 0 0 
z
" style="fill: #ffffff"/>
  </g>
  <g id="axes_1">
   <g id="patch_2">
    <path d="M 57.6 307.584 
L 414.72 307.584 
L 414.72 41.472 
L 57.6 41.472 
z
" style="fill: #ffffff"/>
   </g>
   <g id="matplotlib.axis_1">
    <g id="xtick_1">
     <g id="line2d_1">
      <defs>
       <path id="m0173224a57" d="M 0 0 
L 0 3.5 
" style="stroke: #000000; stroke-width: 0.8"/>
      </defs>
      <g>
       <use xlink:href="#m0173224a57" x="70.698519" y="307.584" style="stroke: #000000; stroke-width: 0.8"/>
      </g>
     </g>
     <g id="text_1">
      <!-- 0.0 -->
      <g transform="translate(62.746957 322.182437) scale(0.1 -0.1)">
       <defs>
        <path id="DejaVuSans-30" d="M 2034 4250 
Q 1547 4250 1301 3770 
Q 1056 3291 1056 2328 
Q 1056 1369 1301 889 
Q 1547 409 2034 409 
Q 2525 409 2770 889 
Q 3016 1369 3016 2328 
Q 3016 3291 2770 3770 
Q 2525 4250 2034 4250 
z
M 2034 4750 
Q 2819 4750 3233 4129 
Q 3647 3509 3647 2328 
Q 3647 1150 3233 529 
Q 2819 -91 2034 -91 
Q 1250 -91 836 529 
Q 422 1150 422 2328 
Q 422 3509 836 4129 
Q 1250 4750 2034 4750 
z
" transform="scale(0.015625)"/>
        <path id="DejaVuSans-2e" d="M 684 794 
L 1344 794 
L 1344 0 
L 684 0 
L 684 794 
z
" transform="scale(0.015625)"/>
       </defs>
       <use xlink:href="#DejaVuSans-30"/>
       <use xlink:href="#DejaVuSans-2e" x="63.623047"/>
       <use xlink:href="#DejaVuSans-30" x="95.410156"/>
      </g>
     </g>
    </g>
    <g id="xtick_2">
     <g id="line2d_2">
      <g>
       <use xlink:href="#m0173224a57" x="116.614253" y="307.584" style="stroke: #000000; stroke-width: 0.8"/>
      </g>
     </g>
     <g id="text_2">
      <!-- 0.5 -->
      <g transform="translate(108.662691 322.182437) scale(0.1 -0.1)">
       <defs>
        <path id="DejaVuSans-35" d="M 691 4666 
L 3169 4666 
L 3169 4134 
L 1269 4134 
L 1269 2991 
Q 1406 3038 1543 3061 
Q 1681 3084 1819 3084 
Q 2600 3084 3056 2656 
Q 3513 2228 3513 1497 
Q 3513 744 3044 326 
Q 2575 -91 1722 -91 
Q 1428 -91 1123 -41 
Q 819 9 494 109 
L 494 744 
Q 775 591 1075 516 
Q 1375 441 1709 441 
Q 2250 441 2565 725 
Q 2881 1009 2881 1497 
Q 2881 1984 2565 2268 
Q 2250 2553 1709 2553 
Q 1456 2553 1204 2497 
Q 953 2441 691 2322 
L 691 4666 
z
" transform="scale(0.015625)"/>
       </defs>
       <use xlink:href="#DejaVuSans-30"/>
       <use xlink:href="#DejaVuSans-2e" x="63.623047"/>
       <use xlink:href="#DejaVuSans-35" x="95.410156"/>
      </g>
     </g>
    </g>
    <g id="xtick_3">
     <g id="line2d_3">
      <g>
       <use xlink:href="#m0173224a57" x="162.529988" y="307.584" style="stroke: #000000; stroke-width: 0.8"/>
      </g>
     </g>
     <g id="text_3">
      <!-- 1.0 -->
      <g transform="translate(154.578425 322.182437) scale(0.1 -0.1)">
       <defs>
        <path id="DejaVuSans-31" d="M 794 531 
L 1825 531 
L 1825 4091 
L 703 3866 
L 703 4441 
L 1819 4666 
L 2450 4666 
L 2450 531 
L 3481 531 
L 3481 0 
L 794 0 
L 794 531 
z
" transform="scale(0.015625)"/>
       </defs>
       <use xlink:href="#DejaVuSans-31"/>
       <use xlink:href="#DejaVuSans-2e" x="63.623047"/>
       <use xlink:href="#DejaVuSans-30" x="95.410156"/>
      </g>
     </g>
    </g>
    <g id="xtick_4">
     <g id="line2d_4">
      <g>
       <use xlink:href="#m0173224a57" x="208.445722" y="307.584" style="stroke: #000000; stroke-width: 0.8"/>
      </g>
     </g>
     <g id="text_4">
      <!-- 1.5 -->
      <g transform="translate(200.494159 322.182437) scale(0.1 -0.1)">
       <use xlink:href="#DejaVuSans-31"/>
       <use xlink:href="#DejaVuSans-2e" x="63.623047"/>
       <use xlink:href="#DejaVuSans-35" x="95.410156"/>
      </g>
     </g>
    </g>
    <g id="xtick_5">
     <g id="line2d_5">
      <g>
       <use xlink:href="#m0173224a57" x="254.361456" y="307.584" style="stroke: #000000; stroke-width: 0.8"/>
      </g>
     </g>
     <g id="text_5">
      <!-- 2.0 -->
      <g transform="translate(246.409894 322.182437) scale(0.1 -0.1)">
       <defs>
        <path id="DejaVuSans-32" d="M 1228 531 
L 3431 531 
L 3431 0 
L 469 0 
L 469 531 
Q 828 903 1448 1529 
Q 2069 2156 2228 2338 
Q 2531 2678 2651 2914 
Q 2772 3150 2772 3378 
Q 2772 3750 2511 3984 
Q 2250 4219 1831 4219 
Q 1534 4219 1204 4116 
Q 875 4013 500 3803 
L 500 4441 
Q 881 4594 1212 4672 
Q 1544 4750 1819 4750 
Q 2544 4750 2975 4387 
Q 3406 4025 3406 3419 
Q 3406 3131 3298 2873 
Q 3191 2616 2906 2266 
Q 2828 2175 2409 1742 
Q 1991 1309 1228 531 
z
" transform="scale(0.015625)"/>
       </defs>
       <use xlink:href="#DejaVuSans-32"/>
       <use xlink:href="#DejaVuSans-2e" x="63.623047"/>
       <use xlink:href="#DejaVuSans-30" x="95.410156"/>
      </g>
     </g>
    </g>
    <g id="xtick_6">
     <g id="line2d_6">
      <g>
       <use xlink:href="#m0173224a57" x="300.27719" y="307.584" style="stroke: #000000; stroke-width: 0.8"/>
      </g>
     </g>
     <g id="text_6">
      <!-- 2.5 -->
      <g transform="translate(292.325628 322.182437) scale(0.1 -0.1)">
       <use xlink:href="#DejaVuSans-32"/>
       <use xlink:href="#DejaVuSans-2e" x="63.623047"/>
       <use xlink:href="#DejaVuSans-35" x="95.410156"/>
      </g>
     </g>
    </g>
    <g id="xtick_7">
     <g id="line2d_7">
      <g>
       <use xlink:href="#m0173224a57" x="346.192925" y="307.584" style="stroke: #000000; stroke-width: 0.8"/>
      </g>
     </g>
     <g id="text_7">
      <!-- 3.0 -->
      <g transform="translate(338.241362 322.182437) scale(0.1 -0.1)">
       <defs>
        <path id="DejaVuSans-33" d="M 2597 2516 
Q 3050 2419 3304 2112 
Q 3559 1806 3559 1356 
Q 3559 666 3084 287 
Q 2609 -91 1734 -91 
Q 1441 -91 1130 -33 
Q 819 25 488 141 
L 488 750 
Q 750 597 1062 519 
Q 1375 441 1716 441 
Q 2309 441 2620 675 
Q 2931 909 2931 1356 
Q 2931 1769 2642 2001 
Q 2353 2234 1838 2234 
L 1294 2234 
L 1294 2753 
L 1863 2753 
Q 2328 2753 2575 2939 
Q 2822 3125 2822 3475 
Q 2822 3834 2567 4026 
Q 2313 4219 1838 4219 
Q 1578 4219 1281 4162 
Q 984 4106 628 3988 
L 628 4550 
Q 988 4650 1302 4700 
Q 1616 4750 1894 4750 
Q 2613 4750 3031 4423 
Q 3450 4097 3450 3541 
Q 3450 3153 3228 2886 
Q 3006 2619 2597 2516 
z
" transform="scale(0.015625)"/>
       </defs>
       <use xlink:href="#DejaVuSans-33"/>
       <use xlink:href="#DejaVuSans-2e" x="63.623047"/>
       <use xlink:href="#DejaVuSans-30" x="95.410156"/>
      </g>
     </g>
    </g>
    <g id="xtick_8">
     <g id="line2d_8">
      <g>
       <use xlink:href="#m0173224a57" x="392.108659" y="307.584" style="stroke: #000000; stroke-width: 0.8"/>
      </g>
     </g>
     <g id="text_8">
      <!-- 3.5 -->
      <g transform="translate(384.157096 322.182437) scale(0.1 -0.1)">
       <use xlink:href="#DejaVuSans-33"/>
       <use xlink:href="#DejaVuSans-2e" x="63.623047"/>
       <use xlink:href="#DejaVuSans-35" x="95.410156"/>
      </g>
     </g>
    </g>
    <g id="text_9">
     <!-- 1e6 -->
     <g transform="translate(395.841875 334.860562) scale(0.1 -0.1)">
      <defs>
       <path id="DejaVuSans-65" d="M 3597 1894 
L 3597 1613 
L 953 1613 
Q 991 1019 1311 708 
Q 1631 397 2203 397 
Q 2534 397 2845 478 
Q 3156 559 3463 722 
L 3463 178 
Q 3153 47 2828 -22 
Q 2503 -91 2169 -91 
Q 1331 -91 842 396 
Q 353 884 353 1716 
Q 353 2575 817 3079 
Q 1281 3584 2069 3584 
Q 2775 3584 3186 3129 
Q 3597 2675 3597 1894 
z
M 3022 2063 
Q 3016 2534 2758 2815 
Q 2500 3097 2075 3097 
Q 1594 3097 1305 2825 
Q 1016 2553 972 2059 
L 3022 2063 
z
" transform="scale(0.015625)"/>
       <path id="DejaVuSans-36" d="M 2113 2584 
Q 1688 2584 1439 2293 
Q 1191 2003 1191 1497 
Q 1191 994 1439 701 
Q 1688 409 2113 409 
Q 2538 409 2786 701 
Q 3034 994 3034 1497 
Q 3034 2003 2786 2293 
Q 2538 2584 2113 2584 
z
M 3366 4563 
L 3366 3988 
Q 3128 4100 2886 4159 
Q 2644 4219 2406 4219 
Q 1781 4219 1451 3797 
Q 1122 3375 1075 2522 
Q 1259 2794 1537 2939 
Q 1816 3084 2150 3084 
Q 2853 3084 3261 2657 
Q 3669 2231 3669 1497 
Q 3669 778 3244 343 
Q 2819 -91 2113 -91 
Q 1303 -91 875 529 
Q 447 1150 447 2328 
Q 447 3434 972 4092 
Q 1497 4750 2381 4750 
Q 2619 4750 2861 4703 
Q 3103 4656 3366 4563 
z
" transform="scale(0.015625)"/>
      </defs>
      <use xlink:href="#DejaVuSans-31"/>
      <use xlink:href="#DejaVuSans-65" x="63.623047"/>
      <use xlink:href="#DejaVuSans-36" x="125.146484"/>
     </g>
    </g>
   </g>
   <g id="matplotlib.axis_2">
    <g id="ytick_1">
     <g id="line2d_9">
      <defs>
       <path id="m8de92ef5d0" d="M 0 0 
L -3.5 0 
" style="stroke: #000000; stroke-width: 0.8"/>
      </defs>
      <g>
       <use xlink:href="#m8de92ef5d0" x="57.6" y="295.488" style="stroke: #000000; stroke-width: 0.8"/>
      </g>
     </g>
     <g id="text_10">
      <!-- 0.0 -->
      <g transform="translate(34.696875 299.287219) scale(0.1 -0.1)">
       <use xlink:href="#DejaVuSans-30"/>
       <use xlink:href="#DejaVuSans-2e" x="63.623047"/>
       <use xlink:href="#DejaVuSans-30" x="95.410156"/>
      </g>
     </g>
    </g>
    <g id="ytick_2">
     <g id="line2d_10">
      <g>
       <use xlink:href="#m8de92ef5d0" x="57.6" y="261.888" style="stroke: #000000; stroke-width: 0.8"/>
      </g>
     </g>
     <g id="text_11">
      <!-- 2.5 -->
      <g transform="translate(34.696875 265.687219) scale(0.1 -0.1)">
       <use xlink:href="#DejaVuSans-32"/>
       <use xlink:href="#DejaVuSans-2e" x="63.623047"/>
       <use xlink:href="#DejaVuSans-35" x="95.410156"/>
      </g>
     </g>
    </g>
    <g id="ytick_3">
     <g id="line2d_11">
      <g>
       <use xlink:href="#m8de92ef5d0" x="57.6" y="228.288" style="stroke: #000000; stroke-width: 0.8"/>
      </g>
     </g>
     <g id="text_12">
      <!-- 5.0 -->
      <g transform="translate(34.696875 232.087219) scale(0.1 -0.1)">
       <use xlink:href="#DejaVuSans-35"/>
       <use xlink:href="#DejaVuSans-2e" x="63.623047"/>
       <use xlink:href="#DejaVuSans-30" x="95.410156"/>
      </g>
     </g>
    </g>
    <g id="ytick_4">
     <g id="line2d_12">
      <g>
       <use xlink:href="#m8de92ef5d0" x="57.6" y="194.688" style="stroke: #000000; stroke-width: 0.8"/>
      </g>
     </g>
     <g id="text_13">
      <!-- 7.5 -->
      <g transform="translate(34.696875 198.487219) scale(0.1 -0.1)">
       <defs>
        <path id="DejaVuSans-37" d="M 525 4666 
L 3525 4666 
L 3525 4397 
L 1831 0 
L 1172 0 
L 2766 4134 
L 525 4134 
L 525 4666 
z
" transform="scale(0.015625)"/>
       </defs>
       <use xlink:href="#DejaVuSans-37"/>
       <use xlink:href="#DejaVuSans-2e" x="63.623047"/>
       <use xlink:href="#DejaVuSans-35" x="95.410156"/>
      </g>
     </g>
    </g>
    <g id="ytick_5">
     <g id="line2d_13">
      <g>
       <use xlink:href="#m8de92ef5d0" x="57.6" y="161.088" style="stroke: #000000; stroke-width: 0.8"/>
      </g>
     </g>
     <g id="text_14">
      <!-- 10.0 -->
      <g transform="translate(28.334375 164.887219) scale(0.1 -0.1)">
       <use xlink:href="#DejaVuSans-31"/>
       <use xlink:href="#DejaVuSans-30" x="63.623047"/>
       <use xlink:href="#DejaVuSans-2e" x="127.246094"/>
       <use xlink:href="#DejaVuSans-30" x="159.033203"/>
      </g>
     </g>
    </g>
    <g id="ytick_6">
     <g id="line2d_14">
      <g>
       <use xlink:href="#m8de92ef5d0" x="57.6" y="127.488" style="stroke: #000000; stroke-width: 0.8"/>
      </g>
     </g>
     <g id="text_15">
      <!-- 12.5 -->
      <g transform="translate(28.334375 131.287219) scale(0.1 -0.1)">
       <use xlink:href="#DejaVuSans-31"/>
       <use xlink:href="#DejaVuSans-32" x="63.623047"/>
       <use xlink:href="#DejaVuSans-2e" x="127.246094"/>
       <use xlink:href="#DejaVuSans-35" x="159.033203"/>
      </g>
     </g>
    </g>
    <g id="ytick_7">
     <g id="line2d_15">
      <g>
       <use xlink:href="#m8de92ef5d0" x="57.6" y="93.888" style="stroke: #000000; stroke-width: 0.8"/>
      </g>
     </g>
     <g id="text_16">
      <!-- 15.0 -->
      <g transform="translate(28.334375 97.687219) scale(0.1 -0.1)">
       <use xlink:href="#DejaVuSans-31"/>
       <use xlink:href="#DejaVuSans-35" x="63.623047"/>
       <use xlink:href="#DejaVuSans-2e" x="127.246094"/>
       <use xlink:href="#DejaVuSans-30" x="159.033203"/>
      </g>
     </g>
    </g>
    <g id="ytick_8">
     <g id="line2d_16">
      <g>
       <use xlink:href="#m8de92ef5d0" x="57.6" y="60.288" style="stroke: #000000; stroke-width: 0.8"/>
      </g>
     </g>
     <g id="text_17">
      <!-- 17.5 -->
      <g transform="translate(28.334375 64.087219) scale(0.1 -0.1)">
       <use xlink:href="#DejaVuSans-31"/>
       <use xlink:href="#DejaVuSans-37" x="63.623047"/>
       <use xlink:href="#DejaVuSans-2e" x="127.246094"/>
       <use xlink:href="#DejaVuSans-35" x="159.033203"/>
      </g>
     </g>
    </g>
   </g>
   <g id="line2d_17">
    <path d="M 73.832727 255.168 
L 74.192707 295.488 
L 74.505852 268.608 
L 74.865831 295.488 
L 75.09541 268.608 
L 75.455389 295.488 
L 75.768535 268.608 
L 76.128514 295.488 
L 76.405845 268.608 
L 76.765824 295.488 
L 77.078051 268.608 
L 77.438031 295.488 
L 77.706179 268.608 
L 78.06524 295.488 
L 78.348999 282.048 
L 78.70806 295.488 
L 84.27121 214.848 
L 84.63119 295.488 
L 84.673432 268.608 
L 85.016882 241.728 
L 85.032493 268.608 
L 85.375943 295.488 
L 85.386963 268.608 
L 85.746942 268.608 
L 86.106921 295.488 
L 86.11335 282.048 
L 86.473329 295.488 
L 86.488022 268.608 
L 86.848001 295.488 
L 86.862694 282.048 
L 87.222674 295.488 
L 87.243795 282.048 
L 87.602856 295.488 
L 87.679994 268.608 
L 88.039974 295.488 
L 88.294347 268.608 
L 88.654326 295.488 
L 88.963798 268.608 
L 89.323778 295.488 
L 89.561621 268.608 
L 89.921601 295.488 
L 90.203523 268.608 
L 90.563503 295.488 
L 90.917972 268.608 
L 91.277951 295.488 
L 91.519468 268.608 
L 91.879447 295.488 
L 92.201776 268.608 
L 92.561755 295.488 
L 92.84276 268.608 
L 93.202739 295.488 
L 93.432318 268.608 
L 93.792297 295.488 
L 94.120135 268.608 
L 94.480115 295.488 
L 94.724386 268.608 
L 95.369962 241.728 
L 95.6978 268.608 
L 96.010027 241.728 
L 97.336073 187.968 
L 98.290202 161.088 
L 98.889862 134.208 
L 99.264534 161.088 
L 99.319633 214.848 
L 99.56115 187.968 
L 99.727365 214.848 
L 99.888988 268.608 
L 100.200297 241.728 
L 100.204888 268.608 
L 100.560276 295.488 
L 100.869748 268.608 
L 101.229728 295.488 
L 101.518078 268.608 
L 101.878058 295.488 
L 102.149879 268.608 
L 102.509858 295.488 
L 102.766068 268.608 
L 103.126047 295.488 
L 103.451131 268.608 
L 103.810192 295.488 
L 104.077421 268.608 
L 104.437401 295.488 
L 104.71565 268.608 
L 105.075629 295.488 
L 105.379592 268.608 
L 105.739571 295.488 
L 106.027922 268.608 
L 106.387901 295.488 
L 106.635846 268.608 
L 106.995825 295.488 
L 107.268565 268.608 
L 107.628544 295.488 
L 107.885672 268.608 
L 108.245652 295.488 
L 108.592775 268.608 
L 108.951836 295.488 
L 109.190598 268.608 
L 109.550577 295.488 
L 109.862804 268.608 
L 110.222783 295.488 
L 110.468892 282.048 
L 110.828871 295.488 
L 113.100782 214.848 
L 113.460761 295.488 
L 113.997057 241.728 
L 114.357036 295.488 
L 114.947512 241.728 
L 115.307492 295.488 
L 126.891113 241.728 
L 127.251092 295.488 
L 127.794735 161.088 
L 128.154714 295.488 
L 128.345724 241.728 
L 128.705703 295.488 
L 128.858143 241.728 
L 129.218123 295.488 
L 129.388929 241.728 
L 129.748908 295.488 
L 129.839822 241.728 
L 130.199801 295.488 
L 130.315509 241.728 
L 130.675488 295.488 
L 130.839866 241.728 
L 131.199846 295.488 
L 131.314635 241.728 
L 131.674614 295.488 
L 131.822463 241.728 
L 132.182442 295.488 
L 132.349576 241.728 
L 132.709555 295.488 
L 132.869342 241.728 
L 133.229321 295.488 
L 133.358803 241.728 
L 133.718783 295.488 
L 133.889589 241.728 
L 134.459863 201.408 
L 134.787701 255.168 
L 135.550821 201.408 
L 138.141386 53.568 
L 138.290153 147.648 
L 138.733699 187.968 
L 138.761249 241.728 
L 139.029397 187.968 
L 139.389376 295.488 
L 139.897204 255.168 
L 140.257183 295.488 
L 141.162642 228.288 
L 141.522621 295.488 
L 142.063508 241.728 
L 142.423488 295.488 
L 142.905603 241.728 
L 143.265582 295.488 
L 143.864323 241.728 
L 144.224303 295.488 
L 144.805596 241.728 
L 145.165575 295.488 
L 145.715646 241.728 
L 146.075625 295.488 
L 146.634879 241.728 
L 146.994858 295.488 
L 147.587171 241.728 
L 147.947151 295.488 
L 148.474263 241.728 
L 148.834243 295.488 
L 149.344825 241.728 
L 149.704805 295.488 
L 150.336605 241.728 
L 150.696585 295.488 
L 151.204413 241.728 
L 151.564392 295.488 
L 152.107116 241.728 
L 152.467095 295.488 
L 153.102569 241.728 
L 153.462549 295.488 
L 154.009864 241.728 
L 154.369843 295.488 
L 155.144901 241.728 
L 155.50488 295.488 
L 161.514332 161.088 
L 161.874311 295.488 
L 162.054301 241.728 
L 162.41428 295.488 
L 162.606208 241.728 
L 162.966187 295.488 
L 163.080977 241.728 
L 163.440956 295.488 
L 163.562173 241.728 
L 163.922153 295.488 
L 164.061737 255.168 
L 164.421716 295.488 
L 164.600787 255.168 
L 164.960767 295.488 
L 165.117799 255.168 
L 165.477778 295.488 
L 165.636646 268.608 
L 165.996626 295.488 
L 166.365788 255.168 
L 166.725768 295.488 
L 172.810521 161.088 
L 173.1705 295.488 
L 173.390896 241.728 
L 173.750875 295.488 
L 173.910662 241.728 
L 174.270641 295.488 
L 174.403797 241.728 
L 174.763776 295.488 
L 174.911625 241.728 
L 175.270686 295.488 
L 175.406596 241.728 
L 175.766576 295.488 
L 175.887793 255.168 
L 176.246854 295.488 
L 176.404804 255.168 
L 176.764784 295.488 
L 176.910796 268.608 
L 177.270775 295.488 
L 177.444337 282.048 
L 177.803398 295.488 
L 183.61082 147.648 
L 183.970799 295.488 
L 184.103036 241.728 
L 184.463016 295.488 
L 184.639332 241.728 
L 184.999311 295.488 
L 185.721107 268.608 
L 186.081086 295.488 
L 186.255566 282.048 
L 186.615545 295.488 
L 186.621055 268.608 
L 186.981035 295.488 
L 187.008584 282.048 
L 187.367645 295.488 
L 187.644976 268.608 
L 188.004955 295.488 
L 188.313509 268.608 
L 188.673488 295.488 
L 188.952656 268.608 
L 189.312636 295.488 
L 189.543132 268.608 
L 189.903112 295.488 
L 190.215339 268.608 
L 190.575318 295.488 
L 190.840711 268.608 
L 191.200691 295.488 
L 191.503734 268.608 
L 191.863714 295.488 
L 192.141045 268.608 
L 192.79213 241.728 
L 193.119968 268.608 
L 193.422094 241.728 
L 195.368003 161.088 
L 197.327686 80.448 
L 204.854193 107.328 
L 204.909292 161.088 
L 205.244477 93.888 
L 205.360185 147.648 
L 205.387734 174.528 
L 205.58058 147.648 
L 205.879032 174.528 
L 205.934131 241.728 
L 206.269316 214.848 
L 206.416247 241.728 
L 206.448388 268.608 
L 206.647662 241.728 
L 207.007641 295.488 
L 207.009478 268.608 
L 207.336398 241.728 
L 207.369457 268.608 
L 207.689031 241.728 
L 207.696377 268.608 
L 208.048092 295.488 
L 208.052683 268.608 
L 208.412663 295.488 
L 208.432866 282.048 
L 208.782743 268.608 
L 208.792845 282.048 
L 209.141805 295.488 
L 211.015166 214.848 
L 211.365963 187.968 
L 211.375146 268.608 
L 211.708494 241.728 
L 212.035414 268.608 
L 212.072147 241.728 
L 212.400903 214.848 
L 212.711294 201.408 
L 213.079538 174.528 
L 213.790313 147.648 
L 214.312834 120.768 
L 217.470919 147.648 
L 217.498468 174.528 
L 217.83549 107.328 
L 217.985175 174.528 
L 218.181694 147.648 
L 218.421374 161.088 
L 218.476473 201.408 
L 218.559122 174.528 
L 218.920938 147.648 
L 218.95216 241.728 
L 219.247858 268.608 
L 219.255204 241.728 
L 219.615183 295.488 
L 219.620693 268.608 
L 219.973326 241.728 
L 219.980673 268.608 
L 220.333306 295.488 
L 237.304679 255.168 
L 237.664659 295.488 
L 237.902502 255.168 
L 238.262481 295.488 
L 238.291868 214.848 
L 238.651847 295.488 
L 238.887854 214.848 
L 239.247833 295.488 
L 239.409457 241.728 
L 239.769436 295.488 
L 239.891572 241.728 
L 240.251551 295.488 
L 240.405828 241.728 
L 240.765807 295.488 
L 240.922839 241.728 
L 241.282818 295.488 
L 241.429749 241.728 
L 241.789728 295.488 
L 241.910027 241.728 
L 242.270007 295.488 
L 242.376531 241.728 
L 242.736511 295.488 
L 242.891706 241.728 
L 243.251685 295.488 
L 243.414227 241.728 
L 243.774206 295.488 
L 243.892669 282.048 
L 244.252648 295.488 
L 253.516607 228.288 
L 253.876586 295.488 
L 254.289828 241.728 
L 254.649807 295.488 
L 254.984992 161.088 
L 255.344053 295.488 
L 255.529552 241.728 
L 255.889532 295.488 
L 256.001566 241.728 
L 256.361546 295.488 
L 256.514904 241.728 
L 256.874884 295.488 
L 257.016304 241.728 
L 257.376283 295.488 
L 257.490154 241.728 
L 257.850134 295.488 
L 258.006247 241.728 
L 258.366227 295.488 
L 258.484689 241.728 
L 258.844669 295.488 
L 258.985171 241.728 
L 259.344232 295.488 
L 259.472796 241.728 
L 259.832775 295.488 
L 259.947564 241.728 
L 260.306625 295.488 
L 260.434271 241.728 
L 260.794251 295.488 
L 260.986178 241.728 
L 261.346158 295.488 
L 261.499516 241.728 
L 261.859496 295.488 
L 261.96051 241.728 
L 262.32049 295.488 
L 262.453645 241.728 
L 262.812706 295.488 
L 262.944025 241.728 
L 263.304005 295.488 
L 263.496851 241.728 
L 263.85683 295.488 
L 264.001924 241.728 
L 264.361903 295.488 
L 264.485876 241.728 
L 264.845855 295.488 
L 264.962481 241.728 
L 265.321542 295.488 
L 265.473064 241.728 
L 265.833043 295.488 
L 265.954261 241.728 
L 266.313322 295.488 
L 266.454742 255.168 
L 266.814722 295.488 
L 266.924919 255.168 
L 267.284899 295.488 
L 267.428156 268.608 
L 267.788135 295.488 
L 267.858845 255.168 
L 268.218825 295.488 
L 268.43922 255.168 
L 268.7992 295.488 
L 269.090305 255.168 
L 269.450285 295.488 
L 275.369741 228.288 
L 275.729721 295.488 
L 276.148472 241.728 
L 276.508451 295.488 
L 276.805985 161.088 
L 277.165965 295.488 
L 277.324833 241.728 
L 277.684813 295.488 
L 277.823478 241.728 
L 278.183457 295.488 
L 278.356101 241.728 
L 278.715162 295.488 
L 278.849236 241.728 
L 279.209215 295.488 
L 279.34788 241.728 
L 279.70786 295.488 
L 279.875911 241.728 
L 280.235891 295.488 
L 280.351598 241.728 
L 280.711578 295.488 
L 280.819021 241.728 
L 281.179 295.488 
L 281.350725 241.728 
L 281.710704 295.488 
L 281.851206 241.728 
L 282.211186 295.488 
L 282.375564 255.168 
L 282.735543 295.488 
L 282.905432 241.728 
L 283.265411 295.488 
L 283.429789 255.168 
L 283.789769 295.488 
L 283.927516 268.608 
L 284.287495 295.488 
L 284.396775 255.168 
L 284.756754 295.488 
L 284.88991 255.168 
L 285.249889 295.488 
L 285.59242 255.168 
L 285.9524 295.488 
L 286.328909 241.728 
L 286.688888 295.488 
L 287.101211 228.288 
L 287.461191 295.488 
L 287.850556 241.728 
L 288.210535 295.488 
L 288.616431 241.728 
L 288.97641 295.488 
L 289.326288 241.728 
L 289.686267 295.488 
L 290.021452 241.728 
L 290.381431 295.488 
L 290.817631 241.728 
L 291.17761 295.488 
L 291.531161 241.728 
L 291.891141 295.488 
L 292.27316 255.168 
L 292.633139 295.488 
L 327.885403 228.288 
L 328.245382 295.488 
L 328.635666 241.728 
L 328.995646 295.488 
L 329.320729 255.168 
L 329.680708 295.488 
L 330.101296 228.288 
L 330.460358 295.488 
L 330.827683 241.728 
L 331.187663 295.488 
L 331.547642 255.168 
L 331.906703 295.488 
L 332.304333 268.608 
L 332.664313 295.488 
L 334.308096 268.608 
L 334.668075 295.488 
L 334.966528 268.608 
L 335.326507 295.488 
L 335.581799 268.608 
L 335.941778 295.488 
L 336.201661 268.608 
L 336.56164 295.488 
L 337.214562 268.608 
L 337.574541 295.488 
L 337.882177 268.608 
L 338.242156 295.488 
L 338.471735 268.608 
L 338.831714 295.488 
L 339.109964 268.608 
L 339.469025 295.488 
L 339.744519 268.608 
L 340.10358 295.488 
L 340.433255 268.608 
L 340.793234 295.488 
L 341.063219 268.608 
L 341.42228 295.488 
L 341.687673 268.608 
L 342.047652 295.488 
L 342.357124 282.048 
L 342.717104 295.488 
L 343.267174 255.168 
L 343.627153 295.488 
L 343.967848 268.608 
L 344.327828 295.488 
L 344.628116 268.608 
L 344.988096 295.488 
L 345.226858 268.608 
L 345.586837 295.488 
L 345.905492 268.608 
L 346.265472 295.488 
L 346.5226 268.608 
L 346.882579 295.488 
L 347.178276 268.608 
L 347.538256 295.488 
L 347.793547 282.048 
L 348.152608 295.488 
L 348.779817 255.168 
L 349.139797 295.488 
L 349.392333 268.608 
L 349.752312 295.488 
L 350.075559 268.608 
L 350.43462 295.488 
L 350.664199 268.608 
L 351.02326 295.488 
L 351.293244 268.608 
L 351.653224 295.488 
L 351.964532 268.608 
L 352.324512 295.488 
L 352.607353 268.608 
L 352.967332 295.488 
L 353.23548 268.608 
L 353.594541 295.488 
L 353.891157 282.048 
L 354.251136 295.488 
L 359.791329 214.848 
L 360.142125 187.968 
L 360.151308 268.608 
L 360.501186 295.488 
L 360.506696 268.608 
L 360.866675 295.488 
L 360.871267 268.608 
L 361.231246 295.488 
L 361.244102 268.608 
L 361.593062 255.168 
L 361.604082 282.048 
L 361.953041 295.488 
L 361.962224 282.048 
L 362.321285 295.488 
L 362.33506 282.048 
L 362.69504 295.488 
L 362.874111 268.608 
L 363.23409 295.488 
L 363.548154 268.608 
L 363.908133 295.488 
L 364.174445 268.608 
L 364.534424 295.488 
L 364.842978 268.608 
L 365.202957 295.488 
L 365.501409 282.048 
L 365.861389 295.488 
L 366.416051 255.168 
L 367.082747 228.288 
L 367.410585 268.608 
L 367.732914 241.728 
L 369.632907 161.088 
L 370.303277 134.208 
L 370.945179 120.768 
L 371.055376 201.408 
L 371.515452 228.288 
L 371.570551 282.048 
L 372.002159 295.488 
L 372.871803 214.848 
L 373.231782 295.488 
L 373.796546 241.728 
L 374.156525 295.488 
L 374.700167 241.728 
L 375.060147 295.488 
L 375.571648 241.728 
L 375.931627 295.488 
L 376.530369 241.728 
L 376.890348 295.488 
L 377.448683 241.728 
L 377.808663 295.488 
L 378.375263 241.728 
L 378.735242 295.488 
L 379.271538 241.728 
L 379.631517 295.488 
L 380.244952 268.608 
L 380.604931 295.488 
L 381.604976 241.728 
L 381.964955 295.488 
L 387.457395 134.208 
L 387.817374 295.488 
L 387.96706 241.728 
L 388.327039 295.488 
L 388.475806 241.728 
L 388.835785 295.488 
L 389.002919 241.728 
L 389.362898 295.488 
L 389.554826 241.728 
L 389.913887 295.488 
L 390.08102 255.168 
L 390.440999 295.488 
L 390.5714 268.608 
L 390.93138 295.488 
L 391.128817 268.608 
L 391.487878 295.488 
L 391.728477 255.168 
L 392.088456 295.488 
L 392.633017 241.728 
L 392.992996 295.488 
L 393.534802 241.728 
L 393.894781 295.488 
L 394.406282 241.728 
L 394.766262 295.488 
L 395.388879 241.728 
L 395.748858 295.488 
L 396.25485 241.728 
L 396.614829 295.488 
L 397.192449 241.728 
L 397.552428 295.488 
L 398.127293 268.608 
L 398.487273 295.488 
L 398.487273 295.488 
" clip-path="url(#pcb90ef8d32)" style="fill: none; stroke: #1f77b4; stroke-width: 1.5; stroke-linecap: square"/>
   </g>
   <g id="patch_3">
    <path d="M 57.6 307.584 
L 57.6 41.472 
" style="fill: none; stroke: #000000; stroke-width: 0.8; stroke-linejoin: miter; stroke-linecap: square"/>
   </g>
   <g id="patch_4">
    <path d="M 414.72 307.584 
L 414.72 41.472 
" style="fill: none; stroke: #000000; stroke-width: 0.8; stroke-linejoin: miter; stroke-linecap: square"/>
   </g>
   <g id="patch_5">
    <path d="M 57.6 307.584 
L 414.72 307.584 
" style="fill: none; stroke: #000000; stroke-width: 0.8; stroke-linejoin: miter; stroke-linecap: square"/>
   </g>
   <g id="patch_6">
    <path d="M 57.6 41.472 
L 414.72 41.472 
" style="fill: none; stroke: #000000; stroke-width: 0.8; stroke-linejoin: miter; stroke-linecap: square"/>
   </g>
   <g id="text_18">
    <!-- Queue size (y-axis) between S7 and sensors that follow at a time (x-axis). -->
    <g transform="translate(14.282813 35.472) scale(0.12 -0.12)">
     <defs>
      <path id="DejaVuSans-51" d="M 2522 4238 
Q 1834 4238 1429 3725 
Q 1025 3213 1025 2328 
Q 1025 1447 1429 934 
Q 1834 422 2522 422 
Q 3209 422 3611 934 
Q 4013 1447 4013 2328 
Q 4013 3213 3611 3725 
Q 3209 4238 2522 4238 
z
M 3406 84 
L 4238 -825 
L 3475 -825 
L 2784 -78 
Q 2681 -84 2626 -87 
Q 2572 -91 2522 -91 
Q 1538 -91 948 567 
Q 359 1225 359 2328 
Q 359 3434 948 4092 
Q 1538 4750 2522 4750 
Q 3503 4750 4090 4092 
Q 4678 3434 4678 2328 
Q 4678 1516 4351 937 
Q 4025 359 3406 84 
z
" transform="scale(0.015625)"/>
      <path id="DejaVuSans-75" d="M 544 1381 
L 544 3500 
L 1119 3500 
L 1119 1403 
Q 1119 906 1312 657 
Q 1506 409 1894 409 
Q 2359 409 2629 706 
Q 2900 1003 2900 1516 
L 2900 3500 
L 3475 3500 
L 3475 0 
L 2900 0 
L 2900 538 
Q 2691 219 2414 64 
Q 2138 -91 1772 -91 
Q 1169 -91 856 284 
Q 544 659 544 1381 
z
M 1991 3584 
L 1991 3584 
z
" transform="scale(0.015625)"/>
      <path id="DejaVuSans-20" transform="scale(0.015625)"/>
      <path id="DejaVuSans-73" d="M 2834 3397 
L 2834 2853 
Q 2591 2978 2328 3040 
Q 2066 3103 1784 3103 
Q 1356 3103 1142 2972 
Q 928 2841 928 2578 
Q 928 2378 1081 2264 
Q 1234 2150 1697 2047 
L 1894 2003 
Q 2506 1872 2764 1633 
Q 3022 1394 3022 966 
Q 3022 478 2636 193 
Q 2250 -91 1575 -91 
Q 1294 -91 989 -36 
Q 684 19 347 128 
L 347 722 
Q 666 556 975 473 
Q 1284 391 1588 391 
Q 1994 391 2212 530 
Q 2431 669 2431 922 
Q 2431 1156 2273 1281 
Q 2116 1406 1581 1522 
L 1381 1569 
Q 847 1681 609 1914 
Q 372 2147 372 2553 
Q 372 3047 722 3315 
Q 1072 3584 1716 3584 
Q 2034 3584 2315 3537 
Q 2597 3491 2834 3397 
z
" transform="scale(0.015625)"/>
      <path id="DejaVuSans-69" d="M 603 3500 
L 1178 3500 
L 1178 0 
L 603 0 
L 603 3500 
z
M 603 4863 
L 1178 4863 
L 1178 4134 
L 603 4134 
L 603 4863 
z
" transform="scale(0.015625)"/>
      <path id="DejaVuSans-7a" d="M 353 3500 
L 3084 3500 
L 3084 2975 
L 922 459 
L 3084 459 
L 3084 0 
L 275 0 
L 275 525 
L 2438 3041 
L 353 3041 
L 353 3500 
z
" transform="scale(0.015625)"/>
      <path id="DejaVuSans-28" d="M 1984 4856 
Q 1566 4138 1362 3434 
Q 1159 2731 1159 2009 
Q 1159 1288 1364 580 
Q 1569 -128 1984 -844 
L 1484 -844 
Q 1016 -109 783 600 
Q 550 1309 550 2009 
Q 550 2706 781 3412 
Q 1013 4119 1484 4856 
L 1984 4856 
z
" transform="scale(0.015625)"/>
      <path id="DejaVuSans-79" d="M 2059 -325 
Q 1816 -950 1584 -1140 
Q 1353 -1331 966 -1331 
L 506 -1331 
L 506 -850 
L 844 -850 
Q 1081 -850 1212 -737 
Q 1344 -625 1503 -206 
L 1606 56 
L 191 3500 
L 800 3500 
L 1894 763 
L 2988 3500 
L 3597 3500 
L 2059 -325 
z
" transform="scale(0.015625)"/>
      <path id="DejaVuSans-2d" d="M 313 2009 
L 1997 2009 
L 1997 1497 
L 313 1497 
L 313 2009 
z
" transform="scale(0.015625)"/>
      <path id="DejaVuSans-61" d="M 2194 1759 
Q 1497 1759 1228 1600 
Q 959 1441 959 1056 
Q 959 750 1161 570 
Q 1363 391 1709 391 
Q 2188 391 2477 730 
Q 2766 1069 2766 1631 
L 2766 1759 
L 2194 1759 
z
M 3341 1997 
L 3341 0 
L 2766 0 
L 2766 531 
Q 2569 213 2275 61 
Q 1981 -91 1556 -91 
Q 1019 -91 701 211 
Q 384 513 384 1019 
Q 384 1609 779 1909 
Q 1175 2209 1959 2209 
L 2766 2209 
L 2766 2266 
Q 2766 2663 2505 2880 
Q 2244 3097 1772 3097 
Q 1472 3097 1187 3025 
Q 903 2953 641 2809 
L 641 3341 
Q 956 3463 1253 3523 
Q 1550 3584 1831 3584 
Q 2591 3584 2966 3190 
Q 3341 2797 3341 1997 
z
" transform="scale(0.015625)"/>
      <path id="DejaVuSans-78" d="M 3513 3500 
L 2247 1797 
L 3578 0 
L 2900 0 
L 1881 1375 
L 863 0 
L 184 0 
L 1544 1831 
L 300 3500 
L 978 3500 
L 1906 2253 
L 2834 3500 
L 3513 3500 
z
" transform="scale(0.015625)"/>
      <path id="DejaVuSans-29" d="M 513 4856 
L 1013 4856 
Q 1481 4119 1714 3412 
Q 1947 2706 1947 2009 
Q 1947 1309 1714 600 
Q 1481 -109 1013 -844 
L 513 -844 
Q 928 -128 1133 580 
Q 1338 1288 1338 2009 
Q 1338 2731 1133 3434 
Q 928 4138 513 4856 
z
" transform="scale(0.015625)"/>
      <path id="DejaVuSans-62" d="M 3116 1747 
Q 3116 2381 2855 2742 
Q 2594 3103 2138 3103 
Q 1681 3103 1420 2742 
Q 1159 2381 1159 1747 
Q 1159 1113 1420 752 
Q 1681 391 2138 391 
Q 2594 391 2855 752 
Q 3116 1113 3116 1747 
z
M 1159 2969 
Q 1341 3281 1617 3432 
Q 1894 3584 2278 3584 
Q 2916 3584 3314 3078 
Q 3713 2572 3713 1747 
Q 3713 922 3314 415 
Q 2916 -91 2278 -91 
Q 1894 -91 1617 61 
Q 1341 213 1159 525 
L 1159 0 
L 581 0 
L 581 4863 
L 1159 4863 
L 1159 2969 
z
" transform="scale(0.015625)"/>
      <path id="DejaVuSans-74" d="M 1172 4494 
L 1172 3500 
L 2356 3500 
L 2356 3053 
L 1172 3053 
L 1172 1153 
Q 1172 725 1289 603 
Q 1406 481 1766 481 
L 2356 481 
L 2356 0 
L 1766 0 
Q 1100 0 847 248 
Q 594 497 594 1153 
L 594 3053 
L 172 3053 
L 172 3500 
L 594 3500 
L 594 4494 
L 1172 4494 
z
" transform="scale(0.015625)"/>
      <path id="DejaVuSans-77" d="M 269 3500 
L 844 3500 
L 1563 769 
L 2278 3500 
L 2956 3500 
L 3675 769 
L 4391 3500 
L 4966 3500 
L 4050 0 
L 3372 0 
L 2619 2869 
L 1863 0 
L 1184 0 
L 269 3500 
z
" transform="scale(0.015625)"/>
      <path id="DejaVuSans-6e" d="M 3513 2113 
L 3513 0 
L 2938 0 
L 2938 2094 
Q 2938 2591 2744 2837 
Q 2550 3084 2163 3084 
Q 1697 3084 1428 2787 
Q 1159 2491 1159 1978 
L 1159 0 
L 581 0 
L 581 3500 
L 1159 3500 
L 1159 2956 
Q 1366 3272 1645 3428 
Q 1925 3584 2291 3584 
Q 2894 3584 3203 3211 
Q 3513 2838 3513 2113 
z
" transform="scale(0.015625)"/>
      <path id="DejaVuSans-53" d="M 3425 4513 
L 3425 3897 
Q 3066 4069 2747 4153 
Q 2428 4238 2131 4238 
Q 1616 4238 1336 4038 
Q 1056 3838 1056 3469 
Q 1056 3159 1242 3001 
Q 1428 2844 1947 2747 
L 2328 2669 
Q 3034 2534 3370 2195 
Q 3706 1856 3706 1288 
Q 3706 609 3251 259 
Q 2797 -91 1919 -91 
Q 1588 -91 1214 -16 
Q 841 59 441 206 
L 441 856 
Q 825 641 1194 531 
Q 1563 422 1919 422 
Q 2459 422 2753 634 
Q 3047 847 3047 1241 
Q 3047 1584 2836 1778 
Q 2625 1972 2144 2069 
L 1759 2144 
Q 1053 2284 737 2584 
Q 422 2884 422 3419 
Q 422 4038 858 4394 
Q 1294 4750 2059 4750 
Q 2388 4750 2728 4690 
Q 3069 4631 3425 4513 
z
" transform="scale(0.015625)"/>
      <path id="DejaVuSans-64" d="M 2906 2969 
L 2906 4863 
L 3481 4863 
L 3481 0 
L 2906 0 
L 2906 525 
Q 2725 213 2448 61 
Q 2172 -91 1784 -91 
Q 1150 -91 751 415 
Q 353 922 353 1747 
Q 353 2572 751 3078 
Q 1150 3584 1784 3584 
Q 2172 3584 2448 3432 
Q 2725 3281 2906 2969 
z
M 947 1747 
Q 947 1113 1208 752 
Q 1469 391 1925 391 
Q 2381 391 2643 752 
Q 2906 1113 2906 1747 
Q 2906 2381 2643 2742 
Q 2381 3103 1925 3103 
Q 1469 3103 1208 2742 
Q 947 2381 947 1747 
z
" transform="scale(0.015625)"/>
      <path id="DejaVuSans-6f" d="M 1959 3097 
Q 1497 3097 1228 2736 
Q 959 2375 959 1747 
Q 959 1119 1226 758 
Q 1494 397 1959 397 
Q 2419 397 2687 759 
Q 2956 1122 2956 1747 
Q 2956 2369 2687 2733 
Q 2419 3097 1959 3097 
z
M 1959 3584 
Q 2709 3584 3137 3096 
Q 3566 2609 3566 1747 
Q 3566 888 3137 398 
Q 2709 -91 1959 -91 
Q 1206 -91 779 398 
Q 353 888 353 1747 
Q 353 2609 779 3096 
Q 1206 3584 1959 3584 
z
" transform="scale(0.015625)"/>
      <path id="DejaVuSans-72" d="M 2631 2963 
Q 2534 3019 2420 3045 
Q 2306 3072 2169 3072 
Q 1681 3072 1420 2755 
Q 1159 2438 1159 1844 
L 1159 0 
L 581 0 
L 581 3500 
L 1159 3500 
L 1159 2956 
Q 1341 3275 1631 3429 
Q 1922 3584 2338 3584 
Q 2397 3584 2469 3576 
Q 2541 3569 2628 3553 
L 2631 2963 
z
" transform="scale(0.015625)"/>
      <path id="DejaVuSans-68" d="M 3513 2113 
L 3513 0 
L 2938 0 
L 2938 2094 
Q 2938 2591 2744 2837 
Q 2550 3084 2163 3084 
Q 1697 3084 1428 2787 
Q 1159 2491 1159 1978 
L 1159 0 
L 581 0 
L 581 4863 
L 1159 4863 
L 1159 2956 
Q 1366 3272 1645 3428 
Q 1925 3584 2291 3584 
Q 2894 3584 3203 3211 
Q 3513 2838 3513 2113 
z
" transform="scale(0.015625)"/>
      <path id="DejaVuSans-66" d="M 2375 4863 
L 2375 4384 
L 1825 4384 
Q 1516 4384 1395 4259 
Q 1275 4134 1275 3809 
L 1275 3500 
L 2222 3500 
L 2222 3053 
L 1275 3053 
L 1275 0 
L 697 0 
L 697 3053 
L 147 3053 
L 147 3500 
L 697 3500 
L 697 3744 
Q 697 4328 969 4595 
Q 1241 4863 1831 4863 
L 2375 4863 
z
" transform="scale(0.015625)"/>
      <path id="DejaVuSans-6c" d="M 603 4863 
L 1178 4863 
L 1178 0 
L 603 0 
L 603 4863 
z
" transform="scale(0.015625)"/>
      <path id="DejaVuSans-6d" d="M 3328 2828 
Q 3544 3216 3844 3400 
Q 4144 3584 4550 3584 
Q 5097 3584 5394 3201 
Q 5691 2819 5691 2113 
L 5691 0 
L 5113 0 
L 5113 2094 
Q 5113 2597 4934 2840 
Q 4756 3084 4391 3084 
Q 3944 3084 3684 2787 
Q 3425 2491 3425 1978 
L 3425 0 
L 2847 0 
L 2847 2094 
Q 2847 2600 2669 2842 
Q 2491 3084 2119 3084 
Q 1678 3084 1418 2786 
Q 1159 2488 1159 1978 
L 1159 0 
L 581 0 
L 581 3500 
L 1159 3500 
L 1159 2956 
Q 1356 3278 1631 3431 
Q 1906 3584 2284 3584 
Q 2666 3584 2933 3390 
Q 3200 3197 3328 2828 
z
" transform="scale(0.015625)"/>
     </defs>
     <use xlink:href="#DejaVuSans-51"/>
     <use xlink:href="#DejaVuSans-75" x="78.710938"/>
     <use xlink:href="#DejaVuSans-65" x="142.089844"/>
     <use xlink:href="#DejaVuSans-75" x="203.613281"/>
     <use xlink:href="#DejaVuSans-65" x="266.992188"/>
     <use xlink:href="#DejaVuSans-20" x="328.515625"/>
     <use xlink:href="#DejaVuSans-73" x="360.302734"/>
     <use xlink:href="#DejaVuSans-69" x="412.402344"/>
     <use xlink:href="#DejaVuSans-7a" x="440.185547"/>
     <use xlink:href="#DejaVuSans-65" x="492.675781"/>
     <use xlink:href="#DejaVuSans-20" x="554.199219"/>
     <use xlink:href="#DejaVuSans-28" x="585.986328"/>
     <use xlink:href="#DejaVuSans-79" x="625"/>
     <use xlink:href="#DejaVuSans-2d" x="682.429688"/>
     <use xlink:href="#DejaVuSans-61" x="718.513672"/>
     <use xlink:href="#DejaVuSans-78" x="779.792969"/>
     <use xlink:href="#DejaVuSans-69" x="838.972656"/>
     <use xlink:href="#DejaVuSans-73" x="866.755859"/>
     <use xlink:href="#DejaVuSans-29" x="918.855469"/>
     <use xlink:href="#DejaVuSans-20" x="957.869141"/>
     <use xlink:href="#DejaVuSans-62" x="989.65625"/>
     <use xlink:href="#DejaVuSans-65" x="1053.132812"/>
     <use xlink:href="#DejaVuSans-74" x="1114.65625"/>
     <use xlink:href="#DejaVuSans-77" x="1153.865234"/>
     <use xlink:href="#DejaVuSans-65" x="1235.652344"/>
     <use xlink:href="#DejaVuSans-65" x="1297.175781"/>
     <use xlink:href="#DejaVuSans-6e" x="1358.699219"/>
     <use xlink:href="#DejaVuSans-20" x="1422.078125"/>
     <use xlink:href="#DejaVuSans-53" x="1453.865234"/>
     <use xlink:href="#DejaVuSans-37" x="1517.341797"/>
     <use xlink:href="#DejaVuSans-20" x="1580.964844"/>
     <use xlink:href="#DejaVuSans-61" x="1612.751953"/>
     <use xlink:href="#DejaVuSans-6e" x="1674.03125"/>
     <use xlink:href="#DejaVuSans-64" x="1737.410156"/>
     <use xlink:href="#DejaVuSans-20" x="1800.886719"/>
     <use xlink:href="#DejaVuSans-73" x="1832.673828"/>
     <use xlink:href="#DejaVuSans-65" x="1884.773438"/>
     <use xlink:href="#DejaVuSans-6e" x="1946.296875"/>
     <use xlink:href="#DejaVuSans-73" x="2009.675781"/>
     <use xlink:href="#DejaVuSans-6f" x="2061.775391"/>
     <use xlink:href="#DejaVuSans-72" x="2122.957031"/>
     <use xlink:href="#DejaVuSans-73" x="2164.070312"/>
     <use xlink:href="#DejaVuSans-20" x="2216.169922"/>
     <use xlink:href="#DejaVuSans-74" x="2247.957031"/>
     <use xlink:href="#DejaVuSans-68" x="2287.166016"/>
     <use xlink:href="#DejaVuSans-61" x="2350.544922"/>
     <use xlink:href="#DejaVuSans-74" x="2411.824219"/>
     <use xlink:href="#DejaVuSans-20" x="2451.033203"/>
     <use xlink:href="#DejaVuSans-66" x="2482.820312"/>
     <use xlink:href="#DejaVuSans-6f" x="2518.025391"/>
     <use xlink:href="#DejaVuSans-6c" x="2579.207031"/>
     <use xlink:href="#DejaVuSans-6c" x="2606.990234"/>
     <use xlink:href="#DejaVuSans-6f" x="2634.773438"/>
     <use xlink:href="#DejaVuSans-77" x="2695.955078"/>
     <use xlink:href="#DejaVuSans-20" x="2777.742188"/>
     <use xlink:href="#DejaVuSans-61" x="2809.529297"/>
     <use xlink:href="#DejaVuSans-74" x="2870.808594"/>
     <use xlink:href="#DejaVuSans-20" x="2910.017578"/>
     <use xlink:href="#DejaVuSans-61" x="2941.804688"/>
     <use xlink:href="#DejaVuSans-20" x="3003.083984"/>
     <use xlink:href="#DejaVuSans-74" x="3034.871094"/>
     <use xlink:href="#DejaVuSans-69" x="3074.080078"/>
     <use xlink:href="#DejaVuSans-6d" x="3101.863281"/>
     <use xlink:href="#DejaVuSans-65" x="3199.275391"/>
     <use xlink:href="#DejaVuSans-20" x="3260.798828"/>
     <use xlink:href="#DejaVuSans-28" x="3292.585938"/>
     <use xlink:href="#DejaVuSans-78" x="3331.599609"/>
     <use xlink:href="#DejaVuSans-2d" x="3390.779297"/>
     <use xlink:href="#DejaVuSans-61" x="3426.863281"/>
     <use xlink:href="#DejaVuSans-78" x="3488.142578"/>
     <use xlink:href="#DejaVuSans-69" x="3547.322266"/>
     <use xlink:href="#DejaVuSans-73" x="3575.105469"/>
     <use xlink:href="#DejaVuSans-29" x="3627.205078"/>
     <use xlink:href="#DejaVuSans-2e" x="3666.21875"/>
    </g>
   </g>
  </g>
 </g>
 <defs>
  <clipPath id="pcb90ef8d32">
   <rect x="57.6" y="41.472" width="357.12" height="266.112"/>
  </clipPath>
 </defs>
</svg>
