<?xml version="1.0" encoding="utf-8" standalone="no"?>
<!DOCTYPE svg PUBLIC "-//W3C//DTD SVG 1.1//EN"
  "http://www.w3.org/Graphics/SVG/1.1/DTD/svg11.dtd">
<svg xmlns:xlink="http://www.w3.org/1999/xlink" width="460.8pt" height="345.6pt" viewBox="0 0 460.8 345.6" xmlns="http://www.w3.org/2000/svg" version="1.1">
 <metadata>
  <rdf:RDF xmlns:dc="http://purl.org/dc/elements/1.1/" xmlns:cc="http://creativecommons.org/ns#" xmlns:rdf="http://www.w3.org/1999/02/22-rdf-syntax-ns#">
   <cc:Work>
    <dc:type rdf:resource="http://purl.org/dc/dcmitype/StillImage"/>
    <dc:date>2024-03-08T12:40:43.942307</dc:date>
    <dc:format>image/svg+xml</dc:format>
    <dc:creator>
     <cc:Agent>
      <dc:title>Matplotlib v3.8.2, https://matplotlib.org/</dc:title>
     </cc:Agent>
    </dc:creator>
   </cc:Work>
  </rdf:RDF>
 </metadata>
 <defs>
  <style type="text/css">*{stroke-linejoin: round; stroke-linecap: butt}</style>
 </defs>
 <g id="figure_1">
  <g id="patch_1">
   <path d="M 0 345.6 
L 460.8 345.6 
L 460.8 0 
L 0 0 
z
" style="fill: #ffffff"/>
  </g>
  <g id="axes_1">
   <g id="patch_2">
    <path d="M 57.6 307.584 
L 414.72 307.584 
L 414.72 41.472 
L 57.6 41.472 
z
" style="fill: #ffffff"/>
   </g>
   <g id="matplotlib.axis_1">
    <g id="xtick_1">
     <g id="line2d_1">
      <defs>
       <path id="mac38bb5b6c" d="M 0 0 
L 0 3.5 
" style="stroke: #000000; stroke-width: 0.8"/>
      </defs>
      <g>
       <use xlink:href="#mac38bb5b6c" x="73.832727" y="307.584" style="stroke: #000000; stroke-width: 0.8"/>
      </g>
     </g>
     <g id="text_1">
      <!-- 0 -->
      <g transform="translate(70.651477 322.182437) scale(0.1 -0.1)">
       <defs>
        <path id="DejaVuSans-30" d="M 2034 4250 
Q 1547 4250 1301 3770 
Q 1056 3291 1056 2328 
Q 1056 1369 1301 889 
Q 1547 409 2034 409 
Q 2525 409 2770 889 
Q 3016 1369 3016 2328 
Q 3016 3291 2770 3770 
Q 2525 4250 2034 4250 
z
M 2034 4750 
Q 2819 4750 3233 4129 
Q 3647 3509 3647 2328 
Q 3647 1150 3233 529 
Q 2819 -91 2034 -91 
Q 1250 -91 836 529 
Q 422 1150 422 2328 
Q 422 3509 836 4129 
Q 1250 4750 2034 4750 
z
" transform="scale(0.015625)"/>
       </defs>
       <use xlink:href="#DejaVuSans-30"/>
      </g>
     </g>
    </g>
    <g id="xtick_2">
     <g id="line2d_2">
      <g>
       <use xlink:href="#mac38bb5b6c" x="113.716578" y="307.584" style="stroke: #000000; stroke-width: 0.8"/>
      </g>
     </g>
     <g id="text_2">
      <!-- 20000 -->
      <g transform="translate(97.810328 322.182437) scale(0.1 -0.1)">
       <defs>
        <path id="DejaVuSans-32" d="M 1228 531 
L 3431 531 
L 3431 0 
L 469 0 
L 469 531 
Q 828 903 1448 1529 
Q 2069 2156 2228 2338 
Q 2531 2678 2651 2914 
Q 2772 3150 2772 3378 
Q 2772 3750 2511 3984 
Q 2250 4219 1831 4219 
Q 1534 4219 1204 4116 
Q 875 4013 500 3803 
L 500 4441 
Q 881 4594 1212 4672 
Q 1544 4750 1819 4750 
Q 2544 4750 2975 4387 
Q 3406 4025 3406 3419 
Q 3406 3131 3298 2873 
Q 3191 2616 2906 2266 
Q 2828 2175 2409 1742 
Q 1991 1309 1228 531 
z
" transform="scale(0.015625)"/>
       </defs>
       <use xlink:href="#DejaVuSans-32"/>
       <use xlink:href="#DejaVuSans-30" x="63.623047"/>
       <use xlink:href="#DejaVuSans-30" x="127.246094"/>
       <use xlink:href="#DejaVuSans-30" x="190.869141"/>
       <use xlink:href="#DejaVuSans-30" x="254.492188"/>
      </g>
     </g>
    </g>
    <g id="xtick_3">
     <g id="line2d_3">
      <g>
       <use xlink:href="#mac38bb5b6c" x="153.600429" y="307.584" style="stroke: #000000; stroke-width: 0.8"/>
      </g>
     </g>
     <g id="text_3">
      <!-- 40000 -->
      <g transform="translate(137.694179 322.182437) scale(0.1 -0.1)">
       <defs>
        <path id="DejaVuSans-34" d="M 2419 4116 
L 825 1625 
L 2419 1625 
L 2419 4116 
z
M 2253 4666 
L 3047 4666 
L 3047 1625 
L 3713 1625 
L 3713 1100 
L 3047 1100 
L 3047 0 
L 2419 0 
L 2419 1100 
L 313 1100 
L 313 1709 
L 2253 4666 
z
" transform="scale(0.015625)"/>
       </defs>
       <use xlink:href="#DejaVuSans-34"/>
       <use xlink:href="#DejaVuSans-30" x="63.623047"/>
       <use xlink:href="#DejaVuSans-30" x="127.246094"/>
       <use xlink:href="#DejaVuSans-30" x="190.869141"/>
       <use xlink:href="#DejaVuSans-30" x="254.492188"/>
      </g>
     </g>
    </g>
    <g id="xtick_4">
     <g id="line2d_4">
      <g>
       <use xlink:href="#mac38bb5b6c" x="193.48428" y="307.584" style="stroke: #000000; stroke-width: 0.8"/>
      </g>
     </g>
     <g id="text_4">
      <!-- 60000 -->
      <g transform="translate(177.57803 322.182437) scale(0.1 -0.1)">
       <defs>
        <path id="DejaVuSans-36" d="M 2113 2584 
Q 1688 2584 1439 2293 
Q 1191 2003 1191 1497 
Q 1191 994 1439 701 
Q 1688 409 2113 409 
Q 2538 409 2786 701 
Q 3034 994 3034 1497 
Q 3034 2003 2786 2293 
Q 2538 2584 2113 2584 
z
M 3366 4563 
L 3366 3988 
Q 3128 4100 2886 4159 
Q 2644 4219 2406 4219 
Q 1781 4219 1451 3797 
Q 1122 3375 1075 2522 
Q 1259 2794 1537 2939 
Q 1816 3084 2150 3084 
Q 2853 3084 3261 2657 
Q 3669 2231 3669 1497 
Q 3669 778 3244 343 
Q 2819 -91 2113 -91 
Q 1303 -91 875 529 
Q 447 1150 447 2328 
Q 447 3434 972 4092 
Q 1497 4750 2381 4750 
Q 2619 4750 2861 4703 
Q 3103 4656 3366 4563 
z
" transform="scale(0.015625)"/>
       </defs>
       <use xlink:href="#DejaVuSans-36"/>
       <use xlink:href="#DejaVuSans-30" x="63.623047"/>
       <use xlink:href="#DejaVuSans-30" x="127.246094"/>
       <use xlink:href="#DejaVuSans-30" x="190.869141"/>
       <use xlink:href="#DejaVuSans-30" x="254.492188"/>
      </g>
     </g>
    </g>
    <g id="xtick_5">
     <g id="line2d_5">
      <g>
       <use xlink:href="#mac38bb5b6c" x="233.36813" y="307.584" style="stroke: #000000; stroke-width: 0.8"/>
      </g>
     </g>
     <g id="text_5">
      <!-- 80000 -->
      <g transform="translate(217.46188 322.182437) scale(0.1 -0.1)">
       <defs>
        <path id="DejaVuSans-38" d="M 2034 2216 
Q 1584 2216 1326 1975 
Q 1069 1734 1069 1313 
Q 1069 891 1326 650 
Q 1584 409 2034 409 
Q 2484 409 2743 651 
Q 3003 894 3003 1313 
Q 3003 1734 2745 1975 
Q 2488 2216 2034 2216 
z
M 1403 2484 
Q 997 2584 770 2862 
Q 544 3141 544 3541 
Q 544 4100 942 4425 
Q 1341 4750 2034 4750 
Q 2731 4750 3128 4425 
Q 3525 4100 3525 3541 
Q 3525 3141 3298 2862 
Q 3072 2584 2669 2484 
Q 3125 2378 3379 2068 
Q 3634 1759 3634 1313 
Q 3634 634 3220 271 
Q 2806 -91 2034 -91 
Q 1263 -91 848 271 
Q 434 634 434 1313 
Q 434 1759 690 2068 
Q 947 2378 1403 2484 
z
M 1172 3481 
Q 1172 3119 1398 2916 
Q 1625 2713 2034 2713 
Q 2441 2713 2670 2916 
Q 2900 3119 2900 3481 
Q 2900 3844 2670 4047 
Q 2441 4250 2034 4250 
Q 1625 4250 1398 4047 
Q 1172 3844 1172 3481 
z
" transform="scale(0.015625)"/>
       </defs>
       <use xlink:href="#DejaVuSans-38"/>
       <use xlink:href="#DejaVuSans-30" x="63.623047"/>
       <use xlink:href="#DejaVuSans-30" x="127.246094"/>
       <use xlink:href="#DejaVuSans-30" x="190.869141"/>
       <use xlink:href="#DejaVuSans-30" x="254.492188"/>
      </g>
     </g>
    </g>
    <g id="xtick_6">
     <g id="line2d_6">
      <g>
       <use xlink:href="#mac38bb5b6c" x="273.251981" y="307.584" style="stroke: #000000; stroke-width: 0.8"/>
      </g>
     </g>
     <g id="text_6">
      <!-- 100000 -->
      <g transform="translate(254.164481 322.182437) scale(0.1 -0.1)">
       <defs>
        <path id="DejaVuSans-31" d="M 794 531 
L 1825 531 
L 1825 4091 
L 703 3866 
L 703 4441 
L 1819 4666 
L 2450 4666 
L 2450 531 
L 3481 531 
L 3481 0 
L 794 0 
L 794 531 
z
" transform="scale(0.015625)"/>
       </defs>
       <use xlink:href="#DejaVuSans-31"/>
       <use xlink:href="#DejaVuSans-30" x="63.623047"/>
       <use xlink:href="#DejaVuSans-30" x="127.246094"/>
       <use xlink:href="#DejaVuSans-30" x="190.869141"/>
       <use xlink:href="#DejaVuSans-30" x="254.492188"/>
       <use xlink:href="#DejaVuSans-30" x="318.115234"/>
      </g>
     </g>
    </g>
    <g id="xtick_7">
     <g id="line2d_7">
      <g>
       <use xlink:href="#mac38bb5b6c" x="313.135832" y="307.584" style="stroke: #000000; stroke-width: 0.8"/>
      </g>
     </g>
     <g id="text_7">
      <!-- 120000 -->
      <g transform="translate(294.048332 322.182437) scale(0.1 -0.1)">
       <use xlink:href="#DejaVuSans-31"/>
       <use xlink:href="#DejaVuSans-32" x="63.623047"/>
       <use xlink:href="#DejaVuSans-30" x="127.246094"/>
       <use xlink:href="#DejaVuSans-30" x="190.869141"/>
       <use xlink:href="#DejaVuSans-30" x="254.492188"/>
       <use xlink:href="#DejaVuSans-30" x="318.115234"/>
      </g>
     </g>
    </g>
    <g id="xtick_8">
     <g id="line2d_8">
      <g>
       <use xlink:href="#mac38bb5b6c" x="353.019683" y="307.584" style="stroke: #000000; stroke-width: 0.8"/>
      </g>
     </g>
     <g id="text_8">
      <!-- 140000 -->
      <g transform="translate(333.932183 322.182437) scale(0.1 -0.1)">
       <use xlink:href="#DejaVuSans-31"/>
       <use xlink:href="#DejaVuSans-34" x="63.623047"/>
       <use xlink:href="#DejaVuSans-30" x="127.246094"/>
       <use xlink:href="#DejaVuSans-30" x="190.869141"/>
       <use xlink:href="#DejaVuSans-30" x="254.492188"/>
       <use xlink:href="#DejaVuSans-30" x="318.115234"/>
      </g>
     </g>
    </g>
    <g id="xtick_9">
     <g id="line2d_9">
      <g>
       <use xlink:href="#mac38bb5b6c" x="392.903534" y="307.584" style="stroke: #000000; stroke-width: 0.8"/>
      </g>
     </g>
     <g id="text_9">
      <!-- 160000 -->
      <g transform="translate(373.816034 322.182437) scale(0.1 -0.1)">
       <use xlink:href="#DejaVuSans-31"/>
       <use xlink:href="#DejaVuSans-36" x="63.623047"/>
       <use xlink:href="#DejaVuSans-30" x="127.246094"/>
       <use xlink:href="#DejaVuSans-30" x="190.869141"/>
       <use xlink:href="#DejaVuSans-30" x="254.492188"/>
       <use xlink:href="#DejaVuSans-30" x="318.115234"/>
      </g>
     </g>
    </g>
   </g>
   <g id="matplotlib.axis_2">
    <g id="ytick_1">
     <g id="line2d_10">
      <defs>
       <path id="mc522593606" d="M 0 0 
L -3.5 0 
" style="stroke: #000000; stroke-width: 0.8"/>
      </defs>
      <g>
       <use xlink:href="#mc522593606" x="57.6" y="295.488" style="stroke: #000000; stroke-width: 0.8"/>
      </g>
     </g>
     <g id="text_10">
      <!-- 0.0 -->
      <g transform="translate(34.696875 299.287219) scale(0.1 -0.1)">
       <defs>
        <path id="DejaVuSans-2e" d="M 684 794 
L 1344 794 
L 1344 0 
L 684 0 
L 684 794 
z
" transform="scale(0.015625)"/>
       </defs>
       <use xlink:href="#DejaVuSans-30"/>
       <use xlink:href="#DejaVuSans-2e" x="63.623047"/>
       <use xlink:href="#DejaVuSans-30" x="95.410156"/>
      </g>
     </g>
    </g>
    <g id="ytick_2">
     <g id="line2d_11">
      <g>
       <use xlink:href="#mc522593606" x="57.6" y="247.104" style="stroke: #000000; stroke-width: 0.8"/>
      </g>
     </g>
     <g id="text_11">
      <!-- 0.2 -->
      <g transform="translate(34.696875 250.903219) scale(0.1 -0.1)">
       <use xlink:href="#DejaVuSans-30"/>
       <use xlink:href="#DejaVuSans-2e" x="63.623047"/>
       <use xlink:href="#DejaVuSans-32" x="95.410156"/>
      </g>
     </g>
    </g>
    <g id="ytick_3">
     <g id="line2d_12">
      <g>
       <use xlink:href="#mc522593606" x="57.6" y="198.72" style="stroke: #000000; stroke-width: 0.8"/>
      </g>
     </g>
     <g id="text_12">
      <!-- 0.4 -->
      <g transform="translate(34.696875 202.519219) scale(0.1 -0.1)">
       <use xlink:href="#DejaVuSans-30"/>
       <use xlink:href="#DejaVuSans-2e" x="63.623047"/>
       <use xlink:href="#DejaVuSans-34" x="95.410156"/>
      </g>
     </g>
    </g>
    <g id="ytick_4">
     <g id="line2d_13">
      <g>
       <use xlink:href="#mc522593606" x="57.6" y="150.336" style="stroke: #000000; stroke-width: 0.8"/>
      </g>
     </g>
     <g id="text_13">
      <!-- 0.6 -->
      <g transform="translate(34.696875 154.135219) scale(0.1 -0.1)">
       <use xlink:href="#DejaVuSans-30"/>
       <use xlink:href="#DejaVuSans-2e" x="63.623047"/>
       <use xlink:href="#DejaVuSans-36" x="95.410156"/>
      </g>
     </g>
    </g>
    <g id="ytick_5">
     <g id="line2d_14">
      <g>
       <use xlink:href="#mc522593606" x="57.6" y="101.952" style="stroke: #000000; stroke-width: 0.8"/>
      </g>
     </g>
     <g id="text_14">
      <!-- 0.8 -->
      <g transform="translate(34.696875 105.751219) scale(0.1 -0.1)">
       <use xlink:href="#DejaVuSans-30"/>
       <use xlink:href="#DejaVuSans-2e" x="63.623047"/>
       <use xlink:href="#DejaVuSans-38" x="95.410156"/>
      </g>
     </g>
    </g>
    <g id="ytick_6">
     <g id="line2d_15">
      <g>
       <use xlink:href="#mc522593606" x="57.6" y="53.568" style="stroke: #000000; stroke-width: 0.8"/>
      </g>
     </g>
     <g id="text_15">
      <!-- 1.0 -->
      <g transform="translate(34.696875 57.367219) scale(0.1 -0.1)">
       <use xlink:href="#DejaVuSans-31"/>
       <use xlink:href="#DejaVuSans-2e" x="63.623047"/>
       <use xlink:href="#DejaVuSans-30" x="95.410156"/>
      </g>
     </g>
    </g>
   </g>
   <g id="line2d_16">
    <path d="M 73.832727 295.488 
L 73.912495 295.488 
L 73.992263 293.474098 
L 73.992263 293.474098 
L 74.052088 293.474098 
L 74.052088 292.467147 
L 74.052088 292.467147 
L 74.17174 292.467147 
L 74.191682 290.453245 
L 74.191682 290.453245 
L 74.291392 290.453245 
L 74.311333 288.187605 
L 74.311333 288.187605 
L 74.470869 288.187605 
L 74.530695 285.166751 
L 74.530695 285.166751 
L 74.610462 285.166751 
L 74.610462 284.1598 
L 74.610462 284.1598 
L 75.168836 284.1598 
L 75.168836 283.404587 
L 75.168836 283.404587 
L 75.647442 283.404587 
L 75.647442 282.901111 
L 75.647442 282.901111 
L 76.205816 282.901111 
L 76.225758 282.145898 
L 76.225758 282.145898 
L 76.405236 282.145898 
L 76.504945 280.635471 
L 76.504945 280.635471 
L 77.143087 280.635471 
L 77.143087 280.383734 
L 77.621693 280.383734 
L 77.621693 279.880258 
L 77.621693 279.880258 
L 78.180067 279.880258 
L 78.180067 279.376783 
L 78.180067 279.376783 
L 80.59304 279.376783 
L 80.59304 278.873307 
L 80.59304 278.873307 
L 81.330891 278.873307 
L 81.330891 278.369831 
L 81.330891 278.369831 
L 82.667 278.369831 
L 82.667 277.866356 
L 82.667 277.866356 
L 83.025955 277.866356 
L 83.105723 276.859405 
L 83.105723 276.859405 
L 83.18549 276.859405 
L 83.2852 275.348978 
L 83.2852 275.348978 
L 83.325084 275.348978 
L 83.404851 274.342027 
L 83.404851 274.342027 
L 83.444735 274.342027 
L 83.544445 272.579863 
L 83.544445 272.579863 
L 83.564387 272.579863 
L 83.664096 268.552058 
L 83.664096 268.552058 
L 83.70398 268.552058 
L 83.80369 265.531205 
L 83.80369 265.531205 
L 83.823632 265.531205 
L 83.9034 262.762089 
L 83.9034 262.762089 
L 83.943283 262.762089 
L 84.042993 256.972121 
L 84.042993 256.972121 
L 84.082877 256.972121 
L 84.182587 251.182152 
L 84.182587 251.182152 
L 84.202528 251.182152 
L 84.302238 245.140445 
L 84.302238 245.140445 
L 84.32218 245.140445 
L 84.42189 237.336574 
L 84.42189 237.336574 
L 84.441832 237.336574 
L 84.541541 231.798343 
L 84.541541 231.798343 
L 84.561483 231.798343 
L 84.661193 228.022277 
L 84.661193 228.022277 
L 84.681135 228.022277 
L 84.760902 223.239259 
L 84.760902 223.239259 
L 84.820728 223.239259 
L 84.880554 215.938864 
L 84.880554 215.938864 
L 84.94038 215.938864 
L 85.040089 209.897157 
L 85.040089 209.897157 
L 85.060031 209.897157 
L 85.139799 200.58286 
L 85.179683 200.58286 
L 85.239509 197.813744 
L 85.239509 197.813744 
L 85.299334 197.813744 
L 85.379102 192.275513 
L 85.379102 192.275513 
L 85.438928 192.275513 
L 85.498754 190.261611 
L 85.598463 190.261611 
L 85.678231 188.751184 
L 85.678231 188.751184 
L 85.777941 188.751184 
L 85.817824 187.492495 
L 85.817824 187.492495 
L 91.202144 187.492495 
L 91.202144 186.98902 
L 91.202144 186.98902 
L 91.421505 186.98902 
L 91.421505 186.485544 
L 91.421505 186.485544 
L 91.959937 186.485544 
L 91.959937 186.233806 
L 92.099531 186.233806 
L 92.099531 185.730331 
L 92.099531 185.730331 
L 92.358776 185.730331 
L 92.358776 185.226855 
L 92.358776 185.226855 
L 92.478428 185.226855 
L 92.478428 184.975118 
L 92.717731 184.975118 
L 92.717731 184.471642 
L 92.717731 184.471642 
L 93.236221 184.471642 
L 93.236221 183.968166 
L 93.236221 183.968166 
L 93.674943 183.968166 
L 93.754711 182.709478 
L 93.754711 182.709478 
L 94.392852 182.709478 
L 94.392852 181.702527 
L 94.392852 181.702527 
L 94.791691 181.702527 
L 94.791691 180.947313 
L 94.791691 180.947313 
L 94.99111 180.947313 
L 95.030994 178.933411 
L 95.030994 178.933411 
L 95.130704 178.933411 
L 95.130704 177.92646 
L 95.130704 177.92646 
L 95.290239 177.92646 
L 95.389949 173.143442 
L 95.389949 173.143442 
L 95.409891 173.143442 
L 95.409891 172.136491 
L 95.409891 172.136491 
L 95.689078 172.136491 
L 95.768845 169.367376 
L 95.768845 169.367376 
L 95.848613 169.367376 
L 95.948323 166.346522 
L 95.948323 166.346522 
L 96.008148 166.346522 
L 96.067974 160.556554 
L 96.067974 160.556554 
L 96.167684 160.556554 
L 96.247451 156.528749 
L 96.367103 156.528749 
L 96.426929 154.766585 
L 96.426929 154.766585 
L 96.64629 154.766585 
L 96.706116 150.73878 
L 96.706116 150.73878 
L 96.805825 150.73878 
L 96.805825 149.983567 
L 96.805825 149.983567 
L 97.124896 149.983567 
L 97.16478 148.47314 
L 97.16478 148.47314 
L 97.324315 148.47314 
L 97.324315 147.466189 
L 97.324315 147.466189 
L 97.663328 147.466189 
L 97.68327 146.459238 
L 97.68327 146.459238 
L 97.902631 146.459238 
L 97.902631 145.955763 
L 97.902631 145.955763 
L 98.381237 145.955763 
L 98.421121 144.445336 
L 98.421121 144.445336 
L 98.740192 144.445336 
L 98.740192 143.941861 
L 98.740192 143.941861 
L 98.859844 143.941861 
L 98.959553 142.431434 
L 98.959553 142.431434 
L 98.999437 142.431434 
L 99.099147 140.921007 
L 99.099147 140.921007 
L 99.119089 140.921007 
L 99.119089 140.417532 
L 99.119089 140.417532 
L 99.23874 140.417532 
L 99.23874 139.662318 
L 99.23874 139.662318 
L 99.398276 139.662318 
L 99.418218 138.151892 
L 99.418218 138.151892 
L 99.537869 138.151892 
L 99.637579 136.641465 
L 99.637579 136.641465 
L 99.677463 136.641465 
L 99.677463 136.13799 
L 99.677463 136.13799 
L 99.95665 136.13799 
L 99.95665 134.627563 
L 99.95665 134.627563 
L 100.156069 134.627563 
L 100.156069 133.620612 
L 100.156069 133.620612 
L 100.554907 133.620612 
L 100.554907 133.117136 
L 100.554907 133.117136 
L 100.694501 133.117136 
L 100.694501 132.361923 
L 100.694501 132.361923 
L 100.873978 132.361923 
L 100.953746 129.844545 
L 100.953746 129.844545 
L 100.99363 129.844545 
L 100.99363 128.837594 
L 100.99363 128.837594 
L 101.173107 128.837594 
L 101.173107 128.585856 
L 101.472236 128.585856 
L 101.472236 127.578905 
L 101.472236 127.578905 
L 103.027706 127.578905 
L 103.027706 126.571954 
L 103.027706 126.571954 
L 103.785499 126.571954 
L 103.785499 125.565003 
L 103.785499 125.565003 
L 104.064686 125.565003 
L 104.064686 123.299363 
L 104.064686 123.299363 
L 104.463525 123.299363 
L 104.463525 122.292412 
L 104.463525 122.292412 
L 104.643002 122.292412 
L 104.702828 120.27851 
L 104.702828 120.27851 
L 104.962073 120.27851 
L 104.962073 119.271559 
L 104.962073 119.271559 
L 105.281144 119.271559 
L 105.360911 117.257657 
L 105.360911 117.257657 
L 105.779692 117.257657 
L 105.779692 116.250706 
L 105.779692 116.250706 
L 106.158588 116.250706 
L 106.158588 115.74723 
L 106.158588 115.74723 
L 106.27824 115.74723 
L 106.358008 113.733328 
L 106.358008 113.733328 
L 106.457717 113.733328 
L 106.457717 112.726377 
L 106.457717 112.726377 
L 106.657136 112.726377 
L 106.756846 108.698572 
L 106.756846 108.698572 
L 107.075917 108.698572 
L 107.175627 102.405128 
L 107.175627 102.405128 
L 107.355104 102.405128 
L 107.394988 99.384275 
L 107.394988 99.384275 
L 107.574465 99.384275 
L 107.574465 98.377324 
L 107.574465 98.377324 
L 107.993245 98.377324 
L 107.993245 95.859946 
L 107.993245 95.859946 
L 110.884825 95.859946 
L 110.884825 95.35647 
L 110.884825 95.35647 
L 111.04436 95.35647 
L 111.04436 94.852995 
L 111.04436 94.852995 
L 111.323547 94.852995 
L 111.323547 94.097781 
L 111.323547 94.097781 
L 111.822095 94.097781 
L 111.822095 93.342568 
L 111.822095 93.342568 
L 112.061398 93.342568 
L 112.101282 92.335617 
L 112.101282 92.335617 
L 112.200992 92.335617 
L 112.200992 91.076928 
L 112.200992 91.076928 
L 112.380469 91.076928 
L 112.460237 90.069977 
L 112.460237 90.069977 
L 112.500121 90.069977 
L 112.59983 88.55955 
L 112.59983 88.55955 
L 112.659656 88.55955 
L 112.659656 88.056075 
L 112.659656 88.056075 
L 112.859075 88.056075 
L 112.898959 87.049124 
L 112.898959 87.049124 
L 113.078436 87.049124 
L 113.078436 86.545648 
L 113.078436 86.545648 
L 113.357623 86.545648 
L 113.357623 86.042173 
L 113.357623 86.042173 
L 113.477275 86.042173 
L 113.477275 85.538697 
L 113.477275 85.538697 
L 114.833326 85.538697 
L 114.833326 84.531746 
L 114.833326 84.531746 
L 115.830422 84.531746 
L 115.830422 83.273057 
L 115.830422 83.273057 
L 116.269145 83.273057 
L 116.269145 82.266106 
L 116.269145 82.266106 
L 116.787635 82.266106 
L 116.787635 81.007417 
L 116.787635 81.007417 
L 116.94717 81.007417 
L 116.967112 78.741777 
L 116.967112 78.741777 
L 117.724905 78.741777 
L 117.724905 77.734826 
L 117.724905 77.734826 
L 120.456949 77.734826 
L 120.456949 77.483088 
L 121.673406 77.483088 
L 121.673406 76.979613 
L 121.673406 76.979613 
L 123.707483 76.979613 
L 123.707483 76.2244 
L 123.707483 76.2244 
L 123.926844 76.2244 
L 123.926844 75.217448 
L 123.926844 75.217448 
L 124.365566 75.217448 
L 124.365566 74.210497 
L 124.365566 74.210497 
L 124.604869 74.210497 
L 124.604869 73.203546 
L 124.604869 73.203546 
L 124.724521 73.203546 
L 124.724521 71.69312 
L 124.724521 71.69312 
L 124.92394 71.69312 
L 124.92394 70.686169 
L 124.92394 70.686169 
L 125.262953 70.686169 
L 125.262953 69.679217 
L 125.262953 69.679217 
L 125.522198 69.679217 
L 125.522198 68.672266 
L 125.522198 68.672266 
L 126.299933 68.672266 
L 126.299933 67.665315 
L 126.299933 67.665315 
L 131.544659 67.665315 
L 131.544659 66.910102 
L 131.544659 66.910102 
L 159.503239 66.910102 
L 159.503239 65.903151 
L 159.503239 65.903151 
L 161.317954 65.903151 
L 161.317954 65.399675 
L 161.317954 65.399675 
L 162.953192 65.399675 
L 162.953192 64.644462 
L 162.953192 64.644462 
L 182.71564 64.644462 
L 182.71564 63.637511 
L 182.71564 63.637511 
L 187.760947 63.637511 
L 187.760947 63.134035 
L 187.760947 63.134035 
L 196.59522 63.134035 
L 196.59522 62.882298 
L 201.820004 62.882298 
L 201.820004 62.378822 
L 201.820004 62.378822 
L 213.745276 62.378822 
L 213.745276 62.127084 
L 216.158249 62.127084 
L 216.158249 60.616658 
L 216.158249 60.616658 
L 221.961349 60.616658 
L 221.961349 59.609707 
L 221.961349 59.609707 
L 223.257574 59.609707 
L 223.257574 58.602755 
L 223.257574 58.602755 
L 227.704624 58.602755 
L 227.704624 58.09928 
L 227.704624 58.09928 
L 229.997945 58.09928 
L 229.997945 57.847542 
L 237.236864 57.847542 
L 237.236864 57.092329 
L 237.236864 57.092329 
L 246.609569 57.092329 
L 246.609569 56.085378 
L 246.609569 56.085378 
L 328.630708 56.085378 
L 328.630708 55.581902 
L 328.630708 55.581902 
L 355.911262 55.581902 
L 355.911262 55.078427 
L 355.911262 55.078427 
L 370.309332 55.078427 
L 370.309332 54.574951 
L 370.309332 54.574951 
L 383.889783 54.574951 
L 383.889783 54.071476 
L 383.889783 54.071476 
L 398.487273 54.071476 
L 398.487273 53.568 
L 398.487273 53.568 
" clip-path="url(#p0b693f8b29)" style="fill: none; stroke: #1f77b4; stroke-width: 1.5; stroke-linecap: square"/>
   </g>
   <g id="patch_3">
    <path d="M 57.6 307.584 
L 57.6 41.472 
" style="fill: none; stroke: #000000; stroke-width: 0.8; stroke-linejoin: miter; stroke-linecap: square"/>
   </g>
   <g id="patch_4">
    <path d="M 414.72 307.584 
L 414.72 41.472 
" style="fill: none; stroke: #000000; stroke-width: 0.8; stroke-linejoin: miter; stroke-linecap: square"/>
   </g>
   <g id="patch_5">
    <path d="M 57.6 307.584 
L 414.72 307.584 
" style="fill: none; stroke: #000000; stroke-width: 0.8; stroke-linejoin: miter; stroke-linecap: square"/>
   </g>
   <g id="patch_6">
    <path d="M 57.6 41.472 
L 414.72 41.472 
" style="fill: none; stroke: #000000; stroke-width: 0.8; stroke-linejoin: miter; stroke-linecap: square"/>
   </g>
   <g id="text_16">
    <!-- S8 S9 -->
    <g transform="translate(219 35.472) scale(0.12 -0.12)">
     <defs>
      <path id="DejaVuSans-53" d="M 3425 4513 
L 3425 3897 
Q 3066 4069 2747 4153 
Q 2428 4238 2131 4238 
Q 1616 4238 1336 4038 
Q 1056 3838 1056 3469 
Q 1056 3159 1242 3001 
Q 1428 2844 1947 2747 
L 2328 2669 
Q 3034 2534 3370 2195 
Q 3706 1856 3706 1288 
Q 3706 609 3251 259 
Q 2797 -91 1919 -91 
Q 1588 -91 1214 -16 
Q 841 59 441 206 
L 441 856 
Q 825 641 1194 531 
Q 1563 422 1919 422 
Q 2459 422 2753 634 
Q 3047 847 3047 1241 
Q 3047 1584 2836 1778 
Q 2625 1972 2144 2069 
L 1759 2144 
Q 1053 2284 737 2584 
Q 422 2884 422 3419 
Q 422 4038 858 4394 
Q 1294 4750 2059 4750 
Q 2388 4750 2728 4690 
Q 3069 4631 3425 4513 
z
" transform="scale(0.015625)"/>
      <path id="DejaVuSans-20" transform="scale(0.015625)"/>
      <path id="DejaVuSans-39" d="M 703 97 
L 703 672 
Q 941 559 1184 500 
Q 1428 441 1663 441 
Q 2288 441 2617 861 
Q 2947 1281 2994 2138 
Q 2813 1869 2534 1725 
Q 2256 1581 1919 1581 
Q 1219 1581 811 2004 
Q 403 2428 403 3163 
Q 403 3881 828 4315 
Q 1253 4750 1959 4750 
Q 2769 4750 3195 4129 
Q 3622 3509 3622 2328 
Q 3622 1225 3098 567 
Q 2575 -91 1691 -91 
Q 1453 -91 1209 -44 
Q 966 3 703 97 
z
M 1959 2075 
Q 2384 2075 2632 2365 
Q 2881 2656 2881 3163 
Q 2881 3666 2632 3958 
Q 2384 4250 1959 4250 
Q 1534 4250 1286 3958 
Q 1038 3666 1038 3163 
Q 1038 2656 1286 2365 
Q 1534 2075 1959 2075 
z
" transform="scale(0.015625)"/>
     </defs>
     <use xlink:href="#DejaVuSans-53"/>
     <use xlink:href="#DejaVuSans-38" x="63.476562"/>
     <use xlink:href="#DejaVuSans-20" x="127.099609"/>
     <use xlink:href="#DejaVuSans-53" x="158.886719"/>
     <use xlink:href="#DejaVuSans-39" x="222.363281"/>
    </g>
   </g>
   <g id="legend_1">
    <g id="patch_7">
     <path d="M 299.496562 304.584 
L 410.52 304.584 
Q 411.72 304.584 411.72 303.384 
L 411.72 295.177125 
Q 411.72 293.977125 410.52 293.977125 
L 299.496562 293.977125 
Q 298.296562 293.977125 298.296562 295.177125 
L 298.296562 303.384 
Q 298.296562 304.584 299.496562 304.584 
z
" style="fill: #ffffff; opacity: 0.8; stroke: #cccccc; stroke-linejoin: miter"/>
    </g>
    <g id="line2d_17">
     <path d="M 300.696562 298.836187 
L 306.696562 298.836187 
L 312.696562 298.836187 
" style="fill: none; stroke: #1f77b4; stroke-width: 1.5; stroke-linecap: square"/>
    </g>
    <g id="text_17">
     <!-- Execution time between S8 S9 -->
     <g transform="translate(317.496562 300.936187) scale(0.06 -0.06)">
      <defs>
       <path id="DejaVuSans-45" d="M 628 4666 
L 3578 4666 
L 3578 4134 
L 1259 4134 
L 1259 2753 
L 3481 2753 
L 3481 2222 
L 1259 2222 
L 1259 531 
L 3634 531 
L 3634 0 
L 628 0 
L 628 4666 
z
" transform="scale(0.015625)"/>
       <path id="DejaVuSans-78" d="M 3513 3500 
L 2247 1797 
L 3578 0 
L 2900 0 
L 1881 1375 
L 863 0 
L 184 0 
L 1544 1831 
L 300 3500 
L 978 3500 
L 1906 2253 
L 2834 3500 
L 3513 3500 
z
" transform="scale(0.015625)"/>
       <path id="DejaVuSans-65" d="M 3597 1894 
L 3597 1613 
L 953 1613 
Q 991 1019 1311 708 
Q 1631 397 2203 397 
Q 2534 397 2845 478 
Q 3156 559 3463 722 
L 3463 178 
Q 3153 47 2828 -22 
Q 2503 -91 2169 -91 
Q 1331 -91 842 396 
Q 353 884 353 1716 
Q 353 2575 817 3079 
Q 1281 3584 2069 3584 
Q 2775 3584 3186 3129 
Q 3597 2675 3597 1894 
z
M 3022 2063 
Q 3016 2534 2758 2815 
Q 2500 3097 2075 3097 
Q 1594 3097 1305 2825 
Q 1016 2553 972 2059 
L 3022 2063 
z
" transform="scale(0.015625)"/>
       <path id="DejaVuSans-63" d="M 3122 3366 
L 3122 2828 
Q 2878 2963 2633 3030 
Q 2388 3097 2138 3097 
Q 1578 3097 1268 2742 
Q 959 2388 959 1747 
Q 959 1106 1268 751 
Q 1578 397 2138 397 
Q 2388 397 2633 464 
Q 2878 531 3122 666 
L 3122 134 
Q 2881 22 2623 -34 
Q 2366 -91 2075 -91 
Q 1284 -91 818 406 
Q 353 903 353 1747 
Q 353 2603 823 3093 
Q 1294 3584 2113 3584 
Q 2378 3584 2631 3529 
Q 2884 3475 3122 3366 
z
" transform="scale(0.015625)"/>
       <path id="DejaVuSans-75" d="M 544 1381 
L 544 3500 
L 1119 3500 
L 1119 1403 
Q 1119 906 1312 657 
Q 1506 409 1894 409 
Q 2359 409 2629 706 
Q 2900 1003 2900 1516 
L 2900 3500 
L 3475 3500 
L 3475 0 
L 2900 0 
L 2900 538 
Q 2691 219 2414 64 
Q 2138 -91 1772 -91 
Q 1169 -91 856 284 
Q 544 659 544 1381 
z
M 1991 3584 
L 1991 3584 
z
" transform="scale(0.015625)"/>
       <path id="DejaVuSans-74" d="M 1172 4494 
L 1172 3500 
L 2356 3500 
L 2356 3053 
L 1172 3053 
L 1172 1153 
Q 1172 725 1289 603 
Q 1406 481 1766 481 
L 2356 481 
L 2356 0 
L 1766 0 
Q 1100 0 847 248 
Q 594 497 594 1153 
L 594 3053 
L 172 3053 
L 172 3500 
L 594 3500 
L 594 4494 
L 1172 4494 
z
" transform="scale(0.015625)"/>
       <path id="DejaVuSans-69" d="M 603 3500 
L 1178 3500 
L 1178 0 
L 603 0 
L 603 3500 
z
M 603 4863 
L 1178 4863 
L 1178 4134 
L 603 4134 
L 603 4863 
z
" transform="scale(0.015625)"/>
       <path id="DejaVuSans-6f" d="M 1959 3097 
Q 1497 3097 1228 2736 
Q 959 2375 959 1747 
Q 959 1119 1226 758 
Q 1494 397 1959 397 
Q 2419 397 2687 759 
Q 2956 1122 2956 1747 
Q 2956 2369 2687 2733 
Q 2419 3097 1959 3097 
z
M 1959 3584 
Q 2709 3584 3137 3096 
Q 3566 2609 3566 1747 
Q 3566 888 3137 398 
Q 2709 -91 1959 -91 
Q 1206 -91 779 398 
Q 353 888 353 1747 
Q 353 2609 779 3096 
Q 1206 3584 1959 3584 
z
" transform="scale(0.015625)"/>
       <path id="DejaVuSans-6e" d="M 3513 2113 
L 3513 0 
L 2938 0 
L 2938 2094 
Q 2938 2591 2744 2837 
Q 2550 3084 2163 3084 
Q 1697 3084 1428 2787 
Q 1159 2491 1159 1978 
L 1159 0 
L 581 0 
L 581 3500 
L 1159 3500 
L 1159 2956 
Q 1366 3272 1645 3428 
Q 1925 3584 2291 3584 
Q 2894 3584 3203 3211 
Q 3513 2838 3513 2113 
z
" transform="scale(0.015625)"/>
       <path id="DejaVuSans-6d" d="M 3328 2828 
Q 3544 3216 3844 3400 
Q 4144 3584 4550 3584 
Q 5097 3584 5394 3201 
Q 5691 2819 5691 2113 
L 5691 0 
L 5113 0 
L 5113 2094 
Q 5113 2597 4934 2840 
Q 4756 3084 4391 3084 
Q 3944 3084 3684 2787 
Q 3425 2491 3425 1978 
L 3425 0 
L 2847 0 
L 2847 2094 
Q 2847 2600 2669 2842 
Q 2491 3084 2119 3084 
Q 1678 3084 1418 2786 
Q 1159 2488 1159 1978 
L 1159 0 
L 581 0 
L 581 3500 
L 1159 3500 
L 1159 2956 
Q 1356 3278 1631 3431 
Q 1906 3584 2284 3584 
Q 2666 3584 2933 3390 
Q 3200 3197 3328 2828 
z
" transform="scale(0.015625)"/>
       <path id="DejaVuSans-62" d="M 3116 1747 
Q 3116 2381 2855 2742 
Q 2594 3103 2138 3103 
Q 1681 3103 1420 2742 
Q 1159 2381 1159 1747 
Q 1159 1113 1420 752 
Q 1681 391 2138 391 
Q 2594 391 2855 752 
Q 3116 1113 3116 1747 
z
M 1159 2969 
Q 1341 3281 1617 3432 
Q 1894 3584 2278 3584 
Q 2916 3584 3314 3078 
Q 3713 2572 3713 1747 
Q 3713 922 3314 415 
Q 2916 -91 2278 -91 
Q 1894 -91 1617 61 
Q 1341 213 1159 525 
L 1159 0 
L 581 0 
L 581 4863 
L 1159 4863 
L 1159 2969 
z
" transform="scale(0.015625)"/>
       <path id="DejaVuSans-77" d="M 269 3500 
L 844 3500 
L 1563 769 
L 2278 3500 
L 2956 3500 
L 3675 769 
L 4391 3500 
L 4966 3500 
L 4050 0 
L 3372 0 
L 2619 2869 
L 1863 0 
L 1184 0 
L 269 3500 
z
" transform="scale(0.015625)"/>
      </defs>
      <use xlink:href="#DejaVuSans-45"/>
      <use xlink:href="#DejaVuSans-78" x="63.183594"/>
      <use xlink:href="#DejaVuSans-65" x="119.238281"/>
      <use xlink:href="#DejaVuSans-63" x="180.761719"/>
      <use xlink:href="#DejaVuSans-75" x="235.742188"/>
      <use xlink:href="#DejaVuSans-74" x="299.121094"/>
      <use xlink:href="#DejaVuSans-69" x="338.330078"/>
      <use xlink:href="#DejaVuSans-6f" x="366.113281"/>
      <use xlink:href="#DejaVuSans-6e" x="427.294922"/>
      <use xlink:href="#DejaVuSans-20" x="490.673828"/>
      <use xlink:href="#DejaVuSans-74" x="522.460938"/>
      <use xlink:href="#DejaVuSans-69" x="561.669922"/>
      <use xlink:href="#DejaVuSans-6d" x="589.453125"/>
      <use xlink:href="#DejaVuSans-65" x="686.865234"/>
      <use xlink:href="#DejaVuSans-20" x="748.388672"/>
      <use xlink:href="#DejaVuSans-62" x="780.175781"/>
      <use xlink:href="#DejaVuSans-65" x="843.652344"/>
      <use xlink:href="#DejaVuSans-74" x="905.175781"/>
      <use xlink:href="#DejaVuSans-77" x="944.384766"/>
      <use xlink:href="#DejaVuSans-65" x="1026.171875"/>
      <use xlink:href="#DejaVuSans-65" x="1087.695312"/>
      <use xlink:href="#DejaVuSans-6e" x="1149.21875"/>
      <use xlink:href="#DejaVuSans-20" x="1212.597656"/>
      <use xlink:href="#DejaVuSans-53" x="1244.384766"/>
      <use xlink:href="#DejaVuSans-38" x="1307.861328"/>
      <use xlink:href="#DejaVuSans-20" x="1371.484375"/>
      <use xlink:href="#DejaVuSans-53" x="1403.271484"/>
      <use xlink:href="#DejaVuSans-39" x="1466.748047"/>
     </g>
    </g>
   </g>
  </g>
 </g>
 <defs>
  <clipPath id="p0b693f8b29">
   <rect x="57.6" y="41.472" width="357.12" height="266.112"/>
  </clipPath>
 </defs>
</svg>
