<?xml version="1.0" encoding="utf-8" standalone="no"?>
<!DOCTYPE svg PUBLIC "-//W3C//DTD SVG 1.1//EN"
  "http://www.w3.org/Graphics/SVG/1.1/DTD/svg11.dtd">
<svg xmlns:xlink="http://www.w3.org/1999/xlink" width="460.8pt" height="345.6pt" viewBox="0 0 460.8 345.6" xmlns="http://www.w3.org/2000/svg" version="1.1">
 <metadata>
  <rdf:RDF xmlns:dc="http://purl.org/dc/elements/1.1/" xmlns:cc="http://creativecommons.org/ns#" xmlns:rdf="http://www.w3.org/1999/02/22-rdf-syntax-ns#">
   <cc:Work>
    <dc:type rdf:resource="http://purl.org/dc/dcmitype/StillImage"/>
    <dc:date>2024-03-08T11:29:14.137150</dc:date>
    <dc:format>image/svg+xml</dc:format>
    <dc:creator>
     <cc:Agent>
      <dc:title>Matplotlib v3.8.2, https://matplotlib.org/</dc:title>
     </cc:Agent>
    </dc:creator>
   </cc:Work>
  </rdf:RDF>
 </metadata>
 <defs>
  <style type="text/css">*{stroke-linejoin: round; stroke-linecap: butt}</style>
 </defs>
 <g id="figure_1">
  <g id="patch_1">
   <path d="M 0 345.6 
L 460.8 345.6 
L 460.8 0 
L 0 0 
z
" style="fill: #ffffff"/>
  </g>
  <g id="axes_1">
   <g id="patch_2">
    <path d="M 57.6 307.584 
L 414.72 307.584 
L 414.72 41.472 
L 57.6 41.472 
z
" style="fill: #ffffff"/>
   </g>
   <g id="matplotlib.axis_1">
    <g id="xtick_1">
     <g id="line2d_1">
      <defs>
       <path id="md46e08530f" d="M 0 0 
L 0 3.5 
" style="stroke: #000000; stroke-width: 0.8"/>
      </defs>
      <g>
       <use xlink:href="#md46e08530f" x="73.13752" y="307.584" style="stroke: #000000; stroke-width: 0.8"/>
      </g>
     </g>
     <g id="text_1">
      <!-- 0.0 -->
      <g transform="translate(65.185958 322.182437) scale(0.1 -0.1)">
       <defs>
        <path id="DejaVuSans-30" d="M 2034 4250 
Q 1547 4250 1301 3770 
Q 1056 3291 1056 2328 
Q 1056 1369 1301 889 
Q 1547 409 2034 409 
Q 2525 409 2770 889 
Q 3016 1369 3016 2328 
Q 3016 3291 2770 3770 
Q 2525 4250 2034 4250 
z
M 2034 4750 
Q 2819 4750 3233 4129 
Q 3647 3509 3647 2328 
Q 3647 1150 3233 529 
Q 2819 -91 2034 -91 
Q 1250 -91 836 529 
Q 422 1150 422 2328 
Q 422 3509 836 4129 
Q 1250 4750 2034 4750 
z
" transform="scale(0.015625)"/>
        <path id="DejaVuSans-2e" d="M 684 794 
L 1344 794 
L 1344 0 
L 684 0 
L 684 794 
z
" transform="scale(0.015625)"/>
       </defs>
       <use xlink:href="#DejaVuSans-30"/>
       <use xlink:href="#DejaVuSans-2e" x="63.623047"/>
       <use xlink:href="#DejaVuSans-30" x="95.410156"/>
      </g>
     </g>
    </g>
    <g id="xtick_2">
     <g id="line2d_2">
      <g>
       <use xlink:href="#md46e08530f" x="118.339551" y="307.584" style="stroke: #000000; stroke-width: 0.8"/>
      </g>
     </g>
     <g id="text_2">
      <!-- 0.5 -->
      <g transform="translate(110.387988 322.182437) scale(0.1 -0.1)">
       <defs>
        <path id="DejaVuSans-35" d="M 691 4666 
L 3169 4666 
L 3169 4134 
L 1269 4134 
L 1269 2991 
Q 1406 3038 1543 3061 
Q 1681 3084 1819 3084 
Q 2600 3084 3056 2656 
Q 3513 2228 3513 1497 
Q 3513 744 3044 326 
Q 2575 -91 1722 -91 
Q 1428 -91 1123 -41 
Q 819 9 494 109 
L 494 744 
Q 775 591 1075 516 
Q 1375 441 1709 441 
Q 2250 441 2565 725 
Q 2881 1009 2881 1497 
Q 2881 1984 2565 2268 
Q 2250 2553 1709 2553 
Q 1456 2553 1204 2497 
Q 953 2441 691 2322 
L 691 4666 
z
" transform="scale(0.015625)"/>
       </defs>
       <use xlink:href="#DejaVuSans-30"/>
       <use xlink:href="#DejaVuSans-2e" x="63.623047"/>
       <use xlink:href="#DejaVuSans-35" x="95.410156"/>
      </g>
     </g>
    </g>
    <g id="xtick_3">
     <g id="line2d_3">
      <g>
       <use xlink:href="#md46e08530f" x="163.541582" y="307.584" style="stroke: #000000; stroke-width: 0.8"/>
      </g>
     </g>
     <g id="text_3">
      <!-- 1.0 -->
      <g transform="translate(155.590019 322.182437) scale(0.1 -0.1)">
       <defs>
        <path id="DejaVuSans-31" d="M 794 531 
L 1825 531 
L 1825 4091 
L 703 3866 
L 703 4441 
L 1819 4666 
L 2450 4666 
L 2450 531 
L 3481 531 
L 3481 0 
L 794 0 
L 794 531 
z
" transform="scale(0.015625)"/>
       </defs>
       <use xlink:href="#DejaVuSans-31"/>
       <use xlink:href="#DejaVuSans-2e" x="63.623047"/>
       <use xlink:href="#DejaVuSans-30" x="95.410156"/>
      </g>
     </g>
    </g>
    <g id="xtick_4">
     <g id="line2d_4">
      <g>
       <use xlink:href="#md46e08530f" x="208.743612" y="307.584" style="stroke: #000000; stroke-width: 0.8"/>
      </g>
     </g>
     <g id="text_4">
      <!-- 1.5 -->
      <g transform="translate(200.79205 322.182437) scale(0.1 -0.1)">
       <use xlink:href="#DejaVuSans-31"/>
       <use xlink:href="#DejaVuSans-2e" x="63.623047"/>
       <use xlink:href="#DejaVuSans-35" x="95.410156"/>
      </g>
     </g>
    </g>
    <g id="xtick_5">
     <g id="line2d_5">
      <g>
       <use xlink:href="#md46e08530f" x="253.945643" y="307.584" style="stroke: #000000; stroke-width: 0.8"/>
      </g>
     </g>
     <g id="text_5">
      <!-- 2.0 -->
      <g transform="translate(245.994081 322.182437) scale(0.1 -0.1)">
       <defs>
        <path id="DejaVuSans-32" d="M 1228 531 
L 3431 531 
L 3431 0 
L 469 0 
L 469 531 
Q 828 903 1448 1529 
Q 2069 2156 2228 2338 
Q 2531 2678 2651 2914 
Q 2772 3150 2772 3378 
Q 2772 3750 2511 3984 
Q 2250 4219 1831 4219 
Q 1534 4219 1204 4116 
Q 875 4013 500 3803 
L 500 4441 
Q 881 4594 1212 4672 
Q 1544 4750 1819 4750 
Q 2544 4750 2975 4387 
Q 3406 4025 3406 3419 
Q 3406 3131 3298 2873 
Q 3191 2616 2906 2266 
Q 2828 2175 2409 1742 
Q 1991 1309 1228 531 
z
" transform="scale(0.015625)"/>
       </defs>
       <use xlink:href="#DejaVuSans-32"/>
       <use xlink:href="#DejaVuSans-2e" x="63.623047"/>
       <use xlink:href="#DejaVuSans-30" x="95.410156"/>
      </g>
     </g>
    </g>
    <g id="xtick_6">
     <g id="line2d_6">
      <g>
       <use xlink:href="#md46e08530f" x="299.147674" y="307.584" style="stroke: #000000; stroke-width: 0.8"/>
      </g>
     </g>
     <g id="text_6">
      <!-- 2.5 -->
      <g transform="translate(291.196111 322.182437) scale(0.1 -0.1)">
       <use xlink:href="#DejaVuSans-32"/>
       <use xlink:href="#DejaVuSans-2e" x="63.623047"/>
       <use xlink:href="#DejaVuSans-35" x="95.410156"/>
      </g>
     </g>
    </g>
    <g id="xtick_7">
     <g id="line2d_7">
      <g>
       <use xlink:href="#md46e08530f" x="344.349705" y="307.584" style="stroke: #000000; stroke-width: 0.8"/>
      </g>
     </g>
     <g id="text_7">
      <!-- 3.0 -->
      <g transform="translate(336.398142 322.182437) scale(0.1 -0.1)">
       <defs>
        <path id="DejaVuSans-33" d="M 2597 2516 
Q 3050 2419 3304 2112 
Q 3559 1806 3559 1356 
Q 3559 666 3084 287 
Q 2609 -91 1734 -91 
Q 1441 -91 1130 -33 
Q 819 25 488 141 
L 488 750 
Q 750 597 1062 519 
Q 1375 441 1716 441 
Q 2309 441 2620 675 
Q 2931 909 2931 1356 
Q 2931 1769 2642 2001 
Q 2353 2234 1838 2234 
L 1294 2234 
L 1294 2753 
L 1863 2753 
Q 2328 2753 2575 2939 
Q 2822 3125 2822 3475 
Q 2822 3834 2567 4026 
Q 2313 4219 1838 4219 
Q 1578 4219 1281 4162 
Q 984 4106 628 3988 
L 628 4550 
Q 988 4650 1302 4700 
Q 1616 4750 1894 4750 
Q 2613 4750 3031 4423 
Q 3450 4097 3450 3541 
Q 3450 3153 3228 2886 
Q 3006 2619 2597 2516 
z
" transform="scale(0.015625)"/>
       </defs>
       <use xlink:href="#DejaVuSans-33"/>
       <use xlink:href="#DejaVuSans-2e" x="63.623047"/>
       <use xlink:href="#DejaVuSans-30" x="95.410156"/>
      </g>
     </g>
    </g>
    <g id="xtick_8">
     <g id="line2d_8">
      <g>
       <use xlink:href="#md46e08530f" x="389.551735" y="307.584" style="stroke: #000000; stroke-width: 0.8"/>
      </g>
     </g>
     <g id="text_8">
      <!-- 3.5 -->
      <g transform="translate(381.600173 322.182437) scale(0.1 -0.1)">
       <use xlink:href="#DejaVuSans-33"/>
       <use xlink:href="#DejaVuSans-2e" x="63.623047"/>
       <use xlink:href="#DejaVuSans-35" x="95.410156"/>
      </g>
     </g>
    </g>
    <g id="text_9">
     <!-- 1e6 -->
     <g transform="translate(395.841875 334.860562) scale(0.1 -0.1)">
      <defs>
       <path id="DejaVuSans-65" d="M 3597 1894 
L 3597 1613 
L 953 1613 
Q 991 1019 1311 708 
Q 1631 397 2203 397 
Q 2534 397 2845 478 
Q 3156 559 3463 722 
L 3463 178 
Q 3153 47 2828 -22 
Q 2503 -91 2169 -91 
Q 1331 -91 842 396 
Q 353 884 353 1716 
Q 353 2575 817 3079 
Q 1281 3584 2069 3584 
Q 2775 3584 3186 3129 
Q 3597 2675 3597 1894 
z
M 3022 2063 
Q 3016 2534 2758 2815 
Q 2500 3097 2075 3097 
Q 1594 3097 1305 2825 
Q 1016 2553 972 2059 
L 3022 2063 
z
" transform="scale(0.015625)"/>
       <path id="DejaVuSans-36" d="M 2113 2584 
Q 1688 2584 1439 2293 
Q 1191 2003 1191 1497 
Q 1191 994 1439 701 
Q 1688 409 2113 409 
Q 2538 409 2786 701 
Q 3034 994 3034 1497 
Q 3034 2003 2786 2293 
Q 2538 2584 2113 2584 
z
M 3366 4563 
L 3366 3988 
Q 3128 4100 2886 4159 
Q 2644 4219 2406 4219 
Q 1781 4219 1451 3797 
Q 1122 3375 1075 2522 
Q 1259 2794 1537 2939 
Q 1816 3084 2150 3084 
Q 2853 3084 3261 2657 
Q 3669 2231 3669 1497 
Q 3669 778 3244 343 
Q 2819 -91 2113 -91 
Q 1303 -91 875 529 
Q 447 1150 447 2328 
Q 447 3434 972 4092 
Q 1497 4750 2381 4750 
Q 2619 4750 2861 4703 
Q 3103 4656 3366 4563 
z
" transform="scale(0.015625)"/>
      </defs>
      <use xlink:href="#DejaVuSans-31"/>
      <use xlink:href="#DejaVuSans-65" x="63.623047"/>
      <use xlink:href="#DejaVuSans-36" x="125.146484"/>
     </g>
    </g>
   </g>
   <g id="matplotlib.axis_2">
    <g id="ytick_1">
     <g id="line2d_9">
      <defs>
       <path id="mfbc6dfe779" d="M 0 0 
L -3.5 0 
" style="stroke: #000000; stroke-width: 0.8"/>
      </defs>
      <g>
       <use xlink:href="#mfbc6dfe779" x="57.6" y="295.488" style="stroke: #000000; stroke-width: 0.8"/>
      </g>
     </g>
     <g id="text_10">
      <!-- 0 -->
      <g transform="translate(44.2375 299.287219) scale(0.1 -0.1)">
       <use xlink:href="#DejaVuSans-30"/>
      </g>
     </g>
    </g>
    <g id="ytick_2">
     <g id="line2d_10">
      <g>
       <use xlink:href="#mfbc6dfe779" x="57.6" y="242.896696" style="stroke: #000000; stroke-width: 0.8"/>
      </g>
     </g>
     <g id="text_11">
      <!-- 10 -->
      <g transform="translate(37.875 246.695914) scale(0.1 -0.1)">
       <use xlink:href="#DejaVuSans-31"/>
       <use xlink:href="#DejaVuSans-30" x="63.623047"/>
      </g>
     </g>
    </g>
    <g id="ytick_3">
     <g id="line2d_11">
      <g>
       <use xlink:href="#mfbc6dfe779" x="57.6" y="190.305391" style="stroke: #000000; stroke-width: 0.8"/>
      </g>
     </g>
     <g id="text_12">
      <!-- 20 -->
      <g transform="translate(37.875 194.10461) scale(0.1 -0.1)">
       <use xlink:href="#DejaVuSans-32"/>
       <use xlink:href="#DejaVuSans-30" x="63.623047"/>
      </g>
     </g>
    </g>
    <g id="ytick_4">
     <g id="line2d_12">
      <g>
       <use xlink:href="#mfbc6dfe779" x="57.6" y="137.714087" style="stroke: #000000; stroke-width: 0.8"/>
      </g>
     </g>
     <g id="text_13">
      <!-- 30 -->
      <g transform="translate(37.875 141.513306) scale(0.1 -0.1)">
       <use xlink:href="#DejaVuSans-33"/>
       <use xlink:href="#DejaVuSans-30" x="63.623047"/>
      </g>
     </g>
    </g>
    <g id="ytick_5">
     <g id="line2d_13">
      <g>
       <use xlink:href="#mfbc6dfe779" x="57.6" y="85.122783" style="stroke: #000000; stroke-width: 0.8"/>
      </g>
     </g>
     <g id="text_14">
      <!-- 40 -->
      <g transform="translate(37.875 88.922001) scale(0.1 -0.1)">
       <defs>
        <path id="DejaVuSans-34" d="M 2419 4116 
L 825 1625 
L 2419 1625 
L 2419 4116 
z
M 2253 4666 
L 3047 4666 
L 3047 1625 
L 3713 1625 
L 3713 1100 
L 3047 1100 
L 3047 0 
L 2419 0 
L 2419 1100 
L 313 1100 
L 313 1709 
L 2253 4666 
z
" transform="scale(0.015625)"/>
       </defs>
       <use xlink:href="#DejaVuSans-34"/>
       <use xlink:href="#DejaVuSans-30" x="63.623047"/>
      </g>
     </g>
    </g>
   </g>
   <g id="line2d_14">
    <path d="M 73.832727 290.22887 
L 75.101096 269.192348 
L 75.302697 274.451478 
L 75.415702 269.192348 
L 75.618207 274.451478 
L 75.730309 269.192348 
L 75.932814 274.451478 
L 76.044011 269.192348 
L 76.248324 274.451478 
L 76.365849 269.192348 
L 76.570162 274.451478 
L 76.684071 269.192348 
L 76.885672 274.451478 
L 77.00139 269.192348 
L 77.199375 274.451478 
L 77.318708 269.192348 
L 77.513981 274.451478 
L 77.637834 269.192348 
L 77.834915 274.451478 
L 77.957865 269.192348 
L 78.154041 274.451478 
L 78.277895 269.192348 
L 78.470456 274.451478 
L 78.589789 269.192348 
L 78.787774 274.451478 
L 80.058855 295.488 
L 84.399154 290.22887 
L 84.649573 242.896696 
L 85.549094 227.119304 
L 85.860988 221.860174 
L 86.00473 253.414957 
L 86.118639 274.451478 
L 86.180114 269.192348 
L 86.393468 274.451478 
L 86.495624 269.192348 
L 86.701745 274.451478 
L 86.811134 269.192348 
L 87.01816 274.451478 
L 87.132069 269.192348 
L 87.330054 274.451478 
L 87.451195 269.192348 
L 87.64918 274.451478 
L 87.767609 269.192348 
L 87.96469 274.451478 
L 88.078599 269.192348 
L 88.281104 274.451478 
L 88.396822 269.192348 
L 88.601135 274.451478 
L 88.708716 269.192348 
L 88.921165 274.451478 
L 89.018802 269.192348 
L 89.236675 274.451478 
L 89.33612 269.192348 
L 89.548569 274.451478 
L 89.650726 269.192348 
L 89.865888 274.451478 
L 89.96262 269.192348 
L 90.177782 274.451478 
L 90.283554 269.192348 
L 90.487868 274.451478 
L 90.592736 269.192348 
L 90.805186 274.451478 
L 90.906438 269.192348 
L 91.119792 274.451478 
L 91.223757 269.192348 
L 91.43259 274.451478 
L 91.547403 269.192348 
L 91.753524 274.451478 
L 91.862009 269.192348 
L 92.061802 274.451478 
L 92.174807 269.192348 
L 92.376408 274.451478 
L 92.485797 269.192348 
L 92.692823 274.451478 
L 92.800403 269.192348 
L 93.016469 274.451478 
L 93.115914 269.192348 
L 93.331075 274.451478 
L 93.426904 269.192348 
L 93.643873 274.451478 
L 93.742414 269.192348 
L 93.954863 274.451478 
L 94.06154 269.192348 
L 94.269469 274.451478 
L 94.380666 269.192348 
L 94.58498 274.451478 
L 94.694369 269.192348 
L 94.896874 274.451478 
L 95.014399 269.192348 
L 95.21148 274.451478 
L 95.329909 269.192348 
L 95.530606 274.451478 
L 95.649035 269.192348 
L 95.849732 274.451478 
L 96.163435 279.710609 
L 96.28096 274.451478 
L 96.483465 279.710609 
L 96.60099 274.451478 
L 96.798975 279.710609 
L 96.91198 274.451478 
L 97.118101 279.710609 
L 97.225682 274.451478 
L 97.541192 269.192348 
L 97.750026 274.451478 
L 97.858511 269.192348 
L 98.07096 274.451478 
L 98.174925 269.192348 
L 98.38195 274.451478 
L 98.500379 269.192348 
L 98.694748 274.451478 
L 98.821314 269.192348 
L 99.010258 274.451478 
L 99.137728 269.192348 
L 99.327577 274.451478 
L 99.44691 269.192348 
L 99.644895 274.451478 
L 99.765132 269.192348 
L 99.969445 274.451478 
L 100.083355 269.192348 
L 100.29038 274.451478 
L 100.394345 269.192348 
L 100.607698 274.451478 
L 100.713471 269.192348 
L 100.91688 274.451478 
L 101.027173 269.192348 
L 101.234198 274.451478 
L 101.349011 269.192348 
L 101.552421 274.451478 
L 101.668138 269.192348 
L 101.864315 274.451478 
L 101.984552 269.192348 
L 102.182537 274.451478 
L 102.303678 269.192348 
L 102.497143 274.451478 
L 102.620093 269.192348 
L 102.818077 274.451478 
L 102.936507 269.192348 
L 103.137204 274.451478 
L 103.249305 269.192348 
L 103.453618 274.451478 
L 103.565719 269.192348 
L 103.772744 274.451478 
L 103.889366 269.192348 
L 104.089159 274.451478 
L 104.208492 269.192348 
L 104.405573 274.451478 
L 104.523098 269.192348 
L 104.718371 274.451478 
L 104.833184 269.192348 
L 105.035689 274.451478 
L 105.15231 269.192348 
L 105.358432 274.451478 
L 105.466916 269.192348 
L 105.678462 274.451478 
L 105.777002 269.192348 
L 105.993068 274.451478 
L 106.094321 269.192348 
L 106.30225 274.451478 
L 106.403503 269.192348 
L 106.62228 274.451478 
L 106.716301 269.192348 
L 106.936887 274.451478 
L 107.030003 269.192348 
L 107.246068 274.451478 
L 107.345513 269.192348 
L 107.563387 274.451478 
L 107.657407 269.192348 
L 107.872569 274.451478 
L 107.971109 269.192348 
L 108.185367 274.451478 
L 108.290235 269.192348 
L 108.499069 274.451478 
L 108.608458 269.192348 
L 108.814579 274.451478 
L 108.919448 269.192348 
L 109.126473 274.451478 
L 109.243094 269.192348 
L 109.440175 274.451478 
L 109.559508 269.192348 
L 109.759301 274.451478 
L 109.882251 269.192348 
L 110.077524 274.451478 
L 110.197761 269.192348 
L 110.389418 274.451478 
L 111.028574 284.969739 
L 111.341372 279.710609 
L 111.351317 284.969739 
L 111.566479 279.710609 
L 111.667731 284.969739 
L 112.019403 274.451478 
L 112.701954 258.674087 
L 112.813151 263.933217 
L 112.926156 258.674087 
L 113.038257 263.933217 
L 113.147646 258.674087 
L 113.266979 263.933217 
L 113.373656 258.674087 
L 113.491181 263.933217 
L 113.601474 258.674087 
L 113.715383 263.933217 
L 113.822964 258.674087 
L 113.943201 263.933217 
L 114.053494 258.674087 
L 114.172828 263.933217 
L 114.279504 258.674087 
L 114.397934 263.933217 
L 114.510035 258.674087 
L 114.619424 263.933217 
L 114.738757 258.674087 
L 114.84453 263.933217 
L 114.964767 258.674087 
L 115.073252 263.933217 
L 115.190777 258.674087 
L 115.294742 263.933217 
L 115.417692 258.674087 
L 115.525272 263.933217 
L 115.648222 258.674087 
L 115.751283 263.933217 
L 115.874232 258.674087 
L 115.980909 263.933217 
L 116.10657 258.674087 
L 116.210535 263.933217 
L 116.337101 258.674087 
L 116.435641 263.933217 
L 127.392614 258.674087 
L 127.511043 263.933217 
L 127.623144 227.119304 
L 127.723492 190.305391 
L 127.737957 195.564522 
L 127.875371 190.305391 
L 128.119462 106.159304 
L 128.194498 111.418435 
L 128.283998 106.159304 
L 128.426836 111.418435 
L 128.511816 106.159304 
L 128.657366 111.418435 
L 128.744154 106.159304 
L 128.864392 111.418435 
L 128.971068 106.159304 
L 129.055144 127.195826 
L 129.194366 179.78713 
L 129.202503 174.528 
L 129.347149 179.78713 
L 129.463771 221.860174 
L 129.625594 227.119304 
L 129.666276 237.637565 
L 129.885958 232.378435 
L 129.951048 253.414957 
L 130.112872 248.155826 
L 130.211412 258.674087 
L 130.230397 263.933217 
L 130.341594 258.674087 
L 130.452791 263.933217 
L 130.565796 258.674087 
L 130.673377 263.933217 
L 130.794518 258.674087 
L 130.901195 263.933217 
L 131.019624 258.674087 
L 131.128109 263.933217 
L 131.246539 258.674087 
L 131.357736 263.933217 
L 131.476165 258.674087 
L 131.583746 263.933217 
L 131.699463 258.674087 
L 131.813372 263.933217 
L 131.918241 258.674087 
L 132.037574 263.933217 
L 132.144251 258.674087 
L 132.265392 263.933217 
L 132.371165 258.674087 
L 132.491403 263.933217 
L 132.600791 258.674087 
L 132.717413 263.933217 
L 138.241101 258.674087 
L 138.372187 263.933217 
L 138.735611 185.046261 
L 138.814263 190.305391 
L 138.930884 185.046261 
L 139.040273 190.305391 
L 139.150566 185.046261 
L 139.267187 190.305391 
L 139.376576 185.046261 
L 139.496813 190.305391 
L 139.605298 185.046261 
L 139.712879 190.305391 
L 139.8295 185.046261 
L 139.931657 216.601043 
L 140.044662 258.674087 
L 140.051894 253.414957 
L 140.188404 258.674087 
L 140.207389 263.933217 
L 140.278808 258.674087 
L 140.402662 263.933217 
L 140.509339 258.674087 
L 140.622344 263.933217 
L 140.737157 258.674087 
L 140.848354 263.933217 
L 140.965879 258.674087 
L 141.077076 263.933217 
L 141.197314 258.674087 
L 141.300374 263.933217 
L 141.420612 258.674087 
L 141.523672 263.933217 
L 141.647526 258.674087 
L 141.749683 263.933217 
L 141.86992 258.674087 
L 141.981117 263.933217 
L 142.093218 258.674087 
L 142.208031 263.933217 
L 142.314708 258.674087 
L 142.436753 263.933217 
L 142.540718 258.674087 
L 142.668188 263.933217 
L 142.766728 258.674087 
L 142.891486 263.933217 
L 142.987314 258.674087 
L 143.1184 263.933217 
L 143.21694 258.674087 
L 143.341698 263.933217 
L 143.443855 258.674087 
L 143.564996 263.933217 
L 143.669865 258.674087 
L 144.011592 269.192348 
L 145.141643 295.488 
L 149.482846 290.22887 
L 149.731457 200.823652 
L 150.877781 174.528 
L 150.968185 185.046261 
L 151.202331 263.933217 
L 151.332513 258.674087 
L 151.43919 263.933217 
L 151.554907 258.674087 
L 151.668816 263.933217 
L 151.775493 258.674087 
L 151.89121 263.933217 
L 152.002407 258.674087 
L 152.118124 263.933217 
L 152.224801 258.674087 
L 152.348655 263.933217 
L 152.450811 258.674087 
L 152.573761 263.933217 
L 152.67863 258.674087 
L 152.803387 263.933217 
L 152.902832 258.674087 
L 153.026685 263.933217 
L 153.131554 258.674087 
L 153.247271 263.933217 
L 153.360276 258.674087 
L 153.473281 263.933217 
L 153.58267 258.674087 
L 153.695675 263.933217 
L 153.8132 258.674087 
L 153.922589 263.933217 
L 154.03469 258.674087 
L 154.149504 263.933217 
L 154.262509 258.674087 
L 154.37461 263.933217 
L 154.492135 258.674087 
L 165.356895 253.414957 
L 165.553072 185.046261 
L 165.679638 190.305391 
L 165.755577 179.78713 
L 166.004188 90.381913 
L 166.132562 95.641043 
L 166.246471 90.381913 
L 166.354052 95.641043 
L 166.582774 100.900174 
L 166.695779 95.641043 
L 166.828673 106.159304 
L 167.023946 174.528 
L 167.146896 169.26887 
L 167.227355 179.78713 
L 167.353921 221.860174 
L 167.573603 227.119304 
L 167.614285 237.637565 
L 167.82583 232.378435 
L 167.876456 253.414957 
L 168.050936 248.155826 
L 168.147668 263.933217 
L 168.166653 269.192348 
L 168.27333 263.933217 
L 168.393568 269.192348 
L 168.500244 263.933217 
L 168.61777 269.192348 
L 168.719926 263.933217 
L 168.945936 258.674087 
L 169.06527 263.933217 
L 169.175563 258.674087 
L 169.296704 263.933217 
L 169.400669 258.674087 
L 169.52181 263.933217 
L 169.623967 258.674087 
L 169.745108 263.933217 
L 169.844553 258.674087 
L 169.972022 263.933217 
L 170.066947 258.674087 
L 170.1908 263.933217 
L 170.292957 258.674087 
L 170.41681 263.933217 
L 170.520775 258.674087 
L 170.647341 263.933217 
L 170.744977 258.674087 
L 170.871543 263.933217 
L 170.971891 258.674087 
L 171.095745 263.933217 
L 171.200614 258.674087 
L 171.316331 263.933217 
L 171.42572 258.674087 
L 171.537821 263.933217 
L 171.658058 258.674087 
L 171.764735 263.933217 
L 171.881356 258.674087 
L 171.991649 263.933217 
L 172.106462 258.674087 
L 172.215851 263.933217 
L 172.335185 258.674087 
L 172.443669 263.933217 
L 172.561195 258.674087 
L 172.671488 263.933217 
L 172.790821 258.674087 
L 172.896594 263.933217 
L 173.015023 258.674087 
L 173.128932 263.933217 
L 173.239225 258.674087 
L 173.353134 263.933217 
L 173.461619 258.674087 
L 173.577336 263.933217 
L 173.687629 258.674087 
L 173.806059 263.933217 
L 173.912735 258.674087 
L 174.032069 263.933217 
L 174.13965 258.674087 
L 174.261695 263.933217 
L 174.362044 258.674087 
L 174.485897 263.933217 
L 174.588054 258.674087 
L 174.711003 263.933217 
L 174.810448 258.674087 
L 174.932493 263.933217 
L 175.03465 258.674087 
L 175.159407 263.933217 
L 175.257044 258.674087 
L 175.38361 263.933217 
L 175.480342 258.674087 
L 175.611428 263.933217 
L 175.704544 258.674087 
L 175.833822 263.933217 
L 175.936882 258.674087 
L 176.059832 263.933217 
L 176.168317 258.674087 
L 176.506428 269.192348 
L 177.639191 295.488 
L 181.820379 290.22887 
L 182.028308 284.969739 
L 182.329354 195.564522 
L 183.261419 179.78713 
L 183.292157 185.046261 
L 183.500086 190.305391 
L 183.799324 274.451478 
L 183.906904 269.192348 
L 184.106697 274.451478 
L 184.221511 269.192348 
L 184.414071 274.451478 
L 184.537925 269.192348 
L 184.730485 274.451478 
L 184.851627 269.192348 
L 185.05142 274.451478 
L 185.168041 269.192348 
L 185.37597 274.451478 
L 185.488976 269.192348 
L 185.691481 274.451478 
L 185.808102 269.192348 
L 186.006991 274.451478 
L 186.126324 269.192348 
L 186.320693 274.451478 
L 186.442738 269.192348 
L 186.637107 274.451478 
L 186.762769 269.192348 
L 186.958042 274.451478 
L 187.071047 269.192348 
L 187.277168 274.451478 
L 187.387461 269.192348 
L 187.59539 274.451478 
L 187.703875 269.192348 
L 187.911804 274.451478 
L 188.021193 269.192348 
L 188.231835 274.451478 
L 188.338512 269.192348 
L 188.540113 274.451478 
L 188.658542 269.192348 
L 188.856527 274.451478 
L 188.969532 269.192348 
L 189.172941 274.451478 
L 189.289562 269.192348 
L 189.490259 274.451478 
L 189.598744 269.192348 
L 189.807578 274.451478 
L 189.90883 269.192348 
L 190.128512 274.451478 
L 190.218916 269.192348 
L 190.439502 274.451478 
L 190.533522 269.192348 
L 190.758628 274.451478 
L 190.842704 269.192348 
L 191.06781 274.451478 
L 191.166351 269.192348 
L 191.377896 274.451478 
L 191.478245 269.192348 
L 191.688886 274.451478 
L 191.793755 269.192348 
L 192.002588 274.451478 
L 192.120113 269.192348 
L 192.31177 274.451478 
L 192.436528 269.192348 
L 192.635417 274.451478 
L 192.744806 269.192348 
L 192.948215 274.451478 
L 193.059412 269.192348 
L 193.263725 274.451478 
L 193.37673 269.192348 
L 193.589179 274.451478 
L 193.689528 269.192348 
L 193.905594 274.451478 
L 194.005942 269.192348 
L 194.213872 274.451478 
L 194.32326 269.192348 
L 194.528478 274.451478 
L 194.635154 269.192348 
L 194.845796 274.451478 
L 194.944336 269.192348 
L 195.159498 274.451478 
L 195.249902 269.192348 
L 195.475912 274.451478 
L 195.56722 269.192348 
L 195.792326 274.451478 
L 195.886347 269.192348 
L 196.10422 274.451478 
L 196.204569 269.192348 
L 196.413402 274.451478 
L 196.522791 269.192348 
L 196.719872 274.451478 
L 196.841918 269.192348 
L 197.036286 274.451478 
L 197.166468 269.192348 
L 197.355413 274.451478 
L 197.481074 269.192348 
L 197.673635 274.451478 
L 197.801105 269.192348 
L 197.991857 274.451478 
L 199.270171 295.488 
L 202.228192 290.22887 
L 203.490232 269.192348 
L 203.697258 274.451478 
L 203.799414 269.192348 
L 204.011864 274.451478 
L 204.115828 269.192348 
L 204.330086 274.451478 
L 204.436763 269.192348 
L 204.647404 274.451478 
L 204.754081 269.192348 
L 204.960202 274.451478 
L 205.068687 269.192348 
L 205.26848 274.451478 
L 205.389622 269.192348 
L 205.585798 274.451478 
L 205.700612 269.192348 
L 205.906733 274.451478 
L 206.020642 269.192348 
L 206.223147 274.451478 
L 206.336152 269.192348 
L 206.538657 274.451478 
L 206.658895 269.192348 
L 206.858688 274.451478 
L 206.969885 269.192348 
L 207.170582 274.451478 
L 207.290819 269.192348 
L 207.489708 274.451478 
L 207.614466 269.192348 
L 207.805218 274.451478 
L 207.929976 269.192348 
L 208.128865 274.451478 
L 208.243678 269.192348 
L 208.438951 274.451478 
L 208.567324 269.192348 
L 208.759885 274.451478 
L 208.874698 269.192348 
L 209.083532 274.451478 
L 209.18388 269.192348 
L 209.712744 279.710609 
L 209.813996 274.451478 
L 210.03639 279.710609 
L 210.124986 274.451478 
L 210.343764 279.710609 
L 210.441401 274.451478 
L 210.652946 279.710609 
L 210.757815 274.451478 
L 211.076037 269.192348 
L 211.283062 274.451478 
L 211.389739 269.192348 
L 211.594052 274.451478 
L 211.71429 269.192348 
L 211.911371 274.451478 
L 212.027992 269.192348 
L 212.227785 274.451478 
L 212.34079 269.192348 
L 212.545103 274.451478 
L 212.6563 269.192348 
L 212.858805 274.451478 
L 212.97633 269.192348 
L 213.183356 274.451478 
L 213.288224 269.192348 
L 213.497962 274.451478 
L 213.607351 269.192348 
L 213.809856 274.451478 
L 213.923765 269.192348 
L 214.12627 274.451478 
L 214.246508 269.192348 
L 214.4463 274.451478 
L 214.567442 269.192348 
L 214.758195 274.451478 
L 214.885664 269.192348 
L 215.076417 274.451478 
L 215.202078 269.192348 
L 215.392831 274.451478 
L 215.510356 269.192348 
L 215.715574 274.451478 
L 215.820442 269.192348 
L 216.036508 274.451478 
L 216.136856 269.192348 
L 216.35473 274.451478 
L 216.456887 269.192348 
L 216.671144 274.451478 
L 216.766069 269.192348 
L 216.980326 274.451478 
L 217.081579 269.192348 
L 217.290412 274.451478 
L 217.397993 269.192348 
L 217.605922 274.451478 
L 217.720736 269.192348 
L 217.925953 274.451478 
L 218.027205 269.192348 
L 218.235135 274.451478 
L 218.340003 269.192348 
L 218.550645 274.451478 
L 218.667266 269.192348 
L 218.867059 274.451478 
L 218.972832 269.192348 
L 219.189802 274.451478 
L 219.280206 269.192348 
L 219.496271 274.451478 
L 221.360403 269.192348 
L 230.446915 263.933217 
L 230.636764 174.528 
L 230.657557 179.78713 
L 230.844693 174.528 
L 231.010133 106.159304 
L 231.159299 100.900174 
L 231.290385 106.159304 
L 231.338299 100.900174 
L 231.598663 106.159304 
L 231.877108 95.641043 
L 231.962087 127.195826 
L 232.108542 190.305391 
L 232.232396 185.046261 
L 232.32732 195.564522 
L 232.507224 253.414957 
L 232.587684 248.155826 
L 232.73233 253.414957 
L 232.810078 258.674087 
L 233.13282 248.155826 
L 233.172598 253.414957 
L 233.313628 248.155826 
L 233.348886 253.414957 
L 233.491724 248.155826 
L 233.526982 253.414957 
L 233.670724 248.155826 
L 233.704174 253.414957 
L 233.851532 248.155826 
L 233.881366 253.414957 
L 234.03234 248.155826 
L 234.059462 253.414957 
L 234.215861 248.155826 
L 234.239366 253.414957 
L 234.394861 248.155826 
L 234.42379 253.414957 
L 234.571149 248.155826 
L 234.604598 253.414957 
L 234.751053 248.155826 
L 234.785406 253.414957 
L 234.932765 248.155826 
L 234.963502 253.414957 
L 235.112669 248.155826 
L 235.142502 253.414957 
L 235.292573 248.155826 
L 235.32331 253.414957 
L 235.473381 248.155826 
L 235.504119 253.414957 
L 235.650573 248.155826 
L 235.687639 253.414957 
L 235.831381 248.155826 
L 235.866639 253.414957 
L 236.011285 248.155826 
L 236.042023 253.414957 
L 236.189381 248.155826 
L 236.222831 253.414957 
L 236.369285 248.155826 
L 236.404543 253.414957 
L 236.548285 248.155826 
L 236.584447 253.414957 
L 236.72819 248.155826 
L 236.764351 253.414957 
L 236.906286 248.155826 
L 236.945159 253.414957 
L 237.089806 248.155826 
L 237.122351 253.414957 
L 237.273326 248.155826 
L 237.302255 253.414957 
L 237.45323 248.155826 
L 237.483063 253.414957 
L 237.634942 248.155826 
L 237.661159 253.414957 
L 237.81575 248.155826 
L 237.841064 253.414957 
L 237.996559 248.155826 
L 238.020064 253.414957 
L 238.176463 248.155826 
L 238.199968 253.414957 
L 238.356367 248.155826 
L 238.378064 253.414957 
L 238.536271 248.155826 
L 238.561584 253.414957 
L 238.718887 248.155826 
L 238.745104 253.414957 
L 238.900599 248.155826 
L 238.925008 253.414957 
L 239.080503 248.155826 
L 239.10672 253.414957 
L 239.264927 248.155826 
L 239.287529 253.414957 
L 239.445736 248.155826 
L 239.468337 253.414957 
L 239.622024 248.155826 
L 239.648241 253.414957 
L 239.80464 248.155826 
L 239.827241 253.414957 
L 239.98816 248.155826 
L 240.008049 253.414957 
L 240.169872 248.155826 
L 240.190665 253.414957 
L 240.354296 248.155826 
L 240.372377 253.414957 
L 240.531488 248.155826 
L 240.552281 253.414957 
L 240.713201 248.155826 
L 240.736706 253.414957 
L 240.891297 248.155826 
L 240.917514 253.414957 
L 241.071201 248.155826 
L 241.093802 253.414957 
L 241.255625 248.155826 
L 241.276418 253.414957 
L 252.14389 248.155826 
L 252.333739 164.009739 
L 252.490138 169.26887 
L 252.561557 153.491478 
L 252.782143 53.568 
L 252.851754 58.82713 
L 252.994592 53.568 
L 253.033466 58.82713 
L 253.172688 53.568 
L 253.211562 58.82713 
L 253.355305 53.568 
L 253.391466 58.82713 
L 253.532496 53.568 
L 253.648214 79.863652 
L 253.805517 148.232348 
L 253.895017 142.973217 
L 254.022486 153.491478 
L 254.201487 206.082783 
L 254.260249 200.823652 
L 254.429305 206.082783 
L 254.438345 200.823652 
L 254.460946 216.601043 
L 254.616441 211.341913 
L 254.694189 221.860174 
L 254.714982 232.378435 
L 254.800865 227.119304 
L 254.966305 232.378435 
L 254.997946 242.896696 
L 255.160674 237.637565 
L 255.251982 248.155826 
L 255.26735 253.414957 
L 255.345098 248.155826 
L 255.498785 253.414957 
L 255.527714 248.155826 
L 255.549411 253.414957 
L 255.71033 248.155826 
L 255.732027 253.414957 
L 255.888426 248.155826 
L 255.909219 253.414957 
L 256.065618 248.155826 
L 256.088219 253.414957 
L 256.250043 248.155826 
L 256.272644 253.414957 
L 256.433563 248.155826 
L 256.456164 253.414957 
L 256.612563 248.155826 
L 256.632452 253.414957 
L 256.793371 248.155826 
L 256.816876 253.414957 
L 256.976891 248.155826 
L 256.999492 253.414957 
L 257.161316 248.155826 
L 257.182108 253.414957 
L 257.339412 248.155826 
L 257.360204 253.414957 
L 257.522028 248.155826 
L 257.537396 253.414957 
L 268.416621 248.155826 
L 268.61099 158.750609 
L 268.753828 164.009739 
L 268.825248 148.232348 
L 269.056682 79.863652 
L 269.112732 85.122783 
L 269.242914 79.863652 
L 269.297157 85.122783 
L 269.423722 79.863652 
L 269.481581 85.122783 
L 269.606339 79.863652 
L 269.659677 85.122783 
L 269.788051 79.863652 
L 269.905576 100.900174 
L 270.082768 179.78713 
L 270.146955 174.528 
L 270.280753 179.78713 
L 270.363021 216.601043 
L 270.509475 211.341913 
L 270.598071 221.860174 
L 270.619768 232.378435 
L 270.691187 227.119304 
L 270.844874 232.378435 
L 270.876516 242.896696 
L 271.047379 237.637565 
L 271.126935 248.155826 
L 271.142304 253.414957 
L 271.229092 248.155826 
L 271.259829 253.414957 
L 271.408996 248.155826 
L 271.437925 253.414957 
L 271.5889 248.155826 
L 271.618733 253.414957 
L 271.771516 248.155826 
L 271.804061 253.414957 
L 271.957748 248.155826 
L 271.981253 253.414957 
L 272.132228 248.155826 
L 272.162061 253.414957 
L 272.313036 248.155826 
L 272.34287 253.414957 
L 272.493844 248.155826 
L 272.519157 253.414957 
L 272.672844 248.155826 
L 272.70087 253.414957 
L 272.858173 248.155826 
L 272.880774 253.414957 
L 273.033557 248.155826 
L 273.060678 253.414957 
L 273.213461 248.155826 
L 273.243294 253.414957 
L 273.396981 248.155826 
L 273.428622 253.414957 
L 273.580501 248.155826 
L 273.604006 253.414957 
L 273.763117 248.155826 
L 273.784814 253.414957 
L 273.942117 248.155826 
L 273.965622 253.414957 
L 274.122926 248.155826 
L 274.143718 253.414957 
L 274.304638 248.155826 
L 274.329951 253.414957 
L 274.489966 248.155826 
L 274.505335 253.414957 
L 274.668062 248.155826 
L 274.685239 253.414957 
L 274.846158 248.155826 
L 274.868759 253.414957 
L 275.026062 248.155826 
L 275.052279 253.414957 
L 275.21139 248.155826 
L 275.233991 253.414957 
L 275.388582 248.155826 
L 275.413896 253.414957 
L 275.568486 248.155826 
L 275.594704 253.414957 
L 275.748391 248.155826 
L 275.776416 253.414957 
L 275.924678 248.155826 
L 275.961744 253.414957 
L 276.105487 248.155826 
L 276.13984 253.414957 
L 276.287199 248.155826 
L 276.317936 253.414957 
L 276.464391 248.155826 
L 276.49784 253.414957 
L 276.645199 248.155826 
L 276.683169 253.414957 
L 276.823295 248.155826 
L 276.860361 253.414957 
L 277.004103 248.155826 
L 277.040265 253.414957 
L 277.184007 248.155826 
L 277.220169 253.414957 
L 277.365719 248.155826 
L 277.396457 253.414957 
L 277.542911 248.155826 
L 277.577265 253.414957 
L 277.724623 248.155826 
L 277.758977 253.414957 
L 277.90724 248.155826 
L 277.936169 253.414957 
L 278.09076 248.155826 
L 278.116977 253.414957 
L 278.267048 248.155826 
L 278.295073 253.414957 
L 278.445144 248.155826 
L 278.474977 253.414957 
L 278.626856 248.155826 
L 278.655785 253.414957 
L 278.804048 248.155826 
L 278.836593 253.414957 
L 279.014689 258.674087 
L 279.162952 253.414957 
L 279.196401 258.674087 
L 284.689352 253.414957 
L 284.824054 195.564522 
L 285.70007 221.860174 
L 286.058974 227.119304 
L 286.171979 237.637565 
L 286.295832 295.488 
L 327.123211 290.22887 
L 328.572388 248.155826 
L 328.594085 253.414957 
L 328.755908 248.155826 
L 328.777605 253.414957 
L 328.938524 248.155826 
L 328.958413 253.414957 
L 329.117524 248.155826 
L 329.138317 253.414957 
L 329.297428 248.155826 
L 329.318221 253.414957 
L 329.476428 248.155826 
L 329.500837 253.414957 
L 329.659949 248.155826 
L 329.680742 253.414957 
L 329.842565 248.155826 
L 329.86155 253.414957 
L 330.025181 248.155826 
L 330.044166 253.414957 
L 330.204181 248.155826 
L 330.227686 253.414957 
L 330.387701 248.155826 
L 330.410302 253.414957 
L 330.570317 248.155826 
L 330.589302 253.414957 
L 330.751126 248.155826 
L 330.769206 253.414957 
L 330.93555 248.155826 
L 330.948206 253.414957 
L 331.115454 248.155826 
L 331.131727 253.414957 
L 331.296262 248.155826 
L 331.313439 253.414957 
L 331.474358 248.155826 
L 331.496959 253.414957 
L 331.658782 248.155826 
L 331.675959 253.414957 
L 331.844111 248.155826 
L 331.859479 253.414957 
L 332.021303 248.155826 
L 332.042096 253.414957 
L 332.200303 248.155826 
L 332.222904 253.414957 
L 332.380207 248.155826 
L 332.407328 253.414957 
L 332.557399 248.155826 
L 332.586328 253.414957 
L 332.737303 248.155826 
L 332.76804 253.414957 
L 332.915399 248.155826 
L 332.946136 253.414957 
L 333.098015 248.155826 
L 333.130561 253.414957 
L 333.275207 248.155826 
L 333.315889 253.414957 
L 333.455111 248.155826 
L 333.493081 253.414957 
L 333.635919 248.155826 
L 333.672081 253.414957 
L 333.816727 248.155826 
L 333.851985 253.414957 
L 333.999344 248.155826 
L 334.029177 253.414957 
L 335.471122 295.488 
L 337.026072 269.192348 
L 337.242137 274.451478 
L 337.336157 269.192348 
L 337.556743 274.451478 
L 337.652572 269.192348 
L 337.870445 274.451478 
L 337.966274 269.192348 
L 338.180531 274.451478 
L 338.286304 269.192348 
L 338.495138 274.451478 
L 338.602718 269.192348 
L 338.805223 274.451478 
L 338.917324 269.192348 
L 339.121638 274.451478 
L 339.231931 269.192348 
L 339.43534 274.451478 
L 339.549249 269.192348 
L 339.75537 274.451478 
L 339.868375 269.192348 
L 340.072688 274.451478 
L 340.187502 269.192348 
L 340.38639 274.451478 
L 340.50934 269.192348 
L 340.700997 274.451478 
L 340.833891 269.192348 
L 341.019219 274.451478 
L 341.150305 269.192348 
L 341.338345 274.451478 
L 341.460391 269.192348 
L 341.656568 274.451478 
L 341.775901 269.192348 
L 341.97931 274.451478 
L 342.085083 269.192348 
L 342.303861 274.451478 
L 342.398785 269.192348 
L 342.619371 274.451478 
L 342.719719 269.192348 
L 343.244967 279.710609 
L 343.351644 274.451478 
L 343.555053 279.710609 
L 343.67077 274.451478 
L 343.867851 279.710609 
L 343.985376 274.451478 
L 344.188785 279.710609 
L 344.308119 274.451478 
L 344.82071 279.710609 
L 345.777185 295.488 
L 355.219889 290.22887 
L 355.377192 284.969739 
L 355.548056 253.414957 
L 355.751465 248.155826 
L 356.001884 206.082783 
L 356.680819 195.564522 
L 356.688955 200.823652 
L 356.847162 206.082783 
L 357.017122 232.378435 
L 357.221435 237.637565 
L 357.364273 258.674087 
L 357.82895 279.710609 
L 357.945571 274.451478 
L 358.149885 279.710609 
L 358.254753 274.451478 
L 358.466299 279.710609 
L 358.566647 274.451478 
L 358.780905 279.710609 
L 358.882157 274.451478 
L 359.203092 269.192348 
L 359.414637 274.451478 
L 359.51589 269.192348 
L 359.723819 274.451478 
L 359.835016 269.192348 
L 360.036617 274.451478 
L 360.150526 269.192348 
L 360.352127 274.451478 
L 360.470557 269.192348 
L 360.672158 274.451478 
L 360.792395 269.192348 
L 360.984956 274.451478 
L 362.261461 295.488 
L 366.471578 290.22887 
L 366.708437 284.969739 
L 366.932639 242.896696 
L 367.133336 237.637565 
L 367.450654 232.378435 
L 367.940644 237.637565 
L 368.086195 232.378435 
L 368.205528 242.896696 
L 368.401705 279.710609 
L 368.406225 274.451478 
L 368.603306 279.710609 
L 368.721735 274.451478 
L 368.920624 279.710609 
L 369.039054 274.451478 
L 369.360892 269.192348 
L 369.555261 274.451478 
L 369.675498 269.192348 
L 369.875291 274.451478 
L 369.994625 269.192348 
L 370.190801 274.451478 
L 370.312847 269.192348 
L 370.509024 274.451478 
L 370.626549 269.192348 
L 370.829958 274.451478 
L 370.941155 269.192348 
L 371.144564 274.451478 
L 371.258473 269.192348 
L 371.463691 274.451478 
L 371.580312 269.192348 
L 371.781913 274.451478 
L 373.049378 295.488 
L 377.319162 290.22887 
L 377.556924 284.969739 
L 377.780222 242.896696 
L 377.914924 237.637565 
L 378.552273 227.119304 
L 379.026894 237.637565 
L 379.249288 279.710609 
L 379.38399 284.969739 
L 379.699501 290.22887 
L 379.872172 284.969739 
L 380.021339 290.22887 
L 380.104511 284.969739 
L 381.237274 258.674087 
L 381.343951 263.933217 
L 381.461476 258.674087 
L 381.575385 263.933217 
L 381.691102 258.674087 
L 381.798683 263.933217 
L 381.917112 258.674087 
L 382.030117 263.933217 
L 382.146739 258.674087 
L 382.253415 263.933217 
L 387.756311 258.674087 
L 387.905477 263.933217 
L 388.014866 216.601043 
L 388.088094 190.305391 
L 388.132392 195.564522 
L 388.249917 185.046261 
L 388.356594 190.305391 
L 388.46327 185.046261 
L 388.587124 190.305391 
L 388.688377 185.046261 
L 388.81223 190.305391 
L 388.911675 185.046261 
L 389.041856 190.305391 
L 389.137685 185.046261 
L 389.228089 190.305391 
L 389.364599 185.046261 
L 389.559872 258.674087 
L 389.587897 253.414957 
L 389.720791 263.933217 
L 389.811195 258.674087 
L 389.935049 263.933217 
L 390.036301 258.674087 
L 390.159251 263.933217 
L 390.260503 258.674087 
L 390.382549 263.933217 
L 390.483801 258.674087 
L 390.608559 263.933217 
L 390.708907 258.674087 
L 390.835473 263.933217 
L 390.935821 258.674087 
L 391.059675 263.933217 
L 391.166352 258.674087 
L 391.282973 263.933217 
L 391.390554 258.674087 
L 391.507175 263.933217 
L 391.618372 258.674087 
L 391.732281 263.933217 
L 391.847998 258.674087 
L 391.954675 263.933217 
L 392.071296 258.674087 
L 392.180685 263.933217 
L 392.29369 258.674087 
L 392.4076 263.933217 
L 392.519701 258.674087 
L 392.637226 263.933217 
L 392.744807 258.674087 
L 392.862332 263.933217 
L 392.969009 258.674087 
L 393.319777 269.192348 
L 393.425549 263.933217 
L 393.542171 269.192348 
L 393.647039 263.933217 
L 393.765469 269.192348 
L 393.872145 263.933217 
L 394.094539 258.674087 
L 394.1976 263.933217 
L 394.540231 253.414957 
L 397.237889 190.305391 
L 397.331005 200.823652 
L 397.358126 211.341913 
L 397.467515 206.082783 
L 397.596793 216.601043 
L 397.623914 227.119304 
L 397.696237 221.860174 
L 397.855348 227.119304 
L 397.89603 242.896696 
L 397.925864 237.637565 
L 398.131985 242.896696 
L 398.172667 253.414957 
L 398.377884 248.155826 
L 398.487273 263.933217 
L 398.487273 263.933217 
" clip-path="url(#p7f60b67821)" style="fill: none; stroke: #1f77b4; stroke-width: 1.5; stroke-linecap: square"/>
   </g>
   <g id="patch_3">
    <path d="M 57.6 307.584 
L 57.6 41.472 
" style="fill: none; stroke: #000000; stroke-width: 0.8; stroke-linejoin: miter; stroke-linecap: square"/>
   </g>
   <g id="patch_4">
    <path d="M 414.72 307.584 
L 414.72 41.472 
" style="fill: none; stroke: #000000; stroke-width: 0.8; stroke-linejoin: miter; stroke-linecap: square"/>
   </g>
   <g id="patch_5">
    <path d="M 57.6 307.584 
L 414.72 307.584 
" style="fill: none; stroke: #000000; stroke-width: 0.8; stroke-linejoin: miter; stroke-linecap: square"/>
   </g>
   <g id="patch_6">
    <path d="M 57.6 41.472 
L 414.72 41.472 
" style="fill: none; stroke: #000000; stroke-width: 0.8; stroke-linejoin: miter; stroke-linecap: square"/>
   </g>
   <g id="text_15">
    <!-- Queue size (y-axis) between S4 and sensors that follow at a time (x-axis). -->
    <g transform="translate(14.282813 35.472) scale(0.12 -0.12)">
     <defs>
      <path id="DejaVuSans-51" d="M 2522 4238 
Q 1834 4238 1429 3725 
Q 1025 3213 1025 2328 
Q 1025 1447 1429 934 
Q 1834 422 2522 422 
Q 3209 422 3611 934 
Q 4013 1447 4013 2328 
Q 4013 3213 3611 3725 
Q 3209 4238 2522 4238 
z
M 3406 84 
L 4238 -825 
L 3475 -825 
L 2784 -78 
Q 2681 -84 2626 -87 
Q 2572 -91 2522 -91 
Q 1538 -91 948 567 
Q 359 1225 359 2328 
Q 359 3434 948 4092 
Q 1538 4750 2522 4750 
Q 3503 4750 4090 4092 
Q 4678 3434 4678 2328 
Q 4678 1516 4351 937 
Q 4025 359 3406 84 
z
" transform="scale(0.015625)"/>
      <path id="DejaVuSans-75" d="M 544 1381 
L 544 3500 
L 1119 3500 
L 1119 1403 
Q 1119 906 1312 657 
Q 1506 409 1894 409 
Q 2359 409 2629 706 
Q 2900 1003 2900 1516 
L 2900 3500 
L 3475 3500 
L 3475 0 
L 2900 0 
L 2900 538 
Q 2691 219 2414 64 
Q 2138 -91 1772 -91 
Q 1169 -91 856 284 
Q 544 659 544 1381 
z
M 1991 3584 
L 1991 3584 
z
" transform="scale(0.015625)"/>
      <path id="DejaVuSans-20" transform="scale(0.015625)"/>
      <path id="DejaVuSans-73" d="M 2834 3397 
L 2834 2853 
Q 2591 2978 2328 3040 
Q 2066 3103 1784 3103 
Q 1356 3103 1142 2972 
Q 928 2841 928 2578 
Q 928 2378 1081 2264 
Q 1234 2150 1697 2047 
L 1894 2003 
Q 2506 1872 2764 1633 
Q 3022 1394 3022 966 
Q 3022 478 2636 193 
Q 2250 -91 1575 -91 
Q 1294 -91 989 -36 
Q 684 19 347 128 
L 347 722 
Q 666 556 975 473 
Q 1284 391 1588 391 
Q 1994 391 2212 530 
Q 2431 669 2431 922 
Q 2431 1156 2273 1281 
Q 2116 1406 1581 1522 
L 1381 1569 
Q 847 1681 609 1914 
Q 372 2147 372 2553 
Q 372 3047 722 3315 
Q 1072 3584 1716 3584 
Q 2034 3584 2315 3537 
Q 2597 3491 2834 3397 
z
" transform="scale(0.015625)"/>
      <path id="DejaVuSans-69" d="M 603 3500 
L 1178 3500 
L 1178 0 
L 603 0 
L 603 3500 
z
M 603 4863 
L 1178 4863 
L 1178 4134 
L 603 4134 
L 603 4863 
z
" transform="scale(0.015625)"/>
      <path id="DejaVuSans-7a" d="M 353 3500 
L 3084 3500 
L 3084 2975 
L 922 459 
L 3084 459 
L 3084 0 
L 275 0 
L 275 525 
L 2438 3041 
L 353 3041 
L 353 3500 
z
" transform="scale(0.015625)"/>
      <path id="DejaVuSans-28" d="M 1984 4856 
Q 1566 4138 1362 3434 
Q 1159 2731 1159 2009 
Q 1159 1288 1364 580 
Q 1569 -128 1984 -844 
L 1484 -844 
Q 1016 -109 783 600 
Q 550 1309 550 2009 
Q 550 2706 781 3412 
Q 1013 4119 1484 4856 
L 1984 4856 
z
" transform="scale(0.015625)"/>
      <path id="DejaVuSans-79" d="M 2059 -325 
Q 1816 -950 1584 -1140 
Q 1353 -1331 966 -1331 
L 506 -1331 
L 506 -850 
L 844 -850 
Q 1081 -850 1212 -737 
Q 1344 -625 1503 -206 
L 1606 56 
L 191 3500 
L 800 3500 
L 1894 763 
L 2988 3500 
L 3597 3500 
L 2059 -325 
z
" transform="scale(0.015625)"/>
      <path id="DejaVuSans-2d" d="M 313 2009 
L 1997 2009 
L 1997 1497 
L 313 1497 
L 313 2009 
z
" transform="scale(0.015625)"/>
      <path id="DejaVuSans-61" d="M 2194 1759 
Q 1497 1759 1228 1600 
Q 959 1441 959 1056 
Q 959 750 1161 570 
Q 1363 391 1709 391 
Q 2188 391 2477 730 
Q 2766 1069 2766 1631 
L 2766 1759 
L 2194 1759 
z
M 3341 1997 
L 3341 0 
L 2766 0 
L 2766 531 
Q 2569 213 2275 61 
Q 1981 -91 1556 -91 
Q 1019 -91 701 211 
Q 384 513 384 1019 
Q 384 1609 779 1909 
Q 1175 2209 1959 2209 
L 2766 2209 
L 2766 2266 
Q 2766 2663 2505 2880 
Q 2244 3097 1772 3097 
Q 1472 3097 1187 3025 
Q 903 2953 641 2809 
L 641 3341 
Q 956 3463 1253 3523 
Q 1550 3584 1831 3584 
Q 2591 3584 2966 3190 
Q 3341 2797 3341 1997 
z
" transform="scale(0.015625)"/>
      <path id="DejaVuSans-78" d="M 3513 3500 
L 2247 1797 
L 3578 0 
L 2900 0 
L 1881 1375 
L 863 0 
L 184 0 
L 1544 1831 
L 300 3500 
L 978 3500 
L 1906 2253 
L 2834 3500 
L 3513 3500 
z
" transform="scale(0.015625)"/>
      <path id="DejaVuSans-29" d="M 513 4856 
L 1013 4856 
Q 1481 4119 1714 3412 
Q 1947 2706 1947 2009 
Q 1947 1309 1714 600 
Q 1481 -109 1013 -844 
L 513 -844 
Q 928 -128 1133 580 
Q 1338 1288 1338 2009 
Q 1338 2731 1133 3434 
Q 928 4138 513 4856 
z
" transform="scale(0.015625)"/>
      <path id="DejaVuSans-62" d="M 3116 1747 
Q 3116 2381 2855 2742 
Q 2594 3103 2138 3103 
Q 1681 3103 1420 2742 
Q 1159 2381 1159 1747 
Q 1159 1113 1420 752 
Q 1681 391 2138 391 
Q 2594 391 2855 752 
Q 3116 1113 3116 1747 
z
M 1159 2969 
Q 1341 3281 1617 3432 
Q 1894 3584 2278 3584 
Q 2916 3584 3314 3078 
Q 3713 2572 3713 1747 
Q 3713 922 3314 415 
Q 2916 -91 2278 -91 
Q 1894 -91 1617 61 
Q 1341 213 1159 525 
L 1159 0 
L 581 0 
L 581 4863 
L 1159 4863 
L 1159 2969 
z
" transform="scale(0.015625)"/>
      <path id="DejaVuSans-74" d="M 1172 4494 
L 1172 3500 
L 2356 3500 
L 2356 3053 
L 1172 3053 
L 1172 1153 
Q 1172 725 1289 603 
Q 1406 481 1766 481 
L 2356 481 
L 2356 0 
L 1766 0 
Q 1100 0 847 248 
Q 594 497 594 1153 
L 594 3053 
L 172 3053 
L 172 3500 
L 594 3500 
L 594 4494 
L 1172 4494 
z
" transform="scale(0.015625)"/>
      <path id="DejaVuSans-77" d="M 269 3500 
L 844 3500 
L 1563 769 
L 2278 3500 
L 2956 3500 
L 3675 769 
L 4391 3500 
L 4966 3500 
L 4050 0 
L 3372 0 
L 2619 2869 
L 1863 0 
L 1184 0 
L 269 3500 
z
" transform="scale(0.015625)"/>
      <path id="DejaVuSans-6e" d="M 3513 2113 
L 3513 0 
L 2938 0 
L 2938 2094 
Q 2938 2591 2744 2837 
Q 2550 3084 2163 3084 
Q 1697 3084 1428 2787 
Q 1159 2491 1159 1978 
L 1159 0 
L 581 0 
L 581 3500 
L 1159 3500 
L 1159 2956 
Q 1366 3272 1645 3428 
Q 1925 3584 2291 3584 
Q 2894 3584 3203 3211 
Q 3513 2838 3513 2113 
z
" transform="scale(0.015625)"/>
      <path id="DejaVuSans-53" d="M 3425 4513 
L 3425 3897 
Q 3066 4069 2747 4153 
Q 2428 4238 2131 4238 
Q 1616 4238 1336 4038 
Q 1056 3838 1056 3469 
Q 1056 3159 1242 3001 
Q 1428 2844 1947 2747 
L 2328 2669 
Q 3034 2534 3370 2195 
Q 3706 1856 3706 1288 
Q 3706 609 3251 259 
Q 2797 -91 1919 -91 
Q 1588 -91 1214 -16 
Q 841 59 441 206 
L 441 856 
Q 825 641 1194 531 
Q 1563 422 1919 422 
Q 2459 422 2753 634 
Q 3047 847 3047 1241 
Q 3047 1584 2836 1778 
Q 2625 1972 2144 2069 
L 1759 2144 
Q 1053 2284 737 2584 
Q 422 2884 422 3419 
Q 422 4038 858 4394 
Q 1294 4750 2059 4750 
Q 2388 4750 2728 4690 
Q 3069 4631 3425 4513 
z
" transform="scale(0.015625)"/>
      <path id="DejaVuSans-64" d="M 2906 2969 
L 2906 4863 
L 3481 4863 
L 3481 0 
L 2906 0 
L 2906 525 
Q 2725 213 2448 61 
Q 2172 -91 1784 -91 
Q 1150 -91 751 415 
Q 353 922 353 1747 
Q 353 2572 751 3078 
Q 1150 3584 1784 3584 
Q 2172 3584 2448 3432 
Q 2725 3281 2906 2969 
z
M 947 1747 
Q 947 1113 1208 752 
Q 1469 391 1925 391 
Q 2381 391 2643 752 
Q 2906 1113 2906 1747 
Q 2906 2381 2643 2742 
Q 2381 3103 1925 3103 
Q 1469 3103 1208 2742 
Q 947 2381 947 1747 
z
" transform="scale(0.015625)"/>
      <path id="DejaVuSans-6f" d="M 1959 3097 
Q 1497 3097 1228 2736 
Q 959 2375 959 1747 
Q 959 1119 1226 758 
Q 1494 397 1959 397 
Q 2419 397 2687 759 
Q 2956 1122 2956 1747 
Q 2956 2369 2687 2733 
Q 2419 3097 1959 3097 
z
M 1959 3584 
Q 2709 3584 3137 3096 
Q 3566 2609 3566 1747 
Q 3566 888 3137 398 
Q 2709 -91 1959 -91 
Q 1206 -91 779 398 
Q 353 888 353 1747 
Q 353 2609 779 3096 
Q 1206 3584 1959 3584 
z
" transform="scale(0.015625)"/>
      <path id="DejaVuSans-72" d="M 2631 2963 
Q 2534 3019 2420 3045 
Q 2306 3072 2169 3072 
Q 1681 3072 1420 2755 
Q 1159 2438 1159 1844 
L 1159 0 
L 581 0 
L 581 3500 
L 1159 3500 
L 1159 2956 
Q 1341 3275 1631 3429 
Q 1922 3584 2338 3584 
Q 2397 3584 2469 3576 
Q 2541 3569 2628 3553 
L 2631 2963 
z
" transform="scale(0.015625)"/>
      <path id="DejaVuSans-68" d="M 3513 2113 
L 3513 0 
L 2938 0 
L 2938 2094 
Q 2938 2591 2744 2837 
Q 2550 3084 2163 3084 
Q 1697 3084 1428 2787 
Q 1159 2491 1159 1978 
L 1159 0 
L 581 0 
L 581 4863 
L 1159 4863 
L 1159 2956 
Q 1366 3272 1645 3428 
Q 1925 3584 2291 3584 
Q 2894 3584 3203 3211 
Q 3513 2838 3513 2113 
z
" transform="scale(0.015625)"/>
      <path id="DejaVuSans-66" d="M 2375 4863 
L 2375 4384 
L 1825 4384 
Q 1516 4384 1395 4259 
Q 1275 4134 1275 3809 
L 1275 3500 
L 2222 3500 
L 2222 3053 
L 1275 3053 
L 1275 0 
L 697 0 
L 697 3053 
L 147 3053 
L 147 3500 
L 697 3500 
L 697 3744 
Q 697 4328 969 4595 
Q 1241 4863 1831 4863 
L 2375 4863 
z
" transform="scale(0.015625)"/>
      <path id="DejaVuSans-6c" d="M 603 4863 
L 1178 4863 
L 1178 0 
L 603 0 
L 603 4863 
z
" transform="scale(0.015625)"/>
      <path id="DejaVuSans-6d" d="M 3328 2828 
Q 3544 3216 3844 3400 
Q 4144 3584 4550 3584 
Q 5097 3584 5394 3201 
Q 5691 2819 5691 2113 
L 5691 0 
L 5113 0 
L 5113 2094 
Q 5113 2597 4934 2840 
Q 4756 3084 4391 3084 
Q 3944 3084 3684 2787 
Q 3425 2491 3425 1978 
L 3425 0 
L 2847 0 
L 2847 2094 
Q 2847 2600 2669 2842 
Q 2491 3084 2119 3084 
Q 1678 3084 1418 2786 
Q 1159 2488 1159 1978 
L 1159 0 
L 581 0 
L 581 3500 
L 1159 3500 
L 1159 2956 
Q 1356 3278 1631 3431 
Q 1906 3584 2284 3584 
Q 2666 3584 2933 3390 
Q 3200 3197 3328 2828 
z
" transform="scale(0.015625)"/>
     </defs>
     <use xlink:href="#DejaVuSans-51"/>
     <use xlink:href="#DejaVuSans-75" x="78.710938"/>
     <use xlink:href="#DejaVuSans-65" x="142.089844"/>
     <use xlink:href="#DejaVuSans-75" x="203.613281"/>
     <use xlink:href="#DejaVuSans-65" x="266.992188"/>
     <use xlink:href="#DejaVuSans-20" x="328.515625"/>
     <use xlink:href="#DejaVuSans-73" x="360.302734"/>
     <use xlink:href="#DejaVuSans-69" x="412.402344"/>
     <use xlink:href="#DejaVuSans-7a" x="440.185547"/>
     <use xlink:href="#DejaVuSans-65" x="492.675781"/>
     <use xlink:href="#DejaVuSans-20" x="554.199219"/>
     <use xlink:href="#DejaVuSans-28" x="585.986328"/>
     <use xlink:href="#DejaVuSans-79" x="625"/>
     <use xlink:href="#DejaVuSans-2d" x="682.429688"/>
     <use xlink:href="#DejaVuSans-61" x="718.513672"/>
     <use xlink:href="#DejaVuSans-78" x="779.792969"/>
     <use xlink:href="#DejaVuSans-69" x="838.972656"/>
     <use xlink:href="#DejaVuSans-73" x="866.755859"/>
     <use xlink:href="#DejaVuSans-29" x="918.855469"/>
     <use xlink:href="#DejaVuSans-20" x="957.869141"/>
     <use xlink:href="#DejaVuSans-62" x="989.65625"/>
     <use xlink:href="#DejaVuSans-65" x="1053.132812"/>
     <use xlink:href="#DejaVuSans-74" x="1114.65625"/>
     <use xlink:href="#DejaVuSans-77" x="1153.865234"/>
     <use xlink:href="#DejaVuSans-65" x="1235.652344"/>
     <use xlink:href="#DejaVuSans-65" x="1297.175781"/>
     <use xlink:href="#DejaVuSans-6e" x="1358.699219"/>
     <use xlink:href="#DejaVuSans-20" x="1422.078125"/>
     <use xlink:href="#DejaVuSans-53" x="1453.865234"/>
     <use xlink:href="#DejaVuSans-34" x="1517.341797"/>
     <use xlink:href="#DejaVuSans-20" x="1580.964844"/>
     <use xlink:href="#DejaVuSans-61" x="1612.751953"/>
     <use xlink:href="#DejaVuSans-6e" x="1674.03125"/>
     <use xlink:href="#DejaVuSans-64" x="1737.410156"/>
     <use xlink:href="#DejaVuSans-20" x="1800.886719"/>
     <use xlink:href="#DejaVuSans-73" x="1832.673828"/>
     <use xlink:href="#DejaVuSans-65" x="1884.773438"/>
     <use xlink:href="#DejaVuSans-6e" x="1946.296875"/>
     <use xlink:href="#DejaVuSans-73" x="2009.675781"/>
     <use xlink:href="#DejaVuSans-6f" x="2061.775391"/>
     <use xlink:href="#DejaVuSans-72" x="2122.957031"/>
     <use xlink:href="#DejaVuSans-73" x="2164.070312"/>
     <use xlink:href="#DejaVuSans-20" x="2216.169922"/>
     <use xlink:href="#DejaVuSans-74" x="2247.957031"/>
     <use xlink:href="#DejaVuSans-68" x="2287.166016"/>
     <use xlink:href="#DejaVuSans-61" x="2350.544922"/>
     <use xlink:href="#DejaVuSans-74" x="2411.824219"/>
     <use xlink:href="#DejaVuSans-20" x="2451.033203"/>
     <use xlink:href="#DejaVuSans-66" x="2482.820312"/>
     <use xlink:href="#DejaVuSans-6f" x="2518.025391"/>
     <use xlink:href="#DejaVuSans-6c" x="2579.207031"/>
     <use xlink:href="#DejaVuSans-6c" x="2606.990234"/>
     <use xlink:href="#DejaVuSans-6f" x="2634.773438"/>
     <use xlink:href="#DejaVuSans-77" x="2695.955078"/>
     <use xlink:href="#DejaVuSans-20" x="2777.742188"/>
     <use xlink:href="#DejaVuSans-61" x="2809.529297"/>
     <use xlink:href="#DejaVuSans-74" x="2870.808594"/>
     <use xlink:href="#DejaVuSans-20" x="2910.017578"/>
     <use xlink:href="#DejaVuSans-61" x="2941.804688"/>
     <use xlink:href="#DejaVuSans-20" x="3003.083984"/>
     <use xlink:href="#DejaVuSans-74" x="3034.871094"/>
     <use xlink:href="#DejaVuSans-69" x="3074.080078"/>
     <use xlink:href="#DejaVuSans-6d" x="3101.863281"/>
     <use xlink:href="#DejaVuSans-65" x="3199.275391"/>
     <use xlink:href="#DejaVuSans-20" x="3260.798828"/>
     <use xlink:href="#DejaVuSans-28" x="3292.585938"/>
     <use xlink:href="#DejaVuSans-78" x="3331.599609"/>
     <use xlink:href="#DejaVuSans-2d" x="3390.779297"/>
     <use xlink:href="#DejaVuSans-61" x="3426.863281"/>
     <use xlink:href="#DejaVuSans-78" x="3488.142578"/>
     <use xlink:href="#DejaVuSans-69" x="3547.322266"/>
     <use xlink:href="#DejaVuSans-73" x="3575.105469"/>
     <use xlink:href="#DejaVuSans-29" x="3627.205078"/>
     <use xlink:href="#DejaVuSans-2e" x="3666.21875"/>
    </g>
   </g>
  </g>
 </g>
 <defs>
  <clipPath id="p7f60b67821">
   <rect x="57.6" y="41.472" width="357.12" height="266.112"/>
  </clipPath>
 </defs>
</svg>
