<?xml version="1.0" encoding="utf-8" standalone="no"?>
<!DOCTYPE svg PUBLIC "-//W3C//DTD SVG 1.1//EN"
  "http://www.w3.org/Graphics/SVG/1.1/DTD/svg11.dtd">
<svg xmlns:xlink="http://www.w3.org/1999/xlink" width="460.8pt" height="345.6pt" viewBox="0 0 460.8 345.6" xmlns="http://www.w3.org/2000/svg" version="1.1">
 <metadata>
  <rdf:RDF xmlns:dc="http://purl.org/dc/elements/1.1/" xmlns:cc="http://creativecommons.org/ns#" xmlns:rdf="http://www.w3.org/1999/02/22-rdf-syntax-ns#">
   <cc:Work>
    <dc:type rdf:resource="http://purl.org/dc/dcmitype/StillImage"/>
    <dc:date>2024-03-08T12:41:09.039032</dc:date>
    <dc:format>image/svg+xml</dc:format>
    <dc:creator>
     <cc:Agent>
      <dc:title>Matplotlib v3.8.2, https://matplotlib.org/</dc:title>
     </cc:Agent>
    </dc:creator>
   </cc:Work>
  </rdf:RDF>
 </metadata>
 <defs>
  <style type="text/css">*{stroke-linejoin: round; stroke-linecap: butt}</style>
 </defs>
 <g id="figure_1">
  <g id="patch_1">
   <path d="M 0 345.6 
L 460.8 345.6 
L 460.8 0 
L 0 0 
z
" style="fill: #ffffff"/>
  </g>
  <g id="axes_1">
   <g id="patch_2">
    <path d="M 57.6 307.584 
L 414.72 307.584 
L 414.72 41.472 
L 57.6 41.472 
z
" style="fill: #ffffff"/>
   </g>
   <g id="matplotlib.axis_1">
    <g id="xtick_1">
     <g id="line2d_1">
      <defs>
       <path id="m0953a80d63" d="M 0 0 
L 0 3.5 
" style="stroke: #000000; stroke-width: 0.8"/>
      </defs>
      <g>
       <use xlink:href="#m0953a80d63" x="73.832727" y="307.584" style="stroke: #000000; stroke-width: 0.8"/>
      </g>
     </g>
     <g id="text_1">
      <!-- 0.0 -->
      <g transform="translate(65.881165 322.182437) scale(0.1 -0.1)">
       <defs>
        <path id="DejaVuSans-30" d="M 2034 4250 
Q 1547 4250 1301 3770 
Q 1056 3291 1056 2328 
Q 1056 1369 1301 889 
Q 1547 409 2034 409 
Q 2525 409 2770 889 
Q 3016 1369 3016 2328 
Q 3016 3291 2770 3770 
Q 2525 4250 2034 4250 
z
M 2034 4750 
Q 2819 4750 3233 4129 
Q 3647 3509 3647 2328 
Q 3647 1150 3233 529 
Q 2819 -91 2034 -91 
Q 1250 -91 836 529 
Q 422 1150 422 2328 
Q 422 3509 836 4129 
Q 1250 4750 2034 4750 
z
" transform="scale(0.015625)"/>
        <path id="DejaVuSans-2e" d="M 684 794 
L 1344 794 
L 1344 0 
L 684 0 
L 684 794 
z
" transform="scale(0.015625)"/>
       </defs>
       <use xlink:href="#DejaVuSans-30"/>
       <use xlink:href="#DejaVuSans-2e" x="63.623047"/>
       <use xlink:href="#DejaVuSans-30" x="95.410156"/>
      </g>
     </g>
    </g>
    <g id="xtick_2">
     <g id="line2d_2">
      <g>
       <use xlink:href="#m0953a80d63" x="115.965834" y="307.584" style="stroke: #000000; stroke-width: 0.8"/>
      </g>
     </g>
     <g id="text_2">
      <!-- 0.2 -->
      <g transform="translate(108.014271 322.182437) scale(0.1 -0.1)">
       <defs>
        <path id="DejaVuSans-32" d="M 1228 531 
L 3431 531 
L 3431 0 
L 469 0 
L 469 531 
Q 828 903 1448 1529 
Q 2069 2156 2228 2338 
Q 2531 2678 2651 2914 
Q 2772 3150 2772 3378 
Q 2772 3750 2511 3984 
Q 2250 4219 1831 4219 
Q 1534 4219 1204 4116 
Q 875 4013 500 3803 
L 500 4441 
Q 881 4594 1212 4672 
Q 1544 4750 1819 4750 
Q 2544 4750 2975 4387 
Q 3406 4025 3406 3419 
Q 3406 3131 3298 2873 
Q 3191 2616 2906 2266 
Q 2828 2175 2409 1742 
Q 1991 1309 1228 531 
z
" transform="scale(0.015625)"/>
       </defs>
       <use xlink:href="#DejaVuSans-30"/>
       <use xlink:href="#DejaVuSans-2e" x="63.623047"/>
       <use xlink:href="#DejaVuSans-32" x="95.410156"/>
      </g>
     </g>
    </g>
    <g id="xtick_3">
     <g id="line2d_3">
      <g>
       <use xlink:href="#m0953a80d63" x="158.09894" y="307.584" style="stroke: #000000; stroke-width: 0.8"/>
      </g>
     </g>
     <g id="text_3">
      <!-- 0.4 -->
      <g transform="translate(150.147378 322.182437) scale(0.1 -0.1)">
       <defs>
        <path id="DejaVuSans-34" d="M 2419 4116 
L 825 1625 
L 2419 1625 
L 2419 4116 
z
M 2253 4666 
L 3047 4666 
L 3047 1625 
L 3713 1625 
L 3713 1100 
L 3047 1100 
L 3047 0 
L 2419 0 
L 2419 1100 
L 313 1100 
L 313 1709 
L 2253 4666 
z
" transform="scale(0.015625)"/>
       </defs>
       <use xlink:href="#DejaVuSans-30"/>
       <use xlink:href="#DejaVuSans-2e" x="63.623047"/>
       <use xlink:href="#DejaVuSans-34" x="95.410156"/>
      </g>
     </g>
    </g>
    <g id="xtick_4">
     <g id="line2d_4">
      <g>
       <use xlink:href="#m0953a80d63" x="200.232047" y="307.584" style="stroke: #000000; stroke-width: 0.8"/>
      </g>
     </g>
     <g id="text_4">
      <!-- 0.6 -->
      <g transform="translate(192.280484 322.182437) scale(0.1 -0.1)">
       <defs>
        <path id="DejaVuSans-36" d="M 2113 2584 
Q 1688 2584 1439 2293 
Q 1191 2003 1191 1497 
Q 1191 994 1439 701 
Q 1688 409 2113 409 
Q 2538 409 2786 701 
Q 3034 994 3034 1497 
Q 3034 2003 2786 2293 
Q 2538 2584 2113 2584 
z
M 3366 4563 
L 3366 3988 
Q 3128 4100 2886 4159 
Q 2644 4219 2406 4219 
Q 1781 4219 1451 3797 
Q 1122 3375 1075 2522 
Q 1259 2794 1537 2939 
Q 1816 3084 2150 3084 
Q 2853 3084 3261 2657 
Q 3669 2231 3669 1497 
Q 3669 778 3244 343 
Q 2819 -91 2113 -91 
Q 1303 -91 875 529 
Q 447 1150 447 2328 
Q 447 3434 972 4092 
Q 1497 4750 2381 4750 
Q 2619 4750 2861 4703 
Q 3103 4656 3366 4563 
z
" transform="scale(0.015625)"/>
       </defs>
       <use xlink:href="#DejaVuSans-30"/>
       <use xlink:href="#DejaVuSans-2e" x="63.623047"/>
       <use xlink:href="#DejaVuSans-36" x="95.410156"/>
      </g>
     </g>
    </g>
    <g id="xtick_5">
     <g id="line2d_5">
      <g>
       <use xlink:href="#m0953a80d63" x="242.365153" y="307.584" style="stroke: #000000; stroke-width: 0.8"/>
      </g>
     </g>
     <g id="text_5">
      <!-- 0.8 -->
      <g transform="translate(234.413591 322.182437) scale(0.1 -0.1)">
       <defs>
        <path id="DejaVuSans-38" d="M 2034 2216 
Q 1584 2216 1326 1975 
Q 1069 1734 1069 1313 
Q 1069 891 1326 650 
Q 1584 409 2034 409 
Q 2484 409 2743 651 
Q 3003 894 3003 1313 
Q 3003 1734 2745 1975 
Q 2488 2216 2034 2216 
z
M 1403 2484 
Q 997 2584 770 2862 
Q 544 3141 544 3541 
Q 544 4100 942 4425 
Q 1341 4750 2034 4750 
Q 2731 4750 3128 4425 
Q 3525 4100 3525 3541 
Q 3525 3141 3298 2862 
Q 3072 2584 2669 2484 
Q 3125 2378 3379 2068 
Q 3634 1759 3634 1313 
Q 3634 634 3220 271 
Q 2806 -91 2034 -91 
Q 1263 -91 848 271 
Q 434 634 434 1313 
Q 434 1759 690 2068 
Q 947 2378 1403 2484 
z
M 1172 3481 
Q 1172 3119 1398 2916 
Q 1625 2713 2034 2713 
Q 2441 2713 2670 2916 
Q 2900 3119 2900 3481 
Q 2900 3844 2670 4047 
Q 2441 4250 2034 4250 
Q 1625 4250 1398 4047 
Q 1172 3844 1172 3481 
z
" transform="scale(0.015625)"/>
       </defs>
       <use xlink:href="#DejaVuSans-30"/>
       <use xlink:href="#DejaVuSans-2e" x="63.623047"/>
       <use xlink:href="#DejaVuSans-38" x="95.410156"/>
      </g>
     </g>
    </g>
    <g id="xtick_6">
     <g id="line2d_6">
      <g>
       <use xlink:href="#m0953a80d63" x="284.49826" y="307.584" style="stroke: #000000; stroke-width: 0.8"/>
      </g>
     </g>
     <g id="text_6">
      <!-- 1.0 -->
      <g transform="translate(276.546697 322.182437) scale(0.1 -0.1)">
       <defs>
        <path id="DejaVuSans-31" d="M 794 531 
L 1825 531 
L 1825 4091 
L 703 3866 
L 703 4441 
L 1819 4666 
L 2450 4666 
L 2450 531 
L 3481 531 
L 3481 0 
L 794 0 
L 794 531 
z
" transform="scale(0.015625)"/>
       </defs>
       <use xlink:href="#DejaVuSans-31"/>
       <use xlink:href="#DejaVuSans-2e" x="63.623047"/>
       <use xlink:href="#DejaVuSans-30" x="95.410156"/>
      </g>
     </g>
    </g>
    <g id="xtick_7">
     <g id="line2d_7">
      <g>
       <use xlink:href="#m0953a80d63" x="326.631366" y="307.584" style="stroke: #000000; stroke-width: 0.8"/>
      </g>
     </g>
     <g id="text_7">
      <!-- 1.2 -->
      <g transform="translate(318.679804 322.182437) scale(0.1 -0.1)">
       <use xlink:href="#DejaVuSans-31"/>
       <use xlink:href="#DejaVuSans-2e" x="63.623047"/>
       <use xlink:href="#DejaVuSans-32" x="95.410156"/>
      </g>
     </g>
    </g>
    <g id="xtick_8">
     <g id="line2d_8">
      <g>
       <use xlink:href="#m0953a80d63" x="368.764473" y="307.584" style="stroke: #000000; stroke-width: 0.8"/>
      </g>
     </g>
     <g id="text_8">
      <!-- 1.4 -->
      <g transform="translate(360.81291 322.182437) scale(0.1 -0.1)">
       <use xlink:href="#DejaVuSans-31"/>
       <use xlink:href="#DejaVuSans-2e" x="63.623047"/>
       <use xlink:href="#DejaVuSans-34" x="95.410156"/>
      </g>
     </g>
    </g>
    <g id="xtick_9">
     <g id="line2d_9">
      <g>
       <use xlink:href="#m0953a80d63" x="410.897579" y="307.584" style="stroke: #000000; stroke-width: 0.8"/>
      </g>
     </g>
     <g id="text_9">
      <!-- 1.6 -->
      <g transform="translate(402.946017 322.182437) scale(0.1 -0.1)">
       <use xlink:href="#DejaVuSans-31"/>
       <use xlink:href="#DejaVuSans-2e" x="63.623047"/>
       <use xlink:href="#DejaVuSans-36" x="95.410156"/>
      </g>
     </g>
    </g>
    <g id="text_10">
     <!-- 1e6 -->
     <g transform="translate(395.841875 334.860562) scale(0.1 -0.1)">
      <defs>
       <path id="DejaVuSans-65" d="M 3597 1894 
L 3597 1613 
L 953 1613 
Q 991 1019 1311 708 
Q 1631 397 2203 397 
Q 2534 397 2845 478 
Q 3156 559 3463 722 
L 3463 178 
Q 3153 47 2828 -22 
Q 2503 -91 2169 -91 
Q 1331 -91 842 396 
Q 353 884 353 1716 
Q 353 2575 817 3079 
Q 1281 3584 2069 3584 
Q 2775 3584 3186 3129 
Q 3597 2675 3597 1894 
z
M 3022 2063 
Q 3016 2534 2758 2815 
Q 2500 3097 2075 3097 
Q 1594 3097 1305 2825 
Q 1016 2553 972 2059 
L 3022 2063 
z
" transform="scale(0.015625)"/>
      </defs>
      <use xlink:href="#DejaVuSans-31"/>
      <use xlink:href="#DejaVuSans-65" x="63.623047"/>
      <use xlink:href="#DejaVuSans-36" x="125.146484"/>
     </g>
    </g>
   </g>
   <g id="matplotlib.axis_2">
    <g id="ytick_1">
     <g id="line2d_10">
      <defs>
       <path id="maf36df8fc3" d="M 0 0 
L -3.5 0 
" style="stroke: #000000; stroke-width: 0.8"/>
      </defs>
      <g>
       <use xlink:href="#maf36df8fc3" x="57.6" y="295.488" style="stroke: #000000; stroke-width: 0.8"/>
      </g>
     </g>
     <g id="text_11">
      <!-- 0.0 -->
      <g transform="translate(34.696875 299.287219) scale(0.1 -0.1)">
       <use xlink:href="#DejaVuSans-30"/>
       <use xlink:href="#DejaVuSans-2e" x="63.623047"/>
       <use xlink:href="#DejaVuSans-30" x="95.410156"/>
      </g>
     </g>
    </g>
    <g id="ytick_2">
     <g id="line2d_11">
      <g>
       <use xlink:href="#maf36df8fc3" x="57.6" y="247.104" style="stroke: #000000; stroke-width: 0.8"/>
      </g>
     </g>
     <g id="text_12">
      <!-- 0.2 -->
      <g transform="translate(34.696875 250.903219) scale(0.1 -0.1)">
       <use xlink:href="#DejaVuSans-30"/>
       <use xlink:href="#DejaVuSans-2e" x="63.623047"/>
       <use xlink:href="#DejaVuSans-32" x="95.410156"/>
      </g>
     </g>
    </g>
    <g id="ytick_3">
     <g id="line2d_12">
      <g>
       <use xlink:href="#maf36df8fc3" x="57.6" y="198.72" style="stroke: #000000; stroke-width: 0.8"/>
      </g>
     </g>
     <g id="text_13">
      <!-- 0.4 -->
      <g transform="translate(34.696875 202.519219) scale(0.1 -0.1)">
       <use xlink:href="#DejaVuSans-30"/>
       <use xlink:href="#DejaVuSans-2e" x="63.623047"/>
       <use xlink:href="#DejaVuSans-34" x="95.410156"/>
      </g>
     </g>
    </g>
    <g id="ytick_4">
     <g id="line2d_13">
      <g>
       <use xlink:href="#maf36df8fc3" x="57.6" y="150.336" style="stroke: #000000; stroke-width: 0.8"/>
      </g>
     </g>
     <g id="text_14">
      <!-- 0.6 -->
      <g transform="translate(34.696875 154.135219) scale(0.1 -0.1)">
       <use xlink:href="#DejaVuSans-30"/>
       <use xlink:href="#DejaVuSans-2e" x="63.623047"/>
       <use xlink:href="#DejaVuSans-36" x="95.410156"/>
      </g>
     </g>
    </g>
    <g id="ytick_5">
     <g id="line2d_14">
      <g>
       <use xlink:href="#maf36df8fc3" x="57.6" y="101.952" style="stroke: #000000; stroke-width: 0.8"/>
      </g>
     </g>
     <g id="text_15">
      <!-- 0.8 -->
      <g transform="translate(34.696875 105.751219) scale(0.1 -0.1)">
       <use xlink:href="#DejaVuSans-30"/>
       <use xlink:href="#DejaVuSans-2e" x="63.623047"/>
       <use xlink:href="#DejaVuSans-38" x="95.410156"/>
      </g>
     </g>
    </g>
    <g id="ytick_6">
     <g id="line2d_15">
      <g>
       <use xlink:href="#maf36df8fc3" x="57.6" y="53.568" style="stroke: #000000; stroke-width: 0.8"/>
      </g>
     </g>
     <g id="text_16">
      <!-- 1.0 -->
      <g transform="translate(34.696875 57.367219) scale(0.1 -0.1)">
       <use xlink:href="#DejaVuSans-31"/>
       <use xlink:href="#DejaVuSans-2e" x="63.623047"/>
       <use xlink:href="#DejaVuSans-30" x="95.410156"/>
      </g>
     </g>
    </g>
   </g>
   <g id="line2d_16">
    <path d="M 73.832727 295.488 
L 104.393976 295.488 
L 104.393976 295.085471 
L 104.663628 295.085471 
L 104.663628 294.682942 
L 105.129199 294.682942 
L 105.129199 294.280413 
L 105.413597 294.280413 
L 105.413597 293.877884 
L 105.853888 293.877884 
L 105.853888 293.475354 
L 106.15514 293.475354 
L 106.15514 293.072825 
L 106.582791 293.072825 
L 106.582791 292.670296 
L 106.890363 292.670296 
L 106.890363 292.267767 
L 107.311694 292.267767 
L 107.311694 291.865238 
L 107.634012 291.865238 
L 107.634012 291.462709 
L 108.055343 291.462709 
L 108.055343 291.06018 
L 108.388195 291.06018 
L 108.388195 290.657651 
L 108.788459 290.657651 
L 108.788459 290.255121 
L 109.140271 290.255121 
L 109.140271 289.852592 
L 109.534215 289.852592 
L 109.534215 289.450063 
L 109.867067 289.450063 
L 109.867067 289.047534 
L 110.269438 289.047534 
L 110.269438 288.645005 
L 110.591756 288.645005 
L 110.591756 288.242476 
L 110.998341 288.242476 
L 110.998341 287.839947 
L 111.318552 287.839947 
L 111.318552 287.437418 
L 111.74199 287.437418 
L 111.74199 287.034889 
L 112.057988 287.034889 
L 112.057988 286.632359 
L 112.460359 286.632359 
L 112.460359 286.22983 
L 112.786891 286.22983 
L 112.786891 285.827301 
L 113.191369 285.827301 
L 113.191369 285.424772 
L 113.5179 285.424772 
L 113.5179 285.022243 
L 113.932911 285.022243 
L 113.932911 284.619714 
L 114.265763 284.619714 
L 114.265763 284.217185 
L 114.674454 284.217185 
L 114.674454 283.814656 
L 115.017839 283.814656 
L 115.017839 283.412126 
L 115.399143 283.412126 
L 115.399143 283.009597 
L 115.767808 283.009597 
L 115.767808 282.607068 
L 116.134366 282.607068 
L 116.134366 282.204539 
L 116.515671 282.204539 
L 116.515671 281.80201 
L 116.880122 281.80201 
L 116.880122 281.399481 
L 117.257213 281.399481 
L 117.257213 280.996952 
L 117.617452 280.996952 
L 117.617452 280.594423 
L 118.005076 280.594423 
L 118.005076 280.191894 
L 118.356888 280.191894 
L 118.356888 279.789364 
L 118.750832 279.789364 
L 118.750832 279.386835 
L 119.094217 279.386835 
L 119.094217 278.984306 
L 119.490268 278.984306 
L 119.490268 278.581777 
L 119.833653 278.581777 
L 119.833653 278.179248 
L 120.223384 278.179248 
L 120.223384 277.776719 
L 120.566769 277.776719 
L 120.566769 277.37419 
L 121.304098 277.37419 
L 121.304098 276.971661 
L 121.685403 276.971661 
L 121.685403 276.569131 
L 122.039321 276.569131 
L 122.039321 276.166602 
L 122.420626 276.166602 
L 122.420626 275.764073 
L 122.764011 275.764073 
L 122.764011 275.361544 
L 123.149528 275.361544 
L 123.149528 274.959015 
L 123.275928 274.959015 
L 123.275928 274.556486 
L 123.497127 274.556486 
L 123.497127 274.153957 
L 123.874218 274.153957 
L 123.874218 273.751428 
L 124.01115 273.751428 
L 124.01115 273.348899 
L 124.238669 273.348899 
L 124.238669 272.946369 
L 124.506214 272.946369 
L 124.609441 272.141311 
L 124.744267 272.141311 
L 124.744267 271.738782 
L 124.938079 271.738782 
L 124.986532 270.933724 
L 125.34677 270.933724 
L 125.357303 270.128666 
L 125.494236 270.128666 
L 125.494236 269.726136 
L 125.723861 269.726136 
L 125.770208 268.921078 
L 126.096739 268.921078 
L 126.193645 268.11602 
L 126.210499 268.11602 
L 126.210499 267.713491 
L 126.456977 267.713491 
L 126.456977 267.310962 
L 126.623403 267.310962 
L 126.623403 266.908433 
L 126.846709 266.908433 
L 126.846709 266.505903 
L 126.968895 266.505903 
L 127.034201 265.700845 
L 127.206947 265.700845 
L 127.206947 265.298316 
L 127.444999 265.298316 
L 127.444999 264.895787 
L 127.706224 264.895787 
L 127.706224 264.493258 
L 127.864223 264.493258 
L 127.954809 263.6882 
L 128.287661 263.6882 
L 128.331901 262.883141 
L 128.443553 262.883141 
L 128.443553 262.480612 
L 128.708992 262.480612 
L 128.708992 261.675554 
L 128.708992 261.675554 
L 129.073443 261.675554 
L 129.13243 260.870496 
L 129.189309 260.870496 
L 129.189309 260.467967 
L 129.461068 260.467967 
L 129.547441 259.662908 
L 129.814986 259.662908 
L 129.814986 259.260379 
L 129.935065 259.260379 
L 129.962452 258.455321 
L 130.181544 258.455321 
L 130.181544 258.052792 
L 130.381676 258.052792 
L 130.381676 257.650263 
L 130.562849 257.650263 
L 130.562849 257.247734 
L 130.676608 257.247734 
L 130.676608 256.845205 
L 130.805114 256.845205 
L 130.805114 256.442676 
L 131.220125 256.442676 
L 131.293858 255.637617 
L 131.426577 255.637617 
L 131.426577 255.235088 
L 131.637243 255.235088 
L 131.654096 254.43003 
L 132.031187 254.43003 
L 132.069107 253.624972 
L 132.159693 253.624972 
L 132.159693 253.222443 
L 132.389319 253.222443 
L 132.498865 252.417384 
L 132.762197 252.417384 
L 132.762197 252.014855 
L 132.899129 252.014855 
L 132.920196 251.209797 
L 133.120328 251.209797 
L 133.120328 250.807268 
L 133.328887 250.807268 
L 133.337314 250.00221 
L 133.505846 250.00221 
L 133.505846 249.599681 
L 133.640672 249.599681 
L 133.640672 249.197151 
L 133.764965 249.197151 
L 133.851337 247.989564 
L 134.192616 247.989564 
L 134.257922 247.184506 
L 134.369575 247.184506 
L 134.380108 246.379448 
L 134.590773 246.379448 
L 134.61816 245.574389 
L 134.904665 245.574389 
L 134.978398 244.769331 
L 135.039491 244.769331 
L 135.094264 243.964273 
L 135.332316 243.964273 
L 135.437649 243.159215 
L 135.456609 243.159215 
L 135.519808 242.354156 
L 135.726261 242.354156 
L 135.825274 241.549098 
L 135.869513 241.549098 
L 135.968526 240.74404 
L 136.063326 240.74404 
L 136.063326 240.341511 
L 136.238178 240.341511 
L 136.284524 239.536453 
L 136.46991 239.536453 
L 136.490977 238.731394 
L 136.716389 238.731394 
L 136.806975 237.926336 
L 136.998681 237.926336 
L 137.019747 237.121278 
L 137.13772 237.121278 
L 137.13772 236.718749 
L 137.542198 236.718749 
L 137.569584 235.511161 
L 137.738117 235.511161 
L 137.738117 235.108632 
L 137.942462 235.108632 
L 137.984595 234.303574 
L 138.073075 234.303574 
L 138.073075 233.901045 
L 138.27742 233.901045 
L 138.27742 233.498516 
L 138.401713 233.498516 
L 138.458593 232.693458 
L 138.597632 232.693458 
L 138.667152 231.888399 
L 138.835684 231.888399 
L 138.835684 231.48587 
L 139.00843 231.48587 
L 139.117976 230.680812 
L 139.183282 230.680812 
L 139.254908 229.875754 
L 139.404481 229.875754 
L 139.404481 229.473225 
L 139.63832 229.473225 
L 139.674133 228.668166 
L 139.752079 228.668166 
L 139.752079 228.265637 
L 139.914292 228.265637 
L 139.914292 227.863108 
L 140.099677 227.863108 
L 140.169197 226.655521 
L 140.521008 226.655521 
L 140.521008 226.252992 
L 140.657941 226.252992 
L 140.683221 225.447933 
L 140.90442 225.447933 
L 140.946553 224.642875 
L 141.222524 224.642875 
L 141.222524 224.240346 
L 141.36367 224.240346 
L 141.37631 223.435288 
L 141.652282 223.435288 
L 141.738655 222.63023 
L 141.787108 222.63023 
L 141.787108 222.2277 
L 142.09468 222.2277 
L 142.09468 221.825171 
L 142.206332 221.825171 
L 142.269532 221.020113 
L 142.400145 221.020113 
L 142.400145 220.617584 
L 142.633984 220.617584 
L 142.633984 220.215055 
L 142.798303 220.215055 
L 142.842542 219.409997 
L 143.061635 219.409997 
L 143.150114 218.604938 
L 143.331286 218.604938 
L 143.331286 218.202409 
L 143.489286 218.202409 
L 143.586192 217.397351 
L 143.862164 217.397351 
L 143.912723 216.189764 
L 144.323521 216.189764 
L 144.388827 214.982176 
L 144.610026 214.982176 
L 144.610026 214.579647 
L 144.742746 214.579647 
L 144.742746 214.177118 
L 144.917598 214.177118 
L 144.917598 213.774589 
L 145.065064 213.774589 
L 145.164077 212.969531 
L 145.351569 212.969531 
L 145.448475 212.164473 
L 145.579088 212.164473 
L 145.579088 211.761943 
L 145.78554 211.761943 
L 145.78554 211.359414 
L 145.970926 211.359414 
L 146.074152 210.151827 
L 146.419643 210.151827 
L 146.512336 209.346769 
L 146.535509 209.346769 
L 146.535509 208.94424 
L 146.813588 208.94424 
L 146.838868 208.139181 
L 147.039 208.139181 
L 147.039 207.736652 
L 147.253879 207.736652 
L 147.260199 206.931594 
L 147.553024 206.931594 
L 147.576197 206.126536 
L 147.666783 206.126536 
L 147.666783 205.724007 
L 147.986995 205.724007 
L 148.079688 204.918948 
L 148.115501 204.918948 
L 148.115501 204.516419 
L 148.294566 204.516419 
L 148.294566 204.11389 
L 148.505232 204.11389 
L 148.505232 203.711361 
L 148.730644 203.711361 
L 148.730644 203.308832 
L 148.92867 203.308832 
L 149.038216 202.503774 
L 149.358427 202.503774 
L 149.358427 202.101245 
L 149.478507 202.101245 
L 149.478507 201.698715 
L 149.773438 201.698715 
L 149.779758 200.893657 
L 150.192663 200.893657 
L 150.196876 200.088599 
L 150.496021 200.088599 
L 150.496021 199.68607 
L 150.607674 199.68607 
L 150.607674 199.283541 
L 151.022685 199.283541 
L 151.022685 198.881012 
L 151.231244 198.881012 
L 151.231244 198.478483 
L 151.450336 198.478483 
L 151.450336 198.075953 
L 151.867454 198.075953 
L 151.968573 197.270895 
L 152.295105 197.270895 
L 152.295105 196.868366 
L 152.710116 196.868366 
L 152.722756 196.063308 
L 153.150407 196.063308 
L 153.150407 195.660779 
L 153.441125 195.660779 
L 153.441125 195.25825 
L 153.995176 195.25825 
L 153.995176 194.85572 
L 154.191095 194.85572 
L 154.191095 194.453191 
L 154.418613 194.453191 
L 154.418613 194.050662 
L 154.831518 194.050662 
L 154.926317 193.245604 
L 155.261276 193.245604 
L 155.261276 192.843075 
L 156.103938 192.843075 
L 156.103938 192.440546 
L 156.529482 192.440546 
L 156.529482 192.038017 
L 156.676948 192.038017 
L 156.676948 191.635488 
L 156.950813 191.635488 
L 156.950813 191.232958 
L 157.365824 191.232958 
L 157.414277 190.4279 
L 157.599663 190.4279 
L 157.599663 190.025371 
L 157.785049 190.025371 
L 157.785049 189.622842 
L 158.147393 189.622842 
L 158.2127 188.817784 
L 158.351739 188.817784 
L 158.351739 188.415255 
L 158.625604 188.415255 
L 158.638244 187.610196 
L 158.891043 187.610196 
L 158.891043 187.207667 
L 159.057468 187.207667 
L 159.148055 186.00008 
L 159.480906 186.00008 
L 159.480906 185.597551 
L 159.617839 185.597551 
L 159.681038 184.792493 
L 159.815864 184.792493 
L 159.902237 183.987434 
L 160.195062 183.987434 
L 160.195062 183.584905 
L 160.329888 183.584905 
L 160.355168 182.779847 
L 160.54266 182.779847 
L 160.54266 182.377318 
L 160.730153 182.377318 
L 160.763859 181.57226 
L 161.075644 181.57226 
L 161.183084 180.767201 
L 161.246283 180.767201 
L 161.27999 179.962143 
L 161.593881 179.962143 
L 161.593881 179.559614 
L 161.766627 179.559614 
L 161.766627 179.157085 
L 162.013106 179.157085 
L 162.023639 178.352027 
L 162.289078 178.352027 
L 162.289078 177.949498 
L 162.428117 177.949498 
L 162.428117 177.546968 
L 162.746222 177.546968 
L 162.845235 176.339381 
L 163.266566 176.339381 
L 163.329765 175.534323 
L 163.496191 175.534323 
L 163.496191 175.131794 
L 163.69843 175.131794 
L 163.69843 174.729265 
L 163.862749 174.729265 
L 163.862749 174.326735 
L 164.117655 174.326735 
L 164.216667 173.521677 
L 164.387306 173.521677 
L 164.387306 173.119148 
L 164.538986 173.119148 
L 164.538986 172.716619 
L 164.905544 172.716619 
L 164.953997 171.509032 
L 165.371114 171.509032 
L 165.427994 170.703973 
L 165.687113 170.703973 
L 165.781912 169.898915 
L 165.954658 169.898915 
L 165.954658 169.496386 
L 166.203243 169.496386 
L 166.203243 169.093857 
L 166.434975 169.093857 
L 166.491855 168.288799 
L 166.626681 168.288799 
L 166.626681 167.88627 
L 167.007986 167.88627 
L 167.039585 167.081211 
L 167.165985 167.081211 
L 167.165985 166.678682 
L 167.46513 166.678682 
L 167.540969 165.873624 
L 167.680009 165.873624 
L 167.680009 165.471095 
L 167.890674 165.471095 
L 167.903314 164.666037 
L 168.065527 164.666037 
L 168.065527 164.263507 
L 168.299365 164.263507 
L 168.299365 163.860978 
L 168.415231 163.860978 
L 168.415231 163.458449 
L 168.628004 163.458449 
L 168.714376 162.653391 
L 169.129388 162.653391 
L 169.154667 161.848333 
L 169.3548 161.848333 
L 169.3548 161.445804 
L 169.552825 161.445804 
L 169.552825 161.043275 
L 169.906743 161.043275 
L 169.969943 160.238216 
L 170.098449 160.238216 
L 170.098449 159.835687 
L 170.389167 159.835687 
L 170.389167 159.433158 
L 170.810498 159.433158 
L 170.854738 158.6281 
L 171.594174 158.6281 
L 171.594174 158.225571 
L 172.32729 158.225571 
L 172.32729 157.823042 
L 173.073046 157.823042 
L 173.073046 157.420512 
L 173.823016 157.420512 
L 173.823016 157.017983 
L 174.547705 157.017983 
L 174.547705 156.615454 
L 175.006956 156.615454 
L 175.006956 156.212925 
L 175.272394 156.212925 
L 175.272394 155.810396 
L 175.430394 155.810396 
L 175.430394 155.407867 
L 175.849618 155.407867 
L 175.849618 155.005338 
L 175.990764 155.005338 
L 175.990764 154.602809 
L 176.270949 154.602809 
L 176.270949 154.20028 
L 176.683854 154.20028 
L 176.72388 153.395221 
L 177.456996 153.395221 
L 177.456996 152.992692 
L 178.05318 152.992692 
L 178.05318 152.590163 
L 178.192219 152.590163 
L 178.192219 152.187634 
L 178.798935 152.187634 
L 178.798935 151.785105 
L 178.937975 151.785105 
L 178.937975 151.382576 
L 179.538372 151.382576 
L 179.538372 150.980047 
L 179.685837 150.980047 
L 179.685837 150.577517 
L 180.206181 150.577517 
L 180.275701 149.772459 
L 180.42738 149.772459 
L 180.42738 149.36993 
L 180.741272 149.36993 
L 180.741272 148.967401 
L 181.01935 148.967401 
L 181.01935 148.564872 
L 181.168923 148.564872 
L 181.263722 147.759814 
L 181.767213 147.759814 
L 181.775639 146.954755 
L 181.897825 146.954755 
L 181.897825 146.552226 
L 182.295983 146.552226 
L 182.295983 146.149697 
L 182.498222 146.149697 
L 182.498222 145.747168 
L 182.643581 145.747168 
L 182.643581 145.344639 
L 182.828967 145.344639 
L 182.828967 144.94211 
L 183.231338 144.94211 
L 183.231338 144.539581 
L 183.364058 144.539581 
L 183.370378 143.734522 
L 183.878081 143.734522 
L 183.966561 142.929464 
L 184.11824 142.929464 
L 184.11824 142.526935 
L 184.714424 142.526935 
L 184.714424 142.124406 
L 184.84293 142.124406 
L 184.84293 141.721877 
L 185.449646 141.721877 
L 185.470713 140.916819 
L 185.584472 140.916819 
L 185.584472 140.51429 
L 185.892044 140.51429 
L 185.892044 140.11176 
L 186.182762 140.11176 
L 186.182762 139.709231 
L 186.317588 139.709231 
L 186.344975 138.904173 
L 186.728386 138.904173 
L 186.728386 138.501644 
L 186.920092 138.501644 
L 186.920092 138.099115 
L 187.078091 138.099115 
L 187.153931 137.294057 
L 187.573155 137.294057 
L 187.573155 136.891527 
L 187.823847 136.891527 
L 187.823847 136.488998 
L 187.992379 136.488998 
L 187.992379 136.086469 
L 188.415817 136.086469 
L 188.415817 135.68394 
L 188.563283 135.68394 
L 188.563283 135.281411 
L 188.830828 135.281411 
L 188.830828 134.878882 
L 189.258479 134.878882 
L 189.292186 134.073824 
L 189.688237 134.073824 
L 189.688237 133.671295 
L 190.012662 133.671295 
L 190.113781 132.866236 
L 190.533006 132.866236 
L 190.533006 132.463707 
L 190.739458 132.463707 
L 190.739458 132.061178 
L 190.943803 132.061178 
L 190.943803 131.658649 
L 191.365135 131.658649 
L 191.365135 131.25612 
L 191.483107 131.25612 
L 191.483107 130.853591 
L 191.786466 130.853591 
L 191.786466 130.451062 
L 192.195157 130.451062 
L 192.22465 129.646003 
L 192.319449 129.646003 
L 192.319449 129.243474 
L 192.618594 129.243474 
L 192.618594 128.840945 
L 192.846113 128.840945 
L 192.953553 128.035887 
L 193.042032 128.035887 
L 193.042032 127.633358 
L 193.368564 127.633358 
L 193.47179 126.8283 
L 193.886801 126.8283 
L 193.886801 126.023241 
L 193.886801 126.023241 
L 194.303919 126.023241 
L 194.303919 125.620712 
L 194.421891 125.620712 
L 194.421891 125.218183 
L 194.729463 125.218183 
L 194.729463 124.815654 
L 194.952769 124.815654 
L 194.952769 124.413125 
L 195.152901 124.413125 
L 195.152901 124.010596 
L 195.485752 124.010596 
L 195.485752 123.608067 
L 196.00399 123.608067 
L 196.00399 123.205537 
L 196.530653 123.205537 
L 196.530653 122.803008 
L 197.069957 122.803008 
L 197.069957 122.400479 
L 197.590301 122.400479 
L 197.590301 121.99795 
L 198.131711 121.99795 
L 198.131711 121.595421 
L 198.658375 121.595421 
L 198.658375 121.192892 
L 199.176612 121.192892 
L 199.176612 120.790363 
L 199.703276 120.790363 
L 199.703276 120.387834 
L 200.23626 120.387834 
L 200.23626 119.985304 
L 205.494472 119.985304 
L 205.494472 119.582775 
L 206.004282 119.582775 
L 206.004282 119.180246 
L 206.221268 119.180246 
L 206.221268 118.777717 
L 206.530946 118.777717 
L 206.638386 117.972659 
L 207.04497 117.972659 
L 207.059717 117.167601 
L 207.485261 117.167601 
L 207.580061 116.362542 
L 207.904485 116.362542 
L 207.904485 115.960013 
L 208.098298 115.960013 
L 208.098298 115.557484 
L 208.31739 115.557484 
L 208.31739 115.154955 
L 208.734508 115.154955 
L 208.734508 114.752426 
L 209.164265 114.752426 
L 209.164265 114.349897 
L 209.585596 114.349897 
L 209.585596 113.947368 
L 210.002714 113.947368 
L 210.002714 113.544839 
L 210.424045 113.544839 
L 210.424045 113.142309 
L 210.841163 113.142309 
L 210.841163 112.73978 
L 211.264601 112.73978 
L 211.264601 112.337251 
L 211.683825 112.337251 
L 211.683825 111.934722 
L 212.10305 111.934722 
L 212.10305 111.532193 
L 212.511741 111.532193 
L 212.511741 111.129664 
L 212.935178 111.129664 
L 212.935178 110.727135 
L 213.362829 110.727135 
L 213.362829 110.324606 
L 213.782054 110.324606 
L 213.782054 109.922077 
L 214.213918 109.922077 
L 214.213918 109.519547 
L 214.641569 109.519547 
L 214.641569 109.117018 
L 215.060794 109.117018 
L 215.060794 108.714489 
L 215.480018 108.714489 
L 215.480018 108.31196 
L 215.913989 108.31196 
L 215.913989 107.909431 
L 216.337427 107.909431 
L 216.337427 107.506902 
L 216.762971 107.506902 
L 216.762971 107.104373 
L 217.175876 107.104373 
L 217.175876 106.701844 
L 217.599313 106.701844 
L 217.599313 106.299314 
L 218.012218 106.299314 
L 218.012218 105.896785 
L 218.444082 105.896785 
L 218.444082 105.494256 
L 218.86752 105.494256 
L 218.86752 105.091727 
L 219.290957 105.091727 
L 219.290957 104.689198 
L 219.705969 104.689198 
L 219.705969 104.286669 
L 220.129406 104.286669 
L 220.129406 103.88414 
L 220.540204 103.88414 
L 220.540204 103.481611 
L 220.955215 103.481611 
L 220.955215 103.079082 
L 221.382866 103.079082 
L 221.382866 102.676552 
L 221.810517 102.676552 
L 221.810517 102.274023 
L 222.225528 102.274023 
L 222.225528 101.871494 
L 222.653179 101.871494 
L 222.653179 101.468965 
L 223.076617 101.468965 
L 223.076617 101.066436 
L 223.497948 101.066436 
L 223.497948 100.663907 
L 223.919279 100.663907 
L 223.919279 100.261378 
L 224.338504 100.261378 
L 224.338504 99.858849 
L 224.759835 99.858849 
L 224.759835 99.456319 
L 225.183272 99.456319 
L 225.183272 99.05379 
L 225.596177 99.05379 
L 225.596177 98.651261 
L 226.021721 98.651261 
L 226.021721 98.248732 
L 226.447266 98.248732 
L 226.447266 97.846203 
L 226.87913 97.846203 
L 226.87913 97.443674 
L 227.302568 97.443674 
L 227.302568 97.041145 
L 227.723899 97.041145 
L 227.723899 96.638616 
L 228.13891 96.638616 
L 228.13891 96.236087 
L 228.558134 96.236087 
L 228.646614 95.431028 
L 228.979465 95.431028 
L 228.979465 95.028499 
L 229.166958 95.028499 
L 229.166958 94.62597 
L 229.400796 94.62597 
L 229.400796 94.223441 
L 229.699941 94.223441 
L 229.699941 93.820912 
L 229.817914 93.820912 
L 229.817914 93.418383 
L 230.235032 93.418383 
L 230.235032 92.613324 
L 230.235032 92.613324 
L 230.755376 92.613324 
L 230.755376 92.210795 
L 231.279933 92.210795 
L 231.279933 91.808266 
L 231.800277 91.808266 
L 231.800277 91.405737 
L 231.932996 91.405737 
L 231.932996 91.003208 
L 232.329047 91.003208 
L 232.350114 90.19815 
L 232.767232 90.19815 
L 232.849391 89.393092 
L 233.186456 89.393092 
L 233.186456 88.990562 
L 233.373948 88.990562 
L 233.373948 88.588033 
L 233.60568 88.588033 
L 233.60568 88.185504 
L 233.898506 88.185504 
L 233.898506 87.782975 
L 234.029118 87.782975 
L 234.029118 87.380446 
L 234.423063 87.380446 
L 234.448343 86.575388 
L 234.86546 86.575388 
L 234.95394 85.770329 
L 235.284685 85.770329 
L 235.284685 85.3678 
L 235.47639 85.3678 
L 235.47639 84.965271 
L 235.706016 84.965271 
L 235.706016 84.562742 
L 236.121027 84.562742 
L 236.121027 84.160213 
L 236.544465 84.160213 
L 236.544465 83.757684 
L 236.965796 83.757684 
L 236.965796 83.355155 
L 237.38502 83.355155 
L 237.38502 82.952626 
L 237.810564 82.952626 
L 237.810564 82.550097 
L 238.236109 82.550097 
L 238.236109 82.147567 
L 238.65112 82.147567 
L 238.65112 81.745038 
L 239.072451 81.745038 
L 239.072451 81.342509 
L 239.487462 81.342509 
L 239.487462 80.93998 
L 239.908793 80.93998 
L 239.908793 80.537451 
L 240.336444 80.537451 
L 240.336444 80.134922 
L 240.755669 80.134922 
L 240.755669 79.732393 
L 241.17068 79.732393 
L 241.17068 79.329864 
L 243.374241 79.329864 
L 243.374241 78.927334 
L 243.905118 78.927334 
L 243.905118 78.524805 
L 244.427569 78.524805 
L 244.427569 78.122276 
L 244.956339 78.122276 
L 244.956339 77.719747 
L 245.480896 77.719747 
L 245.480896 77.317218 
L 246.015987 77.317218 
L 246.015987 76.914689 
L 246.534224 76.914689 
L 246.534224 76.51216 
L 247.069315 76.51216 
L 247.069315 76.109631 
L 247.598085 76.109631 
L 247.598085 75.707101 
L 248.137389 75.707101 
L 248.137389 75.304572 
L 248.655626 75.304572 
L 248.655626 74.902043 
L 249.16965 74.902043 
L 249.16965 74.499514 
L 249.569914 74.499514 
L 249.569914 74.096985 
L 249.702634 74.096985 
L 249.702634 73.694456 
L 249.982819 73.694456 
L 249.982819 73.291927 
L 250.239831 73.291927 
L 250.239831 72.889398 
L 250.402043 72.889398 
L 250.402043 72.486869 
L 250.774921 72.486869 
L 250.821268 71.68181 
L 251.236279 71.68181 
L 251.303692 70.876752 
L 251.659717 70.876752 
L 251.659717 70.474223 
L 252.087368 70.474223 
L 252.087368 70.071694 
L 252.512912 70.071694 
L 252.512912 69.669165 
L 252.92371 69.669165 
L 252.92371 69.266636 
L 253.340828 69.266636 
L 253.340828 68.864106 
L 253.753732 68.864106 
L 253.753732 68.461577 
L 254.17717 68.461577 
L 254.17717 68.059048 
L 254.598501 68.059048 
L 254.598501 67.656519 
L 255.021938 67.656519 
L 255.021938 67.25399 
L 255.445376 67.25399 
L 255.445376 66.851461 
L 255.862494 66.851461 
L 255.862494 66.448932 
L 262.192993 66.448932 
L 262.192993 66.046403 
L 262.616431 66.046403 
L 262.616431 65.643874 
L 263.041975 65.643874 
L 263.041975 65.241344 
L 263.475946 65.241344 
L 263.475946 64.838815 
L 263.897277 64.838815 
L 263.897277 64.436286 
L 264.327035 64.436286 
L 264.327035 64.033757 
L 264.744153 64.033757 
L 264.744153 63.631228 
L 265.171804 63.631228 
L 265.171804 63.228699 
L 265.588922 63.228699 
L 265.588922 62.82617 
L 266.008146 62.82617 
L 266.008146 62.423641 
L 266.435797 62.423641 
L 266.435797 62.021111 
L 266.850808 62.021111 
L 266.850808 61.618582 
L 267.282672 61.618582 
L 267.282672 61.216053 
L 267.701897 61.216053 
L 267.701897 60.813524 
L 268.116908 60.813524 
L 268.116908 60.410995 
L 268.538239 60.410995 
L 268.538239 60.008466 
L 268.955357 60.008466 
L 268.955357 59.605937 
L 269.376688 59.605937 
L 269.376688 59.203408 
L 269.798019 59.203408 
L 269.798019 58.800879 
L 270.210923 58.800879 
L 270.210923 58.398349 
L 270.636468 58.398349 
L 270.636468 57.99582 
L 271.051479 57.99582 
L 271.051479 57.593291 
L 271.470703 57.593291 
L 271.470703 57.190762 
L 271.881501 57.190762 
L 271.881501 56.788233 
L 292.983867 56.788233 
L 292.983867 56.385704 
L 293.525278 56.385704 
L 293.525278 55.983175 
L 294.049835 55.983175 
L 294.049835 55.580646 
L 294.580712 55.580646 
L 294.580712 55.178116 
L 295.107376 55.178116 
L 295.107376 54.775587 
L 295.629826 54.775587 
L 295.629826 54.373058 
L 296.160704 54.373058 
L 296.160704 53.970529 
L 296.681047 53.970529 
L 296.681047 53.568 
L 296.681047 53.568 
" clip-path="url(#pbea2227c93)" style="fill: none; stroke: #1f77b4; stroke-width: 1.5; stroke-linecap: square"/>
   </g>
   <g id="line2d_17">
    <path d="M 73.832727 295.488 
L 89.50203 295.488 
L 89.50203 295.047344 
L 90.028693 295.047344 
L 90.028693 294.606689 
L 90.555357 294.606689 
L 90.555357 294.166033 
L 91.075701 294.166033 
L 91.075701 293.725377 
L 91.596045 293.725377 
L 91.596045 293.284721 
L 92.126922 293.284721 
L 92.126922 292.844066 
L 92.657799 292.844066 
L 92.657799 292.40341 
L 93.182356 292.40341 
L 93.182356 291.962754 
L 93.71534 291.962754 
L 93.71534 291.522098 
L 94.235684 291.522098 
L 94.235684 291.081443 
L 94.749708 291.081443 
L 94.749708 290.640787 
L 95.276372 290.640787 
L 95.276372 290.200131 
L 95.798822 290.200131 
L 95.798822 289.759475 
L 96.321273 289.759475 
L 96.321273 289.31882 
L 101.088634 289.31882 
L 101.088634 288.878164 
L 109.237177 288.878164 
L 109.237177 288.437508 
L 109.970293 288.437508 
L 109.970293 287.996852 
L 110.703409 287.996852 
L 110.703409 287.556197 
L 111.116313 287.556197 
L 111.116313 287.115541 
L 111.449165 287.115541 
L 111.449165 286.674885 
L 111.642977 286.674885 
L 111.642977 286.23423 
L 112.169641 286.23423 
L 112.188601 285.352918 
L 112.696305 285.352918 
L 112.696305 284.912262 
L 112.930143 284.912262 
L 112.930143 284.471607 
L 113.231395 284.471607 
L 113.231395 284.030951 
L 113.661153 284.030951 
L 113.747526 283.149639 
L 114.265763 283.149639 
L 114.265763 282.708984 
L 114.79664 282.708984 
L 114.79664 282.268328 
L 115.316984 282.268328 
L 115.316984 281.827672 
L 115.849968 281.827672 
L 115.849968 281.387016 
L 116.370312 281.387016 
L 116.370312 280.946361 
L 116.888549 280.946361 
L 116.888549 280.505705 
L 117.410999 280.505705 
L 117.410999 280.065049 
L 117.93345 280.065049 
L 117.93345 279.624393 
L 118.464327 279.624393 
L 118.464327 279.183738 
L 119.005737 279.183738 
L 119.005737 278.743082 
L 119.523975 278.743082 
L 119.523975 278.302426 
L 120.054852 278.302426 
L 120.054852 277.86177 
L 120.570982 277.86177 
L 120.570982 277.421115 
L 121.101859 277.421115 
L 121.101859 276.980459 
L 121.634843 276.980459 
L 121.634843 276.539803 
L 122.167827 276.539803 
L 122.167827 276.099148 
L 126.878308 276.099148 
L 126.878308 275.658492 
L 127.394439 275.658492 
L 127.394439 275.217836 
L 127.927423 275.217836 
L 127.927423 274.77718 
L 128.466726 274.77718 
L 128.466726 274.336525 
L 129.003924 274.336525 
L 129.003924 273.895869 
L 129.526374 273.895869 
L 129.526374 273.455213 
L 130.050931 273.455213 
L 130.050931 273.014557 
L 130.571275 273.014557 
L 130.571275 272.573902 
L 141.610149 272.573902 
L 141.610149 272.133246 
L 142.145239 272.133246 
L 142.145239 271.69259 
L 142.65505 271.69259 
L 142.65505 271.251934 
L 143.185927 271.251934 
L 143.185927 270.811279 
L 143.723124 270.811279 
L 143.723124 270.370623 
L 144.243468 270.370623 
L 144.243468 269.929967 
L 144.765919 269.929967 
L 144.765919 269.489311 
L 145.284156 269.489311 
L 145.284156 269.048656 
L 145.81082 269.048656 
L 145.81082 268.608 
L 146.34591 268.608 
L 146.34591 268.167344 
L 146.881001 268.167344 
L 146.881001 267.726689 
L 147.409771 267.726689 
L 147.409771 267.286033 
L 147.942755 267.286033 
L 147.942755 266.845377 
L 148.284033 266.845377 
L 148.284033 266.404721 
L 148.479952 266.404721 
L 148.479952 265.964066 
L 149.004509 265.964066 
L 149.025576 265.082754 
L 149.53328 265.082754 
L 149.53328 264.642098 
L 149.762905 264.642098 
L 149.762905 264.201443 
L 150.059944 264.201443 
L 150.059944 263.760787 
L 150.506554 263.760787 
L 150.590821 262.879475 
L 151.125911 262.879475 
L 151.125911 262.43882 
L 151.24599 262.43882 
L 151.24599 261.998164 
L 151.654682 261.998164 
L 151.654682 261.557508 
L 151.98332 261.557508 
L 151.98332 261.116852 
L 152.183452 261.116852 
L 152.183452 260.676197 
L 152.720649 260.676197 
L 152.729076 259.794885 
L 153.245206 259.794885 
L 153.245206 259.35423 
L 153.472725 259.35423 
L 153.472725 258.913574 
L 153.76555 258.913574 
L 153.76555 258.472918 
L 154.214268 258.472918 
L 154.304854 257.591607 
L 154.835731 257.591607 
L 154.945277 256.710295 
L 155.347648 256.710295 
L 155.347648 256.269639 
L 155.68682 256.269639 
L 155.68682 255.828984 
L 155.867992 255.828984 
L 155.867992 255.388328 
L 156.37991 255.388328 
L 156.426256 254.507016 
L 156.919213 254.507016 
L 156.919213 254.066361 
L 157.169905 254.066361 
L 157.169905 253.625705 
L 157.44377 253.625705 
L 157.44377 253.185049 
L 157.888275 253.185049 
L 157.972541 252.303738 
L 158.511845 252.303738 
L 158.612964 251.422426 
L 159.040615 251.422426 
L 159.040615 250.98177 
L 159.33344 250.98177 
L 159.33344 250.541115 
L 159.571492 250.541115 
L 159.571492 250.100459 
L 160.07077 250.100459 
L 160.091836 249.219148 
L 160.616393 249.219148 
L 160.616393 248.778492 
L 160.810206 248.778492 
L 160.810206 248.337836 
L 161.149377 248.337836 
L 161.149377 247.89718 
L 161.684468 247.89718 
L 161.684468 247.456525 
L 162.209025 247.456525 
L 162.291184 246.575213 
L 162.735689 246.575213 
L 162.735689 246.134557 
L 163.026407 246.134557 
L 163.026407 245.693902 
L 163.258139 245.693902 
L 163.258139 245.253246 
L 163.75531 245.253246 
L 163.776376 244.371934 
L 164.311467 244.371934 
L 164.311467 243.931279 
L 164.482106 243.931279 
L 164.482106 243.490623 
L 164.848664 243.490623 
L 164.848664 243.049967 
L 165.223649 243.049967 
L 165.223649 242.609311 
L 165.377434 242.609311 
L 165.377434 242.168656 
L 165.908312 242.168656 
L 165.952551 241.287344 
L 166.424442 241.287344 
L 166.424442 240.846689 
L 166.689881 240.846689 
L 166.689881 240.406033 
L 166.951106 240.406033 
L 166.951106 239.965377 
L 167.422997 239.965377 
L 167.479876 239.084066 
L 167.996007 239.084066 
L 167.996007 238.64341 
L 168.154006 238.64341 
L 168.154006 238.202754 
L 168.535311 238.202754 
L 168.535311 237.762098 
L 168.885016 237.762098 
L 168.885016 237.321443 
L 169.061975 237.321443 
L 169.061975 236.880787 
L 169.597065 236.880787 
L 169.622345 235.999475 
L 170.134262 235.999475 
L 170.134262 235.55882 
L 170.353354 235.55882 
L 170.353354 235.118164 
L 170.671459 235.118164 
L 170.671459 234.677508 
L 171.090684 234.677508 
L 171.191803 233.796197 
L 171.844866 233.796197 
L 171.844866 233.355541 
L 172.247237 233.355541 
L 172.247237 232.914885 
L 172.577982 232.914885 
L 172.577982 232.47423 
L 172.784435 232.47423 
L 172.784435 232.033574 
L 173.302672 232.033574 
L 173.319525 231.152262 
L 173.839869 231.152262 
L 173.839869 230.711607 
L 174.364426 230.711607 
L 174.364426 230.270951 
L 174.804717 230.270951 
L 174.888983 229.389639 
L 175.415647 229.389639 
L 175.415647 228.948984 
L 175.561006 228.948984 
L 175.561006 228.508328 
L 175.938098 228.508328 
L 175.938098 228.067672 
L 176.298336 228.067672 
L 176.298336 227.627016 
L 176.464761 227.627016 
L 176.464761 227.186361 
L 176.982999 227.186361 
L 177.039878 226.305049 
L 177.501236 226.305049 
L 177.501236 225.864393 
L 177.787741 225.864393 
L 177.787741 225.423738 
L 178.025793 225.423738 
L 178.025793 224.983082 
L 178.51875 224.983082 
L 178.55667 224.10177 
L 179.093867 224.10177 
L 179.093867 223.661115 
L 179.245546 223.661115 
L 179.245546 223.220459 
L 179.620531 223.220459 
L 179.620531 222.779803 
L 180.001836 222.779803 
L 180.001836 222.339148 
L 180.155622 222.339148 
L 180.155622 221.898492 
L 180.688605 221.898492 
L 180.743378 221.01718 
L 181.211056 221.01718 
L 181.211056 220.576525 
L 181.463854 220.576525 
L 181.463854 220.135869 
L 182.201184 220.135869 
L 182.201184 219.695213 
L 182.923767 219.695213 
L 182.923767 219.254557 
L 183.650563 219.254557 
L 183.650563 218.813902 
L 184.373145 218.813902 
L 184.373145 218.373246 
L 185.102048 218.373246 
L 185.102048 217.93259 
L 185.833058 217.93259 
L 185.833058 217.491934 
L 186.58092 217.491934 
L 186.58092 217.051279 
L 188.068219 217.051279 
L 188.068219 216.610623 
L 188.795015 216.610623 
L 188.795015 216.169967 
L 189.536558 216.169967 
L 189.536558 215.729311 
L 190.267567 215.729311 
L 190.267567 215.288656 
L 191.02175 215.288656 
L 191.02175 214.848 
L 191.763292 214.848 
L 191.763292 214.407344 
L 197.621901 214.407344 
L 197.621901 213.966689 
L 197.952646 213.966689 
L 197.952646 213.526033 
L 198.35291 213.526033 
L 198.37187 212.644721 
L 198.788988 212.644721 
L 198.788988 212.204066 
L 199.201892 212.204066 
L 199.201892 211.76341 
L 199.616903 211.76341 
L 199.616903 211.322754 
L 200.048768 211.322754 
L 200.048768 210.882098 
L 200.472205 210.882098 
L 200.472205 210.441443 
L 200.90407 210.441443 
L 200.90407 210.000787 
L 201.329614 210.000787 
L 201.329614 209.560131 
L 201.744625 209.560131 
L 201.744625 209.119475 
L 202.16385 209.119475 
L 202.16385 208.67882 
L 202.585181 208.67882 
L 202.585181 208.238164 
L 206.493026 208.238164 
L 206.493026 207.797508 
L 207.021797 207.797508 
L 207.021797 207.356852 
L 207.542141 207.356852 
L 207.542141 206.916197 
L 208.054058 206.916197 
L 208.054058 206.475541 
L 213.775734 206.475541 
L 213.775734 206.034885 
L 214.192852 206.034885 
L 214.192852 205.59423 
L 214.605756 205.59423 
L 214.605756 205.153574 
L 215.0313 205.153574 
L 215.0313 204.712918 
L 215.450525 204.712918 
L 215.450525 204.272262 
L 215.878176 204.272262 
L 215.878176 203.831607 
L 216.288974 203.831607 
L 216.288974 203.390951 
L 216.718731 203.390951 
L 216.718731 202.950295 
L 217.03473 202.950295 
L 217.129529 202.068984 
L 217.546647 202.068984 
L 217.565607 201.187672 
L 217.965871 201.187672 
L 217.965871 200.747016 
L 218.085951 200.747016 
L 218.085951 200.306361 
L 218.387202 200.306361 
L 218.387202 199.865705 
L 218.614721 199.865705 
L 218.614721 199.425049 
L 218.808533 199.425049 
L 218.808533 198.984393 
L 219.137172 198.984393 
L 219.234078 198.103082 
L 219.659622 198.103082 
L 219.659622 197.662426 
L 220.085167 197.662426 
L 220.085167 197.22177 
L 220.500178 197.22177 
L 220.500178 196.781115 
L 220.919402 196.781115 
L 220.919402 196.340459 
L 221.34284 196.340459 
L 221.34284 195.899803 
L 221.755744 195.899803 
L 221.755744 195.459148 
L 222.177075 195.459148 
L 222.177075 195.018492 
L 222.592086 195.018492 
L 222.592086 194.577836 
L 223.015524 194.577836 
L 223.015524 194.13718 
L 223.445282 194.13718 
L 223.445282 193.696525 
L 223.8624 193.696525 
L 223.8624 193.255869 
L 224.281624 193.255869 
L 224.281624 192.815213 
L 224.702955 192.815213 
L 224.702955 192.374557 
L 225.126393 192.374557 
L 225.126393 191.933902 
L 225.54983 191.933902 
L 225.54983 191.493246 
L 225.979588 191.493246 
L 225.979588 191.05259 
L 226.394599 191.05259 
L 226.394599 190.611934 
L 226.805397 190.611934 
L 226.805397 190.171279 
L 227.224621 190.171279 
L 227.224621 189.730623 
L 227.650166 189.730623 
L 227.650166 189.289967 
L 228.073604 189.289967 
L 228.073604 188.849311 
L 228.490721 188.849311 
L 228.490721 188.408656 
L 228.920479 188.408656 
L 228.920479 187.968 
L 229.118505 187.968 
L 229.118505 187.527344 
L 229.350237 187.527344 
L 229.350237 187.086689 
L 229.657808 187.086689 
L 229.657808 186.646033 
L 229.777888 186.646033 
L 229.777888 186.205377 
L 230.184472 186.205377 
L 230.203432 185.324066 
L 230.622656 185.324066 
L 230.715349 184.442754 
L 231.050308 184.442754 
L 231.050308 184.002098 
L 231.239906 184.002098 
L 231.239906 183.561443 
L 231.469532 183.561443 
L 231.469532 183.120787 
L 231.762357 183.120787 
L 231.762357 182.680131 
L 231.89929 182.680131 
L 231.89929 182.239475 
L 232.293234 182.239475 
L 232.322727 181.358164 
L 232.746165 181.358164 
L 232.815685 180.476852 
L 233.167496 180.476852 
L 233.167496 180.036197 
L 233.597254 180.036197 
L 233.597254 179.595541 
L 234.018585 179.595541 
L 234.018585 179.154885 
L 234.450449 179.154885 
L 234.450449 178.71423 
L 234.8781 178.71423 
L 234.8781 178.273574 
L 235.305751 178.273574 
L 235.305751 177.832918 
L 235.727082 177.832918 
L 235.727082 177.392262 
L 236.15684 177.392262 
L 236.15684 176.951607 
L 236.582384 176.951607 
L 236.582384 176.510951 
L 236.997395 176.510951 
L 236.997395 176.070295 
L 237.414513 176.070295 
L 237.414513 175.629639 
L 237.827418 175.629639 
L 237.827418 175.188984 
L 238.678506 175.188984 
L 238.678506 174.748328 
L 239.099838 174.748328 
L 239.099838 174.307672 
L 239.516955 174.307672 
L 239.516955 173.867016 
L 239.9425 173.867016 
L 239.9425 173.426361 
L 240.374364 173.426361 
L 240.374364 172.985705 
L 240.799908 172.985705 
L 240.799908 172.545049 
L 241.208599 172.545049 
L 241.208599 172.104393 
L 241.943822 172.104393 
L 241.943822 171.663738 
L 242.670618 171.663738 
L 242.670618 171.223082 
L 243.315255 171.223082 
L 243.397414 170.34177 
L 243.728159 170.34177 
L 243.728159 169.901115 
L 244.126317 169.901115 
L 244.151597 169.019803 
L 244.562395 169.019803 
L 244.562395 168.579148 
L 244.869966 168.579148 
L 244.869966 168.138492 
L 244.987939 168.138492 
L 244.987939 167.697836 
L 245.41559 167.697836 
L 245.41559 167.25718 
L 245.605189 167.25718 
L 245.605189 166.816525 
L 245.841135 166.816525 
L 245.841135 166.375869 
L 246.260359 166.375869 
L 246.348838 165.494557 
L 246.67537 165.494557 
L 246.67537 165.053902 
L 247.084061 165.053902 
L 247.096701 164.17259 
L 247.515926 164.17259 
L 247.515926 163.731934 
L 247.812964 163.731934 
L 247.812964 163.291279 
L 247.94147 163.291279 
L 247.94147 162.850623 
L 248.356481 162.850623 
L 248.356481 162.409967 
L 248.556613 162.409967 
L 248.556613 161.969311 
L 248.777812 161.969311 
L 248.777812 161.528656 
L 249.199143 161.528656 
L 249.274983 160.647344 
L 249.626794 160.647344 
L 249.626794 160.206689 
L 250.008099 160.206689 
L 250.048125 159.325377 
L 250.47367 159.325377 
L 250.47367 158.884721 
L 250.747535 158.884721 
L 250.747535 158.444066 
L 250.888681 158.444066 
L 250.888681 158.00341 
L 251.297372 158.00341 
L 251.297372 157.562754 
L 251.491184 157.562754 
L 251.491184 157.122098 
L 251.718703 157.122098 
L 251.718703 156.681443 
L 252.133714 156.681443 
L 252.213767 155.800131 
L 252.548725 155.800131 
L 252.548725 155.359475 
L 252.94899 155.359475 
L 252.94899 154.91882 
L 253.694746 154.91882 
L 253.694746 154.478164 
L 254.432075 154.478164 
L 254.432075 154.037508 
L 255.173618 154.037508 
L 255.173618 153.596852 
L 255.90884 153.596852 
L 255.90884 153.156197 
L 256.648276 153.156197 
L 256.648276 152.715541 
L 257.381392 152.715541 
L 257.381392 152.274885 
L 258.135575 152.274885 
L 258.135575 151.83423 
L 258.877118 151.83423 
L 258.877118 151.393574 
L 259.608127 151.393574 
L 259.608127 150.952918 
L 260.341243 150.952918 
L 260.341243 150.512262 
L 260.956387 150.512262 
L 260.956387 150.071607 
L 261.082786 150.071607 
L 261.082786 149.630951 
L 261.375611 149.630951 
L 261.375611 149.190295 
L 261.803262 149.190295 
L 261.830648 148.308984 
L 262.22038 148.308984 
L 262.22038 147.868328 
L 262.567978 147.868328 
L 262.639604 146.987016 
L 263.067255 146.987016 
L 263.067255 146.546361 
L 263.301094 146.546361 
L 263.301094 146.105705 
L 263.488586 146.105705 
L 263.488586 145.665049 
L 264.051063 145.665049 
L 264.051063 145.224393 
L 264.798926 145.224393 
L 264.798926 144.783738 
L 265.553108 144.783738 
L 265.553108 144.343082 
L 266.305184 144.343082 
L 266.305184 143.902426 
L 267.02566 143.902426 
L 267.02566 143.46177 
L 268.498213 143.46177 
L 268.498213 143.021115 
L 269.233435 143.021115 
L 269.233435 142.580459 
L 271.873074 142.580459 
L 271.873074 142.139803 
L 272.296512 142.139803 
L 272.296512 141.699148 
L 272.71995 141.699148 
L 272.71995 141.258492 
L 273.143388 141.258492 
L 273.143388 140.817836 
L 273.554185 140.817836 
L 273.554185 140.37718 
L 273.975516 140.37718 
L 273.975516 139.936525 
L 274.407381 139.936525 
L 274.407381 139.495869 
L 274.828712 139.495869 
L 274.828712 139.055213 
L 275.660841 139.055213 
L 275.660841 138.614557 
L 276.080065 138.614557 
L 276.080065 138.173902 
L 276.497183 138.173902 
L 276.497183 137.733246 
L 276.918514 137.733246 
L 276.918514 137.29259 
L 277.331418 137.29259 
L 277.331418 136.851934 
L 277.744323 136.851934 
L 277.744323 136.411279 
L 278.159334 136.411279 
L 278.159334 135.970623 
L 278.582772 135.970623 
L 278.582772 135.529967 
L 288.165947 135.529967 
L 288.165947 135.089311 
L 288.597811 135.089311 
L 288.597811 134.648656 
L 289.019142 134.648656 
L 289.019142 134.208 
L 289.444686 134.208 
L 289.444686 133.767344 
L 289.859698 133.767344 
L 289.859698 133.326689 
L 289.988204 133.326689 
L 289.988204 132.886033 
L 290.285242 132.886033 
L 290.285242 132.445377 
L 290.405321 132.445377 
L 290.405321 132.004721 
L 290.70236 132.004721 
L 290.70236 131.564066 
L 290.816119 131.564066 
L 290.816119 131.12341 
L 291.121584 131.12341 
L 291.121584 130.682754 
L 291.247983 130.682754 
L 291.247983 130.242098 
L 291.540809 130.242098 
L 291.540809 129.801443 
L 291.675634 129.801443 
L 291.675634 129.360787 
L 291.970566 129.360787 
L 291.970566 128.920131 
L 292.090646 128.920131 
L 292.090646 128.479475 
L 292.398217 128.479475 
L 292.398217 128.03882 
L 292.52251 128.03882 
L 292.52251 127.598164 
L 292.773202 127.598164 
L 292.809015 126.716852 
L 292.939628 126.716852 
L 292.939628 126.276197 
L 293.232453 126.276197 
L 293.232453 125.835541 
L 293.371492 125.835541 
L 293.371492 125.394885 
L 293.521065 125.394885 
L 293.521065 124.95423 
L 293.651677 124.95423 
L 293.651677 124.513574 
L 293.792823 124.513574 
L 293.792823 124.072918 
L 294.079328 124.072918 
L 294.079328 123.632262 
L 294.218367 123.632262 
L 294.258394 122.750951 
L 294.509086 122.750951 
L 294.509086 122.310295 
L 294.633379 122.310295 
L 294.633379 121.869639 
L 294.924097 121.869639 
L 294.99151 120.988328 
L 295.05471 120.988328 
L 295.05471 120.547672 
L 295.341215 120.547672 
L 295.341215 120.107016 
L 295.467614 120.107016 
L 295.467614 119.666361 
L 295.735159 119.666361 
L 295.768866 118.785049 
L 295.899478 118.785049 
L 295.899478 118.344393 
L 296.192303 118.344393 
L 296.192303 117.903738 
L 296.322916 117.903738 
L 296.322916 117.463082 
L 296.461955 117.463082 
L 296.461955 117.022426 
L 296.619954 117.022426 
L 296.619954 116.58177 
L 296.746354 116.58177 
L 296.746354 116.141115 
L 297.039179 116.141115 
L 297.039179 115.700459 
L 297.176112 115.700459 
L 297.199285 114.819148 
L 297.456297 114.819148 
L 297.456297 114.378492 
L 297.595336 114.378492 
L 297.595336 113.937836 
L 297.879734 113.937836 
L 297.919761 113.056525 
L 298.012454 113.056525 
L 298.012454 112.615869 
L 298.303172 112.615869 
L 298.303172 112.175213 
L 298.444318 112.175213 
L 298.444318 111.734557 
L 298.728716 111.734557 
L 298.728716 111.293902 
L 299.154261 111.293902 
L 299.154261 110.853246 
L 299.571379 110.853246 
L 299.571379 110.41259 
L 299.99271 110.41259 
L 299.99271 109.971934 
L 300.422467 109.971934 
L 300.422467 109.531279 
L 300.837478 109.531279 
L 300.837478 109.090623 
L 301.256703 109.090623 
L 301.256703 108.649967 
L 301.673821 108.649967 
L 301.673821 108.209311 
L 302.093045 108.209311 
L 302.093045 107.768656 
L 302.508056 107.768656 
L 302.508056 107.328 
L 302.93992 107.328 
L 302.93992 106.887344 
L 303.367572 106.887344 
L 303.367572 106.446689 
L 303.788903 106.446689 
L 303.788903 106.006033 
L 304.210234 106.006033 
L 304.210234 105.565377 
L 304.524125 105.565377 
L 304.623138 104.684066 
L 305.057109 104.684066 
L 305.057109 104.24341 
L 305.259348 104.24341 
L 305.259348 103.802754 
L 305.480547 103.802754 
L 305.480547 103.362098 
L 305.895558 103.362098 
L 305.895558 102.921443 
L 306.308462 102.921443 
L 306.308462 102.480787 
L 306.729793 102.480787 
L 306.729793 102.040131 
L 307.144804 102.040131 
L 307.144804 101.599475 
L 307.559816 101.599475 
L 307.559816 101.15882 
L 307.983253 101.15882 
L 307.983253 100.718164 
L 308.402478 100.718164 
L 308.402478 100.277508 
L 308.823809 100.277508 
L 308.823809 99.836852 
L 309.249353 99.836852 
L 309.249353 99.396197 
L 309.662258 99.396197 
L 309.662258 98.955541 
L 310.092015 98.955541 
L 310.092015 98.514885 
L 310.51124 98.514885 
L 310.51124 98.07423 
L 310.928357 98.07423 
L 310.928357 97.633574 
L 311.341262 97.633574 
L 311.341262 97.192918 
L 311.760486 97.192918 
L 311.760486 96.752262 
L 312.183924 96.752262 
L 312.183924 96.311607 
L 312.605255 96.311607 
L 312.605255 95.870951 
L 313.016053 95.870951 
L 313.016053 95.430295 
L 313.435277 95.430295 
L 313.435277 94.989639 
L 313.854502 94.989639 
L 313.854502 94.548984 
L 314.273726 94.548984 
L 314.273726 94.108328 
L 314.686631 94.108328 
L 314.686631 93.667672 
L 314.897296 93.667672 
L 314.897296 93.227016 
L 315.101642 93.227016 
L 315.101642 92.786361 
L 315.516653 92.786361 
L 315.516653 92.345705 
L 315.643052 92.345705 
L 315.643052 91.905049 
L 315.929557 91.905049 
L 315.929557 91.464393 
L 316.348782 91.464393 
L 316.382488 90.583082 
L 316.772219 90.583082 
L 316.772219 90.142426 
L 317.119817 90.142426 
L 317.19355 89.261115 
L 317.608561 89.261115 
L 317.608561 88.820459 
L 317.863467 88.820459 
L 317.863467 88.379803 
L 318.027786 88.379803 
L 318.027786 87.939148 
L 318.44701 87.939148 
L 318.44701 87.498492 
L 318.611329 87.498492 
L 318.611329 87.057836 
L 318.870448 87.057836 
L 318.870448 86.61718 
L 319.293886 86.61718 
L 319.342339 85.735869 
L 319.71943 85.735869 
L 319.71943 85.295213 
L 320.075455 85.295213 
L 320.151294 84.413902 
L 320.570519 84.413902 
L 320.570519 83.973246 
L 320.810678 83.973246 
L 320.810678 83.53259 
L 320.987637 83.53259 
L 321.065583 82.651279 
L 321.408968 82.651279 
L 321.408968 82.210623 
L 321.55854 82.210623 
L 321.55854 81.769967 
L 321.788166 81.769967 
L 321.832405 80.888656 
L 322.247417 80.888656 
L 322.293763 80.007344 
L 322.544455 80.007344 
L 322.544455 79.566689 
L 322.670854 79.566689 
L 322.670854 79.126033 
L 323.026879 79.126033 
L 323.026879 78.685377 
L 323.298638 78.685377 
L 323.298638 78.244721 
L 323.764208 78.244721 
L 323.764208 77.804066 
L 324.019114 77.804066 
L 324.019114 77.36341 
L 324.75855 77.36341 
L 324.75855 76.922754 
L 325.519052 76.922754 
L 325.519052 76.482098 
L 326.266915 76.482098 
L 326.266915 76.041443 
L 326.47126 76.041443 
L 326.47126 75.600787 
L 326.901018 75.600787 
L 326.901018 75.160131 
L 327.012671 75.160131 
L 327.012671 74.719475 
L 327.313923 74.719475 
L 327.313923 74.27882 
L 327.735254 74.27882 
L 327.745787 73.397508 
L 328.171331 73.397508 
L 328.171331 72.956852 
L 328.447303 72.956852 
L 328.447303 72.516197 
L 328.594769 72.516197 
L 328.594769 72.075541 
L 329.013993 72.075541 
L 329.013993 71.634885 
L 329.167779 71.634885 
L 329.167779 71.19423 
L 329.429005 71.19423 
L 329.429005 70.753574 
L 329.924069 70.753574 
L 329.924069 70.312918 
L 330.267453 70.312918 
L 330.267453 69.872262 
L 330.667718 69.872262 
L 330.695104 68.990951 
L 331.110115 68.990951 
L 331.110115 68.550295 
L 331.405047 68.550295 
L 331.405047 68.109639 
L 331.533553 68.109639 
L 331.533553 67.668984 
L 331.950671 67.668984 
L 331.950671 67.228328 
L 332.14659 67.228328 
L 332.14659 66.787672 
L 332.378322 66.787672 
L 332.378322 66.347016 
L 332.810186 66.347016 
L 332.879706 65.465705 
L 333.235731 65.465705 
L 333.235731 65.025049 
L 333.652848 65.025049 
L 333.652848 64.584393 
L 334.07418 64.584393 
L 334.07418 64.143738 
L 334.487084 64.143738 
L 334.487084 63.703082 
L 334.908415 63.703082 
L 334.908415 63.262426 
L 335.329746 63.262426 
L 335.329746 62.82177 
L 335.751077 62.82177 
L 335.751077 62.381115 
L 336.600059 62.381115 
L 336.600059 61.940459 
L 337.01507 61.940459 
L 337.01507 61.499803 
L 342.464988 61.499803 
L 342.464988 61.059148 
L 342.882105 61.059148 
L 342.882105 60.618492 
L 343.30765 60.618492 
L 343.30765 60.177836 
L 343.726874 60.177836 
L 343.726874 59.73718 
L 344.143992 59.73718 
L 344.143992 59.296525 
L 344.569536 59.296525 
L 344.569536 58.855869 
L 344.990867 58.855869 
L 344.990867 58.415213 
L 345.410092 58.415213 
L 345.410092 57.974557 
L 391.815495 57.974557 
L 391.815495 57.533902 
L 392.557038 57.533902 
L 392.557038 57.093246 
L 393.309114 57.093246 
L 393.309114 56.65259 
L 394.04855 56.65259 
L 394.04855 56.211934 
L 394.781666 56.211934 
L 394.781666 55.771279 
L 395.514782 55.771279 
L 395.514782 55.330623 
L 396.260538 55.330623 
L 396.260538 54.889967 
L 396.991547 54.889967 
L 396.991547 54.449311 
L 397.73309 54.449311 
L 397.73309 54.008656 
L 398.487273 54.008656 
L 398.487273 53.568 
L 398.487273 53.568 
" clip-path="url(#pbea2227c93)" style="fill: none; stroke: #ff7f0e; stroke-width: 1.5; stroke-linecap: square"/>
   </g>
   <g id="patch_3">
    <path d="M 57.6 307.584 
L 57.6 41.472 
" style="fill: none; stroke: #000000; stroke-width: 0.8; stroke-linejoin: miter; stroke-linecap: square"/>
   </g>
   <g id="patch_4">
    <path d="M 414.72 307.584 
L 414.72 41.472 
" style="fill: none; stroke: #000000; stroke-width: 0.8; stroke-linejoin: miter; stroke-linecap: square"/>
   </g>
   <g id="patch_5">
    <path d="M 57.6 307.584 
L 414.72 307.584 
" style="fill: none; stroke: #000000; stroke-width: 0.8; stroke-linejoin: miter; stroke-linecap: square"/>
   </g>
   <g id="patch_6">
    <path d="M 57.6 41.472 
L 414.72 41.472 
" style="fill: none; stroke: #000000; stroke-width: 0.8; stroke-linejoin: miter; stroke-linecap: square"/>
   </g>
   <g id="text_17">
    <!-- S1 S15 -->
    <g transform="translate(215.1825 35.472) scale(0.12 -0.12)">
     <defs>
      <path id="DejaVuSans-53" d="M 3425 4513 
L 3425 3897 
Q 3066 4069 2747 4153 
Q 2428 4238 2131 4238 
Q 1616 4238 1336 4038 
Q 1056 3838 1056 3469 
Q 1056 3159 1242 3001 
Q 1428 2844 1947 2747 
L 2328 2669 
Q 3034 2534 3370 2195 
Q 3706 1856 3706 1288 
Q 3706 609 3251 259 
Q 2797 -91 1919 -91 
Q 1588 -91 1214 -16 
Q 841 59 441 206 
L 441 856 
Q 825 641 1194 531 
Q 1563 422 1919 422 
Q 2459 422 2753 634 
Q 3047 847 3047 1241 
Q 3047 1584 2836 1778 
Q 2625 1972 2144 2069 
L 1759 2144 
Q 1053 2284 737 2584 
Q 422 2884 422 3419 
Q 422 4038 858 4394 
Q 1294 4750 2059 4750 
Q 2388 4750 2728 4690 
Q 3069 4631 3425 4513 
z
" transform="scale(0.015625)"/>
      <path id="DejaVuSans-20" transform="scale(0.015625)"/>
      <path id="DejaVuSans-35" d="M 691 4666 
L 3169 4666 
L 3169 4134 
L 1269 4134 
L 1269 2991 
Q 1406 3038 1543 3061 
Q 1681 3084 1819 3084 
Q 2600 3084 3056 2656 
Q 3513 2228 3513 1497 
Q 3513 744 3044 326 
Q 2575 -91 1722 -91 
Q 1428 -91 1123 -41 
Q 819 9 494 109 
L 494 744 
Q 775 591 1075 516 
Q 1375 441 1709 441 
Q 2250 441 2565 725 
Q 2881 1009 2881 1497 
Q 2881 1984 2565 2268 
Q 2250 2553 1709 2553 
Q 1456 2553 1204 2497 
Q 953 2441 691 2322 
L 691 4666 
z
" transform="scale(0.015625)"/>
     </defs>
     <use xlink:href="#DejaVuSans-53"/>
     <use xlink:href="#DejaVuSans-31" x="63.476562"/>
     <use xlink:href="#DejaVuSans-20" x="127.099609"/>
     <use xlink:href="#DejaVuSans-53" x="158.886719"/>
     <use xlink:href="#DejaVuSans-31" x="222.363281"/>
     <use xlink:href="#DejaVuSans-35" x="285.986328"/>
    </g>
   </g>
   <g id="legend_1">
    <g id="patch_7">
     <path d="M 84.895313 304.584 
L 410.52 304.584 
Q 411.72 304.584 411.72 303.384 
L 411.72 286.37025 
Q 411.72 285.17025 410.52 285.17025 
L 84.895313 285.17025 
Q 83.695313 285.17025 83.695313 286.37025 
L 83.695313 303.384 
Q 83.695313 304.584 84.895313 304.584 
z
" style="fill: #ffffff; opacity: 0.8; stroke: #cccccc; stroke-linejoin: miter"/>
    </g>
    <g id="line2d_18">
     <path d="M 86.095313 290.029312 
L 92.095313 290.029312 
L 98.095313 290.029312 
" style="fill: none; stroke: #1f77b4; stroke-width: 1.5; stroke-linecap: square"/>
    </g>
    <g id="text_18">
     <!-- Execution time between S1 S15 (xx1xx1xx1xx0yyy66xx0yyy66xx1xx0yyy66xx1xx1) -->
     <g transform="translate(102.895313 292.129312) scale(0.06 -0.06)">
      <defs>
       <path id="DejaVuSans-45" d="M 628 4666 
L 3578 4666 
L 3578 4134 
L 1259 4134 
L 1259 2753 
L 3481 2753 
L 3481 2222 
L 1259 2222 
L 1259 531 
L 3634 531 
L 3634 0 
L 628 0 
L 628 4666 
z
" transform="scale(0.015625)"/>
       <path id="DejaVuSans-78" d="M 3513 3500 
L 2247 1797 
L 3578 0 
L 2900 0 
L 1881 1375 
L 863 0 
L 184 0 
L 1544 1831 
L 300 3500 
L 978 3500 
L 1906 2253 
L 2834 3500 
L 3513 3500 
z
" transform="scale(0.015625)"/>
       <path id="DejaVuSans-63" d="M 3122 3366 
L 3122 2828 
Q 2878 2963 2633 3030 
Q 2388 3097 2138 3097 
Q 1578 3097 1268 2742 
Q 959 2388 959 1747 
Q 959 1106 1268 751 
Q 1578 397 2138 397 
Q 2388 397 2633 464 
Q 2878 531 3122 666 
L 3122 134 
Q 2881 22 2623 -34 
Q 2366 -91 2075 -91 
Q 1284 -91 818 406 
Q 353 903 353 1747 
Q 353 2603 823 3093 
Q 1294 3584 2113 3584 
Q 2378 3584 2631 3529 
Q 2884 3475 3122 3366 
z
" transform="scale(0.015625)"/>
       <path id="DejaVuSans-75" d="M 544 1381 
L 544 3500 
L 1119 3500 
L 1119 1403 
Q 1119 906 1312 657 
Q 1506 409 1894 409 
Q 2359 409 2629 706 
Q 2900 1003 2900 1516 
L 2900 3500 
L 3475 3500 
L 3475 0 
L 2900 0 
L 2900 538 
Q 2691 219 2414 64 
Q 2138 -91 1772 -91 
Q 1169 -91 856 284 
Q 544 659 544 1381 
z
M 1991 3584 
L 1991 3584 
z
" transform="scale(0.015625)"/>
       <path id="DejaVuSans-74" d="M 1172 4494 
L 1172 3500 
L 2356 3500 
L 2356 3053 
L 1172 3053 
L 1172 1153 
Q 1172 725 1289 603 
Q 1406 481 1766 481 
L 2356 481 
L 2356 0 
L 1766 0 
Q 1100 0 847 248 
Q 594 497 594 1153 
L 594 3053 
L 172 3053 
L 172 3500 
L 594 3500 
L 594 4494 
L 1172 4494 
z
" transform="scale(0.015625)"/>
       <path id="DejaVuSans-69" d="M 603 3500 
L 1178 3500 
L 1178 0 
L 603 0 
L 603 3500 
z
M 603 4863 
L 1178 4863 
L 1178 4134 
L 603 4134 
L 603 4863 
z
" transform="scale(0.015625)"/>
       <path id="DejaVuSans-6f" d="M 1959 3097 
Q 1497 3097 1228 2736 
Q 959 2375 959 1747 
Q 959 1119 1226 758 
Q 1494 397 1959 397 
Q 2419 397 2687 759 
Q 2956 1122 2956 1747 
Q 2956 2369 2687 2733 
Q 2419 3097 1959 3097 
z
M 1959 3584 
Q 2709 3584 3137 3096 
Q 3566 2609 3566 1747 
Q 3566 888 3137 398 
Q 2709 -91 1959 -91 
Q 1206 -91 779 398 
Q 353 888 353 1747 
Q 353 2609 779 3096 
Q 1206 3584 1959 3584 
z
" transform="scale(0.015625)"/>
       <path id="DejaVuSans-6e" d="M 3513 2113 
L 3513 0 
L 2938 0 
L 2938 2094 
Q 2938 2591 2744 2837 
Q 2550 3084 2163 3084 
Q 1697 3084 1428 2787 
Q 1159 2491 1159 1978 
L 1159 0 
L 581 0 
L 581 3500 
L 1159 3500 
L 1159 2956 
Q 1366 3272 1645 3428 
Q 1925 3584 2291 3584 
Q 2894 3584 3203 3211 
Q 3513 2838 3513 2113 
z
" transform="scale(0.015625)"/>
       <path id="DejaVuSans-6d" d="M 3328 2828 
Q 3544 3216 3844 3400 
Q 4144 3584 4550 3584 
Q 5097 3584 5394 3201 
Q 5691 2819 5691 2113 
L 5691 0 
L 5113 0 
L 5113 2094 
Q 5113 2597 4934 2840 
Q 4756 3084 4391 3084 
Q 3944 3084 3684 2787 
Q 3425 2491 3425 1978 
L 3425 0 
L 2847 0 
L 2847 2094 
Q 2847 2600 2669 2842 
Q 2491 3084 2119 3084 
Q 1678 3084 1418 2786 
Q 1159 2488 1159 1978 
L 1159 0 
L 581 0 
L 581 3500 
L 1159 3500 
L 1159 2956 
Q 1356 3278 1631 3431 
Q 1906 3584 2284 3584 
Q 2666 3584 2933 3390 
Q 3200 3197 3328 2828 
z
" transform="scale(0.015625)"/>
       <path id="DejaVuSans-62" d="M 3116 1747 
Q 3116 2381 2855 2742 
Q 2594 3103 2138 3103 
Q 1681 3103 1420 2742 
Q 1159 2381 1159 1747 
Q 1159 1113 1420 752 
Q 1681 391 2138 391 
Q 2594 391 2855 752 
Q 3116 1113 3116 1747 
z
M 1159 2969 
Q 1341 3281 1617 3432 
Q 1894 3584 2278 3584 
Q 2916 3584 3314 3078 
Q 3713 2572 3713 1747 
Q 3713 922 3314 415 
Q 2916 -91 2278 -91 
Q 1894 -91 1617 61 
Q 1341 213 1159 525 
L 1159 0 
L 581 0 
L 581 4863 
L 1159 4863 
L 1159 2969 
z
" transform="scale(0.015625)"/>
       <path id="DejaVuSans-77" d="M 269 3500 
L 844 3500 
L 1563 769 
L 2278 3500 
L 2956 3500 
L 3675 769 
L 4391 3500 
L 4966 3500 
L 4050 0 
L 3372 0 
L 2619 2869 
L 1863 0 
L 1184 0 
L 269 3500 
z
" transform="scale(0.015625)"/>
       <path id="DejaVuSans-28" d="M 1984 4856 
Q 1566 4138 1362 3434 
Q 1159 2731 1159 2009 
Q 1159 1288 1364 580 
Q 1569 -128 1984 -844 
L 1484 -844 
Q 1016 -109 783 600 
Q 550 1309 550 2009 
Q 550 2706 781 3412 
Q 1013 4119 1484 4856 
L 1984 4856 
z
" transform="scale(0.015625)"/>
       <path id="DejaVuSans-79" d="M 2059 -325 
Q 1816 -950 1584 -1140 
Q 1353 -1331 966 -1331 
L 506 -1331 
L 506 -850 
L 844 -850 
Q 1081 -850 1212 -737 
Q 1344 -625 1503 -206 
L 1606 56 
L 191 3500 
L 800 3500 
L 1894 763 
L 2988 3500 
L 3597 3500 
L 2059 -325 
z
" transform="scale(0.015625)"/>
       <path id="DejaVuSans-29" d="M 513 4856 
L 1013 4856 
Q 1481 4119 1714 3412 
Q 1947 2706 1947 2009 
Q 1947 1309 1714 600 
Q 1481 -109 1013 -844 
L 513 -844 
Q 928 -128 1133 580 
Q 1338 1288 1338 2009 
Q 1338 2731 1133 3434 
Q 928 4138 513 4856 
z
" transform="scale(0.015625)"/>
      </defs>
      <use xlink:href="#DejaVuSans-45"/>
      <use xlink:href="#DejaVuSans-78" x="63.183594"/>
      <use xlink:href="#DejaVuSans-65" x="119.238281"/>
      <use xlink:href="#DejaVuSans-63" x="180.761719"/>
      <use xlink:href="#DejaVuSans-75" x="235.742188"/>
      <use xlink:href="#DejaVuSans-74" x="299.121094"/>
      <use xlink:href="#DejaVuSans-69" x="338.330078"/>
      <use xlink:href="#DejaVuSans-6f" x="366.113281"/>
      <use xlink:href="#DejaVuSans-6e" x="427.294922"/>
      <use xlink:href="#DejaVuSans-20" x="490.673828"/>
      <use xlink:href="#DejaVuSans-74" x="522.460938"/>
      <use xlink:href="#DejaVuSans-69" x="561.669922"/>
      <use xlink:href="#DejaVuSans-6d" x="589.453125"/>
      <use xlink:href="#DejaVuSans-65" x="686.865234"/>
      <use xlink:href="#DejaVuSans-20" x="748.388672"/>
      <use xlink:href="#DejaVuSans-62" x="780.175781"/>
      <use xlink:href="#DejaVuSans-65" x="843.652344"/>
      <use xlink:href="#DejaVuSans-74" x="905.175781"/>
      <use xlink:href="#DejaVuSans-77" x="944.384766"/>
      <use xlink:href="#DejaVuSans-65" x="1026.171875"/>
      <use xlink:href="#DejaVuSans-65" x="1087.695312"/>
      <use xlink:href="#DejaVuSans-6e" x="1149.21875"/>
      <use xlink:href="#DejaVuSans-20" x="1212.597656"/>
      <use xlink:href="#DejaVuSans-53" x="1244.384766"/>
      <use xlink:href="#DejaVuSans-31" x="1307.861328"/>
      <use xlink:href="#DejaVuSans-20" x="1371.484375"/>
      <use xlink:href="#DejaVuSans-53" x="1403.271484"/>
      <use xlink:href="#DejaVuSans-31" x="1466.748047"/>
      <use xlink:href="#DejaVuSans-35" x="1530.371094"/>
      <use xlink:href="#DejaVuSans-20" x="1593.994141"/>
      <use xlink:href="#DejaVuSans-28" x="1625.78125"/>
      <use xlink:href="#DejaVuSans-78" x="1664.794922"/>
      <use xlink:href="#DejaVuSans-78" x="1723.974609"/>
      <use xlink:href="#DejaVuSans-31" x="1783.154297"/>
      <use xlink:href="#DejaVuSans-78" x="1846.777344"/>
      <use xlink:href="#DejaVuSans-78" x="1905.957031"/>
      <use xlink:href="#DejaVuSans-31" x="1965.136719"/>
      <use xlink:href="#DejaVuSans-78" x="2028.759766"/>
      <use xlink:href="#DejaVuSans-78" x="2087.939453"/>
      <use xlink:href="#DejaVuSans-31" x="2147.119141"/>
      <use xlink:href="#DejaVuSans-78" x="2210.742188"/>
      <use xlink:href="#DejaVuSans-78" x="2269.921875"/>
      <use xlink:href="#DejaVuSans-30" x="2329.101562"/>
      <use xlink:href="#DejaVuSans-79" x="2392.724609"/>
      <use xlink:href="#DejaVuSans-79" x="2451.904297"/>
      <use xlink:href="#DejaVuSans-79" x="2511.083984"/>
      <use xlink:href="#DejaVuSans-36" x="2570.263672"/>
      <use xlink:href="#DejaVuSans-36" x="2633.886719"/>
      <use xlink:href="#DejaVuSans-78" x="2697.509766"/>
      <use xlink:href="#DejaVuSans-78" x="2756.689453"/>
      <use xlink:href="#DejaVuSans-30" x="2815.869141"/>
      <use xlink:href="#DejaVuSans-79" x="2879.492188"/>
      <use xlink:href="#DejaVuSans-79" x="2938.671875"/>
      <use xlink:href="#DejaVuSans-79" x="2997.851562"/>
      <use xlink:href="#DejaVuSans-36" x="3057.03125"/>
      <use xlink:href="#DejaVuSans-36" x="3120.654297"/>
      <use xlink:href="#DejaVuSans-78" x="3184.277344"/>
      <use xlink:href="#DejaVuSans-78" x="3243.457031"/>
      <use xlink:href="#DejaVuSans-31" x="3302.636719"/>
      <use xlink:href="#DejaVuSans-78" x="3366.259766"/>
      <use xlink:href="#DejaVuSans-78" x="3425.439453"/>
      <use xlink:href="#DejaVuSans-30" x="3484.619141"/>
      <use xlink:href="#DejaVuSans-79" x="3548.242188"/>
      <use xlink:href="#DejaVuSans-79" x="3607.421875"/>
      <use xlink:href="#DejaVuSans-79" x="3666.601562"/>
      <use xlink:href="#DejaVuSans-36" x="3725.78125"/>
      <use xlink:href="#DejaVuSans-36" x="3789.404297"/>
      <use xlink:href="#DejaVuSans-78" x="3853.027344"/>
      <use xlink:href="#DejaVuSans-78" x="3912.207031"/>
      <use xlink:href="#DejaVuSans-31" x="3971.386719"/>
      <use xlink:href="#DejaVuSans-78" x="4035.009766"/>
      <use xlink:href="#DejaVuSans-78" x="4094.189453"/>
      <use xlink:href="#DejaVuSans-31" x="4153.369141"/>
      <use xlink:href="#DejaVuSans-29" x="4216.992188"/>
     </g>
    </g>
    <g id="line2d_19">
     <path d="M 86.095313 298.836187 
L 92.095313 298.836187 
L 98.095313 298.836187 
" style="fill: none; stroke: #ff7f0e; stroke-width: 1.5; stroke-linecap: square"/>
    </g>
    <g id="text_19">
     <!-- Execution time between S1 S15 (xx1xx2xx0yyy45xx0yyy45xx0yyy3xx1xx0yyy45xx0yyy45xx0yyy45) -->
     <g transform="translate(102.895313 300.936187) scale(0.06 -0.06)">
      <defs>
       <path id="DejaVuSans-33" d="M 2597 2516 
Q 3050 2419 3304 2112 
Q 3559 1806 3559 1356 
Q 3559 666 3084 287 
Q 2609 -91 1734 -91 
Q 1441 -91 1130 -33 
Q 819 25 488 141 
L 488 750 
Q 750 597 1062 519 
Q 1375 441 1716 441 
Q 2309 441 2620 675 
Q 2931 909 2931 1356 
Q 2931 1769 2642 2001 
Q 2353 2234 1838 2234 
L 1294 2234 
L 1294 2753 
L 1863 2753 
Q 2328 2753 2575 2939 
Q 2822 3125 2822 3475 
Q 2822 3834 2567 4026 
Q 2313 4219 1838 4219 
Q 1578 4219 1281 4162 
Q 984 4106 628 3988 
L 628 4550 
Q 988 4650 1302 4700 
Q 1616 4750 1894 4750 
Q 2613 4750 3031 4423 
Q 3450 4097 3450 3541 
Q 3450 3153 3228 2886 
Q 3006 2619 2597 2516 
z
" transform="scale(0.015625)"/>
      </defs>
      <use xlink:href="#DejaVuSans-45"/>
      <use xlink:href="#DejaVuSans-78" x="63.183594"/>
      <use xlink:href="#DejaVuSans-65" x="119.238281"/>
      <use xlink:href="#DejaVuSans-63" x="180.761719"/>
      <use xlink:href="#DejaVuSans-75" x="235.742188"/>
      <use xlink:href="#DejaVuSans-74" x="299.121094"/>
      <use xlink:href="#DejaVuSans-69" x="338.330078"/>
      <use xlink:href="#DejaVuSans-6f" x="366.113281"/>
      <use xlink:href="#DejaVuSans-6e" x="427.294922"/>
      <use xlink:href="#DejaVuSans-20" x="490.673828"/>
      <use xlink:href="#DejaVuSans-74" x="522.460938"/>
      <use xlink:href="#DejaVuSans-69" x="561.669922"/>
      <use xlink:href="#DejaVuSans-6d" x="589.453125"/>
      <use xlink:href="#DejaVuSans-65" x="686.865234"/>
      <use xlink:href="#DejaVuSans-20" x="748.388672"/>
      <use xlink:href="#DejaVuSans-62" x="780.175781"/>
      <use xlink:href="#DejaVuSans-65" x="843.652344"/>
      <use xlink:href="#DejaVuSans-74" x="905.175781"/>
      <use xlink:href="#DejaVuSans-77" x="944.384766"/>
      <use xlink:href="#DejaVuSans-65" x="1026.171875"/>
      <use xlink:href="#DejaVuSans-65" x="1087.695312"/>
      <use xlink:href="#DejaVuSans-6e" x="1149.21875"/>
      <use xlink:href="#DejaVuSans-20" x="1212.597656"/>
      <use xlink:href="#DejaVuSans-53" x="1244.384766"/>
      <use xlink:href="#DejaVuSans-31" x="1307.861328"/>
      <use xlink:href="#DejaVuSans-20" x="1371.484375"/>
      <use xlink:href="#DejaVuSans-53" x="1403.271484"/>
      <use xlink:href="#DejaVuSans-31" x="1466.748047"/>
      <use xlink:href="#DejaVuSans-35" x="1530.371094"/>
      <use xlink:href="#DejaVuSans-20" x="1593.994141"/>
      <use xlink:href="#DejaVuSans-28" x="1625.78125"/>
      <use xlink:href="#DejaVuSans-78" x="1664.794922"/>
      <use xlink:href="#DejaVuSans-78" x="1723.974609"/>
      <use xlink:href="#DejaVuSans-31" x="1783.154297"/>
      <use xlink:href="#DejaVuSans-78" x="1846.777344"/>
      <use xlink:href="#DejaVuSans-78" x="1905.957031"/>
      <use xlink:href="#DejaVuSans-32" x="1965.136719"/>
      <use xlink:href="#DejaVuSans-78" x="2028.759766"/>
      <use xlink:href="#DejaVuSans-78" x="2087.939453"/>
      <use xlink:href="#DejaVuSans-30" x="2147.119141"/>
      <use xlink:href="#DejaVuSans-79" x="2210.742188"/>
      <use xlink:href="#DejaVuSans-79" x="2269.921875"/>
      <use xlink:href="#DejaVuSans-79" x="2329.101562"/>
      <use xlink:href="#DejaVuSans-34" x="2388.28125"/>
      <use xlink:href="#DejaVuSans-35" x="2451.904297"/>
      <use xlink:href="#DejaVuSans-78" x="2515.527344"/>
      <use xlink:href="#DejaVuSans-78" x="2574.707031"/>
      <use xlink:href="#DejaVuSans-30" x="2633.886719"/>
      <use xlink:href="#DejaVuSans-79" x="2697.509766"/>
      <use xlink:href="#DejaVuSans-79" x="2756.689453"/>
      <use xlink:href="#DejaVuSans-79" x="2815.869141"/>
      <use xlink:href="#DejaVuSans-34" x="2875.048828"/>
      <use xlink:href="#DejaVuSans-35" x="2938.671875"/>
      <use xlink:href="#DejaVuSans-78" x="3002.294922"/>
      <use xlink:href="#DejaVuSans-78" x="3061.474609"/>
      <use xlink:href="#DejaVuSans-30" x="3120.654297"/>
      <use xlink:href="#DejaVuSans-79" x="3184.277344"/>
      <use xlink:href="#DejaVuSans-79" x="3243.457031"/>
      <use xlink:href="#DejaVuSans-79" x="3302.636719"/>
      <use xlink:href="#DejaVuSans-33" x="3361.816406"/>
      <use xlink:href="#DejaVuSans-78" x="3425.439453"/>
      <use xlink:href="#DejaVuSans-78" x="3484.619141"/>
      <use xlink:href="#DejaVuSans-31" x="3543.798828"/>
      <use xlink:href="#DejaVuSans-78" x="3607.421875"/>
      <use xlink:href="#DejaVuSans-78" x="3666.601562"/>
      <use xlink:href="#DejaVuSans-30" x="3725.78125"/>
      <use xlink:href="#DejaVuSans-79" x="3789.404297"/>
      <use xlink:href="#DejaVuSans-79" x="3848.583984"/>
      <use xlink:href="#DejaVuSans-79" x="3907.763672"/>
      <use xlink:href="#DejaVuSans-34" x="3966.943359"/>
      <use xlink:href="#DejaVuSans-35" x="4030.566406"/>
      <use xlink:href="#DejaVuSans-78" x="4094.189453"/>
      <use xlink:href="#DejaVuSans-78" x="4153.369141"/>
      <use xlink:href="#DejaVuSans-30" x="4212.548828"/>
      <use xlink:href="#DejaVuSans-79" x="4276.171875"/>
      <use xlink:href="#DejaVuSans-79" x="4335.351562"/>
      <use xlink:href="#DejaVuSans-79" x="4394.53125"/>
      <use xlink:href="#DejaVuSans-34" x="4453.710938"/>
      <use xlink:href="#DejaVuSans-35" x="4517.333984"/>
      <use xlink:href="#DejaVuSans-78" x="4580.957031"/>
      <use xlink:href="#DejaVuSans-78" x="4640.136719"/>
      <use xlink:href="#DejaVuSans-30" x="4699.316406"/>
      <use xlink:href="#DejaVuSans-79" x="4762.939453"/>
      <use xlink:href="#DejaVuSans-79" x="4822.119141"/>
      <use xlink:href="#DejaVuSans-79" x="4881.298828"/>
      <use xlink:href="#DejaVuSans-34" x="4940.478516"/>
      <use xlink:href="#DejaVuSans-35" x="5004.101562"/>
      <use xlink:href="#DejaVuSans-29" x="5067.724609"/>
     </g>
    </g>
   </g>
  </g>
 </g>
 <defs>
  <clipPath id="pbea2227c93">
   <rect x="57.6" y="41.472" width="357.12" height="266.112"/>
  </clipPath>
 </defs>
</svg>
