<?xml version="1.0" encoding="utf-8" standalone="no"?>
<!DOCTYPE svg PUBLIC "-//W3C//DTD SVG 1.1//EN"
  "http://www.w3.org/Graphics/SVG/1.1/DTD/svg11.dtd">
<svg xmlns:xlink="http://www.w3.org/1999/xlink" width="460.8pt" height="345.6pt" viewBox="0 0 460.8 345.6" xmlns="http://www.w3.org/2000/svg" version="1.1">
 <metadata>
  <rdf:RDF xmlns:dc="http://purl.org/dc/elements/1.1/" xmlns:cc="http://creativecommons.org/ns#" xmlns:rdf="http://www.w3.org/1999/02/22-rdf-syntax-ns#">
   <cc:Work>
    <dc:type rdf:resource="http://purl.org/dc/dcmitype/StillImage"/>
    <dc:date>2024-03-08T13:16:20.157478</dc:date>
    <dc:format>image/svg+xml</dc:format>
    <dc:creator>
     <cc:Agent>
      <dc:title>Matplotlib v3.8.2, https://matplotlib.org/</dc:title>
     </cc:Agent>
    </dc:creator>
   </cc:Work>
  </rdf:RDF>
 </metadata>
 <defs>
  <style type="text/css">*{stroke-linejoin: round; stroke-linecap: butt}</style>
 </defs>
 <g id="figure_1">
  <g id="patch_1">
   <path d="M 0 345.6 
L 460.8 345.6 
L 460.8 0 
L 0 0 
z
" style="fill: #ffffff"/>
  </g>
  <g id="axes_1">
   <g id="patch_2">
    <path d="M 57.6 307.584 
L 414.72 307.584 
L 414.72 41.472 
L 57.6 41.472 
z
" style="fill: #ffffff"/>
   </g>
   <g id="matplotlib.axis_1">
    <g id="xtick_1">
     <g id="line2d_1">
      <defs>
       <path id="mc01cf7c6dd" d="M 0 0 
L 0 3.5 
" style="stroke: #000000; stroke-width: 0.8"/>
      </defs>
      <g>
       <use xlink:href="#mc01cf7c6dd" x="73.832727" y="307.584" style="stroke: #000000; stroke-width: 0.8"/>
      </g>
     </g>
     <g id="text_1">
      <!-- 0 -->
      <g transform="translate(70.651477 322.182437) scale(0.1 -0.1)">
       <defs>
        <path id="DejaVuSans-30" d="M 2034 4250 
Q 1547 4250 1301 3770 
Q 1056 3291 1056 2328 
Q 1056 1369 1301 889 
Q 1547 409 2034 409 
Q 2525 409 2770 889 
Q 3016 1369 3016 2328 
Q 3016 3291 2770 3770 
Q 2525 4250 2034 4250 
z
M 2034 4750 
Q 2819 4750 3233 4129 
Q 3647 3509 3647 2328 
Q 3647 1150 3233 529 
Q 2819 -91 2034 -91 
Q 1250 -91 836 529 
Q 422 1150 422 2328 
Q 422 3509 836 4129 
Q 1250 4750 2034 4750 
z
" transform="scale(0.015625)"/>
       </defs>
       <use xlink:href="#DejaVuSans-30"/>
      </g>
     </g>
    </g>
    <g id="xtick_2">
     <g id="line2d_2">
      <g>
       <use xlink:href="#mc01cf7c6dd" x="130.339593" y="307.584" style="stroke: #000000; stroke-width: 0.8"/>
      </g>
     </g>
     <g id="text_2">
      <!-- 50000 -->
      <g transform="translate(114.433343 322.182437) scale(0.1 -0.1)">
       <defs>
        <path id="DejaVuSans-35" d="M 691 4666 
L 3169 4666 
L 3169 4134 
L 1269 4134 
L 1269 2991 
Q 1406 3038 1543 3061 
Q 1681 3084 1819 3084 
Q 2600 3084 3056 2656 
Q 3513 2228 3513 1497 
Q 3513 744 3044 326 
Q 2575 -91 1722 -91 
Q 1428 -91 1123 -41 
Q 819 9 494 109 
L 494 744 
Q 775 591 1075 516 
Q 1375 441 1709 441 
Q 2250 441 2565 725 
Q 2881 1009 2881 1497 
Q 2881 1984 2565 2268 
Q 2250 2553 1709 2553 
Q 1456 2553 1204 2497 
Q 953 2441 691 2322 
L 691 4666 
z
" transform="scale(0.015625)"/>
       </defs>
       <use xlink:href="#DejaVuSans-35"/>
       <use xlink:href="#DejaVuSans-30" x="63.623047"/>
       <use xlink:href="#DejaVuSans-30" x="127.246094"/>
       <use xlink:href="#DejaVuSans-30" x="190.869141"/>
       <use xlink:href="#DejaVuSans-30" x="254.492188"/>
      </g>
     </g>
    </g>
    <g id="xtick_3">
     <g id="line2d_3">
      <g>
       <use xlink:href="#mc01cf7c6dd" x="186.846458" y="307.584" style="stroke: #000000; stroke-width: 0.8"/>
      </g>
     </g>
     <g id="text_3">
      <!-- 100000 -->
      <g transform="translate(167.758958 322.182437) scale(0.1 -0.1)">
       <defs>
        <path id="DejaVuSans-31" d="M 794 531 
L 1825 531 
L 1825 4091 
L 703 3866 
L 703 4441 
L 1819 4666 
L 2450 4666 
L 2450 531 
L 3481 531 
L 3481 0 
L 794 0 
L 794 531 
z
" transform="scale(0.015625)"/>
       </defs>
       <use xlink:href="#DejaVuSans-31"/>
       <use xlink:href="#DejaVuSans-30" x="63.623047"/>
       <use xlink:href="#DejaVuSans-30" x="127.246094"/>
       <use xlink:href="#DejaVuSans-30" x="190.869141"/>
       <use xlink:href="#DejaVuSans-30" x="254.492188"/>
       <use xlink:href="#DejaVuSans-30" x="318.115234"/>
      </g>
     </g>
    </g>
    <g id="xtick_4">
     <g id="line2d_4">
      <g>
       <use xlink:href="#mc01cf7c6dd" x="243.353324" y="307.584" style="stroke: #000000; stroke-width: 0.8"/>
      </g>
     </g>
     <g id="text_4">
      <!-- 150000 -->
      <g transform="translate(224.265824 322.182437) scale(0.1 -0.1)">
       <use xlink:href="#DejaVuSans-31"/>
       <use xlink:href="#DejaVuSans-35" x="63.623047"/>
       <use xlink:href="#DejaVuSans-30" x="127.246094"/>
       <use xlink:href="#DejaVuSans-30" x="190.869141"/>
       <use xlink:href="#DejaVuSans-30" x="254.492188"/>
       <use xlink:href="#DejaVuSans-30" x="318.115234"/>
      </g>
     </g>
    </g>
    <g id="xtick_5">
     <g id="line2d_5">
      <g>
       <use xlink:href="#mc01cf7c6dd" x="299.86019" y="307.584" style="stroke: #000000; stroke-width: 0.8"/>
      </g>
     </g>
     <g id="text_5">
      <!-- 200000 -->
      <g transform="translate(280.77269 322.182437) scale(0.1 -0.1)">
       <defs>
        <path id="DejaVuSans-32" d="M 1228 531 
L 3431 531 
L 3431 0 
L 469 0 
L 469 531 
Q 828 903 1448 1529 
Q 2069 2156 2228 2338 
Q 2531 2678 2651 2914 
Q 2772 3150 2772 3378 
Q 2772 3750 2511 3984 
Q 2250 4219 1831 4219 
Q 1534 4219 1204 4116 
Q 875 4013 500 3803 
L 500 4441 
Q 881 4594 1212 4672 
Q 1544 4750 1819 4750 
Q 2544 4750 2975 4387 
Q 3406 4025 3406 3419 
Q 3406 3131 3298 2873 
Q 3191 2616 2906 2266 
Q 2828 2175 2409 1742 
Q 1991 1309 1228 531 
z
" transform="scale(0.015625)"/>
       </defs>
       <use xlink:href="#DejaVuSans-32"/>
       <use xlink:href="#DejaVuSans-30" x="63.623047"/>
       <use xlink:href="#DejaVuSans-30" x="127.246094"/>
       <use xlink:href="#DejaVuSans-30" x="190.869141"/>
       <use xlink:href="#DejaVuSans-30" x="254.492188"/>
       <use xlink:href="#DejaVuSans-30" x="318.115234"/>
      </g>
     </g>
    </g>
    <g id="xtick_6">
     <g id="line2d_6">
      <g>
       <use xlink:href="#mc01cf7c6dd" x="356.367055" y="307.584" style="stroke: #000000; stroke-width: 0.8"/>
      </g>
     </g>
     <g id="text_6">
      <!-- 250000 -->
      <g transform="translate(337.279555 322.182437) scale(0.1 -0.1)">
       <use xlink:href="#DejaVuSans-32"/>
       <use xlink:href="#DejaVuSans-35" x="63.623047"/>
       <use xlink:href="#DejaVuSans-30" x="127.246094"/>
       <use xlink:href="#DejaVuSans-30" x="190.869141"/>
       <use xlink:href="#DejaVuSans-30" x="254.492188"/>
       <use xlink:href="#DejaVuSans-30" x="318.115234"/>
      </g>
     </g>
    </g>
    <g id="xtick_7">
     <g id="line2d_7">
      <g>
       <use xlink:href="#mc01cf7c6dd" x="412.873921" y="307.584" style="stroke: #000000; stroke-width: 0.8"/>
      </g>
     </g>
     <g id="text_7">
      <!-- 300000 -->
      <g transform="translate(393.786421 322.182437) scale(0.1 -0.1)">
       <defs>
        <path id="DejaVuSans-33" d="M 2597 2516 
Q 3050 2419 3304 2112 
Q 3559 1806 3559 1356 
Q 3559 666 3084 287 
Q 2609 -91 1734 -91 
Q 1441 -91 1130 -33 
Q 819 25 488 141 
L 488 750 
Q 750 597 1062 519 
Q 1375 441 1716 441 
Q 2309 441 2620 675 
Q 2931 909 2931 1356 
Q 2931 1769 2642 2001 
Q 2353 2234 1838 2234 
L 1294 2234 
L 1294 2753 
L 1863 2753 
Q 2328 2753 2575 2939 
Q 2822 3125 2822 3475 
Q 2822 3834 2567 4026 
Q 2313 4219 1838 4219 
Q 1578 4219 1281 4162 
Q 984 4106 628 3988 
L 628 4550 
Q 988 4650 1302 4700 
Q 1616 4750 1894 4750 
Q 2613 4750 3031 4423 
Q 3450 4097 3450 3541 
Q 3450 3153 3228 2886 
Q 3006 2619 2597 2516 
z
" transform="scale(0.015625)"/>
       </defs>
       <use xlink:href="#DejaVuSans-33"/>
       <use xlink:href="#DejaVuSans-30" x="63.623047"/>
       <use xlink:href="#DejaVuSans-30" x="127.246094"/>
       <use xlink:href="#DejaVuSans-30" x="190.869141"/>
       <use xlink:href="#DejaVuSans-30" x="254.492188"/>
       <use xlink:href="#DejaVuSans-30" x="318.115234"/>
      </g>
     </g>
    </g>
   </g>
   <g id="matplotlib.axis_2">
    <g id="ytick_1">
     <g id="line2d_8">
      <defs>
       <path id="m58453f7c52" d="M 0 0 
L -3.5 0 
" style="stroke: #000000; stroke-width: 0.8"/>
      </defs>
      <g>
       <use xlink:href="#m58453f7c52" x="57.6" y="295.488" style="stroke: #000000; stroke-width: 0.8"/>
      </g>
     </g>
     <g id="text_8">
      <!-- 0.0 -->
      <g transform="translate(34.696875 299.287219) scale(0.1 -0.1)">
       <defs>
        <path id="DejaVuSans-2e" d="M 684 794 
L 1344 794 
L 1344 0 
L 684 0 
L 684 794 
z
" transform="scale(0.015625)"/>
       </defs>
       <use xlink:href="#DejaVuSans-30"/>
       <use xlink:href="#DejaVuSans-2e" x="63.623047"/>
       <use xlink:href="#DejaVuSans-30" x="95.410156"/>
      </g>
     </g>
    </g>
    <g id="ytick_2">
     <g id="line2d_9">
      <g>
       <use xlink:href="#m58453f7c52" x="57.6" y="247.104" style="stroke: #000000; stroke-width: 0.8"/>
      </g>
     </g>
     <g id="text_9">
      <!-- 0.2 -->
      <g transform="translate(34.696875 250.903219) scale(0.1 -0.1)">
       <use xlink:href="#DejaVuSans-30"/>
       <use xlink:href="#DejaVuSans-2e" x="63.623047"/>
       <use xlink:href="#DejaVuSans-32" x="95.410156"/>
      </g>
     </g>
    </g>
    <g id="ytick_3">
     <g id="line2d_10">
      <g>
       <use xlink:href="#m58453f7c52" x="57.6" y="198.72" style="stroke: #000000; stroke-width: 0.8"/>
      </g>
     </g>
     <g id="text_10">
      <!-- 0.4 -->
      <g transform="translate(34.696875 202.519219) scale(0.1 -0.1)">
       <defs>
        <path id="DejaVuSans-34" d="M 2419 4116 
L 825 1625 
L 2419 1625 
L 2419 4116 
z
M 2253 4666 
L 3047 4666 
L 3047 1625 
L 3713 1625 
L 3713 1100 
L 3047 1100 
L 3047 0 
L 2419 0 
L 2419 1100 
L 313 1100 
L 313 1709 
L 2253 4666 
z
" transform="scale(0.015625)"/>
       </defs>
       <use xlink:href="#DejaVuSans-30"/>
       <use xlink:href="#DejaVuSans-2e" x="63.623047"/>
       <use xlink:href="#DejaVuSans-34" x="95.410156"/>
      </g>
     </g>
    </g>
    <g id="ytick_4">
     <g id="line2d_11">
      <g>
       <use xlink:href="#m58453f7c52" x="57.6" y="150.336" style="stroke: #000000; stroke-width: 0.8"/>
      </g>
     </g>
     <g id="text_11">
      <!-- 0.6 -->
      <g transform="translate(34.696875 154.135219) scale(0.1 -0.1)">
       <defs>
        <path id="DejaVuSans-36" d="M 2113 2584 
Q 1688 2584 1439 2293 
Q 1191 2003 1191 1497 
Q 1191 994 1439 701 
Q 1688 409 2113 409 
Q 2538 409 2786 701 
Q 3034 994 3034 1497 
Q 3034 2003 2786 2293 
Q 2538 2584 2113 2584 
z
M 3366 4563 
L 3366 3988 
Q 3128 4100 2886 4159 
Q 2644 4219 2406 4219 
Q 1781 4219 1451 3797 
Q 1122 3375 1075 2522 
Q 1259 2794 1537 2939 
Q 1816 3084 2150 3084 
Q 2853 3084 3261 2657 
Q 3669 2231 3669 1497 
Q 3669 778 3244 343 
Q 2819 -91 2113 -91 
Q 1303 -91 875 529 
Q 447 1150 447 2328 
Q 447 3434 972 4092 
Q 1497 4750 2381 4750 
Q 2619 4750 2861 4703 
Q 3103 4656 3366 4563 
z
" transform="scale(0.015625)"/>
       </defs>
       <use xlink:href="#DejaVuSans-30"/>
       <use xlink:href="#DejaVuSans-2e" x="63.623047"/>
       <use xlink:href="#DejaVuSans-36" x="95.410156"/>
      </g>
     </g>
    </g>
    <g id="ytick_5">
     <g id="line2d_12">
      <g>
       <use xlink:href="#m58453f7c52" x="57.6" y="101.952" style="stroke: #000000; stroke-width: 0.8"/>
      </g>
     </g>
     <g id="text_12">
      <!-- 0.8 -->
      <g transform="translate(34.696875 105.751219) scale(0.1 -0.1)">
       <defs>
        <path id="DejaVuSans-38" d="M 2034 2216 
Q 1584 2216 1326 1975 
Q 1069 1734 1069 1313 
Q 1069 891 1326 650 
Q 1584 409 2034 409 
Q 2484 409 2743 651 
Q 3003 894 3003 1313 
Q 3003 1734 2745 1975 
Q 2488 2216 2034 2216 
z
M 1403 2484 
Q 997 2584 770 2862 
Q 544 3141 544 3541 
Q 544 4100 942 4425 
Q 1341 4750 2034 4750 
Q 2731 4750 3128 4425 
Q 3525 4100 3525 3541 
Q 3525 3141 3298 2862 
Q 3072 2584 2669 2484 
Q 3125 2378 3379 2068 
Q 3634 1759 3634 1313 
Q 3634 634 3220 271 
Q 2806 -91 2034 -91 
Q 1263 -91 848 271 
Q 434 634 434 1313 
Q 434 1759 690 2068 
Q 947 2378 1403 2484 
z
M 1172 3481 
Q 1172 3119 1398 2916 
Q 1625 2713 2034 2713 
Q 2441 2713 2670 2916 
Q 2900 3119 2900 3481 
Q 2900 3844 2670 4047 
Q 2441 4250 2034 4250 
Q 1625 4250 1398 4047 
Q 1172 3844 1172 3481 
z
" transform="scale(0.015625)"/>
       </defs>
       <use xlink:href="#DejaVuSans-30"/>
       <use xlink:href="#DejaVuSans-2e" x="63.623047"/>
       <use xlink:href="#DejaVuSans-38" x="95.410156"/>
      </g>
     </g>
    </g>
    <g id="ytick_6">
     <g id="line2d_13">
      <g>
       <use xlink:href="#m58453f7c52" x="57.6" y="53.568" style="stroke: #000000; stroke-width: 0.8"/>
      </g>
     </g>
     <g id="text_13">
      <!-- 1.0 -->
      <g transform="translate(34.696875 57.367219) scale(0.1 -0.1)">
       <use xlink:href="#DejaVuSans-31"/>
       <use xlink:href="#DejaVuSans-2e" x="63.623047"/>
       <use xlink:href="#DejaVuSans-30" x="95.410156"/>
      </g>
     </g>
    </g>
   </g>
   <g id="line2d_14">
    <path d="M 73.832727 295.488 
L 92.197459 295.488 
L 92.28787 163.881708 
L 92.355678 163.881708 
L 92.355678 163.655191 
L 92.559103 163.655191 
L 92.570404 162.749124 
L 93.101568 162.749124 
L 93.203281 160.936989 
L 93.293692 160.936989 
L 93.350199 160.030921 
L 94.118692 160.030921 
L 94.118692 159.804404 
L 94.231706 159.804404 
L 94.231706 159.577888 
L 94.356021 159.577888 
L 94.457733 158.445303 
L 94.559446 158.445303 
L 94.559446 158.218787 
L 94.830679 158.218787 
L 94.92109 157.765753 
L 95.486158 157.765753 
L 95.542665 157.312719 
L 95.757391 157.312719 
L 95.859103 156.633169 
L 95.881706 156.633169 
L 95.983419 156.180135 
L 96.424172 156.180135 
L 96.435474 155.047551 
L 96.435474 155.047551 
L 96.57109 155.047551 
L 96.57109 154.821034 
L 96.842323 154.821034 
L 96.842323 154.594517 
L 97.06835 154.594517 
L 97.06835 154.368 
L 97.271775 154.368 
L 97.271775 154.141483 
L 97.418693 154.141483 
L 97.486501 153.008899 
L 97.531707 153.008899 
L 97.599515 152.555865 
L 98.232392 152.555865 
L 98.322803 152.102831 
L 98.401912 152.102831 
L 98.401912 151.876315 
L 98.560132 151.876315 
L 98.560132 151.649798 
L 98.79746 151.649798 
L 98.853967 150.517213 
L 98.853967 150.517213 
L 99.170406 150.517213 
L 99.170406 150.290697 
L 99.565954 150.290697 
L 99.667666 149.837663 
L 99.882392 149.837663 
L 99.882392 149.611146 
L 100.074516 149.611146 
L 100.074516 149.384629 
L 100.707393 149.384629 
L 100.718694 148.252045 
L 100.888215 148.252045 
L 100.910817 147.799011 
L 101.01253 147.799011 
L 101.01253 147.345978 
L 101.01253 147.345978 
L 101.136845 147.345978 
L 101.136845 147.119461 
L 101.249858 147.119461 
L 101.272461 146.666427 
L 101.43068 146.666427 
L 101.464585 145.533843 
L 101.645407 145.533843 
L 101.645407 145.307326 
L 101.848831 145.307326 
L 101.848831 145.080809 
L 102.538215 145.080809 
L 102.617325 143.721708 
L 102.74164 143.721708 
L 102.74164 143.495191 
L 103.058078 143.495191 
L 103.058078 143.268674 
L 103.250201 143.268674 
L 103.250201 143.042157 
L 103.374517 143.042157 
L 103.374517 142.81564 
L 103.544037 142.81564 
L 103.544037 142.362607 
L 103.544037 142.362607 
L 103.736161 142.362607 
L 103.736161 142.13609 
L 103.962188 142.13609 
L 103.962188 141.909573 
L 104.075202 141.909573 
L 104.131709 140.776989 
L 104.515955 140.776989 
L 104.583764 140.323955 
L 104.696777 140.323955 
L 104.696777 140.097438 
L 105.194038 140.097438 
L 105.29575 138.058787 
L 105.29575 138.058787 
L 105.363558 138.058787 
L 105.386161 137.605753 
L 105.87212 137.605753 
L 105.973832 137.152719 
L 106.075545 137.152719 
L 106.165956 136.699685 
L 106.584107 136.699685 
L 106.629312 136.246652 
L 106.77623 136.246652 
L 106.787531 135.793618 
L 107.171778 135.793618 
L 107.171778 135.567101 
L 107.341299 135.567101 
L 107.341299 135.340584 
L 107.522121 135.340584 
L 107.522121 135.114067 
L 107.838559 135.114067 
L 107.940271 134.208 
L 107.985477 134.208 
L 107.996778 133.301933 
L 108.098491 133.301933 
L 108.166299 132.169348 
L 108.166299 132.169348 
L 108.403628 132.169348 
L 108.403628 131.942831 
L 108.731367 131.942831 
L 108.821778 131.263281 
L 108.900888 131.263281 
L 108.900888 131.036764 
L 109.059107 131.036764 
L 109.138217 130.130697 
L 109.251231 130.130697 
L 109.307737 129.451146 
L 109.477258 129.451146 
L 109.488559 128.998112 
L 109.850203 128.998112 
L 109.850203 128.771596 
L 110.019724 128.771596 
L 110.019724 128.545079 
L 110.245751 128.545079 
L 110.245751 128.318562 
L 110.460478 128.318562 
L 110.56219 127.412494 
L 110.709108 127.412494 
L 110.709108 127.185978 
L 111.014245 127.185978 
L 111.115957 125.60036 
L 111.183765 125.60036 
L 111.183765 125.147326 
L 111.183765 125.147326 
L 111.375889 125.147326 
L 111.375889 124.920809 
L 111.850546 124.920809 
L 111.850546 124.694292 
L 112.099177 124.694292 
L 112.178286 124.241258 
L 112.268697 124.241258 
L 112.359108 123.788225 
L 112.562533 123.788225 
L 112.562533 123.561708 
L 112.845067 123.561708 
L 112.845067 123.335191 
L 113.1163 123.335191 
L 113.218013 122.65564 
L 113.545752 122.65564 
L 113.545752 122.429124 
L 113.749177 122.429124 
L 113.749177 122.202607 
L 113.997807 122.202607 
L 113.997807 121.97609 
L 114.201232 121.97609 
L 114.201232 121.749573 
L 114.449862 121.749573 
L 114.472465 121.296539 
L 114.709794 121.296539 
L 114.721095 120.390472 
L 114.721095 120.390472 
L 114.84541 120.390472 
L 114.947123 119.937438 
L 115.071438 119.937438 
L 115.150547 119.257888 
L 115.681712 119.257888 
L 115.681712 119.031371 
L 115.952945 119.031371 
L 115.952945 118.804854 
L 116.088561 118.804854 
L 116.088561 118.578337 
L 116.631027 118.578337 
L 116.631027 118.35182 
L 117.060479 118.35182 
L 117.060479 118.125303 
L 117.286507 118.125303 
L 117.320411 117.67227 
L 118.235822 117.67227 
L 118.235822 117.445753 
L 118.394041 117.445753 
L 118.394041 117.219236 
L 118.529658 117.219236 
L 118.529658 116.992719 
L 118.778288 116.992719 
L 118.778288 116.766202 
L 119.456371 116.766202 
L 119.456371 116.539685 
L 120.371782 116.539685 
L 120.371782 116.313169 
L 120.970755 116.313169 
L 120.970755 116.086652 
L 121.162878 116.086652 
L 121.162878 115.860135 
L 121.660138 115.860135 
L 121.660138 115.633618 
L 122.010481 115.633618 
L 122.010481 115.407101 
L 123.931714 115.407101 
L 123.931714 115.180584 
L 124.519386 115.180584 
L 124.587194 114.727551 
L 126.632742 114.727551 
L 126.655345 114.274517 
L 127.005688 114.274517 
L 127.005688 114.048 
L 127.310825 114.048 
L 127.310825 113.821483 
L 127.570756 113.821483 
L 127.570756 113.594966 
L 128.689592 113.594966 
L 128.689592 113.368449 
L 128.870414 113.368449 
L 128.870414 113.141933 
L 130.011853 113.141933 
L 130.011853 112.915416 
L 130.203976 112.915416 
L 130.203976 112.688899 
L 130.362196 112.688899 
L 130.362196 112.462382 
L 131.458429 112.462382 
L 131.458429 112.235865 
L 132.12521 112.235865 
L 132.12521 112.009348 
L 132.45295 112.009348 
L 132.45295 111.782831 
L 132.645073 111.782831 
L 132.645073 111.556315 
L 133.02932 111.556315 
L 133.02932 111.329798 
L 133.741306 111.329798 
L 133.741306 111.103281 
L 134.114251 111.103281 
L 134.114251 110.876764 
L 134.984457 110.876764 
L 134.984457 110.650247 
L 135.673841 110.650247 
L 135.673841 110.42373 
L 136.397129 110.42373 
L 136.397129 110.197213 
L 136.521444 110.197213 
L 136.521444 109.970697 
L 137.674184 109.970697 
L 137.674184 109.74418 
L 138.273157 109.74418 
L 138.273157 109.517663 
L 139.030349 109.517663 
L 139.030349 109.291146 
L 139.199869 109.291146 
L 139.199869 109.064629 
L 139.94576 109.064629 
L 139.94576 108.611596 
L 139.94576 108.611596 
L 140.081376 108.611596 
L 140.081376 108.385079 
L 141.720076 108.385079 
L 141.720076 108.158562 
L 142.08172 108.158562 
L 142.08172 107.932045 
L 142.398158 107.932045 
L 142.398158 107.705528 
L 142.82761 107.705528 
L 142.82761 107.479011 
L 144.421104 107.479011 
L 144.421104 107.252494 
L 144.658433 107.252494 
L 144.658433 107.025978 
L 145.110488 107.025978 
L 145.110488 106.799461 
L 145.686858 106.799461 
L 145.686858 106.572944 
L 146.184118 106.572944 
L 146.184118 106.346427 
L 147.370762 106.346427 
L 147.370762 106.11991 
L 147.800214 106.11991 
L 147.800214 105.893393 
L 148.218365 105.893393 
L 148.218365 105.666876 
L 149.529324 105.666876 
L 149.529324 105.44036 
L 150.953297 105.44036 
L 150.953297 105.213843 
L 152.478983 105.213843 
L 152.478983 104.987326 
L 152.863229 104.987326 
L 152.95364 104.534292 
L 153.179668 104.534292 
L 153.179668 104.307775 
L 155.16871 104.307775 
L 155.16871 104.081258 
L 156.106724 104.081258 
L 156.106724 103.854742 
L 157.575902 103.854742 
L 157.598505 103.175191 
L 158.79645 103.175191 
L 158.79645 102.948674 
L 160.005697 102.948674 
L 160.039601 100.683506 
L 160.039601 100.683506 
L 160.209122 100.683506 
L 160.209122 100.456989 
L 160.559465 100.456989 
L 160.559465 100.230472 
L 160.977615 100.230472 
L 160.977615 100.003955 
L 161.271451 100.003955 
L 161.271451 99.777438 
L 163.384808 99.777438 
L 163.384808 99.550921 
L 164.119397 99.550921 
L 164.119397 99.324404 
L 164.548849 99.324404 
L 164.548849 99.097888 
L 164.831384 99.097888 
L 164.921795 98.644854 
L 165.068712 98.644854 
L 165.068712 98.418337 
L 165.972822 98.418337 
L 165.972822 98.19182 
L 166.357069 98.19182 
L 166.357069 97.965303 
L 166.922138 97.965303 
L 166.922138 97.738787 
L 167.577617 97.738787 
L 167.577617 97.51227 
L 168.120083 97.51227 
L 168.221796 97.059236 
L 168.67385 97.059236 
L 168.67385 96.832719 
L 169.363234 96.832719 
L 169.363234 96.379685 
L 169.363234 96.379685 
L 169.510152 96.379685 
L 169.510152 96.153169 
L 170.572481 96.153169 
L 170.572481 95.926652 
L 170.821111 95.926652 
L 170.821111 95.700135 
L 171.160153 95.700135 
L 171.160153 95.473618 
L 171.736523 95.473618 
L 171.759125 95.020584 
L 173.409126 95.020584 
L 173.409126 94.794067 
L 173.61255 94.794067 
L 173.61255 94.567551 
L 173.94029 94.567551 
L 174.030701 94.114517 
L 174.279332 94.114517 
L 174.279332 93.888 
L 174.460153 93.888 
L 174.460153 93.661483 
L 176.336181 93.661483 
L 176.336181 93.434966 
L 176.449195 93.434966 
L 176.460497 92.528899 
L 177.093373 92.528899 
L 177.093373 92.302382 
L 177.240291 92.302382 
L 177.240291 92.075865 
L 178.946799 92.075865 
L 179.03721 91.622831 
L 179.86221 91.622831 
L 179.86221 91.396315 
L 181.602621 91.396315 
L 181.602621 91.169798 
L 182.518033 91.169798 
L 182.518033 90.943281 
L 183.343033 90.943281 
L 183.354334 90.26373 
L 183.354334 90.26373 
L 184.642691 90.26373 
L 184.642691 90.037213 
L 185.241663 90.037213 
L 185.241663 89.810697 
L 187.162897 89.810697 
L 187.162897 89.58418 
L 188.315637 89.58418 
L 188.315637 89.357663 
L 190.214268 89.357663 
L 190.225569 88.225079 
L 190.225569 88.225079 
L 190.734131 88.225079 
L 190.734131 87.998562 
L 193.152625 87.998562 
L 193.152625 87.772045 
L 193.796803 87.772045 
L 193.796803 87.545528 
L 195.288584 87.545528 
L 195.288584 87.319011 
L 196.181393 87.319011 
L 196.181393 87.092494 
L 196.689954 87.092494 
L 196.746461 86.639461 
L 197.108105 86.639461 
L 197.119407 85.733393 
L 197.119407 85.733393 
L 197.413242 85.733393 
L 197.413242 85.506876 
L 198.532078 85.506876 
L 198.611188 85.053843 
L 198.79201 85.053843 
L 198.79201 84.827326 
L 199.5379 84.827326 
L 199.5379 84.600809 
L 199.752627 84.600809 
L 199.752627 84.374292 
L 200.679339 84.374292 
L 200.781051 83.921258 
L 200.950572 83.921258 
L 200.950572 83.694742 
L 201.221805 83.694742 
L 201.221805 83.468225 
L 201.696463 83.468225 
L 201.696463 83.241708 
L 202.148518 83.241708 
L 202.148518 83.015191 
L 202.770093 83.015191 
L 202.770093 82.788674 
L 202.883107 82.788674 
L 202.883107 82.562157 
L 203.041326 82.562157 
L 203.07523 82.109124 
L 203.48208 82.109124 
L 203.48208 81.882607 
L 204.069751 81.882607 
L 204.069751 80.976539 
L 204.069751 80.976539 
L 204.838244 80.976539 
L 204.939957 80.523506 
L 204.951258 80.523506 
L 205.030368 80.070472 
L 205.188587 80.070472 
L 205.188587 79.843955 
L 206.28482 79.843955 
L 206.28482 79.617438 
L 206.917697 79.617438 
L 206.917697 79.390921 
L 207.030711 79.390921 
L 207.030711 78.937888 
L 207.030711 78.937888 
L 207.166327 78.937888 
L 207.166327 78.711371 
L 207.279341 78.711371 
L 207.279341 78.484854 
L 208.827629 78.484854 
L 208.827629 78.258337 
L 209.076259 78.258337 
L 209.155369 77.578787 
L 209.155369 77.578787 
L 209.392698 77.578787 
L 209.392698 77.35227 
L 209.923862 77.35227 
L 209.923862 77.125753 
L 210.511534 77.125753 
L 210.579342 76.219685 
L 210.940986 76.219685 
L 210.940986 75.993169 
L 211.22352 75.993169 
L 211.257424 75.540135 
L 211.833794 75.540135 
L 211.833794 75.313618 
L 212.749206 75.313618 
L 212.749206 75.087101 
L 213.099548 75.087101 
L 213.099548 74.860584 
L 213.336877 74.860584 
L 213.336877 74.634067 
L 214.68174 74.634067 
L 214.68174 74.407551 
L 215.179001 74.407551 
L 215.179001 74.181034 
L 215.472837 74.181034 
L 215.472837 73.954517 
L 218.309481 73.954517 
L 218.309481 73.728 
L 227.757429 73.728 
L 227.84784 67.612045 
L 227.84784 67.612045 
L 295.644777 67.612045 
L 295.656079 66.026427 
L 295.656079 66.026427 
L 297.238271 66.026427 
L 297.238271 65.79991 
L 299.329025 65.79991 
L 299.329025 65.573393 
L 301.464985 65.573393 
L 301.464985 65.346876 
L 303.634848 65.346876 
L 303.634848 65.12036 
L 333.368761 65.12036 
L 333.368761 64.893843 
L 333.809514 64.893843 
L 333.809514 64.667326 
L 334.544104 64.667326 
L 334.544104 64.440809 
L 335.493419 64.440809 
L 335.493419 64.214292 
L 336.001981 64.214292 
L 336.024584 63.761258 
L 336.646159 63.761258 
L 336.646159 63.534742 
L 337.584173 63.534742 
L 337.674584 63.081708 
L 338.13794 63.081708 
L 338.13794 62.628674 
L 338.13794 62.628674 
L 338.770817 62.628674 
L 338.770817 62.402157 
L 339.641023 62.402157 
L 339.674927 61.949124 
L 339.810544 61.949124 
L 339.810544 61.722607 
L 340.330407 61.722607 
L 340.330407 61.49609 
L 340.906777 61.49609 
L 340.906777 61.269573 
L 341.121503 61.269573 
L 341.121503 61.043056 
L 341.765681 61.043056 
L 341.765681 60.816539 
L 341.980407 60.816539 
L 341.980407 60.590022 
L 342.421161 60.590022 
L 342.421161 60.363506 
L 343.189654 60.363506 
L 343.189654 60.136989 
L 343.879038 60.136989 
L 343.879038 59.910472 
L 344.116367 59.910472 
L 344.116367 59.683955 
L 345.280408 59.683955 
L 345.280408 59.457438 
L 346.048901 59.457438 
L 346.048901 59.230921 
L 347.337258 59.230921 
L 347.337258 59.004404 
L 349.473218 59.004404 
L 349.473218 58.777888 
L 351.643081 58.777888 
L 351.643081 58.551371 
L 353.722534 58.551371 
L 353.722534 58.324854 
L 355.869795 58.324854 
L 355.869795 58.098337 
L 358.028357 58.098337 
L 358.028357 57.87182 
L 360.175618 57.87182 
L 360.175618 57.645303 
L 362.243769 57.645303 
L 362.243769 57.418787 
L 364.402331 57.418787 
L 364.402331 57.19227 
L 366.560894 57.19227 
L 366.560894 56.965753 
L 368.708155 56.965753 
L 368.708155 56.739236 
L 370.844114 56.739236 
L 370.844114 56.512719 
L 372.968772 56.512719 
L 372.968772 56.286202 
L 375.070828 56.286202 
L 375.070828 56.059685 
L 377.206787 56.059685 
L 377.206787 55.833169 
L 379.365349 55.833169 
L 379.365349 55.606652 
L 381.456103 55.606652 
L 381.456103 55.380135 
L 383.592063 55.380135 
L 383.592063 55.153618 
L 385.70542 55.153618 
L 385.70542 54.927101 
L 387.852681 54.927101 
L 387.852681 54.700584 
L 390.011243 54.700584 
L 390.011243 54.474067 
L 392.158504 54.474067 
L 392.158504 54.247551 
L 394.215354 54.247551 
L 394.215354 54.021034 
L 396.340012 54.021034 
L 396.340012 53.794517 
L 398.487273 53.794517 
L 398.487273 53.568 
L 398.487273 53.568 
" clip-path="url(#p4da74c79ae)" style="fill: none; stroke: #1f77b4; stroke-width: 1.5; stroke-linecap: square"/>
   </g>
   <g id="patch_3">
    <path d="M 57.6 307.584 
L 57.6 41.472 
" style="fill: none; stroke: #000000; stroke-width: 0.8; stroke-linejoin: miter; stroke-linecap: square"/>
   </g>
   <g id="patch_4">
    <path d="M 414.72 307.584 
L 414.72 41.472 
" style="fill: none; stroke: #000000; stroke-width: 0.8; stroke-linejoin: miter; stroke-linecap: square"/>
   </g>
   <g id="patch_5">
    <path d="M 57.6 307.584 
L 414.72 307.584 
" style="fill: none; stroke: #000000; stroke-width: 0.8; stroke-linejoin: miter; stroke-linecap: square"/>
   </g>
   <g id="patch_6">
    <path d="M 57.6 41.472 
L 414.72 41.472 
" style="fill: none; stroke: #000000; stroke-width: 0.8; stroke-linejoin: miter; stroke-linecap: square"/>
   </g>
   <g id="text_14">
    <!-- Execution time between S4 S5 -->
    <g transform="translate(144.336563 35.472) scale(0.12 -0.12)">
     <defs>
      <path id="DejaVuSans-45" d="M 628 4666 
L 3578 4666 
L 3578 4134 
L 1259 4134 
L 1259 2753 
L 3481 2753 
L 3481 2222 
L 1259 2222 
L 1259 531 
L 3634 531 
L 3634 0 
L 628 0 
L 628 4666 
z
" transform="scale(0.015625)"/>
      <path id="DejaVuSans-78" d="M 3513 3500 
L 2247 1797 
L 3578 0 
L 2900 0 
L 1881 1375 
L 863 0 
L 184 0 
L 1544 1831 
L 300 3500 
L 978 3500 
L 1906 2253 
L 2834 3500 
L 3513 3500 
z
" transform="scale(0.015625)"/>
      <path id="DejaVuSans-65" d="M 3597 1894 
L 3597 1613 
L 953 1613 
Q 991 1019 1311 708 
Q 1631 397 2203 397 
Q 2534 397 2845 478 
Q 3156 559 3463 722 
L 3463 178 
Q 3153 47 2828 -22 
Q 2503 -91 2169 -91 
Q 1331 -91 842 396 
Q 353 884 353 1716 
Q 353 2575 817 3079 
Q 1281 3584 2069 3584 
Q 2775 3584 3186 3129 
Q 3597 2675 3597 1894 
z
M 3022 2063 
Q 3016 2534 2758 2815 
Q 2500 3097 2075 3097 
Q 1594 3097 1305 2825 
Q 1016 2553 972 2059 
L 3022 2063 
z
" transform="scale(0.015625)"/>
      <path id="DejaVuSans-63" d="M 3122 3366 
L 3122 2828 
Q 2878 2963 2633 3030 
Q 2388 3097 2138 3097 
Q 1578 3097 1268 2742 
Q 959 2388 959 1747 
Q 959 1106 1268 751 
Q 1578 397 2138 397 
Q 2388 397 2633 464 
Q 2878 531 3122 666 
L 3122 134 
Q 2881 22 2623 -34 
Q 2366 -91 2075 -91 
Q 1284 -91 818 406 
Q 353 903 353 1747 
Q 353 2603 823 3093 
Q 1294 3584 2113 3584 
Q 2378 3584 2631 3529 
Q 2884 3475 3122 3366 
z
" transform="scale(0.015625)"/>
      <path id="DejaVuSans-75" d="M 544 1381 
L 544 3500 
L 1119 3500 
L 1119 1403 
Q 1119 906 1312 657 
Q 1506 409 1894 409 
Q 2359 409 2629 706 
Q 2900 1003 2900 1516 
L 2900 3500 
L 3475 3500 
L 3475 0 
L 2900 0 
L 2900 538 
Q 2691 219 2414 64 
Q 2138 -91 1772 -91 
Q 1169 -91 856 284 
Q 544 659 544 1381 
z
M 1991 3584 
L 1991 3584 
z
" transform="scale(0.015625)"/>
      <path id="DejaVuSans-74" d="M 1172 4494 
L 1172 3500 
L 2356 3500 
L 2356 3053 
L 1172 3053 
L 1172 1153 
Q 1172 725 1289 603 
Q 1406 481 1766 481 
L 2356 481 
L 2356 0 
L 1766 0 
Q 1100 0 847 248 
Q 594 497 594 1153 
L 594 3053 
L 172 3053 
L 172 3500 
L 594 3500 
L 594 4494 
L 1172 4494 
z
" transform="scale(0.015625)"/>
      <path id="DejaVuSans-69" d="M 603 3500 
L 1178 3500 
L 1178 0 
L 603 0 
L 603 3500 
z
M 603 4863 
L 1178 4863 
L 1178 4134 
L 603 4134 
L 603 4863 
z
" transform="scale(0.015625)"/>
      <path id="DejaVuSans-6f" d="M 1959 3097 
Q 1497 3097 1228 2736 
Q 959 2375 959 1747 
Q 959 1119 1226 758 
Q 1494 397 1959 397 
Q 2419 397 2687 759 
Q 2956 1122 2956 1747 
Q 2956 2369 2687 2733 
Q 2419 3097 1959 3097 
z
M 1959 3584 
Q 2709 3584 3137 3096 
Q 3566 2609 3566 1747 
Q 3566 888 3137 398 
Q 2709 -91 1959 -91 
Q 1206 -91 779 398 
Q 353 888 353 1747 
Q 353 2609 779 3096 
Q 1206 3584 1959 3584 
z
" transform="scale(0.015625)"/>
      <path id="DejaVuSans-6e" d="M 3513 2113 
L 3513 0 
L 2938 0 
L 2938 2094 
Q 2938 2591 2744 2837 
Q 2550 3084 2163 3084 
Q 1697 3084 1428 2787 
Q 1159 2491 1159 1978 
L 1159 0 
L 581 0 
L 581 3500 
L 1159 3500 
L 1159 2956 
Q 1366 3272 1645 3428 
Q 1925 3584 2291 3584 
Q 2894 3584 3203 3211 
Q 3513 2838 3513 2113 
z
" transform="scale(0.015625)"/>
      <path id="DejaVuSans-20" transform="scale(0.015625)"/>
      <path id="DejaVuSans-6d" d="M 3328 2828 
Q 3544 3216 3844 3400 
Q 4144 3584 4550 3584 
Q 5097 3584 5394 3201 
Q 5691 2819 5691 2113 
L 5691 0 
L 5113 0 
L 5113 2094 
Q 5113 2597 4934 2840 
Q 4756 3084 4391 3084 
Q 3944 3084 3684 2787 
Q 3425 2491 3425 1978 
L 3425 0 
L 2847 0 
L 2847 2094 
Q 2847 2600 2669 2842 
Q 2491 3084 2119 3084 
Q 1678 3084 1418 2786 
Q 1159 2488 1159 1978 
L 1159 0 
L 581 0 
L 581 3500 
L 1159 3500 
L 1159 2956 
Q 1356 3278 1631 3431 
Q 1906 3584 2284 3584 
Q 2666 3584 2933 3390 
Q 3200 3197 3328 2828 
z
" transform="scale(0.015625)"/>
      <path id="DejaVuSans-62" d="M 3116 1747 
Q 3116 2381 2855 2742 
Q 2594 3103 2138 3103 
Q 1681 3103 1420 2742 
Q 1159 2381 1159 1747 
Q 1159 1113 1420 752 
Q 1681 391 2138 391 
Q 2594 391 2855 752 
Q 3116 1113 3116 1747 
z
M 1159 2969 
Q 1341 3281 1617 3432 
Q 1894 3584 2278 3584 
Q 2916 3584 3314 3078 
Q 3713 2572 3713 1747 
Q 3713 922 3314 415 
Q 2916 -91 2278 -91 
Q 1894 -91 1617 61 
Q 1341 213 1159 525 
L 1159 0 
L 581 0 
L 581 4863 
L 1159 4863 
L 1159 2969 
z
" transform="scale(0.015625)"/>
      <path id="DejaVuSans-77" d="M 269 3500 
L 844 3500 
L 1563 769 
L 2278 3500 
L 2956 3500 
L 3675 769 
L 4391 3500 
L 4966 3500 
L 4050 0 
L 3372 0 
L 2619 2869 
L 1863 0 
L 1184 0 
L 269 3500 
z
" transform="scale(0.015625)"/>
      <path id="DejaVuSans-53" d="M 3425 4513 
L 3425 3897 
Q 3066 4069 2747 4153 
Q 2428 4238 2131 4238 
Q 1616 4238 1336 4038 
Q 1056 3838 1056 3469 
Q 1056 3159 1242 3001 
Q 1428 2844 1947 2747 
L 2328 2669 
Q 3034 2534 3370 2195 
Q 3706 1856 3706 1288 
Q 3706 609 3251 259 
Q 2797 -91 1919 -91 
Q 1588 -91 1214 -16 
Q 841 59 441 206 
L 441 856 
Q 825 641 1194 531 
Q 1563 422 1919 422 
Q 2459 422 2753 634 
Q 3047 847 3047 1241 
Q 3047 1584 2836 1778 
Q 2625 1972 2144 2069 
L 1759 2144 
Q 1053 2284 737 2584 
Q 422 2884 422 3419 
Q 422 4038 858 4394 
Q 1294 4750 2059 4750 
Q 2388 4750 2728 4690 
Q 3069 4631 3425 4513 
z
" transform="scale(0.015625)"/>
     </defs>
     <use xlink:href="#DejaVuSans-45"/>
     <use xlink:href="#DejaVuSans-78" x="63.183594"/>
     <use xlink:href="#DejaVuSans-65" x="119.238281"/>
     <use xlink:href="#DejaVuSans-63" x="180.761719"/>
     <use xlink:href="#DejaVuSans-75" x="235.742188"/>
     <use xlink:href="#DejaVuSans-74" x="299.121094"/>
     <use xlink:href="#DejaVuSans-69" x="338.330078"/>
     <use xlink:href="#DejaVuSans-6f" x="366.113281"/>
     <use xlink:href="#DejaVuSans-6e" x="427.294922"/>
     <use xlink:href="#DejaVuSans-20" x="490.673828"/>
     <use xlink:href="#DejaVuSans-74" x="522.460938"/>
     <use xlink:href="#DejaVuSans-69" x="561.669922"/>
     <use xlink:href="#DejaVuSans-6d" x="589.453125"/>
     <use xlink:href="#DejaVuSans-65" x="686.865234"/>
     <use xlink:href="#DejaVuSans-20" x="748.388672"/>
     <use xlink:href="#DejaVuSans-62" x="780.175781"/>
     <use xlink:href="#DejaVuSans-65" x="843.652344"/>
     <use xlink:href="#DejaVuSans-74" x="905.175781"/>
     <use xlink:href="#DejaVuSans-77" x="944.384766"/>
     <use xlink:href="#DejaVuSans-65" x="1026.171875"/>
     <use xlink:href="#DejaVuSans-65" x="1087.695312"/>
     <use xlink:href="#DejaVuSans-6e" x="1149.21875"/>
     <use xlink:href="#DejaVuSans-20" x="1212.597656"/>
     <use xlink:href="#DejaVuSans-53" x="1244.384766"/>
     <use xlink:href="#DejaVuSans-34" x="1307.861328"/>
     <use xlink:href="#DejaVuSans-20" x="1371.484375"/>
     <use xlink:href="#DejaVuSans-53" x="1403.271484"/>
     <use xlink:href="#DejaVuSans-35" x="1466.748047"/>
    </g>
   </g>
   <g id="legend_1">
    <g id="patch_7">
     <path d="M 299.496562 304.584 
L 410.52 304.584 
Q 411.72 304.584 411.72 303.384 
L 411.72 295.177125 
Q 411.72 293.977125 410.52 293.977125 
L 299.496562 293.977125 
Q 298.296562 293.977125 298.296562 295.177125 
L 298.296562 303.384 
Q 298.296562 304.584 299.496562 304.584 
z
" style="fill: #ffffff; opacity: 0.8; stroke: #cccccc; stroke-linejoin: miter"/>
    </g>
    <g id="line2d_15">
     <path d="M 300.696562 298.836187 
L 306.696562 298.836187 
L 312.696562 298.836187 
" style="fill: none; stroke: #1f77b4; stroke-width: 1.5; stroke-linecap: square"/>
    </g>
    <g id="text_15">
     <!-- Execution time between S4 S5 -->
     <g transform="translate(317.496562 300.936187) scale(0.06 -0.06)">
      <use xlink:href="#DejaVuSans-45"/>
      <use xlink:href="#DejaVuSans-78" x="63.183594"/>
      <use xlink:href="#DejaVuSans-65" x="119.238281"/>
      <use xlink:href="#DejaVuSans-63" x="180.761719"/>
      <use xlink:href="#DejaVuSans-75" x="235.742188"/>
      <use xlink:href="#DejaVuSans-74" x="299.121094"/>
      <use xlink:href="#DejaVuSans-69" x="338.330078"/>
      <use xlink:href="#DejaVuSans-6f" x="366.113281"/>
      <use xlink:href="#DejaVuSans-6e" x="427.294922"/>
      <use xlink:href="#DejaVuSans-20" x="490.673828"/>
      <use xlink:href="#DejaVuSans-74" x="522.460938"/>
      <use xlink:href="#DejaVuSans-69" x="561.669922"/>
      <use xlink:href="#DejaVuSans-6d" x="589.453125"/>
      <use xlink:href="#DejaVuSans-65" x="686.865234"/>
      <use xlink:href="#DejaVuSans-20" x="748.388672"/>
      <use xlink:href="#DejaVuSans-62" x="780.175781"/>
      <use xlink:href="#DejaVuSans-65" x="843.652344"/>
      <use xlink:href="#DejaVuSans-74" x="905.175781"/>
      <use xlink:href="#DejaVuSans-77" x="944.384766"/>
      <use xlink:href="#DejaVuSans-65" x="1026.171875"/>
      <use xlink:href="#DejaVuSans-65" x="1087.695312"/>
      <use xlink:href="#DejaVuSans-6e" x="1149.21875"/>
      <use xlink:href="#DejaVuSans-20" x="1212.597656"/>
      <use xlink:href="#DejaVuSans-53" x="1244.384766"/>
      <use xlink:href="#DejaVuSans-34" x="1307.861328"/>
      <use xlink:href="#DejaVuSans-20" x="1371.484375"/>
      <use xlink:href="#DejaVuSans-53" x="1403.271484"/>
      <use xlink:href="#DejaVuSans-35" x="1466.748047"/>
     </g>
    </g>
   </g>
  </g>
 </g>
 <defs>
  <clipPath id="p4da74c79ae">
   <rect x="57.6" y="41.472" width="357.12" height="266.112"/>
  </clipPath>
 </defs>
</svg>
