<?xml version="1.0" encoding="utf-8" standalone="no"?>
<!DOCTYPE svg PUBLIC "-//W3C//DTD SVG 1.1//EN"
  "http://www.w3.org/Graphics/SVG/1.1/DTD/svg11.dtd">
<svg xmlns:xlink="http://www.w3.org/1999/xlink" width="460.8pt" height="345.6pt" viewBox="0 0 460.8 345.6" xmlns="http://www.w3.org/2000/svg" version="1.1">
 <metadata>
  <rdf:RDF xmlns:dc="http://purl.org/dc/elements/1.1/" xmlns:cc="http://creativecommons.org/ns#" xmlns:rdf="http://www.w3.org/1999/02/22-rdf-syntax-ns#">
   <cc:Work>
    <dc:type rdf:resource="http://purl.org/dc/dcmitype/StillImage"/>
    <dc:date>2024-03-08T13:16:27.726091</dc:date>
    <dc:format>image/svg+xml</dc:format>
    <dc:creator>
     <cc:Agent>
      <dc:title>Matplotlib v3.8.2, https://matplotlib.org/</dc:title>
     </cc:Agent>
    </dc:creator>
   </cc:Work>
  </rdf:RDF>
 </metadata>
 <defs>
  <style type="text/css">*{stroke-linejoin: round; stroke-linecap: butt}</style>
 </defs>
 <g id="figure_1">
  <g id="patch_1">
   <path d="M 0 345.6 
L 460.8 345.6 
L 460.8 0 
L 0 0 
z
" style="fill: #ffffff"/>
  </g>
  <g id="axes_1">
   <g id="patch_2">
    <path d="M 57.6 307.584 
L 414.72 307.584 
L 414.72 41.472 
L 57.6 41.472 
z
" style="fill: #ffffff"/>
   </g>
   <g id="matplotlib.axis_1">
    <g id="xtick_1">
     <g id="line2d_1">
      <defs>
       <path id="m03aa704a33" d="M 0 0 
L 0 3.5 
" style="stroke: #000000; stroke-width: 0.8"/>
      </defs>
      <g>
       <use xlink:href="#m03aa704a33" x="73.327661" y="307.584" style="stroke: #000000; stroke-width: 0.8"/>
      </g>
     </g>
     <g id="text_1">
      <!-- 0.0 -->
      <g transform="translate(65.376099 322.182437) scale(0.1 -0.1)">
       <defs>
        <path id="DejaVuSans-30" d="M 2034 4250 
Q 1547 4250 1301 3770 
Q 1056 3291 1056 2328 
Q 1056 1369 1301 889 
Q 1547 409 2034 409 
Q 2525 409 2770 889 
Q 3016 1369 3016 2328 
Q 3016 3291 2770 3770 
Q 2525 4250 2034 4250 
z
M 2034 4750 
Q 2819 4750 3233 4129 
Q 3647 3509 3647 2328 
Q 3647 1150 3233 529 
Q 2819 -91 2034 -91 
Q 1250 -91 836 529 
Q 422 1150 422 2328 
Q 422 3509 836 4129 
Q 1250 4750 2034 4750 
z
" transform="scale(0.015625)"/>
        <path id="DejaVuSans-2e" d="M 684 794 
L 1344 794 
L 1344 0 
L 684 0 
L 684 794 
z
" transform="scale(0.015625)"/>
       </defs>
       <use xlink:href="#DejaVuSans-30"/>
       <use xlink:href="#DejaVuSans-2e" x="63.623047"/>
       <use xlink:href="#DejaVuSans-30" x="95.410156"/>
      </g>
     </g>
    </g>
    <g id="xtick_2">
     <g id="line2d_2">
      <g>
       <use xlink:href="#m03aa704a33" x="118.503526" y="307.584" style="stroke: #000000; stroke-width: 0.8"/>
      </g>
     </g>
     <g id="text_2">
      <!-- 0.5 -->
      <g transform="translate(110.551963 322.182437) scale(0.1 -0.1)">
       <defs>
        <path id="DejaVuSans-35" d="M 691 4666 
L 3169 4666 
L 3169 4134 
L 1269 4134 
L 1269 2991 
Q 1406 3038 1543 3061 
Q 1681 3084 1819 3084 
Q 2600 3084 3056 2656 
Q 3513 2228 3513 1497 
Q 3513 744 3044 326 
Q 2575 -91 1722 -91 
Q 1428 -91 1123 -41 
Q 819 9 494 109 
L 494 744 
Q 775 591 1075 516 
Q 1375 441 1709 441 
Q 2250 441 2565 725 
Q 2881 1009 2881 1497 
Q 2881 1984 2565 2268 
Q 2250 2553 1709 2553 
Q 1456 2553 1204 2497 
Q 953 2441 691 2322 
L 691 4666 
z
" transform="scale(0.015625)"/>
       </defs>
       <use xlink:href="#DejaVuSans-30"/>
       <use xlink:href="#DejaVuSans-2e" x="63.623047"/>
       <use xlink:href="#DejaVuSans-35" x="95.410156"/>
      </g>
     </g>
    </g>
    <g id="xtick_3">
     <g id="line2d_3">
      <g>
       <use xlink:href="#m03aa704a33" x="163.679391" y="307.584" style="stroke: #000000; stroke-width: 0.8"/>
      </g>
     </g>
     <g id="text_3">
      <!-- 1.0 -->
      <g transform="translate(155.727828 322.182437) scale(0.1 -0.1)">
       <defs>
        <path id="DejaVuSans-31" d="M 794 531 
L 1825 531 
L 1825 4091 
L 703 3866 
L 703 4441 
L 1819 4666 
L 2450 4666 
L 2450 531 
L 3481 531 
L 3481 0 
L 794 0 
L 794 531 
z
" transform="scale(0.015625)"/>
       </defs>
       <use xlink:href="#DejaVuSans-31"/>
       <use xlink:href="#DejaVuSans-2e" x="63.623047"/>
       <use xlink:href="#DejaVuSans-30" x="95.410156"/>
      </g>
     </g>
    </g>
    <g id="xtick_4">
     <g id="line2d_4">
      <g>
       <use xlink:href="#m03aa704a33" x="208.855256" y="307.584" style="stroke: #000000; stroke-width: 0.8"/>
      </g>
     </g>
     <g id="text_4">
      <!-- 1.5 -->
      <g transform="translate(200.903693 322.182437) scale(0.1 -0.1)">
       <use xlink:href="#DejaVuSans-31"/>
       <use xlink:href="#DejaVuSans-2e" x="63.623047"/>
       <use xlink:href="#DejaVuSans-35" x="95.410156"/>
      </g>
     </g>
    </g>
    <g id="xtick_5">
     <g id="line2d_5">
      <g>
       <use xlink:href="#m03aa704a33" x="254.03112" y="307.584" style="stroke: #000000; stroke-width: 0.8"/>
      </g>
     </g>
     <g id="text_5">
      <!-- 2.0 -->
      <g transform="translate(246.079558 322.182437) scale(0.1 -0.1)">
       <defs>
        <path id="DejaVuSans-32" d="M 1228 531 
L 3431 531 
L 3431 0 
L 469 0 
L 469 531 
Q 828 903 1448 1529 
Q 2069 2156 2228 2338 
Q 2531 2678 2651 2914 
Q 2772 3150 2772 3378 
Q 2772 3750 2511 3984 
Q 2250 4219 1831 4219 
Q 1534 4219 1204 4116 
Q 875 4013 500 3803 
L 500 4441 
Q 881 4594 1212 4672 
Q 1544 4750 1819 4750 
Q 2544 4750 2975 4387 
Q 3406 4025 3406 3419 
Q 3406 3131 3298 2873 
Q 3191 2616 2906 2266 
Q 2828 2175 2409 1742 
Q 1991 1309 1228 531 
z
" transform="scale(0.015625)"/>
       </defs>
       <use xlink:href="#DejaVuSans-32"/>
       <use xlink:href="#DejaVuSans-2e" x="63.623047"/>
       <use xlink:href="#DejaVuSans-30" x="95.410156"/>
      </g>
     </g>
    </g>
    <g id="xtick_6">
     <g id="line2d_6">
      <g>
       <use xlink:href="#m03aa704a33" x="299.206985" y="307.584" style="stroke: #000000; stroke-width: 0.8"/>
      </g>
     </g>
     <g id="text_6">
      <!-- 2.5 -->
      <g transform="translate(291.255423 322.182437) scale(0.1 -0.1)">
       <use xlink:href="#DejaVuSans-32"/>
       <use xlink:href="#DejaVuSans-2e" x="63.623047"/>
       <use xlink:href="#DejaVuSans-35" x="95.410156"/>
      </g>
     </g>
    </g>
    <g id="xtick_7">
     <g id="line2d_7">
      <g>
       <use xlink:href="#m03aa704a33" x="344.38285" y="307.584" style="stroke: #000000; stroke-width: 0.8"/>
      </g>
     </g>
     <g id="text_7">
      <!-- 3.0 -->
      <g transform="translate(336.431287 322.182437) scale(0.1 -0.1)">
       <defs>
        <path id="DejaVuSans-33" d="M 2597 2516 
Q 3050 2419 3304 2112 
Q 3559 1806 3559 1356 
Q 3559 666 3084 287 
Q 2609 -91 1734 -91 
Q 1441 -91 1130 -33 
Q 819 25 488 141 
L 488 750 
Q 750 597 1062 519 
Q 1375 441 1716 441 
Q 2309 441 2620 675 
Q 2931 909 2931 1356 
Q 2931 1769 2642 2001 
Q 2353 2234 1838 2234 
L 1294 2234 
L 1294 2753 
L 1863 2753 
Q 2328 2753 2575 2939 
Q 2822 3125 2822 3475 
Q 2822 3834 2567 4026 
Q 2313 4219 1838 4219 
Q 1578 4219 1281 4162 
Q 984 4106 628 3988 
L 628 4550 
Q 988 4650 1302 4700 
Q 1616 4750 1894 4750 
Q 2613 4750 3031 4423 
Q 3450 4097 3450 3541 
Q 3450 3153 3228 2886 
Q 3006 2619 2597 2516 
z
" transform="scale(0.015625)"/>
       </defs>
       <use xlink:href="#DejaVuSans-33"/>
       <use xlink:href="#DejaVuSans-2e" x="63.623047"/>
       <use xlink:href="#DejaVuSans-30" x="95.410156"/>
      </g>
     </g>
    </g>
    <g id="xtick_8">
     <g id="line2d_8">
      <g>
       <use xlink:href="#m03aa704a33" x="389.558715" y="307.584" style="stroke: #000000; stroke-width: 0.8"/>
      </g>
     </g>
     <g id="text_8">
      <!-- 3.5 -->
      <g transform="translate(381.607152 322.182437) scale(0.1 -0.1)">
       <use xlink:href="#DejaVuSans-33"/>
       <use xlink:href="#DejaVuSans-2e" x="63.623047"/>
       <use xlink:href="#DejaVuSans-35" x="95.410156"/>
      </g>
     </g>
    </g>
    <g id="text_9">
     <!-- 1e6 -->
     <g transform="translate(395.841875 334.860562) scale(0.1 -0.1)">
      <defs>
       <path id="DejaVuSans-65" d="M 3597 1894 
L 3597 1613 
L 953 1613 
Q 991 1019 1311 708 
Q 1631 397 2203 397 
Q 2534 397 2845 478 
Q 3156 559 3463 722 
L 3463 178 
Q 3153 47 2828 -22 
Q 2503 -91 2169 -91 
Q 1331 -91 842 396 
Q 353 884 353 1716 
Q 353 2575 817 3079 
Q 1281 3584 2069 3584 
Q 2775 3584 3186 3129 
Q 3597 2675 3597 1894 
z
M 3022 2063 
Q 3016 2534 2758 2815 
Q 2500 3097 2075 3097 
Q 1594 3097 1305 2825 
Q 1016 2553 972 2059 
L 3022 2063 
z
" transform="scale(0.015625)"/>
       <path id="DejaVuSans-36" d="M 2113 2584 
Q 1688 2584 1439 2293 
Q 1191 2003 1191 1497 
Q 1191 994 1439 701 
Q 1688 409 2113 409 
Q 2538 409 2786 701 
Q 3034 994 3034 1497 
Q 3034 2003 2786 2293 
Q 2538 2584 2113 2584 
z
M 3366 4563 
L 3366 3988 
Q 3128 4100 2886 4159 
Q 2644 4219 2406 4219 
Q 1781 4219 1451 3797 
Q 1122 3375 1075 2522 
Q 1259 2794 1537 2939 
Q 1816 3084 2150 3084 
Q 2853 3084 3261 2657 
Q 3669 2231 3669 1497 
Q 3669 778 3244 343 
Q 2819 -91 2113 -91 
Q 1303 -91 875 529 
Q 447 1150 447 2328 
Q 447 3434 972 4092 
Q 1497 4750 2381 4750 
Q 2619 4750 2861 4703 
Q 3103 4656 3366 4563 
z
" transform="scale(0.015625)"/>
      </defs>
      <use xlink:href="#DejaVuSans-31"/>
      <use xlink:href="#DejaVuSans-65" x="63.623047"/>
      <use xlink:href="#DejaVuSans-36" x="125.146484"/>
     </g>
    </g>
   </g>
   <g id="matplotlib.axis_2">
    <g id="ytick_1">
     <g id="line2d_9">
      <defs>
       <path id="maa63152d17" d="M 0 0 
L -3.5 0 
" style="stroke: #000000; stroke-width: 0.8"/>
      </defs>
      <g>
       <use xlink:href="#maa63152d17" x="57.6" y="295.488" style="stroke: #000000; stroke-width: 0.8"/>
      </g>
     </g>
     <g id="text_10">
      <!-- 0 -->
      <g transform="translate(44.2375 299.287219) scale(0.1 -0.1)">
       <use xlink:href="#DejaVuSans-30"/>
      </g>
     </g>
    </g>
    <g id="ytick_2">
     <g id="line2d_10">
      <g>
       <use xlink:href="#maa63152d17" x="57.6" y="253.777655" style="stroke: #000000; stroke-width: 0.8"/>
      </g>
     </g>
     <g id="text_11">
      <!-- 5 -->
      <g transform="translate(44.2375 257.576874) scale(0.1 -0.1)">
       <use xlink:href="#DejaVuSans-35"/>
      </g>
     </g>
    </g>
    <g id="ytick_3">
     <g id="line2d_11">
      <g>
       <use xlink:href="#maa63152d17" x="57.6" y="212.06731" style="stroke: #000000; stroke-width: 0.8"/>
      </g>
     </g>
     <g id="text_12">
      <!-- 10 -->
      <g transform="translate(37.875 215.866529) scale(0.1 -0.1)">
       <use xlink:href="#DejaVuSans-31"/>
       <use xlink:href="#DejaVuSans-30" x="63.623047"/>
      </g>
     </g>
    </g>
    <g id="ytick_4">
     <g id="line2d_12">
      <g>
       <use xlink:href="#maa63152d17" x="57.6" y="170.356966" style="stroke: #000000; stroke-width: 0.8"/>
      </g>
     </g>
     <g id="text_13">
      <!-- 15 -->
      <g transform="translate(37.875 174.156184) scale(0.1 -0.1)">
       <use xlink:href="#DejaVuSans-31"/>
       <use xlink:href="#DejaVuSans-35" x="63.623047"/>
      </g>
     </g>
    </g>
    <g id="ytick_5">
     <g id="line2d_13">
      <g>
       <use xlink:href="#maa63152d17" x="57.6" y="128.646621" style="stroke: #000000; stroke-width: 0.8"/>
      </g>
     </g>
     <g id="text_14">
      <!-- 20 -->
      <g transform="translate(37.875 132.445839) scale(0.1 -0.1)">
       <use xlink:href="#DejaVuSans-32"/>
       <use xlink:href="#DejaVuSans-30" x="63.623047"/>
      </g>
     </g>
    </g>
    <g id="ytick_6">
     <g id="line2d_14">
      <g>
       <use xlink:href="#maa63152d17" x="57.6" y="86.936276" style="stroke: #000000; stroke-width: 0.8"/>
      </g>
     </g>
     <g id="text_15">
      <!-- 25 -->
      <g transform="translate(37.875 90.735495) scale(0.1 -0.1)">
       <use xlink:href="#DejaVuSans-32"/>
       <use xlink:href="#DejaVuSans-35" x="63.623047"/>
      </g>
     </g>
    </g>
    <g id="ytick_7">
     <g id="line2d_15">
      <g>
       <use xlink:href="#maa63152d17" x="57.6" y="45.225931" style="stroke: #000000; stroke-width: 0.8"/>
      </g>
     </g>
     <g id="text_16">
      <!-- 30 -->
      <g transform="translate(37.875 49.02515) scale(0.1 -0.1)">
       <use xlink:href="#DejaVuSans-33"/>
       <use xlink:href="#DejaVuSans-30" x="63.623047"/>
      </g>
     </g>
    </g>
   </g>
   <g id="line2d_16">
    <path d="M 73.832727 287.145931 
L 74.022466 295.488 
L 74.148055 287.145931 
L 74.338697 295.488 
L 74.462479 287.145931 
L 74.653121 295.488 
L 74.777806 287.145931 
L 74.968449 295.488 
L 75.099459 287.145931 
L 75.290101 295.488 
L 75.414786 287.145931 
L 75.604525 295.488 
L 75.728307 287.145931 
L 75.918949 295.488 
L 76.042731 287.145931 
L 76.232469 295.488 
L 76.363479 287.145931 
L 76.554121 295.488 
L 76.682421 287.145931 
L 76.872159 295.488 
L 76.998652 287.145931 
L 77.189294 295.488 
L 77.315786 287.145931 
L 77.506429 295.488 
L 77.634728 287.145931 
L 77.82537 295.488 
L 77.954573 287.145931 
L 78.145215 295.488 
L 78.274418 287.145931 
L 78.46506 295.488 
L 78.586132 287.145931 
L 78.776774 295.488 
L 84.330695 287.145931 
L 84.449056 262.119724 
L 84.642408 228.751448 
L 84.83305 295.488 
L 84.918884 287.145931 
L 85.109527 295.488 
L 85.226984 287.145931 
L 85.417626 295.488 
L 85.544118 287.145931 
L 85.733857 295.488 
L 85.855832 287.145931 
L 86.046474 295.488 
L 86.17387 287.145931 
L 86.364512 295.488 
L 86.489198 287.145931 
L 86.67984 295.488 
L 86.805429 287.145931 
L 86.996071 295.488 
L 87.126177 287.145931 
L 87.315916 295.488 
L 87.436987 287.145931 
L 87.627629 295.488 
L 87.753218 287.145931 
L 87.94386 295.488 
L 88.062221 287.145931 
L 88.252863 295.488 
L 88.379356 287.145931 
L 88.569998 295.488 
L 88.691973 287.145931 
L 88.882615 295.488 
L 89.009107 287.145931 
L 89.199749 295.488 
L 89.328049 287.145931 
L 89.518691 295.488 
L 89.642473 287.145931 
L 89.833115 295.488 
L 89.963222 287.145931 
L 90.153864 295.488 
L 90.278549 287.145931 
L 90.468288 295.488 
L 90.59478 287.145931 
L 90.784519 295.488 
L 90.907397 287.145931 
L 91.098039 295.488 
L 91.222725 287.145931 
L 91.413367 295.488 
L 91.536245 287.145931 
L 91.726887 295.488 
L 91.850669 287.145931 
L 92.041311 295.488 
L 92.163286 287.145931 
L 92.353928 295.488 
L 92.474096 287.145931 
L 92.664738 295.488 
L 92.78852 287.145931 
L 92.979162 295.488 
L 93.108365 287.145931 
L 93.298104 295.488 
L 93.419175 287.145931 
L 93.609817 295.488 
L 93.734503 287.145931 
L 93.925145 295.488 
L 94.053444 287.145931 
L 94.244087 295.488 
L 94.372386 287.145931 
L 94.563028 295.488 
L 94.685906 287.145931 
L 94.876549 295.488 
L 95.00033 287.145931 
L 95.190973 295.488 
L 95.315658 287.145931 
L 95.5063 295.488 
L 95.6346 287.145931 
L 95.825242 295.488 
L 95.94812 287.145931 
L 96.138762 295.488 
L 96.267062 287.145931 
L 96.4568 295.488 
L 96.586907 287.145931 
L 96.777549 295.488 
L 96.897717 287.145931 
L 97.088359 295.488 
L 97.214851 287.145931 
L 97.405494 295.488 
L 97.534697 287.145931 
L 97.725339 295.488 
L 97.848217 287.145931 
L 98.160834 278.803862 
L 98.351476 295.488 
L 98.477065 287.145931 
L 98.666804 295.488 
L 98.791489 287.145931 
L 98.982131 295.488 
L 99.101395 287.145931 
L 99.292038 295.488 
L 99.419434 287.145931 
L 99.610076 295.488 
L 99.733858 287.145931 
L 99.9245 295.488 
L 100.052799 287.145931 
L 100.243441 295.488 
L 100.374451 287.145931 
L 100.56419 295.488 
L 100.687068 287.145931 
L 100.877711 295.488 
L 101.007817 287.145931 
L 101.198459 295.488 
L 101.323145 287.145931 
L 101.513787 295.488 
L 101.638472 287.145931 
L 101.829114 295.488 
L 101.951993 287.145931 
L 102.142635 295.488 
L 102.262803 287.145931 
L 102.453445 295.488 
L 102.574516 287.145931 
L 102.765158 295.488 
L 102.889844 287.145931 
L 103.079582 295.488 
L 103.197039 287.145931 
L 103.387682 295.488 
L 103.516885 287.145931 
L 103.707527 295.488 
L 103.840344 287.145931 
L 104.030082 295.488 
L 104.159285 287.145931 
L 104.349927 295.488 
L 104.473709 287.145931 
L 104.664351 295.488 
L 104.785423 287.145931 
L 104.976065 295.488 
L 105.105268 287.145931 
L 105.29591 295.488 
L 105.419692 287.145931 
L 105.610334 295.488 
L 105.728695 287.145931 
L 105.919337 295.488 
L 106.045829 287.145931 
L 106.236472 295.488 
L 106.354832 287.145931 
L 106.545475 295.488 
L 106.673774 287.145931 
L 106.864416 295.488 
L 106.987294 287.145931 
L 107.177033 295.488 
L 107.302622 287.145931 
L 107.493264 295.488 
L 107.614335 287.145931 
L 107.804978 295.488 
L 107.927856 287.145931 
L 108.118498 295.488 
L 108.246798 287.145931 
L 108.43744 295.488 
L 108.560318 287.145931 
L 108.75096 295.488 
L 108.871128 287.145931 
L 109.06177 295.488 
L 109.193684 287.145931 
L 109.384326 295.488 
L 109.510818 287.145931 
L 109.700557 295.488 
L 109.833374 287.145931 
L 110.023113 295.488 
L 110.148701 287.145931 
L 110.339344 295.488 
L 111.815691 287.145931 
L 112.004526 295.488 
L 112.043377 287.145931 
L 112.232212 295.488 
L 112.274678 287.145931 
L 112.463513 295.488 
L 112.500557 287.145931 
L 112.688489 295.488 
L 112.724629 287.145931 
L 112.912561 295.488 
L 112.951412 287.145931 
L 113.140247 295.488 
L 113.177291 287.145931 
L 113.365223 295.488 
L 113.401364 287.145931 
L 113.590199 295.488 
L 113.622725 287.145931 
L 113.811561 295.488 
L 113.847701 287.145931 
L 114.036536 295.488 
L 114.076291 287.145931 
L 114.265126 295.488 
L 114.297653 287.145931 
L 114.486488 295.488 
L 114.52805 287.145931 
L 114.716885 295.488 
L 114.753929 287.145931 
L 114.942764 295.488 
L 114.984326 287.145931 
L 115.172258 295.488 
L 115.212916 287.145931 
L 115.401751 295.488 
L 115.438795 287.145931 
L 115.626727 295.488 
L 115.664675 287.145931 
L 115.85351 295.488 
L 115.890554 287.145931 
L 116.078485 295.488 
L 116.120047 287.145931 
L 116.308882 295.488 
L 116.345927 287.145931 
L 116.533858 295.488 
L 116.578131 287.145931 
L 119.507334 178.699034 
L 127.551348 187.041103 
L 127.689586 178.699034 
L 127.809754 187.041103 
L 127.925404 145.330759 
L 128.073581 103.620414 
L 128.077195 111.962483 
L 128.24796 237.093517 
L 128.334698 287.145931 
L 128.483778 295.488 
L 128.523533 287.145931 
L 128.712368 295.488 
L 128.750316 287.145931 
L 128.938247 295.488 
L 128.975291 287.145931 
L 129.164126 295.488 
L 129.206592 287.145931 
L 129.394523 295.488 
L 129.433375 287.145931 
L 129.62221 295.488 
L 129.659254 287.145931 
L 129.848089 295.488 
L 129.887844 287.145931 
L 130.076679 295.488 
L 130.114627 287.145931 
L 130.302558 295.488 
L 130.343217 287.145931 
L 130.532052 295.488 
L 130.570903 287.145931 
L 130.758835 295.488 
L 130.800396 287.145931 
L 130.988328 295.488 
L 131.025372 287.145931 
L 131.213304 295.488 
L 131.251251 287.145931 
L 131.440087 295.488 
L 131.47171 287.145931 
L 131.660545 295.488 
L 131.703914 287.145931 
L 131.892749 295.488 
L 131.932503 287.145931 
L 132.120435 295.488 
L 132.161997 287.145931 
L 132.349928 295.488 
L 132.385166 287.145931 
L 132.574001 295.488 
L 132.605624 287.145931 
L 132.794459 295.488 
L 132.835117 287.145931 
L 133.023952 295.488 
L 133.0619 287.145931 
L 133.250735 295.488 
L 133.289586 287.145931 
L 133.478422 295.488 
L 133.510045 287.145931 
L 133.69888 295.488 
L 133.736828 287.145931 
L 133.924759 295.488 
L 133.9609 287.145931 
L 134.148831 295.488 
L 134.186779 287.145931 
L 134.375614 295.488 
L 134.415369 287.145931 
L 134.603301 295.488 
L 134.641248 287.145931 
L 134.82918 295.488 
L 134.867128 287.145931 
L 135.055059 295.488 
L 135.096621 287.145931 
L 135.284553 295.488 
L 135.3225 287.145931 
L 135.511336 295.488 
L 135.547476 287.145931 
L 135.736311 295.488 
L 135.77697 287.145931 
L 135.965805 295.488 
L 136.001042 287.145931 
L 136.188973 295.488 
L 136.224211 287.145931 
L 136.413046 295.488 
L 136.45009 287.145931 
L 136.638022 295.488 
L 136.677776 287.145931 
L 136.865708 295.488 
L 136.900945 287.145931 
L 137.08978 295.488 
L 137.127728 287.145931 
L 137.316563 295.488 
L 137.358125 287.145931 
L 137.546056 295.488 
L 137.584908 287.145931 
L 137.772839 295.488 
L 137.814401 287.145931 
L 138.003236 295.488 
L 138.044798 287.145931 
L 138.233633 295.488 
L 138.26616 287.145931 
L 138.454995 295.488 
L 138.489329 287.145931 
L 138.67726 295.488 
L 138.714304 287.145931 
L 138.902236 295.488 
L 138.941087 287.145931 
L 139.129019 295.488 
L 139.171484 287.145931 
L 139.359416 295.488 
L 139.397363 287.145931 
L 139.585295 295.488 
L 139.617822 287.145931 
L 139.806657 295.488 
L 139.841894 287.145931 
L 140.030729 295.488 
L 140.065063 287.145931 
L 140.252994 295.488 
L 140.293653 287.145931 
L 140.481584 295.488 
L 140.517725 287.145931 
L 140.705656 295.488 
L 140.744508 287.145931 
L 140.933343 295.488 
L 140.96858 287.145931 
L 141.157415 295.488 
L 141.198073 287.145931 
L 141.386908 295.488 
L 141.420339 287.145931 
L 141.609174 295.488 
L 141.647121 287.145931 
L 141.835957 295.488 
L 141.875711 287.145931 
L 142.063643 295.488 
L 142.100687 287.145931 
L 142.288619 295.488 
L 142.320242 287.145931 
L 142.509077 295.488 
L 142.550639 287.145931 
L 142.73857 295.488 
L 142.776518 287.145931 
L 142.96445 295.488 
L 143.005108 287.145931 
L 143.193943 295.488 
L 143.22918 287.145931 
L 143.418015 295.488 
L 143.455963 287.145931 
L 143.644798 295.488 
L 143.68636 287.145931 
L 143.875195 295.488 
L 143.911336 287.145931 
L 144.099267 295.488 
L 144.136312 287.145931 
L 144.324243 295.488 
L 144.361287 287.145931 
L 144.550123 295.488 
L 144.587167 287.145931 
L 144.775098 295.488 
L 144.818467 287.145931 
L 145.007302 295.488 
L 145.039829 287.145931 
L 145.227761 295.488 
L 145.265708 287.145931 
L 145.45364 295.488 
L 145.495202 287.145931 
L 145.683133 295.488 
L 145.725599 287.145931 
L 145.914434 295.488 
L 145.948767 287.145931 
L 146.136699 295.488 
L 146.173743 287.145931 
L 146.362578 295.488 
L 146.393298 287.145931 
L 146.581229 295.488 
L 146.615563 287.145931 
L 146.804398 295.488 
L 146.847767 287.145931 
L 147.035699 295.488 
L 147.078164 287.145931 
L 147.266096 295.488 
L 147.307657 287.145931 
L 147.496492 295.488 
L 147.532633 287.145931 
L 147.721468 295.488 
L 147.758512 287.145931 
L 147.947348 295.488 
L 147.980778 287.145931 
L 148.169613 295.488 
L 148.212078 287.145931 
L 148.400913 295.488 
L 148.43344 287.145931 
L 148.622275 295.488 
L 148.663837 287.145931 
L 148.851768 295.488 
L 148.892427 287.145931 
L 149.080358 295.488 
L 149.113788 287.145931 
L 151.815305 187.041103 
L 152.251704 178.699034 
L 160.078874 187.041103 
L 160.217112 178.699034 
L 160.33728 187.041103 
L 160.443895 153.672828 
L 160.592072 103.620414 
L 160.605625 111.962483 
L 160.852285 295.488 
L 160.867645 287.145931 
L 161.05648 295.488 
L 161.089007 287.145931 
L 161.276938 295.488 
L 161.315789 287.145931 
L 161.503721 295.488 
L 161.546186 287.145931 
L 161.734118 295.488 
L 161.766645 287.145931 
L 161.95548 295.488 
L 161.993427 287.145931 
L 162.181359 295.488 
L 162.2175 287.145931 
L 162.406335 295.488 
L 162.442476 287.145931 
L 162.630407 295.488 
L 162.667451 287.145931 
L 162.856286 295.488 
L 162.891524 287.145931 
L 163.079455 295.488 
L 163.122824 287.145931 
L 163.311659 295.488 
L 163.351414 287.145931 
L 163.539346 295.488 
L 163.571872 287.145931 
L 163.760707 295.488 
L 163.796848 287.145931 
L 163.98478 295.488 
L 164.01821 287.145931 
L 164.207045 295.488 
L 164.241378 287.145931 
L 164.430214 295.488 
L 164.467258 287.145931 
L 164.655189 295.488 
L 164.694944 287.145931 
L 164.883779 295.488 
L 164.922631 287.145931 
L 165.110562 295.488 
L 165.144896 287.145931 
L 165.333731 295.488 
L 165.366258 287.145931 
L 165.555093 295.488 
L 165.595751 287.145931 
L 165.783683 295.488 
L 165.82163 287.145931 
L 166.009562 295.488 
L 166.04751 287.145931 
L 166.236345 295.488 
L 166.274292 287.145931 
L 166.463128 295.488 
L 166.496558 287.145931 
L 166.685393 295.488 
L 166.727858 287.145931 
L 166.91579 295.488 
L 166.953737 287.145931 
L 167.141669 295.488 
L 167.179617 287.145931 
L 167.368452 295.488 
L 167.405496 287.145931 
L 167.593428 295.488 
L 167.630472 287.145931 
L 167.818403 295.488 
L 167.861772 287.145931 
L 168.049704 295.488 
L 168.089459 287.145931 
L 168.27739 295.488 
L 168.312627 287.145931 
L 168.500559 295.488 
L 168.534893 287.145931 
L 168.723728 295.488 
L 168.759868 287.145931 
L 168.948704 295.488 
L 168.984844 287.145931 
L 169.173679 295.488 
L 169.208013 287.145931 
L 169.396848 295.488 
L 169.435699 287.145931 
L 169.623631 295.488 
L 169.659772 287.145931 
L 169.847703 295.488 
L 169.884748 287.145931 
L 170.073583 295.488 
L 170.110627 287.145931 
L 170.299462 295.488 
L 170.338313 287.145931 
L 170.527148 295.488 
L 170.558771 287.145931 
L 170.747607 295.488 
L 170.784651 287.145931 
L 173.278358 195.383172 
L 173.430149 203.725241 
L 173.503334 195.383172 
L 173.958707 178.699034 
L 176.341282 187.041103 
L 176.478617 178.699034 
L 176.598785 187.041103 
L 176.618662 178.699034 
L 176.652996 203.725241 
L 176.671969 203.725241 
L 176.807497 220.409379 
L 176.889717 287.145931 
L 176.896945 278.803862 
L 177.084877 295.488 
L 177.128246 287.145931 
L 177.317081 295.488 
L 177.353221 287.145931 
L 177.542057 295.488 
L 177.580908 287.145931 
L 177.769743 295.488 
L 177.80498 287.145931 
L 177.992912 295.488 
L 178.030859 287.145931 
L 178.219695 295.488 
L 178.255835 287.145931 
L 178.443767 295.488 
L 180.046607 287.145931 
L 180.237249 295.488 
L 180.355609 287.145931 
L 180.546252 295.488 
L 180.671841 287.145931 
L 180.862483 295.488 
L 180.988072 287.145931 
L 181.178714 295.488 
L 181.307917 287.145931 
L 181.498559 295.488 
L 181.632279 287.145931 
L 181.822922 295.488 
L 181.946703 287.145931 
L 182.136442 295.488 
L 182.261127 287.145931 
L 182.45177 295.488 
L 182.579166 287.145931 
L 182.769808 295.488 
L 182.895397 287.145931 
L 183.085135 295.488 
L 183.219759 287.145931 
L 183.410401 295.488 
L 183.530569 287.145931 
L 183.721211 295.488 
L 183.839572 287.145931 
L 184.030214 295.488 
L 184.15761 287.145931 
L 184.348252 295.488 
L 184.471131 287.145931 
L 184.661773 295.488 
L 184.781941 287.145931 
L 184.972583 295.488 
L 185.099075 287.145931 
L 185.289717 295.488 
L 185.413499 287.145931 
L 185.604141 295.488 
L 185.731537 287.145931 
L 185.92218 295.488 
L 186.046865 287.145931 
L 186.237507 295.488 
L 186.356771 287.145931 
L 186.547414 295.488 
L 186.667581 287.145931 
L 186.85732 295.488 
L 186.978391 287.145931 
L 187.169033 295.488 
L 192.722051 287.145931 
L 192.844026 270.461793 
L 193.064484 228.751448 
L 193.255126 295.488 
L 193.29217 287.145931 
L 193.482812 295.488 
L 193.609305 287.145931 
L 193.930053 278.803862 
L 194.120695 295.488 
L 194.252609 287.145931 
L 194.442348 295.488 
L 194.558901 287.145931 
L 194.749544 295.488 
L 194.872422 287.145931 
L 195.063064 295.488 
L 195.183232 287.145931 
L 195.37297 295.488 
L 195.490428 287.145931 
L 195.68107 295.488 
L 195.803948 287.145931 
L 195.99459 295.488 
L 196.127407 287.145931 
L 196.31805 295.488 
L 196.442735 287.145931 
L 196.633377 295.488 
L 196.76258 287.145931 
L 196.953222 295.488 
L 197.080618 287.145931 
L 197.27126 295.488 
L 197.392332 287.145931 
L 197.582974 295.488 
L 197.71037 287.145931 
L 197.901012 295.488 
L 198.029311 287.145931 
L 198.219953 295.488 
L 198.341928 287.145931 
L 198.53257 295.488 
L 198.66087 287.145931 
L 198.851512 295.488 
L 198.969873 287.145931 
L 199.160515 295.488 
L 199.289718 287.145931 
L 199.48036 295.488 
L 199.604142 287.145931 
L 199.794784 295.488 
L 199.917662 287.145931 
L 200.108305 295.488 
L 200.234797 287.145931 
L 200.424536 295.488 
L 200.55916 287.145931 
L 200.749802 295.488 
L 200.871777 287.145931 
L 201.062419 295.488 
L 201.18078 287.145931 
L 201.371422 295.488 
L 201.500625 287.145931 
L 201.691267 295.488 
L 201.82047 287.145931 
L 202.011112 295.488 
L 202.136701 287.145931 
L 202.327343 295.488 
L 202.4448 287.145931 
L 202.635442 295.488 
L 202.763742 287.145931 
L 202.954384 295.488 
L 203.08178 287.145931 
L 203.272422 295.488 
L 203.405239 287.145931 
L 205.304433 237.093517 
L 208.87694 245.435586 
L 209.013371 237.093517 
L 209.146188 245.435586 
L 209.249189 220.409379 
L 209.307918 203.725241 
L 209.342251 212.06731 
L 209.606982 295.488 
L 209.725343 287.145931 
L 209.915985 295.488 
L 210.050609 287.145931 
L 210.240348 295.488 
L 210.358708 287.145931 
L 210.54935 295.488 
L 210.676746 287.145931 
L 210.867389 295.488 
L 210.996592 287.145931 
L 211.187234 295.488 
L 211.311016 287.145931 
L 211.501658 295.488 
L 211.627247 287.145931 
L 211.817889 295.488 
L 211.946188 287.145931 
L 212.13683 295.488 
L 212.262419 287.145931 
L 212.453061 295.488 
L 212.570519 287.145931 
L 212.761161 295.488 
L 212.88946 287.145931 
L 213.080102 295.488 
L 213.202981 287.145931 
L 213.393623 295.488 
L 213.521019 287.145931 
L 213.711661 295.488 
L 213.839057 287.145931 
L 214.029699 295.488 
L 214.15077 287.145931 
L 214.341413 295.488 
L 214.475133 287.145931 
L 214.665775 295.488 
L 214.795882 287.145931 
L 214.986524 295.488 
L 215.114823 287.145931 
L 215.305466 295.488 
L 215.435572 287.145931 
L 215.626214 295.488 
L 215.749093 287.145931 
L 215.939735 295.488 
L 216.074359 287.145931 
L 216.265001 295.488 
L 216.398721 287.145931 
L 216.58846 295.488 
L 217.593171 287.145931 
L 217.771164 278.803862 
L 217.782006 287.145931 
L 217.950061 278.803862 
L 217.959999 287.145931 
L 218.130764 278.803862 
L 218.137992 287.145931 
L 218.314178 278.803862 
L 218.318696 287.145931 
L 218.493978 278.803862 
L 218.503013 287.145931 
L 218.674682 278.803862 
L 218.68191 287.145931 
L 218.855385 278.803862 
L 218.862613 287.145931 
L 219.034281 278.803862 
L 219.043317 287.145931 
L 219.213178 278.803862 
L 219.222213 287.145931 
L 219.389364 278.803862 
L 219.401109 287.145931 
L 219.571874 278.803862 
L 219.577295 287.145931 
L 219.755288 278.803862 
L 219.760709 287.145931 
L 219.935088 278.803862 
L 219.94322 287.145931 
L 220.116695 278.803862 
L 220.12302 287.145931 
L 220.299206 278.803862 
L 220.304627 287.145931 
L 220.658806 270.461793 
L 220.684104 287.145931 
L 220.835895 278.803862 
L 220.846737 287.145931 
L 221.013888 278.803862 
L 221.023826 287.145931 
L 221.190977 278.803862 
L 221.201819 287.145931 
L 221.368067 278.803862 
L 221.378909 287.145931 
L 221.544252 278.803862 
L 221.556902 287.145931 
L 221.725859 278.803862 
L 221.732184 287.145931 
L 221.907466 278.803862 
L 221.913791 287.145931 
L 222.08817 278.803862 
L 222.095398 287.145931 
L 222.265259 278.803862 
L 222.276101 287.145931 
L 222.44777 278.803862 
L 222.453191 287.145931 
L 222.62757 278.803862 
L 222.635701 287.145931 
L 222.803756 278.803862 
L 222.816405 287.145931 
L 222.98988 278.803862 
L 222.991687 287.145931 
L 223.172391 278.803862 
L 223.177812 287.145931 
L 223.353998 278.803862 
L 223.361226 287.145931 
L 223.534701 278.803862 
L 223.541929 287.145931 
L 223.715405 278.803862 
L 223.722633 287.145931 
L 223.895204 278.803862 
L 223.90424 287.145931 
L 224.073197 278.803862 
L 224.083136 287.145931 
L 224.258418 278.803862 
L 224.262032 287.145931 
L 224.439122 278.803862 
L 224.44635 287.145931 
L 224.621632 278.803862 
L 224.627053 287.145931 
L 224.802336 278.803862 
L 224.809564 287.145931 
L 224.981232 278.803862 
L 224.990267 287.145931 
L 225.162839 278.803862 
L 225.169164 287.145931 
L 225.34806 278.803862 
L 225.350771 287.145931 
L 225.524246 278.803862 
L 225.535992 287.145931 
L 225.703143 278.803862 
L 225.713081 287.145931 
L 225.882943 278.803862 
L 225.891074 287.145931 
L 226.068164 278.803862 
L 226.070874 287.145931 
L 226.24706 278.803862 
L 226.256095 287.145931 
L 226.425956 278.803862 
L 226.435895 287.145931 
L 226.605756 278.803862 
L 226.613888 287.145931 
L 226.782846 278.803862 
L 226.794591 287.145931 
L 226.960839 278.803862 
L 226.971681 287.145931 
L 227.141542 278.803862 
L 227.149674 287.145931 
L 227.323149 278.803862 
L 227.329474 287.145931 
L 227.503853 278.803862 
L 227.511984 287.145931 
L 227.682749 278.803862 
L 227.691784 287.145931 
L 227.862549 278.803862 
L 227.871584 287.145931 
L 228.044156 278.803862 
L 228.050481 287.145931 
L 228.222149 278.803862 
L 228.232087 287.145931 
L 228.401949 278.803862 
L 228.41008 287.145931 
L 228.583556 278.803862 
L 228.590784 287.145931 
L 228.759742 278.803862 
L 228.772391 287.145931 
L 228.942252 278.803862 
L 228.948577 287.145931 
L 229.121149 278.803862 
L 229.131087 287.145931 
L 229.296431 278.803862 
L 229.30908 287.145931 
L 229.481652 278.803862 
L 229.484362 287.145931 
L 229.661452 278.803862 
L 229.669584 287.145931 
L 229.842155 278.803862 
L 229.849383 287.145931 
L 230.019245 278.803862 
L 230.030087 287.145931 
L 230.200852 278.803862 
L 230.207176 287.145931 
L 230.381555 278.803862 
L 230.388783 287.145931 
L 230.565873 278.803862 
L 230.569487 287.145931 
L 230.743866 278.803862 
L 230.754708 287.145931 
L 230.928183 278.803862 
L 230.931797 287.145931 
L 231.108887 278.803862 
L 231.117018 287.145931 
L 231.291397 278.803862 
L 231.296818 287.145931 
L 231.470293 278.803862 
L 231.479329 287.145931 
L 231.645576 278.803862 
L 231.659129 287.145931 
L 231.8317 278.803862 
L 231.834411 287.145931 
L 232.016018 278.803862 
L 232.019632 287.145931 
L 232.193107 278.803862 
L 232.204853 287.145931 
L 232.373811 278.803862 
L 232.381942 287.145931 
L 232.555418 278.803862 
L 232.561742 287.145931 
L 232.735218 278.803862 
L 232.743349 287.145931 
L 232.915921 278.803862 
L 232.923149 287.145931 
L 233.102046 278.803862 
L 233.104756 287.145931 
L 233.284556 278.803862 
L 233.289977 287.145931 
L 233.46526 278.803862 
L 233.472488 287.145931 
L 233.642349 278.803862 
L 233.653191 287.145931 
L 233.823053 278.803862 
L 233.830281 287.145931 
L 234.002852 278.803862 
L 234.011888 287.145931 
L 234.184459 278.803862 
L 234.190784 287.145931 
L 234.365163 278.803862 
L 234.372391 287.145931 
L 234.548577 278.803862 
L 234.553998 287.145931 
L 234.730184 278.803862 
L 234.736508 287.145931 
L 234.908177 278.803862 
L 234.919019 287.145931 
L 235.090687 278.803862 
L 235.096108 287.145931 
L 235.275005 278.803862 
L 235.278619 287.145931 
L 235.457515 278.803862 
L 235.46384 287.145931 
L 235.634605 278.803862 
L 235.645447 287.145931 
L 235.812598 278.803862 
L 235.82344 287.145931 
L 237.98646 187.041103 
L 238.704756 153.672828 
L 246.813824 162.014897 
L 246.945738 153.672828 
L 247.053256 145.330759 
L 247.122827 153.672828 
L 247.149933 136.98869 
L 247.317083 53.568 
L 247.585428 287.145931 
L 247.765228 278.803862 
L 247.772456 287.145931 
L 247.949545 278.803862 
L 247.954063 287.145931 
L 248.127538 278.803862 
L 248.138381 287.145931 
L 248.310049 278.803862 
L 248.316373 287.145931 
L 248.492559 278.803862 
L 248.49798 287.145931 
L 248.669649 278.803862 
L 248.680491 287.145931 
L 248.847642 278.803862 
L 248.858484 287.145931 
L 249.031056 278.803862 
L 249.035573 287.145931 
L 249.216277 278.803862 
L 249.218987 287.145931 
L 249.400594 278.803862 
L 249.404208 287.145931 
L 249.584008 278.803862 
L 249.589429 287.145931 
L 249.763808 278.803862 
L 249.77194 287.145931 
L 249.941801 278.803862 
L 249.95174 287.145931 
L 250.124312 278.803862 
L 250.130636 287.145931 
L 250.305015 278.803862 
L 250.312243 287.145931 
L 250.485718 278.803862 
L 250.492947 287.145931 
L 250.67094 278.803862 
L 250.674554 287.145931 
L 250.851643 278.803862 
L 250.858871 287.145931 
L 251.031443 278.803862 
L 251.039575 287.145931 
L 251.210339 278.803862 
L 251.219375 287.145931 
L 251.388332 278.803862 
L 251.399174 287.145931 
L 251.565422 278.803862 
L 251.576264 287.145931 
L 251.744318 278.803862 
L 251.753353 287.145931 
L 251.925022 278.803862 
L 251.933153 287.145931 
L 252.107532 278.803862 
L 252.112953 287.145931 
L 252.288235 278.803862 
L 252.295464 287.145931 
L 252.470746 278.803862 
L 252.476167 287.145931 
L 252.652353 278.803862 
L 252.658678 287.145931 
L 252.832153 278.803862 
L 252.840285 287.145931 
L 253.010146 278.803862 
L 253.020085 287.145931 
L 253.188139 278.803862 
L 253.198077 287.145931 
L 253.370649 278.803862 
L 253.37607 287.145931 
L 253.55316 278.803862 
L 253.558581 287.145931 
L 253.733863 278.803862 
L 253.741091 287.145931 
L 253.911856 278.803862 
L 253.921795 287.145931 
L 254.096174 278.803862 
L 254.100691 287.145931 
L 254.275974 278.803862 
L 254.284105 287.145931 
L 254.455773 278.803862 
L 254.463905 287.145931 
L 254.63738 278.803862 
L 254.643705 287.145931 
L 254.818987 278.803862 
L 254.825312 287.145931 
L 254.99698 278.803862 
L 255.006919 287.145931 
L 255.17407 278.803862 
L 255.184912 287.145931 
L 255.355677 278.803862 
L 255.362001 287.145931 
L 255.539091 278.803862 
L 255.543608 287.145931 
L 255.721601 278.803862 
L 255.727926 287.145931 
L 255.905015 278.803862 
L 255.909533 287.145931 
L 256.082105 278.803862 
L 256.092947 287.145931 
L 256.43809 270.461793 
L 256.467003 287.145931 
L 256.616987 278.803862 
L 256.626022 287.145931 
L 256.798594 278.803862 
L 256.804918 287.145931 
L 256.976587 278.803862 
L 256.986525 287.145931 
L 257.159097 278.803862 
L 257.165422 287.145931 
L 257.340704 278.803862 
L 257.347932 287.145931 
L 257.518697 278.803862 
L 257.529539 287.145931 
L 259.870553 178.699034 
L 260.417181 153.672828 
L 263.072618 162.014897 
L 273.913922 145.330759 
L 274.026862 153.672828 
L 274.208469 53.568 
L 274.536445 278.803862 
L 274.551805 287.145931 
L 274.69185 278.803862 
L 274.702693 287.145931 
L 274.875264 278.803862 
L 274.879782 287.145931 
L 275.055064 278.803862 
L 275.063196 287.145931 
L 275.235768 278.803862 
L 275.242996 287.145931 
L 275.415568 278.803862 
L 275.423699 287.145931 
L 275.598078 278.803862 
L 275.603499 287.145931 
L 275.780589 278.803862 
L 275.78601 287.145931 
L 275.958582 278.803862 
L 275.969424 287.145931 
L 276.137478 278.803862 
L 276.146513 287.145931 
L 276.317278 278.803862 
L 276.32541 287.145931 
L 276.493464 278.803862 
L 276.506113 287.145931 
L 276.674167 278.803862 
L 276.682299 287.145931 
L 276.854871 278.803862 
L 276.863002 287.145931 
L 277.032864 278.803862 
L 277.042802 287.145931 
L 277.215374 278.803862 
L 277.220795 287.145931 
L 277.399692 278.803862 
L 277.403306 287.145931 
L 277.577685 278.803862 
L 277.587623 287.145931 
L 277.762002 278.803862 
L 277.765616 287.145931 
L 277.939092 278.803862 
L 277.949934 287.145931 
L 278.122506 278.803862 
L 278.127927 287.145931 
L 278.305016 278.803862 
L 278.311341 287.145931 
L 278.484816 278.803862 
L 278.493851 287.145931 
L 278.669134 278.803862 
L 278.672748 287.145931 
L 278.849837 278.803862 
L 278.857065 287.145931 
L 279.031444 278.803862 
L 279.037769 287.145931 
L 279.214858 278.803862 
L 279.219376 287.145931 
L 279.393754 278.803862 
L 279.40279 287.145931 
L 279.577168 278.803862 
L 279.581686 287.145931 
L 279.758775 278.803862 
L 279.7651 287.145931 
L 279.940382 278.803862 
L 279.94761 287.145931 
L 280.121086 278.803862 
L 280.128314 287.145931 
L 280.299982 278.803862 
L 280.309017 287.145931 
L 280.481589 278.803862 
L 280.487914 287.145931 
L 280.662293 278.803862 
L 280.669521 287.145931 
L 280.837575 278.803862 
L 280.850224 287.145931 
L 281.020086 278.803862 
L 281.025507 287.145931 
L 281.2035 278.803862 
L 281.208017 287.145931 
L 281.38601 278.803862 
L 281.391431 287.145931 
L 281.564906 278.803862 
L 281.573942 287.145931 
L 281.746513 278.803862 
L 281.753742 287.145931 
L 281.924506 278.803862 
L 281.935349 287.145931 
L 282.10792 278.803862 
L 282.112438 287.145931 
L 282.289527 278.803862 
L 282.295852 287.145931 
L 282.468424 278.803862 
L 282.477459 287.145931 
L 282.649127 278.803862 
L 282.656355 287.145931 
L 282.830734 278.803862 
L 282.837059 287.145931 
L 283.013245 278.803862 
L 283.018666 287.145931 
L 283.196659 278.803862 
L 283.201176 287.145931 
L 283.379169 278.803862 
L 283.38459 287.145931 
L 283.556259 278.803862 
L 283.568004 287.145931 
L 283.738769 278.803862 
L 283.74419 287.145931 
L 283.922183 278.803862 
L 283.926701 287.145931 
L 284.104694 278.803862 
L 284.110115 287.145931 
L 284.281783 278.803862 
L 284.292625 287.145931 
L 284.4661 278.803862 
L 284.469715 287.145931 
L 284.647707 278.803862 
L 284.654032 287.145931 
L 284.82299 278.803862 
L 284.835639 287.145931 
L 285.000983 278.803862 
L 285.010921 287.145931 
L 285.177169 278.803862 
L 285.188914 287.145931 
L 285.357872 278.803862 
L 285.3651 287.145931 
L 285.54219 278.803862 
L 285.545804 287.145931 
L 285.721086 278.803862 
L 285.730121 287.145931 
L 285.902693 278.803862 
L 285.909921 287.145931 
L 286.082493 278.803862 
L 286.090625 287.145931 
L 286.263196 278.803862 
L 286.270425 287.145931 
L 286.44661 278.803862 
L 286.452032 287.145931 
L 286.629121 278.803862 
L 286.635446 287.145931 
L 286.808921 278.803862 
L 286.817052 287.145931 
L 286.988721 278.803862 
L 286.997756 287.145931 
L 287.173942 278.803862 
L 287.176652 287.145931 
L 287.354645 278.803862 
L 287.361873 287.145931 
L 287.538059 278.803862 
L 287.542577 287.145931 
L 287.718763 278.803862 
L 287.725991 287.145931 
L 287.899466 278.803862 
L 287.906694 287.145931 
L 288.078363 278.803862 
L 288.087398 287.145931 
L 288.25997 278.803862 
L 288.266294 287.145931 
L 288.438866 278.803862 
L 288.448805 287.145931 
L 288.616859 278.803862 
L 288.626798 287.145931 
L 288.797562 278.803862 
L 288.804791 287.145931 
L 288.976459 278.803862 
L 288.985494 287.145931 
L 289.158066 278.803862 
L 289.16439 287.145931 
L 289.342383 278.803862 
L 289.345997 287.145931 
L 289.530315 295.488 
L 290.412148 287.145931 
L 292.313148 237.093517 
L 306.456808 245.435586 
L 306.592336 237.093517 
L 306.726056 245.435586 
L 306.829057 220.409379 
L 306.963681 195.383172 
L 306.97633 203.725241 
L 307.178718 262.119724 
L 307.356711 295.488 
L 307.484107 287.145931 
L 307.673846 295.488 
L 307.796724 287.145931 
L 307.987366 295.488 
L 308.114762 287.145931 
L 308.305404 295.488 
L 308.430993 287.145931 
L 308.620732 295.488 
L 308.748128 287.145931 
L 308.937866 295.488 
L 309.061648 287.145931 
L 309.25229 295.488 
L 309.371555 287.145931 
L 309.562197 295.488 
L 309.682365 287.145931 
L 309.873007 295.488 
L 309.992271 287.145931 
L 310.182913 295.488 
L 310.311213 287.145931 
L 310.500951 295.488 
L 310.622023 287.145931 
L 310.812665 295.488 
L 310.933736 287.145931 
L 311.124378 295.488 
L 311.256292 287.145931 
L 311.446934 295.488 
L 311.573426 287.145931 
L 311.764069 295.488 
L 311.891464 287.145931 
L 312.081203 295.488 
L 312.201371 287.145931 
L 312.392013 295.488 
L 312.518506 287.145931 
L 312.709148 295.488 
L 312.828412 287.145931 
L 313.019054 295.488 
L 313.147354 287.145931 
L 313.337996 295.488 
L 313.461778 287.145931 
L 313.65242 295.488 
L 313.775298 287.145931 
L 313.96594 295.488 
L 314.093336 287.145931 
L 314.283978 295.488 
L 314.40505 287.145931 
L 314.595692 295.488 
L 314.721281 287.145931 
L 314.911019 295.488 
L 315.035705 287.145931 
L 315.226347 295.488 
L 315.354646 287.145931 
L 315.544385 295.488 
L 315.670877 287.145931 
L 315.861519 295.488 
L 315.986205 287.145931 
L 316.176847 295.488 
L 316.297015 287.145931 
L 316.487657 295.488 
L 316.618667 287.145931 
L 316.809309 295.488 
L 316.93038 287.145931 
L 317.121023 295.488 
L 317.24119 287.145931 
L 317.431833 295.488 
L 317.550193 287.145931 
L 317.740835 295.488 
L 317.867328 287.145931 
L 318.05797 295.488 
L 318.180848 287.145931 
L 318.371491 295.488 
L 318.498886 287.145931 
L 318.688625 295.488 
L 318.8106 287.145931 
L 319.001242 295.488 
L 319.126831 287.145931 
L 319.317473 295.488 
L 319.444869 287.145931 
L 319.635511 295.488 
L 319.764714 287.145931 
L 319.955356 295.488 
L 320.075524 287.145931 
L 320.266166 295.488 
L 320.385431 287.145931 
L 320.576073 295.488 
L 320.701662 287.145931 
L 320.892304 295.488 
L 321.013375 287.145931 
L 321.204017 295.488 
L 321.331413 287.145931 
L 321.522055 295.488 
L 321.648548 287.145931 
L 321.83919 295.488 
L 321.966586 287.145931 
L 322.157228 295.488 
L 322.282817 287.145931 
L 322.473459 295.488 
L 322.597241 287.145931 
L 322.787883 295.488 
L 322.907147 287.145931 
L 323.09779 295.488 
L 323.225185 287.145931 
L 323.415828 295.488 
L 323.543224 287.145931 
L 323.733866 295.488 
L 323.864876 287.145931 
L 324.055518 295.488 
L 324.188335 287.145931 
L 324.378977 295.488 
L 324.504566 287.145931 
L 324.695208 295.488 
L 324.820797 287.145931 
L 325.010536 295.488 
L 325.136125 287.145931 
L 325.326767 295.488 
L 325.451452 287.145931 
L 325.642094 295.488 
L 325.764973 287.145931 
L 325.954711 295.488 
L 326.081204 287.145931 
L 326.271846 295.488 
L 326.394724 287.145931 
L 326.585366 295.488 
L 326.710955 287.145931 
L 326.901597 295.488 
L 327.025379 287.145931 
L 327.215118 295.488 
L 327.3389 287.145931 
L 327.529542 295.488 
L 327.651517 287.145931 
L 327.842159 295.488 
L 327.967748 287.145931 
L 328.15839 295.488 
L 328.288496 287.145931 
L 328.479139 295.488 
L 328.605631 287.145931 
L 328.796273 295.488 
L 328.923669 287.145931 
L 329.114311 295.488 
L 329.245321 287.145931 
L 329.435963 295.488 
L 329.557938 287.145931 
L 329.747677 295.488 
L 329.874169 287.145931 
L 330.064811 295.488 
L 330.183172 287.145931 
L 330.373814 295.488 
L 330.502114 287.145931 
L 330.692756 295.488 
L 330.824669 287.145931 
L 331.014408 295.488 
L 331.145418 287.145931 
L 331.335157 295.488 
L 331.467974 287.145931 
L 331.658616 295.488 
L 331.787819 287.145931 
L 331.978461 295.488 
L 332.101339 287.145931 
L 332.291982 295.488 
L 332.418474 287.145931 
L 332.609116 295.488 
L 332.733801 287.145931 
L 332.924444 295.488 
L 333.046418 287.145931 
L 333.236157 295.488 
L 334.54445 287.145931 
L 334.733285 295.488 
L 334.773944 287.145931 
L 334.961875 295.488 
L 335.003437 287.145931 
L 335.192272 295.488 
L 335.226606 287.145931 
L 335.414537 295.488 
L 335.456099 287.145931 
L 335.644031 295.488 
L 335.683785 287.145931 
L 335.872621 295.488 
L 335.908761 287.145931 
L 336.096693 295.488 
L 336.134641 287.145931 
L 336.323476 295.488 
L 336.356906 287.145931 
L 336.545741 295.488 
L 336.581882 287.145931 
L 336.769813 295.488 
L 336.809568 287.145931 
L 336.9975 295.488 
L 337.035447 287.145931 
L 337.224282 295.488 
L 337.258616 287.145931 
L 337.447451 295.488 
L 337.48811 287.145931 
L 337.676945 295.488 
L 337.720313 287.145931 
L 337.908245 295.488 
L 337.945289 287.145931 
L 338.134124 295.488 
L 338.172072 287.145931 
L 338.397951 278.803862 
L 338.555163 287.145931 
L 338.586787 295.488 
L 338.622927 287.145931 
L 338.810859 295.488 
L 338.847 287.145931 
L 339.035835 295.488 
L 344.49579 287.145931 
L 344.61415 270.461793 
L 344.776784 170.356966 
L 344.878881 178.699034 
L 360.658811 187.041103 
L 360.793435 178.699034 
L 360.913602 187.041103 
L 361.032867 145.330759 
L 361.181044 103.620414 
L 361.190079 111.962483 
L 361.328317 220.409379 
L 361.44216 287.145931 
L 361.60389 295.488 
L 361.64003 287.145931 
L 361.828865 295.488 
L 361.86591 287.145931 
L 362.053841 295.488 
L 362.089078 287.145931 
L 362.27701 295.488 
L 362.309537 287.145931 
L 362.498372 295.488 
L 362.53632 287.145931 
L 362.725155 295.488 
L 362.764006 287.145931 
L 362.952841 295.488 
L 362.983561 287.145931 
L 363.172396 295.488 
L 363.207633 287.145931 
L 363.395564 295.488 
L 363.431705 287.145931 
L 363.619637 295.488 
L 363.660295 287.145931 
L 363.84913 295.488 
L 363.886174 287.145931 
L 364.074106 295.488 
L 364.115668 287.145931 
L 364.303599 295.488 
L 364.338837 287.145931 
L 364.527672 295.488 
L 364.565619 287.145931 
L 364.754454 295.488 
L 364.789692 287.145931 
L 364.978527 295.488 
L 365.017378 287.145931 
L 365.20531 295.488 
L 365.245064 287.145931 
L 365.433899 295.488 
L 365.476365 287.145931 
L 365.6652 295.488 
L 365.69863 287.145931 
L 365.886562 295.488 
L 365.925413 287.145931 
L 366.113344 295.488 
L 366.150389 287.145931 
L 366.339224 295.488 
L 366.378075 287.145931 
L 366.56691 295.488 
L 366.601244 287.145931 
L 366.789175 295.488 
L 366.822606 287.145931 
L 367.011441 295.488 
L 367.046678 287.145931 
L 367.235513 295.488 
L 367.275268 287.145931 
L 367.464103 295.488 
L 367.502954 287.145931 
L 367.690886 295.488 
L 367.723412 287.145931 
L 367.912247 295.488 
L 367.953809 287.145931 
L 368.142644 295.488 
L 368.179689 287.145931 
L 368.368524 295.488 
L 368.407375 287.145931 
L 368.595306 295.488 
L 368.635061 287.145931 
L 368.822993 295.488 
L 368.862748 287.145931 
L 369.051583 295.488 
L 369.088627 287.145931 
L 369.276559 295.488 
L 369.314506 287.145931 
L 369.502438 295.488 
L 369.543096 287.145931 
L 369.731028 295.488 
L 369.768975 287.145931 
L 369.956907 295.488 
L 369.995758 287.145931 
L 370.18369 295.488 
L 370.221638 287.145931 
L 370.410473 295.488 
L 370.44571 287.145931 
L 370.634545 295.488 
L 370.673396 287.145931 
L 370.862231 295.488 
L 370.900179 287.145931 
L 371.088111 295.488 
L 371.129673 287.145931 
L 371.318508 295.488 
L 371.360069 287.145931 
L 374.319992 178.699034 
L 382.343226 187.041103 
L 382.481464 178.699034 
L 382.601632 187.041103 
L 382.704633 153.672828 
L 382.865459 103.620414 
L 382.869073 111.962483 
L 383.039838 237.093517 
L 383.125672 295.488 
L 383.146453 287.145931 
L 383.334384 295.488 
L 383.372332 287.145931 
L 383.560263 295.488 
L 383.601825 287.145931 
L 383.79066 295.488 
L 383.828608 287.145931 
L 384.01654 295.488 
L 384.051777 287.145931 
L 384.240612 295.488 
L 384.276753 287.145931 
L 384.464684 295.488 
L 384.501728 287.145931 
L 384.690564 295.488 
L 384.728511 287.145931 
L 384.916443 295.488 
L 384.956198 287.145931 
L 385.144129 295.488 
L 385.182077 287.145931 
L 385.370912 295.488 
L 385.41157 287.145931 
L 385.599502 295.488 
L 385.639257 287.145931 
L 385.827188 295.488 
L 385.866943 287.145931 
L 386.055778 295.488 
L 386.093726 287.145931 
L 386.281658 295.488 
L 386.315088 287.145931 
L 386.503923 295.488 
L 386.534642 287.145931 
L 386.723478 295.488 
L 386.763232 287.145931 
L 386.951164 295.488 
L 386.981883 287.145931 
L 387.169815 295.488 
L 387.205956 287.145931 
L 387.393887 295.488 
L 387.429125 287.145931 
L 387.617056 295.488 
L 387.656811 287.145931 
L 387.844742 295.488 
L 387.885401 287.145931 
L 388.074236 295.488 
L 388.10857 287.145931 
L 388.297405 295.488 
L 388.333545 287.145931 
L 388.52238 295.488 
L 388.559425 287.145931 
L 388.747356 295.488 
L 388.780786 287.145931 
L 388.969622 295.488 
L 389.003052 287.145931 
L 389.190983 295.488 
L 389.221703 287.145931 
L 389.410538 295.488 
L 389.447582 287.145931 
L 389.635514 295.488 
L 389.673462 287.145931 
L 389.862297 295.488 
L 389.899341 287.145931 
L 390.088176 295.488 
L 390.124317 287.145931 
L 390.312248 295.488 
L 390.351099 287.145931 
L 390.539031 295.488 
L 390.574268 287.145931 
L 390.763103 295.488 
L 390.801955 287.145931 
L 390.99079 295.488 
L 391.026027 287.145931 
L 391.214862 295.488 
L 391.257327 287.145931 
L 391.445259 295.488 
L 391.482303 287.145931 
L 391.670235 295.488 
L 391.714507 287.145931 
L 391.903342 295.488 
L 391.942193 287.145931 
L 392.130125 295.488 
L 392.16988 287.145931 
L 392.358715 295.488 
L 392.395759 287.145931 
L 392.583691 295.488 
L 392.626156 287.145931 
L 392.814991 295.488 
L 392.852035 287.145931 
L 393.039967 295.488 
L 393.077915 287.145931 
L 393.265846 295.488 
L 393.303794 287.145931 
L 393.492629 295.488 
L 393.523349 287.145931 
L 393.712184 295.488 
L 393.752842 287.145931 
L 393.940774 295.488 
L 393.977818 287.145931 
L 394.166653 295.488 
L 394.20189 287.145931 
L 394.389822 295.488 
L 394.424155 287.145931 
L 394.612991 295.488 
L 394.655456 287.145931 
L 394.843387 295.488 
L 394.884949 287.145931 
L 395.072881 295.488 
L 395.109022 287.145931 
L 395.297857 295.488 
L 395.336708 287.145931 
L 395.525543 295.488 
L 395.561684 287.145931 
L 395.750519 295.488 
L 395.78666 287.145931 
L 395.974591 295.488 
L 396.008021 287.145931 
L 396.196856 295.488 
L 396.228479 287.145931 
L 396.417315 295.488 
L 396.451648 287.145931 
L 396.63958 295.488 
L 396.676624 287.145931 
L 396.865459 295.488 
L 396.900696 287.145931 
L 397.089531 295.488 
L 397.125672 287.145931 
L 397.314507 295.488 
L 397.351551 287.145931 
L 397.540387 295.488 
L 397.579238 287.145931 
L 397.768073 295.488 
L 397.808731 287.145931 
L 397.996663 295.488 
L 398.030996 287.145931 
L 398.219832 295.488 
L 398.259586 287.145931 
L 398.447518 295.488 
L 398.487273 287.145931 
L 398.487273 287.145931 
" clip-path="url(#pf10c882b20)" style="fill: none; stroke: #1f77b4; stroke-width: 1.5; stroke-linecap: square"/>
   </g>
   <g id="patch_3">
    <path d="M 57.6 307.584 
L 57.6 41.472 
" style="fill: none; stroke: #000000; stroke-width: 0.8; stroke-linejoin: miter; stroke-linecap: square"/>
   </g>
   <g id="patch_4">
    <path d="M 414.72 307.584 
L 414.72 41.472 
" style="fill: none; stroke: #000000; stroke-width: 0.8; stroke-linejoin: miter; stroke-linecap: square"/>
   </g>
   <g id="patch_5">
    <path d="M 57.6 307.584 
L 414.72 307.584 
" style="fill: none; stroke: #000000; stroke-width: 0.8; stroke-linejoin: miter; stroke-linecap: square"/>
   </g>
   <g id="patch_6">
    <path d="M 57.6 41.472 
L 414.72 41.472 
" style="fill: none; stroke: #000000; stroke-width: 0.8; stroke-linejoin: miter; stroke-linecap: square"/>
   </g>
   <g id="text_17">
    <!-- Queue size (y-axis) between S3 and sensors that follow at a time (x-axis). -->
    <g transform="translate(14.282813 35.472) scale(0.12 -0.12)">
     <defs>
      <path id="DejaVuSans-51" d="M 2522 4238 
Q 1834 4238 1429 3725 
Q 1025 3213 1025 2328 
Q 1025 1447 1429 934 
Q 1834 422 2522 422 
Q 3209 422 3611 934 
Q 4013 1447 4013 2328 
Q 4013 3213 3611 3725 
Q 3209 4238 2522 4238 
z
M 3406 84 
L 4238 -825 
L 3475 -825 
L 2784 -78 
Q 2681 -84 2626 -87 
Q 2572 -91 2522 -91 
Q 1538 -91 948 567 
Q 359 1225 359 2328 
Q 359 3434 948 4092 
Q 1538 4750 2522 4750 
Q 3503 4750 4090 4092 
Q 4678 3434 4678 2328 
Q 4678 1516 4351 937 
Q 4025 359 3406 84 
z
" transform="scale(0.015625)"/>
      <path id="DejaVuSans-75" d="M 544 1381 
L 544 3500 
L 1119 3500 
L 1119 1403 
Q 1119 906 1312 657 
Q 1506 409 1894 409 
Q 2359 409 2629 706 
Q 2900 1003 2900 1516 
L 2900 3500 
L 3475 3500 
L 3475 0 
L 2900 0 
L 2900 538 
Q 2691 219 2414 64 
Q 2138 -91 1772 -91 
Q 1169 -91 856 284 
Q 544 659 544 1381 
z
M 1991 3584 
L 1991 3584 
z
" transform="scale(0.015625)"/>
      <path id="DejaVuSans-20" transform="scale(0.015625)"/>
      <path id="DejaVuSans-73" d="M 2834 3397 
L 2834 2853 
Q 2591 2978 2328 3040 
Q 2066 3103 1784 3103 
Q 1356 3103 1142 2972 
Q 928 2841 928 2578 
Q 928 2378 1081 2264 
Q 1234 2150 1697 2047 
L 1894 2003 
Q 2506 1872 2764 1633 
Q 3022 1394 3022 966 
Q 3022 478 2636 193 
Q 2250 -91 1575 -91 
Q 1294 -91 989 -36 
Q 684 19 347 128 
L 347 722 
Q 666 556 975 473 
Q 1284 391 1588 391 
Q 1994 391 2212 530 
Q 2431 669 2431 922 
Q 2431 1156 2273 1281 
Q 2116 1406 1581 1522 
L 1381 1569 
Q 847 1681 609 1914 
Q 372 2147 372 2553 
Q 372 3047 722 3315 
Q 1072 3584 1716 3584 
Q 2034 3584 2315 3537 
Q 2597 3491 2834 3397 
z
" transform="scale(0.015625)"/>
      <path id="DejaVuSans-69" d="M 603 3500 
L 1178 3500 
L 1178 0 
L 603 0 
L 603 3500 
z
M 603 4863 
L 1178 4863 
L 1178 4134 
L 603 4134 
L 603 4863 
z
" transform="scale(0.015625)"/>
      <path id="DejaVuSans-7a" d="M 353 3500 
L 3084 3500 
L 3084 2975 
L 922 459 
L 3084 459 
L 3084 0 
L 275 0 
L 275 525 
L 2438 3041 
L 353 3041 
L 353 3500 
z
" transform="scale(0.015625)"/>
      <path id="DejaVuSans-28" d="M 1984 4856 
Q 1566 4138 1362 3434 
Q 1159 2731 1159 2009 
Q 1159 1288 1364 580 
Q 1569 -128 1984 -844 
L 1484 -844 
Q 1016 -109 783 600 
Q 550 1309 550 2009 
Q 550 2706 781 3412 
Q 1013 4119 1484 4856 
L 1984 4856 
z
" transform="scale(0.015625)"/>
      <path id="DejaVuSans-79" d="M 2059 -325 
Q 1816 -950 1584 -1140 
Q 1353 -1331 966 -1331 
L 506 -1331 
L 506 -850 
L 844 -850 
Q 1081 -850 1212 -737 
Q 1344 -625 1503 -206 
L 1606 56 
L 191 3500 
L 800 3500 
L 1894 763 
L 2988 3500 
L 3597 3500 
L 2059 -325 
z
" transform="scale(0.015625)"/>
      <path id="DejaVuSans-2d" d="M 313 2009 
L 1997 2009 
L 1997 1497 
L 313 1497 
L 313 2009 
z
" transform="scale(0.015625)"/>
      <path id="DejaVuSans-61" d="M 2194 1759 
Q 1497 1759 1228 1600 
Q 959 1441 959 1056 
Q 959 750 1161 570 
Q 1363 391 1709 391 
Q 2188 391 2477 730 
Q 2766 1069 2766 1631 
L 2766 1759 
L 2194 1759 
z
M 3341 1997 
L 3341 0 
L 2766 0 
L 2766 531 
Q 2569 213 2275 61 
Q 1981 -91 1556 -91 
Q 1019 -91 701 211 
Q 384 513 384 1019 
Q 384 1609 779 1909 
Q 1175 2209 1959 2209 
L 2766 2209 
L 2766 2266 
Q 2766 2663 2505 2880 
Q 2244 3097 1772 3097 
Q 1472 3097 1187 3025 
Q 903 2953 641 2809 
L 641 3341 
Q 956 3463 1253 3523 
Q 1550 3584 1831 3584 
Q 2591 3584 2966 3190 
Q 3341 2797 3341 1997 
z
" transform="scale(0.015625)"/>
      <path id="DejaVuSans-78" d="M 3513 3500 
L 2247 1797 
L 3578 0 
L 2900 0 
L 1881 1375 
L 863 0 
L 184 0 
L 1544 1831 
L 300 3500 
L 978 3500 
L 1906 2253 
L 2834 3500 
L 3513 3500 
z
" transform="scale(0.015625)"/>
      <path id="DejaVuSans-29" d="M 513 4856 
L 1013 4856 
Q 1481 4119 1714 3412 
Q 1947 2706 1947 2009 
Q 1947 1309 1714 600 
Q 1481 -109 1013 -844 
L 513 -844 
Q 928 -128 1133 580 
Q 1338 1288 1338 2009 
Q 1338 2731 1133 3434 
Q 928 4138 513 4856 
z
" transform="scale(0.015625)"/>
      <path id="DejaVuSans-62" d="M 3116 1747 
Q 3116 2381 2855 2742 
Q 2594 3103 2138 3103 
Q 1681 3103 1420 2742 
Q 1159 2381 1159 1747 
Q 1159 1113 1420 752 
Q 1681 391 2138 391 
Q 2594 391 2855 752 
Q 3116 1113 3116 1747 
z
M 1159 2969 
Q 1341 3281 1617 3432 
Q 1894 3584 2278 3584 
Q 2916 3584 3314 3078 
Q 3713 2572 3713 1747 
Q 3713 922 3314 415 
Q 2916 -91 2278 -91 
Q 1894 -91 1617 61 
Q 1341 213 1159 525 
L 1159 0 
L 581 0 
L 581 4863 
L 1159 4863 
L 1159 2969 
z
" transform="scale(0.015625)"/>
      <path id="DejaVuSans-74" d="M 1172 4494 
L 1172 3500 
L 2356 3500 
L 2356 3053 
L 1172 3053 
L 1172 1153 
Q 1172 725 1289 603 
Q 1406 481 1766 481 
L 2356 481 
L 2356 0 
L 1766 0 
Q 1100 0 847 248 
Q 594 497 594 1153 
L 594 3053 
L 172 3053 
L 172 3500 
L 594 3500 
L 594 4494 
L 1172 4494 
z
" transform="scale(0.015625)"/>
      <path id="DejaVuSans-77" d="M 269 3500 
L 844 3500 
L 1563 769 
L 2278 3500 
L 2956 3500 
L 3675 769 
L 4391 3500 
L 4966 3500 
L 4050 0 
L 3372 0 
L 2619 2869 
L 1863 0 
L 1184 0 
L 269 3500 
z
" transform="scale(0.015625)"/>
      <path id="DejaVuSans-6e" d="M 3513 2113 
L 3513 0 
L 2938 0 
L 2938 2094 
Q 2938 2591 2744 2837 
Q 2550 3084 2163 3084 
Q 1697 3084 1428 2787 
Q 1159 2491 1159 1978 
L 1159 0 
L 581 0 
L 581 3500 
L 1159 3500 
L 1159 2956 
Q 1366 3272 1645 3428 
Q 1925 3584 2291 3584 
Q 2894 3584 3203 3211 
Q 3513 2838 3513 2113 
z
" transform="scale(0.015625)"/>
      <path id="DejaVuSans-53" d="M 3425 4513 
L 3425 3897 
Q 3066 4069 2747 4153 
Q 2428 4238 2131 4238 
Q 1616 4238 1336 4038 
Q 1056 3838 1056 3469 
Q 1056 3159 1242 3001 
Q 1428 2844 1947 2747 
L 2328 2669 
Q 3034 2534 3370 2195 
Q 3706 1856 3706 1288 
Q 3706 609 3251 259 
Q 2797 -91 1919 -91 
Q 1588 -91 1214 -16 
Q 841 59 441 206 
L 441 856 
Q 825 641 1194 531 
Q 1563 422 1919 422 
Q 2459 422 2753 634 
Q 3047 847 3047 1241 
Q 3047 1584 2836 1778 
Q 2625 1972 2144 2069 
L 1759 2144 
Q 1053 2284 737 2584 
Q 422 2884 422 3419 
Q 422 4038 858 4394 
Q 1294 4750 2059 4750 
Q 2388 4750 2728 4690 
Q 3069 4631 3425 4513 
z
" transform="scale(0.015625)"/>
      <path id="DejaVuSans-64" d="M 2906 2969 
L 2906 4863 
L 3481 4863 
L 3481 0 
L 2906 0 
L 2906 525 
Q 2725 213 2448 61 
Q 2172 -91 1784 -91 
Q 1150 -91 751 415 
Q 353 922 353 1747 
Q 353 2572 751 3078 
Q 1150 3584 1784 3584 
Q 2172 3584 2448 3432 
Q 2725 3281 2906 2969 
z
M 947 1747 
Q 947 1113 1208 752 
Q 1469 391 1925 391 
Q 2381 391 2643 752 
Q 2906 1113 2906 1747 
Q 2906 2381 2643 2742 
Q 2381 3103 1925 3103 
Q 1469 3103 1208 2742 
Q 947 2381 947 1747 
z
" transform="scale(0.015625)"/>
      <path id="DejaVuSans-6f" d="M 1959 3097 
Q 1497 3097 1228 2736 
Q 959 2375 959 1747 
Q 959 1119 1226 758 
Q 1494 397 1959 397 
Q 2419 397 2687 759 
Q 2956 1122 2956 1747 
Q 2956 2369 2687 2733 
Q 2419 3097 1959 3097 
z
M 1959 3584 
Q 2709 3584 3137 3096 
Q 3566 2609 3566 1747 
Q 3566 888 3137 398 
Q 2709 -91 1959 -91 
Q 1206 -91 779 398 
Q 353 888 353 1747 
Q 353 2609 779 3096 
Q 1206 3584 1959 3584 
z
" transform="scale(0.015625)"/>
      <path id="DejaVuSans-72" d="M 2631 2963 
Q 2534 3019 2420 3045 
Q 2306 3072 2169 3072 
Q 1681 3072 1420 2755 
Q 1159 2438 1159 1844 
L 1159 0 
L 581 0 
L 581 3500 
L 1159 3500 
L 1159 2956 
Q 1341 3275 1631 3429 
Q 1922 3584 2338 3584 
Q 2397 3584 2469 3576 
Q 2541 3569 2628 3553 
L 2631 2963 
z
" transform="scale(0.015625)"/>
      <path id="DejaVuSans-68" d="M 3513 2113 
L 3513 0 
L 2938 0 
L 2938 2094 
Q 2938 2591 2744 2837 
Q 2550 3084 2163 3084 
Q 1697 3084 1428 2787 
Q 1159 2491 1159 1978 
L 1159 0 
L 581 0 
L 581 4863 
L 1159 4863 
L 1159 2956 
Q 1366 3272 1645 3428 
Q 1925 3584 2291 3584 
Q 2894 3584 3203 3211 
Q 3513 2838 3513 2113 
z
" transform="scale(0.015625)"/>
      <path id="DejaVuSans-66" d="M 2375 4863 
L 2375 4384 
L 1825 4384 
Q 1516 4384 1395 4259 
Q 1275 4134 1275 3809 
L 1275 3500 
L 2222 3500 
L 2222 3053 
L 1275 3053 
L 1275 0 
L 697 0 
L 697 3053 
L 147 3053 
L 147 3500 
L 697 3500 
L 697 3744 
Q 697 4328 969 4595 
Q 1241 4863 1831 4863 
L 2375 4863 
z
" transform="scale(0.015625)"/>
      <path id="DejaVuSans-6c" d="M 603 4863 
L 1178 4863 
L 1178 0 
L 603 0 
L 603 4863 
z
" transform="scale(0.015625)"/>
      <path id="DejaVuSans-6d" d="M 3328 2828 
Q 3544 3216 3844 3400 
Q 4144 3584 4550 3584 
Q 5097 3584 5394 3201 
Q 5691 2819 5691 2113 
L 5691 0 
L 5113 0 
L 5113 2094 
Q 5113 2597 4934 2840 
Q 4756 3084 4391 3084 
Q 3944 3084 3684 2787 
Q 3425 2491 3425 1978 
L 3425 0 
L 2847 0 
L 2847 2094 
Q 2847 2600 2669 2842 
Q 2491 3084 2119 3084 
Q 1678 3084 1418 2786 
Q 1159 2488 1159 1978 
L 1159 0 
L 581 0 
L 581 3500 
L 1159 3500 
L 1159 2956 
Q 1356 3278 1631 3431 
Q 1906 3584 2284 3584 
Q 2666 3584 2933 3390 
Q 3200 3197 3328 2828 
z
" transform="scale(0.015625)"/>
     </defs>
     <use xlink:href="#DejaVuSans-51"/>
     <use xlink:href="#DejaVuSans-75" x="78.710938"/>
     <use xlink:href="#DejaVuSans-65" x="142.089844"/>
     <use xlink:href="#DejaVuSans-75" x="203.613281"/>
     <use xlink:href="#DejaVuSans-65" x="266.992188"/>
     <use xlink:href="#DejaVuSans-20" x="328.515625"/>
     <use xlink:href="#DejaVuSans-73" x="360.302734"/>
     <use xlink:href="#DejaVuSans-69" x="412.402344"/>
     <use xlink:href="#DejaVuSans-7a" x="440.185547"/>
     <use xlink:href="#DejaVuSans-65" x="492.675781"/>
     <use xlink:href="#DejaVuSans-20" x="554.199219"/>
     <use xlink:href="#DejaVuSans-28" x="585.986328"/>
     <use xlink:href="#DejaVuSans-79" x="625"/>
     <use xlink:href="#DejaVuSans-2d" x="682.429688"/>
     <use xlink:href="#DejaVuSans-61" x="718.513672"/>
     <use xlink:href="#DejaVuSans-78" x="779.792969"/>
     <use xlink:href="#DejaVuSans-69" x="838.972656"/>
     <use xlink:href="#DejaVuSans-73" x="866.755859"/>
     <use xlink:href="#DejaVuSans-29" x="918.855469"/>
     <use xlink:href="#DejaVuSans-20" x="957.869141"/>
     <use xlink:href="#DejaVuSans-62" x="989.65625"/>
     <use xlink:href="#DejaVuSans-65" x="1053.132812"/>
     <use xlink:href="#DejaVuSans-74" x="1114.65625"/>
     <use xlink:href="#DejaVuSans-77" x="1153.865234"/>
     <use xlink:href="#DejaVuSans-65" x="1235.652344"/>
     <use xlink:href="#DejaVuSans-65" x="1297.175781"/>
     <use xlink:href="#DejaVuSans-6e" x="1358.699219"/>
     <use xlink:href="#DejaVuSans-20" x="1422.078125"/>
     <use xlink:href="#DejaVuSans-53" x="1453.865234"/>
     <use xlink:href="#DejaVuSans-33" x="1517.341797"/>
     <use xlink:href="#DejaVuSans-20" x="1580.964844"/>
     <use xlink:href="#DejaVuSans-61" x="1612.751953"/>
     <use xlink:href="#DejaVuSans-6e" x="1674.03125"/>
     <use xlink:href="#DejaVuSans-64" x="1737.410156"/>
     <use xlink:href="#DejaVuSans-20" x="1800.886719"/>
     <use xlink:href="#DejaVuSans-73" x="1832.673828"/>
     <use xlink:href="#DejaVuSans-65" x="1884.773438"/>
     <use xlink:href="#DejaVuSans-6e" x="1946.296875"/>
     <use xlink:href="#DejaVuSans-73" x="2009.675781"/>
     <use xlink:href="#DejaVuSans-6f" x="2061.775391"/>
     <use xlink:href="#DejaVuSans-72" x="2122.957031"/>
     <use xlink:href="#DejaVuSans-73" x="2164.070312"/>
     <use xlink:href="#DejaVuSans-20" x="2216.169922"/>
     <use xlink:href="#DejaVuSans-74" x="2247.957031"/>
     <use xlink:href="#DejaVuSans-68" x="2287.166016"/>
     <use xlink:href="#DejaVuSans-61" x="2350.544922"/>
     <use xlink:href="#DejaVuSans-74" x="2411.824219"/>
     <use xlink:href="#DejaVuSans-20" x="2451.033203"/>
     <use xlink:href="#DejaVuSans-66" x="2482.820312"/>
     <use xlink:href="#DejaVuSans-6f" x="2518.025391"/>
     <use xlink:href="#DejaVuSans-6c" x="2579.207031"/>
     <use xlink:href="#DejaVuSans-6c" x="2606.990234"/>
     <use xlink:href="#DejaVuSans-6f" x="2634.773438"/>
     <use xlink:href="#DejaVuSans-77" x="2695.955078"/>
     <use xlink:href="#DejaVuSans-20" x="2777.742188"/>
     <use xlink:href="#DejaVuSans-61" x="2809.529297"/>
     <use xlink:href="#DejaVuSans-74" x="2870.808594"/>
     <use xlink:href="#DejaVuSans-20" x="2910.017578"/>
     <use xlink:href="#DejaVuSans-61" x="2941.804688"/>
     <use xlink:href="#DejaVuSans-20" x="3003.083984"/>
     <use xlink:href="#DejaVuSans-74" x="3034.871094"/>
     <use xlink:href="#DejaVuSans-69" x="3074.080078"/>
     <use xlink:href="#DejaVuSans-6d" x="3101.863281"/>
     <use xlink:href="#DejaVuSans-65" x="3199.275391"/>
     <use xlink:href="#DejaVuSans-20" x="3260.798828"/>
     <use xlink:href="#DejaVuSans-28" x="3292.585938"/>
     <use xlink:href="#DejaVuSans-78" x="3331.599609"/>
     <use xlink:href="#DejaVuSans-2d" x="3390.779297"/>
     <use xlink:href="#DejaVuSans-61" x="3426.863281"/>
     <use xlink:href="#DejaVuSans-78" x="3488.142578"/>
     <use xlink:href="#DejaVuSans-69" x="3547.322266"/>
     <use xlink:href="#DejaVuSans-73" x="3575.105469"/>
     <use xlink:href="#DejaVuSans-29" x="3627.205078"/>
     <use xlink:href="#DejaVuSans-2e" x="3666.21875"/>
    </g>
   </g>
  </g>
 </g>
 <defs>
  <clipPath id="pf10c882b20">
   <rect x="57.6" y="41.472" width="357.12" height="266.112"/>
  </clipPath>
 </defs>
</svg>
