<?xml version="1.0" encoding="utf-8" standalone="no"?>
<!DOCTYPE svg PUBLIC "-//W3C//DTD SVG 1.1//EN"
  "http://www.w3.org/Graphics/SVG/1.1/DTD/svg11.dtd">
<svg xmlns:xlink="http://www.w3.org/1999/xlink" width="460.8pt" height="345.6pt" viewBox="0 0 460.8 345.6" xmlns="http://www.w3.org/2000/svg" version="1.1">
 <metadata>
  <rdf:RDF xmlns:dc="http://purl.org/dc/elements/1.1/" xmlns:cc="http://creativecommons.org/ns#" xmlns:rdf="http://www.w3.org/1999/02/22-rdf-syntax-ns#">
   <cc:Work>
    <dc:type rdf:resource="http://purl.org/dc/dcmitype/StillImage"/>
    <dc:date>2024-03-08T13:16:23.161273</dc:date>
    <dc:format>image/svg+xml</dc:format>
    <dc:creator>
     <cc:Agent>
      <dc:title>Matplotlib v3.8.2, https://matplotlib.org/</dc:title>
     </cc:Agent>
    </dc:creator>
   </cc:Work>
  </rdf:RDF>
 </metadata>
 <defs>
  <style type="text/css">*{stroke-linejoin: round; stroke-linecap: butt}</style>
 </defs>
 <g id="figure_1">
  <g id="patch_1">
   <path d="M 0 345.6 
L 460.8 345.6 
L 460.8 0 
L 0 0 
z
" style="fill: #ffffff"/>
  </g>
  <g id="axes_1">
   <g id="patch_2">
    <path d="M 57.6 307.584 
L 414.72 307.584 
L 414.72 41.472 
L 57.6 41.472 
z
" style="fill: #ffffff"/>
   </g>
   <g id="matplotlib.axis_1">
    <g id="xtick_1">
     <g id="line2d_1">
      <defs>
       <path id="ma7402adc80" d="M 0 0 
L 0 3.5 
" style="stroke: #000000; stroke-width: 0.8"/>
      </defs>
      <g>
       <use xlink:href="#ma7402adc80" x="73.832727" y="307.584" style="stroke: #000000; stroke-width: 0.8"/>
      </g>
     </g>
     <g id="text_1">
      <!-- 0 -->
      <g transform="translate(70.651477 322.182437) scale(0.1 -0.1)">
       <defs>
        <path id="DejaVuSans-30" d="M 2034 4250 
Q 1547 4250 1301 3770 
Q 1056 3291 1056 2328 
Q 1056 1369 1301 889 
Q 1547 409 2034 409 
Q 2525 409 2770 889 
Q 3016 1369 3016 2328 
Q 3016 3291 2770 3770 
Q 2525 4250 2034 4250 
z
M 2034 4750 
Q 2819 4750 3233 4129 
Q 3647 3509 3647 2328 
Q 3647 1150 3233 529 
Q 2819 -91 2034 -91 
Q 1250 -91 836 529 
Q 422 1150 422 2328 
Q 422 3509 836 4129 
Q 1250 4750 2034 4750 
z
" transform="scale(0.015625)"/>
       </defs>
       <use xlink:href="#DejaVuSans-30"/>
      </g>
     </g>
    </g>
    <g id="xtick_2">
     <g id="line2d_2">
      <g>
       <use xlink:href="#ma7402adc80" x="118.951209" y="307.584" style="stroke: #000000; stroke-width: 0.8"/>
      </g>
     </g>
     <g id="text_2">
      <!-- 50000 -->
      <g transform="translate(103.044959 322.182437) scale(0.1 -0.1)">
       <defs>
        <path id="DejaVuSans-35" d="M 691 4666 
L 3169 4666 
L 3169 4134 
L 1269 4134 
L 1269 2991 
Q 1406 3038 1543 3061 
Q 1681 3084 1819 3084 
Q 2600 3084 3056 2656 
Q 3513 2228 3513 1497 
Q 3513 744 3044 326 
Q 2575 -91 1722 -91 
Q 1428 -91 1123 -41 
Q 819 9 494 109 
L 494 744 
Q 775 591 1075 516 
Q 1375 441 1709 441 
Q 2250 441 2565 725 
Q 2881 1009 2881 1497 
Q 2881 1984 2565 2268 
Q 2250 2553 1709 2553 
Q 1456 2553 1204 2497 
Q 953 2441 691 2322 
L 691 4666 
z
" transform="scale(0.015625)"/>
       </defs>
       <use xlink:href="#DejaVuSans-35"/>
       <use xlink:href="#DejaVuSans-30" x="63.623047"/>
       <use xlink:href="#DejaVuSans-30" x="127.246094"/>
       <use xlink:href="#DejaVuSans-30" x="190.869141"/>
       <use xlink:href="#DejaVuSans-30" x="254.492188"/>
      </g>
     </g>
    </g>
    <g id="xtick_3">
     <g id="line2d_3">
      <g>
       <use xlink:href="#ma7402adc80" x="164.06969" y="307.584" style="stroke: #000000; stroke-width: 0.8"/>
      </g>
     </g>
     <g id="text_3">
      <!-- 100000 -->
      <g transform="translate(144.98219 322.182437) scale(0.1 -0.1)">
       <defs>
        <path id="DejaVuSans-31" d="M 794 531 
L 1825 531 
L 1825 4091 
L 703 3866 
L 703 4441 
L 1819 4666 
L 2450 4666 
L 2450 531 
L 3481 531 
L 3481 0 
L 794 0 
L 794 531 
z
" transform="scale(0.015625)"/>
       </defs>
       <use xlink:href="#DejaVuSans-31"/>
       <use xlink:href="#DejaVuSans-30" x="63.623047"/>
       <use xlink:href="#DejaVuSans-30" x="127.246094"/>
       <use xlink:href="#DejaVuSans-30" x="190.869141"/>
       <use xlink:href="#DejaVuSans-30" x="254.492188"/>
       <use xlink:href="#DejaVuSans-30" x="318.115234"/>
      </g>
     </g>
    </g>
    <g id="xtick_4">
     <g id="line2d_4">
      <g>
       <use xlink:href="#ma7402adc80" x="209.188172" y="307.584" style="stroke: #000000; stroke-width: 0.8"/>
      </g>
     </g>
     <g id="text_4">
      <!-- 150000 -->
      <g transform="translate(190.100672 322.182437) scale(0.1 -0.1)">
       <use xlink:href="#DejaVuSans-31"/>
       <use xlink:href="#DejaVuSans-35" x="63.623047"/>
       <use xlink:href="#DejaVuSans-30" x="127.246094"/>
       <use xlink:href="#DejaVuSans-30" x="190.869141"/>
       <use xlink:href="#DejaVuSans-30" x="254.492188"/>
       <use xlink:href="#DejaVuSans-30" x="318.115234"/>
      </g>
     </g>
    </g>
    <g id="xtick_5">
     <g id="line2d_5">
      <g>
       <use xlink:href="#ma7402adc80" x="254.306653" y="307.584" style="stroke: #000000; stroke-width: 0.8"/>
      </g>
     </g>
     <g id="text_5">
      <!-- 200000 -->
      <g transform="translate(235.219153 322.182437) scale(0.1 -0.1)">
       <defs>
        <path id="DejaVuSans-32" d="M 1228 531 
L 3431 531 
L 3431 0 
L 469 0 
L 469 531 
Q 828 903 1448 1529 
Q 2069 2156 2228 2338 
Q 2531 2678 2651 2914 
Q 2772 3150 2772 3378 
Q 2772 3750 2511 3984 
Q 2250 4219 1831 4219 
Q 1534 4219 1204 4116 
Q 875 4013 500 3803 
L 500 4441 
Q 881 4594 1212 4672 
Q 1544 4750 1819 4750 
Q 2544 4750 2975 4387 
Q 3406 4025 3406 3419 
Q 3406 3131 3298 2873 
Q 3191 2616 2906 2266 
Q 2828 2175 2409 1742 
Q 1991 1309 1228 531 
z
" transform="scale(0.015625)"/>
       </defs>
       <use xlink:href="#DejaVuSans-32"/>
       <use xlink:href="#DejaVuSans-30" x="63.623047"/>
       <use xlink:href="#DejaVuSans-30" x="127.246094"/>
       <use xlink:href="#DejaVuSans-30" x="190.869141"/>
       <use xlink:href="#DejaVuSans-30" x="254.492188"/>
       <use xlink:href="#DejaVuSans-30" x="318.115234"/>
      </g>
     </g>
    </g>
    <g id="xtick_6">
     <g id="line2d_6">
      <g>
       <use xlink:href="#ma7402adc80" x="299.425135" y="307.584" style="stroke: #000000; stroke-width: 0.8"/>
      </g>
     </g>
     <g id="text_6">
      <!-- 250000 -->
      <g transform="translate(280.337635 322.182437) scale(0.1 -0.1)">
       <use xlink:href="#DejaVuSans-32"/>
       <use xlink:href="#DejaVuSans-35" x="63.623047"/>
       <use xlink:href="#DejaVuSans-30" x="127.246094"/>
       <use xlink:href="#DejaVuSans-30" x="190.869141"/>
       <use xlink:href="#DejaVuSans-30" x="254.492188"/>
       <use xlink:href="#DejaVuSans-30" x="318.115234"/>
      </g>
     </g>
    </g>
    <g id="xtick_7">
     <g id="line2d_7">
      <g>
       <use xlink:href="#ma7402adc80" x="344.543616" y="307.584" style="stroke: #000000; stroke-width: 0.8"/>
      </g>
     </g>
     <g id="text_7">
      <!-- 300000 -->
      <g transform="translate(325.456116 322.182437) scale(0.1 -0.1)">
       <defs>
        <path id="DejaVuSans-33" d="M 2597 2516 
Q 3050 2419 3304 2112 
Q 3559 1806 3559 1356 
Q 3559 666 3084 287 
Q 2609 -91 1734 -91 
Q 1441 -91 1130 -33 
Q 819 25 488 141 
L 488 750 
Q 750 597 1062 519 
Q 1375 441 1716 441 
Q 2309 441 2620 675 
Q 2931 909 2931 1356 
Q 2931 1769 2642 2001 
Q 2353 2234 1838 2234 
L 1294 2234 
L 1294 2753 
L 1863 2753 
Q 2328 2753 2575 2939 
Q 2822 3125 2822 3475 
Q 2822 3834 2567 4026 
Q 2313 4219 1838 4219 
Q 1578 4219 1281 4162 
Q 984 4106 628 3988 
L 628 4550 
Q 988 4650 1302 4700 
Q 1616 4750 1894 4750 
Q 2613 4750 3031 4423 
Q 3450 4097 3450 3541 
Q 3450 3153 3228 2886 
Q 3006 2619 2597 2516 
z
" transform="scale(0.015625)"/>
       </defs>
       <use xlink:href="#DejaVuSans-33"/>
       <use xlink:href="#DejaVuSans-30" x="63.623047"/>
       <use xlink:href="#DejaVuSans-30" x="127.246094"/>
       <use xlink:href="#DejaVuSans-30" x="190.869141"/>
       <use xlink:href="#DejaVuSans-30" x="254.492188"/>
       <use xlink:href="#DejaVuSans-30" x="318.115234"/>
      </g>
     </g>
    </g>
    <g id="xtick_8">
     <g id="line2d_8">
      <g>
       <use xlink:href="#ma7402adc80" x="389.662098" y="307.584" style="stroke: #000000; stroke-width: 0.8"/>
      </g>
     </g>
     <g id="text_8">
      <!-- 350000 -->
      <g transform="translate(370.574598 322.182437) scale(0.1 -0.1)">
       <use xlink:href="#DejaVuSans-33"/>
       <use xlink:href="#DejaVuSans-35" x="63.623047"/>
       <use xlink:href="#DejaVuSans-30" x="127.246094"/>
       <use xlink:href="#DejaVuSans-30" x="190.869141"/>
       <use xlink:href="#DejaVuSans-30" x="254.492188"/>
       <use xlink:href="#DejaVuSans-30" x="318.115234"/>
      </g>
     </g>
    </g>
   </g>
   <g id="matplotlib.axis_2">
    <g id="ytick_1">
     <g id="line2d_9">
      <defs>
       <path id="m2e27073423" d="M 0 0 
L -3.5 0 
" style="stroke: #000000; stroke-width: 0.8"/>
      </defs>
      <g>
       <use xlink:href="#m2e27073423" x="57.6" y="295.488" style="stroke: #000000; stroke-width: 0.8"/>
      </g>
     </g>
     <g id="text_9">
      <!-- 0.0 -->
      <g transform="translate(34.696875 299.287219) scale(0.1 -0.1)">
       <defs>
        <path id="DejaVuSans-2e" d="M 684 794 
L 1344 794 
L 1344 0 
L 684 0 
L 684 794 
z
" transform="scale(0.015625)"/>
       </defs>
       <use xlink:href="#DejaVuSans-30"/>
       <use xlink:href="#DejaVuSans-2e" x="63.623047"/>
       <use xlink:href="#DejaVuSans-30" x="95.410156"/>
      </g>
     </g>
    </g>
    <g id="ytick_2">
     <g id="line2d_10">
      <g>
       <use xlink:href="#m2e27073423" x="57.6" y="247.104" style="stroke: #000000; stroke-width: 0.8"/>
      </g>
     </g>
     <g id="text_10">
      <!-- 0.2 -->
      <g transform="translate(34.696875 250.903219) scale(0.1 -0.1)">
       <use xlink:href="#DejaVuSans-30"/>
       <use xlink:href="#DejaVuSans-2e" x="63.623047"/>
       <use xlink:href="#DejaVuSans-32" x="95.410156"/>
      </g>
     </g>
    </g>
    <g id="ytick_3">
     <g id="line2d_11">
      <g>
       <use xlink:href="#m2e27073423" x="57.6" y="198.72" style="stroke: #000000; stroke-width: 0.8"/>
      </g>
     </g>
     <g id="text_11">
      <!-- 0.4 -->
      <g transform="translate(34.696875 202.519219) scale(0.1 -0.1)">
       <defs>
        <path id="DejaVuSans-34" d="M 2419 4116 
L 825 1625 
L 2419 1625 
L 2419 4116 
z
M 2253 4666 
L 3047 4666 
L 3047 1625 
L 3713 1625 
L 3713 1100 
L 3047 1100 
L 3047 0 
L 2419 0 
L 2419 1100 
L 313 1100 
L 313 1709 
L 2253 4666 
z
" transform="scale(0.015625)"/>
       </defs>
       <use xlink:href="#DejaVuSans-30"/>
       <use xlink:href="#DejaVuSans-2e" x="63.623047"/>
       <use xlink:href="#DejaVuSans-34" x="95.410156"/>
      </g>
     </g>
    </g>
    <g id="ytick_4">
     <g id="line2d_12">
      <g>
       <use xlink:href="#m2e27073423" x="57.6" y="150.336" style="stroke: #000000; stroke-width: 0.8"/>
      </g>
     </g>
     <g id="text_12">
      <!-- 0.6 -->
      <g transform="translate(34.696875 154.135219) scale(0.1 -0.1)">
       <defs>
        <path id="DejaVuSans-36" d="M 2113 2584 
Q 1688 2584 1439 2293 
Q 1191 2003 1191 1497 
Q 1191 994 1439 701 
Q 1688 409 2113 409 
Q 2538 409 2786 701 
Q 3034 994 3034 1497 
Q 3034 2003 2786 2293 
Q 2538 2584 2113 2584 
z
M 3366 4563 
L 3366 3988 
Q 3128 4100 2886 4159 
Q 2644 4219 2406 4219 
Q 1781 4219 1451 3797 
Q 1122 3375 1075 2522 
Q 1259 2794 1537 2939 
Q 1816 3084 2150 3084 
Q 2853 3084 3261 2657 
Q 3669 2231 3669 1497 
Q 3669 778 3244 343 
Q 2819 -91 2113 -91 
Q 1303 -91 875 529 
Q 447 1150 447 2328 
Q 447 3434 972 4092 
Q 1497 4750 2381 4750 
Q 2619 4750 2861 4703 
Q 3103 4656 3366 4563 
z
" transform="scale(0.015625)"/>
       </defs>
       <use xlink:href="#DejaVuSans-30"/>
       <use xlink:href="#DejaVuSans-2e" x="63.623047"/>
       <use xlink:href="#DejaVuSans-36" x="95.410156"/>
      </g>
     </g>
    </g>
    <g id="ytick_5">
     <g id="line2d_13">
      <g>
       <use xlink:href="#m2e27073423" x="57.6" y="101.952" style="stroke: #000000; stroke-width: 0.8"/>
      </g>
     </g>
     <g id="text_13">
      <!-- 0.8 -->
      <g transform="translate(34.696875 105.751219) scale(0.1 -0.1)">
       <defs>
        <path id="DejaVuSans-38" d="M 2034 2216 
Q 1584 2216 1326 1975 
Q 1069 1734 1069 1313 
Q 1069 891 1326 650 
Q 1584 409 2034 409 
Q 2484 409 2743 651 
Q 3003 894 3003 1313 
Q 3003 1734 2745 1975 
Q 2488 2216 2034 2216 
z
M 1403 2484 
Q 997 2584 770 2862 
Q 544 3141 544 3541 
Q 544 4100 942 4425 
Q 1341 4750 2034 4750 
Q 2731 4750 3128 4425 
Q 3525 4100 3525 3541 
Q 3525 3141 3298 2862 
Q 3072 2584 2669 2484 
Q 3125 2378 3379 2068 
Q 3634 1759 3634 1313 
Q 3634 634 3220 271 
Q 2806 -91 2034 -91 
Q 1263 -91 848 271 
Q 434 634 434 1313 
Q 434 1759 690 2068 
Q 947 2378 1403 2484 
z
M 1172 3481 
Q 1172 3119 1398 2916 
Q 1625 2713 2034 2713 
Q 2441 2713 2670 2916 
Q 2900 3119 2900 3481 
Q 2900 3844 2670 4047 
Q 2441 4250 2034 4250 
Q 1625 4250 1398 4047 
Q 1172 3844 1172 3481 
z
" transform="scale(0.015625)"/>
       </defs>
       <use xlink:href="#DejaVuSans-30"/>
       <use xlink:href="#DejaVuSans-2e" x="63.623047"/>
       <use xlink:href="#DejaVuSans-38" x="95.410156"/>
      </g>
     </g>
    </g>
    <g id="ytick_6">
     <g id="line2d_14">
      <g>
       <use xlink:href="#m2e27073423" x="57.6" y="53.568" style="stroke: #000000; stroke-width: 0.8"/>
      </g>
     </g>
     <g id="text_14">
      <!-- 1.0 -->
      <g transform="translate(34.696875 57.367219) scale(0.1 -0.1)">
       <use xlink:href="#DejaVuSans-31"/>
       <use xlink:href="#DejaVuSans-2e" x="63.623047"/>
       <use xlink:href="#DejaVuSans-30" x="95.410156"/>
      </g>
     </g>
    </g>
   </g>
   <g id="line2d_15">
    <path d="M 73.832727 295.488 
L 135.72626 295.488 
L 135.72626 294.934407 
L 137.530999 294.934407 
L 137.530999 294.380815 
L 139.317691 294.380815 
L 139.317691 293.827222 
L 141.149502 293.827222 
L 141.149502 293.273629 
L 142.566222 293.273629 
L 142.566222 292.720037 
L 142.954241 292.720037 
L 142.954241 292.166444 
L 143.829539 292.166444 
L 143.829539 291.612851 
L 144.740933 291.612851 
L 144.740933 291.059259 
L 145.66135 291.059259 
L 145.66135 290.505666 
L 146.121558 290.505666 
L 146.121558 289.952073 
L 148.341388 289.952073 
L 148.377482 288.844888 
L 148.864762 288.844888 
L 148.864762 288.291295 
L 150.624383 288.291295 
L 150.624383 287.737703 
L 151.571871 287.737703 
L 151.571871 287.18411 
L 152.041103 287.18411 
L 152.041103 286.630517 
L 154.79333 286.630517 
L 154.79333 286.076924 
L 155.172326 286.076924 
L 155.181349 284.969739 
L 157.464345 284.969739 
L 157.464345 284.416146 
L 157.897482 284.416146 
L 157.9426 283.308961 
L 158.357691 283.308961 
L 158.357691 282.755368 
L 159.702221 282.755368 
L 159.702221 282.201776 
L 161.037728 282.201776 
L 161.100894 281.09459 
L 161.326487 281.09459 
L 161.326487 280.540998 
L 161.904003 280.540998 
L 161.904003 279.987405 
L 164.114809 279.987405 
L 164.177975 278.88022 
L 164.286259 278.88022 
L 164.394543 277.219442 
L 164.48478 277.219442 
L 164.48478 276.665849 
L 164.944989 276.665849 
L 164.944989 276.112256 
L 166.424875 276.112256 
L 166.424875 275.558664 
L 167.363339 275.558664 
L 167.417482 274.451478 
L 167.498695 274.451478 
L 167.498695 273.897886 
L 167.616003 273.897886 
L 167.661121 272.7907 
L 168.067188 272.7907 
L 168.067188 272.237108 
L 168.716894 272.237108 
L 168.716894 271.683515 
L 170.548704 271.683515 
L 170.566752 270.57633 
L 170.693083 270.57633 
L 170.756249 269.469144 
L 170.846486 269.469144 
L 170.945747 268.361959 
L 173.210695 268.361959 
L 173.210695 267.808366 
L 173.688951 267.808366 
L 173.770164 266.701181 
L 173.950638 266.701181 
L 174.058922 265.040403 
L 175.529785 265.040403 
L 175.529785 264.48681 
L 176.242657 264.48681 
L 176.242657 263.933217 
L 176.802126 263.933217 
L 176.802126 263.379625 
L 176.919434 263.379625 
L 176.9826 262.272439 
L 177.045766 262.272439 
L 177.045766 261.718847 
L 177.298429 261.718847 
L 177.298429 261.165254 
L 177.785709 261.165254 
L 177.785709 260.611661 
L 178.525652 260.611661 
L 178.525652 260.058069 
L 179.978467 260.058069 
L 179.987491 258.397291 
L 179.987491 258.397291 
L 180.095775 258.397291 
L 180.122846 256.736513 
L 180.23113 256.736513 
L 180.23113 256.18292 
L 180.402581 256.18292 
L 180.402581 255.629327 
L 180.781576 255.629327 
L 180.781576 255.075735 
L 182.261462 255.075735 
L 182.261462 254.522142 
L 183.028476 254.522142 
L 183.127737 253.414957 
L 183.145784 253.414957 
L 183.145784 252.861364 
L 183.28114 252.861364 
L 183.353329 250.646993 
L 184.517386 250.646993 
L 184.517386 250.0934 
L 185.311471 250.0934 
L 185.311471 249.539808 
L 185.753632 249.539808 
L 185.753632 248.986215 
L 186.240912 248.986215 
L 186.277007 247.87903 
L 186.385291 247.87903 
L 186.394315 246.771844 
L 186.77331 246.771844 
L 186.77331 246.218252 
L 187.044021 246.218252 
L 187.044021 245.664659 
L 187.585443 245.664659 
L 187.585443 245.111066 
L 188.893879 245.111066 
L 188.893879 244.557474 
L 189.011187 244.557474 
L 189.011187 244.003881 
L 189.462372 244.003881 
L 189.561632 242.896696 
L 189.850391 242.896696 
L 189.850391 242.343103 
L 190.184267 242.343103 
L 190.184267 241.78951 
L 192.016078 241.78951 
L 192.106315 240.682325 
L 192.539452 240.682325 
L 192.539452 240.128732 
L 193.414751 240.128732 
L 193.414751 239.57514 
L 194.407357 239.57514 
L 194.407357 239.021547 
L 195.165348 239.021547 
L 195.273632 237.360769 
L 195.273632 237.360769 
L 195.697746 237.360769 
L 195.697746 236.807176 
L 196.545973 236.807176 
L 196.618163 235.699991 
L 196.95204 235.699991 
L 196.95204 235.146398 
L 197.556627 235.146398 
L 197.556627 234.592805 
L 198.29657 234.592805 
L 198.29657 234.039213 
L 198.440949 234.039213 
L 198.440949 233.48562 
L 198.78385 233.48562 
L 198.78385 232.932027 
L 199.623054 232.932027 
L 199.623054 232.378435 
L 199.794504 232.378435 
L 199.794504 231.824842 
L 200.083262 231.824842 
L 200.083262 231.271249 
L 200.994656 231.271249 
L 201.012703 230.164064 
L 201.454864 230.164064 
L 201.454864 229.610471 
L 201.572172 229.610471 
L 201.572172 229.056879 
L 202.014333 229.056879 
L 202.014333 228.503286 
L 203.151319 228.503286 
L 203.232532 227.396101 
L 204.189044 227.396101 
L 204.234162 226.288915 
L 204.766561 226.288915 
L 204.766561 225.735323 
L 205.524551 225.735323 
L 205.524551 225.18173 
L 206.372779 225.18173 
L 206.372779 224.628137 
L 206.508134 224.628137 
L 206.508134 224.074545 
L 206.9142 224.074545 
L 206.9142 223.520952 
L 207.338314 223.520952 
L 207.338314 222.967359 
L 207.735357 222.967359 
L 207.735357 222.413767 
L 207.942902 222.413767 
L 207.942902 221.860174 
L 208.764058 221.860174 
L 208.764058 221.306581 
L 209.630333 221.306581 
L 209.630333 220.752989 
L 209.955186 220.752989 
L 209.955186 220.199396 
L 210.072494 220.199396 
L 210.072494 219.645803 
L 210.334181 219.645803 
L 210.334181 219.092211 
L 210.595868 219.092211 
L 210.686105 217.431432 
L 211.029006 217.431432 
L 211.029006 216.324247 
L 211.029006 216.324247 
L 211.940399 216.324247 
L 211.940399 215.770654 
L 212.193063 215.770654 
L 212.193063 215.217062 
L 212.635224 215.217062 
L 212.734484 214.109876 
L 212.851792 214.109876 
L 212.851792 213.556284 
L 213.203717 213.556284 
L 213.203717 213.002691 
L 213.754162 213.002691 
L 213.754162 212.449098 
L 213.916589 212.449098 
L 213.916589 211.895506 
L 214.223394 211.895506 
L 214.223394 211.341913 
L 214.412892 211.341913 
L 214.412892 210.78832 
L 214.909195 210.78832 
L 214.909195 210.234728 
L 215.152835 210.234728 
L 215.152835 209.681135 
L 216.36201 209.681135 
L 216.36201 209.127542 
L 216.488342 209.127542 
L 216.488342 208.57395 
L 216.67784 208.57395 
L 216.67784 208.020357 
L 216.894408 208.020357 
L 216.894408 207.466764 
L 217.120001 207.466764 
L 217.228285 206.359579 
L 217.372664 206.359579 
L 217.372664 205.805986 
L 218.726219 205.805986 
L 218.726219 205.252394 
L 218.942787 205.252394 
L 219.005953 204.145208 
L 219.421043 204.145208 
L 219.51128 202.48443 
L 219.646636 202.48443 
L 219.646636 201.930838 
L 220.133915 201.930838 
L 220.133915 201.377245 
L 220.296342 201.377245 
L 220.296342 200.823652 
L 220.991167 200.823652 
L 220.991167 200.270059 
L 221.234806 200.270059 
L 221.234806 199.716467 
L 221.41528 199.716467 
L 221.41528 199.162874 
L 221.722086 199.162874 
L 221.722086 198.609281 
L 221.893536 198.609281 
L 221.893536 198.055689 
L 222.110105 198.055689 
L 222.110105 197.502096 
L 222.281555 197.502096 
L 222.281555 196.948503 
L 222.588361 196.948503 
L 222.588361 196.394911 
L 222.90419 196.394911 
L 222.90419 195.841318 
L 223.183925 195.841318 
L 223.229043 194.18054 
L 223.454636 194.18054 
L 223.472683 193.073355 
L 223.90582 193.073355 
L 223.90582 192.519762 
L 224.023128 192.519762 
L 224.104342 191.412577 
L 224.573574 191.412577 
L 224.573574 190.858984 
L 224.952569 190.858984 
L 224.952569 190.305391 
L 225.214256 190.305391 
L 225.313517 189.198206 
L 225.521062 189.198206 
L 225.521062 188.644613 
L 225.728607 188.644613 
L 225.755678 186.983835 
L 226.315147 186.983835 
L 226.351242 185.323057 
L 226.432455 185.323057 
L 226.432455 184.769465 
L 226.567811 184.769465 
L 226.567811 184.215872 
L 226.775356 184.215872 
L 226.78438 183.108686 
L 227.506275 183.108686 
L 227.578465 182.001501 
L 227.767962 182.001501 
L 227.767962 181.447908 
L 227.966484 181.447908 
L 227.966484 180.894316 
L 228.462787 180.894316 
L 228.462787 180.340723 
L 228.589119 180.340723 
L 228.61619 179.233538 
L 228.932019 179.233538 
L 228.932019 178.679945 
L 229.094446 178.679945 
L 229.094446 178.126352 
L 229.392228 178.126352 
L 229.437346 177.019167 
L 229.762199 177.019167 
L 229.762199 176.465574 
L 230.059981 176.465574 
L 230.059981 175.911982 
L 230.267526 175.911982 
L 230.267526 175.358389 
L 230.384834 175.358389 
L 230.402882 174.251204 
L 230.872114 174.251204 
L 230.872114 173.697611 
L 231.169896 173.697611 
L 231.169896 173.144018 
L 231.314275 173.144018 
L 231.314275 172.590426 
L 231.612057 172.590426 
L 231.612057 172.036833 
L 231.963981 172.036833 
L 231.963981 171.48324 
L 232.171526 171.48324 
L 232.189574 170.376055 
L 232.297858 170.376055 
L 232.297858 169.822462 
L 232.586616 169.822462 
L 232.59564 168.715277 
L 232.983659 168.715277 
L 232.983659 168.161684 
L 233.146085 168.161684 
L 233.146085 167.608092 
L 233.570199 167.608092 
L 233.570199 167.054499 
L 233.994313 167.054499 
L 233.994313 166.500906 
L 234.283071 166.500906 
L 234.283071 165.947314 
L 234.526711 165.947314 
L 234.526711 165.393721 
L 234.815469 165.393721 
L 234.84254 164.286535 
L 235.383962 164.286535 
L 235.383962 163.732943 
L 235.681744 163.732943 
L 235.681744 163.17935 
L 235.8171 163.17935 
L 235.8171 162.072165 
L 235.8171 162.072165 
L 236.529972 162.072165 
L 236.629232 160.964979 
L 236.719469 160.964979 
L 236.719469 160.411387 
L 237.143583 160.411387 
L 237.143583 159.857794 
L 237.630862 159.857794 
L 237.64891 158.750609 
L 238.118142 158.750609 
L 238.199355 157.643423 
L 238.433971 157.643423 
L 238.433971 157.089831 
L 238.785896 157.089831 
L 238.785896 155.982645 
L 238.785896 155.982645 
L 238.993441 155.982645 
L 238.993441 155.429053 
L 239.390483 155.429053 
L 239.408531 154.321867 
L 240.229687 154.321867 
L 240.229687 153.768275 
L 240.419185 153.768275 
L 240.419185 153.214682 
L 241.032796 153.214682 
L 241.068891 152.107497 
L 241.195223 152.107497 
L 241.258388 150.446719 
L 241.321554 150.446719 
L 241.321554 149.893126 
L 241.655431 149.893126 
L 241.655431 149.339533 
L 241.980284 149.339533 
L 242.088568 147.678755 
L 242.729251 147.678755 
L 242.729251 147.125162 
L 242.981914 147.125162 
L 243.018009 146.017977 
L 243.270673 146.017977 
L 243.270673 145.464384 
L 243.469194 145.464384 
L 243.469194 144.910792 
L 243.812094 144.910792 
L 243.902331 143.803606 
L 244.335469 143.803606 
L 244.425706 142.696421 
L 244.813725 142.696421 
L 244.813725 142.142828 
L 244.958104 142.142828 
L 244.958104 141.589236 
L 245.156625 141.589236 
L 245.156625 141.035643 
L 245.571715 141.035643 
L 245.571715 140.48205 
L 245.842426 140.48205 
L 245.842426 139.928458 
L 246.19435 139.928458 
L 246.19435 139.374865 
L 246.582369 139.374865 
L 246.645535 138.26768 
L 247.141838 138.26768 
L 247.141838 137.714087 
L 247.620094 137.714087 
L 247.620094 137.160494 
L 247.836663 137.160494 
L 247.836663 136.606902 
L 248.125421 136.606902 
L 248.125421 136.053309 
L 248.314919 136.053309 
L 248.314919 135.499716 
L 248.441251 135.499716 
L 248.441251 134.946124 
L 249.009744 134.946124 
L 249.009744 134.392531 
L 249.397762 134.392531 
L 249.397762 133.838938 
L 250.227943 133.838938 
L 250.227943 133.285346 
L 250.814483 133.285346 
L 250.814483 132.731753 
L 251.202502 132.731753 
L 251.202502 132.17816 
L 252.005611 132.17816 
L 252.005611 131.624568 
L 252.140966 131.624568 
L 252.140966 131.070975 
L 252.583127 131.070975 
L 252.583127 130.517382 
L 252.727506 130.517382 
L 252.727506 129.963789 
L 253.774255 129.963789 
L 253.774255 129.410197 
L 253.936682 129.410197 
L 253.936682 128.856604 
L 254.360795 128.856604 
L 254.360795 128.303011 
L 254.866122 128.303011 
L 254.866122 127.749419 
L 255.308284 127.749419 
L 255.308284 127.195826 
L 255.569971 127.195826 
L 255.569971 126.642233 
L 255.831658 126.642233 
L 255.831658 126.088641 
L 257.185212 126.088641 
L 257.185212 125.535048 
L 257.365686 125.535048 
L 257.365686 124.981455 
L 257.519089 124.981455 
L 257.519089 124.427863 
L 258.944833 124.427863 
L 258.944833 123.87427 
L 259.170426 123.87427 
L 259.170426 123.320677 
L 260.307411 123.320677 
L 260.307411 122.767085 
L 260.704454 122.767085 
L 260.704454 122.213492 
L 261.01126 122.213492 
L 261.01126 121.659899 
L 262.166293 121.659899 
L 262.166293 121.106307 
L 263.420587 121.106307 
L 263.420587 120.552714 
L 263.871771 120.552714 
L 263.871771 119.999121 
L 265.261421 119.999121 
L 265.261421 119.445529 
L 265.739676 119.445529 
L 265.739676 118.891936 
L 267.06616 118.891936 
L 267.06616 118.338343 
L 268.410691 118.338343 
L 268.410691 117.784751 
L 268.916018 117.784751 
L 268.916018 117.231158 
L 269.755221 117.231158 
L 269.755221 116.677565 
L 270.179335 116.677565 
L 270.179335 116.123973 
L 272.065288 116.123973 
L 272.065288 115.57038 
L 272.859373 115.57038 
L 272.859373 115.016787 
L 275.214558 115.016787 
L 275.214558 114.463195 
L 275.963524 114.463195 
L 275.963524 113.909602 
L 278.336757 113.909602 
L 278.41797 112.802416 
L 279.058652 112.802416 
L 279.058652 112.248824 
L 281.504074 112.248824 
L 281.56724 111.141638 
L 284.743581 111.141638 
L 284.743581 110.588046 
L 287.838709 110.588046 
L 287.838709 110.034453 
L 290.103656 110.034453 
L 290.103656 109.48086 
L 291.006026 109.48086 
L 291.006026 108.927268 
L 291.917419 108.927268 
L 291.917419 108.373675 
L 293.731182 108.373675 
L 293.731182 107.820082 
L 294.110178 107.820082 
L 294.110178 107.26649 
L 295.084737 107.26649 
L 295.084737 106.712897 
L 295.562993 106.712897 
L 295.562993 106.159304 
L 296.8985 106.159304 
L 296.8985 105.605712 
L 297.277495 105.605712 
L 297.349685 104.498526 
L 298.712263 104.498526 
L 298.712263 103.944934 
L 299.163448 103.944934 
L 299.163448 103.391341 
L 300.453836 103.391341 
L 300.553097 102.284156 
L 301.013305 102.284156 
L 301.013305 101.730563 
L 302.809021 101.730563 
L 302.809021 101.17697 
L 304.595713 101.17697 
L 304.595713 100.623378 
L 306.391428 100.623378 
L 306.391428 100.069785 
L 306.562879 100.069785 
L 306.562879 99.516192 
L 308.241286 99.516192 
L 308.241286 98.9626 
L 308.800755 98.9626 
L 308.800755 98.409007 
L 310.037002 98.409007 
L 310.037002 97.855414 
L 311.08375 97.855414 
L 311.08375 97.301822 
L 313.339674 97.301822 
L 313.339674 96.748229 
L 315.586575 96.748229 
L 315.586575 96.194636 
L 317.824452 96.194636 
L 317.824452 95.641043 
L 320.044281 95.641043 
L 320.044281 95.087451 
L 322.255086 95.087451 
L 322.255086 94.533858 
L 324.520034 94.533858 
L 324.520034 93.980265 
L 326.8301 93.980265 
L 326.8301 93.426673 
L 329.077001 93.426673 
L 329.077001 92.87308 
L 331.341949 92.87308 
L 331.341949 92.319487 
L 333.661039 92.319487 
L 333.661039 91.765895 
L 335.953057 91.765895 
L 335.953057 91.212302 
L 338.236053 91.212302 
L 338.236053 90.658709 
L 338.353361 90.658709 
L 338.353361 90.105117 
L 340.149076 90.105117 
L 340.149076 89.551524 
L 341.980887 89.551524 
L 341.980887 88.997931 
L 342.269645 88.997931 
L 342.269645 88.444339 
L 343.632223 88.444339 
L 343.632223 87.890746 
L 343.776602 87.890746 
L 343.776602 87.337153 
L 344.029266 87.337153 
L 344.029266 86.783561 
L 345.608412 86.783561 
L 345.608412 86.229968 
L 345.824981 86.229968 
L 345.924242 85.122783 
L 347.404128 85.122783 
L 347.404128 84.56919 
L 347.62972 84.56919 
L 347.62972 84.015597 
L 348.107976 84.015597 
L 348.107976 83.462005 
L 349.226915 83.462005 
L 349.226915 82.908412 
L 349.461531 82.908412 
L 349.461531 82.354819 
L 350.336829 82.354819 
L 350.336829 81.801227 
L 351.02263 81.801227 
L 351.02263 81.247634 
L 351.275294 81.247634 
L 351.275294 80.694041 
L 352.529587 80.694041 
L 352.529587 80.140449 
L 352.818346 80.140449 
L 352.818346 79.586856 
L 353.052962 79.586856 
L 353.052962 79.033263 
L 354.605038 79.033263 
L 354.605038 78.47967 
L 354.776488 78.47967 
L 354.866725 77.372485 
L 356.400753 77.372485 
L 356.400753 76.818892 
L 356.689511 76.818892 
L 356.689511 76.2653 
L 357.014365 76.2653 
L 357.014365 75.711707 
L 358.250611 75.711707 
L 358.250611 75.158114 
L 358.476203 75.158114 
L 358.476203 74.604522 
L 359.261265 74.604522 
L 359.261265 74.050929 
L 360.208753 74.050929 
L 360.280943 72.943744 
L 361.553284 72.943744 
L 361.553284 72.390151 
L 362.076658 72.390151 
L 362.076658 71.836558 
L 362.311274 71.836558 
L 362.311274 71.282966 
L 362.518819 71.282966 
L 362.518819 70.729373 
L 363.836279 70.729373 
L 363.836279 70.17578 
L 364.143085 70.17578 
L 364.143085 69.622188 
L 364.729625 69.622188 
L 364.729625 69.068595 
L 365.965871 69.068595 
L 365.965871 68.515002 
L 366.994573 68.515002 
L 366.994573 67.96141 
L 367.400639 67.96141 
L 367.400639 67.407817 
L 367.725492 67.407817 
L 367.725492 66.854224 
L 369.223426 66.854224 
L 369.232449 65.747039 
L 369.548279 65.747039 
L 369.548279 65.193446 
L 371.046212 65.193446 
L 371.046212 64.639854 
L 371.380089 64.639854 
L 371.443255 63.532668 
L 372.878023 63.532668 
L 372.878023 62.979076 
L 373.211899 62.979076 
L 373.211899 62.425483 
L 373.699179 62.425483 
L 373.699179 61.87189 
L 375.025662 61.87189 
L 375.025662 61.318297 
L 375.955103 61.318297 
L 375.955103 60.764705 
L 376.830402 60.764705 
L 376.830402 60.211112 
L 378.60807 60.211112 
L 378.60807 59.657519 
L 380.430856 59.657519 
L 380.430856 59.103927 
L 382.262667 59.103927 
L 382.262667 58.550334 
L 384.031311 58.550334 
L 384.031311 57.996741 
L 385.845074 57.996741 
L 385.845074 57.443149 
L 387.64079 57.443149 
L 387.64079 56.889556 
L 389.454553 56.889556 
L 389.454553 56.335963 
L 391.295387 56.335963 
L 391.295387 55.782371 
L 393.10915 55.782371 
L 393.10915 55.228778 
L 394.868771 55.228778 
L 394.868771 54.675185 
L 396.664486 54.675185 
L 396.664486 54.121593 
L 398.487273 54.121593 
L 398.487273 53.568 
L 398.487273 53.568 
" clip-path="url(#pff7a79faa6)" style="fill: none; stroke: #1f77b4; stroke-width: 1.5; stroke-linecap: square"/>
   </g>
   <g id="patch_3">
    <path d="M 57.6 307.584 
L 57.6 41.472 
" style="fill: none; stroke: #000000; stroke-width: 0.8; stroke-linejoin: miter; stroke-linecap: square"/>
   </g>
   <g id="patch_4">
    <path d="M 414.72 307.584 
L 414.72 41.472 
" style="fill: none; stroke: #000000; stroke-width: 0.8; stroke-linejoin: miter; stroke-linecap: square"/>
   </g>
   <g id="patch_5">
    <path d="M 57.6 307.584 
L 414.72 307.584 
" style="fill: none; stroke: #000000; stroke-width: 0.8; stroke-linejoin: miter; stroke-linecap: square"/>
   </g>
   <g id="patch_6">
    <path d="M 57.6 41.472 
L 414.72 41.472 
" style="fill: none; stroke: #000000; stroke-width: 0.8; stroke-linejoin: miter; stroke-linecap: square"/>
   </g>
   <g id="text_15">
    <!-- S1 S103 -->
    <g transform="translate(211.365 35.472) scale(0.12 -0.12)">
     <defs>
      <path id="DejaVuSans-53" d="M 3425 4513 
L 3425 3897 
Q 3066 4069 2747 4153 
Q 2428 4238 2131 4238 
Q 1616 4238 1336 4038 
Q 1056 3838 1056 3469 
Q 1056 3159 1242 3001 
Q 1428 2844 1947 2747 
L 2328 2669 
Q 3034 2534 3370 2195 
Q 3706 1856 3706 1288 
Q 3706 609 3251 259 
Q 2797 -91 1919 -91 
Q 1588 -91 1214 -16 
Q 841 59 441 206 
L 441 856 
Q 825 641 1194 531 
Q 1563 422 1919 422 
Q 2459 422 2753 634 
Q 3047 847 3047 1241 
Q 3047 1584 2836 1778 
Q 2625 1972 2144 2069 
L 1759 2144 
Q 1053 2284 737 2584 
Q 422 2884 422 3419 
Q 422 4038 858 4394 
Q 1294 4750 2059 4750 
Q 2388 4750 2728 4690 
Q 3069 4631 3425 4513 
z
" transform="scale(0.015625)"/>
      <path id="DejaVuSans-20" transform="scale(0.015625)"/>
     </defs>
     <use xlink:href="#DejaVuSans-53"/>
     <use xlink:href="#DejaVuSans-31" x="63.476562"/>
     <use xlink:href="#DejaVuSans-20" x="127.099609"/>
     <use xlink:href="#DejaVuSans-53" x="158.886719"/>
     <use xlink:href="#DejaVuSans-31" x="222.363281"/>
     <use xlink:href="#DejaVuSans-30" x="285.986328"/>
     <use xlink:href="#DejaVuSans-33" x="349.609375"/>
    </g>
   </g>
   <g id="legend_1">
    <g id="patch_7">
     <path d="M 291.861562 304.584 
L 410.52 304.584 
Q 411.72 304.584 411.72 303.384 
L 411.72 295.177125 
Q 411.72 293.977125 410.52 293.977125 
L 291.861562 293.977125 
Q 290.661563 293.977125 290.661563 295.177125 
L 290.661563 303.384 
Q 290.661563 304.584 291.861562 304.584 
z
" style="fill: #ffffff; opacity: 0.8; stroke: #cccccc; stroke-linejoin: miter"/>
    </g>
    <g id="line2d_16">
     <path d="M 293.061562 298.836187 
L 299.061562 298.836187 
L 305.061562 298.836187 
" style="fill: none; stroke: #1f77b4; stroke-width: 1.5; stroke-linecap: square"/>
    </g>
    <g id="text_16">
     <!-- Execution time between S1 S103 -->
     <g transform="translate(309.861562 300.936187) scale(0.06 -0.06)">
      <defs>
       <path id="DejaVuSans-45" d="M 628 4666 
L 3578 4666 
L 3578 4134 
L 1259 4134 
L 1259 2753 
L 3481 2753 
L 3481 2222 
L 1259 2222 
L 1259 531 
L 3634 531 
L 3634 0 
L 628 0 
L 628 4666 
z
" transform="scale(0.015625)"/>
       <path id="DejaVuSans-78" d="M 3513 3500 
L 2247 1797 
L 3578 0 
L 2900 0 
L 1881 1375 
L 863 0 
L 184 0 
L 1544 1831 
L 300 3500 
L 978 3500 
L 1906 2253 
L 2834 3500 
L 3513 3500 
z
" transform="scale(0.015625)"/>
       <path id="DejaVuSans-65" d="M 3597 1894 
L 3597 1613 
L 953 1613 
Q 991 1019 1311 708 
Q 1631 397 2203 397 
Q 2534 397 2845 478 
Q 3156 559 3463 722 
L 3463 178 
Q 3153 47 2828 -22 
Q 2503 -91 2169 -91 
Q 1331 -91 842 396 
Q 353 884 353 1716 
Q 353 2575 817 3079 
Q 1281 3584 2069 3584 
Q 2775 3584 3186 3129 
Q 3597 2675 3597 1894 
z
M 3022 2063 
Q 3016 2534 2758 2815 
Q 2500 3097 2075 3097 
Q 1594 3097 1305 2825 
Q 1016 2553 972 2059 
L 3022 2063 
z
" transform="scale(0.015625)"/>
       <path id="DejaVuSans-63" d="M 3122 3366 
L 3122 2828 
Q 2878 2963 2633 3030 
Q 2388 3097 2138 3097 
Q 1578 3097 1268 2742 
Q 959 2388 959 1747 
Q 959 1106 1268 751 
Q 1578 397 2138 397 
Q 2388 397 2633 464 
Q 2878 531 3122 666 
L 3122 134 
Q 2881 22 2623 -34 
Q 2366 -91 2075 -91 
Q 1284 -91 818 406 
Q 353 903 353 1747 
Q 353 2603 823 3093 
Q 1294 3584 2113 3584 
Q 2378 3584 2631 3529 
Q 2884 3475 3122 3366 
z
" transform="scale(0.015625)"/>
       <path id="DejaVuSans-75" d="M 544 1381 
L 544 3500 
L 1119 3500 
L 1119 1403 
Q 1119 906 1312 657 
Q 1506 409 1894 409 
Q 2359 409 2629 706 
Q 2900 1003 2900 1516 
L 2900 3500 
L 3475 3500 
L 3475 0 
L 2900 0 
L 2900 538 
Q 2691 219 2414 64 
Q 2138 -91 1772 -91 
Q 1169 -91 856 284 
Q 544 659 544 1381 
z
M 1991 3584 
L 1991 3584 
z
" transform="scale(0.015625)"/>
       <path id="DejaVuSans-74" d="M 1172 4494 
L 1172 3500 
L 2356 3500 
L 2356 3053 
L 1172 3053 
L 1172 1153 
Q 1172 725 1289 603 
Q 1406 481 1766 481 
L 2356 481 
L 2356 0 
L 1766 0 
Q 1100 0 847 248 
Q 594 497 594 1153 
L 594 3053 
L 172 3053 
L 172 3500 
L 594 3500 
L 594 4494 
L 1172 4494 
z
" transform="scale(0.015625)"/>
       <path id="DejaVuSans-69" d="M 603 3500 
L 1178 3500 
L 1178 0 
L 603 0 
L 603 3500 
z
M 603 4863 
L 1178 4863 
L 1178 4134 
L 603 4134 
L 603 4863 
z
" transform="scale(0.015625)"/>
       <path id="DejaVuSans-6f" d="M 1959 3097 
Q 1497 3097 1228 2736 
Q 959 2375 959 1747 
Q 959 1119 1226 758 
Q 1494 397 1959 397 
Q 2419 397 2687 759 
Q 2956 1122 2956 1747 
Q 2956 2369 2687 2733 
Q 2419 3097 1959 3097 
z
M 1959 3584 
Q 2709 3584 3137 3096 
Q 3566 2609 3566 1747 
Q 3566 888 3137 398 
Q 2709 -91 1959 -91 
Q 1206 -91 779 398 
Q 353 888 353 1747 
Q 353 2609 779 3096 
Q 1206 3584 1959 3584 
z
" transform="scale(0.015625)"/>
       <path id="DejaVuSans-6e" d="M 3513 2113 
L 3513 0 
L 2938 0 
L 2938 2094 
Q 2938 2591 2744 2837 
Q 2550 3084 2163 3084 
Q 1697 3084 1428 2787 
Q 1159 2491 1159 1978 
L 1159 0 
L 581 0 
L 581 3500 
L 1159 3500 
L 1159 2956 
Q 1366 3272 1645 3428 
Q 1925 3584 2291 3584 
Q 2894 3584 3203 3211 
Q 3513 2838 3513 2113 
z
" transform="scale(0.015625)"/>
       <path id="DejaVuSans-6d" d="M 3328 2828 
Q 3544 3216 3844 3400 
Q 4144 3584 4550 3584 
Q 5097 3584 5394 3201 
Q 5691 2819 5691 2113 
L 5691 0 
L 5113 0 
L 5113 2094 
Q 5113 2597 4934 2840 
Q 4756 3084 4391 3084 
Q 3944 3084 3684 2787 
Q 3425 2491 3425 1978 
L 3425 0 
L 2847 0 
L 2847 2094 
Q 2847 2600 2669 2842 
Q 2491 3084 2119 3084 
Q 1678 3084 1418 2786 
Q 1159 2488 1159 1978 
L 1159 0 
L 581 0 
L 581 3500 
L 1159 3500 
L 1159 2956 
Q 1356 3278 1631 3431 
Q 1906 3584 2284 3584 
Q 2666 3584 2933 3390 
Q 3200 3197 3328 2828 
z
" transform="scale(0.015625)"/>
       <path id="DejaVuSans-62" d="M 3116 1747 
Q 3116 2381 2855 2742 
Q 2594 3103 2138 3103 
Q 1681 3103 1420 2742 
Q 1159 2381 1159 1747 
Q 1159 1113 1420 752 
Q 1681 391 2138 391 
Q 2594 391 2855 752 
Q 3116 1113 3116 1747 
z
M 1159 2969 
Q 1341 3281 1617 3432 
Q 1894 3584 2278 3584 
Q 2916 3584 3314 3078 
Q 3713 2572 3713 1747 
Q 3713 922 3314 415 
Q 2916 -91 2278 -91 
Q 1894 -91 1617 61 
Q 1341 213 1159 525 
L 1159 0 
L 581 0 
L 581 4863 
L 1159 4863 
L 1159 2969 
z
" transform="scale(0.015625)"/>
       <path id="DejaVuSans-77" d="M 269 3500 
L 844 3500 
L 1563 769 
L 2278 3500 
L 2956 3500 
L 3675 769 
L 4391 3500 
L 4966 3500 
L 4050 0 
L 3372 0 
L 2619 2869 
L 1863 0 
L 1184 0 
L 269 3500 
z
" transform="scale(0.015625)"/>
      </defs>
      <use xlink:href="#DejaVuSans-45"/>
      <use xlink:href="#DejaVuSans-78" x="63.183594"/>
      <use xlink:href="#DejaVuSans-65" x="119.238281"/>
      <use xlink:href="#DejaVuSans-63" x="180.761719"/>
      <use xlink:href="#DejaVuSans-75" x="235.742188"/>
      <use xlink:href="#DejaVuSans-74" x="299.121094"/>
      <use xlink:href="#DejaVuSans-69" x="338.330078"/>
      <use xlink:href="#DejaVuSans-6f" x="366.113281"/>
      <use xlink:href="#DejaVuSans-6e" x="427.294922"/>
      <use xlink:href="#DejaVuSans-20" x="490.673828"/>
      <use xlink:href="#DejaVuSans-74" x="522.460938"/>
      <use xlink:href="#DejaVuSans-69" x="561.669922"/>
      <use xlink:href="#DejaVuSans-6d" x="589.453125"/>
      <use xlink:href="#DejaVuSans-65" x="686.865234"/>
      <use xlink:href="#DejaVuSans-20" x="748.388672"/>
      <use xlink:href="#DejaVuSans-62" x="780.175781"/>
      <use xlink:href="#DejaVuSans-65" x="843.652344"/>
      <use xlink:href="#DejaVuSans-74" x="905.175781"/>
      <use xlink:href="#DejaVuSans-77" x="944.384766"/>
      <use xlink:href="#DejaVuSans-65" x="1026.171875"/>
      <use xlink:href="#DejaVuSans-65" x="1087.695312"/>
      <use xlink:href="#DejaVuSans-6e" x="1149.21875"/>
      <use xlink:href="#DejaVuSans-20" x="1212.597656"/>
      <use xlink:href="#DejaVuSans-53" x="1244.384766"/>
      <use xlink:href="#DejaVuSans-31" x="1307.861328"/>
      <use xlink:href="#DejaVuSans-20" x="1371.484375"/>
      <use xlink:href="#DejaVuSans-53" x="1403.271484"/>
      <use xlink:href="#DejaVuSans-31" x="1466.748047"/>
      <use xlink:href="#DejaVuSans-30" x="1530.371094"/>
      <use xlink:href="#DejaVuSans-33" x="1593.994141"/>
     </g>
    </g>
   </g>
  </g>
 </g>
 <defs>
  <clipPath id="pff7a79faa6">
   <rect x="57.6" y="41.472" width="357.12" height="266.112"/>
  </clipPath>
 </defs>
</svg>
