<?xml version="1.0" encoding="utf-8" standalone="no"?>
<!DOCTYPE svg PUBLIC "-//W3C//DTD SVG 1.1//EN"
  "http://www.w3.org/Graphics/SVG/1.1/DTD/svg11.dtd">
<svg xmlns:xlink="http://www.w3.org/1999/xlink" width="460.8pt" height="345.6pt" viewBox="0 0 460.8 345.6" xmlns="http://www.w3.org/2000/svg" version="1.1">
 <metadata>
  <rdf:RDF xmlns:dc="http://purl.org/dc/elements/1.1/" xmlns:cc="http://creativecommons.org/ns#" xmlns:rdf="http://www.w3.org/1999/02/22-rdf-syntax-ns#">
   <cc:Work>
    <dc:type rdf:resource="http://purl.org/dc/dcmitype/StillImage"/>
    <dc:date>2024-03-08T13:16:46.868070</dc:date>
    <dc:format>image/svg+xml</dc:format>
    <dc:creator>
     <cc:Agent>
      <dc:title>Matplotlib v3.8.2, https://matplotlib.org/</dc:title>
     </cc:Agent>
    </dc:creator>
   </cc:Work>
  </rdf:RDF>
 </metadata>
 <defs>
  <style type="text/css">*{stroke-linejoin: round; stroke-linecap: butt}</style>
 </defs>
 <g id="figure_1">
  <g id="patch_1">
   <path d="M 0 345.6 
L 460.8 345.6 
L 460.8 0 
L 0 0 
z
" style="fill: #ffffff"/>
  </g>
  <g id="axes_1">
   <g id="patch_2">
    <path d="M 57.6 307.584 
L 414.72 307.584 
L 414.72 41.472 
L 57.6 41.472 
z
" style="fill: #ffffff"/>
   </g>
   <g id="matplotlib.axis_1">
    <g id="xtick_1">
     <g id="line2d_1">
      <defs>
       <path id="m103de69171" d="M 0 0 
L 0 3.5 
" style="stroke: #000000; stroke-width: 0.8"/>
      </defs>
      <g>
       <use xlink:href="#m103de69171" x="73.832727" y="307.584" style="stroke: #000000; stroke-width: 0.8"/>
      </g>
     </g>
     <g id="text_1">
      <!-- 0 -->
      <g transform="translate(70.651477 322.182437) scale(0.1 -0.1)">
       <defs>
        <path id="DejaVuSans-30" d="M 2034 4250 
Q 1547 4250 1301 3770 
Q 1056 3291 1056 2328 
Q 1056 1369 1301 889 
Q 1547 409 2034 409 
Q 2525 409 2770 889 
Q 3016 1369 3016 2328 
Q 3016 3291 2770 3770 
Q 2525 4250 2034 4250 
z
M 2034 4750 
Q 2819 4750 3233 4129 
Q 3647 3509 3647 2328 
Q 3647 1150 3233 529 
Q 2819 -91 2034 -91 
Q 1250 -91 836 529 
Q 422 1150 422 2328 
Q 422 3509 836 4129 
Q 1250 4750 2034 4750 
z
" transform="scale(0.015625)"/>
       </defs>
       <use xlink:href="#DejaVuSans-30"/>
      </g>
     </g>
    </g>
    <g id="xtick_2">
     <g id="line2d_2">
      <g>
       <use xlink:href="#m103de69171" x="143.682454" y="307.584" style="stroke: #000000; stroke-width: 0.8"/>
      </g>
     </g>
     <g id="text_2">
      <!-- 200000 -->
      <g transform="translate(124.594954 322.182437) scale(0.1 -0.1)">
       <defs>
        <path id="DejaVuSans-32" d="M 1228 531 
L 3431 531 
L 3431 0 
L 469 0 
L 469 531 
Q 828 903 1448 1529 
Q 2069 2156 2228 2338 
Q 2531 2678 2651 2914 
Q 2772 3150 2772 3378 
Q 2772 3750 2511 3984 
Q 2250 4219 1831 4219 
Q 1534 4219 1204 4116 
Q 875 4013 500 3803 
L 500 4441 
Q 881 4594 1212 4672 
Q 1544 4750 1819 4750 
Q 2544 4750 2975 4387 
Q 3406 4025 3406 3419 
Q 3406 3131 3298 2873 
Q 3191 2616 2906 2266 
Q 2828 2175 2409 1742 
Q 1991 1309 1228 531 
z
" transform="scale(0.015625)"/>
       </defs>
       <use xlink:href="#DejaVuSans-32"/>
       <use xlink:href="#DejaVuSans-30" x="63.623047"/>
       <use xlink:href="#DejaVuSans-30" x="127.246094"/>
       <use xlink:href="#DejaVuSans-30" x="190.869141"/>
       <use xlink:href="#DejaVuSans-30" x="254.492188"/>
       <use xlink:href="#DejaVuSans-30" x="318.115234"/>
      </g>
     </g>
    </g>
    <g id="xtick_3">
     <g id="line2d_3">
      <g>
       <use xlink:href="#m103de69171" x="213.532181" y="307.584" style="stroke: #000000; stroke-width: 0.8"/>
      </g>
     </g>
     <g id="text_3">
      <!-- 400000 -->
      <g transform="translate(194.444681 322.182437) scale(0.1 -0.1)">
       <defs>
        <path id="DejaVuSans-34" d="M 2419 4116 
L 825 1625 
L 2419 1625 
L 2419 4116 
z
M 2253 4666 
L 3047 4666 
L 3047 1625 
L 3713 1625 
L 3713 1100 
L 3047 1100 
L 3047 0 
L 2419 0 
L 2419 1100 
L 313 1100 
L 313 1709 
L 2253 4666 
z
" transform="scale(0.015625)"/>
       </defs>
       <use xlink:href="#DejaVuSans-34"/>
       <use xlink:href="#DejaVuSans-30" x="63.623047"/>
       <use xlink:href="#DejaVuSans-30" x="127.246094"/>
       <use xlink:href="#DejaVuSans-30" x="190.869141"/>
       <use xlink:href="#DejaVuSans-30" x="254.492188"/>
       <use xlink:href="#DejaVuSans-30" x="318.115234"/>
      </g>
     </g>
    </g>
    <g id="xtick_4">
     <g id="line2d_4">
      <g>
       <use xlink:href="#m103de69171" x="283.381908" y="307.584" style="stroke: #000000; stroke-width: 0.8"/>
      </g>
     </g>
     <g id="text_4">
      <!-- 600000 -->
      <g transform="translate(264.294408 322.182437) scale(0.1 -0.1)">
       <defs>
        <path id="DejaVuSans-36" d="M 2113 2584 
Q 1688 2584 1439 2293 
Q 1191 2003 1191 1497 
Q 1191 994 1439 701 
Q 1688 409 2113 409 
Q 2538 409 2786 701 
Q 3034 994 3034 1497 
Q 3034 2003 2786 2293 
Q 2538 2584 2113 2584 
z
M 3366 4563 
L 3366 3988 
Q 3128 4100 2886 4159 
Q 2644 4219 2406 4219 
Q 1781 4219 1451 3797 
Q 1122 3375 1075 2522 
Q 1259 2794 1537 2939 
Q 1816 3084 2150 3084 
Q 2853 3084 3261 2657 
Q 3669 2231 3669 1497 
Q 3669 778 3244 343 
Q 2819 -91 2113 -91 
Q 1303 -91 875 529 
Q 447 1150 447 2328 
Q 447 3434 972 4092 
Q 1497 4750 2381 4750 
Q 2619 4750 2861 4703 
Q 3103 4656 3366 4563 
z
" transform="scale(0.015625)"/>
       </defs>
       <use xlink:href="#DejaVuSans-36"/>
       <use xlink:href="#DejaVuSans-30" x="63.623047"/>
       <use xlink:href="#DejaVuSans-30" x="127.246094"/>
       <use xlink:href="#DejaVuSans-30" x="190.869141"/>
       <use xlink:href="#DejaVuSans-30" x="254.492188"/>
       <use xlink:href="#DejaVuSans-30" x="318.115234"/>
      </g>
     </g>
    </g>
    <g id="xtick_5">
     <g id="line2d_5">
      <g>
       <use xlink:href="#m103de69171" x="353.231635" y="307.584" style="stroke: #000000; stroke-width: 0.8"/>
      </g>
     </g>
     <g id="text_5">
      <!-- 800000 -->
      <g transform="translate(334.144135 322.182437) scale(0.1 -0.1)">
       <defs>
        <path id="DejaVuSans-38" d="M 2034 2216 
Q 1584 2216 1326 1975 
Q 1069 1734 1069 1313 
Q 1069 891 1326 650 
Q 1584 409 2034 409 
Q 2484 409 2743 651 
Q 3003 894 3003 1313 
Q 3003 1734 2745 1975 
Q 2488 2216 2034 2216 
z
M 1403 2484 
Q 997 2584 770 2862 
Q 544 3141 544 3541 
Q 544 4100 942 4425 
Q 1341 4750 2034 4750 
Q 2731 4750 3128 4425 
Q 3525 4100 3525 3541 
Q 3525 3141 3298 2862 
Q 3072 2584 2669 2484 
Q 3125 2378 3379 2068 
Q 3634 1759 3634 1313 
Q 3634 634 3220 271 
Q 2806 -91 2034 -91 
Q 1263 -91 848 271 
Q 434 634 434 1313 
Q 434 1759 690 2068 
Q 947 2378 1403 2484 
z
M 1172 3481 
Q 1172 3119 1398 2916 
Q 1625 2713 2034 2713 
Q 2441 2713 2670 2916 
Q 2900 3119 2900 3481 
Q 2900 3844 2670 4047 
Q 2441 4250 2034 4250 
Q 1625 4250 1398 4047 
Q 1172 3844 1172 3481 
z
" transform="scale(0.015625)"/>
       </defs>
       <use xlink:href="#DejaVuSans-38"/>
       <use xlink:href="#DejaVuSans-30" x="63.623047"/>
       <use xlink:href="#DejaVuSans-30" x="127.246094"/>
       <use xlink:href="#DejaVuSans-30" x="190.869141"/>
       <use xlink:href="#DejaVuSans-30" x="254.492188"/>
       <use xlink:href="#DejaVuSans-30" x="318.115234"/>
      </g>
     </g>
    </g>
   </g>
   <g id="matplotlib.axis_2">
    <g id="ytick_1">
     <g id="line2d_6">
      <defs>
       <path id="m23cd6e2401" d="M 0 0 
L -3.5 0 
" style="stroke: #000000; stroke-width: 0.8"/>
      </defs>
      <g>
       <use xlink:href="#m23cd6e2401" x="57.6" y="295.488" style="stroke: #000000; stroke-width: 0.8"/>
      </g>
     </g>
     <g id="text_6">
      <!-- 0.0 -->
      <g transform="translate(34.696875 299.287219) scale(0.1 -0.1)">
       <defs>
        <path id="DejaVuSans-2e" d="M 684 794 
L 1344 794 
L 1344 0 
L 684 0 
L 684 794 
z
" transform="scale(0.015625)"/>
       </defs>
       <use xlink:href="#DejaVuSans-30"/>
       <use xlink:href="#DejaVuSans-2e" x="63.623047"/>
       <use xlink:href="#DejaVuSans-30" x="95.410156"/>
      </g>
     </g>
    </g>
    <g id="ytick_2">
     <g id="line2d_7">
      <g>
       <use xlink:href="#m23cd6e2401" x="57.6" y="247.104" style="stroke: #000000; stroke-width: 0.8"/>
      </g>
     </g>
     <g id="text_7">
      <!-- 0.2 -->
      <g transform="translate(34.696875 250.903219) scale(0.1 -0.1)">
       <use xlink:href="#DejaVuSans-30"/>
       <use xlink:href="#DejaVuSans-2e" x="63.623047"/>
       <use xlink:href="#DejaVuSans-32" x="95.410156"/>
      </g>
     </g>
    </g>
    <g id="ytick_3">
     <g id="line2d_8">
      <g>
       <use xlink:href="#m23cd6e2401" x="57.6" y="198.72" style="stroke: #000000; stroke-width: 0.8"/>
      </g>
     </g>
     <g id="text_8">
      <!-- 0.4 -->
      <g transform="translate(34.696875 202.519219) scale(0.1 -0.1)">
       <use xlink:href="#DejaVuSans-30"/>
       <use xlink:href="#DejaVuSans-2e" x="63.623047"/>
       <use xlink:href="#DejaVuSans-34" x="95.410156"/>
      </g>
     </g>
    </g>
    <g id="ytick_4">
     <g id="line2d_9">
      <g>
       <use xlink:href="#m23cd6e2401" x="57.6" y="150.336" style="stroke: #000000; stroke-width: 0.8"/>
      </g>
     </g>
     <g id="text_9">
      <!-- 0.6 -->
      <g transform="translate(34.696875 154.135219) scale(0.1 -0.1)">
       <use xlink:href="#DejaVuSans-30"/>
       <use xlink:href="#DejaVuSans-2e" x="63.623047"/>
       <use xlink:href="#DejaVuSans-36" x="95.410156"/>
      </g>
     </g>
    </g>
    <g id="ytick_5">
     <g id="line2d_10">
      <g>
       <use xlink:href="#m23cd6e2401" x="57.6" y="101.952" style="stroke: #000000; stroke-width: 0.8"/>
      </g>
     </g>
     <g id="text_10">
      <!-- 0.8 -->
      <g transform="translate(34.696875 105.751219) scale(0.1 -0.1)">
       <use xlink:href="#DejaVuSans-30"/>
       <use xlink:href="#DejaVuSans-2e" x="63.623047"/>
       <use xlink:href="#DejaVuSans-38" x="95.410156"/>
      </g>
     </g>
    </g>
    <g id="ytick_6">
     <g id="line2d_11">
      <g>
       <use xlink:href="#m23cd6e2401" x="57.6" y="53.568" style="stroke: #000000; stroke-width: 0.8"/>
      </g>
     </g>
     <g id="text_11">
      <!-- 1.0 -->
      <g transform="translate(34.696875 57.367219) scale(0.1 -0.1)">
       <defs>
        <path id="DejaVuSans-31" d="M 794 531 
L 1825 531 
L 1825 4091 
L 703 3866 
L 703 4441 
L 1819 4666 
L 2450 4666 
L 2450 531 
L 3481 531 
L 3481 0 
L 794 0 
L 794 531 
z
" transform="scale(0.015625)"/>
       </defs>
       <use xlink:href="#DejaVuSans-31"/>
       <use xlink:href="#DejaVuSans-2e" x="63.623047"/>
       <use xlink:href="#DejaVuSans-30" x="95.410156"/>
      </g>
     </g>
    </g>
   </g>
   <g id="line2d_12">
    <path d="M 73.832727 295.488 
L 124.623956 295.488 
L 124.623956 294.996293 
L 125.870774 294.996293 
L 125.870774 294.504585 
L 127.075682 294.504585 
L 127.075682 294.012878 
L 128.284082 294.012878 
L 128.284082 293.521171 
L 129.51693 293.521171 
L 129.51693 293.029463 
L 130.732315 293.029463 
L 130.732315 292.537756 
L 131.937223 292.537756 
L 131.937223 292.046049 
L 133.1561 292.046049 
L 133.1561 291.554341 
L 134.367993 291.554341 
L 134.367993 291.062634 
L 135.597348 291.062634 
L 135.597348 290.570927 
L 136.791779 290.570927 
L 136.791779 290.07922 
L 138.017641 290.07922 
L 138.017641 289.587512 
L 139.215564 289.587512 
L 139.215564 289.095805 
L 140.430949 289.095805 
L 140.430949 288.604098 
L 141.663797 288.604098 
L 141.663797 288.11239 
L 142.872197 288.11239 
L 142.872197 287.620683 
L 144.08409 287.620683 
L 144.08409 287.128976 
L 145.32043 287.128976 
L 145.32043 286.637268 
L 146.57074 286.637268 
L 146.57074 286.145561 
L 147.803588 286.145561 
L 147.803588 285.653854 
L 148.994526 285.653854 
L 148.994526 285.162146 
L 150.213404 285.162146 
L 150.213404 284.670439 
L 151.418311 284.670439 
L 151.418311 284.178732 
L 152.616234 284.178732 
L 152.616234 283.687024 
L 153.831619 283.687024 
L 153.831619 283.195317 
L 155.050497 283.195317 
L 155.050497 282.70361 
L 156.265882 282.70361 
L 156.265882 282.211902 
L 157.509208 282.211902 
L 157.509208 281.720195 
L 158.717608 281.720195 
L 158.717608 281.228488 
L 159.95744 281.228488 
L 159.95744 280.73678 
L 161.193781 280.73678 
L 161.193781 280.245073 
L 162.405673 280.245073 
L 162.405673 279.753366 
L 163.635029 279.753366 
L 163.635029 279.261659 
L 164.836444 279.261659 
L 164.836444 278.769951 
L 166.051829 278.769951 
L 166.051829 278.278244 
L 167.270707 278.278244 
L 167.270707 277.786537 
L 169.691 277.786537 
L 169.691 277.294829 
L 170.92734 277.294829 
L 170.92734 276.803122 
L 183.325667 276.803122 
L 183.325667 276.311415 
L 184.020671 276.311415 
L 184.020671 275.819707 
L 184.715676 275.819707 
L 184.715676 275.328 
L 185.424651 275.328 
L 185.424651 274.836293 
L 185.711035 274.836293 
L 185.711035 274.344585 
L 186.109178 274.344585 
L 186.109178 273.852878 
L 186.573679 273.852878 
L 186.573679 273.361171 
L 187.453785 273.361171 
L 187.453785 272.869463 
L 188.323415 272.869463 
L 188.323415 272.377756 
L 189.220984 272.377756 
L 189.220984 271.886049 
L 190.104583 271.886049 
L 190.104583 271.394341 
L 190.988182 271.394341 
L 190.988182 270.902634 
L 199.70892 270.902634 
L 199.70892 270.410927 
L 203.564625 270.410927 
L 203.564625 269.91922 
L 204.249152 269.91922 
L 204.249152 269.427512 
L 204.944157 269.427512 
L 204.944157 268.935805 
L 205.639162 268.935805 
L 205.639162 268.444098 
L 206.330674 268.444098 
L 206.330674 267.95239 
L 207.022186 267.95239 
L 207.022186 267.460683 
L 211.35287 267.460683 
L 211.35287 266.968976 
L 212.557777 266.968976 
L 212.557777 266.477268 
L 213.780148 266.477268 
L 213.780148 265.985561 
L 214.031607 265.985561 
L 214.031607 265.493854 
L 214.838371 265.493854 
L 214.838371 265.002146 
L 215.002518 265.002146 
L 215.002518 264.510439 
L 216.043279 264.510439 
L 216.043279 264.018732 
L 216.217903 264.018732 
L 216.217903 263.527024 
L 217.265649 263.527024 
L 217.265649 263.035317 
L 217.454243 263.035317 
L 217.454243 262.54361 
L 218.456587 262.54361 
L 218.456587 262.051902 
L 218.701061 262.051902 
L 218.701061 261.560195 
L 218.93855 261.560195 
L 218.93855 261.068488 
L 219.804686 261.068488 
L 219.804686 260.57678 
L 219.940893 260.57678 
L 219.940893 260.085073 
L 220.670823 260.085073 
L 220.670823 259.593366 
L 221.187711 259.593366 
L 221.187711 259.101659 
L 221.540452 259.101659 
L 221.540452 258.609951 
L 222.403096 258.609951 
L 222.420559 257.626537 
L 223.26574 257.626537 
L 223.26574 257.134829 
L 223.611497 257.134829 
L 223.611497 256.643122 
L 224.145847 256.643122 
L 224.145847 256.151415 
L 224.837359 256.151415 
L 224.837359 255.659707 
L 225.039923 255.659707 
L 225.039923 255.168 
L 225.909553 255.168 
L 225.909553 254.676293 
L 226.04576 254.676293 
L 226.04576 254.184585 
L 226.779182 254.184585 
L 226.779182 253.692878 
L 227.285592 253.692878 
L 227.285592 253.201171 
L 227.655796 253.201171 
L 227.655796 252.709463 
L 228.51844 252.709463 
L 228.528917 251.726049 
L 229.409024 251.726049 
L 229.419501 250.742634 
L 229.74081 250.742634 
L 229.74081 250.250927 
L 230.278653 250.250927 
L 230.278653 249.75922 
L 230.627902 249.75922 
L 230.627902 249.267512 
L 230.980643 249.267512 
L 230.980643 248.775805 
L 231.155267 248.775805 
L 231.15876 247.79239 
L 232.031881 247.79239 
L 232.042359 246.808976 
L 232.203013 246.808976 
L 232.203013 246.317268 
L 232.898018 246.317268 
L 232.898018 245.825561 
L 233.414906 245.825561 
L 233.414906 245.333854 
L 233.760662 245.333854 
L 233.760662 244.842146 
L 234.626798 244.842146 
L 234.637276 243.858732 
L 235.520875 243.858732 
L 235.520875 243.367024 
L 235.838691 243.367024 
L 235.838691 242.875317 
L 236.390504 242.875317 
L 236.390504 242.38361 
L 237.061061 242.38361 
L 237.061061 241.891902 
L 237.253148 241.891902 
L 237.253148 241.400195 
L 238.1123 241.400195 
L 238.1123 240.908488 
L 238.272954 240.908488 
L 238.272954 240.41678 
L 238.978436 240.41678 
L 238.978436 239.925073 
L 239.498817 239.925073 
L 239.498817 239.433366 
L 239.834096 239.433366 
L 239.834096 238.941659 
L 240.707217 238.941659 
L 240.714202 237.958244 
L 241.611771 237.958244 
L 241.611771 237.466537 
L 241.929587 237.466537 
L 241.929587 236.974829 
L 242.474415 236.974829 
L 242.474415 236.483122 
L 243.148465 236.483122 
L 243.148465 235.991415 
L 243.347537 235.991415 
L 243.347537 235.499707 
L 244.213674 235.499707 
L 244.213674 235.008 
L 244.370835 235.008 
L 244.370835 234.516293 
L 245.083303 234.516293 
L 245.083303 234.024585 
L 245.956424 234.024585 
L 245.956424 233.532878 
L 246.613012 233.532878 
L 246.613012 233.041171 
L 246.812083 233.041171 
L 246.812083 232.549463 
L 247.702667 232.549463 
L 247.702667 232.057756 
L 247.849352 232.057756 
L 247.849352 231.566049 
L 248.579281 231.566049 
L 248.579281 231.074341 
L 249.075214 231.074341 
L 249.075214 230.582634 
L 249.431448 230.582634 
L 249.431448 230.090927 
L 250.297585 230.090927 
L 250.297585 229.59922 
L 251.530432 229.59922 
L 251.530432 229.107512 
L 252.770265 229.107512 
L 252.770265 228.615805 
L 253.783086 228.615805 
L 253.783086 228.124098 
L 253.982158 228.124098 
L 253.982158 227.63239 
L 254.663193 227.63239 
L 254.663193 227.140683 
L 255.197543 227.140683 
L 255.197543 226.648976 
L 255.525837 226.648976 
L 255.525837 226.157268 
L 256.409436 226.157268 
L 256.416421 225.173854 
L 257.265095 225.173854 
L 257.265095 224.682146 
L 257.656253 224.682146 
L 257.656253 224.190439 
L 258.145202 224.190439 
L 258.145202 223.698732 
L 258.875131 223.698732 
L 258.875131 223.207024 
L 259.018323 223.207024 
L 259.018323 222.715317 
L 259.880967 222.715317 
L 259.880967 222.22361 
L 260.090516 222.22361 
L 260.090516 221.731902 
L 260.754089 221.731902 
L 260.754089 221.240195 
L 261.312887 221.240195 
L 261.312887 220.748488 
L 261.630703 220.748488 
L 261.630703 220.25678 
L 262.521287 220.25678 
L 262.521287 219.765073 
L 263.404886 219.765073 
L 263.404886 219.273366 
L 264.2815 219.273366 
L 264.2815 218.781659 
L 265.161607 218.781659 
L 265.161607 218.289951 
L 266.041713 218.289951 
L 266.041713 217.798244 
L 266.918327 217.798244 
L 266.918327 217.306537 
L 267.794941 217.306537 
L 267.794941 216.814829 
L 268.682033 216.814829 
L 268.682033 216.323122 
L 269.569124 216.323122 
L 269.569124 215.831415 
L 279.69035 215.831415 
L 279.69035 215.339707 
L 280.388847 215.339707 
L 280.388847 214.848 
L 281.094329 214.848 
L 281.094329 214.356293 
L 281.782349 214.356293 
L 281.782349 213.864585 
L 282.480846 213.864585 
L 282.480846 213.372878 
L 282.665948 213.372878 
L 282.672933 212.389463 
L 283.186329 212.389463 
L 283.186329 211.897756 
L 283.37143 211.897756 
L 283.37143 211.406049 
L 283.53907 211.406049 
L 283.53907 210.914341 
L 283.902288 210.914341 
L 283.902288 210.422634 
L 284.055958 210.422634 
L 284.055958 209.930927 
L 284.426161 209.930927 
L 284.426161 209.43922 
L 284.618248 209.43922 
L 284.618248 208.947512 
L 284.74747 208.947512 
L 284.74747 208.455805 
L 285.288805 208.455805 
L 285.327223 207.47239 
L 285.452952 207.47239 
L 285.452952 206.980683 
L 286.01175 206.980683 
L 286.01175 206.488976 
L 286.140972 206.488976 
L 286.165419 205.505561 
L 286.69977 205.505561 
L 286.69977 205.013854 
L 286.842962 205.013854 
L 286.842962 204.522146 
L 287.028064 204.522146 
L 287.028064 204.030439 
L 287.40176 204.030439 
L 287.40176 203.538732 
L 287.541459 203.538732 
L 287.541459 203.047024 
L 287.918648 203.047024 
L 287.918648 202.555317 
L 288.107242 202.555317 
L 288.107242 202.06361 
L 288.250434 202.06361 
L 288.250434 201.571902 
L 288.781292 201.571902 
L 288.795262 200.588488 
L 288.945439 200.588488 
L 288.945439 200.09678 
L 289.507729 200.09678 
L 289.507729 199.605073 
L 289.643936 199.605073 
L 289.661398 198.621659 
L 290.209719 198.621659 
L 290.209719 198.129951 
L 290.356403 198.129951 
L 290.356403 197.638244 
L 290.503087 197.638244 
L 290.503087 197.146537 
L 291.0549 197.146537 
L 291.0549 196.654829 
L 291.393672 196.654829 
L 291.393672 196.163122 
L 291.75689 196.163122 
L 291.75689 195.671415 
L 292.270286 195.671415 
L 292.270286 195.179707 
L 292.465865 195.179707 
L 292.465865 194.688 
L 293.1469 194.688 
L 293.167855 193.704585 
L 293.862859 193.704585 
L 293.862859 193.212878 
L 294.006051 193.212878 
L 294.006051 192.721171 
L 294.42515 192.721171 
L 294.42515 192.229463 
L 294.561357 192.229463 
L 294.561357 191.737756 
L 294.865203 191.737756 
L 294.865203 191.246049 
L 295.130632 191.246049 
L 295.134124 190.262634 
L 295.252869 190.262634 
L 295.252869 189.770927 
L 295.720862 189.770927 
L 295.720862 189.27922 
L 295.836114 189.27922 
L 295.836114 188.787512 
L 295.968829 188.787512 
L 295.968829 188.295805 
L 296.36348 188.295805 
L 296.36348 187.804098 
L 296.527626 187.804098 
L 296.527626 187.31239 
L 296.663833 187.31239 
L 296.663833 186.820683 
L 296.824488 186.820683 
L 296.824488 186.328976 
L 297.229616 186.328976 
L 297.229616 185.837268 
L 297.344868 185.837268 
L 297.344868 185.345561 
L 297.578865 185.345561 
L 297.578865 184.853854 
L 297.942083 184.853854 
L 298.032888 183.378732 
L 298.032888 183.378732 
L 298.647566 183.378732 
L 298.713923 182.395317 
L 298.804728 182.395317 
L 298.804728 181.90361 
L 299.234303 181.90361 
L 299.234303 181.411902 
L 299.35654 181.411902 
L 299.415913 180.428488 
L 300.006143 180.428488 
L 300.051545 179.445073 
L 300.12838 179.445073 
L 300.12838 178.953366 
L 300.463659 178.953366 
L 300.463659 178.461659 
L 300.757027 178.461659 
L 300.812907 177.478244 
L 301.218036 177.478244 
L 301.218036 176.986537 
L 301.459017 176.986537 
L 301.459017 176.494829 
L 301.665074 176.494829 
L 301.665074 176.003122 
L 302.164499 176.003122 
L 302.164499 175.511415 
L 302.447391 175.511415 
L 302.447391 175.019707 
L 302.856012 175.019707 
L 302.862997 174.036293 
L 303.540539 174.036293 
L 303.645314 173.052878 
L 304.064412 173.052878 
L 304.064412 172.561171 
L 304.242529 172.561171 
L 304.242529 172.069463 
L 304.843236 172.069463 
L 304.944519 171.086049 
L 305.276305 171.086049 
L 305.276305 170.594341 
L 305.636031 170.594341 
L 305.636031 170.102634 
L 306.100532 170.102634 
L 306.100532 169.610927 
L 306.341513 169.610927 
L 306.341513 169.11922 
L 306.502167 169.11922 
L 306.502167 168.627512 
L 307.05398 168.627512 
L 307.05398 168.135805 
L 307.319409 168.135805 
L 307.319409 167.644098 
L 307.721045 167.644098 
L 307.742 166.660683 
L 308.426527 166.660683 
L 308.426527 166.168976 
L 308.552257 166.168976 
L 308.552257 165.677268 
L 308.953893 165.677268 
L 308.953893 165.185561 
L 309.135502 165.185561 
L 309.135502 164.693854 
L 309.767642 164.693854 
L 309.844477 163.710439 
L 310.162293 163.710439 
L 310.162293 163.218732 
L 310.979535 163.218732 
L 310.979535 162.727024 
L 311.388156 162.727024 
L 311.388156 162.235317 
L 312.233338 162.235317 
L 312.233338 161.74361 
L 313.469678 161.74361 
L 313.469678 161.251902 
L 316.207787 161.251902 
L 316.207787 160.760195 
L 316.909777 160.760195 
L 316.909777 160.268488 
L 317.608274 160.268488 
L 317.608274 159.77678 
L 318.310264 159.77678 
L 318.310264 159.285073 
L 318.477903 159.285073 
L 318.477903 158.793366 
L 319.019238 158.793366 
L 319.019238 158.301659 
L 319.364995 158.301659 
L 319.364995 157.809951 
L 319.714243 157.809951 
L 319.714243 157.318244 
L 320.238116 157.318244 
L 320.238116 156.826537 
L 320.419726 156.826537 
L 320.419726 156.334829 
L 321.125208 156.334829 
L 321.125208 155.351415 
L 321.125208 155.351415 
L 321.823705 155.351415 
L 321.823705 154.859707 
L 321.977374 154.859707 
L 321.977374 154.368 
L 322.536172 154.368 
L 322.536172 153.876293 
L 322.847004 153.876293 
L 322.847004 153.384585 
L 323.227685 153.384585 
L 323.227685 152.892878 
L 323.72711 152.892878 
L 323.828392 151.909463 
L 323.933167 151.909463 
L 323.933167 151.417756 
L 324.530382 151.417756 
L 324.603724 150.434341 
L 324.642141 150.434341 
L 324.642141 149.942634 
L 325.225387 149.942634 
L 325.330161 148.95922 
L 325.462876 148.95922 
L 325.462876 148.467512 
L 325.906422 148.467512 
L 325.906422 147.975805 
L 326.042629 147.975805 
L 326.042629 147.484098 
L 326.349967 147.484098 
L 326.349967 146.99239 
L 326.604919 146.99239 
L 326.604919 146.500683 
L 326.730648 146.500683 
L 326.730648 146.008976 
L 327.216104 146.008976 
L 327.310401 145.025561 
L 327.439623 145.025561 
L 327.439623 144.533854 
L 328.019376 144.533854 
L 328.09621 143.550439 
L 328.148598 143.550439 
L 328.148598 143.058732 
L 328.714381 143.058732 
L 328.714381 142.567024 
L 328.833125 142.567024 
L 328.833125 142.075317 
L 328.962347 142.075317 
L 328.962347 141.58361 
L 329.419863 141.58361 
L 329.419863 141.091902 
L 329.531622 141.091902 
L 329.531622 140.600195 
L 329.845946 140.600195 
L 329.845946 140.108488 
L 330.125345 140.108488 
L 330.23012 139.125073 
L 330.705098 139.125073 
L 330.705098 138.633366 
L 330.823842 138.633366 
L 330.911154 137.649951 
L 331.50837 137.649951 
L 331.606159 136.174829 
L 332.203374 136.174829 
L 332.301164 135.191415 
L 332.426894 135.191415 
L 332.426894 134.699707 
L 332.915842 134.699707 
L 332.985691 133.716293 
L 333.300015 133.716293 
L 333.300015 133.224585 
L 333.610846 133.224585 
L 333.691174 132.241171 
L 334.190599 132.241171 
L 334.190599 131.749463 
L 334.312836 131.749463 
L 334.396656 130.766049 
L 335.004348 130.766049 
L 335.067213 129.782634 
L 335.709831 129.782634 
L 335.709831 129.290927 
L 335.936842 129.290927 
L 335.936842 128.79922 
L 336.397851 128.79922 
L 336.397851 128.307512 
L 336.795994 128.307512 
L 336.795994 127.815805 
L 337.651653 127.815805 
L 337.651653 127.324098 
L 338.542237 127.324098 
L 338.542237 126.83239 
L 339.432821 126.83239 
L 339.432821 126.340683 
L 340.309435 126.340683 
L 340.309435 125.848976 
L 341.196527 125.848976 
L 341.196527 125.357268 
L 342.073141 125.357268 
L 342.073141 124.865561 
L 342.939277 124.865561 
L 342.939277 124.373854 
L 343.819384 124.373854 
L 343.819384 123.882146 
L 344.689013 123.882146 
L 344.689013 123.390439 
L 345.4853 123.390439 
L 345.55515 122.407024 
L 346.190782 122.407024 
L 346.190782 121.915317 
L 346.417794 121.915317 
L 346.417794 121.42361 
L 346.753073 121.42361 
L 346.753073 120.931902 
L 346.906742 120.931902 
L 346.906742 120.440195 
L 347.304885 120.440195 
L 347.304885 119.948488 
L 347.608732 119.948488 
L 347.608732 119.45678 
L 347.950995 119.45678 
L 347.950995 118.965073 
L 348.174514 118.965073 
L 348.174514 118.473366 
L 348.303736 118.473366 
L 348.303736 117.981659 
L 349.005726 117.981659 
L 349.051129 116.998244 
L 349.169873 116.998244 
L 349.169873 116.506537 
L 349.700731 116.506537 
L 349.700731 116.014829 
L 349.93822 116.014829 
L 349.93822 115.523122 
L 350.385258 115.523122 
L 350.420183 114.539707 
L 350.811342 114.539707 
L 350.811342 114.048 
L 351.097726 114.048 
L 351.097726 113.556293 
L 351.684463 113.556293 
L 351.684463 113.064585 
L 351.817178 113.064585 
L 351.817178 112.572878 
L 352.49472 112.572878 
L 352.56457 111.589463 
L 352.861431 111.589463 
L 352.861431 111.097756 
L 353.189725 111.097756 
L 353.189725 110.606049 
L 353.441184 110.606049 
L 353.441184 110.114341 
L 353.895207 110.114341 
L 353.895207 109.622634 
L 354.101264 109.622634 
L 354.101264 109.130927 
L 354.30732 109.130927 
L 354.30732 108.63922 
L 354.590212 108.63922 
L 354.590212 108.147512 
L 355.180442 108.147512 
L 355.180442 107.655805 
L 355.306172 107.655805 
L 355.323634 106.67239 
L 355.990699 106.67239 
L 356.032609 105.688976 
L 356.573944 105.688976 
L 356.573944 105.197268 
L 356.706659 105.197268 
L 356.706659 104.705561 
L 356.912715 104.705561 
L 356.912715 104.213854 
L 357.405156 104.213854 
L 357.405156 103.722146 
L 357.789329 103.722146 
L 357.789329 102.738732 
L 357.789329 102.738732 
L 358.103653 102.738732 
L 358.103653 102.247024 
L 358.676421 102.247024 
L 358.676421 101.755317 
L 358.791673 101.755317 
L 358.791673 101.26361 
L 359.486678 101.26361 
L 359.528588 100.280195 
L 360.185175 100.280195 
L 360.185175 99.788488 
L 360.394724 99.788488 
L 360.394724 99.29678 
L 360.901135 99.29678 
L 360.901135 98.805073 
L 361.278323 98.805073 
L 361.278323 98.313366 
L 361.578677 98.313366 
L 361.578677 97.821659 
L 362.165415 97.821659 
L 362.266697 96.838244 
L 362.972179 96.838244 
L 363.059491 95.854829 
L 363.653214 95.854829 
L 363.653214 95.363122 
L 363.911658 95.363122 
L 363.911658 94.871415 
L 364.355204 94.871415 
L 364.355204 94.379707 
L 364.788272 94.379707 
L 364.788272 93.888 
L 365.053701 93.888 
L 365.053701 93.396293 
L 365.657901 93.396293 
L 365.741721 92.412878 
L 366.443711 92.412878 
L 366.544993 91.429463 
L 367.135223 91.429463 
L 367.135223 90.937756 
L 367.421607 90.937756 
L 367.421607 90.446049 
L 367.561306 90.446049 
L 367.561306 89.954341 
L 367.826735 89.954341 
L 367.826735 89.462634 
L 368.308698 89.462634 
L 368.308698 88.970927 
L 368.525232 88.970927 
L 368.525232 88.47922 
L 368.804631 88.47922 
L 368.804631 87.987512 
L 369.185312 87.987512 
L 369.227222 87.004098 
L 369.925719 87.004098 
L 369.925719 86.51239 
L 370.065419 86.51239 
L 370.065419 86.020683 
L 370.613739 86.020683 
L 370.613739 85.528976 
L 370.93854 85.528976 
L 370.93854 85.037268 
L 371.298267 85.037268 
L 371.298267 84.545561 
L 371.818647 84.545561 
L 371.818647 84.053854 
L 371.996764 84.053854 
L 371.996764 83.562146 
L 372.684784 83.562146 
L 372.709231 82.578732 
L 373.376296 82.578732 
L 373.376296 82.087024 
L 373.582353 82.087024 
L 373.582353 81.595317 
L 374.092256 81.595317 
L 374.092256 81.10361 
L 374.455474 81.10361 
L 374.455474 80.611902 
L 374.790753 80.611902 
L 374.790753 80.120195 
L 375.339073 80.120195 
L 375.339073 79.628488 
L 375.478773 79.628488 
L 375.478773 79.13678 
L 376.1633 79.13678 
L 376.1633 78.645073 
L 376.875767 78.645073 
L 376.875767 78.153366 
L 377.581249 78.153366 
L 377.581249 77.661659 
L 378.269269 77.661659 
L 378.269269 77.169951 
L 378.810605 77.169951 
L 378.810605 76.678244 
L 378.971259 76.678244 
L 378.971259 76.186537 
L 379.676741 76.186537 
L 379.687219 75.203122 
L 380.371746 75.203122 
L 380.371746 74.711415 
L 380.581295 74.711415 
L 380.581295 74.219707 
L 381.087706 74.219707 
L 381.087706 73.728 
L 381.447432 73.728 
L 381.447432 73.236293 
L 381.779218 73.236293 
L 381.779218 72.744585 
L 382.306584 72.744585 
L 382.306584 72.252878 
L 382.47073 72.252878 
L 382.47073 71.761171 
L 383.169228 71.761171 
L 383.190183 70.777756 
L 383.871217 70.777756 
L 383.871217 70.286049 
L 384.063304 70.286049 
L 384.063304 69.794341 
L 384.569715 69.794341 
L 384.569715 69.302634 
L 384.922456 69.302634 
L 384.922456 68.810927 
L 385.278689 68.810927 
L 385.278689 68.31922 
L 385.79907 68.31922 
L 385.79907 67.827512 
L 385.994649 67.827512 
L 385.994649 67.335805 
L 386.651237 67.335805 
L 386.675684 66.35239 
L 387.374181 66.35239 
L 387.374181 65.860683 
L 387.510388 65.860683 
L 387.510388 65.368976 
L 388.079663 65.368976 
L 388.079663 64.877268 
L 388.387002 64.877268 
L 388.387002 64.385561 
L 388.764191 64.385561 
L 388.764191 63.893854 
L 389.239169 63.893854 
L 389.239169 63.402146 
L 389.462688 63.402146 
L 389.462688 62.910439 
L 390.108798 62.910439 
L 390.164678 61.927024 
L 390.863175 61.927024 
L 390.863175 61.435317 
L 391.002874 61.435317 
L 391.002874 60.94361 
L 391.54421 60.94361 
L 391.54421 60.451902 
L 391.865519 60.451902 
L 391.865519 59.960195 
L 392.23223 59.960195 
L 392.23223 59.468488 
L 392.742133 59.468488 
L 392.742133 58.97678 
L 392.913265 58.97678 
L 392.913265 58.485073 
L 393.601284 58.485073 
L 393.615254 57.501659 
L 394.289304 57.501659 
L 394.289304 57.009951 
L 394.477898 57.009951 
L 394.477898 56.518244 
L 394.980816 56.518244 
L 394.980816 56.026537 
L 395.358005 56.026537 
L 395.358005 55.534829 
L 396.381303 55.534829 
L 396.381303 55.043122 
L 397.086786 55.043122 
L 397.086786 54.551415 
L 397.78179 54.551415 
L 397.78179 54.059707 
L 398.487273 54.059707 
L 398.487273 53.568 
L 398.487273 53.568 
" clip-path="url(#pb14e9263a6)" style="fill: none; stroke: #1f77b4; stroke-width: 1.5; stroke-linecap: square"/>
   </g>
   <g id="patch_3">
    <path d="M 57.6 307.584 
L 57.6 41.472 
" style="fill: none; stroke: #000000; stroke-width: 0.8; stroke-linejoin: miter; stroke-linecap: square"/>
   </g>
   <g id="patch_4">
    <path d="M 414.72 307.584 
L 414.72 41.472 
" style="fill: none; stroke: #000000; stroke-width: 0.8; stroke-linejoin: miter; stroke-linecap: square"/>
   </g>
   <g id="patch_5">
    <path d="M 57.6 307.584 
L 414.72 307.584 
" style="fill: none; stroke: #000000; stroke-width: 0.8; stroke-linejoin: miter; stroke-linecap: square"/>
   </g>
   <g id="patch_6">
    <path d="M 57.6 41.472 
L 414.72 41.472 
" style="fill: none; stroke: #000000; stroke-width: 0.8; stroke-linejoin: miter; stroke-linecap: square"/>
   </g>
   <g id="text_12">
    <!-- Execution time between S1 S15 (xx1xx2xx0yyy45xx0yyy45xx0yyy3xx1xx0yyy45xx0yyy45xx0yyy45) -->
    <g transform="translate(-70.264688 35.472) scale(0.12 -0.12)">
     <defs>
      <path id="DejaVuSans-45" d="M 628 4666 
L 3578 4666 
L 3578 4134 
L 1259 4134 
L 1259 2753 
L 3481 2753 
L 3481 2222 
L 1259 2222 
L 1259 531 
L 3634 531 
L 3634 0 
L 628 0 
L 628 4666 
z
" transform="scale(0.015625)"/>
      <path id="DejaVuSans-78" d="M 3513 3500 
L 2247 1797 
L 3578 0 
L 2900 0 
L 1881 1375 
L 863 0 
L 184 0 
L 1544 1831 
L 300 3500 
L 978 3500 
L 1906 2253 
L 2834 3500 
L 3513 3500 
z
" transform="scale(0.015625)"/>
      <path id="DejaVuSans-65" d="M 3597 1894 
L 3597 1613 
L 953 1613 
Q 991 1019 1311 708 
Q 1631 397 2203 397 
Q 2534 397 2845 478 
Q 3156 559 3463 722 
L 3463 178 
Q 3153 47 2828 -22 
Q 2503 -91 2169 -91 
Q 1331 -91 842 396 
Q 353 884 353 1716 
Q 353 2575 817 3079 
Q 1281 3584 2069 3584 
Q 2775 3584 3186 3129 
Q 3597 2675 3597 1894 
z
M 3022 2063 
Q 3016 2534 2758 2815 
Q 2500 3097 2075 3097 
Q 1594 3097 1305 2825 
Q 1016 2553 972 2059 
L 3022 2063 
z
" transform="scale(0.015625)"/>
      <path id="DejaVuSans-63" d="M 3122 3366 
L 3122 2828 
Q 2878 2963 2633 3030 
Q 2388 3097 2138 3097 
Q 1578 3097 1268 2742 
Q 959 2388 959 1747 
Q 959 1106 1268 751 
Q 1578 397 2138 397 
Q 2388 397 2633 464 
Q 2878 531 3122 666 
L 3122 134 
Q 2881 22 2623 -34 
Q 2366 -91 2075 -91 
Q 1284 -91 818 406 
Q 353 903 353 1747 
Q 353 2603 823 3093 
Q 1294 3584 2113 3584 
Q 2378 3584 2631 3529 
Q 2884 3475 3122 3366 
z
" transform="scale(0.015625)"/>
      <path id="DejaVuSans-75" d="M 544 1381 
L 544 3500 
L 1119 3500 
L 1119 1403 
Q 1119 906 1312 657 
Q 1506 409 1894 409 
Q 2359 409 2629 706 
Q 2900 1003 2900 1516 
L 2900 3500 
L 3475 3500 
L 3475 0 
L 2900 0 
L 2900 538 
Q 2691 219 2414 64 
Q 2138 -91 1772 -91 
Q 1169 -91 856 284 
Q 544 659 544 1381 
z
M 1991 3584 
L 1991 3584 
z
" transform="scale(0.015625)"/>
      <path id="DejaVuSans-74" d="M 1172 4494 
L 1172 3500 
L 2356 3500 
L 2356 3053 
L 1172 3053 
L 1172 1153 
Q 1172 725 1289 603 
Q 1406 481 1766 481 
L 2356 481 
L 2356 0 
L 1766 0 
Q 1100 0 847 248 
Q 594 497 594 1153 
L 594 3053 
L 172 3053 
L 172 3500 
L 594 3500 
L 594 4494 
L 1172 4494 
z
" transform="scale(0.015625)"/>
      <path id="DejaVuSans-69" d="M 603 3500 
L 1178 3500 
L 1178 0 
L 603 0 
L 603 3500 
z
M 603 4863 
L 1178 4863 
L 1178 4134 
L 603 4134 
L 603 4863 
z
" transform="scale(0.015625)"/>
      <path id="DejaVuSans-6f" d="M 1959 3097 
Q 1497 3097 1228 2736 
Q 959 2375 959 1747 
Q 959 1119 1226 758 
Q 1494 397 1959 397 
Q 2419 397 2687 759 
Q 2956 1122 2956 1747 
Q 2956 2369 2687 2733 
Q 2419 3097 1959 3097 
z
M 1959 3584 
Q 2709 3584 3137 3096 
Q 3566 2609 3566 1747 
Q 3566 888 3137 398 
Q 2709 -91 1959 -91 
Q 1206 -91 779 398 
Q 353 888 353 1747 
Q 353 2609 779 3096 
Q 1206 3584 1959 3584 
z
" transform="scale(0.015625)"/>
      <path id="DejaVuSans-6e" d="M 3513 2113 
L 3513 0 
L 2938 0 
L 2938 2094 
Q 2938 2591 2744 2837 
Q 2550 3084 2163 3084 
Q 1697 3084 1428 2787 
Q 1159 2491 1159 1978 
L 1159 0 
L 581 0 
L 581 3500 
L 1159 3500 
L 1159 2956 
Q 1366 3272 1645 3428 
Q 1925 3584 2291 3584 
Q 2894 3584 3203 3211 
Q 3513 2838 3513 2113 
z
" transform="scale(0.015625)"/>
      <path id="DejaVuSans-20" transform="scale(0.015625)"/>
      <path id="DejaVuSans-6d" d="M 3328 2828 
Q 3544 3216 3844 3400 
Q 4144 3584 4550 3584 
Q 5097 3584 5394 3201 
Q 5691 2819 5691 2113 
L 5691 0 
L 5113 0 
L 5113 2094 
Q 5113 2597 4934 2840 
Q 4756 3084 4391 3084 
Q 3944 3084 3684 2787 
Q 3425 2491 3425 1978 
L 3425 0 
L 2847 0 
L 2847 2094 
Q 2847 2600 2669 2842 
Q 2491 3084 2119 3084 
Q 1678 3084 1418 2786 
Q 1159 2488 1159 1978 
L 1159 0 
L 581 0 
L 581 3500 
L 1159 3500 
L 1159 2956 
Q 1356 3278 1631 3431 
Q 1906 3584 2284 3584 
Q 2666 3584 2933 3390 
Q 3200 3197 3328 2828 
z
" transform="scale(0.015625)"/>
      <path id="DejaVuSans-62" d="M 3116 1747 
Q 3116 2381 2855 2742 
Q 2594 3103 2138 3103 
Q 1681 3103 1420 2742 
Q 1159 2381 1159 1747 
Q 1159 1113 1420 752 
Q 1681 391 2138 391 
Q 2594 391 2855 752 
Q 3116 1113 3116 1747 
z
M 1159 2969 
Q 1341 3281 1617 3432 
Q 1894 3584 2278 3584 
Q 2916 3584 3314 3078 
Q 3713 2572 3713 1747 
Q 3713 922 3314 415 
Q 2916 -91 2278 -91 
Q 1894 -91 1617 61 
Q 1341 213 1159 525 
L 1159 0 
L 581 0 
L 581 4863 
L 1159 4863 
L 1159 2969 
z
" transform="scale(0.015625)"/>
      <path id="DejaVuSans-77" d="M 269 3500 
L 844 3500 
L 1563 769 
L 2278 3500 
L 2956 3500 
L 3675 769 
L 4391 3500 
L 4966 3500 
L 4050 0 
L 3372 0 
L 2619 2869 
L 1863 0 
L 1184 0 
L 269 3500 
z
" transform="scale(0.015625)"/>
      <path id="DejaVuSans-53" d="M 3425 4513 
L 3425 3897 
Q 3066 4069 2747 4153 
Q 2428 4238 2131 4238 
Q 1616 4238 1336 4038 
Q 1056 3838 1056 3469 
Q 1056 3159 1242 3001 
Q 1428 2844 1947 2747 
L 2328 2669 
Q 3034 2534 3370 2195 
Q 3706 1856 3706 1288 
Q 3706 609 3251 259 
Q 2797 -91 1919 -91 
Q 1588 -91 1214 -16 
Q 841 59 441 206 
L 441 856 
Q 825 641 1194 531 
Q 1563 422 1919 422 
Q 2459 422 2753 634 
Q 3047 847 3047 1241 
Q 3047 1584 2836 1778 
Q 2625 1972 2144 2069 
L 1759 2144 
Q 1053 2284 737 2584 
Q 422 2884 422 3419 
Q 422 4038 858 4394 
Q 1294 4750 2059 4750 
Q 2388 4750 2728 4690 
Q 3069 4631 3425 4513 
z
" transform="scale(0.015625)"/>
      <path id="DejaVuSans-35" d="M 691 4666 
L 3169 4666 
L 3169 4134 
L 1269 4134 
L 1269 2991 
Q 1406 3038 1543 3061 
Q 1681 3084 1819 3084 
Q 2600 3084 3056 2656 
Q 3513 2228 3513 1497 
Q 3513 744 3044 326 
Q 2575 -91 1722 -91 
Q 1428 -91 1123 -41 
Q 819 9 494 109 
L 494 744 
Q 775 591 1075 516 
Q 1375 441 1709 441 
Q 2250 441 2565 725 
Q 2881 1009 2881 1497 
Q 2881 1984 2565 2268 
Q 2250 2553 1709 2553 
Q 1456 2553 1204 2497 
Q 953 2441 691 2322 
L 691 4666 
z
" transform="scale(0.015625)"/>
      <path id="DejaVuSans-28" d="M 1984 4856 
Q 1566 4138 1362 3434 
Q 1159 2731 1159 2009 
Q 1159 1288 1364 580 
Q 1569 -128 1984 -844 
L 1484 -844 
Q 1016 -109 783 600 
Q 550 1309 550 2009 
Q 550 2706 781 3412 
Q 1013 4119 1484 4856 
L 1984 4856 
z
" transform="scale(0.015625)"/>
      <path id="DejaVuSans-79" d="M 2059 -325 
Q 1816 -950 1584 -1140 
Q 1353 -1331 966 -1331 
L 506 -1331 
L 506 -850 
L 844 -850 
Q 1081 -850 1212 -737 
Q 1344 -625 1503 -206 
L 1606 56 
L 191 3500 
L 800 3500 
L 1894 763 
L 2988 3500 
L 3597 3500 
L 2059 -325 
z
" transform="scale(0.015625)"/>
      <path id="DejaVuSans-33" d="M 2597 2516 
Q 3050 2419 3304 2112 
Q 3559 1806 3559 1356 
Q 3559 666 3084 287 
Q 2609 -91 1734 -91 
Q 1441 -91 1130 -33 
Q 819 25 488 141 
L 488 750 
Q 750 597 1062 519 
Q 1375 441 1716 441 
Q 2309 441 2620 675 
Q 2931 909 2931 1356 
Q 2931 1769 2642 2001 
Q 2353 2234 1838 2234 
L 1294 2234 
L 1294 2753 
L 1863 2753 
Q 2328 2753 2575 2939 
Q 2822 3125 2822 3475 
Q 2822 3834 2567 4026 
Q 2313 4219 1838 4219 
Q 1578 4219 1281 4162 
Q 984 4106 628 3988 
L 628 4550 
Q 988 4650 1302 4700 
Q 1616 4750 1894 4750 
Q 2613 4750 3031 4423 
Q 3450 4097 3450 3541 
Q 3450 3153 3228 2886 
Q 3006 2619 2597 2516 
z
" transform="scale(0.015625)"/>
      <path id="DejaVuSans-29" d="M 513 4856 
L 1013 4856 
Q 1481 4119 1714 3412 
Q 1947 2706 1947 2009 
Q 1947 1309 1714 600 
Q 1481 -109 1013 -844 
L 513 -844 
Q 928 -128 1133 580 
Q 1338 1288 1338 2009 
Q 1338 2731 1133 3434 
Q 928 4138 513 4856 
z
" transform="scale(0.015625)"/>
     </defs>
     <use xlink:href="#DejaVuSans-45"/>
     <use xlink:href="#DejaVuSans-78" x="63.183594"/>
     <use xlink:href="#DejaVuSans-65" x="119.238281"/>
     <use xlink:href="#DejaVuSans-63" x="180.761719"/>
     <use xlink:href="#DejaVuSans-75" x="235.742188"/>
     <use xlink:href="#DejaVuSans-74" x="299.121094"/>
     <use xlink:href="#DejaVuSans-69" x="338.330078"/>
     <use xlink:href="#DejaVuSans-6f" x="366.113281"/>
     <use xlink:href="#DejaVuSans-6e" x="427.294922"/>
     <use xlink:href="#DejaVuSans-20" x="490.673828"/>
     <use xlink:href="#DejaVuSans-74" x="522.460938"/>
     <use xlink:href="#DejaVuSans-69" x="561.669922"/>
     <use xlink:href="#DejaVuSans-6d" x="589.453125"/>
     <use xlink:href="#DejaVuSans-65" x="686.865234"/>
     <use xlink:href="#DejaVuSans-20" x="748.388672"/>
     <use xlink:href="#DejaVuSans-62" x="780.175781"/>
     <use xlink:href="#DejaVuSans-65" x="843.652344"/>
     <use xlink:href="#DejaVuSans-74" x="905.175781"/>
     <use xlink:href="#DejaVuSans-77" x="944.384766"/>
     <use xlink:href="#DejaVuSans-65" x="1026.171875"/>
     <use xlink:href="#DejaVuSans-65" x="1087.695312"/>
     <use xlink:href="#DejaVuSans-6e" x="1149.21875"/>
     <use xlink:href="#DejaVuSans-20" x="1212.597656"/>
     <use xlink:href="#DejaVuSans-53" x="1244.384766"/>
     <use xlink:href="#DejaVuSans-31" x="1307.861328"/>
     <use xlink:href="#DejaVuSans-20" x="1371.484375"/>
     <use xlink:href="#DejaVuSans-53" x="1403.271484"/>
     <use xlink:href="#DejaVuSans-31" x="1466.748047"/>
     <use xlink:href="#DejaVuSans-35" x="1530.371094"/>
     <use xlink:href="#DejaVuSans-20" x="1593.994141"/>
     <use xlink:href="#DejaVuSans-28" x="1625.78125"/>
     <use xlink:href="#DejaVuSans-78" x="1664.794922"/>
     <use xlink:href="#DejaVuSans-78" x="1723.974609"/>
     <use xlink:href="#DejaVuSans-31" x="1783.154297"/>
     <use xlink:href="#DejaVuSans-78" x="1846.777344"/>
     <use xlink:href="#DejaVuSans-78" x="1905.957031"/>
     <use xlink:href="#DejaVuSans-32" x="1965.136719"/>
     <use xlink:href="#DejaVuSans-78" x="2028.759766"/>
     <use xlink:href="#DejaVuSans-78" x="2087.939453"/>
     <use xlink:href="#DejaVuSans-30" x="2147.119141"/>
     <use xlink:href="#DejaVuSans-79" x="2210.742188"/>
     <use xlink:href="#DejaVuSans-79" x="2269.921875"/>
     <use xlink:href="#DejaVuSans-79" x="2329.101562"/>
     <use xlink:href="#DejaVuSans-34" x="2388.28125"/>
     <use xlink:href="#DejaVuSans-35" x="2451.904297"/>
     <use xlink:href="#DejaVuSans-78" x="2515.527344"/>
     <use xlink:href="#DejaVuSans-78" x="2574.707031"/>
     <use xlink:href="#DejaVuSans-30" x="2633.886719"/>
     <use xlink:href="#DejaVuSans-79" x="2697.509766"/>
     <use xlink:href="#DejaVuSans-79" x="2756.689453"/>
     <use xlink:href="#DejaVuSans-79" x="2815.869141"/>
     <use xlink:href="#DejaVuSans-34" x="2875.048828"/>
     <use xlink:href="#DejaVuSans-35" x="2938.671875"/>
     <use xlink:href="#DejaVuSans-78" x="3002.294922"/>
     <use xlink:href="#DejaVuSans-78" x="3061.474609"/>
     <use xlink:href="#DejaVuSans-30" x="3120.654297"/>
     <use xlink:href="#DejaVuSans-79" x="3184.277344"/>
     <use xlink:href="#DejaVuSans-79" x="3243.457031"/>
     <use xlink:href="#DejaVuSans-79" x="3302.636719"/>
     <use xlink:href="#DejaVuSans-33" x="3361.816406"/>
     <use xlink:href="#DejaVuSans-78" x="3425.439453"/>
     <use xlink:href="#DejaVuSans-78" x="3484.619141"/>
     <use xlink:href="#DejaVuSans-31" x="3543.798828"/>
     <use xlink:href="#DejaVuSans-78" x="3607.421875"/>
     <use xlink:href="#DejaVuSans-78" x="3666.601562"/>
     <use xlink:href="#DejaVuSans-30" x="3725.78125"/>
     <use xlink:href="#DejaVuSans-79" x="3789.404297"/>
     <use xlink:href="#DejaVuSans-79" x="3848.583984"/>
     <use xlink:href="#DejaVuSans-79" x="3907.763672"/>
     <use xlink:href="#DejaVuSans-34" x="3966.943359"/>
     <use xlink:href="#DejaVuSans-35" x="4030.566406"/>
     <use xlink:href="#DejaVuSans-78" x="4094.189453"/>
     <use xlink:href="#DejaVuSans-78" x="4153.369141"/>
     <use xlink:href="#DejaVuSans-30" x="4212.548828"/>
     <use xlink:href="#DejaVuSans-79" x="4276.171875"/>
     <use xlink:href="#DejaVuSans-79" x="4335.351562"/>
     <use xlink:href="#DejaVuSans-79" x="4394.53125"/>
     <use xlink:href="#DejaVuSans-34" x="4453.710938"/>
     <use xlink:href="#DejaVuSans-35" x="4517.333984"/>
     <use xlink:href="#DejaVuSans-78" x="4580.957031"/>
     <use xlink:href="#DejaVuSans-78" x="4640.136719"/>
     <use xlink:href="#DejaVuSans-30" x="4699.316406"/>
     <use xlink:href="#DejaVuSans-79" x="4762.939453"/>
     <use xlink:href="#DejaVuSans-79" x="4822.119141"/>
     <use xlink:href="#DejaVuSans-79" x="4881.298828"/>
     <use xlink:href="#DejaVuSans-34" x="4940.478516"/>
     <use xlink:href="#DejaVuSans-35" x="5004.101562"/>
     <use xlink:href="#DejaVuSans-29" x="5067.724609"/>
    </g>
   </g>
   <g id="legend_1">
    <g id="patch_7">
     <path d="M 84.895313 304.584 
L 410.52 304.584 
Q 411.72 304.584 411.72 303.384 
L 411.72 295.177125 
Q 411.72 293.977125 410.52 293.977125 
L 84.895313 293.977125 
Q 83.695313 293.977125 83.695313 295.177125 
L 83.695313 303.384 
Q 83.695313 304.584 84.895313 304.584 
z
" style="fill: #ffffff; opacity: 0.8; stroke: #cccccc; stroke-linejoin: miter"/>
    </g>
    <g id="line2d_13">
     <path d="M 86.095313 298.836187 
L 92.095313 298.836187 
L 98.095313 298.836187 
" style="fill: none; stroke: #1f77b4; stroke-width: 1.5; stroke-linecap: square"/>
    </g>
    <g id="text_13">
     <!-- Execution time between S1 S15 (xx1xx2xx0yyy45xx0yyy45xx0yyy3xx1xx0yyy45xx0yyy45xx0yyy45) -->
     <g transform="translate(102.895313 300.936187) scale(0.06 -0.06)">
      <use xlink:href="#DejaVuSans-45"/>
      <use xlink:href="#DejaVuSans-78" x="63.183594"/>
      <use xlink:href="#DejaVuSans-65" x="119.238281"/>
      <use xlink:href="#DejaVuSans-63" x="180.761719"/>
      <use xlink:href="#DejaVuSans-75" x="235.742188"/>
      <use xlink:href="#DejaVuSans-74" x="299.121094"/>
      <use xlink:href="#DejaVuSans-69" x="338.330078"/>
      <use xlink:href="#DejaVuSans-6f" x="366.113281"/>
      <use xlink:href="#DejaVuSans-6e" x="427.294922"/>
      <use xlink:href="#DejaVuSans-20" x="490.673828"/>
      <use xlink:href="#DejaVuSans-74" x="522.460938"/>
      <use xlink:href="#DejaVuSans-69" x="561.669922"/>
      <use xlink:href="#DejaVuSans-6d" x="589.453125"/>
      <use xlink:href="#DejaVuSans-65" x="686.865234"/>
      <use xlink:href="#DejaVuSans-20" x="748.388672"/>
      <use xlink:href="#DejaVuSans-62" x="780.175781"/>
      <use xlink:href="#DejaVuSans-65" x="843.652344"/>
      <use xlink:href="#DejaVuSans-74" x="905.175781"/>
      <use xlink:href="#DejaVuSans-77" x="944.384766"/>
      <use xlink:href="#DejaVuSans-65" x="1026.171875"/>
      <use xlink:href="#DejaVuSans-65" x="1087.695312"/>
      <use xlink:href="#DejaVuSans-6e" x="1149.21875"/>
      <use xlink:href="#DejaVuSans-20" x="1212.597656"/>
      <use xlink:href="#DejaVuSans-53" x="1244.384766"/>
      <use xlink:href="#DejaVuSans-31" x="1307.861328"/>
      <use xlink:href="#DejaVuSans-20" x="1371.484375"/>
      <use xlink:href="#DejaVuSans-53" x="1403.271484"/>
      <use xlink:href="#DejaVuSans-31" x="1466.748047"/>
      <use xlink:href="#DejaVuSans-35" x="1530.371094"/>
      <use xlink:href="#DejaVuSans-20" x="1593.994141"/>
      <use xlink:href="#DejaVuSans-28" x="1625.78125"/>
      <use xlink:href="#DejaVuSans-78" x="1664.794922"/>
      <use xlink:href="#DejaVuSans-78" x="1723.974609"/>
      <use xlink:href="#DejaVuSans-31" x="1783.154297"/>
      <use xlink:href="#DejaVuSans-78" x="1846.777344"/>
      <use xlink:href="#DejaVuSans-78" x="1905.957031"/>
      <use xlink:href="#DejaVuSans-32" x="1965.136719"/>
      <use xlink:href="#DejaVuSans-78" x="2028.759766"/>
      <use xlink:href="#DejaVuSans-78" x="2087.939453"/>
      <use xlink:href="#DejaVuSans-30" x="2147.119141"/>
      <use xlink:href="#DejaVuSans-79" x="2210.742188"/>
      <use xlink:href="#DejaVuSans-79" x="2269.921875"/>
      <use xlink:href="#DejaVuSans-79" x="2329.101562"/>
      <use xlink:href="#DejaVuSans-34" x="2388.28125"/>
      <use xlink:href="#DejaVuSans-35" x="2451.904297"/>
      <use xlink:href="#DejaVuSans-78" x="2515.527344"/>
      <use xlink:href="#DejaVuSans-78" x="2574.707031"/>
      <use xlink:href="#DejaVuSans-30" x="2633.886719"/>
      <use xlink:href="#DejaVuSans-79" x="2697.509766"/>
      <use xlink:href="#DejaVuSans-79" x="2756.689453"/>
      <use xlink:href="#DejaVuSans-79" x="2815.869141"/>
      <use xlink:href="#DejaVuSans-34" x="2875.048828"/>
      <use xlink:href="#DejaVuSans-35" x="2938.671875"/>
      <use xlink:href="#DejaVuSans-78" x="3002.294922"/>
      <use xlink:href="#DejaVuSans-78" x="3061.474609"/>
      <use xlink:href="#DejaVuSans-30" x="3120.654297"/>
      <use xlink:href="#DejaVuSans-79" x="3184.277344"/>
      <use xlink:href="#DejaVuSans-79" x="3243.457031"/>
      <use xlink:href="#DejaVuSans-79" x="3302.636719"/>
      <use xlink:href="#DejaVuSans-33" x="3361.816406"/>
      <use xlink:href="#DejaVuSans-78" x="3425.439453"/>
      <use xlink:href="#DejaVuSans-78" x="3484.619141"/>
      <use xlink:href="#DejaVuSans-31" x="3543.798828"/>
      <use xlink:href="#DejaVuSans-78" x="3607.421875"/>
      <use xlink:href="#DejaVuSans-78" x="3666.601562"/>
      <use xlink:href="#DejaVuSans-30" x="3725.78125"/>
      <use xlink:href="#DejaVuSans-79" x="3789.404297"/>
      <use xlink:href="#DejaVuSans-79" x="3848.583984"/>
      <use xlink:href="#DejaVuSans-79" x="3907.763672"/>
      <use xlink:href="#DejaVuSans-34" x="3966.943359"/>
      <use xlink:href="#DejaVuSans-35" x="4030.566406"/>
      <use xlink:href="#DejaVuSans-78" x="4094.189453"/>
      <use xlink:href="#DejaVuSans-78" x="4153.369141"/>
      <use xlink:href="#DejaVuSans-30" x="4212.548828"/>
      <use xlink:href="#DejaVuSans-79" x="4276.171875"/>
      <use xlink:href="#DejaVuSans-79" x="4335.351562"/>
      <use xlink:href="#DejaVuSans-79" x="4394.53125"/>
      <use xlink:href="#DejaVuSans-34" x="4453.710938"/>
      <use xlink:href="#DejaVuSans-35" x="4517.333984"/>
      <use xlink:href="#DejaVuSans-78" x="4580.957031"/>
      <use xlink:href="#DejaVuSans-78" x="4640.136719"/>
      <use xlink:href="#DejaVuSans-30" x="4699.316406"/>
      <use xlink:href="#DejaVuSans-79" x="4762.939453"/>
      <use xlink:href="#DejaVuSans-79" x="4822.119141"/>
      <use xlink:href="#DejaVuSans-79" x="4881.298828"/>
      <use xlink:href="#DejaVuSans-34" x="4940.478516"/>
      <use xlink:href="#DejaVuSans-35" x="5004.101562"/>
      <use xlink:href="#DejaVuSans-29" x="5067.724609"/>
     </g>
    </g>
   </g>
  </g>
 </g>
 <defs>
  <clipPath id="pb14e9263a6">
   <rect x="57.6" y="41.472" width="357.12" height="266.112"/>
  </clipPath>
 </defs>
</svg>
