<?xml version="1.0" encoding="utf-8" standalone="no"?>
<!DOCTYPE svg PUBLIC "-//W3C//DTD SVG 1.1//EN"
  "http://www.w3.org/Graphics/SVG/1.1/DTD/svg11.dtd">
<svg xmlns:xlink="http://www.w3.org/1999/xlink" width="460.8pt" height="345.6pt" viewBox="0 0 460.8 345.6" xmlns="http://www.w3.org/2000/svg" version="1.1">
 <metadata>
  <rdf:RDF xmlns:dc="http://purl.org/dc/elements/1.1/" xmlns:cc="http://creativecommons.org/ns#" xmlns:rdf="http://www.w3.org/1999/02/22-rdf-syntax-ns#">
   <cc:Work>
    <dc:type rdf:resource="http://purl.org/dc/dcmitype/StillImage"/>
    <dc:date>2024-03-08T13:16:43.144035</dc:date>
    <dc:format>image/svg+xml</dc:format>
    <dc:creator>
     <cc:Agent>
      <dc:title>Matplotlib v3.8.2, https://matplotlib.org/</dc:title>
     </cc:Agent>
    </dc:creator>
   </cc:Work>
  </rdf:RDF>
 </metadata>
 <defs>
  <style type="text/css">*{stroke-linejoin: round; stroke-linecap: butt}</style>
 </defs>
 <g id="figure_1">
  <g id="patch_1">
   <path d="M 0 345.6 
L 460.8 345.6 
L 460.8 0 
L 0 0 
z
" style="fill: #ffffff"/>
  </g>
  <g id="axes_1">
   <g id="patch_2">
    <path d="M 57.6 307.584 
L 414.72 307.584 
L 414.72 41.472 
L 57.6 41.472 
z
" style="fill: #ffffff"/>
   </g>
   <g id="matplotlib.axis_1">
    <g id="xtick_1">
     <g id="line2d_1">
      <defs>
       <path id="mfcf91c92a6" d="M 0 0 
L 0 3.5 
" style="stroke: #000000; stroke-width: 0.8"/>
      </defs>
      <g>
       <use xlink:href="#mfcf91c92a6" x="73.832727" y="307.584" style="stroke: #000000; stroke-width: 0.8"/>
      </g>
     </g>
     <g id="text_1">
      <!-- 0 -->
      <g transform="translate(70.651477 322.182437) scale(0.1 -0.1)">
       <defs>
        <path id="DejaVuSans-30" d="M 2034 4250 
Q 1547 4250 1301 3770 
Q 1056 3291 1056 2328 
Q 1056 1369 1301 889 
Q 1547 409 2034 409 
Q 2525 409 2770 889 
Q 3016 1369 3016 2328 
Q 3016 3291 2770 3770 
Q 2525 4250 2034 4250 
z
M 2034 4750 
Q 2819 4750 3233 4129 
Q 3647 3509 3647 2328 
Q 3647 1150 3233 529 
Q 2819 -91 2034 -91 
Q 1250 -91 836 529 
Q 422 1150 422 2328 
Q 422 3509 836 4129 
Q 1250 4750 2034 4750 
z
" transform="scale(0.015625)"/>
       </defs>
       <use xlink:href="#DejaVuSans-30"/>
      </g>
     </g>
    </g>
    <g id="xtick_2">
     <g id="line2d_2">
      <g>
       <use xlink:href="#mfcf91c92a6" x="117.866818" y="307.584" style="stroke: #000000; stroke-width: 0.8"/>
      </g>
     </g>
     <g id="text_2">
      <!-- 25000 -->
      <g transform="translate(101.960568 322.182437) scale(0.1 -0.1)">
       <defs>
        <path id="DejaVuSans-32" d="M 1228 531 
L 3431 531 
L 3431 0 
L 469 0 
L 469 531 
Q 828 903 1448 1529 
Q 2069 2156 2228 2338 
Q 2531 2678 2651 2914 
Q 2772 3150 2772 3378 
Q 2772 3750 2511 3984 
Q 2250 4219 1831 4219 
Q 1534 4219 1204 4116 
Q 875 4013 500 3803 
L 500 4441 
Q 881 4594 1212 4672 
Q 1544 4750 1819 4750 
Q 2544 4750 2975 4387 
Q 3406 4025 3406 3419 
Q 3406 3131 3298 2873 
Q 3191 2616 2906 2266 
Q 2828 2175 2409 1742 
Q 1991 1309 1228 531 
z
" transform="scale(0.015625)"/>
        <path id="DejaVuSans-35" d="M 691 4666 
L 3169 4666 
L 3169 4134 
L 1269 4134 
L 1269 2991 
Q 1406 3038 1543 3061 
Q 1681 3084 1819 3084 
Q 2600 3084 3056 2656 
Q 3513 2228 3513 1497 
Q 3513 744 3044 326 
Q 2575 -91 1722 -91 
Q 1428 -91 1123 -41 
Q 819 9 494 109 
L 494 744 
Q 775 591 1075 516 
Q 1375 441 1709 441 
Q 2250 441 2565 725 
Q 2881 1009 2881 1497 
Q 2881 1984 2565 2268 
Q 2250 2553 1709 2553 
Q 1456 2553 1204 2497 
Q 953 2441 691 2322 
L 691 4666 
z
" transform="scale(0.015625)"/>
       </defs>
       <use xlink:href="#DejaVuSans-32"/>
       <use xlink:href="#DejaVuSans-35" x="63.623047"/>
       <use xlink:href="#DejaVuSans-30" x="127.246094"/>
       <use xlink:href="#DejaVuSans-30" x="190.869141"/>
       <use xlink:href="#DejaVuSans-30" x="254.492188"/>
      </g>
     </g>
    </g>
    <g id="xtick_3">
     <g id="line2d_3">
      <g>
       <use xlink:href="#mfcf91c92a6" x="161.900909" y="307.584" style="stroke: #000000; stroke-width: 0.8"/>
      </g>
     </g>
     <g id="text_3">
      <!-- 50000 -->
      <g transform="translate(145.994659 322.182437) scale(0.1 -0.1)">
       <use xlink:href="#DejaVuSans-35"/>
       <use xlink:href="#DejaVuSans-30" x="63.623047"/>
       <use xlink:href="#DejaVuSans-30" x="127.246094"/>
       <use xlink:href="#DejaVuSans-30" x="190.869141"/>
       <use xlink:href="#DejaVuSans-30" x="254.492188"/>
      </g>
     </g>
    </g>
    <g id="xtick_4">
     <g id="line2d_4">
      <g>
       <use xlink:href="#mfcf91c92a6" x="205.935" y="307.584" style="stroke: #000000; stroke-width: 0.8"/>
      </g>
     </g>
     <g id="text_4">
      <!-- 75000 -->
      <g transform="translate(190.02875 322.182437) scale(0.1 -0.1)">
       <defs>
        <path id="DejaVuSans-37" d="M 525 4666 
L 3525 4666 
L 3525 4397 
L 1831 0 
L 1172 0 
L 2766 4134 
L 525 4134 
L 525 4666 
z
" transform="scale(0.015625)"/>
       </defs>
       <use xlink:href="#DejaVuSans-37"/>
       <use xlink:href="#DejaVuSans-35" x="63.623047"/>
       <use xlink:href="#DejaVuSans-30" x="127.246094"/>
       <use xlink:href="#DejaVuSans-30" x="190.869141"/>
       <use xlink:href="#DejaVuSans-30" x="254.492188"/>
      </g>
     </g>
    </g>
    <g id="xtick_5">
     <g id="line2d_5">
      <g>
       <use xlink:href="#mfcf91c92a6" x="249.969091" y="307.584" style="stroke: #000000; stroke-width: 0.8"/>
      </g>
     </g>
     <g id="text_5">
      <!-- 100000 -->
      <g transform="translate(230.881591 322.182437) scale(0.1 -0.1)">
       <defs>
        <path id="DejaVuSans-31" d="M 794 531 
L 1825 531 
L 1825 4091 
L 703 3866 
L 703 4441 
L 1819 4666 
L 2450 4666 
L 2450 531 
L 3481 531 
L 3481 0 
L 794 0 
L 794 531 
z
" transform="scale(0.015625)"/>
       </defs>
       <use xlink:href="#DejaVuSans-31"/>
       <use xlink:href="#DejaVuSans-30" x="63.623047"/>
       <use xlink:href="#DejaVuSans-30" x="127.246094"/>
       <use xlink:href="#DejaVuSans-30" x="190.869141"/>
       <use xlink:href="#DejaVuSans-30" x="254.492188"/>
       <use xlink:href="#DejaVuSans-30" x="318.115234"/>
      </g>
     </g>
    </g>
    <g id="xtick_6">
     <g id="line2d_6">
      <g>
       <use xlink:href="#mfcf91c92a6" x="294.003182" y="307.584" style="stroke: #000000; stroke-width: 0.8"/>
      </g>
     </g>
     <g id="text_6">
      <!-- 125000 -->
      <g transform="translate(274.915682 322.182437) scale(0.1 -0.1)">
       <use xlink:href="#DejaVuSans-31"/>
       <use xlink:href="#DejaVuSans-32" x="63.623047"/>
       <use xlink:href="#DejaVuSans-35" x="127.246094"/>
       <use xlink:href="#DejaVuSans-30" x="190.869141"/>
       <use xlink:href="#DejaVuSans-30" x="254.492188"/>
       <use xlink:href="#DejaVuSans-30" x="318.115234"/>
      </g>
     </g>
    </g>
    <g id="xtick_7">
     <g id="line2d_7">
      <g>
       <use xlink:href="#mfcf91c92a6" x="338.037273" y="307.584" style="stroke: #000000; stroke-width: 0.8"/>
      </g>
     </g>
     <g id="text_7">
      <!-- 150000 -->
      <g transform="translate(318.949773 322.182437) scale(0.1 -0.1)">
       <use xlink:href="#DejaVuSans-31"/>
       <use xlink:href="#DejaVuSans-35" x="63.623047"/>
       <use xlink:href="#DejaVuSans-30" x="127.246094"/>
       <use xlink:href="#DejaVuSans-30" x="190.869141"/>
       <use xlink:href="#DejaVuSans-30" x="254.492188"/>
       <use xlink:href="#DejaVuSans-30" x="318.115234"/>
      </g>
     </g>
    </g>
    <g id="xtick_8">
     <g id="line2d_8">
      <g>
       <use xlink:href="#mfcf91c92a6" x="382.071364" y="307.584" style="stroke: #000000; stroke-width: 0.8"/>
      </g>
     </g>
     <g id="text_8">
      <!-- 175000 -->
      <g transform="translate(362.983864 322.182437) scale(0.1 -0.1)">
       <use xlink:href="#DejaVuSans-31"/>
       <use xlink:href="#DejaVuSans-37" x="63.623047"/>
       <use xlink:href="#DejaVuSans-35" x="127.246094"/>
       <use xlink:href="#DejaVuSans-30" x="190.869141"/>
       <use xlink:href="#DejaVuSans-30" x="254.492188"/>
       <use xlink:href="#DejaVuSans-30" x="318.115234"/>
      </g>
     </g>
    </g>
   </g>
   <g id="matplotlib.axis_2">
    <g id="ytick_1">
     <g id="line2d_9">
      <defs>
       <path id="me641671515" d="M 0 0 
L -3.5 0 
" style="stroke: #000000; stroke-width: 0.8"/>
      </defs>
      <g>
       <use xlink:href="#me641671515" x="57.6" y="295.488" style="stroke: #000000; stroke-width: 0.8"/>
      </g>
     </g>
     <g id="text_9">
      <!-- 0.0 -->
      <g transform="translate(34.696875 299.287219) scale(0.1 -0.1)">
       <defs>
        <path id="DejaVuSans-2e" d="M 684 794 
L 1344 794 
L 1344 0 
L 684 0 
L 684 794 
z
" transform="scale(0.015625)"/>
       </defs>
       <use xlink:href="#DejaVuSans-30"/>
       <use xlink:href="#DejaVuSans-2e" x="63.623047"/>
       <use xlink:href="#DejaVuSans-30" x="95.410156"/>
      </g>
     </g>
    </g>
    <g id="ytick_2">
     <g id="line2d_10">
      <g>
       <use xlink:href="#me641671515" x="57.6" y="247.104" style="stroke: #000000; stroke-width: 0.8"/>
      </g>
     </g>
     <g id="text_10">
      <!-- 0.2 -->
      <g transform="translate(34.696875 250.903219) scale(0.1 -0.1)">
       <use xlink:href="#DejaVuSans-30"/>
       <use xlink:href="#DejaVuSans-2e" x="63.623047"/>
       <use xlink:href="#DejaVuSans-32" x="95.410156"/>
      </g>
     </g>
    </g>
    <g id="ytick_3">
     <g id="line2d_11">
      <g>
       <use xlink:href="#me641671515" x="57.6" y="198.72" style="stroke: #000000; stroke-width: 0.8"/>
      </g>
     </g>
     <g id="text_11">
      <!-- 0.4 -->
      <g transform="translate(34.696875 202.519219) scale(0.1 -0.1)">
       <defs>
        <path id="DejaVuSans-34" d="M 2419 4116 
L 825 1625 
L 2419 1625 
L 2419 4116 
z
M 2253 4666 
L 3047 4666 
L 3047 1625 
L 3713 1625 
L 3713 1100 
L 3047 1100 
L 3047 0 
L 2419 0 
L 2419 1100 
L 313 1100 
L 313 1709 
L 2253 4666 
z
" transform="scale(0.015625)"/>
       </defs>
       <use xlink:href="#DejaVuSans-30"/>
       <use xlink:href="#DejaVuSans-2e" x="63.623047"/>
       <use xlink:href="#DejaVuSans-34" x="95.410156"/>
      </g>
     </g>
    </g>
    <g id="ytick_4">
     <g id="line2d_12">
      <g>
       <use xlink:href="#me641671515" x="57.6" y="150.336" style="stroke: #000000; stroke-width: 0.8"/>
      </g>
     </g>
     <g id="text_12">
      <!-- 0.6 -->
      <g transform="translate(34.696875 154.135219) scale(0.1 -0.1)">
       <defs>
        <path id="DejaVuSans-36" d="M 2113 2584 
Q 1688 2584 1439 2293 
Q 1191 2003 1191 1497 
Q 1191 994 1439 701 
Q 1688 409 2113 409 
Q 2538 409 2786 701 
Q 3034 994 3034 1497 
Q 3034 2003 2786 2293 
Q 2538 2584 2113 2584 
z
M 3366 4563 
L 3366 3988 
Q 3128 4100 2886 4159 
Q 2644 4219 2406 4219 
Q 1781 4219 1451 3797 
Q 1122 3375 1075 2522 
Q 1259 2794 1537 2939 
Q 1816 3084 2150 3084 
Q 2853 3084 3261 2657 
Q 3669 2231 3669 1497 
Q 3669 778 3244 343 
Q 2819 -91 2113 -91 
Q 1303 -91 875 529 
Q 447 1150 447 2328 
Q 447 3434 972 4092 
Q 1497 4750 2381 4750 
Q 2619 4750 2861 4703 
Q 3103 4656 3366 4563 
z
" transform="scale(0.015625)"/>
       </defs>
       <use xlink:href="#DejaVuSans-30"/>
       <use xlink:href="#DejaVuSans-2e" x="63.623047"/>
       <use xlink:href="#DejaVuSans-36" x="95.410156"/>
      </g>
     </g>
    </g>
    <g id="ytick_5">
     <g id="line2d_13">
      <g>
       <use xlink:href="#me641671515" x="57.6" y="101.952" style="stroke: #000000; stroke-width: 0.8"/>
      </g>
     </g>
     <g id="text_13">
      <!-- 0.8 -->
      <g transform="translate(34.696875 105.751219) scale(0.1 -0.1)">
       <defs>
        <path id="DejaVuSans-38" d="M 2034 2216 
Q 1584 2216 1326 1975 
Q 1069 1734 1069 1313 
Q 1069 891 1326 650 
Q 1584 409 2034 409 
Q 2484 409 2743 651 
Q 3003 894 3003 1313 
Q 3003 1734 2745 1975 
Q 2488 2216 2034 2216 
z
M 1403 2484 
Q 997 2584 770 2862 
Q 544 3141 544 3541 
Q 544 4100 942 4425 
Q 1341 4750 2034 4750 
Q 2731 4750 3128 4425 
Q 3525 4100 3525 3541 
Q 3525 3141 3298 2862 
Q 3072 2584 2669 2484 
Q 3125 2378 3379 2068 
Q 3634 1759 3634 1313 
Q 3634 634 3220 271 
Q 2806 -91 2034 -91 
Q 1263 -91 848 271 
Q 434 634 434 1313 
Q 434 1759 690 2068 
Q 947 2378 1403 2484 
z
M 1172 3481 
Q 1172 3119 1398 2916 
Q 1625 2713 2034 2713 
Q 2441 2713 2670 2916 
Q 2900 3119 2900 3481 
Q 2900 3844 2670 4047 
Q 2441 4250 2034 4250 
Q 1625 4250 1398 4047 
Q 1172 3844 1172 3481 
z
" transform="scale(0.015625)"/>
       </defs>
       <use xlink:href="#DejaVuSans-30"/>
       <use xlink:href="#DejaVuSans-2e" x="63.623047"/>
       <use xlink:href="#DejaVuSans-38" x="95.410156"/>
      </g>
     </g>
    </g>
    <g id="ytick_6">
     <g id="line2d_14">
      <g>
       <use xlink:href="#me641671515" x="57.6" y="53.568" style="stroke: #000000; stroke-width: 0.8"/>
      </g>
     </g>
     <g id="text_14">
      <!-- 1.0 -->
      <g transform="translate(34.696875 57.367219) scale(0.1 -0.1)">
       <use xlink:href="#DejaVuSans-31"/>
       <use xlink:href="#DejaVuSans-2e" x="63.623047"/>
       <use xlink:href="#DejaVuSans-30" x="95.410156"/>
      </g>
     </g>
    </g>
   </g>
   <g id="line2d_15">
    <path d="M 73.832727 295.488 
L 74.255455 295.488 
L 74.273068 293.592447 
L 74.273068 293.592447 
L 74.924773 293.592447 
L 74.924773 293.118558 
L 74.924773 293.118558 
L 79.363409 293.118558 
L 79.363409 292.881614 
L 79.627614 292.881614 
L 79.715682 291.696893 
L 79.715682 291.696893 
L 79.874205 291.696893 
L 79.979886 288.853563 
L 79.979886 288.853563 
L 80.085568 288.853563 
L 80.19125 283.166903 
L 80.19125 283.166903 
L 80.208864 283.166903 
L 80.314545 272.741359 
L 80.314545 272.741359 
L 80.332159 272.741359 
L 80.437841 261.841928 
L 80.437841 261.841928 
L 80.455455 261.841928 
L 80.561136 252.838049 
L 80.561136 252.838049 
L 80.57875 252.838049 
L 80.684432 240.99084 
L 80.684432 240.99084 
L 80.719659 240.99084 
L 80.807727 230.802241 
L 80.842955 230.802241 
L 80.948636 222.035307 
L 80.948636 222.035307 
L 80.96625 222.035307 
L 81.071932 218.718088 
L 81.071932 218.718088 
L 81.089545 218.718088 
L 81.195227 211.372819 
L 81.195227 211.372819 
L 81.230455 211.372819 
L 81.336136 208.292545 
L 81.336136 208.292545 
L 81.35375 208.292545 
L 81.35375 207.344768 
L 81.35375 207.344768 
L 87.113409 207.344768 
L 87.16625 206.396991 
L 87.16625 206.396991 
L 87.307159 206.396991 
L 87.395227 205.449214 
L 87.395227 205.449214 
L 87.659432 205.449214 
L 87.659432 205.21227 
L 87.994091 205.21227 
L 87.994091 204.738382 
L 87.994091 204.738382 
L 88.557727 204.738382 
L 88.557727 204.264494 
L 88.557727 204.264494 
L 88.751477 204.264494 
L 88.751477 204.027549 
L 89.262273 204.027549 
L 89.262273 203.316717 
L 89.262273 203.316717 
L 89.385568 203.316717 
L 89.49125 200.236443 
L 89.49125 200.236443 
L 89.596932 200.236443 
L 89.649773 197.393113 
L 89.649773 197.393113 
L 89.773068 197.393113 
L 89.773068 196.445336 
L 89.773068 196.445336 
L 89.896364 196.445336 
L 89.896364 195.497559 
L 89.896364 195.497559 
L 90.019659 195.497559 
L 90.125341 190.99562 
L 90.125341 190.99562 
L 90.160568 190.99562 
L 90.195795 177.96369 
L 90.195795 177.96369 
L 90.354318 177.96369 
L 90.442386 172.27703 
L 90.442386 172.27703 
L 90.512841 172.27703 
L 90.600909 170.618421 
L 90.600909 170.618421 
L 90.65375 170.618421 
L 90.741818 168.722868 
L 90.741818 168.722868 
L 90.794659 168.722868 
L 90.900341 166.827314 
L 90.900341 166.827314 
L 90.970795 166.827314 
L 90.970795 165.879538 
L 90.970795 165.879538 
L 91.129318 165.879538 
L 91.164545 163.983984 
L 91.164545 163.983984 
L 91.252614 163.983984 
L 91.287841 162.088431 
L 91.287841 162.088431 
L 91.516818 162.088431 
L 91.516818 161.614543 
L 91.516818 161.614543 
L 91.728182 161.614543 
L 91.833864 159.245101 
L 91.833864 159.245101 
L 91.851477 159.245101 
L 91.851477 158.771213 
L 91.851477 158.771213 
L 92.027614 158.771213 
L 92.133295 157.112603 
L 92.133295 157.112603 
L 92.256591 157.112603 
L 92.362273 155.690938 
L 92.362273 155.690938 
L 92.432727 155.690938 
L 92.432727 155.21705 
L 92.432727 155.21705 
L 92.59125 155.21705 
L 92.644091 154.269273 
L 92.644091 154.269273 
L 92.802614 154.269273 
L 92.890682 152.37372 
L 92.890682 152.37372 
L 92.97875 152.37372 
L 93.066818 150.478167 
L 93.066818 150.478167 
L 93.102045 150.478167 
L 93.190114 149.056501 
L 93.190114 149.056501 
L 93.260568 149.056501 
L 93.36625 147.871781 
L 93.36625 147.871781 
L 93.419091 147.871781 
L 93.524773 145.502339 
L 93.524773 145.502339 
L 93.577614 145.502339 
L 93.648068 143.84373 
L 93.648068 143.84373 
L 93.771364 143.84373 
L 93.771364 142.895953 
L 93.771364 142.895953 
L 93.894659 142.895953 
L 93.982727 141.0004 
L 93.982727 141.0004 
L 94.246932 141.0004 
L 94.246932 139.578735 
L 94.246932 139.578735 
L 94.475909 139.578735 
L 94.581591 137.683181 
L 94.581591 137.683181 
L 94.616818 137.683181 
L 94.687273 136.49846 
L 94.687273 136.49846 
L 94.828182 136.49846 
L 94.828182 135.550684 
L 94.828182 135.550684 
L 94.969091 135.550684 
L 94.969091 134.602907 
L 94.969091 134.602907 
L 95.092386 134.602907 
L 95.11 132.470409 
L 95.11 132.470409 
L 95.515114 132.470409 
L 95.515114 131.759577 
L 95.515114 131.759577 
L 95.708864 131.759577 
L 95.726477 130.100968 
L 95.726477 130.100968 
L 96.043523 130.100968 
L 96.043523 129.864024 
L 96.307727 129.864024 
L 96.307727 129.153191 
L 96.307727 129.153191 
L 98.280455 129.153191 
L 98.298068 127.257638 
L 98.298068 127.257638 
L 98.527045 127.257638 
L 98.527045 126.546805 
L 98.527045 126.546805 
L 98.685568 126.546805 
L 98.685568 125.599028 
L 98.685568 125.599028 
L 99.020227 125.599028 
L 99.020227 124.651252 
L 99.020227 124.651252 
L 99.319659 124.651252 
L 99.407727 119.912368 
L 99.407727 119.912368 
L 99.583864 119.912368 
L 99.619091 118.016815 
L 99.619091 118.016815 
L 99.777614 118.016815 
L 99.865682 114.225708 
L 99.865682 114.225708 
L 99.971364 114.225708 
L 99.971364 113.277931 
L 99.971364 113.277931 
L 100.182727 113.277931 
L 100.182727 112.330155 
L 100.182727 112.330155 
L 100.306023 112.330155 
L 100.411705 105.695718 
L 100.411705 105.695718 
L 100.446932 105.695718 
L 100.552614 101.904611 
L 100.552614 101.904611 
L 100.605455 101.904611 
L 100.693523 98.113504 
L 100.693523 98.113504 
L 100.816818 98.113504 
L 100.9225 94.796286 
L 100.9225 94.796286 
L 101.133864 94.796286 
L 101.151477 91.952956 
L 101.151477 91.952956 
L 101.415682 91.952956 
L 101.415682 91.005179 
L 101.415682 91.005179 
L 101.556591 91.005179 
L 101.556591 90.057403 
L 101.556591 90.057403 
L 102.631023 90.057403 
L 102.631023 89.583514 
L 102.631023 89.583514 
L 104.0225 89.583514 
L 104.057727 88.635738 
L 104.057727 88.635738 
L 104.392386 88.635738 
L 104.498068 86.977128 
L 104.498068 86.977128 
L 104.568523 86.977128 
L 104.568523 86.740184 
L 104.727045 86.740184 
L 104.727045 86.266296 
L 104.727045 86.266296 
L 104.903182 86.266296 
L 105.008864 84.844631 
L 105.008864 84.844631 
L 105.079318 84.844631 
L 105.167386 83.186022 
L 105.167386 83.186022 
L 105.237841 83.186022 
L 105.308295 81.290468 
L 105.308295 81.290468 
L 105.37875 81.290468 
L 105.484432 78.447138 
L 105.484432 78.447138 
L 105.537273 78.447138 
L 105.554886 77.025473 
L 105.554886 77.025473 
L 105.713409 77.025473 
L 105.783864 76.077696 
L 105.783864 76.077696 
L 105.924773 76.077696 
L 105.995227 75.12992 
L 105.995227 75.12992 
L 106.400341 75.12992 
L 106.400341 74.656031 
L 106.400341 74.656031 
L 106.558864 74.656031 
L 106.576477 73.708255 
L 106.576477 73.708255 
L 107.104886 73.708255 
L 107.104886 72.760478 
L 107.104886 72.760478 
L 107.615682 72.760478 
L 107.615682 71.812701 
L 107.615682 71.812701 
L 108.267386 71.812701 
L 108.267386 70.864925 
L 108.267386 70.864925 
L 108.584432 70.864925 
L 108.619659 68.258539 
L 108.619659 68.258539 
L 108.831023 68.258539 
L 108.901477 66.599929 
L 108.901477 66.599929 
L 108.954318 66.599929 
L 108.954318 65.652153 
L 108.954318 65.652153 
L 109.606023 65.652153 
L 109.658864 63.993544 
L 109.658864 63.993544 
L 109.764545 63.993544 
L 109.764545 63.045767 
L 109.764545 63.045767 
L 110.363409 63.045767 
L 110.363409 62.571879 
L 110.363409 62.571879 
L 110.557159 62.571879 
L 110.557159 61.624102 
L 110.557159 61.624102 
L 114.062273 61.624102 
L 114.062273 61.150214 
L 114.062273 61.150214 
L 115.929318 61.150214 
L 115.929318 60.202437 
L 115.929318 60.202437 
L 136.008864 60.202437 
L 136.008864 59.25466 
L 136.008864 59.25466 
L 136.185 59.25466 
L 136.185 58.780772 
L 136.185 58.780772 
L 142.138409 58.780772 
L 142.138409 58.306883 
L 142.138409 58.306883 
L 156.070795 58.306883 
L 156.070795 57.832995 
L 156.070795 57.832995 
L 159.540682 57.832995 
L 159.540682 57.359107 
L 159.540682 57.359107 
L 194.556591 57.359107 
L 194.556591 57.122163 
L 195.754318 57.122163 
L 195.754318 56.648274 
L 195.754318 56.648274 
L 203.328182 56.648274 
L 203.328182 56.41133 
L 206.886136 56.41133 
L 206.886136 55.937442 
L 206.886136 55.937442 
L 207.0975 55.937442 
L 207.0975 55.226609 
L 207.0975 55.226609 
L 209.052614 55.226609 
L 209.052614 54.752721 
L 209.052614 54.752721 
L 221.188409 54.752721 
L 221.188409 54.278833 
L 221.188409 54.278833 
L 318.6975 54.278833 
L 318.6975 53.568 
L 318.6975 53.568 
" clip-path="url(#p02402a665f)" style="fill: none; stroke: #1f77b4; stroke-width: 1.5; stroke-linecap: square"/>
   </g>
   <g id="line2d_16">
    <path d="M 73.832727 295.488 
L 73.867955 295.488 
L 73.938409 290.249575 
L 73.938409 290.249575 
L 74.061705 290.249575 
L 74.096932 287.392252 
L 74.096932 287.392252 
L 74.185 287.392252 
L 74.273068 283.820598 
L 74.273068 283.820598 
L 74.343523 283.820598 
L 74.431591 280.010835 
L 74.431591 280.010835 
L 74.484432 280.010835 
L 74.590114 276.201071 
L 74.590114 276.201071 
L 74.642955 276.201071 
L 74.660568 274.772409 
L 74.660568 274.772409 
L 74.76625 274.772409 
L 74.76625 273.819969 
L 74.76625 273.819969 
L 74.924773 273.819969 
L 75.030455 270.010205 
L 75.030455 270.010205 
L 75.523636 270.010205 
L 75.523636 268.581543 
L 75.523636 268.581543 
L 75.840682 268.581543 
L 75.840682 268.343433 
L 76.034432 268.343433 
L 76.034432 267.867213 
L 76.034432 267.867213 
L 76.228182 267.867213 
L 76.228182 267.390992 
L 76.228182 267.390992 
L 76.439545 267.390992 
L 76.439545 266.914772 
L 76.439545 266.914772 
L 76.668523 266.914772 
L 76.756591 265.962331 
L 76.756591 265.962331 
L 76.844659 265.962331 
L 76.950341 265.00989 
L 76.950341 265.00989 
L 77.09125 265.00989 
L 77.09125 264.533669 
L 77.09125 264.533669 
L 77.249773 264.533669 
L 77.249773 264.057449 
L 77.249773 264.057449 
L 77.461136 264.057449 
L 77.531591 263.105008 
L 77.531591 263.105008 
L 77.584432 263.105008 
L 77.584432 262.628787 
L 77.584432 262.628787 
L 77.742955 262.628787 
L 77.742955 262.390677 
L 78.042386 262.390677 
L 78.148068 261.200126 
L 79.574773 261.200126 
L 79.574773 260.723906 
L 79.574773 260.723906 
L 80.842955 260.723906 
L 80.842955 260.485795 
L 81.283295 260.485795 
L 81.283295 260.009575 
L 81.283295 260.009575 
L 83.537841 260.009575 
L 83.537841 259.533354 
L 83.537841 259.533354 
L 83.819659 259.533354 
L 83.819659 259.057134 
L 83.819659 259.057134 
L 83.942955 259.057134 
L 84.031023 258.342803 
L 84.031023 258.342803 
L 84.06625 258.342803 
L 84.171932 255.48548 
L 84.171932 255.48548 
L 84.224773 255.48548 
L 84.26 254.056819 
L 84.26 254.056819 
L 84.348068 254.056819 
L 84.418523 249.532724 
L 84.418523 249.532724 
L 84.471364 249.532724 
L 84.577045 245.48485 
L 84.577045 245.48485 
L 84.594659 245.48485 
L 84.700341 238.579654 
L 84.700341 238.579654 
L 84.717955 238.579654 
L 84.823636 234.293669 
L 84.823636 234.293669 
L 84.84125 234.293669 
L 84.946932 227.626583 
L 84.946932 227.626583 
L 84.982159 227.626583 
L 85.087841 218.340283 
L 85.087841 218.340283 
L 85.105455 218.340283 
L 85.211136 213.101858 
L 85.211136 213.101858 
L 85.22875 213.101858 
L 85.334432 202.386898 
L 85.334432 202.386898 
L 85.404886 202.386898 
L 85.510568 192.862488 
L 85.510568 192.862488 
L 85.545795 192.862488 
L 85.633864 189.290835 
L 85.633864 189.290835 
L 85.721932 189.290835 
L 85.827614 185.242961 
L 85.827614 185.242961 
L 85.845227 185.242961 
L 85.950909 181.195087 
L 85.950909 181.195087 
L 85.968523 181.195087 
L 86.056591 177.147213 
L 86.056591 177.147213 
L 86.127045 177.147213 
L 86.232727 170.003906 
L 86.232727 170.003906 
L 86.303182 170.003906 
L 86.373636 168.337134 
L 86.373636 168.337134 
L 86.461705 168.337134 
L 86.461705 167.860913 
L 86.461705 167.860913 
L 92.450341 167.860913 
L 92.450341 167.384693 
L 92.450341 167.384693 
L 92.608864 167.384693 
L 92.608864 166.908472 
L 92.608864 166.908472 
L 93.013977 166.908472 
L 93.119659 164.76548 
L 93.119659 164.76548 
L 93.154886 164.76548 
L 93.242955 162.860598 
L 93.242955 162.860598 
L 93.313409 162.860598 
L 93.401477 160.955717 
L 93.401477 160.955717 
L 93.700909 160.955717 
L 93.806591 160.003276 
L 93.806591 160.003276 
L 94.123636 160.003276 
L 94.123636 159.527055 
L 94.123636 159.527055 
L 94.387841 159.527055 
L 94.405455 158.574614 
L 94.405455 158.574614 
L 94.511136 158.574614 
L 94.511136 158.098394 
L 94.511136 158.098394 
L 94.7225 158.098394 
L 94.7225 157.145953 
L 94.7225 157.145953 
L 94.91625 157.145953 
L 94.91625 156.907843 
L 95.286136 156.907843 
L 95.286136 155.955402 
L 95.286136 155.955402 
L 95.409432 155.955402 
L 95.409432 155.241071 
L 95.409432 155.241071 
L 95.638409 155.241071 
L 95.638409 154.76485 
L 95.638409 154.76485 
L 95.779318 154.76485 
L 95.867386 150.478866 
L 95.867386 150.478866 
L 96.008295 150.478866 
L 96.008295 149.526425 
L 96.008295 149.526425 
L 96.166818 149.526425 
L 96.166818 148.573984 
L 96.166818 148.573984 
L 96.290114 148.573984 
L 96.395795 146.192882 
L 96.395795 146.192882 
L 96.413409 146.192882 
L 96.519091 139.763906 
L 96.519091 139.763906 
L 96.589545 139.763906 
L 96.607159 137.620913 
L 96.607159 137.620913 
L 96.800909 137.620913 
L 96.906591 132.144378 
L 96.906591 132.144378 
L 96.977045 132.144378 
L 97.065114 128.572724 
L 97.065114 128.572724 
L 97.100341 128.572724 
L 97.206023 121.429417 
L 97.206023 121.429417 
L 97.276477 121.429417 
L 97.346932 120.000756 
L 97.346932 120.000756 
L 97.399773 120.000756 
L 97.435 117.619654 
L 97.435 117.619654 
L 97.523068 117.619654 
L 97.62875 111.190677 
L 97.62875 111.190677 
L 97.787273 111.190677 
L 97.8225 109.285795 
L 97.8225 109.285795 
L 98.051477 109.285795 
L 98.104318 106.666583 
L 98.104318 106.666583 
L 98.245227 106.666583 
L 98.350909 103.80926 
L 98.350909 103.80926 
L 98.509432 103.80926 
L 98.509432 103.333039 
L 98.509432 103.333039 
L 98.738409 103.333039 
L 98.773636 100.951937 
L 98.773636 100.951937 
L 99.037841 100.951937 
L 99.037841 99.999496 
L 99.037841 99.999496 
L 99.337273 99.999496 
L 99.337273 99.047055 
L 99.337273 99.047055 
L 99.654318 99.047055 
L 99.654318 97.380283 
L 99.654318 97.380283 
L 100.746364 97.380283 
L 100.746364 96.427843 
L 100.746364 96.427843 
L 101.908864 96.427843 
L 101.908864 95.475402 
L 101.908864 95.475402 
L 102.384432 95.475402 
L 102.384432 94.761071 
L 102.384432 94.761071 
L 102.719091 94.761071 
L 102.719091 93.80863 
L 102.719091 93.80863 
L 103.353182 93.80863 
L 103.353182 92.856189 
L 103.353182 92.856189 
L 106.470795 92.856189 
L 106.470795 91.903748 
L 106.470795 91.903748 
L 107.228182 91.903748 
L 107.228182 89.760756 
L 107.228182 89.760756 
L 107.545227 89.760756 
L 107.545227 89.046425 
L 107.545227 89.046425 
L 107.862273 89.046425 
L 107.862273 88.093984 
L 107.862273 88.093984 
L 108.144091 88.093984 
L 108.196932 86.189102 
L 108.196932 86.189102 
L 108.285 86.189102 
L 108.285 85.236661 
L 108.285 85.236661 
L 108.549205 85.236661 
L 108.637273 82.379339 
L 108.637273 82.379339 
L 108.690114 82.379339 
L 108.690114 81.665008 
L 108.690114 81.665008 
L 108.936705 81.665008 
L 108.971932 80.236346 
L 108.971932 80.236346 
L 109.130455 80.236346 
L 109.130455 79.760126 
L 109.130455 79.760126 
L 109.25375 79.760126 
L 109.324205 77.379024 
L 109.324205 77.379024 
L 109.711705 77.379024 
L 109.782159 76.426583 
L 109.782159 76.426583 
L 110.2225 76.426583 
L 110.257727 75.474142 
L 110.257727 75.474142 
L 110.927045 75.474142 
L 110.927045 73.093039 
L 110.927045 73.093039 
L 111.7725 73.093039 
L 111.7725 72.140598 
L 111.7725 72.140598 
L 112.124773 72.140598 
L 112.124773 71.188157 
L 112.124773 71.188157 
L 113.340114 71.188157 
L 113.340114 70.235717 
L 113.340114 70.235717 
L 114.625909 70.235717 
L 114.625909 69.283276 
L 114.625909 69.283276 
L 114.960568 69.283276 
L 114.960568 68.330835 
L 114.960568 68.330835 
L 115.45375 68.330835 
L 115.45375 67.378394 
L 115.45375 67.378394 
L 119.998068 67.378394 
L 119.998068 66.664063 
L 119.998068 66.664063 
L 120.315114 66.664063 
L 120.315114 65.711622 
L 120.315114 65.711622 
L 176.819659 65.711622 
L 176.819659 64.759181 
L 176.819659 64.759181 
L 181.399205 64.759181 
L 181.399205 64.282961 
L 181.399205 64.282961 
L 184.798636 64.282961 
L 184.798636 64.04485 
L 197.41 64.04485 
L 197.41 63.092409 
L 197.41 63.092409 
L 199.136136 63.092409 
L 199.136136 62.854299 
L 199.893523 62.854299 
L 199.893523 62.616189 
L 204.296932 62.616189 
L 204.296932 62.139969 
L 204.296932 62.139969 
L 211.465682 62.139969 
L 211.465682 61.663748 
L 211.465682 61.663748 
L 243.046932 61.663748 
L 243.046932 61.187528 
L 243.046932 61.187528 
L 258.212273 61.187528 
L 258.212273 60.711307 
L 258.212273 60.711307 
L 266.244091 60.711307 
L 266.244091 59.520756 
L 266.244091 59.520756 
L 285.918523 59.520756 
L 285.918523 59.044535 
L 285.918523 59.044535 
L 301.242386 59.044535 
L 301.242386 58.568315 
L 301.242386 58.568315 
L 309.503182 58.568315 
L 309.503182 58.092094 
L 309.503182 58.092094 
L 312.127614 58.092094 
L 312.127614 57.853984 
L 314.699205 57.853984 
L 314.699205 57.139654 
L 314.699205 57.139654 
L 317.570227 57.139654 
L 317.570227 56.663433 
L 317.570227 56.663433 
L 325.954318 56.663433 
L 325.954318 55.710992 
L 325.954318 55.710992 
L 331.960568 55.710992 
L 331.960568 54.520441 
L 331.960568 54.520441 
L 385.048068 54.520441 
L 385.048068 54.04422 
L 385.048068 54.04422 
L 398.487273 54.04422 
L 398.487273 53.568 
L 398.487273 53.568 
" clip-path="url(#p02402a665f)" style="fill: none; stroke: #ff7f0e; stroke-width: 1.5; stroke-linecap: square"/>
   </g>
   <g id="patch_3">
    <path d="M 57.6 307.584 
L 57.6 41.472 
" style="fill: none; stroke: #000000; stroke-width: 0.8; stroke-linejoin: miter; stroke-linecap: square"/>
   </g>
   <g id="patch_4">
    <path d="M 414.72 307.584 
L 414.72 41.472 
" style="fill: none; stroke: #000000; stroke-width: 0.8; stroke-linejoin: miter; stroke-linecap: square"/>
   </g>
   <g id="patch_5">
    <path d="M 57.6 307.584 
L 414.72 307.584 
" style="fill: none; stroke: #000000; stroke-width: 0.8; stroke-linejoin: miter; stroke-linecap: square"/>
   </g>
   <g id="patch_6">
    <path d="M 57.6 41.472 
L 414.72 41.472 
" style="fill: none; stroke: #000000; stroke-width: 0.8; stroke-linejoin: miter; stroke-linecap: square"/>
   </g>
   <g id="text_15">
    <!-- S8 S9 -->
    <g transform="translate(219 35.472) scale(0.12 -0.12)">
     <defs>
      <path id="DejaVuSans-53" d="M 3425 4513 
L 3425 3897 
Q 3066 4069 2747 4153 
Q 2428 4238 2131 4238 
Q 1616 4238 1336 4038 
Q 1056 3838 1056 3469 
Q 1056 3159 1242 3001 
Q 1428 2844 1947 2747 
L 2328 2669 
Q 3034 2534 3370 2195 
Q 3706 1856 3706 1288 
Q 3706 609 3251 259 
Q 2797 -91 1919 -91 
Q 1588 -91 1214 -16 
Q 841 59 441 206 
L 441 856 
Q 825 641 1194 531 
Q 1563 422 1919 422 
Q 2459 422 2753 634 
Q 3047 847 3047 1241 
Q 3047 1584 2836 1778 
Q 2625 1972 2144 2069 
L 1759 2144 
Q 1053 2284 737 2584 
Q 422 2884 422 3419 
Q 422 4038 858 4394 
Q 1294 4750 2059 4750 
Q 2388 4750 2728 4690 
Q 3069 4631 3425 4513 
z
" transform="scale(0.015625)"/>
      <path id="DejaVuSans-20" transform="scale(0.015625)"/>
      <path id="DejaVuSans-39" d="M 703 97 
L 703 672 
Q 941 559 1184 500 
Q 1428 441 1663 441 
Q 2288 441 2617 861 
Q 2947 1281 2994 2138 
Q 2813 1869 2534 1725 
Q 2256 1581 1919 1581 
Q 1219 1581 811 2004 
Q 403 2428 403 3163 
Q 403 3881 828 4315 
Q 1253 4750 1959 4750 
Q 2769 4750 3195 4129 
Q 3622 3509 3622 2328 
Q 3622 1225 3098 567 
Q 2575 -91 1691 -91 
Q 1453 -91 1209 -44 
Q 966 3 703 97 
z
M 1959 2075 
Q 2384 2075 2632 2365 
Q 2881 2656 2881 3163 
Q 2881 3666 2632 3958 
Q 2384 4250 1959 4250 
Q 1534 4250 1286 3958 
Q 1038 3666 1038 3163 
Q 1038 2656 1286 2365 
Q 1534 2075 1959 2075 
z
" transform="scale(0.015625)"/>
     </defs>
     <use xlink:href="#DejaVuSans-53"/>
     <use xlink:href="#DejaVuSans-38" x="63.476562"/>
     <use xlink:href="#DejaVuSans-20" x="127.099609"/>
     <use xlink:href="#DejaVuSans-53" x="158.886719"/>
     <use xlink:href="#DejaVuSans-39" x="222.363281"/>
    </g>
   </g>
   <g id="legend_1">
    <g id="patch_7">
     <path d="M 88.712813 304.584 
L 410.52 304.584 
Q 411.72 304.584 411.72 303.384 
L 411.72 286.37025 
Q 411.72 285.17025 410.52 285.17025 
L 88.712813 285.17025 
Q 87.512813 285.17025 87.512813 286.37025 
L 87.512813 303.384 
Q 87.512813 304.584 88.712813 304.584 
z
" style="fill: #ffffff; opacity: 0.8; stroke: #cccccc; stroke-linejoin: miter"/>
    </g>
    <g id="line2d_17">
     <path d="M 89.912813 290.029312 
L 95.912813 290.029312 
L 101.912813 290.029312 
" style="fill: none; stroke: #1f77b4; stroke-width: 1.5; stroke-linecap: square"/>
    </g>
    <g id="text_16">
     <!-- Execution time between S8 S9 (xx1xx1xx1xx0yyy8xx0yyy66xx1yyy2xx0yyy8xx0yyy45xx1) -->
     <g transform="translate(106.712813 292.129312) scale(0.06 -0.06)">
      <defs>
       <path id="DejaVuSans-45" d="M 628 4666 
L 3578 4666 
L 3578 4134 
L 1259 4134 
L 1259 2753 
L 3481 2753 
L 3481 2222 
L 1259 2222 
L 1259 531 
L 3634 531 
L 3634 0 
L 628 0 
L 628 4666 
z
" transform="scale(0.015625)"/>
       <path id="DejaVuSans-78" d="M 3513 3500 
L 2247 1797 
L 3578 0 
L 2900 0 
L 1881 1375 
L 863 0 
L 184 0 
L 1544 1831 
L 300 3500 
L 978 3500 
L 1906 2253 
L 2834 3500 
L 3513 3500 
z
" transform="scale(0.015625)"/>
       <path id="DejaVuSans-65" d="M 3597 1894 
L 3597 1613 
L 953 1613 
Q 991 1019 1311 708 
Q 1631 397 2203 397 
Q 2534 397 2845 478 
Q 3156 559 3463 722 
L 3463 178 
Q 3153 47 2828 -22 
Q 2503 -91 2169 -91 
Q 1331 -91 842 396 
Q 353 884 353 1716 
Q 353 2575 817 3079 
Q 1281 3584 2069 3584 
Q 2775 3584 3186 3129 
Q 3597 2675 3597 1894 
z
M 3022 2063 
Q 3016 2534 2758 2815 
Q 2500 3097 2075 3097 
Q 1594 3097 1305 2825 
Q 1016 2553 972 2059 
L 3022 2063 
z
" transform="scale(0.015625)"/>
       <path id="DejaVuSans-63" d="M 3122 3366 
L 3122 2828 
Q 2878 2963 2633 3030 
Q 2388 3097 2138 3097 
Q 1578 3097 1268 2742 
Q 959 2388 959 1747 
Q 959 1106 1268 751 
Q 1578 397 2138 397 
Q 2388 397 2633 464 
Q 2878 531 3122 666 
L 3122 134 
Q 2881 22 2623 -34 
Q 2366 -91 2075 -91 
Q 1284 -91 818 406 
Q 353 903 353 1747 
Q 353 2603 823 3093 
Q 1294 3584 2113 3584 
Q 2378 3584 2631 3529 
Q 2884 3475 3122 3366 
z
" transform="scale(0.015625)"/>
       <path id="DejaVuSans-75" d="M 544 1381 
L 544 3500 
L 1119 3500 
L 1119 1403 
Q 1119 906 1312 657 
Q 1506 409 1894 409 
Q 2359 409 2629 706 
Q 2900 1003 2900 1516 
L 2900 3500 
L 3475 3500 
L 3475 0 
L 2900 0 
L 2900 538 
Q 2691 219 2414 64 
Q 2138 -91 1772 -91 
Q 1169 -91 856 284 
Q 544 659 544 1381 
z
M 1991 3584 
L 1991 3584 
z
" transform="scale(0.015625)"/>
       <path id="DejaVuSans-74" d="M 1172 4494 
L 1172 3500 
L 2356 3500 
L 2356 3053 
L 1172 3053 
L 1172 1153 
Q 1172 725 1289 603 
Q 1406 481 1766 481 
L 2356 481 
L 2356 0 
L 1766 0 
Q 1100 0 847 248 
Q 594 497 594 1153 
L 594 3053 
L 172 3053 
L 172 3500 
L 594 3500 
L 594 4494 
L 1172 4494 
z
" transform="scale(0.015625)"/>
       <path id="DejaVuSans-69" d="M 603 3500 
L 1178 3500 
L 1178 0 
L 603 0 
L 603 3500 
z
M 603 4863 
L 1178 4863 
L 1178 4134 
L 603 4134 
L 603 4863 
z
" transform="scale(0.015625)"/>
       <path id="DejaVuSans-6f" d="M 1959 3097 
Q 1497 3097 1228 2736 
Q 959 2375 959 1747 
Q 959 1119 1226 758 
Q 1494 397 1959 397 
Q 2419 397 2687 759 
Q 2956 1122 2956 1747 
Q 2956 2369 2687 2733 
Q 2419 3097 1959 3097 
z
M 1959 3584 
Q 2709 3584 3137 3096 
Q 3566 2609 3566 1747 
Q 3566 888 3137 398 
Q 2709 -91 1959 -91 
Q 1206 -91 779 398 
Q 353 888 353 1747 
Q 353 2609 779 3096 
Q 1206 3584 1959 3584 
z
" transform="scale(0.015625)"/>
       <path id="DejaVuSans-6e" d="M 3513 2113 
L 3513 0 
L 2938 0 
L 2938 2094 
Q 2938 2591 2744 2837 
Q 2550 3084 2163 3084 
Q 1697 3084 1428 2787 
Q 1159 2491 1159 1978 
L 1159 0 
L 581 0 
L 581 3500 
L 1159 3500 
L 1159 2956 
Q 1366 3272 1645 3428 
Q 1925 3584 2291 3584 
Q 2894 3584 3203 3211 
Q 3513 2838 3513 2113 
z
" transform="scale(0.015625)"/>
       <path id="DejaVuSans-6d" d="M 3328 2828 
Q 3544 3216 3844 3400 
Q 4144 3584 4550 3584 
Q 5097 3584 5394 3201 
Q 5691 2819 5691 2113 
L 5691 0 
L 5113 0 
L 5113 2094 
Q 5113 2597 4934 2840 
Q 4756 3084 4391 3084 
Q 3944 3084 3684 2787 
Q 3425 2491 3425 1978 
L 3425 0 
L 2847 0 
L 2847 2094 
Q 2847 2600 2669 2842 
Q 2491 3084 2119 3084 
Q 1678 3084 1418 2786 
Q 1159 2488 1159 1978 
L 1159 0 
L 581 0 
L 581 3500 
L 1159 3500 
L 1159 2956 
Q 1356 3278 1631 3431 
Q 1906 3584 2284 3584 
Q 2666 3584 2933 3390 
Q 3200 3197 3328 2828 
z
" transform="scale(0.015625)"/>
       <path id="DejaVuSans-62" d="M 3116 1747 
Q 3116 2381 2855 2742 
Q 2594 3103 2138 3103 
Q 1681 3103 1420 2742 
Q 1159 2381 1159 1747 
Q 1159 1113 1420 752 
Q 1681 391 2138 391 
Q 2594 391 2855 752 
Q 3116 1113 3116 1747 
z
M 1159 2969 
Q 1341 3281 1617 3432 
Q 1894 3584 2278 3584 
Q 2916 3584 3314 3078 
Q 3713 2572 3713 1747 
Q 3713 922 3314 415 
Q 2916 -91 2278 -91 
Q 1894 -91 1617 61 
Q 1341 213 1159 525 
L 1159 0 
L 581 0 
L 581 4863 
L 1159 4863 
L 1159 2969 
z
" transform="scale(0.015625)"/>
       <path id="DejaVuSans-77" d="M 269 3500 
L 844 3500 
L 1563 769 
L 2278 3500 
L 2956 3500 
L 3675 769 
L 4391 3500 
L 4966 3500 
L 4050 0 
L 3372 0 
L 2619 2869 
L 1863 0 
L 1184 0 
L 269 3500 
z
" transform="scale(0.015625)"/>
       <path id="DejaVuSans-28" d="M 1984 4856 
Q 1566 4138 1362 3434 
Q 1159 2731 1159 2009 
Q 1159 1288 1364 580 
Q 1569 -128 1984 -844 
L 1484 -844 
Q 1016 -109 783 600 
Q 550 1309 550 2009 
Q 550 2706 781 3412 
Q 1013 4119 1484 4856 
L 1984 4856 
z
" transform="scale(0.015625)"/>
       <path id="DejaVuSans-79" d="M 2059 -325 
Q 1816 -950 1584 -1140 
Q 1353 -1331 966 -1331 
L 506 -1331 
L 506 -850 
L 844 -850 
Q 1081 -850 1212 -737 
Q 1344 -625 1503 -206 
L 1606 56 
L 191 3500 
L 800 3500 
L 1894 763 
L 2988 3500 
L 3597 3500 
L 2059 -325 
z
" transform="scale(0.015625)"/>
       <path id="DejaVuSans-29" d="M 513 4856 
L 1013 4856 
Q 1481 4119 1714 3412 
Q 1947 2706 1947 2009 
Q 1947 1309 1714 600 
Q 1481 -109 1013 -844 
L 513 -844 
Q 928 -128 1133 580 
Q 1338 1288 1338 2009 
Q 1338 2731 1133 3434 
Q 928 4138 513 4856 
z
" transform="scale(0.015625)"/>
      </defs>
      <use xlink:href="#DejaVuSans-45"/>
      <use xlink:href="#DejaVuSans-78" x="63.183594"/>
      <use xlink:href="#DejaVuSans-65" x="119.238281"/>
      <use xlink:href="#DejaVuSans-63" x="180.761719"/>
      <use xlink:href="#DejaVuSans-75" x="235.742188"/>
      <use xlink:href="#DejaVuSans-74" x="299.121094"/>
      <use xlink:href="#DejaVuSans-69" x="338.330078"/>
      <use xlink:href="#DejaVuSans-6f" x="366.113281"/>
      <use xlink:href="#DejaVuSans-6e" x="427.294922"/>
      <use xlink:href="#DejaVuSans-20" x="490.673828"/>
      <use xlink:href="#DejaVuSans-74" x="522.460938"/>
      <use xlink:href="#DejaVuSans-69" x="561.669922"/>
      <use xlink:href="#DejaVuSans-6d" x="589.453125"/>
      <use xlink:href="#DejaVuSans-65" x="686.865234"/>
      <use xlink:href="#DejaVuSans-20" x="748.388672"/>
      <use xlink:href="#DejaVuSans-62" x="780.175781"/>
      <use xlink:href="#DejaVuSans-65" x="843.652344"/>
      <use xlink:href="#DejaVuSans-74" x="905.175781"/>
      <use xlink:href="#DejaVuSans-77" x="944.384766"/>
      <use xlink:href="#DejaVuSans-65" x="1026.171875"/>
      <use xlink:href="#DejaVuSans-65" x="1087.695312"/>
      <use xlink:href="#DejaVuSans-6e" x="1149.21875"/>
      <use xlink:href="#DejaVuSans-20" x="1212.597656"/>
      <use xlink:href="#DejaVuSans-53" x="1244.384766"/>
      <use xlink:href="#DejaVuSans-38" x="1307.861328"/>
      <use xlink:href="#DejaVuSans-20" x="1371.484375"/>
      <use xlink:href="#DejaVuSans-53" x="1403.271484"/>
      <use xlink:href="#DejaVuSans-39" x="1466.748047"/>
      <use xlink:href="#DejaVuSans-20" x="1530.371094"/>
      <use xlink:href="#DejaVuSans-28" x="1562.158203"/>
      <use xlink:href="#DejaVuSans-78" x="1601.171875"/>
      <use xlink:href="#DejaVuSans-78" x="1660.351562"/>
      <use xlink:href="#DejaVuSans-31" x="1719.53125"/>
      <use xlink:href="#DejaVuSans-78" x="1783.154297"/>
      <use xlink:href="#DejaVuSans-78" x="1842.333984"/>
      <use xlink:href="#DejaVuSans-31" x="1901.513672"/>
      <use xlink:href="#DejaVuSans-78" x="1965.136719"/>
      <use xlink:href="#DejaVuSans-78" x="2024.316406"/>
      <use xlink:href="#DejaVuSans-31" x="2083.496094"/>
      <use xlink:href="#DejaVuSans-78" x="2147.119141"/>
      <use xlink:href="#DejaVuSans-78" x="2206.298828"/>
      <use xlink:href="#DejaVuSans-30" x="2265.478516"/>
      <use xlink:href="#DejaVuSans-79" x="2329.101562"/>
      <use xlink:href="#DejaVuSans-79" x="2388.28125"/>
      <use xlink:href="#DejaVuSans-79" x="2447.460938"/>
      <use xlink:href="#DejaVuSans-38" x="2506.640625"/>
      <use xlink:href="#DejaVuSans-78" x="2570.263672"/>
      <use xlink:href="#DejaVuSans-78" x="2629.443359"/>
      <use xlink:href="#DejaVuSans-30" x="2688.623047"/>
      <use xlink:href="#DejaVuSans-79" x="2752.246094"/>
      <use xlink:href="#DejaVuSans-79" x="2811.425781"/>
      <use xlink:href="#DejaVuSans-79" x="2870.605469"/>
      <use xlink:href="#DejaVuSans-36" x="2929.785156"/>
      <use xlink:href="#DejaVuSans-36" x="2993.408203"/>
      <use xlink:href="#DejaVuSans-78" x="3057.03125"/>
      <use xlink:href="#DejaVuSans-78" x="3116.210938"/>
      <use xlink:href="#DejaVuSans-31" x="3175.390625"/>
      <use xlink:href="#DejaVuSans-79" x="3239.013672"/>
      <use xlink:href="#DejaVuSans-79" x="3298.193359"/>
      <use xlink:href="#DejaVuSans-79" x="3357.373047"/>
      <use xlink:href="#DejaVuSans-32" x="3416.552734"/>
      <use xlink:href="#DejaVuSans-78" x="3480.175781"/>
      <use xlink:href="#DejaVuSans-78" x="3539.355469"/>
      <use xlink:href="#DejaVuSans-30" x="3598.535156"/>
      <use xlink:href="#DejaVuSans-79" x="3662.158203"/>
      <use xlink:href="#DejaVuSans-79" x="3721.337891"/>
      <use xlink:href="#DejaVuSans-79" x="3780.517578"/>
      <use xlink:href="#DejaVuSans-38" x="3839.697266"/>
      <use xlink:href="#DejaVuSans-78" x="3903.320312"/>
      <use xlink:href="#DejaVuSans-78" x="3962.5"/>
      <use xlink:href="#DejaVuSans-30" x="4021.679688"/>
      <use xlink:href="#DejaVuSans-79" x="4085.302734"/>
      <use xlink:href="#DejaVuSans-79" x="4144.482422"/>
      <use xlink:href="#DejaVuSans-79" x="4203.662109"/>
      <use xlink:href="#DejaVuSans-34" x="4262.841797"/>
      <use xlink:href="#DejaVuSans-35" x="4326.464844"/>
      <use xlink:href="#DejaVuSans-78" x="4390.087891"/>
      <use xlink:href="#DejaVuSans-78" x="4449.267578"/>
      <use xlink:href="#DejaVuSans-31" x="4508.447266"/>
      <use xlink:href="#DejaVuSans-29" x="4572.070312"/>
     </g>
    </g>
    <g id="line2d_18">
     <path d="M 89.912813 298.836187 
L 95.912813 298.836187 
L 101.912813 298.836187 
" style="fill: none; stroke: #ff7f0e; stroke-width: 1.5; stroke-linecap: square"/>
    </g>
    <g id="text_17">
     <!-- Execution time between S8 S9 (xx1xx2xx0yyy45xx0yyy45xx0yyy3xx1xx0yyy45xx0yyy45xx0yyy45) -->
     <g transform="translate(106.712813 300.936187) scale(0.06 -0.06)">
      <defs>
       <path id="DejaVuSans-33" d="M 2597 2516 
Q 3050 2419 3304 2112 
Q 3559 1806 3559 1356 
Q 3559 666 3084 287 
Q 2609 -91 1734 -91 
Q 1441 -91 1130 -33 
Q 819 25 488 141 
L 488 750 
Q 750 597 1062 519 
Q 1375 441 1716 441 
Q 2309 441 2620 675 
Q 2931 909 2931 1356 
Q 2931 1769 2642 2001 
Q 2353 2234 1838 2234 
L 1294 2234 
L 1294 2753 
L 1863 2753 
Q 2328 2753 2575 2939 
Q 2822 3125 2822 3475 
Q 2822 3834 2567 4026 
Q 2313 4219 1838 4219 
Q 1578 4219 1281 4162 
Q 984 4106 628 3988 
L 628 4550 
Q 988 4650 1302 4700 
Q 1616 4750 1894 4750 
Q 2613 4750 3031 4423 
Q 3450 4097 3450 3541 
Q 3450 3153 3228 2886 
Q 3006 2619 2597 2516 
z
" transform="scale(0.015625)"/>
      </defs>
      <use xlink:href="#DejaVuSans-45"/>
      <use xlink:href="#DejaVuSans-78" x="63.183594"/>
      <use xlink:href="#DejaVuSans-65" x="119.238281"/>
      <use xlink:href="#DejaVuSans-63" x="180.761719"/>
      <use xlink:href="#DejaVuSans-75" x="235.742188"/>
      <use xlink:href="#DejaVuSans-74" x="299.121094"/>
      <use xlink:href="#DejaVuSans-69" x="338.330078"/>
      <use xlink:href="#DejaVuSans-6f" x="366.113281"/>
      <use xlink:href="#DejaVuSans-6e" x="427.294922"/>
      <use xlink:href="#DejaVuSans-20" x="490.673828"/>
      <use xlink:href="#DejaVuSans-74" x="522.460938"/>
      <use xlink:href="#DejaVuSans-69" x="561.669922"/>
      <use xlink:href="#DejaVuSans-6d" x="589.453125"/>
      <use xlink:href="#DejaVuSans-65" x="686.865234"/>
      <use xlink:href="#DejaVuSans-20" x="748.388672"/>
      <use xlink:href="#DejaVuSans-62" x="780.175781"/>
      <use xlink:href="#DejaVuSans-65" x="843.652344"/>
      <use xlink:href="#DejaVuSans-74" x="905.175781"/>
      <use xlink:href="#DejaVuSans-77" x="944.384766"/>
      <use xlink:href="#DejaVuSans-65" x="1026.171875"/>
      <use xlink:href="#DejaVuSans-65" x="1087.695312"/>
      <use xlink:href="#DejaVuSans-6e" x="1149.21875"/>
      <use xlink:href="#DejaVuSans-20" x="1212.597656"/>
      <use xlink:href="#DejaVuSans-53" x="1244.384766"/>
      <use xlink:href="#DejaVuSans-38" x="1307.861328"/>
      <use xlink:href="#DejaVuSans-20" x="1371.484375"/>
      <use xlink:href="#DejaVuSans-53" x="1403.271484"/>
      <use xlink:href="#DejaVuSans-39" x="1466.748047"/>
      <use xlink:href="#DejaVuSans-20" x="1530.371094"/>
      <use xlink:href="#DejaVuSans-28" x="1562.158203"/>
      <use xlink:href="#DejaVuSans-78" x="1601.171875"/>
      <use xlink:href="#DejaVuSans-78" x="1660.351562"/>
      <use xlink:href="#DejaVuSans-31" x="1719.53125"/>
      <use xlink:href="#DejaVuSans-78" x="1783.154297"/>
      <use xlink:href="#DejaVuSans-78" x="1842.333984"/>
      <use xlink:href="#DejaVuSans-32" x="1901.513672"/>
      <use xlink:href="#DejaVuSans-78" x="1965.136719"/>
      <use xlink:href="#DejaVuSans-78" x="2024.316406"/>
      <use xlink:href="#DejaVuSans-30" x="2083.496094"/>
      <use xlink:href="#DejaVuSans-79" x="2147.119141"/>
      <use xlink:href="#DejaVuSans-79" x="2206.298828"/>
      <use xlink:href="#DejaVuSans-79" x="2265.478516"/>
      <use xlink:href="#DejaVuSans-34" x="2324.658203"/>
      <use xlink:href="#DejaVuSans-35" x="2388.28125"/>
      <use xlink:href="#DejaVuSans-78" x="2451.904297"/>
      <use xlink:href="#DejaVuSans-78" x="2511.083984"/>
      <use xlink:href="#DejaVuSans-30" x="2570.263672"/>
      <use xlink:href="#DejaVuSans-79" x="2633.886719"/>
      <use xlink:href="#DejaVuSans-79" x="2693.066406"/>
      <use xlink:href="#DejaVuSans-79" x="2752.246094"/>
      <use xlink:href="#DejaVuSans-34" x="2811.425781"/>
      <use xlink:href="#DejaVuSans-35" x="2875.048828"/>
      <use xlink:href="#DejaVuSans-78" x="2938.671875"/>
      <use xlink:href="#DejaVuSans-78" x="2997.851562"/>
      <use xlink:href="#DejaVuSans-30" x="3057.03125"/>
      <use xlink:href="#DejaVuSans-79" x="3120.654297"/>
      <use xlink:href="#DejaVuSans-79" x="3179.833984"/>
      <use xlink:href="#DejaVuSans-79" x="3239.013672"/>
      <use xlink:href="#DejaVuSans-33" x="3298.193359"/>
      <use xlink:href="#DejaVuSans-78" x="3361.816406"/>
      <use xlink:href="#DejaVuSans-78" x="3420.996094"/>
      <use xlink:href="#DejaVuSans-31" x="3480.175781"/>
      <use xlink:href="#DejaVuSans-78" x="3543.798828"/>
      <use xlink:href="#DejaVuSans-78" x="3602.978516"/>
      <use xlink:href="#DejaVuSans-30" x="3662.158203"/>
      <use xlink:href="#DejaVuSans-79" x="3725.78125"/>
      <use xlink:href="#DejaVuSans-79" x="3784.960938"/>
      <use xlink:href="#DejaVuSans-79" x="3844.140625"/>
      <use xlink:href="#DejaVuSans-34" x="3903.320312"/>
      <use xlink:href="#DejaVuSans-35" x="3966.943359"/>
      <use xlink:href="#DejaVuSans-78" x="4030.566406"/>
      <use xlink:href="#DejaVuSans-78" x="4089.746094"/>
      <use xlink:href="#DejaVuSans-30" x="4148.925781"/>
      <use xlink:href="#DejaVuSans-79" x="4212.548828"/>
      <use xlink:href="#DejaVuSans-79" x="4271.728516"/>
      <use xlink:href="#DejaVuSans-79" x="4330.908203"/>
      <use xlink:href="#DejaVuSans-34" x="4390.087891"/>
      <use xlink:href="#DejaVuSans-35" x="4453.710938"/>
      <use xlink:href="#DejaVuSans-78" x="4517.333984"/>
      <use xlink:href="#DejaVuSans-78" x="4576.513672"/>
      <use xlink:href="#DejaVuSans-30" x="4635.693359"/>
      <use xlink:href="#DejaVuSans-79" x="4699.316406"/>
      <use xlink:href="#DejaVuSans-79" x="4758.496094"/>
      <use xlink:href="#DejaVuSans-79" x="4817.675781"/>
      <use xlink:href="#DejaVuSans-34" x="4876.855469"/>
      <use xlink:href="#DejaVuSans-35" x="4940.478516"/>
      <use xlink:href="#DejaVuSans-29" x="5004.101562"/>
     </g>
    </g>
   </g>
  </g>
 </g>
 <defs>
  <clipPath id="p02402a665f">
   <rect x="57.6" y="41.472" width="357.12" height="266.112"/>
  </clipPath>
 </defs>
</svg>
