<?xml version="1.0" encoding="utf-8" standalone="no"?>
<!DOCTYPE svg PUBLIC "-//W3C//DTD SVG 1.1//EN"
  "http://www.w3.org/Graphics/SVG/1.1/DTD/svg11.dtd">
<svg xmlns:xlink="http://www.w3.org/1999/xlink" width="460.8pt" height="345.6pt" viewBox="0 0 460.8 345.6" xmlns="http://www.w3.org/2000/svg" version="1.1">
 <metadata>
  <rdf:RDF xmlns:dc="http://purl.org/dc/elements/1.1/" xmlns:cc="http://creativecommons.org/ns#" xmlns:rdf="http://www.w3.org/1999/02/22-rdf-syntax-ns#">
   <cc:Work>
    <dc:type rdf:resource="http://purl.org/dc/dcmitype/StillImage"/>
    <dc:date>2024-03-08T12:00:44.028431</dc:date>
    <dc:format>image/svg+xml</dc:format>
    <dc:creator>
     <cc:Agent>
      <dc:title>Matplotlib v3.8.2, https://matplotlib.org/</dc:title>
     </cc:Agent>
    </dc:creator>
   </cc:Work>
  </rdf:RDF>
 </metadata>
 <defs>
  <style type="text/css">*{stroke-linejoin: round; stroke-linecap: butt}</style>
 </defs>
 <g id="figure_1">
  <g id="patch_1">
   <path d="M 0 345.6 
L 460.8 345.6 
L 460.8 0 
L 0 0 
z
" style="fill: #ffffff"/>
  </g>
  <g id="axes_1">
   <g id="patch_2">
    <path d="M 57.6 307.584 
L 414.72 307.584 
L 414.72 41.472 
L 57.6 41.472 
z
" style="fill: #ffffff"/>
   </g>
   <g id="matplotlib.axis_1">
    <g id="xtick_1">
     <g id="line2d_1">
      <defs>
       <path id="m176f79c4c7" d="M 0 0 
L 0 3.5 
" style="stroke: #000000; stroke-width: 0.8"/>
      </defs>
      <g>
       <use xlink:href="#m176f79c4c7" x="73.816891" y="307.584" style="stroke: #000000; stroke-width: 0.8"/>
      </g>
     </g>
     <g id="text_1">
      <!-- 0.0 -->
      <g transform="translate(65.865328 322.182437) scale(0.1 -0.1)">
       <defs>
        <path id="DejaVuSans-30" d="M 2034 4250 
Q 1547 4250 1301 3770 
Q 1056 3291 1056 2328 
Q 1056 1369 1301 889 
Q 1547 409 2034 409 
Q 2525 409 2770 889 
Q 3016 1369 3016 2328 
Q 3016 3291 2770 3770 
Q 2525 4250 2034 4250 
z
M 2034 4750 
Q 2819 4750 3233 4129 
Q 3647 3509 3647 2328 
Q 3647 1150 3233 529 
Q 2819 -91 2034 -91 
Q 1250 -91 836 529 
Q 422 1150 422 2328 
Q 422 3509 836 4129 
Q 1250 4750 2034 4750 
z
" transform="scale(0.015625)"/>
        <path id="DejaVuSans-2e" d="M 684 794 
L 1344 794 
L 1344 0 
L 684 0 
L 684 794 
z
" transform="scale(0.015625)"/>
       </defs>
       <use xlink:href="#DejaVuSans-30"/>
       <use xlink:href="#DejaVuSans-2e" x="63.623047"/>
       <use xlink:href="#DejaVuSans-30" x="95.410156"/>
      </g>
     </g>
    </g>
    <g id="xtick_2">
     <g id="line2d_2">
      <g>
       <use xlink:href="#m176f79c4c7" x="120.3952" y="307.584" style="stroke: #000000; stroke-width: 0.8"/>
      </g>
     </g>
     <g id="text_2">
      <!-- 0.5 -->
      <g transform="translate(112.443638 322.182437) scale(0.1 -0.1)">
       <defs>
        <path id="DejaVuSans-35" d="M 691 4666 
L 3169 4666 
L 3169 4134 
L 1269 4134 
L 1269 2991 
Q 1406 3038 1543 3061 
Q 1681 3084 1819 3084 
Q 2600 3084 3056 2656 
Q 3513 2228 3513 1497 
Q 3513 744 3044 326 
Q 2575 -91 1722 -91 
Q 1428 -91 1123 -41 
Q 819 9 494 109 
L 494 744 
Q 775 591 1075 516 
Q 1375 441 1709 441 
Q 2250 441 2565 725 
Q 2881 1009 2881 1497 
Q 2881 1984 2565 2268 
Q 2250 2553 1709 2553 
Q 1456 2553 1204 2497 
Q 953 2441 691 2322 
L 691 4666 
z
" transform="scale(0.015625)"/>
       </defs>
       <use xlink:href="#DejaVuSans-30"/>
       <use xlink:href="#DejaVuSans-2e" x="63.623047"/>
       <use xlink:href="#DejaVuSans-35" x="95.410156"/>
      </g>
     </g>
    </g>
    <g id="xtick_3">
     <g id="line2d_3">
      <g>
       <use xlink:href="#m176f79c4c7" x="166.97351" y="307.584" style="stroke: #000000; stroke-width: 0.8"/>
      </g>
     </g>
     <g id="text_3">
      <!-- 1.0 -->
      <g transform="translate(159.021948 322.182437) scale(0.1 -0.1)">
       <defs>
        <path id="DejaVuSans-31" d="M 794 531 
L 1825 531 
L 1825 4091 
L 703 3866 
L 703 4441 
L 1819 4666 
L 2450 4666 
L 2450 531 
L 3481 531 
L 3481 0 
L 794 0 
L 794 531 
z
" transform="scale(0.015625)"/>
       </defs>
       <use xlink:href="#DejaVuSans-31"/>
       <use xlink:href="#DejaVuSans-2e" x="63.623047"/>
       <use xlink:href="#DejaVuSans-30" x="95.410156"/>
      </g>
     </g>
    </g>
    <g id="xtick_4">
     <g id="line2d_4">
      <g>
       <use xlink:href="#m176f79c4c7" x="213.55182" y="307.584" style="stroke: #000000; stroke-width: 0.8"/>
      </g>
     </g>
     <g id="text_4">
      <!-- 1.5 -->
      <g transform="translate(205.600257 322.182437) scale(0.1 -0.1)">
       <use xlink:href="#DejaVuSans-31"/>
       <use xlink:href="#DejaVuSans-2e" x="63.623047"/>
       <use xlink:href="#DejaVuSans-35" x="95.410156"/>
      </g>
     </g>
    </g>
    <g id="xtick_5">
     <g id="line2d_5">
      <g>
       <use xlink:href="#m176f79c4c7" x="260.13013" y="307.584" style="stroke: #000000; stroke-width: 0.8"/>
      </g>
     </g>
     <g id="text_5">
      <!-- 2.0 -->
      <g transform="translate(252.178567 322.182437) scale(0.1 -0.1)">
       <defs>
        <path id="DejaVuSans-32" d="M 1228 531 
L 3431 531 
L 3431 0 
L 469 0 
L 469 531 
Q 828 903 1448 1529 
Q 2069 2156 2228 2338 
Q 2531 2678 2651 2914 
Q 2772 3150 2772 3378 
Q 2772 3750 2511 3984 
Q 2250 4219 1831 4219 
Q 1534 4219 1204 4116 
Q 875 4013 500 3803 
L 500 4441 
Q 881 4594 1212 4672 
Q 1544 4750 1819 4750 
Q 2544 4750 2975 4387 
Q 3406 4025 3406 3419 
Q 3406 3131 3298 2873 
Q 3191 2616 2906 2266 
Q 2828 2175 2409 1742 
Q 1991 1309 1228 531 
z
" transform="scale(0.015625)"/>
       </defs>
       <use xlink:href="#DejaVuSans-32"/>
       <use xlink:href="#DejaVuSans-2e" x="63.623047"/>
       <use xlink:href="#DejaVuSans-30" x="95.410156"/>
      </g>
     </g>
    </g>
    <g id="xtick_6">
     <g id="line2d_6">
      <g>
       <use xlink:href="#m176f79c4c7" x="306.70844" y="307.584" style="stroke: #000000; stroke-width: 0.8"/>
      </g>
     </g>
     <g id="text_6">
      <!-- 2.5 -->
      <g transform="translate(298.756877 322.182437) scale(0.1 -0.1)">
       <use xlink:href="#DejaVuSans-32"/>
       <use xlink:href="#DejaVuSans-2e" x="63.623047"/>
       <use xlink:href="#DejaVuSans-35" x="95.410156"/>
      </g>
     </g>
    </g>
    <g id="xtick_7">
     <g id="line2d_7">
      <g>
       <use xlink:href="#m176f79c4c7" x="353.286749" y="307.584" style="stroke: #000000; stroke-width: 0.8"/>
      </g>
     </g>
     <g id="text_7">
      <!-- 3.0 -->
      <g transform="translate(345.335187 322.182437) scale(0.1 -0.1)">
       <defs>
        <path id="DejaVuSans-33" d="M 2597 2516 
Q 3050 2419 3304 2112 
Q 3559 1806 3559 1356 
Q 3559 666 3084 287 
Q 2609 -91 1734 -91 
Q 1441 -91 1130 -33 
Q 819 25 488 141 
L 488 750 
Q 750 597 1062 519 
Q 1375 441 1716 441 
Q 2309 441 2620 675 
Q 2931 909 2931 1356 
Q 2931 1769 2642 2001 
Q 2353 2234 1838 2234 
L 1294 2234 
L 1294 2753 
L 1863 2753 
Q 2328 2753 2575 2939 
Q 2822 3125 2822 3475 
Q 2822 3834 2567 4026 
Q 2313 4219 1838 4219 
Q 1578 4219 1281 4162 
Q 984 4106 628 3988 
L 628 4550 
Q 988 4650 1302 4700 
Q 1616 4750 1894 4750 
Q 2613 4750 3031 4423 
Q 3450 4097 3450 3541 
Q 3450 3153 3228 2886 
Q 3006 2619 2597 2516 
z
" transform="scale(0.015625)"/>
       </defs>
       <use xlink:href="#DejaVuSans-33"/>
       <use xlink:href="#DejaVuSans-2e" x="63.623047"/>
       <use xlink:href="#DejaVuSans-30" x="95.410156"/>
      </g>
     </g>
    </g>
    <g id="xtick_8">
     <g id="line2d_8">
      <g>
       <use xlink:href="#m176f79c4c7" x="399.865059" y="307.584" style="stroke: #000000; stroke-width: 0.8"/>
      </g>
     </g>
     <g id="text_8">
      <!-- 3.5 -->
      <g transform="translate(391.913497 322.182437) scale(0.1 -0.1)">
       <use xlink:href="#DejaVuSans-33"/>
       <use xlink:href="#DejaVuSans-2e" x="63.623047"/>
       <use xlink:href="#DejaVuSans-35" x="95.410156"/>
      </g>
     </g>
    </g>
    <g id="text_9">
     <!-- 1e6 -->
     <g transform="translate(395.841875 334.860562) scale(0.1 -0.1)">
      <defs>
       <path id="DejaVuSans-65" d="M 3597 1894 
L 3597 1613 
L 953 1613 
Q 991 1019 1311 708 
Q 1631 397 2203 397 
Q 2534 397 2845 478 
Q 3156 559 3463 722 
L 3463 178 
Q 3153 47 2828 -22 
Q 2503 -91 2169 -91 
Q 1331 -91 842 396 
Q 353 884 353 1716 
Q 353 2575 817 3079 
Q 1281 3584 2069 3584 
Q 2775 3584 3186 3129 
Q 3597 2675 3597 1894 
z
M 3022 2063 
Q 3016 2534 2758 2815 
Q 2500 3097 2075 3097 
Q 1594 3097 1305 2825 
Q 1016 2553 972 2059 
L 3022 2063 
z
" transform="scale(0.015625)"/>
       <path id="DejaVuSans-36" d="M 2113 2584 
Q 1688 2584 1439 2293 
Q 1191 2003 1191 1497 
Q 1191 994 1439 701 
Q 1688 409 2113 409 
Q 2538 409 2786 701 
Q 3034 994 3034 1497 
Q 3034 2003 2786 2293 
Q 2538 2584 2113 2584 
z
M 3366 4563 
L 3366 3988 
Q 3128 4100 2886 4159 
Q 2644 4219 2406 4219 
Q 1781 4219 1451 3797 
Q 1122 3375 1075 2522 
Q 1259 2794 1537 2939 
Q 1816 3084 2150 3084 
Q 2853 3084 3261 2657 
Q 3669 2231 3669 1497 
Q 3669 778 3244 343 
Q 2819 -91 2113 -91 
Q 1303 -91 875 529 
Q 447 1150 447 2328 
Q 447 3434 972 4092 
Q 1497 4750 2381 4750 
Q 2619 4750 2861 4703 
Q 3103 4656 3366 4563 
z
" transform="scale(0.015625)"/>
      </defs>
      <use xlink:href="#DejaVuSans-31"/>
      <use xlink:href="#DejaVuSans-65" x="63.623047"/>
      <use xlink:href="#DejaVuSans-36" x="125.146484"/>
     </g>
    </g>
   </g>
   <g id="matplotlib.axis_2">
    <g id="ytick_1">
     <g id="line2d_9">
      <defs>
       <path id="me994aae028" d="M 0 0 
L -3.5 0 
" style="stroke: #000000; stroke-width: 0.8"/>
      </defs>
      <g>
       <use xlink:href="#me994aae028" x="57.6" y="295.488" style="stroke: #000000; stroke-width: 0.8"/>
      </g>
     </g>
     <g id="text_10">
      <!-- 0 -->
      <g transform="translate(44.2375 299.287219) scale(0.1 -0.1)">
       <use xlink:href="#DejaVuSans-30"/>
      </g>
     </g>
    </g>
    <g id="ytick_2">
     <g id="line2d_10">
      <g>
       <use xlink:href="#me994aae028" x="57.6" y="240.506182" style="stroke: #000000; stroke-width: 0.8"/>
      </g>
     </g>
     <g id="text_11">
      <!-- 5 -->
      <g transform="translate(44.2375 244.305401) scale(0.1 -0.1)">
       <use xlink:href="#DejaVuSans-35"/>
      </g>
     </g>
    </g>
    <g id="ytick_3">
     <g id="line2d_11">
      <g>
       <use xlink:href="#me994aae028" x="57.6" y="185.524364" style="stroke: #000000; stroke-width: 0.8"/>
      </g>
     </g>
     <g id="text_12">
      <!-- 10 -->
      <g transform="translate(37.875 189.323582) scale(0.1 -0.1)">
       <use xlink:href="#DejaVuSans-31"/>
       <use xlink:href="#DejaVuSans-30" x="63.623047"/>
      </g>
     </g>
    </g>
    <g id="ytick_4">
     <g id="line2d_12">
      <g>
       <use xlink:href="#me994aae028" x="57.6" y="130.542545" style="stroke: #000000; stroke-width: 0.8"/>
      </g>
     </g>
     <g id="text_13">
      <!-- 15 -->
      <g transform="translate(37.875 134.341764) scale(0.1 -0.1)">
       <use xlink:href="#DejaVuSans-31"/>
       <use xlink:href="#DejaVuSans-35" x="63.623047"/>
      </g>
     </g>
    </g>
    <g id="ytick_5">
     <g id="line2d_13">
      <g>
       <use xlink:href="#me994aae028" x="57.6" y="75.560727" style="stroke: #000000; stroke-width: 0.8"/>
      </g>
     </g>
     <g id="text_14">
      <!-- 20 -->
      <g transform="translate(37.875 79.359946) scale(0.1 -0.1)">
       <use xlink:href="#DejaVuSans-32"/>
       <use xlink:href="#DejaVuSans-30" x="63.623047"/>
      </g>
     </g>
    </g>
   </g>
   <g id="line2d_14">
    <path d="M 73.832727 284.491636 
L 74.112197 295.488 
L 74.158775 284.491636 
L 74.437314 295.488 
L 74.48296 284.491636 
L 74.761499 295.488 
L 74.808077 284.491636 
L 75.086615 295.488 
L 75.138783 284.491636 
L 75.418253 295.488 
L 75.4639 284.491636 
L 75.74337 295.488 
L 75.788085 284.491636 
L 76.066623 295.488 
L 76.111338 284.491636 
L 76.390808 295.488 
L 76.442044 284.491636 
L 76.721514 295.488 
L 76.770887 284.491636 
L 77.050357 295.488 
L 77.096935 284.491636 
L 77.376405 295.488 
L 77.423915 284.491636 
L 77.703385 295.488 
L 77.753689 284.491636 
L 78.032228 295.488 
L 78.082532 284.491636 
L 78.362002 295.488 
L 78.413238 284.491636 
L 78.692708 295.488 
L 78.734629 284.491636 
L 79.013167 295.488 
L 79.067198 284.491636 
L 79.346668 295.488 
L 79.396972 284.491636 
L 82.342584 185.524364 
L 85.002206 196.520727 
L 85.257455 295.488 
L 85.263976 284.491636 
L 85.542514 295.488 
L 85.58164 284.491636 
L 85.86111 295.488 
L 85.907688 284.491636 
L 86.187158 295.488 
L 86.229079 284.491636 
L 86.508548 295.488 
L 86.557922 284.491636 
L 86.837391 295.488 
L 86.883038 284.491636 
L 87.161576 295.488 
L 87.208155 284.491636 
L 87.487625 295.488 
L 87.538861 284.491636 
L 87.818331 295.488 
L 87.859319 284.491636 
L 88.138789 295.488 
L 88.185368 284.491636 
L 88.464838 295.488 
L 88.506758 284.491636 
L 88.786228 295.488 
L 88.833738 284.491636 
L 89.112276 295.488 
L 89.167238 284.491636 
L 89.446708 295.488 
L 89.493287 284.491636 
L 89.771825 295.488 
L 89.822129 284.491636 
L 90.100668 295.488 
L 90.148178 284.491636 
L 90.427647 295.488 
L 90.474226 284.491636 
L 90.752764 295.488 
L 90.793753 284.491636 
L 91.072291 295.488 
L 91.119801 284.491636 
L 91.399271 295.488 
L 91.447712 284.491636 
L 91.727182 295.488 
L 91.770034 284.491636 
L 92.049504 295.488 
L 92.091425 284.491636 
L 92.370895 295.488 
L 92.417473 284.491636 
L 92.696943 295.488 
L 92.744453 284.491636 
L 93.023922 295.488 
L 93.074227 284.491636 
L 93.353697 295.488 
L 93.398412 284.491636 
L 93.677882 295.488 
L 93.728187 284.491636 
L 94.007656 295.488 
L 94.05144 284.491636 
L 94.329978 295.488 
L 94.382146 284.491636 
L 94.660684 295.488 
L 94.703536 284.491636 
L 94.983006 295.488 
L 95.033311 284.491636 
L 95.312781 295.488 
L 95.366811 284.491636 
L 95.64535 295.488 
L 95.686339 284.491636 
L 95.965809 295.488 
L 96.012387 284.491636 
L 96.290925 295.488 
L 96.343093 284.491636 
L 96.622563 295.488 
L 96.676594 284.491636 
L 96.956063 295.488 
L 97.003573 284.491636 
L 97.283043 295.488 
L 97.330553 284.491636 
L 97.610023 295.488 
L 97.651943 284.491636 
L 97.931413 295.488 
L 97.977991 284.491636 
L 98.257461 295.488 
L 98.299382 284.491636 
L 98.578852 295.488 
L 98.626362 284.491636 
L 98.905831 295.488 
L 98.956136 284.491636 
L 99.234674 295.488 
L 99.281253 284.491636 
L 99.560722 295.488 
L 99.608232 284.491636 
L 99.886771 295.488 
L 99.929623 284.491636 
L 100.209093 295.488 
L 100.255671 284.491636 
L 100.535141 295.488 
L 100.586377 284.491636 
L 100.865847 295.488 
L 100.918946 284.491636 
L 101.198416 295.488 
L 101.240336 284.491636 
L 101.519806 295.488 
L 101.571042 284.491636 
L 101.850512 295.488 
L 101.898954 284.491636 
L 102.178423 295.488 
L 102.22966 284.491636 
L 102.509129 295.488 
L 102.556639 284.491636 
L 102.835178 295.488 
L 102.881756 284.491636 
L 103.161226 295.488 
L 103.209667 284.491636 
L 103.489137 295.488 
L 103.534784 284.491636 
L 103.814254 295.488 
L 103.8599 284.491636 
L 104.13937 295.488 
L 104.184085 284.491636 
L 104.462624 295.488 
L 104.512928 284.491636 
L 104.791467 295.488 
L 104.842703 284.491636 
L 105.122173 295.488 
L 105.165956 284.491636 
L 105.445426 295.488 
L 105.486415 284.491636 
L 105.764953 295.488 
L 105.817121 284.491636 
L 106.095659 295.488 
L 106.142238 284.491636 
L 106.421707 295.488 
L 106.463628 284.491636 
L 106.743098 295.488 
L 106.787813 284.491636 
L 107.066351 295.488 
L 107.111998 284.491636 
L 107.390536 295.488 
L 107.431525 284.491636 
L 107.710995 295.488 
L 107.759437 284.491636 
L 108.038906 295.488 
L 108.080827 284.491636 
L 108.359365 295.488 
L 108.401286 284.491636 
L 108.680756 295.488 
L 108.723608 284.491636 
L 109.002146 295.488 
L 109.050587 284.491636 
L 109.330057 295.488 
L 109.376635 284.491636 
L 109.655174 295.488 
L 109.698957 284.491636 
L 109.978427 295.488 
L 110.023142 284.491636 
L 110.302612 295.488 
L 110.345464 284.491636 
L 110.624934 295.488 
L 110.673376 284.491636 
L 110.952845 295.488 
L 110.999424 284.491636 
L 111.278894 295.488 
L 111.325472 284.491636 
L 111.604942 295.488 
L 113.163452 284.491636 
L 113.395412 273.495273 
L 113.442922 284.491636 
L 113.628304 273.495273 
L 113.674882 284.491636 
L 113.863058 273.495273 
L 113.907773 284.491636 
L 114.099676 273.495273 
L 114.142528 284.491636 
L 114.330704 273.495273 
L 114.379146 284.491636 
L 114.561733 273.495273 
L 114.609243 284.491636 
L 114.799282 273.495273 
L 114.840271 284.491636 
L 115.0359 273.495273 
L 115.077821 284.491636 
L 115.262271 273.495273 
L 115.314438 284.491636 
L 115.493299 273.495273 
L 115.541741 284.491636 
L 115.724328 273.495273 
L 115.772769 284.491636 
L 115.961877 273.495273 
L 116.002866 284.491636 
L 116.187316 273.495273 
L 116.240415 284.491636 
L 116.417413 273.495273 
L 116.466786 284.491636 
L 116.654031 273.495273 
L 116.696883 284.491636 
L 116.885991 273.495273 
L 116.9335 284.491636 
L 117.122608 273.495273 
L 117.16546 284.491636 
L 117.358295 273.495273 
L 117.402078 284.491636 
L 117.591186 273.495273 
L 117.637764 284.491636 
L 117.825941 273.495273 
L 117.870656 284.491636 
L 118.056038 273.495273 
L 118.104479 284.491636 
L 118.289861 273.495273 
L 118.334576 284.491636 
L 118.524616 273.495273 
L 118.568399 284.491636 
L 118.756575 273.495273 
L 118.804085 284.491636 
L 118.989467 273.495273 
L 119.036045 284.491636 
L 119.218632 273.495273 
L 119.268937 284.491636 
L 119.452455 273.495273 
L 119.498102 284.491636 
L 119.68721 273.495273 
L 119.731925 284.491636 
L 119.922896 273.495273 
L 119.96668 284.491636 
L 120.155788 273.495273 
L 120.202366 284.491636 
L 120.38309 273.495273 
L 120.434326 284.491636 
L 120.617845 273.495273 
L 120.66256 284.491636 
L 120.850736 273.495273 
L 120.897315 284.491636 
L 121.090149 273.495273 
L 121.130206 284.491636 
L 121.323972 273.495273 
L 121.369619 284.491636 
L 121.558727 273.495273 
L 121.60251 284.491636 
L 121.796276 273.495273 
L 121.837265 284.491636 
L 122.031031 273.495273 
L 122.075746 284.491636 
L 122.264854 273.495273 
L 122.310501 284.491636 
L 122.499608 273.495273 
L 122.544324 284.491636 
L 122.734363 273.495273 
L 122.779078 284.491636 
L 122.967255 273.495273 
L 123.013833 284.491636 
L 123.205736 273.495273 
L 123.246725 284.491636 
L 123.44049 273.495273 
L 123.485206 284.491636 
L 123.673382 273.495273 
L 123.71996 284.491636 
L 123.903479 273.495273 
L 123.95192 284.491636 
L 124.366467 262.498909 
L 124.394414 273.495273 
L 125.768474 207.517091 
L 128.099253 97.553455 
L 129.724836 108.549818 
L 129.966112 284.491636 
L 130.186893 273.495273 
L 130.233471 284.491636 
L 130.413263 273.495273 
L 130.466363 284.491636 
L 130.64895 273.495273 
L 130.692733 284.491636 
L 130.884636 273.495273 
L 130.928419 284.491636 
L 131.121254 273.495273 
L 131.163174 284.491636 
L 131.355077 273.495273 
L 131.400723 284.491636 
L 131.5889 273.495273 
L 131.634547 284.491636 
L 131.822723 273.495273 
L 131.867438 284.491636 
L 132.054683 273.495273 
L 132.102193 284.491636 
L 132.28478 273.495273 
L 132.334153 284.491636 
L 132.521398 273.495273 
L 132.563318 284.491636 
L 132.754289 273.495273 
L 132.800867 284.491636 
L 132.988112 273.495273 
L 133.033759 284.491636 
L 133.220072 273.495273 
L 133.267582 284.491636 
L 133.448306 273.495273 
L 133.499542 284.491636 
L 133.680266 273.495273 
L 133.726844 284.491636 
L 133.911294 273.495273 
L 133.959736 284.491636 
L 134.144186 273.495273 
L 134.189833 284.491636 
L 134.378941 273.495273 
L 134.423656 284.491636 
L 134.611832 273.495273 
L 134.65841 284.491636 
L 134.840997 273.495273 
L 134.89037 284.491636 
L 135.071094 273.495273 
L 135.120467 284.491636 
L 135.304917 273.495273 
L 135.350564 284.491636 
L 135.533151 273.495273 
L 135.584387 284.491636 
L 135.766974 273.495273 
L 135.812621 284.491636 
L 136.001729 273.495273 
L 136.045513 284.491636 
L 136.236484 273.495273 
L 136.280267 284.491636 
L 136.471238 273.495273 
L 136.515953 284.491636 
L 136.702267 273.495273 
L 136.750708 284.491636 
L 136.940748 273.495273 
L 136.981737 284.491636 
L 137.175502 273.495273 
L 137.220217 284.491636 
L 137.414915 273.495273 
L 137.454972 284.491636 
L 137.64967 273.495273 
L 137.694385 284.491636 
L 137.880698 273.495273 
L 137.928208 284.491636 
L 138.114521 273.495273 
L 138.160168 284.491636 
L 138.348344 273.495273 
L 138.393059 284.491636 
L 138.584962 273.495273 
L 138.626882 284.491636 
L 138.81599 273.495273 
L 138.864432 284.491636 
L 139.052608 273.495273 
L 139.094529 284.491636 
L 139.291089 273.495273 
L 139.332078 284.491636 
L 139.524912 273.495273 
L 139.569627 284.491636 
L 139.754078 273.495273 
L 139.804382 284.491636 
L 139.983243 273.495273 
L 140.033547 284.491636 
L 140.219861 273.495273 
L 140.262713 284.491636 
L 140.452752 273.495273 
L 140.49933 284.491636 
L 140.682849 273.495273 
L 140.732222 284.491636 
L 140.918535 273.495273 
L 140.962319 284.491636 
L 141.15329 273.495273 
L 141.198005 284.491636 
L 141.387113 273.495273 
L 141.43276 284.491636 
L 141.618142 273.495273 
L 141.665651 284.491636 
L 141.848238 273.495273 
L 141.897611 284.491636 
L 142.082061 273.495273 
L 142.126777 284.491636 
L 142.315885 273.495273 
L 142.361531 284.491636 
L 142.554366 273.495273 
L 142.594423 284.491636 
L 142.78912 273.495273 
L 142.833835 284.491636 
L 143.024806 273.495273 
L 143.06859 284.491636 
L 143.25304 273.495273 
L 143.303345 284.491636 
L 143.487795 273.495273 
L 143.53251 284.491636 
L 143.72255 273.495273 
L 143.767265 284.491636 
L 143.955441 273.495273 
L 144.002019 284.491636 
L 144.190196 273.495273 
L 144.234911 284.491636 
L 144.424019 273.495273 
L 144.469666 284.491636 
L 144.654116 273.495273 
L 144.703489 284.491636 
L 144.883281 273.495273 
L 144.932654 284.491636 
L 145.12083 273.495273 
L 145.162751 284.491636 
L 145.353722 273.495273 
L 145.399369 284.491636 
L 145.589408 273.495273 
L 145.633192 284.491636 
L 145.817642 273.495273 
L 145.868878 284.491636 
L 146.055191 273.495273 
L 146.097112 284.491636 
L 146.291809 273.495273 
L 146.334661 284.491636 
L 146.523769 273.495273 
L 146.571279 284.491636 
L 146.752003 273.495273 
L 146.802307 284.491636 
L 146.986757 273.495273 
L 147.031473 284.491636 
L 147.220581 273.495273 
L 147.266227 284.491636 
L 147.452541 273.495273 
L 147.50005 284.491636 
L 147.681706 273.495273 
L 147.73201 284.491636 
L 147.915529 273.495273 
L 147.960244 284.491636 
L 148.147489 273.495273 
L 148.194999 284.491636 
L 148.386901 273.495273 
L 148.426959 284.491636 
L 148.618861 273.495273 
L 148.66544 284.491636 
L 148.84989 273.495273 
L 148.898331 284.491636 
L 149.078124 273.495273 
L 149.128428 284.491636 
L 149.315673 273.495273 
L 149.356662 284.491636 
L 149.553222 273.495273 
L 149.595143 284.491636 
L 149.785182 273.495273 
L 149.832692 284.491636 
L 150.018074 273.495273 
L 150.064652 284.491636 
L 150.247239 273.495273 
L 150.296612 284.491636 
L 150.482925 273.495273 
L 150.526709 284.491636 
L 150.719543 273.495273 
L 150.761464 284.491636 
L 150.951503 273.495273 
L 150.999013 284.491636 
L 151.183463 273.495273 
L 151.230042 284.491636 
L 151.421944 273.495273 
L 151.462933 284.491636 
L 151.656699 273.495273 
L 151.701414 284.491636 
L 151.890522 273.495273 
L 151.936169 284.491636 
L 152.357237 262.498909 
L 152.387047 273.495273 
L 153.28694 229.509818 
L 156.093749 97.553455 
L 157.671822 108.549818 
L 157.729579 97.553455 
L 163.261219 108.549818 
L 163.595651 284.491636 
L 163.787554 273.495273 
L 163.835064 284.491636 
L 164.018582 273.495273 
L 164.067024 284.491636 
L 164.252405 273.495273 
L 164.298052 284.491636 
L 164.48716 273.495273 
L 164.531875 284.491636 
L 164.724709 273.495273 
L 164.765698 284.491636 
L 164.961327 273.495273 
L 165.003248 284.491636 
L 165.193287 273.495273 
L 165.240797 284.491636 
L 165.422452 273.495273 
L 165.472757 284.491636 
L 165.657207 273.495273 
L 165.700991 284.491636 
L 165.89103 273.495273 
L 165.936677 284.491636 
L 166.121127 273.495273 
L 166.169569 284.491636 
L 166.348429 273.495273 
L 166.399665 284.491636 
L 166.577595 273.495273 
L 166.627899 284.491636 
L 166.808623 273.495273 
L 166.857064 284.491636 
L 167.044309 273.495273 
L 167.087161 284.491636 
L 167.277201 273.495273 
L 167.323779 284.491636 
L 167.515682 273.495273 
L 167.556671 284.491636 
L 167.750436 273.495273 
L 167.795152 284.491636 
L 167.98426 273.495273 
L 168.029906 284.491636 
L 168.211562 273.495273 
L 168.262798 284.491636 
L 168.44818 273.495273 
L 168.491032 284.491636 
L 168.680139 273.495273 
L 168.727649 284.491636 
L 168.914894 273.495273 
L 168.959609 284.491636 
L 169.144059 273.495273 
L 169.194364 284.491636 
L 169.374156 273.495273 
L 169.423529 284.491636 
L 169.606116 273.495273 
L 169.653626 284.491636 
L 169.839939 273.495273 
L 169.885586 284.491636 
L 170.06631 273.495273 
L 170.118478 284.491636 
L 170.302928 273.495273 
L 170.34578 284.491636 
L 170.534888 273.495273 
L 170.582398 284.491636 
L 170.763121 273.495273 
L 170.814358 284.491636 
L 171.001602 273.495273 
L 171.042591 284.491636 
L 171.235426 273.495273 
L 171.281072 284.491636 
L 171.467386 273.495273 
L 171.514895 284.491636 
L 171.697482 273.495273 
L 171.745924 284.491636 
L 171.927579 273.495273 
L 171.976952 284.491636 
L 172.166992 273.495273 
L 172.207049 284.491636 
L 172.39802 273.495273 
L 172.44553 284.491636 
L 172.623459 273.495273 
L 172.676558 284.491636 
L 172.856351 273.495273 
L 172.901997 284.491636 
L 173.090174 273.495273 
L 173.135821 284.491636 
L 173.32586 273.495273 
L 173.369644 284.491636 
L 173.55782 273.495273 
L 173.60533 284.491636 
L 173.792575 273.495273 
L 173.83729 284.491636 
L 174.018945 273.495273 
L 174.072045 284.491636 
L 174.249974 273.495273 
L 174.298415 284.491636 
L 174.480071 273.495273 
L 174.528512 284.491636 
L 174.712031 273.495273 
L 174.75954 284.491636 
L 174.939333 273.495273 
L 174.9915 284.491636 
L 175.168498 273.495273 
L 175.218803 284.491636 
L 175.394869 273.495273 
L 175.447968 284.491636 
L 175.629623 273.495273 
L 175.674338 284.491636 
L 175.861583 273.495273 
L 175.909093 284.491636 
L 176.094475 273.495273 
L 176.140122 284.491636 
L 176.328298 273.495273 
L 176.373945 284.491636 
L 176.562121 273.495273 
L 176.607768 284.491636 
L 176.790355 273.495273 
L 176.841591 284.491636 
L 177.028836 273.495273 
L 177.069825 284.491636 
L 177.262659 273.495273 
L 177.307374 284.491636 
L 177.489029 273.495273 
L 177.541197 284.491636 
L 177.721921 273.495273 
L 177.768499 284.491636 
L 177.953881 273.495273 
L 178.001391 284.491636 
L 178.187704 273.495273 
L 178.232419 284.491636 
L 178.417801 273.495273 
L 178.467174 284.491636 
L 178.646035 273.495273 
L 178.697271 284.491636 
L 178.877995 273.495273 
L 178.925505 284.491636 
L 179.111818 273.495273 
L 179.156533 284.491636 
L 179.343778 273.495273 
L 179.391288 284.491636 
L 179.577601 273.495273 
L 179.623248 284.491636 
L 179.805835 273.495273 
L 179.856139 284.491636 
L 180.033137 273.495273 
L 180.085304 284.491636 
L 180.266028 273.495273 
L 180.312607 284.491636 
L 180.506372 273.495273 
L 180.545498 284.491636 
L 180.734606 273.495273 
L 180.784911 284.491636 
L 180.969361 273.495273 
L 181.014076 284.491636 
L 181.197594 273.495273 
L 181.248831 284.491636 
L 181.431418 273.495273 
L 181.477064 284.491636 
L 181.661514 273.495273 
L 181.709956 284.491636 
L 181.898132 273.495273 
L 181.940984 284.491636 
L 182.133818 273.495273 
L 182.177602 284.491636 
L 182.365778 273.495273 
L 182.413288 284.491636 
L 182.599602 273.495273 
L 182.645248 284.491636 
L 182.831562 273.495273 
L 182.879071 284.491636 
L 183.064453 273.495273 
L 183.1101 284.491636 
L 183.297345 273.495273 
L 183.343923 284.491636 
L 183.532099 273.495273 
L 183.575883 284.491636 
L 183.769649 273.495273 
L 183.811569 284.491636 
L 184.00254 273.495273 
L 184.049119 284.491636 
L 184.236363 273.495273 
L 184.28201 284.491636 
L 184.467392 273.495273 
L 184.515833 284.491636 
L 184.701215 273.495273 
L 184.746862 284.491636 
L 184.933175 273.495273 
L 184.980685 284.491636 
L 185.165135 273.495273 
L 185.212645 284.491636 
L 185.398026 273.495273 
L 185.444605 284.491636 
L 185.861946 262.498909 
L 185.888962 273.495273 
L 187.259296 207.517091 
L 188.423753 152.535273 
L 189.454997 141.538909 
L 190.101504 119.546182 
L 191.207273 130.542545 
L 191.464385 284.491636 
L 191.702866 295.488 
L 191.751308 284.491636 
L 192.030778 295.488 
L 192.087603 284.491636 
L 192.367073 295.488 
L 192.406199 284.491636 
L 192.685669 295.488 
L 192.730384 284.491636 
L 193.009854 295.488 
L 193.062953 284.491636 
L 193.395522 273.495273 
L 193.642387 284.491636 
L 193.717844 273.495273 
L 195.991797 196.520727 
L 202.545365 207.517091 
L 202.774531 295.488 
L 202.847193 284.491636 
L 203.126663 295.488 
L 203.162994 284.491636 
L 203.442464 295.488 
L 203.4937 284.491636 
L 203.772238 295.488 
L 203.826269 284.491636 
L 204.104807 295.488 
L 204.146728 284.491636 
L 204.426198 295.488 
L 204.465323 284.491636 
L 204.743862 295.488 
L 204.789508 284.491636 
L 205.068978 295.488 
L 205.115557 284.491636 
L 205.395026 295.488 
L 205.434152 284.491636 
L 205.713622 295.488 
L 205.767653 284.491636 
L 206.047123 295.488 
L 206.094633 284.491636 
L 206.374102 295.488 
L 206.413228 284.491636 
L 206.691767 295.488 
L 206.745797 284.491636 
L 207.025267 295.488 
L 207.071846 284.491636 
L 207.350384 295.488 
L 207.398825 284.491636 
L 207.678295 295.488 
L 207.718352 284.491636 
L 207.997822 295.488 
L 208.034153 284.491636 
L 208.313623 295.488 
L 208.361133 284.491636 
L 208.640603 295.488 
L 208.694634 284.491636 
L 208.974104 295.488 
L 209.022545 284.491636 
L 209.302015 295.488 
L 209.355114 284.491636 
L 209.634584 295.488 
L 209.690478 284.491636 
L 209.969016 295.488 
L 210.008142 284.491636 
L 210.28668 295.488 
L 210.340711 284.491636 
L 210.61925 295.488 
L 210.660239 284.491636 
L 210.938777 295.488 
L 210.980697 284.491636 
L 211.260167 295.488 
L 211.304882 284.491636 
L 211.583421 295.488 
L 211.626273 284.491636 
L 211.904811 295.488 
L 211.956047 284.491636 
L 212.234585 295.488 
L 212.277437 284.491636 
L 212.556907 295.488 
L 212.607212 284.491636 
L 212.88575 295.488 
L 212.938849 284.491636 
L 213.218319 295.488 
L 213.259308 284.491636 
L 213.538778 295.488 
L 213.583493 284.491636 
L 213.862032 295.488 
L 213.914199 284.491636 
L 214.193669 295.488 
L 214.2477 284.491636 
L 214.526238 295.488 
L 214.571885 284.491636 
L 214.851355 295.488 
L 214.901659 284.491636 
L 215.181129 295.488 
L 215.22305 284.491636 
L 215.501588 295.488 
L 215.541645 284.491636 
L 215.821115 295.488 
L 215.866762 284.491636 
L 216.146232 295.488 
L 216.196536 284.491636 
L 216.475075 295.488 
L 216.516064 284.491636 
L 216.795533 295.488 
L 216.84118 284.491636 
L 217.12065 295.488 
L 217.173749 284.491636 
L 217.453219 295.488 
L 217.498866 284.491636 
L 217.778336 295.488 
L 217.82864 284.491636 
L 218.10811 295.488 
L 218.153757 284.491636 
L 218.433227 295.488 
L 218.476079 284.491636 
L 218.755549 295.488 
L 218.793743 284.491636 
L 219.073213 295.488 
L 219.111407 284.491636 
L 219.389945 295.488 
L 219.438387 284.491636 
L 219.717857 295.488 
L 219.759777 284.491636 
L 220.039247 295.488 
L 220.081167 284.491636 
L 220.360637 295.488 
L 220.406284 284.491636 
L 220.684822 295.488 
L 220.73699 284.491636 
L 221.015528 295.488 
L 221.06397 284.491636 
L 221.34344 295.488 
L 221.38536 284.491636 
L 221.66483 295.488 
L 221.71234 284.491636 
L 221.990878 295.488 
L 222.040251 284.491636 
L 222.319721 295.488 
L 222.367231 284.491636 
L 222.646701 295.488 
L 222.691416 284.491636 
L 222.969954 295.488 
L 223.016533 284.491636 
L 223.296002 295.488 
L 223.341649 284.491636 
L 223.621119 295.488 
L 223.666766 284.491636 
L 223.946236 295.488 
L 223.99654 284.491636 
L 224.27601 295.488 
L 224.316999 284.491636 
L 224.596469 295.488 
L 230.837031 284.491636 
L 231.116501 295.488 
L 254.714935 284.491636 
L 257.633532 185.524364 
L 258.282834 196.520727 
L 258.530631 207.517091 
L 258.758864 284.491636 
L 258.903257 295.488 
L 258.947972 284.491636 
L 259.227442 295.488 
L 259.27402 284.491636 
L 259.55349 295.488 
L 259.596342 284.491636 
L 259.875812 295.488 
L 259.927048 284.491636 
L 260.205587 295.488 
L 260.260549 284.491636 
L 260.540019 295.488 
L 260.590323 284.491636 
L 260.869793 295.488 
L 260.910782 284.491636 
L 261.190252 295.488 
L 261.237762 284.491636 
L 261.517232 295.488 
L 261.559152 284.491636 
L 261.838622 295.488 
L 261.883337 284.491636 
L 262.161876 295.488 
L 262.21218 284.491636 
L 262.49165 295.488 
L 263.432532 284.491636 
L 263.62164 273.495273 
L 263.712002 284.491636 
L 263.80609 273.495273 
L 263.90111 284.491636 
L 263.997061 273.495273 
L 264.08556 284.491636 
L 264.185237 273.495273 
L 264.276531 284.491636 
L 264.371551 273.495273 
L 264.464707 284.491636 
L 264.563453 273.495273 
L 264.651021 284.491636 
L 264.747903 273.495273 
L 264.841992 284.491636 
L 264.934217 273.495273 
L 265.026442 284.491636 
L 265.123325 273.495273 
L 265.213687 284.491636 
L 265.310569 273.495273 
L 265.402794 284.491636 
L 265.494088 273.495273 
L 265.589108 284.491636 
L 265.680401 273.495273 
L 265.773558 284.491636 
L 265.869509 273.495273 
L 265.958939 284.491636 
L 266.054891 273.495273 
L 266.148979 284.491636 
L 266.245862 273.495273 
L 266.333429 284.491636 
L 266.428449 273.495273 
L 266.5244 284.491636 
L 266.617557 273.495273 
L 266.707919 284.491636 
L 266.808528 273.495273 
L 266.897027 284.491636 
L 266.990183 273.495273 
L 267.087066 284.491636 
L 267.174633 273.495273 
L 267.269653 284.491636 
L 267.36281 273.495273 
L 267.454103 284.491636 
L 267.549123 273.495273 
L 267.641348 284.491636 
L 267.739162 273.495273 
L 267.828593 284.491636 
L 267.929202 273.495273 
L 268.018632 284.491636 
L 268.119241 273.495273 
L 268.208672 284.491636 
L 268.309281 273.495273 
L 268.39778 284.491636 
L 268.495594 273.495273 
L 268.587819 284.491636 
L 268.684702 273.495273 
L 268.775064 284.491636 
L 268.870084 273.495273 
L 268.964172 284.491636 
L 269.056397 273.495273 
L 269.148622 284.491636 
L 269.239916 273.495273 
L 269.335867 284.491636 
L 269.42716 273.495273 
L 269.518454 284.491636 
L 269.612542 273.495273 
L 269.705699 284.491636 
L 269.795129 273.495273 
L 269.892012 284.491636 
L 269.983305 273.495273 
L 270.074599 284.491636 
L 270.166824 273.495273 
L 270.262775 284.491636 
L 270.352206 273.495273 
L 270.446294 284.491636 
L 270.544108 273.495273 
L 270.631676 284.491636 
L 270.732285 273.495273 
L 270.823578 284.491636 
L 270.921393 273.495273 
L 271.011755 284.491636 
L 271.108637 273.495273 
L 271.200862 284.491636 
L 271.294951 273.495273 
L 271.387176 284.491636 
L 271.476606 273.495273 
L 271.573489 284.491636 
L 271.667577 273.495273 
L 271.755144 284.491636 
L 271.856685 273.495273 
L 271.947047 284.491636 
L 272.039272 273.495273 
L 272.135223 284.491636 
L 272.227448 273.495273 
L 272.318742 284.491636 
L 272.416556 273.495273 
L 272.506918 284.491636 
L 272.601938 273.495273 
L 272.696026 284.491636 
L 272.788251 273.495273 
L 272.881408 284.491636 
L 272.974564 273.495273 
L 273.067721 284.491636 
L 273.159946 273.495273 
L 273.254034 284.491636 
L 273.349054 273.495273 
L 273.438484 284.491636 
L 273.536299 273.495273 
L 273.627592 284.491636 
L 273.726338 273.495273 
L 273.815769 284.491636 
L 273.912652 273.495273 
L 274.005808 284.491636 
L 274.098965 273.495273 
L 274.19119 284.491636 
L 274.284347 273.495273 
L 274.378435 284.491636 
L 274.468797 273.495273 
L 274.562885 284.491636 
L 274.65511 273.495273 
L 274.748267 284.491636 
L 274.842355 273.495273 
L 274.93458 284.491636 
L 275.031463 273.495273 
L 275.121825 284.491636 
L 275.213118 273.495273 
L 275.310001 284.491636 
L 275.3985 273.495273 
L 275.491656 284.491636 
L 275.588539 273.495273 
L 275.67797 284.491636 
L 275.774852 273.495273 
L 275.868009 284.491636 
L 275.956508 273.495273 
L 276.053391 284.491636 
L 276.142821 273.495273 
L 276.235978 284.491636 
L 276.329134 273.495273 
L 276.421359 284.491636 
L 276.516379 273.495273 
L 276.608604 284.491636 
L 276.701761 273.495273 
L 276.795849 284.491636 
L 276.886211 273.495273 
L 276.981231 284.491636 
L 277.067866 273.495273 
L 277.165681 284.491636 
L 277.252316 273.495273 
L 277.347336 284.491636 
L 277.43304 273.495273 
L 277.531786 284.491636 
L 277.620285 273.495273 
L 277.71251 284.491636 
L 277.80753 273.495273 
L 277.899755 284.491636 
L 277.993843 273.495273 
L 278.086068 284.491636 
L 278.181088 273.495273 
L 278.272381 284.491636 
L 278.36647 273.495273 
L 278.460558 284.491636 
L 278.551851 273.495273 
L 278.645939 284.491636 
L 278.740959 273.495273 
L 278.831321 284.491636 
L 278.922615 273.495273 
L 279.020429 284.491636 
L 279.111723 273.495273 
L 279.202085 284.491636 
L 279.298036 273.495273 
L 279.391192 284.491636 
L 279.487144 273.495273 
L 279.577506 284.491636 
L 279.672525 273.495273 
L 279.766614 284.491636 
L 279.861633 273.495273 
L 279.951995 284.491636 
L 280.052604 273.495273 
L 280.140172 284.491636 
L 280.242644 273.495273 
L 280.331143 284.491636 
L 280.431752 273.495273 
L 280.522114 284.491636 
L 280.61527 273.495273 
L 280.711222 284.491636 
L 280.796926 273.495273 
L 280.893809 284.491636 
L 280.986965 273.495273 
L 281.075464 284.491636 
L 281.173279 273.495273 
L 281.266435 284.491636 
L 281.357729 273.495273 
L 281.452748 284.491636 
L 281.544042 273.495273 
L 281.637199 284.491636 
L 281.72756 273.495273 
L 281.823512 284.491636 
L 281.913874 273.495273 
L 282.00703 284.491636 
L 282.104845 273.495273 
L 282.193344 284.491636 
L 282.290226 273.495273 
L 282.383383 284.491636 
L 282.479334 273.495273 
L 282.568765 284.491636 
L 282.669374 273.495273 
L 282.757873 284.491636 
L 282.851961 273.495273 
L 282.947912 284.491636 
L 283.035479 273.495273 
L 283.131431 284.491636 
L 283.225519 273.495273 
L 283.314018 284.491636 
L 283.412764 273.495273 
L 283.504989 284.491636 
L 283.593488 273.495273 
L 283.692234 284.491636 
L 283.781664 273.495273 
L 283.872957 284.491636 
L 283.967046 273.495273 
L 284.061134 284.491636 
L 284.157085 273.495273 
L 284.246515 284.491636 
L 284.347125 273.495273 
L 284.435623 284.491636 
L 284.532506 273.495273 
L 284.625663 284.491636 
L 284.721614 273.495273 
L 284.811976 284.491636 
L 284.907927 273.495273 
L 285.001084 284.491636 
L 285.098899 273.495273 
L 285.187397 284.491636 
L 285.286143 273.495273 
L 285.378368 284.491636 
L 285.46873 273.495273 
L 285.564682 284.491636 
L 285.652249 273.495273 
L 285.7482 284.491636 
L 285.836699 273.495273 
L 285.931719 284.491636 
L 286.025807 273.495273 
L 286.116169 284.491636 
L 286.398433 262.498909 
L 286.477616 273.495273 
L 286.767334 251.502545 
L 290.134945 53.568 
L 291.813628 64.564364 
L 292.051177 284.491636 
L 292.179733 273.495273 
L 292.271027 284.491636 
L 292.368841 273.495273 
L 292.459203 284.491636 
L 292.554223 273.495273 
L 292.648311 284.491636 
L 292.738673 273.495273 
L 292.832761 284.491636 
L 292.925918 273.495273 
L 293.018143 284.491636 
L 293.108505 273.495273 
L 293.205388 284.491636 
L 293.297613 273.495273 
L 293.387975 284.491636 
L 293.482994 273.495273 
L 293.576151 284.491636 
L 293.66465 273.495273 
L 293.762464 284.491636 
L 293.854689 273.495273 
L 293.94412 284.491636 
L 294.040071 273.495273 
L 294.133227 284.491636 
L 294.227316 273.495273 
L 294.319541 284.491636 
L 294.411766 273.495273 
L 294.506786 284.491636 
L 294.602737 273.495273 
L 294.691236 284.491636 
L 294.791845 273.495273 
L 294.882207 284.491636 
L 294.978158 273.495273 
L 295.071315 284.491636 
L 295.164471 273.495273 
L 295.257628 284.491636 
L 295.348921 273.495273 
L 295.443941 284.491636 
L 295.53244 273.495273 
L 295.628391 284.491636 
L 295.718753 273.495273 
L 295.81191 284.491636 
L 295.90134 273.495273 
L 295.998223 284.491636 
L 296.082996 273.495273 
L 296.179878 284.491636 
L 296.273035 273.495273 
L 296.361534 284.491636 
L 296.458417 273.495273 
L 296.551573 284.491636 
L 296.651251 273.495273 
L 296.737887 284.491636 
L 296.837564 273.495273 
L 296.929789 284.491636 
L 297.026672 273.495273 
L 297.116102 284.491636 
L 297.216712 273.495273 
L 297.30521 284.491636 
L 297.403956 273.495273 
L 297.496181 284.491636 
L 297.58468 273.495273 
L 297.682495 284.491636 
L 297.772857 273.495273 
L 297.86415 284.491636 
L 297.961033 273.495273 
L 298.052326 284.491636 
L 298.145483 273.495273 
L 298.240503 284.491636 
L 298.331796 273.495273 
L 298.424021 284.491636 
L 298.519041 273.495273 
L 298.611266 284.491636 
L 298.699765 273.495273 
L 298.798511 284.491636 
L 298.886078 273.495273 
L 298.979235 284.491636 
L 299.070528 273.495273 
L 299.165548 284.491636 
L 299.256842 273.495273 
L 299.349998 284.491636 
L 299.443155 273.495273 
L 299.536311 284.491636 
L 299.628536 273.495273 
L 299.722625 284.491636 
L 299.817644 273.495273 
L 299.908006 284.491636 
L 300.008615 273.495273 
L 300.096183 284.491636 
L 300.19586 273.495273 
L 300.288085 284.491636 
L 300.383105 273.495273 
L 300.474399 284.491636 
L 300.571281 273.495273 
L 300.662575 284.491636 
L 300.759458 273.495273 
L 300.850751 284.491636 
L 300.947634 273.495273 
L 301.037996 284.491636 
L 301.132084 273.495273 
L 301.226173 284.491636 
L 301.315603 273.495273 
L 301.411554 284.491636 
L 301.501916 273.495273 
L 301.594141 284.491636 
L 301.686366 273.495273 
L 301.780454 284.491636 
L 301.873611 273.495273 
L 301.964904 284.491636 
L 302.064582 273.495273 
L 302.152149 284.491636 
L 302.252758 273.495273 
L 302.34312 284.491636 
L 302.437209 273.495273 
L 302.532228 284.491636 
L 302.626316 273.495273 
L 302.716678 284.491636 
L 302.814493 273.495273 
L 302.904855 284.491636 
L 302.999875 273.495273 
L 303.093031 284.491636 
L 303.187119 273.495273 
L 303.279344 284.491636 
L 303.373433 273.495273 
L 303.465658 284.491636 
L 303.561609 273.495273 
L 303.652902 284.491636 
L 303.749785 273.495273 
L 303.841079 284.491636 
L 303.93703 273.495273 
L 304.028324 284.491636 
L 304.123343 273.495273 
L 304.2165 284.491636 
L 304.309657 273.495273 
L 304.402813 284.491636 
L 304.494107 273.495273 
L 304.589126 284.491636 
L 304.675762 273.495273 
L 304.772645 284.491636 
L 304.863938 273.495273 
L 304.955232 284.491636 
L 305.050252 273.495273 
L 305.143408 284.491636 
L 305.232839 273.495273 
L 305.329722 284.491636 
L 305.422878 273.495273 
L 305.512309 284.491636 
L 305.610123 273.495273 
L 305.702348 284.491636 
L 305.796436 273.495273 
L 305.889593 284.491636 
L 305.986476 273.495273 
L 306.075906 284.491636 
L 306.174652 273.495273 
L 306.265946 284.491636 
L 306.361897 273.495273 
L 306.45319 284.491636 
L 306.552868 273.495273 
L 306.641367 284.491636 
L 306.741976 273.495273 
L 306.832338 284.491636 
L 306.926426 273.495273 
L 307.021446 284.491636 
L 307.114602 273.495273 
L 307.205896 284.491636 
L 307.299984 273.495273 
L 307.393141 284.491636 
L 307.487229 273.495273 
L 307.578522 284.491636 
L 307.673542 273.495273 
L 307.765767 284.491636 
L 307.860787 273.495273 
L 307.953012 284.491636 
L 308.049895 273.495273 
L 308.139325 284.491636 
L 308.239003 273.495273 
L 308.329365 284.491636 
L 308.424384 273.495273 
L 308.518473 284.491636 
L 308.609766 273.495273 
L 308.702923 284.491636 
L 308.797943 273.495273 
L 308.888304 284.491636 
L 308.986119 273.495273 
L 309.076481 284.491636 
L 309.175227 273.495273 
L 309.265589 284.491636 
L 309.360609 273.495273 
L 309.454697 284.491636 
L 309.543195 273.495273 
L 309.639147 284.491636 
L 309.73044 273.495273 
L 309.822665 284.491636 
L 309.921411 273.495273 
L 310.00991 284.491636 
L 310.109588 273.495273 
L 310.200881 284.491636 
L 310.296833 273.495273 
L 310.389058 284.491636 
L 310.480351 273.495273 
L 310.576302 284.491636 
L 310.66387 273.495273 
L 310.758889 284.491636 
L 310.854841 273.495273 
L 310.943339 284.491636 
L 311.036496 273.495273 
L 311.133379 284.491636 
L 311.218152 273.495273 
L 311.315966 284.491636 
L 311.407259 273.495273 
L 311.497621 284.491636 
L 311.593573 273.495273 
L 311.686729 284.491636 
L 311.779886 273.495273 
L 311.873043 284.491636 
L 311.965268 273.495273 
L 312.059356 284.491636 
L 312.148786 273.495273 
L 312.244737 284.491636 
L 312.334168 273.495273 
L 312.428256 284.491636 
L 312.520481 273.495273 
L 312.612706 284.491636 
L 312.707726 273.495273 
L 312.799951 284.491636 
L 312.894971 273.495273 
L 312.987196 284.491636 
L 313.081284 273.495273 
L 313.174441 284.491636 
L 313.266666 273.495273 
L 313.360754 284.491636 
L 313.448321 273.495273 
L 313.546135 284.491636 
L 313.633703 273.495273 
L 313.727791 284.491636 
L 313.818153 273.495273 
L 313.913173 284.491636 
L 314.009124 273.495273 
L 314.097623 284.491636 
L 314.193574 273.495273 
L 314.288594 284.491636 
L 314.383613 273.495273 
L 314.473044 284.491636 
L 314.573653 273.495273 
L 314.663083 284.491636 
L 314.760898 273.495273 
L 314.853123 284.491636 
L 314.947211 273.495273 
L 315.040368 284.491636 
L 315.132593 273.495273 
L 315.226681 284.491636 
L 315.323564 273.495273 
L 315.412063 284.491636 
L 315.515466 273.495273 
L 315.602102 284.491636 
L 315.700848 273.495273 
L 315.794005 284.491636 
L 315.88623 273.495273 
L 315.979386 284.491636 
L 316.075338 273.495273 
L 316.164768 284.491636 
L 316.258856 273.495273 
L 316.354808 284.491636 
L 316.447964 273.495273 
L 316.538326 284.491636 
L 316.639867 273.495273 
L 316.727434 284.491636 
L 316.82618 273.495273 
L 316.919337 284.491636 
L 317.015288 273.495273 
L 317.104718 284.491636 
L 317.202533 273.495273 
L 317.294758 284.491636 
L 317.387914 273.495273 
L 317.481071 284.491636 
L 317.574228 273.495273 
L 317.667384 284.491636 
L 317.760541 273.495273 
L 317.852766 284.491636 
L 317.948717 273.495273 
L 318.040011 284.491636 
L 318.133167 273.495273 
L 318.228187 284.491636 
L 318.319481 273.495273 
L 318.412637 284.491636 
L 318.507657 273.495273 
L 318.598019 284.491636 
L 318.69397 273.495273 
L 318.787127 284.491636 
L 318.88401 273.495273 
L 318.97344 284.491636 
L 319.070323 273.495273 
L 319.16348 284.491636 
L 319.253842 273.495273 
L 319.349793 284.491636 
L 319.440155 273.495273 
L 319.533311 284.491636 
L 319.622742 273.495273 
L 319.719625 284.491636 
L 320.000958 262.498909 
L 320.077346 273.495273 
L 320.364268 251.502545 
L 323.704865 53.568 
L 325.349079 64.564364 
L 325.654633 284.491636 
L 325.744995 273.495273 
L 325.841878 284.491636 
L 325.93224 273.495273 
L 326.024465 284.491636 
L 326.118553 273.495273 
L 326.210778 284.491636 
L 326.300208 273.495273 
L 326.398023 284.491636 
L 326.488385 273.495273 
L 326.579678 284.491636 
L 326.672835 273.495273 
L 326.766923 284.491636 
L 326.855422 273.495273 
L 326.951373 284.491636 
L 327.040803 273.495273 
L 327.134892 284.491636 
L 327.221527 273.495273 
L 327.320273 284.491636 
L 327.40784 273.495273 
L 327.500997 284.491636 
L 327.590427 273.495273 
L 327.686379 284.491636 
L 327.773946 273.495273 
L 327.869897 284.491636 
L 327.956533 273.495273 
L 328.053416 284.491636 
L 328.331023 262.498909 
L 328.405548 273.495273 
L 328.698991 251.502545 
L 330.937545 119.546182 
L 331.085664 130.542545 
L 331.258004 284.491636 
L 331.313897 273.495273 
L 331.404259 284.491636 
L 331.502074 273.495273 
L 331.593367 284.491636 
L 331.693045 273.495273 
L 331.781544 284.491636 
L 331.879358 273.495273 
L 331.972515 284.491636 
L 332.065671 273.495273 
L 332.157896 284.491636 
L 332.255711 273.495273 
L 332.345141 284.491636 
L 332.442024 273.495273 
L 332.535181 284.491636 
L 332.627406 273.495273 
L 332.721494 284.491636 
L 332.818377 273.495273 
L 332.906876 284.491636 
L 333.002827 273.495273 
L 333.097847 284.491636 
L 333.188209 273.495273 
L 333.282297 284.491636 
L 333.371727 273.495273 
L 333.467679 284.491636 
L 333.554314 273.495273 
L 333.832852 295.488 
L 335.065315 284.491636 
L 335.344784 295.488 
L 335.397884 284.491636 
L 335.676422 295.488 
L 335.720206 284.491636 
L 335.998744 295.488 
L 336.054638 284.491636 
L 336.334108 295.488 
L 336.382549 284.491636 
L 336.661087 295.488 
L 336.712324 284.491636 
L 336.991793 295.488 
L 337.040235 284.491636 
L 337.319705 295.488 
L 337.370009 284.491636 
L 337.648548 295.488 
L 337.700715 284.491636 
L 337.980185 295.488 
L 338.031421 284.491636 
L 338.310891 295.488 
L 338.352812 284.491636 
L 338.632282 295.488 
L 338.682586 284.491636 
L 338.962056 295.488 
L 339.006771 284.491636 
L 339.286241 295.488 
L 339.335614 284.491636 
L 339.615084 295.488 
L 339.665388 284.491636 
L 339.943927 295.488 
L 339.98771 284.491636 
L 340.26718 295.488 
L 340.310964 284.491636 
L 340.590434 295.488 
L 340.640738 284.491636 
L 340.920208 295.488 
L 340.96865 284.491636 
L 341.248119 295.488 
L 341.287245 284.491636 
L 341.565783 295.488 
L 341.612362 284.491636 
L 341.8909 295.488 
L 341.931889 284.491636 
L 342.211359 295.488 
L 342.255142 284.491636 
L 342.534612 295.488 
L 342.585848 284.491636 
L 342.865318 295.488 
L 342.912828 284.491636 
L 343.192298 295.488 
L 343.232355 284.491636 
L 343.511825 295.488 
L 343.551883 284.491636 
L 343.831352 295.488 
L 343.873273 284.491636 
L 344.152743 295.488 
L 344.19839 284.491636 
L 344.476928 295.488 
L 344.51978 284.491636 
L 344.79925 295.488 
L 344.847691 284.491636 
L 345.127161 295.488 
L 345.167218 284.491636 
L 345.446688 295.488 
L 345.496993 284.491636 
L 345.776463 295.488 
L 345.814657 284.491636 
L 346.094127 295.488 
L 346.139773 284.491636 
L 346.419243 295.488 
L 346.457438 284.491636 
L 346.736907 295.488 
L 346.784417 284.491636 
L 347.063887 295.488 
L 347.112329 284.491636 
L 347.390867 295.488 
L 347.438377 284.491636 
L 347.717847 295.488 
L 347.762562 284.491636 
L 348.042032 295.488 
L 348.085815 284.491636 
L 348.365285 295.488 
L 348.416521 284.491636 
L 348.695991 295.488 
L 348.743501 284.491636 
L 349.022971 295.488 
L 349.072344 284.491636 
L 349.350882 295.488 
L 349.403981 284.491636 
L 349.68252 295.488 
L 349.731893 284.491636 
L 350.011363 295.488 
L 350.055146 284.491636 
L 350.333685 295.488 
L 350.37281 284.491636 
L 350.651349 295.488 
L 350.692337 284.491636 
L 350.970876 295.488 
L 351.019317 284.491636 
L 351.298787 295.488 
L 351.342571 284.491636 
L 351.622041 295.488 
L 351.66955 284.491636 
L 351.94902 295.488 
L 351.990009 284.491636 
L 352.268547 295.488 
L 352.316057 284.491636 
L 352.594596 295.488 
L 352.645832 284.491636 
L 352.92437 295.488 
L 352.975606 284.491636 
L 353.254145 295.488 
L 353.300723 284.491636 
L 353.579261 295.488 
L 353.625839 284.491636 
L 353.905309 295.488 
L 353.950024 284.491636 
L 354.229494 295.488 
L 354.277936 284.491636 
L 354.556474 295.488 
L 354.603052 284.491636 
L 354.882522 295.488 
L 354.92258 284.491636 
L 355.202049 295.488 
L 355.248628 284.491636 
L 355.527166 295.488 
L 355.566292 284.491636 
L 355.845762 295.488 
L 355.885819 284.491636 
L 356.165289 295.488 
L 356.206278 284.491636 
L 356.485748 295.488 
L 356.538847 284.491636 
L 356.818317 295.488 
L 356.868621 284.491636 
L 357.14716 295.488 
L 357.193738 284.491636 
L 357.473208 295.488 
L 357.519786 284.491636 
L 357.798324 295.488 
L 357.846766 284.491636 
L 358.126236 295.488 
L 358.177472 284.491636 
L 358.456942 295.488 
L 358.507246 284.491636 
L 358.786716 295.488 
L 358.829568 284.491636 
L 359.109038 295.488 
L 359.158411 284.491636 
L 359.437881 295.488 
L 359.477938 284.491636 
L 359.757408 295.488 
L 359.802123 284.491636 
L 360.081593 295.488 
L 360.125377 284.491636 
L 360.403915 295.488 
L 360.455151 284.491636 
L 360.73369 295.488 
L 360.779336 284.491636 
L 361.058806 295.488 
L 361.110974 284.491636 
L 361.389512 295.488 
L 361.43609 284.491636 
L 361.71556 295.488 
L 361.759344 284.491636 
L 362.037882 295.488 
L 362.085392 284.491636 
L 362.364862 295.488 
L 362.41144 284.491636 
L 362.689979 295.488 
L 362.735625 284.491636 
L 363.015095 295.488 
L 363.056084 284.491636 
L 363.335554 295.488 
L 363.383064 284.491636 
L 363.662534 295.488 
L 363.715633 284.491636 
L 363.995103 295.488 
L 364.044476 284.491636 
L 364.323946 295.488 
L 364.368661 284.491636 
L 364.648131 295.488 
L 364.694709 284.491636 
L 364.974179 295.488 
L 365.02262 284.491636 
L 365.30209 295.488 
L 365.347737 284.491636 
L 365.627207 295.488 
L 365.680306 284.491636 
L 365.959776 295.488 
L 366.007286 284.491636 
L 366.286756 295.488 
L 366.340786 284.491636 
L 366.619325 295.488 
L 366.666835 284.491636 
L 366.946304 295.488 
L 366.994746 284.491636 
L 367.274216 295.488 
L 367.316136 284.491636 
L 367.594675 295.488 
L 367.638458 284.491636 
L 367.917928 295.488 
L 367.966369 284.491636 
L 368.245839 295.488 
L 368.289623 284.491636 
L 368.569093 295.488 
L 368.608219 284.491636 
L 368.887688 295.488 
L 368.937061 284.491636 
L 369.216531 295.488 
L 369.26311 284.491636 
L 369.541648 295.488 
L 369.587295 284.491636 
L 369.866764 295.488 
L 369.913343 284.491636 
L 370.192813 295.488 
L 371.022838 284.491636 
L 371.258524 273.495273 
L 371.302308 284.491636 
L 371.490484 273.495273 
L 371.537063 284.491636 
L 371.720581 273.495273 
L 371.769954 284.491636 
L 371.954404 273.495273 
L 372.000051 284.491636 
L 372.191954 273.495273 
L 372.233874 284.491636 
L 372.42764 273.495273 
L 372.470492 284.491636 
L 372.6596 273.495273 
L 372.70711 284.491636 
L 372.894355 273.495273 
L 372.93907 284.491636 
L 373.128178 273.495273 
L 373.173824 284.491636 
L 373.362932 273.495273 
L 373.407648 284.491636 
L 373.590235 273.495273 
L 373.642402 284.491636 
L 373.824058 273.495273 
L 373.869704 284.491636 
L 374.055086 273.495273 
L 374.103528 284.491636 
L 374.284251 273.495273 
L 374.334556 284.491636 
L 374.518075 273.495273 
L 374.563721 284.491636 
L 374.74724 273.495273 
L 374.796613 284.491636 
L 374.980131 273.495273 
L 375.02671 284.491636 
L 375.213023 273.495273 
L 375.259601 284.491636 
L 375.439393 273.495273 
L 375.492493 284.491636 
L 375.676011 273.495273 
L 375.718863 284.491636 
L 375.912629 273.495273 
L 375.955481 284.491636 
L 376.148315 273.495273 
L 376.191167 284.491636 
L 376.382138 273.495273 
L 376.426854 284.491636 
L 376.616893 273.495273 
L 376.661608 284.491636 
L 376.843264 273.495273 
L 376.896363 284.491636 
L 377.077087 273.495273 
L 377.122734 284.491636 
L 377.309978 273.495273 
L 377.356557 284.491636 
L 377.543802 273.495273 
L 377.588517 284.491636 
L 377.775761 273.495273 
L 377.823271 284.491636 
L 378.008653 273.495273 
L 378.055231 284.491636 
L 378.244339 273.495273 
L 378.288123 284.491636 
L 378.475368 273.495273 
L 378.523809 284.491636 
L 378.711054 273.495273 
L 378.754838 284.491636 
L 378.944877 273.495273 
L 378.989592 284.491636 
L 379.173111 273.495273 
L 379.224347 284.491636 
L 379.408797 273.495273 
L 379.452581 284.491636 
L 379.64262 273.495273 
L 379.688267 284.491636 
L 379.87458 273.495273 
L 379.92209 284.491636 
L 380.103745 273.495273 
L 380.153118 284.491636 
L 380.340363 273.495273 
L 380.382284 284.491636 
L 380.57046 273.495273 
L 380.619833 284.491636 
L 380.801489 273.495273 
L 380.84993 284.491636 
L 381.033448 273.495273 
L 381.080027 284.491636 
L 381.264477 273.495273 
L 381.312918 284.491636 
L 381.494574 273.495273 
L 381.543947 284.491636 
L 381.726534 273.495273 
L 381.773112 284.491636 
L 381.960357 273.495273 
L 382.006004 284.491636 
L 382.191385 273.495273 
L 382.239827 284.491636 
L 382.424277 273.495273 
L 382.470855 284.491636 
L 382.659963 273.495273 
L 382.702815 284.491636 
L 382.893786 273.495273 
L 382.938501 284.491636 
L 383.128541 273.495273 
L 383.172324 284.491636 
L 383.36609 273.495273 
L 383.408011 284.491636 
L 383.600845 273.495273 
L 383.64556 284.491636 
L 383.829079 273.495273 
L 383.880315 284.491636 
L 384.061039 273.495273 
L 384.108548 284.491636 
L 384.292067 273.495273 
L 384.339577 284.491636 
L 384.523095 273.495273 
L 384.570605 284.491636 
L 384.755987 273.495273 
L 384.802565 284.491636 
L 384.987015 273.495273 
L 385.035457 284.491636 
L 385.216181 273.495273 
L 385.266485 284.491636 
L 385.446278 273.495273 
L 385.495651 284.491636 
L 385.682895 273.495273 
L 385.725747 284.491636 
L 385.911129 273.495273 
L 385.962365 284.491636 
L 386.141226 273.495273 
L 386.190599 284.491636 
L 386.376912 273.495273 
L 386.419764 284.491636 
L 386.604214 273.495273 
L 386.656382 284.491636 
L 386.839901 273.495273 
L 386.883684 284.491636 
L 387.069066 273.495273 
L 387.11937 284.491636 
L 387.298231 273.495273 
L 387.348536 284.491636 
L 387.533917 273.495273 
L 387.576769 284.491636 
L 387.767741 273.495273 
L 387.813387 284.491636 
L 388.004358 273.495273 
L 388.04721 284.491636 
L 388.230729 273.495273 
L 388.283828 284.491636 
L 388.461757 273.495273 
L 388.510199 284.491636 
L 388.690923 273.495273 
L 388.741227 284.491636 
L 388.924746 273.495273 
L 388.970392 284.491636 
L 389.161364 273.495273 
L 389.203284 284.491636 
L 389.394255 273.495273 
L 389.439902 284.491636 
L 389.622489 273.495273 
L 389.673725 284.491636 
L 389.857243 273.495273 
L 389.901959 284.491636 
L 390.084546 273.495273 
L 390.136713 284.491636 
L 390.313711 273.495273 
L 390.364016 284.491636 
L 390.55126 273.495273 
L 390.593181 284.491636 
L 390.781357 273.495273 
L 390.83073 284.491636 
L 391.010522 273.495273 
L 391.060827 284.491636 
L 391.243414 273.495273 
L 391.289992 284.491636 
L 391.471648 273.495273 
L 391.521952 284.491636 
L 391.701745 273.495273 
L 391.750186 284.491636 
L 391.931841 273.495273 
L 391.980283 284.491636 
L 392.15728 273.495273 
L 392.21038 284.491636 
L 392.390172 273.495273 
L 392.43675 284.491636 
L 392.620269 273.495273 
L 392.66871 284.491636 
L 392.855024 273.495273 
L 392.898807 284.491636 
L 393.089778 273.495273 
L 393.134493 284.491636 
L 393.319875 273.495273 
L 393.368316 284.491636 
L 393.54904 273.495273 
L 393.599345 284.491636 
L 393.785658 273.495273 
L 393.827579 284.491636 
L 394.01855 273.495273 
L 394.065128 284.491636 
L 394.252373 273.495273 
L 394.29802 284.491636 
L 394.489922 273.495273 
L 394.531843 284.491636 
L 394.724677 273.495273 
L 394.769392 284.491636 
L 394.9585 273.495273 
L 395.004147 284.491636 
L 395.191392 273.495273 
L 395.237038 284.491636 
L 395.426146 273.495273 
L 395.470861 284.491636 
L 395.652517 273.495273 
L 395.705616 284.491636 
L 395.884477 273.495273 
L 395.931987 284.491636 
L 396.117368 273.495273 
L 396.163947 284.491636 
L 396.348397 273.495273 
L 396.395907 284.491636 
L 396.584083 273.495273 
L 396.627867 284.491636 
L 396.816975 273.495273 
L 396.863553 284.491636 
L 397.04614 273.495273 
L 397.096444 284.491636 
L 397.283689 273.495273 
L 397.32561 284.491636 
L 397.514718 273.495273 
L 397.563159 284.491636 
L 397.742951 273.495273 
L 397.794187 284.491636 
L 397.974911 273.495273 
L 398.022421 284.491636 
L 398.207803 273.495273 
L 398.254381 284.491636 
L 398.487273 295.488 
L 398.487273 295.488 
" clip-path="url(#p42a8dcc544)" style="fill: none; stroke: #1f77b4; stroke-width: 1.5; stroke-linecap: square"/>
   </g>
   <g id="patch_3">
    <path d="M 57.6 307.584 
L 57.6 41.472 
" style="fill: none; stroke: #000000; stroke-width: 0.8; stroke-linejoin: miter; stroke-linecap: square"/>
   </g>
   <g id="patch_4">
    <path d="M 414.72 307.584 
L 414.72 41.472 
" style="fill: none; stroke: #000000; stroke-width: 0.8; stroke-linejoin: miter; stroke-linecap: square"/>
   </g>
   <g id="patch_5">
    <path d="M 57.6 307.584 
L 414.72 307.584 
" style="fill: none; stroke: #000000; stroke-width: 0.8; stroke-linejoin: miter; stroke-linecap: square"/>
   </g>
   <g id="patch_6">
    <path d="M 57.6 41.472 
L 414.72 41.472 
" style="fill: none; stroke: #000000; stroke-width: 0.8; stroke-linejoin: miter; stroke-linecap: square"/>
   </g>
   <g id="text_15">
    <!-- Queue size (y-axis) between S1 and sensors that follow at a time (x-axis). -->
    <g transform="translate(14.282813 35.472) scale(0.12 -0.12)">
     <defs>
      <path id="DejaVuSans-51" d="M 2522 4238 
Q 1834 4238 1429 3725 
Q 1025 3213 1025 2328 
Q 1025 1447 1429 934 
Q 1834 422 2522 422 
Q 3209 422 3611 934 
Q 4013 1447 4013 2328 
Q 4013 3213 3611 3725 
Q 3209 4238 2522 4238 
z
M 3406 84 
L 4238 -825 
L 3475 -825 
L 2784 -78 
Q 2681 -84 2626 -87 
Q 2572 -91 2522 -91 
Q 1538 -91 948 567 
Q 359 1225 359 2328 
Q 359 3434 948 4092 
Q 1538 4750 2522 4750 
Q 3503 4750 4090 4092 
Q 4678 3434 4678 2328 
Q 4678 1516 4351 937 
Q 4025 359 3406 84 
z
" transform="scale(0.015625)"/>
      <path id="DejaVuSans-75" d="M 544 1381 
L 544 3500 
L 1119 3500 
L 1119 1403 
Q 1119 906 1312 657 
Q 1506 409 1894 409 
Q 2359 409 2629 706 
Q 2900 1003 2900 1516 
L 2900 3500 
L 3475 3500 
L 3475 0 
L 2900 0 
L 2900 538 
Q 2691 219 2414 64 
Q 2138 -91 1772 -91 
Q 1169 -91 856 284 
Q 544 659 544 1381 
z
M 1991 3584 
L 1991 3584 
z
" transform="scale(0.015625)"/>
      <path id="DejaVuSans-20" transform="scale(0.015625)"/>
      <path id="DejaVuSans-73" d="M 2834 3397 
L 2834 2853 
Q 2591 2978 2328 3040 
Q 2066 3103 1784 3103 
Q 1356 3103 1142 2972 
Q 928 2841 928 2578 
Q 928 2378 1081 2264 
Q 1234 2150 1697 2047 
L 1894 2003 
Q 2506 1872 2764 1633 
Q 3022 1394 3022 966 
Q 3022 478 2636 193 
Q 2250 -91 1575 -91 
Q 1294 -91 989 -36 
Q 684 19 347 128 
L 347 722 
Q 666 556 975 473 
Q 1284 391 1588 391 
Q 1994 391 2212 530 
Q 2431 669 2431 922 
Q 2431 1156 2273 1281 
Q 2116 1406 1581 1522 
L 1381 1569 
Q 847 1681 609 1914 
Q 372 2147 372 2553 
Q 372 3047 722 3315 
Q 1072 3584 1716 3584 
Q 2034 3584 2315 3537 
Q 2597 3491 2834 3397 
z
" transform="scale(0.015625)"/>
      <path id="DejaVuSans-69" d="M 603 3500 
L 1178 3500 
L 1178 0 
L 603 0 
L 603 3500 
z
M 603 4863 
L 1178 4863 
L 1178 4134 
L 603 4134 
L 603 4863 
z
" transform="scale(0.015625)"/>
      <path id="DejaVuSans-7a" d="M 353 3500 
L 3084 3500 
L 3084 2975 
L 922 459 
L 3084 459 
L 3084 0 
L 275 0 
L 275 525 
L 2438 3041 
L 353 3041 
L 353 3500 
z
" transform="scale(0.015625)"/>
      <path id="DejaVuSans-28" d="M 1984 4856 
Q 1566 4138 1362 3434 
Q 1159 2731 1159 2009 
Q 1159 1288 1364 580 
Q 1569 -128 1984 -844 
L 1484 -844 
Q 1016 -109 783 600 
Q 550 1309 550 2009 
Q 550 2706 781 3412 
Q 1013 4119 1484 4856 
L 1984 4856 
z
" transform="scale(0.015625)"/>
      <path id="DejaVuSans-79" d="M 2059 -325 
Q 1816 -950 1584 -1140 
Q 1353 -1331 966 -1331 
L 506 -1331 
L 506 -850 
L 844 -850 
Q 1081 -850 1212 -737 
Q 1344 -625 1503 -206 
L 1606 56 
L 191 3500 
L 800 3500 
L 1894 763 
L 2988 3500 
L 3597 3500 
L 2059 -325 
z
" transform="scale(0.015625)"/>
      <path id="DejaVuSans-2d" d="M 313 2009 
L 1997 2009 
L 1997 1497 
L 313 1497 
L 313 2009 
z
" transform="scale(0.015625)"/>
      <path id="DejaVuSans-61" d="M 2194 1759 
Q 1497 1759 1228 1600 
Q 959 1441 959 1056 
Q 959 750 1161 570 
Q 1363 391 1709 391 
Q 2188 391 2477 730 
Q 2766 1069 2766 1631 
L 2766 1759 
L 2194 1759 
z
M 3341 1997 
L 3341 0 
L 2766 0 
L 2766 531 
Q 2569 213 2275 61 
Q 1981 -91 1556 -91 
Q 1019 -91 701 211 
Q 384 513 384 1019 
Q 384 1609 779 1909 
Q 1175 2209 1959 2209 
L 2766 2209 
L 2766 2266 
Q 2766 2663 2505 2880 
Q 2244 3097 1772 3097 
Q 1472 3097 1187 3025 
Q 903 2953 641 2809 
L 641 3341 
Q 956 3463 1253 3523 
Q 1550 3584 1831 3584 
Q 2591 3584 2966 3190 
Q 3341 2797 3341 1997 
z
" transform="scale(0.015625)"/>
      <path id="DejaVuSans-78" d="M 3513 3500 
L 2247 1797 
L 3578 0 
L 2900 0 
L 1881 1375 
L 863 0 
L 184 0 
L 1544 1831 
L 300 3500 
L 978 3500 
L 1906 2253 
L 2834 3500 
L 3513 3500 
z
" transform="scale(0.015625)"/>
      <path id="DejaVuSans-29" d="M 513 4856 
L 1013 4856 
Q 1481 4119 1714 3412 
Q 1947 2706 1947 2009 
Q 1947 1309 1714 600 
Q 1481 -109 1013 -844 
L 513 -844 
Q 928 -128 1133 580 
Q 1338 1288 1338 2009 
Q 1338 2731 1133 3434 
Q 928 4138 513 4856 
z
" transform="scale(0.015625)"/>
      <path id="DejaVuSans-62" d="M 3116 1747 
Q 3116 2381 2855 2742 
Q 2594 3103 2138 3103 
Q 1681 3103 1420 2742 
Q 1159 2381 1159 1747 
Q 1159 1113 1420 752 
Q 1681 391 2138 391 
Q 2594 391 2855 752 
Q 3116 1113 3116 1747 
z
M 1159 2969 
Q 1341 3281 1617 3432 
Q 1894 3584 2278 3584 
Q 2916 3584 3314 3078 
Q 3713 2572 3713 1747 
Q 3713 922 3314 415 
Q 2916 -91 2278 -91 
Q 1894 -91 1617 61 
Q 1341 213 1159 525 
L 1159 0 
L 581 0 
L 581 4863 
L 1159 4863 
L 1159 2969 
z
" transform="scale(0.015625)"/>
      <path id="DejaVuSans-74" d="M 1172 4494 
L 1172 3500 
L 2356 3500 
L 2356 3053 
L 1172 3053 
L 1172 1153 
Q 1172 725 1289 603 
Q 1406 481 1766 481 
L 2356 481 
L 2356 0 
L 1766 0 
Q 1100 0 847 248 
Q 594 497 594 1153 
L 594 3053 
L 172 3053 
L 172 3500 
L 594 3500 
L 594 4494 
L 1172 4494 
z
" transform="scale(0.015625)"/>
      <path id="DejaVuSans-77" d="M 269 3500 
L 844 3500 
L 1563 769 
L 2278 3500 
L 2956 3500 
L 3675 769 
L 4391 3500 
L 4966 3500 
L 4050 0 
L 3372 0 
L 2619 2869 
L 1863 0 
L 1184 0 
L 269 3500 
z
" transform="scale(0.015625)"/>
      <path id="DejaVuSans-6e" d="M 3513 2113 
L 3513 0 
L 2938 0 
L 2938 2094 
Q 2938 2591 2744 2837 
Q 2550 3084 2163 3084 
Q 1697 3084 1428 2787 
Q 1159 2491 1159 1978 
L 1159 0 
L 581 0 
L 581 3500 
L 1159 3500 
L 1159 2956 
Q 1366 3272 1645 3428 
Q 1925 3584 2291 3584 
Q 2894 3584 3203 3211 
Q 3513 2838 3513 2113 
z
" transform="scale(0.015625)"/>
      <path id="DejaVuSans-53" d="M 3425 4513 
L 3425 3897 
Q 3066 4069 2747 4153 
Q 2428 4238 2131 4238 
Q 1616 4238 1336 4038 
Q 1056 3838 1056 3469 
Q 1056 3159 1242 3001 
Q 1428 2844 1947 2747 
L 2328 2669 
Q 3034 2534 3370 2195 
Q 3706 1856 3706 1288 
Q 3706 609 3251 259 
Q 2797 -91 1919 -91 
Q 1588 -91 1214 -16 
Q 841 59 441 206 
L 441 856 
Q 825 641 1194 531 
Q 1563 422 1919 422 
Q 2459 422 2753 634 
Q 3047 847 3047 1241 
Q 3047 1584 2836 1778 
Q 2625 1972 2144 2069 
L 1759 2144 
Q 1053 2284 737 2584 
Q 422 2884 422 3419 
Q 422 4038 858 4394 
Q 1294 4750 2059 4750 
Q 2388 4750 2728 4690 
Q 3069 4631 3425 4513 
z
" transform="scale(0.015625)"/>
      <path id="DejaVuSans-64" d="M 2906 2969 
L 2906 4863 
L 3481 4863 
L 3481 0 
L 2906 0 
L 2906 525 
Q 2725 213 2448 61 
Q 2172 -91 1784 -91 
Q 1150 -91 751 415 
Q 353 922 353 1747 
Q 353 2572 751 3078 
Q 1150 3584 1784 3584 
Q 2172 3584 2448 3432 
Q 2725 3281 2906 2969 
z
M 947 1747 
Q 947 1113 1208 752 
Q 1469 391 1925 391 
Q 2381 391 2643 752 
Q 2906 1113 2906 1747 
Q 2906 2381 2643 2742 
Q 2381 3103 1925 3103 
Q 1469 3103 1208 2742 
Q 947 2381 947 1747 
z
" transform="scale(0.015625)"/>
      <path id="DejaVuSans-6f" d="M 1959 3097 
Q 1497 3097 1228 2736 
Q 959 2375 959 1747 
Q 959 1119 1226 758 
Q 1494 397 1959 397 
Q 2419 397 2687 759 
Q 2956 1122 2956 1747 
Q 2956 2369 2687 2733 
Q 2419 3097 1959 3097 
z
M 1959 3584 
Q 2709 3584 3137 3096 
Q 3566 2609 3566 1747 
Q 3566 888 3137 398 
Q 2709 -91 1959 -91 
Q 1206 -91 779 398 
Q 353 888 353 1747 
Q 353 2609 779 3096 
Q 1206 3584 1959 3584 
z
" transform="scale(0.015625)"/>
      <path id="DejaVuSans-72" d="M 2631 2963 
Q 2534 3019 2420 3045 
Q 2306 3072 2169 3072 
Q 1681 3072 1420 2755 
Q 1159 2438 1159 1844 
L 1159 0 
L 581 0 
L 581 3500 
L 1159 3500 
L 1159 2956 
Q 1341 3275 1631 3429 
Q 1922 3584 2338 3584 
Q 2397 3584 2469 3576 
Q 2541 3569 2628 3553 
L 2631 2963 
z
" transform="scale(0.015625)"/>
      <path id="DejaVuSans-68" d="M 3513 2113 
L 3513 0 
L 2938 0 
L 2938 2094 
Q 2938 2591 2744 2837 
Q 2550 3084 2163 3084 
Q 1697 3084 1428 2787 
Q 1159 2491 1159 1978 
L 1159 0 
L 581 0 
L 581 4863 
L 1159 4863 
L 1159 2956 
Q 1366 3272 1645 3428 
Q 1925 3584 2291 3584 
Q 2894 3584 3203 3211 
Q 3513 2838 3513 2113 
z
" transform="scale(0.015625)"/>
      <path id="DejaVuSans-66" d="M 2375 4863 
L 2375 4384 
L 1825 4384 
Q 1516 4384 1395 4259 
Q 1275 4134 1275 3809 
L 1275 3500 
L 2222 3500 
L 2222 3053 
L 1275 3053 
L 1275 0 
L 697 0 
L 697 3053 
L 147 3053 
L 147 3500 
L 697 3500 
L 697 3744 
Q 697 4328 969 4595 
Q 1241 4863 1831 4863 
L 2375 4863 
z
" transform="scale(0.015625)"/>
      <path id="DejaVuSans-6c" d="M 603 4863 
L 1178 4863 
L 1178 0 
L 603 0 
L 603 4863 
z
" transform="scale(0.015625)"/>
      <path id="DejaVuSans-6d" d="M 3328 2828 
Q 3544 3216 3844 3400 
Q 4144 3584 4550 3584 
Q 5097 3584 5394 3201 
Q 5691 2819 5691 2113 
L 5691 0 
L 5113 0 
L 5113 2094 
Q 5113 2597 4934 2840 
Q 4756 3084 4391 3084 
Q 3944 3084 3684 2787 
Q 3425 2491 3425 1978 
L 3425 0 
L 2847 0 
L 2847 2094 
Q 2847 2600 2669 2842 
Q 2491 3084 2119 3084 
Q 1678 3084 1418 2786 
Q 1159 2488 1159 1978 
L 1159 0 
L 581 0 
L 581 3500 
L 1159 3500 
L 1159 2956 
Q 1356 3278 1631 3431 
Q 1906 3584 2284 3584 
Q 2666 3584 2933 3390 
Q 3200 3197 3328 2828 
z
" transform="scale(0.015625)"/>
     </defs>
     <use xlink:href="#DejaVuSans-51"/>
     <use xlink:href="#DejaVuSans-75" x="78.710938"/>
     <use xlink:href="#DejaVuSans-65" x="142.089844"/>
     <use xlink:href="#DejaVuSans-75" x="203.613281"/>
     <use xlink:href="#DejaVuSans-65" x="266.992188"/>
     <use xlink:href="#DejaVuSans-20" x="328.515625"/>
     <use xlink:href="#DejaVuSans-73" x="360.302734"/>
     <use xlink:href="#DejaVuSans-69" x="412.402344"/>
     <use xlink:href="#DejaVuSans-7a" x="440.185547"/>
     <use xlink:href="#DejaVuSans-65" x="492.675781"/>
     <use xlink:href="#DejaVuSans-20" x="554.199219"/>
     <use xlink:href="#DejaVuSans-28" x="585.986328"/>
     <use xlink:href="#DejaVuSans-79" x="625"/>
     <use xlink:href="#DejaVuSans-2d" x="682.429688"/>
     <use xlink:href="#DejaVuSans-61" x="718.513672"/>
     <use xlink:href="#DejaVuSans-78" x="779.792969"/>
     <use xlink:href="#DejaVuSans-69" x="838.972656"/>
     <use xlink:href="#DejaVuSans-73" x="866.755859"/>
     <use xlink:href="#DejaVuSans-29" x="918.855469"/>
     <use xlink:href="#DejaVuSans-20" x="957.869141"/>
     <use xlink:href="#DejaVuSans-62" x="989.65625"/>
     <use xlink:href="#DejaVuSans-65" x="1053.132812"/>
     <use xlink:href="#DejaVuSans-74" x="1114.65625"/>
     <use xlink:href="#DejaVuSans-77" x="1153.865234"/>
     <use xlink:href="#DejaVuSans-65" x="1235.652344"/>
     <use xlink:href="#DejaVuSans-65" x="1297.175781"/>
     <use xlink:href="#DejaVuSans-6e" x="1358.699219"/>
     <use xlink:href="#DejaVuSans-20" x="1422.078125"/>
     <use xlink:href="#DejaVuSans-53" x="1453.865234"/>
     <use xlink:href="#DejaVuSans-31" x="1517.341797"/>
     <use xlink:href="#DejaVuSans-20" x="1580.964844"/>
     <use xlink:href="#DejaVuSans-61" x="1612.751953"/>
     <use xlink:href="#DejaVuSans-6e" x="1674.03125"/>
     <use xlink:href="#DejaVuSans-64" x="1737.410156"/>
     <use xlink:href="#DejaVuSans-20" x="1800.886719"/>
     <use xlink:href="#DejaVuSans-73" x="1832.673828"/>
     <use xlink:href="#DejaVuSans-65" x="1884.773438"/>
     <use xlink:href="#DejaVuSans-6e" x="1946.296875"/>
     <use xlink:href="#DejaVuSans-73" x="2009.675781"/>
     <use xlink:href="#DejaVuSans-6f" x="2061.775391"/>
     <use xlink:href="#DejaVuSans-72" x="2122.957031"/>
     <use xlink:href="#DejaVuSans-73" x="2164.070312"/>
     <use xlink:href="#DejaVuSans-20" x="2216.169922"/>
     <use xlink:href="#DejaVuSans-74" x="2247.957031"/>
     <use xlink:href="#DejaVuSans-68" x="2287.166016"/>
     <use xlink:href="#DejaVuSans-61" x="2350.544922"/>
     <use xlink:href="#DejaVuSans-74" x="2411.824219"/>
     <use xlink:href="#DejaVuSans-20" x="2451.033203"/>
     <use xlink:href="#DejaVuSans-66" x="2482.820312"/>
     <use xlink:href="#DejaVuSans-6f" x="2518.025391"/>
     <use xlink:href="#DejaVuSans-6c" x="2579.207031"/>
     <use xlink:href="#DejaVuSans-6c" x="2606.990234"/>
     <use xlink:href="#DejaVuSans-6f" x="2634.773438"/>
     <use xlink:href="#DejaVuSans-77" x="2695.955078"/>
     <use xlink:href="#DejaVuSans-20" x="2777.742188"/>
     <use xlink:href="#DejaVuSans-61" x="2809.529297"/>
     <use xlink:href="#DejaVuSans-74" x="2870.808594"/>
     <use xlink:href="#DejaVuSans-20" x="2910.017578"/>
     <use xlink:href="#DejaVuSans-61" x="2941.804688"/>
     <use xlink:href="#DejaVuSans-20" x="3003.083984"/>
     <use xlink:href="#DejaVuSans-74" x="3034.871094"/>
     <use xlink:href="#DejaVuSans-69" x="3074.080078"/>
     <use xlink:href="#DejaVuSans-6d" x="3101.863281"/>
     <use xlink:href="#DejaVuSans-65" x="3199.275391"/>
     <use xlink:href="#DejaVuSans-20" x="3260.798828"/>
     <use xlink:href="#DejaVuSans-28" x="3292.585938"/>
     <use xlink:href="#DejaVuSans-78" x="3331.599609"/>
     <use xlink:href="#DejaVuSans-2d" x="3390.779297"/>
     <use xlink:href="#DejaVuSans-61" x="3426.863281"/>
     <use xlink:href="#DejaVuSans-78" x="3488.142578"/>
     <use xlink:href="#DejaVuSans-69" x="3547.322266"/>
     <use xlink:href="#DejaVuSans-73" x="3575.105469"/>
     <use xlink:href="#DejaVuSans-29" x="3627.205078"/>
     <use xlink:href="#DejaVuSans-2e" x="3666.21875"/>
    </g>
   </g>
  </g>
 </g>
 <defs>
  <clipPath id="p42a8dcc544">
   <rect x="57.6" y="41.472" width="357.12" height="266.112"/>
  </clipPath>
 </defs>
</svg>
