<?xml version="1.0" encoding="utf-8" standalone="no"?>
<!DOCTYPE svg PUBLIC "-//W3C//DTD SVG 1.1//EN"
  "http://www.w3.org/Graphics/SVG/1.1/DTD/svg11.dtd">
<svg xmlns:xlink="http://www.w3.org/1999/xlink" width="460.8pt" height="345.6pt" viewBox="0 0 460.8 345.6" xmlns="http://www.w3.org/2000/svg" version="1.1">
 <metadata>
  <rdf:RDF xmlns:dc="http://purl.org/dc/elements/1.1/" xmlns:cc="http://creativecommons.org/ns#" xmlns:rdf="http://www.w3.org/1999/02/22-rdf-syntax-ns#">
   <cc:Work>
    <dc:type rdf:resource="http://purl.org/dc/dcmitype/StillImage"/>
    <dc:date>2024-03-08T14:13:57.491563</dc:date>
    <dc:format>image/svg+xml</dc:format>
    <dc:creator>
     <cc:Agent>
      <dc:title>Matplotlib v3.8.2, https://matplotlib.org/</dc:title>
     </cc:Agent>
    </dc:creator>
   </cc:Work>
  </rdf:RDF>
 </metadata>
 <defs>
  <style type="text/css">*{stroke-linejoin: round; stroke-linecap: butt}</style>
 </defs>
 <g id="figure_1">
  <g id="patch_1">
   <path d="M 0 345.6 
L 460.8 345.6 
L 460.8 0 
L 0 0 
z
" style="fill: #ffffff"/>
  </g>
  <g id="axes_1">
   <g id="patch_2">
    <path d="M 57.6 307.584 
L 414.72 307.584 
L 414.72 41.472 
L 57.6 41.472 
z
" style="fill: #ffffff"/>
   </g>
   <g id="matplotlib.axis_1">
    <g id="xtick_1">
     <g id="line2d_1">
      <defs>
       <path id="m91c089827e" d="M 0 0 
L 0 3.5 
" style="stroke: #000000; stroke-width: 0.8"/>
      </defs>
      <g>
       <use xlink:href="#m91c089827e" x="73.817199" y="307.584" style="stroke: #000000; stroke-width: 0.8"/>
      </g>
     </g>
     <g id="text_1">
      <!-- 0.0 -->
      <g transform="translate(65.865637 322.182437) scale(0.1 -0.1)">
       <defs>
        <path id="DejaVuSans-30" d="M 2034 4250 
Q 1547 4250 1301 3770 
Q 1056 3291 1056 2328 
Q 1056 1369 1301 889 
Q 1547 409 2034 409 
Q 2525 409 2770 889 
Q 3016 1369 3016 2328 
Q 3016 3291 2770 3770 
Q 2525 4250 2034 4250 
z
M 2034 4750 
Q 2819 4750 3233 4129 
Q 3647 3509 3647 2328 
Q 3647 1150 3233 529 
Q 2819 -91 2034 -91 
Q 1250 -91 836 529 
Q 422 1150 422 2328 
Q 422 3509 836 4129 
Q 1250 4750 2034 4750 
z
" transform="scale(0.015625)"/>
        <path id="DejaVuSans-2e" d="M 684 794 
L 1344 794 
L 1344 0 
L 684 0 
L 684 794 
z
" transform="scale(0.015625)"/>
       </defs>
       <use xlink:href="#DejaVuSans-30"/>
       <use xlink:href="#DejaVuSans-2e" x="63.623047"/>
       <use xlink:href="#DejaVuSans-30" x="95.410156"/>
      </g>
     </g>
    </g>
    <g id="xtick_2">
     <g id="line2d_2">
      <g>
       <use xlink:href="#m91c089827e" x="119.488514" y="307.584" style="stroke: #000000; stroke-width: 0.8"/>
      </g>
     </g>
     <g id="text_2">
      <!-- 0.5 -->
      <g transform="translate(111.536952 322.182437) scale(0.1 -0.1)">
       <defs>
        <path id="DejaVuSans-35" d="M 691 4666 
L 3169 4666 
L 3169 4134 
L 1269 4134 
L 1269 2991 
Q 1406 3038 1543 3061 
Q 1681 3084 1819 3084 
Q 2600 3084 3056 2656 
Q 3513 2228 3513 1497 
Q 3513 744 3044 326 
Q 2575 -91 1722 -91 
Q 1428 -91 1123 -41 
Q 819 9 494 109 
L 494 744 
Q 775 591 1075 516 
Q 1375 441 1709 441 
Q 2250 441 2565 725 
Q 2881 1009 2881 1497 
Q 2881 1984 2565 2268 
Q 2250 2553 1709 2553 
Q 1456 2553 1204 2497 
Q 953 2441 691 2322 
L 691 4666 
z
" transform="scale(0.015625)"/>
       </defs>
       <use xlink:href="#DejaVuSans-30"/>
       <use xlink:href="#DejaVuSans-2e" x="63.623047"/>
       <use xlink:href="#DejaVuSans-35" x="95.410156"/>
      </g>
     </g>
    </g>
    <g id="xtick_3">
     <g id="line2d_3">
      <g>
       <use xlink:href="#m91c089827e" x="165.15983" y="307.584" style="stroke: #000000; stroke-width: 0.8"/>
      </g>
     </g>
     <g id="text_3">
      <!-- 1.0 -->
      <g transform="translate(157.208267 322.182437) scale(0.1 -0.1)">
       <defs>
        <path id="DejaVuSans-31" d="M 794 531 
L 1825 531 
L 1825 4091 
L 703 3866 
L 703 4441 
L 1819 4666 
L 2450 4666 
L 2450 531 
L 3481 531 
L 3481 0 
L 794 0 
L 794 531 
z
" transform="scale(0.015625)"/>
       </defs>
       <use xlink:href="#DejaVuSans-31"/>
       <use xlink:href="#DejaVuSans-2e" x="63.623047"/>
       <use xlink:href="#DejaVuSans-30" x="95.410156"/>
      </g>
     </g>
    </g>
    <g id="xtick_4">
     <g id="line2d_4">
      <g>
       <use xlink:href="#m91c089827e" x="210.831145" y="307.584" style="stroke: #000000; stroke-width: 0.8"/>
      </g>
     </g>
     <g id="text_4">
      <!-- 1.5 -->
      <g transform="translate(202.879583 322.182437) scale(0.1 -0.1)">
       <use xlink:href="#DejaVuSans-31"/>
       <use xlink:href="#DejaVuSans-2e" x="63.623047"/>
       <use xlink:href="#DejaVuSans-35" x="95.410156"/>
      </g>
     </g>
    </g>
    <g id="xtick_5">
     <g id="line2d_5">
      <g>
       <use xlink:href="#m91c089827e" x="256.502461" y="307.584" style="stroke: #000000; stroke-width: 0.8"/>
      </g>
     </g>
     <g id="text_5">
      <!-- 2.0 -->
      <g transform="translate(248.550898 322.182437) scale(0.1 -0.1)">
       <defs>
        <path id="DejaVuSans-32" d="M 1228 531 
L 3431 531 
L 3431 0 
L 469 0 
L 469 531 
Q 828 903 1448 1529 
Q 2069 2156 2228 2338 
Q 2531 2678 2651 2914 
Q 2772 3150 2772 3378 
Q 2772 3750 2511 3984 
Q 2250 4219 1831 4219 
Q 1534 4219 1204 4116 
Q 875 4013 500 3803 
L 500 4441 
Q 881 4594 1212 4672 
Q 1544 4750 1819 4750 
Q 2544 4750 2975 4387 
Q 3406 4025 3406 3419 
Q 3406 3131 3298 2873 
Q 3191 2616 2906 2266 
Q 2828 2175 2409 1742 
Q 1991 1309 1228 531 
z
" transform="scale(0.015625)"/>
       </defs>
       <use xlink:href="#DejaVuSans-32"/>
       <use xlink:href="#DejaVuSans-2e" x="63.623047"/>
       <use xlink:href="#DejaVuSans-30" x="95.410156"/>
      </g>
     </g>
    </g>
    <g id="xtick_6">
     <g id="line2d_6">
      <g>
       <use xlink:href="#m91c089827e" x="302.173776" y="307.584" style="stroke: #000000; stroke-width: 0.8"/>
      </g>
     </g>
     <g id="text_6">
      <!-- 2.5 -->
      <g transform="translate(294.222213 322.182437) scale(0.1 -0.1)">
       <use xlink:href="#DejaVuSans-32"/>
       <use xlink:href="#DejaVuSans-2e" x="63.623047"/>
       <use xlink:href="#DejaVuSans-35" x="95.410156"/>
      </g>
     </g>
    </g>
    <g id="xtick_7">
     <g id="line2d_7">
      <g>
       <use xlink:href="#m91c089827e" x="347.845091" y="307.584" style="stroke: #000000; stroke-width: 0.8"/>
      </g>
     </g>
     <g id="text_7">
      <!-- 3.0 -->
      <g transform="translate(339.893529 322.182437) scale(0.1 -0.1)">
       <defs>
        <path id="DejaVuSans-33" d="M 2597 2516 
Q 3050 2419 3304 2112 
Q 3559 1806 3559 1356 
Q 3559 666 3084 287 
Q 2609 -91 1734 -91 
Q 1441 -91 1130 -33 
Q 819 25 488 141 
L 488 750 
Q 750 597 1062 519 
Q 1375 441 1716 441 
Q 2309 441 2620 675 
Q 2931 909 2931 1356 
Q 2931 1769 2642 2001 
Q 2353 2234 1838 2234 
L 1294 2234 
L 1294 2753 
L 1863 2753 
Q 2328 2753 2575 2939 
Q 2822 3125 2822 3475 
Q 2822 3834 2567 4026 
Q 2313 4219 1838 4219 
Q 1578 4219 1281 4162 
Q 984 4106 628 3988 
L 628 4550 
Q 988 4650 1302 4700 
Q 1616 4750 1894 4750 
Q 2613 4750 3031 4423 
Q 3450 4097 3450 3541 
Q 3450 3153 3228 2886 
Q 3006 2619 2597 2516 
z
" transform="scale(0.015625)"/>
       </defs>
       <use xlink:href="#DejaVuSans-33"/>
       <use xlink:href="#DejaVuSans-2e" x="63.623047"/>
       <use xlink:href="#DejaVuSans-30" x="95.410156"/>
      </g>
     </g>
    </g>
    <g id="xtick_8">
     <g id="line2d_8">
      <g>
       <use xlink:href="#m91c089827e" x="393.516407" y="307.584" style="stroke: #000000; stroke-width: 0.8"/>
      </g>
     </g>
     <g id="text_8">
      <!-- 3.5 -->
      <g transform="translate(385.564844 322.182437) scale(0.1 -0.1)">
       <use xlink:href="#DejaVuSans-33"/>
       <use xlink:href="#DejaVuSans-2e" x="63.623047"/>
       <use xlink:href="#DejaVuSans-35" x="95.410156"/>
      </g>
     </g>
    </g>
    <g id="text_9">
     <!-- 1e6 -->
     <g transform="translate(395.841875 334.860562) scale(0.1 -0.1)">
      <defs>
       <path id="DejaVuSans-65" d="M 3597 1894 
L 3597 1613 
L 953 1613 
Q 991 1019 1311 708 
Q 1631 397 2203 397 
Q 2534 397 2845 478 
Q 3156 559 3463 722 
L 3463 178 
Q 3153 47 2828 -22 
Q 2503 -91 2169 -91 
Q 1331 -91 842 396 
Q 353 884 353 1716 
Q 353 2575 817 3079 
Q 1281 3584 2069 3584 
Q 2775 3584 3186 3129 
Q 3597 2675 3597 1894 
z
M 3022 2063 
Q 3016 2534 2758 2815 
Q 2500 3097 2075 3097 
Q 1594 3097 1305 2825 
Q 1016 2553 972 2059 
L 3022 2063 
z
" transform="scale(0.015625)"/>
       <path id="DejaVuSans-36" d="M 2113 2584 
Q 1688 2584 1439 2293 
Q 1191 2003 1191 1497 
Q 1191 994 1439 701 
Q 1688 409 2113 409 
Q 2538 409 2786 701 
Q 3034 994 3034 1497 
Q 3034 2003 2786 2293 
Q 2538 2584 2113 2584 
z
M 3366 4563 
L 3366 3988 
Q 3128 4100 2886 4159 
Q 2644 4219 2406 4219 
Q 1781 4219 1451 3797 
Q 1122 3375 1075 2522 
Q 1259 2794 1537 2939 
Q 1816 3084 2150 3084 
Q 2853 3084 3261 2657 
Q 3669 2231 3669 1497 
Q 3669 778 3244 343 
Q 2819 -91 2113 -91 
Q 1303 -91 875 529 
Q 447 1150 447 2328 
Q 447 3434 972 4092 
Q 1497 4750 2381 4750 
Q 2619 4750 2861 4703 
Q 3103 4656 3366 4563 
z
" transform="scale(0.015625)"/>
      </defs>
      <use xlink:href="#DejaVuSans-31"/>
      <use xlink:href="#DejaVuSans-65" x="63.623047"/>
      <use xlink:href="#DejaVuSans-36" x="125.146484"/>
     </g>
    </g>
   </g>
   <g id="matplotlib.axis_2">
    <g id="ytick_1">
     <g id="line2d_9">
      <defs>
       <path id="md62aa82be4" d="M 0 0 
L -3.5 0 
" style="stroke: #000000; stroke-width: 0.8"/>
      </defs>
      <g>
       <use xlink:href="#md62aa82be4" x="57.6" y="295.488" style="stroke: #000000; stroke-width: 0.8"/>
      </g>
     </g>
     <g id="text_10">
      <!-- 0 -->
      <g transform="translate(44.2375 299.287219) scale(0.1 -0.1)">
       <use xlink:href="#DejaVuSans-30"/>
      </g>
     </g>
    </g>
    <g id="ytick_2">
     <g id="line2d_10">
      <g>
       <use xlink:href="#md62aa82be4" x="57.6" y="240.506182" style="stroke: #000000; stroke-width: 0.8"/>
      </g>
     </g>
     <g id="text_11">
      <!-- 5 -->
      <g transform="translate(44.2375 244.305401) scale(0.1 -0.1)">
       <use xlink:href="#DejaVuSans-35"/>
      </g>
     </g>
    </g>
    <g id="ytick_3">
     <g id="line2d_11">
      <g>
       <use xlink:href="#md62aa82be4" x="57.6" y="185.524364" style="stroke: #000000; stroke-width: 0.8"/>
      </g>
     </g>
     <g id="text_12">
      <!-- 10 -->
      <g transform="translate(37.875 189.323582) scale(0.1 -0.1)">
       <use xlink:href="#DejaVuSans-31"/>
       <use xlink:href="#DejaVuSans-30" x="63.623047"/>
      </g>
     </g>
    </g>
    <g id="ytick_4">
     <g id="line2d_12">
      <g>
       <use xlink:href="#md62aa82be4" x="57.6" y="130.542545" style="stroke: #000000; stroke-width: 0.8"/>
      </g>
     </g>
     <g id="text_13">
      <!-- 15 -->
      <g transform="translate(37.875 134.341764) scale(0.1 -0.1)">
       <use xlink:href="#DejaVuSans-31"/>
       <use xlink:href="#DejaVuSans-35" x="63.623047"/>
      </g>
     </g>
    </g>
    <g id="ytick_5">
     <g id="line2d_13">
      <g>
       <use xlink:href="#md62aa82be4" x="57.6" y="75.560727" style="stroke: #000000; stroke-width: 0.8"/>
      </g>
     </g>
     <g id="text_14">
      <!-- 20 -->
      <g transform="translate(37.875 79.359946) scale(0.1 -0.1)">
       <use xlink:href="#DejaVuSans-32"/>
       <use xlink:href="#DejaVuSans-30" x="63.623047"/>
      </g>
     </g>
    </g>
   </g>
   <g id="line2d_14">
    <path d="M 73.832727 284.491636 
L 74.106755 295.488 
L 74.152426 284.491636 
L 74.425541 295.488 
L 74.470299 284.491636 
L 74.743413 295.488 
L 74.789085 284.491636 
L 75.062199 295.488 
L 75.113351 284.491636 
L 75.387379 295.488 
L 75.432137 284.491636 
L 75.706165 295.488 
L 75.750009 284.491636 
L 76.023124 295.488 
L 76.066968 284.491636 
L 76.340996 295.488 
L 76.391234 284.491636 
L 76.665262 295.488 
L 76.713674 284.491636 
L 76.987702 295.488 
L 77.033373 284.491636 
L 77.307401 295.488 
L 77.353986 284.491636 
L 77.628014 295.488 
L 77.677339 284.491636 
L 77.950453 295.488 
L 77.999778 284.491636 
L 78.273806 295.488 
L 78.324044 284.491636 
L 78.598072 295.488 
L 78.639177 284.491636 
L 78.912291 295.488 
L 78.962529 284.491636 
L 79.235644 295.488 
L 79.284969 284.491636 
L 82.17505 185.524364 
L 84.784709 196.520727 
L 85.034988 295.488 
L 85.038641 284.491636 
L 85.312669 295.488 
L 85.351033 284.491636 
L 85.624147 295.488 
L 85.670732 284.491636 
L 85.943847 295.488 
L 85.985864 284.491636 
L 86.259892 295.488 
L 86.308304 284.491636 
L 86.581418 295.488 
L 86.626176 284.491636 
L 86.900204 295.488 
L 86.945875 284.491636 
L 87.219903 295.488 
L 87.270142 284.491636 
L 87.543256 295.488 
L 87.58436 284.491636 
L 87.858388 295.488 
L 87.90406 284.491636 
L 88.178087 295.488 
L 88.217365 284.491636 
L 88.490479 295.488 
L 88.534324 284.491636 
L 88.808352 295.488 
L 88.85859 284.491636 
L 89.132618 295.488 
L 89.173722 284.491636 
L 89.446837 295.488 
L 89.487941 284.491636 
L 89.761969 295.488 
L 89.812207 284.491636 
L 90.086235 295.488 
L 90.13556 284.491636 
L 90.409588 295.488 
L 90.459826 284.491636 
L 90.733854 295.488 
L 90.772218 284.491636 
L 91.045333 295.488 
L 91.099225 284.491636 
L 91.372339 295.488 
L 91.417097 284.491636 
L 91.691125 295.488 
L 91.744104 284.491636 
L 92.018132 295.488 
L 92.061976 284.491636 
L 92.336004 295.488 
L 92.378022 284.491636 
L 92.651136 295.488 
L 92.69224 284.491636 
L 92.966268 295.488 
L 93.010113 284.491636 
L 93.28414 295.488 
L 93.328898 284.491636 
L 93.602926 295.488 
L 93.643117 284.491636 
L 93.917145 295.488 
L 93.961903 284.491636 
L 94.235931 295.488 
L 94.284342 284.491636 
L 94.55837 295.488 
L 94.606782 284.491636 
L 94.88081 295.488 
L 94.923741 284.491636 
L 95.197769 295.488 
L 95.242527 284.491636 
L 95.515641 295.488 
L 95.561312 284.491636 
L 95.834427 295.488 
L 95.883752 284.491636 
L 96.156866 295.488 
L 96.200711 284.491636 
L 96.473825 295.488 
L 96.522237 284.491636 
L 96.796265 295.488 
L 96.84559 284.491636 
L 97.119618 295.488 
L 97.159808 284.491636 
L 97.433836 295.488 
L 97.476767 284.491636 
L 97.750795 295.488 
L 97.795553 284.491636 
L 98.069581 295.488 
L 98.107945 284.491636 
L 98.381973 295.488 
L 98.434038 284.491636 
L 98.708066 295.488 
L 98.74643 284.491636 
L 99.019544 295.488 
L 99.072523 284.491636 
L 99.346551 295.488 
L 99.39953 284.491636 
L 99.672644 295.488 
L 99.723796 284.491636 
L 99.997824 295.488 
L 100.048976 284.491636 
L 100.323004 295.488 
L 100.366848 284.491636 
L 100.640876 295.488 
L 100.686547 284.491636 
L 100.960575 295.488 
L 101.010814 284.491636 
L 101.284842 295.488 
L 101.33234 284.491636 
L 101.606368 295.488 
L 101.650212 284.491636 
L 101.92424 295.488 
L 101.964431 284.491636 
L 102.238459 295.488 
L 102.277736 284.491636 
L 102.55085 295.488 
L 102.597435 284.491636 
L 102.871463 295.488 
L 102.915307 284.491636 
L 103.189335 295.488 
L 103.23592 284.491636 
L 103.509948 295.488 
L 103.555619 284.491636 
L 103.828734 295.488 
L 103.876232 284.491636 
L 104.15026 295.488 
L 104.195931 284.491636 
L 104.469959 295.488 
L 104.519284 284.491636 
L 104.792399 295.488 
L 104.83807 284.491636 
L 105.112098 295.488 
L 105.152289 284.491636 
L 105.425403 295.488 
L 105.473815 284.491636 
L 105.747842 295.488 
L 105.795341 284.491636 
L 106.068455 295.488 
L 106.1123 284.491636 
L 106.386327 295.488 
L 106.423778 284.491636 
L 106.697806 295.488 
L 106.746217 284.491636 
L 107.020245 295.488 
L 107.062263 284.491636 
L 107.335377 295.488 
L 107.381049 284.491636 
L 107.655077 295.488 
L 107.704402 284.491636 
L 107.977516 295.488 
L 108.022274 284.491636 
L 108.296302 295.488 
L 108.344713 284.491636 
L 108.618741 295.488 
L 108.660759 284.491636 
L 108.934787 295.488 
L 108.976804 284.491636 
L 109.249919 295.488 
L 109.291023 284.491636 
L 109.565051 295.488 
L 109.609809 284.491636 
L 109.883837 295.488 
L 109.926768 284.491636 
L 110.200796 295.488 
L 110.245554 284.491636 
L 110.519581 295.488 
L 110.567993 284.491636 
L 110.841108 295.488 
L 112.34278 284.491636 
L 112.571137 273.495273 
L 112.615895 284.491636 
L 112.7931 273.495273 
L 112.845165 284.491636 
L 113.019629 273.495273 
L 113.067127 284.491636 
L 113.246159 273.495273 
L 113.293657 284.491636 
L 113.476342 273.495273 
L 113.520187 284.491636 
L 113.706526 273.495273 
L 113.749457 284.491636 
L 113.932142 273.495273 
L 113.97964 284.491636 
L 114.162326 273.495273 
L 114.20617 284.491636 
L 114.388855 273.495273 
L 114.436354 284.491636 
L 114.617212 273.495273 
L 114.662883 284.491636 
L 114.847395 273.495273 
L 114.890326 284.491636 
L 115.074838 273.495273 
L 115.12051 284.491636 
L 115.309589 273.495273 
L 115.348866 284.491636 
L 115.537946 273.495273 
L 115.582704 284.491636 
L 115.766302 273.495273 
L 115.811974 284.491636 
L 115.994659 273.495273 
L 116.04033 284.491636 
L 116.217535 273.495273 
L 116.267773 284.491636 
L 116.449545 273.495273 
L 116.491563 284.491636 
L 116.674248 273.495273 
L 116.72266 284.491636 
L 116.908999 273.495273 
L 116.948276 284.491636 
L 117.136442 273.495273 
L 117.183026 284.491636 
L 117.365712 273.495273 
L 117.41047 284.491636 
L 117.594982 273.495273 
L 117.638826 284.491636 
L 117.820598 273.495273 
L 117.868096 284.491636 
L 118.050781 273.495273 
L 118.093712 284.491636 
L 118.281878 273.495273 
L 118.323896 284.491636 
L 118.511148 273.495273 
L 118.555906 284.491636 
L 118.737678 273.495273 
L 118.785176 284.491636 
L 118.963294 273.495273 
L 119.011706 284.491636 
L 119.187997 273.495273 
L 119.237322 284.491636 
L 119.417267 273.495273 
L 119.462025 284.491636 
L 119.648364 273.495273 
L 119.691295 284.491636 
L 119.875807 273.495273 
L 119.922392 284.491636 
L 120.104164 273.495273 
L 120.148922 284.491636 
L 120.337087 273.495273 
L 120.378192 284.491636 
L 120.564531 273.495273 
L 120.611115 284.491636 
L 120.796541 273.495273 
L 120.838558 284.491636 
L 121.024897 273.495273 
L 121.070569 284.491636 
L 121.255081 273.495273 
L 121.298012 284.491636 
L 121.482524 273.495273 
L 121.528195 284.491636 
L 121.70814 273.495273 
L 121.755639 284.491636 
L 121.938324 273.495273 
L 121.981255 284.491636 
L 122.163027 273.495273 
L 122.212352 284.491636 
L 122.394124 273.495273 
L 122.437055 284.491636 
L 122.626134 273.495273 
L 122.668151 284.491636 
L 122.850837 273.495273 
L 122.900162 284.491636 
L 123.080107 273.495273 
L 123.124865 284.491636 
L 123.30755 273.495273 
L 123.354135 284.491636 
L 123.538647 273.495273 
L 123.581578 284.491636 
L 123.770657 273.495273 
L 123.812675 284.491636 
L 124.00084 273.495273 
L 124.044685 284.491636 
L 124.684083 251.502545 
L 127.869201 97.553455 
L 128.627345 108.549818 
L 128.863922 284.491636 
L 128.999109 273.495273 
L 129.050261 284.491636 
L 129.232946 273.495273 
L 129.273137 284.491636 
L 129.461303 273.495273 
L 129.506974 284.491636 
L 129.696053 273.495273 
L 129.735331 284.491636 
L 129.928064 273.495273 
L 129.970081 284.491636 
L 130.160074 273.495273 
L 130.202092 284.491636 
L 130.386604 273.495273 
L 130.434102 284.491636 
L 130.611307 273.495273 
L 130.659718 284.491636 
L 130.840577 273.495273 
L 130.885334 284.491636 
L 131.063453 273.495273 
L 131.113691 284.491636 
L 131.290896 273.495273 
L 131.33748 284.491636 
L 131.524733 273.495273 
L 131.564924 284.491636 
L 131.751263 273.495273 
L 131.798761 284.491636 
L 131.980533 273.495273 
L 132.02529 284.491636 
L 132.208889 273.495273 
L 132.25456 284.491636 
L 132.438159 273.495273 
L 132.482917 284.491636 
L 132.666516 273.495273 
L 132.712187 284.491636 
L 132.895786 273.495273 
L 132.93963 284.491636 
L 133.117748 273.495273 
L 133.169814 284.491636 
L 133.347018 273.495273 
L 133.391776 284.491636 
L 133.576288 273.495273 
L 133.621046 284.491636 
L 133.808299 273.495273 
L 133.850316 284.491636 
L 134.041222 273.495273 
L 134.081413 284.491636 
L 134.272319 273.495273 
L 134.314337 284.491636 
L 134.495195 273.495273 
L 134.545434 284.491636 
L 134.725379 273.495273 
L 134.769223 284.491636 
L 134.959216 273.495273 
L 134.999407 284.491636 
L 135.188486 273.495273 
L 135.233244 284.491636 
L 135.419583 273.495273 
L 135.462514 284.491636 
L 135.645199 273.495273 
L 135.693611 284.491636 
L 135.877209 273.495273 
L 135.918313 284.491636 
L 136.104652 273.495273 
L 136.151237 284.491636 
L 136.333922 273.495273 
L 136.377767 284.491636 
L 136.560452 273.495273 
L 136.60795 284.491636 
L 136.790636 273.495273 
L 136.83448 284.491636 
L 137.022646 273.495273 
L 137.064663 284.491636 
L 137.254656 273.495273 
L 137.296674 284.491636 
L 137.488493 273.495273 
L 137.528684 284.491636 
L 137.715023 273.495273 
L 137.761608 284.491636 
L 137.942466 273.495273 
L 137.989051 284.491636 
L 138.169909 273.495273 
L 138.216494 284.491636 
L 138.398266 273.495273 
L 138.443937 284.491636 
L 138.629363 273.495273 
L 138.672294 284.491636 
L 138.854979 273.495273 
L 138.902477 284.491636 
L 139.085162 273.495273 
L 139.129007 284.491636 
L 139.315346 273.495273 
L 139.358277 284.491636 
L 139.537308 273.495273 
L 139.58846 284.491636 
L 139.759271 273.495273 
L 139.811336 284.491636 
L 139.988541 273.495273 
L 140.033299 284.491636 
L 140.215071 273.495273 
L 140.262569 284.491636 
L 140.4416 273.495273 
L 140.489099 284.491636 
L 140.898314 262.498909 
L 140.927543 273.495273 
L 141.808086 229.509818 
L 144.550192 97.553455 
L 145.078152 108.549818 
L 145.313816 284.491636 
L 145.473666 273.495273 
L 145.522078 284.491636 
L 145.694715 273.495273 
L 145.74678 284.491636 
L 145.922158 273.495273 
L 145.968743 284.491636 
L 146.145948 273.495273 
L 146.196186 284.491636 
L 146.374304 273.495273 
L 146.419976 284.491636 
L 146.605401 273.495273 
L 146.647419 284.491636 
L 146.832844 273.495273 
L 146.879429 284.491636 
L 147.056634 273.495273 
L 147.106872 284.491636 
L 147.27951 273.495273 
L 147.329748 284.491636 
L 147.509693 273.495273 
L 147.553538 284.491636 
L 147.737136 273.495273 
L 147.782808 284.491636 
L 147.962753 273.495273 
L 148.011164 284.491636 
L 148.191109 273.495273 
L 148.236781 284.491636 
L 148.417639 273.495273 
L 148.464224 284.491636 
L 148.645996 273.495273 
L 148.691667 284.491636 
L 148.872525 273.495273 
L 148.91911 284.491636 
L 149.099968 273.495273 
L 149.14564 284.491636 
L 149.324671 273.495273 
L 149.373996 284.491636 
L 149.557595 273.495273 
L 149.598699 284.491636 
L 149.789605 273.495273 
L 149.831623 284.491636 
L 150.017048 273.495273 
L 150.063633 284.491636 
L 150.244492 273.495273 
L 150.291076 284.491636 
L 150.474675 273.495273 
L 150.51852 284.491636 
L 150.707599 273.495273 
L 150.74779 284.491636 
L 150.934128 273.495273 
L 150.980713 284.491636 
L 151.164312 273.495273 
L 151.208156 284.491636 
L 151.394495 273.495273 
L 151.437426 284.491636 
L 151.624679 273.495273 
L 151.668523 284.491636 
L 151.848468 273.495273 
L 151.898707 284.491636 
L 152.078652 273.495273 
L 152.122496 284.491636 
L 152.309749 273.495273 
L 152.35268 284.491636 
L 152.538105 273.495273 
L 152.583776 284.491636 
L 152.766462 273.495273 
L 152.812133 284.491636 
L 152.992991 273.495273 
L 153.04049 284.491636 
L 153.220435 273.495273 
L 153.267019 284.491636 
L 153.447878 273.495273 
L 153.494462 284.491636 
L 153.676234 273.495273 
L 153.721906 284.491636 
L 153.904591 273.495273 
L 153.950262 284.491636 
L 154.130207 273.495273 
L 154.178619 284.491636 
L 154.353083 273.495273 
L 154.404235 284.491636 
L 154.58692 273.495273 
L 154.627111 284.491636 
L 154.817104 273.495273 
L 154.860035 284.491636 
L 155.044547 273.495273 
L 155.090218 284.491636 
L 155.265596 273.495273 
L 155.317661 284.491636 
L 155.492126 273.495273 
L 155.539624 284.491636 
L 155.718655 273.495273 
L 155.766154 284.491636 
L 155.946099 273.495273 
L 155.99177 284.491636 
L 156.175369 273.495273 
L 156.220127 284.491636 
L 156.405552 273.495273 
L 156.449397 284.491636 
L 156.632995 273.495273 
L 156.678667 284.491636 
L 156.855871 273.495273 
L 156.907023 284.491636 
L 157.077834 273.495273 
L 157.129899 284.491636 
L 157.308017 273.495273 
L 157.351862 284.491636 
L 157.539114 273.495273 
L 157.582045 284.491636 
L 157.770211 273.495273 
L 157.813142 284.491636 
L 157.998568 273.495273 
L 158.044239 284.491636 
L 158.231491 273.495273 
L 158.272595 284.491636 
L 158.461675 273.495273 
L 158.504606 284.491636 
L 158.688204 273.495273 
L 158.734789 284.491636 
L 158.917474 273.495273 
L 158.961319 284.491636 
L 159.146744 273.495273 
L 159.191502 284.491636 
L 159.376014 273.495273 
L 159.420772 284.491636 
L 159.602544 273.495273 
L 159.650042 284.491636 
L 159.832728 273.495273 
L 159.875659 284.491636 
L 160.058344 273.495273 
L 160.106755 284.491636 
L 160.287614 273.495273 
L 160.332372 284.491636 
L 160.520538 273.495273 
L 160.561642 284.491636 
L 160.748894 273.495273 
L 160.794565 284.491636 
L 160.979078 273.495273 
L 161.022922 284.491636 
L 161.210174 273.495273 
L 161.253105 284.491636 
L 161.438531 273.495273 
L 161.484202 284.491636 
L 161.666888 273.495273 
L 161.711645 284.491636 
L 161.897984 273.495273 
L 161.940915 284.491636 
L 162.129995 273.495273 
L 162.172012 284.491636 
L 162.357438 273.495273 
L 162.404023 284.491636 
L 162.590362 273.495273 
L 162.630552 284.491636 
L 162.823285 273.495273 
L 162.864389 284.491636 
L 163.048902 273.495273 
L 163.097313 284.491636 
L 163.275431 273.495273 
L 163.322016 284.491636 
L 163.502874 273.495273 
L 163.549459 284.491636 
L 163.733058 273.495273 
L 163.776902 284.491636 
L 163.960501 273.495273 
L 164.007086 284.491636 
L 164.190684 273.495273 
L 164.234529 284.491636 
L 164.417214 273.495273 
L 164.464712 284.491636 
L 164.652878 273.495273 
L 164.691242 284.491636 
L 164.876668 273.495273 
L 164.926906 284.491636 
L 165.105938 273.495273 
L 165.150696 284.491636 
L 165.333381 273.495273 
L 165.379966 284.491636 
L 165.566305 273.495273 
L 165.607409 284.491636 
L 165.800142 273.495273 
L 165.840332 284.491636 
L 166.029412 273.495273 
L 166.073256 284.491636 
L 166.255028 273.495273 
L 166.30344 284.491636 
L 166.486125 273.495273 
L 166.529056 284.491636 
L 166.709914 273.495273 
L 166.760153 284.491636 
L 166.941925 273.495273 
L 166.983942 284.491636 
L 167.168454 273.495273 
L 167.215039 284.491636 
L 167.399551 273.495273 
L 167.442482 284.491636 
L 167.627908 273.495273 
L 167.673579 284.491636 
L 167.859005 273.495273 
L 167.901936 284.491636 
L 168.313891 262.498909 
L 168.341294 273.495273 
L 169.441059 218.513455 
L 171.953895 97.553455 
L 172.479115 108.549818 
L 172.635311 97.553455 
L 177.959673 108.549818 
L 178.197163 284.491636 
L 178.332351 273.495273 
L 178.377108 284.491636 
L 178.563447 273.495273 
L 178.605465 284.491636 
L 178.790891 273.495273 
L 178.837475 284.491636 
L 179.023814 273.495273 
L 179.064005 284.491636 
L 179.252171 273.495273 
L 179.297842 284.491636 
L 179.479614 273.495273 
L 179.525285 284.491636 
L 179.713451 273.495273 
L 179.753642 284.491636 
L 179.941808 273.495273 
L 179.986566 284.491636 
L 180.169251 273.495273 
L 180.215836 284.491636 
L 180.396694 273.495273 
L 180.443279 284.491636 
L 180.624137 273.495273 
L 180.670722 284.491636 
L 180.853407 273.495273 
L 180.898165 284.491636 
L 181.081764 273.495273 
L 181.127435 284.491636 
L 181.31012 273.495273 
L 181.355792 284.491636 
L 181.53939 273.495273 
L 181.584148 284.491636 
L 181.762266 273.495273 
L 181.812505 284.491636 
L 181.991536 273.495273 
L 182.036294 284.491636 
L 182.215326 273.495273 
L 182.265564 284.491636 
L 182.446423 273.495273 
L 182.48844 284.491636 
L 182.672952 273.495273 
L 182.720451 284.491636 
L 182.904963 273.495273 
L 182.94698 284.491636 
L 183.134233 273.495273 
L 183.178991 284.491636 
L 183.36533 273.495273 
L 183.408261 284.491636 
L 183.593686 273.495273 
L 183.638444 284.491636 
L 183.822043 273.495273 
L 183.866801 284.491636 
L 184.052226 273.495273 
L 184.096071 284.491636 
L 184.28241 273.495273 
L 184.326254 284.491636 
L 184.513506 273.495273 
L 184.556437 284.491636 
L 184.74643 273.495273 
L 184.787534 284.491636 
L 185.020458 295.488 
L 185.95672 284.491636 
L 186.229834 295.488 
L 186.280986 284.491636 
L 186.555014 295.488 
L 186.597032 284.491636 
L 186.87106 295.488 
L 186.920385 284.491636 
L 187.194413 295.488 
L 187.241911 284.491636 
L 187.515025 295.488 
L 187.557956 284.491636 
L 187.831984 295.488 
L 187.881309 284.491636 
L 188.155337 295.488 
L 188.204662 284.491636 
L 188.477777 295.488 
L 188.520708 284.491636 
L 188.794736 295.488 
L 188.834926 284.491636 
L 189.108954 295.488 
L 189.155539 284.491636 
L 189.429567 295.488 
L 189.478892 284.491636 
L 189.75292 295.488 
L 189.791284 284.491636 
L 190.065312 295.488 
L 190.106416 284.491636 
L 190.380444 295.488 
L 190.425201 284.491636 
L 190.699229 295.488 
L 190.756775 284.491636 
L 191.02989 295.488 
L 191.069167 284.491636 
L 191.343195 295.488 
L 191.387039 284.491636 
L 191.661067 295.488 
L 191.703998 284.491636 
L 191.978026 295.488 
L 192.025524 284.491636 
L 192.299552 295.488 
L 192.337916 284.491636 
L 192.611944 295.488 
L 192.657615 284.491636 
L 192.931643 295.488 
L 192.976401 284.491636 
L 193.250429 295.488 
L 193.292447 284.491636 
L 193.566475 295.488 
L 193.612146 284.491636 
L 193.886174 295.488 
L 193.927278 284.491636 
L 194.201306 295.488 
L 194.246064 284.491636 
L 194.520092 295.488 
L 194.569417 284.491636 
L 194.843445 295.488 
L 194.889116 284.491636 
L 195.163144 295.488 
L 195.212469 284.491636 
L 195.486497 295.488 
L 195.533995 284.491636 
L 195.808023 295.488 
L 195.849127 284.491636 
L 196.122241 295.488 
L 196.159692 284.491636 
L 196.432806 295.488 
L 196.481218 284.491636 
L 196.754332 295.488 
L 196.79635 284.491636 
L 197.069464 295.488 
L 197.115136 284.491636 
L 197.389164 295.488 
L 197.434835 284.491636 
L 197.708863 295.488 
L 197.747227 284.491636 
L 198.021255 295.488 
L 198.063272 284.491636 
L 198.3373 295.488 
L 198.379318 284.491636 
L 198.653346 295.488 
L 198.705411 284.491636 
L 199.664509 251.502545 
L 199.876423 262.498909 
L 199.985121 251.502545 
L 201.90697 185.524364 
L 210.846673 196.520727 
L 211.096039 295.488 
L 211.175507 284.491636 
L 211.449535 295.488 
L 211.490639 284.491636 
L 211.764667 295.488 
L 211.803944 284.491636 
L 212.077972 295.488 
L 212.131864 284.491636 
L 212.405892 295.488 
L 212.449737 284.491636 
L 212.722851 295.488 
L 212.77309 284.491636 
L 213.046204 295.488 
L 213.092789 284.491636 
L 213.365903 295.488 
L 213.417055 284.491636 
L 213.691083 295.488 
L 213.735841 284.491636 
L 214.008955 295.488 
L 214.05828 284.491636 
L 214.332308 295.488 
L 214.37798 284.491636 
L 214.651094 295.488 
L 214.696765 284.491636 
L 214.970793 295.488 
L 215.016465 284.491636 
L 215.290492 295.488 
L 215.338904 284.491636 
L 215.612018 295.488 
L 215.664997 284.491636 
L 215.939025 295.488 
L 215.987437 284.491636 
L 216.260551 295.488 
L 216.298002 284.491636 
L 216.57203 295.488 
L 216.628662 284.491636 
L 216.901776 295.488 
L 216.952928 284.491636 
L 217.226956 295.488 
L 217.269887 284.491636 
L 217.543915 295.488 
L 217.588673 284.491636 
L 217.861787 295.488 
L 217.907459 284.491636 
L 218.181487 295.488 
L 218.233552 284.491636 
L 218.50758 295.488 
L 218.552338 284.491636 
L 218.826366 295.488 
L 218.876604 284.491636 
L 219.150632 295.488 
L 219.203611 284.491636 
L 219.477639 295.488 
L 219.519656 284.491636 
L 219.792771 295.488 
L 219.832048 284.491636 
L 220.105163 295.488 
L 220.14718 284.491636 
L 220.420295 295.488 
L 220.46962 284.491636 
L 220.743647 295.488 
L 220.798453 284.491636 
L 221.071568 295.488 
L 221.109018 284.491636 
L 221.383046 295.488 
L 221.423237 284.491636 
L 221.697265 295.488 
L 221.741109 284.491636 
L 222.014223 295.488 
L 222.058068 284.491636 
L 222.332096 295.488 
L 222.382334 284.491636 
L 222.655449 295.488 
L 222.699293 284.491636 
L 222.973321 295.488 
L 223.019906 284.491636 
L 223.293934 295.488 
L 223.339605 284.491636 
L 223.61272 295.488 
L 223.659304 284.491636 
L 223.933332 295.488 
L 223.972609 284.491636 
L 224.246637 295.488 
L 224.288655 284.491636 
L 224.562683 295.488 
L 224.611094 284.491636 
L 224.884209 295.488 
L 224.926227 284.491636 
L 225.199341 295.488 
L 225.248666 284.491636 
L 225.521781 295.488 
L 225.5775 284.491636 
L 225.851527 295.488 
L 225.899026 284.491636 
L 226.17214 295.488 
L 226.210504 284.491636 
L 226.484532 295.488 
L 226.53477 284.491636 
L 226.808798 295.488 
L 226.85721 284.491636 
L 227.130324 295.488 
L 227.175996 284.491636 
L 227.450023 295.488 
L 227.503916 284.491636 
L 227.77703 295.488 
L 227.815394 284.491636 
L 228.089422 295.488 
L 228.140574 284.491636 
L 228.413688 295.488 
L 228.455706 284.491636 
L 228.729734 295.488 
L 228.775405 284.491636 
L 229.049433 295.488 
L 229.089624 284.491636 
L 229.362738 295.488 
L 230.436014 284.491636 
L 230.616872 273.495273 
L 230.710042 284.491636 
L 230.796817 273.495273 
L 230.8909 284.491636 
L 230.977676 273.495273 
L 231.070845 284.491636 
L 231.161275 273.495273 
L 231.25079 284.491636 
L 231.3467 273.495273 
L 231.435302 284.491636 
L 231.533039 273.495273 
L 231.620728 284.491636 
L 231.718465 273.495273 
L 231.806154 284.491636 
L 231.897496 273.495273 
L 231.992492 284.491636 
L 232.081095 273.495273 
L 232.171524 284.491636 
L 232.265607 273.495273 
L 232.355123 284.491636 
L 232.451032 273.495273 
L 232.539635 284.491636 
L 232.631891 273.495273 
L 232.72506 284.491636 
L 232.811836 273.495273 
L 232.905919 284.491636 
L 232.989954 273.495273 
L 233.085864 284.491636 
L 233.170812 273.495273 
L 233.263982 284.491636 
L 233.351671 273.495273 
L 233.44484 284.491636 
L 233.531616 273.495273 
L 233.625699 284.491636 
L 233.713388 273.495273 
L 233.805644 284.491636 
L 233.8979 273.495273 
L 233.987416 284.491636 
L 234.084239 273.495273 
L 234.171928 284.491636 
L 234.268751 273.495273 
L 234.358267 284.491636 
L 234.453263 273.495273 
L 234.542779 284.491636 
L 234.635035 273.495273 
L 234.727291 284.491636 
L 234.821374 273.495273 
L 234.909063 284.491636 
L 234.998578 273.495273 
L 235.094488 284.491636 
L 235.181264 273.495273 
L 235.271693 284.491636 
L 235.359382 273.495273 
L 235.455292 284.491636 
L 235.542067 273.495273 
L 235.632496 284.491636 
L 235.726579 273.495273 
L 235.816095 284.491636 
L 235.904697 273.495273 
L 235.999694 284.491636 
L 236.087383 273.495273 
L 236.178725 284.491636 
L 236.270981 273.495273 
L 236.361411 284.491636 
L 236.458234 273.495273 
L 236.545009 284.491636 
L 236.640919 273.495273 
L 236.732262 284.491636 
L 236.824518 273.495273 
L 236.914033 284.491636 
L 237.008116 273.495273 
L 237.098546 284.491636 
L 237.188975 273.495273 
L 237.282144 284.491636 
L 237.368006 273.495273 
L 237.462089 284.491636 
L 237.553432 273.495273 
L 237.641121 284.491636 
L 237.740684 273.495273 
L 237.826546 284.491636 
L 237.927023 273.495273 
L 238.014712 284.491636 
L 238.109708 273.495273 
L 238.201051 284.491636 
L 238.290567 273.495273 
L 238.382823 284.491636 
L 238.474166 273.495273 
L 238.564595 284.491636 
L 238.655024 273.495273 
L 238.74728 284.491636 
L 238.842276 273.495273 
L 238.929052 284.491636 
L 239.029529 273.495273 
L 239.115391 284.491636 
L 239.212214 273.495273 
L 239.302643 284.491636 
L 239.398553 273.495273 
L 239.486242 284.491636 
L 239.580325 273.495273 
L 239.671667 284.491636 
L 239.763923 273.495273 
L 239.853439 284.491636 
L 239.951176 273.495273 
L 240.037951 284.491636 
L 240.131121 273.495273 
L 240.225204 284.491636 
L 240.31746 273.495273 
L 240.405149 284.491636 
L 240.498318 273.495273 
L 240.591488 284.491636 
L 240.68283 273.495273 
L 240.771433 284.491636 
L 240.861862 273.495273 
L 240.956858 284.491636 
L 241.049114 273.495273 
L 241.13589 284.491636 
L 241.232713 273.495273 
L 241.323142 284.491636 
L 241.415398 273.495273 
L 241.506741 284.491636 
L 241.601737 273.495273 
L 241.689426 284.491636 
L 241.785336 273.495273 
L 241.874852 284.491636 
L 241.965281 273.495273 
L 242.059364 284.491636 
L 242.15162 273.495273 
L 242.239309 284.491636 
L 242.334305 273.495273 
L 242.425648 284.491636 
L 242.516077 273.495273 
L 242.608333 284.491636 
L 242.700589 273.495273 
L 242.790105 284.491636 
L 242.880534 273.495273 
L 242.974617 284.491636 
L 243.065046 273.495273 
L 243.153649 284.491636 
L 243.249558 273.495273 
L 243.339074 284.491636 
L 243.43133 273.495273 
L 243.523586 284.491636 
L 243.612189 273.495273 
L 243.704445 284.491636 
L 243.794874 273.495273 
L 243.885303 284.491636 
L 243.976646 273.495273 
L 244.068902 284.491636 
L 244.158417 273.495273 
L 244.24976 284.491636 
L 244.341103 273.495273 
L 244.432445 284.491636 
L 244.522875 273.495273 
L 244.614217 284.491636 
L 244.70282 273.495273 
L 244.795989 284.491636 
L 244.888245 273.495273 
L 244.975934 284.491636 
L 245.071844 273.495273 
L 245.162273 284.491636 
L 245.259096 273.495273 
L 245.344958 284.491636 
L 245.444522 273.495273 
L 245.533124 284.491636 
L 245.629034 273.495273 
L 245.71855 284.491636 
L 245.812633 273.495273 
L 245.903062 284.491636 
L 245.993491 273.495273 
L 246.085747 284.491636 
L 246.178003 273.495273 
L 246.267519 284.491636 
L 246.361602 273.495273 
L 246.452031 284.491636 
L 246.544287 273.495273 
L 246.63563 284.491636 
L 246.729713 273.495273 
L 246.817401 284.491636 
L 246.913311 273.495273 
L 247.00374 284.491636 
L 247.097823 273.495273 
L 247.186426 284.491636 
L 247.280509 273.495273 
L 247.371851 284.491636 
L 247.467761 273.495273 
L 247.553623 284.491636 
L 247.649533 273.495273 
L 247.741789 284.491636 
L 247.828564 273.495273 
L 247.923561 284.491636 
L 248.009423 273.495273 
L 248.102592 284.491636 
L 248.190281 273.495273 
L 248.283451 284.491636 
L 248.37662 273.495273 
L 248.463396 284.491636 
L 248.562046 273.495273 
L 248.649735 284.491636 
L 248.740164 273.495273 
L 248.83516 284.491636 
L 248.920109 273.495273 
L 249.013278 284.491636 
L 249.100967 273.495273 
L 249.193223 284.491636 
L 249.283652 273.495273 
L 249.374995 284.491636 
L 249.465424 273.495273 
L 249.55768 284.491636 
L 249.644456 273.495273 
L 249.739452 284.491636 
L 249.827141 273.495273 
L 249.918484 284.491636 
L 250.011653 273.495273 
L 250.100256 284.491636 
L 250.191598 273.495273 
L 250.285681 284.491636 
L 250.375197 273.495273 
L 250.465626 284.491636 
L 250.556055 273.495273 
L 250.649225 284.491636 
L 250.734173 273.495273 
L 250.830083 284.491636 
L 250.914118 273.495273 
L 251.008201 284.491636 
L 251.094063 273.495273 
L 251.188146 284.491636 
L 251.281316 273.495273 
L 251.368091 284.491636 
L 251.464001 273.495273 
L 251.55443 284.491636 
L 251.646686 273.495273 
L 251.737116 284.491636 
L 251.829372 273.495273 
L 251.919801 284.491636 
L 252.00749 273.495273 
L 252.102486 284.491636 
L 252.190175 273.495273 
L 252.280604 284.491636 
L 252.37286 273.495273 
L 252.464203 284.491636 
L 252.551892 273.495273 
L 252.646888 284.491636 
L 252.73275 273.495273 
L 252.825006 284.491636 
L 252.911782 273.495273 
L 253.006778 284.491636 
L 253.09538 273.495273 
L 253.18581 284.491636 
L 253.277152 273.495273 
L 253.369408 284.491636 
L 253.465318 273.495273 
L 253.55118 284.491636 
L 253.64709 273.495273 
L 253.739346 284.491636 
L 253.833429 273.495273 
L 253.921118 284.491636 
L 254.01246 273.495273 
L 254.107457 284.491636 
L 254.194232 273.495273 
L 254.286488 284.491636 
L 254.377831 273.495273 
L 254.46826 284.491636 
L 254.565083 273.495273 
L 254.651859 284.491636 
L 254.936848 262.498909 
L 255.010835 273.495273 
L 255.300392 251.502545 
L 258.591467 53.568 
L 260.1653 64.564364 
L 260.399137 284.491636 
L 260.420146 273.495273 
L 260.510575 284.491636 
L 260.603745 273.495273 
L 260.694174 284.491636 
L 260.790084 273.495273 
L 260.876859 284.491636 
L 260.976423 273.495273 
L 261.063198 284.491636 
L 261.158194 273.495273 
L 261.250451 284.491636 
L 261.336313 273.495273 
L 261.432222 284.491636 
L 261.518084 273.495273 
L 261.610341 284.491636 
L 261.701683 273.495273 
L 261.792112 284.491636 
L 261.883455 273.495273 
L 261.974798 284.491636 
L 262.06614 273.495273 
L 262.156569 284.491636 
L 262.251566 273.495273 
L 262.340168 284.491636 
L 262.433338 273.495273 
L 262.52468 284.491636 
L 262.616936 273.495273 
L 262.707365 284.491636 
L 262.803275 273.495273 
L 262.890051 284.491636 
L 262.986874 273.495273 
L 263.07639 284.491636 
L 263.166819 273.495273 
L 263.260902 284.491636 
L 263.348591 273.495273 
L 263.440847 284.491636 
L 263.533103 273.495273 
L 263.622619 284.491636 
L 263.713961 273.495273 
L 263.806217 284.491636 
L 263.895733 273.495273 
L 263.987989 284.491636 
L 264.079332 273.495273 
L 264.168848 284.491636 
L 264.262017 273.495273 
L 264.35336 284.491636 
L 264.441962 273.495273 
L 264.536045 284.491636 
L 264.619167 273.495273 
L 264.715077 284.491636 
L 264.803679 273.495273 
L 264.893195 284.491636 
L 264.983624 273.495273 
L 265.076793 284.491636 
L 265.170876 273.495273 
L 265.257652 284.491636 
L 265.353562 273.495273 
L 265.444904 284.491636 
L 265.53716 273.495273 
L 265.626676 284.491636 
L 265.900704 262.498909 
L 265.979259 273.495273 
L 266.260594 251.502545 
L 269.563543 53.568 
L 271.126416 64.564364 
L 271.360253 284.491636 
L 271.379435 273.495273 
L 271.471691 284.491636 
L 271.566687 273.495273 
L 271.653463 284.491636 
L 271.748459 273.495273 
L 271.839802 284.491636 
L 271.933885 273.495273 
L 272.022487 284.491636 
L 272.112003 273.495273 
L 272.206999 284.491636 
L 272.292861 273.495273 
L 272.386031 284.491636 
L 272.474633 273.495273 
L 272.566889 284.491636 
L 272.658232 273.495273 
L 272.748661 284.491636 
L 272.846398 273.495273 
L 272.93226 284.491636 
L 273.027256 273.495273 
L 273.119512 284.491636 
L 273.214508 273.495273 
L 273.301284 284.491636 
L 273.39902 273.495273 
L 273.488536 284.491636 
L 273.582619 273.495273 
L 273.672135 284.491636 
L 273.770785 273.495273 
L 273.856647 284.491636 
L 273.951643 273.495273 
L 274.044813 284.491636 
L 274.136155 273.495273 
L 274.225671 284.491636 
L 274.314274 273.495273 
L 274.40927 284.491636 
L 274.497872 273.495273 
L 274.588301 284.491636 
L 274.67599 273.495273 
L 274.770987 284.491636 
L 274.858676 273.495273 
L 274.950018 284.491636 
L 275.044101 273.495273 
L 275.132704 284.491636 
L 275.226786 273.495273 
L 275.318129 284.491636 
L 275.407645 273.495273 
L 275.500814 284.491636 
L 275.592157 273.495273 
L 275.681673 284.491636 
L 275.773929 273.495273 
L 275.866185 284.491636 
L 275.959354 273.495273 
L 276.047957 284.491636 
L 276.142953 273.495273 
L 276.233382 284.491636 
L 276.328379 273.495273 
L 276.416068 284.491636 
L 276.511064 273.495273 
L 276.602406 284.491636 
L 276.694663 273.495273 
L 276.784178 284.491636 
L 276.871867 273.495273 
L 276.96869 284.491636 
L 277.049985 273.495273 
L 277.145895 284.491636 
L 277.232671 273.495273 
L 277.324013 284.491636 
L 277.413529 273.495273 
L 277.506699 284.491636 
L 277.599868 273.495273 
L 277.687557 284.491636 
L 277.78164 273.495273 
L 277.873896 284.491636 
L 277.965239 273.495273 
L 278.055668 284.491636 
L 278.153404 273.495273 
L 278.239266 284.491636 
L 278.337916 273.495273 
L 278.426519 284.491636 
L 278.519688 273.495273 
L 278.611031 284.491636 
L 278.703287 273.495273 
L 278.792803 284.491636 
L 278.886886 273.495273 
L 278.977315 284.491636 
L 279.069571 273.495273 
L 279.160914 284.491636 
L 279.251343 273.495273 
L 279.343599 284.491636 
L 279.434941 273.495273 
L 279.525371 284.491636 
L 279.614886 273.495273 
L 279.708969 284.491636 
L 279.800312 273.495273 
L 279.888914 284.491636 
L 279.982997 273.495273 
L 280.07434 284.491636 
L 280.17025 273.495273 
L 280.257025 284.491636 
L 280.350195 273.495273 
L 280.444278 284.491636 
L 280.529226 273.495273 
L 280.624223 284.491636 
L 280.713738 273.495273 
L 280.803254 284.491636 
L 280.89825 273.495273 
L 280.987766 284.491636 
L 281.080936 273.495273 
L 281.172278 284.491636 
L 281.261794 273.495273 
L 281.35405 284.491636 
L 281.440826 273.495273 
L 281.535822 284.491636 
L 281.618944 273.495273 
L 281.714854 284.491636 
L 281.801629 273.495273 
L 281.892972 284.491636 
L 281.983401 273.495273 
L 282.075657 284.491636 
L 282.163346 273.495273 
L 282.257429 284.491636 
L 282.346031 273.495273 
L 282.43646 284.491636 
L 282.527803 273.495273 
L 282.620059 284.491636 
L 282.707748 273.495273 
L 282.801831 284.491636 
L 283.074032 262.498909 
L 283.149846 273.495273 
L 283.443056 251.502545 
L 286.746919 53.568 
L 287.708757 64.564364 
L 287.942594 284.491636 
L 288.026629 273.495273 
L 288.121626 284.491636 
L 288.210228 273.495273 
L 288.300657 284.491636 
L 288.39474 273.495273 
L 288.484256 284.491636 
L 288.574685 273.495273 
L 288.668768 284.491636 
L 288.762851 273.495273 
L 288.848713 284.491636 
L 288.945536 273.495273 
L 289.036879 284.491636 
L 289.126395 273.495273 
L 289.218651 284.491636 
L 289.308166 273.495273 
L 289.400422 284.491636 
L 289.491765 273.495273 
L 289.581281 284.491636 
L 289.676277 273.495273 
L 289.76488 284.491636 
L 289.858962 273.495273 
L 289.950305 284.491636 
L 290.041648 273.495273 
L 290.13299 284.491636 
L 290.22616 273.495273 
L 290.315676 284.491636 
L 290.407932 273.495273 
L 290.500188 284.491636 
L 290.592444 273.495273 
L 290.68196 284.491636 
L 290.771475 273.495273 
L 290.866472 284.491636 
L 290.950507 273.495273 
L 291.045503 284.491636 
L 291.135932 273.495273 
L 291.224535 284.491636 
L 291.316791 273.495273 
L 291.40996 284.491636 
L 291.501303 273.495273 
L 291.590819 284.491636 
L 291.683988 273.495273 
L 291.774417 284.491636 
L 291.86576 273.495273 
L 291.958016 284.491636 
L 292.044792 273.495273 
L 292.138875 284.491636 
L 292.229304 273.495273 
L 292.317906 284.491636 
L 292.411989 273.495273 
L 292.503332 284.491636 
L 292.591934 273.495273 
L 292.686017 284.491636 
L 292.775533 273.495273 
L 292.865048 284.491636 
L 292.961872 273.495273 
L 293.049561 284.491636 
L 293.141817 273.495273 
L 293.234986 284.491636 
L 293.323588 273.495273 
L 293.415845 284.491636 
L 293.506274 273.495273 
L 293.597616 284.491636 
L 293.685305 273.495273 
L 293.780302 284.491636 
L 293.867077 273.495273 
L 293.95842 284.491636 
L 294.049762 273.495273 
L 294.141105 284.491636 
L 294.237015 273.495273 
L 294.32379 284.491636 
L 294.4197 273.495273 
L 294.510129 284.491636 
L 294.602385 273.495273 
L 294.692815 284.491636 
L 294.781417 273.495273 
L 294.8755 284.491636 
L 294.961362 273.495273 
L 295.054531 284.491636 
L 295.143134 273.495273 
L 295.23539 284.491636 
L 295.325819 273.495273 
L 295.417162 284.491636 
L 295.507591 273.495273 
L 295.599847 284.491636 
L 295.692103 273.495273 
L 295.781619 284.491636 
L 295.874788 273.495273 
L 295.965217 284.491636 
L 296.05656 273.495273 
L 296.148816 284.491636 
L 296.239245 273.495273 
L 296.330588 284.491636 
L 296.424671 273.495273 
L 296.51236 284.491636 
L 296.606443 273.495273 
L 296.698699 284.491636 
L 296.790955 273.495273 
L 296.879557 284.491636 
L 296.97364 273.495273 
L 297.064069 284.491636 
L 297.157239 273.495273 
L 297.247668 284.491636 
L 297.343578 273.495273 
L 297.431267 284.491636 
L 297.526263 273.495273 
L 297.617606 284.491636 
L 297.705294 273.495273 
L 297.800291 284.491636 
L 297.886153 273.495273 
L 297.979322 284.491636 
L 298.068838 273.495273 
L 298.160181 284.491636 
L 298.254264 273.495273 
L 298.342866 284.491636 
L 298.440603 273.495273 
L 298.527378 284.491636 
L 298.625115 273.495273 
L 298.714631 284.491636 
L 298.813281 273.495273 
L 298.899143 284.491636 
L 298.99962 273.495273 
L 299.086395 284.491636 
L 299.180478 273.495273 
L 299.273647 284.491636 
L 299.368644 273.495273 
L 299.454506 284.491636 
L 299.552242 273.495273 
L 299.641758 284.491636 
L 299.736755 273.495273 
L 299.82627 284.491636 
L 299.921267 273.495273 
L 300.195295 295.488 
L 301.141604 284.491636 
L 301.415632 295.488 
L 301.46039 284.491636 
L 301.734418 295.488 
L 301.781003 284.491636 
L 302.054117 295.488 
L 302.105269 284.491636 
L 302.379297 295.488 
L 302.431362 284.491636 
L 302.704477 295.488 
L 302.746494 284.491636 
L 303.020522 295.488 
L 303.064367 284.491636 
L 303.338395 295.488 
L 303.386806 284.491636 
L 303.659921 295.488 
L 303.708332 284.491636 
L 303.98236 295.488 
L 304.028945 284.491636 
L 304.302973 295.488 
L 304.350471 284.491636 
L 304.624499 295.488 
L 304.671997 284.491636 
L 304.945111 295.488 
L 304.988042 284.491636 
L 305.26207 295.488 
L 305.311395 284.491636 
L 305.585423 295.488 
L 305.631095 284.491636 
L 305.905122 295.488 
L 305.946227 284.491636 
L 306.220255 295.488 
L 306.26958 284.491636 
L 306.542694 295.488 
L 306.586538 284.491636 
L 306.860566 295.488 
L 306.913545 284.491636 
L 307.187573 295.488 
L 307.228677 284.491636 
L 307.501792 295.488 
L 307.551117 284.491636 
L 307.824231 295.488 
L 307.868989 284.491636 
L 308.142103 295.488 
L 308.196909 284.491636 
L 311.08699 185.524364 
L 315.111546 196.520727 
L 315.362738 284.491636 
L 315.523501 295.488 
L 315.570086 284.491636 
L 315.844114 295.488 
L 315.898006 284.491636 
L 316.171121 295.488 
L 316.211311 284.491636 
L 316.485339 295.488 
L 316.535578 284.491636 
L 316.808692 295.488 
L 316.859844 284.491636 
L 317.133872 295.488 
L 317.180457 284.491636 
L 317.454485 295.488 
L 317.498329 284.491636 
L 317.772357 295.488 
L 317.818942 284.491636 
L 318.09297 295.488 
L 318.145035 284.491636 
L 318.418149 295.488 
L 318.460167 284.491636 
L 318.734195 295.488 
L 318.778953 284.491636 
L 319.052981 295.488 
L 319.093171 284.491636 
L 319.366286 295.488 
L 319.409217 284.491636 
L 319.682331 295.488 
L 319.719782 284.491636 
L 319.99381 295.488 
L 320.038568 284.491636 
L 320.311682 295.488 
L 320.35644 284.491636 
L 320.630468 295.488 
L 320.67888 284.491636 
L 320.951994 295.488 
L 320.990358 284.491636 
L 321.264386 295.488 
L 321.307317 284.491636 
L 321.581345 295.488 
L 321.622449 284.491636 
L 321.896477 295.488 
L 321.936668 284.491636 
L 322.210695 295.488 
L 322.259107 284.491636 
L 322.533135 295.488 
L 322.574239 284.491636 
L 322.847354 295.488 
L 322.899419 284.491636 
L 323.173447 295.488 
L 323.220945 284.491636 
L 323.494059 295.488 
L 323.538817 284.491636 
L 323.812845 295.488 
L 323.858517 284.491636 
L 324.132544 295.488 
L 324.174562 284.491636 
L 324.447676 295.488 
L 324.496088 284.491636 
L 324.770116 295.488 
L 324.817614 284.491636 
L 325.091642 295.488 
L 325.13914 284.491636 
L 325.412255 295.488 
L 325.46158 284.491636 
L 325.735608 295.488 
L 325.773971 284.491636 
L 326.047086 295.488 
L 326.091844 284.491636 
L 326.364958 295.488 
L 326.41611 284.491636 
L 326.690138 295.488 
L 326.743117 284.491636 
L 327.017145 295.488 
L 327.068297 284.491636 
L 327.341411 295.488 
L 327.384342 284.491636 
L 327.65837 295.488 
L 327.705868 284.491636 
L 327.979896 295.488 
L 328.027394 284.491636 
L 328.301422 295.488 
L 328.348007 284.491636 
L 328.622035 295.488 
L 328.666793 284.491636 
L 328.939907 295.488 
L 328.991059 284.491636 
L 329.265087 295.488 
L 329.311672 284.491636 
L 329.585699 295.488 
L 329.628631 284.491636 
L 329.902658 295.488 
L 329.947416 284.491636 
L 330.221444 295.488 
L 330.266202 284.491636 
L 333.12888 185.524364 
L 336.89037 196.520727 
L 337.141562 284.491636 
L 337.248433 295.488 
L 337.289537 284.491636 
L 337.563565 295.488 
L 337.608323 284.491636 
L 337.881437 295.488 
L 337.933503 284.491636 
L 338.20753 295.488 
L 338.251375 284.491636 
L 338.525403 295.488 
L 338.574728 284.491636 
L 338.848756 295.488 
L 338.89534 284.491636 
L 339.169368 295.488 
L 339.209559 284.491636 
L 339.483587 295.488 
L 339.533825 284.491636 
L 339.807853 295.488 
L 339.846217 284.491636 
L 340.120245 295.488 
L 340.165916 284.491636 
L 340.439944 295.488 
L 340.482875 284.491636 
L 340.756903 295.488 
L 340.800748 284.491636 
L 341.074776 295.488 
L 341.122274 284.491636 
L 341.396302 295.488 
L 341.44106 284.491636 
L 341.715087 295.488 
L 341.762586 284.491636 
L 342.036613 295.488 
L 342.075891 284.491636 
L 342.349919 295.488 
L 342.394677 284.491636 
L 342.712549 273.495273 
L 343.652465 262.498909 
L 346.846716 108.549818 
L 347.851485 119.546182 
L 348.014989 229.509818 
L 348.087149 284.491636 
L 348.224163 273.495273 
L 348.272575 284.491636 
L 348.45252 273.495273 
L 348.497278 284.491636 
L 348.680876 273.495273 
L 348.726548 284.491636 
L 348.910146 273.495273 
L 348.953991 284.491636 
L 349.136676 273.495273 
L 349.183261 284.491636 
L 349.361379 273.495273 
L 349.409791 284.491636 
L 349.592476 273.495273 
L 349.634494 284.491636 
L 349.819919 273.495273 
L 349.86559 284.491636 
L 350.044622 273.495273 
L 350.093947 284.491636 
L 350.276632 273.495273 
L 350.31865 284.491636 
L 350.510469 273.495273 
L 350.55066 284.491636 
L 350.740653 273.495273 
L 350.784497 284.491636 
L 350.969009 273.495273 
L 351.013767 284.491636 
L 351.20376 273.495273 
L 351.243037 284.491636 
L 351.432116 273.495273 
L 351.477788 284.491636 
L 351.6623 273.495273 
L 351.705231 284.491636 
L 351.895224 273.495273 
L 351.935414 284.491636 
L 352.12358 273.495273 
L 352.169252 284.491636 
L 352.356504 273.495273 
L 352.396695 284.491636 
L 352.583947 273.495273 
L 352.630532 284.491636 
L 352.81413 273.495273 
L 352.857975 284.491636 
L 353.041574 273.495273 
L 353.088158 284.491636 
L 353.274497 273.495273 
L 353.314688 284.491636 
L 353.502854 273.495273 
L 353.548525 284.491636 
L 353.734864 273.495273 
L 353.775968 284.491636 
L 353.961394 273.495273 
L 354.007979 284.491636 
L 354.191577 273.495273 
L 354.234508 284.491636 
L 354.419934 273.495273 
L 354.464692 284.491636 
L 354.646464 273.495273 
L 354.693048 284.491636 
L 354.878474 273.495273 
L 354.919578 284.491636 
L 355.106831 273.495273 
L 355.152502 284.491636 
L 355.33336 273.495273 
L 355.380858 284.491636 
L 355.564457 273.495273 
L 355.606475 284.491636 
L 355.794641 273.495273 
L 355.838485 284.491636 
L 356.026651 273.495273 
L 356.068668 284.491636 
L 356.255921 273.495273 
L 356.300679 284.491636 
L 356.482451 273.495273 
L 356.529949 284.491636 
L 356.711721 273.495273 
L 356.755565 284.491636 
L 356.940991 273.495273 
L 356.985748 284.491636 
L 357.172087 273.495273 
L 357.215018 284.491636 
L 357.402271 273.495273 
L 357.446115 284.491636 
L 357.626974 273.495273 
L 357.676299 284.491636 
L 357.858071 273.495273 
L 357.901002 284.491636 
L 358.090994 273.495273 
L 358.132098 284.491636 
L 358.323005 273.495273 
L 358.365022 284.491636 
L 358.545881 273.495273 
L 358.596119 284.491636 
L 358.76967 273.495273 
L 358.819908 284.491636 
L 358.992546 273.495273 
L 359.042784 284.491636 
L 359.217249 273.495273 
L 359.26566 284.491636 
L 359.444692 273.495273 
L 359.491277 284.491636 
L 359.673049 273.495273 
L 359.717807 284.491636 
L 359.906886 273.495273 
L 359.946163 284.491636 
L 360.136156 273.495273 
L 360.180914 284.491636 
L 360.368166 273.495273 
L 360.40927 284.491636 
L 360.593782 273.495273 
L 360.642194 284.491636 
L 360.817572 273.495273 
L 360.86781 284.491636 
L 361.046842 273.495273 
L 361.0916 284.491636 
L 361.274285 273.495273 
L 361.32087 284.491636 
L 361.502642 273.495273 
L 361.548313 284.491636 
L 361.734652 273.495273 
L 361.776669 284.491636 
L 361.965749 273.495273 
L 362.00868 284.491636 
L 362.195019 273.495273 
L 362.239777 284.491636 
L 362.425202 273.495273 
L 362.469047 284.491636 
L 362.654472 273.495273 
L 362.69923 284.491636 
L 362.881002 273.495273 
L 362.9285 284.491636 
L 363.108445 273.495273 
L 363.15503 284.491636 
L 363.335888 273.495273 
L 363.381559 284.491636 
L 363.566072 273.495273 
L 363.609003 284.491636 
L 363.791688 273.495273 
L 363.840099 284.491636 
L 364.019131 273.495273 
L 364.065716 284.491636 
L 364.250228 273.495273 
L 364.292245 284.491636 
L 364.474931 273.495273 
L 364.524256 284.491636 
L 364.69872 273.495273 
L 364.748959 284.491636 
L 364.92525 273.495273 
L 364.972748 284.491636 
L 365.152693 273.495273 
L 365.199278 284.491636 
L 365.379223 273.495273 
L 365.426721 284.491636 
L 365.843243 262.498909 
L 365.867906 273.495273 
L 366.970411 218.513455 
L 369.482334 97.553455 
L 369.781024 108.549818 
L 370.017602 284.491636 
L 370.155529 273.495273 
L 370.200287 284.491636 
L 370.384799 273.495273 
L 370.429557 284.491636 
L 370.614982 273.495273 
L 370.657913 284.491636 
L 370.844252 273.495273 
L 370.88901 284.491636 
L 371.076263 273.495273 
L 371.117367 284.491636 
L 371.303706 273.495273 
L 371.350291 284.491636 
L 371.527495 273.495273 
L 371.577734 284.491636 
L 371.751285 273.495273 
L 371.801523 284.491636 
L 371.974161 273.495273 
L 372.024399 284.491636 
L 372.205258 273.495273 
L 372.248189 284.491636 
L 372.42996 273.495273 
L 372.479285 284.491636 
L 372.65923 273.495273 
L 372.703988 284.491636 
L 372.886674 273.495273 
L 372.933258 284.491636 
L 373.115944 273.495273 
L 373.160701 284.491636 
L 373.343387 273.495273 
L 373.389971 284.491636 
L 373.572657 273.495273 
L 373.616501 284.491636 
L 373.80558 273.495273 
L 373.846685 284.491636 
L 374.033024 273.495273 
L 374.078695 284.491636 
L 374.259553 273.495273 
L 374.307052 284.491636 
L 374.48517 273.495273 
L 374.533581 284.491636 
L 374.71444 273.495273 
L 374.758284 284.491636 
L 374.938229 273.495273 
L 374.987554 284.491636 
L 375.163845 273.495273 
L 375.212257 284.491636 
L 375.392202 273.495273 
L 375.43696 284.491636 
L 375.621472 273.495273 
L 375.66623 284.491636 
L 375.852569 273.495273 
L 375.8955 284.491636 
L 376.082752 273.495273 
L 376.126597 284.491636 
L 376.312936 273.495273 
L 376.35678 284.491636 
L 376.543119 273.495273 
L 376.58605 284.491636 
L 376.774216 273.495273 
L 376.817147 284.491636 
L 376.999832 273.495273 
L 377.048244 284.491636 
L 377.224535 273.495273 
L 377.27386 284.491636 
L 377.450151 273.495273 
L 377.498563 284.491636 
L 377.676681 273.495273 
L 377.724179 284.491636 
L 377.900471 273.495273 
L 377.950709 284.491636 
L 378.133394 273.495273 
L 378.173585 284.491636 
L 378.360837 273.495273 
L 378.406509 284.491636 
L 378.589194 273.495273 
L 378.634865 284.491636 
L 378.817551 273.495273 
L 378.863222 284.491636 
L 379.047734 273.495273 
L 379.091579 284.491636 
L 379.278831 273.495273 
L 379.321762 284.491636 
L 379.510841 273.495273 
L 379.551945 284.491636 
L 379.734631 273.495273 
L 379.784869 284.491636 
L 379.95842 273.495273 
L 380.008659 284.491636 
L 380.183123 273.495273 
L 380.232448 284.491636 
L 380.41148 273.495273 
L 380.457151 284.491636 
L 380.633442 273.495273 
L 380.684594 284.491636 
L 381.092896 262.498909 
L 381.115731 273.495273 
L 382.461208 207.517091 
L 384.752995 97.553455 
L 386.221784 108.549818 
L 386.456535 284.491636 
L 386.583501 273.495273 
L 386.629172 284.491636 
L 386.816425 273.495273 
L 386.857529 284.491636 
L 387.037474 273.495273 
L 387.090453 284.491636 
L 387.265831 273.495273 
L 387.311502 284.491636 
L 387.493274 273.495273 
L 387.539858 284.491636 
L 387.72163 273.495273 
L 387.767302 284.491636 
L 387.953641 273.495273 
L 387.995658 284.491636 
L 388.181084 273.495273 
L 388.227668 284.491636 
L 388.40944 273.495273 
L 388.455112 284.491636 
L 388.639624 273.495273 
L 388.682555 284.491636 
L 388.863413 273.495273 
L 388.913652 284.491636 
L 389.09177 273.495273 
L 389.137441 284.491636 
L 389.316473 273.495273 
L 389.365798 284.491636 
L 389.541175 273.495273 
L 389.5905 284.491636 
L 389.769532 273.495273 
L 389.815203 284.491636 
L 389.997889 273.495273 
L 390.04356 284.491636 
L 390.225332 273.495273 
L 390.271917 284.491636 
L 390.450948 273.495273 
L 390.49936 284.491636 
L 390.684785 273.495273 
L 390.724976 284.491636 
L 390.917709 273.495273 
L 390.9579 284.491636 
L 391.150633 273.495273 
L 391.190823 284.491636 
L 391.378989 273.495273 
L 391.424661 284.491636 
L 391.606432 273.495273 
L 391.653017 284.491636 
L 391.833876 273.495273 
L 391.88046 284.491636 
L 392.061319 273.495273 
L 392.107903 284.491636 
L 392.292416 273.495273 
L 392.334433 284.491636 
L 392.524426 273.495273 
L 392.566443 284.491636 
L 392.755523 273.495273 
L 392.79754 284.491636 
L 392.98662 273.495273 
L 393.029551 284.491636 
L 393.22137 273.495273 
L 393.260647 284.491636 
L 393.446986 273.495273 
L 393.495398 284.491636 
L 393.676256 273.495273 
L 393.721014 284.491636 
L 393.905526 273.495273 
L 393.949371 284.491636 
L 394.128402 273.495273 
L 394.179554 284.491636 
L 394.356759 273.495273 
L 394.40243 284.491636 
L 394.589683 273.495273 
L 394.629873 284.491636 
L 394.818039 273.495273 
L 394.863711 284.491636 
L 395.046396 273.495273 
L 395.091154 284.491636 
L 395.272012 273.495273 
L 395.320424 284.491636 
L 395.499455 273.495273 
L 395.54604 284.491636 
L 395.725985 273.495273 
L 395.77257 284.491636 
L 395.954342 273.495273 
L 395.999099 284.491636 
L 396.184525 273.495273 
L 396.227456 284.491636 
L 396.416535 273.495273 
L 396.458553 284.491636 
L 396.648546 273.495273 
L 396.68965 284.491636 
L 396.874162 273.495273 
L 396.92166 284.491636 
L 397.096124 273.495273 
L 397.14819 284.491636 
L 397.320827 273.495273 
L 397.370152 284.491636 
L 397.551011 273.495273 
L 397.593942 284.491636 
L 397.780281 273.495273 
L 397.825039 284.491636 
L 398.005897 273.495273 
L 398.053395 284.491636 
L 398.487273 295.488 
L 398.487273 295.488 
" clip-path="url(#p5a6c9705de)" style="fill: none; stroke: #1f77b4; stroke-width: 1.5; stroke-linecap: square"/>
   </g>
   <g id="patch_3">
    <path d="M 57.6 307.584 
L 57.6 41.472 
" style="fill: none; stroke: #000000; stroke-width: 0.8; stroke-linejoin: miter; stroke-linecap: square"/>
   </g>
   <g id="patch_4">
    <path d="M 414.72 307.584 
L 414.72 41.472 
" style="fill: none; stroke: #000000; stroke-width: 0.8; stroke-linejoin: miter; stroke-linecap: square"/>
   </g>
   <g id="patch_5">
    <path d="M 57.6 307.584 
L 414.72 307.584 
" style="fill: none; stroke: #000000; stroke-width: 0.8; stroke-linejoin: miter; stroke-linecap: square"/>
   </g>
   <g id="patch_6">
    <path d="M 57.6 41.472 
L 414.72 41.472 
" style="fill: none; stroke: #000000; stroke-width: 0.8; stroke-linejoin: miter; stroke-linecap: square"/>
   </g>
   <g id="text_15">
    <!-- Queue size (y-axis) between S1 and sensors that follow at a time (x-axis). -->
    <g transform="translate(14.282813 35.472) scale(0.12 -0.12)">
     <defs>
      <path id="DejaVuSans-51" d="M 2522 4238 
Q 1834 4238 1429 3725 
Q 1025 3213 1025 2328 
Q 1025 1447 1429 934 
Q 1834 422 2522 422 
Q 3209 422 3611 934 
Q 4013 1447 4013 2328 
Q 4013 3213 3611 3725 
Q 3209 4238 2522 4238 
z
M 3406 84 
L 4238 -825 
L 3475 -825 
L 2784 -78 
Q 2681 -84 2626 -87 
Q 2572 -91 2522 -91 
Q 1538 -91 948 567 
Q 359 1225 359 2328 
Q 359 3434 948 4092 
Q 1538 4750 2522 4750 
Q 3503 4750 4090 4092 
Q 4678 3434 4678 2328 
Q 4678 1516 4351 937 
Q 4025 359 3406 84 
z
" transform="scale(0.015625)"/>
      <path id="DejaVuSans-75" d="M 544 1381 
L 544 3500 
L 1119 3500 
L 1119 1403 
Q 1119 906 1312 657 
Q 1506 409 1894 409 
Q 2359 409 2629 706 
Q 2900 1003 2900 1516 
L 2900 3500 
L 3475 3500 
L 3475 0 
L 2900 0 
L 2900 538 
Q 2691 219 2414 64 
Q 2138 -91 1772 -91 
Q 1169 -91 856 284 
Q 544 659 544 1381 
z
M 1991 3584 
L 1991 3584 
z
" transform="scale(0.015625)"/>
      <path id="DejaVuSans-20" transform="scale(0.015625)"/>
      <path id="DejaVuSans-73" d="M 2834 3397 
L 2834 2853 
Q 2591 2978 2328 3040 
Q 2066 3103 1784 3103 
Q 1356 3103 1142 2972 
Q 928 2841 928 2578 
Q 928 2378 1081 2264 
Q 1234 2150 1697 2047 
L 1894 2003 
Q 2506 1872 2764 1633 
Q 3022 1394 3022 966 
Q 3022 478 2636 193 
Q 2250 -91 1575 -91 
Q 1294 -91 989 -36 
Q 684 19 347 128 
L 347 722 
Q 666 556 975 473 
Q 1284 391 1588 391 
Q 1994 391 2212 530 
Q 2431 669 2431 922 
Q 2431 1156 2273 1281 
Q 2116 1406 1581 1522 
L 1381 1569 
Q 847 1681 609 1914 
Q 372 2147 372 2553 
Q 372 3047 722 3315 
Q 1072 3584 1716 3584 
Q 2034 3584 2315 3537 
Q 2597 3491 2834 3397 
z
" transform="scale(0.015625)"/>
      <path id="DejaVuSans-69" d="M 603 3500 
L 1178 3500 
L 1178 0 
L 603 0 
L 603 3500 
z
M 603 4863 
L 1178 4863 
L 1178 4134 
L 603 4134 
L 603 4863 
z
" transform="scale(0.015625)"/>
      <path id="DejaVuSans-7a" d="M 353 3500 
L 3084 3500 
L 3084 2975 
L 922 459 
L 3084 459 
L 3084 0 
L 275 0 
L 275 525 
L 2438 3041 
L 353 3041 
L 353 3500 
z
" transform="scale(0.015625)"/>
      <path id="DejaVuSans-28" d="M 1984 4856 
Q 1566 4138 1362 3434 
Q 1159 2731 1159 2009 
Q 1159 1288 1364 580 
Q 1569 -128 1984 -844 
L 1484 -844 
Q 1016 -109 783 600 
Q 550 1309 550 2009 
Q 550 2706 781 3412 
Q 1013 4119 1484 4856 
L 1984 4856 
z
" transform="scale(0.015625)"/>
      <path id="DejaVuSans-79" d="M 2059 -325 
Q 1816 -950 1584 -1140 
Q 1353 -1331 966 -1331 
L 506 -1331 
L 506 -850 
L 844 -850 
Q 1081 -850 1212 -737 
Q 1344 -625 1503 -206 
L 1606 56 
L 191 3500 
L 800 3500 
L 1894 763 
L 2988 3500 
L 3597 3500 
L 2059 -325 
z
" transform="scale(0.015625)"/>
      <path id="DejaVuSans-2d" d="M 313 2009 
L 1997 2009 
L 1997 1497 
L 313 1497 
L 313 2009 
z
" transform="scale(0.015625)"/>
      <path id="DejaVuSans-61" d="M 2194 1759 
Q 1497 1759 1228 1600 
Q 959 1441 959 1056 
Q 959 750 1161 570 
Q 1363 391 1709 391 
Q 2188 391 2477 730 
Q 2766 1069 2766 1631 
L 2766 1759 
L 2194 1759 
z
M 3341 1997 
L 3341 0 
L 2766 0 
L 2766 531 
Q 2569 213 2275 61 
Q 1981 -91 1556 -91 
Q 1019 -91 701 211 
Q 384 513 384 1019 
Q 384 1609 779 1909 
Q 1175 2209 1959 2209 
L 2766 2209 
L 2766 2266 
Q 2766 2663 2505 2880 
Q 2244 3097 1772 3097 
Q 1472 3097 1187 3025 
Q 903 2953 641 2809 
L 641 3341 
Q 956 3463 1253 3523 
Q 1550 3584 1831 3584 
Q 2591 3584 2966 3190 
Q 3341 2797 3341 1997 
z
" transform="scale(0.015625)"/>
      <path id="DejaVuSans-78" d="M 3513 3500 
L 2247 1797 
L 3578 0 
L 2900 0 
L 1881 1375 
L 863 0 
L 184 0 
L 1544 1831 
L 300 3500 
L 978 3500 
L 1906 2253 
L 2834 3500 
L 3513 3500 
z
" transform="scale(0.015625)"/>
      <path id="DejaVuSans-29" d="M 513 4856 
L 1013 4856 
Q 1481 4119 1714 3412 
Q 1947 2706 1947 2009 
Q 1947 1309 1714 600 
Q 1481 -109 1013 -844 
L 513 -844 
Q 928 -128 1133 580 
Q 1338 1288 1338 2009 
Q 1338 2731 1133 3434 
Q 928 4138 513 4856 
z
" transform="scale(0.015625)"/>
      <path id="DejaVuSans-62" d="M 3116 1747 
Q 3116 2381 2855 2742 
Q 2594 3103 2138 3103 
Q 1681 3103 1420 2742 
Q 1159 2381 1159 1747 
Q 1159 1113 1420 752 
Q 1681 391 2138 391 
Q 2594 391 2855 752 
Q 3116 1113 3116 1747 
z
M 1159 2969 
Q 1341 3281 1617 3432 
Q 1894 3584 2278 3584 
Q 2916 3584 3314 3078 
Q 3713 2572 3713 1747 
Q 3713 922 3314 415 
Q 2916 -91 2278 -91 
Q 1894 -91 1617 61 
Q 1341 213 1159 525 
L 1159 0 
L 581 0 
L 581 4863 
L 1159 4863 
L 1159 2969 
z
" transform="scale(0.015625)"/>
      <path id="DejaVuSans-74" d="M 1172 4494 
L 1172 3500 
L 2356 3500 
L 2356 3053 
L 1172 3053 
L 1172 1153 
Q 1172 725 1289 603 
Q 1406 481 1766 481 
L 2356 481 
L 2356 0 
L 1766 0 
Q 1100 0 847 248 
Q 594 497 594 1153 
L 594 3053 
L 172 3053 
L 172 3500 
L 594 3500 
L 594 4494 
L 1172 4494 
z
" transform="scale(0.015625)"/>
      <path id="DejaVuSans-77" d="M 269 3500 
L 844 3500 
L 1563 769 
L 2278 3500 
L 2956 3500 
L 3675 769 
L 4391 3500 
L 4966 3500 
L 4050 0 
L 3372 0 
L 2619 2869 
L 1863 0 
L 1184 0 
L 269 3500 
z
" transform="scale(0.015625)"/>
      <path id="DejaVuSans-6e" d="M 3513 2113 
L 3513 0 
L 2938 0 
L 2938 2094 
Q 2938 2591 2744 2837 
Q 2550 3084 2163 3084 
Q 1697 3084 1428 2787 
Q 1159 2491 1159 1978 
L 1159 0 
L 581 0 
L 581 3500 
L 1159 3500 
L 1159 2956 
Q 1366 3272 1645 3428 
Q 1925 3584 2291 3584 
Q 2894 3584 3203 3211 
Q 3513 2838 3513 2113 
z
" transform="scale(0.015625)"/>
      <path id="DejaVuSans-53" d="M 3425 4513 
L 3425 3897 
Q 3066 4069 2747 4153 
Q 2428 4238 2131 4238 
Q 1616 4238 1336 4038 
Q 1056 3838 1056 3469 
Q 1056 3159 1242 3001 
Q 1428 2844 1947 2747 
L 2328 2669 
Q 3034 2534 3370 2195 
Q 3706 1856 3706 1288 
Q 3706 609 3251 259 
Q 2797 -91 1919 -91 
Q 1588 -91 1214 -16 
Q 841 59 441 206 
L 441 856 
Q 825 641 1194 531 
Q 1563 422 1919 422 
Q 2459 422 2753 634 
Q 3047 847 3047 1241 
Q 3047 1584 2836 1778 
Q 2625 1972 2144 2069 
L 1759 2144 
Q 1053 2284 737 2584 
Q 422 2884 422 3419 
Q 422 4038 858 4394 
Q 1294 4750 2059 4750 
Q 2388 4750 2728 4690 
Q 3069 4631 3425 4513 
z
" transform="scale(0.015625)"/>
      <path id="DejaVuSans-64" d="M 2906 2969 
L 2906 4863 
L 3481 4863 
L 3481 0 
L 2906 0 
L 2906 525 
Q 2725 213 2448 61 
Q 2172 -91 1784 -91 
Q 1150 -91 751 415 
Q 353 922 353 1747 
Q 353 2572 751 3078 
Q 1150 3584 1784 3584 
Q 2172 3584 2448 3432 
Q 2725 3281 2906 2969 
z
M 947 1747 
Q 947 1113 1208 752 
Q 1469 391 1925 391 
Q 2381 391 2643 752 
Q 2906 1113 2906 1747 
Q 2906 2381 2643 2742 
Q 2381 3103 1925 3103 
Q 1469 3103 1208 2742 
Q 947 2381 947 1747 
z
" transform="scale(0.015625)"/>
      <path id="DejaVuSans-6f" d="M 1959 3097 
Q 1497 3097 1228 2736 
Q 959 2375 959 1747 
Q 959 1119 1226 758 
Q 1494 397 1959 397 
Q 2419 397 2687 759 
Q 2956 1122 2956 1747 
Q 2956 2369 2687 2733 
Q 2419 3097 1959 3097 
z
M 1959 3584 
Q 2709 3584 3137 3096 
Q 3566 2609 3566 1747 
Q 3566 888 3137 398 
Q 2709 -91 1959 -91 
Q 1206 -91 779 398 
Q 353 888 353 1747 
Q 353 2609 779 3096 
Q 1206 3584 1959 3584 
z
" transform="scale(0.015625)"/>
      <path id="DejaVuSans-72" d="M 2631 2963 
Q 2534 3019 2420 3045 
Q 2306 3072 2169 3072 
Q 1681 3072 1420 2755 
Q 1159 2438 1159 1844 
L 1159 0 
L 581 0 
L 581 3500 
L 1159 3500 
L 1159 2956 
Q 1341 3275 1631 3429 
Q 1922 3584 2338 3584 
Q 2397 3584 2469 3576 
Q 2541 3569 2628 3553 
L 2631 2963 
z
" transform="scale(0.015625)"/>
      <path id="DejaVuSans-68" d="M 3513 2113 
L 3513 0 
L 2938 0 
L 2938 2094 
Q 2938 2591 2744 2837 
Q 2550 3084 2163 3084 
Q 1697 3084 1428 2787 
Q 1159 2491 1159 1978 
L 1159 0 
L 581 0 
L 581 4863 
L 1159 4863 
L 1159 2956 
Q 1366 3272 1645 3428 
Q 1925 3584 2291 3584 
Q 2894 3584 3203 3211 
Q 3513 2838 3513 2113 
z
" transform="scale(0.015625)"/>
      <path id="DejaVuSans-66" d="M 2375 4863 
L 2375 4384 
L 1825 4384 
Q 1516 4384 1395 4259 
Q 1275 4134 1275 3809 
L 1275 3500 
L 2222 3500 
L 2222 3053 
L 1275 3053 
L 1275 0 
L 697 0 
L 697 3053 
L 147 3053 
L 147 3500 
L 697 3500 
L 697 3744 
Q 697 4328 969 4595 
Q 1241 4863 1831 4863 
L 2375 4863 
z
" transform="scale(0.015625)"/>
      <path id="DejaVuSans-6c" d="M 603 4863 
L 1178 4863 
L 1178 0 
L 603 0 
L 603 4863 
z
" transform="scale(0.015625)"/>
      <path id="DejaVuSans-6d" d="M 3328 2828 
Q 3544 3216 3844 3400 
Q 4144 3584 4550 3584 
Q 5097 3584 5394 3201 
Q 5691 2819 5691 2113 
L 5691 0 
L 5113 0 
L 5113 2094 
Q 5113 2597 4934 2840 
Q 4756 3084 4391 3084 
Q 3944 3084 3684 2787 
Q 3425 2491 3425 1978 
L 3425 0 
L 2847 0 
L 2847 2094 
Q 2847 2600 2669 2842 
Q 2491 3084 2119 3084 
Q 1678 3084 1418 2786 
Q 1159 2488 1159 1978 
L 1159 0 
L 581 0 
L 581 3500 
L 1159 3500 
L 1159 2956 
Q 1356 3278 1631 3431 
Q 1906 3584 2284 3584 
Q 2666 3584 2933 3390 
Q 3200 3197 3328 2828 
z
" transform="scale(0.015625)"/>
     </defs>
     <use xlink:href="#DejaVuSans-51"/>
     <use xlink:href="#DejaVuSans-75" x="78.710938"/>
     <use xlink:href="#DejaVuSans-65" x="142.089844"/>
     <use xlink:href="#DejaVuSans-75" x="203.613281"/>
     <use xlink:href="#DejaVuSans-65" x="266.992188"/>
     <use xlink:href="#DejaVuSans-20" x="328.515625"/>
     <use xlink:href="#DejaVuSans-73" x="360.302734"/>
     <use xlink:href="#DejaVuSans-69" x="412.402344"/>
     <use xlink:href="#DejaVuSans-7a" x="440.185547"/>
     <use xlink:href="#DejaVuSans-65" x="492.675781"/>
     <use xlink:href="#DejaVuSans-20" x="554.199219"/>
     <use xlink:href="#DejaVuSans-28" x="585.986328"/>
     <use xlink:href="#DejaVuSans-79" x="625"/>
     <use xlink:href="#DejaVuSans-2d" x="682.429688"/>
     <use xlink:href="#DejaVuSans-61" x="718.513672"/>
     <use xlink:href="#DejaVuSans-78" x="779.792969"/>
     <use xlink:href="#DejaVuSans-69" x="838.972656"/>
     <use xlink:href="#DejaVuSans-73" x="866.755859"/>
     <use xlink:href="#DejaVuSans-29" x="918.855469"/>
     <use xlink:href="#DejaVuSans-20" x="957.869141"/>
     <use xlink:href="#DejaVuSans-62" x="989.65625"/>
     <use xlink:href="#DejaVuSans-65" x="1053.132812"/>
     <use xlink:href="#DejaVuSans-74" x="1114.65625"/>
     <use xlink:href="#DejaVuSans-77" x="1153.865234"/>
     <use xlink:href="#DejaVuSans-65" x="1235.652344"/>
     <use xlink:href="#DejaVuSans-65" x="1297.175781"/>
     <use xlink:href="#DejaVuSans-6e" x="1358.699219"/>
     <use xlink:href="#DejaVuSans-20" x="1422.078125"/>
     <use xlink:href="#DejaVuSans-53" x="1453.865234"/>
     <use xlink:href="#DejaVuSans-31" x="1517.341797"/>
     <use xlink:href="#DejaVuSans-20" x="1580.964844"/>
     <use xlink:href="#DejaVuSans-61" x="1612.751953"/>
     <use xlink:href="#DejaVuSans-6e" x="1674.03125"/>
     <use xlink:href="#DejaVuSans-64" x="1737.410156"/>
     <use xlink:href="#DejaVuSans-20" x="1800.886719"/>
     <use xlink:href="#DejaVuSans-73" x="1832.673828"/>
     <use xlink:href="#DejaVuSans-65" x="1884.773438"/>
     <use xlink:href="#DejaVuSans-6e" x="1946.296875"/>
     <use xlink:href="#DejaVuSans-73" x="2009.675781"/>
     <use xlink:href="#DejaVuSans-6f" x="2061.775391"/>
     <use xlink:href="#DejaVuSans-72" x="2122.957031"/>
     <use xlink:href="#DejaVuSans-73" x="2164.070312"/>
     <use xlink:href="#DejaVuSans-20" x="2216.169922"/>
     <use xlink:href="#DejaVuSans-74" x="2247.957031"/>
     <use xlink:href="#DejaVuSans-68" x="2287.166016"/>
     <use xlink:href="#DejaVuSans-61" x="2350.544922"/>
     <use xlink:href="#DejaVuSans-74" x="2411.824219"/>
     <use xlink:href="#DejaVuSans-20" x="2451.033203"/>
     <use xlink:href="#DejaVuSans-66" x="2482.820312"/>
     <use xlink:href="#DejaVuSans-6f" x="2518.025391"/>
     <use xlink:href="#DejaVuSans-6c" x="2579.207031"/>
     <use xlink:href="#DejaVuSans-6c" x="2606.990234"/>
     <use xlink:href="#DejaVuSans-6f" x="2634.773438"/>
     <use xlink:href="#DejaVuSans-77" x="2695.955078"/>
     <use xlink:href="#DejaVuSans-20" x="2777.742188"/>
     <use xlink:href="#DejaVuSans-61" x="2809.529297"/>
     <use xlink:href="#DejaVuSans-74" x="2870.808594"/>
     <use xlink:href="#DejaVuSans-20" x="2910.017578"/>
     <use xlink:href="#DejaVuSans-61" x="2941.804688"/>
     <use xlink:href="#DejaVuSans-20" x="3003.083984"/>
     <use xlink:href="#DejaVuSans-74" x="3034.871094"/>
     <use xlink:href="#DejaVuSans-69" x="3074.080078"/>
     <use xlink:href="#DejaVuSans-6d" x="3101.863281"/>
     <use xlink:href="#DejaVuSans-65" x="3199.275391"/>
     <use xlink:href="#DejaVuSans-20" x="3260.798828"/>
     <use xlink:href="#DejaVuSans-28" x="3292.585938"/>
     <use xlink:href="#DejaVuSans-78" x="3331.599609"/>
     <use xlink:href="#DejaVuSans-2d" x="3390.779297"/>
     <use xlink:href="#DejaVuSans-61" x="3426.863281"/>
     <use xlink:href="#DejaVuSans-78" x="3488.142578"/>
     <use xlink:href="#DejaVuSans-69" x="3547.322266"/>
     <use xlink:href="#DejaVuSans-73" x="3575.105469"/>
     <use xlink:href="#DejaVuSans-29" x="3627.205078"/>
     <use xlink:href="#DejaVuSans-2e" x="3666.21875"/>
    </g>
   </g>
  </g>
 </g>
 <defs>
  <clipPath id="p5a6c9705de">
   <rect x="57.6" y="41.472" width="357.12" height="266.112"/>
  </clipPath>
 </defs>
</svg>
