<?xml version="1.0" encoding="utf-8" standalone="no"?>
<!DOCTYPE svg PUBLIC "-//W3C//DTD SVG 1.1//EN"
  "http://www.w3.org/Graphics/SVG/1.1/DTD/svg11.dtd">
<svg xmlns:xlink="http://www.w3.org/1999/xlink" width="460.8pt" height="345.6pt" viewBox="0 0 460.8 345.6" xmlns="http://www.w3.org/2000/svg" version="1.1">
 <metadata>
  <rdf:RDF xmlns:dc="http://purl.org/dc/elements/1.1/" xmlns:cc="http://creativecommons.org/ns#" xmlns:rdf="http://www.w3.org/1999/02/22-rdf-syntax-ns#">
   <cc:Work>
    <dc:type rdf:resource="http://purl.org/dc/dcmitype/StillImage"/>
    <dc:date>2024-03-08T14:13:57.553766</dc:date>
    <dc:format>image/svg+xml</dc:format>
    <dc:creator>
     <cc:Agent>
      <dc:title>Matplotlib v3.8.2, https://matplotlib.org/</dc:title>
     </cc:Agent>
    </dc:creator>
   </cc:Work>
  </rdf:RDF>
 </metadata>
 <defs>
  <style type="text/css">*{stroke-linejoin: round; stroke-linecap: butt}</style>
 </defs>
 <g id="figure_1">
  <g id="patch_1">
   <path d="M 0 345.6 
L 460.8 345.6 
L 460.8 0 
L 0 0 
z
" style="fill: #ffffff"/>
  </g>
  <g id="axes_1">
   <g id="patch_2">
    <path d="M 57.6 307.584 
L 414.72 307.584 
L 414.72 41.472 
L 57.6 41.472 
z
" style="fill: #ffffff"/>
   </g>
   <g id="matplotlib.axis_1">
    <g id="xtick_1">
     <g id="line2d_1">
      <defs>
       <path id="mfa57a5ad1f" d="M 0 0 
L 0 3.5 
" style="stroke: #000000; stroke-width: 0.8"/>
      </defs>
      <g>
       <use xlink:href="#mfa57a5ad1f" x="73.542927" y="307.584" style="stroke: #000000; stroke-width: 0.8"/>
      </g>
     </g>
     <g id="text_1">
      <!-- 0.0 -->
      <g transform="translate(65.591364 322.182437) scale(0.1 -0.1)">
       <defs>
        <path id="DejaVuSans-30" d="M 2034 4250 
Q 1547 4250 1301 3770 
Q 1056 3291 1056 2328 
Q 1056 1369 1301 889 
Q 1547 409 2034 409 
Q 2525 409 2770 889 
Q 3016 1369 3016 2328 
Q 3016 3291 2770 3770 
Q 2525 4250 2034 4250 
z
M 2034 4750 
Q 2819 4750 3233 4129 
Q 3647 3509 3647 2328 
Q 3647 1150 3233 529 
Q 2819 -91 2034 -91 
Q 1250 -91 836 529 
Q 422 1150 422 2328 
Q 422 3509 836 4129 
Q 1250 4750 2034 4750 
z
" transform="scale(0.015625)"/>
        <path id="DejaVuSans-2e" d="M 684 794 
L 1344 794 
L 1344 0 
L 684 0 
L 684 794 
z
" transform="scale(0.015625)"/>
       </defs>
       <use xlink:href="#DejaVuSans-30"/>
       <use xlink:href="#DejaVuSans-2e" x="63.623047"/>
       <use xlink:href="#DejaVuSans-30" x="95.410156"/>
      </g>
     </g>
    </g>
    <g id="xtick_2">
     <g id="line2d_2">
      <g>
       <use xlink:href="#mfa57a5ad1f" x="119.252824" y="307.584" style="stroke: #000000; stroke-width: 0.8"/>
      </g>
     </g>
     <g id="text_2">
      <!-- 0.5 -->
      <g transform="translate(111.301261 322.182437) scale(0.1 -0.1)">
       <defs>
        <path id="DejaVuSans-35" d="M 691 4666 
L 3169 4666 
L 3169 4134 
L 1269 4134 
L 1269 2991 
Q 1406 3038 1543 3061 
Q 1681 3084 1819 3084 
Q 2600 3084 3056 2656 
Q 3513 2228 3513 1497 
Q 3513 744 3044 326 
Q 2575 -91 1722 -91 
Q 1428 -91 1123 -41 
Q 819 9 494 109 
L 494 744 
Q 775 591 1075 516 
Q 1375 441 1709 441 
Q 2250 441 2565 725 
Q 2881 1009 2881 1497 
Q 2881 1984 2565 2268 
Q 2250 2553 1709 2553 
Q 1456 2553 1204 2497 
Q 953 2441 691 2322 
L 691 4666 
z
" transform="scale(0.015625)"/>
       </defs>
       <use xlink:href="#DejaVuSans-30"/>
       <use xlink:href="#DejaVuSans-2e" x="63.623047"/>
       <use xlink:href="#DejaVuSans-35" x="95.410156"/>
      </g>
     </g>
    </g>
    <g id="xtick_3">
     <g id="line2d_3">
      <g>
       <use xlink:href="#mfa57a5ad1f" x="164.962721" y="307.584" style="stroke: #000000; stroke-width: 0.8"/>
      </g>
     </g>
     <g id="text_3">
      <!-- 1.0 -->
      <g transform="translate(157.011159 322.182437) scale(0.1 -0.1)">
       <defs>
        <path id="DejaVuSans-31" d="M 794 531 
L 1825 531 
L 1825 4091 
L 703 3866 
L 703 4441 
L 1819 4666 
L 2450 4666 
L 2450 531 
L 3481 531 
L 3481 0 
L 794 0 
L 794 531 
z
" transform="scale(0.015625)"/>
       </defs>
       <use xlink:href="#DejaVuSans-31"/>
       <use xlink:href="#DejaVuSans-2e" x="63.623047"/>
       <use xlink:href="#DejaVuSans-30" x="95.410156"/>
      </g>
     </g>
    </g>
    <g id="xtick_4">
     <g id="line2d_4">
      <g>
       <use xlink:href="#mfa57a5ad1f" x="210.672618" y="307.584" style="stroke: #000000; stroke-width: 0.8"/>
      </g>
     </g>
     <g id="text_4">
      <!-- 1.5 -->
      <g transform="translate(202.721056 322.182437) scale(0.1 -0.1)">
       <use xlink:href="#DejaVuSans-31"/>
       <use xlink:href="#DejaVuSans-2e" x="63.623047"/>
       <use xlink:href="#DejaVuSans-35" x="95.410156"/>
      </g>
     </g>
    </g>
    <g id="xtick_5">
     <g id="line2d_5">
      <g>
       <use xlink:href="#mfa57a5ad1f" x="256.382516" y="307.584" style="stroke: #000000; stroke-width: 0.8"/>
      </g>
     </g>
     <g id="text_5">
      <!-- 2.0 -->
      <g transform="translate(248.430953 322.182437) scale(0.1 -0.1)">
       <defs>
        <path id="DejaVuSans-32" d="M 1228 531 
L 3431 531 
L 3431 0 
L 469 0 
L 469 531 
Q 828 903 1448 1529 
Q 2069 2156 2228 2338 
Q 2531 2678 2651 2914 
Q 2772 3150 2772 3378 
Q 2772 3750 2511 3984 
Q 2250 4219 1831 4219 
Q 1534 4219 1204 4116 
Q 875 4013 500 3803 
L 500 4441 
Q 881 4594 1212 4672 
Q 1544 4750 1819 4750 
Q 2544 4750 2975 4387 
Q 3406 4025 3406 3419 
Q 3406 3131 3298 2873 
Q 3191 2616 2906 2266 
Q 2828 2175 2409 1742 
Q 1991 1309 1228 531 
z
" transform="scale(0.015625)"/>
       </defs>
       <use xlink:href="#DejaVuSans-32"/>
       <use xlink:href="#DejaVuSans-2e" x="63.623047"/>
       <use xlink:href="#DejaVuSans-30" x="95.410156"/>
      </g>
     </g>
    </g>
    <g id="xtick_6">
     <g id="line2d_6">
      <g>
       <use xlink:href="#mfa57a5ad1f" x="302.092413" y="307.584" style="stroke: #000000; stroke-width: 0.8"/>
      </g>
     </g>
     <g id="text_6">
      <!-- 2.5 -->
      <g transform="translate(294.14085 322.182437) scale(0.1 -0.1)">
       <use xlink:href="#DejaVuSans-32"/>
       <use xlink:href="#DejaVuSans-2e" x="63.623047"/>
       <use xlink:href="#DejaVuSans-35" x="95.410156"/>
      </g>
     </g>
    </g>
    <g id="xtick_7">
     <g id="line2d_7">
      <g>
       <use xlink:href="#mfa57a5ad1f" x="347.80231" y="307.584" style="stroke: #000000; stroke-width: 0.8"/>
      </g>
     </g>
     <g id="text_7">
      <!-- 3.0 -->
      <g transform="translate(339.850748 322.182437) scale(0.1 -0.1)">
       <defs>
        <path id="DejaVuSans-33" d="M 2597 2516 
Q 3050 2419 3304 2112 
Q 3559 1806 3559 1356 
Q 3559 666 3084 287 
Q 2609 -91 1734 -91 
Q 1441 -91 1130 -33 
Q 819 25 488 141 
L 488 750 
Q 750 597 1062 519 
Q 1375 441 1716 441 
Q 2309 441 2620 675 
Q 2931 909 2931 1356 
Q 2931 1769 2642 2001 
Q 2353 2234 1838 2234 
L 1294 2234 
L 1294 2753 
L 1863 2753 
Q 2328 2753 2575 2939 
Q 2822 3125 2822 3475 
Q 2822 3834 2567 4026 
Q 2313 4219 1838 4219 
Q 1578 4219 1281 4162 
Q 984 4106 628 3988 
L 628 4550 
Q 988 4650 1302 4700 
Q 1616 4750 1894 4750 
Q 2613 4750 3031 4423 
Q 3450 4097 3450 3541 
Q 3450 3153 3228 2886 
Q 3006 2619 2597 2516 
z
" transform="scale(0.015625)"/>
       </defs>
       <use xlink:href="#DejaVuSans-33"/>
       <use xlink:href="#DejaVuSans-2e" x="63.623047"/>
       <use xlink:href="#DejaVuSans-30" x="95.410156"/>
      </g>
     </g>
    </g>
    <g id="xtick_8">
     <g id="line2d_8">
      <g>
       <use xlink:href="#mfa57a5ad1f" x="393.512208" y="307.584" style="stroke: #000000; stroke-width: 0.8"/>
      </g>
     </g>
     <g id="text_8">
      <!-- 3.5 -->
      <g transform="translate(385.560645 322.182437) scale(0.1 -0.1)">
       <use xlink:href="#DejaVuSans-33"/>
       <use xlink:href="#DejaVuSans-2e" x="63.623047"/>
       <use xlink:href="#DejaVuSans-35" x="95.410156"/>
      </g>
     </g>
    </g>
    <g id="text_9">
     <!-- 1e6 -->
     <g transform="translate(395.841875 334.860562) scale(0.1 -0.1)">
      <defs>
       <path id="DejaVuSans-65" d="M 3597 1894 
L 3597 1613 
L 953 1613 
Q 991 1019 1311 708 
Q 1631 397 2203 397 
Q 2534 397 2845 478 
Q 3156 559 3463 722 
L 3463 178 
Q 3153 47 2828 -22 
Q 2503 -91 2169 -91 
Q 1331 -91 842 396 
Q 353 884 353 1716 
Q 353 2575 817 3079 
Q 1281 3584 2069 3584 
Q 2775 3584 3186 3129 
Q 3597 2675 3597 1894 
z
M 3022 2063 
Q 3016 2534 2758 2815 
Q 2500 3097 2075 3097 
Q 1594 3097 1305 2825 
Q 1016 2553 972 2059 
L 3022 2063 
z
" transform="scale(0.015625)"/>
       <path id="DejaVuSans-36" d="M 2113 2584 
Q 1688 2584 1439 2293 
Q 1191 2003 1191 1497 
Q 1191 994 1439 701 
Q 1688 409 2113 409 
Q 2538 409 2786 701 
Q 3034 994 3034 1497 
Q 3034 2003 2786 2293 
Q 2538 2584 2113 2584 
z
M 3366 4563 
L 3366 3988 
Q 3128 4100 2886 4159 
Q 2644 4219 2406 4219 
Q 1781 4219 1451 3797 
Q 1122 3375 1075 2522 
Q 1259 2794 1537 2939 
Q 1816 3084 2150 3084 
Q 2853 3084 3261 2657 
Q 3669 2231 3669 1497 
Q 3669 778 3244 343 
Q 2819 -91 2113 -91 
Q 1303 -91 875 529 
Q 447 1150 447 2328 
Q 447 3434 972 4092 
Q 1497 4750 2381 4750 
Q 2619 4750 2861 4703 
Q 3103 4656 3366 4563 
z
" transform="scale(0.015625)"/>
      </defs>
      <use xlink:href="#DejaVuSans-31"/>
      <use xlink:href="#DejaVuSans-65" x="63.623047"/>
      <use xlink:href="#DejaVuSans-36" x="125.146484"/>
     </g>
    </g>
   </g>
   <g id="matplotlib.axis_2">
    <g id="ytick_1">
     <g id="line2d_9">
      <defs>
       <path id="m6f9dba59d6" d="M 0 0 
L -3.5 0 
" style="stroke: #000000; stroke-width: 0.8"/>
      </defs>
      <g>
       <use xlink:href="#m6f9dba59d6" x="57.6" y="295.488" style="stroke: #000000; stroke-width: 0.8"/>
      </g>
     </g>
     <g id="text_10">
      <!-- 0 -->
      <g transform="translate(44.2375 299.287219) scale(0.1 -0.1)">
       <use xlink:href="#DejaVuSans-30"/>
      </g>
     </g>
    </g>
    <g id="ytick_2">
     <g id="line2d_10">
      <g>
       <use xlink:href="#m6f9dba59d6" x="57.6" y="237.888" style="stroke: #000000; stroke-width: 0.8"/>
      </g>
     </g>
     <g id="text_11">
      <!-- 5 -->
      <g transform="translate(44.2375 241.687219) scale(0.1 -0.1)">
       <use xlink:href="#DejaVuSans-35"/>
      </g>
     </g>
    </g>
    <g id="ytick_3">
     <g id="line2d_11">
      <g>
       <use xlink:href="#m6f9dba59d6" x="57.6" y="180.288" style="stroke: #000000; stroke-width: 0.8"/>
      </g>
     </g>
     <g id="text_12">
      <!-- 10 -->
      <g transform="translate(37.875 184.087219) scale(0.1 -0.1)">
       <use xlink:href="#DejaVuSans-31"/>
       <use xlink:href="#DejaVuSans-30" x="63.623047"/>
      </g>
     </g>
    </g>
    <g id="ytick_4">
     <g id="line2d_12">
      <g>
       <use xlink:href="#m6f9dba59d6" x="57.6" y="122.688" style="stroke: #000000; stroke-width: 0.8"/>
      </g>
     </g>
     <g id="text_13">
      <!-- 15 -->
      <g transform="translate(37.875 126.487219) scale(0.1 -0.1)">
       <use xlink:href="#DejaVuSans-31"/>
       <use xlink:href="#DejaVuSans-35" x="63.623047"/>
      </g>
     </g>
    </g>
    <g id="ytick_5">
     <g id="line2d_13">
      <g>
       <use xlink:href="#m6f9dba59d6" x="57.6" y="65.088" style="stroke: #000000; stroke-width: 0.8"/>
      </g>
     </g>
     <g id="text_14">
      <!-- 20 -->
      <g transform="translate(37.875 68.887219) scale(0.1 -0.1)">
       <use xlink:href="#DejaVuSans-32"/>
       <use xlink:href="#DejaVuSans-30" x="63.623047"/>
      </g>
     </g>
    </g>
   </g>
   <g id="line2d_14">
    <path d="M 73.832727 283.968 
L 74.053963 295.488 
L 74.151782 283.968 
L 74.373018 295.488 
L 74.469923 283.968 
L 74.691159 295.488 
L 74.788978 283.968 
L 75.010214 295.488 
L 75.114433 283.968 
L 75.335669 295.488 
L 75.433488 283.968 
L 75.654724 295.488 
L 75.750715 283.968 
L 75.97195 295.488 
L 76.068855 283.968 
L 76.290091 295.488 
L 76.393396 283.968 
L 76.614632 295.488 
L 76.716108 283.968 
L 76.937343 295.488 
L 77.036077 283.968 
L 77.257313 295.488 
L 77.35696 283.968 
L 77.578196 295.488 
L 77.679672 283.968 
L 77.900908 295.488 
L 78.003298 283.968 
L 78.224534 295.488 
L 78.327839 283.968 
L 78.54816 295.488 
L 78.642323 283.968 
L 78.863559 295.488 
L 78.965949 283.968 
L 84.519701 272.448 
L 84.739109 191.808 
L 84.740937 203.328 
L 84.991427 295.488 
L 85.048108 283.968 
L 85.269344 295.488 
L 85.359849 283.968 
L 85.581085 295.488 
L 85.679818 283.968 
L 85.901054 295.488 
L 85.996131 283.968 
L 86.216453 295.488 
L 86.317929 283.968 
L 86.539165 295.488 
L 86.636984 283.968 
L 86.85822 295.488 
L 86.956953 283.968 
L 87.177275 295.488 
L 87.280579 283.968 
L 87.501815 295.488 
L 87.595977 283.968 
L 87.817213 295.488 
L 87.915947 283.968 
L 88.136268 295.488 
L 88.228602 283.968 
L 88.449838 295.488 
L 88.546743 283.968 
L 88.767979 295.488 
L 88.871283 283.968 
L 89.092519 295.488 
L 89.185768 283.968 
L 89.407003 295.488 
L 89.501166 283.968 
L 89.722402 295.488 
L 89.825706 283.968 
L 90.046942 295.488 
L 90.149332 283.968 
L 90.370568 295.488 
L 90.473872 283.968 
L 90.695108 295.488 
L 90.785614 283.968 
L 91.00685 295.488 
L 91.112897 283.968 
L 91.334133 295.488 
L 91.431952 283.968 
L 91.652274 295.488 
L 91.759235 283.968 
L 91.979556 295.488 
L 92.077376 283.968 
L 92.297697 295.488 
L 92.392774 283.968 
L 92.61401 295.488 
L 92.708172 283.968 
L 92.928494 295.488 
L 93.026313 283.968 
L 93.247549 295.488 
L 93.345368 283.968 
L 93.566604 295.488 
L 93.659852 283.968 
L 93.881088 295.488 
L 93.978907 283.968 
L 94.199229 295.488 
L 94.301619 283.968 
L 94.522855 295.488 
L 94.624331 283.968 
L 94.845567 295.488 
L 94.941558 283.968 
L 95.162794 295.488 
L 95.259699 283.968 
L 95.480935 295.488 
L 95.578754 283.968 
L 95.79999 295.488 
L 95.901466 283.968 
L 96.122702 295.488 
L 96.218692 283.968 
L 96.439928 295.488 
L 96.541404 283.968 
L 96.761726 295.488 
L 96.86503 283.968 
L 97.086266 295.488 
L 97.179514 283.968 
L 97.40075 295.488 
L 97.496741 283.968 
L 97.717977 295.488 
L 97.815796 283.968 
L 98.037032 295.488 
L 98.128452 283.968 
L 98.349688 295.488 
L 98.454821 283.968 
L 98.675142 295.488 
L 98.766562 283.968 
L 98.987798 295.488 
L 99.093845 283.968 
L 99.315081 295.488 
L 99.420214 283.968 
L 99.641449 295.488 
L 99.745668 283.968 
L 99.966904 295.488 
L 100.071123 283.968 
L 100.292358 295.488 
L 100.389263 283.968 
L 100.609585 295.488 
L 100.709233 283.968 
L 100.930469 295.488 
L 101.033773 283.968 
L 101.255009 295.488 
L 101.355571 283.968 
L 101.575892 295.488 
L 101.673712 283.968 
L 101.894947 295.488 
L 101.988196 283.968 
L 102.209432 295.488 
L 102.300851 283.968 
L 102.522087 295.488 
L 102.621735 283.968 
L 102.842056 295.488 
L 102.939876 283.968 
L 103.161112 295.488 
L 103.260759 283.968 
L 103.481081 295.488 
L 103.579814 283.968 
L 103.80105 295.488 
L 103.901612 283.968 
L 104.122848 295.488 
L 104.221581 283.968 
L 104.442817 295.488 
L 104.544293 283.968 
L 104.765529 295.488 
L 104.864262 283.968 
L 105.085498 295.488 
L 105.177832 283.968 
L 105.399068 295.488 
L 105.500544 283.968 
L 105.72178 295.488 
L 105.821428 283.968 
L 106.042663 295.488 
L 106.139568 283.968 
L 106.360804 295.488 
L 106.45131 283.968 
L 106.672546 295.488 
L 106.774022 283.968 
L 106.994344 295.488 
L 107.08942 283.968 
L 107.310656 295.488 
L 107.409389 283.968 
L 107.630625 295.488 
L 107.732101 283.968 
L 107.953337 295.488 
L 108.051156 283.968 
L 108.272392 295.488 
L 108.373868 283.968 
L 108.59419 295.488 
L 108.690181 283.968 
L 108.911417 295.488 
L 109.005579 283.968 
L 109.226815 295.488 
L 109.320977 283.968 
L 109.542213 295.488 
L 109.640032 283.968 
L 109.861268 295.488 
L 109.957259 283.968 
L 110.177581 295.488 
L 110.276314 283.968 
L 110.49755 295.488 
L 110.598112 283.968 
L 110.819348 295.488 
L 112.374398 283.968 
L 112.595634 295.488 
L 112.603862 283.968 
L 112.824184 295.488 
L 112.826012 283.968 
L 113.046334 295.488 
L 113.052733 283.968 
L 113.273055 295.488 
L 113.279454 283.968 
L 113.499776 295.488 
L 113.508918 283.968 
L 113.730154 295.488 
L 113.739296 283.968 
L 113.960532 295.488 
L 113.966017 283.968 
L 114.187253 295.488 
L 114.196395 283.968 
L 114.417631 295.488 
L 114.423116 283.968 
L 114.643438 295.488 
L 114.650751 283.968 
L 114.871987 295.488 
L 114.881129 283.968 
L 115.102365 295.488 
L 115.109679 283.968 
L 115.330915 295.488 
L 115.343713 283.968 
L 115.564949 295.488 
L 115.573177 283.968 
L 115.793499 295.488 
L 115.801727 283.968 
L 116.022962 295.488 
L 116.029362 283.968 
L 116.250598 295.488 
L 116.25334 283.968 
L 116.474576 295.488 
L 116.484632 283.968 
L 116.705868 295.488 
L 116.710439 283.968 
L 116.930761 295.488 
L 116.945388 283.968 
L 117.166624 295.488 
L 117.173023 283.968 
L 117.394259 295.488 
L 117.401573 283.968 
L 117.622809 295.488 
L 117.631037 283.968 
L 117.852273 295.488 
L 117.856844 283.968 
L 118.078079 295.488 
L 118.087221 283.968 
L 118.308457 295.488 
L 118.319428 283.968 
L 118.539749 295.488 
L 118.548891 283.968 
L 118.769213 295.488 
L 118.775612 283.968 
L 118.996848 295.488 
L 119.001419 283.968 
L 119.222655 295.488 
L 119.226312 283.968 
L 119.447548 295.488 
L 119.455776 283.968 
L 119.676097 295.488 
L 119.687068 283.968 
L 119.908304 295.488 
L 119.913789 283.968 
L 120.135025 295.488 
L 120.143253 283.968 
L 120.376373 272.448 
L 120.578411 283.968 
L 120.604008 272.448 
L 123.812843 111.168 
L 128.399374 99.648 
L 128.515477 111.168 
L 128.616953 99.648 
L 128.62061 111.168 
L 128.857387 283.968 
L 129.043884 295.488 
L 129.045712 283.968 
L 129.266034 295.488 
L 129.279747 283.968 
L 129.500983 295.488 
L 129.508296 283.968 
L 129.729532 295.488 
L 129.743245 283.968 
L 129.963567 295.488 
L 129.975452 283.968 
L 130.196687 295.488 
L 130.207658 283.968 
L 130.428894 295.488 
L 130.433465 283.968 
L 130.654701 295.488 
L 130.659272 283.968 
L 130.880507 295.488 
L 130.887821 283.968 
L 131.109057 295.488 
L 131.1118 283.968 
L 131.333035 295.488 
L 131.339435 283.968 
L 131.560671 295.488 
L 131.57347 283.968 
L 131.794705 295.488 
L 131.800191 283.968 
L 132.021427 295.488 
L 132.029654 283.968 
L 132.25089 295.488 
L 132.258204 283.968 
L 132.47944 295.488 
L 132.487667 283.968 
L 132.708903 295.488 
L 132.715303 283.968 
L 132.936539 295.488 
L 132.945681 283.968 
L 133.166917 295.488 
L 133.167831 283.968 
L 133.389067 295.488 
L 133.397294 283.968 
L 133.617616 295.488 
L 133.626758 283.968 
L 133.84708 295.488 
L 133.85805 283.968 
L 134.079286 295.488 
L 134.091171 283.968 
L 134.312407 295.488 
L 134.322463 283.968 
L 134.543699 295.488 
L 134.546441 283.968 
L 134.767677 295.488 
L 134.776819 283.968 
L 134.998055 295.488 
L 135.010854 283.968 
L 135.231176 295.488 
L 135.240317 283.968 
L 135.461553 295.488 
L 135.47161 283.968 
L 135.692845 295.488 
L 135.696502 283.968 
L 135.917738 295.488 
L 135.929623 283.968 
L 136.150859 295.488 
L 136.156344 283.968 
L 136.37758 295.488 
L 136.386722 283.968 
L 136.607043 295.488 
L 136.613443 283.968 
L 136.843821 272.448 
L 137.046773 283.968 
L 137.076027 272.448 
L 140.271149 111.168 
L 140.709964 99.648 
L 144.860422 111.168 
L 144.972869 99.648 
L 145.099028 122.688 
L 145.099942 111.168 
L 145.194105 191.808 
L 145.321178 283.968 
L 145.529615 295.488 
L 145.533272 283.968 
L 145.754508 295.488 
L 145.755422 283.968 
L 145.976658 295.488 
L 145.983058 283.968 
L 146.203379 295.488 
L 146.207036 283.968 
L 146.428272 295.488 
L 146.434671 283.968 
L 146.655907 295.488 
L 146.666878 283.968 
L 146.888114 295.488 
L 146.894513 283.968 
L 147.115749 295.488 
L 147.117577 283.968 
L 147.338813 295.488 
L 147.341556 283.968 
L 147.562792 295.488 
L 147.571019 283.968 
L 147.792255 295.488 
L 147.799569 283.968 
L 148.020805 295.488 
L 148.025376 283.968 
L 148.246612 295.488 
L 148.253011 283.968 
L 148.474247 295.488 
L 148.480646 283.968 
L 148.701882 295.488 
L 148.708282 283.968 
L 148.929518 295.488 
L 148.935003 283.968 
L 149.156239 295.488 
L 149.163552 283.968 
L 149.384788 295.488 
L 149.388445 283.968 
L 149.609681 295.488 
L 149.621565 283.968 
L 149.842801 295.488 
L 149.853772 283.968 
L 150.075008 295.488 
L 150.081407 283.968 
L 150.302643 295.488 
L 150.309042 283.968 
L 150.529364 295.488 
L 150.538506 283.968 
L 150.759742 295.488 
L 150.771626 283.968 
L 150.992862 295.488 
L 150.999262 283.968 
L 151.220498 295.488 
L 151.228725 283.968 
L 151.449961 295.488 
L 151.460017 283.968 
L 151.681253 295.488 
L 151.690395 283.968 
L 151.911631 295.488 
L 151.914374 283.968 
L 152.134696 295.488 
L 152.144752 283.968 
L 152.365073 295.488 
L 152.376044 283.968 
L 152.59728 295.488 
L 152.604593 283.968 
L 152.825829 295.488 
L 152.833143 283.968 
L 153.054379 295.488 
L 153.059864 283.968 
L 153.2811 295.488 
L 153.287499 283.968 
L 155.786916 157.248 
L 155.871023 203.328 
L 156.008152 295.488 
L 156.015466 283.968 
L 156.235788 295.488 
L 156.244929 283.968 
L 156.466165 295.488 
L 156.474393 283.968 
L 156.695629 295.488 
L 156.702943 283.968 
L 156.923264 295.488 
L 156.926007 283.968 
L 157.147243 295.488 
L 157.148157 283.968 
L 157.369393 295.488 
L 157.378535 283.968 
L 157.599771 295.488 
L 157.609827 283.968 
L 157.831063 295.488 
L 157.841119 283.968 
L 158.062355 295.488 
L 158.069669 283.968 
L 158.290904 295.488 
L 158.301875 283.968 
L 158.523111 295.488 
L 158.532253 283.968 
L 158.753489 295.488 
L 158.758974 283.968 
L 158.98021 295.488 
L 158.989352 283.968 
L 159.209673 295.488 
L 159.218815 283.968 
L 159.440051 295.488 
L 159.448279 283.968 
L 159.669515 295.488 
L 159.674086 283.968 
L 159.895322 295.488 
L 159.905378 283.968 
L 160.126614 295.488 
L 160.131185 283.968 
L 160.352421 295.488 
L 160.360649 283.968 
L 160.581885 295.488 
L 160.593769 283.968 
L 160.815005 295.488 
L 160.822319 283.968 
L 161.04264 295.488 
L 161.052696 283.968 
L 161.273932 295.488 
L 161.283989 283.968 
L 161.505224 295.488 
L 161.511624 283.968 
L 161.73286 295.488 
L 161.741088 283.968 
L 161.961409 295.488 
L 161.97238 283.968 
L 162.193616 295.488 
L 162.204586 283.968 
L 162.425822 295.488 
L 162.431307 283.968 
L 162.652543 295.488 
L 162.665342 283.968 
L 162.885663 295.488 
L 162.898462 283.968 
L 163.119698 295.488 
L 163.123355 283.968 
L 163.344591 295.488 
L 163.35099 283.968 
L 163.572226 295.488 
L 163.578625 283.968 
L 163.799861 295.488 
L 163.809003 283.968 
L 164.029325 295.488 
L 164.036639 283.968 
L 164.257874 295.488 
L 164.267016 283.968 
L 167.707143 111.168 
L 168.146873 99.648 
L 172.280876 111.168 
L 172.288189 99.648 
L 177.770634 111.168 
L 177.883081 99.648 
L 178.008326 122.688 
L 178.011068 111.168 
L 178.089689 180.288 
L 178.232304 283.968 
L 178.411487 295.488 
L 178.419715 283.968 
L 178.640951 295.488 
L 178.651921 283.968 
L 178.873157 295.488 
L 178.878642 283.968 
L 179.099878 295.488 
L 179.112677 283.968 
L 179.332999 295.488 
L 179.340312 283.968 
L 179.561548 295.488 
L 179.568862 283.968 
L 179.790098 295.488 
L 179.801982 283.968 
L 180.023218 295.488 
L 180.031446 283.968 
L 180.252682 295.488 
L 180.259081 283.968 
L 180.480317 295.488 
L 180.486716 283.968 
L 180.707952 295.488 
L 180.714352 283.968 
L 180.934673 295.488 
L 180.943815 283.968 
L 181.164137 295.488 
L 181.172365 283.968 
L 181.392687 295.488 
L 181.400914 283.968 
L 181.621236 295.488 
L 181.629464 283.968 
L 181.8507 295.488 
L 181.853442 283.968 
L 182.073764 295.488 
L 182.082906 283.968 
L 182.303228 295.488 
L 182.30597 283.968 
L 182.527206 295.488 
L 182.538177 283.968 
L 182.758498 295.488 
L 182.764898 283.968 
L 182.985219 295.488 
L 182.997104 283.968 
L 183.21834 295.488 
L 183.226568 283.968 
L 183.447804 295.488 
L 183.456946 283.968 
L 183.678181 295.488 
L 183.685495 283.968 
L 183.906731 295.488 
L 183.914959 283.968 
L 184.136195 295.488 
L 184.145337 283.968 
L 184.365658 295.488 
L 184.375714 283.968 
L 184.59695 295.488 
L 184.607007 283.968 
L 184.827328 295.488 
L 184.840127 283.968 
L 185.061363 295.488 
L 186.050525 283.968 
L 186.271761 295.488 
L 186.37598 283.968 
L 186.596301 295.488 
L 186.692292 283.968 
L 186.913528 295.488 
L 187.015918 283.968 
L 187.23624 295.488 
L 187.336802 283.968 
L 187.558038 295.488 
L 187.654028 283.968 
L 187.87435 295.488 
L 187.977654 283.968 
L 188.19889 295.488 
L 188.300366 283.968 
L 188.521602 295.488 
L 188.617593 283.968 
L 188.837915 295.488 
L 188.932077 283.968 
L 189.153313 295.488 
L 189.252961 283.968 
L 189.473282 295.488 
L 189.576587 283.968 
L 189.797822 295.488 
L 189.889242 283.968 
L 190.109564 295.488 
L 190.204641 283.968 
L 190.425876 295.488 
L 190.523696 283.968 
L 190.744932 295.488 
L 190.854635 283.968 
L 191.075871 295.488 
L 191.168205 283.968 
L 191.389441 295.488 
L 191.486346 283.968 
L 191.707582 295.488 
L 191.803573 283.968 
L 192.023894 295.488 
L 192.12537 283.968 
L 192.346606 295.488 
L 192.438026 283.968 
L 192.658348 295.488 
L 192.757995 283.968 
L 192.978317 295.488 
L 193.077051 283.968 
L 193.297372 295.488 
L 193.393363 283.968 
L 193.613685 295.488 
L 193.713332 283.968 
L 193.934568 295.488 
L 194.028731 283.968 
L 194.249966 295.488 
L 194.347786 283.968 
L 194.568107 295.488 
L 194.671412 283.968 
L 194.892648 295.488 
L 194.991381 283.968 
L 195.212617 295.488 
L 195.315007 283.968 
L 195.536243 295.488 
L 195.636805 283.968 
L 195.858041 295.488 
L 195.951289 283.968 
L 196.172525 295.488 
L 196.262116 283.968 
L 198.484531 203.328 
L 199.708642 191.808 
L 199.719613 203.328 
L 210.68816 191.808 
L 210.80792 203.328 
L 210.905739 191.808 
L 210.908481 203.328 
L 211.158972 295.488 
L 211.29153 283.968 
L 211.512766 295.488 
L 211.606929 283.968 
L 211.828165 295.488 
L 211.920499 283.968 
L 212.141734 295.488 
L 212.248696 283.968 
L 212.469017 295.488 
L 212.565922 283.968 
L 212.787158 295.488 
L 212.889548 283.968 
L 213.110784 295.488 
L 213.209518 283.968 
L 213.430754 295.488 
L 213.534972 283.968 
L 213.755294 295.488 
L 213.853113 283.968 
L 214.074349 295.488 
L 214.176739 283.968 
L 214.397975 295.488 
L 214.495794 283.968 
L 214.71703 295.488 
L 214.815763 283.968 
L 215.036999 295.488 
L 215.135733 283.968 
L 215.356969 295.488 
L 215.45753 283.968 
L 215.678766 295.488 
L 215.784813 283.968 
L 216.005135 295.488 
L 216.106611 283.968 
L 216.327847 295.488 
L 216.418352 283.968 
L 216.639588 295.488 
L 216.748378 283.968 
L 216.969614 295.488 
L 217.073832 283.968 
L 217.295068 295.488 
L 217.391059 283.968 
L 217.612295 295.488 
L 217.7092 283.968 
L 217.930436 295.488 
L 218.029169 283.968 
L 218.250405 295.488 
L 218.355538 283.968 
L 218.576774 295.488 
L 218.674593 283.968 
L 218.895829 295.488 
L 218.999133 283.968 
L 219.219455 295.488 
L 219.326416 283.968 
L 219.547652 295.488 
L 219.641814 283.968 
L 219.86305 295.488 
L 219.95447 283.968 
L 220.175706 295.488 
L 220.269868 283.968 
L 220.491104 295.488 
L 220.593494 283.968 
L 220.81473 295.488 
L 220.921692 283.968 
L 221.142927 295.488 
L 221.233433 283.968 
L 221.454669 295.488 
L 221.547917 283.968 
L 221.769153 295.488 
L 221.865144 283.968 
L 222.08638 295.488 
L 222.183285 283.968 
L 222.403606 295.488 
L 222.506911 283.968 
L 222.728147 295.488 
L 222.825052 283.968 
L 223.046288 295.488 
L 223.145935 283.968 
L 223.366257 295.488 
L 223.46499 283.968 
L 223.686226 295.488 
L 223.785874 283.968 
L 224.006195 295.488 
L 224.099444 283.968 
L 224.32068 295.488 
L 224.415756 283.968 
L 224.636078 295.488 
L 224.737554 283.968 
L 224.95879 295.488 
L 225.052952 283.968 
L 225.274188 295.488 
L 225.375664 283.968 
L 225.5969 295.488 
L 225.705689 283.968 
L 225.926925 295.488 
L 226.026573 283.968 
L 226.247809 295.488 
L 226.339229 283.968 
L 226.560464 295.488 
L 226.663769 283.968 
L 226.884091 295.488 
L 226.985567 283.968 
L 227.206802 295.488 
L 227.305536 283.968 
L 227.526772 295.488 
L 227.632819 283.968 
L 227.854055 295.488 
L 227.945474 283.968 
L 228.16671 295.488 
L 228.270015 283.968 
L 228.491251 295.488 
L 228.586327 283.968 
L 228.806649 295.488 
L 228.906296 283.968 
L 229.127532 295.488 
L 229.219866 283.968 
L 229.441102 295.488 
L 230.568308 283.968 
L 230.749319 272.448 
L 230.789544 283.968 
L 230.929416 272.448 
L 230.970555 283.968 
L 231.109513 272.448 
L 231.149738 283.968 
L 231.294181 272.448 
L 231.330749 283.968 
L 231.479764 272.448 
L 231.515417 283.968 
L 231.665346 272.448 
L 231.701 283.968 
L 231.851842 272.448 
L 231.886582 283.968 
L 232.031025 272.448 
L 232.072164 283.968 
L 232.214779 272.448 
L 232.252261 283.968 
L 232.399447 272.448 
L 232.4351 283.968 
L 232.585029 272.448 
L 232.620683 283.968 
L 232.76604 272.448 
L 232.806265 283.968 
L 232.946137 272.448 
L 232.987276 283.968 
L 233.124406 272.448 
L 233.166459 283.968 
L 233.305417 272.448 
L 233.345642 283.968 
L 233.486428 272.448 
L 233.526653 283.968 
L 233.666525 272.448 
L 233.70675 283.968 
L 233.84845 272.448 
L 233.886847 283.968 
L 234.033118 272.448 
L 234.068772 283.968 
L 234.219615 272.448 
L 234.25344 283.968 
L 234.404283 272.448 
L 234.440851 283.968 
L 234.588951 272.448 
L 234.624605 283.968 
L 234.770876 272.448 
L 234.809273 283.968 
L 234.956458 272.448 
L 234.992112 283.968 
L 235.133813 272.448 
L 235.177694 283.968 
L 235.317567 272.448 
L 235.355049 283.968 
L 235.494921 272.448 
L 235.537888 283.968 
L 235.678675 272.448 
L 235.716157 283.968 
L 235.862429 272.448 
L 235.898996 283.968 
L 236.041611 272.448 
L 236.083664 283.968 
L 236.224451 272.448 
L 236.262847 283.968 
L 236.408205 272.448 
L 236.445687 283.968 
L 236.595615 272.448 
L 236.629441 283.968 
L 236.777541 272.448 
L 236.815937 283.968 
L 236.962209 272.448 
L 236.998777 283.968 
L 237.145962 272.448 
L 237.183445 283.968 
L 237.326059 272.448 
L 237.366284 283.968 
L 237.505242 272.448 
L 237.547295 283.968 
L 237.690824 272.448 
L 237.726478 283.968 
L 237.879149 272.448 
L 237.91206 283.968 
L 238.065646 272.448 
L 238.100385 283.968 
L 238.247571 272.448 
L 238.285967 283.968 
L 238.429496 272.448 
L 238.468807 283.968 
L 238.612336 272.448 
L 238.649818 283.968 
L 238.794261 272.448 
L 238.833572 283.968 
L 238.980758 272.448 
L 239.014583 283.968 
L 239.168168 272.448 
L 239.201994 283.968 
L 239.351922 272.448 
L 239.389404 283.968 
L 239.537504 272.448 
L 239.572244 283.968 
L 239.71943 272.448 
L 239.75874 283.968 
L 239.904098 272.448 
L 239.940666 283.968 
L 240.091508 272.448 
L 240.125334 283.968 
L 240.271605 272.448 
L 240.31183 283.968 
L 240.458102 272.448 
L 240.492841 283.968 
L 240.638199 272.448 
L 240.678423 283.968 
L 240.823781 272.448 
L 240.859435 283.968 
L 241.002964 272.448 
L 241.045017 283.968 
L 241.190374 272.448 
L 241.223285 283.968 
L 241.374128 272.448 
L 241.410696 283.968 
L 241.556968 272.448 
L 241.595364 283.968 
L 241.74255 272.448 
L 241.778203 283.968 
L 241.927218 272.448 
L 241.963786 283.968 
L 242.107315 272.448 
L 242.148454 283.968 
L 242.293811 272.448 
L 242.328551 283.968 
L 242.476651 272.448 
L 242.514133 283.968 
L 242.658576 272.448 
L 242.696972 283.968 
L 242.843244 272.448 
L 242.879812 283.968 
L 243.022427 272.448 
L 243.06448 283.968 
L 243.208009 272.448 
L 243.243663 283.968 
L 243.392677 272.448 
L 243.429245 283.968 
L 243.573688 272.448 
L 243.612999 283.968 
L 243.754699 272.448 
L 243.794924 283.968 
L 243.938453 272.448 
L 243.975935 283.968 
L 244.119464 272.448 
L 244.159689 283.968 
L 244.302304 272.448 
L 244.3407 283.968 
L 244.484229 272.448 
L 244.52354 283.968 
L 244.666155 272.448 
L 244.705465 283.968 
L 244.846252 272.448 
L 244.887391 283.968 
L 245.032748 272.448 
L 245.067488 283.968 
L 245.215588 272.448 
L 245.253984 283.968 
L 245.403913 272.448 
L 245.436824 283.968 
L 245.589495 272.448 
L 245.624234 283.968 
L 245.774163 272.448 
L 245.810731 283.968 
L 245.957002 272.448 
L 245.995399 283.968 
L 246.138928 272.448 
L 246.178238 283.968 
L 246.323596 272.448 
L 246.359249 283.968 
L 246.507349 272.448 
L 246.544832 283.968 
L 246.689275 272.448 
L 246.727671 283.968 
L 246.875771 272.448 
L 246.910511 283.968 
L 247.058611 272.448 
L 247.097007 283.968 
L 247.244193 272.448 
L 247.279847 283.968 
L 247.426118 272.448 
L 247.465429 283.968 
L 247.614443 272.448 
L 247.647354 283.968 
L 247.796369 272.448 
L 247.835679 283.968 
L 247.975551 272.448 
L 248.017604 283.968 
L 248.156563 272.448 
L 248.196787 283.968 
L 248.33666 272.448 
L 248.377798 283.968 
L 248.523156 272.448 
L 248.557895 283.968 
L 248.708738 272.448 
L 248.744392 283.968 
L 248.887007 272.448 
L 248.929974 283.968 
L 249.067104 272.448 
L 249.108243 283.968 
L 249.249029 272.448 
L 249.28834 283.968 
L 249.431869 272.448 
L 249.470265 283.968 
L 249.613794 272.448 
L 249.65219 283.968 
L 249.792977 272.448 
L 249.834116 283.968 
L 249.974902 272.448 
L 250.014213 283.968 
L 250.160484 272.448 
L 250.196138 283.968 
L 250.340581 272.448 
L 250.380806 283.968 
L 250.524335 272.448 
L 250.561817 283.968 
L 250.705346 272.448 
L 250.745571 283.968 
L 250.883615 272.448 
L 250.925668 283.968 
L 251.063712 272.448 
L 251.103937 283.968 
L 251.243809 272.448 
L 251.284948 283.968 
L 251.430305 272.448 
L 251.465045 283.968 
L 251.613145 272.448 
L 251.651541 283.968 
L 251.795985 272.448 
L 251.834381 283.968 
L 251.978824 272.448 
L 252.01722 283.968 
L 252.157093 272.448 
L 252.20006 283.968 
L 252.340847 272.448 
L 252.378329 283.968 
L 252.523686 272.448 
L 252.562082 283.968 
L 252.701955 272.448 
L 252.744008 283.968 
L 252.88388 272.448 
L 252.923191 283.968 
L 253.063063 272.448 
L 253.105116 283.968 
L 253.246817 272.448 
L 253.284299 283.968 
L 253.428742 272.448 
L 253.468053 283.968 
L 253.617067 272.448 
L 253.649978 283.968 
L 253.798992 272.448 
L 253.837389 283.968 
L 253.985489 272.448 
L 254.020228 283.968 
L 254.164671 272.448 
L 254.206725 283.968 
L 254.346597 272.448 
L 254.385907 283.968 
L 254.530351 272.448 
L 254.88963 260.928 
L 260.048449 249.408 
L 260.052106 260.928 
L 260.125242 180.288 
L 260.266943 53.568 
L 260.302596 88.128 
L 260.50372 283.968 
L 260.57777 272.448 
L 260.614338 283.968 
L 260.76061 272.448 
L 260.798092 283.968 
L 260.947106 272.448 
L 260.981846 283.968 
L 261.134517 272.448 
L 261.168342 283.968 
L 261.316442 272.448 
L 261.355752 283.968 
L 261.494711 272.448 
L 261.536764 283.968 
L 261.676636 272.448 
L 261.715946 283.968 
L 261.859476 272.448 
L 261.897872 283.968 
L 262.041401 272.448 
L 262.080711 283.968 
L 262.225155 272.448 
L 262.262637 283.968 
L 262.409823 272.448 
L 262.446391 283.968 
L 262.592662 272.448 
L 262.631059 283.968 
L 262.775502 272.448 
L 262.813898 283.968 
L 262.961998 272.448 
L 262.996738 283.968 
L 263.146666 272.448 
L 263.183234 283.968 
L 263.326763 272.448 
L 263.366988 283.968 
L 263.508689 272.448 
L 263.547999 283.968 
L 263.692442 272.448 
L 263.729925 283.968 
L 263.874368 272.448 
L 263.913678 283.968 
L 264.055379 272.448 
L 264.095604 283.968 
L 264.240047 272.448 
L 264.276615 283.968 
L 264.422887 272.448 
L 264.461283 283.968 
L 264.602069 272.448 
L 264.643208 283.968 
L 264.780338 272.448 
L 264.823305 283.968 
L 264.964092 272.448 
L 265.001574 283.968 
L 265.145103 272.448 
L 265.185328 283.968 
L 265.332514 272.448 
L 265.365425 283.968 
L 265.514439 272.448 
L 265.867319 260.928 
L 271.018825 249.408 
L 271.238232 53.568 
L 271.272058 88.128 
L 271.584713 283.968 
L 271.732813 272.448 
L 271.766639 283.968 
L 271.915653 272.448 
L 271.954049 283.968 
L 272.100321 272.448 
L 272.136889 283.968 
L 272.279504 272.448 
L 272.321557 283.968 
L 272.460515 272.448 
L 272.499825 283.968 
L 272.64244 272.448 
L 272.681751 283.968 
L 272.826194 272.448 
L 272.862762 283.968 
L 273.013605 272.448 
L 273.04743 283.968 
L 273.19553 272.448 
L 273.234841 283.968 
L 273.382941 272.448 
L 273.416766 283.968 
L 273.566694 272.448 
L 273.604177 283.968 
L 273.751362 272.448 
L 273.78793 283.968 
L 273.939687 272.448 
L 273.972598 283.968 
L 274.120698 272.448 
L 274.160009 283.968 
L 274.304452 272.448 
L 274.341934 283.968 
L 274.483635 272.448 
L 274.525688 283.968 
L 274.666475 272.448 
L 274.703957 283.968 
L 274.845657 272.448 
L 274.88771 283.968 
L 275.028497 272.448 
L 275.066893 283.968 
L 275.214079 272.448 
L 275.248819 283.968 
L 275.396919 272.448 
L 275.434401 283.968 
L 275.57793 272.448 
L 275.61724 283.968 
L 275.762598 272.448 
L 275.799166 283.968 
L 275.944523 272.448 
L 275.98292 283.968 
L 276.130105 272.448 
L 276.164845 283.968 
L 276.312945 272.448 
L 276.351341 283.968 
L 276.499441 272.448 
L 276.534181 283.968 
L 276.681367 272.448 
L 276.720677 283.968 
L 276.866035 272.448 
L 276.902603 283.968 
L 277.043389 272.448 
L 277.086357 283.968 
L 277.221658 272.448 
L 277.264625 283.968 
L 277.404497 272.448 
L 277.442894 283.968 
L 277.585509 272.448 
L 277.625733 283.968 
L 277.772005 272.448 
L 277.806745 283.968 
L 277.95393 272.448 
L 277.993241 283.968 
L 278.137684 272.448 
L 278.174252 283.968 
L 278.325095 272.448 
L 278.358006 283.968 
L 278.509763 272.448 
L 278.546331 283.968 
L 278.691688 272.448 
L 278.730999 283.968 
L 278.876356 272.448 
L 278.912924 283.968 
L 279.06011 272.448 
L 279.097592 283.968 
L 279.242949 272.448 
L 279.281346 283.968 
L 279.788726 249.408 
L 283.052412 53.568 
L 287.610603 65.088 
L 287.724878 53.568 
L 287.846466 76.608 
L 287.849209 65.088 
L 287.935144 157.248 
L 288.070445 283.968 
L 288.207575 272.448 
L 288.249628 283.968 
L 288.391328 272.448 
L 288.42881 283.968 
L 288.575996 272.448 
L 288.612564 283.968 
L 288.756093 272.448 
L 288.797232 283.968 
L 288.944418 272.448 
L 288.977329 283.968 
L 289.126343 272.448 
L 289.165654 283.968 
L 289.308269 272.448 
L 289.347579 283.968 
L 289.48928 272.448 
L 289.528591 283.968 
L 289.673034 272.448 
L 289.710516 283.968 
L 289.858616 272.448 
L 289.89427 283.968 
L 290.041456 272.448 
L 290.078938 283.968 
L 290.224295 272.448 
L 290.262692 283.968 
L 290.408963 272.448 
L 290.444617 283.968 
L 290.590889 272.448 
L 290.629285 283.968 
L 290.775557 272.448 
L 290.81121 283.968 
L 290.954739 272.448 
L 290.995878 283.968 
L 291.133922 272.448 
L 291.175975 283.968 
L 291.319504 272.448 
L 291.355158 283.968 
L 291.500516 272.448 
L 291.54074 283.968 
L 291.684269 272.448 
L 291.721751 283.968 
L 291.868023 272.448 
L 291.905505 283.968 
L 292.049034 272.448 
L 292.089259 283.968 
L 292.228217 272.448 
L 292.27027 283.968 
L 292.413799 272.448 
L 292.449453 283.968 
L 292.596639 272.448 
L 292.634121 283.968 
L 292.775822 272.448 
L 292.817875 283.968 
L 292.96049 272.448 
L 292.997058 283.968 
L 293.146072 272.448 
L 293.181726 283.968 
L 293.327083 272.448 
L 293.367308 283.968 
L 293.509008 272.448 
L 293.547405 283.968 
L 293.691848 272.448 
L 293.730244 283.968 
L 293.870117 272.448 
L 293.91217 283.968 
L 294.052956 272.448 
L 294.091353 283.968 
L 294.235796 272.448 
L 294.274192 283.968 
L 294.422292 272.448 
L 294.457032 283.968 
L 294.605132 272.448 
L 294.643528 283.968 
L 294.787971 272.448 
L 294.826368 283.968 
L 294.967154 272.448 
L 295.009207 283.968 
L 295.148165 272.448 
L 295.18839 283.968 
L 295.330091 272.448 
L 295.369401 283.968 
L 295.51293 272.448 
L 295.551327 283.968 
L 295.694856 272.448 
L 295.734166 283.968 
L 295.87861 272.448 
L 295.915177 283.968 
L 296.062363 272.448 
L 296.099845 283.968 
L 296.244289 272.448 
L 296.282685 283.968 
L 296.426214 272.448 
L 296.465525 283.968 
L 296.61271 272.448 
L 296.64745 283.968 
L 296.793722 272.448 
L 296.833946 283.968 
L 296.97839 272.448 
L 297.014958 283.968 
L 297.162143 272.448 
L 297.199626 283.968 
L 297.345897 272.448 
L 297.383379 283.968 
L 297.532394 272.448 
L 297.567133 283.968 
L 297.715233 272.448 
L 297.752715 283.968 
L 297.894416 272.448 
L 297.936469 283.968 
L 298.075427 272.448 
L 298.115652 283.968 
L 298.258267 272.448 
L 298.296663 283.968 
L 298.442935 272.448 
L 298.479503 283.968 
L 298.630345 272.448 
L 298.664171 283.968 
L 298.815013 272.448 
L 298.850667 283.968 
L 299.002424 272.448 
L 299.036249 283.968 
L 299.189834 272.448 
L 299.22366 283.968 
L 299.370846 272.448 
L 299.41107 283.968 
L 299.558256 272.448 
L 299.592082 283.968 
L 299.742924 272.448 
L 299.779492 283.968 
L 299.927592 272.448 
L 299.963246 283.968 
L 300.11226 272.448 
L 300.147914 283.968 
L 300.332582 295.488 
L 301.333629 283.968 
L 301.55395 295.488 
L 301.652684 283.968 
L 301.87392 295.488 
L 301.972653 283.968 
L 302.193889 295.488 
L 302.298107 283.968 
L 302.519343 295.488 
L 302.623562 283.968 
L 302.844798 295.488 
L 302.939874 283.968 
L 303.16111 295.488 
L 303.258015 283.968 
L 303.478337 295.488 
L 303.579813 283.968 
L 303.801049 295.488 
L 303.902525 283.968 
L 304.122847 295.488 
L 304.223408 283.968 
L 304.44373 295.488 
L 304.545206 283.968 
L 304.765528 295.488 
L 304.86609 283.968 
L 305.087325 295.488 
L 305.183316 283.968 
L 305.403638 295.488 
L 305.506942 283.968 
L 305.727264 295.488 
L 305.826912 283.968 
L 308.065782 203.328 
L 315.041113 191.808 
L 315.159958 203.328 
L 315.26052 191.808 
L 315.262349 203.328 
L 315.513753 283.968 
L 315.673738 295.488 
L 315.774299 283.968 
L 315.995535 295.488 
L 316.101582 283.968 
L 316.322818 295.488 
L 316.416066 283.968 
L 316.636388 295.488 
L 316.739692 283.968 
L 316.960928 295.488 
L 317.065147 283.968 
L 317.285469 295.488 
L 317.38603 283.968 
L 317.606352 295.488 
L 317.704171 283.968 
L 317.924493 295.488 
L 318.025055 283.968 
L 318.246291 295.488 
L 318.350509 283.968 
L 318.571745 295.488 
L 318.666822 283.968 
L 318.887143 295.488 
L 318.985877 283.968 
L 319.207113 295.488 
L 319.299447 283.968 
L 319.520683 295.488 
L 319.615759 283.968 
L 319.836995 295.488 
L 319.927501 283.968 
L 320.148737 295.488 
L 320.245642 283.968 
L 320.466877 295.488 
L 320.564697 283.968 
L 320.785933 295.488 
L 320.886494 283.968 
L 321.10773 295.488 
L 321.19915 283.968 
L 321.420386 295.488 
L 321.516377 283.968 
L 321.737613 295.488 
L 321.831775 283.968 
L 322.052097 295.488 
L 322.146259 283.968 
L 322.367495 295.488 
L 322.468971 283.968 
L 322.689293 295.488 
L 322.783455 283.968 
L 323.004691 295.488 
L 323.109824 283.968 
L 323.33106 295.488 
L 323.430707 283.968 
L 323.651943 295.488 
L 323.749762 283.968 
L 323.970998 295.488 
L 324.069732 283.968 
L 324.290967 295.488 
L 324.38513 283.968 
L 324.606366 295.488 
L 324.707842 283.968 
L 324.929078 295.488 
L 325.029639 283.968 
L 325.250875 295.488 
L 325.350523 283.968 
L 325.571759 295.488 
L 325.674149 283.968 
L 325.895385 295.488 
L 325.98589 283.968 
L 326.207126 295.488 
L 326.304031 283.968 
L 326.525267 295.488 
L 326.629486 283.968 
L 326.850722 295.488 
L 326.956769 283.968 
L 327.17709 295.488 
L 327.281309 283.968 
L 327.502545 295.488 
L 327.598536 283.968 
L 327.819772 295.488 
L 327.920333 283.968 
L 330.163775 203.328 
L 336.838334 191.808 
L 336.95718 203.328 
L 337.057742 191.808 
L 337.05957 203.328 
L 337.310975 283.968 
L 337.417936 295.488 
L 337.512098 283.968 
L 337.733334 295.488 
L 337.830239 283.968 
L 338.051475 295.488 
L 338.156608 283.968 
L 338.377844 295.488 
L 338.474749 283.968 
L 338.695984 295.488 
L 338.798375 283.968 
L 339.019611 295.488 
L 339.119258 283.968 
L 339.340494 295.488 
L 339.433742 283.968 
L 339.654064 295.488 
L 339.758282 283.968 
L 339.979518 295.488 
L 340.070938 283.968 
L 340.292174 295.488 
L 340.390907 283.968 
L 340.611229 295.488 
L 340.708134 283.968 
L 340.928456 295.488 
L 341.026275 283.968 
L 341.246597 295.488 
L 341.348073 283.968 
L 341.568394 295.488 
L 341.667128 283.968 
L 341.888364 295.488 
L 341.988925 283.968 
L 342.209247 295.488 
L 342.302495 283.968 
L 347.80871 272.448 
L 347.944925 168.768 
L 348.044573 111.168 
L 348.07017 134.208 
L 348.265809 283.968 
L 348.451391 295.488 
L 348.455048 283.968 
L 348.676283 295.488 
L 348.684511 283.968 
L 348.904833 295.488 
L 348.912147 283.968 
L 349.133382 295.488 
L 349.14161 283.968 
L 349.362846 295.488 
L 349.368331 283.968 
L 349.589567 295.488 
L 349.593224 283.968 
L 349.81446 295.488 
L 349.824516 283.968 
L 350.045752 295.488 
L 350.053066 283.968 
L 350.273387 295.488 
L 350.277958 283.968 
L 350.499194 295.488 
L 350.510165 283.968 
L 350.7314 295.488 
L 350.744199 283.968 
L 350.964521 295.488 
L 350.973663 283.968 
L 351.194899 295.488 
L 351.203127 283.968 
L 351.424362 295.488 
L 351.438075 283.968 
L 351.658397 295.488 
L 351.665711 283.968 
L 351.886947 295.488 
L 351.896089 283.968 
L 352.117325 295.488 
L 352.130123 283.968 
L 352.350445 295.488 
L 352.357759 283.968 
L 352.578994 295.488 
L 352.591793 283.968 
L 352.812115 295.488 
L 352.819429 283.968 
L 353.040664 295.488 
L 353.049806 283.968 
L 353.271042 295.488 
L 353.276528 283.968 
L 353.497763 295.488 
L 353.510562 283.968 
L 353.731798 295.488 
L 353.738197 283.968 
L 353.959433 295.488 
L 353.970404 283.968 
L 354.19164 295.488 
L 354.197125 283.968 
L 354.418361 295.488 
L 354.427503 283.968 
L 354.648739 295.488 
L 354.656052 283.968 
L 354.877288 295.488 
L 354.882773 283.968 
L 355.104009 295.488 
L 355.115894 283.968 
L 355.33713 295.488 
L 355.344443 283.968 
L 355.564765 295.488 
L 355.57025 283.968 
L 355.791486 295.488 
L 355.802456 283.968 
L 356.022778 295.488 
L 356.032834 283.968 
L 356.25407 295.488 
L 356.265041 283.968 
L 356.486277 295.488 
L 356.494504 283.968 
L 356.71574 295.488 
L 356.720311 283.968 
L 356.941547 295.488 
L 356.950689 283.968 
L 357.171011 295.488 
L 357.180153 283.968 
L 357.401389 295.488 
L 357.411445 283.968 
L 357.632681 295.488 
L 357.641823 283.968 
L 357.862144 295.488 
L 357.866715 283.968 
L 358.087951 295.488 
L 358.098007 283.968 
L 358.319243 295.488 
L 358.331128 283.968 
L 358.55145 295.488 
L 358.56242 283.968 
L 358.783656 295.488 
L 358.786399 283.968 
L 359.007634 295.488 
L 359.009463 283.968 
L 359.230699 295.488 
L 359.232527 283.968 
L 359.453763 295.488 
L 359.458334 283.968 
L 359.678656 295.488 
L 359.685055 283.968 
L 359.906291 295.488 
L 359.913605 283.968 
L 360.134841 295.488 
L 360.148553 283.968 
L 360.369789 295.488 
L 360.377103 283.968 
L 360.598339 295.488 
L 360.610223 283.968 
L 360.831459 295.488 
L 360.83603 283.968 
L 361.056352 295.488 
L 361.060009 283.968 
L 361.280331 295.488 
L 361.289473 283.968 
L 361.509794 295.488 
L 361.517108 283.968 
L 361.738344 295.488 
L 361.745657 283.968 
L 361.977864 272.448 
L 362.179901 283.968 
L 362.209156 272.448 
L 365.398792 111.168 
L 365.84035 99.648 
L 369.753117 111.168 
L 369.864649 99.648 
L 369.990809 122.688 
L 369.993551 111.168 
L 370.072172 180.288 
L 370.214787 283.968 
L 370.397627 295.488 
L 370.405854 283.968 
L 370.626176 295.488 
L 370.634404 283.968 
L 370.85564 295.488 
L 370.865696 283.968 
L 371.086018 295.488 
L 371.094245 283.968 
L 371.315481 295.488 
L 371.327366 283.968 
L 371.548602 295.488 
L 371.555001 283.968 
L 371.775323 295.488 
L 371.77898 283.968 
L 371.999301 295.488 
L 372.002044 283.968 
L 372.22328 295.488 
L 372.226023 283.968 
L 372.447258 295.488 
L 372.457315 283.968 
L 372.678551 295.488 
L 372.682207 283.968 
L 372.903443 295.488 
L 372.911671 283.968 
L 373.132907 295.488 
L 373.139306 283.968 
L 373.360542 295.488 
L 373.36877 283.968 
L 373.589092 295.488 
L 373.595491 283.968 
L 373.816727 295.488 
L 373.825869 283.968 
L 374.046191 295.488 
L 374.058075 283.968 
L 374.279311 295.488 
L 374.286625 283.968 
L 374.506946 295.488 
L 374.513346 283.968 
L 374.734582 295.488 
L 374.738238 283.968 
L 374.959474 295.488 
L 374.967702 283.968 
L 375.188938 295.488 
L 375.192595 283.968 
L 375.413831 295.488 
L 375.417488 283.968 
L 375.638723 295.488 
L 375.646951 283.968 
L 375.867273 295.488 
L 375.876415 283.968 
L 376.097651 295.488 
L 376.107707 283.968 
L 376.328943 295.488 
L 376.338085 283.968 
L 376.558407 295.488 
L 376.567549 283.968 
L 376.788784 295.488 
L 376.798841 283.968 
L 377.020077 295.488 
L 377.030133 283.968 
L 377.251369 295.488 
L 377.25594 283.968 
L 377.476261 295.488 
L 377.480832 283.968 
L 377.701154 295.488 
L 377.706639 283.968 
L 377.927875 295.488 
L 377.93336 283.968 
L 378.153682 295.488 
L 378.156425 283.968 
L 380.669555 157.248 
L 381.101056 145.728 
L 386.206852 157.248 
L 386.320212 145.728 
L 386.330268 157.248 
L 386.37415 122.688 
L 386.387863 122.688 
L 386.428088 99.648 
L 386.473798 134.208 
L 386.667607 283.968 
L 386.840391 295.488 
L 386.847704 283.968 
L 387.06894 295.488 
L 387.080825 283.968 
L 387.301147 295.488 
L 387.302061 283.968 
L 387.522383 295.488 
L 387.53061 283.968 
L 387.751846 295.488 
L 387.758246 283.968 
L 387.979482 295.488 
L 387.986795 283.968 
L 388.208031 295.488 
L 388.219001 283.968 
L 388.439323 295.488 
L 388.446637 283.968 
L 388.667873 295.488 
L 388.674272 283.968 
L 388.895508 295.488 
L 388.905564 283.968 
L 389.125886 295.488 
L 389.129543 283.968 
L 389.350778 295.488 
L 389.358092 283.968 
L 389.578414 295.488 
L 389.582985 283.968 
L 389.803306 295.488 
L 389.807877 283.968 
L 390.028199 295.488 
L 390.036427 283.968 
L 390.257663 295.488 
L 390.264976 283.968 
L 390.486212 295.488 
L 390.492612 283.968 
L 390.713848 295.488 
L 390.718419 283.968 
L 390.939654 295.488 
L 390.951539 283.968 
L 391.172775 295.488 
L 391.18466 283.968 
L 391.405895 295.488 
L 391.418694 283.968 
L 391.63993 295.488 
L 391.647244 283.968 
L 391.86848 295.488 
L 391.874879 283.968 
L 392.096115 295.488 
L 392.102514 283.968 
L 392.322836 295.488 
L 392.329235 283.968 
L 392.550471 295.488 
L 392.561442 283.968 
L 392.782678 295.488 
L 392.792734 283.968 
L 393.01397 295.488 
L 393.02494 283.968 
L 393.246176 295.488 
L 393.256232 283.968 
L 393.477468 295.488 
L 393.491181 283.968 
L 393.712417 295.488 
L 393.716988 283.968 
L 393.93731 295.488 
L 393.945537 283.968 
L 394.166773 295.488 
L 394.175915 283.968 
L 394.397151 295.488 
L 394.39898 283.968 
L 394.620215 295.488 
L 394.626615 283.968 
L 398.053029 111.168 
L 398.487273 99.648 
L 398.487273 99.648 
" clip-path="url(#pa919332047)" style="fill: none; stroke: #1f77b4; stroke-width: 1.5; stroke-linecap: square"/>
   </g>
   <g id="patch_3">
    <path d="M 57.6 307.584 
L 57.6 41.472 
" style="fill: none; stroke: #000000; stroke-width: 0.8; stroke-linejoin: miter; stroke-linecap: square"/>
   </g>
   <g id="patch_4">
    <path d="M 414.72 307.584 
L 414.72 41.472 
" style="fill: none; stroke: #000000; stroke-width: 0.8; stroke-linejoin: miter; stroke-linecap: square"/>
   </g>
   <g id="patch_5">
    <path d="M 57.6 307.584 
L 414.72 307.584 
" style="fill: none; stroke: #000000; stroke-width: 0.8; stroke-linejoin: miter; stroke-linecap: square"/>
   </g>
   <g id="patch_6">
    <path d="M 57.6 41.472 
L 414.72 41.472 
" style="fill: none; stroke: #000000; stroke-width: 0.8; stroke-linejoin: miter; stroke-linecap: square"/>
   </g>
   <g id="text_15">
    <!-- Queue size (y-axis) between S2 and sensors that follow at a time (x-axis). -->
    <g transform="translate(14.282813 35.472) scale(0.12 -0.12)">
     <defs>
      <path id="DejaVuSans-51" d="M 2522 4238 
Q 1834 4238 1429 3725 
Q 1025 3213 1025 2328 
Q 1025 1447 1429 934 
Q 1834 422 2522 422 
Q 3209 422 3611 934 
Q 4013 1447 4013 2328 
Q 4013 3213 3611 3725 
Q 3209 4238 2522 4238 
z
M 3406 84 
L 4238 -825 
L 3475 -825 
L 2784 -78 
Q 2681 -84 2626 -87 
Q 2572 -91 2522 -91 
Q 1538 -91 948 567 
Q 359 1225 359 2328 
Q 359 3434 948 4092 
Q 1538 4750 2522 4750 
Q 3503 4750 4090 4092 
Q 4678 3434 4678 2328 
Q 4678 1516 4351 937 
Q 4025 359 3406 84 
z
" transform="scale(0.015625)"/>
      <path id="DejaVuSans-75" d="M 544 1381 
L 544 3500 
L 1119 3500 
L 1119 1403 
Q 1119 906 1312 657 
Q 1506 409 1894 409 
Q 2359 409 2629 706 
Q 2900 1003 2900 1516 
L 2900 3500 
L 3475 3500 
L 3475 0 
L 2900 0 
L 2900 538 
Q 2691 219 2414 64 
Q 2138 -91 1772 -91 
Q 1169 -91 856 284 
Q 544 659 544 1381 
z
M 1991 3584 
L 1991 3584 
z
" transform="scale(0.015625)"/>
      <path id="DejaVuSans-20" transform="scale(0.015625)"/>
      <path id="DejaVuSans-73" d="M 2834 3397 
L 2834 2853 
Q 2591 2978 2328 3040 
Q 2066 3103 1784 3103 
Q 1356 3103 1142 2972 
Q 928 2841 928 2578 
Q 928 2378 1081 2264 
Q 1234 2150 1697 2047 
L 1894 2003 
Q 2506 1872 2764 1633 
Q 3022 1394 3022 966 
Q 3022 478 2636 193 
Q 2250 -91 1575 -91 
Q 1294 -91 989 -36 
Q 684 19 347 128 
L 347 722 
Q 666 556 975 473 
Q 1284 391 1588 391 
Q 1994 391 2212 530 
Q 2431 669 2431 922 
Q 2431 1156 2273 1281 
Q 2116 1406 1581 1522 
L 1381 1569 
Q 847 1681 609 1914 
Q 372 2147 372 2553 
Q 372 3047 722 3315 
Q 1072 3584 1716 3584 
Q 2034 3584 2315 3537 
Q 2597 3491 2834 3397 
z
" transform="scale(0.015625)"/>
      <path id="DejaVuSans-69" d="M 603 3500 
L 1178 3500 
L 1178 0 
L 603 0 
L 603 3500 
z
M 603 4863 
L 1178 4863 
L 1178 4134 
L 603 4134 
L 603 4863 
z
" transform="scale(0.015625)"/>
      <path id="DejaVuSans-7a" d="M 353 3500 
L 3084 3500 
L 3084 2975 
L 922 459 
L 3084 459 
L 3084 0 
L 275 0 
L 275 525 
L 2438 3041 
L 353 3041 
L 353 3500 
z
" transform="scale(0.015625)"/>
      <path id="DejaVuSans-28" d="M 1984 4856 
Q 1566 4138 1362 3434 
Q 1159 2731 1159 2009 
Q 1159 1288 1364 580 
Q 1569 -128 1984 -844 
L 1484 -844 
Q 1016 -109 783 600 
Q 550 1309 550 2009 
Q 550 2706 781 3412 
Q 1013 4119 1484 4856 
L 1984 4856 
z
" transform="scale(0.015625)"/>
      <path id="DejaVuSans-79" d="M 2059 -325 
Q 1816 -950 1584 -1140 
Q 1353 -1331 966 -1331 
L 506 -1331 
L 506 -850 
L 844 -850 
Q 1081 -850 1212 -737 
Q 1344 -625 1503 -206 
L 1606 56 
L 191 3500 
L 800 3500 
L 1894 763 
L 2988 3500 
L 3597 3500 
L 2059 -325 
z
" transform="scale(0.015625)"/>
      <path id="DejaVuSans-2d" d="M 313 2009 
L 1997 2009 
L 1997 1497 
L 313 1497 
L 313 2009 
z
" transform="scale(0.015625)"/>
      <path id="DejaVuSans-61" d="M 2194 1759 
Q 1497 1759 1228 1600 
Q 959 1441 959 1056 
Q 959 750 1161 570 
Q 1363 391 1709 391 
Q 2188 391 2477 730 
Q 2766 1069 2766 1631 
L 2766 1759 
L 2194 1759 
z
M 3341 1997 
L 3341 0 
L 2766 0 
L 2766 531 
Q 2569 213 2275 61 
Q 1981 -91 1556 -91 
Q 1019 -91 701 211 
Q 384 513 384 1019 
Q 384 1609 779 1909 
Q 1175 2209 1959 2209 
L 2766 2209 
L 2766 2266 
Q 2766 2663 2505 2880 
Q 2244 3097 1772 3097 
Q 1472 3097 1187 3025 
Q 903 2953 641 2809 
L 641 3341 
Q 956 3463 1253 3523 
Q 1550 3584 1831 3584 
Q 2591 3584 2966 3190 
Q 3341 2797 3341 1997 
z
" transform="scale(0.015625)"/>
      <path id="DejaVuSans-78" d="M 3513 3500 
L 2247 1797 
L 3578 0 
L 2900 0 
L 1881 1375 
L 863 0 
L 184 0 
L 1544 1831 
L 300 3500 
L 978 3500 
L 1906 2253 
L 2834 3500 
L 3513 3500 
z
" transform="scale(0.015625)"/>
      <path id="DejaVuSans-29" d="M 513 4856 
L 1013 4856 
Q 1481 4119 1714 3412 
Q 1947 2706 1947 2009 
Q 1947 1309 1714 600 
Q 1481 -109 1013 -844 
L 513 -844 
Q 928 -128 1133 580 
Q 1338 1288 1338 2009 
Q 1338 2731 1133 3434 
Q 928 4138 513 4856 
z
" transform="scale(0.015625)"/>
      <path id="DejaVuSans-62" d="M 3116 1747 
Q 3116 2381 2855 2742 
Q 2594 3103 2138 3103 
Q 1681 3103 1420 2742 
Q 1159 2381 1159 1747 
Q 1159 1113 1420 752 
Q 1681 391 2138 391 
Q 2594 391 2855 752 
Q 3116 1113 3116 1747 
z
M 1159 2969 
Q 1341 3281 1617 3432 
Q 1894 3584 2278 3584 
Q 2916 3584 3314 3078 
Q 3713 2572 3713 1747 
Q 3713 922 3314 415 
Q 2916 -91 2278 -91 
Q 1894 -91 1617 61 
Q 1341 213 1159 525 
L 1159 0 
L 581 0 
L 581 4863 
L 1159 4863 
L 1159 2969 
z
" transform="scale(0.015625)"/>
      <path id="DejaVuSans-74" d="M 1172 4494 
L 1172 3500 
L 2356 3500 
L 2356 3053 
L 1172 3053 
L 1172 1153 
Q 1172 725 1289 603 
Q 1406 481 1766 481 
L 2356 481 
L 2356 0 
L 1766 0 
Q 1100 0 847 248 
Q 594 497 594 1153 
L 594 3053 
L 172 3053 
L 172 3500 
L 594 3500 
L 594 4494 
L 1172 4494 
z
" transform="scale(0.015625)"/>
      <path id="DejaVuSans-77" d="M 269 3500 
L 844 3500 
L 1563 769 
L 2278 3500 
L 2956 3500 
L 3675 769 
L 4391 3500 
L 4966 3500 
L 4050 0 
L 3372 0 
L 2619 2869 
L 1863 0 
L 1184 0 
L 269 3500 
z
" transform="scale(0.015625)"/>
      <path id="DejaVuSans-6e" d="M 3513 2113 
L 3513 0 
L 2938 0 
L 2938 2094 
Q 2938 2591 2744 2837 
Q 2550 3084 2163 3084 
Q 1697 3084 1428 2787 
Q 1159 2491 1159 1978 
L 1159 0 
L 581 0 
L 581 3500 
L 1159 3500 
L 1159 2956 
Q 1366 3272 1645 3428 
Q 1925 3584 2291 3584 
Q 2894 3584 3203 3211 
Q 3513 2838 3513 2113 
z
" transform="scale(0.015625)"/>
      <path id="DejaVuSans-53" d="M 3425 4513 
L 3425 3897 
Q 3066 4069 2747 4153 
Q 2428 4238 2131 4238 
Q 1616 4238 1336 4038 
Q 1056 3838 1056 3469 
Q 1056 3159 1242 3001 
Q 1428 2844 1947 2747 
L 2328 2669 
Q 3034 2534 3370 2195 
Q 3706 1856 3706 1288 
Q 3706 609 3251 259 
Q 2797 -91 1919 -91 
Q 1588 -91 1214 -16 
Q 841 59 441 206 
L 441 856 
Q 825 641 1194 531 
Q 1563 422 1919 422 
Q 2459 422 2753 634 
Q 3047 847 3047 1241 
Q 3047 1584 2836 1778 
Q 2625 1972 2144 2069 
L 1759 2144 
Q 1053 2284 737 2584 
Q 422 2884 422 3419 
Q 422 4038 858 4394 
Q 1294 4750 2059 4750 
Q 2388 4750 2728 4690 
Q 3069 4631 3425 4513 
z
" transform="scale(0.015625)"/>
      <path id="DejaVuSans-64" d="M 2906 2969 
L 2906 4863 
L 3481 4863 
L 3481 0 
L 2906 0 
L 2906 525 
Q 2725 213 2448 61 
Q 2172 -91 1784 -91 
Q 1150 -91 751 415 
Q 353 922 353 1747 
Q 353 2572 751 3078 
Q 1150 3584 1784 3584 
Q 2172 3584 2448 3432 
Q 2725 3281 2906 2969 
z
M 947 1747 
Q 947 1113 1208 752 
Q 1469 391 1925 391 
Q 2381 391 2643 752 
Q 2906 1113 2906 1747 
Q 2906 2381 2643 2742 
Q 2381 3103 1925 3103 
Q 1469 3103 1208 2742 
Q 947 2381 947 1747 
z
" transform="scale(0.015625)"/>
      <path id="DejaVuSans-6f" d="M 1959 3097 
Q 1497 3097 1228 2736 
Q 959 2375 959 1747 
Q 959 1119 1226 758 
Q 1494 397 1959 397 
Q 2419 397 2687 759 
Q 2956 1122 2956 1747 
Q 2956 2369 2687 2733 
Q 2419 3097 1959 3097 
z
M 1959 3584 
Q 2709 3584 3137 3096 
Q 3566 2609 3566 1747 
Q 3566 888 3137 398 
Q 2709 -91 1959 -91 
Q 1206 -91 779 398 
Q 353 888 353 1747 
Q 353 2609 779 3096 
Q 1206 3584 1959 3584 
z
" transform="scale(0.015625)"/>
      <path id="DejaVuSans-72" d="M 2631 2963 
Q 2534 3019 2420 3045 
Q 2306 3072 2169 3072 
Q 1681 3072 1420 2755 
Q 1159 2438 1159 1844 
L 1159 0 
L 581 0 
L 581 3500 
L 1159 3500 
L 1159 2956 
Q 1341 3275 1631 3429 
Q 1922 3584 2338 3584 
Q 2397 3584 2469 3576 
Q 2541 3569 2628 3553 
L 2631 2963 
z
" transform="scale(0.015625)"/>
      <path id="DejaVuSans-68" d="M 3513 2113 
L 3513 0 
L 2938 0 
L 2938 2094 
Q 2938 2591 2744 2837 
Q 2550 3084 2163 3084 
Q 1697 3084 1428 2787 
Q 1159 2491 1159 1978 
L 1159 0 
L 581 0 
L 581 4863 
L 1159 4863 
L 1159 2956 
Q 1366 3272 1645 3428 
Q 1925 3584 2291 3584 
Q 2894 3584 3203 3211 
Q 3513 2838 3513 2113 
z
" transform="scale(0.015625)"/>
      <path id="DejaVuSans-66" d="M 2375 4863 
L 2375 4384 
L 1825 4384 
Q 1516 4384 1395 4259 
Q 1275 4134 1275 3809 
L 1275 3500 
L 2222 3500 
L 2222 3053 
L 1275 3053 
L 1275 0 
L 697 0 
L 697 3053 
L 147 3053 
L 147 3500 
L 697 3500 
L 697 3744 
Q 697 4328 969 4595 
Q 1241 4863 1831 4863 
L 2375 4863 
z
" transform="scale(0.015625)"/>
      <path id="DejaVuSans-6c" d="M 603 4863 
L 1178 4863 
L 1178 0 
L 603 0 
L 603 4863 
z
" transform="scale(0.015625)"/>
      <path id="DejaVuSans-6d" d="M 3328 2828 
Q 3544 3216 3844 3400 
Q 4144 3584 4550 3584 
Q 5097 3584 5394 3201 
Q 5691 2819 5691 2113 
L 5691 0 
L 5113 0 
L 5113 2094 
Q 5113 2597 4934 2840 
Q 4756 3084 4391 3084 
Q 3944 3084 3684 2787 
Q 3425 2491 3425 1978 
L 3425 0 
L 2847 0 
L 2847 2094 
Q 2847 2600 2669 2842 
Q 2491 3084 2119 3084 
Q 1678 3084 1418 2786 
Q 1159 2488 1159 1978 
L 1159 0 
L 581 0 
L 581 3500 
L 1159 3500 
L 1159 2956 
Q 1356 3278 1631 3431 
Q 1906 3584 2284 3584 
Q 2666 3584 2933 3390 
Q 3200 3197 3328 2828 
z
" transform="scale(0.015625)"/>
     </defs>
     <use xlink:href="#DejaVuSans-51"/>
     <use xlink:href="#DejaVuSans-75" x="78.710938"/>
     <use xlink:href="#DejaVuSans-65" x="142.089844"/>
     <use xlink:href="#DejaVuSans-75" x="203.613281"/>
     <use xlink:href="#DejaVuSans-65" x="266.992188"/>
     <use xlink:href="#DejaVuSans-20" x="328.515625"/>
     <use xlink:href="#DejaVuSans-73" x="360.302734"/>
     <use xlink:href="#DejaVuSans-69" x="412.402344"/>
     <use xlink:href="#DejaVuSans-7a" x="440.185547"/>
     <use xlink:href="#DejaVuSans-65" x="492.675781"/>
     <use xlink:href="#DejaVuSans-20" x="554.199219"/>
     <use xlink:href="#DejaVuSans-28" x="585.986328"/>
     <use xlink:href="#DejaVuSans-79" x="625"/>
     <use xlink:href="#DejaVuSans-2d" x="682.429688"/>
     <use xlink:href="#DejaVuSans-61" x="718.513672"/>
     <use xlink:href="#DejaVuSans-78" x="779.792969"/>
     <use xlink:href="#DejaVuSans-69" x="838.972656"/>
     <use xlink:href="#DejaVuSans-73" x="866.755859"/>
     <use xlink:href="#DejaVuSans-29" x="918.855469"/>
     <use xlink:href="#DejaVuSans-20" x="957.869141"/>
     <use xlink:href="#DejaVuSans-62" x="989.65625"/>
     <use xlink:href="#DejaVuSans-65" x="1053.132812"/>
     <use xlink:href="#DejaVuSans-74" x="1114.65625"/>
     <use xlink:href="#DejaVuSans-77" x="1153.865234"/>
     <use xlink:href="#DejaVuSans-65" x="1235.652344"/>
     <use xlink:href="#DejaVuSans-65" x="1297.175781"/>
     <use xlink:href="#DejaVuSans-6e" x="1358.699219"/>
     <use xlink:href="#DejaVuSans-20" x="1422.078125"/>
     <use xlink:href="#DejaVuSans-53" x="1453.865234"/>
     <use xlink:href="#DejaVuSans-32" x="1517.341797"/>
     <use xlink:href="#DejaVuSans-20" x="1580.964844"/>
     <use xlink:href="#DejaVuSans-61" x="1612.751953"/>
     <use xlink:href="#DejaVuSans-6e" x="1674.03125"/>
     <use xlink:href="#DejaVuSans-64" x="1737.410156"/>
     <use xlink:href="#DejaVuSans-20" x="1800.886719"/>
     <use xlink:href="#DejaVuSans-73" x="1832.673828"/>
     <use xlink:href="#DejaVuSans-65" x="1884.773438"/>
     <use xlink:href="#DejaVuSans-6e" x="1946.296875"/>
     <use xlink:href="#DejaVuSans-73" x="2009.675781"/>
     <use xlink:href="#DejaVuSans-6f" x="2061.775391"/>
     <use xlink:href="#DejaVuSans-72" x="2122.957031"/>
     <use xlink:href="#DejaVuSans-73" x="2164.070312"/>
     <use xlink:href="#DejaVuSans-20" x="2216.169922"/>
     <use xlink:href="#DejaVuSans-74" x="2247.957031"/>
     <use xlink:href="#DejaVuSans-68" x="2287.166016"/>
     <use xlink:href="#DejaVuSans-61" x="2350.544922"/>
     <use xlink:href="#DejaVuSans-74" x="2411.824219"/>
     <use xlink:href="#DejaVuSans-20" x="2451.033203"/>
     <use xlink:href="#DejaVuSans-66" x="2482.820312"/>
     <use xlink:href="#DejaVuSans-6f" x="2518.025391"/>
     <use xlink:href="#DejaVuSans-6c" x="2579.207031"/>
     <use xlink:href="#DejaVuSans-6c" x="2606.990234"/>
     <use xlink:href="#DejaVuSans-6f" x="2634.773438"/>
     <use xlink:href="#DejaVuSans-77" x="2695.955078"/>
     <use xlink:href="#DejaVuSans-20" x="2777.742188"/>
     <use xlink:href="#DejaVuSans-61" x="2809.529297"/>
     <use xlink:href="#DejaVuSans-74" x="2870.808594"/>
     <use xlink:href="#DejaVuSans-20" x="2910.017578"/>
     <use xlink:href="#DejaVuSans-61" x="2941.804688"/>
     <use xlink:href="#DejaVuSans-20" x="3003.083984"/>
     <use xlink:href="#DejaVuSans-74" x="3034.871094"/>
     <use xlink:href="#DejaVuSans-69" x="3074.080078"/>
     <use xlink:href="#DejaVuSans-6d" x="3101.863281"/>
     <use xlink:href="#DejaVuSans-65" x="3199.275391"/>
     <use xlink:href="#DejaVuSans-20" x="3260.798828"/>
     <use xlink:href="#DejaVuSans-28" x="3292.585938"/>
     <use xlink:href="#DejaVuSans-78" x="3331.599609"/>
     <use xlink:href="#DejaVuSans-2d" x="3390.779297"/>
     <use xlink:href="#DejaVuSans-61" x="3426.863281"/>
     <use xlink:href="#DejaVuSans-78" x="3488.142578"/>
     <use xlink:href="#DejaVuSans-69" x="3547.322266"/>
     <use xlink:href="#DejaVuSans-73" x="3575.105469"/>
     <use xlink:href="#DejaVuSans-29" x="3627.205078"/>
     <use xlink:href="#DejaVuSans-2e" x="3666.21875"/>
    </g>
   </g>
  </g>
 </g>
 <defs>
  <clipPath id="pa919332047">
   <rect x="57.6" y="41.472" width="357.12" height="266.112"/>
  </clipPath>
 </defs>
</svg>
