<?xml version="1.0" encoding="utf-8" standalone="no"?>
<!DOCTYPE svg PUBLIC "-//W3C//DTD SVG 1.1//EN"
  "http://www.w3.org/Graphics/SVG/1.1/DTD/svg11.dtd">
<svg xmlns:xlink="http://www.w3.org/1999/xlink" width="460.8pt" height="345.6pt" viewBox="0 0 460.8 345.6" xmlns="http://www.w3.org/2000/svg" version="1.1">
 <metadata>
  <rdf:RDF xmlns:dc="http://purl.org/dc/elements/1.1/" xmlns:cc="http://creativecommons.org/ns#" xmlns:rdf="http://www.w3.org/1999/02/22-rdf-syntax-ns#">
   <cc:Work>
    <dc:type rdf:resource="http://purl.org/dc/dcmitype/StillImage"/>
    <dc:date>2024-03-08T14:13:57.676549</dc:date>
    <dc:format>image/svg+xml</dc:format>
    <dc:creator>
     <cc:Agent>
      <dc:title>Matplotlib v3.8.2, https://matplotlib.org/</dc:title>
     </cc:Agent>
    </dc:creator>
   </cc:Work>
  </rdf:RDF>
 </metadata>
 <defs>
  <style type="text/css">*{stroke-linejoin: round; stroke-linecap: butt}</style>
 </defs>
 <g id="figure_1">
  <g id="patch_1">
   <path d="M 0 345.6 
L 460.8 345.6 
L 460.8 0 
L 0 0 
z
" style="fill: #ffffff"/>
  </g>
  <g id="axes_1">
   <g id="patch_2">
    <path d="M 57.6 307.584 
L 414.72 307.584 
L 414.72 41.472 
L 57.6 41.472 
z
" style="fill: #ffffff"/>
   </g>
   <g id="matplotlib.axis_1">
    <g id="xtick_1">
     <g id="line2d_1">
      <defs>
       <path id="md6ae9c16c4" d="M 0 0 
L 0 3.5 
" style="stroke: #000000; stroke-width: 0.8"/>
      </defs>
      <g>
       <use xlink:href="#md6ae9c16c4" x="73.11371" y="307.584" style="stroke: #000000; stroke-width: 0.8"/>
      </g>
     </g>
     <g id="text_1">
      <!-- 0.0 -->
      <g transform="translate(65.162147 322.182437) scale(0.1 -0.1)">
       <defs>
        <path id="DejaVuSans-30" d="M 2034 4250 
Q 1547 4250 1301 3770 
Q 1056 3291 1056 2328 
Q 1056 1369 1301 889 
Q 1547 409 2034 409 
Q 2525 409 2770 889 
Q 3016 1369 3016 2328 
Q 3016 3291 2770 3770 
Q 2525 4250 2034 4250 
z
M 2034 4750 
Q 2819 4750 3233 4129 
Q 3647 3509 3647 2328 
Q 3647 1150 3233 529 
Q 2819 -91 2034 -91 
Q 1250 -91 836 529 
Q 422 1150 422 2328 
Q 422 3509 836 4129 
Q 1250 4750 2034 4750 
z
" transform="scale(0.015625)"/>
        <path id="DejaVuSans-2e" d="M 684 794 
L 1344 794 
L 1344 0 
L 684 0 
L 684 794 
z
" transform="scale(0.015625)"/>
       </defs>
       <use xlink:href="#DejaVuSans-30"/>
       <use xlink:href="#DejaVuSans-2e" x="63.623047"/>
       <use xlink:href="#DejaVuSans-30" x="95.410156"/>
      </g>
     </g>
    </g>
    <g id="xtick_2">
     <g id="line2d_2">
      <g>
       <use xlink:href="#md6ae9c16c4" x="119.86386" y="307.584" style="stroke: #000000; stroke-width: 0.8"/>
      </g>
     </g>
     <g id="text_2">
      <!-- 0.5 -->
      <g transform="translate(111.912297 322.182437) scale(0.1 -0.1)">
       <defs>
        <path id="DejaVuSans-35" d="M 691 4666 
L 3169 4666 
L 3169 4134 
L 1269 4134 
L 1269 2991 
Q 1406 3038 1543 3061 
Q 1681 3084 1819 3084 
Q 2600 3084 3056 2656 
Q 3513 2228 3513 1497 
Q 3513 744 3044 326 
Q 2575 -91 1722 -91 
Q 1428 -91 1123 -41 
Q 819 9 494 109 
L 494 744 
Q 775 591 1075 516 
Q 1375 441 1709 441 
Q 2250 441 2565 725 
Q 2881 1009 2881 1497 
Q 2881 1984 2565 2268 
Q 2250 2553 1709 2553 
Q 1456 2553 1204 2497 
Q 953 2441 691 2322 
L 691 4666 
z
" transform="scale(0.015625)"/>
       </defs>
       <use xlink:href="#DejaVuSans-30"/>
       <use xlink:href="#DejaVuSans-2e" x="63.623047"/>
       <use xlink:href="#DejaVuSans-35" x="95.410156"/>
      </g>
     </g>
    </g>
    <g id="xtick_3">
     <g id="line2d_3">
      <g>
       <use xlink:href="#md6ae9c16c4" x="166.61401" y="307.584" style="stroke: #000000; stroke-width: 0.8"/>
      </g>
     </g>
     <g id="text_3">
      <!-- 1.0 -->
      <g transform="translate(158.662447 322.182437) scale(0.1 -0.1)">
       <defs>
        <path id="DejaVuSans-31" d="M 794 531 
L 1825 531 
L 1825 4091 
L 703 3866 
L 703 4441 
L 1819 4666 
L 2450 4666 
L 2450 531 
L 3481 531 
L 3481 0 
L 794 0 
L 794 531 
z
" transform="scale(0.015625)"/>
       </defs>
       <use xlink:href="#DejaVuSans-31"/>
       <use xlink:href="#DejaVuSans-2e" x="63.623047"/>
       <use xlink:href="#DejaVuSans-30" x="95.410156"/>
      </g>
     </g>
    </g>
    <g id="xtick_4">
     <g id="line2d_4">
      <g>
       <use xlink:href="#md6ae9c16c4" x="213.364159" y="307.584" style="stroke: #000000; stroke-width: 0.8"/>
      </g>
     </g>
     <g id="text_4">
      <!-- 1.5 -->
      <g transform="translate(205.412597 322.182437) scale(0.1 -0.1)">
       <use xlink:href="#DejaVuSans-31"/>
       <use xlink:href="#DejaVuSans-2e" x="63.623047"/>
       <use xlink:href="#DejaVuSans-35" x="95.410156"/>
      </g>
     </g>
    </g>
    <g id="xtick_5">
     <g id="line2d_5">
      <g>
       <use xlink:href="#md6ae9c16c4" x="260.114309" y="307.584" style="stroke: #000000; stroke-width: 0.8"/>
      </g>
     </g>
     <g id="text_5">
      <!-- 2.0 -->
      <g transform="translate(252.162747 322.182437) scale(0.1 -0.1)">
       <defs>
        <path id="DejaVuSans-32" d="M 1228 531 
L 3431 531 
L 3431 0 
L 469 0 
L 469 531 
Q 828 903 1448 1529 
Q 2069 2156 2228 2338 
Q 2531 2678 2651 2914 
Q 2772 3150 2772 3378 
Q 2772 3750 2511 3984 
Q 2250 4219 1831 4219 
Q 1534 4219 1204 4116 
Q 875 4013 500 3803 
L 500 4441 
Q 881 4594 1212 4672 
Q 1544 4750 1819 4750 
Q 2544 4750 2975 4387 
Q 3406 4025 3406 3419 
Q 3406 3131 3298 2873 
Q 3191 2616 2906 2266 
Q 2828 2175 2409 1742 
Q 1991 1309 1228 531 
z
" transform="scale(0.015625)"/>
       </defs>
       <use xlink:href="#DejaVuSans-32"/>
       <use xlink:href="#DejaVuSans-2e" x="63.623047"/>
       <use xlink:href="#DejaVuSans-30" x="95.410156"/>
      </g>
     </g>
    </g>
    <g id="xtick_6">
     <g id="line2d_6">
      <g>
       <use xlink:href="#md6ae9c16c4" x="306.864459" y="307.584" style="stroke: #000000; stroke-width: 0.8"/>
      </g>
     </g>
     <g id="text_6">
      <!-- 2.5 -->
      <g transform="translate(298.912897 322.182437) scale(0.1 -0.1)">
       <use xlink:href="#DejaVuSans-32"/>
       <use xlink:href="#DejaVuSans-2e" x="63.623047"/>
       <use xlink:href="#DejaVuSans-35" x="95.410156"/>
      </g>
     </g>
    </g>
    <g id="xtick_7">
     <g id="line2d_7">
      <g>
       <use xlink:href="#md6ae9c16c4" x="353.614609" y="307.584" style="stroke: #000000; stroke-width: 0.8"/>
      </g>
     </g>
     <g id="text_7">
      <!-- 3.0 -->
      <g transform="translate(345.663046 322.182437) scale(0.1 -0.1)">
       <defs>
        <path id="DejaVuSans-33" d="M 2597 2516 
Q 3050 2419 3304 2112 
Q 3559 1806 3559 1356 
Q 3559 666 3084 287 
Q 2609 -91 1734 -91 
Q 1441 -91 1130 -33 
Q 819 25 488 141 
L 488 750 
Q 750 597 1062 519 
Q 1375 441 1716 441 
Q 2309 441 2620 675 
Q 2931 909 2931 1356 
Q 2931 1769 2642 2001 
Q 2353 2234 1838 2234 
L 1294 2234 
L 1294 2753 
L 1863 2753 
Q 2328 2753 2575 2939 
Q 2822 3125 2822 3475 
Q 2822 3834 2567 4026 
Q 2313 4219 1838 4219 
Q 1578 4219 1281 4162 
Q 984 4106 628 3988 
L 628 4550 
Q 988 4650 1302 4700 
Q 1616 4750 1894 4750 
Q 2613 4750 3031 4423 
Q 3450 4097 3450 3541 
Q 3450 3153 3228 2886 
Q 3006 2619 2597 2516 
z
" transform="scale(0.015625)"/>
       </defs>
       <use xlink:href="#DejaVuSans-33"/>
       <use xlink:href="#DejaVuSans-2e" x="63.623047"/>
       <use xlink:href="#DejaVuSans-30" x="95.410156"/>
      </g>
     </g>
    </g>
    <g id="xtick_8">
     <g id="line2d_8">
      <g>
       <use xlink:href="#md6ae9c16c4" x="400.364759" y="307.584" style="stroke: #000000; stroke-width: 0.8"/>
      </g>
     </g>
     <g id="text_8">
      <!-- 3.5 -->
      <g transform="translate(392.413196 322.182437) scale(0.1 -0.1)">
       <use xlink:href="#DejaVuSans-33"/>
       <use xlink:href="#DejaVuSans-2e" x="63.623047"/>
       <use xlink:href="#DejaVuSans-35" x="95.410156"/>
      </g>
     </g>
    </g>
    <g id="text_9">
     <!-- 1e6 -->
     <g transform="translate(395.841875 334.860562) scale(0.1 -0.1)">
      <defs>
       <path id="DejaVuSans-65" d="M 3597 1894 
L 3597 1613 
L 953 1613 
Q 991 1019 1311 708 
Q 1631 397 2203 397 
Q 2534 397 2845 478 
Q 3156 559 3463 722 
L 3463 178 
Q 3153 47 2828 -22 
Q 2503 -91 2169 -91 
Q 1331 -91 842 396 
Q 353 884 353 1716 
Q 353 2575 817 3079 
Q 1281 3584 2069 3584 
Q 2775 3584 3186 3129 
Q 3597 2675 3597 1894 
z
M 3022 2063 
Q 3016 2534 2758 2815 
Q 2500 3097 2075 3097 
Q 1594 3097 1305 2825 
Q 1016 2553 972 2059 
L 3022 2063 
z
" transform="scale(0.015625)"/>
       <path id="DejaVuSans-36" d="M 2113 2584 
Q 1688 2584 1439 2293 
Q 1191 2003 1191 1497 
Q 1191 994 1439 701 
Q 1688 409 2113 409 
Q 2538 409 2786 701 
Q 3034 994 3034 1497 
Q 3034 2003 2786 2293 
Q 2538 2584 2113 2584 
z
M 3366 4563 
L 3366 3988 
Q 3128 4100 2886 4159 
Q 2644 4219 2406 4219 
Q 1781 4219 1451 3797 
Q 1122 3375 1075 2522 
Q 1259 2794 1537 2939 
Q 1816 3084 2150 3084 
Q 2853 3084 3261 2657 
Q 3669 2231 3669 1497 
Q 3669 778 3244 343 
Q 2819 -91 2113 -91 
Q 1303 -91 875 529 
Q 447 1150 447 2328 
Q 447 3434 972 4092 
Q 1497 4750 2381 4750 
Q 2619 4750 2861 4703 
Q 3103 4656 3366 4563 
z
" transform="scale(0.015625)"/>
      </defs>
      <use xlink:href="#DejaVuSans-31"/>
      <use xlink:href="#DejaVuSans-65" x="63.623047"/>
      <use xlink:href="#DejaVuSans-36" x="125.146484"/>
     </g>
    </g>
   </g>
   <g id="matplotlib.axis_2">
    <g id="ytick_1">
     <g id="line2d_9">
      <defs>
       <path id="mdbabb2cc6b" d="M 0 0 
L -3.5 0 
" style="stroke: #000000; stroke-width: 0.8"/>
      </defs>
      <g>
       <use xlink:href="#mdbabb2cc6b" x="57.6" y="295.488" style="stroke: #000000; stroke-width: 0.8"/>
      </g>
     </g>
     <g id="text_10">
      <!-- 0 -->
      <g transform="translate(44.2375 299.287219) scale(0.1 -0.1)">
       <use xlink:href="#DejaVuSans-30"/>
      </g>
     </g>
    </g>
    <g id="ytick_2">
     <g id="line2d_10">
      <g>
       <use xlink:href="#mdbabb2cc6b" x="57.6" y="242.896696" style="stroke: #000000; stroke-width: 0.8"/>
      </g>
     </g>
     <g id="text_11">
      <!-- 10 -->
      <g transform="translate(37.875 246.695914) scale(0.1 -0.1)">
       <use xlink:href="#DejaVuSans-31"/>
       <use xlink:href="#DejaVuSans-30" x="63.623047"/>
      </g>
     </g>
    </g>
    <g id="ytick_3">
     <g id="line2d_11">
      <g>
       <use xlink:href="#mdbabb2cc6b" x="57.6" y="190.305391" style="stroke: #000000; stroke-width: 0.8"/>
      </g>
     </g>
     <g id="text_12">
      <!-- 20 -->
      <g transform="translate(37.875 194.10461) scale(0.1 -0.1)">
       <use xlink:href="#DejaVuSans-32"/>
       <use xlink:href="#DejaVuSans-30" x="63.623047"/>
      </g>
     </g>
    </g>
    <g id="ytick_4">
     <g id="line2d_12">
      <g>
       <use xlink:href="#mdbabb2cc6b" x="57.6" y="137.714087" style="stroke: #000000; stroke-width: 0.8"/>
      </g>
     </g>
     <g id="text_13">
      <!-- 30 -->
      <g transform="translate(37.875 141.513306) scale(0.1 -0.1)">
       <use xlink:href="#DejaVuSans-33"/>
       <use xlink:href="#DejaVuSans-30" x="63.623047"/>
      </g>
     </g>
    </g>
    <g id="ytick_5">
     <g id="line2d_13">
      <g>
       <use xlink:href="#mdbabb2cc6b" x="57.6" y="85.122783" style="stroke: #000000; stroke-width: 0.8"/>
      </g>
     </g>
     <g id="text_14">
      <!-- 40 -->
      <g transform="translate(37.875 88.922001) scale(0.1 -0.1)">
       <defs>
        <path id="DejaVuSans-34" d="M 2419 4116 
L 825 1625 
L 2419 1625 
L 2419 4116 
z
M 2253 4666 
L 3047 4666 
L 3047 1625 
L 3713 1625 
L 3713 1100 
L 3047 1100 
L 3047 0 
L 2419 0 
L 2419 1100 
L 313 1100 
L 313 1709 
L 2253 4666 
z
" transform="scale(0.015625)"/>
       </defs>
       <use xlink:href="#DejaVuSans-34"/>
       <use xlink:href="#DejaVuSans-30" x="63.623047"/>
      </g>
     </g>
    </g>
   </g>
   <g id="line2d_14">
    <path d="M 73.832727 290.22887 
L 75.144536 269.192348 
L 75.353042 274.451478 
L 75.469918 269.192348 
L 75.679358 274.451478 
L 75.795299 269.192348 
L 76.004739 274.451478 
L 76.119745 269.192348 
L 76.331055 274.451478 
L 76.452606 269.192348 
L 76.663916 274.451478 
L 76.781727 269.192348 
L 76.990232 274.451478 
L 77.109913 269.192348 
L 77.314678 274.451478 
L 77.438099 269.192348 
L 77.640059 274.451478 
L 77.768155 269.192348 
L 77.971986 274.451478 
L 78.099146 269.192348 
L 78.302042 274.451478 
L 78.430137 269.192348 
L 78.629293 274.451478 
L 78.752713 269.192348 
L 78.957479 274.451478 
L 80.272093 295.488 
L 84.761042 290.22887 
L 85.020038 242.896696 
L 85.950366 227.119304 
L 86.272942 221.860174 
L 86.421608 253.414957 
L 86.539418 274.451478 
L 86.602998 269.192348 
L 86.823659 274.451478 
L 86.929314 269.192348 
L 87.142495 274.451478 
L 87.25563 269.192348 
L 87.469746 274.451478 
L 87.587556 269.192348 
L 87.792322 274.451478 
L 87.909197 269.192348 
L 88.122378 274.451478 
L 88.236448 269.192348 
L 88.448694 274.451478 
L 88.557154 269.192348 
L 88.775945 274.451478 
L 88.882536 269.192348 
L 89.106936 274.451478 
L 89.214462 269.192348 
L 89.429512 274.451478 
L 89.536103 269.192348 
L 89.755828 274.451478 
L 89.858679 269.192348 
L 90.076534 274.451478 
L 90.190605 269.192348 
L 90.401915 274.451478 
L 90.521596 269.192348 
L 90.733841 274.451478 
L 90.853522 269.192348 
L 91.055482 274.451478 
L 91.172358 269.192348 
L 91.378059 274.451478 
L 91.507089 269.192348 
L 91.709985 274.451478 
L 91.83247 269.192348 
L 92.040976 274.451478 
L 92.167201 269.192348 
L 92.372902 274.451478 
L 92.492582 269.192348 
L 92.691738 274.451478 
L 92.816093 269.192348 
L 93.026469 274.451478 
L 93.137734 269.192348 
L 93.35185 274.451478 
L 93.463115 269.192348 
L 93.686581 274.451478 
L 93.789431 269.192348 
L 94.011962 274.451478 
L 94.112007 269.192348 
L 94.335473 274.451478 
L 94.437388 269.192348 
L 94.658049 274.451478 
L 94.768379 269.192348 
L 94.98343 274.451478 
L 95.098435 269.192348 
L 95.309746 274.451478 
L 95.422881 269.192348 
L 95.631387 274.451478 
L 95.748263 269.192348 
L 95.957703 274.451478 
L 96.074579 269.192348 
L 96.287759 274.451478 
L 96.404635 269.192348 
L 96.617815 274.451478 
L 96.729081 269.192348 
L 96.942261 274.451478 
L 97.058202 269.192348 
L 97.267642 274.451478 
L 97.390128 269.192348 
L 97.593958 274.451478 
L 97.711769 269.192348 
L 97.924014 274.451478 
L 98.03528 269.192348 
L 98.248461 274.451478 
L 98.362531 269.192348 
L 98.577582 274.451478 
L 98.909508 279.710609 
L 99.015163 274.451478 
L 99.231149 279.710609 
L 99.334934 274.451478 
L 99.555595 279.710609 
L 99.669665 274.451478 
L 99.881911 279.710609 
L 100.003461 274.451478 
L 100.336322 269.192348 
L 100.534543 274.451478 
L 100.669183 269.192348 
L 100.854314 274.451478 
L 100.993629 269.192348 
L 101.189045 274.451478 
L 101.32088 269.192348 
L 101.522841 274.451478 
L 101.653741 269.192348 
L 101.855702 274.451478 
L 101.981927 269.192348 
L 102.188563 274.451478 
L 102.308244 269.192348 
L 102.513009 274.451478 
L 102.629885 269.192348 
L 102.841195 274.451478 
L 102.949656 269.192348 
L 103.173121 274.451478 
L 103.276907 269.192348 
L 103.502242 274.451478 
L 103.603223 269.192348 
L 103.827623 274.451478 
L 103.930474 269.192348 
L 104.149264 274.451478 
L 104.257725 269.192348 
L 104.469035 274.451478 
L 104.586846 269.192348 
L 104.797222 274.451478 
L 104.914097 269.192348 
L 105.122603 274.451478 
L 105.244153 269.192348 
L 105.449854 274.451478 
L 105.571404 269.192348 
L 105.777105 274.451478 
L 105.89211 269.192348 
L 106.106226 274.451478 
L 106.222166 269.192348 
L 106.433477 274.451478 
L 106.550352 269.192348 
L 106.763533 274.451478 
L 106.875733 269.192348 
L 107.090784 274.451478 
L 107.194569 269.192348 
L 107.41149 274.451478 
L 107.52369 269.192348 
L 107.741546 274.451478 
L 107.847201 269.192348 
L 108.069732 274.451478 
L 108.174452 269.192348 
L 108.395113 274.451478 
L 108.504508 269.192348 
L 108.713949 274.451478 
L 108.830824 269.192348 
L 109.04307 274.451478 
L 109.159945 269.192348 
L 109.366581 274.451478 
L 109.484392 269.192348 
L 109.693832 274.451478 
L 109.806968 269.192348 
L 110.023888 274.451478 
L 110.128609 269.192348 
L 110.350204 274.451478 
L 110.454925 269.192348 
L 110.68026 274.451478 
L 110.779371 269.192348 
L 111.003771 274.451478 
L 111.106622 269.192348 
L 111.326347 274.451478 
L 111.435743 269.192348 
L 111.648923 274.451478 
L 112.955123 295.488 
L 113.484334 284.969739 
L 114.646543 258.674087 
L 114.771833 263.933217 
L 114.877489 258.674087 
L 115.006519 263.933217 
L 115.11311 258.674087 
L 115.233725 263.933217 
L 115.34499 258.674087 
L 115.465606 263.933217 
L 115.578741 258.674087 
L 115.697486 263.933217 
L 115.814362 258.674087 
L 115.932172 263.933217 
L 116.047178 258.674087 
L 116.167793 263.933217 
L 116.287473 258.674087 
L 116.399674 263.933217 
L 116.521224 258.674087 
L 116.635294 263.933217 
L 116.754975 258.674087 
L 116.867175 263.933217 
L 116.988726 258.674087 
L 117.099991 263.933217 
L 117.216866 258.674087 
L 117.335612 263.933217 
L 117.454357 258.674087 
L 117.569362 263.933217 
L 117.684368 258.674087 
L 117.808723 263.933217 
L 117.924664 258.674087 
L 129.22137 253.414957 
L 129.424265 185.046261 
L 129.497196 190.305391 
L 129.624356 185.046261 
L 129.881482 100.900174 
L 129.959087 106.159304 
L 130.073158 100.900174 
L 130.195643 106.159304 
L 130.300363 100.900174 
L 130.425654 106.159304 
L 130.539724 100.900174 
L 130.743555 111.418435 
L 130.945515 179.78713 
L 131.013771 174.528 
L 131.146541 179.78713 
L 131.230691 211.341913 
L 131.251261 206.082783 
L 131.488752 200.823652 
L 131.622457 211.341913 
L 131.650508 221.860174 
L 131.720633 216.601043 
L 131.950644 211.341913 
L 132.121749 216.601043 
L 132.163824 232.378435 
L 132.185329 227.119304 
L 132.646286 216.601043 
L 132.697711 237.637565 
L 133.117527 227.119304 
L 133.185782 248.155826 
L 133.585964 237.637565 
L 133.684139 258.674087 
L 133.82065 253.414957 
L 134.0544 248.155826 
L 134.170341 258.674087 
L 134.189041 263.933217 
L 134.289086 258.674087 
L 134.407831 263.933217 
L 134.516292 258.674087 
L 134.700487 263.933217 
L 134.750978 258.674087 
L 146.051424 253.414957 
L 146.253384 185.046261 
L 146.328185 190.305391 
L 146.45441 185.046261 
L 146.719951 90.381913 
L 146.795686 95.641043 
L 146.933132 90.381913 
L 147.031307 95.641043 
L 147.164077 90.381913 
L 147.258513 95.641043 
L 147.390348 90.381913 
L 147.588569 106.159304 
L 147.775569 169.26887 
L 147.852239 164.009739 
L 147.976595 169.26887 
L 148.02802 190.305391 
L 148.08599 185.046261 
L 148.315066 190.305391 
L 148.322546 185.046261 
L 148.356206 200.823652 
L 148.784437 190.305391 
L 148.880743 200.823652 
L 148.921883 216.601043 
L 149.012578 211.341913 
L 149.248199 206.082783 
L 149.409019 211.341913 
L 149.45016 227.119304 
L 149.481015 221.860174 
L 149.71196 216.601043 
L 149.923271 221.860174 
L 149.951321 227.119304 
L 150.177592 221.860174 
L 150.393578 227.119304 
L 150.435653 237.637565 
L 150.876039 227.119304 
L 150.959254 242.896696 
L 150.973279 248.155826 
L 151.344476 237.637565 
L 151.454806 248.155826 
L 151.482856 258.674087 
L 151.581966 253.414957 
L 157.27146 248.155826 
L 157.27707 253.414957 
L 157.354675 227.119304 
L 157.47342 185.046261 
L 157.542611 190.305391 
L 157.651071 179.78713 
L 157.774491 185.046261 
L 157.883887 179.78713 
L 158.008242 185.046261 
L 158.118572 179.78713 
L 158.238253 185.046261 
L 158.354193 179.78713 
L 158.476679 185.046261 
L 158.587009 179.78713 
L 158.793645 190.305391 
L 158.995605 258.674087 
L 159.042355 253.414957 
L 159.172321 263.933217 
L 159.277976 258.674087 
L 159.405137 263.933217 
L 159.514532 258.674087 
L 159.640757 263.933217 
L 159.751088 258.674087 
L 159.875443 263.933217 
L 159.984838 258.674087 
L 160.108259 263.933217 
L 160.223264 258.674087 
L 160.337335 263.933217 
L 160.458885 258.674087 
L 160.56454 263.933217 
L 160.690766 258.674087 
L 160.800161 263.933217 
L 160.925451 258.674087 
L 161.036717 263.933217 
L 161.273273 269.192348 
L 161.394823 263.933217 
L 161.507023 269.192348 
L 161.626704 263.933217 
L 161.744514 269.192348 
L 161.862324 263.933217 
L 161.980135 269.192348 
L 162.09327 263.933217 
L 162.212016 269.192348 
L 162.328891 263.933217 
L 162.446701 269.192348 
L 162.566382 263.933217 
L 162.800132 258.674087 
L 174.096839 253.414957 
L 179.711532 248.155826 
L 179.899467 190.305391 
L 179.978007 195.564522 
L 180.113583 190.305391 
L 180.380059 95.641043 
L 180.445509 100.900174 
L 180.564254 95.641043 
L 180.680195 100.900174 
L 180.79894 95.641043 
L 180.91862 100.900174 
L 181.036431 95.641043 
L 181.233716 106.159304 
L 181.421652 164.009739 
L 181.506737 158.750609 
L 181.635768 164.009739 
L 181.742358 200.823652 
L 181.973304 195.564522 
L 182.134124 200.823652 
L 182.176199 216.601043 
L 182.212665 211.341913 
L 182.446415 206.082783 
L 182.679231 206.082783 
L 182.721306 221.860174 
L 183.144863 211.341913 
L 183.181328 227.119304 
L 183.613299 216.601043 
L 183.685294 237.637565 
L 184.081736 227.119304 
L 184.172431 242.896696 
L 184.186456 248.155826 
L 184.309876 242.896696 
L 184.544562 237.637565 
L 184.660502 248.155826 
L 184.675463 253.414957 
L 184.773638 248.155826 
L 184.882098 253.414957 
L 185.010194 248.155826 
L 185.147639 258.674087 
L 185.242074 253.414957 
L 185.369235 258.674087 
L 185.479565 253.414957 
L 185.663761 258.674087 
L 185.714251 253.414957 
L 185.831126 258.674087 
L 185.950807 253.414957 
L 186.066747 258.674087 
L 186.184557 253.414957 
L 186.294888 258.674087 
L 186.418308 253.414957 
L 186.532378 258.674087 
L 186.653929 253.414957 
L 186.763324 258.674087 
L 186.88955 253.414957 
L 187.00175 258.674087 
L 187.126105 253.414957 
L 187.236436 258.674087 
L 187.364531 253.414957 
L 187.472056 258.674087 
L 188.411734 279.710609 
L 188.60528 274.451478 
L 188.64829 279.710609 
L 188.886716 284.969739 
L 188.937206 279.710609 
L 189.920829 263.933217 
L 190.12466 269.192348 
L 190.24434 263.933217 
L 190.456586 269.192348 
L 190.576266 263.933217 
L 190.781032 269.192348 
L 190.906322 263.933217 
L 191.112023 269.192348 
L 191.229834 263.933217 
L 191.440209 269.192348 
L 191.55241 263.933217 
L 191.764655 269.192348 
L 191.879661 263.933217 
L 192.095646 269.192348 
L 192.211587 263.933217 
L 192.425702 269.192348 
L 192.530423 263.933217 
L 192.749213 269.192348 
L 192.852999 263.933217 
L 193.071789 269.192348 
L 193.18025 263.933217 
L 193.399975 269.192348 
L 193.518721 263.933217 
L 193.730967 269.192348 
L 193.839427 263.933217 
L 194.050738 269.192348 
L 194.163873 263.933217 
L 194.373314 269.192348 
L 194.488319 263.933217 
L 194.69963 269.192348 
L 194.818375 263.933217 
L 195.038101 269.192348 
L 195.137211 263.933217 
L 195.358807 269.192348 
L 195.464462 263.933217 
L 195.684188 269.192348 
L 195.790778 263.933217 
L 196.007699 269.192348 
L 196.114289 263.933217 
L 196.337755 269.192348 
L 196.442475 263.933217 
L 202.159084 258.674087 
L 213.38847 253.414957 
L 213.56425 227.119304 
L 213.799871 221.860174 
L 213.813896 227.119304 
L 213.855036 216.601043 
L 214.058867 179.78713 
L 214.140212 185.046261 
L 214.464658 190.305391 
L 214.742354 185.046261 
L 215.08363 227.119304 
L 215.320186 232.378435 
L 215.348236 237.637565 
L 215.398726 232.378435 
L 215.529626 242.896696 
L 215.724107 237.637565 
L 215.891473 242.896696 
L 215.918588 248.155826 
L 216.055098 242.896696 
L 216.231814 248.155826 
L 216.259864 253.414957 
L 216.382349 248.155826 
L 216.592725 253.414957 
L 216.620775 258.674087 
L 216.714275 253.414957 
L 216.941481 258.674087 
L 216.969531 263.933217 
L 217.040591 258.674087 
L 217.339792 263.933217 
L 217.371582 258.674087 
L 217.375322 263.933217 
L 217.697898 258.674087 
L 217.703508 263.933217 
L 217.901729 269.192348 
L 218.025149 263.933217 
L 218.23459 269.192348 
L 218.3524 263.933217 
L 218.559971 269.192348 
L 218.681521 263.933217 
L 218.890962 269.192348 
L 219.015318 263.933217 
L 219.217278 269.192348 
L 219.345374 263.933217 
L 219.544529 269.192348 
L 219.66421 263.933217 
L 219.87178 269.192348 
L 220.001746 263.933217 
L 220.200901 269.192348 
L 220.334607 263.933217 
L 220.535632 269.192348 
L 220.659053 263.933217 
L 220.864753 269.192348 
L 220.984434 263.933217 
L 221.18359 269.192348 
L 221.311685 263.933217 
L 221.521126 269.192348 
L 221.644546 263.933217 
L 221.853987 269.192348 
L 221.971797 263.933217 
L 222.178433 269.192348 
L 222.302788 263.933217 
L 222.503814 269.192348 
L 222.637519 263.933217 
L 222.831065 269.192348 
L 222.96103 263.933217 
L 223.164861 269.192348 
L 223.280801 263.933217 
L 223.491177 269.192348 
L 223.603377 263.933217 
L 223.823103 269.192348 
L 223.934368 263.933217 
L 224.157834 269.192348 
L 224.270034 263.933217 
L 224.48041 269.192348 
L 224.58887 263.933217 
L 224.800181 269.192348 
L 224.910511 263.933217 
L 225.122757 269.192348 
L 225.234957 263.933217 
L 225.453748 269.192348 
L 225.559404 263.933217 
L 225.789414 269.192348 
L 225.89133 263.933217 
L 226.10825 269.192348 
L 226.216711 263.933217 
L 226.429891 269.192348 
L 226.543962 263.933217 
L 226.754337 269.192348 
L 227.079718 274.451478 
L 227.198464 269.192348 
L 227.410709 274.451478 
L 227.51917 269.192348 
L 231.453662 206.082783 
L 231.645338 211.341913 
L 231.785588 206.082783 
L 232.021209 211.341913 
L 232.049259 216.601043 
L 232.108165 211.341913 
L 232.37464 216.601043 
L 232.401755 221.860174 
L 232.435416 216.601043 
L 232.727136 221.860174 
L 232.755187 227.119304 
L 232.757057 221.860174 
L 233.103008 227.119304 
L 233.131058 232.378435 
L 233.471399 237.637565 
L 233.499449 242.896696 
L 233.829505 248.155826 
L 233.857555 253.414957 
L 234.133381 248.155826 
L 234.220336 258.674087 
L 234.502707 248.155826 
L 234.574702 258.674087 
L 234.875773 248.155826 
L 234.933744 258.674087 
L 235.255385 248.155826 
L 235.266605 253.414957 
L 235.629386 242.896696 
L 235.655566 248.155826 
L 235.817321 242.896696 
L 235.840696 248.155826 
L 236.006192 242.896696 
L 236.024892 248.155826 
L 236.195998 242.896696 
L 236.209088 248.155826 
L 236.381128 242.896696 
L 236.397958 248.155826 
L 236.565324 242.896696 
L 236.587764 248.155826 
L 236.747649 242.896696 
L 236.777569 248.155826 
L 236.93278 242.896696 
L 236.96831 248.155826 
L 237.117911 242.896696 
L 237.151571 248.155826 
L 237.302106 242.896696 
L 237.339506 248.155826 
L 237.488172 242.896696 
L 237.528377 248.155826 
L 237.677042 242.896696 
L 237.718182 248.155826 
L 237.867783 242.896696 
L 237.903313 248.155826 
L 238.056654 242.896696 
L 238.087509 248.155826 
L 238.245524 242.896696 
L 238.269834 248.155826 
L 238.43159 242.896696 
L 238.454965 248.155826 
L 238.621395 242.896696 
L 238.63916 248.155826 
L 238.802786 242.896696 
L 238.823356 248.155826 
L 238.990722 242.896696 
L 239.010357 248.155826 
L 239.172112 242.896696 
L 239.199227 248.155826 
L 239.360048 242.896696 
L 239.389968 248.155826 
L 239.547983 242.896696 
L 239.577903 248.155826 
L 239.731244 242.896696 
L 239.766774 248.155826 
L 239.918245 242.896696 
L 239.953775 248.155826 
L 240.10618 242.896696 
L 240.14358 248.155826 
L 240.297856 242.896696 
L 240.324971 248.155826 
L 240.483921 242.896696 
L 240.511971 248.155826 
L 240.672792 242.896696 
L 240.694297 248.155826 
L 240.860728 242.896696 
L 240.881298 248.155826 
L 241.044923 242.896696 
L 241.070168 248.155826 
L 241.228184 242.896696 
L 241.253429 248.155826 
L 241.417989 242.896696 
L 241.440429 248.155826 
L 241.6106 242.896696 
L 241.628365 248.155826 
L 241.801341 242.896696 
L 241.819106 248.155826 
L 241.987406 242.896696 
L 242.006106 248.155826 
L 242.173472 242.896696 
L 242.194977 248.155826 
L 242.360472 242.896696 
L 242.381977 248.155826 
L 242.546538 242.896696 
L 242.567108 248.155826 
L 242.737279 242.896696 
L 242.750369 248.155826 
L 242.928954 242.896696 
L 242.940174 248.155826 
L 243.11689 242.896696 
L 243.132785 248.155826 
L 243.306695 242.896696 
L 243.323525 248.155826 
L 243.492761 242.896696 
L 243.509591 248.155826 
L 243.681632 242.896696 
L 243.695657 248.155826 
L 243.873307 242.896696 
L 243.882657 248.155826 
L 244.057503 242.896696 
L 244.068723 248.155826 
L 244.248243 242.896696 
L 244.259463 248.155826 
L 244.432439 242.896696 
L 244.451139 248.155826 
L 244.622245 242.896696 
L 244.639075 248.155826 
L 244.805505 242.896696 
L 244.82888 248.155826 
L 244.997181 242.896696 
L 245.014946 248.155826 
L 245.185116 242.896696 
L 245.203816 248.155826 
L 245.372117 242.896696 
L 245.394557 248.155826 
L 245.561923 242.896696 
L 245.579688 248.155826 
L 245.750793 242.896696 
L 245.770428 248.155826 
L 245.934989 242.896696 
L 245.954624 248.155826 
L 246.124794 242.896696 
L 246.144429 248.155826 
L 246.31273 242.896696 
L 246.32769 248.155826 
L 246.498796 242.896696 
L 246.518431 248.155826 
L 246.687666 242.896696 
L 246.707301 248.155826 
L 246.870927 242.896696 
L 246.894302 248.155826 
L 247.060732 242.896696 
L 247.084108 248.155826 
L 247.249603 242.896696 
L 247.272978 248.155826 
L 247.434734 242.896696 
L 247.457174 248.155826 
L 247.619864 242.896696 
L 247.646979 248.155826 
L 247.8078 242.896696 
L 247.834915 248.155826 
L 247.99293 242.896696 
L 248.020981 248.155826 
L 248.179931 242.896696 
L 248.209851 248.155826 
L 248.365997 242.896696 
L 248.393112 248.155826 
L 248.552062 242.896696 
L 248.582917 248.155826 
L 248.736258 242.896696 
L 248.771788 248.155826 
L 248.926998 242.896696 
L 248.956919 248.155826 
L 249.113999 242.896696 
L 249.142049 248.155826 
L 249.30661 242.896696 
L 249.329985 248.155826 
L 249.496415 242.896696 
L 249.515115 248.155826 
L 249.685286 242.896696 
L 249.702116 248.155826 
L 249.872286 242.896696 
L 249.888181 248.155826 
L 250.058352 242.896696 
L 250.074247 248.155826 
L 250.247223 242.896696 
L 250.258443 248.155826 
L 250.435158 242.896696 
L 250.449183 248.155826 
L 250.621224 242.896696 
L 250.636184 248.155826 
L 250.811964 242.896696 
L 250.828795 248.155826 
L 250.998965 242.896696 
L 251.0186 248.155826 
L 251.188771 242.896696 
L 251.207471 248.155826 
L 251.374836 242.896696 
L 251.394471 248.155826 
L 251.567447 242.896696 
L 251.580537 248.155826 
L 251.753512 242.896696 
L 251.769408 248.155826 
L 251.936773 242.896696 
L 251.957343 248.155826 
L 252.121904 242.896696 
L 252.143409 248.155826 
L 252.306099 242.896696 
L 252.334149 248.155826 
L 252.49684 242.896696 
L 252.52115 248.155826 
L 252.686645 242.896696 
L 252.710956 248.155826 
L 252.868971 242.896696 
L 252.897021 248.155826 
L 253.053167 242.896696 
L 253.089632 248.155826 
L 253.239232 242.896696 
L 253.275697 248.155826 
L 253.426233 242.896696 
L 253.458958 248.155826 
L 253.612298 242.896696 
L 253.644089 248.155826 
L 253.795559 242.896696 
L 253.828284 248.155826 
L 253.981625 242.896696 
L 254.019025 248.155826 
L 254.17143 242.896696 
L 254.20883 248.155826 
L 254.355626 242.896696 
L 254.391156 248.155826 
L 254.543561 242.896696 
L 254.575352 248.155826 
L 254.728692 242.896696 
L 254.761417 248.155826 
L 254.911018 242.896696 
L 254.948418 248.155826 
L 255.095213 242.896696 
L 255.134483 248.155826 
L 255.279409 242.896696 
L 255.317744 248.155826 
L 255.470149 242.896696 
L 255.503809 248.155826 
L 255.65715 242.896696 
L 255.69268 248.155826 
L 255.844151 242.896696 
L 255.877811 248.155826 
L 256.031151 242.896696 
L 256.065746 248.155826 
L 256.213477 242.896696 
L 256.250877 248.155826 
L 256.401412 242.896696 
L 256.433202 248.155826 
L 256.588413 242.896696 
L 256.617398 248.155826 
L 256.770739 242.896696 
L 256.801594 248.155826 
L 256.956804 242.896696 
L 256.992334 248.155826 
L 257.140065 242.896696 
L 257.179335 248.155826 
L 257.328 242.896696 
L 257.366335 248.155826 
L 257.514066 242.896696 
L 257.553336 248.155826 
L 257.706677 242.896696 
L 257.735662 248.155826 
L 257.892742 242.896696 
L 257.923597 248.155826 
L 258.083483 242.896696 
L 258.110598 248.155826 
L 258.266743 242.896696 
L 258.292923 248.155826 
L 259.788928 290.22887 
L 264.062827 284.969739 
L 264.273203 279.710609 
L 264.523783 164.009739 
L 264.825789 153.491478 
L 265.581272 132.454957 
L 265.584077 137.714087 
L 265.763597 132.454957 
L 265.851488 164.009739 
L 266.045968 248.155826 
L 266.136664 242.896696 
L 266.159104 248.155826 
L 266.510665 237.637565 
L 266.566765 248.155826 
L 266.699535 242.896696 
L 266.725715 248.155826 
L 266.886536 242.896696 
L 266.917391 248.155826 
L 267.073537 242.896696 
L 267.102522 248.155826 
L 267.264277 242.896696 
L 267.285782 248.155826 
L 267.453148 242.896696 
L 267.471848 248.155826 
L 267.637343 242.896696 
L 267.658848 248.155826 
L 267.823409 242.896696 
L 267.844914 248.155826 
L 268.011345 242.896696 
L 268.03285 248.155826 
L 268.19741 242.896696 
L 268.22172 248.155826 
L 268.382541 242.896696 
L 268.408721 248.155826 
L 268.571411 242.896696 
L 268.595721 248.155826 
L 268.758412 242.896696 
L 268.786462 248.155826 
L 268.941673 242.896696 
L 268.975333 248.155826 
L 269.123998 242.896696 
L 269.159528 248.155826 
L 269.311934 242.896696 
L 269.345594 248.155826 
L 275.085577 242.896696 
L 275.143547 248.155826 
L 275.329613 253.414957 
L 275.492304 248.155826 
L 275.743819 142.973217 
L 275.85789 137.714087 
L 275.88968 142.973217 
L 276.043955 137.714087 
L 276.073875 142.973217 
L 276.234696 137.714087 
L 276.256201 142.973217 
L 276.421697 137.714087 
L 276.444137 142.973217 
L 276.607762 148.232348 
L 276.610567 142.973217 
L 276.978958 132.454957 
L 277.059369 158.750609 
L 277.266004 248.155826 
L 277.35296 242.896696 
L 277.380075 248.155826 
L 277.544635 242.896696 
L 277.56614 248.155826 
L 277.730701 242.896696 
L 277.756881 248.155826 
L 277.922376 242.896696 
L 277.943881 248.155826 
L 278.110312 242.896696 
L 278.132752 248.155826 
L 278.299183 242.896696 
L 278.316013 248.155826 
L 278.491793 242.896696 
L 278.501143 248.155826 
L 278.676924 242.896696 
L 278.686274 248.155826 
L 278.864859 242.896696 
L 278.875144 248.155826 
L 279.04812 242.896696 
L 279.06682 248.155826 
L 279.235121 242.896696 
L 279.252886 248.155826 
L 279.418381 242.896696 
L 279.444561 248.155826 
L 279.605382 242.896696 
L 279.632497 248.155826 
L 279.795187 242.896696 
L 279.821367 248.155826 
L 279.982188 242.896696 
L 280.013978 248.155826 
L 280.167319 242.896696 
L 280.199109 248.155826 
L 280.356189 242.896696 
L 280.387044 248.155826 
L 280.542255 242.896696 
L 280.570305 248.155826 
L 291.916566 242.896696 
L 291.977341 248.155826 
L 292.080192 237.637565 
L 292.253167 164.009739 
L 292.346668 169.26887 
L 292.477568 158.750609 
L 292.717864 53.568 
L 292.724409 58.82713 
L 292.901124 53.568 
L 292.909539 58.82713 
L 293.084385 53.568 
L 293.09841 58.82713 
L 293.272321 53.568 
L 293.283541 58.82713 
L 293.437816 64.086261 
L 293.461191 58.82713 
L 293.591157 64.086261 
L 293.775352 142.973217 
L 293.837997 137.714087 
L 293.988533 142.973217 
L 294.068008 174.528 
L 294.210129 169.26887 
L 294.317654 179.78713 
L 294.339159 190.305391 
L 294.395259 185.046261 
L 294.583195 179.78713 
L 294.7543 185.046261 
L 294.787025 195.564522 
L 295.147002 185.046261 
L 295.276967 195.564522 
L 295.298472 206.082783 
L 295.335872 200.823652 
L 295.710808 190.305391 
L 295.777194 211.341913 
L 295.894069 206.082783 
L 296.07733 200.823652 
L 296.211035 206.082783 
L 296.244695 221.860174 
L 296.267135 216.601043 
L 296.640201 206.082783 
L 296.727157 221.860174 
L 296.738377 227.119304 
L 296.828137 221.860174 
L 297.196528 211.341913 
L 297.247018 232.378435 
L 297.573334 221.860174 
L 297.70704 227.119304 
L 297.7407 242.896696 
L 297.756595 237.637565 
L 298.135271 227.119304 
L 298.231576 237.637565 
L 298.334427 242.896696 
L 298.693468 232.378435 
L 298.764528 248.155826 
L 298.875793 242.896696 
L 299.062794 237.637565 
L 299.078689 242.896696 
L 299.249795 237.637565 
L 299.29748 248.155826 
L 299.440535 242.896696 
L 299.46765 248.155826 
L 299.627536 242.896696 
L 299.770591 248.155826 
L 299.814537 242.896696 
L 299.841652 248.155826 
L 299.997797 242.896696 
L 300.028652 248.155826 
L 300.182928 242.896696 
L 300.215653 248.155826 
L 300.368993 242.896696 
L 300.397978 248.155826 
L 300.555994 242.896696 
L 300.584979 248.155826 
L 300.742059 242.896696 
L 300.77198 248.155826 
L 300.929995 242.896696 
L 300.96272 248.155826 
L 301.117931 242.896696 
L 301.149721 248.155826 
L 301.303996 242.896696 
L 301.336721 248.155826 
L 301.490062 242.896696 
L 301.519982 248.155826 
L 301.680802 242.896696 
L 301.705113 248.155826 
L 301.865933 242.896696 
L 301.891178 248.155826 
L 302.054804 242.896696 
L 302.078179 248.155826 
L 302.242739 242.896696 
L 302.264244 248.155826 
L 302.430675 242.896696 
L 302.45218 248.155826 
L 302.621415 242.896696 
L 302.640116 248.155826 
L 302.808416 242.896696 
L 302.826181 248.155826 
L 302.991677 242.896696 
L 303.012247 248.155826 
L 303.176807 242.896696 
L 303.202987 248.155826 
L 303.363808 242.896696 
L 303.388118 248.155826 
L 303.552678 242.896696 
L 303.576989 248.155826 
L 303.744354 242.896696 
L 303.764924 248.155826 
L 303.933225 242.896696 
L 303.95286 248.155826 
L 304.1249 242.896696 
L 304.142665 248.155826 
L 304.316576 242.896696 
L 304.330601 248.155826 
L 304.501707 242.896696 
L 304.513862 248.155826 
L 304.693382 242.896696 
L 304.698992 248.155826 
L 304.882253 242.896696 
L 304.885993 248.155826 
L 305.071123 242.896696 
L 305.074863 248.155826 
L 305.259994 242.896696 
L 305.265604 248.155826 
L 306.404438 279.710609 
L 306.511028 274.451478 
L 306.782179 284.969739 
L 306.838279 279.710609 
L 307.831252 263.933217 
L 308.030408 269.192348 
L 308.154763 263.933217 
L 308.357659 269.192348 
L 308.479209 263.933217 
L 308.68491 269.192348 
L 319.976941 263.933217 
L 320.144307 258.674087 
L 320.320087 232.378435 
L 320.527658 227.119304 
L 320.787589 185.046261 
L 320.894179 190.305391 
L 320.952149 185.046261 
L 321.218625 190.305391 
L 321.280335 185.046261 
L 321.496321 190.305391 
L 321.616001 185.046261 
L 321.804872 216.601043 
L 321.839467 221.860174 
L 321.936707 216.601043 
L 322.076958 227.119304 
L 322.132123 237.637565 
L 322.268633 232.378435 
L 327.475665 148.232348 
L 331.075427 90.381913 
L 331.296087 95.641043 
L 342.409533 90.381913 
L 342.509578 95.641043 
L 342.613364 90.381913 
L 342.704994 111.418435 
L 342.848984 100.900174 
L 343.0818 64.086261 
L 343.082735 69.345391 
L 343.190261 64.086261 
L 343.452061 69.345391 
L 343.480111 74.604522 
L 343.513772 69.345391 
L 343.837283 74.604522 
L 343.839153 69.345391 
L 343.865333 74.604522 
L 344.172014 69.345391 
L 344.215959 79.863652 
L 344.49833 74.604522 
L 344.607725 85.122783 
L 344.829321 79.863652 
L 344.936846 90.381913 
L 345.157507 85.122783 
L 345.305237 95.641043 
L 345.478213 90.381913 
L 345.656798 95.641043 
L 345.684849 100.900174 
L 345.811074 95.641043 
L 346.03454 100.900174 
L 346.06259 106.159304 
L 346.130845 100.900174 
L 346.370206 106.159304 
L 346.398256 111.418435 
L 346.457161 106.159304 
L 346.732987 111.418435 
L 346.761037 116.677565 
L 346.781607 111.418435 
L 347.077068 116.677565 
L 347.105118 121.936696 
L 347.417409 127.195826 
L 347.436109 121.936696 
L 347.444524 127.195826 
L 347.762425 121.936696 
L 347.835355 132.454957 
L 348.091546 127.195826 
L 348.215902 137.714087 
L 348.537543 142.973217 
L 348.565593 148.232348 
L 348.894714 153.491478 
L 348.921829 158.750609 
L 349.244405 164.009739 
L 349.27152 169.26887 
L 349.566981 174.528 
L 349.595031 179.78713 
L 349.920412 185.046261 
L 349.948462 190.305391 
L 350.273843 195.564522 
L 350.301893 200.823652 
L 350.674959 206.082783 
L 350.702075 211.341913 
L 354.041905 206.082783 
L 354.181221 158.750609 
L 354.284071 121.936696 
L 354.703887 111.418435 
L 354.860968 116.677565 
L 354.889018 121.936696 
L 354.937638 116.677565 
L 355.171389 111.418435 
L 355.250864 121.936696 
L 355.406075 116.677565 
L 355.58653 121.936696 
L 355.613645 127.195826 
L 355.637955 121.936696 
L 355.867966 116.677565 
L 355.959596 127.195826 
L 356.104522 121.936696 
L 356.303678 127.195826 
L 356.331728 132.454957 
L 356.337338 127.195826 
L 356.567348 121.936696 
L 356.727234 132.454957 
L 356.804839 127.195826 
L 357.0442 121.936696 
L 357.09095 132.454957 
L 357.278886 127.195826 
L 357.437836 132.454957 
L 357.461211 137.714087 
L 357.513571 132.454957 
L 357.753867 127.195826 
L 357.833342 142.973217 
L 357.847367 148.232348 
L 357.987618 142.973217 
L 358.159658 148.232348 
L 358.201734 164.009739 
L 358.223239 158.750609 
L 358.461664 153.491478 
L 358.581345 164.009739 
L 358.60846 174.528 
L 358.695415 169.26887 
L 358.909531 174.528 
L 358.951606 185.046261 
L 359.166657 179.78713 
L 359.296622 190.305391 
L 359.324672 200.823652 
L 359.402277 195.564522 
L 359.635093 190.305391 
L 359.711763 211.341913 
L 360.10727 200.823652 
L 360.23256 206.082783 
L 360.2737 221.860174 
L 360.34476 216.601043 
L 360.576641 211.341913 
L 360.809457 216.601043 
L 360.812262 211.341913 
L 360.851532 227.119304 
L 361.277893 216.601043 
L 361.363914 232.378435 
L 361.377939 237.637565 
L 361.749135 227.119304 
L 361.85479 237.637565 
L 361.88284 248.155826 
L 361.981016 242.896696 
L 362.217571 237.637565 
L 362.381197 242.896696 
L 362.427947 258.674087 
L 362.453192 253.414957 
L 362.690683 248.155826 
L 362.870204 253.414957 
L 362.889839 258.674087 
L 362.925369 253.414957 
L 363.037569 258.674087 
L 363.15725 253.414957 
L 363.270385 258.674087 
L 363.391935 253.414957 
L 363.502266 258.674087 
L 363.626621 253.414957 
L 363.739756 258.674087 
L 363.863177 253.414957 
L 363.975377 258.674087 
L 364.098798 253.414957 
L 364.212868 258.674087 
L 364.328808 253.414957 
L 364.447554 258.674087 
L 364.565364 253.414957 
L 364.678499 258.674087 
L 364.80379 253.414957 
L 376.062161 248.155826 
L 376.264122 179.78713 
L 376.368842 185.046261 
L 376.474497 174.528 
L 376.731623 85.122783 
L 376.840083 90.381913 
L 376.919559 85.122783 
L 377.071029 90.381913 
L 377.153309 85.122783 
L 377.307585 90.381913 
L 377.387995 85.122783 
L 377.546011 90.381913 
L 377.668496 121.936696 
L 377.786306 164.009739 
L 377.858302 158.750609 
L 377.987332 164.009739 
L 378.024732 179.78713 
L 378.095792 174.528 
L 378.297753 179.78713 
L 378.352918 195.564522 
L 378.78676 185.046261 
L 378.87465 206.082783 
L 379.0149 200.823652 
L 379.251456 195.564522 
L 379.347761 211.341913 
L 379.361786 216.601043 
L 379.481467 211.341913 
L 379.716153 206.082783 
L 379.824613 216.601043 
L 379.838638 221.860174 
L 379.948968 216.601043 
L 380.183654 211.341913 
L 380.295854 221.860174 
L 380.32484 232.378435 
L 380.41647 227.119304 
L 380.651156 221.860174 
L 380.854986 227.119304 
L 380.897061 237.637565 
L 381.354278 227.119304 
L 381.414118 248.155826 
L 381.585224 242.896696 
L 392.892215 237.637565 
L 392.927745 242.896696 
L 392.989455 216.601043 
L 393.092305 179.78713 
L 393.157756 185.046261 
L 393.304551 179.78713 
L 393.558872 90.381913 
L 393.630867 95.641043 
L 393.736523 90.381913 
L 393.863683 95.641043 
L 393.969338 90.381913 
L 394.096499 95.641043 
L 394.207764 90.381913 
L 394.4144 100.900174 
L 394.61449 169.26887 
L 394.667785 164.009739 
L 394.826736 169.26887 
L 394.867876 185.046261 
L 394.900601 179.78713 
L 395.035242 190.305391 
L 395.062357 200.823652 
L 395.135287 195.564522 
L 395.371843 190.305391 
L 395.531728 195.564522 
L 395.573803 211.341913 
L 395.604658 206.082783 
L 396.07403 195.564522 
L 396.11891 216.601043 
L 396.536856 206.082783 
L 396.619137 227.119304 
L 396.766867 221.860174 
L 396.996878 216.601043 
L 397.089443 237.637565 
L 397.230629 232.378435 
L 397.464379 227.119304 
L 397.558815 237.637565 
L 397.58593 248.155826 
L 397.697195 242.896696 
L 397.929076 237.637565 
L 398.041276 248.155826 
L 398.074936 258.674087 
L 398.167502 253.414957 
L 398.405927 248.155826 
L 398.487273 253.414957 
L 398.487273 253.414957 
" clip-path="url(#p4e955620d4)" style="fill: none; stroke: #1f77b4; stroke-width: 1.5; stroke-linecap: square"/>
   </g>
   <g id="patch_3">
    <path d="M 57.6 307.584 
L 57.6 41.472 
" style="fill: none; stroke: #000000; stroke-width: 0.8; stroke-linejoin: miter; stroke-linecap: square"/>
   </g>
   <g id="patch_4">
    <path d="M 414.72 307.584 
L 414.72 41.472 
" style="fill: none; stroke: #000000; stroke-width: 0.8; stroke-linejoin: miter; stroke-linecap: square"/>
   </g>
   <g id="patch_5">
    <path d="M 57.6 307.584 
L 414.72 307.584 
" style="fill: none; stroke: #000000; stroke-width: 0.8; stroke-linejoin: miter; stroke-linecap: square"/>
   </g>
   <g id="patch_6">
    <path d="M 57.6 41.472 
L 414.72 41.472 
" style="fill: none; stroke: #000000; stroke-width: 0.8; stroke-linejoin: miter; stroke-linecap: square"/>
   </g>
   <g id="text_15">
    <!-- Queue size (y-axis) between S4 and sensors that follow at a time (x-axis). -->
    <g transform="translate(14.282813 35.472) scale(0.12 -0.12)">
     <defs>
      <path id="DejaVuSans-51" d="M 2522 4238 
Q 1834 4238 1429 3725 
Q 1025 3213 1025 2328 
Q 1025 1447 1429 934 
Q 1834 422 2522 422 
Q 3209 422 3611 934 
Q 4013 1447 4013 2328 
Q 4013 3213 3611 3725 
Q 3209 4238 2522 4238 
z
M 3406 84 
L 4238 -825 
L 3475 -825 
L 2784 -78 
Q 2681 -84 2626 -87 
Q 2572 -91 2522 -91 
Q 1538 -91 948 567 
Q 359 1225 359 2328 
Q 359 3434 948 4092 
Q 1538 4750 2522 4750 
Q 3503 4750 4090 4092 
Q 4678 3434 4678 2328 
Q 4678 1516 4351 937 
Q 4025 359 3406 84 
z
" transform="scale(0.015625)"/>
      <path id="DejaVuSans-75" d="M 544 1381 
L 544 3500 
L 1119 3500 
L 1119 1403 
Q 1119 906 1312 657 
Q 1506 409 1894 409 
Q 2359 409 2629 706 
Q 2900 1003 2900 1516 
L 2900 3500 
L 3475 3500 
L 3475 0 
L 2900 0 
L 2900 538 
Q 2691 219 2414 64 
Q 2138 -91 1772 -91 
Q 1169 -91 856 284 
Q 544 659 544 1381 
z
M 1991 3584 
L 1991 3584 
z
" transform="scale(0.015625)"/>
      <path id="DejaVuSans-20" transform="scale(0.015625)"/>
      <path id="DejaVuSans-73" d="M 2834 3397 
L 2834 2853 
Q 2591 2978 2328 3040 
Q 2066 3103 1784 3103 
Q 1356 3103 1142 2972 
Q 928 2841 928 2578 
Q 928 2378 1081 2264 
Q 1234 2150 1697 2047 
L 1894 2003 
Q 2506 1872 2764 1633 
Q 3022 1394 3022 966 
Q 3022 478 2636 193 
Q 2250 -91 1575 -91 
Q 1294 -91 989 -36 
Q 684 19 347 128 
L 347 722 
Q 666 556 975 473 
Q 1284 391 1588 391 
Q 1994 391 2212 530 
Q 2431 669 2431 922 
Q 2431 1156 2273 1281 
Q 2116 1406 1581 1522 
L 1381 1569 
Q 847 1681 609 1914 
Q 372 2147 372 2553 
Q 372 3047 722 3315 
Q 1072 3584 1716 3584 
Q 2034 3584 2315 3537 
Q 2597 3491 2834 3397 
z
" transform="scale(0.015625)"/>
      <path id="DejaVuSans-69" d="M 603 3500 
L 1178 3500 
L 1178 0 
L 603 0 
L 603 3500 
z
M 603 4863 
L 1178 4863 
L 1178 4134 
L 603 4134 
L 603 4863 
z
" transform="scale(0.015625)"/>
      <path id="DejaVuSans-7a" d="M 353 3500 
L 3084 3500 
L 3084 2975 
L 922 459 
L 3084 459 
L 3084 0 
L 275 0 
L 275 525 
L 2438 3041 
L 353 3041 
L 353 3500 
z
" transform="scale(0.015625)"/>
      <path id="DejaVuSans-28" d="M 1984 4856 
Q 1566 4138 1362 3434 
Q 1159 2731 1159 2009 
Q 1159 1288 1364 580 
Q 1569 -128 1984 -844 
L 1484 -844 
Q 1016 -109 783 600 
Q 550 1309 550 2009 
Q 550 2706 781 3412 
Q 1013 4119 1484 4856 
L 1984 4856 
z
" transform="scale(0.015625)"/>
      <path id="DejaVuSans-79" d="M 2059 -325 
Q 1816 -950 1584 -1140 
Q 1353 -1331 966 -1331 
L 506 -1331 
L 506 -850 
L 844 -850 
Q 1081 -850 1212 -737 
Q 1344 -625 1503 -206 
L 1606 56 
L 191 3500 
L 800 3500 
L 1894 763 
L 2988 3500 
L 3597 3500 
L 2059 -325 
z
" transform="scale(0.015625)"/>
      <path id="DejaVuSans-2d" d="M 313 2009 
L 1997 2009 
L 1997 1497 
L 313 1497 
L 313 2009 
z
" transform="scale(0.015625)"/>
      <path id="DejaVuSans-61" d="M 2194 1759 
Q 1497 1759 1228 1600 
Q 959 1441 959 1056 
Q 959 750 1161 570 
Q 1363 391 1709 391 
Q 2188 391 2477 730 
Q 2766 1069 2766 1631 
L 2766 1759 
L 2194 1759 
z
M 3341 1997 
L 3341 0 
L 2766 0 
L 2766 531 
Q 2569 213 2275 61 
Q 1981 -91 1556 -91 
Q 1019 -91 701 211 
Q 384 513 384 1019 
Q 384 1609 779 1909 
Q 1175 2209 1959 2209 
L 2766 2209 
L 2766 2266 
Q 2766 2663 2505 2880 
Q 2244 3097 1772 3097 
Q 1472 3097 1187 3025 
Q 903 2953 641 2809 
L 641 3341 
Q 956 3463 1253 3523 
Q 1550 3584 1831 3584 
Q 2591 3584 2966 3190 
Q 3341 2797 3341 1997 
z
" transform="scale(0.015625)"/>
      <path id="DejaVuSans-78" d="M 3513 3500 
L 2247 1797 
L 3578 0 
L 2900 0 
L 1881 1375 
L 863 0 
L 184 0 
L 1544 1831 
L 300 3500 
L 978 3500 
L 1906 2253 
L 2834 3500 
L 3513 3500 
z
" transform="scale(0.015625)"/>
      <path id="DejaVuSans-29" d="M 513 4856 
L 1013 4856 
Q 1481 4119 1714 3412 
Q 1947 2706 1947 2009 
Q 1947 1309 1714 600 
Q 1481 -109 1013 -844 
L 513 -844 
Q 928 -128 1133 580 
Q 1338 1288 1338 2009 
Q 1338 2731 1133 3434 
Q 928 4138 513 4856 
z
" transform="scale(0.015625)"/>
      <path id="DejaVuSans-62" d="M 3116 1747 
Q 3116 2381 2855 2742 
Q 2594 3103 2138 3103 
Q 1681 3103 1420 2742 
Q 1159 2381 1159 1747 
Q 1159 1113 1420 752 
Q 1681 391 2138 391 
Q 2594 391 2855 752 
Q 3116 1113 3116 1747 
z
M 1159 2969 
Q 1341 3281 1617 3432 
Q 1894 3584 2278 3584 
Q 2916 3584 3314 3078 
Q 3713 2572 3713 1747 
Q 3713 922 3314 415 
Q 2916 -91 2278 -91 
Q 1894 -91 1617 61 
Q 1341 213 1159 525 
L 1159 0 
L 581 0 
L 581 4863 
L 1159 4863 
L 1159 2969 
z
" transform="scale(0.015625)"/>
      <path id="DejaVuSans-74" d="M 1172 4494 
L 1172 3500 
L 2356 3500 
L 2356 3053 
L 1172 3053 
L 1172 1153 
Q 1172 725 1289 603 
Q 1406 481 1766 481 
L 2356 481 
L 2356 0 
L 1766 0 
Q 1100 0 847 248 
Q 594 497 594 1153 
L 594 3053 
L 172 3053 
L 172 3500 
L 594 3500 
L 594 4494 
L 1172 4494 
z
" transform="scale(0.015625)"/>
      <path id="DejaVuSans-77" d="M 269 3500 
L 844 3500 
L 1563 769 
L 2278 3500 
L 2956 3500 
L 3675 769 
L 4391 3500 
L 4966 3500 
L 4050 0 
L 3372 0 
L 2619 2869 
L 1863 0 
L 1184 0 
L 269 3500 
z
" transform="scale(0.015625)"/>
      <path id="DejaVuSans-6e" d="M 3513 2113 
L 3513 0 
L 2938 0 
L 2938 2094 
Q 2938 2591 2744 2837 
Q 2550 3084 2163 3084 
Q 1697 3084 1428 2787 
Q 1159 2491 1159 1978 
L 1159 0 
L 581 0 
L 581 3500 
L 1159 3500 
L 1159 2956 
Q 1366 3272 1645 3428 
Q 1925 3584 2291 3584 
Q 2894 3584 3203 3211 
Q 3513 2838 3513 2113 
z
" transform="scale(0.015625)"/>
      <path id="DejaVuSans-53" d="M 3425 4513 
L 3425 3897 
Q 3066 4069 2747 4153 
Q 2428 4238 2131 4238 
Q 1616 4238 1336 4038 
Q 1056 3838 1056 3469 
Q 1056 3159 1242 3001 
Q 1428 2844 1947 2747 
L 2328 2669 
Q 3034 2534 3370 2195 
Q 3706 1856 3706 1288 
Q 3706 609 3251 259 
Q 2797 -91 1919 -91 
Q 1588 -91 1214 -16 
Q 841 59 441 206 
L 441 856 
Q 825 641 1194 531 
Q 1563 422 1919 422 
Q 2459 422 2753 634 
Q 3047 847 3047 1241 
Q 3047 1584 2836 1778 
Q 2625 1972 2144 2069 
L 1759 2144 
Q 1053 2284 737 2584 
Q 422 2884 422 3419 
Q 422 4038 858 4394 
Q 1294 4750 2059 4750 
Q 2388 4750 2728 4690 
Q 3069 4631 3425 4513 
z
" transform="scale(0.015625)"/>
      <path id="DejaVuSans-64" d="M 2906 2969 
L 2906 4863 
L 3481 4863 
L 3481 0 
L 2906 0 
L 2906 525 
Q 2725 213 2448 61 
Q 2172 -91 1784 -91 
Q 1150 -91 751 415 
Q 353 922 353 1747 
Q 353 2572 751 3078 
Q 1150 3584 1784 3584 
Q 2172 3584 2448 3432 
Q 2725 3281 2906 2969 
z
M 947 1747 
Q 947 1113 1208 752 
Q 1469 391 1925 391 
Q 2381 391 2643 752 
Q 2906 1113 2906 1747 
Q 2906 2381 2643 2742 
Q 2381 3103 1925 3103 
Q 1469 3103 1208 2742 
Q 947 2381 947 1747 
z
" transform="scale(0.015625)"/>
      <path id="DejaVuSans-6f" d="M 1959 3097 
Q 1497 3097 1228 2736 
Q 959 2375 959 1747 
Q 959 1119 1226 758 
Q 1494 397 1959 397 
Q 2419 397 2687 759 
Q 2956 1122 2956 1747 
Q 2956 2369 2687 2733 
Q 2419 3097 1959 3097 
z
M 1959 3584 
Q 2709 3584 3137 3096 
Q 3566 2609 3566 1747 
Q 3566 888 3137 398 
Q 2709 -91 1959 -91 
Q 1206 -91 779 398 
Q 353 888 353 1747 
Q 353 2609 779 3096 
Q 1206 3584 1959 3584 
z
" transform="scale(0.015625)"/>
      <path id="DejaVuSans-72" d="M 2631 2963 
Q 2534 3019 2420 3045 
Q 2306 3072 2169 3072 
Q 1681 3072 1420 2755 
Q 1159 2438 1159 1844 
L 1159 0 
L 581 0 
L 581 3500 
L 1159 3500 
L 1159 2956 
Q 1341 3275 1631 3429 
Q 1922 3584 2338 3584 
Q 2397 3584 2469 3576 
Q 2541 3569 2628 3553 
L 2631 2963 
z
" transform="scale(0.015625)"/>
      <path id="DejaVuSans-68" d="M 3513 2113 
L 3513 0 
L 2938 0 
L 2938 2094 
Q 2938 2591 2744 2837 
Q 2550 3084 2163 3084 
Q 1697 3084 1428 2787 
Q 1159 2491 1159 1978 
L 1159 0 
L 581 0 
L 581 4863 
L 1159 4863 
L 1159 2956 
Q 1366 3272 1645 3428 
Q 1925 3584 2291 3584 
Q 2894 3584 3203 3211 
Q 3513 2838 3513 2113 
z
" transform="scale(0.015625)"/>
      <path id="DejaVuSans-66" d="M 2375 4863 
L 2375 4384 
L 1825 4384 
Q 1516 4384 1395 4259 
Q 1275 4134 1275 3809 
L 1275 3500 
L 2222 3500 
L 2222 3053 
L 1275 3053 
L 1275 0 
L 697 0 
L 697 3053 
L 147 3053 
L 147 3500 
L 697 3500 
L 697 3744 
Q 697 4328 969 4595 
Q 1241 4863 1831 4863 
L 2375 4863 
z
" transform="scale(0.015625)"/>
      <path id="DejaVuSans-6c" d="M 603 4863 
L 1178 4863 
L 1178 0 
L 603 0 
L 603 4863 
z
" transform="scale(0.015625)"/>
      <path id="DejaVuSans-6d" d="M 3328 2828 
Q 3544 3216 3844 3400 
Q 4144 3584 4550 3584 
Q 5097 3584 5394 3201 
Q 5691 2819 5691 2113 
L 5691 0 
L 5113 0 
L 5113 2094 
Q 5113 2597 4934 2840 
Q 4756 3084 4391 3084 
Q 3944 3084 3684 2787 
Q 3425 2491 3425 1978 
L 3425 0 
L 2847 0 
L 2847 2094 
Q 2847 2600 2669 2842 
Q 2491 3084 2119 3084 
Q 1678 3084 1418 2786 
Q 1159 2488 1159 1978 
L 1159 0 
L 581 0 
L 581 3500 
L 1159 3500 
L 1159 2956 
Q 1356 3278 1631 3431 
Q 1906 3584 2284 3584 
Q 2666 3584 2933 3390 
Q 3200 3197 3328 2828 
z
" transform="scale(0.015625)"/>
     </defs>
     <use xlink:href="#DejaVuSans-51"/>
     <use xlink:href="#DejaVuSans-75" x="78.710938"/>
     <use xlink:href="#DejaVuSans-65" x="142.089844"/>
     <use xlink:href="#DejaVuSans-75" x="203.613281"/>
     <use xlink:href="#DejaVuSans-65" x="266.992188"/>
     <use xlink:href="#DejaVuSans-20" x="328.515625"/>
     <use xlink:href="#DejaVuSans-73" x="360.302734"/>
     <use xlink:href="#DejaVuSans-69" x="412.402344"/>
     <use xlink:href="#DejaVuSans-7a" x="440.185547"/>
     <use xlink:href="#DejaVuSans-65" x="492.675781"/>
     <use xlink:href="#DejaVuSans-20" x="554.199219"/>
     <use xlink:href="#DejaVuSans-28" x="585.986328"/>
     <use xlink:href="#DejaVuSans-79" x="625"/>
     <use xlink:href="#DejaVuSans-2d" x="682.429688"/>
     <use xlink:href="#DejaVuSans-61" x="718.513672"/>
     <use xlink:href="#DejaVuSans-78" x="779.792969"/>
     <use xlink:href="#DejaVuSans-69" x="838.972656"/>
     <use xlink:href="#DejaVuSans-73" x="866.755859"/>
     <use xlink:href="#DejaVuSans-29" x="918.855469"/>
     <use xlink:href="#DejaVuSans-20" x="957.869141"/>
     <use xlink:href="#DejaVuSans-62" x="989.65625"/>
     <use xlink:href="#DejaVuSans-65" x="1053.132812"/>
     <use xlink:href="#DejaVuSans-74" x="1114.65625"/>
     <use xlink:href="#DejaVuSans-77" x="1153.865234"/>
     <use xlink:href="#DejaVuSans-65" x="1235.652344"/>
     <use xlink:href="#DejaVuSans-65" x="1297.175781"/>
     <use xlink:href="#DejaVuSans-6e" x="1358.699219"/>
     <use xlink:href="#DejaVuSans-20" x="1422.078125"/>
     <use xlink:href="#DejaVuSans-53" x="1453.865234"/>
     <use xlink:href="#DejaVuSans-34" x="1517.341797"/>
     <use xlink:href="#DejaVuSans-20" x="1580.964844"/>
     <use xlink:href="#DejaVuSans-61" x="1612.751953"/>
     <use xlink:href="#DejaVuSans-6e" x="1674.03125"/>
     <use xlink:href="#DejaVuSans-64" x="1737.410156"/>
     <use xlink:href="#DejaVuSans-20" x="1800.886719"/>
     <use xlink:href="#DejaVuSans-73" x="1832.673828"/>
     <use xlink:href="#DejaVuSans-65" x="1884.773438"/>
     <use xlink:href="#DejaVuSans-6e" x="1946.296875"/>
     <use xlink:href="#DejaVuSans-73" x="2009.675781"/>
     <use xlink:href="#DejaVuSans-6f" x="2061.775391"/>
     <use xlink:href="#DejaVuSans-72" x="2122.957031"/>
     <use xlink:href="#DejaVuSans-73" x="2164.070312"/>
     <use xlink:href="#DejaVuSans-20" x="2216.169922"/>
     <use xlink:href="#DejaVuSans-74" x="2247.957031"/>
     <use xlink:href="#DejaVuSans-68" x="2287.166016"/>
     <use xlink:href="#DejaVuSans-61" x="2350.544922"/>
     <use xlink:href="#DejaVuSans-74" x="2411.824219"/>
     <use xlink:href="#DejaVuSans-20" x="2451.033203"/>
     <use xlink:href="#DejaVuSans-66" x="2482.820312"/>
     <use xlink:href="#DejaVuSans-6f" x="2518.025391"/>
     <use xlink:href="#DejaVuSans-6c" x="2579.207031"/>
     <use xlink:href="#DejaVuSans-6c" x="2606.990234"/>
     <use xlink:href="#DejaVuSans-6f" x="2634.773438"/>
     <use xlink:href="#DejaVuSans-77" x="2695.955078"/>
     <use xlink:href="#DejaVuSans-20" x="2777.742188"/>
     <use xlink:href="#DejaVuSans-61" x="2809.529297"/>
     <use xlink:href="#DejaVuSans-74" x="2870.808594"/>
     <use xlink:href="#DejaVuSans-20" x="2910.017578"/>
     <use xlink:href="#DejaVuSans-61" x="2941.804688"/>
     <use xlink:href="#DejaVuSans-20" x="3003.083984"/>
     <use xlink:href="#DejaVuSans-74" x="3034.871094"/>
     <use xlink:href="#DejaVuSans-69" x="3074.080078"/>
     <use xlink:href="#DejaVuSans-6d" x="3101.863281"/>
     <use xlink:href="#DejaVuSans-65" x="3199.275391"/>
     <use xlink:href="#DejaVuSans-20" x="3260.798828"/>
     <use xlink:href="#DejaVuSans-28" x="3292.585938"/>
     <use xlink:href="#DejaVuSans-78" x="3331.599609"/>
     <use xlink:href="#DejaVuSans-2d" x="3390.779297"/>
     <use xlink:href="#DejaVuSans-61" x="3426.863281"/>
     <use xlink:href="#DejaVuSans-78" x="3488.142578"/>
     <use xlink:href="#DejaVuSans-69" x="3547.322266"/>
     <use xlink:href="#DejaVuSans-73" x="3575.105469"/>
     <use xlink:href="#DejaVuSans-29" x="3627.205078"/>
     <use xlink:href="#DejaVuSans-2e" x="3666.21875"/>
    </g>
   </g>
  </g>
 </g>
 <defs>
  <clipPath id="p4e955620d4">
   <rect x="57.6" y="41.472" width="357.12" height="266.112"/>
  </clipPath>
 </defs>
</svg>
