<?xml version="1.0" encoding="utf-8" standalone="no"?>
<!DOCTYPE svg PUBLIC "-//W3C//DTD SVG 1.1//EN"
  "http://www.w3.org/Graphics/SVG/1.1/DTD/svg11.dtd">
<svg xmlns:xlink="http://www.w3.org/1999/xlink" width="460.8pt" height="345.6pt" viewBox="0 0 460.8 345.6" xmlns="http://www.w3.org/2000/svg" version="1.1">
 <metadata>
  <rdf:RDF xmlns:dc="http://purl.org/dc/elements/1.1/" xmlns:cc="http://creativecommons.org/ns#" xmlns:rdf="http://www.w3.org/1999/02/22-rdf-syntax-ns#">
   <cc:Work>
    <dc:type rdf:resource="http://purl.org/dc/dcmitype/StillImage"/>
    <dc:date>2024-03-08T14:26:59.239715</dc:date>
    <dc:format>image/svg+xml</dc:format>
    <dc:creator>
     <cc:Agent>
      <dc:title>Matplotlib v3.8.2, https://matplotlib.org/</dc:title>
     </cc:Agent>
    </dc:creator>
   </cc:Work>
  </rdf:RDF>
 </metadata>
 <defs>
  <style type="text/css">*{stroke-linejoin: round; stroke-linecap: butt}</style>
 </defs>
 <g id="figure_1">
  <g id="patch_1">
   <path d="M 0 345.6 
L 460.8 345.6 
L 460.8 0 
L 0 0 
z
" style="fill: #ffffff"/>
  </g>
  <g id="axes_1">
   <g id="patch_2">
    <path d="M 57.6 307.584 
L 414.72 307.584 
L 414.72 41.472 
L 57.6 41.472 
z
" style="fill: #ffffff"/>
   </g>
   <g id="matplotlib.axis_1">
    <g id="xtick_1">
     <g id="line2d_1">
      <defs>
       <path id="m893686cba3" d="M 0 0 
L 0 3.5 
" style="stroke: #000000; stroke-width: 0.8"/>
      </defs>
      <g>
       <use xlink:href="#m893686cba3" x="73.832727" y="307.584" style="stroke: #000000; stroke-width: 0.8"/>
      </g>
     </g>
     <g id="text_1">
      <!-- 0 -->
      <g transform="translate(70.651477 322.182437) scale(0.1 -0.1)">
       <defs>
        <path id="DejaVuSans-30" d="M 2034 4250 
Q 1547 4250 1301 3770 
Q 1056 3291 1056 2328 
Q 1056 1369 1301 889 
Q 1547 409 2034 409 
Q 2525 409 2770 889 
Q 3016 1369 3016 2328 
Q 3016 3291 2770 3770 
Q 2525 4250 2034 4250 
z
M 2034 4750 
Q 2819 4750 3233 4129 
Q 3647 3509 3647 2328 
Q 3647 1150 3233 529 
Q 2819 -91 2034 -91 
Q 1250 -91 836 529 
Q 422 1150 422 2328 
Q 422 3509 836 4129 
Q 1250 4750 2034 4750 
z
" transform="scale(0.015625)"/>
       </defs>
       <use xlink:href="#DejaVuSans-30"/>
      </g>
     </g>
    </g>
    <g id="xtick_2">
     <g id="line2d_2">
      <g>
       <use xlink:href="#m893686cba3" x="121.377474" y="307.584" style="stroke: #000000; stroke-width: 0.8"/>
      </g>
     </g>
     <g id="text_2">
      <!-- 50000 -->
      <g transform="translate(105.471224 322.182437) scale(0.1 -0.1)">
       <defs>
        <path id="DejaVuSans-35" d="M 691 4666 
L 3169 4666 
L 3169 4134 
L 1269 4134 
L 1269 2991 
Q 1406 3038 1543 3061 
Q 1681 3084 1819 3084 
Q 2600 3084 3056 2656 
Q 3513 2228 3513 1497 
Q 3513 744 3044 326 
Q 2575 -91 1722 -91 
Q 1428 -91 1123 -41 
Q 819 9 494 109 
L 494 744 
Q 775 591 1075 516 
Q 1375 441 1709 441 
Q 2250 441 2565 725 
Q 2881 1009 2881 1497 
Q 2881 1984 2565 2268 
Q 2250 2553 1709 2553 
Q 1456 2553 1204 2497 
Q 953 2441 691 2322 
L 691 4666 
z
" transform="scale(0.015625)"/>
       </defs>
       <use xlink:href="#DejaVuSans-35"/>
       <use xlink:href="#DejaVuSans-30" x="63.623047"/>
       <use xlink:href="#DejaVuSans-30" x="127.246094"/>
       <use xlink:href="#DejaVuSans-30" x="190.869141"/>
       <use xlink:href="#DejaVuSans-30" x="254.492188"/>
      </g>
     </g>
    </g>
    <g id="xtick_3">
     <g id="line2d_3">
      <g>
       <use xlink:href="#m893686cba3" x="168.92222" y="307.584" style="stroke: #000000; stroke-width: 0.8"/>
      </g>
     </g>
     <g id="text_3">
      <!-- 100000 -->
      <g transform="translate(149.83472 322.182437) scale(0.1 -0.1)">
       <defs>
        <path id="DejaVuSans-31" d="M 794 531 
L 1825 531 
L 1825 4091 
L 703 3866 
L 703 4441 
L 1819 4666 
L 2450 4666 
L 2450 531 
L 3481 531 
L 3481 0 
L 794 0 
L 794 531 
z
" transform="scale(0.015625)"/>
       </defs>
       <use xlink:href="#DejaVuSans-31"/>
       <use xlink:href="#DejaVuSans-30" x="63.623047"/>
       <use xlink:href="#DejaVuSans-30" x="127.246094"/>
       <use xlink:href="#DejaVuSans-30" x="190.869141"/>
       <use xlink:href="#DejaVuSans-30" x="254.492188"/>
       <use xlink:href="#DejaVuSans-30" x="318.115234"/>
      </g>
     </g>
    </g>
    <g id="xtick_4">
     <g id="line2d_4">
      <g>
       <use xlink:href="#m893686cba3" x="216.466966" y="307.584" style="stroke: #000000; stroke-width: 0.8"/>
      </g>
     </g>
     <g id="text_4">
      <!-- 150000 -->
      <g transform="translate(197.379466 322.182437) scale(0.1 -0.1)">
       <use xlink:href="#DejaVuSans-31"/>
       <use xlink:href="#DejaVuSans-35" x="63.623047"/>
       <use xlink:href="#DejaVuSans-30" x="127.246094"/>
       <use xlink:href="#DejaVuSans-30" x="190.869141"/>
       <use xlink:href="#DejaVuSans-30" x="254.492188"/>
       <use xlink:href="#DejaVuSans-30" x="318.115234"/>
      </g>
     </g>
    </g>
    <g id="xtick_5">
     <g id="line2d_5">
      <g>
       <use xlink:href="#m893686cba3" x="264.011712" y="307.584" style="stroke: #000000; stroke-width: 0.8"/>
      </g>
     </g>
     <g id="text_5">
      <!-- 200000 -->
      <g transform="translate(244.924212 322.182437) scale(0.1 -0.1)">
       <defs>
        <path id="DejaVuSans-32" d="M 1228 531 
L 3431 531 
L 3431 0 
L 469 0 
L 469 531 
Q 828 903 1448 1529 
Q 2069 2156 2228 2338 
Q 2531 2678 2651 2914 
Q 2772 3150 2772 3378 
Q 2772 3750 2511 3984 
Q 2250 4219 1831 4219 
Q 1534 4219 1204 4116 
Q 875 4013 500 3803 
L 500 4441 
Q 881 4594 1212 4672 
Q 1544 4750 1819 4750 
Q 2544 4750 2975 4387 
Q 3406 4025 3406 3419 
Q 3406 3131 3298 2873 
Q 3191 2616 2906 2266 
Q 2828 2175 2409 1742 
Q 1991 1309 1228 531 
z
" transform="scale(0.015625)"/>
       </defs>
       <use xlink:href="#DejaVuSans-32"/>
       <use xlink:href="#DejaVuSans-30" x="63.623047"/>
       <use xlink:href="#DejaVuSans-30" x="127.246094"/>
       <use xlink:href="#DejaVuSans-30" x="190.869141"/>
       <use xlink:href="#DejaVuSans-30" x="254.492188"/>
       <use xlink:href="#DejaVuSans-30" x="318.115234"/>
      </g>
     </g>
    </g>
    <g id="xtick_6">
     <g id="line2d_6">
      <g>
       <use xlink:href="#m893686cba3" x="311.556459" y="307.584" style="stroke: #000000; stroke-width: 0.8"/>
      </g>
     </g>
     <g id="text_6">
      <!-- 250000 -->
      <g transform="translate(292.468959 322.182437) scale(0.1 -0.1)">
       <use xlink:href="#DejaVuSans-32"/>
       <use xlink:href="#DejaVuSans-35" x="63.623047"/>
       <use xlink:href="#DejaVuSans-30" x="127.246094"/>
       <use xlink:href="#DejaVuSans-30" x="190.869141"/>
       <use xlink:href="#DejaVuSans-30" x="254.492188"/>
       <use xlink:href="#DejaVuSans-30" x="318.115234"/>
      </g>
     </g>
    </g>
    <g id="xtick_7">
     <g id="line2d_7">
      <g>
       <use xlink:href="#m893686cba3" x="359.101205" y="307.584" style="stroke: #000000; stroke-width: 0.8"/>
      </g>
     </g>
     <g id="text_7">
      <!-- 300000 -->
      <g transform="translate(340.013705 322.182437) scale(0.1 -0.1)">
       <defs>
        <path id="DejaVuSans-33" d="M 2597 2516 
Q 3050 2419 3304 2112 
Q 3559 1806 3559 1356 
Q 3559 666 3084 287 
Q 2609 -91 1734 -91 
Q 1441 -91 1130 -33 
Q 819 25 488 141 
L 488 750 
Q 750 597 1062 519 
Q 1375 441 1716 441 
Q 2309 441 2620 675 
Q 2931 909 2931 1356 
Q 2931 1769 2642 2001 
Q 2353 2234 1838 2234 
L 1294 2234 
L 1294 2753 
L 1863 2753 
Q 2328 2753 2575 2939 
Q 2822 3125 2822 3475 
Q 2822 3834 2567 4026 
Q 2313 4219 1838 4219 
Q 1578 4219 1281 4162 
Q 984 4106 628 3988 
L 628 4550 
Q 988 4650 1302 4700 
Q 1616 4750 1894 4750 
Q 2613 4750 3031 4423 
Q 3450 4097 3450 3541 
Q 3450 3153 3228 2886 
Q 3006 2619 2597 2516 
z
" transform="scale(0.015625)"/>
       </defs>
       <use xlink:href="#DejaVuSans-33"/>
       <use xlink:href="#DejaVuSans-30" x="63.623047"/>
       <use xlink:href="#DejaVuSans-30" x="127.246094"/>
       <use xlink:href="#DejaVuSans-30" x="190.869141"/>
       <use xlink:href="#DejaVuSans-30" x="254.492188"/>
       <use xlink:href="#DejaVuSans-30" x="318.115234"/>
      </g>
     </g>
    </g>
    <g id="xtick_8">
     <g id="line2d_8">
      <g>
       <use xlink:href="#m893686cba3" x="406.645951" y="307.584" style="stroke: #000000; stroke-width: 0.8"/>
      </g>
     </g>
     <g id="text_8">
      <!-- 350000 -->
      <g transform="translate(387.558451 322.182437) scale(0.1 -0.1)">
       <use xlink:href="#DejaVuSans-33"/>
       <use xlink:href="#DejaVuSans-35" x="63.623047"/>
       <use xlink:href="#DejaVuSans-30" x="127.246094"/>
       <use xlink:href="#DejaVuSans-30" x="190.869141"/>
       <use xlink:href="#DejaVuSans-30" x="254.492188"/>
       <use xlink:href="#DejaVuSans-30" x="318.115234"/>
      </g>
     </g>
    </g>
   </g>
   <g id="matplotlib.axis_2">
    <g id="ytick_1">
     <g id="line2d_9">
      <defs>
       <path id="m721414479d" d="M 0 0 
L -3.5 0 
" style="stroke: #000000; stroke-width: 0.8"/>
      </defs>
      <g>
       <use xlink:href="#m721414479d" x="57.6" y="295.488" style="stroke: #000000; stroke-width: 0.8"/>
      </g>
     </g>
     <g id="text_9">
      <!-- 0.0 -->
      <g transform="translate(34.696875 299.287219) scale(0.1 -0.1)">
       <defs>
        <path id="DejaVuSans-2e" d="M 684 794 
L 1344 794 
L 1344 0 
L 684 0 
L 684 794 
z
" transform="scale(0.015625)"/>
       </defs>
       <use xlink:href="#DejaVuSans-30"/>
       <use xlink:href="#DejaVuSans-2e" x="63.623047"/>
       <use xlink:href="#DejaVuSans-30" x="95.410156"/>
      </g>
     </g>
    </g>
    <g id="ytick_2">
     <g id="line2d_10">
      <g>
       <use xlink:href="#m721414479d" x="57.6" y="247.104" style="stroke: #000000; stroke-width: 0.8"/>
      </g>
     </g>
     <g id="text_10">
      <!-- 0.2 -->
      <g transform="translate(34.696875 250.903219) scale(0.1 -0.1)">
       <use xlink:href="#DejaVuSans-30"/>
       <use xlink:href="#DejaVuSans-2e" x="63.623047"/>
       <use xlink:href="#DejaVuSans-32" x="95.410156"/>
      </g>
     </g>
    </g>
    <g id="ytick_3">
     <g id="line2d_11">
      <g>
       <use xlink:href="#m721414479d" x="57.6" y="198.72" style="stroke: #000000; stroke-width: 0.8"/>
      </g>
     </g>
     <g id="text_11">
      <!-- 0.4 -->
      <g transform="translate(34.696875 202.519219) scale(0.1 -0.1)">
       <defs>
        <path id="DejaVuSans-34" d="M 2419 4116 
L 825 1625 
L 2419 1625 
L 2419 4116 
z
M 2253 4666 
L 3047 4666 
L 3047 1625 
L 3713 1625 
L 3713 1100 
L 3047 1100 
L 3047 0 
L 2419 0 
L 2419 1100 
L 313 1100 
L 313 1709 
L 2253 4666 
z
" transform="scale(0.015625)"/>
       </defs>
       <use xlink:href="#DejaVuSans-30"/>
       <use xlink:href="#DejaVuSans-2e" x="63.623047"/>
       <use xlink:href="#DejaVuSans-34" x="95.410156"/>
      </g>
     </g>
    </g>
    <g id="ytick_4">
     <g id="line2d_12">
      <g>
       <use xlink:href="#m721414479d" x="57.6" y="150.336" style="stroke: #000000; stroke-width: 0.8"/>
      </g>
     </g>
     <g id="text_12">
      <!-- 0.6 -->
      <g transform="translate(34.696875 154.135219) scale(0.1 -0.1)">
       <defs>
        <path id="DejaVuSans-36" d="M 2113 2584 
Q 1688 2584 1439 2293 
Q 1191 2003 1191 1497 
Q 1191 994 1439 701 
Q 1688 409 2113 409 
Q 2538 409 2786 701 
Q 3034 994 3034 1497 
Q 3034 2003 2786 2293 
Q 2538 2584 2113 2584 
z
M 3366 4563 
L 3366 3988 
Q 3128 4100 2886 4159 
Q 2644 4219 2406 4219 
Q 1781 4219 1451 3797 
Q 1122 3375 1075 2522 
Q 1259 2794 1537 2939 
Q 1816 3084 2150 3084 
Q 2853 3084 3261 2657 
Q 3669 2231 3669 1497 
Q 3669 778 3244 343 
Q 2819 -91 2113 -91 
Q 1303 -91 875 529 
Q 447 1150 447 2328 
Q 447 3434 972 4092 
Q 1497 4750 2381 4750 
Q 2619 4750 2861 4703 
Q 3103 4656 3366 4563 
z
" transform="scale(0.015625)"/>
       </defs>
       <use xlink:href="#DejaVuSans-30"/>
       <use xlink:href="#DejaVuSans-2e" x="63.623047"/>
       <use xlink:href="#DejaVuSans-36" x="95.410156"/>
      </g>
     </g>
    </g>
    <g id="ytick_5">
     <g id="line2d_13">
      <g>
       <use xlink:href="#m721414479d" x="57.6" y="101.952" style="stroke: #000000; stroke-width: 0.8"/>
      </g>
     </g>
     <g id="text_13">
      <!-- 0.8 -->
      <g transform="translate(34.696875 105.751219) scale(0.1 -0.1)">
       <defs>
        <path id="DejaVuSans-38" d="M 2034 2216 
Q 1584 2216 1326 1975 
Q 1069 1734 1069 1313 
Q 1069 891 1326 650 
Q 1584 409 2034 409 
Q 2484 409 2743 651 
Q 3003 894 3003 1313 
Q 3003 1734 2745 1975 
Q 2488 2216 2034 2216 
z
M 1403 2484 
Q 997 2584 770 2862 
Q 544 3141 544 3541 
Q 544 4100 942 4425 
Q 1341 4750 2034 4750 
Q 2731 4750 3128 4425 
Q 3525 4100 3525 3541 
Q 3525 3141 3298 2862 
Q 3072 2584 2669 2484 
Q 3125 2378 3379 2068 
Q 3634 1759 3634 1313 
Q 3634 634 3220 271 
Q 2806 -91 2034 -91 
Q 1263 -91 848 271 
Q 434 634 434 1313 
Q 434 1759 690 2068 
Q 947 2378 1403 2484 
z
M 1172 3481 
Q 1172 3119 1398 2916 
Q 1625 2713 2034 2713 
Q 2441 2713 2670 2916 
Q 2900 3119 2900 3481 
Q 2900 3844 2670 4047 
Q 2441 4250 2034 4250 
Q 1625 4250 1398 4047 
Q 1172 3844 1172 3481 
z
" transform="scale(0.015625)"/>
       </defs>
       <use xlink:href="#DejaVuSans-30"/>
       <use xlink:href="#DejaVuSans-2e" x="63.623047"/>
       <use xlink:href="#DejaVuSans-38" x="95.410156"/>
      </g>
     </g>
    </g>
    <g id="ytick_6">
     <g id="line2d_14">
      <g>
       <use xlink:href="#m721414479d" x="57.6" y="53.568" style="stroke: #000000; stroke-width: 0.8"/>
      </g>
     </g>
     <g id="text_14">
      <!-- 1.0 -->
      <g transform="translate(34.696875 57.367219) scale(0.1 -0.1)">
       <use xlink:href="#DejaVuSans-31"/>
       <use xlink:href="#DejaVuSans-2e" x="63.623047"/>
       <use xlink:href="#DejaVuSans-30" x="95.410156"/>
      </g>
     </g>
    </g>
   </g>
   <g id="line2d_15">
    <path d="M 73.832727 295.488 
L 117.954252 295.488 
L 117.954252 294.844596 
L 120.350507 294.844596 
L 120.350507 294.201191 
L 122.727744 294.201191 
L 122.727744 293.557787 
L 125.124 293.557787 
L 125.124 292.914383 
L 127.491728 292.914383 
L 127.491728 292.270979 
L 132.312765 292.270979 
L 132.312765 291.627574 
L 134.661476 291.627574 
L 134.661476 290.98417 
L 137.048222 290.98417 
L 137.048222 290.340766 
L 139.41595 290.340766 
L 139.41595 289.697362 
L 141.77417 289.697362 
L 141.77417 289.053957 
L 144.12288 289.053957 
L 144.12288 288.410553 
L 146.471591 288.410553 
L 146.471591 287.767149 
L 148.791774 287.767149 
L 148.791774 287.123745 
L 149.600035 287.123745 
L 149.600035 286.48034 
L 150.512894 286.48034 
L 150.512894 285.836936 
L 151.102449 285.836936 
L 151.102449 285.193532 
L 152.99473 285.193532 
L 152.99473 284.550128 
L 153.479686 284.550128 
L 153.479686 283.906723 
L 153.869553 283.906723 
L 153.869553 283.263319 
L 155.875941 283.263319 
L 155.875941 282.619915 
L 156.398934 282.619915 
L 156.398934 281.976511 
L 157.15965 281.976511 
L 157.15965 281.333106 
L 158.215143 281.333106 
L 158.215143 280.689702 
L 158.643046 280.689702 
L 158.643046 280.046298 
L 159.727066 280.046298 
L 159.727066 279.402894 
L 160.421219 279.402894 
L 160.421219 278.759489 
L 160.59238 278.759489 
L 160.601889 277.472681 
L 162.484661 277.472681 
L 162.484661 276.829277 
L 162.988635 276.829277 
L 163.045689 275.542468 
L 163.787387 275.542468 
L 163.834932 273.612255 
L 164.272344 273.612255 
L 164.272344 272.968851 
L 164.39596 272.968851 
L 164.39596 272.325447 
L 165.670159 272.325447 
L 165.670159 271.682043 
L 166.164625 271.682043 
L 166.164625 271.038638 
L 166.326277 271.038638 
L 166.411857 269.75183 
L 167.077484 269.75183 
L 167.077484 268.465021 
L 167.077484 268.465021 
L 167.543422 268.465021 
L 167.648021 267.178213 
L 168.218558 267.178213 
L 168.218558 266.534809 
L 168.532353 266.534809 
L 168.532353 265.891404 
L 169.388158 265.891404 
L 169.454721 264.604596 
L 169.711463 264.604596 
L 169.711463 263.961191 
L 170.120347 263.961191 
L 170.120347 263.317787 
L 170.415125 263.317787 
L 170.415125 262.674383 
L 170.947626 262.674383 
L 170.947626 261.387574 
L 170.947626 261.387574 
L 172.003119 261.387574 
L 172.0887 260.100766 
L 172.706782 260.100766 
L 172.706782 259.457362 
L 173.030086 259.457362 
L 173.030086 258.813957 
L 173.239283 258.813957 
L 173.315354 257.527149 
L 173.923927 257.527149 
L 173.923927 256.883745 
L 174.25674 256.883745 
L 174.25674 256.24034 
L 175.217144 256.24034 
L 175.217144 255.596936 
L 175.416832 255.596936 
L 175.416832 254.953532 
L 175.654556 254.953532 
L 175.654556 254.310128 
L 175.873262 254.310128 
L 175.97786 253.023319 
L 176.472326 253.023319 
L 176.472326 252.379915 
L 177.090407 252.379915 
L 177.090407 251.736511 
L 178.041302 251.736511 
L 178.041302 251.093106 
L 178.69742 251.093106 
L 178.69742 250.449702 
L 179.011215 250.449702 
L 179.011215 249.806298 
L 179.296483 249.806298 
L 179.296483 249.162894 
L 179.733895 249.162894 
L 179.752913 247.876085 
L 179.895547 247.876085 
L 179.895547 247.232681 
L 180.456575 247.232681 
L 180.456575 246.589277 
L 180.855951 246.589277 
L 180.855951 245.945872 
L 181.2268 245.945872 
L 181.2268 245.302468 
L 181.626176 245.302468 
L 181.626176 244.659064 
L 181.978007 244.659064 
L 181.978007 244.01566 
L 182.605598 244.01566 
L 182.605598 243.372255 
L 182.729214 243.372255 
L 182.833813 242.085447 
L 183.033501 242.085447 
L 183.033501 241.442043 
L 183.252206 241.442043 
L 183.252206 240.798638 
L 183.48993 240.798638 
L 183.48993 240.155234 
L 183.632564 240.155234 
L 183.632564 239.51183 
L 184.631004 239.51183 
L 184.631004 238.868426 
L 185.363193 238.868426 
L 185.429756 236.938213 
L 185.4773 236.938213 
L 185.4773 236.294809 
L 185.876676 236.294809 
L 185.876676 235.651404 
L 185.990784 235.651404 
L 185.990784 235.008 
L 186.409177 235.008 
L 186.409177 234.364596 
L 186.532794 234.364596 
L 186.542303 233.077787 
L 187.322037 233.077787 
L 187.322037 232.434383 
L 187.883065 232.434383 
L 187.883065 231.790979 
L 188.434584 231.790979 
L 188.444093 230.50417 
L 188.672307 230.50417 
L 188.672307 229.860766 
L 189.28088 229.860766 
L 189.28088 229.217362 
L 189.784854 229.217362 
L 189.784854 228.573957 
L 190.27932 228.573957 
L 190.317356 227.287149 
L 190.82133 227.287149 
L 190.82133 226.643745 
L 191.173161 226.643745 
L 191.173161 226.00034 
L 192.076511 226.00034 
L 192.076511 225.356936 
L 192.675575 225.356936 
L 192.675575 224.713532 
L 193.074951 224.713532 
L 193.08446 223.426723 
L 193.236603 223.426723 
L 193.236603 222.783319 
L 194.482275 222.783319 
L 194.482275 222.139915 
L 195.052812 222.139915 
L 195.052812 221.496511 
L 195.385626 221.496511 
L 195.385626 220.853106 
L 195.61384 220.853106 
L 195.61384 220.209702 
L 196.089288 220.209702 
L 196.089288 219.566298 
L 196.479155 219.566298 
L 196.479155 218.922894 
L 196.840495 218.922894 
L 196.840495 218.279489 
L 197.43005 218.279489 
L 197.43005 217.636085 
L 197.991078 217.636085 
L 197.991078 216.992681 
L 198.428489 216.992681 
L 198.428489 216.349277 
L 198.732776 216.349277 
L 198.789829 215.062468 
L 199.274786 215.062468 
L 199.274786 214.419064 
L 199.835814 214.419064 
L 199.854832 213.132255 
L 200.092555 213.132255 
L 200.092555 212.488851 
L 200.767691 212.488851 
L 200.834254 211.202043 
L 201.613987 211.202043 
L 201.642514 209.915234 
L 202.04189 209.915234 
L 202.127471 208.628426 
L 202.22256 208.628426 
L 202.22256 207.985021 
L 202.422248 207.985021 
L 202.422248 207.341617 
L 203.144928 207.341617 
L 203.192473 206.054809 
L 203.962698 206.054809 
L 203.962698 205.411404 
L 204.818503 205.411404 
L 204.818503 204.768 
L 204.980155 204.768 
L 204.980155 204.124596 
L 205.446094 204.124596 
L 205.512657 202.837787 
L 205.598237 202.837787 
L 205.598237 202.194383 
L 206.349444 202.194383 
L 206.349444 201.550979 
L 206.786856 201.550979 
L 206.786856 200.907574 
L 207.214758 200.907574 
L 207.214758 200.26417 
L 207.918421 200.26417 
L 207.92793 198.977362 
L 208.355832 198.977362 
L 208.355832 198.333957 
L 208.688646 198.333957 
L 208.764717 197.047149 
L 209.611014 197.047149 
L 209.611014 196.403745 
L 210.200569 196.403745 
L 210.286149 195.116936 
L 210.314676 195.116936 
L 210.314676 194.473532 
L 211.046865 194.473532 
L 211.046865 193.830128 
L 211.626911 193.830128 
L 211.626911 193.186723 
L 211.969233 193.186723 
L 212.064323 191.899915 
L 212.63486 191.899915 
L 212.644368 190.613106 
L 213.462138 190.613106 
L 213.509683 189.326298 
L 214.394015 189.326298 
L 214.394015 188.682894 
L 214.907498 188.682894 
L 214.926516 187.396085 
L 215.021606 187.396085 
L 215.059642 186.109277 
L 215.44 186.109277 
L 215.44 185.465872 
L 215.877411 185.465872 
L 215.877411 184.822468 
L 216.771252 184.822468 
L 216.79027 183.53566 
L 217.398843 183.53566 
L 217.398843 182.892255 
L 217.779201 182.892255 
L 217.779201 182.248851 
L 218.159559 182.248851 
L 218.159559 181.605447 
L 218.283175 181.605447 
L 218.321211 180.318638 
L 219.157999 180.318638 
L 219.157999 179.675234 
L 219.32916 179.675234 
L 219.32916 179.03183 
L 219.77608 179.03183 
L 219.77608 178.388426 
L 220.099385 178.388426 
L 220.099385 177.745021 
L 220.698449 177.745021 
L 220.698449 177.101617 
L 221.040771 177.101617 
L 221.040771 176.458213 
L 221.516218 176.458213 
L 221.525727 175.171404 
L 221.639834 175.171404 
L 221.639834 174.528 
L 222.162827 174.528 
L 222.162827 173.884596 
L 223.018632 173.884596 
L 223.018632 173.241191 
L 223.456044 173.241191 
L 223.456044 172.597787 
L 223.864929 172.597787 
L 223.941 171.310979 
L 224.368903 171.310979 
L 224.368903 170.667574 
L 224.530555 170.667574 
L 224.530555 170.02417 
L 224.910913 170.02417 
L 224.910913 169.380766 
L 225.462432 169.380766 
L 225.462432 168.737362 
L 226.337255 168.737362 
L 226.365782 167.450553 
L 226.898283 167.450553 
L 226.898283 166.807149 
L 227.193061 166.807149 
L 227.193061 166.163745 
L 227.839669 166.163745 
L 227.839669 165.52034 
L 228.28659 165.52034 
L 228.28659 164.876936 
L 228.704984 164.876936 
L 228.704984 164.233532 
L 228.838109 164.233532 
L 228.838109 163.590128 
L 229.10436 163.590128 
L 229.10436 162.946723 
L 229.589316 162.946723 
L 229.589316 162.303319 
L 230.216907 162.303319 
L 230.27396 161.016511 
L 230.511684 161.016511 
L 230.511684 160.373106 
L 231.072712 160.373106 
L 231.148784 158.442894 
L 231.405525 158.442894 
L 231.405525 157.799489 
L 231.614722 157.799489 
L 231.614722 157.156085 
L 232.109188 157.156085 
L 232.109188 156.512681 
L 232.45151 156.512681 
L 232.45151 155.869277 
L 232.641689 155.869277 
L 232.641689 155.225872 
L 233.430932 155.225872 
L 233.53553 153.29566 
L 233.839816 153.29566 
L 233.839816 152.652255 
L 234.020486 152.652255 
L 234.029995 151.365447 
L 234.71464 151.365447 
L 234.71464 150.722043 
L 235.018926 150.722043 
L 235.018926 150.078638 
L 235.808169 150.078638 
L 235.912767 146.861617 
L 235.912767 146.861617 
L 236.416742 146.861617 
L 236.416742 146.218213 
L 236.740046 146.218213 
L 236.740046 145.574809 
L 237.196475 145.574809 
L 237.196475 144.931404 
L 237.443708 144.931404 
L 237.443708 144.288 
L 237.814557 144.288 
L 237.814557 143.644596 
L 237.995227 143.644596 
L 237.995227 143.001191 
L 238.166388 143.001191 
L 238.166388 142.357787 
L 238.299514 142.357787 
L 238.299514 141.714383 
L 238.774961 141.714383 
L 238.774961 141.070979 
L 239.088756 141.070979 
L 239.126792 139.78417 
L 239.744874 139.78417 
L 239.811437 138.497362 
L 240.515099 138.497362 
L 240.515099 137.853957 
L 240.629206 137.853957 
L 240.676751 136.567149 
L 241.180725 136.567149 
L 241.180725 135.923745 
L 241.389922 135.923745 
L 241.456485 134.636936 
L 241.646664 134.636936 
L 241.646664 133.993532 
L 242.217201 133.993532 
L 242.217201 133.350128 
L 243.006443 133.350128 
L 243.006443 132.706723 
L 243.500909 132.706723 
L 243.605507 131.419915 
L 243.85274 131.419915 
L 243.890776 130.133106 
L 244.603947 130.133106 
L 244.603947 129.489702 
L 244.765599 129.489702 
L 244.765599 128.846298 
L 245.345645 128.846298 
L 245.345645 128.202894 
L 246.011271 128.202894 
L 246.011271 127.559489 
L 246.172924 127.559489 
L 246.172924 126.916085 
L 247.732391 126.916085 
L 247.732391 126.272681 
L 248.10324 126.272681 
L 248.10324 125.629277 
L 248.321946 125.629277 
L 248.321946 124.985872 
L 248.502616 124.985872 
L 248.502616 124.342468 
L 249.472529 124.342468 
L 249.472529 123.699064 
L 250.052575 123.699064 
L 250.052575 123.05566 
L 250.708692 123.05566 
L 250.708692 122.412255 
L 250.870344 122.412255 
L 250.870344 121.768851 
L 251.849766 121.768851 
L 251.849766 121.125447 
L 252.391776 121.125447 
L 252.391776 120.482043 
L 253.057403 120.482043 
L 253.057403 119.838638 
L 253.295127 119.838638 
L 253.295127 119.195234 
L 254.179459 119.195234 
L 254.179459 118.55183 
L 254.778523 118.55183 
L 254.778523 117.908426 
L 255.444149 117.908426 
L 255.444149 117.265021 
L 255.662855 117.265021 
L 255.662855 116.621617 
L 256.547187 116.621617 
L 256.547187 115.978213 
L 257.773842 115.978213 
L 257.773842 115.334809 
L 258.097146 115.334809 
L 258.097146 114.691404 
L 258.848353 114.691404 
L 258.848353 114.048 
L 260.14157 114.048 
L 260.14157 113.404596 
L 260.445856 113.404596 
L 260.445856 112.761191 
L 261.197063 112.761191 
L 261.197063 112.117787 
L 262.556843 112.117787 
L 262.556843 111.474383 
L 262.832603 111.474383 
L 262.832603 110.830979 
L 264.962607 110.830979 
L 264.962607 110.187574 
L 265.20984 110.187574 
L 265.20984 109.54417 
L 267.320827 109.54417 
L 267.320827 108.900766 
L 267.55855 108.900766 
L 267.55855 108.257362 
L 268.461901 108.257362 
L 268.461901 107.613957 
L 269.679046 107.613957 
L 269.679046 106.970553 
L 269.954806 106.970553 
L 269.954806 106.327149 
L 270.839138 106.327149 
L 270.839138 105.683745 
L 272.075301 105.683745 
L 272.08481 104.396936 
L 273.273429 104.396936 
L 273.273429 103.753532 
L 274.433521 103.753532 
L 274.44303 102.466723 
L 275.631648 102.466723 
L 275.631648 101.823319 
L 276.858303 101.823319 
L 276.858303 101.179915 
L 277.989868 101.179915 
L 277.989868 100.536511 
L 279.264067 100.536511 
L 279.264067 99.893106 
L 280.386123 99.893106 
L 280.386123 99.249702 
L 281.641304 99.249702 
L 281.641304 98.606298 
L 283.086665 98.606298 
L 283.086665 97.962894 
L 284.018542 97.962894 
L 284.018542 97.319489 
L 286.367252 97.319489 
L 286.367252 96.676085 
L 288.820561 96.676085 
L 288.820561 96.032681 
L 289.695384 96.032681 
L 289.695384 95.389277 
L 291.197798 95.389277 
L 291.197798 94.745872 
L 292.985481 94.745872 
L 292.985481 94.102468 
L 293.62258 94.102468 
L 293.62258 93.459064 
L 296.009327 93.459064 
L 296.009327 92.81566 
L 296.304104 92.81566 
L 296.304104 92.172255 
L 298.358037 92.172255 
L 298.358037 91.528851 
L 299.632236 91.528851 
L 299.632236 90.885447 
L 300.754292 90.885447 
L 300.754292 90.242043 
L 301.524517 90.242043 
L 301.524517 89.598638 
L 303.112512 89.598638 
L 303.112512 88.955234 
L 305.698946 88.955234 
L 305.698946 88.31183 
L 308.123728 88.31183 
L 308.123728 87.668426 
L 308.618193 87.668426 
L 308.618193 87.025021 
L 309.521544 87.025021 
L 309.521544 86.381617 
L 310.500965 86.381617 
L 310.500965 85.738213 
L 311.00494 85.738213 
L 311.00494 85.094809 
L 311.470878 85.094809 
L 311.470878 84.451404 
L 311.879763 84.451404 
L 311.879763 83.808 
L 312.868694 83.808 
L 312.868694 83.164596 
L 313.857624 83.164596 
L 313.857624 82.521191 
L 314.333072 82.521191 
L 314.333072 81.877787 
L 316.196826 81.877787 
L 316.196826 81.234383 
L 316.662764 81.234383 
L 316.662764 80.590979 
L 318.545536 80.590979 
L 318.545536 79.947574 
L 319.068529 79.947574 
L 319.068529 79.30417 
L 320.903756 79.30417 
L 320.903756 78.660766 
L 321.474293 78.660766 
L 321.474293 78.017362 
L 323.290502 78.017362 
L 323.290502 77.373957 
L 323.842021 77.373957 
L 323.842021 76.730553 
L 325.696266 76.730553 
L 325.696266 76.087149 
L 326.171714 76.087149 
L 326.171714 75.443745 
L 328.092521 75.443745 
L 328.092521 74.80034 
L 328.596496 74.80034 
L 328.596496 74.156936 
L 330.441232 74.156936 
L 330.441232 73.513532 
L 330.973733 73.513532 
L 330.973733 72.870128 
L 332.827978 72.870128 
L 332.827978 72.226723 
L 333.312935 72.226723 
L 333.312935 71.583319 
L 334.187758 71.583319 
L 334.187758 70.939915 
L 335.214724 70.939915 
L 335.214724 70.296511 
L 335.642627 70.296511 
L 335.642627 69.653106 
L 336.545977 69.653106 
L 336.545977 69.009702 
L 337.582453 69.009702 
L 337.582453 68.366298 
L 338.904197 68.366298 
L 338.904197 67.722894 
L 340.026253 67.722894 
L 340.026253 67.079489 
L 341.281434 67.079489 
L 341.281434 66.436085 
L 342.365454 66.436085 
L 342.365454 65.792681 
L 343.639653 65.792681 
L 343.639653 65.149277 
L 344.295771 65.149277 
L 344.295771 64.505872 
L 344.780727 64.505872 
L 344.780727 63.862468 
L 347.100911 63.862468 
L 347.100911 63.219064 
L 347.614394 63.219064 
L 347.614394 62.57566 
L 349.478148 62.57566 
L 349.478148 61.932255 
L 350.942526 61.932255 
L 350.942526 61.288851 
L 351.855386 61.288851 
L 351.855386 60.645447 
L 354.289677 60.645447 
L 354.289677 60.002043 
L 357.598791 60.002043 
L 357.598791 59.358638 
L 360.95545 59.358638 
L 360.95545 58.715234 
L 364.274073 58.715234 
L 364.274073 58.07183 
L 381.827594 58.07183 
L 381.827594 57.428426 
L 384.223849 57.428426 
L 384.223849 56.785021 
L 388.987832 56.785021 
L 388.987832 56.141617 
L 391.355561 56.141617 
L 391.355561 55.498213 
L 393.71378 55.498213 
L 393.71378 54.854809 
L 396.062491 54.854809 
L 396.062491 54.211404 
L 398.487273 54.211404 
L 398.487273 53.568 
L 398.487273 53.568 
" clip-path="url(#pc05b331726)" style="fill: none; stroke: #1f77b4; stroke-width: 1.5; stroke-linecap: square"/>
   </g>
   <g id="patch_3">
    <path d="M 57.6 307.584 
L 57.6 41.472 
" style="fill: none; stroke: #000000; stroke-width: 0.8; stroke-linejoin: miter; stroke-linecap: square"/>
   </g>
   <g id="patch_4">
    <path d="M 414.72 307.584 
L 414.72 41.472 
" style="fill: none; stroke: #000000; stroke-width: 0.8; stroke-linejoin: miter; stroke-linecap: square"/>
   </g>
   <g id="patch_5">
    <path d="M 57.6 307.584 
L 414.72 307.584 
" style="fill: none; stroke: #000000; stroke-width: 0.8; stroke-linejoin: miter; stroke-linecap: square"/>
   </g>
   <g id="patch_6">
    <path d="M 57.6 41.472 
L 414.72 41.472 
" style="fill: none; stroke: #000000; stroke-width: 0.8; stroke-linejoin: miter; stroke-linecap: square"/>
   </g>
   <g id="text_15">
    <!-- Execution time between S1 S103 -->
    <g transform="translate(136.701562 35.472) scale(0.12 -0.12)">
     <defs>
      <path id="DejaVuSans-45" d="M 628 4666 
L 3578 4666 
L 3578 4134 
L 1259 4134 
L 1259 2753 
L 3481 2753 
L 3481 2222 
L 1259 2222 
L 1259 531 
L 3634 531 
L 3634 0 
L 628 0 
L 628 4666 
z
" transform="scale(0.015625)"/>
      <path id="DejaVuSans-78" d="M 3513 3500 
L 2247 1797 
L 3578 0 
L 2900 0 
L 1881 1375 
L 863 0 
L 184 0 
L 1544 1831 
L 300 3500 
L 978 3500 
L 1906 2253 
L 2834 3500 
L 3513 3500 
z
" transform="scale(0.015625)"/>
      <path id="DejaVuSans-65" d="M 3597 1894 
L 3597 1613 
L 953 1613 
Q 991 1019 1311 708 
Q 1631 397 2203 397 
Q 2534 397 2845 478 
Q 3156 559 3463 722 
L 3463 178 
Q 3153 47 2828 -22 
Q 2503 -91 2169 -91 
Q 1331 -91 842 396 
Q 353 884 353 1716 
Q 353 2575 817 3079 
Q 1281 3584 2069 3584 
Q 2775 3584 3186 3129 
Q 3597 2675 3597 1894 
z
M 3022 2063 
Q 3016 2534 2758 2815 
Q 2500 3097 2075 3097 
Q 1594 3097 1305 2825 
Q 1016 2553 972 2059 
L 3022 2063 
z
" transform="scale(0.015625)"/>
      <path id="DejaVuSans-63" d="M 3122 3366 
L 3122 2828 
Q 2878 2963 2633 3030 
Q 2388 3097 2138 3097 
Q 1578 3097 1268 2742 
Q 959 2388 959 1747 
Q 959 1106 1268 751 
Q 1578 397 2138 397 
Q 2388 397 2633 464 
Q 2878 531 3122 666 
L 3122 134 
Q 2881 22 2623 -34 
Q 2366 -91 2075 -91 
Q 1284 -91 818 406 
Q 353 903 353 1747 
Q 353 2603 823 3093 
Q 1294 3584 2113 3584 
Q 2378 3584 2631 3529 
Q 2884 3475 3122 3366 
z
" transform="scale(0.015625)"/>
      <path id="DejaVuSans-75" d="M 544 1381 
L 544 3500 
L 1119 3500 
L 1119 1403 
Q 1119 906 1312 657 
Q 1506 409 1894 409 
Q 2359 409 2629 706 
Q 2900 1003 2900 1516 
L 2900 3500 
L 3475 3500 
L 3475 0 
L 2900 0 
L 2900 538 
Q 2691 219 2414 64 
Q 2138 -91 1772 -91 
Q 1169 -91 856 284 
Q 544 659 544 1381 
z
M 1991 3584 
L 1991 3584 
z
" transform="scale(0.015625)"/>
      <path id="DejaVuSans-74" d="M 1172 4494 
L 1172 3500 
L 2356 3500 
L 2356 3053 
L 1172 3053 
L 1172 1153 
Q 1172 725 1289 603 
Q 1406 481 1766 481 
L 2356 481 
L 2356 0 
L 1766 0 
Q 1100 0 847 248 
Q 594 497 594 1153 
L 594 3053 
L 172 3053 
L 172 3500 
L 594 3500 
L 594 4494 
L 1172 4494 
z
" transform="scale(0.015625)"/>
      <path id="DejaVuSans-69" d="M 603 3500 
L 1178 3500 
L 1178 0 
L 603 0 
L 603 3500 
z
M 603 4863 
L 1178 4863 
L 1178 4134 
L 603 4134 
L 603 4863 
z
" transform="scale(0.015625)"/>
      <path id="DejaVuSans-6f" d="M 1959 3097 
Q 1497 3097 1228 2736 
Q 959 2375 959 1747 
Q 959 1119 1226 758 
Q 1494 397 1959 397 
Q 2419 397 2687 759 
Q 2956 1122 2956 1747 
Q 2956 2369 2687 2733 
Q 2419 3097 1959 3097 
z
M 1959 3584 
Q 2709 3584 3137 3096 
Q 3566 2609 3566 1747 
Q 3566 888 3137 398 
Q 2709 -91 1959 -91 
Q 1206 -91 779 398 
Q 353 888 353 1747 
Q 353 2609 779 3096 
Q 1206 3584 1959 3584 
z
" transform="scale(0.015625)"/>
      <path id="DejaVuSans-6e" d="M 3513 2113 
L 3513 0 
L 2938 0 
L 2938 2094 
Q 2938 2591 2744 2837 
Q 2550 3084 2163 3084 
Q 1697 3084 1428 2787 
Q 1159 2491 1159 1978 
L 1159 0 
L 581 0 
L 581 3500 
L 1159 3500 
L 1159 2956 
Q 1366 3272 1645 3428 
Q 1925 3584 2291 3584 
Q 2894 3584 3203 3211 
Q 3513 2838 3513 2113 
z
" transform="scale(0.015625)"/>
      <path id="DejaVuSans-20" transform="scale(0.015625)"/>
      <path id="DejaVuSans-6d" d="M 3328 2828 
Q 3544 3216 3844 3400 
Q 4144 3584 4550 3584 
Q 5097 3584 5394 3201 
Q 5691 2819 5691 2113 
L 5691 0 
L 5113 0 
L 5113 2094 
Q 5113 2597 4934 2840 
Q 4756 3084 4391 3084 
Q 3944 3084 3684 2787 
Q 3425 2491 3425 1978 
L 3425 0 
L 2847 0 
L 2847 2094 
Q 2847 2600 2669 2842 
Q 2491 3084 2119 3084 
Q 1678 3084 1418 2786 
Q 1159 2488 1159 1978 
L 1159 0 
L 581 0 
L 581 3500 
L 1159 3500 
L 1159 2956 
Q 1356 3278 1631 3431 
Q 1906 3584 2284 3584 
Q 2666 3584 2933 3390 
Q 3200 3197 3328 2828 
z
" transform="scale(0.015625)"/>
      <path id="DejaVuSans-62" d="M 3116 1747 
Q 3116 2381 2855 2742 
Q 2594 3103 2138 3103 
Q 1681 3103 1420 2742 
Q 1159 2381 1159 1747 
Q 1159 1113 1420 752 
Q 1681 391 2138 391 
Q 2594 391 2855 752 
Q 3116 1113 3116 1747 
z
M 1159 2969 
Q 1341 3281 1617 3432 
Q 1894 3584 2278 3584 
Q 2916 3584 3314 3078 
Q 3713 2572 3713 1747 
Q 3713 922 3314 415 
Q 2916 -91 2278 -91 
Q 1894 -91 1617 61 
Q 1341 213 1159 525 
L 1159 0 
L 581 0 
L 581 4863 
L 1159 4863 
L 1159 2969 
z
" transform="scale(0.015625)"/>
      <path id="DejaVuSans-77" d="M 269 3500 
L 844 3500 
L 1563 769 
L 2278 3500 
L 2956 3500 
L 3675 769 
L 4391 3500 
L 4966 3500 
L 4050 0 
L 3372 0 
L 2619 2869 
L 1863 0 
L 1184 0 
L 269 3500 
z
" transform="scale(0.015625)"/>
      <path id="DejaVuSans-53" d="M 3425 4513 
L 3425 3897 
Q 3066 4069 2747 4153 
Q 2428 4238 2131 4238 
Q 1616 4238 1336 4038 
Q 1056 3838 1056 3469 
Q 1056 3159 1242 3001 
Q 1428 2844 1947 2747 
L 2328 2669 
Q 3034 2534 3370 2195 
Q 3706 1856 3706 1288 
Q 3706 609 3251 259 
Q 2797 -91 1919 -91 
Q 1588 -91 1214 -16 
Q 841 59 441 206 
L 441 856 
Q 825 641 1194 531 
Q 1563 422 1919 422 
Q 2459 422 2753 634 
Q 3047 847 3047 1241 
Q 3047 1584 2836 1778 
Q 2625 1972 2144 2069 
L 1759 2144 
Q 1053 2284 737 2584 
Q 422 2884 422 3419 
Q 422 4038 858 4394 
Q 1294 4750 2059 4750 
Q 2388 4750 2728 4690 
Q 3069 4631 3425 4513 
z
" transform="scale(0.015625)"/>
     </defs>
     <use xlink:href="#DejaVuSans-45"/>
     <use xlink:href="#DejaVuSans-78" x="63.183594"/>
     <use xlink:href="#DejaVuSans-65" x="119.238281"/>
     <use xlink:href="#DejaVuSans-63" x="180.761719"/>
     <use xlink:href="#DejaVuSans-75" x="235.742188"/>
     <use xlink:href="#DejaVuSans-74" x="299.121094"/>
     <use xlink:href="#DejaVuSans-69" x="338.330078"/>
     <use xlink:href="#DejaVuSans-6f" x="366.113281"/>
     <use xlink:href="#DejaVuSans-6e" x="427.294922"/>
     <use xlink:href="#DejaVuSans-20" x="490.673828"/>
     <use xlink:href="#DejaVuSans-74" x="522.460938"/>
     <use xlink:href="#DejaVuSans-69" x="561.669922"/>
     <use xlink:href="#DejaVuSans-6d" x="589.453125"/>
     <use xlink:href="#DejaVuSans-65" x="686.865234"/>
     <use xlink:href="#DejaVuSans-20" x="748.388672"/>
     <use xlink:href="#DejaVuSans-62" x="780.175781"/>
     <use xlink:href="#DejaVuSans-65" x="843.652344"/>
     <use xlink:href="#DejaVuSans-74" x="905.175781"/>
     <use xlink:href="#DejaVuSans-77" x="944.384766"/>
     <use xlink:href="#DejaVuSans-65" x="1026.171875"/>
     <use xlink:href="#DejaVuSans-65" x="1087.695312"/>
     <use xlink:href="#DejaVuSans-6e" x="1149.21875"/>
     <use xlink:href="#DejaVuSans-20" x="1212.597656"/>
     <use xlink:href="#DejaVuSans-53" x="1244.384766"/>
     <use xlink:href="#DejaVuSans-31" x="1307.861328"/>
     <use xlink:href="#DejaVuSans-20" x="1371.484375"/>
     <use xlink:href="#DejaVuSans-53" x="1403.271484"/>
     <use xlink:href="#DejaVuSans-31" x="1466.748047"/>
     <use xlink:href="#DejaVuSans-30" x="1530.371094"/>
     <use xlink:href="#DejaVuSans-33" x="1593.994141"/>
    </g>
   </g>
   <g id="legend_1">
    <g id="patch_7">
     <path d="M 291.861562 304.584 
L 410.52 304.584 
Q 411.72 304.584 411.72 303.384 
L 411.72 295.177125 
Q 411.72 293.977125 410.52 293.977125 
L 291.861562 293.977125 
Q 290.661563 293.977125 290.661563 295.177125 
L 290.661563 303.384 
Q 290.661563 304.584 291.861562 304.584 
z
" style="fill: #ffffff; opacity: 0.8; stroke: #cccccc; stroke-linejoin: miter"/>
    </g>
    <g id="line2d_16">
     <path d="M 293.061562 298.836187 
L 299.061562 298.836187 
L 305.061562 298.836187 
" style="fill: none; stroke: #1f77b4; stroke-width: 1.5; stroke-linecap: square"/>
    </g>
    <g id="text_16">
     <!-- Execution time between S1 S103 -->
     <g transform="translate(309.861562 300.936187) scale(0.06 -0.06)">
      <use xlink:href="#DejaVuSans-45"/>
      <use xlink:href="#DejaVuSans-78" x="63.183594"/>
      <use xlink:href="#DejaVuSans-65" x="119.238281"/>
      <use xlink:href="#DejaVuSans-63" x="180.761719"/>
      <use xlink:href="#DejaVuSans-75" x="235.742188"/>
      <use xlink:href="#DejaVuSans-74" x="299.121094"/>
      <use xlink:href="#DejaVuSans-69" x="338.330078"/>
      <use xlink:href="#DejaVuSans-6f" x="366.113281"/>
      <use xlink:href="#DejaVuSans-6e" x="427.294922"/>
      <use xlink:href="#DejaVuSans-20" x="490.673828"/>
      <use xlink:href="#DejaVuSans-74" x="522.460938"/>
      <use xlink:href="#DejaVuSans-69" x="561.669922"/>
      <use xlink:href="#DejaVuSans-6d" x="589.453125"/>
      <use xlink:href="#DejaVuSans-65" x="686.865234"/>
      <use xlink:href="#DejaVuSans-20" x="748.388672"/>
      <use xlink:href="#DejaVuSans-62" x="780.175781"/>
      <use xlink:href="#DejaVuSans-65" x="843.652344"/>
      <use xlink:href="#DejaVuSans-74" x="905.175781"/>
      <use xlink:href="#DejaVuSans-77" x="944.384766"/>
      <use xlink:href="#DejaVuSans-65" x="1026.171875"/>
      <use xlink:href="#DejaVuSans-65" x="1087.695312"/>
      <use xlink:href="#DejaVuSans-6e" x="1149.21875"/>
      <use xlink:href="#DejaVuSans-20" x="1212.597656"/>
      <use xlink:href="#DejaVuSans-53" x="1244.384766"/>
      <use xlink:href="#DejaVuSans-31" x="1307.861328"/>
      <use xlink:href="#DejaVuSans-20" x="1371.484375"/>
      <use xlink:href="#DejaVuSans-53" x="1403.271484"/>
      <use xlink:href="#DejaVuSans-31" x="1466.748047"/>
      <use xlink:href="#DejaVuSans-30" x="1530.371094"/>
      <use xlink:href="#DejaVuSans-33" x="1593.994141"/>
     </g>
    </g>
   </g>
  </g>
 </g>
 <defs>
  <clipPath id="pc05b331726">
   <rect x="57.6" y="41.472" width="357.12" height="266.112"/>
  </clipPath>
 </defs>
</svg>
