<?xml version="1.0" encoding="utf-8" standalone="no"?>
<!DOCTYPE svg PUBLIC "-//W3C//DTD SVG 1.1//EN"
  "http://www.w3.org/Graphics/SVG/1.1/DTD/svg11.dtd">
<svg xmlns:xlink="http://www.w3.org/1999/xlink" width="460.8pt" height="345.6pt" viewBox="0 0 460.8 345.6" xmlns="http://www.w3.org/2000/svg" version="1.1">
 <metadata>
  <rdf:RDF xmlns:dc="http://purl.org/dc/elements/1.1/" xmlns:cc="http://creativecommons.org/ns#" xmlns:rdf="http://www.w3.org/1999/02/22-rdf-syntax-ns#">
   <cc:Work>
    <dc:type rdf:resource="http://purl.org/dc/dcmitype/StillImage"/>
    <dc:date>2024-03-08T14:27:03.667856</dc:date>
    <dc:format>image/svg+xml</dc:format>
    <dc:creator>
     <cc:Agent>
      <dc:title>Matplotlib v3.8.2, https://matplotlib.org/</dc:title>
     </cc:Agent>
    </dc:creator>
   </cc:Work>
  </rdf:RDF>
 </metadata>
 <defs>
  <style type="text/css">*{stroke-linejoin: round; stroke-linecap: butt}</style>
 </defs>
 <g id="figure_1">
  <g id="patch_1">
   <path d="M 0 345.6 
L 460.8 345.6 
L 460.8 0 
L 0 0 
z
" style="fill: #ffffff"/>
  </g>
  <g id="axes_1">
   <g id="patch_2">
    <path d="M 57.6 307.584 
L 414.72 307.584 
L 414.72 41.472 
L 57.6 41.472 
z
" style="fill: #ffffff"/>
   </g>
   <g id="matplotlib.axis_1">
    <g id="xtick_1">
     <g id="line2d_1">
      <defs>
       <path id="m96436fc3ee" d="M 0 0 
L 0 3.5 
" style="stroke: #000000; stroke-width: 0.8"/>
      </defs>
      <g>
       <use xlink:href="#m96436fc3ee" x="71.383513" y="307.584" style="stroke: #000000; stroke-width: 0.8"/>
      </g>
     </g>
     <g id="text_1">
      <!-- 0.0 -->
      <g transform="translate(63.431951 322.182437) scale(0.1 -0.1)">
       <defs>
        <path id="DejaVuSans-30" d="M 2034 4250 
Q 1547 4250 1301 3770 
Q 1056 3291 1056 2328 
Q 1056 1369 1301 889 
Q 1547 409 2034 409 
Q 2525 409 2770 889 
Q 3016 1369 3016 2328 
Q 3016 3291 2770 3770 
Q 2525 4250 2034 4250 
z
M 2034 4750 
Q 2819 4750 3233 4129 
Q 3647 3509 3647 2328 
Q 3647 1150 3233 529 
Q 2819 -91 2034 -91 
Q 1250 -91 836 529 
Q 422 1150 422 2328 
Q 422 3509 836 4129 
Q 1250 4750 2034 4750 
z
" transform="scale(0.015625)"/>
        <path id="DejaVuSans-2e" d="M 684 794 
L 1344 794 
L 1344 0 
L 684 0 
L 684 794 
z
" transform="scale(0.015625)"/>
       </defs>
       <use xlink:href="#DejaVuSans-30"/>
       <use xlink:href="#DejaVuSans-2e" x="63.623047"/>
       <use xlink:href="#DejaVuSans-30" x="95.410156"/>
      </g>
     </g>
    </g>
    <g id="xtick_2">
     <g id="line2d_2">
      <g>
       <use xlink:href="#m96436fc3ee" x="118.12424" y="307.584" style="stroke: #000000; stroke-width: 0.8"/>
      </g>
     </g>
     <g id="text_2">
      <!-- 0.5 -->
      <g transform="translate(110.172678 322.182437) scale(0.1 -0.1)">
       <defs>
        <path id="DejaVuSans-35" d="M 691 4666 
L 3169 4666 
L 3169 4134 
L 1269 4134 
L 1269 2991 
Q 1406 3038 1543 3061 
Q 1681 3084 1819 3084 
Q 2600 3084 3056 2656 
Q 3513 2228 3513 1497 
Q 3513 744 3044 326 
Q 2575 -91 1722 -91 
Q 1428 -91 1123 -41 
Q 819 9 494 109 
L 494 744 
Q 775 591 1075 516 
Q 1375 441 1709 441 
Q 2250 441 2565 725 
Q 2881 1009 2881 1497 
Q 2881 1984 2565 2268 
Q 2250 2553 1709 2553 
Q 1456 2553 1204 2497 
Q 953 2441 691 2322 
L 691 4666 
z
" transform="scale(0.015625)"/>
       </defs>
       <use xlink:href="#DejaVuSans-30"/>
       <use xlink:href="#DejaVuSans-2e" x="63.623047"/>
       <use xlink:href="#DejaVuSans-35" x="95.410156"/>
      </g>
     </g>
    </g>
    <g id="xtick_3">
     <g id="line2d_3">
      <g>
       <use xlink:href="#m96436fc3ee" x="164.864967" y="307.584" style="stroke: #000000; stroke-width: 0.8"/>
      </g>
     </g>
     <g id="text_3">
      <!-- 1.0 -->
      <g transform="translate(156.913405 322.182437) scale(0.1 -0.1)">
       <defs>
        <path id="DejaVuSans-31" d="M 794 531 
L 1825 531 
L 1825 4091 
L 703 3866 
L 703 4441 
L 1819 4666 
L 2450 4666 
L 2450 531 
L 3481 531 
L 3481 0 
L 794 0 
L 794 531 
z
" transform="scale(0.015625)"/>
       </defs>
       <use xlink:href="#DejaVuSans-31"/>
       <use xlink:href="#DejaVuSans-2e" x="63.623047"/>
       <use xlink:href="#DejaVuSans-30" x="95.410156"/>
      </g>
     </g>
    </g>
    <g id="xtick_4">
     <g id="line2d_4">
      <g>
       <use xlink:href="#m96436fc3ee" x="211.605694" y="307.584" style="stroke: #000000; stroke-width: 0.8"/>
      </g>
     </g>
     <g id="text_4">
      <!-- 1.5 -->
      <g transform="translate(203.654131 322.182437) scale(0.1 -0.1)">
       <use xlink:href="#DejaVuSans-31"/>
       <use xlink:href="#DejaVuSans-2e" x="63.623047"/>
       <use xlink:href="#DejaVuSans-35" x="95.410156"/>
      </g>
     </g>
    </g>
    <g id="xtick_5">
     <g id="line2d_5">
      <g>
       <use xlink:href="#m96436fc3ee" x="258.346421" y="307.584" style="stroke: #000000; stroke-width: 0.8"/>
      </g>
     </g>
     <g id="text_5">
      <!-- 2.0 -->
      <g transform="translate(250.394858 322.182437) scale(0.1 -0.1)">
       <defs>
        <path id="DejaVuSans-32" d="M 1228 531 
L 3431 531 
L 3431 0 
L 469 0 
L 469 531 
Q 828 903 1448 1529 
Q 2069 2156 2228 2338 
Q 2531 2678 2651 2914 
Q 2772 3150 2772 3378 
Q 2772 3750 2511 3984 
Q 2250 4219 1831 4219 
Q 1534 4219 1204 4116 
Q 875 4013 500 3803 
L 500 4441 
Q 881 4594 1212 4672 
Q 1544 4750 1819 4750 
Q 2544 4750 2975 4387 
Q 3406 4025 3406 3419 
Q 3406 3131 3298 2873 
Q 3191 2616 2906 2266 
Q 2828 2175 2409 1742 
Q 1991 1309 1228 531 
z
" transform="scale(0.015625)"/>
       </defs>
       <use xlink:href="#DejaVuSans-32"/>
       <use xlink:href="#DejaVuSans-2e" x="63.623047"/>
       <use xlink:href="#DejaVuSans-30" x="95.410156"/>
      </g>
     </g>
    </g>
    <g id="xtick_6">
     <g id="line2d_6">
      <g>
       <use xlink:href="#m96436fc3ee" x="305.087148" y="307.584" style="stroke: #000000; stroke-width: 0.8"/>
      </g>
     </g>
     <g id="text_6">
      <!-- 2.5 -->
      <g transform="translate(297.135585 322.182437) scale(0.1 -0.1)">
       <use xlink:href="#DejaVuSans-32"/>
       <use xlink:href="#DejaVuSans-2e" x="63.623047"/>
       <use xlink:href="#DejaVuSans-35" x="95.410156"/>
      </g>
     </g>
    </g>
    <g id="xtick_7">
     <g id="line2d_7">
      <g>
       <use xlink:href="#m96436fc3ee" x="351.827875" y="307.584" style="stroke: #000000; stroke-width: 0.8"/>
      </g>
     </g>
     <g id="text_7">
      <!-- 3.0 -->
      <g transform="translate(343.876312 322.182437) scale(0.1 -0.1)">
       <defs>
        <path id="DejaVuSans-33" d="M 2597 2516 
Q 3050 2419 3304 2112 
Q 3559 1806 3559 1356 
Q 3559 666 3084 287 
Q 2609 -91 1734 -91 
Q 1441 -91 1130 -33 
Q 819 25 488 141 
L 488 750 
Q 750 597 1062 519 
Q 1375 441 1716 441 
Q 2309 441 2620 675 
Q 2931 909 2931 1356 
Q 2931 1769 2642 2001 
Q 2353 2234 1838 2234 
L 1294 2234 
L 1294 2753 
L 1863 2753 
Q 2328 2753 2575 2939 
Q 2822 3125 2822 3475 
Q 2822 3834 2567 4026 
Q 2313 4219 1838 4219 
Q 1578 4219 1281 4162 
Q 984 4106 628 3988 
L 628 4550 
Q 988 4650 1302 4700 
Q 1616 4750 1894 4750 
Q 2613 4750 3031 4423 
Q 3450 4097 3450 3541 
Q 3450 3153 3228 2886 
Q 3006 2619 2597 2516 
z
" transform="scale(0.015625)"/>
       </defs>
       <use xlink:href="#DejaVuSans-33"/>
       <use xlink:href="#DejaVuSans-2e" x="63.623047"/>
       <use xlink:href="#DejaVuSans-30" x="95.410156"/>
      </g>
     </g>
    </g>
    <g id="xtick_8">
     <g id="line2d_8">
      <g>
       <use xlink:href="#m96436fc3ee" x="398.568602" y="307.584" style="stroke: #000000; stroke-width: 0.8"/>
      </g>
     </g>
     <g id="text_8">
      <!-- 3.5 -->
      <g transform="translate(390.617039 322.182437) scale(0.1 -0.1)">
       <use xlink:href="#DejaVuSans-33"/>
       <use xlink:href="#DejaVuSans-2e" x="63.623047"/>
       <use xlink:href="#DejaVuSans-35" x="95.410156"/>
      </g>
     </g>
    </g>
    <g id="text_9">
     <!-- 1e6 -->
     <g transform="translate(395.841875 334.860562) scale(0.1 -0.1)">
      <defs>
       <path id="DejaVuSans-65" d="M 3597 1894 
L 3597 1613 
L 953 1613 
Q 991 1019 1311 708 
Q 1631 397 2203 397 
Q 2534 397 2845 478 
Q 3156 559 3463 722 
L 3463 178 
Q 3153 47 2828 -22 
Q 2503 -91 2169 -91 
Q 1331 -91 842 396 
Q 353 884 353 1716 
Q 353 2575 817 3079 
Q 1281 3584 2069 3584 
Q 2775 3584 3186 3129 
Q 3597 2675 3597 1894 
z
M 3022 2063 
Q 3016 2534 2758 2815 
Q 2500 3097 2075 3097 
Q 1594 3097 1305 2825 
Q 1016 2553 972 2059 
L 3022 2063 
z
" transform="scale(0.015625)"/>
       <path id="DejaVuSans-36" d="M 2113 2584 
Q 1688 2584 1439 2293 
Q 1191 2003 1191 1497 
Q 1191 994 1439 701 
Q 1688 409 2113 409 
Q 2538 409 2786 701 
Q 3034 994 3034 1497 
Q 3034 2003 2786 2293 
Q 2538 2584 2113 2584 
z
M 3366 4563 
L 3366 3988 
Q 3128 4100 2886 4159 
Q 2644 4219 2406 4219 
Q 1781 4219 1451 3797 
Q 1122 3375 1075 2522 
Q 1259 2794 1537 2939 
Q 1816 3084 2150 3084 
Q 2853 3084 3261 2657 
Q 3669 2231 3669 1497 
Q 3669 778 3244 343 
Q 2819 -91 2113 -91 
Q 1303 -91 875 529 
Q 447 1150 447 2328 
Q 447 3434 972 4092 
Q 1497 4750 2381 4750 
Q 2619 4750 2861 4703 
Q 3103 4656 3366 4563 
z
" transform="scale(0.015625)"/>
      </defs>
      <use xlink:href="#DejaVuSans-31"/>
      <use xlink:href="#DejaVuSans-65" x="63.623047"/>
      <use xlink:href="#DejaVuSans-36" x="125.146484"/>
     </g>
    </g>
   </g>
   <g id="matplotlib.axis_2">
    <g id="ytick_1">
     <g id="line2d_9">
      <defs>
       <path id="m600e035c40" d="M 0 0 
L -3.5 0 
" style="stroke: #000000; stroke-width: 0.8"/>
      </defs>
      <g>
       <use xlink:href="#m600e035c40" x="57.6" y="295.488" style="stroke: #000000; stroke-width: 0.8"/>
      </g>
     </g>
     <g id="text_10">
      <!-- 0 -->
      <g transform="translate(44.2375 299.287219) scale(0.1 -0.1)">
       <use xlink:href="#DejaVuSans-30"/>
      </g>
     </g>
    </g>
    <g id="ytick_2">
     <g id="line2d_10">
      <g>
       <use xlink:href="#m600e035c40" x="57.6" y="255.168" style="stroke: #000000; stroke-width: 0.8"/>
      </g>
     </g>
     <g id="text_11">
      <!-- 2 -->
      <g transform="translate(44.2375 258.967219) scale(0.1 -0.1)">
       <use xlink:href="#DejaVuSans-32"/>
      </g>
     </g>
    </g>
    <g id="ytick_3">
     <g id="line2d_11">
      <g>
       <use xlink:href="#m600e035c40" x="57.6" y="214.848" style="stroke: #000000; stroke-width: 0.8"/>
      </g>
     </g>
     <g id="text_12">
      <!-- 4 -->
      <g transform="translate(44.2375 218.647219) scale(0.1 -0.1)">
       <defs>
        <path id="DejaVuSans-34" d="M 2419 4116 
L 825 1625 
L 2419 1625 
L 2419 4116 
z
M 2253 4666 
L 3047 4666 
L 3047 1625 
L 3713 1625 
L 3713 1100 
L 3047 1100 
L 3047 0 
L 2419 0 
L 2419 1100 
L 313 1100 
L 313 1709 
L 2253 4666 
z
" transform="scale(0.015625)"/>
       </defs>
       <use xlink:href="#DejaVuSans-34"/>
      </g>
     </g>
    </g>
    <g id="ytick_4">
     <g id="line2d_12">
      <g>
       <use xlink:href="#m600e035c40" x="57.6" y="174.528" style="stroke: #000000; stroke-width: 0.8"/>
      </g>
     </g>
     <g id="text_13">
      <!-- 6 -->
      <g transform="translate(44.2375 178.327219) scale(0.1 -0.1)">
       <use xlink:href="#DejaVuSans-36"/>
      </g>
     </g>
    </g>
    <g id="ytick_5">
     <g id="line2d_13">
      <g>
       <use xlink:href="#m600e035c40" x="57.6" y="134.208" style="stroke: #000000; stroke-width: 0.8"/>
      </g>
     </g>
     <g id="text_14">
      <!-- 8 -->
      <g transform="translate(44.2375 138.007219) scale(0.1 -0.1)">
       <defs>
        <path id="DejaVuSans-38" d="M 2034 2216 
Q 1584 2216 1326 1975 
Q 1069 1734 1069 1313 
Q 1069 891 1326 650 
Q 1584 409 2034 409 
Q 2484 409 2743 651 
Q 3003 894 3003 1313 
Q 3003 1734 2745 1975 
Q 2488 2216 2034 2216 
z
M 1403 2484 
Q 997 2584 770 2862 
Q 544 3141 544 3541 
Q 544 4100 942 4425 
Q 1341 4750 2034 4750 
Q 2731 4750 3128 4425 
Q 3525 4100 3525 3541 
Q 3525 3141 3298 2862 
Q 3072 2584 2669 2484 
Q 3125 2378 3379 2068 
Q 3634 1759 3634 1313 
Q 3634 634 3220 271 
Q 2806 -91 2034 -91 
Q 1263 -91 848 271 
Q 434 634 434 1313 
Q 434 1759 690 2068 
Q 947 2378 1403 2484 
z
M 1172 3481 
Q 1172 3119 1398 2916 
Q 1625 2713 2034 2713 
Q 2441 2713 2670 2916 
Q 2900 3119 2900 3481 
Q 2900 3844 2670 4047 
Q 2441 4250 2034 4250 
Q 1625 4250 1398 4047 
Q 1172 3844 1172 3481 
z
" transform="scale(0.015625)"/>
       </defs>
       <use xlink:href="#DejaVuSans-38"/>
      </g>
     </g>
    </g>
    <g id="ytick_6">
     <g id="line2d_14">
      <g>
       <use xlink:href="#m600e035c40" x="57.6" y="93.888" style="stroke: #000000; stroke-width: 0.8"/>
      </g>
     </g>
     <g id="text_15">
      <!-- 10 -->
      <g transform="translate(37.875 97.687219) scale(0.1 -0.1)">
       <use xlink:href="#DejaVuSans-31"/>
       <use xlink:href="#DejaVuSans-30" x="63.623047"/>
      </g>
     </g>
    </g>
    <g id="ytick_7">
     <g id="line2d_15">
      <g>
       <use xlink:href="#m600e035c40" x="57.6" y="53.568" style="stroke: #000000; stroke-width: 0.8"/>
      </g>
     </g>
     <g id="text_16">
      <!-- 12 -->
      <g transform="translate(37.875 57.367219) scale(0.1 -0.1)">
       <use xlink:href="#DejaVuSans-31"/>
       <use xlink:href="#DejaVuSans-32" x="63.623047"/>
      </g>
     </g>
    </g>
   </g>
   <g id="line2d_16">
    <path d="M 73.832727 275.328 
L 74.484293 235.008 
L 74.574035 295.488 
L 75.143337 255.168 
L 75.259254 295.488 
L 75.469588 275.328 
L 75.793968 255.168 
L 75.859405 295.488 
L 76.451143 255.168 
L 76.544624 295.488 
L 77.108317 255.168 
L 77.193386 295.488 
L 77.766427 255.168 
L 77.87767 295.488 
L 78.097351 275.328 
L 78.42921 255.168 
L 78.517083 295.488 
L 78.750787 275.328 
L 79.171453 295.488 
L 84.760709 275.328 
L 84.844843 214.848 
L 85.15894 194.688 
L 85.186985 174.528 
L 85.200072 295.488 
L 85.566519 275.328 
L 85.594564 255.168 
L 85.609521 295.488 
L 85.91614 275.328 
L 85.94325 255.168 
L 85.959141 295.488 
L 86.29287 275.328 
L 86.320915 255.168 
L 86.335872 295.488 
L 86.660252 275.328 
L 86.688297 255.168 
L 86.702319 295.488 
L 87.032309 275.328 
L 87.07531 295.488 
L 87.419322 255.168 
L 87.456714 295.488 
L 87.772682 275.328 
L 87.838119 295.488 
L 87.90636 275.328 
L 88.226067 295.488 
L 88.23261 275.328 
L 88.553252 255.168 
L 88.670104 295.488 
L 88.878567 275.328 
L 89.210426 255.168 
L 89.273059 295.488 
L 89.854514 255.168 
L 89.976974 295.488 
L 90.186373 275.328 
L 90.517297 255.168 
L 90.585539 295.488 
L 91.167928 255.168 
L 91.238974 295.488 
L 91.827907 255.168 
L 91.96626 295.488 
L 92.162571 275.328 
L 92.487886 255.168 
L 92.578563 295.488 
L 93.133843 255.168 
L 93.27313 295.488 
L 93.459159 275.328 
L 93.785409 255.168 
L 93.925631 295.488 
L 94.106985 275.328 
L 94.433235 255.168 
L 94.525782 295.488 
L 95.093214 255.168 
L 95.225958 295.488 
L 95.417595 275.328 
L 95.74291 255.168 
L 95.841066 295.488 
L 96.39915 255.168 
L 96.498241 295.488 
L 97.052586 255.168 
L 97.149806 295.488 
L 97.706021 255.168 
L 97.818199 295.488 
L 98.030402 275.328 
L 98.356652 255.168 
L 98.499678 295.488 
L 99.009152 275.328 
L 99.328859 255.168 
L 99.470951 295.488 
L 99.663523 275.328 
L 99.997251 255.168 
L 100.075776 295.488 
L 100.662839 255.168 
L 100.80867 295.488 
L 100.98722 275.328 
L 101.31534 255.168 
L 101.415365 295.488 
L 101.976254 255.168 
L 102.096845 295.488 
L 102.301569 275.328 
L 102.623145 255.168 
L 102.756824 295.488 
L 102.942852 275.328 
L 103.270972 255.168 
L 103.387824 295.488 
L 103.596287 275.328 
L 103.923472 255.168 
L 104.008541 295.488 
L 104.579712 255.168 
L 104.705912 295.488 
L 104.906897 275.328 
L 105.236887 255.168 
L 105.343456 295.488 
L 105.884713 255.168 
L 105.993152 295.488 
L 106.542823 255.168 
L 106.669023 295.488 
L 106.868138 275.328 
L 107.18691 255.168 
L 107.329002 295.488 
L 107.515965 275.328 
L 107.839411 255.168 
L 107.947849 295.488 
L 108.166596 275.328 
L 108.496585 255.168 
L 108.592871 295.488 
L 109.152825 255.168 
L 109.220132 295.488 
L 109.798782 255.168 
L 109.939939 295.488 
L 110.121293 275.328 
L 110.447543 255.168 
L 110.548503 295.488 
L 111.098174 255.168 
L 111.232787 295.488 
L 111.427229 275.328 
L 111.849765 295.488 
L 113.243573 275.328 
L 114.403678 174.528 
L 114.528943 295.488 
L 114.639251 275.328 
L 115.338493 214.848 
L 115.442257 295.488 
L 115.806835 255.168 
L 116.279851 214.848 
L 116.408855 295.488 
L 127.731329 275.328 
L 128.427766 214.848 
L 128.606316 295.488 
L 128.664274 275.328 
L 129.135421 235.008 
L 129.227032 194.688 
L 129.241055 174.528 
L 129.379407 154.368 
L 129.421474 93.888 
L 129.435496 295.488 
L 129.872054 275.328 
L 129.914121 214.848 
L 129.928143 295.488 
L 130.386202 275.328 
L 130.428269 214.848 
L 130.441356 295.488 
L 130.915307 275.328 
L 130.957374 214.848 
L 130.97607 295.488 
L 131.402346 275.328 
L 131.444412 214.848 
L 131.463109 295.488 
L 131.895928 275.328 
L 131.93706 214.848 
L 131.952017 295.488 
L 132.413815 275.328 
L 132.455882 214.848 
L 132.470839 295.488 
L 132.952268 275.328 
L 132.99527 214.848 
L 133.009292 295.488 
L 133.462677 275.328 
L 133.504744 214.848 
L 133.517831 295.488 
L 133.969347 275.328 
L 134.011413 214.848 
L 134.025435 295.488 
L 134.470407 275.328 
L 134.516213 214.848 
L 134.526496 295.488 
L 144.55986 275.328 
L 145.723705 174.528 
L 145.791946 295.488 
L 146.039672 255.168 
L 146.096696 174.528 
L 146.578125 154.368 
L 146.620192 93.888 
L 146.634214 295.488 
L 147.1306 275.328 
L 147.172667 214.848 
L 147.186689 295.488 
L 147.658771 275.328 
L 147.693359 214.848 
L 147.715794 295.488 
L 148.166375 275.328 
L 148.207507 214.848 
L 148.229942 295.488 
L 148.649674 275.328 
L 148.691741 214.848 
L 148.705763 295.488 
L 149.187192 275.328 
L 149.228324 214.848 
L 149.244216 295.488 
L 149.696666 275.328 
L 149.738733 214.848 
L 149.75369 295.488 
L 150.241663 275.328 
L 150.28373 214.848 
L 150.298687 295.488 
L 150.75955 275.328 
L 150.801617 214.848 
L 150.815639 295.488 
L 151.279307 275.328 
L 151.320439 214.848 
L 151.335396 295.488 
L 151.786912 275.328 
L 151.81963 235.008 
L 151.843935 295.488 
L 155.740242 275.328 
L 155.772961 255.168 
L 156.237564 214.848 
L 156.335719 295.488 
L 156.701232 255.168 
L 156.939609 235.008 
L 157.088245 295.488 
L 157.271469 235.008 
L 157.3126 174.528 
L 157.802443 154.368 
L 157.845445 93.888 
L 157.859467 295.488 
L 158.313787 275.328 
L 158.355853 214.848 
L 158.369876 295.488 
L 158.821391 275.328 
L 158.863458 214.848 
L 158.87748 295.488 
L 159.344887 275.328 
L 159.387889 214.848 
L 159.400976 295.488 
L 159.886145 275.328 
L 159.928211 214.848 
L 159.942234 295.488 
L 160.395619 275.328 
L 160.442359 214.848 
L 160.452642 295.488 
L 160.905093 275.328 
L 160.923789 255.168 
L 160.962116 295.488 
L 178.205705 275.328 
L 178.904012 214.848 
L 179.006841 295.488 
L 179.377028 255.168 
L 179.610732 235.008 
L 179.707017 194.688 
L 179.72104 174.528 
L 179.900524 154.368 
L 179.927634 114.048 
L 179.955678 295.488 
L 180.378214 275.328 
L 180.420281 214.848 
L 180.434303 295.488 
L 180.922276 275.328 
L 180.969017 194.688 
L 180.9793 295.488 
L 181.400901 275.328 
L 181.429881 235.008 
L 181.453251 295.488 
L 181.889809 275.328 
L 181.931876 214.848 
L 181.950572 295.488 
L 182.391805 275.328 
L 182.433871 214.848 
L 182.447894 295.488 
L 182.894735 275.328 
L 182.936802 214.848 
L 182.949889 295.488 
L 183.376165 275.328 
L 183.418231 214.848 
L 183.432253 295.488 
L 183.921161 275.328 
L 183.963228 214.848 
L 183.976315 295.488 
L 184.469898 275.328 
L 184.511029 214.848 
L 184.525986 295.488 
L 185.007416 275.328 
L 185.049483 214.848 
L 185.06444 295.488 
L 185.553348 275.328 
L 185.595414 214.848 
L 185.609436 295.488 
L 186.096475 275.328 
L 186.138541 214.848 
L 186.153498 295.488 
L 186.584448 275.328 
L 186.62558 214.848 
L 186.640537 295.488 
L 187.089248 275.328 
L 187.135054 214.848 
L 187.146272 295.488 
L 187.566938 275.328 
L 188.581212 255.168 
L 188.69152 295.488 
L 189.237452 255.168 
L 189.368326 295.488 
L 189.568376 275.328 
L 189.896496 255.168 
L 190.024565 295.488 
L 190.220877 275.328 
L 190.551801 255.168 
L 190.676131 295.488 
L 190.88179 275.328 
L 191.205236 255.168 
L 191.295913 295.488 
L 191.855867 255.168 
L 191.978328 295.488 
L 192.186792 275.328 
L 192.506498 255.168 
L 192.614002 295.488 
L 192.829009 275.328 
L 193.155259 255.168 
L 193.781585 235.008 
L 194.032115 214.848 
L 194.069508 295.488 
L 194.371453 275.328 
L 194.435955 295.488 
L 194.463065 275.328 
L 194.793054 255.168 
L 194.803337 295.488 
L 211.938488 275.328 
L 212.591923 235.008 
L 212.737754 295.488 
L 212.916304 275.328 
L 213.243489 255.168 
L 213.334166 235.008 
L 213.358471 295.488 
L 213.390255 255.168 
L 213.759507 235.008 
L 213.787551 214.848 
L 213.801573 295.488 
L 214.149324 275.328 
L 214.177369 255.168 
L 214.191391 295.488 
L 214.490532 275.328 
L 214.518576 255.168 
L 214.532598 295.488 
L 214.85137 275.328 
L 214.879414 255.168 
L 214.894371 295.488 
L 215.200056 275.328 
L 215.2281 255.168 
L 215.243057 295.488 
L 215.597352 275.328 
L 215.625396 255.168 
L 215.640353 295.488 
L 215.952582 275.328 
L 215.980626 255.168 
L 215.995583 295.488 
L 216.327442 275.328 
L 216.355487 255.168 
L 216.369509 295.488 
L 216.709781 275.328 
L 216.738761 255.168 
L 216.752783 295.488 
L 217.051923 275.328 
L 217.079968 255.168 
L 217.093055 295.488 
L 217.383783 275.328 
L 217.411827 255.168 
L 217.425849 295.488 
L 217.749295 275.328 
L 217.77734 255.168 
L 217.792297 295.488 
L 218.112003 275.328 
L 218.155005 295.488 
L 218.477516 255.168 
L 218.515843 295.488 
L 218.651391 275.328 
L 218.898182 295.488 
L 218.986055 275.328 
L 219.242194 295.488 
L 219.315109 275.328 
L 219.633881 255.168 
L 219.755407 295.488 
L 219.971349 275.328 
L 220.304143 255.168 
L 220.407908 295.488 
L 220.953839 255.168 
L 221.097801 295.488 
L 221.281024 275.328 
L 221.614753 255.168 
L 221.716648 295.488 
L 222.272863 255.168 
L 222.362605 295.488 
L 222.930037 255.168 
L 223.003888 295.488 
L 223.572255 255.168 
L 229.900014 235.008 
L 230.274875 214.848 
L 230.30292 194.688 
L 230.316942 295.488 
L 230.628235 275.328 
L 230.656279 255.168 
L 230.670302 295.488 
L 230.981595 275.328 
L 231.009639 255.168 
L 231.023662 295.488 
L 231.358325 275.328 
L 231.38637 255.168 
L 231.401327 295.488 
L 231.726642 275.328 
L 231.754686 255.168 
L 231.768709 295.488 
L 232.084676 275.328 
L 232.111786 255.168 
L 232.126743 295.488 
L 232.446449 275.328 
L 232.473559 255.168 
L 232.489451 295.488 
L 232.800744 275.328 
L 232.828788 255.168 
L 232.843745 295.488 
L 233.158778 275.328 
L 233.186822 255.168 
L 233.200845 295.488 
L 233.512138 275.328 
L 233.540182 255.168 
L 233.554204 295.488 
L 233.878585 275.328 
L 233.90663 255.168 
L 233.920652 295.488 
L 234.228206 275.328 
L 234.25625 255.168 
L 234.270272 295.488 
L 234.55913 275.328 
L 234.588109 255.168 
L 234.601197 295.488 
L 234.923708 275.328 
L 234.957361 214.848 
L 234.982601 295.488 
L 235.019059 275.328 
L 235.31633 255.168 
L 235.332222 235.008 
L 235.375223 295.488 
L 235.41542 275.328 
L 235.769715 255.168 
L 235.829543 235.008 
L 235.882827 295.488 
L 235.975374 275.328 
L 236.165141 255.168 
L 236.343691 295.488 
L 236.350235 275.328 
L 236.716682 235.008 
L 236.819512 295.488 
L 237.085934 255.168 
L 237.457055 214.848 
L 237.464534 295.488 
L 238.21332 214.848 
L 238.273148 295.488 
L 238.59005 255.168 
L 238.958367 214.848 
L 239.000434 295.488 
L 239.516452 235.008 
L 239.699675 214.848 
L 239.720241 295.488 
L 240.265238 235.008 
L 240.4307 295.488 
L 240.452201 275.328 
L 241.196313 194.688 
L 241.285121 295.488 
L 241.578652 255.168 
L 241.955383 214.848 
L 241.964731 295.488 
L 242.514402 235.008 
L 242.662103 295.488 
L 242.705104 275.328 
L 243.274406 214.848 
L 243.451086 295.488 
L 243.460434 275.328 
L 244.215764 194.688 
L 244.226982 295.488 
L 244.963616 214.848 
L 245.006617 295.488 
L 245.529179 235.008 
L 245.718011 214.848 
L 245.726425 295.488 
L 246.465863 214.848 
L 246.545322 295.488 
L 246.837919 255.168 
L 247.216519 214.848 
L 247.241759 295.488 
L 247.959697 214.848 
L 247.987741 295.488 
L 248.702874 214.848 
L 248.747745 295.488 
L 249.273111 235.008 
L 249.462878 214.848 
L 249.463813 295.488 
L 250.213534 214.848 
L 250.253731 295.488 
L 250.778162 235.008 
L 250.965125 214.848 
L 250.974473 295.488 
L 251.533492 235.008 
L 251.700824 295.488 
L 251.719521 275.328 
L 252.462698 194.688 
L 252.495417 295.488 
L 253.204941 214.848 
L 253.229246 295.488 
L 253.947184 214.848 
L 254.013555 295.488 
L 254.321109 255.168 
L 254.6941 214.848 
L 254.718406 295.488 
L 255.435408 214.848 
L 255.465322 295.488 
L 256.178586 214.848 
L 256.201021 295.488 
L 256.921763 214.848 
L 256.973178 295.488 
L 257.478913 235.008 
L 257.67055 214.848 
L 257.682703 295.488 
L 258.231439 235.008 
L 258.448316 295.488 
L 264.025419 275.328 
L 264.236687 255.168 
L 264.292776 154.368 
L 264.791967 134.208 
L 264.82562 73.728 
L 264.85086 295.488 
L 265.300506 275.328 
L 265.335094 214.848 
L 265.3594 295.488 
L 265.826807 275.328 
L 265.86046 214.848 
L 265.8857 295.488 
L 266.376478 275.328 
L 266.410131 214.848 
L 266.436306 295.488 
L 266.871929 275.328 
L 266.905583 214.848 
L 266.932692 295.488 
L 267.404774 275.328 
L 267.437492 214.848 
L 267.464602 295.488 
L 267.85442 275.328 
L 267.888073 214.848 
L 267.915182 295.488 
L 268.317153 275.328 
L 268.350806 214.848 
L 268.377916 295.488 
L 268.838779 275.328 
L 268.865889 235.008 
L 268.898607 295.488 
L 273.582963 275.328 
L 274.695392 154.368 
L 274.715958 295.488 
L 275.046883 255.168 
L 275.454462 235.008 
L 275.488115 174.528 
L 275.497463 295.488 
L 275.532986 214.848 
L 276.01909 194.688 
L 276.052743 134.208 
L 276.077983 295.488 
L 276.465931 275.328 
L 276.49865 214.848 
L 276.52389 295.488 
L 276.978209 275.328 
L 277.011863 214.848 
L 277.038038 295.488 
L 277.445617 275.328 
L 277.47927 214.848 
L 277.505445 295.488 
L 277.946677 275.328 
L 277.981265 214.848 
L 278.006505 295.488 
L 278.450542 275.328 
L 278.484196 214.848 
L 278.509436 295.488 
L 278.953473 275.328 
L 278.988061 214.848 
L 279.013301 295.488 
L 279.41901 275.328 
L 279.453598 214.848 
L 279.478838 295.488 
L 279.978964 275.328 
L 280.033183 295.488 
L 290.413364 275.328 
L 291.160281 194.688 
L 291.188325 295.488 
L 291.873544 214.848 
L 291.937112 295.488 
L 292.027789 275.328 
L 292.083878 174.528 
L 292.533523 154.368 
L 292.567177 93.888 
L 292.593351 295.488 
L 292.981299 275.328 
L 293.014953 214.848 
L 293.041128 295.488 
L 293.492643 275.328 
L 293.522557 214.848 
L 293.552471 295.488 
L 293.966594 275.328 
L 293.999313 214.848 
L 294.029227 295.488 
L 294.434001 275.328 
L 294.467655 214.848 
L 294.497569 295.488 
L 294.928518 275.328 
L 294.961237 214.848 
L 294.986477 295.488 
L 295.437057 275.328 
L 295.469776 214.848 
L 295.495951 295.488 
L 295.929705 275.328 
L 295.963358 214.848 
L 295.989533 295.488 
L 296.442918 275.328 
L 296.476571 214.848 
L 296.502746 295.488 
L 296.960805 275.328 
L 296.994458 214.848 
L 297.018763 295.488 
L 297.503932 275.328 
L 297.537586 214.848 
L 297.56376 295.488 
L 297.999384 275.328 
L 298.033037 214.848 
L 298.059212 295.488 
L 298.527554 275.328 
L 298.561207 214.848 
L 298.587382 295.488 
L 299.034224 275.328 
L 299.067877 214.848 
L 299.094052 295.488 
L 299.525936 275.328 
L 299.559589 214.848 
L 299.585764 295.488 
L 300.050367 275.328 
L 300.08402 214.848 
L 300.110195 295.488 
L 300.594429 275.328 
L 300.628082 214.848 
L 300.653322 295.488 
L 301.088946 275.328 
L 301.121664 214.848 
L 301.147839 295.488 
L 301.609638 275.328 
L 301.643291 214.848 
L 301.669466 295.488 
L 302.137808 275.328 
L 302.172396 214.848 
L 302.197636 295.488 
L 302.667848 275.328 
L 302.701501 214.848 
L 302.727676 295.488 
L 303.155821 275.328 
L 303.189474 214.848 
L 303.215649 295.488 
L 303.684926 275.328 
L 303.719514 214.848 
L 303.744754 295.488 
L 304.172899 275.328 
L 304.200009 235.008 
L 304.231792 295.488 
L 304.653394 255.168 
L 304.669286 235.008 
L 304.711352 295.488 
L 304.837552 275.328 
L 305.142302 255.168 
L 305.207739 275.328 
L 305.215217 255.168 
L 306.463195 235.008 
L 306.668854 295.488 
L 306.79038 275.328 
L 307.117565 255.168 
L 307.19422 295.488 
L 318.668133 275.328 
L 319.000927 255.168 
L 319.118714 295.488 
L 319.324373 275.328 
L 319.648754 255.168 
L 319.731018 295.488 
L 320.09653 255.168 
L 320.124574 235.008 
L 320.297515 214.848 
L 320.32556 194.688 
L 320.339582 295.488 
L 320.683594 275.328 
L 320.711638 255.168 
L 320.72566 295.488 
L 321.050041 275.328 
L 321.073411 255.168 
L 321.092107 295.488 
L 321.40527 275.328 
L 321.433315 255.168 
L 321.452011 295.488 
L 321.790414 275.328 
L 321.818458 255.168 
L 321.832481 295.488 
L 322.151252 275.328 
L 322.180232 255.168 
L 322.194254 295.488 
L 322.553223 275.328 
L 322.581267 255.168 
L 322.595289 295.488 
L 322.873864 275.328 
L 322.901908 255.168 
L 322.916865 295.488 
L 323.212267 275.328 
L 323.240311 255.168 
L 323.254333 295.488 
L 323.588062 275.328 
L 323.616107 255.168 
L 323.630129 295.488 
L 323.983489 275.328 
L 324.011533 255.168 
L 324.02649 295.488 
L 324.35461 275.328 
L 324.382655 255.168 
L 324.397612 295.488 
L 324.717318 275.328 
L 324.745363 255.168 
L 324.759385 295.488 
L 325.03422 275.328 
L 325.076287 295.488 
L 325.126767 275.328 
L 325.429647 255.168 
L 325.46704 295.488 
L 325.748419 275.328 
L 325.813856 295.488 
L 325.814791 275.328 
L 326.134497 255.168 
L 326.179368 295.488 
L 326.459813 275.328 
L 326.607513 295.488 
L 326.791672 275.328 
L 327.121661 255.168 
L 327.236643 295.488 
L 327.768553 255.168 
L 327.887274 295.488 
L 328.094803 275.328 
L 328.429467 255.168 
L 328.537905 295.488 
L 328.750108 275.328 
L 329.076358 255.168 
L 329.19508 295.488 
L 329.406348 275.328 
L 329.866277 295.488 
L 352.167212 275.328 
L 352.823452 235.008 
L 353.305816 214.848 
L 353.371253 295.488 
L 353.722744 214.848 
L 353.756397 295.488 
L 354.039646 275.328 
L 354.06769 255.168 
L 354.081713 295.488 
L 354.417311 275.328 
L 354.444421 255.168 
L 354.458443 295.488 
L 354.809933 275.328 
L 354.833303 255.168 
L 354.852 295.488 
L 355.149271 275.328 
L 355.17638 255.168 
L 355.195077 295.488 
L 355.517588 275.328 
L 355.545632 255.168 
L 355.559654 295.488 
L 355.904601 275.328 
L 355.932645 255.168 
L 355.946668 295.488 
L 356.277592 275.328 
L 356.306571 255.168 
L 356.320593 295.488 
L 356.628147 275.328 
L 356.655257 255.168 
L 356.670214 295.488 
L 356.983377 275.328 
L 357.012356 255.168 
L 357.026378 295.488 
L 357.365716 275.328 
L 357.39376 255.168 
L 357.407783 295.488 
L 357.69851 275.328 
L 357.72562 255.168 
L 357.740577 295.488 
L 358.048131 275.328 
L 358.076175 255.168 
L 358.091132 295.488 
L 358.392142 275.328 
L 358.434209 295.488 
L 358.752981 275.328 
L 358.818418 295.488 
L 363.439206 275.328 
L 364.095446 235.008 
L 364.210428 295.488 
L 364.417957 275.328 
L 364.745142 255.168 
L 364.83021 295.488 
L 365.205071 275.328 
L 365.26116 214.848 
L 365.588345 194.688 
L 365.616389 154.368 
L 365.699588 295.488 
L 365.723893 255.168 
L 366.209996 235.008 
L 366.252063 174.528 
L 366.26702 295.488 
L 366.74658 275.328 
L 366.789581 214.848 
L 366.803604 295.488 
L 367.198095 275.328 
L 367.240162 214.848 
L 367.253249 295.488 
L 367.765528 275.328 
L 367.808529 214.848 
L 367.821617 295.488 
L 368.288089 275.328 
L 368.317068 235.008 
L 368.343243 295.488 
L 368.788215 255.168 
L 368.806911 235.008 
L 368.844304 295.488 
L 369.270579 255.168 
L 369.339755 295.488 
L 369.739856 255.168 
L 369.87073 295.488 
L 369.974494 275.328 
L 370.209133 255.168 
L 370.748521 295.488 
L 376.416301 275.328 
L 376.513522 134.208 
L 377.038888 114.048 
L 377.08002 53.568 
L 377.094977 295.488 
L 377.567993 275.328 
L 377.61006 214.848 
L 377.625017 295.488 
L 378.112055 275.328 
L 378.153187 214.848 
L 378.168144 295.488 
L 378.646769 275.328 
L 378.688836 214.848 
L 378.702858 295.488 
L 379.139416 275.328 
L 379.181483 214.848 
L 379.19644 295.488 
L 379.64889 275.328 
L 379.676935 235.008 
L 379.704979 295.488 
L 379.763872 275.328 
L 380.116297 255.168 
L 380.134994 235.008 
L 380.172386 295.488 
L 380.255585 275.328 
L 380.492093 255.168 
L 380.684665 295.488 
L 380.727666 275.328 
L 380.962305 255.168 
L 381.16142 295.488 
L 381.199747 275.328 
L 381.897119 214.848 
L 381.995275 295.488 
L 382.366396 255.168 
L 382.595426 235.008 
L 382.918871 295.488 
L 383.306819 255.168 
L 384.006996 194.688 
L 384.138804 295.488 
L 384.240699 275.328 
L 384.926853 214.848 
L 385.010986 295.488 
L 385.388651 255.168 
L 385.856994 214.848 
L 387.4387 194.688 
L 387.452722 174.528 
L 387.91639 154.368 
L 387.958457 93.888 
L 387.973414 295.488 
L 388.430538 275.328 
L 388.458582 235.008 
L 388.487562 295.488 
L 388.64648 275.328 
L 388.971796 255.168 
L 388.990492 235.008 
L 389.027884 295.488 
L 389.129779 275.328 
L 389.497161 255.168 
L 389.562598 295.488 
L 389.596252 275.328 
L 390.067398 235.008 
L 390.08329 295.488 
L 390.771314 235.008 
L 390.86386 295.488 
L 391.248069 255.168 
L 391.721085 214.848 
L 391.826719 295.488 
L 392.194101 255.168 
L 392.656834 214.848 
L 392.761534 295.488 
L 393.123307 255.168 
L 393.598193 214.848 
L 393.698218 295.488 
L 394.0656 255.168 
L 394.529268 214.848 
L 394.699404 295.488 
L 394.761102 275.328 
L 395.454734 214.848 
L 395.588413 295.488 
L 395.687503 275.328 
L 396.387679 214.848 
L 396.541924 295.488 
L 396.620448 275.328 
L 397.31595 214.848 
L 397.415975 295.488 
L 397.788031 255.168 
L 398.256374 214.848 
L 398.330224 295.488 
L 398.487273 275.328 
L 398.487273 275.328 
" clip-path="url(#pfe29bc24f5)" style="fill: none; stroke: #1f77b4; stroke-width: 1.5; stroke-linecap: square"/>
   </g>
   <g id="patch_3">
    <path d="M 57.6 307.584 
L 57.6 41.472 
" style="fill: none; stroke: #000000; stroke-width: 0.8; stroke-linejoin: miter; stroke-linecap: square"/>
   </g>
   <g id="patch_4">
    <path d="M 414.72 307.584 
L 414.72 41.472 
" style="fill: none; stroke: #000000; stroke-width: 0.8; stroke-linejoin: miter; stroke-linecap: square"/>
   </g>
   <g id="patch_5">
    <path d="M 57.6 307.584 
L 414.72 307.584 
" style="fill: none; stroke: #000000; stroke-width: 0.8; stroke-linejoin: miter; stroke-linecap: square"/>
   </g>
   <g id="patch_6">
    <path d="M 57.6 41.472 
L 414.72 41.472 
" style="fill: none; stroke: #000000; stroke-width: 0.8; stroke-linejoin: miter; stroke-linecap: square"/>
   </g>
   <g id="text_17">
    <!-- Queue size (y-axis) between S6 and sensors that follow at a time (x-axis). -->
    <g transform="translate(14.282813 35.472) scale(0.12 -0.12)">
     <defs>
      <path id="DejaVuSans-51" d="M 2522 4238 
Q 1834 4238 1429 3725 
Q 1025 3213 1025 2328 
Q 1025 1447 1429 934 
Q 1834 422 2522 422 
Q 3209 422 3611 934 
Q 4013 1447 4013 2328 
Q 4013 3213 3611 3725 
Q 3209 4238 2522 4238 
z
M 3406 84 
L 4238 -825 
L 3475 -825 
L 2784 -78 
Q 2681 -84 2626 -87 
Q 2572 -91 2522 -91 
Q 1538 -91 948 567 
Q 359 1225 359 2328 
Q 359 3434 948 4092 
Q 1538 4750 2522 4750 
Q 3503 4750 4090 4092 
Q 4678 3434 4678 2328 
Q 4678 1516 4351 937 
Q 4025 359 3406 84 
z
" transform="scale(0.015625)"/>
      <path id="DejaVuSans-75" d="M 544 1381 
L 544 3500 
L 1119 3500 
L 1119 1403 
Q 1119 906 1312 657 
Q 1506 409 1894 409 
Q 2359 409 2629 706 
Q 2900 1003 2900 1516 
L 2900 3500 
L 3475 3500 
L 3475 0 
L 2900 0 
L 2900 538 
Q 2691 219 2414 64 
Q 2138 -91 1772 -91 
Q 1169 -91 856 284 
Q 544 659 544 1381 
z
M 1991 3584 
L 1991 3584 
z
" transform="scale(0.015625)"/>
      <path id="DejaVuSans-20" transform="scale(0.015625)"/>
      <path id="DejaVuSans-73" d="M 2834 3397 
L 2834 2853 
Q 2591 2978 2328 3040 
Q 2066 3103 1784 3103 
Q 1356 3103 1142 2972 
Q 928 2841 928 2578 
Q 928 2378 1081 2264 
Q 1234 2150 1697 2047 
L 1894 2003 
Q 2506 1872 2764 1633 
Q 3022 1394 3022 966 
Q 3022 478 2636 193 
Q 2250 -91 1575 -91 
Q 1294 -91 989 -36 
Q 684 19 347 128 
L 347 722 
Q 666 556 975 473 
Q 1284 391 1588 391 
Q 1994 391 2212 530 
Q 2431 669 2431 922 
Q 2431 1156 2273 1281 
Q 2116 1406 1581 1522 
L 1381 1569 
Q 847 1681 609 1914 
Q 372 2147 372 2553 
Q 372 3047 722 3315 
Q 1072 3584 1716 3584 
Q 2034 3584 2315 3537 
Q 2597 3491 2834 3397 
z
" transform="scale(0.015625)"/>
      <path id="DejaVuSans-69" d="M 603 3500 
L 1178 3500 
L 1178 0 
L 603 0 
L 603 3500 
z
M 603 4863 
L 1178 4863 
L 1178 4134 
L 603 4134 
L 603 4863 
z
" transform="scale(0.015625)"/>
      <path id="DejaVuSans-7a" d="M 353 3500 
L 3084 3500 
L 3084 2975 
L 922 459 
L 3084 459 
L 3084 0 
L 275 0 
L 275 525 
L 2438 3041 
L 353 3041 
L 353 3500 
z
" transform="scale(0.015625)"/>
      <path id="DejaVuSans-28" d="M 1984 4856 
Q 1566 4138 1362 3434 
Q 1159 2731 1159 2009 
Q 1159 1288 1364 580 
Q 1569 -128 1984 -844 
L 1484 -844 
Q 1016 -109 783 600 
Q 550 1309 550 2009 
Q 550 2706 781 3412 
Q 1013 4119 1484 4856 
L 1984 4856 
z
" transform="scale(0.015625)"/>
      <path id="DejaVuSans-79" d="M 2059 -325 
Q 1816 -950 1584 -1140 
Q 1353 -1331 966 -1331 
L 506 -1331 
L 506 -850 
L 844 -850 
Q 1081 -850 1212 -737 
Q 1344 -625 1503 -206 
L 1606 56 
L 191 3500 
L 800 3500 
L 1894 763 
L 2988 3500 
L 3597 3500 
L 2059 -325 
z
" transform="scale(0.015625)"/>
      <path id="DejaVuSans-2d" d="M 313 2009 
L 1997 2009 
L 1997 1497 
L 313 1497 
L 313 2009 
z
" transform="scale(0.015625)"/>
      <path id="DejaVuSans-61" d="M 2194 1759 
Q 1497 1759 1228 1600 
Q 959 1441 959 1056 
Q 959 750 1161 570 
Q 1363 391 1709 391 
Q 2188 391 2477 730 
Q 2766 1069 2766 1631 
L 2766 1759 
L 2194 1759 
z
M 3341 1997 
L 3341 0 
L 2766 0 
L 2766 531 
Q 2569 213 2275 61 
Q 1981 -91 1556 -91 
Q 1019 -91 701 211 
Q 384 513 384 1019 
Q 384 1609 779 1909 
Q 1175 2209 1959 2209 
L 2766 2209 
L 2766 2266 
Q 2766 2663 2505 2880 
Q 2244 3097 1772 3097 
Q 1472 3097 1187 3025 
Q 903 2953 641 2809 
L 641 3341 
Q 956 3463 1253 3523 
Q 1550 3584 1831 3584 
Q 2591 3584 2966 3190 
Q 3341 2797 3341 1997 
z
" transform="scale(0.015625)"/>
      <path id="DejaVuSans-78" d="M 3513 3500 
L 2247 1797 
L 3578 0 
L 2900 0 
L 1881 1375 
L 863 0 
L 184 0 
L 1544 1831 
L 300 3500 
L 978 3500 
L 1906 2253 
L 2834 3500 
L 3513 3500 
z
" transform="scale(0.015625)"/>
      <path id="DejaVuSans-29" d="M 513 4856 
L 1013 4856 
Q 1481 4119 1714 3412 
Q 1947 2706 1947 2009 
Q 1947 1309 1714 600 
Q 1481 -109 1013 -844 
L 513 -844 
Q 928 -128 1133 580 
Q 1338 1288 1338 2009 
Q 1338 2731 1133 3434 
Q 928 4138 513 4856 
z
" transform="scale(0.015625)"/>
      <path id="DejaVuSans-62" d="M 3116 1747 
Q 3116 2381 2855 2742 
Q 2594 3103 2138 3103 
Q 1681 3103 1420 2742 
Q 1159 2381 1159 1747 
Q 1159 1113 1420 752 
Q 1681 391 2138 391 
Q 2594 391 2855 752 
Q 3116 1113 3116 1747 
z
M 1159 2969 
Q 1341 3281 1617 3432 
Q 1894 3584 2278 3584 
Q 2916 3584 3314 3078 
Q 3713 2572 3713 1747 
Q 3713 922 3314 415 
Q 2916 -91 2278 -91 
Q 1894 -91 1617 61 
Q 1341 213 1159 525 
L 1159 0 
L 581 0 
L 581 4863 
L 1159 4863 
L 1159 2969 
z
" transform="scale(0.015625)"/>
      <path id="DejaVuSans-74" d="M 1172 4494 
L 1172 3500 
L 2356 3500 
L 2356 3053 
L 1172 3053 
L 1172 1153 
Q 1172 725 1289 603 
Q 1406 481 1766 481 
L 2356 481 
L 2356 0 
L 1766 0 
Q 1100 0 847 248 
Q 594 497 594 1153 
L 594 3053 
L 172 3053 
L 172 3500 
L 594 3500 
L 594 4494 
L 1172 4494 
z
" transform="scale(0.015625)"/>
      <path id="DejaVuSans-77" d="M 269 3500 
L 844 3500 
L 1563 769 
L 2278 3500 
L 2956 3500 
L 3675 769 
L 4391 3500 
L 4966 3500 
L 4050 0 
L 3372 0 
L 2619 2869 
L 1863 0 
L 1184 0 
L 269 3500 
z
" transform="scale(0.015625)"/>
      <path id="DejaVuSans-6e" d="M 3513 2113 
L 3513 0 
L 2938 0 
L 2938 2094 
Q 2938 2591 2744 2837 
Q 2550 3084 2163 3084 
Q 1697 3084 1428 2787 
Q 1159 2491 1159 1978 
L 1159 0 
L 581 0 
L 581 3500 
L 1159 3500 
L 1159 2956 
Q 1366 3272 1645 3428 
Q 1925 3584 2291 3584 
Q 2894 3584 3203 3211 
Q 3513 2838 3513 2113 
z
" transform="scale(0.015625)"/>
      <path id="DejaVuSans-53" d="M 3425 4513 
L 3425 3897 
Q 3066 4069 2747 4153 
Q 2428 4238 2131 4238 
Q 1616 4238 1336 4038 
Q 1056 3838 1056 3469 
Q 1056 3159 1242 3001 
Q 1428 2844 1947 2747 
L 2328 2669 
Q 3034 2534 3370 2195 
Q 3706 1856 3706 1288 
Q 3706 609 3251 259 
Q 2797 -91 1919 -91 
Q 1588 -91 1214 -16 
Q 841 59 441 206 
L 441 856 
Q 825 641 1194 531 
Q 1563 422 1919 422 
Q 2459 422 2753 634 
Q 3047 847 3047 1241 
Q 3047 1584 2836 1778 
Q 2625 1972 2144 2069 
L 1759 2144 
Q 1053 2284 737 2584 
Q 422 2884 422 3419 
Q 422 4038 858 4394 
Q 1294 4750 2059 4750 
Q 2388 4750 2728 4690 
Q 3069 4631 3425 4513 
z
" transform="scale(0.015625)"/>
      <path id="DejaVuSans-64" d="M 2906 2969 
L 2906 4863 
L 3481 4863 
L 3481 0 
L 2906 0 
L 2906 525 
Q 2725 213 2448 61 
Q 2172 -91 1784 -91 
Q 1150 -91 751 415 
Q 353 922 353 1747 
Q 353 2572 751 3078 
Q 1150 3584 1784 3584 
Q 2172 3584 2448 3432 
Q 2725 3281 2906 2969 
z
M 947 1747 
Q 947 1113 1208 752 
Q 1469 391 1925 391 
Q 2381 391 2643 752 
Q 2906 1113 2906 1747 
Q 2906 2381 2643 2742 
Q 2381 3103 1925 3103 
Q 1469 3103 1208 2742 
Q 947 2381 947 1747 
z
" transform="scale(0.015625)"/>
      <path id="DejaVuSans-6f" d="M 1959 3097 
Q 1497 3097 1228 2736 
Q 959 2375 959 1747 
Q 959 1119 1226 758 
Q 1494 397 1959 397 
Q 2419 397 2687 759 
Q 2956 1122 2956 1747 
Q 2956 2369 2687 2733 
Q 2419 3097 1959 3097 
z
M 1959 3584 
Q 2709 3584 3137 3096 
Q 3566 2609 3566 1747 
Q 3566 888 3137 398 
Q 2709 -91 1959 -91 
Q 1206 -91 779 398 
Q 353 888 353 1747 
Q 353 2609 779 3096 
Q 1206 3584 1959 3584 
z
" transform="scale(0.015625)"/>
      <path id="DejaVuSans-72" d="M 2631 2963 
Q 2534 3019 2420 3045 
Q 2306 3072 2169 3072 
Q 1681 3072 1420 2755 
Q 1159 2438 1159 1844 
L 1159 0 
L 581 0 
L 581 3500 
L 1159 3500 
L 1159 2956 
Q 1341 3275 1631 3429 
Q 1922 3584 2338 3584 
Q 2397 3584 2469 3576 
Q 2541 3569 2628 3553 
L 2631 2963 
z
" transform="scale(0.015625)"/>
      <path id="DejaVuSans-68" d="M 3513 2113 
L 3513 0 
L 2938 0 
L 2938 2094 
Q 2938 2591 2744 2837 
Q 2550 3084 2163 3084 
Q 1697 3084 1428 2787 
Q 1159 2491 1159 1978 
L 1159 0 
L 581 0 
L 581 4863 
L 1159 4863 
L 1159 2956 
Q 1366 3272 1645 3428 
Q 1925 3584 2291 3584 
Q 2894 3584 3203 3211 
Q 3513 2838 3513 2113 
z
" transform="scale(0.015625)"/>
      <path id="DejaVuSans-66" d="M 2375 4863 
L 2375 4384 
L 1825 4384 
Q 1516 4384 1395 4259 
Q 1275 4134 1275 3809 
L 1275 3500 
L 2222 3500 
L 2222 3053 
L 1275 3053 
L 1275 0 
L 697 0 
L 697 3053 
L 147 3053 
L 147 3500 
L 697 3500 
L 697 3744 
Q 697 4328 969 4595 
Q 1241 4863 1831 4863 
L 2375 4863 
z
" transform="scale(0.015625)"/>
      <path id="DejaVuSans-6c" d="M 603 4863 
L 1178 4863 
L 1178 0 
L 603 0 
L 603 4863 
z
" transform="scale(0.015625)"/>
      <path id="DejaVuSans-6d" d="M 3328 2828 
Q 3544 3216 3844 3400 
Q 4144 3584 4550 3584 
Q 5097 3584 5394 3201 
Q 5691 2819 5691 2113 
L 5691 0 
L 5113 0 
L 5113 2094 
Q 5113 2597 4934 2840 
Q 4756 3084 4391 3084 
Q 3944 3084 3684 2787 
Q 3425 2491 3425 1978 
L 3425 0 
L 2847 0 
L 2847 2094 
Q 2847 2600 2669 2842 
Q 2491 3084 2119 3084 
Q 1678 3084 1418 2786 
Q 1159 2488 1159 1978 
L 1159 0 
L 581 0 
L 581 3500 
L 1159 3500 
L 1159 2956 
Q 1356 3278 1631 3431 
Q 1906 3584 2284 3584 
Q 2666 3584 2933 3390 
Q 3200 3197 3328 2828 
z
" transform="scale(0.015625)"/>
     </defs>
     <use xlink:href="#DejaVuSans-51"/>
     <use xlink:href="#DejaVuSans-75" x="78.710938"/>
     <use xlink:href="#DejaVuSans-65" x="142.089844"/>
     <use xlink:href="#DejaVuSans-75" x="203.613281"/>
     <use xlink:href="#DejaVuSans-65" x="266.992188"/>
     <use xlink:href="#DejaVuSans-20" x="328.515625"/>
     <use xlink:href="#DejaVuSans-73" x="360.302734"/>
     <use xlink:href="#DejaVuSans-69" x="412.402344"/>
     <use xlink:href="#DejaVuSans-7a" x="440.185547"/>
     <use xlink:href="#DejaVuSans-65" x="492.675781"/>
     <use xlink:href="#DejaVuSans-20" x="554.199219"/>
     <use xlink:href="#DejaVuSans-28" x="585.986328"/>
     <use xlink:href="#DejaVuSans-79" x="625"/>
     <use xlink:href="#DejaVuSans-2d" x="682.429688"/>
     <use xlink:href="#DejaVuSans-61" x="718.513672"/>
     <use xlink:href="#DejaVuSans-78" x="779.792969"/>
     <use xlink:href="#DejaVuSans-69" x="838.972656"/>
     <use xlink:href="#DejaVuSans-73" x="866.755859"/>
     <use xlink:href="#DejaVuSans-29" x="918.855469"/>
     <use xlink:href="#DejaVuSans-20" x="957.869141"/>
     <use xlink:href="#DejaVuSans-62" x="989.65625"/>
     <use xlink:href="#DejaVuSans-65" x="1053.132812"/>
     <use xlink:href="#DejaVuSans-74" x="1114.65625"/>
     <use xlink:href="#DejaVuSans-77" x="1153.865234"/>
     <use xlink:href="#DejaVuSans-65" x="1235.652344"/>
     <use xlink:href="#DejaVuSans-65" x="1297.175781"/>
     <use xlink:href="#DejaVuSans-6e" x="1358.699219"/>
     <use xlink:href="#DejaVuSans-20" x="1422.078125"/>
     <use xlink:href="#DejaVuSans-53" x="1453.865234"/>
     <use xlink:href="#DejaVuSans-36" x="1517.341797"/>
     <use xlink:href="#DejaVuSans-20" x="1580.964844"/>
     <use xlink:href="#DejaVuSans-61" x="1612.751953"/>
     <use xlink:href="#DejaVuSans-6e" x="1674.03125"/>
     <use xlink:href="#DejaVuSans-64" x="1737.410156"/>
     <use xlink:href="#DejaVuSans-20" x="1800.886719"/>
     <use xlink:href="#DejaVuSans-73" x="1832.673828"/>
     <use xlink:href="#DejaVuSans-65" x="1884.773438"/>
     <use xlink:href="#DejaVuSans-6e" x="1946.296875"/>
     <use xlink:href="#DejaVuSans-73" x="2009.675781"/>
     <use xlink:href="#DejaVuSans-6f" x="2061.775391"/>
     <use xlink:href="#DejaVuSans-72" x="2122.957031"/>
     <use xlink:href="#DejaVuSans-73" x="2164.070312"/>
     <use xlink:href="#DejaVuSans-20" x="2216.169922"/>
     <use xlink:href="#DejaVuSans-74" x="2247.957031"/>
     <use xlink:href="#DejaVuSans-68" x="2287.166016"/>
     <use xlink:href="#DejaVuSans-61" x="2350.544922"/>
     <use xlink:href="#DejaVuSans-74" x="2411.824219"/>
     <use xlink:href="#DejaVuSans-20" x="2451.033203"/>
     <use xlink:href="#DejaVuSans-66" x="2482.820312"/>
     <use xlink:href="#DejaVuSans-6f" x="2518.025391"/>
     <use xlink:href="#DejaVuSans-6c" x="2579.207031"/>
     <use xlink:href="#DejaVuSans-6c" x="2606.990234"/>
     <use xlink:href="#DejaVuSans-6f" x="2634.773438"/>
     <use xlink:href="#DejaVuSans-77" x="2695.955078"/>
     <use xlink:href="#DejaVuSans-20" x="2777.742188"/>
     <use xlink:href="#DejaVuSans-61" x="2809.529297"/>
     <use xlink:href="#DejaVuSans-74" x="2870.808594"/>
     <use xlink:href="#DejaVuSans-20" x="2910.017578"/>
     <use xlink:href="#DejaVuSans-61" x="2941.804688"/>
     <use xlink:href="#DejaVuSans-20" x="3003.083984"/>
     <use xlink:href="#DejaVuSans-74" x="3034.871094"/>
     <use xlink:href="#DejaVuSans-69" x="3074.080078"/>
     <use xlink:href="#DejaVuSans-6d" x="3101.863281"/>
     <use xlink:href="#DejaVuSans-65" x="3199.275391"/>
     <use xlink:href="#DejaVuSans-20" x="3260.798828"/>
     <use xlink:href="#DejaVuSans-28" x="3292.585938"/>
     <use xlink:href="#DejaVuSans-78" x="3331.599609"/>
     <use xlink:href="#DejaVuSans-2d" x="3390.779297"/>
     <use xlink:href="#DejaVuSans-61" x="3426.863281"/>
     <use xlink:href="#DejaVuSans-78" x="3488.142578"/>
     <use xlink:href="#DejaVuSans-69" x="3547.322266"/>
     <use xlink:href="#DejaVuSans-73" x="3575.105469"/>
     <use xlink:href="#DejaVuSans-29" x="3627.205078"/>
     <use xlink:href="#DejaVuSans-2e" x="3666.21875"/>
    </g>
   </g>
  </g>
 </g>
 <defs>
  <clipPath id="pfe29bc24f5">
   <rect x="57.6" y="41.472" width="357.12" height="266.112"/>
  </clipPath>
 </defs>
</svg>
