<?xml version="1.0" encoding="utf-8" standalone="no"?>
<!DOCTYPE svg PUBLIC "-//W3C//DTD SVG 1.1//EN"
  "http://www.w3.org/Graphics/SVG/1.1/DTD/svg11.dtd">
<svg xmlns:xlink="http://www.w3.org/1999/xlink" width="460.8pt" height="345.6pt" viewBox="0 0 460.8 345.6" xmlns="http://www.w3.org/2000/svg" version="1.1">
 <metadata>
  <rdf:RDF xmlns:dc="http://purl.org/dc/elements/1.1/" xmlns:cc="http://creativecommons.org/ns#" xmlns:rdf="http://www.w3.org/1999/02/22-rdf-syntax-ns#">
   <cc:Work>
    <dc:type rdf:resource="http://purl.org/dc/dcmitype/StillImage"/>
    <dc:date>2024-03-08T14:27:03.795428</dc:date>
    <dc:format>image/svg+xml</dc:format>
    <dc:creator>
     <cc:Agent>
      <dc:title>Matplotlib v3.8.2, https://matplotlib.org/</dc:title>
     </cc:Agent>
    </dc:creator>
   </cc:Work>
  </rdf:RDF>
 </metadata>
 <defs>
  <style type="text/css">*{stroke-linejoin: round; stroke-linecap: butt}</style>
 </defs>
 <g id="figure_1">
  <g id="patch_1">
   <path d="M 0 345.6 
L 460.8 345.6 
L 460.8 0 
L 0 0 
z
" style="fill: #ffffff"/>
  </g>
  <g id="axes_1">
   <g id="patch_2">
    <path d="M 57.6 307.584 
L 414.72 307.584 
L 414.72 41.472 
L 57.6 41.472 
z
" style="fill: #ffffff"/>
   </g>
   <g id="matplotlib.axis_1">
    <g id="xtick_1">
     <g id="line2d_1">
      <defs>
       <path id="m7379eca83c" d="M 0 0 
L 0 3.5 
" style="stroke: #000000; stroke-width: 0.8"/>
      </defs>
      <g>
       <use xlink:href="#m7379eca83c" x="70.63696" y="307.584" style="stroke: #000000; stroke-width: 0.8"/>
      </g>
     </g>
     <g id="text_1">
      <!-- 0.0 -->
      <g transform="translate(62.685398 322.182437) scale(0.1 -0.1)">
       <defs>
        <path id="DejaVuSans-30" d="M 2034 4250 
Q 1547 4250 1301 3770 
Q 1056 3291 1056 2328 
Q 1056 1369 1301 889 
Q 1547 409 2034 409 
Q 2525 409 2770 889 
Q 3016 1369 3016 2328 
Q 3016 3291 2770 3770 
Q 2525 4250 2034 4250 
z
M 2034 4750 
Q 2819 4750 3233 4129 
Q 3647 3509 3647 2328 
Q 3647 1150 3233 529 
Q 2819 -91 2034 -91 
Q 1250 -91 836 529 
Q 422 1150 422 2328 
Q 422 3509 836 4129 
Q 1250 4750 2034 4750 
z
" transform="scale(0.015625)"/>
        <path id="DejaVuSans-2e" d="M 684 794 
L 1344 794 
L 1344 0 
L 684 0 
L 684 794 
z
" transform="scale(0.015625)"/>
       </defs>
       <use xlink:href="#DejaVuSans-30"/>
       <use xlink:href="#DejaVuSans-2e" x="63.623047"/>
       <use xlink:href="#DejaVuSans-30" x="95.410156"/>
      </g>
     </g>
    </g>
    <g id="xtick_2">
     <g id="line2d_2">
      <g>
       <use xlink:href="#m7379eca83c" x="117.454527" y="307.584" style="stroke: #000000; stroke-width: 0.8"/>
      </g>
     </g>
     <g id="text_2">
      <!-- 0.5 -->
      <g transform="translate(109.502965 322.182437) scale(0.1 -0.1)">
       <defs>
        <path id="DejaVuSans-35" d="M 691 4666 
L 3169 4666 
L 3169 4134 
L 1269 4134 
L 1269 2991 
Q 1406 3038 1543 3061 
Q 1681 3084 1819 3084 
Q 2600 3084 3056 2656 
Q 3513 2228 3513 1497 
Q 3513 744 3044 326 
Q 2575 -91 1722 -91 
Q 1428 -91 1123 -41 
Q 819 9 494 109 
L 494 744 
Q 775 591 1075 516 
Q 1375 441 1709 441 
Q 2250 441 2565 725 
Q 2881 1009 2881 1497 
Q 2881 1984 2565 2268 
Q 2250 2553 1709 2553 
Q 1456 2553 1204 2497 
Q 953 2441 691 2322 
L 691 4666 
z
" transform="scale(0.015625)"/>
       </defs>
       <use xlink:href="#DejaVuSans-30"/>
       <use xlink:href="#DejaVuSans-2e" x="63.623047"/>
       <use xlink:href="#DejaVuSans-35" x="95.410156"/>
      </g>
     </g>
    </g>
    <g id="xtick_3">
     <g id="line2d_3">
      <g>
       <use xlink:href="#m7379eca83c" x="164.272094" y="307.584" style="stroke: #000000; stroke-width: 0.8"/>
      </g>
     </g>
     <g id="text_3">
      <!-- 1.0 -->
      <g transform="translate(156.320532 322.182437) scale(0.1 -0.1)">
       <defs>
        <path id="DejaVuSans-31" d="M 794 531 
L 1825 531 
L 1825 4091 
L 703 3866 
L 703 4441 
L 1819 4666 
L 2450 4666 
L 2450 531 
L 3481 531 
L 3481 0 
L 794 0 
L 794 531 
z
" transform="scale(0.015625)"/>
       </defs>
       <use xlink:href="#DejaVuSans-31"/>
       <use xlink:href="#DejaVuSans-2e" x="63.623047"/>
       <use xlink:href="#DejaVuSans-30" x="95.410156"/>
      </g>
     </g>
    </g>
    <g id="xtick_4">
     <g id="line2d_4">
      <g>
       <use xlink:href="#m7379eca83c" x="211.089661" y="307.584" style="stroke: #000000; stroke-width: 0.8"/>
      </g>
     </g>
     <g id="text_4">
      <!-- 1.5 -->
      <g transform="translate(203.138099 322.182437) scale(0.1 -0.1)">
       <use xlink:href="#DejaVuSans-31"/>
       <use xlink:href="#DejaVuSans-2e" x="63.623047"/>
       <use xlink:href="#DejaVuSans-35" x="95.410156"/>
      </g>
     </g>
    </g>
    <g id="xtick_5">
     <g id="line2d_5">
      <g>
       <use xlink:href="#m7379eca83c" x="257.907228" y="307.584" style="stroke: #000000; stroke-width: 0.8"/>
      </g>
     </g>
     <g id="text_5">
      <!-- 2.0 -->
      <g transform="translate(249.955666 322.182437) scale(0.1 -0.1)">
       <defs>
        <path id="DejaVuSans-32" d="M 1228 531 
L 3431 531 
L 3431 0 
L 469 0 
L 469 531 
Q 828 903 1448 1529 
Q 2069 2156 2228 2338 
Q 2531 2678 2651 2914 
Q 2772 3150 2772 3378 
Q 2772 3750 2511 3984 
Q 2250 4219 1831 4219 
Q 1534 4219 1204 4116 
Q 875 4013 500 3803 
L 500 4441 
Q 881 4594 1212 4672 
Q 1544 4750 1819 4750 
Q 2544 4750 2975 4387 
Q 3406 4025 3406 3419 
Q 3406 3131 3298 2873 
Q 3191 2616 2906 2266 
Q 2828 2175 2409 1742 
Q 1991 1309 1228 531 
z
" transform="scale(0.015625)"/>
       </defs>
       <use xlink:href="#DejaVuSans-32"/>
       <use xlink:href="#DejaVuSans-2e" x="63.623047"/>
       <use xlink:href="#DejaVuSans-30" x="95.410156"/>
      </g>
     </g>
    </g>
    <g id="xtick_6">
     <g id="line2d_6">
      <g>
       <use xlink:href="#m7379eca83c" x="304.724795" y="307.584" style="stroke: #000000; stroke-width: 0.8"/>
      </g>
     </g>
     <g id="text_6">
      <!-- 2.5 -->
      <g transform="translate(296.773233 322.182437) scale(0.1 -0.1)">
       <use xlink:href="#DejaVuSans-32"/>
       <use xlink:href="#DejaVuSans-2e" x="63.623047"/>
       <use xlink:href="#DejaVuSans-35" x="95.410156"/>
      </g>
     </g>
    </g>
    <g id="xtick_7">
     <g id="line2d_7">
      <g>
       <use xlink:href="#m7379eca83c" x="351.542362" y="307.584" style="stroke: #000000; stroke-width: 0.8"/>
      </g>
     </g>
     <g id="text_7">
      <!-- 3.0 -->
      <g transform="translate(343.590799 322.182437) scale(0.1 -0.1)">
       <defs>
        <path id="DejaVuSans-33" d="M 2597 2516 
Q 3050 2419 3304 2112 
Q 3559 1806 3559 1356 
Q 3559 666 3084 287 
Q 2609 -91 1734 -91 
Q 1441 -91 1130 -33 
Q 819 25 488 141 
L 488 750 
Q 750 597 1062 519 
Q 1375 441 1716 441 
Q 2309 441 2620 675 
Q 2931 909 2931 1356 
Q 2931 1769 2642 2001 
Q 2353 2234 1838 2234 
L 1294 2234 
L 1294 2753 
L 1863 2753 
Q 2328 2753 2575 2939 
Q 2822 3125 2822 3475 
Q 2822 3834 2567 4026 
Q 2313 4219 1838 4219 
Q 1578 4219 1281 4162 
Q 984 4106 628 3988 
L 628 4550 
Q 988 4650 1302 4700 
Q 1616 4750 1894 4750 
Q 2613 4750 3031 4423 
Q 3450 4097 3450 3541 
Q 3450 3153 3228 2886 
Q 3006 2619 2597 2516 
z
" transform="scale(0.015625)"/>
       </defs>
       <use xlink:href="#DejaVuSans-33"/>
       <use xlink:href="#DejaVuSans-2e" x="63.623047"/>
       <use xlink:href="#DejaVuSans-30" x="95.410156"/>
      </g>
     </g>
    </g>
    <g id="xtick_8">
     <g id="line2d_8">
      <g>
       <use xlink:href="#m7379eca83c" x="398.359929" y="307.584" style="stroke: #000000; stroke-width: 0.8"/>
      </g>
     </g>
     <g id="text_8">
      <!-- 3.5 -->
      <g transform="translate(390.408366 322.182437) scale(0.1 -0.1)">
       <use xlink:href="#DejaVuSans-33"/>
       <use xlink:href="#DejaVuSans-2e" x="63.623047"/>
       <use xlink:href="#DejaVuSans-35" x="95.410156"/>
      </g>
     </g>
    </g>
    <g id="text_9">
     <!-- 1e6 -->
     <g transform="translate(395.841875 334.860562) scale(0.1 -0.1)">
      <defs>
       <path id="DejaVuSans-65" d="M 3597 1894 
L 3597 1613 
L 953 1613 
Q 991 1019 1311 708 
Q 1631 397 2203 397 
Q 2534 397 2845 478 
Q 3156 559 3463 722 
L 3463 178 
Q 3153 47 2828 -22 
Q 2503 -91 2169 -91 
Q 1331 -91 842 396 
Q 353 884 353 1716 
Q 353 2575 817 3079 
Q 1281 3584 2069 3584 
Q 2775 3584 3186 3129 
Q 3597 2675 3597 1894 
z
M 3022 2063 
Q 3016 2534 2758 2815 
Q 2500 3097 2075 3097 
Q 1594 3097 1305 2825 
Q 1016 2553 972 2059 
L 3022 2063 
z
" transform="scale(0.015625)"/>
       <path id="DejaVuSans-36" d="M 2113 2584 
Q 1688 2584 1439 2293 
Q 1191 2003 1191 1497 
Q 1191 994 1439 701 
Q 1688 409 2113 409 
Q 2538 409 2786 701 
Q 3034 994 3034 1497 
Q 3034 2003 2786 2293 
Q 2538 2584 2113 2584 
z
M 3366 4563 
L 3366 3988 
Q 3128 4100 2886 4159 
Q 2644 4219 2406 4219 
Q 1781 4219 1451 3797 
Q 1122 3375 1075 2522 
Q 1259 2794 1537 2939 
Q 1816 3084 2150 3084 
Q 2853 3084 3261 2657 
Q 3669 2231 3669 1497 
Q 3669 778 3244 343 
Q 2819 -91 2113 -91 
Q 1303 -91 875 529 
Q 447 1150 447 2328 
Q 447 3434 972 4092 
Q 1497 4750 2381 4750 
Q 2619 4750 2861 4703 
Q 3103 4656 3366 4563 
z
" transform="scale(0.015625)"/>
      </defs>
      <use xlink:href="#DejaVuSans-31"/>
      <use xlink:href="#DejaVuSans-65" x="63.623047"/>
      <use xlink:href="#DejaVuSans-36" x="125.146484"/>
     </g>
    </g>
   </g>
   <g id="matplotlib.axis_2">
    <g id="ytick_1">
     <g id="line2d_9">
      <defs>
       <path id="mf58a0a0446" d="M 0 0 
L -3.5 0 
" style="stroke: #000000; stroke-width: 0.8"/>
      </defs>
      <g>
       <use xlink:href="#mf58a0a0446" x="57.6" y="295.488" style="stroke: #000000; stroke-width: 0.8"/>
      </g>
     </g>
     <g id="text_10">
      <!-- 0 -->
      <g transform="translate(44.2375 299.287219) scale(0.1 -0.1)">
       <use xlink:href="#DejaVuSans-30"/>
      </g>
     </g>
    </g>
    <g id="ytick_2">
     <g id="line2d_10">
      <g>
       <use xlink:href="#mf58a0a0446" x="57.6" y="248.964923" style="stroke: #000000; stroke-width: 0.8"/>
      </g>
     </g>
     <g id="text_11">
      <!-- 5 -->
      <g transform="translate(44.2375 252.764142) scale(0.1 -0.1)">
       <use xlink:href="#DejaVuSans-35"/>
      </g>
     </g>
    </g>
    <g id="ytick_3">
     <g id="line2d_11">
      <g>
       <use xlink:href="#mf58a0a0446" x="57.6" y="202.441846" style="stroke: #000000; stroke-width: 0.8"/>
      </g>
     </g>
     <g id="text_12">
      <!-- 10 -->
      <g transform="translate(37.875 206.241065) scale(0.1 -0.1)">
       <use xlink:href="#DejaVuSans-31"/>
       <use xlink:href="#DejaVuSans-30" x="63.623047"/>
      </g>
     </g>
    </g>
    <g id="ytick_4">
     <g id="line2d_12">
      <g>
       <use xlink:href="#mf58a0a0446" x="57.6" y="155.918769" style="stroke: #000000; stroke-width: 0.8"/>
      </g>
     </g>
     <g id="text_13">
      <!-- 15 -->
      <g transform="translate(37.875 159.717988) scale(0.1 -0.1)">
       <use xlink:href="#DejaVuSans-31"/>
       <use xlink:href="#DejaVuSans-35" x="63.623047"/>
      </g>
     </g>
    </g>
    <g id="ytick_5">
     <g id="line2d_13">
      <g>
       <use xlink:href="#mf58a0a0446" x="57.6" y="109.395692" style="stroke: #000000; stroke-width: 0.8"/>
      </g>
     </g>
     <g id="text_14">
      <!-- 20 -->
      <g transform="translate(37.875 113.194911) scale(0.1 -0.1)">
       <use xlink:href="#DejaVuSans-32"/>
       <use xlink:href="#DejaVuSans-30" x="63.623047"/>
      </g>
     </g>
    </g>
    <g id="ytick_6">
     <g id="line2d_14">
      <g>
       <use xlink:href="#mf58a0a0446" x="57.6" y="62.872615" style="stroke: #000000; stroke-width: 0.8"/>
      </g>
     </g>
     <g id="text_15">
      <!-- 25 -->
      <g transform="translate(37.875 66.671834) scale(0.1 -0.1)">
       <use xlink:href="#DejaVuSans-32"/>
       <use xlink:href="#DejaVuSans-35" x="63.623047"/>
      </g>
     </g>
    </g>
   </g>
   <g id="line2d_15">
    <path d="M 73.832727 267.574154 
L 74.199777 295.488 
L 74.519073 276.878769 
L 74.886123 295.488 
L 75.12021 276.878769 
L 75.48726 295.488 
L 75.806556 276.878769 
L 76.173606 295.488 
L 76.456384 276.878769 
L 76.823433 295.488 
L 77.141793 276.878769 
L 77.508843 295.488 
L 77.782257 276.878769 
L 78.148371 295.488 
L 78.437703 286.183385 
L 78.803817 295.488 
L 84.476233 239.660308 
L 84.843283 295.488 
L 84.886355 276.878769 
L 85.23655 258.269538 
L 85.252468 276.878769 
L 85.602664 295.488 
L 85.6139 276.878769 
L 85.98095 276.878769 
L 86.347999 295.488 
L 86.354554 286.183385 
L 86.721603 295.488 
L 86.736585 276.878769 
L 87.103635 295.488 
L 87.118616 286.183385 
L 87.485666 295.488 
L 87.507202 286.183385 
L 87.873316 295.488 
L 87.951969 276.878769 
L 88.319019 295.488 
L 88.555916 276.878769 
L 88.922965 295.488 
L 89.260988 276.878769 
L 89.628038 295.488 
L 89.870553 276.878769 
L 90.237603 295.488 
L 90.525063 276.878769 
L 90.892112 295.488 
L 91.253544 276.878769 
L 91.620594 295.488 
L 91.866854 276.878769 
L 92.233904 295.488 
L 92.562563 276.878769 
L 92.929613 295.488 
L 93.216136 276.878769 
L 93.583186 295.488 
L 93.817274 276.878769 
L 94.184324 295.488 
L 94.518601 276.878769 
L 94.885651 295.488 
L 95.13472 276.878769 
L 95.792975 258.269538 
L 96.127253 276.878769 
L 96.445612 258.269538 
L 97.797703 221.051077 
L 98.770572 202.441846 
L 99.111404 221.051077 
L 99.167585 258.269538 
L 99.376392 239.660308 
L 99.543062 276.878769 
L 99.89794 295.488 
L 100.110491 276.878769 
L 100.477541 295.488 
L 100.718183 276.878769 
L 101.085233 295.488 
L 101.400783 276.878769 
L 101.767833 295.488 
L 102.061847 276.878769 
L 102.428897 295.488 
L 102.693885 276.878769 
L 103.060934 295.488 
L 103.315622 276.878769 
L 103.682672 295.488 
L 104.01414 276.878769 
L 104.38119 295.488 
L 104.652732 276.878769 
L 105.019781 295.488 
L 105.303496 276.878769 
L 105.670546 295.488 
L 105.980478 276.878769 
L 106.347528 295.488 
L 106.641542 276.878769 
L 107.008592 295.488 
L 107.261406 276.878769 
L 107.628456 295.488 
L 107.907489 276.878769 
L 108.274539 295.488 
L 108.535781 276.878769 
L 108.90283 295.488 
L 109.256771 276.878769 
L 109.623821 295.488 
L 109.866336 276.878769 
L 110.233386 295.488 
L 110.551745 276.878769 
L 110.918795 295.488 
L 111.169737 286.183385 
L 111.536787 295.488 
L 113.85332 239.660308 
L 114.22037 295.488 
L 114.768135 258.269538 
L 115.134249 295.488 
L 115.736322 258.269538 
L 116.103372 295.488 
L 127.953835 258.269538 
L 128.320884 295.488 
L 128.784378 202.441846 
L 129.151428 295.488 
L 129.277835 258.269538 
L 129.644885 295.488 
L 129.791892 258.269538 
L 130.158942 295.488 
L 130.327485 258.269538 
L 130.694535 295.488 
L 130.815324 258.269538 
L 131.182374 295.488 
L 131.305036 258.269538 
L 131.672086 295.488 
L 131.824711 258.269538 
L 132.191761 295.488 
L 132.364049 258.269538 
L 132.731099 295.488 
L 132.873425 258.269538 
L 133.240474 295.488 
L 133.381863 258.269538 
L 133.748913 295.488 
L 133.883748 258.269538 
L 134.250797 295.488 
L 145.167718 239.660308 
L 145.534767 295.488 
L 146.01137 202.441846 
L 146.377484 295.488 
L 146.564754 258.269538 
L 146.931804 295.488 
L 147.094729 258.269538 
L 147.461778 295.488 
L 147.609722 258.269538 
L 147.976772 295.488 
L 148.086325 258.269538 
L 148.453375 295.488 
L 148.625663 258.269538 
L 148.992713 295.488 
L 149.135975 258.269538 
L 149.503024 295.488 
L 149.681868 258.269538 
L 150.048917 295.488 
L 150.19967 258.269538 
L 150.56672 295.488 
L 150.720281 258.269538 
L 151.087331 295.488 
L 151.229656 267.574154 
L 151.59577 295.488 
L 155.728824 258.269538 
L 156.094938 295.488 
L 156.482587 267.574154 
L 156.849637 295.488 
L 157.255077 202.441846 
L 157.622127 295.488 
L 157.766325 258.269538 
L 158.132438 295.488 
L 158.274764 258.269538 
L 158.641813 295.488 
L 158.799121 258.269538 
L 159.16617 295.488 
L 159.341268 258.269538 
L 159.708318 295.488 
L 159.852516 258.269538 
L 160.362827 239.660308 
L 160.697105 276.878769 
L 161.848817 295.488 
L 178.437217 258.269538 
L 178.804267 295.488 
L 179.387614 211.746462 
L 179.754663 295.488 
L 179.867026 258.269538 
L 180.234075 295.488 
L 180.412918 248.964923 
L 180.779032 295.488 
L 180.887649 267.574154 
L 181.254698 295.488 
L 181.385788 258.269538 
L 181.752837 295.488 
L 181.883926 258.269538 
L 182.250976 295.488 
L 182.386747 258.269538 
L 182.753797 295.488 
L 182.869904 258.269538 
L 183.236954 295.488 
L 183.414861 258.269538 
L 183.781911 295.488 
L 183.965435 258.269538 
L 184.332485 295.488 
L 184.504774 258.269538 
L 184.871824 295.488 
L 185.050667 258.269538 
L 185.417716 295.488 
L 185.595623 258.269538 
L 185.961737 295.488 
L 186.083462 258.269538 
L 186.450512 295.488 
L 186.590028 258.269538 
L 187.398099 295.488 
L 188.815735 276.878769 
L 192.066747 183.832615 
L 193.201605 202.441846 
L 193.512474 221.051077 
L 193.524646 183.832615 
L 193.617345 221.051077 
L 193.645436 239.660308 
L 193.891696 230.355692 
L 193.997504 248.964923 
L 194.030276 286.183385 
L 194.259682 267.574154 
L 194.626732 295.488 
L 212.223583 267.574154 
L 212.590632 295.488 
L 212.84532 267.574154 
L 213.211433 295.488 
L 213.28915 258.269538 
L 213.6562 295.488 
L 213.679609 276.878769 
L 214.021377 258.269538 
L 214.046659 276.878769 
L 214.383745 258.269538 
L 214.388427 276.878769 
L 214.733004 258.269538 
L 214.749858 276.878769 
L 215.100054 295.488 
L 215.130953 276.878769 
L 215.486767 258.269538 
L 215.498003 276.878769 
L 215.853817 295.488 
L 215.861307 276.878769 
L 216.228357 295.488 
L 216.245212 276.878769 
L 216.586043 258.269538 
L 216.612261 276.878769 
L 216.919385 258.269538 
L 216.953093 276.878769 
L 217.286434 276.878769 
L 217.649739 267.574154 
L 217.653484 286.183385 
L 218.01117 267.574154 
L 218.016788 276.878769 
L 218.394138 267.574154 
L 218.728415 286.183385 
L 218.738715 276.878769 
L 219.252772 258.269538 
L 222.506593 165.223385 
L 229.401884 174.528 
L 229.458065 202.441846 
L 229.831669 155.918769 
L 229.891596 211.746462 
L 230.18561 193.137231 
L 230.253028 230.355692 
L 230.519888 276.878769 
L 230.539551 258.269538 
L 230.666895 276.878769 
L 230.906601 295.488 
L 230.917837 276.878769 
L 231.284887 295.488 
L 231.285823 276.878769 
L 231.644446 258.269538 
L 231.652873 276.878769 
L 232.00775 258.269538 
L 232.011495 276.878769 
L 232.362627 258.269538 
L 232.3748 276.878769 
L 232.720313 258.269538 
L 232.729677 276.878769 
L 233.074254 258.269538 
L 233.087363 276.878769 
L 233.441304 276.878769 
L 233.791499 258.269538 
L 233.808354 276.878769 
L 234.122968 258.269538 
L 234.158549 276.878769 
L 234.490017 295.488 
L 234.504999 258.269538 
L 234.872049 295.488 
L 234.898267 267.574154 
L 235.265316 295.488 
L 235.406705 267.574154 
L 235.773755 295.488 
L 235.868327 276.878769 
L 236.23444 295.488 
L 236.344929 267.574154 
L 236.711979 295.488 
L 236.991012 258.269538 
L 237.358062 295.488 
L 237.800956 258.269538 
L 238.168005 295.488 
L 238.529437 258.269538 
L 238.896487 295.488 
L 239.250428 258.269538 
L 239.617477 295.488 
L 239.962055 267.574154 
L 240.329104 295.488 
L 240.81788 248.964923 
L 241.184929 295.488 
L 241.498607 258.269538 
L 241.865657 295.488 
L 242.197125 267.574154 
L 242.564175 295.488 
L 242.987406 258.269538 
L 243.354456 295.488 
L 243.764577 248.964923 
L 244.131627 295.488 
L 244.545494 258.269538 
L 244.912544 295.488 
L 245.266485 258.269538 
L 245.633535 295.488 
L 246.086729 258.269538 
L 246.453778 295.488 
L 246.78431 258.269538 
L 247.15136 295.488 
L 247.531519 258.269538 
L 247.897632 295.488 
L 248.292772 258.269538 
L 248.659822 295.488 
L 249.010018 258.269538 
L 249.377067 295.488 
L 249.801234 258.269538 
L 250.168284 295.488 
L 250.523161 258.269538 
L 250.890211 295.488 
L 251.250706 267.574154 
L 251.617756 295.488 
L 252.046605 248.964923 
L 252.413655 295.488 
L 252.781641 258.269538 
L 253.148691 295.488 
L 253.56724 258.269538 
L 253.934289 295.488 
L 254.273248 258.269538 
L 254.640298 295.488 
L 255.021393 258.269538 
L 255.388443 295.488 
L 255.758302 258.269538 
L 256.125351 295.488 
L 256.531728 258.269538 
L 256.898778 295.488 
L 257.242419 258.269538 
L 257.609468 295.488 
L 258.00929 267.574154 
L 258.37634 295.488 
L 264.422361 193.137231 
L 264.78941 295.488 
L 264.931736 258.269538 
L 265.298786 295.488 
L 265.458902 258.269538 
L 265.825951 295.488 
L 266.010413 258.269538 
L 266.377462 295.488 
L 266.507615 258.269538 
L 266.874665 295.488 
L 267.040399 258.269538 
L 267.406512 295.488 
L 267.49172 258.269538 
L 267.857834 295.488 
L 267.955214 258.269538 
L 268.322264 295.488 
L 268.476762 267.574154 
L 268.843812 295.488 
L 274.303676 230.355692 
L 274.670726 295.488 
L 275.086466 239.660308 
L 275.453516 295.488 
L 275.66794 221.051077 
L 276.03499 295.488 
L 276.11458 258.269538 
L 276.48163 295.488 
L 276.629573 258.269538 
L 276.995686 295.488 
L 277.097749 258.269538 
L 277.464798 295.488 
L 277.599633 258.269538 
L 277.965746 295.488 
L 278.10339 258.269538 
L 278.469503 295.488 
L 278.608083 258.269538 
L 278.974197 295.488 
L 279.074386 258.269538 
L 279.4405 295.488 
L 279.629643 286.183385 
L 279.996692 295.488 
L 290.803123 248.964923 
L 291.170173 295.488 
L 291.553141 258.269538 
L 291.92019 295.488 
L 292.210459 202.441846 
L 292.577509 295.488 
L 292.658972 258.269538 
L 293.026021 295.488 
L 293.171156 258.269538 
L 293.538206 295.488 
L 293.648695 258.269538 
L 294.015745 295.488 
L 294.117807 258.269538 
L 294.484857 295.488 
L 294.607519 258.269538 
L 294.974569 295.488 
L 295.11783 258.269538 
L 295.48488 295.488 
L 295.612224 258.269538 
L 295.979273 295.488 
L 296.126281 258.269538 
L 296.49333 295.488 
L 296.643147 258.269538 
L 297.010196 295.488 
L 297.189039 258.269538 
L 297.556089 295.488 
L 297.685306 258.269538 
L 298.052355 295.488 
L 298.214344 258.269538 
L 298.581394 295.488 
L 298.721847 258.269538 
L 299.088896 295.488 
L 299.214367 258.269538 
L 299.581417 295.488 
L 299.73966 258.269538 
L 300.10671 295.488 
L 300.283681 258.269538 
L 300.65073 295.488 
L 300.77901 258.269538 
L 301.14606 295.488 
L 301.301495 258.269538 
L 301.667608 295.488 
L 301.830533 258.269538 
L 302.196646 295.488 
L 302.361444 258.269538 
L 302.727558 295.488 
L 302.85022 258.269538 
L 303.217269 295.488 
L 303.380194 258.269538 
L 303.747244 295.488 
L 303.868034 267.574154 
L 304.235083 295.488 
L 304.348382 267.574154 
L 304.715431 295.488 
L 304.845584 286.183385 
L 305.212634 295.488 
L 306.835331 276.878769 
L 307.202381 295.488 
L 318.779429 276.878769 
L 319.146478 295.488 
L 319.392739 276.878769 
L 319.759788 295.488 
L 320.002303 248.964923 
L 320.369353 295.488 
L 320.389017 276.878769 
L 320.756066 276.878769 
L 321.116562 258.269538 
L 321.123116 276.878769 
L 321.483611 295.488 
L 321.497657 276.878769 
L 321.860025 258.269538 
L 321.864706 276.878769 
L 322.227074 295.488 
L 322.261719 276.878769 
L 322.583824 258.269538 
L 322.628769 276.878769 
L 322.921847 258.269538 
L 322.950874 276.878769 
L 323.288897 295.488 
L 323.29826 276.878769 
L 323.66531 295.488 
L 323.695273 276.878769 
L 324.062323 295.488 
L 324.067005 276.878769 
L 324.429373 258.269538 
L 324.433118 276.878769 
L 324.746796 267.574154 
L 324.796422 286.183385 
L 325.113845 295.488 
L 325.138191 276.878769 
L 325.485577 267.574154 
L 325.50524 286.183385 
L 325.85169 267.574154 
L 325.852627 276.878769 
L 326.21874 295.488 
L 326.280539 286.183385 
L 326.647589 295.488 
L 326.910704 276.878769 
L 327.277753 295.488 
L 327.562404 276.878769 
L 327.929454 295.488 
L 328.214105 276.878769 
L 328.581154 295.488 
L 328.87236 276.878769 
L 329.239409 295.488 
L 329.54466 286.183385 
L 329.91171 295.488 
L 353.088278 258.269538 
L 353.455328 295.488 
L 353.474055 258.269538 
L 353.799905 239.660308 
L 353.841105 276.878769 
L 354.166955 295.488 
L 354.177255 276.878769 
L 354.544304 295.488 
L 354.571459 276.878769 
L 354.915099 258.269538 
L 354.938508 276.878769 
L 355.280277 258.269538 
L 355.282149 276.878769 
L 355.647326 295.488 
L 355.667926 276.878769 
L 356.034976 295.488 
L 356.042467 276.878769 
L 356.392662 258.269538 
L 356.409516 276.878769 
L 356.749412 258.269538 
L 356.759712 276.878769 
L 357.116461 295.488 
L 357.131443 276.878769 
L 357.464784 258.269538 
L 357.498493 276.878769 
L 357.815916 258.269538 
L 357.831834 276.878769 
L 358.159557 267.574154 
L 358.182966 286.183385 
L 358.526607 295.488 
L 358.544397 286.183385 
L 358.911447 295.488 
L 363.945272 267.574154 
L 364.311385 295.488 
L 364.566073 276.878769 
L 364.933122 295.488 
L 365.381635 239.660308 
L 365.748684 295.488 
L 366.005245 239.660308 
L 366.371358 295.488 
L 366.54271 258.269538 
L 366.908824 295.488 
L 366.993095 258.269538 
L 367.360145 295.488 
L 367.562397 258.269538 
L 367.929447 295.488 
L 368.084881 267.574154 
L 368.451931 295.488 
L 368.586765 267.574154 
L 368.953815 295.488 
L 369.083032 276.878769 
L 369.450081 295.488 
L 369.614879 276.878769 
L 369.981929 295.488 
L 370.494113 276.878769 
L 370.861163 295.488 
L 376.851002 183.832615 
L 377.218052 295.488 
L 377.381914 258.269538 
L 377.748963 295.488 
L 377.925934 258.269538 
L 378.292983 295.488 
L 378.461527 258.269538 
L 378.828576 295.488 
L 378.95592 258.269538 
L 379.465295 230.355692 
L 379.799573 267.574154 
L 379.933471 239.660308 
L 380.924131 202.441846 
L 381.759356 165.223385 
L 382.684471 137.309538 
L 384.780025 53.568 
L 387.213603 81.481846 
L 387.269784 128.004923 
L 387.639642 146.614154 
L 387.695824 211.746462 
L 387.747323 118.700308 
L 388.034783 165.223385 
L 388.067555 202.441846 
L 388.262316 174.528 
L 388.404642 267.574154 
L 388.629366 295.488 
L 388.803527 267.574154 
L 389.170577 295.488 
L 389.33912 276.878769 
L 389.70617 295.488 
L 389.860668 267.574154 
L 390.227718 295.488 
L 390.642521 267.574154 
L 391.008635 295.488 
L 391.606963 258.269538 
L 391.974013 295.488 
L 392.543314 258.269538 
L 392.910364 295.488 
L 393.481538 258.269538 
L 393.848588 295.488 
L 394.484371 258.269538 
L 394.85142 295.488 
L 395.374841 258.269538 
L 395.741891 295.488 
L 396.329919 258.269538 
L 396.696969 295.488 
L 397.205408 258.269538 
L 397.572457 295.488 
L 398.121159 258.269538 
L 398.487273 295.488 
L 398.487273 295.488 
" clip-path="url(#pbda9155953)" style="fill: none; stroke: #1f77b4; stroke-width: 1.5; stroke-linecap: square"/>
   </g>
   <g id="patch_3">
    <path d="M 57.6 307.584 
L 57.6 41.472 
" style="fill: none; stroke: #000000; stroke-width: 0.8; stroke-linejoin: miter; stroke-linecap: square"/>
   </g>
   <g id="patch_4">
    <path d="M 414.72 307.584 
L 414.72 41.472 
" style="fill: none; stroke: #000000; stroke-width: 0.8; stroke-linejoin: miter; stroke-linecap: square"/>
   </g>
   <g id="patch_5">
    <path d="M 57.6 307.584 
L 414.72 307.584 
" style="fill: none; stroke: #000000; stroke-width: 0.8; stroke-linejoin: miter; stroke-linecap: square"/>
   </g>
   <g id="patch_6">
    <path d="M 57.6 41.472 
L 414.72 41.472 
" style="fill: none; stroke: #000000; stroke-width: 0.8; stroke-linejoin: miter; stroke-linecap: square"/>
   </g>
   <g id="text_16">
    <!-- Queue size (y-axis) between S7 and sensors that follow at a time (x-axis). -->
    <g transform="translate(14.282813 35.472) scale(0.12 -0.12)">
     <defs>
      <path id="DejaVuSans-51" d="M 2522 4238 
Q 1834 4238 1429 3725 
Q 1025 3213 1025 2328 
Q 1025 1447 1429 934 
Q 1834 422 2522 422 
Q 3209 422 3611 934 
Q 4013 1447 4013 2328 
Q 4013 3213 3611 3725 
Q 3209 4238 2522 4238 
z
M 3406 84 
L 4238 -825 
L 3475 -825 
L 2784 -78 
Q 2681 -84 2626 -87 
Q 2572 -91 2522 -91 
Q 1538 -91 948 567 
Q 359 1225 359 2328 
Q 359 3434 948 4092 
Q 1538 4750 2522 4750 
Q 3503 4750 4090 4092 
Q 4678 3434 4678 2328 
Q 4678 1516 4351 937 
Q 4025 359 3406 84 
z
" transform="scale(0.015625)"/>
      <path id="DejaVuSans-75" d="M 544 1381 
L 544 3500 
L 1119 3500 
L 1119 1403 
Q 1119 906 1312 657 
Q 1506 409 1894 409 
Q 2359 409 2629 706 
Q 2900 1003 2900 1516 
L 2900 3500 
L 3475 3500 
L 3475 0 
L 2900 0 
L 2900 538 
Q 2691 219 2414 64 
Q 2138 -91 1772 -91 
Q 1169 -91 856 284 
Q 544 659 544 1381 
z
M 1991 3584 
L 1991 3584 
z
" transform="scale(0.015625)"/>
      <path id="DejaVuSans-20" transform="scale(0.015625)"/>
      <path id="DejaVuSans-73" d="M 2834 3397 
L 2834 2853 
Q 2591 2978 2328 3040 
Q 2066 3103 1784 3103 
Q 1356 3103 1142 2972 
Q 928 2841 928 2578 
Q 928 2378 1081 2264 
Q 1234 2150 1697 2047 
L 1894 2003 
Q 2506 1872 2764 1633 
Q 3022 1394 3022 966 
Q 3022 478 2636 193 
Q 2250 -91 1575 -91 
Q 1294 -91 989 -36 
Q 684 19 347 128 
L 347 722 
Q 666 556 975 473 
Q 1284 391 1588 391 
Q 1994 391 2212 530 
Q 2431 669 2431 922 
Q 2431 1156 2273 1281 
Q 2116 1406 1581 1522 
L 1381 1569 
Q 847 1681 609 1914 
Q 372 2147 372 2553 
Q 372 3047 722 3315 
Q 1072 3584 1716 3584 
Q 2034 3584 2315 3537 
Q 2597 3491 2834 3397 
z
" transform="scale(0.015625)"/>
      <path id="DejaVuSans-69" d="M 603 3500 
L 1178 3500 
L 1178 0 
L 603 0 
L 603 3500 
z
M 603 4863 
L 1178 4863 
L 1178 4134 
L 603 4134 
L 603 4863 
z
" transform="scale(0.015625)"/>
      <path id="DejaVuSans-7a" d="M 353 3500 
L 3084 3500 
L 3084 2975 
L 922 459 
L 3084 459 
L 3084 0 
L 275 0 
L 275 525 
L 2438 3041 
L 353 3041 
L 353 3500 
z
" transform="scale(0.015625)"/>
      <path id="DejaVuSans-28" d="M 1984 4856 
Q 1566 4138 1362 3434 
Q 1159 2731 1159 2009 
Q 1159 1288 1364 580 
Q 1569 -128 1984 -844 
L 1484 -844 
Q 1016 -109 783 600 
Q 550 1309 550 2009 
Q 550 2706 781 3412 
Q 1013 4119 1484 4856 
L 1984 4856 
z
" transform="scale(0.015625)"/>
      <path id="DejaVuSans-79" d="M 2059 -325 
Q 1816 -950 1584 -1140 
Q 1353 -1331 966 -1331 
L 506 -1331 
L 506 -850 
L 844 -850 
Q 1081 -850 1212 -737 
Q 1344 -625 1503 -206 
L 1606 56 
L 191 3500 
L 800 3500 
L 1894 763 
L 2988 3500 
L 3597 3500 
L 2059 -325 
z
" transform="scale(0.015625)"/>
      <path id="DejaVuSans-2d" d="M 313 2009 
L 1997 2009 
L 1997 1497 
L 313 1497 
L 313 2009 
z
" transform="scale(0.015625)"/>
      <path id="DejaVuSans-61" d="M 2194 1759 
Q 1497 1759 1228 1600 
Q 959 1441 959 1056 
Q 959 750 1161 570 
Q 1363 391 1709 391 
Q 2188 391 2477 730 
Q 2766 1069 2766 1631 
L 2766 1759 
L 2194 1759 
z
M 3341 1997 
L 3341 0 
L 2766 0 
L 2766 531 
Q 2569 213 2275 61 
Q 1981 -91 1556 -91 
Q 1019 -91 701 211 
Q 384 513 384 1019 
Q 384 1609 779 1909 
Q 1175 2209 1959 2209 
L 2766 2209 
L 2766 2266 
Q 2766 2663 2505 2880 
Q 2244 3097 1772 3097 
Q 1472 3097 1187 3025 
Q 903 2953 641 2809 
L 641 3341 
Q 956 3463 1253 3523 
Q 1550 3584 1831 3584 
Q 2591 3584 2966 3190 
Q 3341 2797 3341 1997 
z
" transform="scale(0.015625)"/>
      <path id="DejaVuSans-78" d="M 3513 3500 
L 2247 1797 
L 3578 0 
L 2900 0 
L 1881 1375 
L 863 0 
L 184 0 
L 1544 1831 
L 300 3500 
L 978 3500 
L 1906 2253 
L 2834 3500 
L 3513 3500 
z
" transform="scale(0.015625)"/>
      <path id="DejaVuSans-29" d="M 513 4856 
L 1013 4856 
Q 1481 4119 1714 3412 
Q 1947 2706 1947 2009 
Q 1947 1309 1714 600 
Q 1481 -109 1013 -844 
L 513 -844 
Q 928 -128 1133 580 
Q 1338 1288 1338 2009 
Q 1338 2731 1133 3434 
Q 928 4138 513 4856 
z
" transform="scale(0.015625)"/>
      <path id="DejaVuSans-62" d="M 3116 1747 
Q 3116 2381 2855 2742 
Q 2594 3103 2138 3103 
Q 1681 3103 1420 2742 
Q 1159 2381 1159 1747 
Q 1159 1113 1420 752 
Q 1681 391 2138 391 
Q 2594 391 2855 752 
Q 3116 1113 3116 1747 
z
M 1159 2969 
Q 1341 3281 1617 3432 
Q 1894 3584 2278 3584 
Q 2916 3584 3314 3078 
Q 3713 2572 3713 1747 
Q 3713 922 3314 415 
Q 2916 -91 2278 -91 
Q 1894 -91 1617 61 
Q 1341 213 1159 525 
L 1159 0 
L 581 0 
L 581 4863 
L 1159 4863 
L 1159 2969 
z
" transform="scale(0.015625)"/>
      <path id="DejaVuSans-74" d="M 1172 4494 
L 1172 3500 
L 2356 3500 
L 2356 3053 
L 1172 3053 
L 1172 1153 
Q 1172 725 1289 603 
Q 1406 481 1766 481 
L 2356 481 
L 2356 0 
L 1766 0 
Q 1100 0 847 248 
Q 594 497 594 1153 
L 594 3053 
L 172 3053 
L 172 3500 
L 594 3500 
L 594 4494 
L 1172 4494 
z
" transform="scale(0.015625)"/>
      <path id="DejaVuSans-77" d="M 269 3500 
L 844 3500 
L 1563 769 
L 2278 3500 
L 2956 3500 
L 3675 769 
L 4391 3500 
L 4966 3500 
L 4050 0 
L 3372 0 
L 2619 2869 
L 1863 0 
L 1184 0 
L 269 3500 
z
" transform="scale(0.015625)"/>
      <path id="DejaVuSans-6e" d="M 3513 2113 
L 3513 0 
L 2938 0 
L 2938 2094 
Q 2938 2591 2744 2837 
Q 2550 3084 2163 3084 
Q 1697 3084 1428 2787 
Q 1159 2491 1159 1978 
L 1159 0 
L 581 0 
L 581 3500 
L 1159 3500 
L 1159 2956 
Q 1366 3272 1645 3428 
Q 1925 3584 2291 3584 
Q 2894 3584 3203 3211 
Q 3513 2838 3513 2113 
z
" transform="scale(0.015625)"/>
      <path id="DejaVuSans-53" d="M 3425 4513 
L 3425 3897 
Q 3066 4069 2747 4153 
Q 2428 4238 2131 4238 
Q 1616 4238 1336 4038 
Q 1056 3838 1056 3469 
Q 1056 3159 1242 3001 
Q 1428 2844 1947 2747 
L 2328 2669 
Q 3034 2534 3370 2195 
Q 3706 1856 3706 1288 
Q 3706 609 3251 259 
Q 2797 -91 1919 -91 
Q 1588 -91 1214 -16 
Q 841 59 441 206 
L 441 856 
Q 825 641 1194 531 
Q 1563 422 1919 422 
Q 2459 422 2753 634 
Q 3047 847 3047 1241 
Q 3047 1584 2836 1778 
Q 2625 1972 2144 2069 
L 1759 2144 
Q 1053 2284 737 2584 
Q 422 2884 422 3419 
Q 422 4038 858 4394 
Q 1294 4750 2059 4750 
Q 2388 4750 2728 4690 
Q 3069 4631 3425 4513 
z
" transform="scale(0.015625)"/>
      <path id="DejaVuSans-37" d="M 525 4666 
L 3525 4666 
L 3525 4397 
L 1831 0 
L 1172 0 
L 2766 4134 
L 525 4134 
L 525 4666 
z
" transform="scale(0.015625)"/>
      <path id="DejaVuSans-64" d="M 2906 2969 
L 2906 4863 
L 3481 4863 
L 3481 0 
L 2906 0 
L 2906 525 
Q 2725 213 2448 61 
Q 2172 -91 1784 -91 
Q 1150 -91 751 415 
Q 353 922 353 1747 
Q 353 2572 751 3078 
Q 1150 3584 1784 3584 
Q 2172 3584 2448 3432 
Q 2725 3281 2906 2969 
z
M 947 1747 
Q 947 1113 1208 752 
Q 1469 391 1925 391 
Q 2381 391 2643 752 
Q 2906 1113 2906 1747 
Q 2906 2381 2643 2742 
Q 2381 3103 1925 3103 
Q 1469 3103 1208 2742 
Q 947 2381 947 1747 
z
" transform="scale(0.015625)"/>
      <path id="DejaVuSans-6f" d="M 1959 3097 
Q 1497 3097 1228 2736 
Q 959 2375 959 1747 
Q 959 1119 1226 758 
Q 1494 397 1959 397 
Q 2419 397 2687 759 
Q 2956 1122 2956 1747 
Q 2956 2369 2687 2733 
Q 2419 3097 1959 3097 
z
M 1959 3584 
Q 2709 3584 3137 3096 
Q 3566 2609 3566 1747 
Q 3566 888 3137 398 
Q 2709 -91 1959 -91 
Q 1206 -91 779 398 
Q 353 888 353 1747 
Q 353 2609 779 3096 
Q 1206 3584 1959 3584 
z
" transform="scale(0.015625)"/>
      <path id="DejaVuSans-72" d="M 2631 2963 
Q 2534 3019 2420 3045 
Q 2306 3072 2169 3072 
Q 1681 3072 1420 2755 
Q 1159 2438 1159 1844 
L 1159 0 
L 581 0 
L 581 3500 
L 1159 3500 
L 1159 2956 
Q 1341 3275 1631 3429 
Q 1922 3584 2338 3584 
Q 2397 3584 2469 3576 
Q 2541 3569 2628 3553 
L 2631 2963 
z
" transform="scale(0.015625)"/>
      <path id="DejaVuSans-68" d="M 3513 2113 
L 3513 0 
L 2938 0 
L 2938 2094 
Q 2938 2591 2744 2837 
Q 2550 3084 2163 3084 
Q 1697 3084 1428 2787 
Q 1159 2491 1159 1978 
L 1159 0 
L 581 0 
L 581 4863 
L 1159 4863 
L 1159 2956 
Q 1366 3272 1645 3428 
Q 1925 3584 2291 3584 
Q 2894 3584 3203 3211 
Q 3513 2838 3513 2113 
z
" transform="scale(0.015625)"/>
      <path id="DejaVuSans-66" d="M 2375 4863 
L 2375 4384 
L 1825 4384 
Q 1516 4384 1395 4259 
Q 1275 4134 1275 3809 
L 1275 3500 
L 2222 3500 
L 2222 3053 
L 1275 3053 
L 1275 0 
L 697 0 
L 697 3053 
L 147 3053 
L 147 3500 
L 697 3500 
L 697 3744 
Q 697 4328 969 4595 
Q 1241 4863 1831 4863 
L 2375 4863 
z
" transform="scale(0.015625)"/>
      <path id="DejaVuSans-6c" d="M 603 4863 
L 1178 4863 
L 1178 0 
L 603 0 
L 603 4863 
z
" transform="scale(0.015625)"/>
      <path id="DejaVuSans-6d" d="M 3328 2828 
Q 3544 3216 3844 3400 
Q 4144 3584 4550 3584 
Q 5097 3584 5394 3201 
Q 5691 2819 5691 2113 
L 5691 0 
L 5113 0 
L 5113 2094 
Q 5113 2597 4934 2840 
Q 4756 3084 4391 3084 
Q 3944 3084 3684 2787 
Q 3425 2491 3425 1978 
L 3425 0 
L 2847 0 
L 2847 2094 
Q 2847 2600 2669 2842 
Q 2491 3084 2119 3084 
Q 1678 3084 1418 2786 
Q 1159 2488 1159 1978 
L 1159 0 
L 581 0 
L 581 3500 
L 1159 3500 
L 1159 2956 
Q 1356 3278 1631 3431 
Q 1906 3584 2284 3584 
Q 2666 3584 2933 3390 
Q 3200 3197 3328 2828 
z
" transform="scale(0.015625)"/>
     </defs>
     <use xlink:href="#DejaVuSans-51"/>
     <use xlink:href="#DejaVuSans-75" x="78.710938"/>
     <use xlink:href="#DejaVuSans-65" x="142.089844"/>
     <use xlink:href="#DejaVuSans-75" x="203.613281"/>
     <use xlink:href="#DejaVuSans-65" x="266.992188"/>
     <use xlink:href="#DejaVuSans-20" x="328.515625"/>
     <use xlink:href="#DejaVuSans-73" x="360.302734"/>
     <use xlink:href="#DejaVuSans-69" x="412.402344"/>
     <use xlink:href="#DejaVuSans-7a" x="440.185547"/>
     <use xlink:href="#DejaVuSans-65" x="492.675781"/>
     <use xlink:href="#DejaVuSans-20" x="554.199219"/>
     <use xlink:href="#DejaVuSans-28" x="585.986328"/>
     <use xlink:href="#DejaVuSans-79" x="625"/>
     <use xlink:href="#DejaVuSans-2d" x="682.429688"/>
     <use xlink:href="#DejaVuSans-61" x="718.513672"/>
     <use xlink:href="#DejaVuSans-78" x="779.792969"/>
     <use xlink:href="#DejaVuSans-69" x="838.972656"/>
     <use xlink:href="#DejaVuSans-73" x="866.755859"/>
     <use xlink:href="#DejaVuSans-29" x="918.855469"/>
     <use xlink:href="#DejaVuSans-20" x="957.869141"/>
     <use xlink:href="#DejaVuSans-62" x="989.65625"/>
     <use xlink:href="#DejaVuSans-65" x="1053.132812"/>
     <use xlink:href="#DejaVuSans-74" x="1114.65625"/>
     <use xlink:href="#DejaVuSans-77" x="1153.865234"/>
     <use xlink:href="#DejaVuSans-65" x="1235.652344"/>
     <use xlink:href="#DejaVuSans-65" x="1297.175781"/>
     <use xlink:href="#DejaVuSans-6e" x="1358.699219"/>
     <use xlink:href="#DejaVuSans-20" x="1422.078125"/>
     <use xlink:href="#DejaVuSans-53" x="1453.865234"/>
     <use xlink:href="#DejaVuSans-37" x="1517.341797"/>
     <use xlink:href="#DejaVuSans-20" x="1580.964844"/>
     <use xlink:href="#DejaVuSans-61" x="1612.751953"/>
     <use xlink:href="#DejaVuSans-6e" x="1674.03125"/>
     <use xlink:href="#DejaVuSans-64" x="1737.410156"/>
     <use xlink:href="#DejaVuSans-20" x="1800.886719"/>
     <use xlink:href="#DejaVuSans-73" x="1832.673828"/>
     <use xlink:href="#DejaVuSans-65" x="1884.773438"/>
     <use xlink:href="#DejaVuSans-6e" x="1946.296875"/>
     <use xlink:href="#DejaVuSans-73" x="2009.675781"/>
     <use xlink:href="#DejaVuSans-6f" x="2061.775391"/>
     <use xlink:href="#DejaVuSans-72" x="2122.957031"/>
     <use xlink:href="#DejaVuSans-73" x="2164.070312"/>
     <use xlink:href="#DejaVuSans-20" x="2216.169922"/>
     <use xlink:href="#DejaVuSans-74" x="2247.957031"/>
     <use xlink:href="#DejaVuSans-68" x="2287.166016"/>
     <use xlink:href="#DejaVuSans-61" x="2350.544922"/>
     <use xlink:href="#DejaVuSans-74" x="2411.824219"/>
     <use xlink:href="#DejaVuSans-20" x="2451.033203"/>
     <use xlink:href="#DejaVuSans-66" x="2482.820312"/>
     <use xlink:href="#DejaVuSans-6f" x="2518.025391"/>
     <use xlink:href="#DejaVuSans-6c" x="2579.207031"/>
     <use xlink:href="#DejaVuSans-6c" x="2606.990234"/>
     <use xlink:href="#DejaVuSans-6f" x="2634.773438"/>
     <use xlink:href="#DejaVuSans-77" x="2695.955078"/>
     <use xlink:href="#DejaVuSans-20" x="2777.742188"/>
     <use xlink:href="#DejaVuSans-61" x="2809.529297"/>
     <use xlink:href="#DejaVuSans-74" x="2870.808594"/>
     <use xlink:href="#DejaVuSans-20" x="2910.017578"/>
     <use xlink:href="#DejaVuSans-61" x="2941.804688"/>
     <use xlink:href="#DejaVuSans-20" x="3003.083984"/>
     <use xlink:href="#DejaVuSans-74" x="3034.871094"/>
     <use xlink:href="#DejaVuSans-69" x="3074.080078"/>
     <use xlink:href="#DejaVuSans-6d" x="3101.863281"/>
     <use xlink:href="#DejaVuSans-65" x="3199.275391"/>
     <use xlink:href="#DejaVuSans-20" x="3260.798828"/>
     <use xlink:href="#DejaVuSans-28" x="3292.585938"/>
     <use xlink:href="#DejaVuSans-78" x="3331.599609"/>
     <use xlink:href="#DejaVuSans-2d" x="3390.779297"/>
     <use xlink:href="#DejaVuSans-61" x="3426.863281"/>
     <use xlink:href="#DejaVuSans-78" x="3488.142578"/>
     <use xlink:href="#DejaVuSans-69" x="3547.322266"/>
     <use xlink:href="#DejaVuSans-73" x="3575.105469"/>
     <use xlink:href="#DejaVuSans-29" x="3627.205078"/>
     <use xlink:href="#DejaVuSans-2e" x="3666.21875"/>
    </g>
   </g>
  </g>
 </g>
 <defs>
  <clipPath id="pbda9155953">
   <rect x="57.6" y="41.472" width="357.12" height="266.112"/>
  </clipPath>
 </defs>
</svg>
