<?xml version="1.0" encoding="utf-8" standalone="no"?>
<!DOCTYPE svg PUBLIC "-//W3C//DTD SVG 1.1//EN"
  "http://www.w3.org/Graphics/SVG/1.1/DTD/svg11.dtd">
<svg xmlns:xlink="http://www.w3.org/1999/xlink" width="460.8pt" height="345.6pt" viewBox="0 0 460.8 345.6" xmlns="http://www.w3.org/2000/svg" version="1.1">
 <metadata>
  <rdf:RDF xmlns:dc="http://purl.org/dc/elements/1.1/" xmlns:cc="http://creativecommons.org/ns#" xmlns:rdf="http://www.w3.org/1999/02/22-rdf-syntax-ns#">
   <cc:Work>
    <dc:type rdf:resource="http://purl.org/dc/dcmitype/StillImage"/>
    <dc:date>2024-03-08T14:26:59.051910</dc:date>
    <dc:format>image/svg+xml</dc:format>
    <dc:creator>
     <cc:Agent>
      <dc:title>Matplotlib v3.8.2, https://matplotlib.org/</dc:title>
     </cc:Agent>
    </dc:creator>
   </cc:Work>
  </rdf:RDF>
 </metadata>
 <defs>
  <style type="text/css">*{stroke-linejoin: round; stroke-linecap: butt}</style>
 </defs>
 <g id="figure_1">
  <g id="patch_1">
   <path d="M 0 345.6 
L 460.8 345.6 
L 460.8 0 
L 0 0 
z
" style="fill: #ffffff"/>
  </g>
  <g id="axes_1">
   <g id="patch_2">
    <path d="M 57.6 307.584 
L 414.72 307.584 
L 414.72 41.472 
L 57.6 41.472 
z
" style="fill: #ffffff"/>
   </g>
   <g id="matplotlib.axis_1">
    <g id="xtick_1">
     <g id="line2d_1">
      <defs>
       <path id="mf34a31f4b8" d="M 0 0 
L 0 3.5 
" style="stroke: #000000; stroke-width: 0.8"/>
      </defs>
      <g>
       <use xlink:href="#mf34a31f4b8" x="73.832727" y="307.584" style="stroke: #000000; stroke-width: 0.8"/>
      </g>
     </g>
     <g id="text_1">
      <!-- 0.0 -->
      <g transform="translate(65.881165 322.182437) scale(0.1 -0.1)">
       <defs>
        <path id="DejaVuSans-30" d="M 2034 4250 
Q 1547 4250 1301 3770 
Q 1056 3291 1056 2328 
Q 1056 1369 1301 889 
Q 1547 409 2034 409 
Q 2525 409 2770 889 
Q 3016 1369 3016 2328 
Q 3016 3291 2770 3770 
Q 2525 4250 2034 4250 
z
M 2034 4750 
Q 2819 4750 3233 4129 
Q 3647 3509 3647 2328 
Q 3647 1150 3233 529 
Q 2819 -91 2034 -91 
Q 1250 -91 836 529 
Q 422 1150 422 2328 
Q 422 3509 836 4129 
Q 1250 4750 2034 4750 
z
" transform="scale(0.015625)"/>
        <path id="DejaVuSans-2e" d="M 684 794 
L 1344 794 
L 1344 0 
L 684 0 
L 684 794 
z
" transform="scale(0.015625)"/>
       </defs>
       <use xlink:href="#DejaVuSans-30"/>
       <use xlink:href="#DejaVuSans-2e" x="63.623047"/>
       <use xlink:href="#DejaVuSans-30" x="95.410156"/>
      </g>
     </g>
    </g>
    <g id="xtick_2">
     <g id="line2d_2">
      <g>
       <use xlink:href="#mf34a31f4b8" x="129.420928" y="307.584" style="stroke: #000000; stroke-width: 0.8"/>
      </g>
     </g>
     <g id="text_2">
      <!-- 0.2 -->
      <g transform="translate(121.469365 322.182437) scale(0.1 -0.1)">
       <defs>
        <path id="DejaVuSans-32" d="M 1228 531 
L 3431 531 
L 3431 0 
L 469 0 
L 469 531 
Q 828 903 1448 1529 
Q 2069 2156 2228 2338 
Q 2531 2678 2651 2914 
Q 2772 3150 2772 3378 
Q 2772 3750 2511 3984 
Q 2250 4219 1831 4219 
Q 1534 4219 1204 4116 
Q 875 4013 500 3803 
L 500 4441 
Q 881 4594 1212 4672 
Q 1544 4750 1819 4750 
Q 2544 4750 2975 4387 
Q 3406 4025 3406 3419 
Q 3406 3131 3298 2873 
Q 3191 2616 2906 2266 
Q 2828 2175 2409 1742 
Q 1991 1309 1228 531 
z
" transform="scale(0.015625)"/>
       </defs>
       <use xlink:href="#DejaVuSans-30"/>
       <use xlink:href="#DejaVuSans-2e" x="63.623047"/>
       <use xlink:href="#DejaVuSans-32" x="95.410156"/>
      </g>
     </g>
    </g>
    <g id="xtick_3">
     <g id="line2d_3">
      <g>
       <use xlink:href="#mf34a31f4b8" x="185.009128" y="307.584" style="stroke: #000000; stroke-width: 0.8"/>
      </g>
     </g>
     <g id="text_3">
      <!-- 0.4 -->
      <g transform="translate(177.057565 322.182437) scale(0.1 -0.1)">
       <defs>
        <path id="DejaVuSans-34" d="M 2419 4116 
L 825 1625 
L 2419 1625 
L 2419 4116 
z
M 2253 4666 
L 3047 4666 
L 3047 1625 
L 3713 1625 
L 3713 1100 
L 3047 1100 
L 3047 0 
L 2419 0 
L 2419 1100 
L 313 1100 
L 313 1709 
L 2253 4666 
z
" transform="scale(0.015625)"/>
       </defs>
       <use xlink:href="#DejaVuSans-30"/>
       <use xlink:href="#DejaVuSans-2e" x="63.623047"/>
       <use xlink:href="#DejaVuSans-34" x="95.410156"/>
      </g>
     </g>
    </g>
    <g id="xtick_4">
     <g id="line2d_4">
      <g>
       <use xlink:href="#mf34a31f4b8" x="240.597328" y="307.584" style="stroke: #000000; stroke-width: 0.8"/>
      </g>
     </g>
     <g id="text_4">
      <!-- 0.6 -->
      <g transform="translate(232.645766 322.182437) scale(0.1 -0.1)">
       <defs>
        <path id="DejaVuSans-36" d="M 2113 2584 
Q 1688 2584 1439 2293 
Q 1191 2003 1191 1497 
Q 1191 994 1439 701 
Q 1688 409 2113 409 
Q 2538 409 2786 701 
Q 3034 994 3034 1497 
Q 3034 2003 2786 2293 
Q 2538 2584 2113 2584 
z
M 3366 4563 
L 3366 3988 
Q 3128 4100 2886 4159 
Q 2644 4219 2406 4219 
Q 1781 4219 1451 3797 
Q 1122 3375 1075 2522 
Q 1259 2794 1537 2939 
Q 1816 3084 2150 3084 
Q 2853 3084 3261 2657 
Q 3669 2231 3669 1497 
Q 3669 778 3244 343 
Q 2819 -91 2113 -91 
Q 1303 -91 875 529 
Q 447 1150 447 2328 
Q 447 3434 972 4092 
Q 1497 4750 2381 4750 
Q 2619 4750 2861 4703 
Q 3103 4656 3366 4563 
z
" transform="scale(0.015625)"/>
       </defs>
       <use xlink:href="#DejaVuSans-30"/>
       <use xlink:href="#DejaVuSans-2e" x="63.623047"/>
       <use xlink:href="#DejaVuSans-36" x="95.410156"/>
      </g>
     </g>
    </g>
    <g id="xtick_5">
     <g id="line2d_5">
      <g>
       <use xlink:href="#mf34a31f4b8" x="296.185528" y="307.584" style="stroke: #000000; stroke-width: 0.8"/>
      </g>
     </g>
     <g id="text_5">
      <!-- 0.8 -->
      <g transform="translate(288.233966 322.182437) scale(0.1 -0.1)">
       <defs>
        <path id="DejaVuSans-38" d="M 2034 2216 
Q 1584 2216 1326 1975 
Q 1069 1734 1069 1313 
Q 1069 891 1326 650 
Q 1584 409 2034 409 
Q 2484 409 2743 651 
Q 3003 894 3003 1313 
Q 3003 1734 2745 1975 
Q 2488 2216 2034 2216 
z
M 1403 2484 
Q 997 2584 770 2862 
Q 544 3141 544 3541 
Q 544 4100 942 4425 
Q 1341 4750 2034 4750 
Q 2731 4750 3128 4425 
Q 3525 4100 3525 3541 
Q 3525 3141 3298 2862 
Q 3072 2584 2669 2484 
Q 3125 2378 3379 2068 
Q 3634 1759 3634 1313 
Q 3634 634 3220 271 
Q 2806 -91 2034 -91 
Q 1263 -91 848 271 
Q 434 634 434 1313 
Q 434 1759 690 2068 
Q 947 2378 1403 2484 
z
M 1172 3481 
Q 1172 3119 1398 2916 
Q 1625 2713 2034 2713 
Q 2441 2713 2670 2916 
Q 2900 3119 2900 3481 
Q 2900 3844 2670 4047 
Q 2441 4250 2034 4250 
Q 1625 4250 1398 4047 
Q 1172 3844 1172 3481 
z
" transform="scale(0.015625)"/>
       </defs>
       <use xlink:href="#DejaVuSans-30"/>
       <use xlink:href="#DejaVuSans-2e" x="63.623047"/>
       <use xlink:href="#DejaVuSans-38" x="95.410156"/>
      </g>
     </g>
    </g>
    <g id="xtick_6">
     <g id="line2d_6">
      <g>
       <use xlink:href="#mf34a31f4b8" x="351.773729" y="307.584" style="stroke: #000000; stroke-width: 0.8"/>
      </g>
     </g>
     <g id="text_6">
      <!-- 1.0 -->
      <g transform="translate(343.822166 322.182437) scale(0.1 -0.1)">
       <defs>
        <path id="DejaVuSans-31" d="M 794 531 
L 1825 531 
L 1825 4091 
L 703 3866 
L 703 4441 
L 1819 4666 
L 2450 4666 
L 2450 531 
L 3481 531 
L 3481 0 
L 794 0 
L 794 531 
z
" transform="scale(0.015625)"/>
       </defs>
       <use xlink:href="#DejaVuSans-31"/>
       <use xlink:href="#DejaVuSans-2e" x="63.623047"/>
       <use xlink:href="#DejaVuSans-30" x="95.410156"/>
      </g>
     </g>
    </g>
    <g id="xtick_7">
     <g id="line2d_7">
      <g>
       <use xlink:href="#mf34a31f4b8" x="407.361929" y="307.584" style="stroke: #000000; stroke-width: 0.8"/>
      </g>
     </g>
     <g id="text_7">
      <!-- 1.2 -->
      <g transform="translate(399.410366 322.182437) scale(0.1 -0.1)">
       <use xlink:href="#DejaVuSans-31"/>
       <use xlink:href="#DejaVuSans-2e" x="63.623047"/>
       <use xlink:href="#DejaVuSans-32" x="95.410156"/>
      </g>
     </g>
    </g>
    <g id="text_8">
     <!-- 1e6 -->
     <g transform="translate(395.841875 334.860562) scale(0.1 -0.1)">
      <defs>
       <path id="DejaVuSans-65" d="M 3597 1894 
L 3597 1613 
L 953 1613 
Q 991 1019 1311 708 
Q 1631 397 2203 397 
Q 2534 397 2845 478 
Q 3156 559 3463 722 
L 3463 178 
Q 3153 47 2828 -22 
Q 2503 -91 2169 -91 
Q 1331 -91 842 396 
Q 353 884 353 1716 
Q 353 2575 817 3079 
Q 1281 3584 2069 3584 
Q 2775 3584 3186 3129 
Q 3597 2675 3597 1894 
z
M 3022 2063 
Q 3016 2534 2758 2815 
Q 2500 3097 2075 3097 
Q 1594 3097 1305 2825 
Q 1016 2553 972 2059 
L 3022 2063 
z
" transform="scale(0.015625)"/>
      </defs>
      <use xlink:href="#DejaVuSans-31"/>
      <use xlink:href="#DejaVuSans-65" x="63.623047"/>
      <use xlink:href="#DejaVuSans-36" x="125.146484"/>
     </g>
    </g>
   </g>
   <g id="matplotlib.axis_2">
    <g id="ytick_1">
     <g id="line2d_8">
      <defs>
       <path id="md3aa38e640" d="M 0 0 
L -3.5 0 
" style="stroke: #000000; stroke-width: 0.8"/>
      </defs>
      <g>
       <use xlink:href="#md3aa38e640" x="57.6" y="295.488" style="stroke: #000000; stroke-width: 0.8"/>
      </g>
     </g>
     <g id="text_9">
      <!-- 0.0 -->
      <g transform="translate(34.696875 299.287219) scale(0.1 -0.1)">
       <use xlink:href="#DejaVuSans-30"/>
       <use xlink:href="#DejaVuSans-2e" x="63.623047"/>
       <use xlink:href="#DejaVuSans-30" x="95.410156"/>
      </g>
     </g>
    </g>
    <g id="ytick_2">
     <g id="line2d_9">
      <g>
       <use xlink:href="#md3aa38e640" x="57.6" y="247.104" style="stroke: #000000; stroke-width: 0.8"/>
      </g>
     </g>
     <g id="text_10">
      <!-- 0.2 -->
      <g transform="translate(34.696875 250.903219) scale(0.1 -0.1)">
       <use xlink:href="#DejaVuSans-30"/>
       <use xlink:href="#DejaVuSans-2e" x="63.623047"/>
       <use xlink:href="#DejaVuSans-32" x="95.410156"/>
      </g>
     </g>
    </g>
    <g id="ytick_3">
     <g id="line2d_10">
      <g>
       <use xlink:href="#md3aa38e640" x="57.6" y="198.72" style="stroke: #000000; stroke-width: 0.8"/>
      </g>
     </g>
     <g id="text_11">
      <!-- 0.4 -->
      <g transform="translate(34.696875 202.519219) scale(0.1 -0.1)">
       <use xlink:href="#DejaVuSans-30"/>
       <use xlink:href="#DejaVuSans-2e" x="63.623047"/>
       <use xlink:href="#DejaVuSans-34" x="95.410156"/>
      </g>
     </g>
    </g>
    <g id="ytick_4">
     <g id="line2d_11">
      <g>
       <use xlink:href="#md3aa38e640" x="57.6" y="150.336" style="stroke: #000000; stroke-width: 0.8"/>
      </g>
     </g>
     <g id="text_12">
      <!-- 0.6 -->
      <g transform="translate(34.696875 154.135219) scale(0.1 -0.1)">
       <use xlink:href="#DejaVuSans-30"/>
       <use xlink:href="#DejaVuSans-2e" x="63.623047"/>
       <use xlink:href="#DejaVuSans-36" x="95.410156"/>
      </g>
     </g>
    </g>
    <g id="ytick_5">
     <g id="line2d_12">
      <g>
       <use xlink:href="#md3aa38e640" x="57.6" y="101.952" style="stroke: #000000; stroke-width: 0.8"/>
      </g>
     </g>
     <g id="text_13">
      <!-- 0.8 -->
      <g transform="translate(34.696875 105.751219) scale(0.1 -0.1)">
       <use xlink:href="#DejaVuSans-30"/>
       <use xlink:href="#DejaVuSans-2e" x="63.623047"/>
       <use xlink:href="#DejaVuSans-38" x="95.410156"/>
      </g>
     </g>
    </g>
    <g id="ytick_6">
     <g id="line2d_13">
      <g>
       <use xlink:href="#md3aa38e640" x="57.6" y="53.568" style="stroke: #000000; stroke-width: 0.8"/>
      </g>
     </g>
     <g id="text_14">
      <!-- 1.0 -->
      <g transform="translate(34.696875 57.367219) scale(0.1 -0.1)">
       <use xlink:href="#DejaVuSans-31"/>
       <use xlink:href="#DejaVuSans-2e" x="63.623047"/>
       <use xlink:href="#DejaVuSans-30" x="95.410156"/>
      </g>
     </g>
    </g>
   </g>
   <g id="line2d_14">
    <path d="M 73.832727 295.488 
L 116.68845 295.488 
L 116.68845 295.032407 
L 117.652906 295.032407 
L 117.652906 294.576814 
L 118.642376 294.576814 
L 118.642376 294.12122 
L 119.615169 294.12122 
L 119.615169 293.665627 
L 120.596301 293.665627 
L 120.596301 293.210034 
L 121.557977 293.210034 
L 121.557977 292.754441 
L 122.53077 292.754441 
L 122.53077 292.298847 
L 123.525799 292.298847 
L 123.525799 291.843254 
L 124.506931 291.843254 
L 124.506931 291.387661 
L 125.465827 291.387661 
L 125.465827 290.932068 
L 130.582721 290.932068 
L 130.582721 290.476475 
L 131.552735 290.476475 
L 131.552735 290.020881 
L 132.508852 290.020881 
L 132.508852 289.565288 
L 133.470528 289.565288 
L 133.470528 289.109695 
L 134.432204 289.109695 
L 134.432204 288.654102 
L 135.413336 288.654102 
L 135.413336 288.198508 
L 136.38057 288.198508 
L 136.38057 287.742915 
L 137.364481 287.742915 
L 137.364481 287.287322 
L 138.334495 287.287322 
L 138.334495 286.831729 
L 139.296171 286.831729 
L 139.296171 286.376136 
L 140.277303 286.376136 
L 140.277303 285.920542 
L 141.225082 285.920542 
L 141.225082 285.464949 
L 142.189537 285.464949 
L 142.189537 285.009356 
L 143.167889 285.009356 
L 143.167889 284.553763 
L 144.146242 284.553763 
L 144.146242 284.098169 
L 145.102359 284.098169 
L 145.102359 283.642576 
L 146.072373 283.642576 
L 146.072373 283.186983 
L 147.056284 283.186983 
L 147.056284 282.73139 
L 148.029078 282.73139 
L 148.029078 282.275797 
L 149.00465 282.275797 
L 149.00465 281.820203 
L 149.977444 281.820203 
L 149.977444 281.36461 
L 150.953017 281.36461 
L 150.953017 280.909017 
L 151.920252 280.909017 
L 151.920252 280.453424 
L 152.893045 280.453424 
L 152.893045 279.997831 
L 153.846383 279.997831 
L 153.846383 279.542237 
L 154.8025 279.542237 
L 154.8025 279.086644 
L 155.769734 279.086644 
L 155.769734 278.631051 
L 156.748087 278.631051 
L 156.748087 278.175458 
L 157.734777 278.175458 
L 157.734777 277.719864 
L 158.707571 277.719864 
L 158.707571 277.264271 
L 159.399644 277.264271 
L 159.399644 276.808678 
L 159.674806 276.808678 
L 159.674806 276.353085 
L 160.664276 276.353085 
L 160.664276 275.897492 
L 161.650966 275.897492 
L 161.650966 275.441898 
L 162.645995 275.441898 
L 162.645995 274.986305 
L 163.638244 274.986305 
L 163.638244 274.530712 
L 164.588802 274.530712 
L 164.588802 274.075119 
L 166.53161 274.075119 
L 166.53161 273.619525 
L 167.501624 273.619525 
L 167.501624 273.163932 
L 168.466079 273.163932 
L 168.466079 272.708339 
L 169.422196 272.708339 
L 169.422196 272.252746 
L 170.406108 272.252746 
L 170.406108 271.797153 
L 171.087063 271.797153 
L 171.087063 271.341559 
L 171.38446 271.341559 
L 171.38446 270.885966 
L 172.062636 270.885966 
L 172.062636 270.430373 
L 172.348915 270.430373 
L 172.348915 269.97478 
L 173.010415 269.97478 
L 173.010415 269.519186 
L 173.330047 269.519186 
L 173.330047 269.063593 
L 173.977649 269.063593 
L 173.977649 268.608 
L 174.300061 268.608 
L 174.300061 268.152407 
L 174.96434 268.152407 
L 174.96434 267.696814 
L 175.250619 267.696814 
L 175.270075 266.785627 
L 175.809281 266.785627 
L 175.809281 266.330034 
L 175.931575 266.330034 
L 175.931575 265.874441 
L 176.109457 265.874441 
L 176.109457 265.418847 
L 176.23453 265.418847 
L 176.23453 264.963254 
L 176.381839 264.963254 
L 176.381839 264.507661 
L 176.682015 264.507661 
L 176.682015 264.052068 
L 176.893251 264.052068 
L 176.932162 263.140881 
L 177.215662 263.140881 
L 177.243456 262.229695 
L 177.810456 262.229695 
L 177.860485 260.862915 
L 178.374676 260.862915 
L 178.374676 259.951729 
L 178.374676 259.951729 
L 178.847176 259.951729 
L 178.930558 258.584949 
L 179.472543 258.584949 
L 179.480881 257.673763 
L 179.81441 257.673763 
L 179.81441 257.218169 
L 180.025646 257.218169 
L 180.025646 256.762576 
L 180.581528 256.762576 
L 180.581528 256.306983 
L 181.148527 256.306983 
L 181.148527 255.85139 
L 181.707189 255.85139 
L 181.707189 255.395797 
L 182.263071 255.395797 
L 182.263071 254.940203 
L 182.824512 254.940203 
L 182.824512 254.48461 
L 183.377614 254.48461 
L 183.377614 254.029017 
L 183.569393 254.029017 
L 183.569393 253.573424 
L 183.941834 253.573424 
L 183.941834 253.117831 
L 184.497716 253.117831 
L 184.52551 252.206644 
L 185.050819 252.206644 
L 185.050819 251.751051 
L 185.498304 251.751051 
L 185.606701 250.839864 
L 185.615039 250.839864 
L 185.615039 250.384271 
L 186.168142 250.384271 
L 186.170921 249.473085 
L 186.4572 249.473085 
L 186.4572 249.017492 
L 186.721244 249.017492 
L 186.724024 248.106305 
L 187.277126 248.106305 
L 187.282685 247.195119 
L 187.44667 247.195119 
L 187.44667 246.739525 
L 187.574523 246.739525 
L 187.574523 246.283932 
L 187.830229 246.283932 
L 187.835788 245.372746 
L 188.377773 245.372746 
L 188.394449 244.005966 
L 188.550096 244.005966 
L 188.550096 243.550373 
L 188.922537 243.550373 
L 188.930875 242.639186 
L 189.392257 242.639186 
L 189.497875 241.272407 
L 189.511772 241.272407 
L 189.511772 240.816814 
L 190.034301 240.816814 
L 190.064875 239.905627 
L 190.362272 239.905627 
L 190.362272 239.450034 
L 190.481786 239.450034 
L 190.481786 238.994441 
L 190.60408 238.994441 
L 190.623536 238.083254 
L 191.159962 238.083254 
L 191.182197 237.172068 
L 191.343403 237.172068 
L 191.446241 236.260881 
L 191.713065 236.260881 
L 191.713065 235.805288 
L 192.257829 235.805288 
L 192.330094 234.894102 
L 192.438491 234.894102 
L 192.438491 234.438508 
L 192.813711 234.438508 
L 192.813711 233.982915 
L 193.277873 233.982915 
L 193.366814 233.071729 
L 193.408505 233.071729 
L 193.408505 232.616136 
L 193.914357 232.616136 
L 193.914357 232.160542 
L 194.256225 232.160542 
L 194.256225 231.704949 
L 194.37574 231.704949 
L 194.481357 230.793763 
L 195.040019 230.793763 
L 195.040019 230.338169 
L 195.256813 230.338169 
L 195.256813 229.882576 
L 195.367989 229.882576 
L 195.367989 229.426983 
L 195.587562 229.426983 
L 195.587562 228.97139 
L 196.143444 228.97139 
L 196.237944 227.60461 
L 196.704885 227.60461 
L 196.735459 226.693424 
L 197.24965 226.693424 
L 197.299679 225.782237 
L 197.802752 225.782237 
L 197.850002 224.871051 
L 198.358634 224.871051 
L 198.397546 223.959864 
L 198.558752 223.959864 
L 198.558752 223.504271 
L 198.920075 223.504271 
L 198.958987 222.593085 
L 199.470398 222.593085 
L 199.545442 221.226305 
L 200.034618 221.226305 
L 200.07353 220.315119 
L 200.518236 220.315119 
L 200.579383 219.403932 
L 200.634971 219.403932 
L 200.634971 218.948339 
L 201.124147 218.948339 
L 201.179735 218.037153 
L 201.48547 218.037153 
L 201.48547 217.581559 
L 201.685588 217.581559 
L 201.741176 216.670373 
L 202.23869 216.670373 
L 202.302617 215.759186 
L 202.466602 215.759186 
L 202.466602 215.303593 
L 202.800131 215.303593 
L 202.858499 214.392407 
L 203.356013 214.392407 
L 203.425499 213.48122 
L 203.911895 213.48122 
L 203.911895 213.025627 
L 204.398292 213.025627 
L 204.473336 212.114441 
L 205.031998 212.114441 
L 205.031998 211.658847 
L 205.34885 211.658847 
L 205.34885 211.203254 
L 205.5851 211.203254 
L 205.5851 210.747661 
L 206.135423 210.747661 
L 206.135423 210.292068 
L 206.691305 210.292068 
L 206.691305 209.836475 
L 207.263864 209.836475 
L 207.263864 209.380881 
L 207.811408 209.380881 
L 207.811408 208.925288 
L 208.372848 208.925288 
L 208.372848 208.469695 
L 208.93151 208.469695 
L 208.93151 208.014102 
L 209.476274 208.014102 
L 209.476274 207.558508 
L 212.825463 207.558508 
L 212.825463 207.102915 
L 213.378566 207.102915 
L 213.378566 206.647322 
L 213.937227 206.647322 
L 214.015051 205.736136 
L 214.062301 205.736136 
L 214.062301 205.280542 
L 214.493109 205.280542 
L 214.565374 204.369356 
L 215.032315 204.369356 
L 215.110138 203.002576 
L 215.607653 203.002576 
L 215.66602 202.09139 
L 215.802211 202.09139 
L 215.802211 201.635797 
L 216.155196 201.635797 
L 216.221902 200.72461 
L 216.70552 200.72461 
L 216.763887 199.357831 
L 217.26696 199.357831 
L 217.319769 198.446644 
L 217.725563 198.446644 
L 217.83396 197.535458 
L 217.875651 197.535458 
L 217.875651 197.079864 
L 218.389842 197.079864 
L 218.431533 196.168678 
L 218.68168 196.168678 
L 218.68168 195.713085 
L 218.945724 195.713085 
L 219.001312 194.801898 
L 219.515503 194.801898 
L 219.548856 193.890712 
L 219.646135 193.890712 
L 219.646135 193.435119 
L 220.060267 193.435119 
L 220.0964 192.523932 
L 220.621708 192.523932 
L 220.638385 191.157153 
L 221.188708 191.157153 
L 221.194267 190.245966 
L 221.608399 190.245966 
L 221.608399 189.790373 
L 221.747369 189.790373 
L 221.750149 188.879186 
L 222.294913 188.879186 
L 222.319928 187.968 
L 222.595089 187.968 
L 222.595089 187.512407 
L 222.856354 187.512407 
L 222.878589 186.60122 
L 223.412236 186.60122 
L 223.44003 185.690034 
L 223.548427 185.690034 
L 223.548427 185.234441 
L 223.957 185.234441 
L 224.001471 184.323254 
L 224.510103 184.323254 
L 224.557353 182.956475 
L 225.065985 182.956475 
L 225.116014 182.045288 
L 225.521808 182.045288 
L 225.616308 181.134102 
L 226.163852 181.134102 
L 226.163852 180.678508 
L 226.705837 180.678508 
L 226.705837 180.222915 
L 227.270057 180.222915 
L 227.270057 179.767322 
L 227.748116 179.767322 
L 227.837057 178.856136 
L 228.38738 178.856136 
L 228.38738 178.400542 
L 228.732027 178.400542 
L 228.732027 177.944949 
L 228.937703 177.944949 
L 228.937703 177.489356 
L 229.482467 177.489356 
L 229.482467 177.033763 
L 229.7076 177.033763 
L 229.7076 176.578169 
L 230.03557 176.578169 
L 230.03557 176.122576 
L 230.605349 176.122576 
L 230.680393 175.21139 
L 231.161231 175.21139 
L 231.161231 174.755797 
L 231.661525 174.755797 
L 231.722672 173.84461 
L 232.281333 173.84461 
L 232.281333 173.389017 
L 232.648215 173.389017 
L 232.648215 172.933424 
L 232.845554 172.933424 
L 232.845554 172.477831 
L 233.217995 172.477831 
L 233.217995 172.022237 
L 233.401436 172.022237 
L 233.401436 171.566644 
L 233.612671 171.566644 
L 233.612671 171.111051 
L 233.960097 171.111051 
L 233.960097 170.655458 
L 234.201906 170.655458 
L 234.201906 170.199864 
L 234.521538 170.199864 
L 234.579905 169.288678 
L 235.071861 169.288678 
L 235.16914 168.377492 
L 235.54992 168.377492 
L 235.630522 167.466305 
L 236.166949 167.466305 
L 236.191963 166.099525 
L 236.53661 166.099525 
L 236.53661 165.643932 
L 236.742286 165.643932 
L 236.756183 164.732746 
L 237.120286 164.732746 
L 237.120286 164.277153 
L 237.300948 164.277153 
L 237.325963 163.365966 
L 237.506624 163.365966 
L 237.506624 162.910373 
L 237.859609 162.910373 
L 237.884624 161.999186 
L 238.18758 161.999186 
L 238.18758 161.543593 
L 238.412712 161.543593 
L 238.473859 160.176814 
L 238.974153 160.176814 
L 238.996388 159.265627 
L 239.17705 159.265627 
L 239.17705 158.810034 
L 239.446652 158.810034 
L 239.549491 157.443254 
L 240.105373 157.443254 
L 240.149843 156.076475 
L 240.658475 156.076475 
L 240.658475 155.165288 
L 240.658475 155.165288 
L 241.100401 155.165288 
L 241.100401 154.709695 
L 241.211578 154.709695 
L 241.225475 153.798508 
L 241.76746 153.798508 
L 241.775798 152.887322 
L 242.078754 152.887322 
L 242.078754 152.431729 
L 242.317783 152.431729 
L 242.33168 151.520542 
L 242.870885 151.520542 
L 242.873665 150.609356 
L 243.054327 150.609356 
L 243.054327 150.153763 
L 243.41287 150.153763 
L 243.432326 149.242576 
L 243.971532 149.242576 
L 244.035458 147.875797 
L 244.527414 147.875797 
L 244.541311 146.96461 
L 245.027708 146.96461 
L 245.102752 145.597831 
L 245.655854 145.597831 
L 245.655854 145.142237 
L 246.00606 145.142237 
L 246.00606 144.686644 
L 246.211736 144.686644 
L 246.211736 144.231051 
L 246.778736 144.231051 
L 246.778736 143.775458 
L 246.981633 143.775458 
L 246.981633 143.319864 
L 247.32628 143.319864 
L 247.32628 142.864271 
L 247.884941 142.864271 
L 247.884941 142.408678 
L 248.451941 142.408678 
L 248.451941 141.953085 
L 249.007823 141.953085 
L 249.007823 141.497492 
L 249.566484 141.497492 
L 249.566484 141.041898 
L 250.136263 141.041898 
L 250.136263 140.586305 
L 250.656013 140.586305 
L 250.681028 139.675119 
L 251.197998 139.675119 
L 251.242468 138.763932 
L 251.759439 138.763932 
L 251.792792 137.852746 
L 252.309762 137.852746 
L 252.359791 136.941559 
L 252.88232 136.941559 
L 252.907335 136.030373 
L 253.440982 136.030373 
L 253.477114 135.119186 
L 254.002423 135.119186 
L 254.035776 134.208 
L 254.572202 134.208 
L 254.588878 133.296814 
L 254.788996 133.296814 
L 254.788996 132.84122 
L 255.122525 132.84122 
L 255.155878 131.930034 
L 255.695083 131.930034 
L 255.761789 130.563254 
L 256.253745 130.563254 
L 256.281539 129.652068 
L 256.7457 129.652068 
L 256.851318 128.285288 
L 257.35717 128.285288 
L 257.401641 127.374102 
L 257.707376 127.374102 
L 257.707376 126.918508 
L 257.899155 126.918508 
L 257.960302 126.007322 
L 258.463376 126.007322 
L 258.510626 125.096136 
L 258.685728 125.096136 
L 258.685728 124.640542 
L 259.016478 124.640542 
L 259.066508 123.729356 
L 259.586257 123.729356 
L 259.664081 122.362576 
L 260.13936 122.362576 
L 260.203286 121.45139 
L 260.639654 121.45139 
L 260.639654 120.995797 
L 260.767507 120.995797 
L 260.767507 120.540203 
L 260.917595 120.540203 
L 260.917595 120.08461 
L 261.312271 120.08461 
L 261.312271 119.629017 
L 261.615227 119.629017 
L 261.618006 118.717831 
L 261.862594 118.717831 
L 261.862594 118.262237 
L 262.30452 118.262237 
L 262.30452 117.806644 
L 262.421256 117.806644 
L 262.421256 117.351051 
L 262.979917 117.351051 
L 263.004932 116.439864 
L 263.535799 116.439864 
L 263.535799 115.984271 
L 263.713681 115.984271 
L 263.713681 115.528678 
L 264.105578 115.528678 
L 264.105578 115.073085 
L 264.408534 115.073085 
L 264.408534 114.617492 
L 264.664239 114.617492 
L 264.664239 114.161898 
L 265.111724 114.161898 
L 265.220121 112.795119 
L 265.653709 112.795119 
L 265.762106 111.883932 
L 265.814915 111.883932 
L 265.814915 111.428339 
L 266.198474 111.428339 
L 266.281856 110.517153 
L 266.323547 110.517153 
L 266.323547 110.061559 
L 266.515326 110.061559 
L 266.515326 109.605966 
L 266.759915 109.605966 
L 266.759915 109.150373 
L 266.879429 109.150373 
L 266.879429 108.69478 
L 267.190723 108.69478 
L 267.257429 107.783593 
L 267.324135 107.783593 
L 267.421414 106.872407 
L 267.868899 106.872407 
L 267.977296 105.505627 
L 268.199649 105.505627 
L 268.199649 105.050034 
L 268.433119 105.050034 
L 268.516502 104.138847 
L 268.560972 104.138847 
L 268.560972 103.683254 
L 268.99456 103.683254 
L 269.083501 102.772068 
L 269.180781 102.772068 
L 269.261384 101.860881 
L 269.550442 101.860881 
L 269.636604 100.949695 
L 269.959015 100.949695 
L 269.959015 100.494102 
L 270.111883 100.494102 
L 270.198045 99.127322 
L 270.651089 99.127322 
L 270.759486 97.760542 
L 271.145824 97.760542 
L 271.240323 96.849356 
L 271.326485 96.849356 
L 271.340382 95.938169 
L 271.807323 95.938169 
L 271.887926 95.026983 
L 272.129735 95.026983 
L 272.129735 94.57139 
L 272.360426 94.57139 
L 272.441029 93.660203 
L 272.924646 93.660203 
L 272.988572 92.749017 
L 273.105308 92.749017 
L 273.105308 92.293424 
L 273.474969 92.293424 
L 273.538896 91.382237 
L 274.041969 91.382237 
L 274.089219 90.015458 
L 274.60063 90.015458 
L 274.631204 89.104271 
L 275.023101 89.104271 
L 275.023101 88.648678 
L 275.162071 88.648678 
L 275.178747 87.737492 
L 275.729071 87.737492 
L 275.729071 87.281898 
L 276.293291 87.281898 
L 276.293291 86.826305 
L 278.252775 86.826305 
L 278.252775 86.370712 
L 278.944848 86.370712 
L 278.944848 85.915119 
L 279.634142 85.915119 
L 279.634142 85.459525 
L 280.328994 85.459525 
L 280.328994 85.003932 
L 281.023847 85.003932 
L 281.023847 84.548339 
L 281.727037 84.548339 
L 281.727037 84.092746 
L 283.769904 84.092746 
L 283.769904 83.637153 
L 284.02283 83.637153 
L 284.02283 83.181559 
L 284.575933 83.181559 
L 284.575933 82.725966 
L 284.714903 82.725966 
L 284.714903 82.270373 
L 285.123477 82.270373 
L 285.123477 81.81478 
L 285.6738 81.81478 
L 285.682138 80.903593 
L 286.249138 80.903593 
L 286.249138 80.448 
L 286.652152 80.448 
L 286.652152 79.992407 
L 286.807799 79.992407 
L 286.807799 79.536814 
L 287.360902 79.536814 
L 287.360902 79.08122 
L 287.636063 79.08122 
L 287.636063 78.625627 
L 288.608857 78.625627 
L 288.608857 78.170034 
L 289.592768 78.170034 
L 289.592768 77.714441 
L 296.349514 77.714441 
L 296.349514 77.258847 
L 297.327866 77.258847 
L 297.327866 76.803254 
L 298.292321 76.803254 
L 298.292321 76.347661 
L 299.259556 76.347661 
L 299.259556 75.892068 
L 300.210114 75.892068 
L 300.210114 75.436475 
L 301.21904 75.436475 
L 301.21904 74.980881 
L 302.189054 74.980881 
L 302.189054 74.525288 
L 303.14795 74.525288 
L 303.14795 74.069695 
L 304.098509 74.069695 
L 304.098509 73.614102 
L 305.08242 73.614102 
L 305.08242 73.158508 
L 306.057993 73.158508 
L 306.057993 72.702915 
L 307.01411 72.702915 
L 307.01411 72.247322 
L 307.975786 72.247322 
L 307.975786 71.791729 
L 308.815167 71.791729 
L 308.815167 71.336136 
L 308.959697 71.336136 
L 308.959697 70.880542 
L 309.501682 70.880542 
L 309.501682 70.424949 
L 309.943608 70.424949 
L 309.943608 69.969356 
L 310.204872 69.969356 
L 310.204872 69.513763 
L 310.910843 69.513763 
L 310.910843 69.058169 
L 311.597357 69.058169 
L 311.597357 68.602576 
L 312.28943 68.602576 
L 312.28943 68.146983 
L 312.978724 68.146983 
L 312.978724 67.69139 
L 313.673576 67.69139 
L 313.673576 67.235797 
L 314.36009 67.235797 
L 314.36009 66.780203 
L 315.052164 66.780203 
L 315.052164 66.32461 
L 315.747016 66.32461 
L 315.747016 65.869017 
L 316.43631 65.869017 
L 316.43631 65.413424 
L 317.136721 65.413424 
L 317.136721 64.957831 
L 317.826015 64.957831 
L 317.826015 64.502237 
L 328.246023 64.502237 
L 328.246023 64.046644 
L 328.946434 64.046644 
L 328.946434 63.591051 
L 329.635728 63.591051 
L 329.635728 63.135458 
L 330.33336 63.135458 
L 330.33336 62.679864 
L 331.025433 62.679864 
L 331.025433 62.224271 
L 331.731403 62.224271 
L 331.731403 61.768678 
L 332.417917 61.768678 
L 332.417917 61.313085 
L 333.121108 61.313085 
L 333.121108 60.857492 
L 333.81874 60.857492 
L 333.81874 60.401898 
L 334.530269 60.401898 
L 334.530269 59.946305 
L 335.23068 59.946305 
L 335.23068 59.490712 
L 335.908856 59.490712 
L 335.908856 59.035119 
L 336.612047 59.035119 
L 336.612047 58.579525 
L 337.320797 58.579525 
L 337.320797 58.123932 
L 338.026767 58.123932 
L 338.026767 57.668339 
L 338.724399 57.668339 
L 338.724399 57.212746 
L 393.609408 57.212746 
L 393.609408 56.757153 
L 394.323717 56.757153 
L 394.323717 56.301559 
L 395.01579 56.301559 
L 395.01579 55.845966 
L 395.716201 55.845966 
L 395.716201 55.390373 
L 396.411053 55.390373 
L 396.411053 54.93478 
L 397.100347 54.93478 
L 397.100347 54.479186 
L 397.800758 54.479186 
L 397.800758 54.023593 
L 398.487273 54.023593 
L 398.487273 53.568 
L 398.487273 53.568 
" clip-path="url(#p31d74cba0b)" style="fill: none; stroke: #1f77b4; stroke-width: 1.5; stroke-linecap: square"/>
   </g>
   <g id="patch_3">
    <path d="M 57.6 307.584 
L 57.6 41.472 
" style="fill: none; stroke: #000000; stroke-width: 0.8; stroke-linejoin: miter; stroke-linecap: square"/>
   </g>
   <g id="patch_4">
    <path d="M 414.72 307.584 
L 414.72 41.472 
" style="fill: none; stroke: #000000; stroke-width: 0.8; stroke-linejoin: miter; stroke-linecap: square"/>
   </g>
   <g id="patch_5">
    <path d="M 57.6 307.584 
L 414.72 307.584 
" style="fill: none; stroke: #000000; stroke-width: 0.8; stroke-linejoin: miter; stroke-linecap: square"/>
   </g>
   <g id="patch_6">
    <path d="M 57.6 41.472 
L 414.72 41.472 
" style="fill: none; stroke: #000000; stroke-width: 0.8; stroke-linejoin: miter; stroke-linecap: square"/>
   </g>
   <g id="text_15">
    <!-- S1 S15 -->
    <g transform="translate(215.1825 35.472) scale(0.12 -0.12)">
     <defs>
      <path id="DejaVuSans-53" d="M 3425 4513 
L 3425 3897 
Q 3066 4069 2747 4153 
Q 2428 4238 2131 4238 
Q 1616 4238 1336 4038 
Q 1056 3838 1056 3469 
Q 1056 3159 1242 3001 
Q 1428 2844 1947 2747 
L 2328 2669 
Q 3034 2534 3370 2195 
Q 3706 1856 3706 1288 
Q 3706 609 3251 259 
Q 2797 -91 1919 -91 
Q 1588 -91 1214 -16 
Q 841 59 441 206 
L 441 856 
Q 825 641 1194 531 
Q 1563 422 1919 422 
Q 2459 422 2753 634 
Q 3047 847 3047 1241 
Q 3047 1584 2836 1778 
Q 2625 1972 2144 2069 
L 1759 2144 
Q 1053 2284 737 2584 
Q 422 2884 422 3419 
Q 422 4038 858 4394 
Q 1294 4750 2059 4750 
Q 2388 4750 2728 4690 
Q 3069 4631 3425 4513 
z
" transform="scale(0.015625)"/>
      <path id="DejaVuSans-20" transform="scale(0.015625)"/>
      <path id="DejaVuSans-35" d="M 691 4666 
L 3169 4666 
L 3169 4134 
L 1269 4134 
L 1269 2991 
Q 1406 3038 1543 3061 
Q 1681 3084 1819 3084 
Q 2600 3084 3056 2656 
Q 3513 2228 3513 1497 
Q 3513 744 3044 326 
Q 2575 -91 1722 -91 
Q 1428 -91 1123 -41 
Q 819 9 494 109 
L 494 744 
Q 775 591 1075 516 
Q 1375 441 1709 441 
Q 2250 441 2565 725 
Q 2881 1009 2881 1497 
Q 2881 1984 2565 2268 
Q 2250 2553 1709 2553 
Q 1456 2553 1204 2497 
Q 953 2441 691 2322 
L 691 4666 
z
" transform="scale(0.015625)"/>
     </defs>
     <use xlink:href="#DejaVuSans-53"/>
     <use xlink:href="#DejaVuSans-31" x="63.476562"/>
     <use xlink:href="#DejaVuSans-20" x="127.099609"/>
     <use xlink:href="#DejaVuSans-53" x="158.886719"/>
     <use xlink:href="#DejaVuSans-31" x="222.363281"/>
     <use xlink:href="#DejaVuSans-35" x="285.986328"/>
    </g>
   </g>
   <g id="legend_1">
    <g id="patch_7">
     <path d="M 295.679062 304.584 
L 410.52 304.584 
Q 411.72 304.584 411.72 303.384 
L 411.72 295.177125 
Q 411.72 293.977125 410.52 293.977125 
L 295.679062 293.977125 
Q 294.479062 293.977125 294.479062 295.177125 
L 294.479062 303.384 
Q 294.479062 304.584 295.679062 304.584 
z
" style="fill: #ffffff; opacity: 0.8; stroke: #cccccc; stroke-linejoin: miter"/>
    </g>
    <g id="line2d_15">
     <path d="M 296.879062 298.836187 
L 302.879062 298.836187 
L 308.879062 298.836187 
" style="fill: none; stroke: #1f77b4; stroke-width: 1.5; stroke-linecap: square"/>
    </g>
    <g id="text_16">
     <!-- Execution time between S1 S15 -->
     <g transform="translate(313.679062 300.936187) scale(0.06 -0.06)">
      <defs>
       <path id="DejaVuSans-45" d="M 628 4666 
L 3578 4666 
L 3578 4134 
L 1259 4134 
L 1259 2753 
L 3481 2753 
L 3481 2222 
L 1259 2222 
L 1259 531 
L 3634 531 
L 3634 0 
L 628 0 
L 628 4666 
z
" transform="scale(0.015625)"/>
       <path id="DejaVuSans-78" d="M 3513 3500 
L 2247 1797 
L 3578 0 
L 2900 0 
L 1881 1375 
L 863 0 
L 184 0 
L 1544 1831 
L 300 3500 
L 978 3500 
L 1906 2253 
L 2834 3500 
L 3513 3500 
z
" transform="scale(0.015625)"/>
       <path id="DejaVuSans-63" d="M 3122 3366 
L 3122 2828 
Q 2878 2963 2633 3030 
Q 2388 3097 2138 3097 
Q 1578 3097 1268 2742 
Q 959 2388 959 1747 
Q 959 1106 1268 751 
Q 1578 397 2138 397 
Q 2388 397 2633 464 
Q 2878 531 3122 666 
L 3122 134 
Q 2881 22 2623 -34 
Q 2366 -91 2075 -91 
Q 1284 -91 818 406 
Q 353 903 353 1747 
Q 353 2603 823 3093 
Q 1294 3584 2113 3584 
Q 2378 3584 2631 3529 
Q 2884 3475 3122 3366 
z
" transform="scale(0.015625)"/>
       <path id="DejaVuSans-75" d="M 544 1381 
L 544 3500 
L 1119 3500 
L 1119 1403 
Q 1119 906 1312 657 
Q 1506 409 1894 409 
Q 2359 409 2629 706 
Q 2900 1003 2900 1516 
L 2900 3500 
L 3475 3500 
L 3475 0 
L 2900 0 
L 2900 538 
Q 2691 219 2414 64 
Q 2138 -91 1772 -91 
Q 1169 -91 856 284 
Q 544 659 544 1381 
z
M 1991 3584 
L 1991 3584 
z
" transform="scale(0.015625)"/>
       <path id="DejaVuSans-74" d="M 1172 4494 
L 1172 3500 
L 2356 3500 
L 2356 3053 
L 1172 3053 
L 1172 1153 
Q 1172 725 1289 603 
Q 1406 481 1766 481 
L 2356 481 
L 2356 0 
L 1766 0 
Q 1100 0 847 248 
Q 594 497 594 1153 
L 594 3053 
L 172 3053 
L 172 3500 
L 594 3500 
L 594 4494 
L 1172 4494 
z
" transform="scale(0.015625)"/>
       <path id="DejaVuSans-69" d="M 603 3500 
L 1178 3500 
L 1178 0 
L 603 0 
L 603 3500 
z
M 603 4863 
L 1178 4863 
L 1178 4134 
L 603 4134 
L 603 4863 
z
" transform="scale(0.015625)"/>
       <path id="DejaVuSans-6f" d="M 1959 3097 
Q 1497 3097 1228 2736 
Q 959 2375 959 1747 
Q 959 1119 1226 758 
Q 1494 397 1959 397 
Q 2419 397 2687 759 
Q 2956 1122 2956 1747 
Q 2956 2369 2687 2733 
Q 2419 3097 1959 3097 
z
M 1959 3584 
Q 2709 3584 3137 3096 
Q 3566 2609 3566 1747 
Q 3566 888 3137 398 
Q 2709 -91 1959 -91 
Q 1206 -91 779 398 
Q 353 888 353 1747 
Q 353 2609 779 3096 
Q 1206 3584 1959 3584 
z
" transform="scale(0.015625)"/>
       <path id="DejaVuSans-6e" d="M 3513 2113 
L 3513 0 
L 2938 0 
L 2938 2094 
Q 2938 2591 2744 2837 
Q 2550 3084 2163 3084 
Q 1697 3084 1428 2787 
Q 1159 2491 1159 1978 
L 1159 0 
L 581 0 
L 581 3500 
L 1159 3500 
L 1159 2956 
Q 1366 3272 1645 3428 
Q 1925 3584 2291 3584 
Q 2894 3584 3203 3211 
Q 3513 2838 3513 2113 
z
" transform="scale(0.015625)"/>
       <path id="DejaVuSans-6d" d="M 3328 2828 
Q 3544 3216 3844 3400 
Q 4144 3584 4550 3584 
Q 5097 3584 5394 3201 
Q 5691 2819 5691 2113 
L 5691 0 
L 5113 0 
L 5113 2094 
Q 5113 2597 4934 2840 
Q 4756 3084 4391 3084 
Q 3944 3084 3684 2787 
Q 3425 2491 3425 1978 
L 3425 0 
L 2847 0 
L 2847 2094 
Q 2847 2600 2669 2842 
Q 2491 3084 2119 3084 
Q 1678 3084 1418 2786 
Q 1159 2488 1159 1978 
L 1159 0 
L 581 0 
L 581 3500 
L 1159 3500 
L 1159 2956 
Q 1356 3278 1631 3431 
Q 1906 3584 2284 3584 
Q 2666 3584 2933 3390 
Q 3200 3197 3328 2828 
z
" transform="scale(0.015625)"/>
       <path id="DejaVuSans-62" d="M 3116 1747 
Q 3116 2381 2855 2742 
Q 2594 3103 2138 3103 
Q 1681 3103 1420 2742 
Q 1159 2381 1159 1747 
Q 1159 1113 1420 752 
Q 1681 391 2138 391 
Q 2594 391 2855 752 
Q 3116 1113 3116 1747 
z
M 1159 2969 
Q 1341 3281 1617 3432 
Q 1894 3584 2278 3584 
Q 2916 3584 3314 3078 
Q 3713 2572 3713 1747 
Q 3713 922 3314 415 
Q 2916 -91 2278 -91 
Q 1894 -91 1617 61 
Q 1341 213 1159 525 
L 1159 0 
L 581 0 
L 581 4863 
L 1159 4863 
L 1159 2969 
z
" transform="scale(0.015625)"/>
       <path id="DejaVuSans-77" d="M 269 3500 
L 844 3500 
L 1563 769 
L 2278 3500 
L 2956 3500 
L 3675 769 
L 4391 3500 
L 4966 3500 
L 4050 0 
L 3372 0 
L 2619 2869 
L 1863 0 
L 1184 0 
L 269 3500 
z
" transform="scale(0.015625)"/>
      </defs>
      <use xlink:href="#DejaVuSans-45"/>
      <use xlink:href="#DejaVuSans-78" x="63.183594"/>
      <use xlink:href="#DejaVuSans-65" x="119.238281"/>
      <use xlink:href="#DejaVuSans-63" x="180.761719"/>
      <use xlink:href="#DejaVuSans-75" x="235.742188"/>
      <use xlink:href="#DejaVuSans-74" x="299.121094"/>
      <use xlink:href="#DejaVuSans-69" x="338.330078"/>
      <use xlink:href="#DejaVuSans-6f" x="366.113281"/>
      <use xlink:href="#DejaVuSans-6e" x="427.294922"/>
      <use xlink:href="#DejaVuSans-20" x="490.673828"/>
      <use xlink:href="#DejaVuSans-74" x="522.460938"/>
      <use xlink:href="#DejaVuSans-69" x="561.669922"/>
      <use xlink:href="#DejaVuSans-6d" x="589.453125"/>
      <use xlink:href="#DejaVuSans-65" x="686.865234"/>
      <use xlink:href="#DejaVuSans-20" x="748.388672"/>
      <use xlink:href="#DejaVuSans-62" x="780.175781"/>
      <use xlink:href="#DejaVuSans-65" x="843.652344"/>
      <use xlink:href="#DejaVuSans-74" x="905.175781"/>
      <use xlink:href="#DejaVuSans-77" x="944.384766"/>
      <use xlink:href="#DejaVuSans-65" x="1026.171875"/>
      <use xlink:href="#DejaVuSans-65" x="1087.695312"/>
      <use xlink:href="#DejaVuSans-6e" x="1149.21875"/>
      <use xlink:href="#DejaVuSans-20" x="1212.597656"/>
      <use xlink:href="#DejaVuSans-53" x="1244.384766"/>
      <use xlink:href="#DejaVuSans-31" x="1307.861328"/>
      <use xlink:href="#DejaVuSans-20" x="1371.484375"/>
      <use xlink:href="#DejaVuSans-53" x="1403.271484"/>
      <use xlink:href="#DejaVuSans-31" x="1466.748047"/>
      <use xlink:href="#DejaVuSans-35" x="1530.371094"/>
     </g>
    </g>
   </g>
  </g>
 </g>
 <defs>
  <clipPath id="p31d74cba0b">
   <rect x="57.6" y="41.472" width="357.12" height="266.112"/>
  </clipPath>
 </defs>
</svg>
