<?xml version="1.0" encoding="utf-8" standalone="no"?>
<!DOCTYPE svg PUBLIC "-//W3C//DTD SVG 1.1//EN"
  "http://www.w3.org/Graphics/SVG/1.1/DTD/svg11.dtd">
<svg xmlns:xlink="http://www.w3.org/1999/xlink" width="460.8pt" height="345.6pt" viewBox="0 0 460.8 345.6" xmlns="http://www.w3.org/2000/svg" version="1.1">
 <metadata>
  <rdf:RDF xmlns:dc="http://purl.org/dc/elements/1.1/" xmlns:cc="http://creativecommons.org/ns#" xmlns:rdf="http://www.w3.org/1999/02/22-rdf-syntax-ns#">
   <cc:Work>
    <dc:type rdf:resource="http://purl.org/dc/dcmitype/StillImage"/>
    <dc:date>2024-03-08T10:53:42.815415</dc:date>
    <dc:format>image/svg+xml</dc:format>
    <dc:creator>
     <cc:Agent>
      <dc:title>Matplotlib v3.8.2, https://matplotlib.org/</dc:title>
     </cc:Agent>
    </dc:creator>
   </cc:Work>
  </rdf:RDF>
 </metadata>
 <defs>
  <style type="text/css">*{stroke-linejoin: round; stroke-linecap: butt}</style>
 </defs>
 <g id="figure_1">
  <g id="patch_1">
   <path d="M 0 345.6 
L 460.8 345.6 
L 460.8 0 
L 0 0 
z
" style="fill: #ffffff"/>
  </g>
  <g id="axes_1">
   <g id="patch_2">
    <path d="M 57.6 307.584 
L 414.72 307.584 
L 414.72 41.472 
L 57.6 41.472 
z
" style="fill: #ffffff"/>
   </g>
   <g id="matplotlib.axis_1">
    <g id="xtick_1">
     <g id="line2d_1">
      <defs>
       <path id="mf644c1108f" d="M 0 0 
L 0 3.5 
" style="stroke: #000000; stroke-width: 0.8"/>
      </defs>
      <g>
       <use xlink:href="#mf644c1108f" x="73.832727" y="307.584" style="stroke: #000000; stroke-width: 0.8"/>
      </g>
     </g>
     <g id="text_1">
      <!-- 0 -->
      <g transform="translate(70.651477 322.182437) scale(0.1 -0.1)">
       <defs>
        <path id="DejaVuSans-30" d="M 2034 4250 
Q 1547 4250 1301 3770 
Q 1056 3291 1056 2328 
Q 1056 1369 1301 889 
Q 1547 409 2034 409 
Q 2525 409 2770 889 
Q 3016 1369 3016 2328 
Q 3016 3291 2770 3770 
Q 2525 4250 2034 4250 
z
M 2034 4750 
Q 2819 4750 3233 4129 
Q 3647 3509 3647 2328 
Q 3647 1150 3233 529 
Q 2819 -91 2034 -91 
Q 1250 -91 836 529 
Q 422 1150 422 2328 
Q 422 3509 836 4129 
Q 1250 4750 2034 4750 
z
" transform="scale(0.015625)"/>
       </defs>
       <use xlink:href="#DejaVuSans-30"/>
      </g>
     </g>
    </g>
    <g id="xtick_2">
     <g id="line2d_2">
      <g>
       <use xlink:href="#mf644c1108f" x="117.869207" y="307.584" style="stroke: #000000; stroke-width: 0.8"/>
      </g>
     </g>
     <g id="text_2">
      <!-- 50000 -->
      <g transform="translate(101.962957 322.182437) scale(0.1 -0.1)">
       <defs>
        <path id="DejaVuSans-35" d="M 691 4666 
L 3169 4666 
L 3169 4134 
L 1269 4134 
L 1269 2991 
Q 1406 3038 1543 3061 
Q 1681 3084 1819 3084 
Q 2600 3084 3056 2656 
Q 3513 2228 3513 1497 
Q 3513 744 3044 326 
Q 2575 -91 1722 -91 
Q 1428 -91 1123 -41 
Q 819 9 494 109 
L 494 744 
Q 775 591 1075 516 
Q 1375 441 1709 441 
Q 2250 441 2565 725 
Q 2881 1009 2881 1497 
Q 2881 1984 2565 2268 
Q 2250 2553 1709 2553 
Q 1456 2553 1204 2497 
Q 953 2441 691 2322 
L 691 4666 
z
" transform="scale(0.015625)"/>
       </defs>
       <use xlink:href="#DejaVuSans-35"/>
       <use xlink:href="#DejaVuSans-30" x="63.623047"/>
       <use xlink:href="#DejaVuSans-30" x="127.246094"/>
       <use xlink:href="#DejaVuSans-30" x="190.869141"/>
       <use xlink:href="#DejaVuSans-30" x="254.492188"/>
      </g>
     </g>
    </g>
    <g id="xtick_3">
     <g id="line2d_3">
      <g>
       <use xlink:href="#mf644c1108f" x="161.905687" y="307.584" style="stroke: #000000; stroke-width: 0.8"/>
      </g>
     </g>
     <g id="text_3">
      <!-- 100000 -->
      <g transform="translate(142.818187 322.182437) scale(0.1 -0.1)">
       <defs>
        <path id="DejaVuSans-31" d="M 794 531 
L 1825 531 
L 1825 4091 
L 703 3866 
L 703 4441 
L 1819 4666 
L 2450 4666 
L 2450 531 
L 3481 531 
L 3481 0 
L 794 0 
L 794 531 
z
" transform="scale(0.015625)"/>
       </defs>
       <use xlink:href="#DejaVuSans-31"/>
       <use xlink:href="#DejaVuSans-30" x="63.623047"/>
       <use xlink:href="#DejaVuSans-30" x="127.246094"/>
       <use xlink:href="#DejaVuSans-30" x="190.869141"/>
       <use xlink:href="#DejaVuSans-30" x="254.492188"/>
       <use xlink:href="#DejaVuSans-30" x="318.115234"/>
      </g>
     </g>
    </g>
    <g id="xtick_4">
     <g id="line2d_4">
      <g>
       <use xlink:href="#mf644c1108f" x="205.942167" y="307.584" style="stroke: #000000; stroke-width: 0.8"/>
      </g>
     </g>
     <g id="text_4">
      <!-- 150000 -->
      <g transform="translate(186.854667 322.182437) scale(0.1 -0.1)">
       <use xlink:href="#DejaVuSans-31"/>
       <use xlink:href="#DejaVuSans-35" x="63.623047"/>
       <use xlink:href="#DejaVuSans-30" x="127.246094"/>
       <use xlink:href="#DejaVuSans-30" x="190.869141"/>
       <use xlink:href="#DejaVuSans-30" x="254.492188"/>
       <use xlink:href="#DejaVuSans-30" x="318.115234"/>
      </g>
     </g>
    </g>
    <g id="xtick_5">
     <g id="line2d_5">
      <g>
       <use xlink:href="#mf644c1108f" x="249.978647" y="307.584" style="stroke: #000000; stroke-width: 0.8"/>
      </g>
     </g>
     <g id="text_5">
      <!-- 200000 -->
      <g transform="translate(230.891147 322.182437) scale(0.1 -0.1)">
       <defs>
        <path id="DejaVuSans-32" d="M 1228 531 
L 3431 531 
L 3431 0 
L 469 0 
L 469 531 
Q 828 903 1448 1529 
Q 2069 2156 2228 2338 
Q 2531 2678 2651 2914 
Q 2772 3150 2772 3378 
Q 2772 3750 2511 3984 
Q 2250 4219 1831 4219 
Q 1534 4219 1204 4116 
Q 875 4013 500 3803 
L 500 4441 
Q 881 4594 1212 4672 
Q 1544 4750 1819 4750 
Q 2544 4750 2975 4387 
Q 3406 4025 3406 3419 
Q 3406 3131 3298 2873 
Q 3191 2616 2906 2266 
Q 2828 2175 2409 1742 
Q 1991 1309 1228 531 
z
" transform="scale(0.015625)"/>
       </defs>
       <use xlink:href="#DejaVuSans-32"/>
       <use xlink:href="#DejaVuSans-30" x="63.623047"/>
       <use xlink:href="#DejaVuSans-30" x="127.246094"/>
       <use xlink:href="#DejaVuSans-30" x="190.869141"/>
       <use xlink:href="#DejaVuSans-30" x="254.492188"/>
       <use xlink:href="#DejaVuSans-30" x="318.115234"/>
      </g>
     </g>
    </g>
    <g id="xtick_6">
     <g id="line2d_6">
      <g>
       <use xlink:href="#mf644c1108f" x="294.015127" y="307.584" style="stroke: #000000; stroke-width: 0.8"/>
      </g>
     </g>
     <g id="text_6">
      <!-- 250000 -->
      <g transform="translate(274.927627 322.182437) scale(0.1 -0.1)">
       <use xlink:href="#DejaVuSans-32"/>
       <use xlink:href="#DejaVuSans-35" x="63.623047"/>
       <use xlink:href="#DejaVuSans-30" x="127.246094"/>
       <use xlink:href="#DejaVuSans-30" x="190.869141"/>
       <use xlink:href="#DejaVuSans-30" x="254.492188"/>
       <use xlink:href="#DejaVuSans-30" x="318.115234"/>
      </g>
     </g>
    </g>
    <g id="xtick_7">
     <g id="line2d_7">
      <g>
       <use xlink:href="#mf644c1108f" x="338.051608" y="307.584" style="stroke: #000000; stroke-width: 0.8"/>
      </g>
     </g>
     <g id="text_7">
      <!-- 300000 -->
      <g transform="translate(318.964108 322.182437) scale(0.1 -0.1)">
       <defs>
        <path id="DejaVuSans-33" d="M 2597 2516 
Q 3050 2419 3304 2112 
Q 3559 1806 3559 1356 
Q 3559 666 3084 287 
Q 2609 -91 1734 -91 
Q 1441 -91 1130 -33 
Q 819 25 488 141 
L 488 750 
Q 750 597 1062 519 
Q 1375 441 1716 441 
Q 2309 441 2620 675 
Q 2931 909 2931 1356 
Q 2931 1769 2642 2001 
Q 2353 2234 1838 2234 
L 1294 2234 
L 1294 2753 
L 1863 2753 
Q 2328 2753 2575 2939 
Q 2822 3125 2822 3475 
Q 2822 3834 2567 4026 
Q 2313 4219 1838 4219 
Q 1578 4219 1281 4162 
Q 984 4106 628 3988 
L 628 4550 
Q 988 4650 1302 4700 
Q 1616 4750 1894 4750 
Q 2613 4750 3031 4423 
Q 3450 4097 3450 3541 
Q 3450 3153 3228 2886 
Q 3006 2619 2597 2516 
z
" transform="scale(0.015625)"/>
       </defs>
       <use xlink:href="#DejaVuSans-33"/>
       <use xlink:href="#DejaVuSans-30" x="63.623047"/>
       <use xlink:href="#DejaVuSans-30" x="127.246094"/>
       <use xlink:href="#DejaVuSans-30" x="190.869141"/>
       <use xlink:href="#DejaVuSans-30" x="254.492188"/>
       <use xlink:href="#DejaVuSans-30" x="318.115234"/>
      </g>
     </g>
    </g>
    <g id="xtick_8">
     <g id="line2d_8">
      <g>
       <use xlink:href="#mf644c1108f" x="382.088088" y="307.584" style="stroke: #000000; stroke-width: 0.8"/>
      </g>
     </g>
     <g id="text_8">
      <!-- 350000 -->
      <g transform="translate(363.000588 322.182437) scale(0.1 -0.1)">
       <use xlink:href="#DejaVuSans-33"/>
       <use xlink:href="#DejaVuSans-35" x="63.623047"/>
       <use xlink:href="#DejaVuSans-30" x="127.246094"/>
       <use xlink:href="#DejaVuSans-30" x="190.869141"/>
       <use xlink:href="#DejaVuSans-30" x="254.492188"/>
       <use xlink:href="#DejaVuSans-30" x="318.115234"/>
      </g>
     </g>
    </g>
   </g>
   <g id="matplotlib.axis_2">
    <g id="ytick_1">
     <g id="line2d_9">
      <defs>
       <path id="m84351b5a43" d="M 0 0 
L -3.5 0 
" style="stroke: #000000; stroke-width: 0.8"/>
      </defs>
      <g>
       <use xlink:href="#m84351b5a43" x="57.6" y="295.488" style="stroke: #000000; stroke-width: 0.8"/>
      </g>
     </g>
     <g id="text_9">
      <!-- 0.0 -->
      <g transform="translate(34.696875 299.287219) scale(0.1 -0.1)">
       <defs>
        <path id="DejaVuSans-2e" d="M 684 794 
L 1344 794 
L 1344 0 
L 684 0 
L 684 794 
z
" transform="scale(0.015625)"/>
       </defs>
       <use xlink:href="#DejaVuSans-30"/>
       <use xlink:href="#DejaVuSans-2e" x="63.623047"/>
       <use xlink:href="#DejaVuSans-30" x="95.410156"/>
      </g>
     </g>
    </g>
    <g id="ytick_2">
     <g id="line2d_10">
      <g>
       <use xlink:href="#m84351b5a43" x="57.6" y="247.104" style="stroke: #000000; stroke-width: 0.8"/>
      </g>
     </g>
     <g id="text_10">
      <!-- 0.2 -->
      <g transform="translate(34.696875 250.903219) scale(0.1 -0.1)">
       <use xlink:href="#DejaVuSans-30"/>
       <use xlink:href="#DejaVuSans-2e" x="63.623047"/>
       <use xlink:href="#DejaVuSans-32" x="95.410156"/>
      </g>
     </g>
    </g>
    <g id="ytick_3">
     <g id="line2d_11">
      <g>
       <use xlink:href="#m84351b5a43" x="57.6" y="198.72" style="stroke: #000000; stroke-width: 0.8"/>
      </g>
     </g>
     <g id="text_11">
      <!-- 0.4 -->
      <g transform="translate(34.696875 202.519219) scale(0.1 -0.1)">
       <defs>
        <path id="DejaVuSans-34" d="M 2419 4116 
L 825 1625 
L 2419 1625 
L 2419 4116 
z
M 2253 4666 
L 3047 4666 
L 3047 1625 
L 3713 1625 
L 3713 1100 
L 3047 1100 
L 3047 0 
L 2419 0 
L 2419 1100 
L 313 1100 
L 313 1709 
L 2253 4666 
z
" transform="scale(0.015625)"/>
       </defs>
       <use xlink:href="#DejaVuSans-30"/>
       <use xlink:href="#DejaVuSans-2e" x="63.623047"/>
       <use xlink:href="#DejaVuSans-34" x="95.410156"/>
      </g>
     </g>
    </g>
    <g id="ytick_4">
     <g id="line2d_12">
      <g>
       <use xlink:href="#m84351b5a43" x="57.6" y="150.336" style="stroke: #000000; stroke-width: 0.8"/>
      </g>
     </g>
     <g id="text_12">
      <!-- 0.6 -->
      <g transform="translate(34.696875 154.135219) scale(0.1 -0.1)">
       <defs>
        <path id="DejaVuSans-36" d="M 2113 2584 
Q 1688 2584 1439 2293 
Q 1191 2003 1191 1497 
Q 1191 994 1439 701 
Q 1688 409 2113 409 
Q 2538 409 2786 701 
Q 3034 994 3034 1497 
Q 3034 2003 2786 2293 
Q 2538 2584 2113 2584 
z
M 3366 4563 
L 3366 3988 
Q 3128 4100 2886 4159 
Q 2644 4219 2406 4219 
Q 1781 4219 1451 3797 
Q 1122 3375 1075 2522 
Q 1259 2794 1537 2939 
Q 1816 3084 2150 3084 
Q 2853 3084 3261 2657 
Q 3669 2231 3669 1497 
Q 3669 778 3244 343 
Q 2819 -91 2113 -91 
Q 1303 -91 875 529 
Q 447 1150 447 2328 
Q 447 3434 972 4092 
Q 1497 4750 2381 4750 
Q 2619 4750 2861 4703 
Q 3103 4656 3366 4563 
z
" transform="scale(0.015625)"/>
       </defs>
       <use xlink:href="#DejaVuSans-30"/>
       <use xlink:href="#DejaVuSans-2e" x="63.623047"/>
       <use xlink:href="#DejaVuSans-36" x="95.410156"/>
      </g>
     </g>
    </g>
    <g id="ytick_5">
     <g id="line2d_13">
      <g>
       <use xlink:href="#m84351b5a43" x="57.6" y="101.952" style="stroke: #000000; stroke-width: 0.8"/>
      </g>
     </g>
     <g id="text_13">
      <!-- 0.8 -->
      <g transform="translate(34.696875 105.751219) scale(0.1 -0.1)">
       <defs>
        <path id="DejaVuSans-38" d="M 2034 2216 
Q 1584 2216 1326 1975 
Q 1069 1734 1069 1313 
Q 1069 891 1326 650 
Q 1584 409 2034 409 
Q 2484 409 2743 651 
Q 3003 894 3003 1313 
Q 3003 1734 2745 1975 
Q 2488 2216 2034 2216 
z
M 1403 2484 
Q 997 2584 770 2862 
Q 544 3141 544 3541 
Q 544 4100 942 4425 
Q 1341 4750 2034 4750 
Q 2731 4750 3128 4425 
Q 3525 4100 3525 3541 
Q 3525 3141 3298 2862 
Q 3072 2584 2669 2484 
Q 3125 2378 3379 2068 
Q 3634 1759 3634 1313 
Q 3634 634 3220 271 
Q 2806 -91 2034 -91 
Q 1263 -91 848 271 
Q 434 634 434 1313 
Q 434 1759 690 2068 
Q 947 2378 1403 2484 
z
M 1172 3481 
Q 1172 3119 1398 2916 
Q 1625 2713 2034 2713 
Q 2441 2713 2670 2916 
Q 2900 3119 2900 3481 
Q 2900 3844 2670 4047 
Q 2441 4250 2034 4250 
Q 1625 4250 1398 4047 
Q 1172 3844 1172 3481 
z
" transform="scale(0.015625)"/>
       </defs>
       <use xlink:href="#DejaVuSans-30"/>
       <use xlink:href="#DejaVuSans-2e" x="63.623047"/>
       <use xlink:href="#DejaVuSans-38" x="95.410156"/>
      </g>
     </g>
    </g>
    <g id="ytick_6">
     <g id="line2d_14">
      <g>
       <use xlink:href="#m84351b5a43" x="57.6" y="53.568" style="stroke: #000000; stroke-width: 0.8"/>
      </g>
     </g>
     <g id="text_14">
      <!-- 1.0 -->
      <g transform="translate(34.696875 57.367219) scale(0.1 -0.1)">
       <use xlink:href="#DejaVuSans-31"/>
       <use xlink:href="#DejaVuSans-2e" x="63.623047"/>
       <use xlink:href="#DejaVuSans-30" x="95.410156"/>
      </g>
     </g>
    </g>
   </g>
   <g id="line2d_15">
    <path d="M 73.832727 295.488 
L 136.443795 295.488 
L 136.443795 294.814128 
L 136.663977 294.814128 
L 136.663977 294.140256 
L 137.712045 294.140256 
L 137.712045 293.466384 
L 138.372592 293.466384 
L 138.443051 292.118641 
L 138.619197 292.118641 
L 138.619197 291.444769 
L 139.429468 291.444769 
L 139.499926 289.423153 
L 139.587999 289.423153 
L 139.632036 288.075409 
L 139.843411 288.075409 
L 139.843411 287.401538 
L 140.178088 287.401538 
L 140.20451 286.053794 
L 140.292583 286.053794 
L 140.380656 284.032178 
L 140.380656 284.032178 
L 141.155698 284.032178 
L 141.234964 282.684435 
L 141.340651 282.684435 
L 141.437531 279.988947 
L 141.60487 279.988947 
L 141.60487 279.315075 
L 141.921933 279.315075 
L 141.948355 277.967331 
L 142.054042 277.967331 
L 142.15973 275.945716 
L 142.556058 275.945716 
L 142.556058 275.271844 
L 142.90835 275.271844 
L 142.987616 273.9241 
L 143.119725 273.9241 
L 143.198991 271.902485 
L 143.348715 271.902485 
L 143.348715 271.228613 
L 143.674585 271.228613 
L 143.727428 269.880869 
L 143.833116 269.880869 
L 143.929996 267.859253 
L 143.929996 267.859253 
L 144.564122 267.859253 
L 144.564122 267.185382 
L 144.696231 267.185382 
L 144.740267 265.837638 
L 144.845955 265.837638 
L 144.942835 263.816022 
L 145.127788 263.816022 
L 145.127788 263.14215 
L 145.392007 263.14215 
L 145.488888 261.794407 
L 145.550539 261.794407 
L 145.647419 259.772791 
L 145.700263 259.772791 
L 145.700263 259.098919 
L 146.45769 259.098919 
L 146.55457 257.077304 
L 146.607414 257.077304 
L 146.651451 255.72956 
L 146.721909 255.72956 
L 146.721909 255.055688 
L 146.906862 255.055688 
L 146.906862 254.381816 
L 147.144659 254.381816 
L 147.250347 253.034072 
L 147.294383 253.034072 
L 147.364842 251.686329 
L 147.505758 251.686329 
L 147.505758 251.012457 
L 147.690712 251.012457 
L 147.690712 250.338585 
L 148.254379 250.338585 
L 148.360066 248.316969 
L 148.456946 248.316969 
L 148.527405 246.969226 
L 148.615478 246.969226 
L 148.712358 245.621482 
L 148.906118 245.621482 
L 149.002999 244.273738 
L 149.055842 244.273738 
L 149.055842 243.599866 
L 149.170337 243.599866 
L 149.170337 242.925994 
L 149.293639 242.925994 
L 149.293639 242.252123 
L 149.478593 242.252123 
L 149.478593 241.578251 
L 150.00703 241.578251 
L 150.112718 239.556635 
L 150.227213 239.556635 
L 150.297671 238.208891 
L 150.385744 238.208891 
L 150.385744 237.535019 
L 150.676385 237.535019 
L 150.773265 236.187276 
L 150.808494 236.187276 
L 150.905375 234.16566 
L 151.046291 234.16566 
L 151.046291 233.491788 
L 151.759682 233.491788 
L 151.847755 232.144045 
L 151.874177 232.144045 
L 151.874177 231.470173 
L 152.006287 231.470173 
L 152.041516 230.122429 
L 152.182433 230.122429 
L 152.182433 229.448557 
L 152.446651 229.448557 
L 152.446651 228.774685 
L 152.561146 228.774685 
L 152.640412 225.405326 
L 152.807751 225.405326 
L 152.807751 224.731454 
L 153.010318 224.731454 
L 153.010318 224.057582 
L 153.124813 224.057582 
L 153.124813 223.38371 
L 153.547563 223.38371 
L 153.644444 221.362095 
L 153.802975 221.362095 
L 153.908663 219.340479 
L 153.970314 219.340479 
L 153.970314 218.666607 
L 154.208111 218.666607 
L 154.208111 217.992735 
L 154.322605 217.992735 
L 154.410678 215.97112 
L 154.56921 215.97112 
L 154.56921 215.297248 
L 154.771778 215.297248 
L 154.771778 214.623376 
L 154.886272 214.623376 
L 154.886272 213.949504 
L 155.335445 213.949504 
L 155.441132 211.927889 
L 155.538012 211.927889 
L 155.564434 210.580145 
L 155.652507 210.580145 
L 155.749387 208.558529 
L 155.960763 208.558529 
L 155.960763 207.884657 
L 156.136908 207.884657 
L 156.189752 205.18917 
L 156.189752 205.18917 
L 156.313054 205.18917 
L 156.313054 204.515298 
L 156.4892 204.515298 
L 156.4892 203.841426 
L 156.682961 203.841426 
L 156.735805 202.493682 
L 157.026445 202.493682 
L 157.105711 201.145939 
L 157.202591 201.145939 
L 157.281857 199.124323 
L 157.334701 199.124323 
L 157.334701 198.450451 
L 157.554883 198.450451 
L 157.554883 197.776579 
L 157.6958 197.776579 
L 157.6958 197.102708 
L 157.907175 197.102708 
L 157.995248 195.754964 
L 158.074514 195.754964 
L 158.074514 195.081092 
L 158.25066 195.081092 
L 158.321118 193.733348 
L 158.479649 193.733348 
L 158.479649 193.059476 
L 158.735061 193.059476 
L 158.787905 191.711733 
L 158.86717 191.711733 
L 158.946436 190.363989 
L 159.060931 190.363989 
L 159.131389 189.016245 
L 159.307535 189.016245 
L 159.307535 188.342373 
L 159.677441 188.342373 
L 159.783129 186.99463 
L 160.047348 186.99463 
L 160.126614 185.646886 
L 160.258723 185.646886 
L 160.258723 184.973014 
L 160.566978 184.973014 
L 160.566978 184.299142 
L 160.716702 184.299142 
L 160.716702 183.62527 
L 161.8 183.62527 
L 161.844036 182.277526 
L 161.914495 182.277526 
L 162.011375 180.929783 
L 162.751188 180.929783 
L 162.751188 180.255911 
L 163.288433 180.255911 
L 163.288433 179.582039 
L 163.517423 179.582039 
L 163.517423 178.908167 
L 163.75522 178.908167 
L 163.75522 178.234295 
L 164.82971 178.234295 
L 164.935397 176.21268 
L 164.970626 176.21268 
L 164.970626 175.538808 
L 165.305304 175.538808 
L 165.305304 174.864936 
L 165.525486 174.864936 
L 165.525486 174.191064 
L 166.335757 174.191064 
L 166.335757 173.517192 
L 167.07557 173.517192 
L 167.07557 172.169448 
L 167.07557 172.169448 
L 167.278138 172.169448 
L 167.278138 171.495577 
L 167.63043 171.495577 
L 167.63043 170.821705 
L 167.973914 170.821705 
L 167.973914 170.147833 
L 168.088409 170.147833 
L 168.088409 169.473961 
L 168.837029 169.473961 
L 168.837029 168.800089 
L 169.013175 168.800089 
L 169.013175 168.126217 
L 169.312623 168.126217 
L 169.312623 167.452345 
L 170.572067 167.452345 
L 170.580874 166.104602 
L 170.748213 166.104602 
L 170.75702 164.756858 
L 172.333526 164.756858 
L 172.333526 163.409114 
L 172.333526 163.409114 
L 172.536094 163.409114 
L 172.536094 162.735242 
L 173.839573 162.735242 
L 173.839573 162.06137 
L 174.130214 162.06137 
L 174.235902 160.713627 
L 175.900481 160.713627 
L 175.900481 160.039755 
L 176.067819 160.039755 
L 176.067819 159.365883 
L 176.922127 159.365883 
L 176.922127 158.692011 
L 177.274419 158.692011 
L 177.274419 158.018139 
L 177.688362 158.018139 
L 177.688362 157.344267 
L 177.802857 157.344267 
L 177.802857 156.670396 
L 179.441014 156.670396 
L 179.48505 155.322652 
L 179.960644 155.322652 
L 179.960644 154.64878 
L 180.401009 154.64878 
L 180.401009 153.974908 
L 181.202473 153.974908 
L 181.202473 153.301036 
L 182.576411 153.301036 
L 182.585218 151.953292 
L 182.963932 151.953292 
L 182.963932 151.279421 
L 184.329063 151.279421 
L 184.329063 150.605549 
L 184.716584 150.605549 
L 184.716584 149.931677 
L 185.667772 149.931677 
L 185.667772 149.257805 
L 186.072908 149.257805 
L 186.072908 148.583933 
L 186.504465 148.583933 
L 186.504465 147.910061 
L 187.878403 147.910061 
L 187.878403 147.236189 
L 188.274732 147.236189 
L 188.283539 145.888446 
L 188.688675 145.888446 
L 188.688675 145.214574 
L 189.631055 145.214574 
L 189.631055 144.540702 
L 190.009769 144.540702 
L 190.080227 143.192958 
L 190.538207 143.192958 
L 190.538207 142.519086 
L 191.392514 142.519086 
L 191.392514 141.845214 
L 191.771228 141.845214 
L 191.79765 140.497471 
L 192.299666 140.497471 
L 192.299666 139.823599 
L 193.189203 139.823599 
L 193.189203 139.149727 
L 193.559109 139.149727 
L 193.559109 138.475855 
L 194.105162 138.475855 
L 194.105162 137.801983 
L 194.439839 137.801983 
L 194.439839 137.128111 
L 194.853782 137.128111 
L 194.853782 136.45424 
L 195.329376 136.45424 
L 195.329376 135.780368 
L 195.884235 135.780368 
L 195.884235 135.106496 
L 197.117257 135.106496 
L 197.117257 134.432624 
L 197.522392 134.432624 
L 197.522392 133.758752 
L 197.672116 133.758752 
L 197.672116 133.08488 
L 198.896331 133.08488 
L 198.896331 132.411008 
L 199.442383 132.411008 
L 199.442383 131.737136 
L 200.675404 131.737136 
L 200.710634 130.389393 
L 201.186228 130.389393 
L 201.186228 129.715521 
L 202.463285 129.715521 
L 202.463285 129.041649 
L 202.982916 129.041649 
L 202.982916 128.367777 
L 203.6875 128.367777 
L 203.766765 127.020033 
L 204.198323 127.020033 
L 204.198323 126.346162 
L 204.700339 126.346162 
L 204.700339 125.67229 
L 205.93336 125.67229 
L 205.977397 123.650674 
L 206.452991 123.650674 
L 206.452991 122.976802 
L 206.805282 122.976802 
L 206.831704 121.629058 
L 207.4306 121.629058 
L 207.4306 120.955187 
L 207.703627 120.955187 
L 207.703627 119.607443 
L 207.703627 119.607443 
L 207.897387 119.607443 
L 207.897387 118.933571 
L 208.135184 118.933571 
L 208.135184 118.259699 
L 208.258486 118.259699 
L 208.258486 117.585827 
L 208.584356 117.585827 
L 208.584356 116.911955 
L 209.394627 116.911955 
L 209.438664 115.564212 
L 209.579581 115.564212 
L 209.579581 114.89034 
L 209.887836 114.89034 
L 209.887836 114.216468 
L 210.03756 114.216468 
L 210.03756 113.542596 
L 210.310586 113.542596 
L 210.389852 112.194852 
L 210.944712 112.194852 
L 210.944712 111.520981 
L 211.781405 111.520981 
L 211.781405 110.847109 
L 212.160118 110.847109 
L 212.160118 110.173237 
L 212.477181 110.173237 
L 212.521218 108.825493 
L 213.903963 108.825493 
L 214.009651 106.803877 
L 214.009651 106.803877 
L 214.652583 106.803877 
L 214.652583 106.130006 
L 215.594964 106.130006 
L 215.674229 104.782262 
L 216.229089 104.782262 
L 216.229089 104.10839 
L 216.907251 104.10839 
L 216.907251 103.434518 
L 217.056975 103.434518 
L 217.056975 102.760646 
L 217.426881 102.760646 
L 217.426881 102.086774 
L 218.43972 102.086774 
L 218.43972 101.412903 
L 218.66871 101.412903 
L 218.66871 100.739031 
L 219.153111 100.739031 
L 219.153111 99.391287 
L 219.153111 99.391287 
L 220.139529 99.391287 
L 220.139529 98.717415 
L 220.606315 98.717415 
L 220.606315 98.043543 
L 221.319706 98.043543 
L 221.319706 97.369671 
L 221.777686 97.369671 
L 221.777686 96.695799 
L 222.693644 96.695799 
L 222.693644 96.021928 
L 222.808139 96.021928 
L 222.808139 95.348056 
L 223.230889 95.348056 
L 223.230889 94.674184 
L 223.539145 94.674184 
L 223.539145 94.000312 
L 224.419874 94.000312 
L 224.419874 93.32644 
L 224.816203 93.32644 
L 224.816203 92.652568 
L 225.001156 92.652568 
L 225.001156 91.978696 
L 225.785005 91.978696 
L 225.785005 91.304825 
L 227.220595 91.304825 
L 227.220595 90.630953 
L 228.004444 90.630953 
L 228.004444 89.957081 
L 229.431226 89.957081 
L 229.431226 89.283209 
L 230.215075 89.283209 
L 230.215075 88.609337 
L 231.606628 88.609337 
L 231.606628 87.935465 
L 232.38167 87.935465 
L 232.38167 87.261593 
L 232.496165 87.261593 
L 232.496165 86.587721 
L 233.826067 86.587721 
L 233.826067 85.91385 
L 234.284046 85.91385 
L 234.284046 85.239978 
L 234.574687 85.239978 
L 234.574687 84.566106 
L 236.010276 84.566106 
L 236.027891 83.218362 
L 236.758896 83.218362 
L 236.758896 82.54449 
L 237.815772 82.54449 
L 237.815772 81.870618 
L 238.256136 81.870618 
L 238.256136 81.196747 
L 239.568424 81.196747 
L 239.568424 80.522875 
L 240.49319 80.522875 
L 240.49319 79.849003 
L 242.686206 79.849003 
L 242.686206 79.175131 
L 244.92326 79.175131 
L 244.92326 78.501259 
L 271.618174 78.501259 
L 271.618174 77.827387 
L 273.353211 77.827387 
L 273.353211 77.153515 
L 275.088248 77.153515 
L 275.088248 76.479643 
L 276.849708 76.479643 
L 276.849708 75.805772 
L 278.619974 75.805772 
L 278.619974 75.1319 
L 280.355011 75.1319 
L 280.355011 74.458028 
L 282.116471 74.458028 
L 282.116471 73.784156 
L 283.842701 73.784156 
L 283.842701 73.110284 
L 285.630582 73.110284 
L 285.630582 72.436412 
L 287.409655 72.436412 
L 287.409655 71.76254 
L 287.805984 71.76254 
L 287.805984 71.088669 
L 289.179922 71.088669 
L 289.179922 70.414797 
L 290.016615 70.414797 
L 290.016615 69.740925 
L 290.923767 69.740925 
L 290.923767 69.067053 
L 292.209632 69.067053 
L 292.209632 68.393181 
L 292.667611 68.393181 
L 292.667611 67.719309 
L 294.42907 67.719309 
L 294.473107 66.371565 
L 296.199337 66.371565 
L 296.199337 65.697694 
L 296.61328 65.697694 
L 296.61328 65.023822 
L 297.907952 65.023822 
L 297.907952 64.34995 
L 298.815104 64.34995 
L 298.815104 63.676078 
L 299.669412 63.676078 
L 299.669412 63.002206 
L 300.990506 63.002206 
L 300.990506 62.328334 
L 301.483714 62.328334 
L 301.483714 61.654462 
L 303.19233 61.654462 
L 303.19233 60.980591 
L 304.971404 60.980591 
L 304.971404 60.306719 
L 307.640014 60.306719 
L 307.640014 59.632847 
L 309.850646 59.632847 
L 309.850646 58.958975 
L 312.026048 58.958975 
L 312.026048 58.285103 
L 316.420889 58.285103 
L 316.420889 57.611231 
L 318.613905 57.611231 
L 318.613905 56.937359 
L 320.824537 56.937359 
L 320.824537 56.263487 
L 323.008746 56.263487 
L 323.008746 55.589616 
L 325.219377 55.589616 
L 325.219377 54.915744 
L 327.421201 54.915744 
L 327.421201 54.241872 
L 374.460969 54.241872 
L 374.460969 53.568 
L 374.460969 53.568 
" clip-path="url(#p4302a10d52)" style="fill: none; stroke: #1f77b4; stroke-width: 1.5; stroke-linecap: square"/>
   </g>
   <g id="line2d_16">
    <path d="M 73.832727 295.488 
L 114.381518 295.488 
L 114.451976 293.937231 
L 116.204628 293.937231 
L 116.204628 293.161846 
L 117.464072 293.161846 
L 117.464072 292.386462 
L 117.983702 292.386462 
L 117.983702 291.611077 
L 119.727547 291.611077 
L 119.727547 290.835692 
L 120.537818 290.835692 
L 120.537818 290.060308 
L 121.489006 290.060308 
L 121.489006 289.284923 
L 123.250465 289.284923 
L 123.250465 288.509538 
L 140.583224 288.509538 
L 140.583224 287.734154 
L 141.261386 287.734154 
L 141.261386 286.958769 
L 142.952386 286.958769 
L 142.952386 286.183385 
L 143.128532 286.183385 
L 143.128532 285.408 
L 143.612934 285.408 
L 143.612934 284.632615 
L 144.335132 284.632615 
L 144.335132 283.857231 
L 145.118981 283.857231 
L 145.118981 283.081846 
L 146.140628 283.081846 
L 146.140628 282.306462 
L 146.730716 282.306462 
L 146.730716 281.531077 
L 147.364842 281.531077 
L 147.426493 279.980308 
L 148.360066 279.980308 
L 148.360066 279.204923 
L 149.240796 279.204923 
L 149.240796 278.429538 
L 149.58428 278.429538 
L 149.58428 277.654154 
L 149.830885 277.654154 
L 149.830885 276.878769 
L 150.570697 276.878769 
L 150.570697 276.103385 
L 151.460234 276.103385 
L 151.460234 275.328 
L 151.777297 275.328 
L 151.777297 274.552615 
L 152.252891 274.552615 
L 152.252891 273.777231 
L 152.887016 273.777231 
L 152.887016 273.001846 
L 153.723709 273.001846 
L 153.723709 272.226462 
L 153.987928 272.226462 
L 153.987928 271.451077 
L 154.595632 271.451077 
L 154.595632 270.675692 
L 155.335445 270.675692 
L 155.335445 269.900308 
L 155.54682 269.900308 
L 155.54682 269.124923 
L 155.995992 269.124923 
L 155.995992 268.349538 
L 156.216174 268.349538 
L 156.216174 267.574154 
L 156.806263 267.574154 
L 156.806263 266.798769 
L 157.669378 266.798769 
L 157.669378 266.023385 
L 158.400384 266.023385 
L 158.453227 264.472615 
L 158.620566 264.472615 
L 158.620566 263.697231 
L 159.880009 263.697231 
L 159.880009 262.921846 
L 160.602208 262.921846 
L 160.699088 261.371077 
L 161.676698 261.371077 
L 161.676698 260.595692 
L 162.848068 260.595692 
L 162.848068 259.820308 
L 162.997792 259.820308 
L 162.997792 259.044923 
L 163.799256 259.044923 
L 163.799256 258.269538 
L 164.671178 258.269538 
L 164.671178 257.494154 
L 164.785673 257.494154 
L 164.785673 256.718769 
L 165.067507 256.718769 
L 165.067507 255.943385 
L 165.957044 255.943385 
L 166.053924 254.392615 
L 166.820159 254.392615 
L 166.820159 253.617231 
L 167.286945 253.617231 
L 167.30456 252.066462 
L 167.718503 252.066462 
L 167.718503 251.291077 
L 167.894649 251.291077 
L 167.894649 250.515692 
L 168.15006 250.515692 
L 168.15006 249.740308 
L 169.12767 249.740308 
L 169.12767 248.964923 
L 169.87629 248.964923 
L 169.87629 248.189538 
L 170.369499 248.189538 
L 170.395921 246.638769 
L 170.968395 246.638769 
L 170.968395 245.863385 
L 172.562516 245.863385 
L 172.562516 245.088 
L 172.923615 245.088 
L 172.985266 243.537231 
L 173.434438 243.537231 
L 173.434438 242.761846 
L 173.998105 242.761846 
L 173.998105 241.986462 
L 174.350397 241.986462 
L 174.350397 241.211077 
L 174.825991 241.211077 
L 174.825991 240.435692 
L 175.354428 240.435692 
L 175.354428 239.660308 
L 176.023783 239.660308 
L 176.085434 238.109538 
L 176.534606 238.109538 
L 176.613872 236.558769 
L 177.027815 236.558769 
L 177.071851 235.008 
L 178.73643 235.008 
L 178.73643 234.232615 
L 179.150373 234.232615 
L 179.229639 232.681846 
L 179.643582 232.681846 
L 179.643582 231.906462 
L 180.911832 231.906462 
L 180.911832 231.131077 
L 181.44027 231.131077 
L 181.44027 230.355692 
L 181.63403 230.355692 
L 181.63403 229.580308 
L 182.153661 229.580308 
L 182.153661 228.804923 
L 182.690906 228.804923 
L 182.690906 228.029538 
L 183.140078 228.029538 
L 183.140078 227.254154 
L 183.677323 227.254154 
L 183.677323 226.478769 
L 184.690162 226.478769 
L 184.690162 225.703385 
L 185.2186 225.703385 
L 185.324287 224.152615 
L 185.755845 224.152615 
L 185.843918 222.601846 
L 187.402809 222.601846 
L 187.402809 221.826462 
L 187.517304 221.826462 
L 187.517304 221.051077 
L 187.711065 221.051077 
L 187.711065 220.275692 
L 188.036935 220.275692 
L 188.036935 219.500308 
L 188.873628 219.500308 
L 188.908857 217.949538 
L 189.578211 217.949538 
L 189.578211 217.174154 
L 189.710321 217.174154 
L 189.710321 216.398769 
L 190.221144 216.398769 
L 190.221144 215.623385 
L 190.731967 215.623385 
L 190.731967 214.848 
L 191.093066 214.848 
L 191.093066 214.072615 
L 191.515817 214.072615 
L 191.515817 213.297231 
L 191.824072 213.297231 
L 191.824072 212.521846 
L 191.973796 212.521846 
L 191.973796 211.746462 
L 193.338927 211.746462 
L 193.338927 210.971077 
L 193.779292 210.971077 
L 193.779292 210.195692 
L 194.017089 210.195692 
L 194.017089 209.420308 
L 194.527912 209.420308 
L 194.527912 208.644923 
L 195.584787 208.644923 
L 195.584787 207.869538 
L 196.262949 207.869538 
L 196.262949 207.094154 
L 196.809001 207.094154 
L 196.809001 206.318769 
L 197.654502 206.318769 
L 197.654502 205.543385 
L 197.795419 205.543385 
L 197.795419 204.768 
L 198.47358 204.768 
L 198.535231 203.217231 
L 199.900362 203.217231 
L 199.900362 202.441846 
L 200.032472 202.441846 
L 200.032472 201.666462 
L 200.640175 201.666462 
L 200.640175 200.891077 
L 200.75467 200.891077 
L 200.772285 199.340308 
L 202.199067 199.340308 
L 202.199067 198.564923 
L 202.850806 198.564923 
L 202.947687 197.014154 
L 203.000531 197.014154 
L 203.000531 196.238769 
L 203.898875 196.238769 
L 203.898875 195.463385 
L 204.268781 195.463385 
L 204.374469 193.912615 
L 205.08786 193.912615 
L 205.167125 192.361846 
L 206.444183 192.361846 
L 206.541064 190.035692 
L 206.928585 190.035692 
L 206.928585 189.260308 
L 207.23684 189.260308 
L 207.23684 188.484923 
L 207.404179 188.484923 
L 207.404179 187.709538 
L 208.663622 187.709538 
L 208.742888 186.158769 
L 209.473893 186.158769 
L 209.570773 184.608 
L 209.623617 184.608 
L 209.623617 183.832615 
L 210.88306 183.832615 
L 210.88306 183.057231 
L 210.997555 183.057231 
L 210.997555 182.281846 
L 211.816634 182.281846 
L 211.816634 181.506462 
L 212.626905 181.506462 
L 212.626905 180.731077 
L 213.181765 180.731077 
L 213.181765 179.955692 
L 213.992036 179.955692 
L 213.992036 179.180308 
L 215.269094 179.180308 
L 215.269094 178.404923 
L 215.647808 178.404923 
L 215.647808 177.629538 
L 216.167438 177.629538 
L 216.167438 176.854154 
L 217.49734 176.854154 
L 217.49734 176.078769 
L 218.237153 176.078769 
L 218.237153 175.303385 
L 218.404491 175.303385 
L 218.404491 174.528 
L 218.730361 174.528 
L 218.730361 173.752615 
L 219.707971 173.752615 
L 219.707971 172.977231 
L 220.641544 172.977231 
L 220.641544 172.201846 
L 220.923378 172.201846 
L 220.923378 171.426462 
L 221.363743 171.426462 
L 221.363743 170.651077 
L 221.874566 170.651077 
L 221.874566 169.875692 
L 222.860983 169.875692 
L 222.860983 169.100308 
L 224.058775 169.100308 
L 224.058775 168.324923 
L 224.446296 168.324923 
L 224.446296 167.549538 
L 225.036385 167.549538 
L 225.036385 166.774154 
L 226.216563 166.774154 
L 226.216563 165.998769 
L 227.247016 165.998769 
L 227.247016 165.223385 
L 227.511235 165.223385 
L 227.511235 164.448 
L 228.436001 164.448 
L 228.436001 163.672615 
L 229.44884 163.672615 
L 229.44884 162.897231 
L 230.699476 162.897231 
L 230.699476 162.121846 
L 231.641857 162.121846 
L 231.641857 161.346462 
L 232.866071 161.346462 
L 232.866071 160.571077 
L 233.905332 160.571077 
L 233.905332 159.795692 
L 235.08551 159.795692 
L 235.08551 159.020308 
L 236.080734 159.020308 
L 236.080734 158.244923 
L 237.296141 158.244923 
L 237.296141 157.469538 
L 238.30898 157.469538 
L 238.30898 156.694154 
L 239.172095 156.694154 
L 239.172095 155.918769 
L 239.506772 155.918769 
L 239.506772 155.143385 
L 240.466768 155.143385 
L 240.466768 153.592615 
L 240.466768 153.592615 
L 241.382727 153.592615 
L 241.382727 152.817231 
L 241.655753 152.817231 
L 241.655753 152.041846 
L 242.201805 152.041846 
L 242.201805 151.266462 
L 242.659784 151.266462 
L 242.659784 150.491077 
L 243.566936 150.491077 
L 243.566936 149.715692 
L 243.839962 149.715692 
L 243.839962 148.940308 
L 243.963264 148.940308 
L 243.963264 148.164923 
L 244.861608 148.164923 
L 244.861608 147.389538 
L 245.733531 147.389538 
L 245.751145 145.838769 
L 246.490958 145.838769 
L 246.490958 145.063385 
L 247.988199 145.063385 
L 247.988199 144.288 
L 249.256449 144.288 
L 249.256449 143.512615 
L 250.06672 143.512615 
L 250.172408 141.961846 
L 251.000294 141.961846 
L 251.000294 141.186462 
L 251.810565 141.186462 
L 251.810565 140.411077 
L 252.339003 140.411077 
L 252.339003 139.635692 
L 252.814597 139.635692 
L 252.814597 138.860308 
L 253.598446 138.860308 
L 253.598446 138.084923 
L 254.558441 138.084923 
L 254.576056 136.534154 
L 255.351098 136.534154 
L 255.351098 135.758769 
L 256.328708 135.758769 
L 256.328708 134.983385 
L 256.733843 134.983385 
L 256.733843 134.208 
L 257.156594 134.208 
L 257.156594 133.432615 
L 258.072552 133.432615 
L 258.072552 132.657231 
L 258.389615 132.657231 
L 258.389615 131.881846 
L 258.909246 131.881846 
L 258.944475 130.331077 
L 259.842819 130.331077 
L 259.842819 129.555692 
L 260.626668 129.555692 
L 260.635476 128.004923 
L 261.146299 128.004923 
L 261.146299 127.229538 
L 261.604278 127.229538 
L 261.604278 126.454154 
L 262.361706 126.454154 
L 262.361706 125.678769 
L 262.872529 125.678769 
L 262.872529 124.903385 
L 263.383352 124.903385 
L 263.383352 123.352615 
L 263.383352 123.352615 
L 264.149587 123.352615 
L 264.149587 122.577231 
L 265.091967 122.577231 
L 265.091967 121.801846 
L 265.902239 121.801846 
L 265.902239 121.026462 
L 266.051963 121.026462 
L 266.051963 120.251077 
L 267.329021 120.251077 
L 267.329021 119.475692 
L 267.672505 119.475692 
L 267.672505 118.700308 
L 267.804615 118.700308 
L 267.804615 117.924923 
L 269.425157 117.924923 
L 269.478001 116.374154 
L 269.574881 116.374154 
L 269.574881 115.598769 
L 270.279465 115.598769 
L 270.279465 114.823385 
L 271.186616 114.823385 
L 271.186616 114.048 
L 271.345148 114.048 
L 271.345148 113.272615 
L 271.635788 113.272615 
L 271.635788 112.497231 
L 272.912846 112.497231 
L 272.912846 111.721846 
L 273.06257 111.721846 
L 273.06257 110.946462 
L 273.397248 110.946462 
L 273.397248 110.171077 
L 273.793576 110.171077 
L 273.793576 109.395692 
L 274.700727 109.395692 
L 274.700727 108.620308 
L 274.824029 108.620308 
L 274.824029 107.844923 
L 276.013014 107.844923 
L 276.013014 107.069538 
L 276.453379 107.069538 
L 276.506223 105.518769 
L 278.021078 105.518769 
L 278.021078 104.743385 
L 278.232453 104.743385 
L 278.232453 103.192615 
L 278.232453 103.192615 
L 278.487865 103.192615 
L 278.487865 102.417231 
L 279.606391 102.417231 
L 279.606391 101.641846 
L 280.205287 101.641846 
L 280.205287 100.866462 
L 280.416662 100.866462 
L 280.416662 100.091077 
L 281.640877 100.091077 
L 281.640877 99.315692 
L 282.398304 99.315692 
L 282.398304 98.540308 
L 282.653716 98.540308 
L 282.715367 96.989538 
L 284.617743 96.989538 
L 284.714623 95.438769 
L 286.801952 95.438769 
L 286.801952 94.663385 
L 287.832406 94.663385 
L 287.832406 93.888 
L 288.994969 93.888 
L 288.994969 93.112615 
L 290.016615 93.112615 
L 290.016615 92.337231 
L 290.923767 92.337231 
L 290.923767 91.561846 
L 291.152756 91.561846 
L 291.152756 90.786462 
L 293.116783 90.786462 
L 293.116783 90.011077 
L 293.328158 90.011077 
L 293.328158 89.235692 
L 294.023935 89.235692 
L 294.023935 88.460308 
L 295.521175 88.460308 
L 295.521175 87.684923 
L 296.199337 87.684923 
L 296.199337 86.909538 
L 297.767036 86.909538 
L 297.767036 86.134154 
L 299.343542 86.134154 
L 299.343542 85.358769 
L 300.004089 85.358769 
L 300.004089 84.583385 
L 302.232335 84.583385 
L 302.232335 83.808 
L 302.470132 83.808 
L 302.470132 83.032615 
L 304.3637 83.032615 
L 304.3637 82.257231 
L 305.596722 82.257231 
L 305.596722 81.481846 
L 306.556717 81.481846 
L 306.556717 80.706462 
L 308.617624 80.706462 
L 308.705697 79.155692 
L 310.84587 79.155692 
L 310.84587 78.380308 
L 311.629719 78.380308 
L 311.629719 77.604923 
L 313.021272 77.604923 
L 313.021272 76.829538 
L 315.187867 76.829538 
L 315.187867 76.054154 
L 317.451342 76.054154 
L 317.451342 75.278769 
L 319.70601 75.278769 
L 319.70601 74.503385 
L 320.348943 74.503385 
L 320.348943 73.728 
L 323.457918 73.728 
L 323.457918 72.952615 
L 326.522857 72.952615 
L 326.522857 72.177231 
L 329.578989 72.177231 
L 329.578989 71.401846 
L 332.63512 71.401846 
L 332.63512 70.626462 
L 361.320484 70.626462 
L 361.320484 69.851077 
L 363.108365 69.851077 
L 363.108365 69.075692 
L 364.843402 69.075692 
L 364.843402 68.300308 
L 366.578439 68.300308 
L 366.578439 67.524923 
L 368.348706 67.524923 
L 368.348706 66.749538 
L 370.145394 66.749538 
L 370.145394 65.974154 
L 371.889239 65.974154 
L 371.889239 65.198769 
L 373.624276 65.198769 
L 373.624276 64.423385 
L 375.412157 64.423385 
L 375.412157 63.648 
L 377.200038 63.648 
L 377.200038 62.872615 
L 378.979112 62.872615 
L 378.979112 62.097231 
L 380.784608 62.097231 
L 380.784608 61.321846 
L 382.563682 61.321846 
L 382.563682 60.546462 
L 384.342755 60.546462 
L 384.342755 59.771077 
L 386.113022 59.771077 
L 386.113022 58.995692 
L 387.90971 58.995692 
L 387.90971 58.220308 
L 389.706399 58.220308 
L 389.706399 57.444923 
L 391.511894 57.444923 
L 391.511894 56.669538 
L 393.264546 56.669538 
L 393.264546 55.894154 
L 395.017198 55.894154 
L 395.017198 55.118769 
L 396.734621 55.118769 
L 396.734621 54.343385 
L 398.487273 54.343385 
L 398.487273 53.568 
L 398.487273 53.568 
" clip-path="url(#p4302a10d52)" style="fill: none; stroke: #ff7f0e; stroke-width: 1.5; stroke-linecap: square"/>
   </g>
   <g id="patch_3">
    <path d="M 57.6 307.584 
L 57.6 41.472 
" style="fill: none; stroke: #000000; stroke-width: 0.8; stroke-linejoin: miter; stroke-linecap: square"/>
   </g>
   <g id="patch_4">
    <path d="M 414.72 307.584 
L 414.72 41.472 
" style="fill: none; stroke: #000000; stroke-width: 0.8; stroke-linejoin: miter; stroke-linecap: square"/>
   </g>
   <g id="patch_5">
    <path d="M 57.6 307.584 
L 414.72 307.584 
" style="fill: none; stroke: #000000; stroke-width: 0.8; stroke-linejoin: miter; stroke-linecap: square"/>
   </g>
   <g id="patch_6">
    <path d="M 57.6 41.472 
L 414.72 41.472 
" style="fill: none; stroke: #000000; stroke-width: 0.8; stroke-linejoin: miter; stroke-linecap: square"/>
   </g>
   <g id="text_15">
    <!-- S1 S103 -->
    <g transform="translate(211.365 35.472) scale(0.12 -0.12)">
     <defs>
      <path id="DejaVuSans-53" d="M 3425 4513 
L 3425 3897 
Q 3066 4069 2747 4153 
Q 2428 4238 2131 4238 
Q 1616 4238 1336 4038 
Q 1056 3838 1056 3469 
Q 1056 3159 1242 3001 
Q 1428 2844 1947 2747 
L 2328 2669 
Q 3034 2534 3370 2195 
Q 3706 1856 3706 1288 
Q 3706 609 3251 259 
Q 2797 -91 1919 -91 
Q 1588 -91 1214 -16 
Q 841 59 441 206 
L 441 856 
Q 825 641 1194 531 
Q 1563 422 1919 422 
Q 2459 422 2753 634 
Q 3047 847 3047 1241 
Q 3047 1584 2836 1778 
Q 2625 1972 2144 2069 
L 1759 2144 
Q 1053 2284 737 2584 
Q 422 2884 422 3419 
Q 422 4038 858 4394 
Q 1294 4750 2059 4750 
Q 2388 4750 2728 4690 
Q 3069 4631 3425 4513 
z
" transform="scale(0.015625)"/>
      <path id="DejaVuSans-20" transform="scale(0.015625)"/>
     </defs>
     <use xlink:href="#DejaVuSans-53"/>
     <use xlink:href="#DejaVuSans-31" x="63.476562"/>
     <use xlink:href="#DejaVuSans-20" x="127.099609"/>
     <use xlink:href="#DejaVuSans-53" x="158.886719"/>
     <use xlink:href="#DejaVuSans-31" x="222.363281"/>
     <use xlink:href="#DejaVuSans-30" x="285.986328"/>
     <use xlink:href="#DejaVuSans-33" x="349.609375"/>
    </g>
   </g>
   <g id="legend_1">
    <g id="patch_7">
     <path d="M 107.001563 304.584 
L 410.52 304.584 
Q 411.72 304.584 411.72 303.384 
L 411.72 286.37025 
Q 411.72 285.17025 410.52 285.17025 
L 107.001563 285.17025 
Q 105.801563 285.17025 105.801563 286.37025 
L 105.801563 303.384 
Q 105.801563 304.584 107.001563 304.584 
z
" style="fill: #ffffff; opacity: 0.8; stroke: #cccccc; stroke-linejoin: miter"/>
    </g>
    <g id="line2d_17">
     <path d="M 108.201563 290.029312 
L 114.201563 290.029312 
L 120.201563 290.029312 
" style="fill: none; stroke: #1f77b4; stroke-width: 1.5; stroke-linecap: square"/>
    </g>
    <g id="text_16">
     <!-- Execution time between S1 S103 (xx1xx1xx1xx1xx1xx1xx1xx1xx1) -->
     <g transform="translate(125.001563 292.129312) scale(0.06 -0.06)">
      <defs>
       <path id="DejaVuSans-45" d="M 628 4666 
L 3578 4666 
L 3578 4134 
L 1259 4134 
L 1259 2753 
L 3481 2753 
L 3481 2222 
L 1259 2222 
L 1259 531 
L 3634 531 
L 3634 0 
L 628 0 
L 628 4666 
z
" transform="scale(0.015625)"/>
       <path id="DejaVuSans-78" d="M 3513 3500 
L 2247 1797 
L 3578 0 
L 2900 0 
L 1881 1375 
L 863 0 
L 184 0 
L 1544 1831 
L 300 3500 
L 978 3500 
L 1906 2253 
L 2834 3500 
L 3513 3500 
z
" transform="scale(0.015625)"/>
       <path id="DejaVuSans-65" d="M 3597 1894 
L 3597 1613 
L 953 1613 
Q 991 1019 1311 708 
Q 1631 397 2203 397 
Q 2534 397 2845 478 
Q 3156 559 3463 722 
L 3463 178 
Q 3153 47 2828 -22 
Q 2503 -91 2169 -91 
Q 1331 -91 842 396 
Q 353 884 353 1716 
Q 353 2575 817 3079 
Q 1281 3584 2069 3584 
Q 2775 3584 3186 3129 
Q 3597 2675 3597 1894 
z
M 3022 2063 
Q 3016 2534 2758 2815 
Q 2500 3097 2075 3097 
Q 1594 3097 1305 2825 
Q 1016 2553 972 2059 
L 3022 2063 
z
" transform="scale(0.015625)"/>
       <path id="DejaVuSans-63" d="M 3122 3366 
L 3122 2828 
Q 2878 2963 2633 3030 
Q 2388 3097 2138 3097 
Q 1578 3097 1268 2742 
Q 959 2388 959 1747 
Q 959 1106 1268 751 
Q 1578 397 2138 397 
Q 2388 397 2633 464 
Q 2878 531 3122 666 
L 3122 134 
Q 2881 22 2623 -34 
Q 2366 -91 2075 -91 
Q 1284 -91 818 406 
Q 353 903 353 1747 
Q 353 2603 823 3093 
Q 1294 3584 2113 3584 
Q 2378 3584 2631 3529 
Q 2884 3475 3122 3366 
z
" transform="scale(0.015625)"/>
       <path id="DejaVuSans-75" d="M 544 1381 
L 544 3500 
L 1119 3500 
L 1119 1403 
Q 1119 906 1312 657 
Q 1506 409 1894 409 
Q 2359 409 2629 706 
Q 2900 1003 2900 1516 
L 2900 3500 
L 3475 3500 
L 3475 0 
L 2900 0 
L 2900 538 
Q 2691 219 2414 64 
Q 2138 -91 1772 -91 
Q 1169 -91 856 284 
Q 544 659 544 1381 
z
M 1991 3584 
L 1991 3584 
z
" transform="scale(0.015625)"/>
       <path id="DejaVuSans-74" d="M 1172 4494 
L 1172 3500 
L 2356 3500 
L 2356 3053 
L 1172 3053 
L 1172 1153 
Q 1172 725 1289 603 
Q 1406 481 1766 481 
L 2356 481 
L 2356 0 
L 1766 0 
Q 1100 0 847 248 
Q 594 497 594 1153 
L 594 3053 
L 172 3053 
L 172 3500 
L 594 3500 
L 594 4494 
L 1172 4494 
z
" transform="scale(0.015625)"/>
       <path id="DejaVuSans-69" d="M 603 3500 
L 1178 3500 
L 1178 0 
L 603 0 
L 603 3500 
z
M 603 4863 
L 1178 4863 
L 1178 4134 
L 603 4134 
L 603 4863 
z
" transform="scale(0.015625)"/>
       <path id="DejaVuSans-6f" d="M 1959 3097 
Q 1497 3097 1228 2736 
Q 959 2375 959 1747 
Q 959 1119 1226 758 
Q 1494 397 1959 397 
Q 2419 397 2687 759 
Q 2956 1122 2956 1747 
Q 2956 2369 2687 2733 
Q 2419 3097 1959 3097 
z
M 1959 3584 
Q 2709 3584 3137 3096 
Q 3566 2609 3566 1747 
Q 3566 888 3137 398 
Q 2709 -91 1959 -91 
Q 1206 -91 779 398 
Q 353 888 353 1747 
Q 353 2609 779 3096 
Q 1206 3584 1959 3584 
z
" transform="scale(0.015625)"/>
       <path id="DejaVuSans-6e" d="M 3513 2113 
L 3513 0 
L 2938 0 
L 2938 2094 
Q 2938 2591 2744 2837 
Q 2550 3084 2163 3084 
Q 1697 3084 1428 2787 
Q 1159 2491 1159 1978 
L 1159 0 
L 581 0 
L 581 3500 
L 1159 3500 
L 1159 2956 
Q 1366 3272 1645 3428 
Q 1925 3584 2291 3584 
Q 2894 3584 3203 3211 
Q 3513 2838 3513 2113 
z
" transform="scale(0.015625)"/>
       <path id="DejaVuSans-6d" d="M 3328 2828 
Q 3544 3216 3844 3400 
Q 4144 3584 4550 3584 
Q 5097 3584 5394 3201 
Q 5691 2819 5691 2113 
L 5691 0 
L 5113 0 
L 5113 2094 
Q 5113 2597 4934 2840 
Q 4756 3084 4391 3084 
Q 3944 3084 3684 2787 
Q 3425 2491 3425 1978 
L 3425 0 
L 2847 0 
L 2847 2094 
Q 2847 2600 2669 2842 
Q 2491 3084 2119 3084 
Q 1678 3084 1418 2786 
Q 1159 2488 1159 1978 
L 1159 0 
L 581 0 
L 581 3500 
L 1159 3500 
L 1159 2956 
Q 1356 3278 1631 3431 
Q 1906 3584 2284 3584 
Q 2666 3584 2933 3390 
Q 3200 3197 3328 2828 
z
" transform="scale(0.015625)"/>
       <path id="DejaVuSans-62" d="M 3116 1747 
Q 3116 2381 2855 2742 
Q 2594 3103 2138 3103 
Q 1681 3103 1420 2742 
Q 1159 2381 1159 1747 
Q 1159 1113 1420 752 
Q 1681 391 2138 391 
Q 2594 391 2855 752 
Q 3116 1113 3116 1747 
z
M 1159 2969 
Q 1341 3281 1617 3432 
Q 1894 3584 2278 3584 
Q 2916 3584 3314 3078 
Q 3713 2572 3713 1747 
Q 3713 922 3314 415 
Q 2916 -91 2278 -91 
Q 1894 -91 1617 61 
Q 1341 213 1159 525 
L 1159 0 
L 581 0 
L 581 4863 
L 1159 4863 
L 1159 2969 
z
" transform="scale(0.015625)"/>
       <path id="DejaVuSans-77" d="M 269 3500 
L 844 3500 
L 1563 769 
L 2278 3500 
L 2956 3500 
L 3675 769 
L 4391 3500 
L 4966 3500 
L 4050 0 
L 3372 0 
L 2619 2869 
L 1863 0 
L 1184 0 
L 269 3500 
z
" transform="scale(0.015625)"/>
       <path id="DejaVuSans-28" d="M 1984 4856 
Q 1566 4138 1362 3434 
Q 1159 2731 1159 2009 
Q 1159 1288 1364 580 
Q 1569 -128 1984 -844 
L 1484 -844 
Q 1016 -109 783 600 
Q 550 1309 550 2009 
Q 550 2706 781 3412 
Q 1013 4119 1484 4856 
L 1984 4856 
z
" transform="scale(0.015625)"/>
       <path id="DejaVuSans-29" d="M 513 4856 
L 1013 4856 
Q 1481 4119 1714 3412 
Q 1947 2706 1947 2009 
Q 1947 1309 1714 600 
Q 1481 -109 1013 -844 
L 513 -844 
Q 928 -128 1133 580 
Q 1338 1288 1338 2009 
Q 1338 2731 1133 3434 
Q 928 4138 513 4856 
z
" transform="scale(0.015625)"/>
      </defs>
      <use xlink:href="#DejaVuSans-45"/>
      <use xlink:href="#DejaVuSans-78" x="63.183594"/>
      <use xlink:href="#DejaVuSans-65" x="119.238281"/>
      <use xlink:href="#DejaVuSans-63" x="180.761719"/>
      <use xlink:href="#DejaVuSans-75" x="235.742188"/>
      <use xlink:href="#DejaVuSans-74" x="299.121094"/>
      <use xlink:href="#DejaVuSans-69" x="338.330078"/>
      <use xlink:href="#DejaVuSans-6f" x="366.113281"/>
      <use xlink:href="#DejaVuSans-6e" x="427.294922"/>
      <use xlink:href="#DejaVuSans-20" x="490.673828"/>
      <use xlink:href="#DejaVuSans-74" x="522.460938"/>
      <use xlink:href="#DejaVuSans-69" x="561.669922"/>
      <use xlink:href="#DejaVuSans-6d" x="589.453125"/>
      <use xlink:href="#DejaVuSans-65" x="686.865234"/>
      <use xlink:href="#DejaVuSans-20" x="748.388672"/>
      <use xlink:href="#DejaVuSans-62" x="780.175781"/>
      <use xlink:href="#DejaVuSans-65" x="843.652344"/>
      <use xlink:href="#DejaVuSans-74" x="905.175781"/>
      <use xlink:href="#DejaVuSans-77" x="944.384766"/>
      <use xlink:href="#DejaVuSans-65" x="1026.171875"/>
      <use xlink:href="#DejaVuSans-65" x="1087.695312"/>
      <use xlink:href="#DejaVuSans-6e" x="1149.21875"/>
      <use xlink:href="#DejaVuSans-20" x="1212.597656"/>
      <use xlink:href="#DejaVuSans-53" x="1244.384766"/>
      <use xlink:href="#DejaVuSans-31" x="1307.861328"/>
      <use xlink:href="#DejaVuSans-20" x="1371.484375"/>
      <use xlink:href="#DejaVuSans-53" x="1403.271484"/>
      <use xlink:href="#DejaVuSans-31" x="1466.748047"/>
      <use xlink:href="#DejaVuSans-30" x="1530.371094"/>
      <use xlink:href="#DejaVuSans-33" x="1593.994141"/>
      <use xlink:href="#DejaVuSans-20" x="1657.617188"/>
      <use xlink:href="#DejaVuSans-28" x="1689.404297"/>
      <use xlink:href="#DejaVuSans-78" x="1728.417969"/>
      <use xlink:href="#DejaVuSans-78" x="1787.597656"/>
      <use xlink:href="#DejaVuSans-31" x="1846.777344"/>
      <use xlink:href="#DejaVuSans-78" x="1910.400391"/>
      <use xlink:href="#DejaVuSans-78" x="1969.580078"/>
      <use xlink:href="#DejaVuSans-31" x="2028.759766"/>
      <use xlink:href="#DejaVuSans-78" x="2092.382812"/>
      <use xlink:href="#DejaVuSans-78" x="2151.5625"/>
      <use xlink:href="#DejaVuSans-31" x="2210.742188"/>
      <use xlink:href="#DejaVuSans-78" x="2274.365234"/>
      <use xlink:href="#DejaVuSans-78" x="2333.544922"/>
      <use xlink:href="#DejaVuSans-31" x="2392.724609"/>
      <use xlink:href="#DejaVuSans-78" x="2456.347656"/>
      <use xlink:href="#DejaVuSans-78" x="2515.527344"/>
      <use xlink:href="#DejaVuSans-31" x="2574.707031"/>
      <use xlink:href="#DejaVuSans-78" x="2638.330078"/>
      <use xlink:href="#DejaVuSans-78" x="2697.509766"/>
      <use xlink:href="#DejaVuSans-31" x="2756.689453"/>
      <use xlink:href="#DejaVuSans-78" x="2820.3125"/>
      <use xlink:href="#DejaVuSans-78" x="2879.492188"/>
      <use xlink:href="#DejaVuSans-31" x="2938.671875"/>
      <use xlink:href="#DejaVuSans-78" x="3002.294922"/>
      <use xlink:href="#DejaVuSans-78" x="3061.474609"/>
      <use xlink:href="#DejaVuSans-31" x="3120.654297"/>
      <use xlink:href="#DejaVuSans-78" x="3184.277344"/>
      <use xlink:href="#DejaVuSans-78" x="3243.457031"/>
      <use xlink:href="#DejaVuSans-31" x="3302.636719"/>
      <use xlink:href="#DejaVuSans-29" x="3366.259766"/>
     </g>
    </g>
    <g id="line2d_18">
     <path d="M 108.201563 298.836187 
L 114.201563 298.836187 
L 120.201563 298.836187 
" style="fill: none; stroke: #ff7f0e; stroke-width: 1.5; stroke-linecap: square"/>
    </g>
    <g id="text_17">
     <!-- Execution time between S1 S103 (xx1xx1xx2xx0yyy66xx0yyy66xx1yyy5xx0yyy3xx1xx1yyy5) -->
     <g transform="translate(125.001563 300.936187) scale(0.06 -0.06)">
      <defs>
       <path id="DejaVuSans-79" d="M 2059 -325 
Q 1816 -950 1584 -1140 
Q 1353 -1331 966 -1331 
L 506 -1331 
L 506 -850 
L 844 -850 
Q 1081 -850 1212 -737 
Q 1344 -625 1503 -206 
L 1606 56 
L 191 3500 
L 800 3500 
L 1894 763 
L 2988 3500 
L 3597 3500 
L 2059 -325 
z
" transform="scale(0.015625)"/>
      </defs>
      <use xlink:href="#DejaVuSans-45"/>
      <use xlink:href="#DejaVuSans-78" x="63.183594"/>
      <use xlink:href="#DejaVuSans-65" x="119.238281"/>
      <use xlink:href="#DejaVuSans-63" x="180.761719"/>
      <use xlink:href="#DejaVuSans-75" x="235.742188"/>
      <use xlink:href="#DejaVuSans-74" x="299.121094"/>
      <use xlink:href="#DejaVuSans-69" x="338.330078"/>
      <use xlink:href="#DejaVuSans-6f" x="366.113281"/>
      <use xlink:href="#DejaVuSans-6e" x="427.294922"/>
      <use xlink:href="#DejaVuSans-20" x="490.673828"/>
      <use xlink:href="#DejaVuSans-74" x="522.460938"/>
      <use xlink:href="#DejaVuSans-69" x="561.669922"/>
      <use xlink:href="#DejaVuSans-6d" x="589.453125"/>
      <use xlink:href="#DejaVuSans-65" x="686.865234"/>
      <use xlink:href="#DejaVuSans-20" x="748.388672"/>
      <use xlink:href="#DejaVuSans-62" x="780.175781"/>
      <use xlink:href="#DejaVuSans-65" x="843.652344"/>
      <use xlink:href="#DejaVuSans-74" x="905.175781"/>
      <use xlink:href="#DejaVuSans-77" x="944.384766"/>
      <use xlink:href="#DejaVuSans-65" x="1026.171875"/>
      <use xlink:href="#DejaVuSans-65" x="1087.695312"/>
      <use xlink:href="#DejaVuSans-6e" x="1149.21875"/>
      <use xlink:href="#DejaVuSans-20" x="1212.597656"/>
      <use xlink:href="#DejaVuSans-53" x="1244.384766"/>
      <use xlink:href="#DejaVuSans-31" x="1307.861328"/>
      <use xlink:href="#DejaVuSans-20" x="1371.484375"/>
      <use xlink:href="#DejaVuSans-53" x="1403.271484"/>
      <use xlink:href="#DejaVuSans-31" x="1466.748047"/>
      <use xlink:href="#DejaVuSans-30" x="1530.371094"/>
      <use xlink:href="#DejaVuSans-33" x="1593.994141"/>
      <use xlink:href="#DejaVuSans-20" x="1657.617188"/>
      <use xlink:href="#DejaVuSans-28" x="1689.404297"/>
      <use xlink:href="#DejaVuSans-78" x="1728.417969"/>
      <use xlink:href="#DejaVuSans-78" x="1787.597656"/>
      <use xlink:href="#DejaVuSans-31" x="1846.777344"/>
      <use xlink:href="#DejaVuSans-78" x="1910.400391"/>
      <use xlink:href="#DejaVuSans-78" x="1969.580078"/>
      <use xlink:href="#DejaVuSans-31" x="2028.759766"/>
      <use xlink:href="#DejaVuSans-78" x="2092.382812"/>
      <use xlink:href="#DejaVuSans-78" x="2151.5625"/>
      <use xlink:href="#DejaVuSans-32" x="2210.742188"/>
      <use xlink:href="#DejaVuSans-78" x="2274.365234"/>
      <use xlink:href="#DejaVuSans-78" x="2333.544922"/>
      <use xlink:href="#DejaVuSans-30" x="2392.724609"/>
      <use xlink:href="#DejaVuSans-79" x="2456.347656"/>
      <use xlink:href="#DejaVuSans-79" x="2515.527344"/>
      <use xlink:href="#DejaVuSans-79" x="2574.707031"/>
      <use xlink:href="#DejaVuSans-36" x="2633.886719"/>
      <use xlink:href="#DejaVuSans-36" x="2697.509766"/>
      <use xlink:href="#DejaVuSans-78" x="2761.132812"/>
      <use xlink:href="#DejaVuSans-78" x="2820.3125"/>
      <use xlink:href="#DejaVuSans-30" x="2879.492188"/>
      <use xlink:href="#DejaVuSans-79" x="2943.115234"/>
      <use xlink:href="#DejaVuSans-79" x="3002.294922"/>
      <use xlink:href="#DejaVuSans-79" x="3061.474609"/>
      <use xlink:href="#DejaVuSans-36" x="3120.654297"/>
      <use xlink:href="#DejaVuSans-36" x="3184.277344"/>
      <use xlink:href="#DejaVuSans-78" x="3247.900391"/>
      <use xlink:href="#DejaVuSans-78" x="3307.080078"/>
      <use xlink:href="#DejaVuSans-31" x="3366.259766"/>
      <use xlink:href="#DejaVuSans-79" x="3429.882812"/>
      <use xlink:href="#DejaVuSans-79" x="3489.0625"/>
      <use xlink:href="#DejaVuSans-79" x="3548.242188"/>
      <use xlink:href="#DejaVuSans-35" x="3607.421875"/>
      <use xlink:href="#DejaVuSans-78" x="3671.044922"/>
      <use xlink:href="#DejaVuSans-78" x="3730.224609"/>
      <use xlink:href="#DejaVuSans-30" x="3789.404297"/>
      <use xlink:href="#DejaVuSans-79" x="3853.027344"/>
      <use xlink:href="#DejaVuSans-79" x="3912.207031"/>
      <use xlink:href="#DejaVuSans-79" x="3971.386719"/>
      <use xlink:href="#DejaVuSans-33" x="4030.566406"/>
      <use xlink:href="#DejaVuSans-78" x="4094.189453"/>
      <use xlink:href="#DejaVuSans-78" x="4153.369141"/>
      <use xlink:href="#DejaVuSans-31" x="4212.548828"/>
      <use xlink:href="#DejaVuSans-78" x="4276.171875"/>
      <use xlink:href="#DejaVuSans-78" x="4335.351562"/>
      <use xlink:href="#DejaVuSans-31" x="4394.53125"/>
      <use xlink:href="#DejaVuSans-79" x="4458.154297"/>
      <use xlink:href="#DejaVuSans-79" x="4517.333984"/>
      <use xlink:href="#DejaVuSans-79" x="4576.513672"/>
      <use xlink:href="#DejaVuSans-35" x="4635.693359"/>
      <use xlink:href="#DejaVuSans-29" x="4699.316406"/>
     </g>
    </g>
   </g>
  </g>
 </g>
 <defs>
  <clipPath id="p4302a10d52">
   <rect x="57.6" y="41.472" width="357.12" height="266.112"/>
  </clipPath>
 </defs>
</svg>
