<?xml version="1.0" encoding="utf-8" standalone="no"?>
<!DOCTYPE svg PUBLIC "-//W3C//DTD SVG 1.1//EN"
  "http://www.w3.org/Graphics/SVG/1.1/DTD/svg11.dtd">
<svg xmlns:xlink="http://www.w3.org/1999/xlink" width="460.8pt" height="345.6pt" viewBox="0 0 460.8 345.6" xmlns="http://www.w3.org/2000/svg" version="1.1">
 <metadata>
  <rdf:RDF xmlns:dc="http://purl.org/dc/elements/1.1/" xmlns:cc="http://creativecommons.org/ns#" xmlns:rdf="http://www.w3.org/1999/02/22-rdf-syntax-ns#">
   <cc:Work>
    <dc:type rdf:resource="http://purl.org/dc/dcmitype/StillImage"/>
    <dc:date>2024-03-08T12:30:05.506921</dc:date>
    <dc:format>image/svg+xml</dc:format>
    <dc:creator>
     <cc:Agent>
      <dc:title>Matplotlib v3.8.2, https://matplotlib.org/</dc:title>
     </cc:Agent>
    </dc:creator>
   </cc:Work>
  </rdf:RDF>
 </metadata>
 <defs>
  <style type="text/css">*{stroke-linejoin: round; stroke-linecap: butt}</style>
 </defs>
 <g id="figure_1">
  <g id="patch_1">
   <path d="M 0 345.6 
L 460.8 345.6 
L 460.8 0 
L 0 0 
z
" style="fill: #ffffff"/>
  </g>
  <g id="axes_1">
   <g id="patch_2">
    <path d="M 57.6 307.584 
L 414.72 307.584 
L 414.72 41.472 
L 57.6 41.472 
z
" style="fill: #ffffff"/>
   </g>
   <g id="matplotlib.axis_1">
    <g id="xtick_1">
     <g id="line2d_1">
      <defs>
       <path id="mda7d0a1694" d="M 0 0 
L 0 3.5 
" style="stroke: #000000; stroke-width: 0.8"/>
      </defs>
      <g>
       <use xlink:href="#mda7d0a1694" x="73.817391" y="307.584" style="stroke: #000000; stroke-width: 0.8"/>
      </g>
     </g>
     <g id="text_1">
      <!-- 0.0 -->
      <g transform="translate(65.865828 322.182437) scale(0.1 -0.1)">
       <defs>
        <path id="DejaVuSans-30" d="M 2034 4250 
Q 1547 4250 1301 3770 
Q 1056 3291 1056 2328 
Q 1056 1369 1301 889 
Q 1547 409 2034 409 
Q 2525 409 2770 889 
Q 3016 1369 3016 2328 
Q 3016 3291 2770 3770 
Q 2525 4250 2034 4250 
z
M 2034 4750 
Q 2819 4750 3233 4129 
Q 3647 3509 3647 2328 
Q 3647 1150 3233 529 
Q 2819 -91 2034 -91 
Q 1250 -91 836 529 
Q 422 1150 422 2328 
Q 422 3509 836 4129 
Q 1250 4750 2034 4750 
z
" transform="scale(0.015625)"/>
        <path id="DejaVuSans-2e" d="M 684 794 
L 1344 794 
L 1344 0 
L 684 0 
L 684 794 
z
" transform="scale(0.015625)"/>
       </defs>
       <use xlink:href="#DejaVuSans-30"/>
       <use xlink:href="#DejaVuSans-2e" x="63.623047"/>
       <use xlink:href="#DejaVuSans-30" x="95.410156"/>
      </g>
     </g>
    </g>
    <g id="xtick_2">
     <g id="line2d_2">
      <g>
       <use xlink:href="#mda7d0a1694" x="118.924213" y="307.584" style="stroke: #000000; stroke-width: 0.8"/>
      </g>
     </g>
     <g id="text_2">
      <!-- 0.5 -->
      <g transform="translate(110.97265 322.182437) scale(0.1 -0.1)">
       <defs>
        <path id="DejaVuSans-35" d="M 691 4666 
L 3169 4666 
L 3169 4134 
L 1269 4134 
L 1269 2991 
Q 1406 3038 1543 3061 
Q 1681 3084 1819 3084 
Q 2600 3084 3056 2656 
Q 3513 2228 3513 1497 
Q 3513 744 3044 326 
Q 2575 -91 1722 -91 
Q 1428 -91 1123 -41 
Q 819 9 494 109 
L 494 744 
Q 775 591 1075 516 
Q 1375 441 1709 441 
Q 2250 441 2565 725 
Q 2881 1009 2881 1497 
Q 2881 1984 2565 2268 
Q 2250 2553 1709 2553 
Q 1456 2553 1204 2497 
Q 953 2441 691 2322 
L 691 4666 
z
" transform="scale(0.015625)"/>
       </defs>
       <use xlink:href="#DejaVuSans-30"/>
       <use xlink:href="#DejaVuSans-2e" x="63.623047"/>
       <use xlink:href="#DejaVuSans-35" x="95.410156"/>
      </g>
     </g>
    </g>
    <g id="xtick_3">
     <g id="line2d_3">
      <g>
       <use xlink:href="#mda7d0a1694" x="164.031035" y="307.584" style="stroke: #000000; stroke-width: 0.8"/>
      </g>
     </g>
     <g id="text_3">
      <!-- 1.0 -->
      <g transform="translate(156.079472 322.182437) scale(0.1 -0.1)">
       <defs>
        <path id="DejaVuSans-31" d="M 794 531 
L 1825 531 
L 1825 4091 
L 703 3866 
L 703 4441 
L 1819 4666 
L 2450 4666 
L 2450 531 
L 3481 531 
L 3481 0 
L 794 0 
L 794 531 
z
" transform="scale(0.015625)"/>
       </defs>
       <use xlink:href="#DejaVuSans-31"/>
       <use xlink:href="#DejaVuSans-2e" x="63.623047"/>
       <use xlink:href="#DejaVuSans-30" x="95.410156"/>
      </g>
     </g>
    </g>
    <g id="xtick_4">
     <g id="line2d_4">
      <g>
       <use xlink:href="#mda7d0a1694" x="209.137856" y="307.584" style="stroke: #000000; stroke-width: 0.8"/>
      </g>
     </g>
     <g id="text_4">
      <!-- 1.5 -->
      <g transform="translate(201.186294 322.182437) scale(0.1 -0.1)">
       <use xlink:href="#DejaVuSans-31"/>
       <use xlink:href="#DejaVuSans-2e" x="63.623047"/>
       <use xlink:href="#DejaVuSans-35" x="95.410156"/>
      </g>
     </g>
    </g>
    <g id="xtick_5">
     <g id="line2d_5">
      <g>
       <use xlink:href="#mda7d0a1694" x="254.244678" y="307.584" style="stroke: #000000; stroke-width: 0.8"/>
      </g>
     </g>
     <g id="text_5">
      <!-- 2.0 -->
      <g transform="translate(246.293116 322.182437) scale(0.1 -0.1)">
       <defs>
        <path id="DejaVuSans-32" d="M 1228 531 
L 3431 531 
L 3431 0 
L 469 0 
L 469 531 
Q 828 903 1448 1529 
Q 2069 2156 2228 2338 
Q 2531 2678 2651 2914 
Q 2772 3150 2772 3378 
Q 2772 3750 2511 3984 
Q 2250 4219 1831 4219 
Q 1534 4219 1204 4116 
Q 875 4013 500 3803 
L 500 4441 
Q 881 4594 1212 4672 
Q 1544 4750 1819 4750 
Q 2544 4750 2975 4387 
Q 3406 4025 3406 3419 
Q 3406 3131 3298 2873 
Q 3191 2616 2906 2266 
Q 2828 2175 2409 1742 
Q 1991 1309 1228 531 
z
" transform="scale(0.015625)"/>
       </defs>
       <use xlink:href="#DejaVuSans-32"/>
       <use xlink:href="#DejaVuSans-2e" x="63.623047"/>
       <use xlink:href="#DejaVuSans-30" x="95.410156"/>
      </g>
     </g>
    </g>
    <g id="xtick_6">
     <g id="line2d_6">
      <g>
       <use xlink:href="#mda7d0a1694" x="299.3515" y="307.584" style="stroke: #000000; stroke-width: 0.8"/>
      </g>
     </g>
     <g id="text_6">
      <!-- 2.5 -->
      <g transform="translate(291.399937 322.182437) scale(0.1 -0.1)">
       <use xlink:href="#DejaVuSans-32"/>
       <use xlink:href="#DejaVuSans-2e" x="63.623047"/>
       <use xlink:href="#DejaVuSans-35" x="95.410156"/>
      </g>
     </g>
    </g>
    <g id="xtick_7">
     <g id="line2d_7">
      <g>
       <use xlink:href="#mda7d0a1694" x="344.458322" y="307.584" style="stroke: #000000; stroke-width: 0.8"/>
      </g>
     </g>
     <g id="text_7">
      <!-- 3.0 -->
      <g transform="translate(336.506759 322.182437) scale(0.1 -0.1)">
       <defs>
        <path id="DejaVuSans-33" d="M 2597 2516 
Q 3050 2419 3304 2112 
Q 3559 1806 3559 1356 
Q 3559 666 3084 287 
Q 2609 -91 1734 -91 
Q 1441 -91 1130 -33 
Q 819 25 488 141 
L 488 750 
Q 750 597 1062 519 
Q 1375 441 1716 441 
Q 2309 441 2620 675 
Q 2931 909 2931 1356 
Q 2931 1769 2642 2001 
Q 2353 2234 1838 2234 
L 1294 2234 
L 1294 2753 
L 1863 2753 
Q 2328 2753 2575 2939 
Q 2822 3125 2822 3475 
Q 2822 3834 2567 4026 
Q 2313 4219 1838 4219 
Q 1578 4219 1281 4162 
Q 984 4106 628 3988 
L 628 4550 
Q 988 4650 1302 4700 
Q 1616 4750 1894 4750 
Q 2613 4750 3031 4423 
Q 3450 4097 3450 3541 
Q 3450 3153 3228 2886 
Q 3006 2619 2597 2516 
z
" transform="scale(0.015625)"/>
       </defs>
       <use xlink:href="#DejaVuSans-33"/>
       <use xlink:href="#DejaVuSans-2e" x="63.623047"/>
       <use xlink:href="#DejaVuSans-30" x="95.410156"/>
      </g>
     </g>
    </g>
    <g id="xtick_8">
     <g id="line2d_8">
      <g>
       <use xlink:href="#mda7d0a1694" x="389.565143" y="307.584" style="stroke: #000000; stroke-width: 0.8"/>
      </g>
     </g>
     <g id="text_8">
      <!-- 3.5 -->
      <g transform="translate(381.613581 322.182437) scale(0.1 -0.1)">
       <use xlink:href="#DejaVuSans-33"/>
       <use xlink:href="#DejaVuSans-2e" x="63.623047"/>
       <use xlink:href="#DejaVuSans-35" x="95.410156"/>
      </g>
     </g>
    </g>
    <g id="text_9">
     <!-- 1e6 -->
     <g transform="translate(395.841875 334.860562) scale(0.1 -0.1)">
      <defs>
       <path id="DejaVuSans-65" d="M 3597 1894 
L 3597 1613 
L 953 1613 
Q 991 1019 1311 708 
Q 1631 397 2203 397 
Q 2534 397 2845 478 
Q 3156 559 3463 722 
L 3463 178 
Q 3153 47 2828 -22 
Q 2503 -91 2169 -91 
Q 1331 -91 842 396 
Q 353 884 353 1716 
Q 353 2575 817 3079 
Q 1281 3584 2069 3584 
Q 2775 3584 3186 3129 
Q 3597 2675 3597 1894 
z
M 3022 2063 
Q 3016 2534 2758 2815 
Q 2500 3097 2075 3097 
Q 1594 3097 1305 2825 
Q 1016 2553 972 2059 
L 3022 2063 
z
" transform="scale(0.015625)"/>
       <path id="DejaVuSans-36" d="M 2113 2584 
Q 1688 2584 1439 2293 
Q 1191 2003 1191 1497 
Q 1191 994 1439 701 
Q 1688 409 2113 409 
Q 2538 409 2786 701 
Q 3034 994 3034 1497 
Q 3034 2003 2786 2293 
Q 2538 2584 2113 2584 
z
M 3366 4563 
L 3366 3988 
Q 3128 4100 2886 4159 
Q 2644 4219 2406 4219 
Q 1781 4219 1451 3797 
Q 1122 3375 1075 2522 
Q 1259 2794 1537 2939 
Q 1816 3084 2150 3084 
Q 2853 3084 3261 2657 
Q 3669 2231 3669 1497 
Q 3669 778 3244 343 
Q 2819 -91 2113 -91 
Q 1303 -91 875 529 
Q 447 1150 447 2328 
Q 447 3434 972 4092 
Q 1497 4750 2381 4750 
Q 2619 4750 2861 4703 
Q 3103 4656 3366 4563 
z
" transform="scale(0.015625)"/>
      </defs>
      <use xlink:href="#DejaVuSans-31"/>
      <use xlink:href="#DejaVuSans-65" x="63.623047"/>
      <use xlink:href="#DejaVuSans-36" x="125.146484"/>
     </g>
    </g>
   </g>
   <g id="matplotlib.axis_2">
    <g id="ytick_1">
     <g id="line2d_9">
      <defs>
       <path id="mb75b5ec8f8" d="M 0 0 
L -3.5 0 
" style="stroke: #000000; stroke-width: 0.8"/>
      </defs>
      <g>
       <use xlink:href="#mb75b5ec8f8" x="57.6" y="295.488" style="stroke: #000000; stroke-width: 0.8"/>
      </g>
     </g>
     <g id="text_10">
      <!-- 0 -->
      <g transform="translate(44.2375 299.287219) scale(0.1 -0.1)">
       <use xlink:href="#DejaVuSans-30"/>
      </g>
     </g>
    </g>
    <g id="ytick_2">
     <g id="line2d_10">
      <g>
       <use xlink:href="#mb75b5ec8f8" x="57.6" y="240.506182" style="stroke: #000000; stroke-width: 0.8"/>
      </g>
     </g>
     <g id="text_11">
      <!-- 5 -->
      <g transform="translate(44.2375 244.305401) scale(0.1 -0.1)">
       <use xlink:href="#DejaVuSans-35"/>
      </g>
     </g>
    </g>
    <g id="ytick_3">
     <g id="line2d_11">
      <g>
       <use xlink:href="#mb75b5ec8f8" x="57.6" y="185.524364" style="stroke: #000000; stroke-width: 0.8"/>
      </g>
     </g>
     <g id="text_12">
      <!-- 10 -->
      <g transform="translate(37.875 189.323582) scale(0.1 -0.1)">
       <use xlink:href="#DejaVuSans-31"/>
       <use xlink:href="#DejaVuSans-30" x="63.623047"/>
      </g>
     </g>
    </g>
    <g id="ytick_4">
     <g id="line2d_12">
      <g>
       <use xlink:href="#mb75b5ec8f8" x="57.6" y="130.542545" style="stroke: #000000; stroke-width: 0.8"/>
      </g>
     </g>
     <g id="text_13">
      <!-- 15 -->
      <g transform="translate(37.875 134.341764) scale(0.1 -0.1)">
       <use xlink:href="#DejaVuSans-31"/>
       <use xlink:href="#DejaVuSans-35" x="63.623047"/>
      </g>
     </g>
    </g>
    <g id="ytick_5">
     <g id="line2d_13">
      <g>
       <use xlink:href="#mb75b5ec8f8" x="57.6" y="75.560727" style="stroke: #000000; stroke-width: 0.8"/>
      </g>
     </g>
     <g id="text_14">
      <!-- 20 -->
      <g transform="translate(37.875 79.359946) scale(0.1 -0.1)">
       <use xlink:href="#DejaVuSans-32"/>
       <use xlink:href="#DejaVuSans-30" x="63.623047"/>
      </g>
     </g>
    </g>
   </g>
   <g id="line2d_14">
    <path d="M 73.832727 284.491636 
L 74.103368 295.488 
L 74.148475 284.491636 
L 74.418214 295.488 
L 74.462419 284.491636 
L 74.732157 295.488 
L 74.777264 284.491636 
L 75.047003 295.488 
L 75.097523 284.491636 
L 75.368163 295.488 
L 75.412368 284.491636 
L 75.683009 295.488 
L 75.726312 284.491636 
L 75.99605 295.488 
L 76.039353 284.491636 
L 76.309994 295.488 
L 76.359611 284.491636 
L 76.630252 295.488 
L 76.678066 284.491636 
L 76.948707 295.488 
L 76.993813 284.491636 
L 77.264454 295.488 
L 77.310463 284.491636 
L 77.581104 295.488 
L 77.62982 284.491636 
L 77.899558 295.488 
L 77.948274 284.491636 
L 78.218915 295.488 
L 78.268532 284.491636 
L 78.539173 295.488 
L 78.579769 284.491636 
L 78.849508 295.488 
L 78.899125 284.491636 
L 79.168864 295.488 
L 79.21758 284.491636 
L 82.071939 185.524364 
L 84.649343 196.520727 
L 84.896529 295.488 
L 84.900137 284.491636 
L 85.170778 295.488 
L 85.208668 284.491636 
L 85.478407 295.488 
L 85.524415 284.491636 
L 85.794154 295.488 
L 85.835653 284.491636 
L 86.106293 295.488 
L 86.154107 284.491636 
L 86.423846 295.488 
L 86.46805 284.491636 
L 86.738691 295.488 
L 86.783798 284.491636 
L 87.054439 295.488 
L 87.104056 284.491636 
L 87.373795 295.488 
L 87.414391 284.491636 
L 87.685032 295.488 
L 87.730139 284.491636 
L 88.00078 295.488 
L 88.039572 284.491636 
L 88.309311 295.488 
L 88.352613 284.491636 
L 88.623254 295.488 
L 88.672872 284.491636 
L 88.943513 295.488 
L 88.984109 284.491636 
L 89.253848 295.488 
L 89.294444 284.491636 
L 89.565085 295.488 
L 89.614702 284.491636 
L 89.885343 295.488 
L 89.934058 284.491636 
L 90.204699 295.488 
L 90.254317 284.491636 
L 90.524958 295.488 
L 90.562847 284.491636 
L 90.832586 295.488 
L 90.885812 284.491636 
L 91.155551 295.488 
L 91.199756 284.491636 
L 91.470397 295.488 
L 91.522721 284.491636 
L 91.793362 295.488 
L 91.836664 284.491636 
L 92.107305 295.488 
L 92.148803 284.491636 
L 92.418542 295.488 
L 92.459138 284.491636 
L 92.729779 295.488 
L 92.773082 284.491636 
L 93.043723 295.488 
L 93.087927 284.491636 
L 93.358568 295.488 
L 93.398262 284.491636 
L 93.668903 295.488 
L 93.713108 284.491636 
L 93.983749 295.488 
L 94.031562 284.491636 
L 94.302203 295.488 
L 94.350016 284.491636 
L 94.620657 295.488 
L 94.663058 284.491636 
L 94.933698 295.488 
L 94.977903 284.491636 
L 95.247642 295.488 
L 95.292749 284.491636 
L 95.562488 295.488 
L 95.611203 284.491636 
L 95.880942 295.488 
L 95.924244 284.491636 
L 96.193983 295.488 
L 96.241796 284.491636 
L 96.512437 295.488 
L 96.561153 284.491636 
L 96.831794 295.488 
L 96.871488 284.491636 
L 97.142128 295.488 
L 97.184529 284.491636 
L 97.45517 295.488 
L 97.499375 284.491636 
L 97.770015 295.488 
L 97.807905 284.491636 
L 98.078546 295.488 
L 98.129968 284.491636 
L 98.400609 295.488 
L 98.438499 284.491636 
L 98.708237 295.488 
L 98.760561 284.491636 
L 99.031202 295.488 
L 99.083526 284.491636 
L 99.353265 295.488 
L 99.403785 284.491636 
L 99.674425 295.488 
L 99.724945 284.491636 
L 99.995586 295.488 
L 100.038889 284.491636 
L 100.30953 295.488 
L 100.354636 284.491636 
L 100.625277 295.488 
L 100.674895 284.491636 
L 100.945536 295.488 
L 100.992447 284.491636 
L 101.263088 295.488 
L 101.30639 284.491636 
L 101.577031 295.488 
L 101.616725 284.491636 
L 101.887366 295.488 
L 101.931571 284.491636 
L 102.20131 295.488 
L 102.247319 284.491636 
L 102.51796 295.488 
L 102.561262 284.491636 
L 102.831903 295.488 
L 102.877912 284.491636 
L 103.148553 295.488 
L 103.19366 284.491636 
L 103.463398 295.488 
L 103.51031 284.491636 
L 103.780951 295.488 
L 103.826057 284.491636 
L 104.096698 295.488 
L 104.145414 284.491636 
L 104.415152 295.488 
L 104.460259 284.491636 
L 104.7309 295.488 
L 104.770594 284.491636 
L 105.040333 295.488 
L 105.088146 284.491636 
L 105.358787 295.488 
L 105.405698 284.491636 
L 105.675437 295.488 
L 105.71874 284.491636 
L 105.989381 295.488 
L 106.026368 284.491636 
L 106.297009 295.488 
L 106.344822 284.491636 
L 106.615463 295.488 
L 106.656961 284.491636 
L 106.9267 295.488 
L 106.971807 284.491636 
L 107.242448 295.488 
L 107.291163 284.491636 
L 107.560902 295.488 
L 107.605107 284.491636 
L 107.875748 295.488 
L 107.923561 284.491636 
L 108.194202 295.488 
L 108.2357 284.491636 
L 108.506341 295.488 
L 108.547839 284.491636 
L 108.817578 295.488 
L 108.858174 284.491636 
L 109.128815 295.488 
L 109.17302 284.491636 
L 109.443661 295.488 
L 109.486061 284.491636 
L 109.756702 295.488 
L 109.800907 284.491636 
L 110.071548 295.488 
L 110.119361 284.491636 
L 110.3891 295.488 
L 111.872212 284.491636 
L 112.097746 273.495273 
L 112.141951 284.491636 
L 112.316965 273.495273 
L 112.368387 284.491636 
L 112.540695 273.495273 
L 112.587606 284.491636 
L 112.764425 273.495273 
L 112.811336 284.491636 
L 112.991764 273.495273 
L 113.035066 284.491636 
L 113.219102 273.495273 
L 113.261502 284.491636 
L 113.44193 273.495273 
L 113.488841 284.491636 
L 113.669268 273.495273 
L 113.712571 284.491636 
L 113.892998 273.495273 
L 113.939909 284.491636 
L 114.118532 273.495273 
L 114.163639 284.491636 
L 114.34587 273.495273 
L 114.388271 284.491636 
L 114.570502 273.495273 
L 114.615609 284.491636 
L 114.802351 273.495273 
L 114.841143 284.491636 
L 115.027885 273.495273 
L 115.07209 284.491636 
L 115.25342 273.495273 
L 115.298526 284.491636 
L 115.478954 273.495273 
L 115.524061 284.491636 
L 115.699075 273.495273 
L 115.748692 284.491636 
L 115.928218 273.495273 
L 115.969716 284.491636 
L 116.150143 273.495273 
L 116.197956 284.491636 
L 116.381992 273.495273 
L 116.420784 284.491636 
L 116.606624 273.495273 
L 116.652633 284.491636 
L 116.83306 273.495273 
L 116.877265 284.491636 
L 117.059497 273.495273 
L 117.102799 284.491636 
L 117.282324 273.495273 
L 117.329236 284.491636 
L 117.509663 273.495273 
L 117.552063 284.491636 
L 117.737903 273.495273 
L 117.779402 284.491636 
L 117.96434 273.495273 
L 118.008544 284.491636 
L 118.188069 273.495273 
L 118.23498 284.491636 
L 118.410897 273.495273 
L 118.45871 284.491636 
L 118.632823 273.495273 
L 118.681538 284.491636 
L 118.859259 273.495273 
L 118.903464 284.491636 
L 119.087499 273.495273 
L 119.1299 284.491636 
L 119.312131 273.495273 
L 119.35814 284.491636 
L 119.537666 273.495273 
L 119.58187 284.491636 
L 119.76771 273.495273 
L 119.808306 284.491636 
L 119.992342 273.495273 
L 120.038351 284.491636 
L 120.221485 273.495273 
L 120.262983 284.491636 
L 120.447019 273.495273 
L 120.492126 284.491636 
L 120.674357 273.495273 
L 120.716758 284.491636 
L 120.898989 273.495273 
L 120.944096 284.491636 
L 121.121817 273.495273 
L 121.168728 284.491636 
L 121.349155 273.495273 
L 121.391556 284.491636 
L 121.571081 273.495273 
L 121.619796 284.491636 
L 121.799322 273.495273 
L 121.841722 284.491636 
L 122.030268 273.495273 
L 122.069962 284.491636 
L 122.255803 273.495273 
L 122.300909 284.491636 
L 122.482239 273.495273 
L 122.525541 284.491636 
L 122.710479 273.495273 
L 122.75288 284.491636 
L 122.940524 273.495273 
L 122.980218 284.491636 
L 123.163352 273.495273 
L 123.211165 284.491636 
L 123.393397 273.495273 
L 123.433993 284.491636 
L 124.07902 251.502545 
L 127.241911 97.553455 
L 127.950088 108.549818 
L 128.182839 284.491636 
L 128.356951 273.495273 
L 128.408373 284.491636 
L 128.582485 273.495273 
L 128.627592 284.491636 
L 128.80802 273.495273 
L 128.853126 284.491636 
L 129.039869 273.495273 
L 129.07866 284.491636 
L 129.269011 273.495273 
L 129.31051 284.491636 
L 129.498154 273.495273 
L 129.539652 284.491636 
L 129.720982 273.495273 
L 129.768795 284.491636 
L 129.943809 273.495273 
L 129.991623 284.491636 
L 130.170246 273.495273 
L 130.21445 284.491636 
L 130.390367 273.495273 
L 130.439984 284.491636 
L 130.614999 273.495273 
L 130.661008 284.491636 
L 130.845946 273.495273 
L 130.88564 284.491636 
L 131.069676 273.495273 
L 131.116587 284.491636 
L 131.296112 273.495273 
L 131.340316 284.491636 
L 131.521646 273.495273 
L 131.566753 284.491636 
L 131.748082 273.495273 
L 131.792287 284.491636 
L 131.972714 273.495273 
L 132.018723 284.491636 
L 132.200053 273.495273 
L 132.243355 284.491636 
L 132.424684 273.495273 
L 132.470693 284.491636 
L 132.651121 273.495273 
L 132.695325 284.491636 
L 132.877557 273.495273 
L 132.921762 284.491636 
L 133.1067 273.495273 
L 133.148198 284.491636 
L 133.336744 273.495273 
L 133.377341 284.491636 
L 133.564985 273.495273 
L 133.607385 284.491636 
L 133.785106 273.495273 
L 133.835626 284.491636 
L 134.007032 273.495273 
L 134.055747 284.491636 
L 134.237979 273.495273 
L 134.277673 284.491636 
L 134.464415 273.495273 
L 134.50862 284.491636 
L 134.693558 273.495273 
L 134.735056 284.491636 
L 134.915483 273.495273 
L 134.963296 284.491636 
L 135.144626 273.495273 
L 135.185222 284.491636 
L 135.369258 273.495273 
L 135.415267 284.491636 
L 135.595694 273.495273 
L 135.639899 284.491636 
L 135.819424 273.495273 
L 135.866335 284.491636 
L 136.046762 273.495273 
L 136.090065 284.491636 
L 136.275905 273.495273 
L 136.317403 284.491636 
L 136.505048 273.495273 
L 136.546546 284.491636 
L 136.735995 273.495273 
L 136.775689 284.491636 
L 136.959724 273.495273 
L 137.005733 284.491636 
L 137.184356 273.495273 
L 137.230365 284.491636 
L 137.408988 273.495273 
L 137.454997 284.491636 
L 137.634522 273.495273 
L 137.679629 284.491636 
L 137.862763 273.495273 
L 137.905163 284.491636 
L 138.085591 273.495273 
L 138.132502 284.491636 
L 138.312929 273.495273 
L 138.356232 284.491636 
L 138.540267 273.495273 
L 138.582668 284.491636 
L 138.759487 273.495273 
L 138.810908 284.491636 
L 138.979608 273.495273 
L 139.030127 284.491636 
L 139.205142 273.495273 
L 139.249347 284.491636 
L 139.428872 273.495273 
L 139.475783 284.491636 
L 139.652602 273.495273 
L 139.699513 284.491636 
L 140.104572 262.498909 
L 140.132538 273.495273 
L 141.225928 218.513455 
L 143.710411 97.553455 
L 144.197565 108.549818 
L 144.430316 284.491636 
L 144.622471 273.495273 
L 144.670284 284.491636 
L 144.848005 273.495273 
L 144.893112 284.491636 
L 145.072637 273.495273 
L 145.118646 284.491636 
L 145.293661 273.495273 
L 145.342376 284.491636 
L 145.518293 273.495273 
L 145.564302 284.491636 
L 145.747435 273.495273 
L 145.788934 284.491636 
L 145.972067 273.495273 
L 146.018076 284.491636 
L 146.192189 273.495273 
L 146.242708 284.491636 
L 146.413212 273.495273 
L 146.46283 284.491636 
L 146.639648 273.495273 
L 146.683853 284.491636 
L 146.865182 273.495273 
L 146.910289 284.491636 
L 147.08801 273.495273 
L 147.135823 284.491636 
L 147.312642 273.495273 
L 147.358651 284.491636 
L 147.537274 273.495273 
L 147.583283 284.491636 
L 147.761906 273.495273 
L 147.807915 284.491636 
L 147.985636 273.495273 
L 148.032547 284.491636 
L 148.21117 273.495273 
L 148.256277 284.491636 
L 148.433096 273.495273 
L 148.480909 284.491636 
L 148.66314 273.495273 
L 148.703736 284.491636 
L 148.892283 273.495273 
L 148.933781 284.491636 
L 149.116915 273.495273 
L 149.162022 284.491636 
L 149.340645 273.495273 
L 149.386654 284.491636 
L 149.567983 273.495273 
L 149.611286 284.491636 
L 149.798028 273.495273 
L 149.838624 284.491636 
L 150.02266 273.495273 
L 150.068669 284.491636 
L 150.249096 273.495273 
L 150.293301 284.491636 
L 150.477337 273.495273 
L 150.519737 284.491636 
L 150.702871 273.495273 
L 150.747978 284.491636 
L 150.932013 273.495273 
L 150.973512 284.491636 
L 151.153037 273.495273 
L 151.202654 284.491636 
L 151.374962 273.495273 
L 151.422776 284.491636 
L 151.604105 273.495273 
L 151.644701 284.491636 
L 151.824226 273.495273 
L 151.873844 284.491636 
L 152.049761 273.495273 
L 152.094867 284.491636 
L 152.268078 273.495273 
L 152.320401 284.491636 
L 152.488199 273.495273 
L 152.538718 284.491636 
L 152.711929 273.495273 
L 152.75884 284.491636 
L 152.940169 273.495273 
L 152.98257 284.491636 
L 153.162997 273.495273 
L 153.209908 284.491636 
L 153.389433 273.495273 
L 153.432736 284.491636 
L 153.616771 273.495273 
L 153.659172 284.491636 
L 153.845914 273.495273 
L 153.88651 284.491636 
L 154.071448 273.495273 
L 154.116555 284.491636 
L 154.292472 273.495273 
L 154.342089 284.491636 
L 154.51981 273.495273 
L 154.563113 284.491636 
L 154.748051 273.495273 
L 154.790451 284.491636 
L 154.973585 273.495273 
L 155.018692 284.491636 
L 155.19551 273.495273 
L 155.244226 284.491636 
L 155.421044 273.495273 
L 155.466151 284.491636 
L 155.652893 273.495273 
L 155.691685 284.491636 
L 155.875721 273.495273 
L 155.923534 284.491636 
L 156.106668 273.495273 
L 156.146362 284.491636 
L 156.332202 273.495273 
L 156.377309 284.491636 
L 156.554128 273.495273 
L 156.602843 284.491636 
L 156.782368 273.495273 
L 156.824769 284.491636 
L 157.009707 273.495273 
L 157.053009 284.491636 
L 157.238849 273.495273 
L 157.280348 284.491636 
L 157.460775 273.495273 
L 157.50949 284.491636 
L 157.684505 273.495273 
L 157.731416 284.491636 
L 157.910039 273.495273 
L 157.955146 284.491636 
L 158.137377 273.495273 
L 158.18068 284.491636 
L 158.363813 273.495273 
L 158.407116 284.491636 
L 158.586641 273.495273 
L 158.634454 284.491636 
L 158.814882 273.495273 
L 158.857282 284.491636 
L 159.037709 273.495273 
L 159.085523 284.491636 
L 159.264146 273.495273 
L 159.30835 284.491636 
L 159.490582 273.495273 
L 159.534787 284.491636 
L 159.716116 273.495273 
L 159.760321 284.491636 
L 159.943454 273.495273 
L 159.985855 284.491636 
L 160.171695 273.495273 
L 160.214095 284.491636 
L 160.621861 262.498909 
L 160.648925 273.495273 
L 161.745021 218.513455 
L 164.230407 97.553455 
L 165.848839 108.549818 
L 166.081591 284.491636 
L 166.274648 273.495273 
L 166.320657 284.491636 
L 166.495671 273.495273 
L 166.545289 284.491636 
L 166.720303 273.495273 
L 166.766312 284.491636 
L 166.944033 273.495273 
L 166.990944 284.491636 
L 167.171371 273.495273 
L 167.213772 284.491636 
L 167.396003 273.495273 
L 167.442012 284.491636 
L 167.624244 273.495273 
L 167.666644 284.491636 
L 167.85068 273.495273 
L 167.894885 284.491636 
L 168.075312 273.495273 
L 168.121321 284.491636 
L 168.296336 273.495273 
L 168.345953 284.491636 
L 168.749208 262.498909 
L 168.773566 273.495273 
L 169.64954 229.509818 
L 172.338809 97.553455 
L 176.67177 108.549818 
L 176.905424 284.491636 
L 177.070515 273.495273 
L 177.109306 284.491636 
L 177.300559 273.495273 
L 177.340253 284.491636 
L 177.526093 273.495273 
L 177.570298 284.491636 
L 177.757943 273.495273 
L 177.796734 284.491636 
L 177.981672 273.495273 
L 178.028583 284.491636 
L 178.209011 273.495273 
L 178.251411 284.491636 
L 178.435447 273.495273 
L 178.479652 284.491636 
L 178.660981 273.495273 
L 178.705186 284.491636 
L 178.888319 273.495273 
L 178.93072 284.491636 
L 179.11656 273.495273 
L 179.15896 284.491636 
L 179.342996 273.495273 
L 179.387201 284.491636 
L 179.570335 273.495273 
L 179.613637 284.491636 
L 179.791358 273.495273 
L 179.840976 284.491636 
L 180.022305 273.495273 
L 180.061999 284.491636 
L 180.242426 273.495273 
L 180.292946 284.491636 
L 180.469765 273.495273 
L 180.513067 284.491636 
L 180.692592 273.495273 
L 180.740406 284.491636 
L 180.91542 273.495273 
L 180.963233 284.491636 
L 181.140052 273.495273 
L 181.186061 284.491636 
L 181.366488 273.495273 
L 181.410693 284.491636 
L 181.59112 273.495273 
L 181.636227 284.491636 
L 181.817556 273.495273 
L 181.861761 284.491636 
L 182.041286 273.495273 
L 182.087295 284.491636 
L 182.268625 273.495273 
L 182.311927 284.491636 
L 182.496865 273.495273 
L 182.538363 284.491636 
L 182.721497 273.495273 
L 182.767506 284.491636 
L 182.947933 273.495273 
L 182.992138 284.491636 
L 183.171663 273.495273 
L 183.218574 284.491636 
L 183.395393 273.495273 
L 183.442304 284.491636 
L 183.621829 273.495273 
L 183.666034 284.491636 
L 183.89247 295.488 
L 184.875799 284.491636 
L 185.145538 295.488 
L 185.186134 284.491636 
L 185.456775 295.488 
L 185.50549 284.491636 
L 185.776131 295.488 
L 185.821238 284.491636 
L 186.090977 295.488 
L 186.133377 284.491636 
L 186.404018 295.488 
L 186.450929 284.491636 
L 186.72157 295.488 
L 186.769383 284.491636 
L 187.040024 295.488 
L 187.08062 284.491636 
L 187.351261 295.488 
L 187.389151 284.491636 
L 187.65889 295.488 
L 187.70129 284.491636 
L 187.971931 295.488 
L 188.01794 284.491636 
L 188.288581 295.488 
L 188.337296 284.491636 
L 188.607035 295.488 
L 188.65124 284.491636 
L 188.921881 295.488 
L 188.976911 284.491636 
L 189.247552 295.488 
L 189.294463 284.491636 
L 189.565104 295.488 
L 189.604798 284.491636 
L 189.875439 295.488 
L 189.925057 284.491636 
L 190.194795 295.488 
L 190.236294 284.491636 
L 190.506935 295.488 
L 190.55565 284.491636 
L 190.826291 295.488 
L 190.867789 284.491636 
L 191.13843 295.488 
L 191.185341 284.491636 
L 191.455982 295.488 
L 191.502893 284.491636 
L 191.773534 295.488 
L 191.823152 284.491636 
L 192.093793 295.488 
L 192.142508 284.491636 
L 192.413149 295.488 
L 192.457354 284.491636 
L 192.727995 295.488 
L 192.771297 284.491636 
L 193.041036 295.488 
L 193.085241 284.491636 
L 193.355881 295.488 
L 193.392869 284.491636 
L 193.662608 295.488 
L 193.703204 284.491636 
L 193.973845 295.488 
L 194.013539 284.491636 
L 194.283278 295.488 
L 194.3347 284.491636 
L 194.60534 295.488 
L 194.654056 284.491636 
L 194.923795 295.488 
L 194.967999 284.491636 
L 195.23864 295.488 
L 195.284649 284.491636 
L 195.55529 295.488 
L 195.608516 284.491636 
L 195.879157 295.488 
L 195.92697 284.491636 
L 196.197611 295.488 
L 196.238207 284.491636 
L 196.508848 295.488 
L 196.548542 284.491636 
L 196.819183 295.488 
L 196.86429 284.491636 
L 197.134931 295.488 
L 197.177331 284.491636 
L 197.447972 295.488 
L 197.49759 284.491636 
L 197.768231 295.488 
L 197.81424 284.491636 
L 198.083979 295.488 
L 198.127281 284.491636 
L 200.960892 185.524364 
L 203.740374 196.520727 
L 203.980342 207.517091 
L 204.200464 284.491636 
L 204.40164 295.488 
L 204.438628 284.491636 
L 204.708366 295.488 
L 204.758886 284.491636 
L 205.029527 295.488 
L 205.07734 284.491636 
L 205.347079 295.488 
L 205.388577 284.491636 
L 205.659218 295.488 
L 205.698912 284.491636 
L 205.969553 295.488 
L 206.020073 284.491636 
L 206.290714 295.488 
L 206.328603 284.491636 
L 206.599244 295.488 
L 206.646155 284.491636 
L 206.916796 295.488 
L 206.961903 284.491636 
L 207.232544 295.488 
L 207.280357 284.491636 
L 207.550096 295.488 
L 207.600616 284.491636 
L 207.870355 295.488 
L 207.908244 284.491636 
L 208.178885 295.488 
L 208.215873 284.491636 
L 208.485612 295.488 
L 208.534327 284.491636 
L 208.804066 295.488 
L 208.847368 284.491636 
L 209.118009 295.488 
L 209.157703 284.491636 
L 209.428344 295.488 
L 209.466234 284.491636 
L 209.735973 295.488 
L 209.782884 284.491636 
L 210.053525 295.488 
L 210.108555 284.491636 
L 210.379196 295.488 
L 210.416184 284.491636 
L 210.686825 295.488 
L 210.736442 284.491636 
L 211.007083 295.488 
L 211.049483 284.491636 
L 211.320124 295.488 
L 211.359818 284.491636 
L 211.630459 295.488 
L 211.671958 284.491636 
L 211.941696 295.488 
L 211.98951 284.491636 
L 212.26015 295.488 
L 212.306159 284.491636 
L 212.575898 295.488 
L 212.620103 284.491636 
L 212.889842 295.488 
L 212.941263 284.491636 
L 213.211002 295.488 
L 213.258816 284.491636 
L 213.528554 295.488 
L 213.578172 284.491636 
L 213.848813 295.488 
L 213.897528 284.491636 
L 214.168169 295.488 
L 214.213276 284.491636 
L 214.483917 295.488 
L 214.529024 284.491636 
L 214.799665 295.488 
L 214.853793 284.491636 
L 215.124434 295.488 
L 215.160519 284.491636 
L 215.43116 295.488 
L 215.48168 284.491636 
L 215.752321 295.488 
L 215.795623 284.491636 
L 216.065362 295.488 
L 216.110469 284.491636 
L 216.38111 295.488 
L 216.425314 284.491636 
L 216.695955 295.488 
L 216.739258 284.491636 
L 217.009899 295.488 
L 217.055908 284.491636 
L 217.326549 295.488 
L 217.376166 284.491636 
L 217.646807 295.488 
L 217.695523 284.491636 
L 217.965261 295.488 
L 218.013075 284.491636 
L 218.283715 295.488 
L 218.321605 284.491636 
L 218.592246 295.488 
L 218.642766 284.491636 
L 218.912505 295.488 
L 218.952199 284.491636 
L 219.222839 295.488 
L 219.269751 284.491636 
L 219.540392 295.488 
L 219.577379 284.491636 
L 219.84802 295.488 
L 219.892225 284.491636 
L 220.162866 295.488 
L 220.203462 284.491636 
L 220.474103 295.488 
L 220.513797 284.491636 
L 220.784438 295.488 
L 220.837664 284.491636 
L 221.108305 295.488 
L 221.149803 284.491636 
L 221.419542 295.488 
L 221.469159 284.491636 
L 221.7398 295.488 
L 223.137209 284.491636 
L 223.317637 273.495273 
L 223.406948 284.491636 
L 223.49626 273.495273 
L 223.588278 284.491636 
L 223.676687 273.495273 
L 223.766901 284.491636 
L 223.859821 273.495273 
L 223.947328 284.491636 
L 224.03664 273.495273 
L 224.12956 284.491636 
L 224.217067 273.495273 
L 224.30728 284.491636 
L 224.397494 273.495273 
L 224.487708 284.491636 
L 224.577921 273.495273 
L 224.667233 284.491636 
L 224.757447 273.495273 
L 224.848562 284.491636 
L 224.941482 273.495273 
L 225.027185 284.491636 
L 225.12191 273.495273 
L 225.211221 284.491636 
L 225.301435 273.495273 
L 225.392551 284.491636 
L 225.483666 273.495273 
L 225.572076 284.491636 
L 225.661387 273.495273 
L 225.754307 284.491636 
L 225.84001 273.495273 
L 225.931126 284.491636 
L 226.02134 273.495273 
L 226.110651 284.491636 
L 226.203571 273.495273 
L 226.291981 284.491636 
L 226.382194 273.495273 
L 226.474212 284.491636 
L 226.559915 273.495273 
L 226.652835 284.491636 
L 226.743951 273.495273 
L 226.830556 284.491636 
L 226.92528 273.495273 
L 227.014592 284.491636 
L 227.10661 273.495273 
L 227.195921 284.491636 
L 227.281624 273.495273 
L 227.376349 284.491636 
L 227.462052 273.495273 
L 227.552265 284.491636 
L 227.642479 273.495273 
L 227.73179 284.491636 
L 227.818395 273.495273 
L 227.91312 284.491636 
L 227.997921 273.495273 
L 228.089036 284.491636 
L 228.180152 273.495273 
L 228.268562 284.491636 
L 228.364188 273.495273 
L 228.450793 284.491636 
L 228.547322 273.495273 
L 228.633927 284.491636 
L 228.725043 273.495273 
L 228.817963 284.491636 
L 228.906372 273.495273 
L 228.994781 284.491636 
L 229.085897 273.495273 
L 229.176111 284.491636 
L 229.265422 273.495273 
L 229.356538 284.491636 
L 229.447654 273.495273 
L 229.536063 284.491636 
L 229.62357 273.495273 
L 229.718295 284.491636 
L 229.805802 273.495273 
L 229.894211 284.491636 
L 229.986229 273.495273 
L 230.076443 284.491636 
L 230.168461 273.495273 
L 230.25687 284.491636 
L 230.34528 273.495273 
L 230.4382 284.491636 
L 230.528413 273.495273 
L 230.615018 284.491636 
L 230.884757 262.498909 
L 230.960537 273.495273 
L 231.246514 251.502545 
L 234.467141 53.568 
L 236.211873 64.564364 
L 236.534838 284.491636 
L 236.624149 273.495273 
L 236.715265 284.491636 
L 236.802772 273.495273 
L 236.89479 284.491636 
L 236.984102 273.495273 
L 237.072511 284.491636 
L 237.161823 273.495273 
L 237.25384 284.491636 
L 237.339543 273.495273 
L 237.432463 284.491636 
L 237.514558 273.495273 
L 237.609282 284.491636 
L 237.696789 273.495273 
L 237.785199 284.491636 
L 237.879021 273.495273 
L 237.96743 284.491636 
L 238.05584 273.495273 
L 238.149662 284.491636 
L 238.237169 273.495273 
L 238.325579 284.491636 
L 238.417596 273.495273 
L 238.50781 284.491636 
L 238.593513 273.495273 
L 238.688237 284.491636 
L 238.772136 273.495273 
L 238.863252 284.491636 
L 238.949857 273.495273 
L 239.042777 284.491636 
L 239.130284 273.495273 
L 239.220498 284.491636 
L 239.309809 273.495273 
L 239.400925 284.491636 
L 239.494747 273.495273 
L 239.58045 284.491636 
L 239.675175 273.495273 
L 239.765388 284.491636 
L 239.853798 273.495273 
L 239.945816 284.491636 
L 240.031519 273.495273 
L 240.124439 284.491636 
L 240.211044 273.495273 
L 240.302159 284.491636 
L 240.38696 273.495273 
L 240.481685 284.491636 
L 240.566485 273.495273 
L 240.657601 284.491636 
L 240.752326 273.495273 
L 240.837126 284.491636 
L 240.935459 273.495273 
L 241.022064 284.491636 
L 241.115887 273.495273 
L 241.2061 284.491636 
L 241.297216 273.495273 
L 241.386527 284.491636 
L 241.476741 273.495273 
L 241.566955 284.491636 
L 241.658973 273.495273 
L 241.747382 284.491636 
L 241.842106 273.495273 
L 241.929614 284.491636 
L 242.021631 273.495273 
L 242.112747 284.491636 
L 242.199352 273.495273 
L 242.292272 284.491636 
L 242.37978 273.495273 
L 242.469993 284.491636 
L 242.562011 273.495273 
L 242.650421 284.491636 
L 242.743341 273.495273 
L 242.832652 284.491636 
L 242.922866 273.495273 
L 243.013982 284.491636 
L 243.106902 273.495273 
L 243.193507 284.491636 
L 243.28372 273.495273 
L 243.377543 284.491636 
L 243.46505 273.495273 
L 243.554361 284.491636 
L 243.647281 273.495273 
L 243.735691 284.491636 
L 243.826806 273.495273 
L 243.917922 284.491636 
L 244.00994 273.495273 
L 244.097447 284.491636 
L 244.193074 273.495273 
L 244.280581 284.491636 
L 244.376208 273.495273 
L 244.463715 284.491636 
L 244.554831 273.495273 
L 244.646849 284.491636 
L 244.737964 273.495273 
L 244.824569 284.491636 
L 244.915685 273.495273 
L 245.008605 284.491636 
L 245.093406 273.495273 
L 245.186326 284.491636 
L 245.270225 273.495273 
L 245.364047 284.491636 
L 245.450652 273.495273 
L 245.539964 284.491636 
L 245.634688 273.495273 
L 245.721293 284.491636 
L 245.816017 273.495273 
L 245.904427 284.491636 
L 245.998249 273.495273 
L 246.085756 284.491636 
L 246.175068 273.495273 
L 246.26889 284.491636 
L 246.351886 273.495273 
L 246.445709 284.491636 
L 246.529607 273.495273 
L 246.622527 284.491636 
L 246.709132 273.495273 
L 246.799346 284.491636 
L 246.88956 273.495273 
L 246.979773 284.491636 
L 247.069085 273.495273 
L 247.159298 284.491636 
L 247.246806 273.495273 
L 247.339726 284.491636 
L 247.427233 273.495273 
L 247.517447 284.491636 
L 247.604954 273.495273 
L 247.697874 284.491636 
L 247.782675 273.495273 
L 247.875595 284.491636 
L 247.964004 273.495273 
L 248.052414 284.491636 
L 248.147138 273.495273 
L 248.234645 284.491636 
L 248.330272 273.495273 
L 248.416877 284.491636 
L 248.513405 273.495273 
L 248.600913 284.491636 
L 248.69293 273.495273 
L 248.783144 284.491636 
L 248.87426 273.495273 
L 248.963571 284.491636 
L 249.052883 273.495273 
L 249.143999 284.491636 
L 249.235114 273.495273 
L 249.323524 284.491636 
L 249.415542 273.495273 
L 249.504853 284.491636 
L 249.597773 273.495273 
L 249.686183 284.491636 
L 249.777298 273.495273 
L 249.868414 284.491636 
L 249.956824 273.495273 
L 250.047037 284.491636 
L 250.142664 273.495273 
L 250.226562 284.491636 
L 250.321287 273.495273 
L 250.412402 284.491636 
L 250.499008 273.495273 
L 250.591928 284.491636 
L 250.683946 273.495273 
L 250.769649 284.491636 
L 250.864373 273.495273 
L 250.954586 284.491636 
L 251.049311 273.495273 
L 251.135014 284.491636 
L 251.227032 273.495273 
L 251.319952 284.491636 
L 251.40385 273.495273 
L 251.497673 284.491636 
L 251.582473 273.495273 
L 251.674491 284.491636 
L 251.762901 273.495273 
L 251.853114 284.491636 
L 251.945132 273.495273 
L 252.033542 284.491636 
L 252.128266 273.495273 
L 252.215773 284.491636 
L 252.3114 273.495273 
L 252.398005 284.491636 
L 252.490023 273.495273 
L 252.582041 284.491636 
L 252.67045 273.495273 
L 252.760664 284.491636 
L 252.854486 273.495273 
L 252.940189 284.491636 
L 253.039424 273.495273 
L 253.125127 284.491636 
L 253.218047 273.495273 
L 253.310065 284.491636 
L 253.395768 273.495273 
L 253.488688 284.491636 
L 253.577097 273.495273 
L 253.666409 284.491636 
L 253.756622 273.495273 
L 253.846836 284.491636 
L 253.934343 273.495273 
L 254.027263 284.491636 
L 254.112064 273.495273 
L 254.204082 284.491636 
L 254.293393 273.495273 
L 254.382705 284.491636 
L 254.473821 273.495273 
L 254.564034 284.491636 
L 254.65515 273.495273 
L 254.74356 284.491636 
L 254.834675 273.495273 
L 254.924889 284.491636 
L 255.010592 273.495273 
L 255.104414 284.491636 
L 255.186508 273.495273 
L 255.281233 284.491636 
L 255.370544 273.495273 
L 255.457149 284.491636 
L 255.551874 273.495273 
L 255.640283 284.491636 
L 255.733203 273.495273 
L 255.822515 284.491636 
L 255.908218 273.495273 
L 256.003844 284.491636 
L 256.093156 273.495273 
L 256.178859 284.491636 
L 256.273583 273.495273 
L 256.362894 284.491636 
L 256.4495 273.495273 
L 256.544224 284.491636 
L 256.629025 273.495273 
L 256.719238 284.491636 
L 256.806746 273.495273 
L 256.898763 284.491636 
L 256.988977 273.495273 
L 257.077386 284.491636 
L 257.165796 273.495273 
L 257.259618 284.491636 
L 257.346223 273.495273 
L 257.436437 284.491636 
L 257.52665 273.495273 
L 257.616864 284.491636 
L 257.705273 273.495273 
L 257.797291 284.491636 
L 257.885701 273.495273 
L 257.975914 284.491636 
L 258.063422 273.495273 
L 258.156342 284.491636 
L 258.242947 273.495273 
L 258.33316 284.491636 
L 258.427885 273.495273 
L 258.513588 284.491636 
L 258.605606 273.495273 
L 258.697624 284.491636 
L 258.788739 273.495273 
L 258.876247 284.491636 
L 258.968264 273.495273 
L 259.05938 284.491636 
L 259.146887 273.495273 
L 259.238003 284.491636 
L 259.330021 273.495273 
L 259.417528 284.491636 
L 259.508644 273.495273 
L 259.59976 284.491636 
L 259.69268 273.495273 
L 259.779285 284.491636 
L 259.873107 273.495273 
L 259.963321 284.491636 
L 260.058947 273.495273 
L 260.143748 284.491636 
L 260.241179 273.495273 
L 260.328686 284.491636 
L 260.422508 273.495273 
L 260.510918 284.491636 
L 260.605642 273.495273 
L 260.693149 284.491636 
L 260.782461 273.495273 
L 260.876283 284.491636 
L 260.96379 273.495273 
L 261.053102 284.491636 
L 261.141511 273.495273 
L 261.234431 284.491636 
L 261.325547 273.495273 
L 261.412152 284.491636 
L 261.505974 273.495273 
L 261.596188 284.491636 
L 261.69001 273.495273 
L 261.776615 284.491636 
L 261.869535 273.495273 
L 261.960651 284.491636 
L 262.049962 273.495273 
L 262.139274 284.491636 
L 262.228586 273.495273 
L 262.320603 284.491636 
L 262.409013 273.495273 
L 262.499226 284.491636 
L 262.58944 273.495273 
L 262.679654 284.491636 
L 262.773476 273.495273 
L 262.860081 284.491636 
L 262.953903 273.495273 
L 263.044117 284.491636 
L 263.133428 273.495273 
L 263.224544 284.491636 
L 263.312051 273.495273 
L 263.404069 284.491636 
L 263.493381 273.495273 
L 263.582692 284.491636 
L 263.67471 273.495273 
L 263.76312 284.491636 
L 263.855138 273.495273 
L 263.944449 284.491636 
L 264.036467 273.495273 
L 264.124876 284.491636 
L 264.213286 273.495273 
L 264.307108 284.491636 
L 264.391909 273.495273 
L 264.483927 284.491636 
L 264.567825 273.495273 
L 264.661647 284.491636 
L 264.750057 273.495273 
L 264.838466 284.491636 
L 264.933191 273.495273 
L 265.020698 284.491636 
L 265.11452 273.495273 
L 265.203831 284.491636 
L 265.292241 273.495273 
L 265.385161 284.491636 
L 265.471766 273.495273 
L 265.56198 284.491636 
L 265.651291 273.495273 
L 265.741505 284.491636 
L 265.82811 273.495273 
L 265.921932 284.491636 
L 266.005831 273.495273 
L 266.097849 284.491636 
L 266.184454 273.495273 
L 266.276472 284.491636 
L 266.362175 273.495273 
L 266.455095 284.491636 
L 266.537189 273.495273 
L 266.632816 284.491636 
L 266.721225 273.495273 
L 266.80783 284.491636 
L 266.90075 273.495273 
L 266.991866 284.491636 
L 267.081177 273.495273 
L 267.171391 284.491636 
L 267.262507 273.495273 
L 267.351818 284.491636 
L 267.442934 273.495273 
L 267.533148 284.491636 
L 267.624264 273.495273 
L 267.713575 284.491636 
L 267.805593 273.495273 
L 267.894904 284.491636 
L 267.98602 273.495273 
L 268.075332 284.491636 
L 268.163741 273.495273 
L 268.256661 284.491636 
L 268.345973 273.495273 
L 268.43348 284.491636 
L 268.527302 273.495273 
L 268.615711 284.491636 
L 268.704121 273.495273 
L 268.797943 284.491636 
L 268.88545 273.495273 
L 268.97386 284.491636 
L 269.067682 273.495273 
L 269.156091 284.491636 
L 269.243598 273.495273 
L 269.337421 284.491636 
L 269.424928 273.495273 
L 269.514239 284.491636 
L 269.782174 262.498909 
L 269.857051 273.495273 
L 270.145735 251.502545 
L 273.380796 53.568 
L 274.097995 64.564364 
L 274.107918 53.568 
L 274.152123 108.549818 
L 274.378559 284.491636 
L 274.465164 273.495273 
L 274.557182 284.491636 
L 274.645591 273.495273 
L 274.735805 284.491636 
L 274.826019 273.495273 
L 274.91533 284.491636 
L 275.005544 273.495273 
L 275.09666 284.491636 
L 275.183265 273.495273 
L 275.276185 284.491636 
L 275.363692 273.495273 
L 275.453906 284.491636 
L 275.545021 273.495273 
L 275.634333 284.491636 
L 275.729959 273.495273 
L 275.81476 284.491636 
L 275.912191 273.495273 
L 276.0006 284.491636 
L 276.094423 273.495273 
L 276.182832 284.491636 
L 276.271241 273.495273 
L 276.365063 284.491636 
L 276.452571 273.495273 
L 276.541882 284.491636 
L 276.632998 273.495273 
L 276.722309 284.491636 
L 276.812523 273.495273 
L 276.902737 284.491636 
L 276.99295 273.495273 
L 277.083164 284.491636 
L 277.173378 273.495273 
L 277.263591 284.491636 
L 277.354707 273.495273 
L 277.443116 284.491636 
L 277.537841 273.495273 
L 277.625348 284.491636 
L 277.715562 273.495273 
L 277.80758 284.491636 
L 277.898695 273.495273 
L 277.9853 284.491636 
L 278.081829 273.495273 
L 278.168434 284.491636 
L 278.25955 273.495273 
L 278.351568 284.491636 
L 278.435467 273.495273 
L 278.530191 284.491636 
L 278.616796 273.495273 
L 278.706108 284.491636 
L 278.794517 273.495273 
L 278.887437 284.491636 
L 278.975846 273.495273 
L 279.064256 284.491636 
L 279.157176 273.495273 
L 279.246487 284.491636 
L 279.342114 273.495273 
L 279.427817 284.491636 
L 279.518932 273.495273 
L 279.612755 284.491636 
L 279.700262 273.495273 
L 279.789573 284.491636 
L 279.877081 273.495273 
L 279.970001 284.491636 
L 280.059312 273.495273 
L 280.146819 284.491636 
L 280.240642 273.495273 
L 280.329051 284.491636 
L 280.426482 273.495273 
L 280.511283 284.491636 
L 280.606007 273.495273 
L 280.697123 284.491636 
L 280.785532 273.495273 
L 280.876648 284.491636 
L 280.968666 273.495273 
L 281.056173 284.491636 
L 281.153604 273.495273 
L 281.239307 284.491636 
L 281.333129 273.495273 
L 281.423342 284.491636 
L 281.516262 273.495273 
L 281.602868 284.491636 
L 281.697592 273.495273 
L 281.786001 284.491636 
L 281.872606 273.495273 
L 281.967331 284.491636 
L 282.052132 273.495273 
L 282.143247 284.491636 
L 282.231657 273.495273 
L 282.322772 284.491636 
L 282.412986 273.495273 
L 282.502298 284.491636 
L 282.591609 273.495273 
L 282.683627 284.491636 
L 282.772036 273.495273 
L 282.86225 284.491636 
L 282.950659 273.495273 
L 283.042677 284.491636 
L 283.131087 273.495273 
L 283.2213 284.491636 
L 283.315123 273.495273 
L 283.401728 284.491636 
L 283.493746 273.495273 
L 283.585763 284.491636 
L 283.670564 273.495273 
L 283.764386 284.491636 
L 283.850089 273.495273 
L 283.940303 284.491636 
L 284.032321 273.495273 
L 284.12073 284.491636 
L 284.212748 273.495273 
L 284.30206 284.491636 
L 284.391371 273.495273 
L 284.483389 284.491636 
L 284.570896 273.495273 
L 284.662012 284.491636 
L 284.752226 273.495273 
L 284.841537 284.491636 
L 285.109472 262.498909 
L 285.186154 273.495273 
L 285.468522 251.502545 
L 288.716213 53.568 
L 290.339157 64.564364 
L 290.570104 284.491636 
L 290.709033 273.495273 
L 290.794736 284.491636 
L 290.88946 273.495273 
L 290.978772 284.491636 
L 291.068083 273.495273 
L 291.159199 284.491636 
L 291.244 273.495273 
L 291.338724 284.491636 
L 291.423525 273.495273 
L 291.514641 284.491636 
L 291.601246 273.495273 
L 291.870985 295.488 
L 292.635996 284.491636 
L 292.906637 295.488 
L 292.946331 284.491636 
L 293.216972 295.488 
L 293.262981 284.491636 
L 293.53272 295.488 
L 293.581435 284.491636 
L 296.419556 185.524364 
L 301.311842 196.520727 
L 301.55993 284.491636 
L 301.73314 295.488 
L 301.776443 284.491636 
L 302.047083 295.488 
L 302.09219 284.491636 
L 302.361929 295.488 
L 302.398917 284.491636 
L 302.669558 295.488 
L 302.71286 284.491636 
L 302.983501 295.488 
L 303.024999 284.491636 
L 303.29564 295.488 
L 303.342551 284.491636 
L 303.613192 295.488 
L 303.657397 284.491636 
L 303.928038 295.488 
L 303.974047 284.491636 
L 304.244688 295.488 
L 304.286186 284.491636 
L 304.556827 295.488 
L 304.602836 284.491636 
L 304.873477 295.488 
L 304.91678 284.491636 
L 305.186518 295.488 
L 305.224408 284.491636 
L 305.495049 295.488 
L 305.547373 284.491636 
L 305.818014 295.488 
L 305.860414 284.491636 
L 306.130153 295.488 
L 306.172553 284.491636 
L 306.442292 295.488 
L 306.490105 284.491636 
L 306.759844 295.488 
L 306.80856 284.491636 
L 307.079201 295.488 
L 307.123405 284.491636 
L 307.394046 295.488 
L 307.444566 284.491636 
L 307.715207 295.488 
L 307.757607 284.491636 
L 308.028248 295.488 
L 308.075159 284.491636 
L 308.344898 295.488 
L 308.390907 284.491636 
L 308.660646 295.488 
L 308.705753 284.491636 
L 308.975491 295.488 
L 309.015185 284.491636 
L 309.285826 295.488 
L 309.330031 284.491636 
L 309.600672 295.488 
L 309.648485 284.491636 
L 309.918224 295.488 
L 309.966037 284.491636 
L 310.236678 295.488 
L 310.282687 284.491636 
L 310.553328 295.488 
L 310.599337 284.491636 
L 310.869978 295.488 
L 310.90877 284.491636 
L 311.179411 295.488 
L 311.226322 284.491636 
L 311.496061 295.488 
L 311.534852 284.491636 
L 311.805493 295.488 
L 311.851502 284.491636 
L 312.122143 295.488 
L 312.172663 284.491636 
L 312.442402 295.488 
L 312.492921 284.491636 
L 312.76266 295.488 
L 312.81318 284.491636 
L 313.083821 295.488 
L 313.137949 284.491636 
L 313.407688 295.488 
L 313.455501 284.491636 
L 313.726142 295.488 
L 313.771249 284.491636 
L 314.04189 295.488 
L 314.081584 284.491636 
L 314.351322 295.488 
L 314.399136 284.491636 
L 314.669777 295.488 
L 314.712177 284.491636 
L 314.981916 295.488 
L 315.030631 284.491636 
L 315.301272 295.488 
L 315.35089 284.491636 
L 315.62153 295.488 
L 315.65942 284.491636 
L 315.930061 295.488 
L 315.981483 284.491636 
L 316.252124 295.488 
L 316.299937 284.491636 
L 316.570578 295.488 
L 316.612978 284.491636 
L 316.883619 295.488 
L 316.928726 284.491636 
L 317.199367 295.488 
L 317.241767 284.491636 
L 317.511506 295.488 
L 317.562026 284.491636 
L 317.832667 295.488 
L 317.879578 284.491636 
L 318.149317 295.488 
L 318.19713 284.491636 
L 318.467771 295.488 
L 318.517388 284.491636 
L 318.788029 295.488 
L 318.833136 284.491636 
L 319.103777 295.488 
L 319.154297 284.491636 
L 319.424938 295.488 
L 319.470947 284.491636 
L 319.741588 295.488 
L 319.791205 284.491636 
L 320.061846 295.488 
L 320.106051 284.491636 
L 320.375789 295.488 
L 320.416386 284.491636 
L 320.687027 295.488 
L 320.728525 284.491636 
L 320.998264 295.488 
L 321.04337 284.491636 
L 321.314011 295.488 
L 321.358216 284.491636 
L 321.628857 295.488 
L 321.669453 284.491636 
L 321.940094 295.488 
L 321.983397 284.491636 
L 322.253135 295.488 
L 322.300046 284.491636 
L 322.569785 295.488 
L 322.619403 284.491636 
L 322.890044 295.488 
L 322.939661 284.491636 
L 323.210302 295.488 
L 323.257213 284.491636 
L 323.527854 295.488 
L 323.577472 284.491636 
L 323.848113 295.488 
L 323.898632 284.491636 
L 324.169273 295.488 
L 324.220695 284.491636 
L 324.491336 295.488 
L 324.540953 284.491636 
L 324.811594 295.488 
L 324.853995 284.491636 
L 325.124636 295.488 
L 325.166134 284.491636 
L 325.436775 295.488 
L 325.482784 284.491636 
L 325.753425 295.488 
L 325.794021 284.491636 
L 326.064662 295.488 
L 326.104356 284.491636 
L 326.374095 295.488 
L 326.415593 284.491636 
L 326.686234 295.488 
L 326.737656 284.491636 
L 327.008297 295.488 
L 327.06062 284.491636 
L 327.330359 295.488 
L 327.379075 284.491636 
L 327.649716 295.488 
L 327.69392 284.491636 
L 327.964561 295.488 
L 328.011472 284.491636 
L 328.281211 295.488 
L 328.332633 284.491636 
L 328.603274 295.488 
L 328.651989 284.491636 
L 328.92263 295.488 
L 328.968639 284.491636 
L 329.238378 295.488 
L 329.278974 284.491636 
L 329.549615 295.488 
L 329.59833 284.491636 
L 329.868069 295.488 
L 329.914078 284.491636 
L 330.184719 295.488 
L 330.234336 284.491636 
L 330.504075 295.488 
L 330.553693 284.491636 
L 330.824334 295.488 
L 330.867636 284.491636 
L 331.138277 295.488 
L 331.184286 284.491636 
L 331.454025 295.488 
L 332.831587 284.491636 
L 333.058023 273.495273 
L 333.102228 284.491636 
L 333.286264 273.495273 
L 333.328664 284.491636 
L 333.510896 273.495273 
L 333.556905 284.491636 
L 333.735528 273.495273 
L 333.781537 284.491636 
L 333.964671 273.495273 
L 334.006169 284.491636 
L 334.190205 273.495273 
L 334.235312 284.491636 
L 334.420249 273.495273 
L 334.460846 284.491636 
L 334.643077 273.495273 
L 334.69089 284.491636 
L 334.866807 273.495273 
L 334.912816 284.491636 
L 335.094145 273.495273 
L 335.137448 284.491636 
L 335.31968 273.495273 
L 335.363884 284.491636 
L 335.543409 273.495273 
L 335.59032 284.491636 
L 335.770748 273.495273 
L 335.81405 284.491636 
L 335.997184 273.495273 
L 336.041389 284.491636 
L 336.222718 273.495273 
L 336.267825 284.491636 
L 336.448252 273.495273 
L 336.493359 284.491636 
L 336.671982 273.495273 
L 336.718893 284.491636 
L 336.898418 273.495273 
L 336.941721 284.491636 
L 337.121246 273.495273 
L 337.169059 284.491636 
L 337.345878 273.495273 
L 337.391887 284.491636 
L 337.569608 273.495273 
L 337.615617 284.491636 
L 337.792435 273.495273 
L 337.840249 284.491636 
L 338.019774 273.495273 
L 338.063076 284.491636 
L 338.242602 273.495273 
L 338.289513 284.491636 
L 338.462723 273.495273 
L 338.513242 284.491636 
L 338.685551 273.495273 
L 338.733364 284.491636 
L 338.907476 273.495273 
L 338.956191 284.491636 
L 339.131206 273.495273 
L 339.178117 284.491636 
L 339.358544 273.495273 
L 339.401847 284.491636 
L 339.581372 273.495273 
L 339.628283 284.491636 
L 339.806004 273.495273 
L 339.851111 284.491636 
L 340.02793 273.495273 
L 340.075743 284.491636 
L 340.254366 273.495273 
L 340.298571 284.491636 
L 340.477194 273.495273 
L 340.525007 284.491636 
L 340.704532 273.495273 
L 340.746932 284.491636 
L 340.925555 273.495273 
L 340.975173 284.491636 
L 341.154698 273.495273 
L 341.195294 284.491636 
L 341.378428 273.495273 
L 341.424437 284.491636 
L 341.60306 273.495273 
L 341.649069 284.491636 
L 341.825887 273.495273 
L 341.873701 284.491636 
L 342.051422 273.495273 
L 342.096528 284.491636 
L 342.281466 273.495273 
L 342.32116 284.491636 
L 342.512413 273.495273 
L 342.552107 284.491636 
L 342.737045 273.495273 
L 342.782152 284.491636 
L 342.96709 273.495273 
L 343.007686 284.491636 
L 343.189918 273.495273 
L 343.237731 284.491636 
L 343.41455 273.495273 
L 343.460559 284.491636 
L 343.636475 273.495273 
L 343.684289 284.491636 
L 343.863814 273.495273 
L 343.907116 284.491636 
L 344.093858 273.495273 
L 344.134455 284.491636 
L 344.312176 273.495273 
L 344.364499 284.491636 
L 344.535003 273.495273 
L 344.582816 284.491636 
L 344.755124 273.495273 
L 344.805644 284.491636 
L 344.986071 273.495273 
L 345.024863 284.491636 
L 345.211606 273.495273 
L 345.25581 284.491636 
L 345.661772 262.498909 
L 345.687934 273.495273 
L 346.560299 229.509818 
L 349.042077 108.549818 
L 355.297491 119.546182 
L 355.518514 284.491636 
L 355.599707 273.495273 
L 355.643911 284.491636 
L 355.825241 273.495273 
L 355.870348 284.491636 
L 356.050775 273.495273 
L 356.094979 284.491636 
L 356.282624 273.495273 
L 356.321416 284.491636 
L 356.510864 273.495273 
L 356.552363 284.491636 
L 356.73279 273.495273 
L 356.780603 284.491636 
L 356.96103 273.495273 
L 357.003431 284.491636 
L 357.183858 273.495273 
L 357.231671 284.491636 
L 357.409392 273.495273 
L 357.454499 284.491636 
L 357.63222 273.495273 
L 357.679131 284.491636 
L 358.087799 262.498909 
L 358.115765 273.495273 
L 359.222687 218.513455 
L 360.800523 141.538909 
L 360.88803 185.524364 
L 361.071164 284.491636 
L 361.252493 273.495273 
L 361.298502 284.491636 
L 361.48344 273.495273 
L 361.522232 284.491636 
L 361.706268 273.495273 
L 361.754081 284.491636 
L 361.929096 273.495273 
L 361.976909 284.491636 
L 362.159141 273.495273 
L 362.199737 284.491636 
L 362.383773 273.495273 
L 362.429782 284.491636 
L 362.608405 273.495273 
L 362.654414 284.491636 
L 362.835743 273.495273 
L 362.879045 284.491636 
L 363.054962 273.495273 
L 363.106384 284.491636 
L 363.275986 273.495273 
L 363.325603 284.491636 
L 363.502422 273.495273 
L 363.545724 284.491636 
L 363.725249 273.495273 
L 363.772161 284.491636 
L 363.948077 273.495273 
L 363.99589 284.491636 
L 364.172709 273.495273 
L 364.218718 284.491636 
L 364.398243 273.495273 
L 364.44335 284.491636 
L 364.621973 273.495273 
L 364.668884 284.491636 
L 364.851116 273.495273 
L 364.892614 284.491636 
L 365.07665 273.495273 
L 365.121757 284.491636 
L 365.303988 273.495273 
L 365.347291 284.491636 
L 365.530424 273.495273 
L 365.574629 284.491636 
L 365.754154 273.495273 
L 365.800163 284.491636 
L 365.983297 273.495273 
L 366.024795 284.491636 
L 366.207027 273.495273 
L 366.253036 284.491636 
L 366.436169 273.495273 
L 366.477668 284.491636 
L 366.661704 273.495273 
L 366.70681 284.491636 
L 366.883629 273.495273 
L 366.932344 284.491636 
L 367.113674 273.495273 
L 367.153368 284.491636 
L 367.336502 273.495273 
L 367.383413 284.491636 
L 367.555721 273.495273 
L 367.60624 284.491636 
L 367.785766 273.495273 
L 367.826362 284.491636 
L 368.012202 273.495273 
L 368.055504 284.491636 
L 368.23954 273.495273 
L 368.282843 284.491636 
L 368.470487 273.495273 
L 368.509279 284.491636 
L 368.691511 273.495273 
L 368.740226 284.491636 
L 368.91524 273.495273 
L 368.961249 284.491636 
L 369.13897 273.495273 
L 369.185881 284.491636 
L 369.364504 273.495273 
L 369.408709 284.491636 
L 369.588234 273.495273 
L 369.634243 284.491636 
L 369.815573 273.495273 
L 369.858875 284.491636 
L 370.042911 273.495273 
L 370.086213 284.491636 
L 370.268445 273.495273 
L 370.313552 284.491636 
L 370.495783 273.495273 
L 370.539086 284.491636 
L 370.724926 273.495273 
L 370.765522 284.491636 
L 370.947754 273.495273 
L 370.994665 284.491636 
L 371.172386 273.495273 
L 371.218395 284.491636 
L 371.396116 273.495273 
L 371.443027 284.491636 
L 371.848086 262.498909 
L 371.877856 273.495273 
L 372.977561 218.513455 
L 375.444002 97.553455 
L 376.947863 108.549818 
L 377.180614 284.491636 
L 377.24196 273.495273 
L 377.287066 284.491636 
L 377.463885 273.495273 
L 377.512601 284.491636 
L 377.69393 273.495273 
L 377.734526 284.491636 
L 377.920366 273.495273 
L 377.964571 284.491636 
L 378.148607 273.495273 
L 378.190105 284.491636 
L 378.375043 273.495273 
L 378.418346 284.491636 
L 378.601479 273.495273 
L 378.645684 284.491636 
L 378.827916 273.495273 
L 378.87212 284.491636 
L 379.048939 273.495273 
L 379.098556 284.491636 
L 379.276277 273.495273 
L 379.31958 284.491636 
L 379.500909 273.495273 
L 379.546918 284.491636 
L 379.727346 273.495273 
L 379.770648 284.491636 
L 379.954684 273.495273 
L 379.997084 284.491636 
L 380.184729 273.495273 
L 380.225325 284.491636 
L 380.412067 273.495273 
L 380.454468 284.491636 
L 380.635797 273.495273 
L 380.681806 284.491636 
L 380.860429 273.495273 
L 380.906438 284.491636 
L 381.085963 273.495273 
L 381.130168 284.491636 
L 381.309693 273.495273 
L 381.356604 284.491636 
L 381.535227 273.495273 
L 381.580334 284.491636 
L 381.76437 273.495273 
L 381.805868 284.491636 
L 381.99261 273.495273 
L 382.035011 284.491636 
L 382.21634 273.495273 
L 382.262349 284.491636 
L 382.436461 273.495273 
L 382.486981 284.491636 
L 382.661995 273.495273 
L 382.707102 284.491636 
L 382.888432 273.495273 
L 382.932636 284.491636 
L 383.120281 273.495273 
L 383.159073 284.491636 
L 383.345815 273.495273 
L 383.390922 284.491636 
L 383.568642 273.495273 
L 383.616456 284.491636 
L 383.788764 273.495273 
L 383.838381 284.491636 
L 384.012494 273.495273 
L 384.058503 284.491636 
L 384.237126 273.495273 
L 384.282232 284.491636 
L 384.466268 273.495273 
L 384.506864 284.491636 
L 384.689096 273.495273 
L 384.736007 284.491636 
L 384.916434 273.495273 
L 384.958835 284.491636 
L 385.139262 273.495273 
L 385.187075 284.491636 
L 385.369307 273.495273 
L 385.409001 284.491636 
L 385.591232 273.495273 
L 385.639948 284.491636 
L 385.811354 273.495273 
L 385.860971 284.491636 
L 386.035986 273.495273 
L 386.081995 284.491636 
L 386.257009 273.495273 
L 386.306627 284.491636 
L 386.487054 273.495273 
L 386.526748 284.491636 
L 386.712588 273.495273 
L 386.757695 284.491636 
L 386.938122 273.495273 
L 386.983229 284.491636 
L 387.163656 273.495273 
L 387.208763 284.491636 
L 387.390995 273.495273 
L 387.434297 284.491636 
L 387.615627 273.495273 
L 387.660733 284.491636 
L 387.842965 273.495273 
L 387.885365 284.491636 
L 388.072108 273.495273 
L 388.113606 284.491636 
L 388.294935 273.495273 
L 388.342749 284.491636 
L 388.521372 273.495273 
L 388.565576 284.491636 
L 388.971538 262.498909 
L 389.001308 273.495273 
L 389.873674 229.509818 
L 392.350941 108.549818 
L 393.328857 119.546182 
L 393.550782 284.491636 
L 393.701439 273.495273 
L 393.749252 284.491636 
L 393.928777 273.495273 
L 393.97208 284.491636 
L 394.154311 273.495273 
L 394.199418 284.491636 
L 394.380748 273.495273 
L 394.424952 284.491636 
L 394.607184 273.495273 
L 394.650486 284.491636 
L 394.836327 273.495273 
L 394.877825 284.491636 
L 395.063665 273.495273 
L 395.106968 284.491636 
L 395.292808 273.495273 
L 395.334306 284.491636 
L 395.518342 273.495273 
L 395.563449 284.491636 
L 395.744778 273.495273 
L 395.788983 284.491636 
L 395.971214 273.495273 
L 396.015419 284.491636 
L 396.198553 273.495273 
L 396.241855 284.491636 
L 396.422282 273.495273 
L 396.469194 284.491636 
L 396.647817 273.495273 
L 396.692021 284.491636 
L 396.876057 273.495273 
L 396.917555 284.491636 
L 397.098885 273.495273 
L 397.146698 284.491636 
L 397.322615 273.495273 
L 397.369526 284.491636 
L 397.548149 273.495273 
L 397.593256 284.491636 
L 397.770074 273.495273 
L 397.81879 284.491636 
L 397.997413 273.495273 
L 398.039813 284.491636 
L 398.217534 273.495273 
L 398.267151 284.491636 
L 398.487273 295.488 
L 398.487273 295.488 
" clip-path="url(#pa458903687)" style="fill: none; stroke: #1f77b4; stroke-width: 1.5; stroke-linecap: square"/>
   </g>
   <g id="patch_3">
    <path d="M 57.6 307.584 
L 57.6 41.472 
" style="fill: none; stroke: #000000; stroke-width: 0.8; stroke-linejoin: miter; stroke-linecap: square"/>
   </g>
   <g id="patch_4">
    <path d="M 414.72 307.584 
L 414.72 41.472 
" style="fill: none; stroke: #000000; stroke-width: 0.8; stroke-linejoin: miter; stroke-linecap: square"/>
   </g>
   <g id="patch_5">
    <path d="M 57.6 307.584 
L 414.72 307.584 
" style="fill: none; stroke: #000000; stroke-width: 0.8; stroke-linejoin: miter; stroke-linecap: square"/>
   </g>
   <g id="patch_6">
    <path d="M 57.6 41.472 
L 414.72 41.472 
" style="fill: none; stroke: #000000; stroke-width: 0.8; stroke-linejoin: miter; stroke-linecap: square"/>
   </g>
   <g id="text_15">
    <!-- Queue size (y-axis) between S1 and sensors that follow at a time (x-axis). -->
    <g transform="translate(14.282813 35.472) scale(0.12 -0.12)">
     <defs>
      <path id="DejaVuSans-51" d="M 2522 4238 
Q 1834 4238 1429 3725 
Q 1025 3213 1025 2328 
Q 1025 1447 1429 934 
Q 1834 422 2522 422 
Q 3209 422 3611 934 
Q 4013 1447 4013 2328 
Q 4013 3213 3611 3725 
Q 3209 4238 2522 4238 
z
M 3406 84 
L 4238 -825 
L 3475 -825 
L 2784 -78 
Q 2681 -84 2626 -87 
Q 2572 -91 2522 -91 
Q 1538 -91 948 567 
Q 359 1225 359 2328 
Q 359 3434 948 4092 
Q 1538 4750 2522 4750 
Q 3503 4750 4090 4092 
Q 4678 3434 4678 2328 
Q 4678 1516 4351 937 
Q 4025 359 3406 84 
z
" transform="scale(0.015625)"/>
      <path id="DejaVuSans-75" d="M 544 1381 
L 544 3500 
L 1119 3500 
L 1119 1403 
Q 1119 906 1312 657 
Q 1506 409 1894 409 
Q 2359 409 2629 706 
Q 2900 1003 2900 1516 
L 2900 3500 
L 3475 3500 
L 3475 0 
L 2900 0 
L 2900 538 
Q 2691 219 2414 64 
Q 2138 -91 1772 -91 
Q 1169 -91 856 284 
Q 544 659 544 1381 
z
M 1991 3584 
L 1991 3584 
z
" transform="scale(0.015625)"/>
      <path id="DejaVuSans-20" transform="scale(0.015625)"/>
      <path id="DejaVuSans-73" d="M 2834 3397 
L 2834 2853 
Q 2591 2978 2328 3040 
Q 2066 3103 1784 3103 
Q 1356 3103 1142 2972 
Q 928 2841 928 2578 
Q 928 2378 1081 2264 
Q 1234 2150 1697 2047 
L 1894 2003 
Q 2506 1872 2764 1633 
Q 3022 1394 3022 966 
Q 3022 478 2636 193 
Q 2250 -91 1575 -91 
Q 1294 -91 989 -36 
Q 684 19 347 128 
L 347 722 
Q 666 556 975 473 
Q 1284 391 1588 391 
Q 1994 391 2212 530 
Q 2431 669 2431 922 
Q 2431 1156 2273 1281 
Q 2116 1406 1581 1522 
L 1381 1569 
Q 847 1681 609 1914 
Q 372 2147 372 2553 
Q 372 3047 722 3315 
Q 1072 3584 1716 3584 
Q 2034 3584 2315 3537 
Q 2597 3491 2834 3397 
z
" transform="scale(0.015625)"/>
      <path id="DejaVuSans-69" d="M 603 3500 
L 1178 3500 
L 1178 0 
L 603 0 
L 603 3500 
z
M 603 4863 
L 1178 4863 
L 1178 4134 
L 603 4134 
L 603 4863 
z
" transform="scale(0.015625)"/>
      <path id="DejaVuSans-7a" d="M 353 3500 
L 3084 3500 
L 3084 2975 
L 922 459 
L 3084 459 
L 3084 0 
L 275 0 
L 275 525 
L 2438 3041 
L 353 3041 
L 353 3500 
z
" transform="scale(0.015625)"/>
      <path id="DejaVuSans-28" d="M 1984 4856 
Q 1566 4138 1362 3434 
Q 1159 2731 1159 2009 
Q 1159 1288 1364 580 
Q 1569 -128 1984 -844 
L 1484 -844 
Q 1016 -109 783 600 
Q 550 1309 550 2009 
Q 550 2706 781 3412 
Q 1013 4119 1484 4856 
L 1984 4856 
z
" transform="scale(0.015625)"/>
      <path id="DejaVuSans-79" d="M 2059 -325 
Q 1816 -950 1584 -1140 
Q 1353 -1331 966 -1331 
L 506 -1331 
L 506 -850 
L 844 -850 
Q 1081 -850 1212 -737 
Q 1344 -625 1503 -206 
L 1606 56 
L 191 3500 
L 800 3500 
L 1894 763 
L 2988 3500 
L 3597 3500 
L 2059 -325 
z
" transform="scale(0.015625)"/>
      <path id="DejaVuSans-2d" d="M 313 2009 
L 1997 2009 
L 1997 1497 
L 313 1497 
L 313 2009 
z
" transform="scale(0.015625)"/>
      <path id="DejaVuSans-61" d="M 2194 1759 
Q 1497 1759 1228 1600 
Q 959 1441 959 1056 
Q 959 750 1161 570 
Q 1363 391 1709 391 
Q 2188 391 2477 730 
Q 2766 1069 2766 1631 
L 2766 1759 
L 2194 1759 
z
M 3341 1997 
L 3341 0 
L 2766 0 
L 2766 531 
Q 2569 213 2275 61 
Q 1981 -91 1556 -91 
Q 1019 -91 701 211 
Q 384 513 384 1019 
Q 384 1609 779 1909 
Q 1175 2209 1959 2209 
L 2766 2209 
L 2766 2266 
Q 2766 2663 2505 2880 
Q 2244 3097 1772 3097 
Q 1472 3097 1187 3025 
Q 903 2953 641 2809 
L 641 3341 
Q 956 3463 1253 3523 
Q 1550 3584 1831 3584 
Q 2591 3584 2966 3190 
Q 3341 2797 3341 1997 
z
" transform="scale(0.015625)"/>
      <path id="DejaVuSans-78" d="M 3513 3500 
L 2247 1797 
L 3578 0 
L 2900 0 
L 1881 1375 
L 863 0 
L 184 0 
L 1544 1831 
L 300 3500 
L 978 3500 
L 1906 2253 
L 2834 3500 
L 3513 3500 
z
" transform="scale(0.015625)"/>
      <path id="DejaVuSans-29" d="M 513 4856 
L 1013 4856 
Q 1481 4119 1714 3412 
Q 1947 2706 1947 2009 
Q 1947 1309 1714 600 
Q 1481 -109 1013 -844 
L 513 -844 
Q 928 -128 1133 580 
Q 1338 1288 1338 2009 
Q 1338 2731 1133 3434 
Q 928 4138 513 4856 
z
" transform="scale(0.015625)"/>
      <path id="DejaVuSans-62" d="M 3116 1747 
Q 3116 2381 2855 2742 
Q 2594 3103 2138 3103 
Q 1681 3103 1420 2742 
Q 1159 2381 1159 1747 
Q 1159 1113 1420 752 
Q 1681 391 2138 391 
Q 2594 391 2855 752 
Q 3116 1113 3116 1747 
z
M 1159 2969 
Q 1341 3281 1617 3432 
Q 1894 3584 2278 3584 
Q 2916 3584 3314 3078 
Q 3713 2572 3713 1747 
Q 3713 922 3314 415 
Q 2916 -91 2278 -91 
Q 1894 -91 1617 61 
Q 1341 213 1159 525 
L 1159 0 
L 581 0 
L 581 4863 
L 1159 4863 
L 1159 2969 
z
" transform="scale(0.015625)"/>
      <path id="DejaVuSans-74" d="M 1172 4494 
L 1172 3500 
L 2356 3500 
L 2356 3053 
L 1172 3053 
L 1172 1153 
Q 1172 725 1289 603 
Q 1406 481 1766 481 
L 2356 481 
L 2356 0 
L 1766 0 
Q 1100 0 847 248 
Q 594 497 594 1153 
L 594 3053 
L 172 3053 
L 172 3500 
L 594 3500 
L 594 4494 
L 1172 4494 
z
" transform="scale(0.015625)"/>
      <path id="DejaVuSans-77" d="M 269 3500 
L 844 3500 
L 1563 769 
L 2278 3500 
L 2956 3500 
L 3675 769 
L 4391 3500 
L 4966 3500 
L 4050 0 
L 3372 0 
L 2619 2869 
L 1863 0 
L 1184 0 
L 269 3500 
z
" transform="scale(0.015625)"/>
      <path id="DejaVuSans-6e" d="M 3513 2113 
L 3513 0 
L 2938 0 
L 2938 2094 
Q 2938 2591 2744 2837 
Q 2550 3084 2163 3084 
Q 1697 3084 1428 2787 
Q 1159 2491 1159 1978 
L 1159 0 
L 581 0 
L 581 3500 
L 1159 3500 
L 1159 2956 
Q 1366 3272 1645 3428 
Q 1925 3584 2291 3584 
Q 2894 3584 3203 3211 
Q 3513 2838 3513 2113 
z
" transform="scale(0.015625)"/>
      <path id="DejaVuSans-53" d="M 3425 4513 
L 3425 3897 
Q 3066 4069 2747 4153 
Q 2428 4238 2131 4238 
Q 1616 4238 1336 4038 
Q 1056 3838 1056 3469 
Q 1056 3159 1242 3001 
Q 1428 2844 1947 2747 
L 2328 2669 
Q 3034 2534 3370 2195 
Q 3706 1856 3706 1288 
Q 3706 609 3251 259 
Q 2797 -91 1919 -91 
Q 1588 -91 1214 -16 
Q 841 59 441 206 
L 441 856 
Q 825 641 1194 531 
Q 1563 422 1919 422 
Q 2459 422 2753 634 
Q 3047 847 3047 1241 
Q 3047 1584 2836 1778 
Q 2625 1972 2144 2069 
L 1759 2144 
Q 1053 2284 737 2584 
Q 422 2884 422 3419 
Q 422 4038 858 4394 
Q 1294 4750 2059 4750 
Q 2388 4750 2728 4690 
Q 3069 4631 3425 4513 
z
" transform="scale(0.015625)"/>
      <path id="DejaVuSans-64" d="M 2906 2969 
L 2906 4863 
L 3481 4863 
L 3481 0 
L 2906 0 
L 2906 525 
Q 2725 213 2448 61 
Q 2172 -91 1784 -91 
Q 1150 -91 751 415 
Q 353 922 353 1747 
Q 353 2572 751 3078 
Q 1150 3584 1784 3584 
Q 2172 3584 2448 3432 
Q 2725 3281 2906 2969 
z
M 947 1747 
Q 947 1113 1208 752 
Q 1469 391 1925 391 
Q 2381 391 2643 752 
Q 2906 1113 2906 1747 
Q 2906 2381 2643 2742 
Q 2381 3103 1925 3103 
Q 1469 3103 1208 2742 
Q 947 2381 947 1747 
z
" transform="scale(0.015625)"/>
      <path id="DejaVuSans-6f" d="M 1959 3097 
Q 1497 3097 1228 2736 
Q 959 2375 959 1747 
Q 959 1119 1226 758 
Q 1494 397 1959 397 
Q 2419 397 2687 759 
Q 2956 1122 2956 1747 
Q 2956 2369 2687 2733 
Q 2419 3097 1959 3097 
z
M 1959 3584 
Q 2709 3584 3137 3096 
Q 3566 2609 3566 1747 
Q 3566 888 3137 398 
Q 2709 -91 1959 -91 
Q 1206 -91 779 398 
Q 353 888 353 1747 
Q 353 2609 779 3096 
Q 1206 3584 1959 3584 
z
" transform="scale(0.015625)"/>
      <path id="DejaVuSans-72" d="M 2631 2963 
Q 2534 3019 2420 3045 
Q 2306 3072 2169 3072 
Q 1681 3072 1420 2755 
Q 1159 2438 1159 1844 
L 1159 0 
L 581 0 
L 581 3500 
L 1159 3500 
L 1159 2956 
Q 1341 3275 1631 3429 
Q 1922 3584 2338 3584 
Q 2397 3584 2469 3576 
Q 2541 3569 2628 3553 
L 2631 2963 
z
" transform="scale(0.015625)"/>
      <path id="DejaVuSans-68" d="M 3513 2113 
L 3513 0 
L 2938 0 
L 2938 2094 
Q 2938 2591 2744 2837 
Q 2550 3084 2163 3084 
Q 1697 3084 1428 2787 
Q 1159 2491 1159 1978 
L 1159 0 
L 581 0 
L 581 4863 
L 1159 4863 
L 1159 2956 
Q 1366 3272 1645 3428 
Q 1925 3584 2291 3584 
Q 2894 3584 3203 3211 
Q 3513 2838 3513 2113 
z
" transform="scale(0.015625)"/>
      <path id="DejaVuSans-66" d="M 2375 4863 
L 2375 4384 
L 1825 4384 
Q 1516 4384 1395 4259 
Q 1275 4134 1275 3809 
L 1275 3500 
L 2222 3500 
L 2222 3053 
L 1275 3053 
L 1275 0 
L 697 0 
L 697 3053 
L 147 3053 
L 147 3500 
L 697 3500 
L 697 3744 
Q 697 4328 969 4595 
Q 1241 4863 1831 4863 
L 2375 4863 
z
" transform="scale(0.015625)"/>
      <path id="DejaVuSans-6c" d="M 603 4863 
L 1178 4863 
L 1178 0 
L 603 0 
L 603 4863 
z
" transform="scale(0.015625)"/>
      <path id="DejaVuSans-6d" d="M 3328 2828 
Q 3544 3216 3844 3400 
Q 4144 3584 4550 3584 
Q 5097 3584 5394 3201 
Q 5691 2819 5691 2113 
L 5691 0 
L 5113 0 
L 5113 2094 
Q 5113 2597 4934 2840 
Q 4756 3084 4391 3084 
Q 3944 3084 3684 2787 
Q 3425 2491 3425 1978 
L 3425 0 
L 2847 0 
L 2847 2094 
Q 2847 2600 2669 2842 
Q 2491 3084 2119 3084 
Q 1678 3084 1418 2786 
Q 1159 2488 1159 1978 
L 1159 0 
L 581 0 
L 581 3500 
L 1159 3500 
L 1159 2956 
Q 1356 3278 1631 3431 
Q 1906 3584 2284 3584 
Q 2666 3584 2933 3390 
Q 3200 3197 3328 2828 
z
" transform="scale(0.015625)"/>
     </defs>
     <use xlink:href="#DejaVuSans-51"/>
     <use xlink:href="#DejaVuSans-75" x="78.710938"/>
     <use xlink:href="#DejaVuSans-65" x="142.089844"/>
     <use xlink:href="#DejaVuSans-75" x="203.613281"/>
     <use xlink:href="#DejaVuSans-65" x="266.992188"/>
     <use xlink:href="#DejaVuSans-20" x="328.515625"/>
     <use xlink:href="#DejaVuSans-73" x="360.302734"/>
     <use xlink:href="#DejaVuSans-69" x="412.402344"/>
     <use xlink:href="#DejaVuSans-7a" x="440.185547"/>
     <use xlink:href="#DejaVuSans-65" x="492.675781"/>
     <use xlink:href="#DejaVuSans-20" x="554.199219"/>
     <use xlink:href="#DejaVuSans-28" x="585.986328"/>
     <use xlink:href="#DejaVuSans-79" x="625"/>
     <use xlink:href="#DejaVuSans-2d" x="682.429688"/>
     <use xlink:href="#DejaVuSans-61" x="718.513672"/>
     <use xlink:href="#DejaVuSans-78" x="779.792969"/>
     <use xlink:href="#DejaVuSans-69" x="838.972656"/>
     <use xlink:href="#DejaVuSans-73" x="866.755859"/>
     <use xlink:href="#DejaVuSans-29" x="918.855469"/>
     <use xlink:href="#DejaVuSans-20" x="957.869141"/>
     <use xlink:href="#DejaVuSans-62" x="989.65625"/>
     <use xlink:href="#DejaVuSans-65" x="1053.132812"/>
     <use xlink:href="#DejaVuSans-74" x="1114.65625"/>
     <use xlink:href="#DejaVuSans-77" x="1153.865234"/>
     <use xlink:href="#DejaVuSans-65" x="1235.652344"/>
     <use xlink:href="#DejaVuSans-65" x="1297.175781"/>
     <use xlink:href="#DejaVuSans-6e" x="1358.699219"/>
     <use xlink:href="#DejaVuSans-20" x="1422.078125"/>
     <use xlink:href="#DejaVuSans-53" x="1453.865234"/>
     <use xlink:href="#DejaVuSans-31" x="1517.341797"/>
     <use xlink:href="#DejaVuSans-20" x="1580.964844"/>
     <use xlink:href="#DejaVuSans-61" x="1612.751953"/>
     <use xlink:href="#DejaVuSans-6e" x="1674.03125"/>
     <use xlink:href="#DejaVuSans-64" x="1737.410156"/>
     <use xlink:href="#DejaVuSans-20" x="1800.886719"/>
     <use xlink:href="#DejaVuSans-73" x="1832.673828"/>
     <use xlink:href="#DejaVuSans-65" x="1884.773438"/>
     <use xlink:href="#DejaVuSans-6e" x="1946.296875"/>
     <use xlink:href="#DejaVuSans-73" x="2009.675781"/>
     <use xlink:href="#DejaVuSans-6f" x="2061.775391"/>
     <use xlink:href="#DejaVuSans-72" x="2122.957031"/>
     <use xlink:href="#DejaVuSans-73" x="2164.070312"/>
     <use xlink:href="#DejaVuSans-20" x="2216.169922"/>
     <use xlink:href="#DejaVuSans-74" x="2247.957031"/>
     <use xlink:href="#DejaVuSans-68" x="2287.166016"/>
     <use xlink:href="#DejaVuSans-61" x="2350.544922"/>
     <use xlink:href="#DejaVuSans-74" x="2411.824219"/>
     <use xlink:href="#DejaVuSans-20" x="2451.033203"/>
     <use xlink:href="#DejaVuSans-66" x="2482.820312"/>
     <use xlink:href="#DejaVuSans-6f" x="2518.025391"/>
     <use xlink:href="#DejaVuSans-6c" x="2579.207031"/>
     <use xlink:href="#DejaVuSans-6c" x="2606.990234"/>
     <use xlink:href="#DejaVuSans-6f" x="2634.773438"/>
     <use xlink:href="#DejaVuSans-77" x="2695.955078"/>
     <use xlink:href="#DejaVuSans-20" x="2777.742188"/>
     <use xlink:href="#DejaVuSans-61" x="2809.529297"/>
     <use xlink:href="#DejaVuSans-74" x="2870.808594"/>
     <use xlink:href="#DejaVuSans-20" x="2910.017578"/>
     <use xlink:href="#DejaVuSans-61" x="2941.804688"/>
     <use xlink:href="#DejaVuSans-20" x="3003.083984"/>
     <use xlink:href="#DejaVuSans-74" x="3034.871094"/>
     <use xlink:href="#DejaVuSans-69" x="3074.080078"/>
     <use xlink:href="#DejaVuSans-6d" x="3101.863281"/>
     <use xlink:href="#DejaVuSans-65" x="3199.275391"/>
     <use xlink:href="#DejaVuSans-20" x="3260.798828"/>
     <use xlink:href="#DejaVuSans-28" x="3292.585938"/>
     <use xlink:href="#DejaVuSans-78" x="3331.599609"/>
     <use xlink:href="#DejaVuSans-2d" x="3390.779297"/>
     <use xlink:href="#DejaVuSans-61" x="3426.863281"/>
     <use xlink:href="#DejaVuSans-78" x="3488.142578"/>
     <use xlink:href="#DejaVuSans-69" x="3547.322266"/>
     <use xlink:href="#DejaVuSans-73" x="3575.105469"/>
     <use xlink:href="#DejaVuSans-29" x="3627.205078"/>
     <use xlink:href="#DejaVuSans-2e" x="3666.21875"/>
    </g>
   </g>
  </g>
 </g>
 <defs>
  <clipPath id="pa458903687">
   <rect x="57.6" y="41.472" width="357.12" height="266.112"/>
  </clipPath>
 </defs>
</svg>
